<?xml version="1.0" encoding="utf-8"?>
<!-- Generator: Adobe Illustrator 16.0.0, SVG Export Plug-In . SVG Version: 6.00 Build 0)  -->
<!DOCTYPE svg PUBLIC "-//W3C//DTD SVG 1.1//EN" "http://www.w3.org/Graphics/SVG/1.1/DTD/svg11.dtd">
<svg version="1.1" id="Capa_1" xmlns="http://www.w3.org/2000/svg" xmlns:xlink="http://www.w3.org/1999/xlink" x="0px" y="0px"
	 width="56.062px" height="56.064px" viewBox="0 0 56.062 56.064" enable-background="new 0 0 56.062 56.064" xml:space="preserve">
<g>
	<path fill="#A0C219" d="M28.031,54.064C13.677,54.064,2,42.386,2,28.031C2,13.678,13.677,2,28.031,2
		c14.354,0,26.031,11.678,26.031,26.031C54.062,42.386,42.385,54.064,28.031,54.064z"/>
	<g>
		<path fill="#FFFFFF" d="M28.031,4c13.272,0,24.031,10.761,24.031,24.031c0,13.274-10.759,24.033-24.031,24.033S4,41.305,4,28.031
			C4,14.761,14.759,4,28.031,4 M28.031,0C12.575,0,0,12.575,0,28.031c0,15.458,12.575,28.033,28.031,28.033
			s28.031-12.576,28.031-28.033C56.062,12.575,43.488,0,28.031,0L28.031,0z"/>
	</g>
</g>
<g>
	<g>
		<path fill="#FFFFFF" d="M32.985,20.443v4.37c0,0.854-0.194,1.486-0.582,1.896c-0.388,0.41-1.034,0.681-1.938,0.812
			c0.904,0.121,1.55,0.386,1.938,0.795s0.582,1.042,0.582,1.896v5.508c0,2.228-0.375,3.735-1.126,4.523s-2.096,1.183-4.034,1.183
			c-1.906,0-3.242-0.406-4.009-1.219s-1.151-2.32-1.151-4.523v-1.77h3.077V36.1c0,1.276,0.158,2.161,0.473,2.654
			c0.315,0.494,0.852,0.741,1.611,0.741s1.288-0.244,1.587-0.731c0.299-0.488,0.448-1.376,0.448-2.664v-5.634
			c0-0.783-0.198-1.31-0.594-1.58c-0.396-0.271-1.191-0.406-2.386-0.406h-0.848v-1.969h0.848c1.179,0,1.97-0.142,2.374-0.425
			c0.404-0.282,0.606-0.815,0.606-1.598v-4.406c0-1.409-0.138-2.33-0.412-2.763c-0.274-0.434-0.767-0.65-1.478-0.65
			c-0.727,0-1.24,0.247-1.539,0.74c-0.299,0.494-0.448,1.385-0.448,2.673v1.661h-3.125v-1.3c0-2.155,0.379-3.636,1.139-4.442
			s2.083-1.21,3.973-1.21c1.857,0,3.157,0.4,3.9,1.2C32.614,16.792,32.985,18.276,32.985,20.443z"/>
	</g>
</g>
</svg>
