<?xml version="1.0" encoding="utf-8"?>
<!-- Generator: Adobe Illustrator 16.0.0, SVG Export Plug-In . SVG Version: 6.00 Build 0)  -->
<!DOCTYPE svg PUBLIC "-//W3C//DTD SVG 1.1//EN" "http://www.w3.org/Graphics/SVG/1.1/DTD/svg11.dtd">
<svg version="1.1" id="Capa_1" xmlns="http://www.w3.org/2000/svg" xmlns:xlink="http://www.w3.org/1999/xlink" x="0px" y="0px"
	 width="48.68px" height="206.119px" viewBox="0 0 48.68 206.119" enable-background="new 0 0 48.68 206.119" xml:space="preserve">
<g>
	<polygon fill="#F2961C" points="48.68,0 48.68,140.779 3.891,167.199 0,13.85 4.77,12.488 	"/>
	<polygon fill="#A0C219" points="48.68,140.779 48.68,197.559 4.77,206.119 3.891,167.199 	"/>
	<g>
		<g>
			<path fill="#FFFFFF" d="M34.324,135.212l0.236,3.426c-5.018,0-9.728,0.11-14.13,0.33l-0.246-3.921
				C24.826,135.148,29.54,135.203,34.324,135.212z"/>
			<path fill="#FFFFFF" d="M24.316,131.306l1.672-0.138c-0.889-0.385-1.34-1.398-1.354-3.04v-0.055c0-1.614,0.472-2.715,1.415-3.302
				c0.643-0.403,2.146-0.605,4.512-0.605c1.162,0,2.536,0.051,4.122,0.151v3.329c-2.112-0.119-3.749-0.179-4.912-0.179
				c-0.58,0-1.045,0.014-1.395,0.041c-1.025,0.092-1.537,0.532-1.537,1.32c0,0.789,0.273,1.284,0.82,1.486l7.434-0.138l0.021,3.232
				c-3.145,0-6.675,0.143-10.593,0.427L24.316,131.306z"/>
			<path fill="#FFFFFF" d="M31.475,123.19l-0.113-3.15h0.133c1.054,0,1.587-0.436,1.6-1.307v-0.056c0-0.843-0.304-1.265-0.912-1.265
				h-0.072c-0.669,0.036-1.209,0.868-1.619,2.496s-1.101,2.606-2.072,2.937c-0.341,0.12-0.669,0.18-0.984,0.18
				c-0.574,0-1.107-0.197-1.6-0.592c-0.751-0.605-1.182-1.522-1.291-2.751c-0.027-0.33-0.041-0.651-0.041-0.963
				c0-0.816,0.105-1.536,0.317-2.16c0.294-0.853,0.715-1.444,1.261-1.774c0.377-0.22,0.794-0.33,1.252-0.33
				c0.219,0,0.444,0.023,0.676,0.069l0.052,2.943c-0.171-0.027-0.328-0.041-0.472-0.041c-0.684,0-1.049,0.293-1.098,0.88
				c-0.006,0.064-0.01,0.129-0.01,0.192c0,0.605,0.229,1.014,0.688,1.225c0.157,0.073,0.301,0.11,0.43,0.11
				c0.322,0,0.599-0.202,0.831-0.605c0.328-0.568,0.661-1.41,1-2.524c0.338-1.114,0.914-1.863,1.728-2.249
				c0.308-0.138,0.615-0.206,0.923-0.206c0.52,0,1.043,0.202,1.569,0.605c0.84,0.642,1.329,1.637,1.466,2.984
				c0.034,0.294,0.052,0.583,0.052,0.867c0,1.009-0.195,1.944-0.585,2.806C34.082,122.612,33.047,123.172,31.475,123.19z"/>
			<path fill="#FFFFFF" d="M21.312,110.961l-0.154-3.122h3.395l-0.051-2.628l1.938-0.041l0.092,2.669h4.666
				c1.087,0,1.631-0.619,1.631-1.857c0-0.257-0.024-0.536-0.072-0.839l2.256,0.124c0.041,0.439,0.062,0.857,0.062,1.252
				c0,2.897-1.114,4.374-3.343,4.429h-5.014l0.102,2.256l-2.286,0.056l0.021-2.312L21.312,110.961z"/>
			<path fill="#FFFFFF" d="M27.762,100.37l7.435-0.138l0.021,3.37c-3.145,0-6.676,0.143-10.592,0.427l-0.205-2.531l1.671-0.138
				c-0.82-0.385-1.288-1.284-1.405-2.696c-0.013-0.211-0.02-0.412-0.02-0.605c0-1.109,0.27-1.953,0.81-2.53
				c0.643-0.67,1.665-1.009,3.065-1.019l0.227,3.054c-0.116-0.009-0.229-0.014-0.339-0.014c-1.094,0-1.641,0.381-1.641,1.142v0.056
				C26.822,99.627,27.146,100.168,27.762,100.37z"/>
			<path fill="#FFFFFF" d="M35.114,86.448l-1.671,0.138c0.889,0.385,1.336,1.422,1.343,3.108c0.007,0.019,0.011,0.032,0.011,0.042
				c0,1.669-0.561,2.773-1.682,3.314c-0.745,0.367-2.287,0.551-4.625,0.551c-1.203,0-2.621-0.051-4.256-0.151v-3.343
				c2.297,0.184,4.064,0.275,5.302,0.275c0.622,0,1.107-0.023,1.456-0.069c1.066-0.138,1.6-0.601,1.6-1.389
				c0-0.789-0.277-1.284-0.83-1.486l-7.117,0.138l-0.02-3.232c2.939,0,6.364-0.143,10.273-0.427L35.114,86.448z"/>
			<path fill="#FFFFFF" d="M30.89,77.149l0.153-3.273c2.469,0,3.72,1.527,3.754,4.581c0.007,0.036,0.01,0.068,0.01,0.096
				c0,2.907-1.644,4.36-4.932,4.36h-0.309c-3.527-0.091-5.308-1.641-5.342-4.649v-0.109c0-2.77,1.183-4.154,3.548-4.154
				c0.137,0,0.273,0.005,0.41,0.014l0.164,2.957h-0.246c-1.244,0-1.866,0.473-1.866,1.417c0,0.963,1.009,1.444,3.025,1.444h0.338
				c2.181-0.055,3.271-0.541,3.271-1.458v-0.082c-0.048-0.798-0.503-1.197-1.364-1.197C31.32,77.095,31.115,77.113,30.89,77.149z"/>
			<path fill="#FFFFFF" d="M30.89,67.107l0.153-3.273c2.469,0,3.72,1.527,3.754,4.581c0.007,0.036,0.01,0.068,0.01,0.096
				c0,2.907-1.644,4.36-4.932,4.36h-0.309c-3.527-0.091-5.308-1.641-5.342-4.649v-0.109c0-2.77,1.183-4.154,3.548-4.154
				c0.137,0,0.273,0.005,0.41,0.014l0.164,2.957h-0.246c-1.244,0-1.866,0.473-1.866,1.417c0,0.963,1.009,1.444,3.025,1.444h0.338
				c2.181-0.055,3.271-0.541,3.271-1.458V68.25c-0.048-0.798-0.503-1.197-1.364-1.197C31.32,67.053,31.115,67.071,30.89,67.107z"/>
			<path fill="#FFFFFF" d="M22.225,58.842c0.418,0,0.773,0.197,1.066,0.591c0.295,0.395,0.441,0.871,0.441,1.431
				c0,0.551-0.146,1.022-0.441,1.417c-0.293,0.395-0.648,0.592-1.066,0.592c-0.41,0-0.762-0.197-1.056-0.592s-0.44-0.866-0.44-1.417
				c0-0.56,0.146-1.036,0.44-1.431C21.463,59.039,21.814,58.842,22.225,58.842z M35.166,62.528c-4,0.063-7.455,0.096-10.367,0.096
				l-0.154-3.466c2.789,0.109,5.562,0.165,8.316,0.165c0.738,0,1.474-0.005,2.205-0.015V62.528z"/>
			<path fill="#FFFFFF" d="M24.584,53.242c0-3.117,1.613-4.677,4.84-4.677c0.13,0,0.26,0.005,0.389,0.014
				c3.494,0.129,5.258,1.788,5.291,4.979c0.008,0.037,0.011,0.074,0.011,0.11c0,3.035-1.651,4.553-4.952,4.553h-0.287
				C26.348,58.131,24.584,56.471,24.584,53.242z M26.922,53.696c0.15,0.578,0.707,0.973,1.671,1.184
				c0.574,0.128,1.152,0.192,1.733,0.192c0.389,0,0.782-0.027,1.179-0.083c0.984-0.146,1.494-0.619,1.528-1.417v-0.096
				c0-0.743-0.366-1.252-1.098-1.527c-0.608-0.229-1.329-0.344-2.164-0.344c-0.205,0-0.413,0.005-0.625,0.014
				c-1.101,0.074-1.787,0.294-2.061,0.66c-0.164,0.229-0.246,0.505-0.246,0.826C26.84,53.288,26.867,53.485,26.922,53.696z"/>
			<path fill="#FFFFFF" d="M24.316,45.278l1.672-0.138c-0.889-0.385-1.34-1.398-1.354-3.04v-0.055c0-1.614,0.472-2.715,1.415-3.302
				c0.643-0.403,2.146-0.605,4.512-0.605c1.162,0,2.536,0.051,4.122,0.151v3.329c-2.112-0.119-3.749-0.179-4.912-0.179
				c-0.58,0-1.045,0.014-1.395,0.041c-1.025,0.092-1.537,0.532-1.537,1.32c0,0.789,0.273,1.284,0.82,1.486l7.434-0.138l0.021,3.232
				c-3.145,0-6.675,0.143-10.593,0.427L24.316,45.278z"/>
			<path fill="#FFFFFF" d="M24.584,32.527c0-3.183,1.575-4.773,4.727-4.773c0.383,0,0.793,0.022,1.23,0.068v6.149
				c1.757,0,2.635-0.454,2.635-1.362v-0.096c-0.047-0.798-0.502-1.197-1.363-1.197c-0.185,0-0.39,0.019-0.615,0.055l-0.051-3.273
				c2.604,0,3.924,1.527,3.957,4.581c0.008,0.036,0.011,0.068,0.011,0.096c0,2.907-1.644,4.36-4.933,4.36h-0.307
				C26.348,37.044,24.584,35.508,24.584,32.527z M28.654,34.302v-3.109h-0.246c-1.244,0-1.866,0.473-1.866,1.417
				C26.542,33.628,27.246,34.191,28.654,34.302z"/>
			<path fill="#FFFFFF" d="M31.475,26.888l-0.113-3.15h0.133c1.054,0,1.587-0.436,1.6-1.307v-0.056c0-0.843-0.304-1.265-0.912-1.265
				h-0.072c-0.669,0.036-1.209,0.868-1.619,2.496s-1.101,2.606-2.072,2.937c-0.341,0.12-0.669,0.18-0.984,0.18
				c-0.574,0-1.107-0.197-1.6-0.592c-0.751-0.605-1.182-1.522-1.291-2.751c-0.027-0.33-0.041-0.651-0.041-0.963
				c0-0.816,0.105-1.536,0.317-2.16c0.294-0.853,0.715-1.444,1.261-1.774c0.377-0.22,0.794-0.33,1.252-0.33
				c0.219,0,0.444,0.023,0.676,0.069l0.052,2.943c-0.171-0.027-0.328-0.041-0.472-0.041c-0.684,0-1.049,0.293-1.098,0.88
				c-0.006,0.064-0.01,0.129-0.01,0.192c0,0.605,0.229,1.014,0.688,1.225c0.157,0.073,0.301,0.11,0.43,0.11
				c0.322,0,0.599-0.202,0.831-0.605c0.328-0.568,0.661-1.41,1-2.524c0.338-1.114,0.914-1.863,1.728-2.249
				c0.308-0.138,0.615-0.206,0.923-0.206c0.52,0,1.043,0.202,1.569,0.605c0.84,0.642,1.329,1.637,1.466,2.984
				c0.034,0.294,0.052,0.583,0.052,0.867c0,1.009-0.195,1.944-0.585,2.806C34.082,26.31,33.047,26.869,31.475,26.888z"/>
		</g>
	</g>
	<g>
		<path fill-rule="evenodd" clip-rule="evenodd" fill="#FFFFFF" d="M11.749,188.374c0.051-0.221,0.084-0.448,0.156-0.662
			c0.392-1.175,1.264-1.833,2.402-2.194c0.093-0.03,0.189-0.051,0.303-0.081c0-1.046,0-2.088,0-3.13
			c0-0.209-0.005-0.418,0.002-0.626c0.017-0.528,0.424-0.968,0.953-1c0.364-0.022,0.73-0.005,1.089-0.005
			c0.113-0.681,0.277-0.885,0.704-0.898c0.46-0.015,0.641,0.184,0.784,0.872c0.318,0,0.64,0,0.979,0
			c-0.112-0.514-0.068-0.993,0.356-1.312c0.224-0.167,0.534-0.308,0.806-0.309c4.948-0.018,9.895-0.016,14.842-0.012
			c0.77,0,1.333,0.684,1.2,1.437c-0.01,0.058-0.009,0.115-0.016,0.212c0.121,0,0.228,0,0.335,0c0.982,0,1.965-0.002,2.949,0
			c0.798,0.002,1.217,0.408,1.22,1.209c0.008,1.897,0.007,3.795,0,5.691c-0.003,0.807-0.416,1.21-1.218,1.212
			c-7.929,0-15.856,0-23.784-0.002c-0.802,0-1.199-0.408-1.202-1.216c0-0.179,0-0.357,0-0.537c-0.613,0.067-1.216,0.767-1.254,1.441
			c-0.052,0.92,0.522,1.665,1.517,1.936c0.76,0.206,1.534,0.284,2.325,0.27c1.052-0.017,2.112-0.073,3.152,0.047
			c2.155,0.249,3.905,1.307,5.284,2.973c0.375,0.449,0.241,0.893-0.353,1.302c-0.119,0-0.238,0-0.358,0
			c-0.139-0.124-0.277-0.248-0.418-0.371c-0.526-0.465-1.012-0.988-1.588-1.38c-1.363-0.926-2.918-1.146-4.537-1.128
			c-1.077,0.011-2.165,0.007-3.23-0.124c-1.299-0.157-2.328-0.846-2.961-2.008c-0.232-0.429-0.299-0.949-0.44-1.428
			C11.749,188.493,11.749,188.434,11.749,188.374z"/>
		<path fill-rule="evenodd" clip-rule="evenodd" fill="#FFFFFF" d="M25.819,161.129c0.287,0.067,0.584,0.107,0.86,0.207
			c1.652,0.605,2.705,1.758,2.993,3.504c0.291,1.76-0.34,3.195-1.753,4.276c-0.167,0.128-0.221,0.241-0.179,0.443
			c0.419,1.976,0.829,3.953,1.243,5.928c0.016,0.079,0.042,0.153,0.073,0.261c0.103,0,0.21,0,0.316,0
			c0.785,0,1.569-0.008,2.355,0.003c0.626,0.009,1.016,0.521,0.817,1.05c-0.057,0.153-0.14,0.235-0.326,0.235
			c-3-0.006-6.001-0.008-9,0c-0.272,0.002-0.344-0.154-0.376-0.36c-0.085-0.531,0.271-0.918,0.861-0.925
			c0.655-0.009,1.31-0.003,1.966-0.003c0.107,0,0.217,0,0.371,0c-0.118-0.566-0.227-1.104-0.338-1.644
			c-0.271-1.297-0.552-2.593-0.811-3.896c-0.04-0.205-0.123-0.269-0.314-0.299c-1.823-0.306-3.215-1.658-3.596-3.476
			c-0.521-2.486,1.172-4.892,3.688-5.251c0.046-0.005,0.089-0.034,0.135-0.055C25.143,161.129,25.48,161.129,25.819,161.129z
			 M28.075,165.365c-0.046-1.047-0.399-1.788-1.201-2.269c-0.393-0.234-0.742-0.155-0.951,0.191
			c-0.202,0.333-0.111,0.577,0.31,0.841c0.521,0.325,0.744,0.896,0.585,1.491c-0.026,0.095-0.06,0.19-0.071,0.288
			c-0.033,0.299,0.203,0.63,0.485,0.701c0.278,0.069,0.551-0.086,0.652-0.42C27.98,165.879,28.032,165.555,28.075,165.365z"/>
		<path fill-rule="evenodd" clip-rule="evenodd" fill="#FFFFFF" d="M27.703,178.652c-2.246,0-4.49,0-6.735,0
			c-0.301,0-0.357-0.064-0.328-0.367c0.045-0.48,0.41-0.844,0.891-0.887c0.099-0.009,0.197-0.012,0.296-0.012
			c3.926,0,7.849,0.003,11.771-0.003c0.408,0,0.773,0.066,1.009,0.438c0.063,0.1,0.117,0.211,0.144,0.325
			c0.095,0.421,0.021,0.506-0.402,0.506C32.133,178.652,29.918,178.652,27.703,178.652z"/>
	</g>
</g>
</svg>
