<?xml version="1.0" encoding="utf-8"?>
<!-- Generator: Adobe Illustrator 16.0.0, SVG Export Plug-In . SVG Version: 6.00 Build 0)  -->
<!DOCTYPE svg PUBLIC "-//W3C//DTD SVG 1.1//EN" "http://www.w3.org/Graphics/SVG/1.1/DTD/svg11.dtd">
<svg version="1.1" id="Capa_1" xmlns="http://www.w3.org/2000/svg" xmlns:xlink="http://www.w3.org/1999/xlink" x="0px" y="0px"
	 width="324.814px" height="56.064px" viewBox="0 0 324.814 56.064" enable-background="new 0 0 324.814 56.064"
	 xml:space="preserve">
<g>
	<g>
		<path fill="#F2961C" d="M28.031,54.064C13.678,54.064,2,42.386,2,28.031C2,13.678,13.678,2,28.031,2
			c14.354,0,26.032,11.678,26.032,26.031C54.063,42.386,42.386,54.064,28.031,54.064z"/>
		<g>
			<path fill="#FFFFFF" d="M28.031,4c13.272,0,24.032,10.761,24.032,24.031c0,13.274-10.76,24.033-24.032,24.033
				C14.76,52.064,4,41.305,4,28.031C4,14.761,14.76,4,28.031,4 M28.031,0C12.575,0,0,12.575,0,28.031
				c0,15.458,12.575,28.033,28.031,28.033c15.457,0,28.032-12.576,28.032-28.033C56.063,12.575,43.488,0,28.031,0L28.031,0z"/>
		</g>
	</g>
	<g>
		<g>
			<path fill="#FFFFFF" d="M26.542,15.206h3.028v25.77h-3.028V18.041c-0.582,0.386-1.163,0.711-1.744,0.976
				c-0.582,0.265-1.179,0.481-1.793,0.649v-2.51c0.694-0.253,1.336-0.542,1.926-0.867C25.52,15.965,26.057,15.604,26.542,15.206z"/>
		</g>
	</g>
	<g>
		<path fill="#F2961C" d="M95.22,54.064c-14.354,0-26.031-11.679-26.031-26.033C69.188,13.678,80.866,2,95.22,2
			s26.031,11.678,26.031,26.031C121.251,42.386,109.573,54.064,95.22,54.064z"/>
		<path fill="#FFFFFF" d="M95.22,4c13.271,0,24.031,10.761,24.031,24.031c0,13.274-10.76,24.033-24.031,24.033
			c-13.272,0-24.031-10.759-24.031-24.033C71.188,14.761,81.947,4,95.22,4 M95.22,0C79.763,0,67.188,12.575,67.188,28.031
			c0,15.458,12.574,28.033,28.031,28.033c15.456,0,28.031-12.576,28.031-28.033C123.251,12.575,110.676,0,95.22,0L95.22,0z"/>
	</g>
	<g>
		<g>
			<path fill="#FFFFFF" d="M100.319,19.865v1.697c0,0.458-0.097,1.018-0.291,1.68s-0.477,1.372-0.848,2.131l-6.687,13.634h7.68
				v1.969H89.757v-2.618l6.105-12.497l0.073-0.162c0.872-1.697,1.308-3.136,1.308-4.316v-1.644c0-1.107-0.158-1.896-0.473-2.365
				s-0.835-0.704-1.562-0.704c-0.759,0-1.296,0.25-1.611,0.749c-0.315,0.5-0.473,1.388-0.473,2.664v1.733h-3.125v-1.372
				c0-2.167,0.388-3.651,1.163-4.452c0.775-0.8,2.124-1.2,4.045-1.2c1.841,0,3.153,0.385,3.937,1.155S100.319,18.023,100.319,19.865
				z"/>
		</g>
	</g>
	<g>
		<path fill="#F2961C" d="M162.407,54.064c-14.354,0-26.031-11.679-26.031-26.033C136.376,13.678,148.054,2,162.407,2
			s26.031,11.678,26.031,26.031C188.438,42.386,176.761,54.064,162.407,54.064z"/>
		<path fill="#FFFFFF" d="M162.407,4c13.272,0,24.031,10.761,24.031,24.031c0,13.274-10.759,24.033-24.031,24.033
			s-24.031-10.759-24.031-24.033C138.376,14.761,149.135,4,162.407,4 M162.407,0c-15.457,0-28.031,12.575-28.031,28.031
			c0,15.458,12.574,28.033,28.031,28.033c15.456,0,28.031-12.576,28.031-28.033C190.438,12.575,177.863,0,162.407,0L162.407,0z"/>
	</g>
	<g>
		<g>
			<path fill="#FFFFFF" d="M167.361,20.443v4.37c0,0.854-0.194,1.486-0.582,1.896c-0.388,0.41-1.034,0.681-1.938,0.812
				c0.904,0.121,1.55,0.386,1.938,0.795s0.582,1.042,0.582,1.896v5.508c0,2.228-0.375,3.735-1.126,4.523s-2.096,1.183-4.034,1.183
				c-1.906,0-3.242-0.406-4.009-1.219s-1.151-2.32-1.151-4.523v-1.77h3.077V36.1c0,1.276,0.158,2.161,0.473,2.654
				c0.315,0.494,0.852,0.741,1.611,0.741s1.288-0.244,1.587-0.731c0.299-0.488,0.448-1.376,0.448-2.664v-5.634
				c0-0.783-0.198-1.31-0.594-1.58c-0.396-0.271-1.191-0.406-2.386-0.406h-0.848v-1.969h0.848c1.179,0,1.97-0.142,2.374-0.425
				c0.404-0.282,0.606-0.815,0.606-1.598v-4.406c0-1.409-0.138-2.33-0.412-2.763c-0.274-0.434-0.767-0.65-1.478-0.65
				c-0.727,0-1.24,0.247-1.539,0.74c-0.299,0.494-0.448,1.385-0.448,2.673v1.661h-3.125v-1.3c0-2.155,0.379-3.636,1.139-4.442
				s2.083-1.21,3.973-1.21c1.857,0,3.157,0.4,3.9,1.2C166.99,16.792,167.361,18.276,167.361,20.443z"/>
		</g>
	</g>
	<g>
		<path fill="#F2961C" d="M229.595,54.064c-14.354,0-26.031-11.679-26.031-26.033C203.563,13.678,215.241,2,229.595,2
			s26.031,11.678,26.031,26.031C255.626,42.386,243.948,54.064,229.595,54.064z"/>
		<path fill="#FFFFFF" d="M229.595,4c13.272,0,24.031,10.761,24.031,24.031c0,13.274-10.759,24.033-24.031,24.033
			c-13.271,0-24.031-10.759-24.031-24.033C205.563,14.761,216.323,4,229.595,4 M229.595,0c-15.456,0-28.031,12.575-28.031,28.031
			c0,15.458,12.575,28.033,28.031,28.033c15.457,0,28.031-12.576,28.031-28.033C257.626,12.575,245.052,0,229.595,0L229.595,0z"/>
	</g>
	<g>
		<g>
			<path fill="#FFFFFF" d="M228.59,15.206h4.336v17.119h2.616v1.807h-2.616v6.844h-2.883v-6.844H223.6v-2.294L228.59,15.206z
				 M230.14,16.976l-4.021,15.35h3.925l0.388-15.35H230.14z"/>
		</g>
	</g>
	<g>
		<path fill="#F2961C" d="M296.783,54.064c-14.354,0-26.032-11.679-26.032-26.033C270.751,13.678,282.429,2,296.783,2
			c14.354,0,26.031,11.678,26.031,26.031C322.814,42.386,311.136,54.064,296.783,54.064z"/>
		<path fill="#FFFFFF" d="M296.783,4c13.272,0,24.031,10.761,24.031,24.031c0,13.274-10.759,24.033-24.031,24.033
			c-13.272,0-24.032-10.759-24.032-24.033C272.751,14.761,283.51,4,296.783,4 M296.783,0c-15.457,0-28.032,12.575-28.032,28.031
			c0,15.458,12.575,28.033,28.032,28.033s28.031-12.576,28.031-28.033C324.814,12.575,312.24,0,296.783,0L296.783,0z"/>
	</g>
	<g>
		<g>
			<path fill="#FFFFFF" d="M291.756,15.206h9.884v1.95h-6.904v8.65c0.5-0.361,1.005-0.623,1.514-0.786
				c0.509-0.162,1.103-0.243,1.781-0.243c1.389,0,2.378,0.292,2.968,0.876c0.589,0.584,0.884,1.586,0.884,3.006v7.062
				c0,2.228-0.375,3.735-1.126,4.523s-2.096,1.183-4.034,1.183c-1.922,0-3.271-0.409-4.046-1.228
				c-0.775-0.818-1.163-2.323-1.163-4.515v-1.77h3.125V36.1c0,1.288,0.153,2.176,0.46,2.664c0.307,0.487,0.832,0.731,1.575,0.731
				c0.759,0,1.296-0.247,1.611-0.741c0.315-0.493,0.473-1.378,0.473-2.654v-6.916c0-0.999-0.15-1.7-0.448-2.104
				c-0.299-0.402-0.812-0.604-1.539-0.604c-0.743,0-1.268,0.198-1.575,0.596s-0.46,1.102-0.46,2.113v0.47h-2.98V15.206z"/>
		</g>
	</g>
</g>
</svg>
