<?xml version="1.0" encoding="utf-8"?>
<!-- Generator: Adobe Illustrator 16.0.0, SVG Export Plug-In . SVG Version: 6.00 Build 0)  -->
<!DOCTYPE svg PUBLIC "-//W3C//DTD SVG 1.1//EN" "http://www.w3.org/Graphics/SVG/1.1/DTD/svg11.dtd">
<svg version="1.1" id="Capa_1" xmlns="http://www.w3.org/2000/svg" xmlns:xlink="http://www.w3.org/1999/xlink" x="0px" y="0px"
	 width="56.062px" height="56.064px" viewBox="0 0 56.062 56.064" enable-background="new 0 0 56.062 56.064" xml:space="preserve">
<g>
	<path fill="#E6332A" d="M28.031,54.064C13.678,54.064,2,42.386,2,28.031C2,13.678,13.678,2,28.031,2
		c14.354,0,26.031,11.678,26.031,26.031C54.062,42.386,42.385,54.064,28.031,54.064z"/>
	<g>
		<path fill="#FFFFFF" d="M28.031,4c13.272,0,24.031,10.761,24.031,24.031c0,13.274-10.759,24.033-24.031,24.033
			C14.76,52.064,4,41.305,4,28.031C4,14.761,14.76,4,28.031,4 M28.031,0C12.575,0,0,12.575,0,28.031
			c0,15.458,12.575,28.033,28.031,28.033s28.031-12.576,28.031-28.033C56.062,12.575,43.488,0,28.031,0L28.031,0z"/>
	</g>
</g>
<g>
	<g>
		<path fill="#FFFFFF" d="M27.026,15.206h4.336v17.119h2.616v1.807h-2.616v6.844H28.48v-6.844h-6.444v-2.294L27.026,15.206z
			 M28.577,16.976l-4.021,15.35h3.925l0.388-15.35H28.577z"/>
	</g>
</g>
</svg>
