<?xml version="1.0" encoding="utf-8"?>
<!-- Generator: Adobe Illustrator 16.0.0, SVG Export Plug-In . SVG Version: 6.00 Build 0)  -->
<!DOCTYPE svg PUBLIC "-//W3C//DTD SVG 1.1//EN" "http://www.w3.org/Graphics/SVG/1.1/DTD/svg11.dtd">
<svg version="1.1" id="Capa_1" xmlns="http://www.w3.org/2000/svg" xmlns:xlink="http://www.w3.org/1999/xlink" x="0px" y="0px"
	 width="332.489px" height="51px" viewBox="0 0 332.489 51" enable-background="new 0 0 332.489 51" xml:space="preserve">
<g>
	<g>
		<path fill="#331842" d="M30.852,22.653l-3.438,0.012v-0.312c0-1.808-0.681-2.712-2.044-2.712c-1.456,0-2.183,1.67-2.183,5.01
			c0,3.763,0.764,5.646,2.292,5.646h0.016c1.528-0.008,2.292-0.932,2.292-2.771v-1.143h3.84v0.865c0,3.834-2.111,5.838-6.333,6.016
			c-0.124,0.008-0.248,0.012-0.372,0.012c-3.975,0-5.962-2.848-5.962-8.542c0-5.572,2.044-8.358,6.132-8.358
			c3.851,0,5.776,1.863,5.776,5.587C30.868,22.184,30.863,22.415,30.852,22.653z"/>
		<path fill="#331842" d="M36.659,25.088l0.155,8.369L33.02,33.48c0-3.541-0.16-7.516-0.48-11.925l2.849-0.231l0.155,1.882
			c0.434-0.923,1.445-1.451,3.035-1.582c0.237-0.015,0.464-0.023,0.681-0.023c1.249,0,2.199,0.304,2.85,0.912
			c0.753,0.724,1.135,1.874,1.146,3.452l-3.438,0.253c0.01-0.131,0.016-0.257,0.016-0.38c0-1.231-0.429-1.847-1.285-1.847h-0.062
			C37.496,24.031,36.886,24.396,36.659,25.088z"/>
		<path fill="#331842" d="M44.48,33.423c-0.072-4.502-0.108-8.392-0.108-11.67l3.902-0.173c-0.124,3.14-0.186,6.261-0.186,9.361
			c0,0.832,0.005,1.658,0.015,2.481H44.48z M44.48,19.259c1.208-1.07,2.199-2.09,2.973-3.059l2.54,1.5
			c-1.095,0.8-2.313,1.782-3.655,2.943L44.48,19.259z"/>
		<path fill="#331842" d="M51.975,21.268l0.062,1.847c0.558-0.885,1.203-1.436,1.936-1.651c0.434-0.123,0.872-0.185,1.316-0.185
			c0.33,0,0.661,0.031,0.991,0.092c0.805,0.154,1.378,0.77,1.719,1.847c0.269-0.839,0.733-1.399,1.394-1.68
			c0.66-0.281,1.394-0.425,2.199-0.433h0.062c0.784,0,1.538,0.143,2.261,0.427c0.733,0.292,1.293,0.841,1.68,1.645
			c0.387,0.804,0.591,1.907,0.612,3.308v6.707l-3.345,0.059c0.134-2.533,0.201-4.688,0.201-6.465c0-1.778-0.455-2.736-1.363-2.875
			c-0.134-0.015-0.263-0.023-0.387-0.023c-0.723,0-1.28,0.346-1.672,1.039c-0.062,0.801-0.093,1.736-0.093,2.805
			c0,1.455,0.057,3.151,0.17,5.092l-3.871,0.022c0.145-2.979,0.217-5.147,0.217-6.51v-0.14c-0.01-1.347-0.367-2.055-1.069-2.125
			h-0.201c-0.63,0-1.239,0.27-1.827,0.808l0.031,8.45l-3.654,0.104v-1.895c0-3.354-0.067-6.707-0.202-10.055L51.975,21.268z"/>
		<path fill="#331842" d="M72.168,21.51c3.583,0,5.374,1.774,5.374,5.322c0,0.432-0.026,0.893-0.078,1.385h-6.922
			c0,1.979,0.511,2.967,1.533,2.967h0.108c0.898-0.055,1.347-0.563,1.347-1.535c0-0.207-0.021-0.438-0.062-0.692l3.686-0.058
			c0,2.933-1.719,4.416-5.157,4.455c-0.042,0.008-0.077,0.013-0.108,0.013c-3.273,0-4.909-1.853-4.909-5.554v-0.348
			C67.084,23.496,68.813,21.51,72.168,21.51z M70.171,26.093h3.5v-0.277c0-1.401-0.532-2.101-1.595-2.101
			C70.929,23.715,70.295,24.508,70.171,26.093z"/>
		<path fill="#331842" d="M81.552,21.21l0.155,1.881c0.434-1,1.574-1.508,3.423-1.523h0.062c1.817,0,3.056,0.531,3.717,1.593
			c0.454,0.724,0.681,2.417,0.681,5.079c0,1.309-0.057,2.854-0.17,4.641h-3.747c0.134-2.377,0.201-4.221,0.201-5.527
			c0-0.653-0.016-1.178-0.046-1.57c-0.104-1.154-0.599-1.731-1.487-1.731c-0.888,0-1.445,0.308-1.672,0.923l0.155,8.369
			l-3.639,0.023c0-3.541-0.16-7.516-0.48-11.925L81.552,21.21z"/>
		<path fill="#331842" d="M95.908,21.51c3.583,0,5.374,1.774,5.374,5.322c0,0.432-0.026,0.893-0.078,1.385h-6.922
			c0,1.979,0.511,2.967,1.533,2.967h0.108c0.898-0.055,1.348-0.563,1.348-1.535c0-0.207-0.021-0.438-0.062-0.692l3.686-0.058
			c0,2.933-1.719,4.416-5.157,4.455c-0.042,0.008-0.077,0.013-0.108,0.013c-3.273,0-4.909-1.853-4.909-5.554v-0.348
			C90.823,23.496,92.552,21.51,95.908,21.51z M93.91,26.093h3.5v-0.277c0-1.401-0.532-2.101-1.595-2.101
			C94.669,23.715,94.034,24.508,93.91,26.093z"/>
		<path fill="#331842" d="M102.257,29.268l3.546-0.127v0.149c0,1.187,0.49,1.785,1.471,1.801h0.062c0.95,0,1.425-0.342,1.425-1.026
			v-0.08c-0.041-0.754-0.978-1.361-2.811-1.824c-1.833-0.461-2.935-1.238-3.306-2.332c-0.134-0.384-0.202-0.754-0.202-1.108
			c0-0.646,0.222-1.247,0.666-1.801c0.682-0.847,1.714-1.332,3.097-1.455c0.372-0.031,0.733-0.046,1.084-0.046
			c0.919,0,1.729,0.12,2.431,0.358c0.96,0.331,1.626,0.804,1.998,1.42c0.248,0.423,0.372,0.893,0.372,1.408
			c0,0.247-0.026,0.5-0.078,0.762l-3.314,0.058c0.031-0.192,0.046-0.37,0.046-0.531c0-0.769-0.33-1.181-0.991-1.235
			c-0.073-0.008-0.145-0.012-0.217-0.012c-0.682,0-1.141,0.258-1.378,0.773c-0.083,0.177-0.124,0.339-0.124,0.485
			c0,0.362,0.227,0.673,0.682,0.935c0.64,0.37,1.587,0.745,2.842,1.125c1.254,0.381,2.098,1.029,2.532,1.945
			c0.155,0.346,0.232,0.69,0.232,1.039c0,0.584-0.227,1.174-0.681,1.766c-0.723,0.947-1.843,1.496-3.36,1.65
			c-0.331,0.038-0.656,0.059-0.976,0.059c-1.136,0-2.189-0.219-3.159-0.657C102.907,32.205,102.278,31.039,102.257,29.268z"/>
		<path fill="#331842" d="M130.921,17.031c-0.062,2.601-0.093,5.329-0.093,8.184c0,2.602,0.025,5.311,0.077,8.126l-3.67,0.013
			l-0.124-1.767c-0.764,0.854-1.781,1.281-3.051,1.281c-3.169,0-4.754-1.81-4.754-5.427c0-0.075,0.005-0.153,0.016-0.229
			c0.062-3.625,1.631-5.438,4.708-5.438c0.124,0,0.253,0.004,0.387,0.012c1.053,0.046,1.905,0.473,2.555,1.281
			c0-1.708-0.057-3.721-0.17-6.037L130.921,17.031L130.921,17.031z M127.05,29.221l-0.077-3.994
			c-0.599-0.608-1.213-0.912-1.843-0.912c-0.258,0-0.517,0.05-0.774,0.15c-0.816,0.315-1.223,1.2-1.223,2.656
			c0,0.168,0.005,0.342,0.015,0.52c0.103,1.762,0.629,2.693,1.58,2.793c0.093,0.008,0.186,0.012,0.279,0.012
			C125.831,30.445,126.513,30.037,127.05,29.221z"/>
		<path fill="#331842" d="M137.177,21.51c3.583,0,5.374,1.774,5.374,5.322c0,0.432-0.026,0.893-0.078,1.385h-6.922
			c0,1.979,0.511,2.967,1.533,2.967h0.108c0.898-0.055,1.348-0.563,1.348-1.535c0-0.207-0.021-0.438-0.062-0.692l3.686-0.058
			c0,2.933-1.719,4.416-5.157,4.455c-0.042,0.008-0.077,0.013-0.108,0.013c-3.273,0-4.909-1.853-4.909-5.554v-0.348
			C132.093,23.496,133.822,21.51,137.177,21.51z M135.18,26.093h3.5v-0.277c0-1.401-0.532-2.101-1.595-2.101
			C135.939,23.715,135.304,24.508,135.18,26.093z"/>
		<path fill="#331842" d="M154.274,16.004c-0.186,4.009-0.279,7.445-0.279,10.309c0,1.139,0.016,2.188,0.046,3.149l6.907-0.254
			l0.108,3.765L150,33.158c0.01-1.016,0.015-2.027,0.015-3.035c0-4.625-0.134-9.228-0.402-13.807L154.274,16.004z"/>
		<path fill="#331842" d="M167.56,21.51c3.583,0,5.374,1.774,5.374,5.322c0,0.432-0.025,0.893-0.077,1.385h-6.922
			c0,1.979,0.511,2.967,1.532,2.967h0.109c0.896-0.055,1.346-0.563,1.346-1.535c0-0.207-0.021-0.438-0.063-0.692l3.688-0.058
			c0,2.933-1.719,4.416-5.157,4.455c-0.041,0.008-0.077,0.013-0.108,0.013c-3.272,0-4.909-1.853-4.909-5.554v-0.348
			C162.476,23.496,164.205,21.51,167.56,21.51z M165.563,26.093h3.5v-0.277c0-1.401-0.531-2.101-1.596-2.101
			C166.322,23.715,165.687,24.508,165.563,26.093z"/>
		<path fill="#331842" d="M173.909,29.268l3.547-0.127v0.149c0,1.187,0.489,1.785,1.471,1.801h0.063c0.95,0,1.426-0.342,1.426-1.026
			v-0.08c-0.041-0.754-0.979-1.361-2.813-1.824c-1.833-0.461-2.936-1.238-3.307-2.332c-0.135-0.384-0.2-0.754-0.2-1.108
			c0-0.646,0.222-1.247,0.665-1.801c0.683-0.847,1.715-1.332,3.099-1.455c0.372-0.031,0.731-0.046,1.084-0.046
			c0.918,0,1.729,0.12,2.433,0.358c0.959,0.331,1.625,0.804,1.998,1.42c0.248,0.423,0.371,0.893,0.371,1.408
			c0,0.247-0.025,0.5-0.078,0.762l-3.313,0.058c0.03-0.192,0.046-0.37,0.046-0.531c0-0.769-0.331-1.181-0.99-1.235
			c-0.072-0.008-0.146-0.012-0.218-0.012c-0.683,0-1.142,0.258-1.378,0.773c-0.083,0.177-0.124,0.339-0.124,0.485
			c0,0.362,0.228,0.673,0.683,0.935c0.639,0.37,1.586,0.745,2.842,1.125c1.254,0.379,2.098,1.029,2.531,1.945
			c0.154,0.346,0.231,0.69,0.231,1.039c0,0.584-0.228,1.174-0.683,1.766c-0.723,0.947-1.842,1.496-3.359,1.65
			c-0.331,0.038-0.656,0.059-0.977,0.059c-1.137,0-2.188-0.219-3.16-0.657C174.56,32.205,173.93,31.039,173.909,29.268z"/>
		<path fill="#331842" d="M191.083,21.175c3.396,0.139,5.097,1.412,5.097,3.821v8.195l-3.608,0.047l-0.124-1.098
			c-0.743,0.631-1.729,0.946-2.958,0.946c-0.525,0-1.094-0.062-1.701-0.185c-1.828-0.34-2.742-1.395-2.742-3.163
			c0-0.216,0.017-0.445,0.047-0.693c0.207-1.823,1.945-2.735,5.219-2.735c0.63,0,1.32,0.035,2.074,0.104v-1.339
			c0-1.085-0.459-1.628-1.377-1.628h-0.063c-0.071-0.007-0.139-0.011-0.2-0.011c-1,0-1.502,0.608-1.502,1.824v0.173l-3.687-0.231
			c0-2.686,1.733-4.029,5.202-4.029L191.083,21.175L191.083,21.175z M192.383,30.294v-2.03c-0.443-0.07-0.846-0.104-1.207-0.104
			c-0.939,0-1.58,0.233-1.92,0.702c-0.207,0.285-0.312,0.552-0.312,0.798c0,0.307,0.165,0.582,0.496,0.819
			c0.259,0.185,0.595,0.275,1.009,0.275C190.975,30.755,191.62,30.604,192.383,30.294z"/>
		<path fill="#331842" d="M215.829,16.812c-0.123,5.179-0.242,10.758-0.354,16.738h-3.517V26.82h-4.414v6.188l-4.228-0.012
			c0.124-2.824,0.187-5.586,0.187-8.289c0-2.693-0.063-5.325-0.187-7.896h4.042l-0.17,6.729l4.414,0.139v-7.146L215.829,16.812z"/>
		<path fill="#331842" d="M225.229,33.365l-0.154-1.881c-0.435,1-1.602,1.504-3.5,1.512c-0.021,0.008-0.037,0.012-0.047,0.012
			c-1.879,0-3.123-0.631-3.732-1.893c-0.412-0.84-0.619-2.574-0.619-5.207c0-1.354,0.058-2.951,0.172-4.791h3.763
			c-0.207,2.585-0.312,4.575-0.312,5.968c0,0.701,0.025,1.246,0.078,1.64c0.154,1.2,0.677,1.801,1.563,1.801
			c0.888,0,1.445-0.313,1.673-0.937l-0.154-8.01l3.641-0.023c0,3.309,0.158,7.165,0.479,11.566L225.229,33.365z"/>
		<path fill="#331842" d="M231.857,21.268l0.062,1.847c0.56-0.885,1.203-1.436,1.938-1.651c0.436-0.123,0.872-0.185,1.314-0.185
			c0.33,0,0.662,0.031,0.992,0.092c0.805,0.154,1.377,0.77,1.719,1.847c0.27-0.839,0.732-1.399,1.395-1.68
			c0.661-0.281,1.395-0.425,2.199-0.433h0.063c0.783,0,1.539,0.143,2.262,0.427c0.731,0.292,1.293,0.841,1.68,1.645
			c0.387,0.804,0.591,1.907,0.611,3.308v6.707l-3.344,0.059c0.133-2.533,0.2-4.688,0.2-6.465c0-1.778-0.454-2.736-1.362-2.875
			c-0.135-0.015-0.264-0.023-0.388-0.023c-0.723,0-1.278,0.346-1.672,1.039c-0.063,0.801-0.093,1.736-0.093,2.805
			c0,1.455,0.057,3.151,0.17,5.092l-3.871,0.022c0.146-2.979,0.217-5.147,0.217-6.51v-0.14c-0.011-1.347-0.365-2.055-1.068-2.125
			h-0.201c-0.629,0-1.238,0.27-1.826,0.808l0.031,8.45l-3.654,0.104v-1.895c0-3.354-0.066-6.707-0.202-10.055L231.857,21.268z"/>
		<path fill="#331842" d="M253.01,21.175c3.396,0.139,5.095,1.412,5.095,3.821v8.195l-3.608,0.047l-0.123-1.098
			c-0.744,0.631-1.729,0.946-2.959,0.946c-0.524,0-1.094-0.062-1.703-0.185c-1.826-0.34-2.739-1.395-2.739-3.163
			c0-0.216,0.016-0.445,0.047-0.693c0.206-1.823,1.944-2.735,5.219-2.735c0.63,0,1.321,0.035,2.075,0.104v-1.339
			c0-1.085-0.459-1.628-1.378-1.628h-0.063c-0.072-0.007-0.14-0.011-0.201-0.011c-1.002,0-1.502,0.608-1.502,1.824v0.173
			l-3.686-0.231c0-2.686,1.734-4.029,5.203-4.029L253.01,21.175L253.01,21.175z M254.311,30.294v-2.03
			c-0.443-0.07-0.848-0.104-1.208-0.104c-0.94,0-1.58,0.233-1.92,0.702c-0.207,0.285-0.31,0.552-0.31,0.798
			c0,0.307,0.164,0.582,0.496,0.819c0.258,0.185,0.592,0.275,1.006,0.275C252.902,30.755,253.547,30.604,254.311,30.294z"/>
		<path fill="#331842" d="M262.194,21.21l0.155,1.881c0.435-1,1.573-1.508,3.422-1.523h0.062c1.817,0,3.058,0.531,3.717,1.593
			c0.455,0.724,0.683,2.417,0.683,5.079c0,1.309-0.058,2.854-0.17,4.641h-3.748c0.136-2.377,0.201-4.221,0.201-5.527
			c0-0.653-0.017-1.178-0.048-1.57c-0.104-1.154-0.598-1.731-1.485-1.731s-1.444,0.308-1.672,0.923l0.153,8.369l-3.639,0.023
			c0-3.541-0.16-7.516-0.479-11.925L262.194,21.21z"/>
		<path fill="#331842" d="M275.852,18.855c0,0.47-0.223,0.87-0.666,1.201s-0.98,0.496-1.611,0.496c-0.619,0-1.15-0.165-1.595-0.496
			s-0.666-0.731-0.666-1.201c0-0.462,0.222-0.858,0.666-1.189c0.442-0.331,0.976-0.497,1.595-0.497c0.631,0,1.168,0.166,1.611,0.497
			S275.852,18.393,275.852,18.855z M271.702,33.423c-0.072-4.502-0.106-8.392-0.106-11.67l3.901-0.173
			c-0.125,3.14-0.187,6.261-0.187,9.361c0,0.832,0.005,1.658,0.017,2.481H271.702z"/>
		<path fill="#331842" d="M288.411,17.031c-0.062,2.601-0.093,5.329-0.093,8.184c0,2.602,0.026,5.311,0.078,8.126l-3.67,0.013
			l-0.124-1.767c-0.766,0.854-1.781,1.281-3.051,1.281c-3.17,0-4.754-1.81-4.754-5.427c0-0.075,0.005-0.153,0.016-0.229
			c0.063-3.625,1.631-5.438,4.708-5.438c0.124,0,0.253,0.004,0.388,0.012c1.053,0.046,1.904,0.473,2.555,1.281
			c0-1.708-0.057-3.721-0.17-6.037L288.411,17.031L288.411,17.031z M284.54,29.221l-0.078-3.994
			c-0.599-0.608-1.213-0.912-1.842-0.912c-0.259,0-0.518,0.05-0.773,0.15c-0.814,0.315-1.225,1.2-1.225,2.656
			c0,0.168,0.006,0.342,0.017,0.52c0.104,1.762,0.63,2.693,1.579,2.793c0.094,0.008,0.187,0.012,0.279,0.012
			C283.322,30.445,284.002,30.037,284.54,29.221z"/>
		<path fill="#331842" d="M295.627,21.175c3.396,0.139,5.095,1.412,5.095,3.821v8.195l-3.608,0.047l-0.123-1.098
			c-0.744,0.631-1.729,0.946-2.959,0.946c-0.527,0-1.095-0.062-1.703-0.185c-1.828-0.34-2.742-1.395-2.742-3.163
			c0-0.216,0.017-0.445,0.047-0.693c0.207-1.823,1.945-2.735,5.22-2.735c0.63,0,1.321,0.035,2.073,0.104v-1.339
			c0-1.085-0.459-1.628-1.377-1.628h-0.063c-0.072-0.007-0.14-0.011-0.201-0.011c-1.002,0-1.502,0.608-1.502,1.824v0.173
			l-3.687-0.231c0-2.686,1.733-4.029,5.202-4.029L295.627,21.175L295.627,21.175z M296.928,30.294v-2.03
			c-0.444-0.07-0.848-0.104-1.208-0.104c-0.938,0-1.579,0.233-1.921,0.702c-0.207,0.285-0.309,0.552-0.309,0.798
			c0,0.307,0.163,0.582,0.493,0.819c0.259,0.185,0.595,0.275,1.009,0.275C295.519,30.755,296.165,30.604,296.928,30.294z"/>
		<path fill="#331842" d="M313.668,17.031c-0.063,2.601-0.094,5.329-0.094,8.184c0,2.602,0.024,5.311,0.076,8.126l-3.67,0.013
			l-0.124-1.767c-0.765,0.854-1.78,1.281-3.051,1.281c-3.169,0-4.755-1.81-4.755-5.427c0-0.075,0.006-0.153,0.017-0.229
			c0.063-3.625,1.632-5.438,4.708-5.438c0.124,0,0.253,0.004,0.389,0.012c1.053,0.046,1.903,0.473,2.555,1.281
			c0-1.708-0.057-3.721-0.17-6.037L313.668,17.031L313.668,17.031z M309.797,29.221l-0.077-3.994
			c-0.599-0.608-1.214-0.912-1.843-0.912c-0.258,0-0.519,0.05-0.774,0.15c-0.815,0.315-1.224,1.2-1.224,2.656
			c0,0.168,0.006,0.342,0.016,0.52c0.104,1.762,0.629,2.693,1.58,2.793c0.093,0.008,0.186,0.012,0.279,0.012
			C308.579,30.445,309.26,30.037,309.797,29.221z"/>
	</g>
</g>
</svg>
