<?xml version="1.0" encoding="utf-8"?>
<!-- Generator: Adobe Illustrator 16.0.0, SVG Export Plug-In . SVG Version: 6.00 Build 0)  -->
<!DOCTYPE svg PUBLIC "-//W3C//DTD SVG 1.1//EN" "http://www.w3.org/Graphics/SVG/1.1/DTD/svg11.dtd">
<svg version="1.1" id="Capa_1" xmlns="http://www.w3.org/2000/svg" xmlns:xlink="http://www.w3.org/1999/xlink" x="0px" y="0px"
	 width="332.489px" height="50.999px" viewBox="0 0 332.489 50.999" enable-background="new 0 0 332.489 50.999"
	 xml:space="preserve">
<rect x="0" fill="none" stroke="#F2961C" stroke-miterlimit="10" width="332.489" height="50.999"/>
<rect x="0" opacity="0.4" fill="#A0C219" width="332.489" height="50.999"/>
<g>
	<g>
		<path fill="#331842" d="M30.852,22.653l-3.438,0.012v-0.312c0-1.808-0.681-2.712-2.044-2.712c-1.456,0-2.183,1.67-2.183,5.01
			c0,3.763,0.764,5.645,2.292,5.645h0.016c1.528-0.008,2.292-0.931,2.292-2.771v-1.143h3.84v0.866c0,3.833-2.111,5.837-6.333,6.014
			c-0.124,0.008-0.248,0.012-0.372,0.012c-3.975,0-5.962-2.847-5.962-8.542c0-5.572,2.044-8.358,6.132-8.358
			c3.851,0,5.776,1.863,5.776,5.587C30.868,22.184,30.863,22.415,30.852,22.653z"/>
		<path fill="#331842" d="M36.659,25.088l0.155,8.369l-3.794,0.023c0-3.54-0.16-7.515-0.48-11.925l2.849-0.231l0.155,1.882
			c0.434-0.923,1.445-1.451,3.035-1.582c0.237-0.015,0.464-0.023,0.681-0.023c1.249,0,2.199,0.304,2.85,0.912
			c0.753,0.724,1.135,1.874,1.146,3.452l-3.438,0.254c0.01-0.131,0.016-0.258,0.016-0.381c0-1.231-0.429-1.847-1.285-1.847h-0.062
			C37.496,24.031,36.886,24.396,36.659,25.088z"/>
		<path fill="#331842" d="M44.48,33.423c-0.072-4.502-0.108-8.392-0.108-11.67l3.902-0.173c-0.124,3.14-0.186,6.261-0.186,9.362
			c0,0.831,0.005,1.658,0.015,2.481H44.48z M44.48,19.259c1.208-1.07,2.199-2.09,2.973-3.059l2.54,1.5
			c-1.095,0.8-2.313,1.782-3.655,2.943L44.48,19.259z"/>
		<path fill="#331842" d="M51.975,21.268l0.062,1.847c0.558-0.885,1.203-1.436,1.936-1.651c0.434-0.123,0.872-0.185,1.316-0.185
			c0.33,0,0.661,0.031,0.991,0.092c0.805,0.154,1.378,0.77,1.719,1.847c0.269-0.839,0.733-1.399,1.394-1.68
			c0.66-0.281,1.394-0.425,2.199-0.433h0.062c0.784,0,1.538,0.143,2.261,0.427c0.733,0.292,1.293,0.841,1.68,1.645
			s0.591,1.907,0.612,3.307v6.707l-3.345,0.058c0.134-2.532,0.201-4.687,0.201-6.464c0-1.778-0.455-2.736-1.363-2.875
			c-0.134-0.015-0.263-0.023-0.387-0.023c-0.723,0-1.28,0.346-1.672,1.039c-0.062,0.801-0.093,1.736-0.093,2.805
			c0,1.455,0.057,3.151,0.17,5.091l-3.871,0.023c0.145-2.978,0.217-5.148,0.217-6.51v-0.139c-0.01-1.347-0.367-2.055-1.069-2.124
			h-0.201c-0.63,0-1.239,0.27-1.827,0.808l0.031,8.45l-3.654,0.104v-1.893c0-3.355-0.067-6.707-0.202-10.055L51.975,21.268z"/>
		<path fill="#331842" d="M72.168,21.51c3.583,0,5.374,1.774,5.374,5.321c0,0.431-0.026,0.893-0.078,1.385h-6.922
			c0,1.978,0.511,2.967,1.533,2.967h0.108c0.898-0.054,1.347-0.565,1.347-1.535c0-0.208-0.021-0.439-0.062-0.693l3.686-0.058
			c0,2.932-1.719,4.417-5.157,4.456c-0.042,0.007-0.077,0.011-0.108,0.011c-3.273,0-4.909-1.851-4.909-5.552v-0.347
			C67.084,23.496,68.813,21.51,72.168,21.51z M70.171,26.093h3.5v-0.277c0-1.401-0.532-2.101-1.595-2.101
			C70.929,23.715,70.295,24.508,70.171,26.093z"/>
		<path fill="#331842" d="M81.552,21.21l0.155,1.881c0.434-1,1.574-1.508,3.423-1.523h0.062c1.817,0,3.056,0.531,3.717,1.593
			c0.454,0.724,0.681,2.417,0.681,5.079c0,1.309-0.057,2.855-0.17,4.641h-3.747c0.134-2.378,0.201-4.221,0.201-5.529
			c0-0.654-0.016-1.177-0.046-1.57c-0.104-1.154-0.599-1.731-1.487-1.731s-1.445,0.308-1.672,0.923l0.155,8.369l-3.639,0.023
			c0-3.54-0.16-7.515-0.48-11.924L81.552,21.21z"/>
		<path fill="#331842" d="M95.908,21.51c3.583,0,5.374,1.774,5.374,5.321c0,0.431-0.026,0.893-0.078,1.385h-6.922
			c0,1.978,0.511,2.967,1.533,2.967h0.108c0.898-0.054,1.348-0.565,1.348-1.535c0-0.208-0.021-0.439-0.062-0.693l3.686-0.058
			c0,2.932-1.719,4.417-5.157,4.456c-0.042,0.007-0.077,0.011-0.108,0.011c-3.273,0-4.909-1.851-4.909-5.552v-0.347
			C90.823,23.496,92.552,21.51,95.908,21.51z M93.91,26.093h3.5v-0.277c0-1.401-0.532-2.101-1.595-2.101
			C94.669,23.715,94.034,24.508,93.91,26.093z"/>
		<path fill="#331842" d="M102.257,29.268l3.546-0.127v0.15c0,1.185,0.49,1.785,1.471,1.801h0.062c0.95,0,1.425-0.342,1.425-1.027
			v-0.081c-0.041-0.754-0.978-1.362-2.811-1.824s-2.935-1.239-3.306-2.332c-0.134-0.384-0.202-0.754-0.202-1.108
			c0-0.646,0.222-1.247,0.666-1.801c0.682-0.847,1.714-1.332,3.097-1.455c0.372-0.031,0.733-0.046,1.084-0.046
			c0.919,0,1.729,0.12,2.431,0.358c0.96,0.331,1.626,0.804,1.998,1.42c0.248,0.423,0.372,0.893,0.372,1.408
			c0,0.247-0.026,0.5-0.078,0.762l-3.314,0.058c0.031-0.192,0.046-0.37,0.046-0.531c0-0.769-0.33-1.181-0.991-1.235
			c-0.073-0.008-0.145-0.012-0.217-0.012c-0.682,0-1.141,0.258-1.378,0.773c-0.083,0.177-0.124,0.339-0.124,0.485
			c0,0.362,0.227,0.673,0.682,0.935c0.64,0.37,1.587,0.745,2.842,1.125c1.254,0.381,2.098,1.029,2.532,1.945
			c0.155,0.346,0.232,0.692,0.232,1.039c0,0.585-0.227,1.174-0.681,1.766c-0.723,0.947-1.843,1.497-3.36,1.651
			c-0.331,0.039-0.656,0.058-0.976,0.058c-1.136,0-2.189-0.219-3.159-0.658C102.907,32.204,102.278,31.038,102.257,29.268z"/>
		<path fill="#331842" d="M130.921,17.031c-0.062,2.601-0.093,5.329-0.093,8.184c0,2.602,0.025,5.31,0.077,8.127l-3.67,0.012
			l-0.124-1.767c-0.764,0.854-1.781,1.282-3.051,1.282c-3.169,0-4.754-1.809-4.754-5.426c0-0.077,0.005-0.154,0.016-0.231
			c0.062-3.625,1.631-5.437,4.708-5.437c0.124,0,0.253,0.004,0.387,0.012c1.053,0.046,1.905,0.473,2.555,1.281
			c0-1.708-0.057-3.721-0.17-6.037H130.921z M127.05,29.221l-0.077-3.994c-0.599-0.608-1.213-0.912-1.843-0.912
			c-0.258,0-0.517,0.05-0.774,0.15c-0.816,0.315-1.223,1.2-1.223,2.655c0,0.169,0.005,0.343,0.015,0.52
			c0.103,1.762,0.629,2.694,1.58,2.793c0.093,0.008,0.186,0.012,0.279,0.012C125.831,30.445,126.513,30.037,127.05,29.221z"/>
		<path fill="#331842" d="M137.177,21.51c3.583,0,5.374,1.774,5.374,5.321c0,0.431-0.026,0.893-0.078,1.385h-6.922
			c0,1.978,0.511,2.967,1.533,2.967h0.108c0.898-0.054,1.348-0.565,1.348-1.535c0-0.208-0.021-0.439-0.062-0.693l3.686-0.058
			c0,2.932-1.719,4.417-5.157,4.456c-0.042,0.007-0.077,0.011-0.108,0.011c-3.273,0-4.909-1.851-4.909-5.552v-0.347
			C132.093,23.496,133.822,21.51,137.177,21.51z M135.18,26.093h3.5v-0.277c0-1.401-0.532-2.101-1.595-2.101
			C135.939,23.715,135.304,24.508,135.18,26.093z"/>
		<path fill="#331842" d="M154.274,16.004c-0.186,4.009-0.279,7.445-0.279,10.308c0,1.139,0.016,2.189,0.046,3.151l6.907-0.254
			l0.108,3.763L150,33.158c0.01-1.016,0.015-2.028,0.015-3.036c0-4.625-0.134-9.227-0.402-13.806L154.274,16.004z"/>
		<path fill="#331842" d="M167.56,21.51c3.583,0,5.374,1.774,5.374,5.321c0,0.431-0.026,0.893-0.077,1.385h-6.922
			c0,1.978,0.511,2.967,1.533,2.967h0.108c0.898-0.054,1.347-0.565,1.347-1.535c0-0.208-0.021-0.439-0.062-0.693l3.686-0.058
			c0,2.932-1.719,4.417-5.157,4.456c-0.041,0.007-0.077,0.011-0.108,0.011c-3.272,0-4.909-1.851-4.909-5.552v-0.347
			C162.476,23.496,164.205,21.51,167.56,21.51z M165.563,26.093h3.5v-0.277c0-1.401-0.532-2.101-1.595-2.101
			C166.322,23.715,165.687,24.508,165.563,26.093z"/>
		<path fill="#331842" d="M173.909,29.268l3.546-0.127v0.15c0,1.185,0.49,1.785,1.471,1.801h0.062c0.95,0,1.424-0.342,1.424-1.027
			v-0.081c-0.041-0.754-0.978-1.362-2.811-1.824s-2.935-1.239-3.306-2.332c-0.134-0.384-0.201-0.754-0.201-1.108
			c0-0.646,0.222-1.247,0.666-1.801c0.682-0.847,1.714-1.332,3.098-1.455c0.372-0.031,0.732-0.046,1.084-0.046
			c0.918,0,1.729,0.12,2.431,0.358c0.96,0.331,1.626,0.804,1.998,1.42c0.248,0.423,0.372,0.893,0.372,1.408
			c0,0.247-0.026,0.5-0.078,0.762l-3.313,0.058c0.031-0.192,0.046-0.37,0.046-0.531c0-0.769-0.331-1.181-0.991-1.235
			c-0.072-0.008-0.145-0.012-0.217-0.012c-0.681,0-1.141,0.258-1.378,0.773c-0.083,0.177-0.124,0.339-0.124,0.485
			c0,0.362,0.227,0.673,0.681,0.935c0.64,0.37,1.587,0.745,2.842,1.125s2.098,1.029,2.532,1.945
			c0.155,0.346,0.232,0.692,0.232,1.039c0,0.585-0.227,1.174-0.681,1.766c-0.723,0.947-1.843,1.497-3.361,1.651
			c-0.331,0.039-0.656,0.058-0.976,0.058c-1.136,0-2.189-0.219-3.159-0.658C174.56,32.204,173.93,31.038,173.909,29.268z"/>
		<path fill="#331842" d="M191.083,21.175c3.396,0.139,5.095,1.412,5.095,3.821v8.196l-3.608,0.046l-0.124-1.097
			c-0.744,0.631-1.729,0.947-2.958,0.947c-0.526,0-1.094-0.062-1.703-0.185c-1.828-0.339-2.741-1.393-2.741-3.163
			c0-0.215,0.016-0.446,0.046-0.693c0.207-1.824,1.946-2.736,5.219-2.736c0.63,0,1.321,0.035,2.075,0.104v-1.339
			c0-1.085-0.459-1.628-1.378-1.628h-0.062c-0.072-0.007-0.139-0.011-0.201-0.011c-1.001,0-1.502,0.608-1.502,1.824v0.173
			l-3.686-0.231c0-2.686,1.734-4.029,5.203-4.029H191.083z M192.384,30.295v-2.032c-0.444-0.069-0.847-0.104-1.208-0.104
			c-0.939,0-1.58,0.235-1.92,0.704c-0.207,0.285-0.31,0.55-0.31,0.796c0,0.308,0.165,0.582,0.496,0.82
			c0.258,0.185,0.594,0.277,1.007,0.277C190.975,30.756,191.62,30.603,192.384,30.295z"/>
		<path fill="#331842" d="M215.829,16.812c-0.124,5.179-0.243,10.758-0.356,16.738h-3.515V26.82h-4.414v6.187l-4.228-0.011
			c0.124-2.824,0.186-5.587,0.186-8.289c0-2.693-0.062-5.325-0.186-7.896h4.042l-0.17,6.729l4.414,0.139v-7.146L215.829,16.812z"/>
		<path fill="#331842" d="M225.229,33.365l-0.155-1.881c-0.434,1-1.601,1.504-3.5,1.512c-0.021,0.008-0.036,0.011-0.046,0.011
			c-1.879,0-3.123-0.631-3.732-1.893c-0.413-0.839-0.619-2.574-0.619-5.206c0-1.354,0.056-2.951,0.17-4.791h3.763
			c-0.207,2.585-0.31,4.575-0.31,5.968c0,0.701,0.025,1.247,0.077,1.639c0.155,1.201,0.676,1.801,1.564,1.801
			s1.445-0.312,1.673-0.935l-0.155-8.011l3.64-0.023c0,3.309,0.16,7.165,0.479,11.567L225.229,33.365z"/>
		<path fill="#331842" d="M231.857,21.268l0.062,1.847c0.558-0.885,1.203-1.436,1.936-1.651c0.434-0.123,0.872-0.185,1.316-0.185
			c0.33,0,0.661,0.031,0.991,0.092c0.805,0.154,1.378,0.77,1.719,1.847c0.269-0.839,0.733-1.399,1.394-1.68s1.394-0.425,2.199-0.433
			h0.062c0.784,0,1.538,0.143,2.261,0.427c0.733,0.292,1.293,0.841,1.68,1.645s0.591,1.907,0.612,3.307v6.707l-3.345,0.058
			c0.134-2.532,0.202-4.687,0.202-6.464c0-1.778-0.455-2.736-1.363-2.875c-0.134-0.015-0.263-0.023-0.387-0.023
			c-0.723,0-1.28,0.346-1.672,1.039c-0.062,0.801-0.093,1.736-0.093,2.805c0,1.455,0.057,3.151,0.17,5.091l-3.871,0.023
			c0.145-2.978,0.217-5.148,0.217-6.51v-0.139c-0.011-1.347-0.367-2.055-1.069-2.124h-0.201c-0.63,0-1.239,0.27-1.827,0.808
			l0.031,8.45l-3.654,0.104v-1.893c0-3.355-0.067-6.707-0.202-10.055L231.857,21.268z"/>
		<path fill="#331842" d="M253.01,21.175c3.396,0.139,5.095,1.412,5.095,3.821v8.196l-3.608,0.046l-0.124-1.097
			c-0.743,0.631-1.729,0.947-2.958,0.947c-0.526,0-1.094-0.062-1.703-0.185c-1.827-0.339-2.741-1.393-2.741-3.163
			c0-0.215,0.016-0.446,0.047-0.693c0.206-1.824,1.946-2.736,5.219-2.736c0.629,0,1.321,0.035,2.075,0.104v-1.339
			c0-1.085-0.459-1.628-1.378-1.628h-0.062c-0.072-0.007-0.14-0.011-0.201-0.011c-1.002,0-1.502,0.608-1.502,1.824v0.173
			l-3.686-0.231c0-2.686,1.734-4.029,5.203-4.029H253.01z M254.311,30.295v-2.032c-0.444-0.069-0.847-0.104-1.208-0.104
			c-0.94,0-1.58,0.235-1.92,0.704c-0.207,0.285-0.31,0.55-0.31,0.796c0,0.308,0.165,0.582,0.496,0.82
			c0.258,0.185,0.593,0.277,1.006,0.277C252.902,30.756,253.547,30.603,254.311,30.295z"/>
		<path fill="#331842" d="M262.194,21.21l0.155,1.881c0.434-1,1.574-1.508,3.422-1.523h0.062c1.817,0,3.056,0.531,3.717,1.593
			c0.454,0.724,0.681,2.417,0.681,5.079c0,1.309-0.057,2.855-0.17,4.641h-3.748c0.134-2.378,0.201-4.221,0.201-5.529
			c0-0.654-0.015-1.177-0.046-1.57c-0.104-1.154-0.599-1.731-1.487-1.731c-0.888,0-1.446,0.308-1.672,0.923l0.155,8.369
			l-3.639,0.023c0-3.54-0.16-7.515-0.48-11.924L262.194,21.21z"/>
		<path fill="#331842" d="M275.852,18.855c0,0.47-0.222,0.87-0.666,1.201s-0.981,0.496-1.611,0.496
			c-0.619,0-1.151-0.165-1.595-0.496c-0.444-0.331-0.666-0.731-0.666-1.201c0-0.462,0.222-0.858,0.666-1.189
			c0.443-0.331,0.976-0.497,1.595-0.497c0.63,0,1.167,0.166,1.611,0.497C275.63,17.997,275.852,18.393,275.852,18.855z
			 M271.702,33.423c-0.072-4.502-0.108-8.392-0.108-11.67l3.902-0.173c-0.124,3.14-0.186,6.261-0.186,9.362
			c0,0.831,0.005,1.658,0.016,2.481H271.702z"/>
		<path fill="#331842" d="M288.411,17.031c-0.062,2.601-0.093,5.329-0.093,8.184c0,2.602,0.026,5.31,0.078,8.127l-3.67,0.012
			l-0.124-1.767c-0.765,0.854-1.781,1.282-3.051,1.282c-3.17,0-4.754-1.809-4.754-5.426c0-0.077,0.005-0.154,0.016-0.231
			c0.062-3.625,1.631-5.437,4.708-5.437c0.124,0,0.253,0.004,0.387,0.012c1.053,0.046,1.905,0.473,2.555,1.281
			c0-1.708-0.057-3.721-0.17-6.037H288.411z M284.539,29.221l-0.077-3.994c-0.599-0.608-1.213-0.912-1.843-0.912
			c-0.258,0-0.517,0.05-0.774,0.15c-0.815,0.315-1.223,1.2-1.223,2.655c0,0.169,0.005,0.343,0.015,0.52
			c0.104,1.762,0.63,2.694,1.58,2.793c0.093,0.008,0.186,0.012,0.279,0.012C283.322,30.445,284.003,30.037,284.539,29.221z"/>
		<path fill="#331842" d="M295.627,21.175c3.396,0.139,5.095,1.412,5.095,3.821v8.196l-3.608,0.046l-0.124-1.097
			c-0.743,0.631-1.729,0.947-2.958,0.947c-0.527,0-1.095-0.062-1.704-0.185c-1.828-0.339-2.741-1.393-2.741-3.163
			c0-0.215,0.015-0.446,0.046-0.693c0.207-1.824,1.946-2.736,5.219-2.736c0.63,0,1.322,0.035,2.075,0.104v-1.339
			c0-1.085-0.459-1.628-1.378-1.628h-0.062c-0.073-0.007-0.14-0.011-0.202-0.011c-1.001,0-1.502,0.608-1.502,1.824v0.173
			l-3.686-0.231c0-2.686,1.734-4.029,5.203-4.029H295.627z M296.928,30.295v-2.032c-0.444-0.069-0.847-0.104-1.208-0.104
			c-0.939,0-1.579,0.235-1.92,0.704c-0.207,0.285-0.31,0.55-0.31,0.796c0,0.308,0.165,0.582,0.495,0.82
			c0.258,0.185,0.594,0.277,1.007,0.277C295.519,30.756,296.164,30.603,296.928,30.295z"/>
		<path fill="#331842" d="M313.668,17.031c-0.062,2.601-0.093,5.329-0.093,8.184c0,2.602,0.025,5.31,0.077,8.127l-3.67,0.012
			l-0.124-1.767c-0.764,0.854-1.781,1.282-3.051,1.282c-3.169,0-4.754-1.809-4.754-5.426c0-0.077,0.005-0.154,0.016-0.231
			c0.062-3.625,1.631-5.437,4.708-5.437c0.124,0,0.253,0.004,0.387,0.012c1.053,0.046,1.905,0.473,2.555,1.281
			c0-1.708-0.057-3.721-0.17-6.037H313.668z M309.797,29.221l-0.077-3.994c-0.599-0.608-1.213-0.912-1.843-0.912
			c-0.258,0-0.517,0.05-0.774,0.15c-0.816,0.315-1.223,1.2-1.223,2.655c0,0.169,0.005,0.343,0.015,0.52
			c0.103,1.762,0.629,2.694,1.58,2.793c0.093,0.008,0.186,0.012,0.279,0.012C308.578,30.445,309.26,30.037,309.797,29.221z"/>
	</g>
</g>
</svg>
