<?xml version="1.0" encoding="utf-8"?>
<!-- Generator: Adobe Illustrator 16.0.0, SVG Export Plug-In . SVG Version: 6.00 Build 0)  -->
<!DOCTYPE svg PUBLIC "-//W3C//DTD SVG 1.1//EN" "http://www.w3.org/Graphics/SVG/1.1/DTD/svg11.dtd">
<svg version="1.1" id="Capa_1" xmlns="http://www.w3.org/2000/svg" xmlns:xlink="http://www.w3.org/1999/xlink" x="0px" y="0px"
	 width="332.489px" height="50.999px" viewBox="0 0 332.489 50.999" enable-background="new 0 0 332.489 50.999"
	 xml:space="preserve">
<rect x="0" fill="none" stroke="#F2961C" stroke-miterlimit="10" width="332.489" height="50.999"/>
<rect x="0" opacity="0.4" fill="#A0C219" width="332.489" height="50.999"/>
<g>
	<g>
		<path fill="#331842" d="M42.869,33.204c0.062-2.201,0.093-4.417,0.093-6.649c0-3.417-0.072-6.869-0.217-10.354
			c1.6-0.123,3.035-0.185,4.305-0.185c3.531,0,5.781,0.481,6.752,1.443c0.908,0.9,1.363,1.893,1.363,2.978
			c0,0.493-0.088,1-0.263,1.524c-0.599,1.693-1.858,2.767-3.779,3.221c1.342,0.138,2.359,0.677,3.051,1.616
			c0.661,0.908,0.991,3.194,0.991,6.857v0.497l-4.677,0.046c0.051-0.97,0.077-1.839,0.077-2.609c0-2.332-0.253-3.759-0.759-4.282
			c-0.578-0.585-1.265-0.877-2.06-0.877c-0.155,0-0.315,0.011-0.48,0.035c0.062,2.347,0.196,4.571,0.403,6.672L42.869,33.204z
			 M46.834,18.89l0.108,4.94c1.92-0.069,3.138-0.554,3.655-1.454c0.279-0.477,0.418-0.943,0.418-1.397
			c0-0.393-0.103-0.777-0.31-1.154c-0.372-0.654-1.296-0.981-2.772-0.981C47.593,18.843,47.226,18.859,46.834,18.89z"/>
		<path fill="#331842" d="M61.514,21.51c3.582,0,5.374,1.774,5.374,5.321c0,0.431-0.026,0.893-0.078,1.385h-6.922
			c0,1.978,0.511,2.967,1.533,2.967h0.108c0.898-0.054,1.348-0.565,1.348-1.535c0-0.208-0.021-0.439-0.062-0.693l3.686-0.058
			c0,2.932-1.719,4.417-5.157,4.456c-0.042,0.007-0.078,0.011-0.108,0.011c-3.273,0-4.909-1.851-4.909-5.552v-0.347
			C56.429,23.496,58.159,21.51,61.514,21.51z M59.517,26.093h3.5v-0.277c0-1.401-0.532-2.101-1.595-2.101
			C60.276,23.715,59.64,24.508,59.517,26.093z"/>
		<path fill="#331842" d="M68.142,37.971c0.062-2.593,0.093-5.352,0.093-8.277c0-2.663-0.026-5.456-0.078-8.38l3.67-0.012
			l0.124,1.778c0.764-0.862,1.781-1.293,3.051-1.293c3.169,0,4.754,1.866,4.754,5.599v0.231c-0.073,3.74-1.652,5.61-4.739,5.61
			c-0.124,0-0.248-0.003-0.372-0.011c-1.053-0.039-1.905-0.466-2.555-1.281c0,1.708,0.057,3.721,0.17,6.037H68.142z M72.013,25.446
			l0.078,4.34c0.599,0.608,1.203,0.912,1.812,0.912c0.248,0,0.496-0.054,0.744-0.162c0.753-0.308,1.13-1.228,1.13-2.759
			c0-0.185-0.005-0.377-0.016-0.577c-0.103-1.878-0.604-2.867-1.502-2.967c-0.093-0.008-0.181-0.012-0.263-0.012
			C73.211,24.223,72.55,24.631,72.013,25.446z"/>
		<path fill="#331842" d="M86.973,21.175c3.396,0.139,5.095,1.412,5.095,3.821v8.196l-3.608,0.046l-0.124-1.097
			c-0.743,0.631-1.729,0.947-2.958,0.947c-0.526,0-1.094-0.062-1.704-0.185c-1.827-0.339-2.741-1.393-2.741-3.163
			c0-0.215,0.016-0.446,0.046-0.693c0.207-1.824,1.946-2.736,5.219-2.736c0.63,0,1.321,0.035,2.075,0.104v-1.339
			c0-1.085-0.459-1.628-1.378-1.628h-0.062c-0.072-0.007-0.139-0.011-0.201-0.011c-1.001,0-1.502,0.608-1.502,1.824v0.173
			l-3.686-0.231c0-2.686,1.734-4.029,5.203-4.029H86.973z M88.274,30.295v-2.032c-0.444-0.069-0.847-0.104-1.208-0.104
			c-0.939,0-1.58,0.235-1.92,0.704c-0.207,0.285-0.31,0.55-0.31,0.796c0,0.308,0.165,0.582,0.496,0.82
			c0.258,0.185,0.594,0.277,1.007,0.277C86.865,30.756,87.51,30.603,88.274,30.295z"/>
		<path fill="#331842" d="M97.426,25.088l0.155,8.369l-3.794,0.023c0-3.54-0.16-7.515-0.48-11.925l2.849-0.231l0.155,1.882
			c0.434-0.923,1.445-1.451,3.035-1.582c0.237-0.015,0.464-0.023,0.681-0.023c1.249,0,2.199,0.304,2.85,0.912
			c0.753,0.724,1.135,1.874,1.146,3.452l-3.438,0.254c0.01-0.131,0.016-0.258,0.016-0.381c0-1.231-0.429-1.847-1.286-1.847h-0.062
			C98.262,24.031,97.653,24.396,97.426,25.088z"/>
		<path fill="#331842" d="M111.053,21.175c3.396,0.139,5.095,1.412,5.095,3.821v8.196l-3.608,0.046l-0.124-1.097
			c-0.743,0.631-1.729,0.947-2.958,0.947c-0.527,0-1.095-0.062-1.704-0.185c-1.828-0.339-2.741-1.393-2.741-3.163
			c0-0.215,0.015-0.446,0.046-0.693c0.207-1.824,1.946-2.736,5.219-2.736c0.63,0,1.322,0.035,2.075,0.104v-1.339
			c0-1.085-0.459-1.628-1.378-1.628h-0.062c-0.073-0.007-0.14-0.011-0.202-0.011c-1.001,0-1.502,0.608-1.502,1.824v0.173
			l-3.686-0.231c0-2.686,1.734-4.029,5.203-4.029H111.053z M112.354,30.295v-2.032c-0.444-0.069-0.847-0.104-1.208-0.104
			c-0.939,0-1.579,0.235-1.92,0.704c-0.207,0.285-0.31,0.55-0.31,0.796c0,0.308,0.165,0.582,0.495,0.82
			c0.258,0.185,0.594,0.277,1.007,0.277C110.945,30.756,111.59,30.603,112.354,30.295z"/>
		<path fill="#331842" d="M121.506,25.088l0.155,8.369l-3.794,0.023c0-3.54-0.16-7.515-0.48-11.925l2.849-0.231l0.155,1.882
			c0.434-0.923,1.445-1.451,3.035-1.582c0.237-0.015,0.465-0.023,0.682-0.023c1.249,0,2.199,0.304,2.849,0.912
			c0.753,0.724,1.136,1.874,1.146,3.452l-3.438,0.254c0.01-0.131,0.015-0.258,0.015-0.381c0-1.231-0.428-1.847-1.285-1.847h-0.062
			C122.342,24.031,121.733,24.396,121.506,25.088z"/>
		<path fill="#331842" d="M134.731,29.268l3.546-0.127v0.15c0,1.185,0.49,1.785,1.471,1.801h0.062c0.95,0,1.425-0.342,1.425-1.027
			v-0.081c-0.041-0.754-0.978-1.362-2.811-1.824s-2.935-1.239-3.306-2.332c-0.134-0.384-0.202-0.754-0.202-1.108
			c0-0.646,0.222-1.247,0.666-1.801c0.682-0.847,1.714-1.332,3.097-1.455c0.372-0.031,0.733-0.046,1.084-0.046
			c0.919,0,1.729,0.12,2.431,0.358c0.96,0.331,1.626,0.804,1.998,1.42c0.248,0.423,0.372,0.893,0.372,1.408
			c0,0.247-0.026,0.5-0.078,0.762l-3.314,0.058c0.031-0.192,0.046-0.37,0.046-0.531c0-0.769-0.33-1.181-0.991-1.235
			c-0.073-0.008-0.145-0.012-0.217-0.012c-0.682,0-1.141,0.258-1.378,0.773c-0.083,0.177-0.124,0.339-0.124,0.485
			c0,0.362,0.227,0.673,0.682,0.935c0.64,0.37,1.587,0.745,2.842,1.125c1.254,0.381,2.098,1.029,2.532,1.945
			c0.155,0.346,0.232,0.692,0.232,1.039c0,0.585-0.227,1.174-0.681,1.766c-0.723,0.947-1.843,1.497-3.36,1.651
			c-0.331,0.039-0.656,0.058-0.976,0.058c-1.136,0-2.189-0.219-3.159-0.658C135.381,32.204,134.751,31.038,134.731,29.268z"/>
		<path fill="#331842" d="M150.247,18.855c0,0.47-0.222,0.87-0.666,1.201s-0.98,0.496-1.61,0.496c-0.619,0-1.151-0.165-1.595-0.496
			c-0.444-0.331-0.666-0.731-0.666-1.201c0-0.462,0.222-0.858,0.666-1.189c0.443-0.331,0.976-0.497,1.595-0.497
			c0.63,0,1.167,0.166,1.61,0.497C150.025,17.997,150.247,18.393,150.247,18.855z M146.097,33.423
			c-0.073-4.502-0.108-8.392-0.108-11.67l3.902-0.173c-0.124,3.14-0.186,6.261-0.186,9.362c0,0.831,0.005,1.658,0.016,2.481H146.097
			z"/>
		<path fill="#331842" d="M153.593,21.268l0.062,1.847c0.557-0.885,1.202-1.436,1.936-1.651c0.434-0.123,0.872-0.185,1.316-0.185
			c0.33,0,0.66,0.031,0.991,0.092c0.805,0.154,1.378,0.77,1.719,1.847c0.268-0.839,0.733-1.399,1.394-1.68s1.394-0.425,2.199-0.433
			h0.062c0.785,0,1.538,0.143,2.261,0.427c0.733,0.292,1.293,0.841,1.68,1.645s0.591,1.907,0.611,3.307v6.707l-3.345,0.058
			c0.134-2.532,0.201-4.687,0.201-6.464c0-1.778-0.454-2.736-1.362-2.875c-0.135-0.015-0.264-0.023-0.387-0.023
			c-0.723,0-1.28,0.346-1.672,1.039c-0.062,0.801-0.093,1.736-0.093,2.805c0,1.455,0.057,3.151,0.17,5.091l-3.872,0.023
			c0.145-2.978,0.217-5.148,0.217-6.51v-0.139c-0.01-1.347-0.367-2.055-1.068-2.124h-0.201c-0.63,0-1.239,0.27-1.828,0.808
			l0.031,8.45l-3.655,0.104v-1.893c0-3.355-0.067-6.707-0.201-10.055L153.593,21.268z"/>
		<path fill="#331842" d="M172.965,17.031c-0.114,2.316-0.17,4.329-0.17,6.037c0.547-0.731,1.244-1.158,2.09-1.281
			c0.145-0.008,0.284-0.012,0.418-0.012c3.365,0,5.084,1.812,5.157,5.437v0.208c0,3.632-1.792,5.449-5.374,5.449
			c-0.857,0-1.667-0.427-2.431-1.282l-0.124,1.767l-3.67-0.012c0.052-2.817,0.078-5.525,0.078-8.127
			c0-2.855-0.031-5.583-0.093-8.184H172.965z M172.795,25.227l-0.078,3.994c0.537,0.816,1.218,1.224,2.044,1.224
			c0.093,0,0.186-0.004,0.279-0.012c0.949-0.1,1.476-1.05,1.579-2.851c0.01-0.185,0.016-0.362,0.016-0.531
			c0-1.478-0.402-2.358-1.208-2.643c-0.248-0.085-0.49-0.127-0.728-0.127C174.049,24.28,173.414,24.596,172.795,25.227z"/>
		<path fill="#331842" d="M187.135,21.51c3.51,0,5.265,1.816,5.265,5.448c0,0.146-0.005,0.292-0.016,0.439
			c-0.145,3.933-2.013,5.918-5.606,5.957c-0.042,0.007-0.083,0.011-0.124,0.011c-3.417,0-5.126-1.858-5.126-5.576v-0.323
			C181.632,23.496,183.5,21.51,187.135,21.51z M186.623,24.142c-0.65,0.169-1.094,0.796-1.332,1.881
			c-0.145,0.646-0.217,1.297-0.217,1.951c0,0.438,0.031,0.881,0.093,1.327c0.165,1.108,0.697,1.682,1.595,1.72h0.108
			c0.836,0,1.409-0.412,1.719-1.235c0.258-0.685,0.387-1.497,0.387-2.436c0-0.231-0.005-0.465-0.016-0.704
			c-0.083-1.239-0.331-2.012-0.743-2.32c-0.258-0.185-0.568-0.277-0.929-0.277C187.083,24.05,186.861,24.081,186.623,24.142z
			 M185.121,19.259c1.208-1.07,2.199-2.09,2.973-3.059l2.54,1.5c-1.094,0.8-2.312,1.782-3.654,2.943L185.121,19.259z"/>
		<path fill="#331842" d="M197.603,33.169l-3.856,0.266c0.041-2.547,0.062-4.999,0.062-7.353c0-3.309-0.042-6.43-0.124-9.362
			l3.794-0.046c-0.041,1.886-0.062,3.821-0.062,5.806C197.417,25.904,197.479,29.468,197.603,33.169z"/>
		<path fill="#331842" d="M203.271,18.855c0,0.47-0.223,0.87-0.666,1.201c-0.444,0.331-0.981,0.496-1.61,0.496
			c-0.62,0-1.151-0.165-1.595-0.496s-0.666-0.731-0.666-1.201c0-0.462,0.222-0.858,0.666-1.189c0.444-0.331,0.976-0.497,1.595-0.497
			c0.629,0,1.166,0.166,1.61,0.497C203.048,17.997,203.271,18.393,203.271,18.855z M199.12,33.423
			c-0.072-4.502-0.108-8.392-0.108-11.67l3.902-0.173c-0.124,3.14-0.186,6.261-0.186,9.362c0,0.831,0.005,1.658,0.015,2.481H199.12z
			"/>
		<path fill="#331842" d="M210.456,28.609l3.686,0.173c0,2.778-1.719,4.187-5.157,4.225c-0.041,0.008-0.077,0.012-0.108,0.012
			c-3.272,0-4.909-1.851-4.909-5.553V27.12c0.103-3.971,1.848-5.976,5.234-6.014h0.124c3.118,0,4.677,1.332,4.677,3.994
			c0,0.154-0.005,0.308-0.016,0.462l-3.329,0.185V25.47c0-1.401-0.532-2.101-1.595-2.101c-1.084,0-1.626,1.135-1.626,3.405v0.381
			c0.062,2.455,0.609,3.683,1.641,3.683h0.093c0.898-0.054,1.347-0.566,1.347-1.536C210.518,29.094,210.497,28.863,210.456,28.609z"
			/>
		<path fill="#331842" d="M221.42,21.175c3.396,0.139,5.095,1.412,5.095,3.821v8.196l-3.608,0.046l-0.124-1.097
			c-0.743,0.631-1.729,0.947-2.958,0.947c-0.526,0-1.094-0.062-1.703-0.185c-1.827-0.339-2.741-1.393-2.741-3.163
			c0-0.215,0.016-0.446,0.047-0.693c0.206-1.824,1.946-2.736,5.219-2.736c0.629,0,1.321,0.035,2.075,0.104v-1.339
			c0-1.085-0.459-1.628-1.378-1.628h-0.062c-0.072-0.007-0.14-0.011-0.201-0.011c-1.002,0-1.502,0.608-1.502,1.824v0.173
			l-3.686-0.231c0-2.686,1.734-4.029,5.203-4.029H221.42z M222.72,30.295v-2.032c-0.444-0.069-0.847-0.104-1.208-0.104
			c-0.94,0-1.58,0.235-1.92,0.704c-0.207,0.285-0.31,0.55-0.31,0.796c0,0.308,0.165,0.582,0.496,0.82
			c0.258,0.185,0.593,0.277,1.006,0.277C221.311,30.756,221.956,30.603,222.72,30.295z"/>
		<path fill="#331842" d="M230.247,21.268l0.062,1.847c0.557-0.885,1.202-1.436,1.936-1.651c0.434-0.123,0.872-0.185,1.316-0.185
			c0.33,0,0.66,0.031,0.991,0.092c0.805,0.154,1.378,0.77,1.719,1.847c0.268-0.839,0.733-1.399,1.394-1.68s1.394-0.425,2.199-0.433
			h0.062c0.785,0,1.538,0.143,2.261,0.427c0.733,0.292,1.293,0.841,1.68,1.645s0.591,1.907,0.611,3.307v6.707l-3.345,0.058
			c0.134-2.532,0.201-4.687,0.201-6.464c0-1.778-0.454-2.736-1.362-2.875c-0.135-0.015-0.264-0.023-0.387-0.023
			c-0.723,0-1.28,0.346-1.672,1.039c-0.062,0.801-0.093,1.736-0.093,2.805c0,1.455,0.057,3.151,0.17,5.091l-3.872,0.023
			c0.145-2.978,0.217-5.148,0.217-6.51v-0.139c-0.01-1.347-0.367-2.055-1.068-2.124h-0.201c-0.63,0-1.239,0.27-1.828,0.808
			l0.031,8.45l-3.655,0.104v-1.893c0-3.355-0.067-6.707-0.201-10.055L230.247,21.268z"/>
		<path fill="#331842" d="M250.44,21.51c3.582,0,5.374,1.774,5.374,5.321c0,0.431-0.026,0.893-0.078,1.385h-6.922
			c0,1.978,0.511,2.967,1.533,2.967h0.108c0.898-0.054,1.348-0.565,1.348-1.535c0-0.208-0.021-0.439-0.062-0.693l3.686-0.058
			c0,2.932-1.719,4.417-5.157,4.456c-0.042,0.007-0.078,0.011-0.108,0.011c-3.273,0-4.909-1.851-4.909-5.552v-0.347
			C245.355,23.496,247.085,21.51,250.44,21.51z M248.443,26.093h3.5v-0.277c0-1.401-0.532-2.101-1.595-2.101
			C249.201,23.715,248.566,24.508,248.443,26.093z"/>
		<path fill="#331842" d="M259.824,21.21l0.155,1.881c0.434-1,1.574-1.508,3.422-1.523h0.062c1.817,0,3.056,0.531,3.716,1.593
			c0.454,0.724,0.682,2.417,0.682,5.079c0,1.309-0.057,2.855-0.17,4.641h-3.748c0.134-2.378,0.201-4.221,0.201-5.529
			c0-0.654-0.016-1.177-0.046-1.57c-0.103-1.154-0.599-1.731-1.487-1.731c-0.888,0-1.445,0.308-1.672,0.923l0.155,8.369
			l-3.639,0.023c0-3.54-0.16-7.515-0.48-11.924L259.824,21.21z"/>
		<path fill="#331842" d="M271.733,17.828l3.516-0.173v3.821l2.958-0.058l0.046,2.182l-3.004,0.104v5.252
			c0,1.224,0.697,1.835,2.09,1.835c0.289,0,0.604-0.027,0.945-0.081l-0.14,2.54c-0.495,0.046-0.965,0.069-1.409,0.069
			c-3.262,0-4.924-1.254-4.986-3.763v-5.645l-2.54,0.115l-0.062-2.574l2.602,0.023L271.733,17.828z"/>
		<path fill="#331842" d="M284.571,21.51c3.583,0,5.374,1.774,5.374,5.321c0,0.431-0.026,0.893-0.078,1.385h-6.922
			c0,1.978,0.511,2.967,1.533,2.967h0.108c0.898-0.054,1.347-0.565,1.347-1.535c0-0.208-0.021-0.439-0.062-0.693l3.686-0.058
			c0,2.932-1.719,4.417-5.157,4.456c-0.042,0.007-0.077,0.011-0.108,0.011c-3.273,0-4.909-1.851-4.909-5.552v-0.347
			C279.486,23.496,281.215,21.51,284.571,21.51z M282.573,26.093h3.5v-0.277c0-1.401-0.532-2.101-1.595-2.101
			C283.332,23.715,282.697,24.508,282.573,26.093z"/>
	</g>
</g>
</svg>
