<?xml version="1.0" encoding="utf-8"?>
<!-- Generator: Adobe Illustrator 16.0.0, SVG Export Plug-In . SVG Version: 6.00 Build 0)  -->
<!DOCTYPE svg PUBLIC "-//W3C//DTD SVG 1.1//EN" "http://www.w3.org/Graphics/SVG/1.1/DTD/svg11.dtd">
<svg version="1.1" id="Capa_1" xmlns="http://www.w3.org/2000/svg" xmlns:xlink="http://www.w3.org/1999/xlink" x="0px" y="0px"
	 width="332.489px" height="51px" viewBox="0 0 332.489 51" enable-background="new 0 0 332.489 51" xml:space="preserve">
<g>
	<g>
		<path fill="#331842" d="M42.869,33.205c0.062-2.201,0.093-4.418,0.093-6.648c0-3.417-0.072-6.87-0.217-10.354
			c1.6-0.123,3.035-0.185,4.305-0.185c3.531,0,5.781,0.481,6.752,1.443c0.908,0.9,1.363,1.893,1.363,2.978
			c0,0.493-0.088,1-0.263,1.524c-0.599,1.693-1.858,2.767-3.779,3.221c1.342,0.138,2.359,0.677,3.051,1.616
			c0.661,0.908,0.991,3.193,0.991,6.857v0.496l-4.677,0.047c0.051-0.971,0.077-1.84,0.077-2.609c0-2.332-0.253-3.76-0.759-4.281
			c-0.578-0.586-1.265-0.877-2.06-0.877c-0.155,0-0.315,0.01-0.48,0.033c0.062,2.348,0.196,4.572,0.403,6.674L42.869,33.205z
			 M46.834,18.89l0.108,4.94c1.92-0.069,3.138-0.554,3.655-1.454c0.279-0.477,0.418-0.943,0.418-1.397
			c0-0.393-0.103-0.777-0.31-1.154c-0.372-0.654-1.296-0.981-2.772-0.981C47.593,18.843,47.226,18.859,46.834,18.89z"/>
		<path fill="#331842" d="M61.514,21.51c3.582,0,5.374,1.774,5.374,5.322c0,0.432-0.026,0.893-0.078,1.385h-6.922
			c0,1.979,0.511,2.967,1.533,2.967h0.108c0.898-0.055,1.348-0.563,1.348-1.535c0-0.207-0.021-0.438-0.062-0.692l3.686-0.058
			c0,2.933-1.719,4.416-5.157,4.455c-0.042,0.008-0.078,0.013-0.108,0.013c-3.273,0-4.909-1.853-4.909-5.554v-0.348
			C56.429,23.496,58.159,21.51,61.514,21.51z M59.517,26.093h3.5v-0.277c0-1.401-0.532-2.101-1.595-2.101
			C60.276,23.715,59.64,24.508,59.517,26.093z"/>
		<path fill="#331842" d="M68.142,37.971c0.062-2.593,0.093-5.353,0.093-8.277c0-2.662-0.026-5.456-0.078-8.379l3.67-0.012
			l0.124,1.778c0.764-0.862,1.781-1.293,3.051-1.293c3.169,0,4.754,1.866,4.754,5.599v0.23c-0.073,3.739-1.652,5.61-4.739,5.61
			c-0.124,0-0.248-0.004-0.372-0.012c-1.053-0.039-1.905-0.467-2.555-1.281c0,1.709,0.057,3.722,0.17,6.037H68.142L68.142,37.971z
			 M72.013,25.446l0.078,4.341c0.599,0.607,1.203,0.912,1.812,0.912c0.248,0,0.496-0.055,0.744-0.162
			c0.753-0.309,1.13-1.229,1.13-2.76c0-0.187-0.005-0.377-0.016-0.576c-0.103-1.878-0.604-2.868-1.502-2.968
			c-0.093-0.008-0.181-0.012-0.263-0.012C73.211,24.223,72.55,24.631,72.013,25.446z"/>
		<path fill="#331842" d="M86.973,21.175c3.396,0.139,5.095,1.412,5.095,3.821v8.195l-3.608,0.047l-0.124-1.098
			c-0.743,0.631-1.729,0.946-2.958,0.946c-0.526,0-1.094-0.062-1.704-0.185c-1.827-0.34-2.741-1.395-2.741-3.163
			c0-0.216,0.016-0.445,0.046-0.693c0.207-1.823,1.946-2.735,5.219-2.735c0.63,0,1.321,0.035,2.075,0.104v-1.339
			c0-1.085-0.459-1.628-1.378-1.628h-0.062c-0.072-0.007-0.139-0.011-0.201-0.011c-1.001,0-1.502,0.608-1.502,1.824v0.173
			l-3.686-0.231c0-2.686,1.734-4.029,5.203-4.029L86.973,21.175L86.973,21.175z M88.274,30.294v-2.03
			c-0.444-0.07-0.847-0.104-1.208-0.104c-0.939,0-1.58,0.233-1.92,0.702c-0.207,0.285-0.31,0.552-0.31,0.798
			c0,0.307,0.165,0.582,0.496,0.819c0.258,0.185,0.594,0.275,1.007,0.275C86.865,30.755,87.51,30.604,88.274,30.294z"/>
		<path fill="#331842" d="M97.426,25.088l0.155,8.369l-3.794,0.023c0-3.541-0.16-7.516-0.48-11.925l2.849-0.231l0.155,1.882
			c0.434-0.923,1.445-1.451,3.035-1.582c0.237-0.015,0.464-0.023,0.681-0.023c1.249,0,2.199,0.304,2.85,0.912
			c0.753,0.724,1.135,1.874,1.146,3.452l-3.438,0.253c0.01-0.131,0.016-0.257,0.016-0.38c0-1.231-0.429-1.847-1.286-1.847h-0.062
			C98.262,24.031,97.653,24.396,97.426,25.088z"/>
		<path fill="#331842" d="M111.053,21.175c3.396,0.139,5.095,1.412,5.095,3.821v8.195l-3.608,0.047l-0.124-1.098
			c-0.743,0.631-1.729,0.946-2.958,0.946c-0.527,0-1.095-0.062-1.704-0.185c-1.828-0.34-2.741-1.395-2.741-3.163
			c0-0.216,0.015-0.445,0.046-0.693c0.207-1.823,1.946-2.735,5.219-2.735c0.63,0,1.322,0.035,2.075,0.104v-1.339
			c0-1.085-0.459-1.628-1.378-1.628h-0.062c-0.073-0.007-0.14-0.011-0.202-0.011c-1.001,0-1.502,0.608-1.502,1.824v0.173
			l-3.686-0.231c0-2.686,1.734-4.029,5.203-4.029L111.053,21.175L111.053,21.175z M112.354,30.294v-2.03
			c-0.444-0.07-0.847-0.104-1.208-0.104c-0.939,0-1.579,0.233-1.92,0.702c-0.207,0.285-0.31,0.552-0.31,0.798
			c0,0.307,0.165,0.582,0.495,0.819c0.258,0.185,0.594,0.275,1.007,0.275C110.945,30.755,111.59,30.604,112.354,30.294z"/>
		<path fill="#331842" d="M121.506,25.088l0.155,8.369l-3.794,0.023c0-3.541-0.16-7.516-0.48-11.925l2.849-0.231l0.155,1.882
			c0.434-0.923,1.445-1.451,3.035-1.582c0.237-0.015,0.465-0.023,0.682-0.023c1.249,0,2.199,0.304,2.849,0.912
			c0.753,0.724,1.136,1.874,1.146,3.452l-3.438,0.253c0.01-0.131,0.015-0.257,0.015-0.38c0-1.231-0.428-1.847-1.285-1.847h-0.062
			C122.342,24.031,121.733,24.396,121.506,25.088z"/>
		<path fill="#331842" d="M134.731,29.268l3.546-0.127v0.149c0,1.187,0.49,1.785,1.471,1.801h0.062c0.95,0,1.425-0.342,1.425-1.026
			v-0.08c-0.041-0.754-0.978-1.361-2.811-1.824c-1.833-0.461-2.935-1.238-3.306-2.332c-0.134-0.384-0.202-0.754-0.202-1.108
			c0-0.646,0.222-1.247,0.666-1.801c0.682-0.847,1.714-1.332,3.097-1.455c0.372-0.031,0.733-0.046,1.084-0.046
			c0.919,0,1.729,0.12,2.431,0.358c0.96,0.331,1.626,0.804,1.998,1.42c0.248,0.423,0.372,0.893,0.372,1.408
			c0,0.247-0.026,0.5-0.078,0.762l-3.314,0.058c0.031-0.192,0.046-0.37,0.046-0.531c0-0.769-0.33-1.181-0.991-1.235
			c-0.073-0.008-0.145-0.012-0.217-0.012c-0.682,0-1.141,0.258-1.378,0.773c-0.083,0.177-0.124,0.339-0.124,0.485
			c0,0.362,0.227,0.673,0.682,0.935c0.64,0.37,1.587,0.745,2.842,1.125c1.254,0.381,2.098,1.029,2.532,1.945
			c0.155,0.346,0.232,0.69,0.232,1.039c0,0.584-0.227,1.174-0.681,1.766c-0.723,0.947-1.843,1.496-3.36,1.65
			c-0.331,0.038-0.656,0.059-0.976,0.059c-1.136,0-2.189-0.219-3.159-0.657C135.381,32.205,134.751,31.039,134.731,29.268z"/>
		<path fill="#331842" d="M150.247,18.855c0,0.47-0.222,0.87-0.666,1.201s-0.98,0.496-1.61,0.496c-0.619,0-1.151-0.165-1.595-0.496
			s-0.666-0.731-0.666-1.201c0-0.462,0.222-0.858,0.666-1.189c0.443-0.331,0.976-0.497,1.595-0.497c0.63,0,1.167,0.166,1.61,0.497
			C150.025,17.997,150.247,18.393,150.247,18.855z M146.097,33.423c-0.073-4.502-0.108-8.392-0.108-11.67l3.902-0.173
			c-0.124,3.14-0.186,6.261-0.186,9.361c0,0.832,0.005,1.658,0.016,2.481H146.097z"/>
		<path fill="#331842" d="M153.593,21.268l0.062,1.847c0.557-0.885,1.202-1.436,1.936-1.651c0.434-0.123,0.872-0.185,1.316-0.185
			c0.33,0,0.66,0.031,0.991,0.092c0.805,0.154,1.378,0.77,1.719,1.847c0.268-0.839,0.733-1.399,1.394-1.68
			c0.661-0.281,1.394-0.425,2.199-0.433h0.062c0.785,0,1.538,0.143,2.261,0.427c0.733,0.292,1.293,0.841,1.68,1.645
			c0.387,0.804,0.591,1.907,0.611,3.308v6.707l-3.347,0.059c0.134-2.533,0.201-4.688,0.201-6.465c0-1.778-0.454-2.736-1.362-2.875
			c-0.135-0.015-0.264-0.023-0.387-0.023c-0.723,0-1.28,0.346-1.672,1.039c-0.062,0.801-0.093,1.736-0.093,2.805
			c0,1.455,0.057,3.151,0.17,5.092l-3.872,0.022c0.145-2.979,0.217-5.147,0.217-6.51v-0.14c-0.01-1.347-0.367-2.055-1.068-2.125
			h-0.201c-0.63,0-1.239,0.27-1.828,0.808l0.031,8.45l-3.655,0.104v-1.895c0-3.354-0.067-6.707-0.201-10.055L153.593,21.268z"/>
		<path fill="#331842" d="M172.965,17.031c-0.114,2.316-0.17,4.329-0.17,6.037c0.547-0.731,1.244-1.158,2.09-1.281
			c0.145-0.008,0.283-0.012,0.418-0.012c3.365,0,5.084,1.812,5.156,5.438v0.207c0,3.633-1.791,5.449-5.373,5.449
			c-0.857,0-1.668-0.428-2.433-1.281l-0.123,1.768l-3.671-0.014c0.053-2.816,0.078-5.523,0.078-8.126
			c0-2.855-0.029-5.583-0.093-8.184L172.965,17.031L172.965,17.031z M172.795,25.227l-0.078,3.994
			c0.537,0.815,1.218,1.225,2.044,1.225c0.093,0,0.186-0.004,0.278-0.012c0.948-0.101,1.477-1.052,1.58-2.853
			c0.01-0.185,0.016-0.361,0.016-0.531c0-1.477-0.402-2.357-1.208-2.642c-0.248-0.085-0.49-0.127-0.728-0.127
			C174.049,24.28,173.415,24.596,172.795,25.227z"/>
		<path fill="#331842" d="M187.135,21.51c3.51,0,5.265,1.816,5.265,5.449c0,0.146-0.005,0.291-0.017,0.438
			c-0.146,3.934-2.012,5.918-5.605,5.957c-0.042,0.008-0.083,0.012-0.124,0.012c-3.417,0-5.126-1.857-5.126-5.576v-0.322
			C181.631,23.496,183.5,21.51,187.135,21.51z M186.624,24.142c-0.649,0.169-1.095,0.796-1.332,1.881
			c-0.146,0.646-0.217,1.297-0.217,1.951c0,0.438,0.03,0.881,0.092,1.325c0.166,1.109,0.697,1.683,1.597,1.722h0.106
			c0.836,0,1.409-0.412,1.719-1.234c0.26-0.686,0.389-1.498,0.389-2.438c0-0.23-0.005-0.466-0.018-0.703
			c-0.082-1.239-0.33-2.013-0.742-2.32c-0.258-0.185-0.567-0.277-0.93-0.277C187.083,24.05,186.861,24.081,186.624,24.142z
			 M185.122,19.259c1.207-1.07,2.198-2.09,2.974-3.059l2.538,1.5c-1.094,0.8-2.312,1.782-3.652,2.943L185.122,19.259z"/>
		<path fill="#331842" d="M197.603,33.169l-3.856,0.267c0.041-2.547,0.063-5,0.063-7.354c0-3.309-0.042-6.43-0.124-9.362
			l3.794-0.046c-0.041,1.886-0.063,3.821-0.063,5.806C197.417,25.904,197.479,29.468,197.603,33.169z"/>
		<path fill="#331842" d="M203.271,18.855c0,0.47-0.224,0.87-0.666,1.201c-0.444,0.331-0.981,0.496-1.61,0.496
			c-0.619,0-1.149-0.165-1.595-0.496c-0.444-0.331-0.666-0.731-0.666-1.201c0-0.462,0.222-0.858,0.666-1.189
			s0.976-0.497,1.595-0.497c0.629,0,1.166,0.166,1.61,0.497C203.047,17.997,203.271,18.393,203.271,18.855z M199.12,33.423
			c-0.072-4.502-0.106-8.392-0.106-11.67l3.901-0.173c-0.125,3.14-0.187,6.261-0.187,9.361c0,0.832,0.005,1.658,0.015,2.481H199.12z
			"/>
		<path fill="#331842" d="M210.456,28.609l3.688,0.174c0,2.777-1.721,4.186-5.157,4.225c-0.041,0.008-0.075,0.012-0.106,0.012
			c-3.272,0-4.91-1.852-4.91-5.553v-0.346c0.104-3.972,1.849-5.977,5.234-6.015h0.125c3.116,0,4.676,1.332,4.676,3.994
			c0,0.154-0.004,0.308-0.017,0.462l-3.327,0.185V25.47c0-1.401-0.533-2.101-1.597-2.101c-1.084,0-1.626,1.135-1.626,3.404v0.383
			c0.063,2.453,0.607,3.682,1.643,3.682h0.092c0.897-0.053,1.348-0.564,1.348-1.535C210.518,29.093,210.497,28.863,210.456,28.609z"
			/>
		<path fill="#331842" d="M221.42,21.175c3.396,0.139,5.095,1.412,5.095,3.821v8.195l-3.608,0.047l-0.123-1.098
			c-0.744,0.631-1.729,0.946-2.959,0.946c-0.525,0-1.094-0.062-1.703-0.185c-1.826-0.34-2.74-1.395-2.74-3.163
			c0-0.216,0.017-0.445,0.048-0.693c0.204-1.823,1.944-2.735,5.219-2.735c0.629,0,1.319,0.035,2.075,0.104v-1.339
			c0-1.085-0.459-1.628-1.379-1.628h-0.063c-0.072-0.007-0.14-0.011-0.201-0.011c-1.002,0-1.502,0.608-1.502,1.824v0.173
			l-3.686-0.231c0-2.686,1.734-4.029,5.203-4.029L221.42,21.175L221.42,21.175z M222.72,30.294v-2.03
			c-0.444-0.07-0.847-0.104-1.208-0.104c-0.94,0-1.58,0.233-1.92,0.702c-0.207,0.285-0.311,0.552-0.311,0.798
			c0,0.307,0.164,0.582,0.495,0.819c0.259,0.185,0.595,0.275,1.007,0.275C221.311,30.755,221.956,30.604,222.72,30.294z"/>
		<path fill="#331842" d="M230.247,21.268l0.063,1.847c0.558-0.885,1.201-1.436,1.937-1.651c0.435-0.123,0.873-0.185,1.315-0.185
			c0.33,0,0.66,0.031,0.989,0.092c0.807,0.154,1.38,0.77,1.721,1.847c0.27-0.839,0.732-1.399,1.395-1.68
			c0.662-0.281,1.395-0.425,2.199-0.433h0.063c0.785,0,1.537,0.143,2.261,0.427c0.733,0.292,1.293,0.841,1.681,1.645
			c0.387,0.804,0.59,1.907,0.61,3.308v6.707l-3.345,0.059c0.134-2.533,0.201-4.688,0.201-6.465c0-1.778-0.455-2.736-1.362-2.875
			c-0.136-0.015-0.265-0.023-0.388-0.023c-0.724,0-1.279,0.346-1.672,1.039c-0.063,0.801-0.094,1.736-0.094,2.805
			c0,1.455,0.059,3.151,0.17,5.092l-3.871,0.022c0.146-2.979,0.217-5.147,0.217-6.51v-0.14c-0.01-1.347-0.367-2.055-1.067-2.125
			h-0.201c-0.63,0-1.239,0.27-1.827,0.808l0.03,8.45l-3.655,0.104v-1.895c0-3.354-0.066-6.707-0.201-10.055L230.247,21.268z"/>
		<path fill="#331842" d="M250.44,21.51c3.582,0,5.374,1.774,5.374,5.322c0,0.432-0.026,0.893-0.078,1.385h-6.922
			c0,1.979,0.511,2.967,1.533,2.967h0.108c0.896-0.055,1.348-0.563,1.348-1.535c0-0.207-0.021-0.438-0.063-0.692l3.686-0.058
			c0,2.933-1.719,4.416-5.156,4.455c-0.042,0.008-0.078,0.013-0.107,0.013c-3.272,0-4.91-1.853-4.91-5.554v-0.348
			C245.355,23.496,247.084,21.51,250.44,21.51z M248.443,26.093h3.5v-0.277c0-1.401-0.532-2.101-1.595-2.101
			C249.202,23.715,248.566,24.508,248.443,26.093z"/>
		<path fill="#331842" d="M259.825,21.21l0.154,1.881c0.434-1,1.574-1.508,3.422-1.523h0.063c1.816,0,3.057,0.531,3.717,1.593
			c0.453,0.724,0.682,2.417,0.682,5.079c0,1.309-0.057,2.854-0.17,4.641h-3.748c0.135-2.377,0.201-4.221,0.201-5.527
			c0-0.653-0.018-1.178-0.046-1.57c-0.104-1.154-0.601-1.731-1.487-1.731s-1.443,0.308-1.672,0.923l0.155,8.369l-3.64,0.023
			c0-3.541-0.16-7.516-0.479-11.925L259.825,21.21z"/>
		<path fill="#331842" d="M271.733,17.828l3.516-0.173v3.821l2.959-0.058l0.045,2.182l-3.004,0.104v5.252
			c0,1.224,0.697,1.834,2.09,1.834c0.289,0,0.604-0.026,0.945-0.08l-0.14,2.539c-0.495,0.047-0.965,0.069-1.409,0.069
			c-3.262,0-4.924-1.254-4.986-3.764V23.91l-2.539,0.115l-0.063-2.574l2.602,0.023L271.733,17.828z"/>
		<path fill="#331842" d="M284.571,21.51c3.583,0,5.374,1.774,5.374,5.322c0,0.432-0.026,0.893-0.077,1.385h-6.923
			c0,1.979,0.511,2.967,1.533,2.967h0.108c0.896-0.055,1.347-0.563,1.347-1.535c0-0.207-0.021-0.438-0.062-0.692l3.686-0.058
			c0,2.933-1.719,4.416-5.157,4.455c-0.042,0.008-0.077,0.013-0.108,0.013c-3.271,0-4.908-1.853-4.908-5.554v-0.348
			C279.486,23.496,281.215,21.51,284.571,21.51z M282.573,26.093h3.5v-0.277c0-1.401-0.531-2.101-1.595-2.101
			C283.333,23.715,282.697,24.508,282.573,26.093z"/>
	</g>
</g>
</svg>
