<?xml version="1.0" encoding="utf-8"?>
<!-- Generator: Adobe Illustrator 16.0.0, SVG Export Plug-In . SVG Version: 6.00 Build 0)  -->
<!DOCTYPE svg PUBLIC "-//W3C//DTD SVG 1.1//EN" "http://www.w3.org/Graphics/SVG/1.1/DTD/svg11.dtd">
<svg version="1.1" id="Capa_1" xmlns="http://www.w3.org/2000/svg" xmlns:xlink="http://www.w3.org/1999/xlink" x="0px" y="0px"
	 width="332.489px" height="50.998px" viewBox="0 0 332.489 50.998" enable-background="new 0 0 332.489 50.998"
	 xml:space="preserve">
<g>
	<g>
		<path fill="#331842" d="M64.774,32.927c0.021-2.593,0.031-5.264,0.031-8.011c0-2.755-0.011-5.583-0.031-8.485
			c1.188-0.107,2.282-0.162,3.283-0.162c2.787,0,4.842,0.416,6.163,1.247c1.796,1.139,2.736,3.244,2.818,6.314v0.832
			c0,2.632-0.34,4.51-1.022,5.633c-0.753,1.239-2.132,2.062-4.134,2.47c-1.157,0.239-2.427,0.358-3.81,0.358
			C67.04,33.123,65.94,33.058,64.774,32.927z M68.615,19.732c-0.176,2.532-0.264,4.979-0.264,7.342c0,0.893,0.01,1.77,0.031,2.632
			c0.361,0.063,0.707,0.092,1.038,0.092c0.908,0,1.672-0.234,2.292-0.704c0.847-0.631,1.27-2.047,1.27-4.248V24.8
			c-0.01-2.216-0.423-3.671-1.239-4.363c-0.63-0.523-1.378-0.785-2.246-0.785C69.218,19.651,68.924,19.679,68.615,19.732z"/>
		<path fill="#331842" d="M83.233,21.51c3.583,0,5.374,1.774,5.374,5.321c0,0.432-0.026,0.893-0.078,1.385h-6.922
			c0,1.979,0.511,2.967,1.533,2.967h0.108c0.898-0.054,1.347-0.563,1.347-1.535c0-0.207-0.021-0.438-0.062-0.691l3.686-0.059
			c0,2.933-1.719,4.416-5.156,4.455c-0.042,0.008-0.078,0.013-0.108,0.013c-3.273,0-4.909-1.853-4.909-5.554v-0.347
			C78.148,23.496,79.878,21.51,83.233,21.51z M81.235,26.093h3.5v-0.277c0-1.401-0.532-2.101-1.595-2.101
			C81.994,23.715,81.359,24.508,81.235,26.093z"/>
		<path fill="#331842" d="M93.887,25.088l0.155,8.369l-3.794,0.022c0-3.539-0.16-7.516-0.48-11.924l2.849-0.231l0.155,1.882
			c0.434-0.923,1.445-1.451,3.035-1.582c0.238-0.015,0.465-0.023,0.682-0.023c1.249,0,2.199,0.304,2.85,0.912
			c0.753,0.724,1.135,1.874,1.146,3.452l-3.438,0.254c0.01-0.131,0.016-0.258,0.016-0.381c0-1.231-0.429-1.847-1.286-1.847h-0.062
			C94.723,24.031,94.114,24.396,93.887,25.088z"/>
		<path fill="#331842" d="M106.554,21.51c3.582,0,5.374,1.774,5.374,5.321c0,0.432-0.026,0.893-0.078,1.385h-6.922
			c0,1.979,0.511,2.967,1.533,2.967h0.108c0.898-0.054,1.348-0.563,1.348-1.535c0-0.207-0.021-0.438-0.062-0.691l3.686-0.059
			c0,2.933-1.719,4.416-5.157,4.455c-0.042,0.008-0.078,0.013-0.108,0.013c-3.273,0-4.909-1.853-4.909-5.554v-0.347
			C101.469,23.496,103.199,21.51,106.554,21.51z M104.557,26.093h3.5v-0.277c0-1.401-0.532-2.101-1.595-2.101
			C105.316,23.715,104.68,24.508,104.557,26.093z"/>
		<path fill="#331842" d="M119.423,28.608l3.686,0.174c0,2.777-1.719,4.187-5.157,4.225c-0.042,0.008-0.078,0.012-0.108,0.012
			c-3.273,0-4.909-1.851-4.909-5.553V27.12c0.103-3.971,1.848-5.976,5.234-6.014h0.124c3.118,0,4.677,1.332,4.677,3.994
			c0,0.154-0.005,0.308-0.015,0.462l-3.33,0.185V25.47c0-1.401-0.532-2.101-1.595-2.101c-1.084,0-1.626,1.135-1.626,3.405v0.381
			c0.062,2.455,0.609,3.683,1.642,3.683h0.093c0.898-0.054,1.347-0.565,1.347-1.536C119.485,29.094,119.464,28.862,119.423,28.608z"
			/>
		<path fill="#331842" d="M128.079,16.823l0.155,6.499c0.434-1,1.445-1.508,3.036-1.523h0.046c1.569,0,2.685,0.531,3.345,1.593
			c0.454,0.724,0.681,2.417,0.681,5.08c0,1.31-0.057,2.854-0.17,4.641h-3.902c0.134-2.379,0.201-4.221,0.201-5.528
			c0-0.653-0.016-1.178-0.047-1.569c-0.103-1.155-0.547-1.731-1.332-1.731c-0.785,0-1.291,0.308-1.518,0.924l0.155,8.369
			l-3.794,0.022c0-3.539-0.212-9.093-0.635-16.658L128.079,16.823z"/>
		<path fill="#331842" d="M142.094,21.51c3.51,0,5.265,1.816,5.265,5.448c0,0.146-0.005,0.292-0.015,0.439
			c-0.145,3.933-2.014,5.918-5.606,5.957c-0.042,0.006-0.083,0.011-0.124,0.011c-3.417,0-5.125-1.858-5.125-5.576v-0.323
			C136.591,23.496,138.46,21.51,142.094,21.51z M141.583,24.142c-0.65,0.169-1.095,0.796-1.332,1.88
			c-0.145,0.646-0.217,1.297-0.217,1.951c0,0.438,0.031,0.881,0.093,1.326c0.165,1.108,0.697,1.684,1.595,1.721h0.108
			c0.836,0,1.409-0.412,1.719-1.234c0.258-0.686,0.387-1.497,0.387-2.436c0-0.231-0.005-0.467-0.016-0.705
			c-0.083-1.238-0.33-2.013-0.743-2.319c-0.258-0.185-0.568-0.277-0.929-0.277C142.042,24.05,141.821,24.081,141.583,24.142z"/>
		<path fill="#331842" d="M159.98,21.175c3.396,0.139,5.095,1.412,5.095,3.821v8.196l-3.608,0.045l-0.124-1.096
			c-0.744,0.631-1.729,0.945-2.958,0.945c-0.526,0-1.094-0.063-1.703-0.186c-1.828-0.34-2.741-1.394-2.741-3.162
			c0-0.217,0.016-0.446,0.046-0.693c0.207-1.822,1.946-2.734,5.219-2.734c0.629,0,1.321,0.035,2.075,0.104v-1.339
			c0-1.085-0.459-1.628-1.378-1.628h-0.062c-0.072-0.007-0.139-0.011-0.201-0.011c-1.001,0-1.502,0.608-1.502,1.824v0.173
			l-3.686-0.231c0-2.686,1.734-4.029,5.204-4.029L159.98,21.175L159.98,21.175z M161.281,30.295v-2.032
			c-0.444-0.068-0.847-0.104-1.208-0.104c-0.939,0-1.58,0.234-1.92,0.703c-0.207,0.285-0.31,0.551-0.31,0.797
			c0,0.308,0.165,0.582,0.496,0.82c0.258,0.185,0.593,0.275,1.006,0.275C159.872,30.756,160.517,30.603,161.281,30.295z"/>
		<path fill="#331842" d="M176.442,33.169l-3.855,0.266c0.041-2.547,0.063-4.998,0.063-7.353c0-3.309-0.042-6.43-0.124-9.362
			l3.794-0.046c-0.042,1.886-0.063,3.821-0.063,5.806C176.256,25.904,176.318,29.468,176.442,33.169z"/>
		<path fill="#331842" d="M183.766,21.175c3.396,0.139,5.095,1.412,5.095,3.821v8.196l-3.608,0.045l-0.123-1.096
			c-0.742,0.631-1.729,0.945-2.959,0.945c-0.524,0-1.094-0.063-1.703-0.186c-1.826-0.34-2.74-1.394-2.74-3.162
			c0-0.217,0.018-0.446,0.046-0.693c0.207-1.822,1.946-2.734,5.22-2.734c0.629,0,1.32,0.035,2.074,0.104v-1.339
			c0-1.085-0.459-1.628-1.378-1.628h-0.063c-0.07-0.007-0.139-0.011-0.201-0.011c-1,0-1.502,0.608-1.502,1.824v0.173l-3.686-0.231
			c0-2.686,1.734-4.029,5.203-4.029L183.766,21.175L183.766,21.175z M185.067,30.295v-2.032c-0.443-0.068-0.847-0.104-1.208-0.104
			c-0.94,0-1.58,0.234-1.92,0.703c-0.207,0.285-0.31,0.551-0.31,0.797c0,0.308,0.164,0.582,0.496,0.82
			c0.258,0.185,0.592,0.275,1.006,0.275C183.657,30.756,184.303,30.603,185.067,30.295z"/>
		<path fill="#331842" d="M198.756,33.065c-1.301-4.457-2.467-8.281-3.5-11.477l3.763-0.15l1.903,8.392
			c0.992-3.141,1.781-6.003,2.371-8.588l3.701,0.346c-1.168,3.225-2.524,7.034-4.072,11.43L198.756,33.065z"/>
		<path fill="#331842" d="M212.601,21.51c3.582,0,5.373,1.774,5.373,5.321c0,0.432-0.024,0.893-0.077,1.385h-6.922
			c0,1.979,0.511,2.967,1.533,2.967h0.107c0.897-0.054,1.348-0.563,1.348-1.535c0-0.207-0.021-0.438-0.063-0.691l3.687-0.059
			c0,2.933-1.719,4.416-5.156,4.455c-0.041,0.008-0.077,0.013-0.107,0.013c-3.273,0-4.91-1.853-4.91-5.554v-0.347
			C207.516,23.496,209.245,21.51,212.601,21.51z M210.603,26.093h3.5v-0.277c0-1.401-0.532-2.101-1.595-2.101
			C211.362,23.715,210.727,24.508,210.603,26.093z"/>
		<path fill="#331842" d="M223.254,25.088l0.156,8.369l-3.795,0.022c0-3.539-0.16-7.516-0.479-11.924l2.849-0.231l0.155,1.882
			c0.435-0.923,1.444-1.451,3.034-1.582c0.238-0.015,0.465-0.023,0.682-0.023c1.249,0,2.199,0.304,2.85,0.912
			c0.754,0.724,1.135,1.874,1.146,3.452l-3.438,0.254c0.01-0.131,0.016-0.258,0.016-0.381c0-1.231-0.43-1.847-1.286-1.847h-0.062
			C224.09,24.031,223.482,24.396,223.254,25.088z"/>
		<path fill="#331842" d="M242.596,17.031c-0.063,2.601-0.094,5.329-0.094,8.184c0,2.603,0.024,5.31,0.078,8.127l-3.67,0.013
			l-0.125-1.768c-0.765,0.854-1.781,1.282-3.052,1.282c-3.169,0-4.754-1.81-4.754-5.427c0-0.076,0.005-0.153,0.017-0.23
			c0.062-3.625,1.631-5.437,4.707-5.437c0.125,0,0.254,0.004,0.387,0.012c1.054,0.046,1.906,0.473,2.556,1.281
			c0-1.708-0.058-3.721-0.17-6.037H242.596z M238.725,29.222l-0.077-3.995c-0.599-0.608-1.213-0.912-1.843-0.912
			c-0.258,0-0.518,0.05-0.773,0.15c-0.816,0.315-1.225,1.2-1.225,2.655c0,0.169,0.005,0.343,0.016,0.52
			c0.104,1.762,0.631,2.694,1.58,2.793c0.094,0.008,0.186,0.012,0.279,0.012C237.506,30.444,238.188,30.037,238.725,29.222z"/>
		<path fill="#331842" d="M249.813,21.175c3.396,0.139,5.096,1.412,5.096,3.821v8.196l-3.609,0.045l-0.123-1.096
			c-0.743,0.631-1.729,0.945-2.959,0.945c-0.524,0-1.094-0.063-1.701-0.186c-1.828-0.34-2.741-1.394-2.741-3.162
			c0-0.217,0.017-0.446,0.046-0.693c0.207-1.822,1.946-2.734,5.221-2.734c0.629,0,1.319,0.035,2.074,0.104v-1.339
			c0-1.085-0.459-1.628-1.379-1.628h-0.063c-0.071-0.007-0.139-0.011-0.2-0.011c-1.001,0-1.502,0.608-1.502,1.824v0.173
			l-3.687-0.231c0-2.686,1.733-4.029,5.202-4.029L249.813,21.175L249.813,21.175z M251.114,30.295v-2.032
			c-0.443-0.068-0.847-0.104-1.207-0.104c-0.939,0-1.58,0.234-1.921,0.703c-0.207,0.285-0.31,0.551-0.31,0.797
			c0,0.308,0.164,0.582,0.496,0.82c0.258,0.185,0.594,0.275,1.007,0.275C249.704,30.756,250.349,30.603,251.114,30.295z"/>
		<path fill="#331842" d="M267.854,17.031c-0.063,2.601-0.093,5.329-0.093,8.184c0,2.603,0.024,5.31,0.077,8.127l-3.67,0.013
			l-0.125-1.768c-0.765,0.854-1.78,1.282-3.051,1.282c-3.168,0-4.755-1.81-4.755-5.427c0-0.076,0.007-0.153,0.017-0.23
			c0.062-3.625,1.631-5.437,4.707-5.437c0.125,0,0.252,0.004,0.388,0.012c1.053,0.046,1.903,0.473,2.555,1.281
			c0-1.708-0.057-3.721-0.17-6.037H267.854z M263.982,29.222l-0.078-3.995c-0.599-0.608-1.213-0.912-1.843-0.912
			c-0.258,0-0.516,0.05-0.773,0.15c-0.815,0.315-1.225,1.2-1.225,2.655c0,0.169,0.005,0.343,0.016,0.52
			c0.104,1.762,0.629,2.694,1.58,2.793c0.094,0.008,0.188,0.012,0.279,0.012C262.764,30.444,263.446,30.037,263.982,29.222z"/>
	</g>
</g>
</svg>
