<?xml version="1.0" encoding="utf-8"?>
<!-- Generator: Adobe Illustrator 16.0.0, SVG Export Plug-In . SVG Version: 6.00 Build 0)  -->
<!DOCTYPE svg PUBLIC "-//W3C//DTD SVG 1.1//EN" "http://www.w3.org/Graphics/SVG/1.1/DTD/svg11.dtd">
<svg version="1.1" id="Capa_1" xmlns="http://www.w3.org/2000/svg" xmlns:xlink="http://www.w3.org/1999/xlink" x="0px" y="0px"
	 width="332.489px" height="50.998px" viewBox="0 0 332.489 50.998" enable-background="new 0 0 332.489 50.998"
	 xml:space="preserve">
<g>
	<g>
		<path fill="#331842" d="M109.613,33.203c0.062-2.201,0.093-4.417,0.093-6.649c0-3.417-0.072-6.869-0.217-10.354
			c1.6-0.123,3.036-0.185,4.305-0.185c3.531,0,5.781,0.481,6.752,1.443c0.908,0.9,1.362,1.893,1.362,2.978
			c0,0.493-0.087,1-0.263,1.524c-0.599,1.693-1.858,2.767-3.779,3.221c1.342,0.138,2.359,0.677,3.051,1.616
			c0.661,0.908,0.991,3.194,0.991,6.856v0.498l-4.676,0.046c0.051-0.97,0.077-1.839,0.077-2.609c0-2.332-0.253-3.759-0.759-4.282
			c-0.578-0.584-1.265-0.877-2.06-0.877c-0.155,0-0.315,0.012-0.48,0.035c0.062,2.348,0.196,4.571,0.402,6.672L109.613,33.203z
			 M113.577,18.889l0.108,4.94c1.92-0.069,3.138-0.554,3.655-1.454c0.279-0.477,0.418-0.943,0.418-1.397
			c0-0.393-0.103-0.777-0.31-1.154c-0.372-0.654-1.296-0.981-2.772-0.981C114.336,18.843,113.969,18.858,113.577,18.889z"/>
		<path fill="#331842" d="M128.258,21.51c3.582,0,5.374,1.774,5.374,5.321c0,0.432-0.026,0.893-0.078,1.385h-6.922
			c0,1.979,0.511,2.967,1.533,2.967h0.108c0.898-0.054,1.347-0.563,1.347-1.535c0-0.207-0.021-0.438-0.062-0.691l3.686-0.059
			c0,2.933-1.719,4.416-5.157,4.455c-0.042,0.008-0.078,0.013-0.108,0.013c-3.273,0-4.909-1.853-4.909-5.554v-0.347
			C123.173,23.495,124.903,21.51,128.258,21.51z M126.26,26.092h3.5v-0.277c0-1.401-0.532-2.101-1.595-2.101
			C127.019,23.714,126.384,24.507,126.26,26.092z"/>
		<path fill="#331842" d="M134.886,37.972c0.062-2.594,0.093-5.353,0.093-8.277c0-2.662-0.026-5.457-0.078-8.379l3.67-0.012
			l0.124,1.778c0.764-0.862,1.781-1.293,3.05-1.293c3.169,0,4.754,1.866,4.754,5.6v0.23c-0.072,3.738-1.652,5.609-4.739,5.609
			c-0.124,0-0.248-0.004-0.372-0.012c-1.053-0.039-1.905-0.466-2.555-1.281c0,1.709,0.057,3.723,0.17,6.037H134.886L134.886,37.972z
			 M138.757,25.446l0.078,4.34c0.599,0.607,1.203,0.912,1.812,0.912c0.248,0,0.495-0.055,0.743-0.162
			c0.753-0.309,1.13-1.229,1.13-2.76c0-0.186-0.005-0.377-0.016-0.576c-0.103-1.878-0.604-2.867-1.502-2.967
			c-0.093-0.008-0.181-0.012-0.263-0.012C139.955,24.222,139.294,24.63,138.757,25.446z"/>
		<path fill="#331842" d="M153.717,21.175c3.396,0.139,5.095,1.412,5.095,3.821v8.196l-3.608,0.045l-0.124-1.096
			c-0.744,0.631-1.729,0.945-2.958,0.945c-0.526,0-1.094-0.063-1.703-0.186c-1.828-0.34-2.741-1.394-2.741-3.162
			c0-0.217,0.016-0.446,0.046-0.693c0.207-1.822,1.946-2.734,5.219-2.734c0.629,0,1.321,0.035,2.075,0.104v-1.339
			c0-1.085-0.459-1.628-1.378-1.628h-0.062c-0.072-0.007-0.139-0.011-0.201-0.011c-1.001,0-1.502,0.608-1.502,1.824v0.173
			l-3.686-0.231c0-2.686,1.734-4.029,5.204-4.029L153.717,21.175L153.717,21.175z M155.017,30.294v-2.031
			c-0.444-0.07-0.847-0.104-1.208-0.104c-0.939,0-1.58,0.234-1.92,0.703c-0.207,0.285-0.31,0.551-0.31,0.797
			c0,0.308,0.165,0.582,0.496,0.818c0.258,0.187,0.593,0.277,1.006,0.277C153.608,30.756,154.253,30.603,155.017,30.294z"/>
		<path fill="#331842" d="M164.169,25.088l0.155,8.369l-3.794,0.022c0-3.539-0.16-7.516-0.48-11.924l2.85-0.231l0.155,1.882
			c0.434-0.923,1.445-1.451,3.035-1.582c0.237-0.015,0.464-0.023,0.681-0.023c1.249,0,2.199,0.304,2.851,0.912
			c0.752,0.724,1.135,1.874,1.146,3.452l-3.438,0.254c0.01-0.131,0.017-0.258,0.017-0.381c0-1.231-0.429-1.847-1.285-1.847H166
			C165.006,24.03,164.396,24.396,164.169,25.088z"/>
		<path fill="#331842" d="M177.797,21.175c3.396,0.139,5.095,1.412,5.095,3.821v8.196l-3.608,0.045l-0.123-1.096
			c-0.744,0.631-1.729,0.945-2.959,0.945c-0.525,0-1.094-0.063-1.703-0.186c-1.826-0.34-2.74-1.394-2.74-3.162
			c0-0.217,0.017-0.446,0.048-0.693c0.206-1.822,1.944-2.734,5.219-2.734c0.629,0,1.321,0.035,2.075,0.104v-1.339
			c0-1.085-0.459-1.628-1.378-1.628h-0.063c-0.072-0.007-0.14-0.011-0.201-0.011c-1.002,0-1.502,0.608-1.502,1.824v0.173
			l-3.686-0.231c0-2.686,1.734-4.029,5.203-4.029L177.797,21.175L177.797,21.175z M179.097,30.294v-2.031
			c-0.444-0.07-0.847-0.104-1.208-0.104c-0.939,0-1.58,0.234-1.92,0.703c-0.207,0.285-0.311,0.551-0.311,0.797
			c0,0.308,0.166,0.582,0.495,0.818c0.259,0.187,0.595,0.277,1.007,0.277C177.688,30.756,178.333,30.603,179.097,30.294z"/>
		<path fill="#331842" d="M190.463,28.608l3.687,0.174c0,2.777-1.719,4.187-5.157,4.225c-0.041,0.008-0.078,0.012-0.106,0.012
			c-3.273,0-4.909-1.851-4.909-5.553V27.12c0.104-3.971,1.85-5.976,5.232-6.014h0.125c3.117,0,4.677,1.332,4.677,3.994
			c0,0.154-0.007,0.308-0.017,0.462l-3.33,0.185V25.47c0-1.401-0.531-2.101-1.595-2.101c-1.084,0-1.626,1.135-1.626,3.405v0.381
			c0.063,2.455,0.609,3.683,1.641,3.683h0.095c0.897-0.054,1.347-0.565,1.347-1.536C190.526,29.094,190.504,28.862,190.463,28.608z"
			/>
		<path fill="#331842" d="M199.771,18.854c0,0.47-0.222,0.87-0.666,1.201c-0.444,0.331-0.981,0.496-1.61,0.496
			c-0.619,0-1.152-0.165-1.596-0.496c-0.443-0.331-0.666-0.731-0.666-1.201c0-0.462,0.223-0.858,0.666-1.189
			s0.977-0.497,1.596-0.497c0.629,0,1.166,0.166,1.61,0.497C199.549,17.997,199.771,18.393,199.771,18.854z M195.622,33.422
			c-0.072-4.502-0.107-8.392-0.107-11.67l3.9-0.173c-0.123,3.14-0.186,6.261-0.186,9.361c0,0.832,0.005,1.658,0.016,2.48
			L195.622,33.422L195.622,33.422z"/>
		<path fill="#331842" d="M206.073,21.51c3.51,0,5.266,1.816,5.266,5.448c0,0.146-0.006,0.292-0.016,0.439
			c-0.145,3.933-2.014,5.918-5.605,5.957c-0.043,0.006-0.084,0.011-0.125,0.011c-3.416,0-5.125-1.858-5.125-5.576v-0.323
			C200.571,23.495,202.44,21.51,206.073,21.51z M205.563,24.142c-0.65,0.169-1.096,0.796-1.332,1.88
			c-0.145,0.646-0.217,1.297-0.217,1.951c0,0.438,0.031,0.881,0.093,1.326c0.165,1.108,0.697,1.684,1.595,1.721h0.108
			c0.836,0,1.409-0.412,1.719-1.234c0.259-0.686,0.388-1.497,0.388-2.436c0-0.231-0.006-0.467-0.017-0.705
			c-0.083-1.238-0.33-2.013-0.743-2.319c-0.258-0.185-0.568-0.277-0.929-0.277C206.022,24.049,205.799,24.08,205.563,24.142z
			 M204.06,19.259c1.208-1.07,2.198-2.09,2.974-3.059l2.539,1.5c-1.095,0.8-2.313,1.782-3.654,2.943L204.06,19.259z"/>
		<path fill="#331842" d="M215.04,21.209l0.155,1.881c0.435-1,1.574-1.508,3.423-1.523h0.063c1.816,0,3.056,0.531,3.717,1.593
			c0.454,0.724,0.682,2.417,0.682,5.079c0,1.309-0.058,2.854-0.17,4.641h-3.748c0.135-2.378,0.201-4.221,0.201-5.529
			c0-0.652-0.017-1.177-0.047-1.568c-0.104-1.154-0.6-1.731-1.484-1.731c-0.89,0-1.445,0.308-1.675,0.923l0.155,8.369l-3.641,0.023
			c0-3.54-0.16-7.515-0.479-11.924L215.04,21.209z"/>
	</g>
</g>
</svg>
