<?xml version="1.0" encoding="utf-8"?>
<!-- Generator: Adobe Illustrator 16.0.0, SVG Export Plug-In . SVG Version: 6.00 Build 0)  -->
<!DOCTYPE svg PUBLIC "-//W3C//DTD SVG 1.1//EN" "http://www.w3.org/Graphics/SVG/1.1/DTD/svg11.dtd">
<svg version="1.1" id="Capa_1" xmlns="http://www.w3.org/2000/svg" xmlns:xlink="http://www.w3.org/1999/xlink" x="0px" y="0px"
	 width="332.489px" height="50.998px" viewBox="0 0 332.489 50.998" enable-background="new 0 0 332.489 50.998"
	 xml:space="preserve">
<g>
	<g>
		<path fill="#331842" d="M75.42,33.019c0.062-2.022,0.093-4.094,0.093-6.209c0-3.249-0.072-6.609-0.217-10.09
			c1.766-0.185,3.324-0.277,4.677-0.277c2.127,0,3.727,0.231,4.801,0.693c1.662,0.715,2.493,2.182,2.493,4.398v0.381
			c-0.104,2.432-0.842,3.988-2.215,4.669c-1.373,0.681-3.066,1.044-5.079,1.091c-0.01,0.239-0.016,0.485-0.016,0.739
			c0,1.278,0.088,2.79,0.264,4.537L75.42,33.019z M79.385,19.397l0.108,5.645c1.92-0.077,3.045-0.589,3.376-1.535
			c0.155-0.431,0.232-0.874,0.232-1.328c0-0.531-0.103-1.078-0.31-1.639c-0.31-0.824-1.084-1.235-2.323-1.235
			C80.138,19.305,79.777,19.335,79.385,19.397z"/>
		<path fill="#331842" d="M92.904,25.088l0.155,8.369l-3.794,0.022c0-3.539-0.16-7.516-0.48-11.924l2.849-0.231l0.155,1.882
			c0.434-0.923,1.445-1.451,3.035-1.582c0.238-0.015,0.465-0.023,0.682-0.023c1.249,0,2.199,0.304,2.85,0.912
			c0.753,0.724,1.135,1.874,1.146,3.452l-3.438,0.254c0.01-0.131,0.016-0.258,0.016-0.381c0-1.231-0.429-1.847-1.286-1.847h-0.062
			C93.74,24.03,93.131,24.396,92.904,25.088z"/>
		<path fill="#331842" d="M105.989,21.51c3.51,0,5.265,1.816,5.265,5.448c0,0.146-0.005,0.292-0.016,0.439
			c-0.145,3.933-2.013,5.918-5.605,5.957c-0.042,0.006-0.083,0.011-0.124,0.011c-3.417,0-5.126-1.858-5.126-5.576v-0.323
			C100.486,23.495,102.355,21.51,105.989,21.51z M105.478,24.142c-0.65,0.169-1.094,0.796-1.332,1.88
			c-0.145,0.646-0.217,1.297-0.217,1.951c0,0.438,0.031,0.881,0.093,1.326c0.165,1.108,0.697,1.684,1.595,1.721h0.108
			c0.836,0,1.409-0.412,1.719-1.234c0.258-0.686,0.387-1.497,0.387-2.436c0-0.231-0.005-0.467-0.016-0.705
			c-0.083-1.238-0.331-2.013-0.743-2.319c-0.258-0.185-0.568-0.277-0.929-0.277C105.937,24.049,105.715,24.08,105.478,24.142z"/>
		<path fill="#331842" d="M112.075,21.463l4.057-0.242c-0.093,2.309-0.139,4.209-0.139,5.702c0,0.563,0.01,1.066,0.031,1.512
			c0.041,1.647,0.537,2.494,1.487,2.541c0.062,0.008,0.119,0.012,0.17,0.012c0.846,0,1.383-0.361,1.61-1.086
			c0.124-0.422,0.186-1.428,0.186-3.012c0-1.271-0.041-2.91-0.124-4.917l3.81-0.208c0.041,2.347,0.062,4.363,0.062,6.048
			c0,2.102-0.031,3.687-0.093,4.756c-0.103,1.925-0.841,3.387-2.214,4.388c-1.239,0.908-2.979,1.36-5.219,1.36
			c-0.258,0-0.521-0.008-0.79-0.021l-0.434-2.814c0.196,0.006,0.387,0.011,0.573,0.011c1.734,0,2.921-0.228,3.562-0.681
			c0.661-0.471,0.991-1.226,0.991-2.264V32.36c-0.588,0.691-1.492,1.039-2.71,1.039h-0.217c-1.332-0.047-2.364-0.438-3.097-1.172
			c-0.733-0.733-1.133-1.768-1.2-3.095C112.31,27.808,112.209,25.25,112.075,21.463z"/>
		<path fill="#331842" d="M129.574,21.51c3.582,0,5.374,1.774,5.374,5.321c0,0.432-0.026,0.893-0.078,1.385h-6.922
			c0,1.979,0.511,2.967,1.533,2.967h0.108c0.898-0.054,1.348-0.563,1.348-1.535c0-0.207-0.021-0.438-0.062-0.691l3.686-0.059
			c0,2.933-1.719,4.416-5.157,4.455c-0.042,0.008-0.078,0.013-0.108,0.013c-3.273,0-4.909-1.853-4.909-5.554v-0.347
			C124.489,23.495,126.219,21.51,129.574,21.51z M127.576,26.092h3.5v-0.277c0-1.401-0.532-2.101-1.595-2.101
			C128.335,23.714,127.7,24.507,127.576,26.092z"/>
		<path fill="#331842" d="M142.443,28.608l3.686,0.174c0,2.777-1.719,4.187-5.157,4.225c-0.041,0.008-0.077,0.012-0.108,0.012
			c-3.272,0-4.909-1.851-4.909-5.553V27.12c0.103-3.971,1.848-5.976,5.234-6.014h0.124c3.118,0,4.677,1.332,4.677,3.994
			c0,0.154-0.005,0.308-0.016,0.462l-3.329,0.185V25.47c0-1.401-0.532-2.101-1.595-2.101c-1.084,0-1.626,1.135-1.626,3.405v0.381
			c0.062,2.455,0.609,3.683,1.642,3.683h0.093c0.898-0.054,1.347-0.565,1.347-1.536C142.504,29.094,142.484,28.862,142.443,28.608z"
			/>
		<path fill="#331842" d="M149.999,17.827l3.516-0.173v3.821l2.958-0.058l0.046,2.182l-3.004,0.104v5.252
			c0,1.224,0.697,1.835,2.09,1.835c0.289,0,0.604-0.027,0.945-0.081l-0.14,2.54c-0.495,0.046-0.965,0.068-1.409,0.068
			c-3.262,0-4.924-1.254-4.986-3.762V23.91l-2.54,0.115l-0.062-2.574l2.602,0.023L149.999,17.827z"/>
		<path fill="#331842" d="M163.255,21.51c3.51,0,5.265,1.816,5.265,5.448c0,0.146-0.005,0.292-0.016,0.439
			c-0.146,3.933-2.013,5.918-5.605,5.957c-0.042,0.006-0.083,0.011-0.124,0.011c-3.417,0-5.125-1.858-5.125-5.576v-0.323
			C157.752,23.495,159.621,21.51,163.255,21.51z M162.744,24.142c-0.65,0.169-1.095,0.796-1.332,1.88
			c-0.145,0.646-0.217,1.297-0.217,1.951c0,0.438,0.031,0.881,0.093,1.326c0.165,1.108,0.697,1.684,1.595,1.721h0.108
			c0.836,0,1.409-0.412,1.719-1.234c0.258-0.686,0.387-1.497,0.387-2.436c0-0.231-0.005-0.467-0.016-0.705
			c-0.083-1.238-0.33-2.013-0.743-2.319c-0.258-0.185-0.568-0.277-0.929-0.277C163.203,24.049,162.982,24.08,162.744,24.142z"/>
		<path fill="#331842" d="M169.186,29.267l3.546-0.127v0.15c0,1.186,0.49,1.785,1.472,1.801h0.063c0.947,0,1.424-0.342,1.424-1.027
			v-0.08c-0.042-0.754-0.979-1.361-2.813-1.823c-1.832-0.462-2.935-1.239-3.306-2.332c-0.134-0.384-0.2-0.754-0.2-1.108
			c0-0.646,0.221-1.247,0.666-1.801c0.683-0.847,1.713-1.332,3.096-1.455c0.373-0.031,0.734-0.046,1.084-0.046
			c0.921,0,1.729,0.12,2.434,0.358c0.96,0.331,1.626,0.804,1.998,1.42c0.248,0.423,0.372,0.893,0.372,1.408
			c0,0.247-0.024,0.5-0.078,0.762l-3.313,0.058c0.031-0.192,0.047-0.37,0.047-0.531c0-0.769-0.33-1.181-0.99-1.235
			c-0.072-0.008-0.145-0.012-0.217-0.012c-0.682,0-1.141,0.258-1.379,0.773c-0.082,0.177-0.123,0.339-0.123,0.485
			c0,0.362,0.227,0.673,0.681,0.935c0.64,0.37,1.587,0.745,2.841,1.125c1.256,0.381,2.1,1.029,2.532,1.945
			c0.155,0.346,0.231,0.691,0.231,1.039c0,0.585-0.229,1.174-0.683,1.766c-0.723,0.947-1.843,1.497-3.358,1.651
			c-0.332,0.038-0.656,0.058-0.978,0.058c-1.136,0-2.188-0.219-3.157-0.656C169.836,32.203,169.208,31.037,169.186,29.267z"/>
		<path fill="#331842" d="M197.85,17.031c-0.063,2.601-0.094,5.329-0.094,8.184c0,2.603,0.025,5.31,0.078,8.127l-3.67,0.013
			l-0.125-1.768c-0.765,0.854-1.781,1.282-3.052,1.282c-3.169,0-4.754-1.81-4.754-5.427c0-0.076,0.007-0.153,0.017-0.23
			c0.062-3.625,1.631-5.437,4.707-5.437c0.125,0,0.254,0.004,0.388,0.012c1.053,0.046,1.905,0.473,2.555,1.281
			c0-1.708-0.058-3.721-0.17-6.037H197.85z M193.979,29.222l-0.077-3.995c-0.599-0.608-1.213-0.912-1.843-0.912
			c-0.258,0-0.518,0.05-0.773,0.15c-0.814,0.315-1.225,1.2-1.225,2.655c0,0.169,0.005,0.343,0.016,0.52
			c0.104,1.762,0.631,2.694,1.58,2.793c0.094,0.008,0.186,0.012,0.279,0.012C192.76,30.444,193.442,30.037,193.979,29.222z"/>
		<path fill="#331842" d="M204.107,21.51c3.582,0,5.374,1.774,5.374,5.321c0,0.432-0.025,0.893-0.078,1.385h-6.922
			c0,1.979,0.512,2.967,1.533,2.967h0.107c0.897-0.054,1.348-0.563,1.348-1.535c0-0.207-0.021-0.438-0.063-0.691l3.687-0.059
			c0,2.933-1.719,4.416-5.156,4.455c-0.042,0.008-0.078,0.013-0.107,0.013c-3.272,0-4.91-1.853-4.91-5.554v-0.347
			C199.022,23.495,200.75,21.51,204.107,21.51z M202.109,26.092h3.5v-0.277c0-1.401-0.532-2.101-1.595-2.101
			C202.868,23.714,202.233,24.507,202.109,26.092z"/>
		<path fill="#331842" d="M219.297,33.065c-1.301-4.457-2.467-8.281-3.5-11.477l3.764-0.15l1.904,8.392
			c0.992-3.141,1.781-6.003,2.369-8.588l3.701,0.346c-1.166,3.225-2.523,7.034-4.072,11.43L219.297,33.065z"/>
		<path fill="#331842" d="M232.446,18.854c0,0.47-0.222,0.87-0.666,1.201c-0.443,0.331-0.98,0.496-1.609,0.496
			c-0.621,0-1.15-0.165-1.596-0.496c-0.443-0.331-0.666-0.731-0.666-1.201c0-0.462,0.223-0.858,0.666-1.189
			c0.444-0.331,0.978-0.497,1.596-0.497c0.629,0,1.166,0.166,1.609,0.497C232.223,17.997,232.446,18.393,232.446,18.854z
			 M228.295,33.422c-0.072-4.502-0.108-8.392-0.108-11.67l3.901-0.173c-0.123,3.14-0.187,6.261-0.187,9.361
			c0,0.832,0.007,1.658,0.017,2.48L228.295,33.422L228.295,33.422z"/>
		<path fill="#331842" d="M245.004,17.031c-0.063,2.601-0.094,5.329-0.094,8.184c0,2.603,0.025,5.31,0.077,8.127l-3.67,0.013
			l-0.124-1.768c-0.764,0.854-1.779,1.282-3.051,1.282c-3.169,0-4.754-1.81-4.754-5.427c0-0.076,0.005-0.153,0.018-0.23
			c0.061-3.625,1.631-5.437,4.706-5.437c0.124,0,0.253,0.004,0.388,0.012c1.054,0.046,1.906,0.473,2.556,1.281
			c0-1.708-0.058-3.721-0.17-6.037H245.004z M241.133,29.222l-0.078-3.995c-0.6-0.608-1.213-0.912-1.844-0.912
			c-0.258,0-0.517,0.05-0.773,0.15c-0.816,0.315-1.225,1.2-1.225,2.655c0,0.169,0.006,0.343,0.017,0.52
			c0.103,1.762,0.629,2.694,1.579,2.793c0.093,0.008,0.186,0.012,0.279,0.012C239.915,30.444,240.596,30.037,241.133,29.222z"/>
		<path fill="#331842" d="M252.221,21.175c3.396,0.139,5.095,1.412,5.095,3.821v8.196l-3.608,0.045l-0.123-1.096
			c-0.744,0.631-1.729,0.945-2.959,0.945c-0.525,0-1.094-0.063-1.703-0.186c-1.826-0.34-2.74-1.394-2.74-3.162
			c0-0.217,0.015-0.446,0.046-0.693c0.206-1.822,1.944-2.734,5.219-2.734c0.63,0,1.321,0.035,2.075,0.104v-1.339
			c0-1.085-0.46-1.628-1.378-1.628h-0.063c-0.072-0.007-0.14-0.011-0.201-0.011c-1,0-1.502,0.608-1.502,1.824v0.173l-3.686-0.231
			c0-2.686,1.734-4.029,5.204-4.029L252.221,21.175L252.221,21.175z M253.522,30.294v-2.031c-0.443-0.07-0.848-0.104-1.208-0.104
			c-0.938,0-1.58,0.234-1.92,0.703c-0.207,0.285-0.31,0.551-0.31,0.797c0,0.308,0.164,0.582,0.496,0.818
			c0.258,0.187,0.592,0.277,1.006,0.277C252.113,30.756,252.756,30.603,253.522,30.294z"/>
	</g>
</g>
</svg>
