<?xml version="1.0" encoding="utf-8"?>
<!-- Generator: Adobe Illustrator 16.0.0, SVG Export Plug-In . SVG Version: 6.00 Build 0)  -->
<!DOCTYPE svg PUBLIC "-//W3C//DTD SVG 1.1//EN" "http://www.w3.org/Graphics/SVG/1.1/DTD/svg11.dtd">
<svg version="1.1" id="Capa_1" xmlns="http://www.w3.org/2000/svg" xmlns:xlink="http://www.w3.org/1999/xlink" x="0px" y="0px"
	 width="332.489px" height="50.998px" viewBox="0 0 332.489 50.998" enable-background="new 0 0 332.489 50.998"
	 xml:space="preserve">
<rect x="0" fill="none" stroke="#F2961C" stroke-miterlimit="10" width="332.489" height="50.998"/>
<rect x="0" opacity="0.4" fill="#A0C219" width="332.489" height="50.998"/>
<g>
	<g>
		<path fill="#331842" d="M64.774,32.927c0.021-2.593,0.031-5.264,0.031-8.011c0-2.755-0.011-5.583-0.031-8.485
			c1.188-0.107,2.282-0.162,3.283-0.162c2.787,0,4.842,0.416,6.163,1.247c1.796,1.139,2.736,3.244,2.818,6.314v0.832
			c0,2.632-0.34,4.51-1.022,5.633c-0.753,1.239-2.132,2.062-4.134,2.47c-1.157,0.239-2.427,0.358-3.81,0.358
			C67.04,33.123,65.94,33.058,64.774,32.927z M68.615,19.732c-0.176,2.532-0.264,4.979-0.264,7.342c0,0.893,0.01,1.77,0.031,2.632
			c0.361,0.062,0.707,0.092,1.038,0.092c0.908,0,1.672-0.235,2.292-0.704c0.847-0.631,1.27-2.047,1.27-4.248V24.8
			c-0.01-2.216-0.423-3.671-1.239-4.363c-0.63-0.523-1.378-0.785-2.246-0.785C69.218,19.651,68.924,19.679,68.615,19.732z"/>
		<path fill="#331842" d="M83.233,21.51c3.583,0,5.374,1.774,5.374,5.321c0,0.431-0.026,0.893-0.078,1.385h-6.922
			c0,1.978,0.511,2.967,1.533,2.967h0.108c0.898-0.054,1.347-0.565,1.347-1.535c0-0.208-0.021-0.439-0.062-0.693l3.686-0.058
			c0,2.932-1.719,4.417-5.156,4.456c-0.042,0.007-0.078,0.011-0.108,0.011c-3.273,0-4.909-1.851-4.909-5.552v-0.347
			C78.148,23.496,79.878,21.51,83.233,21.51z M81.235,26.093h3.5v-0.277c0-1.401-0.532-2.101-1.595-2.101
			C81.994,23.715,81.359,24.508,81.235,26.093z"/>
		<path fill="#331842" d="M93.887,25.088l0.155,8.369l-3.794,0.023c0-3.54-0.16-7.515-0.48-11.925l2.849-0.231l0.155,1.882
			c0.434-0.923,1.445-1.451,3.035-1.582c0.238-0.015,0.465-0.023,0.682-0.023c1.249,0,2.199,0.304,2.85,0.912
			c0.753,0.724,1.135,1.874,1.146,3.452l-3.438,0.254c0.01-0.131,0.016-0.258,0.016-0.381c0-1.231-0.429-1.847-1.286-1.847h-0.062
			C94.723,24.031,94.114,24.396,93.887,25.088z"/>
		<path fill="#331842" d="M106.554,21.51c3.582,0,5.374,1.774,5.374,5.321c0,0.431-0.026,0.893-0.078,1.385h-6.922
			c0,1.978,0.511,2.967,1.533,2.967h0.108c0.898-0.054,1.348-0.565,1.348-1.535c0-0.208-0.021-0.439-0.062-0.693l3.686-0.058
			c0,2.932-1.719,4.417-5.157,4.456c-0.042,0.007-0.078,0.011-0.108,0.011c-3.273,0-4.909-1.851-4.909-5.552v-0.347
			C101.469,23.496,103.199,21.51,106.554,21.51z M104.557,26.093h3.5v-0.277c0-1.401-0.532-2.101-1.595-2.101
			C105.316,23.715,104.68,24.508,104.557,26.093z"/>
		<path fill="#331842" d="M119.423,28.609l3.686,0.173c0,2.778-1.719,4.187-5.157,4.225c-0.042,0.008-0.078,0.012-0.108,0.012
			c-3.273,0-4.909-1.851-4.909-5.553V27.12c0.103-3.971,1.848-5.976,5.234-6.014h0.124c3.118,0,4.677,1.332,4.677,3.994
			c0,0.154-0.005,0.308-0.015,0.462l-3.33,0.185V25.47c0-1.401-0.532-2.101-1.595-2.101c-1.084,0-1.626,1.135-1.626,3.405v0.381
			c0.062,2.455,0.609,3.683,1.642,3.683h0.093c0.898-0.054,1.347-0.566,1.347-1.536C119.485,29.094,119.464,28.863,119.423,28.609z"
			/>
		<path fill="#331842" d="M128.079,16.823l0.155,6.499c0.434-1,1.445-1.508,3.036-1.523h0.046c1.569,0,2.685,0.531,3.345,1.593
			c0.454,0.724,0.681,2.417,0.681,5.079c0,1.309-0.057,2.855-0.17,4.641h-3.902c0.134-2.378,0.201-4.221,0.201-5.529
			c0-0.654-0.016-1.178-0.047-1.57c-0.103-1.154-0.547-1.732-1.332-1.732s-1.291,0.308-1.518,0.924l0.155,8.369l-3.794,0.023
			c0-3.54-0.212-9.092-0.635-16.657L128.079,16.823z"/>
		<path fill="#331842" d="M142.094,21.51c3.51,0,5.265,1.816,5.265,5.448c0,0.146-0.005,0.292-0.015,0.439
			c-0.145,3.933-2.014,5.918-5.606,5.957c-0.042,0.007-0.083,0.011-0.124,0.011c-3.417,0-5.125-1.858-5.125-5.576v-0.323
			C136.591,23.496,138.46,21.51,142.094,21.51z M141.583,24.142c-0.65,0.169-1.095,0.796-1.332,1.881
			c-0.145,0.646-0.217,1.297-0.217,1.951c0,0.438,0.031,0.881,0.093,1.327c0.165,1.108,0.697,1.682,1.595,1.72h0.108
			c0.836,0,1.409-0.412,1.719-1.235c0.258-0.685,0.387-1.497,0.387-2.436c0-0.231-0.005-0.465-0.016-0.704
			c-0.083-1.239-0.33-2.012-0.743-2.32c-0.258-0.185-0.568-0.277-0.929-0.277C142.042,24.05,141.821,24.081,141.583,24.142z"/>
		<path fill="#331842" d="M159.98,21.175c3.396,0.139,5.095,1.412,5.095,3.821v8.196l-3.608,0.046l-0.124-1.097
			c-0.744,0.631-1.729,0.947-2.958,0.947c-0.526,0-1.094-0.062-1.703-0.185c-1.828-0.339-2.741-1.393-2.741-3.163
			c0-0.215,0.016-0.446,0.046-0.693c0.207-1.824,1.946-2.736,5.219-2.736c0.629,0,1.321,0.035,2.075,0.104v-1.339
			c0-1.085-0.459-1.628-1.378-1.628h-0.062c-0.072-0.007-0.139-0.011-0.201-0.011c-1.001,0-1.502,0.608-1.502,1.824v0.173
			l-3.686-0.231c0-2.686,1.734-4.029,5.204-4.029H159.98z M161.281,30.295v-2.032c-0.444-0.069-0.847-0.104-1.208-0.104
			c-0.939,0-1.58,0.235-1.92,0.704c-0.207,0.285-0.31,0.55-0.31,0.796c0,0.308,0.165,0.582,0.496,0.82
			c0.258,0.185,0.593,0.277,1.006,0.277C159.872,30.756,160.517,30.603,161.281,30.295z"/>
		<path fill="#331842" d="M176.442,33.169l-3.856,0.266c0.042-2.547,0.062-4.999,0.062-7.353c0-3.309-0.042-6.43-0.124-9.362
			l3.794-0.046c-0.042,1.886-0.062,3.821-0.062,5.806C176.256,25.904,176.318,29.468,176.442,33.169z"/>
		<path fill="#331842" d="M183.766,21.175c3.396,0.139,5.095,1.412,5.095,3.821v8.196l-3.608,0.046l-0.124-1.097
			c-0.743,0.631-1.729,0.947-2.958,0.947c-0.526,0-1.095-0.062-1.704-0.185c-1.827-0.339-2.741-1.393-2.741-3.163
			c0-0.215,0.016-0.446,0.046-0.693c0.207-1.824,1.946-2.736,5.219-2.736c0.629,0,1.321,0.035,2.075,0.104v-1.339
			c0-1.085-0.459-1.628-1.378-1.628h-0.062c-0.072-0.007-0.139-0.011-0.201-0.011c-1.001,0-1.502,0.608-1.502,1.824v0.173
			l-3.686-0.231c0-2.686,1.734-4.029,5.203-4.029H183.766z M185.067,30.295v-2.032c-0.444-0.069-0.847-0.104-1.208-0.104
			c-0.94,0-1.58,0.235-1.92,0.704c-0.207,0.285-0.31,0.55-0.31,0.796c0,0.308,0.165,0.582,0.496,0.82
			c0.258,0.185,0.593,0.277,1.006,0.277C183.657,30.756,184.303,30.603,185.067,30.295z"/>
		<path fill="#331842" d="M198.756,33.065c-1.301-4.456-2.467-8.281-3.5-11.475l3.763-0.15l1.904,8.392
			c0.991-3.14,1.781-6.003,2.37-8.588l3.701,0.346c-1.167,3.225-2.524,7.034-4.072,11.428L198.756,33.065z"/>
		<path fill="#331842" d="M212.601,21.51c3.582,0,5.373,1.774,5.373,5.321c0,0.431-0.025,0.893-0.077,1.385h-6.922
			c0,1.978,0.511,2.967,1.533,2.967h0.108c0.898-0.054,1.347-0.565,1.347-1.535c0-0.208-0.021-0.439-0.062-0.693l3.686-0.058
			c0,2.932-1.719,4.417-5.157,4.456c-0.041,0.007-0.077,0.011-0.108,0.011c-3.272,0-4.909-1.851-4.909-5.552v-0.347
			C207.516,23.496,209.245,21.51,212.601,21.51z M210.603,26.093h3.5v-0.277c0-1.401-0.532-2.101-1.595-2.101
			C211.362,23.715,210.727,24.508,210.603,26.093z"/>
		<path fill="#331842" d="M223.255,25.088l0.155,8.369l-3.794,0.023c0-3.54-0.16-7.515-0.48-11.925l2.849-0.231l0.155,1.882
			c0.434-0.923,1.445-1.451,3.035-1.582c0.237-0.015,0.464-0.023,0.681-0.023c1.249,0,2.199,0.304,2.85,0.912
			c0.753,0.724,1.135,1.874,1.146,3.452l-3.438,0.254c0.01-0.131,0.016-0.258,0.016-0.381c0-1.231-0.429-1.847-1.286-1.847h-0.062
			C224.091,24.031,223.482,24.396,223.255,25.088z"/>
		<path fill="#331842" d="M242.596,17.031c-0.062,2.601-0.093,5.329-0.093,8.184c0,2.602,0.025,5.31,0.077,8.127l-3.67,0.012
			l-0.124-1.767c-0.764,0.854-1.781,1.282-3.051,1.282c-3.169,0-4.754-1.809-4.754-5.426c0-0.077,0.005-0.154,0.015-0.231
			c0.062-3.625,1.631-5.437,4.708-5.437c0.124,0,0.253,0.004,0.387,0.012c1.053,0.046,1.905,0.473,2.555,1.281
			c0-1.708-0.057-3.721-0.17-6.037H242.596z M238.725,29.221l-0.077-3.994c-0.599-0.608-1.213-0.912-1.843-0.912
			c-0.258,0-0.517,0.05-0.774,0.15c-0.815,0.315-1.224,1.2-1.224,2.655c0,0.169,0.005,0.343,0.016,0.52
			c0.103,1.762,0.63,2.694,1.58,2.793c0.093,0.008,0.186,0.012,0.279,0.012C237.507,30.445,238.188,30.037,238.725,29.221z"/>
		<path fill="#331842" d="M249.813,21.175c3.396,0.139,5.095,1.412,5.095,3.821v8.196l-3.608,0.046l-0.124-1.097
			c-0.744,0.631-1.729,0.947-2.958,0.947c-0.526,0-1.094-0.062-1.703-0.185c-1.828-0.339-2.741-1.393-2.741-3.163
			c0-0.215,0.016-0.446,0.046-0.693c0.207-1.824,1.946-2.736,5.219-2.736c0.63,0,1.321,0.035,2.075,0.104v-1.339
			c0-1.085-0.459-1.628-1.378-1.628h-0.062c-0.072-0.007-0.139-0.011-0.201-0.011c-1.001,0-1.502,0.608-1.502,1.824v0.173
			l-3.686-0.231c0-2.686,1.734-4.029,5.203-4.029H249.813z M251.114,30.295v-2.032c-0.444-0.069-0.847-0.104-1.208-0.104
			c-0.939,0-1.58,0.235-1.92,0.704c-0.207,0.285-0.31,0.55-0.31,0.796c0,0.308,0.165,0.582,0.496,0.82
			c0.258,0.185,0.594,0.277,1.007,0.277C249.704,30.756,250.349,30.603,251.114,30.295z"/>
		<path fill="#331842" d="M267.854,17.031c-0.062,2.601-0.093,5.329-0.093,8.184c0,2.602,0.025,5.31,0.077,8.127l-3.67,0.012
			l-0.124-1.767c-0.764,0.854-1.781,1.282-3.051,1.282c-3.169,0-4.754-1.809-4.754-5.426c0-0.077,0.005-0.154,0.015-0.231
			c0.062-3.625,1.631-5.437,4.708-5.437c0.124,0,0.252,0.004,0.387,0.012c1.053,0.046,1.904,0.473,2.555,1.281
			c0-1.708-0.057-3.721-0.17-6.037H267.854z M263.982,29.221l-0.078-3.994c-0.599-0.608-1.213-0.912-1.843-0.912
			c-0.258,0-0.516,0.05-0.774,0.15c-0.816,0.315-1.224,1.2-1.224,2.655c0,0.169,0.005,0.343,0.016,0.52
			c0.103,1.762,0.629,2.694,1.58,2.793c0.093,0.008,0.186,0.012,0.279,0.012C262.764,30.445,263.446,30.037,263.982,29.221z"/>
	</g>
</g>
</svg>
