<?xml version="1.0" encoding="utf-8"?>
<!-- Generator: Adobe Illustrator 16.0.0, SVG Export Plug-In . SVG Version: 6.00 Build 0)  -->
<!DOCTYPE svg PUBLIC "-//W3C//DTD SVG 1.1//EN" "http://www.w3.org/Graphics/SVG/1.1/DTD/svg11.dtd">
<svg version="1.1" id="Capa_1" xmlns="http://www.w3.org/2000/svg" xmlns:xlink="http://www.w3.org/1999/xlink" x="0px" y="0px"
	 width="517.779px" height="195.662px" viewBox="0 0 517.779 195.662" enable-background="new 0 0 517.779 195.662"
	 xml:space="preserve">
<g>
	<path fill="#F2961C" d="M153.028,118.087l-7.52,0.181l-4.42,0.109l-10.02,0.241l-1.22-50.41l31.97-0.781l16.67-0.4v1.48
		c-0.22,3.7-2.32,4.45-5.92,3.83c-2.04-0.36-4.08-0.41-6.08-0.199c-10.33,1.11-19.5,9.379-21.61,20.09
		c-1.16,5.87-0.61,11.959,1.67,17.189C147.998,112.757,150.158,115.737,153.028,118.087z"/>
	<path fill="#F29600" d="M517.328,109.217l-351.26,8.55c-5.43-0.71-9.64-3.11-12.53-7.11c-0.32-0.451-0.62-0.911-0.9-1.39
		c-2.6-4.441-3.49-10.28-2.36-15.979c1.61-8.221,8.68-14.811,16.8-15.681c1.51-0.16,3.04-0.11,4.56,0.15
		c1.07,0.18,2.03,0.27,2.93,0.27c5.46,0,9.07-3.52,9.41-9.19l0.01-1.88v-0.069l332.11-8.091l1.01,41.591L517.328,109.217z"/>
	<path fill="#A0C219" d="M178.338,123.947c0,8.62,0.06,16.7-0.04,24.66l-5.49,0.14l-30.96,0.75l-0.76-31.12l-0.21-8.3l-0.01-0.52
		l5.68-0.14c1.45,3.34,3.61,6.32,6.48,8.67c3.23,2.65,7.37,4.49,12.42,5.14c1.28,0.17,2.61,0.26,4.01,0.26
		C172.268,123.497,175.068,123.768,178.338,123.947z"/>
	<path fill="#F29600" d="M182.242,135.211c0.051-5.609,0.043,2.006,0.036-3.885c-0.007-2.42-0.007-4.88-0.007-7.38v-5.2
		l-10.774-0.29c-0.732-0.06-1.436-0.12-2.111-0.189c-1.551-0.141-3.017-0.28-4.547-0.28c-0.812,0-1.596-0.07-2.401-0.21
		c-0.022,0-0.037-0.01-0.058-0.01c-3.939-0.71-6.993-3.11-9.089-7.11c-0.232-0.451-0.45-0.911-0.653-1.39l264.374-8.88
		l100.064-3.361l0.704,26.675L182.242,135.211z"/>
	<path fill-rule="evenodd" clip-rule="evenodd" fill="#A0C219" d="M178.202,40.26c-0.033-0.099-0.067-0.189-0.099-0.281
		c-0.182-0.437-0.413-0.792-0.693-1.105c0,0-0.017-0.009-0.024-0.025c-0.892-0.932-2.312-1.353-4.407-1.312
		c-9.697,0.172-19.393,0.05-29.097,0.033c-0.594,0-1.164-0.007-1.683-0.033h-0.009c-5.652-0.223-6.115-1.667-3.903-7.831
		c4.407-12.296-1.923-25.079-14.177-28.669c-1.766-0.519-3.515-0.833-5.24-0.965c-3.458-0.264-6.784,0.206-9.821,1.271
		c-10.1,3.549-16.975,13.666-14.507,25.112c2.41,11.166,2.41,11.14-9.573,11.083c-8.805-0.041-37.245-0.007-45.736-0.007v36.978
		c-0.709,3.581-2.979,4.159-7.79,2.5c-11.792-4.06-23.626,0.174-28.899,10.324c-4.3,8.276-3.053,18.848,3.037,25.813
		c5.925,6.774,16.479,9.366,25.268,6.188c5.199-1.881,7.435-1.832,8.277,1.312c-0.008,0-0.017-0.007-0.025-0.007V157.5
		c0.66,0.107,1.304,0.306,1.948,0.306h0.396c9.894,0.066,19.805,0.041,29.7,0.182c1.593,0.024,22.416,0.172,23.257,0.511
		c2.022,0.801,2.063,2.673,1.196,6.354c-1.064,4.572-2.038,9.713-1.006,14.12c2.624,11.215,12.948,17.66,24.229,16.57
		c1.915-0.181,3.862-0.586,5.81-1.221c12.238-3.993,17.734-16.405,12.94-29.221c-1.998-5.372-1.189-6.602,4.563-6.602
		c0.71,0,1.361-0.206,1.963-0.545c1.891,0,3.756,0,5.612,0.008h4.415c1.139,0.009,2.27,0.009,3.392,0h1.238
		c0.94,0,1.881,0,2.822-0.008c0.487,0,0.974,0,1.461-0.008c0.899,0,1.79-0.008,2.69-0.016c0.487,0,0.982,0,1.469-0.009
		c0.94-0.009,1.881-0.017,2.813-0.033c0.429-0.008,0.867-0.008,1.295-0.016c0.917-0.008,1.832-0.025,2.749-0.05
		c0.446,0,0.883-0.017,1.329-0.025c0.999-0.017,2.789-2.228,2.822-3.441c0.231-9.845,0.132-19.706,0.132-30.41
		c-3.268-0.181-6.065-0.454-8.879-0.461c-1.395,0-2.723-0.091-4.002-0.256c-16.595-2.121-23.296-17.182-20.573-31.003
		c2.104-10.704,11.28-18.981,21.613-20.086c1.997-0.214,4.035-0.157,6.073,0.198c3.598,0.619,5.703-0.132,5.925-3.829v-1.544
		c-0.016-7.922-0.016-15.836,0.099-23.758C178.614,42.035,178.491,41.052,178.202,40.26z"/>
	<g>
		<path fill-rule="evenodd" clip-rule="evenodd" fill="#FFFFFF" d="M56.43,126.321c0.14-0.61,0.232-1.238,0.432-1.827
			c1.081-3.246,3.491-5.064,6.635-6.062c0.259-0.082,0.524-0.142,0.838-0.226c0-2.89,0-5.766,0-8.647
			c0-0.577-0.013-1.153,0.007-1.726c0.045-1.46,1.172-2.675,2.633-2.768c1.005-0.058,2.017-0.01,3.006-0.01
			c0.314-1.883,0.766-2.443,1.945-2.479c1.271-0.042,1.769,0.504,2.165,2.404c0.877,0,1.765,0,2.705,0
			c-0.311-1.415-0.19-2.738,0.986-3.623c0.616-0.465,1.474-0.85,2.224-0.854c13.667-0.049,27.332-0.042,40.999-0.033
			c2.125,0.003,3.681,1.89,3.314,3.973c-0.026,0.158-0.023,0.319-0.043,0.584c0.334,0,0.629,0,0.923,0c2.716,0,5.431-0.008,8.149,0
			c2.204,0.006,3.36,1.126,3.367,3.339c0.023,5.24,0.02,10.481,0,15.72c-0.006,2.228-1.146,3.345-3.363,3.348
			c-21.901,0-43.799,0-65.696-0.002c-2.217,0-3.314-1.131-3.321-3.361c0-0.495,0-0.987,0-1.484c-1.693,0.186-3.36,2.119-3.465,3.979
			c-0.144,2.544,1.445,4.602,4.189,5.348c2.099,0.57,4.238,0.786,6.422,0.748c2.905-0.046,5.836-0.204,8.708,0.13
			c5.955,0.688,10.788,3.609,14.598,8.208c1.035,1.244,0.665,2.469-0.976,3.6c-0.328,0-0.658,0-0.989,0
			c-0.383-0.344-0.766-0.685-1.153-1.025c-1.454-1.284-2.797-2.731-4.389-3.812c-3.766-2.555-8.06-3.167-12.531-3.118
			c-2.977,0.029-5.98,0.02-8.925-0.341c-3.586-0.432-6.429-2.338-8.178-5.548c-0.642-1.184-0.825-2.62-1.218-3.943
			C56.43,126.648,56.43,126.484,56.43,126.321z"/>
		<path fill-rule="evenodd" clip-rule="evenodd" fill="#FFFFFF" d="M95.296,51.062c0.792,0.187,1.614,0.297,2.374,0.573
			c4.565,1.67,7.474,4.854,8.27,9.674c0.802,4.864-0.94,8.831-4.844,11.817c-0.461,0.354-0.609,0.662-0.491,1.222
			c1.156,5.459,2.289,10.919,3.432,16.378c0.043,0.217,0.115,0.419,0.2,0.721c0.285,0,0.58,0,0.875,0
			c2.168,0,4.336-0.023,6.504,0.007c1.729,0.025,2.807,1.44,2.26,2.901c-0.157,0.419-0.386,0.648-0.9,0.648
			c-8.287-0.015-16.576-0.02-24.862,0c-0.753,0.005-0.95-0.425-1.039-0.994c-0.235-1.467,0.75-2.535,2.378-2.555
			c1.811-0.027,3.619-0.007,5.433-0.007c0.295,0,0.596,0,1.022,0c-0.324-1.565-0.625-3.052-0.933-4.539
			c-0.75-3.583-1.523-7.167-2.237-10.762c-0.111-0.566-0.341-0.741-0.871-0.826c-5.034-0.845-8.879-4.579-9.931-9.603
			c-1.438-6.865,3.236-13.513,10.189-14.505c0.127-0.017,0.245-0.098,0.37-0.15C93.429,51.062,94.362,51.062,95.296,51.062z
			 M101.528,62.764c-0.128-2.896-1.104-4.938-3.318-6.269c-1.084-0.648-2.051-0.425-2.626,0.53c-0.56,0.918-0.308,1.593,0.855,2.32
			c1.437,0.897,2.056,2.476,1.617,4.117c-0.071,0.265-0.167,0.527-0.196,0.796c-0.092,0.825,0.56,1.742,1.339,1.938
			c0.771,0.189,1.523-0.242,1.806-1.159C101.266,64.183,101.41,63.288,101.528,62.764z"/>
		<path fill-rule="evenodd" clip-rule="evenodd" fill="#FFFFFF" d="M100.5,99.465c-6.203,0-12.403,0-18.603,0
			c-0.832,0-0.986-0.177-0.907-1.016c0.124-1.324,1.133-2.332,2.459-2.449c0.272-0.026,0.544-0.034,0.819-0.034
			c10.841,0,21.679,0.008,32.516-0.007c1.127,0,2.136,0.185,2.787,1.213c0.174,0.275,0.324,0.583,0.397,0.893
			c0.261,1.164,0.058,1.4-1.114,1.4C112.736,99.465,106.618,99.465,100.5,99.465z"/>
	</g>
	<g>
		<path fill="#FFFFFF" d="M195.457,113.163c3.214-12.031,5.801-22.227,7.761-30.588l10.546-0.401
			c2.813,8.572,6.033,18.338,9.659,29.295l-7.173,1.278l-2.486-7.889l-8.749,0.228l-2.139,8.639L195.457,113.163z M213.385,98.972
			c-1.054-2.994-2.743-6.566-5.065-10.717c-1.615,3.582-2.963,7.282-4.046,11.101L213.385,98.972z"/>
		<path fill="#FFFFFF" d="M241.407,82.146l0.154,5.914l-11.121-0.025l0.205,7.864l9.982-0.449l0.401,5.676l-8.918,0.232l0.27,10.338
			l-7.8-0.07c0.104-3.934,0.104-7.893,0-11.877c-0.144-5.522-0.486-11.088-1.027-16.698C227.79,82.802,233.74,82.5,241.407,82.146z"
			/>
		<path fill="#FFFFFF" d="M252.544,110.898l-6.993,0.665c-0.267-10.262-0.743-19.888-1.428-28.88l8.004-0.712
			C252.169,91.469,252.308,101.112,252.544,110.898z"/>
		<path fill="#FFFFFF" d="M253.746,111.644c3.214-12.031,5.801-22.227,7.76-30.588l10.546-0.401
			c2.813,8.572,6.033,18.338,9.659,29.295l-7.173,1.278l-2.486-7.889l-8.749,0.228l-2.139,8.639L253.746,111.644z M271.674,97.452
			c-1.054-2.994-2.743-6.566-5.065-10.717c-1.615,3.582-2.963,7.282-4.046,11.101L271.674,97.452z"/>
		<path fill="#FFFFFF" d="M282.728,111.119c0.101-4.787,0.092-9.445-0.026-13.975c-0.136-5.229-0.419-10.292-0.847-15.191
			l8.264-0.509l8.007,15.592c-0.217-5.422-0.567-10.967-1.053-16.634l8.69-0.31c-0.64,8.592-0.845,17.257-0.617,25.995
			c0.03,1.174,0.07,2.349,0.12,3.522l-7.622,0.262l-8.543-16.691c0.406,6.229,0.782,12.018,1.128,17.367L282.728,111.119z"/>
		<path fill="#FFFFFF" d="M308.98,85.819l0.252-5.462c8.868-0.315,15.291-0.524,19.267-0.628l0.144,5.515
			c-4.764,7.301-8.659,13.404-11.684,18.31c2.177-0.015,4.24-0.047,6.19-0.098c2.27-0.06,4.388-0.143,6.356-0.25l0.434,5.844
			c-4.975-0.024-11.653,0.073-20.036,0.292l-0.75-6.108c5.256-7.16,9.174-13.082,11.754-17.766L308.98,85.819z"/>
		<path fill="#FFFFFF" d="M330.63,109.639c3.215-12.031,5.801-22.227,7.761-30.588l10.546-0.401
			c2.813,8.572,6.033,18.337,9.66,29.294l-7.173,1.278l-2.486-7.889l-8.749,0.228l-2.14,8.639L330.63,109.639z M348.559,95.448
			c-1.055-2.994-2.743-6.566-5.065-10.717c-1.614,3.582-2.963,7.282-4.046,11.101L348.559,95.448z"/>
		<path fill="#FFFFFF" d="M368.494,78.371l7.121,21.555l4.286-20.257l12.831-0.229c-0.107,4.549-0.1,9.138,0.021,13.765
			c0.135,5.159,0.411,10.376,0.83,15.654l-8.175,0.633c-0.145-5.564-0.407-12.363-0.785-20.397l-4.105,18.552l-8.709,0.668
			l-6.145-19.733l0.412,20.134l-6.855,0.536c0.011-4.603-0.042-9.169-0.16-13.699c-0.147-5.648-0.396-11.223-0.746-16.727
			L368.494,78.371z"/>
		<path fill="#FFFFFF" d="M403.921,106.952l-6.993,0.665c-0.267-10.262-0.743-19.888-1.428-28.88l8.004-0.712
			C403.546,87.523,403.685,97.166,403.921,106.952z"/>
		<path fill="#FFFFFF" d="M424.078,77.825l0.154,5.914l-11.121-0.046l0.179,6.878l9.981-0.47l0.401,5.676l-8.917,0.233l0.139,5.326
			l11.675-0.304l0.155,5.956l-19.473,0.298c0.104-3.934,0.104-7.893,0-11.877c-0.144-5.522-0.486-11.088-1.026-16.698
			C410.46,78.474,416.411,78.179,424.078,77.825z"/>
		<path fill="#FFFFFF" d="M429.547,107.292c0.101-4.787,0.092-9.446-0.026-13.975c-0.136-5.229-0.419-10.293-0.847-15.192
			l8.263-0.509l8.007,15.593c-0.217-5.422-0.567-10.967-1.053-16.634l8.691-0.311c-0.64,8.592-0.845,17.257-0.618,25.995
			c0.031,1.174,0.071,2.348,0.12,3.522l-7.622,0.262l-8.542-16.691c0.406,6.229,0.782,12.018,1.128,17.367L429.547,107.292z"/>
		<path fill="#FFFFFF" d="M455.445,82.421l-0.144-5.515c2.758-0.016,5.488-0.059,8.188-0.129c4.201-0.11,8.315-0.28,12.345-0.511
			l0.406,5.865l-7.089,0.185c0.259,9.94,0.605,17.821,1.038,23.644l-7.925,0.5c0.154-9.937,0.243-18.039,0.267-24.307
			L455.445,82.421z"/>
		<path fill="#FFFFFF" d="M491.688,75.349c7.895-0.206,11.975,4.724,12.237,14.79c0.263,10.08-3.835,15.23-12.293,15.45
			c-8.458,0.221-12.823-4.891-13.096-15.334C478.283,80.553,482.667,75.584,491.688,75.349z M486.47,91.16
			c-0.009,0.364-0.01,0.714-0.001,1.049c0.138,5.271,1.856,7.863,5.157,7.777c3.507-0.092,5.183-3.122,5.027-9.092
			c-0.156-5.969-1.865-8.912-5.128-8.827C488.243,82.153,486.558,85.185,486.47,91.16z"/>
	</g>
	<g>
		<path fill="#331842" d="M208.103,53.904l-2.18,6.019c-0.042,0.105-0.092,0.188-0.149,0.249c-0.123,0.122-0.28,0.184-0.472,0.188
			c-0.192,0.004-0.355-0.059-0.491-0.189c-0.136-0.131-0.206-0.292-0.21-0.486c-0.002-0.096,0.018-0.197,0.06-0.302l5.956-16.474
			c0.042-0.12,0.098-0.221,0.17-0.305c0.122-0.129,0.279-0.195,0.472-0.2c0.191-0.004,0.355,0.059,0.491,0.19
			c0.076,0.072,0.137,0.168,0.184,0.285l6.666,16.195c0.046,0.103,0.071,0.203,0.073,0.299c0.004,0.193-0.059,0.358-0.188,0.495
			c-0.129,0.136-0.287,0.207-0.471,0.211c-0.192,0.004-0.352-0.048-0.479-0.157c-0.068-0.065-0.125-0.149-0.172-0.252l-2.433-5.917
			L208.103,53.904z M214.367,52.396l-3.052-7.418l-2.711,7.546L214.367,52.396z"/>
		<path fill="#331842" d="M234.772,57.002c0.192-0.004,0.355,0.061,0.491,0.195c0.136,0.135,0.206,0.298,0.21,0.491
			c0.004,0.193-0.062,0.362-0.199,0.506c-0.55,0.495-1.165,0.88-1.845,1.154c-0.681,0.275-1.4,0.421-2.16,0.438
			c-1.711,0.038-3.185-0.539-4.421-1.729c-1.236-1.19-1.874-2.647-1.912-4.369s0.534-3.205,1.717-4.449s2.629-1.885,4.34-1.923
			c0.76-0.017,1.487,0.097,2.183,0.341c0.695,0.245,1.325,0.603,1.888,1.073c0.068,0.065,0.126,0.146,0.177,0.241
			c0.05,0.095,0.076,0.195,0.078,0.299c0.004,0.193-0.059,0.358-0.188,0.495c-0.129,0.136-0.29,0.207-0.482,0.211
			c-0.177,0.004-0.326-0.048-0.446-0.157c-0.917-0.774-1.977-1.148-3.179-1.122c-1.328,0.029-2.453,0.53-3.375,1.5
			c-0.916,0.963-1.358,2.117-1.329,3.46c0.03,1.343,0.523,2.476,1.48,3.398c0.965,0.93,2.111,1.379,3.438,1.35
			c0.583-0.013,1.143-0.133,1.68-0.36c0.538-0.228,1.02-0.528,1.447-0.901C234.474,57.053,234.609,57.006,234.772,57.002z"/>
		<path fill="#331842" d="M248.203,58.031c0.192-0.004,0.357,0.059,0.497,0.189c0.139,0.13,0.211,0.292,0.215,0.485
			s-0.061,0.357-0.194,0.494c-0.134,0.137-0.296,0.207-0.488,0.211c-2.906,0.064-4.391-1.366-4.455-4.291l-0.148-6.703l-1.14,0.025
			c-0.192,0.004-0.357-0.059-0.497-0.189c-0.14-0.131-0.211-0.292-0.215-0.485c-0.004-0.193,0.06-0.358,0.194-0.495
			c0.133-0.137,0.296-0.207,0.488-0.211l1.139-0.025l-0.103-4.665c-0.004-0.193,0.059-0.358,0.188-0.494
			c0.129-0.137,0.29-0.207,0.482-0.211s0.357,0.059,0.497,0.189c0.14,0.131,0.211,0.292,0.216,0.485l0.103,4.666l2.068-0.046
			c0.192-0.004,0.357,0.059,0.497,0.189c0.14,0.131,0.211,0.293,0.216,0.486c0.004,0.193-0.061,0.358-0.194,0.494
			c-0.134,0.137-0.296,0.208-0.488,0.211l-2.069,0.046l0.148,6.703C245.206,57.095,246.22,58.075,248.203,58.031z"/>
		<path fill="#331842" d="M257.633,43.72c0.006,0.26-0.078,0.48-0.251,0.663s-0.389,0.276-0.647,0.282
			c-0.25,0.005-0.468-0.079-0.653-0.253s-0.28-0.391-0.286-0.651c-0.005-0.252,0.08-0.472,0.257-0.658
			c0.176-0.186,0.39-0.281,0.641-0.287c0.258-0.005,0.478,0.081,0.659,0.259S257.627,43.467,257.633,43.72z M256.11,47.452
			c-0.004-0.193,0.059-0.358,0.188-0.495c0.13-0.136,0.291-0.207,0.482-0.211c0.191-0.004,0.357,0.059,0.497,0.189
			c0.139,0.131,0.211,0.292,0.215,0.485l0.245,11.09c0.004,0.193-0.061,0.358-0.194,0.495c-0.134,0.137-0.296,0.208-0.488,0.211
			c-0.192,0.004-0.355-0.059-0.491-0.189c-0.136-0.131-0.206-0.292-0.21-0.486L256.11,47.452z"/>
		<path fill="#331842" d="M271.429,58.732c-0.108,0.114-0.266,0.173-0.472,0.178c-0.199,0.004-0.363-0.055-0.491-0.179
			c-0.053-0.05-0.091-0.102-0.114-0.153l-5.335-11.056c-0.031-0.073-0.048-0.162-0.05-0.266c-0.004-0.193,0.059-0.357,0.188-0.494
			c0.13-0.137,0.291-0.207,0.482-0.211c0.192-0.004,0.359,0.055,0.502,0.178c0.045,0.044,0.087,0.103,0.126,0.176l4.64,9.645
			l4.209-9.84c0.028-0.06,0.067-0.117,0.118-0.17c0.137-0.137,0.302-0.207,0.494-0.211s0.357,0.057,0.497,0.184
			c0.139,0.127,0.211,0.291,0.215,0.491c0.002,0.097-0.014,0.186-0.049,0.269l-4.842,11.28
			C271.518,58.619,271.479,58.679,271.429,58.732z"/>
		<path fill="#331842" d="M285.278,43.109c0.006,0.26-0.078,0.48-0.251,0.663c-0.173,0.182-0.389,0.276-0.647,0.282
			c-0.25,0.005-0.468-0.079-0.653-0.253c-0.185-0.174-0.28-0.391-0.286-0.651c-0.005-0.252,0.08-0.472,0.257-0.658
			c0.177-0.186,0.39-0.281,0.641-0.287c0.258-0.006,0.478,0.08,0.659,0.258C285.179,42.641,285.272,42.856,285.278,43.109z
			 M283.755,46.841c-0.004-0.193,0.059-0.358,0.188-0.494c0.13-0.137,0.291-0.207,0.482-0.211c0.191-0.004,0.357,0.059,0.497,0.189
			c0.139,0.131,0.211,0.292,0.215,0.486l0.245,11.09c0.004,0.193-0.061,0.357-0.194,0.494c-0.134,0.137-0.296,0.207-0.488,0.211
			s-0.355-0.059-0.491-0.19c-0.136-0.13-0.206-0.292-0.21-0.485L283.755,46.841z"/>
		<path fill="#331842" d="M303.488,41.058c-0.004-0.193,0.061-0.358,0.194-0.495c0.133-0.136,0.295-0.207,0.487-0.211
			s0.355,0.059,0.491,0.189c0.136,0.131,0.206,0.292,0.21,0.486l0.241,10.889c0.038,1.722-0.534,3.206-1.717,4.449
			c-1.183,1.245-2.629,1.885-4.34,1.923c-1.711,0.038-3.185-0.539-4.421-1.729s-1.874-2.647-1.912-4.369s0.534-3.205,1.717-4.449
			s2.629-1.885,4.34-1.923c1.711-0.038,3.185,0.539,4.421,1.729l0.441,0.425L303.488,41.058z M303.729,51.947
			c-0.03-1.344-0.523-2.477-1.48-3.398c-0.965-0.929-2.111-1.379-3.438-1.35c-1.328,0.03-2.453,0.53-3.375,1.5
			c-0.923,0.971-1.37,2.125-1.34,3.461c0.03,1.336,0.527,2.469,1.492,3.398s2.111,1.379,3.438,1.35
			c1.328-0.029,2.453-0.529,3.375-1.5C303.315,54.444,303.759,53.291,303.729,51.947z"/>
		<path fill="#331842" d="M322.506,55.509c-1.457,1.54-3.043,2.329-4.762,2.367c-1.711,0.038-3.185-0.539-4.421-1.729
			c-1.236-1.19-1.874-2.646-1.912-4.369c-0.038-1.722,0.534-3.205,1.717-4.449s2.629-1.885,4.34-1.923
			c1.71-0.038,3.184,0.539,4.42,1.729c1.236,1.19,1.874,2.647,1.912,4.369l0.123,5.545c0.004,0.193-0.059,0.357-0.188,0.494
			s-0.29,0.207-0.482,0.211c-0.192,0.004-0.357-0.059-0.497-0.189c-0.14-0.13-0.211-0.292-0.216-0.485L322.506,55.509z
			 M317.5,46.786c-1.327,0.029-2.453,0.529-3.375,1.5s-1.37,2.125-1.34,3.46c0.029,1.336,0.526,2.469,1.492,3.398
			c0.965,0.929,2.111,1.379,3.438,1.35c1.328-0.029,2.453-0.529,3.376-1.5c0.915-0.963,1.358-2.117,1.329-3.46
			c-0.03-1.343-0.523-2.476-1.48-3.398C319.973,47.207,318.827,46.757,317.5,46.786z"/>
		<path fill="#331842" d="M340.868,40.231c-0.004-0.192,0.06-0.357,0.194-0.494c0.133-0.137,0.296-0.207,0.488-0.211
			c0.192-0.004,0.355,0.059,0.491,0.19c0.136,0.13,0.206,0.292,0.21,0.485l0.241,10.89c0.038,1.722-0.535,3.205-1.717,4.449
			c-1.183,1.244-2.629,1.885-4.34,1.923c-1.711,0.038-3.184-0.539-4.42-1.729c-1.236-1.19-1.874-2.646-1.912-4.369
			c-0.038-1.722,0.534-3.205,1.717-4.449c1.182-1.244,2.629-1.885,4.34-1.923c1.711-0.038,3.184,0.539,4.42,1.729l0.441,0.425
			L340.868,40.231z M341.108,51.121c-0.03-1.343-0.523-2.476-1.48-3.398c-0.965-0.929-2.111-1.379-3.438-1.35
			c-1.328,0.029-2.453,0.529-3.375,1.5c-0.923,0.971-1.37,2.125-1.34,3.46s0.526,2.469,1.492,3.398
			c0.965,0.929,2.111,1.379,3.438,1.35c1.327-0.029,2.452-0.529,3.375-1.5C340.695,53.618,341.138,52.465,341.108,51.121z"/>
	</g>
</g>
</svg>
