<?xml version="1.0" encoding="utf-8"?>
<!-- Generator: Adobe Illustrator 16.0.0, SVG Export Plug-In . SVG Version: 6.00 Build 0)  -->
<!DOCTYPE svg PUBLIC "-//W3C//DTD SVG 1.1//EN" "http://www.w3.org/Graphics/SVG/1.1/DTD/svg11.dtd">
<svg version="1.1" id="Capa_1" xmlns="http://www.w3.org/2000/svg" xmlns:xlink="http://www.w3.org/1999/xlink" x="0px" y="0px"
	 width="222.029px" height="69.229px" viewBox="0 0 222.029 69.229" enable-background="new 0 0 222.029 69.229"
	 xml:space="preserve">
<g>
	<path fill="#E9496E" d="M54.772,15.162h145.271c12.143,0,21.986,9.844,21.986,21.986l0,0c0,12.143-9.845,21.985-21.986,21.985
		H54.772"/>
	<path fill="#E9496E" d="M21.38,2.69c8.325-3.461,17.488-3.586,25.801-0.357c0.198,0.078,0.396,0.156,0.594,0.236
		c7.617,3.119,13.885,8.861,17.647,16.167c2.319,4.498,6.169,8.029,10.843,9.943c3.07,1.257,6.442,1.775,9.753,1.504l11.394-0.649
		l0.514,10.946l-16.846,1.104C74.241,42.173,68.04,46.14,64.49,52.197c-8.64,14.74-27.108,20.961-42.96,14.471
		C12.826,63.104,6.087,56.34,2.556,47.622c-3.532-8.715-3.398-18.268,0.375-26.896C6.502,12.556,13.055,6.151,21.38,2.69z"/>
	
		<radialGradient id="SVGID_1_" cx="-12107.8438" cy="2401.1394" r="28.7665" gradientTransform="matrix(-0.9254 -0.3789 0.3789 -0.9254 -12079.7383 -2331.0286)" gradientUnits="userSpaceOnUse">
		<stop  offset="0" style="stop-color:#FFFFFF"/>
		<stop  offset="1" style="stop-color:#F2F2F2"/>
	</radialGradient>
	<circle fill="url(#SVGID_1_)" cx="34.651" cy="34.619" r="28.758"/>
	<g enable-background="new    ">
		<path fill="#FFFFFF" d="M92.547,43.715l-6.495-16.764h2.401l4.356,12.178c0.351,0.977,0.645,1.892,0.881,2.745
			c0.259-0.915,0.56-1.83,0.903-2.745l4.528-12.178h2.264l-6.564,16.764H92.547z"/>
		<path fill="#FFFFFF" d="M110.134,39.803l2.126,0.264c-0.335,1.242-0.956,2.207-1.863,2.893c-0.907,0.687-2.066,1.029-3.477,1.029
			c-1.776,0-3.185-0.547-4.225-1.641s-1.561-2.628-1.561-4.603c0-2.043,0.526-3.629,1.578-4.758
			c1.052-1.128,2.417-1.692,4.094-1.692c1.624,0,2.95,0.554,3.979,1.658c1.029,1.105,1.544,2.661,1.544,4.666
			c0,0.122-0.004,0.305-0.012,0.549h-9.057c0.076,1.334,0.454,2.355,1.132,3.064c0.678,0.709,1.524,1.063,2.539,1.063
			c0.755,0,1.399-0.198,1.933-0.595C109.398,41.305,109.822,40.673,110.134,39.803z M103.376,36.476h6.781
			c-0.091-1.021-0.351-1.788-0.777-2.299c-0.656-0.793-1.506-1.189-2.55-1.189c-0.945,0-1.74,0.317-2.384,0.949
			C103.801,34.57,103.445,35.417,103.376,36.476z"/>
		<path fill="#FFFFFF" d="M114.823,43.715V31.571h1.852v1.841c0.473-0.861,0.909-1.43,1.31-1.704s0.841-0.412,1.321-0.412
			c0.693,0,1.398,0.222,2.115,0.664l-0.709,1.909c-0.504-0.297-1.006-0.446-1.51-0.446c-0.449,0-0.854,0.136-1.212,0.406
			s-0.614,0.646-0.767,1.127c-0.229,0.731-0.343,1.532-0.343,2.401v6.357H114.823z"/>
		<path fill="#FFFFFF" d="M133.644,41.874l0.298,1.818c-0.58,0.121-1.098,0.183-1.556,0.183c-0.747,0-1.326-0.118-1.738-0.354
			c-0.411-0.236-0.701-0.547-0.868-0.932c-0.168-0.385-0.252-1.195-0.252-2.431v-6.986h-1.51v-1.601h1.51v-3.008l2.047-1.235v4.243
			h2.069v1.601h-2.069v7.101c0,0.588,0.035,0.965,0.108,1.133c0.072,0.167,0.19,0.301,0.354,0.4
			c0.164,0.099,0.398,0.148,0.703,0.148C132.969,41.954,133.27,41.927,133.644,41.874z"/>
		<path fill="#FFFFFF" d="M143.582,42.217c-0.763,0.648-1.496,1.105-2.201,1.372c-0.706,0.267-1.462,0.4-2.271,0.4
			c-1.334,0-2.359-0.326-3.076-0.978c-0.716-0.652-1.074-1.484-1.074-2.499c0-0.595,0.135-1.138,0.406-1.629
			c0.27-0.492,0.625-0.887,1.062-1.184c0.439-0.298,0.933-0.522,1.481-0.675c0.403-0.106,1.014-0.21,1.829-0.309
			c1.662-0.198,2.886-0.435,3.672-0.709c0.007-0.282,0.011-0.461,0.011-0.538c0-0.838-0.194-1.429-0.583-1.772
			c-0.526-0.465-1.308-0.697-2.344-0.697c-0.969,0-1.684,0.17-2.145,0.509c-0.461,0.34-0.803,0.939-1.023,1.802l-2.013-0.275
			c0.183-0.861,0.483-1.557,0.903-2.086c0.42-0.53,1.025-0.938,1.818-1.224c0.793-0.286,1.711-0.43,2.756-0.43
			c1.037,0,1.879,0.122,2.527,0.366c0.647,0.244,1.124,0.551,1.43,0.921c0.305,0.37,0.518,0.837,0.64,1.4
			c0.069,0.351,0.103,0.983,0.103,1.898v2.744c0,1.914,0.045,3.124,0.132,3.631c0.088,0.507,0.261,0.993,0.521,1.458h-2.15
			C143.78,43.288,143.643,42.789,143.582,42.217z M143.411,37.62c-0.748,0.305-1.869,0.564-3.363,0.777
			c-0.846,0.122-1.443,0.26-1.795,0.412c-0.351,0.152-0.621,0.375-0.812,0.669c-0.19,0.293-0.286,0.619-0.286,0.978
			c0,0.549,0.208,1.006,0.623,1.372c0.416,0.366,1.023,0.549,1.824,0.549c0.793,0,1.498-0.173,2.115-0.521
			c0.617-0.347,1.071-0.821,1.361-1.424c0.221-0.465,0.332-1.15,0.332-2.058V37.62z"/>
		<path fill="#FFFFFF" d="M150.58,43.715h-1.909V26.951h2.059v5.98c0.868-1.09,1.978-1.636,3.326-1.636
			c0.748,0,1.455,0.151,2.122,0.452s1.216,0.725,1.646,1.27s0.769,1.202,1.013,1.973c0.243,0.77,0.365,1.593,0.365,2.47
			c0,2.081-0.515,3.689-1.544,4.825c-1.028,1.137-2.264,1.704-3.704,1.704c-1.434,0-2.559-0.599-3.374-1.795V43.715z
			 M150.557,37.552c0,1.456,0.197,2.508,0.594,3.155c0.648,1.061,1.525,1.59,2.631,1.59c0.898,0,1.677-0.391,2.332-1.172
			c0.656-0.781,0.984-1.946,0.984-3.493c0-1.586-0.314-2.756-0.943-3.511s-1.391-1.133-2.281-1.133c-0.9,0-1.678,0.392-2.334,1.173
			C150.885,34.942,150.557,36.072,150.557,37.552z"/>
		<path fill="#FFFFFF" d="M161.661,43.715V26.951h2.058v16.764H161.661z"/>
		<path fill="#FFFFFF" d="M174.834,42.217c-0.763,0.648-1.496,1.105-2.201,1.372c-0.706,0.267-1.462,0.4-2.271,0.4
			c-1.334,0-2.359-0.326-3.076-0.978c-0.716-0.652-1.074-1.484-1.074-2.499c0-0.595,0.135-1.138,0.406-1.629
			c0.27-0.492,0.625-0.887,1.062-1.184c0.439-0.298,0.933-0.522,1.481-0.675c0.403-0.106,1.014-0.21,1.829-0.309
			c1.662-0.198,2.886-0.435,3.672-0.709c0.007-0.282,0.011-0.461,0.011-0.538c0-0.838-0.194-1.429-0.583-1.772
			c-0.526-0.465-1.308-0.697-2.344-0.697c-0.969,0-1.684,0.17-2.145,0.509c-0.461,0.34-0.803,0.939-1.023,1.802l-2.013-0.275
			c0.183-0.861,0.483-1.557,0.903-2.086c0.42-0.53,1.025-0.938,1.818-1.224c0.793-0.286,1.711-0.43,2.756-0.43
			c1.037,0,1.879,0.122,2.527,0.366c0.647,0.244,1.124,0.551,1.43,0.921c0.305,0.37,0.518,0.837,0.64,1.4
			c0.069,0.351,0.103,0.983,0.103,1.898v2.744c0,1.914,0.045,3.124,0.132,3.631c0.088,0.507,0.261,0.993,0.521,1.458h-2.15
			C175.032,43.288,174.895,42.789,174.834,42.217z M174.663,37.62c-0.748,0.305-1.869,0.564-3.363,0.777
			c-0.846,0.122-1.443,0.26-1.795,0.412c-0.351,0.152-0.621,0.375-0.812,0.669c-0.19,0.293-0.286,0.619-0.286,0.978
			c0,0.549,0.208,1.006,0.623,1.372c0.416,0.366,1.023,0.549,1.824,0.549c0.793,0,1.498-0.173,2.115-0.521
			c0.617-0.347,1.071-0.821,1.361-1.424c0.221-0.465,0.332-1.15,0.332-2.058V37.62z"/>
	</g>
	<path fill="#E9496E" d="M35.62,36.954c0.108,0.229,0.258,0.438,0.307,0.667c0.152,0.708,0.621,1.108,1.274,1.244
		c0.776,0.161,1.571,0.277,2.362,0.312c1.564,0.067,3.135,0.019,4.698,0.104c2.976,0.161,5.941,0.292,8.887-0.345
		c1.135-0.245,2.072-0.707,2.435-1.912c0.177-0.59,0.256-1.198,0.149-1.809c-0.126-0.729-0.271-1.459-0.453-2.176
		c-0.058-0.226-0.229-0.456-0.411-0.604c-0.213-0.174-0.486-0.297-0.752-0.376c-1.139-0.337-2.308-0.294-3.475-0.225
		c-1.73,0.105-3.46,0.251-5.191,0.338c-1.901,0.096-3.805,0.137-5.707,0.215c-0.348,0.015-0.678,0.02-1.018-0.103
		c-0.433-0.153-0.872-0.104-1.281,0.119c-0.265,0.144-0.524,0.3-0.791,0.44c-0.672,0.354-1.071,0.927-1.188,1.652
		c-0.096,0.591-0.081,1.2-0.116,1.825c-0.781-0.034-1.618-0.062-2.375-0.439c-0.657-0.326-1.148-0.809-1.132-1.636
		c0.008-0.291-0.062-0.585-0.085-0.878c-0.081-1.099-0.156-2.196-0.235-3.295c-0.005-0.062-0.021-0.121-0.026-0.183
		c-0.035-0.302-0.069-0.602-0.099-0.857c1.897-0.113,3.726-0.188,5.547-0.34c1.391-0.115,2.775-0.307,4.159-0.502
		c0.509-0.072,0.995-0.257,1.342-0.691c0.467-0.584,0.806-1.188,0.939-1.968c0.345-1.998,0.421-3.981,0.15-5.992
		c-0.18-1.341-0.871-2.215-2.145-2.646c-0.898-0.307-1.819-0.407-2.766-0.332c-0.1,0.008-0.209-0.019-0.306-0.054
		c-0.102-0.034-0.194-0.149-0.285-0.145c-1.489,0.103-2.977,0.224-4.465,0.329c-0.953,0.068-1.907,0.167-2.861,0.167
		c-2.418-0.001-4.837-0.084-7.255-0.062c-0.897,0.01-1.792,0.055-2.641,0.604c-0.688,0.445-1.017,0.953-1.083,1.706
		c-0.146,1.617-0.161,3.234-0.005,4.852c0.034,0.366,0.076,0.731,0.094,1.099c0.025,0.564-0.019,1.138,0.061,1.694
		c0.105,0.747,0.432,1.429,1.101,1.832c0.784,0.477,1.684,0.383,2.567,0.367c-0.105-0.05-0.213-0.1-0.346-0.16
		c0.059-0.007,0.087-0.018,0.114-0.014c1.146,0.176,2.299,0.182,3.458,0.144c1.289-0.045,2.58-0.011,3.871-0.011
		c0.033,0.646,0.028,1.203,0.101,1.753c0.23,1.759,0.529,3.513,0.513,5.296c-0.014,1.479,0.044,2.964-0.058,4.438
		c-0.064,0.932-0.373,1.543-1.549,1.718c-0.232,0.035-0.271-0.035-0.329-0.233c-0.175-0.594-0.147-1.236-0.549-1.783
		c-0.37-0.503-0.812-0.88-1.408-0.959c-0.86-0.112-1.734-0.162-2.603-0.171c-1.44-0.017-2.882,0.024-4.321,0.032
		c-1.009,0.006-2.021-0.046-3.026,0.004c-0.771,0.039-1.535,0.217-2.307,0.299c-0.703,0.073-1.276,0.45-1.42,1.14
		c-0.13,0.619-0.167,1.267-0.166,1.902c0.002,0.628,0.066,1.261,0.169,1.881c0.08,0.479,0.215,0.962,0.406,1.409
		c0.213,0.499,0.644,0.761,1.202,0.771c0.156,0.004,0.313,0.009,0.47,0.024c0.636,0.063,1.271,0.204,1.905,0.187
		c1.901-0.052,3.802-0.155,5.7-0.256c1.207-0.062,2.413-0.143,3.618-0.237c1.253-0.1,2.168-0.788,2.414-1.865
		c0.102-0.44,0.062-0.914,0.076-1.374c0.005-0.15-0.02-0.304-0.03-0.465c0.789-0.033,1.357-0.408,1.832-1.02
		c0.027,0.117,0.04,0.188,0.062,0.256c0.217,0.699,0.387,1.418,0.662,2.092c0.452,1.105,1.205,1.948,2.396,2.293
		c0.448,0.13,0.917,0.193,1.406,0.294c0.001,0.009,0.017,0.057,0.021,0.106c0.101,0.903,0.5,1.658,1.152,2.278
		c0.155,0.146,0.346,0.281,0.546,0.355c0.278,0.104,0.581,0.14,0.872,0.211c0.97,0.235,1.961,0.271,2.946,0.219
		c3.968-0.209,7.936-0.437,11.9-0.68c0.474-0.028,0.94-0.073,1.331-0.513c0.392-0.438,0.702-0.884,0.74-1.449
		c0.06-0.899,0.108-1.81,0.043-2.706c-0.111-1.5-0.741-2.133-2.233-2.34c-1.217-0.168-2.433-0.032-3.646,0.104
		c-1.347,0.151-2.693,0.373-4.042,0.395c-1.891,0.029-3.783-0.068-5.671-0.176c-1.081-0.063-2.047,0.228-3.01,0.649
		c-0.749,0.33-1.137,0.871-1.121,1.688c0.005,0.321,0.026,0.644,0.042,0.979c-0.118,0-0.224,0.012-0.323-0.002
		c-0.364-0.045-0.726-0.122-1.09-0.14c-0.502-0.025-0.904-0.2-1.228-0.596c-0.522-0.645-0.731-1.406-0.878-2.197
		c-0.286-1.562-0.269-3.137-0.212-4.716c0.025-0.698,0.004-1.398,0.004-2.146C33.005,36.702,34.251,37.016,35.62,36.954z"/>
</g>
</svg>
