<?xml version="1.0" encoding="utf-8"?>
<!-- Generator: Adobe Illustrator 16.0.0, SVG Export Plug-In . SVG Version: 6.00 Build 0)  -->
<!DOCTYPE svg PUBLIC "-//W3C//DTD SVG 1.1//EN" "http://www.w3.org/Graphics/SVG/1.1/DTD/svg11.dtd">
<svg version="1.1" id="Capa_1" xmlns="http://www.w3.org/2000/svg" xmlns:xlink="http://www.w3.org/1999/xlink" x="0px" y="0px"
	 width="149.895px" height="116.373px" viewBox="0 0 149.895 116.373" enable-background="new 0 0 149.895 116.373"
	 xml:space="preserve">
<rect x="0" fill="#ADC710" width="149.895" height="116.373"/>
<g enable-background="new    ">
	<path fill="#FFFFFF" d="M20.141,72.151c0.063-2.075,0.095-4.197,0.095-6.368c0-3.329-0.074-6.778-0.222-10.345
		c1.81-0.189,3.408-0.284,4.795-0.284c2.18,0,3.821,0.237,4.922,0.71c1.704,0.734,2.556,2.237,2.556,4.51v0.391
		c-0.106,2.494-0.863,4.09-2.271,4.787c-1.408,0.699-3.144,1.072-5.208,1.119c-0.011,0.244-0.016,0.497-0.016,0.758
		c0,1.31,0.09,2.86,0.27,4.651L20.141,72.151z M24.206,58.185l0.111,5.787c1.969-0.078,3.123-0.604,3.461-1.574
		c0.159-0.441,0.238-0.895,0.238-1.36c0-0.544-0.106-1.104-0.318-1.681c-0.317-0.845-1.111-1.267-2.382-1.267
		C24.979,58.09,24.609,58.121,24.206,58.185z"/>
	<path fill="#FFFFFF" d="M38.068,64.02l0.159,8.581l-3.89,0.023c0-3.629-0.165-7.705-0.492-12.227l2.921-0.236l0.159,1.93
		c0.445-0.947,1.482-1.488,3.112-1.622c0.244-0.016,0.477-0.023,0.699-0.023c1.281,0,2.255,0.312,2.922,0.935
		c0.772,0.742,1.164,1.922,1.175,3.539l-3.525,0.261c0.01-0.134,0.016-0.265,0.016-0.391c0-1.263-0.439-1.894-1.318-1.894h-0.063
		C38.926,62.935,38.301,63.31,38.068,64.02z"/>
	<path fill="#FFFFFF" d="M51.056,60.351c3.673,0,5.51,1.818,5.51,5.457c0,0.441-0.027,0.915-0.08,1.42h-7.098
		c0,2.027,0.524,3.041,1.572,3.041h0.111c0.921-0.055,1.381-0.579,1.381-1.574c0-0.213-0.021-0.449-0.063-0.709l3.779-0.06
		c0,3.007-1.763,4.529-5.288,4.569c-0.042,0.008-0.08,0.012-0.111,0.012c-3.356,0-5.033-1.898-5.033-5.693v-0.355
		C45.843,62.386,47.616,60.351,51.056,60.351z M49.008,65.05h3.589v-0.285c0-1.436-0.545-2.153-1.636-2.153
		C49.786,62.611,49.135,63.424,49.008,65.05z"/>
	<path fill="#FFFFFF" d="M60.711,72.198c-1.333-4.568-2.53-8.49-3.588-11.766l3.858-0.153l1.953,8.604
		c1.016-3.219,1.826-6.154,2.429-8.806l3.795,0.354c-1.196,3.307-2.588,7.213-4.176,11.719L60.711,72.198z"/>
	<path fill="#FFFFFF" d="M74.906,60.351c3.673,0,5.51,1.818,5.51,5.457c0,0.441-0.027,0.915-0.08,1.42h-7.097
		c0,2.027,0.524,3.041,1.572,3.041h0.111c0.921-0.055,1.381-0.579,1.381-1.574c0-0.213-0.021-0.449-0.062-0.709l3.779-0.06
		c0,3.007-1.764,4.529-5.288,4.569c-0.042,0.008-0.08,0.012-0.111,0.012c-3.356,0-5.033-1.898-5.033-5.693v-0.355
		C69.693,62.386,71.466,60.351,74.906,60.351z M72.858,65.05h3.589v-0.285c0-1.436-0.546-2.153-1.636-2.153
		C73.636,62.611,72.985,63.424,72.858,65.05z"/>
	<path fill="#FFFFFF" d="M84.528,60.042l0.159,1.93c0.444-1.025,1.614-1.547,3.509-1.562h0.064c1.863,0,3.133,0.545,3.811,1.634
		c0.466,0.741,0.699,2.478,0.699,5.208c0,1.342-0.059,2.928-0.176,4.758h-3.842c0.137-2.438,0.206-4.328,0.206-5.669
		c0-0.671-0.016-1.208-0.048-1.61c-0.105-1.184-0.613-1.775-1.523-1.775c-0.911,0-1.482,0.316-1.715,0.947l0.158,8.581l-3.731,0.024
		c0-3.631-0.165-7.706-0.492-12.228L84.528,60.042z"/>
	<path fill="#FFFFFF" d="M100.581,67.63l3.779,0.178c0,2.848-1.763,4.293-5.288,4.332c-0.042,0.008-0.079,0.012-0.111,0.012
		c-3.355,0-5.033-1.898-5.033-5.693v-0.355c0.105-4.071,1.895-6.127,5.367-6.166h0.127c3.197,0,4.795,1.365,4.795,4.096
		c0,0.157-0.005,0.314-0.016,0.473l-3.414,0.189V64.41c0-1.437-0.545-2.154-1.635-2.154c-1.111,0-1.668,1.164-1.668,3.491v0.391
		c0.064,2.518,0.625,3.776,1.684,3.776h0.096c0.92-0.056,1.381-0.58,1.381-1.574C100.645,68.127,100.623,67.89,100.581,67.63z"/>
	<path fill="#FFFFFF" d="M110.124,57.628c0,0.481-0.228,0.892-0.683,1.23c-0.455,0.34-1.006,0.51-1.651,0.51
		c-0.636,0-1.181-0.17-1.636-0.51c-0.455-0.338-0.683-0.749-0.683-1.23c0-0.473,0.228-0.879,0.683-1.219
		c0.455-0.339,1-0.509,1.636-0.509c0.646,0,1.196,0.17,1.651,0.509C109.897,56.749,110.124,57.155,110.124,57.628z M105.869,72.565
		c-0.074-4.616-0.111-8.605-0.111-11.967l4.001-0.178c-0.127,3.221-0.19,6.42-0.19,9.6c0,0.853,0.006,1.701,0.016,2.545H105.869z"/>
	<path fill="#FFFFFF" d="M116.586,60.351c3.6,0,5.399,1.862,5.399,5.586c0,0.15-0.005,0.301-0.017,0.45
		c-0.147,4.032-2.063,6.068-5.747,6.108c-0.042,0.008-0.085,0.012-0.128,0.012c-3.504,0-5.255-1.906-5.255-5.717v-0.332
		C110.945,62.386,112.861,60.351,116.586,60.351z M116.063,63.05c-0.666,0.173-1.122,0.816-1.365,1.929
		c-0.148,0.663-0.223,1.329-0.223,2.001c0,0.449,0.031,0.902,0.096,1.36c0.169,1.136,0.715,1.724,1.635,1.764h0.111
		c0.857,0,1.445-0.422,1.763-1.267c0.265-0.702,0.397-1.535,0.397-2.497c0-0.237-0.006-0.478-0.016-0.722
		c-0.086-1.271-0.34-2.064-0.763-2.38c-0.265-0.188-0.583-0.284-0.952-0.284C116.533,62.954,116.307,62.985,116.063,63.05z
		 M114.523,58.042c1.238-1.097,2.255-2.143,3.049-3.137l2.604,1.539c-1.123,0.821-2.372,1.827-3.748,3.019L114.523,58.042z"/>
	<path fill="#FFFFFF" d="M125.781,60.042l0.159,1.93c0.444-1.025,1.613-1.547,3.509-1.562h0.063c1.863,0,3.133,0.545,3.811,1.634
		c0.467,0.741,0.699,2.478,0.699,5.208c0,1.342-0.059,2.928-0.175,4.758h-3.843c0.138-2.438,0.207-4.328,0.207-5.669
		c0-0.671-0.016-1.208-0.048-1.61c-0.106-1.184-0.614-1.775-1.524-1.775s-1.482,0.316-1.715,0.947l0.158,8.581l-3.73,0.024
		c0-3.631-0.165-7.706-0.492-12.228L125.781,60.042z"/>
</g>
</svg>
