<?xml version="1.0" encoding="utf-8"?>
<!-- Generator: Adobe Illustrator 16.0.0, SVG Export Plug-In . SVG Version: 6.00 Build 0)  -->
<!DOCTYPE svg PUBLIC "-//W3C//DTD SVG 1.1//EN" "http://www.w3.org/Graphics/SVG/1.1/DTD/svg11.dtd">
<svg version="1.1" id="Capa_1" xmlns="http://www.w3.org/2000/svg" xmlns:xlink="http://www.w3.org/1999/xlink" x="0px" y="0px"
	 width="149.895px" height="116.373px" viewBox="0 0 149.895 116.373" enable-background="new 0 0 149.895 116.373"
	 xml:space="preserve">
<rect x="0" fill="#ADC710" width="149.895" height="116.373"/>
<g enable-background="new    ">
	<path fill="#FFFFFF" d="M48.51,51.32l-3.525,0.012v-0.32c0-1.854-0.699-2.781-2.096-2.781c-1.493,0-2.239,1.712-2.239,5.137
		c0,3.859,0.783,5.788,2.35,5.788h0.016c1.566-0.008,2.35-0.954,2.35-2.84v-1.172h3.938v0.888c0,3.929-2.165,5.986-6.494,6.167
		c-0.127,0.008-0.254,0.012-0.381,0.012c-4.076,0-6.113-2.92-6.113-8.759c0-5.713,2.096-8.569,6.288-8.569
		c3.949,0,5.923,1.91,5.923,5.729C48.526,50.839,48.52,51.076,48.51,51.32z"/>
	<path fill="#FFFFFF" d="M55.829,50.148c3.599,0,5.399,1.862,5.399,5.586c0,0.15-0.005,0.3-0.016,0.45
		c-0.148,4.033-2.064,6.068-5.748,6.107c-0.042,0.008-0.085,0.012-0.127,0.012c-3.504,0-5.255-1.905-5.255-5.716v-0.332
		C50.187,52.184,52.103,50.148,55.829,50.148z M55.305,52.847c-0.667,0.173-1.122,0.816-1.365,1.929
		c-0.148,0.663-0.223,1.33-0.223,2c0,0.45,0.032,0.903,0.096,1.361c0.169,1.137,0.714,1.725,1.635,1.764h0.111
		c0.857,0,1.445-0.422,1.762-1.267c0.265-0.702,0.397-1.535,0.397-2.497c0-0.237-0.005-0.478-0.016-0.722
		c-0.085-1.271-0.339-2.063-0.762-2.379c-0.265-0.189-0.583-0.284-0.953-0.284C55.777,52.752,55.549,52.784,55.305,52.847z"/>
	<path fill="#FFFFFF" d="M65.023,49.84l0.159,1.93c0.445-1.026,1.614-1.547,3.509-1.562h0.063c1.863,0,3.133,0.544,3.811,1.633
		c0.466,0.742,0.699,2.478,0.699,5.208c0,1.342-0.059,2.928-0.175,4.759h-3.843c0.138-2.439,0.207-4.329,0.207-5.67
		c0-0.671-0.016-1.208-0.047-1.61c-0.106-1.184-0.614-1.775-1.524-1.775c-0.911,0-1.482,0.315-1.715,0.947l0.159,8.581l-3.731,0.023
		c0-3.629-0.165-7.705-0.492-12.227L65.023,49.84z"/>
	<path fill="#FFFFFF" d="M77.234,46.373l3.604-0.178v3.918l3.033-0.059l0.047,2.237l-3.08,0.106v5.386
		c0,1.254,0.715,1.882,2.144,1.882c0.296,0,0.62-0.027,0.969-0.083l-0.144,2.604c-0.508,0.047-0.989,0.07-1.444,0.07
		c-3.345,0-5.05-1.286-5.112-3.859V52.61l-2.604,0.118l-0.063-2.64l2.668,0.024L77.234,46.373z"/>
	<path fill="#FFFFFF" d="M89.46,53.817l0.159,8.582l-3.891,0.023c0-3.63-0.164-7.706-0.492-12.227l2.922-0.237l0.158,1.929
		c0.445-0.947,1.482-1.487,3.112-1.622c0.243-0.016,0.477-0.023,0.698-0.023c1.281,0,2.256,0.312,2.922,0.935
		c0.773,0.742,1.164,1.921,1.176,3.539l-3.525,0.26c0.01-0.134,0.016-0.264,0.016-0.391c0-1.262-0.439-1.894-1.318-1.894h-0.062
		C90.318,52.732,89.693,53.107,89.46,53.817z"/>
	<path fill="#FFFFFF" d="M102.877,50.148c3.6,0,5.398,1.862,5.398,5.586c0,0.15-0.005,0.3-0.016,0.45
		c-0.148,4.033-2.064,6.068-5.748,6.107c-0.042,0.008-0.084,0.012-0.127,0.012c-3.504,0-5.256-1.905-5.256-5.716v-0.332
		C97.235,52.184,99.151,50.148,102.877,50.148z M102.354,52.847c-0.667,0.173-1.123,0.816-1.365,1.929
		c-0.148,0.663-0.223,1.33-0.223,2c0,0.45,0.031,0.903,0.096,1.361c0.168,1.137,0.714,1.725,1.635,1.764h0.111
		c0.857,0,1.445-0.422,1.762-1.267c0.266-0.702,0.397-1.535,0.397-2.497c0-0.237-0.005-0.478-0.016-0.722
		c-0.085-1.271-0.339-2.063-0.763-2.379c-0.264-0.189-0.582-0.284-0.952-0.284C102.824,52.752,102.597,52.784,102.354,52.847z"/>
	<path fill="#FFFFFF" d="M113.612,62.103l-3.954,0.272c0.042-2.611,0.063-5.125,0.063-7.54c0-3.393-0.042-6.593-0.127-9.599
		l3.891-0.047c-0.043,1.933-0.064,3.917-0.064,5.954C113.42,54.654,113.485,58.308,113.612,62.103z"/>
</g>
</svg>
