<?xml version="1.0" encoding="utf-8"?>
<!-- Generator: Adobe Illustrator 16.0.0, SVG Export Plug-In . SVG Version: 6.00 Build 0)  -->
<!DOCTYPE svg PUBLIC "-//W3C//DTD SVG 1.1//EN" "http://www.w3.org/Graphics/SVG/1.1/DTD/svg11.dtd">
<svg version="1.1" id="Capa_1" xmlns="http://www.w3.org/2000/svg" xmlns:xlink="http://www.w3.org/1999/xlink" x="0px" y="0px"
	 width="149.895px" height="116.373px" viewBox="0 0 149.895 116.373" enable-background="new 0 0 149.895 116.373"
	 xml:space="preserve">
<rect x="0" fill="#ADC710" width="149.895" height="116.373"/>
<g enable-background="new    ">
	<path fill="#FFFFFF" d="M25.777,66.888c0.063-2.257,0.095-4.529,0.095-6.818c0-3.503-0.074-7.042-0.222-10.617
		c1.641-0.126,3.112-0.189,4.414-0.189c3.621,0,5.928,0.493,6.923,1.479c0.931,0.923,1.397,1.941,1.397,3.054
		c0,0.505-0.09,1.026-0.27,1.562c-0.614,1.736-1.905,2.837-3.874,3.302c1.376,0.143,2.418,0.694,3.128,1.657
		c0.677,0.931,1.016,3.274,1.016,7.03v0.51l-4.795,0.047c0.053-0.994,0.08-1.886,0.08-2.675c0-2.392-0.259-3.854-0.778-4.392
		c-0.593-0.6-1.297-0.899-2.112-0.899c-0.159,0-0.323,0.012-0.493,0.036c0.064,2.406,0.201,4.687,0.413,6.841L25.777,66.888z
		 M29.842,52.21l0.111,5.066c1.969-0.071,3.218-0.568,3.747-1.491c0.286-0.489,0.429-0.967,0.429-1.432
		c0-0.403-0.106-0.797-0.317-1.184c-0.381-0.671-1.329-1.006-2.842-1.006C30.62,52.163,30.244,52.179,29.842,52.21z"/>
	<path fill="#FFFFFF" d="M44.895,54.897c3.673,0,5.51,1.819,5.51,5.457c0,0.441-0.027,0.915-0.08,1.42h-7.098
		c0,2.027,0.524,3.041,1.572,3.041h0.111c0.921-0.055,1.381-0.579,1.381-1.574c0-0.213-0.021-0.449-0.063-0.709l3.779-0.06
		c0,3.007-1.763,4.529-5.288,4.569c-0.042,0.008-0.08,0.012-0.111,0.012c-3.356,0-5.033-1.898-5.033-5.693v-0.355
		C39.681,56.933,41.454,54.897,44.895,54.897z M42.846,59.597h3.589v-0.285c0-1.436-0.545-2.153-1.636-2.153
		C43.625,57.158,42.974,57.971,42.846,59.597z"/>
	<path fill="#FFFFFF" d="M51.691,71.776c0.063-2.66,0.095-5.488,0.095-8.487c0-2.729-0.026-5.594-0.08-8.593l3.763-0.012
		l0.127,1.823c0.783-0.883,1.826-1.326,3.128-1.326c3.25,0,4.875,1.914,4.875,5.741v0.237c-0.074,3.834-1.694,5.752-4.859,5.752
		c-0.127,0-0.254-0.004-0.381-0.012c-1.08-0.039-1.953-0.478-2.62-1.314c0,1.752,0.058,3.816,0.175,6.191H51.691z M55.66,58.934
		l0.079,4.45c0.614,0.623,1.233,0.936,1.858,0.936c0.254,0,0.508-0.056,0.762-0.166c0.772-0.315,1.159-1.259,1.159-2.829
		c0-0.188-0.005-0.386-0.016-0.592c-0.106-1.925-0.619-2.939-1.54-3.042c-0.095-0.007-0.186-0.012-0.27-0.012
		C56.888,57.679,56.211,58.097,55.66,58.934z"/>
	<path fill="#FFFFFF" d="M69.078,58.566l0.159,8.581l-3.89,0.023c0-3.629-0.165-7.705-0.492-12.226l2.921-0.237l0.159,1.929
		c0.445-0.947,1.482-1.487,3.112-1.622c0.244-0.016,0.477-0.023,0.699-0.023c1.281,0,2.255,0.312,2.922,0.935
		c0.772,0.742,1.164,1.921,1.175,3.539l-3.525,0.261c0.01-0.134,0.016-0.265,0.016-0.391c0-1.262-0.439-1.894-1.318-1.894h-0.063
		C69.935,57.481,69.31,57.856,69.078,58.566z"/>
	<path fill="#FFFFFF" d="M82.067,54.897c3.673,0,5.51,1.819,5.51,5.457c0,0.441-0.027,0.915-0.08,1.42h-7.098
		c0,2.027,0.524,3.041,1.572,3.041h0.111c0.921-0.055,1.381-0.579,1.381-1.574c0-0.213-0.021-0.449-0.062-0.709l3.779-0.06
		c0,3.007-1.764,4.529-5.288,4.569c-0.042,0.008-0.079,0.012-0.111,0.012c-3.356,0-5.033-1.898-5.033-5.693v-0.355
		C76.853,56.933,78.625,54.897,82.067,54.897z M80.018,59.597h3.589v-0.285c0-1.436-0.546-2.153-1.636-2.153
		C80.796,57.158,80.145,57.971,80.018,59.597z"/>
	<path fill="#FFFFFF" d="M88.576,62.851l3.636-0.129v0.153c0,1.216,0.503,1.831,1.509,1.847h0.063c0.974,0,1.461-0.352,1.461-1.054
		v-0.083c-0.042-0.773-1.003-1.396-2.882-1.87s-3.01-1.271-3.391-2.391c-0.137-0.395-0.206-0.773-0.206-1.136
		c0-0.663,0.228-1.278,0.683-1.847c0.699-0.868,1.758-1.365,3.176-1.491c0.381-0.032,0.752-0.047,1.111-0.047
		c0.942,0,1.773,0.122,2.493,0.367c0.984,0.339,1.667,0.825,2.048,1.456c0.254,0.434,0.381,0.916,0.381,1.444
		c0,0.253-0.025,0.513-0.078,0.781l-3.398,0.059c0.031-0.196,0.047-0.378,0.047-0.544c0-0.789-0.338-1.211-1.016-1.267
		c-0.074-0.007-0.148-0.012-0.223-0.012c-0.698,0-1.17,0.265-1.413,0.793c-0.085,0.182-0.127,0.348-0.127,0.497
		c0,0.371,0.233,0.69,0.698,0.959c0.656,0.379,1.628,0.763,2.914,1.153s2.152,1.057,2.596,1.995c0.159,0.354,0.238,0.71,0.238,1.065
		c0,0.6-0.232,1.203-0.698,1.811c-0.741,0.971-1.89,1.535-3.446,1.693c-0.338,0.039-0.672,0.059-1,0.059
		c-1.164,0-2.244-0.225-3.238-0.675C89.242,65.862,88.598,64.667,88.576,62.851z"/>
	<path fill="#FFFFFF" d="M104.487,52.175c0,0.481-0.228,0.892-0.683,1.231c-0.456,0.339-1.006,0.509-1.651,0.509
		c-0.635,0-1.181-0.17-1.636-0.509c-0.455-0.339-0.683-0.75-0.683-1.231c0-0.473,0.228-0.879,0.683-1.219
		c0.455-0.339,1.001-0.509,1.636-0.509c0.646,0,1.195,0.17,1.651,0.509C104.259,51.295,104.487,51.702,104.487,52.175z
		 M100.231,67.112c-0.074-4.616-0.111-8.605-0.111-11.966l4.002-0.178c-0.127,3.22-0.19,6.419-0.19,9.599
		c0,0.853,0.005,1.701,0.016,2.545H100.231z"/>
	<path fill="#FFFFFF" d="M110.949,54.897c3.599,0,5.398,1.862,5.398,5.586c0,0.15-0.006,0.301-0.016,0.45
		c-0.148,4.032-2.064,6.068-5.748,6.108c-0.043,0.008-0.085,0.012-0.127,0.012c-3.504,0-5.256-1.906-5.256-5.717v-0.332
		C105.307,56.933,107.223,54.897,110.949,54.897z M110.425,57.596c-0.667,0.173-1.122,0.816-1.365,1.929
		c-0.148,0.663-0.223,1.329-0.223,2.001c0,0.449,0.032,0.902,0.096,1.36c0.169,1.136,0.714,1.724,1.636,1.764h0.111
		c0.857,0,1.444-0.422,1.762-1.267c0.265-0.702,0.396-1.535,0.396-2.497c0-0.237-0.005-0.478-0.016-0.722
		c-0.084-1.271-0.338-2.064-0.762-2.38c-0.265-0.189-0.582-0.284-0.953-0.284C110.897,57.501,110.668,57.533,110.425,57.596z
		 M108.885,52.589c1.238-1.097,2.255-2.143,3.049-3.137l2.604,1.539c-1.121,0.821-2.371,1.827-3.747,3.019L108.885,52.589z"/>
	<path fill="#FFFFFF" d="M120.143,54.589l0.158,1.93c0.445-1.026,1.614-1.547,3.51-1.562h0.062c1.863,0,3.134,0.544,3.812,1.633
		c0.466,0.742,0.698,2.478,0.698,5.208c0,1.342-0.059,2.928-0.174,4.758h-3.844c0.139-2.438,0.207-4.328,0.207-5.669
		c0-0.671-0.016-1.208-0.047-1.61c-0.106-1.183-0.615-1.775-1.525-1.775s-1.482,0.315-1.715,0.947l0.159,8.581l-3.731,0.024
		c0-3.631-0.164-7.706-0.492-12.228L120.143,54.589z"/>
</g>
</svg>
