<?xml version="1.0" encoding="utf-8"?>
<!-- Generator: Adobe Illustrator 16.0.0, SVG Export Plug-In . SVG Version: 6.00 Build 0)  -->
<!DOCTYPE svg PUBLIC "-//W3C//DTD SVG 1.1//EN" "http://www.w3.org/Graphics/SVG/1.1/DTD/svg11.dtd">
<svg version="1.1" id="Capa_1" xmlns="http://www.w3.org/2000/svg" xmlns:xlink="http://www.w3.org/1999/xlink" x="0px" y="0px"
	 width="23.251px" height="25.526px" viewBox="0 0 23.251 25.526" enable-background="new 0 0 23.251 25.526" xml:space="preserve">
<g>
	<path fill="#FFFFFF" d="M22.502,10.766L12.486,0.751c-1.001-1.001-2.624-1.001-3.625,0s-1.001,2.624,0,3.625l8.387,8.387
		L8.861,21.15c-1.001,1.001-1.001,2.625,0,3.625c0.5,0.5,1.156,0.75,1.812,0.75s1.312-0.25,1.812-0.75l10.016-10.016
		c0.547-0.547,0.793-1.281,0.742-1.997C23.295,12.047,23.049,11.313,22.502,10.766z"/>
	<path fill="#FFFFFF" d="M11.271,12.763c0-0.656-0.25-1.312-0.751-1.812L4.376,4.806c-1.001-1-2.624-1-3.625,0.001
		c-1.001,1-1.001,2.624,0,3.625l4.331,4.331l-4.331,4.332c-1.001,1.002-1.001,2.625,0,3.625c0.501,0.5,1.155,0.75,1.812,0.75
		c0.655,0,1.312-0.25,1.812-0.75l6.145-6.145C11.021,14.075,11.271,13.419,11.271,12.763z"/>
</g>
</svg>
