<?xml version="1.0" encoding="utf-8"?>
<!-- Generator: Adobe Illustrator 16.0.0, SVG Export Plug-In . SVG Version: 6.00 Build 0)  -->
<!DOCTYPE svg PUBLIC "-//W3C//DTD SVG 1.1//EN" "http://www.w3.org/Graphics/SVG/1.1/DTD/svg11.dtd">
<svg version="1.1" id="Capa_1" xmlns="http://www.w3.org/2000/svg" xmlns:xlink="http://www.w3.org/1999/xlink" x="0px" y="0px"
	 width="23.251px" height="25.525px" viewBox="0 0 23.251 25.525" enable-background="new 0 0 23.251 25.525" xml:space="preserve">
<g>
	<path fill="#FFFFFF" d="M0.749,10.766L10.765,0.75c1.002-1.001,2.625-1.001,3.625,0c1.002,1.001,1.002,2.624,0,3.625l-8.387,8.387
		l8.387,8.387c1.002,1.001,1.002,2.625,0,3.625c-0.5,0.5-1.156,0.75-1.812,0.75s-1.312-0.25-1.812-0.75L0.749,14.759
		c-0.547-0.547-0.793-1.281-0.742-1.997C-0.044,12.046,0.202,11.313,0.749,10.766z"/>
	<path fill="#FFFFFF" d="M11.98,12.762c0-0.656,0.25-1.312,0.751-1.812l6.145-6.145c1.001-1,2.623-1,3.625,0.001
		c1,1,1,2.624,0,3.625l-4.332,4.331l4.332,4.332c1,1.002,1,2.625,0,3.625c-0.501,0.5-1.156,0.75-1.812,0.75s-1.312-0.25-1.812-0.75
		l-6.145-6.145C12.23,14.075,11.98,13.418,11.98,12.762z"/>
</g>
</svg>
