<?xml version="1.0" encoding="utf-8"?>
<!-- Generator: Adobe Illustrator 16.0.0, SVG Export Plug-In . SVG Version: 6.00 Build 0)  -->
<!DOCTYPE svg PUBLIC "-//W3C//DTD SVG 1.1//EN" "http://www.w3.org/Graphics/SVG/1.1/DTD/svg11.dtd">
<svg version="1.1" id="Capa_1" xmlns="http://www.w3.org/2000/svg" xmlns:xlink="http://www.w3.org/1999/xlink" x="0px" y="0px"
	 width="23.25px" height="25.527px" viewBox="0 0 23.25 25.527" enable-background="new 0 0 23.25 25.527" xml:space="preserve">
<g>
	<path fill="#321A42" d="M22.502,10.766L12.485,0.751c-1-1.001-2.624-1.001-3.625,0s-1.001,2.624,0,3.625l8.388,8.387L8.86,21.15
		c-1.001,1.002-1.001,2.625,0,3.625c0.5,0.5,1.156,0.752,1.812,0.752c0.656,0,1.313-0.252,1.813-0.752L22.5,14.76
		c0.547-0.547,0.793-1.281,0.742-1.997C23.295,12.047,23.047,11.313,22.502,10.766z"/>
	<path fill="#321A42" d="M11.271,12.763c0-0.656-0.25-1.312-0.75-1.812L4.375,4.806c-1-1-2.623-1-3.625,0.001
		c-1,1.001-1,2.624,0,3.625l4.332,4.331L0.75,17.096c-1,1.002-1,2.623,0,3.625c0.5,0.5,1.156,0.75,1.812,0.75s1.312-0.25,1.812-0.75
		l6.145-6.146C11.021,14.075,11.271,13.419,11.271,12.763z"/>
</g>
</svg>
