<?xml version="1.0" encoding="utf-8"?>
<!-- Generator: Adobe Illustrator 16.0.0, SVG Export Plug-In . SVG Version: 6.00 Build 0)  -->
<!DOCTYPE svg PUBLIC "-//W3C//DTD SVG 1.1//EN" "http://www.w3.org/Graphics/SVG/1.1/DTD/svg11.dtd">
<svg version="1.1" id="Capa_1" xmlns="http://www.w3.org/2000/svg" xmlns:xlink="http://www.w3.org/1999/xlink" x="0px" y="0px"
	 width="45.789px" height="43.691px" viewBox="0 0 45.789 43.691" enable-background="new 0 0 45.789 43.691" xml:space="preserve">
<g>
	<path fill="#BCB7BB" d="M8.795,10.161c0.109,0.459,0.266,0.919,0.484,1.33c0.399,0.738,0.858,1.428,1.294,2.142
		c3.314,5.396,6.617,10.791,9.932,16.187c0.521,0.848,1.064,1.682,1.609,2.54c-0.387,0.254-0.762,0.483-1.161,0.738
		c-1.5-2.371-2.988-4.719-4.488-7.09c-0.75,0.738-1.392,1.488-1.912,2.348c-0.497,0.811-0.823,1.692-0.847,2.638
		c-0.024,1.608,0.69,2.927,1.766,4.053c1.029,1.088,2.287,1.863,3.653,2.443c1.767,0.726,3.569,1.392,5.359,2.045
		c1.416,0.508,2.782,1.076,4.004,1.983c0.907,0.688,1.84,1.354,2.746,2.045c0.229,0.169,0.362,0.169,0.592,0.022
		c3.557-2.165,7.125-4.318,10.694-6.483c1.076-0.653,2.153-1.308,3.267-1.973c-0.037-0.107-0.061-0.181-0.084-0.254
		c-0.763-1.887-1.5-3.786-2.263-5.661c-1.101-2.686-2.214-5.347-3.338-8.021c-0.545-1.295-1.125-2.589-1.912-3.763
		c-1.258-1.936-2.565-3.847-3.847-5.771c-0.483-0.738-1.102-0.907-1.887-0.484c-0.484,0.267-0.943,0.594-1.416,0.896
		c-0.133,0.097-0.267,0.206-0.412,0.313c1.367,2.25,2.723,4.477,4.078,6.728c-0.412,0.241-0.787,0.472-1.174,0.7
		c-0.037-0.072-0.061-0.108-0.084-0.145c-1.355-2.238-2.711-4.465-4.066-6.689c-0.459-0.738-1.147-1.149-1.995-1.102
		c-1.089,0.048-1.863,0.689-2.492,1.523c-0.036,0.061-0.024,0.193,0.013,0.268c0.096,0.217,0.241,0.411,0.362,0.616
		c0.944,1.572,1.899,3.133,2.843,4.693c0.314,0.508,0.617,1.017,0.932,1.536c-0.412,0.241-0.787,0.473-1.174,0.715
		c-0.447-0.728-0.871-1.43-1.293-2.117c-1.102-1.827-2.215-3.654-3.314-5.48c-0.387-0.63-1.198-1.041-1.887-0.869
		c-1.174,0.288-2.093,1.016-2.927,1.86v0.037c1.802,2.987,3.617,5.978,5.431,8.976c-0.399,0.255-0.786,0.484-1.173,0.715
		c-0.061-0.097-0.109-0.169-0.158-0.241c-2.625-4.344-5.25-8.674-7.875-13.005c-0.472-0.774-0.932-1.562-1.439-2.299
		c-0.339-0.509-0.811-0.896-1.404-1.054c-1.004-0.266-1.826,0.134-2.54,0.787C8.807,8.963,8.638,9.544,8.795,10.161z"/>
	<path fill="#BCB7BB" d="M22.037,8.459c0.006,0.723-0.094,1.461-0.466,2.14c-0.194,0.355-0.486,0.467-0.964,0.38
		c-0.352-0.065-0.54-0.265-0.564-0.673c-0.016-0.243,0.021-0.493,0.066-0.734c0.604-3.312-1.088-6.303-4.38-7.466
		c-0.232-0.082-0.472-0.146-0.701-0.239c-0.43-0.171-0.711-0.622-0.662-1.033c0.05-0.406,0.414-0.774,0.84-0.826
		c0.132-0.017,0.278,0.003,0.405,0.042c2.821,0.87,4.791,2.674,5.888,5.417C21.841,6.314,21.997,7.224,22.037,8.459z"/>
	<path fill="#BCB7BB" d="M0,11.734c0.006-0.934,0.108-1.661,0.484-2.327c0.195-0.348,0.479-0.451,0.97-0.351
		C1.8,9.126,1.987,9.312,1.984,9.714c-0.001,0.419-0.083,0.836-0.121,1.253c-0.236,2.568,0.644,4.631,2.783,6.119
		c0.661,0.46,1.386,0.778,2.158,0.995c0.337,0.094,0.628,0.252,0.771,0.602c0.142,0.348,0.143,0.676-0.11,0.98
		c-0.267,0.322-0.612,0.44-1.008,0.324c-3.705-1.081-5.908-4.084-6.353-7.177C0.045,12.395,0.022,11.974,0,11.734z"/>
	<path fill="#BCB7BB" d="M3.743,10.846c0.074-0.303,0.118-0.721,0.278-1.09c0.25-0.582,0.853-0.677,1.333-0.265
		c0.221,0.19,0.237,0.446,0.239,0.703c0.002,0.19-0.025,0.384-0.054,0.574c-0.27,1.803,0.811,3.461,2.561,3.96
		c0.271,0.076,0.564,0.202,0.753,0.396c0.232,0.238,0.248,0.584,0.07,0.896c-0.189,0.329-0.49,0.466-0.854,0.438
		c-0.198-0.014-0.401-0.058-0.587-0.13c-1.934-0.752-3.194-2.09-3.567-4.176C3.844,11.759,3.809,11.358,3.743,10.846z"/>
	<path fill="#BCB7BB" d="M18.322,9.068c-0.088,0.389-0.131,0.797-0.278,1.162c-0.245,0.608-0.874,0.744-1.334,0.302
		c-0.141-0.137-0.223-0.377-0.246-0.579c-0.028-0.26,0.015-0.53,0.053-0.792c0.237-1.626-0.844-3.438-2.533-3.844
		c-0.133-0.033-0.266-0.074-0.393-0.122c-0.429-0.161-0.629-0.502-0.56-0.948c0.055-0.366,0.411-0.705,0.819-0.674
		c0.365,0.029,0.743,0.123,1.078,0.273C17.173,4.85,18.175,6.662,18.322,9.068z"/>
</g>
</svg>
