<?xml version="1.0" encoding="utf-8"?>
<!-- Generator: Adobe Illustrator 16.0.0, SVG Export Plug-In . SVG Version: 6.00 Build 0)  -->
<!DOCTYPE svg PUBLIC "-//W3C//DTD SVG 1.1//EN" "http://www.w3.org/Graphics/SVG/1.1/DTD/svg11.dtd">
<svg version="1.1" id="Capa_1" xmlns="http://www.w3.org/2000/svg" xmlns:xlink="http://www.w3.org/1999/xlink" x="0px" y="0px"
	 width="294.753px" height="141.346px" viewBox="0 0 294.753 141.346" enable-background="new 0 0 294.753 141.346"
	 xml:space="preserve">
<g>
	<path fill="#FFFFFF" d="M287.05,84.609c3.885-5.917,3.658-9.697-0.848-16.336c-0.998,2.297-2.056,4.516-2.927,6.872
		c-0.243,0.663-0.161,1.933,0.142,2.572C284.511,80.037,285.764,82.207,287.05,84.609z"/>
	<path fill="#FFFFFF" d="M281.498,78.734c-1.129,1.723-2.177,3.169-3.072,4.784c-0.245,0.443-0.202,1.513-0.002,2.093
		c0.839,2.426,1.787,4.776,2.824,7.488c1.385-1.83,2.707-3.488,3.933-5.279c0.243-0.356,0.319-1.424,0.125-1.821
		C284.121,83.574,282.833,81.247,281.498,78.734z"/>
	<path fill="#FFFFFF" d="M275.315,99.468c1.574-1.66,2.897-3.059,4.371-4.613c-1.078-2.858-2.115-5.607-3.229-8.562
		c-1.092,1.16-2.123,2.07-2.976,3.244c-0.347,0.479-0.554,1.646-0.396,2.287C273.695,94.285,274.478,96.66,275.315,99.468z"/>
	<path fill="#FFFFFF" d="M291.259,73.48c1.756-8.253,2.125-7.451-2.652-14.222c-0.451,1.755-0.936,3.381-1.259,5.066
		c-0.108,0.555,0.09,1.373,0.336,1.895C288.815,68.624,290.011,70.966,291.259,73.48z"/>
	<path fill="#FFFFFF" d="M292.728,60.873c0.568-4.479,0.232-8.381-2.854-10.862C288.677,55.113,289.119,56.819,292.728,60.873z"/>
	<path fill="#FFFFFF" d="M292.373,48.912c-0.285-6.254-0.437-6.694-2.549-7.496C289.304,45.318,289.681,46.429,292.373,48.912z"/>
	<path fill="#FFFFFF" d="M285.166,22.736c1.057,2.993,2.111,5.987,3.168,8.979c0.263-0.205,0.525-0.409,0.789-0.615
		c-1.17-2.907-2.338-5.815-3.508-8.725C285.466,22.496,285.315,22.617,285.166,22.736z"/>
	<path fill="#FFFFFF" d="M288.427,34.94c0.588,1.331,1.178,2.663,1.769,3.995c0.192-0.17,0.386-0.342,0.579-0.511
		c-0.266-1.641-0.053-3.682-1.813-4.065C288.783,34.552,288.604,34.747,288.427,34.94z"/>
	<path fill="#331842" d="M104.922,140.67c-1.096,1.155-1.913,0.832-2.039-1.015c-0.252-3.69-1.457-7.026-1.334-10.956
		c0.142-4.555-0.701-9.164-1.062-13.758c-0.191-2.445-0.865-3.363-2.797-3.377c-8.999-0.065-17.801-1.922-25.759-8.297
		c-8.866-7.102-14.746-17.462-15.628-32.261c-0.702-11.791,3.189-20.998,9.188-28.623c6.725-8.549,14.945-12.616,23.63-14.602
		c20.098-4.594,40.233-8.887,60.376-13.078c18.625-3.875,37.271-7.584,55.931-11.13c16.034-3.048,32.127-4.362,48.331-3.095
		c9.867,0.771,18.793,4.932,27.093,12.272c7.587,6.709,10.812,17.5,12.817,28.941c1.104,6.307,1.115,13.113,1.067,19.687
		c-0.084,11.524-2.93,21.542-9,29.61c-10.888,14.469-23.743,23.22-38.407,26.6c-18.168,4.188-36.524,5.331-54.883,6.125
		c-7.295,0.316-14.604,0.045-21.904-0.098c-4.873-0.096-9.744-0.333-14.608-0.69c-4.793-0.354-9.587-0.796-14.362-1.461
		c-4.733-0.659-9.487-0.785-14.224-1.431c-3.62-0.492-7.302-0.11-10.955-0.09c-0.37,0.002-0.75,0.15-1.106,0.313
		c-0.786,0.359-1.561,0.771-2.339,1.162c-0.896,0.868-0.797,1.9,0.175,2.981c0.448,0.501,0.624,1.491,0.924,2.261
		c-0.583,0.264-1.167,0.527-2.057,0.929C110.72,132.828,108.232,137.18,104.922,140.67z M283.675,30.557
		c-6.854-16.619-16.949-25.389-30.586-25.916c0.246-0.199,0.483-0.433,0.746-0.589c0.25-0.149,0.523-0.222,0.787-0.327
		c-0.019-0.257-0.033-0.513-0.052-0.77c-7.604,0-15.221-0.346-22.815,0.067c-20.271,1.102-40.262,5.847-60.297,9.934
		c-19.967,4.072-39.93,8.188-59.871,12.486c-9.171,1.977-18.343,4.08-27.414,6.796c-6.895,2.065-13.207,6.343-18.38,13.437
		c-9.986,13.701-10.228,32.423-0.692,46.757c6.099,9.168,13.794,13.698,22.376,15.299c4.871,0.907,9.834,0.917,14.76,1.135
		c1.329,0.057,1.991,0.545,2.254,2.419c0.447,3.188,1.017,6.337,1.824,9.561c0.277-3.273,0.605-6.54,0.812-9.822
		c0.123-1.979,0.646-2.775,2.147-2.746c1.476,0.027,3.198,1.016,4.396-1.293c0.092-0.183,0.722-0.128,0.847,0.098
		c1.016,1.84,2.431,1.273,3.72,1.286c3.978,0.036,7.955,0.036,11.93-0.053c0.774-0.018,1.544-0.502,2.317-0.759
		c0.299-0.101,0.654-0.353,0.897-0.218c3.148,1.74,6.274,0.952,9.477,0.252c1.821-0.397,3.752,0.349,5.633,0.343
		c4.553-0.017,9.105-0.146,13.66-0.273c3.396-0.094,6.795-0.201,10.188-0.428c0.662-0.044,1.305-0.664,1.871-0.604
		c2.547,0.095,5.1,0.405,7.637,0.248c11.462-0.717,22.93-1.36,34.378-2.425c10.546-0.98,21.073-2.411,31.603-3.769
		c2.061-0.267,4.25-0.613,6.076-1.836c1.605-1.076,3.001-1.837,4.84-2.012c1.756-0.168,3.975-0.664,4.934-3.72
		c0.072-0.23,0.472-0.447,0.667-0.379c2.497,0.871,3.905-1.834,5.659-3.394c0.898-0.797,1.863-1.473,2.688-2.397
		c8.556-9.611,13.935-21.762,15.062-37.42c1.531-21.33-9.767-41.713-24.838-44.615c-0.182-0.035-0.373,0.035-0.92,0.095
		C273.289,10.251,282.387,20.84,283.675,30.557z M205.964,108.977c-0.17-0.443-0.682-0.899-1.025-0.887
		c-2.799,0.114-5.594,0.337-8.84,0.559c2.006,4.049,3.803,7.707,5.639,11.327c0.145,0.286,0.551,0.426,0.836,0.43
		c2.354,0.033,4.709,0.019,7.063,0.019c0.087-0.311,0.173-0.622,0.26-0.933C208.593,115.98,207.312,112.453,205.964,108.977z
		 M186.218,110.541c-0.242-0.53-0.785-1.088-1.199-1.104c-2.475-0.104-4.951-0.052-8.092-0.052c2.305,4.206,4.24,7.781,6.225,11.306
		c0.199,0.352,0.678,0.535,1.027,0.543c2.076,0.051,4.152,0.024,6.754,0.024C189.104,117.072,187.695,113.773,186.218,110.541z
		 M211.925,118.851c0.205,0.513,0.934,0.876,1.408,0.853c1.776-0.085,3.549-0.358,5.592-0.595c-0.883-4.143-2.021-7.87-4.051-10.932
		c-0.334-0.502-1.008-0.795-1.517-0.771c-1.765,0.071-3.524,0.323-5.539,0.534C209.235,111.748,210.527,115.343,211.925,118.851z
		 M224.802,106.582c-2.338,0.178-4.856,0.368-7.415,0.563c1.192,3.782,2.265,7.338,3.454,10.812c0.166,0.48,0.924,0.814,1.394,0.785
		c1.913-0.119,3.821-0.406,5.882-0.649C226.981,114.154,225.951,110.568,224.802,106.582z M192.353,119.662
		c0.314,0.685,1.102,1.282,1.684,1.304c1.709,0.063,3.424-0.184,5.576-0.341c-1.193-2.438-2.467-4.372-3.189-6.656
		c-1.728-5.449-4.731-5.771-8.492-4.581C189.438,112.932,190.832,116.355,192.353,119.662z M173.927,120.9c1.855,0,4.205,0,6.896,0
		c-1.902-3.555-3.609-6.887-5.449-10.067c-0.373-0.646-1.237-0.992-1.881-1.005c-1.723-0.032-3.445,0.189-5.647,0.344
		C169.94,113.869,171.817,117.18,173.927,120.9z M230.021,116.648c0.18,0.517,0.893,0.94,1.354,0.93
		c1.271-0.029,2.535-0.312,4.153-0.547c-0.403-3.819-0.791-7.492-1.204-11.398c-2.56,0.257-4.826,0.482-7.599,0.761
		C227.91,110.137,228.905,113.434,230.021,116.648z M264.421,97.027c-2.023,1.065-3.976,2.095-6.149,3.242
		c0.952,3.036,1.894,6.041,2.933,9.358c2.221-1.358,4.414-2.702,6.789-4.155C266.757,102.55,265.619,99.857,264.421,97.027z
		 M243.321,115.713c-0.299-3.346-0.526-6.482-0.901-9.584c-0.069-0.567-0.746-1.428-1.119-1.405
		c-1.639,0.09-3.271,0.457-4.959,0.731c0.367,3.756,0.716,7.304,1.103,11.26C239.437,116.375,241.321,116.055,243.321,115.713z
		 M245.287,115.228c2.166-0.546,4.075-1.027,6.229-1.571c-0.522-3.635-1.011-7.02-1.526-10.609c-1.85,0.392-3.587,0.759-5.73,1.211
		C244.606,107.98,244.929,111.418,245.287,115.228z M286.203,68.273c-0.998,2.297-2.056,4.516-2.927,6.872
		c-0.243,0.663-0.161,1.933,0.142,2.572c1.094,2.318,2.347,4.488,3.633,6.892C290.935,78.692,290.708,74.912,286.203,68.273z
		 M151.912,110.871c-2.125,0-4.202,0-6.411,0c1.047,2.798,1.961,5.361,2.975,7.842c0.199,0.49,0.771,0.922,1.186,0.945
		c1.774,0.104,3.553,0.045,5.438,0.045C153.994,116.645,152.929,113.691,151.912,110.871z M278.425,83.519
		c-0.245,0.443-0.202,1.513-0.002,2.093c0.839,2.426,1.787,4.776,2.824,7.488c1.385-1.83,2.707-3.488,3.933-5.279
		c0.243-0.356,0.319-1.424,0.125-1.821c-1.185-2.425-2.472-4.752-3.808-7.265C280.369,80.457,279.321,81.903,278.425,83.519z
		 M259.376,110.55c-0.832-2.64-1.656-4.979-2.306-7.412c-0.495-1.853-1.245-2.234-2.485-1.594c-0.769,0.396-1.59,0.585-2.648,0.958
		c0.479,3.396,0.943,6.707,1.479,10.514C255.55,112.133,257.421,111.358,259.376,110.55z M164.664,119.566
		c0.239,0.612,0.95,1.145,1.469,1.192c1.65,0.149,3.313,0.056,5.356,0.056c-0.991-1.646-1.837-3.014-2.653-4.41
		c-0.53-0.904-1.162-1.76-1.508-2.797c-1.228-3.685-3.259-3.997-5.836-2.896C162.578,113.794,163.554,116.734,164.664,119.566z
		 M136.453,111.135c1.258,6.255,3.957,8.474,9.82,7.95C144.017,110.959,143.209,110.32,136.453,111.135z M157.419,119.295
		c0.295,0.631,1.146,0.93,1.771,1.023c1.065,0.162,2.153,0.045,3.576,0.045c-1.196-3.213-2.274-6.236-3.464-9.172
		c-0.18-0.441-0.863-0.623-1.324-0.658c-1.208-0.09-2.422-0.029-4.214-0.029C155.15,113.898,156.199,116.678,157.419,119.295z
		 M271.011,92.009c-1.629,1.305-3.106,2.487-4.816,3.855c1.17,2.745,2.307,5.404,3.514,8.234c1.319-1.068,2.574-2.082,3.935-3.184
		C272.755,97.913,271.904,95.033,271.011,92.009z M279.687,94.854c-1.078-2.858-2.115-5.607-3.229-8.562
		c-1.094,1.16-2.123,2.07-2.977,3.244c-0.348,0.479-0.553,1.646-0.395,2.287c0.607,2.461,1.391,4.836,2.229,7.644
		C276.89,97.807,278.214,96.409,279.687,94.854z M136.554,117.951c-1.076-6.009-2.985-7.277-10.318-6.787
		C128.322,117.688,132.29,118.354,136.554,117.951z M288.606,59.26c-0.451,1.755-0.937,3.381-1.259,5.066
		c-0.108,0.555,0.09,1.373,0.336,1.896c1.132,2.402,2.326,4.744,3.574,7.26C293.015,65.228,293.384,66.029,288.606,59.26z
		 M116.936,111.441c1.104,1.77,2.156,3.455,3.446,5.524c1.792,0,4.012,0,6.425,0C124.413,111.85,121.249,110.045,116.936,111.441z
		 M108.677,131.51c-0.691-0.593-1.223-1.05-1.56-1.34c-0.664,0.796-1.188,1.426-1.712,2.054c-0.284-0.897-0.72-1.762-0.829-2.7
		c-0.626-5.429-1.169-10.877-1.761-16.314c-0.054-0.487-0.249-0.944-0.749-1.298c0.233,1.843,0.525,3.678,0.686,5.534
		c0.364,4.219,0.542,8.479,1.038,12.662c0.235,1.981,1.031,3.83,1.573,5.739c0.255-0.039,0.51-0.077,0.765-0.115
		C106.946,134.376,107.766,133.021,108.677,131.51z M111.727,114.346c2.302,3.438,2.266,3.483,5.685,2.571
		c-2.456-5.66-6.428-7.951-8.146-5.147C110.092,112.617,111.036,113.312,111.727,114.346z M289.875,50.01
		c-1.197,5.104-0.756,6.81,2.854,10.862C293.296,56.393,292.96,52.492,289.875,50.01z M289.824,41.416
		c-0.521,3.902-0.144,5.014,2.549,7.496C292.087,42.658,291.937,42.218,289.824,41.416z M108.277,122.572
		c-1.407,3.813-1.3,4.4,1.25,6.157C110.665,125.025,110.613,124.789,108.277,122.572z M111.657,118.361
		c-0.821-1.305-1.611-2.563-2.438-3.875c-1.027,3.602-1.004,3.742,1.141,6.538C110.849,120.023,111.233,119.23,111.657,118.361z
		 M288.333,31.717c0.263-0.204,0.525-0.409,0.789-0.615c-1.17-2.907-2.338-5.815-3.508-8.725c-0.148,0.119-0.3,0.24-0.449,0.359
		C286.222,25.729,287.277,28.724,288.333,31.717z M290.195,38.936c0.192-0.17,0.387-0.342,0.579-0.511
		c-0.265-1.641-0.053-3.682-1.813-4.065c-0.178,0.192-0.355,0.388-0.533,0.581C289.015,36.271,289.604,37.604,290.195,38.936z"/>
	<path fill="#FFFFFF" d="M262.916,4.91c15.07,2.902,26.369,23.285,24.838,44.615c-1.127,15.658-6.506,27.809-15.063,37.42
		c-0.824,0.926-1.79,1.602-2.688,2.397c-1.756,1.56-3.164,4.265-5.66,3.394c-0.195-0.068-0.596,0.147-0.668,0.379
		c-0.959,3.056-3.176,3.552-4.932,3.72c-1.84,0.175-3.234,0.936-4.841,2.012c-1.825,1.223-4.017,1.569-6.077,1.836
		c-10.527,1.356-21.056,2.786-31.602,3.769c-11.448,1.063-22.916,1.708-34.378,2.425c-2.537,0.157-5.091-0.153-7.636-0.248
		c-0.567-0.061-1.211,0.561-1.871,0.604c-3.395,0.227-6.793,0.334-10.188,0.428c-4.555,0.127-9.106,0.258-13.659,0.273
		c-1.882,0.006-3.813-0.74-5.634-0.343c-3.202,0.7-6.328,1.488-9.477-0.252c-0.243-0.135-0.599,0.117-0.897,0.218
		c-0.773,0.257-1.543,0.741-2.317,0.759c-3.975,0.089-7.952,0.089-11.93,0.053c-1.289-0.013-2.704,0.554-3.72-1.286
		c-0.125-0.226-0.755-0.278-0.847-0.098c-1.197,2.309-2.92,1.32-4.396,1.293c-1.502-0.029-2.024,0.768-2.147,2.746
		c-0.207,3.282-0.535,6.549-0.812,9.822c-0.808-3.224-1.377-6.373-1.824-9.561c-0.263-1.874-0.925-2.362-2.254-2.419
		c-4.926-0.218-9.889-0.228-14.76-1.135c-8.582-1.601-16.277-6.131-22.376-15.299c-9.535-14.334-9.294-33.056,0.692-46.757
		c5.173-7.094,11.485-11.37,18.38-13.437c9.071-2.716,18.243-4.819,27.414-6.796c19.941-4.299,39.905-8.414,59.87-12.486
		c20.035-4.087,40.025-8.832,60.297-9.934c7.597-0.413,15.211-0.067,22.816-0.067c0.018,0.257,0.033,0.513,0.051,0.77
		c-0.263,0.105-0.537,0.178-0.787,0.327c-0.262,0.156-0.498,0.39-0.746,0.589c13.638,0.527,23.732,9.297,30.586,25.916
		c-1.287-9.718-10.387-20.307-21.68-25.553C262.542,4.945,262.733,4.875,262.916,4.91z M59.948,72.711
		c-0.99-8.367,0.782-15.395,5.398-21.109c-0.246-0.229-0.493-0.459-0.74-0.688c-0.968,1.387-2.107,2.605-2.876,4.187
		c-3.872,7.967-4.004,16.555-1.132,24.97c1.499,4.396,3.955,8.14,6.019,12.138c0.254,0.493,0.753,0.734,1.136,1.092
		c0.16-0.208,0.321-0.416,0.48-0.626C64.304,86.957,60.908,80.832,59.948,72.711z M251.188,4.873c-0.87-1.313-4.085-1.629-6.278,0
		C246.987,4.873,249.066,4.873,251.188,4.873z"/>
	<path fill="#FFFFFF" d="M209.896,119.491c-1.303-3.511-2.584-7.038-3.932-10.515c-0.17-0.443-0.682-0.899-1.025-0.887
		c-2.799,0.114-5.594,0.337-8.84,0.559c2.006,4.049,3.803,7.707,5.639,11.327c0.145,0.285,0.551,0.426,0.836,0.43
		c2.354,0.033,4.709,0.019,7.063,0.019C209.723,120.113,209.809,119.802,209.896,119.491z"/>
	<path fill="#FFFFFF" d="M190.933,121.258c-1.829-4.186-3.237-7.483-4.715-10.717c-0.242-0.53-0.785-1.088-1.199-1.104
		c-2.475-0.104-4.951-0.052-8.092-0.052c2.305,4.206,4.24,7.781,6.225,11.306c0.199,0.352,0.678,0.535,1.027,0.543
		C186.255,121.283,188.332,121.258,190.933,121.258z"/>
	<path fill="#FFFFFF" d="M207.819,107.939c1.416,3.809,2.708,7.402,4.106,10.911c0.205,0.513,0.933,0.876,1.408,0.853
		c1.775-0.085,3.547-0.359,5.59-0.595c-0.883-4.143-2.02-7.87-4.051-10.932c-0.332-0.502-1.006-0.795-1.516-0.771
		C211.595,107.477,209.833,107.729,207.819,107.939z"/>
	<path fill="#FFFFFF" d="M228.115,118.093c-1.134-3.938-2.164-7.523-3.313-11.511c-2.338,0.178-4.856,0.368-7.415,0.563
		c1.192,3.782,2.265,7.338,3.454,10.812c0.166,0.48,0.924,0.814,1.394,0.785C224.147,118.623,226.056,118.336,228.115,118.093z"/>
	<path fill="#FFFFFF" d="M187.93,109.387c1.509,3.545,2.901,6.969,4.423,10.274c0.314,0.685,1.102,1.282,1.684,1.304
		c1.709,0.063,3.424-0.184,5.576-0.341c-1.193-2.438-2.467-4.372-3.189-6.656C194.695,108.519,191.69,108.197,187.93,109.387z"/>
	<path fill="#FFFFFF" d="M167.845,110.172c2.096,3.697,3.973,7.009,6.082,10.729c1.855,0,4.205,0,6.896,0
		c-1.902-3.555-3.609-6.887-5.449-10.067c-0.373-0.646-1.237-0.992-1.881-1.005C171.771,109.796,170.046,110.018,167.845,110.172z"
		/>
	<path fill="#FFFFFF" d="M226.726,106.393c1.186,3.744,2.18,7.041,3.295,10.256c0.18,0.517,0.893,0.94,1.354,0.93
		c1.271-0.029,2.535-0.312,4.153-0.547c-0.403-3.819-0.791-7.492-1.204-11.398C231.765,105.889,229.498,106.115,226.726,106.393z"/>
	<path fill="#FFFFFF" d="M267.994,105.473c-1.236-2.924-2.375-5.615-3.572-8.445c-2.023,1.065-3.976,2.095-6.149,3.242
		c0.952,3.036,1.894,6.041,2.933,9.358C263.425,108.27,265.619,106.927,267.994,105.473z"/>
	<path fill="#FFFFFF" d="M237.443,116.715c1.993-0.34,3.878-0.659,5.878-1.002c-0.299-3.346-0.526-6.482-0.901-9.584
		c-0.069-0.567-0.746-1.428-1.119-1.405c-1.639,0.09-3.271,0.457-4.959,0.731C236.708,109.211,237.057,112.759,237.443,116.715z"/>
	<path fill="#FFFFFF" d="M244.259,104.258c0.348,3.724,0.67,7.16,1.027,10.971c2.166-0.546,4.075-1.027,6.229-1.571
		c-0.522-3.635-1.011-7.02-1.526-10.609C248.141,103.438,246.403,103.805,244.259,104.258z"/>
	<path fill="#FFFFFF" d="M155.098,119.703c-1.104-3.059-2.169-6.012-3.187-8.832c-2.125,0-4.202,0-6.411,0
		c1.047,2.798,1.961,5.361,2.975,7.842c0.199,0.49,0.771,0.922,1.186,0.945C151.436,119.762,153.214,119.703,155.098,119.703z"/>
	<path fill="#FFFFFF" d="M253.416,113.015c2.135-0.883,4.006-1.656,5.961-2.466c-0.832-2.64-1.656-4.979-2.306-7.412
		c-0.495-1.853-1.245-2.234-2.485-1.594c-0.769,0.396-1.59,0.585-2.648,0.958C252.416,105.898,252.88,109.209,253.416,113.015z"/>
	<path fill="#FFFFFF" d="M161.492,110.711c1.086,3.083,2.062,6.023,3.172,8.855c0.239,0.611,0.95,1.145,1.469,1.192
		c1.65,0.149,3.313,0.056,5.356,0.056c-0.991-1.646-1.837-3.014-2.653-4.41c-0.53-0.904-1.162-1.76-1.508-2.797
		C166.101,109.924,164.069,109.61,161.492,110.711z"/>
	<path fill="#FFFFFF" d="M146.273,119.085c-2.257-8.126-3.064-8.765-9.82-7.95C137.711,117.389,140.41,119.607,146.273,119.085z"/>
	<path fill="#FFFFFF" d="M153.764,110.504c1.387,3.396,2.435,6.174,3.655,8.791c0.295,0.631,1.146,0.93,1.771,1.023
		c1.065,0.162,2.153,0.045,3.576,0.045c-1.196-3.213-2.274-6.236-3.464-9.172c-0.18-0.441-0.863-0.623-1.324-0.658
		C156.77,110.443,155.556,110.504,153.764,110.504z"/>
	<path fill="#FFFFFF" d="M273.642,100.916c-0.887-3.003-1.737-5.883-2.631-8.907c-1.629,1.305-3.106,2.487-4.816,3.855
		c1.17,2.745,2.307,5.404,3.514,8.234C271.027,103.03,272.281,102.017,273.642,100.916z"/>
	<path fill="#FFFFFF" d="M126.235,111.164c2.087,6.524,6.055,7.189,10.318,6.787C135.478,111.942,133.568,110.674,126.235,111.164z"
		/>
	<path fill="#FFFFFF" d="M126.807,116.967c-2.394-5.116-5.558-6.922-9.871-5.524c1.104,1.77,2.156,3.455,3.446,5.524
		C122.174,116.967,124.394,116.967,126.807,116.967z"/>
	<path fill="#FFFFFF" d="M106.128,135.731c0.818-1.355,1.638-2.711,2.549-4.222c-0.691-0.593-1.223-1.05-1.56-1.34
		c-0.664,0.796-1.188,1.426-1.712,2.054c-0.284-0.897-0.72-1.762-0.829-2.7c-0.626-5.43-1.169-10.877-1.761-16.314
		c-0.054-0.487-0.249-0.944-0.749-1.298c0.233,1.843,0.525,3.678,0.686,5.534c0.364,4.219,0.542,8.479,1.038,12.662
		c0.235,1.981,1.031,3.83,1.573,5.739C105.618,135.808,105.873,135.77,106.128,135.731z"/>
	<path fill="#FFFFFF" d="M109.266,111.77c0.826,0.848,1.771,1.543,2.461,2.576c2.302,3.438,2.266,3.483,5.685,2.571
		C114.955,111.258,110.983,108.967,109.266,111.77z"/>
	<path fill="#FFFFFF" d="M109.527,128.729c1.138-3.704,1.086-3.94-1.25-6.157C106.87,126.385,106.978,126.973,109.527,128.729z"/>
	<path fill="#FFFFFF" d="M110.36,121.024c0.488-1.001,0.873-1.794,1.297-2.663c-0.821-1.305-1.611-2.563-2.438-3.875
		C108.192,118.088,108.216,118.229,110.36,121.024z"/>
	<path d="M68.233,92.671c-3.93-5.714-7.325-11.839-8.285-19.96c-0.99-8.367,0.782-15.395,5.398-21.109
		c-0.246-0.229-0.493-0.459-0.74-0.688c-0.968,1.387-2.107,2.605-2.876,4.187c-3.872,7.967-4.004,16.555-1.132,24.97
		c1.499,4.396,3.955,8.14,6.019,12.138c0.254,0.493,0.753,0.734,1.136,1.092C67.913,93.089,68.074,92.881,68.233,92.671z"/>
	<path d="M244.91,4.873c2.077,0,4.156,0,6.277,0C250.317,3.56,247.103,3.244,244.91,4.873z"/>
	<g>
		<g>
			<g>
				<path fill="#F7E2C0" d="M6.881,43.416c0.006-0.077,0.008-0.156,0.007-0.233c0.003-0.037,0-0.076,0.006-0.111
					c0.062-0.516,0.467-1.004,0.946-1.159c0.329-0.29,0.731-0.526,1.245-0.688c1.022-0.628,2.329-0.942,3.351-1.134
					c0.81-0.148,3.991-0.279,5.365,0.381c2.325-0.138,4.818,0.33,7.084,0.514c2.853,0.229,6.045,0.221,8.785,1.244
					c2.483-0.182,5.043,0.109,7.525,0.186c2.671,0.084,5.342,0.133,8.016,0.168c2.671,0.034,5.342,0.031,8.014,0.031
					c2.272,0.001,4.722-0.285,7.01,0.016c2.645-0.517,5.316-0.735,7.945-1.452c3.076-0.838,5.993-2.184,8.898-3.515
					c4.391-2.01,10.124-4.858,15.103-3.771c0.037-0.208,0.181-0.376,0.45-0.341c2.841,0.367,4.199,4.033,2.85,6.583
					c-2.263,4.277-7.871,5.562-12.098,6.483c-11.942,2.61-24.205,0.003-36.251,0.232c-11.668,0.225-23.008,4.694-34.722,2.619
					c-3.329-0.59-8.869-1.866-9.531-5.967C6.88,43.474,6.879,43.443,6.881,43.416z"/>
				<path opacity="0.5" fill="#F6DEBB" enable-background="new    " d="M6.881,43.416c0.006-0.077,0.008-0.156,0.007-0.233
					c0.003-0.037,0-0.076,0.006-0.111c0.062-0.516,0.467-1.004,0.946-1.159c0.329-0.29,0.731-0.526,1.245-0.688
					c1.022-0.628,2.329-0.942,3.351-1.134c0.81-0.148,3.991-0.279,5.365,0.381c2.325-0.138,4.818,0.33,7.084,0.514
					c2.853,0.229,6.045,0.221,8.785,1.244c2.483-0.182,5.043,0.109,7.525,0.186c2.671,0.084,5.342,0.133,8.016,0.168
					c2.671,0.034,5.342,0.031,8.014,0.031c2.272,0.001,4.722-0.285,7.01,0.016c2.645-0.517,5.316-0.735,7.945-1.452
					c3.076-0.838,5.993-2.184,8.898-3.515c4.391-2.01,10.124-4.858,15.103-3.771c0.037-0.208,0.181-0.376,0.45-0.341
					c2.841,0.367,4.199,4.033,2.85,6.583c-2.263,4.277-7.871,5.562-12.098,6.483c-11.942,2.61-24.205,0.003-36.251,0.232
					c-11.668,0.225-23.008,4.694-34.722,2.619c-3.329-0.59-8.869-1.866-9.531-5.967C6.88,43.474,6.879,43.443,6.881,43.416z"/>
				<path opacity="0.5" fill="#F6DEBB" enable-background="new    " d="M6.881,43.416c0.006-0.077,0.008-0.156,0.007-0.233
					c0.003-0.037,0-0.076,0.006-0.111c0.062-0.516,0.467-1.004,0.946-1.159c0.329-0.29,0.731-0.526,1.245-0.688
					c1.022-0.628,2.329-0.942,3.351-1.134c0.81-0.148,3.991-0.279,5.365,0.381c2.325-0.138,4.818,0.33,7.084,0.514
					c2.853,0.229,6.045,0.221,8.785,1.244c2.483-0.182,5.043,0.109,7.525,0.186c2.671,0.084,5.342,0.133,8.016,0.168
					c2.671,0.034,5.342,0.031,8.014,0.031c2.272,0.001,4.722-0.285,7.01,0.016c2.645-0.517,5.316-0.735,7.945-1.452
					c3.076-0.838,5.993-2.184,8.898-3.515c4.391-2.01,10.124-4.858,15.103-3.771c0.037-0.208,0.181-0.376,0.45-0.341
					c2.841,0.367,4.199,4.033,2.85,6.583c-2.263,4.277-7.871,5.562-12.098,6.483c-11.942,2.61-24.205,0.003-36.251,0.232
					c-11.668,0.225-23.008,4.694-34.722,2.619c-3.329-0.59-8.869-1.866-9.531-5.967C6.88,43.474,6.879,43.443,6.881,43.416z"/>
				<path opacity="0.5" fill="#F6DEBB" enable-background="new    " d="M15.613,41.764c1.093-1.296,2.518-1.204,4.102-1.135
					c1.408,0.063,2.812,0.157,4.217,0.266c0.321,0.032,0.64,0.063,0.953,0.09c0.438,0.035,0.888,0.064,1.34,0.094
					c0.789,0.066,1.579,0.135,2.369,0.203c0.574,0.05,1.148,0.1,1.721,0.15c1.154,0.159,2.29,0.399,3.355,0.797
					c2.483-0.182,5.043,0.109,7.525,0.186c0.479,0.017,0.961,0.024,1.44,0.037c1.164,0.134,2.309,0.338,3.396,0.715
					c0.881-0.07,1.753-0.133,2.599-0.211c1.323-0.121,2.649-0.233,3.976-0.35c1.54,0.006,3.08,0.008,4.619,0.008
					c2.272,0.001,4.722-0.285,7.01,0.016c2.645-0.517,5.316-0.735,7.945-1.452c1.846-0.503,3.633-1.189,5.397-1.944
					c0.024-0.009,0.048-0.018,0.073-0.024c0.015-0.009,0.028-0.018,0.045-0.024c1.135-0.488,2.26-1.004,3.383-1.521
					c2.19-1.002,4.714-2.213,7.313-3.041c2.401-0.572,6.411-0.677,5.747,2.824c-0.658,3.479-4.262,6.146-7.174,7.75
					c-2.513,1.382-5.92,2.385-8.926,2.025c-0.533,0.255-1.086,0.428-1.65,0.554C67.986,47.9,59.505,46.69,51.131,46.85
					c-3.517,0.066-7.001,0.521-10.478,1.064c-0.829-0.172-1.664-0.322-2.514-0.424c-1.64-0.199-3.222,0.047-4.835,0.16
					c-3.734,1.425-7.729,1.178-11.555,0.006C20.127,47.16,13.257,44.555,15.613,41.764z"/>
			</g>
			<g>
				<path fill="#7B5340" d="M36.774,47.797c0-0.001-1.502,0.5-3.84,0.964c-1.173,0.208-2.55,0.42-4.08,0.407
					c-1.536-0.039-3.095-0.32-4.654-0.651c-1.557-0.332-3.092-0.765-4.504-1.277c-0.704-0.264-1.384-0.534-2-0.878
					c-0.309-0.169-0.604-0.354-0.88-0.565c-0.271-0.186-0.548-0.528-0.678-0.762c-0.352-0.628-0.387-1.219-0.338-1.727
					c0.051-0.507,0.18-0.92,0.301-1.25c0.25-0.658,0.49-0.98,0.49-0.98s-0.149,0.372-0.288,1.039
					c-0.065,0.332-0.123,0.744-0.096,1.2c0.028,0.443,0.146,0.975,0.414,1.365c0.304,0.462,0.812,0.701,1.419,0.978
					c0.604,0.248,1.258,0.496,1.953,0.711c1.387,0.442,2.902,0.827,4.421,1.189c0.761,0.178,1.525,0.337,2.277,0.491
					c0.75,0.142,1.501,0.287,2.202,0.352c1.428,0.114,2.806-0.006,3.973-0.119c1.173-0.098,2.149-0.233,2.832-0.333
					C36.384,47.852,36.774,47.797,36.774,47.797z"/>
			</g>
			<g>
				<path fill="#7B5340" d="M18.47,49.767c0,0-0.794-0.174-1.949-0.563c-1.153-0.393-2.667-1.021-4.035-1.927
					c-0.677-0.46-1.306-1.004-1.786-1.614c-0.236-0.307-0.431-0.635-0.557-0.969c-0.138-0.33-0.2-0.67-0.215-0.979
					c-0.016-0.311,0.022-0.597,0.091-0.837c0.045-0.248,0.159-0.438,0.216-0.606c0.172-0.313,0.271-0.489,0.271-0.489
					s-0.084,0.184-0.231,0.505c-0.043,0.172-0.142,0.366-0.167,0.611c-0.048,0.237-0.062,0.514-0.038,0.808
					c0.026,0.294,0.099,0.611,0.242,0.919c0.133,0.313,0.333,0.611,0.56,0.905c0.468,0.579,1.087,1.099,1.755,1.541
					c1.331,0.901,2.822,1.55,3.944,2.002C17.694,49.523,18.47,49.767,18.47,49.767z"/>
			</g>
			<polygon fill="#7B5340" points="15.652,41.076 13.921,42.281 15.173,43.326 			"/>
			<polygon fill="#7B5340" points="15.297,43.676 15.999,45.147 14.786,45.147 			"/>
			<polygon fill="#7B5340" points="16.62,45.773 18.47,47.158 16.62,47.158 			"/>
			<polygon fill="#7B5340" points="19.529,47.512 21.677,48.066 20.153,48.789 			"/>
			<polygon fill="#7B5340" points="22.23,48.369 24.586,48.629 22.993,49.767 			"/>
			<polygon fill="#7B5340" points="26.179,49.068 28.439,49.068 26.809,49.767 			"/>
			<polygon fill="#7B5340" points="9.4,42.734 9.4,43.676 8.588,43.204 			"/>
			<polygon fill="#7B5340" points="9.4,44.41 9.984,45.147 8.994,45.147 			"/>
			<polygon fill="#7B5340" points="10.251,45.773 11.011,46.681 10.251,46.681 			"/>
			<polygon fill="#7B5340" points="11.463,46.889 12.432,47.512 11.634,47.512 			"/>
			<polygon fill="#7B5340" points="12.881,47.789 13.713,48.369 12.881,48.369 			"/>
			<polygon fill="#7B5340" points="14.579,48.629 15.394,49.068 14.579,48.85 			"/>
		</g>
		<g>
			<path fill="#3C2713" d="M74.853,70.393c0.394-9.211,1.535-19.898,1.927-29.109c0.151-3.541,0.271-7.24-1.229-10.453
				c-1.305-2.801-3.744-4.951-6.45-6.442c-2.707-1.492-5.692-2.392-8.661-3.253c-2.265-0.657-4.578-1.309-6.936-1.225
				c-2.357,0.085-4.803,1.021-6.144,2.961c-1.342,1.941-1.178,4.957,0.725,6.353c-2.683-0.728-5.47-1.08-8.251-1.045
				c-1.232,0.017-2.563,0.147-3.49,0.963c-1.273,1.118-1.293,3.188-0.504,4.688c0.786,1.502,2.188,2.57,3.544,3.588
				c-2.408,0.104-5.283,0.504-6.308,2.686c-0.518,1.104-0.392,2.392-0.255,3.604c0.524,4.617,0.274,6.933,0.797,11.548
				c0.155,1.37-0.43,5.103,0.532,6.086c0.978,1.001,4.04,1.278,5.43,1.452c11.575,1.455,22.356,5.438,33.932,6.894"/>
			<path fill="#FFFEFE" d="M97.752,137.475c0,0-13.761-40.429-49.383-40.204C12.748,97.495,0,137.475,0,137.475H97.752z"/>
			<path fill="#D1966C" d="M76.389,46.616c0.694,6.319,0.787,14.038,0.476,20.913C76.43,77.083,71.42,86.506,62.01,88.215
				l-1.547,0.282l1.694,11.38l-26.222-0.45l-0.177-26.147c0,0-6.463,1.204-10.147-4.675c-4.003-6.385-1.334-18.034,4.574-12.704
				c6.919,6.244,8.414,6.174,8.414,6.174c1.196-8.077-3.369-24.41,15.652-28.561C63.803,31.427,75.321,36.896,76.389,46.616z"/>
			<g>
				<path fill="#AB7C59" d="M33.618,67.025c-0.032-0.116-0.781,0.134-1.963-0.015c-1.158-0.125-2.781-0.809-3.676-2.37
					c-0.721-1.201-0.874-2.667-0.539-3.589c0.352-0.97,1.392-0.891,1.613-0.612l0.135-0.181c-0.246-0.067-0.369-0.082-0.387-0.045
					c-0.016,0.037,0.079,0.121,0.294,0.256l0.36,0.226l-0.226-0.404c-0.12-0.215-0.484-0.476-0.975-0.444
					c-0.48-0.005-1.086,0.363-1.352,0.964c-0.527,1.181-0.377,2.794,0.445,4.206c1.035,1.809,2.996,2.526,4.269,2.512
					C32.938,67.549,33.658,67.094,33.618,67.025z"/>
			</g>
			<g>
				<path fill="#AB7C59" d="M26.823,62.926c0.125,0.164,0.806-0.145,1.651,0.025c0.852,0.132,1.384,0.657,1.559,0.549
					c0.079-0.053,0.046-0.292-0.189-0.581c-0.229-0.288-0.68-0.589-1.241-0.688c-0.56-0.102-1.087,0.025-1.401,0.217
					C26.88,62.637,26.767,62.851,26.823,62.926z"/>
			</g>
			<path fill="#F0A67B" d="M63.022,77.82"/>
			<g>
				<path fill="#AB7C59" d="M51.945,87.135c-0.099,0.172,0.552,0.696,1.54,0.825c0.984,0.136,1.749-0.201,1.701-0.394
					c-0.042-0.202-0.763-0.214-1.605-0.331C52.735,87.128,52.038,86.951,51.945,87.135z"/>
			</g>
			<path fill="#FFFFFF" d="M53.869,61.341c0,0,0.848-4.964-4.458-6.229c-4.457-1.064-6.055,3.936-6.055,3.936L53.869,61.341z"/>
			<path fill="#3C2713" d="M49.924,55.255l-1.961,4.798l5.906,1.288C53.869,61.341,54.507,56.393,49.924,55.255z"/>
			<path fill="#FFFFFF" d="M73.512,59.703c0,0-1.4-4.838-6.726-3.666c-4.477,0.982-3.736,6.18-3.736,6.18L73.512,59.703z"/>
			<path fill="#3C2713" d="M67.309,55.943l0.325,5.172l5.878-1.412C73.512,59.703,71.931,54.971,67.309,55.943z"/>
			<path fill="#3C2713" d="M77.033,65.592c0,0-1.256,30.482-19.709,30.854c-18.449,0.372-21.565-23.166-21.565-23.166L33.618,58.86
				l4.443,1.191c0,0,4.849,11.232,20.19,11.611C75.226,72.082,77.033,65.592,77.033,65.592z"/>
			<g>
				<path fill="#AB7C59" d="M58.252,70.393c0,0.064,0.765,0.151,2.062-0.031c1.285-0.182,3.117-0.683,4.984-1.846l0.617-0.388
					l-0.701-0.222c-1.34-0.426-2.763-0.878-4.257-1.352c-0.381-0.12-0.76-0.237-1.134-0.354c-0.167-0.068-0.16-0.078-0.171-0.112
					c-0.02-0.059,0.012-0.26,0.041-0.447c0.109-0.75,0.234-1.472,0.366-2.156c0.268-1.367,0.566-2.59,0.842-3.609
					c0.557-2.039,0.991-3.28,0.89-3.321c-0.086-0.034-0.694,1.145-1.385,3.171c-0.344,1.013-0.699,2.239-1.008,3.623
					c-0.152,0.69-0.293,1.423-0.416,2.186c-0.02,0.188-0.091,0.372-0.04,0.699c0.052,0.37,0.438,0.606,0.638,0.656
					c0.383,0.119,0.769,0.24,1.16,0.363c1.499,0.457,2.93,0.894,4.272,1.301l-0.083-0.608
					C61.386,70.253,58.197,70.191,58.252,70.393z"/>
			</g>
			<g>
				<path fill="#3C2713" d="M42.801,52.1c0.362,0.948,2.644,0.959,5.161,0.223c2.515-0.742,4.428-1.988,4.219-2.982
					c-0.209-0.985-2.585-1.319-5.254-0.532C44.26,49.59,42.443,51.158,42.801,52.1z"/>
			</g>
			<g>
				<path fill="#3C2713" d="M74.093,52.1c-0.361,0.948-2.644,0.959-5.16,0.223c-2.515-0.742-4.428-1.988-4.218-2.982
					c0.208-0.985,2.583-1.319,5.254-0.532C72.636,49.59,74.452,51.158,74.093,52.1z"/>
			</g>
			<path fill="#FFFFFF" d="M63.022,75.918c-2.366,0.925-5.026,1.08-7.485,0.439c-2.457-0.644-4.703-2.078-6.315-4.042"/>
			<g>
				
					<ellipse transform="matrix(-0.6327 0.7744 -0.7744 -0.6327 184.4039 88.4424)" fill="#3C2713" cx="71.226" cy="87.956" rx="0.365" ry="2.308"/>
			</g>
			<g>
				
					<ellipse transform="matrix(-0.7999 0.6001 -0.6001 -0.7999 180.0933 119.3614)" fill="#3C2713" cx="70.149" cy="89.703" rx="0.368" ry="1.657"/>
			</g>
			<g>
				
					<ellipse transform="matrix(0.46 0.8879 -0.8879 0.46 89.8705 9.2947)" fill="#3C2713" cx="37.294" cy="78.531" rx="0.366" ry="1.571"/>
			</g>
			<g>
				<path fill="#3C2713" d="M34.157,78.828c0.082,0.18,1.116-0.128,2.147-0.93c1.035-0.797,1.594-1.721,1.441-1.843
					c-0.158-0.135-0.922,0.521-1.89,1.264C34.895,78.066,34.068,78.641,34.157,78.828z"/>
			</g>
			<g>
				<path fill="#3C2713" d="M41.336,23.548c-0.03,0.03,0.1,0.269,0.491,0.57c0.197,0.138,0.473,0.329,0.903,0.307
					c0.441-0.003,0.883-0.51,0.823-1.045c-0.009-0.545-0.485-1.044-0.998-1.229c-0.51-0.21-1.118-0.271-1.724-0.139
					c-0.594,0.127-1.266,0.483-1.579,1.192c-0.313,0.712-0.073,1.527,0.305,2.092c1.628,2.198,3.892,3.211,5.53,3.633
					c1.665,0.409,2.734,0.247,2.728,0.173c0.007-0.125-1.034-0.154-2.582-0.67c-1.507-0.502-3.637-1.604-5.057-3.529
					c-0.314-0.479-0.439-1-0.263-1.42c0.168-0.412,0.609-0.699,1.074-0.813c0.912-0.246,2.005,0.125,2.048,0.755
					c0.048,0.315-0.128,0.55-0.363,0.595c-0.236,0.05-0.505-0.051-0.697-0.145C41.581,23.675,41.375,23.506,41.336,23.548z"/>
			</g>
			<g>
				<path fill="#3C2713" d="M82.023,41.012c-0.039-0.041-0.224,0.179-0.602,0.081c-0.184-0.051-0.363-0.18-0.417-0.421
					c-0.059-0.23,0.013-0.554,0.234-0.765c0.395-0.437,1.636-0.562,1.904,0.16c0.143,0.35,0.061,0.869-0.188,1.27
					c-0.259,0.417-0.682,0.764-1.179,0.978c-1.01,0.432-2.178,0.333-3.066-0.033c-0.916-0.379-1.623-0.996-2.17-1.543
					c-1.078-1.13-1.634-1.97-1.732-1.9c-0.067,0.043,0.318,0.97,1.35,2.249c0.526,0.62,1.249,1.339,2.282,1.813
					c1.031,0.463,2.37,0.617,3.627,0.089c0.619-0.27,1.165-0.71,1.504-1.278c0.329-0.578,0.46-1.27,0.194-1.908
					c-0.282-0.672-1.034-0.905-1.549-0.854c-0.536,0.032-1.039,0.24-1.361,0.614c-0.325,0.382-0.38,0.874-0.24,1.24
					c0.138,0.386,0.511,0.57,0.764,0.574C81.941,41.393,82.076,41.006,82.023,41.012z"/>
			</g>
			<g>
				<path fill="#583B23" d="M58.827,81.391c0.014-0.044-0.482-0.291-1.438-0.608c-0.952-0.294-2.401-0.716-4.25-0.526
					c-0.914,0.101-1.928,0.412-2.839,1.035c-0.906,0.609-1.763,1.553-2.098,2.806c-0.359,1.246-0.025,2.692,0.796,3.793
					c0.804,1.125,2.152,1.897,3.584,2.084c1.438,0.192,2.863-0.087,4.074-0.72c1.19-0.604,2.246-1.83,2.134-3.233
					c-0.112-1.362-1.063-2.363-2.066-2.855c-1.038-0.5-2.188-0.47-3.068-0.034c-0.901,0.439-1.374,1.356-1.36,2.134
					c-0.015,0.806,0.521,1.416,1.013,1.609c0.496,0.226,0.943,0.178,1.199,0.074c0.26-0.105,0.354-0.227,0.342-0.24
					c-0.005-0.073-0.557,0.367-1.412-0.088c-0.407-0.213-0.775-0.704-0.732-1.348c0.027-0.631,0.438-1.353,1.177-1.676
					c0.725-0.332,1.729-0.328,2.571,0.111c0.841,0.43,1.605,1.317,1.661,2.354c0.076,1.038-0.731,2.021-1.795,2.56
					c-1.062,0.547-2.369,0.799-3.634,0.625c-2.578-0.256-4.43-2.858-3.828-4.979c0.261-1.053,0.984-1.905,1.789-2.477
					c0.814-0.585,1.714-0.896,2.562-1.02c1.716-0.245,3.146,0.079,4.104,0.286C58.275,81.284,58.81,81.443,58.827,81.391z"/>
			</g>
			<g>
				<path fill="#583B23" d="M56.346,23.639c0.012-0.013-0.058-0.132-0.295-0.215c-0.23-0.073-0.643-0.066-1.021,0.242
					c-0.404,0.292-0.576,1.016-0.279,1.634c0.268,0.645,0.993,1.123,1.783,1.281c0.791,0.168,1.662,0.195,2.592,0.064
					c0.903-0.174,1.938-0.329,2.803-1.188c0.427-0.436,0.592-1.172,0.401-1.771c-0.163-0.608-0.594-1.12-1.083-1.469
					c-0.999-0.663-2.078-1.065-3.271-1.352c-1.186-0.264-2.427-0.274-3.558,0.074c-1.125,0.359-2.09,1.06-2.711,1.961
					c-0.634,0.894-0.858,2.016-0.673,2.968c0.176,0.957,0.629,1.748,1.132,2.364c1.04,1.229,2.195,1.812,2.947,2.217
					c0.771,0.386,1.213,0.558,1.236,0.516c0.026-0.047-0.376-0.306-1.094-0.764c-0.699-0.469-1.785-1.121-2.681-2.289
					c-0.439-0.584-0.815-1.314-0.938-2.141c-0.134-0.824,0.07-1.726,0.621-2.481c0.541-0.759,1.397-1.361,2.372-1.665
					c0.984-0.294,2.099-0.288,3.188-0.043c1.077,0.248,2.174,0.666,3.008,1.219c0.828,0.531,1.18,1.605,0.598,2.208
					c-0.573,0.62-1.568,0.868-2.395,1.032c-0.849,0.148-1.682,0.15-2.392,0.029c-0.71-0.119-1.272-0.465-1.517-0.952
					c-0.261-0.479-0.178-0.991,0.099-1.244C55.824,23.318,56.354,23.697,56.346,23.639z"/>
			</g>
			<path fill="#D1966C" d="M62.01,98.977c0,0-9.739,11.78-10.076,15.849c-0.668,8.063-16.096-16.039-16.096-16.039L62.01,98.977z"/>
			<g>
				<path fill="#583B23" d="M51.979,110.131c0.006-0.018-0.202-0.123-0.604-0.256c-0.402-0.123-1.011-0.301-1.786-0.222
					c-0.385,0.043-0.81,0.173-1.193,0.436c-0.382,0.257-0.74,0.653-0.881,1.18c-0.152,0.524-0.012,1.133,0.333,1.594
					c0.339,0.474,0.905,0.799,1.507,0.876c0.604,0.081,1.203-0.036,1.713-0.302c0.499-0.254,0.942-0.771,0.895-1.358
					c-0.047-0.573-0.445-0.994-0.867-1.2c-0.437-0.211-0.919-0.197-1.29-0.016c-0.379,0.186-0.576,0.571-0.571,0.896
					c-0.006,0.341,0.219,0.597,0.426,0.678c0.209,0.095,0.396,0.074,0.503,0.029c0.109-0.043,0.149-0.094,0.145-0.1
					c-0.003-0.031-0.233,0.154-0.595-0.037c-0.17-0.09-0.324-0.297-0.307-0.567c0.012-0.265,0.184-0.566,0.494-0.701
					c0.305-0.14,0.727-0.139,1.08,0.047c0.354,0.181,0.677,0.554,0.698,0.987c0.033,0.437-0.307,0.851-0.753,1.076
					c-0.447,0.229-0.997,0.335-1.527,0.263c-1.083-0.107-1.86-1.2-1.609-2.094c0.11-0.441,0.414-0.8,0.753-1.04
					c0.341-0.246,0.719-0.376,1.074-0.43c0.723-0.102,1.325,0.034,1.727,0.122C51.748,110.086,51.972,110.152,51.979,110.131z"/>
			</g>
			<g>
				<path fill="#979696" d="M51.979,116.447c0.237-0.941,0.592-1.85,1.022-2.732c0.437-0.877,0.979-1.732,1.82-2.389
					c0.212-0.16,0.454-0.296,0.718-0.396c0.262-0.109,0.568-0.143,0.786-0.176c0.243-0.024,0.538-0.053,0.787-0.039
					c0.26,0.003,0.518,0.033,0.772,0.067c0.511,0.075,1.01,0.208,1.49,0.384c0.483,0.189,0.928,0.398,1.393,0.698l-0.765,0.337
					c0.255-2.068,0.568-4.129,0.908-6.186c0.179-1.027,0.362-2.056,0.566-3.078c0.22-1.021,0.42-2.047,0.679-3.063
					c-0.02,1.049-0.098,2.09-0.155,3.133c-0.074,1.041-0.169,2.08-0.268,3.118c-0.216,2.073-0.458,4.145-0.76,6.206l-0.113,0.773
					l-0.651-0.438c-0.343-0.229-0.771-0.444-1.183-0.613c-0.417-0.177-0.851-0.314-1.291-0.4c-0.221-0.041-0.442-0.078-0.665-0.09
					c-0.232-0.023-0.421-0.025-0.658-0.021c-0.261,0.018-0.441,0.021-0.633,0.086c-0.191,0.06-0.384,0.146-0.564,0.267
					c-0.743,0.467-1.329,1.241-1.86,2.02C52.827,114.711,52.389,115.57,51.979,116.447z"/>
			</g>
			<g>
				<path fill="#979696" d="M49.718,117.373c-0.734-1.149-1.513-2.271-2.389-3.303c-0.438-0.514-0.909-0.996-1.408-1.428
					c-0.495-0.416-1.063-0.808-1.626-0.868c-0.277-0.029-0.528,0.037-0.742,0.198c-0.247,0.19-0.525,0.423-0.736,0.638
					c-0.459,0.456-0.882,0.975-1.269,1.513c-0.774,1.074-1.456,2.254-2.014,3.446l-0.607,1.3l-0.277-1.412
					c-0.586-2.979-1.136-5.967-1.663-8.958c-0.268-1.506-0.46-3.007-0.641-4.519c-0.082-0.758-0.207-1.506-0.252-2.271
					c-0.057-0.762-0.129-1.521-0.158-2.284c0.209,0.736,0.375,1.479,0.557,2.217c0.187,0.735,0.338,1.481,0.508,2.223
					c0.345,1.479,0.638,2.979,0.929,4.458c0.573,2.983,1.125,5.972,1.641,8.966l-0.885-0.112c0.633-1.26,1.342-2.441,2.206-3.55
					c0.438-0.548,0.904-1.069,1.438-1.549c0.283-0.256,0.54-0.448,0.843-0.66c0.344-0.237,0.806-0.33,1.204-0.262
					c0.807,0.145,1.377,0.631,1.895,1.099c0.515,0.482,0.942,1.032,1.351,1.587C48.423,114.962,49.125,116.141,49.718,117.373z"/>
			</g>
		</g>
		<g>
			<path fill="#F7E2C0" d="M31.695,42.903c7.296,2.732,15.768,4.806,23.583,4.124c3.86-0.336,7.615-1.326,11.425-2.902
				c3.799-1.574,8.354-3.016,12.003-5.66c0.195-0.139,0.191-0.366,0.061-0.46c0.008-0.064,0.01-0.135-0.006-0.209
				c-1.44-6.758-6.102-13.109-10.976-17.807c-2.281-2.2-4.911-4.185-8.149-3.604c-3.353,0.604-4.967-0.086-8.664,0.565
				c-2.538,0.447-5.044,0.396-7.688,1.017c-2.765,0.649-4.761,3.214-6.251,5.813c-3.103,5.414-4.83,11.979-3.914,18.062
				c-0.409-0.098-0.817-0.192-1.226-0.288C31.086,41.369,30.918,42.611,31.695,42.903z"/>
			<path fill="#7B5340" d="M55.299,41.141c4.472-0.083,9.006-1.048,13.369-2.009c2.509-0.553,7.306-2.059,9.695-2.908
				c1.322,2.393,0.14,0.589,0.397,1.571c0.021,0.073,0.014,0.145,0.006,0.209c0.131,0.094,0.135,0.321-0.061,0.46
				c-3.649,2.646-8.204,4.086-12.003,5.66c-1.53,0.633-3.051,1.166-4.573,1.605c-0.843,0.011-1.684,0.008-2.515-0.013
				c-4.234-0.096-8.462-0.569-12.677-0.942c-3.976-0.354-8.152-0.387-12.007-1.504c-1.248-0.361-2.367-0.954-3.336-1.715
				c0.086-0.025,0.186-0.029,0.297-0.004c0.408,0.096,0.873,2.018,1.281,2.114c-0.361-2.396-0.369,0.642-0.299-3.947
				C39.771,41.896,48.022,41.276,55.299,41.141z"/>
			<path opacity="0.5" fill="#F6DEBB" enable-background="new    " d="M31.695,42.903c7.296,2.732,15.768,4.806,23.583,4.124
				c3.86-0.336,7.615-1.326,11.425-2.902c3.799-1.574,8.354-3.016,12.003-5.66c0.195-0.139,0.191-0.366,0.061-0.46
				c0.008-0.064,0.01-0.135-0.006-0.209c-1.44-6.758-6.102-13.109-10.976-17.807c-2.281-2.2-4.911-4.185-8.149-3.604
				c-3.353,0.604-5.284,0.608-8.664,0.565c-2.577-0.032-5.044,0.396-7.688,1.017c-2.765,0.649-4.761,3.214-6.251,5.813
				c-3.103,5.414-4.83,11.979-3.914,18.062c-0.409-0.098-0.817-0.192-1.226-0.288C31.086,41.369,30.918,42.611,31.695,42.903z"/>
			<path fill="#F7E2C0" d="M7.749,42.975c8.025-4.312,16.35-1.291,23.942,2.456c7.293,3.6,14.613,6.566,22.837,6.189
				c7.699-0.352,14.818-3.113,21.608-6.777c3.391-1.831,6.717-3.789,10.099-5.638c1.8-0.982,3.612-1.941,5.457-2.825
				c2.17-1.037,5.344-2.825,7.248-0.209c0.227,0.313,0.836,0.144,0.665-0.293c-0.28-0.725-0.663-1.248-1.114-1.621
				c-0.203-0.137-0.399-0.301-0.581-0.441c-6.205-2.481-13.419,0.683-19.307,2.724c-7.247,2.515-14.757,4.253-22.377,4.9
				c-7.736,0.654-15.417,0.303-23.09-0.885c-3.792-0.588-7.598-1.285-11.431-1.535c-2.328-0.152-4.893-0.271-7.3,0.135
				c-2.579,0.323-5.035,1.277-7.149,3.151C6.889,42.635,7.358,43.186,7.749,42.975z"/>
			<path opacity="0.5" fill="#F6DEBB" enable-background="new    " d="M14.406,39.154c2.407-0.405,4.972-0.287,7.3-0.135
				c3.833,0.25,7.639,0.947,11.431,1.535c7.673,1.188,15.354,1.539,23.09,0.885c7.62-0.647,15.13-2.388,22.377-4.9
				c5.633-1.953,12.479-4.93,18.493-3.011c-4.45,0.216-8.386,1.182-12.45,3.179c-3.979,1.957-7.646,4.505-11.559,6.591
				c-7.414,3.951-16.29,5.938-24.68,5.36c-0.544-0.037-0.914-0.871-0.309-1.141c1.85-0.818,3.719-1.619,5.605-2.391
				c-5.835,0.271-11.944-1.058-17.363-2.344c-5.764-1.368-11.5-2.89-17.445-3.151c-3.361-0.146-6.473,0.269-9.496,1.15
				C10.968,39.893,12.657,39.375,14.406,39.154z"/>
		</g>
		<g>
			<path fill="#7B5340" d="M33.072,37.408c0,0,0.692,0.034,1.904,0.093c1.212,0.052,2.945,0.084,5.024,0.102
				c2.079,0.022,4.505-0.019,7.102-0.108c1.298-0.05,2.639-0.128,4-0.204c1.359-0.113,2.743-0.186,4.121-0.335
				c1.379-0.136,2.761-0.241,4.112-0.427c1.354-0.165,2.687-0.324,3.968-0.543c1.283-0.198,2.524-0.389,3.69-0.635
				c1.166-0.239,2.279-0.418,3.285-0.683c1.012-0.238,1.938-0.457,2.761-0.65c0.813-0.229,1.522-0.428,2.106-0.59
				c1.167-0.331,1.834-0.521,1.834-0.521s-0.662,0.203-1.822,0.561c-0.581,0.178-1.286,0.392-2.095,0.638
				c-0.82,0.207-1.745,0.439-2.754,0.694c-1.006,0.271-2.119,0.459-3.285,0.707c-1.165,0.257-2.407,0.456-3.691,0.664
				c-1.281,0.23-2.615,0.399-3.971,0.574c-1.353,0.196-2.735,0.313-4.116,0.459c-1.381,0.139-2.769,0.201-4.13,0.303
				c-1.364,0.066-2.708,0.136-4.008,0.176c-2.601,0.071-5.028,0.095-7.109,0.055C35.837,37.669,33.072,37.409,33.072,37.408z"/>
		</g>
		<g>
			<path fill="#7B5340" d="M33.777,31.722c0,0,0.632,0.09,1.743,0.197c1.11,0.119,2.701,0.242,4.61,0.362
				c1.909,0.124,4.141,0.204,6.531,0.22c1.195,0.014,2.431-0.023,3.686-0.039c1.253-0.063,2.528-0.089,3.8-0.188
				c1.271-0.1,2.546-0.147,3.791-0.304c1.248-0.134,2.478-0.248,3.657-0.446c1.182-0.176,2.327-0.333,3.397-0.569
				c1.07-0.229,2.099-0.381,3.019-0.646c0.927-0.233,1.777-0.448,2.53-0.64c0.747-0.212,1.389-0.433,1.923-0.596
				c1.064-0.337,1.673-0.529,1.673-0.529s-0.604,0.207-1.66,0.569c-0.53,0.176-1.167,0.412-1.91,0.643
				c-0.751,0.203-1.6,0.434-2.524,0.684c-0.92,0.271-1.947,0.433-3.02,0.671c-1.071,0.246-2.217,0.414-3.4,0.6
				c-1.181,0.209-2.412,0.334-3.662,0.479c-1.248,0.166-2.525,0.227-3.798,0.334c-1.275,0.09-2.554,0.104-3.81,0.158
				c-1.258,0.004-2.496,0.03-3.693,0.008c-2.395-0.035-4.628-0.133-6.538-0.273C36.299,32.143,33.777,31.723,33.777,31.722z"/>
		</g>
		<g>
			<path fill="#7B5340" d="M35.113,27.15c0,0,2.275,0.107,5.688,0.105c1.706,0.003,3.697-0.013,5.828-0.097
				c2.132-0.07,4.402-0.216,6.669-0.402c1.131-0.108,2.267-0.188,3.378-0.317c1.109-0.143,2.209-0.234,3.261-0.408
				c1.052-0.172,2.078-0.285,3.034-0.486c0.959-0.188,1.872-0.336,2.702-0.527c0.832-0.191,1.594-0.366,2.269-0.522
				c0.677-0.152,1.251-0.342,1.732-0.469c0.959-0.271,1.507-0.424,1.507-0.424s-0.543,0.169-1.494,0.465
				c-0.479,0.14-1.05,0.345-1.722,0.516c-0.674,0.168-1.434,0.358-2.263,0.566c-0.83,0.199-1.743,0.354-2.702,0.555
				c-0.957,0.209-1.983,0.333-3.036,0.514c-1.053,0.186-2.152,0.288-3.264,0.44c-1.113,0.141-2.249,0.231-3.382,0.349
				c-2.272,0.166-4.548,0.292-6.684,0.344c-2.134,0.063-4.128,0.061-5.835,0.042C37.384,27.338,35.113,27.15,35.113,27.15z"/>
		</g>
		<g>
			<path fill="#7B5340" d="M36.774,24.241c0,0,0.474-0.081,1.303-0.224c0.831-0.136,2.014-0.354,3.439-0.568
				c2.852-0.438,6.654-1.016,10.467-1.529c1.909-0.242,3.817-0.479,5.612-0.66c1.792-0.205,3.467-0.368,4.908-0.462
				c0.72-0.052,1.379-0.099,1.964-0.14c0.587,0.002,1.099,0.006,1.521,0.008c0.841,0.006,1.321,0.01,1.321,0.01
				s-0.48,0.013-1.322,0.032c-0.42,0.011-0.93,0.024-1.515,0.04c-0.583,0.055-1.24,0.116-1.958,0.185
				c-1.438,0.108-3.109,0.29-4.897,0.516c-1.791,0.199-3.696,0.46-5.602,0.719c-3.815,0.475-7.623,1.01-10.479,1.416
				C38.68,23.978,36.774,24.241,36.774,24.241z"/>
		</g>
		<path fill="#7B5340" d="M52.195,37.961c-0.71,0.112,0,2.871,0,2.871s7.85-0.073,9.304-0.8c1.454-0.728-0.519-3.118-0.519-3.118
			S53.959,37.684,52.195,37.961z"/>
		<path fill="#7B5340" d="M51.012,33.072c0,0-1.152,3.1,0.153,3.313c1.305,0.218,8.899-0.01,9.627-0.987
			c0.727-0.978,1.028-2.386-0.737-2.531C58.289,32.721,51.012,33.072,51.012,33.072z"/>
		<path fill="#7B5340" d="M50.368,27.981c0,0-0.806,2.729,0.604,3.579c1.407,0.85,8.45,0.123,9.385-0.585
			c0.936-0.71,0.209-3.878-0.728-3.645C58.693,27.564,52.232,27.332,50.368,27.981z"/>
		<path fill="#7B5340" d="M50.932,22.994c0,0-2.862,3.533-0.563,3.533c2.301,0,9.261-0.354,9.157-1.062
			c-0.104-0.706,1.661-3.2-0.698-3.597C56.468,21.474,51.895,22.682,50.932,22.994z"/>
		<path fill="#7B5340" d="M33.618,37.961v1.307c0,0,4.714,1.388,5.077,1.076c0.365-0.312,0.414-2.383,0.414-2.383
			S34.307,37.449,33.618,37.961z"/>
		<path fill="#7B5340" d="M34.15,32.605l-0.373,3.618c0,0,3.78,1.003,4.947,0.689c1.168-0.311,0.847-3.84,0.385-3.842
			C38.646,33.07,34.15,32.605,34.15,32.605z"/>
		<path fill="#7B5340" d="M35.113,30.976c0,0,3.74,1.682,4.414,0.746c0.675-0.938,1.506-3.638,0.572-3.638
			c-0.936,0-4.207-0.779-4.468-0.415C35.372,28.033,34.348,30.661,35.113,30.976z"/>
		<path fill="#7B5340" d="M37.139,24.736c0,0-1.194,1.426-0.987,1.791c0.208,0.363,4.213,0.623,4.365,0.207
			c0.153-0.416,0-2.576,0-2.576S37.866,24.349,37.139,24.736z"/>
		<path fill="#7B5340" d="M76.864,33.545c0,0-1.653,0.32-2.727,0.771c-1.074,0.451-0.797,2.719,0,2.658
			c0.798-0.062,3.566-1.101,3.566-1.101S77.753,34.329,76.864,33.545z"/>
		<path fill="#7B5340" d="M74.615,29.197c0,0,2.182,2.684,1.596,3.408c-0.584,0.725-3.7,0.938-3.7,0.938s-2.217-1.897-1.039-2.969
			C72.649,29.504,74.615,29.197,74.615,29.197z"/>
		<path fill="#7B5340" d="M71.127,24.241c0,0,2.972,2.965,2.385,3.561c-0.585,0.596-4.094,1.396-4.094,1.396
			s-2.227-2.549-1.16-3.371C69.325,25.004,71.127,24.241,71.127,24.241z"/>
		<path fill="#7B5340" d="M67.969,20.676c0,0,2.557,2.318,2.441,2.389c-0.116,0.068-3.578,1.704-3.925,1.095
			c-0.347-0.609-1.938-1.91-0.899-2.367C66.624,21.332,67.969,20.676,67.969,20.676z"/>
		<path fill="none" stroke="#7B5340" stroke-miterlimit="10" d="M94.212,35.564"/>
		<g>
			<g>
				<path fill="#7B5340" d="M92.992,35.398c0,0,0.268,0.284,0.512,0.922c0.112,0.318,0.223,0.727,0.24,1.209
					c0.047,0.484-0.047,1.033-0.215,1.611c-0.206,0.561-0.49,1.155-0.91,1.694c-0.403,0.551-0.899,1.074-1.462,1.544
					c-0.556,0.483-1.177,0.911-1.82,1.325c-0.66,0.361-1.331,0.729-2.002,1.095c-0.649,0.376-1.399,0.635-2.092,0.94
					c-0.695,0.32-1.404,0.551-2.091,0.758c-0.683,0.226-1.346,0.429-1.991,0.562c-0.642,0.146-1.241,0.305-1.812,0.379
					c-2.263,0.387-3.792,0.336-3.792,0.337c0-0.001,0.374-0.075,1.021-0.212c0.321-0.077,0.712-0.17,1.159-0.276
					c0.446-0.104,0.94-0.271,1.485-0.409c0.547-0.133,1.119-0.354,1.736-0.536c0.619-0.177,1.248-0.433,1.905-0.675
					c0.328-0.121,0.662-0.244,1-0.37c0.326-0.145,0.656-0.291,0.989-0.438c0.664-0.309,1.352-0.547,2.011-0.939
					c0.662-0.348,1.324-0.696,1.977-1.04c0.61-0.39,1.229-0.747,1.761-1.179c0.538-0.419,1.034-0.856,1.436-1.326
					c0.413-0.463,0.717-0.959,0.959-1.438c0.191-0.494,0.355-0.97,0.379-1.41c0.05-0.44,0.004-0.833-0.058-1.15
					C93.186,35.736,92.992,35.398,92.992,35.398z"/>
			</g>
			<g>
				<path fill="#7B5340" d="M87.383,46.616c0,0,0.986-0.404,2.438-1.069c1.449-0.656,3.391-1.559,5.147-2.741
					c0.433-0.302,0.864-0.605,1.242-0.955c0.374-0.352,0.716-0.732,0.838-1.201c0.323-0.947,0.521-1.849,0.689-2.629
					c0.311-1.563,0.448-2.621,0.448-2.621s-0.041,1.067-0.311,2.647c-0.15,0.782-0.335,1.711-0.636,2.66
					c-0.126,0.517-0.495,0.943-0.872,1.31c-0.388,0.367-0.814,0.698-1.266,0.989c-1.804,1.166-3.763,2.029-5.229,2.662
					C88.394,46.277,87.383,46.616,87.383,46.616z"/>
			</g>
			<polygon fill="#7B5340" points="94.212,35.564 94.535,36.387 94.949,35.737 			"/>
			<polygon fill="#7B5340" points="94.582,36.977 94.582,37.684 95.295,37.33 94.582,36.639 			"/>
			<polygon fill="#7B5340" points="94.582,38.093 94.398,38.957 95.09,38.525 			"/>
			<polygon fill="#7B5340" points="94.212,39.373 93.877,40.032 94.582,39.858 			"/>
			<polygon fill="#7B5340" points="93.564,40.447 93.045,41.076 93.877,41.277 			"/>
			<polygon fill="#7B5340" points="92.526,41.78 91.383,42.629 92.526,42.629 			"/>
			<polygon fill="#7B5340" points="90.967,43.113 89.722,43.944 90.795,43.944 			"/>
			<polygon fill="#7B5340" points="88.89,44.291 87.581,44.846 88.475,45.147 			"/>
			<polygon fill="#7B5340" points="86.804,45.282 85.395,45.956 86.396,45.956 			"/>
			<polygon fill="#7B5340" points="84.279,46.387 83.181,46.73 83.908,46.923 			"/>
			<polygon fill="#7B5340" points="98.447,35.976 98.344,36.977 98.758,36.639 			"/>
			<polygon fill="#7B5340" points="98.186,37.33 97.997,38.093 98.758,37.712 			"/>
			<polygon fill="#7B5340" points="97.997,38.525 97.721,39.513 98.551,39.166 			"/>
			<polygon fill="#7B5340" points="97.721,40.032 97.339,40.98 97.997,40.689 			"/>
			<polygon fill="#7B5340" points="97.097,41.473 96.404,42.205 97.097,42.281 			"/>
			<polygon fill="#7B5340" points="96.023,42.629 95.09,43.321 95.885,43.321 			"/>
			<polygon fill="#7B5340" points="94.582,43.529 93.254,44.291 94.228,44.291 			"/>
			<polygon fill="#7B5340" points="92.784,44.566 91.557,45.147 92.784,45.147 			"/>
			<polygon fill="#7B5340" points="90.725,45.434 90.032,45.736 90.725,45.817 			"/>
		</g>
		<g>
			<path fill="#7B5340" d="M8.306,41.473c0,0,0.328-0.164,0.989-0.342c0.646-0.234,1.637-0.396,2.892-0.628
				c0.63-0.104,1.339-0.118,2.104-0.188c0.767-0.063,1.597-0.145,2.485-0.082c0.889,0.024,1.835,0.053,2.832,0.082
				c0.997,0.031,2.03,0.244,3.117,0.367c1.079,0.172,2.226,0.237,3.373,0.514c1.148,0.268,2.337,0.544,3.558,0.828
				c2.472,0.467,4.94,1.441,7.55,2.258c1.296,0.432,2.614,0.871,3.948,1.314c0.666,0.227,1.336,0.452,2.009,0.682
				c0.674,0.227,1.37,0.379,2.059,0.573c2.747,0.806,5.64,1.24,8.528,1.487c2.898,0.198,5.822-0.005,8.607-0.64
				c2.789-0.633,5.403-1.739,7.791-3.057c1.203-0.642,2.359-1.336,3.575-1.861c0.607-0.271,1.219-0.477,1.788-0.771
				c0.572-0.276,1.117-0.603,1.655-0.918c2.123-1.319,4.075-2.676,6.002-3.719c1.919-1.055,3.766-1.868,5.465-2.396
				c1.694-0.545,3.214-0.869,4.474-1.068c0.633-0.084,1.197-0.16,1.688-0.227c0.494-0.033,0.915-0.063,1.256-0.086
				c0.682-0.044,1.045-0.067,1.045-0.067s-0.363,0.027-1.045,0.079c-0.34,0.026-0.76,0.061-1.253,0.099
				c-0.49,0.071-1.054,0.153-1.685,0.244c-1.255,0.212-2.77,0.551-4.452,1.112c-1.688,0.546-3.518,1.375-5.428,2.428
				c-1.917,1.047-3.857,2.405-5.983,3.738c-0.541,0.318-1.086,0.646-1.67,0.933c-0.571,0.299-1.197,0.513-1.789,0.78
				c-1.196,0.521-2.35,1.221-3.554,1.867c-2.389,1.33-5.022,2.455-7.831,3.104c-2.806,0.65-5.754,0.867-8.673,0.676
				c-2.91-0.26-5.812-0.707-8.573-1.526c-0.69-0.197-1.393-0.355-2.065-0.584c-0.673-0.23-1.342-0.461-2.007-0.689
				c-1.333-0.448-2.649-0.892-3.944-1.328c-2.601-0.821-5.063-1.807-7.526-2.28c-1.218-0.287-2.402-0.568-3.548-0.84
				c-1.144-0.278-2.286-0.349-3.362-0.523c-1.083-0.129-2.114-0.339-3.108-0.382c-0.994-0.039-1.938-0.075-2.823-0.11
				c-0.888-0.071-1.716,0.002-2.481,0.057c-0.765,0.063-1.474,0.069-2.103,0.166c-1.255,0.22-2.247,0.369-2.894,0.599
				C8.636,41.312,8.306,41.473,8.306,41.473z"/>
		</g>
		<g>
			<path fill="#7B5340" d="M89.2,33.267c0,0-0.284,0.104-0.815,0.302c-0.524,0.215-1.33,0.449-2.289,0.893
				c-0.477,0.224-1.005,0.472-1.579,0.74c-0.575,0.266-1.159,0.639-1.803,0.988c-1.276,0.725-2.651,1.651-4.162,2.653
				c-1.498,1-3.191,2.128-5.145,2.908c-1.851,0.822-3.675,2.086-5.765,3.054c-2.069,0.986-4.324,1.836-6.71,2.282
				c-0.588,0.151-1.198,0.189-1.8,0.291l-0.907,0.129l-0.915,0.058c-0.611,0.031-1.225,0.078-1.838,0.094l-1.84-0.051l-0.92-0.035
				l-0.912-0.11l-1.82-0.217c-1.204-0.188-2.388-0.459-3.57-0.684c-1.159-0.314-2.309-0.627-3.445-0.937
				c-1.124-0.346-2.212-0.755-3.293-1.12c-2.142-0.74-4.211-1.456-6.173-2.136c-1.949-0.756-3.858-1.146-5.603-1.618
				c-0.875-0.226-1.713-0.439-2.511-0.646c-0.812-0.143-1.581-0.275-2.305-0.402c-1.451-0.227-2.708-0.537-3.766-0.563
				c-2.11-0.178-3.315-0.277-3.315-0.277s1.211,0.03,3.33,0.084c1.068-0.021,2.336,0.229,3.807,0.391
				c0.735,0.094,1.517,0.191,2.341,0.297c0.814,0.166,1.664,0.373,2.555,0.572c1.772,0.424,3.738,0.774,5.695,1.474
				c1.986,0.633,4.068,1.272,6.237,2.01c1.07,0.352,2.148,0.744,3.258,1.074c1.12,0.294,2.253,0.59,3.396,0.89
				c1.16,0.208,2.323,0.462,3.501,0.636l1.778,0.195l0.89,0.098l0.894,0.028l1.786,0.065c0.595-0.01,1.188-0.052,1.78-0.074
				l0.887-0.045l0.878-0.118c0.581-0.093,1.173-0.122,1.741-0.266c2.309-0.409,4.491-1.208,6.519-2.15
				c2.034-0.935,3.883-2.124,5.858-2.941c1.943-0.716,3.57-1.739,5.117-2.708c1.535-0.971,2.967-1.838,4.289-2.508
				c0.668-0.324,1.268-0.67,1.864-0.912c0.593-0.246,1.138-0.471,1.63-0.675c0.981-0.405,1.802-0.575,2.338-0.761
				C88.91,33.354,89.2,33.267,89.2,33.267z"/>
		</g>
		<g>
			<path fill="#7B5340" d="M37.346,40.939c0,0,0.656,0.123,1.804,0.34c0.573,0.109,1.272,0.235,2.062,0.414
				c0.793,0.164,1.69,0.387,2.65,0.531c0.967,0.146,1.987,0.366,3.084,0.528c1.105,0.115,2.259,0.321,3.454,0.404
				c1.196,0.074,2.425,0.212,3.669,0.182c1.249,0.056,2.498-0.062,3.752-0.127l1.857-0.244c0.618-0.077,1.217-0.236,1.822-0.347
				c1.199-0.269,2.37-0.593,3.485-0.987c1.118-0.385,2.192-0.813,3.212-1.26c1.012-0.457,1.993-0.899,2.926-1.297
				c0.488-0.185,0.91-0.397,1.389-0.531c0.232-0.068,0.458-0.137,0.678-0.201c0.119-0.026,0.379-0.12,0.553-0.176
				c0.758-0.271,1.471-0.426,1.967-0.676c1.044-0.438,1.686-0.676,1.686-0.676s-0.488,0.451-1.422,1.211
				c-0.458,0.412-1.069,0.755-1.759,1.188c-0.192,0.113-0.306,0.2-0.58,0.345c-0.175,0.102-0.354,0.205-0.538,0.312
				c-0.363,0.196-0.759,0.477-1.16,0.726c-0.812,0.547-1.699,1.163-2.698,1.762c-0.994,0.602-2.074,1.229-3.264,1.746
				c-0.595,0.26-1.195,0.538-1.837,0.737c-0.637,0.212-1.271,0.469-1.944,0.605c-0.669,0.148-1.334,0.362-2.021,0.452
				c-0.689,0.1-1.378,0.2-2.068,0.297c-1.386,0.062-2.774,0.172-4.128,0.047c-1.362-0.024-2.672-0.26-3.938-0.458
				c-1.268-0.188-2.444-0.582-3.575-0.854c-1.127-0.299-2.159-0.73-3.112-1.069c-0.97-0.319-1.774-0.741-2.509-1.089
				c-0.734-0.342-1.364-0.67-1.886-0.934c-0.536-0.261-0.918-0.507-1.196-0.655C37.49,41.025,37.346,40.939,37.346,40.939z"/>
		</g>
	</g>
	<g>
		<g>
			<path fill="#331842" d="M110.571,32.941v1.79l-3.365-0.097v2.382l3.023-0.059l0.076,1.722h-2.699v3.129l-2.357-0.082
				c0.062-1.189,0.094-2.388,0.094-3.594c0-1.672-0.061-3.357-0.18-5.06C106.446,33.032,108.249,32.988,110.571,32.941z"/>
			<path fill="#331842" d="M114.087,35.696c1.971,0,2.955,0.976,2.955,2.926c0,0.237-0.014,0.491-0.043,0.762h-3.807
				c0,1.089,0.281,1.633,0.844,1.633h0.059c0.494-0.029,0.742-0.313,0.742-0.846c0-0.113-0.012-0.24-0.035-0.381l2.027-0.031
				c0,1.612-0.945,2.43-2.836,2.45c-0.023,0.004-0.043,0.006-0.059,0.006c-1.801,0-2.699-1.018-2.699-3.053v-0.189
				C111.292,36.788,112.241,35.696,114.087,35.696z M112.989,38.216h1.924v-0.151c0-0.771-0.293-1.155-0.877-1.155
				C113.405,36.908,113.058,37.344,112.989,38.216z"/>
			<path fill="#331842" d="M120.073,42.107l-2.119,0.146c0.021-1.399,0.033-2.748,0.033-4.043c0-1.818-0.023-3.536-0.068-5.147
				l2.086-0.025c-0.021,1.037-0.033,2.103-0.033,3.193C119.972,38.112,120.005,40.072,120.073,42.107z"/>
			<path fill="#331842" d="M123.19,34.236c0,0.258-0.123,0.479-0.367,0.66c-0.244,0.181-0.539,0.271-0.885,0.271
				c-0.34,0-0.633-0.091-0.877-0.271c-0.244-0.182-0.367-0.402-0.367-0.66c0-0.254,0.123-0.472,0.367-0.654
				c0.244-0.182,0.537-0.271,0.877-0.271c0.346,0,0.641,0.091,0.885,0.271C123.067,33.765,123.19,33.982,123.19,34.236z
				 M120.907,42.247c-0.039-2.476-0.059-4.615-0.059-6.418l2.146-0.095c-0.068,1.727-0.104,3.441-0.104,5.146
				c0,0.457,0.004,0.912,0.01,1.365L120.907,42.247L120.907,42.247z"/>
			<path fill="#331842" d="M127.142,39.6l2.025,0.096c0,1.527-0.943,2.302-2.834,2.323c-0.023,0.004-0.043,0.006-0.061,0.006
				c-1.799,0-2.699-1.019-2.699-3.053v-0.19c0.057-2.184,1.016-3.286,2.879-3.308h0.068c1.713,0,2.57,0.731,2.57,2.195
				c0,0.085-0.002,0.17-0.008,0.254l-1.83,0.103v-0.152c0-0.77-0.293-1.155-0.879-1.155c-0.596,0-0.893,0.625-0.893,1.873V38.8
				c0.033,1.352,0.334,2.025,0.902,2.025h0.051c0.494-0.029,0.74-0.312,0.74-0.845C127.175,39.866,127.163,39.739,127.142,39.6z"/>
			<path fill="#331842" d="M132.259,34.236c0,0.258-0.123,0.479-0.367,0.66c-0.244,0.181-0.539,0.271-0.885,0.271
				c-0.34,0-0.633-0.091-0.877-0.271c-0.244-0.182-0.367-0.402-0.367-0.66c0-0.254,0.123-0.472,0.367-0.654
				c0.244-0.182,0.537-0.271,0.877-0.271c0.346,0,0.641,0.091,0.885,0.271C132.136,33.765,132.259,33.982,132.259,34.236z
				 M129.976,42.247c-0.039-2.476-0.059-4.615-0.059-6.418l2.146-0.095c-0.068,1.727-0.104,3.441-0.104,5.146
				c0,0.457,0.004,0.912,0.01,1.365L129.976,42.247L129.976,42.247z"/>
			<path fill="#331842" d="M134.149,33.671l1.932-0.095v2.101l1.627-0.03l0.025,1.199l-1.652,0.058v2.888
				c0,0.673,0.385,1.01,1.15,1.01c0.158,0,0.332-0.015,0.52-0.045l-0.076,1.396c-0.273,0.024-0.531,0.038-0.775,0.038
				c-1.795,0-2.707-0.689-2.742-2.069v-3.104l-1.396,0.063l-0.033-1.416l1.43,0.013L134.149,33.671z"/>
			<path fill="#331842" d="M141.735,35.512c1.869,0.075,2.803,0.776,2.803,2.102v4.507l-1.984,0.025l-0.068-0.604
				c-0.408,0.349-0.951,0.521-1.627,0.521c-0.289,0-0.602-0.033-0.936-0.103c-1.006-0.186-1.508-0.766-1.508-1.738
				c0-0.118,0.008-0.245,0.025-0.382c0.113-1.003,1.07-1.504,2.869-1.504c0.348,0,0.727,0.02,1.143,0.058v-0.736
				c0-0.597-0.254-0.895-0.758-0.895h-0.035c-0.039-0.005-0.076-0.008-0.111-0.008c-0.549,0-0.824,0.335-0.824,1.003v0.097
				l-2.027-0.127c0-1.478,0.953-2.216,2.861-2.216H141.735z M142.452,40.526v-1.117c-0.244-0.038-0.467-0.057-0.664-0.057
				c-0.518,0-0.869,0.129-1.057,0.387c-0.113,0.157-0.17,0.303-0.17,0.438c0,0.17,0.09,0.319,0.271,0.45
				c0.143,0.103,0.326,0.152,0.555,0.152C141.677,40.78,142.032,40.696,142.452,40.526z"/>
			<path fill="#331842" d="M148.703,39.6l2.024,0.096c0,1.527-0.942,2.302-2.834,2.323c-0.023,0.004-0.043,0.006-0.061,0.006
				c-1.799,0-2.699-1.019-2.699-3.053v-0.19c0.057-2.184,1.016-3.286,2.879-3.308h0.067c1.713,0,2.57,0.731,2.57,2.195
				c0,0.085-0.002,0.17-0.008,0.254l-1.83,0.103v-0.152c0-0.77-0.293-1.155-0.879-1.155c-0.596,0-0.893,0.625-0.893,1.873V38.8
				c0.033,1.352,0.334,2.025,0.902,2.025h0.052c0.493-0.029,0.739-0.312,0.739-0.845C148.735,39.866,148.724,39.739,148.703,39.6z"
				/>
			<path fill="#331842" d="M153.819,34.236c0,0.258-0.123,0.479-0.366,0.66c-0.244,0.181-0.539,0.271-0.886,0.271
				c-0.34,0-0.633-0.091-0.877-0.271c-0.244-0.182-0.366-0.402-0.366-0.66c0-0.254,0.122-0.472,0.366-0.654
				c0.244-0.182,0.537-0.271,0.877-0.271c0.347,0,0.642,0.091,0.886,0.271C153.696,33.765,153.819,33.982,153.819,34.236z
				 M151.537,42.247c-0.039-2.476-0.06-4.615-0.06-6.418l2.146-0.095c-0.067,1.727-0.104,3.441-0.104,5.146
				c0,0.457,0.004,0.912,0.01,1.365L151.537,42.247L151.537,42.247z"/>
			<path fill="#331842" d="M157.285,35.696c1.932,0,2.896,0.999,2.896,2.996c0,0.08-0.005,0.161-0.011,0.241
				c-0.078,2.161-1.104,3.254-3.082,3.274c-0.022,0.004-0.045,0.006-0.067,0.006c-1.879,0-2.817-1.021-2.817-3.064v-0.178
				C154.259,36.788,155.287,35.696,157.285,35.696z M157.003,37.144c-0.357,0.093-0.603,0.438-0.732,1.033
				c-0.078,0.355-0.119,0.715-0.119,1.073c0,0.241,0.018,0.484,0.053,0.729c0.09,0.608,0.383,0.925,0.877,0.945h0.06
				c0.461,0,0.774-0.227,0.944-0.68c0.144-0.376,0.213-0.822,0.213-1.339c0-0.127-0.002-0.256-0.008-0.388
				c-0.047-0.682-0.182-1.106-0.408-1.275c-0.143-0.102-0.312-0.152-0.512-0.152C157.257,37.093,157.134,37.109,157.003,37.144z"/>
			<path fill="#331842" d="M162.216,35.531l0.084,1.034c0.24-0.55,0.867-0.829,1.883-0.838h0.033c1,0,1.682,0.292,2.045,0.876
				c0.25,0.397,0.375,1.329,0.375,2.793c0,0.72-0.031,1.569-0.094,2.552h-2.062c0.072-1.308,0.108-2.32,0.108-3.04
				c0-0.359-0.008-0.647-0.024-0.863c-0.058-0.635-0.328-0.952-0.815-0.952c-0.488,0-0.795,0.17-0.92,0.509l0.084,4.602l-2,0.013
				c0-1.945-0.088-4.132-0.265-6.557L162.216,35.531z"/>
			<path fill="#331842" d="M170.11,35.696c1.97,0,2.953,0.976,2.953,2.926c0,0.237-0.015,0.491-0.041,0.762h-3.808
				c0,1.089,0.281,1.633,0.843,1.633h0.062c0.493-0.029,0.739-0.313,0.739-0.846c0-0.113-0.012-0.24-0.032-0.381l2.024-0.031
				c0,1.612-0.942,2.43-2.834,2.45c-0.022,0.004-0.043,0.006-0.062,0.006c-1.799,0-2.699-1.018-2.699-3.053v-0.189
				C167.313,36.788,168.265,35.696,170.11,35.696z M169.011,38.216h1.926v-0.151c0-0.771-0.293-1.155-0.879-1.155
				C169.429,36.908,169.08,37.344,169.011,38.216z"/>
			<path fill="#331842" d="M173.601,39.962l1.951-0.069v0.083c0,0.65,0.27,0.98,0.809,0.989h0.033c0.523,0,0.783-0.188,0.783-0.564
				v-0.044c-0.021-0.415-0.537-0.749-1.545-1.003s-1.613-0.683-1.818-1.282c-0.072-0.212-0.109-0.415-0.109-0.609
				c0-0.354,0.121-0.686,0.365-0.989c0.375-0.467,0.943-0.732,1.703-0.801c0.205-0.017,0.402-0.024,0.596-0.024
				c0.506,0,0.951,0.064,1.338,0.195c0.527,0.184,0.896,0.442,1.099,0.781c0.137,0.232,0.205,0.491,0.205,0.774
				c0,0.136-0.015,0.274-0.044,0.419l-1.821,0.031c0.019-0.105,0.024-0.203,0.024-0.292c0-0.424-0.182-0.649-0.545-0.68
				c-0.039-0.004-0.08-0.007-0.119-0.007c-0.375,0-0.627,0.144-0.758,0.426c-0.045,0.099-0.067,0.188-0.067,0.268
				c0,0.198,0.125,0.37,0.375,0.514c0.353,0.203,0.873,0.41,1.562,0.619c0.689,0.21,1.154,0.565,1.394,1.069
				c0.084,0.189,0.127,0.381,0.127,0.57c0,0.322-0.125,0.646-0.375,0.973c-0.396,0.521-1.013,0.822-1.849,0.906
				c-0.182,0.021-0.358,0.032-0.535,0.032c-0.625,0-1.205-0.121-1.737-0.362C173.958,41.576,173.612,40.936,173.601,39.962z"/>
			<path fill="#331842" d="M179.75,43.034c0.631-0.136,0.996-0.396,1.1-0.781c-0.438-0.108-0.725-0.24-0.861-0.394
				c-0.136-0.153-0.203-0.323-0.203-0.515c0-0.19,0.053-0.357,0.16-0.505c0.109-0.146,0.264-0.257,0.465-0.333
				c0.201-0.075,0.402-0.115,0.6-0.121h0.019c0.188,0,0.369,0.025,0.546,0.076c0.176,0.057,0.319,0.139,0.43,0.248
				c0.11,0.11,0.188,0.229,0.233,0.354c0.046,0.124,0.072,0.272,0.076,0.446v0.025c0,0.169-0.03,0.355-0.092,0.559
				c-0.063,0.217-0.173,0.422-0.324,0.615c-0.153,0.195-0.377,0.38-0.668,0.557c-0.293,0.176-0.729,0.279-1.31,0.313L179.75,43.034z
				"/>
			<path fill="#331842" d="M188.196,33.119l0.084,3.573c0.238-0.55,0.796-0.829,1.671-0.838h0.024c0.862,0,1.478,0.292,1.84,0.876
				c0.25,0.397,0.375,1.329,0.375,2.793c0,0.72-0.03,1.569-0.094,2.552h-2.146c0.073-1.308,0.11-2.32,0.11-3.04
				c0-0.359-0.011-0.646-0.024-0.863c-0.06-0.635-0.304-0.952-0.732-0.952c-0.432,0-0.711,0.17-0.836,0.509l0.086,4.602
				l-2.086,0.013c0-1.945-0.117-4.999-0.35-9.158L188.196,33.119z"/>
			<path fill="#331842" d="M196.201,35.512c1.866,0.075,2.801,0.776,2.801,2.102v4.507l-1.984,0.025l-0.066-0.604
				c-0.41,0.349-0.951,0.521-1.627,0.521c-0.289,0-0.602-0.033-0.938-0.103c-1.004-0.186-1.506-0.766-1.506-1.738
				c0-0.118,0.008-0.245,0.024-0.382c0.113-1.003,1.068-1.504,2.869-1.504c0.347,0,0.728,0.02,1.142,0.058v-0.736
				c0-0.597-0.252-0.895-0.758-0.895h-0.033c-0.041-0.005-0.078-0.008-0.111-0.008c-0.551,0-0.826,0.335-0.826,1.003v0.097
				l-2.027-0.127c0-1.478,0.955-2.216,2.861-2.216H196.201z M196.916,40.526v-1.117c-0.244-0.038-0.465-0.057-0.664-0.057
				c-0.517,0-0.869,0.129-1.058,0.387c-0.112,0.157-0.17,0.303-0.17,0.438c0,0.17,0.093,0.319,0.272,0.45
				c0.142,0.103,0.326,0.152,0.554,0.152C196.14,40.78,196.496,40.696,196.916,40.526z"/>
			<path fill="#331842" d="M204.28,33.671l1.935-0.095v2.101l1.627-0.03l0.025,1.199l-1.652,0.058v2.888
				c0,0.673,0.383,1.01,1.149,1.01c0.158,0,0.332-0.015,0.519-0.045l-0.076,1.396c-0.271,0.024-0.531,0.038-0.775,0.038
				c-1.793,0-2.707-0.689-2.74-2.069v-3.104l-1.396,0.063l-0.035-1.416l1.433,0.013L204.28,33.671z"/>
			<path fill="#331842" d="M211.341,35.696c1.969,0,2.953,0.976,2.953,2.926c0,0.237-0.015,0.491-0.041,0.762h-3.808
				c0,1.089,0.281,1.633,0.843,1.633h0.061c0.494-0.029,0.74-0.313,0.74-0.846c0-0.113-0.012-0.24-0.033-0.381l2.025-0.031
				c0,1.612-0.943,2.43-2.834,2.45c-0.023,0.004-0.043,0.006-0.062,0.006c-1.799,0-2.699-1.018-2.699-3.053v-0.189
				C208.544,36.788,209.496,35.696,211.341,35.696z M210.242,38.216h1.926v-0.151c0-0.771-0.293-1.155-0.879-1.155
				C210.66,36.908,210.31,37.344,210.242,38.216z"/>
			<path fill="#331842" d="M217.199,37.664l0.086,4.603l-2.086,0.013c0-1.946-0.089-4.132-0.265-6.557l1.565-0.127l0.084,1.033
				c0.24-0.508,0.795-0.797,1.67-0.869c0.131-0.009,0.256-0.013,0.375-0.013c0.687,0,1.209,0.167,1.566,0.501
				c0.414,0.398,0.625,1.031,0.631,1.898l-1.891,0.14c0.006-0.072,0.008-0.142,0.008-0.21c0-0.677-0.234-1.016-0.707-1.016h-0.033
				C217.66,37.082,217.324,37.283,217.199,37.664z"/>
			<path fill="#331842" d="M222.769,35.562l0.033,1.016c0.307-0.486,0.662-0.789,1.064-0.907c0.237-0.066,0.479-0.102,0.725-0.102
				c0.182,0,0.363,0.017,0.545,0.051c0.441,0.085,0.758,0.423,0.945,1.016c0.146-0.461,0.401-0.77,0.766-0.924
				c0.363-0.153,0.766-0.232,1.209-0.237h0.035c0.43,0,0.846,0.078,1.242,0.234c0.401,0.161,0.711,0.462,0.924,0.904
				s0.324,1.049,0.336,1.818v3.688l-1.838,0.031c0.072-1.393,0.109-2.577,0.109-3.556c0-0.978-0.25-1.504-0.748-1.579
				c-0.074-0.01-0.146-0.014-0.214-0.014c-0.397,0-0.704,0.19-0.92,0.571c-0.034,0.44-0.051,0.954-0.051,1.542
				c0,0.8,0.03,1.733,0.094,2.8l-2.129,0.013c0.078-1.638,0.119-2.83,0.119-3.579v-0.076c-0.006-0.74-0.203-1.13-0.588-1.168h-0.111
				c-0.346,0-0.682,0.147-1.004,0.443l0.017,4.646l-2.011,0.057V41.21c0-1.845-0.036-3.688-0.108-5.527L222.769,35.562z"/>
			<path fill="#331842" d="M233.489,34.236c0,0.258-0.122,0.479-0.366,0.66c-0.244,0.181-0.539,0.271-0.886,0.271
				c-0.34,0-0.633-0.091-0.877-0.271c-0.243-0.182-0.366-0.402-0.366-0.66c0-0.254,0.123-0.472,0.366-0.654
				c0.244-0.182,0.537-0.271,0.877-0.271c0.347,0,0.642,0.091,0.886,0.271C233.367,33.765,233.489,33.982,233.489,34.236z
				 M231.207,42.247c-0.039-2.476-0.06-4.615-0.06-6.418l2.146-0.095c-0.067,1.727-0.104,3.441-0.104,5.146
				c0,0.457,0.004,0.912,0.01,1.365L231.207,42.247L231.207,42.247z"/>
			<path fill="#331842" d="M235.524,35.531l0.084,1.034c0.24-0.55,0.867-0.829,1.884-0.838h0.032c1,0,1.683,0.292,2.045,0.876
				c0.25,0.397,0.375,1.329,0.375,2.793c0,0.72-0.03,1.569-0.094,2.552h-2.062c0.072-1.308,0.109-2.32,0.109-3.04
				c0-0.359-0.008-0.647-0.025-0.863c-0.057-0.635-0.328-0.952-0.815-0.952c-0.488,0-0.795,0.17-0.92,0.509l0.084,4.602l-2,0.013
				c0-1.945-0.089-4.132-0.265-6.557L235.524,35.531z"/>
			<path fill="#331842" d="M243.946,35.512c1.867,0.075,2.802,0.776,2.802,2.102v4.507l-1.984,0.025l-0.066-0.604
				c-0.41,0.349-0.951,0.521-1.627,0.521c-0.289,0-0.602-0.033-0.938-0.103c-1.004-0.186-1.506-0.766-1.506-1.738
				c0-0.118,0.008-0.245,0.024-0.382c0.113-1.003,1.067-1.504,2.869-1.504c0.347,0,0.728,0.02,1.142,0.058v-0.736
				c0-0.597-0.252-0.895-0.759-0.895h-0.032c-0.041-0.005-0.078-0.008-0.111-0.008c-0.551,0-0.826,0.335-0.826,1.003v0.097
				l-2.027-0.127c0-1.478,0.955-2.216,2.861-2.216H243.946z M244.662,40.526v-1.117c-0.244-0.038-0.466-0.057-0.664-0.057
				c-0.517,0-0.869,0.129-1.058,0.387c-0.112,0.157-0.17,0.303-0.17,0.438c0,0.17,0.092,0.319,0.272,0.45
				c0.142,0.103,0.326,0.152,0.554,0.152C243.886,40.78,244.242,40.696,244.662,40.526z"/>
			<path fill="#331842" d="M253.867,33.233c-0.033,1.431-0.052,2.931-0.052,4.5c0,1.431,0.015,2.92,0.043,4.469l-2.019,0.007
				l-0.067-0.972c-0.42,0.47-0.979,0.705-1.678,0.705c-1.744,0-2.615-0.994-2.615-2.983c0-0.042,0.004-0.085,0.01-0.127
				c0.033-1.993,0.896-2.99,2.589-2.99c0.067,0,0.139,0.003,0.213,0.008c0.58,0.024,1.047,0.26,1.403,0.703
				c0-0.938-0.03-2.046-0.094-3.318L253.867,33.233L253.867,33.233z M251.737,39.937l-0.043-2.196
				c-0.327-0.334-0.666-0.502-1.012-0.502c-0.144,0-0.285,0.028-0.427,0.083c-0.448,0.174-0.674,0.66-0.674,1.46
				c0,0.093,0.004,0.188,0.01,0.285c0.058,0.97,0.347,1.48,0.867,1.536c0.051,0.005,0.104,0.007,0.154,0.007
				C251.067,40.609,251.442,40.385,251.737,39.937z"/>
			<path fill="#331842" d="M257.537,35.696c1.932,0,2.896,0.999,2.896,2.996c0,0.08-0.004,0.161-0.011,0.241
				c-0.078,2.161-1.104,3.254-3.082,3.274c-0.022,0.004-0.045,0.006-0.067,0.006c-1.879,0-2.817-1.021-2.817-3.064v-0.178
				C254.511,36.788,255.539,35.696,257.537,35.696z M257.255,37.144c-0.357,0.093-0.603,0.438-0.732,1.033
				c-0.078,0.355-0.119,0.715-0.119,1.073c0,0.241,0.018,0.484,0.053,0.729c0.09,0.608,0.383,0.925,0.877,0.945h0.06
				c0.461,0,0.774-0.227,0.944-0.68c0.144-0.376,0.214-0.822,0.214-1.339c0-0.127-0.003-0.256-0.009-0.388
				c-0.047-0.682-0.182-1.106-0.407-1.275c-0.144-0.102-0.312-0.152-0.513-0.152C257.509,37.093,257.386,37.109,257.255,37.144z"/>
			<path fill="#331842" d="M126.327,51.296c1.971,0,2.955,0.977,2.955,2.928c0,0.236-0.014,0.49-0.043,0.762h-3.807
				c0,1.088,0.281,1.631,0.844,1.631h0.059c0.494-0.029,0.742-0.311,0.742-0.844c0-0.114-0.012-0.241-0.035-0.381l2.027-0.032
				c0,1.612-0.945,2.43-2.836,2.45c-0.023,0.005-0.043,0.007-0.059,0.007c-1.801,0-2.699-1.019-2.699-3.054v-0.19
				C123.532,52.388,124.481,51.296,126.327,51.296z M125.229,53.816h1.924v-0.152c0-0.771-0.293-1.155-0.877-1.155
				C125.646,52.509,125.298,52.944,125.229,53.816z"/>
			<path fill="#331842" d="M132.313,57.707l-2.119,0.146c0.021-1.4,0.033-2.749,0.033-4.044c0-1.819-0.023-3.535-0.068-5.147
				l2.086-0.024c-0.021,1.036-0.033,2.101-0.033,3.191C132.212,53.713,132.245,55.672,132.313,57.707z"/>
			<path fill="#331842" d="M136.272,60.348c0.035-1.427,0.051-2.942,0.051-4.552c0-1.464-0.014-3-0.041-4.607l2.018-0.007
				l0.068,0.978c0.42-0.474,0.979-0.711,1.678-0.711c1.742,0,2.613,1.026,2.613,3.079v0.127c-0.039,2.057-0.908,3.085-2.605,3.085
				c-0.068,0-0.137-0.002-0.205-0.007c-0.578-0.021-1.047-0.256-1.404-0.704c0,0.938,0.031,2.046,0.094,3.319H136.272z
				 M138.401,53.461l0.043,2.388c0.33,0.334,0.662,0.501,0.996,0.501c0.137,0,0.273-0.029,0.408-0.09
				c0.416-0.169,0.623-0.675,0.623-1.517c0-0.102-0.004-0.207-0.01-0.317c-0.057-1.031-0.332-1.575-0.826-1.632
				c-0.051-0.004-0.098-0.006-0.145-0.006C139.06,52.788,138.696,53.013,138.401,53.461z"/>
			<path fill="#331842" d="M145.597,53.264l0.086,4.603l-2.086,0.013c0-1.945-0.088-4.133-0.264-6.558l1.566-0.127l0.084,1.035
				c0.24-0.508,0.795-0.798,1.67-0.87c0.131-0.008,0.256-0.013,0.375-0.013c0.686,0,1.209,0.168,1.565,0.502
				c0.414,0.396,0.625,1.029,0.632,1.896l-1.891,0.14c0.006-0.07,0.008-0.142,0.008-0.209c0-0.677-0.234-1.016-0.707-1.016h-0.033
				C146.058,52.683,145.722,52.883,145.597,53.264z"/>
			<path fill="#331842" d="M152.179,49.836c0,0.259-0.121,0.479-0.365,0.66c-0.244,0.184-0.539,0.273-0.885,0.273
				c-0.342,0-0.635-0.092-0.879-0.273s-0.365-0.401-0.365-0.66c0-0.254,0.121-0.472,0.365-0.652
				c0.244-0.182,0.537-0.273,0.879-0.273c0.346,0,0.641,0.092,0.885,0.273C152.058,49.364,152.179,49.582,152.179,49.836z
				 M149.897,57.847c-0.039-2.477-0.062-4.614-0.062-6.417l2.146-0.097c-0.068,1.728-0.102,3.443-0.102,5.148
				c0,0.457,0.002,0.912,0.008,1.364L149.897,57.847L149.897,57.847z"/>
			<path fill="#331842" d="M154.019,51.163l0.035,1.017c0.305-0.486,0.66-0.789,1.064-0.908c0.237-0.067,0.479-0.103,0.723-0.103
				c0.182,0,0.363,0.019,0.545,0.051c0.443,0.086,0.758,0.425,0.945,1.017c0.147-0.461,0.401-0.77,0.766-0.923
				c0.363-0.154,0.768-0.234,1.211-0.238h0.033c0.432,0,0.846,0.078,1.244,0.234c0.401,0.16,0.711,0.463,0.924,0.904
				c0.213,0.442,0.324,1.048,0.336,1.818v3.688l-1.84,0.032c0.074-1.393,0.111-2.577,0.111-3.555c0-0.979-0.25-1.505-0.75-1.581
				c-0.074-0.008-0.146-0.013-0.214-0.013c-0.396,0-0.702,0.189-0.92,0.57c-0.032,0.44-0.051,0.955-0.051,1.543
				c0,0.801,0.03,1.732,0.094,2.8l-2.129,0.013c0.08-1.638,0.119-2.831,0.119-3.58v-0.076c-0.006-0.74-0.201-1.13-0.588-1.168
				h-0.109c-0.348,0-0.682,0.148-1.006,0.444l0.019,4.646l-2.01,0.059v-1.041c0-1.846-0.037-3.688-0.111-5.529L154.019,51.163z"/>
			<path fill="#331842" d="M165.123,51.296c1.971,0,2.955,0.977,2.955,2.928c0,0.236-0.015,0.49-0.043,0.762h-3.808
				c0,1.088,0.28,1.631,0.844,1.631h0.06c0.494-0.029,0.742-0.311,0.742-0.844c0-0.114-0.013-0.241-0.035-0.381l2.026-0.032
				c0,1.612-0.944,2.43-2.836,2.45c-0.022,0.005-0.043,0.007-0.06,0.007c-1.801,0-2.698-1.019-2.698-3.054v-0.19
				C162.328,52.388,163.276,51.296,165.123,51.296z M164.024,53.816h1.925v-0.152c0-0.771-0.294-1.155-0.878-1.155
				C164.44,52.509,164.093,52.944,164.024,53.816z"/>
			<path fill="#331842" d="M170.981,53.264l0.084,4.603l-2.086,0.013c0-1.945-0.088-4.133-0.265-6.558l1.566-0.127l0.086,1.035
				c0.238-0.508,0.795-0.798,1.668-0.87c0.131-0.008,0.256-0.013,0.375-0.013c0.688,0,1.209,0.168,1.568,0.502
				c0.414,0.396,0.623,1.029,0.629,1.896l-1.891,0.14c0.006-0.07,0.01-0.142,0.01-0.209c0-0.677-0.236-1.016-0.707-1.016h-0.035
				C171.44,52.683,171.106,52.883,170.981,53.264z"/>
			<path fill="#331842" d="M179.776,49.271l1.935-0.097v2.103l1.627-0.032l0.024,1.2l-1.651,0.057v2.89
				c0,0.673,0.383,1.009,1.149,1.009c0.158,0,0.332-0.016,0.519-0.044l-0.076,1.396c-0.271,0.025-0.531,0.038-0.775,0.038
				c-1.793,0-2.707-0.688-2.74-2.068v-3.104l-1.396,0.063l-0.035-1.415l1.433,0.013L179.776,49.271z"/>
			<path fill="#331842" d="M186.837,51.296c1.969,0,2.953,0.977,2.953,2.928c0,0.236-0.015,0.49-0.041,0.762h-3.808
				c0,1.088,0.281,1.631,0.843,1.631h0.061c0.494-0.029,0.74-0.311,0.74-0.844c0-0.114-0.012-0.241-0.033-0.381l2.025-0.032
				c0,1.612-0.943,2.43-2.834,2.45c-0.023,0.005-0.043,0.007-0.062,0.007c-1.8,0-2.699-1.019-2.699-3.054v-0.19
				C184.041,52.388,184.992,51.296,186.837,51.296z M185.737,53.816h1.927v-0.152c0-0.771-0.293-1.155-0.879-1.155
				C186.155,52.509,185.806,52.944,185.737,53.816z"/>
			<path fill="#331842" d="M191.802,51.163l0.033,1.017c0.307-0.486,0.662-0.789,1.063-0.908c0.238-0.067,0.479-0.103,0.726-0.103
				c0.182,0,0.362,0.019,0.545,0.051c0.44,0.086,0.758,0.425,0.945,1.017c0.145-0.461,0.401-0.77,0.766-0.923
				c0.363-0.154,0.766-0.234,1.209-0.238h0.035c0.43,0,0.846,0.078,1.242,0.234c0.401,0.16,0.711,0.463,0.924,0.904
				c0.213,0.442,0.324,1.048,0.336,1.818v3.688l-1.838,0.032c0.071-1.393,0.108-2.577,0.108-3.555c0-0.979-0.25-1.505-0.748-1.581
				c-0.073-0.008-0.146-0.013-0.213-0.013c-0.397,0-0.705,0.189-0.92,0.57c-0.035,0.44-0.052,0.955-0.052,1.543
				c0,0.801,0.031,1.732,0.095,2.8l-2.129,0.013c0.077-1.638,0.118-2.831,0.118-3.58v-0.076c-0.006-0.74-0.202-1.13-0.588-1.168
				h-0.11c-0.347,0-0.683,0.148-1.004,0.444l0.016,4.646l-2.01,0.059v-1.041c0-1.846-0.037-3.688-0.108-5.529L191.802,51.163z"/>
			<path fill="#331842" d="M203.433,51.112c1.869,0.076,2.803,0.776,2.803,2.101v4.507l-1.984,0.025l-0.067-0.603
				c-0.408,0.347-0.951,0.521-1.627,0.521c-0.289,0-0.603-0.034-0.937-0.102c-1.006-0.188-1.508-0.767-1.508-1.739
				c0-0.118,0.008-0.245,0.025-0.381c0.113-1.003,1.07-1.505,2.869-1.505c0.348,0,0.727,0.02,1.143,0.058v-0.736
				c0-0.597-0.254-0.896-0.758-0.896h-0.035c-0.039-0.004-0.076-0.006-0.111-0.006c-0.549,0-0.824,0.334-0.824,1.003v0.095
				l-2.026-0.127c0-1.477,0.953-2.215,2.86-2.215H203.433z M204.149,56.127V55.01c-0.244-0.037-0.467-0.058-0.664-0.058
				c-0.519,0-0.868,0.13-1.057,0.388c-0.113,0.156-0.171,0.304-0.171,0.438c0,0.17,0.091,0.32,0.271,0.451
				c0.143,0.102,0.326,0.151,0.555,0.151C203.375,56.381,203.729,56.296,204.149,56.127z"/>
			<path fill="#331842" d="M209.989,55.562l1.951-0.069v0.082c0,0.652,0.271,0.982,0.81,0.99h0.033c0.522,0,0.782-0.188,0.782-0.564
				v-0.045c-0.021-0.414-0.537-0.749-1.545-1.003s-1.612-0.681-1.817-1.282c-0.072-0.211-0.109-0.414-0.109-0.608
				c0-0.355,0.121-0.687,0.365-0.99c0.375-0.465,0.942-0.731,1.703-0.8c0.205-0.018,0.401-0.025,0.596-0.025
				c0.506,0,0.951,0.066,1.338,0.197c0.527,0.182,0.895,0.441,1.098,0.78c0.137,0.232,0.205,0.49,0.205,0.773
				c0,0.136-0.014,0.275-0.043,0.419l-1.822,0.032c0.019-0.105,0.025-0.203,0.025-0.292c0-0.423-0.182-0.649-0.545-0.68
				c-0.039-0.004-0.08-0.006-0.119-0.006c-0.375,0-0.627,0.142-0.758,0.425c-0.045,0.098-0.068,0.187-0.068,0.267
				c0,0.199,0.125,0.371,0.375,0.515c0.352,0.203,0.873,0.409,1.563,0.619c0.688,0.209,1.154,0.565,1.393,1.069
				c0.084,0.19,0.127,0.381,0.127,0.571c0,0.32-0.125,0.646-0.375,0.971c-0.396,0.521-1.012,0.823-1.848,0.908
				c-0.182,0.021-0.359,0.031-0.535,0.031c-0.625,0-1.205-0.12-1.738-0.361C210.347,57.177,210.001,56.535,209.989,55.562z"/>
			<path fill="#331842" d="M219.136,51.296c1.93,0,2.895,0.999,2.895,2.996c0,0.081-0.002,0.161-0.008,0.241
				c-0.08,2.163-1.107,3.255-3.082,3.275c-0.023,0.005-0.047,0.007-0.068,0.007c-1.879,0-2.817-1.022-2.817-3.066v-0.178
				C216.11,52.388,217.138,51.296,219.136,51.296z M218.854,52.743c-0.356,0.094-0.603,0.438-0.731,1.035
				c-0.08,0.354-0.119,0.713-0.119,1.072c0,0.24,0.018,0.484,0.051,0.729c0.092,0.609,0.383,0.925,0.877,0.945h0.061
				c0.459,0,0.773-0.227,0.945-0.679c0.141-0.378,0.213-0.823,0.213-1.341c0-0.127-0.004-0.256-0.01-0.387
				c-0.045-0.682-0.182-1.105-0.408-1.276c-0.143-0.102-0.313-0.151-0.512-0.151C219.106,52.692,218.985,52.71,218.854,52.743z"/>
			<path fill="#331842" d="M224.815,48.833c-0.062,1.274-0.094,2.381-0.094,3.32c0.301-0.402,0.684-0.637,1.149-0.705
				c0.078-0.004,0.156-0.006,0.229-0.006c1.853,0,2.797,0.996,2.836,2.989v0.113c0,1.998-0.983,2.996-2.955,2.996
				c-0.472,0-0.916-0.233-1.336-0.704l-0.067,0.972l-2.019-0.007c0.026-1.549,0.041-3.037,0.041-4.469
				c0-1.569-0.017-3.069-0.052-4.501L224.815,48.833L224.815,48.833z M224.722,53.34l-0.043,2.196
				c0.295,0.449,0.67,0.673,1.125,0.673c0.051,0,0.102-0.002,0.152-0.006c0.522-0.055,0.812-0.578,0.869-1.568
				c0.006-0.102,0.008-0.197,0.008-0.292c0-0.812-0.222-1.297-0.664-1.452c-0.137-0.048-0.271-0.07-0.4-0.07
				C225.412,52.819,225.062,52.993,224.722,53.34z"/>
			<path fill="#331842" d="M231.875,53.264l0.086,4.603l-2.086,0.013c0-1.945-0.088-4.133-0.265-6.558l1.565-0.127l0.084,1.035
				c0.24-0.508,0.796-0.798,1.671-0.87c0.131-0.008,0.256-0.013,0.375-0.013c0.687,0,1.209,0.168,1.565,0.502
				c0.414,0.396,0.625,1.029,0.631,1.896l-1.891,0.14c0.006-0.07,0.008-0.142,0.008-0.209c0-0.677-0.234-1.016-0.707-1.016h-0.033
				C232.335,52.683,232,52.883,231.875,53.264z"/>
			<path fill="#331842" d="M238.841,51.296c1.969,0,2.953,0.977,2.953,2.928c0,0.236-0.015,0.49-0.041,0.762h-3.808
				c0,1.088,0.281,1.631,0.843,1.631h0.061c0.494-0.029,0.74-0.311,0.74-0.844c0-0.114-0.012-0.241-0.033-0.381l2.025-0.032
				c0,1.612-0.943,2.43-2.834,2.45c-0.023,0.005-0.043,0.007-0.062,0.007c-1.799,0-2.699-1.019-2.699-3.054v-0.19
				C236.044,52.388,236.996,51.296,238.841,51.296z M237.742,53.816h1.926v-0.152c0-0.771-0.293-1.155-0.879-1.155
				C238.16,52.509,237.81,52.944,237.742,53.816z"/>
			<path fill="#331842" d="M115.151,66.731l0.084,1.034c0.24-0.551,0.867-0.829,1.883-0.839h0.033c1,0,1.682,0.292,2.045,0.876
				c0.25,0.398,0.375,1.329,0.375,2.794c0,0.72-0.031,1.569-0.094,2.552h-2.061c0.072-1.309,0.109-2.32,0.109-3.04
				c0-0.36-0.008-0.647-0.025-0.863c-0.057-0.635-0.328-0.952-0.816-0.952c-0.488,0-0.795,0.169-0.92,0.508l0.084,4.603l-2,0.013
				c0-1.946-0.088-4.132-0.264-6.557L115.151,66.731z"/>
			<path fill="#331842" d="M123.274,66.896c1.932,0,2.896,0.998,2.896,2.996c0,0.08-0.004,0.159-0.01,0.24
				c-0.078,2.162-1.105,3.255-3.082,3.275c-0.023,0.004-0.045,0.006-0.068,0.006c-1.879,0-2.818-1.021-2.818-3.064v-0.179
				C120.249,67.988,121.276,66.896,123.274,66.896z M122.993,68.344c-0.357,0.094-0.602,0.438-0.732,1.034
				c-0.078,0.355-0.119,0.714-0.119,1.073c0,0.241,0.018,0.484,0.053,0.729c0.09,0.608,0.383,0.925,0.877,0.945h0.059
				c0.461,0,0.775-0.227,0.945-0.68c0.143-0.376,0.213-0.822,0.213-1.339c0-0.127-0.002-0.256-0.008-0.389
				c-0.047-0.681-0.182-1.105-0.408-1.274c-0.143-0.103-0.312-0.152-0.512-0.152C123.247,68.293,123.124,68.31,122.993,68.344z"/>
			<path fill="#331842" d="M130.122,70.8l2.025,0.097c0,1.526-0.943,2.302-2.834,2.322c-0.023,0.005-0.043,0.007-0.061,0.007
				c-1.799,0-2.699-1.019-2.699-3.054v-0.189c0.057-2.185,1.016-3.286,2.879-3.309h0.068c1.713,0,2.57,0.732,2.57,2.196
				c0,0.085-0.002,0.17-0.008,0.254l-1.83,0.103v-0.152c0-0.77-0.293-1.155-0.879-1.155c-0.596,0-0.893,0.625-0.893,1.873V70
				c0.033,1.352,0.334,2.025,0.902,2.025h0.051c0.494-0.029,0.74-0.313,0.74-0.845C130.155,71.066,130.144,70.939,130.122,70.8z"/>
			<path fill="#331842" d="M135.239,65.437c0,0.258-0.123,0.478-0.367,0.66c-0.244,0.182-0.539,0.271-0.885,0.271
				c-0.34,0-0.633-0.091-0.877-0.271c-0.244-0.184-0.367-0.402-0.367-0.66c0-0.254,0.123-0.473,0.367-0.654
				c0.244-0.182,0.537-0.272,0.877-0.272c0.346,0,0.641,0.092,0.885,0.272C135.116,64.965,135.239,65.183,135.239,65.437z
				 M132.956,73.447c-0.039-2.476-0.059-4.615-0.059-6.418l2.146-0.095c-0.068,1.727-0.104,3.441-0.104,5.146
				c0,0.457,0.004,0.912,0.01,1.365L132.956,73.447L132.956,73.447z"/>
			<path fill="#331842" d="M139.065,66.896c1.932,0,2.896,0.998,2.896,2.996c0,0.08-0.004,0.159-0.01,0.24
				c-0.078,2.162-1.104,3.255-3.082,3.275c-0.023,0.004-0.045,0.006-0.068,0.006c-1.879,0-2.818-1.021-2.818-3.064v-0.179
				C136.04,67.988,137.067,66.896,139.065,66.896z M138.784,68.344c-0.357,0.094-0.602,0.438-0.732,1.034
				c-0.078,0.355-0.119,0.714-0.119,1.073c0,0.241,0.018,0.484,0.053,0.729c0.09,0.608,0.383,0.925,0.877,0.945h0.059
				c0.461,0,0.775-0.227,0.945-0.68c0.143-0.376,0.213-0.822,0.213-1.339c0-0.127-0.002-0.256-0.008-0.389
				c-0.047-0.681-0.182-1.105-0.408-1.274c-0.143-0.103-0.312-0.152-0.512-0.152C139.038,68.293,138.915,68.31,138.784,68.344z"/>
			<path fill="#331842" d="M143.998,66.731l0.084,1.034c0.239-0.551,0.867-0.829,1.883-0.839h0.033c1,0,1.682,0.292,2.045,0.876
				c0.25,0.398,0.375,1.329,0.375,2.794c0,0.72-0.031,1.569-0.094,2.552h-2.062c0.071-1.309,0.108-2.32,0.108-3.04
				c0-0.36-0.008-0.647-0.024-0.863c-0.058-0.635-0.328-0.952-0.816-0.952c-0.487,0-0.795,0.169-0.92,0.508l0.084,4.603l-2,0.013
				c0-1.946-0.088-4.132-0.264-6.557L143.998,66.731z"/>
			<path fill="#331842" d="M151.892,66.896c1.969,0,2.953,0.976,2.953,2.926c0,0.237-0.014,0.491-0.041,0.762h-3.807
				c0,1.088,0.28,1.632,0.842,1.632h0.061c0.494-0.029,0.74-0.312,0.74-0.845c0-0.114-0.012-0.241-0.033-0.381l2.025-0.031
				c0,1.612-0.943,2.43-2.834,2.45c-0.023,0.004-0.043,0.006-0.062,0.006c-1.799,0-2.698-1.018-2.698-3.053v-0.19
				C149.095,67.988,150.046,66.896,151.892,66.896z M150.792,69.416h1.926v-0.151c0-0.771-0.293-1.155-0.879-1.155
				C151.21,68.108,150.86,68.545,150.792,69.416z"/>
			<path fill="#331842" d="M155.382,71.162l1.951-0.07v0.083c0,0.651,0.27,0.981,0.809,0.99h0.033c0.523,0,0.783-0.188,0.783-0.564
				v-0.044c-0.021-0.415-0.537-0.749-1.545-1.004c-1.008-0.254-1.613-0.682-1.818-1.281c-0.072-0.212-0.109-0.415-0.109-0.609
				c0-0.354,0.121-0.686,0.365-0.99c0.375-0.466,0.943-0.731,1.703-0.8c0.205-0.018,0.402-0.024,0.596-0.024
				c0.506,0,0.951,0.064,1.338,0.195c0.527,0.184,0.895,0.442,1.098,0.781c0.138,0.232,0.205,0.491,0.205,0.774
				c0,0.135-0.014,0.274-0.043,0.419l-1.821,0.03c0.018-0.104,0.024-0.203,0.024-0.292c0-0.423-0.182-0.648-0.545-0.679
				c-0.039-0.005-0.08-0.007-0.119-0.007c-0.375,0-0.627,0.143-0.758,0.426c-0.045,0.098-0.068,0.187-0.068,0.268
				c0,0.197,0.125,0.369,0.375,0.514c0.353,0.203,0.873,0.409,1.563,0.619s1.154,0.565,1.393,1.068
				c0.084,0.19,0.127,0.382,0.127,0.571c0,0.322-0.125,0.646-0.375,0.972c-0.396,0.521-1.012,0.823-1.848,0.907
				c-0.182,0.021-0.359,0.032-0.535,0.032c-0.625,0-1.205-0.121-1.738-0.362C155.739,72.776,155.394,72.135,155.382,71.162z"/>
			<path fill="#331842" d="M171.144,64.434c-0.033,1.43-0.051,2.931-0.051,4.5c0,1.431,0.014,2.92,0.043,4.469l-2.018,0.007
				l-0.068-0.972c-0.42,0.47-0.98,0.705-1.678,0.705c-1.744,0-2.615-0.994-2.615-2.983c0-0.042,0.004-0.085,0.01-0.127
				c0.033-1.993,0.896-2.99,2.588-2.99c0.068,0,0.139,0.003,0.213,0.007c0.58,0.025,1.047,0.261,1.404,0.704
				c0-0.938-0.031-2.046-0.094-3.318L171.144,64.434L171.144,64.434z M169.015,71.137l-0.043-2.196
				c-0.328-0.335-0.666-0.502-1.012-0.502c-0.144,0-0.285,0.027-0.426,0.083c-0.449,0.174-0.675,0.66-0.675,1.46
				c0,0.093,0.005,0.188,0.011,0.285c0.057,0.97,0.346,1.48,0.866,1.535c0.052,0.006,0.104,0.008,0.154,0.008
				C168.345,71.81,168.72,71.585,169.015,71.137z"/>
			<path fill="#331842" d="M174.585,66.896c1.969,0,2.953,0.976,2.953,2.926c0,0.237-0.015,0.491-0.041,0.762h-3.808
				c0,1.088,0.281,1.632,0.843,1.632h0.061c0.494-0.029,0.74-0.312,0.74-0.845c0-0.114-0.013-0.241-0.033-0.381l2.025-0.031
				c0,1.612-0.943,2.43-2.834,2.45c-0.023,0.004-0.043,0.006-0.062,0.006c-1.8,0-2.699-1.018-2.699-3.053v-0.19
				C171.789,67.988,172.739,66.896,174.585,66.896z M173.485,69.416h1.927v-0.151c0-0.771-0.293-1.155-0.879-1.155
				C173.903,68.108,173.554,68.545,173.485,69.416z"/>
			<path fill="#331842" d="M181.423,73.174c0.01-1.426,0.016-2.895,0.016-4.404c0-1.516-0.006-3.069-0.016-4.665
				c0.652-0.061,1.254-0.089,1.805-0.089c1.533,0,2.662,0.229,3.389,0.686c0.988,0.626,1.504,1.783,1.551,3.472v0.457
				c0,1.447-0.188,2.48-0.562,3.099c-0.414,0.682-1.172,1.135-2.272,1.357c-0.638,0.132-1.334,0.197-2.097,0.197
				C182.667,73.282,182.063,73.246,181.423,73.174z M183.535,65.919c-0.099,1.393-0.146,2.737-0.146,4.037
				c0,0.491,0.006,0.975,0.016,1.447c0.199,0.034,0.39,0.051,0.57,0.051c0.5,0,0.92-0.129,1.262-0.388
				c0.466-0.348,0.697-1.125,0.697-2.336v-0.025c-0.006-1.219-0.231-2.019-0.683-2.398c-0.346-0.287-0.758-0.433-1.233-0.433
				C183.867,65.874,183.705,65.889,183.535,65.919z"/>
			<path fill="#331842" d="M188.875,73.174c0.01-1.426,0.016-2.895,0.016-4.404c0-1.516-0.006-3.069-0.016-4.665
				c0.651-0.061,1.254-0.089,1.805-0.089c1.533,0,2.662,0.229,3.389,0.686c0.988,0.626,1.504,1.783,1.551,3.472v0.457
				c0,1.447-0.188,2.48-0.562,3.099c-0.414,0.682-1.173,1.135-2.272,1.357c-0.638,0.132-1.334,0.197-2.097,0.197
				C190.119,73.282,189.515,73.246,188.875,73.174z M190.985,65.919c-0.098,1.393-0.146,2.737-0.146,4.037
				c0,0.491,0.007,0.975,0.017,1.447c0.199,0.034,0.39,0.051,0.569,0.051c0.5,0,0.921-0.129,1.263-0.388
				c0.465-0.348,0.696-1.125,0.696-2.336v-0.025c-0.006-1.219-0.231-2.019-0.682-2.398c-0.346-0.287-0.758-0.433-1.233-0.433
				C191.317,65.874,191.155,65.889,190.985,65.919z"/>
			<path fill="#331842" d="M203.205,64.312c-0.068,2.849-0.134,5.916-0.195,9.204h-1.934v-3.7h-2.427v3.401l-2.323-0.007
				c0.065-1.553,0.102-3.071,0.102-4.558c0-1.48-0.035-2.928-0.102-4.342h2.221l-0.094,3.7l2.428,0.076v-3.93L203.205,64.312z"/>
			<path fill="#331842" d="M210.903,64.312c-0.067,2.849-0.135,5.916-0.194,9.204h-1.935v-3.7h-2.428v3.401l-2.324-0.007
				c0.067-1.553,0.103-3.071,0.103-4.558c0-1.48-0.033-2.928-0.103-4.342h2.224l-0.095,3.7l2.429,0.076v-3.93L210.903,64.312z"/>
			<path fill="#331842" d="M214.812,66.871l2.23-0.134c-0.051,1.27-0.076,2.314-0.076,3.136c0,0.311,0.006,0.586,0.018,0.832
				c0.021,0.905,0.295,1.371,0.816,1.396c0.035,0.004,0.066,0.006,0.094,0.006c0.465,0,0.762-0.198,0.887-0.598
				c0.068-0.231,0.102-0.783,0.102-1.655c0-0.698-0.022-1.601-0.067-2.704l2.097-0.114c0.021,1.29,0.032,2.399,0.032,3.326
				c0,1.155-0.019,2.026-0.051,2.615c-0.058,1.058-0.463,1.86-1.22,2.412c-0.68,0.499-1.637,0.749-2.868,0.749
				c-0.144,0-0.287-0.006-0.435-0.014l-0.238-1.549c0.107,0.004,0.214,0.006,0.314,0.006c0.953,0,1.607-0.125,1.959-0.374
				c0.363-0.259,0.545-0.673,0.545-1.244v-0.102c-0.324,0.381-0.82,0.571-1.49,0.571h-0.119c-0.731-0.025-1.301-0.24-1.702-0.646
				c-0.404-0.404-0.623-0.972-0.66-1.701C214.942,70.358,214.886,68.953,214.812,66.871z"/>
			<path fill="#331842" d="M224.912,73.174c0.01-1.426,0.016-2.895,0.016-4.404c0-1.516-0.006-3.069-0.016-4.665
				c0.651-0.061,1.254-0.089,1.805-0.089c1.533,0,2.662,0.229,3.389,0.686c0.988,0.626,1.504,1.783,1.551,3.472v0.457
				c0,1.447-0.188,2.48-0.563,3.099c-0.413,0.682-1.172,1.135-2.272,1.357c-0.637,0.132-1.334,0.197-2.096,0.197
				C226.155,73.282,225.552,73.246,224.912,73.174z M227.022,65.919c-0.099,1.393-0.146,2.737-0.146,4.037
				c0,0.491,0.006,0.975,0.017,1.447c0.198,0.034,0.39,0.051,0.569,0.051c0.5,0,0.92-0.129,1.263-0.388
				c0.465-0.348,0.696-1.125,0.696-2.336v-0.025c-0.006-1.219-0.231-2.019-0.682-2.398c-0.346-0.287-0.758-0.433-1.234-0.433
				C227.354,65.874,227.192,65.889,227.022,65.919z"/>
			<path fill="#331842" d="M234.687,72.927l-2.121,0.146c0-3.105-0.068-6.021-0.203-8.747l2.426-0.152
				C234.726,67.047,234.692,69.965,234.687,72.927z"/>
			<path fill="#331842" d="M242.485,64.312c-0.067,2.849-0.133,5.916-0.194,9.204h-1.935v-3.7h-2.426v3.401l-2.324-0.007
				c0.065-1.553,0.103-3.071,0.103-4.558c0-1.48-0.035-2.928-0.103-4.342h2.222l-0.095,3.7l2.429,0.076v-3.93L242.485,64.312z"/>
			<path fill="#331842" d="M244.479,73.447c-0.342,0-0.633-0.091-0.877-0.273c-0.244-0.182-0.367-0.398-0.367-0.652
				c0-0.26,0.123-0.479,0.367-0.66c0.244-0.184,0.535-0.273,0.877-0.273c0.347,0,0.642,0.092,0.885,0.273
				c0.244,0.182,0.367,0.4,0.367,0.66c0,0.254-0.123,0.472-0.367,0.652C245.121,73.356,244.826,73.447,244.479,73.447z"/>
			<path fill="#331842" d="M121.419,83.125l-1.891,0.006V82.96c0-0.995-0.375-1.492-1.123-1.492c-0.801,0-1.201,0.92-1.201,2.756
				c0,2.068,0.42,3.104,1.26,3.104h0.008c0.842-0.005,1.262-0.513,1.262-1.522v-0.63h2.111v0.478c0,2.106-1.162,3.21-3.482,3.307
				c-0.068,0.005-0.137,0.007-0.205,0.007c-2.186,0-3.277-1.565-3.277-4.696c0-3.064,1.123-4.597,3.371-4.597
				c2.117,0,3.176,1.023,3.176,3.072C121.427,82.866,121.425,82.993,121.419,83.125z"/>
			<path fill="#331842" d="M125.345,82.496c1.93,0,2.895,0.999,2.895,2.996c0,0.08-0.002,0.161-0.008,0.241
				c-0.08,2.163-1.107,3.255-3.082,3.274c-0.023,0.006-0.047,0.008-0.068,0.008c-1.879,0-2.818-1.022-2.818-3.066v-0.178
				C122.319,83.588,123.347,82.496,125.345,82.496z M125.063,83.943c-0.357,0.094-0.602,0.438-0.732,1.035
				c-0.08,0.354-0.119,0.713-0.119,1.071c0,0.241,0.018,0.484,0.051,0.73c0.092,0.609,0.383,0.924,0.877,0.945h0.061
				c0.459,0,0.773-0.228,0.945-0.68c0.141-0.377,0.213-0.822,0.213-1.34c0-0.127-0.004-0.256-0.01-0.387
				c-0.045-0.682-0.182-1.106-0.408-1.276c-0.143-0.102-0.312-0.151-0.512-0.151C125.315,83.893,125.194,83.91,125.063,83.943z"/>
			<path fill="#331842" d="M130.274,82.331l0.086,1.035c0.238-0.551,0.865-0.83,1.881-0.838h0.035c0.998,0,1.68,0.292,2.043,0.876
				c0.25,0.396,0.375,1.328,0.375,2.793c0,0.719-0.031,1.569-0.094,2.552h-2.061c0.074-1.308,0.111-2.321,0.111-3.041
				c0-0.358-0.01-0.646-0.025-0.862c-0.057-0.636-0.33-0.952-0.818-0.952c-0.488,0-0.795,0.17-0.92,0.508l0.086,4.603l-2.002,0.014
				c0-1.947-0.088-4.134-0.264-6.559L130.274,82.331z"/>
			<path fill="#331842" d="M136.823,80.472l1.934-0.097v2.103l1.627-0.032l0.025,1.2l-1.652,0.057v2.889
				c0,0.674,0.383,1.01,1.15,1.01c0.158,0,0.332-0.016,0.518-0.044l-0.076,1.396c-0.271,0.025-0.531,0.038-0.775,0.038
				c-1.793,0-2.707-0.69-2.74-2.069v-3.104l-1.396,0.063l-0.035-1.415l1.432,0.014L136.823,80.472z"/>
			<path fill="#331842" d="M143.499,81.036c0,0.259-0.121,0.479-0.365,0.66c-0.244,0.183-0.539,0.272-0.885,0.272
				c-0.342,0-0.635-0.091-0.879-0.272c-0.244-0.182-0.365-0.401-0.365-0.66c0-0.254,0.121-0.472,0.365-0.653
				c0.244-0.183,0.537-0.272,0.879-0.272c0.346,0,0.641,0.091,0.885,0.272C143.378,80.564,143.499,80.782,143.499,81.036z
				 M141.218,89.047c-0.039-2.476-0.061-4.613-0.061-6.417l2.146-0.096c-0.068,1.727-0.102,3.442-0.102,5.148
				c0,0.457,0.002,0.91,0.008,1.363L141.218,89.047L141.218,89.047z"/>
			<path fill="#331842" d="M145.534,82.331l0.086,1.035c0.238-0.551,0.865-0.83,1.881-0.838h0.035c0.999,0,1.68,0.292,2.043,0.876
				c0.25,0.396,0.375,1.328,0.375,2.793c0,0.719-0.031,1.569-0.095,2.552h-2.06c0.074-1.308,0.112-2.321,0.112-3.041
				c0-0.358-0.011-0.646-0.025-0.862c-0.057-0.636-0.33-0.952-0.818-0.952c-0.488,0-0.795,0.17-0.92,0.508l0.086,4.603l-2.002,0.014
				c0-1.947-0.088-4.134-0.264-6.559L145.534,82.331z"/>
			<path fill="#331842" d="M155.082,89.016l-0.086-1.035c-0.238,0.551-0.879,0.827-1.925,0.832
				c-0.012,0.004-0.021,0.006-0.024,0.006c-1.033,0-1.717-0.347-2.053-1.041c-0.228-0.461-0.341-1.415-0.341-2.862
				c0-0.745,0.031-1.623,0.095-2.635h2.067c-0.112,1.422-0.17,2.516-0.17,3.282c0,0.385,0.015,0.686,0.043,0.9
				c0.084,0.66,0.371,0.99,0.858,0.99c0.488,0,0.795-0.172,0.92-0.515l-0.086-4.405l2.002-0.013c0,1.819,0.089,3.938,0.265,6.359
				L155.082,89.016z M152.646,81.074c0.664-0.588,1.209-1.148,1.635-1.682l1.396,0.824c-0.602,0.439-1.271,0.979-2.01,1.618
				L152.646,81.074z"/>
			<path fill="#331842" d="M160.123,82.496c1.971,0,2.955,0.977,2.955,2.927c0,0.236-0.015,0.49-0.043,0.763h-3.808
				c0,1.087,0.28,1.631,0.844,1.631h0.06c0.494-0.029,0.742-0.312,0.742-0.844c0-0.114-0.013-0.241-0.035-0.382l2.026-0.031
				c0,1.611-0.944,2.43-2.836,2.449c-0.022,0.006-0.043,0.008-0.06,0.008c-1.801,0-2.698-1.019-2.698-3.055v-0.189
				C157.328,83.588,158.276,82.496,160.123,82.496z M159.024,85.017h1.925v-0.152c0-0.771-0.294-1.155-0.878-1.155
				C159.44,83.709,159.093,84.145,159.024,85.017z"/>
			<path fill="#331842" d="M170.375,86.4l2.026,0.095c0,1.528-0.944,2.302-2.836,2.323c-0.022,0.004-0.043,0.007-0.06,0.007
				c-1.801,0-2.698-1.019-2.698-3.054v-0.19c0.057-2.184,1.016-3.286,2.877-3.307h0.067c1.715,0,2.572,0.73,2.572,2.195
				c0,0.085-0.004,0.17-0.01,0.255l-1.83,0.102v-0.152c0-0.771-0.293-1.154-0.877-1.154c-0.596,0-0.895,0.624-0.895,1.872v0.21
				c0.035,1.35,0.336,2.023,0.901,2.023h0.052c0.494-0.028,0.741-0.311,0.741-0.844C170.41,86.667,170.397,86.54,170.375,86.4z"/>
			<path fill="#331842" d="M176.104,82.496c1.933,0,2.896,0.999,2.896,2.996c0,0.08-0.004,0.161-0.01,0.241
				c-0.078,2.163-1.105,3.255-3.082,3.274c-0.023,0.006-0.045,0.008-0.068,0.008c-1.879,0-2.817-1.022-2.817-3.066v-0.178
				C173.08,83.588,174.106,82.496,176.104,82.496z M175.824,83.943c-0.357,0.094-0.603,0.438-0.732,1.035
				c-0.078,0.354-0.119,0.713-0.119,1.071c0,0.241,0.018,0.484,0.053,0.73c0.09,0.609,0.383,0.924,0.877,0.945h0.059
				c0.461,0,0.775-0.228,0.945-0.68c0.143-0.377,0.213-0.822,0.213-1.34c0-0.127-0.002-0.256-0.008-0.387
				c-0.047-0.682-0.182-1.106-0.408-1.276c-0.143-0.102-0.312-0.151-0.512-0.151C176.078,83.893,175.955,83.91,175.824,83.943z"/>
			<path fill="#331842" d="M181.037,82.331l0.084,1.035c0.239-0.551,0.866-0.83,1.883-0.838h0.033c1,0,1.682,0.292,2.045,0.876
				c0.25,0.396,0.375,1.328,0.375,2.793c0,0.719-0.031,1.569-0.095,2.552H183.3c0.072-1.308,0.109-2.321,0.109-3.041
				c0-0.358-0.008-0.646-0.025-0.862c-0.057-0.636-0.327-0.952-0.815-0.952c-0.487,0-0.795,0.17-0.92,0.508l0.084,4.603l-2,0.014
				c0-1.947-0.088-4.134-0.265-6.559L181.037,82.331z"/>
			<path fill="#331842" d="M191.731,88.907l-2.121,0.146c0.022-1.4,0.035-2.748,0.035-4.044c0-1.818-0.022-3.534-0.067-5.146
				l2.086-0.025c-0.023,1.036-0.035,2.102-0.035,3.192C191.628,84.912,191.664,86.872,191.731,88.907z"/>
			<path fill="#331842" d="M195.759,82.312c1.867,0.076,2.801,0.775,2.801,2.101v4.507l-1.984,0.025l-0.066-0.604
				c-0.409,0.348-0.95,0.521-1.627,0.521c-0.288,0-0.602-0.034-0.938-0.103c-1.004-0.187-1.506-0.767-1.506-1.738
				c0-0.119,0.008-0.246,0.025-0.381c0.113-1.003,1.068-1.506,2.869-1.506c0.346,0,0.727,0.021,1.141,0.059v-0.736
				c0-0.597-0.252-0.896-0.758-0.896h-0.033c-0.041-0.004-0.078-0.006-0.111-0.006c-0.551,0-0.826,0.334-0.826,1.003v0.095
				l-2.026-0.127c0-1.478,0.954-2.215,2.86-2.215H195.759z M196.474,87.327V86.21c-0.244-0.038-0.465-0.058-0.664-0.058
				c-0.516,0-0.869,0.129-1.057,0.388c-0.113,0.156-0.17,0.302-0.17,0.438c0,0.169,0.092,0.318,0.272,0.451
				c0.142,0.102,0.326,0.151,0.554,0.151C195.699,87.581,196.054,87.496,196.474,87.327z"/>
			<path fill="#331842" d="M209.435,79.71v6.277c0,1.935-1.188,2.901-3.561,2.901h-0.188c-1.985-0.171-3.015-0.98-3.082-2.433
				c0-2.897-0.039-5.184-0.119-6.854h2.267c-0.058,0.957-0.086,2.08-0.086,3.371c0,0.904,0.014,1.896,0.043,2.971
				c0.012,0.787,0.393,1.181,1.141,1.181c0,0.004,0.004,0.006,0.01,0.006c0.742,0,1.115-0.503,1.115-1.511l-0.043-5.853
				L209.435,79.71z"/>
			<path fill="#331842" d="M211.75,82.331l0.086,1.035c0.238-0.551,0.865-0.83,1.881-0.838h0.035c0.998,0,1.68,0.292,2.043,0.876
				c0.25,0.396,0.375,1.328,0.375,2.793c0,0.719-0.031,1.569-0.094,2.552h-2.062c0.073-1.308,0.11-2.321,0.11-3.041
				c0-0.358-0.01-0.646-0.024-0.862c-0.058-0.636-0.33-0.952-0.817-0.952c-0.488,0-0.796,0.17-0.921,0.508l0.087,4.603l-2.003,0.014
				c0-1.947-0.088-4.134-0.264-6.559L211.75,82.331z"/>
			<path fill="#331842" d="M219.261,81.036c0,0.259-0.123,0.479-0.367,0.66c-0.244,0.183-0.539,0.272-0.885,0.272
				c-0.34,0-0.633-0.091-0.877-0.272s-0.367-0.401-0.367-0.66c0-0.254,0.123-0.472,0.367-0.653c0.244-0.183,0.537-0.272,0.877-0.272
				c0.346,0,0.641,0.091,0.885,0.272S219.261,80.782,219.261,81.036z M216.978,89.047c-0.039-2.476-0.059-4.613-0.059-6.417
				l2.146-0.096c-0.067,1.727-0.104,3.442-0.104,5.148c0,0.457,0.004,0.91,0.011,1.363L216.978,89.047L216.978,89.047z"/>
			<path fill="#331842" d="M226.167,80.033c-0.035,1.431-0.051,2.931-0.051,4.501c0,1.43,0.014,2.92,0.041,4.469l-2.019,0.006
				l-0.068-0.971c-0.42,0.47-0.979,0.704-1.678,0.704c-1.742,0-2.613-0.994-2.613-2.983c0-0.042,0.003-0.085,0.009-0.127
				c0.035-1.992,0.896-2.988,2.59-2.988c0.065,0,0.139,0.002,0.213,0.006c0.578,0.024,1.047,0.261,1.404,0.705
				c0-0.939-0.031-2.047-0.095-3.32L226.167,80.033L226.167,80.033z M224.039,86.736l-0.043-2.196
				c-0.33-0.334-0.668-0.501-1.015-0.501c-0.144,0-0.283,0.027-0.426,0.082c-0.449,0.174-0.673,0.66-0.673,1.46
				c0,0.093,0.002,0.188,0.009,0.286c0.058,0.969,0.346,1.48,0.868,1.536c0.052,0.004,0.103,0.006,0.152,0.006
				C223.369,87.409,223.744,87.186,224.039,86.736z"/>
			<path fill="#331842" d="M230.134,82.312c1.869,0.076,2.803,0.775,2.803,2.101v4.507l-1.984,0.025l-0.068-0.604
				c-0.407,0.348-0.95,0.521-1.627,0.521c-0.288,0-0.602-0.034-0.936-0.103c-1.006-0.187-1.508-0.767-1.508-1.738
				c0-0.119,0.008-0.246,0.025-0.381c0.113-1.003,1.07-1.506,2.869-1.506c0.348,0,0.727,0.021,1.143,0.059v-0.736
				c0-0.597-0.254-0.896-0.758-0.896h-0.035c-0.039-0.004-0.076-0.006-0.111-0.006c-0.549,0-0.824,0.334-0.824,1.003v0.095
				l-2.026-0.127c0-1.478,0.952-2.215,2.86-2.215H230.134z M230.851,87.327V86.21c-0.244-0.038-0.467-0.058-0.664-0.058
				c-0.518,0-0.869,0.129-1.057,0.388c-0.113,0.156-0.17,0.302-0.17,0.438c0,0.169,0.09,0.318,0.271,0.451
				c0.144,0.102,0.326,0.151,0.556,0.151C230.076,87.581,230.431,87.496,230.851,87.327z"/>
			<path fill="#331842" d="M240.056,80.033c-0.035,1.431-0.051,2.931-0.051,4.501c0,1.43,0.014,2.92,0.041,4.469l-2.019,0.006
				l-0.067-0.971c-0.42,0.47-0.979,0.704-1.678,0.704c-1.742,0-2.613-0.994-2.613-2.983c0-0.042,0.002-0.085,0.008-0.127
				c0.035-1.992,0.896-2.988,2.59-2.988c0.066,0,0.139,0.002,0.213,0.006c0.578,0.024,1.047,0.261,1.404,0.705
				c0-0.939-0.031-2.047-0.094-3.32L240.056,80.033L240.056,80.033z M237.927,86.736l-0.043-2.196
				c-0.33-0.334-0.668-0.501-1.014-0.501c-0.144,0-0.283,0.027-0.427,0.082c-0.448,0.174-0.672,0.66-0.672,1.46
				c0,0.093,0.002,0.188,0.008,0.286c0.058,0.969,0.347,1.48,0.869,1.536c0.052,0.004,0.103,0.006,0.151,0.006
				C237.257,87.409,237.632,87.186,237.927,86.736z"/>
			<path fill="#331842" d="M244.177,82.655c-0.029-0.254-0.043-0.489-0.043-0.705c0-0.757,0.184-1.304,0.553-1.638
				c0.471-0.429,1.074-0.685,1.807-0.769c0.26-0.029,0.516-0.045,0.766-0.045c0.449,0,0.88,0.047,1.296,0.141
				c0.646,0.147,1.135,0.439,1.465,0.876c0.267,0.363,0.397,0.829,0.397,1.396c0,0.11-0.002,0.228-0.008,0.35
				c-0.068,0.729-0.361,1.397-0.881,2.01c-0.52,0.611-1.418,1.485-2.695,2.625l3.722,0.019l-0.025,1.594
				c-1.629,0.056-3.729,0.082-6.301,0.082l-0.194-1.731c1.543-1.244,2.645-2.201,3.303-2.869c0.602-0.614,0.901-1.217,0.901-1.81
				v-0.158c-0.062-0.636-0.42-0.952-1.071-0.952h-0.033c-0.568,0.013-0.853,0.396-0.853,1.155c0,0.144,0.009,0.298,0.025,0.463
				L244.177,82.655z"/>
		</g>
	</g>
</g>
</svg>
