<?xml version="1.0" encoding="utf-8"?>
<!-- Generator: Adobe Illustrator 16.0.0, SVG Export Plug-In . SVG Version: 6.00 Build 0)  -->
<!DOCTYPE svg PUBLIC "-//W3C//DTD SVG 1.1//EN" "http://www.w3.org/Graphics/SVG/1.1/DTD/svg11.dtd">
<svg version="1.1" id="Capa_1" xmlns="http://www.w3.org/2000/svg" xmlns:xlink="http://www.w3.org/1999/xlink" x="0px" y="0px"
	 width="192.985px" height="237.102px" viewBox="0 0 192.985 237.102" enable-background="new 0 0 192.985 237.102"
	 xml:space="preserve">
<g>
	<path fill-rule="evenodd" clip-rule="evenodd" fill="#331842" d="M0,190.847c0-14.97,0-29.308,0-44.667
		c14.839,5.075,28.367,4.827,39.536-6.942c6.246-6.581,8.52-14.464,7.902-23.415c-0.8-11.594-6.814-19.634-16.738-25.024
		c-9.772-5.309-19.867-3.756-30.55-0.16c0-15.375,0-29.846,0-45.161c10.293,0,20.956-0.041,31.619,0.01
		c14.528,0.068,14.528,0.098,11.611-13.431C39.042,11.939,58.509-4.799,79.203,1.256c14.86,4.348,22.521,19.833,17.187,34.738
		c-2.922,8.167-1.989,9.502,6.78,9.525c11.754,0.031,23.511,0.175,35.261-0.038c5.063-0.091,6.869,2.035,6.798,6.879
		c-0.167,11.347-0.143,22.697-0.106,34.045c0.025,7.712,2.49,9.405,9.764,6.903c14.291-4.913,28.626,0.211,35.019,12.519
		c5.208,10.026,3.7,22.833-3.682,31.279c-7.176,8.211-19.973,11.345-30.617,7.496c-8.719-3.152-10.554-1.829-10.575,7.708
		c-0.022,10.538,0.039,21.078-0.025,31.615c-0.043,6.99-1.268,8.217-8.089,8.22c-11.957,0.004-23.914-0.103-35.871-0.086
		c-6.978,0.011-7.949,1.489-5.521,7.996c5.798,15.541-0.858,30.574-15.683,35.418c-16.191,5.291-32.68-2.694-36.403-18.606
		c-1.25-5.341-0.079-11.566,1.217-17.101c1.478-6.311,0.765-8.239-5.828-8.324c-12.158-0.162-24.318-0.138-36.477-0.216
		C1.577,191.223,0.803,190.983,0,190.847z"/>
	<g>
		<g>
			<path fill="#FFFFFF" d="M102.28,156.403h18.915c5.827,0,8.74,3.575,8.74,10.725v0.564c-0.51,5.987-2.951,9.082-7.325,9.288
				c-8.734,0-15.619,0.12-20.655,0.359v-6.824c2.882,0.171,6.267,0.257,10.156,0.257c2.729,0,5.712-0.043,8.95-0.129
				c2.372-0.034,3.558-1.18,3.558-3.438c0.013,0,0.019-0.009,0.019-0.026c0-2.241-1.517-3.361-4.552-3.361l-17.633,0.128
				L102.28,156.403z"/>
			<path fill="#FFFFFF" d="M110.179,149.425l3.117-0.257c-1.657-0.718-2.499-2.608-2.524-5.67v-0.103c0-3.01,0.88-5.063,2.639-6.158
				c1.199-0.752,4.003-1.129,8.415-1.129c2.167,0,4.73,0.094,7.688,0.282v6.209c-3.939-0.222-6.993-0.333-9.161-0.333
				c-1.083,0-1.951,0.026-2.601,0.077c-1.913,0.171-2.869,0.992-2.869,2.463s0.51,2.395,1.53,2.771l13.866-0.257l0.039,6.029
				c-5.865,0-12.451,0.266-19.756,0.795L110.179,149.425z"/>
			<path fill="#FFFFFF" d="M106.277,126.796c0.778,0,1.441,0.368,1.989,1.103c0.548,0.736,0.822,1.625,0.822,2.668
				c0,1.026-0.274,1.907-0.822,2.643c-0.548,0.736-1.211,1.103-1.989,1.103c-0.765,0-1.421-0.367-1.97-1.103
				c-0.548-0.735-0.822-1.616-0.822-2.643c0-1.043,0.274-1.933,0.822-2.668C104.855,127.164,105.512,126.796,106.277,126.796z
				 M130.413,133.672c-7.459,0.12-13.904,0.179-19.336,0.179l-0.287-6.465c5.202,0.205,10.373,0.308,15.51,0.308
				c1.377,0,2.748-0.008,4.112-0.025V133.672z"/>
			<path fill="#FFFFFF" d="M103.255,105.989c4.31,0.103,8.83,0.154,13.56,0.154c4.31,0,8.797-0.042,13.464-0.128l0.019,6.081
				l-2.926,0.206c1.415,1.266,2.123,2.95,2.123,5.054c0,5.251-2.996,7.876-8.989,7.876c-0.127,0-0.255-0.009-0.382-0.026
				c-6.005-0.103-9.008-2.702-9.008-7.799c0-0.205,0.006-0.419,0.019-0.642c0.077-1.745,0.784-3.156,2.123-4.233
				c-2.831,0-6.165,0.095-10.002,0.282V105.989z M123.451,112.403l-6.617,0.128c-1.007,0.992-1.511,2.01-1.511,3.053
				c0,0.428,0.083,0.855,0.249,1.283c0.523,1.352,1.989,2.027,4.399,2.027c0.28,0,0.567-0.008,0.86-0.025
				c2.92-0.171,4.463-1.043,4.628-2.617c0.013-0.154,0.019-0.308,0.019-0.461C125.479,114.422,124.803,113.293,123.451,112.403z"/>
			<path fill="#FFFFFF" d="M110.121,94.033c0.229-5.627,2.34-8.441,6.331-8.441h13.579l0.077,5.978l-1.817,0.205
				c1.045,1.231,1.568,2.865,1.568,4.9c0,0.873-0.102,1.813-0.306,2.822c-0.561,3.027-2.308,4.541-5.24,4.541
				c-0.357,0-0.739-0.025-1.147-0.077c-3.022-0.342-4.533-3.224-4.533-8.646c0-1.043,0.058-2.189,0.172-3.438h-2.218
				c-1.798,0-2.697,0.762-2.697,2.284v0.103c-0.013,0.12-0.019,0.231-0.019,0.333c0,1.659,1.007,2.489,3.022,2.489h0.287
				l-0.382,6.106c-4.45,0-6.675-2.873-6.675-8.62V94.033z M125.23,91.878h-3.366c-0.115,0.736-0.172,1.403-0.172,2.001
				c0,1.557,0.389,2.617,1.167,3.181c0.472,0.343,0.912,0.513,1.32,0.513c0.51,0,0.962-0.273,1.358-0.821
				c0.306-0.427,0.459-0.983,0.459-1.668C125.995,94.213,125.74,93.144,125.23,91.878z"/>
			<path fill="#FFFFFF" d="M103.255,64.144c4.31,0.103,8.83,0.154,13.56,0.154c4.31,0,8.797-0.042,13.464-0.128l0.019,6.081
				l-2.926,0.205c1.415,1.266,2.123,2.951,2.123,5.055c0,5.251-2.996,7.876-8.989,7.876c-0.127,0-0.255-0.008-0.382-0.025
				c-6.005-0.103-9.008-2.702-9.008-7.8c0-0.205,0.006-0.419,0.019-0.641c0.077-1.745,0.784-3.156,2.123-4.233
				c-2.831,0-6.165,0.094-10.002,0.282V64.144z M123.451,70.558l-6.617,0.128c-1.007,0.992-1.511,2.01-1.511,3.053
				c0,0.428,0.083,0.855,0.249,1.283c0.523,1.352,1.989,2.027,4.399,2.027c0.28,0,0.567-0.008,0.86-0.025
				c2.92-0.171,4.463-1.043,4.628-2.617c0.013-0.154,0.019-0.308,0.019-0.462C125.479,72.576,124.803,71.447,123.451,70.558z"/>
		</g>
	</g>
	<g>
		<g>
			<path fill="#FFFFFF" d="M62.075,110.595c-0.126-1.242-0.188-2.402-0.188-3.48c0-3.727,0.754-6.598,2.264-8.613
				c1.917-2.578,5.062-4.172,9.433-4.781c2.138-0.305,4.181-0.457,6.131-0.457c1.981,0,3.867,0.164,5.66,0.492
				c3.49,0.633,6.28,2.051,8.371,4.254c2.09,2.203,3.214,5.227,3.372,9.07v1.055c0,3.328-0.692,5.754-2.075,7.277
				c-1.541,1.711-4.072,3-7.593,3.867c2.924,0.328,5.117,1.119,6.579,2.373c1.462,1.254,2.477,2.936,3.042,5.045
				c0.314,1.172,0.472,2.461,0.472,3.867c0,1.148-0.11,2.391-0.33,3.727c-0.472,2.93-2.067,5.461-4.787,7.594
				s-6.909,3.246-12.568,3.34h-0.755c-5.313,0-9.558-1.031-12.733-3.094c-3.302-2.109-4.952-6.645-4.952-13.605v-0.211l12.215-0.527
				c-0.032,0.398-0.047,0.785-0.047,1.16c0,4.922,1.729,7.465,5.188,7.629c0.251,0.023,0.487,0.035,0.708,0.035
				c3.27,0,5.235-1.289,5.896-3.867c0.188-0.727,0.283-1.418,0.283-2.074c0-1.852-0.708-3.457-2.122-4.816
				c-1.95-1.828-5.172-2.742-9.668-2.742l-0.566-6.68c0.534,0.023,1.038,0.035,1.509,0.035c3.93,0,6.634-0.844,8.112-2.531
				c1.383-1.57,2.075-3.609,2.075-6.117c0-0.492-0.032-0.996-0.094-1.512c-0.283-3-2.091-4.5-5.424-4.5h-0.613
				c-3.302,0.164-4.952,2.625-4.952,7.383c0,0.562,0.016,1.16,0.047,1.793L62.075,110.595z"/>
		</g>
	</g>
</g>
</svg>
