<?xml version="1.0" encoding="utf-8"?>
<!-- Generator: Adobe Illustrator 16.0.0, SVG Export Plug-In . SVG Version: 6.00 Build 0)  -->
<!DOCTYPE svg PUBLIC "-//W3C//DTD SVG 1.1//EN" "http://www.w3.org/Graphics/SVG/1.1/DTD/svg11.dtd">
<svg version="1.1" id="Capa_1" xmlns="http://www.w3.org/2000/svg" xmlns:xlink="http://www.w3.org/1999/xlink" x="0px" y="0px"
	 width="232.036px" height="245.308px" viewBox="0 0 232.036 245.308" enable-background="new 0 0 232.036 245.308"
	 xml:space="preserve">
<g>
	<path fill-rule="evenodd" clip-rule="evenodd" fill="#E9496E" d="M232.036,122.654c-0.001-0.265-0.008-0.529-0.016-0.794
		c-0.084-4.497-1.066-8.916-2.969-12.744c-0.727-1.544-1.574-3.018-2.565-4.38c-1.129-1.55-2.571-2.921-4.233-4.102
		c-7.263-5.99-17.113-7.541-27.229-3.98c-4.697,1.653-6.965,1.41-7.848-1.489c-0.183-0.992-0.269-2.208-0.271-3.696
		c-0.023-11.552,0.107-23.102,0.124-34.654c0.005-3.602-0.096-5.668-0.952-6.861c-0.917-2.008-2.861-2.791-6.105-2.737
		c-12.359,0.205-24.724,0.093-37.084,0.242c-0.659,0.009-1.246,0.036-1.796,0.076c-3.267-1.225-3.51-4.096-1.517-9.742
		c4.34-12.294,0.659-25.128-9.356-32.616c-9-6.729-22.734-6.92-31.931-0.446c-10.295,7.248-14.284,19.77-10.3,32.331
		c2.155,6.795,2.05,9.584-1.934,10.571c-11.286-0.075-22.574-0.117-33.856,0.056c-1.293-0.022-2.586-0.045-3.88-0.067
		c-1.03-0.018-1.95,0.039-2.768,0.186c-0.042,0.001-0.083,0.001-0.125,0.002c-0.223,0.005-0.473,0.081-0.733,0.199
		c-2.418,0.726-3.65,2.598-3.495,6.645c0.022,0.583,0.035,1.167,0.054,1.75c-0.15,5.424,0,10.867,0.002,16.301
		c0.003,6.425-0.21,12.859,0.065,19.273c-0.001,0.686-0.009,1.305-0.025,1.853c-0.231,2.672-1.439,3.907-3.482,4.263
		c-1.081-0.021-2.483-0.171-4.336-0.371c-1.563-0.168-3.138-0.213-4.716-0.245c-1.903-0.141-3.8-0.193-5.684-0.099
		c-0.024,0.001-0.047,0.002-0.071,0.003c-3.827,0.202-7.598,1.023-11.254,3.008c-7.411,4.025-11.869,12.779-11.743,22.005
		c-0.003,0.086,0,0.173-0.002,0.259c0.002,0.086-0.001,0.172,0.002,0.258c-0.126,9.226,4.332,17.981,11.743,22.004
		c3.656,1.986,7.427,2.808,11.254,3.008c0.024,0.001,0.047,0.002,0.071,0.003c1.883,0.094,3.78,0.042,5.683-0.099
		c1.578-0.031,3.154-0.077,4.717-0.245c1.853-0.197,3.255-0.348,4.335-0.371c2.043,0.356,3.252,1.591,3.483,4.264
		c0.016,0.548,0.023,1.167,0.025,1.853c-0.276,6.414-0.062,12.847-0.065,19.273c-0.001,5.434-0.152,10.877-0.002,16.301
		c-0.019,0.584-0.031,1.167-0.054,1.75c-0.155,4.046,1.077,5.918,3.495,6.645c0.261,0.118,0.511,0.194,0.733,0.199
		c0.042,0.001,0.084,0.001,0.125,0.001c0.818,0.146,1.738,0.203,2.768,0.186c1.294-0.021,2.587-0.044,3.88-0.068
		c11.282,0.174,22.571,0.132,33.856,0.057c3.984,0.987,4.089,3.775,1.934,10.572c-3.984,12.56,0.005,25.082,10.3,32.33
		c9.196,6.475,22.931,6.283,31.931-0.445c10.015-7.489,13.696-20.322,9.356-32.618c-1.993-5.646-1.75-8.517,1.517-9.741
		c0.55,0.039,1.137,0.067,1.796,0.075c12.361,0.149,24.726,0.037,37.084,0.242c3.244,0.054,5.188-0.729,6.105-2.735
		c0.855-1.194,0.957-3.26,0.952-6.862c-0.017-11.551-0.147-23.103-0.124-34.654c0.003-1.489,0.088-2.704,0.271-3.696
		c0.884-2.899,3.152-3.142,7.848-1.488c10.117,3.56,19.967,2.009,27.229-3.981c1.662-1.181,3.104-2.551,4.233-4.102
		c0.992-1.362,1.838-2.836,2.565-4.379c1.903-3.828,2.885-8.248,2.969-12.745C232.027,123.183,232.034,122.918,232.036,122.654z"/>
	<g>
		<g>
			<path fill="#FFFFFF" d="M76.172,83.651v18.915c0,5.827-3.575,8.74-10.724,8.74h-0.564c-5.987-0.51-9.083-2.951-9.288-7.325
				c0-8.734-0.12-15.619-0.359-20.655h6.825c-0.171,2.882-0.256,6.267-0.256,10.156c0,2.729,0.042,5.712,0.128,8.95
				c0.034,2.372,1.181,3.558,3.438,3.558c0,0.013,0.008,0.019,0.025,0.019c2.24,0,3.361-1.517,3.361-4.552l-0.128-17.633
				L76.172,83.651z"/>
			<path fill="#FFFFFF" d="M83.15,91.55l0.257,3.117c0.718-1.657,2.608-2.499,5.67-2.524h0.103c3.01,0,5.062,0.88,6.158,2.639
				c0.752,1.199,1.129,4.003,1.129,8.415c0,2.167-0.094,4.73-0.282,7.688h-6.209c0.222-3.939,0.333-6.993,0.333-9.161
				c0-1.083-0.025-1.951-0.077-2.601c-0.171-1.913-0.992-2.869-2.463-2.869c-1.471,0-2.395,0.51-2.771,1.53l0.256,13.866
				l-6.029,0.039c0-5.865-0.265-12.451-0.795-19.756L83.15,91.55z"/>
			<path fill="#FFFFFF" d="M105.779,87.648c0,0.778-0.368,1.441-1.103,1.989c-0.736,0.548-1.625,0.822-2.668,0.822
				c-1.026,0-1.907-0.274-2.643-0.822s-1.103-1.211-1.103-1.989c0-0.765,0.368-1.421,1.103-1.97s1.616-0.822,2.643-0.822
				c1.043,0,1.933,0.274,2.668,0.822C105.411,86.227,105.779,86.883,105.779,87.648z M98.903,111.785
				c-0.12-7.459-0.18-13.904-0.18-19.336l6.466-0.287c-0.206,5.202-0.308,10.373-0.308,15.51c0,1.377,0.008,2.748,0.026,4.112
				H98.903z"/>
			<path fill="#FFFFFF" d="M126.586,84.627c-0.103,4.31-0.154,8.83-0.154,13.56c0,4.31,0.042,8.797,0.128,13.464l-6.081,0.019
				l-0.205-2.926c-1.266,1.415-2.951,2.123-5.055,2.123c-5.251,0-7.876-2.996-7.876-8.989c0-0.127,0.008-0.255,0.026-0.382
				c0.103-6.005,2.702-9.008,7.799-9.008c0.206,0,0.419,0.006,0.642,0.019c1.745,0.077,3.156,0.784,4.233,2.123
				c0-2.831-0.094-6.165-0.282-10.002H126.586z M120.172,104.823l-0.128-6.617c-0.992-1.007-2.01-1.511-3.053-1.511
				c-0.428,0-0.855,0.083-1.283,0.249c-1.351,0.523-2.026,1.989-2.026,4.399c0,0.28,0.008,0.567,0.025,0.86
				c0.171,2.92,1.043,4.463,2.617,4.628c0.154,0.013,0.308,0.019,0.462,0.019C118.154,106.85,119.283,106.174,120.172,104.823z"/>
			<path fill="#FFFFFF" d="M138.542,91.493c5.627,0.229,8.441,2.34,8.441,6.331v13.579l-5.978,0.077l-0.205-1.817
				c-1.232,1.045-2.865,1.568-4.9,1.568c-0.873,0-1.813-0.102-2.822-0.306c-3.027-0.561-4.541-2.308-4.541-5.24
				c0-0.357,0.025-0.739,0.077-1.147c0.342-3.022,3.224-4.533,8.646-4.533c1.043,0,2.189,0.058,3.438,0.172v-2.218
				c0-1.798-0.761-2.697-2.283-2.697h-0.103c-0.12-0.013-0.231-0.019-0.333-0.019c-1.659,0-2.489,1.007-2.489,3.022v0.287
				l-6.106-0.382c0-4.45,2.874-6.675,8.621-6.675H138.542z M140.697,106.602v-3.366c-0.735-0.115-1.402-0.172-2.001-0.172
				c-1.557,0-2.617,0.389-3.182,1.167c-0.342,0.472-0.513,0.912-0.513,1.32c0,0.51,0.273,0.962,0.821,1.358
				c0.427,0.306,0.983,0.459,1.667,0.459C138.363,107.367,139.432,107.112,140.697,106.602z"/>
			<path fill="#FFFFFF" d="M168.432,84.627c-0.103,4.31-0.154,8.83-0.154,13.56c0,4.31,0.042,8.797,0.128,13.464l-6.081,0.019
				l-0.205-2.926c-1.266,1.415-2.951,2.123-5.054,2.123c-5.251,0-7.877-2.996-7.877-8.989c0-0.127,0.009-0.255,0.026-0.382
				c0.103-6.005,2.703-9.008,7.799-9.008c0.206,0,0.419,0.006,0.642,0.019c1.745,0.077,3.156,0.784,4.233,2.123
				c0-2.831-0.094-6.165-0.282-10.002H168.432z M162.018,104.823l-0.128-6.617c-0.992-1.007-2.01-1.511-3.053-1.511
				c-0.428,0-0.855,0.083-1.283,0.249c-1.352,0.523-2.027,1.989-2.027,4.399c0,0.28,0.008,0.567,0.026,0.86
				c0.17,2.92,1.043,4.463,2.617,4.628c0.154,0.013,0.308,0.019,0.462,0.019C160,106.85,161.128,106.174,162.018,104.823z"/>
		</g>
	</g>
	<g>
		<g>
			<path fill="#FFFFFF" d="M94.952,142.893c-0.158-1.406-0.235-2.707-0.235-3.902c0-4.195,1.021-7.218,3.065-9.07
				c2.609-2.367,5.942-3.785,9.998-4.254c1.446-0.164,2.861-0.246,4.245-0.246c2.483,0,4.874,0.258,7.168,0.773
				c3.584,0.821,6.288,2.438,8.112,4.852c1.478,2.016,2.216,4.594,2.216,7.734c0,0.61-0.016,1.254-0.047,1.934
				c-0.377,4.032-2.004,7.741-4.881,11.127c-2.877,3.387-7.853,8.233-14.927,14.537l20.61,0.105l-0.142,8.824
				c-9.024,0.305-20.657,0.457-34.9,0.457l-1.085-9.598c8.552-6.891,14.651-12.187,18.299-15.891c3.333-3.398,5-6.738,5-10.02
				v-0.879c-0.346-3.516-2.327-5.273-5.942-5.273h-0.189c-3.144,0.07-4.716,2.204-4.716,6.398c0,0.797,0.047,1.652,0.141,2.566
				L94.952,142.893z"/>
		</g>
	</g>
</g>
</svg>
