<?xml version="1.0" encoding="utf-8"?>
<!-- Generator: Adobe Illustrator 16.0.0, SVG Export Plug-In . SVG Version: 6.00 Build 0)  -->
<!DOCTYPE svg PUBLIC "-//W3C//DTD SVG 1.1//EN" "http://www.w3.org/Graphics/SVG/1.1/DTD/svg11.dtd">
<svg version="1.1" id="Capa_1" xmlns="http://www.w3.org/2000/svg" xmlns:xlink="http://www.w3.org/1999/xlink" x="0px" y="0px"
	 width="192.615px" height="237.102px" viewBox="0 0 192.615 237.102" enable-background="new 0 0 192.615 237.102"
	 xml:space="preserve">
<g>
	<path fill-rule="evenodd" clip-rule="evenodd" fill="#0093AF" d="M192.141,48.787c-0.04-0.12-0.08-0.229-0.12-0.34
		c-0.22-0.53-0.5-0.96-0.84-1.339c0,0-0.02-0.01-0.03-0.03c-1.08-1.13-2.8-1.641-5.34-1.59c-11.75,0.209-23.5,0.061-35.26,0.04
		c-0.72,0-1.41-0.01-2.04-0.04h-0.01c-6.85-0.269-7.41-2.02-4.73-9.49c5.34-14.9-2.33-30.39-17.18-34.741
		c-2.14-0.63-4.26-1.01-6.35-1.169c-4.19-0.32-8.22,0.25-11.9,1.54c-12.24,4.3-20.57,16.56-17.58,30.431
		c2.92,13.53,2.92,13.5-11.6,13.43c-10.67-0.05-21.33-0.01-31.62-0.01v44.81c-0.86,4.34-3.61,5.04-9.44,3.03
		c-14.29-4.92-28.63,0.21-35.02,12.51c-5.21,10.03-3.7,22.84,3.68,31.281c7.18,8.209,19.97,11.349,30.62,7.5
		c6.3-2.28,9.01-2.22,10.03,1.589c-0.01,0-0.02-0.01-0.03-0.01v44.67c0.8,0.13,1.58,0.37,2.36,0.37h0.48
		c11.99,0.08,24,0.05,35.99,0.22c1.93,0.03,3.36,0.209,4.38,0.621c2.45,0.97,2.5,3.239,1.45,7.699
		c-1.29,5.54-2.47,11.771-1.22,17.11c3.18,13.59,15.69,21.4,29.36,20.08c2.32-0.22,4.68-0.71,7.04-1.48
		c14.83-4.839,21.49-19.879,15.68-35.409c-2.42-6.51-1.44-8,5.53-8c0.86,0,1.65-0.251,2.38-0.661c2.29,0,4.55,0,6.8,0.01h5.35
		c1.38,0.01,2.75,0.01,4.11,0h1.5c1.14,0,2.28,0,3.42-0.01c0.59,0,1.18,0,1.77-0.01c1.09,0,2.17-0.01,3.26-0.02
		c0.59,0,1.19,0,1.78-0.01c1.14-0.01,2.28-0.02,3.41-0.04c0.52-0.01,1.05-0.01,1.57-0.02c1.11-0.01,2.22-0.03,3.33-0.06
		c0.54,0,1.07-0.02,1.61-0.029c1.21-0.021,3.38-2.701,3.42-4.171c0.28-11.93,0.16-23.88,0.16-36.851
		c-3.96-0.22-7.35-0.55-10.76-0.559c-1.69,0-3.3-0.11-4.85-0.311c-20.11-2.57-28.23-20.82-24.93-37.57
		c2.55-12.97,13.67-23,26.19-24.34c2.42-0.26,4.89-0.19,7.36,0.24c4.36,0.75,6.91-0.159,7.18-4.639v-1.871
		c-0.02-9.599-0.02-19.19,0.12-28.79C192.641,50.937,192.491,49.747,192.141,48.787z"/>
	<g>
		<g>
			<path fill="#FFFFFF" d="M59.35,155.146h18.915c5.827,0,8.74,3.575,8.74,10.724v0.564c-0.51,5.987-2.952,9.083-7.325,9.288
				c-8.733,0-15.619,0.12-20.655,0.359v-6.825c2.882,0.171,6.267,0.256,10.155,0.256c2.729,0,5.712-0.042,8.951-0.128
				c2.372-0.034,3.557-1.181,3.557-3.438c0.013,0,0.02-0.008,0.02-0.025c0-2.24-1.518-3.361-4.552-3.361l-17.633,0.128
				L59.35,155.146z"/>
			<path fill="#FFFFFF" d="M67.249,148.167l3.118-0.257c-1.657-0.718-2.499-2.608-2.524-5.67v-0.103c0-3.01,0.879-5.062,2.639-6.158
				c1.199-0.752,4.004-1.129,8.415-1.129c2.168,0,4.73,0.094,7.688,0.282v6.209c-3.94-0.222-6.993-0.333-9.161-0.333
				c-1.083,0-1.951,0.025-2.601,0.077c-1.913,0.171-2.869,0.992-2.869,2.463c0,1.471,0.51,2.395,1.53,2.771l13.865-0.256
				l0.038,6.029c-5.864,0-12.45,0.265-19.756,0.795L67.249,148.167z"/>
			<path fill="#FFFFFF" d="M63.347,125.539c0.778,0,1.441,0.368,1.989,1.103c0.548,0.736,0.822,1.625,0.822,2.668
				c0,1.026-0.274,1.907-0.822,2.643c-0.548,0.735-1.211,1.103-1.989,1.103c-0.765,0-1.421-0.368-1.97-1.103
				c-0.548-0.735-0.822-1.616-0.822-2.643c0-1.043,0.274-1.933,0.822-2.668C61.926,125.907,62.583,125.539,63.347,125.539z
				 M87.483,132.415c-7.458,0.12-13.904,0.18-19.335,0.18l-0.287-6.466c5.202,0.206,10.372,0.308,15.51,0.308
				c1.377,0,2.748-0.008,4.112-0.026V132.415z"/>
			<path fill="#FFFFFF" d="M60.326,104.731c4.31,0.103,8.829,0.154,13.56,0.154c4.31,0,8.797-0.042,13.464-0.128l0.02,6.081
				l-2.926,0.205c1.415,1.266,2.123,2.951,2.123,5.055c0,5.251-2.996,7.876-8.988,7.876c-0.127,0-0.255-0.008-0.383-0.026
				c-6.005-0.103-9.008-2.702-9.008-7.799c0-0.206,0.006-0.419,0.019-0.642c0.077-1.745,0.784-3.156,2.123-4.233
				c-2.831,0-6.165,0.094-10.002,0.282V104.731z M80.521,111.146l-6.617,0.128c-1.007,0.992-1.511,2.01-1.511,3.053
				c0,0.428,0.083,0.855,0.249,1.283c0.523,1.351,1.989,2.026,4.399,2.026c0.28,0,0.567-0.008,0.86-0.025
				c2.92-0.171,4.463-1.043,4.628-2.617c0.013-0.154,0.019-0.308,0.019-0.462C82.549,113.164,81.873,112.035,80.521,111.146z"/>
			<path fill="#FFFFFF" d="M67.191,92.775c0.229-5.627,2.34-8.441,6.331-8.441h13.579l0.077,5.978l-1.817,0.205
				c1.045,1.232,1.568,2.865,1.568,4.9c0,0.873-0.102,1.813-0.306,2.822c-0.561,3.027-2.308,4.541-5.24,4.541
				c-0.357,0-0.739-0.025-1.147-0.077c-3.022-0.342-4.533-3.224-4.533-8.646c0-1.043,0.057-2.189,0.172-3.438h-2.219
				c-1.798,0-2.697,0.761-2.697,2.283v0.103c-0.012,0.12-0.019,0.231-0.019,0.333c0,1.659,1.007,2.489,3.021,2.489h0.287
				l-0.382,6.106c-4.45,0-6.675-2.874-6.675-8.621V92.775z M82.3,90.621h-3.366c-0.115,0.735-0.172,1.402-0.172,2.001
				c0,1.557,0.389,2.617,1.167,3.182c0.472,0.342,0.912,0.513,1.32,0.513c0.51,0,0.963-0.273,1.357-0.821
				c0.306-0.427,0.459-0.983,0.459-1.667C83.065,92.955,82.81,91.886,82.3,90.621z"/>
			<path fill="#FFFFFF" d="M60.326,62.886c4.31,0.103,8.829,0.154,13.56,0.154c4.31,0,8.797-0.042,13.464-0.128l0.02,6.081
				l-2.926,0.205c1.415,1.266,2.123,2.951,2.123,5.054c0,5.251-2.996,7.877-8.988,7.877c-0.127,0-0.255-0.009-0.383-0.026
				C71.188,82,68.186,79.4,68.186,74.303c0-0.206,0.006-0.419,0.019-0.642c0.077-1.745,0.784-3.156,2.123-4.233
				c-2.831,0-6.165,0.094-10.002,0.282V62.886z M80.521,69.3l-6.617,0.128c-1.007,0.992-1.511,2.01-1.511,3.053
				c0,0.428,0.083,0.855,0.249,1.283c0.523,1.352,1.989,2.027,4.399,2.027c0.28,0,0.567-0.008,0.86-0.026
				c2.92-0.17,4.463-1.043,4.628-2.617c0.013-0.154,0.019-0.308,0.019-0.462C82.549,71.318,81.873,70.189,80.521,69.3z"/>
		</g>
	</g>
	<g>
		<g>
			<path fill="#FFFFFF" d="M127.741,96.847c-0.22,11.062-0.33,22.066-0.33,33.012c0,5.484,0.031,10.957,0.094,16.418l-11.696,0.457
				c-0.22-14.086-0.488-27.129-0.802-39.129c-2.641,0.398-6.225,1.383-10.753,2.953l-2.264-7.699l13.111-6.188L127.741,96.847z"/>
		</g>
	</g>
</g>
</svg>
