<?xml version="1.0" encoding="utf-8"?>
<!-- Generator: Adobe Illustrator 16.0.0, SVG Export Plug-In . SVG Version: 6.00 Build 0)  -->
<!DOCTYPE svg PUBLIC "-//W3C//DTD SVG 1.1//EN" "http://www.w3.org/Graphics/SVG/1.1/DTD/svg11.dtd">
<svg version="1.1" id="Capa_1" xmlns="http://www.w3.org/2000/svg" xmlns:xlink="http://www.w3.org/1999/xlink" x="0px" y="0px"
	 width="368.914px" height="141.343px" viewBox="0 0 368.914 141.343" enable-background="new 0 0 368.914 141.343"
	 xml:space="preserve">
<g>
	<path fill-rule="evenodd" clip-rule="evenodd" fill="#FFFFFF" d="M357.003,56.734c6.007,5.918,5.656,9.697-1.312,16.336
		c-1.543-2.297-3.178-4.516-4.525-6.871c-0.378-0.664-0.25-1.934,0.219-2.574C353.075,61.307,355.013,59.137,357.003,56.734z"/>
	<path fill-rule="evenodd" clip-rule="evenodd" fill="#FFFFFF" d="M348.413,62.609c-1.746-1.723-3.365-3.17-4.75-4.783
		c-0.381-0.445-0.314-1.514-0.005-2.094c1.298-2.426,2.766-4.777,4.368-7.488c2.144,1.832,4.188,3.488,6.082,5.279
		c0.377,0.357,0.496,1.424,0.194,1.822C352.47,57.77,350.479,60.098,348.413,62.609z"/>
	<path fill-rule="evenodd" clip-rule="evenodd" fill="#FFFFFF" d="M338.853,41.877c2.434,1.66,4.482,3.059,6.76,4.613
		c-1.668,2.859-3.271,5.607-4.994,8.561c-1.689-1.16-3.283-2.07-4.602-3.244c-0.537-0.479-0.855-1.645-0.61-2.287
		C336.347,47.059,337.557,44.684,338.853,41.877z"/>
	<path fill-rule="evenodd" clip-rule="evenodd" fill="#FFFFFF" d="M363.511,67.863c2.715,8.254,3.286,7.451-4.102,14.221
		c-0.699-1.754-1.447-3.379-1.947-5.066c-0.168-0.555,0.139-1.373,0.52-1.895C359.732,72.721,361.58,70.379,363.511,67.863z"/>
	<path fill-rule="evenodd" clip-rule="evenodd" fill="#FFFFFF" d="M365.782,80.471c0.879,4.48,0.361,8.381-4.412,10.863
		C359.518,86.23,360.2,84.525,365.782,80.471z"/>
	<path fill-rule="evenodd" clip-rule="evenodd" fill="#FFFFFF" d="M365.233,92.432c-0.441,6.254-0.675,6.695-3.943,7.496
		C360.487,96.025,361.07,94.916,365.233,92.432z"/>
	<path fill-rule="evenodd" clip-rule="evenodd" fill="#FFFFFF" d="M354.086,118.607c1.634-2.992,3.267-5.986,4.899-8.98
		c0.406,0.205,0.814,0.41,1.221,0.617c-1.809,2.906-3.615,5.814-5.425,8.723C354.552,118.848,354.319,118.727,354.086,118.607z"/>
	<path fill-rule="evenodd" clip-rule="evenodd" fill="#FFFFFF" d="M359.131,106.404c0.909-1.332,1.821-2.664,2.735-3.996
		c0.297,0.17,0.598,0.342,0.896,0.51c-0.409,1.641-0.081,3.682-2.805,4.066C359.681,106.791,359.405,106.598,359.131,106.404z"/>
	<path fill-rule="evenodd" clip-rule="evenodd" fill="#331842" d="M86.251,13.75c1.375,0.4,2.279,0.664,3.182,0.928
		c-0.465,0.77-0.736,1.76-1.43,2.26c-1.503,1.082-1.656,2.115-0.271,2.982c1.205,0.391,2.402,0.803,3.619,1.162
		c0.551,0.164,1.139,0.312,1.711,0.314c5.65,0.021,11.344,0.402,16.943-0.09c7.324-0.645,14.678-0.77,21.998-1.43
		c7.385-0.666,14.801-1.109,22.213-1.461c7.525-0.357,15.059-0.596,22.596-0.691c11.291-0.143,22.595-0.414,33.877-0.098
		c28.393,0.795,56.784,1.939,84.881,6.125c22.682,3.381,42.564,12.131,59.404,26.6c9.387,8.068,13.789,18.086,13.918,29.611
		c0.074,6.572,0.057,13.379-1.652,19.686c-3.101,11.441-8.088,22.232-19.822,28.941c-12.837,7.342-26.643,11.502-41.9,12.273
		c-25.064,1.268-49.951-0.047-74.752-3.096c-28.858-3.545-57.696-7.254-86.504-11.129c-31.152-4.189-62.295-8.484-93.379-13.078
		c-13.431-1.984-26.146-6.053-36.545-14.602C5.058,91.334-0.961,82.127,0.126,70.336c1.363-14.799,10.457-25.158,24.17-32.26
		c12.309-6.375,25.921-8.23,39.839-8.297c2.987-0.014,4.03-0.932,4.326-3.377c0.557-4.594,1.86-9.203,1.642-13.758
		c-0.191-3.93,1.673-7.266,2.062-10.957c0.195-1.846,1.459-2.168,3.154-1.014C80.438,4.164,84.286,8.516,86.251,13.75z
		 M318.251,136.338c0.847,0.061,1.143,0.131,1.423,0.096c23.31-2.902,40.783-23.285,38.415-44.615
		c-1.743-15.658-10.062-27.809-23.295-37.42c-1.275-0.926-2.769-1.602-4.158-2.398c-2.714-1.559-4.891-4.264-8.754-3.393
		c-0.302,0.068-0.92-0.148-1.031-0.379c-1.483-3.057-4.913-3.551-7.629-3.719c-2.844-0.176-5.001-0.936-7.485-2.012
		c-2.825-1.223-6.213-1.57-9.399-1.836c-16.283-1.357-32.564-2.787-48.875-3.768c-17.706-1.064-35.442-1.709-53.17-2.426
		c-3.924-0.156-7.872,0.154-11.809,0.248c-0.879,0.061-1.872-0.559-2.895-0.604c-5.248-0.227-10.505-0.334-15.758-0.428
		c-7.045-0.127-14.085-0.258-21.127-0.273c-2.908-0.006-5.895,0.74-8.712,0.342c-4.952-0.699-9.788-1.488-14.657,0.252
		c-0.375,0.135-0.926-0.117-1.387-0.217c-1.197-0.256-2.387-0.742-3.585-0.758c-6.147-0.09-12.3-0.09-18.45-0.053
		c-1.994,0.012-4.183-0.555-5.753,1.285c-0.194,0.225-1.168,0.279-1.31,0.098c-1.852-2.309-4.517-1.32-6.799-1.293
		c-2.322,0.029-3.131-0.768-3.321-2.746c-0.319-3.283-0.827-6.549-1.257-9.822c-1.248,3.223-2.129,6.373-2.82,9.561
		c-0.406,1.873-1.432,2.361-3.486,2.418c-7.619,0.219-15.294,0.227-22.828,1.137c-13.272,1.598-25.174,6.129-34.607,15.297
		C-1.015,63.246-0.643,81.967,14.803,95.668c8.001,7.094,17.764,11.371,28.427,13.436c14.031,2.717,28.216,4.82,42.399,6.797
		c30.841,4.301,61.716,8.414,92.596,12.486c30.987,4.086,61.904,8.832,93.257,9.934c11.748,0.414,23.525,0.068,35.287,0.068
		c0.027-0.258,0.053-0.514,0.08-0.77c-0.407-0.105-0.832-0.178-1.218-0.328c-0.405-0.156-0.772-0.389-1.154-0.588
		c21.091-0.527,36.704-9.295,47.305-25.916C349.79,120.504,335.718,131.094,318.251,136.338z M237.673,21.852
		c-0.134-0.309-0.268-0.621-0.401-0.932c-3.642,0-7.283-0.016-10.924,0.018c-0.44,0.006-1.069,0.145-1.292,0.432
		c-2.84,3.621-5.619,7.277-8.721,11.326c5.02,0.221,9.344,0.443,13.672,0.559c0.533,0.014,1.322-0.443,1.588-0.887
		C233.677,28.891,235.658,25.365,237.673,21.852z M208.345,20.086c-4.023,0-7.234-0.025-10.445,0.025
		c-0.543,0.008-1.281,0.191-1.59,0.543c-3.066,3.523-6.062,7.1-9.627,11.305c4.857,0,8.688,0.053,12.516-0.051
		c0.641-0.018,1.48-0.574,1.854-1.105C203.338,27.57,205.515,24.271,208.345,20.086z M234.462,33.404
		c3.115,0.211,5.84,0.463,8.566,0.533c0.787,0.023,1.83-0.27,2.345-0.771c3.142-3.061,4.899-6.789,6.265-10.93
		c-3.159-0.236-5.899-0.51-8.646-0.596c-0.736-0.023-1.86,0.34-2.179,0.854C238.65,26.002,236.651,29.596,234.462,33.404z
		 M265.853,23.25c-3.186-0.242-6.138-0.529-9.096-0.648c-0.727-0.029-1.897,0.305-2.154,0.785
		c-1.841,3.475-3.499,7.029-5.344,10.812c3.957,0.195,7.853,0.385,11.469,0.562C262.503,30.775,264.099,27.189,265.853,23.25z
		 M203.7,31.957c5.816,1.189,10.465,0.869,13.135-4.582c1.119-2.283,3.088-4.219,4.934-6.656c-3.328-0.156-5.98-0.404-8.625-0.34
		c-0.898,0.021-2.117,0.619-2.603,1.303C208.188,24.99,206.034,28.412,203.7,31.957z M172.637,31.172
		c3.405,0.154,6.071,0.377,8.734,0.344c0.995-0.014,2.333-0.357,2.911-1.004c2.845-3.182,5.484-6.514,8.426-10.068
		c-4.16,0-7.795,0-10.666,0C178.78,24.164,175.878,27.475,172.637,31.172z M263.702,34.951c4.287,0.277,7.795,0.504,11.752,0.76
		c0.639-3.906,1.238-7.578,1.863-11.398c-2.504-0.234-4.459-0.518-6.424-0.547c-0.714-0.012-1.817,0.414-2.096,0.93
		C267.073,27.91,265.535,31.207,263.702,34.951z M327.528,35.871c-3.674-1.453-7.065-2.797-10.5-4.156
		c-1.609,3.32-3.064,6.322-4.537,9.359c3.365,1.146,6.383,2.176,9.512,3.242C323.854,41.486,325.615,38.795,327.528,35.871z
		 M280.278,24.629c-0.598,3.957-1.135,7.504-1.705,11.26c2.613,0.275,5.136,0.643,7.67,0.732c0.578,0.021,1.623-0.836,1.73-1.406
		c0.58-3.1,0.934-6.238,1.396-9.584C286.276,25.289,283.361,24.969,280.278,24.629z M290.819,37.086
		c3.316,0.453,6.004,0.82,8.865,1.211c0.799-3.59,1.551-6.975,2.36-10.609c-3.331-0.543-6.286-1.025-9.636-1.57
		C291.855,29.926,291.356,33.365,290.819,37.086z M357.003,56.734c-1.99,2.402-3.928,4.572-5.619,6.891
		c-0.469,0.641-0.597,1.91-0.219,2.574c1.348,2.355,2.982,4.574,4.525,6.871C362.659,66.432,363.01,62.652,357.003,56.734z
		 M152.921,21.641c-2.912,0-5.663-0.059-8.407,0.045c-0.639,0.023-1.524,0.455-1.834,0.945c-1.567,2.48-2.98,5.045-4.601,7.842
		c3.417,0,6.629,0,9.914,0C149.567,27.652,151.214,24.699,152.921,21.641z M348.413,62.609c2.066-2.512,4.057-4.84,5.89-7.264
		c0.302-0.398,0.183-1.465-0.194-1.822c-1.895-1.791-3.938-3.447-6.082-5.279c-1.603,2.711-3.07,5.062-4.368,7.488
		c-0.31,0.58-0.376,1.648,0.005,2.094C345.048,59.439,346.667,60.887,348.413,62.609z M304.981,28.33
		c-0.828,3.805-1.547,7.115-2.287,10.512c1.637,0.373,2.909,0.562,4.096,0.959c1.92,0.641,3.078,0.258,3.846-1.594
		c1.003-2.434,2.277-4.773,3.564-7.412C311.177,29.984,308.282,29.211,304.981,28.33z M162.81,30.633
		c3.988,1.102,7.129,0.787,9.028-2.896c0.534-1.037,1.511-1.893,2.331-2.797c1.264-1.396,2.569-2.764,4.104-4.41
		c-3.16,0-5.732-0.094-8.285,0.055c-0.801,0.049-1.9,0.582-2.27,1.193C166,24.609,164.491,27.551,162.81,30.633z M139.273,22.26
		c-9.067-0.523-13.243,1.695-15.188,7.949C134.534,31.023,135.783,30.385,139.273,22.26z M150.858,30.84
		c2.771,0,4.649,0.061,6.518-0.029c0.713-0.035,1.77-0.217,2.048-0.658c1.84-2.936,3.507-5.959,5.357-9.172
		c-2.2,0-3.883-0.117-5.531,0.045c-0.964,0.096-2.282,0.393-2.737,1.023C154.624,24.666,153.003,27.445,150.858,30.84z
		 M336.264,40.428c-2.104-1.1-4.044-2.113-6.083-3.182c-1.869,2.83-3.625,5.488-5.435,8.234c2.644,1.367,4.93,2.551,7.449,3.854
		C333.577,46.311,334.893,43.432,336.264,40.428z M338.853,41.877c-1.296,2.807-2.506,5.182-3.446,7.643
		c-0.245,0.643,0.073,1.809,0.61,2.287c1.318,1.174,2.912,2.084,4.602,3.244c1.724-2.953,3.326-5.701,4.994-8.561
		C343.335,44.936,341.286,43.537,338.853,41.877z M108.282,30.18c11.342,0.49,14.295-0.779,15.959-6.787
		C117.647,22.99,111.511,23.654,108.282,30.18z M363.511,67.863c-1.931,2.516-3.778,4.857-5.529,7.26
		c-0.381,0.521-0.688,1.34-0.52,1.895c0.5,1.688,1.248,3.312,1.947,5.066C366.797,75.314,366.226,76.117,363.511,67.863z
		 M109.166,24.377c-3.731,0-7.165,0-9.937,0c-1.996,2.07-3.623,3.756-5.33,5.525C100.571,31.299,105.465,29.494,109.166,24.377z
		 M77.185,5.613c-0.395-0.039-0.789-0.076-1.184-0.115c-0.838,1.91-2.068,3.756-2.433,5.738c-0.767,4.184-1.042,8.443-1.605,12.662
		c-0.248,1.855-0.698,3.691-1.06,5.535c0.772-0.354,1.074-0.811,1.157-1.299c0.916-5.438,1.755-10.885,2.724-16.314
		c0.169-0.939,0.843-1.803,1.282-2.699c0.81,0.627,1.62,1.256,2.647,2.051c0.521-0.289,1.343-0.746,2.412-1.338
		C79.718,8.322,78.45,6.969,77.185,5.613z M82.037,29.574c2.657,2.803,8.8,0.512,12.599-5.148c-5.289-0.912-5.232-0.867-8.793,2.572
		C84.775,28.031,83.315,28.727,82.037,29.574z M365.782,80.471c-5.582,4.055-6.265,5.76-4.412,10.863
		C366.144,88.852,366.661,84.951,365.782,80.471z M365.233,92.432c-4.163,2.484-4.746,3.594-3.943,7.496
		C364.559,99.127,364.792,98.686,365.233,92.432z M82.441,12.615c-3.942,1.756-4.109,2.344-1.933,6.156
		C84.121,16.555,84.201,16.318,82.441,12.615z M83.73,20.32c-3.316,2.795-3.354,2.936-1.765,6.537c1.277-1.312,2.5-2.57,3.771-3.875
		C85.081,22.113,84.485,21.32,83.73,20.32z M354.086,118.607c0.233,0.119,0.466,0.24,0.695,0.359
		c1.81-2.908,3.616-5.816,5.425-8.723c-0.406-0.207-0.814-0.412-1.221-0.617C357.353,112.621,355.72,115.615,354.086,118.607z
		 M359.131,106.404c0.274,0.193,0.55,0.387,0.826,0.58c2.724-0.385,2.396-2.426,2.805-4.066c-0.298-0.168-0.599-0.34-0.896-0.51
		C360.952,103.74,360.04,105.072,359.131,106.404z"/>
	<path fill-rule="evenodd" clip-rule="evenodd" fill="#FFFFFF" d="M318.251,136.338c17.467-5.244,31.539-15.834,33.53-25.551
		c-10.601,16.621-26.214,25.389-47.305,25.916c0.382,0.199,0.749,0.432,1.154,0.588c0.386,0.15,0.811,0.223,1.218,0.328
		c-0.027,0.256-0.053,0.512-0.08,0.77c-11.762,0-23.539,0.346-35.287-0.068c-31.353-1.102-62.27-5.848-93.257-9.934
		c-30.88-4.072-61.755-8.186-92.596-12.486c-14.184-1.977-28.368-4.08-42.399-6.797c-10.663-2.064-20.426-6.342-28.427-13.436
		C-0.643,81.967-1.015,63.246,13.731,48.912c9.434-9.168,21.335-13.699,34.607-15.297c7.534-0.91,15.209-0.918,22.828-1.137
		c2.055-0.057,3.08-0.545,3.486-2.418c0.691-3.188,1.572-6.338,2.82-9.561c0.43,3.273,0.938,6.539,1.257,9.822
		c0.19,1.979,0.999,2.775,3.321,2.746c2.282-0.027,4.947-1.016,6.799,1.293c0.142,0.182,1.115,0.127,1.31-0.098
		c1.57-1.84,3.759-1.273,5.753-1.285c6.15-0.037,12.303-0.037,18.45,0.053c1.198,0.016,2.388,0.502,3.585,0.758
		c0.461,0.1,1.012,0.352,1.387,0.217c4.869-1.74,9.705-0.951,14.657-0.252c2.817,0.398,5.804-0.348,8.712-0.342
		c7.042,0.016,14.082,0.146,21.127,0.273c5.253,0.094,10.51,0.201,15.758,0.428c1.022,0.045,2.016,0.664,2.895,0.604
		c3.937-0.094,7.885-0.404,11.809-0.248c17.728,0.717,35.464,1.361,53.17,2.426c16.311,0.98,32.592,2.41,48.875,3.768
		c3.187,0.266,6.574,0.613,9.399,1.836c2.484,1.076,4.642,1.836,7.485,2.012c2.716,0.168,6.146,0.662,7.629,3.719
		c0.111,0.23,0.729,0.447,1.031,0.379c3.863-0.871,6.04,1.834,8.754,3.393c1.39,0.797,2.883,1.473,4.158,2.398
		c13.232,9.611,21.552,21.762,23.295,37.42c2.368,21.33-15.105,41.713-38.415,44.615
		C319.394,136.469,319.098,136.398,318.251,136.338z M18.575,48.672c-0.245-0.209-0.494-0.418-0.742-0.625
		c-0.593,0.357-1.363,0.6-1.756,1.092c-3.192,3.998-6.99,7.742-9.31,12.139c-4.442,8.414-4.238,17.002,1.751,24.969
		c1.189,1.58,2.951,2.799,4.447,4.186c0.383-0.23,0.764-0.459,1.146-0.688C6.972,84.027,4.229,77,5.762,68.633
		C7.247,60.512,12.498,54.387,18.575,48.672z M291.825,136.471c3.393,1.629,8.365,1.314,9.711,0
		C298.255,136.471,295.04,136.471,291.825,136.471z"/>
	<path fill-rule="evenodd" clip-rule="evenodd" fill="#FFFFFF" d="M237.673,21.852c-2.015,3.514-3.996,7.039-6.078,10.516
		c-0.266,0.443-1.055,0.9-1.588,0.887c-4.328-0.115-8.652-0.338-13.672-0.559c3.102-4.049,5.881-7.705,8.721-11.326
		c0.223-0.287,0.852-0.426,1.292-0.432c3.641-0.033,7.282-0.018,10.924-0.018C237.405,21.23,237.539,21.543,237.673,21.852z"/>
	<path fill-rule="evenodd" clip-rule="evenodd" fill="#FFFFFF" d="M208.345,20.086c-2.83,4.186-5.007,7.484-7.293,10.717
		c-0.373,0.531-1.213,1.088-1.854,1.105c-3.828,0.104-7.658,0.051-12.516,0.051c3.564-4.205,6.561-7.781,9.627-11.305
		c0.309-0.352,1.047-0.535,1.59-0.543C201.11,20.061,204.321,20.086,208.345,20.086z"/>
	<path fill-rule="evenodd" clip-rule="evenodd" fill="#FFFFFF" d="M234.462,33.404c2.189-3.809,4.188-7.402,6.351-10.91
		c0.318-0.514,1.442-0.877,2.179-0.854c2.747,0.086,5.487,0.359,8.646,0.596c-1.365,4.141-3.123,7.869-6.265,10.93
		c-0.515,0.502-1.558,0.795-2.345,0.771C240.302,33.867,237.577,33.615,234.462,33.404z"/>
	<path fill-rule="evenodd" clip-rule="evenodd" fill="#FFFFFF" d="M265.853,23.25c-1.754,3.939-3.35,7.525-5.125,11.512
		c-3.616-0.178-7.512-0.367-11.469-0.562c1.845-3.783,3.503-7.338,5.344-10.812c0.257-0.48,1.428-0.814,2.154-0.785
		C259.715,22.721,262.667,23.008,265.853,23.25z"/>
	<path fill-rule="evenodd" clip-rule="evenodd" fill="#FFFFFF" d="M203.7,31.957c2.334-3.545,4.488-6.967,6.841-10.275
		c0.485-0.684,1.704-1.281,2.603-1.303c2.645-0.064,5.297,0.184,8.625,0.34c-1.846,2.438-3.814,4.373-4.934,6.656
		C214.165,32.826,209.517,33.146,203.7,31.957z"/>
	<path fill-rule="evenodd" clip-rule="evenodd" fill="#FFFFFF" d="M172.637,31.172c3.241-3.697,6.144-7.008,9.405-10.729
		c2.871,0,6.506,0,10.666,0c-2.941,3.555-5.581,6.887-8.426,10.068c-0.578,0.646-1.916,0.99-2.911,1.004
		C178.708,31.549,176.042,31.326,172.637,31.172z"/>
	<path fill-rule="evenodd" clip-rule="evenodd" fill="#FFFFFF" d="M263.702,34.951c1.833-3.744,3.371-7.041,5.096-10.256
		c0.278-0.516,1.382-0.941,2.096-0.93c1.965,0.029,3.92,0.312,6.424,0.547c-0.625,3.82-1.225,7.492-1.863,11.398
		C271.497,35.455,267.989,35.229,263.702,34.951z"/>
	<path fill-rule="evenodd" clip-rule="evenodd" fill="#FFFFFF" d="M327.528,35.871c-1.913,2.924-3.674,5.615-5.525,8.445
		c-3.129-1.066-6.146-2.096-9.512-3.242c1.473-3.037,2.928-6.039,4.537-9.359C320.463,33.074,323.854,34.418,327.528,35.871z"/>
	<path fill-rule="evenodd" clip-rule="evenodd" fill="#FFFFFF" d="M280.278,24.629c3.083,0.34,5.998,0.66,9.091,1.002
		c-0.462,3.346-0.815,6.484-1.396,9.584c-0.107,0.57-1.152,1.428-1.73,1.406c-2.534-0.09-5.057-0.457-7.67-0.732
		C279.144,32.133,279.681,28.586,280.278,24.629z"/>
	<path fill-rule="evenodd" clip-rule="evenodd" fill="#FFFFFF" d="M290.819,37.086c0.537-3.721,1.036-7.16,1.59-10.969
		c3.35,0.545,6.305,1.027,9.636,1.57c-0.81,3.635-1.562,7.02-2.36,10.609C296.823,37.906,294.136,37.539,290.819,37.086z"/>
	<path fill-rule="evenodd" clip-rule="evenodd" fill="#FFFFFF" d="M152.921,21.641c-1.707,3.059-3.354,6.012-4.928,8.832
		c-3.285,0-6.497,0-9.914,0c1.62-2.797,3.033-5.361,4.601-7.842c0.31-0.49,1.195-0.922,1.834-0.945
		C147.258,21.582,150.009,21.641,152.921,21.641z"/>
	<path fill-rule="evenodd" clip-rule="evenodd" fill="#FFFFFF" d="M304.981,28.33c3.301,0.881,6.195,1.654,9.219,2.465
		c-1.287,2.639-2.562,4.979-3.564,7.412c-0.768,1.852-1.926,2.234-3.846,1.594c-1.187-0.396-2.459-0.586-4.096-0.959
		C303.435,35.445,304.153,32.135,304.981,28.33z"/>
	<path fill-rule="evenodd" clip-rule="evenodd" fill="#FFFFFF" d="M162.81,30.633c1.682-3.082,3.19-6.023,4.908-8.855
		c0.369-0.611,1.469-1.145,2.27-1.193c2.553-0.148,5.125-0.055,8.285-0.055c-1.534,1.646-2.84,3.014-4.104,4.41
		c-0.82,0.904-1.797,1.76-2.331,2.797C169.938,31.42,166.798,31.734,162.81,30.633z"/>
	<path fill-rule="evenodd" clip-rule="evenodd" fill="#FFFFFF" d="M139.273,22.26c-3.49,8.125-4.739,8.764-15.188,7.949
		C126.03,23.955,130.206,21.736,139.273,22.26z"/>
	<path fill-rule="evenodd" clip-rule="evenodd" fill="#FFFFFF" d="M150.858,30.84c2.145-3.395,3.766-6.174,5.654-8.791
		c0.455-0.631,1.773-0.928,2.737-1.023c1.648-0.162,3.331-0.045,5.531-0.045c-1.851,3.213-3.518,6.236-5.357,9.172
		c-0.278,0.441-1.335,0.623-2.048,0.658C155.508,30.9,153.63,30.84,150.858,30.84z"/>
	<path fill-rule="evenodd" clip-rule="evenodd" fill="#FFFFFF" d="M336.264,40.428c-1.371,3.004-2.687,5.883-4.068,8.906
		c-2.52-1.303-4.806-2.486-7.449-3.854c1.81-2.746,3.565-5.404,5.435-8.234C332.22,38.314,334.159,39.328,336.264,40.428z"/>
	<path fill-rule="evenodd" clip-rule="evenodd" fill="#FFFFFF" d="M108.282,30.18c3.229-6.525,9.365-7.189,15.959-6.787
		C122.577,29.4,119.624,30.67,108.282,30.18z"/>
	<path fill-rule="evenodd" clip-rule="evenodd" fill="#FFFFFF" d="M109.166,24.377c-3.701,5.117-8.595,6.922-15.267,5.525
		c1.707-1.77,3.334-3.455,5.33-5.525C102.001,24.377,105.435,24.377,109.166,24.377z"/>
	<path fill-rule="evenodd" clip-rule="evenodd" fill="#FFFFFF" d="M77.185,5.613c1.266,1.355,2.533,2.709,3.941,4.221
		c-1.069,0.592-1.891,1.049-2.412,1.338c-1.027-0.795-1.838-1.424-2.647-2.051c-0.439,0.896-1.113,1.76-1.282,2.699
		c-0.969,5.43-1.808,10.877-2.724,16.314c-0.083,0.488-0.385,0.945-1.157,1.299c0.361-1.844,0.812-3.68,1.06-5.535
		c0.563-4.219,0.839-8.479,1.605-12.662c0.364-1.982,1.595-3.828,2.433-5.738C76.396,5.537,76.79,5.574,77.185,5.613z"/>
	<path fill-rule="evenodd" clip-rule="evenodd" fill="#FFFFFF" d="M82.037,29.574c1.278-0.848,2.738-1.543,3.806-2.576
		c3.561-3.439,3.504-3.484,8.793-2.572C90.837,30.086,84.694,32.377,82.037,29.574z"/>
	<path fill-rule="evenodd" clip-rule="evenodd" fill="#FFFFFF" d="M82.441,12.615c1.76,3.703,1.68,3.939-1.933,6.156
		C78.332,14.959,78.499,14.371,82.441,12.615z"/>
	<path fill-rule="evenodd" clip-rule="evenodd" fill="#FFFFFF" d="M83.73,20.32c0.755,1,1.351,1.793,2.006,2.662
		c-1.271,1.305-2.493,2.562-3.771,3.875C80.377,23.256,80.414,23.115,83.73,20.32z"/>
	<path fill-rule="evenodd" clip-rule="evenodd" d="M18.575,48.672c-6.077,5.715-11.328,11.84-12.813,19.961
		C4.229,77,6.972,84.027,14.111,89.744c-0.382,0.229-0.763,0.457-1.146,0.688c-1.496-1.387-3.258-2.605-4.447-4.186
		c-5.989-7.967-6.193-16.555-1.751-24.969c2.319-4.396,6.117-8.141,9.31-12.139c0.393-0.492,1.163-0.734,1.756-1.092
		C18.081,48.254,18.33,48.463,18.575,48.672z"/>
</g>
<g>
	<g>
		<path fill="#331842" d="M75.791,53.059v1.961l-3.685-0.111v2.28l3.311-0.069l0.084,1.884h-2.956v1.766h3.87v1.974l-6.453-0.068
			c0.069-1.303,0.103-2.614,0.103-3.936c0-1.83-0.064-3.678-0.195-5.54C71.273,53.156,73.248,53.11,75.791,53.059z"/>
		<path fill="#331842" d="M77.123,60.602l2.136-0.076v0.09c0,0.714,0.295,1.075,0.886,1.085h0.037c0.572,0,0.857-0.206,0.857-0.619
			v-0.048c-0.024-0.455-0.588-0.82-1.691-1.099s-1.768-0.747-1.991-1.404c-0.08-0.231-0.121-0.454-0.121-0.667
			c0-0.39,0.134-0.751,0.401-1.084c0.409-0.511,1.031-0.803,1.865-0.877c0.223-0.018,0.44-0.027,0.652-0.027
			c0.553,0,1.041,0.072,1.464,0.215c0.578,0.2,0.979,0.484,1.203,0.855c0.148,0.255,0.224,0.537,0.224,0.848
			c0,0.149-0.016,0.301-0.047,0.459l-1.995,0.035c0.019-0.116,0.028-0.223,0.028-0.32c0-0.463-0.199-0.711-0.598-0.743
			c-0.043-0.005-0.087-0.007-0.13-0.007c-0.411,0-0.688,0.154-0.83,0.465c-0.05,0.106-0.075,0.205-0.075,0.293
			c0,0.218,0.137,0.404,0.41,0.562c0.386,0.223,0.956,0.449,1.712,0.678c0.755,0.229,1.263,0.62,1.524,1.171
			c0.093,0.208,0.14,0.417,0.14,0.626c0,0.353-0.137,0.707-0.411,1.064c-0.435,0.569-1.108,0.9-2.023,0.992
			c-0.198,0.024-0.395,0.036-0.587,0.036c-0.685,0-1.318-0.133-1.902-0.397C77.515,62.369,77.136,61.668,77.123,60.602z"/>
		<path fill="#331842" d="M85.413,53.713l2.116-0.104v2.3l1.782-0.034l0.027,1.313l-1.81,0.063v3.162
			c0,0.736,0.421,1.105,1.26,1.105c0.174,0,0.364-0.016,0.568-0.049L89.273,63c-0.298,0.027-0.581,0.041-0.849,0.041
			c-1.965,0-2.965-0.755-3.002-2.266v-3.398l-1.529,0.068l-0.037-1.55l1.566,0.014L85.413,53.713z"/>
		<path fill="#331842" d="M92.724,54.332c0,0.282-0.134,0.523-0.401,0.723c-0.267,0.199-0.59,0.299-0.969,0.299
			c-0.373,0-0.693-0.1-0.961-0.299s-0.401-0.44-0.401-0.723c0-0.278,0.134-0.517,0.401-0.717c0.268-0.199,0.588-0.299,0.961-0.299
			c0.379,0,0.702,0.1,0.969,0.299C92.59,53.815,92.724,54.054,92.724,54.332z M90.225,63.104c-0.043-2.711-0.065-5.054-0.065-7.028
			l2.351-0.104c-0.074,1.891-0.112,3.77-0.112,5.637c0,0.5,0.003,0.998,0.01,1.495H90.225z"/>
		<path fill="#331842" d="M94.738,55.784l0.038,1.112c0.335-0.533,0.724-0.864,1.165-0.994c0.262-0.073,0.525-0.111,0.793-0.111
			c0.199,0,0.397,0.019,0.597,0.057c0.484,0.093,0.83,0.463,1.035,1.111c0.161-0.506,0.44-0.842,0.839-1.012
			c0.397-0.168,0.839-0.255,1.324-0.26h0.037c0.473,0,0.927,0.086,1.362,0.257c0.44,0.176,0.778,0.506,1.011,0.991
			c0.233,0.484,0.355,1.148,0.368,1.99v4.039L101.294,63c0.081-1.524,0.121-2.822,0.121-3.893c0-1.071-0.273-1.647-0.82-1.73
			c-0.081-0.01-0.159-0.014-0.233-0.014c-0.435,0-0.771,0.208-1.007,0.625c-0.038,0.482-0.056,1.045-0.056,1.688
			c0,0.876,0.034,1.898,0.103,3.065l-2.331,0.015c0.086-1.794,0.13-3.101,0.13-3.921v-0.083c-0.006-0.811-0.222-1.237-0.644-1.279
			h-0.121c-0.379,0-0.746,0.163-1.1,0.487l0.018,5.088l-2.201,0.062v-1.141c0-2.02-0.04-4.038-0.121-6.054L94.738,55.784z"/>
		<path fill="#331842" d="M107.476,55.729c2.046,0.084,3.068,0.852,3.068,2.301v4.936l-2.173,0.028l-0.074-0.661
			c-0.448,0.381-1.042,0.57-1.781,0.57c-0.317,0-0.659-0.037-1.026-0.111c-1.101-0.203-1.649-0.838-1.649-1.904
			c0-0.13,0.008-0.269,0.027-0.418c0.124-1.098,1.171-1.646,3.143-1.646c0.379,0,0.795,0.021,1.25,0.062v-0.807
			c0-0.653-0.277-0.979-0.83-0.979h-0.037c-0.045-0.005-0.085-0.008-0.123-0.008c-0.602,0-0.903,0.367-0.903,1.099v0.104
			l-2.22-0.139c0-1.618,1.045-2.427,3.133-2.427H107.476z M108.26,61.221v-1.225c-0.268-0.041-0.511-0.062-0.728-0.062
			c-0.565,0-0.952,0.142-1.157,0.423c-0.124,0.173-0.186,0.332-0.186,0.48c0,0.186,0.099,0.35,0.298,0.493
			c0.155,0.111,0.357,0.167,0.606,0.167C107.41,61.498,107.8,61.406,108.26,61.221z"/>
		<path fill="#331842" d="M118.34,53.233c-0.037,1.567-0.056,3.21-0.056,4.929c0,1.566,0.015,3.197,0.046,4.893l-2.209,0.008
			l-0.075-1.064c-0.46,0.516-1.073,0.772-1.837,0.772c-1.909,0-2.863-1.089-2.863-3.267c0-0.047,0.003-0.094,0.01-0.139
			c0.037-2.184,0.981-3.275,2.835-3.275c0.073,0,0.151,0.002,0.233,0.008c0.634,0.027,1.146,0.284,1.537,0.771
			c0-1.029-0.034-2.241-0.103-3.636H118.34z M116.008,60.574l-0.047-2.405c-0.36-0.366-0.73-0.55-1.108-0.55
			c-0.156,0-0.312,0.03-0.467,0.091c-0.491,0.189-0.736,0.724-0.736,1.599c0,0.102,0.003,0.207,0.01,0.312
			c0.062,1.062,0.378,1.623,0.95,1.682c0.056,0.006,0.112,0.008,0.168,0.008C115.274,61.311,115.686,61.064,116.008,60.574z"/>
		<path fill="#331842" d="M122.358,55.931c2.114,0,3.171,1.095,3.171,3.28c0,0.088-0.003,0.178-0.01,0.265
			c-0.086,2.368-1.211,3.563-3.375,3.587c-0.025,0.004-0.05,0.006-0.074,0.006c-2.059,0-3.087-1.117-3.087-3.356v-0.194
			C119.046,57.127,120.171,55.931,122.358,55.931z M122.051,57.516c-0.392,0.102-0.659,0.479-0.803,1.133
			c-0.086,0.389-0.13,0.78-0.13,1.175c0,0.265,0.02,0.53,0.057,0.799c0.1,0.667,0.419,1.013,0.96,1.036h0.065
			c0.504,0,0.849-0.248,1.035-0.744c0.155-0.412,0.233-0.901,0.233-1.467c0-0.139-0.003-0.279-0.01-0.424
			c-0.051-0.746-0.199-1.211-0.447-1.396c-0.156-0.111-0.342-0.167-0.561-0.167C122.328,57.46,122.193,57.479,122.051,57.516z"/>
		<path fill="#331842" d="M133.129,55.729c2.046,0.084,3.068,0.852,3.068,2.301v4.936l-2.174,0.028l-0.073-0.661
			c-0.448,0.381-1.042,0.57-1.782,0.57c-0.316,0-0.658-0.037-1.025-0.111c-1.1-0.203-1.65-0.838-1.65-1.904
			c0-0.13,0.009-0.269,0.028-0.418c0.124-1.098,1.171-1.646,3.142-1.646c0.38,0,0.796,0.021,1.25,0.062v-0.807
			c0-0.653-0.276-0.979-0.829-0.979h-0.038c-0.043-0.005-0.084-0.008-0.121-0.008c-0.603,0-0.904,0.367-0.904,1.099v0.104
			l-2.22-0.139c0-1.618,1.045-2.427,3.134-2.427H133.129z M133.912,61.221v-1.225c-0.267-0.041-0.51-0.062-0.727-0.062
			c-0.566,0-0.952,0.142-1.157,0.423c-0.124,0.173-0.187,0.332-0.187,0.48c0,0.186,0.1,0.35,0.299,0.493
			c0.155,0.111,0.357,0.167,0.606,0.167C133.063,61.498,133.453,61.406,133.912,61.221z"/>
		<path fill="#331842" d="M136.999,65.844c0.037-1.562,0.056-3.224,0.056-4.985c0-1.603-0.015-3.285-0.046-5.046l2.209-0.007
			l0.075,1.07c0.46-0.519,1.072-0.778,1.837-0.778c1.909,0,2.863,1.124,2.863,3.371v0.139c-0.044,2.252-0.995,3.379-2.854,3.379
			c-0.075,0-0.149-0.003-0.225-0.008c-0.634-0.023-1.146-0.279-1.538-0.771c0,1.029,0.035,2.24,0.104,3.637H136.999z M139.33,58.301
			l0.047,2.613c0.361,0.367,0.725,0.55,1.092,0.55c0.148,0,0.298-0.033,0.446-0.097c0.455-0.187,0.682-0.74,0.682-1.662
			c0-0.111-0.003-0.227-0.01-0.348c-0.062-1.131-0.364-1.727-0.905-1.786c-0.055-0.005-0.107-0.008-0.158-0.008
			C140.051,57.563,139.653,57.81,139.33,58.301z"/>
		<path fill="#331842" d="M147.21,58.086l0.093,5.039l-2.284,0.014c0-2.131-0.097-4.525-0.288-7.18l1.715-0.14l0.093,1.133
			c0.263-0.556,0.87-0.873,1.828-0.952c0.144-0.01,0.28-0.014,0.41-0.014c0.752,0,1.324,0.183,1.717,0.549
			c0.453,0.436,0.683,1.129,0.689,2.078l-2.07,0.153c0.007-0.079,0.01-0.155,0.01-0.229c0-0.741-0.258-1.112-0.774-1.112h-0.037
			C147.714,57.448,147.347,57.668,147.21,58.086z"/>
		<path fill="#331842" d="M154.838,55.931c2.157,0,3.235,1.068,3.235,3.204c0,0.26-0.015,0.537-0.046,0.834h-4.169
			c0,1.191,0.308,1.787,0.923,1.787h0.065c0.541-0.032,0.812-0.342,0.812-0.926c0-0.125-0.013-0.264-0.037-0.416l2.219-0.035
			c0,1.766-1.034,2.66-3.104,2.684c-0.025,0.004-0.047,0.006-0.065,0.006c-1.971,0-2.955-1.113-2.955-3.342v-0.209
			C151.776,57.127,152.816,55.931,154.838,55.931z M153.635,58.689h2.108v-0.166c0-0.844-0.321-1.266-0.962-1.266
			C154.092,57.258,153.71,57.736,153.635,58.689z"/>
		<path fill="#331842" d="M160.489,55.75l0.093,1.133c0.262-0.603,0.948-0.908,2.061-0.918h0.037c1.095,0,1.841,0.32,2.238,0.959
			c0.274,0.437,0.411,1.455,0.411,3.059c0,0.789-0.034,1.72-0.103,2.795h-2.257c0.081-1.432,0.121-2.543,0.121-3.33
			c0-0.393-0.01-0.709-0.028-0.945c-0.062-0.694-0.359-1.042-0.895-1.042s-0.871,0.185-1.008,0.556l0.094,5.039l-2.191,0.014
			c0-2.131-0.097-4.523-0.289-7.18L160.489,55.75z"/>
		<path fill="#331842" d="M173.153,53.233c-0.038,1.567-0.056,3.21-0.056,4.929c0,1.566,0.015,3.197,0.046,4.893l-2.21,0.008
			l-0.074-1.064c-0.46,0.516-1.073,0.772-1.838,0.772c-1.908,0-2.862-1.089-2.862-3.267c0-0.047,0.003-0.094,0.01-0.139
			c0.037-2.184,0.981-3.275,2.835-3.275c0.073,0,0.151,0.002,0.232,0.008c0.635,0.027,1.146,0.284,1.538,0.771
			c0-1.029-0.034-2.241-0.103-3.636H173.153z M170.822,60.574l-0.048-2.405c-0.36-0.366-0.73-0.55-1.108-0.55
			c-0.156,0-0.312,0.03-0.467,0.091c-0.492,0.189-0.736,0.724-0.736,1.599c0,0.102,0.003,0.207,0.01,0.312
			c0.062,1.062,0.378,1.623,0.95,1.682c0.056,0.006,0.112,0.008,0.168,0.008C170.088,61.311,170.499,61.064,170.822,60.574z"/>
		<path fill="#331842" d="M176.5,54.332c0,0.282-0.133,0.523-0.4,0.723s-0.591,0.299-0.969,0.299c-0.374,0-0.694-0.1-0.962-0.299
			s-0.401-0.44-0.401-0.723c0-0.278,0.134-0.517,0.401-0.717c0.268-0.199,0.588-0.299,0.962-0.299c0.378,0,0.701,0.1,0.969,0.299
			C176.367,53.815,176.5,54.054,176.5,54.332z M174.001,63.104c-0.043-2.711-0.065-5.054-0.065-7.028l2.351-0.104
			c-0.074,1.891-0.112,3.77-0.112,5.637c0,0.5,0.004,0.998,0.01,1.495H174.001z"/>
		<path fill="#331842" d="M177.06,55.896c0.548,0.009,1.159,0.014,1.837,0.014c1.088,0,2.348-0.012,3.777-0.034l0.047,1.418
			l-3.32,4.171h3.32l-0.028,1.522c-1.561,0-3.46,0.023-5.698,0.068l-0.073-1.348l3.478-4.414c-1.113,0-2.211,0.03-3.292,0.09
			L177.06,55.896z"/>
		<path fill="#331842" d="M183.401,63.967c0.689-0.148,1.091-0.434,1.203-0.855c-0.479-0.12-0.794-0.265-0.942-0.432
			c-0.149-0.166-0.224-0.354-0.224-0.562s0.06-0.394,0.177-0.553c0.119-0.159,0.287-0.281,0.509-0.365
			c0.221-0.083,0.439-0.127,0.657-0.133h0.019c0.206,0,0.404,0.028,0.597,0.084c0.193,0.061,0.35,0.15,0.471,0.271
			c0.122,0.12,0.207,0.25,0.257,0.385c0.05,0.137,0.078,0.301,0.083,0.491v0.028c0,0.185-0.033,0.389-0.102,0.611
			c-0.069,0.236-0.187,0.461-0.354,0.674s-0.412,0.416-0.731,0.608c-0.321,0.192-0.798,0.308-1.432,0.345L183.401,63.967z"/>
		<path fill="#331842" d="M190.487,65.844c0.037-1.562,0.056-3.224,0.056-4.985c0-1.603-0.015-3.285-0.046-5.046l2.209-0.007
			l0.075,1.07c0.46-0.519,1.072-0.778,1.837-0.778c1.909,0,2.863,1.124,2.863,3.371v0.139c-0.044,2.252-0.995,3.379-2.854,3.379
			c-0.075,0-0.149-0.003-0.225-0.008c-0.634-0.023-1.146-0.279-1.538-0.771c0,1.029,0.035,2.24,0.104,3.637H190.487z
			 M192.818,58.301l0.047,2.613c0.361,0.367,0.725,0.55,1.092,0.55c0.148,0,0.298-0.033,0.446-0.097
			c0.455-0.187,0.682-0.74,0.682-1.662c0-0.111-0.003-0.227-0.01-0.348c-0.062-1.131-0.363-1.727-0.905-1.786
			c-0.055-0.005-0.107-0.008-0.158-0.008C193.539,57.563,193.142,57.81,192.818,58.301z"/>
		<path fill="#331842" d="M201.5,55.931c2.114,0,3.171,1.095,3.171,3.28c0,0.088-0.003,0.178-0.01,0.265
			c-0.086,2.368-1.212,3.563-3.375,3.587c-0.025,0.004-0.05,0.006-0.075,0.006c-2.057,0-3.086-1.117-3.086-3.356v-0.194
			C198.188,57.127,199.312,55.931,201.5,55.931z M201.192,57.516c-0.392,0.102-0.659,0.479-0.802,1.133
			c-0.087,0.389-0.131,0.78-0.131,1.175c0,0.265,0.02,0.53,0.057,0.799c0.1,0.667,0.419,1.013,0.961,1.036h0.064
			c0.504,0,0.848-0.248,1.035-0.744c0.155-0.412,0.233-0.901,0.233-1.467c0-0.139-0.003-0.279-0.01-0.424
			c-0.05-0.746-0.198-1.211-0.447-1.396c-0.155-0.111-0.342-0.167-0.56-0.167C201.469,57.46,201.336,57.479,201.192,57.516z"/>
		<path fill="#331842" d="M207.664,58.086l0.094,5.039l-2.285,0.014c0-2.131-0.096-4.525-0.288-7.18l1.715-0.14l0.094,1.133
			c0.262-0.556,0.87-0.873,1.827-0.952c0.144-0.01,0.28-0.014,0.411-0.014c0.751,0,1.323,0.183,1.716,0.549
			c0.453,0.436,0.684,1.129,0.689,2.078l-2.07,0.153c0.007-0.079,0.01-0.155,0.01-0.229c0-0.741-0.258-1.112-0.773-1.112h-0.038
			C208.168,57.448,207.801,57.668,207.664,58.086z"/>
		<path fill="#331842" d="M217.102,56.181c-0.014-0.125-0.02-0.252-0.02-0.383c0-0.435,0.06-0.882,0.178-1.341
			c0.143-0.598,0.578-1.074,1.305-1.432c0.542-0.27,1.225-0.403,2.052-0.403c0.273,0,0.565,0.016,0.877,0.048l-0.02,1.523
			c-0.186-0.02-0.36-0.028-0.521-0.028c-0.516,0-0.896,0.095-1.138,0.284c-0.268,0.2-0.401,0.59-0.401,1.168
			c0,0.139,0.01,0.292,0.028,0.459l1.996-0.021v1.411l-2.053,0.097c0.051,1.521,0.075,2.957,0.075,4.31
			c0,0.408-0.003,0.807-0.01,1.195l-2.368,0.078c0.02-1.543,0.05-3.369,0.094-5.479l-1.511,0.057l-0.038-1.496L217.102,56.181z"/>
		<path fill="#331842" d="M225.866,55.729c2.046,0.084,3.067,0.852,3.067,2.301v4.936l-2.172,0.028l-0.074-0.661
			c-0.448,0.381-1.042,0.57-1.781,0.57c-0.317,0-0.659-0.037-1.026-0.111c-1.101-0.203-1.649-0.838-1.649-1.904
			c0-0.13,0.008-0.269,0.027-0.418c0.124-1.098,1.171-1.646,3.142-1.646c0.38,0,0.796,0.021,1.251,0.062v-0.807
			c0-0.653-0.277-0.979-0.83-0.979h-0.038c-0.044-0.005-0.084-0.008-0.122-0.008c-0.602,0-0.903,0.367-0.903,1.099v0.104
			l-2.22-0.139c0-1.618,1.045-2.427,3.133-2.427H225.866z M226.65,61.221v-1.225c-0.268-0.041-0.511-0.062-0.728-0.062
			c-0.565,0-0.952,0.142-1.157,0.423c-0.124,0.173-0.186,0.332-0.186,0.48c0,0.186,0.099,0.35,0.298,0.493
			c0.155,0.111,0.357,0.167,0.606,0.167C225.801,61.498,226.189,61.406,226.65,61.221z"/>
		<path fill="#331842" d="M231.415,62.889c-0.784-2.684-1.486-4.986-2.107-6.91l2.266-0.09l1.146,5.053
			c0.597-1.891,1.073-3.614,1.428-5.172l2.229,0.209c-0.702,1.942-1.521,4.236-2.453,6.882L231.415,62.889z"/>
		<path fill="#331842" d="M240.003,55.931c2.114,0,3.171,1.095,3.171,3.28c0,0.088-0.004,0.178-0.01,0.265
			c-0.087,2.368-1.212,3.563-3.375,3.587c-0.025,0.004-0.051,0.006-0.075,0.006c-2.058,0-3.086-1.117-3.086-3.356v-0.194
			C236.689,57.127,237.814,55.931,240.003,55.931z M239.695,57.516c-0.393,0.102-0.659,0.479-0.803,1.133
			c-0.087,0.389-0.131,0.78-0.131,1.175c0,0.265,0.02,0.53,0.057,0.799c0.1,0.667,0.42,1.013,0.961,1.036h0.065
			c0.503,0,0.848-0.248,1.035-0.744c0.155-0.412,0.233-0.901,0.233-1.467c0-0.139-0.004-0.279-0.01-0.424
			c-0.051-0.746-0.199-1.211-0.447-1.396c-0.156-0.111-0.342-0.167-0.561-0.167C239.972,57.46,239.838,57.479,239.695,57.516z"/>
		<path fill="#331842" d="M246.167,58.086l0.093,5.039l-2.284,0.014c0-2.131-0.097-4.525-0.289-7.18l1.716-0.14l0.093,1.133
			c0.263-0.556,0.87-0.873,1.828-0.952c0.144-0.01,0.28-0.014,0.41-0.014c0.752,0,1.324,0.183,1.717,0.549
			c0.453,0.436,0.683,1.129,0.689,2.078l-2.07,0.153c0.007-0.079,0.01-0.155,0.01-0.229c0-0.741-0.258-1.112-0.774-1.112h-0.037
			C246.671,57.448,246.304,57.668,246.167,58.086z"/>
		<path fill="#331842" d="M256.723,58.086l0.093,5.039l-2.284,0.014c0-2.131-0.097-4.525-0.289-7.18l1.715-0.14l0.094,1.133
			c0.262-0.556,0.87-0.873,1.827-0.952c0.144-0.01,0.28-0.014,0.411-0.014c0.752,0,1.324,0.183,1.716,0.549
			c0.454,0.436,0.684,1.129,0.69,2.078l-2.07,0.153c0.006-0.079,0.01-0.155,0.01-0.229c0-0.741-0.258-1.112-0.775-1.112h-0.037
			C257.226,57.448,256.859,57.668,256.723,58.086z"/>
		<path fill="#331842" d="M264.351,55.931c2.157,0,3.234,1.068,3.234,3.204c0,0.26-0.015,0.537-0.046,0.834h-4.168
			c0,1.191,0.308,1.787,0.923,1.787h0.065c0.541-0.032,0.811-0.342,0.811-0.926c0-0.125-0.012-0.264-0.037-0.416l2.219-0.035
			c0,1.766-1.033,2.66-3.104,2.684c-0.026,0.004-0.047,0.006-0.065,0.006c-1.972,0-2.956-1.113-2.956-3.342v-0.209
			C261.289,57.127,262.329,55.931,264.351,55.931z M263.147,58.689h2.107v-0.166c0-0.844-0.321-1.266-0.961-1.266
			C263.604,57.258,263.222,57.736,263.147,58.689z"/>
		<path fill="#331842" d="M271.895,55.729c2.045,0.084,3.067,0.852,3.067,2.301v4.936l-2.173,0.028l-0.074-0.661
			c-0.447,0.381-1.041,0.57-1.781,0.57c-0.316,0-0.658-0.037-1.025-0.111c-1.101-0.203-1.65-0.838-1.65-1.904
			c0-0.13,0.009-0.269,0.027-0.418c0.125-1.098,1.172-1.646,3.143-1.646c0.38,0,0.796,0.021,1.25,0.062v-0.807
			c0-0.653-0.277-0.979-0.83-0.979h-0.037c-0.044-0.005-0.084-0.008-0.122-0.008c-0.602,0-0.903,0.367-0.903,1.099v0.104
			l-2.221-0.139c0-1.618,1.045-2.427,3.134-2.427H271.895z M272.678,61.221v-1.225c-0.268-0.041-0.51-0.062-0.727-0.062
			c-0.566,0-0.952,0.142-1.158,0.423c-0.123,0.173-0.186,0.332-0.186,0.48c0,0.186,0.1,0.35,0.299,0.493
			c0.154,0.111,0.356,0.167,0.605,0.167C271.829,61.498,272.218,61.406,272.678,61.221z"/>
		<path fill="#331842" d="M278.328,62.951l-2.321,0.16c0.024-1.534,0.038-3.01,0.038-4.428c0-1.992-0.026-3.873-0.075-5.639
			l2.284-0.027c-0.024,1.136-0.037,2.301-0.037,3.497C278.217,58.576,278.254,60.723,278.328,62.951z"/>
		<path fill="#331842" d="M281.741,54.332c0,0.282-0.134,0.523-0.401,0.723s-0.59,0.299-0.969,0.299c-0.373,0-0.693-0.1-0.961-0.299
			s-0.401-0.44-0.401-0.723c0-0.278,0.134-0.517,0.401-0.717c0.268-0.199,0.588-0.299,0.961-0.299c0.379,0,0.701,0.1,0.969,0.299
			C281.607,53.815,281.741,54.054,281.741,54.332z M279.242,63.104c-0.043-2.711-0.065-5.054-0.065-7.028l2.351-0.104
			c-0.075,1.891-0.112,3.77-0.112,5.637c0,0.5,0.003,0.998,0.01,1.495H279.242z"/>
		<path fill="#331842" d="M286.068,60.205l2.219,0.105c0,1.672-1.034,2.52-3.104,2.543c-0.025,0.005-0.047,0.007-0.065,0.007
			c-1.971,0-2.955-1.114-2.955-3.343v-0.209c0.062-2.391,1.111-3.598,3.151-3.621h0.074c1.877,0,2.816,0.801,2.816,2.404
			c0,0.094-0.003,0.186-0.01,0.278l-2.005,0.111v-0.167c0-0.843-0.32-1.266-0.961-1.266c-0.652,0-0.979,0.684-0.979,2.052v0.229
			c0.037,1.479,0.367,2.218,0.988,2.218h0.056c0.541-0.033,0.812-0.341,0.812-0.925C286.105,60.497,286.093,60.357,286.068,60.205z"
			/>
		<path fill="#331842" d="M292.092,55.931c2.157,0,3.235,1.068,3.235,3.204c0,0.26-0.015,0.537-0.046,0.834h-4.169
			c0,1.191,0.309,1.787,0.923,1.787h0.065c0.541-0.032,0.812-0.342,0.812-0.926c0-0.125-0.013-0.264-0.037-0.416l2.219-0.035
			c0,1.766-1.033,2.66-3.104,2.684c-0.025,0.004-0.047,0.006-0.065,0.006c-1.971,0-2.955-1.113-2.955-3.342v-0.209
			C289.03,57.127,290.071,55.931,292.092,55.931z M290.889,58.689h2.108v-0.166c0-0.844-0.321-1.266-0.962-1.266
			C291.346,57.258,290.964,57.736,290.889,58.689z"/>
		<path fill="#331842" d="M302.125,62.951l-2.321,0.16c0.024-1.534,0.038-3.01,0.038-4.428c0-1.992-0.026-3.873-0.075-5.639
			l2.284-0.027c-0.024,1.136-0.037,2.301-0.037,3.497C302.014,58.576,302.051,60.723,302.125,62.951z"/>
		<path fill="#331842" d="M306.536,55.729c2.046,0.084,3.067,0.852,3.067,2.301v4.936l-2.173,0.028l-0.073-0.661
			c-0.448,0.381-1.042,0.57-1.782,0.57c-0.316,0-0.658-0.037-1.025-0.111c-1.101-0.203-1.649-0.838-1.649-1.904
			c0-0.13,0.008-0.269,0.027-0.418c0.124-1.098,1.171-1.646,3.142-1.646c0.38,0,0.796,0.021,1.251,0.062v-0.807
			c0-0.653-0.277-0.979-0.83-0.979h-0.038c-0.044-0.005-0.084-0.008-0.122-0.008c-0.602,0-0.903,0.367-0.903,1.099v0.104
			l-2.22-0.139c0-1.618,1.045-2.427,3.133-2.427H306.536z M307.32,61.221v-1.225c-0.268-0.041-0.511-0.062-0.728-0.062
			c-0.565,0-0.952,0.142-1.157,0.423c-0.124,0.173-0.187,0.332-0.187,0.48c0,0.186,0.1,0.35,0.299,0.493
			c0.155,0.111,0.356,0.167,0.606,0.167C306.471,61.498,306.859,61.406,307.32,61.221z"/>
		<path fill="#331842" d="M40.611,72.833l0.093,1.134c0.262-0.604,0.948-0.909,2.061-0.918h0.037c1.095,0,1.841,0.32,2.238,0.959
			c0.274,0.436,0.411,1.456,0.411,3.059c0,0.789-0.034,1.719-0.103,2.795h-2.257c0.08-1.432,0.121-2.542,0.121-3.33
			c0-0.395-0.01-0.709-0.028-0.945c-0.062-0.695-0.36-1.043-0.895-1.043c-0.535,0-0.871,0.186-1.008,0.557l0.093,5.039l-2.19,0.015
			c0-2.132-0.097-4.526-0.289-7.182L40.611,72.833z"/>
		<path fill="#331842" d="M49.834,72.812c2.045,0.084,3.067,0.85,3.067,2.301v4.936l-2.173,0.027l-0.074-0.66
			c-0.447,0.38-1.041,0.57-1.781,0.57c-0.316,0-0.658-0.037-1.025-0.111c-1.101-0.204-1.65-0.84-1.65-1.904
			c0-0.131,0.009-0.27,0.028-0.418c0.124-1.098,1.171-1.647,3.142-1.647c0.38,0,0.796,0.021,1.25,0.063v-0.807
			c0-0.653-0.277-0.98-0.83-0.98H49.75c-0.044-0.004-0.084-0.007-0.122-0.007c-0.602,0-0.903,0.366-0.903,1.099v0.104l-2.221-0.139
			c0-1.617,1.045-2.426,3.134-2.426H49.834z M50.617,78.305V77.08c-0.268-0.041-0.51-0.062-0.727-0.062
			c-0.566,0-0.952,0.143-1.157,0.424c-0.124,0.172-0.187,0.332-0.187,0.48c0,0.186,0.1,0.35,0.299,0.494
			c0.154,0.11,0.357,0.166,0.605,0.166C49.769,78.582,50.157,78.489,50.617,78.305z"/>
		<path fill="#331842" d="M55.383,79.973c-0.784-2.684-1.486-4.986-2.107-6.91l2.266-0.091l1.146,5.054
			c0.597-1.891,1.072-3.614,1.428-5.171l2.229,0.208c-0.703,1.941-1.521,4.236-2.453,6.882L55.383,79.973z"/>
		<path fill="#331842" d="M63.719,73.014c2.157,0,3.235,1.068,3.235,3.205c0,0.259-0.015,0.537-0.046,0.834h-4.169
			c0,1.191,0.308,1.786,0.923,1.786h0.065c0.541-0.032,0.812-0.341,0.812-0.924c0-0.126-0.013-0.265-0.037-0.417l2.219-0.035
			c0,1.766-1.034,2.66-3.104,2.683c-0.025,0.005-0.047,0.008-0.065,0.008c-1.971,0-2.955-1.114-2.955-3.345v-0.208
			C60.657,74.209,61.697,73.014,63.719,73.014z M62.516,75.773h2.107v-0.166c0-0.844-0.32-1.266-0.961-1.266
			C62.973,74.342,62.591,74.818,62.516,75.773z"/>
		<path fill="#331842" d="M67.915,80.959l2.191-0.09c-0.007,0.055-0.01,0.111-0.01,0.166c0,0.505,0.271,0.781,0.812,0.828
			c0.087,0.008,0.168,0.014,0.243,0.014c0.466,0,0.799-0.139,0.998-0.417c0.173-0.251,0.261-0.719,0.261-1.404
			c0-0.187-0.006-0.39-0.02-0.612c-0.348,0.52-0.994,0.803-1.938,0.849c-1.847-0.014-2.771-1.184-2.771-3.511v-0.049
			c0.014-2.354,1.11-3.538,3.292-3.552c0.597,0,1.132,0.26,1.604,0.778l0.027-1.104l2.043,0.069c0,3.823-0.016,6.191-0.047,7.104
			c-0.031,0.913-0.217,1.646-0.555,2.197c-0.34,0.551-0.916,0.904-1.729,1.057c-0.429,0.084-0.855,0.125-1.278,0.125
			c-0.38,0-0.755-0.033-1.128-0.098c-0.796-0.139-1.344-0.4-1.642-0.785c-0.248-0.316-0.372-0.728-0.372-1.238
			C67.897,81.184,67.902,81.074,67.915,80.959z M72.373,78.207v-2.822c-0.305-0.459-0.69-0.689-1.156-0.689
			c-0.094,0-0.19,0.01-0.29,0.028c-0.603,0.106-0.936,0.726-0.998,1.856c-0.005,0.119-0.009,0.236-0.009,0.348
			c0,0.922,0.23,1.488,0.69,1.696c0.155,0.073,0.319,0.11,0.494,0.11C71.489,78.734,71.913,78.559,72.373,78.207z"/>
		<path fill="#331842" d="M78.975,72.812c2.045,0.084,3.068,0.85,3.068,2.301v4.936l-2.174,0.027l-0.073-0.66
			c-0.448,0.38-1.042,0.57-1.782,0.57c-0.316,0-0.658-0.037-1.025-0.111c-1.101-0.204-1.65-0.84-1.65-1.904
			c0-0.131,0.009-0.27,0.028-0.418c0.124-1.098,1.171-1.647,3.142-1.647c0.38,0,0.796,0.021,1.25,0.063v-0.807
			c0-0.653-0.276-0.98-0.83-0.98h-0.037c-0.044-0.004-0.084-0.007-0.121-0.007c-0.603,0-0.904,0.366-0.904,1.099v0.104l-2.221-0.139
			c0-1.617,1.045-2.426,3.134-2.426H78.975z M79.758,78.305V77.08c-0.268-0.041-0.51-0.062-0.727-0.062
			c-0.566,0-0.952,0.143-1.157,0.424c-0.124,0.172-0.187,0.332-0.187,0.48c0,0.186,0.1,0.35,0.299,0.494
			c0.154,0.11,0.357,0.166,0.606,0.166C78.909,78.582,79.299,78.489,79.758,78.305z"/>
		<path fill="#331842" d="M86.603,77.289l2.219,0.104c0,1.674-1.034,2.521-3.104,2.545c-0.025,0.005-0.047,0.007-0.065,0.007
			c-1.971,0-2.956-1.114-2.956-3.344v-0.208c0.062-2.393,1.113-3.598,3.152-3.621h0.074c1.877,0,2.816,0.801,2.816,2.404
			c0,0.094-0.004,0.186-0.01,0.278l-2.004,0.111v-0.167c0-0.844-0.321-1.266-0.962-1.266c-0.652,0-0.979,0.684-0.979,2.051v0.229
			c0.038,1.478,0.367,2.218,0.988,2.218h0.056c0.541-0.033,0.812-0.341,0.812-0.925C86.64,77.581,86.627,77.441,86.603,77.289z"/>
		<path fill="#331842" d="M92.206,71.415c0,0.283-0.134,0.524-0.401,0.723c-0.267,0.2-0.59,0.3-0.969,0.3
			c-0.373,0-0.693-0.1-0.961-0.3c-0.268-0.198-0.401-0.439-0.401-0.723c0-0.278,0.134-0.517,0.401-0.716s0.588-0.299,0.961-0.299
			c0.379,0,0.702,0.1,0.969,0.299C92.072,70.898,92.206,71.137,92.206,71.415z M89.707,80.188c-0.043-2.711-0.065-5.053-0.065-7.027
			l2.351-0.105c-0.074,1.892-0.112,3.771-0.112,5.639c0,0.5,0.003,0.999,0.01,1.494H89.707z"/>
		<path fill="#331842" d="M96.002,73.014c2.114,0,3.17,1.094,3.17,3.281c0,0.088-0.003,0.176-0.009,0.264
			c-0.087,2.369-1.212,3.564-3.375,3.587c-0.026,0.005-0.051,0.008-0.075,0.008c-2.058,0-3.086-1.12-3.086-3.358v-0.194
			C92.688,74.209,93.813,73.014,96.002,73.014z M95.693,74.599c-0.391,0.103-0.658,0.479-0.802,1.134
			c-0.087,0.389-0.131,0.78-0.131,1.174c0,0.264,0.02,0.531,0.058,0.8c0.099,0.667,0.419,1.013,0.96,1.036h0.065
			c0.503,0,0.848-0.248,1.035-0.744c0.154-0.412,0.232-0.901,0.232-1.467c0-0.139-0.003-0.28-0.01-0.424
			c-0.05-0.746-0.198-1.211-0.446-1.397c-0.156-0.111-0.343-0.167-0.561-0.167C95.971,74.543,95.837,74.562,95.693,74.599z
			 M94.79,71.658c0.728-0.644,1.324-1.258,1.79-1.842l1.529,0.903c-0.658,0.482-1.393,1.073-2.201,1.772L94.79,71.658z"/>
		<path fill="#331842" d="M101.401,72.833l0.093,1.134c0.262-0.604,0.949-0.909,2.061-0.918h0.037c1.095,0,1.841,0.32,2.238,0.959
			c0.274,0.436,0.411,1.456,0.411,3.059c0,0.789-0.034,1.719-0.103,2.795h-2.257c0.081-1.432,0.121-2.542,0.121-3.33
			c0-0.395-0.01-0.709-0.027-0.945c-0.062-0.695-0.36-1.043-0.896-1.043s-0.87,0.186-1.008,0.557l0.094,5.039l-2.191,0.015
			c0-2.132-0.097-4.526-0.289-7.182L101.401,72.833z"/>
		<path fill="#331842" d="M117.543,70.316c-0.037,1.566-0.056,3.209-0.056,4.93c0,1.564,0.015,3.197,0.046,4.893l-2.209,0.007
			l-0.075-1.063c-0.46,0.516-1.072,0.771-1.837,0.771c-1.909,0-2.863-1.088-2.863-3.268c0-0.045,0.004-0.092,0.01-0.139
			c0.037-2.183,0.981-3.273,2.835-3.273c0.074,0,0.151,0.002,0.233,0.007c0.634,0.028,1.146,0.285,1.537,0.772
			c0-1.029-0.033-2.241-0.102-3.637H117.543z M115.212,77.657l-0.048-2.405c-0.359-0.365-0.73-0.549-1.108-0.549
			c-0.156,0-0.312,0.03-0.466,0.09c-0.492,0.19-0.737,0.723-0.737,1.6c0,0.102,0.003,0.205,0.01,0.312
			c0.062,1.061,0.378,1.623,0.95,1.683c0.056,0.004,0.112,0.007,0.168,0.007C114.479,78.395,114.889,78.148,115.212,77.657z"/>
		<path fill="#331842" d="M121.311,73.014c2.157,0,3.235,1.068,3.235,3.205c0,0.259-0.016,0.537-0.046,0.834h-4.169
			c0,1.191,0.308,1.786,0.923,1.786h0.065c0.541-0.032,0.812-0.341,0.812-0.924c0-0.126-0.013-0.265-0.037-0.417l2.219-0.035
			c0,1.766-1.034,2.66-3.104,2.683c-0.025,0.005-0.047,0.008-0.065,0.008c-1.971,0-2.956-1.114-2.956-3.345v-0.208
			C118.249,74.209,119.289,73.014,121.311,73.014z M120.107,75.773h2.107v-0.166c0-0.844-0.32-1.266-0.961-1.266
			C120.564,74.342,120.183,74.818,120.107,75.773z"/>
		<path fill="#331842" d="M131.755,73.014c2.157,0,3.234,1.068,3.234,3.205c0,0.259-0.015,0.537-0.046,0.834h-4.168
			c0,1.191,0.308,1.786,0.923,1.786h0.065c0.541-0.032,0.812-0.341,0.812-0.924c0-0.126-0.013-0.265-0.038-0.417l2.219-0.035
			c0,1.766-1.033,2.66-3.104,2.683c-0.026,0.005-0.047,0.008-0.065,0.008c-1.972,0-2.956-1.114-2.956-3.345v-0.208
			C128.693,74.209,129.733,73.014,131.755,73.014z M130.552,75.773h2.107v-0.166c0-0.844-0.321-1.266-0.961-1.266
			C131.008,74.342,130.626,74.818,130.552,75.773z"/>
		<path fill="#331842" d="M135.578,77.686l2.135-0.076v0.09c0,0.714,0.296,1.075,0.886,1.084h0.038c0.572,0,0.857-0.205,0.857-0.618
			v-0.05c-0.024-0.453-0.588-0.82-1.691-1.098c-1.104-0.278-1.769-0.746-1.992-1.404c-0.08-0.23-0.121-0.453-0.121-0.667
			c0-0.39,0.135-0.751,0.401-1.085c0.41-0.509,1.032-0.801,1.865-0.875c0.224-0.019,0.44-0.028,0.652-0.028
			c0.553,0,1.042,0.071,1.464,0.216c0.579,0.199,0.98,0.484,1.203,0.854c0.148,0.256,0.224,0.538,0.224,0.849
			c0,0.148-0.015,0.301-0.046,0.459l-1.995,0.035c0.018-0.117,0.027-0.223,0.027-0.32c0-0.464-0.198-0.711-0.597-0.744
			c-0.044-0.004-0.088-0.006-0.131-0.006c-0.41,0-0.688,0.154-0.829,0.465c-0.051,0.106-0.075,0.204-0.075,0.291
			c0,0.219,0.137,0.407,0.41,0.564c0.386,0.223,0.955,0.447,1.712,0.677c0.755,0.229,1.263,0.62,1.523,1.172
			c0.093,0.208,0.14,0.417,0.14,0.626c0,0.352-0.137,0.707-0.41,1.062c-0.436,0.57-1.109,0.902-2.023,0.995
			c-0.199,0.022-0.395,0.034-0.587,0.034c-0.685,0-1.318-0.132-1.902-0.396C135.969,79.453,135.591,78.751,135.578,77.686z"/>
		<path fill="#331842" d="M143.868,70.797l2.116-0.105v2.302l1.781-0.035l0.028,1.314l-1.81,0.062v3.164
			c0,0.736,0.42,1.104,1.26,1.104c0.174,0,0.363-0.017,0.568-0.048l-0.084,1.529c-0.299,0.027-0.582,0.041-0.85,0.041
			c-1.964,0-2.964-0.756-3.001-2.266v-3.4l-1.529,0.07l-0.038-1.55l1.567,0.014L143.868,70.797z"/>
		<path fill="#331842" d="M151.599,73.014c2.157,0,3.235,1.068,3.235,3.205c0,0.259-0.016,0.537-0.046,0.834h-4.169
			c0,1.191,0.309,1.786,0.923,1.786h0.065c0.541-0.032,0.812-0.341,0.812-0.924c0-0.126-0.013-0.265-0.037-0.417l2.219-0.035
			c0,1.766-1.034,2.66-3.104,2.683c-0.025,0.005-0.047,0.008-0.065,0.008c-1.971,0-2.956-1.114-2.956-3.345v-0.208
			C148.537,74.209,149.578,73.014,151.599,73.014z M150.396,75.773h2.108v-0.166c0-0.844-0.321-1.266-0.962-1.266
			C150.853,74.342,150.471,74.818,150.396,75.773z"/>
		<path fill="#331842" d="M161.492,75.168l0.093,5.041l-2.284,0.014c0-2.133-0.096-4.525-0.289-7.182l1.716-0.139l0.093,1.134
			c0.262-0.556,0.871-0.874,1.828-0.953c0.143-0.009,0.279-0.014,0.41-0.014c0.752,0,1.324,0.183,1.717,0.55
			c0.453,0.436,0.684,1.128,0.689,2.078l-2.07,0.152c0.006-0.078,0.01-0.154,0.01-0.229c0-0.741-0.258-1.112-0.774-1.112h-0.037
			C161.996,74.531,161.629,74.752,161.492,75.168z"/>
		<path fill="#331842" d="M169.12,73.014c2.157,0,3.235,1.068,3.235,3.205c0,0.259-0.016,0.537-0.046,0.834h-4.169
			c0,1.191,0.309,1.786,0.923,1.786h0.065c0.541-0.032,0.812-0.341,0.812-0.924c0-0.126-0.013-0.265-0.037-0.417l2.219-0.035
			c0,1.766-1.034,2.66-3.104,2.683c-0.025,0.005-0.047,0.008-0.065,0.008c-1.971,0-2.956-1.114-2.956-3.345v-0.208
			C166.059,74.209,167.1,73.014,169.12,73.014z M167.917,75.773h2.108v-0.166c0-0.844-0.321-1.266-0.962-1.266
			C168.374,74.342,167.992,74.818,167.917,75.773z"/>
		<path fill="#331842" d="M176.869,77.289l2.219,0.104c0,1.674-1.033,2.521-3.104,2.545c-0.026,0.005-0.048,0.007-0.066,0.007
			c-1.971,0-2.955-1.114-2.955-3.344v-0.208c0.062-2.393,1.112-3.598,3.151-3.621h0.075c1.877,0,2.815,0.801,2.815,2.404
			c0,0.094-0.003,0.186-0.01,0.278l-2.004,0.111v-0.167c0-0.844-0.321-1.266-0.962-1.266c-0.652,0-0.979,0.684-0.979,2.051v0.229
			c0.038,1.478,0.367,2.218,0.988,2.218h0.056c0.542-0.033,0.812-0.341,0.812-0.925C176.906,77.581,176.894,77.441,176.869,77.289z"
			/>
		<path fill="#331842" d="M184.701,80.153l-0.093-1.134c-0.261,0.604-0.963,0.906-2.107,0.911c-0.012,0.005-0.021,0.007-0.028,0.007
			c-1.131,0-1.88-0.38-2.246-1.141c-0.25-0.504-0.373-1.549-0.373-3.135c0-0.815,0.033-1.777,0.102-2.885h2.267
			c-0.124,1.557-0.187,2.755-0.187,3.594c0,0.422,0.016,0.752,0.047,0.988c0.093,0.723,0.407,1.084,0.941,1.084
			c0.535,0,0.871-0.188,1.008-0.564l-0.094-4.824l2.191-0.014c0,1.994,0.097,4.315,0.289,6.965L184.701,80.153z"/>
		<path fill="#331842" d="M189.672,75.168l0.094,5.041l-2.284,0.014c0-2.133-0.097-4.525-0.289-7.182l1.716-0.139l0.093,1.134
			c0.262-0.556,0.87-0.874,1.827-0.953c0.144-0.009,0.28-0.014,0.411-0.014c0.752,0,1.323,0.183,1.716,0.55
			c0.454,0.436,0.684,1.128,0.69,2.078l-2.07,0.152c0.006-0.078,0.009-0.154,0.009-0.229c0-0.741-0.257-1.112-0.773-1.112h-0.037
			C190.176,74.531,189.81,74.752,189.672,75.168z"/>
		<path fill="#331842" d="M194.157,77.686l2.136-0.076v0.09c0,0.714,0.295,1.075,0.886,1.084h0.037c0.572,0,0.858-0.205,0.858-0.618
			v-0.05c-0.025-0.453-0.589-0.82-1.692-1.098c-1.104-0.278-1.768-0.746-1.991-1.404c-0.08-0.23-0.121-0.453-0.121-0.667
			c0-0.39,0.134-0.751,0.401-1.085c0.409-0.509,1.032-0.801,1.865-0.875c0.224-0.019,0.44-0.028,0.652-0.028
			c0.553,0,1.042,0.071,1.464,0.216c0.578,0.199,0.979,0.484,1.203,0.854c0.148,0.256,0.224,0.538,0.224,0.849
			c0,0.148-0.015,0.301-0.046,0.459l-1.996,0.035c0.019-0.117,0.028-0.223,0.028-0.32c0-0.464-0.199-0.711-0.597-0.744
			c-0.044-0.004-0.088-0.006-0.131-0.006c-0.41,0-0.688,0.154-0.83,0.465c-0.05,0.106-0.074,0.204-0.074,0.291
			c0,0.219,0.137,0.407,0.409,0.564c0.386,0.223,0.956,0.447,1.712,0.677s1.264,0.62,1.524,1.172c0.093,0.208,0.14,0.417,0.14,0.626
			c0,0.352-0.137,0.707-0.41,1.062c-0.436,0.57-1.109,0.902-2.023,0.995c-0.199,0.022-0.395,0.034-0.587,0.034
			c-0.685,0-1.319-0.132-1.903-0.396C194.549,79.453,194.17,78.751,194.157,77.686z"/>
		<path fill="#331842" d="M204.173,73.014c2.114,0,3.171,1.094,3.171,3.281c0,0.088-0.004,0.176-0.01,0.264
			c-0.087,2.369-1.212,3.564-3.375,3.587c-0.025,0.005-0.051,0.008-0.075,0.008c-2.058,0-3.086-1.12-3.086-3.358v-0.194
			C200.859,74.209,201.984,73.014,204.173,73.014z M203.865,74.599c-0.392,0.103-0.659,0.479-0.803,1.134
			c-0.086,0.389-0.131,0.78-0.131,1.174c0,0.264,0.02,0.531,0.058,0.8c0.099,0.667,0.419,1.013,0.96,1.036h0.065
			c0.503,0,0.848-0.248,1.035-0.744c0.155-0.412,0.233-0.901,0.233-1.467c0-0.139-0.004-0.28-0.01-0.424
			c-0.051-0.746-0.199-1.211-0.447-1.397c-0.156-0.111-0.342-0.167-0.561-0.167C204.142,74.543,204.008,74.562,203.865,74.599z"/>
		<path fill="#331842" d="M211.223,77.686l2.135-0.076v0.09c0,0.714,0.296,1.075,0.886,1.084h0.038c0.572,0,0.857-0.205,0.857-0.618
			v-0.05c-0.024-0.453-0.588-0.82-1.691-1.098c-1.104-0.278-1.769-0.746-1.992-1.404c-0.08-0.23-0.12-0.453-0.12-0.667
			c0-0.39,0.134-0.751,0.4-1.085c0.41-0.509,1.032-0.801,1.865-0.875c0.224-0.019,0.44-0.028,0.652-0.028
			c0.553,0,1.042,0.071,1.464,0.216c0.579,0.199,0.98,0.484,1.203,0.854c0.148,0.256,0.224,0.538,0.224,0.849
			c0,0.148-0.015,0.301-0.046,0.459l-1.995,0.035c0.018-0.117,0.027-0.223,0.027-0.32c0-0.464-0.198-0.711-0.597-0.744
			c-0.044-0.004-0.088-0.006-0.131-0.006c-0.41,0-0.688,0.154-0.829,0.465c-0.051,0.106-0.075,0.204-0.075,0.291
			c0,0.219,0.137,0.407,0.41,0.564c0.386,0.223,0.955,0.447,1.712,0.677c0.755,0.229,1.263,0.62,1.523,1.172
			c0.093,0.208,0.141,0.417,0.141,0.626c0,0.352-0.138,0.707-0.411,1.062c-0.436,0.57-1.109,0.902-2.023,0.995
			c-0.199,0.022-0.395,0.034-0.587,0.034c-0.685,0-1.318-0.132-1.902-0.396C211.613,79.453,211.235,78.751,211.223,77.686z"/>
		<path fill="#331842" d="M220.566,71.415c0,0.283-0.134,0.524-0.401,0.723c-0.268,0.2-0.591,0.3-0.969,0.3
			c-0.374,0-0.694-0.1-0.962-0.3c-0.268-0.198-0.4-0.439-0.4-0.723c0-0.278,0.133-0.517,0.4-0.716s0.588-0.299,0.962-0.299
			c0.378,0,0.701,0.1,0.969,0.299S220.566,71.137,220.566,71.415z M218.066,80.188c-0.043-2.711-0.064-5.053-0.064-7.027l2.35-0.105
			c-0.074,1.892-0.111,3.771-0.111,5.639c0,0.5,0.003,0.999,0.009,1.494H218.066z"/>
		<path fill="#331842" d="M221.34,80.959l2.191-0.09c-0.006,0.055-0.01,0.111-0.01,0.166c0,0.505,0.271,0.781,0.812,0.828
			c0.086,0.008,0.168,0.014,0.242,0.014c0.467,0,0.799-0.139,0.998-0.417c0.173-0.251,0.261-0.719,0.261-1.404
			c0-0.187-0.007-0.39-0.02-0.612c-0.347,0.52-0.994,0.803-1.938,0.849c-1.847-0.014-2.77-1.184-2.77-3.511v-0.049
			c0.013-2.354,1.109-3.538,3.291-3.552c0.598,0,1.132,0.26,1.604,0.778l0.028-1.104l2.042,0.069c0,3.823-0.016,6.191-0.047,7.104
			c-0.031,0.913-0.216,1.646-0.556,2.197c-0.339,0.551-0.915,0.904-1.729,1.057c-0.429,0.084-0.855,0.125-1.278,0.125
			c-0.38,0-0.755-0.033-1.128-0.098c-0.796-0.139-1.344-0.4-1.642-0.785c-0.248-0.316-0.372-0.728-0.372-1.238
			C221.322,81.184,221.327,81.074,221.34,80.959z M225.798,78.207v-2.822c-0.306-0.459-0.69-0.689-1.156-0.689
			c-0.093,0-0.19,0.01-0.29,0.028c-0.604,0.106-0.936,0.726-0.998,1.856c-0.005,0.119-0.008,0.236-0.008,0.348
			c0,0.922,0.229,1.488,0.689,1.696c0.155,0.073,0.32,0.11,0.494,0.11C224.914,78.734,225.338,78.559,225.798,78.207z"/>
		<path fill="#331842" d="M233.63,80.153l-0.093-1.134c-0.261,0.604-0.964,0.906-2.107,0.911c-0.012,0.005-0.021,0.007-0.028,0.007
			c-1.132,0-1.88-0.38-2.247-1.141c-0.249-0.504-0.373-1.549-0.373-3.135c0-0.815,0.034-1.777,0.103-2.885h2.267
			c-0.125,1.557-0.188,2.755-0.188,3.594c0,0.422,0.016,0.752,0.047,0.988c0.094,0.723,0.408,1.084,0.942,1.084
			s0.87-0.188,1.007-0.564l-0.094-4.824l2.191-0.014c0,1.994,0.098,4.315,0.29,6.965L233.63,80.153z"/>
		<path fill="#331842" d="M238.731,71.415c0,0.283-0.134,0.524-0.401,0.723c-0.268,0.2-0.59,0.3-0.969,0.3
			c-0.373,0-0.694-0.1-0.961-0.3c-0.268-0.198-0.401-0.439-0.401-0.723c0-0.278,0.134-0.517,0.401-0.716
			c0.267-0.199,0.588-0.299,0.961-0.299c0.379,0,0.701,0.1,0.969,0.299S238.731,71.137,238.731,71.415z M236.232,80.188
			c-0.043-2.711-0.065-5.053-0.065-7.027l2.351-0.105c-0.075,1.892-0.112,3.771-0.112,5.639c0,0.5,0.003,0.999,0.009,1.494H236.232z
			"/>
		<path fill="#331842" d="M242.275,73.014c2.157,0,3.234,1.068,3.234,3.205c0,0.259-0.015,0.537-0.045,0.834h-4.169
			c0,1.191,0.308,1.786,0.923,1.786h0.064c0.542-0.032,0.812-0.341,0.812-0.924c0-0.126-0.013-0.265-0.037-0.417l2.219-0.035
			c0,1.766-1.034,2.66-3.104,2.683c-0.026,0.005-0.048,0.008-0.065,0.008c-1.971,0-2.956-1.114-2.956-3.345v-0.208
			C239.213,74.209,240.254,73.014,242.275,73.014z M241.072,75.773h2.107v-0.166c0-0.844-0.32-1.266-0.961-1.266
			C241.529,74.342,241.146,74.818,241.072,75.773z"/>
		<path fill="#331842" d="M247.926,72.833l0.094,1.134c0.262-0.604,0.948-0.909,2.061-0.918h0.037c1.094,0,1.841,0.32,2.238,0.959
			c0.273,0.436,0.411,1.456,0.411,3.059c0,0.789-0.034,1.719-0.103,2.795h-2.257c0.08-1.432,0.121-2.542,0.121-3.33
			c0-0.395-0.01-0.709-0.028-0.945c-0.062-0.695-0.36-1.043-0.895-1.043c-0.535,0-0.871,0.186-1.008,0.557l0.093,5.039l-2.19,0.015
			c0-2.132-0.097-4.526-0.289-7.182L247.926,72.833z"/>
		<path fill="#331842" d="M260.59,70.316c-0.037,1.566-0.055,3.209-0.055,4.93c0,1.564,0.015,3.197,0.045,4.893l-2.209,0.007
			l-0.074-1.063c-0.461,0.516-1.073,0.771-1.838,0.771c-1.909,0-2.863-1.088-2.863-3.268c0-0.045,0.004-0.092,0.01-0.139
			c0.038-2.183,0.982-3.273,2.836-3.273c0.073,0,0.151,0.002,0.232,0.007c0.635,0.028,1.146,0.285,1.538,0.772
			c0-1.029-0.034-2.241-0.103-3.637H260.59z M258.259,77.657l-0.047-2.405c-0.36-0.365-0.73-0.549-1.109-0.549
			c-0.155,0-0.312,0.03-0.466,0.09c-0.492,0.19-0.737,0.723-0.737,1.6c0,0.102,0.003,0.205,0.01,0.312
			c0.062,1.061,0.379,1.623,0.951,1.683c0.056,0.004,0.112,0.007,0.167,0.007C257.525,78.395,257.936,78.148,258.259,77.657z"/>
		<path fill="#331842" d="M264.609,73.014c2.114,0,3.171,1.094,3.171,3.281c0,0.088-0.004,0.176-0.01,0.264
			c-0.087,2.369-1.212,3.564-3.375,3.587c-0.026,0.005-0.051,0.008-0.075,0.008c-2.058,0-3.086-1.12-3.086-3.358v-0.194
			C261.296,74.209,262.421,73.014,264.609,73.014z M264.301,74.599c-0.391,0.103-0.658,0.479-0.802,1.134
			c-0.087,0.389-0.13,0.78-0.13,1.174c0,0.264,0.019,0.531,0.057,0.8c0.099,0.667,0.419,1.013,0.96,1.036h0.065
			c0.504,0,0.848-0.248,1.035-0.744c0.154-0.412,0.232-0.901,0.232-1.467c0-0.139-0.003-0.28-0.01-0.424
			c-0.05-0.746-0.198-1.211-0.446-1.397c-0.156-0.111-0.343-0.167-0.561-0.167C264.578,74.543,264.444,74.562,264.301,74.599z"/>
		<path fill="#331842" d="M274.802,73.014c2.157,0,3.235,1.068,3.235,3.205c0,0.259-0.016,0.537-0.047,0.834h-4.168
			c0,1.191,0.308,1.786,0.923,1.786h0.065c0.541-0.032,0.812-0.341,0.812-0.924c0-0.126-0.013-0.265-0.038-0.417l2.22-0.035
			c0,1.766-1.034,2.66-3.104,2.683c-0.025,0.005-0.047,0.008-0.065,0.008c-1.971,0-2.956-1.114-2.956-3.345v-0.208
			C271.74,74.209,272.78,73.014,274.802,73.014z M273.599,75.773h2.108v-0.166c0-0.844-0.321-1.266-0.962-1.266
			C274.056,74.342,273.674,74.818,273.599,75.773z"/>
		<path fill="#331842" d="M281.357,80.034l-2.322,0.161c0.025-1.534,0.038-3.011,0.038-4.43c0-1.992-0.026-3.871-0.075-5.637
			l2.284-0.027c-0.024,1.136-0.037,2.301-0.037,3.496C281.245,75.66,281.282,77.806,281.357,80.034z"/>
		<path fill="#331842" d="M288.248,71.415c0,0.283-0.134,0.524-0.401,0.723c-0.268,0.2-0.591,0.3-0.969,0.3
			c-0.374,0-0.694-0.1-0.962-0.3c-0.268-0.198-0.4-0.439-0.4-0.723c0-0.278,0.133-0.517,0.4-0.716s0.588-0.299,0.962-0.299
			c0.378,0,0.701,0.1,0.969,0.299S288.248,71.137,288.248,71.415z M285.748,80.188c-0.043-2.711-0.064-5.053-0.064-7.027l2.35-0.105
			c-0.074,1.892-0.111,3.771-0.111,5.639c0,0.5,0.003,0.999,0.01,1.494H285.748z"/>
		<path fill="#331842" d="M292.574,77.289l2.219,0.104c0,1.674-1.033,2.521-3.104,2.545c-0.026,0.005-0.047,0.007-0.065,0.007
			c-1.972,0-2.956-1.114-2.956-3.344v-0.208c0.062-2.393,1.112-3.598,3.151-3.621h0.075c1.877,0,2.815,0.801,2.815,2.404
			c0,0.094-0.003,0.186-0.01,0.278l-2.004,0.111v-0.167c0-0.844-0.321-1.266-0.961-1.266c-0.652,0-0.979,0.684-0.979,2.051v0.229
			c0.037,1.478,0.366,2.218,0.987,2.218h0.057c0.541-0.033,0.812-0.341,0.812-0.925C292.612,77.581,292.6,77.441,292.574,77.289z"/>
		<path fill="#331842" d="M298.85,73.014c2.114,0,3.171,1.094,3.171,3.281c0,0.088-0.003,0.176-0.01,0.264
			c-0.086,2.369-1.211,3.564-3.375,3.587c-0.025,0.005-0.05,0.008-0.075,0.008c-2.057,0-3.086-1.12-3.086-3.358v-0.194
			C295.537,74.209,296.662,73.014,298.85,73.014z M298.542,74.599c-0.392,0.103-0.659,0.479-0.802,1.134
			c-0.087,0.389-0.131,0.78-0.131,1.174c0,0.264,0.02,0.531,0.057,0.8c0.1,0.667,0.419,1.013,0.961,1.036h0.064
			c0.504,0,0.848-0.248,1.035-0.744c0.155-0.412,0.233-0.901,0.233-1.467c0-0.139-0.003-0.28-0.01-0.424
			c-0.05-0.746-0.198-1.211-0.446-1.397c-0.156-0.111-0.343-0.167-0.561-0.167C298.818,74.543,298.686,74.562,298.542,74.599z"/>
		<path fill="#331842" d="M304.25,72.833l0.093,1.134c0.262-0.604,0.948-0.909,2.061-0.918h0.037c1.095,0,1.841,0.32,2.238,0.959
			c0.274,0.436,0.411,1.456,0.411,3.059c0,0.789-0.034,1.719-0.103,2.795h-2.257c0.08-1.432,0.121-2.542,0.121-3.33
			c0-0.395-0.01-0.709-0.028-0.945c-0.062-0.695-0.36-1.043-0.895-1.043c-0.535,0-0.871,0.186-1.008,0.557l0.093,5.039l-2.191,0.015
			c0-2.132-0.096-4.526-0.288-7.182L304.25,72.833z"/>
		<path fill="#331842" d="M313.146,73.014c2.113,0,3.17,1.094,3.17,3.281c0,0.088-0.003,0.176-0.01,0.264
			c-0.086,2.369-1.211,3.564-3.375,3.587c-0.025,0.005-0.05,0.008-0.074,0.008c-2.058,0-3.087-1.12-3.087-3.358v-0.194
			C309.833,74.209,310.958,73.014,313.146,73.014z M312.838,74.599c-0.392,0.103-0.658,0.479-0.802,1.134
			c-0.087,0.389-0.131,0.78-0.131,1.174c0,0.264,0.02,0.531,0.057,0.8c0.1,0.667,0.419,1.013,0.96,1.036h0.065
			c0.504,0,0.849-0.248,1.036-0.744c0.154-0.412,0.232-0.901,0.232-1.467c0-0.139-0.003-0.28-0.01-0.424
			c-0.05-0.746-0.199-1.211-0.447-1.397c-0.155-0.111-0.342-0.167-0.56-0.167C313.115,74.543,312.981,74.562,312.838,74.599z"/>
		<path fill="#331842" d="M337.697,81.049c0.689-0.148,1.09-0.433,1.203-0.854c-0.479-0.121-0.794-0.265-0.943-0.432
			c-0.149-0.166-0.223-0.355-0.223-0.563s0.059-0.393,0.176-0.552c0.119-0.16,0.288-0.282,0.51-0.365
			c0.22-0.084,0.439-0.128,0.656-0.132h0.02c0.205,0,0.404,0.027,0.597,0.083c0.192,0.061,0.35,0.15,0.471,0.271
			c0.122,0.121,0.206,0.249,0.257,0.386c0.049,0.137,0.078,0.301,0.083,0.49v0.027c0,0.187-0.034,0.39-0.102,0.612
			c-0.069,0.236-0.188,0.461-0.355,0.675c-0.167,0.213-0.411,0.416-0.731,0.607c-0.32,0.192-0.798,0.309-1.432,0.344L337.697,81.049
			z"/>
		<path fill="#331842" d="M57.093,90.098c2.157,0,3.235,1.067,3.235,3.204c0,0.26-0.016,0.538-0.047,0.834h-4.168
			c0,1.191,0.308,1.787,0.923,1.787h0.065c0.541-0.033,0.812-0.341,0.812-0.925c0-0.125-0.013-0.265-0.038-0.418l2.22-0.033
			c0,1.766-1.034,2.659-3.104,2.683c-0.025,0.005-0.047,0.007-0.065,0.007c-1.971,0-2.956-1.115-2.956-3.344v-0.208
			C54.031,91.293,55.071,90.098,57.093,90.098z M55.89,92.857h2.108v-0.168c0-0.842-0.321-1.265-0.962-1.265
			C56.347,91.425,55.965,91.902,55.89,92.857z"/>
		<path fill="#331842" d="M60.916,94.77l2.136-0.078v0.092c0,0.713,0.295,1.074,0.886,1.084h0.037c0.572,0,0.857-0.207,0.857-0.619
			v-0.049c-0.024-0.453-0.588-0.819-1.691-1.098c-1.104-0.277-1.768-0.746-1.991-1.404c-0.081-0.232-0.121-0.454-0.121-0.667
			c0-0.39,0.134-0.751,0.401-1.085c0.409-0.51,1.031-0.802,1.865-0.875c0.223-0.02,0.439-0.028,0.652-0.028
			c0.553,0,1.041,0.071,1.463,0.215c0.579,0.2,0.98,0.485,1.203,0.856c0.149,0.254,0.225,0.536,0.225,0.848
			c0,0.147-0.016,0.301-0.047,0.459l-1.995,0.033c0.019-0.115,0.028-0.223,0.028-0.319c0-0.463-0.199-0.711-0.598-0.743
			c-0.043-0.006-0.088-0.008-0.13-0.008c-0.411,0-0.688,0.155-0.83,0.467c-0.05,0.105-0.075,0.203-0.075,0.291
			c0,0.218,0.137,0.406,0.41,0.562c0.386,0.223,0.956,0.449,1.712,0.679c0.755,0.229,1.263,0.619,1.524,1.171
			c0.093,0.209,0.14,0.417,0.14,0.626c0,0.352-0.137,0.706-0.411,1.063c-0.435,0.57-1.108,0.9-2.023,0.994
			c-0.198,0.023-0.395,0.035-0.587,0.035c-0.685,0-1.318-0.133-1.902-0.396C61.308,96.537,60.929,95.834,60.916,94.77z"/>
		<path fill="#331842" d="M69.206,87.88l2.116-0.104v2.301l1.782-0.034l0.027,1.313l-1.81,0.062v3.162
			c0,0.737,0.421,1.106,1.26,1.106c0.174,0,0.363-0.017,0.568-0.05l-0.084,1.529c-0.298,0.028-0.581,0.043-0.849,0.043
			c-1.965,0-2.965-0.756-3.002-2.267v-3.399l-1.529,0.07l-0.037-1.551l1.566,0.014L69.206,87.88z"/>
		<path fill="#331842" d="M77.188,90.098c2.114,0,3.171,1.093,3.171,3.281c0,0.088-0.004,0.176-0.01,0.264
			c-0.087,2.368-1.212,3.563-3.375,3.587c-0.025,0.005-0.051,0.007-0.075,0.007c-2.058,0-3.086-1.119-3.086-3.357v-0.194
			C73.875,91.293,75,90.098,77.188,90.098z M76.881,91.683c-0.392,0.102-0.659,0.479-0.803,1.132
			c-0.086,0.39-0.131,0.781-0.131,1.176c0,0.264,0.02,0.531,0.057,0.799c0.1,0.668,0.42,1.013,0.961,1.037h0.065
			c0.503,0,0.848-0.248,1.035-0.745c0.155-0.413,0.233-0.901,0.233-1.466c0-0.139-0.004-0.281-0.01-0.425
			c-0.051-0.747-0.199-1.212-0.447-1.396c-0.156-0.111-0.342-0.167-0.561-0.167C77.157,91.627,77.023,91.645,76.881,91.683z"/>
		<path fill="#331842" d="M86.971,97.119l-2.322,0.158c0.024-1.533,0.037-3.009,0.037-4.427c0-1.993-0.025-3.872-0.074-5.638
			l2.284-0.028c-0.024,1.136-0.037,2.302-0.037,3.497C86.858,92.744,86.896,94.889,86.971,97.119z"/>
		<path fill="#331842" d="M90.803,90.098c2.157,0,3.235,1.067,3.235,3.204c0,0.26-0.015,0.538-0.046,0.834h-4.169
			c0,1.191,0.309,1.787,0.923,1.787h0.065c0.541-0.033,0.812-0.341,0.812-0.925c0-0.125-0.013-0.265-0.037-0.418l2.219-0.033
			c0,1.766-1.033,2.659-3.104,2.683c-0.025,0.005-0.047,0.007-0.065,0.007c-1.971,0-2.955-1.115-2.955-3.344v-0.208
			C87.741,91.293,88.782,90.098,90.803,90.098z M89.6,92.857h2.108v-0.168c0-0.842-0.321-1.265-0.962-1.265
			C90.057,91.425,89.675,91.902,89.6,92.857z"/>
		<path fill="#331842" d="M98.271,100.01c0.038-1.562,0.057-3.223,0.057-4.984c0-1.604-0.016-3.285-0.047-5.047l2.21-0.006
			l0.075,1.07c0.459-0.52,1.072-0.778,1.837-0.778c1.909,0,2.862,1.122,2.862,3.37v0.14c-0.043,2.252-0.994,3.378-2.853,3.378
			c-0.075,0-0.149-0.002-0.225-0.006c-0.635-0.023-1.146-0.281-1.538-0.772c0,1.028,0.034,2.241,0.103,3.636H98.271z
			 M100.604,92.467l0.047,2.614c0.36,0.366,0.725,0.55,1.091,0.55c0.148,0,0.298-0.033,0.447-0.098
			c0.454-0.186,0.681-0.738,0.681-1.662c0-0.111-0.003-0.227-0.01-0.348c-0.062-1.13-0.363-1.726-0.904-1.785
			c-0.056-0.006-0.107-0.008-0.158-0.008C101.324,91.73,100.926,91.977,100.604,92.467z"/>
		<path fill="#331842" d="M109.033,90.098c2.157,0,3.235,1.067,3.235,3.204c0,0.26-0.015,0.538-0.046,0.834h-4.169
			c0,1.191,0.309,1.787,0.923,1.787h0.065c0.541-0.033,0.812-0.341,0.812-0.925c0-0.125-0.013-0.265-0.037-0.418l2.219-0.033
			c0,1.766-1.033,2.659-3.104,2.683c-0.025,0.005-0.047,0.007-0.065,0.007c-1.971,0-2.955-1.115-2.955-3.344v-0.208
			C105.972,91.293,107.013,90.098,109.033,90.098z M107.83,92.857h2.108v-0.168c0-0.842-0.321-1.265-0.962-1.265
			C108.287,91.425,107.905,91.902,107.83,92.857z"/>
		<path fill="#331842" d="M115.449,92.252l0.093,5.039l-2.284,0.015c0-2.132-0.096-4.524-0.289-7.181l1.716-0.139l0.093,1.133
			c0.262-0.557,0.871-0.874,1.828-0.952c0.143-0.009,0.279-0.014,0.41-0.014c0.752,0,1.324,0.183,1.717,0.548
			c0.453,0.436,0.684,1.129,0.689,2.08l-2.07,0.152c0.006-0.079,0.01-0.156,0.01-0.23c0-0.74-0.258-1.111-0.774-1.111h-0.037
			C115.953,91.615,115.586,91.836,115.449,92.252z"/>
		<path fill="#331842" d="M121.548,89.951l0.038,1.112c0.334-0.532,0.724-0.864,1.165-0.993c0.261-0.075,0.525-0.111,0.792-0.111
			c0.199,0,0.398,0.018,0.598,0.055c0.484,0.093,0.83,0.464,1.035,1.113c0.161-0.506,0.44-0.844,0.838-1.012
			c0.398-0.17,0.84-0.258,1.325-0.262h0.038c0.471,0,0.926,0.086,1.361,0.258c0.439,0.176,0.778,0.506,1.012,0.99
			c0.232,0.484,0.354,1.148,0.367,1.992v4.039l-2.014,0.033c0.08-1.524,0.121-2.822,0.121-3.893s-0.273-1.646-0.82-1.73
			c-0.081-0.01-0.159-0.014-0.233-0.014c-0.435,0-0.771,0.209-1.007,0.626c-0.038,0.481-0.057,1.045-0.057,1.688
			c0,0.876,0.035,1.898,0.104,3.066l-2.332,0.014c0.087-1.793,0.131-3.1,0.131-3.92V92.92c-0.006-0.812-0.222-1.237-0.644-1.279
			h-0.121c-0.38,0-0.746,0.162-1.101,0.486l0.019,5.089l-2.201,0.062v-1.14c0-2.021-0.04-4.038-0.12-6.054L121.548,89.951z"/>
		<path fill="#331842" d="M133.288,88.499c0,0.282-0.134,0.522-0.401,0.723c-0.268,0.199-0.59,0.298-0.969,0.298
			c-0.373,0-0.693-0.099-0.961-0.298c-0.268-0.2-0.401-0.44-0.401-0.723c0-0.278,0.134-0.517,0.401-0.717
			c0.268-0.198,0.588-0.298,0.961-0.298c0.379,0,0.701,0.1,0.969,0.298C133.154,87.982,133.288,88.221,133.288,88.499z
			 M130.789,97.271c-0.043-2.711-0.065-5.055-0.065-7.028l2.351-0.104c-0.074,1.892-0.112,3.771-0.112,5.638
			c0,0.501,0.003,0.999,0.01,1.495H130.789z"/>
		<path fill="#331842" d="M135.358,87.88l2.116-0.104v2.301l1.782-0.034l0.027,1.313l-1.81,0.062v3.162
			c0,0.737,0.421,1.106,1.26,1.106c0.174,0,0.364-0.017,0.568-0.05l-0.084,1.529c-0.298,0.028-0.581,0.043-0.849,0.043
			c-1.965,0-2.965-0.756-3.002-2.267v-3.399l-1.529,0.07l-0.037-1.551l1.566,0.014L135.358,87.88z"/>
		<path fill="#331842" d="M142.669,88.499c0,0.282-0.134,0.522-0.401,0.723c-0.267,0.199-0.59,0.298-0.969,0.298
			c-0.373,0-0.693-0.099-0.961-0.298c-0.268-0.2-0.401-0.44-0.401-0.723c0-0.278,0.134-0.517,0.401-0.717
			c0.268-0.198,0.588-0.298,0.961-0.298c0.379,0,0.702,0.1,0.969,0.298C142.535,87.982,142.669,88.221,142.669,88.499z
			 M140.17,97.271c-0.043-2.711-0.065-5.055-0.065-7.028l2.351-0.104c-0.074,1.892-0.112,3.771-0.112,5.638
			c0,0.501,0.003,0.999,0.01,1.495H140.17z"/>
		<path fill="#331842" d="M145.662,92.252l0.094,5.039l-2.285,0.015c0-2.132-0.096-4.524-0.288-7.181l1.715-0.139l0.093,1.133
			c0.263-0.557,0.871-0.874,1.828-0.952c0.144-0.009,0.28-0.014,0.411-0.014c0.751,0,1.323,0.183,1.716,0.548
			c0.453,0.436,0.684,1.129,0.689,2.08l-2.07,0.152c0.007-0.079,0.01-0.156,0.01-0.23c0-0.74-0.258-1.111-0.773-1.111h-0.038
			C146.166,91.615,145.799,91.836,145.662,92.252z"/>
		<path fill="#331842" d="M153.868,89.896c2.046,0.083,3.068,0.851,3.068,2.302v4.936l-2.173,0.027l-0.074-0.661
			c-0.448,0.381-1.042,0.57-1.781,0.57c-0.316,0-0.659-0.038-1.025-0.111c-1.102-0.204-1.65-0.839-1.65-1.905
			c0-0.129,0.008-0.268,0.027-0.416c0.124-1.099,1.171-1.647,3.143-1.647c0.379,0,0.795,0.021,1.25,0.062v-0.806
			c0-0.653-0.277-0.979-0.83-0.979h-0.037c-0.044-0.006-0.085-0.008-0.122-0.008c-0.603,0-0.904,0.367-0.904,1.099v0.104
			l-2.22-0.139c0-1.618,1.045-2.427,3.133-2.427H153.868z M152.479,88.672c0.728-0.644,1.324-1.258,1.791-1.842l1.529,0.904
			c-0.659,0.48-1.393,1.072-2.201,1.771L152.479,88.672z M154.652,95.387v-1.223c-0.268-0.042-0.511-0.062-0.728-0.062
			c-0.565,0-0.952,0.141-1.157,0.424c-0.124,0.171-0.186,0.331-0.186,0.48c0,0.185,0.1,0.35,0.298,0.492
			c0.155,0.111,0.357,0.167,0.606,0.167C153.803,95.665,154.192,95.573,154.652,95.387z"/>
		<path fill="#331842" d="M163.78,97.119l-2.321,0.158c0.024-1.533,0.037-3.009,0.037-4.427c0-1.993-0.025-3.872-0.074-5.638
			l2.284-0.028c-0.024,1.136-0.038,2.302-0.038,3.497C163.668,92.744,163.706,94.889,163.78,97.119z"/>
		<path fill="#331842" d="M167.613,90.098c2.157,0,3.235,1.067,3.235,3.204c0,0.26-0.015,0.538-0.046,0.834h-4.169
			c0,1.191,0.308,1.787,0.923,1.787h0.065c0.541-0.033,0.812-0.341,0.812-0.925c0-0.125-0.013-0.265-0.037-0.418l2.219-0.033
			c0,1.766-1.034,2.659-3.104,2.683c-0.025,0.005-0.047,0.007-0.065,0.007c-1.971,0-2.955-1.115-2.955-3.344v-0.208
			C164.552,91.293,165.592,90.098,167.613,90.098z M166.41,92.857h2.107v-0.168c0-0.842-0.32-1.265-0.961-1.265
			C166.867,91.425,166.485,91.902,166.41,92.857z"/>
		<path fill="#331842" d="M174.58,90.098c2.156,0,3.234,1.067,3.234,3.204c0,0.26-0.015,0.538-0.046,0.834H173.6
			c0,1.191,0.309,1.787,0.924,1.787h0.064c0.541-0.033,0.812-0.341,0.812-0.925c0-0.125-0.014-0.265-0.038-0.418l2.22-0.033
			c0,1.766-1.035,2.659-3.105,2.683c-0.025,0.005-0.047,0.007-0.064,0.007c-1.971,0-2.956-1.115-2.956-3.344v-0.208
			C171.518,91.293,172.559,90.098,174.58,90.098z M173.377,92.857h2.107v-0.168c0-0.842-0.32-1.265-0.961-1.265
			C173.833,91.425,173.451,91.902,173.377,92.857z"/>
		<path fill="#331842" d="M180.995,92.252l0.093,5.039l-2.284,0.015c0-2.132-0.097-4.524-0.288-7.181l1.715-0.139l0.093,1.133
			c0.263-0.557,0.871-0.874,1.828-0.952c0.144-0.009,0.28-0.014,0.41-0.014c0.752,0,1.324,0.183,1.717,0.548
			c0.453,0.436,0.684,1.129,0.689,2.08l-2.07,0.152c0.007-0.079,0.01-0.156,0.01-0.23c0-0.74-0.258-1.111-0.774-1.111h-0.037
			C181.499,91.615,181.132,91.836,180.995,92.252z"/>
		<path fill="#331842" d="M192.884,94.372l2.22,0.104c0,1.673-1.035,2.521-3.105,2.545c-0.025,0.004-0.047,0.006-0.064,0.006
			c-1.972,0-2.956-1.114-2.956-3.343v-0.208c0.062-2.392,1.112-3.6,3.151-3.623h0.075c1.876,0,2.815,0.803,2.815,2.405
			c0,0.093-0.003,0.185-0.01,0.278l-2.004,0.111v-0.167c0-0.844-0.32-1.265-0.961-1.265c-0.652,0-0.979,0.683-0.979,2.051v0.229
			c0.037,1.479,0.366,2.219,0.987,2.219h0.056c0.541-0.033,0.812-0.342,0.812-0.926C192.922,94.664,192.908,94.525,192.884,94.372z"
			/>
		<path fill="#331842" d="M199.159,90.098c2.114,0,3.171,1.093,3.171,3.281c0,0.088-0.003,0.176-0.01,0.264
			c-0.086,2.368-1.211,3.563-3.375,3.587c-0.025,0.005-0.051,0.007-0.074,0.007c-2.059,0-3.087-1.119-3.087-3.357v-0.194
			C195.846,91.293,196.971,90.098,199.159,90.098z M198.852,91.683c-0.392,0.102-0.659,0.479-0.803,1.132
			c-0.086,0.39-0.13,0.781-0.13,1.176c0,0.264,0.019,0.531,0.057,0.799c0.1,0.668,0.419,1.013,0.96,1.037h0.065
			c0.504,0,0.849-0.248,1.035-0.745c0.155-0.413,0.233-0.901,0.233-1.466c0-0.139-0.004-0.281-0.01-0.425
			c-0.051-0.747-0.199-1.212-0.447-1.396c-0.156-0.111-0.342-0.167-0.561-0.167C199.128,91.627,198.994,91.645,198.852,91.683z"/>
		<path fill="#331842" d="M204.345,89.951l0.038,1.112c0.334-0.532,0.724-0.864,1.165-0.993c0.261-0.075,0.525-0.111,0.793-0.111
			c0.198,0,0.397,0.018,0.597,0.055c0.484,0.093,0.83,0.464,1.035,1.113c0.161-0.506,0.44-0.844,0.838-1.012
			c0.398-0.17,0.84-0.258,1.325-0.262h0.038c0.471,0,0.926,0.086,1.361,0.258c0.44,0.176,0.778,0.506,1.012,0.99
			c0.232,0.484,0.354,1.148,0.367,1.992v4.039l-2.014,0.033c0.08-1.524,0.121-2.822,0.121-3.893s-0.273-1.646-0.82-1.73
			c-0.081-0.01-0.159-0.014-0.233-0.014c-0.435,0-0.771,0.209-1.007,0.626c-0.038,0.481-0.056,1.045-0.056,1.688
			c0,0.876,0.034,1.898,0.103,3.066l-2.332,0.014c0.087-1.793,0.131-3.1,0.131-3.92V92.92c-0.006-0.812-0.221-1.237-0.644-1.279
			h-0.121c-0.38,0-0.746,0.162-1.101,0.486l0.019,5.089l-2.201,0.062v-1.14c0-2.021-0.04-4.038-0.12-6.054L204.345,89.951z"/>
		<path fill="#331842" d="M213.53,100.01c0.037-1.562,0.056-3.223,0.056-4.984c0-1.604-0.016-3.285-0.046-5.047l2.209-0.006
			l0.075,1.07c0.46-0.52,1.072-0.778,1.837-0.778c1.909,0,2.863,1.122,2.863,3.37v0.14c-0.044,2.252-0.995,3.378-2.854,3.378
			c-0.075,0-0.149-0.002-0.225-0.006c-0.634-0.023-1.146-0.281-1.538-0.772c0,1.028,0.035,2.241,0.104,3.636H213.53z
			 M215.861,92.467l0.047,2.614c0.361,0.366,0.725,0.55,1.092,0.55c0.148,0,0.298-0.033,0.446-0.098
			c0.454-0.186,0.682-0.738,0.682-1.662c0-0.111-0.003-0.227-0.01-0.348c-0.062-1.13-0.364-1.726-0.905-1.785
			c-0.055-0.006-0.107-0.008-0.158-0.008C216.582,91.73,216.185,91.977,215.861,92.467z"/>
		<path fill="#331842" d="M223.881,97.119l-2.321,0.158c0.024-1.533,0.037-3.009,0.037-4.427c0-1.993-0.025-3.872-0.075-5.638
			l2.285-0.028c-0.025,1.136-0.038,2.302-0.038,3.497C223.769,92.744,223.807,94.889,223.881,97.119z"/>
		<path fill="#331842" d="M227.714,90.098c2.157,0,3.235,1.067,3.235,3.204c0,0.26-0.016,0.538-0.046,0.834h-4.169
			c0,1.191,0.309,1.787,0.923,1.787h0.065c0.541-0.033,0.812-0.341,0.812-0.925c0-0.125-0.013-0.265-0.037-0.418l2.219-0.033
			c0,1.766-1.034,2.659-3.104,2.683c-0.025,0.005-0.047,0.007-0.065,0.007c-1.971,0-2.956-1.115-2.956-3.344v-0.208
			C224.652,91.293,225.693,90.098,227.714,90.098z M226.511,92.857h2.108v-0.168c0-0.842-0.321-1.265-0.962-1.265
			C226.968,91.425,226.586,91.902,226.511,92.857z"/>
		<path fill="#331842" d="M233.207,87.88l2.116-0.104v2.301l1.781-0.034l0.028,1.313l-1.81,0.062v3.162
			c0,0.737,0.42,1.106,1.26,1.106c0.173,0,0.363-0.017,0.567-0.05l-0.083,1.529c-0.299,0.028-0.582,0.043-0.85,0.043
			c-1.964,0-2.964-0.756-3.002-2.267v-3.399l-1.529,0.07l-0.037-1.551l1.566,0.014L233.207,87.88z"/>
		<path fill="#331842" d="M241.515,89.896c2.046,0.083,3.068,0.851,3.068,2.302v4.936l-2.173,0.027l-0.074-0.661
			c-0.447,0.381-1.041,0.57-1.781,0.57c-0.316,0-0.659-0.038-1.025-0.111c-1.101-0.204-1.65-0.839-1.65-1.905
			c0-0.129,0.009-0.268,0.027-0.416c0.125-1.099,1.172-1.647,3.143-1.647c0.379,0,0.795,0.021,1.25,0.062v-0.806
			c0-0.653-0.277-0.979-0.83-0.979h-0.037c-0.044-0.006-0.085-0.008-0.122-0.008c-0.603,0-0.903,0.367-0.903,1.099v0.104
			l-2.221-0.139c0-1.618,1.045-2.427,3.134-2.427H241.515z M242.299,95.387v-1.223c-0.268-0.042-0.51-0.062-0.728-0.062
			c-0.565,0-0.951,0.141-1.157,0.424c-0.124,0.171-0.186,0.331-0.186,0.48c0,0.185,0.1,0.35,0.298,0.492
			c0.155,0.111,0.357,0.167,0.606,0.167C241.449,95.665,241.839,95.573,242.299,95.387z"/>
		<path fill="#331842" d="M246.831,89.951l0.037,1.112c0.335-0.532,0.725-0.864,1.166-0.993c0.261-0.075,0.524-0.111,0.792-0.111
			c0.199,0,0.398,0.018,0.598,0.055c0.484,0.093,0.829,0.464,1.035,1.113c0.161-0.506,0.44-0.844,0.838-1.012
			c0.398-0.17,0.84-0.258,1.325-0.262h0.037c0.472,0,0.927,0.086,1.361,0.258c0.44,0.176,0.778,0.506,1.012,0.99
			s0.355,1.148,0.368,1.992v4.039l-2.014,0.033c0.08-1.524,0.121-2.822,0.121-3.893s-0.274-1.646-0.82-1.73
			c-0.082-0.01-0.16-0.014-0.233-0.014c-0.436,0-0.771,0.209-1.008,0.626c-0.037,0.481-0.056,1.045-0.056,1.688
			c0,0.876,0.035,1.898,0.104,3.066l-2.332,0.014c0.087-1.793,0.131-3.1,0.131-3.92V92.92c-0.007-0.812-0.222-1.237-0.645-1.279
			h-0.12c-0.38,0-0.747,0.162-1.101,0.486l0.018,5.089l-2.2,0.062v-1.14c0-2.021-0.041-4.038-0.121-6.054L246.831,89.951z"/>
		<path fill="#331842" d="M258.991,90.098c2.157,0,3.235,1.067,3.235,3.204c0,0.26-0.016,0.538-0.046,0.834h-4.169
			c0,1.191,0.309,1.787,0.923,1.787H259c0.541-0.033,0.812-0.341,0.812-0.925c0-0.125-0.013-0.265-0.037-0.418l2.219-0.033
			c0,1.766-1.034,2.659-3.104,2.683c-0.025,0.005-0.047,0.007-0.065,0.007c-1.971,0-2.956-1.115-2.956-3.344v-0.208
			C255.93,91.293,256.971,90.098,258.991,90.098z M257.788,92.857h2.108v-0.168c0-0.842-0.321-1.265-0.962-1.265
			C258.245,91.425,257.863,91.902,257.788,92.857z"/>
		<path fill="#331842" d="M264.643,89.917l0.093,1.132c0.262-0.602,0.948-0.907,2.061-0.917h0.038c1.094,0,1.84,0.319,2.238,0.96
			c0.273,0.435,0.41,1.455,0.41,3.059c0,0.787-0.034,1.719-0.103,2.794h-2.257c0.08-1.433,0.121-2.542,0.121-3.329
			c0-0.395-0.01-0.709-0.027-0.945c-0.062-0.695-0.361-1.043-0.896-1.043s-0.87,0.186-1.008,0.557l0.094,5.039l-2.191,0.014
			c0-2.132-0.097-4.525-0.289-7.18L264.643,89.917z"/>
		<path fill="#331842" d="M271.813,87.88l2.116-0.104v2.301l1.782-0.034l0.028,1.313l-1.811,0.062v3.162
			c0,0.737,0.421,1.106,1.26,1.106c0.174,0,0.364-0.017,0.568-0.05l-0.084,1.529c-0.298,0.028-0.581,0.043-0.849,0.043
			c-1.964,0-2.964-0.756-3.002-2.267v-3.399l-1.529,0.07l-0.037-1.551l1.566,0.014L271.813,87.88z"/>
		<path fill="#331842" d="M279.545,90.098c2.156,0,3.234,1.067,3.234,3.204c0,0.26-0.015,0.538-0.046,0.834h-4.169
			c0,1.191,0.309,1.787,0.924,1.787h0.064c0.541-0.033,0.812-0.341,0.812-0.925c0-0.125-0.014-0.265-0.038-0.418l2.22-0.033
			c0,1.766-1.034,2.659-3.105,2.683c-0.025,0.005-0.047,0.007-0.064,0.007c-1.971,0-2.956-1.115-2.956-3.344v-0.208
			C276.482,91.293,277.523,90.098,279.545,90.098z M278.342,92.857h2.107v-0.168c0-0.842-0.32-1.265-0.961-1.265
			C278.798,91.425,278.416,91.902,278.342,92.857z"/>
		<path fill="#331842" d="M286.938,90.07l2.444-0.146c-0.057,1.39-0.085,2.535-0.085,3.434c0,0.338,0.007,0.642,0.02,0.911
			c0.024,0.991,0.322,1.501,0.895,1.529c0.038,0.004,0.071,0.007,0.103,0.007c0.51,0,0.834-0.219,0.971-0.654
			c0.074-0.254,0.111-0.859,0.111-1.813c0-0.765-0.025-1.751-0.074-2.962l2.294-0.125c0.024,1.413,0.037,2.628,0.037,3.643
			c0,1.266-0.019,2.22-0.057,2.864c-0.062,1.158-0.507,2.038-1.333,2.642c-0.746,0.547-1.794,0.82-3.143,0.82
			c-0.156,0-0.314-0.006-0.476-0.014l-0.261-1.696c0.117,0.005,0.232,0.007,0.346,0.007c1.043,0,1.759-0.137,2.144-0.41
			c0.397-0.283,0.597-0.736,0.597-1.362v-0.111c-0.354,0.417-0.898,0.626-1.632,0.626h-0.13c-0.803-0.028-1.424-0.264-1.865-0.706
			c-0.442-0.442-0.683-1.063-0.724-1.863C287.081,93.889,287.02,92.35,286.938,90.07z"/>
		<path fill="#331842" d="M300.955,90.098c2.156,0,3.234,1.067,3.234,3.204c0,0.26-0.015,0.538-0.046,0.834h-4.169
			c0,1.191,0.309,1.787,0.924,1.787h0.064c0.541-0.033,0.812-0.341,0.812-0.925c0-0.125-0.013-0.265-0.037-0.418l2.219-0.033
			c0,1.766-1.034,2.659-3.104,2.683c-0.025,0.005-0.047,0.007-0.064,0.007c-1.972,0-2.956-1.115-2.956-3.344v-0.208
			C297.893,91.293,298.934,90.098,300.955,90.098z M299.752,92.857h2.107v-0.168c0-0.842-0.321-1.265-0.961-1.265
			C300.208,91.425,299.826,91.902,299.752,92.857z"/>
		<path fill="#331842" d="M306.605,89.917l0.093,1.132c0.263-0.602,0.948-0.907,2.062-0.917h0.037c1.094,0,1.84,0.319,2.238,0.96
			c0.273,0.435,0.41,1.455,0.41,3.059c0,0.787-0.034,1.719-0.103,2.794h-2.257c0.08-1.433,0.121-2.542,0.121-3.329
			c0-0.395-0.01-0.709-0.027-0.945c-0.062-0.695-0.36-1.043-0.896-1.043c-0.534,0-0.87,0.186-1.007,0.557l0.093,5.039l-2.191,0.014
			c0-2.132-0.097-4.525-0.289-7.18L306.605,89.917z"/>
		<path fill="#331842" d="M318.729,90.098c2.156,0,3.234,1.067,3.234,3.204c0,0.26-0.015,0.538-0.046,0.834h-4.168
			c0,1.191,0.308,1.787,0.923,1.787h0.064c0.542-0.033,0.812-0.341,0.812-0.925c0-0.125-0.014-0.265-0.037-0.418l2.219-0.033
			c0,1.766-1.034,2.659-3.104,2.683c-0.026,0.005-0.048,0.007-0.065,0.007c-1.971,0-2.956-1.115-2.956-3.344v-0.208
			C315.666,91.293,316.707,90.098,318.729,90.098z M317.525,92.857h2.107v-0.168c0-0.842-0.32-1.265-0.961-1.265
			C317.982,91.425,317.6,91.902,317.525,92.857z"/>
		<path fill="#331842" d="M325.284,97.119l-2.322,0.158c0.024-1.533,0.038-3.009,0.038-4.427c0-1.993-0.026-3.872-0.075-5.638
			l2.284-0.028c-0.024,1.136-0.037,2.302-0.037,3.497C325.172,92.744,325.209,94.889,325.284,97.119z"/>
		<path fill="#331842" d="M101.309,107.181c2.113,0,3.17,1.095,3.17,3.28c0,0.088-0.003,0.178-0.01,0.265
			c-0.086,2.368-1.211,3.563-3.375,3.587c-0.025,0.004-0.05,0.008-0.074,0.008c-2.058,0-3.086-1.12-3.086-3.358v-0.194
			C97.995,108.377,99.12,107.181,101.309,107.181z M101,108.766c-0.392,0.102-0.658,0.479-0.802,1.133
			c-0.087,0.391-0.131,0.781-0.131,1.175c0,0.265,0.02,0.53,0.057,0.8c0.1,0.668,0.419,1.012,0.96,1.035h0.066
			c0.503,0,0.848-0.248,1.035-0.744c0.154-0.412,0.232-0.9,0.232-1.467c0-0.139-0.003-0.279-0.01-0.424
			c-0.05-0.746-0.198-1.212-0.447-1.396c-0.155-0.111-0.342-0.167-0.56-0.167C101.277,108.71,101.144,108.729,101,108.766z"/>
		<path fill="#331842" d="M107.473,109.336l0.093,5.039l-2.284,0.014c0-2.131-0.097-4.525-0.289-7.18l1.715-0.14l0.094,1.134
			c0.262-0.557,0.87-0.874,1.828-0.953c0.143-0.01,0.279-0.014,0.41-0.014c0.752,0,1.324,0.183,1.717,0.55
			c0.453,0.435,0.683,1.128,0.689,2.077l-2.07,0.153c0.006-0.079,0.01-0.155,0.01-0.229c0-0.742-0.258-1.112-0.774-1.112h-0.038
			C107.976,108.698,107.609,108.918,107.473,109.336z"/>
		<path fill="#331842" d="M119.119,104.483c-0.037,1.567-0.056,3.21-0.056,4.929c0,1.566,0.015,3.197,0.046,4.893l-2.209,0.008
			l-0.075-1.064c-0.46,0.516-1.072,0.772-1.837,0.772c-1.909,0-2.863-1.089-2.863-3.267c0-0.047,0.004-0.094,0.01-0.139
			c0.037-2.184,0.982-3.274,2.835-3.274c0.074,0,0.152,0.003,0.233,0.007c0.635,0.027,1.146,0.284,1.538,0.771
			c0-1.028-0.034-2.241-0.103-3.636H119.119z M116.788,111.824l-0.047-2.405c-0.36-0.366-0.73-0.549-1.109-0.549
			c-0.156,0-0.312,0.03-0.466,0.09c-0.492,0.19-0.737,0.724-0.737,1.599c0,0.102,0.003,0.207,0.01,0.313
			c0.062,1.062,0.379,1.622,0.95,1.681c0.057,0.006,0.113,0.008,0.168,0.008C116.055,112.561,116.465,112.314,116.788,111.824z"/>
		<path fill="#331842" d="M122.887,107.181c2.157,0,3.235,1.068,3.235,3.204c0,0.26-0.015,0.537-0.046,0.834h-4.169
			c0,1.191,0.308,1.787,0.923,1.787h0.065c0.541-0.032,0.812-0.342,0.812-0.926c0-0.123-0.013-0.262-0.037-0.416l2.219-0.035
			c0,1.766-1.034,2.66-3.104,2.684c-0.025,0.004-0.047,0.008-0.065,0.008c-1.971,0-2.955-1.115-2.955-3.344v-0.209
			C119.825,108.377,120.865,107.181,122.887,107.181z M121.684,109.939h2.108v-0.166c0-0.844-0.321-1.265-0.962-1.265
			C122.141,108.509,121.759,108.986,121.684,109.939z"/>
		<path fill="#331842" d="M128.538,107l0.093,1.133c0.262-0.603,0.948-0.908,2.061-0.918h0.037c1.095,0,1.841,0.32,2.238,0.961
			c0.274,0.435,0.411,1.453,0.411,3.059c0,0.787-0.034,1.718-0.103,2.793h-2.257c0.081-1.432,0.121-2.541,0.121-3.33
			c0-0.393-0.01-0.709-0.028-0.945c-0.062-0.694-0.359-1.042-0.895-1.042s-0.871,0.185-1.008,0.556l0.094,5.039l-2.191,0.016
			c0-2.133-0.097-4.525-0.289-7.182L128.538,107z"/>
		<path fill="#331842" d="M141.443,111.456l2.219,0.104c0,1.672-1.033,2.52-3.104,2.543c-0.026,0.005-0.048,0.007-0.065,0.007
			c-1.972,0-2.956-1.114-2.956-3.343v-0.209c0.062-2.391,1.112-3.598,3.151-3.621h0.075c1.877,0,2.815,0.801,2.815,2.405
			c0,0.093-0.003,0.185-0.01,0.278l-2.004,0.111v-0.167c0-0.844-0.321-1.267-0.962-1.267c-0.652,0-0.979,0.686-0.979,2.052v0.229
			c0.038,1.479,0.367,2.218,0.988,2.218h0.056c0.542-0.031,0.812-0.34,0.812-0.924C141.48,111.747,141.469,111.607,141.443,111.456z
			"/>
		<path fill="#331842" d="M147.719,107.181c2.114,0,3.171,1.095,3.171,3.28c0,0.088-0.003,0.178-0.01,0.265
			c-0.087,2.368-1.212,3.563-3.375,3.587c-0.025,0.004-0.05,0.008-0.075,0.008c-2.057,0-3.086-1.12-3.086-3.358v-0.194
			C144.406,108.377,145.531,107.181,147.719,107.181z M147.411,108.766c-0.392,0.102-0.659,0.479-0.802,1.133
			c-0.087,0.391-0.131,0.781-0.131,1.175c0,0.265,0.02,0.53,0.057,0.8c0.1,0.668,0.419,1.012,0.96,1.035h0.065
			c0.504,0,0.848-0.248,1.035-0.744c0.155-0.412,0.233-0.9,0.233-1.467c0-0.139-0.003-0.279-0.01-0.424
			c-0.05-0.746-0.199-1.212-0.447-1.396c-0.155-0.111-0.342-0.167-0.56-0.167C147.688,108.71,147.555,108.729,147.411,108.766z"/>
		<path fill="#331842" d="M153.883,109.336l0.094,5.039l-2.285,0.014c0-2.131-0.096-4.525-0.288-7.18l1.715-0.14l0.093,1.134
			c0.263-0.557,0.871-0.874,1.828-0.953c0.144-0.01,0.28-0.014,0.41-0.014c0.752,0,1.324,0.183,1.717,0.55
			c0.453,0.435,0.684,1.128,0.689,2.077l-2.07,0.153c0.007-0.079,0.01-0.155,0.01-0.229c0-0.742-0.258-1.112-0.773-1.112h-0.038
			C154.387,108.698,154.02,108.918,153.883,109.336z"/>
		<path fill="#331842" d="M160.961,109.336l0.093,5.039l-2.284,0.014c0-2.131-0.097-4.525-0.289-7.18l1.715-0.14l0.094,1.134
			c0.262-0.557,0.87-0.874,1.828-0.953c0.143-0.01,0.279-0.014,0.41-0.014c0.752,0,1.324,0.183,1.717,0.55
			c0.453,0.435,0.683,1.128,0.689,2.077l-2.07,0.153c0.006-0.079,0.01-0.155,0.01-0.229c0-0.742-0.258-1.112-0.774-1.112h-0.038
			C161.465,108.698,161.098,108.918,160.961,109.336z"/>
		<path fill="#331842" d="M168.589,107.181c2.157,0,3.235,1.068,3.235,3.204c0,0.26-0.016,0.537-0.047,0.834h-4.168
			c0,1.191,0.308,1.787,0.923,1.787h0.065c0.541-0.032,0.812-0.342,0.812-0.926c0-0.123-0.013-0.262-0.038-0.416l2.22-0.035
			c0,1.766-1.034,2.66-3.104,2.684c-0.025,0.004-0.047,0.008-0.065,0.008c-1.971,0-2.956-1.115-2.956-3.344v-0.209
			C165.527,108.377,166.567,107.181,168.589,107.181z M167.386,109.939h2.107v-0.166c0-0.844-0.32-1.265-0.961-1.265
			C167.842,108.509,167.461,108.986,167.386,109.939z"/>
		<path fill="#331842" d="M176.338,111.456l2.219,0.104c0,1.672-1.034,2.52-3.104,2.543c-0.025,0.005-0.047,0.007-0.065,0.007
			c-1.971,0-2.955-1.114-2.955-3.343v-0.209c0.062-2.391,1.111-3.598,3.151-3.621h0.075c1.876,0,2.815,0.801,2.815,2.405
			c0,0.093-0.003,0.185-0.01,0.278l-2.004,0.111v-0.167c0-0.844-0.321-1.267-0.962-1.267c-0.652,0-0.979,0.686-0.979,2.052v0.229
			c0.037,1.479,0.367,2.218,0.988,2.218h0.056c0.541-0.031,0.812-0.34,0.812-0.924C176.375,111.747,176.362,111.607,176.338,111.456
			z"/>
		<path fill="#331842" d="M180.889,104.963l2.116-0.104v2.3l1.781-0.034l0.028,1.313l-1.81,0.063v3.162
			c0,0.737,0.42,1.105,1.26,1.105c0.173,0,0.363-0.016,0.567-0.049l-0.083,1.529c-0.299,0.027-0.582,0.043-0.85,0.043
			c-1.964,0-2.964-0.757-3.002-2.268v-3.398l-1.528,0.068l-0.038-1.549l1.566,0.013L180.889,104.963z"/>
		<path fill="#331842" d="M188.87,107.181c2.114,0,3.171,1.095,3.171,3.28c0,0.088-0.003,0.178-0.01,0.265
			c-0.086,2.368-1.211,3.563-3.375,3.587c-0.025,0.004-0.05,0.008-0.074,0.008c-2.059,0-3.087-1.12-3.087-3.358v-0.194
			C185.558,108.377,186.683,107.181,188.87,107.181z M188.562,108.766c-0.392,0.102-0.659,0.479-0.803,1.133
			c-0.086,0.391-0.13,0.781-0.13,1.175c0,0.265,0.02,0.53,0.057,0.8c0.1,0.668,0.419,1.012,0.96,1.035h0.065
			c0.504,0,0.849-0.248,1.035-0.744c0.155-0.412,0.233-0.9,0.233-1.467c0-0.139-0.003-0.279-0.01-0.424
			c-0.05-0.746-0.199-1.212-0.447-1.396c-0.156-0.111-0.342-0.167-0.561-0.167C188.84,108.71,188.705,108.729,188.562,108.766z"/>
		<path fill="#331842" d="M199.062,107.181c2.157,0,3.235,1.068,3.235,3.204c0,0.26-0.015,0.537-0.046,0.834h-4.168
			c0,1.191,0.308,1.787,0.922,1.787h0.065c0.542-0.032,0.812-0.342,0.812-0.926c0-0.123-0.013-0.262-0.037-0.416l2.219-0.035
			c0,1.766-1.033,2.66-3.104,2.684c-0.026,0.004-0.048,0.008-0.066,0.008c-1.971,0-2.955-1.115-2.955-3.344v-0.209
			C196.001,108.377,197.042,107.181,199.062,107.181z M197.859,109.939h2.108v-0.166c0-0.844-0.321-1.265-0.962-1.265
			C198.316,108.509,197.935,108.986,197.859,109.939z"/>
		<path fill="#331842" d="M202.887,111.852l2.135-0.076v0.09c0,0.714,0.296,1.075,0.886,1.085h0.038
			c0.571,0,0.857-0.206,0.857-0.619v-0.048c-0.025-0.455-0.588-0.82-1.692-1.099c-1.104-0.278-1.768-0.747-1.991-1.404
			c-0.08-0.231-0.121-0.454-0.121-0.667c0-0.39,0.134-0.751,0.401-1.084c0.409-0.511,1.032-0.803,1.865-0.877
			c0.224-0.018,0.44-0.027,0.652-0.027c0.553,0,1.042,0.072,1.464,0.216c0.578,0.199,0.979,0.483,1.203,0.854
			c0.148,0.255,0.224,0.538,0.224,0.848c0,0.149-0.015,0.303-0.046,0.459l-1.996,0.035c0.019-0.116,0.028-0.222,0.028-0.32
			c0-0.463-0.199-0.711-0.597-0.743c-0.044-0.005-0.088-0.007-0.131-0.007c-0.41,0-0.688,0.155-0.83,0.465
			c-0.05,0.107-0.074,0.205-0.074,0.293c0,0.218,0.137,0.404,0.409,0.563c0.386,0.222,0.956,0.448,1.712,0.677
			c0.756,0.23,1.264,0.62,1.524,1.171c0.093,0.21,0.14,0.417,0.14,0.627c0,0.352-0.137,0.706-0.41,1.063
			c-0.436,0.569-1.109,0.9-2.023,0.994c-0.199,0.022-0.395,0.034-0.587,0.034c-0.685,0-1.319-0.133-1.902-0.396
			C203.277,113.619,202.899,112.918,202.887,111.852z"/>
		<path fill="#331842" d="M211.177,104.963l2.116-0.104v2.3l1.781-0.034l0.028,1.313l-1.81,0.063v3.162
			c0,0.737,0.42,1.105,1.26,1.105c0.173,0,0.363-0.016,0.567-0.049l-0.083,1.529c-0.299,0.027-0.582,0.043-0.85,0.043
			c-1.964,0-2.964-0.757-3.002-2.268v-3.398l-1.529,0.068l-0.037-1.549l1.566,0.013L211.177,104.963z"/>
		<path fill="#331842" d="M218.907,107.181c2.157,0,3.235,1.068,3.235,3.204c0,0.26-0.016,0.537-0.047,0.834h-4.168
			c0,1.191,0.308,1.787,0.923,1.787h0.065c0.541-0.032,0.812-0.342,0.812-0.926c0-0.123-0.013-0.262-0.037-0.416l2.219-0.035
			c0,1.766-1.034,2.66-3.104,2.684c-0.025,0.004-0.047,0.008-0.065,0.008c-1.971,0-2.956-1.115-2.956-3.344v-0.209
			C215.846,108.377,216.886,107.181,218.907,107.181z M217.704,109.939h2.108v-0.166c0-0.844-0.321-1.265-0.962-1.265
			C218.161,108.509,217.779,108.986,217.704,109.939z"/>
		<path fill="#331842" d="M227.822,107.035l0.037,1.112c0.335-0.534,0.725-0.865,1.166-0.995c0.261-0.073,0.524-0.111,0.792-0.111
			c0.199,0,0.397,0.019,0.597,0.057c0.484,0.093,0.83,0.463,1.035,1.111c0.162-0.504,0.441-0.842,0.839-1.012
			c0.397-0.168,0.839-0.255,1.325-0.26h0.037c0.472,0,0.926,0.086,1.361,0.257c0.44,0.177,0.778,0.506,1.012,0.991
			c0.233,0.484,0.355,1.148,0.368,1.992v4.037l-2.015,0.035c0.081-1.524,0.121-2.822,0.121-3.893s-0.273-1.647-0.82-1.73
			c-0.081-0.01-0.159-0.014-0.232-0.014c-0.436,0-0.771,0.208-1.008,0.625c-0.037,0.482-0.056,1.045-0.056,1.689
			c0,0.875,0.034,1.897,0.103,3.064l-2.331,0.015c0.087-1.794,0.13-3.101,0.13-3.921v-0.083c-0.006-0.811-0.221-1.237-0.644-1.279
			h-0.12c-0.38,0-0.747,0.163-1.101,0.487l0.019,5.088l-2.201,0.062v-1.141c0-2.02-0.041-4.038-0.121-6.055L227.822,107.035z"/>
		<path fill="#331842" d="M240.559,106.979c2.046,0.083,3.068,0.851,3.068,2.3v4.936l-2.173,0.028l-0.074-0.661
			c-0.448,0.381-1.041,0.571-1.781,0.571c-0.316,0-0.659-0.038-1.025-0.111c-1.101-0.204-1.65-0.839-1.65-1.905
			c0-0.13,0.009-0.269,0.028-0.418c0.123-1.097,1.17-1.646,3.142-1.646c0.38,0,0.796,0.021,1.25,0.062v-0.807
			c0-0.652-0.277-0.979-0.83-0.979h-0.037c-0.044-0.005-0.085-0.007-0.122-0.007c-0.602,0-0.904,0.366-0.904,1.098v0.104
			l-2.22-0.139c0-1.617,1.045-2.426,3.134-2.426H240.559z M241.343,112.471v-1.225c-0.268-0.04-0.511-0.062-0.728-0.062
			c-0.565,0-0.951,0.142-1.156,0.423c-0.125,0.173-0.187,0.332-0.187,0.48c0,0.186,0.1,0.35,0.298,0.493
			c0.155,0.111,0.357,0.167,0.606,0.167C240.494,112.748,240.883,112.656,241.343,112.471z"/>
		<path fill="#331842" d="M245.931,104.963l2.116-0.104v2.3l1.781-0.034l0.028,1.313l-1.81,0.063v3.162
			c0,0.737,0.42,1.105,1.26,1.105c0.174,0,0.363-0.016,0.568-0.049l-0.084,1.529c-0.299,0.027-0.582,0.043-0.849,0.043
			c-1.965,0-2.965-0.757-3.002-2.268v-3.398l-1.529,0.068l-0.038-1.549l1.567,0.013L245.931,104.963z"/>
		<path fill="#331842" d="M253.661,107.181c2.157,0,3.235,1.068,3.235,3.204c0,0.26-0.016,0.537-0.046,0.834h-4.169
			c0,1.191,0.309,1.787,0.923,1.787h0.065c0.541-0.032,0.812-0.342,0.812-0.926c0-0.123-0.013-0.262-0.037-0.416l2.219-0.035
			c0,1.766-1.034,2.66-3.104,2.684c-0.025,0.004-0.047,0.008-0.065,0.008c-1.971,0-2.956-1.115-2.956-3.344v-0.209
			C250.6,108.377,251.641,107.181,253.661,107.181z M252.458,109.939h2.108v-0.166c0-0.844-0.321-1.265-0.962-1.265
			C252.915,108.509,252.533,108.986,252.458,109.939z"/>
		<path fill="#331842" d="M260.077,109.336l0.093,5.039l-2.284,0.014c0-2.131-0.097-4.525-0.289-7.18l1.716-0.14l0.093,1.134
			c0.262-0.557,0.87-0.874,1.827-0.953c0.144-0.01,0.281-0.014,0.411-0.014c0.752,0,1.324,0.183,1.717,0.55
			c0.453,0.435,0.683,1.128,0.689,2.077l-2.07,0.153c0.007-0.079,0.01-0.155,0.01-0.229c0-0.742-0.258-1.112-0.774-1.112h-0.037
			C260.58,108.698,260.214,108.918,260.077,109.336z"/>
		<path fill="#331842" d="M267.285,105.582c0,0.282-0.134,0.523-0.401,0.723s-0.591,0.299-0.969,0.299
			c-0.374,0-0.694-0.1-0.962-0.299s-0.4-0.44-0.4-0.723c0-0.278,0.133-0.517,0.4-0.716c0.268-0.2,0.588-0.3,0.962-0.3
			c0.378,0,0.701,0.1,0.969,0.3C267.151,105.065,267.285,105.304,267.285,105.582z M264.785,114.354
			c-0.043-2.711-0.064-5.054-0.064-7.028l2.35-0.104c-0.074,1.891-0.111,3.77-0.111,5.637c0,0.5,0.003,0.998,0.01,1.495H264.785z"/>
		<path fill="#331842" d="M271.406,106.979c2.046,0.083,3.068,0.851,3.068,2.3v4.936l-2.173,0.028l-0.074-0.661
			c-0.448,0.381-1.042,0.571-1.781,0.571c-0.317,0-0.659-0.038-1.026-0.111c-1.1-0.204-1.649-0.839-1.649-1.905
			c0-0.13,0.009-0.269,0.027-0.418c0.124-1.097,1.171-1.646,3.143-1.646c0.38,0,0.796,0.021,1.25,0.062v-0.807
			c0-0.652-0.277-0.979-0.83-0.979h-0.037c-0.044-0.005-0.085-0.007-0.122-0.007c-0.603,0-0.904,0.366-0.904,1.098v0.104
			l-2.22-0.139c0-1.617,1.045-2.426,3.134-2.426H271.406z M272.19,112.471v-1.225c-0.268-0.04-0.511-0.062-0.728-0.062
			c-0.565,0-0.951,0.142-1.157,0.423c-0.124,0.173-0.186,0.332-0.186,0.48c0,0.186,0.099,0.35,0.298,0.493
			c0.155,0.111,0.357,0.167,0.606,0.167C271.341,112.748,271.73,112.656,272.19,112.471z"/>
		<path fill="#331842" d="M277.841,114.201l-2.321,0.16c0.024-1.534,0.037-3.01,0.037-4.428c0-1.992-0.025-3.871-0.074-5.639
			l2.283-0.027c-0.023,1.136-0.037,2.301-0.037,3.497C277.729,109.826,277.766,111.973,277.841,114.201z"/>
		<path fill="#331842" d="M280.004,114.354c-0.373,0-0.692-0.1-0.96-0.3c-0.267-0.199-0.401-0.438-0.401-0.715
			c0-0.283,0.135-0.524,0.401-0.723c0.268-0.199,0.587-0.299,0.96-0.299c0.379,0,0.703,0.1,0.971,0.299
			c0.268,0.198,0.4,0.439,0.4,0.723c0,0.277-0.133,0.516-0.4,0.715C280.707,114.255,280.383,114.354,280.004,114.354z"/>
	</g>
</g>
<g>
	<path fill-rule="evenodd" clip-rule="evenodd" fill="#951B81" d="M319.875,67.576c0.05,0.216,0.125,0.431,0.228,0.626
		c0.188,0.346,0.404,0.671,0.608,1.005c1.559,2.539,3.112,5.077,4.671,7.614c0.246,0.398,0.501,0.792,0.757,1.193
		c-0.183,0.119-0.357,0.229-0.545,0.349c-0.706-1.115-1.406-2.219-2.111-3.334c-0.354,0.346-0.655,0.699-0.898,1.104
		c-0.234,0.381-0.387,0.796-0.399,1.24c-0.013,0.756,0.324,1.377,0.83,1.905c0.485,0.512,1.076,0.877,1.72,1.149
		c0.83,0.341,1.678,0.655,2.52,0.962c0.666,0.238,1.308,0.506,1.885,0.933c0.426,0.325,0.864,0.638,1.291,0.962
		c0.106,0.08,0.17,0.08,0.277,0.012c1.674-1.018,3.353-2.032,5.03-3.051c0.507-0.307,1.013-0.613,1.536-0.927
		c-0.017-0.05-0.029-0.084-0.039-0.119c-0.359-0.888-0.705-1.781-1.064-2.662c-0.518-1.265-1.041-2.516-1.569-3.772
		c-0.257-0.608-0.531-1.217-0.901-1.77c-0.59-0.911-1.205-1.81-1.809-2.714c-0.227-0.348-0.517-0.428-0.887-0.228
		c-0.229,0.124-0.443,0.278-0.666,0.421c-0.062,0.046-0.125,0.098-0.193,0.148c0.643,1.057,1.281,2.104,1.919,3.163
		c-0.195,0.113-0.372,0.222-0.553,0.329c-0.018-0.034-0.029-0.052-0.039-0.067c-0.638-1.053-1.276-2.101-1.914-3.147
		c-0.216-0.346-0.539-0.54-0.938-0.516c-0.513,0.021-0.876,0.323-1.174,0.716c-0.017,0.027-0.01,0.09,0.008,0.125
		c0.045,0.102,0.113,0.193,0.17,0.291c0.443,0.738,0.894,1.474,1.337,2.206c0.148,0.238,0.29,0.479,0.438,0.724
		c-0.193,0.114-0.37,0.222-0.553,0.336c-0.21-0.341-0.409-0.672-0.608-0.996c-0.517-0.859-1.04-1.719-1.559-2.579
		c-0.183-0.294-0.562-0.489-0.887-0.408c-0.553,0.136-0.986,0.479-1.378,0.876v0.018c0.848,1.404,1.702,2.81,2.554,4.222
		c-0.188,0.119-0.369,0.227-0.55,0.336c-0.029-0.046-0.052-0.08-0.075-0.114c-1.234-2.043-2.469-4.078-3.704-6.116
		c-0.222-0.365-0.438-0.733-0.677-1.081c-0.159-0.239-0.382-0.422-0.66-0.495c-0.472-0.126-0.859,0.062-1.195,0.37
		C319.881,67.011,319.801,67.286,319.875,67.576z"/>
	<path fill-rule="evenodd" clip-rule="evenodd" fill="#951B81" d="M326.103,66.775c0.003,0.338-0.044,0.687-0.22,1.005
		c-0.09,0.168-0.229,0.22-0.452,0.18c-0.166-0.031-0.253-0.125-0.266-0.317c-0.007-0.114,0.01-0.232,0.031-0.344
		c0.285-1.559-0.511-2.966-2.06-3.512c-0.109-0.039-0.222-0.07-0.33-0.114c-0.203-0.08-0.335-0.292-0.311-0.484
		c0.021-0.192,0.195-0.365,0.395-0.39c0.062-0.008,0.132,0.002,0.189,0.02c1.328,0.409,2.254,1.259,2.77,2.549
		C326.01,65.767,326.084,66.193,326.103,66.775z"/>
	<path fill-rule="evenodd" clip-rule="evenodd" fill="#951B81" d="M315.739,68.316c0.003-0.439,0.052-0.782,0.227-1.096
		c0.093-0.163,0.227-0.212,0.456-0.164c0.162,0.032,0.251,0.12,0.25,0.308c0,0.197-0.039,0.395-0.057,0.589
		c-0.111,1.209,0.303,2.18,1.309,2.879c0.312,0.216,0.652,0.367,1.015,0.47c0.159,0.044,0.295,0.116,0.363,0.282
		c0.065,0.163,0.068,0.316-0.052,0.46c-0.126,0.151-0.287,0.207-0.475,0.153c-1.74-0.509-2.778-1.921-2.987-3.376
		C315.759,68.626,315.749,68.429,315.739,68.316z"/>
	<path fill-rule="evenodd" clip-rule="evenodd" fill="#951B81" d="M317.498,67.897c0.036-0.142,0.055-0.339,0.131-0.512
		c0.119-0.274,0.401-0.318,0.628-0.124c0.104,0.088,0.111,0.21,0.112,0.329c0,0.09-0.012,0.182-0.025,0.271
		c-0.128,0.849,0.381,1.629,1.204,1.862c0.126,0.036,0.265,0.095,0.355,0.188c0.109,0.112,0.115,0.275,0.031,0.421
		c-0.089,0.153-0.229,0.22-0.401,0.207c-0.093-0.007-0.188-0.027-0.275-0.062c-0.91-0.354-1.502-0.982-1.678-1.964
		C317.546,68.326,317.529,68.139,317.498,67.897z"/>
	<path fill-rule="evenodd" clip-rule="evenodd" fill="#951B81" d="M324.355,67.062c-0.041,0.183-0.062,0.375-0.131,0.545
		c-0.116,0.288-0.411,0.351-0.628,0.143c-0.065-0.064-0.104-0.177-0.114-0.271c-0.015-0.124,0.008-0.251,0.024-0.372
		c0.112-0.767-0.397-1.617-1.19-1.81c-0.063-0.015-0.127-0.034-0.186-0.056c-0.202-0.077-0.297-0.236-0.264-0.447
		c0.025-0.172,0.193-0.332,0.386-0.317c0.171,0.015,0.349,0.059,0.507,0.129C323.816,65.078,324.286,65.93,324.355,67.062z"/>
</g>
</svg>
