<?xml version="1.0" encoding="utf-8"?>
<!-- Generator: Adobe Illustrator 16.0.0, SVG Export Plug-In . SVG Version: 6.00 Build 0)  -->
<!DOCTYPE svg PUBLIC "-//W3C//DTD SVG 1.1//EN" "http://www.w3.org/Graphics/SVG/1.1/DTD/svg11.dtd">
<svg version="1.1" id="Capa_1" xmlns="http://www.w3.org/2000/svg" xmlns:xlink="http://www.w3.org/1999/xlink" x="0px" y="0px"
	 width="356.139px" height="431.583px" viewBox="0 0 356.139 431.583" enable-background="new 0 0 356.139 431.583"
	 xml:space="preserve">
<g>
	<g>
		<g>
			<path fill="#F7E2C0" d="M24.506,96.622c0.019-0.273,0.026-0.551,0.023-0.831c0.008-0.131,0-0.274,0.02-0.396
				c0.221-1.837,1.665-3.578,3.37-4.13c1.171-1.035,2.607-1.875,4.434-2.447c3.644-2.237,8.3-3.36,11.929-4.033
				c2.886-0.535,14.216-1,19.112,1.353c8.28-0.488,17.154,1.177,25.224,1.828c10.158,0.814,21.533,0.787,31.289,4.434
				c8.842-0.646,17.958,0.389,26.798,0.658c9.511,0.294,19.024,0.474,28.542,0.599c9.514,0.121,19.026,0.108,28.541,0.111
				c8.094,0.001,16.812-1.018,24.959,0.051c9.423-1.837,18.936-2.62,28.298-5.168c10.953-2.986,21.339-7.777,31.686-12.515
				c15.638-7.157,36.056-17.306,53.785-13.435c0.133-0.741,0.645-1.339,1.603-1.21c10.119,1.307,14.958,14.364,10.15,23.444
				c-8.059,15.231-28.028,19.8-43.085,23.088c-42.528,9.294-86.194,0.008-129.093,0.828c-41.553,0.797-81.934,16.717-123.652,9.327
				c-11.854-2.099-31.587-6.648-33.94-21.246C24.502,96.828,24.498,96.721,24.506,96.622z"/>
			<path opacity="0.5" fill="#F6DEBB" d="M24.506,96.622c0.019-0.273,0.026-0.551,0.023-0.831c0.008-0.131,0-0.274,0.02-0.396
				c0.221-1.837,1.665-3.578,3.37-4.13c1.171-1.035,2.607-1.875,4.434-2.447c3.644-2.237,8.3-3.36,11.929-4.033
				c2.886-0.535,14.216-1,19.112,1.353c8.28-0.488,17.154,1.177,25.224,1.828c10.158,0.814,21.533,0.787,31.289,4.434
				c8.842-0.646,17.958,0.389,26.798,0.658c9.511,0.294,19.024,0.474,28.542,0.599c9.514,0.121,19.026,0.108,28.541,0.111
				c8.094,0.001,16.812-1.018,24.959,0.051c9.423-1.837,18.936-2.62,28.298-5.168c10.953-2.986,21.339-7.777,31.686-12.515
				c15.638-7.157,36.056-17.306,53.785-13.435c0.133-0.741,0.645-1.339,1.603-1.21c10.119,1.307,14.958,14.364,10.15,23.444
				c-8.059,15.231-28.028,19.8-43.085,23.088c-42.528,9.294-86.194,0.008-129.093,0.828c-41.553,0.797-81.934,16.717-123.652,9.327
				c-11.854-2.099-31.587-6.648-33.94-21.246C24.502,96.828,24.498,96.721,24.506,96.622z"/>
			<path opacity="0.5" fill="#F6DEBB" d="M24.506,96.622c0.019-0.273,0.026-0.551,0.023-0.831c0.008-0.131,0-0.274,0.02-0.396
				c0.221-1.837,1.665-3.578,3.37-4.13c1.171-1.035,2.607-1.875,4.434-2.447c3.644-2.237,8.3-3.36,11.929-4.033
				c2.886-0.535,14.216-1,19.112,1.353c8.28-0.488,17.154,1.177,25.224,1.828c10.158,0.814,21.533,0.787,31.289,4.434
				c8.842-0.646,17.958,0.389,26.798,0.658c9.511,0.294,19.024,0.474,28.542,0.599c9.514,0.121,19.026,0.108,28.541,0.111
				c8.094,0.001,16.812-1.018,24.959,0.051c9.423-1.837,18.936-2.62,28.298-5.168c10.953-2.986,21.339-7.777,31.686-12.515
				c15.638-7.157,36.056-17.306,53.785-13.435c0.133-0.741,0.645-1.339,1.603-1.21c10.119,1.307,14.958,14.364,10.15,23.444
				c-8.059,15.231-28.028,19.8-43.085,23.088c-42.528,9.294-86.194,0.008-129.093,0.828c-41.553,0.797-81.934,16.717-123.652,9.327
				c-11.854-2.099-31.587-6.648-33.94-21.246C24.502,96.828,24.498,96.721,24.506,96.622z"/>
			<path opacity="0.5" fill="#F6DEBB" d="M55.6,90.744c3.898-4.614,8.968-4.292,14.609-4.041c5.013,0.228,10.013,0.56,15.017,0.942
				c1.143,0.12,2.277,0.232,3.393,0.321c1.564,0.126,3.162,0.233,4.773,0.333c2.813,0.235,5.625,0.481,8.435,0.724
				c2.047,0.175,4.091,0.354,6.129,0.533c4.116,0.574,8.154,1.426,11.952,2.843c8.842-0.646,17.958,0.389,26.798,0.658
				c1.708,0.054,3.42,0.087,5.129,0.132c4.143,0.476,8.223,1.203,12.093,2.548c3.136-0.257,6.242-0.476,9.251-0.753
				c4.717-0.431,9.439-0.837,14.16-1.243c5.485,0.018,10.968,0.024,16.45,0.027c8.094,0.001,16.812-1.018,24.959,0.051
				c9.423-1.837,18.936-2.62,28.298-5.168c6.571-1.792,12.938-4.239,19.221-6.927c0.087-0.029,0.174-0.061,0.263-0.087
				c0.052-0.031,0.103-0.06,0.157-0.092c4.043-1.739,8.049-3.574,12.045-5.408c7.803-3.569,16.792-7.885,26.048-10.832
				c8.549-2.038,22.83-2.41,20.464,10.06c-2.342,12.391-15.173,21.885-25.549,27.598c-8.944,4.921-21.078,8.49-31.786,7.21
				c-1.896,0.912-3.863,1.526-5.873,1.975c-29.925,0.441-60.122-3.869-89.944-3.296c-12.524,0.237-24.935,1.855-37.312,3.79
				c-2.953-0.609-5.928-1.146-8.955-1.509c-5.84-0.706-11.473,0.17-17.216,0.571c-13.301,5.074-27.52,4.196-41.15,0.025
				C71.677,109.959,47.212,100.682,55.6,90.744z"/>
		</g>
		<g>
			<path fill="#7B5340" d="M130.961,112.224c0,0-1.357,0.361-3.755,0.907c-2.4,0.529-5.838,1.26-10.007,1.915
				c-2.083,0.336-4.355,0.602-6.765,0.836c-2.413,0.208-4.971,0.342-7.627,0.243c-2.669-0.094-5.366-0.514-8.103-0.964
				c-2.734-0.459-5.497-1.006-8.246-1.611c-5.503-1.192-10.932-2.723-15.933-4.44c-2.496-0.87-4.889-1.795-7.065-2.899
				c-1.089-0.549-2.123-1.148-3.066-1.83c-0.954-0.675-1.761-1.522-2.318-2.467c-1.125-1.892-1.387-3.946-1.294-5.668
				c0.086-1.737,0.452-3.208,0.813-4.385c0.368-1.18,0.758-2.069,1.037-2.666c0.281-0.597,0.455-0.901,0.455-0.901
				s-0.646,1.262-1.289,3.625c-0.306,1.181-0.601,2.648-0.609,4.337c-0.005,1.674,0.307,3.615,1.396,5.342
				c1.062,1.757,3.085,2.873,5.221,3.91c2.167,1.004,4.525,1.927,7.01,2.759c2.483,0.837,5.083,1.612,7.745,2.326
				c2.664,0.708,5.381,1.388,8.109,2.019c2.73,0.628,5.474,1.194,8.187,1.676c2.711,0.461,5.398,0.916,7.992,1.071
				c2.603,0.148,5.14,0.066,7.538-0.095c2.397-0.185,4.663-0.414,6.747-0.696c4.174-0.52,7.629-1.143,10.042-1.595
				C129.589,112.525,130.961,112.224,130.961,112.224z"/>
		</g>
		<g>
			<path fill="#7B5340" d="M65.773,119.239c0,0-0.699-0.178-1.91-0.538c-1.209-0.364-2.936-0.894-4.968-1.642
				c-2.033-0.746-4.384-1.678-6.835-2.833c-1.223-0.582-2.481-1.198-3.724-1.892c-1.253-0.674-2.485-1.435-3.694-2.229
				c-1.192-0.82-2.354-1.688-3.418-2.638c-1.078-0.934-2.044-1.961-2.889-3.025c-0.42-0.533-0.783-1.099-1.138-1.647
				c-0.292-0.586-0.657-1.122-0.851-1.719c-0.114-0.29-0.226-0.578-0.335-0.86c-0.089-0.29-0.147-0.584-0.22-0.869
				c-0.172-0.564-0.203-1.133-0.253-1.675c-0.071-1.085,0.034-2.09,0.253-2.943c0.046-0.216,0.092-0.425,0.135-0.626
				c0.071-0.193,0.139-0.38,0.205-0.559c0.133-0.357,0.254-0.686,0.364-0.982c0.27-0.57,0.52-1.001,0.672-1.303
				c0.158-0.298,0.242-0.458,0.242-0.458s-0.081,0.161-0.232,0.464c-0.146,0.305-0.386,0.74-0.643,1.314
				c-0.104,0.297-0.218,0.626-0.343,0.985c-0.061,0.179-0.125,0.366-0.191,0.56c-0.039,0.201-0.08,0.409-0.122,0.624
				c-0.197,0.851-0.279,1.846-0.206,2.915c0.053,0.535,0.087,1.096,0.261,1.652c0.074,0.28,0.133,0.569,0.222,0.854
				c0.111,0.278,0.224,0.561,0.337,0.846c0.195,0.587,0.562,1.114,0.853,1.69c0.354,0.539,0.717,1.096,1.136,1.62
				c0.845,1.046,1.808,2.059,2.885,2.977c1.062,0.936,2.223,1.788,3.413,2.596c1.196,0.798,2.417,1.564,3.66,2.246
				c1.232,0.701,2.482,1.324,3.698,1.912c2.437,1.169,4.777,2.118,6.802,2.877C62.989,118.463,65.773,119.239,65.773,119.239z"/>
		</g>
		<polygon fill="#7B5340" points="55.741,88.292 49.571,92.58 54.034,96.305 		"/>
		<polygon fill="#7B5340" points="54.477,97.548 56.977,102.792 52.659,102.792 		"/>
		<polygon fill="#7B5340" points="59.189,105.018 65.773,109.953 59.189,109.953 		"/>
		<polygon fill="#7B5340" points="69.55,111.21 77.196,113.183 71.77,115.757 		"/>
		<polygon fill="#7B5340" points="79.169,114.262 87.556,115.189 81.883,119.239 		"/>
		<polygon fill="#7B5340" points="93.226,116.752 101.281,116.752 95.472,119.239 		"/>
		<polygon fill="#7B5340" points="33.476,94.193 33.476,97.548 30.584,95.868 		"/>
		<polygon fill="#7B5340" points="33.476,100.165 35.556,102.792 32.03,102.792 		"/>
		<polygon fill="#7B5340" points="36.501,105.018 39.213,108.251 36.501,108.251 		"/>
		<polygon fill="#7B5340" points="40.82,108.989 44.27,111.21 41.433,111.21 		"/>
		<polygon fill="#7B5340" points="45.874,112.198 48.835,114.262 45.874,114.262 		"/>
		<polygon fill="#7B5340" points="51.917,115.189 54.819,116.752 51.917,115.973 		"/>
	</g>
	<g>
		<path fill="#3C2713" d="M266.566,192.692c1.397-32.803,5.465-70.859,6.857-103.665c0.539-12.608,0.967-25.785-4.371-37.226
			c-4.649-9.974-13.335-17.63-22.973-22.944c-9.64-5.314-20.272-8.514-30.842-11.581c-8.065-2.345-16.305-4.66-24.7-4.359
			c-8.394,0.301-17.103,3.635-21.879,10.545c-4.776,6.91-4.193,17.65,2.578,22.617c-9.551-2.589-19.474-3.847-29.377-3.721
			c-4.392,0.059-9.131,0.529-12.43,3.43c-4.538,3.983-4.606,11.351-1.796,16.698c2.802,5.349,7.789,9.154,12.62,12.778
			c-8.573,0.37-18.814,1.792-22.463,9.558c-1.843,3.934-1.395,8.517-0.906,12.836c1.865,16.444,0.974,24.684,2.839,41.126
			c0.549,4.876-1.531,18.168,1.896,21.672c3.481,3.562,14.384,4.553,19.334,5.172c41.219,5.179,79.617,19.366,120.834,24.544"/>
		<path fill="#FFFEFE" d="M348.11,431.583c0,0-49.003-143.968-175.859-143.174C45.398,289.208,0,431.583,0,431.583H348.11z"/>
		<path fill="#D1966C" d="M272.035,108.021c2.47,22.502,2.802,49.992,1.693,74.473c-1.549,34.023-19.388,67.578-52.899,73.669
			l-5.51,1.001l6.038,40.523l-93.38-1.602l-0.63-93.117c0,0-23.018,4.283-36.14-16.646c-14.252-22.737-4.75-64.221,16.286-45.241
			c24.641,22.237,29.964,21.985,29.964,21.985c4.259-28.763-11.998-86.929,55.742-101.708
			C227.216,53.935,268.231,73.408,272.035,108.021z"/>
		<g>
			<path fill="#AB7C59" d="M119.723,180.703c-0.118-0.417-2.783,0.476-6.991-0.053c-4.126-0.443-9.908-2.877-13.092-8.44
				c-2.566-4.282-3.114-9.498-1.919-12.777c1.255-3.454,4.955-3.173,5.746-2.187l0.478-0.637c-0.873-0.243-1.312-0.292-1.374-0.161
				c-0.056,0.131,0.278,0.427,1.043,0.91l1.288,0.801l-0.807-1.438c-0.428-0.767-1.727-1.696-3.472-1.585
				c-1.71-0.017-3.863,1.293-4.812,3.43c-1.876,4.205-1.338,9.95,1.585,14.978c3.686,6.443,10.672,8.999,15.203,8.945
				C117.3,182.562,119.862,180.944,119.723,180.703z"/>
		</g>
		<g>
			<path fill="#AB7C59" d="M95.521,166.103c0.447,0.582,2.871-0.516,5.884,0.09c3.034,0.469,4.928,2.34,5.55,1.953
				c0.282-0.187,0.16-1.04-0.676-2.069c-0.819-1.025-2.42-2.099-4.421-2.453c-1.994-0.357-3.867,0.095-4.987,0.773
				C95.726,165.074,95.321,165.834,95.521,166.103z"/>
		</g>
		<path fill="#F0A67B" d="M224.436,219.146"/>
		<g>
			<path fill="#AB7C59" d="M184.984,252.319c-0.348,0.608,1.969,2.478,5.484,2.938c3.511,0.478,6.233-0.718,6.061-1.401
				c-0.151-0.723-2.713-0.762-5.717-1.183C187.803,252.29,185.32,251.658,184.984,252.319z"/>
		</g>
		<path fill="#FFFFFF" d="M191.837,160.457c0,0,3.02-17.674-15.877-22.185c-15.869-3.791-21.557,14.015-21.557,14.015
			L191.837,160.457z"/>
		<path fill="#3C2713" d="M177.789,138.785l-6.983,17.086l21.031,4.586C191.837,160.457,194.111,142.837,177.789,138.785z"/>
		<path fill="#FFFFFF" d="M261.787,154.625c0,0-4.984-17.229-23.951-13.056c-15.939,3.5-13.303,22.007-13.303,22.007
			L261.787,154.625z"/>
		<path fill="#3C2713" d="M239.699,141.234l1.158,18.418l20.931-5.028C261.787,154.625,256.156,137.772,239.699,141.234z"/>
		<path fill="#3C2713" d="M274.331,175.594c0,0-4.473,108.554-70.187,109.872c-65.703,1.326-76.798-82.496-76.798-82.496
			l-7.624-51.346l15.823,4.247c0,0,17.268,40,71.898,41.347C267.895,198.711,274.331,175.594,274.331,175.594z"/>
		<g>
			<path fill="#AB7C59" d="M207.444,192.692c0,0.235,2.723,0.543,7.345-0.109c4.579-0.65,11.1-2.432,17.751-6.576l2.2-1.376
				l-2.499-0.79c-4.768-1.516-9.838-3.129-15.158-4.814c-1.36-0.426-2.709-0.844-4.041-1.254c-0.595-0.242-0.573-0.276-0.611-0.4
				c-0.066-0.208,0.045-0.925,0.146-1.595c0.392-2.671,0.838-5.241,1.306-7.679c0.955-4.87,2.019-9.22,3.001-12.854
				c1.983-7.262,3.53-11.687,3.166-11.833c-0.304-0.121-2.47,4.077-4.929,11.293c-1.229,3.609-2.492,7.977-3.592,12.904
				c-0.542,2.462-1.044,5.066-1.48,7.781c-0.068,0.666-0.323,1.323-0.145,2.491c0.188,1.32,1.562,2.163,2.275,2.337
				c1.359,0.428,2.733,0.86,4.128,1.297c5.337,1.625,10.433,3.177,15.216,4.628l-0.298-2.167
				C218.608,192.194,207.249,191.973,207.444,192.692z"/>
		</g>
		<g>
			<path fill="#3C2713" d="M152.424,127.547c1.288,3.38,9.412,3.417,18.378,0.792c8.958-2.643,15.77-7.081,15.021-10.62
				c-0.739-3.51-9.203-4.702-18.708-1.9C157.616,118.608,151.145,124.193,152.424,127.547z"/>
		</g>
		<g>
			<path fill="#3C2713" d="M263.856,127.547c-1.285,3.38-9.412,3.417-18.376,0.792c-8.957-2.643-15.768-7.081-15.018-10.62
				c0.738-3.51,9.2-4.702,18.706-1.9C258.667,118.608,265.138,124.193,263.856,127.547z"/>
		</g>
		<path fill="#FFFFFF" d="M224.436,212.369c-8.428,3.292-17.903,3.849-26.656,1.565c-8.753-2.288-16.751-7.4-22.494-14.393"/>
		<g>
			<path fill="#3C2713" d="M247.266,250.045c-0.456,0.555,2.023,3.333,5.537,6.208c3.519,2.876,6.734,4.752,7.191,4.194
				c0.45-0.557-2.023-3.337-5.542-6.214C250.938,251.361,247.719,249.488,247.266,250.045z"/>
		</g>
		<g>
			<path fill="#3C2713" d="M246.257,256.727c-0.577,0.434,0.544,2.896,2.495,5.504c1.956,2.605,4.008,4.37,4.587,3.938
				c0.578-0.435-0.542-2.897-2.501-5.505C248.888,258.058,246.836,256.296,246.257,256.727z"/>
		</g>
		<g>
			<path fill="#3C2713" d="M127.837,224.264c0.331,0.641,2.823,0.005,5.569-1.422c2.738-1.423,4.692-3.096,4.363-3.735
				c-0.334-0.64-2.828-0.003-5.569,1.423C129.459,221.953,127.503,223.621,127.837,224.264z"/>
		</g>
		<g>
			<path fill="#3C2713" d="M121.643,222.733c0.287,0.639,3.971-0.456,7.642-3.312c3.688-2.839,5.679-6.124,5.138-6.564
				c-0.567-0.478-3.285,1.856-6.731,4.501C124.268,220.021,121.322,222.068,121.643,222.733z"/>
		</g>
		<g>
			<path fill="#3C2713" d="M147.205,25.869c-0.108,0.106,0.354,0.954,1.75,2.033c0.7,0.49,1.68,1.172,3.215,1.091
				c1.575-0.012,3.147-1.814,2.931-3.72c-0.03-1.941-1.723-3.717-3.554-4.38c-1.817-0.747-3.98-0.965-6.137-0.491
				c-2.112,0.452-4.506,1.724-5.625,4.245c-1.115,2.536-0.259,5.441,1.087,7.453c5.797,7.828,13.86,11.434,19.697,12.931
				c5.927,1.462,9.731,0.884,9.708,0.615c0.022-0.444-3.684-0.545-9.193-2.387c-5.367-1.784-12.949-5.705-18.01-12.563
				c-1.114-1.708-1.563-3.566-0.935-5.058c0.602-1.471,2.174-2.492,3.823-2.897c3.251-0.873,7.14,0.446,7.295,2.69
				c0.173,1.121-0.454,1.956-1.292,2.116c-0.845,0.176-1.799-0.179-2.484-0.515C148.075,26.322,147.344,25.719,147.205,25.869z"/>
		</g>
		<g>
			<path fill="#3C2713" d="M292.1,88.061c-0.139-0.146-0.796,0.637-2.144,0.293c-0.651-0.178-1.29-0.643-1.482-1.498
				c-0.208-0.826,0.046-1.972,0.833-2.723c1.405-1.555,5.827-2.005,6.784,0.568c0.506,1.245,0.216,3.095-0.669,4.523
				c-0.922,1.482-2.429,2.714-4.199,3.478c-3.596,1.536-7.757,1.184-10.921-0.123c-3.258-1.35-5.778-3.543-7.724-5.493
				c-3.841-4.022-5.82-7.013-6.169-6.768c-0.246,0.154,1.132,3.452,4.803,8.011c1.874,2.211,4.449,4.766,8.127,6.453
				c3.674,1.649,8.443,2.195,12.918,0.314c2.205-0.956,4.145-2.525,5.357-4.552c1.174-2.061,1.639-4.521,0.689-6.795
				c-1.004-2.392-3.684-3.228-5.514-3.047c-1.908,0.115-3.701,0.857-4.848,2.189c-1.158,1.358-1.353,3.111-0.854,4.419
				c0.488,1.372,1.817,2.032,2.716,2.044C291.805,89.419,292.285,88.042,292.1,88.061z"/>
		</g>
		<g>
			<path fill="#583B23" d="M209.493,231.856c0.052-0.155-1.719-1.038-5.122-2.166c-3.389-1.044-8.55-2.548-15.133-1.874
				c-3.256,0.354-6.866,1.468-10.11,3.684c-3.229,2.174-6.278,5.531-7.47,9.989c-1.281,4.442-0.09,9.593,2.834,13.509
				c2.861,4.008,7.665,6.761,12.762,7.422c5.122,0.686,10.197-0.311,14.511-2.561c4.235-2.153,7.995-6.52,7.595-11.516
				c-0.398-4.854-3.781-8.419-7.357-10.171c-3.695-1.778-7.79-1.674-10.927-0.122c-3.212,1.567-4.891,4.833-4.846,7.595
				c-0.05,2.873,1.854,5.044,3.61,5.733c1.764,0.799,3.359,0.634,4.267,0.264c0.927-0.377,1.26-0.803,1.217-0.854
				c-0.019-0.262-1.98,1.306-5.026-0.315c-1.447-0.757-2.76-2.504-2.61-4.8c0.099-2.243,1.562-4.811,4.19-5.963
				c2.582-1.182,6.157-1.17,9.158,0.398c2.994,1.527,5.72,4.693,5.917,8.38c0.268,3.697-2.605,7.196-6.393,9.118
				c-3.785,1.948-8.439,2.844-12.942,2.227c-9.181-0.913-15.774-10.184-13.63-17.738c0.927-3.747,3.504-6.785,6.369-8.817
				c2.901-2.083,6.103-3.19,9.123-3.63c6.11-0.872,11.206,0.279,14.618,1.021C207.532,231.479,209.432,232.043,209.493,231.856z"/>
		</g>
		<g>
			<path fill="#583B23" d="M200.656,26.192c0.045-0.042-0.203-0.466-1.049-0.762c-0.819-0.262-2.292-0.238-3.639,0.864
				c-1.436,1.039-2.053,3.613-0.992,5.817c0.948,2.292,3.535,3.996,6.346,4.563c2.822,0.598,5.921,0.696,9.233,0.228
				c3.218-0.62,6.902-1.169,9.981-4.226c1.521-1.55,2.108-4.177,1.431-6.305c-0.582-2.167-2.115-3.991-3.858-5.226
				c-3.561-2.371-7.402-3.8-11.647-4.816c-4.222-0.939-8.64-0.979-12.669,0.263c-4.004,1.285-7.444,3.773-9.657,6.985
				c-2.255,3.181-3.055,7.177-2.39,10.567c0.621,3.41,2.238,6.227,4.023,8.418c3.707,4.383,7.821,6.458,10.497,7.895
				c2.746,1.376,4.322,1.988,4.406,1.836c0.092-0.167-1.337-1.085-3.896-2.717c-2.492-1.672-6.352-3.991-9.546-8.154
				c-1.562-2.077-2.905-4.684-3.341-7.622c-0.477-2.935,0.251-6.141,2.212-8.835c1.926-2.705,4.976-4.854,8.446-5.93
				c3.503-1.047,7.471-1.026,11.355-0.155c3.834,0.885,7.742,2.376,10.711,4.342c2.949,1.894,4.204,5.714,2.129,7.863
				c-2.041,2.208-5.585,3.09-8.525,3.677c-3.021,0.529-5.989,0.533-8.522,0.102c-2.525-0.425-4.531-1.652-5.399-3.39
				c-0.926-1.705-0.631-3.529,0.355-4.43C198.802,25.052,200.686,26.4,200.656,26.192z"/>
		</g>
		<path fill="#D1966C" d="M220.828,294.488c0,0-34.683,41.951-35.882,56.435c-2.378,28.713-57.32-57.116-57.32-57.116
			L220.828,294.488z"/>
		<g>
			<path fill="#583B23" d="M185.107,334.206c0.022-0.062-0.718-0.434-2.15-0.911c-1.427-0.435-3.595-1.068-6.359-0.787
				c-1.37,0.153-2.885,0.617-4.248,1.549c-1.359,0.914-2.638,2.325-3.138,4.2c-0.542,1.867-0.04,4.032,1.187,5.676
				c1.204,1.685,3.222,2.841,5.363,3.119c2.152,0.288,4.285-0.131,6.099-1.077c1.778-0.906,3.357-2.74,3.19-4.838
				c-0.167-2.041-1.587-3.54-3.09-4.274c-1.554-0.75-3.273-0.705-4.592-0.054c-1.349,0.66-2.054,2.035-2.035,3.192
				c-0.021,1.209,0.778,2.121,1.516,2.412c0.744,0.334,1.414,0.266,1.79,0.108c0.392-0.155,0.533-0.334,0.515-0.357
				c-0.009-0.112-0.832,0.55-2.116-0.132c-0.606-0.319-1.157-1.056-1.093-2.021c0.044-0.939,0.655-2.019,1.759-2.5
				c1.087-0.496,2.586-0.49,3.848,0.165c1.258,0.644,2.408,1.973,2.486,3.521c0.115,1.554-1.093,3.025-2.684,3.832
				c-1.589,0.814-3.548,1.194-5.438,0.934c-3.856-0.382-6.627-4.277-5.728-7.454c0.389-1.575,1.473-2.85,2.677-3.704
				c1.217-0.876,2.564-1.339,3.828-1.529c2.573-0.362,4.717,0.121,6.149,0.432C184.282,334.048,185.083,334.286,185.107,334.206z"/>
		</g>
		<g>
			<path fill="#979696" d="M185.107,356.702c1.064-3.271,2.436-6.444,4.095-9.47c0.827-1.515,1.76-2.979,2.825-4.351
				c1.07-1.364,2.268-2.659,3.716-3.677c0.714-0.52,1.51-0.94,2.354-1.243c0.419-0.165,0.864-0.254,1.306-0.351
				c0.444-0.065,0.85-0.13,1.302-0.168c1.754-0.178,3.517-0.083,5.244,0.209c1.728,0.289,3.417,0.771,5.045,1.404
				c0.813,0.316,1.614,0.667,2.396,1.061c0.785,0.395,1.54,0.808,2.295,1.308l-0.75,0.33c0.465-3.682,0.983-7.356,1.497-11.031
				l1.541-11.025l1.637-11.012l0.859-5.501l0.886-5.496l-0.6,5.535l-0.627,5.532l-1.335,11.053l-1.431,11.04
				c-0.477,3.681-0.95,7.361-1.475,11.035l-0.109,0.762l-0.642-0.432c-0.673-0.454-1.424-0.877-2.17-1.26
				c-0.751-0.386-1.523-0.732-2.307-1.046c-1.569-0.625-3.198-1.105-4.858-1.397c-1.658-0.293-3.354-0.398-5.025-0.285
				c-0.406,0.021-0.85,0.079-1.258,0.128c-0.399,0.08-0.801,0.149-1.187,0.292c-0.776,0.261-1.525,0.632-2.211,1.11
				c-1.389,0.931-2.584,2.161-3.659,3.472c-1.064,1.326-2.027,2.741-2.907,4.207c-0.882,1.467-1.679,2.987-2.418,4.535
				C186.408,353.522,185.711,355.092,185.107,356.702z"/>
		</g>
		<g>
			<path fill="#979696" d="M177.051,359.996c-1.202-2.109-2.504-4.161-3.846-6.182c-1.35-2.015-2.767-3.986-4.287-5.872
				c-1.519-1.885-3.143-3.69-4.939-5.292c-0.899-0.796-1.848-1.54-2.871-2.149c-1.018-0.605-2.12-1.095-3.267-1.236
				c-1.142-0.153-2.302,0.122-3.23,0.791c-0.986,0.698-1.885,1.462-2.761,2.292c-1.741,1.654-3.299,3.502-4.735,5.438
				c-1.437,1.937-2.773,3.951-4.009,6.026c-1.234,2.072-2.396,4.206-3.423,6.373l-0.598,1.262l-0.256-1.37l-2.984-15.948
				l-2.905-15.963c-0.498-2.657-0.941-5.336-1.385-7.999l-1.281-8.011c-0.405-2.675-0.885-5.336-1.227-8.022l-1.071-8.046
				l2.951,15.955l1.473,7.978c0.47,2.668,0.936,5.321,1.444,7.979l2.976,15.951l2.897,15.966l-0.854-0.108
				c1.064-2.216,2.238-4.348,3.497-6.443c1.264-2.089,2.609-4.132,4.098-6.074c1.484-1.943,3.093-3.802,4.899-5.47
				c0.896-0.829,1.865-1.626,2.873-2.318c1.057-0.748,2.428-1.048,3.692-0.854c1.273,0.176,2.431,0.72,3.483,1.364
				c1.057,0.649,2.017,1.426,2.923,2.25c1.812,1.654,3.392,3.526,4.881,5.451C172.163,351.586,174.759,355.713,177.051,359.996z"/>
		</g>
	</g>
	<g>
		<path fill="#F7E2C0" d="M112.87,94.798c25.983,9.734,56.154,17.115,83.986,14.689c13.745-1.198,27.122-4.727,40.685-10.338
			c13.53-5.607,29.748-10.737,42.748-20.153c0.688-0.499,0.677-1.311,0.209-1.641c0.032-0.234,0.041-0.48-0.017-0.743
			c-5.129-24.066-21.729-46.689-39.083-63.414c-8.129-7.834-17.492-14.902-29.024-12.832c-11.939,2.149-17.688-0.307-30.858,2.014
			C172.478,3.971,163.56,3.786,154.139,6c-9.844,2.311-16.95,11.441-22.259,20.691c-11.05,19.282-17.205,42.665-13.943,64.329
			c-1.453-0.348-2.906-0.694-4.36-1.029C110.704,89.334,110.105,93.757,112.87,94.798z"/>
		<path fill="#7B5340" d="M196.928,88.519c15.927-0.295,32.072-3.728,47.612-7.148c8.933-1.967,26.013-7.329,34.525-10.362
			c4.708,8.522,0.493,2.097,1.416,5.602c0.07,0.261,0.049,0.509,0.017,0.743c0.468,0.331,0.479,1.143-0.209,1.641
			c-13,9.417-29.218,14.546-42.748,20.153c-5.448,2.252-10.864,4.152-16.286,5.719c-3.003,0.037-5.993,0.023-8.954-0.044
			c-15.079-0.338-30.132-2.028-45.147-3.357c-14.153-1.262-29.028-1.377-42.753-5.356c-4.447-1.289-8.431-3.399-11.883-6.11
			c0.309-0.084,0.659-0.1,1.059-0.008c1.455,0.335,3.108,7.181,4.559,7.53c-1.285-8.531-1.312,2.284-1.062-14.056
			C141.626,91.211,171.015,89.004,196.928,88.519z"/>
		<path opacity="0.5" fill="#F6DEBB" d="M112.87,94.798c25.983,9.734,56.154,17.115,83.986,14.689
			c13.745-1.198,27.122-4.727,40.685-10.338c13.53-5.607,29.748-10.737,42.748-20.153c0.688-0.499,0.677-1.311,0.209-1.641
			c0.032-0.234,0.041-0.48-0.017-0.743c-5.129-24.066-21.729-46.689-39.083-63.414c-8.129-7.834-17.492-14.902-29.024-12.832
			c-11.939,2.149-18.818,2.164-30.858,2.014C172.342,2.264,163.56,3.786,154.139,6c-9.844,2.311-16.95,11.441-22.259,20.691
			c-11.05,19.282-17.205,42.665-13.943,64.329c-1.453-0.348-2.906-0.694-4.36-1.029C110.704,89.334,110.105,93.757,112.87,94.798z"
			/>
		<path fill="#F7E2C0" d="M27.599,95.052c28.574-15.352,58.219-4.599,85.259,8.747c25.972,12.818,52.044,23.39,81.33,22.046
			c27.414-1.253,52.77-11.086,76.949-24.136c12.077-6.523,23.919-13.499,35.964-20.078c6.407-3.502,12.862-6.921,19.436-10.062
			c7.726-3.692,19.028-10.063,25.808-0.742c0.806,1.111,2.978,0.508,2.372-1.046c-1-2.578-2.367-4.441-3.973-5.773
			c-0.723-0.483-1.42-1.069-2.065-1.574c-22.102-8.835-47.79,2.432-68.755,9.701c-25.81,8.953-52.553,15.145-79.692,17.448
			c-27.547,2.334-54.9,1.079-82.227-3.151c-13.506-2.09-27.057-4.576-40.705-5.466c-8.293-0.542-17.421-0.961-25.993,0.483
			c-9.189,1.149-17.931,4.545-25.461,11.221C24.532,93.84,26.206,95.802,27.599,95.052z"/>
		<path opacity="0.5" fill="#F6DEBB" d="M51.306,81.45c8.572-1.444,17.7-1.025,25.993-0.483c13.648,0.89,27.199,3.376,40.705,5.466
			c27.326,4.23,54.679,5.485,82.227,3.151c27.14-2.303,53.882-8.495,79.692-17.448c20.056-6.957,44.436-17.555,65.86-10.724
			c-15.853,0.77-29.867,4.208-44.342,11.32c-14.175,6.968-27.228,16.045-41.163,23.471c-26.4,14.071-58.008,21.144-87.889,19.09
			c-1.939-0.134-3.254-3.104-1.099-4.06c6.588-2.915,13.249-5.766,19.964-8.514c-20.78,0.966-42.538-3.761-61.832-8.344
			c-20.525-4.874-40.957-10.294-62.131-11.222c-11.967-0.527-23.047,0.951-33.815,4.092C39.059,84.077,45.074,82.231,51.306,81.45z"
			/>
	</g>
	<g>
		<path fill="#7B5340" d="M117.777,75.231c0,0,2.462,0.198,6.779,0.393c2.157,0.121,4.78,0.188,7.787,0.307
			c3.008,0.049,6.401,0.184,10.105,0.186c1.852,0.013,3.781,0.025,5.777,0.039c1.996-0.018,4.06-0.037,6.181-0.057
			c4.244-0.006,8.716-0.187,13.343-0.311c4.625-0.167,9.402-0.435,14.254-0.697c2.423-0.178,4.866-0.357,7.318-0.538
			c2.453-0.174,4.915-0.351,7.369-0.621c4.912-0.495,9.836-0.882,14.65-1.554c2.411-0.303,4.803-0.605,7.166-0.903
			c2.366-0.281,4.679-0.719,6.968-1.063c2.285-0.363,4.532-0.722,6.732-1.073c2.203-0.335,4.328-0.828,6.413-1.219
			c2.081-0.411,4.105-0.812,6.063-1.199c0.978-0.201,1.945-0.367,2.883-0.588c0.936-0.227,1.854-0.449,2.754-0.667
			c3.599-0.871,6.898-1.671,9.823-2.38c2.902-0.79,5.407-1.574,7.483-2.171c4.145-1.22,6.514-1.918,6.514-1.918
			s-2.366,0.705-6.507,1.938c-2.074,0.604-4.577,1.396-7.478,2.195c-2.922,0.718-6.22,1.528-9.817,2.412
			c-0.898,0.221-1.817,0.446-2.752,0.676c-0.937,0.224-1.904,0.393-2.881,0.597c-1.958,0.394-3.981,0.802-6.062,1.22
			c-2.084,0.397-4.209,0.897-6.411,1.239c-2.2,0.357-4.447,0.723-6.732,1.095c-2.288,0.351-4.602,0.797-6.967,1.085
			c-2.363,0.305-4.755,0.614-7.166,0.925c-4.815,0.688-9.74,1.093-14.653,1.6c-2.456,0.262-4.919,0.431-7.374,0.598
			c-2.454,0.173-4.898,0.344-7.323,0.516c-4.855,0.246-9.634,0.5-14.262,0.651c-4.628,0.11-9.102,0.277-13.346,0.27
			c-2.122,0.013-4.186,0.025-6.183,0.037c-1.997-0.02-3.926-0.039-5.778-0.058c-3.704-0.012-7.097-0.159-10.105-0.218
			c-3.007-0.127-5.629-0.202-7.786-0.33C120.238,75.437,117.777,75.231,117.777,75.231z"/>
	</g>
	<g>
		<path fill="#7B5340" d="M120.289,54.978c0,0,0.563,0.076,1.619,0.218s2.607,0.33,4.583,0.544c1.974,0.241,4.381,0.436,7.136,0.712
			c2.762,0.202,5.873,0.5,9.275,0.694c1.702,0.104,3.473,0.211,5.307,0.322c1.834,0.104,3.733,0.155,5.684,0.239
			c3.901,0.194,8.02,0.221,12.279,0.29c2.129,0.058,4.295-0.002,6.487-0.018c2.192-0.027,4.41-0.055,6.646-0.081
			c2.234-0.092,4.486-0.184,6.748-0.277c2.261-0.098,4.533-0.154,6.796-0.355c4.528-0.362,9.073-0.553,13.511-1.12
			c2.223-0.243,4.428-0.485,6.607-0.723c0.544-0.06,1.088-0.119,1.629-0.179c0.539-0.081,1.074-0.162,1.609-0.243
			c1.069-0.163,2.131-0.325,3.184-0.486c2.105-0.321,4.176-0.637,6.202-0.946c0.506-0.078,1.01-0.156,1.511-0.232
			c0.497-0.101,0.99-0.201,1.481-0.301c0.981-0.198,1.951-0.394,2.908-0.588c1.914-0.387,3.775-0.763,5.575-1.127
			c0.899-0.187,1.788-0.35,2.652-0.547c0.858-0.223,1.699-0.442,2.524-0.656c3.299-0.854,6.323-1.637,9.004-2.33
			c2.656-0.779,4.935-1.584,6.83-2.183c3.781-1.232,5.942-1.936,5.942-1.936s-2.156,0.719-5.929,1.976
			c-1.892,0.612-4.166,1.433-6.818,2.229c-2.679,0.706-5.701,1.503-8.998,2.373c-0.824,0.218-1.666,0.438-2.523,0.664
			c-0.864,0.199-1.752,0.365-2.652,0.554c-1.801,0.368-3.662,0.749-5.576,1.141c-0.958,0.196-1.927,0.394-2.909,0.595
			c-0.491,0.101-0.986,0.201-1.482,0.304c-0.501,0.078-1.005,0.157-1.512,0.235c-2.027,0.314-4.098,0.635-6.204,0.961
			c-1.053,0.164-2.115,0.328-3.184,0.494c-0.535,0.083-1.072,0.166-1.61,0.247c-0.542,0.061-1.084,0.122-1.629,0.183
			c-2.18,0.244-4.386,0.491-6.61,0.74c-4.441,0.577-8.987,0.779-13.518,1.15c-2.266,0.196-4.539,0.247-6.801,0.34
			c-2.263,0.087-4.517,0.174-6.752,0.261c-2.238,0.021-4.458,0.044-6.65,0.065c-2.193,0.012-4.359,0.066-6.49,0.002
			c-4.261-0.078-8.381-0.113-12.283-0.317c-1.951-0.088-3.851-0.143-5.686-0.252c-1.834-0.116-3.606-0.227-5.308-0.334
			c-3.404-0.197-6.515-0.518-9.274-0.74c-2.754-0.293-5.16-0.506-7.133-0.759c-1.976-0.227-3.525-0.426-4.581-0.576
			C120.851,55.058,120.289,54.978,120.289,54.978z"/>
	</g>
	<g>
		<path fill="#7B5340" d="M125.046,38.699c0,0,2.023,0.13,5.567,0.251c3.543,0.142,8.609,0.25,14.688,0.302
			c3.04,0.004,6.333,0.036,9.814-0.03c1.741-0.025,3.53-0.051,5.358-0.078c1.828-0.055,3.695-0.11,5.594-0.167
			c3.799-0.078,7.717-0.341,11.702-0.516c3.981-0.236,8.023-0.539,12.063-0.841c4.032-0.399,8.075-0.694,12.035-1.173
			c1.98-0.239,3.944-0.478,5.885-0.713c0.97-0.118,1.935-0.234,2.892-0.351c0.954-0.145,1.9-0.29,2.839-0.433
			c1.877-0.29,3.723-0.574,5.53-0.852c0.903-0.139,1.797-0.277,2.68-0.413c0.877-0.169,1.744-0.336,2.599-0.5
			c1.71-0.33,3.373-0.65,4.981-0.96c1.606-0.323,3.171-0.574,4.642-0.958c2.957-0.701,5.667-1.345,8.07-1.915
			c1.209-0.258,2.31-0.612,3.337-0.906c1.026-0.299,1.968-0.575,2.819-0.823c3.404-0.994,5.35-1.562,5.35-1.562
			s-1.941,0.583-5.338,1.602c-0.85,0.255-1.79,0.537-2.814,0.844c-1.025,0.302-2.124,0.666-3.331,0.932
			c-2.401,0.583-5.109,1.242-8.063,1.96c-1.471,0.387-3.036,0.642-4.642,0.97c-1.609,0.313-3.272,0.639-4.982,0.973
			c-0.854,0.167-1.721,0.337-2.599,0.507c-0.883,0.139-1.777,0.279-2.68,0.42c-1.808,0.283-3.653,0.572-5.531,0.867
			c-0.939,0.146-1.886,0.292-2.839,0.441c-0.958,0.118-1.922,0.238-2.893,0.359c-1.941,0.239-3.906,0.482-5.886,0.728
			c-3.961,0.488-8.005,0.795-12.039,1.203c-4.043,0.292-8.087,0.585-12.072,0.812c-3.987,0.165-7.908,0.417-11.708,0.484
			c-1.9,0.052-3.768,0.103-5.596,0.153c-1.829,0.022-3.618,0.043-5.36,0.063c-3.483,0.058-6.777,0.016-9.817,0.005
			c-6.081-0.062-11.146-0.234-14.688-0.394C127.068,38.844,125.046,38.699,125.046,38.699z"/>
	</g>
	<g>
		<path fill="#7B5340" d="M130.961,28.339c0,0,1.69-0.271,4.649-0.746c2.961-0.46,7.19-1.118,12.266-1.907
			c5.082-0.748,11.011-1.622,17.363-2.558c6.355-0.917,13.139-1.859,19.928-2.763c3.397-0.43,6.795-0.861,10.139-1.284
			c3.348-0.396,6.642-0.785,9.831-1.162c3.192-0.342,6.278-0.674,9.205-0.987c2.931-0.271,5.702-0.525,8.259-0.762
			c2.562-0.175,4.912-0.336,6.994-0.478c2.086-0.068,3.905-0.127,5.402-0.177c1.498-0.006,2.675,0.072,3.477,0.086
			c0.802,0.026,1.23,0.04,1.23,0.04s-0.428-0.01-1.23-0.029c-0.802-0.006-1.979-0.075-3.476-0.055
			c-1.497,0.062-3.313,0.138-5.398,0.226c-2.08,0.156-4.427,0.331-6.988,0.522c-2.556,0.243-5.326,0.507-8.254,0.785
			c-2.925,0.323-6.009,0.664-9.199,1.016c-3.187,0.387-6.479,0.786-9.825,1.192c-3.342,0.434-6.738,0.874-10.133,1.314
			c-6.791,0.884-13.577,1.806-19.934,2.703c-6.354,0.916-12.286,1.771-17.369,2.504C137.735,27.331,130.961,28.339,130.961,28.339z"
			/>
	</g>
	<path fill="#7B5340" d="M185.877,77.196c-2.529,0.401,0,10.227,0,10.227s27.954-0.262,33.131-2.849
		c5.182-2.593-1.846-11.102-1.846-11.102S192.154,76.207,185.877,77.196z"/>
	<path fill="#7B5340" d="M181.665,59.79c0,0-4.106,11.036,0.544,11.803c4.644,0.771,31.691-0.039,34.281-3.519
		c2.587-3.479,3.665-8.498-2.624-9.018C207.578,58.536,181.665,59.79,181.665,59.79z"/>
	<path fill="#7B5340" d="M179.373,41.66c0,0-2.872,9.718,2.143,12.746c5.016,3.022,30.093,0.438,33.423-2.084
		c3.33-2.526,0.742-13.809-2.589-12.978C209.021,40.176,186.007,39.344,179.373,41.66z"/>
	<path fill="#7B5340" d="M181.376,23.9c0,0-10.192,12.579-2.003,12.579c8.192,0,32.978-1.259,32.609-3.777
		c-0.373-2.514,5.916-11.399-2.489-12.807C201.093,18.484,184.806,22.789,181.376,23.9z"/>
	<path fill="#7B5340" d="M119.723,77.196v4.651c0,0,16.786,4.944,18.08,3.833c1.297-1.105,1.47-8.484,1.47-8.484
		S122.172,75.375,119.723,77.196z"/>
	<path fill="#7B5340" d="M121.619,58.128l-1.33,12.881c0,0,13.461,3.572,17.617,2.463c4.158-1.108,3.017-13.676,1.368-13.683
		C137.622,59.785,121.619,58.128,121.619,58.128z"/>
	<path fill="#7B5340" d="M125.046,52.321c0,0,13.315,5.989,15.719,2.657c2.404-3.331,5.363-12.95,2.038-12.95
		c-3.331,0-14.986-2.776-15.91-1.479C125.966,41.844,122.318,51.201,125.046,52.321z"/>
	<path fill="#7B5340" d="M132.258,30.102c0,0-4.255,5.081-3.515,6.377c0.74,1.292,15.002,2.22,15.544,0.738
		c0.547-1.479,0-9.173,0-9.173S134.846,28.721,132.258,30.102z"/>
	<path fill="#7B5340" d="M273.728,61.47c0,0-5.889,1.143-9.709,2.75c-3.82,1.608-2.837,9.682,0,9.467
		c2.84-0.214,12.703-3.916,12.703-3.916S276.895,64.265,273.728,61.47z"/>
	<path fill="#7B5340" d="M265.72,45.986c0,0,7.765,9.561,5.681,12.143c-2.08,2.581-13.176,3.342-13.176,3.342
		s-7.896-6.758-3.699-10.572C258.718,47.081,265.72,45.986,265.72,45.986z"/>
	<path fill="#7B5340" d="M253.296,28.339c0,0,10.58,10.56,8.495,12.68c-2.087,2.117-14.579,4.967-14.579,4.967
		s-7.932-9.076-4.133-12.005C246.881,31.052,253.296,28.339,253.296,28.339z"/>
	<path fill="#7B5340" d="M242.049,15.641c0,0,9.107,8.257,8.696,8.504c-0.414,0.25-12.744,6.071-13.979,3.9
		c-1.232-2.173-6.901-6.8-3.201-8.433C237.262,17.979,242.049,15.641,242.049,15.641z"/>
	<path fill="none" stroke="#7B5340" stroke-miterlimit="10" d="M335.505,68.665"/>
	<g>
		<g>
			<path fill="#7B5340" d="M331.161,68.074c0,0,0.205,0.269,0.511,0.822c0.311,0.551,0.722,1.391,1.072,2.527
				c0.184,0.563,0.309,1.212,0.453,1.914c0.059,0.712,0.225,1.482,0.17,2.315c0.078,1.673-0.348,3.53-0.98,5.481
				c-0.211,0.466-0.426,0.944-0.646,1.43c-0.23,0.481-0.419,0.998-0.74,1.45c-0.612,0.916-1.128,1.956-1.921,2.824
				c-0.747,0.902-1.466,1.88-2.386,2.699c-0.885,0.853-1.749,1.776-2.784,2.523c-0.501,0.394-1.006,0.792-1.515,1.193
				c-0.506,0.404-1.015,0.813-1.575,1.154c-1.096,0.717-2.205,1.443-3.322,2.175c-2.323,1.333-4.617,2.697-7.068,3.892
				c-1.209,0.616-2.424,1.218-3.662,1.749c-1.236,0.535-2.441,1.13-3.685,1.608c-1.237,0.492-2.464,0.979-3.676,1.462
				c-1.228,0.44-2.441,0.875-3.634,1.302c-2.403,0.806-4.748,1.523-6.993,2.114c-2.242,0.603-4.376,1.123-6.36,1.535
				c-1.976,0.443-3.808,0.753-5.432,1.01c-1.624,0.261-3.047,0.441-4.219,0.581c-2.346,0.267-3.694,0.312-3.694,0.312
				s1.342-0.133,3.668-0.506c1.163-0.186,2.573-0.426,4.179-0.753c0.806-0.15,1.657-0.343,2.554-0.543
				c0.899-0.19,1.842-0.403,2.82-0.648c1.963-0.46,4.072-1.032,6.286-1.688c2.217-0.645,4.522-1.429,6.907-2.232
				c1.181-0.435,2.382-0.876,3.598-1.323c1.199-0.489,2.413-0.984,3.636-1.482c1.23-0.484,2.42-1.085,3.642-1.626
				c1.226-0.536,2.418-1.143,3.608-1.756c2.406-1.146,4.76-2.518,7.047-3.803c1.107-0.712,2.205-1.418,3.29-2.116
				c0.557-0.331,1.058-0.729,1.558-1.121c0.502-0.389,1.001-0.774,1.496-1.158c1.028-0.723,1.862-1.629,2.757-2.432
				c0.923-0.78,1.641-1.71,2.393-2.572c0.799-0.829,1.315-1.82,1.937-2.697c0.326-0.432,0.518-0.926,0.752-1.386
				c0.226-0.467,0.446-0.924,0.663-1.372c0.644-1.872,1.141-3.655,1.133-5.285c0.089-0.811-0.043-1.567-0.072-2.271
				c-0.113-0.692-0.209-1.337-0.367-1.899c-0.305-1.13-0.651-1.991-0.933-2.555C331.351,68.355,331.161,68.074,331.161,68.074z"/>
		</g>
		<g>
			<path fill="#7B5340" d="M311.184,108.021c0,0,3.544-1.354,8.748-3.651c2.604-1.144,5.621-2.527,8.792-4.13
				c3.168-1.605,6.502-3.423,9.649-5.529c1.564-1.062,3.098-2.179,4.458-3.446c1.342-1.263,2.58-2.693,3.031-4.416
				c1.111-3.374,1.828-6.618,2.377-9.406c1.063-5.586,1.419-9.369,1.419-9.369s-0.074,0.945-0.264,2.594
				c-0.194,1.647-0.497,4.001-1.018,6.801c-0.532,2.794-1.231,6.05-2.325,9.441c-0.452,1.766-1.719,3.246-3.064,4.521
				c-1.37,1.284-2.898,2.428-4.48,3.479c-3.171,2.099-6.521,3.9-9.701,5.492c-3.184,1.589-6.21,2.958-8.822,4.087
				C314.753,106.732,311.184,108.021,311.184,108.021z"/>
		</g>
		<polygon fill="#7B5340" points="335.505,68.665 336.654,71.593 338.132,69.279 		"/>
		<polygon fill="#7B5340" points="336.82,73.692 336.82,76.207 339.365,74.95 336.82,72.488 		"/>
		<polygon fill="#7B5340" points="336.82,77.666 336.171,80.746 338.629,79.207 		"/>
		<polygon fill="#7B5340" points="335.505,82.229 334.309,84.574 336.82,83.954 		"/>
		<polygon fill="#7B5340" points="333.201,86.05 331.35,88.292 334.309,89.011 		"/>
		<polygon fill="#7B5340" points="329.5,90.8 325.432,93.818 329.5,93.818 		"/>
		<polygon fill="#7B5340" points="323.951,95.545 319.513,98.505 323.334,98.505 		"/>
		<polygon fill="#7B5340" points="316.552,99.738 311.891,101.716 315.073,102.792 		"/>
		<polygon fill="#7B5340" points="309.122,103.271 304.103,105.671 307.675,105.671 		"/>
		<polygon fill="#7B5340" points="300.136,107.201 296.223,108.428 298.81,109.112 		"/>
		<polygon fill="#7B5340" points="350.585,70.127 350.218,73.692 351.696,72.488 		"/>
		<polygon fill="#7B5340" points="349.658,74.953 348.985,77.666 351.696,76.312 		"/>
		<polygon fill="#7B5340" points="348.985,79.207 347.998,82.724 350.957,81.488 		"/>
		<polygon fill="#7B5340" points="347.998,84.574 346.642,87.948 348.985,86.915 		"/>
		<polygon fill="#7B5340" points="345.783,89.703 343.312,92.31 345.783,92.58 		"/>
		<polygon fill="#7B5340" points="341.955,93.818 338.629,96.286 341.462,96.286 		"/>
		<polygon fill="#7B5340" points="336.82,97.025 332.09,99.738 335.563,99.738 		"/>
		<polygon fill="#7B5340" points="330.421,100.724 326.049,102.792 330.421,102.792 		"/>
		<polygon fill="#7B5340" points="323.089,103.809 320.621,104.886 323.089,105.178 		"/>
	</g>
	<g>
		<path fill="#7B5340" d="M29.583,89.703c0,0,1.184-0.539,3.511-1.256c2.339-0.662,5.808-1.546,10.312-2.153
			c4.5-0.578,10.011-1.084,16.34-0.972c1.581,0.037,3.216-0.043,4.893,0.096c1.678,0.096,3.404,0.197,5.175,0.298
			c1.775,0.061,3.58,0.315,5.434,0.505c1.851,0.208,3.75,0.394,5.681,0.632c1.923,0.306,3.885,0.619,5.886,0.938
			c2,0.322,4.045,0.608,6.092,1.078c2.055,0.429,4.145,0.865,6.266,1.309c1.058,0.234,2.137,0.415,3.2,0.698
			c1.065,0.274,2.138,0.55,3.218,0.828c2.161,0.556,4.351,1.12,6.568,1.69c0.554,0.143,1.11,0.288,1.667,0.433l1.657,0.506
			c1.108,0.337,2.222,0.677,3.343,1.019c2.24,0.685,4.505,1.375,6.792,2.072c2.287,0.697,4.54,1.569,6.843,2.355
			c4.587,1.625,9.251,3.278,13.972,4.953c2.352,0.862,4.77,1.566,7.171,2.365c2.409,0.774,4.872,1.419,7.321,2.14
			c9.858,2.653,20.105,4.578,30.458,5.26c10.343,0.685,20.802,0.04,30.752-2.272c9.967-2.277,19.276-6.311,27.792-10.994
			c4.291-2.287,8.389-4.784,12.687-6.678c1.086-0.44,2.166-0.877,3.239-1.312c1.067-0.449,2.15-0.851,3.149-1.408
			c2.056-0.997,3.996-2.158,5.917-3.288c7.567-4.716,14.505-9.544,21.356-13.263c3.406-1.889,6.759-3.535,10.002-4.975
			c1.639-0.681,3.235-1.344,4.788-1.99c1.586-0.555,3.128-1.093,4.621-1.615c1.479-0.566,2.979-0.897,4.396-1.318
			c1.429-0.375,2.782-0.833,4.126-1.096c1.34-0.281,2.625-0.549,3.854-0.806c1.229-0.255,2.395-0.527,3.525-0.65
			c2.25-0.312,4.259-0.59,6.006-0.833c1.757-0.149,3.256-0.233,4.469-0.325c2.428-0.169,3.722-0.259,3.722-0.259
			s-1.294,0.093-3.722,0.266c-1.213,0.092-2.711,0.179-4.468,0.331c-1.747,0.245-3.754,0.527-6.003,0.843
			c-1.13,0.123-2.296,0.399-3.524,0.654c-1.228,0.258-2.512,0.529-3.851,0.811c-1.343,0.265-2.696,0.727-4.124,1.104
			c-1.415,0.423-2.915,0.755-4.392,1.324c-1.492,0.524-3.032,1.065-4.617,1.622c-1.55,0.648-3.145,1.313-4.782,1.996
			c-3.239,1.444-6.588,3.094-9.989,4.987c-6.842,3.727-13.768,8.562-21.333,13.293c-1.922,1.134-3.862,2.299-5.926,3.304
			c-1.004,0.561-2.084,0.964-3.151,1.414c-1.072,0.436-2.15,0.875-3.234,1.316c-4.281,1.894-8.376,4.396-12.666,6.692
			c-8.514,4.699-17.836,8.755-27.821,11.053c-9.968,2.331-20.45,2.997-30.814,2.322c-10.372-0.699-20.63-2.643-30.494-5.313
			c-2.452-0.726-4.915-1.375-7.326-2.153c-2.402-0.802-4.825-1.512-7.174-2.378c-4.718-1.681-9.378-3.34-13.963-4.972
			c-2.301-0.79-4.552-1.665-6.836-2.365c-2.285-0.701-4.547-1.395-6.786-2.082c-1.119-0.343-2.232-0.685-3.339-1.025l-1.655-0.506
			c-0.558-0.146-1.112-0.291-1.666-0.435c-2.215-0.574-4.404-1.14-6.562-1.698c-1.08-0.281-2.151-0.558-3.216-0.833
			c-1.062-0.285-2.14-0.467-3.198-0.703c-2.12-0.446-4.208-0.885-6.261-1.316c-2.046-0.474-4.089-0.762-6.088-1.087
			c-1.999-0.322-3.96-0.637-5.882-0.946c-1.93-0.242-3.827-0.43-5.678-0.642c-1.853-0.19-3.656-0.448-5.431-0.511
			c-1.771-0.105-3.496-0.207-5.173-0.307c-1.676-0.142-3.311-0.062-4.891-0.102c-6.327-0.123-11.836,0.376-16.337,0.947
			c-4.505,0.599-7.974,1.478-10.314,2.136C30.768,89.165,29.583,89.703,29.583,89.703z"/>
	</g>
	<g>
		<path fill="#7B5340" d="M317.656,60.482c0,0-1.028,0.325-2.953,0.936c-0.964,0.301-2.155,0.67-3.519,1.203
			c-1.369,0.52-2.962,1.061-4.684,1.83c-0.867,0.369-1.78,0.758-2.738,1.166c-0.94,0.446-1.924,0.914-2.949,1.401
			c-1.034,0.471-2.073,1.033-3.16,1.599c-1.089,0.562-2.213,1.153-3.347,1.812c-4.584,2.555-9.563,5.76-14.971,9.301
			c-5.408,3.488-11.271,7.541-18.314,10.035c-3.375,1.422-6.679,3.337-10.079,5.216c-3.397,1.895-6.896,3.801-10.552,5.55
			c-7.304,3.5-15.257,6.381-23.634,7.998c-4.181,0.812-8.442,1.436-12.749,1.687c-1.074,0.1-2.152,0.14-3.232,0.169
			c-1.079,0.028-2.159,0.09-3.239,0.091c-2.161-0.034-4.328,0.011-6.488-0.139c-8.645-0.442-17.223-1.772-25.508-3.692
			c-8.29-1.92-16.289-4.423-23.894-7.184c-3.803-1.363-7.543-2.703-11.204-4.015c-1.832-0.653-3.643-1.299-5.433-1.938
			c-1.811-0.565-3.6-1.125-5.365-1.677c-3.534-1.089-6.946-2.237-10.328-3.073c-1.682-0.451-3.335-0.892-4.958-1.327
			c-1.623-0.432-3.209-0.882-4.793-1.202c-3.152-0.698-6.174-1.367-9.048-2.002c-2.897-0.521-5.645-1.017-8.227-1.482
			c-2.584-0.46-5.031-0.7-7.279-1.024c-1.127-0.141-2.204-0.313-3.24-0.41c-1.038-0.089-2.027-0.173-2.965-0.252
			c-1.878-0.15-3.554-0.32-5.016-0.406c-1.463-0.054-2.708-0.098-3.717-0.134c-2.02-0.073-3.096-0.112-3.096-0.112
			s1.077,0.023,3.097,0.067c1.01,0.022,2.256,0.05,3.721,0.083c1.463,0.064,3.142,0.21,5.024,0.334
			c0.941,0.067,1.933,0.137,2.973,0.21c1.039,0.082,2.119,0.24,3.25,0.364c2.254,0.293,4.71,0.5,7.304,0.923
			c2.594,0.429,5.354,0.886,8.264,1.367c2.889,0.59,5.915,1.272,9.079,1.95c1.589,0.313,3.181,0.755,4.809,1.181
			c1.628,0.427,3.287,0.862,4.974,1.305c3.392,0.822,6.82,1.956,10.37,3.031c1.773,0.544,3.57,1.097,5.39,1.657
			c1.792,0.629,3.607,1.266,5.443,1.91c3.668,1.294,7.416,2.617,11.227,3.961c7.596,2.715,15.578,5.171,23.834,7.041
			c8.253,1.872,16.785,3.145,25.361,3.55c2.142,0.159,4.29,0.125,6.433,0.169c1.072,0.003,2.142-0.052,3.212-0.076
			c1.07-0.023,2.14-0.057,3.205-0.151c4.27-0.228,8.494-0.827,12.641-1.611c8.309-1.561,16.204-4.376,23.479-7.82
			c3.644-1.72,7.136-3.602,10.54-5.479c3.413-1.863,6.718-3.763,10.183-5.204c6.998-2.438,12.814-6.42,18.253-9.891
			c5.414-3.532,10.458-6.672,15.091-9.164c1.146-0.645,2.28-1.222,3.38-1.77c1.097-0.551,2.147-1.101,3.19-1.558
			c1.034-0.474,2.026-0.928,2.974-1.362c0.965-0.395,1.885-0.771,2.759-1.129c1.734-0.746,3.34-1.266,4.717-1.766
			c1.373-0.515,2.568-0.868,3.537-1.154C316.624,60.792,317.656,60.482,317.656,60.482z"/>
	</g>
	<g>
		<path fill="#7B5340" d="M132.995,87.807c0,0,2.246,0.71,6.174,1.954c1.967,0.609,4.34,1.422,7.09,2.223
			c2.757,0.773,5.839,1.699,9.254,2.55c1.701,0.446,3.47,0.915,5.325,1.302c1.852,0.392,3.742,0.907,5.724,1.25
			c3.94,0.79,8.118,1.499,12.456,2.039c1.084,0.133,2.179,0.265,3.28,0.401c1.105,0.09,2.218,0.182,3.338,0.274
			c1.119,0.102,2.246,0.188,3.38,0.217c1.133,0.055,2.272,0.109,3.416,0.165c4.576,0.094,9.224-0.021,13.842-0.458
			c4.617-0.449,9.201-1.192,13.637-2.259c4.432-1.078,8.736-2.391,12.795-3.977c4.058-1.583,7.902-3.338,11.495-5.142
			c3.592-1.855,6.987-3.609,10.122-5.228c1.595-0.785,3.12-1.555,4.645-2.159c0.748-0.325,1.515-0.574,2.246-0.835
			c0.708-0.262,1.394-0.516,2.06-0.763c0.664-0.263,1.342-0.466,1.931-0.756c0.598-0.28,1.174-0.551,1.728-0.811
			c1.12-0.497,2.119-1.04,3.021-1.531c1.815-0.961,3.228-1.755,4.186-2.302c0.962-0.542,1.476-0.831,1.476-0.831
			s-0.483,0.337-1.389,0.969c-0.91,0.626-2.216,1.591-3.98,2.669c-0.87,0.558-1.833,1.176-2.946,1.768
			c-0.55,0.308-1.123,0.627-1.717,0.958c-0.593,0.344-1.237,0.587-1.886,0.9c-0.661,0.3-1.342,0.609-2.044,0.927
			c-0.684,0.302-1.392,0.588-2.097,0.958c-1.425,0.683-2.894,1.497-4.42,2.357c-3.046,1.743-6.319,3.744-9.894,5.69
			c-3.566,1.961-7.417,3.918-11.555,5.612c-4.132,1.699-8.517,3.225-13.089,4.339c-4.566,1.132-9.288,1.94-14.04,2.429
			c-4.76,0.416-9.534,0.497-14.222,0.367c-2.339-0.15-4.667-0.211-6.945-0.5c-1.141-0.12-2.274-0.239-3.4-0.357
			c-1.12-0.162-2.231-0.323-3.333-0.482c-4.411-0.623-8.62-1.527-12.579-2.47c-1.991-0.43-3.889-1-5.737-1.494
			c-1.851-0.488-3.612-1.051-5.302-1.589c-3.398-1.007-6.443-2.173-9.149-3.151c-2.697-0.998-4.998-1.974-6.918-2.724
			c-1.923-0.751-3.397-1.419-4.42-1.839C133.537,88.037,132.995,87.807,132.995,87.807z"/>
	</g>
</g>
</svg>
