<?xml version="1.0" encoding="utf-8"?>
<!-- Generator: Adobe Illustrator 16.0.0, SVG Export Plug-In . SVG Version: 6.00 Build 0)  -->
<!DOCTYPE svg PUBLIC "-//W3C//DTD SVG 1.1//EN" "http://www.w3.org/Graphics/SVG/1.1/DTD/svg11.dtd">
<svg version="1.1" id="Capa_1" xmlns="http://www.w3.org/2000/svg" xmlns:xlink="http://www.w3.org/1999/xlink" x="0px" y="0px"
	 width="1281px" height="601px" viewBox="0 0 1281 601" enable-background="new 0 0 1281 601" xml:space="preserve">
<rect y="0" opacity="0.9" fill="#D2D2D2" enable-background="new    " width="1281" height="601"/>
<path fill="#E9496E" d="M1271.608,47.584c0-0.085-0.002-0.169-0.006-0.254c-0.025-1.44-0.343-2.858-0.951-4.088
	c-0.233-0.494-0.506-0.968-0.822-1.404c-0.362-0.497-0.824-0.937-1.357-1.313c-2.329-1.921-5.488-2.418-8.73-1.276
	c-1.507,0.53-2.234,0.453-2.52-0.478c-0.059-0.317-0.086-0.708-0.087-1.188c-0.008-3.704,0.034-7.409,0.04-11.111
	c0.002-1.155-0.031-1.817-0.306-2.2c-0.294-0.646-0.918-0.896-1.958-0.878c-3.963,0.063-7.931,0.028-11.895,0.077
	c-0.211,0.003-0.397,0.012-0.574,0.023c-1.05-0.394-1.127-1.312-0.486-3.125c1.392-3.941,0.211-8.059-3.001-10.46
	c-2.886-2.158-7.291-2.219-10.24-0.142c-3.302,2.321-4.58,6.339-3.303,10.365c0.688,2.182,0.657,3.074-0.62,3.393
	c-3.62-0.023-7.24-0.038-10.858,0.018c-0.413-0.008-0.829-0.015-1.243-0.021c-0.329-0.006-0.627,0.012-0.889,0.06
	c-0.014,0-0.025,0-0.04,0.001c-0.071,0.001-0.151,0.025-0.233,0.063c-0.775,0.231-1.172,0.833-1.121,2.131
	c0.007,0.187,0.012,0.374,0.018,0.562c-0.048,1.739,0,3.484,0,5.229c0.001,2.061-0.067,4.124,0.021,6.181
	c-0.002,0.223-0.004,0.418-0.01,0.595c-0.072,0.856-0.462,1.255-1.115,1.367c-0.349-0.008-0.799-0.056-1.393-0.119
	c-0.501-0.054-1.007-0.066-1.512-0.077c-0.611-0.046-1.22-0.062-1.823-0.031c-0.008,0-0.016,0.001-0.021,0.001
	c-1.229,0.062-2.438,0.328-3.608,0.965c-2.377,1.29-3.807,4.099-3.767,7.058c0,0.027,0,0.057,0,0.082c0,0.027,0,0.058,0,0.084
	c-0.04,2.958,1.39,5.768,3.767,7.059c1.172,0.637,2.382,0.898,3.608,0.964c0.008,0.001,0.016,0.001,0.021,0.001
	c0.604,0.031,1.212,0.014,1.822-0.031c0.506-0.01,1.012-0.021,1.513-0.078c0.594-0.062,1.044-0.11,1.393-0.118
	c0.653,0.113,1.043,0.511,1.115,1.366c0.006,0.177,0.008,0.375,0.01,0.596c-0.09,2.058-0.021,4.119-0.021,6.182
	c0,1.742-0.048,3.488,0,5.228c-0.006,0.188-0.011,0.374-0.018,0.562c-0.051,1.297,0.346,1.896,1.121,2.131
	c0.082,0.038,0.162,0.062,0.233,0.062c0.015,0.002,0.026,0.002,0.04,0.002c0.262,0.047,0.559,0.062,0.889,0.06
	c0.414-0.007,0.829-0.015,1.243-0.021c3.618,0.058,7.238,0.043,10.858,0.02c1.277,0.315,1.311,1.211,0.62,3.391
	c-1.277,4.028,0.001,8.044,3.303,10.368c2.949,2.076,7.354,2.017,10.24-0.143c3.212-2.402,4.393-6.52,3.001-10.461
	c-0.641-1.812-0.562-2.73,0.486-3.124c0.177,0.013,0.363,0.021,0.574,0.022c3.964,0.048,7.932,0.013,11.895,0.078
	c1.04,0.018,1.664-0.233,1.958-0.877c0.272-0.384,0.308-1.047,0.306-2.201c-0.006-3.705-0.048-7.409-0.04-11.111
	c0.001-0.479,0.028-0.867,0.087-1.188c0.283-0.93,1.012-1.008,2.52-0.479c3.243,1.143,6.401,0.645,8.73-1.275
	c0.533-0.379,0.995-0.818,1.357-1.315c0.316-0.437,0.589-0.908,0.822-1.403c0.608-1.229,0.926-2.646,0.951-4.087
	C1271.606,47.754,1271.608,47.67,1271.608,47.584z"/>
<path opacity="0.9" fill="#D2D2D2" enable-background="new    " d="M1219.593,48.432c0.469,8.175,7.478,14.426,15.65,13.959
	c8.182-0.472,14.432-7.479,13.964-15.653c-0.469-8.179-7.479-14.428-15.658-13.96C1225.372,33.246,1219.125,40.254,1219.593,48.432z
	 M1232.758,47.678l-5.857-5.226c-0.479-0.432-0.521-1.159-0.096-1.642c0.433-0.467,1.162-0.51,1.641-0.095l5.856,5.224l5.228-5.858
	c0.428-0.477,1.161-0.505,1.629-0.094c0.482,0.433,0.533,1.16,0.104,1.642l-5.223,5.859l5.855,5.225
	c0.471,0.43,0.513,1.159,0.095,1.643c-0.429,0.479-1.161,0.519-1.642,0.093l-5.859-5.224l-5.227,5.855
	c-0.427,0.479-1.154,0.521-1.639,0.098c-0.478-0.434-0.519-1.162-0.094-1.645L1232.758,47.678z"/>
<rect x="261.77" y="102.642" fill="#E9496E" width="454.051" height="53.887"/>
<rect x="261.77" y="160.272" fill="#E9496E" width="454.051" height="360.971"/>
<rect x="106.42" y="160.272" fill="#E9496E" width="149.895" height="116.373"/>
<rect x="106.42" y="282.571" fill="#E9496E" width="149.895" height="116.373"/>
<rect x="106.42" y="404.87" fill="#E9496E" width="149.895" height="116.373"/>
<g>
	<g enable-background="new    ">
		<path fill="#FFFFFF" d="M311.91,139.122c0.021-2.659,0.032-5.396,0.032-8.214c0-2.825-0.012-5.725-0.032-8.7
			c1.218-0.109,2.34-0.166,3.366-0.166c2.857,0,4.965,0.427,6.319,1.278c1.843,1.168,2.806,3.326,2.891,6.475v0.853
			c0,2.699-0.351,4.625-1.048,5.775c-0.773,1.271-2.188,2.115-4.239,2.533c-1.188,0.245-2.488,0.367-3.906,0.367
			C314.234,139.323,313.106,139.257,311.91,139.122z M315.849,125.594c-0.181,2.596-0.271,5.104-0.271,7.527
			c0,0.916,0.011,1.815,0.032,2.699c0.37,0.063,0.725,0.095,1.062,0.095c0.933,0,1.715-0.24,2.352-0.722
			c0.866-0.647,1.302-2.099,1.302-4.356v-0.047c-0.011-2.271-0.436-3.764-1.271-4.474c-0.646-0.537-1.413-0.805-2.302-0.805
			C316.468,125.51,316.166,125.538,315.849,125.594z"/>
		<path fill="#FFFFFF" d="M330.838,127.416c3.673,0,5.51,1.819,5.51,5.457c0,0.442-0.025,0.916-0.08,1.42h-7.098
			c0,2.028,0.524,3.042,1.572,3.042h0.11c0.922-0.055,1.383-0.58,1.383-1.573c0-0.214-0.021-0.45-0.063-0.71l3.778-0.06
			c0,3.006-1.763,4.529-5.287,4.569c-0.043,0.008-0.079,0.012-0.111,0.012c-3.354,0-5.032-1.898-5.032-5.693v-0.354
			C325.624,129.452,327.397,127.416,330.838,127.416z M328.789,132.115h3.589v-0.284c0-1.436-0.546-2.153-1.636-2.153
			C329.567,129.677,328.916,130.49,328.789,132.115z"/>
		<path fill="#FFFFFF" d="M341.762,131.085l0.159,8.582l-3.891,0.023c0-3.629-0.164-7.705-0.492-12.228l2.922-0.236l0.159,1.929
			c0.444-0.947,1.48-1.487,3.112-1.622c0.242-0.016,0.476-0.022,0.697-0.022c1.28,0,2.255,0.312,2.922,0.935
			c0.772,0.742,1.164,1.921,1.176,3.539l-3.525,0.26c0.011-0.134,0.017-0.264,0.017-0.391c0-1.263-0.438-1.895-1.317-1.895h-0.063
			C342.619,130,341.995,130.375,341.762,131.085z"/>
		<path fill="#FFFFFF" d="M354.751,127.416c3.673,0,5.51,1.819,5.51,5.457c0,0.442-0.025,0.916-0.08,1.42h-7.098
			c0,2.028,0.524,3.042,1.572,3.042h0.11c0.921-0.055,1.383-0.58,1.383-1.573c0-0.214-0.021-0.45-0.063-0.71l3.778-0.06
			c0,3.006-1.764,4.529-5.287,4.569c-0.043,0.008-0.079,0.012-0.111,0.012c-3.354,0-5.033-1.898-5.033-5.693v-0.354
			C349.537,129.452,351.311,127.416,354.751,127.416z M352.702,132.115h3.589v-0.284c0-1.436-0.546-2.153-1.636-2.153
			C353.48,129.677,352.829,130.49,352.702,132.115z"/>
		<path fill="#FFFFFF" d="M367.946,134.696l3.777,0.177c0,2.85-1.763,4.293-5.286,4.332c-0.044,0.008-0.079,0.012-0.111,0.012
			c-3.355,0-5.033-1.897-5.033-5.692v-0.355c0.105-4.071,1.896-6.127,5.367-6.167h0.127c3.196,0,4.795,1.365,4.795,4.097
			c0,0.157-0.006,0.314-0.016,0.473l-3.414,0.189v-0.284c0-1.437-0.546-2.154-1.636-2.154c-1.111,0-1.668,1.164-1.668,3.492v0.391
			c0.063,2.519,0.624,3.776,1.684,3.776h0.096c0.921-0.055,1.382-0.58,1.382-1.574C368.01,135.193,367.988,134.956,367.946,134.696z
			"/>
		<path fill="#FFFFFF" d="M376.821,122.611l0.159,6.664c0.443-1.025,1.48-1.546,3.111-1.562h0.047c1.609,0,2.753,0.544,3.431,1.634
			c0.466,0.741,0.698,2.478,0.698,5.208c0,1.341-0.059,2.928-0.175,4.758h-4.001c0.138-2.438,0.206-4.328,0.206-5.67
			c0-0.67-0.016-1.207-0.048-1.609c-0.105-1.184-0.561-1.776-1.365-1.776c-0.804,0-1.323,0.316-1.557,0.947l0.159,8.581
			l-3.892,0.024c0-3.63-0.217-9.323-0.649-17.08L376.821,122.611z"/>
		<path fill="#FFFFFF" d="M391.191,127.416c3.599,0,5.397,1.862,5.397,5.586c0,0.15-0.006,0.301-0.016,0.45
			c-0.148,4.033-2.064,6.068-5.748,6.108c-0.043,0.008-0.085,0.012-0.127,0.012c-3.504,0-5.256-1.906-5.256-5.717v-0.332
			C385.549,129.452,387.465,127.416,391.191,127.416z M390.667,130.115c-0.667,0.173-1.122,0.816-1.365,1.929
			c-0.147,0.663-0.223,1.33-0.223,2c0,0.45,0.032,0.903,0.096,1.361c0.169,1.136,0.714,1.724,1.636,1.764h0.11
			c0.857,0,1.445-0.422,1.763-1.267c0.266-0.702,0.397-1.535,0.397-2.497c0-0.237-0.006-0.478-0.017-0.722
			c-0.085-1.271-0.34-2.063-0.763-2.379c-0.265-0.189-0.582-0.284-0.953-0.284C391.138,130.02,390.91,130.052,390.667,130.115z"/>
		<path fill="#FFFFFF" d="M407.848,138.66l-3.953,0.272c0-5.792-0.127-11.229-0.382-16.312l4.525-0.284
			C407.922,127.696,407.858,133.137,407.848,138.66z"/>
		<path fill="#FFFFFF" d="M412.357,127.108l0.158,1.93c0.444-1.025,1.614-1.547,3.51-1.562h0.062c1.863,0,3.134,0.544,3.812,1.633
			c0.466,0.742,0.698,2.478,0.698,5.208c0,1.342-0.059,2.928-0.175,4.758h-3.843c0.138-2.438,0.207-4.328,0.207-5.669
			c0-0.671-0.017-1.208-0.048-1.61c-0.106-1.184-0.614-1.774-1.524-1.774c-0.911,0-1.481,0.314-1.715,0.947l0.158,8.58l-3.731,0.024
			c0-3.63-0.164-7.706-0.492-12.227L412.357,127.108z"/>
		<path fill="#FFFFFF" d="M424.568,123.64l3.604-0.179v3.918l3.032-0.059l0.048,2.237l-3.08,0.105v5.386
			c0,1.255,0.714,1.883,2.145,1.883c0.296,0,0.618-0.027,0.968-0.083l-0.144,2.604c-0.508,0.047-0.989,0.071-1.443,0.071
			c-3.347,0-5.05-1.286-5.113-3.859v-5.788l-2.604,0.118l-0.063-2.64l2.668,0.023L424.568,123.64z"/>
		<path fill="#FFFFFF" d="M437.731,127.416c3.673,0,5.51,1.819,5.51,5.457c0,0.442-0.026,0.916-0.08,1.42h-7.098
			c0,2.028,0.523,3.042,1.571,3.042h0.111c0.921-0.055,1.382-0.58,1.382-1.573c0-0.214-0.021-0.45-0.062-0.71l3.777-0.06
			c0,3.006-1.763,4.529-5.287,4.569c-0.043,0.008-0.079,0.012-0.11,0.012c-3.355,0-5.033-1.898-5.033-5.693v-0.354
			C432.518,129.452,434.291,127.416,437.731,127.416z M435.683,132.115h3.59v-0.284c0-1.436-0.547-2.153-1.637-2.153
			C436.461,129.677,435.81,130.49,435.683,132.115z"/>
		<path fill="#FFFFFF" d="M448.655,131.085l0.159,8.582l-3.892,0.023c0-3.629-0.164-7.705-0.492-12.228l2.922-0.236l0.159,1.929
			c0.444-0.947,1.481-1.487,3.112-1.622c0.243-0.016,0.476-0.022,0.698-0.022c1.279,0,2.255,0.312,2.922,0.935
			c0.771,0.742,1.164,1.921,1.175,3.539l-3.525,0.26c0.012-0.134,0.018-0.264,0.018-0.391c0-1.263-0.439-1.895-1.318-1.895h-0.062
			C449.513,130,448.889,130.375,448.655,131.085z"/>
		<path fill="#FFFFFF" d="M459.405,127.108l0.159,1.93c0.443-1.025,1.613-1.547,3.509-1.562h0.062c1.863,0,3.134,0.544,3.812,1.633
			c0.466,0.742,0.698,2.478,0.698,5.208c0,1.342-0.059,2.928-0.175,4.758h-3.843c0.138-2.438,0.207-4.328,0.207-5.669
			c0-0.671-0.017-1.208-0.048-1.61c-0.106-1.184-0.614-1.774-1.524-1.774c-0.911,0-1.481,0.314-1.715,0.947l0.158,8.58l-3.731,0.024
			c0-3.63-0.163-7.706-0.491-12.227L459.405,127.108z"/>
		<path fill="#FFFFFF" d="M475.109,127.073c3.481,0.142,5.224,1.448,5.224,3.917v8.404l-3.699,0.047l-0.127-1.125
			c-0.763,0.646-1.772,0.971-3.033,0.971c-0.54,0-1.122-0.062-1.746-0.188c-1.873-0.348-2.811-1.429-2.811-3.243
			c0-0.221,0.016-0.458,0.047-0.71c0.212-1.87,1.995-2.806,5.353-2.806c0.646,0,1.354,0.036,2.128,0.106v-1.373
			c0-1.113-0.473-1.669-1.413-1.669h-0.064c-0.073-0.008-0.143-0.012-0.206-0.012c-1.025,0-1.54,0.624-1.54,1.87v0.178l-3.778-0.237
			c0-2.754,1.777-4.131,5.335-4.131L475.109,127.073L475.109,127.073z M476.443,136.424v-2.083c-0.456-0.07-0.868-0.106-1.239-0.106
			c-0.963,0-1.619,0.241-1.969,0.722c-0.212,0.292-0.317,0.564-0.317,0.817c0,0.314,0.169,0.596,0.508,0.84
			c0.266,0.189,0.609,0.284,1.032,0.284C474.998,136.897,475.659,136.739,476.443,136.424z"/>
		<path fill="#FFFFFF" d="M488.099,134.696l3.778,0.177c0,2.85-1.763,4.293-5.287,4.332c-0.043,0.008-0.079,0.012-0.11,0.012
			c-3.355,0-5.033-1.897-5.033-5.692v-0.355c0.104-4.071,1.895-6.127,5.367-6.167h0.127c3.195,0,4.795,1.365,4.795,4.097
			c0,0.157-0.006,0.314-0.017,0.473l-3.414,0.189v-0.284c0-1.437-0.546-2.154-1.636-2.154c-1.111,0-1.667,1.164-1.667,3.492v0.391
			c0.063,2.519,0.624,3.776,1.684,3.776h0.096c0.921-0.055,1.382-0.58,1.382-1.574C488.162,135.193,488.141,134.956,488.099,134.696
			z"/>
		<path fill="#FFFFFF" d="M497.641,124.694c0,0.48-0.228,0.892-0.683,1.23c-0.455,0.34-1.006,0.51-1.651,0.51
			c-0.635,0-1.181-0.17-1.636-0.51c-0.455-0.339-0.683-0.75-0.683-1.23c0-0.473,0.228-0.879,0.683-1.219
			c0.455-0.339,1.001-0.51,1.636-0.51c0.646,0,1.196,0.171,1.651,0.51S497.641,124.22,497.641,124.694z M493.385,139.631
			c-0.073-4.615-0.109-8.604-0.109-11.966l4.001-0.178c-0.127,3.22-0.19,6.419-0.19,9.599c0,0.854,0.005,1.701,0.016,2.545H493.385z
			"/>
		<path fill="#FFFFFF" d="M504.104,127.416c3.599,0,5.397,1.862,5.397,5.586c0,0.15-0.006,0.301-0.016,0.45
			c-0.148,4.033-2.064,6.068-5.748,6.108c-0.043,0.008-0.085,0.012-0.127,0.012c-3.504,0-5.256-1.906-5.256-5.717v-0.332
			C498.461,129.452,500.377,127.416,504.104,127.416z M503.579,130.115c-0.667,0.173-1.122,0.816-1.365,1.929
			c-0.147,0.663-0.223,1.33-0.223,2c0,0.45,0.032,0.903,0.096,1.361c0.169,1.136,0.714,1.724,1.636,1.764h0.11
			c0.857,0,1.445-0.422,1.763-1.267c0.266-0.702,0.397-1.535,0.397-2.497c0-0.237-0.006-0.478-0.018-0.722
			c-0.085-1.271-0.339-2.063-0.762-2.379c-0.265-0.189-0.582-0.284-0.953-0.284C504.05,130.02,503.822,130.052,503.579,130.115z"/>
		<path fill="#FFFFFF" d="M513.297,127.108l0.159,1.93c0.444-1.025,1.614-1.547,3.509-1.562h0.063c1.862,0,3.134,0.544,3.811,1.633
			c0.466,0.742,0.699,2.478,0.699,5.208c0,1.342-0.06,2.928-0.175,4.758h-3.844c0.139-2.438,0.207-4.328,0.207-5.669
			c0-0.671-0.017-1.208-0.048-1.61c-0.105-1.184-0.614-1.774-1.523-1.774c-0.911,0-1.482,0.314-1.716,0.947l0.158,8.58l-3.73,0.024
			c0-3.63-0.164-7.706-0.492-12.227L513.297,127.108z"/>
		<path fill="#FFFFFF" d="M529.001,127.073c3.482,0.142,5.224,1.448,5.224,3.917v8.404l-3.698,0.047l-0.127-1.125
			c-0.764,0.646-1.773,0.971-3.033,0.971c-0.54,0-1.122-0.062-1.746-0.188c-1.874-0.348-2.812-1.429-2.812-3.243
			c0-0.221,0.017-0.458,0.048-0.71c0.212-1.87,1.994-2.806,5.352-2.806c0.646,0,1.354,0.036,2.128,0.106v-1.373
			c0-1.113-0.472-1.669-1.413-1.669h-0.063c-0.073-0.008-0.144-0.012-0.206-0.012c-1.026,0-1.54,0.624-1.54,1.87v0.178l-3.779-0.237
			c0-2.754,1.778-4.131,5.335-4.131L529.001,127.073L529.001,127.073z M530.335,136.424v-2.083c-0.456-0.07-0.868-0.106-1.239-0.106
			c-0.963,0-1.619,0.241-1.969,0.722c-0.212,0.292-0.317,0.564-0.317,0.817c0,0.314,0.17,0.596,0.509,0.84
			c0.265,0.189,0.608,0.284,1.031,0.284C528.89,136.897,529.551,136.739,530.335,136.424z"/>
		<path fill="#FFFFFF" d="M539.956,139.371l-3.953,0.272c0.042-2.611,0.063-5.125,0.063-7.54c0-3.394-0.044-6.593-0.128-9.6
			l3.891-0.047c-0.042,1.934-0.063,3.917-0.063,5.954C539.766,131.922,539.829,135.575,539.956,139.371z"/>
		<path fill="#FFFFFF" d="M560.201,122.599c-0.127,5.311-0.249,11.03-0.365,17.163h-3.604v-6.901h-4.525v6.344l-4.335-0.012
			c0.128-2.896,0.19-5.729,0.19-8.499c0-2.762-0.062-5.46-0.19-8.096h4.145l-0.175,6.899l4.525,0.143v-7.327L560.201,122.599z"/>
		<path fill="#FFFFFF" d="M569.84,139.572l-0.159-1.929c-0.443,1.025-1.641,1.542-3.588,1.55c-0.021,0.008-0.037,0.012-0.048,0.012
			c-1.927,0-3.202-0.646-3.826-1.94c-0.424-0.86-0.636-2.641-0.636-5.338c0-1.39,0.059-3.026,0.175-4.912h3.858
			c-0.212,2.65-0.317,4.69-0.317,6.12c0,0.718,0.026,1.277,0.079,1.681c0.159,1.23,0.693,1.847,1.604,1.847
			c0.91,0,1.481-0.32,1.715-0.959l-0.158-8.214l3.731-0.023c0,3.394,0.163,7.347,0.491,11.86L569.84,139.572z"/>
		<path fill="#FFFFFF" d="M576.636,127.168l0.063,1.895c0.571-0.907,1.232-1.473,1.984-1.692c0.444-0.126,0.896-0.188,1.351-0.188
			c0.338,0,0.677,0.031,1.016,0.095c0.826,0.158,1.413,0.789,1.763,1.894c0.275-0.859,0.753-1.434,1.43-1.722
			c0.678-0.288,1.43-0.436,2.255-0.444h0.062c0.806,0,1.577,0.146,2.318,0.438c0.752,0.3,1.326,0.862,1.723,1.687
			c0.397,0.825,0.606,1.955,0.628,3.392v6.877l-3.43,0.06c0.137-2.596,0.206-4.806,0.206-6.628s-0.466-2.805-1.396-2.947
			c-0.139-0.016-0.271-0.023-0.396-0.023c-0.741,0-1.312,0.354-1.715,1.064c-0.063,0.821-0.096,1.779-0.096,2.876
			c0,1.492,0.059,3.231,0.175,5.221l-3.97,0.022c0.147-3.054,0.223-5.278,0.223-6.676v-0.142c-0.011-1.38-0.376-2.106-1.096-2.179
			h-0.207c-0.646,0-1.271,0.276-1.873,0.829l0.03,8.664l-3.747,0.106v-1.941c0-3.439-0.068-6.877-0.205-10.31L576.636,127.168z"/>
		<path fill="#FFFFFF" d="M598.326,127.073c3.481,0.142,5.224,1.448,5.224,3.917v8.404l-3.699,0.047l-0.127-1.125
			c-0.763,0.646-1.772,0.971-3.032,0.971c-0.54,0-1.122-0.062-1.746-0.188c-1.874-0.348-2.812-1.429-2.812-3.243
			c0-0.221,0.017-0.458,0.047-0.71c0.212-1.87,1.995-2.806,5.353-2.806c0.646,0,1.354,0.036,2.128,0.106v-1.373
			c0-1.113-0.472-1.669-1.413-1.669h-0.064c-0.072-0.008-0.143-0.012-0.206-0.012c-1.025,0-1.539,0.624-1.539,1.87v0.178
			l-3.779-0.237c0-2.754,1.777-4.131,5.335-4.131L598.326,127.073L598.326,127.073z M599.66,136.424v-2.083
			c-0.456-0.07-0.868-0.106-1.239-0.106c-0.963,0-1.619,0.241-1.969,0.722c-0.212,0.292-0.317,0.564-0.317,0.817
			c0,0.314,0.169,0.596,0.508,0.84c0.266,0.189,0.609,0.284,1.032,0.284C598.215,136.897,598.876,136.739,599.66,136.424z"/>
		<path fill="#FFFFFF" d="M607.741,127.108l0.159,1.93c0.443-1.025,1.613-1.547,3.509-1.562h0.062c1.863,0,3.135,0.544,3.812,1.633
			c0.466,0.742,0.698,2.478,0.698,5.208c0,1.342-0.059,2.928-0.175,4.758h-3.843c0.138-2.438,0.207-4.328,0.207-5.669
			c0-0.671-0.017-1.208-0.048-1.61c-0.106-1.184-0.614-1.774-1.524-1.774c-0.911,0-1.481,0.314-1.715,0.947l0.158,8.58l-3.731,0.024
			c0-3.63-0.164-7.706-0.491-12.227L607.741,127.108z"/>
		<path fill="#FFFFFF" d="M621.746,124.694c0,0.48-0.229,0.892-0.683,1.23c-0.455,0.34-1.007,0.51-1.651,0.51
			c-0.635,0-1.181-0.17-1.636-0.51c-0.455-0.339-0.684-0.75-0.684-1.23c0-0.473,0.229-0.879,0.684-1.219
			c0.455-0.339,1.001-0.51,1.636-0.51c0.646,0,1.196,0.171,1.651,0.51S621.746,124.22,621.746,124.694z M617.49,139.631
			c-0.073-4.615-0.11-8.604-0.11-11.966l4.001-0.178c-0.127,3.22-0.189,6.419-0.189,9.599c0,0.854,0.005,1.701,0.016,2.545H617.49z"
			/>
		<path fill="#FFFFFF" d="M625.271,123.64l3.604-0.179v3.918l3.032-0.059l0.048,2.237l-3.08,0.105v5.386
			c0,1.255,0.714,1.883,2.144,1.883c0.297,0,0.619-0.027,0.969-0.083l-0.144,2.604c-0.508,0.047-0.99,0.071-1.443,0.071
			c-3.347,0-5.051-1.286-5.113-3.859v-5.788l-2.604,0.118l-0.062-2.64l2.668,0.023L625.271,123.64z"/>
		<path fill="#FFFFFF" d="M639.419,127.073c3.482,0.142,5.224,1.448,5.224,3.917v8.404l-3.698,0.047l-0.127-1.125
			c-0.764,0.646-1.773,0.971-3.033,0.971c-0.54,0-1.122-0.062-1.746-0.188c-1.874-0.348-2.811-1.429-2.811-3.243
			c0-0.221,0.016-0.458,0.047-0.71c0.212-1.87,1.994-2.806,5.352-2.806c0.646,0,1.354,0.036,2.128,0.106v-1.373
			c0-1.113-0.472-1.669-1.413-1.669h-0.063c-0.073-0.008-0.144-0.012-0.206-0.012c-1.026,0-1.54,0.624-1.54,1.87v0.178l-3.779-0.237
			c0-2.754,1.778-4.131,5.335-4.131L639.419,127.073L639.419,127.073z M640.753,136.424v-2.083c-0.456-0.07-0.868-0.106-1.239-0.106
			c-0.963,0-1.619,0.241-1.969,0.722c-0.212,0.292-0.317,0.564-0.317,0.817c0,0.314,0.17,0.596,0.509,0.84
			c0.265,0.189,0.608,0.284,1.031,0.284C639.308,136.897,639.969,136.739,640.753,136.424z"/>
		<path fill="#FFFFFF" d="M650.137,131.085l0.159,8.582l-3.891,0.023c0-3.629-0.164-7.705-0.492-12.228l2.922-0.236l0.159,1.929
			c0.444-0.947,1.48-1.487,3.112-1.622c0.242-0.016,0.476-0.022,0.697-0.022c1.28,0,2.255,0.312,2.922,0.935
			c0.772,0.742,1.164,1.921,1.176,3.539l-3.525,0.26c0.011-0.134,0.017-0.264,0.017-0.391c0-1.263-0.438-1.895-1.317-1.895h-0.063
			C650.994,130,650.37,130.375,650.137,131.085z"/>
		<path fill="#FFFFFF" d="M662.411,124.694c0,0.48-0.229,0.892-0.684,1.23c-0.454,0.34-1.006,0.51-1.65,0.51
			c-0.635,0-1.182-0.17-1.636-0.51c-0.455-0.339-0.684-0.75-0.684-1.23c0-0.473,0.229-0.879,0.684-1.219
			c0.455-0.339,1.001-0.51,1.636-0.51c0.646,0,1.196,0.171,1.65,0.51C662.184,123.814,662.411,124.22,662.411,124.694z
			 M658.155,139.631c-0.073-4.615-0.11-8.604-0.11-11.966l4.001-0.178c-0.127,3.22-0.189,6.419-0.189,9.599
			c0,0.854,0.005,1.701,0.016,2.545H658.155z"/>
		<path fill="#FFFFFF" d="M668.874,127.416c3.599,0,5.398,1.862,5.398,5.586c0,0.15-0.007,0.301-0.017,0.45
			c-0.147,4.033-2.063,6.068-5.748,6.108c-0.043,0.008-0.085,0.012-0.127,0.012c-3.504,0-5.256-1.906-5.256-5.717v-0.332
			C663.231,129.452,665.147,127.416,668.874,127.416z M668.35,130.115c-0.667,0.173-1.122,0.816-1.364,1.929
			c-0.148,0.663-0.224,1.33-0.224,2c0,0.45,0.032,0.903,0.097,1.361c0.169,1.136,0.714,1.724,1.636,1.764h0.109
			c0.857,0,1.445-0.422,1.764-1.267c0.265-0.702,0.396-1.535,0.396-2.497c0-0.237-0.006-0.478-0.017-0.722
			c-0.085-1.271-0.339-2.063-0.762-2.379c-0.266-0.189-0.582-0.284-0.953-0.284C668.82,130.02,668.593,130.052,668.35,130.115z"/>
	</g>
</g>
<g enable-background="new    ">
	<path fill="#FFFFFF" d="M126.562,232.424c0.063-2.074,0.095-4.197,0.095-6.367c0-3.33-0.074-6.778-0.222-10.346
		c1.81-0.188,3.408-0.283,4.795-0.283c2.18,0,3.821,0.236,4.922,0.71c1.704,0.733,2.556,2.236,2.556,4.51v0.391
		c-0.106,2.494-0.863,4.089-2.271,4.788s-3.144,1.071-5.208,1.119c-0.011,0.245-0.016,0.497-0.016,0.758
		c0,1.311,0.09,2.86,0.27,4.651L126.562,232.424z M130.627,218.457l0.111,5.788c1.969-0.079,3.123-0.604,3.461-1.574
		c0.159-0.441,0.238-0.896,0.238-1.36c0-0.544-0.106-1.105-0.318-1.682c-0.317-0.844-1.111-1.266-2.382-1.266
		C131.399,218.363,131.029,218.394,130.627,218.457z"/>
	<path fill="#FFFFFF" d="M144.489,224.292l0.159,8.582l-3.89,0.023c0-3.629-0.165-7.705-0.492-12.228l2.921-0.236l0.159,1.929
		c0.445-0.947,1.482-1.487,3.112-1.622c0.244-0.016,0.477-0.023,0.699-0.023c1.281,0,2.255,0.312,2.922,0.936
		c0.772,0.742,1.164,1.921,1.175,3.539l-3.525,0.26c0.01-0.134,0.016-0.264,0.016-0.391c0-1.263-0.439-1.895-1.318-1.895h-0.063
		C145.346,223.207,144.721,223.582,144.489,224.292z"/>
	<path fill="#FFFFFF" d="M157.477,220.623c3.673,0,5.51,1.819,5.51,5.457c0,0.442-0.027,0.916-0.08,1.42h-7.098
		c0,2.028,0.524,3.042,1.572,3.042h0.111c0.921-0.055,1.381-0.58,1.381-1.573c0-0.214-0.021-0.45-0.063-0.711l3.779-0.059
		c0,3.006-1.763,4.529-5.288,4.569c-0.042,0.008-0.08,0.012-0.111,0.012c-3.356,0-5.033-1.898-5.033-5.693v-0.354
		C152.264,222.659,154.037,220.623,157.477,220.623z M155.429,225.322h3.589v-0.284c0-1.436-0.545-2.154-1.636-2.154
		C156.207,222.884,155.556,223.697,155.429,225.322z"/>
	<path fill="#FFFFFF" d="M167.131,232.471c-1.333-4.569-2.53-8.491-3.588-11.767l3.858-0.154l1.953,8.605
		c1.016-3.219,1.826-6.155,2.429-8.806l3.795,0.354c-1.196,3.308-2.588,7.212-4.176,11.718L167.131,232.471z"/>
	<path fill="#FFFFFF" d="M181.327,220.623c3.673,0,5.51,1.819,5.51,5.457c0,0.442-0.027,0.916-0.08,1.42h-7.098
		c0,2.028,0.524,3.042,1.572,3.042h0.111c0.921-0.055,1.381-0.58,1.381-1.573c0-0.214-0.021-0.45-0.063-0.711l3.779-0.059
		c0,3.006-1.763,4.529-5.288,4.569c-0.042,0.008-0.08,0.012-0.111,0.012c-3.356,0-5.033-1.898-5.033-5.693v-0.354
		C176.113,222.659,177.886,220.623,181.327,220.623z M179.278,225.322h3.589v-0.284c0-1.436-0.545-2.154-1.636-2.154
		C180.057,222.884,179.406,223.697,179.278,225.322z"/>
	<path fill="#FFFFFF" d="M190.949,220.315l0.159,1.93c0.445-1.025,1.614-1.547,3.509-1.562h0.063c1.863,0,3.133,0.544,3.811,1.633
		c0.466,0.742,0.699,2.478,0.699,5.208c0,1.342-0.059,2.928-0.175,4.758h-3.843c0.138-2.438,0.207-4.328,0.207-5.669
		c0-0.671-0.016-1.208-0.047-1.61c-0.106-1.184-0.614-1.774-1.524-1.774c-0.911,0-1.482,0.314-1.715,0.946l0.159,8.581l-3.731,0.024
		c0-3.63-0.165-7.706-0.492-12.227L190.949,220.315z"/>
	<path fill="#FFFFFF" d="M207.002,227.903l3.779,0.177c0,2.85-1.763,4.293-5.288,4.332c-0.042,0.008-0.08,0.012-0.111,0.012
		c-3.356,0-5.033-1.897-5.033-5.692v-0.355c0.105-4.071,1.895-6.127,5.367-6.167h0.127c3.197,0,4.795,1.365,4.795,4.097
		c0,0.157-0.005,0.314-0.016,0.473l-3.414,0.188v-0.283c0-1.437-0.545-2.154-1.636-2.154c-1.111,0-1.667,1.164-1.667,3.492v0.391
		c0.063,2.519,0.625,3.776,1.683,3.776h0.095c0.921-0.056,1.381-0.58,1.381-1.574C207.065,228.4,207.044,228.163,207.002,227.903z"
		/>
	<path fill="#FFFFFF" d="M216.545,217.901c0,0.48-0.228,0.892-0.683,1.23c-0.456,0.34-1.006,0.51-1.651,0.51
		c-0.635,0-1.181-0.17-1.636-0.51c-0.455-0.339-0.683-0.75-0.683-1.23c0-0.473,0.228-0.879,0.683-1.219
		c0.455-0.339,1-0.51,1.636-0.51c0.646,0,1.196,0.171,1.651,0.51C216.317,217.021,216.545,217.427,216.545,217.901z M212.29,232.838
		c-0.074-4.615-0.111-8.604-0.111-11.966l4.001-0.178c-0.127,3.22-0.19,6.419-0.19,9.599c0,0.854,0.005,1.701,0.016,2.545H212.29z"
		/>
	<path fill="#FFFFFF" d="M223.007,220.623c3.599,0,5.399,1.862,5.399,5.586c0,0.15-0.005,0.3-0.016,0.45
		c-0.148,4.033-2.064,6.068-5.748,6.108c-0.042,0.008-0.085,0.012-0.127,0.012c-3.504,0-5.255-1.906-5.255-5.717v-0.332
		C217.365,222.659,219.281,220.623,223.007,220.623z M222.483,223.322c-0.667,0.173-1.122,0.816-1.365,1.929
		c-0.148,0.663-0.223,1.33-0.223,2c0,0.45,0.032,0.903,0.096,1.361c0.169,1.136,0.714,1.724,1.635,1.764h0.111
		c0.857,0,1.445-0.422,1.762-1.267c0.265-0.702,0.397-1.535,0.397-2.497c0-0.237-0.005-0.478-0.016-0.722
		c-0.085-1.271-0.339-2.063-0.762-2.379c-0.265-0.189-0.583-0.284-0.953-0.284C222.955,223.227,222.727,223.259,222.483,223.322z
		 M220.943,218.315c1.238-1.097,2.255-2.144,3.049-3.137l2.604,1.538c-1.122,0.821-2.372,1.827-3.748,3.02L220.943,218.315z"/>
	<path fill="#FFFFFF" d="M232.201,220.315l0.159,1.93c0.445-1.025,1.614-1.547,3.509-1.562h0.063c1.863,0,3.133,0.544,3.811,1.633
		c0.466,0.742,0.699,2.478,0.699,5.208c0,1.342-0.059,2.928-0.175,4.758h-3.843c0.138-2.438,0.207-4.328,0.207-5.669
		c0-0.671-0.016-1.208-0.047-1.61c-0.106-1.184-0.614-1.774-1.524-1.774c-0.911,0-1.482,0.314-1.715,0.946l0.159,8.581l-3.731,0.024
		c0-3.63-0.165-7.706-0.492-12.227L232.201,220.315z"/>
</g>
<g enable-background="new    ">
	<path fill="#FFFFFF" d="M154.931,333.892l-3.525,0.012v-0.319c0-1.854-0.699-2.78-2.096-2.78c-1.493,0-2.239,1.712-2.239,5.137
		c0,3.857,0.783,5.788,2.35,5.788h0.016c1.566-0.008,2.35-0.955,2.35-2.841v-1.173h3.938v0.889c0,3.93-2.165,5.984-6.494,6.167
		c-0.127,0.008-0.254,0.012-0.381,0.012c-4.076,0-6.113-2.919-6.113-8.759c0-5.713,2.096-8.569,6.288-8.569
		c3.949,0,5.923,1.909,5.923,5.729C154.946,333.412,154.941,333.648,154.931,333.892z"/>
	<path fill="#FFFFFF" d="M162.25,332.72c3.599,0,5.399,1.862,5.399,5.587c0,0.148-0.005,0.3-0.016,0.449
		c-0.148,4.032-2.064,6.068-5.748,6.107c-0.042,0.008-0.085,0.012-0.127,0.012c-3.504,0-5.255-1.905-5.255-5.717v-0.332
		C156.608,334.757,158.524,332.72,162.25,332.72z M161.726,335.42c-0.667,0.175-1.122,0.816-1.365,1.931
		c-0.148,0.662-0.223,1.329-0.223,2c0,0.448,0.032,0.902,0.096,1.36c0.169,1.137,0.714,1.725,1.635,1.765h0.111
		c0.857,0,1.445-0.422,1.762-1.269c0.265-0.701,0.397-1.534,0.397-2.496c0-0.236-0.005-0.479-0.016-0.723
		c-0.085-1.271-0.339-2.063-0.762-2.379c-0.265-0.189-0.583-0.284-0.953-0.284C162.197,335.325,161.97,335.356,161.726,335.42z"/>
	<path fill="#FFFFFF" d="M171.444,332.413l0.159,1.93c0.445-1.025,1.614-1.547,3.509-1.562h0.063c1.863,0,3.133,0.544,3.811,1.634
		c0.466,0.741,0.699,2.479,0.699,5.207c0,1.342-0.059,2.928-0.175,4.759h-3.843c0.138-2.438,0.207-4.327,0.207-5.669
		c0-0.672-0.016-1.208-0.047-1.609c-0.106-1.185-0.614-1.775-1.524-1.775c-0.911,0-1.482,0.315-1.715,0.946l0.159,8.582
		l-3.731,0.022c0-3.63-0.165-7.705-0.492-12.227L171.444,332.413z"/>
	<path fill="#FFFFFF" d="M183.654,328.945l3.604-0.178v3.918l3.033-0.06l0.048,2.236l-3.081,0.105v5.387
		c0,1.254,0.715,1.882,2.144,1.882c0.296,0,0.62-0.027,0.969-0.083l-0.143,2.604c-0.508,0.049-0.99,0.071-1.445,0.071
		c-3.345,0-5.049-1.287-5.113-3.859v-5.786l-2.604,0.116l-0.063-2.639l2.667,0.023L183.654,328.945z"/>
	<path fill="#FFFFFF" d="M195.881,336.39l0.159,8.581l-3.89,0.022c0-3.63-0.165-7.705-0.492-12.227l2.921-0.237l0.159,1.93
		c0.445-0.946,1.482-1.486,3.112-1.621c0.244-0.016,0.477-0.022,0.699-0.022c1.281,0,2.255,0.311,2.922,0.935
		c0.772,0.741,1.164,1.921,1.175,3.539l-3.525,0.261c0.01-0.135,0.016-0.265,0.016-0.391c0-1.263-0.439-1.895-1.318-1.895h-0.063
		C196.738,335.304,196.113,335.679,195.881,336.39z"/>
	<path fill="#FFFFFF" d="M209.298,332.72c3.599,0,5.399,1.862,5.399,5.587c0,0.148-0.005,0.3-0.016,0.449
		c-0.148,4.032-2.064,6.068-5.748,6.107c-0.042,0.008-0.085,0.012-0.127,0.012c-3.504,0-5.255-1.905-5.255-5.717v-0.332
		C203.656,334.757,205.572,332.72,209.298,332.72z M208.774,335.42c-0.667,0.175-1.122,0.816-1.365,1.931
		c-0.148,0.662-0.223,1.329-0.223,2c0,0.448,0.032,0.902,0.096,1.36c0.169,1.137,0.714,1.725,1.635,1.765h0.111
		c0.857,0,1.445-0.422,1.762-1.269c0.265-0.701,0.397-1.534,0.397-2.496c0-0.236-0.005-0.479-0.016-0.723
		c-0.085-1.271-0.339-2.063-0.762-2.379c-0.265-0.189-0.583-0.284-0.953-0.284C209.245,335.325,209.018,335.356,208.774,335.42z"/>
	<path fill="#FFFFFF" d="M220.032,344.676l-3.954,0.271c0.042-2.611,0.063-5.125,0.063-7.539c0-3.393-0.042-6.593-0.127-9.6
		l3.89-0.047c-0.042,1.934-0.063,3.918-0.063,5.952C219.841,337.226,219.905,340.881,220.032,344.676z"/>
</g>
<g enable-background="new    ">
	<path fill="#FFFFFF" d="M132.199,471.759c0.063-2.257,0.095-4.529,0.095-6.817c0-3.504-0.074-7.043-0.222-10.617
		c1.641-0.126,3.112-0.188,4.414-0.188c3.621,0,5.928,0.493,6.923,1.479c0.931,0.923,1.397,1.941,1.397,3.055
		c0,0.505-0.09,1.025-0.27,1.562c-0.614,1.736-1.905,2.837-3.874,3.303c1.376,0.143,2.418,0.694,3.128,1.656
		c0.677,0.932,1.016,3.275,1.016,7.031v0.509l-4.795,0.048c0.053-0.994,0.08-1.886,0.08-2.676c0-2.391-0.259-3.854-0.778-4.391
		c-0.593-0.601-1.297-0.899-2.112-0.899c-0.159,0-0.323,0.012-0.493,0.035c0.064,2.407,0.201,4.688,0.413,6.842L132.199,471.759z
		 M136.264,457.081l0.111,5.066c1.969-0.071,3.218-0.568,3.747-1.492c0.286-0.489,0.429-0.966,0.429-1.432
		c0-0.402-0.106-0.797-0.317-1.185c-0.381-0.671-1.329-1.006-2.842-1.006C137.042,457.034,136.666,457.051,136.264,457.081z"/>
	<path fill="#FFFFFF" d="M151.316,459.767c3.673,0,5.51,1.819,5.51,5.457c0,0.44-0.027,0.915-0.08,1.42h-7.098
		c0,2.028,0.524,3.042,1.572,3.042h0.111c0.921-0.055,1.381-0.58,1.381-1.574c0-0.213-0.021-0.449-0.063-0.71l3.779-0.06
		c0,3.007-1.763,4.529-5.288,4.568c-0.042,0.009-0.08,0.013-0.111,0.013c-3.356,0-5.033-1.897-5.033-5.693v-0.355
		C146.103,461.803,147.876,459.767,151.316,459.767z M149.268,464.468h3.589v-0.284c0-1.437-0.545-2.154-1.636-2.154
		C150.046,462.028,149.396,462.843,149.268,464.468z"/>
	<path fill="#FFFFFF" d="M158.112,476.646c0.063-2.659,0.095-5.488,0.095-8.486c0-2.729-0.026-5.595-0.08-8.594l3.763-0.012
		l0.127,1.823c0.783-0.885,1.826-1.326,3.128-1.326c3.25,0,4.875,1.914,4.875,5.741v0.235c-0.074,3.835-1.694,5.753-4.859,5.753
		c-0.127,0-0.254-0.004-0.381-0.013c-1.08-0.039-1.953-0.478-2.62-1.313c0,1.752,0.058,3.815,0.175,6.19L158.112,476.646
		L158.112,476.646z M162.082,463.803l0.079,4.451c0.614,0.623,1.233,0.935,1.858,0.935c0.254,0,0.508-0.055,0.762-0.166
		c0.772-0.314,1.159-1.258,1.159-2.828c0-0.188-0.005-0.387-0.016-0.592c-0.106-1.926-0.619-2.939-1.54-3.042
		c-0.095-0.008-0.186-0.012-0.27-0.012C163.31,462.551,162.632,462.969,162.082,463.803z"/>
	<path fill="#FFFFFF" d="M175.5,463.437l0.159,8.581l-3.89,0.022c0-3.63-0.165-7.704-0.492-12.227l2.921-0.237l0.159,1.931
		c0.445-0.947,1.482-1.487,3.112-1.621c0.244-0.018,0.477-0.024,0.699-0.024c1.281,0,2.255,0.312,2.922,0.937
		c0.772,0.74,1.164,1.921,1.175,3.539l-3.525,0.26c0.01-0.134,0.016-0.264,0.016-0.391c0-1.263-0.439-1.895-1.318-1.895h-0.063
		C176.357,462.352,175.732,462.726,175.5,463.437z"/>
	<path fill="#FFFFFF" d="M188.488,459.767c3.673,0,5.51,1.819,5.51,5.457c0,0.44-0.027,0.915-0.08,1.42h-7.098
		c0,2.028,0.524,3.042,1.572,3.042h0.111c0.921-0.055,1.381-0.58,1.381-1.574c0-0.213-0.021-0.449-0.063-0.71l3.779-0.06
		c0,3.007-1.763,4.529-5.288,4.568c-0.042,0.009-0.08,0.013-0.111,0.013c-3.356,0-5.033-1.897-5.033-5.693v-0.355
		C183.274,461.803,185.047,459.767,188.488,459.767z M186.439,464.468h3.589v-0.284c0-1.437-0.545-2.154-1.636-2.154
		C187.218,462.028,186.567,462.843,186.439,464.468z"/>
	<path fill="#FFFFFF" d="M194.998,467.721l3.636-0.13v0.152c0,1.217,0.503,1.831,1.509,1.848h0.063c0.974,0,1.461-0.352,1.461-1.054
		v-0.083c-0.042-0.772-1.003-1.396-2.882-1.869c-1.879-0.475-3.009-1.271-3.39-2.393c-0.138-0.395-0.207-0.771-0.207-1.136
		c0-0.663,0.228-1.278,0.683-1.847c0.699-0.868,1.757-1.365,3.176-1.491c0.381-0.031,0.751-0.048,1.111-0.048
		c0.942,0,1.773,0.123,2.493,0.366c0.984,0.341,1.667,0.825,2.048,1.456c0.254,0.435,0.381,0.915,0.381,1.444
		c0,0.252-0.026,0.513-0.079,0.781l-3.398,0.059c0.032-0.197,0.048-0.379,0.048-0.544c0-0.789-0.339-1.212-1.016-1.267
		c-0.074-0.008-0.148-0.013-0.222-0.013c-0.699,0-1.17,0.265-1.414,0.793c-0.084,0.183-0.127,0.348-0.127,0.497
		c0,0.371,0.233,0.69,0.699,0.958c0.656,0.379,1.627,0.765,2.914,1.154c1.287,0.39,2.152,1.056,2.596,1.995
		c0.159,0.354,0.238,0.71,0.238,1.063c0,0.602-0.233,1.204-0.699,1.812c-0.741,0.971-1.89,1.534-3.446,1.692
		c-0.339,0.04-0.672,0.06-1,0.06c-1.165,0-2.245-0.226-3.239-0.675C195.665,470.732,195.019,469.537,194.998,467.721z"/>
	<path fill="#FFFFFF" d="M210.908,457.047c0,0.48-0.228,0.892-0.683,1.229c-0.456,0.34-1.006,0.509-1.651,0.509
		c-0.635,0-1.181-0.169-1.636-0.509c-0.455-0.339-0.683-0.749-0.683-1.229c0-0.475,0.228-0.881,0.683-1.221
		c0.455-0.339,1-0.509,1.636-0.509c0.646,0,1.196,0.17,1.651,0.509C210.681,456.166,210.908,456.572,210.908,457.047z
		 M206.653,471.983c-0.074-4.616-0.111-8.604-0.111-11.967l4.001-0.178c-0.127,3.22-0.19,6.419-0.19,9.6
		c0,0.852,0.005,1.7,0.016,2.545H206.653z"/>
	<path fill="#FFFFFF" d="M217.371,459.767c3.599,0,5.399,1.862,5.399,5.587c0,0.15-0.005,0.3-0.016,0.45
		c-0.148,4.032-2.064,6.067-5.748,6.106c-0.042,0.009-0.085,0.013-0.127,0.013c-3.504,0-5.255-1.905-5.255-5.718v-0.332
		C211.729,461.803,213.645,459.767,217.371,459.767z M216.847,462.468c-0.667,0.174-1.122,0.815-1.365,1.929
		c-0.148,0.663-0.223,1.33-0.223,2.001c0,0.449,0.032,0.903,0.096,1.361c0.169,1.136,0.714,1.724,1.635,1.764h0.111
		c0.857,0,1.445-0.423,1.762-1.267c0.265-0.702,0.397-1.535,0.397-2.498c0-0.236-0.005-0.479-0.016-0.723
		c-0.085-1.271-0.339-2.062-0.762-2.379c-0.265-0.188-0.583-0.284-0.953-0.284C217.318,462.372,217.09,462.403,216.847,462.468z
		 M215.307,457.461c1.238-1.098,2.255-2.144,3.049-3.138l2.604,1.539c-1.122,0.82-2.372,1.826-3.748,3.019L215.307,457.461z"/>
	<path fill="#FFFFFF" d="M226.564,459.461l0.159,1.93c0.445-1.025,1.614-1.547,3.509-1.562h0.063c1.863,0,3.133,0.544,3.811,1.635
		c0.466,0.74,0.699,2.478,0.699,5.208c0,1.341-0.059,2.927-0.175,4.758h-3.843c0.138-2.438,0.207-4.328,0.207-5.67
		c0-0.67-0.016-1.207-0.047-1.609c-0.106-1.184-0.614-1.775-1.524-1.775c-0.911,0-1.482,0.315-1.715,0.946l0.159,8.582l-3.731,0.023
		c0-3.63-0.165-7.705-0.492-12.228L226.564,459.461z"/>
</g>
<rect x="718.69" y="101.762" fill="#ADC710" width="454.051" height="53.885"/>
<rect x="718.69" y="159.393" fill="#ADC710" width="454.051" height="360.971"/>
<g>
	<g enable-background="new    ">
		<path fill="#FFFFFF" d="M861.399,138.243c0.021-2.659,0.031-5.396,0.031-8.214c0-2.825-0.011-5.725-0.031-8.7
			c1.218-0.109,2.34-0.166,3.365-0.166c2.858,0,4.966,0.426,6.32,1.278c1.842,1.168,2.805,3.326,2.89,6.475v0.853
			c0,2.699-0.35,4.625-1.048,5.775c-0.772,1.271-2.187,2.115-4.238,2.533c-1.188,0.245-2.488,0.367-3.906,0.367
			C863.724,138.445,862.596,138.378,861.399,138.243z M865.338,124.715c-0.181,2.597-0.271,5.105-0.271,7.528
			c0,0.916,0.011,1.815,0.031,2.699c0.37,0.062,0.726,0.095,1.063,0.095c0.932,0,1.715-0.241,2.351-0.722
			c0.867-0.647,1.303-2.1,1.303-4.356v-0.047c-0.012-2.271-0.436-3.764-1.271-4.474c-0.646-0.537-1.413-0.806-2.302-0.806
			C865.957,124.632,865.655,124.659,865.338,124.715z"/>
		<path fill="#FFFFFF" d="M880.327,126.537c3.673,0,5.51,1.819,5.51,5.457c0,0.442-0.025,0.916-0.08,1.42h-7.098
			c0,2.028,0.523,3.042,1.572,3.042h0.11c0.921-0.055,1.382-0.58,1.382-1.574c0-0.213-0.021-0.449-0.062-0.71l3.778-0.059
			c0,3.006-1.764,4.529-5.287,4.569c-0.043,0.008-0.079,0.012-0.111,0.012c-3.354,0-5.033-1.898-5.033-5.693v-0.354
			C875.113,128.573,876.887,126.537,880.327,126.537z M878.278,131.236h3.589v-0.284c0-1.436-0.546-2.154-1.636-2.154
			C879.057,128.798,878.405,129.611,878.278,131.236z"/>
		<path fill="#FFFFFF" d="M891.251,130.206l0.159,8.582l-3.892,0.023c0-3.629-0.164-7.705-0.491-12.228l2.922-0.236l0.159,1.929
			c0.443-0.947,1.48-1.487,3.111-1.622c0.243-0.016,0.477-0.023,0.698-0.023c1.28,0,2.255,0.312,2.922,0.936
			c0.772,0.742,1.164,1.921,1.175,3.539l-3.524,0.26c0.011-0.134,0.017-0.264,0.017-0.391c0-1.263-0.438-1.895-1.318-1.895h-0.062
			C892.108,129.121,891.484,129.496,891.251,130.206z"/>
		<path fill="#FFFFFF" d="M904.24,126.537c3.673,0,5.51,1.819,5.51,5.457c0,0.442-0.026,0.916-0.08,1.42h-7.098
			c0,2.028,0.523,3.042,1.571,3.042h0.111c0.921-0.055,1.382-0.58,1.382-1.574c0-0.213-0.021-0.449-0.062-0.71l3.778-0.059
			c0,3.006-1.764,4.529-5.287,4.569c-0.043,0.008-0.079,0.012-0.111,0.012c-3.355,0-5.033-1.898-5.033-5.693v-0.354
			C899.026,128.573,900.8,126.537,904.24,126.537z M902.191,131.236h3.589v-0.284c0-1.436-0.546-2.154-1.637-2.154
			C902.97,128.798,902.318,129.611,902.191,131.236z"/>
		<path fill="#FFFFFF" d="M917.436,133.817l3.778,0.177c0,2.85-1.763,4.293-5.287,4.332c-0.043,0.008-0.079,0.012-0.11,0.012
			c-3.355,0-5.033-1.897-5.033-5.692v-0.355c0.104-4.071,1.895-6.127,5.367-6.167h0.127c3.195,0,4.795,1.365,4.795,4.097
			c0,0.157-0.006,0.314-0.017,0.473l-3.414,0.188v-0.283c0-1.437-0.546-2.154-1.636-2.154c-1.111,0-1.667,1.164-1.667,3.492v0.391
			c0.063,2.519,0.624,3.776,1.684,3.776h0.096c0.921-0.056,1.382-0.58,1.382-1.574C917.499,134.314,917.478,134.077,917.436,133.817
			z"/>
		<path fill="#FFFFFF" d="M926.311,121.732l0.159,6.664c0.444-1.025,1.481-1.546,3.112-1.562h0.047c1.609,0,2.753,0.544,3.43,1.633
			c0.467,0.742,0.699,2.479,0.699,5.208c0,1.342-0.059,2.929-0.175,4.759h-4.001c0.137-2.438,0.206-4.328,0.206-5.67
			c0-0.67-0.016-1.207-0.048-1.609c-0.105-1.184-0.562-1.776-1.365-1.776s-1.323,0.316-1.557,0.947l0.158,8.581l-3.891,0.024
			c0-3.631-0.217-9.323-0.65-17.08L926.311,121.732z"/>
		<path fill="#FFFFFF" d="M940.681,126.537c3.6,0,5.398,1.862,5.398,5.586c0,0.15-0.006,0.3-0.016,0.45
			c-0.148,4.033-2.064,6.068-5.748,6.108c-0.043,0.008-0.085,0.012-0.127,0.012c-3.505,0-5.257-1.906-5.257-5.717v-0.332
			C935.038,128.573,936.954,126.537,940.681,126.537z M940.156,129.236c-0.667,0.173-1.122,0.816-1.365,1.929
			c-0.148,0.663-0.223,1.33-0.223,2c0,0.45,0.031,0.903,0.096,1.361c0.169,1.136,0.714,1.724,1.636,1.764h0.11
			c0.856,0,1.444-0.422,1.763-1.267c0.266-0.702,0.397-1.535,0.397-2.497c0-0.237-0.007-0.479-0.018-0.722
			c-0.085-1.271-0.339-2.063-0.762-2.38c-0.265-0.188-0.582-0.283-0.953-0.283C940.627,129.141,940.399,129.173,940.156,129.236z"/>
		<path fill="#FFFFFF" d="M946.762,134.491l3.638-0.13v0.154c0,1.215,0.502,1.831,1.508,1.847h0.062
			c0.976,0,1.461-0.351,1.461-1.054v-0.083c-0.042-0.773-1.003-1.396-2.882-1.87s-3.009-1.271-3.39-2.392
			c-0.139-0.395-0.207-0.772-0.207-1.136c0-0.663,0.228-1.278,0.684-1.847c0.698-0.868,1.758-1.365,3.176-1.491
			c0.382-0.032,0.752-0.047,1.111-0.047c0.941,0,1.772,0.122,2.492,0.367c0.984,0.339,1.668,0.825,2.049,1.456
			c0.254,0.434,0.381,0.916,0.381,1.443c0,0.253-0.025,0.514-0.079,0.781l-3.397,0.06c0.032-0.197,0.048-0.379,0.048-0.545
			c0-0.788-0.339-1.211-1.017-1.267c-0.074-0.007-0.148-0.012-0.223-0.012c-0.699,0-1.17,0.265-1.413,0.793
			c-0.085,0.182-0.127,0.348-0.127,0.497c0,0.371,0.232,0.69,0.698,0.959c0.656,0.379,1.628,0.763,2.914,1.153
			c1.286,0.392,2.151,1.057,2.596,1.995c0.159,0.355,0.238,0.71,0.238,1.065c0,0.6-0.233,1.203-0.698,1.811
			c-0.741,0.971-1.89,1.535-3.446,1.692c-0.339,0.04-0.672,0.059-1,0.059c-1.164,0-2.243-0.225-3.238-0.675
			C947.429,137.502,946.783,136.306,946.762,134.491z"/>
		<path fill="#FFFFFF" d="M977.104,121.72c-0.127,5.311-0.248,11.03-0.364,17.162h-3.604v-6.9h-4.524v6.344l-4.335-0.012
			c0.128-2.896,0.19-5.729,0.19-8.499c0-2.762-0.062-5.46-0.19-8.096h4.145l-0.175,6.899l4.524,0.143v-7.327L977.104,121.72z"/>
		<path fill="#FFFFFF" d="M986.744,138.693l-0.159-1.929c-0.444,1.025-1.641,1.542-3.588,1.55c-0.021,0.008-0.037,0.012-0.048,0.012
			c-1.927,0-3.202-0.646-3.826-1.94c-0.424-0.86-0.636-2.641-0.636-5.339c0-1.389,0.059-3.025,0.175-4.911h3.858
			c-0.213,2.65-0.317,4.69-0.317,6.119c0,0.719,0.026,1.278,0.079,1.682c0.159,1.23,0.692,1.847,1.604,1.847s1.482-0.32,1.715-0.959
			l-0.157-8.214l3.73-0.023c0,3.394,0.164,7.347,0.492,11.86L986.744,138.693z"/>
		<path fill="#FFFFFF" d="M993.54,126.289l0.062,1.895c0.572-0.907,1.233-1.473,1.985-1.692c0.444-0.126,0.896-0.188,1.35-0.188
			c0.339,0,0.678,0.031,1.017,0.095c0.826,0.158,1.413,0.789,1.763,1.894c0.275-0.859,0.752-1.434,1.429-1.722
			c0.679-0.288,1.431-0.437,2.256-0.444h0.062c0.805,0,1.577,0.146,2.318,0.438c0.752,0.3,1.326,0.861,1.723,1.687
			c0.397,0.825,0.606,1.955,0.628,3.392v6.877l-3.43,0.06c0.137-2.596,0.206-4.806,0.206-6.628s-0.466-2.805-1.397-2.947
			c-0.138-0.016-0.27-0.023-0.396-0.023c-0.741,0-1.313,0.354-1.715,1.064c-0.063,0.821-0.097,1.779-0.097,2.876
			c0,1.492,0.06,3.231,0.175,5.221l-3.97,0.022c0.148-3.054,0.224-5.279,0.224-6.676v-0.142c-0.012-1.381-0.376-2.106-1.097-2.179
			h-0.207c-0.646,0-1.27,0.276-1.873,0.829l0.031,8.664l-3.747,0.106v-1.941c0-3.439-0.068-6.877-0.206-10.31L993.54,126.289z"/>
		<path fill="#FFFFFF" d="M1015.229,126.194c3.482,0.142,5.225,1.448,5.225,3.917v8.404l-3.699,0.047l-0.127-1.125
			c-0.763,0.646-1.773,0.971-3.033,0.971c-0.54,0-1.122-0.062-1.746-0.188c-1.874-0.348-2.811-1.429-2.811-3.243
			c0-0.222,0.016-0.458,0.047-0.71c0.212-1.87,1.995-2.806,5.352-2.806c0.646,0,1.354,0.036,2.129,0.106v-1.373
			c0-1.113-0.473-1.669-1.413-1.669h-0.064c-0.073-0.008-0.143-0.012-0.206-0.012c-1.025,0-1.54,0.624-1.54,1.869v0.179
			l-3.778-0.237c0-2.754,1.777-4.131,5.335-4.131L1015.229,126.194L1015.229,126.194z M1016.564,135.545v-2.083
			c-0.456-0.07-0.868-0.106-1.239-0.106c-0.963,0-1.619,0.241-1.969,0.722c-0.213,0.292-0.317,0.564-0.317,0.817
			c0,0.314,0.169,0.596,0.508,0.84c0.265,0.188,0.609,0.284,1.032,0.284C1015.119,136.018,1015.78,135.86,1016.564,135.545z"/>
		<path fill="#FFFFFF" d="M1024.646,126.229l0.159,1.93c0.444-1.026,1.614-1.547,3.51-1.562h0.062c1.863,0,3.134,0.544,3.812,1.633
			c0.466,0.742,0.698,2.478,0.698,5.208c0,1.342-0.059,2.928-0.175,4.758h-3.843c0.138-2.438,0.207-4.328,0.207-5.669
			c0-0.671-0.017-1.208-0.048-1.61c-0.106-1.184-0.614-1.774-1.524-1.774c-0.911,0-1.481,0.314-1.715,0.946l0.158,8.581
			l-3.731,0.024c0-3.63-0.164-7.706-0.492-12.228L1024.646,126.229z"/>
		<path fill="#FFFFFF" d="M1039.794,126.537c3.599,0,5.398,1.862,5.398,5.586c0,0.15-0.007,0.3-0.017,0.45
			c-0.147,4.033-2.063,6.068-5.748,6.108c-0.043,0.008-0.085,0.012-0.127,0.012c-3.504,0-5.256-1.906-5.256-5.717v-0.332
			C1034.151,128.573,1036.067,126.537,1039.794,126.537z M1039.271,129.236c-0.668,0.173-1.122,0.816-1.365,1.929
			c-0.148,0.663-0.224,1.33-0.224,2c0,0.45,0.032,0.903,0.097,1.361c0.169,1.136,0.714,1.724,1.636,1.764h0.11
			c0.856,0,1.444-0.422,1.763-1.267c0.265-0.702,0.396-1.535,0.396-2.497c0-0.237-0.006-0.479-0.017-0.722
			c-0.085-1.271-0.339-2.063-0.762-2.38c-0.266-0.188-0.582-0.283-0.953-0.283C1039.74,129.141,1039.513,129.173,1039.271,129.236z"
			/>
		<path fill="#FFFFFF" d="M1045.875,134.491l3.637-0.13v0.154c0,1.215,0.502,1.831,1.509,1.847h0.062
			c0.975,0,1.461-0.351,1.461-1.054v-0.083c-0.042-0.773-1.003-1.396-2.882-1.87s-3.009-1.271-3.39-2.392
			c-0.139-0.395-0.207-0.772-0.207-1.136c0-0.663,0.228-1.278,0.684-1.847c0.698-0.868,1.757-1.365,3.175-1.491
			c0.382-0.032,0.752-0.047,1.112-0.047c0.941,0,1.771,0.122,2.492,0.367c0.983,0.339,1.668,0.825,2.049,1.456
			c0.254,0.434,0.381,0.916,0.381,1.443c0,0.253-0.026,0.514-0.079,0.781l-3.397,0.06c0.031-0.197,0.048-0.379,0.048-0.545
			c0-0.788-0.339-1.211-1.018-1.267c-0.073-0.007-0.147-0.012-0.222-0.012c-0.699,0-1.17,0.265-1.413,0.793
			c-0.085,0.182-0.127,0.348-0.127,0.497c0,0.371,0.232,0.69,0.698,0.959c0.656,0.379,1.628,0.763,2.914,1.153
			c1.285,0.392,2.15,1.057,2.596,1.995c0.159,0.355,0.238,0.71,0.238,1.065c0,0.6-0.233,1.203-0.698,1.811
			c-0.741,0.971-1.89,1.535-3.446,1.692c-0.339,0.04-0.672,0.059-1,0.059c-1.165,0-2.244-0.225-3.238-0.675
			C1046.542,137.502,1045.896,136.306,1045.875,134.491z"/>
	</g>
</g>
</svg>
