<?xml version="1.0" encoding="utf-8"?>
<!-- Generator: Adobe Illustrator 16.0.0, SVG Export Plug-In . SVG Version: 6.00 Build 0)  -->
<!DOCTYPE svg PUBLIC "-//W3C//DTD SVG 1.1//EN" "http://www.w3.org/Graphics/SVG/1.1/DTD/svg11.dtd">
<svg version="1.1" id="Capa_1" xmlns="http://www.w3.org/2000/svg" xmlns:xlink="http://www.w3.org/1999/xlink" x="0px" y="0px"
	 width="717.38px" height="147.925px" viewBox="0 0 717.38 147.925" enable-background="new 0 0 717.38 147.925"
	 xml:space="preserve">
<g>
	<g>
		<g>
			<path fill="#331842" d="M215.642,24.031c0.005,0.193-0.056,0.358-0.182,0.495s-0.285,0.208-0.476,0.212
				c-0.192,0.005-0.356-0.058-0.492-0.188s-0.206-0.292-0.211-0.485l-0.4-16.434c-0.005-0.193,0.058-0.358,0.188-0.495
				c0.129-0.137,0.29-0.208,0.481-0.212c0.214-0.005,0.389,0.072,0.526,0.232l11.866,14.605l-0.352-14.44
				c-0.005-0.193,0.058-0.358,0.188-0.495c0.129-0.137,0.29-0.208,0.481-0.212c0.185-0.004,0.345,0.059,0.48,0.189
				c0.136,0.13,0.207,0.292,0.211,0.485l0.4,16.434c0.005,0.193-0.058,0.358-0.187,0.495s-0.287,0.208-0.471,0.212
				c-0.221,0.005-0.393-0.057-0.514-0.188L215.291,9.602L215.642,24.031z"/>
			<path fill="#331842" d="M246.993,17.72c0.042,1.722-0.527,3.207-1.707,4.453c-1.18,1.247-2.625,1.891-4.336,1.933
				s-3.186-0.531-4.424-1.719c-1.239-1.188-1.879-2.643-1.921-4.365s0.526-3.207,1.707-4.453c1.179-1.247,2.625-1.891,4.335-1.933
				c1.711-0.042,3.186,0.531,4.425,1.719C246.311,14.543,246.951,15.998,246.993,17.72z M240.681,13.016
				c-1.327,0.032-2.451,0.535-3.372,1.508s-1.365,2.127-1.332,3.463c0.033,1.336,0.532,2.468,1.499,3.395s2.114,1.375,3.442,1.342
				c1.327-0.033,2.451-0.535,3.372-1.508c0.914-0.965,1.354-2.12,1.321-3.463s-0.529-2.475-1.488-3.395
				C243.155,13.431,242.008,12.984,240.681,13.016z"/>
			<path fill="#331842" d="M263.135,20.858c0.191-0.004,0.355,0.06,0.491,0.194c0.136,0.134,0.207,0.297,0.211,0.49
				c0.004,0.193-0.062,0.362-0.198,0.506c-0.549,0.496-1.163,0.882-1.843,1.159c-0.679,0.276-1.398,0.424-2.158,0.442
				c-1.711,0.042-3.186-0.531-4.424-1.719c-1.239-1.188-1.879-2.643-1.921-4.365s0.526-3.207,1.707-4.454
				c1.18-1.247,2.625-1.891,4.335-1.933c0.76-0.018,1.487,0.094,2.183,0.337c0.696,0.243,1.326,0.599,1.891,1.068
				c0.068,0.065,0.126,0.146,0.177,0.241c0.05,0.096,0.077,0.195,0.079,0.299c0.004,0.193-0.058,0.358-0.187,0.495
				c-0.13,0.137-0.291,0.208-0.482,0.212c-0.177,0.004-0.326-0.047-0.447-0.156c-0.919-0.772-1.979-1.144-3.181-1.114
				c-1.327,0.032-2.451,0.535-3.372,1.508c-0.914,0.966-1.354,2.12-1.321,3.464c0.032,1.343,0.528,2.475,1.488,3.395
				c0.967,0.928,2.114,1.375,3.442,1.342c0.582-0.014,1.142-0.135,1.679-0.364c0.537-0.229,1.018-0.53,1.444-0.904
				C262.837,20.91,262.973,20.862,263.135,20.858z"/>
			<path fill="#331842" d="M272.586,7.85c0.006,0.26-0.077,0.481-0.25,0.664c-0.173,0.183-0.388,0.277-0.646,0.283
				c-0.251,0.006-0.469-0.078-0.654-0.251c-0.185-0.174-0.281-0.391-0.287-0.65c-0.006-0.252,0.079-0.472,0.255-0.658
				c0.176-0.186,0.39-0.282,0.641-0.289c0.258-0.006,0.478,0.08,0.659,0.257C272.486,7.382,272.58,7.598,272.586,7.85z
				 M271.073,11.585c-0.005-0.193,0.058-0.358,0.187-0.495c0.129-0.137,0.29-0.208,0.482-0.212c0.191-0.005,0.357,0.058,0.497,0.188
				c0.14,0.13,0.211,0.292,0.216,0.485l0.27,11.089c0.005,0.193-0.06,0.358-0.192,0.495c-0.133,0.137-0.296,0.208-0.487,0.212
				c-0.192,0.005-0.355-0.058-0.492-0.188s-0.207-0.292-0.211-0.485L271.073,11.585z"/>
			<path fill="#331842" d="M292.44,16.613c0.042,1.722-0.527,3.207-1.707,4.453c-1.18,1.247-2.625,1.891-4.335,1.933
				c-1.711,0.042-3.186-0.531-4.425-1.719s-1.879-2.643-1.921-4.365s0.527-3.207,1.707-4.453c1.18-1.247,2.625-1.891,4.336-1.933
				c1.71-0.042,3.185,0.531,4.424,1.719C291.757,13.436,292.398,14.891,292.44,16.613z M286.127,11.909
				c-1.327,0.032-2.451,0.535-3.372,1.508s-1.365,2.127-1.332,3.463c0.033,1.336,0.532,2.468,1.499,3.395
				c0.967,0.927,2.114,1.375,3.442,1.342c1.327-0.032,2.451-0.535,3.372-1.508c0.913-0.965,1.354-2.12,1.321-3.463
				c-0.032-1.343-0.529-2.475-1.488-3.395C288.602,12.324,287.455,11.877,286.127,11.909z"/>
			<path fill="#331842" d="M298.616,10.915c-0.004-0.193,0.058-0.358,0.187-0.495c0.13-0.137,0.29-0.208,0.482-0.212
				c0.192-0.005,0.356,0.058,0.492,0.188s0.206,0.292,0.211,0.485l0.031,1.292c1.325-1.354,2.762-2.05,4.31-2.088
				c1.593-0.039,2.956,0.493,4.089,1.594c1.156,1.101,1.753,2.449,1.792,4.045l0.146,6.001c0.005,0.193-0.06,0.358-0.193,0.495
				c-0.133,0.137-0.295,0.208-0.487,0.212c-0.191,0.004-0.355-0.058-0.491-0.188c-0.136-0.13-0.207-0.292-0.211-0.485l-0.146-6.001
				c-0.03-1.225-0.482-2.246-1.358-3.064c-0.876-0.848-1.912-1.257-3.106-1.228c-1.195,0.029-2.213,0.488-3.055,1.377
				c-0.827,0.867-1.226,1.909-1.196,3.126l0.146,6.001c0.005,0.193-0.058,0.358-0.187,0.495s-0.29,0.208-0.482,0.212
				s-0.355-0.058-0.492-0.188c-0.136-0.13-0.206-0.292-0.211-0.485L298.616,10.915z"/>
			<path fill="#331842" d="M326.353,19.34c0.191-0.004,0.355,0.06,0.492,0.194s0.207,0.297,0.211,0.491
				c0.005,0.193-0.05,0.354-0.166,0.483c-1.125,1.03-2.459,1.564-4,1.602c-1.71,0.042-3.186-0.531-4.424-1.719
				c-1.239-1.188-1.879-2.643-1.921-4.365c-0.042-1.722,0.527-3.206,1.707-4.453c1.18-1.247,2.625-1.891,4.335-1.933
				c1.711-0.042,3.186,0.532,4.425,1.719c1.239,1.188,1.879,2.643,1.921,4.365c0.005,0.193-0.058,0.358-0.188,0.495
				c-0.129,0.137-0.29,0.208-0.481,0.212l-10.309,0.251c0.248,1.108,0.735,2.009,1.46,2.705c0.967,0.927,2.114,1.375,3.441,1.342
				c0.605-0.015,1.163-0.126,1.674-0.336c0.511-0.209,0.977-0.504,1.395-0.886C326.048,19.4,326.191,19.344,326.353,19.34z
				 M327.51,15.068c-0.233-1.101-0.716-2.003-1.449-2.706c-0.967-0.927-2.114-1.374-3.441-1.342s-2.451,0.535-3.372,1.508
				c-0.69,0.73-1.133,1.654-1.327,2.773L327.51,15.068z"/>
			<path fill="#331842" d="M337.362,15.296l0.011,0c-0.342-0.118-0.629-0.235-0.86-0.352c-0.232-0.117-0.412-0.241-0.541-0.372
				c-0.506-0.5-0.768-1.091-0.785-1.774c-0.017-0.69,0.227-1.309,0.729-1.856c1.035-1.109,2.409-1.685,4.119-1.727
				c0.915-0.022,1.778,0.151,2.592,0.521c0.813,0.37,1.553,0.904,2.219,1.601c0.084,0.102,0.127,0.231,0.131,0.387
				c0.005,0.193-0.059,0.36-0.192,0.5s-0.295,0.213-0.487,0.218c-0.184,0.004-0.33-0.051-0.436-0.167l-0.352-0.337
				c-0.967-0.927-2.114-1.375-3.441-1.342c-1.334,0.033-2.397,0.489-3.187,1.37c-0.215,0.265-0.318,0.587-0.309,0.965
				c0.02,0.223,0.091,0.414,0.213,0.574c0.122,0.161,0.298,0.279,0.529,0.355l5.698,1.744l-0.011,0
				c0.342,0.118,0.629,0.235,0.861,0.352c0.231,0.117,0.408,0.241,0.529,0.372c0.514,0.493,0.779,1.084,0.795,1.774
				c0.017,0.698-0.229,1.316-0.74,1.856c-1.028,1.109-2.397,1.685-4.108,1.727c-1.851,0.045-3.454-0.658-4.81-2.111
				c-0.084-0.109-0.128-0.242-0.131-0.398c-0.005-0.193,0.057-0.359,0.187-0.5c0.13-0.141,0.29-0.213,0.482-0.218
				c0.177-0.004,0.326,0.052,0.447,0.167l0.351,0.337c0.967,0.927,2.114,1.375,3.442,1.342c1.327-0.032,2.382-0.485,3.165-1.358
				c0.222-0.265,0.329-0.587,0.32-0.966c-0.049-0.474-0.296-0.788-0.743-0.94L337.362,15.296z"/>
			<path fill="#331842" d="M366.686,3.218c1.195-0.029,2.223,0.369,3.084,1.195s1.307,1.84,1.336,3.042
				c0.029,1.202-0.438,2.313-1.402,3.332c0.746,0.338,1.35,0.725,1.81,1.159c1.036,1.007,1.571,2.234,1.606,3.682
				c0.036,1.455-0.443,2.71-1.436,3.767c-1,1.042-2.219,1.58-3.657,1.615l-4.535,0.11c-0.192,0.005-0.356-0.058-0.492-0.188
				s-0.206-0.292-0.211-0.485l-0.4-16.434c-0.005-0.193,0.058-0.358,0.188-0.495c0.129-0.137,0.29-0.208,0.481-0.212L366.686,3.218z
				 M363.766,4.66l0.145,5.934l2.953-0.072c0.819-0.02,1.505-0.326,2.059-0.919c0.568-0.601,0.842-1.306,0.823-2.115
				c-0.02-0.809-0.328-1.5-0.925-2.072c-0.597-0.572-1.297-0.849-2.101-0.829L363.766,4.66z M363.944,11.963l0.189,7.771l3.86-0.094
				c1.069-0.026,1.967-0.427,2.693-1.202c0.741-0.776,1.099-1.702,1.072-2.778c-0.026-1.069-0.428-1.973-1.206-2.711
				c-0.756-0.746-1.672-1.106-2.749-1.08L363.944,11.963z"/>
			<path fill="#331842" d="M390.808,18.194c-1.453,1.543-3.038,2.335-4.756,2.377c-1.71,0.042-3.186-0.531-4.424-1.719
				c-1.239-1.188-1.879-2.643-1.921-4.365s0.527-3.207,1.707-4.453c1.18-1.247,2.625-1.891,4.335-1.933
				c1.711-0.042,3.186,0.531,4.425,1.719c1.239,1.188,1.879,2.643,1.921,4.365l0.135,5.544c0.005,0.193-0.058,0.358-0.187,0.495
				c-0.129,0.137-0.29,0.208-0.482,0.212c-0.191,0.005-0.357-0.058-0.497-0.188s-0.212-0.292-0.217-0.485L390.808,18.194z
				 M385.782,9.482c-1.327,0.032-2.451,0.535-3.372,1.508s-1.365,2.127-1.332,3.463c0.032,1.336,0.532,2.468,1.499,3.395
				s2.114,1.375,3.441,1.342c1.328-0.032,2.451-0.535,3.372-1.508c0.914-0.965,1.354-2.12,1.321-3.463
				c-0.033-1.344-0.529-2.475-1.488-3.395C388.256,9.897,387.109,9.45,385.782,9.482z M384.952,6.773
				c-0.123,0.122-0.276,0.185-0.46,0.189c-0.191,0.004-0.355-0.06-0.491-0.194c-0.137-0.134-0.207-0.297-0.211-0.491
				c-0.004-0.186,0.043-0.339,0.144-0.46l2.719-2.874c0.129-0.137,0.294-0.208,0.493-0.212c0.192-0.004,0.355,0.058,0.492,0.188
				c0.136,0.13,0.207,0.292,0.211,0.485c0.002,0.089-0.01,0.177-0.038,0.263c-0.028,0.086-0.074,0.163-0.138,0.231L384.952,6.773z"
				/>
			<path fill="#331842" d="M400.391,13.761l0.011,0c-0.342-0.118-0.629-0.235-0.86-0.352c-0.232-0.117-0.412-0.241-0.541-0.372
				c-0.506-0.5-0.768-1.091-0.785-1.774c-0.017-0.69,0.227-1.309,0.729-1.856c1.035-1.109,2.409-1.685,4.119-1.727
				c0.915-0.022,1.778,0.151,2.592,0.521c0.813,0.37,1.553,0.904,2.219,1.601c0.084,0.102,0.127,0.23,0.131,0.387
				c0.005,0.193-0.059,0.36-0.192,0.5s-0.295,0.213-0.487,0.218c-0.184,0.004-0.33-0.051-0.436-0.167l-0.352-0.337
				c-0.967-0.927-2.114-1.375-3.441-1.342c-1.334,0.033-2.397,0.489-3.187,1.37c-0.215,0.265-0.318,0.587-0.309,0.965
				c0.02,0.223,0.091,0.414,0.213,0.574c0.122,0.161,0.298,0.279,0.529,0.355l5.698,1.744l-0.011,0
				c0.342,0.118,0.629,0.235,0.861,0.352c0.231,0.117,0.408,0.241,0.529,0.372c0.514,0.493,0.779,1.084,0.795,1.774
				c0.017,0.698-0.229,1.317-0.74,1.856c-1.028,1.109-2.397,1.685-4.108,1.727c-1.851,0.045-3.454-0.659-4.81-2.111
				c-0.084-0.109-0.128-0.242-0.131-0.398c-0.005-0.193,0.057-0.36,0.187-0.5c0.13-0.14,0.29-0.213,0.482-0.218
				c0.177-0.004,0.326,0.052,0.447,0.167l0.351,0.337c0.967,0.927,2.114,1.375,3.442,1.342c1.327-0.033,2.382-0.485,3.165-1.358
				c0.222-0.265,0.329-0.587,0.32-0.966c-0.049-0.474-0.296-0.788-0.743-0.94L400.391,13.761z"/>
			<path fill="#331842" d="M416.891,4.335c0.006,0.26-0.077,0.481-0.25,0.663c-0.173,0.183-0.388,0.277-0.646,0.283
				c-0.251,0.006-0.469-0.078-0.654-0.251s-0.281-0.39-0.287-0.65c-0.006-0.252,0.079-0.471,0.255-0.658
				c0.176-0.186,0.39-0.283,0.641-0.289c0.258-0.006,0.478,0.08,0.659,0.257C416.791,3.868,416.885,4.083,416.891,4.335z
				 M415.377,8.07c-0.005-0.193,0.058-0.358,0.187-0.495s0.29-0.208,0.482-0.212c0.191-0.004,0.357,0.058,0.497,0.188
				s0.212,0.292,0.216,0.485l0.27,11.089c0.005,0.193-0.06,0.358-0.192,0.495c-0.133,0.137-0.296,0.208-0.487,0.212
				c-0.192,0.004-0.355-0.059-0.492-0.189s-0.207-0.292-0.211-0.485L415.377,8.07z"/>
			<path fill="#331842" d="M434.198,16.691c0.191-0.005,0.355,0.06,0.492,0.194c0.136,0.134,0.207,0.298,0.211,0.491
				c0.005,0.193-0.062,0.362-0.198,0.506c-0.549,0.496-1.163,0.882-1.842,1.159c-0.679,0.277-1.399,0.424-2.158,0.443
				c-1.711,0.042-3.186-0.532-4.425-1.719c-1.239-1.188-1.879-2.643-1.921-4.365c-0.042-1.722,0.527-3.206,1.707-4.453
				c1.18-1.247,2.625-1.891,4.336-1.933c0.759-0.019,1.487,0.094,2.183,0.337s1.326,0.599,1.891,1.068
				c0.068,0.065,0.127,0.146,0.177,0.241s0.077,0.195,0.079,0.299c0.005,0.193-0.058,0.358-0.187,0.495
				c-0.129,0.137-0.29,0.208-0.482,0.212c-0.177,0.004-0.326-0.048-0.446-0.156c-0.919-0.772-1.979-1.144-3.182-1.114
				c-1.327,0.032-2.451,0.535-3.372,1.508c-0.914,0.966-1.354,2.12-1.321,3.463c0.033,1.344,0.529,2.476,1.488,3.395
				c0.967,0.927,2.114,1.375,3.441,1.342c0.583-0.014,1.142-0.135,1.679-0.364s1.018-0.53,1.444-0.904
				C433.9,16.743,434.036,16.695,434.198,16.691z"/>
			<path fill="#331842" d="M452.377,16.694c-1.453,1.543-3.038,2.335-4.756,2.377c-1.71,0.042-3.186-0.531-4.424-1.719
				c-1.239-1.188-1.879-2.643-1.921-4.365c-0.042-1.722,0.527-3.206,1.707-4.453c1.18-1.247,2.625-1.891,4.335-1.933
				c1.71-0.042,3.186,0.532,4.425,1.719c1.239,1.188,1.879,2.643,1.921,4.365l0.135,5.545c0.005,0.193-0.058,0.358-0.187,0.495
				s-0.29,0.208-0.482,0.212c-0.191,0.004-0.357-0.058-0.497-0.188s-0.212-0.292-0.216-0.485L452.377,16.694z M447.351,7.982
				c-1.327,0.032-2.451,0.535-3.372,1.508c-0.921,0.973-1.365,2.128-1.332,3.464c0.032,1.336,0.532,2.468,1.499,3.395
				c0.967,0.927,2.114,1.375,3.441,1.342c1.328-0.032,2.451-0.535,3.372-1.508c0.914-0.965,1.354-2.12,1.321-3.463
				c-0.033-1.343-0.529-2.475-1.488-3.395C449.826,8.397,448.678,7.95,447.351,7.982z"/>
			<path fill="#331842" d="M462.093,12.258l0.011,0c-0.342-0.118-0.629-0.235-0.86-0.352c-0.232-0.117-0.412-0.241-0.541-0.372
				c-0.507-0.5-0.768-1.091-0.785-1.774c-0.017-0.69,0.226-1.309,0.729-1.856c1.035-1.109,2.408-1.685,4.119-1.727
				c0.914-0.022,1.778,0.151,2.591,0.521s1.553,0.904,2.219,1.601c0.084,0.102,0.127,0.231,0.131,0.387
				c0.005,0.193-0.06,0.36-0.193,0.5c-0.133,0.141-0.295,0.213-0.487,0.218c-0.185,0.004-0.33-0.051-0.436-0.167l-0.351-0.337
				c-0.967-0.927-2.114-1.375-3.441-1.342c-1.335,0.033-2.397,0.489-3.187,1.37c-0.215,0.265-0.318,0.587-0.309,0.965
				c0.02,0.223,0.091,0.414,0.213,0.574c0.122,0.161,0.298,0.279,0.529,0.355l5.698,1.744l-0.011,0
				c0.342,0.118,0.629,0.235,0.861,0.352c0.231,0.117,0.408,0.241,0.529,0.372c0.514,0.493,0.779,1.084,0.796,1.774
				c0.017,0.698-0.229,1.316-0.74,1.856c-1.028,1.109-2.397,1.685-4.108,1.727c-1.851,0.045-3.454-0.658-4.811-2.111
				c-0.083-0.109-0.127-0.242-0.131-0.398c-0.005-0.193,0.057-0.36,0.187-0.5c0.13-0.14,0.29-0.213,0.482-0.218
				c0.177-0.004,0.326,0.052,0.447,0.167l0.351,0.337c0.967,0.927,2.114,1.375,3.442,1.342c1.327-0.033,2.382-0.485,3.165-1.358
				c0.222-0.265,0.329-0.587,0.319-0.966c-0.048-0.474-0.295-0.788-0.742-0.94L462.093,12.258z"/>
			<path fill="#331842" d="M498.126,0.708c-0.004-0.193,0.06-0.358,0.193-0.495c0.133-0.137,0.295-0.208,0.487-0.212
				c0.192-0.004,0.355,0.058,0.492,0.188c0.136,0.13,0.207,0.292,0.211,0.485l0.265,10.889c0.042,1.722-0.527,3.207-1.707,4.453
				c-1.18,1.247-2.625,1.891-4.335,1.933c-1.711,0.042-3.186-0.531-4.425-1.719c-1.239-1.188-1.879-2.643-1.921-4.365
				c-0.042-1.722,0.527-3.206,1.707-4.453c1.18-1.247,2.625-1.891,4.336-1.933c1.71-0.042,3.185,0.532,4.424,1.719l0.442,0.424
				L498.126,0.708z M498.391,11.596c-0.032-1.343-0.528-2.475-1.488-3.395c-0.967-0.927-2.114-1.375-3.442-1.342
				c-1.327,0.033-2.451,0.535-3.372,1.508c-0.921,0.973-1.365,2.127-1.333,3.464c0.033,1.336,0.532,2.468,1.5,3.395
				c0.967,0.927,2.114,1.375,3.441,1.342s2.451-0.535,3.372-1.508C497.984,14.094,498.424,12.94,498.391,11.596z"/>
			<path fill="#331842" d="M515.883,14.724c0.191-0.005,0.355,0.06,0.492,0.194c0.136,0.134,0.207,0.298,0.211,0.491
				c0.004,0.193-0.051,0.354-0.166,0.483c-1.126,1.03-2.459,1.564-4,1.602c-1.711,0.042-3.186-0.531-4.425-1.719
				c-1.239-1.188-1.879-2.643-1.921-4.365s0.527-3.207,1.707-4.453s2.625-1.891,4.336-1.933c1.71-0.042,3.186,0.531,4.424,1.719
				s1.879,2.643,1.921,4.365c0.005,0.193-0.058,0.358-0.187,0.495s-0.29,0.208-0.482,0.212l-10.309,0.251
				c0.248,1.108,0.735,2.01,1.46,2.705c0.967,0.927,2.114,1.375,3.441,1.342c0.604-0.015,1.163-0.127,1.674-0.336
				c0.511-0.209,0.977-0.505,1.395-0.887C515.579,14.784,515.721,14.728,515.883,14.724z M517.041,10.451
				c-0.233-1.101-0.717-2.002-1.449-2.705c-0.967-0.927-2.114-1.375-3.442-1.342c-1.327,0.032-2.451,0.535-3.372,1.508
				c-0.691,0.73-1.133,1.654-1.327,2.773L517.041,10.451z"/>
		</g>
	</g>
	
		<rect x="104.834" y="27.99" transform="matrix(0.9997 -0.0243 0.0243 0.9997 -1.4226 8.9421)" fill="#F2961C" width="523.286" height="69.796"/>
	<g>
		<path fill="#FFFFFF" d="M117.026,79.272c-0.071-4.296-0.161-8.72-0.272-13.27c-0.111-4.563-0.243-9.247-0.394-14.051
			c1.962-0.227,3.772-0.36,5.431-0.4c4.617-0.112,8.036,0.493,10.259,1.816c3.021,1.814,4.662,5.262,4.923,10.344l0.033,1.377
			c0.106,4.359-0.382,7.483-1.465,9.372c-1.199,2.083-3.448,3.502-6.749,4.258c-1.906,0.442-4.004,0.69-6.295,0.746
			C120.787,79.506,118.963,79.442,117.026,79.272z M122.855,57.264c-0.189,4.201-0.235,8.258-0.14,12.17
			c0.036,1.479,0.088,2.932,0.158,4.358c0.601,0.088,1.175,0.125,1.722,0.111c1.504-0.037,2.76-0.456,3.768-1.259
			c1.376-1.079,2.021-3.441,1.932-7.087l-0.002-0.077c-0.106-3.67-0.849-6.063-2.228-7.177c-1.064-0.841-2.314-1.245-3.75-1.209
			C123.852,57.106,123.366,57.163,122.855,57.264z"/>
		<path fill="#FFFFFF" d="M147.139,59.619c5.933-0.145,8.972,2.722,9.115,8.598c0.018,0.714-0.007,1.479-0.072,2.297l-11.465,0.279
			c0.08,3.276,0.966,4.893,2.659,4.852l0.18-0.004c1.485-0.125,2.208-0.991,2.169-2.597c-0.008-0.344-0.052-0.726-0.13-1.145
			l6.102-0.245c0.118,4.856-2.669,7.386-8.361,7.588c-0.068,0.015-0.128,0.022-0.179,0.023c-5.42,0.132-8.205-2.867-8.354-8.999
			l-0.014-0.573C138.797,63.112,141.582,59.754,147.139,59.619z M144.015,67.29l5.796-0.141L149.8,66.69
			c-0.057-2.32-0.965-3.458-2.727-3.416C145.176,63.321,144.156,64.659,144.015,67.29z"/>
		<path fill="#FFFFFF" d="M164.929,65.116l0.594,13.855l-6.283,0.191c-0.143-5.863-0.568-12.44-1.276-19.731l4.71-0.498l0.333,3.11
			c0.681-1.547,2.335-2.46,4.963-2.742c0.392-0.035,0.769-0.057,1.127-0.066c2.069-0.05,3.654,0.415,4.756,1.396
			c1.277,1.168,1.957,3.058,2.038,5.671l-5.684,0.559c0.012-0.217,0.016-0.428,0.01-0.631c-0.049-2.04-0.784-3.042-2.203-3.007
			l-0.103,0.002C166.271,63.33,165.277,63.959,164.929,65.116z"/>
		<path fill="#FFFFFF" d="M185.765,58.678c5.934-0.145,8.972,2.721,9.115,8.597c0.017,0.714-0.007,1.479-0.072,2.297l-11.465,0.279
			c0.08,3.276,0.966,4.893,2.659,4.852l0.179-0.004c1.486-0.125,2.209-0.991,2.17-2.597c-0.009-0.344-0.052-0.726-0.131-1.145
			l6.102-0.244c0.119,4.856-2.668,7.386-8.361,7.588c-0.068,0.015-0.128,0.022-0.18,0.023c-5.42,0.132-8.205-2.867-8.354-8.998
			l-0.014-0.574C177.424,62.171,180.208,58.813,185.765,58.678z M182.642,66.349l5.796-0.142l-0.011-0.458
			c-0.057-2.32-0.966-3.458-2.727-3.416C183.802,62.38,182.783,63.718,182.642,66.349z"/>
		<path fill="#FFFFFF" d="M207.366,69.917l6.111,0.138c0.112,4.602-2.678,7.003-8.371,7.206c-0.068,0.014-0.127,0.022-0.179,0.023
			c-5.42,0.132-8.205-2.868-8.354-8.999l-0.014-0.574c0.01-6.581,2.819-9.972,8.427-10.172l0.205-0.005
			c5.164-0.125,7.799,2.017,7.907,6.427c0.006,0.255,0.003,0.51-0.007,0.765l-5.507,0.44l-0.011-0.459
			c-0.057-2.319-0.966-3.458-2.727-3.415c-1.795,0.043-2.647,1.946-2.556,5.706l0.015,0.631c0.202,4.064,1.157,6.075,2.867,6.033
			l0.154-0.003c1.485-0.125,2.209-0.991,2.17-2.597C207.488,70.718,207.444,70.336,207.366,69.917z"/>
		<path fill="#FFFFFF" d="M221.228,50.047l0.519,10.758c0.678-1.674,2.333-2.557,4.966-2.646l0.077-0.001
			c2.599-0.063,4.467,0.771,5.604,2.503c0.781,1.18,1.226,3.975,1.333,8.385c0.053,2.167,0.021,4.731-0.095,7.693l-6.463,0.158
			c0.126-3.944,0.163-7,0.11-9.167c-0.026-1.083-0.073-1.95-0.14-2.598c-0.218-1.908-0.977-2.846-2.276-2.814
			c-1.299,0.032-2.125,0.562-2.476,1.591l0.594,13.855l-6.283,0.191c-0.143-5.863-0.717-15.051-1.724-27.564L221.228,50.047z"/>
		<path fill="#FFFFFF" d="M244.629,57.244c5.813-0.142,8.794,2.796,8.94,8.812c0.006,0.242,0.003,0.485-0.008,0.727
			c-0.081,6.519-3.095,9.883-9.044,10.092c-0.068,0.015-0.137,0.022-0.205,0.024c-5.66,0.138-8.564-2.871-8.715-9.028l-0.013-0.535
			C235.595,60.755,238.61,57.391,244.629,57.244z M243.889,61.624c-1.07,0.307-1.781,1.363-2.13,3.17
			c-0.213,1.076-0.307,2.156-0.28,3.24c0.018,0.727,0.087,1.458,0.208,2.195c0.318,1.829,1.222,2.757,2.711,2.785l0.18-0.004
			c1.385-0.034,2.317-0.739,2.797-2.115c0.4-1.145,0.581-2.495,0.543-4.05c-0.009-0.382-0.027-0.771-0.054-1.166
			c-0.187-2.049-0.629-3.32-1.325-3.813c-0.435-0.295-0.951-0.436-1.55-0.421C244.646,61.453,244.279,61.513,243.889,61.624z"/>
		<path fill="#FFFFFF" d="M254.765,69.853l5.868-0.354l0.006,0.249c0.048,1.963,0.884,2.937,2.509,2.923l0.103-0.002
			c1.573-0.038,2.346-0.625,2.318-1.759l-0.003-0.134c-0.099-1.247-1.675-2.216-4.729-2.907s-4.91-1.934-5.57-3.729
			c-0.238-0.632-0.364-1.241-0.378-1.828c-0.026-1.071,0.317-2.074,1.03-3.009c1.094-1.43,2.784-2.274,5.071-2.534
			c0.614-0.065,1.212-0.106,1.793-0.12c1.522-0.037,2.869,0.128,4.042,0.495c1.604,0.509,2.726,1.267,3.366,2.271
			c0.427,0.691,0.652,1.464,0.672,2.318c0.01,0.408-0.022,0.83-0.097,1.265l-5.487,0.229c0.043-0.32,0.062-0.614,0.056-0.881
			c-0.031-1.274-0.595-1.943-1.691-2.006c-0.12-0.01-0.24-0.013-0.359-0.01c-1.129,0.027-1.879,0.473-2.251,1.336
			c-0.13,0.297-0.192,0.566-0.186,0.808c0.015,0.599,0.403,1.106,1.167,1.521c1.075,0.586,2.659,1.169,4.752,1.75
			c2.093,0.581,3.517,1.621,4.272,3.12c0.271,0.567,0.413,1.138,0.427,1.711c0.023,0.969-0.329,1.953-1.058,2.953
			c-1.159,1.597-2.992,2.554-5.499,2.87c-0.546,0.077-1.083,0.122-1.613,0.135c-1.881,0.046-3.634-0.275-5.259-0.962
			C255.961,74.69,254.871,72.784,254.765,69.853z"/>
		<path fill="#FFFFFF" d="M303.277,48.03c0.004,8.583,0.032,17.829,0.085,27.737l-5.822,0.142l-0.271-11.146l-7.31,0.178
			l0.25,10.248l-7.003,0.152c0.092-4.683,0.083-9.261-0.026-13.735c-0.108-4.461-0.317-8.818-0.626-13.07l6.694-0.163l-0.01,11.153
			l7.315,0.051l-0.289-11.835L303.277,48.03z"/>
		<path fill="#FFFFFF" d="M319.513,75.067l-0.332-3.11c-0.678,1.674-2.59,2.556-5.735,2.646c-0.034,0.014-0.06,0.021-0.077,0.021
			c-3.112,0.076-5.198-0.919-6.258-2.985c-0.718-1.373-1.13-4.239-1.236-8.598c-0.055-2.243-0.025-4.89,0.089-7.941l6.232-0.152
			c-0.238,4.291-0.328,7.59-0.272,9.897c0.028,1.16,0.093,2.064,0.194,2.712c0.305,1.982,1.192,2.955,2.663,2.919
			c1.47-0.036,2.381-0.575,2.732-1.616l-0.58-13.262l6.026-0.186c0.133,5.481,0.554,11.86,1.262,19.139L319.513,75.067z"/>
		<path fill="#FFFFFF" d="M330.003,54.763l0.177,3.057c0.888-1.488,1.934-2.426,3.14-2.812c0.713-0.221,1.437-0.341,2.172-0.359
			c0.547-0.013,1.095,0.024,1.646,0.113c1.34,0.223,2.314,1.219,2.921,2.99c0.411-1.4,1.157-2.346,2.241-2.838
			c1.083-0.492,2.291-0.76,3.625-0.806l0.103-0.002c1.299-0.032,2.554,0.174,3.762,0.616c1.226,0.455,2.176,1.34,2.85,2.657
			c0.673,1.316,1.056,3.134,1.146,5.453l0.271,11.108l-5.538,0.23c0.12-4.199,0.145-7.771,0.073-10.715
			c-0.072-2.944-0.863-4.513-2.373-4.706c-0.223-0.02-0.438-0.028-0.643-0.022c-1.197,0.029-2.106,0.625-2.728,1.788
			c-0.07,1.328-0.084,2.878-0.041,4.65c0.059,2.409,0.221,5.217,0.487,8.425l-6.411,0.194c0.119-4.939,0.151-8.536,0.097-10.792
			l-0.006-0.229c-0.071-2.23-0.69-3.389-1.855-3.475l-0.333,0.008c-1.043,0.025-2.041,0.496-2.994,1.412l0.392,13.994l-6.049,0.319
			l-0.076-3.136c-0.135-5.557-0.382-11.105-0.739-16.645L330.003,54.763z"/>
		<path fill="#FFFFFF" d="M365.035,53.757c5.631,0.092,8.496,2.133,8.592,6.123l0.331,13.575l-5.975,0.222l-0.249-1.811
			c-1.206,1.075-2.826,1.637-4.861,1.687c-0.872,0.021-1.815-0.058-2.829-0.237c-3.041-0.487-4.596-2.196-4.667-5.128
			c-0.009-0.357,0.007-0.74,0.049-1.149c0.268-3.029,3.113-4.609,8.533-4.742c1.042-0.025,2.19,0.004,3.441,0.088l-0.054-2.218
			c-0.044-1.797-0.827-2.677-2.349-2.64l-0.103,0.002c-0.12-0.01-0.231-0.014-0.334-0.011c-1.659,0.04-2.463,1.067-2.414,3.081
			l0.007,0.287l-6.114-0.234c-0.108-4.448,2.71-6.743,8.456-6.882L365.035,53.757z M367.558,68.809l-0.082-3.365
			c-0.738-0.097-1.406-0.138-2.005-0.124c-1.556,0.038-2.606,0.453-3.152,1.244c-0.331,0.48-0.491,0.924-0.481,1.332
			c0.012,0.51,0.297,0.956,0.854,1.337c0.435,0.296,0.994,0.435,1.678,0.418C365.242,69.63,366.304,69.349,367.558,68.809z"/>
		<path fill="#FFFFFF" d="M380.246,53.444l0.333,3.11c0.678-1.674,2.546-2.562,5.607-2.662l0.103-0.002
			c3.009-0.073,5.083,0.756,6.22,2.488c0.782,1.18,1.226,3.975,1.333,8.385c0.053,2.167,0.021,4.731-0.095,7.692l-6.207,0.151
			c0.126-3.944,0.163-6.999,0.11-9.166c-0.026-1.083-0.073-1.95-0.14-2.599c-0.218-1.908-1.062-2.844-2.532-2.808
			c-1.471,0.036-2.382,0.568-2.733,1.597l0.594,13.855l-6.027,0.185c-0.143-5.863-0.568-12.44-1.276-19.731L380.246,53.444z"/>
		<path fill="#FFFFFF" d="M404.727,53.345c5.813-0.142,8.794,2.796,8.94,8.812c0.006,0.242,0.003,0.485-0.008,0.727
			c-0.081,6.519-3.096,9.883-9.045,10.092c-0.068,0.014-0.137,0.022-0.205,0.024c-5.66,0.138-8.565-2.872-8.714-9.028l-0.013-0.535
			C395.693,56.855,398.708,53.491,404.727,53.345z M403.987,57.725c-1.07,0.307-1.78,1.363-2.13,3.17
			c-0.214,1.077-0.307,2.157-0.28,3.24c0.018,0.726,0.087,1.458,0.207,2.195c0.318,1.829,1.222,2.757,2.711,2.784l0.18-0.004
			c1.385-0.034,2.317-0.739,2.797-2.115c0.4-1.145,0.581-2.495,0.543-4.05c-0.01-0.382-0.028-0.771-0.054-1.166
			c-0.187-2.048-0.629-3.319-1.325-3.812c-0.436-0.296-0.952-0.436-1.55-0.421C404.744,57.553,404.377,57.613,403.987,57.725z"/>
		<path fill="#FFFFFF" d="M414.863,65.954l5.868-0.354l0.006,0.249c0.048,1.963,0.884,2.938,2.509,2.923l0.103-0.002
			c1.573-0.039,2.346-0.625,2.318-1.759l-0.003-0.134c-0.099-1.247-1.675-2.216-4.729-2.907c-3.054-0.691-4.911-1.934-5.57-3.729
			c-0.238-0.631-0.364-1.241-0.378-1.827c-0.026-1.071,0.317-2.074,1.03-3.009c1.094-1.43,2.784-2.274,5.071-2.534
			c0.614-0.066,1.212-0.106,1.793-0.12c1.521-0.037,2.869,0.128,4.041,0.495c1.604,0.509,2.726,1.267,3.366,2.271
			c0.427,0.691,0.651,1.464,0.672,2.317c0.01,0.408-0.023,0.83-0.097,1.265l-5.487,0.229c0.043-0.32,0.062-0.614,0.056-0.881
			c-0.031-1.274-0.595-1.943-1.691-2.006c-0.12-0.01-0.24-0.013-0.36-0.01c-1.128,0.027-1.879,0.473-2.251,1.336
			c-0.13,0.297-0.191,0.566-0.186,0.808c0.015,0.599,0.403,1.106,1.166,1.521c1.075,0.586,2.659,1.169,4.752,1.75
			s3.517,1.62,4.272,3.12c0.27,0.567,0.413,1.138,0.426,1.711c0.024,0.969-0.329,1.953-1.057,2.953
			c-1.159,1.597-2.992,2.553-5.5,2.87c-0.546,0.077-1.083,0.122-1.614,0.135c-1.881,0.046-3.634-0.275-5.259-0.962
			C416.059,70.79,414.969,68.885,414.863,65.954z"/>
		<path fill="#FFFFFF" d="M449.899,76.674c-4.365-4.995-6.683-11.315-6.955-18.961c-0.155-6.373,1.868-12.162,6.07-17.365
			l5.13-0.125c-3.296,5.182-4.866,10.959-4.711,17.333c0.187,7.647,2.051,13.979,5.596,18.994L449.899,76.674z"/>
		<path fill="#FFFFFF" d="M457.485,70.98c-0.07-4.296-0.161-8.72-0.272-13.27c-0.111-4.563-0.242-9.247-0.394-14.052
			c1.962-0.226,3.772-0.359,5.431-0.4c4.617-0.112,8.036,0.493,10.258,1.816c3.021,1.814,4.662,5.262,4.923,10.344l0.034,1.376
			c0.106,4.359-0.383,7.483-1.466,9.372c-1.198,2.083-3.448,3.502-6.749,4.258c-1.906,0.442-4.004,0.691-6.295,0.747
			C461.246,71.213,459.422,71.15,457.485,70.98z M463.313,48.972c-0.189,4.201-0.235,8.257-0.14,12.17
			c0.036,1.479,0.088,2.932,0.158,4.358c0.601,0.087,1.175,0.125,1.722,0.111c1.504-0.036,2.761-0.456,3.768-1.258
			c1.376-1.079,2.021-3.442,1.932-7.087l-0.001-0.076c-0.107-3.671-0.85-6.063-2.228-7.177c-1.064-0.841-2.314-1.245-3.751-1.209
			C464.311,48.813,463.824,48.87,463.313,48.972z"/>
		<path fill="#FFFFFF" d="M479.927,70.433c-0.07-4.296-0.161-8.72-0.271-13.27c-0.111-4.563-0.243-9.247-0.394-14.051
			c1.962-0.227,3.772-0.36,5.431-0.4c4.617-0.112,8.036,0.493,10.258,1.816c3.021,1.814,4.662,5.262,4.923,10.345l0.034,1.376
			c0.106,4.359-0.382,7.483-1.466,9.372c-1.198,2.083-3.448,3.502-6.749,4.258c-1.905,0.442-4.004,0.69-6.295,0.747
			C483.688,70.667,481.865,70.603,479.927,70.433z M485.756,48.425c-0.189,4.201-0.235,8.258-0.14,12.17
			c0.036,1.479,0.088,2.932,0.157,4.358c0.601,0.087,1.175,0.124,1.722,0.111c1.505-0.037,2.761-0.456,3.768-1.259
			c1.376-1.079,2.021-3.441,1.932-7.087l-0.002-0.077c-0.107-3.67-0.85-6.063-2.228-7.177c-1.064-0.841-2.314-1.245-3.751-1.209
			C486.753,48.267,486.267,48.323,485.756,48.425z"/>
		<path fill="#FFFFFF" d="M522.444,42.691c0.004,8.583,0.032,17.829,0.085,27.737l-5.822,0.142l-0.271-11.146l-7.31,0.178
			l0.25,10.248l-7.002,0.151c0.091-4.683,0.083-9.261-0.026-13.735c-0.109-4.461-0.317-8.818-0.626-13.07l6.694-0.163l-0.011,11.153
			l7.315,0.051l-0.288-11.835L522.444,42.691z"/>
		<path fill="#FFFFFF" d="M545.63,42.126c0.003,8.583,0.032,17.829,0.085,27.737l-5.822,0.142l-0.271-11.146l-7.31,0.178
			l0.25,10.248l-7.002,0.151c0.091-4.683,0.082-9.261-0.027-13.735c-0.108-4.461-0.317-8.817-0.626-13.07l6.694-0.163l-0.011,11.153
			l7.316,0.052l-0.289-11.835L545.63,42.126z"/>
		<path fill="#FFFFFF" d="M548.851,74.264c3.295-5.182,4.85-11.597,4.664-19.244c-0.155-6.373-2.005-12.067-5.549-17.083
			l5.129-0.125c4.45,4.993,6.753,10.676,6.908,17.049c0.101,7.65-1.907,14.076-6.023,19.277L548.851,74.264z"/>
		<path fill="#FFFFFF" d="M571.774,49.199l6.71-0.565c-0.061,3.828-0.061,6.978-0.001,9.45c0.022,0.931,0.06,1.766,0.112,2.504
			c0.135,2.726,0.989,4.108,2.565,4.146c0.103,0.01,0.197,0.014,0.282,0.012c1.402-0.034,2.277-0.655,2.624-1.862
			c0.188-0.706,0.25-2.372,0.186-4.998c-0.051-2.103-0.186-4.816-0.404-8.14l6.301-0.498c0.163,3.886,0.279,7.225,0.347,10.016
			c0.085,3.479,0.098,6.107,0.038,7.881c-0.093,3.19-1.257,5.642-3.491,7.354c-2.016,1.554-4.878,2.376-8.589,2.467
			c-0.427,0.01-0.864,0.008-1.309-0.006l-0.832-4.647c0.325,0.004,0.642,0.003,0.949-0.004c2.873-0.07,4.83-0.494,5.872-1.271
			c1.075-0.804,1.592-2.066,1.55-3.788l-0.007-0.306c-0.947,1.171-2.429,1.781-4.446,1.83l-0.359,0.009
			c-2.208-0.023-3.934-0.628-5.177-1.816c-1.244-1.188-1.948-2.879-2.113-5.075C572.418,59.696,572.149,55.465,571.774,49.199z"/>
	</g>
	
		<rect x="0.503" y="89.165" transform="matrix(0.9997 -0.0243 0.0243 0.9997 -2.6741 8.7678)" fill="#A0C219" width="716.374" height="50.045"/>
	<g>
		<g>
			<path fill="#FFFFFF" d="M22.79,132.09c-0.071-4.296-0.161-8.719-0.272-13.27c-0.111-4.563-0.243-9.247-0.394-14.051
				c1.962-0.226,3.772-0.36,5.431-0.4c4.617-0.113,8.036,0.493,10.258,1.816c3.021,1.814,4.662,5.262,4.923,10.345l0.033,1.376
				c0.106,4.359-0.382,7.483-1.465,9.372c-1.198,2.083-3.448,3.502-6.749,4.258c-1.906,0.442-4.004,0.69-6.295,0.747
				C26.55,132.324,24.727,132.26,22.79,132.09z M28.618,110.082c-0.189,4.201-0.235,8.258-0.14,12.171
				c0.036,1.479,0.088,2.931,0.158,4.358c0.601,0.087,1.175,0.125,1.722,0.111c1.504-0.037,2.761-0.456,3.768-1.259
				c1.376-1.079,2.021-3.441,1.932-7.087l-0.002-0.077c-0.106-3.67-0.849-6.063-2.228-7.177c-1.064-0.841-2.314-1.244-3.751-1.209
				C29.615,109.923,29.129,109.98,28.618,110.082z"/>
			<path fill="#FFFFFF" d="M52.902,112.437c5.934-0.145,8.972,2.721,9.115,8.597c0.018,0.714-0.007,1.479-0.072,2.297l-11.465,0.279
				c0.08,3.276,0.966,4.893,2.659,4.852l0.18-0.004c1.485-0.125,2.208-0.991,2.169-2.597c-0.008-0.344-0.052-0.726-0.13-1.145
				l6.102-0.244c0.118,4.856-2.669,7.386-8.361,7.588c-0.068,0.015-0.128,0.022-0.179,0.023c-5.42,0.132-8.205-2.867-8.354-8.998
				l-0.014-0.574C44.561,115.93,47.345,112.572,52.902,112.437z M49.778,120.107l5.796-0.141l-0.011-0.459
				c-0.056-2.32-0.965-3.458-2.727-3.416C50.939,116.138,49.919,117.477,49.778,120.107z"/>
			<path fill="#FFFFFF" d="M70.692,117.934l0.594,13.855l-6.283,0.191c-0.143-5.863-0.569-12.44-1.276-19.731l4.71-0.497l0.333,3.11
				c0.681-1.547,2.335-2.461,4.963-2.742c0.393-0.035,0.769-0.057,1.127-0.065c2.069-0.05,3.654,0.415,4.756,1.396
				c1.277,1.167,1.956,3.058,2.037,5.67l-5.684,0.559c0.011-0.217,0.015-0.427,0.01-0.631c-0.05-2.039-0.784-3.042-2.204-3.007
				l-0.103,0.002C72.035,116.147,71.041,116.777,70.692,117.934z"/>
			<path fill="#FFFFFF" d="M91.529,111.496c5.933-0.145,8.972,2.721,9.115,8.597c0.017,0.714-0.007,1.48-0.073,2.297l-11.465,0.279
				c0.08,3.276,0.966,4.893,2.659,4.852l0.18-0.004c1.485-0.125,2.208-0.991,2.169-2.598c-0.008-0.344-0.052-0.726-0.13-1.145
				l6.102-0.244c0.118,4.856-2.668,7.386-8.361,7.588c-0.068,0.015-0.127,0.022-0.179,0.023c-5.421,0.132-8.205-2.867-8.354-8.998
				l-0.014-0.574C83.187,114.989,85.971,111.631,91.529,111.496z M88.405,119.167l5.797-0.141l-0.011-0.459
				c-0.057-2.32-0.966-3.458-2.727-3.416C89.566,115.197,88.546,116.536,88.405,119.167z"/>
			<path fill="#FFFFFF" d="M113.129,122.735l6.111,0.138c0.112,4.602-2.678,7.004-8.37,7.206c-0.068,0.015-0.128,0.022-0.179,0.023
				c-5.421,0.132-8.206-2.867-8.354-8.999l-0.014-0.573c0.011-6.582,2.819-9.972,8.426-10.172l0.206-0.005
				c5.164-0.126,7.799,2.017,7.907,6.426c0.006,0.255,0.004,0.51-0.007,0.766l-5.507,0.44l-0.011-0.459
				c-0.057-2.319-0.966-3.458-2.727-3.415c-1.795,0.043-2.647,1.946-2.556,5.706l0.016,0.631c0.202,4.064,1.157,6.075,2.867,6.033
				l0.154-0.004c1.485-0.125,2.208-0.991,2.169-2.597C113.251,123.535,113.208,123.154,113.129,122.735z"/>
			<path fill="#FFFFFF" d="M126.991,102.865l0.519,10.758c0.678-1.674,2.333-2.556,4.966-2.646l0.077-0.002
				c2.599-0.063,4.467,0.771,5.604,2.503c0.781,1.18,1.226,3.975,1.333,8.385c0.053,2.167,0.021,4.731-0.095,7.693l-6.463,0.157
				c0.126-3.944,0.163-6.999,0.11-9.167c-0.026-1.083-0.073-1.949-0.14-2.598c-0.218-1.908-0.977-2.846-2.275-2.814
				c-1.3,0.032-2.125,0.562-2.477,1.59l0.594,13.855l-6.283,0.191c-0.143-5.863-0.717-15.051-1.723-27.563L126.991,102.865z"/>
			<path fill="#FFFFFF" d="M150.392,110.062c5.813-0.142,8.794,2.796,8.94,8.812c0.006,0.242,0.003,0.485-0.008,0.728
				c-0.081,6.519-3.095,9.883-9.044,10.091c-0.068,0.015-0.136,0.022-0.205,0.024c-5.66,0.138-8.564-2.872-8.714-9.028l-0.013-0.536
				C141.358,113.572,144.373,110.208,150.392,110.062z M149.652,114.441c-1.07,0.307-1.78,1.364-2.13,3.17
				c-0.213,1.076-0.307,2.157-0.28,3.24c0.018,0.727,0.087,1.458,0.208,2.195c0.318,1.829,1.222,2.757,2.711,2.785l0.18-0.004
				c1.385-0.034,2.317-0.739,2.797-2.115c0.399-1.145,0.581-2.494,0.543-4.05c-0.01-0.382-0.028-0.771-0.054-1.166
				c-0.187-2.049-0.629-3.32-1.325-3.813c-0.435-0.295-0.952-0.436-1.55-0.421C150.409,114.27,150.042,114.33,149.652,114.441z"/>
			<path fill="#FFFFFF" d="M177.74,127.57l-6.376,0.595c-0.228-9.355-0.646-18.133-1.257-26.332l7.298-0.637
				C177.428,109.856,177.54,118.647,177.74,127.57z"/>
			<path fill="#FFFFFF" d="M184.569,108.732l0.333,3.11c0.678-1.674,2.546-2.562,5.607-2.662l0.103-0.002
				c3.009-0.073,5.083,0.756,6.22,2.489c0.782,1.18,1.226,3.975,1.333,8.385c0.053,2.167,0.021,4.731-0.095,7.693l-6.207,0.151
				c0.126-3.944,0.163-7,0.11-9.167c-0.026-1.083-0.073-1.95-0.14-2.598c-0.218-1.908-1.062-2.844-2.532-2.808
				c-1.471,0.036-2.382,0.568-2.733,1.597l0.594,13.855l-6.026,0.185c-0.143-5.863-0.569-12.44-1.276-19.731L184.569,108.732z"/>
			<path fill="#FFFFFF" d="M204.157,102.649l5.815-0.428l0.154,6.328l4.897-0.215l0.165,3.612l-4.972,0.293l0.212,8.7
				c0.049,2.026,1.229,3.012,3.537,2.956c0.479-0.012,1-0.069,1.562-0.172l-0.128,4.212c-0.819,0.097-1.596,0.154-2.332,0.172
				c-5.403,0.131-8.207-1.879-8.41-6.032l-0.228-9.35l-4.202,0.294l-0.207-4.261l4.31-0.067L204.157,102.649z"/>
			<path fill="#FFFFFF" d="M225.568,108.23c5.934-0.145,8.972,2.722,9.115,8.597c0.018,0.714-0.007,1.48-0.072,2.298l-11.465,0.279
				c0.08,3.276,0.966,4.893,2.659,4.852l0.18-0.004c1.485-0.125,2.208-0.991,2.169-2.597c-0.008-0.344-0.052-0.726-0.13-1.145
				l6.102-0.245c0.119,4.856-2.668,7.386-8.361,7.588c-0.068,0.015-0.128,0.022-0.179,0.023c-5.42,0.132-8.205-2.867-8.354-8.999
				l-0.014-0.573C217.227,111.724,220.011,108.366,225.568,108.23z M222.444,115.902l5.796-0.142l-0.011-0.459
				c-0.056-2.319-0.965-3.458-2.727-3.415C223.605,111.933,222.585,113.271,222.444,115.902z"/>
			<path fill="#FFFFFF" d="M243.358,113.728l0.594,13.855l-6.283,0.191c-0.143-5.863-0.568-12.44-1.276-19.731l4.71-0.497
				l0.333,3.11c0.681-1.547,2.335-2.46,4.963-2.742c0.392-0.035,0.769-0.057,1.127-0.065c2.069-0.051,3.654,0.415,4.756,1.395
				c1.277,1.168,1.957,3.058,2.038,5.67l-5.684,0.56c0.012-0.217,0.016-0.428,0.011-0.632c-0.05-2.039-0.784-3.042-2.204-3.007
				l-0.103,0.002C244.701,111.942,243.707,112.572,243.358,113.728z"/>
			<path fill="#FFFFFF" d="M260.566,106.881l0.333,3.11c0.678-1.674,2.546-2.561,5.607-2.662l0.103-0.002
				c3.009-0.073,5.083,0.756,6.22,2.489c0.782,1.18,1.227,3.975,1.334,8.385c0.053,2.167,0.021,4.731-0.095,7.693l-6.207,0.151
				c0.126-3.944,0.163-7,0.11-9.167c-0.026-1.083-0.073-1.95-0.14-2.598c-0.218-1.908-1.062-2.844-2.532-2.808
				s-2.382,0.568-2.733,1.597l0.594,13.855l-6.026,0.185c-0.143-5.863-0.568-12.44-1.276-19.73L260.566,106.881z"/>
			<path fill="#FFFFFF" d="M285.931,106.206c5.631,0.092,8.495,2.134,8.592,6.123l0.331,13.575l-5.974,0.222l-0.25-1.812
				c-1.206,1.075-2.826,1.638-4.86,1.687c-0.872,0.021-1.815-0.058-2.829-0.237c-3.04-0.487-4.596-2.197-4.667-5.128
				c-0.009-0.357,0.007-0.74,0.049-1.149c0.268-3.029,3.112-4.61,8.533-4.742c1.043-0.025,2.19,0.004,3.441,0.089l-0.054-2.218
				c-0.043-1.797-0.826-2.677-2.348-2.64l-0.103,0.003c-0.12-0.01-0.231-0.014-0.334-0.011c-1.659,0.041-2.463,1.068-2.415,3.082
				l0.007,0.287l-6.114-0.234c-0.108-4.448,2.71-6.742,8.456-6.882L285.931,106.206z M288.454,121.257l-0.082-3.365
				c-0.738-0.097-1.407-0.138-2.005-0.123c-1.556,0.038-2.606,0.453-3.152,1.244c-0.331,0.48-0.491,0.924-0.481,1.332
				c0.013,0.51,0.297,0.956,0.854,1.338c0.435,0.295,0.995,0.435,1.679,0.418C286.138,122.079,287.2,121.798,288.454,121.257z"/>
			<path fill="#FFFFFF" d="M307.211,118.007l6.111,0.138c0.112,4.602-2.678,7.003-8.37,7.206c-0.068,0.015-0.128,0.022-0.179,0.023
				c-5.421,0.132-8.206-2.867-8.355-8.998l-0.014-0.574c0.011-6.581,2.819-9.972,8.427-10.172l0.205-0.005
				c5.164-0.126,7.799,2.017,7.907,6.427c0.006,0.255,0.004,0.51-0.007,0.765l-5.507,0.44l-0.011-0.459
				c-0.057-2.32-0.966-3.458-2.727-3.416c-1.795,0.044-2.647,1.946-2.556,5.706l0.015,0.631c0.202,4.063,1.157,6.074,2.867,6.033
				l0.154-0.004c1.486-0.125,2.209-0.991,2.17-2.597C307.333,118.808,307.29,118.426,307.211,118.007z"/>
			<path fill="#FFFFFF" d="M322.233,101.476c0.019,0.778-0.333,1.45-1.055,2.015c-0.722,0.566-1.604,0.862-2.647,0.887
				c-1.026,0.025-1.913-0.228-2.662-0.758c-0.749-0.53-1.132-1.184-1.151-1.961c-0.019-0.765,0.333-1.43,1.055-1.996
				c0.722-0.566,1.596-0.862,2.622-0.887c1.042-0.025,1.939,0.228,2.688,0.757C321.831,100.064,322.214,100.711,322.233,101.476z
				 M315.947,125.772c-0.302-7.454-0.518-13.895-0.65-19.325l6.456-0.444c-0.078,5.206-0.055,10.377,0.07,15.514
				c0.033,1.376,0.075,2.747,0.126,4.11L315.947,125.772z"/>
			<path fill="#FFFFFF" d="M332.779,105.619c5.813-0.142,8.794,2.796,8.94,8.812c0.006,0.242,0.003,0.485-0.008,0.727
				c-0.081,6.52-3.096,9.883-9.044,10.092c-0.068,0.015-0.137,0.022-0.205,0.024c-5.66,0.138-8.564-2.872-8.714-9.028l-0.013-0.536
				C323.745,109.13,326.76,105.766,332.779,105.619z M332.039,109.999c-1.07,0.307-1.78,1.363-2.13,3.17
				c-0.213,1.076-0.307,2.157-0.28,3.24c0.018,0.727,0.087,1.458,0.208,2.195c0.318,1.829,1.222,2.757,2.711,2.785l0.179-0.004
				c1.385-0.034,2.317-0.739,2.797-2.115c0.399-1.145,0.581-2.495,0.543-4.05c-0.009-0.382-0.028-0.771-0.054-1.166
				c-0.187-2.049-0.628-3.32-1.325-3.813c-0.435-0.295-0.952-0.436-1.55-0.421C332.795,109.828,332.429,109.888,332.039,109.999z"/>
			<path fill="#FFFFFF" d="M347.617,104.76l0.333,3.11c0.678-1.674,2.546-2.562,5.607-2.662l0.103-0.002
				c3.009-0.073,5.083,0.756,6.22,2.488c0.782,1.18,1.226,3.975,1.333,8.385c0.053,2.167,0.021,4.731-0.095,7.693l-6.207,0.151
				c0.126-3.944,0.163-6.999,0.11-9.166c-0.026-1.083-0.073-1.95-0.141-2.599c-0.217-1.908-1.062-2.844-2.532-2.808
				c-1.471,0.036-2.382,0.568-2.733,1.597l0.594,13.855l-6.027,0.185c-0.143-5.863-0.568-12.44-1.276-19.731L347.617,104.76z"/>
			<path fill="#FFFFFF" d="M372.982,104.085c5.631,0.092,8.495,2.133,8.592,6.123l0.331,13.574l-5.974,0.222l-0.249-1.811
				c-1.206,1.075-2.826,1.637-4.861,1.687c-0.872,0.021-1.815-0.058-2.829-0.237c-3.041-0.487-4.596-2.196-4.667-5.128
				c-0.009-0.357,0.007-0.74,0.049-1.149c0.268-3.029,3.113-4.61,8.533-4.742c1.042-0.025,2.19,0.004,3.441,0.088l-0.054-2.218
				c-0.044-1.797-0.827-2.677-2.349-2.64l-0.103,0.002c-0.12-0.01-0.231-0.014-0.334-0.011c-1.659,0.041-2.463,1.068-2.414,3.082
				l0.007,0.287l-6.114-0.233c-0.108-4.448,2.71-6.743,8.456-6.883L372.982,104.085z M375.505,119.137l-0.082-3.365
				c-0.738-0.097-1.407-0.138-2.005-0.123c-1.556,0.038-2.607,0.453-3.152,1.244c-0.331,0.48-0.491,0.924-0.481,1.332
				c0.012,0.51,0.297,0.956,0.854,1.337c0.435,0.295,0.994,0.435,1.678,0.418C373.189,119.958,374.251,119.678,375.505,119.137z"/>
			<path fill="#FFFFFF" d="M391.164,123.519l-6.376,0.595c-0.034-4.22-0.099-8.281-0.194-12.181
				c-0.133-5.481-0.328-10.648-0.583-15.501l6.282-0.229c0.007,3.125,0.051,6.331,0.131,9.62
				C390.563,111.494,390.809,117.394,391.164,123.519z"/>
			<path fill="#FFFFFF" d="M423.206,95.63c0.004,8.583,0.032,17.829,0.085,27.737l-5.822,0.142l-0.271-11.146l-7.31,0.178
				l0.25,10.248l-7.003,0.152c0.092-4.683,0.083-9.262-0.026-13.735c-0.108-4.461-0.317-8.818-0.626-13.07l6.694-0.163l-0.01,11.154
				l7.315,0.051l-0.289-11.835L423.206,95.63z"/>
			<path fill="#FFFFFF" d="M439.442,122.668l-0.332-3.11c-0.678,1.675-2.59,2.557-5.736,2.646c-0.034,0.014-0.06,0.021-0.077,0.021
				c-3.112,0.076-5.198-0.919-6.257-2.985c-0.718-1.373-1.13-4.239-1.236-8.598c-0.055-2.243-0.025-4.89,0.089-7.941l6.232-0.151
				c-0.238,4.291-0.328,7.59-0.272,9.897c0.028,1.16,0.093,2.064,0.195,2.712c0.305,1.982,1.192,2.955,2.663,2.919
				c1.47-0.036,2.381-0.575,2.732-1.616l-0.58-13.263l6.027-0.185c0.133,5.481,0.554,11.86,1.262,19.138L439.442,122.668z"/>
			<path fill="#FFFFFF" d="M449.932,102.364l0.177,3.057c0.888-1.488,1.934-2.425,3.139-2.812c0.713-0.221,1.438-0.341,2.173-0.359
				c0.547-0.013,1.095,0.024,1.645,0.113c1.34,0.223,2.314,1.219,2.922,2.99c0.41-1.4,1.157-2.346,2.24-2.838
				c1.083-0.492,2.292-0.76,3.625-0.806l0.103-0.002c1.299-0.032,2.553,0.174,3.762,0.616c1.226,0.455,2.176,1.34,2.85,2.657
				c0.673,1.316,1.055,3.134,1.146,5.453l0.271,11.108l-5.538,0.23c0.12-4.199,0.145-7.771,0.073-10.715s-0.863-4.513-2.373-4.706
				c-0.223-0.02-0.437-0.028-0.642-0.022c-1.197,0.029-2.106,0.625-2.728,1.788c-0.07,1.328-0.084,2.878-0.041,4.649
				c0.059,2.409,0.221,5.218,0.488,8.425l-6.411,0.194c0.119-4.938,0.151-8.536,0.096-10.792l-0.005-0.229
				c-0.072-2.229-0.69-3.388-1.855-3.475l-0.333,0.008c-1.043,0.025-2.041,0.496-2.994,1.412l0.392,13.994l-6.049,0.32l-0.076-3.136
				c-0.135-5.557-0.382-11.105-0.739-16.645L449.932,102.364z"/>
			<path fill="#FFFFFF" d="M484.964,101.358c5.631,0.092,8.495,2.133,8.592,6.123l0.331,13.575l-5.974,0.222l-0.25-1.811
				c-1.206,1.075-2.826,1.637-4.861,1.687c-0.872,0.021-1.815-0.058-2.829-0.237c-3.04-0.487-4.596-2.196-4.667-5.128
				c-0.009-0.356,0.007-0.739,0.049-1.149c0.268-3.029,3.112-4.61,8.533-4.742c1.042-0.025,2.19,0.004,3.441,0.088l-0.054-2.218
				c-0.044-1.797-0.827-2.677-2.349-2.64l-0.103,0.002c-0.12-0.01-0.231-0.014-0.334-0.011c-1.659,0.041-2.463,1.068-2.415,3.082
				l0.007,0.287l-6.114-0.233c-0.108-4.448,2.71-6.743,8.456-6.883L484.964,101.358z M487.486,116.41l-0.082-3.365
				c-0.738-0.097-1.407-0.138-2.005-0.124c-1.556,0.038-2.607,0.453-3.152,1.244c-0.331,0.48-0.491,0.924-0.481,1.332
				c0.012,0.51,0.297,0.956,0.854,1.337c0.435,0.295,0.994,0.435,1.678,0.418C485.17,117.231,486.233,116.95,487.486,116.41z"/>
			<path fill="#FFFFFF" d="M500.175,101.044l0.333,3.11c0.678-1.674,2.546-2.562,5.606-2.662l0.103-0.002
				c3.009-0.073,5.083,0.756,6.22,2.488c0.781,1.18,1.226,3.975,1.333,8.385c0.053,2.167,0.021,4.731-0.095,7.692l-6.207,0.151
				c0.126-3.944,0.163-6.999,0.11-9.167c-0.026-1.083-0.073-1.949-0.141-2.598c-0.217-1.908-1.062-2.844-2.532-2.808
				c-1.471,0.036-2.381,0.568-2.732,1.597l0.594,13.855l-6.026,0.185c-0.143-5.863-0.568-12.44-1.276-19.731L500.175,101.044z"/>
			<path fill="#FFFFFF" d="M522.702,96.593c0.019,0.777-0.333,1.449-1.054,2.015c-0.722,0.566-1.605,0.862-2.647,0.887
				c-1.026,0.025-1.914-0.228-2.662-0.758c-0.749-0.53-1.133-1.184-1.151-1.961c-0.019-0.765,0.333-1.43,1.055-1.996
				s1.596-0.862,2.622-0.887c1.043-0.025,1.939,0.227,2.688,0.757C522.299,95.181,522.683,95.829,522.702,96.593z M516.416,120.889
				c-0.301-7.454-0.518-13.896-0.65-19.325l6.457-0.444c-0.079,5.206-0.055,10.377,0.07,15.513c0.034,1.377,0.076,2.747,0.126,4.11
				L516.416,120.889z"/>
			<path fill="#FFFFFF" d="M528.354,94.753l5.815-0.429l0.154,6.329l4.896-0.215l0.165,3.611l-4.972,0.293l0.212,8.699
				c0.049,2.027,1.229,3.012,3.537,2.956c0.479-0.011,1-0.069,1.561-0.172l-0.128,4.212c-0.819,0.097-1.597,0.154-2.332,0.172
				c-5.403,0.131-8.207-1.879-8.411-6.032l-0.228-9.35l-4.202,0.293l-0.207-4.261l4.31-0.067L528.354,94.753z"/>
			<path fill="#FFFFFF" d="M551.342,99.741c5.631,0.093,8.495,2.134,8.593,6.123l0.33,13.575l-5.974,0.222l-0.25-1.812
				c-1.206,1.075-2.826,1.638-4.86,1.688c-0.872,0.021-1.815-0.058-2.829-0.237c-3.04-0.487-4.596-2.196-4.667-5.128
				c-0.009-0.356,0.007-0.74,0.049-1.149c0.268-3.029,3.112-4.61,8.533-4.742c1.043-0.025,2.19,0.004,3.441,0.088l-0.054-2.218
				c-0.043-1.797-0.826-2.677-2.348-2.64l-0.103,0.002c-0.12-0.01-0.231-0.014-0.334-0.011c-1.659,0.041-2.463,1.068-2.415,3.082
				l0.007,0.287l-6.114-0.233c-0.108-4.448,2.71-6.743,8.456-6.883L551.342,99.741z M553.865,114.792l-0.082-3.365
				c-0.738-0.097-1.406-0.138-2.005-0.124c-1.556,0.038-2.606,0.453-3.152,1.244c-0.331,0.48-0.491,0.924-0.481,1.332
				c0.013,0.51,0.297,0.956,0.854,1.337c0.435,0.295,0.995,0.435,1.679,0.418C551.549,115.614,552.612,115.333,553.865,114.792z"/>
			<path fill="#FFFFFF" d="M568.813,105.801l0.594,13.855l-6.283,0.191c-0.143-5.863-0.568-12.44-1.276-19.731l4.71-0.497
				l0.332,3.11c0.681-1.547,2.335-2.46,4.963-2.742c0.393-0.035,0.769-0.057,1.127-0.065c2.069-0.05,3.655,0.415,4.756,1.395
				c1.277,1.168,1.957,3.058,2.037,5.671l-5.684,0.559c0.012-0.217,0.015-0.427,0.01-0.631c-0.05-2.04-0.784-3.042-2.203-3.007
				l-0.103,0.002C570.155,104.015,569.161,104.645,568.813,105.801z"/>
			<path fill="#FFFFFF" d="M588.388,94.993c0.019,0.778-0.333,1.45-1.054,2.015c-0.722,0.566-1.605,0.862-2.647,0.887
				c-1.026,0.025-1.914-0.228-2.662-0.758c-0.749-0.53-1.132-1.184-1.151-1.961c-0.019-0.765,0.333-1.43,1.055-1.996
				s1.596-0.861,2.622-0.887c1.043-0.025,1.939,0.228,2.688,0.757C587.985,93.581,588.369,94.229,588.388,94.993z M582.102,119.289
				c-0.301-7.454-0.518-13.895-0.65-19.325l6.457-0.444c-0.079,5.205-0.055,10.376,0.07,15.513c0.034,1.376,0.076,2.747,0.126,4.11
				L582.102,119.289z"/>
			<path fill="#FFFFFF" d="M598.934,99.136c5.813-0.142,8.793,2.796,8.94,8.812c0.006,0.243,0.003,0.485-0.008,0.727
				c-0.081,6.52-3.096,9.883-9.044,10.092c-0.068,0.015-0.137,0.022-0.205,0.024c-5.66,0.138-8.564-2.872-8.714-9.028l-0.013-0.536
				C589.9,102.647,592.915,99.283,598.934,99.136z M598.193,103.516c-1.07,0.307-1.78,1.363-2.13,3.17
				c-0.213,1.077-0.307,2.157-0.28,3.24c0.018,0.727,0.087,1.458,0.208,2.195c0.318,1.829,1.222,2.757,2.711,2.784l0.18-0.004
				c1.385-0.034,2.317-0.739,2.797-2.115c0.399-1.145,0.581-2.495,0.543-4.05c-0.009-0.382-0.028-0.771-0.054-1.166
				c-0.187-2.049-0.628-3.32-1.325-3.813c-0.435-0.295-0.952-0.436-1.55-0.421C598.951,103.345,598.584,103.405,598.193,103.516z"/>
			<path fill="#FFFFFF" d="M625.895,122.91c-4.365-4.995-6.683-11.315-6.955-18.961c-0.155-6.373,1.868-12.162,6.07-17.365
				l5.13-0.125c-3.296,5.182-4.866,10.959-4.711,17.333c0.187,7.647,2.051,13.979,5.596,18.994L625.895,122.91z"/>
			<path fill="#FFFFFF" d="M633.481,117.215c-0.07-4.296-0.161-8.72-0.271-13.27c-0.111-4.563-0.243-9.247-0.394-14.052
				c1.961-0.226,3.772-0.359,5.431-0.4c4.617-0.112,8.036,0.493,10.259,1.816c3.021,1.814,4.662,5.262,4.922,10.344l0.034,1.376
				c0.106,4.359-0.382,7.483-1.466,9.372c-1.198,2.083-3.448,3.502-6.748,4.258c-1.906,0.442-4.004,0.691-6.295,0.747
				C637.242,117.449,635.418,117.385,633.481,117.215z M639.31,95.207c-0.188,4.201-0.235,8.257-0.14,12.17
				c0.036,1.479,0.088,2.932,0.157,4.358c0.601,0.087,1.175,0.125,1.722,0.111c1.505-0.036,2.761-0.456,3.768-1.258
				c1.377-1.079,2.021-3.442,1.932-7.087l-0.002-0.076c-0.107-3.671-0.849-6.063-2.228-7.177c-1.064-0.841-2.314-1.245-3.75-1.209
				C640.307,95.049,639.821,95.105,639.31,95.207z"/>
			<path fill="#FFFFFF" d="M662.908,115.752l-6.376,0.595c-0.228-9.355-0.647-18.133-1.257-26.332l7.299-0.637
				C662.596,98.039,662.707,106.83,662.908,115.752z"/>
			<path fill="#FFFFFF" d="M685.77,89.235c0.003,8.583,0.032,17.829,0.085,27.737l-5.822,0.142l-0.272-11.146l-7.31,0.178
				l0.25,10.248l-7.002,0.151c0.091-4.683,0.083-9.261-0.026-13.735c-0.109-4.461-0.318-8.818-0.626-13.07l6.694-0.163l-0.01,11.153
				l7.315,0.051l-0.289-11.835L685.77,89.235z"/>
			<path fill="#FFFFFF" d="M688.991,121.373c3.295-5.181,4.85-11.596,4.664-19.244c-0.155-6.373-2.005-12.067-5.548-17.083
				l5.129-0.125c4.45,4.993,6.753,10.676,6.908,17.049c0.101,7.65-1.907,14.076-6.023,19.277L688.991,121.373z"/>
		</g>
	</g>
</g>
</svg>
