<?xml version="1.0" encoding="utf-8"?>
<!-- Generator: Adobe Illustrator 16.0.0, SVG Export Plug-In . SVG Version: 6.00 Build 0)  -->
<!DOCTYPE svg PUBLIC "-//W3C//DTD SVG 1.1//EN" "http://www.w3.org/Graphics/SVG/1.1/DTD/svg11.dtd">
<svg version="1.1" id="Capa_1" xmlns="http://www.w3.org/2000/svg" xmlns:xlink="http://www.w3.org/1999/xlink" x="0px" y="0px"
	 width="759.461px" height="332.717px" viewBox="0 0 759.461 332.717" enable-background="new 0 0 759.461 332.717"
	 xml:space="preserve">
<g>
	<rect y="300.717" fill="#007893" width="167.293" height="32"/>
	<rect x="173.544" y="36.5" fill="#0093AF" width="290.921" height="296.215"/>
	<rect x="468.541" y="37.025" fill="#A0C219" width="290.92" height="295.69"/>
	<g>
		<path fill="#FFFFFF" d="M51.046,320.868c0.104-2.227,0.157-4.395,0.157-6.504c0-2.436-0.07-4.795-0.21-7.08l3.852-0.137
			l3.538,7.354c-0.035-2.525-0.132-5.111-0.289-7.754l4.049-0.039c-0.402,3.991-0.604,8.021-0.604,12.09
			c0,0.547,0.005,1.094,0.014,1.641l-3.551,0.029l-3.772-7.871c0.113,2.904,0.218,5.604,0.314,8.096L51.046,320.868z"/>
		<path fill="#FFFFFF" d="M67.906,311.122c2.97,0,4.454,1.537,4.454,4.609c0,0.123-0.004,0.248-0.013,0.371
			c-0.123,3.326-1.703,5.006-4.742,5.039c-0.035,0.006-0.07,0.01-0.105,0.01c-2.891,0-4.336-1.572-4.336-4.717v-0.273
			C63.251,312.801,64.832,311.122,67.906,311.122z M67.475,313.349c-0.551,0.144-0.927,0.674-1.127,1.592
			c-0.123,0.547-0.184,1.098-0.184,1.649c0,0.371,0.026,0.746,0.078,1.123c0.14,0.938,0.59,1.422,1.35,1.455h0.092
			c0.707,0,1.192-0.349,1.454-1.045c0.219-0.58,0.328-1.267,0.328-2.062c0-0.195-0.005-0.395-0.014-0.597
			c-0.069-1.048-0.279-1.703-0.629-1.963c-0.218-0.156-0.48-0.233-0.786-0.233C67.862,313.271,67.675,313.296,67.475,313.349z"/>
		<path fill="#FFFFFF" d="M76.566,314.149l0.131,7.08l-3.21,0.02c0-2.995-0.136-6.357-0.406-10.088l2.411-0.195l0.131,1.592
			c0.366-0.781,1.223-1.227,2.567-1.338c0.201-0.013,0.393-0.02,0.576-0.02c1.057,0,1.86,0.257,2.411,0.771
			c0.637,0.611,0.96,1.585,0.969,2.921l-2.908,0.215c0.009-0.111,0.014-0.22,0.014-0.322c0-1.042-0.363-1.562-1.088-1.562h-0.053
			C77.273,313.254,76.758,313.563,76.566,314.149z"/>
		<path fill="#FFFFFF" d="M85.134,310.917l0.053,1.562c0.472-0.75,1.017-1.215,1.638-1.396c0.366-0.104,0.737-0.156,1.113-0.156
			c0.279,0,0.559,0.026,0.838,0.078c0.682,0.131,1.166,0.65,1.454,1.562c0.228-0.709,0.62-1.185,1.18-1.422
			c0.559-0.237,1.179-0.359,1.86-0.365h0.052c0.664,0,1.302,0.121,1.913,0.361c0.62,0.248,1.094,0.711,1.421,1.392
			c0.328,0.68,0.5,1.612,0.518,2.798v5.674l-2.829,0.049c0.113-2.142,0.17-3.965,0.17-5.469s-0.385-2.314-1.152-2.432
			c-0.114-0.014-0.223-0.021-0.328-0.021c-0.611,0-1.083,0.294-1.415,0.88c-0.052,0.676-0.078,1.467-0.078,2.373
			c0,1.229,0.048,2.665,0.144,4.307l-3.274,0.02c0.122-2.52,0.183-4.355,0.183-5.508v-0.117c-0.008-1.139-0.31-1.738-0.903-1.797
			h-0.171c-0.532,0-1.048,0.229-1.545,0.684l0.025,7.148l-3.092,0.088v-1.602c0-2.838-0.057-5.674-0.17-8.506L85.134,310.917z"/>
		<path fill="#FFFFFF" d="M103.029,310.838c2.873,0.117,4.31,1.195,4.31,3.231v6.935l-3.052,0.039l-0.105-0.929
			c-0.629,0.535-1.463,0.802-2.502,0.802c-0.445,0-0.926-0.052-1.441-0.156c-1.545-0.286-2.318-1.178-2.318-2.676
			c0-0.183,0.013-0.377,0.039-0.586c0.175-1.543,1.646-2.313,4.415-2.313c0.532,0,1.118,0.028,1.756,0.088v-1.133
			c0-0.918-0.389-1.377-1.166-1.377h-0.053c-0.062-0.007-0.118-0.011-0.17-0.011c-0.848,0-1.271,0.515-1.271,1.543v0.146
			l-3.118-0.193c0-2.271,1.467-3.408,4.401-3.408L103.029,310.838L103.029,310.838z M104.13,318.554v-1.72
			c-0.376-0.06-0.717-0.088-1.022-0.088c-0.795,0-1.336,0.198-1.624,0.596c-0.175,0.241-0.263,0.466-0.263,0.675
			c0,0.26,0.141,0.491,0.42,0.692c0.218,0.155,0.502,0.233,0.852,0.233C102.938,318.944,103.483,318.813,104.13,318.554z"/>
		<path fill="#FFFFFF" d="M108.23,317.685l3-0.106v0.127c0,1.002,0.414,1.51,1.244,1.522h0.053c0.803,0,1.205-0.291,1.205-0.869
			v-0.067c-0.035-0.64-0.828-1.151-2.378-1.543c-1.551-0.392-2.482-1.048-2.797-1.974c-0.114-0.325-0.171-0.639-0.171-0.938
			c0-0.547,0.188-1.055,0.563-1.521c0.577-0.717,1.45-1.127,2.62-1.23c0.314-0.025,0.62-0.039,0.917-0.039
			c0.777,0,1.463,0.102,2.058,0.303c0.812,0.28,1.375,0.681,1.689,1.201c0.21,0.358,0.314,0.756,0.314,1.191
			c0,0.208-0.021,0.423-0.065,0.645l-2.804,0.049c0.026-0.162,0.039-0.312,0.039-0.449c0-0.649-0.279-1-0.838-1.045
			c-0.062-0.006-0.123-0.01-0.184-0.01c-0.576,0-0.965,0.219-1.166,0.654c-0.07,0.15-0.104,0.287-0.104,0.41
			c0,0.306,0.191,0.57,0.576,0.791c0.541,0.312,1.343,0.63,2.404,0.951c1.061,0.322,1.774,0.871,2.142,1.646
			c0.131,0.293,0.196,0.586,0.196,0.88c0,0.494-0.192,0.992-0.576,1.493c-0.611,0.802-1.559,1.267-2.843,1.396
			c-0.279,0.033-0.555,0.05-0.825,0.05c-0.961,0-1.852-0.187-2.673-0.558C108.78,320.168,108.247,319.183,108.23,317.685z"/>
	</g>
</g>
</svg>
