<?xml version="1.0" encoding="utf-8"?>
<!-- Generator: Adobe Illustrator 16.0.0, SVG Export Plug-In . SVG Version: 6.00 Build 0)  -->
<!DOCTYPE svg PUBLIC "-//W3C//DTD SVG 1.1//EN" "http://www.w3.org/Graphics/SVG/1.1/DTD/svg11.dtd">
<svg version="1.1" id="Capa_1" xmlns="http://www.w3.org/2000/svg" xmlns:xlink="http://www.w3.org/1999/xlink" x="0px" y="0px"
	 width="1042.502px" height="332.717px" viewBox="0 0 1042.502 332.717" enable-background="new 0 0 1042.502 332.717"
	 xml:space="preserve">
<g>
	<rect x="283.04" y="37.025" fill="#95C11F" width="167.292" height="32"/>
	<rect x="283.04" y="80.974" fill="#95C11F" width="167.292" height="32"/>
	<rect x="283.04" y="124.922" fill="#95C11F" width="167.292" height="32"/>
	<rect x="283.04" y="168.872" fill="#95C11F" width="167.292" height="32"/>
	<rect x="283.04" y="212.819" fill="#95C11F" width="167.292" height="32"/>
	<rect x="283.04" y="256.769" fill="#95C11F" width="167.292" height="32"/>
	<rect x="283.04" y="300.717" fill="#95C11F" width="167.292" height="32"/>
	<rect x="456.584" fill="#0093AF" width="290.921" height="31"/>
	<rect x="751.582" fill="#A0C219" width="290.92" height="31"/>
	<g>
		<g>
			<path fill="#FFFFFF" d="M579.367,23.141c0.018-2.194,0.025-4.453,0.025-6.777c0-2.331-0.009-4.723-0.025-7.178
				c1.004-0.091,1.93-0.137,2.776-0.137c2.358,0,4.097,0.352,5.215,1.055c1.52,0.964,2.313,2.744,2.384,5.342v0.703
				c0,2.227-0.289,3.815-0.865,4.766c-0.638,1.048-1.804,1.745-3.498,2.09c-0.978,0.202-2.052,0.303-3.223,0.303
				C581.284,23.307,580.354,23.251,579.367,23.141z M582.616,11.979c-0.148,2.142-0.224,4.212-0.224,6.211
				c0,0.755,0.01,1.498,0.026,2.227c0.305,0.052,0.598,0.078,0.877,0.078c0.77,0,1.415-0.198,1.939-0.596
				c0.716-0.534,1.073-1.731,1.073-3.594v-0.039c-0.009-1.875-0.357-3.105-1.048-3.691c-0.533-0.442-1.166-0.664-1.899-0.664
				C583.127,11.91,582.878,11.933,582.616,11.979z"/>
			<path fill="#FFFFFF" d="M590.831,23.141c0.017-2.194,0.026-4.453,0.026-6.777c0-2.331-0.01-4.723-0.026-7.178
				c1.004-0.091,1.93-0.137,2.777-0.137c2.357,0,4.096,0.352,5.214,1.055c1.52,0.964,2.313,2.744,2.384,5.342v0.703
				c0,2.227-0.288,3.815-0.865,4.766c-0.638,1.048-1.804,1.745-3.498,2.09c-0.978,0.202-2.052,0.303-3.223,0.303
				C592.748,23.307,591.817,23.251,590.831,23.141z M594.08,11.979c-0.149,2.142-0.223,4.212-0.223,6.211
				c0,0.755,0.009,1.498,0.025,2.227c0.307,0.052,0.599,0.078,0.877,0.078c0.77,0,1.415-0.198,1.939-0.596
				c0.716-0.534,1.074-1.731,1.074-3.594v-0.039c-0.01-1.875-0.358-3.105-1.049-3.691c-0.532-0.442-1.166-0.664-1.898-0.664
				C594.59,11.91,594.341,11.933,594.08,11.979z"/>
			<path fill="#FFFFFF" d="M612.878,9.508c-0.104,4.382-0.205,9.102-0.301,14.16h-2.975v-5.693h-3.733v5.234l-3.576-0.01
				c0.104-2.389,0.157-4.727,0.157-7.012c0-2.278-0.053-4.505-0.157-6.68h3.419l-0.144,5.693l3.733,0.117V9.273L612.878,9.508z"/>
			<path fill="#FFFFFF" d="M624.722,9.508c-0.104,4.382-0.206,9.102-0.301,14.16h-2.974v-5.693h-3.733v5.234l-3.577-0.01
				c0.105-2.389,0.157-4.727,0.157-7.012c0-2.278-0.052-4.505-0.157-6.68h3.419l-0.144,5.693l3.732,0.117V9.273L624.722,9.508z"/>
		</g>
	</g>
	<g>
		<g>
			<path fill="#FFFFFF" d="M883.522,23.141c0.018-2.194,0.025-4.453,0.025-6.777c0-2.331-0.009-4.723-0.025-7.178
				c1.004-0.091,1.93-0.137,2.776-0.137c2.358,0,4.096,0.352,5.214,1.055c1.521,0.964,2.314,2.744,2.384,5.342v0.703
				c0,2.227-0.288,3.815-0.864,4.766c-0.639,1.048-1.805,1.745-3.498,2.09c-0.979,0.202-2.053,0.303-3.224,0.303
				C885.439,23.307,884.509,23.251,883.522,23.141z M886.771,11.979c-0.147,2.142-0.223,4.212-0.223,6.211
				c0,0.755,0.009,1.498,0.026,2.227c0.306,0.052,0.598,0.078,0.877,0.078c0.769,0,1.415-0.198,1.938-0.596
				c0.717-0.534,1.074-1.731,1.074-3.594v-0.039c-0.009-1.875-0.357-3.105-1.048-3.691c-0.533-0.442-1.166-0.664-1.899-0.664
				C887.282,11.91,887.033,11.933,886.771,11.979z"/>
			<path fill="#FFFFFF" d="M898.562,22.76l-3.262,0.225c0-4.778-0.104-9.264-0.313-13.457l3.733-0.234
				C898.623,13.714,898.57,18.203,898.562,22.76z"/>
			<path fill="#FFFFFF" d="M910.562,9.508c-0.104,4.382-0.205,9.102-0.302,14.16h-2.974v-5.693h-3.733v5.234l-3.577-0.01
				c0.105-2.389,0.157-4.727,0.157-7.012c0-2.278-0.052-4.505-0.157-6.68h3.42L903.25,15.2l3.734,0.117V9.273L910.562,9.508z"/>
		</g>
	</g>
	<g>
		<path fill="#FFFFFF" d="M325.419,62.858c0.052-1.712,0.079-3.463,0.079-5.254c0-2.748-0.062-5.592-0.184-8.535
			c1.493-0.156,2.812-0.234,3.957-0.234c1.799,0,3.152,0.195,4.061,0.586c1.406,0.605,2.109,1.846,2.109,3.721v0.322
			c-0.087,2.057-0.712,3.374-1.874,3.95c-1.162,0.576-2.595,0.884-4.297,0.923c-0.01,0.202-0.014,0.41-0.014,0.625
			c0,1.081,0.074,2.36,0.224,3.838L325.419,62.858z M328.773,51.334l0.092,4.775c1.625-0.065,2.576-0.498,2.855-1.299
			c0.131-0.365,0.197-0.739,0.197-1.123c0-0.449-0.087-0.912-0.262-1.387c-0.263-0.697-0.917-1.045-1.965-1.045
			C329.411,51.256,329.105,51.282,328.773,51.334z"/>
		<path fill="#FFFFFF" d="M340.21,56.149l0.131,7.08l-3.209,0.02c0-2.995-0.136-6.357-0.406-10.088l2.411-0.195l0.131,1.592
			c0.367-0.781,1.224-1.227,2.568-1.338c0.201-0.013,0.394-0.02,0.576-0.02c1.057,0,1.86,0.257,2.411,0.771
			c0.637,0.612,0.96,1.585,0.969,2.92l-2.908,0.215c0.009-0.111,0.014-0.218,0.014-0.322c0-1.042-0.362-1.562-1.088-1.562h-0.052
			C340.917,55.254,340.402,55.563,340.21,56.149z"/>
		<path fill="#FFFFFF" d="M351.28,53.122c2.97,0,4.454,1.537,4.454,4.609c0,0.124-0.004,0.248-0.014,0.371
			c-0.123,3.327-1.703,5.006-4.743,5.039c-0.034,0.006-0.069,0.01-0.104,0.01c-2.891,0-4.336-1.572-4.336-4.717v-0.273
			C346.625,54.801,348.206,53.122,351.28,53.122z M350.848,55.348c-0.55,0.143-0.926,0.674-1.126,1.592
			c-0.123,0.547-0.184,1.097-0.184,1.65c0,0.371,0.026,0.746,0.079,1.123c0.14,0.938,0.589,1.422,1.349,1.455h0.092
			c0.708,0,1.192-0.348,1.454-1.045c0.219-0.58,0.328-1.266,0.328-2.061c0-0.195-0.004-0.394-0.013-0.596
			c-0.07-1.048-0.279-1.703-0.629-1.963c-0.218-0.156-0.48-0.234-0.786-0.234C351.236,55.27,351.048,55.296,350.848,55.348z"/>
		<path fill="#FFFFFF" d="M356.533,67.047c0.052-2.194,0.079-4.528,0.079-7.002c0-2.252-0.022-4.616-0.065-7.09l3.105-0.01
			l0.104,1.504c0.646-0.729,1.507-1.094,2.581-1.094c2.681,0,4.022,1.579,4.022,4.736v0.195c-0.062,3.164-1.397,4.746-4.01,4.746
			c-0.104,0-0.21-0.003-0.313-0.01c-0.891-0.033-1.611-0.394-2.162-1.084c0,1.445,0.048,3.148,0.144,5.107h-3.484V67.047z
			 M359.809,56.452l0.065,3.672c0.506,0.514,1.017,0.771,1.533,0.771c0.209,0,0.419-0.045,0.629-0.137
			c0.637-0.26,0.956-1.039,0.956-2.334c0-0.156-0.004-0.319-0.014-0.488c-0.088-1.588-0.511-2.425-1.271-2.51
			c-0.079-0.006-0.153-0.01-0.223-0.01C360.822,55.417,360.262,55.762,359.809,56.452z"/>
		<path fill="#FFFFFF" d="M372.005,53.122c2.969,0,4.455,1.537,4.455,4.609c0,0.124-0.005,0.248-0.013,0.371
			c-0.123,3.327-1.703,5.006-4.743,5.039c-0.035,0.006-0.07,0.01-0.104,0.01c-2.891,0-4.336-1.572-4.336-4.717v-0.273
			C367.35,54.801,368.931,53.122,372.005,53.122z M371.573,55.348c-0.55,0.143-0.926,0.674-1.127,1.592
			c-0.122,0.547-0.184,1.097-0.184,1.65c0,0.371,0.026,0.746,0.079,1.123c0.141,0.938,0.589,1.422,1.351,1.455h0.091
			c0.708,0,1.191-0.348,1.455-1.045c0.218-0.58,0.327-1.266,0.327-2.061c0-0.195-0.005-0.394-0.014-0.596
			c-0.069-1.048-0.278-1.703-0.628-1.963c-0.219-0.156-0.479-0.234-0.786-0.234C371.961,55.27,371.773,55.296,371.573,55.348z
			 M370.302,51.217c1.021-0.905,1.86-1.768,2.516-2.588l2.147,1.27c-0.926,0.677-1.957,1.507-3.092,2.49L370.302,51.217z"/>
		<path fill="#FFFFFF" d="M377.022,59.684l3-0.107v0.127c0,1.002,0.414,1.51,1.244,1.523h0.054c0.803,0,1.205-0.29,1.205-0.869
			V60.29c-0.035-0.638-0.828-1.152-2.378-1.543c-1.551-0.391-2.482-1.048-2.798-1.973c-0.113-0.326-0.17-0.638-0.17-0.938
			c0-0.547,0.188-1.055,0.563-1.523c0.577-0.716,1.45-1.126,2.62-1.23c0.313-0.026,0.62-0.039,0.917-0.039
			c0.776,0,1.463,0.101,2.057,0.303c0.812,0.28,1.375,0.68,1.69,1.201c0.21,0.358,0.313,0.755,0.313,1.191
			c0,0.208-0.021,0.423-0.064,0.646l-2.805,0.049c0.026-0.163,0.04-0.312,0.04-0.449c0-0.651-0.279-1-0.838-1.045
			c-0.062-0.006-0.123-0.01-0.184-0.01c-0.576,0-0.965,0.218-1.166,0.654c-0.07,0.15-0.104,0.287-0.104,0.41
			c0,0.306,0.192,0.57,0.576,0.791c0.542,0.312,1.343,0.63,2.404,0.952c1.061,0.322,1.774,0.871,2.142,1.646
			c0.131,0.293,0.197,0.586,0.197,0.879c0,0.495-0.192,0.993-0.577,1.494c-0.611,0.801-1.559,1.266-2.843,1.396
			c-0.279,0.033-0.555,0.049-0.825,0.049c-0.961,0-1.852-0.186-2.673-0.557C377.573,62.168,377.04,61.182,377.022,59.684z"/>
		<path fill="#FFFFFF" d="M390.149,50.875c0,0.397-0.188,0.736-0.563,1.016c-0.375,0.28-0.83,0.42-1.362,0.42
			c-0.523,0-0.974-0.14-1.35-0.42c-0.376-0.28-0.563-0.619-0.563-1.016c0-0.391,0.188-0.726,0.563-1.006
			c0.375-0.28,0.826-0.42,1.35-0.42c0.533,0,0.987,0.14,1.362,0.42C389.961,50.149,390.149,50.485,390.149,50.875z M386.638,63.2
			c-0.061-3.809-0.092-7.1-0.092-9.873l3.302-0.146c-0.104,2.656-0.156,5.296-0.156,7.92c0,0.703,0.004,1.403,0.013,2.1
			L386.638,63.2L386.638,63.2z"/>
		<path fill="#FFFFFF" d="M393.058,50.006l2.975-0.146v3.232l2.502-0.049l0.039,1.846l-2.541,0.088v4.443
			c0,1.035,0.589,1.553,1.769,1.553c0.244,0,0.512-0.023,0.799-0.068l-0.117,2.148c-0.419,0.039-0.817,0.059-1.192,0.059
			c-2.76,0-4.166-1.061-4.218-3.184v-4.775l-2.148,0.098l-0.053-2.178l2.201,0.021L393.058,50.006z"/>
		<path fill="#FFFFFF" d="M404.272,53.122c2.969,0,4.453,1.537,4.453,4.609c0,0.124-0.005,0.248-0.013,0.371
			c-0.123,3.327-1.703,5.006-4.743,5.039c-0.035,0.006-0.069,0.01-0.104,0.01c-2.892,0-4.336-1.572-4.336-4.717v-0.273
			C399.617,54.801,401.197,53.122,404.272,53.122z M403.839,55.348c-0.55,0.143-0.926,0.674-1.126,1.592
			c-0.123,0.547-0.184,1.097-0.184,1.65c0,0.371,0.025,0.746,0.079,1.123c0.14,0.938,0.59,1.422,1.35,1.455h0.092
			c0.707,0,1.192-0.348,1.454-1.045c0.218-0.58,0.327-1.266,0.327-2.061c0-0.195-0.004-0.394-0.013-0.596
			c-0.07-1.048-0.28-1.703-0.629-1.963c-0.22-0.156-0.48-0.234-0.786-0.234C404.228,55.27,404.041,55.296,403.839,55.348z"/>
		<path fill="#FFFFFF" d="M343.583,92.147c-0.105,4.381-0.205,9.102-0.301,14.16h-2.975v-5.693h-3.732v5.234l-3.577-0.01
			c0.104-2.389,0.157-4.727,0.157-7.012c0-2.279-0.053-4.505-0.157-6.68h3.419l-0.144,5.693l3.733,0.117v-6.045L343.583,92.147z"/>
		<path fill="#FFFFFF" d="M348.404,93.875c0,0.397-0.188,0.736-0.563,1.016c-0.376,0.28-0.83,0.42-1.363,0.42
			c-0.523,0-0.974-0.14-1.349-0.42c-0.376-0.28-0.562-0.619-0.562-1.016c0-0.391,0.188-0.726,0.562-1.006
			c0.375-0.28,0.825-0.42,1.349-0.42c0.533,0,0.987,0.14,1.363,0.42C348.216,93.149,348.404,93.485,348.404,93.875z M344.894,106.2
			c-0.061-3.809-0.092-7.1-0.092-9.873l3.301-0.146c-0.104,2.656-0.156,5.296-0.156,7.92c0,0.703,0.004,1.403,0.013,2.1
			L344.894,106.2L344.894,106.2z"/>
		<path fill="#FFFFFF" d="M348.968,102.684l3-0.107v0.127c0,1.002,0.415,1.51,1.245,1.523h0.052c0.805,0,1.206-0.29,1.206-0.869
			v-0.068c-0.035-0.638-0.828-1.152-2.378-1.543s-2.481-1.048-2.797-1.973c-0.114-0.326-0.17-0.638-0.17-0.938
			c0-0.547,0.188-1.055,0.562-1.523c0.576-0.716,1.45-1.126,2.62-1.23c0.314-0.026,0.62-0.039,0.917-0.039
			c0.777,0,1.462,0.101,2.058,0.303c0.812,0.28,1.375,0.68,1.689,1.201c0.21,0.358,0.314,0.755,0.314,1.191
			c0,0.208-0.022,0.423-0.065,0.645l-2.804,0.049c0.026-0.163,0.04-0.312,0.04-0.449c0-0.651-0.28-1-0.838-1.045
			c-0.062-0.006-0.123-0.01-0.185-0.01c-0.575,0-0.965,0.218-1.166,0.654c-0.069,0.15-0.104,0.287-0.104,0.41
			c0,0.306,0.192,0.57,0.576,0.791c0.542,0.312,1.343,0.63,2.403,0.952c1.062,0.322,1.775,0.871,2.143,1.646
			c0.131,0.293,0.196,0.586,0.196,0.879c0,0.495-0.192,0.993-0.576,1.494c-0.611,0.801-1.56,1.266-2.843,1.396
			c-0.28,0.033-0.556,0.049-0.825,0.049c-0.961,0-1.853-0.186-2.673-0.557C349.518,105.168,348.985,104.182,348.968,102.684z"/>
		<path fill="#FFFFFF" d="M360.614,93.006l2.974-0.146v3.232l2.502-0.049l0.039,1.846l-2.542,0.088v4.443
			c0,1.035,0.589,1.553,1.77,1.553c0.244,0,0.511-0.023,0.799-0.068l-0.118,2.148c-0.419,0.039-0.816,0.059-1.192,0.059
			c-2.76,0-4.166-1.061-4.218-3.184v-4.775l-2.147,0.098l-0.054-2.178l2.201,0.021L360.614,93.006z"/>
		<path fill="#FFFFFF" d="M371.828,96.122c2.969,0,4.455,1.537,4.455,4.609c0,0.124-0.005,0.248-0.014,0.371
			c-0.122,3.327-1.702,5.006-4.742,5.039c-0.035,0.006-0.07,0.01-0.104,0.01c-2.891,0-4.336-1.572-4.336-4.717v-0.273
			C367.173,97.801,368.754,96.122,371.828,96.122z M371.396,98.348c-0.55,0.143-0.926,0.674-1.127,1.592
			c-0.121,0.547-0.183,1.097-0.183,1.65c0,0.371,0.026,0.746,0.079,1.123c0.14,0.938,0.589,1.422,1.35,1.455h0.092
			c0.708,0,1.191-0.348,1.454-1.045c0.219-0.58,0.327-1.266,0.327-2.061c0-0.195-0.004-0.394-0.013-0.596
			c-0.07-1.048-0.279-1.703-0.628-1.963c-0.219-0.156-0.48-0.234-0.786-0.234C371.785,98.27,371.597,98.296,371.396,98.348z"/>
		<path fill="#FFFFFF" d="M380.488,99.149l0.131,7.08l-3.209,0.02c0-2.995-0.135-6.357-0.406-10.088l2.411-0.195l0.131,1.592
			c0.367-0.781,1.223-1.227,2.568-1.338c0.201-0.013,0.393-0.02,0.577-0.02c1.057,0,1.859,0.257,2.409,0.771
			c0.639,0.612,0.961,1.585,0.971,2.92l-2.909,0.215c0.009-0.111,0.013-0.218,0.013-0.322c0-1.042-0.361-1.562-1.087-1.562h-0.052
			C381.195,98.254,380.68,98.563,380.488,99.149z"/>
		<path fill="#FFFFFF" d="M390.615,93.875c0,0.397-0.188,0.736-0.563,1.016c-0.375,0.28-0.83,0.42-1.361,0.42
			c-0.524,0-0.975-0.14-1.351-0.42c-0.376-0.28-0.562-0.619-0.562-1.016c0-0.391,0.188-0.726,0.562-1.006
			c0.375-0.28,0.825-0.42,1.351-0.42c0.531,0,0.986,0.14,1.361,0.42C390.427,93.149,390.615,93.485,390.615,93.875z M387.104,106.2
			c-0.062-3.809-0.093-7.1-0.093-9.873l3.302-0.146c-0.104,2.656-0.157,5.296-0.157,7.92c0,0.703,0.004,1.403,0.014,2.1
			L387.104,106.2L387.104,106.2z"/>
		<path fill="#FFFFFF" d="M396.405,95.838c2.874,0.117,4.311,1.195,4.311,3.232v6.934l-3.053,0.039l-0.104-0.928
			c-0.629,0.534-1.463,0.801-2.502,0.801c-0.444,0-0.926-0.052-1.44-0.156c-1.546-0.287-2.319-1.178-2.319-2.676
			c0-0.182,0.013-0.377,0.039-0.586c0.175-1.543,1.646-2.314,4.415-2.314c0.533,0,1.118,0.029,1.755,0.088v-1.133
			c0-0.918-0.389-1.377-1.166-1.377h-0.052c-0.062-0.006-0.118-0.01-0.17-0.01c-0.848,0-1.271,0.514-1.271,1.543v0.146l-3.118-0.195
			c0-2.272,1.468-3.408,4.402-3.408H396.405z M397.505,103.553v-1.719c-0.375-0.059-0.716-0.088-1.021-0.088
			c-0.795,0-1.336,0.199-1.625,0.596c-0.176,0.241-0.263,0.465-0.263,0.674c0,0.26,0.141,0.492,0.419,0.693
			c0.219,0.156,0.502,0.234,0.853,0.234C396.313,103.944,396.859,103.813,397.505,103.553z"/>
		<path fill="#FFFFFF" d="M323.199,148.76c1.642-5.56,2.97-10.273,3.982-14.141l4.913-0.059c1.205,4.023,2.585,8.607,4.141,13.75
			l-3.354,0.508l-1.062-3.701h-4.074l-1.102,3.994L323.199,148.76z M331.714,142.374c-0.454-1.406-1.197-3.089-2.227-5.049
			c-0.795,1.647-1.468,3.353-2.019,5.117L331.714,142.374z"/>
		<path fill="#FFFFFF" d="M336.614,153.047c0.053-2.194,0.079-4.528,0.079-7.002c0-2.252-0.022-4.616-0.065-7.09l3.105-0.01
			l0.104,1.504c0.646-0.729,1.507-1.094,2.581-1.094c2.681,0,4.022,1.579,4.022,4.736v0.195c-0.062,3.164-1.397,4.746-4.01,4.746
			c-0.104,0-0.209-0.003-0.313-0.01c-0.892-0.033-1.611-0.394-2.162-1.084c0,1.445,0.048,3.148,0.144,5.107h-3.484V153.047z
			 M339.889,142.452l0.065,3.672c0.506,0.514,1.017,0.771,1.533,0.771c0.209,0,0.419-0.045,0.629-0.137
			c0.637-0.26,0.956-1.039,0.956-2.334c0-0.156-0.004-0.319-0.014-0.488c-0.087-1.588-0.511-2.425-1.271-2.51
			c-0.079-0.006-0.153-0.01-0.223-0.01C340.902,141.417,340.343,141.762,339.889,142.452z"/>
		<path fill="#FFFFFF" d="M351.156,148.985l-3.263,0.225c0.035-2.155,0.053-4.229,0.053-6.221c0-2.799-0.035-5.438-0.104-7.92
			l3.209-0.039c-0.035,1.595-0.052,3.232-0.052,4.912C350.999,142.839,351.051,145.854,351.156,148.985z"/>
		<path fill="#FFFFFF" d="M355.95,136.875c0,0.397-0.188,0.736-0.563,1.016c-0.376,0.28-0.83,0.42-1.362,0.42
			c-0.524,0-0.975-0.14-1.35-0.42c-0.376-0.28-0.562-0.619-0.562-1.016c0-0.391,0.188-0.726,0.562-1.006
			c0.375-0.28,0.825-0.42,1.35-0.42c0.532,0,0.986,0.14,1.362,0.42C355.762,136.149,355.95,136.485,355.95,136.875z M352.439,149.2
			c-0.062-3.809-0.093-7.1-0.093-9.873l3.302-0.146c-0.105,2.656-0.157,5.296-0.157,7.92c0,0.703,0.004,1.403,0.013,2.1
			L352.439,149.2L352.439,149.2z"/>
		<path fill="#FFFFFF" d="M362.029,145.127l3.118,0.146c0,2.35-1.454,3.542-4.363,3.574c-0.035,0.006-0.065,0.01-0.091,0.01
			c-2.77,0-4.153-1.566-4.153-4.697v-0.293c0.087-3.359,1.562-5.055,4.428-5.088h0.105c2.637,0,3.956,1.126,3.956,3.379
			c0,0.13-0.004,0.26-0.014,0.391l-2.816,0.156v-0.234c0-1.185-0.45-1.777-1.35-1.777c-0.917,0-1.376,0.96-1.376,2.881v0.322
			c0.054,2.077,0.517,3.115,1.39,3.115h0.079c0.76-0.045,1.14-0.479,1.14-1.299C362.082,145.538,362.064,145.342,362.029,145.127z"
			/>
		<path fill="#FFFFFF" d="M371.304,138.838c2.873,0.117,4.311,1.195,4.311,3.232v6.934l-3.053,0.039l-0.104-0.928
			c-0.629,0.534-1.463,0.801-2.502,0.801c-0.445,0-0.926-0.052-1.441-0.156c-1.546-0.287-2.318-1.178-2.318-2.676
			c0-0.182,0.013-0.377,0.04-0.586c0.174-1.543,1.646-2.314,4.415-2.314c0.532,0,1.117,0.029,1.756,0.088v-1.133
			c0-0.918-0.39-1.377-1.166-1.377h-0.054c-0.061-0.006-0.117-0.01-0.17-0.01c-0.848,0-1.271,0.514-1.271,1.543v0.146l-3.118-0.195
			c0-2.272,1.467-3.408,4.401-3.408H371.304z M372.405,146.553v-1.719c-0.376-0.059-0.716-0.088-1.022-0.088
			c-0.795,0-1.336,0.199-1.625,0.596c-0.175,0.241-0.262,0.465-0.262,0.674c0,0.26,0.14,0.492,0.419,0.693
			c0.218,0.156,0.502,0.234,0.852,0.234C371.212,146.944,371.758,146.813,372.405,146.553z"/>
		<path fill="#FFFFFF" d="M382.021,145.127l3.118,0.146c0,2.35-1.454,3.542-4.361,3.574c-0.035,0.006-0.065,0.01-0.093,0.01
			c-2.769,0-4.152-1.566-4.152-4.697v-0.293c0.087-3.359,1.562-5.055,4.428-5.088h0.104c2.638,0,3.956,1.126,3.956,3.379
			c0,0.13-0.004,0.26-0.013,0.391l-2.815,0.156v-0.234c0-1.185-0.45-1.777-1.351-1.777c-0.917,0-1.375,0.96-1.375,2.881v0.322
			c0.052,2.077,0.516,3.115,1.39,3.115h0.078c0.761-0.045,1.141-0.479,1.141-1.299C382.073,145.538,382.055,145.342,382.021,145.127
			z"/>
		<path fill="#FFFFFF" d="M389.894,136.875c0,0.397-0.188,0.736-0.562,1.016c-0.375,0.28-0.83,0.42-1.362,0.42
			c-0.523,0-0.974-0.14-1.35-0.42c-0.376-0.28-0.563-0.619-0.563-1.016c0-0.391,0.188-0.726,0.563-1.006
			c0.375-0.28,0.825-0.42,1.35-0.42c0.532,0,0.987,0.14,1.362,0.42C389.706,136.149,389.894,136.485,389.894,136.875z
			 M386.383,149.2c-0.061-3.809-0.092-7.1-0.092-9.873l3.301-0.146c-0.104,2.656-0.157,5.296-0.157,7.92
			c0,0.703,0.004,1.403,0.015,2.1L386.383,149.2L386.383,149.2z"/>
		<path fill="#FFFFFF" d="M395.226,139.122c2.97,0,4.455,1.537,4.455,4.609c0,0.124-0.005,0.248-0.013,0.371
			c-0.123,3.327-1.703,5.006-4.743,5.039c-0.035,0.006-0.07,0.01-0.104,0.01c-2.892,0-4.336-1.572-4.336-4.717v-0.273
			C390.571,140.801,392.151,139.122,395.226,139.122z M394.793,141.348c-0.55,0.143-0.926,0.674-1.127,1.592
			c-0.122,0.547-0.183,1.097-0.183,1.65c0,0.371,0.025,0.746,0.078,1.123c0.141,0.938,0.59,1.422,1.351,1.455h0.091
			c0.708,0,1.192-0.348,1.455-1.045c0.218-0.58,0.327-1.266,0.327-2.061c0-0.195-0.004-0.394-0.013-0.596
			c-0.07-1.048-0.279-1.703-0.629-1.963c-0.219-0.156-0.479-0.234-0.785-0.234C395.182,141.27,394.994,141.296,394.793,141.348z
			 M393.523,137.217c1.021-0.905,1.859-1.768,2.515-2.588l2.148,1.27c-0.927,0.677-1.957,1.507-3.093,2.49L393.523,137.217z"/>
		<path fill="#FFFFFF" d="M402.811,138.868l0.132,1.592c0.366-0.846,1.332-1.276,2.896-1.289h0.052c1.537,0,2.585,0.449,3.145,1.348
			c0.384,0.612,0.577,2.044,0.577,4.297c0,1.107-0.048,2.416-0.145,3.926h-3.17c0.113-2.012,0.17-3.571,0.17-4.678
			c0-0.553-0.013-0.996-0.04-1.328c-0.087-0.977-0.506-1.465-1.258-1.465c-0.751,0-1.223,0.26-1.415,0.781l0.131,7.08l-3.079,0.02
			c0-2.995-0.135-6.357-0.405-10.088L402.811,138.868z"/>
		<path fill="#FFFFFF" d="M333.706,177.756c3.677,0,5.516,2.345,5.516,7.031c0,4.694-1.97,7.041-5.908,7.041
			c-3.939,0-5.908-2.433-5.908-7.295C327.404,180.017,329.504,177.756,333.706,177.756z M331.085,185.052
			c-0.009,0.168-0.013,0.331-0.013,0.487c0,2.455,0.769,3.683,2.306,3.683c1.633,0,2.45-1.391,2.45-4.17
			c0-2.781-0.76-4.171-2.279-4.171C332.02,180.881,331.199,182.271,331.085,185.052z"/>
		<path fill="#FFFFFF" d="M343.623,178.333c-0.096,1.959-0.145,3.662-0.145,5.107c0.464-0.619,1.053-0.98,1.77-1.084
			c0.122-0.006,0.24-0.01,0.354-0.01c2.848,0,4.302,1.532,4.362,4.6v0.176c0,3.072-1.515,4.609-4.546,4.609
			c-0.725,0-1.411-0.361-2.057-1.084l-0.105,1.494l-3.104-0.011c0.044-2.383,0.065-4.674,0.065-6.875
			c0-2.416-0.025-4.724-0.079-6.924L343.623,178.333L343.623,178.333z M343.479,185.267l-0.065,3.379
			c0.454,0.689,1.031,1.035,1.729,1.035c0.079,0,0.157-0.004,0.236-0.011c0.803-0.084,1.249-0.89,1.336-2.412
			c0.009-0.155,0.013-0.306,0.013-0.448c0-1.25-0.34-1.996-1.021-2.236c-0.209-0.072-0.415-0.107-0.615-0.107
			C344.54,184.465,344.002,184.731,343.479,185.267z"/>
		<path fill="#FFFFFF" d="M354.68,191.985l-3.262,0.225c0.035-2.154,0.053-4.229,0.053-6.221c0-2.799-0.035-5.439-0.104-7.92
			l3.209-0.039c-0.035,1.595-0.052,3.232-0.052,4.912C354.522,185.839,354.575,188.854,354.68,191.985z"/>
		<path fill="#FFFFFF" d="M359.474,179.875c0,0.397-0.188,0.735-0.562,1.017c-0.375,0.279-0.83,0.42-1.363,0.42
			c-0.522,0-0.974-0.141-1.349-0.42c-0.375-0.281-0.563-0.619-0.563-1.017c0-0.392,0.188-0.726,0.563-1.006s0.826-0.421,1.349-0.421
			c0.533,0,0.987,0.141,1.363,0.421S359.474,179.485,359.474,179.875z M355.963,192.2c-0.061-3.809-0.092-7.1-0.092-9.873
			l3.302-0.146c-0.104,2.656-0.157,5.297-0.157,7.92c0,0.703,0.004,1.403,0.014,2.101L355.963,192.2L355.963,192.2z"/>
		<path fill="#FFFFFF" d="M360.562,193.284l3.078-0.127c-0.009,0.078-0.013,0.156-0.013,0.234c0,0.709,0.38,1.096,1.14,1.162
			c0.122,0.012,0.236,0.02,0.342,0.02c0.654,0,1.122-0.195,1.4-0.586c0.245-0.352,0.367-1.01,0.367-1.973
			c0-0.261-0.009-0.548-0.026-0.859c-0.488,0.729-1.396,1.125-2.725,1.191c-2.594-0.021-3.891-1.664-3.891-4.933v-0.067
			c0.017-3.308,1.559-4.972,4.625-4.99c0.838,0,1.589,0.365,2.253,1.094l0.04-1.553l2.869,0.098c0,5.371-0.022,8.697-0.066,9.98
			c-0.043,1.282-0.303,2.311-0.779,3.086c-0.476,0.774-1.286,1.27-2.43,1.483c-0.604,0.117-1.201,0.177-1.794,0.177
			c-0.533,0-1.062-0.046-1.585-0.138c-1.118-0.194-1.886-0.563-2.306-1.104c-0.351-0.442-0.524-1.021-0.524-1.738
			C360.536,193.601,360.544,193.446,360.562,193.284z M366.824,189.417v-3.965c-0.429-0.645-0.969-0.967-1.625-0.967
			c-0.131,0-0.267,0.013-0.406,0.039c-0.848,0.149-1.315,1.019-1.402,2.606c-0.009,0.169-0.013,0.332-0.013,0.488
			c0,1.295,0.323,2.09,0.969,2.383c0.219,0.104,0.45,0.156,0.694,0.156C365.583,190.159,366.177,189.911,366.824,189.417z"/>
		<path fill="#FFFFFF" d="M376.099,181.838c2.873,0.117,4.311,1.195,4.311,3.231v6.935l-3.052,0.039l-0.105-0.929
			c-0.629,0.535-1.463,0.802-2.502,0.802c-0.445,0-0.926-0.052-1.441-0.155c-1.546-0.287-2.318-1.179-2.318-2.677
			c0-0.183,0.013-0.377,0.04-0.586c0.174-1.543,1.646-2.313,4.415-2.313c0.532,0,1.118,0.028,1.756,0.088v-1.133
			c0-0.918-0.39-1.377-1.166-1.377h-0.053c-0.062-0.007-0.118-0.011-0.171-0.011c-0.848,0-1.271,0.515-1.271,1.543v0.146
			l-3.118-0.194c0-2.272,1.467-3.408,4.401-3.408H376.099z M377.2,189.554v-1.72c-0.376-0.06-0.716-0.088-1.022-0.088
			c-0.795,0-1.336,0.198-1.625,0.596c-0.175,0.241-0.262,0.466-0.262,0.675c0,0.26,0.14,0.491,0.419,0.692
			c0.218,0.155,0.502,0.233,0.852,0.233C376.007,189.944,376.553,189.813,377.2,189.554z"/>
		<path fill="#FFFFFF" d="M383.868,181.868l0.131,1.592c0.367-0.846,1.332-1.275,2.896-1.289h0.052c1.537,0,2.585,0.449,3.144,1.348
			c0.384,0.612,0.577,2.045,0.577,4.297c0,1.107-0.048,2.416-0.144,3.927h-3.17c0.112-2.013,0.17-3.571,0.17-4.679
			c0-0.553-0.014-0.996-0.04-1.328c-0.087-0.977-0.507-1.465-1.258-1.465s-1.223,0.26-1.415,0.781l0.132,7.08l-3.079,0.02
			c0-2.994-0.135-6.356-0.406-10.088L383.868,181.868z"/>
		<path fill="#FFFFFF" d="M401.71,181.838c2.874,0.117,4.311,1.195,4.311,3.231v6.935l-3.053,0.039l-0.104-0.929
			c-0.629,0.535-1.463,0.802-2.502,0.802c-0.445,0-0.927-0.052-1.441-0.155c-1.546-0.287-2.319-1.179-2.319-2.677
			c0-0.183,0.014-0.377,0.039-0.586c0.176-1.543,1.646-2.313,4.415-2.313c0.533,0,1.118,0.028,1.755,0.088v-1.133
			c0-0.918-0.389-1.377-1.166-1.377h-0.052c-0.061-0.007-0.118-0.011-0.17-0.011c-0.847,0-1.271,0.515-1.271,1.543v0.146
			l-3.118-0.194c0-2.272,1.467-3.408,4.401-3.408H401.71z M402.811,189.554v-1.72c-0.375-0.06-0.716-0.088-1.021-0.088
			c-0.795,0-1.336,0.198-1.625,0.596c-0.175,0.241-0.262,0.466-0.262,0.675c0,0.26,0.14,0.491,0.419,0.692
			c0.218,0.155,0.502,0.233,0.852,0.233C401.619,189.944,402.165,189.813,402.811,189.554z"/>
		<path fill="#FFFFFF" d="M292.458,234.761c1.642-5.561,2.969-10.273,3.982-14.142l4.913-0.06c1.205,4.023,2.585,8.607,4.14,13.75
			l-3.354,0.508l-1.061-3.7h-4.074l-1.101,3.993L292.458,234.761z M300.974,228.374c-0.454-1.406-1.197-3.089-2.227-5.049
			c-0.795,1.646-1.467,3.354-2.018,5.117L300.974,228.374z"/>
		<path fill="#FFFFFF" d="M317.297,239.536c0.009-2.09,0.013-3.857,0.013-5.303c-0.507,0.689-1.424,1.051-2.751,1.084
			c-2.559,0-3.843-1.66-3.852-4.98c-0.009-0.013-0.013-0.025-0.013-0.039c0-3.294,1.537-4.941,4.61-4.941
			c0.899,0,1.672,0.365,2.319,1.095l0.105-1.505l2.843,0.011c-0.044,2.571-0.065,5.006-0.065,7.306c0,2.525,0.026,4.885,0.079,7.079
			L317.297,239.536z M317.31,232.417v-3.965c-0.428-0.645-0.969-0.967-1.625-0.967c-0.131,0-0.266,0.013-0.405,0.039
			c-0.849,0.149-1.315,1.019-1.402,2.606c-0.009,0.169-0.013,0.332-0.013,0.488c0,1.295,0.322,2.09,0.969,2.383
			c0.218,0.104,0.45,0.156,0.694,0.156C316.07,233.159,316.664,232.911,317.31,232.417z"/>
		<path fill="#FFFFFF" d="M328.419,235.151l-0.131-1.592c-0.367,0.846-1.354,1.272-2.961,1.278
			c-0.019,0.007-0.031,0.011-0.039,0.011c-1.59,0-2.643-0.535-3.157-1.603c-0.35-0.709-0.523-2.179-0.523-4.404
			c0-1.146,0.048-2.497,0.145-4.053h3.183c-0.175,2.188-0.262,3.871-0.262,5.049c0,0.593,0.022,1.056,0.066,1.388
			c0.131,1.016,0.571,1.522,1.322,1.522c0.752,0,1.224-0.265,1.415-0.791l-0.131-6.776l3.079-0.021c0,2.799,0.135,6.062,0.406,9.784
			L328.419,235.151z"/>
		<path fill="#FFFFFF" d="M335.585,222.875c0,0.397-0.188,0.735-0.562,1.017c-0.375,0.279-0.83,0.42-1.362,0.42
			c-0.524,0-0.975-0.141-1.351-0.42c-0.375-0.281-0.562-0.619-0.562-1.017c0-0.392,0.188-0.726,0.562-1.006
			c0.376-0.28,0.826-0.42,1.351-0.42c0.533,0,0.987,0.14,1.362,0.42S335.585,222.485,335.585,222.875z M332.075,235.2
			c-0.062-3.809-0.092-7.1-0.092-9.873l3.301-0.146c-0.105,2.656-0.157,5.297-0.157,7.92c0,0.703,0.004,1.403,0.013,2.101
			L332.075,235.2L332.075,235.2z"/>
		<path fill="#FFFFFF" d="M340.564,225.122c3.029,0,4.546,1.5,4.546,4.502c0,0.365-0.022,0.755-0.066,1.172h-5.855
			c0,1.674,0.433,2.51,1.297,2.51h0.092c0.76-0.045,1.14-0.479,1.14-1.299c0-0.176-0.018-0.371-0.052-0.586l3.118-0.049
			c0,2.48-1.455,3.736-4.363,3.77c-0.035,0.006-0.064,0.01-0.092,0.01c-2.77,0-4.152-1.565-4.152-4.696v-0.293
			C336.262,226.801,337.725,225.122,340.564,225.122z M338.874,228.999h2.961v-0.234c0-1.185-0.45-1.777-1.35-1.777
			C339.516,226.987,338.979,227.657,338.874,228.999z M339.083,223.217c1.021-0.905,1.86-1.769,2.515-2.588l2.148,1.271
			c-0.926,0.677-1.957,1.506-3.092,2.49L339.083,223.217z"/>
		<path fill="#FFFFFF" d="M348.502,224.868l0.131,1.592c0.367-0.846,1.332-1.275,2.896-1.289h0.053c1.537,0,2.585,0.449,3.144,1.348
			c0.385,0.612,0.576,2.045,0.576,4.297c0,1.107-0.048,2.416-0.144,3.927h-3.17c0.113-2.013,0.17-3.571,0.17-4.679
			c0-0.553-0.014-0.996-0.039-1.328c-0.088-0.977-0.507-1.465-1.258-1.465s-1.224,0.26-1.415,0.781l0.131,7.08l-3.078,0.02
			c0-2.994-0.136-6.356-0.406-10.088L348.502,224.868z"/>
		<path fill="#FFFFFF" d="M361.354,239.047c0.052-2.194,0.078-4.528,0.078-7.002c0-2.252-0.021-4.616-0.064-7.09l3.104-0.011
			l0.105,1.505c0.646-0.729,1.506-1.095,2.581-1.095c2.681,0,4.021,1.58,4.021,4.736v0.195c-0.061,3.164-1.396,4.746-4.009,4.746
			c-0.104,0-0.209-0.004-0.313-0.01c-0.892-0.033-1.611-0.395-2.162-1.084c0,1.444,0.048,3.147,0.145,5.106h-3.485V239.047z
			 M364.629,228.452l0.065,3.672c0.507,0.514,1.018,0.771,1.532,0.771c0.209,0,0.419-0.045,0.628-0.138
			c0.639-0.26,0.957-1.038,0.957-2.334c0-0.155-0.004-0.319-0.013-0.487c-0.087-1.588-0.511-2.426-1.271-2.511
			c-0.078-0.006-0.153-0.01-0.224-0.01C365.643,227.417,365.083,227.763,364.629,228.452z"/>
		<path fill="#FFFFFF" d="M375.7,228.149l0.131,7.08l-3.21,0.02c0-2.995-0.135-6.357-0.406-10.088l2.411-0.195l0.131,1.592
			c0.367-0.781,1.224-1.227,2.567-1.338c0.201-0.013,0.393-0.02,0.577-0.02c1.057,0,1.859,0.257,2.411,0.771
			c0.637,0.611,0.96,1.584,0.969,2.92l-2.908,0.215c0.008-0.111,0.013-0.219,0.013-0.322c0-1.042-0.362-1.562-1.087-1.562h-0.052
			C376.407,227.254,375.892,227.563,375.7,228.149z"/>
		<path fill="#FFFFFF" d="M386.77,225.122c2.97,0,4.454,1.537,4.454,4.609c0,0.123-0.004,0.248-0.013,0.371
			c-0.122,3.326-1.703,5.006-4.742,5.039c-0.035,0.006-0.069,0.01-0.104,0.01c-2.892,0-4.336-1.572-4.336-4.717v-0.273
			C382.114,226.801,383.695,225.122,386.77,225.122z M386.337,227.349c-0.551,0.143-0.926,0.674-1.127,1.592
			c-0.122,0.547-0.184,1.097-0.184,1.649c0,0.371,0.025,0.746,0.079,1.123c0.139,0.938,0.589,1.423,1.349,1.455h0.092
			c0.708,0,1.192-0.349,1.454-1.045c0.218-0.58,0.328-1.267,0.328-2.062c0-0.194-0.005-0.394-0.013-0.596
			c-0.07-1.048-0.28-1.703-0.629-1.963c-0.219-0.156-0.48-0.234-0.786-0.234C386.726,227.271,386.538,227.296,386.337,227.349z"/>
		<path fill="#FFFFFF" d="M394.132,222.006l2.975-0.146v3.231l2.502-0.049l0.04,1.847l-2.542,0.088v4.442
			c0,1.035,0.589,1.554,1.769,1.554c0.244,0,0.511-0.023,0.799-0.068l-0.118,2.148c-0.419,0.038-0.816,0.059-1.191,0.059
			c-2.76,0-4.166-1.062-4.219-3.184v-4.775l-2.148,0.098l-0.052-2.178l2.201,0.02L394.132,222.006z"/>
		<path fill="#FFFFFF" d="M404.993,225.122c3.03,0,4.546,1.5,4.546,4.502c0,0.365-0.022,0.755-0.066,1.172h-5.855
			c0,1.674,0.433,2.51,1.297,2.51h0.092c0.76-0.045,1.141-0.479,1.141-1.299c0-0.176-0.019-0.371-0.053-0.586l3.118-0.049
			c0,2.48-1.455,3.736-4.363,3.77c-0.034,0.006-0.064,0.01-0.092,0.01c-2.769,0-4.151-1.565-4.151-4.696v-0.293
			C400.691,226.801,402.154,225.122,404.993,225.122z M403.302,228.999h2.961v-0.234c0-1.185-0.449-1.777-1.35-1.777
			C403.944,226.987,403.407,227.657,403.302,228.999z"/>
		<path fill="#FFFFFF" d="M410.888,236.284l3.079-0.127c-0.009,0.078-0.013,0.156-0.013,0.234c0,0.709,0.38,1.096,1.14,1.162
			c0.123,0.012,0.236,0.02,0.341,0.02c0.655,0,1.122-0.195,1.402-0.586c0.244-0.352,0.367-1.01,0.367-1.973
			c0-0.261-0.009-0.548-0.026-0.859c-0.488,0.729-1.396,1.125-2.725,1.191c-2.594-0.021-3.891-1.664-3.891-4.933v-0.067
			c0.018-3.308,1.559-4.972,4.625-4.99c0.838,0,1.589,0.365,2.253,1.094l0.039-1.553l2.868,0.098c0,5.371-0.021,8.697-0.064,9.98
			c-0.044,1.282-0.304,2.311-0.779,3.086c-0.477,0.774-1.286,1.27-2.43,1.483c-0.604,0.117-1.201,0.177-1.795,0.177
			c-0.533,0-1.062-0.046-1.585-0.138c-1.118-0.194-1.887-0.563-2.307-1.104c-0.349-0.442-0.523-1.021-0.523-1.737
			C410.861,236.601,410.87,236.446,410.888,236.284z M417.15,232.417v-3.965c-0.429-0.645-0.971-0.967-1.625-0.967
			c-0.132,0-0.268,0.013-0.406,0.039c-0.847,0.149-1.314,1.019-1.402,2.606c-0.009,0.169-0.013,0.332-0.013,0.488
			c0,1.295,0.323,2.09,0.969,2.383c0.218,0.104,0.45,0.156,0.694,0.156C415.91,233.159,416.503,232.911,417.15,232.417z"/>
		<path fill="#FFFFFF" d="M425.613,225.122c3.029,0,4.546,1.5,4.546,4.502c0,0.365-0.022,0.755-0.065,1.172h-5.855
			c0,1.674,0.432,2.51,1.297,2.51h0.092c0.76-0.045,1.14-0.479,1.14-1.299c0-0.176-0.018-0.371-0.052-0.586l3.118-0.049
			c0,2.48-1.454,3.736-4.362,3.77c-0.034,0.006-0.064,0.01-0.092,0.01c-2.769,0-4.153-1.565-4.153-4.696v-0.293
			C421.311,226.801,422.774,225.122,425.613,225.122z M423.923,228.999h2.96v-0.234c0-1.185-0.45-1.777-1.349-1.777
			C424.565,226.987,424.028,227.657,423.923,228.999z"/>
		<path fill="#FFFFFF" d="M433.552,224.868l0.131,1.592c0.367-0.846,1.332-1.275,2.896-1.289h0.052c1.537,0,2.585,0.449,3.145,1.348
			c0.384,0.612,0.576,2.045,0.576,4.297c0,1.107-0.048,2.416-0.145,3.927h-3.17c0.113-2.013,0.17-3.571,0.17-4.679
			c0-0.553-0.013-0.996-0.039-1.328c-0.087-0.977-0.507-1.465-1.258-1.465s-1.223,0.26-1.415,0.781l0.131,7.08l-3.079,0.02
			c0-2.994-0.136-6.356-0.406-10.088L433.552,224.868z"/>
		<path fill="#FFFFFF" d="M325.282,277.858c0.053-1.713,0.079-3.463,0.079-5.254c0-2.748-0.062-5.592-0.185-8.535
			c1.493-0.156,2.812-0.234,3.956-0.234c1.799,0,3.153,0.195,4.062,0.586c1.405,0.605,2.108,1.846,2.108,3.721v0.322
			c-0.088,2.057-0.712,3.374-1.874,3.95c-1.161,0.576-2.594,0.884-4.297,0.923c-0.009,0.202-0.013,0.41-0.013,0.625
			c0,1.081,0.074,2.359,0.223,3.838L325.282,277.858z M328.636,266.334l0.092,4.774c1.625-0.064,2.576-0.498,2.856-1.299
			c0.131-0.365,0.196-0.738,0.196-1.123c0-0.449-0.087-0.912-0.263-1.387c-0.262-0.697-0.917-1.045-1.965-1.045
			C329.273,266.256,328.967,266.282,328.636,266.334z"/>
		<path fill="#FFFFFF" d="M340.073,271.149l0.131,7.08l-3.21,0.02c0-2.995-0.135-6.357-0.406-10.088l2.411-0.195l0.131,1.592
			c0.367-0.781,1.223-1.227,2.567-1.338c0.201-0.013,0.393-0.02,0.577-0.02c1.057,0,1.859,0.257,2.41,0.771
			c0.638,0.611,0.961,1.584,0.97,2.92l-2.908,0.215c0.008-0.111,0.013-0.219,0.013-0.322c0-1.042-0.362-1.562-1.087-1.562h-0.052
			C340.78,270.254,340.265,270.563,340.073,271.149z"/>
		<path fill="#FFFFFF" d="M350.199,265.875c0,0.397-0.188,0.735-0.563,1.017c-0.376,0.279-0.83,0.42-1.362,0.42
			c-0.524,0-0.975-0.141-1.35-0.42c-0.376-0.281-0.562-0.619-0.562-1.017c0-0.392,0.188-0.726,0.562-1.006s0.825-0.421,1.35-0.421
			c0.532,0,0.986,0.141,1.362,0.421C350.011,265.149,350.199,265.485,350.199,265.875z M346.688,278.2
			c-0.062-3.809-0.093-7.1-0.093-9.873l3.302-0.146c-0.105,2.656-0.157,5.297-0.157,7.92c0,0.703,0.004,1.403,0.013,2.101
			L346.688,278.2L346.688,278.2z"/>
		<path fill="#FFFFFF" d="M353.331,267.868l0.131,1.592c0.367-0.846,1.332-1.275,2.896-1.289h0.052c1.537,0,2.585,0.449,3.145,1.348
			c0.385,0.612,0.576,2.045,0.576,4.297c0,1.107-0.048,2.416-0.144,3.927h-3.17c0.112-2.013,0.17-3.571,0.17-4.679
			c0-0.553-0.014-0.996-0.04-1.328c-0.087-0.977-0.506-1.465-1.258-1.465c-0.751,0-1.223,0.26-1.414,0.781l0.131,7.08l-3.079,0.02
			c0-2.994-0.135-6.356-0.406-10.088L353.331,267.868z"/>
		<path fill="#FFFFFF" d="M366.575,274.127l3.118,0.146c0,2.351-1.454,3.543-4.362,3.574c-0.035,0.006-0.065,0.01-0.092,0.01
			c-2.77,0-4.153-1.565-4.153-4.696v-0.293c0.087-3.359,1.563-5.056,4.428-5.089h0.104c2.638,0,3.957,1.127,3.957,3.38
			c0,0.13-0.004,0.26-0.014,0.391l-2.815,0.156v-0.233c0-1.186-0.45-1.777-1.351-1.777c-0.916,0-1.375,0.959-1.375,2.881v0.322
			c0.053,2.076,0.516,3.115,1.39,3.115h0.079c0.76-0.046,1.14-0.479,1.14-1.3C366.627,274.538,366.61,274.342,366.575,274.127z"/>
		<path fill="#FFFFFF" d="M374.449,265.875c0,0.397-0.188,0.735-0.563,1.017c-0.375,0.279-0.83,0.42-1.361,0.42
			c-0.524,0-0.975-0.141-1.351-0.42c-0.376-0.281-0.562-0.619-0.562-1.017c0-0.392,0.188-0.726,0.562-1.006s0.825-0.421,1.351-0.421
			c0.531,0,0.986,0.141,1.361,0.421S374.449,265.485,374.449,265.875z M370.938,278.2c-0.062-3.809-0.093-7.1-0.093-9.873
			l3.302-0.146c-0.104,2.656-0.157,5.297-0.157,7.92c0,0.703,0.004,1.403,0.014,2.101L370.938,278.2L370.938,278.2z"/>
		<path fill="#FFFFFF" d="M375.248,282.047c0.053-2.194,0.079-4.528,0.079-7.002c0-2.252-0.022-4.616-0.065-7.09l3.105-0.011
			l0.104,1.504c0.646-0.729,1.507-1.094,2.581-1.094c2.682,0,4.022,1.58,4.022,4.736v0.195c-0.062,3.164-1.397,4.746-4.009,4.746
			c-0.105,0-0.209-0.004-0.314-0.01c-0.891-0.033-1.611-0.395-2.162-1.084c0,1.444,0.048,3.147,0.145,5.106h-3.485V282.047z
			 M378.523,271.452l0.064,3.672c0.506,0.514,1.018,0.771,1.533,0.771c0.209,0,0.419-0.045,0.629-0.138
			c0.637-0.26,0.956-1.038,0.956-2.334c0-0.155-0.004-0.319-0.013-0.487c-0.087-1.588-0.512-2.426-1.271-2.511
			c-0.079-0.006-0.153-0.01-0.223-0.01C379.536,270.417,378.977,270.763,378.523,271.452z"/>
		<path fill="#FFFFFF" d="M389.776,265.875c0,0.397-0.188,0.735-0.563,1.017c-0.375,0.279-0.83,0.42-1.363,0.42
			c-0.522,0-0.974-0.141-1.349-0.42c-0.375-0.281-0.562-0.619-0.562-1.017c0-0.392,0.188-0.726,0.562-1.006s0.826-0.421,1.349-0.421
			c0.533,0,0.987,0.141,1.363,0.421S389.776,265.485,389.776,265.875z M386.265,278.2c-0.061-3.809-0.092-7.1-0.092-9.873
			l3.302-0.146c-0.104,2.656-0.156,5.297-0.156,7.92c0,0.703,0.004,1.403,0.013,2.101L386.265,278.2L386.265,278.2z"/>
		<path fill="#FFFFFF" d="M395.108,268.122c2.97,0,4.453,1.537,4.453,4.609c0,0.123-0.004,0.248-0.013,0.371
			c-0.123,3.326-1.703,5.006-4.743,5.039c-0.035,0.006-0.069,0.01-0.104,0.01c-2.892,0-4.336-1.572-4.336-4.717v-0.273
			C390.453,269.801,392.034,268.122,395.108,268.122z M394.676,270.349c-0.55,0.143-0.926,0.674-1.126,1.592
			c-0.123,0.547-0.184,1.097-0.184,1.649c0,0.371,0.025,0.746,0.079,1.123c0.14,0.938,0.589,1.422,1.349,1.455h0.092
			c0.708,0,1.192-0.349,1.454-1.045c0.218-0.58,0.328-1.267,0.328-2.062c0-0.195-0.004-0.394-0.013-0.596
			c-0.07-1.048-0.279-1.703-0.629-1.963c-0.219-0.156-0.48-0.234-0.786-0.234C395.064,270.271,394.876,270.296,394.676,270.349z"/>
		<path fill="#FFFFFF" d="M400.125,274.685l3-0.107v0.127c0,1.002,0.415,1.51,1.245,1.523h0.052c0.804,0,1.206-0.291,1.206-0.869
			v-0.068c-0.035-0.639-0.828-1.152-2.378-1.543s-2.482-1.048-2.797-1.973c-0.114-0.326-0.17-0.639-0.17-0.938
			c0-0.547,0.188-1.055,0.562-1.522c0.576-0.717,1.45-1.127,2.62-1.23c0.314-0.025,0.62-0.039,0.917-0.039
			c0.777,0,1.463,0.102,2.058,0.303c0.812,0.28,1.376,0.68,1.689,1.201c0.21,0.358,0.314,0.756,0.314,1.191
			c0,0.208-0.022,0.423-0.065,0.645l-2.803,0.049c0.025-0.162,0.039-0.312,0.039-0.449c0-0.65-0.28-1-0.838-1.045
			c-0.062-0.006-0.123-0.01-0.185-0.01c-0.576,0-0.965,0.219-1.166,0.654c-0.069,0.15-0.104,0.287-0.104,0.41
			c0,0.306,0.191,0.57,0.575,0.791c0.543,0.312,1.344,0.63,2.404,0.951c1.062,0.322,1.775,0.871,2.143,1.646
			c0.131,0.293,0.196,0.586,0.196,0.879c0,0.495-0.191,0.993-0.577,1.494c-0.61,0.801-1.559,1.266-2.843,1.396
			c-0.279,0.033-0.555,0.049-0.825,0.049c-0.961,0-1.852-0.186-2.672-0.557C400.676,277.168,400.143,276.183,400.125,274.685z"/>
		<path fill="#FFFFFF" d="M334.085,320.868c0.105-2.227,0.157-4.395,0.157-6.504c0-2.436-0.07-4.795-0.209-7.08l3.852-0.137
			l3.537,7.354c-0.035-2.525-0.131-5.111-0.288-7.754l4.048-0.039c-0.401,3.991-0.603,8.021-0.603,12.09
			c0,0.547,0.004,1.094,0.013,1.641l-3.55,0.029l-3.773-7.871c0.113,2.904,0.219,5.603,0.314,8.096L334.085,320.868z"/>
		<path fill="#FFFFFF" d="M350.946,311.122c2.97,0,4.454,1.537,4.454,4.609c0,0.123-0.004,0.248-0.014,0.371
			c-0.123,3.326-1.703,5.006-4.743,5.039c-0.034,0.006-0.069,0.01-0.104,0.01c-2.891,0-4.336-1.572-4.336-4.717v-0.273
			C346.291,312.801,347.872,311.122,350.946,311.122z M350.514,313.349c-0.55,0.143-0.926,0.674-1.126,1.592
			c-0.123,0.547-0.184,1.097-0.184,1.649c0,0.371,0.026,0.746,0.079,1.123c0.14,0.938,0.589,1.422,1.349,1.455h0.092
			c0.708,0,1.192-0.349,1.454-1.045c0.219-0.58,0.328-1.267,0.328-2.062c0-0.195-0.004-0.394-0.013-0.596
			c-0.07-1.048-0.279-1.703-0.629-1.963c-0.218-0.156-0.48-0.234-0.786-0.234C350.902,313.271,350.714,313.296,350.514,313.349z"/>
		<path fill="#FFFFFF" d="M359.605,314.149l0.131,7.08l-3.209,0.02c0-2.995-0.137-6.357-0.406-10.088l2.411-0.195l0.131,1.592
			c0.367-0.781,1.223-1.227,2.568-1.338c0.2-0.013,0.393-0.02,0.575-0.02c1.058,0,1.86,0.257,2.411,0.771
			c0.638,0.611,0.96,1.584,0.969,2.92l-2.907,0.215c0.009-0.111,0.013-0.219,0.013-0.322c0-1.042-0.362-1.562-1.087-1.562h-0.052
			C360.313,313.254,359.797,313.563,359.605,314.149z"/>
		<path fill="#FFFFFF" d="M368.173,310.917l0.052,1.562c0.473-0.75,1.019-1.215,1.639-1.396c0.367-0.104,0.737-0.156,1.113-0.156
			c0.279,0,0.56,0.026,0.839,0.078c0.682,0.131,1.166,0.65,1.455,1.562c0.227-0.709,0.619-1.184,1.179-1.422
			c0.559-0.237,1.179-0.359,1.859-0.365h0.053c0.664,0,1.302,0.121,1.913,0.361c0.619,0.248,1.094,0.711,1.421,1.392
			s0.5,1.612,0.517,2.798v5.674l-2.83,0.049c0.114-2.142,0.17-3.965,0.17-5.469s-0.384-2.314-1.152-2.432
			c-0.114-0.014-0.224-0.02-0.328-0.02c-0.611,0-1.083,0.293-1.415,0.879c-0.054,0.676-0.079,1.467-0.079,2.373
			c0,1.229,0.048,2.666,0.144,4.307l-3.274,0.02c0.123-2.52,0.184-4.355,0.184-5.508v-0.117c-0.009-1.139-0.31-1.738-0.904-1.797
			h-0.17c-0.532,0-1.048,0.229-1.546,0.684l0.026,7.148l-3.091,0.088v-1.602c0-2.838-0.058-5.674-0.17-8.506L368.173,310.917z"/>
		<path fill="#FFFFFF" d="M386.069,310.838c2.873,0.117,4.31,1.195,4.31,3.231v6.935l-3.053,0.039l-0.104-0.929
			c-0.629,0.535-1.463,0.802-2.502,0.802c-0.444,0-0.926-0.052-1.44-0.156c-1.546-0.286-2.319-1.178-2.319-2.676
			c0-0.183,0.013-0.377,0.039-0.586c0.175-1.543,1.646-2.313,4.415-2.313c0.533,0,1.118,0.028,1.756,0.088v-1.133
			c0-0.918-0.389-1.377-1.166-1.377h-0.053c-0.062-0.007-0.118-0.011-0.17-0.011c-0.849,0-1.271,0.515-1.271,1.543v0.146
			l-3.118-0.194c0-2.272,1.468-3.408,4.402-3.408H386.069L386.069,310.838z M387.169,318.554v-1.72
			c-0.376-0.06-0.717-0.088-1.021-0.088c-0.796,0-1.337,0.198-1.625,0.596c-0.176,0.241-0.263,0.466-0.263,0.675
			c0,0.26,0.141,0.491,0.419,0.692c0.219,0.156,0.502,0.233,0.853,0.233C385.977,318.944,386.523,318.813,387.169,318.554z"/>
		<path fill="#FFFFFF" d="M391.27,317.685l3-0.107v0.127c0,1.002,0.415,1.51,1.245,1.523h0.054c0.803,0,1.205-0.291,1.205-0.869
			v-0.068c-0.035-0.639-0.828-1.152-2.379-1.543c-1.55-0.391-2.481-1.048-2.797-1.973c-0.113-0.326-0.17-0.639-0.17-0.938
			c0-0.547,0.188-1.055,0.563-1.522c0.577-0.717,1.45-1.127,2.62-1.23c0.313-0.025,0.62-0.039,0.917-0.039
			c0.776,0,1.463,0.102,2.057,0.303c0.812,0.28,1.375,0.68,1.69,1.201c0.21,0.358,0.313,0.756,0.313,1.191
			c0,0.208-0.021,0.423-0.064,0.645l-2.805,0.049c0.026-0.162,0.04-0.312,0.04-0.449c0-0.65-0.28-1-0.838-1.045
			c-0.062-0.006-0.123-0.01-0.184-0.01c-0.576,0-0.965,0.219-1.166,0.654c-0.07,0.15-0.104,0.287-0.104,0.41
			c0,0.306,0.192,0.57,0.576,0.791c0.542,0.312,1.343,0.63,2.404,0.951c1.061,0.322,1.774,0.871,2.142,1.646
			c0.131,0.293,0.197,0.586,0.197,0.879c0,0.495-0.192,0.993-0.577,1.494c-0.611,0.801-1.559,1.266-2.843,1.396
			c-0.279,0.033-0.556,0.049-0.825,0.049c-0.961,0-1.852-0.186-2.673-0.557C391.82,320.168,391.287,319.183,391.27,317.685z"/>
	</g>
</g>
</svg>
