<?xml version="1.0" encoding="utf-8"?>
<!-- Generator: Adobe Illustrator 16.0.0, SVG Export Plug-In . SVG Version: 6.00 Build 0)  -->
<!DOCTYPE svg PUBLIC "-//W3C//DTD SVG 1.1//EN" "http://www.w3.org/Graphics/SVG/1.1/DTD/svg11.dtd">
<svg version="1.1" id="Capa_1" xmlns="http://www.w3.org/2000/svg" xmlns:xlink="http://www.w3.org/1999/xlink" x="0px" y="0px"
	 width="759.461px" height="332.717px" viewBox="0 0 759.461 332.717" enable-background="new 0 0 759.461 332.717"
	 xml:space="preserve">
<g>
	<rect y="37.025" fill="#007893" width="167.292" height="32"/>
	<rect x="173.544" y="36.5" fill="#0093AF" width="290.921" height="296.215"/>
	<rect x="468.542" y="37.025" fill="#A0C219" width="290.92" height="295.69"/>
	<g>
		<path fill="#FFFFFF" d="M42.379,62.858c0.052-1.712,0.079-3.463,0.079-5.254c0-2.748-0.062-5.592-0.184-8.535
			c1.494-0.156,2.812-0.234,3.957-0.234c1.799,0,3.152,0.195,4.061,0.586c1.406,0.605,2.109,1.846,2.109,3.721v0.322
			c-0.087,2.057-0.712,3.374-1.874,3.95c-1.162,0.576-2.594,0.884-4.297,0.923c-0.009,0.202-0.013,0.41-0.013,0.625
			c0,1.081,0.074,2.36,0.223,3.838L42.379,62.858z M45.733,51.334l0.092,4.775c1.625-0.065,2.576-0.498,2.856-1.299
			c0.131-0.365,0.197-0.739,0.197-1.123c0-0.449-0.088-0.912-0.262-1.387c-0.262-0.697-0.917-1.045-1.965-1.045
			C46.371,51.256,46.065,51.282,45.733,51.334z"/>
		<path fill="#FFFFFF" d="M57.17,56.149l0.131,7.08l-3.209,0.02c0-2.995-0.136-6.357-0.406-10.088l2.411-0.195l0.131,1.592
			c0.367-0.781,1.223-1.227,2.568-1.338c0.201-0.013,0.393-0.02,0.576-0.02c1.057,0,1.86,0.257,2.411,0.771
			c0.637,0.612,0.96,1.585,0.969,2.92l-2.908,0.215c0.009-0.111,0.013-0.218,0.013-0.322c0-1.042-0.363-1.562-1.087-1.562h-0.052
			C57.877,55.254,57.362,55.563,57.17,56.149z"/>
		<path fill="#FFFFFF" d="M68.24,53.122c2.969,0,4.454,1.537,4.454,4.609c0,0.124-0.004,0.248-0.013,0.371
			c-0.123,3.327-1.703,5.006-4.743,5.039c-0.035,0.006-0.07,0.01-0.105,0.01c-2.891,0-4.336-1.572-4.336-4.717v-0.273
			C63.584,54.801,65.166,53.122,68.24,53.122z M67.808,55.348c-0.55,0.143-0.926,0.674-1.127,1.592
			c-0.122,0.547-0.183,1.097-0.183,1.65c0,0.371,0.026,0.746,0.079,1.123c0.139,0.938,0.589,1.422,1.349,1.455h0.092
			c0.708,0,1.192-0.348,1.454-1.045c0.218-0.58,0.328-1.266,0.328-2.061c0-0.195-0.004-0.394-0.013-0.596
			c-0.07-1.048-0.279-1.703-0.629-1.963c-0.218-0.156-0.48-0.234-0.786-0.234C68.196,55.27,68.008,55.296,67.808,55.348z"/>
		<path fill="#FFFFFF" d="M73.493,67.047c0.052-2.194,0.079-4.528,0.079-7.002c0-2.252-0.022-4.616-0.065-7.09l3.104-0.01
			l0.105,1.504c0.646-0.729,1.506-1.094,2.581-1.094c2.682,0,4.022,1.579,4.022,4.736v0.195c-0.062,3.164-1.397,4.746-4.009,4.746
			c-0.105,0-0.21-0.003-0.314-0.01c-0.891-0.033-1.611-0.394-2.162-1.084c0,1.445,0.048,3.148,0.145,5.107h-3.486V67.047z
			 M76.768,56.452l0.065,3.672c0.507,0.514,1.018,0.771,1.533,0.771c0.209,0,0.419-0.045,0.629-0.137
			c0.637-0.26,0.956-1.039,0.956-2.334c0-0.156-0.004-0.319-0.013-0.488c-0.087-1.588-0.511-2.425-1.271-2.51
			c-0.079-0.006-0.153-0.01-0.223-0.01C77.781,55.417,77.222,55.762,76.768,56.452z"/>
		<path fill="#FFFFFF" d="M88.965,53.122c2.969,0,4.454,1.537,4.454,4.609c0,0.124-0.004,0.248-0.013,0.371
			c-0.122,3.327-1.703,5.006-4.742,5.039c-0.035,0.006-0.07,0.01-0.104,0.01c-2.891,0-4.336-1.572-4.336-4.717v-0.273
			C84.31,54.801,85.891,53.122,88.965,53.122z M88.533,55.348c-0.55,0.143-0.926,0.674-1.127,1.592
			c-0.122,0.547-0.183,1.097-0.183,1.65c0,0.371,0.026,0.746,0.079,1.123c0.14,0.938,0.589,1.422,1.349,1.455h0.092
			c0.708,0,1.192-0.348,1.454-1.045c0.218-0.58,0.328-1.266,0.328-2.061c0-0.195-0.004-0.394-0.013-0.596
			c-0.07-1.048-0.28-1.703-0.629-1.963c-0.218-0.156-0.48-0.234-0.786-0.234C88.921,55.27,88.733,55.296,88.533,55.348z
			 M87.262,51.217c1.022-0.905,1.86-1.768,2.515-2.588l2.149,1.27c-0.926,0.677-1.957,1.507-3.092,2.49L87.262,51.217z"/>
		<path fill="#FFFFFF" d="M93.982,59.684l3-0.107v0.127c0,1.002,0.415,1.51,1.245,1.523h0.052c0.804,0,1.206-0.29,1.206-0.869V60.29
			c-0.035-0.638-0.828-1.152-2.378-1.543c-1.55-0.391-2.482-1.048-2.797-1.973c-0.114-0.326-0.17-0.638-0.17-0.938
			c0-0.547,0.188-1.055,0.563-1.523c0.576-0.716,1.45-1.126,2.62-1.23c0.314-0.026,0.62-0.039,0.917-0.039
			c0.777,0,1.462,0.101,2.057,0.303c0.812,0.28,1.375,0.68,1.69,1.201c0.21,0.358,0.314,0.755,0.314,1.191
			c0,0.208-0.022,0.423-0.065,0.646l-2.804,0.049c0.026-0.163,0.04-0.312,0.04-0.449c0-0.651-0.28-1-0.838-1.045
			c-0.062-0.006-0.123-0.01-0.184-0.01c-0.576,0-0.965,0.218-1.166,0.654c-0.07,0.15-0.104,0.287-0.104,0.41
			c0,0.306,0.192,0.57,0.576,0.791c0.542,0.312,1.343,0.63,2.404,0.952c1.061,0.322,1.775,0.871,2.142,1.646
			c0.131,0.293,0.196,0.586,0.196,0.879c0,0.495-0.192,0.993-0.576,1.494c-0.611,0.801-1.559,1.266-2.843,1.396
			c-0.28,0.033-0.555,0.049-0.825,0.049c-0.961,0-1.852-0.186-2.673-0.557C94.533,62.168,94,61.182,93.982,59.684z"/>
		<path fill="#FFFFFF" d="M107.109,50.875c0,0.397-0.188,0.736-0.563,1.016c-0.375,0.28-0.83,0.42-1.363,0.42
			c-0.523,0-0.974-0.14-1.349-0.42c-0.375-0.28-0.563-0.619-0.563-1.016c0-0.391,0.188-0.726,0.563-1.006
			c0.375-0.28,0.826-0.42,1.349-0.42c0.533,0,0.987,0.14,1.363,0.42C106.922,50.149,107.109,50.485,107.109,50.875z M103.598,63.2
			c-0.061-3.809-0.092-7.1-0.092-9.873l3.302-0.146c-0.105,2.656-0.157,5.296-0.157,7.92c0,0.703,0.004,1.403,0.013,2.1
			L103.598,63.2L103.598,63.2z"/>
		<path fill="#FFFFFF" d="M110.018,50.006l2.974-0.146v3.232l2.502-0.049l0.039,1.846l-2.541,0.088v4.443
			c0,1.035,0.589,1.553,1.769,1.553c0.244,0,0.511-0.023,0.799-0.068l-0.118,2.148c-0.419,0.039-0.817,0.059-1.192,0.059
			c-2.76,0-4.166-1.061-4.218-3.184v-4.775l-2.148,0.098l-0.053-2.178l2.201,0.021L110.018,50.006z"/>
		<path fill="#FFFFFF" d="M121.231,53.122c2.969,0,4.455,1.537,4.455,4.609c0,0.124-0.005,0.248-0.013,0.371
			c-0.123,3.327-1.703,5.006-4.743,5.039c-0.035,0.006-0.07,0.01-0.104,0.01c-2.891,0-4.336-1.572-4.336-4.717v-0.273
			C116.577,54.801,118.157,53.122,121.231,53.122z M120.799,55.348c-0.55,0.143-0.926,0.674-1.127,1.592
			c-0.122,0.547-0.183,1.097-0.183,1.65c0,0.371,0.026,0.746,0.079,1.123c0.14,0.938,0.589,1.422,1.35,1.455h0.091
			c0.708,0,1.192-0.348,1.455-1.045c0.218-0.58,0.327-1.266,0.327-2.061c0-0.195-0.004-0.394-0.013-0.596
			c-0.07-1.048-0.279-1.703-0.628-1.963c-0.219-0.156-0.48-0.234-0.786-0.234C121.188,55.27,121,55.296,120.799,55.348z"/>
	</g>
</g>
</svg>
