<?xml version="1.0" encoding="utf-8"?>
<!-- Generator: Adobe Illustrator 16.0.0, SVG Export Plug-In . SVG Version: 6.00 Build 0)  -->
<!DOCTYPE svg PUBLIC "-//W3C//DTD SVG 1.1//EN" "http://www.w3.org/Graphics/SVG/1.1/DTD/svg11.dtd">
<svg version="1.1" id="Capa_1" xmlns="http://www.w3.org/2000/svg" xmlns:xlink="http://www.w3.org/1999/xlink" x="0px" y="0px"
	 width="759.461px" height="332.717px" viewBox="0 0 759.461 332.717" enable-background="new 0 0 759.461 332.717"
	 xml:space="preserve">
<g>
	<rect y="80.974" fill="#007893" width="167.292" height="32"/>
	<rect x="173.544" y="36.5" fill="#0093AF" width="290.921" height="296.215"/>
	<rect x="468.542" y="37.025" fill="#A0C219" width="290.92" height="295.69"/>
	<g>
		<path fill="#FFFFFF" d="M76.978,67.047h-3.485"/>
		<path fill="#FFFFFF" d="M60.543,92.147c-0.105,4.381-0.205,9.102-0.301,14.16h-2.974v-5.693h-3.733v5.234l-3.577-0.01
			c0.105-2.389,0.157-4.727,0.157-7.012c0-2.279-0.052-4.505-0.157-6.68h3.419l-0.144,5.693l3.734,0.117v-6.045L60.543,92.147z"/>
		<path fill="#FFFFFF" d="M65.364,93.875c0,0.397-0.188,0.736-0.563,1.016c-0.376,0.28-0.83,0.42-1.363,0.42
			c-0.524,0-0.974-0.14-1.349-0.42c-0.376-0.28-0.563-0.619-0.563-1.016c0-0.391,0.188-0.726,0.563-1.006
			c0.375-0.28,0.825-0.42,1.349-0.42c0.533,0,0.987,0.14,1.363,0.42C65.176,93.149,65.364,93.485,65.364,93.875z M61.854,106.2
			c-0.061-3.809-0.092-7.1-0.092-9.873l3.301-0.146c-0.104,2.656-0.157,5.296-0.157,7.92c0,0.703,0.004,1.403,0.013,2.1
			L61.854,106.2L61.854,106.2z"/>
		<path fill="#FFFFFF" d="M65.928,102.684l3-0.107v0.127c0,1.002,0.415,1.51,1.245,1.523h0.052c0.804,0,1.206-0.29,1.206-0.869
			v-0.068c-0.035-0.638-0.828-1.152-2.378-1.543c-1.55-0.391-2.482-1.048-2.797-1.973c-0.114-0.326-0.17-0.638-0.17-0.938
			c0-0.547,0.188-1.055,0.563-1.523c0.576-0.716,1.45-1.126,2.62-1.23c0.314-0.026,0.62-0.039,0.917-0.039
			c0.777,0,1.462,0.101,2.057,0.303c0.812,0.28,1.375,0.68,1.69,1.201c0.21,0.358,0.314,0.755,0.314,1.191
			c0,0.208-0.022,0.423-0.065,0.645l-2.804,0.049c0.026-0.163,0.04-0.312,0.04-0.449c0-0.651-0.28-1-0.838-1.045
			c-0.062-0.006-0.123-0.01-0.184-0.01c-0.576,0-0.965,0.218-1.166,0.654c-0.07,0.15-0.104,0.287-0.104,0.41
			c0,0.306,0.192,0.57,0.576,0.791c0.542,0.312,1.343,0.63,2.404,0.952c1.061,0.322,1.775,0.871,2.142,1.646
			c0.131,0.293,0.196,0.586,0.196,0.879c0,0.495-0.192,0.993-0.576,1.494c-0.611,0.801-1.559,1.266-2.843,1.396
			c-0.28,0.033-0.555,0.049-0.825,0.049c-0.961,0-1.852-0.186-2.673-0.557C66.478,105.168,65.945,104.182,65.928,102.684z"/>
		<path fill="#FFFFFF" d="M77.574,93.006l2.974-0.146v3.232l2.502-0.049l0.039,1.846l-2.542,0.088v4.443
			c0,1.035,0.589,1.553,1.769,1.553c0.245,0,0.511-0.023,0.799-0.068l-0.118,2.148c-0.419,0.039-0.816,0.059-1.192,0.059
			c-2.76,0-4.166-1.061-4.218-3.184v-4.775l-2.148,0.098l-0.053-2.178l2.201,0.021L77.574,93.006z"/>
		<path fill="#FFFFFF" d="M88.788,96.122c2.969,0,4.455,1.537,4.455,4.609c0,0.124-0.005,0.248-0.013,0.371
			c-0.123,3.327-1.703,5.006-4.743,5.039c-0.035,0.006-0.07,0.01-0.104,0.01c-2.891,0-4.336-1.572-4.336-4.717v-0.273
			C84.133,97.801,85.714,96.122,88.788,96.122z M88.356,98.348c-0.55,0.143-0.926,0.674-1.127,1.592
			c-0.122,0.547-0.183,1.097-0.183,1.65c0,0.371,0.026,0.746,0.079,1.123c0.14,0.938,0.589,1.422,1.35,1.455h0.091
			c0.708,0,1.192-0.348,1.455-1.045c0.218-0.58,0.327-1.266,0.327-2.061c0-0.195-0.004-0.394-0.013-0.596
			c-0.07-1.048-0.279-1.703-0.628-1.963c-0.219-0.156-0.48-0.234-0.786-0.234C88.745,98.27,88.557,98.296,88.356,98.348z"/>
		<path fill="#FFFFFF" d="M97.448,99.149l0.131,7.08l-3.209,0.02c0-2.995-0.135-6.357-0.406-10.088l2.411-0.195l0.131,1.592
			c0.367-0.781,1.223-1.227,2.568-1.338c0.201-0.013,0.393-0.02,0.577-0.02c1.057,0,1.86,0.257,2.41,0.771
			c0.638,0.612,0.961,1.585,0.97,2.92l-2.909,0.215c0.009-0.111,0.013-0.218,0.013-0.322c0-1.042-0.362-1.562-1.087-1.562h-0.052
			C98.155,98.254,97.64,98.563,97.448,99.149z"/>
		<path fill="#FFFFFF" d="M107.575,93.875c0,0.397-0.188,0.736-0.563,1.016c-0.375,0.28-0.83,0.42-1.362,0.42
			c-0.524,0-0.974-0.14-1.35-0.42c-0.376-0.28-0.563-0.619-0.563-1.016c0-0.391,0.188-0.726,0.563-1.006
			c0.375-0.28,0.825-0.42,1.35-0.42c0.532,0,0.987,0.14,1.362,0.42C107.387,93.149,107.575,93.485,107.575,93.875z M104.063,106.2
			c-0.061-3.809-0.092-7.1-0.092-9.873l3.301-0.146c-0.104,2.656-0.157,5.296-0.157,7.92c0,0.703,0.004,1.403,0.014,2.1
			L104.063,106.2L104.063,106.2z"/>
		<path fill="#FFFFFF" d="M113.365,95.838c2.874,0.117,4.311,1.195,4.311,3.232v6.934l-3.053,0.039l-0.104-0.928
			c-0.629,0.534-1.463,0.801-2.502,0.801c-0.445,0-0.926-0.052-1.441-0.156c-1.546-0.287-2.319-1.178-2.319-2.676
			c0-0.182,0.013-0.377,0.039-0.586c0.175-1.543,1.646-2.314,4.415-2.314c0.533,0,1.118,0.029,1.755,0.088v-1.133
			c0-0.918-0.389-1.377-1.166-1.377h-0.052c-0.061-0.006-0.118-0.01-0.17-0.01c-0.847,0-1.271,0.514-1.271,1.543v0.146l-3.118-0.195
			c0-2.272,1.467-3.408,4.402-3.408H113.365z M114.465,103.553v-1.719c-0.375-0.059-0.716-0.088-1.021-0.088
			c-0.795,0-1.336,0.199-1.625,0.596c-0.175,0.241-0.262,0.465-0.262,0.674c0,0.26,0.14,0.492,0.419,0.693
			c0.218,0.156,0.502,0.234,0.852,0.234C113.273,103.944,113.819,103.813,114.465,103.553z"/>
	</g>
</g>
</svg>
