<?xml version="1.0" encoding="utf-8"?>
<!-- Generator: Adobe Illustrator 16.0.0, SVG Export Plug-In . SVG Version: 6.00 Build 0)  -->
<!DOCTYPE svg PUBLIC "-//W3C//DTD SVG 1.1//EN" "http://www.w3.org/Graphics/SVG/1.1/DTD/svg11.dtd">
<svg version="1.1" id="Capa_1" xmlns="http://www.w3.org/2000/svg" xmlns:xlink="http://www.w3.org/1999/xlink" x="0px" y="0px"
	 width="759.461px" height="332.717px" viewBox="0 0 759.461 332.717" enable-background="new 0 0 759.461 332.717"
	 xml:space="preserve">
<g>
	<rect y="168.872" fill="#007893" width="167.293" height="32"/>
	<rect x="173.544" y="36.5" fill="#0093AF" width="290.921" height="296.215"/>
	<rect x="468.542" y="37.025" fill="#A0C219" width="290.92" height="295.69"/>
	<g>
		<path fill="#FFFFFF" d="M50.666,177.756c3.677,0,5.516,2.345,5.516,7.031c0,4.694-1.97,7.041-5.909,7.041
			s-5.908-2.433-5.908-7.295C44.365,180.017,46.465,177.756,50.666,177.756z M48.046,185.052c-0.009,0.168-0.013,0.331-0.013,0.487
			c0,2.455,0.769,3.683,2.306,3.683c1.633,0,2.45-1.391,2.45-4.17c0-2.781-0.76-4.171-2.279-4.171
			C48.98,180.881,48.159,182.271,48.046,185.052z"/>
		<path fill="#FFFFFF" d="M60.583,178.333c-0.096,1.959-0.144,3.662-0.144,5.107c0.463-0.619,1.052-0.98,1.769-1.084
			c0.122-0.006,0.24-0.01,0.354-0.01c2.847,0,4.301,1.531,4.362,4.6v0.176c0,3.072-1.515,4.609-4.546,4.609
			c-0.725,0-1.411-0.361-2.057-1.084l-0.105,1.494l-3.105-0.012c0.044-2.383,0.066-4.674,0.066-6.875
			c0-2.416-0.026-4.724-0.079-6.924L60.583,178.333L60.583,178.333z M60.439,185.267l-0.065,3.379
			c0.454,0.689,1.031,1.035,1.729,1.035c0.079,0,0.157-0.004,0.236-0.011c0.803-0.084,1.249-0.89,1.336-2.412
			c0.009-0.155,0.013-0.306,0.013-0.448c0-1.25-0.34-1.996-1.022-2.235c-0.209-0.072-0.415-0.107-0.615-0.107
			C61.5,184.465,60.963,184.731,60.439,185.267z"/>
		<path fill="#FFFFFF" d="M71.64,191.985l-3.262,0.225c0.035-2.154,0.053-4.229,0.053-6.221c0-2.799-0.035-5.439-0.105-7.92
			l3.209-0.039c-0.035,1.595-0.052,3.232-0.052,4.912C71.483,185.839,71.535,188.854,71.64,191.985z"/>
		<path fill="#FFFFFF" d="M76.435,179.875c0,0.397-0.188,0.735-0.563,1.017c-0.375,0.279-0.83,0.42-1.363,0.42
			c-0.523,0-0.974-0.141-1.349-0.42c-0.375-0.281-0.563-0.619-0.563-1.017c0-0.392,0.188-0.726,0.563-1.006s0.826-0.421,1.349-0.421
			c0.533,0,0.987,0.141,1.363,0.421S76.435,179.485,76.435,179.875z M72.924,192.2c-0.061-3.809-0.092-7.1-0.092-9.873l3.302-0.146
			c-0.105,2.656-0.157,5.297-0.157,7.92c0,0.703,0.004,1.403,0.013,2.102L72.924,192.2L72.924,192.2z"/>
		<path fill="#FFFFFF" d="M77.522,193.284l3.078-0.127c-0.009,0.078-0.013,0.156-0.013,0.234c0,0.709,0.38,1.096,1.14,1.161
			c0.122,0.013,0.236,0.021,0.341,0.021c0.655,0,1.122-0.195,1.401-0.586c0.245-0.353,0.367-1.01,0.367-1.973
			c0-0.262-0.009-0.549-0.026-0.859c-0.489,0.729-1.397,1.125-2.725,1.191c-2.594-0.021-3.891-1.664-3.891-4.934v-0.066
			c0.017-3.309,1.559-4.973,4.625-4.99c0.838,0,1.589,0.365,2.253,1.094l0.04-1.553l2.869,0.098c0,5.371-0.022,8.697-0.066,9.98
			c-0.043,1.281-0.303,2.311-0.779,3.086c-0.476,0.773-1.286,1.27-2.43,1.482c-0.603,0.117-1.201,0.178-1.794,0.178
			c-0.533,0-1.062-0.047-1.585-0.139c-1.118-0.193-1.886-0.562-2.306-1.104c-0.35-0.442-0.524-1.021-0.524-1.738
			C77.496,193.601,77.505,193.446,77.522,193.284z M83.784,189.417v-3.965c-0.428-0.645-0.969-0.967-1.625-0.967
			c-0.131,0-0.266,0.013-0.406,0.039c-0.848,0.148-1.315,1.019-1.402,2.605c-0.009,0.169-0.013,0.332-0.013,0.488
			c0,1.295,0.323,2.09,0.969,2.383c0.218,0.104,0.45,0.156,0.694,0.156C82.544,190.159,83.138,189.911,83.784,189.417z"/>
		<path fill="#FFFFFF" d="M93.06,181.838c2.873,0.117,4.31,1.195,4.31,3.231v6.935l-3.052,0.039l-0.105-0.929
			c-0.629,0.535-1.463,0.802-2.502,0.802c-0.445,0-0.926-0.052-1.441-0.155c-1.546-0.287-2.319-1.179-2.319-2.677
			c0-0.183,0.013-0.377,0.04-0.586c0.174-1.543,1.646-2.313,4.415-2.313c0.533,0,1.118,0.028,1.756,0.088v-1.133
			c0-0.918-0.389-1.377-1.166-1.377h-0.053c-0.061-0.007-0.118-0.011-0.17-0.011c-0.848,0-1.271,0.515-1.271,1.543v0.146
			l-3.118-0.193c0-2.271,1.467-3.408,4.401-3.408L93.06,181.838L93.06,181.838z M94.16,189.554v-1.72
			c-0.376-0.06-0.716-0.088-1.022-0.088c-0.795,0-1.336,0.198-1.625,0.596c-0.175,0.241-0.262,0.466-0.262,0.675
			c0,0.26,0.14,0.491,0.419,0.692c0.218,0.155,0.502,0.233,0.852,0.233C92.968,189.944,93.514,189.813,94.16,189.554z"/>
		<path fill="#FFFFFF" d="M100.828,181.868l0.131,1.592c0.367-0.846,1.332-1.275,2.896-1.289h0.052c1.537,0,2.585,0.449,3.144,1.348
			c0.384,0.612,0.577,2.045,0.577,4.297c0,1.107-0.048,2.416-0.144,3.928h-3.17c0.113-2.014,0.17-3.571,0.17-4.68
			c0-0.553-0.013-0.996-0.04-1.328c-0.087-0.977-0.506-1.465-1.258-1.465c-0.751,0-1.223,0.261-1.415,0.781l0.131,7.08l-3.079,0.02
			c0-2.993-0.135-6.355-0.406-10.088L100.828,181.868z"/>
		<path fill="#FFFFFF" d="M118.671,181.838c2.874,0.117,4.311,1.195,4.311,3.231v6.935l-3.053,0.039l-0.104-0.929
			c-0.629,0.535-1.463,0.802-2.502,0.802c-0.445,0-0.926-0.052-1.441-0.155c-1.546-0.287-2.319-1.179-2.319-2.677
			c0-0.183,0.013-0.377,0.039-0.586c0.175-1.543,1.646-2.313,4.415-2.313c0.533,0,1.118,0.028,1.755,0.088v-1.133
			c0-0.918-0.389-1.377-1.166-1.377h-0.052c-0.061-0.007-0.118-0.011-0.17-0.011c-0.847,0-1.271,0.515-1.271,1.543v0.146
			l-3.118-0.193c0-2.271,1.467-3.408,4.402-3.408L118.671,181.838L118.671,181.838z M119.771,189.554v-1.72
			c-0.375-0.06-0.716-0.088-1.021-0.088c-0.795,0-1.336,0.198-1.625,0.596c-0.175,0.241-0.262,0.466-0.262,0.675
			c0,0.26,0.14,0.491,0.419,0.692c0.218,0.155,0.502,0.233,0.852,0.233C118.579,189.944,119.125,189.813,119.771,189.554z"/>
	</g>
</g>
</svg>
