<?xml version="1.0" encoding="utf-8"?>
<!-- Generator: Adobe Illustrator 16.0.0, SVG Export Plug-In . SVG Version: 6.00 Build 0)  -->
<!DOCTYPE svg PUBLIC "-//W3C//DTD SVG 1.1//EN" "http://www.w3.org/Graphics/SVG/1.1/DTD/svg11.dtd">
<svg version="1.1" id="Capa_1" xmlns="http://www.w3.org/2000/svg" xmlns:xlink="http://www.w3.org/1999/xlink" x="0px" y="0px"
	 width="759.461px" height="332.717px" viewBox="0 0 759.461 332.717" enable-background="new 0 0 759.461 332.717"
	 xml:space="preserve">
<g>
	<rect y="212.819" fill="#007893" width="167.293" height="32"/>
	<rect x="173.544" y="36.5" fill="#0093AF" width="290.921" height="296.215"/>
	<rect x="468.542" y="37.025" fill="#A0C219" width="290.92" height="295.69"/>
	<g>
		<path fill="#FFFFFF" d="M9.419,234.761c1.642-5.561,2.969-10.272,3.982-14.142l4.913-0.06c1.206,4.022,2.585,8.606,4.14,13.75
			l-3.354,0.508l-1.061-3.7h-4.074l-1.101,3.993L9.419,234.761z M17.934,228.374c-0.454-1.406-1.196-3.089-2.227-5.049
			c-0.794,1.646-1.467,3.354-2.017,5.117L17.934,228.374z"/>
		<path fill="#FFFFFF" d="M34.257,239.536c0.009-2.09,0.013-3.857,0.013-5.303c-0.506,0.688-1.423,1.051-2.751,1.084
			c-2.559,0-3.843-1.66-3.852-4.98c-0.009-0.013-0.013-0.025-0.013-0.039c0-3.294,1.537-4.941,4.611-4.941
			c0.899,0,1.672,0.365,2.319,1.096l0.105-1.505l2.843,0.011c-0.044,2.57-0.065,5.006-0.065,7.307c0,2.524,0.026,4.885,0.079,7.078
			L34.257,239.536z M34.271,232.417v-3.965c-0.428-0.645-0.969-0.967-1.625-0.967c-0.131,0-0.267,0.013-0.406,0.039
			c-0.847,0.148-1.314,1.019-1.401,2.605c-0.009,0.169-0.013,0.332-0.013,0.488c0,1.295,0.323,2.09,0.969,2.383
			c0.218,0.104,0.45,0.156,0.694,0.156C33.03,233.159,33.624,232.911,34.271,232.417z"/>
		<path fill="#FFFFFF" d="M45.38,235.151l-0.131-1.592c-0.367,0.846-1.354,1.271-2.961,1.277c-0.018,0.007-0.031,0.012-0.04,0.012
			c-1.589,0-2.642-0.535-3.157-1.604c-0.349-0.709-0.524-2.18-0.524-4.404c0-1.146,0.048-2.497,0.144-4.053h3.184
			c-0.175,2.188-0.262,3.871-0.262,5.049c0,0.594,0.021,1.057,0.065,1.389c0.131,1.016,0.572,1.521,1.323,1.521
			s1.223-0.266,1.415-0.791l-0.131-6.775l3.079-0.021c0,2.799,0.135,6.062,0.406,9.783L45.38,235.151z"/>
		<path fill="#FFFFFF" d="M52.546,222.875c0,0.397-0.188,0.735-0.563,1.017c-0.376,0.279-0.83,0.42-1.363,0.42
			c-0.524,0-0.974-0.141-1.349-0.42c-0.376-0.281-0.563-0.619-0.563-1.017c0-0.392,0.188-0.726,0.563-1.006s0.825-0.42,1.349-0.42
			c0.533,0,0.987,0.14,1.363,0.42C52.358,222.149,52.546,222.485,52.546,222.875z M49.035,235.2c-0.062-3.809-0.092-7.1-0.092-9.873
			l3.301-0.146c-0.105,2.656-0.157,5.297-0.157,7.92c0,0.703,0.004,1.403,0.013,2.102L49.035,235.2L49.035,235.2z"/>
		<path fill="#FFFFFF" d="M57.524,225.122c3.031,0,4.546,1.5,4.546,4.502c0,0.365-0.021,0.755-0.065,1.172h-5.856
			c0,1.674,0.433,2.51,1.297,2.51h0.091c0.76-0.045,1.14-0.479,1.14-1.299c0-0.176-0.018-0.371-0.053-0.586l3.118-0.049
			c0,2.48-1.454,3.736-4.363,3.77c-0.035,0.006-0.065,0.01-0.091,0.01c-2.769,0-4.153-1.564-4.153-4.695v-0.293
			C53.223,226.801,54.686,225.122,57.524,225.122z M55.834,228.999h2.96v-0.234c0-1.185-0.45-1.776-1.349-1.776
			C56.476,226.987,55.939,227.657,55.834,228.999z M56.044,223.217c1.022-0.905,1.86-1.769,2.515-2.588l2.148,1.271
			c-0.926,0.678-1.957,1.507-3.092,2.49L56.044,223.217z"/>
		<path fill="#FFFFFF" d="M65.463,224.868l0.131,1.592c0.367-0.846,1.332-1.275,2.895-1.289h0.052c1.537,0,2.585,0.449,3.145,1.348
			c0.384,0.612,0.576,2.045,0.576,4.297c0,1.107-0.048,2.416-0.144,3.928h-3.17c0.113-2.014,0.17-3.571,0.17-4.68
			c0-0.553-0.013-0.996-0.04-1.328c-0.087-0.977-0.506-1.465-1.257-1.465s-1.223,0.261-1.415,0.781l0.131,7.08l-3.079,0.02
			c0-2.993-0.135-6.355-0.406-10.088L65.463,224.868z"/>
		<path fill="#FFFFFF" d="M78.315,239.047c0.052-2.194,0.079-4.528,0.079-7.002c0-2.252-0.022-4.616-0.066-7.09l3.105-0.011
			l0.105,1.505c0.646-0.729,1.506-1.095,2.581-1.095c2.681,0,4.022,1.58,4.022,4.735v0.195c-0.061,3.164-1.397,4.746-4.009,4.746
			c-0.104,0-0.209-0.005-0.314-0.011c-0.891-0.032-1.611-0.395-2.162-1.084c0,1.444,0.048,3.147,0.144,5.106h-3.485V239.047z
			 M81.59,228.452l0.065,3.672c0.506,0.514,1.018,0.771,1.533,0.771c0.21,0,0.419-0.045,0.629-0.139
			c0.638-0.26,0.957-1.038,0.957-2.334c0-0.154-0.004-0.318-0.013-0.486c-0.087-1.588-0.511-2.427-1.271-2.512
			c-0.079-0.006-0.153-0.01-0.223-0.01C82.603,227.417,82.044,227.763,81.59,228.452z"/>
		<path fill="#FFFFFF" d="M92.66,228.149l0.131,7.08l-3.209,0.02c0-2.995-0.136-6.357-0.406-10.088l2.41-0.195l0.131,1.592
			c0.367-0.781,1.223-1.227,2.568-1.338c0.201-0.013,0.393-0.02,0.576-0.02c1.057,0,1.86,0.257,2.411,0.771
			c0.637,0.61,0.96,1.584,0.969,2.92l-2.908,0.215c0.009-0.111,0.013-0.22,0.013-0.322c0-1.042-0.363-1.562-1.087-1.562h-0.053
			C93.367,227.254,92.852,227.563,92.66,228.149z"/>
		<path fill="#FFFFFF" d="M103.73,225.122c2.969,0,4.454,1.537,4.454,4.609c0,0.123-0.004,0.248-0.013,0.371
			c-0.123,3.325-1.703,5.006-4.742,5.039c-0.035,0.006-0.07,0.01-0.105,0.01c-2.891,0-4.336-1.572-4.336-4.717v-0.273
			C99.075,226.801,100.656,225.122,103.73,225.122z M103.297,227.349c-0.55,0.144-0.926,0.674-1.126,1.592
			c-0.123,0.547-0.183,1.098-0.183,1.649c0,0.371,0.026,0.746,0.078,1.123c0.14,0.938,0.59,1.423,1.35,1.455h0.092
			c0.707,0,1.192-0.349,1.454-1.045c0.218-0.58,0.328-1.267,0.328-2.062c0-0.194-0.004-0.395-0.013-0.597
			c-0.07-1.048-0.28-1.702-0.629-1.963c-0.218-0.155-0.48-0.233-0.786-0.233C103.686,227.271,103.499,227.296,103.297,227.349z"/>
		<path fill="#FFFFFF" d="M111.092,222.006l2.974-0.146v3.23l2.502-0.049l0.04,1.848l-2.542,0.088v4.441
			c0,1.035,0.589,1.555,1.769,1.555c0.244,0,0.511-0.023,0.799-0.068l-0.118,2.147c-0.419,0.038-0.817,0.06-1.192,0.06
			c-2.76,0-4.166-1.062-4.218-3.185v-4.774l-2.148,0.098l-0.052-2.178l2.201,0.02L111.092,222.006z"/>
		<path fill="#FFFFFF" d="M121.953,225.122c3.031,0,4.546,1.5,4.546,4.502c0,0.365-0.021,0.755-0.065,1.172h-5.856
			c0,1.674,0.433,2.51,1.297,2.51h0.091c0.76-0.045,1.14-0.479,1.14-1.299c0-0.176-0.018-0.371-0.053-0.586l3.118-0.049
			c0,2.48-1.454,3.736-4.363,3.77c-0.035,0.006-0.065,0.01-0.091,0.01c-2.769,0-4.153-1.564-4.153-4.695v-0.293
			C117.651,226.801,119.114,225.122,121.953,225.122z M120.263,228.999h2.96v-0.234c0-1.185-0.45-1.776-1.349-1.776
			C120.905,226.987,120.368,227.657,120.263,228.999z"/>
		<path fill="#FFFFFF" d="M127.848,236.284l3.079-0.127c-0.009,0.078-0.013,0.156-0.013,0.234c0,0.709,0.38,1.096,1.14,1.161
			c0.123,0.013,0.236,0.021,0.341,0.021c0.655,0,1.122-0.195,1.402-0.586c0.244-0.353,0.367-1.01,0.367-1.973
			c0-0.262-0.009-0.549-0.026-0.859c-0.489,0.729-1.397,1.125-2.725,1.191c-2.594-0.021-3.891-1.664-3.891-4.934v-0.066
			c0.018-3.309,1.559-4.973,4.625-4.99c0.838,0,1.59,0.365,2.253,1.094l0.04-1.553l2.869,0.098c0,5.371-0.022,8.697-0.065,9.98
			c-0.044,1.281-0.304,2.311-0.779,3.086c-0.476,0.773-1.286,1.27-2.43,1.482c-0.603,0.117-1.201,0.178-1.795,0.178
			c-0.533,0-1.061-0.047-1.585-0.139c-1.118-0.193-1.887-0.562-2.306-1.104c-0.35-0.442-0.524-1.021-0.524-1.737
			C127.822,236.601,127.831,236.446,127.848,236.284z M134.11,232.417v-3.965c-0.428-0.645-0.97-0.967-1.625-0.967
			c-0.131,0-0.267,0.013-0.406,0.039c-0.847,0.148-1.314,1.019-1.402,2.605c-0.009,0.169-0.013,0.332-0.013,0.488
			c0,1.295,0.323,2.09,0.97,2.383c0.218,0.104,0.45,0.156,0.694,0.156C132.87,233.159,133.464,232.911,134.11,232.417z"/>
		<path fill="#FFFFFF" d="M142.573,225.122c3.03,0,4.546,1.5,4.546,4.502c0,0.365-0.022,0.755-0.066,1.172h-5.855
			c0,1.674,0.432,2.51,1.297,2.51h0.092c0.76-0.045,1.14-0.479,1.14-1.299c0-0.176-0.018-0.371-0.053-0.586l3.118-0.049
			c0,2.48-1.454,3.736-4.362,3.77c-0.035,0.006-0.065,0.01-0.092,0.01c-2.769,0-4.153-1.564-4.153-4.695v-0.293
			C138.271,226.801,139.735,225.122,142.573,225.122z M140.883,228.999h2.96v-0.234c0-1.185-0.45-1.776-1.349-1.776
			C141.525,226.987,140.988,227.657,140.883,228.999z"/>
		<path fill="#FFFFFF" d="M150.512,224.868l0.131,1.592c0.367-0.846,1.332-1.275,2.896-1.289h0.052c1.537,0,2.585,0.449,3.144,1.348
			c0.384,0.612,0.576,2.045,0.576,4.297c0,1.107-0.048,2.416-0.144,3.928h-3.17c0.114-2.014,0.17-3.571,0.17-4.68
			c0-0.553-0.013-0.996-0.039-1.328c-0.087-0.977-0.507-1.465-1.258-1.465s-1.223,0.261-1.415,0.781l0.131,7.08l-3.079,0.02
			c0-2.993-0.136-6.355-0.406-10.088L150.512,224.868z"/>
	</g>
</g>
</svg>
