<?xml version="1.0" encoding="utf-8"?>
<!-- Generator: Adobe Illustrator 16.0.0, SVG Export Plug-In . SVG Version: 6.00 Build 0)  -->
<!DOCTYPE svg PUBLIC "-//W3C//DTD SVG 1.1//EN" "http://www.w3.org/Graphics/SVG/1.1/DTD/svg11.dtd">
<svg version="1.1" id="Capa_1" xmlns="http://www.w3.org/2000/svg" xmlns:xlink="http://www.w3.org/1999/xlink" x="0px" y="0px"
	 width="475.063px" height="146.062px" viewBox="0 0 475.063 146.062" enable-background="new 0 0 475.063 146.062"
	 xml:space="preserve">
<g>
	<g>
		<g>
			<path fill="#331842" d="M130.841,42.843c0.003,0.144-0.042,0.267-0.135,0.369c-0.094,0.102-0.213,0.155-0.356,0.158
				s-0.265-0.043-0.367-0.141c-0.102-0.098-0.154-0.218-0.158-0.362L129.527,30.6c-0.003-0.144,0.043-0.267,0.14-0.369
				c0.097-0.102,0.217-0.155,0.36-0.159c0.16-0.004,0.291,0.054,0.393,0.173l8.858,10.903l-0.263-10.78
				c-0.003-0.144,0.043-0.267,0.14-0.37c0.097-0.102,0.217-0.155,0.36-0.158c0.138-0.003,0.257,0.044,0.358,0.141
				c0.102,0.097,0.154,0.218,0.158,0.362l0.299,12.268c0.003,0.145-0.043,0.268-0.14,0.37s-0.214,0.155-0.352,0.158
				c-0.165,0.004-0.293-0.043-0.383-0.14l-8.875-10.928L130.841,42.843z"/>
			<path fill="#331842" d="M154.245,38.131c0.032,1.286-0.393,2.394-1.274,3.324c-0.88,0.931-1.959,1.412-3.236,1.443
				c-1.277,0.031-2.378-0.396-3.303-1.284c-0.925-0.886-1.403-1.973-1.435-3.258c-0.031-1.286,0.393-2.394,1.274-3.325
				c0.88-0.931,1.959-1.411,3.237-1.442c1.277-0.031,2.378,0.396,3.303,1.283S154.213,36.846,154.245,38.131z M149.533,34.62
				c-0.991,0.024-1.83,0.399-2.517,1.125c-0.688,0.727-1.019,1.588-0.995,2.585c0.024,0.998,0.397,1.842,1.119,2.534
				c0.722,0.692,1.578,1.026,2.569,1.002c0.991-0.024,1.83-0.399,2.518-1.125c0.682-0.721,1.011-1.583,0.986-2.585
				s-0.395-1.848-1.111-2.534C151.38,34.93,150.523,34.596,149.533,34.62z"/>
			<path fill="#331842" d="M166.295,40.474c0.143-0.003,0.266,0.045,0.367,0.145s0.154,0.222,0.157,0.366
				c0.004,0.144-0.046,0.27-0.147,0.378c-0.41,0.371-0.868,0.659-1.375,0.865c-0.507,0.207-1.045,0.317-1.611,0.331
				c-1.277,0.031-2.378-0.396-3.303-1.283s-1.403-1.973-1.434-3.258c-0.032-1.286,0.393-2.394,1.274-3.324
				c0.88-0.931,1.959-1.412,3.236-1.443c0.567-0.014,1.11,0.07,1.629,0.251c0.52,0.181,0.99,0.447,1.412,0.797
				c0.051,0.049,0.095,0.109,0.133,0.18c0.037,0.071,0.057,0.146,0.059,0.224c0.003,0.144-0.043,0.267-0.14,0.369
				c-0.097,0.102-0.217,0.155-0.36,0.158c-0.132,0.003-0.243-0.035-0.333-0.116c-0.686-0.577-1.478-0.854-2.375-0.832
				c-0.991,0.024-1.83,0.399-2.517,1.125c-0.682,0.721-1.011,1.583-0.986,2.585s0.395,1.848,1.111,2.535
				c0.722,0.692,1.578,1.026,2.569,1.001c0.435-0.01,0.853-0.101,1.253-0.271c0.4-0.17,0.76-0.396,1.078-0.675
				C166.073,40.513,166.174,40.477,166.295,40.474z"/>
			<path fill="#331842" d="M173.35,30.763c0.005,0.194-0.057,0.359-0.186,0.495s-0.29,0.207-0.482,0.211
				c-0.187,0.004-0.35-0.058-0.488-0.188c-0.138-0.13-0.209-0.292-0.214-0.486c-0.004-0.188,0.059-0.352,0.19-0.491
				c0.132-0.139,0.291-0.21,0.478-0.215c0.193-0.004,0.357,0.06,0.492,0.192C173.275,30.415,173.346,30.575,173.35,30.763z
				 M172.22,33.552c-0.003-0.144,0.043-0.267,0.14-0.369c0.097-0.103,0.216-0.155,0.36-0.159c0.143-0.003,0.267,0.043,0.371,0.141
				c0.104,0.097,0.158,0.218,0.161,0.362l0.202,8.278c0.003,0.145-0.045,0.267-0.144,0.369c-0.1,0.103-0.221,0.155-0.364,0.159
				s-0.266-0.043-0.367-0.141s-0.154-0.218-0.157-0.362L172.22,33.552z"/>
			<path fill="#331842" d="M188.171,37.305c0.031,1.286-0.393,2.394-1.274,3.324c-0.88,0.931-1.959,1.412-3.236,1.443
				c-1.277,0.031-2.378-0.396-3.303-1.284c-0.925-0.887-1.403-1.973-1.434-3.258c-0.031-1.285,0.393-2.394,1.274-3.324
				c0.88-0.931,1.959-1.412,3.236-1.442c1.277-0.031,2.378,0.396,3.303,1.283C187.662,34.933,188.14,36.02,188.171,37.305z
				 M183.459,33.793c-0.991,0.024-1.83,0.399-2.518,1.126c-0.687,0.727-1.019,1.588-0.994,2.585
				c0.024,0.998,0.397,1.842,1.119,2.534c0.722,0.692,1.578,1.026,2.569,1.002c0.991-0.024,1.83-0.399,2.518-1.126
				c0.682-0.72,1.01-1.582,0.986-2.585s-0.395-1.848-1.111-2.535C185.306,34.104,184.45,33.77,183.459,33.793z"/>
			<path fill="#331842" d="M192.782,33.051c-0.003-0.144,0.043-0.267,0.14-0.369c0.097-0.103,0.216-0.155,0.36-0.158
				c0.143-0.004,0.265,0.043,0.367,0.141c0.102,0.097,0.154,0.218,0.158,0.362l0.023,0.964c0.989-1.011,2.061-1.531,3.217-1.559
				c1.189-0.029,2.207,0.367,3.053,1.189c0.863,0.822,1.309,1.828,1.337,3.02l0.109,4.479c0.003,0.145-0.045,0.268-0.144,0.37
				c-0.1,0.102-0.221,0.155-0.364,0.159s-0.266-0.043-0.367-0.141c-0.102-0.098-0.154-0.218-0.157-0.362l-0.109-4.48
				c-0.022-0.914-0.36-1.676-1.014-2.287c-0.655-0.633-1.428-0.938-2.319-0.917s-1.652,0.365-2.28,1.029
				c-0.617,0.647-0.915,1.425-0.893,2.333l0.109,4.48c0.004,0.144-0.043,0.267-0.14,0.369s-0.216,0.155-0.359,0.159
				c-0.143,0.003-0.266-0.044-0.367-0.141s-0.154-0.218-0.157-0.362L192.782,33.051z"/>
			<path fill="#331842" d="M213.487,39.341c0.143-0.003,0.266,0.045,0.367,0.145s0.154,0.222,0.158,0.366s-0.038,0.264-0.124,0.361
				c-0.84,0.769-1.836,1.167-2.986,1.195c-1.277,0.031-2.378-0.396-3.303-1.284c-0.925-0.886-1.403-1.973-1.434-3.258
				c-0.031-1.285,0.393-2.394,1.274-3.324s1.959-1.411,3.236-1.442c1.277-0.031,2.378,0.396,3.303,1.283s1.403,1.973,1.434,3.258
				c0.004,0.144-0.043,0.267-0.14,0.37c-0.097,0.102-0.216,0.155-0.359,0.158l-7.696,0.188c0.186,0.827,0.549,1.5,1.09,2.019
				c0.722,0.692,1.578,1.026,2.569,1.002c0.452-0.011,0.868-0.095,1.25-0.25c0.381-0.156,0.729-0.377,1.042-0.662
				C213.26,39.385,213.366,39.344,213.487,39.341z M214.351,36.151c-0.174-0.822-0.535-1.495-1.082-2.02
				c-0.722-0.692-1.579-1.026-2.569-1.002c-0.991,0.024-1.83,0.399-2.517,1.126c-0.516,0.545-0.846,1.234-0.991,2.07L214.351,36.151
				z"/>
			<path fill="#331842" d="M221.705,36.322l0.008,0c-0.255-0.088-0.47-0.176-0.643-0.263c-0.173-0.087-0.308-0.18-0.403-0.277
				c-0.378-0.373-0.574-0.814-0.586-1.325c-0.013-0.515,0.169-0.977,0.544-1.385c0.773-0.828,1.798-1.258,3.075-1.289
				c0.683-0.017,1.328,0.113,1.935,0.39c0.607,0.276,1.159,0.674,1.657,1.194c0.062,0.076,0.095,0.172,0.098,0.289
				c0.003,0.144-0.045,0.269-0.144,0.374c-0.099,0.105-0.221,0.159-0.364,0.163c-0.138,0.003-0.246-0.039-0.325-0.125l-0.262-0.251
				c-0.722-0.692-1.578-1.026-2.569-1.002c-0.997,0.024-1.79,0.365-2.379,1.023c-0.161,0.198-0.237,0.438-0.23,0.721
				c0.015,0.166,0.068,0.309,0.159,0.429c0.091,0.12,0.223,0.208,0.395,0.265l4.253,1.302h-0.008
				c0.255,0.088,0.47,0.176,0.643,0.263c0.173,0.087,0.304,0.18,0.395,0.277c0.383,0.368,0.582,0.809,0.594,1.325
				c0.013,0.521-0.172,0.983-0.553,1.385c-0.768,0.829-1.79,1.258-3.067,1.289c-1.381,0.034-2.579-0.491-3.591-1.576
				c-0.062-0.082-0.095-0.181-0.098-0.297c-0.003-0.144,0.043-0.269,0.14-0.374s0.216-0.159,0.36-0.163
				c0.132-0.003,0.243,0.039,0.333,0.125l0.262,0.252c0.722,0.692,1.578,1.026,2.569,1.002c0.991-0.024,1.778-0.362,2.363-1.014
				c0.166-0.198,0.245-0.438,0.238-0.721c-0.036-0.354-0.221-0.588-0.554-0.702L221.705,36.322z"/>
			<path fill="#331842" d="M248.604,27.699c-0.003-0.144,0.044-0.267,0.144-0.369c0.1-0.103,0.221-0.155,0.364-0.159
				s0.266,0.043,0.367,0.141s0.154,0.218,0.157,0.362l0.198,8.128c0.031,1.286-0.394,2.394-1.274,3.324
				c-0.881,0.931-1.959,1.412-3.237,1.443c-1.277,0.031-2.378-0.396-3.303-1.284c-0.925-0.887-1.403-1.973-1.435-3.258
				c-0.031-1.285,0.394-2.394,1.274-3.324c0.88-0.931,1.959-1.412,3.236-1.442c1.277-0.031,2.378,0.396,3.303,1.283l0.33,0.316
				L248.604,27.699z M248.802,35.828c-0.024-1.003-0.395-1.848-1.111-2.535c-0.722-0.692-1.579-1.026-2.569-1.002
				s-1.83,0.399-2.517,1.126s-1.019,1.588-0.995,2.585c0.024,0.998,0.397,1.842,1.12,2.534c0.722,0.692,1.578,1.026,2.569,1.002
				c0.991-0.024,1.83-0.399,2.517-1.126C248.498,37.693,248.826,36.831,248.802,35.828z"/>
			<path fill="#331842" d="M261.859,38.163c0.143-0.003,0.266,0.045,0.367,0.145s0.154,0.222,0.158,0.366s-0.038,0.265-0.124,0.361
				c-0.84,0.769-1.836,1.167-2.986,1.195c-1.277,0.031-2.378-0.396-3.303-1.284c-0.925-0.887-1.403-1.973-1.435-3.258
				c-0.031-1.286,0.393-2.394,1.274-3.325c0.88-0.931,1.959-1.412,3.237-1.442c1.277-0.031,2.378,0.396,3.303,1.283
				s1.403,1.973,1.434,3.258c0.004,0.144-0.043,0.267-0.14,0.369c-0.097,0.103-0.216,0.155-0.359,0.159l-7.696,0.188
				c0.186,0.827,0.549,1.5,1.09,2.019c0.722,0.692,1.578,1.026,2.569,1.002c0.452-0.011,0.868-0.095,1.25-0.25
				c0.382-0.156,0.729-0.377,1.042-0.662C261.632,38.207,261.738,38.166,261.859,38.163z M262.724,34.973
				c-0.174-0.822-0.535-1.495-1.082-2.02c-0.722-0.692-1.578-1.026-2.569-1.002c-0.991,0.024-1.83,0.399-2.517,1.126
				c-0.516,0.545-0.846,1.235-0.991,2.07L262.724,34.973z"/>
		</g>
	</g>
	<path fill="#F2961C" d="M99.572,88.152l-5.613,0.136l-3.3,0.081l-7.48,0.18l-0.911-37.632l23.866-0.582l12.444-0.299v1.105
		c-0.165,2.762-1.732,3.322-4.419,2.859c-1.523-0.269-3.046-0.306-4.539-0.149c-7.711,0.828-14.557,7.002-16.132,14.997
		c-0.866,4.382-0.456,8.928,1.247,12.832C95.818,84.173,97.43,86.397,99.572,88.152z"/>
	<path fill="#0093AF" d="M371.523,81.531l-262.216,6.383c-4.054-0.531-7.197-2.322-9.354-5.309
		c-0.239-0.335-0.463-0.679-0.672-1.037c-1.941-3.315-2.605-7.674-1.762-11.929c1.201-6.137,6.48-11.057,12.541-11.706
		c1.127-0.121,2.27-0.083,3.404,0.111c0.799,0.135,1.516,0.202,2.188,0.202c4.076,0,6.771-2.627,7.024-6.86l0.007-1.403v-0.052
		l247.921-6.04l0.754,31.047L371.523,81.531z"/>
	<g>
		<path fill="#FFFFFF" d="M127.156,71.659c-0.035-2.129-0.08-4.321-0.135-6.576c-0.055-2.261-0.12-4.582-0.195-6.963
			c0.973-0.112,1.87-0.178,2.691-0.198c2.288-0.056,3.982,0.244,5.083,0.9c1.497,0.899,2.31,2.607,2.439,5.126l0.017,0.682
			c0.052,2.16-0.189,3.708-0.727,4.644c-0.594,1.032-1.708,1.735-3.344,2.11c-0.944,0.219-1.984,0.342-3.12,0.37
			C129.02,71.774,128.116,71.743,127.156,71.659z M130.044,60.753c-0.094,2.082-0.117,4.092-0.069,6.031
			c0.018,0.733,0.044,1.453,0.078,2.16c0.298,0.043,0.582,0.062,0.854,0.055c0.745-0.018,1.368-0.226,1.867-0.624
			c0.682-0.535,1.001-1.706,0.957-3.512l0-0.038c-0.053-1.819-0.421-3.004-1.104-3.556c-0.527-0.417-1.147-0.617-1.859-0.6
			C130.539,60.674,130.297,60.703,130.044,60.753z"/>
		<path fill="#FFFFFF" d="M142.078,61.919c2.94-0.071,4.445,1.349,4.517,4.26c0.008,0.354-0.004,0.733-0.036,1.139l-5.681,0.139
			c0.04,1.623,0.479,2.424,1.317,2.404l0.089-0.002c0.736-0.062,1.094-0.491,1.075-1.287c-0.004-0.17-0.026-0.36-0.064-0.567
			l3.023-0.121c0.059,2.406-1.322,3.66-4.143,3.76c-0.034,0.007-0.063,0.011-0.089,0.012c-2.686,0.065-4.066-1.421-4.14-4.459
			l-0.007-0.284C137.944,63.651,139.324,61.987,142.078,61.919z M140.53,65.721l2.873-0.07l-0.006-0.228
			c-0.028-1.149-0.478-1.713-1.351-1.692C141.105,63.754,140.6,64.417,140.53,65.721z"/>
		<path fill="#FFFFFF" d="M150.894,64.644l0.294,6.866l-3.113,0.095c-0.071-2.905-0.282-6.165-0.632-9.777l2.334-0.247l0.165,1.541
			c0.337-0.767,1.157-1.219,2.459-1.359c0.194-0.017,0.381-0.028,0.559-0.032c1.025-0.025,1.811,0.206,2.357,0.691
			c0.633,0.579,0.969,1.516,1.009,2.81l-2.816,0.277c0.006-0.107,0.008-0.212,0.005-0.312c-0.025-1.011-0.389-1.508-1.092-1.49
			l-0.051,0.001C151.559,63.759,151.066,64.071,150.894,64.644z"/>
		<path fill="#FFFFFF" d="M161.219,61.453c2.94-0.071,4.445,1.349,4.517,4.261c0.008,0.354-0.003,0.733-0.036,1.138l-5.681,0.138
			c0.04,1.624,0.479,2.425,1.318,2.404l0.089-0.002c0.736-0.062,1.094-0.491,1.075-1.287c-0.004-0.17-0.025-0.359-0.064-0.567
			l3.024-0.121c0.059,2.407-1.323,3.66-4.144,3.761c-0.034,0.007-0.063,0.011-0.089,0.011c-2.686,0.065-4.065-1.421-4.14-4.459
			l-0.007-0.284C157.085,63.185,158.465,61.521,161.219,61.453z M159.671,65.254l2.872-0.07l-0.005-0.228
			c-0.028-1.149-0.479-1.713-1.351-1.692C160.246,63.288,159.741,63.951,159.671,65.254z"/>
		<path fill="#FFFFFF" d="M171.922,67.023l3.028,0.068c0.055,2.28-1.327,3.47-4.148,3.57c-0.034,0.007-0.063,0.011-0.089,0.012
			c-2.686,0.065-4.066-1.42-4.14-4.459l-0.007-0.284c0.005-3.261,1.397-4.941,4.176-5.041l0.102-0.002
			c2.559-0.062,3.865,1,3.918,3.185c0.003,0.126,0.001,0.253-0.003,0.379l-2.729,0.218l-0.006-0.227
			c-0.028-1.149-0.479-1.714-1.351-1.692c-0.89,0.021-1.312,0.964-1.267,2.827l0.008,0.313c0.1,2.014,0.573,3.01,1.42,2.989
			l0.077-0.002c0.736-0.062,1.094-0.491,1.075-1.287C171.983,67.419,171.961,67.23,171.922,67.023z"/>
		<path fill="#FFFFFF" d="M178.792,57.177l0.257,5.331c0.336-0.83,1.156-1.267,2.46-1.312l0.038-0.001
			c1.288-0.031,2.214,0.382,2.777,1.241c0.387,0.584,0.607,1.97,0.661,4.155c0.026,1.074,0.01,2.345-0.047,3.812l-3.203,0.078
			c0.062-1.955,0.081-3.468,0.055-4.542c-0.013-0.537-0.037-0.966-0.07-1.288c-0.108-0.945-0.484-1.41-1.127-1.395
			c-0.644,0.016-1.053,0.278-1.227,0.788l0.294,6.866l-3.114,0.095c-0.071-2.905-0.355-7.458-0.854-13.659L178.792,57.177z"/>
		<path fill="#FFFFFF" d="M190.387,60.743c2.881-0.07,4.357,1.385,4.43,4.366c0.003,0.12,0.001,0.24-0.004,0.36
			c-0.04,3.23-1.534,4.897-4.482,5.001c-0.034,0.007-0.067,0.011-0.102,0.012c-2.804,0.068-4.244-1.423-4.318-4.474l-0.007-0.265
			C185.911,62.482,187.405,60.815,190.387,60.743z M190.021,62.913c-0.531,0.152-0.882,0.676-1.056,1.571
			c-0.105,0.533-0.152,1.068-0.139,1.605c0.009,0.36,0.043,0.723,0.103,1.087c0.158,0.906,0.605,1.366,1.344,1.38l0.089-0.002
			c0.687-0.017,1.148-0.366,1.386-1.048c0.198-0.567,0.288-1.236,0.269-2.007c-0.005-0.189-0.014-0.382-0.027-0.578
			c-0.093-1.015-0.312-1.645-0.657-1.889c-0.215-0.146-0.472-0.216-0.768-0.209C190.396,62.828,190.214,62.858,190.021,62.913z"/>
		<path fill="#FFFFFF" d="M195.41,66.991l2.908-0.175l0.003,0.124c0.024,0.973,0.438,1.455,1.244,1.448l0.051-0.001
			c0.779-0.02,1.163-0.31,1.149-0.872l-0.002-0.066c-0.049-0.618-0.83-1.098-2.343-1.44s-2.433-0.958-2.76-1.848
			c-0.118-0.313-0.181-0.615-0.188-0.906c-0.013-0.531,0.157-1.028,0.511-1.491c0.542-0.708,1.379-1.127,2.513-1.255
			c0.304-0.033,0.601-0.053,0.889-0.06c0.754-0.019,1.421,0.063,2.002,0.245c0.795,0.252,1.351,0.627,1.668,1.125
			c0.212,0.343,0.323,0.726,0.333,1.148c0.005,0.202-0.012,0.411-0.049,0.627l-2.718,0.114c0.021-0.159,0.031-0.304,0.027-0.437
			c-0.015-0.631-0.295-0.963-0.838-0.994c-0.059-0.004-0.119-0.006-0.178-0.005c-0.56,0.014-0.931,0.234-1.116,0.662
			c-0.064,0.147-0.095,0.281-0.092,0.401c0.007,0.297,0.2,0.548,0.578,0.753c0.533,0.291,1.317,0.58,2.354,0.867
			s1.743,0.803,2.117,1.546c0.134,0.281,0.205,0.563,0.211,0.848c0.012,0.48-0.163,0.968-0.524,1.463
			c-0.574,0.792-1.482,1.265-2.725,1.422c-0.271,0.039-0.537,0.061-0.799,0.067c-0.933,0.022-1.801-0.136-2.606-0.477
			C196.002,69.388,195.462,68.443,195.41,66.991z"/>
		<path fill="#FFFFFF" d="M219.449,56.177c0.002,4.253,0.016,8.835,0.042,13.745l-2.885,0.07l-0.135-5.523l-3.622,0.088l0.124,5.078
			l-3.47,0.075c0.045-2.32,0.041-4.589-0.013-6.807c-0.054-2.21-0.157-4.369-0.311-6.477l3.317-0.081l-0.005,5.527l3.625,0.025
			l-0.143-5.864L219.449,56.177z"/>
		<path fill="#FFFFFF" d="M227.495,69.575l-0.165-1.542c-0.336,0.83-1.283,1.267-2.842,1.311c-0.017,0.007-0.03,0.01-0.038,0.01
			c-1.542,0.038-2.576-0.455-3.101-1.479c-0.355-0.68-0.56-2.101-0.612-4.26c-0.027-1.112-0.013-2.423,0.044-3.936l3.088-0.075
			c-0.118,2.126-0.163,3.761-0.135,4.904c0.014,0.575,0.046,1.023,0.096,1.344c0.151,0.982,0.591,1.464,1.32,1.446
			c0.729-0.018,1.18-0.284,1.354-0.801l-0.288-6.572l2.987-0.092c0.066,2.716,0.274,5.877,0.625,9.483L227.495,69.575z"/>
		<path fill="#FFFFFF" d="M232.693,59.514l0.087,1.514c0.44-0.737,0.958-1.202,1.556-1.393c0.354-0.11,0.712-0.169,1.077-0.178
			c0.271-0.006,0.543,0.012,0.815,0.056c0.664,0.11,1.146,0.604,1.448,1.481c0.204-0.694,0.574-1.163,1.11-1.406
			c0.537-0.244,1.135-0.377,1.796-0.399l0.051-0.001c0.644-0.016,1.266,0.086,1.864,0.305c0.607,0.226,1.078,0.665,1.412,1.316
			c0.333,0.652,0.523,1.553,0.568,2.702l0.134,5.504l-2.744,0.114c0.06-2.081,0.071-3.851,0.036-5.31
			c-0.036-1.459-0.428-2.236-1.176-2.332c-0.11-0.01-0.216-0.014-0.318-0.011c-0.593,0.015-1.044,0.31-1.352,0.886
			c-0.035,0.658-0.042,1.426-0.02,2.304c0.029,1.194,0.109,2.585,0.241,4.175l-3.177,0.096c0.059-2.447,0.075-4.229,0.048-5.348
			l-0.003-0.114c-0.035-1.105-0.342-1.679-0.919-1.722l-0.165,0.004c-0.517,0.013-1.011,0.246-1.483,0.7l0.194,6.935l-2.997,0.158
			l-0.038-1.554c-0.067-2.754-0.189-5.503-0.366-8.248L232.693,59.514z"/>
		<path fill="#FFFFFF" d="M250.052,59.015c2.791,0.046,4.21,1.058,4.258,3.034l0.164,6.727l-2.96,0.11l-0.124-0.897
			c-0.598,0.533-1.4,0.811-2.409,0.836c-0.432,0.01-0.899-0.029-1.402-0.118c-1.506-0.241-2.277-1.088-2.313-2.542
			c-0.004-0.177,0.004-0.366,0.024-0.569c0.133-1.501,1.542-2.284,4.229-2.35c0.517-0.012,1.085,0.002,1.705,0.044l-0.027-1.099
			c-0.021-0.891-0.41-1.327-1.164-1.308l-0.051,0.001c-0.06-0.004-0.115-0.006-0.166-0.005c-0.822,0.02-1.221,0.529-1.196,1.527
			l0.003,0.143l-3.029-0.116c-0.054-2.204,1.343-3.341,4.189-3.41L250.052,59.015z M251.302,66.474l-0.041-1.668
			c-0.366-0.048-0.697-0.068-0.994-0.061c-0.771,0.019-1.292,0.225-1.562,0.617c-0.164,0.238-0.243,0.458-0.238,0.66
			c0.006,0.252,0.147,0.474,0.423,0.663c0.215,0.146,0.493,0.216,0.832,0.208C250.155,66.88,250.681,66.741,251.302,66.474z"/>
		<path fill="#FFFFFF" d="M257.59,58.859l0.165,1.542c0.336-0.83,1.262-1.27,2.778-1.319l0.051-0.001
			c1.491-0.037,2.519,0.375,3.082,1.233c0.387,0.585,0.607,1.97,0.661,4.155c0.026,1.074,0.01,2.345-0.047,3.812l-3.076,0.075
			c0.062-1.954,0.081-3.468,0.055-4.542c-0.013-0.537-0.037-0.966-0.07-1.288c-0.108-0.945-0.526-1.409-1.254-1.391
			c-0.729,0.018-1.181,0.281-1.354,0.791l0.294,6.866l-2.986,0.092c-0.071-2.905-0.282-6.165-0.632-9.777L257.59,58.859z"/>
		<path fill="#FFFFFF" d="M269.721,58.811c2.881-0.07,4.358,1.386,4.43,4.367c0.003,0.12,0.001,0.24-0.004,0.36
			c-0.04,3.23-1.534,4.897-4.482,5c-0.034,0.007-0.067,0.011-0.101,0.012c-2.805,0.068-4.244-1.423-4.318-4.474l-0.006-0.265
			C265.244,60.55,266.738,58.883,269.721,58.811z M269.354,60.981c-0.53,0.152-0.882,0.676-1.055,1.571
			c-0.106,0.533-0.152,1.069-0.139,1.605c0.009,0.36,0.043,0.723,0.103,1.088c0.157,0.906,0.605,1.366,1.343,1.38l0.089-0.002
			c0.687-0.017,1.148-0.366,1.386-1.048c0.198-0.567,0.288-1.236,0.269-2.007c-0.005-0.19-0.014-0.382-0.027-0.578
			c-0.093-1.016-0.312-1.645-0.656-1.89c-0.216-0.146-0.472-0.216-0.769-0.209C269.729,60.896,269.548,60.926,269.354,60.981z"/>
		<path fill="#FFFFFF" d="M274.744,65.059l2.908-0.175l0.003,0.123c0.023,0.973,0.438,1.456,1.243,1.448l0.051-0.001
			c0.78-0.019,1.163-0.31,1.149-0.872l-0.001-0.066c-0.049-0.618-0.83-1.098-2.343-1.441c-1.514-0.342-2.434-0.958-2.76-1.848
			c-0.118-0.313-0.18-0.615-0.188-0.905c-0.013-0.531,0.157-1.028,0.511-1.491c0.542-0.708,1.379-1.127,2.513-1.256
			c0.304-0.033,0.601-0.053,0.889-0.06c0.754-0.019,1.421,0.063,2.002,0.245c0.795,0.252,1.351,0.627,1.668,1.125
			c0.212,0.342,0.323,0.725,0.333,1.148c0.005,0.203-0.011,0.412-0.048,0.627l-2.719,0.114c0.021-0.159,0.031-0.305,0.027-0.437
			c-0.015-0.632-0.295-0.963-0.838-0.994c-0.06-0.005-0.119-0.006-0.178-0.005c-0.559,0.013-0.931,0.234-1.116,0.662
			c-0.064,0.147-0.095,0.281-0.092,0.4c0.007,0.297,0.2,0.548,0.578,0.754c0.533,0.291,1.318,0.579,2.355,0.867
			c1.037,0.288,1.743,0.803,2.117,1.546c0.134,0.281,0.205,0.564,0.211,0.848c0.012,0.48-0.163,0.968-0.524,1.463
			c-0.574,0.791-1.482,1.265-2.725,1.422c-0.271,0.038-0.537,0.061-0.799,0.066c-0.932,0.023-1.801-0.136-2.606-0.477
			C275.336,67.456,274.796,66.511,274.744,65.059z"/>
		<path fill="#FFFFFF" d="M292.105,70.371c-2.163-2.475-3.312-5.607-3.446-9.396c-0.077-3.158,0.925-6.026,3.008-8.605l2.542-0.062
			c-1.633,2.568-2.411,5.431-2.334,8.589c0.092,3.79,1.017,6.927,2.773,9.412L292.105,70.371z"/>
		<path fill="#FFFFFF" d="M295.864,67.549c-0.035-2.128-0.08-4.321-0.134-6.576c-0.055-2.261-0.121-4.582-0.195-6.963
			c0.972-0.112,1.869-0.178,2.691-0.198c2.288-0.056,3.982,0.244,5.083,0.9c1.497,0.899,2.311,2.608,2.439,5.126l0.017,0.682
			c0.053,2.16-0.189,3.708-0.726,4.644c-0.594,1.032-1.708,1.735-3.344,2.11c-0.944,0.219-1.984,0.342-3.119,0.37
			C297.728,67.665,296.824,67.634,295.864,67.549z M298.752,56.644c-0.093,2.082-0.116,4.092-0.069,6.031
			c0.018,0.733,0.043,1.453,0.078,2.16c0.298,0.043,0.583,0.062,0.854,0.055c0.746-0.018,1.368-0.226,1.867-0.624
			c0.682-0.535,1.001-1.706,0.957-3.512l-0.001-0.038c-0.053-1.819-0.421-3.004-1.104-3.556c-0.527-0.417-1.146-0.617-1.858-0.6
			C299.246,56.565,299.005,56.593,298.752,56.644z"/>
		<path fill="#FFFFFF" d="M306.985,67.278c-0.035-2.128-0.08-4.321-0.135-6.575c-0.055-2.262-0.12-4.583-0.195-6.963
			c0.972-0.112,1.869-0.178,2.691-0.198c2.288-0.056,3.982,0.245,5.083,0.9c1.497,0.899,2.31,2.608,2.439,5.126l0.017,0.682
			c0.053,2.16-0.189,3.708-0.726,4.644c-0.594,1.032-1.708,1.735-3.344,2.11c-0.944,0.219-1.984,0.342-3.12,0.37
			C308.849,67.395,307.945,67.363,306.985,67.278z M309.873,56.373c-0.093,2.082-0.116,4.092-0.069,6.031
			c0.018,0.733,0.044,1.453,0.078,2.16c0.298,0.043,0.582,0.062,0.854,0.055c0.745-0.018,1.368-0.226,1.867-0.624
			c0.682-0.535,1.001-1.705,0.958-3.512l-0.001-0.038c-0.053-1.818-0.421-3.004-1.104-3.556c-0.527-0.417-1.147-0.617-1.859-0.599
			C310.367,56.294,310.126,56.322,309.873,56.373z"/>
		<path fill="#FFFFFF" d="M328.053,53.531c0.002,4.253,0.016,8.835,0.042,13.745l-2.885,0.07l-0.135-5.523l-3.622,0.088l0.124,5.078
			l-3.47,0.075c0.045-2.32,0.041-4.589-0.013-6.806c-0.054-2.21-0.157-4.37-0.311-6.477l3.317-0.081l-0.005,5.527l3.625,0.025
			l-0.143-5.864L328.053,53.531z"/>
		<path fill="#FFFFFF" d="M339.543,53.251c0.001,4.253,0.016,8.835,0.042,13.745l-2.885,0.07l-0.134-5.523l-3.622,0.088l0.124,5.078
			l-3.47,0.075c0.045-2.32,0.041-4.589-0.013-6.806c-0.054-2.211-0.157-4.37-0.31-6.477l3.317-0.081l-0.005,5.527l3.625,0.026
			l-0.143-5.865L339.543,53.251z"/>
		<path fill="#FFFFFF" d="M341.139,69.177c1.633-2.567,2.403-5.746,2.311-9.536c-0.077-3.158-0.994-5.979-2.75-8.465l2.542-0.062
			c2.205,2.475,3.346,5.291,3.423,8.449c0.05,3.791-0.945,6.975-2.985,9.552L341.139,69.177z"/>
		<path fill="#FFFFFF" d="M352.498,56.756l3.325-0.28c-0.03,1.896-0.03,3.458,0,4.683c0.011,0.461,0.029,0.875,0.055,1.241
			c0.067,1.351,0.491,2.036,1.271,2.055c0.051,0.005,0.098,0.007,0.14,0.006c0.695-0.017,1.128-0.324,1.3-0.922
			c0.093-0.35,0.124-1.176,0.092-2.477c-0.025-1.042-0.092-2.387-0.2-4.034l3.123-0.247c0.081,1.926,0.138,3.58,0.172,4.963
			c0.042,1.725,0.048,3.026,0.019,3.905c-0.046,1.581-0.623,2.796-1.73,3.645c-0.999,0.77-2.417,1.178-4.256,1.223
			c-0.212,0.005-0.428,0.004-0.648-0.003l-0.412-2.303c0.161,0.002,0.318,0.002,0.47-0.002c1.424-0.035,2.394-0.245,2.91-0.63
			c0.533-0.398,0.789-1.024,0.769-1.877l-0.004-0.151c-0.469,0.58-1.204,0.882-2.204,0.907l-0.178,0.004
			c-1.094-0.011-1.949-0.312-2.565-0.9s-0.965-1.427-1.047-2.515C352.817,61.958,352.684,59.861,352.498,56.756z"/>
	</g>
	<path fill="#A0C219" d="M118.466,92.527c0,6.435,0.045,12.466-0.03,18.409l-4.098,0.104l-23.112,0.56l-0.567-23.231l-0.157-6.196
		l-0.007-0.388l4.24-0.105c1.083,2.494,2.694,4.718,4.837,6.472c2.412,1.979,5.501,3.352,9.272,3.837
		c0.955,0.127,1.948,0.195,2.994,0.195C113.935,92.19,116.025,92.393,118.466,92.527z"/>
	<path fill="#A0C219" d="M122.542,110.839c0.052-4.188,0.045-8.406,0.037-12.803c-0.007-1.807-0.007-3.643-0.007-5.509v-3.882
		l-3.882-0.217c-0.754-0.045-1.478-0.089-2.172-0.141c-1.598-0.105-3.105-0.209-4.68-0.209c-0.836,0-1.643-0.053-2.471-0.157
		c-0.022,0-0.038-0.007-0.06-0.007c-4.054-0.531-7.197-2.322-9.354-5.309c-0.239-0.335-0.463-0.679-0.672-1.037l272.078-6.629
		l102.98-2.509l0.724,29.815L122.542,110.839z"/>
	<g>
		<g>
			<path fill="#FFFFFF" d="M130.461,103.938c-0.035-2.129-0.08-4.321-0.135-6.576c-0.055-2.261-0.12-4.582-0.195-6.963
				c0.972-0.112,1.869-0.178,2.691-0.198c2.288-0.056,3.982,0.244,5.083,0.9c1.497,0.899,2.31,2.607,2.439,5.126l0.017,0.682
				c0.053,2.16-0.189,3.708-0.726,4.644c-0.594,1.032-1.708,1.735-3.344,2.11c-0.944,0.219-1.984,0.342-3.119,0.37
				C132.324,104.053,131.421,104.021,130.461,103.938z M133.349,93.032c-0.094,2.082-0.117,4.092-0.069,6.031
				c0.018,0.733,0.043,1.453,0.078,2.16c0.297,0.043,0.582,0.062,0.853,0.055c0.746-0.019,1.368-0.227,1.867-0.624
				c0.682-0.535,1.001-1.705,0.957-3.512l-0.001-0.038c-0.053-1.819-0.421-3.004-1.104-3.557c-0.527-0.417-1.146-0.616-1.858-0.599
				C133.843,92.953,133.602,92.981,133.349,93.032z"/>
			<path fill="#FFFFFF" d="M145.382,94.198c2.94-0.071,4.446,1.349,4.517,4.26c0.009,0.354-0.003,0.733-0.036,1.139l-5.682,0.138
				c0.04,1.624,0.479,2.425,1.318,2.404l0.089-0.002c0.736-0.062,1.095-0.491,1.075-1.287c-0.004-0.17-0.026-0.36-0.065-0.567
				l3.024-0.121c0.059,2.407-1.323,3.66-4.143,3.76c-0.034,0.007-0.063,0.011-0.089,0.012c-2.686,0.065-4.066-1.421-4.14-4.459
				l-0.007-0.284C141.249,95.93,142.628,94.266,145.382,94.198z M143.834,98l2.873-0.07l-0.006-0.228
				c-0.028-1.149-0.479-1.714-1.351-1.692C144.41,96.033,143.904,96.696,143.834,98z"/>
			<path fill="#FFFFFF" d="M154.198,96.922l0.294,6.866l-3.114,0.095c-0.07-2.905-0.281-6.165-0.632-9.777l2.334-0.247l0.165,1.541
				c0.337-0.767,1.157-1.219,2.459-1.358c0.194-0.018,0.381-0.028,0.559-0.033c1.025-0.025,1.811,0.206,2.357,0.691
				c0.633,0.579,0.969,1.516,1.009,2.81l-2.816,0.277c0.006-0.107,0.008-0.211,0.005-0.313c-0.025-1.01-0.389-1.507-1.092-1.49
				l-0.051,0.001C154.863,96.037,154.371,96.35,154.198,96.922z"/>
			<path fill="#FFFFFF" d="M164.523,93.732c2.94-0.072,4.445,1.348,4.517,4.26c0.008,0.354-0.004,0.733-0.036,1.139l-5.681,0.139
				c0.04,1.623,0.479,2.424,1.317,2.404l0.089-0.002c0.736-0.062,1.094-0.491,1.075-1.287c-0.004-0.17-0.026-0.36-0.064-0.567
				l3.023-0.121c0.059,2.406-1.322,3.66-4.143,3.76c-0.034,0.007-0.063,0.011-0.089,0.012c-2.686,0.065-4.066-1.421-4.14-4.459
				l-0.007-0.284C160.39,95.463,161.77,93.799,164.523,93.732z M162.975,97.533l2.873-0.07l-0.006-0.227
				c-0.028-1.149-0.478-1.714-1.351-1.693C163.55,95.566,163.045,96.23,162.975,97.533z"/>
			<path fill="#FFFFFF" d="M175.227,99.302l3.028,0.068c0.056,2.28-1.327,3.47-4.147,3.57c-0.034,0.008-0.063,0.011-0.089,0.012
				c-2.686,0.065-4.066-1.421-4.14-4.459l-0.007-0.284c0.005-3.261,1.397-4.941,4.176-5.041l0.102-0.002
				c2.559-0.062,3.865,1,3.918,3.185c0.003,0.126,0.001,0.253-0.004,0.379l-2.729,0.218l-0.006-0.227
				c-0.028-1.149-0.479-1.714-1.351-1.692c-0.89,0.021-1.312,0.964-1.266,2.827l0.007,0.313c0.1,2.014,0.574,3.01,1.421,2.989
				l0.076-0.002c0.736-0.062,1.094-0.491,1.075-1.287C175.287,99.698,175.266,99.509,175.227,99.302z"/>
			<path fill="#FFFFFF" d="M182.096,89.456l0.257,5.331c0.335-0.83,1.156-1.267,2.46-1.311l0.038-0.001
				c1.288-0.031,2.214,0.382,2.777,1.241c0.387,0.584,0.607,1.97,0.661,4.155c0.026,1.074,0.01,2.345-0.047,3.812l-3.203,0.078
				c0.062-1.955,0.081-3.468,0.055-4.542c-0.013-0.537-0.036-0.966-0.069-1.288c-0.108-0.946-0.484-1.41-1.128-1.395
				s-1.053,0.278-1.227,0.788l0.294,6.866l-3.113,0.095c-0.071-2.905-0.355-7.458-0.854-13.658L182.096,89.456z"/>
			<path fill="#FFFFFF" d="M193.692,93.022c2.88-0.07,4.357,1.385,4.43,4.366c0.003,0.12,0.001,0.24-0.004,0.36
				c-0.04,3.231-1.534,4.897-4.482,5.001c-0.034,0.007-0.068,0.011-0.102,0.012c-2.805,0.068-4.244-1.422-4.318-4.473l-0.006-0.266
				C189.215,94.761,190.709,93.095,193.692,93.022z M193.325,95.192c-0.531,0.152-0.882,0.675-1.056,1.571
				c-0.106,0.533-0.152,1.069-0.139,1.605c0.009,0.36,0.043,0.723,0.103,1.087c0.158,0.906,0.605,1.366,1.343,1.38l0.089-0.002
				c0.686-0.017,1.148-0.366,1.386-1.048c0.198-0.567,0.288-1.236,0.269-2.007c-0.004-0.189-0.014-0.382-0.027-0.578
				c-0.092-1.015-0.312-1.645-0.656-1.89c-0.215-0.146-0.472-0.216-0.768-0.208C193.7,95.107,193.519,95.137,193.325,95.192z"/>
			<path fill="#FFFFFF" d="M207.244,101.697l-3.16,0.295c-0.113-4.636-0.32-8.985-0.623-13.048l3.617-0.315
				C207.089,92.92,207.144,97.276,207.244,101.697z"/>
			<path fill="#FFFFFF" d="M210.628,92.363l0.165,1.542c0.336-0.83,1.262-1.27,2.778-1.319l0.051-0.001
				c1.491-0.037,2.519,0.375,3.082,1.233c0.387,0.584,0.608,1.97,0.661,4.155c0.026,1.074,0.011,2.345-0.047,3.812l-3.076,0.075
				c0.062-1.955,0.081-3.468,0.055-4.542c-0.013-0.537-0.036-0.966-0.069-1.288c-0.108-0.945-0.526-1.409-1.255-1.392
				c-0.729,0.018-1.18,0.282-1.354,0.792l0.294,6.866l-2.986,0.092c-0.071-2.905-0.282-6.165-0.632-9.777L210.628,92.363z"/>
			<path fill="#FFFFFF" d="M220.334,89.349l2.881-0.212l0.077,3.136l2.426-0.106l0.082,1.79l-2.463,0.146l0.105,4.311
				c0.024,1.004,0.608,1.493,1.752,1.464c0.237-0.005,0.495-0.034,0.773-0.085l-0.063,2.087c-0.406,0.048-0.791,0.076-1.155,0.085
				c-2.678,0.065-4.067-0.931-4.168-2.989l-0.113-4.633l-2.082,0.146l-0.103-2.111l2.136-0.033L220.334,89.349z"/>
			<path fill="#FFFFFF" d="M230.944,92.114c2.94-0.071,4.446,1.349,4.517,4.26c0.008,0.354-0.003,0.733-0.036,1.139l-5.681,0.138
				c0.04,1.624,0.479,2.425,1.318,2.404l0.089-0.002c0.736-0.062,1.094-0.491,1.075-1.287c-0.004-0.171-0.026-0.36-0.065-0.567
				l3.024-0.121c0.059,2.407-1.323,3.66-4.144,3.76c-0.034,0.007-0.063,0.011-0.088,0.012c-2.687,0.065-4.066-1.421-4.14-4.459
				l-0.007-0.284C226.811,93.846,228.19,92.182,230.944,92.114z M229.396,95.916l2.872-0.07l-0.005-0.228
				c-0.028-1.149-0.479-1.714-1.351-1.692C229.971,93.949,229.466,94.612,229.396,95.916z"/>
			<path fill="#FFFFFF" d="M239.76,94.838l0.294,6.866l-3.113,0.095c-0.071-2.905-0.282-6.165-0.632-9.777l2.334-0.246l0.165,1.541
				c0.337-0.767,1.157-1.219,2.459-1.358c0.195-0.018,0.381-0.028,0.559-0.033c1.025-0.025,1.811,0.206,2.356,0.691
				c0.633,0.579,0.97,1.515,1.01,2.81l-2.816,0.277c0.006-0.107,0.007-0.211,0.005-0.313c-0.024-1.01-0.389-1.507-1.092-1.49
				l-0.051,0.001C240.425,93.953,239.932,94.266,239.76,94.838z"/>
			<path fill="#FFFFFF" d="M248.286,91.445l0.165,1.542c0.336-0.83,1.262-1.27,2.778-1.319l0.051-0.001
				c1.491-0.037,2.519,0.375,3.082,1.233c0.387,0.585,0.607,1.97,0.661,4.155c0.026,1.074,0.01,2.345-0.047,3.812l-3.076,0.075
				c0.062-1.954,0.081-3.468,0.055-4.542c-0.013-0.537-0.036-0.966-0.069-1.288c-0.108-0.945-0.526-1.409-1.255-1.391
				c-0.729,0.018-1.18,0.281-1.354,0.791l0.294,6.866l-2.986,0.092c-0.071-2.905-0.282-6.165-0.633-9.777L248.286,91.445z"/>
			<path fill="#FFFFFF" d="M260.855,91.111c2.791,0.045,4.21,1.057,4.258,3.034l0.164,6.727l-2.96,0.11l-0.124-0.897
				c-0.598,0.533-1.4,0.812-2.409,0.836c-0.432,0.01-0.899-0.029-1.402-0.118c-1.506-0.241-2.277-1.088-2.313-2.541
				c-0.004-0.177,0.004-0.367,0.024-0.569c0.133-1.501,1.542-2.284,4.229-2.35c0.517-0.013,1.085,0.001,1.705,0.043l-0.027-1.099
				c-0.021-0.891-0.41-1.327-1.164-1.308l-0.051,0.001c-0.06-0.005-0.115-0.007-0.166-0.006c-0.822,0.02-1.221,0.529-1.196,1.527
				l0.003,0.142l-3.029-0.116c-0.054-2.204,1.343-3.341,4.19-3.41L260.855,91.111z M262.105,98.569l-0.041-1.667
				c-0.366-0.048-0.697-0.068-0.994-0.062c-0.771,0.019-1.292,0.225-1.562,0.616c-0.164,0.238-0.243,0.458-0.238,0.66
				c0.006,0.253,0.147,0.474,0.423,0.663c0.215,0.146,0.493,0.215,0.832,0.207C260.958,98.977,261.484,98.838,262.105,98.569z"/>
			<path fill="#FFFFFF" d="M271.401,96.959l3.028,0.068c0.055,2.28-1.327,3.471-4.148,3.571c-0.034,0.007-0.063,0.011-0.089,0.012
				c-2.686,0.065-4.066-1.421-4.14-4.459l-0.007-0.284c0.005-3.261,1.397-4.941,4.176-5.041l0.102-0.003
				c2.559-0.062,3.865,1,3.918,3.185c0.003,0.126,0.001,0.252-0.004,0.379l-2.729,0.218l-0.006-0.228
				c-0.028-1.149-0.479-1.714-1.351-1.692c-0.89,0.021-1.312,0.964-1.266,2.828l0.007,0.312c0.1,2.014,0.574,3.01,1.421,2.99
				l0.076-0.002c0.736-0.062,1.095-0.491,1.075-1.287C271.461,97.356,271.439,97.167,271.401,96.959z"/>
			<path fill="#FFFFFF" d="M278.844,88.768c0.009,0.385-0.165,0.718-0.522,0.999c-0.358,0.28-0.795,0.427-1.312,0.439
				c-0.508,0.012-0.948-0.113-1.319-0.375c-0.371-0.263-0.561-0.587-0.571-0.972c-0.009-0.379,0.165-0.708,0.523-0.989
				c0.357-0.281,0.791-0.427,1.299-0.439c0.517-0.013,0.961,0.112,1.332,0.375C278.645,88.067,278.835,88.388,278.844,88.768z
				 M275.729,100.807c-0.149-3.693-0.256-6.885-0.322-9.576l3.2-0.22c-0.039,2.58-0.027,5.142,0.035,7.688
				c0.017,0.682,0.037,1.361,0.062,2.037L275.729,100.807z"/>
			<path fill="#FFFFFF" d="M284.07,90.82c2.88-0.07,4.357,1.386,4.43,4.367c0.003,0.12,0.002,0.24-0.004,0.36
				c-0.04,3.23-1.534,4.897-4.481,5c-0.034,0.007-0.068,0.011-0.102,0.012c-2.805,0.068-4.244-1.423-4.318-4.474l-0.006-0.265
				C279.593,92.56,281.087,90.893,284.07,90.82z M283.703,92.991c-0.53,0.152-0.882,0.676-1.055,1.571
				c-0.106,0.534-0.152,1.069-0.139,1.605c0.009,0.36,0.043,0.723,0.103,1.088c0.158,0.906,0.605,1.366,1.343,1.38l0.089-0.002
				c0.687-0.017,1.148-0.366,1.386-1.048c0.198-0.567,0.288-1.236,0.269-2.007c-0.005-0.189-0.014-0.382-0.027-0.578
				c-0.093-1.016-0.312-1.645-0.656-1.89c-0.216-0.146-0.472-0.216-0.768-0.208C284.078,92.906,283.897,92.936,283.703,92.991z"/>
			<path fill="#FFFFFF" d="M291.423,90.395l0.165,1.541c0.335-0.83,1.262-1.27,2.778-1.319l0.051-0.001
				c1.491-0.036,2.519,0.375,3.082,1.233c0.387,0.584,0.607,1.97,0.661,4.155c0.026,1.074,0.01,2.345-0.047,3.812l-3.076,0.075
				c0.062-1.954,0.081-3.468,0.055-4.542c-0.013-0.537-0.037-0.966-0.07-1.288c-0.108-0.945-0.526-1.409-1.254-1.391
				c-0.729,0.018-1.181,0.281-1.354,0.791l0.294,6.866l-2.986,0.091c-0.071-2.905-0.282-6.165-0.632-9.777L291.423,90.395z"/>
			<path fill="#FFFFFF" d="M303.992,90.061c2.79,0.045,4.209,1.057,4.258,3.034l0.164,6.727l-2.96,0.11l-0.124-0.898
				c-0.597,0.533-1.4,0.812-2.409,0.836c-0.432,0.01-0.899-0.029-1.401-0.118c-1.507-0.241-2.278-1.088-2.313-2.541
				c-0.004-0.177,0.004-0.367,0.024-0.569c0.133-1.501,1.542-2.284,4.229-2.35c0.517-0.013,1.085,0.002,1.705,0.043l-0.027-1.099
				c-0.021-0.891-0.41-1.326-1.164-1.308l-0.051,0.001c-0.059-0.005-0.114-0.007-0.165-0.006c-0.822,0.02-1.221,0.529-1.196,1.527
				l0.003,0.142l-3.03-0.115c-0.054-2.205,1.343-3.341,4.19-3.411L303.992,90.061z M305.242,97.519l-0.041-1.667
				c-0.366-0.048-0.697-0.068-0.993-0.062c-0.771,0.019-1.292,0.225-1.562,0.617c-0.164,0.238-0.243,0.458-0.238,0.66
				c0.006,0.253,0.147,0.474,0.423,0.663c0.215,0.146,0.492,0.215,0.832,0.207C304.095,97.926,304.621,97.787,305.242,97.519z"/>
			<path fill="#FFFFFF" d="M313.001,99.69l-3.16,0.295c-0.017-2.091-0.049-4.104-0.096-6.036c-0.066-2.716-0.163-5.276-0.289-7.681
				l3.113-0.114c0.003,1.548,0.025,3.137,0.065,4.767C312.704,93.731,312.826,96.655,313.001,99.69z"/>
			<path fill="#FFFFFF" d="M328.879,85.871c0.001,4.253,0.016,8.835,0.042,13.745l-2.885,0.07l-0.135-5.523l-3.622,0.088
				l0.124,5.078l-3.47,0.075c0.045-2.321,0.041-4.589-0.013-6.806c-0.054-2.211-0.158-4.37-0.311-6.477l3.317-0.081l-0.005,5.527
				l3.625,0.026l-0.143-5.865L328.879,85.871z"/>
			<path fill="#FFFFFF" d="M336.925,99.269l-0.165-1.541c-0.336,0.83-1.284,1.267-2.842,1.311c-0.017,0.007-0.029,0.01-0.038,0.01
				c-1.542,0.038-2.576-0.455-3.101-1.479c-0.355-0.68-0.56-2.1-0.612-4.26c-0.027-1.112-0.013-2.423,0.044-3.936l3.088-0.075
				c-0.118,2.126-0.163,3.762-0.135,4.904c0.014,0.575,0.046,1.023,0.096,1.344c0.151,0.982,0.591,1.465,1.32,1.447
				c0.729-0.018,1.18-0.285,1.354-0.801l-0.288-6.572l2.986-0.092c0.066,2.716,0.275,5.877,0.625,9.483L336.925,99.269z"/>
			<path fill="#FFFFFF" d="M342.123,89.207l0.087,1.515c0.44-0.737,0.958-1.202,1.556-1.394c0.354-0.109,0.712-0.169,1.077-0.178
				c0.271-0.006,0.543,0.012,0.815,0.056c0.664,0.11,1.146,0.604,1.448,1.481c0.204-0.694,0.574-1.163,1.11-1.406
				s1.135-0.377,1.796-0.399l0.051-0.001c0.644-0.016,1.266,0.086,1.864,0.305c0.607,0.226,1.078,0.664,1.412,1.316
				c0.334,0.652,0.523,1.553,0.568,2.702l0.134,5.505l-2.744,0.114c0.059-2.081,0.071-3.851,0.036-5.31
				c-0.036-1.459-0.428-2.236-1.176-2.332c-0.11-0.01-0.216-0.014-0.318-0.011c-0.593,0.014-1.044,0.31-1.352,0.886
				c-0.035,0.658-0.042,1.426-0.02,2.304c0.029,1.194,0.109,2.585,0.241,4.175l-3.177,0.097c0.059-2.447,0.075-4.23,0.048-5.348
				l-0.003-0.114c-0.036-1.105-0.342-1.679-0.919-1.722l-0.165,0.004c-0.517,0.013-1.012,0.246-1.484,0.7l0.194,6.935l-2.997,0.159
				l-0.038-1.554c-0.067-2.754-0.189-5.503-0.366-8.248L342.123,89.207z"/>
			<path fill="#FFFFFF" d="M359.482,88.709c2.79,0.045,4.209,1.057,4.258,3.034l0.164,6.727l-2.96,0.11l-0.124-0.898
				c-0.598,0.533-1.401,0.812-2.409,0.836c-0.432,0.01-0.899-0.029-1.401-0.118c-1.506-0.241-2.277-1.088-2.313-2.541
				c-0.004-0.177,0.004-0.367,0.024-0.569c0.133-1.501,1.542-2.284,4.229-2.35c0.517-0.013,1.085,0.002,1.705,0.043l-0.027-1.099
				c-0.021-0.891-0.41-1.327-1.164-1.308l-0.051,0.001c-0.06-0.005-0.115-0.007-0.166-0.006c-0.822,0.02-1.221,0.529-1.196,1.527
				l0.003,0.142l-3.03-0.115c-0.054-2.205,1.343-3.341,4.19-3.411L359.482,88.709z M360.732,96.167l-0.041-1.667
				c-0.365-0.048-0.697-0.068-0.993-0.062c-0.771,0.019-1.292,0.225-1.562,0.617c-0.164,0.238-0.243,0.458-0.238,0.66
				c0.006,0.253,0.147,0.474,0.423,0.663c0.215,0.146,0.493,0.215,0.832,0.207C359.585,96.574,360.111,96.436,360.732,96.167z"/>
			<path fill="#FFFFFF" d="M367.02,88.554l0.165,1.541c0.336-0.83,1.262-1.27,2.778-1.319l0.051-0.001
				c1.491-0.036,2.519,0.375,3.082,1.233c0.388,0.584,0.608,1.97,0.661,4.155c0.026,1.074,0.01,2.345-0.047,3.812l-3.076,0.075
				c0.062-1.955,0.081-3.469,0.055-4.542c-0.013-0.537-0.036-0.966-0.069-1.288c-0.108-0.945-0.526-1.409-1.255-1.391
				c-0.729,0.018-1.18,0.282-1.354,0.792l0.294,6.865l-2.986,0.092c-0.071-2.905-0.282-6.165-0.632-9.777L367.02,88.554z"/>
			<path fill="#FFFFFF" d="M378.183,86.348c0.009,0.385-0.165,0.718-0.522,0.999c-0.358,0.28-0.795,0.427-1.312,0.439
				c-0.508,0.012-0.948-0.113-1.319-0.375s-0.561-0.587-0.57-0.972c-0.01-0.379,0.165-0.709,0.522-0.989s0.791-0.427,1.299-0.439
				c0.517-0.012,0.96,0.113,1.332,0.375S378.173,85.969,378.183,86.348z M375.068,98.387c-0.149-3.694-0.257-6.886-0.322-9.577
				l3.199-0.22c-0.039,2.579-0.027,5.142,0.035,7.688c0.017,0.682,0.037,1.361,0.062,2.036L375.068,98.387z"/>
			<path fill="#FFFFFF" d="M380.984,85.436l2.881-0.212l0.077,3.136l2.426-0.106l0.082,1.79l-2.464,0.146l0.105,4.311
				c0.024,1.004,0.608,1.493,1.752,1.465c0.237-0.006,0.495-0.034,0.773-0.085l-0.063,2.087c-0.406,0.047-0.791,0.076-1.155,0.085
				c-2.677,0.065-4.066-0.931-4.167-2.989l-0.113-4.633l-2.082,0.146l-0.103-2.112l2.136-0.033L380.984,85.436z"/>
			<path fill="#FFFFFF" d="M392.375,87.908c2.791,0.045,4.21,1.057,4.258,3.034l0.164,6.727l-2.96,0.11l-0.124-0.897
				c-0.598,0.533-1.4,0.812-2.409,0.836c-0.432,0.011-0.899-0.029-1.401-0.118c-1.507-0.241-2.277-1.088-2.313-2.541
				c-0.004-0.177,0.004-0.367,0.024-0.569c0.133-1.501,1.542-2.284,4.229-2.35c0.517-0.013,1.085,0.001,1.705,0.043l-0.027-1.099
				c-0.021-0.891-0.41-1.327-1.164-1.309l-0.051,0.001c-0.06-0.005-0.115-0.007-0.166-0.005c-0.822,0.02-1.221,0.529-1.196,1.527
				l0.003,0.142l-3.03-0.116c-0.054-2.204,1.343-3.341,4.19-3.41L392.375,87.908z M393.625,95.366l-0.041-1.667
				c-0.365-0.048-0.697-0.068-0.993-0.061c-0.771,0.019-1.292,0.224-1.562,0.616c-0.164,0.238-0.243,0.458-0.238,0.66
				c0.006,0.252,0.147,0.474,0.423,0.663c0.215,0.146,0.493,0.215,0.832,0.207C392.478,95.773,393.004,95.634,393.625,95.366z"/>
			<path fill="#FFFFFF" d="M401.032,90.91l0.294,6.866l-3.114,0.095c-0.07-2.906-0.281-6.165-0.632-9.777l2.334-0.247l0.165,1.541
				c0.337-0.767,1.157-1.219,2.459-1.358c0.194-0.018,0.381-0.028,0.559-0.033c1.025-0.025,1.811,0.206,2.357,0.691
				c0.633,0.579,0.969,1.516,1.009,2.81l-2.816,0.277c0.006-0.107,0.008-0.212,0.005-0.312c-0.024-1.011-0.388-1.507-1.092-1.49
				l-0.051,0.001C401.697,90.025,401.205,90.337,401.032,90.91z"/>
			<path fill="#FFFFFF" d="M410.732,85.555c0.009,0.386-0.165,0.719-0.523,0.999s-0.795,0.427-1.312,0.439
				c-0.508,0.012-0.948-0.113-1.319-0.375c-0.371-0.263-0.561-0.587-0.57-0.972c-0.009-0.379,0.165-0.708,0.522-0.989
				c0.358-0.28,0.791-0.427,1.299-0.439c0.517-0.013,0.961,0.112,1.332,0.375C410.533,84.855,410.723,85.176,410.732,85.555z
				 M407.617,97.594c-0.149-3.693-0.257-6.885-0.322-9.576l3.199-0.22c-0.039,2.58-0.027,5.142,0.035,7.688
				c0.017,0.682,0.038,1.361,0.062,2.037L407.617,97.594z"/>
			<path fill="#FFFFFF" d="M415.958,87.608c2.881-0.07,4.357,1.385,4.43,4.367c0.003,0.12,0.001,0.24-0.004,0.36
				c-0.04,3.23-1.534,4.897-4.482,5.001c-0.034,0.007-0.067,0.011-0.102,0.012c-2.805,0.068-4.244-1.423-4.318-4.474l-0.006-0.265
				C411.481,89.348,412.976,87.681,415.958,87.608z M415.591,89.778c-0.53,0.152-0.882,0.676-1.055,1.571
				c-0.106,0.533-0.152,1.068-0.139,1.605c0.009,0.36,0.043,0.723,0.103,1.088c0.158,0.906,0.606,1.366,1.344,1.38l0.089-0.002
				c0.687-0.017,1.148-0.366,1.386-1.048c0.198-0.567,0.288-1.236,0.269-2.007c-0.004-0.189-0.014-0.382-0.026-0.578
				c-0.093-1.015-0.312-1.645-0.656-1.89c-0.216-0.146-0.472-0.216-0.769-0.208C415.966,89.693,415.785,89.723,415.591,89.778z"/>
			<path fill="#FFFFFF" d="M429.318,99.388c-2.163-2.475-3.312-5.607-3.446-9.396c-0.077-3.158,0.925-6.026,3.008-8.605l2.542-0.062
				c-1.633,2.568-2.411,5.431-2.334,8.589c0.092,3.79,1.017,6.927,2.773,9.412L429.318,99.388z"/>
			<path fill="#FFFFFF" d="M433.077,96.566c-0.035-2.129-0.08-4.321-0.135-6.576c-0.055-2.261-0.12-4.582-0.195-6.963
				c0.972-0.112,1.869-0.178,2.691-0.198c2.288-0.056,3.982,0.245,5.083,0.9c1.497,0.899,2.31,2.607,2.439,5.126l0.017,0.683
				c0.053,2.16-0.189,3.708-0.726,4.644c-0.594,1.032-1.708,1.735-3.344,2.11c-0.944,0.219-1.984,0.342-3.119,0.37
				C434.941,96.683,434.037,96.651,433.077,96.566z M435.966,85.661c-0.094,2.082-0.117,4.092-0.069,6.031
				c0.018,0.732,0.043,1.453,0.078,2.159c0.298,0.043,0.583,0.062,0.854,0.055c0.746-0.018,1.368-0.226,1.867-0.624
				c0.682-0.534,1.001-1.705,0.957-3.512l-0.001-0.038c-0.053-1.818-0.421-3.004-1.104-3.556c-0.527-0.417-1.146-0.617-1.858-0.599
				C436.46,85.583,436.219,85.61,435.966,85.661z"/>
			<path fill="#FFFFFF" d="M447.659,95.842l-3.16,0.295c-0.113-4.636-0.32-8.985-0.623-13.048l3.617-0.315
				C447.504,87.064,447.56,91.42,447.659,95.842z"/>
			<path fill="#FFFFFF" d="M458.988,82.702c0.002,4.253,0.016,8.835,0.042,13.745l-2.885,0.07l-0.134-5.523l-3.623,0.088
				l0.124,5.078l-3.47,0.075c0.045-2.32,0.041-4.589-0.013-6.806c-0.054-2.21-0.157-4.37-0.311-6.477l3.317-0.081l-0.005,5.527
				l3.625,0.025l-0.143-5.865L458.988,82.702z"/>
			<path fill="#FFFFFF" d="M460.584,98.627c1.633-2.568,2.403-5.747,2.312-9.536c-0.077-3.158-0.994-5.98-2.75-8.465l2.542-0.062
				c2.205,2.474,3.346,5.291,3.423,8.448c0.05,3.791-0.945,6.975-2.984,9.553L460.584,98.627z"/>
		</g>
	</g>
	<path fill-rule="evenodd" clip-rule="evenodd" fill="#0093AF" d="M118.365,30.054c-0.025-0.075-0.05-0.141-0.074-0.209
		c-0.135-0.327-0.308-0.592-0.518-0.826c0,0-0.012-0.006-0.018-0.019c-0.665-0.695-1.725-1.01-3.29-0.979
		c-7.239,0.128-14.477,0.038-21.722,0.024c-0.443,0-0.868-0.005-1.256-0.024h-0.006c-4.22-0.167-4.565-1.244-2.914-5.846
		c3.29-9.179-1.436-18.721-10.583-21.402c-1.318-0.387-2.624-0.621-3.911-0.72c-2.582-0.197-5.064,0.153-7.332,0.948
		c-7.539,2.65-12.671,10.203-10.829,18.747c1.799,8.335,1.799,8.316-7.146,8.273c-6.573-0.03-13.14-0.005-19.479-0.005V55.62
		c-0.529,2.672-2.224,3.104-5.815,1.866c-8.803-3.031-17.637,0.13-21.574,7.707c-3.21,6.179-2.279,14.071,2.267,19.27
		c4.423,5.056,12.302,6.991,18.863,4.62c3.881-1.405,5.55-1.368,6.179,0.979c-0.006,0-0.013-0.006-0.019-0.006v27.518
		c0.492,0.08,0.973,0.228,1.454,0.228h0.296c7.386,0.05,14.785,0.031,22.171,0.137c1.189,0.018,2.07,0.128,2.698,0.38
		c1.509,0.598,1.54,1.996,0.893,4.744c-0.794,3.414-1.521,7.251-0.751,10.541c1.959,8.373,9.666,13.183,18.086,12.37
		c1.43-0.135,2.884-0.437,4.337-0.912c9.136-2.98,13.239-12.247,9.66-21.813c-1.491-4.01-0.887-4.929,3.406-4.929
		c0.53,0,1.017-0.153,1.466-0.407c1.411,0,2.803,0,4.189,0.006h3.296c0.85,0.007,1.694,0.007,2.532,0h0.923
		c0.703,0,1.404,0,2.107-0.006c0.364,0,0.727,0,1.091-0.006c0.671,0,1.337-0.005,2.008-0.011c0.363,0,0.733,0,1.097-0.007
		c0.702-0.006,1.404-0.013,2.1-0.025c0.321-0.006,0.647-0.006,0.968-0.012c0.684-0.006,1.367-0.019,2.051-0.037
		c0.333,0,0.659-0.013,0.992-0.019c0.746-0.012,2.082-1.663,2.107-2.569c0.172-7.349,0.098-14.71,0.098-22.701
		c-2.439-0.135-4.528-0.339-6.628-0.345c-1.041,0-2.033-0.068-2.988-0.191c-12.388-1.583-17.39-12.826-15.357-23.145
		c1.571-7.99,8.421-14.168,16.134-14.994c1.491-0.161,3.012-0.117,4.533,0.148c2.687,0.462,4.258-0.099,4.424-2.858v-1.152
		c-0.012-5.914-0.012-11.822,0.074-17.736C118.673,31.378,118.581,30.646,118.365,30.054z"/>
	<g>
		<g>
			<path fill="#FFFFFF" d="M36.549,95.54h11.652c3.589,0,5.384,2.202,5.384,6.606v0.348c-0.314,3.688-1.818,5.595-4.512,5.721
				c-5.38,0-9.622,0.074-12.724,0.221v-4.204c1.775,0.105,3.86,0.158,6.256,0.158c1.681,0,3.519-0.026,5.514-0.079
				c1.461-0.021,2.191-0.727,2.191-2.118c0.008,0,0.012-0.005,0.012-0.016c0-1.38-0.935-2.07-2.804-2.07l-10.862,0.079L36.549,95.54
				z"/>
			<path fill="#FFFFFF" d="M41.415,91.241l1.92-0.158c-1.021-0.442-1.539-1.606-1.555-3.493v-0.063c0-1.854,0.542-3.119,1.625-3.793
				c0.738-0.463,2.466-0.696,5.184-0.696c1.335,0,2.914,0.058,4.736,0.174v3.825c-2.427-0.137-4.308-0.206-5.643-0.206
				c-0.667,0-1.202,0.016-1.603,0.047c-1.178,0.105-1.767,0.611-1.767,1.518s0.314,1.475,0.942,1.707l8.542-0.158l0.024,3.714
				c-3.613,0-7.67,0.164-12.17,0.49L41.415,91.241z"/>
			<path fill="#FFFFFF" d="M39.011,77.301c0.479,0,0.888,0.227,1.226,0.68c0.337,0.453,0.506,1.001,0.506,1.644
				c0,0.632-0.169,1.175-0.506,1.628c-0.338,0.453-0.746,0.68-1.226,0.68c-0.471,0-0.875-0.227-1.213-0.68
				c-0.337-0.453-0.506-0.996-0.506-1.628c0-0.643,0.169-1.19,0.506-1.644C38.136,77.528,38.54,77.301,39.011,77.301z
				 M53.879,81.537c-4.595,0.074-8.565,0.11-11.911,0.11l-0.177-3.982c3.204,0.126,6.389,0.189,9.555,0.189
				c0.848,0,1.692-0.005,2.533-0.016V81.537z"/>
			<path fill="#FFFFFF" d="M37.15,64.483c2.655,0.063,5.439,0.095,8.353,0.095c2.655,0,5.419-0.026,8.294-0.079l0.012,3.746
				l-1.802,0.126c0.872,0.78,1.308,1.817,1.308,3.114c0,3.234-1.846,4.852-5.537,4.852c-0.079,0-0.157-0.005-0.236-0.016
				c-3.699-0.063-5.549-1.665-5.549-4.805c0-0.126,0.004-0.258,0.012-0.395c0.047-1.075,0.483-1.944,1.308-2.608
				c-1.744,0-3.797,0.058-6.162,0.174V64.483z M49.591,68.435l-4.076,0.079c-0.62,0.611-0.931,1.238-0.931,1.881
				c0,0.264,0.051,0.527,0.153,0.79c0.322,0.833,1.225,1.249,2.709,1.249c0.173,0,0.35-0.005,0.53-0.016
				c1.799-0.105,2.749-0.643,2.851-1.612c0.008-0.095,0.012-0.19,0.012-0.285C50.84,69.678,50.424,68.983,49.591,68.435z"/>
			<path fill="#FFFFFF" d="M41.379,57.119c0.142-3.466,1.441-5.2,3.9-5.2h8.365l0.047,3.683l-1.119,0.126
				c0.644,0.758,0.966,1.765,0.966,3.019c0,0.538-0.063,1.117-0.189,1.739c-0.345,1.865-1.421,2.797-3.228,2.797
				c-0.22,0-0.455-0.016-0.707-0.047c-1.862-0.211-2.792-1.986-2.792-5.327c0-0.642,0.035-1.348,0.106-2.118h-1.367
				c-1.107,0-1.661,0.469-1.661,1.407v0.063c-0.007,0.074-0.012,0.143-0.012,0.206c0,1.022,0.621,1.533,1.861,1.533h0.177
				l-0.235,3.761c-2.741,0-4.112-1.77-4.112-5.31V57.119z M50.687,55.791h-2.073c-0.071,0.453-0.106,0.864-0.106,1.233
				c0,0.958,0.24,1.612,0.719,1.959c0.291,0.211,0.562,0.316,0.813,0.316c0.314,0,0.593-0.168,0.836-0.506
				c0.188-0.263,0.283-0.606,0.283-1.027C51.158,57.229,51.001,56.571,50.687,55.791z"/>
			<path fill="#FFFFFF" d="M37.15,38.706c2.655,0.063,5.439,0.095,8.353,0.095c2.655,0,5.419-0.026,8.294-0.079l0.012,3.746
				l-1.802,0.126c0.872,0.78,1.308,1.817,1.308,3.113c0,3.235-1.846,4.852-5.537,4.852c-0.079,0-0.157-0.005-0.236-0.016
				c-3.699-0.063-5.549-1.665-5.549-4.805c0-0.126,0.004-0.258,0.012-0.395c0.047-1.075,0.483-1.944,1.308-2.608
				c-1.744,0-3.797,0.058-6.162,0.174V38.706z M49.591,42.657l-4.076,0.079c-0.62,0.611-0.931,1.238-0.931,1.881
				c0,0.264,0.051,0.527,0.153,0.79c0.322,0.833,1.225,1.249,2.709,1.249c0.173,0,0.35-0.005,0.53-0.016
				c1.799-0.105,2.749-0.643,2.851-1.612c0.008-0.095,0.012-0.19,0.012-0.285C50.84,43.901,50.424,43.205,49.591,42.657z"/>
		</g>
	</g>
	<g>
		<g>
			<path fill="#FFFFFF" d="M78.693,59.661c-0.136,6.815-0.204,13.593-0.204,20.336c0,3.378,0.019,6.75,0.058,10.114l-7.205,0.282
				c-0.136-8.678-0.301-16.712-0.494-24.105c-1.627,0.246-3.835,0.852-6.624,1.819l-1.395-4.743l8.077-3.812L78.693,59.661z"/>
		</g>
	</g>
</g>
</svg>
