<?xml version="1.0" encoding="utf-8"?>
<!-- Generator: Adobe Illustrator 16.0.0, SVG Export Plug-In . SVG Version: 6.00 Build 0)  -->
<!DOCTYPE svg PUBLIC "-//W3C//DTD SVG 1.1//EN" "http://www.w3.org/Graphics/SVG/1.1/DTD/svg11.dtd">
<svg version="1.1" id="Capa_1" xmlns="http://www.w3.org/2000/svg" xmlns:xlink="http://www.w3.org/1999/xlink" x="0px" y="0px"
	 width="759.461px" height="332.717px" viewBox="0 0 759.461 332.717" enable-background="new 0 0 759.461 332.717"
	 xml:space="preserve">
<g>
	<rect y="124.922" fill="#007893" width="167.293" height="32"/>
	<rect x="173.544" y="36.5" fill="#0093AF" width="290.921" height="296.215"/>
	<rect x="468.542" y="37.025" fill="#A0C219" width="290.92" height="295.69"/>
	<g>
		<path fill="#FFFFFF" d="M40.159,148.76c1.642-5.56,2.97-10.273,3.983-14.141l4.913-0.059c1.205,4.023,2.585,8.607,4.14,13.75
			l-3.354,0.508l-1.061-3.701h-4.075l-1.1,3.994L40.159,148.76z M48.675,142.374c-0.454-1.406-1.197-3.089-2.227-5.049
			c-0.795,1.647-1.467,3.353-2.018,5.117L48.675,142.374z"/>
		<path fill="#FFFFFF" d="M53.574,153.047c0.053-2.194,0.079-4.528,0.079-7.002c0-2.252-0.022-4.616-0.066-7.09l3.105-0.01
			l0.104,1.504c0.646-0.729,1.507-1.094,2.581-1.094c2.681,0,4.022,1.579,4.022,4.736v0.195c-0.061,3.164-1.397,4.746-4.009,4.746
			c-0.105,0-0.209-0.003-0.314-0.01c-0.891-0.033-1.611-0.394-2.162-1.084c0,1.445,0.048,3.148,0.144,5.107h-3.484V153.047z
			 M56.85,142.452l0.065,3.672c0.506,0.514,1.018,0.771,1.533,0.771c0.209,0,0.419-0.045,0.629-0.137
			c0.637-0.26,0.957-1.039,0.957-2.334c0-0.156-0.005-0.319-0.013-0.488c-0.087-1.588-0.511-2.425-1.271-2.51
			c-0.079-0.006-0.153-0.01-0.223-0.01C57.863,141.417,57.304,141.762,56.85,142.452z"/>
		<path fill="#FFFFFF" d="M68.116,148.985l-3.262,0.225c0.035-2.155,0.052-4.229,0.052-6.221c0-2.799-0.035-5.438-0.104-7.92
			l3.209-0.039c-0.035,1.595-0.052,3.232-0.052,4.912C67.959,142.839,68.011,145.854,68.116,148.985z"/>
		<path fill="#FFFFFF" d="M72.911,136.875c0,0.397-0.188,0.736-0.563,1.016c-0.375,0.28-0.83,0.42-1.362,0.42
			c-0.524,0-0.974-0.14-1.35-0.42c-0.376-0.28-0.563-0.619-0.563-1.016c0-0.391,0.188-0.726,0.563-1.006
			c0.375-0.28,0.825-0.42,1.35-0.42c0.532,0,0.987,0.14,1.362,0.42C72.723,136.149,72.911,136.485,72.911,136.875z M69.4,149.2
			c-0.061-3.809-0.092-7.1-0.092-9.873l3.301-0.146c-0.104,2.656-0.157,5.296-0.157,7.92c0,0.703,0.004,1.403,0.014,2.1L69.4,149.2
			L69.4,149.2z"/>
		<path fill="#FFFFFF" d="M78.99,145.127l3.118,0.146c0,2.35-1.454,3.542-4.362,3.574c-0.035,0.006-0.065,0.01-0.092,0.01
			c-2.769,0-4.153-1.566-4.153-4.697v-0.293c0.087-3.359,1.563-5.055,4.428-5.088h0.104c2.638,0,3.957,1.126,3.957,3.379
			c0,0.13-0.004,0.26-0.013,0.391l-2.816,0.156v-0.234c0-1.185-0.45-1.777-1.35-1.777c-0.917,0-1.375,0.96-1.375,2.881v0.322
			c0.052,2.077,0.515,3.115,1.389,3.115h0.079c0.76-0.045,1.14-0.479,1.14-1.299C79.042,145.538,79.024,145.342,78.99,145.127z"/>
		<path fill="#FFFFFF" d="M88.265,138.838c2.874,0.117,4.31,1.195,4.31,3.232v6.934l-3.052,0.039l-0.105-0.928
			c-0.629,0.534-1.463,0.801-2.502,0.801c-0.446,0-0.926-0.052-1.441-0.156c-1.545-0.287-2.319-1.178-2.319-2.676
			c0-0.182,0.013-0.377,0.04-0.586c0.174-1.543,1.646-2.314,4.415-2.314c0.533,0,1.118,0.029,1.755,0.088v-1.133
			c0-0.918-0.389-1.377-1.166-1.377h-0.052c-0.062-0.006-0.118-0.01-0.17-0.01c-0.847,0-1.271,0.514-1.271,1.543v0.146l-3.118-0.195
			c0-2.272,1.467-3.408,4.402-3.408H88.265z M89.365,146.553v-1.719c-0.376-0.059-0.716-0.088-1.022-0.088
			c-0.795,0-1.336,0.199-1.625,0.596c-0.175,0.241-0.262,0.465-0.262,0.674c0,0.26,0.14,0.492,0.419,0.693
			c0.218,0.156,0.502,0.234,0.852,0.234C88.173,146.944,88.719,146.813,89.365,146.553z"/>
		<path fill="#FFFFFF" d="M98.981,145.127l3.118,0.146c0,2.35-1.455,3.542-4.363,3.574c-0.035,0.006-0.065,0.01-0.092,0.01
			c-2.769,0-4.152-1.566-4.152-4.697v-0.293c0.087-3.359,1.563-5.055,4.428-5.088h0.104c2.638,0,3.957,1.126,3.957,3.379
			c0,0.13-0.004,0.26-0.013,0.391l-2.816,0.156v-0.234c0-1.185-0.45-1.777-1.35-1.777c-0.917,0-1.375,0.96-1.375,2.881v0.322
			c0.053,2.077,0.515,3.115,1.389,3.115h0.079c0.76-0.045,1.14-0.479,1.14-1.299C99.033,145.538,99.016,145.342,98.981,145.127z"/>
		<path fill="#FFFFFF" d="M106.854,136.875c0,0.397-0.188,0.736-0.563,1.016c-0.375,0.28-0.83,0.42-1.362,0.42
			c-0.524,0-0.974-0.14-1.35-0.42c-0.376-0.28-0.563-0.619-0.563-1.016c0-0.391,0.188-0.726,0.563-1.006
			c0.375-0.28,0.826-0.42,1.35-0.42c0.533,0,0.987,0.14,1.362,0.42C106.666,136.149,106.854,136.485,106.854,136.875z
			 M103.344,149.2c-0.062-3.809-0.092-7.1-0.092-9.873l3.301-0.146c-0.105,2.656-0.157,5.296-0.157,7.92
			c0,0.703,0.004,1.403,0.013,2.1L103.344,149.2L103.344,149.2z"/>
		<path fill="#FFFFFF" d="M112.187,139.122c2.969,0,4.454,1.537,4.454,4.609c0,0.124-0.004,0.248-0.013,0.371
			c-0.123,3.327-1.703,5.006-4.742,5.039c-0.035,0.006-0.07,0.01-0.105,0.01c-2.891,0-4.336-1.572-4.336-4.717v-0.273
			C107.531,140.801,109.112,139.122,112.187,139.122z M111.754,141.348c-0.55,0.143-0.926,0.674-1.126,1.592
			c-0.123,0.547-0.183,1.097-0.183,1.65c0,0.371,0.026,0.746,0.078,1.123c0.14,0.938,0.59,1.422,1.35,1.455h0.092
			c0.707,0,1.192-0.348,1.454-1.045c0.218-0.58,0.328-1.266,0.328-2.061c0-0.195-0.004-0.394-0.013-0.596
			c-0.07-1.048-0.28-1.703-0.629-1.963c-0.218-0.156-0.48-0.234-0.786-0.234C112.143,141.27,111.955,141.296,111.754,141.348z
			 M110.483,137.217c1.022-0.905,1.86-1.768,2.515-2.588l2.149,1.27c-0.926,0.677-1.957,1.507-3.092,2.49L110.483,137.217z"/>
		<path fill="#FFFFFF" d="M119.771,138.868l0.131,1.592c0.367-0.846,1.332-1.276,2.895-1.289h0.053c1.537,0,2.585,0.449,3.144,1.348
			c0.384,0.612,0.576,2.044,0.576,4.297c0,1.107-0.048,2.416-0.144,3.926h-3.17c0.114-2.012,0.17-3.571,0.17-4.678
			c0-0.553-0.013-0.996-0.039-1.328c-0.088-0.977-0.507-1.465-1.258-1.465s-1.223,0.26-1.415,0.781l0.131,7.08l-3.078,0.02
			c0-2.995-0.136-6.357-0.406-10.088L119.771,138.868z"/>
	</g>
</g>
</svg>
