<?xml version="1.0" encoding="utf-8"?>
<!-- Generator: Adobe Illustrator 16.0.0, SVG Export Plug-In . SVG Version: 6.00 Build 0)  -->
<!DOCTYPE svg PUBLIC "-//W3C//DTD SVG 1.1//EN" "http://www.w3.org/Graphics/SVG/1.1/DTD/svg11.dtd">
<svg version="1.1" id="Capa_1" xmlns="http://www.w3.org/2000/svg" xmlns:xlink="http://www.w3.org/1999/xlink" x="0px" y="0px"
	 width="759.461px" height="332.717px" viewBox="0 0 759.461 332.717" enable-background="new 0 0 759.461 332.717"
	 xml:space="preserve">
<g>
	<rect y="256.769" fill="#007893" width="167.293" height="32"/>
	<rect x="173.544" y="36.5" fill="#0093AF" width="290.921" height="296.215"/>
	<rect x="468.541" y="37.025" fill="#A0C219" width="290.92" height="295.69"/>
	<g>
		<path fill="#FFFFFF" d="M42.242,277.858c0.053-1.713,0.079-3.463,0.079-5.254c0-2.748-0.062-5.593-0.184-8.535
			c1.493-0.156,2.812-0.234,3.956-0.234c1.799,0,3.153,0.195,4.062,0.586c1.406,0.605,2.109,1.846,2.109,3.721v0.322
			c-0.088,2.057-0.712,3.374-1.874,3.95c-1.161,0.575-2.594,0.884-4.297,0.923c-0.009,0.202-0.013,0.41-0.013,0.625
			c0,1.081,0.074,2.359,0.223,3.838L42.242,277.858z M45.596,266.334l0.092,4.774c1.625-0.064,2.576-0.498,2.856-1.299
			c0.131-0.365,0.196-0.738,0.196-1.123c0-0.449-0.087-0.912-0.262-1.388c-0.262-0.696-0.917-1.045-1.965-1.045
			C46.233,266.256,45.928,266.282,45.596,266.334z"/>
		<path fill="#FFFFFF" d="M57.033,271.149l0.131,7.08l-3.21,0.02c0-2.995-0.136-6.357-0.406-10.088l2.411-0.195l0.131,1.592
			c0.367-0.781,1.223-1.227,2.567-1.338c0.201-0.013,0.394-0.02,0.577-0.02c1.057,0,1.859,0.257,2.41,0.771
			c0.637,0.611,0.961,1.584,0.969,2.921l-2.908,0.215c0.009-0.111,0.014-0.22,0.014-0.322c0-1.042-0.362-1.562-1.088-1.562h-0.052
			C57.74,270.254,57.225,270.563,57.033,271.149z"/>
		<path fill="#FFFFFF" d="M67.16,265.875c0,0.397-0.188,0.735-0.563,1.017c-0.376,0.279-0.83,0.42-1.362,0.42
			c-0.524,0-0.975-0.141-1.35-0.42c-0.376-0.281-0.563-0.619-0.563-1.017c0-0.392,0.188-0.726,0.563-1.006s0.825-0.421,1.35-0.421
			c0.532,0,0.986,0.141,1.362,0.421C66.972,265.149,67.16,265.485,67.16,265.875z M63.648,278.2c-0.061-3.809-0.092-7.1-0.092-9.873
			l3.302-0.146c-0.104,2.656-0.157,5.297-0.157,7.92c0,0.703,0.004,1.403,0.014,2.102L63.648,278.2L63.648,278.2z"/>
		<path fill="#FFFFFF" d="M70.291,267.868l0.131,1.592c0.367-0.846,1.332-1.275,2.896-1.289h0.052c1.537,0,2.585,0.449,3.145,1.348
			c0.384,0.612,0.576,2.045,0.576,4.297c0,1.107-0.048,2.416-0.145,3.928h-3.17c0.113-2.014,0.17-3.571,0.17-4.68
			c0-0.553-0.013-0.996-0.039-1.328c-0.087-0.977-0.506-1.465-1.258-1.465c-0.751,0-1.223,0.261-1.414,0.781l0.131,7.08l-3.079,0.02
			c0-2.993-0.136-6.355-0.406-10.088L70.291,267.868z"/>
		<path fill="#FFFFFF" d="M83.535,274.127l3.118,0.146c0,2.352-1.454,3.543-4.362,3.574c-0.035,0.006-0.065,0.01-0.092,0.01
			c-2.769,0-4.152-1.564-4.152-4.695v-0.293c0.087-3.359,1.562-5.057,4.428-5.089h0.104c2.638,0,3.956,1.127,3.956,3.38
			c0,0.13-0.004,0.26-0.013,0.391l-2.816,0.156v-0.232c0-1.187-0.45-1.777-1.35-1.777c-0.917,0-1.376,0.959-1.376,2.881v0.322
			c0.053,2.076,0.516,3.115,1.389,3.115h0.079c0.76-0.047,1.14-0.479,1.14-1.301C83.588,274.538,83.57,274.342,83.535,274.127z"/>
		<path fill="#FFFFFF" d="M91.409,265.875c0,0.397-0.188,0.735-0.563,1.017c-0.376,0.279-0.83,0.42-1.362,0.42
			c-0.524,0-0.975-0.141-1.35-0.42c-0.376-0.281-0.563-0.619-0.563-1.017c0-0.392,0.188-0.726,0.563-1.006s0.825-0.421,1.35-0.421
			c0.532,0,0.986,0.141,1.362,0.421C91.221,265.149,91.409,265.485,91.409,265.875z M87.898,278.2
			c-0.062-3.809-0.092-7.1-0.092-9.873l3.301-0.146c-0.104,2.656-0.157,5.297-0.157,7.92c0,0.703,0.005,1.403,0.014,2.102
			L87.898,278.2L87.898,278.2z"/>
		<path fill="#FFFFFF" d="M92.208,282.047c0.053-2.194,0.079-4.528,0.079-7.002c0-2.252-0.022-4.616-0.066-7.09l3.105-0.011
			l0.104,1.504c0.646-0.729,1.507-1.094,2.581-1.094c2.681,0,4.021,1.58,4.021,4.735v0.195c-0.061,3.164-1.397,4.746-4.009,4.746
			c-0.104,0-0.209-0.005-0.314-0.011c-0.891-0.032-1.611-0.395-2.161-1.084c0,1.444,0.048,3.147,0.144,5.106h-3.484V282.047
			L92.208,282.047z M95.483,271.452l0.065,3.672c0.506,0.514,1.018,0.771,1.532,0.771c0.21,0,0.42-0.045,0.629-0.139
			c0.638-0.26,0.956-1.038,0.956-2.334c0-0.154-0.004-0.318-0.013-0.486c-0.087-1.588-0.511-2.427-1.271-2.512
			c-0.079-0.006-0.153-0.01-0.223-0.01C96.496,270.417,95.938,270.763,95.483,271.452z"/>
		<path fill="#FFFFFF" d="M106.736,265.875c0,0.397-0.188,0.735-0.562,1.017c-0.376,0.279-0.83,0.42-1.363,0.42
			c-0.523,0-0.974-0.141-1.35-0.42c-0.375-0.281-0.562-0.619-0.562-1.017c0-0.392,0.188-0.726,0.562-1.006
			c0.376-0.28,0.826-0.421,1.35-0.421c0.533,0,0.987,0.141,1.363,0.421C106.549,265.149,106.736,265.485,106.736,265.875z
			 M103.226,278.2c-0.062-3.809-0.092-7.1-0.092-9.873l3.302-0.146c-0.105,2.656-0.157,5.297-0.157,7.92
			c0,0.703,0.004,1.403,0.013,2.102L103.226,278.2L103.226,278.2z"/>
		<path fill="#FFFFFF" d="M112.068,268.122c2.97,0,4.454,1.537,4.454,4.609c0,0.123-0.004,0.248-0.013,0.371
			c-0.123,3.325-1.703,5.006-4.742,5.039c-0.035,0.006-0.07,0.01-0.105,0.01c-2.891,0-4.336-1.572-4.336-4.717v-0.273
			C107.413,269.801,108.994,268.122,112.068,268.122z M111.637,270.349c-0.551,0.144-0.927,0.674-1.127,1.592
			c-0.123,0.548-0.184,1.098-0.184,1.649c0,0.371,0.026,0.746,0.078,1.123c0.14,0.938,0.59,1.422,1.35,1.455h0.092
			c0.707,0,1.192-0.349,1.454-1.045c0.219-0.58,0.328-1.267,0.328-2.062c0-0.195-0.005-0.395-0.014-0.597
			c-0.069-1.048-0.279-1.703-0.629-1.963c-0.218-0.156-0.48-0.233-0.786-0.233C112.024,270.271,111.837,270.296,111.637,270.349z"/>
		<path fill="#FFFFFF" d="M117.086,274.685l3-0.106v0.127c0,1.002,0.415,1.51,1.245,1.522h0.052c0.804,0,1.205-0.291,1.205-0.869
			v-0.067c-0.034-0.64-0.827-1.151-2.377-1.543c-1.551-0.392-2.482-1.048-2.797-1.974c-0.114-0.325-0.171-0.639-0.171-0.938
			c0-0.547,0.188-1.055,0.563-1.521c0.576-0.717,1.449-1.127,2.62-1.23c0.314-0.025,0.62-0.039,0.917-0.039
			c0.777,0,1.463,0.102,2.057,0.303c0.812,0.28,1.376,0.681,1.69,1.201c0.209,0.358,0.314,0.756,0.314,1.191
			c0,0.208-0.022,0.423-0.065,0.645l-2.804,0.049c0.026-0.162,0.039-0.312,0.039-0.448c0-0.65-0.279-1-0.839-1.046
			c-0.061-0.006-0.122-0.01-0.183-0.01c-0.577,0-0.966,0.219-1.166,0.654c-0.07,0.15-0.105,0.287-0.105,0.41
			c0,0.306,0.192,0.57,0.577,0.791c0.541,0.312,1.343,0.63,2.403,0.951c1.062,0.322,1.775,0.871,2.143,1.646
			c0.131,0.293,0.196,0.586,0.196,0.879c0,0.495-0.192,0.993-0.576,1.494c-0.611,0.802-1.56,1.267-2.844,1.396
			c-0.279,0.033-0.555,0.05-0.825,0.05c-0.96,0-1.852-0.187-2.672-0.558C117.637,277.168,117.104,276.183,117.086,274.685z"/>
	</g>
</g>
</svg>
