<?xml version="1.0" encoding="utf-8"?>
<!-- Generator: Adobe Illustrator 16.0.0, SVG Export Plug-In . SVG Version: 6.00 Build 0)  -->
<!DOCTYPE svg PUBLIC "-//W3C//DTD SVG 1.1//EN" "http://www.w3.org/Graphics/SVG/1.1/DTD/svg11.dtd">
<svg version="1.1" id="Capa_1" xmlns="http://www.w3.org/2000/svg" xmlns:xlink="http://www.w3.org/1999/xlink" x="0px" y="0px"
	 width="148.377px" height="47.876px" viewBox="0 0 148.377 47.876" enable-background="new 0 0 148.377 47.876"
	 xml:space="preserve">
<rect x="0.057" y="0.179" transform="matrix(1 -0.0024 0.0024 1 -0.0573 0.1784)" fill="#ADC710" width="148.263" height="47.52"/>
<g>
	<path fill="#331842" d="M43.802,21.08c0,1.724-0.608,3.198-1.824,4.422c-1.21,1.219-2.672,1.828-4.385,1.828
		c-1.718,0-3.182-0.609-4.393-1.828s-1.816-2.693-1.816-4.422c0-1.724,0.605-3.195,1.816-4.414c1.216-1.224,2.68-1.836,4.393-1.836
		c1.708,0,3.169,0.612,4.385,1.836c0.611,0.615,1.067,1.287,1.37,2.016S43.802,20.21,43.802,21.08z M37.593,16.486
		c-0.642,0-1.228,0.112-1.758,0.336s-1.021,0.562-1.471,1.016s-0.785,0.945-1.005,1.477c-0.22,0.531-0.33,1.12-0.33,1.766
		c0,1.271,0.445,2.354,1.335,3.25s1.966,1.344,3.229,1.344c1.263,0,2.339-0.448,3.229-1.344c0.89-0.896,1.335-1.979,1.335-3.25
		c0-1.266-0.445-2.346-1.335-3.242C39.927,16.937,38.851,16.486,37.593,16.486z"/>
	<path fill="#331842" d="M49.814,19.393v0.156c0.388-0.312,0.81-0.552,1.265-0.719c0.455-0.167,0.941-0.25,1.459-0.25
		c0.228,0,0.472,0.016,0.733,0.047s0.502,0.087,0.722,0.168c0.22,0.081,0.402,0.191,0.547,0.332s0.217,0.323,0.217,0.547
		c0,0.115-0.022,0.221-0.066,0.32s-0.102,0.186-0.175,0.262c-0.072,0.076-0.158,0.134-0.256,0.176
		c-0.099,0.042-0.205,0.062-0.318,0.062c-0.098,0-0.212-0.029-0.341-0.086c-0.326-0.13-0.681-0.195-1.063-0.195
		c-0.378,0-0.732,0.072-1.063,0.215s-0.62,0.338-0.865,0.586s-0.44,0.538-0.582,0.871c-0.143,0.333-0.213,0.69-0.213,1.07v3.562
		c0,0.224-0.079,0.416-0.237,0.574s-0.348,0.238-0.57,0.238c-0.228,0-0.42-0.08-0.578-0.238c-0.158-0.159-0.237-0.35-0.237-0.574
		v-7.125c0-0.224,0.079-0.416,0.237-0.574c0.158-0.159,0.35-0.238,0.578-0.238c0.222,0,0.413,0.08,0.57,0.238
		S49.814,19.168,49.814,19.393z"/>
	<path fill="#331842" d="M61.794,16.229l-1.552,1.555c-0.145,0.146-0.332,0.219-0.559,0.219c-0.233,0-0.426-0.077-0.578-0.23
		c-0.153-0.154-0.229-0.348-0.229-0.582c0-0.224,0.067-0.409,0.202-0.555l1.552-1.555c0.166-0.162,0.357-0.242,0.575-0.242
		c0.232,0,0.425,0.08,0.578,0.238c0.152,0.159,0.229,0.353,0.229,0.582C62.012,15.893,61.939,16.083,61.794,16.229z M59.342,26.51
		V19.4c0-0.229,0.079-0.423,0.237-0.582c0.158-0.159,0.348-0.238,0.57-0.238c0.222,0,0.413,0.08,0.57,0.238s0.239,0.353,0.245,0.582
		v7.109c-0.005,0.229-0.087,0.423-0.245,0.582s-0.348,0.238-0.57,0.238c-0.223,0-0.413-0.08-0.57-0.238
		C59.42,26.933,59.342,26.739,59.342,26.51z"/>
	<path fill="#331842" d="M72.828,26.369c-0.776,0.641-1.684,0.961-2.724,0.961c-1.2,0-2.225-0.427-3.073-1.281
		c-0.849-0.854-1.273-1.885-1.273-3.094s0.424-2.24,1.273-3.094c0.848-0.854,1.873-1.281,3.073-1.281
		c1.19,0,2.215,0.427,3.074,1.281c0.848,0.854,1.272,1.885,1.272,3.094v4.344c0,0.375-0.057,0.729-0.17,1.062
		S74.007,29,73.806,29.279s-0.44,0.53-0.714,0.754c-0.274,0.224-0.57,0.413-0.889,0.566s-0.651,0.272-0.998,0.355
		s-0.693,0.125-1.04,0.125c-0.414,0-0.82-0.053-1.218-0.16s-0.776-0.264-1.133-0.473s-0.684-0.466-0.982-0.773
		c-0.297-0.307-0.55-0.651-0.756-1.031c-0.083-0.12-0.125-0.266-0.125-0.438c0-0.234,0.078-0.428,0.233-0.582s0.349-0.23,0.582-0.23
		c0.155,0,0.283,0.037,0.384,0.109s0.239,0.234,0.415,0.484c0.176,0.25,0.331,0.44,0.466,0.57c0.59,0.594,1.301,0.891,2.134,0.891
		c0.838,0,1.547-0.292,2.127-0.875c0.357-0.438,0.535-0.862,0.535-1.273V26.369z M70.104,20.213c-0.383,0-0.74,0.073-1.071,0.219
		c-0.332,0.146-0.619,0.342-0.862,0.59s-0.436,0.538-0.578,0.871s-0.213,0.688-0.213,1.062s0.071,0.729,0.213,1.062
		s0.335,0.624,0.578,0.871s0.53,0.444,0.862,0.59c0.331,0.146,0.688,0.219,1.071,0.219c0.378,0,0.732-0.073,1.063-0.219
		s0.62-0.344,0.865-0.594s0.44-0.541,0.582-0.871c0.143-0.331,0.213-0.684,0.213-1.059s-0.071-0.728-0.213-1.059
		c-0.142-0.331-0.336-0.621-0.582-0.871s-0.534-0.448-0.865-0.594S70.481,20.213,70.104,20.213z"/>
	<path fill="#331842" d="M85.483,24.869c0.233,0,0.426,0.077,0.578,0.23c0.153,0.154,0.229,0.348,0.229,0.582
		c0,0.229-0.078,0.424-0.233,0.586c-0.802,0.708-1.749,1.062-2.84,1.062c-1.201,0-2.225-0.427-3.074-1.281s-1.273-1.885-1.273-3.094
		s0.424-2.24,1.273-3.094s1.873-1.281,3.074-1.281c1.19,0,2.214,0.427,3.073,1.281c0.424,0.422,0.743,0.892,0.955,1.41
		c0.212,0.518,0.318,1.08,0.318,1.684c0,0.234-0.079,0.428-0.237,0.582s-0.351,0.23-0.578,0.23h-6.147
		c0.088,0.287,0.217,0.548,0.388,0.785c0.17,0.237,0.371,0.44,0.602,0.609c0.23,0.169,0.483,0.301,0.76,0.395
		s0.565,0.141,0.866,0.141c0.341,0,0.654-0.052,0.939-0.156s0.548-0.26,0.792-0.469C85.103,24.942,85.282,24.875,85.483,24.869z
		 M85.833,22.143c-0.088-0.287-0.218-0.548-0.392-0.785c-0.174-0.237-0.375-0.44-0.605-0.609c-0.23-0.169-0.484-0.301-0.761-0.395
		s-0.562-0.141-0.857-0.141s-0.582,0.047-0.862,0.141c-0.279,0.094-0.535,0.225-0.768,0.395s-0.435,0.373-0.605,0.609
		s-0.298,0.499-0.38,0.785H85.833z"/>
	<path fill="#331842" d="M93.599,19.385c0.688-0.537,1.498-0.805,2.429-0.805c0.543,0,1.06,0.107,1.548,0.32
		c0.489,0.213,0.92,0.504,1.292,0.871s0.667,0.799,0.885,1.297s0.326,1.027,0.326,1.59v3.852c0,0.229-0.079,0.423-0.237,0.582
		c-0.158,0.159-0.348,0.238-0.571,0.238c-0.228,0-0.42-0.08-0.578-0.238s-0.237-0.353-0.237-0.582v-3.852
		c0-0.333-0.064-0.648-0.194-0.945s-0.304-0.556-0.524-0.777s-0.477-0.397-0.772-0.527s-0.608-0.195-0.939-0.195
		c-0.336,0-0.65,0.064-0.943,0.191s-0.55,0.303-0.772,0.527c-0.222,0.224-0.397,0.484-0.524,0.781
		c-0.126,0.297-0.19,0.612-0.19,0.945v3.852c0,0.229-0.079,0.423-0.237,0.582s-0.348,0.238-0.57,0.238
		c-0.228,0-0.42-0.08-0.578-0.238c-0.158-0.159-0.237-0.353-0.237-0.582V19.4c0-0.224,0.079-0.417,0.237-0.578
		c0.158-0.162,0.351-0.242,0.578-0.242c0.222,0,0.413,0.081,0.57,0.242S93.599,19.171,93.599,19.385z"/>
	<path fill="#331842" d="M111.09,24.869c0.232,0,0.425,0.077,0.578,0.23c0.152,0.154,0.229,0.348,0.229,0.582
		c0,0.229-0.078,0.424-0.233,0.586c-0.802,0.708-1.749,1.062-2.841,1.062c-1.2,0-2.225-0.427-3.073-1.281
		c-0.849-0.854-1.273-1.885-1.273-3.094s0.424-2.24,1.273-3.094c0.848-0.854,1.873-1.281,3.073-1.281
		c1.19,0,2.215,0.427,3.074,1.281c0.424,0.422,0.742,0.892,0.955,1.41c0.212,0.518,0.318,1.08,0.318,1.684
		c0,0.234-0.079,0.428-0.236,0.582c-0.158,0.154-0.351,0.23-0.579,0.23h-6.147c0.088,0.287,0.218,0.548,0.388,0.785
		c0.171,0.237,0.371,0.44,0.602,0.609s0.484,0.301,0.761,0.395s0.565,0.141,0.865,0.141c0.342,0,0.655-0.052,0.939-0.156
		c0.285-0.104,0.549-0.26,0.792-0.469C110.709,24.942,110.888,24.875,111.09,24.869z M111.439,22.143
		c-0.088-0.287-0.219-0.548-0.392-0.785s-0.375-0.44-0.605-0.609c-0.23-0.169-0.484-0.301-0.76-0.395
		c-0.277-0.094-0.563-0.141-0.858-0.141s-0.582,0.047-0.861,0.141s-0.536,0.225-0.769,0.395s-0.435,0.373-0.605,0.609
		c-0.17,0.237-0.297,0.499-0.38,0.785H111.439z"/>
	<path fill="#331842" d="M119.174,23.166c-0.486-0.188-0.828-0.38-1.024-0.578h0.008c-0.394-0.401-0.59-0.873-0.59-1.414
		c0-0.396,0.104-0.754,0.314-1.074c0.21-0.32,0.482-0.592,0.819-0.816s0.715-0.397,1.137-0.52s0.845-0.184,1.269-0.184
		c1.293,0,2.403,0.523,3.33,1.57c0.108,0.135,0.163,0.299,0.163,0.492c0,0.234-0.077,0.428-0.229,0.582
		c-0.153,0.154-0.346,0.23-0.578,0.23c-0.166,0-0.307-0.047-0.423-0.141c-0.116-0.094-0.229-0.195-0.337-0.305
		c-0.528-0.531-1.169-0.797-1.925-0.797c-0.745,0-1.34,0.229-1.785,0.688c-0.083,0.083-0.124,0.198-0.124,0.344
		s0.067,0.245,0.202,0.297l3.632,1.203c0.507,0.198,0.849,0.391,1.024,0.578h-0.008c0.393,0.401,0.59,0.873,0.59,1.414
		c0,0.401-0.104,0.76-0.314,1.078c-0.209,0.318-0.482,0.59-0.818,0.816c-0.336,0.227-0.714,0.4-1.133,0.52
		c-0.419,0.12-0.841,0.18-1.265,0.18c-1.304,0-2.414-0.518-3.33-1.555c-0.114-0.151-0.171-0.32-0.171-0.508
		c0-0.234,0.076-0.428,0.229-0.582s0.345-0.23,0.578-0.23c0.171,0,0.315,0.051,0.435,0.152s0.228,0.199,0.326,0.293
		c0.528,0.531,1.172,0.797,1.933,0.797c0.74,0,1.335-0.234,1.785-0.703c0.078-0.088,0.116-0.195,0.116-0.32
		c0-0.146-0.07-0.248-0.209-0.305L119.174,23.166z"/>
</g>
</svg>
