<?xml version="1.0" encoding="utf-8"?>
<!-- Generator: Adobe Illustrator 16.0.0, SVG Export Plug-In . SVG Version: 6.00 Build 0)  -->
<!DOCTYPE svg PUBLIC "-//W3C//DTD SVG 1.1//EN" "http://www.w3.org/Graphics/SVG/1.1/DTD/svg11.dtd">
<svg version="1.1" id="Capa_1" xmlns="http://www.w3.org/2000/svg" xmlns:xlink="http://www.w3.org/1999/xlink" x="0px" y="0px"
	 width="475.39px" height="94.014px" viewBox="0 0 475.39 94.014" enable-background="new 0 0 475.39 94.014" xml:space="preserve">
<g>
	<path fill="#E9496E" d="M0,70.216L475.389,57.03c0.092-5.877-7.201-56.952-7.201-56.952L468.185,0L0.389,13.122l-0.31,47.096
		L0,70.216z"/>
	<g>
		<g>
			<path fill="#FFFFFF" d="M25.529,23.825c-0.186,6.972-0.229,12.943-0.131,17.917c0.039,1.979,0.102,3.803,0.188,5.473
				l11.989-0.678l0.317,6.534l-19.201,0.7c-0.017-1.766-0.042-3.523-0.077-5.274c-0.158-8.034-0.549-16.024-1.172-23.97
				L25.529,23.825z"/>
			<path fill="#FFFFFF" d="M50.455,32.32c5.905,0.125,8.899,2.279,8.981,6.463l0.281,14.238l-6.266,0.204l-0.253-1.901
				c-1.27,1.122-2.972,1.704-5.105,1.746c-0.915,0.018-1.903-0.069-2.965-0.262c-3.186-0.525-4.809-2.326-4.87-5.401
				c-0.007-0.374,0.012-0.775,0.057-1.204c0.296-3.175,3.287-4.819,8.972-4.932c1.094-0.021,2.296,0.015,3.608,0.109l-0.046-2.326
				c-0.037-1.885-0.854-2.812-2.45-2.78l-0.107,0.002c-0.126-0.011-0.243-0.015-0.35-0.013c-1.74,0.035-2.588,1.108-2.547,3.22
				l0.006,0.301l-6.41-0.274c-0.092-4.666,2.875-7.058,8.9-7.177L50.455,32.32z M53.027,48.118l-0.069-3.529
				c-0.774-0.105-1.475-0.151-2.102-0.139c-1.632,0.032-2.736,0.462-3.312,1.29c-0.349,0.501-0.519,0.966-0.511,1.394
				c0.01,0.535,0.307,1.004,0.889,1.407c0.455,0.312,1.041,0.46,1.758,0.446C50.595,48.968,51.71,48.679,53.027,48.118z"/>
			<path fill="#FFFFFF" d="M71.446,45.968l6.156-0.342l0.005,0.26c0.041,2.06,0.913,3.085,2.617,3.078l0.107-0.002
				c1.65-0.033,2.463-0.644,2.439-1.833l-0.002-0.141c-0.098-1.309-1.746-2.333-4.945-3.072S72.683,41.865,72,39.98
				c-0.247-0.664-0.376-1.304-0.388-1.918c-0.022-1.123,0.342-2.173,1.095-3.15c1.154-1.494,2.931-2.372,5.33-2.633
				c0.645-0.066,1.271-0.105,1.882-0.117c1.596-0.032,3.008,0.148,4.235,0.538c1.68,0.542,2.853,1.342,3.519,2.398
				c0.445,0.727,0.676,1.538,0.694,2.434c0.009,0.427-0.028,0.87-0.108,1.326l-5.755,0.214c0.047-0.335,0.068-0.643,0.062-0.924
				c-0.026-1.336-0.614-2.041-1.764-2.112c-0.126-0.01-0.252-0.015-0.377-0.012c-1.184,0.023-1.973,0.487-2.368,1.391
				c-0.138,0.311-0.204,0.593-0.199,0.847c0.012,0.628,0.417,1.162,1.216,1.601c1.124,0.62,2.783,1.239,4.975,1.858
				c2.192,0.619,3.681,1.715,4.465,3.292c0.281,0.596,0.428,1.195,0.439,1.797c0.02,1.016-0.354,2.046-1.123,3.091
				c-1.223,1.669-3.15,2.664-5.781,2.983c-0.573,0.079-1.137,0.123-1.692,0.134c-1.973,0.039-3.81-0.306-5.511-1.035
				C72.676,51.047,71.542,49.043,71.446,45.968z"/>
			<path fill="#FFFFFF" d="M100.071,31.923c6.098-0.121,9.208,2.974,9.333,9.284c0.005,0.254,0.001,0.508-0.012,0.763
				c-0.116,6.836-3.294,10.349-9.534,10.54c-0.071,0.015-0.143,0.022-0.214,0.024c-5.937,0.117-8.968-3.053-9.095-9.51l-0.011-0.562
				C90.58,35.561,93.758,32.048,100.071,31.923z M99.273,36.513c-1.124,0.316-1.874,1.42-2.249,3.314
				c-0.229,1.127-0.332,2.26-0.31,3.396c0.015,0.762,0.084,1.53,0.207,2.303c0.325,1.919,1.269,2.897,2.83,2.933l0.188-0.004
				c1.452-0.029,2.434-0.763,2.943-2.205c0.425-1.198,0.621-2.613,0.589-4.244c-0.008-0.401-0.025-0.809-0.051-1.223
				c-0.186-2.149-0.644-3.484-1.371-4.004c-0.455-0.312-0.996-0.462-1.624-0.45C100.068,36.336,99.684,36.398,99.273,36.513z"/>
			<path fill="#FFFFFF" d="M118.656,51.818l-6.689,0.593c-0.016-4.426-0.063-8.685-0.145-12.776
				c-0.113-5.748-0.292-11.168-0.536-16.258l6.589-0.21c-0.007,3.277,0.023,6.64,0.091,10.089
				C118.084,39.205,118.313,45.392,118.656,51.818z"/>
			<path fill="#FFFFFF" d="M134.937,51.837l-0.333-3.263c-0.719,1.752-2.729,2.668-6.028,2.747
				c-0.036,0.014-0.063,0.021-0.081,0.021c-3.264,0.064-5.447-0.989-6.548-3.161c-0.746-1.442-1.164-4.45-1.254-9.022
				c-0.046-2.353-0.003-5.128,0.131-8.328l6.537-0.129c-0.271,4.499-0.381,7.958-0.333,10.378c0.024,1.216,0.087,2.165,0.191,2.845
				c0.31,2.081,1.236,3.105,2.778,3.075c1.542-0.031,2.5-0.591,2.874-1.683l-0.543-13.911l6.32-0.165
				c0.114,5.748,0.523,12.44,1.23,20.076L134.937,51.837z"/>
			<path fill="#FFFFFF" d="M152.959,43.217l6.408,0.174c0.095,4.826-2.842,7.332-8.813,7.516c-0.071,0.015-0.134,0.023-0.188,0.024
				c-5.685,0.112-8.591-3.047-8.718-9.477l-0.012-0.602c0.043-6.902,3.005-10.444,8.886-10.627l0.215-0.004
				c5.416-0.106,8.169,2.153,8.261,6.778c0.005,0.268,0.001,0.535-0.011,0.803l-5.777,0.435l-0.009-0.481
				c-0.048-2.433-0.996-3.631-2.843-3.595c-1.883,0.037-2.786,2.028-2.708,5.971l0.013,0.662c0.192,4.263,1.184,6.376,2.978,6.341
				l0.162-0.003c1.558-0.125,2.321-1.028,2.288-2.713C153.083,44.057,153.039,43.657,152.959,43.217z"/>
			<path fill="#FFFFFF" d="M168.792,25.953c0.016,0.816-0.356,1.519-1.116,2.108c-0.76,0.59-1.687,0.896-2.78,0.917
				c-1.076,0.021-2.006-0.248-2.788-0.807c-0.782-0.559-1.182-1.247-1.198-2.063c-0.016-0.802,0.356-1.498,1.116-2.088
				c0.759-0.589,1.677-0.895,2.753-0.917c1.094-0.021,2.032,0.248,2.815,0.807C168.377,24.47,168.776,25.151,168.792,25.953z
				 M162.082,51.402c-0.28-7.818-0.476-14.575-0.588-20.27l6.773-0.435c-0.108,5.458-0.108,10.881-0.002,16.269
				c0.028,1.444,0.065,2.881,0.112,4.312L162.082,51.402z"/>
			<path fill="#FFFFFF" d="M179.832,30.349c6.098-0.12,9.208,2.975,9.333,9.285c0.005,0.254,0.001,0.508-0.012,0.763
				c-0.116,6.836-3.294,10.349-9.534,10.539c-0.071,0.015-0.143,0.023-0.214,0.024c-5.937,0.117-8.968-3.053-9.095-9.51
				l-0.011-0.562C170.341,33.986,173.519,30.474,179.832,30.349z M176.257,26.508c2.062-1.899,3.749-3.705,5.06-5.416l4.463,2.519
				c-1.874,1.429-3.957,3.175-6.248,5.239L176.257,26.508z M179.034,34.939c-1.124,0.316-1.874,1.421-2.249,3.314
				c-0.229,1.127-0.332,2.26-0.31,3.396c0.015,0.762,0.084,1.53,0.207,2.303c0.325,1.92,1.269,2.897,2.83,2.933l0.188-0.003
				c1.452-0.029,2.434-0.763,2.943-2.205c0.425-1.198,0.621-2.613,0.589-4.244c-0.008-0.401-0.025-0.809-0.051-1.223
				c-0.186-2.149-0.644-3.484-1.371-4.005c-0.455-0.312-0.996-0.462-1.623-0.45C179.829,34.763,179.444,34.824,179.034,34.939z"/>
			<path fill="#FFFFFF" d="M195.397,29.521l0.333,3.264c0.719-1.753,2.683-2.674,5.893-2.764l0.108-0.002
				c3.156-0.062,5.326,0.817,6.511,2.64c0.813,1.241,1.267,4.174,1.357,8.8c0.045,2.272,0,4.961-0.137,8.067l-6.51,0.128
				c0.151-4.135,0.205-7.339,0.16-9.612c-0.022-1.136-0.067-2.045-0.135-2.726c-0.219-2.001-1.1-2.987-2.642-2.957
				c-1.543,0.03-2.5,0.584-2.874,1.661l0.556,14.534l-6.321,0.165c-0.121-6.149-0.536-13.049-1.243-20.698L195.397,29.521z"/>
			<path fill="#FFFFFF" d="M226.575,28.905l0.333,3.264c0.719-1.753,2.683-2.674,5.893-2.765l0.107-0.002
				c3.156-0.062,5.326,0.817,6.511,2.64c0.814,1.241,1.267,4.174,1.358,8.8c0.045,2.272-0.001,4.961-0.137,8.067l-6.51,0.128
				c0.151-4.135,0.205-7.339,0.16-9.612c-0.022-1.136-0.067-2.045-0.135-2.726c-0.219-2.001-1.099-2.987-2.642-2.957
				s-2.5,0.584-2.874,1.661l0.556,14.533l-6.321,0.165c-0.121-6.149-0.536-13.049-1.242-20.698L226.575,28.905z"/>
			<path fill="#FFFFFF" d="M251.522,28.935c6.223-0.123,9.396,2.897,9.517,9.06c0.015,0.749-0.015,1.551-0.087,2.409l-12.024,0.237
				c0.068,3.436,0.99,5.136,2.765,5.101l0.188-0.003c1.559-0.124,2.321-1.029,2.288-2.713c-0.007-0.361-0.051-0.761-0.132-1.201
				l6.4-0.226c0.101,5.093-2.834,7.732-8.805,7.917c-0.072,0.015-0.134,0.022-0.188,0.023c-5.686,0.112-8.591-3.046-8.718-9.477
				l-0.012-0.602C242.757,32.558,245.693,29.049,251.522,28.935z M248.209,36.964l6.08-0.12l-0.01-0.481
				c-0.048-2.433-0.996-3.631-2.843-3.595C249.446,32.807,248.37,34.206,248.209,36.964z"/>
			<path fill="#FFFFFF" d="M264.08,51.616l6.316-0.386c-0.015,0.161-0.021,0.321-0.017,0.482c0.029,1.457,0.825,2.237,2.387,2.34
				c0.251,0.021,0.485,0.03,0.7,0.026c1.345-0.026,2.296-0.447,2.854-1.26c0.488-0.731,0.713-2.086,0.674-4.065
				c-0.011-0.535-0.041-1.123-0.089-1.764c-0.975,1.518-2.824,2.37-5.547,2.558c-5.327,0.065-8.057-3.258-8.189-9.97l-0.003-0.14
				c-0.098-6.792,3-10.271,9.294-10.435c1.722-0.034,3.278,0.685,4.671,2.155l0.018-3.19l5.895,0.084
				c0.218,11.029,0.308,17.861,0.27,20.497c-0.038,2.635-0.53,4.758-1.476,6.368c-0.946,1.61-2.589,2.659-4.93,3.146
				c-1.232,0.265-2.459,0.41-3.678,0.434c-1.094,0.022-2.181-0.051-3.26-0.216c-2.304-0.356-3.896-1.08-4.779-2.173
				c-0.735-0.895-1.118-2.077-1.146-3.548C264.039,52.266,264.05,51.951,264.08,51.616z M276.782,43.421l-0.161-8.142
				c-0.905-1.306-2.029-1.946-3.375-1.919c-0.269,0.005-0.547,0.038-0.833,0.096c-1.733,0.342-2.658,2.146-2.772,5.411
				c-0.012,0.348-0.014,0.682-0.007,1.003c0.052,2.661,0.748,4.278,2.087,4.854c0.452,0.205,0.93,0.303,1.432,0.293
				C274.265,44.996,275.474,44.463,276.782,43.421z"/>
			<path fill="#FFFFFF" d="M294.59,28.084c6.097-0.12,9.208,2.975,9.333,9.285c0.005,0.254,0,0.508-0.012,0.763
				c-0.117,6.836-3.294,10.349-9.534,10.539c-0.072,0.015-0.144,0.023-0.215,0.024c-5.937,0.117-8.968-3.053-9.095-9.51
				l-0.011-0.562C285.099,31.722,288.277,28.209,294.59,28.084z M293.792,32.674c-1.124,0.316-1.874,1.421-2.249,3.314
				c-0.229,1.127-0.333,2.26-0.31,3.396c0.015,0.762,0.084,1.53,0.207,2.303c0.325,1.92,1.268,2.897,2.83,2.933l0.188-0.003
				c1.453-0.029,2.434-0.763,2.944-2.205c0.424-1.198,0.621-2.613,0.589-4.244c-0.008-0.401-0.025-0.809-0.051-1.223
				c-0.186-2.149-0.643-3.484-1.371-4.005c-0.455-0.312-0.996-0.462-1.624-0.45C294.587,32.498,294.203,32.559,293.792,32.674z"/>
			<path fill="#FFFFFF" d="M316.461,39.99l6.408,0.174c0.096,4.826-2.842,7.332-8.812,7.516c-0.072,0.015-0.134,0.023-0.188,0.024
				c-5.685,0.112-8.591-3.047-8.718-9.477l-0.012-0.602c0.043-6.902,3.005-10.444,8.886-10.627l0.215-0.004
				c5.416-0.106,8.17,2.153,8.261,6.778c0.005,0.268,0.001,0.536-0.011,0.803l-5.777,0.435l-0.01-0.481
				c-0.048-2.433-0.996-3.631-2.843-3.595c-1.883,0.037-2.786,2.028-2.708,5.971l0.013,0.662c0.192,4.263,1.184,6.376,2.978,6.341
				l0.161-0.003c1.559-0.125,2.321-1.028,2.288-2.713C316.586,40.831,316.542,40.43,316.461,39.99z"/>
			<path fill="#FFFFFF" d="M332.294,22.727c0.016,0.816-0.356,1.519-1.115,2.108c-0.76,0.59-1.687,0.896-2.781,0.917
				c-1.076,0.021-2.005-0.248-2.788-0.807c-0.783-0.56-1.182-1.248-1.198-2.063c-0.016-0.802,0.356-1.498,1.116-2.088
				c0.759-0.59,1.678-0.896,2.753-0.917c1.094-0.022,2.032,0.248,2.815,0.806C331.879,21.244,332.279,21.925,332.294,22.727z
				 M325.584,48.176c-0.28-7.818-0.476-14.575-0.588-20.27l6.773-0.435c-0.108,5.458-0.108,10.881-0.002,16.269
				c0.028,1.444,0.065,2.881,0.112,4.312L325.584,48.176z"/>
			<path fill="#FFFFFF" d="M344.264,26.522c5.905,0.125,8.899,2.279,8.981,6.463l0.281,14.238l-6.267,0.204l-0.253-1.901
				c-1.27,1.122-2.972,1.704-5.105,1.746c-0.915,0.018-1.903-0.069-2.965-0.262c-3.186-0.525-4.809-2.326-4.87-5.401
				c-0.007-0.374,0.012-0.775,0.057-1.204c0.296-3.176,3.287-4.82,8.972-4.932c1.094-0.022,2.297,0.015,3.608,0.109l-0.046-2.326
				c-0.037-1.885-0.854-2.812-2.45-2.78l-0.107,0.002c-0.126-0.011-0.243-0.015-0.35-0.013c-1.74,0.034-2.588,1.108-2.547,3.22
				l0.006,0.301l-6.41-0.275c-0.092-4.666,2.875-7.058,8.9-7.177L344.264,26.522z M346.836,42.32l-0.069-3.529
				c-0.774-0.105-1.475-0.152-2.102-0.139c-1.632,0.032-2.736,0.462-3.312,1.289c-0.349,0.502-0.519,0.966-0.511,1.394
				c0.01,0.535,0.307,1.004,0.889,1.407c0.454,0.312,1.04,0.461,1.758,0.447C344.404,43.17,345.52,42.881,346.836,42.32z"/>
			<path fill="#FFFFFF" d="M375.461,18.706c-0.018,4.521,0.021,9.261,0.119,14.22c0.089,4.519,0.227,9.224,0.413,14.115
				l-6.375,0.146l-0.275-3.063c-1.298,1.51-3.05,2.287-5.256,2.33c-5.506,0.109-8.32-2.979-8.444-9.262
				c-0.003-0.133,0.003-0.267,0.019-0.401c-0.016-6.299,2.647-9.501,7.992-9.607c0.215-0.004,0.439-0.001,0.673,0.007
				c1.831,0.044,3.325,0.757,4.483,2.139c-0.059-2.968-0.227-6.462-0.503-10.482L375.461,18.706z M369.154,40.013l-0.271-6.935
				c-1.061-1.035-2.139-1.542-3.232-1.521c-0.449,0.009-0.895,0.104-1.34,0.288c-1.406,0.576-2.084,2.127-2.034,4.653
				c0.006,0.294,0.021,0.595,0.044,0.902c0.24,3.058,1.187,4.657,2.84,4.798c0.162,0.011,0.323,0.014,0.485,0.011
				C367.08,42.181,368.25,41.449,369.154,40.013z"/>
			<path fill="#FFFFFF" d="M388.139,25.657c5.905,0.125,8.899,2.279,8.981,6.462l0.281,14.238l-6.267,0.204l-0.253-1.901
				c-1.27,1.123-2.972,1.704-5.105,1.746c-0.915,0.018-1.903-0.069-2.965-0.262c-3.186-0.525-4.809-2.326-4.87-5.401
				c-0.007-0.374,0.012-0.775,0.057-1.204c0.296-3.176,3.287-4.82,8.972-4.932c1.094-0.021,2.297,0.015,3.608,0.11l-0.046-2.326
				c-0.037-1.885-0.854-2.812-2.45-2.781l-0.107,0.002c-0.126-0.011-0.242-0.015-0.35-0.013c-1.74,0.034-2.588,1.108-2.547,3.22
				l0.006,0.301l-6.41-0.274c-0.092-4.666,2.875-7.058,8.901-7.177L388.139,25.657z M390.711,41.454l-0.069-3.529
				c-0.774-0.105-1.475-0.152-2.102-0.14c-1.632,0.032-2.736,0.462-3.312,1.29c-0.349,0.502-0.519,0.966-0.511,1.394
				c0.011,0.535,0.307,1.004,0.889,1.407c0.454,0.312,1.041,0.461,1.758,0.447C388.279,42.304,389.395,42.015,390.711,41.454z"/>
			<path fill="#FFFFFF" d="M429.371,17.642c-0.019,4.521,0.021,9.261,0.119,14.22c0.089,4.519,0.227,9.224,0.413,14.115
				l-6.375,0.146l-0.276-3.064c-1.298,1.51-3.049,2.287-5.255,2.331c-5.506,0.108-8.321-2.979-8.445-9.262
				c-0.002-0.133,0.003-0.267,0.019-0.401c-0.017-6.299,2.647-9.501,7.992-9.606c0.215-0.004,0.439-0.002,0.673,0.007
				c1.831,0.044,3.325,0.757,4.482,2.139c-0.059-2.968-0.226-6.462-0.503-10.482L429.371,17.642z M423.063,38.95l-0.271-6.936
				c-1.061-1.035-2.139-1.542-3.232-1.521c-0.448,0.009-0.895,0.104-1.34,0.287c-1.406,0.576-2.084,2.127-2.034,4.654
				c0.005,0.294,0.021,0.595,0.044,0.902c0.239,3.057,1.186,4.657,2.84,4.798c0.162,0.01,0.323,0.014,0.484,0.01
				C420.989,41.117,422.159,40.385,423.063,38.95z"/>
			<path fill="#FFFFFF" d="M440.392,25.208c6.223-0.123,9.396,2.897,9.517,9.06c0.015,0.749-0.014,1.552-0.087,2.409l-12.024,0.237
				c0.068,3.436,0.989,5.136,2.765,5.101l0.188-0.003c1.559-0.124,2.321-1.029,2.288-2.713c-0.007-0.361-0.052-0.762-0.132-1.201
				l6.4-0.226c0.101,5.093-2.834,7.732-8.805,7.917c-0.072,0.015-0.134,0.022-0.188,0.023c-5.685,0.112-8.591-3.046-8.718-9.477
				l-0.012-0.602C431.627,28.831,434.563,25.322,440.392,25.208z M437.079,33.237l6.08-0.12l-0.01-0.481
				c-0.048-2.433-0.996-3.631-2.843-3.595C438.315,29.08,437.24,30.479,437.079,33.237z"/>
			<path fill="#FFFFFF" d="M459.703,45.087l-6.689,0.594c-0.016-4.427-0.064-8.685-0.145-12.776
				c-0.113-5.748-0.292-11.168-0.536-16.259l6.589-0.21c-0.007,3.277,0.023,6.639,0.091,10.088
				C459.131,32.474,459.361,38.662,459.703,45.087z"/>
		</g>
	</g>
	<g>
		<g>
			<path fill="#331842" d="M28.879,89.982c0.159-0.003,0.309,0.025,0.447,0.084s0.262,0.139,0.369,0.239s0.192,0.22,0.257,0.361
				c0.064,0.142,0.098,0.292,0.102,0.452c0.006,0.306-0.108,0.586-0.342,0.839c-1.59,1.33-3.399,2.015-5.427,2.055
				c-2.405,0.047-4.472-0.766-6.201-2.438c-1.729-1.672-2.617-3.719-2.665-6.14c-0.047-2.414,0.759-4.491,2.421-6.23
				c1.668-1.747,3.702-2.644,6.1-2.691c2.057-0.041,3.929,0.605,5.615,1.936c0.207,0.192,0.313,0.457,0.32,0.792
				c0.003,0.168-0.022,0.322-0.078,0.461c-0.055,0.14-0.134,0.264-0.237,0.371c-0.103,0.108-0.225,0.192-0.365,0.253
				s-0.29,0.093-0.449,0.096c-0.283,0.005-0.549-0.099-0.8-0.312c-0.559-0.426-1.172-0.75-1.84-0.97
				c-0.667-0.22-1.374-0.323-2.12-0.308c-1.768,0.035-3.266,0.695-4.494,1.981c-1.214,1.271-1.804,2.797-1.769,4.576
				c0.035,1.787,0.685,3.291,1.948,4.513c1.271,1.23,2.793,1.827,4.568,1.792c1.514-0.03,2.838-0.526,3.971-1.49
				C28.395,90.069,28.618,89.995,28.879,89.982z"/>
			<path fill="#331842" d="M48.195,87.413c0.034,1.707-0.532,3.162-1.696,4.367c-1.179,1.219-2.602,1.845-4.268,1.878
				c-1.681,0.033-3.127-0.537-4.339-1.709c-1.211-1.173-1.834-2.604-1.867-4.297c-0.033-1.691,0.532-3.146,1.696-4.366
				c1.165-1.219,2.587-1.846,4.268-1.878c1.666-0.033,3.112,0.537,4.339,1.709c0.605,0.586,1.062,1.237,1.37,1.953
				C48.005,85.786,48.171,86.567,48.195,87.413z M42.034,83.694c-0.536,0.01-1.034,0.122-1.494,0.335
				c-0.46,0.214-0.856,0.497-1.189,0.85c-0.334,0.353-0.596,0.765-0.786,1.235s-0.28,0.969-0.27,1.493
				c0.01,0.525,0.12,1.02,0.328,1.482c0.208,0.463,0.486,0.864,0.833,1.203c0.347,0.34,0.755,0.607,1.223,0.802
				c0.467,0.195,0.969,0.287,1.505,0.277c0.529-0.011,1.023-0.123,1.483-0.336c0.459-0.213,0.858-0.499,1.195-0.855
				c0.337-0.356,0.601-0.768,0.791-1.235c0.19-0.467,0.28-0.963,0.27-1.488c-0.01-0.524-0.12-1.017-0.328-1.476
				s-0.488-0.86-0.839-1.204s-0.761-0.612-1.228-0.808C43.061,83.775,42.563,83.683,42.034,83.694z"/>
			<path fill="#331842" d="M56.546,82.247c0.949-0.77,2.075-1.168,3.379-1.193c0.76-0.015,1.486,0.121,2.177,0.406
				c0.69,0.286,1.301,0.68,1.833,1.184s0.957,1.101,1.275,1.792c0.318,0.69,0.484,1.429,0.5,2.217l0.106,5.392
				c0.006,0.321-0.099,0.595-0.315,0.822c-0.217,0.227-0.48,0.343-0.792,0.349c-0.319,0.006-0.591-0.1-0.816-0.317
				c-0.226-0.218-0.341-0.488-0.348-0.809l-0.106-5.392c-0.009-0.467-0.108-0.906-0.298-1.318c-0.189-0.412-0.441-0.77-0.754-1.073
				c-0.314-0.304-0.68-0.543-1.096-0.717s-0.856-0.257-1.32-0.248c-0.471,0.009-0.909,0.107-1.315,0.294
				c-0.406,0.187-0.761,0.44-1.066,0.76c-0.306,0.319-0.543,0.688-0.712,1.108c-0.169,0.419-0.25,0.862-0.24,1.329l0.106,5.392
				c0.006,0.321-0.099,0.595-0.315,0.822c-0.216,0.226-0.48,0.343-0.792,0.349c-0.319,0.006-0.591-0.1-0.816-0.317
				c-0.226-0.219-0.341-0.488-0.348-0.809l-0.196-9.954c-0.006-0.313,0.099-0.585,0.315-0.815c0.216-0.23,0.484-0.349,0.803-0.355
				c0.311-0.006,0.58,0.102,0.805,0.324C56.424,81.688,56.54,81.949,56.546,82.247z"/>
			<path fill="#331842" d="M78.443,77.734c-2,0.04-2.979,1.062-2.94,3.067l0.012,0.569l2.184-0.043
				c0.311-0.006,0.58,0.1,0.805,0.318c0.225,0.218,0.341,0.483,0.347,0.797c0.006,0.321-0.099,0.595-0.315,0.822
				s-0.48,0.343-0.792,0.349l-2.184,0.043l0.162,8.204c0.003,0.153-0.023,0.299-0.079,0.439s-0.132,0.263-0.232,0.371
				c-0.099,0.107-0.217,0.192-0.354,0.253c-0.137,0.061-0.285,0.093-0.444,0.096c-0.16,0.003-0.309-0.023-0.447-0.079
				c-0.139-0.056-0.26-0.136-0.363-0.239c-0.104-0.104-0.186-0.224-0.247-0.362c-0.061-0.137-0.092-0.283-0.095-0.436L73.3,83.7
				l-0.521,0.011c-0.326,0.006-0.598-0.098-0.816-0.312c-0.218-0.214-0.331-0.486-0.337-0.814c-0.006-0.329,0.095-0.602,0.305-0.821
				c0.209-0.219,0.477-0.332,0.803-0.338l0.521-0.011l-0.011-0.569c-0.07-3.529,1.648-5.328,5.155-5.397
				c0.311-0.006,0.58,0.1,0.805,0.318c0.225,0.218,0.341,0.484,0.347,0.797c0.006,0.321-0.099,0.595-0.315,0.822
				C79.019,77.612,78.755,77.728,78.443,77.734z"/>
			<path fill="#331842" d="M85.008,91.676l-0.3-15.215c-0.006-0.321,0.095-0.594,0.304-0.821c0.209-0.227,0.478-0.343,0.803-0.35
				s0.598,0.1,0.816,0.317c0.218,0.219,0.33,0.488,0.337,0.809l0.277,14.066l0.521-0.01c0.312-0.006,0.58,0.1,0.806,0.318
				c0.225,0.218,0.341,0.488,0.347,0.809c0.006,0.313-0.099,0.583-0.315,0.81c-0.217,0.227-0.481,0.343-0.792,0.349l-1.663,0.033
				c-0.312,0.006-0.578-0.1-0.8-0.318C85.128,92.255,85.014,91.989,85.008,91.676z"/>
			<path fill="#331842" d="M97.596,78.133c0.007,0.372-0.117,0.691-0.373,0.959c-0.255,0.268-0.568,0.406-0.938,0.413
				c-0.37,0.007-0.687-0.118-0.953-0.375c-0.266-0.258-0.402-0.571-0.41-0.943c-0.008-0.372,0.117-0.692,0.372-0.959
				c0.256-0.268,0.568-0.406,0.938-0.413c0.37-0.007,0.688,0.118,0.953,0.375C97.452,77.446,97.589,77.761,97.596,78.133z
				 M95.392,91.46l-0.196-9.954c-0.006-0.32,0.099-0.594,0.315-0.821c0.217-0.227,0.48-0.344,0.792-0.35
				c0.311-0.006,0.58,0.1,0.805,0.318c0.225,0.218,0.345,0.488,0.358,0.808l0.196,9.954c-0.001,0.321-0.109,0.595-0.326,0.822
				c-0.217,0.227-0.48,0.343-0.792,0.349c-0.312,0.006-0.58-0.1-0.805-0.317C95.514,92.05,95.398,91.781,95.392,91.46z"/>
			<path fill="#331842" d="M113.662,88.78c0.326-0.006,0.598,0.096,0.816,0.307c0.218,0.211,0.33,0.48,0.336,0.809
				c0.006,0.321-0.107,0.604-0.342,0.85c-1.104,1.013-2.416,1.536-3.937,1.565c-1.681,0.033-3.127-0.537-4.338-1.708
				c-1.211-1.173-1.834-2.604-1.867-4.297c-0.034-1.691,0.532-3.146,1.696-4.366c1.165-1.219,2.587-1.846,4.268-1.879
				c1.528-0.03,2.86,0.44,3.996,1.41c0.266,0.228,0.401,0.514,0.408,0.856c0.006,0.328-0.095,0.604-0.304,0.827
				c-0.209,0.223-0.477,0.337-0.803,0.344c-0.275,0.005-0.523-0.077-0.744-0.249c-0.375-0.306-0.768-0.535-1.177-0.688
				c-0.409-0.152-0.853-0.224-1.33-0.214c-0.529,0.01-1.023,0.121-1.483,0.33c-0.459,0.21-0.859,0.491-1.2,0.845
				c-0.341,0.353-0.606,0.765-0.796,1.236c-0.19,0.471-0.28,0.972-0.27,1.504c0.011,0.533,0.12,1.03,0.329,1.493
				c0.208,0.462,0.49,0.864,0.844,1.203c0.355,0.339,0.766,0.605,1.233,0.796c0.467,0.191,0.966,0.282,1.495,0.271
				c0.478-0.009,0.918-0.096,1.321-0.261c0.403-0.165,0.782-0.407,1.138-0.728C113.149,88.877,113.387,88.792,113.662,88.78z"/>
			<path fill="#331842" d="M121.917,79.83l0.511-0.01l-0.081-4.113c-0.006-0.313,0.099-0.583,0.315-0.811
				c0.217-0.227,0.484-0.343,0.803-0.349c0.312-0.006,0.58,0.1,0.806,0.317c0.225,0.218,0.341,0.484,0.347,0.797l0.081,4.113
				l1.358-0.027c0.311-0.006,0.578,0.1,0.8,0.318s0.335,0.484,0.342,0.797c0.006,0.321-0.097,0.594-0.31,0.821
				s-0.475,0.343-0.787,0.349l-1.358,0.027l0.108,5.502c0.028,1.451,0.767,2.162,2.216,2.133c0.312-0.006,0.578,0.1,0.8,0.318
				c0.222,0.218,0.336,0.484,0.342,0.797c0.006,0.321-0.097,0.594-0.31,0.821c-0.213,0.227-0.475,0.343-0.787,0.349
				c-2.963,0.059-4.474-1.399-4.533-4.375l-0.108-5.502l-0.511,0.01c-0.304,0.006-0.569-0.1-0.794-0.318
				c-0.226-0.218-0.341-0.487-0.348-0.808c-0.006-0.313,0.099-0.583,0.315-0.811S121.612,79.836,121.917,79.83z"/>
			<path fill="#331842" d="M146.287,85.477c0.033,1.707-0.532,3.162-1.697,4.367c-1.179,1.219-2.602,1.846-4.268,1.878
				c-1.681,0.033-3.127-0.537-4.338-1.708c-1.212-1.173-1.834-2.604-1.868-4.297c-0.033-1.691,0.532-3.146,1.697-4.366
				c1.164-1.219,2.587-1.846,4.268-1.879c1.666-0.033,3.112,0.537,4.338,1.709c0.605,0.586,1.062,1.237,1.37,1.954
				S146.262,84.632,146.287,85.477z M140.125,81.758c-0.536,0.011-1.034,0.123-1.493,0.336c-0.46,0.214-0.856,0.497-1.19,0.85
				c-0.334,0.353-0.596,0.764-0.786,1.235c-0.19,0.471-0.28,0.969-0.27,1.493c0.01,0.525,0.12,1.02,0.328,1.482
				c0.208,0.463,0.486,0.864,0.834,1.204c0.347,0.34,0.754,0.607,1.222,0.802c0.467,0.195,0.969,0.287,1.505,0.276
				c0.529-0.01,1.023-0.122,1.483-0.335s0.858-0.499,1.195-0.855c0.337-0.356,0.601-0.768,0.791-1.235
				c0.19-0.467,0.28-0.963,0.27-1.488c-0.01-0.524-0.12-1.017-0.329-1.476c-0.208-0.459-0.488-0.86-0.839-1.203
				c-0.351-0.343-0.76-0.612-1.228-0.808C141.152,81.84,140.654,81.748,140.125,81.758z"/>
			<path fill="#331842" d="M163.621,89.578l5.506-15.143c0.222-0.53,0.583-0.799,1.083-0.81c0.514-0.01,0.885,0.246,1.113,0.766
				l6.122,14.969c0.061,0.145,0.093,0.301,0.096,0.468c0.006,0.321-0.101,0.597-0.321,0.827c-0.22,0.231-0.489,0.349-0.808,0.355
				s-0.589-0.102-0.811-0.324c-0.118-0.114-0.208-0.236-0.268-0.366l-2.113-5.156l-5.563,0.11l-1.918,5.236
				c-0.056,0.132-0.14,0.258-0.253,0.376c-0.22,0.231-0.49,0.349-0.809,0.355s-0.591-0.101-0.816-0.323
				c-0.226-0.221-0.341-0.493-0.348-0.813C163.508,89.93,163.544,89.754,163.621,89.578z M172.283,82.863l-1.988-4.874l-1.794,4.948
				L172.283,82.863z"/>
			<path fill="#331842" d="M185.673,79.71l0.004,0.219c0.535-0.448,1.119-0.795,1.751-1.042c0.633-0.246,1.312-0.376,2.036-0.391
				c0.318-0.006,0.661,0.009,1.028,0.046c0.367,0.036,0.705,0.108,1.015,0.215c0.31,0.107,0.568,0.256,0.775,0.45
				c0.207,0.193,0.313,0.446,0.319,0.759c0.003,0.161-0.025,0.311-0.083,0.45c-0.059,0.14-0.138,0.264-0.237,0.371
				c-0.099,0.108-0.217,0.192-0.354,0.253c-0.136,0.061-0.284,0.093-0.443,0.097c-0.138,0.002-0.298-0.034-0.48-0.111
				c-0.46-0.173-0.958-0.254-1.494-0.244c-0.529,0.011-1.023,0.121-1.483,0.331s-0.858,0.491-1.195,0.844
				c-0.337,0.353-0.601,0.765-0.791,1.235s-0.28,0.973-0.269,1.504l0.099,4.988c0.006,0.313-0.099,0.583-0.316,0.81
				c-0.216,0.227-0.48,0.343-0.792,0.349c-0.319,0.006-0.591-0.1-0.816-0.317c-0.226-0.218-0.341-0.484-0.348-0.797l-0.197-9.976
				c-0.006-0.313,0.099-0.583,0.316-0.81c0.216-0.227,0.484-0.344,0.803-0.35c0.312-0.006,0.58,0.1,0.805,0.318
				S185.667,79.397,185.673,79.71z"/>
			<path fill="#331842" d="M215.705,89.086c0.006,0.321-0.099,0.594-0.315,0.821c-0.217,0.227-0.48,0.343-0.792,0.349
				c-0.319,0.006-0.589-0.1-0.811-0.317c-0.222-0.218-0.336-0.488-0.342-0.809l-0.123-6.224c-0.007-0.35-0.081-0.68-0.221-0.992
				c-0.141-0.311-0.329-0.582-0.565-0.814s-0.514-0.415-0.831-0.547c-0.318-0.133-0.658-0.195-1.021-0.188
				c-0.355,0.007-0.687,0.083-0.996,0.228s-0.579,0.336-0.809,0.574c-0.231,0.239-0.41,0.515-0.538,0.832
				c-0.128,0.316-0.188,0.653-0.181,1.01l0.123,6.224c0.006,0.321-0.099,0.594-0.315,0.821c-0.216,0.227-0.48,0.343-0.792,0.349
				c-0.319,0.006-0.591-0.1-0.816-0.317c-0.226-0.218-0.341-0.488-0.348-0.809l-0.123-6.224c-0.007-0.357-0.083-0.691-0.227-1.002
				c-0.144-0.311-0.334-0.58-0.57-0.81c-0.236-0.228-0.512-0.409-0.826-0.542c-0.314-0.132-0.648-0.195-1.004-0.188
				c-0.354,0.007-0.687,0.081-0.995,0.222c-0.309,0.141-0.579,0.333-0.81,0.574c-0.231,0.242-0.41,0.521-0.538,0.837
				c-0.128,0.316-0.188,0.653-0.181,1.01l0.123,6.224c0.006,0.321-0.099,0.594-0.315,0.821c-0.217,0.227-0.48,0.343-0.792,0.349
				c-0.319,0.006-0.591-0.1-0.816-0.317c-0.225-0.218-0.341-0.488-0.347-0.809l-0.197-9.964c-0.006-0.313,0.099-0.583,0.315-0.81
				s0.481-0.344,0.792-0.35c0.253-0.005,0.48,0.062,0.678,0.2s0.336,0.323,0.413,0.555c0.765-0.533,1.64-0.81,2.625-0.829
				c0.725-0.015,1.408,0.117,2.052,0.392c0.643,0.276,1.209,0.7,1.699,1.274c0.983-1.179,2.208-1.783,3.671-1.812
				c0.659-0.013,1.286,0.104,1.882,0.352s1.117,0.586,1.564,1.02c0.447,0.433,0.805,0.943,1.074,1.532
				c0.269,0.589,0.41,1.216,0.423,1.879L215.705,89.086z"/>
			<path fill="#331842" d="M232,88.775l-0.004-0.219c-0.535,0.448-1.119,0.795-1.752,1.041s-1.312,0.376-2.036,0.39
				c-1.681,0.033-3.127-0.537-4.338-1.708c-1.212-1.173-1.834-2.604-1.868-4.297c-0.033-1.691,0.532-3.146,1.697-4.366
				c1.164-1.219,2.587-1.846,4.268-1.879c1.666-0.033,3.112,0.537,4.338,1.709c1.211,1.173,1.834,2.604,1.868,4.296l0.098,4.988
				c0.006,0.313-0.099,0.583-0.315,0.811c-0.217,0.227-0.481,0.343-0.792,0.349c-0.319,0.006-0.591-0.1-0.816-0.317
				C232.122,89.354,232.006,89.088,232,88.775z M228.011,80.023c-0.536,0.011-1.034,0.123-1.493,0.336
				c-0.46,0.214-0.856,0.497-1.19,0.85c-0.334,0.353-0.596,0.764-0.786,1.235s-0.28,0.969-0.27,1.493
				c0.01,0.525,0.12,1.02,0.328,1.482c0.208,0.463,0.486,0.864,0.834,1.204c0.347,0.34,0.754,0.607,1.222,0.802
				s0.969,0.287,1.505,0.276c0.529-0.01,1.023-0.122,1.483-0.335s0.858-0.499,1.195-0.855c0.337-0.356,0.601-0.768,0.791-1.235
				c0.19-0.467,0.28-0.963,0.27-1.488c-0.01-0.524-0.12-1.017-0.329-1.476c-0.208-0.459-0.488-0.86-0.839-1.203
				c-0.351-0.343-0.76-0.612-1.228-0.808C229.038,80.105,228.54,80.013,228.011,80.023z"/>
			<path fill="#331842" d="M246.326,77.375c1.441-0.028,2.722,0.396,3.841,1.27l-0.108-5.458c-0.006-0.328,0.095-0.601,0.305-0.821
				c0.209-0.219,0.477-0.332,0.803-0.338c0.318-0.006,0.59,0.096,0.815,0.307c0.226,0.211,0.341,0.48,0.348,0.808l0.202,10.238
				c0.034,1.707-0.532,3.162-1.696,4.367c-1.179,1.219-2.602,1.846-4.268,1.878c-1.681,0.033-3.126-0.537-4.338-1.708
				c-1.212-1.173-1.834-2.604-1.867-4.297c-0.034-1.691,0.532-3.146,1.696-4.366C243.223,78.035,244.645,77.408,246.326,77.375z
				 M250.261,83.425c-0.01-0.524-0.12-1.017-0.328-1.476c-0.208-0.459-0.488-0.86-0.839-1.203c-0.351-0.343-0.761-0.612-1.228-0.808
				c-0.468-0.195-0.966-0.287-1.495-0.277c-0.536,0.011-1.034,0.123-1.493,0.336c-0.46,0.214-0.856,0.497-1.19,0.85
				c-0.333,0.353-0.595,0.764-0.786,1.235c-0.19,0.471-0.28,0.969-0.27,1.493c0.011,0.525,0.12,1.02,0.329,1.482
				c0.208,0.463,0.486,0.864,0.833,1.204c0.347,0.34,0.755,0.607,1.223,0.802c0.467,0.195,0.969,0.287,1.505,0.276
				c0.529-0.01,1.023-0.122,1.483-0.335c0.459-0.213,0.857-0.499,1.195-0.855c0.337-0.356,0.601-0.768,0.791-1.235
				C250.181,84.446,250.271,83.95,250.261,83.425z"/>
			<path fill="#331842" d="M270.891,83.018c0.034,1.707-0.532,3.162-1.696,4.367c-1.179,1.219-2.602,1.846-4.268,1.878
				c-1.681,0.033-3.127-0.537-4.339-1.708c-1.211-1.173-1.834-2.604-1.867-4.297c-0.033-1.691,0.532-3.146,1.696-4.366
				c1.165-1.219,2.587-1.846,4.268-1.879c1.666-0.033,3.112,0.537,4.339,1.709c0.605,0.586,1.062,1.238,1.37,1.954
				C270.702,81.392,270.867,82.173,270.891,83.018z M264.73,79.299c-0.536,0.011-1.034,0.123-1.494,0.336
				c-0.459,0.214-0.856,0.497-1.189,0.85c-0.334,0.353-0.596,0.764-0.786,1.235s-0.28,0.969-0.27,1.493
				c0.01,0.525,0.12,1.02,0.328,1.482c0.208,0.463,0.486,0.864,0.833,1.204c0.347,0.34,0.755,0.607,1.223,0.802
				c0.467,0.195,0.969,0.287,1.505,0.276c0.529-0.01,1.023-0.122,1.483-0.335c0.459-0.213,0.858-0.499,1.195-0.855
				c0.337-0.356,0.601-0.768,0.791-1.235c0.19-0.467,0.28-0.963,0.27-1.488c-0.011-0.524-0.12-1.017-0.329-1.476
				c-0.208-0.459-0.488-0.86-0.839-1.203c-0.351-0.343-0.76-0.612-1.228-0.808C265.757,79.381,265.259,79.289,264.73,79.299z"/>
			<path fill="#331842" d="M297.362,85.176c0.326-0.006,0.598,0.096,0.816,0.307c0.218,0.211,0.33,0.48,0.336,0.809
				c0.006,0.321-0.097,0.596-0.31,0.827c-1.103,1.014-2.419,1.536-3.947,1.566c-1.681,0.033-3.127-0.537-4.339-1.708
				c-1.211-1.173-1.834-2.604-1.867-4.297c-0.033-1.691,0.532-3.146,1.696-4.366c1.165-1.219,2.587-1.846,4.268-1.879
				c1.666-0.033,3.112,0.537,4.338,1.709c0.606,0.579,1.064,1.229,1.375,1.948c0.312,0.72,0.476,1.503,0.492,2.348
				c0.007,0.328-0.099,0.603-0.315,0.821c-0.217,0.22-0.484,0.333-0.803,0.339l-8.606,0.17c0.131,0.399,0.319,0.762,0.565,1.089
				c0.245,0.327,0.532,0.605,0.859,0.836c0.327,0.23,0.686,0.408,1.076,0.531c0.39,0.124,0.795,0.181,1.215,0.173
				c0.478-0.009,0.915-0.091,1.311-0.245c0.396-0.153,0.761-0.379,1.095-0.678C296.832,85.289,297.08,85.189,297.362,85.176z
				 M297.776,81.35c-0.131-0.398-0.321-0.762-0.571-1.089c-0.249-0.327-0.538-0.605-0.864-0.836
				c-0.327-0.23-0.686-0.408-1.076-0.532c-0.39-0.123-0.792-0.181-1.205-0.173c-0.413,0.008-0.814,0.082-1.203,0.221
				c-0.388,0.139-0.743,0.331-1.064,0.574s-0.599,0.533-0.831,0.869c-0.232,0.337-0.402,0.707-0.511,1.11L297.776,81.35z"/>
			<path fill="#331842" d="M308.572,77.274c0.949-0.77,2.075-1.168,3.379-1.194c0.76-0.015,1.486,0.121,2.177,0.406
				s1.301,0.679,1.833,1.183s0.957,1.102,1.275,1.792c0.318,0.69,0.484,1.43,0.5,2.217l0.106,5.392
				c0.006,0.321-0.099,0.594-0.315,0.821c-0.217,0.227-0.48,0.343-0.792,0.35c-0.319,0.006-0.591-0.1-0.816-0.318
				c-0.226-0.218-0.341-0.487-0.348-0.808l-0.106-5.392c-0.009-0.467-0.108-0.907-0.298-1.318c-0.189-0.413-0.441-0.77-0.755-1.074
				s-0.679-0.543-1.096-0.717c-0.417-0.174-0.857-0.257-1.32-0.248c-0.471,0.009-0.909,0.107-1.315,0.294
				c-0.406,0.187-0.761,0.44-1.066,0.76c-0.306,0.32-0.543,0.689-0.712,1.108c-0.169,0.419-0.25,0.862-0.24,1.329l0.106,5.392
				c0.006,0.321-0.099,0.594-0.315,0.821c-0.217,0.227-0.48,0.343-0.792,0.349c-0.319,0.006-0.591-0.1-0.816-0.317
				c-0.226-0.218-0.341-0.488-0.348-0.809l-0.196-9.954c-0.006-0.313,0.099-0.585,0.315-0.815c0.216-0.23,0.484-0.349,0.803-0.355
				c0.311-0.006,0.58,0.102,0.805,0.324S308.566,76.976,308.572,77.274z"/>
			<path fill="#331842" d="M348.258,83.68c0.159-0.003,0.309,0.025,0.447,0.084c0.139,0.06,0.262,0.139,0.369,0.239
				c0.107,0.099,0.192,0.22,0.257,0.361s0.098,0.292,0.102,0.452c0.006,0.306-0.108,0.586-0.342,0.838
				c-1.59,1.33-3.399,2.015-5.427,2.055c-2.405,0.047-4.472-0.766-6.201-2.438c-1.729-1.673-2.617-3.719-2.665-6.14
				c-0.047-2.414,0.759-4.491,2.421-6.23c1.668-1.747,3.702-2.645,6.1-2.692c2.057-0.041,3.929,0.605,5.615,1.936
				c0.207,0.193,0.313,0.457,0.32,0.792c0.003,0.168-0.023,0.322-0.078,0.461c-0.056,0.14-0.135,0.264-0.237,0.371
				c-0.103,0.108-0.225,0.192-0.365,0.253c-0.14,0.062-0.29,0.093-0.449,0.096c-0.283,0.006-0.549-0.099-0.8-0.312
				c-0.559-0.426-1.172-0.75-1.84-0.97s-1.375-0.323-2.121-0.309c-1.768,0.035-3.266,0.696-4.494,1.981
				c-1.214,1.271-1.804,2.797-1.769,4.576c0.035,1.787,0.685,3.291,1.948,4.513c1.271,1.23,2.793,1.827,4.568,1.792
				c1.514-0.03,2.838-0.526,3.971-1.489C347.774,83.766,347.998,83.692,348.258,83.68z"/>
			<path fill="#331842" d="M367.575,81.11c0.033,1.707-0.532,3.162-1.697,4.367c-1.179,1.219-2.602,1.846-4.268,1.878
				c-1.681,0.033-3.127-0.537-4.338-1.708c-1.212-1.173-1.834-2.604-1.868-4.297c-0.033-1.691,0.532-3.146,1.697-4.366
				c1.164-1.219,2.587-1.846,4.268-1.879c1.666-0.033,3.112,0.537,4.338,1.709c0.605,0.586,1.062,1.237,1.37,1.953
				C367.385,79.483,367.55,80.265,367.575,81.11z M361.414,77.391c-0.536,0.011-1.034,0.123-1.493,0.336
				c-0.46,0.213-0.856,0.497-1.19,0.85c-0.333,0.353-0.595,0.765-0.785,1.235c-0.19,0.471-0.28,0.969-0.27,1.493
				c0.01,0.525,0.12,1.02,0.328,1.482c0.208,0.463,0.486,0.864,0.833,1.203c0.347,0.34,0.755,0.607,1.223,0.803
				c0.467,0.195,0.969,0.287,1.505,0.276c0.529-0.01,1.023-0.122,1.483-0.335s0.858-0.499,1.195-0.855
				c0.337-0.356,0.601-0.768,0.791-1.235c0.19-0.467,0.28-0.963,0.27-1.488c-0.01-0.524-0.12-1.017-0.328-1.476
				c-0.208-0.459-0.488-0.86-0.839-1.203c-0.351-0.343-0.761-0.612-1.228-0.808C362.44,77.473,361.942,77.381,361.414,77.391z"/>
			<path fill="#331842" d="M373.753,85.978l-0.3-15.215c-0.006-0.321,0.095-0.594,0.305-0.821c0.209-0.226,0.477-0.343,0.803-0.349
				c0.326-0.007,0.598,0.1,0.816,0.317c0.218,0.218,0.33,0.488,0.336,0.809l0.278,14.066l0.521-0.01
				c0.312-0.006,0.58,0.1,0.805,0.318c0.226,0.218,0.341,0.487,0.348,0.808c0.006,0.313-0.099,0.583-0.315,0.811
				c-0.217,0.226-0.481,0.343-0.792,0.349l-1.663,0.033c-0.312,0.006-0.578-0.1-0.8-0.318
				C373.874,86.557,373.76,86.291,373.753,85.978z"/>
			<path fill="#331842" d="M395.601,80.557c0.034,1.707-0.532,3.162-1.697,4.367c-1.179,1.219-2.602,1.846-4.268,1.878
				c-1.681,0.033-3.127-0.537-4.338-1.708c-1.212-1.173-1.834-2.604-1.868-4.297c-0.033-1.691,0.532-3.146,1.697-4.366
				c1.165-1.219,2.587-1.846,4.268-1.879c1.666-0.033,3.112,0.537,4.338,1.709c0.605,0.586,1.062,1.237,1.37,1.954
				S395.577,79.712,395.601,80.557z M389.44,76.838c-0.537,0.011-1.034,0.123-1.494,0.336c-0.46,0.214-0.856,0.497-1.19,0.85
				c-0.334,0.353-0.596,0.764-0.786,1.235s-0.28,0.969-0.269,1.493c0.01,0.525,0.119,1.02,0.328,1.482
				c0.208,0.463,0.486,0.864,0.833,1.204c0.347,0.34,0.754,0.607,1.222,0.802s0.97,0.287,1.506,0.276
				c0.528-0.01,1.023-0.122,1.482-0.335s0.858-0.499,1.195-0.855c0.337-0.356,0.601-0.768,0.791-1.235
				c0.19-0.467,0.28-0.963,0.27-1.488c-0.01-0.524-0.12-1.017-0.328-1.476c-0.208-0.459-0.488-0.86-0.839-1.203
				c-0.352-0.343-0.761-0.612-1.229-0.808C390.466,76.92,389.968,76.828,389.44,76.838z"/>
			<path fill="#331842" d="M419.068,85.073c0.006,0.321-0.099,0.594-0.315,0.821c-0.217,0.227-0.481,0.343-0.792,0.35
				c-0.319,0.006-0.589-0.1-0.811-0.318c-0.222-0.218-0.335-0.488-0.342-0.809l-0.123-6.224c-0.007-0.35-0.081-0.68-0.221-0.992
				c-0.14-0.311-0.329-0.582-0.565-0.814c-0.237-0.233-0.514-0.415-0.832-0.547c-0.318-0.133-0.658-0.195-1.02-0.188
				c-0.355,0.007-0.687,0.083-0.996,0.228c-0.309,0.145-0.579,0.336-0.81,0.574c-0.231,0.239-0.41,0.515-0.538,0.832
				c-0.128,0.316-0.188,0.653-0.181,1.01l0.123,6.224c0.006,0.321-0.099,0.594-0.315,0.821c-0.217,0.227-0.48,0.343-0.792,0.35
				c-0.319,0.006-0.591-0.1-0.816-0.318c-0.225-0.218-0.341-0.487-0.347-0.808l-0.123-6.224c-0.007-0.357-0.083-0.692-0.226-1.002
				c-0.144-0.311-0.334-0.58-0.57-0.81c-0.237-0.228-0.512-0.409-0.826-0.542c-0.314-0.132-0.649-0.195-1.004-0.188
				c-0.355,0.007-0.687,0.081-0.996,0.222s-0.579,0.333-0.809,0.574c-0.231,0.242-0.41,0.521-0.538,0.837
				c-0.128,0.316-0.188,0.653-0.181,1.01l0.123,6.224c0.007,0.321-0.099,0.594-0.315,0.821c-0.216,0.227-0.48,0.343-0.792,0.349
				c-0.318,0.006-0.591-0.1-0.816-0.317c-0.226-0.218-0.341-0.487-0.348-0.808l-0.197-9.964c-0.006-0.313,0.099-0.583,0.316-0.811
				c0.216-0.227,0.48-0.344,0.792-0.35c0.253-0.005,0.479,0.062,0.678,0.2c0.198,0.139,0.336,0.323,0.413,0.555
				c0.765-0.533,1.64-0.809,2.625-0.829c0.724-0.015,1.408,0.117,2.051,0.392c0.643,0.276,1.209,0.7,1.699,1.274
				c0.984-1.179,2.208-1.784,3.671-1.812c0.659-0.013,1.287,0.104,1.882,0.352s1.117,0.586,1.563,1.02
				c0.447,0.433,0.805,0.943,1.074,1.532c0.269,0.589,0.41,1.216,0.423,1.879L419.068,85.073z"/>
			<path fill="#331842" d="M427.542,75.156c1.062-0.925,2.324-1.403,3.788-1.432c1.666-0.033,3.112,0.537,4.338,1.709
				c0.605,0.579,1.064,1.229,1.375,1.948c0.311,0.72,0.475,1.503,0.492,2.348c0.033,1.707-0.532,3.162-1.697,4.367
				c-1.179,1.219-2.602,1.845-4.268,1.878c-1.681,0.033-3.127-0.537-4.338-1.708c-1.212-1.173-1.834-2.604-1.868-4.297
				l-0.202-10.238c-0.007-0.328,0.095-0.601,0.304-0.821c0.209-0.219,0.477-0.332,0.803-0.338c0.318-0.006,0.59,0.096,0.816,0.307
				c0.225,0.211,0.341,0.48,0.347,0.808L427.542,75.156z M431.526,83.688c0.529-0.01,1.023-0.122,1.483-0.335
				c0.459-0.213,0.858-0.499,1.195-0.855c0.337-0.356,0.601-0.768,0.791-1.235c0.19-0.467,0.28-0.963,0.27-1.488
				c-0.01-0.524-0.12-1.017-0.328-1.476c-0.208-0.459-0.488-0.86-0.839-1.203c-0.351-0.343-0.761-0.612-1.228-0.808
				c-0.468-0.195-0.966-0.287-1.495-0.277c-0.536,0.011-1.034,0.123-1.493,0.336c-0.46,0.214-0.856,0.497-1.19,0.85
				c-0.334,0.353-0.596,0.764-0.786,1.235c-0.19,0.471-0.28,0.969-0.27,1.493c0.01,0.525,0.12,1.02,0.328,1.482
				s0.486,0.864,0.834,1.203c0.347,0.34,0.754,0.607,1.222,0.802C430.488,83.607,430.99,83.699,431.526,83.688z"/>
			<path fill="#331842" d="M446.636,71.245c0.007,0.372-0.117,0.691-0.373,0.959c-0.255,0.268-0.568,0.405-0.938,0.413
				c-0.37,0.007-0.687-0.118-0.954-0.375c-0.266-0.257-0.402-0.571-0.41-0.943s0.117-0.692,0.373-0.959
				c0.255-0.268,0.568-0.405,0.938-0.413c0.369-0.007,0.687,0.118,0.953,0.375C446.492,70.558,446.628,70.873,446.636,71.245z
				 M444.431,84.572l-0.196-9.954c-0.006-0.32,0.099-0.594,0.315-0.821c0.216-0.227,0.48-0.343,0.792-0.35
				c0.312-0.006,0.58,0.1,0.805,0.318c0.226,0.218,0.345,0.487,0.358,0.808l0.197,9.954c-0.001,0.321-0.11,0.595-0.326,0.822
				c-0.217,0.227-0.481,0.343-0.792,0.349c-0.312,0.006-0.58-0.1-0.806-0.318S444.438,84.893,444.431,84.572z"/>
			<path fill="#331842" d="M463.389,84.209l-0.005-0.219c-0.534,0.448-1.118,0.794-1.751,1.041s-1.312,0.376-2.036,0.391
				c-1.681,0.033-3.127-0.537-4.338-1.708c-1.212-1.173-1.834-2.604-1.868-4.297c-0.033-1.691,0.532-3.146,1.697-4.366
				c1.165-1.219,2.587-1.846,4.268-1.879c1.666-0.033,3.112,0.537,4.338,1.709c1.212,1.173,1.834,2.604,1.868,4.296l0.098,4.988
				c0.006,0.313-0.099,0.583-0.315,0.81c-0.217,0.227-0.48,0.343-0.792,0.35c-0.319,0.006-0.591-0.1-0.816-0.318
				C463.511,84.788,463.395,84.522,463.389,84.209z M459.401,75.458c-0.536,0.01-1.034,0.123-1.494,0.335
				c-0.46,0.214-0.856,0.497-1.19,0.85c-0.334,0.353-0.596,0.765-0.786,1.235s-0.28,0.969-0.269,1.493
				c0.01,0.525,0.12,1.02,0.328,1.482c0.208,0.463,0.486,0.864,0.833,1.203c0.347,0.34,0.754,0.607,1.222,0.802
				c0.468,0.195,0.97,0.287,1.506,0.277c0.528-0.011,1.023-0.123,1.482-0.335c0.459-0.213,0.858-0.499,1.195-0.855
				c0.337-0.356,0.601-0.768,0.791-1.235c0.19-0.467,0.28-0.963,0.27-1.488c-0.01-0.524-0.12-1.017-0.328-1.476
				c-0.208-0.459-0.488-0.86-0.839-1.203c-0.352-0.343-0.761-0.612-1.229-0.808S459.929,75.447,459.401,75.458z"/>
		</g>
	</g>
</g>
</svg>
