<?xml version="1.0" encoding="utf-8"?>
<!-- Generator: Adobe Illustrator 16.0.0, SVG Export Plug-In . SVG Version: 6.00 Build 0)  -->
<!DOCTYPE svg PUBLIC "-//W3C//DTD SVG 1.1//EN" "http://www.w3.org/Graphics/SVG/1.1/DTD/svg11.dtd">
<svg version="1.1" id="Capa_1" xmlns="http://www.w3.org/2000/svg" xmlns:xlink="http://www.w3.org/1999/xlink" x="0px" y="0px"
	 width="457.235px" height="270.836px" viewBox="0 0 457.235 270.836" enable-background="new 0 0 457.235 270.836"
	 xml:space="preserve">
<g>
	<rect x="116.559" fill="#F39200" width="340.676" height="270.836"/>
	<rect y="183.522" fill="#EA6020" width="112.467" height="87.314"/>
	<g>
		<path fill="#FFFFFF" d="M19.341,233.709c0.048-1.693,0.072-3.398,0.072-5.115c0-2.629-0.056-5.284-0.167-7.967
			c1.23-0.094,2.335-0.142,3.312-0.142c2.716,0,4.448,0.37,5.194,1.11c0.699,0.691,1.049,1.456,1.049,2.291
			c0,0.379-0.068,0.77-0.203,1.172c-0.461,1.303-1.43,2.128-2.907,2.479c1.033,0.106,1.815,0.521,2.347,1.243
			c0.508,0.699,0.763,2.457,0.763,5.275v0.382l-3.598,0.036c0.04-0.746,0.06-1.415,0.06-2.007c0-1.795-0.195-2.893-0.583-3.295
			c-0.445-0.45-0.973-0.676-1.585-0.676c-0.119,0-0.242,0.01-0.369,0.026c0.048,1.806,0.151,3.517,0.31,5.133L19.341,233.709z
			 M22.391,222.697l0.083,3.802c1.477-0.054,2.414-0.427,2.812-1.119c0.214-0.367,0.321-0.726,0.321-1.075
			c0-0.302-0.079-0.599-0.238-0.888c-0.286-0.504-0.997-0.756-2.132-0.756C22.975,222.661,22.693,222.672,22.391,222.697z"/>
		<path fill="#FFFFFF" d="M33.685,224.713c2.756,0,4.134,1.365,4.134,4.094c0,0.332-0.02,0.688-0.06,1.066h-5.326
			c0,1.521,0.393,2.281,1.18,2.281h0.083c0.691-0.042,1.036-0.435,1.036-1.181c0-0.16-0.016-0.337-0.047-0.533l2.835-0.044
			c0,2.256-1.322,3.398-3.967,3.428c-0.032,0.006-0.06,0.01-0.083,0.01c-2.518,0-3.776-1.424-3.776-4.272v-0.267
			C29.773,226.24,31.104,224.713,33.685,224.713z M32.148,228.238h2.692v-0.213c0-1.078-0.409-1.616-1.227-1.616
			C32.732,226.409,32.244,227.019,32.148,228.238z"/>
		<path fill="#FFFFFF" d="M38.784,237.377c0.048-1.996,0.071-4.119,0.071-6.369c0-2.047-0.02-4.197-0.06-6.447l2.824-0.009
			l0.095,1.368c0.588-0.664,1.37-0.996,2.347-0.996c2.438,0,3.657,1.437,3.657,4.308v0.179c-0.056,2.877-1.271,4.315-3.646,4.315
			c-0.095,0-0.19-0.003-0.286-0.009c-0.811-0.029-1.466-0.358-1.966-0.986c0,1.314,0.043,2.863,0.131,4.645h-3.167V237.377z
			 M41.763,227.741l0.06,3.34c0.46,0.467,0.925,0.701,1.394,0.701c0.191,0,0.381-0.041,0.572-0.123
			c0.58-0.238,0.87-0.945,0.87-2.123c0-0.143-0.004-0.291-0.012-0.445c-0.079-1.443-0.464-2.204-1.155-2.281
			c-0.072-0.006-0.139-0.01-0.203-0.01C42.684,226.799,42.175,227.114,41.763,227.741z"/>
		<path fill="#FFFFFF" d="M51.83,227.465l0.119,6.438l-2.919,0.019c0-2.723-0.123-5.781-0.369-9.174l2.192-0.178l0.119,1.447
			c0.333-0.71,1.112-1.116,2.335-1.217c0.183-0.012,0.357-0.018,0.524-0.018c0.961,0,1.691,0.233,2.192,0.701
			c0.58,0.557,0.874,1.442,0.882,2.655l-2.645,0.194c0.008-0.101,0.012-0.197,0.012-0.293c0-0.946-0.33-1.42-0.989-1.42h-0.048
			C52.473,226.652,52.004,226.933,51.83,227.465z"/>
		<path fill="#FFFFFF" d="M61.575,224.713c2.756,0,4.134,1.365,4.134,4.094c0,0.332-0.02,0.688-0.06,1.066h-5.325
			c0,1.521,0.393,2.281,1.179,2.281h0.083c0.691-0.042,1.036-0.435,1.036-1.181c0-0.16-0.016-0.337-0.047-0.533l2.835-0.044
			c0,2.256-1.322,3.398-3.967,3.428c-0.032,0.006-0.06,0.01-0.083,0.01c-2.518,0-3.776-1.424-3.776-4.272v-0.267
			C57.663,226.24,58.994,224.713,61.575,224.713z M60.038,228.238h2.692v-0.213c0-1.078-0.409-1.616-1.227-1.616
			C60.622,226.409,60.133,227.019,60.038,228.238z"/>
		<path fill="#FFFFFF" d="M66.459,230.681l2.728-0.099v0.115c0,0.912,0.377,1.374,1.132,1.387h0.048c0.73,0,1.096-0.265,1.096-0.791
			v-0.062c-0.032-0.581-0.752-1.048-2.162-1.402c-1.41-0.355-2.258-0.953-2.543-1.795c-0.104-0.296-0.155-0.58-0.155-0.853
			c0-0.498,0.17-0.959,0.512-1.386c0.524-0.65,1.318-1.023,2.383-1.118c0.286-0.023,0.564-0.036,0.834-0.036
			c0.707,0,1.33,0.092,1.87,0.275c0.739,0.254,1.251,0.619,1.537,1.092c0.19,0.326,0.286,0.687,0.286,1.082
			c0,0.189-0.02,0.386-0.06,0.587l-2.549,0.044c0.024-0.148,0.036-0.284,0.036-0.408c0-0.592-0.254-0.909-0.763-0.95
			c-0.056-0.006-0.111-0.009-0.167-0.009c-0.524,0-0.877,0.199-1.06,0.595c-0.064,0.136-0.096,0.261-0.096,0.373
			c0,0.278,0.175,0.519,0.524,0.72c0.492,0.283,1.221,0.572,2.186,0.865c0.965,0.293,1.614,0.792,1.948,1.497
			c0.119,0.267,0.179,0.533,0.179,0.8c0,0.449-0.175,0.902-0.524,1.358c-0.556,0.728-1.418,1.151-2.585,1.271
			c-0.254,0.028-0.504,0.043-0.75,0.043c-0.874,0-1.684-0.168-2.43-0.506C66.96,232.939,66.475,232.042,66.459,230.681z"/>
		<path fill="#FFFFFF" d="M78.397,222.67c0,0.36-0.171,0.668-0.512,0.924c-0.342,0.254-0.755,0.382-1.239,0.382
			c-0.477,0-0.886-0.127-1.227-0.382c-0.341-0.256-0.512-0.562-0.512-0.924c0-0.355,0.171-0.66,0.512-0.916
			c0.341-0.254,0.75-0.381,1.227-0.381c0.484,0,0.897,0.127,1.239,0.381C78.226,222.01,78.397,222.315,78.397,222.67z
			 M75.204,233.877c-0.056-3.463-0.083-6.457-0.083-8.979l3.002-0.133c-0.096,2.416-0.143,4.816-0.143,7.202
			c0,0.64,0.004,1.276,0.012,1.909H75.204z"/>
		<path fill="#FFFFFF" d="M83.246,224.713c2.7,0,4.05,1.396,4.05,4.19c0,0.113-0.004,0.226-0.012,0.337
			c-0.111,3.026-1.549,4.553-4.313,4.584c-0.032,0.006-0.063,0.008-0.095,0.008c-2.629,0-3.943-1.43-3.943-4.289v-0.25
			C79.013,226.24,80.45,224.713,83.246,224.713z M82.853,226.737c-0.5,0.131-0.842,0.613-1.024,1.448
			c-0.111,0.498-0.167,0.998-0.167,1.501c0,0.337,0.024,0.678,0.072,1.021c0.127,0.853,0.536,1.293,1.227,1.322h0.083
			c0.643,0,1.084-0.316,1.322-0.949c0.198-0.527,0.298-1.151,0.298-1.875c0-0.178-0.004-0.357-0.012-0.541
			c-0.063-0.953-0.254-1.549-0.571-1.785c-0.199-0.143-0.437-0.213-0.715-0.213C83.206,226.667,83.035,226.69,82.853,226.737z
			 M81.697,222.981c0.929-0.822,1.691-1.607,2.287-2.354l1.954,1.154c-0.842,0.616-1.779,1.371-2.812,2.264L81.697,222.981z"/>
		<path fill="#FFFFFF" d="M90.144,224.482l0.119,1.447c0.334-0.771,1.211-1.16,2.633-1.173h0.048c1.398,0,2.351,0.408,2.859,1.226
			c0.35,0.558,0.524,1.858,0.524,3.908c0,1.007-0.044,2.196-0.131,3.569h-2.883c0.104-1.83,0.155-3.248,0.155-4.254
			c0-0.502-0.012-0.906-0.036-1.207c-0.079-0.889-0.46-1.332-1.144-1.332s-1.112,0.236-1.287,0.709l0.119,6.438l-2.8,0.019
			c0-2.725-0.123-5.782-0.369-9.174L90.144,224.482z"/>
	</g>
	<g>
		<path fill="none" d="M444.465,249.558l-10.016-10.015c-1-1.002-2.623-1.002-3.625,0c-1,1-1,2.623,0,3.625l8.387,8.387
			l-8.387,8.387c-1,1.001-1,2.625,0,3.625c0.5,0.5,1.156,0.75,1.812,0.75s1.312-0.25,1.812-0.75l10.016-10.016
			c0.547-0.547,0.793-1.281,0.742-1.997C445.258,250.838,445.012,250.105,444.465,249.558z"/>
		<path fill="none" d="M433.235,251.554c0-0.656-0.25-1.312-0.75-1.812l-6.145-6.146c-1.002-1-2.625-1-3.625,0.001
			c-1.002,1-1.002,2.624,0,3.625l4.332,4.331l-4.332,4.332c-1.002,1.002-1.002,2.625,0,3.625c0.5,0.5,1.156,0.75,1.812,0.75
			c0.654,0,1.311-0.25,1.811-0.75l6.146-6.146C432.985,252.868,433.235,252.209,433.235,251.554z"/>
	</g>
	<g>
		<path fill="#FFFFFF" d="M133.226,249.558l10.016-10.015c1.001-1.002,2.624-1.002,3.625,0c1.001,1,1.001,2.623,0,3.625
			l-8.387,8.387l8.387,8.387c1.001,1.001,1.001,2.625,0,3.625c-0.5,0.5-1.156,0.75-1.812,0.75c-0.656,0-1.312-0.25-1.812-0.75
			l-10.016-10.016c-0.547-0.547-0.793-1.281-0.742-1.997C132.433,250.838,132.679,250.105,133.226,249.558z"/>
		<path fill="#FFFFFF" d="M144.457,251.554c0-0.656,0.25-1.312,0.75-1.812l6.145-6.146c1.001-1,2.624-1,3.625,0.001
			c1.001,1,1.001,2.624,0,3.625l-4.332,4.331l4.332,4.332c1.001,1.002,1.001,2.625,0,3.625c-0.5,0.5-1.156,0.75-1.812,0.75
			c-0.656,0-1.312-0.25-1.812-0.75l-6.145-6.146C144.707,252.868,144.457,252.209,144.457,251.554z"/>
	</g>
</g>
</svg>
