<?xml version="1.0" encoding="utf-8"?>
<!-- Generator: Adobe Illustrator 16.0.0, SVG Export Plug-In . SVG Version: 6.00 Build 0)  -->
<!DOCTYPE svg PUBLIC "-//W3C//DTD SVG 1.1//EN" "http://www.w3.org/Graphics/SVG/1.1/DTD/svg11.dtd">
<svg version="1.1" id="Capa_1" xmlns="http://www.w3.org/2000/svg" xmlns:xlink="http://www.w3.org/1999/xlink" x="0px" y="0px"
	 width="468.598px" height="333.254px" viewBox="0 0 468.598 333.254" enable-background="new 0 0 468.598 333.254"
	 xml:space="preserve">
<g>
	<g>
		<circle fill="#E9496E" cx="27.33" cy="297.85" r="2.551"/>
		<circle fill="#E9496E" cx="21.136" cy="297.85" r="2.551"/>
		<circle fill="#E9496E" cx="14.94" cy="297.85" r="2.55"/>
		<circle fill="#E9496E" cx="21.136" cy="304.117" r="2.551"/>
		<circle fill="#E9496E" cx="14.94" cy="304.117" r="2.55"/>
		<circle fill="#E9496E" cx="8.746" cy="304.117" r="2.551"/>
		<circle fill="#E9496E" cx="14.94" cy="310.384" r="2.55"/>
		<circle fill="#E9496E" cx="8.746" cy="310.384" r="2.551"/>
		<circle fill="#E9496E" cx="2.551" cy="310.384" r="2.551"/>
		<circle fill="#E9496E" cx="21.136" cy="316.652" r="2.551"/>
		<circle fill="#E9496E" cx="14.94" cy="316.652" r="2.55"/>
		<circle fill="#E9496E" cx="8.746" cy="316.652" r="2.551"/>
		<circle fill="#E9496E" cx="27.33" cy="322.92" r="2.551"/>
		<circle fill="#E9496E" cx="21.136" cy="322.92" r="2.551"/>
		<circle fill="#E9496E" cx="14.94" cy="322.92" r="2.55"/>
	</g>
	<circle fill="#3C3C3B" cx="79.719" cy="120.664" r="2.666"/>
	<circle fill="#3C3C3B" cx="79.719" cy="139.997" r="2.666"/>
	<circle fill="#3C3C3B" cx="79.719" cy="178.997" r="2.666"/>
	<circle fill="#3C3C3B" cx="79.719" cy="197.997" r="2.666"/>
	<circle fill="#3C3C3B" cx="79.719" cy="216.664" r="2.666"/>
</g>
</svg>
