<?xml version="1.0" encoding="utf-8"?>
<!-- Generator: Adobe Illustrator 16.0.0, SVG Export Plug-In . SVG Version: 6.00 Build 0)  -->
<!DOCTYPE svg PUBLIC "-//W3C//DTD SVG 1.1//EN" "http://www.w3.org/Graphics/SVG/1.1/DTD/svg11.dtd">
<svg version="1.1" id="Capa_1" xmlns="http://www.w3.org/2000/svg" xmlns:xlink="http://www.w3.org/1999/xlink" x="0px" y="0px"
	 width="911.908px" height="362.164px" viewBox="0 0 911.908 362.164" enable-background="new 0 0 911.908 362.164"
	 xml:space="preserve">
<g>
	<g>
		<circle fill="#E9496E" cx="24.125" cy="337.782" r="2.252"/>
		<circle fill="#E9496E" cx="18.657" cy="337.782" r="2.251"/>
		<circle fill="#E9496E" cx="13.188" cy="337.782" r="2.251"/>
		<circle fill="#E9496E" cx="18.657" cy="343.313" r="2.251"/>
		<circle fill="#E9496E" cx="13.188" cy="343.313" r="2.251"/>
		<circle fill="#E9496E" cx="7.72" cy="343.313" r="2.251"/>
		<circle fill="#E9496E" cx="13.188" cy="348.847" r="2.251"/>
		<circle fill="#E9496E" cx="7.72" cy="348.847" r="2.251"/>
		<circle fill="#E9496E" cx="2.252" cy="348.848" r="2.252"/>
		<circle fill="#E9496E" cx="18.657" cy="354.379" r="2.251"/>
		<circle fill="#E9496E" cx="13.188" cy="354.379" r="2.251"/>
		<circle fill="#E9496E" cx="7.72" cy="354.379" r="2.251"/>
		<circle fill="#E9496E" cx="24.125" cy="359.912" r="2.252"/>
		<circle fill="#E9496E" cx="18.657" cy="359.912" r="2.251"/>
		<circle fill="#E9496E" cx="13.188" cy="359.912" r="2.251"/>
	</g>
	<g>
		<rect x="42.853" y="66.113" fill="#E6332A" width="192.321" height="40.431"/>
		<rect x="254.518" y="66.113" fill="#008D36" width="192.321" height="40.431"/>
		<rect x="466.184" y="66.113" fill="#662483" width="192.319" height="40.431"/>
		<rect x="677.849" y="66.113" fill="#D60B52" width="192.32" height="40.431"/>
		<g>
			<g>
				<path fill="#FFFFFF" d="M112.383,85.75l-2.704,0.018c-0.04-1.504-0.548-2.294-1.525-2.371h-0.214
					c-0.874,0-1.581,0.429-2.121,1.288s-0.81,2.075-0.81,3.65v0.391c0.047,1.764,0.877,2.646,2.49,2.646
					c1.112,0,1.668-0.675,1.668-2.025c0-0.136-0.004-0.275-0.012-0.417l-2.371,0.027l0.119-1.999l6.088,0.071v2.176l-1.215,0.018
					c0,3.091-1.652,4.636-4.956,4.636c-3.058,0-4.587-1.817-4.587-5.453c0-0.302,0.012-0.619,0.036-0.95
					c0.278-4.269,2.101-6.492,5.468-6.669c0.167-0.006,0.326-0.009,0.477-0.009c2.804,0,4.206,1.409,4.206,4.227
					C112.418,85.241,112.407,85.489,112.383,85.75z"/>
				<path fill="#FFFFFF" d="M117.911,84.702c2.756,0,4.134,1.365,4.134,4.094c0,0.332-0.02,0.687-0.06,1.066h-5.326
					c0,1.521,0.393,2.282,1.18,2.282h0.083c0.691-0.042,1.036-0.435,1.036-1.181c0-0.16-0.016-0.337-0.047-0.533l2.835-0.044
					c0,2.256-1.322,3.398-3.967,3.428c-0.032,0.006-0.06,0.009-0.083,0.009c-2.518,0-3.776-1.424-3.776-4.271v-0.266
					C113.999,86.229,115.329,84.702,117.911,84.702z M116.374,88.228h2.692v-0.213c0-1.078-0.409-1.617-1.227-1.617
					C116.958,86.398,116.469,87.008,116.374,88.228z"/>
				<path fill="#FFFFFF" d="M125.13,84.471l0.119,1.447c0.333-0.77,1.211-1.16,2.633-1.172h0.048c1.398,0,2.351,0.408,2.859,1.225
					c0.349,0.557,0.524,1.859,0.524,3.908c0,1.007-0.043,2.197-0.131,3.57h-2.883c0.103-1.83,0.155-3.248,0.155-4.254
					c0-0.503-0.012-0.906-0.036-1.208c-0.08-0.888-0.46-1.332-1.144-1.332s-1.112,0.237-1.287,0.71l0.119,6.438l-2.8,0.018
					c0-2.724-0.123-5.782-0.369-9.174L125.13,84.471z"/>
				<path fill="#FFFFFF" d="M136.496,84.702c2.7,0,4.051,1.397,4.051,4.191c0,0.113-0.004,0.225-0.012,0.337
					c-0.111,3.026-1.549,4.553-4.313,4.583c-0.032,0.006-0.063,0.009-0.095,0.009c-2.629,0-3.943-1.43-3.943-4.29v-0.249
					C132.263,86.229,133.7,84.702,136.496,84.702z M136.103,86.727c-0.5,0.13-0.842,0.613-1.024,1.448
					c-0.111,0.498-0.167,0.998-0.167,1.501c0,0.337,0.024,0.678,0.072,1.021c0.127,0.853,0.536,1.294,1.227,1.323h0.083
					c0.643,0,1.084-0.316,1.322-0.95c0.199-0.527,0.298-1.151,0.298-1.874c0-0.178-0.004-0.358-0.012-0.542
					c-0.064-0.953-0.254-1.548-0.572-1.785c-0.199-0.142-0.437-0.213-0.715-0.213C136.456,86.656,136.285,86.68,136.103,86.727z"/>
				<path fill="#FFFFFF" d="M146.075,90.164l2.835,0.133c0,2.137-1.322,3.221-3.967,3.25c-0.032,0.006-0.06,0.009-0.083,0.009
					c-2.518,0-3.776-1.424-3.776-4.271v-0.267c0.079-3.055,1.421-4.597,4.026-4.627h0.096c2.398,0,3.598,1.024,3.598,3.073
					c0,0.119-0.004,0.237-0.012,0.355l-2.562,0.142v-0.213c0-1.078-0.409-1.616-1.227-1.616c-0.834,0-1.251,0.874-1.251,2.62v0.293
					c0.047,1.889,0.468,2.833,1.263,2.833h0.072c0.691-0.041,1.036-0.435,1.036-1.181C146.122,90.537,146.106,90.359,146.075,90.164
					z"/>
				<path fill="#FFFFFF" d="M153.234,82.659c0,0.361-0.171,0.669-0.512,0.924c-0.341,0.255-0.754,0.382-1.239,0.382
					c-0.477,0-0.886-0.127-1.227-0.382c-0.342-0.254-0.512-0.562-0.512-0.924c0-0.355,0.17-0.66,0.512-0.915
					c0.341-0.254,0.75-0.382,1.227-0.382c0.484,0,0.897,0.127,1.239,0.382C153.064,81.999,153.234,82.304,153.234,82.659z
					 M150.042,93.867c-0.056-3.464-0.083-6.457-0.083-8.979l3.002-0.133c-0.095,2.416-0.143,4.816-0.143,7.202
					c0,0.64,0.004,1.276,0.012,1.91H150.042z"/>
				<path fill="#FFFFFF" d="M162.896,81.256c-0.048,2.001-0.071,4.1-0.071,6.296c0,2.001,0.02,4.085,0.06,6.252l-2.824,0.009
					l-0.095-1.358c-0.588,0.657-1.37,0.986-2.347,0.986c-2.438,0-3.658-1.392-3.658-4.174c0-0.059,0.004-0.118,0.012-0.178
					c0.048-2.789,1.255-4.183,3.622-4.183c0.096,0,0.195,0.003,0.298,0.009c0.811,0.036,1.466,0.364,1.966,0.986
					c0-1.314-0.043-2.863-0.131-4.645H162.896z M159.918,90.634l-0.06-3.073c-0.46-0.468-0.933-0.702-1.417-0.702
					c-0.199,0-0.397,0.039-0.596,0.116c-0.627,0.243-0.941,0.923-0.941,2.042c0,0.13,0.004,0.264,0.012,0.399
					c0.079,1.356,0.484,2.072,1.215,2.149c0.072,0.006,0.143,0.009,0.215,0.009C158.981,91.576,159.505,91.262,159.918,90.634z"/>
				<path fill="#FFFFFF" d="M167.174,82.659c0,0.361-0.171,0.669-0.513,0.924c-0.341,0.254-0.754,0.382-1.239,0.382
					c-0.477,0-0.886-0.127-1.227-0.382c-0.342-0.254-0.513-0.562-0.513-0.924c0-0.355,0.171-0.66,0.513-0.915
					c0.341-0.254,0.75-0.382,1.227-0.382c0.484,0,0.897,0.127,1.239,0.382C167.003,81.999,167.174,82.304,167.174,82.659z
					 M163.98,93.867c-0.056-3.464-0.083-6.457-0.083-8.979l3.002-0.133c-0.095,2.416-0.143,4.816-0.143,7.202
					c0,0.64,0.004,1.276,0.012,1.91H163.98z"/>
				<path fill="#FFFFFF" d="M172.022,84.702c2.7,0,4.051,1.397,4.051,4.191c0,0.113-0.004,0.225-0.012,0.337
					c-0.111,3.026-1.549,4.553-4.312,4.583c-0.032,0.006-0.064,0.009-0.095,0.009c-2.629,0-3.943-1.43-3.943-4.29v-0.249
					C167.789,86.229,169.227,84.702,172.022,84.702z M171.629,86.727c-0.5,0.13-0.842,0.613-1.025,1.448
					c-0.111,0.498-0.167,0.998-0.167,1.501c0,0.337,0.024,0.678,0.071,1.021c0.127,0.853,0.536,1.294,1.227,1.323h0.083
					c0.644,0,1.084-0.316,1.323-0.95c0.198-0.527,0.298-1.151,0.298-1.874c0-0.178-0.004-0.358-0.012-0.542
					c-0.063-0.953-0.254-1.548-0.572-1.785c-0.199-0.142-0.437-0.213-0.715-0.213C171.982,86.656,171.812,86.68,171.629,86.727z"/>
			</g>
		</g>
		<g>
			<g>
				<path fill="#FFFFFF" d="M312.364,76.581l-2.646,0.009v-0.24c0-1.391-0.522-2.087-1.57-2.087c-1.12,0-1.682,1.285-1.682,3.854
					c0,2.895,0.587,4.343,1.765,4.343h0.012c1.175-0.006,1.763-0.716,1.763-2.131V79.45h2.955v0.666
					c0,2.948-1.625,4.491-4.873,4.627c-0.095,0.006-0.188,0.009-0.286,0.009c-3.058,0-4.586-2.19-4.586-6.572
					c0-4.286,1.572-6.43,4.718-6.43c2.963,0,4.444,1.433,4.444,4.298C312.376,76.22,312.372,76.397,312.364,76.581z"/>
				<path fill="#FFFFFF" d="M316.832,78.455l0.119,6.438l-2.919,0.018c0-2.723-0.123-5.781-0.369-9.174l2.191-0.177l0.118,1.447
					c0.333-0.71,1.112-1.116,2.335-1.217c0.185-0.012,0.357-0.018,0.524-0.018c0.961,0,1.691,0.234,2.192,0.702
					c0.578,0.557,0.873,1.442,0.882,2.655l-2.646,0.195c0.008-0.101,0.013-0.198,0.013-0.293c0-0.947-0.329-1.421-0.988-1.421
					h-0.048C317.475,77.641,317.006,77.922,316.832,78.455z"/>
				<path fill="#FFFFFF" d="M322.848,84.867c-0.056-3.464-0.083-6.457-0.083-8.979l3.002-0.133
					c-0.095,2.416-0.143,4.816-0.143,7.202c0,0.64,0.004,1.276,0.012,1.91H322.848z M322.848,73.97
					c0.932-0.823,1.692-1.607,2.288-2.354l1.954,1.155c-0.842,0.616-1.779,1.371-2.812,2.264L322.848,73.97z"/>
				<path fill="#FFFFFF" d="M328.614,75.516l0.047,1.421c0.429-0.681,0.925-1.104,1.489-1.27c0.333-0.095,0.671-0.142,1.013-0.142
					c0.254,0,0.508,0.023,0.762,0.071c0.62,0.119,1.062,0.592,1.323,1.421c0.207-0.645,0.562-1.076,1.072-1.292
					c0.508-0.216,1.07-0.327,1.689-0.333h0.048c0.604,0,1.185,0.11,1.739,0.329c0.564,0.225,0.995,0.647,1.292,1.266
					c0.297,0.619,0.455,1.467,0.472,2.544v5.16l-2.572,0.044c0.103-1.948,0.153-3.606,0.153-4.974c0-1.367-0.35-2.104-1.048-2.211
					c-0.104-0.012-0.203-0.018-0.298-0.018c-0.556,0-0.984,0.267-1.287,0.799c-0.047,0.616-0.069,1.335-0.069,2.158
					c0,1.119,0.043,2.424,0.131,3.917l-2.979,0.018c0.111-2.291,0.167-3.961,0.167-5.009v-0.106
					c-0.008-1.036-0.282-1.581-0.821-1.634h-0.154c-0.484,0-0.953,0.208-1.406,0.622l0.024,6.501l-2.812,0.08v-1.457
					c0-2.582-0.052-5.16-0.155-7.735L328.614,75.516z"/>
				<path fill="#FFFFFF" d="M344.149,75.702c2.756,0,4.134,1.365,4.134,4.094c0,0.332-0.021,0.687-0.062,1.066h-5.323
					c0,1.521,0.393,2.282,1.18,2.282h0.083c0.689-0.042,1.037-0.435,1.037-1.181c0-0.16-0.018-0.337-0.047-0.533l2.835-0.044
					c0,2.256-1.322,3.398-3.969,3.428c-0.03,0.006-0.06,0.009-0.083,0.009c-2.518,0-3.775-1.424-3.775-4.271v-0.266
					C340.238,77.229,341.568,75.702,344.149,75.702z M342.612,79.228h2.691v-0.213c0-1.078-0.409-1.617-1.227-1.617
					C343.196,77.398,342.708,78.008,342.612,79.228z"/>
				<path fill="#FFFFFF" d="M351.369,75.471l0.119,1.447c0.333-0.77,1.211-1.16,2.633-1.172h0.048c1.397,0,2.351,0.408,2.859,1.225
					c0.349,0.557,0.522,1.859,0.522,3.908c0,1.007-0.043,2.197-0.131,3.57h-2.883c0.103-1.83,0.155-3.248,0.155-4.254
					c0-0.503-0.014-0.906-0.036-1.208c-0.08-0.888-0.461-1.332-1.146-1.332c-0.684,0-1.11,0.237-1.287,0.71l0.119,6.438l-2.8,0.018
					c0-2.724-0.124-5.782-0.37-9.174L351.369,75.471z"/>
				<path fill="#FFFFFF" d="M362.413,75.702c2.756,0,4.134,1.365,4.134,4.094c0,0.332-0.02,0.687-0.06,1.066h-5.325
					c0,1.521,0.393,2.282,1.179,2.282h0.083c0.691-0.042,1.037-0.435,1.037-1.181c0-0.16-0.016-0.337-0.048-0.533l2.835-0.044
					c0,2.256-1.322,3.398-3.967,3.428c-0.032,0.006-0.062,0.009-0.083,0.009c-2.52,0-3.776-1.424-3.776-4.271v-0.266
					C358.501,77.229,359.832,75.702,362.413,75.702z M360.876,79.228h2.692v-0.213c0-1.078-0.409-1.617-1.229-1.617
					C361.46,77.398,360.972,78.008,360.876,79.228z"/>
				<path fill="#FFFFFF" d="M367.298,81.67l2.729-0.098v0.115c0,0.912,0.377,1.374,1.132,1.386h0.047
					c0.729,0,1.096-0.264,1.096-0.791V82.22c-0.032-0.581-0.752-1.048-2.163-1.403c-1.409-0.355-2.257-0.953-2.543-1.794
					c-0.104-0.296-0.153-0.58-0.153-0.853c0-0.498,0.171-0.959,0.513-1.385c0.522-0.651,1.317-1.024,2.382-1.119
					c0.286-0.023,0.564-0.036,0.834-0.036c0.707,0,1.331,0.092,1.871,0.275c0.738,0.254,1.251,0.619,1.537,1.092
					c0.189,0.326,0.286,0.687,0.286,1.083c0,0.189-0.021,0.385-0.062,0.586l-2.549,0.044c0.023-0.148,0.036-0.284,0.036-0.408
					c0-0.592-0.254-0.909-0.763-0.95c-0.058-0.006-0.111-0.009-0.167-0.009c-0.524,0-0.878,0.199-1.062,0.595
					c-0.062,0.136-0.095,0.261-0.095,0.373c0,0.278,0.174,0.518,0.522,0.719c0.493,0.284,1.223,0.573,2.188,0.866
					c0.965,0.293,1.614,0.792,1.948,1.497c0.119,0.267,0.179,0.533,0.179,0.799c0,0.45-0.175,0.903-0.524,1.359
					c-0.556,0.728-1.417,1.151-2.585,1.27c-0.254,0.029-0.504,0.044-0.75,0.044c-0.874,0-1.684-0.169-2.431-0.506
					C367.798,83.929,367.313,83.032,367.298,81.67z"/>
				<path fill="#FFFFFF" d="M389.35,72.256c-0.048,2.001-0.069,4.1-0.069,6.296c0,2.001,0.02,4.085,0.06,6.252l-2.824,0.009
					l-0.095-1.358c-0.588,0.657-1.37,0.986-2.347,0.986c-2.438,0-3.658-1.392-3.658-4.174c0-0.059,0.004-0.118,0.012-0.178
					c0.048-2.789,1.255-4.183,3.622-4.183c0.098,0,0.195,0.003,0.298,0.009c0.812,0.036,1.468,0.364,1.968,0.986
					c0-1.314-0.043-2.863-0.133-4.645H389.35z M386.371,81.634l-0.062-3.073c-0.46-0.468-0.933-0.702-1.417-0.702
					c-0.197,0-0.396,0.039-0.596,0.116c-0.627,0.243-0.939,0.923-0.939,2.042c0,0.13,0.004,0.264,0.012,0.399
					c0.079,1.356,0.482,2.072,1.215,2.149c0.072,0.006,0.143,0.009,0.215,0.009C385.434,82.576,385.958,82.262,386.371,81.634z"/>
				<path fill="#FFFFFF" d="M394.163,75.702c2.756,0,4.134,1.365,4.134,4.094c0,0.332-0.02,0.687-0.06,1.066h-5.325
					c0,1.521,0.393,2.282,1.179,2.282h0.083c0.691-0.042,1.036-0.435,1.036-1.181c0-0.16-0.016-0.337-0.047-0.533l2.835-0.044
					c0,2.256-1.322,3.398-3.967,3.428c-0.032,0.006-0.062,0.009-0.083,0.009c-2.52,0-3.776-1.424-3.776-4.271v-0.266
					C390.251,77.229,391.582,75.702,394.163,75.702z M392.626,79.228h2.692v-0.213c0-1.078-0.409-1.617-1.229-1.617
					C393.21,77.398,392.721,78.008,392.626,79.228z"/>
				<path fill="#FFFFFF" d="M291.211,87.466c-0.143,3.084-0.214,5.728-0.214,7.931c0,0.876,0.012,1.685,0.036,2.424l5.313-0.195
					l0.083,2.895l-8.506,0.142c0.008-0.781,0.012-1.56,0.012-2.335c0-3.558-0.104-7.099-0.31-10.622L291.211,87.466z"/>
				<path fill="#FFFFFF" d="M301.433,91.702c2.756,0,4.134,1.365,4.134,4.094c0,0.332-0.02,0.687-0.06,1.066h-5.326
					c0,1.521,0.393,2.282,1.179,2.282h0.083c0.691-0.042,1.037-0.435,1.037-1.181c0-0.16-0.016-0.337-0.048-0.533l2.836-0.044
					c0,2.256-1.323,3.398-3.968,3.428c-0.032,0.006-0.06,0.009-0.083,0.009c-2.518,0-3.777-1.424-3.777-4.271v-0.266
					C297.521,93.229,298.852,91.702,301.433,91.702z M299.896,95.228h2.692v-0.213c0-1.078-0.409-1.617-1.228-1.617
					C300.48,93.398,299.992,94.008,299.896,95.228z"/>
				<path fill="#FFFFFF" d="M306.318,97.67l2.728-0.098v0.115c0,0.912,0.377,1.374,1.132,1.386h0.048
					c0.73,0,1.098-0.264,1.098-0.791V98.22c-0.032-0.581-0.752-1.048-2.162-1.403s-2.258-0.953-2.543-1.794
					c-0.104-0.296-0.155-0.58-0.155-0.853c0-0.498,0.17-0.959,0.512-1.385c0.524-0.651,1.318-1.024,2.384-1.119
					c0.284-0.023,0.562-0.036,0.834-0.036c0.707,0,1.33,0.092,1.869,0.275c0.739,0.254,1.252,0.619,1.537,1.092
					c0.191,0.326,0.286,0.687,0.286,1.083c0,0.189-0.02,0.385-0.06,0.586l-2.549,0.044c0.022-0.148,0.034-0.284,0.034-0.408
					c0-0.592-0.254-0.909-0.763-0.95c-0.056-0.006-0.111-0.009-0.167-0.009c-0.522,0-0.878,0.199-1.061,0.595
					c-0.063,0.136-0.097,0.261-0.097,0.373c0,0.278,0.177,0.518,0.524,0.719c0.492,0.284,1.221,0.573,2.186,0.866
					c0.967,0.293,1.614,0.792,1.948,1.497c0.119,0.267,0.179,0.533,0.179,0.799c0,0.45-0.175,0.903-0.522,1.359
					c-0.557,0.728-1.417,1.151-2.585,1.27c-0.254,0.029-0.504,0.044-0.75,0.044c-0.874,0-1.686-0.169-2.432-0.506
					C306.818,99.929,306.333,99.032,306.318,97.67z"/>
				<path fill="#FFFFFF" d="M319.53,91.444c2.611,0.106,3.919,1.086,3.919,2.939v6.306l-2.775,0.036l-0.096-0.844
					c-0.572,0.485-1.33,0.728-2.275,0.728c-0.403,0-0.842-0.047-1.311-0.142c-1.406-0.26-2.108-1.071-2.108-2.433
					c0-0.166,0.012-0.343,0.036-0.533c0.159-1.403,1.497-2.104,4.015-2.104c0.484,0,1.019,0.026,1.599,0.08v-1.03
					c0-0.835-0.354-1.252-1.062-1.252h-0.047c-0.056-0.006-0.105-0.009-0.155-0.009c-0.771,0-1.153,0.468-1.153,1.403v0.133
					l-2.835-0.177c0-2.066,1.334-3.1,4.003-3.1L319.53,91.444L319.53,91.444z M320.531,98.46v-1.563
					c-0.342-0.054-0.651-0.08-0.931-0.08c-0.723,0-1.215,0.181-1.478,0.542c-0.159,0.219-0.238,0.423-0.238,0.613
					c0,0.237,0.127,0.447,0.381,0.631c0.198,0.142,0.457,0.213,0.774,0.213C319.446,98.815,319.943,98.697,320.531,98.46z"/>
				<path fill="#FFFFFF" d="M338.568,88.087c-0.097,3.985-0.188,8.277-0.274,12.877h-2.705v-5.178h-3.396v4.76l-3.252-0.009
					c0.096-2.173,0.143-4.298,0.143-6.376c0-2.072-0.047-4.097-0.143-6.075h3.107l-0.131,5.178l3.396,0.106v-5.497L338.568,88.087z"
					/>
				<path fill="#FFFFFF" d="M345.799,100.823l-0.119-1.448c-0.333,0.77-1.229,1.158-2.69,1.164
					c-0.018,0.006-0.028,0.009-0.036,0.009c-1.446,0-2.403-0.485-2.871-1.457c-0.318-0.646-0.477-1.98-0.477-4.005
					c0-1.042,0.043-2.271,0.131-3.686h2.895c-0.159,1.989-0.238,3.52-0.238,4.591c0,0.539,0.021,0.959,0.062,1.261
					c0.119,0.924,0.52,1.385,1.203,1.385c0.683,0,1.11-0.24,1.287-0.719l-0.119-6.163l2.8-0.018c0,2.546,0.123,5.512,0.369,8.899
					L345.799,100.823z"/>
				<path fill="#FFFFFF" d="M350.898,91.516l0.048,1.421c0.429-0.681,0.925-1.104,1.487-1.27c0.333-0.095,0.673-0.142,1.015-0.142
					c0.254,0,0.508,0.023,0.762,0.071c0.62,0.119,1.062,0.592,1.322,1.421c0.207-0.645,0.562-1.076,1.072-1.292
					c0.508-0.216,1.07-0.327,1.69-0.333h0.048c0.604,0,1.185,0.11,1.739,0.329c0.562,0.225,0.995,0.647,1.292,1.266
					c0.297,0.619,0.455,1.467,0.471,2.544v5.16l-2.572,0.044c0.104-1.948,0.153-3.606,0.153-4.974c0-1.367-0.35-2.104-1.049-2.211
					c-0.103-0.012-0.202-0.018-0.297-0.018c-0.556,0-0.985,0.267-1.287,0.799c-0.048,0.616-0.072,1.335-0.072,2.158
					c0,1.119,0.043,2.424,0.132,3.917l-2.979,0.018c0.111-2.291,0.167-3.961,0.167-5.009v-0.106
					c-0.008-1.036-0.282-1.581-0.822-1.634h-0.153c-0.484,0-0.953,0.208-1.405,0.622l0.021,6.501l-2.812,0.08v-1.457
					c0-2.582-0.052-5.16-0.155-7.735L350.898,91.516z"/>
				<path fill="#FFFFFF" d="M367.172,91.444c2.613,0.106,3.919,1.086,3.919,2.939v6.306l-2.773,0.036l-0.098-0.844
					c-0.57,0.485-1.33,0.728-2.273,0.728c-0.405,0-0.843-0.047-1.312-0.142c-1.406-0.26-2.106-1.071-2.106-2.433
					c0-0.166,0.012-0.343,0.035-0.533c0.158-1.403,1.496-2.104,4.016-2.104c0.484,0,1.017,0.026,1.597,0.08v-1.03
					c0-0.835-0.354-1.252-1.061-1.252h-0.047c-0.058-0.006-0.107-0.009-0.155-0.009c-0.771,0-1.155,0.468-1.155,1.403v0.133
					l-2.835-0.177c0-2.066,1.334-3.1,4.003-3.1L367.172,91.444L367.172,91.444z M368.173,98.46v-1.563
					c-0.342-0.054-0.649-0.08-0.929-0.08c-0.723,0-1.215,0.181-1.479,0.542c-0.157,0.219-0.236,0.423-0.236,0.613
					c0,0.237,0.127,0.447,0.381,0.631c0.198,0.142,0.457,0.213,0.772,0.213C367.089,98.815,367.585,98.697,368.173,98.46z"/>
				<path fill="#FFFFFF" d="M374.237,91.471l0.119,1.447c0.333-0.77,1.211-1.16,2.633-1.172h0.048c1.396,0,2.351,0.408,2.857,1.225
					c0.351,0.557,0.524,1.859,0.524,3.908c0,1.007-0.043,2.197-0.131,3.57h-2.883c0.103-1.83,0.153-3.248,0.153-4.254
					c0-0.503-0.012-0.906-0.034-1.208c-0.08-0.888-0.463-1.332-1.146-1.332c-0.684,0-1.112,0.237-1.287,0.71l0.119,6.438l-2.8,0.018
					c0-2.724-0.124-5.782-0.37-9.174L374.237,91.471z"/>
				<path fill="#FFFFFF" d="M384.745,89.659c0,0.361-0.171,0.669-0.512,0.924c-0.344,0.254-0.757,0.382-1.239,0.382
					c-0.479,0-0.885-0.127-1.229-0.382c-0.342-0.255-0.512-0.562-0.512-0.924c0-0.355,0.17-0.66,0.512-0.915
					c0.344-0.255,0.75-0.382,1.229-0.382c0.482,0,0.896,0.127,1.239,0.382C384.574,88.999,384.745,89.304,384.745,89.659z
					 M381.552,100.867c-0.056-3.464-0.083-6.457-0.083-8.979l3.002-0.133c-0.095,2.416-0.143,4.816-0.143,7.202
					c0,0.64,0.004,1.276,0.012,1.91H381.552z"/>
				<path fill="#FFFFFF" d="M394.407,88.256c-0.048,2.001-0.072,4.1-0.072,6.296c0,2.001,0.021,4.085,0.062,6.252l-2.823,0.009
					l-0.097-1.358c-0.588,0.657-1.368,0.986-2.347,0.986c-2.438,0-3.658-1.392-3.658-4.174c0-0.059,0.004-0.118,0.014-0.178
					c0.047-2.789,1.255-4.183,3.622-4.183c0.095,0,0.192,0.003,0.298,0.009c0.81,0.036,1.465,0.364,1.966,0.986
					c0-1.314-0.044-2.863-0.131-4.645H394.407z M391.429,97.634l-0.06-3.073c-0.461-0.468-0.936-0.702-1.418-0.702
					c-0.198,0-0.397,0.039-0.597,0.116c-0.628,0.243-0.94,0.923-0.94,2.042c0,0.13,0.004,0.264,0.012,0.399
					c0.08,1.356,0.484,2.072,1.215,2.149c0.071,0.006,0.145,0.009,0.214,0.009C390.491,98.576,391.016,98.262,391.429,97.634z"/>
				<path fill="#FFFFFF" d="M399.959,91.444c2.613,0.106,3.919,1.086,3.919,2.939v6.306l-2.776,0.036l-0.096-0.844
					c-0.571,0.485-1.33,0.728-2.273,0.728c-0.405,0-0.844-0.047-1.312-0.142c-1.406-0.26-2.108-1.071-2.108-2.433
					c0-0.166,0.014-0.343,0.036-0.533c0.159-1.403,1.497-2.104,4.017-2.104c0.482,0,1.017,0.026,1.596,0.08v-1.03
					c0-0.835-0.354-1.252-1.06-1.252h-0.05c-0.056-0.006-0.105-0.009-0.153-0.009c-0.771,0-1.156,0.468-1.156,1.403v0.133
					l-2.835-0.177c0-2.066,1.334-3.1,4.003-3.1L399.959,91.444L399.959,91.444z M400.959,98.46v-1.563
					c-0.341-0.054-0.651-0.08-0.929-0.08c-0.725,0-1.215,0.181-1.479,0.542c-0.159,0.219-0.236,0.423-0.236,0.613
					c0,0.237,0.127,0.447,0.381,0.631c0.197,0.142,0.457,0.213,0.772,0.213C399.875,98.815,400.372,98.697,400.959,98.46z"/>
				<path fill="#FFFFFF" d="M413.838,88.256c-0.047,2.001-0.071,4.1-0.071,6.296c0,2.001,0.021,4.085,0.062,6.252l-2.823,0.009
					l-0.096-1.358c-0.588,0.657-1.37,0.986-2.349,0.986c-2.438,0-3.656-1.392-3.656-4.174c0-0.059,0.004-0.118,0.012-0.178
					c0.047-2.789,1.255-4.183,3.622-4.183c0.095,0,0.194,0.003,0.298,0.009c0.812,0.036,1.465,0.364,1.966,0.986
					c0-1.314-0.044-2.863-0.131-4.645H413.838z M410.86,97.634l-0.062-3.073c-0.461-0.468-0.934-0.702-1.418-0.702
					c-0.199,0-0.396,0.039-0.596,0.116c-0.627,0.243-0.941,0.923-0.941,2.042c0,0.13,0.004,0.264,0.014,0.399
					c0.077,1.356,0.482,2.072,1.215,2.149c0.069,0.006,0.143,0.009,0.214,0.009C409.922,98.576,410.447,98.262,410.86,97.634z"/>
			</g>
		</g>
		<g>
			<g>
				<path fill="#FFFFFF" d="M493.048,85.581l-2.645,0.009v-0.24c0-1.391-0.524-2.087-1.573-2.087c-1.12,0-1.68,1.285-1.68,3.854
					c0,2.895,0.587,4.343,1.763,4.343h0.012c1.176-0.006,1.766-0.716,1.766-2.131V88.45h2.952v0.666
					c0,2.948-1.624,4.491-4.871,4.627c-0.097,0.006-0.19,0.009-0.286,0.009c-3.06,0-4.587-2.19-4.587-6.572
					c0-4.286,1.57-6.43,4.718-6.43c2.962,0,4.442,1.433,4.442,4.298C493.06,85.22,493.056,85.397,493.048,85.581z"/>
				<path fill="#FFFFFF" d="M497.516,87.455l0.119,6.438l-2.919,0.018c0-2.723-0.123-5.781-0.369-9.174l2.192-0.177l0.119,1.447
					c0.333-0.71,1.109-1.116,2.335-1.217c0.183-0.012,0.355-0.018,0.522-0.018c0.961,0,1.692,0.234,2.192,0.702
					c0.58,0.557,0.874,1.442,0.882,2.655l-2.645,0.195c0.008-0.101,0.012-0.198,0.012-0.293c0-0.947-0.33-1.421-0.989-1.421h-0.048
					C498.159,86.641,497.69,86.922,497.516,87.455z"/>
				<path fill="#FFFFFF" d="M503.532,93.867c-0.058-3.464-0.083-6.457-0.083-8.979l3.002-0.133
					c-0.096,2.416-0.145,4.816-0.145,7.202c0,0.64,0.004,1.276,0.014,1.91H503.532z M503.532,82.97
					c0.929-0.823,1.689-1.607,2.287-2.354l1.954,1.155c-0.844,0.616-1.779,1.371-2.812,2.264L503.532,82.97z"/>
				<path fill="#FFFFFF" d="M509.298,84.516l0.047,1.421c0.431-0.681,0.925-1.104,1.489-1.27c0.334-0.095,0.671-0.142,1.013-0.142
					c0.254,0,0.51,0.023,0.765,0.071c0.619,0.119,1.06,0.592,1.32,1.421c0.207-0.645,0.564-1.076,1.072-1.292
					c0.508-0.216,1.072-0.327,1.691-0.333h0.048c0.604,0,1.184,0.11,1.739,0.329c0.562,0.225,0.993,0.647,1.293,1.266
					c0.298,0.619,0.455,1.467,0.471,2.544v5.16l-2.574,0.044c0.104-1.948,0.155-3.606,0.155-4.974c0-1.367-0.35-2.104-1.048-2.211
					c-0.104-0.012-0.203-0.018-0.297-0.018c-0.558,0-0.985,0.267-1.287,0.799c-0.047,0.616-0.071,1.335-0.071,2.158
					c0,1.119,0.043,2.424,0.131,3.917l-2.979,0.018c0.109-2.291,0.167-3.961,0.167-5.009v-0.106
					c-0.008-1.036-0.282-1.581-0.822-1.634h-0.155c-0.482,0-0.953,0.208-1.404,0.622l0.022,6.501l-2.812,0.08v-1.457
					c0-2.582-0.054-5.16-0.155-7.735L509.298,84.516z"/>
				<path fill="#FFFFFF" d="M524.833,84.702c2.756,0,4.134,1.365,4.134,4.094c0,0.332-0.02,0.687-0.06,1.066h-5.326
					c0,1.521,0.393,2.282,1.18,2.282h0.083c0.691-0.042,1.036-0.435,1.036-1.181c0-0.16-0.016-0.337-0.047-0.533l2.835-0.044
					c0,2.256-1.322,3.398-3.967,3.428c-0.032,0.006-0.062,0.009-0.083,0.009c-2.52,0-3.776-1.424-3.776-4.271v-0.266
					C520.922,86.229,522.252,84.702,524.833,84.702z M523.297,88.228h2.692v-0.213c0-1.078-0.409-1.617-1.229-1.617
					C523.88,86.398,523.392,87.008,523.297,88.228z"/>
				<path fill="#FFFFFF" d="M532.053,84.471l0.119,1.447c0.333-0.77,1.211-1.16,2.633-1.172h0.048c1.398,0,2.353,0.408,2.859,1.225
					c0.349,0.557,0.524,1.859,0.524,3.908c0,1.007-0.043,2.197-0.133,3.57h-2.883c0.104-1.83,0.155-3.248,0.155-4.254
					c0-0.503-0.012-0.906-0.036-1.208c-0.08-0.888-0.46-1.332-1.144-1.332c-0.686,0-1.112,0.237-1.287,0.71l0.119,6.438
					l-2.801,0.018c0-2.724-0.122-5.782-0.368-9.174L532.053,84.471z"/>
				<path fill="#FFFFFF" d="M543.097,84.702c2.756,0,4.136,1.365,4.136,4.094c0,0.332-0.021,0.687-0.062,1.066h-5.326
					c0,1.521,0.395,2.282,1.182,2.282h0.083c0.689-0.042,1.034-0.435,1.034-1.181c0-0.16-0.016-0.337-0.047-0.533l2.835-0.044
					c0,2.256-1.32,3.398-3.967,3.428c-0.032,0.006-0.06,0.009-0.083,0.009c-2.518,0-3.774-1.424-3.774-4.271v-0.266
					C539.186,86.229,540.516,84.702,543.097,84.702z M541.561,88.228h2.692v-0.213c0-1.078-0.409-1.617-1.227-1.617
					C542.144,86.398,541.656,87.008,541.561,88.228z"/>
				<path fill="#FFFFFF" d="M547.982,90.67l2.728-0.098v0.115c0,0.912,0.377,1.374,1.132,1.386h0.048
					c0.73,0,1.098-0.264,1.098-0.791V91.22c-0.032-0.581-0.752-1.048-2.162-1.403s-2.258-0.953-2.543-1.794
					c-0.104-0.296-0.155-0.58-0.155-0.853c0-0.498,0.17-0.959,0.512-1.385c0.524-0.651,1.318-1.024,2.384-1.119
					c0.284-0.023,0.562-0.036,0.834-0.036c0.705,0,1.329,0.092,1.869,0.275c0.739,0.254,1.251,0.619,1.537,1.092
					c0.191,0.326,0.286,0.687,0.286,1.083c0,0.189-0.02,0.385-0.06,0.586l-2.551,0.044c0.024-0.148,0.036-0.284,0.036-0.408
					c0-0.592-0.254-0.909-0.763-0.95c-0.056-0.006-0.111-0.009-0.167-0.009c-0.524,0-0.878,0.199-1.061,0.595
					c-0.063,0.136-0.097,0.261-0.097,0.373c0,0.278,0.177,0.518,0.524,0.719c0.492,0.284,1.221,0.573,2.186,0.866
					c0.966,0.293,1.614,0.792,1.948,1.497c0.119,0.267,0.179,0.533,0.179,0.799c0,0.45-0.175,0.903-0.522,1.359
					c-0.558,0.728-1.417,1.151-2.585,1.27c-0.254,0.029-0.504,0.044-0.75,0.044c-0.874,0-1.686-0.169-2.433-0.506
					C548.482,92.929,547.998,92.032,547.982,90.67z"/>
				<path fill="#FFFFFF" d="M570.034,81.256c-0.048,2.001-0.072,4.1-0.072,6.296c0,2.001,0.021,4.085,0.061,6.252l-2.823,0.009
					l-0.097-1.358c-0.588,0.657-1.368,0.986-2.347,0.986c-2.438,0-3.658-1.392-3.658-4.174c0-0.059,0.005-0.118,0.014-0.178
					c0.048-2.789,1.255-4.183,3.622-4.183c0.095,0,0.192,0.003,0.298,0.009c0.81,0.036,1.465,0.364,1.966,0.986
					c0-1.314-0.044-2.863-0.131-4.645H570.034z M567.056,90.634l-0.06-3.073c-0.461-0.468-0.935-0.702-1.418-0.702
					c-0.198,0-0.397,0.039-0.596,0.116c-0.628,0.243-0.941,0.923-0.941,2.042c0,0.13,0.004,0.264,0.012,0.399
					c0.08,1.356,0.484,2.072,1.216,2.149c0.07,0.006,0.144,0.009,0.215,0.009C566.118,91.576,566.643,91.262,567.056,90.634z"/>
				<path fill="#FFFFFF" d="M574.847,84.702c2.756,0,4.136,1.365,4.136,4.094c0,0.332-0.021,0.687-0.062,1.066h-5.325
					c0,1.521,0.395,2.282,1.181,2.282h0.083c0.689-0.042,1.036-0.435,1.036-1.181c0-0.16-0.017-0.337-0.049-0.533l2.835-0.044
					c0,2.256-1.32,3.398-3.967,3.428c-0.032,0.006-0.06,0.009-0.083,0.009c-2.518,0-3.775-1.424-3.775-4.271v-0.266
					C570.936,86.229,572.266,84.702,574.847,84.702z M573.31,88.228h2.693v-0.213c0-1.078-0.409-1.617-1.228-1.617
					C573.894,86.398,573.405,87.008,573.31,88.228z"/>
				<path fill="#FFFFFF" d="M594.35,85.75l-2.704,0.018c-0.038-1.504-0.548-2.294-1.523-2.371h-0.214
					c-0.874,0-1.581,0.429-2.121,1.288s-0.812,2.075-0.812,3.65v0.391c0.049,1.764,0.878,2.646,2.49,2.646
					c1.112,0,1.668-0.675,1.668-2.025c0-0.136-0.004-0.275-0.012-0.417l-2.371,0.027l0.119-1.999l6.088,0.071v2.176l-1.215,0.018
					c0,3.091-1.652,4.636-4.956,4.636c-3.058,0-4.587-1.817-4.587-5.453c0-0.302,0.012-0.619,0.036-0.95
					c0.276-4.269,2.101-6.492,5.468-6.669c0.167-0.006,0.326-0.009,0.477-0.009c2.806,0,4.206,1.409,4.206,4.227
					C594.385,85.241,594.374,85.489,594.35,85.75z"/>
				<path fill="#FFFFFF" d="M602.188,93.823l-0.119-1.448c-0.333,0.77-1.231,1.158-2.692,1.164
					c-0.016,0.006-0.028,0.009-0.036,0.009c-1.446,0-2.403-0.485-2.871-1.457c-0.316-0.646-0.477-1.98-0.477-4.005
					c0-1.042,0.043-2.271,0.131-3.686h2.895c-0.157,1.989-0.236,3.52-0.236,4.591c0,0.539,0.02,0.959,0.06,1.261
					c0.119,0.924,0.521,1.385,1.204,1.385s1.112-0.24,1.287-0.719l-0.119-6.163l2.8-0.018c0,2.546,0.123,5.512,0.369,8.899
					L602.188,93.823z"/>
				<path fill="#FFFFFF" d="M609.242,84.702c2.756,0,4.134,1.365,4.134,4.094c0,0.332-0.02,0.687-0.06,1.066h-5.326
					c0,1.521,0.393,2.282,1.179,2.282h0.083c0.691-0.042,1.037-0.435,1.037-1.181c0-0.16-0.016-0.337-0.048-0.533l2.836-0.044
					c0,2.256-1.323,3.398-3.968,3.428c-0.032,0.006-0.062,0.009-0.083,0.009c-2.52,0-3.777-1.424-3.777-4.271v-0.266
					C605.33,86.229,606.66,84.702,609.242,84.702z M607.705,88.228h2.692v-0.213c0-1.078-0.409-1.617-1.229-1.617
					C608.289,86.398,607.8,87.008,607.705,88.228z"/>
				<path fill="#FFFFFF" d="M617.438,87.455l0.117,6.438l-2.918,0.018c0-2.723-0.124-5.781-0.37-9.174l2.192-0.177l0.119,1.447
					c0.333-0.71,1.112-1.116,2.335-1.217c0.183-0.012,0.356-0.018,0.524-0.018c0.961,0,1.69,0.234,2.19,0.702
					c0.58,0.557,0.874,1.442,0.882,2.655l-2.645,0.195c0.008-0.101,0.012-0.198,0.012-0.293c0-0.947-0.33-1.421-0.989-1.421h-0.048
					C618.082,86.641,617.613,86.922,617.438,87.455z"/>
				<path fill="#FFFFFF" d="M626.479,87.455l0.118,6.438l-2.919,0.018c0-2.723-0.123-5.781-0.369-9.174l2.192-0.177l0.119,1.447
					c0.333-0.71,1.112-1.116,2.335-1.217c0.183-0.012,0.357-0.018,0.524-0.018c0.961,0,1.689,0.234,2.19,0.702
					c0.58,0.557,0.874,1.442,0.881,2.655l-2.645,0.195c0.008-0.101,0.012-0.198,0.012-0.293c0-0.947-0.33-1.421-0.989-1.421h-0.047
					C627.124,86.641,626.655,86.922,626.479,87.455z"/>
				<path fill="#FFFFFF" d="M636.965,84.444c2.613,0.106,3.919,1.086,3.919,2.939v6.306l-2.774,0.036l-0.098-0.844
					c-0.569,0.485-1.33,0.728-2.273,0.728c-0.405,0-0.842-0.047-1.312-0.142c-1.405-0.26-2.106-1.071-2.106-2.433
					c0-0.166,0.012-0.343,0.036-0.533c0.157-1.403,1.495-2.104,4.015-2.104c0.484,0,1.017,0.026,1.596,0.08v-1.03
					c0-0.835-0.354-1.252-1.06-1.252h-0.048c-0.058-0.006-0.107-0.009-0.155-0.009c-0.771,0-1.156,0.468-1.156,1.403v0.133
					l-2.835-0.177c0-2.066,1.334-3.1,4.003-3.1L636.965,84.444L636.965,84.444z M637.965,91.46v-1.563
					c-0.341-0.054-0.649-0.08-0.929-0.08c-0.723,0-1.215,0.181-1.479,0.542c-0.157,0.219-0.236,0.423-0.236,0.613
					c0,0.237,0.127,0.447,0.381,0.631c0.199,0.142,0.457,0.213,0.772,0.213C636.881,91.815,637.377,91.697,637.965,91.46z"/>
			</g>
		</g>
		<g>
			<g>
				<path fill="#FFFFFF" d="M707.18,85.581l-2.645,0.009v-0.24c0-1.391-0.524-2.087-1.572-2.087c-1.12,0-1.68,1.285-1.68,3.854
					c0,2.895,0.588,4.343,1.764,4.343h0.012c1.177-0.006,1.765-0.716,1.765-2.131V88.45h2.955v0.666
					c0,2.948-1.625,4.491-4.873,4.627c-0.097,0.006-0.191,0.009-0.286,0.009c-3.06,0-4.586-2.19-4.586-6.572
					c0-4.286,1.571-6.43,4.718-6.43c2.962,0,4.443,1.433,4.443,4.298C707.191,85.22,707.188,85.397,707.18,85.581z"/>
				<path fill="#FFFFFF" d="M711.647,87.455l0.117,6.438l-2.919,0.018c0-2.723-0.123-5.781-0.369-9.174l2.192-0.177l0.119,1.447
					c0.333-0.71,1.112-1.116,2.335-1.217c0.183-0.012,0.356-0.018,0.524-0.018c0.961,0,1.689,0.234,2.19,0.702
					c0.58,0.557,0.874,1.442,0.882,2.655l-2.645,0.195c0.008-0.101,0.012-0.198,0.012-0.293c0-0.947-0.33-1.421-0.989-1.421h-0.047
					C712.291,86.641,711.822,86.922,711.647,87.455z"/>
				<path fill="#FFFFFF" d="M720.856,82.659c0,0.361-0.173,0.669-0.514,0.924s-0.754,0.382-1.238,0.382
					c-0.478,0-0.887-0.127-1.229-0.382c-0.341-0.254-0.512-0.562-0.512-0.924c0-0.355,0.171-0.66,0.512-0.915
					c0.342-0.254,0.751-0.382,1.229-0.382c0.483,0,0.896,0.127,1.238,0.382C720.687,81.999,720.856,82.304,720.856,82.659z
					 M717.664,93.867c-0.056-3.464-0.083-6.457-0.083-8.979l3.002-0.133c-0.095,2.416-0.143,4.816-0.143,7.202
					c0,0.64,0.004,1.276,0.012,1.91H717.664z"/>
				<path fill="#FFFFFF" d="M723.43,84.516l0.048,1.421c0.431-0.681,0.927-1.104,1.489-1.27c0.333-0.095,0.671-0.142,1.013-0.142
					c0.256,0,0.51,0.023,0.764,0.071c0.62,0.119,1.061,0.592,1.323,1.421c0.204-0.645,0.562-1.076,1.07-1.292
					c0.509-0.216,1.072-0.327,1.691-0.333h0.048c0.604,0,1.183,0.11,1.739,0.329c0.562,0.225,0.995,0.647,1.292,1.266
					c0.297,0.619,0.455,1.467,0.471,2.544v5.16l-2.573,0.044c0.104-1.948,0.155-3.606,0.155-4.974c0-1.367-0.35-2.104-1.048-2.211
					c-0.104-0.012-0.203-0.018-0.298-0.018c-0.558,0-0.985,0.267-1.287,0.799c-0.048,0.616-0.071,1.335-0.071,2.158
					c0,1.119,0.043,2.424,0.131,3.917l-2.979,0.018c0.11-2.291,0.167-3.961,0.167-5.009v-0.106
					c-0.008-1.036-0.282-1.581-0.822-1.634h-0.155c-0.483,0-0.952,0.208-1.404,0.622l0.021,6.501l-2.812,0.08v-1.457
					c0-2.582-0.054-5.16-0.155-7.735L723.43,84.516z"/>
				<path fill="#FFFFFF" d="M738.965,84.702c2.756,0,4.134,1.365,4.134,4.094c0,0.332-0.02,0.687-0.06,1.066h-5.325
					c0,1.521,0.395,2.282,1.179,2.282h0.083c0.691-0.042,1.037-0.435,1.037-1.181c0-0.16-0.016-0.337-0.048-0.533l2.835-0.044
					c0,2.256-1.322,3.398-3.967,3.428c-0.032,0.006-0.06,0.009-0.083,0.009c-2.518,0-3.777-1.424-3.777-4.271v-0.266
					C735.054,86.229,736.384,84.702,738.965,84.702z M737.428,88.228h2.693v-0.213c0-1.078-0.409-1.617-1.229-1.617
					C738.012,86.398,737.523,87.008,737.428,88.228z"/>
				<path fill="#FFFFFF" d="M746.185,84.471l0.119,1.447c0.333-0.77,1.211-1.16,2.633-1.172h0.049c1.396,0,2.351,0.408,2.857,1.225
					c0.352,0.557,0.524,1.859,0.524,3.908c0,1.007-0.044,2.197-0.131,3.57h-2.885c0.104-1.83,0.155-3.248,0.155-4.254
					c0-0.503-0.012-0.906-0.036-1.208c-0.08-0.888-0.461-1.332-1.144-1.332c-0.684,0-1.112,0.237-1.286,0.71l0.119,6.438l-2.8,0.018
					c0-2.724-0.124-5.782-0.37-9.174L746.185,84.471z"/>
				<path fill="#FFFFFF" d="M766.808,81.256c-0.048,2.001-0.07,4.1-0.07,6.296c0,2.001,0.02,4.085,0.06,6.252l-2.824,0.009
					l-0.095-1.358c-0.588,0.657-1.37,0.986-2.347,0.986c-2.438,0-3.658-1.392-3.658-4.174c0-0.059,0.004-0.118,0.012-0.178
					c0.048-2.789,1.255-4.183,3.622-4.183c0.096,0,0.194,0.003,0.298,0.009c0.812,0.036,1.466,0.364,1.968,0.986
					c0-1.314-0.045-2.863-0.133-4.645H766.808z M763.829,90.634l-0.062-3.073c-0.461-0.468-0.934-0.702-1.418-0.702
					c-0.196,0-0.396,0.039-0.596,0.116c-0.627,0.243-0.94,0.923-0.94,2.042c0,0.13,0.005,0.264,0.013,0.399
					c0.08,1.356,0.482,2.072,1.215,2.149c0.071,0.006,0.143,0.009,0.214,0.009C762.892,91.576,763.416,91.262,763.829,90.634z"/>
				<path fill="#FFFFFF" d="M771.621,84.702c2.756,0,4.134,1.365,4.134,4.094c0,0.332-0.02,0.687-0.06,1.066h-5.325
					c0,1.521,0.393,2.282,1.179,2.282h0.083c0.691-0.042,1.037-0.435,1.037-1.181c0-0.16-0.016-0.337-0.048-0.533l2.835-0.044
					c0,2.256-1.322,3.398-3.967,3.428c-0.032,0.006-0.062,0.009-0.083,0.009c-2.52,0-3.777-1.424-3.777-4.271v-0.266
					C767.709,86.229,769.039,84.702,771.621,84.702z M770.083,88.228h2.693v-0.213c0-1.078-0.409-1.617-1.229-1.617
					C770.667,86.398,770.179,87.008,770.083,88.228z"/>
				<path fill="#FFFFFF" d="M780.401,93.467c1.491-5.056,2.698-9.343,3.622-12.859l4.468-0.053
					c1.096,3.659,2.351,7.827,3.765,12.504l-3.05,0.462l-0.965-3.366h-3.706l-1,3.632L780.401,93.467z M788.146,87.659
					c-0.412-1.279-1.089-2.809-2.024-4.591c-0.724,1.498-1.334,3.049-1.834,4.653L788.146,87.659z"/>
				<path fill="#FFFFFF" d="M792.862,94.853l2.8-0.115c-0.008,0.071-0.012,0.142-0.012,0.213c0,0.646,0.345,0.998,1.034,1.057
					c0.111,0.012,0.217,0.018,0.312,0.018c0.595,0,1.02-0.178,1.272-0.533c0.224-0.32,0.333-0.918,0.333-1.794
					c0-0.237-0.008-0.498-0.021-0.782c-0.445,0.664-1.271,1.024-2.479,1.083c-2.357-0.018-3.539-1.513-3.539-4.485v-0.062
					c0.018-3.007,1.42-4.521,4.206-4.538c0.764,0,1.445,0.332,2.051,0.995l0.034-1.412l2.609,0.089c0,4.885-0.02,7.91-0.06,9.076
					c-0.04,1.167-0.276,2.102-0.709,2.807c-0.435,0.704-1.169,1.154-2.21,1.35c-0.55,0.106-1.094,0.16-1.634,0.16
					c-0.482,0-0.965-0.042-1.439-0.125c-1.019-0.178-1.716-0.512-2.099-1.003c-0.316-0.403-0.477-0.93-0.477-1.581
					C792.838,95.14,792.846,95,792.862,94.853z M798.557,91.336V87.73c-0.389-0.586-0.881-0.879-1.477-0.879
					c-0.119,0-0.243,0.012-0.37,0.036c-0.771,0.136-1.195,0.927-1.275,2.371c-0.008,0.154-0.012,0.302-0.012,0.444
					c0,1.178,0.294,1.901,0.882,2.167c0.198,0.095,0.409,0.142,0.631,0.142C797.429,92.011,797.969,91.786,798.557,91.336z"/>
				<path fill="#FFFFFF" d="M805.551,87.455l0.119,6.438l-2.918,0.018c0-2.723-0.124-5.781-0.37-9.174l2.192-0.177l0.119,1.447
					c0.333-0.71,1.11-1.116,2.335-1.217c0.183-0.012,0.355-0.018,0.522-0.018c0.961,0,1.692,0.234,2.192,0.702
					c0.58,0.557,0.874,1.442,0.882,2.655l-2.645,0.195c0.008-0.101,0.012-0.198,0.012-0.293c0-0.947-0.33-1.421-0.989-1.421h-0.048
					C806.194,86.641,805.725,86.922,805.551,87.455z"/>
				<path fill="#FFFFFF" d="M815.296,84.702c2.756,0,4.134,1.365,4.134,4.094c0,0.332-0.02,0.687-0.06,1.066h-5.325
					c0,1.521,0.394,2.282,1.179,2.282h0.083c0.691-0.042,1.037-0.435,1.037-1.181c0-0.16-0.016-0.337-0.048-0.533l2.835-0.044
					c0,2.256-1.322,3.398-3.967,3.428c-0.032,0.006-0.06,0.009-0.083,0.009c-2.518,0-3.776-1.424-3.776-4.271v-0.266
					C811.384,86.229,812.714,84.702,815.296,84.702z M813.759,88.228h2.692v-0.213c0-1.078-0.409-1.617-1.229-1.617
					C814.343,86.398,813.854,87.008,813.759,88.228z"/>
				<path fill="#FFFFFF" d="M820.181,90.67l2.729-0.098v0.115c0,0.912,0.377,1.374,1.132,1.386h0.047
					c0.731,0,1.098-0.264,1.098-0.791V91.22c-0.032-0.581-0.754-1.048-2.163-1.403c-1.41-0.355-2.259-0.953-2.544-1.794
					c-0.104-0.296-0.154-0.58-0.154-0.853c0-0.498,0.171-0.959,0.513-1.385c0.524-0.651,1.318-1.024,2.382-1.119
					c0.286-0.023,0.564-0.036,0.834-0.036c0.707,0,1.331,0.092,1.871,0.275c0.738,0.254,1.251,0.619,1.537,1.092
					c0.191,0.326,0.286,0.687,0.286,1.083c0,0.189-0.021,0.385-0.062,0.586l-2.549,0.044c0.023-0.148,0.036-0.284,0.036-0.408
					c0-0.592-0.254-0.909-0.763-0.95c-0.057-0.006-0.111-0.009-0.167-0.009c-0.524,0-0.878,0.199-1.062,0.595
					c-0.062,0.136-0.095,0.261-0.095,0.373c0,0.278,0.174,0.518,0.524,0.719c0.493,0.284,1.221,0.573,2.187,0.866
					c0.965,0.293,1.614,0.792,1.948,1.497c0.119,0.267,0.179,0.533,0.179,0.799c0,0.45-0.175,0.903-0.522,1.359
					c-0.558,0.728-1.417,1.151-2.585,1.27c-0.256,0.029-0.506,0.044-0.75,0.044c-0.874,0-1.686-0.169-2.433-0.506
					C820.681,92.929,820.196,92.032,820.181,90.67z"/>
				<path fill="#FFFFFF" d="M832.118,82.659c0,0.361-0.171,0.669-0.512,0.924c-0.344,0.254-0.757,0.382-1.239,0.382
					c-0.479,0-0.886-0.127-1.229-0.382c-0.342-0.254-0.513-0.562-0.513-0.924c0-0.355,0.171-0.66,0.513-0.915
					c0.342-0.254,0.75-0.382,1.229-0.382c0.482,0,0.896,0.127,1.239,0.382C831.947,81.999,832.118,82.304,832.118,82.659z
					 M828.925,93.867c-0.056-3.464-0.083-6.457-0.083-8.979l3.002-0.133c-0.095,2.416-0.143,4.816-0.143,7.202
					c0,0.64,0.004,1.276,0.012,1.91H828.925z"/>
				<path fill="#FFFFFF" d="M836.967,84.702c2.7,0,4.051,1.397,4.051,4.191c0,0.113-0.004,0.225-0.012,0.337
					c-0.111,3.026-1.549,4.553-4.312,4.583c-0.032,0.006-0.063,0.009-0.097,0.009c-2.629,0-3.941-1.43-3.941-4.29v-0.249
					C832.733,86.229,834.171,84.702,836.967,84.702z M836.573,86.727c-0.5,0.13-0.842,0.613-1.024,1.448
					c-0.109,0.498-0.167,0.998-0.167,1.501c0,0.337,0.024,0.678,0.072,1.021c0.127,0.853,0.536,1.294,1.227,1.323h0.083
					c0.645,0,1.084-0.316,1.322-0.95c0.199-0.527,0.298-1.151,0.298-1.874c0-0.178-0.004-0.358-0.012-0.542
					c-0.064-0.953-0.254-1.548-0.572-1.785c-0.199-0.142-0.437-0.213-0.715-0.213C836.927,86.656,836.756,86.68,836.573,86.727z
					 M835.418,82.97c0.929-0.823,1.691-1.607,2.287-2.354l1.954,1.155c-0.842,0.616-1.779,1.371-2.812,2.264L835.418,82.97z"/>
				<path fill="#FFFFFF" d="M843.865,84.471l0.119,1.447c0.333-0.77,1.211-1.16,2.633-1.172h0.048c1.398,0,2.351,0.408,2.859,1.225
					c0.35,0.557,0.522,1.859,0.522,3.908c0,1.007-0.044,2.197-0.131,3.57h-2.883c0.103-1.83,0.155-3.248,0.155-4.254
					c0-0.503-0.014-0.906-0.036-1.208c-0.08-0.888-0.46-1.332-1.146-1.332c-0.684,0-1.111,0.237-1.287,0.71l0.119,6.438l-2.8,0.018
					c0-2.724-0.123-5.782-0.369-9.174L843.865,84.471z"/>
			</g>
		</g>
	</g>
</g>
</svg>
