<?xml version="1.0" encoding="utf-8"?>
<!-- Generator: Adobe Illustrator 16.0.0, SVG Export Plug-In . SVG Version: 6.00 Build 0)  -->
<!DOCTYPE svg PUBLIC "-//W3C//DTD SVG 1.1//EN" "http://www.w3.org/Graphics/SVG/1.1/DTD/svg11.dtd">
<svg version="1.1" id="Capa_1" xmlns="http://www.w3.org/2000/svg" xmlns:xlink="http://www.w3.org/1999/xlink" x="0px" y="0px"
	 width="457.234px" height="270.836px" viewBox="0 0 457.234 270.836" enable-background="new 0 0 457.234 270.836"
	 xml:space="preserve">
<g>
	<rect x="116.56" fill="#EA6020" width="340.675" height="270.836"/>
	<rect y="183.522" fill="#F39200" width="112.467" height="87.314"/>
	<g>
		<path fill="#FFFFFF" d="M166.415,139.813h-1.039v-6.621c-0.25,0.239-0.579,0.477-0.984,0.716
			c-0.406,0.239-0.771,0.417-1.094,0.537v-1.004c0.581-0.273,1.089-0.604,1.524-0.993c0.435-0.389,0.743-0.766,0.923-1.131h0.67
			V139.813L166.415,139.813z"/>
		<path fill="#FFFFFF" d="M169.659,139.813v-1.184h1.183v1.184H169.659z"/>
		<path fill="#FFFFFF" d="M167.962,153v1h-5.594c-0.008-0.25,0.033-0.491,0.121-0.723c0.143-0.381,0.371-0.756,0.685-1.125
			c0.313-0.369,0.767-0.797,1.359-1.281c0.919-0.754,1.541-1.353,1.864-1.793c0.323-0.44,0.485-0.856,0.485-1.25
			c0-0.412-0.147-0.759-0.441-1.041c-0.294-0.283-0.678-0.425-1.152-0.425c-0.5,0-0.9,0.15-1.201,0.45
			c-0.3,0.3-0.452,0.716-0.456,1.247l-1.068-0.11c0.073-0.796,0.349-1.402,0.826-1.82s1.118-0.627,1.922-0.627
			c0.812,0,1.455,0.226,1.928,0.676c0.474,0.449,0.71,1.008,0.71,1.674c0,0.339-0.069,0.672-0.208,0.999
			c-0.139,0.327-0.369,0.671-0.69,1.032c-0.321,0.363-0.855,0.858-1.602,1.49c-0.624,0.522-1.023,0.877-1.201,1.064
			c-0.177,0.188-0.323,0.375-0.438,0.562H167.962z"/>
		<path fill="#FFFFFF" d="M169.659,154v-1.185h1.183V154H169.659z"/>
		<path fill="#FFFFFF" d="M162.507,165.954l1.039-0.14c0.119,0.589,0.322,1.013,0.609,1.272c0.287,0.261,0.636,0.391,1.048,0.391
			c0.489,0,0.901-0.169,1.238-0.508c0.336-0.34,0.505-0.758,0.505-1.26c0-0.477-0.156-0.871-0.467-1.18
			c-0.312-0.31-0.708-0.465-1.189-0.465c-0.196,0-0.44,0.039-0.733,0.115l0.115-0.912c0.069,0.007,0.125,0.011,0.167,0.011
			c0.442,0,0.841-0.114,1.195-0.346s0.531-0.587,0.531-1.068c0-0.381-0.129-0.696-0.387-0.946c-0.258-0.25-0.591-0.375-0.999-0.375
			c-0.404,0-0.741,0.127-1.01,0.381c-0.27,0.254-0.443,0.635-0.52,1.143l-1.039-0.186c0.127-0.695,0.416-1.235,0.866-1.618
			c0.45-0.384,1.01-0.574,1.68-0.574c0.462,0,0.887,0.099,1.276,0.297s0.686,0.468,0.892,0.812c0.206,0.342,0.309,0.705,0.309,1.091
			c0,0.366-0.098,0.698-0.294,0.999c-0.196,0.3-0.487,0.539-0.872,0.716c0.5,0.116,0.889,0.354,1.166,0.719
			c0.277,0.364,0.416,0.819,0.416,1.365c0,0.739-0.269,1.365-0.808,1.879c-0.539,0.515-1.22,0.771-2.043,0.771
			c-0.743,0-1.359-0.221-1.85-0.664C162.857,167.23,162.576,166.657,162.507,165.954z"/>
		<path fill="#FFFFFF" d="M169.659,168.187v-1.185h1.183v1.185H169.659z"/>
		<path fill="#FFFFFF" d="M165.832,196.56v-2.026h-3.671v-0.951l3.862-5.484h0.849v5.484h1.143v0.951h-1.143v2.026H165.832z
			 M165.832,193.583v-3.816l-2.65,3.816H165.832z"/>
		<path fill="#FFFFFF" d="M169.659,196.56v-1.185h1.183v1.185H169.659z"/>
		<path fill="#FFFFFF" d="M162.501,208.53l1.091-0.092c0.081,0.531,0.269,0.932,0.563,1.198c0.294,0.268,0.649,0.401,1.065,0.401
			c0.5,0,0.924-0.188,1.27-0.566c0.346-0.377,0.52-0.877,0.52-1.5c0-0.594-0.167-1.061-0.5-1.403
			c-0.333-0.343-0.769-0.514-1.307-0.514c-0.335,0-0.637,0.075-0.906,0.228c-0.27,0.152-0.481,0.35-0.635,0.592l-0.976-0.127
			l0.82-4.348h4.208v0.993h-3.377l-0.456,2.274c0.508-0.354,1.041-0.531,1.599-0.531c0.739,0,1.362,0.256,1.871,0.768
			c0.508,0.512,0.762,1.17,0.762,1.975c0,0.766-0.223,1.428-0.669,1.985c-0.543,0.685-1.284,1.028-2.223,1.028
			c-0.77,0-1.397-0.217-1.885-0.646C162.848,209.813,162.57,209.243,162.501,208.53z"/>
		<path fill="#FFFFFF" d="M169.659,210.747v-1.184h1.183v1.184H169.659z"/>
		<path fill="#FFFFFF" d="M167.893,218.543l-1.033,0.08c-0.092-0.408-0.223-0.703-0.393-0.889c-0.281-0.296-0.627-0.445-1.039-0.445
			c-0.331,0-0.622,0.094-0.872,0.277c-0.327,0.239-0.585,0.587-0.773,1.045c-0.189,0.458-0.287,1.11-0.294,1.957
			c0.25-0.381,0.556-0.664,0.918-0.848c0.361-0.186,0.74-0.277,1.137-0.277c0.693,0,1.283,0.255,1.77,0.766
			c0.487,0.51,0.73,1.168,0.73,1.977c0,0.531-0.115,1.023-0.344,1.48c-0.229,0.455-0.543,0.805-0.944,1.047
			c-0.4,0.242-0.854,0.365-1.362,0.365c-0.866,0-1.572-0.32-2.119-0.957s-0.819-1.687-0.819-3.148c0-1.637,0.302-2.825,0.906-3.567
			c0.527-0.646,1.237-0.97,2.13-0.97c0.666,0,1.211,0.188,1.637,0.561C167.553,217.37,167.808,217.885,167.893,218.543z
			 M163.65,222.191c0,0.358,0.076,0.701,0.228,1.028c0.152,0.326,0.364,0.576,0.638,0.748s0.56,0.257,0.86,0.257
			c0.438,0,0.815-0.177,1.131-0.531c0.315-0.354,0.473-0.835,0.473-1.442c0-0.586-0.156-1.047-0.468-1.383
			c-0.312-0.337-0.704-0.506-1.177-0.506c-0.47,0-0.868,0.168-1.195,0.506C163.813,221.204,163.65,221.645,163.65,222.191z"/>
		<path fill="#FFFFFF" d="M169.659,224.933v-1.185h1.183v1.185H169.659z"/>
	</g>
	<g>
		<path fill="#FFFFFF" d="M19.341,233.709c0.048-1.693,0.072-3.398,0.072-5.115c0-2.629-0.056-5.284-0.167-7.967
			c1.231-0.094,2.335-0.142,3.312-0.142c2.716,0,4.448,0.37,5.194,1.11c0.699,0.691,1.048,1.456,1.048,2.291
			c0,0.379-0.067,0.77-0.203,1.172c-0.46,1.303-1.43,2.128-2.907,2.479c1.032,0.106,1.814,0.521,2.347,1.243
			c0.508,0.699,0.763,2.457,0.763,5.275v0.382l-3.598,0.036c0.04-0.746,0.06-1.415,0.06-2.007c0-1.795-0.195-2.893-0.584-3.295
			c-0.445-0.45-0.973-0.676-1.584-0.676c-0.119,0-0.243,0.01-0.37,0.026c0.048,1.806,0.151,3.517,0.31,5.133L19.341,233.709z
			 M22.391,222.697l0.083,3.802c1.478-0.054,2.415-0.427,2.812-1.119c0.215-0.367,0.322-0.726,0.322-1.075
			c0-0.302-0.08-0.599-0.238-0.888c-0.286-0.504-0.997-0.756-2.132-0.756C22.975,222.661,22.693,222.672,22.391,222.697z"/>
		<path fill="#FFFFFF" d="M33.686,224.713c2.756,0,4.134,1.365,4.134,4.094c0,0.332-0.02,0.688-0.06,1.066h-5.325
			c0,1.521,0.393,2.281,1.179,2.281h0.083c0.691-0.042,1.037-0.435,1.037-1.181c0-0.16-0.016-0.337-0.048-0.533l2.835-0.044
			c0,2.256-1.322,3.398-3.967,3.428c-0.032,0.006-0.06,0.01-0.083,0.01c-2.518,0-3.776-1.424-3.776-4.272v-0.267
			C29.773,226.24,31.104,224.713,33.686,224.713z M32.148,228.238h2.692v-0.213c0-1.078-0.409-1.616-1.227-1.616
			C32.732,226.409,32.244,227.019,32.148,228.238z"/>
		<path fill="#FFFFFF" d="M38.784,237.377c0.048-1.996,0.072-4.119,0.072-6.369c0-2.047-0.02-4.197-0.06-6.447l2.823-0.009
			l0.095,1.368c0.588-0.664,1.37-0.996,2.347-0.996c2.438,0,3.658,1.437,3.658,4.308v0.179c-0.056,2.877-1.271,4.315-3.646,4.315
			c-0.096,0-0.191-0.003-0.286-0.009c-0.81-0.029-1.465-0.358-1.966-0.986c0,1.314,0.043,2.863,0.131,4.645h-3.168V237.377z
			 M41.763,227.741l0.06,3.34c0.46,0.467,0.925,0.701,1.394,0.701c0.19,0,0.381-0.041,0.572-0.123c0.58-0.238,0.87-0.945,0.87-2.123
			c0-0.143-0.004-0.291-0.012-0.445c-0.08-1.443-0.465-2.204-1.156-2.281c-0.071-0.006-0.139-0.01-0.203-0.01
			C42.684,226.799,42.176,227.114,41.763,227.741z"/>
		<path fill="#FFFFFF" d="M51.83,227.465l0.119,6.438l-2.918,0.019c0-2.723-0.124-5.781-0.37-9.174l2.192-0.178l0.119,1.447
			c0.333-0.71,1.112-1.116,2.335-1.217c0.183-0.012,0.357-0.018,0.524-0.018c0.961,0,1.692,0.233,2.192,0.701
			c0.58,0.557,0.874,1.442,0.882,2.655l-2.645,0.194c0.008-0.101,0.012-0.197,0.012-0.293c0-0.946-0.33-1.42-0.989-1.42h-0.048
			C52.473,226.652,52.004,226.933,51.83,227.465z"/>
		<path fill="#FFFFFF" d="M61.575,224.713c2.756,0,4.134,1.365,4.134,4.094c0,0.332-0.02,0.688-0.06,1.066h-5.325
			c0,1.521,0.393,2.281,1.18,2.281h0.083c0.691-0.042,1.037-0.435,1.037-1.181c0-0.16-0.016-0.337-0.047-0.533l2.835-0.044
			c0,2.256-1.322,3.398-3.967,3.428c-0.032,0.006-0.06,0.01-0.083,0.01c-2.518,0-3.777-1.424-3.777-4.272v-0.267
			C57.664,226.24,58.994,224.713,61.575,224.713z M60.038,228.238h2.693v-0.213c0-1.078-0.409-1.616-1.227-1.616
			C60.622,226.409,60.134,227.019,60.038,228.238z"/>
		<path fill="#FFFFFF" d="M66.46,230.681l2.728-0.099v0.115c0,0.912,0.377,1.374,1.132,1.387h0.047c0.731,0,1.096-0.265,1.096-0.791
			v-0.062c-0.032-0.581-0.752-1.048-2.163-1.402c-1.41-0.355-2.257-0.953-2.543-1.795c-0.104-0.296-0.155-0.58-0.155-0.853
			c0-0.498,0.171-0.959,0.513-1.386c0.524-0.65,1.318-1.023,2.382-1.118c0.286-0.023,0.564-0.036,0.834-0.036
			c0.707,0,1.331,0.092,1.871,0.275c0.738,0.254,1.251,0.619,1.537,1.092c0.191,0.326,0.286,0.687,0.286,1.082
			c0,0.189-0.02,0.386-0.06,0.587l-2.549,0.044c0.023-0.148,0.036-0.284,0.036-0.408c0-0.592-0.254-0.909-0.763-0.95
			c-0.056-0.006-0.111-0.009-0.167-0.009c-0.524,0-0.878,0.199-1.061,0.595c-0.063,0.136-0.095,0.261-0.095,0.373
			c0,0.278,0.174,0.519,0.524,0.72c0.493,0.283,1.221,0.572,2.187,0.865c0.965,0.293,1.614,0.792,1.948,1.497
			c0.119,0.267,0.179,0.533,0.179,0.8c0,0.449-0.175,0.902-0.524,1.358c-0.556,0.728-1.417,1.151-2.585,1.271
			c-0.254,0.028-0.504,0.043-0.75,0.043c-0.874,0-1.684-0.168-2.431-0.506C66.96,232.939,66.476,232.042,66.46,230.681z"/>
		<path fill="#FFFFFF" d="M78.397,222.67c0,0.36-0.171,0.668-0.513,0.924c-0.341,0.254-0.754,0.382-1.239,0.382
			c-0.477,0-0.886-0.127-1.227-0.382c-0.342-0.254-0.513-0.562-0.513-0.924c0-0.355,0.171-0.66,0.513-0.916
			c0.341-0.254,0.75-0.381,1.227-0.381c0.484,0,0.897,0.127,1.239,0.381C78.227,222.01,78.397,222.315,78.397,222.67z
			 M75.204,233.877c-0.056-3.463-0.083-6.457-0.083-8.979l3.002-0.133c-0.095,2.416-0.143,4.816-0.143,7.202
			c0,0.64,0.004,1.276,0.012,1.909H75.204z"/>
		<path fill="#FFFFFF" d="M83.246,224.713c2.7,0,4.051,1.396,4.051,4.19c0,0.113-0.004,0.226-0.012,0.337
			c-0.111,3.026-1.549,4.553-4.312,4.584c-0.032,0.006-0.064,0.008-0.095,0.008c-2.629,0-3.943-1.43-3.943-4.289v-0.25
			C79.013,226.24,80.45,224.713,83.246,224.713z M82.853,226.737c-0.5,0.131-0.842,0.613-1.025,1.448
			c-0.111,0.498-0.167,0.998-0.167,1.501c0,0.337,0.024,0.678,0.071,1.021c0.127,0.853,0.536,1.293,1.227,1.322h0.083
			c0.644,0,1.084-0.316,1.323-0.949c0.198-0.527,0.298-1.151,0.298-1.875c0-0.178-0.004-0.357-0.012-0.541
			c-0.063-0.953-0.254-1.549-0.572-1.785c-0.199-0.143-0.437-0.213-0.715-0.213C83.206,226.667,83.036,226.69,82.853,226.737z
			 M81.697,222.981c0.929-0.822,1.692-1.607,2.288-2.354l1.954,1.154c-0.842,0.616-1.779,1.371-2.812,2.264L81.697,222.981z"/>
		<path fill="#FFFFFF" d="M90.144,224.482l0.119,1.447c0.333-0.771,1.211-1.16,2.633-1.173h0.048c1.398,0,2.351,0.408,2.859,1.226
			c0.35,0.558,0.524,1.858,0.524,3.908c0,1.007-0.044,2.196-0.131,3.569h-2.883c0.103-1.83,0.155-3.248,0.155-4.254
			c0-0.502-0.012-0.906-0.036-1.207c-0.08-0.889-0.46-1.332-1.144-1.332s-1.112,0.236-1.287,0.709l0.119,6.438l-2.8,0.019
			c0-2.725-0.123-5.782-0.369-9.174L90.144,224.482z"/>
	</g>
</g>
</svg>
