<?xml version="1.0" encoding="utf-8"?>
<!-- Generator: Adobe Illustrator 16.0.0, SVG Export Plug-In . SVG Version: 6.00 Build 0)  -->
<!DOCTYPE svg PUBLIC "-//W3C//DTD SVG 1.1//EN" "http://www.w3.org/Graphics/SVG/1.1/DTD/svg11.dtd">
<svg version="1.1" id="Capa_1" xmlns="http://www.w3.org/2000/svg" xmlns:xlink="http://www.w3.org/1999/xlink" x="0px" y="0px"
	 width="171.829px" height="47.934px" viewBox="0 0 171.829 47.934" enable-background="new 0 0 171.829 47.934"
	 xml:space="preserve">
<rect x="0.057" y="0.207" transform="matrix(1 -0.0024 0.0024 1 -0.0577 0.2077)" fill="#ADC710" width="171.716" height="47.52"/>
<g>
	<path fill="#331842" d="M30.669,9.016c0-0.229,0.08-0.424,0.241-0.586c0.16-0.161,0.354-0.242,0.582-0.242
		c0.228,0,0.421,0.081,0.582,0.242c0.16,0.162,0.241,0.357,0.241,0.586v10.016h5.759c0.228,0,0.422,0.081,0.582,0.242
		c0.16,0.162,0.241,0.357,0.241,0.586c0,0.229-0.081,0.425-0.241,0.586c-0.16,0.162-0.354,0.242-0.582,0.242h-6.582
		c-0.119,0-0.228-0.021-0.326-0.062c-0.098-0.042-0.185-0.1-0.26-0.176c-0.075-0.075-0.133-0.163-0.175-0.262
		c-0.042-0.099-0.062-0.208-0.062-0.328V9.016z"/>
	<path fill="#331842" d="M50.271,19.875v-0.156c-0.388,0.312-0.81,0.552-1.265,0.719c-0.456,0.167-0.942,0.25-1.459,0.25
		c-1.201,0-2.225-0.427-3.074-1.281c-0.849-0.854-1.273-1.885-1.273-3.094c0-1.208,0.424-2.239,1.273-3.094
		c0.849-0.854,1.873-1.281,3.074-1.281c1.19,0,2.214,0.427,3.073,1.281c0.849,0.854,1.273,1.886,1.273,3.094v3.562
		c0,0.224-0.079,0.416-0.237,0.574c-0.158,0.159-0.348,0.238-0.57,0.238c-0.228,0-0.42-0.079-0.578-0.238
		C50.35,20.291,50.271,20.099,50.271,19.875z M47.547,13.57c-0.383,0-0.74,0.073-1.071,0.219c-0.331,0.146-0.618,0.343-0.861,0.59
		c-0.243,0.248-0.436,0.538-0.578,0.871c-0.143,0.333-0.214,0.688-0.214,1.062s0.071,0.729,0.214,1.062
		c0.142,0.333,0.335,0.624,0.578,0.871c0.243,0.248,0.53,0.444,0.861,0.59c0.331,0.146,0.688,0.219,1.071,0.219
		c0.377,0,0.732-0.073,1.063-0.219c0.331-0.146,0.62-0.344,0.866-0.594c0.246-0.25,0.439-0.54,0.582-0.871
		c0.142-0.331,0.213-0.684,0.213-1.059s-0.071-0.728-0.213-1.059c-0.143-0.331-0.336-0.621-0.582-0.871
		c-0.246-0.25-0.535-0.448-0.866-0.594C48.279,13.644,47.924,13.57,47.547,13.57z"/>
	<path fill="#331842" d="M65.733,16.523c-0.486-0.188-0.828-0.38-1.024-0.578h0.008c-0.393-0.401-0.59-0.872-0.59-1.414
		c0-0.396,0.105-0.754,0.314-1.074s0.482-0.592,0.819-0.816c0.336-0.224,0.715-0.397,1.137-0.52
		c0.422-0.122,0.845-0.184,1.269-0.184c1.293,0,2.403,0.523,3.33,1.57c0.109,0.136,0.163,0.3,0.163,0.492
		c0,0.234-0.076,0.429-0.229,0.582c-0.153,0.154-0.345,0.23-0.578,0.23c-0.166,0-0.307-0.047-0.423-0.141
		c-0.116-0.094-0.229-0.195-0.337-0.305c-0.528-0.531-1.169-0.797-1.925-0.797c-0.745,0-1.34,0.229-1.785,0.688
		c-0.083,0.083-0.124,0.198-0.124,0.344c0,0.146,0.067,0.245,0.202,0.297l3.632,1.203c0.507,0.198,0.849,0.391,1.024,0.578h-0.007
		c0.393,0.401,0.59,0.873,0.59,1.414c0,0.401-0.105,0.761-0.314,1.078c-0.21,0.318-0.482,0.59-0.819,0.816s-0.714,0.4-1.133,0.52
		c-0.419,0.12-0.841,0.18-1.265,0.18c-1.304,0-2.414-0.518-3.33-1.555c-0.114-0.151-0.171-0.32-0.171-0.508
		c0-0.234,0.077-0.428,0.229-0.582c0.153-0.153,0.346-0.23,0.579-0.23c0.17,0,0.315,0.051,0.435,0.152
		c0.119,0.102,0.228,0.199,0.326,0.293c0.528,0.531,1.172,0.797,1.933,0.797c0.74,0,1.335-0.234,1.785-0.703
		c0.078-0.088,0.117-0.195,0.117-0.32c0-0.146-0.07-0.247-0.21-0.305L65.733,16.523z"/>
	<path fill="#331842" d="M84.249,16.312c0,1.219-0.424,2.25-1.273,3.094c-0.859,0.854-1.884,1.281-3.073,1.281
		c-1.201,0-2.225-0.427-3.074-1.281c-0.849-0.854-1.273-1.885-1.273-3.094c0-1.208,0.424-2.239,1.273-3.094
		c0.849-0.854,1.873-1.281,3.074-1.281c1.189,0,2.214,0.427,3.073,1.281c0.424,0.427,0.741,0.898,0.951,1.414
		S84.243,15.708,84.249,16.312z M79.902,13.57c-0.383,0-0.74,0.073-1.071,0.219c-0.331,0.146-0.618,0.343-0.861,0.59
		c-0.244,0.248-0.436,0.538-0.579,0.871c-0.142,0.333-0.213,0.688-0.213,1.062s0.071,0.729,0.213,1.062
		c0.143,0.333,0.335,0.624,0.579,0.871c0.243,0.248,0.53,0.444,0.861,0.59c0.331,0.146,0.688,0.219,1.071,0.219
		c0.377,0,0.732-0.073,1.063-0.219c0.331-0.146,0.62-0.344,0.866-0.594c0.245-0.25,0.439-0.54,0.582-0.871
		c0.142-0.331,0.213-0.684,0.213-1.059s-0.071-0.728-0.213-1.059c-0.143-0.331-0.337-0.621-0.582-0.871
		c-0.246-0.25-0.535-0.448-0.866-0.594C80.634,13.644,80.28,13.57,79.902,13.57z"/>
	<path fill="#331842" d="M88.592,19.875V9.008c0-0.229,0.076-0.423,0.229-0.582c0.153-0.159,0.346-0.238,0.579-0.238
		s0.425,0.08,0.578,0.238c0.153,0.159,0.229,0.353,0.229,0.582v10.047h0.373c0.222,0,0.413,0.08,0.57,0.238
		c0.158,0.159,0.237,0.353,0.237,0.582c0,0.224-0.079,0.416-0.237,0.574c-0.158,0.159-0.348,0.238-0.57,0.238h-1.188
		c-0.223,0-0.412-0.079-0.567-0.238C88.669,20.291,88.592,20.099,88.592,19.875z"/>
	<path fill="#331842" d="M102.854,20.688c-0.233,0-0.424-0.078-0.575-0.234c-0.15-0.156-0.228-0.346-0.232-0.57
		c-0.357,0.281-0.735,0.486-1.133,0.613c-0.398,0.128-0.831,0.191-1.296,0.191c-0.554,0-1.076-0.108-1.567-0.324
		c-0.492-0.216-0.921-0.509-1.289-0.879c-0.368-0.37-0.659-0.802-0.873-1.297c-0.215-0.495-0.322-1.021-0.322-1.578V12.75
		c0-0.224,0.079-0.415,0.237-0.574c0.158-0.159,0.351-0.238,0.578-0.238c0.223,0,0.413,0.08,0.57,0.238
		c0.158,0.159,0.237,0.351,0.237,0.574v3.859c0,0.339,0.063,0.656,0.19,0.953c0.126,0.297,0.3,0.556,0.52,0.777
		c0.22,0.222,0.477,0.396,0.772,0.523c0.295,0.128,0.611,0.191,0.947,0.191c0.331,0,0.645-0.063,0.939-0.191
		c0.295-0.127,0.554-0.303,0.776-0.527c0.223-0.224,0.397-0.483,0.524-0.777c0.127-0.294,0.19-0.61,0.19-0.949V12.75
		c0-0.224,0.079-0.415,0.236-0.574c0.158-0.159,0.351-0.238,0.579-0.238c0.222,0,0.413,0.08,0.57,0.238
		c0.158,0.159,0.237,0.351,0.237,0.574v7.125c0,0.224-0.079,0.416-0.237,0.574C103.274,20.608,103.082,20.688,102.854,20.688z"/>
	<path fill="#331842" d="M114.679,18.211c0.233,0,0.426,0.077,0.579,0.23c0.152,0.154,0.229,0.348,0.229,0.582
		c0,0.229-0.085,0.43-0.256,0.602c-0.802,0.708-1.746,1.062-2.833,1.062c-1.201,0-2.225-0.427-3.074-1.281
		c-0.849-0.854-1.273-1.885-1.273-3.094c0-1.208,0.424-2.239,1.273-3.094c0.849-0.854,1.873-1.281,3.074-1.281
		c1.091,0,2.036,0.354,2.833,1.062c0.186,0.167,0.279,0.373,0.279,0.617c0,0.234-0.076,0.43-0.229,0.586
		c-0.152,0.156-0.345,0.234-0.578,0.234c-0.196,0-0.373-0.062-0.527-0.188c-0.264-0.224-0.541-0.393-0.831-0.508
		c-0.29-0.114-0.605-0.172-0.946-0.172c-0.378,0-0.732,0.072-1.063,0.215c-0.331,0.144-0.621,0.339-0.869,0.586
		c-0.249,0.248-0.444,0.538-0.586,0.871c-0.143,0.333-0.214,0.69-0.214,1.07c0,0.38,0.071,0.737,0.214,1.07
		c0.142,0.333,0.337,0.624,0.586,0.871c0.248,0.248,0.538,0.443,0.869,0.586c0.331,0.144,0.686,0.215,1.063,0.215
		c0.341,0,0.657-0.056,0.946-0.168c0.29-0.112,0.564-0.28,0.823-0.504C114.312,18.273,114.482,18.216,114.679,18.211z"/>
	<path fill="#331842" d="M122.135,10.383c0,0.266-0.093,0.492-0.28,0.68c-0.186,0.188-0.411,0.281-0.675,0.281
		c-0.264,0-0.489-0.094-0.675-0.281c-0.187-0.188-0.28-0.414-0.28-0.68s0.093-0.492,0.28-0.68c0.186-0.188,0.411-0.281,0.675-0.281
		c0.264,0,0.489,0.094,0.675,0.281C122.042,9.891,122.135,10.117,122.135,10.383z M120.373,19.867v-7.109
		c0-0.229,0.079-0.423,0.237-0.582c0.158-0.159,0.348-0.238,0.57-0.238s0.413,0.08,0.571,0.238c0.158,0.159,0.239,0.353,0.244,0.582
		v7.109c-0.005,0.229-0.086,0.423-0.244,0.582c-0.158,0.159-0.348,0.238-0.571,0.238s-0.413-0.079-0.57-0.238
		C120.452,20.291,120.373,20.097,120.373,19.867z"/>
	<path fill="#331842" d="M135.535,16.312c0,1.219-0.424,2.25-1.272,3.094c-0.859,0.854-1.884,1.281-3.074,1.281
		c-1.201,0-2.225-0.427-3.074-1.281c-0.849-0.854-1.272-1.885-1.272-3.094c0-1.208,0.424-2.239,1.272-3.094
		c0.849-0.854,1.873-1.281,3.074-1.281c1.19,0,2.214,0.427,3.074,1.281c0.424,0.427,0.741,0.898,0.95,1.414
		C135.423,15.148,135.53,15.708,135.535,16.312z M131.189,13.57c-0.383,0-0.74,0.073-1.071,0.219
		c-0.332,0.146-0.619,0.343-0.862,0.59c-0.243,0.248-0.436,0.538-0.578,0.871c-0.143,0.333-0.213,0.688-0.213,1.062
		s0.071,0.729,0.213,1.062c0.142,0.333,0.335,0.624,0.578,0.871c0.243,0.248,0.53,0.444,0.862,0.59
		c0.331,0.146,0.688,0.219,1.071,0.219c0.377,0,0.732-0.073,1.063-0.219c0.331-0.146,0.62-0.344,0.866-0.594s0.44-0.54,0.582-0.871
		c0.142-0.331,0.213-0.684,0.213-1.059s-0.071-0.728-0.213-1.059c-0.142-0.331-0.336-0.621-0.582-0.871s-0.535-0.448-0.866-0.594
		C131.921,13.644,131.566,13.57,131.189,13.57z M132.865,9.586l-1.552,1.555c-0.145,0.146-0.331,0.219-0.559,0.219
		c-0.233,0-0.426-0.077-0.579-0.23c-0.152-0.153-0.229-0.348-0.229-0.582c0-0.224,0.067-0.409,0.202-0.555l1.552-1.555
		c0.166-0.161,0.357-0.242,0.574-0.242c0.233,0,0.426,0.08,0.578,0.238c0.153,0.159,0.229,0.353,0.229,0.582
		C133.083,9.25,133.01,9.44,132.865,9.586z"/>
	<path fill="#331842" d="M141.57,12.742c0.688-0.536,1.498-0.805,2.43-0.805c0.543,0,1.059,0.107,1.548,0.32
		c0.489,0.214,0.92,0.504,1.292,0.871s0.667,0.8,0.885,1.297c0.217,0.498,0.326,1.027,0.326,1.59v3.852
		c0,0.229-0.079,0.423-0.237,0.582c-0.158,0.159-0.348,0.238-0.57,0.238c-0.228,0-0.42-0.079-0.578-0.238
		c-0.158-0.159-0.237-0.353-0.237-0.582v-3.852c0-0.333-0.065-0.648-0.194-0.945s-0.304-0.556-0.524-0.777
		c-0.22-0.221-0.477-0.397-0.772-0.527c-0.295-0.13-0.608-0.195-0.939-0.195c-0.337,0-0.651,0.064-0.943,0.191
		c-0.292,0.128-0.55,0.304-0.772,0.527c-0.223,0.224-0.397,0.484-0.524,0.781c-0.127,0.297-0.19,0.612-0.19,0.945v3.852
		c0,0.229-0.079,0.423-0.236,0.582c-0.158,0.159-0.348,0.238-0.571,0.238c-0.228,0-0.42-0.079-0.578-0.238
		c-0.158-0.159-0.237-0.353-0.237-0.582v-7.109c0-0.224,0.079-0.417,0.237-0.578c0.158-0.161,0.351-0.242,0.578-0.242
		c0.223,0,0.413,0.081,0.571,0.242C141.492,12.341,141.57,12.529,141.57,12.742z"/>
	<path fill="#331842" d="M44.113,31.742c0.688-0.536,1.498-0.805,2.429-0.805c0.543,0,1.059,0.107,1.548,0.32
		c0.489,0.214,0.92,0.504,1.292,0.871c0.373,0.367,0.668,0.8,0.885,1.297c0.218,0.498,0.326,1.027,0.326,1.59v3.852
		c0,0.229-0.079,0.423-0.237,0.582c-0.158,0.159-0.348,0.238-0.57,0.238c-0.228,0-0.42-0.079-0.578-0.238
		c-0.158-0.159-0.237-0.353-0.237-0.582v-3.852c0-0.333-0.065-0.648-0.194-0.945c-0.129-0.297-0.304-0.556-0.523-0.777
		c-0.22-0.221-0.478-0.397-0.772-0.527c-0.295-0.13-0.608-0.195-0.939-0.195c-0.336,0-0.651,0.064-0.943,0.191
		c-0.292,0.128-0.55,0.304-0.772,0.527c-0.223,0.224-0.397,0.484-0.524,0.781c-0.127,0.297-0.19,0.612-0.19,0.945v3.852
		c0,0.229-0.079,0.423-0.237,0.582c-0.158,0.159-0.348,0.238-0.571,0.238c-0.228,0-0.42-0.079-0.578-0.238
		c-0.158-0.159-0.236-0.353-0.236-0.582v-7.109c0-0.224,0.079-0.417,0.236-0.578c0.158-0.161,0.351-0.242,0.578-0.242
		c0.223,0,0.413,0.081,0.571,0.242C44.034,31.341,44.113,31.529,44.113,31.742z"/>
	<path fill="#331842" d="M61.604,37.227c0.233,0,0.425,0.077,0.578,0.23c0.153,0.154,0.229,0.348,0.229,0.582
		c0,0.229-0.078,0.425-0.233,0.586c-0.802,0.708-1.749,1.062-2.84,1.062c-1.201,0-2.225-0.427-3.074-1.281
		c-0.849-0.854-1.273-1.885-1.273-3.094c0-1.208,0.424-2.239,1.273-3.094c0.849-0.854,1.873-1.281,3.074-1.281
		c1.19,0,2.214,0.427,3.073,1.281c0.424,0.422,0.743,0.892,0.955,1.41c0.212,0.519,0.318,1.08,0.318,1.684
		c0,0.234-0.079,0.429-0.237,0.582c-0.158,0.154-0.351,0.23-0.578,0.23h-6.147c0.088,0.287,0.217,0.548,0.388,0.785
		c0.171,0.237,0.371,0.44,0.602,0.609c0.23,0.169,0.483,0.301,0.76,0.395s0.565,0.141,0.866,0.141c0.341,0,0.654-0.052,0.939-0.156
		c0.285-0.104,0.548-0.26,0.792-0.469C61.224,37.3,61.402,37.232,61.604,37.227z M61.953,34.5c-0.088-0.286-0.219-0.548-0.392-0.785
		c-0.174-0.237-0.375-0.44-0.605-0.609c-0.23-0.169-0.484-0.301-0.761-0.395s-0.562-0.141-0.857-0.141s-0.582,0.047-0.862,0.141
		c-0.279,0.094-0.536,0.226-0.768,0.395c-0.233,0.169-0.435,0.373-0.605,0.609c-0.171,0.237-0.298,0.499-0.38,0.785H61.953z"/>
	<path fill="#331842" d="M75.176,38.727c-0.776,0.641-1.685,0.961-2.725,0.961c-1.2,0-2.225-0.427-3.073-1.281
		c-0.849-0.854-1.273-1.885-1.273-3.094c0-1.208,0.424-2.239,1.273-3.094c0.849-0.854,1.873-1.281,3.073-1.281
		c1.19,0,2.215,0.427,3.074,1.281c0.848,0.854,1.273,1.886,1.273,3.094v4.344c0,0.375-0.057,0.729-0.171,1.062
		c-0.114,0.333-0.271,0.639-0.474,0.918c-0.202,0.278-0.439,0.53-0.714,0.754c-0.274,0.224-0.57,0.413-0.889,0.566
		c-0.318,0.153-0.651,0.272-0.998,0.355c-0.347,0.083-0.693,0.125-1.04,0.125c-0.414,0-0.82-0.054-1.218-0.16
		c-0.398-0.107-0.776-0.265-1.133-0.473c-0.357-0.208-0.684-0.466-0.982-0.773c-0.297-0.308-0.55-0.651-0.757-1.031
		c-0.083-0.12-0.124-0.266-0.124-0.438c0-0.234,0.078-0.429,0.233-0.582c0.155-0.154,0.349-0.23,0.582-0.23
		c0.155,0,0.284,0.036,0.384,0.109c0.101,0.073,0.239,0.234,0.415,0.484s0.331,0.44,0.466,0.57c0.59,0.594,1.301,0.891,2.134,0.891
		c0.838,0,1.547-0.292,2.127-0.875c0.357-0.438,0.536-0.862,0.536-1.273V38.727z M72.451,32.57c-0.383,0-0.74,0.073-1.071,0.219
		c-0.332,0.146-0.619,0.343-0.862,0.59c-0.243,0.248-0.436,0.538-0.578,0.871c-0.143,0.333-0.213,0.688-0.213,1.062
		s0.071,0.729,0.213,1.062c0.143,0.333,0.335,0.624,0.578,0.871c0.243,0.248,0.53,0.444,0.862,0.59
		c0.331,0.146,0.688,0.219,1.071,0.219c0.378,0,0.732-0.073,1.063-0.219c0.331-0.146,0.62-0.344,0.865-0.594s0.44-0.54,0.582-0.871
		c0.143-0.331,0.214-0.684,0.214-1.059s-0.071-0.728-0.214-1.059c-0.142-0.331-0.336-0.621-0.582-0.871s-0.534-0.448-0.865-0.594
		C73.184,32.644,72.829,32.57,72.451,32.57z"/>
	<path fill="#331842" d="M89.911,35.312c0,1.219-0.424,2.25-1.273,3.094c-0.859,0.854-1.883,1.281-3.073,1.281
		c-1.201,0-2.225-0.427-3.074-1.281c-0.849-0.854-1.273-1.885-1.273-3.094c0-1.208,0.424-2.239,1.273-3.094
		c0.849-0.854,1.873-1.281,3.074-1.281c1.19,0,2.214,0.427,3.073,1.281c0.424,0.427,0.741,0.898,0.951,1.414
		C89.799,34.148,89.906,34.708,89.911,35.312z M85.565,32.57c-0.383,0-0.74,0.073-1.071,0.219c-0.331,0.146-0.618,0.343-0.861,0.59
		c-0.244,0.248-0.436,0.538-0.579,0.871c-0.142,0.333-0.213,0.688-0.213,1.062s0.071,0.729,0.213,1.062
		c0.143,0.333,0.335,0.624,0.579,0.871c0.243,0.248,0.53,0.444,0.861,0.59c0.331,0.146,0.688,0.219,1.071,0.219
		c0.377,0,0.732-0.073,1.063-0.219c0.331-0.146,0.62-0.344,0.866-0.594c0.246-0.25,0.439-0.54,0.582-0.871
		c0.142-0.331,0.213-0.684,0.213-1.059s-0.071-0.728-0.213-1.059c-0.143-0.331-0.336-0.621-0.582-0.871
		c-0.246-0.25-0.535-0.448-0.866-0.594C86.297,32.644,85.942,32.57,85.565,32.57z"/>
	<path fill="#331842" d="M100.944,37.211c0.233,0,0.426,0.077,0.579,0.23c0.152,0.154,0.229,0.348,0.229,0.582
		c0,0.229-0.085,0.43-0.256,0.602c-0.802,0.708-1.746,1.062-2.833,1.062c-1.201,0-2.225-0.427-3.074-1.281
		c-0.849-0.854-1.273-1.885-1.273-3.094c0-1.208,0.424-2.239,1.273-3.094c0.849-0.854,1.873-1.281,3.074-1.281
		c1.091,0,2.036,0.354,2.833,1.062c0.186,0.167,0.279,0.373,0.279,0.617c0,0.234-0.076,0.43-0.229,0.586
		c-0.152,0.156-0.345,0.234-0.578,0.234c-0.196,0-0.373-0.062-0.527-0.188c-0.264-0.224-0.541-0.393-0.831-0.508
		c-0.29-0.114-0.605-0.172-0.946-0.172c-0.378,0-0.732,0.072-1.063,0.215c-0.331,0.144-0.621,0.339-0.869,0.586
		c-0.249,0.248-0.444,0.538-0.586,0.871c-0.143,0.333-0.214,0.69-0.214,1.07c0,0.38,0.071,0.737,0.214,1.07
		c0.142,0.333,0.337,0.624,0.586,0.871c0.248,0.248,0.538,0.443,0.869,0.586c0.331,0.144,0.686,0.215,1.063,0.215
		c0.341,0,0.657-0.056,0.946-0.168c0.29-0.112,0.564-0.28,0.823-0.504C100.577,37.273,100.748,37.216,100.944,37.211z"/>
	<path fill="#331842" d="M108.4,29.383c0,0.266-0.093,0.492-0.28,0.68c-0.186,0.188-0.411,0.281-0.675,0.281
		c-0.264,0-0.489-0.094-0.675-0.281c-0.187-0.188-0.28-0.414-0.28-0.68s0.093-0.492,0.28-0.68c0.186-0.188,0.411-0.281,0.675-0.281
		c0.264,0,0.489,0.094,0.675,0.281C108.307,28.891,108.4,29.117,108.4,29.383z M106.638,38.867v-7.109
		c0-0.229,0.079-0.423,0.237-0.582c0.158-0.159,0.348-0.238,0.57-0.238s0.413,0.08,0.571,0.238c0.158,0.159,0.239,0.353,0.244,0.582
		v7.109c-0.005,0.229-0.086,0.423-0.244,0.582c-0.158,0.159-0.348,0.238-0.571,0.238s-0.413-0.079-0.57-0.238
		C106.717,39.291,106.638,39.097,106.638,38.867z"/>
	<path fill="#331842" d="M120.179,38.875v-0.156c-0.388,0.312-0.81,0.552-1.265,0.719c-0.456,0.167-0.942,0.25-1.459,0.25
		c-1.201,0-2.225-0.427-3.074-1.281c-0.849-0.854-1.273-1.885-1.273-3.094c0-1.208,0.424-2.239,1.273-3.094
		c0.849-0.854,1.873-1.281,3.074-1.281c1.19,0,2.214,0.427,3.073,1.281c0.849,0.854,1.273,1.886,1.273,3.094v3.562
		c0,0.224-0.079,0.416-0.237,0.574c-0.158,0.159-0.348,0.238-0.57,0.238c-0.228,0-0.42-0.079-0.578-0.238
		C120.257,39.291,120.179,39.099,120.179,38.875z M117.455,32.57c-0.383,0-0.74,0.073-1.071,0.219
		c-0.331,0.146-0.618,0.343-0.861,0.59c-0.244,0.248-0.436,0.538-0.579,0.871c-0.142,0.333-0.213,0.688-0.213,1.062
		s0.071,0.729,0.213,1.062c0.143,0.333,0.335,0.624,0.579,0.871c0.243,0.248,0.53,0.444,0.861,0.59
		c0.331,0.146,0.688,0.219,1.071,0.219c0.377,0,0.732-0.073,1.063-0.219c0.331-0.146,0.62-0.344,0.866-0.594
		c0.246-0.25,0.439-0.54,0.582-0.871c0.142-0.331,0.213-0.684,0.213-1.059s-0.071-0.728-0.213-1.059
		c-0.143-0.331-0.336-0.621-0.582-0.871c-0.246-0.25-0.535-0.448-0.866-0.594C118.187,32.644,117.832,32.57,117.455,32.57z"/>
	<path fill="#331842" d="M130.568,30.938c1.03,0,1.938,0.32,2.724,0.961V28c0-0.234,0.076-0.428,0.229-0.582
		c0.153-0.153,0.346-0.23,0.579-0.23c0.228,0,0.42,0.077,0.578,0.23c0.158,0.154,0.236,0.348,0.236,0.582v7.312
		c0,1.219-0.424,2.25-1.272,3.094c-0.859,0.854-1.884,1.281-3.074,1.281c-1.2,0-2.225-0.427-3.073-1.281
		c-0.849-0.854-1.273-1.885-1.273-3.094c0-1.208,0.424-2.239,1.273-3.094C128.343,31.365,129.368,30.938,130.568,30.938z
		 M133.292,35.312c0-0.375-0.071-0.728-0.213-1.059c-0.142-0.331-0.336-0.621-0.582-0.871s-0.534-0.448-0.865-0.594
		c-0.332-0.146-0.686-0.219-1.063-0.219c-0.383,0-0.74,0.073-1.071,0.219c-0.332,0.146-0.619,0.343-0.862,0.59
		c-0.243,0.248-0.436,0.538-0.578,0.871c-0.142,0.333-0.213,0.688-0.213,1.062s0.071,0.729,0.213,1.062
		c0.142,0.333,0.335,0.624,0.578,0.871c0.243,0.248,0.53,0.444,0.862,0.59c0.331,0.146,0.688,0.219,1.071,0.219
		c0.377,0,0.732-0.073,1.063-0.219c0.331-0.146,0.62-0.344,0.865-0.594s0.44-0.54,0.582-0.871
		C133.221,36.041,133.292,35.688,133.292,35.312z"/>
	<path fill="#331842" d="M146.406,38.875v-0.156c-0.388,0.312-0.81,0.552-1.265,0.719c-0.455,0.167-0.941,0.25-1.459,0.25
		c-1.2,0-2.225-0.427-3.073-1.281c-0.849-0.854-1.273-1.885-1.273-3.094c0-1.208,0.425-2.239,1.273-3.094
		c0.848-0.854,1.873-1.281,3.073-1.281c1.19,0,2.214,0.427,3.073,1.281c0.849,0.854,1.273,1.886,1.273,3.094v3.562
		c0,0.224-0.079,0.416-0.237,0.574c-0.158,0.159-0.348,0.238-0.57,0.238c-0.228,0-0.42-0.079-0.578-0.238
		C146.484,39.291,146.406,39.099,146.406,38.875z M143.682,32.57c-0.383,0-0.74,0.073-1.071,0.219
		c-0.331,0.146-0.618,0.343-0.861,0.59c-0.243,0.248-0.436,0.538-0.578,0.871c-0.143,0.333-0.213,0.688-0.213,1.062
		s0.071,0.729,0.213,1.062c0.142,0.333,0.335,0.624,0.578,0.871c0.243,0.248,0.53,0.444,0.861,0.59
		c0.331,0.146,0.688,0.219,1.071,0.219c0.377,0,0.732-0.073,1.063-0.219c0.331-0.146,0.619-0.344,0.865-0.594
		c0.246-0.25,0.439-0.54,0.582-0.871c0.142-0.331,0.213-0.684,0.213-1.059s-0.071-0.728-0.213-1.059
		c-0.143-0.331-0.336-0.621-0.582-0.871c-0.246-0.25-0.534-0.448-0.865-0.594C144.414,32.644,144.059,32.57,143.682,32.57z"/>
</g>
</svg>
