<?xml version="1.0" encoding="utf-8"?>
<!-- Generator: Adobe Illustrator 16.0.0, SVG Export Plug-In . SVG Version: 6.00 Build 0)  -->
<!DOCTYPE svg PUBLIC "-//W3C//DTD SVG 1.1//EN" "http://www.w3.org/Graphics/SVG/1.1/DTD/svg11.dtd">
<svg version="1.1" id="Capa_1" xmlns="http://www.w3.org/2000/svg" xmlns:xlink="http://www.w3.org/1999/xlink" x="0px" y="0px"
	 width="554.721px" height="203.779px" viewBox="0 0 554.721 203.779" enable-background="new 0 0 554.721 203.779"
	 xml:space="preserve">
<g>
	<circle fill="none" stroke="#A0C219" stroke-width="5" stroke-miterlimit="10" cx="138.904" cy="181.177" r="20.104"/>
	<g>
		<path fill="#E9496E" d="M143.069,170.713c-0.091,4.548-0.136,9.073-0.136,13.573c0,2.255,0.013,4.505,0.039,6.75l-4.809,0.188
			c-0.091-5.791-0.201-11.154-0.33-16.088c-1.086,0.164-2.56,0.569-4.421,1.214l-0.931-3.166l5.391-2.544L143.069,170.713z"/>
	</g>
	<circle fill="none" stroke="#A0C219" stroke-width="5" stroke-miterlimit="10" cx="200.29" cy="181.177" r="20.104"/>
	<g>
		<path fill="#E9496E" d="M193.013,177.42c-0.065-0.578-0.097-1.113-0.097-1.604c0-1.725,0.42-2.968,1.26-3.729
			c1.073-0.974,2.443-1.557,4.111-1.749c0.594-0.067,1.176-0.102,1.745-0.102c1.021,0,2.003,0.106,2.947,0.318
			c1.474,0.337,2.585,1.002,3.335,1.995c0.607,0.829,0.911,1.889,0.911,3.18c0,0.251-0.006,0.517-0.019,0.795
			c-0.155,1.658-0.824,3.184-2.007,4.575c-1.183,1.394-3.229,3.385-6.137,5.978l8.474,0.043l-0.058,3.628
			c-3.71,0.125-8.493,0.188-14.349,0.188l-0.446-3.946c3.516-2.833,6.024-5.011,7.524-6.533c1.37-1.397,2.056-2.771,2.056-4.12
			v-0.362c-0.143-1.445-0.957-2.168-2.443-2.168h-0.078c-1.293,0.029-1.939,0.906-1.939,2.631c0,0.328,0.019,0.679,0.058,1.056
			L193.013,177.42z"/>
	</g>
	<circle fill="none" stroke="#A0C219" stroke-width="5" stroke-miterlimit="10" cx="261.675" cy="181.177" r="20.104"/>
	<g>
		<path fill="#E9496E" d="M254.739,177.275c-0.052-0.511-0.078-0.987-0.078-1.431c0-1.532,0.311-2.712,0.931-3.542
			c0.788-1.06,2.081-1.715,3.878-1.966c0.879-0.125,1.719-0.188,2.521-0.188c0.814,0,1.59,0.067,2.327,0.203
			c1.435,0.26,2.582,0.843,3.442,1.749c0.859,0.906,1.321,2.149,1.386,3.729v0.434c0,1.368-0.284,2.366-0.853,2.992
			c-0.634,0.703-1.674,1.232-3.122,1.59c1.202,0.135,2.104,0.46,2.705,0.976c0.601,0.517,1.018,1.207,1.251,2.074
			c0.129,0.482,0.194,1.012,0.194,1.59c0,0.473-0.045,0.983-0.136,1.532c-0.194,1.205-0.85,2.246-1.968,3.122
			c-1.119,0.877-2.841,1.335-5.168,1.374h-0.31c-2.185,0-3.93-0.424-5.236-1.272c-1.357-0.866-2.036-2.731-2.036-5.594v-0.087
			l5.022-0.217c-0.013,0.164-0.02,0.323-0.02,0.477c0,2.023,0.711,3.069,2.133,3.138c0.103,0.01,0.2,0.015,0.291,0.015
			c1.344,0,2.153-0.53,2.424-1.59c0.077-0.298,0.116-0.583,0.116-0.854c0-0.761-0.291-1.421-0.873-1.979
			c-0.802-0.752-2.127-1.127-3.975-1.127l-0.233-2.747c0.22,0.01,0.427,0.015,0.621,0.015c1.616,0,2.728-0.347,3.335-1.041
			c0.569-0.646,0.853-1.483,0.853-2.515c0-0.202-0.013-0.409-0.039-0.622c-0.116-1.233-0.86-1.85-2.23-1.85h-0.252
			c-1.357,0.066-2.036,1.078-2.036,3.035c0,0.231,0.006,0.478,0.02,0.737L254.739,177.275z"/>
	</g>
	<circle fill="none" stroke="#A0C219" stroke-width="5" stroke-miterlimit="10" cx="323.061" cy="181.177" r="20.104"/>
	<g>
		<path fill="#E9496E" d="M314.166,184.864l-0.407-3.454c2.224-3.623,4.796-7.372,7.718-11.246l6.244,0.26l-0.077,11.159
			l2.734,0.043v3.455h-2.656v6.085l-4.692-0.13l0.058-6.028L314.166,184.864z M323.163,181.626l0.058-7.459
			c-1.422,2.447-2.935,4.91-4.538,7.387L323.163,181.626z"/>
	</g>
	<circle fill="none" stroke="#A0C219" stroke-width="5" stroke-miterlimit="10" cx="384.447" cy="181.177" r="20.104"/>
	<g>
		<path fill="#E9496E" d="M377.317,184.748l4.557-0.289c0,2.109,0.892,3.166,2.676,3.166c1.771,0,2.734-0.631,2.89-1.895
			c0.063-0.588,0.097-1.18,0.097-1.777c0-0.685-0.046-1.374-0.136-2.067c-0.168-1.262-0.866-1.894-2.095-1.894h-0.115
			c-1.319,0.048-2.275,0.813-2.87,2.298l-4.712-0.086l0.543-11.983l13.03-0.173l0.059,3.513l-8.629,0.13l-0.35,4.915
			c0.596-1.28,1.675-2.014,3.239-2.196c0.375-0.049,0.743-0.072,1.105-0.072c1.125,0,2.158,0.222,3.103,0.665
			c1.241,0.578,2.017,1.957,2.327,4.134c0.103,0.742,0.155,1.47,0.155,2.183c0,1.351-0.194,2.626-0.582,3.831
			c-0.596,1.841-1.759,2.983-3.49,3.427c-1.229,0.317-2.463,0.477-3.704,0.477c-0.504,0-1.015-0.029-1.532-0.086
			c-1.758-0.183-3.147-0.747-4.169-1.691c-0.943-0.856-1.416-2.183-1.416-3.975C377.297,185.124,377.304,184.941,377.317,184.748z"
			/>
	</g>
	<circle fill="none" stroke="#A0C219" stroke-width="5" stroke-miterlimit="10" cx="445.833" cy="181.177" r="20.104"/>
	<g>
		<path fill="#E9496E" d="M443.21,181.005c1.009-1.417,2.469-2.125,4.383-2.125h0.039c1.926,0.01,3.395,0.537,4.402,1.583
			s1.544,2.248,1.608,3.606v0.361c0,1.243-0.283,2.481-0.853,3.715c-0.621,1.35-1.597,2.246-2.928,2.688
			c-0.97,0.337-2.062,0.506-3.277,0.506c-0.44,0-0.899-0.024-1.377-0.072c-1.771-0.164-3.188-0.771-4.247-1.821
			c-1.06-1.05-1.823-2.447-2.288-4.191c-0.349-1.281-0.523-2.717-0.523-4.309c0-0.559,0.025-1.132,0.077-1.72
			c0.155-2.273,0.543-4.127,1.164-5.558c0.62-1.432,1.544-2.45,2.773-3.059c1.202-0.587,2.572-0.881,4.111-0.881h0.115
			c1.577,0.02,2.912,0.4,4.004,1.143c1.093,0.741,1.801,1.754,2.124,3.035c0.207,0.849,0.311,1.683,0.311,2.502
			c0,0.434-0.026,0.856-0.078,1.271h-4.344c0.025-0.337,0.039-0.65,0.039-0.94c0-1.802-0.446-2.789-1.338-2.963
			c-0.233-0.039-0.453-0.058-0.659-0.058c-0.75,0-1.377,0.285-1.881,0.853c-0.659,0.732-1.066,1.744-1.223,3.036
			c-0.116,0.877-0.174,1.683-0.174,2.414C443.172,180.368,443.185,180.696,443.21,181.005z M443.598,183.751
			c0.026,1.271,0.249,2.224,0.669,2.854s1.044,0.995,1.871,1.091c0.129,0.021,0.266,0.029,0.407,0.029
			c0.646,0,1.222-0.197,1.727-0.592c0.556-0.434,0.834-1.214,0.834-2.342v-0.289c-0.053-1.282-0.653-2.033-1.804-2.255
			c-0.181-0.029-0.361-0.043-0.543-0.043C445.764,182.204,444.71,182.72,443.598,183.751z"/>
	</g>
	<circle fill="none" stroke="#A0C219" stroke-width="5" stroke-miterlimit="10" cx="507.219" cy="181.177" r="20.104"/>
	<g>
		<path fill="#E9496E" d="M500.767,174.211l0.194-3.614c4.693-0.058,9.204-0.101,13.535-0.13v3.672
			c-3.594,5.493-5.675,10.942-6.244,16.349l-4.596-0.391c0.568-5.232,2.437-10.542,5.604-15.929L500.767,174.211z"/>
	</g>
	<g>
		<circle fill="#E9496E" cx="27.331" cy="16.533" r="2.551"/>
		<circle fill="#E9496E" cx="21.136" cy="16.533" r="2.551"/>
		<circle fill="#E9496E" cx="14.94" cy="16.533" r="2.55"/>
		<circle fill="#E9496E" cx="21.136" cy="22.801" r="2.551"/>
		<circle fill="#E9496E" cx="14.94" cy="22.801" r="2.55"/>
		<circle fill="#E9496E" cx="8.746" cy="22.801" r="2.55"/>
		<circle fill="#E9496E" cx="14.94" cy="29.069" r="2.55"/>
		<circle fill="#E9496E" cx="8.746" cy="29.069" r="2.55"/>
		<circle fill="#E9496E" cx="2.551" cy="29.069" r="2.551"/>
		<circle fill="#E9496E" cx="21.136" cy="35.336" r="2.551"/>
		<circle fill="#E9496E" cx="14.94" cy="35.336" r="2.55"/>
		<circle fill="#E9496E" cx="8.746" cy="35.336" r="2.55"/>
		<circle fill="#E9496E" cx="27.331" cy="41.604" r="2.551"/>
		<circle fill="#E9496E" cx="21.136" cy="41.604" r="2.551"/>
		<circle fill="#E9496E" cx="14.94" cy="41.604" r="2.55"/>
	</g>
</g>
</svg>
