<?xml version="1.0" encoding="utf-8"?>
<!-- Generator: Adobe Illustrator 16.0.0, SVG Export Plug-In . SVG Version: 6.00 Build 0)  -->
<!DOCTYPE svg PUBLIC "-//W3C//DTD SVG 1.1//EN" "http://www.w3.org/Graphics/SVG/1.1/DTD/svg11.dtd">
<svg version="1.1" id="Capa_1" xmlns="http://www.w3.org/2000/svg" xmlns:xlink="http://www.w3.org/1999/xlink" x="0px" y="0px"
	 width="324.784px" height="146.062px" viewBox="0 0 324.784 146.062" enable-background="new 0 0 324.784 146.062"
	 xml:space="preserve">
<g>
	<g>
		<g>
			<path fill="#331842" d="M144.674,41.277c0.143-0.004,0.266,0.043,0.367,0.141s0.154,0.218,0.158,0.362
				c0.003,0.139-0.035,0.253-0.116,0.343c-0.605,0.498-1.251,0.88-1.938,1.149s-1.417,0.413-2.187,0.432
				c-0.897,0.022-1.744-0.126-2.539-0.446c-0.795-0.318-1.522-0.78-2.182-1.386c-0.633-0.633-1.126-1.342-1.481-2.125
				c-0.355-0.785-0.543-1.628-0.565-2.531c-0.045-1.834,0.561-3.415,1.818-4.743c1.262-1.333,2.804-2.022,4.625-2.067
				c1.569-0.038,2.977,0.432,4.223,1.411c0.102,0.097,0.154,0.218,0.158,0.362c0.003,0.138-0.043,0.259-0.14,0.361
				s-0.214,0.155-0.352,0.158c-0.144,0.004-0.285-0.06-0.426-0.189c-0.972-0.752-2.118-1.112-3.438-1.08
				c-1.542,0.038-2.847,0.621-3.915,1.75c-1.063,1.124-1.576,2.462-1.538,4.013c0.038,1.558,0.615,2.871,1.732,3.941
				s2.448,1.587,3.995,1.549c1.332-0.033,2.489-0.474,3.471-1.324C144.474,41.307,144.564,41.28,144.674,41.277z"/>
			<path fill="#331842" d="M159.089,38.605c0.032,1.286-0.393,2.394-1.274,3.324c-0.88,0.931-1.959,1.412-3.236,1.443
				c-1.277,0.031-2.378-0.397-3.303-1.284c-0.925-0.887-1.403-1.973-1.434-3.258c-0.031-1.285,0.393-2.394,1.274-3.324
				s1.959-1.412,3.236-1.443c1.277-0.031,2.378,0.397,3.303,1.284S159.058,37.32,159.089,38.605z M154.377,35.095
				c-0.991,0.024-1.83,0.399-2.517,1.125c-0.688,0.727-1.019,1.588-0.995,2.585c0.024,0.998,0.397,1.843,1.119,2.534
				c0.722,0.692,1.578,1.026,2.569,1.002c0.991-0.024,1.83-0.399,2.517-1.125c0.682-0.72,1.011-1.583,0.986-2.585
				s-0.395-1.848-1.111-2.534C156.224,35.404,155.368,35.07,154.377,35.095z"/>
			<path fill="#331842" d="M163.7,34.352c-0.003-0.144,0.043-0.267,0.14-0.369c0.097-0.102,0.216-0.155,0.36-0.158
				c0.143-0.003,0.265,0.043,0.367,0.141c0.102,0.098,0.154,0.218,0.158,0.362l0.023,0.964c0.989-1.011,2.062-1.53,3.217-1.559
				c1.189-0.029,2.207,0.367,3.053,1.189c0.863,0.822,1.309,1.829,1.337,3.02l0.109,4.48c0.003,0.144-0.044,0.267-0.144,0.369
				c-0.099,0.103-0.221,0.155-0.364,0.159s-0.265-0.043-0.367-0.141c-0.102-0.097-0.154-0.218-0.158-0.362l-0.109-4.48
				c-0.022-0.914-0.36-1.676-1.014-2.287c-0.654-0.633-1.427-0.938-2.319-0.917c-0.892,0.022-1.652,0.365-2.28,1.028
				c-0.618,0.647-0.916,1.425-0.894,2.334l0.109,4.48c0.003,0.144-0.043,0.267-0.14,0.369s-0.217,0.155-0.36,0.158
				c-0.143,0.004-0.266-0.043-0.367-0.141c-0.102-0.098-0.154-0.218-0.158-0.362L163.7,34.352z"/>
			<path fill="#331842" d="M181.828,41.678c0.143-0.003,0.267,0.044,0.371,0.141c0.104,0.097,0.158,0.218,0.162,0.362
				c0.004,0.144-0.044,0.267-0.144,0.369c-0.1,0.103-0.221,0.155-0.364,0.159c-2.169,0.053-3.28-1.012-3.333-3.195l-0.122-5.003
				l-0.851,0.021c-0.143,0.004-0.267-0.043-0.371-0.141c-0.104-0.098-0.158-0.218-0.162-0.362c-0.003-0.144,0.044-0.267,0.144-0.369
				c0.099-0.103,0.221-0.155,0.364-0.158l0.851-0.021l-0.085-3.483c-0.003-0.144,0.043-0.267,0.14-0.369
				c0.097-0.102,0.217-0.155,0.36-0.158c0.143-0.004,0.267,0.043,0.371,0.141c0.104,0.098,0.158,0.218,0.162,0.362l0.085,3.483
				l1.544-0.038c0.143-0.003,0.267,0.043,0.371,0.141c0.104,0.098,0.158,0.218,0.162,0.362c0.003,0.144-0.044,0.267-0.144,0.369
				c-0.1,0.103-0.221,0.155-0.364,0.159l-1.544,0.037l0.122,5.004C179.588,40.984,180.347,41.714,181.828,41.678z"/>
			<path fill="#331842" d="M194.393,40.398c0.143-0.003,0.266,0.045,0.367,0.146c0.102,0.1,0.154,0.222,0.158,0.366
				c0.003,0.144-0.038,0.265-0.124,0.361c-0.841,0.769-1.836,1.167-2.986,1.195c-1.277,0.031-2.378-0.396-3.303-1.283
				s-1.403-1.973-1.434-3.259c-0.031-1.285,0.393-2.394,1.274-3.324c0.88-0.931,1.959-1.411,3.236-1.442
				c1.277-0.031,2.378,0.396,3.303,1.283c0.925,0.887,1.403,1.973,1.434,3.259c0.003,0.144-0.043,0.267-0.14,0.369
				s-0.216,0.155-0.36,0.158l-7.695,0.188c0.186,0.827,0.549,1.5,1.09,2.02c0.722,0.692,1.578,1.026,2.569,1.002
				c0.452-0.011,0.868-0.095,1.25-0.251c0.381-0.156,0.729-0.377,1.041-0.662C194.165,40.443,194.271,40.401,194.393,40.398z
				 M195.257,37.209c-0.174-0.821-0.535-1.495-1.082-2.02c-0.722-0.691-1.578-1.025-2.569-1.001s-1.83,0.399-2.518,1.125
				c-0.515,0.545-0.845,1.235-0.99,2.07L195.257,37.209z"/>
			<path fill="#331842" d="M204.299,37.496l-3.238-3.713c-0.084-0.086-0.128-0.199-0.132-0.337c-0.003-0.145,0.044-0.267,0.144-0.37
				c0.1-0.102,0.221-0.155,0.364-0.159c0.143-0.003,0.269,0.046,0.375,0.149l3.137,3.599l2.965-3.748
				c0.102-0.108,0.225-0.164,0.368-0.167s0.266,0.043,0.367,0.141c0.102,0.097,0.154,0.218,0.157,0.361
				c0.003,0.133-0.033,0.248-0.107,0.344l-3.062,3.867l3.272,3.754c0.063,0.093,0.096,0.197,0.099,0.313
				c0.003,0.145-0.043,0.268-0.14,0.37s-0.217,0.155-0.36,0.159c-0.143,0.003-0.26-0.046-0.351-0.15l-3.17-3.624l-2.981,3.773
				c-0.085,0.107-0.2,0.163-0.343,0.167c-0.144,0.003-0.267-0.043-0.371-0.141c-0.104-0.097-0.158-0.218-0.162-0.361
				c-0.003-0.117,0.027-0.223,0.091-0.318L204.299,37.496z"/>
			<path fill="#331842" d="M218.396,40.787c0.143-0.003,0.267,0.043,0.371,0.141c0.104,0.097,0.158,0.218,0.162,0.362
				c0.004,0.144-0.044,0.267-0.144,0.369c-0.1,0.103-0.221,0.155-0.364,0.159c-2.169,0.053-3.28-1.012-3.333-3.196l-0.122-5.003
				l-0.851,0.021c-0.143,0.004-0.267-0.043-0.371-0.141c-0.104-0.098-0.158-0.218-0.162-0.362c-0.003-0.144,0.044-0.267,0.144-0.369
				c0.099-0.103,0.221-0.155,0.364-0.159l0.851-0.021l-0.085-3.482c-0.003-0.144,0.043-0.267,0.14-0.369
				c0.097-0.102,0.217-0.155,0.36-0.158c0.143-0.004,0.267,0.043,0.371,0.141c0.104,0.098,0.158,0.218,0.162,0.361l0.085,3.483
				l1.544-0.038c0.143-0.003,0.267,0.043,0.371,0.141c0.104,0.098,0.158,0.218,0.162,0.362c0.003,0.144-0.044,0.267-0.144,0.369
				c-0.1,0.103-0.221,0.155-0.364,0.159l-1.544,0.038l0.122,5.003C216.157,40.093,216.915,40.823,218.396,40.787z"/>
			<path fill="#331842" d="M232.886,36.808c0.031,1.286-0.393,2.394-1.274,3.325c-0.881,0.931-1.959,1.411-3.236,1.442
				c-1.277,0.031-2.378-0.396-3.303-1.283s-1.403-1.973-1.434-3.259c-0.031-1.285,0.393-2.394,1.274-3.324
				c0.88-0.931,1.959-1.411,3.236-1.442c1.277-0.031,2.378,0.396,3.303,1.283C232.377,34.437,232.855,35.522,232.886,36.808z
				 M228.174,33.297c-0.991,0.024-1.83,0.399-2.517,1.125c-0.688,0.727-1.019,1.588-0.995,2.586
				c0.024,0.997,0.397,1.842,1.119,2.534c0.722,0.692,1.578,1.026,2.569,1.002c0.991-0.024,1.83-0.399,2.518-1.126
				c0.682-0.721,1.011-1.583,0.986-2.586s-0.395-1.847-1.111-2.534C230.021,33.607,229.165,33.273,228.174,33.297z"/>
			<path fill="#331842" d="M253.943,28.162c-0.003-0.145,0.044-0.267,0.144-0.369c0.1-0.103,0.221-0.155,0.364-0.159
				c0.143-0.003,0.265,0.044,0.367,0.141s0.154,0.218,0.158,0.362l0.198,8.129c0.031,1.285-0.393,2.394-1.274,3.324
				s-1.959,1.412-3.236,1.442c-1.277,0.031-2.378-0.396-3.303-1.283s-1.403-1.973-1.434-3.258s0.393-2.394,1.274-3.325
				c0.88-0.931,1.959-1.411,3.236-1.442s2.378,0.396,3.303,1.283l0.33,0.316L253.943,28.162z M254.142,36.291
				c-0.024-1.003-0.395-1.847-1.111-2.535c-0.722-0.691-1.578-1.025-2.569-1.001s-1.83,0.399-2.518,1.125
				c-0.687,0.727-1.019,1.588-0.994,2.586c0.024,0.997,0.397,1.842,1.119,2.534c0.722,0.692,1.578,1.026,2.569,1.002
				c0.991-0.024,1.83-0.399,2.518-1.126C253.837,38.155,254.166,37.293,254.142,36.291z"/>
			<path fill="#331842" d="M267.199,38.625c0.143-0.003,0.265,0.044,0.367,0.145c0.102,0.1,0.154,0.222,0.158,0.366
				c0.003,0.145-0.038,0.265-0.123,0.361c-0.841,0.769-1.836,1.168-2.987,1.195c-1.277,0.031-2.378-0.396-3.303-1.283
				c-0.925-0.887-1.403-1.973-1.435-3.258c-0.031-1.286,0.394-2.394,1.274-3.324c0.881-0.931,1.959-1.412,3.237-1.443
				c1.277-0.031,2.378,0.396,3.303,1.283s1.403,1.973,1.435,3.259c0.003,0.144-0.043,0.267-0.14,0.369
				c-0.097,0.103-0.216,0.155-0.359,0.158l-7.695,0.188c0.186,0.827,0.549,1.5,1.09,2.02c0.722,0.692,1.579,1.026,2.569,1.002
				c0.451-0.011,0.868-0.095,1.25-0.251s0.729-0.377,1.042-0.661C266.972,38.67,267.078,38.628,267.199,38.625z M268.063,35.436
				c-0.175-0.822-0.535-1.495-1.082-2.02c-0.722-0.691-1.578-1.025-2.569-1.001c-0.991,0.024-1.83,0.399-2.517,1.125
				c-0.516,0.545-0.846,1.235-0.991,2.07L268.063,35.436z"/>
			<path fill="#331842" d="M273.687,27.664c-0.003-0.144,0.043-0.267,0.14-0.369c0.097-0.102,0.216-0.155,0.36-0.158
				c0.143-0.003,0.267,0.043,0.371,0.141c0.104,0.098,0.158,0.218,0.161,0.362l0.287,11.769l0.851-0.021
				c0.143-0.004,0.267,0.043,0.371,0.141c0.104,0.097,0.158,0.218,0.162,0.362c0.004,0.144-0.044,0.267-0.144,0.37
				c-0.1,0.103-0.221,0.155-0.364,0.158l-1.371,0.034c-0.144,0.003-0.266-0.043-0.367-0.141c-0.102-0.097-0.154-0.218-0.157-0.362
				L273.687,27.664z"/>
		</g>
	</g>
	<path fill="#F2961C" d="M99.572,88.152l-5.614,0.135l-3.3,0.081l-7.479,0.18l-0.911-37.631l23.866-0.583l12.444-0.299v1.105
		c-0.165,2.762-1.732,3.323-4.419,2.86c-1.523-0.27-3.046-0.307-4.539-0.15c-7.711,0.829-14.557,7.002-16.131,14.997
		c-0.866,4.382-0.456,8.929,1.247,12.833C95.817,84.173,97.43,86.398,99.572,88.152z"/>
	<path fill="#E9496E" d="M294.449,84.723l-185.143,3.191c-4.054-0.53-7.197-2.322-9.354-5.309c-0.239-0.336-0.462-0.679-0.672-1.037
		c-1.941-3.314-2.605-7.674-1.762-11.929c1.202-6.136,6.48-11.056,12.541-11.706c1.127-0.119,2.27-0.082,3.404,0.112
		c0.798,0.134,1.516,0.201,2.188,0.201c4.076,0,6.771-2.628,7.024-6.86l0.007-1.403v-0.052l170.847-2.847l0.754,31.047
		L294.449,84.723z"/>
	<g>
		<path fill="#FFFFFF" d="M136.804,67.904l3.028,0.068c0.055,2.28-1.327,3.471-4.148,3.57c-0.034,0.007-0.063,0.011-0.089,0.012
			c-2.686,0.065-4.066-1.421-4.14-4.459l-0.007-0.284c0.005-3.261,1.397-4.941,4.176-5.041l0.102-0.002
			c2.559-0.062,3.865,0.999,3.918,3.185c0.003,0.126,0.002,0.253-0.003,0.379l-2.729,0.219l-0.006-0.228
			c-0.028-1.149-0.478-1.714-1.351-1.692c-0.89,0.021-1.312,0.964-1.267,2.827l0.008,0.312c0.1,2.014,0.574,3.011,1.421,2.99
			l0.076-0.002c0.736-0.062,1.095-0.491,1.075-1.287C136.864,68.301,136.842,68.112,136.804,67.904z"/>
		<path fill="#FFFFFF" d="M145.215,61.869c2.881-0.07,4.358,1.386,4.431,4.367c0.003,0.12,0.001,0.24-0.004,0.36
			c-0.04,3.23-1.534,4.897-4.482,5.001c-0.034,0.007-0.068,0.011-0.102,0.012c-2.805,0.068-4.244-1.423-4.318-4.473l-0.006-0.265
			C140.738,63.608,142.232,61.941,145.215,61.869z M144.848,64.04c-0.53,0.152-0.882,0.675-1.055,1.571
			c-0.106,0.534-0.152,1.068-0.139,1.605c0.009,0.36,0.043,0.723,0.103,1.088c0.157,0.906,0.605,1.366,1.343,1.379l0.089-0.002
			c0.686-0.017,1.148-0.365,1.386-1.047c0.198-0.567,0.288-1.236,0.269-2.007c-0.004-0.189-0.014-0.382-0.027-0.577
			c-0.093-1.016-0.312-1.646-0.656-1.89c-0.216-0.146-0.472-0.216-0.768-0.209C145.224,63.955,145.042,63.984,144.848,64.04z"/>
		<path fill="#FFFFFF" d="M152.568,61.443l0.165,1.541c0.336-0.83,1.262-1.269,2.778-1.318l0.051-0.001
			c1.491-0.037,2.519,0.375,3.082,1.233c0.387,0.585,0.608,1.97,0.661,4.155c0.026,1.074,0.011,2.344-0.047,3.812l-3.076,0.074
			c0.062-1.954,0.081-3.468,0.055-4.542c-0.013-0.537-0.036-0.966-0.069-1.287c-0.108-0.946-0.526-1.409-1.255-1.392
			c-0.729,0.018-1.18,0.281-1.354,0.791l0.294,6.866l-2.986,0.092c-0.07-2.905-0.281-6.165-0.632-9.777L152.568,61.443z"/>
		<path fill="#FFFFFF" d="M162.089,61.8c-0.021-0.17-0.034-0.344-0.038-0.521c-0.014-0.594,0.051-1.205,0.197-1.834
			c0.175-0.82,0.752-1.485,1.731-1.996c0.729-0.384,1.656-0.59,2.783-0.617c0.373-0.009,0.771,0.003,1.196,0.037l0.025,2.075
			c-0.255-0.019-0.493-0.025-0.712-0.021c-0.704,0.018-1.217,0.159-1.542,0.427c-0.358,0.28-0.527,0.815-0.507,1.604
			c0.004,0.189,0.022,0.397,0.053,0.625l2.719-0.094l0.047,1.923l-2.793,0.201c0.118,2.07,0.2,4.027,0.245,5.872
			c0.014,0.556,0.022,1.099,0.027,1.63l-3.226,0.183c-0.026-2.104-0.044-4.593-0.055-7.469l-2.057,0.126l-0.101-2.035L162.089,61.8z
			"/>
		<path fill="#FFFFFF" d="M172.914,70.769l-3.159,0.295c-0.017-2.091-0.049-4.104-0.096-6.037c-0.066-2.715-0.163-5.276-0.289-7.681
			l3.113-0.114c0.003,1.548,0.025,3.137,0.065,4.767C172.616,64.811,172.738,67.733,172.914,70.769z"/>
		<path fill="#FFFFFF" d="M177.279,58.908c0.009,0.385-0.165,0.718-0.522,0.998c-0.358,0.28-0.795,0.427-1.312,0.439
			c-0.508,0.013-0.948-0.112-1.319-0.375c-0.371-0.263-0.561-0.587-0.57-0.972c-0.01-0.379,0.165-0.708,0.522-0.989
			c0.357-0.281,0.791-0.427,1.299-0.439c0.517-0.013,0.96,0.112,1.332,0.375S177.27,58.529,177.279,58.908z M174.164,70.947
			c-0.149-3.693-0.256-6.886-0.322-9.576l3.2-0.22c-0.039,2.58-0.027,5.142,0.035,7.687c0.017,0.683,0.037,1.361,0.062,2.037
			L174.164,70.947z"/>
		<path fill="#FFFFFF" d="M183.372,66.77l3.028,0.068c0.056,2.28-1.327,3.471-4.148,3.571c-0.034,0.007-0.063,0.011-0.088,0.012
			c-2.686,0.065-4.066-1.421-4.14-4.459l-0.007-0.284c0.005-3.262,1.397-4.942,4.175-5.041l0.102-0.003
			c2.559-0.062,3.865,1,3.918,3.185c0.003,0.127,0.002,0.253-0.003,0.38l-2.729,0.218l-0.005-0.227
			c-0.028-1.15-0.479-1.714-1.351-1.693c-0.89,0.022-1.312,0.964-1.267,2.828l0.008,0.312c0.1,2.014,0.573,3.01,1.421,2.99
			l0.076-0.002c0.736-0.062,1.094-0.491,1.075-1.287C183.432,67.166,183.411,66.978,183.372,66.77z"/>
		<path fill="#FFFFFF" d="M189.358,57.77l2.882-0.212l0.076,3.136l2.426-0.106l0.082,1.79l-2.463,0.145l0.105,4.311
			c0.024,1.004,0.608,1.492,1.752,1.464c0.237-0.005,0.495-0.034,0.774-0.085l-0.063,2.087c-0.406,0.048-0.791,0.077-1.155,0.085
			c-2.678,0.065-4.067-0.931-4.168-2.989l-0.113-4.633l-2.082,0.146l-0.103-2.112l2.136-0.033L189.358,57.77z"/>
		<path fill="#FFFFFF" d="M200.312,60.527c2.88-0.07,4.357,1.385,4.43,4.366c0.003,0.12,0.001,0.24-0.004,0.36
			c-0.04,3.23-1.534,4.897-4.482,5.001c-0.034,0.007-0.068,0.011-0.102,0.012c-2.805,0.068-4.244-1.423-4.318-4.474l-0.006-0.265
			C195.835,62.267,197.329,60.6,200.312,60.527z M199.944,62.697c-0.53,0.152-0.882,0.676-1.055,1.571
			c-0.106,0.533-0.152,1.068-0.139,1.605c0.008,0.36,0.043,0.723,0.103,1.087c0.158,0.907,0.605,1.367,1.343,1.379l0.089-0.002
			c0.686-0.017,1.148-0.366,1.386-1.048c0.198-0.567,0.288-1.236,0.269-2.007c-0.004-0.189-0.014-0.382-0.026-0.578
			c-0.093-1.015-0.312-1.645-0.657-1.889c-0.215-0.146-0.472-0.216-0.768-0.209C200.32,62.612,200.138,62.642,199.944,62.697z"/>
		<path fill="#FFFFFF" d="M214.984,59.895c2.79,0.046,4.209,1.058,4.258,3.034l0.164,6.727l-2.961,0.11l-0.123-0.897
			c-0.598,0.533-1.4,0.811-2.409,0.836c-0.432,0.01-0.899-0.028-1.401-0.117c-1.507-0.242-2.277-1.089-2.313-2.542
			c-0.004-0.177,0.004-0.367,0.024-0.57c0.133-1.501,1.542-2.284,4.229-2.35c0.517-0.013,1.085,0.002,1.705,0.044l-0.027-1.099
			c-0.021-0.891-0.41-1.327-1.164-1.309l-0.051,0.001c-0.06-0.004-0.115-0.006-0.166-0.005c-0.822,0.02-1.221,0.529-1.196,1.526
			l0.003,0.143l-3.03-0.116c-0.054-2.204,1.343-3.341,4.19-3.41L214.984,59.895z M216.234,67.354l-0.041-1.667
			c-0.365-0.048-0.697-0.069-0.993-0.061c-0.771,0.019-1.292,0.224-1.562,0.616c-0.164,0.238-0.243,0.458-0.238,0.66
			c0.006,0.252,0.147,0.474,0.423,0.663c0.215,0.146,0.493,0.215,0.832,0.207C215.087,67.761,215.613,67.622,216.234,67.354z"/>
		<path fill="#FFFFFF" d="M223.642,62.897l0.294,6.866l-3.113,0.095c-0.071-2.905-0.282-6.165-0.632-9.777l2.334-0.247l0.165,1.541
			c0.337-0.767,1.157-1.219,2.459-1.359c0.194-0.017,0.381-0.028,0.559-0.032c1.025-0.025,1.811,0.206,2.357,0.691
			c0.633,0.579,0.969,1.516,1.009,2.81l-2.816,0.277c0.006-0.107,0.008-0.211,0.005-0.312c-0.025-1.011-0.389-1.507-1.092-1.49
			l-0.051,0.001C224.307,62.013,223.814,62.325,223.642,62.897z"/>
		<path fill="#FFFFFF" d="M231.877,59.559l0.087,1.515c0.44-0.737,0.958-1.202,1.556-1.393c0.354-0.11,0.712-0.169,1.077-0.178
			c0.271-0.006,0.543,0.012,0.815,0.056c0.664,0.11,1.146,0.604,1.448,1.481c0.204-0.694,0.574-1.163,1.11-1.406
			c0.536-0.244,1.135-0.377,1.796-0.399l0.051-0.001c0.644-0.016,1.266,0.086,1.864,0.306c0.607,0.225,1.078,0.664,1.412,1.316
			c0.333,0.653,0.523,1.554,0.568,2.703l0.134,5.504l-2.744,0.114c0.06-2.081,0.071-3.851,0.036-5.31
			c-0.036-1.459-0.428-2.236-1.176-2.332c-0.11-0.01-0.216-0.013-0.318-0.011c-0.593,0.015-1.044,0.31-1.352,0.886
			c-0.035,0.658-0.042,1.426-0.02,2.304c0.029,1.194,0.109,2.585,0.241,4.175l-3.177,0.096c0.059-2.447,0.075-4.229,0.048-5.348
			l-0.003-0.114c-0.035-1.105-0.342-1.679-0.919-1.722l-0.165,0.004c-0.517,0.012-1.011,0.246-1.484,0.7l0.194,6.935l-2.997,0.158
			l-0.038-1.554c-0.067-2.754-0.189-5.503-0.366-8.248L231.877,59.559z"/>
		<path fill="#FFFFFF" d="M249.237,59.061c2.791,0.046,4.209,1.057,4.258,3.034l0.164,6.727l-2.96,0.11l-0.124-0.897
			c-0.597,0.533-1.4,0.811-2.408,0.836c-0.433,0.01-0.899-0.029-1.402-0.118c-1.506-0.241-2.277-1.088-2.313-2.541
			c-0.004-0.177,0.004-0.366,0.024-0.569c0.133-1.501,1.542-2.284,4.229-2.35c0.517-0.013,1.085,0.002,1.705,0.044l-0.027-1.099
			c-0.021-0.89-0.41-1.327-1.164-1.308l-0.051,0.001c-0.06-0.005-0.115-0.007-0.166-0.005c-0.822,0.02-1.221,0.529-1.196,1.527
			l0.003,0.142l-3.03-0.116c-0.053-2.204,1.343-3.341,4.19-3.411L249.237,59.061z M250.487,66.52l-0.041-1.668
			c-0.366-0.048-0.697-0.068-0.994-0.061c-0.771,0.019-1.292,0.224-1.562,0.617c-0.164,0.237-0.243,0.458-0.238,0.66
			c0.006,0.252,0.147,0.474,0.423,0.663c0.215,0.146,0.493,0.216,0.832,0.207C249.339,66.926,249.866,66.787,250.487,66.52z"/>
		<path fill="#FFFFFF" d="M263.961,55.299c0.001,2.136,0.03,4.376,0.087,6.719c0.052,2.135,0.127,4.357,0.226,6.668l-3.012,0.083
			l-0.137-1.447c-0.61,0.716-1.436,1.087-2.478,1.113c-2.602,0.063-3.938-1.39-4.01-4.358c-0.001-0.062,0.001-0.126,0.008-0.189
			c-0.021-2.976,1.23-4.495,3.755-4.557c0.102-0.002,0.208-0.001,0.318,0.002c0.865,0.017,1.573,0.351,2.123,1
			c-0.034-1.402-0.121-3.052-0.26-4.951L263.961,55.299z M261.027,65.381l-0.143-3.277c-0.504-0.487-1.014-0.724-1.531-0.711
			c-0.212,0.005-0.423,0.051-0.632,0.139c-0.664,0.275-0.98,1.01-0.951,2.204c0.003,0.139,0.011,0.281,0.023,0.426
			c0.12,1.445,0.571,2.198,1.352,2.261c0.077,0.005,0.153,0.006,0.229,0.004C260.052,66.409,260.603,66.061,261.027,65.381z"/>
		<path fill="#FFFFFF" d="M269.528,58.841c2.88-0.07,4.357,1.386,4.43,4.367c0.003,0.12,0.002,0.24-0.004,0.36
			c-0.04,3.23-1.534,4.897-4.481,5c-0.034,0.007-0.068,0.011-0.102,0.012c-2.805,0.068-4.244-1.423-4.318-4.474l-0.006-0.266
			C265.051,60.581,266.545,58.914,269.528,58.841z M269.161,61.012c-0.53,0.152-0.882,0.676-1.055,1.571
			c-0.106,0.534-0.152,1.069-0.139,1.605c0.009,0.36,0.043,0.723,0.103,1.087c0.158,0.906,0.605,1.366,1.343,1.38l0.089-0.002
			c0.687-0.017,1.148-0.366,1.386-1.048c0.198-0.567,0.288-1.236,0.269-2.007c-0.004-0.189-0.014-0.382-0.027-0.578
			c-0.093-1.015-0.312-1.645-0.656-1.889c-0.215-0.146-0.472-0.216-0.768-0.208C269.536,60.927,269.355,60.956,269.161,61.012z"/>
	</g>
	<path fill="#A0C219" d="M118.466,92.526c0,6.435,0.044,12.467-0.03,18.409l-4.098,0.105L91.226,111.6l-0.567-23.231l-0.157-6.195
		l-0.007-0.389l4.24-0.104c1.083,2.493,2.695,4.718,4.837,6.472c2.411,1.979,5.501,3.352,9.271,3.837
		c0.955,0.127,1.948,0.194,2.994,0.194C113.935,92.191,116.025,92.393,118.466,92.526z"/>
	<path fill="#ADC710" d="M122.542,110.838c0.052-4.187,0.045-8.405,0.037-12.802c-0.007-1.807-0.007-3.644-0.007-5.51v-3.881
		l-3.882-0.217c-0.754-0.044-1.478-0.089-2.172-0.141c-1.597-0.105-3.106-0.21-4.68-0.21c-0.836,0-1.643-0.052-2.471-0.156
		c-0.022,0-0.038-0.007-0.06-0.007c-4.054-0.53-7.197-2.322-9.354-5.309c-0.239-0.336-0.462-0.679-0.672-1.037l224.779-4.841
		l0.724,29.815L122.542,110.838z"/>
	<g>
		<g>
			<path fill="#FFFFFF" d="M138.082,91.855c2.94-0.072,4.446,1.349,4.517,4.26c0.009,0.354-0.003,0.733-0.036,1.139l-5.681,0.138
				c0.04,1.624,0.479,2.425,1.317,2.404l0.089-0.002c0.736-0.062,1.095-0.492,1.075-1.288c-0.004-0.17-0.026-0.359-0.064-0.567
				l3.023-0.121c0.059,2.406-1.322,3.659-4.143,3.76c-0.034,0.007-0.063,0.011-0.089,0.012c-2.686,0.065-4.066-1.421-4.14-4.459
				l-0.007-0.284C133.949,93.586,135.328,91.922,138.082,91.855z M136.534,95.656l2.873-0.07l-0.005-0.228
				c-0.028-1.149-0.479-1.714-1.352-1.693C137.109,93.689,136.604,94.353,136.534,95.656z"/>
			<path fill="#FFFFFF" d="M145.778,91.421l0.165,1.542c0.336-0.83,1.262-1.27,2.778-1.319l0.051-0.002
				c1.491-0.036,2.519,0.375,3.083,1.233c0.387,0.585,0.607,1.97,0.661,4.155c0.026,1.074,0.01,2.345-0.047,3.812l-3.076,0.075
				c0.062-1.954,0.081-3.468,0.055-4.542c-0.013-0.537-0.037-0.966-0.07-1.288c-0.108-0.945-0.526-1.409-1.255-1.391
				c-0.729,0.018-1.18,0.281-1.354,0.791l0.294,6.866l-2.986,0.091c-0.071-2.905-0.282-6.164-0.632-9.776L145.778,91.421z"/>
			<path fill="#FFFFFF" d="M168.062,92.063l-2.821,0.078l-0.006-0.256c-0.037-1.484-0.614-2.213-1.732-2.186
				c-1.194,0.029-1.758,1.414-1.692,4.155c0.075,3.089,0.74,4.618,1.994,4.587l0.013,0c1.253-0.037,1.862-0.81,1.826-2.32
				l-0.023-0.938l3.152-0.076l0.018,0.71c0.077,3.145-1.616,4.833-5.078,5.062c-0.102,0.009-0.203,0.015-0.305,0.017
				c-3.262,0.079-4.95-2.218-5.064-6.892c-0.111-4.573,1.51-6.9,4.866-6.982c3.16-0.077,4.778,1.413,4.853,4.47
				C168.065,91.678,168.065,91.867,168.062,92.063z"/>
			<path fill="#FFFFFF" d="M173.898,90.982c2.881-0.07,4.357,1.386,4.43,4.367c0.003,0.12,0.001,0.24-0.004,0.36
				c-0.04,3.23-1.534,4.897-4.482,5c-0.034,0.007-0.068,0.011-0.102,0.012c-2.805,0.068-4.244-1.423-4.318-4.473l-0.006-0.266
				C169.421,92.722,170.915,91.055,173.898,90.982z M173.531,93.153c-0.531,0.152-0.882,0.675-1.056,1.571
				c-0.105,0.533-0.152,1.069-0.139,1.605c0.009,0.36,0.043,0.723,0.103,1.088c0.158,0.906,0.605,1.366,1.344,1.38l0.089-0.002
				c0.686-0.017,1.148-0.366,1.386-1.048c0.198-0.567,0.288-1.236,0.27-2.006c-0.005-0.189-0.014-0.383-0.027-0.578
				c-0.093-1.015-0.312-1.645-0.657-1.889c-0.215-0.146-0.472-0.216-0.768-0.209C173.906,93.068,173.725,93.098,173.531,93.153z"/>
			<path fill="#FFFFFF" d="M182.723,100.342l-3.159,0.295c-0.017-2.091-0.049-4.104-0.096-6.036
				c-0.066-2.716-0.163-5.276-0.289-7.681l3.113-0.114c0.004,1.548,0.026,3.137,0.065,4.767
				C182.425,94.384,182.547,97.307,182.723,100.342z"/>
			<path fill="#FFFFFF" d="M188.057,90.638c2.88-0.07,4.357,1.386,4.43,4.367c0.003,0.12,0.001,0.24-0.004,0.36
				c-0.041,3.23-1.534,4.897-4.482,5c-0.034,0.007-0.068,0.011-0.102,0.012c-2.805,0.068-4.244-1.423-4.318-4.473l-0.006-0.265
				C183.58,92.377,185.074,90.71,188.057,90.638z M187.689,92.809c-0.53,0.151-0.882,0.675-1.055,1.57
				c-0.106,0.534-0.152,1.069-0.139,1.605c0.009,0.36,0.043,0.723,0.103,1.088c0.158,0.906,0.605,1.366,1.343,1.38l0.089-0.002
				c0.687-0.017,1.148-0.366,1.386-1.048c0.198-0.567,0.288-1.236,0.269-2.007c-0.004-0.189-0.014-0.382-0.026-0.578
				c-0.093-1.015-0.312-1.645-0.657-1.89c-0.215-0.146-0.472-0.216-0.768-0.209C188.064,92.723,187.883,92.753,187.689,92.809z"/>
			<path fill="#FFFFFF" d="M195.118,90.267l0.088,1.515c0.44-0.737,0.958-1.202,1.556-1.394c0.354-0.109,0.712-0.169,1.077-0.178
				c0.271-0.006,0.542,0.012,0.815,0.056c0.664,0.11,1.146,0.604,1.448,1.481c0.204-0.694,0.574-1.163,1.11-1.407
				c0.537-0.243,1.135-0.376,1.796-0.399l0.051-0.001c0.644-0.016,1.265,0.087,1.864,0.306c0.607,0.225,1.078,0.664,1.412,1.316
				s0.523,1.553,0.568,2.702l0.134,5.505l-2.744,0.114c0.06-2.081,0.072-3.851,0.036-5.31s-0.428-2.236-1.176-2.332
				c-0.111-0.01-0.217-0.014-0.318-0.012c-0.593,0.015-1.044,0.31-1.352,0.886c-0.035,0.658-0.042,1.426-0.02,2.304
				c0.029,1.194,0.109,2.585,0.242,4.175l-3.177,0.096c0.059-2.447,0.075-4.23,0.048-5.348l-0.002-0.114
				c-0.036-1.105-0.342-1.679-0.919-1.722l-0.166,0.004c-0.517,0.013-1.011,0.246-1.483,0.7l0.194,6.935l-2.998,0.158l-0.038-1.554
				c-0.067-2.753-0.189-5.503-0.366-8.249L195.118,90.267z"/>
			<path fill="#FFFFFF" d="M210.933,86.402c-0.047,1.903-0.053,3.557-0.019,4.958c0.435-0.611,0.998-0.975,1.69-1.093
				c0.118-0.009,0.232-0.016,0.343-0.018c2.762-0.067,4.209,1.386,4.341,4.359l0.004,0.17c0.073,2.981-1.361,4.508-4.301,4.579
				c-0.704,0.018-1.377-0.317-2.021-1.003l-0.066,1.452l-3.013,0.064c-0.014-2.313-0.047-4.537-0.099-6.671
				c-0.057-2.343-0.137-4.582-0.24-6.715L210.933,86.402z M210.957,93.133l0.017,3.279c0.457,0.659,1.024,0.979,1.702,0.963
				c0.076-0.002,0.152-0.007,0.229-0.015c0.777-0.101,1.19-0.892,1.239-2.372c0.005-0.152,0.005-0.297,0.002-0.436
				c-0.029-1.213-0.377-1.928-1.044-2.146c-0.205-0.064-0.405-0.095-0.6-0.09C211.968,92.331,211.453,92.603,210.957,93.133z"/>
			<path fill="#FFFFFF" d="M221.684,87.639c0.009,0.385-0.165,0.718-0.523,0.998c-0.357,0.281-0.795,0.427-1.312,0.439
				c-0.508,0.013-0.948-0.112-1.319-0.375c-0.371-0.263-0.561-0.587-0.57-0.972c-0.009-0.379,0.165-0.708,0.523-0.989
				c0.357-0.28,0.791-0.427,1.299-0.439c0.517-0.013,0.961,0.112,1.332,0.375C221.484,86.938,221.675,87.26,221.684,87.639z
				 M218.569,99.678c-0.149-3.693-0.256-6.885-0.322-9.576l3.2-0.22c-0.039,2.58-0.027,5.142,0.034,7.687
				c0.017,0.683,0.038,1.361,0.062,2.037L218.569,99.678z"/>
			<path fill="#FFFFFF" d="M227.348,89.406c2.79,0.046,4.209,1.057,4.258,3.034l0.164,6.727l-2.96,0.11l-0.124-0.898
				c-0.597,0.533-1.4,0.812-2.409,0.836c-0.432,0.011-0.899-0.028-1.401-0.117c-1.507-0.241-2.278-1.088-2.313-2.541
				c-0.004-0.177,0.004-0.366,0.024-0.569c0.133-1.501,1.542-2.284,4.229-2.35c0.517-0.013,1.085,0.002,1.705,0.043l-0.027-1.099
				c-0.022-0.891-0.41-1.327-1.164-1.309l-0.051,0.001c-0.06-0.004-0.115-0.006-0.166-0.005c-0.822,0.021-1.221,0.529-1.197,1.527
				l0.004,0.142l-3.03-0.115c-0.054-2.205,1.343-3.342,4.19-3.411L227.348,89.406z M228.598,96.865l-0.041-1.667
				c-0.366-0.048-0.697-0.068-0.993-0.062c-0.771,0.019-1.292,0.225-1.562,0.616c-0.164,0.238-0.243,0.458-0.238,0.66
				c0.006,0.253,0.147,0.474,0.423,0.663c0.216,0.146,0.493,0.215,0.832,0.207C227.451,97.271,227.977,97.132,228.598,96.865z"/>
		</g>
	</g>
	<path fill-rule="evenodd" clip-rule="evenodd" fill="#E9496E" d="M118.365,30.055c-0.025-0.074-0.05-0.142-0.074-0.209
		c-0.135-0.327-0.308-0.591-0.518-0.826c0,0-0.012-0.005-0.018-0.019c-0.665-0.696-1.725-1.01-3.29-0.979
		c-7.239,0.129-14.477,0.037-21.721,0.026c-0.443,0-0.868-0.007-1.256-0.026h-0.006c-4.22-0.166-4.565-1.244-2.914-5.846
		c3.29-9.179-1.436-18.721-10.583-21.401c-1.318-0.388-2.624-0.623-3.912-0.721c-2.582-0.197-5.064,0.155-7.332,0.949
		c-7.54,2.648-12.671,10.202-10.829,18.746c1.799,8.334,1.799,8.316-7.146,8.273c-6.573-0.031-13.14-0.006-19.479-0.006v27.604
		c-0.53,2.674-2.224,3.105-5.816,1.867c-8.803-3.031-17.636,0.129-21.573,7.706c-3.21,6.18-2.279,14.071,2.267,19.27
		c4.423,5.058,12.302,6.993,18.863,4.621c3.881-1.405,5.55-1.368,6.179,0.979c-0.006,0-0.012-0.006-0.019-0.006v27.519
		c0.493,0.08,0.973,0.228,1.454,0.228h0.295c7.386,0.05,14.784,0.031,22.171,0.136c1.189,0.019,2.07,0.129,2.698,0.381
		c1.509,0.598,1.54,1.997,0.893,4.744c-0.794,3.414-1.521,7.25-0.751,10.541c1.959,8.372,9.666,13.183,18.086,12.369
		c1.43-0.135,2.884-0.438,4.337-0.911c9.136-2.982,13.239-12.247,9.66-21.814c-1.492-4.01-0.888-4.929,3.406-4.929
		c0.53,0,1.017-0.154,1.466-0.407c1.411,0,2.804,0,4.189,0.007h3.295c0.85,0.006,1.694,0.006,2.532,0h0.924
		c0.702,0,1.404,0,2.106-0.007c0.364,0,0.728,0,1.092-0.006c0.671,0,1.336-0.006,2.008-0.012c0.363,0,0.733,0,1.097-0.006
		c0.702-0.007,1.404-0.012,2.101-0.025c0.32-0.005,0.646-0.005,0.967-0.012c0.684-0.007,1.367-0.019,2.051-0.037
		c0.333,0,0.66-0.013,0.992-0.019c0.746-0.012,2.082-1.663,2.107-2.569c0.172-7.349,0.099-14.711,0.099-22.701
		c-2.44-0.136-4.528-0.339-6.629-0.345c-1.041,0-2.033-0.068-2.988-0.191c-12.388-1.583-17.39-12.826-15.357-23.144
		c1.571-7.99,8.42-14.169,16.134-14.994c1.491-0.161,3.012-0.118,4.534,0.146c2.686,0.463,4.257-0.098,4.423-2.857v-1.152
		c-0.012-5.914-0.012-11.822,0.074-17.736C118.672,31.379,118.58,30.646,118.365,30.055z"/>
	<g>
		<g>
			<path fill="#FFFFFF" d="M36.548,95.532H48.2c3.589,0,5.384,2.203,5.384,6.606v0.348c-0.314,3.688-1.818,5.595-4.512,5.721
				c-5.38,0-9.622,0.074-12.724,0.221v-4.204c1.775,0.105,3.86,0.158,6.256,0.158c1.681,0,3.519-0.026,5.514-0.079
				c1.461-0.021,2.191-0.727,2.191-2.118c0.008,0,0.012-0.005,0.012-0.016c0-1.38-0.935-2.071-2.804-2.071l-10.862,0.079
				L36.548,95.532z"/>
			<path fill="#FFFFFF" d="M41.414,91.233l1.92-0.158c-1.021-0.443-1.539-1.607-1.555-3.493V87.52c0-1.854,0.542-3.119,1.626-3.793
				c0.738-0.464,2.466-0.695,5.184-0.695c1.335,0,2.914,0.058,4.736,0.174v3.824c-2.427-0.137-4.308-0.205-5.643-0.205
				c-0.668,0-1.202,0.016-1.603,0.047c-1.178,0.105-1.767,0.611-1.767,1.517s0.314,1.476,0.942,1.707l8.542-0.158l0.023,3.714
				c-3.613,0-7.669,0.164-12.17,0.49L41.414,91.233z"/>
			<path fill="#FFFFFF" d="M39.01,77.294c0.479,0,0.888,0.227,1.225,0.68c0.338,0.453,0.507,1.001,0.507,1.644
				c0,0.632-0.169,1.175-0.507,1.628c-0.337,0.453-0.746,0.68-1.225,0.68c-0.471,0-0.875-0.227-1.213-0.68s-0.507-0.996-0.507-1.628
				c0-0.643,0.169-1.19,0.507-1.644S38.539,77.294,39.01,77.294z M53.878,81.53c-4.595,0.074-8.565,0.111-11.911,0.111l-0.177-3.983
				c3.205,0.127,6.39,0.19,9.555,0.19c0.849,0,1.693-0.005,2.533-0.016V81.53z"/>
			<path fill="#FFFFFF" d="M37.149,64.477c2.655,0.062,5.439,0.095,8.353,0.095c2.655,0,5.419-0.026,8.294-0.079l0.012,3.746
				l-1.803,0.126c0.872,0.78,1.308,1.817,1.308,3.113c0,3.235-1.846,4.853-5.538,4.853c-0.078,0-0.157-0.005-0.235-0.016
				c-3.699-0.063-5.549-1.665-5.549-4.805c0-0.126,0.004-0.258,0.012-0.395c0.047-1.075,0.483-1.944,1.308-2.608
				c-1.744,0-3.797,0.058-6.162,0.174V64.477z M49.59,68.428l-4.076,0.079c-0.621,0.611-0.931,1.238-0.931,1.881
				c0,0.263,0.051,0.527,0.153,0.791c0.322,0.832,1.226,1.248,2.71,1.248c0.173,0,0.35-0.005,0.53-0.016
				c1.798-0.105,2.749-0.643,2.851-1.612c0.008-0.095,0.012-0.189,0.012-0.284C50.839,69.671,50.423,68.976,49.59,68.428z"/>
			<path fill="#FFFFFF" d="M41.378,57.111c0.141-3.466,1.441-5.2,3.899-5.2h8.365l0.047,3.683l-1.119,0.126
				c0.644,0.759,0.966,1.765,0.966,3.019c0,0.537-0.062,1.117-0.188,1.738c-0.345,1.865-1.421,2.798-3.228,2.798
				c-0.22,0-0.456-0.016-0.707-0.048c-1.861-0.21-2.792-1.986-2.792-5.326c0-0.643,0.035-1.349,0.106-2.117H45.36
				c-1.107,0-1.661,0.469-1.661,1.406v0.063c-0.008,0.073-0.012,0.142-0.012,0.205c0,1.022,0.621,1.533,1.861,1.533h0.177
				l-0.235,3.761c-2.741,0-4.112-1.77-4.112-5.31V57.111z M50.686,55.784h-2.073c-0.071,0.453-0.106,0.864-0.106,1.232
				c0,0.959,0.24,1.612,0.719,1.96c0.291,0.211,0.562,0.316,0.813,0.316c0.314,0,0.593-0.168,0.836-0.505
				c0.188-0.264,0.283-0.606,0.283-1.027C51.157,57.222,51,56.563,50.686,55.784z"/>
			<path fill="#FFFFFF" d="M37.149,38.699c2.655,0.062,5.439,0.095,8.353,0.095c2.655,0,5.419-0.026,8.294-0.079l0.012,3.746
				l-1.803,0.126c0.872,0.78,1.308,1.817,1.308,3.113c0,3.235-1.846,4.853-5.538,4.853c-0.078,0-0.157-0.005-0.235-0.016
				c-3.699-0.063-5.549-1.665-5.549-4.805c0-0.126,0.004-0.258,0.012-0.395c0.047-1.075,0.483-1.944,1.308-2.608
				c-1.744,0-3.797,0.058-6.162,0.174V38.699z M49.59,42.65l-4.076,0.079c-0.621,0.611-0.931,1.238-0.931,1.881
				c0,0.263,0.051,0.527,0.153,0.791c0.322,0.832,1.226,1.248,2.71,1.248c0.173,0,0.35-0.005,0.53-0.016
				c1.798-0.105,2.749-0.643,2.851-1.612c0.008-0.095,0.012-0.189,0.012-0.284C50.839,43.894,50.423,43.198,49.59,42.65z"/>
		</g>
	</g>
	<g>
		<g>
			<path fill="#FFFFFF" d="M60.825,69.71c-0.097-0.866-0.145-1.668-0.145-2.404c0-2.584,0.629-4.446,1.888-5.587
				c1.607-1.458,3.661-2.332,6.159-2.621c0.891-0.101,1.762-0.151,2.615-0.151c1.53,0,3.002,0.159,4.417,0.477
				c2.208,0.505,3.874,1.502,4.997,2.988c0.91,1.242,1.366,2.83,1.366,4.765c0,0.376-0.01,0.772-0.029,1.191
				c-0.232,2.483-1.235,4.769-3.007,6.854c-1.772,2.087-4.837,5.071-9.195,8.955l12.696,0.065l-0.087,5.436
				c-5.559,0.188-12.725,0.282-21.5,0.282l-0.668-5.913c5.268-4.245,9.025-7.508,11.272-9.789c2.053-2.093,3.08-4.15,3.08-6.172
				v-0.542c-0.213-2.166-1.434-3.248-3.661-3.248h-0.116c-1.937,0.043-2.905,1.357-2.905,3.941c0,0.491,0.029,1.018,0.087,1.581
				L60.825,69.71z"/>
		</g>
	</g>
</g>
</svg>
