<?xml version="1.0" encoding="utf-8"?>
<!-- Generator: Adobe Illustrator 16.0.0, SVG Export Plug-In . SVG Version: 6.00 Build 0)  -->
<!DOCTYPE svg PUBLIC "-//W3C//DTD SVG 1.1//EN" "http://www.w3.org/Graphics/SVG/1.1/DTD/svg11.dtd">
<svg version="1.1" id="Capa_1" xmlns="http://www.w3.org/2000/svg" xmlns:xlink="http://www.w3.org/1999/xlink" x="0px" y="0px"
	 width="457.235px" height="270.836px" viewBox="0 0 457.235 270.836" enable-background="new 0 0 457.235 270.836"
	 xml:space="preserve">
<g>
	<rect x="116.56" fill="#EA6020" width="340.677" height="270.836"/>
	<rect y="91.761" fill="#F39200" width="112.467" height="87.315"/>
	<g>
		<path fill="#FFFFFF" d="M36.397,130.268l-2.645,0.009v-0.24c0-1.391-0.524-2.087-1.572-2.087c-1.12,0-1.68,1.285-1.68,3.854
			c0,2.895,0.587,4.343,1.763,4.343h0.012c1.175-0.006,1.763-0.716,1.763-2.131v-0.879h2.955v0.666c0,2.947-1.625,4.49-4.873,4.627
			c-0.095,0.006-0.19,0.009-0.286,0.009c-3.058,0-4.586-2.19-4.586-6.572c0-4.286,1.572-6.43,4.718-6.43
			c2.962,0,4.444,1.433,4.444,4.298C36.409,129.907,36.405,130.084,36.397,130.268z"/>
		<path fill="#FFFFFF" d="M41.889,129.389c2.701,0,4.051,1.397,4.051,4.191c0,0.113-0.004,0.225-0.012,0.337
			c-0.111,3.026-1.549,4.553-4.312,4.583c-0.032,0.006-0.063,0.009-0.095,0.009c-2.629,0-3.943-1.431-3.943-4.29v-0.249
			C37.656,130.916,39.094,129.389,41.889,129.389z M41.496,131.413c-0.5,0.13-0.842,0.613-1.024,1.448
			c-0.111,0.498-0.167,0.998-0.167,1.501c0,0.337,0.024,0.678,0.071,1.021c0.127,0.853,0.536,1.294,1.228,1.323h0.083
			c0.644,0,1.084-0.315,1.323-0.95c0.198-0.527,0.298-1.151,0.298-1.874c0-0.178-0.004-0.358-0.012-0.542
			c-0.063-0.953-0.254-1.548-0.572-1.785c-0.199-0.142-0.437-0.213-0.715-0.213C41.85,131.342,41.679,131.366,41.496,131.413z"/>
		<path fill="#FFFFFF" d="M48.787,129.158l0.119,1.447c0.333-0.77,1.211-1.16,2.633-1.172h0.048c1.398,0,2.351,0.408,2.859,1.225
			c0.349,0.557,0.524,1.859,0.524,3.908c0,1.007-0.043,2.197-0.131,3.57h-2.883c0.104-1.83,0.155-3.248,0.155-4.254
			c0-0.503-0.012-0.906-0.036-1.208c-0.079-0.888-0.46-1.332-1.144-1.332s-1.112,0.237-1.287,0.71l0.119,6.438l-2.8,0.018
			c0-2.724-0.123-5.782-0.369-9.174L48.787,129.158z"/>
		<path fill="#FFFFFF" d="M57.949,126.556l2.705-0.133v2.939l2.275-0.044l0.036,1.679l-2.311,0.08v4.041
			c0,0.941,0.536,1.412,1.608,1.412c0.222,0,0.464-0.021,0.727-0.062l-0.107,1.954c-0.381,0.035-0.743,0.053-1.084,0.053
			c-2.51,0-3.789-0.965-3.836-2.895v-4.343l-1.954,0.089l-0.048-1.98l2.002,0.018L57.949,126.556z"/>
		<path fill="#FFFFFF" d="M67.122,132.142l0.119,6.438l-2.919,0.018c0-2.723-0.123-5.781-0.369-9.174l2.192-0.177l0.119,1.447
			c0.333-0.71,1.112-1.116,2.335-1.217c0.183-0.012,0.357-0.018,0.524-0.018c0.961,0,1.691,0.234,2.192,0.702
			c0.58,0.557,0.874,1.442,0.881,2.655l-2.645,0.195c0.008-0.101,0.012-0.198,0.012-0.293c0-0.947-0.33-1.421-0.989-1.421h-0.047
			C67.766,131.328,67.297,131.609,67.122,132.142z"/>
		<path fill="#FFFFFF" d="M77.189,129.389c2.7,0,4.051,1.397,4.051,4.191c0,0.113-0.004,0.225-0.012,0.337
			c-0.111,3.026-1.549,4.553-4.313,4.583c-0.032,0.006-0.063,0.009-0.095,0.009c-2.629,0-3.943-1.431-3.943-4.29v-0.249
			C72.956,130.916,74.394,129.389,77.189,129.389z M76.796,131.413c-0.5,0.13-0.842,0.613-1.024,1.448
			c-0.111,0.498-0.167,0.998-0.167,1.501c0,0.337,0.024,0.678,0.072,1.021c0.127,0.853,0.536,1.294,1.227,1.323h0.083
			c0.643,0,1.084-0.315,1.322-0.95c0.199-0.527,0.298-1.151,0.298-1.874c0-0.178-0.004-0.358-0.012-0.542
			c-0.064-0.953-0.254-1.548-0.572-1.785c-0.199-0.142-0.437-0.213-0.715-0.213C77.149,131.342,76.979,131.366,76.796,131.413z"/>
		<path fill="#FFFFFF" d="M85.243,138.358l-2.967,0.205c0.032-1.96,0.048-3.846,0.048-5.657c0-2.546-0.032-4.947-0.095-7.202
			l2.918-0.036c-0.032,1.451-0.047,2.939-0.047,4.467C85.1,132.769,85.147,135.51,85.243,138.358z"/>
	</g>
</g>
</svg>
