<?xml version="1.0" encoding="utf-8"?>
<!-- Generator: Adobe Illustrator 16.0.0, SVG Export Plug-In . SVG Version: 6.00 Build 0)  -->
<!DOCTYPE svg PUBLIC "-//W3C//DTD SVG 1.1//EN" "http://www.w3.org/Graphics/SVG/1.1/DTD/svg11.dtd">
<svg version="1.1" id="Capa_1" xmlns="http://www.w3.org/2000/svg" xmlns:xlink="http://www.w3.org/1999/xlink" x="0px" y="0px"
	 width="367.438px" height="155.855px" viewBox="0 0 367.438 155.855" enable-background="new 0 0 367.438 155.855"
	 xml:space="preserve">
<g>
	<circle fill="#331842" stroke="#A0C219" stroke-width="5" stroke-miterlimit="10" cx="183.516" cy="23.023" r="20.523"/>
	<g>
		<path fill="#E9496E" d="M177.088,19.188c-0.066-0.59-0.099-1.136-0.099-1.639c0-1.761,0.429-3.029,1.287-3.808
			c1.095-0.993,2.494-1.588,4.196-1.785c0.607-0.068,1.201-0.104,1.782-0.104c1.041,0,2.045,0.107,3.009,0.325
			c1.504,0.344,2.639,1.022,3.405,2.036c0.619,0.847,0.93,1.929,0.93,3.246c0,0.256-0.008,0.526-0.02,0.812
			c-0.158,1.691-0.842,3.249-2.05,4.67c-1.208,1.422-3.296,3.456-6.266,6.102l8.651,0.044l-0.06,3.704
			c-3.788,0.128-8.671,0.192-14.649,0.192l-0.455-4.028c3.589-2.893,6.149-5.116,7.681-6.67c1.398-1.426,2.099-2.829,2.099-4.206
			v-0.369c-0.146-1.476-0.977-2.213-2.495-2.213h-0.079c-1.32,0.029-1.979,0.925-1.979,2.687c0,0.334,0.02,0.692,0.059,1.077
			L177.088,19.188z"/>
	</g>
</g>
</svg>
