<?xml version="1.0" encoding="utf-8"?>
<!-- Generator: Adobe Illustrator 16.0.0, SVG Export Plug-In . SVG Version: 6.00 Build 0)  -->
<!DOCTYPE svg PUBLIC "-//W3C//DTD SVG 1.1//EN" "http://www.w3.org/Graphics/SVG/1.1/DTD/svg11.dtd">
<svg version="1.1" id="Capa_1" xmlns="http://www.w3.org/2000/svg" xmlns:xlink="http://www.w3.org/1999/xlink" x="0px" y="0px"
	 width="457.235px" height="314.078px" viewBox="0 0 457.235 314.078" enable-background="new 0 0 457.235 314.078"
	 xml:space="preserve">
<g>
	<rect fill-rule="evenodd" clip-rule="evenodd" fill="#F39200" width="457.235" height="40.431"/>
	<rect x="116.559" y="43.241" fill-rule="evenodd" clip-rule="evenodd" fill="#F39200" width="340.676" height="270.837"/>
	<rect y="43.241" fill-rule="evenodd" clip-rule="evenodd" fill="#F39200" width="112.467" height="87.315"/>
	<rect y="135.002" fill-rule="evenodd" clip-rule="evenodd" fill="#F39200" width="112.467" height="87.315"/>
	<rect y="226.763" fill-rule="evenodd" clip-rule="evenodd" fill="#F39200" width="112.467" height="87.315"/>
	<g>
		<g>
			<path fill="#FFFFFF" d="M155.635,27.372c0.016-1.995,0.024-4.049,0.024-6.163c0-2.12-0.008-4.295-0.024-6.527
				c0.913-0.083,1.755-0.125,2.526-0.125c2.145,0,3.725,0.32,4.742,0.959c1.382,0.876,2.104,2.495,2.168,4.857v0.64
				c0,2.025-0.262,3.469-0.786,4.334c-0.58,0.953-1.64,1.586-3.181,1.9c-0.889,0.184-1.866,0.275-2.931,0.275
				C157.378,27.523,156.532,27.473,155.635,27.372z M158.589,17.222c-0.135,1.948-0.203,3.831-0.203,5.648
				c0,0.687,0.008,1.362,0.024,2.025c0.278,0.047,0.544,0.071,0.798,0.071c0.699,0,1.287-0.181,1.763-0.542
				c0.651-0.485,0.977-1.575,0.977-3.268V21.12c-0.008-1.705-0.326-2.824-0.953-3.357c-0.484-0.402-1.06-0.604-1.728-0.604
				C159.054,17.159,158.827,17.18,158.589,17.222z"/>
			<path fill="#FFFFFF" d="M169.835,18.589c2.756,0,4.134,1.365,4.134,4.094c0,0.332-0.02,0.687-0.06,1.066h-5.326
				c0,1.521,0.393,2.282,1.18,2.282h0.083c0.691-0.042,1.036-0.435,1.036-1.181c0-0.16-0.016-0.337-0.047-0.533l2.835-0.044
				c0,2.256-1.323,3.398-3.967,3.428c-0.032,0.006-0.06,0.009-0.083,0.009c-2.518,0-3.777-1.424-3.777-4.272v-0.266
				C165.924,20.117,167.254,18.589,169.835,18.589z M168.299,22.115h2.692v-0.213c0-1.078-0.409-1.617-1.227-1.617
				C168.882,20.285,168.394,20.895,168.299,22.115z"/>
			<path fill="#FFFFFF" d="M178.032,21.342l0.119,6.438l-2.919,0.018c0-2.723-0.123-5.781-0.369-9.174l2.192-0.177l0.119,1.447
				c0.333-0.71,1.112-1.116,2.335-1.217c0.183-0.012,0.357-0.018,0.524-0.018c0.961,0,1.691,0.234,2.192,0.702
				c0.58,0.557,0.874,1.442,0.882,2.655l-2.645,0.195c0.008-0.101,0.012-0.198,0.012-0.293c0-0.947-0.33-1.421-0.989-1.421h-0.047
				C178.675,20.528,178.207,20.81,178.032,21.342z"/>
			<path fill="#FFFFFF" d="M187.777,18.589c2.756,0,4.134,1.365,4.134,4.094c0,0.332-0.02,0.687-0.06,1.066h-5.326
				c0,1.521,0.393,2.282,1.18,2.282h0.083c0.691-0.042,1.036-0.435,1.036-1.181c0-0.16-0.016-0.337-0.047-0.533l2.835-0.044
				c0,2.256-1.323,3.398-3.967,3.428c-0.032,0.006-0.06,0.009-0.083,0.009c-2.518,0-3.777-1.424-3.777-4.272v-0.266
				C183.866,20.117,185.196,18.589,187.777,18.589z M186.241,22.115h2.692v-0.213c0-1.078-0.409-1.617-1.227-1.617
				C186.824,20.285,186.336,20.895,186.241,22.115z"/>
			<path fill="#FFFFFF" d="M197.678,24.051l2.835,0.133c0,2.137-1.323,3.221-3.967,3.25c-0.032,0.006-0.06,0.009-0.083,0.009
				c-2.518,0-3.777-1.424-3.777-4.271v-0.267c0.079-3.055,1.422-4.597,4.027-4.627h0.095c2.399,0,3.598,1.024,3.598,3.073
				c0,0.119-0.004,0.237-0.012,0.355l-2.562,0.142v-0.213c0-1.078-0.409-1.616-1.227-1.616c-0.834,0-1.251,0.874-1.251,2.62v0.293
				c0.048,1.889,0.469,2.833,1.263,2.833h0.072c0.691-0.041,1.036-0.435,1.036-1.181C197.725,24.424,197.709,24.246,197.678,24.051z
				"/>
			<path fill="#FFFFFF" d="M204.337,14.983l0.119,5c0.333-0.77,1.112-1.16,2.335-1.172h0.036c1.208,0,2.065,0.409,2.573,1.226
				c0.349,0.557,0.524,1.859,0.524,3.908c0,1.006-0.044,2.197-0.131,3.57h-3.002c0.103-1.829,0.155-3.247,0.155-4.254
				c0-0.503-0.012-0.906-0.036-1.208c-0.079-0.888-0.421-1.332-1.024-1.332c-0.604,0-0.993,0.237-1.167,0.71l0.119,6.438
				l-2.919,0.018c0-2.723-0.163-6.995-0.489-12.815L204.337,14.983z"/>
			<path fill="#FFFFFF" d="M215.119,18.589c2.7,0,4.051,1.397,4.051,4.191c0,0.113-0.004,0.225-0.012,0.337
				c-0.111,3.026-1.549,4.553-4.313,4.583c-0.032,0.006-0.063,0.009-0.095,0.009c-2.629,0-3.943-1.43-3.943-4.29v-0.249
				C210.886,20.117,212.323,18.589,215.119,18.589z M214.726,20.614c-0.5,0.13-0.842,0.613-1.024,1.448
				c-0.111,0.498-0.167,0.998-0.167,1.501c0,0.337,0.024,0.678,0.072,1.021c0.127,0.853,0.536,1.294,1.227,1.323h0.083
				c0.643,0,1.084-0.316,1.323-0.95c0.198-0.527,0.298-1.151,0.298-1.874c0-0.178-0.004-0.358-0.012-0.542
				c-0.063-0.953-0.254-1.548-0.572-1.785c-0.199-0.142-0.437-0.213-0.715-0.213C215.079,20.543,214.909,20.567,214.726,20.614z"/>
			<path fill="#FFFFFF" d="M219.682,24.557l2.728-0.098v0.115c0,0.912,0.377,1.374,1.132,1.386h0.048
				c0.73,0,1.096-0.264,1.096-0.791v-0.062c-0.032-0.581-0.753-1.048-2.162-1.403c-1.41-0.355-2.258-0.953-2.543-1.794
				c-0.104-0.296-0.155-0.58-0.155-0.853c0-0.498,0.17-0.959,0.512-1.385c0.524-0.651,1.318-1.024,2.383-1.119
				c0.286-0.023,0.564-0.036,0.834-0.036c0.707,0,1.33,0.092,1.87,0.275c0.739,0.254,1.251,0.619,1.537,1.092
				c0.19,0.326,0.286,0.687,0.286,1.083c0,0.189-0.02,0.385-0.06,0.586l-2.549,0.044c0.024-0.148,0.036-0.284,0.036-0.408
				c0-0.592-0.254-0.909-0.762-0.95c-0.056-0.006-0.111-0.009-0.167-0.009c-0.524,0-0.878,0.199-1.06,0.595
				c-0.064,0.136-0.095,0.261-0.095,0.373c0,0.278,0.175,0.518,0.524,0.719c0.492,0.284,1.221,0.573,2.186,0.866
				c0.965,0.293,1.614,0.792,1.948,1.497c0.119,0.267,0.179,0.533,0.179,0.799c0,0.45-0.175,0.903-0.524,1.359
				c-0.556,0.728-1.418,1.151-2.585,1.27c-0.254,0.029-0.504,0.044-0.75,0.044c-0.874,0-1.684-0.169-2.43-0.506
				C220.183,26.816,219.698,25.919,219.682,24.557z"/>
			<path fill="#FFFFFF" d="M242.449,14.975c-0.095,3.985-0.187,8.277-0.274,12.877h-2.704v-5.178h-3.396v4.76l-3.252-0.009
				c0.095-2.173,0.143-4.298,0.143-6.376c0-2.072-0.048-4.097-0.143-6.075h3.109l-0.131,5.178l3.396,0.106v-5.497L242.449,14.975z"
				/>
			<path fill="#FFFFFF" d="M249.681,27.71l-0.119-1.448c-0.333,0.77-1.231,1.158-2.692,1.164c-0.016,0.006-0.028,0.009-0.036,0.009
				c-1.446,0-2.403-0.485-2.871-1.457c-0.318-0.646-0.477-1.98-0.477-4.005c0-1.042,0.044-2.271,0.131-3.686h2.895
				c-0.159,1.989-0.238,3.52-0.238,4.591c0,0.539,0.02,0.959,0.06,1.261c0.119,0.924,0.52,1.385,1.203,1.385s1.112-0.24,1.287-0.719
				l-0.119-6.163l2.8-0.018c0,2.546,0.123,5.512,0.369,8.899L249.681,27.71z"/>
			<path fill="#FFFFFF" d="M254.78,18.403l0.047,1.421c0.429-0.681,0.925-1.104,1.489-1.27c0.334-0.095,0.671-0.142,1.013-0.142
				c0.254,0,0.508,0.023,0.763,0.071c0.619,0.119,1.06,0.592,1.322,1.421c0.207-0.645,0.564-1.076,1.072-1.292
				c0.508-0.216,1.072-0.327,1.692-0.333h0.048c0.604,0,1.184,0.11,1.74,0.329c0.564,0.225,0.995,0.647,1.293,1.266
				s0.455,1.467,0.47,2.544v5.16l-2.573,0.044c0.103-1.948,0.155-3.606,0.155-4.974c0-1.367-0.35-2.104-1.049-2.211
				c-0.103-0.012-0.202-0.018-0.298-0.018c-0.556,0-0.985,0.267-1.287,0.799c-0.047,0.616-0.071,1.335-0.071,2.158
				c0,1.119,0.043,2.424,0.131,3.917l-2.978,0.018c0.111-2.291,0.167-3.961,0.167-5.009v-0.106
				c-0.008-1.036-0.282-1.581-0.822-1.634h-0.155c-0.484,0-0.953,0.208-1.406,0.622l0.024,6.501l-2.812,0.08v-1.457
				c0-2.582-0.052-5.16-0.155-7.735L254.78,18.403z"/>
			<path fill="#FFFFFF" d="M271.054,18.332c2.613,0.106,3.919,1.086,3.919,2.939v6.306l-2.776,0.036l-0.095-0.844
				c-0.572,0.485-1.331,0.728-2.275,0.728c-0.405,0-0.842-0.047-1.311-0.142c-1.406-0.26-2.109-1.071-2.109-2.433
				c0-0.166,0.012-0.343,0.036-0.533c0.159-1.403,1.497-2.104,4.015-2.104c0.484,0,1.017,0.026,1.596,0.08v-1.03
				c0-0.835-0.354-1.252-1.06-1.252h-0.048c-0.056-0.006-0.107-0.009-0.155-0.009c-0.771,0-1.156,0.468-1.156,1.403v0.133
				l-2.835-0.177c0-2.066,1.334-3.1,4.003-3.1H271.054z M272.054,25.348v-1.563c-0.342-0.054-0.651-0.08-0.929-0.08
				c-0.723,0-1.215,0.181-1.477,0.542c-0.159,0.219-0.238,0.423-0.238,0.613c0,0.237,0.127,0.447,0.381,0.631
				c0.198,0.142,0.457,0.213,0.774,0.213C270.97,25.703,271.467,25.584,272.054,25.348z"/>
			<path fill="#FFFFFF" d="M278.119,18.358l0.119,1.447c0.333-0.77,1.211-1.16,2.633-1.172h0.048c1.398,0,2.351,0.408,2.859,1.225
				c0.35,0.557,0.524,1.859,0.524,3.908c0,1.007-0.044,2.197-0.131,3.57h-2.883c0.103-1.83,0.155-3.248,0.155-4.254
				c0-0.503-0.012-0.906-0.036-1.208c-0.08-0.888-0.461-1.332-1.144-1.332c-0.683,0-1.112,0.237-1.287,0.71l0.119,6.438l-2.8,0.018
				c0-2.724-0.123-5.782-0.369-9.174L278.119,18.358z"/>
			<path fill="#FFFFFF" d="M289.484,18.589c2.7,0,4.051,1.397,4.051,4.191c0,0.113-0.004,0.225-0.012,0.337
				c-0.111,3.026-1.549,4.553-4.313,4.583c-0.032,0.006-0.063,0.009-0.095,0.009c-2.629,0-3.943-1.43-3.943-4.29v-0.249
				C285.25,20.117,286.688,18.589,289.484,18.589z M289.091,20.614c-0.5,0.13-0.842,0.613-1.024,1.448
				c-0.111,0.498-0.167,0.998-0.167,1.501c0,0.337,0.024,0.678,0.072,1.021c0.127,0.853,0.536,1.294,1.227,1.323h0.083
				c0.643,0,1.084-0.316,1.323-0.95c0.198-0.527,0.298-1.151,0.298-1.874c0-0.178-0.004-0.358-0.012-0.542
				c-0.063-0.953-0.254-1.548-0.572-1.785c-0.199-0.142-0.437-0.213-0.715-0.213C289.444,20.543,289.273,20.567,289.091,20.614z"/>
			<path fill="#FFFFFF" d="M294.047,24.557l2.728-0.098v0.115c0,0.912,0.377,1.374,1.132,1.386h0.048
				c0.731,0,1.096-0.264,1.096-0.791v-0.062c-0.032-0.581-0.753-1.048-2.163-1.403c-1.41-0.355-2.257-0.953-2.543-1.794
				c-0.103-0.296-0.155-0.58-0.155-0.853c0-0.498,0.171-0.959,0.512-1.385c0.524-0.651,1.318-1.024,2.383-1.119
				c0.286-0.023,0.564-0.036,0.834-0.036c0.707,0,1.33,0.092,1.87,0.275c0.739,0.254,1.251,0.619,1.537,1.092
				c0.191,0.326,0.286,0.687,0.286,1.083c0,0.189-0.02,0.385-0.06,0.586l-2.55,0.044c0.024-0.148,0.036-0.284,0.036-0.408
				c0-0.592-0.254-0.909-0.762-0.95c-0.056-0.006-0.111-0.009-0.167-0.009c-0.524,0-0.877,0.199-1.06,0.595
				c-0.064,0.136-0.095,0.261-0.095,0.373c0,0.278,0.175,0.518,0.524,0.719c0.492,0.284,1.221,0.573,2.186,0.866
				c0.965,0.293,1.615,0.792,1.948,1.497c0.119,0.267,0.179,0.533,0.179,0.799c0,0.45-0.175,0.903-0.524,1.359
				c-0.556,0.728-1.418,1.151-2.585,1.27c-0.254,0.029-0.505,0.044-0.751,0.044c-0.874,0-1.684-0.169-2.43-0.506
				C294.547,26.816,294.063,25.919,294.047,24.557z"/>
		</g>
	</g>
	<g>
		<circle fill="#FFFFFF" cx="33.083" cy="9.479" r="2.32"/>
		<circle fill="#FFFFFF" cx="27.45" cy="9.479" r="2.319"/>
		<circle fill="#FFFFFF" cx="21.816" cy="9.479" r="2.319"/>
		<circle fill="#FFFFFF" cx="27.45" cy="15.179" r="2.319"/>
		<circle fill="#FFFFFF" cx="21.816" cy="15.179" r="2.319"/>
		<circle fill="#FFFFFF" cx="16.182" cy="15.179" r="2.319"/>
		<circle fill="#FFFFFF" cx="21.816" cy="20.878" r="2.319"/>
		<circle fill="#FFFFFF" cx="16.182" cy="20.878" r="2.319"/>
		<circle fill="#FFFFFF" cx="10.549" cy="20.878" r="2.32"/>
		<circle fill="#FFFFFF" cx="27.45" cy="26.578" r="2.319"/>
		<circle fill="#FFFFFF" cx="21.816" cy="26.578" r="2.319"/>
		<circle fill="#FFFFFF" cx="16.182" cy="26.578" r="2.319"/>
		<circle fill="#FFFFFF" cx="33.083" cy="32.278" r="2.32"/>
		<circle fill="#FFFFFF" cx="27.45" cy="32.278" r="2.319"/>
		<circle fill="#FFFFFF" cx="21.816" cy="32.278" r="2.319"/>
	</g>
	<g>
		<path fill="#FFFFFF" d="M15.112,97.376c0.048-1.557,0.071-3.15,0.071-4.778c0-2.499-0.056-5.086-0.167-7.762
			c1.358-0.142,2.557-0.213,3.598-0.213c1.636,0,2.867,0.178,3.693,0.533c1.279,0.551,1.918,1.679,1.918,3.384v0.293
			c-0.08,1.871-0.647,3.068-1.704,3.592c-1.057,0.524-2.359,0.804-3.908,0.839c-0.008,0.184-0.012,0.373-0.012,0.568
			c0,0.983,0.067,2.146,0.203,3.49L15.112,97.376z M18.162,86.896l0.083,4.343c1.477-0.059,2.343-0.453,2.597-1.181
			c0.119-0.332,0.179-0.672,0.179-1.021c0-0.408-0.08-0.829-0.238-1.261c-0.238-0.634-0.834-0.95-1.787-0.95
			C18.741,86.826,18.463,86.849,18.162,86.896z"/>
		<path fill="#FFFFFF" d="M28.562,91.275l0.119,6.438l-2.919,0.018c0-2.723-0.123-5.781-0.369-9.174l2.192-0.177l0.119,1.447
			c0.333-0.71,1.112-1.116,2.335-1.217c0.183-0.012,0.357-0.018,0.524-0.018c0.961,0,1.691,0.234,2.192,0.702
			c0.58,0.557,0.874,1.442,0.881,2.655l-2.645,0.195c0.008-0.101,0.012-0.198,0.012-0.293c0-0.947-0.33-1.421-0.989-1.421h-0.047
			C29.206,90.461,28.737,90.742,28.562,91.275z"/>
		<path fill="#FFFFFF" d="M38.308,88.522c2.756,0,4.134,1.365,4.134,4.094c0,0.332-0.02,0.687-0.06,1.066h-5.326
			c0,1.521,0.393,2.282,1.179,2.282h0.083c0.691-0.042,1.037-0.435,1.037-1.181c0-0.16-0.016-0.337-0.048-0.533l2.836-0.044
			c0,2.256-1.323,3.398-3.968,3.428c-0.032,0.006-0.06,0.009-0.083,0.009c-2.518,0-3.777-1.424-3.777-4.272v-0.266
			C34.396,90.049,35.726,88.522,38.308,88.522z M36.771,92.047h2.692v-0.213c0-1.078-0.409-1.617-1.228-1.617
			C37.354,90.218,36.866,90.828,36.771,92.047z"/>
		<path fill="#FFFFFF" d="M45.551,97.412c-1.001-3.428-1.898-6.371-2.693-8.828l2.895-0.116l1.465,6.457
			c0.763-2.416,1.37-4.618,1.823-6.607l2.848,0.267c-0.897,2.481-1.942,5.412-3.133,8.792L45.551,97.412z"/>
		<path fill="#FFFFFF" d="M56.202,88.522c2.756,0,4.134,1.365,4.134,4.094c0,0.332-0.02,0.687-0.06,1.066h-5.326
			c0,1.521,0.394,2.282,1.18,2.282h0.083c0.691-0.042,1.037-0.435,1.037-1.181c0-0.16-0.016-0.337-0.048-0.533l2.835-0.044
			c0,2.256-1.322,3.398-3.967,3.428c-0.032,0.006-0.06,0.009-0.083,0.009c-2.518,0-3.776-1.424-3.776-4.272v-0.266
			C52.29,90.049,53.621,88.522,56.202,88.522z M54.665,92.047h2.692v-0.213c0-1.078-0.409-1.617-1.227-1.617
			C55.249,90.218,54.76,90.828,54.665,92.047z"/>
		<path fill="#FFFFFF" d="M63.421,88.291l0.119,1.447c0.333-0.77,1.211-1.16,2.633-1.172h0.048c1.398,0,2.351,0.408,2.859,1.225
			c0.349,0.557,0.524,1.859,0.524,3.908c0,1.007-0.043,2.197-0.131,3.57H66.59c0.104-1.83,0.155-3.248,0.155-4.254
			c0-0.503-0.012-0.906-0.036-1.208c-0.079-0.888-0.46-1.332-1.144-1.332s-1.112,0.237-1.287,0.71l0.119,6.438l-2.8,0.018
			c0-2.724-0.123-5.782-0.369-9.174L63.421,88.291z"/>
		<path fill="#FFFFFF" d="M75.466,93.983l2.835,0.133c0,2.137-1.323,3.221-3.967,3.25c-0.032,0.006-0.06,0.009-0.083,0.009
			c-2.518,0-3.777-1.424-3.777-4.271v-0.267c0.08-3.055,1.422-4.597,4.027-4.627h0.095c2.399,0,3.598,1.024,3.598,3.073
			c0,0.119-0.004,0.237-0.012,0.355l-2.562,0.142v-0.213c0-1.078-0.409-1.616-1.227-1.616c-0.834,0-1.251,0.874-1.251,2.62v0.293
			c0.048,1.889,0.469,2.833,1.263,2.833h0.071c0.691-0.041,1.037-0.435,1.037-1.181C75.514,94.356,75.498,94.179,75.466,93.983z"/>
		<path fill="#FFFFFF" d="M82.626,86.479c0,0.361-0.171,0.669-0.513,0.924c-0.341,0.254-0.754,0.382-1.239,0.382
			c-0.477,0-0.886-0.127-1.227-0.382c-0.342-0.254-0.513-0.562-0.513-0.924c0-0.355,0.171-0.66,0.513-0.915
			c0.341-0.254,0.75-0.382,1.227-0.382c0.484,0,0.897,0.127,1.239,0.382C82.456,85.819,82.626,86.124,82.626,86.479z M79.433,97.687
			c-0.056-3.464-0.083-6.457-0.083-8.979l3.002-0.133c-0.095,2.416-0.143,4.816-0.143,7.202c0,0.64,0.004,1.276,0.012,1.91H79.433z"
			/>
		<path fill="#FFFFFF" d="M87.475,88.522c2.7,0,4.051,1.397,4.051,4.191c0,0.113-0.004,0.225-0.012,0.337
			c-0.111,3.026-1.549,4.553-4.312,4.583c-0.032,0.006-0.064,0.009-0.095,0.009c-2.629,0-3.943-1.43-3.943-4.29v-0.249
			C83.242,90.049,84.679,88.522,87.475,88.522z M87.082,90.546c-0.5,0.13-0.842,0.613-1.025,1.448
			c-0.111,0.498-0.167,0.998-0.167,1.501c0,0.337,0.024,0.678,0.071,1.021c0.127,0.853,0.536,1.294,1.227,1.323h0.083
			c0.644,0,1.084-0.316,1.323-0.95c0.198-0.527,0.298-1.151,0.298-1.874c0-0.178-0.004-0.358-0.012-0.542
			c-0.063-0.953-0.254-1.548-0.572-1.785c-0.199-0.142-0.437-0.213-0.715-0.213C87.435,90.476,87.265,90.5,87.082,90.546z
			 M85.926,86.79c0.929-0.823,1.692-1.607,2.288-2.354l1.954,1.155c-0.842,0.616-1.779,1.371-2.812,2.264L85.926,86.79z"/>
		<path fill="#FFFFFF" d="M94.373,88.291l0.119,1.447c0.333-0.77,1.211-1.16,2.633-1.172h0.048c1.398,0,2.351,0.408,2.859,1.225
			c0.349,0.557,0.524,1.859,0.524,3.908c0,1.007-0.044,2.197-0.131,3.57h-2.883c0.103-1.83,0.155-3.248,0.155-4.254
			c0-0.503-0.012-0.906-0.036-1.208c-0.08-0.888-0.461-1.332-1.144-1.332c-0.683,0-1.112,0.237-1.287,0.71l0.119,6.438l-2.8,0.018
			c0-2.724-0.123-5.782-0.369-9.174L94.373,88.291z"/>
	</g>
	<g>
		<path fill="#FFFFFF" d="M36.397,173.508l-2.645,0.009v-0.24c0-1.391-0.524-2.087-1.573-2.087c-1.12,0-1.68,1.285-1.68,3.854
			c0,2.895,0.588,4.343,1.763,4.343h0.012c1.175-0.006,1.763-0.716,1.763-2.131v-0.879h2.955v0.666c0,2.948-1.625,4.491-4.873,4.627
			c-0.095,0.006-0.19,0.009-0.286,0.009c-3.058,0-4.587-2.19-4.587-6.572c0-4.286,1.573-6.43,4.718-6.43
			c2.962,0,4.444,1.433,4.444,4.298C36.409,173.147,36.405,173.325,36.397,173.508z"/>
		<path fill="#FFFFFF" d="M41.889,172.629c2.7,0,4.051,1.397,4.051,4.191c0,0.113-0.004,0.225-0.012,0.337
			c-0.111,3.026-1.549,4.553-4.313,4.583c-0.032,0.006-0.063,0.009-0.095,0.009c-2.629,0-3.943-1.43-3.943-4.29v-0.249
			C37.656,174.157,39.093,172.629,41.889,172.629z M41.496,174.654c-0.5,0.13-0.842,0.613-1.024,1.448
			c-0.111,0.498-0.167,0.998-0.167,1.501c0,0.337,0.024,0.678,0.072,1.021c0.127,0.853,0.536,1.294,1.227,1.323h0.083
			c0.643,0,1.084-0.316,1.322-0.95c0.199-0.527,0.298-1.151,0.298-1.874c0-0.178-0.004-0.358-0.012-0.542
			c-0.064-0.953-0.254-1.548-0.572-1.785c-0.199-0.142-0.437-0.213-0.715-0.213C41.849,174.583,41.678,174.607,41.496,174.654z"/>
		<path fill="#FFFFFF" d="M48.787,172.398l0.119,1.447c0.333-0.77,1.211-1.16,2.633-1.172h0.047c1.398,0,2.351,0.408,2.859,1.225
			c0.35,0.557,0.524,1.859,0.524,3.908c0,1.007-0.044,2.197-0.131,3.57h-2.883c0.103-1.83,0.155-3.248,0.155-4.254
			c0-0.503-0.012-0.906-0.036-1.208c-0.08-0.888-0.461-1.332-1.144-1.332s-1.112,0.237-1.286,0.71l0.119,6.438l-2.8,0.018
			c0-2.724-0.124-5.782-0.37-9.174L48.787,172.398z"/>
		<path fill="#FFFFFF" d="M57.949,169.796l2.704-0.133v2.939l2.275-0.044l0.036,1.679l-2.312,0.08v4.041
			c0,0.941,0.536,1.412,1.608,1.412c0.222,0,0.465-0.021,0.727-0.062l-0.107,1.954c-0.381,0.035-0.743,0.053-1.084,0.053
			c-2.51,0-3.788-0.965-3.836-2.895v-4.343l-1.954,0.089l-0.047-1.98l2.001,0.018L57.949,169.796z"/>
		<path fill="#FFFFFF" d="M67.122,175.382l0.119,6.438l-2.919,0.018c0-2.723-0.123-5.781-0.369-9.174l2.192-0.177l0.119,1.447
			c0.333-0.71,1.112-1.116,2.335-1.217c0.183-0.012,0.357-0.018,0.524-0.018c0.961,0,1.691,0.234,2.192,0.702
			c0.58,0.557,0.874,1.442,0.882,2.655l-2.645,0.195c0.008-0.101,0.012-0.198,0.012-0.293c0-0.947-0.33-1.421-0.989-1.421h-0.048
			C67.765,174.568,67.296,174.85,67.122,175.382z"/>
		<path fill="#FFFFFF" d="M77.189,172.629c2.7,0,4.051,1.397,4.051,4.191c0,0.113-0.004,0.225-0.012,0.337
			c-0.111,3.026-1.549,4.553-4.313,4.583c-0.032,0.006-0.063,0.009-0.095,0.009c-2.629,0-3.943-1.43-3.943-4.29v-0.249
			C72.956,174.157,74.393,172.629,77.189,172.629z M76.796,174.654c-0.5,0.13-0.842,0.613-1.024,1.448
			c-0.111,0.498-0.167,0.998-0.167,1.501c0,0.337,0.024,0.678,0.072,1.021c0.127,0.853,0.536,1.294,1.227,1.323h0.083
			c0.643,0,1.084-0.316,1.322-0.95c0.198-0.527,0.298-1.151,0.298-1.874c0-0.178-0.004-0.358-0.012-0.542
			c-0.063-0.953-0.254-1.548-0.572-1.785c-0.199-0.142-0.437-0.213-0.715-0.213C77.149,174.583,76.979,174.607,76.796,174.654z"/>
		<path fill="#FFFFFF" d="M85.243,181.599l-2.966,0.205c0.032-1.96,0.047-3.846,0.047-5.657c0-2.546-0.032-4.947-0.095-7.202
			l2.919-0.036c-0.032,1.451-0.048,2.939-0.048,4.467C85.1,176.01,85.147,178.751,85.243,181.599z"/>
	</g>
	<g>
		<path fill="#FFFFFF" d="M19.341,276.95c0.047-1.693,0.071-3.398,0.071-5.115c0-2.629-0.056-5.284-0.167-7.966
			c1.231-0.095,2.335-0.142,3.312-0.142c2.716,0,4.448,0.37,5.195,1.11c0.698,0.692,1.048,1.456,1.048,2.291
			c0,0.379-0.067,0.77-0.202,1.172c-0.461,1.303-1.43,2.128-2.907,2.478c1.033,0.107,1.815,0.521,2.347,1.244
			c0.508,0.699,0.762,2.457,0.762,5.275v0.382l-3.598,0.036c0.04-0.746,0.06-1.415,0.06-2.007c0-1.794-0.195-2.892-0.584-3.295
			c-0.445-0.45-0.973-0.675-1.584-0.675c-0.119,0-0.242,0.009-0.369,0.026c0.047,1.806,0.151,3.517,0.31,5.133L19.341,276.95z
			 M22.391,265.938l0.083,3.801c1.478-0.053,2.415-0.426,2.812-1.119c0.214-0.367,0.322-0.725,0.322-1.075
			c0-0.302-0.08-0.598-0.238-0.888c-0.286-0.503-0.997-0.755-2.133-0.755C22.975,265.902,22.693,265.914,22.391,265.938z"/>
		<path fill="#FFFFFF" d="M33.685,267.954c2.756,0,4.134,1.365,4.134,4.094c0,0.332-0.02,0.687-0.06,1.066h-5.326
			c0,1.521,0.394,2.282,1.18,2.282h0.083c0.691-0.042,1.037-0.435,1.037-1.181c0-0.16-0.016-0.337-0.047-0.533l2.835-0.044
			c0,2.256-1.323,3.398-3.967,3.428c-0.032,0.006-0.06,0.009-0.083,0.009c-2.518,0-3.777-1.424-3.777-4.272v-0.266
			C29.773,269.481,31.104,267.954,33.685,267.954z M32.148,271.479h2.692v-0.213c0-1.078-0.409-1.617-1.227-1.617
			C32.732,269.649,32.244,270.259,32.148,271.479z"/>
		<path fill="#FFFFFF" d="M38.784,280.618c0.047-1.996,0.071-4.118,0.071-6.368c0-2.048-0.02-4.198-0.06-6.448l2.824-0.009
			l0.095,1.368c0.587-0.663,1.37-0.995,2.347-0.995c2.438,0,3.657,1.436,3.657,4.307v0.178c-0.056,2.877-1.271,4.316-3.646,4.316
			c-0.095,0-0.19-0.003-0.286-0.009c-0.81-0.029-1.465-0.358-1.965-0.986c0,1.314,0.043,2.863,0.131,4.645H38.784z M41.763,270.982
			l0.06,3.339c0.46,0.468,0.925,0.702,1.394,0.702c0.191,0,0.381-0.041,0.572-0.124c0.58-0.237,0.87-0.944,0.87-2.123
			c0-0.142-0.004-0.29-0.012-0.444c-0.08-1.444-0.464-2.205-1.156-2.282c-0.071-0.006-0.139-0.009-0.202-0.009
			C42.684,270.041,42.175,270.354,41.763,270.982z"/>
		<path fill="#FFFFFF" d="M51.83,270.707l0.119,6.438l-2.919,0.018c0-2.723-0.123-5.781-0.369-9.174l2.192-0.177l0.119,1.447
			c0.333-0.71,1.112-1.116,2.335-1.217c0.183-0.012,0.357-0.018,0.524-0.018c0.961,0,1.692,0.234,2.192,0.702
			c0.58,0.557,0.874,1.442,0.882,2.655l-2.645,0.195c0.008-0.101,0.012-0.198,0.012-0.293c0-0.947-0.33-1.421-0.989-1.421h-0.047
			C52.473,269.893,52.004,270.174,51.83,270.707z"/>
		<path fill="#FFFFFF" d="M61.575,267.954c2.756,0,4.134,1.365,4.134,4.094c0,0.332-0.02,0.687-0.06,1.066h-5.326
			c0,1.521,0.394,2.282,1.18,2.282h0.083c0.691-0.042,1.037-0.435,1.037-1.181c0-0.16-0.016-0.337-0.048-0.533l2.835-0.044
			c0,2.256-1.322,3.398-3.967,3.428c-0.032,0.006-0.06,0.009-0.083,0.009c-2.518,0-3.776-1.424-3.776-4.272v-0.266
			C57.663,269.481,58.994,267.954,61.575,267.954z M60.038,271.479h2.692v-0.213c0-1.078-0.409-1.617-1.227-1.617
			C60.622,269.649,60.133,270.259,60.038,271.479z"/>
		<path fill="#FFFFFF" d="M66.459,273.921l2.728-0.098v0.115c0,0.912,0.377,1.374,1.132,1.386h0.048c0.73,0,1.096-0.264,1.096-0.791
			v-0.062c-0.032-0.581-0.753-1.048-2.163-1.403c-1.41-0.355-2.257-0.953-2.543-1.794c-0.104-0.296-0.155-0.58-0.155-0.853
			c0-0.498,0.17-0.959,0.512-1.385c0.524-0.651,1.318-1.024,2.383-1.119c0.286-0.023,0.563-0.036,0.834-0.036
			c0.707,0,1.33,0.092,1.87,0.275c0.739,0.254,1.251,0.619,1.537,1.092c0.19,0.326,0.286,0.687,0.286,1.083
			c0,0.189-0.02,0.385-0.06,0.586l-2.549,0.044c0.024-0.148,0.036-0.284,0.036-0.408c0-0.592-0.254-0.909-0.762-0.95
			c-0.056-0.006-0.111-0.009-0.167-0.009c-0.524,0-0.878,0.199-1.061,0.595c-0.063,0.136-0.095,0.261-0.095,0.373
			c0,0.278,0.175,0.518,0.524,0.719c0.492,0.284,1.221,0.573,2.186,0.866c0.965,0.293,1.614,0.792,1.948,1.497
			c0.119,0.267,0.179,0.533,0.179,0.799c0,0.45-0.175,0.903-0.524,1.359c-0.556,0.728-1.418,1.151-2.585,1.27
			c-0.254,0.029-0.504,0.044-0.75,0.044c-0.874,0-1.684-0.169-2.431-0.506C66.96,276.18,66.475,275.283,66.459,273.921z"/>
		<path fill="#FFFFFF" d="M78.397,265.911c0,0.361-0.171,0.669-0.512,0.924c-0.342,0.254-0.755,0.382-1.239,0.382
			c-0.477,0-0.885-0.127-1.227-0.382s-0.512-0.562-0.512-0.924c0-0.355,0.17-0.66,0.512-0.915s0.75-0.382,1.227-0.382
			c0.484,0,0.897,0.127,1.239,0.382C78.226,265.25,78.397,265.556,78.397,265.911z M75.204,277.119
			c-0.056-3.464-0.083-6.457-0.083-8.979l3.002-0.133c-0.095,2.416-0.143,4.816-0.143,7.202c0,0.64,0.004,1.276,0.012,1.91H75.204z"
			/>
		<path fill="#FFFFFF" d="M83.246,267.954c2.701,0,4.051,1.397,4.051,4.191c0,0.113-0.004,0.225-0.012,0.337
			c-0.111,3.026-1.549,4.553-4.313,4.583c-0.032,0.006-0.063,0.009-0.095,0.009c-2.629,0-3.943-1.43-3.943-4.29v-0.249
			C79.012,269.481,80.45,267.954,83.246,267.954z M82.853,269.978c-0.5,0.13-0.842,0.613-1.024,1.448
			c-0.111,0.498-0.167,0.998-0.167,1.501c0,0.337,0.024,0.678,0.072,1.021c0.127,0.853,0.536,1.294,1.227,1.323h0.083
			c0.643,0,1.084-0.316,1.322-0.95c0.198-0.527,0.298-1.151,0.298-1.874c0-0.178-0.004-0.358-0.012-0.542
			c-0.064-0.953-0.254-1.548-0.572-1.785c-0.198-0.142-0.437-0.213-0.715-0.213C83.206,269.907,83.035,269.931,82.853,269.978z
			 M81.697,266.222c0.93-0.823,1.692-1.607,2.288-2.354l1.954,1.155c-0.842,0.616-1.779,1.371-2.812,2.264L81.697,266.222z"/>
		<path fill="#FFFFFF" d="M90.144,267.723l0.119,1.447c0.333-0.77,1.211-1.16,2.633-1.172h0.047c1.398,0,2.351,0.408,2.859,1.225
			c0.349,0.557,0.524,1.859,0.524,3.908c0,1.007-0.043,2.197-0.131,3.57h-2.883c0.103-1.83,0.155-3.248,0.155-4.254
			c0-0.503-0.012-0.906-0.036-1.208c-0.08-0.888-0.461-1.332-1.144-1.332s-1.112,0.237-1.287,0.71l0.119,6.438l-2.8,0.018
			c0-2.724-0.123-5.782-0.369-9.174L90.144,267.723z"/>
	</g>
</g>
</svg>
