<?xml version="1.0" encoding="utf-8"?>
<!-- Generator: Adobe Illustrator 16.0.0, SVG Export Plug-In . SVG Version: 6.00 Build 0)  -->
<!DOCTYPE svg PUBLIC "-//W3C//DTD SVG 1.1//EN" "http://www.w3.org/Graphics/SVG/1.1/DTD/svg11.dtd">
<svg version="1.1" id="Capa_1" xmlns="http://www.w3.org/2000/svg" xmlns:xlink="http://www.w3.org/1999/xlink" x="0px" y="0px"
	 width="457.235px" height="270.836px" viewBox="0 0 457.235 270.836" enable-background="new 0 0 457.235 270.836"
	 xml:space="preserve">
<g>
	<rect x="116.559" fill="#EA6020" width="340.676" height="270.836"/>
	<rect fill="#F39200" width="112.467" height="87.315"/>
	<g>
		<path fill="#FFFFFF" d="M15.112,54.135c0.047-1.557,0.071-3.15,0.071-4.778c0-2.499-0.056-5.086-0.167-7.762
			c1.358-0.142,2.557-0.213,3.598-0.213c1.636,0,2.867,0.178,3.693,0.533c1.279,0.551,1.918,1.679,1.918,3.384v0.293
			c-0.079,1.871-0.647,3.068-1.704,3.592s-2.359,0.804-3.908,0.839c-0.008,0.184-0.012,0.373-0.012,0.568
			c0,0.983,0.067,2.146,0.202,3.49L15.112,54.135z M18.162,43.656l0.083,4.343c1.477-0.059,2.343-0.453,2.597-1.181
			c0.119-0.332,0.179-0.672,0.179-1.021c0-0.408-0.08-0.829-0.238-1.261c-0.238-0.634-0.834-0.95-1.787-0.95
			C18.741,43.585,18.463,43.608,18.162,43.656z"/>
		<path fill="#FFFFFF" d="M28.562,48.034l0.119,6.438l-2.918,0.018c0-2.723-0.124-5.781-0.37-9.174l2.192-0.177l0.119,1.447
			c0.333-0.71,1.112-1.116,2.335-1.217c0.183-0.012,0.357-0.018,0.524-0.018c0.961,0,1.692,0.234,2.192,0.702
			c0.58,0.557,0.874,1.442,0.882,2.655l-2.645,0.195c0.008-0.101,0.012-0.198,0.012-0.293c0-0.947-0.33-1.421-0.989-1.421h-0.048
			C29.206,47.22,28.737,47.501,28.562,48.034z"/>
		<path fill="#FFFFFF" d="M38.308,45.281c2.756,0,4.134,1.365,4.134,4.094c0,0.332-0.02,0.687-0.06,1.066h-5.325
			c0,1.521,0.393,2.282,1.18,2.282h0.083c0.691-0.042,1.037-0.435,1.037-1.181c0-0.16-0.016-0.337-0.047-0.533l2.835-0.044
			c0,2.256-1.322,3.398-3.967,3.428c-0.032,0.006-0.06,0.009-0.083,0.009c-2.518,0-3.777-1.424-3.777-4.272v-0.266
			C34.396,46.809,35.726,45.281,38.308,45.281z M36.771,48.807h2.693v-0.213c0-1.078-0.409-1.617-1.227-1.617
			C37.354,46.977,36.866,47.587,36.771,48.807z"/>
		<path fill="#FFFFFF" d="M45.551,54.171c-1-3.428-1.898-6.371-2.692-8.828l2.895-0.116l1.465,6.457
			c0.763-2.416,1.37-4.618,1.823-6.607l2.847,0.267c-0.898,2.481-1.942,5.412-3.133,8.792L45.551,54.171z"/>
		<path fill="#FFFFFF" d="M56.202,45.281c2.756,0,4.134,1.365,4.134,4.094c0,0.332-0.02,0.687-0.06,1.066h-5.325
			c0,1.521,0.393,2.282,1.179,2.282h0.083c0.691-0.042,1.036-0.435,1.036-1.181c0-0.16-0.016-0.337-0.047-0.533l2.835-0.044
			c0,2.256-1.322,3.398-3.967,3.428c-0.032,0.006-0.06,0.009-0.083,0.009c-2.518,0-3.776-1.424-3.776-4.272v-0.266
			C52.29,46.809,53.621,45.281,56.202,45.281z M54.665,48.807h2.692v-0.213c0-1.078-0.409-1.617-1.227-1.617
			C55.249,46.977,54.76,47.587,54.665,48.807z"/>
		<path fill="#FFFFFF" d="M63.421,45.05l0.119,1.447c0.333-0.77,1.211-1.16,2.633-1.172h0.048c1.398,0,2.351,0.408,2.859,1.225
			c0.349,0.557,0.524,1.859,0.524,3.908c0,1.007-0.043,2.197-0.131,3.57H66.59c0.103-1.83,0.155-3.248,0.155-4.254
			c0-0.503-0.012-0.906-0.036-1.208c-0.08-0.888-0.46-1.332-1.144-1.332s-1.112,0.237-1.287,0.71l0.119,6.438l-2.8,0.018
			c0-2.724-0.123-5.782-0.369-9.174L63.421,45.05z"/>
		<path fill="#FFFFFF" d="M75.466,50.743l2.835,0.133c0,2.137-1.322,3.221-3.967,3.25c-0.032,0.006-0.06,0.009-0.083,0.009
			c-2.518,0-3.776-1.424-3.776-4.271v-0.267c0.079-3.055,1.421-4.597,4.026-4.627h0.096c2.398,0,3.598,1.024,3.598,3.073
			c0,0.119-0.004,0.237-0.012,0.355l-2.562,0.142v-0.213c0-1.078-0.409-1.616-1.227-1.616c-0.834,0-1.251,0.874-1.251,2.62v0.293
			c0.047,1.889,0.468,2.833,1.263,2.833h0.072c0.691-0.041,1.036-0.435,1.036-1.181C75.514,51.116,75.498,50.938,75.466,50.743z"/>
		<path fill="#FFFFFF" d="M82.626,43.238c0,0.361-0.171,0.669-0.512,0.924c-0.341,0.255-0.754,0.382-1.239,0.382
			c-0.477,0-0.886-0.127-1.227-0.382c-0.342-0.254-0.512-0.562-0.512-0.924c0-0.355,0.17-0.66,0.512-0.915
			c0.341-0.254,0.75-0.382,1.227-0.382c0.484,0,0.897,0.127,1.239,0.382C82.456,42.578,82.626,42.883,82.626,43.238z M79.434,54.446
			c-0.056-3.464-0.083-6.457-0.083-8.979l3.002-0.133c-0.095,2.416-0.143,4.816-0.143,7.202c0,0.64,0.004,1.276,0.012,1.91H79.434z"
			/>
		<path fill="#FFFFFF" d="M87.475,45.281c2.7,0,4.051,1.397,4.051,4.191c0,0.113-0.004,0.225-0.012,0.337
			c-0.111,3.026-1.549,4.553-4.312,4.583c-0.032,0.006-0.063,0.009-0.096,0.009c-2.629,0-3.943-1.43-3.943-4.29v-0.249
			C83.242,46.809,84.679,45.281,87.475,45.281z M87.082,47.306c-0.5,0.13-0.842,0.613-1.024,1.448
			c-0.111,0.498-0.167,0.998-0.167,1.501c0,0.337,0.024,0.678,0.071,1.021c0.127,0.853,0.536,1.294,1.228,1.323h0.083
			c0.644,0,1.084-0.316,1.322-0.95c0.199-0.527,0.298-1.151,0.298-1.874c0-0.178-0.004-0.358-0.012-0.542
			c-0.063-0.953-0.254-1.548-0.572-1.785c-0.199-0.142-0.437-0.213-0.715-0.213C87.435,47.235,87.265,47.259,87.082,47.306z
			 M85.926,43.549c0.929-0.823,1.692-1.607,2.288-2.354l1.954,1.155c-0.842,0.616-1.779,1.371-2.812,2.264L85.926,43.549z"/>
		<path fill="#FFFFFF" d="M94.373,45.05l0.119,1.447c0.333-0.77,1.211-1.16,2.633-1.172h0.048c1.397,0,2.351,0.408,2.859,1.225
			c0.349,0.557,0.524,1.859,0.524,3.908c0,1.007-0.043,2.197-0.131,3.57h-2.883c0.103-1.83,0.155-3.248,0.155-4.254
			c0-0.503-0.012-0.906-0.036-1.208c-0.08-0.888-0.461-1.332-1.144-1.332c-0.684,0-1.112,0.237-1.287,0.71l0.119,6.438l-2.8,0.018
			c0-2.724-0.124-5.782-0.37-9.174L94.373,45.05z"/>
	</g>
</g>
</svg>
