<?xml version="1.0" encoding="utf-8"?>
<!-- Generator: Adobe Illustrator 16.0.0, SVG Export Plug-In . SVG Version: 6.00 Build 0)  -->
<!DOCTYPE svg PUBLIC "-//W3C//DTD SVG 1.1//EN" "http://www.w3.org/Graphics/SVG/1.1/DTD/svg11.dtd">
<svg version="1.1" id="Capa_1" xmlns="http://www.w3.org/2000/svg" xmlns:xlink="http://www.w3.org/1999/xlink" x="0px" y="0px"
	 width="923.214px" height="348.843px" viewBox="0 0 923.214 348.843" enable-background="new 0 0 923.214 348.843"
	 xml:space="preserve">
<circle fill="#3C3C3B" cx="21.834" cy="87.369" r="3.515"/>
<circle fill="#3C3C3B" cx="21.834" cy="105.703" r="3.515"/>
<circle fill="#3C3C3B" cx="21.834" cy="126.036" r="3.515"/>
<circle fill="#3C3C3B" cx="21.834" cy="164.036" r="3.515"/>
<rect x="465.98" fill="#EA6020" width="457.234" height="40.431"/>
<rect x="582.539" y="43.241" fill="#EA6020" width="340.676" height="270.836"/>
<rect x="465.98" y="43.241" fill="#EA6020" width="112.467" height="87.315"/>
<rect x="465.98" y="135.002" fill="#EA6020" width="112.467" height="87.315"/>
<rect x="465.98" y="226.763" fill="#EA6020" width="112.467" height="87.314"/>
<g>
	<path fill="#FFFFFF" d="M481.091,97.376c0.047-1.557,0.07-3.15,0.07-4.778c0-2.499-0.055-5.086-0.166-7.762
		c1.354-0.142,2.557-0.213,3.598-0.213c1.637,0,2.867,0.178,3.693,0.533c1.279,0.551,1.918,1.679,1.918,3.384v0.293
		c-0.08,1.871-0.648,3.068-1.705,3.592c-1.057,0.524-2.359,0.804-3.908,0.839c-0.008,0.184-0.012,0.373-0.012,0.568
		c0,0.983,0.068,2.146,0.203,3.49L481.091,97.376z M484.14,86.896l0.084,4.343c1.477-0.059,2.344-0.453,2.598-1.181
		c0.119-0.332,0.178-0.672,0.178-1.021c0-0.408-0.08-0.829-0.238-1.261c-0.232-0.634-0.834-0.95-1.787-0.95
		C484.72,86.826,484.443,86.849,484.14,86.896z"/>
	<path fill="#FFFFFF" d="M494.542,91.275l0.119,6.438l-2.918,0.018c0-2.723-0.125-5.781-0.371-9.174l2.193-0.177l0.113,1.447
		c0.334-0.71,1.113-1.116,2.336-1.217c0.188-0.012,0.357-0.018,0.523-0.018c0.961,0,1.693,0.234,2.193,0.702
		c0.578,0.557,0.873,1.442,0.881,2.655l-2.645,0.195c0.008-0.101,0.012-0.198,0.012-0.293c0-0.947-0.33-1.421-0.988-1.421h-0.049
		C495.185,90.461,494.716,90.742,494.542,91.275z"/>
	<path fill="#FFFFFF" d="M504.287,88.522c2.756,0,4.135,1.365,4.135,4.094c0,0.332-0.02,0.687-0.061,1.066h-5.324
		c0,1.521,0.393,2.282,1.18,2.282h0.082c0.691-0.042,1.037-0.435,1.037-1.181c0-0.16-0.016-0.337-0.047-0.533l2.836-0.044
		c0,2.256-1.322,3.398-3.967,3.428c-0.033,0.006-0.061,0.009-0.084,0.009c-2.518,0-3.777-1.424-3.777-4.272v-0.266
		C500.375,90.049,501.705,88.522,504.287,88.522z M502.75,92.047h2.693v-0.213c0-1.078-0.408-1.617-1.227-1.617
		C503.333,90.218,502.845,90.828,502.75,92.047z"/>
	<path fill="#FFFFFF" d="M511.531,97.412c-1-3.428-1.898-6.371-2.693-8.828l2.896-0.116l1.465,6.457
		c0.762-2.416,1.369-4.618,1.822-6.607l2.848,0.267c-0.898,2.481-1.943,5.412-3.133,8.792L511.531,97.412z"/>
	<path fill="#FFFFFF" d="M522.181,88.522c2.756,0,4.135,1.365,4.135,4.094c0,0.332-0.021,0.687-0.061,1.066h-5.326
		c0,1.521,0.395,2.282,1.18,2.282h0.084c0.689-0.042,1.035-0.435,1.035-1.181c0-0.16-0.016-0.337-0.047-0.533l2.834-0.044
		c0,2.256-1.32,3.398-3.967,3.428c-0.031,0.006-0.059,0.009-0.082,0.009c-2.518,0-3.775-1.424-3.775-4.272v-0.266
		C518.269,90.049,519.599,88.522,522.181,88.522z M520.644,92.047h2.691v-0.213c0-1.078-0.408-1.617-1.227-1.617
		C521.228,90.218,520.74,90.828,520.644,92.047z"/>
	<path fill="#FFFFFF" d="M529.4,88.291l0.119,1.447c0.334-0.77,1.211-1.16,2.633-1.172h0.049c1.396,0,2.35,0.408,2.857,1.225
		c0.35,0.557,0.525,1.859,0.525,3.908c0,1.007-0.043,2.197-0.131,3.57h-2.883c0.102-1.83,0.15-3.248,0.15-4.254
		c0-0.503-0.012-0.906-0.031-1.208c-0.08-0.888-0.463-1.332-1.146-1.332s-1.113,0.237-1.287,0.71l0.119,6.438l-2.801,0.018
		c0-2.724-0.123-5.782-0.369-9.174L529.4,88.291z"/>
	<path fill="#FFFFFF" d="M541.445,93.983l2.836,0.133c0,2.137-1.322,3.221-3.967,3.25c-0.033,0.006-0.061,0.009-0.084,0.009
		c-2.518,0-3.775-1.424-3.775-4.271v-0.267c0.078-3.055,1.42-4.597,4.025-4.627h0.096c2.398,0,3.598,1.024,3.598,3.073
		c0,0.119-0.004,0.237-0.012,0.355l-2.562,0.142v-0.213c0-1.078-0.404-1.616-1.227-1.616c-0.834,0-1.25,0.874-1.25,2.62v0.293
		c0.047,1.889,0.467,2.833,1.262,2.833h0.072c0.691-0.041,1.037-0.435,1.037-1.181C541.494,94.356,541.476,94.179,541.445,93.983z"
		/>
	<path fill="#FFFFFF" d="M548.605,86.479c0,0.361-0.172,0.669-0.512,0.924c-0.342,0.255-0.754,0.382-1.24,0.382
		c-0.477,0-0.885-0.127-1.227-0.382c-0.342-0.254-0.512-0.562-0.512-0.924c0-0.355,0.17-0.66,0.512-0.915
		c0.342-0.254,0.75-0.382,1.227-0.382c0.484,0,0.898,0.127,1.24,0.382S548.605,86.124,548.605,86.479z M545.414,97.687
		c-0.057-3.464-0.084-6.457-0.084-8.979l3.002-0.133c-0.094,2.416-0.143,4.816-0.143,7.202c0,0.64,0.004,1.276,0.012,1.91H545.414z"
		/>
	<path fill="#FFFFFF" d="M553.455,88.522c2.699,0,4.051,1.397,4.051,4.191c0,0.113-0.004,0.225-0.012,0.337
		c-0.111,3.026-1.549,4.553-4.312,4.583c-0.027,0.006-0.061,0.009-0.096,0.009c-2.629,0-3.943-1.43-3.943-4.29v-0.249
		C549.22,90.049,550.658,88.522,553.455,88.522z M553.06,90.546c-0.5,0.13-0.842,0.613-1.023,1.448
		c-0.111,0.498-0.166,0.998-0.166,1.501c0,0.337,0.023,0.678,0.07,1.021c0.127,0.853,0.535,1.294,1.229,1.323h0.082
		c0.646,0,1.084-0.316,1.322-0.95c0.199-0.527,0.299-1.151,0.299-1.874c0-0.178-0.004-0.358-0.012-0.542
		c-0.064-0.953-0.254-1.548-0.572-1.785c-0.199-0.142-0.438-0.213-0.715-0.213C553.414,90.476,553.244,90.5,553.06,90.546z
		 M551.906,86.79c0.928-0.823,1.691-1.607,2.287-2.354l1.955,1.155c-0.844,0.616-1.779,1.371-2.812,2.264L551.906,86.79z"/>
	<path fill="#FFFFFF" d="M560.351,88.291l0.119,1.447c0.334-0.77,1.211-1.16,2.635-1.172h0.047c1.396,0,2.352,0.408,2.859,1.225
		c0.35,0.557,0.523,1.859,0.523,3.908c0,1.007-0.043,2.197-0.131,3.57h-2.883c0.104-1.83,0.15-3.248,0.15-4.254
		c0-0.503-0.012-0.906-0.035-1.208c-0.078-0.888-0.461-1.332-1.145-1.332s-1.111,0.237-1.287,0.71l0.119,6.438l-2.799,0.018
		c0-2.724-0.125-5.782-0.371-9.174L560.351,88.291z"/>
</g>
<g>
	<path fill="#FFFFFF" d="M502.376,173.508l-2.645,0.009v-0.24c0-1.391-0.525-2.087-1.572-2.087c-1.121,0-1.68,1.285-1.68,3.854
		c0,2.895,0.588,4.342,1.762,4.342h0.012c1.176-0.006,1.764-0.715,1.764-2.131v-0.879h2.955v0.666c0,2.947-1.625,4.492-4.873,4.627
		c-0.096,0.006-0.189,0.01-0.285,0.01c-3.059,0-4.588-2.189-4.588-6.572c0-4.286,1.574-6.43,4.719-6.43
		c2.963,0,4.443,1.433,4.443,4.298C502.388,173.147,502.384,173.325,502.376,173.508z"/>
	<path fill="#FFFFFF" d="M507.869,172.629c2.699,0,4.049,1.397,4.049,4.191c0,0.113-0.004,0.225-0.012,0.338
		c-0.111,3.025-1.549,4.553-4.312,4.582c-0.027,0.006-0.061,0.01-0.096,0.01c-2.629,0-3.943-1.431-3.943-4.291v-0.248
		C503.634,174.157,505.072,172.629,507.869,172.629z M507.474,174.654c-0.5,0.13-0.842,0.613-1.023,1.448
		c-0.111,0.498-0.168,0.998-0.168,1.501c0,0.337,0.023,0.678,0.072,1.021c0.127,0.853,0.535,1.293,1.227,1.32h0.082
		c0.645,0,1.084-0.314,1.322-0.947c0.197-0.527,0.299-1.151,0.299-1.875c0-0.18-0.004-0.357-0.012-0.541
		c-0.064-0.953-0.256-1.551-0.572-1.788c-0.199-0.142-0.438-0.213-0.715-0.213C507.828,174.583,507.658,174.607,507.474,174.654z"/>
	<path fill="#FFFFFF" d="M514.765,172.398l0.119,1.447c0.334-0.77,1.211-1.16,2.633-1.172h0.049c1.396,0,2.352,0.408,2.859,1.225
		c0.35,0.557,0.523,1.859,0.523,3.908c0,1.007-0.043,2.197-0.131,3.57h-2.885c0.105-1.83,0.152-3.248,0.152-4.254
		c0-0.504-0.012-0.906-0.035-1.209c-0.08-0.89-0.461-1.333-1.145-1.333s-1.111,0.237-1.287,0.708l0.119,6.438l-2.799,0.019
		c0-2.725-0.123-5.781-0.369-9.172L514.765,172.398z"/>
	<path fill="#FFFFFF" d="M523.927,169.796l2.705-0.133v2.939l2.275-0.044l0.037,1.679l-2.312,0.08v4.041
		c0,0.94,0.535,1.412,1.607,1.412c0.223,0,0.465-0.021,0.727-0.062l-0.105,1.953c-0.381,0.033-0.744,0.053-1.084,0.053
		c-2.512,0-3.789-0.965-3.836-2.896v-4.343l-1.955,0.089l-0.047-1.98l2,0.018L523.927,169.796z"/>
	<path fill="#FFFFFF" d="M533.101,175.382l0.119,6.438l-2.92,0.018c0-2.723-0.123-5.778-0.369-9.171l2.193-0.177l0.119,1.447
		c0.332-0.71,1.111-1.116,2.334-1.217c0.184-0.012,0.354-0.018,0.523-0.018c0.963,0,1.689,0.234,2.189,0.702
		c0.58,0.557,0.873,1.442,0.881,2.655l-2.645,0.193c0.008-0.102,0.012-0.196,0.012-0.293c0-0.945-0.33-1.419-0.988-1.419h-0.047
		C533.746,174.568,533.277,174.85,533.101,175.382z"/>
	<path fill="#FFFFFF" d="M543.167,172.629c2.701,0,4.051,1.397,4.051,4.191c0,0.113-0.004,0.225-0.012,0.338
		c-0.111,3.025-1.549,4.553-4.312,4.582c-0.031,0.006-0.062,0.01-0.098,0.01c-2.629,0-3.939-1.431-3.939-4.291v-0.248
		C538.935,174.157,540.373,172.629,543.167,172.629z M542.775,174.654c-0.5,0.13-0.842,0.613-1.023,1.448
		c-0.111,0.498-0.168,0.998-0.168,1.501c0,0.337,0.025,0.678,0.072,1.021c0.127,0.853,0.535,1.293,1.227,1.32h0.084
		c0.646,0,1.084-0.314,1.322-0.947c0.199-0.527,0.299-1.151,0.299-1.875c0-0.18-0.004-0.357-0.012-0.541
		c-0.064-0.953-0.254-1.551-0.572-1.788c-0.199-0.142-0.438-0.213-0.715-0.213C543.128,174.583,542.958,174.607,542.775,174.654z"/>
	<path fill="#FFFFFF" d="M551.222,181.599l-2.967,0.205c0.031-1.961,0.047-3.846,0.047-5.657c0-2.546-0.031-4.947-0.094-7.202
		l2.918-0.036c-0.031,1.451-0.047,2.939-0.047,4.467C551.08,176.009,551.126,178.751,551.222,181.599z"/>
</g>
<g>
	<path fill="#FFFFFF" d="M485.32,276.951c0.049-1.693,0.072-3.396,0.072-5.115c0-2.629-0.057-5.283-0.168-7.967
		c1.23-0.095,2.336-0.142,3.312-0.142c2.717,0,4.449,0.37,5.195,1.11c0.693,0.689,1.049,1.455,1.049,2.291
		c0,0.379-0.068,0.77-0.203,1.172c-0.461,1.303-1.43,2.127-2.908,2.478c1.033,0.106,1.816,0.521,2.348,1.244
		c0.508,0.698,0.764,2.457,0.764,5.274v0.383l-3.6,0.035c0.041-0.746,0.061-1.414,0.061-2.006c0-1.795-0.195-2.895-0.582-3.295
		c-0.445-0.451-0.975-0.678-1.586-0.678c-0.119,0-0.242,0.012-0.369,0.025c0.049,1.807,0.152,3.518,0.311,5.134L485.32,276.951z
		 M488.371,265.938l0.082,3.802c1.477-0.054,2.414-0.427,2.812-1.119c0.215-0.367,0.32-0.726,0.32-1.076
		c0-0.301-0.078-0.598-0.238-0.887c-0.285-0.504-0.996-0.756-2.131-0.756C488.955,265.902,488.671,265.914,488.371,265.938z"/>
	<path fill="#FFFFFF" d="M499.664,267.955c2.756,0,4.135,1.364,4.135,4.094c0,0.332-0.02,0.688-0.061,1.066h-5.326
		c0,1.52,0.393,2.281,1.18,2.281h0.084c0.691-0.042,1.035-0.436,1.035-1.182c0-0.159-0.016-0.336-0.047-0.532l2.836-0.044
		c0,2.256-1.322,3.398-3.967,3.428c-0.033,0.006-0.061,0.01-0.084,0.01c-2.518,0-3.775-1.425-3.775-4.271v-0.269
		C495.751,269.481,497.083,267.955,499.664,267.955z M498.126,271.479h2.693v-0.213c0-1.078-0.41-1.617-1.23-1.617
		C498.71,269.649,498.222,270.259,498.126,271.479z"/>
	<path fill="#FFFFFF" d="M504.763,280.619c0.047-1.996,0.07-4.119,0.07-6.369c0-2.047-0.02-4.195-0.059-6.445l2.818-0.012l0.1,1.369
		c0.588-0.664,1.371-0.996,2.348-0.996c2.438,0,3.656,1.438,3.656,4.31v0.178c-0.061,2.878-1.271,4.315-3.646,4.315
		c-0.094,0-0.189-0.004-0.285-0.01c-0.811-0.027-1.467-0.356-1.967-0.984c0,1.312,0.043,2.861,0.131,4.646h-3.166V280.619z
		 M507.742,270.982l0.061,3.339c0.459,0.468,0.924,0.702,1.396,0.702c0.188,0,0.381-0.041,0.568-0.124
		c0.58-0.237,0.871-0.944,0.871-2.123c0-0.142-0.004-0.29-0.012-0.444c-0.08-1.441-0.465-2.205-1.156-2.281
		c-0.068-0.006-0.139-0.01-0.203-0.01C508.664,270.041,508.154,270.354,507.742,270.982z"/>
	<path fill="#FFFFFF" d="M517.808,270.707l0.119,6.438l-2.918,0.019c0-2.724-0.123-5.781-0.369-9.174l2.191-0.178l0.119,1.447
		c0.334-0.711,1.109-1.116,2.336-1.217c0.182-0.015,0.354-0.021,0.52-0.021c0.961,0,1.691,0.231,2.191,0.702
		c0.58,0.557,0.875,1.439,0.883,2.652l-2.645,0.195c0.008-0.101,0.012-0.197,0.012-0.293c0-0.947-0.33-1.421-0.99-1.421h-0.047
		C518.453,269.893,517.984,270.173,517.808,270.707z"/>
	<path fill="#FFFFFF" d="M527.554,267.955c2.756,0,4.135,1.364,4.135,4.094c0,0.332-0.021,0.688-0.061,1.066h-5.326
		c0,1.52,0.395,2.281,1.18,2.281h0.084c0.689-0.042,1.035-0.436,1.035-1.182c0-0.159-0.016-0.336-0.047-0.532l2.834-0.044
		c0,2.256-1.32,3.398-3.967,3.428c-0.031,0.006-0.059,0.01-0.082,0.01c-2.518,0-3.775-1.425-3.775-4.271v-0.269
		C523.642,269.481,524.972,267.955,527.554,267.955z M526.017,271.479h2.691v-0.213c0-1.078-0.408-1.617-1.227-1.617
		C526.601,269.649,526.113,270.259,526.017,271.479z"/>
	<path fill="#FFFFFF" d="M532.439,273.921l2.727-0.101v0.115c0,0.912,0.377,1.374,1.133,1.386h0.047c0.73,0,1.102-0.264,1.102-0.791
		v-0.062c-0.033-0.58-0.752-1.049-2.162-1.402s-2.258-0.953-2.543-1.794c-0.105-0.296-0.156-0.58-0.156-0.854
		c0-0.498,0.17-0.959,0.512-1.385c0.525-0.652,1.318-1.023,2.383-1.119c0.287-0.021,0.564-0.037,0.834-0.037
		c0.707,0,1.33,0.094,1.871,0.275c0.738,0.254,1.25,0.619,1.537,1.092c0.189,0.326,0.285,0.688,0.285,1.084
		c0,0.188-0.02,0.385-0.059,0.586l-2.555,0.043c0.025-0.146,0.037-0.283,0.037-0.406c0-0.594-0.254-0.908-0.764-0.949
		c-0.055-0.006-0.111-0.012-0.166-0.012c-0.525,0-0.877,0.199-1.061,0.598c-0.064,0.136-0.096,0.261-0.096,0.373
		c0,0.275,0.174,0.52,0.523,0.719c0.492,0.284,1.221,0.573,2.186,0.866s1.615,0.792,1.949,1.497c0.119,0.27,0.178,0.531,0.178,0.799
		c0,0.45-0.174,0.902-0.523,1.357c-0.557,0.729-1.418,1.15-2.584,1.271c-0.254,0.029-0.504,0.044-0.75,0.044
		c-0.875,0-1.686-0.169-2.432-0.506C532.939,276.18,532.455,275.283,532.439,273.921z"/>
	<path fill="#FFFFFF" d="M544.376,265.912c0,0.36-0.172,0.668-0.512,0.924c-0.344,0.254-0.756,0.381-1.24,0.381
		c-0.479,0-0.885-0.127-1.229-0.381c-0.344-0.256-0.514-0.562-0.514-0.924c0-0.354,0.17-0.66,0.514-0.916
		c0.344-0.254,0.75-0.381,1.229-0.381c0.484,0,0.895,0.127,1.24,0.381C544.205,265.25,544.376,265.556,544.376,265.912z
		 M541.183,277.119c-0.057-3.463-0.084-6.457-0.084-8.979l3.002-0.133c-0.096,2.416-0.143,4.813-0.143,7.201
		c0,0.641,0.004,1.274,0.012,1.91H541.183L541.183,277.119z"/>
	<path fill="#FFFFFF" d="M549.224,267.955c2.701,0,4.051,1.396,4.051,4.19c0,0.112-0.004,0.226-0.012,0.337
		c-0.111,3.025-1.549,4.553-4.312,4.583c-0.033,0.007-0.064,0.009-0.096,0.009c-2.629,0-3.943-1.43-3.943-4.289v-0.25
		C544.992,269.481,546.429,267.955,549.224,267.955z M548.832,269.978c-0.5,0.13-0.842,0.613-1.023,1.447
		c-0.107,0.498-0.168,0.998-0.168,1.502c0,0.337,0.025,0.678,0.072,1.021c0.127,0.852,0.537,1.293,1.23,1.322h0.082
		c0.643,0,1.084-0.316,1.32-0.95c0.197-0.526,0.297-1.151,0.297-1.874c0-0.178-0.004-0.357-0.012-0.541
		c-0.061-0.953-0.254-1.549-0.57-1.785c-0.197-0.143-0.438-0.213-0.715-0.213C549.185,269.908,549.013,269.931,548.832,269.978z
		 M547.675,266.222c0.93-0.823,1.691-1.607,2.287-2.354l1.955,1.152c-0.842,0.615-1.779,1.371-2.812,2.266L547.675,266.222z"/>
	<path fill="#FFFFFF" d="M556.123,267.723l0.119,1.446c0.334-0.771,1.211-1.16,2.633-1.172h0.049c1.398,0,2.355,0.406,2.859,1.226
		c0.35,0.558,0.523,1.858,0.523,3.907c0,1.008-0.045,2.197-0.131,3.57h-2.883c0.104-1.83,0.154-3.248,0.154-4.256
		c0-0.503-0.016-0.904-0.035-1.207c-0.08-0.889-0.461-1.332-1.146-1.332c-0.684,0-1.109,0.236-1.285,0.711l0.117,6.438l-2.801,0.018
		c0-2.724-0.123-5.781-0.369-9.174L556.123,267.723z"/>
</g>
<g>
	<g>
		<path fill="#FFFFFF" d="M558.853,25.312c0.017-1.995,0.024-4.049,0.024-6.163c0-2.12-0.008-4.295-0.024-6.527
			c0.914-0.083,1.756-0.125,2.526-0.125c2.145,0,3.725,0.32,4.741,0.959c1.382,0.876,2.104,2.495,2.168,4.857v0.64
			c0,2.025-0.262,3.469-0.786,4.334c-0.579,0.953-1.64,1.586-3.181,1.9c-0.89,0.184-1.866,0.275-2.931,0.275
			C560.597,25.464,559.75,25.414,558.853,25.312z M561.808,15.162c-0.135,1.948-0.203,3.831-0.203,5.648
			c0,0.687,0.008,1.362,0.024,2.025c0.278,0.047,0.544,0.071,0.798,0.071c0.699,0,1.287-0.181,1.764-0.542
			c0.651-0.485,0.977-1.575,0.977-3.268v-0.036c-0.008-1.705-0.325-2.824-0.953-3.357c-0.484-0.402-1.061-0.604-1.728-0.604
			C562.273,15.1,562.046,15.121,561.808,15.162z"/>
		<path fill="#FFFFFF" d="M573.054,16.53c2.756,0,4.135,1.365,4.135,4.094c0,0.332-0.021,0.687-0.06,1.066h-5.326
			c0,1.521,0.394,2.282,1.18,2.282h0.083c0.691-0.042,1.037-0.435,1.037-1.181c0-0.16-0.016-0.337-0.048-0.533l2.836-0.044
			c0,2.256-1.323,3.398-3.968,3.428c-0.031,0.006-0.06,0.009-0.083,0.009c-2.519,0-3.776-1.424-3.776-4.272v-0.266
			C569.143,18.057,570.473,16.53,573.054,16.53z M571.518,20.055h2.692v-0.213c0-1.078-0.409-1.617-1.228-1.617
			C572.101,18.226,571.613,18.835,571.518,20.055z"/>
		<path fill="#FFFFFF" d="M581.251,19.283l0.119,6.438l-2.919,0.018c0-2.723-0.124-5.781-0.37-9.174l2.192-0.177l0.119,1.447
			c0.334-0.71,1.112-1.116,2.335-1.217c0.183-0.012,0.357-0.018,0.524-0.018c0.961,0,1.691,0.234,2.192,0.702
			c0.579,0.557,0.873,1.442,0.882,2.655l-2.646,0.195c0.008-0.101,0.012-0.198,0.012-0.293c0-0.947-0.329-1.421-0.988-1.421h-0.048
			C581.894,18.469,581.425,18.75,581.251,19.283z"/>
		<path fill="#FFFFFF" d="M590.997,16.53c2.756,0,4.134,1.365,4.134,4.094c0,0.332-0.02,0.687-0.06,1.066h-5.325
			c0,1.521,0.393,2.282,1.18,2.282h0.083c0.691-0.042,1.036-0.435,1.036-1.181c0-0.16-0.016-0.337-0.047-0.533l2.835-0.044
			c0,2.256-1.322,3.398-3.967,3.428c-0.032,0.006-0.06,0.009-0.084,0.009c-2.518,0-3.776-1.424-3.776-4.272v-0.266
			C587.084,18.057,588.416,16.53,590.997,16.53z M589.459,20.055h2.692v-0.213c0-1.078-0.409-1.617-1.227-1.617
			C590.043,18.226,589.555,18.835,589.459,20.055z"/>
		<path fill="#FFFFFF" d="M600.897,21.991l2.835,0.133c0,2.137-1.322,3.221-3.967,3.25c-0.032,0.006-0.06,0.009-0.084,0.009
			c-2.518,0-3.776-1.424-3.776-4.271v-0.267c0.079-3.055,1.422-4.597,4.026-4.627h0.096c2.398,0,3.598,1.024,3.598,3.073
			c0,0.119-0.004,0.237-0.012,0.355l-2.562,0.142v-0.213c0-1.078-0.409-1.616-1.227-1.616c-0.834,0-1.251,0.874-1.251,2.62v0.293
			c0.047,1.889,0.469,2.833,1.263,2.833h0.071c0.691-0.041,1.036-0.435,1.036-1.181C600.944,22.364,600.928,22.187,600.897,21.991z"
			/>
		<path fill="#FFFFFF" d="M607.556,12.924l0.119,5c0.334-0.77,1.112-1.16,2.335-1.172h0.036c1.207,0,2.064,0.409,2.573,1.226
			c0.35,0.557,0.524,1.859,0.524,3.908c0,1.006-0.044,2.197-0.131,3.57h-3.003c0.104-1.829,0.155-3.247,0.155-4.254
			c0-0.503-0.012-0.906-0.036-1.208c-0.079-0.888-0.421-1.332-1.024-1.332s-0.993,0.237-1.167,0.71l0.119,6.438l-2.919,0.018
			c0-2.723-0.163-6.995-0.488-12.815L607.556,12.924z"/>
		<path fill="#FFFFFF" d="M618.338,16.53c2.7,0,4.051,1.397,4.051,4.191c0,0.113-0.005,0.225-0.013,0.337
			c-0.111,3.026-1.549,4.553-4.312,4.583c-0.031,0.006-0.063,0.009-0.095,0.009c-2.629,0-3.943-1.43-3.943-4.29v-0.249
			C614.105,18.057,615.542,16.53,618.338,16.53z M617.945,18.554c-0.5,0.13-0.842,0.613-1.024,1.448
			c-0.111,0.498-0.167,0.998-0.167,1.501c0,0.337,0.024,0.678,0.072,1.021c0.127,0.853,0.535,1.294,1.227,1.323h0.084
			c0.643,0,1.084-0.316,1.322-0.95c0.198-0.527,0.298-1.151,0.298-1.874c0-0.178-0.005-0.358-0.013-0.542
			c-0.063-0.953-0.254-1.548-0.571-1.785c-0.199-0.142-0.437-0.213-0.715-0.213C618.298,18.483,618.127,18.507,617.945,18.554z"/>
		<path fill="#FFFFFF" d="M630.835,24.966l-2.967,0.204c0-4.345-0.095-8.425-0.285-12.238l3.395-0.213
			C630.891,16.74,630.843,20.822,630.835,24.966z"/>
		<path fill="#FFFFFF" d="M634.219,16.299l0.119,1.447c0.333-0.77,1.211-1.16,2.633-1.172h0.048c1.397,0,2.351,0.408,2.859,1.225
			c0.349,0.557,0.523,1.859,0.523,3.908c0,1.007-0.043,2.197-0.131,3.57h-2.883c0.104-1.83,0.154-3.248,0.154-4.254
			c0-0.503-0.012-0.906-0.035-1.208c-0.08-0.888-0.461-1.332-1.144-1.332c-0.684,0-1.112,0.237-1.287,0.71l0.119,6.438l-2.8,0.018
			c0-2.724-0.123-5.782-0.369-9.174L634.219,16.299z"/>
		<path fill="#FFFFFF" d="M643.38,13.697l2.705-0.133v2.939l2.275-0.044l0.035,1.679l-2.311,0.08v4.041
			c0,0.941,0.536,1.412,1.607,1.412c0.223,0,0.465-0.021,0.728-0.062l-0.107,1.954c-0.382,0.035-0.743,0.053-1.084,0.053
			c-2.51,0-3.789-0.965-3.837-2.895v-4.343l-1.953,0.089l-0.048-1.98l2.001,0.018L643.38,13.697z"/>
		<path fill="#FFFFFF" d="M653.257,16.53c2.756,0,4.134,1.365,4.134,4.094c0,0.332-0.02,0.687-0.06,1.066h-5.325
			c0,1.521,0.393,2.282,1.179,2.282h0.084c0.691-0.042,1.036-0.435,1.036-1.181c0-0.16-0.016-0.337-0.048-0.533l2.836-0.044
			c0,2.256-1.322,3.398-3.967,3.428c-0.032,0.006-0.061,0.009-0.084,0.009c-2.518,0-3.776-1.424-3.776-4.272v-0.266
			C649.345,18.057,650.675,16.53,653.257,16.53z M651.72,20.055h2.692v-0.213c0-1.078-0.409-1.617-1.228-1.617
			C652.304,18.226,651.816,18.835,651.72,20.055z"/>
		<path fill="#FFFFFF" d="M661.454,19.283l0.119,6.438l-2.919,0.018c0-2.723-0.123-5.781-0.369-9.174l2.192-0.177l0.119,1.447
			c0.333-0.71,1.111-1.116,2.335-1.217c0.183-0.012,0.357-0.018,0.523-0.018c0.961,0,1.692,0.234,2.192,0.702
			c0.58,0.557,0.874,1.442,0.882,2.655l-2.645,0.195c0.008-0.101,0.012-0.198,0.012-0.293c0-0.947-0.33-1.421-0.989-1.421h-0.048
			C662.097,18.469,661.628,18.75,661.454,19.283z"/>
		<path fill="#FFFFFF" d="M669.519,16.299l0.119,1.447c0.334-0.77,1.211-1.16,2.633-1.172h0.048c1.397,0,2.351,0.408,2.859,1.225
			c0.35,0.557,0.524,1.859,0.524,3.908c0,1.007-0.044,2.197-0.131,3.57h-2.884c0.104-1.83,0.155-3.248,0.155-4.254
			c0-0.503-0.012-0.906-0.036-1.208c-0.079-0.888-0.461-1.332-1.144-1.332c-0.684,0-1.112,0.237-1.287,0.71l0.119,6.438
			l-2.799,0.018c0-2.724-0.124-5.782-0.37-9.174L669.519,16.299z"/>
		<path fill="#FFFFFF" d="M681.302,16.272c2.612,0.106,3.919,1.086,3.919,2.939v6.306l-2.775,0.036l-0.096-0.844
			c-0.571,0.485-1.33,0.728-2.275,0.728c-0.405,0-0.842-0.047-1.311-0.142c-1.406-0.26-2.108-1.071-2.108-2.433
			c0-0.166,0.012-0.343,0.035-0.533c0.159-1.403,1.497-2.104,4.016-2.104c0.484,0,1.016,0.026,1.596,0.08v-1.03
			c0-0.835-0.354-1.252-1.061-1.252h-0.047c-0.056-0.006-0.107-0.009-0.155-0.009c-0.771,0-1.155,0.468-1.155,1.403v0.133
			l-2.836-0.177c0-2.066,1.335-3.1,4.003-3.1H681.302z M682.302,23.288v-1.563c-0.342-0.054-0.651-0.08-0.929-0.08
			c-0.724,0-1.216,0.181-1.478,0.542c-0.159,0.219-0.238,0.423-0.238,0.613c0,0.237,0.127,0.447,0.381,0.631
			c0.199,0.142,0.457,0.213,0.774,0.213C681.218,23.643,681.714,23.525,682.302,23.288z"/>
		<path fill="#FFFFFF" d="M691.047,21.991l2.835,0.133c0,2.137-1.322,3.221-3.967,3.25c-0.032,0.006-0.06,0.009-0.084,0.009
			c-2.518,0-3.776-1.424-3.776-4.271v-0.267c0.079-3.055,1.422-4.597,4.026-4.627h0.096c2.398,0,3.598,1.024,3.598,3.073
			c0,0.119-0.004,0.237-0.012,0.355l-2.562,0.142v-0.213c0-1.078-0.409-1.616-1.227-1.616c-0.834,0-1.251,0.874-1.251,2.62v0.293
			c0.047,1.889,0.469,2.833,1.263,2.833h0.071c0.691-0.041,1.036-0.435,1.036-1.181C691.094,22.364,691.079,22.187,691.047,21.991z"
			/>
		<path fill="#FFFFFF" d="M698.208,14.487c0,0.361-0.171,0.669-0.513,0.924s-0.755,0.382-1.239,0.382
			c-0.477,0-0.886-0.127-1.227-0.382c-0.342-0.254-0.513-0.562-0.513-0.924c0-0.355,0.171-0.66,0.513-0.915
			c0.341-0.254,0.75-0.382,1.227-0.382c0.484,0,0.897,0.127,1.239,0.382S698.208,14.132,698.208,14.487z M695.014,25.695
			c-0.056-3.464-0.083-6.457-0.083-8.979l3.002-0.133c-0.096,2.416-0.143,4.816-0.143,7.202c0,0.64,0.004,1.276,0.012,1.91H695.014z
			"/>
		<path fill="#FFFFFF" d="M703.056,16.53c2.7,0,4.051,1.397,4.051,4.191c0,0.113-0.005,0.225-0.013,0.337
			c-0.111,3.026-1.549,4.553-4.312,4.583c-0.032,0.006-0.063,0.009-0.095,0.009c-2.629,0-3.943-1.43-3.943-4.29v-0.249
			C698.823,18.057,700.26,16.53,703.056,16.53z M702.663,18.554c-0.5,0.13-0.842,0.613-1.024,1.448
			c-0.111,0.498-0.167,0.998-0.167,1.501c0,0.337,0.024,0.678,0.071,1.021c0.127,0.853,0.536,1.294,1.228,1.323h0.083
			c0.644,0,1.084-0.316,1.322-0.95c0.199-0.527,0.299-1.151,0.299-1.874c0-0.178-0.005-0.358-0.013-0.542
			c-0.063-0.953-0.254-1.548-0.571-1.785c-0.199-0.142-0.438-0.213-0.715-0.213C703.016,18.483,702.845,18.507,702.663,18.554z"/>
		<path fill="#FFFFFF" d="M709.954,16.299l0.119,1.447c0.334-0.77,1.212-1.16,2.633-1.172h0.048c1.398,0,2.352,0.408,2.859,1.225
			c0.35,0.557,0.524,1.859,0.524,3.908c0,1.007-0.044,2.197-0.131,3.57h-2.884c0.104-1.83,0.155-3.248,0.155-4.254
			c0-0.503-0.012-0.906-0.036-1.208c-0.079-0.888-0.46-1.332-1.144-1.332c-0.683,0-1.112,0.237-1.286,0.71l0.119,6.438l-2.8,0.018
			c0-2.724-0.123-5.782-0.369-9.174L709.954,16.299z"/>
		<path fill="#FFFFFF" d="M721.737,16.272c2.612,0.106,3.919,1.086,3.919,2.939v6.306l-2.775,0.036l-0.096-0.844
			c-0.571,0.485-1.33,0.728-2.275,0.728c-0.405,0-0.842-0.047-1.311-0.142c-1.405-0.26-2.108-1.071-2.108-2.433
			c0-0.166,0.012-0.343,0.036-0.533c0.158-1.403,1.496-2.104,4.015-2.104c0.484,0,1.017,0.026,1.597,0.08v-1.03
			c0-0.835-0.354-1.252-1.061-1.252h-0.048c-0.056-0.006-0.107-0.009-0.155-0.009c-0.771,0-1.155,0.468-1.155,1.403v0.133
			l-2.835-0.177c0-2.066,1.334-3.1,4.002-3.1H721.737z M722.738,23.288v-1.563c-0.342-0.054-0.652-0.08-0.93-0.08
			c-0.723,0-1.215,0.181-1.478,0.542c-0.159,0.219-0.238,0.423-0.238,0.613c0,0.237,0.127,0.447,0.382,0.631
			c0.198,0.142,0.456,0.213,0.773,0.213C721.653,23.643,722.15,23.525,722.738,23.288z"/>
		<path fill="#FFFFFF" d="M729.957,25.499l-2.966,0.205c0.031-1.96,0.047-3.846,0.047-5.657c0-2.546-0.031-4.947-0.095-7.202
			l2.919-0.036c-0.032,1.451-0.048,2.939-0.048,4.467C729.814,19.91,729.862,22.651,729.957,25.499z"/>
		<path fill="#FFFFFF" d="M745.147,12.915c-0.096,3.985-0.187,8.277-0.274,12.877h-2.704v-5.178h-3.396v4.76l-3.252-0.009
			c0.095-2.173,0.143-4.298,0.143-6.376c0-2.072-0.048-4.097-0.143-6.075h3.109l-0.131,5.178l3.395,0.106v-5.497L745.147,12.915z"/>
		<path fill="#FFFFFF" d="M752.378,25.65l-0.119-1.448c-0.334,0.77-1.231,1.158-2.692,1.164c-0.017,0.006-0.028,0.009-0.036,0.009
			c-1.445,0-2.402-0.485-2.871-1.457c-0.317-0.646-0.477-1.98-0.477-4.005c0-1.042,0.044-2.271,0.131-3.686h2.896
			c-0.159,1.989-0.238,3.52-0.238,4.591c0,0.539,0.02,0.959,0.06,1.261c0.119,0.924,0.52,1.385,1.203,1.385
			c0.683,0,1.112-0.24,1.287-0.719l-0.119-6.163l2.799-0.018c0,2.546,0.123,5.512,0.37,8.899L752.378,25.65z"/>
		<path fill="#FFFFFF" d="M757.477,16.343l0.048,1.421c0.429-0.681,0.926-1.104,1.489-1.27c0.334-0.095,0.671-0.142,1.013-0.142
			c0.254,0,0.508,0.023,0.763,0.071c0.619,0.119,1.061,0.592,1.322,1.421c0.206-0.645,0.563-1.076,1.072-1.292
			c0.508-0.216,1.072-0.327,1.691-0.333h0.048c0.604,0,1.184,0.11,1.739,0.329c0.564,0.225,0.995,0.647,1.293,1.266
			s0.454,1.467,0.471,2.544v5.16l-2.573,0.044c0.103-1.948,0.154-3.606,0.154-4.974c0-1.367-0.35-2.104-1.048-2.211
			c-0.104-0.012-0.203-0.018-0.298-0.018c-0.557,0-0.985,0.267-1.287,0.799c-0.048,0.616-0.071,1.335-0.071,2.158
			c0,1.119,0.044,2.424,0.131,3.917l-2.979,0.018c0.111-2.291,0.167-3.961,0.167-5.009v-0.106c-0.008-1.036-0.282-1.581-0.822-1.634
			h-0.154c-0.484,0-0.953,0.208-1.406,0.622l0.023,6.501l-2.812,0.08v-1.457c0-2.582-0.052-5.16-0.154-7.735L757.477,16.343z"/>
		<path fill="#FFFFFF" d="M773.751,16.272c2.613,0.106,3.92,1.086,3.92,2.939v6.306l-2.776,0.036l-0.095-0.844
			c-0.572,0.485-1.331,0.728-2.276,0.728c-0.404,0-0.842-0.047-1.31-0.142c-1.406-0.26-2.109-1.071-2.109-2.433
			c0-0.166,0.012-0.343,0.036-0.533c0.158-1.403,1.497-2.104,4.015-2.104c0.484,0,1.017,0.026,1.597,0.08v-1.03
			c0-0.835-0.354-1.252-1.061-1.252h-0.048c-0.056-0.006-0.107-0.009-0.154-0.009c-0.771,0-1.156,0.468-1.156,1.403v0.133
			l-2.835-0.177c0-2.066,1.334-3.1,4.003-3.1H773.751z M774.752,23.288v-1.563c-0.342-0.054-0.651-0.08-0.93-0.08
			c-0.723,0-1.215,0.181-1.478,0.542c-0.158,0.219-0.238,0.423-0.238,0.613c0,0.237,0.127,0.447,0.382,0.631
			c0.198,0.142,0.456,0.213,0.774,0.213C773.668,23.643,774.165,23.525,774.752,23.288z"/>
		<path fill="#FFFFFF" d="M780.816,16.299l0.119,1.447c0.334-0.77,1.211-1.16,2.633-1.172h0.048c1.397,0,2.351,0.408,2.859,1.225
			c0.35,0.557,0.524,1.859,0.524,3.908c0,1.007-0.044,2.197-0.131,3.57h-2.884c0.104-1.83,0.155-3.248,0.155-4.254
			c0-0.503-0.012-0.906-0.036-1.208c-0.079-0.888-0.46-1.332-1.144-1.332s-1.112,0.237-1.286,0.71l0.119,6.438l-2.8,0.018
			c0-2.724-0.123-5.782-0.369-9.174L780.816,16.299z"/>
		<path fill="#FFFFFF" d="M791.324,14.487c0,0.361-0.171,0.669-0.512,0.924c-0.342,0.254-0.755,0.382-1.239,0.382
			c-0.477,0-0.886-0.127-1.228-0.382s-0.512-0.562-0.512-0.924c0-0.355,0.17-0.66,0.512-0.915s0.751-0.382,1.228-0.382
			c0.484,0,0.897,0.127,1.239,0.382C791.153,13.827,791.324,14.132,791.324,14.487z M788.131,25.695
			c-0.056-3.464-0.084-6.457-0.084-8.979l3.003-0.133c-0.096,2.416-0.144,4.816-0.144,7.202c0,0.64,0.004,1.276,0.013,1.91H788.131z
			"/>
		<path fill="#FFFFFF" d="M793.968,13.697l2.705-0.133v2.939l2.275-0.044l0.036,1.679l-2.312,0.08v4.041
			c0,0.941,0.536,1.412,1.608,1.412c0.222,0,0.465-0.021,0.727-0.062l-0.107,1.954c-0.381,0.035-0.742,0.053-1.084,0.053
			c-2.51,0-3.788-0.965-3.836-2.895v-4.343l-1.954,0.089l-0.048-1.98l2.002,0.018L793.968,13.697z"/>
		<path fill="#FFFFFF" d="M804.583,16.272c2.613,0.106,3.92,1.086,3.92,2.939v6.306l-2.775,0.036l-0.096-0.844
			c-0.572,0.485-1.33,0.728-2.275,0.728c-0.405,0-0.842-0.047-1.311-0.142c-1.406-0.26-2.109-1.071-2.109-2.433
			c0-0.166,0.013-0.343,0.036-0.533c0.159-1.403,1.497-2.104,4.015-2.104c0.484,0,1.017,0.026,1.597,0.08v-1.03
			c0-0.835-0.354-1.252-1.061-1.252h-0.048c-0.055-0.006-0.106-0.009-0.154-0.009c-0.771,0-1.155,0.468-1.155,1.403v0.133
			l-2.836-0.177c0-2.066,1.335-3.1,4.003-3.1H804.583z M805.584,23.288v-1.563c-0.342-0.054-0.651-0.08-0.929-0.08
			c-0.724,0-1.216,0.181-1.478,0.542c-0.159,0.219-0.238,0.423-0.238,0.613c0,0.237,0.127,0.447,0.381,0.631
			c0.198,0.142,0.457,0.213,0.774,0.213C804.5,23.643,804.997,23.525,805.584,23.288z"/>
		<path fill="#FFFFFF" d="M812.625,19.283l0.119,6.438l-2.919,0.018c0-2.723-0.123-5.781-0.369-9.174l2.192-0.177l0.119,1.447
			c0.333-0.71,1.111-1.116,2.335-1.217c0.183-0.012,0.357-0.018,0.524-0.018c0.961,0,1.691,0.234,2.191,0.702
			c0.58,0.557,0.874,1.442,0.882,2.655l-2.645,0.195c0.008-0.101,0.012-0.198,0.012-0.293c0-0.947-0.33-1.421-0.989-1.421h-0.047
			C813.269,18.469,812.8,18.75,812.625,19.283z"/>
		<path fill="#FFFFFF" d="M821.834,14.487c0,0.361-0.171,0.669-0.512,0.924c-0.342,0.254-0.755,0.382-1.239,0.382
			c-0.477,0-0.886-0.127-1.227-0.382c-0.342-0.254-0.513-0.562-0.513-0.924c0-0.355,0.171-0.66,0.513-0.915
			c0.341-0.254,0.75-0.382,1.227-0.382c0.484,0,0.897,0.127,1.239,0.382C821.664,13.827,821.834,14.132,821.834,14.487z
			 M818.642,25.695c-0.056-3.464-0.084-6.457-0.084-8.979l3.003-0.133c-0.096,2.416-0.144,4.816-0.144,7.202
			c0,0.64,0.004,1.276,0.013,1.91H818.642z"/>
		<path fill="#FFFFFF" d="M826.683,16.53c2.701,0,4.051,1.397,4.051,4.191c0,0.113-0.004,0.225-0.012,0.337
			c-0.111,3.026-1.549,4.553-4.312,4.583c-0.032,0.006-0.063,0.009-0.096,0.009c-2.629,0-3.943-1.43-3.943-4.29v-0.249
			C822.451,18.057,823.888,16.53,826.683,16.53z M826.291,18.554c-0.5,0.13-0.842,0.613-1.024,1.448
			c-0.111,0.498-0.167,0.998-0.167,1.501c0,0.337,0.023,0.678,0.071,1.021c0.127,0.853,0.536,1.294,1.228,1.323h0.083
			c0.644,0,1.084-0.316,1.322-0.95c0.198-0.527,0.298-1.151,0.298-1.874c0-0.178-0.004-0.358-0.012-0.542
			c-0.063-0.953-0.254-1.548-0.572-1.785c-0.198-0.142-0.437-0.213-0.715-0.213C826.644,18.483,826.473,18.507,826.291,18.554z"/>
	</g>
</g>
</svg>
