<?xml version="1.0" encoding="utf-8"?>
<!-- Generator: Adobe Illustrator 16.0.0, SVG Export Plug-In . SVG Version: 6.00 Build 0)  -->
<!DOCTYPE svg PUBLIC "-//W3C//DTD SVG 1.1//EN" "http://www.w3.org/Graphics/SVG/1.1/DTD/svg11.dtd">
<svg version="1.1" id="Capa_1" xmlns="http://www.w3.org/2000/svg" xmlns:xlink="http://www.w3.org/1999/xlink" x="0px" y="0px"
	 width="457.818px" height="90.533px" viewBox="0 0 457.818 90.533" enable-background="new 0 0 457.818 90.533"
	 xml:space="preserve">
<g>
	<path fill="#E9496E" d="M0,67.621l457.817-12.698c0.089-5.66-6.935-54.847-6.935-54.847L450.88,0L0.374,12.636L0.076,57.993
		L0,67.621z"/>
	<g>
		<g>
			<path fill="#FFFFFF" d="M127.114,15.642c8.593-0.169,12.998,5.223,13.214,16.178c0.217,10.97-4.278,16.546-13.483,16.728
				c-9.206,0.182-13.92-5.41-14.145-16.776C112.492,21.212,117.296,15.835,127.114,15.642z M121.327,32.811
				c-0.013,0.396-0.015,0.776-0.008,1.142c0.113,5.736,1.966,8.569,5.558,8.498c3.817-0.075,5.661-3.361,5.533-9.858
				c-0.128-6.497-1.968-9.71-5.52-9.641C123.319,23.022,121.464,26.309,121.327,32.811z"/>
			<path fill="#FFFFFF" d="M150.448,32.465l0.633,16.541l-7.5,0.193c-0.138-6.999-0.61-14.852-1.415-23.557l5.625-0.568l0.379,3.714
				c0.821-1.842,2.801-2.924,5.939-3.245c0.468-0.04,0.917-0.064,1.346-0.072c2.469-0.048,4.359,0.515,5.669,1.692
				c1.518,1.401,2.318,3.661,2.4,6.779l-6.787,0.636c0.015-0.259,0.021-0.51,0.016-0.754c-0.048-2.434-0.919-3.635-2.613-3.602
				l-0.122,0.002C152.061,30.34,150.87,31.086,150.448,32.465z"/>
			<path fill="#FFFFFF" d="M166.235,48.638c-0.319-8.898-0.542-16.588-0.67-23.07l7.708-0.494
				c-0.122,6.212-0.123,12.385-0.002,18.517c0.032,1.643,0.075,3.278,0.127,4.906L166.235,48.638z M165.683,20.634
				c2.346-2.162,4.266-4.217,5.759-6.164l5.08,2.868c-2.133,1.625-4.503,3.613-7.111,5.962L165.683,20.634z"/>
			<path fill="#FFFFFF" d="M177.031,50.959l7.189-0.439c-0.017,0.183-0.023,0.366-0.02,0.549c0.033,1.658,0.938,2.546,2.717,2.663
				c0.286,0.024,0.552,0.035,0.797,0.03c1.531-0.03,2.614-0.508,3.249-1.434c0.555-0.833,0.811-2.375,0.767-4.627
				c-0.012-0.608-0.046-1.277-0.101-2.007c-1.11,1.727-3.214,2.697-6.313,2.91c-6.063,0.074-9.17-3.708-9.321-11.347l-0.003-0.159
				c-0.112-7.73,3.414-11.689,10.578-11.876c1.959-0.039,3.731,0.779,5.316,2.452l0.02-3.631l6.71,0.096
				c0.248,12.553,0.35,20.329,0.307,23.328c-0.043,3-0.603,5.415-1.679,7.248c-1.077,1.833-2.947,3.026-5.611,3.581
				c-1.403,0.302-2.798,0.467-4.186,0.494c-1.246,0.024-2.482-0.058-3.711-0.247c-2.622-0.405-4.435-1.229-5.44-2.473
				c-0.837-1.019-1.271-2.364-1.305-4.038C176.985,51.698,176.998,51.34,177.031,50.959z M191.488,41.632l-0.183-9.266
				c-1.03-1.487-2.31-2.214-3.841-2.184c-0.306,0.006-0.622,0.042-0.947,0.11c-1.973,0.389-3.025,2.442-3.156,6.158
				c-0.013,0.396-0.015,0.777-0.008,1.142c0.06,3.028,0.852,4.869,2.376,5.524c0.515,0.233,1.058,0.345,1.63,0.333
				C188.624,43.424,190,42.819,191.488,41.632z"/>
			<path fill="#FFFFFF" d="M210.93,24.193c7.083-0.14,10.693,3.297,10.832,10.312c0.017,0.852-0.017,1.766-0.099,2.741
				l-13.686,0.271c0.077,3.91,1.126,5.845,3.146,5.806l0.214-0.004c1.774-0.142,2.642-1.171,2.604-3.088
				c-0.008-0.411-0.058-0.866-0.149-1.367l7.285-0.258c0.115,5.797-3.226,8.8-10.021,9.011c-0.082,0.017-0.153,0.026-0.214,0.027
				c-6.471,0.128-9.778-3.468-9.922-10.786l-0.014-0.685C200.955,28.317,204.296,24.324,210.93,24.193z M207.159,33.332l6.919-0.136
				l-0.011-0.548c-0.054-2.769-1.133-4.133-3.235-4.091C208.566,28.601,207.342,30.193,207.159,33.332z"/>
			<path fill="#FFFFFF" d="M229.472,23.234l0.38,3.714c0.818-1.994,3.054-3.043,6.707-3.146l0.122-0.002
				c3.592-0.071,6.062,0.931,7.41,3.005c0.926,1.412,1.441,4.751,1.545,10.015c0.051,2.587-0.001,5.647-0.156,9.181l-7.409,0.146
				c0.172-4.707,0.233-8.354,0.182-10.94c-0.025-1.293-0.076-2.327-0.153-3.102c-0.25-2.278-1.252-3.4-3.007-3.365
				c-1.756,0.034-2.846,0.665-3.271,1.891l0.633,16.541l-7.194,0.188c-0.138-6.999-0.61-14.852-1.414-23.558L229.472,23.234z"/>
			<path fill="#FFFFFF" d="M257.865,23.267c7.083-0.14,10.693,3.298,10.832,10.312c0.017,0.853-0.016,1.767-0.099,2.742
				l-13.686,0.27c0.077,3.911,1.126,5.846,3.147,5.806l0.214-0.004c1.773-0.142,2.642-1.171,2.604-3.088
				c-0.008-0.411-0.058-0.867-0.149-1.367l7.285-0.258c0.114,5.797-3.226,8.801-10.021,9.011c-0.082,0.017-0.153,0.026-0.214,0.027
				c-6.47,0.127-9.777-3.468-9.922-10.786l-0.013-0.685C247.89,27.391,251.231,23.398,257.865,23.267z M254.095,32.406l6.919-0.137
				l-0.011-0.548c-0.055-2.769-1.133-4.133-3.235-4.091C255.502,27.674,254.277,29.267,254.095,32.406z"/>
			<path fill="#FFFFFF" d="M270.721,38.356l7.006-0.39l0.006,0.297c0.046,2.343,1.039,3.511,2.979,3.503l0.122-0.002
				c1.878-0.037,2.804-0.732,2.777-2.087l-0.003-0.16c-0.111-1.49-1.987-2.655-5.628-3.496s-5.85-2.335-6.627-4.481
				c-0.281-0.755-0.427-1.483-0.441-2.183c-0.025-1.278,0.39-2.474,1.247-3.586c1.314-1.701,3.336-2.699,6.066-2.997
				c0.734-0.075,1.447-0.12,2.142-0.133c1.816-0.036,3.423,0.168,4.821,0.613c1.911,0.617,3.246,1.526,4.005,2.729
				c0.506,0.827,0.77,1.75,0.79,2.77c0.01,0.487-0.031,0.99-0.123,1.509l-6.55,0.243c0.054-0.381,0.077-0.732,0.071-1.051
				c-0.03-1.521-0.699-2.323-2.007-2.403c-0.144-0.013-0.287-0.018-0.429-0.015c-1.347,0.026-2.246,0.554-2.695,1.583
				c-0.157,0.353-0.231,0.674-0.226,0.963c0.014,0.715,0.475,1.323,1.384,1.822c1.28,0.706,3.167,1.41,5.662,2.114
				c2.495,0.705,4.188,1.954,5.082,3.747c0.32,0.679,0.486,1.36,0.5,2.045c0.022,1.156-0.403,2.329-1.278,3.519
				c-1.392,1.9-3.585,3.031-6.579,3.395c-0.652,0.09-1.294,0.14-1.927,0.152c-2.246,0.045-4.336-0.348-6.271-1.178
				C272.121,44.136,270.831,41.855,270.721,38.356z"/>
			<path fill="#FFFFFF" d="M326.915,13.046c-0.021,5.145,0.024,10.541,0.136,16.185c0.102,5.143,0.258,10.497,0.47,16.064
				l-7.256,0.166l-0.314-3.487c-1.478,1.719-3.471,2.603-5.981,2.652c-6.266,0.124-9.47-3.39-9.611-10.541
				c-0.003-0.152,0.004-0.305,0.021-0.457c-0.019-7.169,3.013-10.813,9.095-10.934c0.245-0.005,0.5-0.002,0.766,0.008
				c2.083,0.05,3.784,0.861,5.102,2.434c-0.067-3.378-0.257-7.354-0.572-11.93L326.915,13.046z M319.736,37.298l-0.309-7.894
				c-1.208-1.178-2.435-1.755-3.679-1.73c-0.51,0.01-1.019,0.119-1.525,0.327c-1.6,0.656-2.372,2.421-2.315,5.297
				c0.007,0.334,0.023,0.677,0.051,1.026c0.272,3.48,1.35,5.301,3.232,5.461c0.184,0.012,0.368,0.016,0.551,0.012
				C317.375,39.764,318.707,38.932,319.736,37.298z"/>
			<path fill="#FFFFFF" d="M339.459,21.657c7.083-0.14,10.693,3.298,10.832,10.312c0.017,0.852-0.016,1.766-0.099,2.742
				l-13.686,0.27c0.077,3.911,1.126,5.845,3.147,5.806l0.214-0.004c1.773-0.142,2.642-1.171,2.604-3.088
				c-0.008-0.411-0.058-0.866-0.149-1.367l7.284-0.258c0.115,5.797-3.226,8.801-10.021,9.011c-0.081,0.017-0.152,0.026-0.214,0.027
				c-6.47,0.128-9.777-3.468-9.922-10.786l-0.014-0.685C329.483,25.781,332.825,21.788,339.459,21.657z M335.688,30.795l6.919-0.137
				l-0.011-0.548c-0.055-2.769-1.133-4.133-3.235-4.091C337.096,26.064,335.871,27.657,335.688,30.795z"/>
			<path fill="#FFFFFF" d="M361.438,44.284l-7.613,0.675c-0.018-5.037-0.072-9.885-0.165-14.54
				c-0.129-6.543-0.333-12.711-0.61-18.505l7.499-0.239c-0.008,3.729,0.027,7.557,0.104,11.482
				C360.787,29.927,361.048,36.97,361.438,44.284z"/>
		</g>
	</g>
	<g>
		<g>
			<path fill="#331842" d="M27.811,86.65c0.153-0.003,0.297,0.024,0.431,0.081c0.134,0.057,0.252,0.134,0.355,0.23
				c0.103,0.097,0.186,0.212,0.248,0.348s0.094,0.281,0.098,0.436c0.006,0.295-0.104,0.564-0.33,0.808
				c-1.531,1.281-3.273,1.94-5.227,1.979c-2.316,0.046-4.307-0.737-5.972-2.348c-1.665-1.611-2.521-3.582-2.566-5.914
				c-0.046-2.324,0.731-4.324,2.331-6c1.607-1.683,3.565-2.547,5.874-2.592c1.981-0.039,3.784,0.582,5.407,1.864
				c0.199,0.186,0.302,0.44,0.309,0.763c0.003,0.162-0.022,0.31-0.075,0.444c-0.053,0.135-0.129,0.254-0.229,0.358
				c-0.099,0.104-0.216,0.185-0.351,0.244c-0.135,0.059-0.279,0.089-0.433,0.092c-0.272,0.005-0.529-0.094-0.77-0.3
				c-0.539-0.411-1.129-0.723-1.772-0.935c-0.643-0.212-1.324-0.311-2.042-0.296c-1.702,0.033-3.145,0.669-4.328,1.908
				c-1.169,1.224-1.737,2.693-1.703,4.407c0.034,1.721,0.66,3.169,1.876,4.347c1.224,1.184,2.69,1.759,4.399,1.725
				c1.458-0.028,2.733-0.507,3.824-1.435C27.345,86.733,27.56,86.662,27.811,86.65z"/>
			<path fill="#331842" d="M46.413,84.175c0.033,1.644-0.512,3.045-1.634,4.205c-1.135,1.175-2.505,1.778-4.11,1.81
				c-1.619,0.032-3.011-0.517-4.178-1.646c-1.167-1.129-1.766-2.508-1.798-4.138c-0.032-1.629,0.512-3.031,1.634-4.205
				c1.121-1.174,2.491-1.777,4.11-1.81c1.604-0.031,2.998,0.517,4.178,1.646c0.583,0.565,1.023,1.192,1.319,1.882
				C46.23,82.609,46.39,83.361,46.413,84.175z M40.479,80.594c-0.517,0.01-0.996,0.118-1.438,0.324
				c-0.442,0.205-0.824,0.478-1.146,0.818s-0.574,0.737-0.757,1.19c-0.183,0.453-0.269,0.933-0.259,1.438
				c0.01,0.505,0.115,0.981,0.316,1.427c0.201,0.445,0.468,0.832,0.803,1.159s0.727,0.584,1.178,0.772
				c0.45,0.188,0.933,0.276,1.45,0.266c0.509-0.01,0.985-0.118,1.428-0.323s0.826-0.48,1.151-0.824s0.579-0.74,0.762-1.189
				c0.183-0.45,0.27-0.928,0.26-1.434c-0.01-0.505-0.115-0.979-0.316-1.421c-0.201-0.442-0.47-0.829-0.808-1.159
				c-0.338-0.331-0.732-0.59-1.183-0.778S40.989,80.583,40.479,80.594z"/>
			<path fill="#331842" d="M54.455,79.201c0.913-0.742,1.998-1.125,3.254-1.15c0.732-0.014,1.431,0.116,2.096,0.391
				c0.665,0.275,1.253,0.655,1.766,1.14c0.512,0.485,0.921,1.06,1.227,1.725c0.307,0.665,0.467,1.377,0.482,2.135l0.102,5.193
				c0.006,0.309-0.095,0.573-0.304,0.791c-0.208,0.219-0.463,0.33-0.763,0.336c-0.307,0.006-0.569-0.096-0.786-0.306
				c-0.218-0.21-0.329-0.47-0.335-0.779l-0.103-5.193c-0.009-0.449-0.104-0.872-0.287-1.27c-0.183-0.396-0.425-0.741-0.727-1.033
				c-0.303-0.293-0.654-0.523-1.055-0.69c-0.401-0.168-0.825-0.248-1.271-0.239c-0.454,0.009-0.875,0.104-1.267,0.283
				c-0.391,0.18-0.733,0.423-1.027,0.731s-0.523,0.664-0.686,1.067c-0.163,0.404-0.24,0.831-0.231,1.28l0.103,5.193
				c0.006,0.309-0.095,0.573-0.304,0.792c-0.208,0.218-0.463,0.33-0.763,0.336c-0.307,0.006-0.569-0.096-0.786-0.306
				c-0.217-0.21-0.329-0.47-0.334-0.778l-0.189-9.586c-0.006-0.302,0.095-0.563,0.304-0.786c0.208-0.222,0.466-0.335,0.773-0.342
				c0.3-0.006,0.558,0.098,0.776,0.311C54.338,78.663,54.449,78.913,54.455,79.201z"/>
			<path fill="#331842" d="M75.543,74.854c-1.925,0.038-2.869,1.022-2.831,2.954l0.011,0.548l2.104-0.042
				c0.3-0.006,0.558,0.096,0.775,0.307c0.217,0.21,0.329,0.466,0.334,0.768c0.006,0.309-0.095,0.573-0.304,0.791
				s-0.463,0.331-0.763,0.336l-2.104,0.042l0.156,7.9c0.003,0.147-0.022,0.289-0.075,0.423c-0.053,0.135-0.127,0.254-0.223,0.357
				c-0.096,0.104-0.209,0.185-0.341,0.244c-0.131,0.059-0.274,0.089-0.427,0.092c-0.154,0.003-0.297-0.022-0.431-0.076
				c-0.134-0.054-0.25-0.13-0.35-0.23c-0.1-0.1-0.179-0.216-0.237-0.348c-0.059-0.133-0.089-0.272-0.092-0.42l-0.156-7.9
				l-0.502,0.01c-0.314,0.006-0.576-0.094-0.786-0.3c-0.21-0.207-0.318-0.468-0.325-0.784c-0.006-0.316,0.091-0.58,0.293-0.791
				c0.201-0.211,0.459-0.32,0.773-0.326l0.502-0.01l-0.011-0.548c-0.067-3.399,1.588-5.132,4.964-5.198
				c0.3-0.006,0.558,0.096,0.775,0.306c0.217,0.21,0.329,0.466,0.334,0.769c0.006,0.309-0.095,0.572-0.304,0.791
				C76.097,74.736,75.843,74.848,75.543,74.854z"/>
			<path fill="#331842" d="M81.865,88.281l-0.289-14.652c-0.006-0.309,0.091-0.573,0.293-0.791s0.459-0.331,0.773-0.336
				c0.313-0.007,0.576,0.096,0.786,0.306c0.209,0.21,0.318,0.47,0.324,0.779l0.268,13.546l0.502-0.01
				c0.3-0.006,0.558,0.096,0.775,0.306c0.217,0.21,0.329,0.469,0.334,0.778c0.006,0.302-0.095,0.562-0.304,0.781
				s-0.463,0.331-0.763,0.336l-1.601,0.031c-0.3,0.006-0.557-0.096-0.771-0.306S81.871,88.583,81.865,88.281z"/>
			<path fill="#331842" d="M93.988,75.238c0.007,0.358-0.112,0.667-0.358,0.924c-0.246,0.257-0.547,0.39-0.903,0.396
				c-0.356,0.007-0.662-0.113-0.918-0.361c-0.256-0.248-0.388-0.551-0.395-0.909c-0.007-0.358,0.113-0.666,0.359-0.923
				c0.246-0.258,0.547-0.391,0.903-0.397s0.662,0.113,0.918,0.361C93.85,74.577,93.981,74.88,93.988,75.238z M91.865,88.073
				l-0.189-9.585c-0.006-0.31,0.095-0.573,0.304-0.791c0.208-0.219,0.463-0.331,0.763-0.337c0.3-0.006,0.559,0.096,0.775,0.306
				c0.217,0.21,0.332,0.469,0.345,0.779l0.189,9.585c-0.001,0.31-0.105,0.573-0.314,0.792s-0.463,0.331-0.763,0.336
				c-0.3,0.006-0.559-0.096-0.776-0.306C91.982,88.642,91.871,88.382,91.865,88.073z"/>
			<path fill="#331842" d="M109.46,85.492c0.314-0.006,0.576,0.093,0.786,0.296c0.21,0.203,0.318,0.462,0.324,0.778
				c0.006,0.31-0.104,0.582-0.33,0.817c-1.062,0.977-2.326,1.479-3.791,1.508c-1.618,0.032-3.011-0.516-4.178-1.646
				c-1.167-1.129-1.767-2.508-1.799-4.137c-0.032-1.629,0.512-3.031,1.634-4.206s2.492-1.777,4.11-1.809
				c1.472-0.029,2.754,0.423,3.848,1.357c0.255,0.22,0.387,0.495,0.393,0.825c0.006,0.316-0.091,0.581-0.293,0.796
				s-0.459,0.326-0.773,0.332c-0.265,0.005-0.504-0.074-0.717-0.239c-0.362-0.295-0.739-0.516-1.133-0.662
				c-0.394-0.146-0.821-0.216-1.281-0.207c-0.509,0.01-0.985,0.116-1.428,0.318c-0.443,0.202-0.828,0.473-1.156,0.813
				c-0.329,0.34-0.584,0.737-0.767,1.19s-0.27,0.937-0.259,1.449c0.01,0.513,0.115,0.991,0.316,1.438
				c0.2,0.445,0.472,0.832,0.813,1.159s0.737,0.583,1.188,0.767c0.451,0.185,0.93,0.271,1.439,0.261
				c0.46-0.009,0.884-0.093,1.272-0.251c0.388-0.159,0.753-0.392,1.096-0.701C108.966,85.586,109.195,85.504,109.46,85.492z"/>
			<path fill="#331842" d="M117.409,76.874l0.492-0.01l-0.078-3.961c-0.006-0.302,0.095-0.562,0.304-0.78
				c0.208-0.219,0.466-0.331,0.773-0.337c0.3-0.006,0.558,0.096,0.775,0.306c0.217,0.21,0.329,0.466,0.334,0.768l0.078,3.961
				l1.308-0.026c0.3-0.006,0.557,0.096,0.77,0.306c0.213,0.21,0.323,0.466,0.33,0.768c0.006,0.309-0.094,0.573-0.299,0.791
				c-0.205,0.219-0.458,0.331-0.757,0.336l-1.308,0.026l0.104,5.298c0.027,1.398,0.739,2.083,2.134,2.055
				c0.3-0.006,0.557,0.096,0.77,0.306c0.214,0.21,0.323,0.466,0.33,0.769c0.006,0.309-0.093,0.572-0.298,0.791
				c-0.205,0.218-0.458,0.33-0.758,0.336c-2.854,0.056-4.309-1.348-4.365-4.213l-0.104-5.299l-0.492,0.01
				c-0.293,0.006-0.548-0.096-0.765-0.306c-0.217-0.21-0.329-0.469-0.335-0.778c-0.006-0.302,0.095-0.562,0.304-0.781
				C116.866,76.991,117.116,76.879,117.409,76.874z"/>
			<path fill="#331842" d="M140.878,82.311c0.033,1.644-0.512,3.045-1.634,4.206c-1.135,1.174-2.505,1.777-4.11,1.809
				c-1.619,0.032-3.011-0.517-4.178-1.646c-1.167-1.129-1.767-2.508-1.799-4.138c-0.032-1.629,0.513-3.031,1.634-4.205
				c1.122-1.174,2.491-1.777,4.11-1.809c1.604-0.032,2.997,0.517,4.178,1.646c0.583,0.564,1.023,1.192,1.319,1.881
				C140.696,80.745,140.855,81.497,140.878,82.311z M134.945,78.73c-0.516,0.01-0.996,0.118-1.438,0.323
				c-0.443,0.205-0.825,0.478-1.146,0.818c-0.321,0.34-0.573,0.737-0.756,1.19s-0.27,0.933-0.26,1.438
				c0.01,0.505,0.115,0.981,0.316,1.427c0.201,0.446,0.469,0.832,0.803,1.159s0.727,0.584,1.177,0.772
				c0.45,0.188,0.934,0.276,1.45,0.267c0.509-0.011,0.985-0.118,1.428-0.323c0.443-0.206,0.826-0.48,1.151-0.824
				c0.325-0.343,0.579-0.74,0.762-1.189c0.183-0.45,0.27-0.928,0.26-1.433c-0.01-0.505-0.115-0.979-0.316-1.421
				c-0.201-0.442-0.47-0.829-0.808-1.159c-0.338-0.331-0.732-0.59-1.183-0.777C135.935,78.809,135.455,78.719,134.945,78.73z"/>
			<path fill="#331842" d="M157.572,86.26l5.303-14.583c0.213-0.51,0.561-0.77,1.042-0.78c0.495-0.01,0.853,0.236,1.072,0.738
				l5.896,14.415c0.059,0.139,0.089,0.29,0.093,0.451c0.006,0.309-0.097,0.574-0.309,0.796c-0.212,0.222-0.471,0.336-0.778,0.342
				c-0.307,0.006-0.567-0.098-0.781-0.311c-0.114-0.11-0.2-0.228-0.258-0.354l-2.035-4.965l-5.358,0.105l-1.848,5.042
				c-0.053,0.128-0.135,0.249-0.244,0.363c-0.212,0.222-0.471,0.336-0.778,0.342c-0.307,0.006-0.569-0.098-0.786-0.311
				c-0.217-0.213-0.329-0.475-0.334-0.784C157.464,86.599,157.499,86.43,157.572,86.26z M165.914,79.794L164,75.1l-1.728,4.766
				L165.914,79.794z"/>
			<path fill="#331842" d="M178.81,76.757l0.004,0.211c0.515-0.432,1.077-0.766,1.687-1.003c0.609-0.237,1.263-0.362,1.96-0.376
				c0.307-0.006,0.637,0.009,0.99,0.044s0.679,0.104,0.978,0.207c0.299,0.104,0.547,0.248,0.747,0.434
				c0.199,0.186,0.302,0.43,0.308,0.731c0.003,0.155-0.024,0.299-0.08,0.434c-0.057,0.134-0.133,0.254-0.229,0.357
				c-0.095,0.104-0.209,0.185-0.34,0.244c-0.132,0.059-0.274,0.089-0.428,0.092c-0.132,0.002-0.287-0.033-0.462-0.106
				c-0.443-0.167-0.922-0.246-1.439-0.235c-0.509,0.01-0.985,0.116-1.428,0.318c-0.443,0.202-0.827,0.473-1.151,0.813
				c-0.325,0.34-0.579,0.736-0.762,1.189c-0.183,0.454-0.27,0.937-0.259,1.449L179,86.364c0.006,0.302-0.095,0.562-0.304,0.781
				c-0.208,0.218-0.463,0.33-0.763,0.336c-0.307,0.006-0.568-0.096-0.786-0.306s-0.329-0.466-0.334-0.768l-0.189-9.606
				c-0.006-0.302,0.095-0.562,0.304-0.781c0.208-0.218,0.466-0.33,0.773-0.336c0.3-0.006,0.558,0.096,0.775,0.306
				C178.692,76.2,178.804,76.456,178.81,76.757z"/>
			<path fill="#331842" d="M207.731,85.787c0.006,0.309-0.095,0.573-0.304,0.791c-0.208,0.219-0.463,0.331-0.763,0.336
				c-0.307,0.006-0.567-0.096-0.781-0.306c-0.214-0.21-0.323-0.469-0.33-0.778l-0.118-5.994c-0.007-0.337-0.078-0.655-0.212-0.955
				c-0.135-0.299-0.316-0.562-0.544-0.785s-0.495-0.399-0.801-0.526s-0.633-0.188-0.982-0.181c-0.342,0.007-0.662,0.08-0.959,0.219
				c-0.297,0.14-0.558,0.323-0.779,0.553c-0.223,0.229-0.396,0.496-0.519,0.801c-0.123,0.304-0.181,0.629-0.174,0.973l0.118,5.994
				c0.006,0.309-0.095,0.573-0.304,0.791s-0.463,0.331-0.763,0.336c-0.307,0.006-0.569-0.096-0.786-0.306
				c-0.217-0.21-0.329-0.47-0.335-0.779l-0.118-5.994c-0.007-0.344-0.08-0.666-0.218-0.965c-0.139-0.299-0.322-0.559-0.55-0.779
				c-0.228-0.221-0.493-0.395-0.795-0.522c-0.302-0.127-0.625-0.188-0.966-0.181s-0.662,0.078-0.959,0.214
				c-0.298,0.136-0.558,0.32-0.779,0.553c-0.223,0.232-0.396,0.501-0.519,0.806c-0.123,0.305-0.181,0.629-0.174,0.973l0.119,5.994
				c0.006,0.309-0.096,0.573-0.304,0.791c-0.209,0.218-0.463,0.33-0.763,0.336c-0.307,0.006-0.569-0.096-0.786-0.306
				c-0.217-0.209-0.329-0.469-0.335-0.778l-0.189-9.596c-0.006-0.302,0.096-0.562,0.304-0.781c0.208-0.218,0.463-0.33,0.763-0.336
				c0.244-0.005,0.462,0.06,0.653,0.192c0.191,0.133,0.324,0.312,0.398,0.535c0.737-0.514,1.579-0.779,2.528-0.798
				c0.697-0.014,1.356,0.111,1.975,0.377c0.62,0.265,1.165,0.674,1.637,1.227c0.947-1.136,2.126-1.717,3.535-1.745
				c0.635-0.012,1.239,0.101,1.812,0.338c0.574,0.238,1.076,0.565,1.506,0.982c0.43,0.417,0.775,0.909,1.034,1.476
				c0.259,0.568,0.395,1.171,0.408,1.81L207.731,85.787z"/>
			<path fill="#331842" d="M223.424,85.487l-0.004-0.21c-0.515,0.432-1.077,0.766-1.687,1.003c-0.61,0.236-1.264,0.362-1.961,0.375
				c-1.619,0.032-3.011-0.516-4.178-1.646c-1.167-1.129-1.766-2.508-1.798-4.137c-0.032-1.629,0.512-3.031,1.634-4.206
				c1.121-1.174,2.491-1.777,4.11-1.809c1.604-0.031,2.998,0.517,4.178,1.646c1.167,1.129,1.767,2.509,1.798,4.138l0.095,4.803
				c0.006,0.302-0.096,0.562-0.304,0.781c-0.208,0.218-0.463,0.33-0.763,0.336c-0.307,0.006-0.569-0.096-0.786-0.306
				S223.43,85.79,223.424,85.487z M219.583,77.059c-0.516,0.011-0.996,0.118-1.438,0.324c-0.442,0.206-0.824,0.478-1.146,0.818
				c-0.321,0.34-0.574,0.737-0.757,1.19c-0.183,0.453-0.269,0.933-0.259,1.438c0.01,0.505,0.115,0.981,0.316,1.427
				c0.201,0.445,0.468,0.832,0.803,1.159s0.727,0.584,1.178,0.772c0.45,0.188,0.934,0.277,1.45,0.266
				c0.509-0.01,0.985-0.117,1.428-0.323c0.443-0.205,0.826-0.479,1.151-0.823s0.579-0.74,0.762-1.19s0.27-0.927,0.26-1.433
				s-0.115-0.979-0.316-1.421c-0.201-0.442-0.47-0.829-0.808-1.159s-0.732-0.59-1.183-0.778
				C220.572,77.138,220.092,77.049,219.583,77.059z"/>
			<path fill="#331842" d="M237.221,74.509c1.388-0.027,2.621,0.38,3.699,1.223l-0.104-5.256c-0.006-0.316,0.091-0.58,0.293-0.791
				c0.202-0.211,0.459-0.32,0.773-0.326c0.307-0.006,0.569,0.093,0.786,0.295c0.217,0.203,0.328,0.463,0.335,0.779l0.194,9.859
				c0.032,1.643-0.512,3.045-1.634,4.205c-1.136,1.174-2.505,1.777-4.11,1.809c-1.618,0.032-3.011-0.516-4.178-1.646
				c-1.167-1.129-1.767-2.508-1.799-4.137s0.513-3.031,1.634-4.206C234.232,75.144,235.602,74.541,237.221,74.509z M241.01,80.335
				c-0.01-0.506-0.116-0.979-0.316-1.422c-0.201-0.442-0.47-0.828-0.808-1.159c-0.338-0.33-0.732-0.59-1.183-0.777
				c-0.451-0.188-0.93-0.276-1.439-0.267c-0.517,0.01-0.996,0.118-1.438,0.323c-0.443,0.206-0.825,0.479-1.146,0.818
				s-0.573,0.736-0.756,1.19c-0.183,0.453-0.269,0.933-0.259,1.438c0.01,0.506,0.115,0.981,0.316,1.427s0.468,0.832,0.803,1.159
				s0.727,0.585,1.177,0.772c0.45,0.188,0.934,0.277,1.45,0.267c0.509-0.01,0.985-0.118,1.428-0.323
				c0.442-0.206,0.826-0.479,1.151-0.823s0.579-0.74,0.762-1.19C240.934,81.319,241.02,80.841,241.01,80.335z"/>
			<path fill="#331842" d="M260.878,79.943c0.033,1.644-0.512,3.045-1.634,4.206c-1.135,1.174-2.505,1.777-4.11,1.809
				c-1.619,0.032-3.011-0.517-4.178-1.646c-1.167-1.129-1.766-2.508-1.798-4.138c-0.032-1.629,0.512-3.03,1.634-4.205
				c1.122-1.174,2.492-1.777,4.11-1.809c1.604-0.032,2.998,0.517,4.178,1.646c0.583,0.565,1.023,1.192,1.319,1.881
				C260.695,78.376,260.855,79.129,260.878,79.943z M254.945,76.362c-0.517,0.01-0.996,0.118-1.438,0.323
				c-0.443,0.205-0.825,0.478-1.146,0.818c-0.321,0.34-0.574,0.736-0.756,1.189c-0.183,0.453-0.27,0.933-0.26,1.438
				c0.01,0.506,0.115,0.981,0.316,1.427c0.201,0.446,0.468,0.832,0.803,1.159c0.334,0.327,0.727,0.584,1.177,0.772
				c0.45,0.188,0.934,0.276,1.45,0.267c0.509-0.01,0.985-0.118,1.428-0.323c0.443-0.206,0.826-0.48,1.151-0.824
				c0.324-0.344,0.578-0.74,0.762-1.19c0.183-0.45,0.27-0.928,0.259-1.433c-0.01-0.505-0.115-0.979-0.316-1.421
				s-0.47-0.829-0.808-1.159c-0.338-0.331-0.732-0.59-1.183-0.777C255.934,76.44,255.454,76.352,254.945,76.362z"/>
			<path fill="#331842" d="M286.371,82.022c0.314-0.006,0.576,0.092,0.786,0.295s0.318,0.462,0.324,0.779
				c0.006,0.309-0.093,0.574-0.298,0.796c-1.062,0.977-2.33,1.479-3.802,1.508c-1.619,0.032-3.011-0.517-4.178-1.646
				s-1.766-2.508-1.798-4.137s0.512-3.031,1.634-4.206c1.122-1.174,2.491-1.777,4.11-1.809c1.604-0.032,2.997,0.517,4.178,1.646
				c0.583,0.558,1.025,1.183,1.325,1.876c0.3,0.693,0.458,1.447,0.474,2.261c0.006,0.316-0.095,0.58-0.304,0.791
				c-0.208,0.211-0.467,0.32-0.773,0.326l-8.288,0.164c0.126,0.384,0.308,0.733,0.544,1.048c0.236,0.315,0.512,0.583,0.827,0.806
				s0.66,0.392,1.036,0.511c0.375,0.119,0.766,0.175,1.17,0.167c0.46-0.009,0.881-0.087,1.262-0.235
				c0.38-0.148,0.732-0.366,1.055-0.653C285.859,82.13,286.099,82.035,286.371,82.022z M286.769,78.336
				c-0.126-0.384-0.309-0.733-0.549-1.048c-0.24-0.315-0.518-0.584-0.833-0.806c-0.314-0.223-0.66-0.393-1.036-0.512
				s-0.762-0.175-1.16-0.167c-0.397,0.008-0.784,0.079-1.158,0.213c-0.374,0.134-0.716,0.317-1.025,0.552
				c-0.31,0.234-0.576,0.514-0.8,0.838c-0.224,0.324-0.388,0.681-0.492,1.069L286.769,78.336z"/>
			<path fill="#331842" d="M297.167,74.412c0.914-0.742,1.998-1.125,3.254-1.149c0.732-0.015,1.431,0.115,2.096,0.39
				s1.253,0.655,1.766,1.14c0.512,0.485,0.921,1.06,1.228,1.725c0.306,0.665,0.467,1.376,0.481,2.135l0.103,5.193
				c0.006,0.31-0.095,0.573-0.304,0.792s-0.463,0.331-0.763,0.336c-0.307,0.006-0.569-0.096-0.786-0.306
				c-0.217-0.21-0.328-0.47-0.334-0.779l-0.103-5.193c-0.009-0.449-0.104-0.873-0.287-1.27c-0.183-0.396-0.425-0.741-0.727-1.034
				s-0.654-0.522-1.055-0.69c-0.401-0.167-0.825-0.247-1.271-0.238c-0.454,0.009-0.876,0.104-1.267,0.283s-0.733,0.424-1.027,0.731
				c-0.294,0.308-0.523,0.664-0.686,1.067c-0.164,0.403-0.24,0.83-0.231,1.279l0.103,5.193c0.006,0.309-0.095,0.573-0.304,0.791
				c-0.208,0.219-0.463,0.33-0.763,0.336c-0.307,0.006-0.569-0.096-0.786-0.306c-0.217-0.21-0.329-0.47-0.334-0.779l-0.189-9.585
				c-0.006-0.302,0.095-0.564,0.304-0.786c0.208-0.222,0.466-0.336,0.773-0.342c0.3-0.006,0.559,0.098,0.776,0.311
				C297.049,73.873,297.161,74.124,297.167,74.412z"/>
			<path fill="#331842" d="M335.386,80.581c0.153-0.003,0.297,0.023,0.431,0.081c0.134,0.057,0.252,0.134,0.355,0.229
				c0.103,0.097,0.186,0.213,0.248,0.349s0.094,0.281,0.098,0.436c0.006,0.295-0.104,0.564-0.33,0.808
				c-1.531,1.28-3.273,1.939-5.227,1.979c-2.316,0.045-4.307-0.737-5.972-2.348c-1.665-1.611-2.521-3.582-2.566-5.914
				c-0.046-2.324,0.731-4.324,2.331-6c1.607-1.683,3.565-2.547,5.874-2.592c1.981-0.039,3.784,0.583,5.407,1.864
				c0.199,0.186,0.302,0.44,0.309,0.763c0.003,0.162-0.022,0.31-0.075,0.444c-0.053,0.135-0.129,0.254-0.229,0.358
				s-0.216,0.185-0.351,0.244s-0.279,0.089-0.433,0.092c-0.272,0.006-0.529-0.094-0.77-0.3c-0.539-0.411-1.129-0.722-1.772-0.935
				c-0.643-0.212-1.324-0.311-2.042-0.296c-1.703,0.034-3.145,0.669-4.328,1.908c-1.169,1.224-1.737,2.693-1.704,4.407
				c0.034,1.721,0.66,3.169,1.876,4.347c1.224,1.185,2.69,1.759,4.4,1.726c1.458-0.029,2.732-0.507,3.824-1.435
				C334.92,80.664,335.135,80.592,335.386,80.581z"/>
			<path fill="#331842" d="M353.988,78.106c0.033,1.643-0.512,3.045-1.634,4.205c-1.135,1.175-2.505,1.777-4.11,1.809
				c-1.619,0.032-3.011-0.516-4.178-1.646c-1.167-1.129-1.766-2.508-1.798-4.137c-0.032-1.629,0.512-3.031,1.634-4.206
				c1.121-1.174,2.491-1.777,4.11-1.809c1.604-0.032,2.997,0.517,4.178,1.646c0.583,0.564,1.023,1.191,1.319,1.882
				C353.805,76.54,353.965,77.292,353.988,78.106z M348.055,74.524c-0.517,0.011-0.996,0.118-1.438,0.324s-0.825,0.478-1.146,0.818
				c-0.322,0.34-0.574,0.737-0.757,1.19c-0.183,0.453-0.269,0.933-0.259,1.438c0.01,0.505,0.115,0.981,0.316,1.427
				c0.201,0.445,0.468,0.832,0.803,1.159s0.727,0.584,1.177,0.772s0.934,0.277,1.45,0.266c0.509-0.01,0.985-0.118,1.428-0.323
				c0.442-0.205,0.826-0.479,1.151-0.823s0.579-0.74,0.762-1.19c0.183-0.449,0.27-0.927,0.26-1.433s-0.115-0.979-0.316-1.422
				c-0.201-0.442-0.47-0.828-0.808-1.159c-0.338-0.331-0.732-0.59-1.183-0.778C349.044,74.603,348.564,74.514,348.055,74.524z"/>
			<path fill="#331842" d="M359.938,82.793l-0.289-14.652c-0.006-0.309,0.092-0.572,0.293-0.791c0.202-0.218,0.459-0.33,0.773-0.336
				s0.576,0.096,0.786,0.306s0.318,0.47,0.324,0.778l0.267,13.546l0.502-0.01c0.3-0.006,0.559,0.096,0.775,0.306
				s0.329,0.469,0.335,0.778c0.006,0.302-0.096,0.562-0.304,0.78c-0.208,0.219-0.463,0.331-0.763,0.337l-1.601,0.031
				c-0.3,0.006-0.557-0.096-0.771-0.306C360.054,83.352,359.944,83.095,359.938,82.793z"/>
			<path fill="#331842" d="M380.978,77.573c0.033,1.643-0.512,3.045-1.634,4.206c-1.135,1.174-2.505,1.777-4.11,1.809
				c-1.619,0.032-3.011-0.517-4.178-1.646c-1.167-1.129-1.766-2.508-1.798-4.138c-0.032-1.629,0.512-3.03,1.634-4.205
				c1.122-1.174,2.491-1.777,4.11-1.809c1.604-0.032,2.998,0.517,4.178,1.646c0.583,0.564,1.023,1.191,1.319,1.881
				C380.795,76.006,380.955,76.759,380.978,77.573z M375.045,73.992c-0.516,0.01-0.996,0.118-1.438,0.323
				c-0.442,0.205-0.824,0.479-1.146,0.818s-0.574,0.736-0.757,1.189c-0.183,0.454-0.269,0.933-0.259,1.438
				c0.01,0.506,0.115,0.981,0.316,1.427c0.201,0.446,0.468,0.832,0.803,1.159s0.727,0.584,1.178,0.772
				c0.45,0.188,0.934,0.276,1.45,0.267c0.509-0.01,0.985-0.118,1.428-0.323c0.443-0.206,0.826-0.48,1.151-0.824
				c0.325-0.343,0.579-0.74,0.762-1.19c0.183-0.45,0.27-0.927,0.26-1.433c-0.01-0.506-0.115-0.979-0.316-1.422
				s-0.47-0.828-0.808-1.159c-0.338-0.331-0.732-0.59-1.183-0.777S375.554,73.981,375.045,73.992z"/>
			<path fill="#331842" d="M403.578,81.922c0.006,0.309-0.096,0.573-0.304,0.792c-0.209,0.218-0.463,0.33-0.763,0.336
				c-0.307,0.006-0.567-0.096-0.781-0.306c-0.213-0.21-0.323-0.47-0.329-0.779l-0.119-5.994c-0.006-0.337-0.078-0.655-0.212-0.955
				c-0.135-0.299-0.316-0.561-0.544-0.785c-0.228-0.224-0.495-0.399-0.801-0.527c-0.306-0.127-0.634-0.188-0.982-0.181
				c-0.342,0.007-0.662,0.08-0.959,0.219s-0.557,0.323-0.779,0.553c-0.223,0.229-0.395,0.496-0.518,0.8
				c-0.124,0.305-0.181,0.629-0.174,0.973l0.118,5.994c0.006,0.309-0.095,0.573-0.304,0.791c-0.209,0.218-0.463,0.33-0.763,0.336
				c-0.307,0.006-0.569-0.096-0.786-0.306c-0.217-0.209-0.329-0.469-0.335-0.778l-0.118-5.994c-0.007-0.344-0.08-0.666-0.218-0.965
				c-0.139-0.299-0.322-0.559-0.549-0.779s-0.493-0.394-0.795-0.521c-0.303-0.127-0.625-0.188-0.967-0.181
				c-0.342,0.006-0.662,0.078-0.959,0.214s-0.557,0.32-0.779,0.552c-0.222,0.233-0.395,0.502-0.518,0.807
				c-0.123,0.304-0.181,0.628-0.174,0.973l0.118,5.993c0.006,0.31-0.095,0.573-0.304,0.792s-0.463,0.331-0.763,0.336
				c-0.307,0.006-0.569-0.096-0.786-0.306c-0.217-0.21-0.329-0.47-0.334-0.779l-0.189-9.596c-0.006-0.302,0.095-0.562,0.304-0.78
				c0.208-0.219,0.462-0.331,0.763-0.336c0.244-0.005,0.462,0.059,0.653,0.192s0.323,0.312,0.398,0.535
				c0.736-0.513,1.579-0.779,2.528-0.798c0.698-0.014,1.356,0.112,1.976,0.377c0.62,0.266,1.165,0.675,1.637,1.227
				c0.947-1.135,2.126-1.717,3.535-1.745c0.635-0.013,1.239,0.1,1.812,0.338s1.075,0.565,1.506,0.981
				c0.43,0.417,0.775,0.909,1.034,1.477c0.259,0.567,0.395,1.171,0.407,1.81L403.578,81.922z"/>
			<path fill="#331842" d="M411.739,72.372c1.022-0.891,2.238-1.351,3.647-1.378c1.604-0.032,2.997,0.517,4.178,1.646
				c0.583,0.558,1.025,1.183,1.325,1.876s0.458,1.447,0.474,2.262c0.032,1.643-0.513,3.045-1.634,4.205
				c-1.136,1.174-2.506,1.777-4.11,1.809c-1.618,0.032-3.011-0.517-4.178-1.646c-1.167-1.129-1.767-2.508-1.799-4.138l-0.194-9.859
				c-0.006-0.316,0.091-0.579,0.293-0.791c0.202-0.211,0.459-0.32,0.773-0.326c0.307-0.006,0.569,0.093,0.786,0.296
				c0.217,0.203,0.328,0.462,0.334,0.778L411.739,72.372z M415.576,80.589c0.509-0.01,0.985-0.118,1.428-0.323
				c0.442-0.206,0.826-0.48,1.151-0.824c0.325-0.344,0.579-0.74,0.762-1.19c0.183-0.45,0.27-0.928,0.259-1.433
				c-0.01-0.505-0.115-0.979-0.315-1.421c-0.201-0.442-0.471-0.829-0.809-1.159s-0.732-0.59-1.183-0.777
				c-0.45-0.188-0.93-0.277-1.439-0.267c-0.516,0.01-0.996,0.118-1.438,0.323c-0.443,0.205-0.825,0.478-1.146,0.818
				c-0.321,0.34-0.573,0.736-0.756,1.189s-0.27,0.933-0.259,1.438c0.01,0.506,0.115,0.981,0.315,1.427
				c0.201,0.446,0.469,0.832,0.803,1.159s0.727,0.584,1.177,0.772C414.576,80.51,415.06,80.599,415.576,80.589z"/>
			<path fill="#331842" d="M430.127,68.605c0.007,0.358-0.113,0.666-0.359,0.924s-0.547,0.391-0.903,0.397s-0.662-0.113-0.918-0.361
				c-0.256-0.248-0.388-0.551-0.395-0.909c-0.007-0.358,0.112-0.666,0.358-0.924s0.547-0.39,0.903-0.397
				c0.356-0.007,0.662,0.114,0.918,0.362C429.989,67.944,430.12,68.247,430.127,68.605z M428.004,81.44l-0.189-9.586
				c-0.006-0.309,0.095-0.572,0.303-0.791c0.208-0.218,0.463-0.33,0.763-0.336c0.3-0.006,0.558,0.096,0.775,0.306
				c0.217,0.21,0.332,0.47,0.345,0.778l0.189,9.586c-0.001,0.309-0.106,0.573-0.314,0.791s-0.463,0.33-0.763,0.336
				c-0.3,0.006-0.559-0.096-0.775-0.306S428.01,81.749,428.004,81.44z"/>
			<path fill="#331842" d="M446.261,81.09l-0.004-0.211c-0.515,0.432-1.077,0.766-1.687,1.003c-0.609,0.236-1.263,0.362-1.961,0.376
				c-1.619,0.031-3.011-0.517-4.178-1.646c-1.167-1.129-1.767-2.509-1.799-4.138c-0.032-1.629,0.513-3.031,1.634-4.205
				c1.122-1.175,2.491-1.777,4.11-1.81c1.604-0.031,2.997,0.517,4.178,1.646c1.167,1.129,1.767,2.509,1.799,4.138l0.095,4.803
				c0.006,0.302-0.096,0.562-0.304,0.781s-0.463,0.33-0.763,0.336c-0.307,0.006-0.569-0.096-0.786-0.306
				C446.378,81.648,446.267,81.392,446.261,81.09z M442.42,72.662c-0.516,0.01-0.996,0.118-1.438,0.323
				c-0.443,0.206-0.825,0.478-1.146,0.818c-0.321,0.341-0.573,0.737-0.756,1.19s-0.27,0.933-0.259,1.438
				c0.01,0.505,0.115,0.981,0.315,1.427c0.201,0.445,0.469,0.832,0.803,1.159c0.334,0.328,0.727,0.584,1.177,0.772
				s0.934,0.277,1.45,0.267c0.509-0.01,0.985-0.118,1.428-0.323c0.442-0.206,0.826-0.48,1.151-0.824
				c0.325-0.344,0.579-0.74,0.762-1.19c0.183-0.45,0.27-0.927,0.259-1.433c-0.01-0.505-0.115-0.979-0.315-1.421
				c-0.201-0.442-0.471-0.829-0.809-1.159s-0.732-0.589-1.183-0.777S442.929,72.652,442.42,72.662z"/>
		</g>
	</g>
</g>
</svg>
