<?xml version="1.0" encoding="utf-8"?>
<!-- Generator: Adobe Illustrator 16.0.0, SVG Export Plug-In . SVG Version: 6.00 Build 0)  -->
<!DOCTYPE svg PUBLIC "-//W3C//DTD SVG 1.1//EN" "http://www.w3.org/Graphics/SVG/1.1/DTD/svg11.dtd">
<svg version="1.1" id="Capa_1" xmlns="http://www.w3.org/2000/svg" xmlns:xlink="http://www.w3.org/1999/xlink" x="0px" y="0px"
	 width="239.234px" height="98.964px" viewBox="0 0 239.234 98.964" enable-background="new 0 0 239.234 98.964"
	 xml:space="preserve">
<g>
	<circle fill="#331842" stroke="#A0C219" stroke-width="5" stroke-miterlimit="10" cx="180.726" cy="22.604" r="20.104"/>
	<g>
		<path fill="#E9496E" d="M173.595,26.176l4.557-0.289c0,2.11,0.892,3.166,2.676,3.166c1.771,0,2.734-0.631,2.889-1.894
			c0.064-0.588,0.098-1.18,0.098-1.778c0-0.684-0.046-1.374-0.136-2.067c-0.169-1.262-0.867-1.894-2.096-1.894h-0.116
			c-1.317,0.048-2.274,0.814-2.869,2.298l-4.713-0.086l0.544-11.983l13.03-0.173l0.059,3.513l-8.629,0.13l-0.35,4.915
			c0.595-1.281,1.674-2.014,3.239-2.197c0.375-0.048,0.743-0.072,1.104-0.072c1.125,0,2.159,0.222,3.104,0.665
			c1.241,0.578,2.017,1.957,2.327,4.134c0.103,0.742,0.154,1.47,0.154,2.183c0,1.35-0.193,2.626-0.581,3.831
			c-0.596,1.841-1.759,2.983-3.49,3.426c-1.229,0.318-2.463,0.477-3.704,0.477c-0.504,0-1.016-0.029-1.532-0.086
			c-1.758-0.183-3.147-0.747-4.169-1.691c-0.944-0.857-1.416-2.183-1.416-3.975C173.576,26.552,173.583,26.369,173.595,26.176z"/>
	</g>
</g>
</svg>
