<?xml version="1.0" encoding="utf-8"?>
<!-- Generator: Adobe Illustrator 16.0.0, SVG Export Plug-In . SVG Version: 6.00 Build 0)  -->
<!DOCTYPE svg PUBLIC "-//W3C//DTD SVG 1.1//EN" "http://www.w3.org/Graphics/SVG/1.1/DTD/svg11.dtd">
<svg version="1.1" id="Capa_1" xmlns="http://www.w3.org/2000/svg" xmlns:xlink="http://www.w3.org/1999/xlink" x="0px" y="0px"
	 width="985.613px" height="336.507px" viewBox="0 0 985.613 336.507" enable-background="new 0 0 985.613 336.507"
	 xml:space="preserve">
<g>
	<g>
		<g>
			<path fill="#E6332A" d="M585.735,117.366c3.748-9.246,3.8-19.385,0.145-28.549c-0.087-0.22-0.176-0.438-0.267-0.655
				c-3.525-8.398-9.939-15.279-18.062-19.372c-5-2.522-8.942-6.748-11.105-11.899c-1.421-3.386-2.029-7.112-1.761-10.777
				l0.609-12.612l-12.118-0.462l-1.059,18.65c-0.584,7.571-4.914,14.47-11.581,18.458c-16.228,9.701-22.93,30.197-15.594,47.675
				c4.025,9.595,11.577,16.986,21.257,20.81c9.678,3.823,20.245,3.583,29.758-0.677
				C574.963,133.924,581.986,126.612,585.735,117.366z"/>
			
				<radialGradient id="SVGID_1_" cx="1472.3008" cy="617.6479" r="31.8296" gradientTransform="matrix(0.387 0.9221 -0.9221 0.387 550.0298 -1493.6487)" gradientUnits="userSpaceOnUse">
				<stop  offset="0" style="stop-color:#FFFFFF"/>
				<stop  offset="1" style="stop-color:#F2F2F2"/>
			</radialGradient>
			<circle fill="url(#SVGID_1_)" cx="550.278" cy="102.99" r="31.822"/>
		</g>
		<g>
			<path fill="#008D36" d="M710.833,117.366c3.749-9.246,3.8-19.385,0.146-28.549c-0.089-0.22-0.178-0.438-0.269-0.655
				c-3.525-8.398-9.938-15.279-18.06-19.372c-5-2.522-8.944-6.748-11.107-11.899c-1.421-3.386-2.029-7.112-1.759-10.777
				l0.608-12.612l-12.116-0.462l-1.062,18.65c-0.583,7.571-4.913,14.47-11.581,18.458c-16.226,9.701-22.93,30.197-15.594,47.675
				c4.028,9.595,11.577,16.986,21.257,20.81c9.678,3.823,20.245,3.583,29.757-0.677
				C700.062,133.924,707.084,126.612,710.833,117.366z"/>
			
				<radialGradient id="SVGID_2_" cx="1520.7129" cy="502.2993" r="31.8296" gradientTransform="matrix(0.387 0.9221 -0.9221 0.387 550.0298 -1493.6487)" gradientUnits="userSpaceOnUse">
				<stop  offset="0" style="stop-color:#FFFFFF"/>
				<stop  offset="1" style="stop-color:#F2F2F2"/>
			</radialGradient>
			<circle fill="url(#SVGID_2_)" cx="675.376" cy="102.99" r="31.822"/>
		</g>
		<g>
			<path fill="#662483" d="M835.93,117.366c3.748-9.246,3.8-19.385,0.146-28.549c-0.087-0.22-0.175-0.438-0.268-0.655
				c-3.523-8.398-9.938-15.279-18.06-19.372c-5-2.522-8.944-6.748-11.107-11.899c-1.422-3.386-2.028-7.112-1.76-10.777l0.608-12.612
				l-12.116-0.462l-1.062,18.65c-0.581,7.571-4.913,14.47-11.579,18.458c-16.228,9.701-22.932,30.197-15.596,47.675
				c4.028,9.595,11.577,16.986,21.257,20.81c9.68,3.823,20.245,3.583,29.759-0.677C825.159,133.924,832.182,126.612,835.93,117.366z
				"/>
			
				<radialGradient id="SVGID_3_" cx="1569.123" cy="386.9507" r="31.8296" gradientTransform="matrix(0.387 0.9221 -0.9221 0.387 550.0298 -1493.6487)" gradientUnits="userSpaceOnUse">
				<stop  offset="0" style="stop-color:#FFFFFF"/>
				<stop  offset="1" style="stop-color:#F2F2F2"/>
			</radialGradient>
			<circle fill="url(#SVGID_3_)" cx="800.473" cy="102.99" r="31.822"/>
		</g>
		<g>
			<path fill="#D60B52" d="M961.027,117.365c3.749-9.246,3.8-19.385,0.146-28.55c-0.087-0.22-0.176-0.438-0.267-0.655
				c-3.524-8.397-9.938-15.278-18.061-19.371c-5-2.522-8.942-6.748-11.105-11.9c-1.421-3.386-2.029-7.112-1.759-10.776L930.59,33.5
				l-12.117-0.462l-1.059,18.65c-0.584,7.571-4.914,14.47-11.581,18.457c-16.227,9.701-22.93,30.198-15.594,47.676
				c4.025,9.595,11.577,16.986,21.257,20.81c9.678,3.823,20.245,3.583,29.757-0.677
				C950.256,133.923,957.279,126.612,961.027,117.365z"/>
			
				<radialGradient id="SVGID_4_" cx="1617.5332" cy="271.603" r="31.8296" gradientTransform="matrix(0.387 0.9221 -0.9221 0.387 550.0298 -1493.6487)" gradientUnits="userSpaceOnUse">
				<stop  offset="0" style="stop-color:#FFFFFF"/>
				<stop  offset="1" style="stop-color:#F2F2F2"/>
			</radialGradient>
			<circle fill="url(#SVGID_4_)" cx="925.571" cy="102.99" r="31.822"/>
		</g>
	</g>
	<rect x="490.247" fill="#E9496E" width="495.366" height="48"/>
	<g>
		<g>
			<path fill="#FFFFFF" d="M521.496,14.16c-0.137,5.696-0.269,11.832-0.394,18.408h-3.864v-7.401h-4.854v6.805l-4.647-0.013
				c0.136-3.106,0.204-6.145,0.204-9.115c0-2.962-0.067-5.856-0.204-8.684h4.443l-0.187,7.401l4.854,0.152v-7.858L521.496,14.16z"/>
			<path fill="#FFFFFF" d="M527.763,16.407c0,0.517-0.245,0.957-0.73,1.32c-0.488,0.364-1.079,0.546-1.771,0.546
				c-0.682,0-1.267-0.182-1.754-0.546c-0.488-0.364-0.73-0.804-0.73-1.32c0-0.508,0.242-0.943,0.73-1.308
				c0.488-0.364,1.073-0.546,1.754-0.546c0.692,0,1.283,0.182,1.771,0.546C527.518,15.464,527.763,15.899,527.763,16.407z
				 M523.198,32.429c-0.08-4.951-0.119-9.229-0.119-12.835l4.292-0.19c-0.136,3.453-0.204,6.885-0.204,10.296
				c0,0.914,0.006,1.824,0.017,2.729H523.198z"/>
			<path fill="#FFFFFF" d="M528.495,27.858l3.9-0.14v0.165c0,1.304,0.537,1.964,1.616,1.98h0.068c1.044,0,1.567-0.376,1.567-1.13
				v-0.089c-0.048-0.829-1.076-1.498-3.093-2.006c-2.015-0.508-3.227-1.362-3.636-2.564c-0.146-0.423-0.221-0.829-0.221-1.219
				c0-0.711,0.244-1.371,0.73-1.98c0.75-0.931,1.886-1.464,3.406-1.6c0.409-0.034,0.807-0.051,1.192-0.051
				c1.011,0,1.9,0.131,2.674,0.394c1.056,0.364,1.788,0.885,2.197,1.562c0.271,0.466,0.407,0.982,0.407,1.549
				c0,0.271-0.027,0.55-0.085,0.838l-3.645,0.063c0.034-0.211,0.051-0.406,0.051-0.584c0-0.846-0.364-1.299-1.09-1.358
				c-0.08-0.008-0.159-0.013-0.239-0.013c-0.749,0-1.254,0.284-1.516,0.851c-0.091,0.195-0.136,0.373-0.136,0.533
				c0,0.398,0.25,0.741,0.75,1.028c0.704,0.406,1.745,0.819,3.125,1.238c1.379,0.419,2.308,1.132,2.783,2.139
				c0.171,0.381,0.257,0.762,0.257,1.143c0,0.644-0.25,1.291-0.75,1.942c-0.795,1.041-2.026,1.646-3.696,1.815
				c-0.363,0.042-0.721,0.063-1.073,0.063c-1.249,0-2.407-0.241-3.474-0.724C529.21,31.087,528.518,29.805,528.495,27.858z"/>
			<path fill="#FFFFFF" d="M543.635,15.277l3.866-0.19v4.202l3.253-0.063l0.051,2.399l-3.304,0.114v5.776
				c0,1.346,0.766,2.019,2.299,2.019c0.318,0,0.664-0.029,1.039-0.089l-0.151,2.793c-0.547,0.051-1.062,0.076-1.552,0.076
				c-3.588,0-5.416-1.379-5.482-4.139v-6.208l-2.793,0.127l-0.068-2.831l2.861,0.025L543.635,15.277z"/>
			<path fill="#FFFFFF" d="M558.213,19.327c3.86,0,5.791,1.998,5.791,5.992c0,0.161-0.006,0.322-0.017,0.482
				c-0.159,4.325-2.214,6.509-6.165,6.551c-0.045,0.009-0.091,0.013-0.136,0.013c-3.76,0-5.639-2.044-5.639-6.132v-0.355
				C552.162,21.511,554.217,19.327,558.213,19.327z M557.651,22.222c-0.717,0.187-1.204,0.876-1.466,2.069
				c-0.157,0.711-0.236,1.426-0.236,2.146c0,0.482,0.034,0.969,0.102,1.46c0.183,1.219,0.768,1.85,1.754,1.892h0.12
				c0.919,0,1.549-0.453,1.892-1.358c0.282-0.753,0.426-1.646,0.426-2.679c0-0.254-0.006-0.512-0.019-0.774
				c-0.091-1.362-0.361-2.213-0.815-2.552c-0.284-0.203-0.625-0.305-1.022-0.305C558.157,22.12,557.913,22.154,557.651,22.222z"/>
			<path fill="#FFFFFF" d="M569.471,23.263l0.17,9.204l-4.172,0.025c0-3.893-0.176-8.265-0.526-13.114l3.133-0.254l0.17,2.069
				c0.477-1.016,1.589-1.595,3.338-1.739c0.261-0.017,0.511-0.025,0.75-0.025c1.374,0,2.418,0.334,3.134,1.003
				c0.829,0.796,1.249,2.061,1.26,3.796l-3.779,0.279c0.012-0.144,0.018-0.283,0.018-0.419c0-1.354-0.472-2.031-1.414-2.031h-0.066
				C570.391,22.099,569.72,22.501,569.471,23.263z"/>
			<path fill="#FFFFFF" d="M582.636,16.407c0,0.517-0.245,0.957-0.73,1.32c-0.488,0.364-1.079,0.546-1.771,0.546
				c-0.682,0-1.267-0.182-1.754-0.546c-0.488-0.364-0.73-0.804-0.73-1.32c0-0.508,0.242-0.943,0.73-1.308
				c0.488-0.364,1.073-0.546,1.754-0.546c0.692,0,1.283,0.182,1.771,0.546C582.391,15.464,582.636,15.899,582.636,16.407z
				 M578.071,32.429c-0.08-4.951-0.119-9.229-0.119-12.835l4.292-0.19c-0.136,3.453-0.204,6.885-0.204,10.296
				c0,0.914,0.006,1.824,0.017,2.729H578.071z"/>
			<path fill="#FFFFFF" d="M590.163,18.959c3.735,0.152,5.603,1.553,5.603,4.202v9.014l-3.968,0.051l-0.136-1.206
				c-0.818,0.694-1.902,1.041-3.253,1.041c-0.579,0-1.204-0.067-1.874-0.203c-2.01-0.372-3.015-1.532-3.015-3.479
				c0-0.237,0.018-0.491,0.051-0.762c0.227-2.006,2.14-3.009,5.74-3.009c0.69,0,1.451,0.038,2.28,0.114V23.25
				c0-1.193-0.505-1.79-1.516-1.79h-0.068c-0.08-0.008-0.151-0.013-0.222-0.013c-1.104,0-1.652,0.669-1.652,2.006v0.19l-4.053-0.254
				c0-2.954,1.907-4.431,5.722-4.431L590.163,18.959L590.163,18.959z M591.594,28.988v-2.234c-0.486-0.076-0.931-0.114-1.329-0.114
				c-1.031,0-1.735,0.258-2.109,0.774c-0.229,0.313-0.341,0.605-0.341,0.876c0,0.339,0.182,0.639,0.545,0.901
				c0.282,0.203,0.651,0.305,1.105,0.305C590.044,29.496,590.753,29.327,591.594,28.988z"/>
			<path fill="#FFFFFF" d="M603.447,19.276l4.462-0.267c-0.104,2.539-0.153,4.63-0.153,6.271c0,0.618,0.011,1.172,0.034,1.663
				c0.045,1.812,0.59,2.742,1.635,2.793c0.068,0.009,0.13,0.013,0.188,0.013c0.931,0,1.521-0.397,1.771-1.193
				c0.139-0.465,0.205-1.57,0.205-3.313c0-1.396-0.045-3.199-0.136-5.408l4.188-0.229c0.046,2.582,0.068,4.799,0.068,6.652
				c0,2.311-0.034,4.054-0.103,5.23c-0.113,2.116-0.927,3.724-2.437,4.824c-1.363,0.999-3.275,1.498-5.74,1.498
				c-0.282,0-0.571-0.009-0.866-0.025l-0.479-3.098c0.215,0.008,0.426,0.013,0.63,0.013c1.907,0,3.213-0.25,3.917-0.749
				c0.729-0.517,1.09-1.346,1.09-2.488V31.26c-0.646,0.762-1.641,1.143-2.979,1.143h-0.238c-1.465-0.051-2.6-0.48-3.406-1.289
				c-0.806-0.809-1.244-1.942-1.318-3.402S603.595,23.44,603.447,19.276z"/>
			<path fill="#FFFFFF" d="M634.46,14.084v3.58l-6.727-0.203v4.164l6.046-0.127l0.151,3.44h-5.396v3.225h7.065v3.605l-11.783-0.127
				c0.125-2.378,0.188-4.773,0.188-7.186c0-3.343-0.119-6.716-0.356-10.118C626.211,14.262,629.816,14.177,634.46,14.084z"/>
			<path fill="#FFFFFF" d="M640.268,32.035c-1.431-4.9-2.713-9.106-3.849-12.619l4.139-0.165l2.097,9.229
				c1.09-3.453,1.958-6.602,2.604-9.445l4.07,0.381c-1.283,3.546-2.776,7.736-4.479,12.568L640.268,32.035z"/>
			<path fill="#FFFFFF" d="M655.953,19.327c3.86,0,5.791,1.998,5.791,5.992c0,0.161-0.006,0.322-0.02,0.482
				c-0.157,4.325-2.214,6.509-6.163,6.551c-0.047,0.009-0.093,0.013-0.138,0.013c-3.758,0-5.637-2.044-5.637-6.132v-0.355
				C649.901,21.511,651.957,19.327,655.953,19.327z M655.391,22.222c-0.715,0.187-1.204,0.876-1.465,2.069
				c-0.159,0.711-0.237,1.426-0.237,2.146c0,0.482,0.033,0.969,0.103,1.46c0.181,1.219,0.766,1.85,1.754,1.892h0.119
				c0.919,0,1.55-0.453,1.89-1.358c0.284-0.753,0.428-1.646,0.428-2.679c0-0.254-0.008-0.512-0.019-0.774
				c-0.091-1.362-0.363-2.213-0.815-2.552c-0.284-0.203-0.625-0.305-1.022-0.305C655.896,22.12,655.652,22.154,655.391,22.222z"/>
			<path fill="#FFFFFF" d="M667.466,32.149l-4.241,0.292c0.045-2.801,0.068-5.497,0.068-8.087c0-3.639-0.045-7.071-0.136-10.296
				l4.173-0.051c-0.046,2.074-0.068,4.202-0.068,6.386C667.261,24.16,667.33,28.079,667.466,32.149z"/>
			<path fill="#FFFFFF" d="M677.769,32.365l-0.17-2.069c-0.477,1.101-1.76,1.655-3.849,1.663c-0.023,0.009-0.04,0.013-0.051,0.013
				c-2.066,0-3.437-0.694-4.104-2.082c-0.454-0.922-0.681-2.831-0.681-5.726c0-1.489,0.062-3.246,0.188-5.269h4.14
				c-0.229,2.844-0.342,5.032-0.342,6.563c0,0.771,0.028,1.371,0.087,1.803c0.17,1.32,0.742,1.98,1.72,1.98
				c0.976,0,1.589-0.343,1.839-1.028l-0.17-8.811l4.002-0.025c0,3.64,0.176,7.88,0.528,12.721L677.769,32.365z"/>
			<path fill="#FFFFFF" d="M689.282,27.135l4.053,0.19c0,3.056-1.891,4.604-5.671,4.646c-0.045,0.009-0.085,0.013-0.119,0.013
				c-3.599,0-5.399-2.035-5.399-6.106v-0.381c0.113-4.367,2.032-6.572,5.759-6.614h0.136c3.429,0,5.144,1.464,5.144,4.393
				c0,0.169-0.006,0.339-0.017,0.508l-3.662,0.203v-0.305c0-1.54-0.585-2.311-1.754-2.311c-1.192,0-1.789,1.249-1.789,3.745v0.419
				c0.068,2.7,0.67,4.05,1.805,4.05h0.104c0.986-0.059,1.479-0.622,1.479-1.688C689.35,27.668,689.327,27.414,689.282,27.135z"/>
			<path fill="#FFFFFF" d="M699.518,16.407c0,0.517-0.242,0.957-0.73,1.32c-0.488,0.364-1.079,0.546-1.771,0.546
				c-0.681,0-1.266-0.182-1.754-0.546c-0.486-0.364-0.73-0.804-0.73-1.32c0-0.508,0.244-0.943,0.73-1.308
				c0.488-0.364,1.073-0.546,1.754-0.546c0.692,0,1.283,0.182,1.771,0.546C699.273,15.464,699.518,15.899,699.518,16.407z
				 M694.954,32.429c-0.08-4.951-0.12-9.229-0.12-12.835l4.292-0.19c-0.136,3.453-0.205,6.885-0.205,10.296
				c0,0.914,0.006,1.824,0.018,2.729H694.954z"/>
			<path fill="#FFFFFF" d="M706.449,19.327c3.858,0,5.791,1.998,5.791,5.992c0,0.161-0.006,0.322-0.019,0.482
				c-0.158,4.325-2.214,6.509-6.166,6.551c-0.045,0.009-0.091,0.013-0.136,0.013c-3.758,0-5.638-2.044-5.638-6.132v-0.355
				C700.397,21.511,702.453,19.327,706.449,19.327z M705.887,22.222c-0.715,0.187-1.204,0.876-1.465,2.069
				c-0.159,0.711-0.238,1.426-0.238,2.146c0,0.482,0.034,0.969,0.104,1.46c0.182,1.219,0.767,1.85,1.754,1.892h0.119
				c0.919,0,1.55-0.453,1.891-1.358c0.283-0.753,0.427-1.646,0.427-2.679c0-0.254-0.007-0.512-0.019-0.774
				c-0.091-1.362-0.363-2.213-0.817-2.552c-0.282-0.203-0.625-0.305-1.021-0.305C706.392,22.12,706.148,22.154,705.887,22.222z
				 M704.235,16.852c1.328-1.176,2.418-2.298,3.27-3.364l2.793,1.65c-1.204,0.88-2.544,1.959-4.02,3.237L704.235,16.852z"/>
			<path fill="#FFFFFF" d="M716.31,18.997l0.17,2.069c0.479-1.1,1.731-1.659,3.766-1.676h0.066c1.998,0,3.361,0.584,4.089,1.752
				c0.5,0.796,0.75,2.658,0.75,5.586c0,1.439-0.062,3.14-0.188,5.104h-4.121c0.147-2.615,0.222-4.642,0.222-6.081
				c0-0.719-0.018-1.295-0.052-1.727c-0.111-1.27-0.658-1.904-1.635-1.904c-0.978,0-1.59,0.339-1.839,1.016l0.17,9.204l-4.002,0.025
				c0-3.893-0.176-8.265-0.528-13.114L716.31,18.997z"/>
			<path fill="#FFFFFF" d="M745.79,14.401c-0.068,2.861-0.102,5.861-0.102,9.001c0,2.861,0.026,5.84,0.085,8.938l-4.036,0.013
				l-0.138-1.942c-0.84,0.939-1.958,1.409-3.354,1.409c-3.486,0-5.229-1.989-5.229-5.967c0-0.084,0.006-0.169,0.019-0.254
				c0.067-3.986,1.794-5.979,5.178-5.979c0.136,0,0.278,0.004,0.426,0.013c1.158,0.051,2.097,0.521,2.812,1.409
				c0-1.879-0.062-4.092-0.188-6.64L745.79,14.401L745.79,14.401z M741.532,27.808l-0.085-4.393
				c-0.659-0.668-1.334-1.003-2.027-1.003c-0.284,0-0.568,0.055-0.852,0.165c-0.897,0.347-1.347,1.32-1.347,2.92
				c0,0.187,0.005,0.377,0.019,0.571c0.111,1.938,0.69,2.962,1.736,3.072c0.103,0.009,0.204,0.013,0.308,0.013
				C740.192,29.153,740.942,28.705,741.532,27.808z"/>
			<path fill="#FFFFFF" d="M752.67,19.327c3.939,0,5.91,1.951,5.91,5.853c0,0.474-0.028,0.982-0.085,1.523h-7.613
				c0,2.175,0.562,3.263,1.688,3.263h0.117c0.988-0.059,1.482-0.622,1.482-1.688c0-0.229-0.023-0.482-0.068-0.762l4.055-0.063
				c0,3.225-1.892,4.858-5.671,4.9c-0.047,0.009-0.087,0.013-0.119,0.013c-3.601,0-5.398-2.035-5.398-6.106v-0.381
				C747.079,21.511,748.979,19.327,752.67,19.327z M750.474,24.367h3.851v-0.305c0-1.54-0.584-2.311-1.754-2.311
				C751.308,21.752,750.61,22.624,750.474,24.367z"/>
			<path fill="#FFFFFF" d="M764.643,32.149l-4.239,0.292c0.045-2.801,0.066-5.497,0.066-8.087c0-3.639-0.045-7.071-0.136-10.296
				l4.172-0.051c-0.045,2.074-0.066,4.202-0.066,6.386C764.438,24.16,764.507,28.079,764.643,32.149z"/>
			<path fill="#FFFFFF" d="M785.676,20.584l-3.78,0.013v-0.343c0-1.989-0.75-2.983-2.247-2.983c-1.603,0-2.401,1.837-2.401,5.51
				c0,4.139,0.84,6.208,2.521,6.208h0.019c1.68-0.008,2.521-1.024,2.521-3.047v-1.257h4.226v0.952c0,4.215-2.322,6.42-6.965,6.614
				c-0.138,0.009-0.272,0.013-0.409,0.013c-4.371,0-6.559-3.131-6.559-9.395c0-6.127,2.248-9.191,6.744-9.191
				c4.235,0,6.354,2.048,6.354,6.145C785.693,20.068,785.687,20.322,785.676,20.584z"/>
			<path fill="#FFFFFF" d="M793.527,19.327c3.858,0,5.791,1.998,5.791,5.992c0,0.161-0.008,0.322-0.02,0.482
				c-0.159,4.325-2.214,6.509-6.165,6.551c-0.045,0.009-0.091,0.013-0.136,0.013c-3.758,0-5.637-2.044-5.637-6.132v-0.355
				C787.475,21.511,789.531,19.327,793.527,19.327z M792.965,22.222c-0.715,0.187-1.204,0.876-1.465,2.069
				c-0.159,0.711-0.238,1.426-0.238,2.146c0,0.482,0.034,0.969,0.104,1.46c0.181,1.219,0.766,1.85,1.754,1.892h0.119
				c0.919,0,1.55-0.453,1.89-1.358c0.284-0.753,0.426-1.646,0.426-2.679c0-0.254-0.006-0.512-0.017-0.774
				c-0.091-1.362-0.363-2.213-0.817-2.552c-0.283-0.203-0.625-0.305-1.021-0.305C793.47,22.12,793.226,22.154,792.965,22.222z"/>
			<path fill="#FFFFFF" d="M803.388,18.997l0.17,2.069c0.479-1.1,1.731-1.659,3.766-1.676h0.066c1.998,0,3.36,0.584,4.087,1.752
				c0.5,0.796,0.75,2.658,0.75,5.586c0,1.439-0.062,3.14-0.188,5.104h-4.122c0.146-2.615,0.222-4.642,0.222-6.081
				c0-0.719-0.017-1.295-0.051-1.727c-0.114-1.27-0.659-1.904-1.635-1.904c-0.979,0-1.59,0.339-1.839,1.016l0.17,9.204l-4.002,0.025
				c0-3.893-0.178-8.265-0.528-13.114L803.388,18.997z"/>
			<path fill="#FFFFFF" d="M816.127,19.784c-0.021-0.229-0.034-0.461-0.034-0.698c0-0.795,0.108-1.612,0.324-2.45
				c0.261-1.092,1.056-1.963,2.384-2.615c0.988-0.491,2.237-0.736,3.747-0.736c0.5,0,1.033,0.03,1.603,0.089l-0.034,2.78
				c-0.34-0.034-0.659-0.051-0.954-0.051c-0.942,0-1.635,0.174-2.078,0.521c-0.488,0.364-0.732,1.075-0.732,2.133
				c0,0.254,0.019,0.533,0.053,0.838l3.645-0.038v2.577l-3.747,0.178c0.091,2.776,0.139,5.4,0.139,7.871
				c0,0.745-0.008,1.473-0.02,2.184l-4.326,0.14c0.034-2.818,0.092-6.153,0.17-10.004l-2.759,0.102l-0.066-2.729L816.127,19.784z"/>
			<path fill="#FFFFFF" d="M830.331,32.149l-4.241,0.292c0.045-2.801,0.068-5.497,0.068-8.087c0-3.639-0.045-7.071-0.136-10.296
				l4.172-0.051c-0.045,2.074-0.068,4.202-0.068,6.386C830.126,24.16,830.194,28.079,830.331,32.149z"/>
			<path fill="#FFFFFF" d="M836.564,16.407c0,0.517-0.244,0.957-0.732,1.32c-0.488,0.364-1.079,0.546-1.771,0.546
				c-0.683,0-1.268-0.182-1.756-0.546c-0.486-0.364-0.73-0.804-0.73-1.32c0-0.508,0.244-0.943,0.73-1.308
				c0.488-0.364,1.073-0.546,1.756-0.546c0.69,0,1.281,0.182,1.771,0.546C836.32,15.464,836.564,15.899,836.564,16.407z M832,32.429
				c-0.08-4.951-0.119-9.229-0.119-12.835l4.292-0.19c-0.137,3.453-0.205,6.885-0.205,10.296c0,0.914,0.005,1.824,0.019,2.729H832z"
				/>
			<path fill="#FFFFFF" d="M844.466,27.135l4.053,0.19c0,3.056-1.891,4.604-5.671,4.646c-0.045,0.009-0.085,0.013-0.119,0.013
				c-3.6,0-5.397-2.035-5.397-6.106v-0.381c0.114-4.367,2.033-6.572,5.756-6.614h0.137c3.431,0,5.145,1.464,5.145,4.393
				c0,0.169-0.006,0.339-0.019,0.508l-3.662,0.203v-0.305c0-1.54-0.585-2.311-1.754-2.311c-1.19,0-1.788,1.249-1.788,3.745v0.419
				c0.068,2.7,0.67,4.05,1.808,4.05h0.102c0.988-0.059,1.481-0.622,1.481-1.688C844.534,27.668,844.511,27.414,844.466,27.135z"/>
			<path fill="#FFFFFF" d="M852.777,15.277l3.864-0.19v4.202l3.253-0.063l0.053,2.399l-3.306,0.114v5.776
				c0,1.346,0.769,2.019,2.301,2.019c0.316,0,0.664-0.029,1.039-0.089l-0.153,2.793c-0.545,0.051-1.062,0.076-1.55,0.076
				c-3.588,0-5.416-1.379-5.483-4.139v-6.208l-2.793,0.127l-0.068-2.831l2.861,0.025L852.777,15.277z"/>
			<path fill="#FFFFFF" d="M867.354,19.327c3.859,0,5.791,1.998,5.791,5.992c0,0.161-0.007,0.322-0.018,0.482
				c-0.159,4.325-2.214,6.509-6.165,6.551c-0.045,0.009-0.091,0.013-0.136,0.013c-3.758,0-5.637-2.044-5.637-6.132v-0.355
				C861.304,21.511,863.359,19.327,867.354,19.327z M866.793,22.222c-0.715,0.187-1.204,0.876-1.465,2.069
				c-0.159,0.711-0.238,1.426-0.238,2.146c0,0.482,0.034,0.969,0.104,1.46c0.181,1.219,0.766,1.85,1.754,1.892h0.119
				c0.92,0,1.55-0.453,1.891-1.358c0.284-0.753,0.426-1.646,0.426-2.679c0-0.254-0.006-0.512-0.017-0.774
				c-0.091-1.362-0.364-2.213-0.818-2.552c-0.284-0.203-0.624-0.305-1.021-0.305C867.298,22.12,867.055,22.154,866.793,22.222z"/>
			<path fill="#FFFFFF" d="M879.447,31.857c2.134-7.228,3.858-13.355,5.177-18.383l6.387-0.076c1.567,5.23,3.36,11.189,5.383,17.875
				l-4.359,0.66l-1.379-4.812h-5.296l-1.433,5.192L879.447,31.857z M890.517,23.555c-0.59-1.828-1.556-4.016-2.895-6.563
				c-1.033,2.142-1.908,4.359-2.623,6.652L890.517,23.555z"/>
			<path fill="#FFFFFF" d="M901.315,23.263l0.17,9.204l-4.172,0.025c0-3.893-0.178-8.265-0.528-13.114l3.134-0.254l0.17,2.069
				c0.477-1.016,1.59-1.595,3.338-1.739c0.261-0.017,0.511-0.025,0.75-0.025c1.374,0,2.418,0.334,3.134,1.003
				c0.829,0.796,1.249,2.061,1.262,3.796l-3.781,0.279c0.011-0.144,0.017-0.283,0.017-0.419c0-1.354-0.472-2.031-1.414-2.031h-0.066
				C902.234,22.099,901.564,22.501,901.315,23.263z"/>
			<path fill="#FFFFFF" d="M912.453,19.061l0.067,2.031c0.612-0.973,1.321-1.578,2.13-1.815c0.477-0.135,0.959-0.203,1.445-0.203
				c0.363,0,0.729,0.034,1.091,0.104c0.886,0.169,1.517,0.847,1.891,2.031c0.295-0.922,0.806-1.538,1.533-1.847
				c0.726-0.309,1.53-0.467,2.418-0.476h0.066c0.863,0,1.691,0.157,2.486,0.47c0.806,0.322,1.422,0.925,1.849,1.809
				c0.427,0.884,0.649,2.097,0.674,3.637v7.376l-3.681,0.062c0.147-2.784,0.224-5.154,0.224-7.109s-0.5-3.009-1.499-3.161
				c-0.147-0.017-0.289-0.025-0.428-0.025c-0.795,0-1.406,0.381-1.839,1.143c-0.066,0.88-0.103,1.909-0.103,3.085
				c0,1.6,0.062,3.466,0.188,5.599l-4.258,0.025c0.159-3.275,0.238-5.662,0.238-7.16v-0.152c-0.012-1.481-0.403-2.26-1.175-2.336
				h-0.224c-0.69,0-1.361,0.296-2.009,0.889l0.034,9.293l-4.021,0.114v-2.082c0-3.69-0.072-7.376-0.221-11.058L912.453,19.061z"/>
			<path fill="#FFFFFF" d="M935.717,18.959c3.735,0.152,5.604,1.553,5.604,4.202v9.014l-3.97,0.051l-0.137-1.206
				c-0.817,0.694-1.901,1.041-3.253,1.041c-0.579,0-1.203-0.067-1.873-0.203c-2.01-0.372-3.015-1.532-3.015-3.479
				c0-0.237,0.017-0.491,0.051-0.762c0.227-2.006,2.14-3.009,5.739-3.009c0.69,0,1.453,0.038,2.281,0.114V23.25
				c0-1.193-0.506-1.79-1.517-1.79h-0.067c-0.079-0.008-0.152-0.013-0.222-0.013c-1.102,0-1.65,0.669-1.65,2.006v0.19l-4.055-0.254
				c0-2.954,1.908-4.431,5.725-4.431L935.717,18.959L935.717,18.959z M937.147,28.988v-2.234c-0.488-0.076-0.933-0.114-1.329-0.114
				c-1.033,0-1.737,0.258-2.112,0.774c-0.227,0.313-0.34,0.605-0.34,0.876c0,0.339,0.182,0.639,0.545,0.901
				c0.284,0.203,0.651,0.305,1.105,0.305C935.598,29.496,936.307,29.327,937.147,28.988z"/>
			<path fill="#FFFFFF" d="M955.558,14.401c-0.066,2.861-0.102,5.861-0.102,9.001c0,2.861,0.028,5.84,0.085,8.938l-4.036,0.013
				l-0.136-1.942c-0.84,0.939-1.958,1.409-3.355,1.409c-3.484,0-5.229-1.989-5.229-5.967c0-0.084,0.006-0.169,0.017-0.254
				c0.068-3.986,1.793-5.979,5.179-5.979c0.136,0,0.276,0.004,0.426,0.013c1.158,0.051,2.095,0.521,2.81,1.409
				c0-1.879-0.062-4.092-0.188-6.64L955.558,14.401L955.558,14.401z M951.3,27.808l-0.085-4.393
				c-0.659-0.668-1.334-1.003-2.026-1.003c-0.283,0-0.566,0.055-0.853,0.165c-0.896,0.347-1.345,1.32-1.345,2.92
				c0,0.187,0.005,0.377,0.017,0.571c0.113,1.938,0.692,2.962,1.737,3.072c0.102,0.009,0.204,0.013,0.307,0.013
				C949.96,29.153,950.709,28.705,951.3,27.808z"/>
			<path fill="#FFFFFF" d="M962.898,19.327c3.858,0,5.791,1.998,5.791,5.992c0,0.161-0.008,0.322-0.019,0.482
				c-0.159,4.325-2.214,6.509-6.165,6.551c-0.045,0.009-0.091,0.013-0.136,0.013c-3.758,0-5.637-2.044-5.637-6.132v-0.355
				C956.846,21.511,958.901,19.327,962.898,19.327z M962.336,22.222c-0.715,0.187-1.204,0.876-1.464,2.069
				c-0.159,0.711-0.239,1.426-0.239,2.146c0,0.482,0.034,0.969,0.104,1.46c0.182,1.219,0.767,1.85,1.754,1.892h0.119
				c0.919,0,1.55-0.453,1.891-1.358c0.284-0.753,0.426-1.646,0.426-2.679c0-0.254-0.006-0.512-0.017-0.774
				c-0.091-1.362-0.364-2.213-0.817-2.552c-0.284-0.203-0.625-0.305-1.021-0.305C962.841,22.12,962.597,22.154,962.336,22.222z"/>
		</g>
	</g>
	<g>
		<g>
			<path fill="#331842" d="M534.479,95.279v-8.511c-0.138,0.046-0.278,0.097-0.43,0.154c-0.148,0.057-0.285,0.085-0.408,0.085
				c-0.203,0-0.372-0.067-0.506-0.202c-0.134-0.134-0.2-0.304-0.2-0.509c0-0.146,0.037-0.275,0.112-0.39
				c0.075-0.114,0.189-0.207,0.343-0.28l1.558-0.52c0.081-0.032,0.163-0.048,0.244-0.048c0.203,0,0.373,0.069,0.506,0.208
				c0.134,0.139,0.201,0.309,0.201,0.509v9.502c0,0.196-0.069,0.363-0.208,0.502c-0.14,0.139-0.309,0.208-0.508,0.208
				c-0.192,0-0.359-0.069-0.498-0.208C534.548,95.64,534.479,95.476,534.479,95.279z"/>
			<path fill="#331842" d="M543.162,91.786h-0.19c-0.458,0-0.888-0.089-1.291-0.267c-0.401-0.178-0.756-0.418-1.06-0.721
				c-0.304-0.303-0.543-0.659-0.72-1.066c-0.178-0.408-0.267-0.844-0.267-1.309c0-0.465,0.089-0.9,0.267-1.306
				c0.177-0.405,0.417-0.761,0.72-1.066c0.303-0.305,0.657-0.546,1.06-0.721c0.403-0.175,0.833-0.263,1.291-0.263
				c0.453,0,0.881,0.09,1.287,0.27s0.758,0.423,1.062,0.728c0.301,0.306,0.541,0.661,0.72,1.066
				c0.179,0.406,0.268,0.836,0.268,1.292c0,0.679-0.181,1.29-0.543,1.832l-3.197,5.346c-0.163,0.26-0.378,0.39-0.64,0.39
				c-0.104,0-0.199-0.018-0.285-0.055c-0.086-0.036-0.163-0.089-0.229-0.157c-0.068-0.068-0.12-0.146-0.156-0.232
				c-0.037-0.086-0.054-0.178-0.054-0.273c0-0.132,0.034-0.257,0.102-0.376L543.162,91.786z M541.077,88.423
				c0,0.273,0.051,0.526,0.153,0.759c0.102,0.232,0.237,0.434,0.409,0.605c0.174,0.171,0.372,0.305,0.603,0.403
				c0.229,0.098,0.472,0.147,0.729,0.147c0.264,0,0.509-0.051,0.736-0.154c0.229-0.103,0.429-0.24,0.602-0.414
				c0.174-0.173,0.31-0.375,0.407-0.605c0.101-0.23,0.149-0.477,0.149-0.742c0-0.26-0.052-0.505-0.153-0.735
				s-0.239-0.432-0.411-0.605s-0.373-0.311-0.601-0.414c-0.229-0.103-0.473-0.154-0.73-0.154c-0.263,0-0.509,0.05-0.735,0.15
				c-0.229,0.101-0.431,0.236-0.603,0.407c-0.172,0.171-0.308,0.372-0.408,0.602C541.125,87.903,541.077,88.154,541.077,88.423z"/>
			<path fill="#331842" d="M555.893,86.488h-3.932v2.365h1.616c0.475,0,0.927,0.094,1.354,0.28c0.43,0.187,0.807,0.441,1.131,0.762
				c0.325,0.321,0.584,0.7,0.773,1.135c0.19,0.435,0.285,0.899,0.285,1.391c0,0.488-0.094,0.948-0.282,1.381
				c-0.188,0.433-0.44,0.812-0.764,1.135c-0.321,0.324-0.697,0.58-1.127,0.769c-0.432,0.189-0.889,0.284-1.372,0.284
				c-0.485,0-0.942-0.095-1.372-0.284c-0.433-0.189-0.808-0.445-1.127-0.769c-0.322-0.323-0.577-0.702-0.765-1.135
				c-0.188-0.433-0.281-0.893-0.281-1.381c0-0.205,0.065-0.375,0.2-0.509c0.133-0.134,0.302-0.202,0.506-0.202
				c0.197,0,0.366,0.067,0.506,0.202c0.138,0.134,0.207,0.304,0.207,0.509c0,0.296,0.055,0.574,0.166,0.834
				c0.109,0.26,0.263,0.486,0.455,0.68c0.19,0.194,0.418,0.346,0.676,0.458c0.258,0.112,0.534,0.167,0.829,0.167
				c0.29,0,0.562-0.056,0.822-0.167c0.258-0.112,0.482-0.265,0.679-0.461c0.195-0.196,0.348-0.423,0.459-0.68
				c0.108-0.257,0.166-0.534,0.166-0.831c0-0.292-0.058-0.567-0.17-0.827c-0.113-0.26-0.268-0.486-0.458-0.68
				c-0.192-0.194-0.418-0.347-0.676-0.461c-0.26-0.114-0.532-0.171-0.822-0.171h-2.323c-0.204,0-0.372-0.068-0.506-0.205
				c-0.134-0.137-0.2-0.308-0.2-0.513v-3.787c0-0.2,0.066-0.37,0.2-0.509c0.134-0.139,0.302-0.208,0.506-0.208h4.639
				c0.199,0,0.368,0.071,0.507,0.212c0.139,0.142,0.206,0.31,0.206,0.506c0,0.196-0.067,0.363-0.206,0.502
				C556.261,86.419,556.092,86.488,555.893,86.488z"/>
			<path fill="#331842" d="M562.321,89.92c-0.562-0.565-0.842-1.237-0.842-2.017c0-0.392,0.073-0.761,0.225-1.107
				c0.147-0.346,0.352-0.647,0.605-0.902c0.258-0.255,0.556-0.457,0.895-0.605c0.34-0.148,0.702-0.222,1.086-0.222
				s0.747,0.075,1.087,0.226c0.339,0.15,0.637,0.354,0.893,0.612c0.257,0.257,0.457,0.558,0.604,0.902
				c0.146,0.344,0.221,0.71,0.221,1.097c0,0.775-0.281,1.447-0.842,2.017c0.915,0.725,1.372,1.629,1.372,2.714
				c0,0.46-0.088,0.894-0.265,1.299c-0.178,0.406-0.416,0.761-0.718,1.066c-0.301,0.306-0.652,0.547-1.06,0.725
				c-0.406,0.178-0.836,0.267-1.294,0.267c-0.461,0-0.896-0.088-1.297-0.263c-0.403-0.175-0.756-0.416-1.062-0.721
				c-0.303-0.305-0.542-0.661-0.716-1.066c-0.174-0.405-0.261-0.841-0.261-1.306C560.957,91.545,561.412,90.64,562.321,89.92z
				 M564.291,90.727c-0.267,0-0.515,0.05-0.743,0.15c-0.229,0.101-0.428,0.236-0.598,0.407c-0.17,0.171-0.305,0.373-0.404,0.605
				c-0.099,0.232-0.147,0.481-0.147,0.745c0,0.269,0.05,0.519,0.147,0.749c0.1,0.23,0.234,0.431,0.404,0.602
				s0.369,0.307,0.598,0.407c0.229,0.101,0.478,0.15,0.743,0.15c0.263,0,0.51-0.051,0.74-0.154c0.229-0.103,0.432-0.24,0.602-0.414
				c0.169-0.173,0.304-0.375,0.404-0.605c0.1-0.23,0.147-0.475,0.147-0.735c0-0.26-0.05-0.505-0.147-0.735
				c-0.099-0.23-0.234-0.432-0.404-0.605s-0.37-0.311-0.602-0.414C564.8,90.778,564.553,90.727,564.291,90.727z M564.291,86.516
				c-0.19,0-0.369,0.037-0.536,0.109c-0.167,0.073-0.312,0.172-0.438,0.297s-0.225,0.272-0.295,0.441
				c-0.073,0.169-0.109,0.349-0.109,0.54c0,0.187,0.035,0.365,0.104,0.533c0.07,0.169,0.167,0.315,0.292,0.441
				s0.271,0.223,0.438,0.294c0.167,0.071,0.349,0.106,0.543,0.106c0.181,0,0.354-0.036,0.523-0.109
				c0.167-0.073,0.312-0.172,0.438-0.297s0.225-0.271,0.299-0.438c0.075-0.167,0.112-0.343,0.112-0.53
				c0-0.191-0.037-0.371-0.112-0.54c-0.072-0.168-0.175-0.315-0.302-0.441c-0.127-0.125-0.273-0.224-0.438-0.297
				C564.646,86.552,564.472,86.516,564.291,86.516z"/>
			<path fill="#331842" d="M548.771,106.873c-0.203,0-0.371-0.067-0.507-0.202c-0.133-0.134-0.198-0.304-0.198-0.509
				s0.065-0.375,0.198-0.509c0.136-0.134,0.304-0.202,0.507-0.202h3.098c0.204,0,0.373,0.067,0.506,0.202
				c0.133,0.134,0.2,0.304,0.2,0.509s-0.067,0.375-0.2,0.509c-0.134,0.134-0.302,0.202-0.506,0.202H548.771z"/>
			<path fill="#331842" d="M534.75,123.279v-8.511c-0.136,0.046-0.278,0.097-0.428,0.154c-0.15,0.057-0.285,0.085-0.408,0.085
				c-0.204,0-0.373-0.067-0.506-0.202c-0.133-0.135-0.2-0.304-0.2-0.509c0-0.146,0.038-0.275,0.112-0.39
				c0.075-0.114,0.188-0.207,0.343-0.28l1.555-0.52c0.082-0.032,0.163-0.048,0.244-0.048c0.204,0,0.373,0.069,0.506,0.208
				c0.133,0.139,0.2,0.309,0.2,0.509v9.502c0,0.196-0.069,0.363-0.207,0.502c-0.138,0.139-0.307,0.208-0.506,0.208
				c-0.194,0-0.361-0.069-0.499-0.208C534.818,123.64,534.75,123.476,534.75,123.279z"/>
			<path fill="#331842" d="M543.434,119.786h-0.188c-0.458,0-0.888-0.089-1.291-0.267c-0.403-0.178-0.756-0.418-1.062-0.721
				c-0.304-0.303-0.543-0.659-0.72-1.066c-0.176-0.408-0.265-0.844-0.265-1.309c0-0.465,0.089-0.9,0.265-1.306
				c0.177-0.405,0.417-0.761,0.72-1.066c0.305-0.305,0.657-0.546,1.062-0.721c0.403-0.175,0.833-0.263,1.291-0.263
				c0.453,0,0.881,0.09,1.287,0.27c0.404,0.18,0.758,0.423,1.06,0.728c0.301,0.306,0.541,0.661,0.72,1.066
				c0.181,0.406,0.27,0.836,0.27,1.292c0,0.679-0.182,1.29-0.543,1.832l-3.199,5.346c-0.163,0.26-0.376,0.39-0.638,0.39
				c-0.104,0-0.199-0.018-0.285-0.055c-0.086-0.036-0.163-0.089-0.231-0.157c-0.066-0.068-0.119-0.146-0.154-0.232
				c-0.037-0.086-0.056-0.178-0.056-0.273c0-0.132,0.034-0.257,0.104-0.376L543.434,119.786z M541.349,116.423
				c0,0.273,0.053,0.526,0.153,0.759c0.104,0.232,0.239,0.434,0.411,0.605c0.172,0.171,0.372,0.305,0.601,0.403
				c0.229,0.098,0.474,0.147,0.73,0.147c0.262,0,0.508-0.051,0.736-0.154c0.228-0.103,0.429-0.24,0.602-0.414
				c0.172-0.173,0.308-0.375,0.407-0.605c0.099-0.23,0.147-0.477,0.147-0.742c0-0.26-0.051-0.505-0.151-0.735
				c-0.104-0.23-0.239-0.432-0.411-0.605s-0.373-0.311-0.603-0.414c-0.229-0.103-0.472-0.154-0.729-0.154
				c-0.264,0-0.509,0.05-0.737,0.15c-0.229,0.101-0.429,0.236-0.601,0.407c-0.172,0.171-0.31,0.372-0.408,0.602
				C541.396,115.903,541.349,116.154,541.349,116.423z"/>
			<path fill="#331842" d="M551.662,117.92c-0.562-0.565-0.842-1.237-0.842-2.017c0-0.392,0.075-0.761,0.224-1.107
				c0.149-0.346,0.352-0.647,0.608-0.902c0.255-0.255,0.553-0.457,0.893-0.605s0.702-0.222,1.087-0.222s0.747,0.075,1.086,0.226
				s0.637,0.354,0.895,0.612c0.256,0.258,0.457,0.558,0.604,0.902c0.147,0.344,0.221,0.71,0.221,1.097
				c0,0.775-0.279,1.447-0.842,2.017c0.915,0.725,1.372,1.629,1.372,2.714c0,0.46-0.088,0.894-0.265,1.299
				c-0.176,0.406-0.415,0.761-0.716,1.066c-0.303,0.306-0.654,0.547-1.062,0.725c-0.405,0.178-0.836,0.267-1.293,0.267
				c-0.462,0-0.895-0.088-1.297-0.263s-0.756-0.416-1.059-0.721c-0.306-0.305-0.542-0.661-0.719-1.066
				c-0.174-0.405-0.261-0.841-0.261-1.306C550.297,119.545,550.752,118.64,551.662,117.92z M553.631,118.727
				c-0.268,0-0.515,0.05-0.744,0.15c-0.229,0.101-0.428,0.236-0.598,0.407c-0.17,0.171-0.305,0.373-0.404,0.605
				c-0.1,0.232-0.147,0.481-0.147,0.745c0,0.269,0.049,0.519,0.147,0.749c0.1,0.23,0.234,0.431,0.404,0.602s0.369,0.307,0.598,0.407
				c0.229,0.101,0.478,0.15,0.744,0.15c0.263,0,0.509-0.051,0.74-0.154c0.229-0.103,0.431-0.24,0.601-0.414
				c0.169-0.173,0.306-0.375,0.404-0.605s0.149-0.475,0.149-0.735c0-0.26-0.052-0.505-0.149-0.735s-0.234-0.432-0.404-0.605
				s-0.37-0.311-0.601-0.414C554.14,118.777,553.894,118.727,553.631,118.727z M553.631,114.516c-0.188,0-0.369,0.037-0.537,0.109
				c-0.167,0.073-0.312,0.172-0.438,0.297s-0.225,0.272-0.295,0.441c-0.073,0.169-0.109,0.349-0.109,0.54
				c0,0.187,0.035,0.365,0.105,0.533c0.068,0.169,0.167,0.315,0.292,0.441s0.271,0.223,0.438,0.294
				c0.167,0.071,0.349,0.106,0.543,0.106c0.182,0,0.355-0.036,0.523-0.109c0.167-0.073,0.312-0.172,0.438-0.297
				s0.226-0.271,0.299-0.438c0.075-0.167,0.112-0.343,0.112-0.53c0-0.191-0.037-0.371-0.112-0.54
				c-0.073-0.168-0.176-0.315-0.302-0.441c-0.127-0.125-0.271-0.224-0.438-0.297S553.812,114.516,553.631,114.516z"/>
			<path fill="#331842" d="M560.685,116.368c0-0.456,0.089-0.884,0.263-1.285s0.411-0.752,0.71-1.053
				c0.299-0.301,0.646-0.538,1.046-0.711c0.396-0.173,0.821-0.26,1.27-0.26c0.449,0,0.872,0.089,1.271,0.267
				c0.396,0.178,0.747,0.417,1.046,0.718c0.299,0.301,0.536,0.652,0.709,1.053c0.175,0.401,0.262,0.825,0.262,1.271
				c0,0.456-0.083,0.88-0.248,1.271c-0.164,0.392-0.402,0.748-0.716,1.066l-3.3,3.855h3.552c0.199,0,0.368,0.071,0.506,0.212
				c0.14,0.142,0.207,0.31,0.207,0.506c0,0.196-0.067,0.363-0.207,0.502c-0.138,0.139-0.307,0.208-0.506,0.208h-5.154
				c-0.101,0-0.191-0.018-0.277-0.055c-0.086-0.036-0.161-0.088-0.225-0.154c-0.062-0.066-0.112-0.142-0.148-0.229
				c-0.036-0.086-0.054-0.178-0.054-0.273c0-0.205,0.063-0.374,0.195-0.506l4.401-5.059c0.371-0.374,0.557-0.822,0.557-1.347
				c0-0.255-0.05-0.497-0.147-0.725c-0.102-0.228-0.234-0.427-0.404-0.598s-0.368-0.306-0.594-0.407
				c-0.229-0.1-0.466-0.15-0.72-0.15c-0.26,0-0.5,0.049-0.729,0.147c-0.227,0.098-0.424,0.231-0.594,0.4
				c-0.169,0.169-0.303,0.367-0.4,0.595c-0.097,0.228-0.146,0.474-0.146,0.738c0,0.196-0.069,0.363-0.207,0.502
				c-0.139,0.139-0.309,0.208-0.506,0.208c-0.195,0-0.361-0.069-0.499-0.208C560.758,116.728,560.685,116.564,560.685,116.368z"/>
		</g>
	</g>
	<g>
		<g>
			<path fill="#331842" d="M659.854,95.279v-8.511c-0.138,0.046-0.278,0.097-0.43,0.154c-0.148,0.057-0.285,0.085-0.408,0.085
				c-0.203,0-0.372-0.067-0.506-0.202c-0.134-0.135-0.2-0.304-0.2-0.509c0-0.146,0.037-0.275,0.112-0.39
				c0.074-0.114,0.188-0.207,0.343-0.28l1.557-0.52c0.082-0.032,0.163-0.048,0.245-0.048c0.203,0,0.372,0.069,0.506,0.208
				c0.133,0.139,0.2,0.309,0.2,0.509v9.502c0,0.196-0.069,0.363-0.207,0.502c-0.14,0.139-0.309,0.208-0.508,0.208
				c-0.193,0-0.359-0.069-0.5-0.208C659.921,95.64,659.854,95.476,659.854,95.279z"/>
			<path fill="#331842" d="M668.538,91.786h-0.19c-0.457,0-0.887-0.089-1.29-0.267c-0.401-0.178-0.756-0.418-1.06-0.721
				c-0.303-0.303-0.543-0.659-0.72-1.066c-0.178-0.407-0.267-0.844-0.267-1.309c0-0.465,0.089-0.9,0.267-1.306
				c0.177-0.405,0.417-0.761,0.72-1.066c0.304-0.305,0.657-0.546,1.06-0.721c0.403-0.175,0.833-0.263,1.29-0.263
				c0.453,0,0.884,0.09,1.287,0.27c0.405,0.18,0.758,0.423,1.062,0.728c0.301,0.306,0.541,0.661,0.72,1.066
				c0.179,0.406,0.269,0.836,0.269,1.292c0,0.679-0.182,1.29-0.543,1.832l-3.197,5.346c-0.163,0.26-0.376,0.39-0.64,0.39
				c-0.104,0-0.2-0.018-0.286-0.055c-0.086-0.036-0.163-0.089-0.229-0.157c-0.068-0.068-0.12-0.146-0.156-0.232
				s-0.055-0.178-0.055-0.273c0-0.132,0.034-0.257,0.102-0.376L668.538,91.786z M666.453,88.423c0,0.273,0.051,0.526,0.153,0.759
				c0.102,0.233,0.237,0.434,0.409,0.605c0.173,0.171,0.373,0.305,0.604,0.403c0.229,0.098,0.472,0.147,0.729,0.147
				c0.265,0,0.51-0.051,0.737-0.154c0.229-0.103,0.429-0.24,0.602-0.414c0.173-0.173,0.309-0.375,0.407-0.605
				c0.102-0.23,0.149-0.477,0.149-0.742c0-0.26-0.051-0.505-0.153-0.735c-0.102-0.23-0.239-0.432-0.411-0.605
				s-0.372-0.311-0.601-0.414c-0.229-0.103-0.472-0.154-0.73-0.154c-0.262,0-0.508,0.05-0.734,0.15
				c-0.229,0.101-0.431,0.236-0.603,0.407c-0.172,0.171-0.308,0.372-0.408,0.602C666.503,87.903,666.453,88.154,666.453,88.423z"/>
			<path fill="#331842" d="M676.766,89.92c-0.562-0.565-0.842-1.237-0.842-2.017c0-0.392,0.075-0.761,0.226-1.107
				c0.147-0.346,0.352-0.647,0.605-0.902c0.256-0.255,0.554-0.457,0.896-0.605c0.339-0.148,0.699-0.222,1.086-0.222
				c0.385,0,0.747,0.075,1.086,0.226c0.34,0.15,0.637,0.354,0.893,0.612c0.256,0.258,0.458,0.558,0.604,0.902
				c0.146,0.344,0.221,0.71,0.221,1.097c0,0.775-0.281,1.447-0.842,2.017c0.915,0.725,1.372,1.629,1.372,2.714
				c0,0.46-0.088,0.894-0.267,1.299c-0.177,0.406-0.416,0.761-0.717,1.066c-0.301,0.306-0.654,0.547-1.06,0.725
				c-0.406,0.178-0.836,0.267-1.293,0.267c-0.462,0-0.896-0.088-1.298-0.263s-0.757-0.416-1.06-0.721
				c-0.304-0.305-0.542-0.661-0.717-1.066c-0.174-0.405-0.261-0.841-0.261-1.306C675.401,91.545,675.856,90.64,676.766,89.92z
				 M678.735,90.727c-0.269,0-0.517,0.05-0.744,0.15c-0.229,0.101-0.428,0.236-0.6,0.407c-0.17,0.171-0.305,0.373-0.402,0.605
				c-0.101,0.232-0.149,0.481-0.149,0.745c0,0.269,0.05,0.519,0.149,0.749c0.099,0.23,0.232,0.431,0.402,0.602
				s0.369,0.307,0.6,0.407c0.229,0.101,0.477,0.15,0.744,0.15c0.262,0,0.509-0.051,0.738-0.154c0.231-0.103,0.433-0.24,0.603-0.414
				c0.17-0.173,0.304-0.375,0.403-0.605c0.101-0.23,0.148-0.475,0.148-0.735c0-0.26-0.05-0.505-0.148-0.735
				c-0.1-0.23-0.233-0.432-0.403-0.605s-0.37-0.311-0.603-0.414C679.244,90.777,678.998,90.727,678.735,90.727z M678.735,86.516
				c-0.19,0-0.369,0.037-0.537,0.109c-0.167,0.073-0.313,0.172-0.438,0.297s-0.223,0.272-0.295,0.441
				c-0.071,0.169-0.106,0.349-0.106,0.54c0,0.187,0.033,0.365,0.104,0.533c0.07,0.169,0.167,0.315,0.292,0.441
				s0.271,0.223,0.438,0.294c0.167,0.071,0.349,0.106,0.543,0.106c0.181,0,0.354-0.036,0.521-0.109
				c0.167-0.073,0.313-0.172,0.438-0.297s0.224-0.271,0.299-0.438s0.112-0.343,0.112-0.53c0-0.191-0.037-0.371-0.112-0.54
				c-0.075-0.168-0.176-0.315-0.302-0.441c-0.127-0.125-0.273-0.224-0.438-0.297S678.917,86.516,678.735,86.516z"/>
			<path fill="#331842" d="M685.789,88.368c0-0.456,0.087-0.884,0.261-1.285s0.411-0.752,0.71-1.053
				c0.299-0.301,0.647-0.538,1.045-0.711c0.398-0.173,0.822-0.26,1.271-0.26s0.871,0.089,1.27,0.267
				c0.399,0.178,0.747,0.417,1.046,0.718c0.301,0.301,0.535,0.652,0.711,1.053c0.175,0.401,0.262,0.825,0.262,1.271
				c0,0.456-0.083,0.88-0.248,1.271c-0.166,0.392-0.404,0.748-0.717,1.066l-3.302,3.855h3.554c0.197,0,0.367,0.071,0.506,0.212
				c0.138,0.142,0.207,0.31,0.207,0.506c0,0.196-0.069,0.363-0.207,0.502c-0.139,0.139-0.309,0.208-0.506,0.208h-5.155
				c-0.101,0-0.192-0.018-0.278-0.055c-0.086-0.036-0.161-0.088-0.224-0.154c-0.063-0.066-0.113-0.142-0.149-0.229
				c-0.036-0.086-0.054-0.178-0.054-0.273c0-0.205,0.065-0.374,0.197-0.506l4.399-5.059c0.371-0.374,0.559-0.822,0.559-1.347
				c0-0.255-0.051-0.497-0.149-0.725s-0.232-0.427-0.404-0.598c-0.17-0.171-0.366-0.306-0.594-0.407
				c-0.227-0.1-0.466-0.15-0.72-0.15c-0.258,0-0.5,0.049-0.727,0.147c-0.228,0.098-0.426,0.231-0.596,0.4
				c-0.17,0.169-0.303,0.367-0.398,0.595c-0.1,0.228-0.146,0.474-0.146,0.738c0,0.196-0.067,0.363-0.208,0.502
				c-0.138,0.139-0.307,0.208-0.506,0.208c-0.194,0-0.361-0.069-0.499-0.208C685.86,88.728,685.789,88.564,685.789,88.368z"/>
			<path fill="#331842" d="M673.875,106.873c-0.204,0-0.373-0.067-0.506-0.202c-0.133-0.134-0.2-0.304-0.2-0.509
				s0.067-0.375,0.2-0.509c0.134-0.134,0.302-0.202,0.506-0.202h3.097c0.204,0,0.372,0.067,0.506,0.202
				c0.135,0.134,0.2,0.304,0.2,0.509s-0.065,0.375-0.2,0.509c-0.134,0.134-0.302,0.202-0.506,0.202H673.875z"/>
			<path fill="#331842" d="M659.854,123.279v-8.511c-0.138,0.046-0.278,0.097-0.43,0.154c-0.148,0.057-0.285,0.085-0.408,0.085
				c-0.203,0-0.372-0.067-0.506-0.202c-0.134-0.135-0.2-0.304-0.2-0.509c0-0.146,0.037-0.275,0.112-0.39
				c0.074-0.114,0.188-0.207,0.343-0.28l1.557-0.52c0.082-0.032,0.163-0.048,0.245-0.048c0.203,0,0.372,0.069,0.506,0.208
				c0.133,0.139,0.2,0.309,0.2,0.509v9.502c0,0.196-0.069,0.363-0.207,0.502c-0.14,0.139-0.309,0.208-0.508,0.208
				c-0.193,0-0.359-0.069-0.5-0.208C659.921,123.64,659.854,123.476,659.854,123.279z"/>
			<path fill="#331842" d="M668.538,119.786h-0.19c-0.457,0-0.887-0.089-1.29-0.267c-0.401-0.178-0.756-0.418-1.06-0.721
				c-0.303-0.303-0.543-0.659-0.72-1.066c-0.178-0.407-0.267-0.844-0.267-1.309c0-0.465,0.089-0.9,0.267-1.306
				c0.177-0.405,0.417-0.761,0.72-1.066c0.304-0.305,0.657-0.546,1.06-0.721c0.403-0.175,0.833-0.263,1.29-0.263
				c0.453,0,0.884,0.09,1.287,0.27c0.405,0.18,0.758,0.423,1.062,0.728c0.301,0.306,0.541,0.661,0.72,1.066
				c0.179,0.406,0.269,0.836,0.269,1.292c0,0.679-0.182,1.29-0.543,1.832l-3.197,5.346c-0.163,0.26-0.376,0.39-0.64,0.39
				c-0.104,0-0.2-0.018-0.286-0.055c-0.086-0.036-0.163-0.089-0.229-0.157c-0.068-0.068-0.12-0.146-0.156-0.232
				s-0.055-0.178-0.055-0.273c0-0.132,0.034-0.257,0.102-0.376L668.538,119.786z M666.453,116.423c0,0.273,0.051,0.526,0.153,0.759
				c0.102,0.233,0.237,0.434,0.409,0.605c0.173,0.171,0.373,0.305,0.604,0.403c0.229,0.098,0.472,0.147,0.729,0.147
				c0.265,0,0.51-0.051,0.737-0.154c0.229-0.103,0.429-0.24,0.602-0.414c0.173-0.173,0.309-0.375,0.407-0.605
				c0.102-0.23,0.149-0.477,0.149-0.742c0-0.26-0.051-0.505-0.153-0.735c-0.102-0.23-0.239-0.432-0.411-0.605
				s-0.372-0.311-0.601-0.414c-0.229-0.103-0.472-0.154-0.73-0.154c-0.262,0-0.508,0.05-0.734,0.15
				c-0.229,0.101-0.431,0.236-0.603,0.407c-0.172,0.171-0.308,0.372-0.408,0.602C666.503,115.903,666.453,116.154,666.453,116.423z"
				/>
			<path fill="#331842" d="M678.925,119.786h-0.188c-0.458,0-0.889-0.089-1.291-0.267c-0.403-0.178-0.757-0.418-1.062-0.721
				c-0.303-0.303-0.543-0.659-0.72-1.066c-0.176-0.408-0.265-0.844-0.265-1.309c0-0.465,0.088-0.9,0.265-1.306
				c0.177-0.405,0.417-0.761,0.72-1.066c0.305-0.305,0.657-0.546,1.062-0.721c0.401-0.175,0.833-0.263,1.291-0.263
				c0.452,0,0.881,0.09,1.286,0.27s0.76,0.423,1.061,0.728c0.301,0.306,0.541,0.661,0.72,1.066c0.181,0.406,0.271,0.836,0.271,1.292
				c0,0.679-0.183,1.29-0.543,1.832l-3.199,5.346c-0.163,0.26-0.376,0.39-0.639,0.39c-0.104,0-0.198-0.018-0.284-0.055
				c-0.086-0.036-0.163-0.089-0.231-0.157c-0.067-0.068-0.12-0.146-0.156-0.232c-0.034-0.086-0.054-0.178-0.054-0.273
				c0-0.132,0.034-0.257,0.104-0.376L678.925,119.786z M676.84,116.423c0,0.273,0.051,0.526,0.153,0.759
				c0.102,0.232,0.239,0.434,0.411,0.605c0.172,0.171,0.372,0.305,0.601,0.403c0.229,0.098,0.474,0.147,0.73,0.147
				c0.262,0,0.508-0.051,0.735-0.154c0.229-0.103,0.431-0.24,0.603-0.414c0.172-0.173,0.308-0.375,0.407-0.605
				c0.099-0.23,0.147-0.477,0.147-0.742c0-0.26-0.051-0.505-0.153-0.735c-0.102-0.23-0.237-0.432-0.409-0.605
				c-0.174-0.173-0.373-0.311-0.603-0.414c-0.228-0.103-0.472-0.154-0.729-0.154c-0.265,0-0.509,0.05-0.737,0.15
				c-0.229,0.101-0.429,0.236-0.602,0.407c-0.173,0.171-0.309,0.372-0.407,0.602C676.888,115.903,676.84,116.154,676.84,116.423z"/>
			<path fill="#331842" d="M688.878,117.373h0.197c0.452,0,0.878,0.088,1.274,0.263c0.398,0.175,0.747,0.414,1.048,0.714
				c0.299,0.3,0.532,0.652,0.705,1.053c0.173,0.401,0.259,0.827,0.259,1.278c0,0.451-0.086,0.877-0.259,1.278
				s-0.406,0.752-0.705,1.053c-0.301,0.301-0.647,0.539-1.048,0.714c-0.397,0.175-0.822,0.263-1.274,0.263
				c-0.453,0-0.879-0.086-1.277-0.26c-0.396-0.173-0.747-0.41-1.046-0.711c-0.299-0.301-0.534-0.651-0.707-1.053
				c-0.172-0.401-0.258-0.829-0.258-1.285c0-0.674,0.177-1.278,0.53-1.812l-0.008,0.014l3.261-5.448
				c0.066-0.114,0.155-0.206,0.265-0.277c0.109-0.071,0.231-0.104,0.367-0.104c0.204,0,0.373,0.069,0.506,0.208
				c0.134,0.139,0.201,0.309,0.201,0.509c0,0.114-0.032,0.235-0.095,0.362L688.878,117.373z M690.943,120.682
				c0-0.255-0.051-0.497-0.146-0.725s-0.229-0.427-0.396-0.598c-0.168-0.171-0.366-0.306-0.597-0.407
				c-0.229-0.1-0.472-0.15-0.729-0.15c-0.263,0-0.507,0.049-0.734,0.146c-0.226,0.098-0.423,0.231-0.591,0.4
				c-0.167,0.169-0.3,0.368-0.396,0.598c-0.099,0.23-0.146,0.475-0.146,0.735c0,0.265,0.048,0.511,0.146,0.738
				c0.098,0.228,0.229,0.426,0.396,0.595s0.365,0.302,0.591,0.4c0.229,0.098,0.472,0.147,0.734,0.147c0.258,0,0.501-0.05,0.729-0.15
				c0.229-0.1,0.429-0.236,0.597-0.407c0.167-0.171,0.3-0.37,0.396-0.598C690.894,121.179,690.943,120.937,690.943,120.682z"/>
		</g>
	</g>
	<g>
		<g>
			<path fill="#331842" d="M784.958,95.279v-8.511c-0.136,0.046-0.278,0.097-0.428,0.154c-0.15,0.057-0.285,0.085-0.408,0.085
				c-0.204,0-0.373-0.067-0.506-0.202c-0.133-0.135-0.2-0.304-0.2-0.509c0-0.146,0.038-0.275,0.112-0.39
				c0.073-0.114,0.188-0.207,0.343-0.28l1.555-0.52c0.082-0.032,0.163-0.048,0.244-0.048c0.204,0,0.373,0.069,0.506,0.208
				c0.133,0.139,0.2,0.309,0.2,0.509v9.502c0,0.196-0.069,0.363-0.207,0.502c-0.138,0.139-0.307,0.208-0.506,0.208
				c-0.194,0-0.361-0.069-0.499-0.208C785.026,95.64,784.958,95.476,784.958,95.279z"/>
			<path fill="#331842" d="M793.642,91.786h-0.188c-0.458,0-0.888-0.089-1.291-0.267c-0.403-0.178-0.756-0.418-1.062-0.721
				c-0.304-0.303-0.543-0.659-0.72-1.066c-0.176-0.408-0.265-0.844-0.265-1.309c0-0.465,0.089-0.9,0.265-1.306
				c0.177-0.405,0.417-0.761,0.72-1.066c0.305-0.305,0.657-0.546,1.062-0.721c0.403-0.175,0.833-0.263,1.291-0.263
				c0.453,0,0.881,0.09,1.287,0.27c0.405,0.18,0.758,0.423,1.06,0.728c0.301,0.306,0.541,0.661,0.72,1.066
				c0.181,0.406,0.27,0.836,0.27,1.292c0,0.679-0.181,1.29-0.543,1.832l-3.199,5.346c-0.163,0.26-0.376,0.39-0.638,0.39
				c-0.104,0-0.199-0.018-0.285-0.055c-0.086-0.036-0.163-0.089-0.231-0.157c-0.066-0.068-0.12-0.146-0.154-0.232
				c-0.037-0.086-0.056-0.178-0.056-0.273c0-0.132,0.034-0.257,0.104-0.376L793.642,91.786z M791.557,88.423
				c0,0.273,0.053,0.526,0.153,0.759c0.102,0.232,0.239,0.434,0.411,0.605c0.172,0.171,0.372,0.305,0.601,0.403
				c0.229,0.098,0.474,0.147,0.73,0.147c0.262,0,0.508-0.051,0.736-0.154c0.228-0.103,0.429-0.24,0.602-0.414
				c0.172-0.173,0.308-0.375,0.407-0.605c0.099-0.23,0.147-0.477,0.147-0.742c0-0.26-0.051-0.505-0.151-0.735
				c-0.104-0.23-0.239-0.432-0.411-0.605s-0.373-0.311-0.603-0.414c-0.229-0.103-0.472-0.154-0.729-0.154
				c-0.263,0-0.509,0.05-0.737,0.15c-0.229,0.101-0.429,0.236-0.601,0.407c-0.172,0.171-0.31,0.372-0.408,0.602
				C791.604,87.903,791.557,88.154,791.557,88.423z"/>
			<path fill="#331842" d="M804.029,91.786h-0.19c-0.458,0-0.888-0.089-1.291-0.267c-0.403-0.178-0.756-0.418-1.059-0.721
				c-0.306-0.303-0.543-0.659-0.722-1.066c-0.176-0.408-0.265-0.844-0.265-1.309c0-0.465,0.088-0.9,0.265-1.306
				c0.179-0.405,0.417-0.761,0.722-1.066c0.303-0.305,0.654-0.546,1.059-0.721c0.403-0.175,0.833-0.263,1.291-0.263
				c0.453,0,0.882,0.09,1.287,0.27s0.758,0.423,1.059,0.728c0.303,0.306,0.541,0.661,0.722,1.066
				c0.179,0.406,0.268,0.836,0.268,1.292c0,0.679-0.181,1.29-0.543,1.832l-3.199,5.346c-0.163,0.26-0.375,0.39-0.638,0.39
				c-0.104,0-0.199-0.018-0.285-0.055c-0.086-0.036-0.163-0.089-0.229-0.157c-0.068-0.068-0.12-0.146-0.156-0.232
				s-0.054-0.178-0.054-0.273c0-0.132,0.033-0.257,0.102-0.376L804.029,91.786z M801.945,88.423c0,0.273,0.051,0.526,0.15,0.759
				c0.104,0.232,0.239,0.434,0.411,0.605c0.172,0.171,0.372,0.305,0.603,0.403c0.229,0.098,0.472,0.147,0.729,0.147
				c0.263,0,0.508-0.051,0.737-0.154c0.229-0.103,0.429-0.24,0.601-0.414c0.172-0.173,0.31-0.375,0.407-0.605
				s0.149-0.477,0.149-0.742c0-0.26-0.053-0.505-0.153-0.735c-0.104-0.23-0.239-0.432-0.411-0.605s-0.373-0.311-0.601-0.414
				c-0.229-0.103-0.474-0.154-0.73-0.154c-0.263,0-0.508,0.05-0.737,0.15c-0.229,0.101-0.429,0.236-0.601,0.407
				c-0.172,0.171-0.308,0.372-0.407,0.602C801.994,87.904,801.945,88.154,801.945,88.423z"/>
			<path fill="#331842" d="M813.982,89.373h0.195c0.453,0,0.878,0.088,1.277,0.263c0.397,0.175,0.747,0.414,1.046,0.714
				c0.299,0.3,0.534,0.652,0.707,1.053c0.172,0.401,0.258,0.827,0.258,1.278c0,0.451-0.086,0.877-0.258,1.278
				s-0.408,0.752-0.707,1.053c-0.299,0.301-0.646,0.539-1.046,0.714c-0.4,0.175-0.824,0.263-1.277,0.263s-0.878-0.086-1.274-0.26
				c-0.398-0.173-0.747-0.41-1.047-0.711c-0.3-0.301-0.533-0.651-0.706-1.053c-0.174-0.401-0.26-0.829-0.26-1.285
				c0-0.674,0.178-1.278,0.53-1.812l-0.007,0.014l3.26-5.448c0.068-0.114,0.156-0.206,0.267-0.277
				c0.107-0.071,0.229-0.104,0.365-0.104c0.204,0,0.373,0.069,0.508,0.208c0.133,0.139,0.198,0.309,0.198,0.509
				c0,0.114-0.03,0.235-0.095,0.362L813.982,89.373z M816.047,92.682c0-0.255-0.048-0.497-0.146-0.725
				c-0.099-0.228-0.229-0.427-0.397-0.598c-0.167-0.171-0.365-0.306-0.594-0.407c-0.229-0.1-0.472-0.15-0.73-0.15
				c-0.263,0-0.507,0.049-0.731,0.146c-0.228,0.098-0.423,0.231-0.591,0.4c-0.167,0.169-0.302,0.368-0.397,0.598
				c-0.098,0.23-0.146,0.475-0.146,0.735c0,0.265,0.048,0.511,0.146,0.738c0.097,0.228,0.229,0.426,0.397,0.595
				c0.167,0.169,0.362,0.302,0.591,0.4c0.227,0.098,0.471,0.147,0.731,0.147c0.26,0,0.501-0.05,0.73-0.15
				c0.229-0.1,0.427-0.236,0.594-0.407c0.168-0.171,0.3-0.37,0.397-0.598C815.999,93.179,816.047,92.937,816.047,92.682z"/>
			<path fill="#331842" d="M798.978,106.873c-0.202,0-0.37-0.067-0.506-0.202c-0.133-0.134-0.198-0.304-0.198-0.509
				s0.065-0.375,0.198-0.509c0.136-0.134,0.304-0.202,0.506-0.202h3.099c0.204,0,0.373,0.067,0.506,0.202
				c0.133,0.134,0.2,0.304,0.2,0.509s-0.067,0.375-0.2,0.509c-0.134,0.134-0.302,0.202-0.506,0.202H798.978z"/>
			<path fill="#331842" d="M781.359,116.368c0-0.456,0.087-0.884,0.262-1.285c0.174-0.401,0.411-0.752,0.71-1.053
				c0.299-0.301,0.646-0.538,1.045-0.711c0.398-0.173,0.822-0.26,1.271-0.26c0.446,0,0.871,0.089,1.27,0.267
				c0.398,0.178,0.747,0.417,1.046,0.718c0.299,0.301,0.535,0.652,0.709,1.053c0.174,0.401,0.263,0.825,0.263,1.271
				c0,0.456-0.082,0.88-0.247,1.271c-0.165,0.392-0.404,0.748-0.718,1.066l-3.3,3.855h3.552c0.199,0,0.368,0.071,0.508,0.212
				c0.138,0.142,0.207,0.31,0.207,0.506c0,0.196-0.069,0.363-0.207,0.502c-0.14,0.139-0.309,0.208-0.508,0.208h-5.153
				c-0.102,0-0.192-0.018-0.278-0.055c-0.086-0.036-0.161-0.088-0.224-0.154c-0.063-0.066-0.113-0.142-0.149-0.229
				c-0.036-0.086-0.055-0.178-0.055-0.273c0-0.205,0.064-0.374,0.197-0.506l4.398-5.059c0.372-0.374,0.559-0.822,0.559-1.347
				c0-0.255-0.052-0.497-0.149-0.725c-0.1-0.228-0.234-0.427-0.404-0.598s-0.368-0.306-0.595-0.407c-0.226-0.1-0.466-0.15-0.72-0.15
				c-0.258,0-0.5,0.049-0.729,0.147c-0.227,0.098-0.424,0.231-0.594,0.4c-0.17,0.169-0.303,0.367-0.401,0.595
				c-0.097,0.228-0.146,0.474-0.146,0.738c0,0.196-0.069,0.363-0.208,0.502c-0.139,0.139-0.307,0.208-0.506,0.208
				c-0.195,0-0.361-0.069-0.499-0.208C781.427,116.728,781.359,116.564,781.359,116.368z"/>
			<path fill="#331842" d="M791.747,118.515c0-0.861,0.075-1.63,0.225-2.307c0.15-0.677,0.364-1.25,0.646-1.719
				c0.281-0.469,0.627-0.828,1.039-1.077s0.883-0.373,1.413-0.373c0.527,0,1,0.126,1.413,0.379c0.41,0.253,0.759,0.615,1.042,1.087
				c0.281,0.472,0.498,1.046,0.645,1.723c0.147,0.677,0.221,1.439,0.221,2.287c0,0.848-0.072,1.61-0.221,2.287
				c-0.146,0.677-0.362,1.251-0.645,1.723c-0.283,0.472-0.632,0.834-1.042,1.087c-0.412,0.253-0.885,0.379-1.413,0.379
				c-0.53,0-1.001-0.124-1.413-0.373s-0.758-0.606-1.039-1.073c-0.281-0.467-0.496-1.04-0.646-1.719
				C791.822,120.146,791.747,119.376,791.747,118.515z M795.068,114.488c-0.317,0-0.596,0.103-0.832,0.308
				c-0.238,0.205-0.437,0.485-0.591,0.841c-0.156,0.356-0.273,0.78-0.352,1.275c-0.077,0.495-0.116,1.029-0.116,1.603
				c0,0.583,0.039,1.122,0.116,1.617c0.077,0.495,0.194,0.919,0.354,1.275c0.158,0.356,0.354,0.634,0.591,0.834
				c0.233,0.201,0.512,0.301,0.829,0.301c0.319,0,0.601-0.103,0.839-0.308c0.235-0.205,0.433-0.486,0.587-0.844
				c0.153-0.358,0.27-0.783,0.347-1.275c0.077-0.492,0.115-1.025,0.115-1.6c0-0.569-0.04-1.101-0.119-1.593
				c-0.08-0.492-0.196-0.918-0.35-1.278c-0.154-0.36-0.352-0.643-0.587-0.848C795.662,114.591,795.385,114.488,795.068,114.488z"/>
			<path fill="#331842" d="M802.135,118.515c0-0.861,0.075-1.63,0.226-2.307c0.147-0.677,0.362-1.25,0.645-1.719
				c0.281-0.469,0.627-0.828,1.039-1.077s0.883-0.373,1.413-0.373s1,0.126,1.413,0.379c0.412,0.253,0.759,0.615,1.042,1.087
				s0.498,1.046,0.645,1.723c0.147,0.677,0.223,1.439,0.223,2.287c0,0.848-0.074,1.61-0.223,2.287
				c-0.146,0.677-0.36,1.251-0.645,1.723c-0.283,0.472-0.631,0.834-1.042,1.087c-0.412,0.253-0.883,0.379-1.413,0.379
				s-1-0.124-1.413-0.373s-0.758-0.606-1.039-1.073c-0.281-0.467-0.496-1.04-0.645-1.719
				C802.209,120.146,802.135,119.376,802.135,118.515z M805.456,114.488c-0.317,0-0.594,0.103-0.832,0.308
				c-0.237,0.205-0.435,0.485-0.591,0.841c-0.156,0.356-0.272,0.78-0.352,1.275c-0.077,0.495-0.113,1.029-0.113,1.603
				c0,0.583,0.038,1.122,0.113,1.617c0.077,0.495,0.194,0.919,0.354,1.275c0.159,0.356,0.354,0.634,0.591,0.834
				c0.235,0.201,0.512,0.301,0.829,0.301c0.321,0,0.601-0.103,0.839-0.308c0.237-0.205,0.435-0.486,0.587-0.844
				c0.153-0.358,0.271-0.783,0.346-1.275c0.077-0.492,0.115-1.025,0.115-1.6c0-0.569-0.04-1.101-0.119-1.593
				c-0.079-0.492-0.194-0.918-0.35-1.278s-0.35-0.643-0.587-0.848S805.772,114.488,805.456,114.488z"/>
			<path fill="#331842" d="M818.39,114.488h-3.932v2.365h1.616c0.475,0,0.927,0.094,1.354,0.28c0.43,0.187,0.807,0.441,1.13,0.762
				c0.326,0.321,0.584,0.7,0.774,1.135c0.19,0.435,0.285,0.899,0.285,1.391c0,0.488-0.094,0.948-0.282,1.381
				c-0.188,0.433-0.442,0.812-0.764,1.135c-0.321,0.324-0.697,0.58-1.127,0.769c-0.432,0.189-0.889,0.284-1.372,0.284
				c-0.485,0-0.942-0.095-1.372-0.284c-0.433-0.189-0.808-0.445-1.127-0.769c-0.322-0.323-0.577-0.702-0.766-1.135
				c-0.188-0.433-0.28-0.893-0.28-1.381c0-0.205,0.065-0.375,0.198-0.509c0.135-0.134,0.304-0.202,0.508-0.202
				c0.197,0,0.366,0.067,0.506,0.202c0.138,0.134,0.207,0.304,0.207,0.509c0,0.296,0.055,0.574,0.166,0.834
				c0.109,0.26,0.263,0.486,0.455,0.68c0.19,0.194,0.418,0.346,0.676,0.458c0.258,0.112,0.534,0.167,0.829,0.167
				c0.29,0,0.562-0.056,0.821-0.167c0.259-0.112,0.483-0.265,0.68-0.461c0.193-0.196,0.348-0.423,0.459-0.68
				c0.108-0.257,0.166-0.534,0.166-0.831c0-0.292-0.059-0.567-0.17-0.827c-0.113-0.26-0.268-0.486-0.458-0.68
				c-0.192-0.194-0.418-0.347-0.677-0.461c-0.259-0.114-0.531-0.171-0.821-0.171h-2.323c-0.204,0-0.372-0.068-0.506-0.205
				c-0.134-0.137-0.2-0.308-0.2-0.513v-3.787c0-0.2,0.066-0.37,0.2-0.509c0.134-0.139,0.302-0.208,0.506-0.208h4.639
				c0.199,0,0.368,0.071,0.506,0.212c0.14,0.142,0.207,0.31,0.207,0.506c0,0.196-0.067,0.363-0.207,0.502
				C818.758,114.419,818.589,114.488,818.39,114.488z"/>
		</g>
	</g>
	<g>
		<g>
			<path fill="#331842" d="M906.463,88.368c0-0.456,0.087-0.884,0.261-1.285c0.176-0.401,0.411-0.752,0.709-1.053
				c0.3-0.301,0.647-0.538,1.047-0.711c0.397-0.173,0.821-0.26,1.271-0.26s0.872,0.089,1.271,0.267
				c0.397,0.178,0.746,0.417,1.047,0.718c0.299,0.301,0.533,0.652,0.709,1.053c0.174,0.401,0.262,0.825,0.262,1.271
				c0,0.456-0.083,0.88-0.248,1.271c-0.166,0.392-0.404,0.748-0.716,1.066l-3.301,3.855h3.552c0.199,0,0.368,0.071,0.506,0.212
				c0.138,0.142,0.207,0.31,0.207,0.506c0,0.196-0.069,0.363-0.207,0.502c-0.138,0.139-0.307,0.208-0.506,0.208h-5.154
				c-0.1,0-0.19-0.018-0.278-0.055c-0.086-0.036-0.159-0.088-0.224-0.154c-0.062-0.066-0.113-0.142-0.148-0.229
				c-0.036-0.086-0.055-0.178-0.055-0.273c0-0.205,0.065-0.374,0.197-0.506l4.401-5.059c0.369-0.374,0.557-0.822,0.557-1.347
				c0-0.255-0.05-0.497-0.149-0.725c-0.099-0.228-0.232-0.427-0.402-0.598c-0.169-0.171-0.368-0.306-0.596-0.407
				c-0.227-0.1-0.467-0.15-0.72-0.15c-0.258,0-0.5,0.049-0.727,0.147c-0.229,0.098-0.424,0.231-0.595,0.4
				c-0.171,0.169-0.304,0.367-0.399,0.595c-0.099,0.228-0.146,0.474-0.146,0.738c0,0.196-0.067,0.363-0.206,0.502
				c-0.139,0.139-0.308,0.208-0.507,0.208c-0.193,0-0.359-0.069-0.499-0.208C906.532,88.731,906.463,88.564,906.463,88.368z"/>
			<path fill="#331842" d="M916.851,90.515c0-0.861,0.074-1.63,0.226-2.307c0.148-0.677,0.365-1.25,0.646-1.719
				c0.281-0.469,0.627-0.828,1.039-1.077s0.883-0.373,1.413-0.373s1,0.126,1.413,0.379c0.412,0.253,0.759,0.615,1.042,1.087
				s0.498,1.046,0.646,1.723c0.146,0.677,0.221,1.439,0.221,2.287c0,0.848-0.074,1.61-0.221,2.287
				c-0.147,0.677-0.362,1.251-0.646,1.723c-0.283,0.472-0.63,0.834-1.042,1.087s-0.883,0.379-1.413,0.379s-1-0.124-1.413-0.373
				s-0.758-0.606-1.039-1.073c-0.279-0.467-0.496-1.04-0.646-1.719C916.925,92.146,916.851,91.376,916.851,90.515z M920.172,86.488
				c-0.317,0-0.594,0.103-0.832,0.308c-0.237,0.205-0.435,0.485-0.591,0.841c-0.156,0.356-0.273,0.78-0.35,1.275
				c-0.077,0.495-0.116,1.029-0.116,1.603c0,0.583,0.039,1.122,0.116,1.617c0.075,0.495,0.192,0.919,0.353,1.275
				c0.158,0.355,0.355,0.634,0.591,0.834c0.235,0.201,0.514,0.301,0.829,0.301c0.321,0,0.603-0.103,0.838-0.308
				c0.238-0.205,0.436-0.486,0.588-0.844c0.153-0.358,0.271-0.783,0.348-1.275c0.077-0.492,0.114-1.025,0.114-1.6
				c0-0.569-0.039-1.101-0.118-1.593c-0.079-0.492-0.196-0.918-0.352-1.278c-0.153-0.36-0.35-0.643-0.588-0.848
				C920.766,86.591,920.489,86.488,920.172,86.488z"/>
			<path fill="#331842" d="M927.239,90.515c0-0.861,0.075-1.63,0.224-2.307c0.149-0.677,0.364-1.25,0.646-1.719
				c0.279-0.469,0.627-0.828,1.039-1.077c0.41-0.249,0.883-0.373,1.411-0.373c0.53,0,1,0.126,1.413,0.379s0.761,0.615,1.042,1.087
				c0.283,0.472,0.498,1.046,0.646,1.723c0.146,0.677,0.221,1.439,0.221,2.287c0,0.848-0.073,1.61-0.221,2.287
				c-0.147,0.677-0.362,1.251-0.646,1.723c-0.281,0.472-0.63,0.834-1.042,1.087c-0.411,0.253-0.883,0.379-1.413,0.379
				c-0.528,0-1-0.124-1.411-0.373c-0.413-0.249-0.76-0.606-1.039-1.073c-0.281-0.467-0.496-1.04-0.646-1.719
				C927.313,92.146,927.239,91.376,927.239,90.515z M930.56,86.488c-0.315,0-0.594,0.103-0.832,0.308
				c-0.236,0.205-0.435,0.485-0.591,0.841c-0.154,0.356-0.271,0.78-0.35,1.275c-0.077,0.495-0.116,1.029-0.116,1.603
				c0,0.583,0.039,1.122,0.116,1.617c0.077,0.495,0.195,0.919,0.353,1.275c0.159,0.355,0.355,0.634,0.593,0.834
				c0.233,0.201,0.512,0.301,0.827,0.301c0.321,0,0.603-0.103,0.841-0.308c0.236-0.205,0.433-0.486,0.587-0.844
				c0.152-0.358,0.269-0.783,0.346-1.275c0.077-0.492,0.116-1.025,0.116-1.6c0-0.569-0.04-1.101-0.119-1.593
				c-0.079-0.492-0.196-0.918-0.35-1.278c-0.154-0.36-0.352-0.643-0.589-0.848C931.155,86.591,930.876,86.488,930.56,86.488z"/>
			<path fill="#331842" d="M943.494,86.488h-3.933v2.365h1.615c0.478,0,0.929,0.094,1.354,0.28c0.428,0.187,0.805,0.441,1.131,0.762
				c0.326,0.321,0.584,0.7,0.772,1.135c0.19,0.435,0.285,0.899,0.285,1.391c0,0.488-0.094,0.948-0.28,1.381
				c-0.188,0.433-0.443,0.812-0.766,1.135c-0.319,0.324-0.696,0.58-1.127,0.769c-0.43,0.189-0.887,0.284-1.372,0.284
				c-0.483,0-0.94-0.095-1.372-0.284c-0.43-0.189-0.806-0.445-1.127-0.769c-0.321-0.323-0.576-0.702-0.764-1.135
				c-0.188-0.433-0.282-0.893-0.282-1.381c0-0.205,0.066-0.375,0.2-0.509c0.134-0.134,0.302-0.202,0.506-0.202
				c0.199,0,0.368,0.067,0.506,0.202c0.14,0.134,0.207,0.304,0.207,0.509c0,0.296,0.058,0.574,0.167,0.834
				c0.111,0.26,0.264,0.486,0.455,0.68c0.192,0.194,0.417,0.346,0.676,0.458c0.261,0.112,0.534,0.167,0.829,0.167
				c0.29,0,0.563-0.056,0.822-0.167c0.258-0.112,0.484-0.265,0.679-0.461c0.194-0.196,0.349-0.423,0.458-0.68
				c0.111-0.257,0.167-0.534,0.167-0.831c0-0.292-0.057-0.567-0.169-0.827c-0.112-0.26-0.266-0.486-0.458-0.68
				c-0.191-0.194-0.418-0.347-0.676-0.461c-0.258-0.114-0.532-0.171-0.822-0.171h-2.322c-0.203,0-0.373-0.068-0.507-0.205
				c-0.133-0.137-0.198-0.308-0.198-0.513v-3.787c0-0.2,0.065-0.37,0.198-0.509c0.134-0.139,0.304-0.208,0.507-0.208h4.639
				c0.199,0,0.368,0.071,0.506,0.212c0.138,0.142,0.207,0.31,0.207,0.506c0,0.196-0.069,0.363-0.207,0.502
				C943.862,86.419,943.693,86.488,943.494,86.488z"/>
			<path fill="#331842" d="M924.083,106.873c-0.204,0-0.373-0.067-0.506-0.202c-0.133-0.134-0.2-0.304-0.2-0.509
				s0.067-0.375,0.2-0.509c0.134-0.134,0.302-0.202,0.506-0.202h3.097c0.204,0,0.372,0.067,0.506,0.202
				c0.135,0.134,0.2,0.304,0.2,0.509s-0.065,0.375-0.2,0.509c-0.134,0.134-0.302,0.202-0.506,0.202H924.083z"/>
			<path fill="#331842" d="M908.636,116.368c0-0.456,0.087-0.884,0.264-1.285c0.174-0.401,0.409-0.752,0.709-1.053
				c0.298-0.301,0.646-0.538,1.046-0.711c0.396-0.173,0.82-0.26,1.27-0.26s0.872,0.089,1.271,0.267
				c0.396,0.178,0.747,0.417,1.046,0.718c0.299,0.301,0.535,0.652,0.709,1.053c0.174,0.401,0.262,0.825,0.262,1.271
				c0,0.456-0.083,0.88-0.248,1.271c-0.166,0.392-0.404,0.748-0.717,1.066l-3.3,3.855h3.552c0.199,0,0.368,0.071,0.506,0.212
				c0.139,0.142,0.207,0.31,0.207,0.506c0,0.196-0.068,0.363-0.207,0.502c-0.139,0.139-0.307,0.208-0.506,0.208h-5.154
				c-0.1,0-0.191-0.018-0.277-0.055c-0.086-0.036-0.161-0.088-0.226-0.154c-0.062-0.066-0.111-0.142-0.147-0.229
				c-0.037-0.086-0.057-0.178-0.057-0.273c0-0.205,0.066-0.374,0.197-0.506l4.4-5.059c0.371-0.374,0.557-0.822,0.557-1.347
				c0-0.255-0.05-0.497-0.147-0.725c-0.102-0.228-0.234-0.427-0.404-0.598c-0.169-0.171-0.368-0.306-0.594-0.407
				c-0.229-0.1-0.468-0.15-0.722-0.15c-0.258,0-0.5,0.049-0.727,0.147c-0.228,0.098-0.425,0.231-0.594,0.4
				c-0.17,0.169-0.304,0.367-0.401,0.595c-0.097,0.228-0.146,0.474-0.146,0.738c0,0.196-0.069,0.363-0.207,0.502
				c-0.14,0.139-0.309,0.208-0.507,0.208c-0.194,0-0.36-0.069-0.5-0.208C908.706,116.731,908.636,116.564,908.636,116.368z"/>
			<path fill="#331842" d="M919.024,118.515c0-0.861,0.073-1.63,0.224-2.307s0.365-1.25,0.645-1.719
				c0.281-0.469,0.628-0.828,1.039-1.077c0.412-0.249,0.885-0.373,1.413-0.373c0.529,0,1,0.126,1.412,0.379s0.76,0.615,1.042,1.087
				c0.283,0.472,0.498,1.046,0.646,1.723c0.146,0.677,0.221,1.439,0.221,2.287c0,0.848-0.074,1.61-0.221,2.287
				c-0.147,0.677-0.362,1.251-0.646,1.723c-0.283,0.472-0.63,0.834-1.042,1.087s-0.883,0.379-1.412,0.379
				c-0.528,0-1.001-0.124-1.413-0.373c-0.411-0.249-0.758-0.606-1.039-1.073c-0.278-0.467-0.494-1.04-0.645-1.719
				C919.099,120.146,919.024,119.376,919.024,118.515z M922.345,114.488c-0.315,0-0.595,0.103-0.832,0.308
				c-0.236,0.205-0.435,0.485-0.591,0.841c-0.156,0.356-0.271,0.78-0.35,1.275c-0.077,0.495-0.116,1.029-0.116,1.603
				c0,0.583,0.039,1.122,0.116,1.617c0.077,0.495,0.192,0.919,0.353,1.275c0.158,0.355,0.355,0.634,0.591,0.834
				c0.235,0.201,0.513,0.301,0.829,0.301c0.321,0,0.603-0.103,0.838-0.308c0.237-0.205,0.436-0.486,0.589-0.844
				c0.151-0.358,0.27-0.783,0.347-1.275c0.077-0.492,0.115-1.025,0.115-1.6c0-0.569-0.04-1.101-0.119-1.593
				c-0.079-0.492-0.195-0.918-0.352-1.278c-0.152-0.36-0.35-0.643-0.587-0.848C922.939,114.591,922.662,114.488,922.345,114.488z"/>
			<path fill="#331842" d="M930.838,123.279v-8.511c-0.136,0.046-0.278,0.097-0.428,0.154c-0.15,0.057-0.285,0.085-0.408,0.085
				c-0.204,0-0.372-0.067-0.506-0.202c-0.133-0.134-0.2-0.304-0.2-0.509c0-0.146,0.038-0.275,0.112-0.39
				c0.075-0.114,0.188-0.207,0.343-0.28l1.555-0.52c0.082-0.032,0.163-0.048,0.245-0.048c0.204,0,0.372,0.069,0.506,0.208
				c0.135,0.139,0.2,0.309,0.2,0.509v9.502c0,0.196-0.067,0.363-0.207,0.502c-0.138,0.139-0.307,0.208-0.506,0.208
				c-0.195,0-0.361-0.069-0.499-0.208C930.907,123.643,930.838,123.476,930.838,123.279z"/>
			<path fill="#331842" d="M935.997,116.368c0-0.456,0.087-0.884,0.261-1.285s0.411-0.752,0.71-1.053
				c0.299-0.301,0.647-0.538,1.045-0.711c0.398-0.173,0.822-0.26,1.271-0.26s0.871,0.089,1.27,0.267
				c0.399,0.178,0.747,0.417,1.046,0.718c0.301,0.301,0.535,0.652,0.71,1.053c0.176,0.401,0.263,0.825,0.263,1.271
				c0,0.456-0.083,0.88-0.248,1.271c-0.166,0.392-0.404,0.748-0.717,1.066l-3.302,3.855h3.554c0.197,0,0.366,0.071,0.506,0.212
				c0.138,0.142,0.207,0.31,0.207,0.506c0,0.196-0.069,0.363-0.207,0.502c-0.14,0.139-0.309,0.208-0.506,0.208h-5.155
				c-0.1,0-0.192-0.018-0.278-0.055c-0.086-0.036-0.161-0.088-0.224-0.154c-0.063-0.066-0.113-0.142-0.149-0.229
				c-0.036-0.086-0.054-0.178-0.054-0.273c0-0.205,0.065-0.374,0.197-0.506l4.399-5.059c0.371-0.374,0.559-0.822,0.559-1.347
				c0-0.255-0.05-0.497-0.149-0.725c-0.099-0.228-0.232-0.427-0.402-0.598c-0.172-0.171-0.368-0.306-0.596-0.407
				c-0.227-0.1-0.466-0.15-0.72-0.15c-0.258,0-0.5,0.049-0.727,0.147c-0.228,0.098-0.426,0.231-0.596,0.4
				c-0.17,0.169-0.303,0.367-0.398,0.595c-0.1,0.228-0.146,0.474-0.146,0.738c0,0.196-0.067,0.363-0.208,0.502
				c-0.138,0.139-0.307,0.208-0.506,0.208c-0.193,0-0.361-0.069-0.499-0.208C936.068,116.728,935.997,116.564,935.997,116.368z"/>
		</g>
	</g>
	<g>
		<circle fill="none" cx="27.331" cy="308.885" r="2.551"/>
		<circle fill="none" cx="21.136" cy="308.885" r="2.551"/>
		<circle fill="none" cx="14.94" cy="308.885" r="2.55"/>
		<circle fill="none" cx="21.136" cy="315.153" r="2.551"/>
		<circle fill="none" cx="14.94" cy="315.153" r="2.55"/>
		<circle fill="none" cx="8.746" cy="315.153" r="2.55"/>
		<circle fill="none" cx="14.94" cy="321.42" r="2.55"/>
		<circle fill="none" cx="8.746" cy="321.42" r="2.55"/>
		<circle fill="none" cx="2.551" cy="321.42" r="2.551"/>
		<circle fill="none" cx="21.136" cy="327.688" r="2.551"/>
		<circle fill="none" cx="14.94" cy="327.688" r="2.55"/>
		<circle fill="none" cx="8.746" cy="327.688" r="2.55"/>
		<circle fill="none" cx="27.331" cy="333.956" r="2.551"/>
		<circle fill="none" cx="21.136" cy="333.956" r="2.551"/>
		<circle fill="none" cx="14.94" cy="333.956" r="2.55"/>
	</g>
</g>
</svg>
