<?xml version="1.0" encoding="utf-8"?>
<!-- Generator: Adobe Illustrator 16.0.0, SVG Export Plug-In . SVG Version: 6.00 Build 0)  -->
<!DOCTYPE svg PUBLIC "-//W3C//DTD SVG 1.1//EN" "http://www.w3.org/Graphics/SVG/1.1/DTD/svg11.dtd">
<svg version="1.1" id="Capa_1" xmlns="http://www.w3.org/2000/svg" xmlns:xlink="http://www.w3.org/1999/xlink" x="0px" y="0px"
	 width="954.207px" height="293.988px" viewBox="0 0 954.207 293.988" enable-background="new 0 0 954.207 293.988"
	 xml:space="preserve">
<g>
	<g>
		<path fill="#E9496E" d="M0.815,38.535c0.136-2.896,0.204-5.714,0.204-8.455c0-3.165-0.091-6.233-0.272-9.204l5.007-0.179
			l4.598,9.561c-0.045-3.284-0.17-6.645-0.375-10.08l5.262-0.051c-0.522,5.188-0.783,10.427-0.783,15.717
			c0,0.711,0.005,1.422,0.017,2.133l-4.616,0.038L4.954,27.781c0.147,3.774,0.284,7.283,0.409,10.524L0.815,38.535z"/>
		<path fill="#E9496E" d="M22.734,25.865c3.86,0,5.79,1.997,5.79,5.992c0,0.161-0.006,0.321-0.017,0.482
			c-0.159,4.325-2.214,6.509-6.166,6.551c-0.045,0.009-0.091,0.013-0.136,0.013c-3.758,0-5.637-2.044-5.637-6.132v-0.354
			C16.682,28.049,18.737,25.865,22.734,25.865z M22.172,28.76c-0.715,0.187-1.204,0.876-1.465,2.069
			c-0.159,0.711-0.238,1.426-0.238,2.146c0,0.482,0.034,0.969,0.102,1.46c0.182,1.219,0.766,1.851,1.754,1.893h0.12
			c0.919,0,1.55-0.453,1.89-1.358c0.284-0.753,0.426-1.646,0.426-2.679c0-0.254-0.006-0.513-0.017-0.774
			c-0.091-1.362-0.363-2.213-0.817-2.552c-0.284-0.203-0.625-0.305-1.022-0.305C22.677,28.658,22.433,28.692,22.172,28.76z"/>
		<path fill="#E9496E" d="M39.867,20.711l0.17,7.146c0.477-1.101,1.589-1.659,3.338-1.676h0.051c1.726,0,2.952,0.584,3.679,1.752
			c0.5,0.796,0.75,2.657,0.75,5.586c0,1.438-0.062,3.141-0.188,5.104h-4.292c0.147-2.615,0.222-4.644,0.222-6.081
			c0-0.721-0.017-1.295-0.051-1.728c-0.113-1.27-0.602-1.903-1.464-1.903c-0.863,0-1.419,0.339-1.669,1.016l0.17,9.204l-4.172,0.024
			c0-3.894-0.233-10-0.698-18.318L39.867,20.711z"/>
		<path fill="#E9496E" d="M58.124,38.903l-0.17-2.068c-0.477,1.101-1.76,1.653-3.849,1.663c-0.023,0.009-0.04,0.013-0.051,0.013
			c-2.066,0-3.435-0.694-4.104-2.082c-0.454-0.923-0.681-2.831-0.681-5.726c0-1.489,0.062-3.246,0.188-5.27h4.139
			c-0.228,2.844-0.341,5.031-0.341,6.563c0,0.771,0.028,1.371,0.085,1.803c0.17,1.32,0.744,1.979,1.72,1.979
			s1.589-0.343,1.839-1.027l-0.17-8.812l4.002-0.024c0,3.64,0.176,7.88,0.528,12.721L58.124,38.903z"/>
		<path fill="#E9496E" d="M67.303,20.939c-0.125,2.548-0.187,4.762-0.187,6.641c0.602-0.805,1.368-1.273,2.299-1.409
			c0.159-0.009,0.312-0.014,0.46-0.014c3.701,0,5.592,1.993,5.671,5.979v0.229c0,3.995-1.97,5.992-5.91,5.992
			c-0.943,0-1.834-0.47-2.674-1.409l-0.136,1.942l-4.037-0.013c0.057-3.099,0.085-6.077,0.085-8.938c0-3.14-0.034-6.141-0.103-9.001
			L67.303,20.939L67.303,20.939z M67.116,29.953l-0.085,4.393c0.59,0.897,1.34,1.346,2.248,1.346c0.102,0,0.205-0.004,0.307-0.013
			c1.044-0.11,1.624-1.155,1.737-3.136c0.011-0.203,0.017-0.397,0.017-0.584c0-1.625-0.443-2.595-1.329-2.907
			c-0.272-0.093-0.54-0.14-0.8-0.14C68.496,28.912,67.797,29.259,67.116,29.953z"/>
		<path fill="#E9496E" d="M82.887,25.865c3.86,0,5.79,1.997,5.79,5.992c0,0.161-0.006,0.321-0.017,0.482
			c-0.159,4.325-2.214,6.509-6.166,6.551c-0.045,0.009-0.091,0.013-0.136,0.013c-3.758,0-5.637-2.044-5.637-6.132v-0.354
			C76.835,28.049,78.89,25.865,82.887,25.865z M82.325,28.76c-0.715,0.187-1.204,0.876-1.465,2.069
			c-0.159,0.711-0.238,1.426-0.238,2.146c0,0.482,0.034,0.969,0.102,1.46c0.182,1.219,0.766,1.851,1.754,1.893h0.12
			c0.919,0,1.55-0.453,1.89-1.358c0.284-0.753,0.426-1.646,0.426-2.679c0-0.254-0.006-0.513-0.017-0.774
			c-0.091-1.362-0.363-2.213-0.817-2.552c-0.284-0.203-0.625-0.305-1.022-0.305C82.83,28.658,82.585,28.692,82.325,28.76z"/>
		<path fill="#E9496E" d="M98.811,21.815l3.866-0.189v4.202l3.253-0.063l0.051,2.399l-3.304,0.113v5.776
			c0,1.346,0.767,2.019,2.299,2.019c0.318,0,0.664-0.028,1.039-0.089l-0.153,2.793c-0.545,0.052-1.062,0.076-1.55,0.076
			c-3.588,0-5.416-1.38-5.484-4.139v-6.208l-2.793,0.127l-0.068-2.831l2.861,0.025L98.811,21.815z"/>
		<path fill="#E9496E" d="M112.163,22.945c0,0.518-0.244,0.956-0.732,1.32c-0.488,0.364-1.079,0.546-1.771,0.546
			c-0.681,0-1.266-0.182-1.754-0.546c-0.489-0.364-0.732-0.804-0.732-1.32c0-0.508,0.244-0.942,0.732-1.308
			c0.488-0.364,1.073-0.546,1.754-0.546c0.692,0,1.283,0.182,1.771,0.546C111.919,22.001,112.163,22.438,112.163,22.945z
			 M107.599,38.967c-0.08-4.951-0.119-9.229-0.119-12.835l4.292-0.19c-0.136,3.453-0.204,6.886-0.204,10.296
			c0,0.914,0.005,1.824,0.017,2.729H107.599z"/>
		<path fill="#E9496E" d="M118.634,25.865c3.939,0,5.91,1.951,5.91,5.854c0,0.474-0.028,0.98-0.085,1.523h-7.612
			c0,2.175,0.562,3.263,1.686,3.263h0.119c0.988-0.061,1.481-0.622,1.481-1.688c0-0.229-0.023-0.481-0.068-0.762l4.053-0.062
			c0,3.225-1.891,4.857-5.671,4.899c-0.045,0.009-0.085,0.013-0.119,0.013c-3.599,0-5.399-2.034-5.399-6.105v-0.381
			C113.042,28.049,114.944,25.865,118.634,25.865z M116.437,30.905h3.849V30.6c0-1.54-0.585-2.311-1.754-2.311
			C117.272,28.29,116.573,29.162,116.437,30.905z"/>
		<path fill="#E9496E" d="M128.563,25.599l0.068,2.031c0.613-0.975,1.323-1.578,2.129-1.815c0.477-0.136,0.959-0.203,1.448-0.203
			c0.363,0,0.727,0.034,1.09,0.103c0.886,0.169,1.516,0.847,1.891,2.031c0.295-0.924,0.806-1.538,1.533-1.848
			s1.533-0.468,2.418-0.477h0.068c0.863,0,1.692,0.156,2.486,0.47c0.806,0.321,1.422,0.925,1.848,1.811
			c0.426,0.884,0.65,2.097,0.672,3.637v7.376l-3.678,0.062c0.147-2.783,0.221-5.153,0.221-7.108s-0.5-3.009-1.499-3.161
			c-0.148-0.018-0.29-0.025-0.426-0.025c-0.795,0-1.408,0.381-1.839,1.144c-0.068,0.88-0.102,1.908-0.102,3.085
			c0,1.6,0.062,3.466,0.187,5.599l-4.258,0.025c0.159-3.275,0.239-5.662,0.239-7.16V31.02c-0.012-1.48-0.403-2.26-1.175-2.336
			h-0.221c-0.693,0-1.363,0.296-2.01,0.889l0.034,9.294l-4.02,0.113v-2.082c0-3.689-0.074-7.376-0.221-11.058L128.563,25.599z"/>
		<path fill="#E9496E" d="M145.338,43.969c0.068-2.853,0.103-5.887,0.103-9.103c0-2.93-0.029-6.002-0.085-9.218l4.037-0.013
			l0.136,1.955c0.84-0.948,1.958-1.422,3.355-1.422c3.485,0,5.229,2.053,5.229,6.157v0.254c-0.08,4.112-1.817,6.17-5.211,6.17
			c-0.136,0-0.272-0.004-0.409-0.014c-1.158-0.042-2.095-0.512-2.81-1.408c0,1.879,0.062,4.092,0.187,6.64L145.338,43.969
			L145.338,43.969z M149.596,30.194l0.085,4.773c0.658,0.669,1.322,1.003,1.992,1.003c0.272,0,0.545-0.06,0.818-0.178
			c0.829-0.339,1.243-1.351,1.243-3.034c0-0.203-0.006-0.415-0.017-0.635c-0.114-2.065-0.664-3.152-1.652-3.264
			c-0.103-0.009-0.199-0.013-0.29-0.013C150.913,28.849,150.187,29.297,149.596,30.194z"/>
		<path fill="#E9496E" d="M165.452,25.865c3.86,0,5.79,1.997,5.79,5.992c0,0.161-0.006,0.321-0.017,0.482
			c-0.159,4.325-2.214,6.509-6.166,6.551c-0.045,0.009-0.091,0.013-0.136,0.013c-3.758,0-5.637-2.044-5.637-6.132v-0.354
			C159.4,28.049,161.455,25.865,165.452,25.865z M164.89,28.76c-0.715,0.187-1.204,0.876-1.465,2.069
			c-0.159,0.711-0.238,1.426-0.238,2.146c0,0.482,0.034,0.969,0.102,1.46c0.182,1.219,0.766,1.851,1.754,1.893h0.12
			c0.919,0,1.55-0.453,1.89-1.358c0.284-0.753,0.426-1.646,0.426-2.679c0-0.254-0.006-0.513-0.017-0.774
			c-0.091-1.362-0.363-2.213-0.817-2.552c-0.284-0.203-0.625-0.305-1.022-0.305C165.395,28.658,165.151,28.692,164.89,28.76z"/>
		<path fill="#E9496E" d="M178.634,43.969c0.068-2.853,0.103-5.887,0.103-9.103c0-2.93-0.029-6.002-0.085-9.218l4.037-0.013
			l0.136,1.955c0.84-0.948,1.958-1.422,3.355-1.422c3.485,0,5.229,2.053,5.229,6.157v0.254c-0.08,4.112-1.817,6.17-5.211,6.17
			c-0.136,0-0.272-0.004-0.409-0.014c-1.158-0.042-2.095-0.512-2.81-1.408c0,1.879,0.062,4.092,0.187,6.64L178.634,43.969
			L178.634,43.969z M182.892,30.194l0.085,4.773c0.658,0.669,1.322,1.003,1.992,1.003c0.272,0,0.545-0.06,0.818-0.178
			c0.829-0.339,1.243-1.351,1.243-3.034c0-0.203-0.006-0.415-0.017-0.635c-0.114-2.065-0.664-3.152-1.652-3.264
			c-0.103-0.009-0.199-0.013-0.29-0.013C184.208,28.849,183.482,29.297,182.892,30.194z"/>
		<path fill="#E9496E" d="M199.343,25.497c3.735,0.151,5.604,1.553,5.604,4.201v9.015l-3.968,0.051l-0.136-1.206
			c-0.818,0.694-1.902,1.041-3.253,1.041c-0.579,0-1.204-0.067-1.874-0.203c-2.01-0.372-3.014-1.532-3.014-3.479
			c0-0.237,0.017-0.491,0.051-0.763c0.227-2.006,2.14-3.009,5.739-3.009c0.692,0,1.454,0.038,2.282,0.114v-1.473
			c0-1.193-0.505-1.79-1.516-1.79h-0.068c-0.08-0.01-0.153-0.014-0.221-0.014c-1.102,0-1.652,0.669-1.652,2.006v0.19l-4.053-0.254
			c0-2.954,1.907-4.431,5.722-4.431h0.357V25.497z M200.774,35.526v-2.233c-0.488-0.076-0.931-0.114-1.328-0.114
			c-1.034,0-1.737,0.258-2.112,0.774c-0.228,0.312-0.341,0.604-0.341,0.876c0,0.339,0.182,0.639,0.545,0.9
			c0.284,0.203,0.653,0.306,1.107,0.306C199.224,36.034,199.934,35.865,200.774,35.526z"/>
		<path fill="#E9496E" d="M210.839,29.801l0.17,9.204l-4.173,0.024c0-3.894-0.176-8.265-0.528-13.113l3.134-0.254l0.17,2.068
			c0.477-1.016,1.589-1.596,3.338-1.738c0.261-0.018,0.511-0.025,0.75-0.025c1.374,0,2.418,0.334,3.133,1.003
			c0.829,0.796,1.249,2.061,1.26,3.796l-3.781,0.279c0.011-0.145,0.017-0.283,0.017-0.419c0-1.354-0.471-2.031-1.414-2.031h-0.068
			C211.759,28.637,211.089,29.039,210.839,29.801z"/>
		<path fill="#E9496E" d="M225.826,25.497c3.735,0.151,5.604,1.553,5.604,4.201v9.015l-3.968,0.051l-0.136-1.206
			c-0.818,0.694-1.902,1.041-3.253,1.041c-0.579,0-1.204-0.067-1.874-0.203c-2.01-0.372-3.014-1.532-3.014-3.479
			c0-0.237,0.017-0.491,0.051-0.763c0.227-2.006,2.14-3.009,5.739-3.009c0.692,0,1.454,0.038,2.282,0.114v-1.473
			c0-1.193-0.505-1.79-1.516-1.79h-0.068c-0.08-0.01-0.153-0.014-0.221-0.014c-1.102,0-1.652,0.669-1.652,2.006v0.19l-4.053-0.254
			c0-2.954,1.907-4.431,5.722-4.431h0.357V25.497z M227.257,35.526v-2.233c-0.488-0.076-0.931-0.114-1.328-0.114
			c-1.034,0-1.737,0.258-2.112,0.774c-0.228,0.312-0.341,0.604-0.341,0.876c0,0.339,0.182,0.639,0.545,0.9
			c0.284,0.203,0.653,0.306,1.107,0.306C225.707,36.034,226.417,35.865,227.257,35.526z"/>
		<path fill="#E9496E" d="M243.93,38.688l-4.241,0.292c0.045-2.802,0.068-5.497,0.068-8.087c0-3.64-0.045-7.071-0.136-10.296
			l4.172-0.051c-0.045,2.073-0.068,4.202-0.068,6.386C243.726,30.698,243.794,34.616,243.93,38.688z"/>
		<path fill="#E9496E" d="M251.986,25.497c3.735,0.151,5.604,1.553,5.604,4.201v9.015l-3.968,0.051l-0.136-1.206
			c-0.818,0.694-1.902,1.041-3.253,1.041c-0.579,0-1.204-0.067-1.874-0.203c-2.01-0.372-3.014-1.532-3.014-3.479
			c0-0.237,0.017-0.491,0.051-0.763c0.227-2.006,2.14-3.009,5.739-3.009c0.692,0,1.454,0.038,2.282,0.114v-1.473
			c0-1.193-0.505-1.79-1.516-1.79h-0.068c-0.08-0.01-0.153-0.014-0.221-0.014c-1.102,0-1.652,0.669-1.652,2.006v0.19l-4.053-0.254
			c0-2.954,1.907-4.431,5.722-4.431h0.357V25.497z M253.417,35.526v-2.233c-0.488-0.076-0.931-0.114-1.328-0.114
			c-1.034,0-1.737,0.258-2.112,0.774c-0.228,0.312-0.341,0.604-0.341,0.876c0,0.339,0.182,0.639,0.545,0.9
			c0.284,0.203,0.653,0.306,1.107,0.306C251.867,36.034,252.576,35.865,253.417,35.526z"/>
		<path fill="#E9496E" d="M268.148,21.815l3.866-0.189v4.202l3.253-0.063l0.051,2.399l-3.304,0.113v5.776
			c0,1.346,0.767,2.019,2.299,2.019c0.318,0,0.664-0.028,1.039-0.089l-0.153,2.793c-0.545,0.052-1.062,0.076-1.55,0.076
			c-3.588,0-5.416-1.38-5.484-4.139v-6.208l-2.793,0.127l-0.068-2.831l2.861,0.025L268.148,21.815z"/>
		<path fill="#E9496E" d="M281.262,29.801l0.17,9.204l-4.173,0.024c0-3.894-0.176-8.265-0.528-13.113l3.134-0.254l0.17,2.068
			c0.477-1.016,1.589-1.596,3.338-1.738c0.261-0.018,0.511-0.025,0.75-0.025c1.374,0,2.418,0.334,3.133,1.003
			c0.829,0.796,1.249,2.061,1.26,3.796l-3.781,0.279c0.011-0.145,0.017-0.283,0.017-0.419c0-1.354-0.471-2.031-1.414-2.031h-0.068
			C282.182,28.637,281.512,29.039,281.262,29.801z"/>
		<path fill="#E9496E" d="M294.427,22.945c0,0.518-0.244,0.956-0.732,1.32c-0.488,0.364-1.079,0.546-1.771,0.546
			c-0.681,0-1.266-0.182-1.754-0.546c-0.489-0.364-0.732-0.804-0.732-1.32c0-0.508,0.244-0.942,0.732-1.308
			c0.488-0.364,1.073-0.546,1.754-0.546c0.692,0,1.283,0.182,1.771,0.546C294.183,22.001,294.427,22.438,294.427,22.945z
			 M289.863,38.967c-0.08-4.951-0.119-9.229-0.119-12.835l4.292-0.19c-0.136,3.453-0.204,6.886-0.204,10.296
			c0,0.914,0.005,1.824,0.017,2.729H289.863z"/>
		<path fill="#E9496E" d="M295.159,34.396l3.9-0.14v0.165c0,1.304,0.539,1.964,1.618,1.979h0.068c1.044,0,1.567-0.377,1.567-1.13
			v-0.089c-0.045-0.829-1.076-1.498-3.091-2.006c-2.015-0.508-3.227-1.362-3.636-2.564c-0.148-0.423-0.222-0.828-0.222-1.219
			c0-0.711,0.244-1.371,0.732-1.979c0.75-0.932,1.885-1.465,3.406-1.601c0.409-0.034,0.806-0.051,1.192-0.051
			c1.011,0,1.902,0.131,2.674,0.394c1.056,0.364,1.789,0.886,2.197,1.562c0.272,0.466,0.409,0.98,0.409,1.549
			c0,0.271-0.029,0.55-0.085,0.838l-3.645,0.063c0.034-0.212,0.051-0.406,0.051-0.584c0-0.848-0.364-1.299-1.09-1.358
			c-0.08-0.009-0.159-0.013-0.239-0.013c-0.749,0-1.254,0.283-1.516,0.851c-0.091,0.194-0.136,0.372-0.136,0.533
			c0,0.397,0.25,0.74,0.75,1.028c0.704,0.405,1.746,0.817,3.125,1.237c1.379,0.418,2.308,1.133,2.785,2.14
			c0.17,0.381,0.255,0.762,0.255,1.143c0,0.645-0.25,1.291-0.75,1.942c-0.795,1.041-2.026,1.646-3.695,1.814
			c-0.364,0.042-0.721,0.063-1.073,0.063c-1.249,0-2.407-0.241-3.474-0.724C295.875,37.625,295.182,36.343,295.159,34.396z"/>
		<path fill="#E9496E" d="M310.299,21.815l3.866-0.189v4.202l3.253-0.063l0.051,2.399l-3.304,0.113v5.776
			c0,1.346,0.767,2.019,2.299,2.019c0.318,0,0.664-0.028,1.039-0.089l-0.153,2.793c-0.545,0.052-1.062,0.076-1.55,0.076
			c-3.588,0-5.416-1.38-5.483-4.139v-6.208l-2.793,0.127l-0.068-2.831l2.861,0.025L310.299,21.815z"/>
		<path fill="#E9496E" d="M324.418,25.865c3.939,0,5.91,1.951,5.91,5.854c0,0.474-0.028,0.98-0.085,1.523h-7.612
			c0,2.175,0.562,3.263,1.687,3.263h0.118c0.988-0.061,1.481-0.622,1.481-1.688c0-0.229-0.023-0.481-0.068-0.762l4.054-0.062
			c0,3.225-1.892,4.857-5.671,4.899c-0.046,0.009-0.085,0.013-0.119,0.013c-3.6,0-5.399-2.034-5.399-6.105v-0.381
			C318.826,28.049,320.728,25.865,324.418,25.865z M322.221,30.905h3.85V30.6c0-1.54-0.585-2.311-1.754-2.311
			C323.056,28.29,322.357,29.162,322.221,30.905z"/>
		<path fill="#E9496E" d="M331.69,25.802c0.999,0.017,2.116,0.025,3.354,0.025c1.987,0,4.286-0.021,6.897-0.063l0.085,2.59
			l-6.063,7.617h6.063l-0.052,2.78c-2.85,0-6.317,0.042-10.405,0.127l-0.137-2.463l6.354-8.062c-2.032,0-4.036,0.056-6.012,0.165
			L331.69,25.802z"/>
		<path fill="#E9496E" d="M349.862,25.497c3.734,0.151,5.604,1.553,5.604,4.201v9.015l-3.968,0.051l-0.136-1.206
			c-0.818,0.694-1.902,1.041-3.253,1.041c-0.579,0-1.204-0.067-1.874-0.203c-2.011-0.372-3.015-1.532-3.015-3.479
			c0-0.237,0.018-0.491,0.052-0.763c0.227-2.006,2.14-3.009,5.738-3.009c0.692,0,1.454,0.038,2.282,0.114v-1.473
			c0-1.193-0.505-1.79-1.516-1.79h-0.068c-0.08-0.01-0.153-0.014-0.221-0.014c-1.103,0-1.652,0.669-1.652,2.006v0.19l-4.053-0.254
			c0-2.954,1.907-4.431,5.722-4.431h0.357V25.497z M351.292,35.526v-2.233c-0.488-0.076-0.931-0.114-1.328-0.114
			c-1.034,0-1.737,0.258-2.112,0.774c-0.228,0.312-0.341,0.604-0.341,0.876c0,0.339,0.183,0.639,0.545,0.9
			c0.284,0.203,0.653,0.306,1.107,0.306C349.743,36.034,350.452,35.865,351.292,35.526z"/>
	</g>
	<rect x="471.826" y="0" opacity="0.9" fill="#E9496E" enable-background="new    " width="482.381" height="293.988"/>
</g>
</svg>
