<?xml version="1.0" encoding="utf-8"?>
<!-- Generator: Adobe Illustrator 16.0.0, SVG Export Plug-In . SVG Version: 6.00 Build 0)  -->
<!DOCTYPE svg PUBLIC "-//W3C//DTD SVG 1.1//EN" "http://www.w3.org/Graphics/SVG/1.1/DTD/svg11.dtd">
<svg version="1.1" id="Capa_1" xmlns="http://www.w3.org/2000/svg" xmlns:xlink="http://www.w3.org/1999/xlink" x="0px" y="0px"
	 width="318.195px" height="194.443px" viewBox="0 0 318.195 194.443" enable-background="new 0 0 318.195 194.443"
	 xml:space="preserve">
<g>
	<circle fill="#331842" stroke="#A0C219" stroke-width="5" stroke-miterlimit="10" cx="222.48" cy="23.023" r="20.523"/>
	<g>
		<path fill="#E9496E" d="M215.4,19.04c-0.053-0.521-0.08-1.008-0.08-1.461c0-1.563,0.316-2.769,0.951-3.615
			c0.805-1.082,2.125-1.751,3.959-2.007c0.896-0.128,1.754-0.191,2.574-0.191c0.832,0,1.622,0.068,2.375,0.207
			c1.465,0.266,2.635,0.86,3.514,1.785c0.877,0.926,1.349,2.194,1.416,3.808v0.441c0,1.397-0.291,2.416-0.871,3.056
			c-0.647,0.718-1.709,1.259-3.188,1.624c1.229,0.138,2.147,0.47,2.762,0.996c0.613,0.525,1.039,1.231,1.276,2.116
			c0.132,0.492,0.198,1.033,0.198,1.624c0,0.482-0.047,1.004-0.139,1.564c-0.198,1.229-0.869,2.292-2.01,3.188
			c-1.142,0.896-2.9,1.363-5.275,1.402h-0.316c-2.23,0-4.012-0.433-5.345-1.299c-1.386-0.885-2.079-2.789-2.079-5.71v-0.089
			l5.127-0.222c-0.014,0.167-0.02,0.33-0.02,0.487c0,2.066,0.726,3.134,2.178,3.202c0.105,0.01,0.205,0.015,0.297,0.015
			c1.373,0,2.197-0.541,2.475-1.624c0.079-0.305,0.119-0.595,0.119-0.871c0-0.776-0.297-1.45-0.891-2.021
			c-0.819-0.768-2.172-1.151-4.059-1.151l-0.238-2.804c0.225,0.01,0.437,0.015,0.634,0.015c1.649,0,2.784-0.354,3.405-1.062
			c0.58-0.659,0.871-1.515,0.871-2.568c0-0.207-0.015-0.418-0.041-0.634c-0.119-1.259-0.877-1.889-2.275-1.889h-0.258
			c-1.385,0.068-2.078,1.102-2.078,3.099c0,0.236,0.007,0.487,0.02,0.752L215.4,19.04z"/>
	</g>
</g>
</svg>
