<?xml version="1.0" encoding="utf-8"?>
<!-- Generator: Adobe Illustrator 16.0.0, SVG Export Plug-In . SVG Version: 6.00 Build 0)  -->
<!DOCTYPE svg PUBLIC "-//W3C//DTD SVG 1.1//EN" "http://www.w3.org/Graphics/SVG/1.1/DTD/svg11.dtd">
<svg version="1.1" id="Capa_1" xmlns="http://www.w3.org/2000/svg" xmlns:xlink="http://www.w3.org/1999/xlink" x="0px" y="0px"
	 width="187.73px" height="191.75px" viewBox="0 0 187.73 191.75" enable-background="new 0 0 187.73 191.75" xml:space="preserve">
<g>
	
		<rect x="38.737" y="0.179" transform="matrix(1 -0.0024 0.0024 1 -0.0572 0.2714)" fill="#E9496E" width="148.263" height="47.52"/>
	
		<rect x="15.284" y="57.516" transform="matrix(1 -0.0024 0.0024 1 -0.1962 0.2447)" fill="#E9496E" width="171.716" height="47.52"/>
	
		<rect x="0.096" y="111.284" transform="matrix(1 -0.0024 0.0024 1 -0.3644 0.2265)" fill="#E9496E" width="187.538" height="80.241"/>
	<g>
		<g>
			<path fill="#331842" d="M59.724,128.464c0.228,0,0.421,0.081,0.582,0.242s0.241,0.357,0.241,0.586s-0.08,0.424-0.241,0.586
				s-0.354,0.242-0.582,0.242h-7.179c-0.119,0-0.228-0.021-0.326-0.062c-0.098-0.042-0.185-0.1-0.26-0.176s-0.133-0.163-0.175-0.262
				c-0.041-0.099-0.062-0.208-0.062-0.328v-10.844c0-0.115,0.021-0.223,0.062-0.324c0.042-0.102,0.1-0.19,0.175-0.266
				s0.162-0.134,0.26-0.176c0.099-0.042,0.207-0.062,0.326-0.062h7.179c0.228,0,0.421,0.081,0.582,0.242s0.241,0.357,0.241,0.586
				s-0.08,0.424-0.241,0.586s-0.354,0.242-0.582,0.242h-6.356v3.766h4.563c0.228,0,0.422,0.081,0.583,0.242
				c0.16,0.162,0.24,0.357,0.24,0.586s-0.08,0.424-0.24,0.586c-0.161,0.162-0.354,0.242-0.583,0.242h-4.563v3.766H59.724z"/>
			<path fill="#331842" d="M64.789,129.308v-10.867c0-0.229,0.076-0.423,0.229-0.582s0.345-0.238,0.579-0.238
				c0.232,0,0.425,0.08,0.578,0.238c0.152,0.159,0.229,0.353,0.229,0.582v10.047h0.373c0.222,0,0.412,0.08,0.57,0.238
				c0.158,0.159,0.236,0.353,0.236,0.582c0,0.224-0.079,0.416-0.236,0.574c-0.158,0.159-0.348,0.238-0.57,0.238h-1.188
				c-0.223,0-0.412-0.08-0.567-0.238S64.789,129.532,64.789,129.308z"/>
			<path fill="#331842" d="M82.796,117.621c1.708,0,3.169,0.612,4.385,1.836c0.61,0.615,1.067,1.285,1.37,2.012
				s0.454,1.527,0.454,2.402c0,1.724-0.608,3.198-1.824,4.422c-1.211,1.219-2.672,1.828-4.385,1.828h-2.391
				c-0.114,0-0.221-0.022-0.322-0.066c-0.101-0.044-0.188-0.103-0.264-0.176s-0.135-0.16-0.179-0.262s-0.065-0.209-0.065-0.324
				v-10.844c0-0.115,0.021-0.223,0.065-0.324s0.104-0.189,0.179-0.262s0.163-0.131,0.264-0.176c0.102-0.044,0.208-0.066,0.322-0.066
				H82.796z M82.796,128.464c1.257,0,2.331-0.448,3.221-1.344c0.45-0.453,0.787-0.947,1.009-1.48
				c0.222-0.534,0.333-1.124,0.333-1.77c0-1.26-0.447-2.341-1.343-3.242c-0.895-0.901-1.969-1.352-3.221-1.352h-1.568v9.188H82.796z
				"/>
			<path fill="#331842" d="M99.954,127.66c0.233,0,0.426,0.077,0.578,0.23c0.153,0.154,0.229,0.348,0.229,0.582
				c0,0.229-0.078,0.424-0.233,0.586c-0.802,0.708-1.749,1.062-2.84,1.062c-1.201,0-2.225-0.427-3.074-1.281
				s-1.272-1.885-1.272-3.094s0.424-2.24,1.272-3.094s1.873-1.281,3.074-1.281c1.19,0,2.214,0.427,3.074,1.281
				c0.424,0.422,0.742,0.892,0.954,1.41c0.212,0.518,0.318,1.08,0.318,1.684c0,0.234-0.079,0.428-0.236,0.582
				c-0.158,0.154-0.351,0.23-0.579,0.23h-6.147c0.088,0.287,0.218,0.548,0.388,0.785s0.371,0.44,0.602,0.609
				c0.23,0.169,0.484,0.301,0.76,0.395c0.277,0.094,0.565,0.141,0.866,0.141c0.341,0,0.655-0.052,0.939-0.156
				c0.285-0.104,0.549-0.26,0.792-0.469C99.574,127.732,99.752,127.665,99.954,127.66z M100.303,124.933
				c-0.088-0.287-0.219-0.548-0.392-0.785s-0.375-0.44-0.605-0.609s-0.484-0.301-0.76-0.395c-0.277-0.094-0.563-0.141-0.858-0.141
				s-0.582,0.047-0.862,0.141c-0.279,0.094-0.535,0.225-0.768,0.395s-0.435,0.373-0.605,0.609c-0.17,0.237-0.297,0.499-0.38,0.785
				H100.303z"/>
			<path fill="#331842" d="M108.045,122.183v0.156c0.389-0.312,0.81-0.552,1.266-0.719c0.455-0.167,0.941-0.25,1.459-0.25
				c0.228,0,0.472,0.016,0.733,0.047c0.261,0.031,0.502,0.087,0.722,0.168s0.402,0.191,0.547,0.332s0.217,0.323,0.217,0.547
				c0,0.115-0.022,0.221-0.066,0.32c-0.044,0.099-0.102,0.186-0.175,0.262s-0.158,0.134-0.256,0.176
				c-0.098,0.042-0.204,0.062-0.318,0.062c-0.098,0-0.212-0.029-0.341-0.086c-0.326-0.13-0.681-0.195-1.063-0.195
				c-0.378,0-0.732,0.072-1.063,0.215s-0.62,0.338-0.865,0.586c-0.246,0.248-0.44,0.538-0.582,0.871
				c-0.143,0.333-0.214,0.69-0.214,1.07v3.562c0,0.224-0.079,0.416-0.236,0.574c-0.158,0.159-0.348,0.238-0.57,0.238
				c-0.228,0-0.421-0.08-0.578-0.238c-0.158-0.159-0.237-0.35-0.237-0.574v-7.125c0-0.224,0.079-0.416,0.237-0.574
				c0.157-0.159,0.35-0.238,0.578-0.238c0.222,0,0.412,0.08,0.57,0.238C107.967,121.768,108.045,121.959,108.045,122.183z"/>
			<path fill="#331842" d="M123.697,127.66c0.233,0,0.425,0.077,0.578,0.23s0.229,0.348,0.229,0.582
				c0,0.229-0.078,0.424-0.233,0.586c-0.802,0.708-1.749,1.062-2.84,1.062c-1.201,0-2.226-0.427-3.074-1.281
				c-0.849-0.854-1.273-1.885-1.273-3.094s0.424-2.24,1.273-3.094c0.848-0.854,1.873-1.281,3.074-1.281
				c1.189,0,2.214,0.427,3.073,1.281c0.424,0.422,0.742,0.892,0.955,1.41s0.318,1.08,0.318,1.684c0,0.234-0.079,0.428-0.236,0.582
				c-0.158,0.154-0.351,0.23-0.578,0.23h-6.147c0.088,0.287,0.218,0.548,0.389,0.785c0.17,0.237,0.371,0.44,0.602,0.609
				c0.23,0.169,0.483,0.301,0.76,0.395s0.565,0.141,0.866,0.141c0.341,0,0.654-0.052,0.938-0.156
				c0.285-0.104,0.549-0.26,0.792-0.469C123.317,127.732,123.496,127.665,123.697,127.66z M124.046,124.933
				c-0.088-0.287-0.219-0.548-0.392-0.785c-0.174-0.237-0.375-0.44-0.605-0.609c-0.23-0.169-0.484-0.301-0.761-0.395
				c-0.277-0.094-0.562-0.141-0.857-0.141s-0.582,0.047-0.862,0.141c-0.279,0.094-0.536,0.225-0.768,0.395
				c-0.233,0.169-0.435,0.373-0.605,0.609s-0.298,0.499-0.381,0.785H124.046z"/>
			<path fill="#331842" d="M136.811,127.644c0.232,0,0.425,0.077,0.578,0.23c0.152,0.154,0.229,0.348,0.229,0.582
				c0,0.229-0.085,0.43-0.256,0.602c-0.802,0.708-1.746,1.062-2.833,1.062c-1.2,0-2.225-0.427-3.073-1.281s-1.273-1.885-1.273-3.094
				s0.424-2.24,1.273-3.094s1.873-1.281,3.073-1.281c1.092,0,2.036,0.354,2.833,1.062c0.187,0.167,0.279,0.373,0.279,0.617
				c0,0.234-0.076,0.43-0.229,0.586s-0.345,0.234-0.578,0.234c-0.197,0-0.373-0.062-0.528-0.188
				c-0.264-0.224-0.541-0.393-0.83-0.508c-0.29-0.115-0.605-0.172-0.947-0.172c-0.378,0-0.732,0.072-1.063,0.215
				s-0.621,0.338-0.869,0.586c-0.248,0.248-0.443,0.538-0.586,0.871s-0.213,0.69-0.213,1.07s0.071,0.737,0.213,1.07
				s0.338,0.624,0.586,0.871c0.249,0.248,0.538,0.443,0.869,0.586s0.686,0.215,1.063,0.215c0.342,0,0.657-0.056,0.947-0.168
				c0.289-0.112,0.563-0.28,0.822-0.504C136.443,127.707,136.614,127.649,136.811,127.644z"/>
			<path fill="#331842" d="M143.684,129.3c0,0.229-0.079,0.423-0.237,0.582s-0.351,0.238-0.578,0.238
				c-0.223,0-0.413-0.08-0.571-0.238c-0.158-0.159-0.236-0.353-0.236-0.582v-10.859c0-0.229,0.079-0.423,0.236-0.582
				c0.158-0.159,0.348-0.238,0.571-0.238c0.222,0,0.413,0.08,0.57,0.238s0.239,0.353,0.245,0.582v3.75
				c0.688-0.537,1.498-0.805,2.429-0.805c0.543,0,1.059,0.107,1.548,0.32s0.92,0.504,1.292,0.871
				c0.373,0.367,0.668,0.799,0.885,1.297c0.218,0.498,0.326,1.027,0.326,1.59v3.836c-0.005,0.229-0.087,0.423-0.244,0.582
				c-0.158,0.159-0.348,0.238-0.57,0.238c-0.223,0-0.413-0.08-0.571-0.238s-0.237-0.353-0.237-0.582v-3.836
				c0-0.333-0.064-0.648-0.194-0.945s-0.304-0.556-0.524-0.777s-0.478-0.397-0.772-0.527s-0.608-0.195-0.939-0.195
				c-0.336,0-0.651,0.064-0.943,0.191c-0.292,0.127-0.55,0.303-0.772,0.527s-0.397,0.484-0.524,0.781
				c-0.126,0.297-0.19,0.612-0.19,0.945V129.3z"/>
			<path fill="#331842" d="M163.255,125.746c0,1.219-0.424,2.25-1.273,3.094c-0.858,0.854-1.883,1.281-3.073,1.281
				c-1.2,0-2.225-0.427-3.073-1.281c-0.849-0.854-1.273-1.885-1.273-3.094s0.425-2.24,1.273-3.094
				c0.848-0.854,1.873-1.281,3.073-1.281c1.19,0,2.215,0.427,3.073,1.281c0.424,0.427,0.741,0.898,0.951,1.414
				C163.143,124.582,163.25,125.142,163.255,125.746z M158.909,123.003c-0.383,0-0.74,0.073-1.071,0.219s-0.618,0.342-0.861,0.59
				s-0.436,0.538-0.578,0.871c-0.143,0.333-0.214,0.688-0.214,1.062s0.071,0.729,0.214,1.062c0.142,0.333,0.335,0.624,0.578,0.871
				s0.53,0.444,0.861,0.59s0.688,0.219,1.071,0.219c0.378,0,0.732-0.073,1.063-0.219s0.619-0.344,0.865-0.594
				c0.246-0.25,0.439-0.541,0.582-0.871s0.213-0.684,0.213-1.059s-0.071-0.728-0.213-1.059s-0.336-0.621-0.582-0.871
				c-0.246-0.25-0.534-0.448-0.865-0.594S159.287,123.003,158.909,123.003z"/>
			<path fill="#331842" d="M27.298,147.292c0,0.229-0.08,0.424-0.241,0.586s-0.354,0.242-0.582,0.242s-0.421-0.081-0.582-0.242
				s-0.241-0.357-0.241-0.586v-10.844c0-0.229,0.08-0.424,0.241-0.586s0.354-0.242,0.582-0.242s0.421,0.081,0.582,0.242
				s0.241,0.357,0.241,0.586V147.292z"/>
			<path fill="#331842" d="M33.66,140.175c0.688-0.537,1.498-0.805,2.429-0.805c0.543,0,1.059,0.107,1.548,0.32
				s0.92,0.504,1.292,0.871c0.373,0.367,0.668,0.799,0.885,1.297c0.218,0.498,0.326,1.027,0.326,1.59v3.852
				c0,0.229-0.079,0.423-0.236,0.582c-0.158,0.159-0.349,0.238-0.571,0.238c-0.228,0-0.42-0.08-0.578-0.238
				s-0.237-0.353-0.237-0.582v-3.852c0-0.333-0.064-0.648-0.194-0.945s-0.304-0.556-0.524-0.777s-0.478-0.397-0.772-0.527
				s-0.608-0.195-0.939-0.195c-0.336,0-0.651,0.064-0.943,0.191c-0.292,0.127-0.55,0.303-0.772,0.527s-0.397,0.484-0.524,0.781
				c-0.126,0.297-0.19,0.612-0.19,0.945v3.852c0,0.229-0.079,0.423-0.237,0.582s-0.348,0.238-0.571,0.238
				c-0.228,0-0.42-0.08-0.578-0.238c-0.158-0.159-0.236-0.353-0.236-0.582v-7.109c0-0.224,0.079-0.417,0.236-0.578
				c0.158-0.162,0.351-0.242,0.578-0.242c0.223,0,0.413,0.081,0.571,0.242S33.66,139.962,33.66,140.175z"/>
			<path fill="#331842" d="M45.298,139.371h0.365v-2.938c0-0.224,0.079-0.416,0.236-0.574c0.158-0.159,0.351-0.238,0.578-0.238
				c0.223,0,0.413,0.08,0.57,0.238c0.158,0.159,0.237,0.35,0.237,0.574v2.938h0.97c0.223,0,0.412,0.08,0.567,0.238
				c0.155,0.159,0.233,0.35,0.233,0.574c0,0.229-0.078,0.423-0.233,0.582c-0.155,0.159-0.344,0.238-0.567,0.238h-0.97v3.93
				c0,1.037,0.517,1.555,1.552,1.555c0.223,0,0.412,0.08,0.567,0.238s0.233,0.35,0.233,0.574c0,0.229-0.078,0.423-0.233,0.582
				s-0.344,0.238-0.567,0.238c-2.116,0-3.174-1.062-3.174-3.188v-3.93h-0.365c-0.217,0-0.405-0.08-0.562-0.238
				c-0.158-0.159-0.237-0.353-0.237-0.582c0-0.224,0.079-0.416,0.237-0.574C44.894,139.45,45.082,139.371,45.298,139.371z"/>
			<path fill="#331842" d="M60.539,145.66c0.232,0,0.426,0.077,0.578,0.23s0.229,0.348,0.229,0.582c0,0.229-0.078,0.424-0.233,0.586
				c-0.802,0.708-1.749,1.062-2.841,1.062c-1.2,0-2.225-0.427-3.073-1.281s-1.273-1.885-1.273-3.094s0.424-2.24,1.273-3.094
				s1.873-1.281,3.073-1.281c1.19,0,2.215,0.427,3.074,1.281c0.424,0.422,0.743,0.892,0.955,1.41s0.318,1.08,0.318,1.684
				c0,0.234-0.079,0.428-0.237,0.582s-0.351,0.23-0.579,0.23h-6.146c0.088,0.287,0.217,0.548,0.388,0.785
				c0.171,0.237,0.371,0.44,0.602,0.609s0.484,0.301,0.761,0.395s0.565,0.141,0.865,0.141c0.342,0,0.655-0.052,0.939-0.156
				c0.284-0.104,0.548-0.26,0.792-0.469C60.158,145.732,60.336,145.665,60.539,145.66z M60.888,142.933
				c-0.088-0.287-0.218-0.548-0.392-0.785c-0.173-0.237-0.375-0.44-0.605-0.609c-0.23-0.169-0.483-0.301-0.76-0.395
				s-0.563-0.141-0.858-0.141s-0.582,0.047-0.861,0.141s-0.535,0.225-0.769,0.395c-0.232,0.169-0.435,0.373-0.605,0.609
				c-0.17,0.237-0.297,0.499-0.38,0.785H60.888z"/>
			<path fill="#331842" d="M68.63,140.183v0.156c0.388-0.312,0.81-0.552,1.265-0.719s0.942-0.25,1.459-0.25
				c0.228,0,0.472,0.016,0.733,0.047c0.261,0.031,0.501,0.087,0.722,0.168c0.22,0.081,0.402,0.191,0.547,0.332
				c0.145,0.141,0.218,0.323,0.218,0.547c0,0.115-0.022,0.221-0.066,0.32s-0.102,0.186-0.175,0.262
				c-0.072,0.076-0.157,0.134-0.256,0.176s-0.204,0.062-0.318,0.062c-0.098,0-0.212-0.029-0.341-0.086
				c-0.326-0.13-0.68-0.195-1.063-0.195c-0.378,0-0.732,0.072-1.063,0.215s-0.62,0.338-0.865,0.586
				c-0.246,0.248-0.44,0.538-0.583,0.871s-0.213,0.69-0.213,1.07v3.562c0,0.224-0.079,0.416-0.236,0.574
				c-0.158,0.159-0.349,0.238-0.571,0.238c-0.228,0-0.42-0.08-0.578-0.238s-0.237-0.35-0.237-0.574v-7.125
				c0-0.224,0.079-0.416,0.237-0.574s0.35-0.238,0.578-0.238c0.222,0,0.413,0.08,0.571,0.238
				C68.551,139.768,68.63,139.959,68.63,140.183z"/>
			<path fill="#331842" d="M79.284,140.175c0.688-0.537,1.498-0.805,2.429-0.805c0.543,0,1.059,0.107,1.548,0.32
				s0.92,0.504,1.292,0.871c0.373,0.367,0.668,0.799,0.885,1.297c0.218,0.498,0.326,1.027,0.326,1.59v3.852
				c0,0.229-0.079,0.423-0.236,0.582c-0.158,0.159-0.349,0.238-0.571,0.238c-0.228,0-0.42-0.08-0.578-0.238
				s-0.237-0.353-0.237-0.582v-3.852c0-0.333-0.064-0.648-0.194-0.945s-0.304-0.556-0.524-0.777s-0.478-0.397-0.772-0.527
				s-0.608-0.195-0.939-0.195c-0.336,0-0.651,0.064-0.943,0.191c-0.292,0.127-0.55,0.303-0.772,0.527s-0.397,0.484-0.524,0.781
				c-0.126,0.297-0.19,0.612-0.19,0.945v3.852c0,0.229-0.079,0.423-0.237,0.582s-0.348,0.238-0.571,0.238
				c-0.228,0-0.42-0.08-0.578-0.238c-0.158-0.159-0.236-0.353-0.236-0.582v-7.109c0-0.224,0.079-0.417,0.236-0.578
				c0.158-0.162,0.351-0.242,0.578-0.242c0.223,0,0.413,0.081,0.571,0.242S79.284,139.962,79.284,140.175z"/>
			<path fill="#331842" d="M97.232,147.308v-0.156c-0.388,0.312-0.81,0.552-1.265,0.719s-0.941,0.25-1.459,0.25
				c-1.2,0-2.225-0.427-3.073-1.281c-0.849-0.854-1.273-1.885-1.273-3.094s0.425-2.24,1.273-3.094
				c0.848-0.854,1.873-1.281,3.073-1.281c1.19,0,2.215,0.427,3.073,1.281c0.849,0.854,1.273,1.885,1.273,3.094v3.562
				c0,0.224-0.079,0.416-0.237,0.574c-0.158,0.159-0.348,0.238-0.57,0.238c-0.228,0-0.42-0.08-0.578-0.238
				C97.311,147.724,97.232,147.532,97.232,147.308z M94.508,141.003c-0.383,0-0.74,0.073-1.071,0.219s-0.618,0.342-0.861,0.59
				s-0.436,0.538-0.578,0.871c-0.143,0.333-0.214,0.688-0.214,1.062s0.071,0.729,0.214,1.062c0.142,0.333,0.335,0.624,0.578,0.871
				s0.53,0.444,0.861,0.59s0.688,0.219,1.071,0.219c0.378,0,0.732-0.073,1.063-0.219s0.619-0.344,0.865-0.594
				c0.246-0.25,0.439-0.541,0.582-0.871s0.213-0.684,0.213-1.059s-0.071-0.728-0.213-1.059s-0.336-0.621-0.582-0.871
				c-0.246-0.25-0.534-0.448-0.865-0.594S94.886,141.003,94.508,141.003z"/>
			<path fill="#331842" d="M109.888,145.644c0.232,0,0.426,0.077,0.578,0.23s0.229,0.348,0.229,0.582
				c0,0.229-0.085,0.43-0.256,0.602c-0.802,0.708-1.746,1.062-2.833,1.062c-1.2,0-2.225-0.427-3.073-1.281s-1.272-1.885-1.272-3.094
				s0.424-2.24,1.272-3.094s1.873-1.281,3.073-1.281c1.092,0,2.036,0.354,2.833,1.062c0.187,0.167,0.279,0.373,0.279,0.617
				c0,0.234-0.076,0.43-0.229,0.586c-0.153,0.156-0.346,0.234-0.578,0.234c-0.197,0-0.373-0.062-0.528-0.188
				c-0.264-0.224-0.541-0.393-0.83-0.508c-0.29-0.115-0.605-0.172-0.947-0.172c-0.377,0-0.732,0.072-1.063,0.215
				c-0.332,0.143-0.621,0.338-0.87,0.586c-0.248,0.248-0.443,0.538-0.586,0.871c-0.142,0.333-0.213,0.69-0.213,1.07
				s0.071,0.737,0.213,1.07c0.143,0.333,0.338,0.624,0.586,0.871c0.249,0.248,0.538,0.443,0.87,0.586
				c0.331,0.143,0.686,0.215,1.063,0.215c0.342,0,0.657-0.056,0.947-0.168c0.29-0.112,0.563-0.28,0.822-0.504
				C109.521,145.707,109.691,145.649,109.888,145.644z"/>
			<path fill="#331842" d="M117.344,137.816c0,0.266-0.093,0.492-0.28,0.68c-0.186,0.188-0.411,0.281-0.675,0.281
				s-0.489-0.094-0.675-0.281s-0.28-0.414-0.28-0.68s0.094-0.492,0.28-0.68s0.412-0.281,0.675-0.281s0.489,0.094,0.675,0.281
				C117.25,137.324,117.344,137.55,117.344,137.816z M115.582,147.3v-7.109c0-0.229,0.079-0.423,0.237-0.582
				c0.157-0.159,0.348-0.238,0.57-0.238s0.413,0.08,0.57,0.238c0.158,0.159,0.239,0.353,0.245,0.582v7.109
				c-0.005,0.229-0.086,0.423-0.245,0.582c-0.158,0.159-0.348,0.238-0.57,0.238s-0.413-0.08-0.57-0.238
				C115.661,147.724,115.582,147.529,115.582,147.3z"/>
			<path fill="#331842" d="M130.744,143.746c0,1.219-0.424,2.25-1.273,3.094c-0.858,0.854-1.883,1.281-3.073,1.281
				c-1.2,0-2.225-0.427-3.073-1.281c-0.849-0.854-1.273-1.885-1.273-3.094s0.425-2.24,1.273-3.094
				c0.848-0.854,1.873-1.281,3.073-1.281c1.19,0,2.215,0.427,3.073,1.281c0.424,0.427,0.741,0.898,0.951,1.414
				C130.632,142.582,130.739,143.142,130.744,143.746z M126.398,141.003c-0.383,0-0.74,0.073-1.071,0.219s-0.618,0.342-0.861,0.59
				s-0.436,0.538-0.578,0.871c-0.143,0.333-0.214,0.688-0.214,1.062s0.071,0.729,0.214,1.062c0.142,0.333,0.335,0.624,0.578,0.871
				s0.53,0.444,0.861,0.59s0.688,0.219,1.071,0.219c0.378,0,0.732-0.073,1.063-0.219s0.619-0.344,0.865-0.594
				c0.246-0.25,0.439-0.541,0.582-0.871s0.213-0.684,0.213-1.059s-0.071-0.728-0.213-1.059s-0.336-0.621-0.582-0.871
				c-0.246-0.25-0.534-0.448-0.865-0.594S126.776,141.003,126.398,141.003z"/>
			<path fill="#331842" d="M136.78,140.175c0.688-0.537,1.498-0.805,2.429-0.805c0.543,0,1.06,0.107,1.549,0.32
				c0.489,0.213,0.919,0.504,1.292,0.871s0.667,0.799,0.885,1.297c0.218,0.498,0.326,1.027,0.326,1.59v3.852
				c0,0.229-0.079,0.423-0.237,0.582s-0.348,0.238-0.571,0.238c-0.228,0-0.42-0.08-0.578-0.238
				c-0.158-0.159-0.236-0.353-0.236-0.582v-3.852c0-0.333-0.065-0.648-0.194-0.945c-0.129-0.297-0.304-0.556-0.523-0.777
				c-0.22-0.221-0.478-0.397-0.772-0.527s-0.608-0.195-0.939-0.195c-0.336,0-0.65,0.064-0.943,0.191s-0.55,0.303-0.772,0.527
				c-0.223,0.224-0.397,0.484-0.524,0.781c-0.126,0.297-0.189,0.612-0.189,0.945v3.852c0,0.229-0.079,0.423-0.237,0.582
				c-0.158,0.159-0.348,0.238-0.57,0.238c-0.228,0-0.42-0.08-0.578-0.238c-0.158-0.159-0.237-0.353-0.237-0.582v-7.109
				c0-0.224,0.079-0.417,0.237-0.578c0.158-0.162,0.351-0.242,0.578-0.242c0.223,0,0.413,0.081,0.57,0.242
				C136.701,139.774,136.78,139.962,136.78,140.175z"/>
			<path fill="#331842" d="M154.728,147.308v-0.156c-0.388,0.312-0.81,0.552-1.265,0.719c-0.456,0.167-0.942,0.25-1.459,0.25
				c-1.201,0-2.226-0.427-3.074-1.281c-0.849-0.854-1.273-1.885-1.273-3.094s0.424-2.24,1.273-3.094
				c0.848-0.854,1.873-1.281,3.074-1.281c1.189,0,2.214,0.427,3.073,1.281c0.849,0.854,1.272,1.885,1.272,3.094v3.562
				c0,0.224-0.079,0.416-0.236,0.574c-0.158,0.159-0.348,0.238-0.57,0.238c-0.228,0-0.421-0.08-0.578-0.238
				C154.807,147.724,154.728,147.532,154.728,147.308z M152.004,141.003c-0.383,0-0.74,0.073-1.071,0.219s-0.618,0.342-0.861,0.59
				s-0.437,0.538-0.578,0.871c-0.143,0.333-0.214,0.688-0.214,1.062s0.071,0.729,0.214,1.062c0.142,0.333,0.335,0.624,0.578,0.871
				s0.53,0.444,0.861,0.59s0.688,0.219,1.071,0.219c0.377,0,0.732-0.073,1.063-0.219s0.62-0.344,0.866-0.594
				c0.245-0.25,0.439-0.541,0.582-0.871c0.142-0.331,0.213-0.684,0.213-1.059s-0.071-0.728-0.213-1.059
				c-0.143-0.331-0.337-0.621-0.582-0.871c-0.246-0.25-0.535-0.448-0.866-0.594S152.382,141.003,152.004,141.003z"/>
			<path fill="#331842" d="M160.694,147.308v-10.867c0-0.229,0.076-0.423,0.229-0.582c0.153-0.159,0.346-0.238,0.579-0.238
				s0.425,0.08,0.578,0.238s0.229,0.353,0.229,0.582v10.047h0.373c0.222,0,0.413,0.08,0.57,0.238s0.237,0.353,0.237,0.582
				c0,0.224-0.079,0.416-0.237,0.574s-0.348,0.238-0.57,0.238h-1.188c-0.223,0-0.412-0.08-0.567-0.238
				S160.694,147.532,160.694,147.308z"/>
			<path fill="#331842" d="M28.657,165.292c0,0.229-0.08,0.424-0.241,0.586s-0.354,0.242-0.582,0.242
				c-0.228,0-0.422-0.081-0.582-0.242c-0.161-0.162-0.241-0.357-0.241-0.586v-4.594h-5.534v4.594c0,0.229-0.081,0.424-0.241,0.586
				s-0.354,0.242-0.582,0.242s-0.422-0.081-0.582-0.242c-0.161-0.162-0.241-0.357-0.241-0.586v-10.844
				c0-0.229,0.08-0.424,0.241-0.586c0.16-0.162,0.354-0.242,0.582-0.242s0.422,0.081,0.582,0.242s0.241,0.357,0.241,0.586v4.594
				h5.534v-4.594c0-0.229,0.08-0.424,0.241-0.586c0.16-0.162,0.354-0.242,0.582-0.242c0.228,0,0.421,0.081,0.582,0.242
				s0.241,0.357,0.241,0.586V165.292z"/>
			<path fill="#331842" d="M40.257,166.121c-0.233,0-0.424-0.078-0.575-0.234c-0.15-0.156-0.228-0.346-0.232-0.57
				c-0.357,0.281-0.735,0.486-1.133,0.613s-0.831,0.191-1.296,0.191c-0.554,0-1.076-0.108-1.567-0.324
				c-0.492-0.216-0.921-0.509-1.289-0.879s-0.659-0.802-0.873-1.297c-0.215-0.495-0.322-1.021-0.322-1.578v-3.859
				c0-0.224,0.079-0.416,0.237-0.574c0.158-0.159,0.351-0.238,0.578-0.238c0.223,0,0.413,0.08,0.57,0.238
				c0.158,0.159,0.237,0.35,0.237,0.574v3.859c0,0.338,0.063,0.656,0.189,0.953c0.127,0.297,0.3,0.556,0.521,0.777
				c0.22,0.221,0.478,0.396,0.772,0.523s0.61,0.191,0.946,0.191c0.331,0,0.645-0.064,0.939-0.191s0.554-0.303,0.776-0.527
				c0.222-0.224,0.396-0.483,0.523-0.777s0.19-0.611,0.19-0.949v-3.859c0-0.224,0.079-0.416,0.236-0.574
				c0.158-0.159,0.351-0.238,0.578-0.238c0.223,0,0.413,0.08,0.571,0.238s0.237,0.35,0.237,0.574v7.125
				c0,0.224-0.079,0.416-0.237,0.574S40.484,166.121,40.257,166.121z"/>
			<path fill="#331842" d="M57.74,165.3c0,0.229-0.079,0.423-0.236,0.582c-0.158,0.159-0.348,0.238-0.57,0.238
				c-0.228,0-0.419-0.08-0.575-0.238s-0.233-0.353-0.233-0.582v-4.445c0-0.25-0.048-0.487-0.144-0.711s-0.227-0.42-0.392-0.59
				c-0.166-0.169-0.361-0.303-0.586-0.402c-0.226-0.099-0.467-0.148-0.726-0.148c-0.253,0-0.492,0.049-0.714,0.148
				c-0.223,0.099-0.418,0.232-0.586,0.398c-0.168,0.167-0.3,0.362-0.396,0.586s-0.144,0.463-0.144,0.719v4.445
				c0,0.229-0.079,0.423-0.237,0.582s-0.348,0.238-0.57,0.238c-0.228,0-0.42-0.08-0.579-0.238c-0.157-0.159-0.236-0.353-0.236-0.582
				v-4.445c0-0.255-0.049-0.495-0.147-0.719c-0.099-0.224-0.23-0.419-0.396-0.586s-0.36-0.299-0.582-0.398s-0.46-0.148-0.714-0.148
				c-0.253,0-0.491,0.048-0.714,0.145s-0.418,0.229-0.586,0.398s-0.3,0.366-0.396,0.59s-0.144,0.463-0.144,0.719v4.445
				c0,0.229-0.079,0.423-0.237,0.582s-0.348,0.238-0.571,0.238c-0.228,0-0.42-0.08-0.578-0.238
				c-0.158-0.159-0.236-0.353-0.236-0.582v-7.117c0-0.224,0.079-0.416,0.236-0.574c0.158-0.159,0.348-0.238,0.57-0.238
				c0.182,0,0.342,0.051,0.481,0.152s0.235,0.236,0.287,0.402c0.554-0.37,1.183-0.555,1.886-0.555c0.518,0,1.004,0.103,1.459,0.309
				s0.854,0.517,1.195,0.934c0.719-0.828,1.601-1.242,2.646-1.242c0.471,0,0.917,0.092,1.339,0.277s0.789,0.435,1.102,0.75
				s0.562,0.685,0.745,1.109s0.275,0.874,0.275,1.348V165.3z"/>
			<path fill="#331842" d="M69.378,165.308v-0.156c-0.388,0.312-0.81,0.552-1.265,0.719c-0.456,0.167-0.942,0.25-1.459,0.25
				c-1.201,0-2.226-0.427-3.074-1.281c-0.849-0.854-1.273-1.885-1.273-3.094s0.424-2.24,1.273-3.094
				c0.848-0.854,1.873-1.281,3.074-1.281c1.189,0,2.214,0.427,3.073,1.281c0.849,0.854,1.272,1.885,1.272,3.094v3.562
				c0,0.224-0.079,0.416-0.236,0.574c-0.158,0.159-0.348,0.238-0.57,0.238c-0.228,0-0.421-0.08-0.578-0.238
				C69.458,165.724,69.378,165.532,69.378,165.308z M66.655,159.003c-0.383,0-0.74,0.073-1.071,0.219s-0.618,0.342-0.861,0.59
				s-0.437,0.538-0.578,0.871c-0.143,0.333-0.214,0.688-0.214,1.062s0.071,0.729,0.214,1.062c0.142,0.333,0.335,0.624,0.578,0.871
				s0.53,0.444,0.861,0.59s0.688,0.219,1.071,0.219c0.377,0,0.732-0.073,1.063-0.219s0.62-0.344,0.866-0.594
				c0.245-0.25,0.439-0.541,0.582-0.871c0.142-0.331,0.213-0.684,0.213-1.059s-0.071-0.728-0.213-1.059
				c-0.143-0.331-0.337-0.621-0.582-0.871c-0.246-0.25-0.535-0.448-0.866-0.594S67.032,159.003,66.655,159.003z"/>
			<path fill="#331842" d="M77.036,158.175c0.688-0.537,1.498-0.805,2.429-0.805c0.543,0,1.06,0.107,1.548,0.32
				s0.919,0.504,1.292,0.871c0.372,0.367,0.667,0.799,0.885,1.297c0.217,0.498,0.326,1.027,0.326,1.59v3.852
				c0,0.229-0.079,0.423-0.237,0.582c-0.158,0.159-0.348,0.238-0.57,0.238c-0.228,0-0.42-0.08-0.578-0.238
				c-0.158-0.159-0.237-0.353-0.237-0.582v-3.852c0-0.333-0.065-0.648-0.194-0.945c-0.129-0.297-0.304-0.556-0.524-0.777
				c-0.22-0.221-0.477-0.397-0.772-0.527s-0.608-0.195-0.939-0.195c-0.336,0-0.65,0.064-0.943,0.191
				c-0.292,0.127-0.55,0.303-0.772,0.527s-0.397,0.484-0.524,0.781s-0.19,0.612-0.19,0.945v3.852c0,0.229-0.079,0.423-0.237,0.582
				c-0.158,0.159-0.348,0.238-0.57,0.238c-0.228,0-0.421-0.08-0.578-0.238c-0.158-0.159-0.237-0.353-0.237-0.582v-7.109
				c0-0.224,0.079-0.417,0.237-0.578c0.157-0.162,0.351-0.242,0.578-0.242c0.222,0,0.412,0.081,0.57,0.242
				C76.957,157.774,77.036,157.962,77.036,158.175z"/>
			<path fill="#331842" d="M90.111,155.816c0,0.266-0.093,0.492-0.279,0.68c-0.187,0.188-0.411,0.281-0.675,0.281
				s-0.489-0.094-0.675-0.281s-0.279-0.414-0.279-0.68s0.093-0.492,0.279-0.68s0.411-0.281,0.675-0.281s0.489,0.094,0.675,0.281
				C90.018,155.324,90.111,155.55,90.111,155.816z M88.349,165.3v-7.109c0-0.229,0.079-0.423,0.236-0.582
				c0.158-0.159,0.348-0.238,0.571-0.238c0.222,0,0.413,0.08,0.57,0.238s0.239,0.353,0.245,0.582v7.109
				c-0.005,0.229-0.087,0.423-0.245,0.582s-0.348,0.238-0.57,0.238c-0.223,0-0.413-0.08-0.571-0.238
				C88.428,165.724,88.349,165.529,88.349,165.3z"/>
			<path fill="#331842" d="M95.58,157.371h0.365v-2.938c0-0.224,0.079-0.416,0.237-0.574c0.158-0.159,0.351-0.238,0.578-0.238
				c0.223,0,0.413,0.08,0.57,0.238c0.158,0.159,0.237,0.35,0.237,0.574v2.938h0.97c0.223,0,0.411,0.08,0.566,0.238
				s0.233,0.35,0.233,0.574c0,0.229-0.078,0.423-0.233,0.582s-0.344,0.238-0.566,0.238h-0.97v3.93c0,1.037,0.517,1.555,1.552,1.555
				c0.223,0,0.411,0.08,0.566,0.238s0.233,0.35,0.233,0.574c0,0.229-0.078,0.423-0.233,0.582s-0.344,0.238-0.566,0.238
				c-2.116,0-3.174-1.062-3.174-3.188v-3.93H95.58c-0.217,0-0.405-0.08-0.562-0.238c-0.158-0.159-0.237-0.353-0.237-0.582
				c0-0.224,0.079-0.416,0.237-0.574C95.174,157.45,95.362,157.371,95.58,157.371z"/>
			<path fill="#331842" d="M111.277,165.308v-0.156c-0.388,0.312-0.81,0.552-1.265,0.719s-0.941,0.25-1.459,0.25
				c-1.2,0-2.225-0.427-3.073-1.281c-0.849-0.854-1.273-1.885-1.273-3.094s0.425-2.24,1.273-3.094
				c0.848-0.854,1.873-1.281,3.073-1.281c1.19,0,2.215,0.427,3.073,1.281c0.849,0.854,1.273,1.885,1.273,3.094v3.562
				c0,0.224-0.079,0.416-0.237,0.574c-0.158,0.159-0.348,0.238-0.57,0.238c-0.228,0-0.42-0.08-0.578-0.238
				C111.356,165.724,111.277,165.532,111.277,165.308z M108.553,159.003c-0.383,0-0.74,0.073-1.071,0.219s-0.618,0.342-0.861,0.59
				s-0.436,0.538-0.578,0.871c-0.143,0.333-0.214,0.688-0.214,1.062s0.071,0.729,0.214,1.062c0.142,0.333,0.335,0.624,0.578,0.871
				s0.53,0.444,0.861,0.59s0.688,0.219,1.071,0.219c0.378,0,0.732-0.073,1.063-0.219s0.619-0.344,0.865-0.594
				c0.246-0.25,0.439-0.541,0.582-0.871s0.213-0.684,0.213-1.059s-0.071-0.728-0.213-1.059s-0.336-0.621-0.582-0.871
				c-0.246-0.25-0.534-0.448-0.865-0.594S108.931,159.003,108.553,159.003z"/>
			<path fill="#331842" d="M118.912,158.183v0.156c0.388-0.312,0.81-0.552,1.265-0.719c0.456-0.167,0.942-0.25,1.459-0.25
				c0.228,0,0.472,0.016,0.733,0.047s0.501,0.087,0.722,0.168s0.402,0.191,0.547,0.332c0.145,0.141,0.217,0.323,0.217,0.547
				c0,0.115-0.022,0.221-0.066,0.32s-0.103,0.186-0.175,0.262s-0.158,0.134-0.256,0.176c-0.099,0.042-0.205,0.062-0.318,0.062
				c-0.099,0-0.212-0.029-0.342-0.086c-0.326-0.13-0.68-0.195-1.063-0.195c-0.378,0-0.732,0.072-1.063,0.215
				s-0.62,0.338-0.865,0.586s-0.44,0.538-0.583,0.871c-0.142,0.333-0.213,0.69-0.213,1.07v3.562c0,0.224-0.079,0.416-0.237,0.574
				s-0.348,0.238-0.571,0.238c-0.228,0-0.42-0.08-0.578-0.238c-0.158-0.159-0.236-0.35-0.236-0.574v-7.125
				c0-0.224,0.079-0.416,0.236-0.574c0.158-0.159,0.351-0.238,0.578-0.238c0.223,0,0.413,0.08,0.571,0.238
				S118.912,157.959,118.912,158.183z"/>
			<path fill="#331842" d="M130.147,155.816c0,0.266-0.093,0.492-0.279,0.68c-0.187,0.188-0.411,0.281-0.675,0.281
				s-0.489-0.094-0.675-0.281s-0.279-0.414-0.279-0.68s0.093-0.492,0.279-0.68s0.411-0.281,0.675-0.281s0.489,0.094,0.675,0.281
				C130.054,155.324,130.147,155.55,130.147,155.816z M128.385,165.3v-7.109c0-0.229,0.079-0.423,0.236-0.582
				c0.158-0.159,0.348-0.238,0.571-0.238c0.222,0,0.413,0.08,0.57,0.238s0.239,0.353,0.245,0.582v7.109
				c-0.005,0.229-0.087,0.423-0.245,0.582s-0.348,0.238-0.57,0.238c-0.223,0-0.413-0.08-0.571-0.238
				C128.464,165.724,128.385,165.529,128.385,165.3z"/>
			<path fill="#331842" d="M143.547,161.746c0,1.219-0.424,2.25-1.272,3.094c-0.859,0.854-1.884,1.281-3.074,1.281
				c-1.201,0-2.225-0.427-3.074-1.281s-1.272-1.885-1.272-3.094s0.424-2.24,1.272-3.094s1.873-1.281,3.074-1.281
				c1.19,0,2.214,0.427,3.074,1.281c0.424,0.427,0.741,0.898,0.95,1.414C143.435,160.582,143.542,161.142,143.547,161.746z
				 M139.201,159.003c-0.383,0-0.74,0.073-1.071,0.219c-0.332,0.146-0.619,0.342-0.862,0.59s-0.436,0.538-0.578,0.871
				s-0.213,0.688-0.213,1.062s0.071,0.729,0.213,1.062s0.335,0.624,0.578,0.871s0.53,0.444,0.862,0.59
				c0.331,0.146,0.688,0.219,1.071,0.219c0.377,0,0.732-0.073,1.063-0.219s0.62-0.344,0.866-0.594s0.44-0.541,0.582-0.871
				s0.213-0.684,0.213-1.059s-0.071-0.728-0.213-1.059s-0.336-0.621-0.582-0.871s-0.535-0.448-0.866-0.594
				S139.579,159.003,139.201,159.003z"/>
			<path fill="#331842" d="M158.661,165.308l-2.794-6.758c-0.052-0.12-0.078-0.242-0.078-0.367c0-0.109,0.021-0.213,0.062-0.312
				c0.041-0.099,0.098-0.186,0.17-0.262s0.158-0.134,0.256-0.176c0.098-0.042,0.204-0.062,0.318-0.062c0.16,0,0.31,0.045,0.45,0.137
				c0.14,0.091,0.245,0.225,0.318,0.402l2.181,5.242l2.181-5.258c0.062-0.156,0.151-0.283,0.268-0.379
				c0.117-0.096,0.281-0.145,0.493-0.145c0.114,0,0.22,0.021,0.318,0.062c0.098,0.042,0.184,0.1,0.256,0.176
				s0.131,0.163,0.175,0.262s0.066,0.203,0.066,0.312c0,0.115-0.029,0.237-0.085,0.367l-4.463,10.773
				c-0.067,0.162-0.171,0.293-0.311,0.395s-0.292,0.152-0.458,0.152c-0.232,0-0.425-0.078-0.578-0.234
				c-0.152-0.156-0.229-0.352-0.229-0.586c0-0.125,0.025-0.245,0.077-0.359L158.661,165.308z"/>
			<path fill="#331842" d="M28.121,179.957c-0.486-0.188-0.828-0.38-1.024-0.578h0.008c-0.393-0.401-0.59-0.873-0.59-1.414
				c0-0.396,0.105-0.754,0.314-1.074c0.21-0.32,0.482-0.592,0.819-0.816c0.336-0.224,0.715-0.397,1.137-0.52
				s0.845-0.184,1.269-0.184c1.293,0,2.403,0.523,3.33,1.57c0.108,0.135,0.163,0.299,0.163,0.492c0,0.234-0.076,0.428-0.229,0.582
				s-0.345,0.23-0.578,0.23c-0.166,0-0.307-0.047-0.423-0.141c-0.116-0.094-0.229-0.195-0.337-0.305
				c-0.528-0.531-1.169-0.797-1.925-0.797c-0.745,0-1.34,0.229-1.785,0.688c-0.083,0.083-0.124,0.198-0.124,0.344
				s0.067,0.245,0.202,0.297l3.632,1.203c0.507,0.198,0.849,0.391,1.025,0.578h-0.008c0.393,0.401,0.59,0.873,0.59,1.414
				c0,0.401-0.105,0.76-0.314,1.078c-0.21,0.318-0.482,0.59-0.819,0.816s-0.714,0.4-1.133,0.52s-0.841,0.18-1.265,0.18
				c-1.304,0-2.414-0.518-3.33-1.555c-0.114-0.151-0.171-0.32-0.171-0.508c0-0.234,0.076-0.428,0.229-0.582
				c0.152-0.154,0.345-0.23,0.578-0.23c0.17,0,0.315,0.051,0.435,0.152s0.228,0.199,0.326,0.293
				c0.528,0.531,1.172,0.797,1.933,0.797c0.74,0,1.335-0.234,1.785-0.703c0.078-0.088,0.117-0.195,0.117-0.32
				c0-0.146-0.07-0.248-0.21-0.305L28.121,179.957z"/>
			<path fill="#331842" d="M45.224,184.121c-0.233,0-0.424-0.078-0.574-0.234c-0.15-0.156-0.228-0.346-0.233-0.57
				c-0.356,0.281-0.734,0.486-1.133,0.613s-0.831,0.191-1.296,0.191c-0.554,0-1.076-0.108-1.568-0.324
				c-0.491-0.216-0.921-0.509-1.288-0.879s-0.658-0.802-0.873-1.297s-0.322-1.021-0.322-1.578v-3.859
				c0-0.224,0.079-0.416,0.237-0.574s0.351-0.238,0.578-0.238c0.222,0,0.413,0.08,0.571,0.238c0.157,0.159,0.236,0.35,0.236,0.574
				v3.859c0,0.338,0.063,0.656,0.19,0.953s0.3,0.556,0.52,0.777c0.22,0.221,0.478,0.396,0.772,0.523s0.61,0.191,0.947,0.191
				c0.331,0,0.644-0.064,0.939-0.191s0.553-0.303,0.776-0.527s0.397-0.483,0.524-0.777c0.126-0.294,0.189-0.611,0.189-0.949v-3.859
				c0-0.224,0.079-0.416,0.237-0.574c0.157-0.159,0.351-0.238,0.578-0.238c0.222,0,0.412,0.08,0.57,0.238
				c0.158,0.159,0.237,0.35,0.237,0.574v7.125c0,0.224-0.079,0.416-0.237,0.574C45.644,184.041,45.452,184.121,45.224,184.121z"/>
			<path fill="#331842" d="M65.343,183.308v-0.156c-0.388,0.312-0.81,0.552-1.265,0.719s-0.941,0.25-1.459,0.25
				c-1.2,0-2.225-0.427-3.073-1.281c-0.849-0.854-1.273-1.885-1.273-3.094s0.425-2.24,1.273-3.094
				c0.848-0.854,1.873-1.281,3.073-1.281c1.19,0,2.215,0.427,3.073,1.281c0.849,0.854,1.273,1.885,1.273,3.094v3.562
				c0,0.224-0.079,0.416-0.237,0.574c-0.158,0.159-0.348,0.238-0.57,0.238c-0.228,0-0.42-0.08-0.578-0.238
				C65.421,183.724,65.343,183.532,65.343,183.308z M62.619,177.003c-0.383,0-0.74,0.073-1.071,0.219s-0.618,0.342-0.861,0.59
				s-0.436,0.538-0.578,0.871c-0.143,0.333-0.214,0.688-0.214,1.062s0.071,0.729,0.214,1.062c0.142,0.333,0.335,0.624,0.578,0.871
				s0.53,0.444,0.861,0.59s0.688,0.219,1.071,0.219c0.378,0,0.732-0.073,1.063-0.219s0.619-0.344,0.865-0.594
				c0.246-0.25,0.439-0.541,0.582-0.871s0.213-0.684,0.213-1.059s-0.071-0.728-0.213-1.059s-0.336-0.621-0.582-0.871
				c-0.246-0.25-0.534-0.448-0.865-0.594S62.997,177.003,62.619,177.003z"/>
			<path fill="#331842" d="M75.732,184.121c-1.04,0-1.948-0.32-2.724-0.961v3.898c0,0.234-0.079,0.428-0.237,0.582
				s-0.351,0.23-0.579,0.23c-0.232,0-0.425-0.077-0.578-0.23c-0.152-0.154-0.229-0.348-0.229-0.582v-7.312
				c0-1.208,0.424-2.24,1.272-3.094s1.873-1.281,3.074-1.281c1.19,0,2.214,0.427,3.074,1.281c0.424,0.422,0.742,0.892,0.954,1.41
				c0.212,0.518,0.318,1.08,0.318,1.684c0,1.219-0.424,2.25-1.272,3.094c-0.435,0.432-0.907,0.754-1.417,0.965
				S76.328,184.121,75.732,184.121z M73.008,179.746c0,0.375,0.071,0.729,0.213,1.062s0.335,0.624,0.578,0.871
				s0.53,0.444,0.862,0.59c0.331,0.146,0.688,0.219,1.071,0.219c0.377,0,0.732-0.073,1.063-0.219s0.62-0.344,0.866-0.594
				s0.44-0.541,0.582-0.871s0.213-0.684,0.213-1.059s-0.071-0.728-0.213-1.059s-0.336-0.621-0.582-0.871s-0.535-0.448-0.866-0.594
				s-0.686-0.219-1.063-0.219c-0.383,0-0.74,0.073-1.071,0.219c-0.332,0.146-0.619,0.342-0.862,0.59s-0.436,0.538-0.578,0.871
				S73.008,179.371,73.008,179.746z"/>
			<path fill="#331842" d="M84.422,183.308v-10.867c0-0.229,0.077-0.423,0.229-0.582s0.346-0.238,0.578-0.238
				c0.233,0,0.426,0.08,0.578,0.238c0.153,0.159,0.229,0.353,0.229,0.582v10.047h0.372c0.223,0,0.413,0.08,0.57,0.238
				c0.158,0.159,0.237,0.353,0.237,0.582c0,0.224-0.079,0.416-0.237,0.574c-0.157,0.159-0.348,0.238-0.57,0.238h-1.188
				c-0.223,0-0.411-0.08-0.566-0.238S84.422,183.532,84.422,183.308z"/>
			<path fill="#331842" d="M93.6,173.816c0,0.266-0.093,0.492-0.279,0.68s-0.411,0.281-0.675,0.281
				c-0.264,0-0.489-0.094-0.676-0.281c-0.186-0.188-0.279-0.414-0.279-0.68s0.093-0.492,0.279-0.68
				c0.187-0.188,0.412-0.281,0.676-0.281c0.264,0,0.488,0.094,0.675,0.281S93.6,173.55,93.6,173.816z M91.838,183.3v-7.109
				c0-0.229,0.079-0.423,0.237-0.582s0.348-0.238,0.571-0.238c0.222,0,0.412,0.08,0.57,0.238c0.158,0.159,0.239,0.353,0.244,0.582
				v7.109c-0.005,0.229-0.086,0.423-0.244,0.582c-0.158,0.159-0.348,0.238-0.57,0.238c-0.223,0-0.413-0.08-0.571-0.238
				S91.838,183.529,91.838,183.3z"/>
			<path fill="#331842" d="M104.921,181.644c0.232,0,0.425,0.077,0.578,0.23c0.152,0.154,0.229,0.348,0.229,0.582
				c0,0.229-0.085,0.43-0.256,0.602c-0.802,0.708-1.746,1.062-2.833,1.062c-1.2,0-2.225-0.427-3.073-1.281s-1.273-1.885-1.273-3.094
				s0.424-2.24,1.273-3.094s1.873-1.281,3.073-1.281c1.092,0,2.036,0.354,2.833,1.062c0.187,0.167,0.279,0.373,0.279,0.617
				c0,0.234-0.076,0.43-0.229,0.586s-0.345,0.234-0.578,0.234c-0.197,0-0.373-0.062-0.528-0.188
				c-0.264-0.224-0.541-0.393-0.83-0.508c-0.29-0.115-0.605-0.172-0.947-0.172c-0.378,0-0.732,0.072-1.063,0.215
				s-0.621,0.338-0.869,0.586c-0.248,0.248-0.443,0.538-0.586,0.871s-0.213,0.69-0.213,1.07s0.071,0.737,0.213,1.07
				s0.338,0.624,0.586,0.871c0.249,0.248,0.538,0.443,0.869,0.586s0.686,0.215,1.063,0.215c0.342,0,0.657-0.056,0.947-0.168
				c0.289-0.112,0.563-0.28,0.822-0.504C104.554,181.707,104.724,181.649,104.921,181.644z"/>
			<path fill="#331842" d="M117.25,183.308v-0.156c-0.388,0.312-0.81,0.552-1.265,0.719c-0.456,0.167-0.942,0.25-1.459,0.25
				c-1.201,0-2.226-0.427-3.074-1.281c-0.849-0.854-1.273-1.885-1.273-3.094s0.424-2.24,1.273-3.094
				c0.848-0.854,1.873-1.281,3.074-1.281c1.189,0,2.214,0.427,3.073,1.281c0.849,0.854,1.272,1.885,1.272,3.094v3.562
				c0,0.224-0.079,0.416-0.236,0.574c-0.158,0.159-0.348,0.238-0.57,0.238c-0.228,0-0.421-0.08-0.578-0.238
				C117.33,183.724,117.25,183.532,117.25,183.308z M114.527,177.003c-0.383,0-0.74,0.073-1.071,0.219s-0.618,0.342-0.861,0.59
				s-0.437,0.538-0.578,0.871c-0.143,0.333-0.214,0.688-0.214,1.062s0.071,0.729,0.214,1.062c0.142,0.333,0.335,0.624,0.578,0.871
				s0.53,0.444,0.861,0.59s0.688,0.219,1.071,0.219c0.377,0,0.732-0.073,1.063-0.219s0.62-0.344,0.866-0.594
				c0.245-0.25,0.439-0.541,0.582-0.871c0.142-0.331,0.213-0.684,0.213-1.059s-0.071-0.728-0.213-1.059
				c-0.143-0.331-0.337-0.621-0.582-0.871c-0.246-0.25-0.535-0.448-0.866-0.594S114.904,177.003,114.527,177.003z"/>
			<path fill="#331842" d="M129.907,181.644c0.232,0,0.425,0.077,0.578,0.23c0.152,0.154,0.229,0.348,0.229,0.582
				c0,0.229-0.085,0.43-0.256,0.602c-0.802,0.708-1.746,1.062-2.833,1.062c-1.2,0-2.225-0.427-3.073-1.281s-1.273-1.885-1.273-3.094
				s0.424-2.24,1.273-3.094s1.873-1.281,3.073-1.281c1.092,0,2.036,0.354,2.833,1.062c0.187,0.167,0.279,0.373,0.279,0.617
				c0,0.234-0.076,0.43-0.229,0.586s-0.345,0.234-0.578,0.234c-0.197,0-0.373-0.062-0.528-0.188
				c-0.264-0.224-0.541-0.393-0.83-0.508c-0.29-0.115-0.605-0.172-0.947-0.172c-0.378,0-0.732,0.072-1.063,0.215
				s-0.621,0.338-0.869,0.586c-0.248,0.248-0.443,0.538-0.586,0.871s-0.213,0.69-0.213,1.07s0.071,0.737,0.213,1.07
				s0.338,0.624,0.586,0.871c0.249,0.248,0.538,0.443,0.869,0.586s0.686,0.215,1.063,0.215c0.342,0,0.657-0.056,0.947-0.168
				c0.289-0.112,0.563-0.28,0.822-0.504C129.539,181.707,129.709,181.649,129.907,181.644z"/>
			<path fill="#331842" d="M137.362,173.816c0,0.266-0.093,0.492-0.279,0.68c-0.187,0.188-0.411,0.281-0.675,0.281
				s-0.489-0.094-0.675-0.281s-0.279-0.414-0.279-0.68s0.093-0.492,0.279-0.68s0.411-0.281,0.675-0.281s0.489,0.094,0.675,0.281
				C137.269,173.324,137.362,173.55,137.362,173.816z M135.6,183.3v-7.109c0-0.229,0.079-0.423,0.236-0.582
				c0.158-0.159,0.348-0.238,0.571-0.238c0.222,0,0.413,0.08,0.57,0.238s0.239,0.353,0.245,0.582v7.109
				c-0.005,0.229-0.087,0.423-0.245,0.582s-0.348,0.238-0.57,0.238c-0.223,0-0.413-0.08-0.571-0.238
				C135.679,183.724,135.6,183.529,135.6,183.3z"/>
			<path fill="#331842" d="M150.762,179.746c0,1.219-0.424,2.25-1.272,3.094c-0.859,0.854-1.884,1.281-3.073,1.281
				c-1.201,0-2.226-0.427-3.074-1.281c-0.849-0.854-1.273-1.885-1.273-3.094s0.424-2.24,1.273-3.094
				c0.848-0.854,1.873-1.281,3.074-1.281c1.189,0,2.214,0.427,3.073,1.281c0.424,0.427,0.741,0.898,0.951,1.414
				S150.757,179.142,150.762,179.746z M146.417,177.003c-0.383,0-0.74,0.073-1.071,0.219s-0.618,0.342-0.861,0.59
				s-0.437,0.538-0.578,0.871c-0.143,0.333-0.214,0.688-0.214,1.062s0.071,0.729,0.214,1.062c0.142,0.333,0.335,0.624,0.578,0.871
				s0.53,0.444,0.861,0.59s0.688,0.219,1.071,0.219c0.377,0,0.732-0.073,1.063-0.219s0.62-0.344,0.866-0.594
				c0.245-0.25,0.439-0.541,0.582-0.871c0.142-0.331,0.213-0.684,0.213-1.059s-0.071-0.728-0.213-1.059
				c-0.143-0.331-0.337-0.621-0.582-0.871c-0.246-0.25-0.535-0.448-0.866-0.594S146.794,177.003,146.417,177.003z M148.093,173.019
				l-1.552,1.555c-0.145,0.146-0.331,0.219-0.559,0.219c-0.233,0-0.426-0.077-0.579-0.23s-0.229-0.348-0.229-0.582
				c0-0.224,0.067-0.409,0.202-0.555l1.552-1.555c0.166-0.162,0.357-0.242,0.575-0.242c0.233,0,0.425,0.08,0.578,0.238
				s0.229,0.353,0.229,0.582C148.31,172.683,148.238,172.873,148.093,173.019z"/>
			<path fill="#331842" d="M156.798,176.175c0.688-0.537,1.498-0.805,2.429-0.805c0.543,0,1.06,0.107,1.548,0.32
				s0.919,0.504,1.292,0.871c0.372,0.367,0.667,0.799,0.885,1.297c0.217,0.498,0.326,1.027,0.326,1.59v3.852
				c0,0.229-0.079,0.423-0.237,0.582c-0.158,0.159-0.348,0.238-0.57,0.238c-0.228,0-0.42-0.08-0.578-0.238
				c-0.158-0.159-0.237-0.353-0.237-0.582v-3.852c0-0.333-0.065-0.648-0.194-0.945c-0.129-0.297-0.304-0.556-0.524-0.777
				c-0.22-0.221-0.477-0.397-0.772-0.527s-0.608-0.195-0.939-0.195c-0.336,0-0.65,0.064-0.943,0.191
				c-0.292,0.127-0.55,0.303-0.772,0.527s-0.397,0.484-0.524,0.781s-0.19,0.612-0.19,0.945v3.852c0,0.229-0.079,0.423-0.237,0.582
				c-0.158,0.159-0.348,0.238-0.57,0.238c-0.228,0-0.421-0.08-0.578-0.238c-0.158-0.159-0.237-0.353-0.237-0.582v-7.109
				c0-0.224,0.079-0.417,0.237-0.578c0.157-0.162,0.351-0.242,0.578-0.242c0.222,0,0.412,0.081,0.57,0.242
				C156.719,175.774,156.798,175.962,156.798,176.175z"/>
		</g>
	</g>
	<g>
		<path fill="#331842" d="M82.482,21.08c0,1.724-0.608,3.198-1.824,4.422c-1.21,1.219-2.672,1.828-4.385,1.828
			c-1.718,0-3.183-0.609-4.393-1.828c-1.211-1.219-1.816-2.692-1.816-4.422c0-1.724,0.605-3.195,1.816-4.414
			c1.216-1.224,2.68-1.836,4.393-1.836c1.707,0,3.169,0.612,4.385,1.836c0.611,0.615,1.067,1.287,1.37,2.016
			C82.331,19.411,82.482,20.21,82.482,21.08z M76.273,16.486c-0.642,0-1.228,0.112-1.758,0.336c-0.53,0.224-1.021,0.562-1.471,1.016
			s-0.785,0.945-1.005,1.477c-0.22,0.531-0.33,1.12-0.33,1.766c0,1.271,0.445,2.354,1.335,3.25c0.89,0.896,1.966,1.344,3.229,1.344
			c1.262,0,2.338-0.448,3.229-1.344c0.89-0.896,1.335-1.979,1.335-3.25c0-1.266-0.445-2.346-1.335-3.242
			C78.606,16.937,77.53,16.486,76.273,16.486z"/>
		<path fill="#331842" d="M88.494,19.393v0.156c0.388-0.312,0.81-0.552,1.265-0.719c0.455-0.167,0.941-0.25,1.459-0.25
			c0.228,0,0.472,0.016,0.733,0.047s0.502,0.087,0.722,0.168c0.22,0.081,0.402,0.191,0.547,0.332s0.217,0.323,0.217,0.547
			c0,0.115-0.022,0.222-0.066,0.32c-0.044,0.099-0.102,0.187-0.175,0.262c-0.072,0.076-0.158,0.134-0.256,0.176
			c-0.099,0.042-0.205,0.062-0.318,0.062c-0.098,0-0.212-0.028-0.341-0.086c-0.326-0.13-0.681-0.195-1.063-0.195
			c-0.378,0-0.732,0.072-1.063,0.215c-0.331,0.144-0.62,0.339-0.865,0.586c-0.246,0.248-0.44,0.538-0.582,0.871
			c-0.143,0.333-0.213,0.69-0.213,1.07v3.562c0,0.224-0.079,0.416-0.237,0.574c-0.158,0.159-0.348,0.238-0.57,0.238
			c-0.228,0-0.42-0.079-0.578-0.238c-0.158-0.159-0.237-0.35-0.237-0.574v-7.125c0-0.224,0.079-0.415,0.237-0.574
			c0.158-0.159,0.35-0.238,0.578-0.238c0.222,0,0.413,0.08,0.57,0.238C88.415,18.978,88.494,19.169,88.494,19.393z"/>
		<path fill="#331842" d="M100.474,16.229l-1.552,1.555c-0.145,0.146-0.332,0.219-0.559,0.219c-0.233,0-0.426-0.077-0.578-0.23
			c-0.153-0.153-0.229-0.348-0.229-0.582c0-0.224,0.067-0.409,0.202-0.555l1.552-1.555c0.166-0.161,0.357-0.242,0.575-0.242
			c0.232,0,0.425,0.08,0.578,0.238c0.152,0.159,0.229,0.353,0.229,0.582C100.691,15.893,100.619,16.083,100.474,16.229z
			 M98.021,26.51V19.4c0-0.229,0.079-0.423,0.237-0.582c0.158-0.159,0.348-0.238,0.57-0.238c0.222,0,0.413,0.08,0.57,0.238
			c0.158,0.159,0.239,0.353,0.245,0.582v7.109c-0.005,0.229-0.087,0.423-0.245,0.582c-0.158,0.159-0.348,0.238-0.57,0.238
			c-0.223,0-0.413-0.079-0.57-0.238C98.1,26.933,98.021,26.739,98.021,26.51z"/>
		<path fill="#331842" d="M111.507,26.369c-0.776,0.641-1.684,0.961-2.724,0.961c-1.2,0-2.225-0.427-3.073-1.281
			c-0.849-0.854-1.273-1.885-1.273-3.094c0-1.208,0.424-2.239,1.273-3.094c0.848-0.854,1.873-1.281,3.073-1.281
			c1.19,0,2.215,0.427,3.074,1.281c0.848,0.854,1.272,1.886,1.272,3.094v4.344c0,0.375-0.057,0.729-0.17,1.062
			c-0.114,0.333-0.272,0.639-0.474,0.918c-0.202,0.278-0.44,0.53-0.714,0.754c-0.274,0.224-0.57,0.413-0.889,0.566
			c-0.318,0.153-0.651,0.272-0.998,0.355c-0.347,0.083-0.693,0.125-1.04,0.125c-0.414,0-0.82-0.054-1.218-0.16
			c-0.398-0.107-0.776-0.265-1.133-0.473c-0.357-0.208-0.684-0.466-0.982-0.773c-0.297-0.308-0.55-0.651-0.756-1.031
			c-0.083-0.12-0.125-0.266-0.125-0.438c0-0.234,0.078-0.429,0.233-0.582c0.155-0.154,0.349-0.23,0.582-0.23
			c0.155,0,0.283,0.036,0.384,0.109c0.101,0.073,0.239,0.234,0.415,0.484c0.176,0.25,0.331,0.44,0.466,0.57
			c0.59,0.594,1.301,0.891,2.134,0.891c0.838,0,1.547-0.292,2.127-0.875c0.357-0.438,0.535-0.862,0.535-1.273V26.369z
			 M108.783,20.213c-0.383,0-0.74,0.073-1.071,0.219c-0.332,0.146-0.619,0.343-0.862,0.59c-0.243,0.248-0.436,0.538-0.578,0.871
			c-0.142,0.333-0.213,0.688-0.213,1.062s0.071,0.729,0.213,1.062c0.142,0.333,0.335,0.624,0.578,0.871
			c0.243,0.248,0.53,0.444,0.862,0.59c0.331,0.146,0.688,0.219,1.071,0.219c0.378,0,0.732-0.073,1.063-0.219
			c0.331-0.146,0.62-0.344,0.865-0.594s0.44-0.54,0.582-0.871c0.143-0.331,0.213-0.684,0.213-1.059s-0.071-0.728-0.213-1.059
			c-0.142-0.331-0.336-0.621-0.582-0.871s-0.534-0.448-0.865-0.594C109.516,20.286,109.161,20.213,108.783,20.213z"/>
		<path fill="#331842" d="M124.163,24.869c0.233,0,0.426,0.077,0.578,0.23c0.153,0.154,0.229,0.348,0.229,0.582
			c0,0.229-0.078,0.425-0.233,0.586c-0.802,0.708-1.749,1.062-2.84,1.062c-1.201,0-2.225-0.427-3.074-1.281
			c-0.849-0.854-1.273-1.885-1.273-3.094c0-1.208,0.424-2.239,1.273-3.094c0.849-0.854,1.873-1.281,3.074-1.281
			c1.19,0,2.214,0.427,3.073,1.281c0.424,0.422,0.743,0.892,0.955,1.41c0.212,0.519,0.318,1.08,0.318,1.684
			c0,0.234-0.079,0.429-0.237,0.582c-0.158,0.154-0.351,0.23-0.578,0.23h-6.147c0.088,0.287,0.217,0.548,0.388,0.785
			c0.17,0.237,0.371,0.44,0.602,0.609c0.23,0.169,0.483,0.301,0.76,0.395s0.565,0.141,0.866,0.141c0.341,0,0.654-0.052,0.939-0.156
			c0.285-0.104,0.548-0.26,0.792-0.469C123.783,24.942,123.961,24.875,124.163,24.869z M124.512,22.143
			c-0.088-0.286-0.218-0.548-0.392-0.785c-0.174-0.237-0.375-0.44-0.605-0.609c-0.23-0.169-0.484-0.301-0.761-0.395
			s-0.562-0.141-0.857-0.141s-0.582,0.047-0.862,0.141c-0.279,0.094-0.535,0.226-0.768,0.395c-0.233,0.169-0.435,0.373-0.605,0.609
			c-0.171,0.237-0.298,0.499-0.38,0.785H124.512z"/>
		<path fill="#331842" d="M132.278,19.385c0.688-0.536,1.498-0.805,2.429-0.805c0.543,0,1.06,0.107,1.548,0.32
			c0.489,0.214,0.92,0.504,1.292,0.871s0.667,0.8,0.885,1.297c0.217,0.498,0.326,1.027,0.326,1.59v3.852
			c0,0.229-0.079,0.423-0.237,0.582c-0.158,0.159-0.348,0.238-0.571,0.238c-0.228,0-0.42-0.079-0.578-0.238
			c-0.158-0.159-0.237-0.353-0.237-0.582v-3.852c0-0.333-0.064-0.648-0.194-0.945s-0.304-0.556-0.524-0.777
			c-0.22-0.221-0.477-0.397-0.772-0.527c-0.295-0.13-0.608-0.195-0.939-0.195c-0.336,0-0.65,0.064-0.943,0.191
			c-0.292,0.128-0.55,0.304-0.772,0.527c-0.222,0.224-0.397,0.484-0.524,0.781c-0.126,0.297-0.19,0.612-0.19,0.945v3.852
			c0,0.229-0.079,0.423-0.237,0.582c-0.158,0.159-0.348,0.238-0.57,0.238c-0.228,0-0.42-0.079-0.578-0.238
			c-0.158-0.159-0.237-0.353-0.237-0.582V19.4c0-0.224,0.079-0.417,0.237-0.578c0.158-0.161,0.351-0.242,0.578-0.242
			c0.222,0,0.413,0.081,0.57,0.242C132.199,18.984,132.278,19.171,132.278,19.385z"/>
		<path fill="#331842" d="M149.77,24.869c0.232,0,0.425,0.077,0.578,0.23c0.152,0.154,0.229,0.348,0.229,0.582
			c0,0.229-0.078,0.425-0.233,0.586c-0.802,0.708-1.749,1.062-2.841,1.062c-1.2,0-2.225-0.427-3.073-1.281
			c-0.849-0.854-1.273-1.885-1.273-3.094c0-1.208,0.424-2.239,1.273-3.094c0.848-0.854,1.873-1.281,3.073-1.281
			c1.19,0,2.215,0.427,3.074,1.281c0.424,0.422,0.742,0.892,0.955,1.41c0.212,0.519,0.318,1.08,0.318,1.684
			c0,0.234-0.079,0.429-0.236,0.582c-0.158,0.154-0.351,0.23-0.579,0.23h-6.147c0.088,0.287,0.218,0.548,0.388,0.785
			c0.171,0.237,0.371,0.44,0.602,0.609c0.23,0.169,0.484,0.301,0.761,0.395s0.565,0.141,0.865,0.141
			c0.342,0,0.655-0.052,0.939-0.156c0.285-0.104,0.549-0.26,0.792-0.469C149.389,24.942,149.567,24.875,149.77,24.869z
			 M150.119,22.143c-0.088-0.286-0.219-0.548-0.392-0.785c-0.173-0.237-0.375-0.44-0.605-0.609c-0.23-0.169-0.484-0.301-0.76-0.395
			c-0.277-0.094-0.563-0.141-0.858-0.141s-0.582,0.047-0.861,0.141s-0.536,0.226-0.769,0.395c-0.233,0.169-0.435,0.373-0.605,0.609
			c-0.17,0.237-0.297,0.499-0.38,0.785H150.119z"/>
		<path fill="#331842" d="M157.854,23.166c-0.486-0.188-0.828-0.38-1.024-0.578h0.008c-0.394-0.401-0.59-0.872-0.59-1.414
			c0-0.396,0.104-0.754,0.314-1.074c0.21-0.32,0.482-0.592,0.819-0.816c0.336-0.224,0.715-0.397,1.137-0.52
			c0.422-0.122,0.845-0.184,1.269-0.184c1.293,0,2.403,0.523,3.33,1.57c0.108,0.136,0.163,0.3,0.163,0.492
			c0,0.234-0.077,0.429-0.229,0.582c-0.153,0.154-0.346,0.23-0.578,0.23c-0.166,0-0.307-0.047-0.423-0.141
			c-0.116-0.094-0.229-0.195-0.337-0.305c-0.528-0.531-1.169-0.797-1.925-0.797c-0.745,0-1.34,0.229-1.785,0.688
			c-0.083,0.083-0.124,0.198-0.124,0.344c0,0.146,0.067,0.245,0.202,0.297l3.632,1.203c0.507,0.198,0.849,0.391,1.024,0.578h-0.008
			c0.393,0.401,0.59,0.873,0.59,1.414c0,0.401-0.104,0.761-0.314,1.078c-0.209,0.318-0.482,0.59-0.818,0.816
			c-0.336,0.227-0.714,0.4-1.133,0.52c-0.419,0.12-0.841,0.18-1.265,0.18c-1.304,0-2.414-0.518-3.33-1.555
			c-0.114-0.151-0.171-0.32-0.171-0.508c0-0.234,0.076-0.428,0.229-0.582c0.153-0.153,0.345-0.23,0.578-0.23
			c0.171,0,0.315,0.051,0.435,0.152s0.228,0.199,0.326,0.293c0.528,0.531,1.172,0.797,1.933,0.797c0.74,0,1.335-0.234,1.785-0.703
			c0.078-0.088,0.116-0.195,0.116-0.32c0-0.146-0.07-0.247-0.209-0.305L157.854,23.166z"/>
	</g>
	<g>
		<path fill="#331842" d="M45.896,66.325c0-0.229,0.08-0.424,0.241-0.586c0.16-0.161,0.354-0.242,0.582-0.242
			c0.228,0,0.421,0.081,0.582,0.242c0.16,0.162,0.241,0.357,0.241,0.586v10.016h5.759c0.228,0,0.421,0.081,0.582,0.242
			c0.161,0.162,0.241,0.357,0.241,0.586c0,0.229-0.08,0.425-0.241,0.586c-0.161,0.162-0.354,0.242-0.582,0.242h-6.582
			c-0.119,0-0.228-0.021-0.326-0.062c-0.098-0.042-0.185-0.1-0.26-0.176c-0.075-0.075-0.133-0.163-0.175-0.262
			c-0.042-0.099-0.062-0.208-0.062-0.328V66.325z"/>
		<path fill="#331842" d="M65.499,77.185v-0.156c-0.388,0.312-0.81,0.552-1.265,0.719c-0.456,0.167-0.942,0.25-1.459,0.25
			c-1.201,0-2.225-0.427-3.074-1.281c-0.849-0.854-1.273-1.885-1.273-3.094c0-1.208,0.424-2.239,1.273-3.094
			c0.849-0.854,1.873-1.281,3.074-1.281c1.19,0,2.214,0.427,3.073,1.281c0.849,0.854,1.273,1.886,1.273,3.094v3.562
			c0,0.224-0.079,0.416-0.237,0.574c-0.158,0.159-0.348,0.238-0.57,0.238c-0.228,0-0.42-0.079-0.578-0.238
			C65.577,77.6,65.499,77.409,65.499,77.185z M62.774,70.88c-0.383,0-0.74,0.073-1.071,0.219c-0.331,0.146-0.618,0.343-0.861,0.59
			c-0.244,0.248-0.436,0.538-0.579,0.871c-0.142,0.333-0.213,0.688-0.213,1.062s0.071,0.729,0.213,1.062
			c0.143,0.333,0.335,0.624,0.579,0.871c0.243,0.248,0.53,0.444,0.861,0.59c0.331,0.146,0.688,0.219,1.071,0.219
			c0.377,0,0.732-0.073,1.063-0.219c0.331-0.146,0.62-0.344,0.866-0.594c0.246-0.25,0.439-0.54,0.582-0.871
			c0.142-0.331,0.213-0.684,0.213-1.059s-0.071-0.728-0.213-1.059c-0.143-0.331-0.336-0.621-0.582-0.871
			c-0.246-0.25-0.535-0.448-0.866-0.594C63.506,70.953,63.152,70.88,62.774,70.88z"/>
		<path fill="#331842" d="M80.96,73.833c-0.486-0.188-0.828-0.38-1.024-0.578h0.008c-0.394-0.401-0.59-0.872-0.59-1.414
			c0-0.396,0.104-0.754,0.314-1.074c0.209-0.32,0.482-0.592,0.819-0.816c0.336-0.224,0.715-0.397,1.137-0.52
			c0.422-0.122,0.845-0.184,1.269-0.184c1.293,0,2.403,0.523,3.33,1.57c0.109,0.136,0.163,0.3,0.163,0.492
			c0,0.234-0.077,0.429-0.229,0.582c-0.152,0.154-0.345,0.23-0.578,0.23c-0.166,0-0.307-0.047-0.423-0.141
			c-0.117-0.094-0.229-0.195-0.338-0.305c-0.528-0.531-1.169-0.797-1.925-0.797c-0.745,0-1.34,0.229-1.785,0.688
			c-0.083,0.083-0.124,0.198-0.124,0.344c0,0.146,0.067,0.245,0.202,0.297l3.632,1.203c0.507,0.198,0.849,0.391,1.024,0.578h-0.008
			c0.394,0.401,0.59,0.873,0.59,1.414c0,0.401-0.104,0.761-0.314,1.078c-0.209,0.318-0.483,0.59-0.819,0.816
			c-0.336,0.227-0.714,0.4-1.133,0.52c-0.419,0.12-0.841,0.18-1.265,0.18c-1.304,0-2.414-0.518-3.33-1.555
			c-0.114-0.151-0.17-0.32-0.17-0.508c0-0.234,0.076-0.428,0.229-0.582c0.153-0.153,0.346-0.23,0.578-0.23
			c0.171,0,0.316,0.051,0.435,0.152c0.119,0.102,0.228,0.199,0.326,0.293c0.528,0.531,1.172,0.797,1.933,0.797
			c0.74,0,1.335-0.234,1.785-0.703c0.078-0.088,0.116-0.195,0.116-0.32c0-0.146-0.069-0.247-0.209-0.305L80.96,73.833z"/>
		<path fill="#331842" d="M99.476,73.622c0,1.219-0.424,2.25-1.273,3.094c-0.859,0.854-1.883,1.281-3.074,1.281
			c-1.2,0-2.225-0.427-3.073-1.281c-0.849-0.854-1.273-1.885-1.273-3.094c0-1.208,0.424-2.239,1.273-3.094
			c0.849-0.854,1.873-1.281,3.073-1.281c1.19,0,2.215,0.427,3.074,1.281c0.424,0.427,0.741,0.898,0.951,1.414
			S99.471,73.018,99.476,73.622z M95.129,70.88c-0.383,0-0.74,0.073-1.071,0.219c-0.332,0.146-0.619,0.343-0.862,0.59
			c-0.243,0.248-0.436,0.538-0.578,0.871c-0.142,0.333-0.213,0.688-0.213,1.062s0.071,0.729,0.213,1.062
			c0.143,0.333,0.335,0.624,0.578,0.871c0.243,0.248,0.53,0.444,0.862,0.59c0.331,0.146,0.688,0.219,1.071,0.219
			c0.378,0,0.732-0.073,1.063-0.219c0.331-0.146,0.62-0.344,0.865-0.594c0.246-0.25,0.44-0.54,0.582-0.871
			c0.143-0.331,0.214-0.684,0.214-1.059s-0.071-0.728-0.214-1.059c-0.142-0.331-0.336-0.621-0.582-0.871
			c-0.246-0.25-0.534-0.448-0.865-0.594C95.862,70.953,95.507,70.88,95.129,70.88z"/>
		<path fill="#331842" d="M103.819,77.185V66.317c0-0.229,0.076-0.423,0.229-0.582c0.152-0.159,0.345-0.238,0.578-0.238
			c0.232,0,0.425,0.08,0.578,0.238c0.152,0.159,0.229,0.353,0.229,0.582v10.047h0.373c0.222,0,0.413,0.08,0.57,0.238
			c0.158,0.159,0.237,0.353,0.237,0.582c0,0.224-0.079,0.416-0.237,0.574c-0.158,0.159-0.348,0.238-0.57,0.238h-1.188
			c-0.223,0-0.411-0.079-0.566-0.238C103.897,77.6,103.819,77.409,103.819,77.185z"/>
		<path fill="#331842" d="M118.082,77.997c-0.233,0-0.424-0.078-0.574-0.234c-0.15-0.156-0.228-0.346-0.233-0.57
			c-0.357,0.281-0.735,0.486-1.133,0.613c-0.398,0.128-0.831,0.191-1.296,0.191c-0.554,0-1.077-0.108-1.568-0.324
			c-0.492-0.216-0.921-0.509-1.289-0.879c-0.367-0.37-0.658-0.802-0.873-1.297c-0.215-0.495-0.322-1.021-0.322-1.578V70.06
			c0-0.224,0.079-0.415,0.237-0.574c0.158-0.159,0.351-0.238,0.578-0.238c0.223,0,0.413,0.08,0.571,0.238
			c0.158,0.159,0.236,0.351,0.236,0.574v3.859c0,0.339,0.063,0.656,0.19,0.953c0.126,0.297,0.3,0.556,0.52,0.777
			c0.22,0.222,0.477,0.396,0.772,0.523c0.295,0.128,0.61,0.191,0.947,0.191c0.331,0,0.644-0.063,0.939-0.191
			c0.295-0.127,0.553-0.303,0.776-0.527c0.223-0.224,0.397-0.483,0.524-0.777c0.127-0.294,0.19-0.61,0.19-0.949V70.06
			c0-0.224,0.079-0.415,0.237-0.574c0.158-0.159,0.35-0.238,0.578-0.238c0.222,0,0.413,0.08,0.57,0.238
			c0.158,0.159,0.237,0.351,0.237,0.574v7.125c0,0.224-0.079,0.416-0.237,0.574C118.502,77.918,118.309,77.997,118.082,77.997z"/>
		<path fill="#331842" d="M129.907,75.521c0.232,0,0.425,0.077,0.578,0.23c0.152,0.154,0.229,0.348,0.229,0.582
			c0,0.229-0.085,0.43-0.256,0.602c-0.802,0.708-1.746,1.062-2.833,1.062c-1.2,0-2.225-0.427-3.073-1.281
			c-0.849-0.854-1.273-1.885-1.273-3.094c0-1.208,0.424-2.239,1.273-3.094c0.849-0.854,1.873-1.281,3.073-1.281
			c1.092,0,2.036,0.354,2.833,1.062c0.187,0.167,0.279,0.373,0.279,0.617c0,0.234-0.076,0.43-0.229,0.586
			c-0.153,0.156-0.346,0.234-0.579,0.234c-0.197,0-0.373-0.062-0.528-0.188c-0.264-0.224-0.541-0.393-0.83-0.508
			c-0.29-0.114-0.605-0.172-0.947-0.172c-0.377,0-0.732,0.072-1.063,0.215c-0.332,0.144-0.621,0.339-0.87,0.586
			c-0.248,0.248-0.443,0.538-0.586,0.871c-0.142,0.333-0.213,0.69-0.213,1.07c0,0.38,0.071,0.737,0.213,1.07
			c0.143,0.333,0.338,0.624,0.586,0.871c0.249,0.248,0.538,0.443,0.87,0.586c0.331,0.144,0.686,0.215,1.063,0.215
			c0.342,0,0.657-0.056,0.947-0.168c0.29-0.112,0.563-0.28,0.822-0.504C129.539,75.583,129.71,75.526,129.907,75.521z"/>
		<path fill="#331842" d="M137.362,67.692c0,0.266-0.093,0.492-0.279,0.68c-0.186,0.188-0.411,0.281-0.675,0.281
			c-0.264,0-0.489-0.094-0.675-0.281c-0.186-0.188-0.279-0.414-0.279-0.68s0.093-0.492,0.279-0.68
			c0.187-0.188,0.412-0.281,0.675-0.281c0.264,0,0.489,0.094,0.675,0.281C137.269,67.2,137.362,67.427,137.362,67.692z
			 M135.6,77.177v-7.109c0-0.229,0.079-0.423,0.237-0.582c0.158-0.159,0.348-0.238,0.57-0.238c0.223,0,0.413,0.08,0.571,0.238
			c0.158,0.159,0.239,0.353,0.244,0.582v7.109c-0.005,0.229-0.086,0.423-0.244,0.582c-0.158,0.159-0.348,0.238-0.571,0.238
			c-0.222,0-0.413-0.079-0.57-0.238C135.679,77.6,135.6,77.406,135.6,77.177z"/>
		<path fill="#331842" d="M150.763,73.622c0,1.219-0.424,2.25-1.273,3.094c-0.859,0.854-1.883,1.281-3.073,1.281
			c-1.2,0-2.225-0.427-3.073-1.281c-0.849-0.854-1.273-1.885-1.273-3.094c0-1.208,0.425-2.239,1.273-3.094
			c0.848-0.854,1.873-1.281,3.073-1.281c1.19,0,2.214,0.427,3.073,1.281c0.424,0.427,0.741,0.898,0.951,1.414
			C150.65,72.458,150.757,73.018,150.763,73.622z M146.417,70.88c-0.383,0-0.74,0.073-1.071,0.219
			c-0.331,0.146-0.618,0.343-0.861,0.59c-0.243,0.248-0.436,0.538-0.578,0.871c-0.143,0.333-0.213,0.688-0.213,1.062
			s0.071,0.729,0.213,1.062c0.142,0.333,0.335,0.624,0.578,0.871c0.243,0.248,0.53,0.444,0.861,0.59
			c0.331,0.146,0.688,0.219,1.071,0.219c0.377,0,0.732-0.073,1.063-0.219c0.331-0.146,0.619-0.344,0.865-0.594
			c0.246-0.25,0.439-0.54,0.582-0.871c0.142-0.331,0.213-0.684,0.213-1.059s-0.071-0.728-0.213-1.059
			c-0.143-0.331-0.336-0.621-0.582-0.871c-0.246-0.25-0.534-0.448-0.865-0.594C147.148,70.953,146.794,70.88,146.417,70.88z
			 M148.093,66.896l-1.552,1.555c-0.145,0.146-0.331,0.219-0.559,0.219c-0.233,0-0.426-0.077-0.578-0.23
			c-0.153-0.153-0.229-0.348-0.229-0.582c0-0.224,0.067-0.409,0.202-0.555l1.552-1.555c0.166-0.161,0.357-0.242,0.574-0.242
			c0.233,0,0.426,0.08,0.579,0.238c0.152,0.159,0.229,0.353,0.229,0.582C148.31,66.56,148.238,66.75,148.093,66.896z"/>
		<path fill="#331842" d="M156.798,70.052c0.688-0.536,1.498-0.805,2.429-0.805c0.543,0,1.06,0.107,1.549,0.32
			c0.489,0.214,0.919,0.504,1.292,0.871s0.667,0.8,0.885,1.297c0.217,0.498,0.326,1.027,0.326,1.59v3.852
			c0,0.229-0.079,0.423-0.237,0.582c-0.158,0.159-0.348,0.238-0.57,0.238c-0.228,0-0.42-0.079-0.579-0.238
			c-0.158-0.159-0.236-0.353-0.236-0.582v-3.852c0-0.333-0.065-0.648-0.194-0.945s-0.304-0.556-0.523-0.777
			c-0.22-0.221-0.478-0.397-0.772-0.527c-0.295-0.13-0.608-0.195-0.939-0.195c-0.336,0-0.65,0.064-0.943,0.191
			c-0.292,0.128-0.55,0.304-0.772,0.527c-0.223,0.224-0.397,0.484-0.524,0.781c-0.127,0.297-0.19,0.612-0.19,0.945v3.852
			c0,0.229-0.079,0.423-0.237,0.582c-0.158,0.159-0.348,0.238-0.57,0.238c-0.228,0-0.42-0.079-0.578-0.238
			c-0.158-0.159-0.237-0.353-0.237-0.582v-7.109c0-0.224,0.079-0.417,0.237-0.578c0.158-0.161,0.351-0.242,0.578-0.242
			c0.223,0,0.413,0.081,0.57,0.242C156.719,69.651,156.798,69.838,156.798,70.052z"/>
		<path fill="#331842" d="M59.34,89.052c0.688-0.536,1.498-0.805,2.43-0.805c0.543,0,1.06,0.107,1.548,0.32
			c0.489,0.214,0.919,0.504,1.292,0.871c0.372,0.367,0.667,0.8,0.885,1.297c0.217,0.498,0.326,1.027,0.326,1.59v3.852
			c0,0.229-0.079,0.423-0.237,0.582c-0.158,0.159-0.348,0.238-0.57,0.238c-0.228,0-0.42-0.079-0.578-0.238
			c-0.158-0.159-0.237-0.353-0.237-0.582v-3.852c0-0.333-0.065-0.648-0.194-0.945c-0.13-0.297-0.304-0.556-0.524-0.777
			c-0.22-0.221-0.478-0.397-0.772-0.527c-0.295-0.13-0.608-0.195-0.939-0.195c-0.336,0-0.651,0.064-0.943,0.191
			c-0.292,0.128-0.55,0.304-0.772,0.527c-0.223,0.224-0.397,0.484-0.524,0.781s-0.19,0.612-0.19,0.945v3.852
			c0,0.229-0.079,0.423-0.236,0.582c-0.158,0.159-0.348,0.238-0.57,0.238c-0.228,0-0.421-0.079-0.579-0.238
			c-0.158-0.159-0.237-0.353-0.237-0.582v-7.109c0-0.224,0.079-0.417,0.237-0.578c0.158-0.161,0.351-0.242,0.579-0.242
			c0.222,0,0.412,0.081,0.57,0.242C59.262,88.651,59.34,88.838,59.34,89.052z"/>
		<path fill="#331842" d="M76.832,94.536c0.233,0,0.426,0.077,0.578,0.23c0.153,0.154,0.229,0.348,0.229,0.582
			c0,0.229-0.078,0.425-0.233,0.586c-0.802,0.708-1.749,1.062-2.84,1.062c-1.201,0-2.225-0.427-3.074-1.281
			c-0.849-0.854-1.273-1.885-1.273-3.094c0-1.208,0.424-2.239,1.273-3.094c0.849-0.854,1.873-1.281,3.074-1.281
			c1.19,0,2.214,0.427,3.073,1.281c0.424,0.422,0.743,0.892,0.955,1.41c0.212,0.519,0.318,1.08,0.318,1.684
			c0,0.234-0.079,0.429-0.237,0.582c-0.158,0.154-0.351,0.23-0.578,0.23H71.95c0.088,0.287,0.217,0.548,0.388,0.785
			c0.17,0.237,0.371,0.44,0.602,0.609c0.23,0.169,0.483,0.301,0.76,0.395s0.565,0.141,0.866,0.141c0.341,0,0.654-0.052,0.939-0.156
			c0.285-0.104,0.548-0.26,0.792-0.469C76.451,94.609,76.63,94.542,76.832,94.536z M77.181,91.81
			c-0.088-0.286-0.218-0.548-0.392-0.785c-0.173-0.237-0.375-0.44-0.605-0.609c-0.23-0.169-0.484-0.301-0.761-0.395
			s-0.562-0.141-0.857-0.141s-0.583,0.047-0.862,0.141s-0.535,0.226-0.768,0.395c-0.233,0.169-0.435,0.373-0.605,0.609
			c-0.171,0.237-0.297,0.499-0.38,0.785H77.181z"/>
		<path fill="#331842" d="M90.403,96.036c-0.776,0.641-1.684,0.961-2.724,0.961c-1.2,0-2.225-0.427-3.073-1.281
			c-0.849-0.854-1.273-1.885-1.273-3.094c0-1.208,0.424-2.239,1.273-3.094c0.848-0.854,1.873-1.281,3.073-1.281
			c1.19,0,2.214,0.427,3.074,1.281c0.849,0.854,1.272,1.886,1.272,3.094v4.344c0,0.375-0.057,0.729-0.17,1.062
			c-0.114,0.333-0.272,0.639-0.474,0.918c-0.202,0.278-0.44,0.53-0.714,0.754c-0.274,0.224-0.571,0.413-0.889,0.566
			c-0.318,0.153-0.651,0.272-0.998,0.355c-0.347,0.083-0.693,0.125-1.04,0.125c-0.414,0-0.82-0.054-1.218-0.16
			c-0.398-0.107-0.776-0.265-1.133-0.473c-0.357-0.208-0.685-0.466-0.982-0.773c-0.297-0.308-0.55-0.651-0.756-1.031
			c-0.083-0.12-0.125-0.266-0.125-0.438c0-0.234,0.078-0.429,0.233-0.582c0.155-0.154,0.35-0.23,0.582-0.23
			c0.155,0,0.283,0.036,0.384,0.109c0.101,0.073,0.239,0.234,0.416,0.484c0.176,0.25,0.331,0.44,0.465,0.57
			c0.59,0.594,1.301,0.891,2.134,0.891c0.838,0,1.547-0.292,2.127-0.875c0.357-0.438,0.535-0.862,0.535-1.273V96.036z M87.679,89.88
			c-0.383,0-0.74,0.073-1.071,0.219c-0.332,0.146-0.619,0.343-0.862,0.59c-0.243,0.248-0.436,0.538-0.578,0.871
			c-0.142,0.333-0.213,0.688-0.213,1.062s0.071,0.729,0.213,1.062c0.142,0.333,0.335,0.624,0.578,0.871
			c0.243,0.248,0.53,0.444,0.862,0.59c0.331,0.146,0.688,0.219,1.071,0.219c0.377,0,0.732-0.073,1.063-0.219
			c0.331-0.146,0.62-0.344,0.865-0.594s0.44-0.54,0.582-0.871c0.142-0.331,0.213-0.684,0.213-1.059s-0.071-0.728-0.213-1.059
			c-0.142-0.331-0.336-0.621-0.582-0.871s-0.534-0.448-0.865-0.594C88.411,89.953,88.056,89.88,87.679,89.88z"/>
		<path fill="#331842" d="M105.139,92.622c0,1.219-0.424,2.25-1.273,3.094c-0.859,0.854-1.883,1.281-3.073,1.281
			c-1.201,0-2.225-0.427-3.074-1.281c-0.849-0.854-1.273-1.885-1.273-3.094c0-1.208,0.424-2.239,1.273-3.094
			c0.849-0.854,1.873-1.281,3.074-1.281c1.19,0,2.214,0.427,3.073,1.281c0.424,0.427,0.741,0.898,0.951,1.414
			S105.133,92.018,105.139,92.622z M100.792,89.88c-0.383,0-0.74,0.073-1.071,0.219c-0.331,0.146-0.618,0.343-0.861,0.59
			c-0.243,0.248-0.436,0.538-0.578,0.871c-0.143,0.333-0.214,0.688-0.214,1.062s0.071,0.729,0.214,1.062
			c0.142,0.333,0.335,0.624,0.578,0.871c0.243,0.248,0.53,0.444,0.861,0.59c0.331,0.146,0.688,0.219,1.071,0.219
			c0.377,0,0.732-0.073,1.063-0.219c0.331-0.146,0.62-0.344,0.866-0.594c0.246-0.25,0.439-0.54,0.582-0.871
			c0.142-0.331,0.213-0.684,0.213-1.059s-0.071-0.728-0.213-1.059c-0.143-0.331-0.336-0.621-0.582-0.871
			c-0.246-0.25-0.535-0.448-0.866-0.594C101.524,89.953,101.17,89.88,100.792,89.88z"/>
		<path fill="#331842" d="M116.172,94.521c0.232,0,0.425,0.077,0.578,0.23c0.152,0.154,0.229,0.348,0.229,0.582
			c0,0.229-0.085,0.43-0.256,0.602c-0.802,0.708-1.746,1.062-2.833,1.062c-1.2,0-2.225-0.427-3.073-1.281
			c-0.849-0.854-1.273-1.885-1.273-3.094c0-1.208,0.424-2.239,1.273-3.094c0.849-0.854,1.873-1.281,3.073-1.281
			c1.092,0,2.036,0.354,2.833,1.062c0.187,0.167,0.279,0.373,0.279,0.617c0,0.234-0.076,0.43-0.229,0.586
			c-0.153,0.156-0.346,0.234-0.579,0.234c-0.197,0-0.373-0.062-0.528-0.188c-0.264-0.224-0.541-0.393-0.83-0.508
			c-0.29-0.114-0.605-0.172-0.947-0.172c-0.377,0-0.732,0.072-1.063,0.215c-0.332,0.144-0.621,0.339-0.87,0.586
			c-0.248,0.248-0.443,0.538-0.586,0.871c-0.142,0.333-0.213,0.69-0.213,1.07c0,0.38,0.071,0.737,0.213,1.07
			c0.143,0.333,0.338,0.624,0.586,0.871c0.249,0.248,0.538,0.443,0.87,0.586c0.331,0.144,0.686,0.215,1.063,0.215
			c0.342,0,0.657-0.056,0.947-0.168c0.29-0.112,0.563-0.28,0.822-0.504C115.805,94.583,115.976,94.526,116.172,94.521z"/>
		<path fill="#331842" d="M123.627,86.692c0,0.266-0.093,0.492-0.279,0.68c-0.186,0.188-0.411,0.281-0.675,0.281
			c-0.264,0-0.489-0.094-0.675-0.281c-0.186-0.188-0.279-0.414-0.279-0.68s0.093-0.492,0.279-0.68
			c0.187-0.188,0.412-0.281,0.675-0.281c0.264,0,0.489,0.094,0.675,0.281C123.535,86.2,123.627,86.427,123.627,86.692z
			 M121.866,96.177v-7.109c0-0.229,0.079-0.423,0.237-0.582c0.158-0.159,0.348-0.238,0.57-0.238c0.223,0,0.413,0.08,0.571,0.238
			c0.158,0.159,0.239,0.353,0.244,0.582v7.109c-0.005,0.229-0.086,0.423-0.244,0.582c-0.158,0.159-0.348,0.238-0.571,0.238
			c-0.222,0-0.413-0.079-0.57-0.238C121.945,96.6,121.866,96.406,121.866,96.177z"/>
		<path fill="#331842" d="M135.406,96.185v-0.156c-0.388,0.312-0.81,0.552-1.265,0.719c-0.456,0.167-0.942,0.25-1.459,0.25
			c-1.201,0-2.225-0.427-3.074-1.281c-0.849-0.854-1.273-1.885-1.273-3.094c0-1.208,0.424-2.239,1.273-3.094
			c0.849-0.854,1.873-1.281,3.074-1.281c1.19,0,2.214,0.427,3.073,1.281c0.849,0.854,1.273,1.886,1.273,3.094v3.562
			c0,0.224-0.079,0.416-0.237,0.574c-0.158,0.159-0.348,0.238-0.57,0.238c-0.228,0-0.42-0.079-0.578-0.238
			C135.485,96.6,135.406,96.409,135.406,96.185z M132.682,89.88c-0.383,0-0.74,0.073-1.071,0.219
			c-0.331,0.146-0.618,0.343-0.861,0.59c-0.243,0.248-0.436,0.538-0.578,0.871c-0.143,0.333-0.214,0.688-0.214,1.062
			s0.071,0.729,0.214,1.062c0.142,0.333,0.335,0.624,0.578,0.871c0.243,0.248,0.53,0.444,0.861,0.59
			c0.331,0.146,0.688,0.219,1.071,0.219c0.377,0,0.732-0.073,1.063-0.219c0.331-0.146,0.62-0.344,0.866-0.594
			c0.246-0.25,0.439-0.54,0.582-0.871c0.142-0.331,0.213-0.684,0.213-1.059s-0.071-0.728-0.213-1.059
			c-0.143-0.331-0.336-0.621-0.582-0.871c-0.246-0.25-0.535-0.448-0.866-0.594C133.414,89.953,133.06,89.88,132.682,89.88z"/>
		<path fill="#331842" d="M145.795,88.247c1.03,0,1.938,0.32,2.725,0.961V85.31c0-0.234,0.076-0.428,0.229-0.582
			c0.153-0.153,0.346-0.23,0.578-0.23c0.228,0,0.42,0.077,0.579,0.23c0.158,0.154,0.237,0.348,0.237,0.582v7.312
			c0,1.219-0.425,2.25-1.273,3.094c-0.859,0.854-1.884,1.281-3.074,1.281c-1.2,0-2.225-0.427-3.073-1.281
			c-0.849-0.854-1.273-1.885-1.273-3.094c0-1.208,0.424-2.239,1.273-3.094C143.571,88.674,144.595,88.247,145.795,88.247z
			 M148.52,92.622c0-0.375-0.071-0.728-0.214-1.059c-0.142-0.331-0.336-0.621-0.582-0.871s-0.534-0.448-0.865-0.594
			c-0.331-0.146-0.686-0.219-1.063-0.219c-0.383,0-0.74,0.073-1.071,0.219c-0.332,0.146-0.619,0.343-0.862,0.59
			c-0.243,0.248-0.436,0.538-0.578,0.871c-0.143,0.333-0.213,0.688-0.213,1.062s0.071,0.729,0.213,1.062
			c0.143,0.333,0.335,0.624,0.578,0.871c0.243,0.248,0.53,0.444,0.862,0.59c0.331,0.146,0.688,0.219,1.071,0.219
			c0.378,0,0.732-0.073,1.063-0.219c0.331-0.146,0.62-0.344,0.865-0.594s0.44-0.54,0.582-0.871
			C148.449,93.35,148.52,92.997,148.52,92.622z"/>
		<path fill="#331842" d="M161.633,96.185v-0.156c-0.388,0.312-0.81,0.552-1.265,0.719c-0.456,0.167-0.942,0.25-1.459,0.25
			c-1.201,0-2.225-0.427-3.074-1.281c-0.849-0.854-1.272-1.885-1.272-3.094c0-1.208,0.424-2.239,1.272-3.094
			c0.849-0.854,1.873-1.281,3.074-1.281c1.19,0,2.214,0.427,3.074,1.281c0.848,0.854,1.272,1.886,1.272,3.094v3.562
			c0,0.224-0.079,0.416-0.236,0.574c-0.158,0.159-0.348,0.238-0.571,0.238c-0.228,0-0.42-0.079-0.578-0.238
			C161.712,96.6,161.633,96.409,161.633,96.185z M158.909,89.88c-0.383,0-0.74,0.073-1.071,0.219
			c-0.332,0.146-0.619,0.343-0.862,0.59c-0.243,0.248-0.436,0.538-0.578,0.871c-0.143,0.333-0.213,0.688-0.213,1.062
			s0.071,0.729,0.213,1.062c0.142,0.333,0.335,0.624,0.578,0.871c0.243,0.248,0.53,0.444,0.862,0.59
			c0.331,0.146,0.688,0.219,1.071,0.219c0.377,0,0.732-0.073,1.063-0.219c0.331-0.146,0.62-0.344,0.866-0.594s0.44-0.54,0.582-0.871
			c0.142-0.331,0.213-0.684,0.213-1.059s-0.071-0.728-0.213-1.059c-0.142-0.331-0.336-0.621-0.582-0.871s-0.535-0.448-0.866-0.594
			C159.641,89.953,159.287,89.88,158.909,89.88z"/>
	</g>
</g>
</svg>
