<?xml version="1.0" encoding="utf-8"?>
<!-- Generator: Adobe Illustrator 16.0.0, SVG Export Plug-In . SVG Version: 6.00 Build 0)  -->
<!DOCTYPE svg PUBLIC "-//W3C//DTD SVG 1.1//EN" "http://www.w3.org/Graphics/SVG/1.1/DTD/svg11.dtd">
<svg version="1.1" id="Capa_1" xmlns="http://www.w3.org/2000/svg" xmlns:xlink="http://www.w3.org/1999/xlink" x="0px" y="0px"
	 width="530.079px" height="139.286px" viewBox="0 0 530.079 139.286" enable-background="new 0 0 530.079 139.286"
	 xml:space="preserve">
<g>
	<circle fill="none" stroke="#A0C219" stroke-width="5" stroke-miterlimit="10" cx="142.76" cy="116.262" r="20.523"/>
	<g>
		<path fill="#E9496E" d="M147.012,105.579c-0.092,4.646-0.139,9.265-0.139,13.856c0,2.302,0.013,4.599,0.04,6.892l-4.909,0.192
			c-0.093-5.913-0.205-11.388-0.336-16.424c-1.109,0.167-2.613,0.581-4.514,1.239l-0.95-3.231l5.503-2.597L147.012,105.579z"/>
	</g>
	<circle fill="none" stroke="#A0C219" stroke-width="5" stroke-miterlimit="10" cx="206.093" cy="116.262" r="20.523"/>
	<g>
		<path fill="#E9496E" d="M199.665,112.427c-0.066-0.591-0.099-1.136-0.099-1.638c0-1.763,0.429-3.03,1.287-3.81
			c1.096-0.993,2.495-1.588,4.197-1.785c0.606-0.067,1.2-0.104,1.781-0.104c1.042,0,2.045,0.107,3.009,0.324
			c1.504,0.346,2.639,1.023,3.405,2.037c0.62,0.846,0.93,1.928,0.93,3.246c0,0.256-0.007,0.526-0.02,0.812
			c-0.159,1.691-0.841,3.249-2.049,4.67c-1.208,1.422-3.296,3.456-6.266,6.102l8.651,0.045l-0.06,3.703
			c-3.788,0.129-8.67,0.192-14.649,0.192l-0.455-4.028c3.589-2.893,6.149-5.115,7.681-6.67c1.399-1.426,2.098-2.829,2.098-4.206
			v-0.368c-0.145-1.477-0.977-2.214-2.494-2.214h-0.079c-1.32,0.029-1.979,0.925-1.979,2.687c0,0.334,0.02,0.693,0.06,1.076
			L199.665,112.427z"/>
	</g>
	<circle fill="none" stroke="#A0C219" stroke-width="5" stroke-miterlimit="10" cx="269.426" cy="116.262" r="20.523"/>
	<g>
		<path fill="#E9496E" d="M262.345,112.279c-0.053-0.521-0.079-1.008-0.079-1.461c0-1.563,0.317-2.769,0.95-3.614
			c0.805-1.082,2.125-1.752,3.958-2.008c0.898-0.128,1.756-0.191,2.574-0.191c0.832,0,1.623,0.068,2.375,0.207
			c1.465,0.267,2.637,0.86,3.515,1.785c0.877,0.926,1.349,2.194,1.416,3.809v0.441c0,1.396-0.291,2.416-0.871,3.056
			c-0.647,0.718-1.709,1.259-3.187,1.622c1.227,0.14,2.146,0.472,2.76,0.996c0.615,0.526,1.041,1.232,1.277,2.117
			c0.133,0.492,0.197,1.033,0.197,1.625c0,0.481-0.046,1.002-0.141,1.563c-0.196,1.229-0.866,2.292-2.008,3.188
			c-1.143,0.896-2.899,1.361-5.275,1.4h-0.314c-2.23,0-4.014-0.434-5.347-1.299c-1.386-0.887-2.079-2.789-2.079-5.71v-0.089
			l5.127-0.223c-0.013,0.168-0.021,0.33-0.021,0.487c0,2.065,0.728,3.134,2.18,3.202c0.104,0.01,0.205,0.016,0.297,0.016
			c1.373,0,2.197-0.541,2.477-1.625c0.078-0.305,0.119-0.595,0.119-0.871c0-0.775-0.299-1.451-0.893-2.021
			c-0.816-0.769-2.171-1.151-4.059-1.151l-0.237-2.804c0.224,0.01,0.437,0.015,0.633,0.015c1.649,0,2.785-0.354,3.403-1.062
			c0.582-0.659,0.871-1.515,0.871-2.568c0-0.206-0.014-0.418-0.039-0.634c-0.118-1.259-0.877-1.889-2.275-1.889h-0.257
			c-1.388,0.068-2.079,1.102-2.079,3.099c0,0.235,0.007,0.487,0.021,0.752L262.345,112.279z"/>
	</g>
</g>
</svg>
