<?xml version="1.0" encoding="utf-8"?>
<!-- Generator: Adobe Illustrator 16.0.0, SVG Export Plug-In . SVG Version: 6.00 Build 0)  -->
<!DOCTYPE svg PUBLIC "-//W3C//DTD SVG 1.1//EN" "http://www.w3.org/Graphics/SVG/1.1/DTD/svg11.dtd">
<svg version="1.1" id="Capa_1" xmlns="http://www.w3.org/2000/svg" xmlns:xlink="http://www.w3.org/1999/xlink" x="0px" y="0px"
	 width="187.73px" height="80.693px" viewBox="0 0 187.73 80.693" enable-background="new 0 0 187.73 80.693" xml:space="preserve">
<rect x="0.096" y="0.226" transform="matrix(1 -0.0024 0.0024 1 -0.0969 0.2262)" fill="#ADC710" width="187.538" height="80.241"/>
<g>
	<g>
		<path fill="#331842" d="M59.724,17.407c0.228,0,0.422,0.081,0.582,0.242s0.241,0.357,0.241,0.586s-0.081,0.424-0.241,0.586
			s-0.354,0.242-0.582,0.242h-7.179c-0.119,0-0.228-0.021-0.326-0.062c-0.099-0.042-0.186-0.1-0.26-0.176
			c-0.075-0.076-0.133-0.163-0.175-0.262s-0.062-0.208-0.062-0.328V7.391c0-0.115,0.021-0.223,0.062-0.324s0.1-0.19,0.175-0.266
			c0.075-0.076,0.162-0.134,0.26-0.176c0.098-0.042,0.207-0.062,0.326-0.062h7.179c0.228,0,0.422,0.081,0.582,0.242
			s0.241,0.357,0.241,0.586s-0.081,0.424-0.241,0.586s-0.354,0.242-0.582,0.242h-6.356v3.766h4.563c0.228,0,0.422,0.081,0.582,0.242
			s0.241,0.357,0.241,0.586s-0.081,0.424-0.241,0.586s-0.354,0.242-0.582,0.242h-4.563v3.766H59.724z"/>
		<path fill="#331842" d="M64.789,18.25V7.383c0-0.229,0.077-0.423,0.229-0.582s0.346-0.238,0.578-0.238
			c0.233,0,0.426,0.08,0.578,0.238c0.153,0.159,0.229,0.353,0.229,0.582V17.43h0.372c0.223,0,0.413,0.08,0.57,0.238
			c0.158,0.159,0.237,0.353,0.237,0.582c0,0.224-0.079,0.416-0.237,0.574c-0.157,0.159-0.348,0.238-0.57,0.238h-1.188
			c-0.223,0-0.411-0.08-0.566-0.238S64.789,18.475,64.789,18.25z"/>
		<path fill="#331842" d="M82.796,6.563c1.708,0,3.169,0.612,4.385,1.836c0.61,0.615,1.067,1.285,1.37,2.012
			c0.302,0.727,0.454,1.527,0.454,2.402c0,1.724-0.608,3.198-1.824,4.422c-1.211,1.219-2.673,1.828-4.385,1.828h-2.39
			c-0.114,0-0.222-0.022-0.322-0.066c-0.101-0.044-0.189-0.103-0.264-0.176s-0.134-0.16-0.178-0.262s-0.066-0.209-0.066-0.324V7.391
			c0-0.115,0.022-0.223,0.066-0.324s0.104-0.189,0.178-0.262s0.163-0.131,0.264-0.176c0.101-0.044,0.208-0.066,0.322-0.066H82.796z
			 M82.796,17.407c1.257,0,2.331-0.448,3.221-1.344c0.45-0.453,0.786-0.947,1.009-1.48s0.334-1.124,0.334-1.77
			c0-1.26-0.448-2.341-1.343-3.242c-0.896-0.901-1.969-1.352-3.221-1.352h-1.568v9.188H82.796z"/>
		<path fill="#331842" d="M99.954,16.602c0.232,0,0.425,0.077,0.578,0.23c0.152,0.154,0.229,0.348,0.229,0.582
			c0,0.229-0.077,0.424-0.232,0.586c-0.802,0.708-1.749,1.062-2.841,1.062c-1.2,0-2.225-0.427-3.073-1.281
			c-0.849-0.854-1.273-1.885-1.273-3.094s0.425-2.24,1.273-3.094c0.848-0.854,1.873-1.281,3.073-1.281
			c1.19,0,2.215,0.427,3.073,1.281c0.424,0.422,0.743,0.892,0.955,1.41c0.212,0.518,0.318,1.08,0.318,1.684
			c0,0.234-0.079,0.428-0.237,0.582c-0.158,0.154-0.351,0.23-0.578,0.23h-6.147c0.088,0.287,0.217,0.548,0.388,0.785
			s0.371,0.44,0.602,0.609s0.483,0.301,0.761,0.395c0.276,0.094,0.565,0.141,0.865,0.141c0.342,0,0.654-0.052,0.939-0.156
			s0.548-0.26,0.792-0.469C99.573,16.675,99.752,16.607,99.954,16.602z M100.303,13.875c-0.088-0.287-0.218-0.548-0.392-0.785
			c-0.174-0.237-0.375-0.44-0.605-0.609s-0.484-0.301-0.761-0.395c-0.276-0.094-0.562-0.141-0.857-0.141s-0.582,0.047-0.861,0.141
			s-0.536,0.225-0.769,0.395s-0.435,0.373-0.605,0.609s-0.298,0.499-0.38,0.785H100.303z"/>
		<path fill="#331842" d="M108.046,11.125v0.156c0.388-0.312,0.81-0.552,1.265-0.719c0.456-0.167,0.942-0.25,1.459-0.25
			c0.228,0,0.472,0.016,0.733,0.047s0.501,0.087,0.722,0.168s0.402,0.191,0.547,0.332c0.145,0.141,0.217,0.323,0.217,0.547
			c0,0.115-0.022,0.221-0.066,0.32s-0.103,0.186-0.175,0.262s-0.158,0.134-0.256,0.176c-0.099,0.042-0.205,0.062-0.318,0.062
			c-0.099,0-0.212-0.029-0.342-0.086c-0.326-0.13-0.68-0.195-1.063-0.195c-0.378,0-0.732,0.072-1.063,0.215s-0.62,0.338-0.865,0.586
			s-0.44,0.538-0.583,0.871c-0.142,0.333-0.213,0.69-0.213,1.07v3.562c0,0.224-0.079,0.416-0.237,0.574s-0.348,0.238-0.571,0.238
			c-0.228,0-0.42-0.08-0.578-0.238c-0.158-0.159-0.236-0.35-0.236-0.574v-7.125c0-0.224,0.079-0.416,0.236-0.574
			c0.158-0.159,0.351-0.238,0.578-0.238c0.223,0,0.413,0.08,0.571,0.238S108.046,10.901,108.046,11.125z"/>
		<path fill="#331842" d="M123.697,16.602c0.232,0,0.426,0.077,0.578,0.23s0.229,0.348,0.229,0.582c0,0.229-0.078,0.424-0.233,0.586
			c-0.802,0.708-1.749,1.062-2.841,1.062c-1.2,0-2.225-0.427-3.073-1.281s-1.273-1.885-1.273-3.094s0.424-2.24,1.273-3.094
			s1.873-1.281,3.073-1.281c1.19,0,2.215,0.427,3.074,1.281c0.424,0.422,0.743,0.892,0.955,1.41s0.318,1.08,0.318,1.684
			c0,0.234-0.079,0.428-0.237,0.582s-0.351,0.23-0.579,0.23h-6.146c0.088,0.287,0.217,0.548,0.388,0.785
			c0.171,0.237,0.371,0.44,0.602,0.609s0.484,0.301,0.761,0.395s0.565,0.141,0.865,0.141c0.342,0,0.655-0.052,0.939-0.156
			c0.284-0.104,0.548-0.26,0.792-0.469C123.317,16.675,123.495,16.607,123.697,16.602z M124.046,13.875
			c-0.088-0.287-0.218-0.548-0.392-0.785c-0.173-0.237-0.375-0.44-0.605-0.609c-0.23-0.169-0.483-0.301-0.76-0.395
			s-0.563-0.141-0.858-0.141s-0.582,0.047-0.861,0.141s-0.535,0.225-0.769,0.395c-0.232,0.169-0.435,0.373-0.605,0.609
			c-0.17,0.237-0.297,0.499-0.38,0.785H124.046z"/>
		<path fill="#331842" d="M136.811,16.586c0.233,0,0.426,0.077,0.578,0.23c0.153,0.154,0.229,0.348,0.229,0.582
			c0,0.229-0.086,0.43-0.256,0.602c-0.802,0.708-1.747,1.062-2.833,1.062c-1.201,0-2.225-0.427-3.074-1.281
			s-1.272-1.885-1.272-3.094s0.424-2.24,1.272-3.094s1.873-1.281,3.074-1.281c1.092,0,2.036,0.354,2.833,1.062
			c0.186,0.167,0.279,0.373,0.279,0.617c0,0.234-0.077,0.43-0.229,0.586s-0.345,0.234-0.578,0.234c-0.197,0-0.373-0.062-0.528-0.188
			c-0.264-0.224-0.541-0.393-0.831-0.508c-0.29-0.115-0.605-0.172-0.947-0.172c-0.377,0-0.732,0.072-1.063,0.215
			c-0.332,0.143-0.621,0.338-0.87,0.586s-0.444,0.538-0.586,0.871s-0.213,0.69-0.213,1.07s0.071,0.737,0.213,1.07
			s0.337,0.624,0.586,0.871s0.538,0.443,0.87,0.586c0.331,0.143,0.686,0.215,1.063,0.215c0.341,0,0.657-0.056,0.947-0.168
			c0.29-0.112,0.564-0.28,0.823-0.504C136.443,16.649,136.614,16.592,136.811,16.586z"/>
		<path fill="#331842" d="M143.684,18.243c0,0.229-0.079,0.423-0.237,0.582c-0.158,0.159-0.351,0.238-0.578,0.238
			c-0.223,0-0.413-0.08-0.57-0.238c-0.158-0.159-0.237-0.353-0.237-0.582V7.383c0-0.229,0.079-0.423,0.237-0.582
			c0.157-0.159,0.348-0.238,0.57-0.238s0.413,0.08,0.57,0.238s0.239,0.353,0.245,0.582v3.75c0.688-0.537,1.498-0.805,2.429-0.805
			c0.543,0,1.06,0.107,1.548,0.32s0.919,0.504,1.292,0.871c0.372,0.367,0.667,0.799,0.885,1.297c0.217,0.498,0.326,1.027,0.326,1.59
			v3.836c-0.006,0.229-0.087,0.423-0.245,0.582c-0.158,0.159-0.348,0.238-0.57,0.238s-0.413-0.08-0.57-0.238
			c-0.158-0.159-0.237-0.353-0.237-0.582v-3.836c0-0.333-0.065-0.648-0.194-0.945c-0.129-0.297-0.304-0.556-0.524-0.777
			c-0.22-0.221-0.477-0.397-0.772-0.527s-0.608-0.195-0.939-0.195c-0.336,0-0.65,0.064-0.943,0.191
			c-0.292,0.127-0.55,0.303-0.772,0.527s-0.397,0.484-0.524,0.781s-0.19,0.612-0.19,0.945V18.243z"/>
		<path fill="#331842" d="M163.255,14.688c0,1.219-0.424,2.25-1.272,3.094c-0.859,0.854-1.884,1.281-3.074,1.281
			c-1.201,0-2.225-0.427-3.074-1.281s-1.272-1.885-1.272-3.094s0.424-2.24,1.272-3.094s1.873-1.281,3.074-1.281
			c1.19,0,2.214,0.427,3.074,1.281c0.424,0.427,0.741,0.898,0.95,1.414C163.143,13.524,163.25,14.084,163.255,14.688z
			 M158.909,11.946c-0.383,0-0.74,0.073-1.071,0.219c-0.332,0.146-0.619,0.342-0.862,0.59s-0.436,0.538-0.578,0.871
			s-0.213,0.688-0.213,1.062s0.071,0.729,0.213,1.062s0.335,0.624,0.578,0.871s0.53,0.444,0.862,0.59
			c0.331,0.146,0.688,0.219,1.071,0.219c0.377,0,0.732-0.073,1.063-0.219s0.62-0.344,0.866-0.594s0.44-0.541,0.582-0.871
			s0.213-0.684,0.213-1.059s-0.071-0.728-0.213-1.059s-0.336-0.621-0.582-0.871s-0.535-0.448-0.866-0.594
			S159.286,11.946,158.909,11.946z"/>
		<path fill="#331842" d="M27.298,36.235c0,0.229-0.081,0.424-0.241,0.586s-0.354,0.242-0.582,0.242s-0.422-0.081-0.582-0.242
			s-0.241-0.357-0.241-0.586V25.391c0-0.229,0.081-0.424,0.241-0.586s0.354-0.242,0.582-0.242s0.422,0.081,0.582,0.242
			s0.241,0.357,0.241,0.586V36.235z"/>
		<path fill="#331842" d="M33.66,29.118c0.688-0.537,1.498-0.805,2.429-0.805c0.543,0,1.06,0.107,1.548,0.32
			s0.919,0.504,1.292,0.871c0.372,0.367,0.667,0.799,0.885,1.297c0.217,0.498,0.326,1.027,0.326,1.59v3.852
			c0,0.229-0.079,0.423-0.237,0.582c-0.158,0.159-0.348,0.238-0.57,0.238c-0.228,0-0.42-0.08-0.578-0.238
			c-0.158-0.159-0.237-0.353-0.237-0.582v-3.852c0-0.333-0.065-0.648-0.194-0.945c-0.129-0.297-0.304-0.556-0.524-0.777
			c-0.22-0.221-0.477-0.397-0.772-0.527s-0.608-0.195-0.939-0.195c-0.336,0-0.65,0.064-0.943,0.191
			c-0.292,0.127-0.55,0.303-0.772,0.527s-0.397,0.484-0.524,0.781s-0.19,0.612-0.19,0.945v3.852c0,0.229-0.079,0.423-0.237,0.582
			c-0.158,0.159-0.348,0.238-0.57,0.238c-0.228,0-0.421-0.08-0.578-0.238c-0.158-0.159-0.237-0.353-0.237-0.582v-7.109
			c0-0.224,0.079-0.417,0.237-0.578c0.157-0.162,0.351-0.242,0.578-0.242c0.222,0,0.412,0.081,0.57,0.242
			C33.581,28.717,33.66,28.904,33.66,29.118z"/>
		<path fill="#331842" d="M45.299,28.313h0.364v-2.938c0-0.224,0.079-0.416,0.237-0.574s0.351-0.238,0.579-0.238
			c0.222,0,0.412,0.08,0.57,0.238c0.158,0.159,0.236,0.35,0.236,0.574v2.938h0.971c0.222,0,0.411,0.08,0.566,0.238
			s0.232,0.35,0.232,0.574c0,0.229-0.077,0.423-0.232,0.582s-0.344,0.238-0.566,0.238h-0.971v3.93c0,1.037,0.518,1.555,1.553,1.555
			c0.222,0,0.411,0.08,0.566,0.238s0.233,0.35,0.233,0.574c0,0.229-0.078,0.423-0.233,0.582s-0.344,0.238-0.566,0.238
			c-2.116,0-3.175-1.062-3.175-3.188v-3.93h-0.364c-0.218,0-0.405-0.08-0.563-0.238s-0.237-0.353-0.237-0.582
			c0-0.224,0.079-0.416,0.237-0.574S45.081,28.313,45.299,28.313z"/>
		<path fill="#331842" d="M60.539,34.602c0.233,0,0.425,0.077,0.578,0.23s0.229,0.348,0.229,0.582c0,0.229-0.078,0.424-0.233,0.586
			c-0.802,0.708-1.749,1.062-2.84,1.062c-1.201,0-2.226-0.427-3.074-1.281c-0.849-0.854-1.273-1.885-1.273-3.094
			s0.424-2.24,1.273-3.094c0.848-0.854,1.873-1.281,3.074-1.281c1.189,0,2.214,0.427,3.073,1.281
			c0.424,0.422,0.742,0.892,0.955,1.41s0.318,1.08,0.318,1.684c0,0.234-0.079,0.428-0.236,0.582c-0.158,0.154-0.351,0.23-0.578,0.23
			h-6.147c0.088,0.287,0.218,0.548,0.389,0.785c0.17,0.237,0.371,0.44,0.602,0.609c0.23,0.169,0.483,0.301,0.76,0.395
			s0.565,0.141,0.866,0.141c0.341,0,0.654-0.052,0.938-0.156c0.285-0.104,0.549-0.26,0.792-0.469
			C60.158,34.675,60.337,34.607,60.539,34.602z M60.888,31.875c-0.088-0.287-0.219-0.548-0.392-0.785
			c-0.174-0.237-0.375-0.44-0.605-0.609c-0.23-0.169-0.484-0.301-0.761-0.395c-0.277-0.094-0.562-0.141-0.857-0.141
			s-0.582,0.047-0.862,0.141c-0.279,0.094-0.536,0.225-0.768,0.395c-0.233,0.169-0.435,0.373-0.605,0.609s-0.298,0.499-0.381,0.785
			H60.888z"/>
		<path fill="#331842" d="M68.63,29.125v0.156c0.388-0.312,0.81-0.552,1.265-0.719s0.941-0.25,1.459-0.25
			c0.228,0,0.472,0.016,0.733,0.047c0.262,0.031,0.502,0.087,0.722,0.168c0.22,0.081,0.402,0.191,0.548,0.332
			c0.145,0.141,0.217,0.323,0.217,0.547c0,0.115-0.022,0.221-0.065,0.32c-0.044,0.099-0.103,0.186-0.175,0.262
			c-0.073,0.076-0.158,0.134-0.256,0.176s-0.205,0.062-0.318,0.062c-0.099,0-0.213-0.029-0.342-0.086
			c-0.326-0.13-0.681-0.195-1.063-0.195c-0.378,0-0.732,0.072-1.063,0.215s-0.619,0.338-0.865,0.586
			c-0.246,0.248-0.439,0.538-0.582,0.871s-0.213,0.69-0.213,1.07v3.562c0,0.224-0.079,0.416-0.237,0.574
			c-0.158,0.159-0.348,0.238-0.57,0.238c-0.228,0-0.42-0.08-0.578-0.238c-0.158-0.159-0.237-0.35-0.237-0.574v-7.125
			c0-0.224,0.079-0.416,0.237-0.574c0.158-0.159,0.351-0.238,0.578-0.238c0.223,0,0.413,0.08,0.57,0.238
			C68.552,28.71,68.63,28.901,68.63,29.125z"/>
		<path fill="#331842" d="M79.284,29.118c0.688-0.537,1.498-0.805,2.429-0.805c0.543,0,1.06,0.107,1.548,0.32
			s0.919,0.504,1.292,0.871c0.372,0.367,0.667,0.799,0.885,1.297c0.217,0.498,0.326,1.027,0.326,1.59v3.852
			c0,0.229-0.079,0.423-0.237,0.582c-0.158,0.159-0.348,0.238-0.57,0.238c-0.228,0-0.42-0.08-0.578-0.238
			c-0.158-0.159-0.237-0.353-0.237-0.582v-3.852c0-0.333-0.065-0.648-0.194-0.945c-0.129-0.297-0.304-0.556-0.524-0.777
			c-0.22-0.221-0.477-0.397-0.772-0.527s-0.608-0.195-0.939-0.195c-0.336,0-0.65,0.064-0.943,0.191
			c-0.292,0.127-0.55,0.303-0.772,0.527s-0.397,0.484-0.524,0.781s-0.19,0.612-0.19,0.945v3.852c0,0.229-0.079,0.423-0.237,0.582
			c-0.158,0.159-0.348,0.238-0.57,0.238c-0.228,0-0.421-0.08-0.578-0.238c-0.158-0.159-0.237-0.353-0.237-0.582v-7.109
			c0-0.224,0.079-0.417,0.237-0.578c0.157-0.162,0.351-0.242,0.578-0.242c0.222,0,0.412,0.081,0.57,0.242
			C79.205,28.717,79.284,28.904,79.284,29.118z"/>
		<path fill="#331842" d="M97.232,36.25v-0.156c-0.388,0.312-0.81,0.552-1.265,0.719s-0.942,0.25-1.459,0.25
			c-1.201,0-2.225-0.427-3.074-1.281s-1.272-1.885-1.272-3.094s0.424-2.24,1.272-3.094s1.873-1.281,3.074-1.281
			c1.19,0,2.214,0.427,3.074,1.281c0.848,0.854,1.272,1.885,1.272,3.094v3.562c0,0.224-0.079,0.416-0.236,0.574
			c-0.158,0.159-0.349,0.238-0.571,0.238c-0.228,0-0.42-0.08-0.578-0.238S97.232,36.475,97.232,36.25z M94.508,29.946
			c-0.383,0-0.74,0.073-1.071,0.219c-0.332,0.146-0.619,0.342-0.862,0.59s-0.436,0.538-0.578,0.871s-0.213,0.688-0.213,1.062
			s0.071,0.729,0.213,1.062s0.335,0.624,0.578,0.871s0.53,0.444,0.862,0.59c0.331,0.146,0.688,0.219,1.071,0.219
			c0.377,0,0.732-0.073,1.063-0.219s0.62-0.344,0.866-0.594s0.44-0.541,0.582-0.871s0.213-0.684,0.213-1.059
			s-0.071-0.728-0.213-1.059s-0.336-0.621-0.582-0.871s-0.535-0.448-0.866-0.594S94.886,29.946,94.508,29.946z"/>
		<path fill="#331842" d="M109.888,34.586c0.233,0,0.425,0.077,0.578,0.23s0.229,0.348,0.229,0.582c0,0.229-0.085,0.43-0.256,0.602
			c-0.803,0.708-1.747,1.062-2.833,1.062c-1.201,0-2.225-0.427-3.074-1.281s-1.273-1.885-1.273-3.094s0.424-2.24,1.273-3.094
			s1.873-1.281,3.074-1.281c1.092,0,2.036,0.354,2.833,1.062c0.186,0.167,0.279,0.373,0.279,0.617c0,0.234-0.077,0.43-0.229,0.586
			c-0.152,0.156-0.345,0.234-0.578,0.234c-0.196,0-0.372-0.062-0.527-0.188c-0.264-0.224-0.541-0.393-0.831-0.508
			s-0.605-0.172-0.947-0.172c-0.378,0-0.732,0.072-1.063,0.215s-0.621,0.338-0.869,0.586c-0.249,0.248-0.444,0.538-0.586,0.871
			c-0.143,0.333-0.214,0.69-0.214,1.07s0.071,0.737,0.214,1.07c0.142,0.333,0.337,0.624,0.586,0.871
			c0.248,0.248,0.538,0.443,0.869,0.586s0.686,0.215,1.063,0.215c0.341,0,0.657-0.056,0.947-0.168s0.564-0.28,0.823-0.504
			C109.521,34.649,109.691,34.592,109.888,34.586z"/>
		<path fill="#331842" d="M117.344,26.758c0,0.266-0.093,0.492-0.279,0.68c-0.187,0.188-0.411,0.281-0.675,0.281
			s-0.489-0.094-0.675-0.281s-0.279-0.414-0.279-0.68s0.093-0.492,0.279-0.68s0.411-0.281,0.675-0.281s0.489,0.094,0.675,0.281
			C117.25,26.266,117.344,26.493,117.344,26.758z M115.582,36.243v-7.109c0-0.229,0.079-0.423,0.236-0.582
			c0.158-0.159,0.348-0.238,0.571-0.238c0.222,0,0.413,0.08,0.57,0.238s0.239,0.353,0.245,0.582v7.109
			c-0.005,0.229-0.087,0.423-0.245,0.582s-0.348,0.238-0.57,0.238c-0.223,0-0.413-0.08-0.571-0.238
			C115.661,36.666,115.582,36.472,115.582,36.243z"/>
		<path fill="#331842" d="M130.744,32.688c0,1.219-0.424,2.25-1.272,3.094c-0.859,0.854-1.884,1.281-3.074,1.281
			c-1.201,0-2.225-0.427-3.074-1.281s-1.272-1.885-1.272-3.094s0.424-2.24,1.272-3.094s1.873-1.281,3.074-1.281
			c1.19,0,2.214,0.427,3.074,1.281c0.424,0.427,0.741,0.898,0.95,1.414C130.632,31.524,130.739,32.084,130.744,32.688z
			 M126.398,29.946c-0.383,0-0.74,0.073-1.071,0.219c-0.332,0.146-0.619,0.342-0.862,0.59s-0.436,0.538-0.578,0.871
			s-0.213,0.688-0.213,1.062s0.071,0.729,0.213,1.062s0.335,0.624,0.578,0.871s0.53,0.444,0.862,0.59
			c0.331,0.146,0.688,0.219,1.071,0.219c0.377,0,0.732-0.073,1.063-0.219s0.62-0.344,0.866-0.594s0.44-0.541,0.582-0.871
			s0.213-0.684,0.213-1.059s-0.071-0.728-0.213-1.059s-0.336-0.621-0.582-0.871s-0.535-0.448-0.866-0.594
			S126.775,29.946,126.398,29.946z"/>
		<path fill="#331842" d="M136.779,29.118c0.688-0.537,1.498-0.805,2.43-0.805c0.543,0,1.059,0.107,1.548,0.32
			c0.489,0.213,0.92,0.504,1.292,0.871s0.667,0.799,0.885,1.297s0.326,1.027,0.326,1.59v3.852c0,0.229-0.079,0.423-0.237,0.582
			c-0.158,0.159-0.348,0.238-0.57,0.238c-0.228,0-0.421-0.08-0.578-0.238c-0.158-0.159-0.237-0.353-0.237-0.582v-3.852
			c0-0.333-0.064-0.648-0.193-0.945c-0.13-0.297-0.305-0.556-0.524-0.777s-0.477-0.397-0.772-0.527s-0.608-0.195-0.939-0.195
			c-0.337,0-0.651,0.064-0.943,0.191c-0.292,0.127-0.55,0.303-0.772,0.527c-0.222,0.224-0.396,0.484-0.523,0.781
			s-0.19,0.612-0.19,0.945v3.852c0,0.229-0.079,0.423-0.236,0.582c-0.158,0.159-0.349,0.238-0.571,0.238
			c-0.228,0-0.42-0.08-0.578-0.238s-0.237-0.353-0.237-0.582v-7.109c0-0.224,0.079-0.417,0.237-0.578s0.351-0.242,0.578-0.242
			c0.222,0,0.413,0.081,0.571,0.242C136.7,28.717,136.779,28.904,136.779,29.118z"/>
		<path fill="#331842" d="M154.729,36.25v-0.156c-0.388,0.312-0.81,0.552-1.266,0.719c-0.455,0.167-0.941,0.25-1.459,0.25
			c-1.2,0-2.225-0.427-3.073-1.281s-1.273-1.885-1.273-3.094s0.424-2.24,1.273-3.094s1.873-1.281,3.073-1.281
			c1.19,0,2.215,0.427,3.074,1.281c0.848,0.854,1.273,1.885,1.273,3.094v3.562c0,0.224-0.079,0.416-0.237,0.574
			s-0.348,0.238-0.571,0.238c-0.228,0-0.42-0.08-0.578-0.238C154.807,36.666,154.729,36.475,154.729,36.25z M152.004,29.946
			c-0.383,0-0.74,0.073-1.071,0.219c-0.332,0.146-0.619,0.342-0.862,0.59s-0.436,0.538-0.578,0.871
			c-0.142,0.333-0.213,0.688-0.213,1.062s0.071,0.729,0.213,1.062c0.143,0.333,0.335,0.624,0.578,0.871s0.53,0.444,0.862,0.59
			c0.331,0.146,0.688,0.219,1.071,0.219c0.378,0,0.732-0.073,1.063-0.219s0.62-0.344,0.865-0.594c0.246-0.25,0.44-0.541,0.582-0.871
			c0.143-0.331,0.214-0.684,0.214-1.059s-0.071-0.728-0.214-1.059c-0.142-0.331-0.336-0.621-0.582-0.871
			c-0.246-0.25-0.534-0.448-0.865-0.594S152.382,29.946,152.004,29.946z"/>
		<path fill="#331842" d="M160.693,36.25V25.383c0-0.229,0.077-0.423,0.229-0.582c0.152-0.159,0.345-0.238,0.578-0.238
			c0.232,0,0.426,0.08,0.578,0.238s0.229,0.353,0.229,0.582V35.43h0.373c0.223,0,0.413,0.08,0.57,0.238
			c0.158,0.159,0.237,0.353,0.237,0.582c0,0.224-0.079,0.416-0.237,0.574c-0.158,0.159-0.348,0.238-0.57,0.238h-1.188
			c-0.223,0-0.411-0.08-0.566-0.238S160.693,36.475,160.693,36.25z"/>
		<path fill="#331842" d="M28.657,54.235c0,0.229-0.081,0.424-0.241,0.586s-0.354,0.242-0.582,0.242s-0.422-0.081-0.582-0.242
			s-0.241-0.357-0.241-0.586v-4.594h-5.534v4.594c0,0.229-0.08,0.424-0.241,0.586s-0.354,0.242-0.582,0.242
			c-0.228,0-0.422-0.081-0.582-0.242c-0.161-0.162-0.241-0.357-0.241-0.586V43.391c0-0.229,0.08-0.424,0.241-0.586
			c0.16-0.162,0.354-0.242,0.582-0.242c0.228,0,0.421,0.081,0.582,0.242s0.241,0.357,0.241,0.586v4.594h5.534v-4.594
			c0-0.229,0.081-0.424,0.241-0.586s0.354-0.242,0.582-0.242s0.422,0.081,0.582,0.242s0.241,0.357,0.241,0.586V54.235z"/>
		<path fill="#331842" d="M40.257,55.063c-0.233,0-0.424-0.078-0.574-0.234c-0.15-0.156-0.228-0.346-0.233-0.57
			c-0.356,0.281-0.734,0.486-1.133,0.613s-0.831,0.191-1.296,0.191c-0.554,0-1.076-0.108-1.568-0.324
			c-0.491-0.216-0.921-0.509-1.288-0.879s-0.658-0.802-0.873-1.297s-0.322-1.021-0.322-1.578v-3.859
			c0-0.224,0.079-0.416,0.237-0.574s0.351-0.238,0.578-0.238c0.222,0,0.413,0.08,0.571,0.238c0.157,0.159,0.236,0.35,0.236,0.574
			v3.859c0,0.338,0.063,0.656,0.19,0.953s0.3,0.556,0.52,0.777c0.22,0.221,0.478,0.396,0.772,0.523s0.61,0.191,0.947,0.191
			c0.331,0,0.644-0.064,0.939-0.191s0.553-0.303,0.776-0.527s0.397-0.483,0.524-0.777c0.126-0.294,0.189-0.611,0.189-0.949v-3.859
			c0-0.224,0.079-0.416,0.237-0.574c0.157-0.159,0.351-0.238,0.578-0.238c0.222,0,0.412,0.08,0.57,0.238
			c0.158,0.159,0.237,0.35,0.237,0.574v7.125c0,0.224-0.079,0.416-0.237,0.574C40.677,54.983,40.484,55.063,40.257,55.063z"/>
		<path fill="#331842" d="M57.74,54.243c0,0.229-0.079,0.423-0.237,0.582c-0.157,0.159-0.348,0.238-0.57,0.238
			c-0.228,0-0.419-0.08-0.574-0.238s-0.233-0.353-0.233-0.582v-4.445c0-0.25-0.048-0.487-0.144-0.711s-0.226-0.42-0.392-0.59
			c-0.166-0.169-0.36-0.303-0.586-0.402c-0.225-0.099-0.467-0.148-0.726-0.148c-0.253,0-0.491,0.049-0.714,0.148
			s-0.418,0.232-0.586,0.398c-0.168,0.167-0.3,0.362-0.396,0.586s-0.144,0.463-0.144,0.719v4.445c0,0.229-0.079,0.423-0.237,0.582
			c-0.158,0.159-0.348,0.238-0.57,0.238c-0.228,0-0.42-0.08-0.578-0.238c-0.158-0.159-0.237-0.353-0.237-0.582v-4.445
			c0-0.255-0.049-0.495-0.147-0.719s-0.23-0.419-0.396-0.586c-0.166-0.167-0.359-0.299-0.582-0.398s-0.46-0.148-0.714-0.148
			c-0.254,0-0.492,0.048-0.714,0.145c-0.223,0.096-0.418,0.229-0.586,0.398c-0.168,0.169-0.301,0.366-0.396,0.59
			s-0.144,0.463-0.144,0.719v4.445c0,0.229-0.079,0.423-0.236,0.582c-0.158,0.159-0.348,0.238-0.57,0.238
			c-0.228,0-0.421-0.08-0.578-0.238c-0.158-0.159-0.237-0.353-0.237-0.582v-7.117c0-0.224,0.079-0.416,0.237-0.574
			c0.157-0.159,0.348-0.238,0.57-0.238c0.181,0,0.341,0.051,0.481,0.152s0.235,0.236,0.287,0.402
			c0.554-0.37,1.182-0.555,1.886-0.555c0.518,0,1.004,0.103,1.459,0.309s0.854,0.517,1.195,0.934
			c0.719-0.828,1.602-1.242,2.646-1.242c0.471,0,0.917,0.092,1.339,0.277s0.789,0.435,1.102,0.75s0.562,0.685,0.745,1.109
			s0.276,0.874,0.276,1.348V54.243z"/>
		<path fill="#331842" d="M69.379,54.25v-0.156c-0.388,0.312-0.81,0.552-1.266,0.719c-0.455,0.167-0.941,0.25-1.459,0.25
			c-1.2,0-2.225-0.427-3.073-1.281s-1.273-1.885-1.273-3.094s0.424-2.24,1.273-3.094s1.873-1.281,3.073-1.281
			c1.19,0,2.215,0.427,3.074,1.281c0.848,0.854,1.273,1.885,1.273,3.094v3.562c0,0.224-0.079,0.416-0.237,0.574
			s-0.348,0.238-0.571,0.238c-0.228,0-0.42-0.08-0.578-0.238C69.458,54.666,69.379,54.475,69.379,54.25z M66.654,47.946
			c-0.383,0-0.74,0.073-1.071,0.219c-0.332,0.146-0.619,0.342-0.862,0.59s-0.436,0.538-0.578,0.871
			c-0.142,0.333-0.213,0.688-0.213,1.062s0.071,0.729,0.213,1.062c0.143,0.333,0.335,0.624,0.578,0.871s0.53,0.444,0.862,0.59
			c0.331,0.146,0.688,0.219,1.071,0.219c0.378,0,0.732-0.073,1.063-0.219s0.62-0.344,0.865-0.594c0.246-0.25,0.44-0.541,0.582-0.871
			c0.143-0.331,0.214-0.684,0.214-1.059s-0.071-0.728-0.214-1.059c-0.142-0.331-0.336-0.621-0.582-0.871
			c-0.246-0.25-0.534-0.448-0.865-0.594S67.032,47.946,66.654,47.946z"/>
		<path fill="#331842" d="M77.036,47.118c0.688-0.537,1.498-0.805,2.429-0.805c0.543,0,1.059,0.107,1.548,0.32
			s0.92,0.504,1.292,0.871c0.373,0.367,0.668,0.799,0.885,1.297c0.218,0.498,0.326,1.027,0.326,1.59v3.852
			c0,0.229-0.079,0.423-0.236,0.582c-0.158,0.159-0.349,0.238-0.571,0.238c-0.228,0-0.42-0.08-0.578-0.238s-0.237-0.353-0.237-0.582
			v-3.852c0-0.333-0.064-0.648-0.194-0.945s-0.304-0.556-0.524-0.777s-0.478-0.397-0.772-0.527s-0.608-0.195-0.939-0.195
			c-0.336,0-0.651,0.064-0.943,0.191c-0.292,0.127-0.55,0.303-0.772,0.527s-0.397,0.484-0.524,0.781
			c-0.126,0.297-0.19,0.612-0.19,0.945v3.852c0,0.229-0.079,0.423-0.237,0.582s-0.348,0.238-0.571,0.238
			c-0.228,0-0.42-0.08-0.578-0.238c-0.158-0.159-0.236-0.353-0.236-0.582v-7.109c0-0.224,0.079-0.417,0.236-0.578
			c0.158-0.162,0.351-0.242,0.578-0.242c0.223,0,0.413,0.081,0.571,0.242S77.036,46.904,77.036,47.118z"/>
		<path fill="#331842" d="M90.111,44.758c0,0.266-0.093,0.492-0.28,0.68c-0.186,0.188-0.411,0.281-0.675,0.281
			s-0.489-0.094-0.675-0.281s-0.28-0.414-0.28-0.68s0.094-0.492,0.28-0.68s0.412-0.281,0.675-0.281s0.489,0.094,0.675,0.281
			C90.018,44.266,90.111,44.493,90.111,44.758z M88.349,54.243v-7.109c0-0.229,0.079-0.423,0.237-0.582
			c0.157-0.159,0.348-0.238,0.57-0.238s0.413,0.08,0.57,0.238c0.158,0.159,0.239,0.353,0.245,0.582v7.109
			c-0.005,0.229-0.086,0.423-0.245,0.582c-0.158,0.159-0.348,0.238-0.57,0.238s-0.413-0.08-0.57-0.238
			C88.428,54.666,88.349,54.472,88.349,54.243z"/>
		<path fill="#331842" d="M95.58,46.313h0.365v-2.938c0-0.224,0.079-0.416,0.236-0.574c0.158-0.159,0.351-0.238,0.579-0.238
			c0.222,0,0.413,0.08,0.57,0.238s0.237,0.35,0.237,0.574v2.938h0.97c0.222,0,0.412,0.08,0.567,0.238
			c0.155,0.159,0.232,0.35,0.232,0.574c0,0.229-0.078,0.423-0.232,0.582c-0.155,0.159-0.345,0.238-0.567,0.238h-0.97v3.93
			c0,1.037,0.518,1.555,1.552,1.555c0.222,0,0.412,0.08,0.567,0.238s0.232,0.35,0.232,0.574c0,0.229-0.077,0.423-0.232,0.582
			s-0.345,0.238-0.567,0.238c-2.116,0-3.174-1.062-3.174-3.188v-3.93H95.58c-0.217,0-0.405-0.08-0.563-0.238
			c-0.158-0.159-0.236-0.353-0.236-0.582c0-0.224,0.079-0.416,0.236-0.574C95.175,46.393,95.362,46.313,95.58,46.313z"/>
		<path fill="#331842" d="M111.277,54.25v-0.156c-0.388,0.312-0.81,0.552-1.265,0.719s-0.942,0.25-1.459,0.25
			c-1.201,0-2.225-0.427-3.074-1.281s-1.272-1.885-1.272-3.094s0.424-2.24,1.272-3.094s1.873-1.281,3.074-1.281
			c1.19,0,2.214,0.427,3.074,1.281c0.848,0.854,1.272,1.885,1.272,3.094v3.562c0,0.224-0.079,0.416-0.236,0.574
			c-0.158,0.159-0.349,0.238-0.571,0.238c-0.228,0-0.42-0.08-0.578-0.238S111.277,54.475,111.277,54.25z M108.553,47.946
			c-0.383,0-0.74,0.073-1.071,0.219c-0.332,0.146-0.619,0.342-0.862,0.59s-0.436,0.538-0.578,0.871s-0.213,0.688-0.213,1.062
			s0.071,0.729,0.213,1.062s0.335,0.624,0.578,0.871s0.53,0.444,0.862,0.59c0.331,0.146,0.688,0.219,1.071,0.219
			c0.377,0,0.732-0.073,1.063-0.219s0.62-0.344,0.866-0.594s0.44-0.541,0.582-0.871s0.213-0.684,0.213-1.059
			s-0.071-0.728-0.213-1.059s-0.336-0.621-0.582-0.871s-0.535-0.448-0.866-0.594S108.931,47.946,108.553,47.946z"/>
		<path fill="#331842" d="M118.911,47.125v0.156c0.389-0.312,0.81-0.552,1.266-0.719c0.455-0.167,0.941-0.25,1.459-0.25
			c0.228,0,0.472,0.016,0.733,0.047c0.261,0.031,0.502,0.087,0.722,0.168s0.402,0.191,0.547,0.332s0.217,0.323,0.217,0.547
			c0,0.115-0.022,0.221-0.066,0.32c-0.044,0.099-0.102,0.186-0.175,0.262s-0.158,0.134-0.256,0.176
			c-0.098,0.042-0.204,0.062-0.318,0.062c-0.098,0-0.212-0.029-0.341-0.086c-0.326-0.13-0.681-0.195-1.063-0.195
			c-0.378,0-0.732,0.072-1.063,0.215s-0.62,0.338-0.865,0.586c-0.246,0.248-0.44,0.538-0.582,0.871
			c-0.143,0.333-0.214,0.69-0.214,1.07v3.562c0,0.224-0.079,0.416-0.236,0.574c-0.158,0.159-0.348,0.238-0.57,0.238
			c-0.228,0-0.421-0.08-0.578-0.238c-0.158-0.159-0.237-0.35-0.237-0.574v-7.125c0-0.224,0.079-0.416,0.237-0.574
			c0.157-0.159,0.35-0.238,0.578-0.238c0.222,0,0.412,0.08,0.57,0.238C118.833,46.71,118.911,46.901,118.911,47.125z"/>
		<path fill="#331842" d="M130.147,44.758c0,0.266-0.093,0.492-0.28,0.68c-0.186,0.188-0.411,0.281-0.675,0.281
			s-0.489-0.094-0.675-0.281s-0.28-0.414-0.28-0.68s0.094-0.492,0.28-0.68s0.412-0.281,0.675-0.281s0.489,0.094,0.675,0.281
			C130.054,44.266,130.147,44.493,130.147,44.758z M128.385,54.243v-7.109c0-0.229,0.079-0.423,0.237-0.582
			c0.157-0.159,0.348-0.238,0.57-0.238s0.413,0.08,0.57,0.238c0.158,0.159,0.239,0.353,0.245,0.582v7.109
			c-0.005,0.229-0.086,0.423-0.245,0.582c-0.158,0.159-0.348,0.238-0.57,0.238s-0.413-0.08-0.57-0.238
			C128.464,54.666,128.385,54.472,128.385,54.243z"/>
		<path fill="#331842" d="M143.547,50.688c0,1.219-0.424,2.25-1.273,3.094c-0.858,0.854-1.883,1.281-3.073,1.281
			c-1.2,0-2.225-0.427-3.073-1.281c-0.849-0.854-1.273-1.885-1.273-3.094s0.425-2.24,1.273-3.094
			c0.848-0.854,1.873-1.281,3.073-1.281c1.19,0,2.215,0.427,3.073,1.281c0.424,0.427,0.741,0.898,0.951,1.414
			C143.435,49.524,143.542,50.084,143.547,50.688z M139.201,47.946c-0.383,0-0.74,0.073-1.071,0.219s-0.618,0.342-0.861,0.59
			s-0.436,0.538-0.578,0.871c-0.143,0.333-0.214,0.688-0.214,1.062s0.071,0.729,0.214,1.062c0.142,0.333,0.335,0.624,0.578,0.871
			s0.53,0.444,0.861,0.59s0.688,0.219,1.071,0.219c0.378,0,0.732-0.073,1.063-0.219s0.619-0.344,0.865-0.594
			c0.246-0.25,0.439-0.541,0.582-0.871s0.213-0.684,0.213-1.059s-0.071-0.728-0.213-1.059s-0.336-0.621-0.582-0.871
			c-0.246-0.25-0.534-0.448-0.865-0.594S139.579,47.946,139.201,47.946z"/>
		<path fill="#331842" d="M158.66,54.25l-2.794-6.758c-0.052-0.12-0.077-0.242-0.077-0.367c0-0.109,0.021-0.213,0.062-0.312
			c0.042-0.099,0.099-0.186,0.171-0.262s0.158-0.134,0.256-0.176c0.099-0.042,0.205-0.062,0.318-0.062
			c0.161,0,0.311,0.045,0.45,0.137s0.246,0.225,0.318,0.402l2.181,5.242l2.181-5.258c0.062-0.156,0.151-0.283,0.268-0.379
			c0.116-0.096,0.28-0.145,0.493-0.145c0.114,0,0.22,0.021,0.318,0.062c0.099,0.042,0.184,0.1,0.256,0.176s0.13,0.163,0.175,0.262
			c0.043,0.099,0.066,0.203,0.066,0.312c0,0.115-0.028,0.237-0.085,0.367l-4.462,10.773c-0.067,0.162-0.171,0.293-0.311,0.395
			s-0.293,0.152-0.458,0.152c-0.233,0-0.426-0.078-0.578-0.234c-0.153-0.156-0.229-0.352-0.229-0.586
			c0-0.125,0.026-0.245,0.078-0.359L158.66,54.25z"/>
		<path fill="#331842" d="M28.121,68.899c-0.486-0.188-0.828-0.38-1.024-0.578h0.008c-0.394-0.401-0.59-0.873-0.59-1.414
			c0-0.396,0.104-0.754,0.314-1.074c0.209-0.32,0.482-0.592,0.818-0.816c0.337-0.224,0.716-0.397,1.138-0.52
			c0.421-0.123,0.844-0.184,1.269-0.184c1.293,0,2.403,0.523,3.33,1.57c0.109,0.135,0.163,0.299,0.163,0.492
			c0,0.234-0.077,0.428-0.229,0.582s-0.346,0.23-0.578,0.23c-0.166,0-0.307-0.047-0.423-0.141c-0.117-0.094-0.229-0.195-0.338-0.305
			c-0.527-0.531-1.169-0.797-1.925-0.797c-0.745,0-1.34,0.229-1.785,0.688c-0.083,0.083-0.124,0.198-0.124,0.344
			s0.067,0.245,0.202,0.297l3.632,1.203c0.507,0.198,0.849,0.391,1.024,0.578h-0.008c0.394,0.401,0.59,0.873,0.59,1.414
			c0,0.401-0.104,0.76-0.314,1.078c-0.209,0.318-0.482,0.59-0.818,0.816c-0.336,0.227-0.714,0.4-1.133,0.52s-0.841,0.18-1.265,0.18
			c-1.304,0-2.414-0.518-3.33-1.555c-0.114-0.151-0.17-0.32-0.17-0.508c0-0.234,0.076-0.428,0.229-0.582
			c0.153-0.154,0.346-0.23,0.578-0.23c0.171,0,0.315,0.051,0.435,0.152s0.228,0.199,0.326,0.293
			c0.528,0.531,1.172,0.797,1.933,0.797c0.74,0,1.335-0.234,1.785-0.703c0.078-0.088,0.116-0.195,0.116-0.32
			c0-0.146-0.069-0.248-0.209-0.305L28.121,68.899z"/>
		<path fill="#331842" d="M45.224,73.063c-0.233,0-0.424-0.078-0.575-0.234c-0.15-0.156-0.228-0.346-0.232-0.57
			c-0.357,0.281-0.735,0.486-1.133,0.613s-0.831,0.191-1.296,0.191c-0.554,0-1.076-0.108-1.567-0.324
			c-0.492-0.216-0.921-0.509-1.289-0.879s-0.659-0.802-0.873-1.297c-0.215-0.495-0.322-1.021-0.322-1.578v-3.859
			c0-0.224,0.079-0.416,0.237-0.574c0.158-0.159,0.351-0.238,0.578-0.238c0.223,0,0.413,0.08,0.57,0.238
			c0.158,0.159,0.237,0.35,0.237,0.574v3.859c0,0.338,0.063,0.656,0.189,0.953c0.127,0.297,0.3,0.556,0.521,0.777
			c0.22,0.221,0.478,0.396,0.772,0.523s0.61,0.191,0.946,0.191c0.331,0,0.645-0.064,0.939-0.191s0.554-0.303,0.776-0.527
			c0.222-0.224,0.396-0.483,0.523-0.777s0.19-0.611,0.19-0.949v-3.859c0-0.224,0.079-0.416,0.236-0.574
			c0.158-0.159,0.351-0.238,0.578-0.238c0.223,0,0.413,0.08,0.571,0.238s0.237,0.35,0.237,0.574v7.125
			c0,0.224-0.079,0.416-0.237,0.574S45.452,73.063,45.224,73.063z"/>
		<path fill="#331842" d="M65.343,72.25v-0.156c-0.388,0.312-0.81,0.552-1.265,0.719s-0.942,0.25-1.459,0.25
			c-1.201,0-2.225-0.427-3.074-1.281s-1.272-1.885-1.272-3.094s0.424-2.24,1.272-3.094s1.873-1.281,3.074-1.281
			c1.19,0,2.214,0.427,3.074,1.281c0.848,0.854,1.272,1.885,1.272,3.094v3.562c0,0.224-0.079,0.416-0.236,0.574
			c-0.158,0.159-0.349,0.238-0.571,0.238c-0.228,0-0.42-0.08-0.578-0.238S65.343,72.475,65.343,72.25z M62.619,65.946
			c-0.383,0-0.74,0.073-1.071,0.219c-0.332,0.146-0.619,0.342-0.862,0.59s-0.436,0.538-0.578,0.871s-0.213,0.688-0.213,1.062
			s0.071,0.729,0.213,1.062s0.335,0.624,0.578,0.871s0.53,0.444,0.862,0.59c0.331,0.146,0.688,0.219,1.071,0.219
			c0.377,0,0.732-0.073,1.063-0.219s0.62-0.344,0.866-0.594s0.44-0.541,0.582-0.871s0.213-0.684,0.213-1.059
			s-0.071-0.728-0.213-1.059s-0.336-0.621-0.582-0.871s-0.535-0.448-0.866-0.594S62.996,65.946,62.619,65.946z"/>
		<path fill="#331842" d="M75.732,73.063c-1.04,0-1.948-0.32-2.725-0.961V76c0,0.234-0.079,0.428-0.236,0.582
			c-0.158,0.154-0.351,0.23-0.578,0.23c-0.233,0-0.426-0.077-0.578-0.23c-0.153-0.154-0.229-0.348-0.229-0.582v-7.312
			c0-1.208,0.425-2.24,1.273-3.094c0.848-0.854,1.873-1.281,3.073-1.281c1.19,0,2.215,0.427,3.073,1.281
			c0.424,0.422,0.743,0.892,0.955,1.41c0.212,0.518,0.318,1.08,0.318,1.684c0,1.219-0.424,2.25-1.273,3.094
			c-0.435,0.432-0.907,0.754-1.416,0.965C76.88,72.958,76.327,73.063,75.732,73.063z M73.008,68.688
			c0,0.375,0.071,0.729,0.214,1.062c0.142,0.333,0.335,0.624,0.578,0.871s0.53,0.444,0.861,0.59s0.688,0.219,1.071,0.219
			c0.378,0,0.732-0.073,1.063-0.219s0.619-0.344,0.865-0.594c0.246-0.25,0.439-0.541,0.582-0.871s0.213-0.684,0.213-1.059
			s-0.071-0.728-0.213-1.059s-0.336-0.621-0.582-0.871c-0.246-0.25-0.534-0.448-0.865-0.594s-0.686-0.219-1.063-0.219
			c-0.383,0-0.74,0.073-1.071,0.219s-0.618,0.342-0.861,0.59s-0.436,0.538-0.578,0.871C73.079,67.959,73.008,68.313,73.008,68.688z"
			/>
		<path fill="#331842" d="M84.422,72.25V61.383c0-0.229,0.076-0.423,0.229-0.582s0.345-0.238,0.579-0.238
			c0.232,0,0.425,0.08,0.578,0.238c0.152,0.159,0.229,0.353,0.229,0.582V71.43h0.373c0.222,0,0.412,0.08,0.57,0.238
			c0.158,0.159,0.236,0.353,0.236,0.582c0,0.224-0.079,0.416-0.236,0.574c-0.158,0.159-0.348,0.238-0.57,0.238h-1.188
			c-0.223,0-0.412-0.08-0.567-0.238S84.422,72.475,84.422,72.25z"/>
		<path fill="#331842" d="M93.601,62.758c0,0.266-0.094,0.492-0.28,0.68s-0.411,0.281-0.675,0.281c-0.264,0-0.489-0.094-0.675-0.281
			c-0.187-0.188-0.28-0.414-0.28-0.68s0.093-0.492,0.28-0.68c0.186-0.188,0.411-0.281,0.675-0.281c0.264,0,0.489,0.094,0.675,0.281
			S93.601,62.493,93.601,62.758z M91.838,72.243v-7.109c0-0.229,0.079-0.423,0.237-0.582c0.158-0.159,0.348-0.238,0.57-0.238
			s0.413,0.08,0.57,0.238c0.158,0.159,0.239,0.353,0.245,0.582v7.109c-0.006,0.229-0.087,0.423-0.245,0.582
			c-0.157,0.159-0.348,0.238-0.57,0.238s-0.413-0.08-0.57-0.238C91.917,72.666,91.838,72.472,91.838,72.243z"/>
		<path fill="#331842" d="M104.921,70.586c0.233,0,0.426,0.077,0.578,0.23c0.153,0.154,0.229,0.348,0.229,0.582
			c0,0.229-0.086,0.43-0.256,0.602c-0.802,0.708-1.747,1.062-2.833,1.062c-1.201,0-2.225-0.427-3.074-1.281
			s-1.272-1.885-1.272-3.094s0.424-2.24,1.272-3.094s1.873-1.281,3.074-1.281c1.092,0,2.036,0.354,2.833,1.062
			c0.186,0.167,0.279,0.373,0.279,0.617c0,0.234-0.077,0.43-0.229,0.586s-0.345,0.234-0.578,0.234c-0.197,0-0.373-0.062-0.528-0.188
			c-0.264-0.224-0.541-0.393-0.831-0.508c-0.29-0.115-0.605-0.172-0.947-0.172c-0.377,0-0.732,0.072-1.063,0.215
			c-0.332,0.143-0.621,0.338-0.87,0.586s-0.444,0.538-0.586,0.871s-0.213,0.69-0.213,1.07s0.071,0.737,0.213,1.07
			s0.337,0.624,0.586,0.871s0.538,0.443,0.87,0.586c0.331,0.143,0.686,0.215,1.063,0.215c0.341,0,0.657-0.056,0.947-0.168
			c0.29-0.112,0.564-0.28,0.823-0.504C104.554,70.649,104.725,70.592,104.921,70.586z"/>
		<path fill="#331842" d="M117.251,72.25v-0.156c-0.388,0.312-0.81,0.552-1.266,0.719c-0.455,0.167-0.941,0.25-1.459,0.25
			c-1.2,0-2.225-0.427-3.073-1.281s-1.273-1.885-1.273-3.094s0.424-2.24,1.273-3.094s1.873-1.281,3.073-1.281
			c1.19,0,2.215,0.427,3.074,1.281c0.848,0.854,1.273,1.885,1.273,3.094v3.562c0,0.224-0.079,0.416-0.237,0.574
			s-0.348,0.238-0.571,0.238c-0.228,0-0.42-0.08-0.578-0.238C117.33,72.666,117.251,72.475,117.251,72.25z M114.526,65.946
			c-0.383,0-0.74,0.073-1.071,0.219c-0.332,0.146-0.619,0.342-0.862,0.59s-0.436,0.538-0.578,0.871
			c-0.142,0.333-0.213,0.688-0.213,1.062s0.071,0.729,0.213,1.062c0.143,0.333,0.335,0.624,0.578,0.871s0.53,0.444,0.862,0.59
			c0.331,0.146,0.688,0.219,1.071,0.219c0.378,0,0.732-0.073,1.063-0.219s0.62-0.344,0.865-0.594c0.246-0.25,0.44-0.541,0.582-0.871
			c0.143-0.331,0.214-0.684,0.214-1.059s-0.071-0.728-0.214-1.059c-0.142-0.331-0.336-0.621-0.582-0.871
			c-0.246-0.25-0.534-0.448-0.865-0.594S114.904,65.946,114.526,65.946z"/>
		<path fill="#331842" d="M129.906,70.586c0.233,0,0.426,0.077,0.578,0.23c0.153,0.154,0.229,0.348,0.229,0.582
			c0,0.229-0.086,0.43-0.256,0.602c-0.802,0.708-1.747,1.062-2.833,1.062c-1.201,0-2.225-0.427-3.074-1.281
			s-1.272-1.885-1.272-3.094s0.424-2.24,1.272-3.094s1.873-1.281,3.074-1.281c1.092,0,2.036,0.354,2.833,1.062
			c0.186,0.167,0.279,0.373,0.279,0.617c0,0.234-0.077,0.43-0.229,0.586s-0.345,0.234-0.578,0.234c-0.197,0-0.373-0.062-0.528-0.188
			c-0.264-0.224-0.541-0.393-0.831-0.508c-0.29-0.115-0.605-0.172-0.947-0.172c-0.377,0-0.732,0.072-1.063,0.215
			c-0.332,0.143-0.621,0.338-0.87,0.586s-0.444,0.538-0.586,0.871s-0.213,0.69-0.213,1.07s0.071,0.737,0.213,1.07
			s0.337,0.624,0.586,0.871s0.538,0.443,0.87,0.586c0.331,0.143,0.686,0.215,1.063,0.215c0.341,0,0.657-0.056,0.947-0.168
			c0.29-0.112,0.564-0.28,0.823-0.504C129.539,70.649,129.71,70.592,129.906,70.586z"/>
		<path fill="#331842" d="M137.362,62.758c0,0.266-0.093,0.492-0.28,0.68c-0.186,0.188-0.411,0.281-0.675,0.281
			s-0.489-0.094-0.675-0.281s-0.28-0.414-0.28-0.68s0.094-0.492,0.28-0.68s0.412-0.281,0.675-0.281s0.489,0.094,0.675,0.281
			C137.269,62.266,137.362,62.493,137.362,62.758z M135.6,72.243v-7.109c0-0.229,0.079-0.423,0.237-0.582
			c0.157-0.159,0.348-0.238,0.57-0.238s0.413,0.08,0.57,0.238c0.158,0.159,0.239,0.353,0.245,0.582v7.109
			c-0.005,0.229-0.086,0.423-0.245,0.582c-0.158,0.159-0.348,0.238-0.57,0.238s-0.413-0.08-0.57-0.238
			C135.679,72.666,135.6,72.472,135.6,72.243z"/>
		<path fill="#331842" d="M150.763,68.688c0,1.219-0.425,2.25-1.273,3.094c-0.859,0.854-1.883,1.281-3.074,1.281
			c-1.2,0-2.225-0.427-3.073-1.281s-1.273-1.885-1.273-3.094s0.424-2.24,1.273-3.094s1.873-1.281,3.073-1.281
			c1.19,0,2.215,0.427,3.074,1.281c0.424,0.427,0.741,0.898,0.951,1.414C150.65,67.524,150.757,68.084,150.763,68.688z
			 M146.416,65.946c-0.383,0-0.74,0.073-1.071,0.219c-0.332,0.146-0.619,0.342-0.862,0.59s-0.436,0.538-0.578,0.871
			c-0.142,0.333-0.213,0.688-0.213,1.062s0.071,0.729,0.213,1.062c0.143,0.333,0.335,0.624,0.578,0.871s0.53,0.444,0.862,0.59
			c0.331,0.146,0.688,0.219,1.071,0.219c0.378,0,0.732-0.073,1.063-0.219s0.62-0.344,0.865-0.594c0.246-0.25,0.44-0.541,0.582-0.871
			c0.143-0.331,0.214-0.684,0.214-1.059s-0.071-0.728-0.214-1.059c-0.142-0.331-0.336-0.621-0.582-0.871
			c-0.246-0.25-0.534-0.448-0.865-0.594S146.794,65.946,146.416,65.946z M148.093,61.961l-1.552,1.555
			c-0.145,0.146-0.332,0.219-0.559,0.219c-0.232,0-0.426-0.077-0.578-0.23s-0.229-0.348-0.229-0.582
			c0-0.224,0.067-0.409,0.202-0.555l1.553-1.555c0.165-0.162,0.356-0.242,0.574-0.242c0.232,0,0.426,0.08,0.578,0.238
			s0.229,0.353,0.229,0.582C148.31,61.625,148.237,61.815,148.093,61.961z"/>
		<path fill="#331842" d="M156.798,65.118c0.688-0.537,1.498-0.805,2.429-0.805c0.543,0,1.059,0.107,1.548,0.32
			s0.92,0.504,1.292,0.871c0.373,0.367,0.668,0.799,0.885,1.297c0.218,0.498,0.326,1.027,0.326,1.59v3.852
			c0,0.229-0.079,0.423-0.236,0.582c-0.158,0.159-0.349,0.238-0.571,0.238c-0.228,0-0.42-0.08-0.578-0.238s-0.237-0.353-0.237-0.582
			v-3.852c0-0.333-0.064-0.648-0.194-0.945s-0.304-0.556-0.524-0.777s-0.478-0.397-0.772-0.527s-0.608-0.195-0.939-0.195
			c-0.336,0-0.651,0.064-0.943,0.191c-0.292,0.127-0.55,0.303-0.772,0.527s-0.397,0.484-0.524,0.781
			c-0.126,0.297-0.19,0.612-0.19,0.945v3.852c0,0.229-0.079,0.423-0.237,0.582s-0.348,0.238-0.571,0.238
			c-0.228,0-0.42-0.08-0.578-0.238c-0.158-0.159-0.236-0.353-0.236-0.582v-7.109c0-0.224,0.079-0.417,0.236-0.578
			c0.158-0.162,0.351-0.242,0.578-0.242c0.223,0,0.413,0.081,0.571,0.242S156.798,64.904,156.798,65.118z"/>
	</g>
</g>
</svg>
