<?xml version="1.0" encoding="utf-8"?>
<!-- Generator: Adobe Illustrator 16.0.0, SVG Export Plug-In . SVG Version: 6.00 Build 0)  -->
<!DOCTYPE svg PUBLIC "-//W3C//DTD SVG 1.1//EN" "http://www.w3.org/Graphics/SVG/1.1/DTD/svg11.dtd">
<svg version="1.1" id="Capa_1" xmlns="http://www.w3.org/2000/svg" xmlns:xlink="http://www.w3.org/1999/xlink" x="0px" y="0px"
	 width="447.411px" height="100.883px" viewBox="0 0 447.411 100.883" enable-background="new 0 0 447.411 100.883"
	 xml:space="preserve">
<g>
	<path fill="#E9496E" d="M0.097,77.503l447.314-11.421c0.039-6.804-7.238-65.99-7.238-65.99L440.17,0L0,11.409L0.09,65.93
		L0.097,77.503z"/>
	<g>
		<g>
			<path fill="#FFFFFF" d="M97.952,18.626l0.08,4.03l-7.578-0.079l0.092,4.688l6.804-0.277l0.249,3.87l-6.078,0.12l0.071,3.63
				l7.958-0.157l0.08,4.059l-13.271,0.119c0.087-2.68,0.105-5.378,0.051-8.093c-0.074-3.764-0.283-7.559-0.627-11.384
				C88.669,19.009,92.726,18.834,97.952,18.626z"/>
			<path fill="#FFFFFF" d="M106.713,38.8l-4.768,0.423c-0.012-3.155-0.045-6.191-0.103-9.106c-0.081-4.098-0.208-7.96-0.382-11.589
				l4.697-0.15c-0.005,2.336,0.017,4.732,0.065,7.191C106.306,29.81,106.47,34.22,106.713,38.8z"/>
			<path fill="#FFFFFF" d="M115.662,38.323c-0.038-3.212-0.09-6.518-0.158-9.92c-0.067-3.412-0.149-6.913-0.246-10.505
				c1.467-0.162,2.821-0.255,4.061-0.28c3.451-0.068,6.005,0.396,7.662,1.394c2.252,1.366,3.467,3.949,3.644,7.75l0.021,1.029
				c0.064,3.259-0.312,5.592-1.128,7c-0.903,1.552-2.589,2.605-5.059,3.16c-1.426,0.323-2.996,0.502-4.708,0.536
				C118.472,38.511,117.109,38.457,115.662,38.323z M120.095,21.893c-0.156,3.139-0.205,6.171-0.146,9.097
				c0.022,1.105,0.056,2.191,0.103,3.258c0.449,0.067,0.877,0.097,1.287,0.089c1.125-0.022,2.065-0.332,2.82-0.928
				c1.033-0.802,1.522-2.565,1.469-5.291l-0.001-0.057c-0.067-2.744-0.614-4.535-1.641-5.373c-0.792-0.632-1.726-0.938-2.799-0.917
				C120.84,21.778,120.477,21.819,120.095,21.893z"/>
			<path fill="#FFFFFF" d="M138.239,23.737c4.436-0.088,6.697,2.065,6.783,6.458c0.011,0.534-0.01,1.106-0.062,1.717l-8.571,0.169
				c0.048,2.449,0.705,3.661,1.971,3.636l0.134-0.002c1.111-0.089,1.654-0.734,1.631-1.934c-0.005-0.257-0.037-0.543-0.094-0.856
				l4.562-0.161c0.071,3.63-2.021,5.511-6.276,5.643c-0.051,0.01-0.095,0.016-0.134,0.017c-4.052,0.08-6.124-2.171-6.214-6.755
				l-0.008-0.429C131.992,26.319,134.084,23.818,138.239,23.737z M135.877,29.46l4.333-0.086l-0.007-0.343
				c-0.034-1.734-0.71-2.588-2.026-2.562C136.758,26.497,135.992,27.493,135.877,29.46z"/>
			<path fill="#FFFFFF" d="M151.518,27.907l0.396,10.359l-4.697,0.122c-0.087-4.383-0.382-9.301-0.886-14.753l3.522-0.356
				l0.237,2.326c0.515-1.155,1.754-1.831,3.72-2.032c0.293-0.025,0.575-0.04,0.843-0.045c1.547-0.03,2.73,0.323,3.551,1.06
				c0.95,0.877,1.452,2.292,1.503,4.246l-4.25,0.398c0.009-0.162,0.013-0.319,0.01-0.471c-0.03-1.525-0.576-2.277-1.637-2.256
				l-0.077,0.001C152.528,26.577,151.782,27.043,151.518,27.907z"/>
			<path fill="#FFFFFF" d="M167.115,23.167c4.436-0.088,6.697,2.065,6.784,6.458c0.01,0.534-0.011,1.106-0.062,1.717l-8.571,0.169
				c0.048,2.449,0.706,3.661,1.971,3.636l0.134-0.002c1.111-0.089,1.654-0.734,1.631-1.934c-0.005-0.257-0.037-0.543-0.094-0.856
				l4.562-0.161c0.072,3.63-2.02,5.511-6.276,5.643c-0.051,0.01-0.095,0.016-0.134,0.017c-4.052,0.08-6.124-2.171-6.214-6.755
				l-0.008-0.429C160.868,25.75,162.96,23.249,167.115,23.167z M164.753,28.89l4.333-0.085l-0.007-0.343
				c-0.034-1.734-0.709-2.588-2.026-2.562C165.635,25.927,164.869,26.923,164.753,28.89z"/>
			<path fill="#FFFFFF" d="M183.222,31.643l4.568,0.124c0.068,3.44-2.026,5.226-6.282,5.357c-0.051,0.011-0.096,0.017-0.134,0.018
				c-4.052,0.08-6.123-2.172-6.213-6.755l-0.009-0.429c0.031-4.919,2.142-7.444,6.334-7.575l0.153-0.003
				c3.86-0.076,5.823,1.534,5.888,4.831c0.004,0.191,0.001,0.381-0.008,0.572l-4.118,0.31l-0.007-0.343
				c-0.034-1.734-0.71-2.588-2.026-2.562c-1.342,0.027-1.985,1.446-1.93,4.256l0.009,0.472c0.137,3.038,0.844,4.544,2.123,4.519
				l0.115-0.002c1.111-0.088,1.654-0.733,1.631-1.934C183.311,32.241,183.279,31.956,183.222,31.643z"/>
			<path fill="#FFFFFF" d="M193.653,16.837l0.351,8.043c0.512-1.25,1.752-1.903,3.721-1.96l0.058-0.001
				c1.943-0.038,3.336,0.591,4.181,1.891c0.58,0.884,0.903,2.976,0.968,6.272c0.032,1.621-0.001,3.537-0.098,5.75L198,36.927
				c0.108-2.948,0.146-5.231,0.114-6.851c-0.016-0.81-0.048-1.458-0.096-1.943c-0.156-1.427-0.72-2.131-1.691-2.112
				c-0.972,0.019-1.591,0.413-1.856,1.181l0.396,10.358l-4.697,0.122c-0.087-4.383-0.484-11.253-1.193-20.61L193.653,16.837z"/>
			<path fill="#FFFFFF" d="M211.12,22.298c4.346-0.086,6.563,2.12,6.652,6.618c0.004,0.181,0.001,0.362-0.008,0.543
				c-0.083,4.874-2.348,7.377-6.795,7.513c-0.051,0.01-0.102,0.016-0.153,0.017c-4.231,0.083-6.392-2.176-6.483-6.778l-0.008-0.4
				C204.355,24.891,206.621,22.387,211.12,22.298z M210.551,25.569c-0.801,0.226-1.335,1.013-1.603,2.362
				c-0.164,0.804-0.237,1.611-0.221,2.421c0.011,0.543,0.06,1.091,0.147,1.641c0.231,1.368,0.904,2.065,2.017,2.091l0.134-0.003
				c1.036-0.021,1.735-0.544,2.098-1.571c0.303-0.854,0.443-1.863,0.42-3.025c-0.006-0.286-0.018-0.576-0.036-0.872
				c-0.133-1.532-0.459-2.484-0.978-2.854c-0.324-0.223-0.71-0.329-1.157-0.32C211.118,25.444,210.844,25.488,210.551,25.569z"/>
			<path fill="#FFFFFF" d="M231.501,35.479l-4.768,0.423c-0.138-6.994-0.421-13.556-0.849-19.687l5.458-0.451
				C231.33,22.238,231.382,28.81,231.501,35.479z"/>
			<path fill="#FFFFFF" d="M236.672,21.422l0.238,2.326c0.512-1.249,1.912-1.906,4.2-1.97l0.077-0.001
				c2.25-0.044,3.796,0.583,4.641,1.881c0.58,0.885,0.903,2.976,0.968,6.273c0.032,1.62,0,3.536-0.098,5.749l-4.64,0.092
				c0.108-2.948,0.146-5.231,0.114-6.851c-0.016-0.81-0.048-1.457-0.096-1.942c-0.156-1.427-0.784-2.129-1.883-2.107
				c-1.1,0.021-1.782,0.416-2.048,1.184l0.396,10.359l-4.505,0.117c-0.086-4.383-0.382-9.301-0.886-14.753L236.672,21.422z"/>
			<path fill="#FFFFFF" d="M251.334,16.943l4.349-0.3l0.093,4.731l3.661-0.144l0.111,2.7l-3.717,0.202l0.128,6.503
				c0.03,1.515,0.908,2.255,2.633,2.222c0.358-0.007,0.748-0.048,1.167-0.124l-0.11,3.148c-0.612,0.069-1.193,0.11-1.743,0.121
				c-4.039,0.08-6.128-1.433-6.266-4.538l-0.138-6.989l-3.142,0.205l-0.14-3.186l3.222-0.035L251.334,16.943z"/>
			<path fill="#FFFFFF" d="M267.319,21.189c4.436-0.087,6.697,2.065,6.784,6.458c0.011,0.534-0.01,1.106-0.062,1.717l-8.571,0.169
				c0.048,2.449,0.705,3.661,1.971,3.636l0.134-0.002c1.111-0.089,1.655-0.733,1.631-1.934c-0.005-0.257-0.036-0.543-0.094-0.856
				l4.562-0.162c0.071,3.63-2.021,5.511-6.276,5.643c-0.051,0.01-0.096,0.016-0.134,0.017c-4.053,0.08-6.124-2.172-6.214-6.755
				l-0.009-0.429C261.072,23.772,263.165,21.271,267.319,21.189z M264.958,26.913l4.333-0.085l-0.007-0.343
				c-0.034-1.734-0.71-2.588-2.026-2.562C265.839,23.95,265.073,24.946,264.958,26.913z"/>
			<path fill="#FFFFFF" d="M280.599,25.36l0.396,10.358l-4.697,0.122c-0.086-4.383-0.382-9.301-0.886-14.753l3.522-0.356
				l0.238,2.326c0.514-1.154,1.754-1.831,3.72-2.032c0.293-0.025,0.574-0.041,0.843-0.046c1.546-0.03,2.73,0.323,3.55,1.06
				c0.951,0.877,1.452,2.292,1.503,4.246l-4.25,0.398c0.009-0.162,0.013-0.319,0.01-0.472c-0.03-1.525-0.576-2.277-1.637-2.256
				l-0.077,0.001C281.608,24.029,280.863,24.496,280.599,25.36z"/>
			<path fill="#FFFFFF" d="M293.485,20.301l0.238,2.326c0.513-1.249,1.913-1.906,4.2-1.97L298,20.655
				c2.25-0.044,3.797,0.583,4.641,1.881c0.58,0.885,0.903,2.976,0.968,6.273c0.032,1.62-0.001,3.536-0.098,5.749l-4.64,0.092
				c0.107-2.948,0.146-5.231,0.114-6.851c-0.016-0.81-0.048-1.457-0.096-1.942c-0.157-1.427-0.784-2.129-1.883-2.107
				c-1.1,0.021-1.782,0.416-2.048,1.184l0.396,10.359l-4.506,0.118c-0.086-4.383-0.382-9.301-0.886-14.753L293.485,20.301z"/>
			<path fill="#FFFFFF" d="M312.448,19.884c4.208,0.088,6.342,1.624,6.401,4.606l0.2,10.148l-4.466,0.145l-0.18-1.354
				c-0.905,0.799-2.118,1.214-3.639,1.244c-0.652,0.013-1.357-0.049-2.114-0.187c-2.271-0.375-3.428-1.658-3.471-3.849
				c-0.005-0.267,0.008-0.553,0.041-0.859c0.211-2.264,2.343-3.436,6.395-3.516c0.78-0.015,1.637,0.011,2.572,0.079l-0.033-1.658
				c-0.026-1.344-0.609-2.004-1.746-1.982l-0.077,0.002c-0.09-0.008-0.173-0.011-0.25-0.009c-1.24,0.024-1.845,0.79-1.816,2.295
				l0.004,0.214l-4.569-0.196c-0.065-3.326,2.049-5.031,6.344-5.115L312.448,19.884z M314.281,31.144l-0.05-2.516
				c-0.551-0.074-1.051-0.107-1.498-0.099c-1.163,0.023-1.95,0.329-2.36,0.918c-0.249,0.357-0.37,0.689-0.364,0.994
				c0.007,0.381,0.218,0.715,0.633,1.002c0.324,0.222,0.742,0.328,1.253,0.318C312.547,31.75,313.342,31.543,314.281,31.144z"/>
			<path fill="#FFFFFF" d="M328.313,28.779l4.568,0.124c0.068,3.44-2.026,5.226-6.282,5.357c-0.051,0.011-0.096,0.017-0.134,0.018
				c-4.052,0.08-6.123-2.172-6.214-6.755l-0.008-0.429c0.031-4.919,2.142-7.444,6.334-7.575l0.154-0.003
				c3.86-0.076,5.823,1.534,5.888,4.831c0.004,0.191,0.001,0.382-0.008,0.572l-4.118,0.311l-0.007-0.343
				c-0.034-1.734-0.71-2.589-2.026-2.563c-1.342,0.027-1.986,1.446-1.93,4.256l0.009,0.472c0.137,3.038,0.844,4.544,2.123,4.519
				l0.115-0.002c1.11-0.088,1.654-0.732,1.63-1.934C328.402,29.378,328.371,29.093,328.313,28.779z"/>
			<path fill="#FFFFFF" d="M339.599,16.474c0.012,0.582-0.254,1.083-0.795,1.502c-0.542,0.421-1.202,0.639-1.982,0.654
				c-0.767,0.015-1.43-0.177-1.987-0.576c-0.558-0.398-0.842-0.889-0.854-1.47c-0.011-0.572,0.254-1.068,0.795-1.488
				s1.196-0.639,1.963-0.654c0.78-0.016,1.449,0.177,2.006,0.575C339.303,15.417,339.588,15.902,339.599,16.474z M334.816,34.613
				c-0.2-5.573-0.339-10.389-0.419-14.447l4.828-0.31c-0.077,3.891-0.077,7.756-0.001,11.596c0.021,1.029,0.047,2.053,0.08,3.072
				L334.816,34.613z"/>
			<path fill="#FFFFFF" d="M347.468,19.608c4.346-0.086,6.563,2.12,6.652,6.617c0.003,0.181,0,0.362-0.008,0.543
				c-0.083,4.873-2.348,7.377-6.796,7.512c-0.051,0.01-0.102,0.017-0.153,0.018c-4.231,0.083-6.392-2.176-6.483-6.778l-0.008-0.4
				C340.703,22.201,342.968,19.696,347.468,19.608z M346.899,22.878c-0.801,0.226-1.335,1.013-1.603,2.363
				c-0.164,0.804-0.237,1.611-0.221,2.421c0.011,0.543,0.06,1.09,0.147,1.641c0.231,1.368,0.904,2.065,2.017,2.091l0.135-0.002
				c1.035-0.021,1.734-0.544,2.098-1.571c0.303-0.854,0.443-1.863,0.42-3.026c-0.005-0.286-0.018-0.576-0.036-0.872
				c-0.133-1.532-0.458-2.483-0.977-2.854c-0.324-0.223-0.71-0.329-1.157-0.32C347.466,22.753,347.192,22.797,346.899,22.878z"/>
			<path fill="#FFFFFF" d="M358.562,19.017l0.238,2.326c0.512-1.25,1.912-1.906,4.2-1.97l0.076-0.001
				c2.25-0.044,3.797,0.583,4.641,1.881c0.58,0.885,0.903,2.976,0.968,6.273c0.032,1.62,0,3.536-0.098,5.749l-4.64,0.092
				c0.108-2.948,0.146-5.231,0.114-6.851c-0.016-0.81-0.048-1.458-0.096-1.942c-0.156-1.427-0.784-2.129-1.883-2.108
				c-1.1,0.022-1.782,0.417-2.048,1.184l0.396,10.359l-4.505,0.117c-0.086-4.383-0.382-9.3-0.886-14.752L358.562,19.017z"/>
			<path fill="#FFFFFF" d="M377.525,18.6c4.208,0.088,6.343,1.624,6.401,4.606l0.2,10.148L379.66,33.5l-0.18-1.354
				c-0.905,0.799-2.118,1.214-3.639,1.244c-0.652,0.013-1.356-0.049-2.114-0.187c-2.271-0.375-3.428-1.658-3.471-3.849
				c-0.005-0.267,0.008-0.553,0.04-0.859c0.211-2.263,2.343-3.435,6.396-3.515c0.779-0.015,1.637,0.011,2.572,0.078l-0.033-1.658
				c-0.027-1.344-0.609-2.004-1.747-1.982l-0.077,0.001c-0.09-0.007-0.173-0.011-0.25-0.009c-1.24,0.024-1.845,0.79-1.815,2.295
				l0.004,0.214l-4.569-0.196c-0.065-3.326,2.049-5.031,6.344-5.115L377.525,18.6z M379.358,29.859l-0.05-2.516
				c-0.551-0.074-1.051-0.107-1.498-0.098c-1.164,0.023-1.95,0.329-2.361,0.918c-0.249,0.357-0.37,0.688-0.364,0.994
				c0.007,0.381,0.219,0.716,0.634,1.003c0.324,0.222,0.742,0.328,1.253,0.318C377.625,30.465,378.42,30.259,379.358,29.859z"/>
			<path fill="#FFFFFF" d="M391.048,33.189l-4.768,0.423c-0.011-3.155-0.045-6.191-0.103-9.106
				c-0.081-4.098-0.208-7.96-0.382-11.589l4.697-0.15c-0.005,2.336,0.017,4.732,0.065,7.191
				C390.64,24.199,390.804,28.609,391.048,33.189z"/>
			<path fill="#FFFFFF" d="M64.917,45.134c-0.027,6.416-0.038,13.327-0.032,20.734l-4.353,0.085l-0.165-8.333l-5.465,0.108
				l0.151,7.661l-5.235,0.089c0.084-3.5,0.094-6.922,0.027-10.267c-0.065-3.335-0.207-6.592-0.423-9.772l5.004-0.099l-0.046,8.337
				l5.468,0.063l-0.174-8.848L64.917,45.134z"/>
			<path fill="#FFFFFF" d="M76.96,65.4l-0.238-2.326c-0.513,1.249-1.945,1.902-4.296,1.958c-0.026,0.01-0.045,0.015-0.058,0.016
				c-2.327,0.046-3.882-0.705-4.667-2.253c-0.532-1.028-0.83-3.172-0.895-6.431c-0.033-1.678-0.002-3.656,0.094-5.936l4.659-0.092
				c-0.193,3.208-0.271,5.673-0.238,7.397c0.018,0.867,0.062,1.543,0.136,2.027c0.221,1.483,0.881,2.213,1.98,2.192
				c1.099-0.022,1.782-0.421,2.048-1.199L75.1,50.838l4.505-0.117c0.081,4.097,0.373,8.867,0.877,14.31L76.96,65.4z"/>
			<path fill="#FFFFFF" d="M84.871,50.259l0.122,2.285c0.668-1.109,1.454-1.807,2.356-2.091c0.534-0.163,1.075-0.25,1.625-0.261
				c0.409-0.008,0.819,0.022,1.229,0.09c1.001,0.171,1.725,0.919,2.173,2.245c0.312-1.045,0.874-1.749,1.685-2.114
				c0.811-0.364,1.716-0.56,2.712-0.59l0.077-0.001c0.971-0.019,1.908,0.139,2.81,0.474c0.915,0.345,1.622,1.01,2.121,1.996
				c0.499,0.987,0.778,2.347,0.838,4.08l0.164,8.305l-4.14,0.153c0.104-3.138,0.135-5.808,0.091-8.009s-0.63-3.376-1.758-3.525
				c-0.167-0.016-0.326-0.022-0.48-0.02c-0.895,0.018-1.577,0.459-2.045,1.327c-0.057,0.993-0.072,2.151-0.046,3.476
				c0.036,1.801,0.147,3.9,0.335,6.298L89.948,64.5c0.106-3.691,0.143-6.38,0.109-8.067l-0.003-0.171
				c-0.046-1.667-0.504-2.536-1.375-2.604l-0.25,0.005c-0.78,0.015-1.527,0.364-2.243,1.045l0.245,10.462l-4.522,0.218l-0.046-2.344
				c-0.082-4.154-0.248-8.302-0.495-12.444L84.871,50.259z"/>
			<path fill="#FFFFFF" d="M111.061,49.628c4.209,0.088,6.343,1.624,6.401,4.606l0.2,10.148l-4.466,0.146l-0.18-1.354
				c-0.905,0.799-2.118,1.213-3.639,1.244c-0.652,0.013-1.356-0.049-2.114-0.187c-2.271-0.375-3.428-1.658-3.471-3.849
				c-0.005-0.267,0.008-0.553,0.041-0.859c0.211-2.263,2.342-3.435,6.395-3.515c0.779-0.016,1.637,0.011,2.572,0.078l-0.033-1.658
				c-0.026-1.344-0.609-2.004-1.747-1.982l-0.077,0.001c-0.09-0.007-0.173-0.011-0.25-0.009c-1.24,0.024-1.845,0.79-1.815,2.295
				l0.004,0.214l-4.569-0.195c-0.065-3.326,2.049-5.031,6.344-5.116L111.061,49.628z M112.895,60.887l-0.05-2.516
				c-0.551-0.074-1.051-0.107-1.498-0.099c-1.164,0.023-1.95,0.329-2.36,0.919c-0.249,0.357-0.37,0.688-0.364,0.994
				c0.007,0.381,0.219,0.716,0.634,1.002c0.324,0.222,0.742,0.329,1.253,0.318C111.161,61.494,111.956,61.287,112.895,60.887z"/>
			<path fill="#FFFFFF" d="M122.432,49.446l0.238,2.326c0.512-1.25,1.912-1.906,4.2-1.97l0.077-0.002
				c2.25-0.044,3.797,0.583,4.641,1.882c0.58,0.885,0.903,2.976,0.968,6.272c0.032,1.62,0,3.537-0.098,5.75l-4.64,0.091
				c0.107-2.947,0.146-5.231,0.114-6.851c-0.016-0.81-0.048-1.458-0.096-1.942c-0.156-1.427-0.784-2.129-1.883-2.108
				c-1.1,0.022-1.782,0.416-2.048,1.184l0.396,10.359l-4.505,0.117c-0.086-4.383-0.382-9.301-0.886-14.753L122.432,49.446z"/>
			<path fill="#FFFFFF" d="M139.286,46.197c0.011,0.582-0.253,1.083-0.795,1.502c-0.542,0.421-1.202,0.639-1.982,0.654
				c-0.767,0.015-1.429-0.177-1.987-0.576c-0.558-0.398-0.842-0.889-0.854-1.47c-0.011-0.572,0.254-1.068,0.795-1.488
				s1.196-0.639,1.963-0.654c0.779-0.015,1.448,0.177,2.006,0.575C138.99,45.14,139.275,45.625,139.286,46.197z M134.503,64.336
				c-0.2-5.573-0.339-10.389-0.419-14.447l4.828-0.31c-0.077,3.891-0.077,7.756-0.001,11.596c0.02,1.029,0.047,2.053,0.08,3.072
				L134.503,64.336z"/>
			<path fill="#FFFFFF" d="M143.518,44.84l4.349-0.3l0.093,4.731l3.661-0.144l0.111,2.7l-3.717,0.202l0.128,6.503
				c0.03,1.515,0.908,2.255,2.634,2.222c0.357-0.007,0.747-0.048,1.167-0.124l-0.11,3.148c-0.612,0.069-1.193,0.11-1.743,0.121
				c-4.039,0.08-6.128-1.433-6.266-4.538l-0.138-6.989l-3.142,0.205l-0.14-3.186l3.222-0.035L143.518,44.84z"/>
			<path fill="#FFFFFF" d="M160.684,48.649c4.208,0.088,6.343,1.624,6.401,4.606l0.2,10.148l-4.466,0.145l-0.18-1.354
				c-0.905,0.799-2.118,1.214-3.639,1.244c-0.652,0.013-1.357-0.049-2.114-0.187c-2.271-0.375-3.428-1.658-3.471-3.849
				c-0.005-0.267,0.008-0.553,0.041-0.859c0.211-2.264,2.343-3.436,6.395-3.516c0.78-0.015,1.637,0.011,2.572,0.079l-0.033-1.658
				c-0.026-1.344-0.609-2.004-1.746-1.982l-0.077,0.001c-0.09-0.008-0.173-0.011-0.25-0.009c-1.24,0.024-1.845,0.79-1.815,2.295
				l0.004,0.214l-4.569-0.196c-0.065-3.326,2.049-5.031,6.344-5.115L160.684,48.649z M162.517,59.908l-0.05-2.516
				c-0.551-0.074-1.051-0.107-1.498-0.099c-1.164,0.023-1.95,0.329-2.361,0.918c-0.249,0.357-0.37,0.689-0.364,0.994
				c0.007,0.381,0.218,0.715,0.633,1.002c0.324,0.222,0.742,0.328,1.253,0.318C160.784,60.514,161.579,60.308,162.517,59.908z"/>
			<path fill="#FFFFFF" d="M173.722,53.239l0.396,10.358l-4.697,0.122c-0.087-4.383-0.382-9.301-0.886-14.753l3.522-0.356
				l0.237,2.326c0.515-1.154,1.754-1.831,3.72-2.032c0.293-0.024,0.574-0.04,0.843-0.045c1.547-0.03,2.73,0.323,3.551,1.06
				c0.95,0.877,1.452,2.292,1.503,4.246l-4.25,0.398c0.009-0.162,0.013-0.319,0.01-0.471c-0.03-1.525-0.576-2.277-1.637-2.256
				l-0.077,0.001C174.731,51.908,173.986,52.375,173.722,53.239z"/>
			<path fill="#FFFFFF" d="M188.391,45.228c0.012,0.582-0.254,1.083-0.795,1.502c-0.542,0.42-1.203,0.639-1.982,0.654
				c-0.767,0.015-1.43-0.177-1.987-0.576c-0.558-0.398-0.842-0.888-0.854-1.47c-0.011-0.572,0.254-1.068,0.796-1.489
				c0.541-0.42,1.196-0.639,1.963-0.654c0.779-0.015,1.448,0.177,2.006,0.576S188.38,44.656,188.391,45.228z M183.608,63.367
				c-0.2-5.572-0.339-10.388-0.419-14.447l4.828-0.311c-0.077,3.891-0.077,7.757-0.001,11.597c0.02,1.029,0.047,2.053,0.08,3.072
				L183.608,63.367z"/>
			<path fill="#FFFFFF" d="M196.26,48.361c4.346-0.085,6.563,2.12,6.652,6.618c0.003,0.181,0,0.362-0.009,0.543
				c-0.083,4.874-2.348,7.377-6.795,7.513c-0.051,0.01-0.102,0.016-0.153,0.017c-4.231,0.083-6.393-2.176-6.483-6.778l-0.008-0.4
				C189.495,50.955,191.76,48.45,196.26,48.361z M195.692,51.632c-0.801,0.226-1.336,1.013-1.604,2.362
				c-0.163,0.804-0.236,1.611-0.221,2.421c0.011,0.543,0.06,1.091,0.147,1.642c0.231,1.368,0.904,2.065,2.017,2.091l0.134-0.003
				c1.035-0.021,1.735-0.544,2.098-1.571c0.303-0.854,0.443-1.863,0.42-3.025c-0.005-0.286-0.018-0.576-0.037-0.872
				c-0.133-1.532-0.458-2.484-0.977-2.854c-0.324-0.223-0.71-0.329-1.158-0.32C196.258,51.507,195.984,51.55,195.692,51.632z"/>
			<path fill="#FFFFFF" d="M210.947,48.015l5.018-0.399c-0.059,2.86-0.07,5.216-0.033,7.064c0.014,0.696,0.039,1.32,0.075,1.871
				c0.091,2.039,0.725,3.074,1.903,3.109c0.077,0.007,0.147,0.011,0.211,0.01c1.048-0.021,1.704-0.481,1.968-1.383
				c0.143-0.527,0.195-1.772,0.156-3.735c-0.031-1.572-0.123-3.601-0.273-6.085l4.712-0.35c0.108,2.905,0.183,5.401,0.224,7.488
				c0.052,2.602,0.052,4.565,0.001,5.891c-0.081,2.384-0.959,4.213-2.635,5.486c-1.512,1.154-3.655,1.759-6.428,1.814
				c-0.32,0.006-0.646,0.003-0.979-0.009l-0.606-3.478c0.243,0.005,0.48,0.005,0.71,0c2.147-0.042,3.612-0.353,4.393-0.93
				c0.807-0.598,1.197-1.54,1.172-2.826l-0.004-0.229c-0.711,0.872-1.822,1.323-3.33,1.353l-0.268,0.005
				c-1.65-0.024-2.938-0.483-3.864-1.375c-0.926-0.892-1.446-2.159-1.562-3.801C211.392,55.863,211.205,52.699,210.947,48.015z"/>
			<path fill="#FFFFFF" d="M233.495,57.235l4.388-0.244l0.003,0.186c0.029,1.467,0.651,2.198,1.866,2.193l0.077-0.001
				c1.176-0.023,1.755-0.458,1.739-1.306l-0.002-0.1c-0.07-0.933-1.245-1.664-3.524-2.19c-2.281-0.527-3.664-1.463-4.151-2.806
				c-0.176-0.474-0.268-0.929-0.276-1.368c-0.016-0.801,0.244-1.549,0.781-2.246c0.823-1.065,2.089-1.69,3.799-1.876
				c0.46-0.047,0.906-0.075,1.341-0.083c1.137-0.022,2.144,0.105,3.019,0.384c1.197,0.386,2.033,0.956,2.508,1.709
				c0.317,0.518,0.482,1.096,0.495,1.734c0.006,0.305-0.02,0.62-0.077,0.946l-4.102,0.152c0.034-0.239,0.048-0.459,0.044-0.659
				c-0.019-0.953-0.438-1.454-1.257-1.505c-0.09-0.007-0.179-0.011-0.269-0.009c-0.844,0.017-1.406,0.347-1.688,0.991
				c-0.098,0.221-0.145,0.422-0.141,0.603c0.009,0.448,0.297,0.829,0.866,1.142c0.801,0.441,1.983,0.882,3.546,1.324
				c1.562,0.441,2.623,1.223,3.182,2.346c0.2,0.425,0.305,0.852,0.313,1.281c0.014,0.724-0.252,1.459-0.8,2.203
				c-0.872,1.19-2.246,1.899-4.121,2.126c-0.408,0.056-0.811,0.087-1.207,0.095c-1.406,0.028-2.715-0.218-3.928-0.737
				C234.372,60.854,233.563,59.426,233.495,57.235z"/>
			<path fill="#FFFFFF" d="M257.39,61.839l-0.238-2.326c-0.513,1.249-1.945,1.902-4.296,1.958c-0.026,0.01-0.044,0.015-0.057,0.016
				c-2.327,0.046-3.882-0.705-4.667-2.253c-0.532-1.028-0.83-3.172-0.894-6.431c-0.033-1.678-0.002-3.656,0.094-5.936l4.659-0.092
				c-0.192,3.208-0.271,5.673-0.237,7.397c0.017,0.867,0.062,1.543,0.136,2.027c0.221,1.483,0.881,2.213,1.98,2.192
				c1.099-0.022,1.782-0.421,2.048-1.199l-0.387-9.916l4.505-0.117c0.081,4.097,0.373,8.867,0.877,14.31L257.39,61.839z"/>
			<path fill="#FFFFFF" d="M276.784,46.357c4.209,0.089,6.343,1.625,6.401,4.607l0.2,10.148l-4.466,0.145l-0.18-1.354
				c-0.905,0.799-2.118,1.214-3.639,1.244c-0.652,0.013-1.356-0.049-2.114-0.187c-2.271-0.375-3.428-1.658-3.471-3.849
				c-0.005-0.267,0.008-0.553,0.041-0.859c0.211-2.263,2.342-3.435,6.395-3.515c0.779-0.015,1.637,0.011,2.572,0.078l-0.033-1.658
				c-0.026-1.344-0.609-2.004-1.747-1.982l-0.077,0.001c-0.09-0.007-0.173-0.011-0.249-0.009c-1.24,0.024-1.846,0.79-1.815,2.295
				l0.004,0.214l-4.569-0.196c-0.065-3.326,2.049-5.031,6.345-5.115L276.784,46.357z M278.617,57.617l-0.049-2.516
				c-0.552-0.074-1.051-0.107-1.499-0.098c-1.163,0.023-1.95,0.329-2.36,0.918c-0.249,0.357-0.37,0.688-0.364,0.994
				c0.008,0.381,0.219,0.716,0.634,1.003c0.324,0.222,0.742,0.328,1.253,0.318C276.883,58.223,277.679,58.017,278.617,57.617z"/>
			<path fill="#FFFFFF" d="M285.151,66.997c0.013-3.213-0.016-6.63-0.087-10.25c-0.065-3.297-0.165-6.755-0.3-10.375l4.544-0.104
				l0.197,2.198c0.925-1.086,2.173-1.645,3.746-1.675c3.924-0.078,5.932,2.195,6.023,6.816l0.005,0.286
				c0.002,4.632-1.908,6.986-5.73,7.062c-0.153,0.003-0.307,0.001-0.46-0.006c-1.305-0.021-2.37-0.529-3.195-1.523
				c0.042,2.115,0.161,4.605,0.358,7.471L285.151,66.997z M289.639,51.394l0.202,5.373c0.756,0.738,1.511,1.1,2.266,1.085
				c0.307-0.006,0.612-0.079,0.917-0.219c0.925-0.398,1.37-1.547,1.332-3.443c-0.004-0.229-0.016-0.467-0.033-0.714
				c-0.174-2.323-0.818-3.535-1.933-3.637c-0.115-0.007-0.224-0.01-0.326-0.008C291.092,49.85,290.284,50.371,289.639,51.394z"/>
			<path fill="#FFFFFF" d="M306.317,60.631l-4.768,0.423c-0.011-3.155-0.045-6.191-0.103-9.106
				c-0.081-4.098-0.208-7.96-0.382-11.589l4.697-0.15c-0.005,2.336,0.017,4.732,0.065,7.191
				C305.91,51.641,306.074,56.051,306.317,60.631z"/>
			<path fill="#FFFFFF" d="M312.985,42.769c0.012,0.582-0.253,1.083-0.795,1.502c-0.542,0.421-1.203,0.639-1.982,0.654
				c-0.767,0.015-1.43-0.177-1.987-0.576c-0.558-0.398-0.842-0.889-0.854-1.47c-0.011-0.572,0.254-1.068,0.795-1.488
				s1.196-0.639,1.963-0.654c0.78-0.015,1.449,0.177,2.006,0.575C312.689,41.712,312.974,42.197,312.985,42.769z M308.203,60.908
				c-0.2-5.573-0.339-10.389-0.419-14.447l4.828-0.31c-0.077,3.891-0.077,7.756-0.001,11.596c0.02,1.029,0.047,2.053,0.08,3.072
				L308.203,60.908z"/>
			<path fill="#FFFFFF" d="M322.121,54.671l4.568,0.124c0.068,3.44-2.026,5.226-6.282,5.357c-0.051,0.011-0.096,0.017-0.134,0.018
				c-4.052,0.08-6.124-2.172-6.214-6.755l-0.008-0.429c0.03-4.919,2.142-7.444,6.334-7.575l0.153-0.003
				c3.86-0.076,5.823,1.534,5.888,4.831c0.003,0.191,0.001,0.381-0.008,0.572l-4.118,0.31l-0.007-0.343
				c-0.034-1.734-0.709-2.588-2.026-2.562c-1.342,0.027-1.986,1.446-1.93,4.256l0.009,0.472c0.137,3.038,0.844,4.544,2.123,4.519
				l0.115-0.002c1.111-0.088,1.654-0.733,1.631-1.934C322.209,55.27,322.178,54.984,322.121,54.671z"/>
			<path fill="#FFFFFF" d="M335.514,45.199c4.209,0.088,6.343,1.624,6.402,4.606l0.2,10.148l-4.466,0.146l-0.18-1.354
				c-0.905,0.799-2.118,1.213-3.639,1.244c-0.652,0.013-1.356-0.05-2.114-0.187c-2.271-0.375-3.428-1.658-3.471-3.849
				c-0.005-0.267,0.008-0.553,0.041-0.859c0.211-2.264,2.343-3.436,6.395-3.515c0.779-0.016,1.637,0.011,2.572,0.078l-0.033-1.658
				c-0.026-1.344-0.608-2.004-1.746-1.982l-0.077,0.001c-0.09-0.007-0.173-0.011-0.25-0.009c-1.24,0.024-1.845,0.79-1.815,2.295
				l0.004,0.214l-4.569-0.195c-0.066-3.326,2.049-5.031,6.344-5.116L335.514,45.199z M337.348,56.458l-0.049-2.516
				c-0.552-0.074-1.051-0.107-1.498-0.099c-1.164,0.023-1.95,0.329-2.361,0.918c-0.249,0.358-0.37,0.689-0.364,0.994
				c0.007,0.381,0.219,0.716,0.634,1.002c0.324,0.222,0.741,0.328,1.253,0.318C335.614,57.064,336.409,56.858,337.348,56.458z"/>
			<path fill="#FFFFFF" d="M351.38,54.094l4.568,0.125c0.068,3.44-2.026,5.226-6.282,5.357c-0.051,0.011-0.096,0.017-0.134,0.017
				c-4.052,0.08-6.124-2.171-6.214-6.755l-0.008-0.429c0.031-4.919,2.142-7.444,6.334-7.575l0.153-0.003
				c3.86-0.076,5.823,1.534,5.888,4.831c0.004,0.191,0.001,0.381-0.008,0.572l-4.118,0.311l-0.007-0.343
				c-0.034-1.734-0.71-2.588-2.026-2.562c-1.342,0.026-1.986,1.445-1.93,4.256l0.009,0.472c0.137,3.038,0.844,4.544,2.123,4.519
				l0.115-0.002c1.111-0.088,1.654-0.732,1.631-1.934C351.469,54.692,351.438,54.407,351.38,54.094z"/>
			<path fill="#FFFFFF" d="M362.666,41.789c0.012,0.582-0.253,1.083-0.795,1.503s-1.202,0.639-1.982,0.654
				c-0.767,0.015-1.43-0.177-1.987-0.576c-0.558-0.398-0.843-0.889-0.854-1.47c-0.011-0.572,0.254-1.068,0.795-1.488
				c0.541-0.42,1.196-0.639,1.963-0.654c0.779-0.015,1.448,0.177,2.006,0.576C362.37,40.731,362.655,41.217,362.666,41.789z
				 M357.883,59.928c-0.199-5.572-0.339-10.389-0.419-14.447l4.828-0.31c-0.077,3.891-0.077,7.756-0.001,11.596
				c0.02,1.029,0.047,2.053,0.08,3.073L357.883,59.928z"/>
			<path fill="#FFFFFF" d="M370.535,44.922c4.346-0.086,6.563,2.12,6.652,6.617c0.003,0.181,0,0.363-0.009,0.543
				c-0.083,4.873-2.348,7.377-6.795,7.513c-0.051,0.01-0.103,0.016-0.153,0.017c-4.231,0.083-6.392-2.176-6.483-6.778l-0.008-0.4
				C363.77,47.515,366.035,45.011,370.535,44.922z M367.987,42.185c1.47-1.354,2.672-2.641,3.607-3.861l3.181,1.796
				c-1.335,1.018-2.82,2.263-4.453,3.734L367.987,42.185z M369.966,48.193c-0.801,0.226-1.336,1.013-1.603,2.363
				c-0.164,0.804-0.237,1.611-0.221,2.421c0.011,0.543,0.06,1.09,0.147,1.641c0.231,1.368,0.904,2.065,2.018,2.091l0.134-0.003
				c1.036-0.021,1.735-0.544,2.098-1.571c0.303-0.854,0.443-1.863,0.42-3.025c-0.005-0.286-0.018-0.576-0.036-0.872
				c-0.133-1.531-0.458-2.483-0.977-2.854c-0.324-0.223-0.71-0.329-1.157-0.32C370.533,48.068,370.258,48.111,369.966,48.193z"/>
			<path fill="#FFFFFF" d="M381.629,44.331l0.237,2.326c0.513-1.249,1.912-1.906,4.2-1.97l0.077-0.001
				c2.25-0.044,3.797,0.583,4.641,1.881c0.58,0.885,0.902,2.976,0.968,6.272c0.032,1.62-0.001,3.537-0.098,5.75l-4.64,0.091
				c0.108-2.948,0.146-5.231,0.114-6.851c-0.016-0.81-0.048-1.458-0.096-1.942c-0.156-1.427-0.784-2.129-1.883-2.107
				c-1.1,0.021-1.782,0.416-2.048,1.184l0.396,10.359l-4.505,0.117c-0.087-4.383-0.382-9.301-0.886-14.753L381.629,44.331z"/>
			<path fill="#FFFFFF" d="M407.744,43.773c4.209,0.088,6.343,1.624,6.401,4.606l0.2,10.148l-4.466,0.145l-0.18-1.354
				c-0.905,0.799-2.118,1.213-3.639,1.244c-0.652,0.013-1.356-0.05-2.114-0.187c-2.271-0.375-3.428-1.658-3.471-3.849
				c-0.005-0.267,0.008-0.553,0.041-0.859c0.211-2.264,2.342-3.436,6.395-3.515c0.779-0.016,1.637,0.01,2.572,0.078l-0.033-1.658
				c-0.026-1.344-0.609-2.004-1.747-1.982l-0.077,0.001c-0.09-0.008-0.173-0.011-0.25-0.009c-1.24,0.024-1.845,0.79-1.815,2.295
				l0.004,0.214l-4.569-0.196c-0.065-3.326,2.049-5.03,6.344-5.115L407.744,43.773z M409.577,55.033l-0.05-2.516
				c-0.551-0.074-1.051-0.107-1.498-0.099c-1.164,0.023-1.95,0.329-2.36,0.918c-0.249,0.358-0.37,0.689-0.364,0.994
				c0.007,0.381,0.219,0.715,0.634,1.002c0.324,0.222,0.742,0.328,1.253,0.318C407.843,55.639,408.638,55.433,409.577,55.033z"/>
			<path fill="#FFFFFF" d="M421.267,58.362l-4.768,0.423c-0.011-3.155-0.045-6.191-0.103-9.106
				c-0.081-4.098-0.208-7.96-0.382-11.589l4.697-0.15c-0.005,2.336,0.017,4.732,0.065,7.191
				C420.859,49.372,421.023,53.782,421.267,58.362z"/>
		</g>
	</g>
	<g>
		<g>
			<path fill="#331842" d="M27.306,97.089c0.15-0.003,0.29,0.023,0.42,0.079c0.131,0.056,0.247,0.131,0.348,0.225
				c0.101,0.094,0.181,0.208,0.242,0.34c0.061,0.133,0.092,0.275,0.095,0.426c0.006,0.288-0.102,0.55-0.322,0.788
				c-1.496,1.251-3.198,1.896-5.106,1.934c-2.263,0.045-4.208-0.72-5.834-2.294c-1.626-1.574-2.462-3.5-2.507-5.777
				c-0.045-2.271,0.714-4.225,2.277-5.862c1.57-1.644,3.483-2.488,5.739-2.533c1.936-0.038,3.696,0.569,5.282,1.821
				c0.194,0.182,0.295,0.43,0.301,0.746c0.003,0.158-0.021,0.302-0.073,0.434s-0.126,0.248-0.223,0.349
				c-0.097,0.102-0.211,0.181-0.343,0.239s-0.273,0.087-0.423,0.091c-0.266,0.005-0.517-0.093-0.752-0.294
				c-0.526-0.401-1.103-0.706-1.731-0.914c-0.628-0.207-1.293-0.304-1.995-0.29c-1.663,0.033-3.072,0.655-4.229,1.865
				c-1.142,1.196-1.697,2.631-1.664,4.305c0.033,1.681,0.644,3.097,1.833,4.247c1.196,1.157,2.628,1.719,4.298,1.686
				c1.424-0.028,2.67-0.495,3.736-1.401C26.85,97.17,27.06,97.101,27.306,97.089z"/>
			<path fill="#331842" d="M45.479,94.671c0.032,1.605-0.5,2.975-1.596,4.108c-1.109,1.148-2.448,1.737-4.016,1.768
				c-1.581,0.031-2.942-0.505-4.082-1.608c-1.14-1.103-1.726-2.45-1.757-4.042s0.5-2.961,1.596-4.109
				c1.096-1.146,2.434-1.736,4.015-1.767c1.568-0.031,2.929,0.505,4.082,1.607c0.57,0.552,1,1.165,1.289,1.839
				C45.301,93.141,45.457,93.876,45.479,94.671z M39.683,91.172c-0.505,0.01-0.973,0.115-1.405,0.316
				c-0.433,0.201-0.806,0.468-1.12,0.8s-0.561,0.72-0.739,1.162c-0.179,0.443-0.264,0.911-0.254,1.405s0.113,0.958,0.309,1.394
				c0.196,0.436,0.458,0.813,0.784,1.132c0.327,0.32,0.71,0.572,1.15,0.755c0.44,0.184,0.912,0.27,1.417,0.26
				c0.497-0.01,0.962-0.114,1.395-0.315c0.433-0.2,0.808-0.469,1.125-0.805c0.317-0.336,0.565-0.723,0.744-1.163
				c0.179-0.439,0.263-0.906,0.254-1.4c-0.01-0.494-0.113-0.957-0.309-1.389c-0.196-0.431-0.459-0.809-0.789-1.132
				c-0.331-0.323-0.716-0.576-1.155-0.76C40.649,91.25,40.18,91.163,39.683,91.172z"/>
			<path fill="#331842" d="M53.336,89.812c0.893-0.725,1.952-1.1,3.179-1.124c0.715-0.014,1.398,0.113,2.048,0.382
				s1.225,0.64,1.725,1.114c0.5,0.474,0.9,1.035,1.199,1.685c0.299,0.65,0.456,1.344,0.47,2.085l0.1,5.074
				c0.006,0.302-0.093,0.56-0.296,0.773c-0.204,0.213-0.453,0.323-0.745,0.329c-0.3,0.006-0.556-0.093-0.768-0.299
				c-0.212-0.205-0.321-0.458-0.327-0.76l-0.1-5.074c-0.008-0.439-0.102-0.853-0.28-1.24c-0.178-0.388-0.415-0.725-0.71-1.01
				c-0.295-0.286-0.639-0.511-1.031-0.675c-0.392-0.164-0.806-0.242-1.242-0.233c-0.443,0.009-0.855,0.101-1.237,0.277
				c-0.382,0.176-0.717,0.414-1.003,0.714c-0.288,0.301-0.511,0.648-0.67,1.043c-0.16,0.394-0.235,0.811-0.226,1.25l0.1,5.074
				c0.006,0.302-0.093,0.56-0.296,0.773c-0.204,0.213-0.453,0.323-0.746,0.329c-0.3,0.006-0.556-0.093-0.768-0.299
				c-0.212-0.205-0.321-0.458-0.327-0.76L51.2,89.875c-0.006-0.295,0.093-0.551,0.297-0.768c0.204-0.217,0.455-0.329,0.755-0.334
				c0.293-0.006,0.545,0.096,0.758,0.305C53.222,89.286,53.331,89.53,53.336,89.812z"/>
			<path fill="#331842" d="M73.939,85.565c-1.881,0.037-2.803,1-2.766,2.886l0.011,0.535l2.055-0.041
				c0.293-0.005,0.545,0.094,0.758,0.299c0.212,0.206,0.321,0.455,0.327,0.75c0.006,0.302-0.093,0.56-0.297,0.773
				s-0.453,0.323-0.746,0.329l-2.055,0.041l0.152,7.718c0.003,0.144-0.021,0.282-0.074,0.413c-0.052,0.131-0.125,0.248-0.218,0.349
				c-0.093,0.102-0.204,0.181-0.333,0.238s-0.268,0.087-0.417,0.09c-0.15,0.003-0.291-0.021-0.421-0.074
				c-0.131-0.052-0.245-0.127-0.342-0.225c-0.098-0.097-0.175-0.211-0.232-0.34s-0.087-0.266-0.09-0.41L69.1,91.179l-0.491,0.01
				c-0.307,0.006-0.562-0.092-0.768-0.294c-0.206-0.202-0.311-0.457-0.317-0.766c-0.006-0.308,0.089-0.566,0.287-0.772
				c0.197-0.207,0.449-0.312,0.755-0.319l0.491-0.01l-0.011-0.535c-0.065-3.321,1.551-5.013,4.85-5.079
				c0.293-0.005,0.545,0.094,0.758,0.299c0.212,0.206,0.321,0.455,0.327,0.75c0.006,0.302-0.093,0.56-0.297,0.773
				C74.48,85.45,74.232,85.56,73.939,85.565z"/>
			<path fill="#331842" d="M80.116,98.683l-0.283-14.315c-0.006-0.302,0.089-0.559,0.287-0.772c0.197-0.213,0.449-0.323,0.755-0.329
				c0.307-0.006,0.562,0.094,0.768,0.299c0.205,0.206,0.311,0.458,0.316,0.76l0.261,13.234l0.491-0.009
				c0.293-0.006,0.546,0.094,0.758,0.299c0.212,0.206,0.321,0.459,0.327,0.761c0.006,0.295-0.093,0.549-0.296,0.762
				c-0.204,0.214-0.453,0.323-0.746,0.329l-1.564,0.031c-0.293,0.006-0.544-0.094-0.753-0.299
				C80.229,99.228,80.122,98.978,80.116,98.683z"/>
			<path fill="#331842" d="M91.959,85.94c0.007,0.35-0.11,0.651-0.351,0.903c-0.24,0.251-0.535,0.381-0.882,0.388
				c-0.348,0.007-0.646-0.111-0.897-0.353c-0.25-0.243-0.379-0.539-0.386-0.889c-0.007-0.35,0.11-0.651,0.35-0.902
				c0.241-0.251,0.535-0.381,0.882-0.388s0.646,0.111,0.897,0.353C91.824,85.294,91.953,85.591,91.959,85.94z M89.885,98.48
				L89.7,89.115c-0.006-0.302,0.093-0.56,0.297-0.773c0.204-0.213,0.452-0.323,0.745-0.329c0.293-0.006,0.545,0.094,0.758,0.299
				c0.212,0.206,0.324,0.458,0.337,0.761l0.185,9.365c-0.001,0.302-0.104,0.56-0.307,0.773c-0.204,0.214-0.452,0.323-0.745,0.329
				c-0.293,0.005-0.546-0.094-0.758-0.299C90,99.035,89.891,98.782,89.885,98.48z"/>
			<path fill="#331842" d="M107.075,95.958c0.307-0.006,0.562,0.09,0.768,0.288c0.205,0.199,0.311,0.453,0.317,0.761
				c0.006,0.302-0.102,0.568-0.322,0.799c-1.038,0.954-2.272,1.445-3.704,1.474c-1.581,0.031-2.941-0.505-4.082-1.608
				c-1.14-1.103-1.726-2.45-1.757-4.042c-0.031-1.592,0.501-2.961,1.597-4.109c1.095-1.146,2.434-1.736,4.015-1.767
				c1.438-0.029,2.691,0.414,3.759,1.326c0.25,0.214,0.378,0.483,0.384,0.806c0.006,0.309-0.089,0.568-0.286,0.778
				c-0.197,0.209-0.449,0.317-0.756,0.324c-0.259,0.005-0.492-0.073-0.7-0.233c-0.354-0.288-0.723-0.504-1.107-0.647
				c-0.385-0.143-0.802-0.211-1.251-0.202c-0.498,0.01-0.963,0.113-1.395,0.311c-0.433,0.197-0.809,0.462-1.13,0.794
				s-0.571,0.72-0.75,1.163c-0.179,0.443-0.263,0.915-0.253,1.416s0.113,0.969,0.309,1.404c0.196,0.436,0.461,0.813,0.795,1.132
				c0.333,0.319,0.72,0.569,1.16,0.75c0.439,0.18,0.908,0.265,1.406,0.255c0.45-0.009,0.864-0.091,1.243-0.246
				s0.736-0.383,1.071-0.686C106.592,96.05,106.816,95.97,107.075,95.958z"/>
			<path fill="#331842" d="M114.841,87.538l0.48-0.01l-0.076-3.869c-0.006-0.295,0.093-0.549,0.297-0.762
				c0.204-0.214,0.455-0.323,0.755-0.329c0.293-0.006,0.545,0.094,0.758,0.299c0.212,0.206,0.321,0.456,0.327,0.75l0.076,3.869
				l1.278-0.025c0.293-0.006,0.544,0.094,0.752,0.299c0.208,0.206,0.316,0.456,0.322,0.751c0.006,0.302-0.091,0.559-0.292,0.772
				c-0.2,0.213-0.447,0.323-0.74,0.329l-1.278,0.025l0.102,5.176c0.027,1.366,0.722,2.034,2.085,2.007
				c0.293-0.006,0.544,0.094,0.752,0.299c0.208,0.206,0.316,0.456,0.322,0.751c0.006,0.302-0.091,0.56-0.292,0.772
				c-0.201,0.213-0.447,0.323-0.74,0.329c-2.788,0.055-4.209-1.317-4.265-4.117l-0.102-5.176l-0.481,0.01
				c-0.286,0.005-0.536-0.094-0.747-0.299c-0.212-0.205-0.321-0.458-0.327-0.76c-0.006-0.295,0.093-0.549,0.297-0.763
				S114.555,87.543,114.841,87.538z"/>
			<path fill="#331842" d="M137.77,92.851c0.032,1.605-0.5,2.975-1.596,4.108c-1.109,1.148-2.448,1.737-4.015,1.768
				c-1.582,0.031-2.942-0.505-4.082-1.608c-1.14-1.103-1.726-2.451-1.757-4.042c-0.032-1.592,0.5-2.961,1.596-4.108
				c1.095-1.147,2.434-1.736,4.015-1.768c1.567-0.031,2.928,0.505,4.082,1.607c0.57,0.552,1,1.165,1.289,1.839
				C137.592,91.32,137.748,92.055,137.77,92.851z M131.974,89.351c-0.504,0.01-0.973,0.115-1.405,0.316
				c-0.432,0.201-0.806,0.468-1.12,0.8c-0.313,0.332-0.56,0.72-0.739,1.162c-0.179,0.443-0.263,0.911-0.253,1.405
				s0.112,0.958,0.309,1.394s0.458,0.813,0.784,1.132c0.327,0.32,0.71,0.572,1.15,0.755c0.44,0.184,0.912,0.27,1.417,0.26
				c0.498-0.01,0.962-0.114,1.395-0.315c0.432-0.2,0.807-0.469,1.125-0.805c0.317-0.336,0.565-0.723,0.744-1.163
				c0.179-0.439,0.263-0.906,0.253-1.4s-0.112-0.957-0.309-1.389c-0.196-0.431-0.459-0.809-0.789-1.132
				c-0.331-0.323-0.716-0.576-1.156-0.76C132.94,89.428,132.471,89.341,131.974,89.351z"/>
			<path fill="#331842" d="M154.08,96.708l5.181-14.248c0.208-0.499,0.547-0.752,1.018-0.762c0.484-0.009,0.833,0.231,1.047,0.721
				l5.76,14.083c0.057,0.136,0.087,0.283,0.091,0.441c0.006,0.302-0.095,0.561-0.302,0.778c-0.208,0.216-0.461,0.328-0.761,0.334
				s-0.554-0.096-0.763-0.304c-0.111-0.107-0.195-0.223-0.252-0.345l-1.988-4.851l-5.234,0.103l-1.805,4.926
				c-0.052,0.125-0.132,0.243-0.238,0.355c-0.207,0.216-0.461,0.328-0.761,0.334s-0.556-0.096-0.768-0.304
				c-0.212-0.209-0.321-0.464-0.327-0.766C153.974,97.04,154.008,96.875,154.08,96.708z M162.229,90.391l-1.87-4.586l-1.688,4.656
				L162.229,90.391z"/>
			<path fill="#331842" d="M174.828,87.425l0.004,0.206c0.503-0.422,1.052-0.748,1.647-0.979s1.234-0.354,1.916-0.368
				c0.3-0.006,0.623,0.008,0.967,0.043c0.345,0.034,0.664,0.102,0.955,0.203c0.292,0.101,0.535,0.241,0.729,0.423
				s0.295,0.42,0.301,0.715c0.003,0.15-0.023,0.292-0.079,0.423c-0.056,0.132-0.13,0.248-0.223,0.35
				c-0.094,0.102-0.205,0.181-0.333,0.238c-0.128,0.058-0.268,0.088-0.417,0.091c-0.129,0.003-0.28-0.032-0.452-0.104
				c-0.433-0.163-0.901-0.239-1.406-0.229c-0.498,0.01-0.963,0.113-1.395,0.311c-0.433,0.197-0.807,0.462-1.125,0.794
				c-0.317,0.332-0.565,0.72-0.744,1.162c-0.179,0.443-0.263,0.915-0.253,1.416l0.092,4.693c0.006,0.295-0.093,0.549-0.297,0.763
				c-0.204,0.213-0.452,0.323-0.745,0.329c-0.3,0.006-0.556-0.094-0.768-0.299c-0.212-0.205-0.321-0.456-0.327-0.75l-0.185-9.385
				c-0.006-0.295,0.093-0.549,0.297-0.763s0.456-0.323,0.755-0.329c0.293-0.006,0.546,0.094,0.758,0.299
				S174.822,87.13,174.828,87.425z"/>
			<path fill="#331842" d="M203.083,96.246c0.006,0.302-0.093,0.56-0.297,0.772c-0.204,0.214-0.452,0.323-0.745,0.329
				c-0.3,0.006-0.554-0.094-0.763-0.299c-0.208-0.205-0.316-0.458-0.322-0.76l-0.116-5.856c-0.006-0.33-0.076-0.64-0.208-0.933
				c-0.132-0.292-0.309-0.548-0.532-0.767c-0.223-0.218-0.483-0.39-0.782-0.515c-0.299-0.125-0.619-0.184-0.96-0.177
				c-0.334,0.006-0.646,0.078-0.937,0.214c-0.291,0.136-0.544,0.316-0.762,0.54s-0.386,0.485-0.506,0.782
				c-0.121,0.297-0.177,0.614-0.171,0.95l0.116,5.856c0.006,0.302-0.093,0.56-0.296,0.772c-0.204,0.214-0.453,0.323-0.746,0.329
				c-0.3,0.006-0.556-0.094-0.768-0.299s-0.321-0.459-0.327-0.761l-0.116-5.856c-0.006-0.336-0.078-0.65-0.213-0.942
				s-0.314-0.546-0.537-0.762s-0.481-0.385-0.777-0.51c-0.296-0.125-0.611-0.184-0.944-0.177c-0.334,0.007-0.646,0.076-0.937,0.209
				s-0.544,0.313-0.762,0.54c-0.217,0.228-0.386,0.49-0.506,0.788c-0.121,0.298-0.177,0.614-0.17,0.95l0.115,5.856
				c0.006,0.302-0.093,0.56-0.296,0.773c-0.204,0.213-0.453,0.323-0.746,0.329c-0.3,0.006-0.556-0.094-0.768-0.299
				s-0.321-0.459-0.327-0.761l-0.185-9.375c-0.006-0.295,0.093-0.549,0.297-0.763c0.204-0.213,0.452-0.323,0.745-0.329
				c0.238-0.004,0.451,0.058,0.638,0.188c0.187,0.13,0.316,0.304,0.389,0.523c0.72-0.502,1.543-0.762,2.47-0.78
				c0.682-0.013,1.325,0.11,1.93,0.369c0.605,0.259,1.138,0.659,1.599,1.199c0.925-1.109,2.077-1.678,3.454-1.705
				c0.62-0.012,1.21,0.098,1.771,0.331c0.56,0.232,1.051,0.552,1.471,0.959s0.757,0.887,1.01,1.442s0.386,1.144,0.398,1.768
				L203.083,96.246z"/>
			<path fill="#331842" d="M218.415,95.954l-0.004-0.206c-0.503,0.422-1.052,0.749-1.647,0.979
				c-0.596,0.232-1.234,0.354-1.916,0.368c-1.582,0.031-2.942-0.504-4.082-1.608c-1.14-1.103-1.726-2.451-1.757-4.042
				c-0.031-1.592,0.501-2.961,1.597-4.108c1.096-1.146,2.434-1.736,4.015-1.768c1.568-0.031,2.928,0.505,4.082,1.607
				c1.14,1.104,1.726,2.451,1.757,4.043l0.093,4.693c0.006,0.295-0.093,0.549-0.297,0.762c-0.204,0.214-0.453,0.323-0.746,0.329
				c-0.3,0.006-0.556-0.094-0.768-0.299C218.53,96.499,218.421,96.249,218.415,95.954z M214.663,87.719
				c-0.504,0.01-0.973,0.115-1.405,0.316c-0.433,0.201-0.806,0.468-1.12,0.8s-0.56,0.72-0.739,1.162
				c-0.179,0.443-0.263,0.911-0.253,1.405c0.009,0.494,0.112,0.958,0.309,1.394c0.196,0.436,0.458,0.813,0.784,1.132
				c0.327,0.32,0.71,0.572,1.15,0.755c0.44,0.184,0.912,0.27,1.417,0.26c0.497-0.01,0.962-0.114,1.395-0.315
				c0.432-0.2,0.807-0.469,1.125-0.805c0.317-0.336,0.565-0.723,0.744-1.163c0.179-0.439,0.263-0.906,0.253-1.4
				s-0.113-0.957-0.309-1.389c-0.196-0.431-0.459-0.809-0.79-1.132c-0.33-0.322-0.715-0.576-1.155-0.76
				C215.629,87.796,215.16,87.709,214.663,87.719z"/>
			<path fill="#331842" d="M231.894,85.228c1.356-0.027,2.561,0.372,3.613,1.195l-0.102-5.135c-0.006-0.309,0.089-0.566,0.287-0.772
				c0.197-0.207,0.449-0.313,0.756-0.319c0.3-0.006,0.556,0.09,0.768,0.289s0.321,0.452,0.327,0.761l0.19,9.632
				c0.032,1.605-0.5,2.975-1.596,4.108c-1.109,1.148-2.448,1.737-4.015,1.768c-1.582,0.031-2.942-0.505-4.082-1.608
				c-1.14-1.103-1.726-2.451-1.757-4.042c-0.031-1.592,0.5-2.961,1.596-4.108C228.974,85.848,230.312,85.259,231.894,85.228z
				 M235.596,90.92c-0.01-0.494-0.113-0.957-0.309-1.389c-0.196-0.431-0.459-0.809-0.79-1.132c-0.331-0.323-0.715-0.576-1.155-0.76
				c-0.44-0.183-0.909-0.27-1.406-0.26c-0.504,0.01-0.973,0.115-1.405,0.316c-0.433,0.201-0.806,0.468-1.12,0.8
				s-0.561,0.72-0.739,1.162c-0.179,0.443-0.263,0.911-0.253,1.405c0.009,0.494,0.112,0.958,0.309,1.394
				c0.196,0.436,0.458,0.813,0.784,1.132c0.327,0.32,0.71,0.572,1.15,0.755c0.439,0.184,0.912,0.27,1.416,0.26
				c0.498-0.01,0.963-0.114,1.396-0.315c0.432-0.2,0.807-0.469,1.124-0.805c0.317-0.336,0.565-0.723,0.744-1.163
				C235.521,91.88,235.606,91.414,235.596,90.92z"/>
			<path fill="#331842" d="M255.007,90.537c0.032,1.605-0.5,2.975-1.596,4.108c-1.109,1.148-2.448,1.737-4.016,1.768
				c-1.581,0.031-2.942-0.505-4.082-1.608c-1.14-1.103-1.726-2.45-1.757-4.042s0.5-2.961,1.596-4.109
				c1.096-1.146,2.434-1.736,4.015-1.767c1.568-0.031,2.929,0.505,4.082,1.607c0.57,0.552,1,1.165,1.289,1.839
				C254.828,89.006,254.984,89.741,255.007,90.537z M249.21,87.038c-0.505,0.01-0.973,0.115-1.405,0.316
				c-0.433,0.201-0.806,0.468-1.12,0.8s-0.561,0.72-0.739,1.162c-0.179,0.443-0.263,0.911-0.253,1.405s0.113,0.958,0.309,1.394
				c0.196,0.436,0.458,0.813,0.784,1.132c0.327,0.32,0.71,0.572,1.15,0.755c0.44,0.184,0.912,0.27,1.417,0.26
				c0.497-0.01,0.962-0.114,1.395-0.315c0.433-0.2,0.808-0.469,1.125-0.805c0.317-0.336,0.565-0.723,0.744-1.163
				s0.263-0.906,0.254-1.4c-0.01-0.494-0.113-0.957-0.309-1.389c-0.196-0.431-0.459-0.809-0.789-1.132
				c-0.331-0.323-0.716-0.576-1.155-0.76C250.176,87.115,249.708,87.028,249.21,87.038z"/>
			<path fill="#331842" d="M279.912,92.568c0.307-0.006,0.563,0.09,0.768,0.289c0.205,0.198,0.311,0.452,0.317,0.76
				c0.006,0.302-0.091,0.562-0.292,0.778c-1.038,0.954-2.276,1.445-3.714,1.474c-1.581,0.031-2.942-0.505-4.082-1.608
				c-1.14-1.103-1.726-2.45-1.757-4.042s0.5-2.961,1.596-4.109c1.096-1.146,2.434-1.736,4.015-1.767
				c1.568-0.031,2.929,0.505,4.082,1.607c0.57,0.545,1.001,1.156,1.294,1.833c0.293,0.677,0.447,1.414,0.463,2.209
				c0.006,0.309-0.093,0.566-0.297,0.773c-0.204,0.206-0.456,0.312-0.755,0.318l-8.097,0.16c0.123,0.375,0.3,0.717,0.531,1.024
				c0.231,0.308,0.5,0.57,0.808,0.787c0.308,0.217,0.646,0.384,1.012,0.5c0.367,0.116,0.749,0.17,1.144,0.162
				c0.449-0.009,0.86-0.085,1.232-0.229c0.372-0.145,0.716-0.358,1.031-0.639C279.413,92.674,279.646,92.58,279.912,92.568z
				 M280.301,88.967c-0.123-0.375-0.302-0.716-0.537-1.024c-0.235-0.308-0.505-0.57-0.813-0.787c-0.308-0.216-0.646-0.384-1.012-0.5
				c-0.367-0.116-0.745-0.17-1.133-0.163c-0.389,0.007-0.766,0.077-1.131,0.207c-0.366,0.131-0.7,0.312-1.002,0.54
				c-0.302,0.229-0.563,0.502-0.782,0.819c-0.219,0.317-0.379,0.664-0.48,1.044L280.301,88.967z"/>
			<path fill="#331842" d="M290.459,85.133c0.893-0.725,1.952-1.1,3.179-1.124c0.715-0.014,1.398,0.113,2.048,0.382
				s1.225,0.64,1.725,1.114c0.5,0.474,0.9,1.036,1.199,1.685c0.299,0.65,0.457,1.345,0.471,2.086l0.1,5.074
				c0.006,0.302-0.093,0.56-0.296,0.773c-0.204,0.213-0.453,0.323-0.746,0.329c-0.3,0.006-0.556-0.094-0.768-0.299
				s-0.321-0.459-0.327-0.761l-0.1-5.074c-0.008-0.439-0.102-0.853-0.28-1.24c-0.178-0.388-0.415-0.725-0.71-1.011
				c-0.295-0.286-0.639-0.51-1.031-0.674c-0.392-0.164-0.806-0.242-1.242-0.233c-0.443,0.008-0.856,0.101-1.237,0.277
				c-0.382,0.175-0.717,0.414-1.003,0.714c-0.288,0.301-0.511,0.648-0.67,1.043c-0.16,0.394-0.235,0.811-0.226,1.25l0.1,5.074
				c0.006,0.302-0.093,0.56-0.296,0.773c-0.204,0.213-0.453,0.323-0.746,0.329c-0.3,0.006-0.556-0.094-0.768-0.299
				c-0.212-0.205-0.321-0.459-0.327-0.761l-0.185-9.365c-0.006-0.295,0.093-0.551,0.297-0.768c0.204-0.217,0.455-0.329,0.755-0.334
				c0.293-0.006,0.545,0.096,0.758,0.305C290.345,84.606,290.454,84.851,290.459,85.133z"/>
			<path fill="#331842" d="M327.799,91.159c0.15-0.003,0.29,0.024,0.421,0.079c0.13,0.056,0.246,0.131,0.347,0.225
				c0.101,0.094,0.181,0.208,0.242,0.34s0.092,0.274,0.095,0.425c0.006,0.288-0.102,0.551-0.322,0.789
				c-1.496,1.251-3.198,1.896-5.106,1.934c-2.263,0.044-4.208-0.72-5.834-2.294c-1.626-1.574-2.462-3.5-2.507-5.778
				c-0.045-2.271,0.714-4.225,2.277-5.861c1.57-1.644,3.483-2.488,5.739-2.533c1.936-0.038,3.696,0.569,5.282,1.821
				c0.195,0.181,0.295,0.43,0.301,0.746c0.003,0.158-0.021,0.302-0.073,0.434c-0.052,0.131-0.127,0.248-0.224,0.349
				c-0.097,0.102-0.211,0.181-0.343,0.239c-0.132,0.057-0.273,0.087-0.423,0.09c-0.266,0.005-0.517-0.093-0.752-0.294
				c-0.526-0.401-1.103-0.706-1.731-0.913s-1.293-0.304-1.995-0.29c-1.663,0.033-3.072,0.655-4.228,1.864
				c-1.143,1.196-1.697,2.631-1.664,4.306c0.033,1.681,0.644,3.096,1.833,4.246c1.196,1.158,2.628,1.719,4.298,1.686
				c1.424-0.028,2.67-0.495,3.736-1.401C327.343,91.241,327.553,91.171,327.799,91.159z"/>
			<path fill="#331842" d="M345.973,88.742c0.032,1.605-0.5,2.975-1.596,4.108c-1.109,1.148-2.448,1.737-4.016,1.768
				c-1.581,0.031-2.942-0.505-4.082-1.608c-1.14-1.103-1.726-2.45-1.757-4.042s0.501-2.961,1.596-4.109
				c1.096-1.146,2.434-1.736,4.016-1.767c1.567-0.031,2.928,0.505,4.082,1.607c0.57,0.552,1,1.165,1.289,1.838
				C345.794,87.211,345.95,87.946,345.973,88.742z M340.176,85.243c-0.505,0.01-0.973,0.115-1.405,0.316
				c-0.433,0.201-0.806,0.467-1.12,0.799s-0.56,0.72-0.739,1.162c-0.179,0.443-0.264,0.912-0.254,1.406s0.113,0.958,0.309,1.394
				c0.196,0.436,0.458,0.813,0.784,1.132c0.327,0.32,0.71,0.572,1.15,0.755s0.912,0.27,1.417,0.26
				c0.497-0.01,0.962-0.114,1.395-0.315c0.433-0.201,0.808-0.469,1.125-0.805c0.317-0.336,0.565-0.724,0.744-1.163
				c0.179-0.44,0.263-0.906,0.254-1.4c-0.01-0.494-0.113-0.957-0.309-1.389c-0.196-0.432-0.459-0.809-0.789-1.132
				c-0.331-0.323-0.716-0.576-1.155-0.76C341.142,85.32,340.673,85.232,340.176,85.243z"/>
			<path fill="#331842" d="M351.787,93.322l-0.283-14.315c-0.006-0.302,0.089-0.559,0.287-0.772
				c0.196-0.213,0.449-0.323,0.755-0.329s0.562,0.093,0.768,0.299c0.206,0.206,0.311,0.459,0.317,0.761l0.261,13.234l0.491-0.01
				c0.293-0.006,0.545,0.094,0.758,0.299c0.212,0.205,0.321,0.458,0.327,0.761c0.006,0.295-0.093,0.549-0.297,0.763
				s-0.452,0.323-0.745,0.329l-1.564,0.031c-0.293,0.006-0.544-0.094-0.752-0.299S351.792,93.617,351.787,93.322z"/>
			<path fill="#331842" d="M372.341,88.221c0.032,1.605-0.5,2.975-1.596,4.108c-1.109,1.148-2.448,1.737-4.015,1.768
				c-1.582,0.031-2.942-0.505-4.082-1.608c-1.14-1.103-1.726-2.45-1.757-4.042c-0.032-1.592,0.5-2.961,1.596-4.109
				c1.095-1.146,2.434-1.736,4.015-1.767c1.567-0.031,2.928,0.505,4.082,1.607c0.57,0.552,1,1.165,1.289,1.839
				C372.163,86.69,372.319,87.426,372.341,88.221z M366.545,84.722c-0.504,0.01-0.973,0.115-1.405,0.316s-0.806,0.468-1.12,0.8
				c-0.313,0.332-0.56,0.72-0.739,1.162c-0.179,0.443-0.263,0.912-0.253,1.406s0.112,0.958,0.309,1.394
				c0.196,0.436,0.458,0.813,0.784,1.133c0.327,0.32,0.71,0.571,1.15,0.755s0.912,0.27,1.417,0.26
				c0.498-0.01,0.962-0.114,1.395-0.315c0.432-0.2,0.807-0.469,1.125-0.805c0.317-0.336,0.565-0.723,0.744-1.163
				c0.179-0.439,0.263-0.906,0.253-1.4s-0.112-0.957-0.309-1.389c-0.196-0.431-0.459-0.809-0.789-1.132
				c-0.331-0.323-0.716-0.576-1.156-0.76C367.511,84.799,367.042,84.712,366.545,84.722z"/>
			<path fill="#331842" d="M394.421,92.47c0.006,0.302-0.093,0.56-0.297,0.772c-0.204,0.214-0.452,0.323-0.745,0.329
				c-0.3,0.006-0.554-0.094-0.763-0.299c-0.208-0.205-0.315-0.458-0.321-0.76l-0.116-5.856c-0.006-0.33-0.076-0.64-0.208-0.933
				c-0.132-0.292-0.309-0.548-0.532-0.767c-0.223-0.218-0.483-0.39-0.783-0.515c-0.299-0.125-0.619-0.184-0.959-0.177
				c-0.334,0.007-0.646,0.078-0.937,0.214c-0.29,0.136-0.544,0.316-0.761,0.54s-0.386,0.485-0.506,0.782
				c-0.12,0.297-0.177,0.614-0.17,0.95l0.116,5.856c0.006,0.302-0.093,0.56-0.297,0.773c-0.204,0.213-0.452,0.323-0.745,0.329
				c-0.3,0.006-0.556-0.094-0.768-0.299c-0.212-0.205-0.321-0.459-0.327-0.761l-0.115-5.856c-0.007-0.336-0.078-0.65-0.213-0.942
				s-0.314-0.546-0.537-0.762c-0.223-0.215-0.481-0.385-0.777-0.51c-0.295-0.125-0.61-0.184-0.944-0.177
				c-0.334,0.007-0.646,0.076-0.937,0.209c-0.291,0.133-0.544,0.313-0.762,0.541c-0.217,0.227-0.386,0.49-0.506,0.788
				c-0.121,0.297-0.177,0.614-0.17,0.95l0.116,5.856c0.006,0.302-0.093,0.56-0.297,0.773c-0.204,0.213-0.453,0.323-0.745,0.329
				c-0.3,0.006-0.556-0.093-0.768-0.299c-0.212-0.205-0.321-0.458-0.327-0.76l-0.186-9.375c-0.006-0.295,0.093-0.55,0.297-0.763
				c0.204-0.213,0.452-0.323,0.746-0.329c0.238-0.005,0.451,0.058,0.638,0.188s0.316,0.304,0.389,0.523
				c0.72-0.502,1.543-0.762,2.47-0.78c0.681-0.013,1.325,0.11,1.93,0.369c0.605,0.259,1.138,0.659,1.599,1.198
				c0.926-1.109,2.077-1.678,3.454-1.705c0.62-0.012,1.21,0.098,1.771,0.331c0.56,0.232,1.05,0.552,1.471,0.959
				c0.42,0.407,0.757,0.887,1.01,1.442c0.253,0.554,0.386,1.144,0.398,1.768L394.421,92.47z"/>
			<path fill="#331842" d="M402.394,83.14c0.999-0.871,2.187-1.32,3.563-1.347c1.567-0.031,2.928,0.505,4.082,1.608
				c0.569,0.545,1.001,1.156,1.294,1.833s0.447,1.414,0.463,2.209c0.032,1.605-0.5,2.975-1.596,4.108
				c-1.109,1.147-2.448,1.737-4.015,1.768c-1.582,0.031-2.942-0.504-4.082-1.608c-1.14-1.103-1.726-2.45-1.757-4.042l-0.19-9.632
				c-0.006-0.309,0.089-0.566,0.287-0.773c0.197-0.207,0.449-0.312,0.755-0.318c0.3-0.006,0.556,0.09,0.768,0.289
				c0.212,0.198,0.321,0.452,0.327,0.76L402.394,83.14z M406.143,91.167c0.498-0.01,0.962-0.114,1.395-0.315
				c0.432-0.201,0.807-0.469,1.124-0.805c0.317-0.336,0.565-0.724,0.744-1.163c0.179-0.44,0.264-0.906,0.254-1.4
				s-0.112-0.957-0.309-1.389s-0.459-0.81-0.79-1.132c-0.33-0.323-0.715-0.576-1.155-0.76s-0.909-0.271-1.406-0.261
				c-0.504,0.01-0.973,0.116-1.405,0.316c-0.433,0.201-0.806,0.468-1.12,0.8c-0.313,0.332-0.56,0.72-0.739,1.162
				c-0.179,0.443-0.263,0.911-0.253,1.405s0.112,0.958,0.309,1.394s0.458,0.813,0.784,1.132c0.327,0.32,0.71,0.572,1.15,0.755
				C405.166,91.092,405.638,91.178,406.143,91.167z"/>
			<path fill="#331842" d="M420.359,79.46c0.007,0.35-0.11,0.651-0.351,0.902c-0.24,0.251-0.534,0.381-0.882,0.388
				s-0.646-0.111-0.896-0.353c-0.25-0.242-0.379-0.538-0.386-0.888c-0.007-0.35,0.109-0.651,0.35-0.903
				c0.241-0.251,0.535-0.381,0.882-0.388c0.347-0.007,0.646,0.111,0.896,0.353C420.224,78.814,420.352,79.11,420.359,79.46z
				 M418.285,91.999l-0.185-9.365c-0.006-0.302,0.093-0.56,0.296-0.773s0.452-0.323,0.746-0.329
				c0.293-0.005,0.545,0.094,0.757,0.299c0.212,0.206,0.325,0.458,0.337,0.761l0.185,9.365c-0.001,0.302-0.103,0.56-0.307,0.773
				c-0.204,0.213-0.453,0.323-0.746,0.329c-0.293,0.006-0.545-0.094-0.757-0.299C418.399,92.555,418.291,92.301,418.285,91.999z"/>
			<path fill="#331842" d="M436.121,91.658l-0.004-0.206c-0.503,0.421-1.053,0.749-1.648,0.979
				c-0.596,0.231-1.234,0.354-1.916,0.368c-1.582,0.031-2.942-0.505-4.082-1.608c-1.14-1.103-1.726-2.45-1.757-4.042
				c-0.032-1.592,0.5-2.961,1.596-4.109c1.096-1.146,2.434-1.736,4.015-1.767c1.568-0.031,2.928,0.505,4.082,1.607
				c1.14,1.104,1.726,2.451,1.757,4.042l0.092,4.693c0.006,0.295-0.093,0.549-0.297,0.763s-0.452,0.323-0.745,0.329
				c-0.3,0.006-0.556-0.093-0.768-0.299C436.236,92.203,436.127,91.953,436.121,91.658z M432.369,83.423
				c-0.504,0.01-0.973,0.115-1.405,0.316s-0.806,0.468-1.119,0.799c-0.314,0.332-0.561,0.72-0.739,1.162
				c-0.179,0.443-0.263,0.912-0.253,1.406s0.113,0.958,0.309,1.394c0.196,0.436,0.458,0.813,0.784,1.132
				c0.327,0.32,0.71,0.572,1.15,0.755s0.912,0.27,1.417,0.26c0.497-0.01,0.962-0.114,1.395-0.315
				c0.432-0.201,0.807-0.469,1.125-0.805c0.317-0.336,0.565-0.724,0.744-1.163c0.179-0.44,0.263-0.906,0.254-1.4
				c-0.01-0.494-0.113-0.958-0.309-1.389c-0.196-0.432-0.459-0.809-0.79-1.132c-0.33-0.323-0.715-0.576-1.155-0.76
				C433.335,83.5,432.866,83.413,432.369,83.423z"/>
		</g>
	</g>
</g>
</svg>
