<?xml version="1.0" encoding="utf-8"?>
<!-- Generator: Adobe Illustrator 16.0.0, SVG Export Plug-In . SVG Version: 6.00 Build 0)  -->
<!DOCTYPE svg PUBLIC "-//W3C//DTD SVG 1.1//EN" "http://www.w3.org/Graphics/SVG/1.1/DTD/svg11.dtd">
<svg version="1.1" id="Capa_1" xmlns="http://www.w3.org/2000/svg" xmlns:xlink="http://www.w3.org/1999/xlink" x="0px" y="0px"
	 width="245.695px" height="121.988px" viewBox="0 0 245.695 121.988" enable-background="new 0 0 245.695 121.988"
	 xml:space="preserve">
<g>
	<circle fill="#331842" stroke="#A0C219" stroke-width="5" stroke-miterlimit="10" cx="61.63" cy="22.604" r="20.104"/>
	<g>
		<path fill="#E9496E" d="M54.693,18.703c-0.052-0.512-0.078-0.988-0.078-1.432c0-1.532,0.311-2.712,0.931-3.542
			c0.789-1.06,2.082-1.715,3.878-1.966c0.88-0.125,1.72-0.188,2.521-0.188c0.813,0,1.59,0.066,2.327,0.202
			c1.435,0.261,2.582,0.844,3.441,1.749c0.859,0.906,1.321,2.149,1.387,3.729v0.434c0,1.368-0.284,2.366-0.854,2.992
			c-0.634,0.703-1.674,1.233-3.122,1.59c1.202,0.136,2.104,0.46,2.705,0.977c0.602,0.516,1.019,1.207,1.25,2.073
			c0.129,0.482,0.194,1.013,0.194,1.591c0,0.472-0.046,0.982-0.136,1.531c-0.194,1.205-0.852,2.246-1.969,3.122
			c-1.119,0.877-2.841,1.335-5.168,1.374h-0.31c-2.186,0-3.93-0.424-5.236-1.271c-1.356-0.867-2.036-2.732-2.036-5.594v-0.088
			l5.022-0.217c-0.013,0.164-0.021,0.323-0.021,0.478c0,2.022,0.711,3.068,2.134,3.137c0.103,0.01,0.199,0.015,0.291,0.015
			c1.344,0,2.152-0.529,2.424-1.59c0.077-0.298,0.116-0.583,0.116-0.853c0-0.762-0.291-1.421-0.873-1.98
			c-0.803-0.752-2.127-1.127-3.976-1.127l-0.232-2.747c0.22,0.01,0.426,0.016,0.62,0.016c1.616,0,2.729-0.348,3.336-1.041
			c0.568-0.646,0.854-1.484,0.854-2.516c0-0.202-0.013-0.409-0.039-0.622c-0.116-1.232-0.86-1.85-2.229-1.85h-0.252
			c-1.357,0.066-2.036,1.079-2.036,3.036c0,0.23,0.006,0.477,0.02,0.736L54.693,18.703z"/>
	</g>
</g>
</svg>
