<?xml version="1.0" encoding="utf-8"?>
<!-- Generator: Adobe Illustrator 16.0.0, SVG Export Plug-In . SVG Version: 6.00 Build 0)  -->
<!DOCTYPE svg PUBLIC "-//W3C//DTD SVG 1.1//EN" "http://www.w3.org/Graphics/SVG/1.1/DTD/svg11.dtd">
<svg version="1.1" id="Capa_1" xmlns="http://www.w3.org/2000/svg" xmlns:xlink="http://www.w3.org/1999/xlink" x="0px" y="0px"
	 width="270.195px" height="102.977px" viewBox="0 0 270.195 102.977" enable-background="new 0 0 270.195 102.977"
	 xml:space="preserve">
<g>
	<circle fill="#331842" stroke="#A0C219" stroke-width="5" stroke-miterlimit="10" cx="22.604" cy="22.604" r="20.104"/>
	<g>
		<path fill="#E9496E" d="M15.328,18.847c-0.064-0.578-0.098-1.113-0.098-1.604c0-1.726,0.42-2.969,1.261-3.729
			c1.072-0.973,2.442-1.556,4.11-1.749c0.595-0.067,1.176-0.101,1.746-0.101c1.021,0,2.003,0.105,2.947,0.317
			c1.474,0.337,2.585,1.002,3.335,1.995c0.606,0.829,0.911,1.89,0.911,3.18c0,0.252-0.006,0.517-0.021,0.796
			c-0.154,1.657-0.824,3.183-2.007,4.574c-1.183,1.394-3.229,3.386-6.137,5.978l8.474,0.043l-0.059,3.628
			c-3.71,0.125-8.493,0.188-14.35,0.188l-0.445-3.945c3.516-2.833,6.023-5.012,7.523-6.534c1.37-1.397,2.057-2.771,2.057-4.12
			v-0.362c-0.144-1.444-0.957-2.168-2.443-2.168h-0.078c-1.293,0.029-1.938,0.906-1.938,2.631c0,0.328,0.019,0.68,0.058,1.056
			L15.328,18.847z"/>
	</g>
</g>
</svg>
