<?xml version="1.0" encoding="utf-8"?>
<!-- Generator: Adobe Illustrator 16.0.0, SVG Export Plug-In . SVG Version: 6.00 Build 0)  -->
<!DOCTYPE svg PUBLIC "-//W3C//DTD SVG 1.1//EN" "http://www.w3.org/Graphics/SVG/1.1/DTD/svg11.dtd">
<svg version="1.1" id="Capa_1" xmlns="http://www.w3.org/2000/svg" xmlns:xlink="http://www.w3.org/1999/xlink" x="0px" y="0px"
	 width="497.309px" height="140.635px" viewBox="0 0 497.309 140.635" enable-background="new 0 0 497.309 140.635"
	 xml:space="preserve">
<g>
	<g>
		<path fill="#662483" d="M497.309,120.635c0,11-9,20-20,20H20c-11,0-20-9-20-20V39.709c0-11,9-20,20-20h457.309c11,0,20,9,20,20
			V120.635z"/>
	</g>
	<polygon fill="#662483" points="287.467,39.419 310.225,0 332.985,39.419 	"/>
	<g>
		<path fill="#FFFFFF" d="M491.172,115.535c0,11-9,20-20,20H26.806c-11,0-20-9-20-20V44.81c0-11,9-20,20-20h444.366c11,0,20,9,20,20
			V115.535z"/>
	</g>
</g>
</svg>
