<?xml version="1.0" encoding="utf-8"?>
<!-- Generator: Adobe Illustrator 16.0.0, SVG Export Plug-In . SVG Version: 6.00 Build 0)  -->
<!DOCTYPE svg PUBLIC "-//W3C//DTD SVG 1.1//EN" "http://www.w3.org/Graphics/SVG/1.1/DTD/svg11.dtd">
<svg version="1.1" id="Capa_1" xmlns="http://www.w3.org/2000/svg" xmlns:xlink="http://www.w3.org/1999/xlink" x="0px" y="0px"
	 width="234.875px" height="98.965px" viewBox="0 0 234.875 98.965" enable-background="new 0 0 234.875 98.965"
	 xml:space="preserve">
<g>
	<circle fill="#331842" stroke="#A0C219" stroke-width="5" stroke-miterlimit="10" cx="212.272" cy="22.604" r="20.104"/>
	<g>
		<path fill="#E9496E" d="M209.65,22.432c1.009-1.417,2.47-2.125,4.384-2.125h0.038c1.927,0.01,3.394,0.537,4.402,1.583
			c1.008,1.046,1.544,2.248,1.608,3.607v0.361c0,1.243-0.283,2.481-0.853,3.715c-0.621,1.349-1.597,2.246-2.929,2.688
			c-0.969,0.337-2.061,0.506-3.276,0.506c-0.438,0-0.897-0.024-1.376-0.072c-1.771-0.164-3.188-0.771-4.247-1.821
			c-1.062-1.05-1.823-2.448-2.288-4.192c-0.35-1.281-0.523-2.717-0.523-4.308c0-0.559,0.025-1.132,0.078-1.72
			c0.154-2.274,0.543-4.127,1.164-5.558c0.621-1.431,1.543-2.45,2.772-3.058c1.202-0.587,2.571-0.881,4.11-0.881h0.117
			c1.576,0.02,2.912,0.4,4.004,1.142c1.092,0.742,1.8,1.754,2.123,3.036c0.207,0.848,0.311,1.682,0.311,2.501
			c0,0.434-0.025,0.857-0.078,1.272h-4.343c0.024-0.337,0.039-0.65,0.039-0.94c0-1.802-0.446-2.79-1.339-2.963
			c-0.232-0.039-0.452-0.058-0.659-0.058c-0.75,0-1.376,0.285-1.882,0.853c-0.658,0.732-1.065,1.744-1.221,3.036
			c-0.117,0.877-0.175,1.682-0.175,2.414C209.611,21.796,209.624,22.124,209.65,22.432z M210.038,25.178
			c0.026,1.272,0.25,2.224,0.67,2.855c0.42,0.631,1.043,0.995,1.871,1.091c0.129,0.02,0.264,0.029,0.406,0.029
			c0.646,0,1.223-0.197,1.727-0.592c0.556-0.434,0.832-1.214,0.832-2.342V25.93c-0.051-1.282-0.652-2.033-1.803-2.255
			c-0.181-0.029-0.361-0.043-0.543-0.043C212.204,23.632,211.149,24.147,210.038,25.178z"/>
	</g>
</g>
</svg>
