<?xml version="1.0" encoding="utf-8"?>
<!-- Generator: Adobe Illustrator 16.0.0, SVG Export Plug-In . SVG Version: 6.00 Build 0)  -->
<!DOCTYPE svg PUBLIC "-//W3C//DTD SVG 1.1//EN" "http://www.w3.org/Graphics/SVG/1.1/DTD/svg11.dtd">
<svg version="1.1" id="Capa_1" xmlns="http://www.w3.org/2000/svg" xmlns:xlink="http://www.w3.org/1999/xlink" x="0px" y="0px"
	 width="531.158px" height="81.322px" viewBox="0 0 531.158 81.322" enable-background="new 0 0 531.158 81.322"
	 xml:space="preserve">
<g>
	<g>
		<g>
			<path fill="#3C3C3B" d="M268.768,36.519l1.43-0.125c0.067,0.573,0.225,1.043,0.473,1.41c0.247,0.367,0.631,0.664,1.152,0.891
				c0.521,0.227,1.106,0.34,1.758,0.34c0.578,0,1.088-0.086,1.531-0.258c0.442-0.172,0.772-0.407,0.988-0.707
				c0.216-0.3,0.324-0.626,0.324-0.98c0-0.359-0.104-0.673-0.312-0.941c-0.208-0.269-0.552-0.493-1.031-0.676
				c-0.308-0.12-0.987-0.306-2.039-0.559c-1.052-0.253-1.789-0.491-2.211-0.715c-0.547-0.286-0.955-0.642-1.223-1.066
				c-0.269-0.425-0.402-0.899-0.402-1.426c0-0.578,0.164-1.118,0.492-1.621s0.807-0.884,1.438-1.145
				c0.63-0.261,1.331-0.391,2.102-0.391c0.849,0,1.598,0.137,2.246,0.41s1.147,0.676,1.496,1.207
				c0.349,0.531,0.536,1.133,0.562,1.805l-1.453,0.109c-0.078-0.724-0.343-1.271-0.793-1.641c-0.451-0.37-1.116-0.555-1.996-0.555
				c-0.917,0-1.585,0.168-2.004,0.504c-0.419,0.336-0.629,0.741-0.629,1.215c0,0.411,0.148,0.75,0.445,1.016
				c0.292,0.266,1.053,0.538,2.285,0.816c1.231,0.278,2.077,0.522,2.535,0.73c0.667,0.308,1.159,0.696,1.477,1.168
				c0.317,0.472,0.477,1.015,0.477,1.629c0,0.609-0.175,1.184-0.523,1.723c-0.349,0.539-0.851,0.958-1.504,1.258
				c-0.654,0.3-1.39,0.449-2.207,0.449c-1.037,0-1.905-0.151-2.605-0.453c-0.701-0.302-1.25-0.757-1.648-1.363
				S268.788,37.284,268.768,36.519z"/>
			<path fill="#3C3C3B" d="M285.455,37.526l1.453,0.18c-0.229,0.849-0.654,1.508-1.273,1.977c-0.62,0.469-1.412,0.703-2.375,0.703
				c-1.214,0-2.176-0.374-2.887-1.121s-1.066-1.796-1.066-3.145c0-1.396,0.359-2.479,1.078-3.25s1.651-1.156,2.797-1.156
				c1.109,0,2.016,0.378,2.719,1.133s1.055,1.817,1.055,3.188c0,0.083-0.003,0.208-0.008,0.375h-6.188
				c0.052,0.911,0.31,1.609,0.773,2.094c0.463,0.484,1.042,0.727,1.734,0.727c0.516,0,0.956-0.136,1.32-0.406
				C284.952,38.553,285.241,38.12,285.455,37.526z M280.838,35.253h4.633c-0.062-0.698-0.24-1.222-0.531-1.57
				c-0.448-0.542-1.029-0.812-1.742-0.812c-0.646,0-1.189,0.216-1.629,0.648C281.128,33.951,280.885,34.529,280.838,35.253z"/>
			<path fill="#3C3C3B" d="M288.674,40.198v-8.297h1.266v1.18c0.609-0.911,1.489-1.367,2.641-1.367c0.5,0,0.959,0.09,1.379,0.27
				c0.419,0.18,0.733,0.415,0.941,0.707c0.208,0.292,0.354,0.638,0.438,1.039c0.052,0.261,0.078,0.716,0.078,1.367v5.102h-1.406
				v-5.047c0-0.573-0.055-1.001-0.164-1.285s-0.304-0.511-0.582-0.68c-0.279-0.169-0.605-0.254-0.98-0.254
				c-0.599,0-1.116,0.19-1.551,0.57c-0.435,0.38-0.652,1.102-0.652,2.164v4.531H288.674z"/>
			<path fill="#3C3C3B" d="M300.643,38.94l0.203,1.242c-0.396,0.083-0.75,0.125-1.062,0.125c-0.511,0-0.906-0.081-1.188-0.242
				s-0.479-0.374-0.594-0.637c-0.115-0.263-0.172-0.816-0.172-1.66v-4.773h-1.031v-1.094h1.031v-2.055l1.398-0.844v2.898h1.414
				v1.094h-1.414v4.852c0,0.401,0.024,0.659,0.074,0.773c0.049,0.114,0.13,0.206,0.242,0.273c0.112,0.067,0.272,0.102,0.48,0.102
				C300.182,38.995,300.387,38.977,300.643,38.94z"/>
			<path fill="#3C3C3B" d="M307.697,37.526l1.453,0.18c-0.229,0.849-0.654,1.508-1.273,1.977c-0.62,0.469-1.412,0.703-2.375,0.703
				c-1.214,0-2.176-0.374-2.887-1.121s-1.066-1.796-1.066-3.145c0-1.396,0.359-2.479,1.078-3.25s1.651-1.156,2.797-1.156
				c1.109,0,2.016,0.378,2.719,1.133s1.055,1.817,1.055,3.188c0,0.083-0.003,0.208-0.008,0.375h-6.188
				c0.052,0.911,0.31,1.609,0.773,2.094c0.463,0.484,1.042,0.727,1.734,0.727c0.516,0,0.956-0.136,1.32-0.406
				C307.194,38.553,307.483,38.12,307.697,37.526z M303.08,35.253h4.633c-0.062-0.698-0.24-1.222-0.531-1.57
				c-0.448-0.542-1.029-0.812-1.742-0.812c-0.646,0-1.189,0.216-1.629,0.648C303.37,33.951,303.127,34.529,303.08,35.253z"/>
			<path fill="#3C3C3B" d="M310.916,40.198v-8.297h1.266v1.18c0.609-0.911,1.489-1.367,2.641-1.367c0.5,0,0.959,0.09,1.379,0.27
				c0.419,0.18,0.733,0.415,0.941,0.707c0.208,0.292,0.354,0.638,0.438,1.039c0.052,0.261,0.078,0.716,0.078,1.367v5.102h-1.406
				v-5.047c0-0.573-0.055-1.001-0.164-1.285s-0.304-0.511-0.582-0.68c-0.279-0.169-0.605-0.254-0.98-0.254
				c-0.599,0-1.116,0.19-1.551,0.57c-0.435,0.38-0.652,1.102-0.652,2.164v4.531H310.916z"/>
			<path fill="#3C3C3B" d="M325.229,37.159l1.383,0.18c-0.151,0.953-0.538,1.699-1.16,2.238c-0.623,0.539-1.387,0.809-2.293,0.809
				c-1.136,0-2.048-0.371-2.738-1.113c-0.69-0.742-1.035-1.806-1.035-3.191c0-0.896,0.148-1.68,0.445-2.352s0.749-1.176,1.355-1.512
				c0.606-0.336,1.267-0.504,1.98-0.504c0.901,0,1.638,0.228,2.211,0.684c0.573,0.456,0.94,1.103,1.102,1.941l-1.367,0.211
				c-0.13-0.558-0.361-0.977-0.691-1.258c-0.331-0.281-0.73-0.422-1.199-0.422c-0.708,0-1.284,0.254-1.727,0.762
				c-0.443,0.508-0.664,1.312-0.664,2.41c0,1.114,0.213,1.925,0.641,2.43c0.427,0.505,0.984,0.758,1.672,0.758
				c0.552,0,1.013-0.169,1.383-0.508C324.895,38.383,325.129,37.862,325.229,37.159z"/>
			<path fill="#3C3C3B" d="M327.822,30.362v-1.617h1.406v1.617H327.822z M327.822,40.198v-8.297h1.406v8.297H327.822z"/>
			<path fill="#3C3C3B" d="M336.783,39.175c-0.521,0.442-1.022,0.755-1.504,0.938c-0.482,0.183-0.999,0.273-1.551,0.273
				c-0.912,0-1.612-0.223-2.102-0.668c-0.49-0.445-0.734-1.015-0.734-1.707c0-0.406,0.092-0.777,0.277-1.113
				c0.185-0.336,0.427-0.605,0.727-0.809c0.299-0.203,0.637-0.356,1.012-0.461c0.276-0.073,0.692-0.144,1.25-0.211
				c1.135-0.136,1.971-0.297,2.508-0.484c0.005-0.192,0.008-0.315,0.008-0.367c0-0.573-0.133-0.977-0.398-1.211
				c-0.359-0.317-0.894-0.477-1.602-0.477c-0.662,0-1.15,0.116-1.465,0.348c-0.315,0.231-0.548,0.642-0.699,1.23l-1.375-0.188
				c0.125-0.589,0.331-1.063,0.617-1.426c0.286-0.362,0.7-0.641,1.242-0.836c0.542-0.195,1.169-0.293,1.883-0.293
				c0.708,0,1.284,0.083,1.727,0.25c0.442,0.167,0.768,0.376,0.977,0.629c0.208,0.253,0.354,0.571,0.438,0.957
				c0.047,0.239,0.07,0.672,0.07,1.297v1.875c0,1.308,0.03,2.134,0.09,2.48c0.06,0.347,0.178,0.679,0.355,0.996h-1.469
				C336.918,39.906,336.825,39.565,336.783,39.175z M336.666,36.034c-0.511,0.208-1.276,0.386-2.297,0.531
				c-0.578,0.083-0.987,0.177-1.227,0.281c-0.24,0.104-0.425,0.257-0.555,0.457c-0.13,0.2-0.195,0.423-0.195,0.668
				c0,0.375,0.142,0.688,0.426,0.938c0.284,0.25,0.699,0.375,1.246,0.375c0.542,0,1.023-0.118,1.445-0.355s0.731-0.562,0.93-0.973
				c0.151-0.317,0.227-0.786,0.227-1.406V36.034z"/>
			<path fill="#3C3C3B" d="M353.064,36.183l1.516,0.383c-0.318,1.245-0.89,2.194-1.715,2.848c-0.826,0.653-1.835,0.98-3.027,0.98
				c-1.234,0-2.238-0.251-3.012-0.754s-1.362-1.23-1.766-2.184c-0.404-0.953-0.605-1.977-0.605-3.07
				c0-1.192,0.228-2.233,0.684-3.121c0.456-0.888,1.104-1.562,1.945-2.023c0.841-0.461,1.767-0.691,2.777-0.691
				c1.146,0,2.109,0.292,2.891,0.875s1.325,1.403,1.633,2.461l-1.492,0.352c-0.266-0.833-0.651-1.44-1.156-1.82
				c-0.505-0.38-1.141-0.57-1.906-0.57c-0.88,0-1.616,0.211-2.207,0.633c-0.591,0.422-1.007,0.988-1.246,1.699
				c-0.24,0.711-0.359,1.444-0.359,2.199c0,0.974,0.142,1.824,0.426,2.551c0.284,0.727,0.725,1.27,1.324,1.629
				c0.599,0.359,1.247,0.539,1.945,0.539c0.849,0,1.567-0.245,2.156-0.734C352.458,37.873,352.856,37.146,353.064,36.183z"/>
			<path fill="#3C3C3B" d="M355.744,36.05c0-1.536,0.427-2.675,1.281-3.414c0.713-0.614,1.583-0.922,2.609-0.922
				c1.141,0,2.073,0.374,2.797,1.121c0.724,0.747,1.086,1.78,1.086,3.098c0,1.067-0.16,1.907-0.48,2.52s-0.787,1.087-1.398,1.426
				c-0.612,0.339-1.28,0.508-2.004,0.508c-1.162,0-2.101-0.372-2.816-1.117C356.102,38.523,355.744,37.451,355.744,36.05z
				 M357.189,36.05c0,1.062,0.231,1.858,0.695,2.387c0.463,0.528,1.047,0.793,1.75,0.793c0.698,0,1.278-0.266,1.742-0.797
				c0.463-0.531,0.695-1.341,0.695-2.43c0-1.026-0.233-1.804-0.699-2.332c-0.466-0.528-1.046-0.793-1.738-0.793
				c-0.703,0-1.287,0.263-1.75,0.789C357.421,34.193,357.189,34.987,357.189,36.05z"/>
			<path fill="#3C3C3B" d="M365.15,40.198v-8.297h1.266v1.258c0.323-0.589,0.621-0.977,0.895-1.164s0.574-0.281,0.902-0.281
				c0.474,0,0.956,0.151,1.445,0.453l-0.484,1.305c-0.344-0.203-0.688-0.305-1.031-0.305c-0.308,0-0.583,0.093-0.828,0.277
				c-0.245,0.185-0.419,0.441-0.523,0.77c-0.156,0.5-0.234,1.047-0.234,1.641v4.344H365.15z"/>
			<path fill="#3C3C3B" d="M373.564,38.94l0.203,1.242c-0.396,0.083-0.75,0.125-1.062,0.125c-0.511,0-0.906-0.081-1.188-0.242
				s-0.479-0.374-0.594-0.637c-0.115-0.263-0.172-0.816-0.172-1.66v-4.773h-1.031v-1.094h1.031v-2.055l1.398-0.844v2.898h1.414
				v1.094h-1.414v4.852c0,0.401,0.024,0.659,0.074,0.773c0.049,0.114,0.13,0.206,0.242,0.273c0.112,0.067,0.272,0.102,0.48,0.102
				C373.104,38.995,373.309,38.977,373.564,38.94z"/>
			<path fill="#3C3C3B" d="M380.619,37.526l1.453,0.18c-0.229,0.849-0.654,1.508-1.273,1.977c-0.62,0.469-1.412,0.703-2.375,0.703
				c-1.214,0-2.176-0.374-2.887-1.121s-1.066-1.796-1.066-3.145c0-1.396,0.359-2.479,1.078-3.25s1.651-1.156,2.797-1.156
				c1.109,0,2.016,0.378,2.719,1.133s1.055,1.817,1.055,3.188c0,0.083-0.003,0.208-0.008,0.375h-6.188
				c0.052,0.911,0.31,1.609,0.773,2.094c0.463,0.484,1.042,0.727,1.734,0.727c0.516,0,0.956-0.136,1.32-0.406
				C380.116,38.553,380.405,38.12,380.619,37.526z M376.002,35.253h4.633c-0.062-0.698-0.24-1.222-0.531-1.57
				c-0.448-0.542-1.029-0.812-1.742-0.812c-0.646,0-1.189,0.216-1.629,0.648C376.292,33.951,376.049,34.529,376.002,35.253z"/>
			<path fill="#3C3C3B" d="M388.721,40.198V28.745h1.516v11.453H388.721z"/>
			<path fill="#3C3C3B" d="M392.908,40.198V28.745h3.945c0.891,0,1.57,0.055,2.039,0.164c0.656,0.151,1.216,0.425,1.68,0.82
				c0.604,0.511,1.056,1.163,1.355,1.957c0.299,0.794,0.449,1.702,0.449,2.723c0,0.87-0.102,1.641-0.305,2.312
				s-0.464,1.228-0.781,1.668c-0.318,0.44-0.666,0.786-1.043,1.039c-0.378,0.253-0.833,0.444-1.367,0.574
				c-0.534,0.13-1.147,0.195-1.84,0.195H392.908z M394.424,38.847h2.445c0.755,0,1.348-0.07,1.777-0.211s0.772-0.339,1.027-0.594
				c0.359-0.359,0.639-0.843,0.84-1.449c0.2-0.606,0.301-1.343,0.301-2.207c0-1.198-0.197-2.118-0.59-2.762
				c-0.394-0.644-0.871-1.074-1.434-1.293c-0.406-0.156-1.06-0.234-1.961-0.234h-2.406V38.847z"/>
			<path fill="#3C3C3B" d="M404.51,40.198V28.745h1.516v4.703h5.953v-4.703h1.516v11.453h-1.516V34.8h-5.953v5.398H404.51z"/>
			<path fill="#3C3C3B" d="M416.229,33.503v-1.602h1.602v1.602H416.229z M416.229,40.198v-1.602h1.602v1.602H416.229z"/>
			<path fill="#3C3C3B" d="M424.861,40.198V28.745h2.281l2.711,8.109c0.25,0.755,0.432,1.32,0.547,1.695
				c0.13-0.417,0.333-1.028,0.609-1.836l2.742-7.969h2.039v11.453h-1.461v-9.586l-3.328,9.586h-1.367l-3.312-9.75v9.75H424.861z"/>
			<path fill="#3C3C3B" d="M443.471,39.175c-0.521,0.442-1.022,0.755-1.504,0.938c-0.482,0.183-0.999,0.273-1.551,0.273
				c-0.912,0-1.612-0.223-2.102-0.668c-0.49-0.445-0.734-1.015-0.734-1.707c0-0.406,0.092-0.777,0.277-1.113
				c0.185-0.336,0.427-0.605,0.727-0.809c0.299-0.203,0.637-0.356,1.012-0.461c0.276-0.073,0.692-0.144,1.25-0.211
				c1.135-0.136,1.971-0.297,2.508-0.484c0.005-0.192,0.008-0.315,0.008-0.367c0-0.573-0.133-0.977-0.398-1.211
				c-0.359-0.317-0.894-0.477-1.602-0.477c-0.662,0-1.15,0.116-1.465,0.348c-0.315,0.231-0.548,0.642-0.699,1.23l-1.375-0.188
				c0.125-0.589,0.331-1.063,0.617-1.426c0.286-0.362,0.7-0.641,1.242-0.836c0.542-0.195,1.169-0.293,1.883-0.293
				c0.708,0,1.284,0.083,1.727,0.25c0.442,0.167,0.768,0.376,0.977,0.629c0.208,0.253,0.354,0.571,0.438,0.957
				c0.047,0.239,0.07,0.672,0.07,1.297v1.875c0,1.308,0.03,2.134,0.09,2.48c0.06,0.347,0.178,0.679,0.355,0.996h-1.469
				C443.606,39.906,443.512,39.565,443.471,39.175z M443.354,36.034c-0.511,0.208-1.276,0.386-2.297,0.531
				c-0.578,0.083-0.987,0.177-1.227,0.281c-0.24,0.104-0.425,0.257-0.555,0.457c-0.13,0.2-0.195,0.423-0.195,0.668
				c0,0.375,0.142,0.688,0.426,0.938c0.284,0.25,0.699,0.375,1.246,0.375c0.542,0,1.023-0.118,1.445-0.355s0.731-0.562,0.93-0.973
				c0.151-0.317,0.227-0.786,0.227-1.406V36.034z"/>
			<path fill="#3C3C3B" d="M446.955,43.378V31.901h1.281v1.078c0.302-0.422,0.643-0.738,1.023-0.949
				c0.38-0.211,0.841-0.316,1.383-0.316c0.708,0,1.333,0.183,1.875,0.547c0.542,0.364,0.95,0.879,1.227,1.543
				c0.276,0.664,0.414,1.392,0.414,2.184c0,0.849-0.152,1.613-0.457,2.293s-0.748,1.2-1.328,1.562
				c-0.581,0.362-1.191,0.543-1.832,0.543c-0.469,0-0.89-0.099-1.262-0.297c-0.373-0.198-0.679-0.448-0.918-0.75v4.039H446.955z
				 M448.229,36.097c0,1.067,0.216,1.856,0.648,2.367c0.432,0.511,0.956,0.766,1.57,0.766c0.625,0,1.16-0.265,1.605-0.793
				s0.668-1.348,0.668-2.457c0-1.058-0.218-1.849-0.652-2.375c-0.435-0.526-0.955-0.789-1.559-0.789c-0.599,0-1.129,0.28-1.59,0.84
				S448.229,35.029,448.229,36.097z"/>
			<path fill="#3C3C3B" d="M455.861,30.362v-1.617h1.406v1.617H455.861z M455.861,40.198v-8.297h1.406v8.297H455.861z"/>
			<path fill="#3C3C3B" d="M459.393,40.198v-8.297h1.266v1.258c0.323-0.589,0.621-0.977,0.895-1.164s0.574-0.281,0.902-0.281
				c0.474,0,0.956,0.151,1.445,0.453l-0.484,1.305c-0.344-0.203-0.688-0.305-1.031-0.305c-0.308,0-0.583,0.093-0.828,0.277
				c-0.245,0.185-0.419,0.441-0.523,0.77c-0.156,0.5-0.234,1.047-0.234,1.641v4.344H459.393z"/>
			<path fill="#3C3C3B" d="M464.744,30.362v-1.617h1.406v1.617H464.744z M464.744,40.198v-8.297h1.406v8.297H464.744z"/>
			<path fill="#3C3C3B" d="M468.291,43.378V31.901h1.281v1.078c0.302-0.422,0.643-0.738,1.023-0.949
				c0.38-0.211,0.841-0.316,1.383-0.316c0.708,0,1.333,0.183,1.875,0.547c0.542,0.364,0.95,0.879,1.227,1.543
				c0.276,0.664,0.414,1.392,0.414,2.184c0,0.849-0.152,1.613-0.457,2.293s-0.748,1.2-1.328,1.562
				c-0.581,0.362-1.191,0.543-1.832,0.543c-0.469,0-0.89-0.099-1.262-0.297c-0.373-0.198-0.679-0.448-0.918-0.75v4.039H468.291z
				 M469.564,36.097c0,1.067,0.216,1.856,0.648,2.367c0.432,0.511,0.956,0.766,1.57,0.766c0.625,0,1.16-0.265,1.605-0.793
				s0.668-1.348,0.668-2.457c0-1.058-0.218-1.849-0.652-2.375c-0.435-0.526-0.955-0.789-1.559-0.789c-0.599,0-1.129,0.28-1.59,0.84
				S469.564,35.029,469.564,36.097z"/>
			<path fill="#3C3C3B" d="M482.604,39.175c-0.521,0.442-1.022,0.755-1.504,0.938c-0.482,0.183-0.999,0.273-1.551,0.273
				c-0.912,0-1.612-0.223-2.102-0.668c-0.49-0.445-0.734-1.015-0.734-1.707c0-0.406,0.092-0.777,0.277-1.113
				c0.185-0.336,0.427-0.605,0.727-0.809c0.299-0.203,0.637-0.356,1.012-0.461c0.276-0.073,0.692-0.144,1.25-0.211
				c1.135-0.136,1.971-0.297,2.508-0.484c0.005-0.192,0.008-0.315,0.008-0.367c0-0.573-0.133-0.977-0.398-1.211
				c-0.359-0.317-0.894-0.477-1.602-0.477c-0.662,0-1.15,0.116-1.465,0.348c-0.315,0.231-0.548,0.642-0.699,1.23l-1.375-0.188
				c0.125-0.589,0.331-1.063,0.617-1.426c0.286-0.362,0.7-0.641,1.242-0.836c0.542-0.195,1.169-0.293,1.883-0.293
				c0.708,0,1.284,0.083,1.727,0.25c0.442,0.167,0.768,0.376,0.977,0.629c0.208,0.253,0.354,0.571,0.438,0.957
				c0.047,0.239,0.07,0.672,0.07,1.297v1.875c0,1.308,0.03,2.134,0.09,2.48c0.06,0.347,0.178,0.679,0.355,0.996h-1.469
				C482.739,39.906,482.645,39.565,482.604,39.175z M482.486,36.034c-0.511,0.208-1.276,0.386-2.297,0.531
				c-0.578,0.083-0.987,0.177-1.227,0.281c-0.24,0.104-0.425,0.257-0.555,0.457c-0.13,0.2-0.195,0.423-0.195,0.668
				c0,0.375,0.142,0.688,0.426,0.938c0.284,0.25,0.699,0.375,1.246,0.375c0.542,0,1.023-0.118,1.445-0.355s0.731-0.562,0.93-0.973
				c0.151-0.317,0.227-0.786,0.227-1.406V36.034z M479.752,30.87l1.039-2.188h1.844l-1.719,2.188H479.752z"/>
			<path fill="#3C3C3B" d="M486.088,40.198v-8.297h1.266v1.18c0.609-0.911,1.489-1.367,2.641-1.367c0.5,0,0.959,0.09,1.379,0.27
				c0.419,0.18,0.733,0.415,0.941,0.707c0.208,0.292,0.354,0.638,0.438,1.039c0.052,0.261,0.078,0.716,0.078,1.367v5.102h-1.406
				v-5.047c0-0.573-0.055-1.001-0.164-1.285s-0.304-0.511-0.582-0.68c-0.279-0.169-0.605-0.254-0.98-0.254
				c-0.599,0-1.116,0.19-1.551,0.57c-0.435,0.38-0.652,1.102-0.652,2.164v4.531H486.088z"/>
			<path fill="#3C3C3B" d="M268.768,55.719l1.43-0.125c0.067,0.573,0.225,1.043,0.473,1.41c0.247,0.367,0.631,0.664,1.152,0.891
				c0.521,0.227,1.106,0.34,1.758,0.34c0.578,0,1.088-0.086,1.531-0.258c0.442-0.172,0.772-0.407,0.988-0.707
				c0.216-0.3,0.324-0.626,0.324-0.98c0-0.359-0.104-0.673-0.312-0.941c-0.208-0.269-0.552-0.493-1.031-0.676
				c-0.308-0.12-0.987-0.306-2.039-0.559c-1.052-0.253-1.789-0.491-2.211-0.715c-0.547-0.286-0.955-0.642-1.223-1.066
				c-0.269-0.425-0.402-0.899-0.402-1.426c0-0.578,0.164-1.118,0.492-1.621s0.807-0.884,1.438-1.145
				c0.63-0.261,1.331-0.391,2.102-0.391c0.849,0,1.598,0.137,2.246,0.41s1.147,0.676,1.496,1.207
				c0.349,0.531,0.536,1.133,0.562,1.805l-1.453,0.109c-0.078-0.724-0.343-1.271-0.793-1.641c-0.451-0.37-1.116-0.555-1.996-0.555
				c-0.917,0-1.585,0.168-2.004,0.504c-0.419,0.336-0.629,0.741-0.629,1.215c0,0.411,0.148,0.75,0.445,1.016
				c0.292,0.266,1.053,0.538,2.285,0.816c1.231,0.278,2.077,0.522,2.535,0.73c0.667,0.308,1.159,0.696,1.477,1.168
				c0.317,0.472,0.477,1.015,0.477,1.629c0,0.609-0.175,1.184-0.523,1.723c-0.349,0.539-0.851,0.958-1.504,1.258
				c-0.654,0.3-1.39,0.449-2.207,0.449c-1.037,0-1.905-0.151-2.605-0.453c-0.701-0.302-1.25-0.757-1.648-1.363
				S268.788,56.484,268.768,55.719z"/>
			<path fill="#3C3C3B" d="M285.455,56.727l1.453,0.18c-0.229,0.849-0.654,1.508-1.273,1.977c-0.62,0.469-1.412,0.703-2.375,0.703
				c-1.214,0-2.176-0.374-2.887-1.121s-1.066-1.796-1.066-3.145c0-1.396,0.359-2.479,1.078-3.25s1.651-1.156,2.797-1.156
				c1.109,0,2.016,0.378,2.719,1.133s1.055,1.817,1.055,3.188c0,0.083-0.003,0.208-0.008,0.375h-6.188
				c0.052,0.911,0.31,1.609,0.773,2.094c0.463,0.484,1.042,0.727,1.734,0.727c0.516,0,0.956-0.136,1.32-0.406
				C284.952,57.753,285.241,57.32,285.455,56.727z M280.838,54.453h4.633c-0.062-0.698-0.24-1.222-0.531-1.57
				c-0.448-0.542-1.029-0.812-1.742-0.812c-0.646,0-1.189,0.216-1.629,0.648C281.128,53.151,280.885,53.729,280.838,54.453z"/>
			<path fill="#3C3C3B" d="M288.674,59.398v-8.297h1.266v1.18c0.609-0.911,1.489-1.367,2.641-1.367c0.5,0,0.959,0.09,1.379,0.27
				c0.419,0.18,0.733,0.415,0.941,0.707c0.208,0.292,0.354,0.638,0.438,1.039c0.052,0.261,0.078,0.716,0.078,1.367v5.102h-1.406
				v-5.047c0-0.573-0.055-1.001-0.164-1.285s-0.304-0.511-0.582-0.68c-0.279-0.169-0.605-0.254-0.98-0.254
				c-0.599,0-1.116,0.19-1.551,0.57c-0.435,0.38-0.652,1.102-0.652,2.164v4.531H288.674z"/>
			<path fill="#3C3C3B" d="M300.643,58.141l0.203,1.242c-0.396,0.083-0.75,0.125-1.062,0.125c-0.511,0-0.906-0.081-1.188-0.242
				s-0.479-0.374-0.594-0.637c-0.115-0.263-0.172-0.816-0.172-1.66v-4.773h-1.031v-1.094h1.031v-2.055l1.398-0.844v2.898h1.414
				v1.094h-1.414v4.852c0,0.401,0.024,0.659,0.074,0.773c0.049,0.114,0.13,0.206,0.242,0.273c0.112,0.067,0.272,0.102,0.48,0.102
				C300.182,58.195,300.387,58.177,300.643,58.141z"/>
			<path fill="#3C3C3B" d="M307.697,56.727l1.453,0.18c-0.229,0.849-0.654,1.508-1.273,1.977c-0.62,0.469-1.412,0.703-2.375,0.703
				c-1.214,0-2.176-0.374-2.887-1.121s-1.066-1.796-1.066-3.145c0-1.396,0.359-2.479,1.078-3.25s1.651-1.156,2.797-1.156
				c1.109,0,2.016,0.378,2.719,1.133s1.055,1.817,1.055,3.188c0,0.083-0.003,0.208-0.008,0.375h-6.188
				c0.052,0.911,0.31,1.609,0.773,2.094c0.463,0.484,1.042,0.727,1.734,0.727c0.516,0,0.956-0.136,1.32-0.406
				C307.194,57.753,307.483,57.32,307.697,56.727z M303.08,54.453h4.633c-0.062-0.698-0.24-1.222-0.531-1.57
				c-0.448-0.542-1.029-0.812-1.742-0.812c-0.646,0-1.189,0.216-1.629,0.648C303.37,53.151,303.127,53.729,303.08,54.453z"/>
			<path fill="#3C3C3B" d="M310.916,59.398v-8.297h1.266v1.18c0.609-0.911,1.489-1.367,2.641-1.367c0.5,0,0.959,0.09,1.379,0.27
				c0.419,0.18,0.733,0.415,0.941,0.707c0.208,0.292,0.354,0.638,0.438,1.039c0.052,0.261,0.078,0.716,0.078,1.367v5.102h-1.406
				v-5.047c0-0.573-0.055-1.001-0.164-1.285s-0.304-0.511-0.582-0.68c-0.279-0.169-0.605-0.254-0.98-0.254
				c-0.599,0-1.116,0.19-1.551,0.57c-0.435,0.38-0.652,1.102-0.652,2.164v4.531H310.916z"/>
			<path fill="#3C3C3B" d="M325.229,56.359l1.383,0.18c-0.151,0.953-0.538,1.699-1.16,2.238c-0.623,0.539-1.387,0.809-2.293,0.809
				c-1.136,0-2.048-0.371-2.738-1.113c-0.69-0.742-1.035-1.806-1.035-3.191c0-0.896,0.148-1.68,0.445-2.352s0.749-1.176,1.355-1.512
				c0.606-0.336,1.267-0.504,1.98-0.504c0.901,0,1.638,0.228,2.211,0.684c0.573,0.456,0.94,1.103,1.102,1.941l-1.367,0.211
				c-0.13-0.558-0.361-0.977-0.691-1.258c-0.331-0.281-0.73-0.422-1.199-0.422c-0.708,0-1.284,0.254-1.727,0.762
				c-0.443,0.508-0.664,1.312-0.664,2.41c0,1.114,0.213,1.925,0.641,2.43c0.427,0.505,0.984,0.758,1.672,0.758
				c0.552,0,1.013-0.169,1.383-0.508C324.895,57.583,325.129,57.062,325.229,56.359z"/>
			<path fill="#3C3C3B" d="M327.822,49.562v-1.617h1.406v1.617H327.822z M327.822,59.398v-8.297h1.406v8.297H327.822z"/>
			<path fill="#3C3C3B" d="M336.783,58.375c-0.521,0.442-1.022,0.755-1.504,0.938c-0.482,0.183-0.999,0.273-1.551,0.273
				c-0.912,0-1.612-0.223-2.102-0.668c-0.49-0.445-0.734-1.015-0.734-1.707c0-0.406,0.092-0.777,0.277-1.113
				c0.185-0.336,0.427-0.605,0.727-0.809c0.299-0.203,0.637-0.356,1.012-0.461c0.276-0.073,0.692-0.144,1.25-0.211
				c1.135-0.136,1.971-0.297,2.508-0.484c0.005-0.192,0.008-0.315,0.008-0.367c0-0.573-0.133-0.977-0.398-1.211
				c-0.359-0.317-0.894-0.477-1.602-0.477c-0.662,0-1.15,0.116-1.465,0.348c-0.315,0.231-0.548,0.642-0.699,1.23l-1.375-0.188
				c0.125-0.589,0.331-1.063,0.617-1.426c0.286-0.362,0.7-0.641,1.242-0.836c0.542-0.195,1.169-0.293,1.883-0.293
				c0.708,0,1.284,0.083,1.727,0.25c0.442,0.167,0.768,0.376,0.977,0.629c0.208,0.253,0.354,0.571,0.438,0.957
				c0.047,0.239,0.07,0.672,0.07,1.297v1.875c0,1.308,0.03,2.134,0.09,2.48c0.06,0.347,0.178,0.679,0.355,0.996h-1.469
				C336.918,59.106,336.825,58.766,336.783,58.375z M336.666,55.234c-0.511,0.208-1.276,0.386-2.297,0.531
				c-0.578,0.083-0.987,0.177-1.227,0.281c-0.24,0.104-0.425,0.257-0.555,0.457c-0.13,0.2-0.195,0.423-0.195,0.668
				c0,0.375,0.142,0.688,0.426,0.938c0.284,0.25,0.699,0.375,1.246,0.375c0.542,0,1.023-0.118,1.445-0.355s0.731-0.562,0.93-0.973
				c0.151-0.317,0.227-0.786,0.227-1.406V55.234z"/>
			<path fill="#3C3C3B" d="M339.705,56.922l1.391-0.219c0.078,0.558,0.295,0.984,0.652,1.281c0.356,0.297,0.855,0.445,1.496,0.445
				c0.646,0,1.125-0.132,1.438-0.395s0.469-0.571,0.469-0.926c0-0.317-0.138-0.567-0.414-0.75c-0.193-0.125-0.672-0.284-1.438-0.477
				c-1.031-0.261-1.746-0.485-2.145-0.676s-0.701-0.453-0.906-0.789c-0.206-0.336-0.309-0.707-0.309-1.113
				c0-0.37,0.084-0.712,0.254-1.027c0.169-0.315,0.399-0.577,0.691-0.785c0.219-0.161,0.517-0.298,0.895-0.41
				c0.377-0.112,0.782-0.168,1.215-0.168c0.651,0,1.223,0.094,1.715,0.281s0.855,0.441,1.09,0.762s0.396,0.749,0.484,1.285
				l-1.375,0.188c-0.062-0.427-0.244-0.761-0.543-1c-0.3-0.239-0.723-0.359-1.27-0.359c-0.646,0-1.107,0.106-1.383,0.32
				c-0.276,0.214-0.414,0.464-0.414,0.75c0,0.183,0.057,0.347,0.172,0.492c0.114,0.151,0.294,0.276,0.539,0.375
				c0.141,0.052,0.555,0.172,1.242,0.359c0.995,0.266,1.688,0.483,2.082,0.652c0.393,0.169,0.702,0.415,0.926,0.738
				c0.224,0.323,0.336,0.724,0.336,1.203c0,0.469-0.137,0.91-0.41,1.324s-0.668,0.734-1.184,0.961s-1.099,0.34-1.75,0.34
				c-1.078,0-1.9-0.224-2.465-0.672C340.222,58.466,339.861,57.802,339.705,56.922z"/>
			<path fill="#3C3C3B" d="M358.096,59.398v-1.047c-0.526,0.823-1.3,1.234-2.32,1.234c-0.662,0-1.27-0.183-1.824-0.547
				s-0.984-0.874-1.289-1.527s-0.457-1.405-0.457-2.254c0-0.828,0.138-1.579,0.414-2.254c0.276-0.675,0.69-1.191,1.242-1.551
				c0.552-0.359,1.169-0.539,1.852-0.539c0.5,0,0.945,0.105,1.336,0.316s0.708,0.485,0.953,0.824v-4.109h1.398v11.453H358.096z
				 M353.65,55.258c0,1.062,0.224,1.856,0.672,2.383c0.448,0.526,0.977,0.789,1.586,0.789c0.614,0,1.137-0.251,1.566-0.754
				s0.645-1.27,0.645-2.301c0-1.136-0.219-1.969-0.656-2.5s-0.977-0.797-1.617-0.797c-0.625,0-1.147,0.255-1.566,0.766
				C353.86,53.354,353.65,54.159,353.65,55.258z"/>
			<path fill="#3C3C3B" d="M367.291,56.727l1.453,0.18c-0.229,0.849-0.654,1.508-1.273,1.977c-0.62,0.469-1.412,0.703-2.375,0.703
				c-1.214,0-2.176-0.374-2.887-1.121s-1.066-1.796-1.066-3.145c0-1.396,0.359-2.479,1.078-3.25s1.651-1.156,2.797-1.156
				c1.109,0,2.016,0.378,2.719,1.133s1.055,1.817,1.055,3.188c0,0.083-0.003,0.208-0.008,0.375h-6.188
				c0.052,0.911,0.31,1.609,0.773,2.094c0.463,0.484,1.042,0.727,1.734,0.727c0.516,0,0.956-0.136,1.32-0.406
				C366.788,57.753,367.077,57.32,367.291,56.727z M362.674,54.453h4.633c-0.062-0.698-0.24-1.222-0.531-1.57
				c-0.448-0.542-1.029-0.812-1.742-0.812c-0.646,0-1.189,0.216-1.629,0.648C362.964,53.151,362.721,53.729,362.674,54.453z"/>
			<path fill="#3C3C3B" d="M374.361,56.148l1.367-0.188c0.036,0.875,0.2,1.474,0.492,1.797c0.292,0.323,0.695,0.484,1.211,0.484
				c0.38,0,0.708-0.087,0.984-0.262c0.276-0.175,0.466-0.411,0.57-0.711c0.104-0.3,0.156-0.777,0.156-1.434v-7.891h1.516v7.805
				c0,0.958-0.116,1.7-0.348,2.227c-0.232,0.526-0.599,0.927-1.102,1.203c-0.503,0.276-1.093,0.414-1.77,0.414
				c-1.005,0-1.775-0.289-2.309-0.867C374.597,58.148,374.34,57.289,374.361,56.148z"/>
			<path fill="#3C3C3B" d="M388.393,59.398V58.18c-0.646,0.938-1.523,1.406-2.633,1.406c-0.49,0-0.947-0.094-1.371-0.281
				c-0.425-0.188-0.74-0.423-0.945-0.707c-0.206-0.284-0.351-0.632-0.434-1.043c-0.058-0.276-0.086-0.714-0.086-1.312v-5.141h1.406
				v4.602c0,0.734,0.028,1.229,0.086,1.484c0.088,0.37,0.276,0.66,0.562,0.871c0.286,0.211,0.641,0.316,1.062,0.316
				s0.817-0.108,1.188-0.324c0.37-0.216,0.631-0.511,0.785-0.883c0.153-0.372,0.23-0.913,0.23-1.621v-4.445h1.406v8.297H388.393z"/>
			<path fill="#3C3C3B" d="M391.291,56.922l1.391-0.219c0.078,0.558,0.295,0.984,0.652,1.281c0.356,0.297,0.855,0.445,1.496,0.445
				c0.646,0,1.125-0.132,1.438-0.395s0.469-0.571,0.469-0.926c0-0.317-0.138-0.567-0.414-0.75c-0.193-0.125-0.672-0.284-1.438-0.477
				c-1.031-0.261-1.746-0.485-2.145-0.676s-0.701-0.453-0.906-0.789c-0.206-0.336-0.309-0.707-0.309-1.113
				c0-0.37,0.084-0.712,0.254-1.027c0.169-0.315,0.399-0.577,0.691-0.785c0.219-0.161,0.517-0.298,0.895-0.41
				c0.377-0.112,0.782-0.168,1.215-0.168c0.651,0,1.223,0.094,1.715,0.281s0.855,0.441,1.09,0.762s0.396,0.749,0.484,1.285
				l-1.375,0.188c-0.062-0.427-0.244-0.761-0.543-1c-0.3-0.239-0.723-0.359-1.27-0.359c-0.646,0-1.107,0.106-1.383,0.32
				c-0.276,0.214-0.414,0.464-0.414,0.75c0,0.183,0.057,0.347,0.172,0.492c0.114,0.151,0.294,0.276,0.539,0.375
				c0.141,0.052,0.555,0.172,1.242,0.359c0.995,0.266,1.688,0.483,2.082,0.652c0.393,0.169,0.702,0.415,0.926,0.738
				c0.224,0.323,0.336,0.724,0.336,1.203c0,0.469-0.137,0.91-0.41,1.324s-0.668,0.734-1.184,0.961s-1.099,0.34-1.75,0.34
				c-1.078,0-1.9-0.224-2.465-0.672C391.808,58.466,391.447,57.802,391.291,56.922z"/>
			<path fill="#3C3C3B" d="M402.924,58.141l0.203,1.242c-0.396,0.083-0.75,0.125-1.062,0.125c-0.511,0-0.906-0.081-1.188-0.242
				s-0.479-0.374-0.594-0.637c-0.115-0.263-0.172-0.816-0.172-1.66v-4.773h-1.031v-1.094h1.031v-2.055l1.398-0.844v2.898h1.414
				v1.094h-1.414v4.852c0,0.401,0.024,0.659,0.074,0.773c0.049,0.114,0.13,0.206,0.242,0.273c0.112,0.067,0.272,0.102,0.48,0.102
				C402.463,58.195,402.668,58.177,402.924,58.141z"/>
			<path fill="#3C3C3B" d="M404.307,49.562v-1.617h1.406v1.617H404.307z M404.307,59.398v-8.297h1.406v8.297H404.307z"/>
			<path fill="#3C3C3B" d="M413.268,56.359l1.383,0.18c-0.151,0.953-0.538,1.699-1.16,2.238c-0.623,0.539-1.387,0.809-2.293,0.809
				c-1.136,0-2.048-0.371-2.738-1.113c-0.69-0.742-1.035-1.806-1.035-3.191c0-0.896,0.148-1.68,0.445-2.352s0.749-1.176,1.355-1.512
				c0.606-0.336,1.267-0.504,1.98-0.504c0.901,0,1.638,0.228,2.211,0.684c0.573,0.456,0.94,1.103,1.102,1.941l-1.367,0.211
				c-0.13-0.558-0.361-0.977-0.691-1.258c-0.331-0.281-0.73-0.422-1.199-0.422c-0.708,0-1.284,0.254-1.727,0.762
				c-0.443,0.508-0.664,1.312-0.664,2.41c0,1.114,0.213,1.925,0.641,2.43c0.427,0.505,0.984,0.758,1.672,0.758
				c0.552,0,1.013-0.169,1.383-0.508C412.934,57.583,413.168,57.062,413.268,56.359z"/>
			<path fill="#3C3C3B" d="M415.861,49.562v-1.617h1.406v1.617H415.861z M415.861,59.398v-8.297h1.406v8.297H415.861z"/>
			<path fill="#3C3C3B" d="M424.822,58.375c-0.521,0.442-1.022,0.755-1.504,0.938c-0.482,0.183-0.999,0.273-1.551,0.273
				c-0.912,0-1.612-0.223-2.102-0.668c-0.49-0.445-0.734-1.015-0.734-1.707c0-0.406,0.092-0.777,0.277-1.113
				c0.185-0.336,0.427-0.605,0.727-0.809c0.299-0.203,0.637-0.356,1.012-0.461c0.276-0.073,0.692-0.144,1.25-0.211
				c1.135-0.136,1.971-0.297,2.508-0.484c0.005-0.192,0.008-0.315,0.008-0.367c0-0.573-0.133-0.977-0.398-1.211
				c-0.359-0.317-0.894-0.477-1.602-0.477c-0.662,0-1.15,0.116-1.465,0.348c-0.315,0.231-0.548,0.642-0.699,1.23l-1.375-0.188
				c0.125-0.589,0.331-1.063,0.617-1.426c0.286-0.362,0.7-0.641,1.242-0.836c0.542-0.195,1.169-0.293,1.883-0.293
				c0.708,0,1.284,0.083,1.727,0.25c0.442,0.167,0.768,0.376,0.977,0.629c0.208,0.253,0.354,0.571,0.438,0.957
				c0.047,0.239,0.07,0.672,0.07,1.297v1.875c0,1.308,0.03,2.134,0.09,2.48c0.06,0.347,0.178,0.679,0.355,0.996h-1.469
				C424.958,59.106,424.864,58.766,424.822,58.375z M424.705,55.234c-0.511,0.208-1.276,0.386-2.297,0.531
				c-0.578,0.083-0.987,0.177-1.227,0.281c-0.24,0.104-0.425,0.257-0.555,0.457c-0.13,0.2-0.195,0.423-0.195,0.668
				c0,0.375,0.142,0.688,0.426,0.938c0.284,0.25,0.699,0.375,1.246,0.375c0.542,0,1.023-0.118,1.445-0.355s0.731-0.562,0.93-0.973
				c0.151-0.317,0.227-0.786,0.227-1.406V55.234z"/>
			<path fill="#3C3C3B" d="M432.689,62.594l-0.156-1.32c0.307,0.083,0.575,0.125,0.805,0.125c0.312,0,0.562-0.052,0.75-0.156
				s0.341-0.25,0.461-0.438c0.088-0.141,0.231-0.489,0.43-1.047c0.026-0.078,0.067-0.192,0.125-0.344l-3.148-8.312h1.516
				l1.727,4.805c0.224,0.609,0.424,1.25,0.602,1.922c0.161-0.646,0.354-1.276,0.578-1.891l1.773-4.836h1.406l-3.156,8.438
				c-0.339,0.911-0.602,1.539-0.789,1.883c-0.25,0.464-0.537,0.804-0.859,1.02c-0.323,0.216-0.708,0.324-1.156,0.324
				C433.325,62.766,433.022,62.708,432.689,62.594z"/>
			<path fill="#3C3C3B" d="M445.377,59.398V47.945h4.32c0.76,0,1.341,0.036,1.742,0.109c0.562,0.094,1.034,0.272,1.414,0.535
				c0.38,0.263,0.686,0.632,0.918,1.105c0.231,0.474,0.348,0.995,0.348,1.562c0,0.974-0.31,1.798-0.93,2.473
				c-0.62,0.675-1.74,1.012-3.359,1.012h-2.938v4.656H445.377z M446.893,53.391h2.961c0.979,0,1.674-0.183,2.086-0.547
				c0.411-0.364,0.617-0.878,0.617-1.539c0-0.479-0.121-0.89-0.363-1.23s-0.562-0.566-0.957-0.676
				c-0.255-0.067-0.727-0.102-1.414-0.102h-2.93V53.391z"/>
			<path fill="#3C3C3B" d="M461.283,58.375c-0.521,0.442-1.022,0.755-1.504,0.938c-0.482,0.183-0.999,0.273-1.551,0.273
				c-0.912,0-1.612-0.223-2.102-0.668c-0.49-0.445-0.734-1.015-0.734-1.707c0-0.406,0.092-0.777,0.277-1.113
				c0.185-0.336,0.427-0.605,0.727-0.809c0.299-0.203,0.637-0.356,1.012-0.461c0.276-0.073,0.692-0.144,1.25-0.211
				c1.135-0.136,1.971-0.297,2.508-0.484c0.005-0.192,0.008-0.315,0.008-0.367c0-0.573-0.133-0.977-0.398-1.211
				c-0.359-0.317-0.894-0.477-1.602-0.477c-0.662,0-1.15,0.116-1.465,0.348c-0.315,0.231-0.548,0.642-0.699,1.23l-1.375-0.188
				c0.125-0.589,0.331-1.063,0.617-1.426c0.286-0.362,0.7-0.641,1.242-0.836c0.542-0.195,1.169-0.293,1.883-0.293
				c0.708,0,1.284,0.083,1.727,0.25c0.442,0.167,0.768,0.376,0.977,0.629c0.208,0.253,0.354,0.571,0.438,0.957
				c0.047,0.239,0.07,0.672,0.07,1.297v1.875c0,1.308,0.03,2.134,0.09,2.48c0.06,0.347,0.178,0.679,0.355,0.996h-1.469
				C461.418,59.106,461.325,58.766,461.283,58.375z M461.166,55.234c-0.511,0.208-1.276,0.386-2.297,0.531
				c-0.578,0.083-0.987,0.177-1.227,0.281c-0.24,0.104-0.425,0.257-0.555,0.457c-0.13,0.2-0.195,0.423-0.195,0.668
				c0,0.375,0.142,0.688,0.426,0.938c0.284,0.25,0.699,0.375,1.246,0.375c0.542,0,1.023-0.118,1.445-0.355s0.731-0.562,0.93-0.973
				c0.151-0.317,0.227-0.786,0.227-1.406V55.234z"/>
			<path fill="#3C3C3B" d="M464.025,59.398v-1.141l5.281-6.062c-0.599,0.031-1.128,0.047-1.586,0.047h-3.383v-1.141h6.781v0.93
				l-4.492,5.266l-0.867,0.961c0.63-0.047,1.221-0.07,1.773-0.07h3.836v1.211H464.025z"/>
			<path fill="#3C3C3B" d="M473.158,52.703v-1.602h1.602v1.602H473.158z M473.158,59.398v-1.602h1.602v1.602H473.158z"/>
			<path fill="#3C3C3B" d="M481.775,59.398V47.945h4.297c0.875,0,1.577,0.116,2.105,0.348c0.528,0.231,0.942,0.589,1.242,1.07
				c0.299,0.481,0.449,0.985,0.449,1.512c0,0.489-0.133,0.95-0.398,1.383s-0.667,0.781-1.203,1.047
				c0.692,0.203,1.225,0.55,1.598,1.039c0.372,0.489,0.559,1.067,0.559,1.734c0,0.536-0.113,1.035-0.34,1.496
				s-0.507,0.816-0.84,1.066c-0.333,0.25-0.751,0.438-1.254,0.566c-0.503,0.128-1.119,0.191-1.848,0.191H481.775z M483.291,52.758
				h2.477c0.672,0,1.153-0.044,1.445-0.133c0.385-0.114,0.676-0.305,0.871-0.57s0.293-0.599,0.293-1c0-0.38-0.091-0.715-0.273-1.004
				c-0.183-0.289-0.443-0.487-0.781-0.594c-0.339-0.106-0.919-0.16-1.742-0.16h-2.289V52.758z M483.291,58.047h2.852
				c0.489,0,0.833-0.019,1.031-0.055c0.349-0.062,0.641-0.167,0.875-0.312s0.427-0.358,0.578-0.637
				c0.151-0.278,0.227-0.601,0.227-0.965c0-0.427-0.109-0.798-0.328-1.113s-0.522-0.536-0.91-0.664
				c-0.388-0.128-0.947-0.191-1.676-0.191h-2.648V58.047z"/>
			<path fill="#3C3C3B" d="M497.744,58.375c-0.521,0.442-1.022,0.755-1.504,0.938c-0.482,0.183-0.999,0.273-1.551,0.273
				c-0.912,0-1.612-0.223-2.102-0.668c-0.49-0.445-0.734-1.015-0.734-1.707c0-0.406,0.092-0.777,0.277-1.113
				c0.185-0.336,0.427-0.605,0.727-0.809c0.299-0.203,0.637-0.356,1.012-0.461c0.276-0.073,0.692-0.144,1.25-0.211
				c1.135-0.136,1.971-0.297,2.508-0.484c0.005-0.192,0.008-0.315,0.008-0.367c0-0.573-0.133-0.977-0.398-1.211
				c-0.359-0.317-0.894-0.477-1.602-0.477c-0.662,0-1.15,0.116-1.465,0.348c-0.315,0.231-0.548,0.642-0.699,1.23l-1.375-0.188
				c0.125-0.589,0.331-1.063,0.617-1.426c0.286-0.362,0.7-0.641,1.242-0.836c0.542-0.195,1.169-0.293,1.883-0.293
				c0.708,0,1.284,0.083,1.727,0.25c0.442,0.167,0.768,0.376,0.977,0.629c0.208,0.253,0.354,0.571,0.438,0.957
				c0.047,0.239,0.07,0.672,0.07,1.297v1.875c0,1.308,0.03,2.134,0.09,2.48c0.06,0.347,0.178,0.679,0.355,0.996h-1.469
				C497.879,59.106,497.786,58.766,497.744,58.375z M497.627,55.234c-0.511,0.208-1.276,0.386-2.297,0.531
				c-0.578,0.083-0.987,0.177-1.227,0.281c-0.24,0.104-0.425,0.257-0.555,0.457c-0.13,0.2-0.195,0.423-0.195,0.668
				c0,0.375,0.142,0.688,0.426,0.938c0.284,0.25,0.699,0.375,1.246,0.375c0.542,0,1.023-0.118,1.445-0.355s0.731-0.562,0.93-0.973
				c0.151-0.317,0.227-0.786,0.227-1.406V55.234z"/>
			<path fill="#3C3C3B" d="M501.213,59.398v-8.297h1.266v1.258c0.323-0.589,0.621-0.977,0.895-1.164s0.574-0.281,0.902-0.281
				c0.474,0,0.956,0.151,1.445,0.453l-0.484,1.305c-0.344-0.203-0.688-0.305-1.031-0.305c-0.308,0-0.583,0.093-0.828,0.277
				c-0.245,0.185-0.419,0.441-0.523,0.77c-0.156,0.5-0.234,1.047-0.234,1.641v4.344H501.213z"/>
			<path fill="#3C3C3B" d="M506.557,59.398v-8.297h1.266v1.18c0.609-0.911,1.489-1.367,2.641-1.367c0.5,0,0.959,0.09,1.379,0.27
				c0.419,0.18,0.733,0.415,0.941,0.707c0.208,0.292,0.354,0.638,0.438,1.039c0.052,0.261,0.078,0.716,0.078,1.367v5.102h-1.406
				v-5.047c0-0.573-0.055-1.001-0.164-1.285s-0.304-0.511-0.582-0.68c-0.279-0.169-0.605-0.254-0.98-0.254
				c-0.599,0-1.116,0.19-1.551,0.57c-0.435,0.38-0.652,1.102-0.652,2.164v4.531H506.557z"/>
			<path fill="#3C3C3B" d="M521.135,56.727l1.453,0.18c-0.229,0.849-0.654,1.508-1.273,1.977c-0.62,0.469-1.412,0.703-2.375,0.703
				c-1.214,0-2.176-0.374-2.887-1.121s-1.066-1.796-1.066-3.145c0-1.396,0.359-2.479,1.078-3.25s1.651-1.156,2.797-1.156
				c1.109,0,2.016,0.378,2.719,1.133s1.055,1.817,1.055,3.188c0,0.083-0.003,0.208-0.008,0.375h-6.188
				c0.052,0.911,0.31,1.609,0.773,2.094c0.463,0.484,1.042,0.727,1.734,0.727c0.516,0,0.956-0.136,1.32-0.406
				C520.632,57.753,520.921,57.32,521.135,56.727z M516.518,54.453h4.633c-0.062-0.698-0.24-1.222-0.531-1.57
				c-0.448-0.542-1.029-0.812-1.742-0.812c-0.646,0-1.189,0.216-1.629,0.648C516.808,53.151,516.564,53.729,516.518,54.453z"/>
			<path fill="#3C3C3B" d="M524.291,62.594l-0.156-1.32c0.307,0.083,0.575,0.125,0.805,0.125c0.312,0,0.562-0.052,0.75-0.156
				s0.341-0.25,0.461-0.438c0.088-0.141,0.231-0.489,0.43-1.047c0.026-0.078,0.067-0.192,0.125-0.344l-3.148-8.312h1.516
				l1.727,4.805c0.224,0.609,0.424,1.25,0.602,1.922c0.161-0.646,0.354-1.276,0.578-1.891l1.773-4.836h1.406l-3.156,8.438
				c-0.339,0.911-0.602,1.539-0.789,1.883c-0.25,0.464-0.537,0.804-0.859,1.02c-0.323,0.216-0.708,0.324-1.156,0.324
				C524.926,62.766,524.624,62.708,524.291,62.594z"/>
			<path fill="#3C3C3B" d="M272.557,78.598l-4.438-11.453h1.641l2.977,8.32c0.239,0.667,0.44,1.292,0.602,1.875
				c0.177-0.625,0.383-1.25,0.617-1.875l3.094-8.32h1.547l-4.484,11.453H272.557z"/>
			<path fill="#3C3C3B" d="M284.572,75.926l1.453,0.18c-0.229,0.849-0.654,1.508-1.273,1.977c-0.62,0.469-1.412,0.703-2.375,0.703
				c-1.214,0-2.176-0.374-2.887-1.121s-1.066-1.796-1.066-3.145c0-1.396,0.359-2.479,1.078-3.25s1.651-1.156,2.797-1.156
				c1.109,0,2.016,0.378,2.719,1.133s1.055,1.817,1.055,3.188c0,0.083-0.003,0.208-0.008,0.375h-6.188
				c0.052,0.911,0.31,1.609,0.773,2.094c0.463,0.484,1.042,0.727,1.734,0.727c0.516,0,0.956-0.136,1.32-0.406
				C284.069,76.952,284.358,76.52,284.572,75.926z M279.955,73.652h4.633c-0.062-0.698-0.24-1.222-0.531-1.57
				c-0.448-0.542-1.029-0.812-1.742-0.812c-0.646,0-1.189,0.216-1.629,0.648C280.245,72.351,280.002,72.929,279.955,73.652z"/>
			<path fill="#3C3C3B" d="M287.76,78.598V67.145h1.406v11.453H287.76z"/>
			<path fill="#3C3C3B" d="M290.822,74.449c0-1.536,0.427-2.675,1.281-3.414c0.713-0.614,1.583-0.922,2.609-0.922
				c1.141,0,2.073,0.374,2.797,1.121c0.724,0.747,1.086,1.78,1.086,3.098c0,1.067-0.16,1.907-0.48,2.52s-0.787,1.087-1.398,1.426
				c-0.612,0.339-1.28,0.508-2.004,0.508c-1.162,0-2.101-0.372-2.816-1.117C291.18,76.923,290.822,75.851,290.822,74.449z
				 M292.268,74.449c0,1.062,0.231,1.858,0.695,2.387c0.463,0.528,1.047,0.793,1.75,0.793c0.698,0,1.278-0.266,1.742-0.797
				c0.463-0.531,0.695-1.341,0.695-2.43c0-1.026-0.233-1.804-0.699-2.332c-0.466-0.528-1.046-0.793-1.738-0.793
				c-0.703,0-1.287,0.263-1.75,0.789C292.499,72.593,292.268,73.387,292.268,74.449z"/>
			<path fill="#3C3C3B" d="M299.502,78.598v-1.141l5.281-6.062c-0.599,0.031-1.128,0.047-1.586,0.047h-3.383v-1.141h6.781v0.93
				l-4.492,5.266l-0.867,0.961c0.63-0.047,1.221-0.07,1.773-0.07h3.836v1.211H299.502z"/>
			<path fill="#3C3C3B" d="M313.658,77.574c-0.521,0.442-1.022,0.755-1.504,0.938c-0.482,0.183-0.999,0.273-1.551,0.273
				c-0.912,0-1.612-0.223-2.102-0.668c-0.49-0.445-0.734-1.015-0.734-1.707c0-0.406,0.092-0.777,0.277-1.113
				c0.185-0.336,0.427-0.605,0.727-0.809c0.299-0.203,0.637-0.356,1.012-0.461c0.276-0.073,0.692-0.144,1.25-0.211
				c1.135-0.136,1.971-0.297,2.508-0.484c0.005-0.192,0.008-0.315,0.008-0.367c0-0.573-0.133-0.977-0.398-1.211
				c-0.359-0.317-0.894-0.477-1.602-0.477c-0.662,0-1.15,0.116-1.465,0.348c-0.315,0.231-0.548,0.642-0.699,1.23l-1.375-0.188
				c0.125-0.589,0.331-1.063,0.617-1.426c0.286-0.362,0.7-0.641,1.242-0.836c0.542-0.195,1.169-0.293,1.883-0.293
				c0.708,0,1.284,0.083,1.727,0.25c0.442,0.167,0.768,0.376,0.977,0.629c0.208,0.253,0.354,0.571,0.438,0.957
				c0.047,0.239,0.07,0.672,0.07,1.297v1.875c0,1.308,0.03,2.134,0.09,2.48c0.06,0.347,0.178,0.679,0.355,0.996h-1.469
				C313.793,78.306,313.7,77.965,313.658,77.574z M313.541,74.434c-0.511,0.208-1.276,0.386-2.297,0.531
				c-0.578,0.083-0.987,0.177-1.227,0.281c-0.24,0.104-0.425,0.257-0.555,0.457c-0.13,0.2-0.195,0.423-0.195,0.668
				c0,0.375,0.142,0.688,0.426,0.938c0.284,0.25,0.699,0.375,1.246,0.375c0.542,0,1.023-0.118,1.445-0.355s0.731-0.562,0.93-0.973
				c0.151-0.317,0.227-0.786,0.227-1.406V74.434z"/>
			<path fill="#3C3C3B" d="M320.502,75.02v-1.133h8.898v1.133H320.502z"/>
			<path fill="#3C3C3B" d="M332.971,78.598l4.398-11.453h1.633l4.688,11.453h-1.727l-1.336-3.469h-4.789l-1.258,3.469H332.971z
				 M336.275,73.895h3.883l-1.195-3.172c-0.365-0.964-0.636-1.755-0.812-2.375c-0.146,0.734-0.352,1.464-0.617,2.188L336.275,73.895
				z"/>
			<path fill="#3C3C3B" d="M353.072,74.582l1.516,0.383c-0.318,1.245-0.89,2.194-1.715,2.848c-0.826,0.653-1.835,0.98-3.027,0.98
				c-1.234,0-2.238-0.251-3.012-0.754s-1.362-1.23-1.766-2.184c-0.404-0.953-0.605-1.977-0.605-3.07
				c0-1.192,0.228-2.233,0.684-3.121c0.456-0.888,1.104-1.562,1.945-2.023c0.841-0.461,1.767-0.691,2.777-0.691
				c1.146,0,2.109,0.292,2.891,0.875s1.325,1.403,1.633,2.461l-1.492,0.352c-0.266-0.833-0.651-1.44-1.156-1.82
				c-0.505-0.38-1.141-0.57-1.906-0.57c-0.88,0-1.616,0.211-2.207,0.633c-0.591,0.422-1.007,0.988-1.246,1.699
				c-0.24,0.711-0.359,1.444-0.359,2.199c0,0.974,0.142,1.824,0.426,2.551c0.284,0.727,0.725,1.27,1.324,1.629
				c0.599,0.359,1.247,0.539,1.945,0.539c0.849,0,1.567-0.245,2.156-0.734C352.465,76.272,352.864,75.546,353.072,74.582z"/>
			<path fill="#3C3C3B" d="M356.408,78.598V67.145h2.281l2.711,8.109c0.25,0.755,0.432,1.32,0.547,1.695
				c0.13-0.417,0.333-1.028,0.609-1.836l2.742-7.969h2.039v11.453h-1.461v-9.586l-3.328,9.586h-1.367l-3.312-9.75v9.75H356.408z"/>
			<path fill="#3C3C3B" d="M377.955,74.582l1.516,0.383c-0.318,1.245-0.89,2.194-1.715,2.848c-0.826,0.653-1.835,0.98-3.027,0.98
				c-1.234,0-2.238-0.251-3.012-0.754s-1.362-1.23-1.766-2.184c-0.404-0.953-0.605-1.977-0.605-3.07
				c0-1.192,0.228-2.233,0.684-3.121c0.456-0.888,1.104-1.562,1.945-2.023c0.841-0.461,1.767-0.691,2.777-0.691
				c1.146,0,2.109,0.292,2.891,0.875s1.325,1.403,1.633,2.461l-1.492,0.352c-0.266-0.833-0.651-1.44-1.156-1.82
				c-0.505-0.38-1.141-0.57-1.906-0.57c-0.88,0-1.616,0.211-2.207,0.633c-0.591,0.422-1.007,0.988-1.246,1.699
				c-0.24,0.711-0.359,1.444-0.359,2.199c0,0.974,0.142,1.824,0.426,2.551c0.284,0.727,0.725,1.27,1.324,1.629
				c0.599,0.359,1.247,0.539,1.945,0.539c0.849,0,1.567-0.245,2.156-0.734C377.348,76.272,377.747,75.546,377.955,74.582z"/>
			<path fill="#3C3C3B" d="M384.518,75.02v-1.133h8.898v1.133H384.518z"/>
			<path fill="#3C3C3B" d="M399.205,78.598V67.145h7.727v1.352h-6.211v3.547h5.375v1.352h-5.375v5.203H399.205z"/>
			<path fill="#3C3C3B" d="M408.729,68.762v-1.617h1.406v1.617H408.729z M408.729,78.598v-8.297h1.406v8.297H408.729z"/>
			<path fill="#3C3C3B" d="M417.955,75.926l1.453,0.18c-0.229,0.849-0.654,1.508-1.273,1.977c-0.62,0.469-1.412,0.703-2.375,0.703
				c-1.214,0-2.176-0.374-2.887-1.121s-1.066-1.796-1.066-3.145c0-1.396,0.359-2.479,1.078-3.25s1.651-1.156,2.797-1.156
				c1.109,0,2.016,0.378,2.719,1.133s1.055,1.817,1.055,3.188c0,0.083-0.003,0.208-0.008,0.375h-6.188
				c0.052,0.911,0.31,1.609,0.773,2.094c0.463,0.484,1.042,0.727,1.734,0.727c0.516,0,0.956-0.136,1.32-0.406
				C417.452,76.952,417.741,76.52,417.955,75.926z M413.338,73.652h4.633c-0.062-0.698-0.24-1.222-0.531-1.57
				c-0.448-0.542-1.029-0.812-1.742-0.812c-0.646,0-1.189,0.216-1.629,0.648C413.628,72.351,413.385,72.929,413.338,73.652z"/>
			<path fill="#3C3C3B" d="M421.158,78.598v-8.297h1.266v1.258c0.323-0.589,0.621-0.977,0.895-1.164s0.574-0.281,0.902-0.281
				c0.474,0,0.956,0.151,1.445,0.453l-0.484,1.305c-0.344-0.203-0.688-0.305-1.031-0.305c-0.308,0-0.583,0.093-0.828,0.277
				c-0.245,0.185-0.419,0.441-0.523,0.77c-0.156,0.5-0.234,1.047-0.234,1.641v4.344H421.158z"/>
			<path fill="#3C3C3B" d="M426.486,78.598v-8.297h1.266v1.258c0.323-0.589,0.621-0.977,0.895-1.164s0.574-0.281,0.902-0.281
				c0.474,0,0.956,0.151,1.445,0.453l-0.484,1.305c-0.344-0.203-0.688-0.305-1.031-0.305c-0.308,0-0.583,0.093-0.828,0.277
				c-0.245,0.185-0.419,0.441-0.523,0.77c-0.156,0.5-0.234,1.047-0.234,1.641v4.344H426.486z"/>
			<path fill="#3C3C3B" d="M431.307,74.449c0-1.536,0.427-2.675,1.281-3.414c0.713-0.614,1.583-0.922,2.609-0.922
				c1.141,0,2.073,0.374,2.797,1.121c0.724,0.747,1.086,1.78,1.086,3.098c0,1.067-0.16,1.907-0.48,2.52s-0.787,1.087-1.398,1.426
				c-0.612,0.339-1.28,0.508-2.004,0.508c-1.162,0-2.101-0.372-2.816-1.117C431.665,76.923,431.307,75.851,431.307,74.449z
				 M432.752,74.449c0,1.062,0.231,1.858,0.695,2.387c0.463,0.528,1.047,0.793,1.75,0.793c0.698,0,1.278-0.266,1.742-0.797
				c0.463-0.531,0.695-1.341,0.695-2.43c0-1.026-0.233-1.804-0.699-2.332c-0.466-0.528-1.046-0.793-1.738-0.793
				c-0.703,0-1.287,0.263-1.75,0.789C432.983,72.593,432.752,73.387,432.752,74.449z"/>
			<path fill="#3C3C3B" d="M445.432,78.598V67.145h7.727v1.352h-6.211v3.547h5.375v1.352h-5.375v5.203H445.432z"/>
			<path fill="#3C3C3B" d="M454.916,78.598V67.145h1.406v11.453H454.916z"/>
			<path fill="#3C3C3B" d="M457.979,74.449c0-1.536,0.427-2.675,1.281-3.414c0.713-0.614,1.583-0.922,2.609-0.922
				c1.141,0,2.073,0.374,2.797,1.121c0.724,0.747,1.086,1.78,1.086,3.098c0,1.067-0.16,1.907-0.48,2.52s-0.787,1.087-1.398,1.426
				c-0.612,0.339-1.28,0.508-2.004,0.508c-1.162,0-2.101-0.372-2.816-1.117C458.336,76.923,457.979,75.851,457.979,74.449z
				 M459.424,74.449c0,1.062,0.231,1.858,0.695,2.387c0.463,0.528,1.047,0.793,1.75,0.793c0.698,0,1.278-0.266,1.742-0.797
				c0.463-0.531,0.695-1.341,0.695-2.43c0-1.026-0.233-1.804-0.699-2.332c-0.466-0.528-1.046-0.793-1.738-0.793
				c-0.703,0-1.287,0.263-1.75,0.789C459.655,72.593,459.424,73.387,459.424,74.449z M461.088,69.27l1.039-2.188h1.844l-1.719,2.188
				H461.088z"/>
			<path fill="#3C3C3B" d="M467.385,78.598v-8.297h1.266v1.258c0.323-0.589,0.621-0.977,0.895-1.164s0.574-0.281,0.902-0.281
				c0.474,0,0.956,0.151,1.445,0.453l-0.484,1.305c-0.344-0.203-0.688-0.305-1.031-0.305c-0.308,0-0.583,0.093-0.828,0.277
				c-0.245,0.185-0.419,0.441-0.523,0.77c-0.156,0.5-0.234,1.047-0.234,1.641v4.344H467.385z"/>
			<path fill="#3C3C3B" d="M478.408,75.926l1.453,0.18c-0.229,0.849-0.654,1.508-1.273,1.977c-0.62,0.469-1.412,0.703-2.375,0.703
				c-1.214,0-2.176-0.374-2.887-1.121s-1.066-1.796-1.066-3.145c0-1.396,0.359-2.479,1.078-3.25s1.651-1.156,2.797-1.156
				c1.109,0,2.016,0.378,2.719,1.133s1.055,1.817,1.055,3.188c0,0.083-0.003,0.208-0.008,0.375h-6.188
				c0.052,0.911,0.31,1.609,0.773,2.094c0.463,0.484,1.042,0.727,1.734,0.727c0.516,0,0.956-0.136,1.32-0.406
				C477.905,76.952,478.194,76.52,478.408,75.926z M473.791,73.652h4.633c-0.062-0.698-0.24-1.222-0.531-1.57
				c-0.448-0.542-1.029-0.812-1.742-0.812c-0.646,0-1.189,0.216-1.629,0.648C474.081,72.351,473.838,72.929,473.791,73.652z"/>
			<path fill="#3C3C3B" d="M480.885,78.598v-1.141l5.281-6.062c-0.599,0.031-1.128,0.047-1.586,0.047h-3.383v-1.141h6.781v0.93
				l-4.492,5.266l-0.867,0.961c0.63-0.047,1.221-0.07,1.773-0.07h3.836v1.211H480.885z"/>
		</g>
	</g>
	<path fill="#F39200" d="M40.006,22.07c-0.001,0.018-0.008,0.037-0.016,0.053l-0.102,0.203c-0.013,0.027-0.036,0.053-0.063,0.068
		l-0.168,0.102c-0.05,0.031-0.111,0.031-0.162,0.008l-0.338-0.17l-0.625-0.414l-0.252-0.127c-0.017-0.008-0.031-0.018-0.044-0.031
		l-0.101-0.102l0,0c-0.014-0.012-0.022-0.027-0.032-0.043l-0.117-0.236l-0.22-0.164l-0.485-0.193l-2.717-0.695l-1.375,0.16
		l-0.537,0.41c-0.01,0.008-0.021,0.016-0.032,0.021l-0.372,0.168c-0.014,0.006-0.026,0.01-0.04,0.012l-0.371,0.068
		c-0.023,0.002-0.045,0.002-0.067-0.002L31.463,21.1c-0.014-0.004-0.027-0.008-0.039-0.016l-0.269-0.135L30.83,20.82l-0.283-0.141
		c-0.011-0.006-0.023-0.014-0.033-0.021l-0.202-0.17c-0.015-0.012-0.027-0.025-0.037-0.041l-0.102-0.168
		c-0.013-0.021-0.02-0.045-0.023-0.068l-0.031-0.246l-0.462-1.057c-0.004-0.012-0.008-0.021-0.01-0.033l-0.135-0.643
		c-0.002-0.01-0.003-0.023-0.003-0.033v-0.266l-0.084-0.166l-0.292-0.418l-0.258-0.287c-0.007-0.008-0.014-0.018-0.02-0.029
		l-0.245-0.428l-0.134-0.068l-0.177-0.029l-0.31,0.002c-0.039,0-0.079-0.014-0.11-0.039l-0.235-0.203
		c-0.009-0.008-0.017-0.016-0.024-0.025l-0.216-0.277l-0.189-0.107l-0.175-0.051l-0.214,0.047l-0.154,0.154l-0.328,0.525
		l-0.128,0.256c-0.014,0.029-0.036,0.053-0.064,0.07l-0.506,0.301l-0.539,0.24l-0.137,0.109l-0.36,0.479l-0.025,0.348l0.25,0.25
		c0.022,0.023,0.038,0.051,0.045,0.084l0.271,1.213c0.004,0.021,0.004,0.043,0.002,0.064l-0.063,0.414l0.055,0.389l0.327,0.297
		c0.017,0.016,0.031,0.033,0.04,0.053l0.168,0.371c0.01,0.023,0.016,0.045,0.016,0.07l0,0v0.338l0.033,0.25l0.229,0.713
		c0.017,0.049,0.008,0.104-0.021,0.146c-0.029,0.043-0.077,0.068-0.13,0.072l-0.642,0.033c-0.016,0.002-0.033,0-0.049-0.004
		l-0.249-0.062h-0.432l-0.193,0.137l-0.182,0.184c-0.014,0.016-0.031,0.027-0.05,0.037l-1.519,0.674
		c-0.014,0.004-0.027,0.012-0.042,0.012l-0.378,0.064l-0.437,0.232l-0.212,0.395l-0.216,0.291c-0.023,0.029-0.055,0.051-0.092,0.062
		l-0.372,0.102l-0.365,0.037l-0.295,0.061l-0.325,0.178l-0.352,0.385c-0.009,0.01-0.02,0.018-0.032,0.025l-0.809,0.541l-1.091,1.061
		c-0.033,0.033-0.08,0.053-0.125,0.047l-0.71-0.033l-1.173-0.291l-0.239,0.168l-0.418,0.871l-0.312,0.521l-0.59,0.697l-0.448,0.449
		l-0.15,0.201l0.029,0.408c0.002,0.025-0.002,0.053-0.011,0.076l-0.203,0.506l-0.45,0.766l-1.487,1.826l-0.294,0.656
		c-0.006,0.014-0.013,0.025-0.022,0.035l-0.121,0.152l-0.126,0.283c-0.016,0.037-0.044,0.068-0.079,0.084l-0.203,0.102
		c-0.026,0.012-0.055,0.02-0.084,0.018l-0.642-0.033c-0.039-0.004-0.075-0.018-0.104-0.043l-0.444-0.4l-0.053,0.334
		c-0.002,0.012-0.006,0.025-0.01,0.037l-0.506,1.248l-0.482,0.865l-1.685,2.26l-0.254,0.732l-0.1,0.926l-0.1,1.883l-0.103,0.756
		l-0.242,0.771c-0.003,0.012-0.009,0.023-0.015,0.033l-0.676,1.148c-0.01,0.018-0.021,0.031-0.037,0.047l-0.406,0.336l-1.08,0.709
		l-0.56,0.594c-0.014,0.018-0.033,0.029-0.054,0.037l-0.658,0.297l-0.474,0.348l-0.222,0.285l-0.764,1.33L0,51.244l2.111,0.691
		l1.049,0.131l0.468,0.141c0.013,0.004,0.024,0.008,0.034,0.016l0.406,0.236l0.332,0.289c0.013,0.012,0.023,0.023,0.032,0.039
		l0.203,0.338l0.648,1.695l0.316,0.475l0.424,0.393l0.427,0.326c0.016,0.014,0.031,0.029,0.041,0.047L6.76,56.5
		c0.015,0.025,0.024,0.051,0.025,0.08l0.033,0.811c0.001,0.018-0.001,0.033-0.005,0.051l-1.282,5.029L5.4,63.598l-0.033,0.695
		l0.1,0.783l0.189,0.59l0.359,0.555l1.368,1.531l0.353,0.525l0.247,0.492c0.012,0.023,0.019,0.049,0.019,0.076v0.471
		c0,0.018-0.003,0.037-0.009,0.053l-0.135,0.406c-0.006,0.018-0.013,0.031-0.023,0.047l-0.338,0.471L6.976,70.85l-0.41,0.539
		l-0.22,0.658v0.746l0.197,0.996l0.489,1.043l0.749,0.945l0.873,0.613l13.416,4.719l0.611,0.094l0.818-0.002l2.147-0.166
		c0.004,0,0.009-0.002,0.013-0.002c0.01,0,0.019,0.002,0.027,0.002l1.791,0.287l0.209-0.279l0.068-10.916l-0.034-2.9l0.102-0.934
		c0.004-0.033,0.017-0.062,0.038-0.09l0.157-0.188l0.193-0.389l0.295-0.428l0.019-0.119l-0.049-0.125
		c-0.008-0.018-0.012-0.039-0.012-0.062v-0.234c0-0.047,0.017-0.088,0.048-0.119l0.203-0.203c0.009-0.01,0.019-0.018,0.03-0.023
		l0.442-0.271c0.037-0.023,0.083-0.029,0.127-0.02l0.135,0.033c0.069,0.018,0.12,0.078,0.128,0.148l0.028,0.32l0.053,0.066h0.067
		l0.226-0.059l0.654-0.391c0.026-0.016,0.055-0.023,0.086-0.023h0.135c0.044,0,0.087,0.018,0.119,0.049l0.101,0.102
		c0.013,0.014,0.023,0.025,0.031,0.039l0.263,0.475l0.646-0.086c0.026-0.006,0.052-0.004,0.076,0.004l0.203,0.068
		c0.019,0.006,0.037,0.016,0.052,0.029l0.123,0.098l0.017-0.027l0.129-0.682c0.013-0.068,0.069-0.123,0.14-0.133
		c0.071-0.014,0.141,0.025,0.175,0.086l0.27,0.506c0.018,0.031,0.022,0.068,0.019,0.102l-0.034,0.27l0.003,0.223l0.223-0.199
		c0.031-0.029,0.071-0.043,0.113-0.043h0.404c0.031,0,0.061,0.006,0.086,0.023l0.169,0.1c0.028,0.018,0.05,0.041,0.064,0.07
		l0.026,0.053l0.218-0.402c0.03-0.049,0.086-0.082,0.145-0.082h0.27c0.045,0,0.089,0.018,0.121,0.049v0.002l0.134,0.137
		c0.037,0.035,0.055,0.086,0.049,0.135l-0.02,0.184l0.158-0.203c0.02-0.025,0.048-0.047,0.08-0.057l0.204-0.066
		c0.034-0.012,0.073-0.012,0.109,0l0.524,0.186l0.32-0.088c0.011-0.004,0.023-0.006,0.035-0.006L37.116,65l0.09-0.062v-0.053
		l-0.099-0.121c-0.024-0.029-0.037-0.068-0.037-0.105v-0.137c0-0.062,0.036-0.121,0.093-0.15L37.907,64
		c0.046-0.021,0.099-0.023,0.146-0.004l0.325,0.15l0.521-0.094c0.035-0.006,0.073,0,0.104,0.016l0.136,0.066
		c0.036,0.02,0.064,0.049,0.081,0.088l0.119,0.297l0.088,0.07h0.109l0.155-0.066l0.048-0.08v-0.326c0-0.053,0.025-0.104,0.067-0.135
		l0.136-0.102c0.047-0.035,0.108-0.043,0.164-0.021l0.167,0.068c0.011,0.002,0.022,0.008,0.032,0.016l0.245,0.164l0.055-0.012
		l0.304-0.273l0.443-0.375c0.019-0.016,0.042-0.027,0.064-0.033l0.372-0.102c0.014-0.004,0.029-0.004,0.044-0.004h0.202
		c0.045,0,0.088,0.018,0.119,0.047l0.095,0.098l0.118,0.016l0.25-0.166l0.461-0.365c0.009-0.008,0.019-0.014,0.029-0.018l0.359-0.18
		l0.109-0.193c0.01-0.018,0.022-0.033,0.038-0.045l0.203-0.17c0.022-0.018,0.047-0.029,0.075-0.035l0.41-0.082l0.018-0.047
		l-0.064-0.148l-0.212-0.215c-0.043-0.043-0.06-0.104-0.044-0.162l0.102-0.371c0.011-0.047,0.044-0.086,0.087-0.107l0.354-0.178
		l0.282-0.531c0.015-0.025,0.038-0.047,0.064-0.062l1.958-1.115c0.012-0.004,0.023-0.012,0.033-0.016l0.44-0.135
		c0.024-0.006,0.048-0.008,0.073-0.004l0.235,0.033c0.046,0.006,0.088,0.029,0.115,0.07l0.218,0.311l0.177,0.119
		c0.021,0.012,0.039,0.031,0.052,0.053l0.166,0.275l0.402,0.094l0.222-0.27l0.192-0.451c0.009-0.023,0.026-0.045,0.044-0.061
		l0.271-0.234c0.019-0.021,0.044-0.033,0.072-0.039l0.744-0.17c0.038-0.008,0.077-0.002,0.112,0.016l0.271,0.135
		c0.045,0.021,0.078,0.066,0.089,0.113l0.168,0.777l0.041,0.098l0.031,0.023L51.071,60l0.149-0.842
		c0.007-0.033,0.023-0.066,0.047-0.088l0.305-0.305c0.053-0.055,0.137-0.066,0.202-0.029l0.236,0.137
		c0.027,0.016,0.049,0.037,0.064,0.062l0.225,0.389v-0.17l0,0l0.07-0.496c0.005-0.035,0.021-0.07,0.048-0.096l0.27-0.27
		c0.031-0.033,0.074-0.051,0.12-0.051h0.255l-0.042-0.025c-0.015-0.01-0.028-0.021-0.04-0.033L52.81,57.98
		c-0.03-0.037-0.044-0.086-0.038-0.135l0.035-0.234c0.011-0.084,0.083-0.145,0.167-0.145h0.169c0.03,0,0.06,0.008,0.085,0.023
		l0.14,0.084l0.439,0.062l0.201,0.049l0.441-0.381c0.01-0.01,0.021-0.018,0.034-0.023l0.203-0.102
		c0.022-0.012,0.045-0.018,0.068-0.018l0.793-0.033l0.368-0.092l0.335-0.184l0.863-0.764c0.027-0.025,0.061-0.039,0.098-0.041
		l0.406-0.035c0.034-0.002,0.068,0.006,0.099,0.021l0.69,0.4l0.075-0.266c0.005-0.016,0.013-0.033,0.021-0.047l0.203-0.305
		c0.027-0.039,0.071-0.066,0.12-0.072l0.269-0.035c0.052-0.006,0.104,0.012,0.142,0.049l0.338,0.338
		c0.017,0.018,0.031,0.039,0.039,0.062l0.133,0.385l-0.054-0.541c-0.004-0.029-0.001-0.059,0.01-0.086l0.068-0.17
		c0.012-0.029,0.034-0.059,0.062-0.076l0.304-0.203l0.316-0.176c0.014-0.01,0.029-0.016,0.046-0.018l0.303-0.068
		c0.018-0.002,0.037-0.002,0.055-0.002l0.128,0.014l0.021-0.344l-0.065-0.387l-0.035-0.455c-0.003-0.021,0.001-0.043,0.007-0.064
		l0.102-0.303c0.015-0.043,0.044-0.08,0.085-0.098l0.27-0.137c0.014-0.006,0.028-0.012,0.043-0.016l0.878-0.166l0.457-0.133
		c0.032-0.01,0.064-0.01,0.095,0.002l0.337,0.1c0.043,0.012,0.078,0.041,0.1,0.078l0.287,0.512l0.285,0.229l0.472,0.127l0.847,0.062
		c0.037,0.002,0.07,0.016,0.099,0.039l0.151,0.135c0.036-0.031,0.08-0.043,0.128-0.041c0.051,0.008,0.097,0.035,0.123,0.08
		l0.127,0.201l0.186,0.02l0.269-0.088l0.407-0.096l0.032-0.033c0.024-0.025,0.054-0.039,0.087-0.047l2.408-0.469l0.423-0.211
		l0.214-0.244c0.013-0.016,0.027-0.027,0.044-0.037l0.305-0.168c0.032-0.018,0.072-0.025,0.109-0.018l0.203,0.031
		c0.04,0.008,0.077,0.029,0.104,0.062l0.135,0.168c0.015,0.02,0.026,0.041,0.033,0.064l0.151,0.605l0.053,0.029l0.081-0.094
		l0.06-0.359l-0.003-0.682c0-0.035,0.011-0.072,0.034-0.102l0.101-0.135c0.037-0.051,0.102-0.076,0.163-0.062l0.203,0.031
		c0.033,0.006,0.063,0.021,0.089,0.045l0.816,0.783l0.202,0.066l0.182-0.09l0.352-0.352c0.022-0.023,0.048-0.037,0.079-0.045
		l0.134-0.033c0.078-0.021,0.156,0.018,0.192,0.088l0.068,0.135c0.012,0.025,0.019,0.055,0.017,0.084l-0.032,0.604l0.049,0.111
		l0.331,0.049l0.906-0.408l0.214-0.213l0.15-0.217c0.023-0.033,0.058-0.055,0.097-0.064l0.269-0.066
		c0.014-0.004,0.028-0.006,0.042-0.006h0.303l0.555-0.066c0.014-0.002,0.029,0,0.043,0l0.472,0.068l0.479,0.156l0.166-0.061
		l0.273-0.396c0.031-0.047,0.083-0.072,0.14-0.072h0.167c0.032,0,0.061,0.008,0.088,0.023l0.777,0.475l0.377,0.172l0.12-0.014
		l0.135-0.377c0.007-0.018,0.016-0.033,0.027-0.047l0.135-0.168c0.039-0.049,0.099-0.074,0.16-0.061l0.203,0.031
		c0.031,0.006,0.062,0.021,0.085,0.041l0.333,0.305l0.053-0.018l0.085-0.127l0.128-0.576c0.004-0.023,0.013-0.041,0.024-0.059
		l0.135-0.203c0.032-0.045,0.085-0.074,0.142-0.074h0.201c0.041,0,0.078,0.014,0.108,0.039l0.203,0.17
		c0.025,0.02,0.044,0.049,0.053,0.08l0.096,0.316l0.138,0.221l0.13,0.086h0.32c0.016,0,0.031,0.002,0.046,0.008l0.236,0.066
		c0.016,0.006,0.03,0.012,0.043,0.018l0.23,0.145l0,0h0.166l0.216-0.055l0.748-0.586c0.037-0.029,0.085-0.041,0.132-0.031
		l0.203,0.031c0.025,0.006,0.05,0.016,0.07,0.029l0.238,0.17l0.218,0.188l0.132,0.039l0.147-0.084l0.116-0.145
		c0.043-0.057,0.118-0.076,0.185-0.055l0.203,0.068l0.44,0.219l0.25-0.059V42.035l0.053-27.959l0.014-7.133l-0.324,0.303
		c-0.013,0.014-0.028,0.025-0.046,0.033l-0.305,0.135L85.71,7.488L85.356,7.65l-0.628,0.363l-1.26,1.029
		c-0.023,0.021-0.052,0.035-0.083,0.037l-1.328,0.199l-6.548,2.822l-1.776,1.238l-0.966,0.486l-2.087,0.617l-0.296,0.039
		l-0.259,0.002l-0.17,0.027l-0.189,0.135l-1.777,1.912l-1.736,1.465l-0.9,0.557c-0.012,0.006-0.027,0.014-0.042,0.018l-0.844,0.236
		c-0.029,0.008-0.061,0.008-0.091,0L63.9,18.699c-0.036-0.012-0.07-0.035-0.091-0.064l-0.237-0.338l-0.189-0.316l-0.796-0.508
		l-0.224-0.086h-0.187h0l-3.627,0.809l-0.226,0.104l-0.953,1.479c-0.022,0.033-0.058,0.059-0.098,0.07l-0.506,0.135
		c-0.024,0.006-0.049,0.008-0.073,0.006l-0.575-0.105c-0.024-0.002-0.046-0.012-0.066-0.025l-0.352-0.244l-0.989,0.555
		c-0.01,0.008-0.02,0.012-0.031,0.016l-0.541,0.166c-0.073,0.023-0.151-0.004-0.192-0.068l-0.227-0.355l-0.102-0.102l-0.246-0.123
		l-0.31-0.092l-0.16-0.018l-0.06,0.059l-0.46,0.889c-0.02,0.037-0.055,0.068-0.097,0.08l-0.203,0.068
		c-0.056,0.018-0.119,0.008-0.163-0.033l-0.311-0.258l-0.111,0.092c-0.031,0.025-0.069,0.041-0.109,0.041h-0.169l-1.054-0.164
		l-0.133,0.068l-0.434,0.365c-0.023,0.016-0.049,0.027-0.077,0.031l-0.235,0.035c-0.021,0.002-0.04,0.002-0.057-0.002l-0.169-0.033
		c-0.02-0.004-0.038-0.012-0.053-0.023l-0.507-0.303c-0.043-0.027-0.072-0.066-0.08-0.117l-0.12-0.715l-0.036-0.016l-0.324,0.059
		c-0.021,0.004-0.043,0.004-0.064,0l-0.168-0.035c-0.087-0.016-0.146-0.1-0.134-0.188l0.058-0.408l-0.099-0.148
		c-0.01-0.018-0.018-0.035-0.022-0.055l-0.086-0.295l-0.351-0.412c-0.013-0.016-0.023-0.033-0.029-0.051l-0.08-0.207l-0.107-0.055
		h-0.297c-0.046,0-0.092-0.02-0.124-0.055l-2.025-2.16c-0.01-0.01-0.018-0.021-0.025-0.035l-1.542-2.812l-1.028-0.994
		c-0.01-0.012-0.021-0.025-0.028-0.039l-0.135-0.236c-0.01-0.016-0.015-0.031-0.019-0.049l-0.046-0.23l-0.769,5.352L40.006,22.07z
		 M21.952,35.688c-0.05,0-0.094-0.021-0.125-0.055c-0.024,0.014-0.049,0.023-0.079,0.023c-0.093,0-0.17-0.076-0.17-0.17
		s0.074-0.168,0.167-0.168h0.004c0.048,0,0.093,0.02,0.123,0.055c0.023-0.014,0.048-0.023,0.076-0.023h0.004
		c0.094,0,0.167,0.074,0.167,0.17C22.12,35.613,22.046,35.688,21.952,35.688z"/>
	<g>
		<g>
			<g enable-background="new    ">
				<path fill="#331842" d="M277.191,0.107l3.052,10.117l2.24-9.375l5.974,0.049c-0.104,2.116-0.157,4.252-0.157,6.406
					c0,2.402,0.065,4.834,0.196,7.295l-3.812,0.195c0-2.591-0.039-5.758-0.118-9.502l-2.135,8.584l-4.062,0.205l-2.62-9.258
					l-0.052,9.375l-3.196,0.166c0.061-2.142,0.091-4.268,0.091-6.377c0-2.63-0.048-5.228-0.144-7.793L277.191,0.107z"/>
				<path fill="#331842" d="M298.073,0.527v2.754l-5.175-0.156v3.203l4.651-0.098l0.118,2.646h-4.153v2.48h5.437v2.773l-9.066-0.098
					c0.096-1.829,0.144-3.672,0.144-5.527c0-2.571-0.092-5.166-0.275-7.783C291.728,0.664,294.501,0.6,298.073,0.527z"/>
				<path fill="#331842" d="M300.208,3.047V0.479c1.284,0.026,2.555,0.039,3.812,0.039c1.957,0,3.874-0.029,5.751-0.088l0.118,2.734
					h-3.301c0,4.629,0.065,8.301,0.197,11.016l-3.695,0.137c0.192-4.622,0.332-8.392,0.419-11.309L300.208,3.047z"/>
				<path fill="#331842" d="M310.283,14.199c1.642-5.56,2.969-10.273,3.982-14.141L319.178,0c1.205,4.023,2.585,8.607,4.14,13.75
					l-3.354,0.508l-1.061-3.701h-4.074l-1.101,3.994L310.283,14.199z M318.798,7.812c-0.455-1.406-1.197-3.089-2.228-5.049
					c-0.794,1.647-1.467,3.354-2.017,5.117L318.798,7.812z"/>
			</g>
		</g>
	</g>
</g>
</svg>
