<?xml version="1.0" encoding="utf-8"?>
<!-- Generator: Adobe Illustrator 16.0.0, SVG Export Plug-In . SVG Version: 6.00 Build 0)  -->
<!DOCTYPE svg PUBLIC "-//W3C//DTD SVG 1.1//EN" "http://www.w3.org/Graphics/SVG/1.1/DTD/svg11.dtd">
<svg version="1.1" id="Capa_1" xmlns="http://www.w3.org/2000/svg" xmlns:xlink="http://www.w3.org/1999/xlink" x="0px" y="0px"
	 width="720.07px" height="212.16px" viewBox="0 0 720.07 212.16" enable-background="new 0 0 720.07 212.16" xml:space="preserve">
<g>
	<rect x="452.199" y="62.39" opacity="0.5" fill="#951B81" enable-background="new    " width="267.871" height="31"/>
	<g>
		<g>
			<path fill="#FFFFFF" d="M537.052,84.53c0.018-2.193,0.025-4.453,0.025-6.777c0-2.33-0.008-4.723-0.025-7.178
				c1.004-0.091,1.93-0.137,2.777-0.137c2.355,0,4.096,0.352,5.213,1.055c1.521,0.964,2.314,2.744,2.385,5.342v0.703
				c0,2.227-0.289,3.815-0.865,4.766c-0.637,1.049-1.803,1.745-3.496,2.09c-0.979,0.202-2.053,0.303-3.225,0.303
				C538.968,84.696,538.039,84.642,537.052,84.53z M540.3,73.368c-0.148,2.143-0.223,4.213-0.223,6.211
				c0,0.756,0.01,1.498,0.027,2.227c0.305,0.053,0.598,0.078,0.877,0.078c0.768,0,1.414-0.198,1.938-0.596
				c0.717-0.533,1.074-1.731,1.074-3.594v-0.039c-0.008-1.875-0.357-3.105-1.049-3.691c-0.531-0.442-1.164-0.664-1.898-0.664
				C540.812,73.3,540.562,73.323,540.3,73.368z"/>
			<path fill="#FFFFFF" d="M552.667,74.872c3.031,0,4.547,1.501,4.547,4.502c0,0.365-0.021,0.756-0.066,1.172h-5.855
				c0,1.674,0.434,2.51,1.297,2.51h0.092c0.762-0.045,1.141-0.479,1.141-1.299c0-0.176-0.018-0.371-0.053-0.586l3.117-0.049
				c0,2.48-1.453,3.737-4.361,3.77c-0.035,0.007-0.064,0.01-0.092,0.01c-2.77,0-4.152-1.565-4.152-4.697v-0.293
				C548.367,76.552,549.83,74.872,552.667,74.872z M550.978,78.749h2.961v-0.234c0-1.185-0.449-1.777-1.35-1.777
				C551.619,76.737,551.082,77.408,550.978,78.749z"/>
			<path fill="#FFFFFF" d="M558.039,81.435l3-0.107v0.127c0,1.003,0.414,1.511,1.244,1.523h0.053c0.805,0,1.205-0.289,1.205-0.869
				V82.04c-0.035-0.638-0.826-1.152-2.377-1.543s-2.482-1.048-2.797-1.973c-0.113-0.325-0.17-0.638-0.17-0.938
				c0-0.547,0.188-1.055,0.561-1.523c0.578-0.716,1.451-1.126,2.621-1.23c0.314-0.025,0.619-0.039,0.916-0.039
				c0.777,0,1.463,0.102,2.059,0.303c0.812,0.28,1.375,0.681,1.689,1.201c0.209,0.358,0.314,0.756,0.314,1.191
				c0,0.209-0.021,0.424-0.066,0.645l-2.803,0.049c0.025-0.162,0.039-0.312,0.039-0.449c0-0.65-0.279-0.999-0.838-1.045
				c-0.062-0.006-0.123-0.01-0.186-0.01c-0.576,0-0.965,0.219-1.166,0.654c-0.068,0.15-0.104,0.287-0.104,0.41
				c0,0.307,0.191,0.57,0.576,0.791c0.541,0.312,1.344,0.63,2.404,0.952c1.061,0.322,1.775,0.871,2.143,1.646
				c0.131,0.293,0.195,0.586,0.195,0.879c0,0.495-0.191,0.993-0.576,1.494c-0.611,0.801-1.559,1.267-2.844,1.396
				c-0.277,0.033-0.555,0.049-0.824,0.049c-0.961,0-1.852-0.186-2.674-0.557C558.589,83.919,558.056,82.933,558.039,81.435z"/>
			<path fill="#FFFFFF" d="M572.855,80.878l3.117,0.146c0,2.351-1.453,3.542-4.361,3.574c-0.035,0.007-0.064,0.01-0.092,0.01
				c-2.77,0-4.152-1.565-4.152-4.697v-0.293c0.086-3.359,1.562-5.055,4.428-5.088h0.105c2.637,0,3.955,1.127,3.955,3.379
				c0,0.131-0.006,0.261-0.014,0.391l-2.816,0.156v-0.234c0-1.185-0.449-1.777-1.35-1.777c-0.918,0-1.375,0.961-1.375,2.881v0.322
				c0.053,2.077,0.516,3.115,1.389,3.115h0.078c0.762-0.045,1.141-0.479,1.141-1.299C572.908,81.288,572.89,81.093,572.855,80.878z"
				/>
			<path fill="#FFFFFF" d="M580.546,77.899l0.131,7.08l-3.211,0.02c0-2.994-0.135-6.357-0.406-10.088l2.412-0.195l0.131,1.592
				c0.365-0.781,1.223-1.227,2.566-1.338c0.201-0.013,0.395-0.02,0.576-0.02c1.057,0,1.861,0.258,2.412,0.771
				c0.637,0.612,0.959,1.586,0.969,2.92l-2.908,0.215c0.008-0.11,0.014-0.218,0.014-0.322c0-1.041-0.363-1.562-1.088-1.562h-0.053
				C581.253,77.005,580.738,77.313,580.546,77.899z"/>
			<path fill="#FFFFFF" d="M590.671,72.626c0,0.397-0.188,0.736-0.562,1.016c-0.375,0.28-0.828,0.42-1.361,0.42
				c-0.523,0-0.975-0.14-1.35-0.42c-0.375-0.279-0.562-0.618-0.562-1.016c0-0.391,0.188-0.726,0.562-1.006
				c0.375-0.279,0.824-0.42,1.35-0.42c0.533,0,0.986,0.141,1.361,0.42C590.484,71.9,590.671,72.235,590.671,72.626z M587.162,84.95
				c-0.062-3.809-0.092-7.1-0.092-9.873l3.301-0.146c-0.105,2.656-0.156,5.297-0.156,7.92c0,0.703,0.004,1.403,0.014,2.1
				L587.162,84.95L587.162,84.95z"/>
			<path fill="#FFFFFF" d="M591.472,88.798c0.053-2.194,0.078-4.527,0.078-7.002c0-2.252-0.021-4.615-0.064-7.09l3.104-0.01
				l0.105,1.504c0.645-0.729,1.506-1.094,2.58-1.094c2.682,0,4.021,1.579,4.021,4.736v0.195c-0.062,3.164-1.396,4.746-4.01,4.746
				c-0.104,0-0.209-0.003-0.314-0.01c-0.891-0.032-1.609-0.394-2.162-1.084c0,1.445,0.051,3.147,0.146,5.107h-3.484V88.798z
				 M594.748,78.202l0.064,3.672c0.506,0.515,1.018,0.771,1.531,0.771c0.211,0,0.42-0.045,0.629-0.137
				c0.639-0.26,0.957-1.038,0.957-2.334c0-0.156-0.004-0.318-0.014-0.488c-0.088-1.588-0.51-2.425-1.27-2.51
				c-0.08-0.006-0.154-0.01-0.225-0.01C595.759,77.167,595.201,77.513,594.748,78.202z"/>
			<path fill="#FFFFFF" d="M607.691,80.878l3.115,0.146c0,2.351-1.453,3.542-4.361,3.574c-0.035,0.007-0.064,0.01-0.092,0.01
				c-2.77,0-4.152-1.565-4.152-4.697v-0.293c0.088-3.359,1.562-5.055,4.428-5.088h0.105c2.637,0,3.957,1.127,3.957,3.379
				c0,0.131-0.006,0.261-0.016,0.391l-2.814,0.156v-0.234c0-1.185-0.451-1.777-1.352-1.777c-0.916,0-1.375,0.961-1.375,2.881v0.322
				c0.053,2.077,0.516,3.115,1.391,3.115h0.078c0.76-0.045,1.139-0.479,1.139-1.299C607.742,81.288,607.724,81.093,607.691,80.878z"
				/>
			<path fill="#FFFFFF" d="M615.564,72.626c0,0.397-0.189,0.736-0.564,1.016c-0.375,0.28-0.83,0.42-1.361,0.42
				c-0.523,0-0.975-0.14-1.35-0.42c-0.377-0.279-0.564-0.618-0.564-1.016c0-0.391,0.189-0.726,0.564-1.006
				c0.375-0.279,0.824-0.42,1.35-0.42c0.531,0,0.986,0.141,1.361,0.42C615.375,71.9,615.564,72.235,615.564,72.626z M612.052,84.95
				c-0.061-3.809-0.092-7.1-0.092-9.873l3.301-0.146c-0.104,2.656-0.156,5.297-0.156,7.92c0,0.703,0.006,1.403,0.014,2.1
				L612.052,84.95L612.052,84.95z"/>
			<path fill="#FFFFFF" d="M620.896,74.872c2.969,0,4.453,1.537,4.453,4.609c0,0.124-0.004,0.248-0.014,0.371
				c-0.121,3.327-1.703,5.007-4.742,5.039c-0.035,0.007-0.068,0.01-0.104,0.01c-2.891,0-4.336-1.572-4.336-4.717v-0.273
				C616.24,76.552,617.822,74.872,620.896,74.872z M620.462,77.099c-0.549,0.144-0.926,0.674-1.127,1.592
				c-0.121,0.547-0.182,1.098-0.182,1.65c0,0.371,0.023,0.746,0.078,1.123c0.139,0.938,0.59,1.423,1.35,1.455h0.092
				c0.707,0,1.191-0.348,1.453-1.045c0.219-0.579,0.328-1.266,0.328-2.061c0-0.195-0.004-0.394-0.014-0.596
				c-0.07-1.048-0.279-1.702-0.629-1.963c-0.219-0.156-0.48-0.234-0.785-0.234C620.851,77.021,620.664,77.047,620.462,77.099z
				 M619.193,72.968c1.02-0.904,1.859-1.768,2.514-2.588l2.15,1.27c-0.928,0.678-1.957,1.508-3.094,2.49L619.193,72.968z"/>
			<path fill="#FFFFFF" d="M628.48,74.618l0.131,1.592c0.367-0.846,1.332-1.275,2.896-1.289h0.053c1.537,0,2.584,0.449,3.145,1.348
				c0.383,0.612,0.576,2.045,0.576,4.297c0,1.107-0.049,2.416-0.145,3.926h-3.172c0.115-2.012,0.172-3.57,0.172-4.678
				c0-0.553-0.014-0.996-0.039-1.328c-0.088-0.977-0.508-1.465-1.258-1.465c-0.752,0-1.223,0.261-1.416,0.781l0.131,7.08
				l-3.078,0.02c0-2.994-0.135-6.357-0.404-10.088L628.48,74.618z"/>
		</g>
	</g>
	<g>
		<g>
			<line fill="none" stroke="#666665" stroke-width="4" stroke-miterlimit="10" x1="0" y1="154.332" x2="159.94" y2="154.332"/>
			<g>
				<circle fill="#666665" cx="159.94" cy="154.331" r="7.52"/>
			</g>
		</g>
	</g>
	<g>
		<path fill="#331842" d="M282.7,9.346l3.891-0.195c-0.052,0.403-0.078,0.769-0.078,1.094c0,1.478,0.493,2.217,1.48,2.217h0.053
			c1.196-0.026,1.795-0.501,1.795-1.426v-0.088c-0.044-0.983-1.176-1.946-3.394-2.891c-2.157-0.911-3.235-2.415-3.235-4.512
			c0-0.065,0.004-0.13,0.013-0.195c0.062-2.194,1.712-3.311,4.952-3.35h0.104c2.926,0,4.389,1.39,4.389,4.17
			c0,0.222-0.009,0.456-0.026,0.703l-3.419,0.146c0.035-0.293,0.053-0.563,0.053-0.811c0-1.165-0.38-1.748-1.14-1.748
			c-0.918,0-1.42,0.349-1.507,1.045c-0.009,0.098-0.013,0.195-0.013,0.293c0,0.579,0.23,1.12,0.693,1.621
			c0.533,0.579,1.448,1.11,2.745,1.592c1.297,0.482,2.203,1.143,2.718,1.982c0.367,0.605,0.551,1.25,0.551,1.934
			c0,0.261-0.026,0.527-0.078,0.801c-0.201,0.983-0.761,1.799-1.678,2.446s-2.148,1.001-3.694,1.06
			c-0.104,0.007-0.21,0.01-0.314,0.01c-1.406,0-2.581-0.384-3.523-1.152c-0.909-0.735-1.362-2.073-1.362-4.014
			C282.675,9.844,282.683,9.6,282.7,9.346z"/>
		<path fill="#331842" d="M298.71,4.775c3.03,0,4.545,1.501,4.545,4.502c0,0.364-0.021,0.755-0.064,1.172h-5.856
			c0,1.673,0.433,2.51,1.297,2.51h0.092c0.76-0.046,1.14-0.479,1.14-1.299c0-0.176-0.018-0.371-0.053-0.586l3.118-0.049
			c0,2.48-1.454,3.737-4.362,3.77c-0.035,0.007-0.065,0.01-0.092,0.01c-2.769,0-4.152-1.565-4.152-4.697V9.814
			C294.408,6.455,295.871,4.775,298.71,4.775z M297.02,8.652h2.961V8.418c0-1.185-0.45-1.777-1.35-1.777
			C297.661,6.641,297.124,7.312,297.02,8.652z"/>
		<path fill="#331842" d="M306.648,4.521l0.131,1.592c0.367-0.847,1.332-1.276,2.896-1.289h0.053c1.537,0,2.586,0.449,3.145,1.348
			c0.384,0.612,0.576,2.044,0.576,4.297c0,1.106-0.048,2.415-0.145,3.926h-3.171c0.114-2.012,0.171-3.571,0.171-4.678
			c0-0.554-0.014-0.996-0.039-1.328c-0.088-0.977-0.507-1.465-1.258-1.465c-0.752,0-1.223,0.261-1.415,0.781l0.131,7.08l-3.079,0.02
			c0-2.995-0.135-6.357-0.406-10.088L306.648,4.521z"/>
		<path fill="#331842" d="M316.723,1.66l2.975-0.146v3.232l2.503-0.049l0.039,1.846l-2.542,0.088v4.443
			c0,1.035,0.59,1.553,1.77,1.553c0.244,0,0.51-0.022,0.799-0.068l-0.117,2.148c-0.42,0.039-0.817,0.059-1.192,0.059
			c-2.76,0-4.166-1.062-4.219-3.184V6.807l-2.148,0.098l-0.052-2.178l2.2,0.02L316.723,1.66z"/>
		<path fill="#331842" d="M327.583,4.775c3.031,0,4.546,1.501,4.546,4.502c0,0.364-0.021,0.755-0.064,1.172h-5.855
			c0,1.673,0.432,2.51,1.297,2.51h0.092c0.761-0.046,1.141-0.479,1.141-1.299c0-0.176-0.019-0.371-0.054-0.586l3.118-0.049
			c0,2.48-1.454,3.737-4.361,3.77c-0.035,0.007-0.065,0.01-0.093,0.01c-2.769,0-4.152-1.565-4.152-4.697V9.814
			C323.282,6.455,324.745,4.775,327.583,4.775z M325.894,8.652h2.962V8.418c0-1.185-0.45-1.777-1.351-1.777
			C326.535,6.641,325.998,7.312,325.894,8.652z"/>
		<path fill="#331842" d="M335.522,4.521l0.131,1.592c0.367-0.847,1.332-1.276,2.895-1.289h0.053c1.537,0,2.586,0.449,3.146,1.348
			c0.384,0.612,0.576,2.044,0.576,4.297c0,1.106-0.048,2.415-0.146,3.926h-3.17c0.113-2.012,0.17-3.571,0.17-4.678
			c0-0.554-0.013-0.996-0.039-1.328c-0.087-0.977-0.506-1.465-1.258-1.465c-0.751,0-1.223,0.261-1.414,0.781l0.131,7.08l-3.079,0.02
			c0-2.995-0.136-6.357-0.405-10.088L335.522,4.521z"/>
		<path fill="#331842" d="M348.767,10.781l3.118,0.146c0,2.351-1.454,3.542-4.361,3.574c-0.035,0.007-0.065,0.01-0.093,0.01
			c-2.769,0-4.151-1.565-4.151-4.697V9.521c0.087-3.359,1.562-5.056,4.428-5.088h0.104c2.639,0,3.956,1.126,3.956,3.379
			c0,0.13-0.004,0.261-0.013,0.391l-2.815,0.156V8.125c0-1.185-0.45-1.777-1.351-1.777c-0.917,0-1.376,0.96-1.376,2.881v0.322
			c0.053,2.077,0.516,3.115,1.389,3.115h0.079c0.761-0.046,1.141-0.479,1.141-1.299C348.819,11.191,348.802,10.996,348.767,10.781z"
			/>
		<path fill="#331842" d="M356.641,2.529c0,0.397-0.188,0.735-0.562,1.016c-0.376,0.28-0.83,0.42-1.362,0.42
			c-0.523,0-0.974-0.14-1.35-0.42c-0.376-0.28-0.563-0.618-0.563-1.016c0-0.391,0.188-0.726,0.563-1.006
			c0.375-0.28,0.825-0.42,1.35-0.42c0.532,0,0.986,0.14,1.362,0.42C356.452,1.804,356.641,2.139,356.641,2.529z M353.13,14.854
			c-0.062-3.809-0.092-7.1-0.092-9.873l3.301-0.146c-0.104,2.656-0.157,5.296-0.157,7.92c0,0.703,0.005,1.403,0.015,2.1
			L353.13,14.854L353.13,14.854z"/>
		<path fill="#331842" d="M362.431,4.492c2.873,0.117,4.311,1.194,4.311,3.232v6.934l-3.053,0.039l-0.104-0.928
			c-0.629,0.534-1.463,0.801-2.504,0.801c-0.445,0-0.925-0.052-1.44-0.156c-1.546-0.286-2.318-1.179-2.318-2.676
			c0-0.183,0.014-0.378,0.039-0.586c0.176-1.543,1.646-2.314,4.417-2.314c0.531,0,1.115,0.029,1.754,0.088V7.793
			c0-0.918-0.389-1.377-1.166-1.377h-0.051c-0.062-0.007-0.119-0.01-0.172-0.01c-0.848,0-1.271,0.515-1.271,1.543v0.146L357.754,7.9
			c0-2.272,1.468-3.408,4.402-3.408H362.431z M363.531,12.207v-1.719c-0.375-0.059-0.715-0.088-1.021-0.088
			c-0.795,0-1.336,0.198-1.625,0.596c-0.174,0.241-0.262,0.466-0.262,0.674c0,0.261,0.141,0.491,0.42,0.693
			c0.219,0.156,0.502,0.234,0.852,0.234C362.339,12.598,362.884,12.468,363.531,12.207z"/>
		<path fill="#331842" d="M372.781,3.262V0.693c1.283,0.026,2.555,0.039,3.811,0.039c1.957,0,3.873-0.029,5.752-0.088l0.117,2.734
			h-3.301c0,4.629,0.064,8.301,0.195,11.016l-3.693,0.137c0.191-4.622,0.332-8.392,0.418-11.309L372.781,3.262z"/>
		<path fill="#331842" d="M387.099,7.803l0.133,7.08l-3.211,0.02c0-2.995-0.137-6.357-0.406-10.088l2.41-0.195l0.131,1.592
			c0.367-0.781,1.223-1.228,2.568-1.338c0.201-0.013,0.393-0.02,0.576-0.02c1.057,0,1.859,0.257,2.41,0.771
			c0.637,0.612,0.961,1.585,0.969,2.92l-2.906,0.215c0.008-0.11,0.012-0.218,0.012-0.322c0-1.042-0.361-1.562-1.086-1.562h-0.053
			C387.806,6.907,387.291,7.217,387.099,7.803z"/>
		<path fill="#331842" d="M397.226,2.529c0,0.397-0.188,0.735-0.562,1.016c-0.375,0.28-0.83,0.42-1.363,0.42
			c-0.521,0-0.973-0.14-1.35-0.42c-0.375-0.28-0.562-0.618-0.562-1.016c0-0.391,0.189-0.726,0.562-1.006
			c0.377-0.28,0.826-0.42,1.35-0.42c0.533,0,0.988,0.14,1.363,0.42C397.039,1.804,397.226,2.139,397.226,2.529z M393.714,14.854
			c-0.061-3.809-0.092-7.1-0.092-9.873l3.303-0.146c-0.105,2.656-0.158,5.296-0.158,7.92c0,0.703,0.006,1.403,0.014,2.1
			L393.714,14.854L393.714,14.854z"/>
		<path fill="#331842" d="M401.509,0.986c-0.096,1.96-0.143,3.662-0.143,5.107c0.461-0.618,1.051-0.979,1.768-1.084
			c0.123-0.007,0.24-0.01,0.354-0.01c2.848,0,4.301,1.533,4.361,4.6v0.176c0,3.073-1.516,4.609-4.545,4.609
			c-0.727,0-1.412-0.361-2.057-1.084l-0.105,1.494l-3.104-0.01c0.043-2.383,0.064-4.675,0.064-6.875
			c0-2.415-0.025-4.724-0.078-6.924L401.509,0.986L401.509,0.986z M401.367,7.92l-0.066,3.379c0.453,0.69,1.031,1.035,1.729,1.035
			c0.08,0,0.156-0.003,0.234-0.01c0.805-0.085,1.25-0.889,1.338-2.412c0.01-0.156,0.014-0.306,0.014-0.449
			c0-1.25-0.34-1.995-1.021-2.236c-0.211-0.071-0.416-0.107-0.615-0.107C402.427,7.119,401.89,7.386,401.367,7.92z"/>
		<path fill="#331842" d="M415.685,14.805l-0.131-1.592c-0.367,0.847-1.354,1.272-2.961,1.279c-0.018,0.007-0.031,0.01-0.039,0.01
			c-1.59,0-2.643-0.534-3.156-1.602c-0.352-0.71-0.525-2.178-0.525-4.404c0-1.146,0.049-2.497,0.145-4.053h3.186
			c-0.176,2.188-0.264,3.87-0.264,5.049c0,0.593,0.021,1.055,0.064,1.387c0.131,1.016,0.572,1.523,1.324,1.523
			c0.75,0,1.223-0.264,1.414-0.791l-0.131-6.777l3.078-0.02c0,2.8,0.137,6.062,0.406,9.785L415.685,14.805z"/>
		<path fill="#331842" d="M421.593,4.521l0.131,1.592c0.367-0.847,1.332-1.276,2.896-1.289h0.053c1.537,0,2.584,0.449,3.145,1.348
			c0.385,0.612,0.574,2.044,0.574,4.297c0,1.106-0.047,2.415-0.143,3.926h-3.172c0.115-2.012,0.172-3.571,0.172-4.678
			c0-0.554-0.014-0.996-0.039-1.328c-0.088-0.977-0.508-1.465-1.258-1.465c-0.752,0-1.223,0.261-1.416,0.781l0.131,7.08l-3.078,0.02
			c0-2.995-0.135-6.357-0.406-10.088L421.593,4.521z"/>
		<path fill="#331842" d="M434.55,4.492c2.873,0.117,4.311,1.194,4.311,3.232v6.934l-3.053,0.039l-0.105-0.928
			c-0.629,0.534-1.463,0.801-2.502,0.801c-0.445,0-0.926-0.052-1.441-0.156c-1.545-0.286-2.316-1.179-2.316-2.676
			c0-0.183,0.012-0.378,0.039-0.586c0.174-1.543,1.645-2.314,4.414-2.314c0.531,0,1.117,0.029,1.756,0.088V7.793
			c0-0.918-0.391-1.377-1.166-1.377h-0.053c-0.062-0.007-0.117-0.01-0.172-0.01c-0.846,0-1.27,0.515-1.27,1.543v0.146L429.873,7.9
			c0-2.272,1.467-3.408,4.402-3.408H434.55z M435.65,12.207v-1.719c-0.375-0.059-0.717-0.088-1.021-0.088
			c-0.795,0-1.336,0.198-1.625,0.596c-0.174,0.241-0.262,0.466-0.262,0.674c0,0.261,0.141,0.491,0.42,0.693
			c0.217,0.156,0.502,0.234,0.852,0.234C434.458,12.598,435.003,12.468,435.65,12.207z"/>
		<path fill="#331842" d="M443.589,14.639l-3.262,0.225c0.033-2.155,0.051-4.229,0.051-6.221c0-2.8-0.033-5.439-0.104-7.92
			l3.211-0.039c-0.035,1.595-0.055,3.232-0.055,4.912C443.431,8.493,443.484,11.507,443.589,14.639z"/>
		<path fill="#331842" d="M448.974,4.775c3.029,0,4.545,1.501,4.545,4.502c0,0.364-0.021,0.755-0.064,1.172h-5.855
			c0,1.673,0.434,2.51,1.297,2.51h0.092c0.76-0.046,1.141-0.479,1.141-1.299c0-0.176-0.018-0.371-0.053-0.586l3.117-0.049
			c0,2.48-1.453,3.737-4.361,3.77c-0.035,0.007-0.066,0.01-0.092,0.01c-2.77,0-4.152-1.565-4.152-4.697V9.814
			C444.671,6.455,446.134,4.775,448.974,4.775z M447.283,8.652h2.961V8.418c0-1.185-0.449-1.777-1.35-1.777
			C447.925,6.641,447.388,7.312,447.283,8.652z"/>
		<path fill="#331842" d="M454.345,11.338l3-0.107v0.127c0,1.003,0.414,1.511,1.244,1.523h0.053c0.803,0,1.205-0.29,1.205-0.869
			v-0.068c-0.035-0.638-0.828-1.152-2.379-1.543c-1.549-0.391-2.48-1.048-2.797-1.973c-0.113-0.325-0.17-0.638-0.17-0.938
			c0-0.547,0.188-1.055,0.564-1.523c0.574-0.716,1.447-1.126,2.617-1.23c0.314-0.026,0.621-0.039,0.918-0.039
			c0.777,0,1.463,0.101,2.059,0.303c0.811,0.28,1.375,0.681,1.688,1.201c0.211,0.358,0.314,0.755,0.314,1.191
			c0,0.208-0.021,0.423-0.064,0.645l-2.805,0.049c0.027-0.163,0.039-0.312,0.039-0.449c0-0.651-0.279-0.999-0.838-1.045
			c-0.062-0.007-0.123-0.01-0.184-0.01c-0.576,0-0.965,0.218-1.166,0.654c-0.07,0.149-0.104,0.286-0.104,0.41
			c0,0.306,0.191,0.569,0.576,0.791c0.541,0.312,1.342,0.63,2.402,0.952c1.062,0.322,1.775,0.871,2.143,1.646
			c0.131,0.293,0.197,0.586,0.197,0.879c0,0.495-0.193,0.993-0.576,1.494c-0.611,0.801-1.561,1.267-2.844,1.396
			c-0.279,0.032-0.555,0.049-0.824,0.049c-0.961,0-1.854-0.186-2.674-0.557C454.894,13.821,454.363,12.835,454.345,11.338z"/>
		<path fill="#331842" d="M478.593,0.986c-0.053,2.2-0.078,4.509-0.078,6.924c0,2.2,0.021,4.492,0.066,6.875l-3.105,0.01
			l-0.104-1.494c-0.646,0.723-1.508,1.084-2.582,1.084c-2.682,0-4.021-1.53-4.021-4.59c0-0.065,0.006-0.13,0.014-0.195
			c0.053-3.066,1.381-4.6,3.982-4.6c0.104,0,0.213,0.003,0.326,0.01c0.893,0.039,1.611,0.4,2.162,1.084
			c0-1.445-0.047-3.147-0.145-5.107L478.593,0.986L478.593,0.986z M475.318,11.299l-0.064-3.379
			c-0.508-0.515-1.027-0.771-1.559-0.771c-0.221,0-0.439,0.042-0.656,0.127c-0.689,0.267-1.035,1.016-1.035,2.246
			c0,0.144,0.006,0.29,0.014,0.439c0.088,1.491,0.533,2.278,1.338,2.363c0.076,0.007,0.156,0.01,0.234,0.01
			C474.289,12.334,474.865,11.989,475.318,11.299z"/>
		<path fill="#331842" d="M483.886,4.775c3.031,0,4.547,1.501,4.547,4.502c0,0.364-0.021,0.755-0.066,1.172h-5.855
			c0,1.673,0.434,2.51,1.297,2.51h0.094c0.76-0.046,1.139-0.479,1.139-1.299c0-0.176-0.018-0.371-0.053-0.586l3.119-0.049
			c0,2.48-1.455,3.737-4.363,3.77c-0.035,0.007-0.064,0.01-0.092,0.01c-2.77,0-4.152-1.565-4.152-4.697V9.814
			C479.585,6.455,481.048,4.775,483.886,4.775z M482.197,8.652h2.961V8.418c0-1.185-0.451-1.777-1.352-1.777
			C482.837,6.641,482.3,7.312,482.197,8.652z"/>
		<path fill="#331842" d="M494.615,8.564l3.445-0.176c-0.01,0.188-0.014,0.368-0.014,0.537c0,1.452,0.236,2.331,0.707,2.637
			c0.289,0.202,0.6,0.303,0.932,0.303c0.262,0,0.531-0.059,0.812-0.176c0.609-0.254,0.916-1.143,0.916-2.666V8.799
			c-0.035-1.66-0.131-4.355-0.289-8.086l3.734-0.166c0.061,1.829,0.092,3.444,0.092,4.844c0,3.483-0.191,5.654-0.576,6.514
			c-0.541,1.218-1.432,1.973-2.672,2.266c-0.744,0.176-1.463,0.264-2.162,0.264c-0.473,0-0.936-0.042-1.389-0.127
			c-1.127-0.195-1.955-0.617-2.482-1.265c-0.529-0.648-0.842-1.333-0.938-2.056c-0.078-0.605-0.117-1.276-0.117-2.012V8.564
			L494.615,8.564z"/>
		<path fill="#331842" d="M513.048,14.805l-0.131-1.592c-0.367,0.847-1.354,1.272-2.961,1.279c-0.018,0.007-0.031,0.01-0.039,0.01
			c-1.59,0-2.643-0.534-3.158-1.602c-0.35-0.71-0.523-2.178-0.523-4.404c0-1.146,0.049-2.497,0.145-4.053h3.186
			c-0.176,2.188-0.264,3.87-0.264,5.049c0,0.593,0.021,1.055,0.064,1.387c0.133,1.016,0.572,1.523,1.324,1.523
			c0.75,0,1.223-0.264,1.414-0.791l-0.131-6.777l3.078-0.02c0,2.8,0.137,6.062,0.406,9.785L513.048,14.805z"/>
		<path fill="#331842" d="M516.388,11.338l3-0.107v0.127c0,1.003,0.416,1.511,1.246,1.523h0.051c0.805,0,1.207-0.29,1.207-0.869
			v-0.068c-0.035-0.638-0.828-1.152-2.379-1.543c-1.551-0.391-2.482-1.048-2.797-1.973c-0.113-0.325-0.17-0.638-0.17-0.938
			c0-0.547,0.188-1.055,0.562-1.523c0.576-0.716,1.449-1.126,2.619-1.23c0.314-0.026,0.621-0.039,0.918-0.039
			c0.777,0,1.463,0.101,2.057,0.303c0.812,0.28,1.377,0.681,1.689,1.201c0.209,0.358,0.314,0.755,0.314,1.191
			c0,0.208-0.021,0.423-0.066,0.645l-2.803,0.049c0.025-0.163,0.039-0.312,0.039-0.449c0-0.651-0.279-0.999-0.838-1.045
			c-0.062-0.007-0.123-0.01-0.184-0.01c-0.576,0-0.967,0.218-1.166,0.654c-0.07,0.149-0.105,0.286-0.105,0.41
			c0,0.306,0.193,0.569,0.578,0.791c0.541,0.312,1.342,0.63,2.402,0.952c1.062,0.322,1.775,0.871,2.143,1.646
			c0.131,0.293,0.197,0.586,0.197,0.879c0,0.495-0.193,0.993-0.578,1.494c-0.611,0.801-1.559,1.267-2.842,1.396
			c-0.279,0.032-0.555,0.049-0.826,0.049c-0.961,0-1.852-0.186-2.672-0.557C516.939,13.821,516.406,12.835,516.388,11.338z"/>
		<path fill="#331842" d="M528.035,1.66l2.975-0.146v3.232l2.502-0.049l0.039,1.846l-2.541,0.088v4.443
			c0,1.035,0.59,1.553,1.77,1.553c0.244,0,0.51-0.022,0.799-0.068l-0.117,2.148c-0.42,0.039-0.818,0.059-1.193,0.059
			c-2.76,0-4.166-1.062-4.219-3.184V6.807l-2.146,0.098l-0.053-2.178l2.199,0.02L528.035,1.66z"/>
		<path fill="#331842" d="M538.306,2.529c0,0.397-0.188,0.735-0.562,1.016c-0.375,0.28-0.83,0.42-1.363,0.42
			c-0.521,0-0.973-0.14-1.348-0.42c-0.377-0.28-0.564-0.618-0.564-1.016c0-0.391,0.189-0.726,0.564-1.006
			c0.375-0.28,0.824-0.42,1.348-0.42c0.533,0,0.988,0.14,1.363,0.42C538.119,1.804,538.306,2.139,538.306,2.529z M534.794,14.854
			c-0.061-3.809-0.09-7.1-0.09-9.873l3.301-0.146c-0.104,2.656-0.158,5.296-0.158,7.92c0,0.703,0.006,1.403,0.014,2.1
			L534.794,14.854L534.794,14.854z"/>
		<path fill="#331842" d="M544.384,10.781l3.119,0.146c0,2.351-1.455,3.542-4.363,3.574c-0.033,0.007-0.064,0.01-0.092,0.01
			c-2.768,0-4.152-1.565-4.152-4.697V9.521c0.088-3.359,1.562-5.056,4.428-5.088h0.105c2.637,0,3.955,1.126,3.955,3.379
			c0,0.13-0.004,0.261-0.012,0.391l-2.816,0.156V8.125c0-1.185-0.449-1.777-1.35-1.777c-0.918,0-1.377,0.96-1.377,2.881v0.322
			c0.053,2.077,0.516,3.115,1.389,3.115h0.08c0.76-0.046,1.141-0.479,1.141-1.299C544.439,11.191,544.419,10.996,544.384,10.781z"/>
		<path fill="#331842" d="M552.259,2.529c0,0.397-0.188,0.735-0.562,1.016c-0.377,0.28-0.83,0.42-1.363,0.42
			c-0.523,0-0.975-0.14-1.35-0.42c-0.375-0.28-0.562-0.618-0.562-1.016c0-0.391,0.188-0.726,0.562-1.006
			c0.375-0.28,0.824-0.42,1.35-0.42c0.533,0,0.986,0.14,1.363,0.42C552.07,1.804,552.259,2.139,552.259,2.529z M548.748,14.854
			c-0.061-3.809-0.092-7.1-0.092-9.873l3.301-0.146c-0.104,2.656-0.156,5.296-0.156,7.92c0,0.703,0.004,1.403,0.014,2.1
			L548.748,14.854L548.748,14.854z"/>
		<path fill="#331842" d="M558.048,4.492c2.873,0.117,4.311,1.194,4.311,3.232v6.934l-3.053,0.039l-0.104-0.928
			c-0.629,0.534-1.463,0.801-2.502,0.801c-0.445,0-0.926-0.052-1.441-0.156c-1.547-0.286-2.318-1.179-2.318-2.676
			c0-0.183,0.014-0.378,0.039-0.586c0.176-1.543,1.646-2.314,4.416-2.314c0.531,0,1.117,0.029,1.756,0.088V7.793
			c0-0.918-0.391-1.377-1.166-1.377h-0.055c-0.061-0.007-0.115-0.01-0.17-0.01c-0.848,0-1.27,0.515-1.27,1.543v0.146L553.373,7.9
			c0-2.272,1.467-3.408,4.4-3.408H558.048z M559.15,12.207v-1.719c-0.377-0.059-0.719-0.088-1.021-0.088
			c-0.795,0-1.338,0.198-1.625,0.596c-0.176,0.241-0.262,0.466-0.262,0.674c0,0.261,0.139,0.491,0.418,0.693
			c0.219,0.156,0.502,0.234,0.852,0.234C557.957,12.598,558.503,12.468,559.15,12.207z"/>
		<path fill="#331842" d="M568.267,4.736l3.434-0.205c-0.078,1.953-0.119,3.562-0.119,4.824c0,0.476,0.01,0.901,0.027,1.279
			c0.033,1.394,0.453,2.109,1.258,2.148c0.053,0.007,0.1,0.01,0.145,0.01c0.717,0,1.17-0.306,1.361-0.918
			c0.105-0.358,0.158-1.208,0.158-2.549c0-1.074-0.035-2.461-0.105-4.16l3.225-0.176c0.033,1.985,0.051,3.691,0.051,5.117
			c0,1.777-0.025,3.118-0.078,4.023c-0.088,1.628-0.711,2.864-1.873,3.711c-1.049,0.769-2.52,1.152-4.414,1.152
			c-0.219,0-0.441-0.007-0.668-0.02l-0.367-2.383c0.166,0.007,0.326,0.01,0.484,0.01c1.467,0,2.471-0.192,3.014-0.576
			c0.559-0.397,0.838-1.035,0.838-1.914v-0.156c-0.498,0.586-1.262,0.879-2.293,0.879h-0.184c-1.127-0.039-2-0.369-2.619-0.991
			c-0.621-0.622-0.959-1.494-1.016-2.617C568.466,10.101,568.38,7.939,568.267,4.736z"/>
		<path fill="#331842" d="M583.91,14.512c0.053-1.712,0.078-3.464,0.078-5.254c0-2.747-0.062-5.593-0.184-8.535
			c1.492-0.156,2.812-0.234,3.955-0.234c1.799,0,3.152,0.195,4.062,0.586c1.406,0.605,2.107,1.846,2.107,3.721v0.322
			c-0.086,2.058-0.711,3.374-1.873,3.95c-1.16,0.576-2.594,0.884-4.297,0.923c-0.008,0.202-0.014,0.41-0.014,0.625
			c0,1.081,0.074,2.36,0.225,3.838L583.91,14.512z M587.263,2.988l0.092,4.775c1.625-0.065,2.576-0.498,2.855-1.299
			c0.131-0.364,0.197-0.739,0.197-1.123c0-0.449-0.088-0.911-0.264-1.387c-0.262-0.696-0.918-1.045-1.965-1.045
			C587.9,2.91,587.595,2.937,587.263,2.988z"/>
		<path fill="#331842" d="M600.285,4.492c2.873,0.117,4.311,1.194,4.311,3.232v6.934l-3.053,0.039l-0.104-0.928
			c-0.631,0.534-1.465,0.801-2.504,0.801c-0.443,0-0.926-0.052-1.439-0.156c-1.547-0.286-2.318-1.179-2.318-2.676
			c0-0.183,0.014-0.378,0.039-0.586c0.174-1.543,1.646-2.314,4.414-2.314c0.533,0,1.119,0.029,1.756,0.088V7.793
			c0-0.918-0.389-1.377-1.166-1.377h-0.053c-0.061-0.007-0.117-0.01-0.17-0.01c-0.848,0-1.271,0.515-1.271,1.543v0.146L595.609,7.9
			c0-2.272,1.467-3.408,4.4-3.408H600.285z M601.386,12.207v-1.719c-0.377-0.059-0.717-0.088-1.021-0.088
			c-0.795,0-1.336,0.198-1.625,0.596c-0.174,0.241-0.262,0.466-0.262,0.674c0,0.261,0.139,0.491,0.42,0.693
			c0.217,0.156,0.502,0.234,0.852,0.234C600.193,12.598,600.74,12.468,601.386,12.207z"/>
		<path fill="#331842" d="M605.708,4.727c0.768,0.013,1.629,0.02,2.58,0.02c1.529,0,3.297-0.017,5.307-0.049l0.064,1.992
			l-4.662,5.859h4.662l-0.039,2.139c-2.191,0-4.859,0.032-8.004,0.098l-0.105-1.895L610.4,6.69c-1.564,0-3.105,0.042-4.625,0.127
			L605.708,4.727z"/>
		<path fill="#331842" d="M224.6,24.117c-0.157,3.392-0.236,6.299-0.236,8.721c0,0.964,0.014,1.853,0.04,2.666l5.843-0.215
			l0.091,3.184l-9.354,0.156c0.009-0.859,0.014-1.716,0.014-2.568c0-3.913-0.113-7.806-0.341-11.68L224.6,24.117z"/>
		<path fill="#331842" d="M235.84,28.775c3.03,0,4.546,1.501,4.546,4.502c0,0.364-0.021,0.755-0.065,1.172h-5.856
			c0,1.673,0.433,2.51,1.297,2.51h0.092c0.76-0.046,1.141-0.479,1.141-1.299c0-0.176-0.018-0.371-0.053-0.586l3.117-0.049
			c0,2.48-1.453,3.737-4.361,3.77c-0.035,0.007-0.066,0.01-0.092,0.01c-2.77,0-4.153-1.565-4.153-4.697v-0.293
			C231.538,30.455,233.001,28.775,235.84,28.775z M234.149,32.652h2.961v-0.234c0-1.185-0.449-1.777-1.35-1.777
			C234.792,30.641,234.255,31.312,234.149,32.652z"/>
		<path fill="#331842" d="M241.342,28.736l3.433-0.205c-0.078,1.953-0.118,3.562-0.118,4.824c0,0.476,0.009,0.901,0.026,1.279
			c0.035,1.394,0.454,2.109,1.258,2.148c0.053,0.007,0.101,0.01,0.145,0.01c0.716,0,1.17-0.306,1.362-0.918
			c0.104-0.358,0.157-1.208,0.157-2.549c0-1.074-0.035-2.461-0.105-4.16l3.223-0.176c0.035,1.985,0.053,3.691,0.053,5.117
			c0,1.777-0.026,3.118-0.078,4.023c-0.088,1.628-0.713,2.864-1.874,3.711c-1.048,0.769-2.52,1.152-4.415,1.152
			c-0.218,0-0.44-0.007-0.668-0.02l-0.367-2.383c0.166,0.007,0.328,0.01,0.485,0.01c1.468,0,2.472-0.192,3.013-0.576
			c0.56-0.397,0.839-1.035,0.839-1.914v-0.156c-0.498,0.586-1.263,0.879-2.293,0.879h-0.183c-1.127-0.039-2-0.369-2.621-0.991
			c-0.619-0.622-0.958-1.494-1.015-2.617C241.54,34.103,241.456,31.939,241.342,28.736z"/>
		<path fill="#331842" d="M263.967,31.783c-0.682,0.957-1.669,1.436-2.961,1.436c-0.009,0-0.013-0.003-0.013-0.01
			c-1.311,0-2.328-0.354-3.053-1.06s-1.105-1.685-1.14-2.935c-0.009-0.091-0.013-0.186-0.013-0.283c0-1.126,0.213-2.109,0.642-2.949
			c0.463-0.911,1.188-1.521,2.175-1.826c0.725-0.222,1.48-0.332,2.266-0.332c0.289,0,0.581,0.017,0.878,0.049
			c1.109,0.11,2.022,0.521,2.738,1.23c0.716,0.709,1.231,1.65,1.546,2.822c0.236,0.872,0.354,1.846,0.354,2.92
			c0,0.378-0.013,0.762-0.039,1.152c-0.113,1.543-0.38,2.798-0.799,3.765c-0.42,0.967-1.044,1.652-1.874,2.056
			c-0.812,0.403-1.777,0.605-2.895,0.605c-0.026,0-0.053-0.003-0.079-0.01c-1.162-0.007-2.152-0.325-2.974-0.957
			c-0.804-0.612-1.205-1.706-1.205-3.281v-0.146h2.935c-0.018,0.149-0.026,0.293-0.026,0.43c0,0.723,0.262,1.194,0.786,1.416
			c0.253,0.117,0.506,0.176,0.76,0.176c0.35,0,0.689-0.107,1.021-0.322c0.568-0.358,0.887-0.944,0.957-1.758
			c0.034-0.449,0.052-0.872,0.052-1.27C264.006,32.376,263.993,32.069,263.967,31.783z M263.836,29.928
			c0.009-0.222,0.013-0.43,0.013-0.625c0-0.931-0.131-1.628-0.393-2.09c-0.332-0.554-0.773-0.862-1.323-0.928
			c-0.079-0.007-0.153-0.01-0.223-0.01c-0.472,0-0.904,0.179-1.297,0.537c-0.419,0.384-0.629,1.077-0.629,2.08v0.234
			c0.034,1.126,0.532,1.729,1.493,1.807c0.088,0.013,0.179,0.02,0.275,0.02C262.582,30.953,263.276,30.611,263.836,29.928z"/>
		<path fill="#331842" d="M268.683,26.852l0.131-2.441c3.171-0.039,6.219-0.068,9.145-0.088v2.48
			c-2.428,3.711-3.834,7.393-4.219,11.045l-3.104-0.264c0.384-3.535,1.646-7.122,3.786-10.762L268.683,26.852z"/>
		<path fill="#331842" d="M279.046,33.971l3.078-0.195c0,1.426,0.603,2.139,1.808,2.139c1.196,0,1.848-0.427,1.952-1.279
			c0.044-0.397,0.065-0.798,0.065-1.201c0-0.462-0.03-0.928-0.092-1.396c-0.113-0.853-0.585-1.279-1.415-1.279h-0.078
			c-0.891,0.032-1.537,0.55-1.939,1.553l-3.183-0.059l0.366-8.096l8.804-0.117l0.04,2.373l-5.83,0.088l-0.236,3.32
			c0.402-0.866,1.131-1.36,2.188-1.484c0.253-0.032,0.502-0.049,0.746-0.049c0.761,0,1.459,0.149,2.097,0.449
			c0.838,0.391,1.362,1.321,1.572,2.793c0.069,0.501,0.104,0.993,0.104,1.475c0,0.911-0.131,1.774-0.394,2.588
			c-0.401,1.243-1.188,2.015-2.357,2.314c-0.83,0.215-1.664,0.322-2.502,0.322c-0.341,0-0.687-0.02-1.035-0.059
			c-1.188-0.124-2.127-0.505-2.816-1.143c-0.639-0.579-0.957-1.475-0.957-2.686C279.032,34.225,279.036,34.101,279.046,33.971z"/>
		<path fill="#331842" d="M304.774,24.986c-0.052,2.2-0.078,4.509-0.078,6.924c0,2.2,0.021,4.492,0.065,6.875l-3.104,0.01
			l-0.105-1.494c-0.646,0.723-1.506,1.084-2.58,1.084c-2.682,0-4.022-1.53-4.022-4.59c0-0.065,0.005-0.13,0.014-0.195
			c0.052-3.066,1.38-4.6,3.982-4.6c0.104,0,0.214,0.003,0.327,0.01c0.891,0.039,1.611,0.4,2.162,1.084
			c0-1.445-0.049-3.147-0.145-5.107L304.774,24.986L304.774,24.986z M301.5,35.299l-0.065-3.379
			c-0.507-0.515-1.026-0.771-1.559-0.771c-0.219,0-0.438,0.042-0.655,0.127c-0.69,0.267-1.035,1.016-1.035,2.246
			c0,0.144,0.004,0.29,0.013,0.439c0.088,1.491,0.533,2.278,1.336,2.363c0.079,0.007,0.158,0.01,0.236,0.01
			C300.47,36.334,301.046,35.989,301.5,35.299z"/>
		<path fill="#331842" d="M310.067,28.775c3.03,0,4.546,1.501,4.546,4.502c0,0.364-0.021,0.755-0.065,1.172h-5.854
			c0,1.673,0.432,2.51,1.297,2.51h0.092c0.76-0.046,1.14-0.479,1.14-1.299c0-0.176-0.018-0.371-0.053-0.586l3.118-0.049
			c0,2.48-1.454,3.737-4.362,3.77c-0.035,0.007-0.064,0.01-0.092,0.01c-2.77,0-4.153-1.565-4.153-4.697v-0.293
			C305.767,30.455,307.229,28.775,310.067,28.775z M308.378,32.652h2.961v-0.234c0-1.185-0.45-1.777-1.35-1.777
			C309.02,30.641,308.482,31.312,308.378,32.652z"/>
		<path fill="#331842" d="M320.901,29.02c-0.043-0.391-0.065-0.752-0.065-1.084c0-1.165,0.284-2.005,0.853-2.52
			c0.726-0.657,1.65-1.052,2.776-1.182c0.401-0.046,0.795-0.068,1.179-0.068c0.69,0,1.354,0.071,1.992,0.215
			c0.995,0.228,1.746,0.677,2.253,1.348c0.41,0.56,0.616,1.276,0.616,2.148c0,0.169-0.005,0.349-0.014,0.537
			c-0.104,1.12-0.558,2.15-1.355,3.091s-2.182,2.287-4.146,4.038l5.725,0.029l-0.039,2.451c-2.507,0.085-5.738,0.127-9.693,0.127
			l-0.303-2.666c2.376-1.914,4.07-3.386,5.083-4.414c0.926-0.944,1.39-1.872,1.39-2.783v-0.244c-0.097-0.977-0.646-1.465-1.65-1.465
			h-0.052c-0.874,0.02-1.312,0.612-1.312,1.777c0,0.222,0.014,0.459,0.039,0.713L320.901,29.02z"/>
		<path fill="#331842" d="M337.408,24.215c3.45,0,5.175,2.344,5.175,7.031c0,4.694-1.848,7.041-5.541,7.041
			c-3.695,0-5.542-2.432-5.542-7.295C331.5,26.474,333.47,24.215,337.408,24.215z M335.05,31.314
			c-0.008,0.176-0.013,0.345-0.013,0.508c0,2.571,0.712,3.857,2.136,3.857c1.502,0,2.253-1.455,2.253-4.365
			s-0.703-4.365-2.108-4.365C335.911,26.949,335.155,28.404,335.05,31.314z"/>
		<path fill="#331842" d="M349.146,24.215c3.45,0,5.176,2.344,5.176,7.031c0,4.694-1.849,7.041-5.542,7.041
			c-3.694,0-5.541-2.432-5.541-7.295C343.238,26.474,345.208,24.215,349.146,24.215z M346.788,31.314
			c-0.009,0.176-0.013,0.345-0.013,0.508c0,2.571,0.712,3.857,2.136,3.857c1.502,0,2.253-1.455,2.253-4.365
			s-0.703-4.365-2.109-4.365C347.649,26.949,346.894,28.404,346.788,31.314z"/>
		<path fill="#331842" d="M355.016,33.971l3.078-0.195c0,1.426,0.604,2.139,1.809,2.139c1.197,0,1.847-0.427,1.953-1.279
			c0.043-0.397,0.064-0.798,0.064-1.201c0-0.462-0.031-0.928-0.092-1.396c-0.113-0.853-0.586-1.279-1.415-1.279h-0.079
			c-0.891,0.032-1.537,0.55-1.938,1.553l-3.184-0.059l0.367-8.096l8.803-0.117l0.039,2.373l-5.83,0.088l-0.234,3.32
			c0.4-0.866,1.131-1.36,2.187-1.484c0.254-0.032,0.502-0.049,0.746-0.049c0.762,0,1.459,0.149,2.098,0.449
			c0.838,0.391,1.361,1.321,1.572,2.793c0.068,0.501,0.104,0.993,0.104,1.475c0,0.911-0.131,1.774-0.393,2.588
			c-0.402,1.243-1.188,2.015-2.357,2.314c-0.83,0.215-1.664,0.322-2.503,0.322c-0.341,0-0.687-0.02-1.034-0.059
			c-1.188-0.124-2.127-0.505-2.816-1.143c-0.638-0.579-0.957-1.475-0.957-2.686C355.002,34.225,355.007,34.101,355.016,33.971z"/>
		<path fill="#331842" d="M372.951,28.57l0.053,1.562c0.471-0.749,1.018-1.214,1.637-1.396c0.367-0.104,0.738-0.156,1.113-0.156
			c0.279,0,0.561,0.026,0.838,0.078c0.684,0.13,1.166,0.651,1.455,1.562c0.229-0.71,0.619-1.184,1.18-1.421
			c0.559-0.237,1.18-0.359,1.859-0.366h0.053c0.664,0,1.303,0.12,1.912,0.361c0.621,0.247,1.096,0.711,1.422,1.392
			c0.328,0.681,0.5,1.613,0.518,2.798v5.674l-2.828,0.049c0.113-2.142,0.17-3.965,0.17-5.469c0-1.504-0.385-2.314-1.154-2.432
			c-0.111-0.013-0.223-0.02-0.326-0.02c-0.611,0-1.084,0.293-1.416,0.879c-0.051,0.677-0.076,1.468-0.076,2.373
			c0,1.23,0.047,2.666,0.145,4.307l-3.275,0.02c0.121-2.52,0.184-4.354,0.184-5.508V32.74c-0.01-1.14-0.311-1.738-0.904-1.797h-0.17
			c-0.533,0-1.049,0.228-1.547,0.684l0.027,7.148l-3.094,0.088v-1.602c0-2.839-0.057-5.674-0.17-8.506L372.951,28.57z"/>
		<path fill="#331842" d="M390.386,28.775c2.971,0,4.455,1.536,4.455,4.609c0,0.124-0.004,0.247-0.014,0.371
			c-0.121,3.327-1.703,5.007-4.742,5.039c-0.035,0.007-0.07,0.01-0.104,0.01c-2.893,0-4.338-1.572-4.338-4.717v-0.273
			C385.732,30.455,387.312,28.775,390.386,28.775z M389.955,31.002c-0.551,0.144-0.926,0.674-1.127,1.592
			c-0.121,0.547-0.184,1.097-0.184,1.65c0,0.371,0.025,0.745,0.078,1.123c0.141,0.938,0.59,1.423,1.35,1.455h0.092
			c0.709,0,1.193-0.349,1.455-1.045c0.219-0.579,0.328-1.267,0.328-2.061c0-0.195-0.006-0.394-0.016-0.596
			c-0.068-1.048-0.277-1.702-0.629-1.963c-0.219-0.156-0.479-0.234-0.785-0.234C390.343,30.924,390.156,30.95,389.955,31.002z"/>
		<path fill="#331842" d="M405.466,24.986c-0.053,2.2-0.08,4.509-0.08,6.924c0,2.2,0.023,4.492,0.066,6.875l-3.105,0.01
			l-0.104-1.494c-0.646,0.723-1.506,1.084-2.58,1.084c-2.682,0-4.023-1.53-4.023-4.59c0-0.065,0.006-0.13,0.016-0.195
			c0.053-3.066,1.379-4.6,3.98-4.6c0.105,0,0.215,0.003,0.328,0.01c0.893,0.039,1.611,0.4,2.162,1.084
			c0-1.445-0.049-3.147-0.145-5.107L405.466,24.986L405.466,24.986z M402.191,35.299l-0.066-3.379
			c-0.506-0.515-1.025-0.771-1.559-0.771c-0.219,0-0.438,0.042-0.654,0.127c-0.691,0.267-1.035,1.016-1.035,2.246
			c0,0.144,0.004,0.29,0.014,0.439c0.086,1.491,0.531,2.278,1.336,2.363c0.078,0.007,0.156,0.01,0.234,0.01
			C401.16,36.334,401.736,35.989,402.191,35.299z"/>
		<path fill="#331842" d="M410.169,26.529c0,0.397-0.188,0.735-0.562,1.016c-0.375,0.281-0.83,0.42-1.363,0.42
			c-0.523,0-0.975-0.14-1.35-0.42c-0.375-0.28-0.562-0.618-0.562-1.016c0-0.391,0.188-0.726,0.562-1.006
			c0.375-0.28,0.824-0.42,1.35-0.42c0.533,0,0.986,0.14,1.363,0.42C409.982,25.803,410.169,26.139,410.169,26.529z M406.658,38.854
			c-0.062-3.809-0.092-7.1-0.092-9.873l3.301-0.146c-0.104,2.656-0.156,5.296-0.156,7.92c0,0.703,0.004,1.403,0.014,2.1
			L406.658,38.854L406.658,38.854z"/>
		<path fill="#331842" d="M412.802,29.127c-0.018-0.176-0.025-0.354-0.025-0.537c0-0.612,0.082-1.24,0.248-1.885
			c0.201-0.84,0.812-1.511,1.834-2.012c0.76-0.378,1.721-0.566,2.883-0.566c0.385,0,0.795,0.022,1.23,0.068l-0.025,2.139
			c-0.262-0.026-0.506-0.039-0.734-0.039c-0.725,0-1.256,0.134-1.598,0.4c-0.375,0.28-0.562,0.827-0.562,1.641
			c0,0.195,0.014,0.41,0.039,0.645l2.803-0.029v1.982l-2.881,0.137c0.068,2.136,0.104,4.153,0.104,6.055
			c0,0.573-0.004,1.133-0.012,1.68l-3.328,0.107c0.025-2.168,0.068-4.733,0.131-7.695l-2.123,0.078l-0.053-2.1L412.802,29.127z"/>
		<path fill="#331842" d="M423.714,26.529c0,0.397-0.188,0.735-0.562,1.016c-0.375,0.28-0.83,0.42-1.361,0.42
			c-0.525,0-0.975-0.14-1.35-0.42c-0.377-0.28-0.564-0.618-0.564-1.016c0-0.391,0.189-0.726,0.564-1.006
			c0.375-0.28,0.824-0.42,1.35-0.42c0.531,0,0.986,0.14,1.361,0.42C423.527,25.804,423.714,26.139,423.714,26.529z M420.205,38.854
			c-0.062-3.809-0.092-7.1-0.092-9.873l3.301-0.146c-0.105,2.656-0.158,5.296-0.158,7.92c0,0.703,0.006,1.403,0.014,2.1
			L420.205,38.854L420.205,38.854z"/>
		<path fill="#331842" d="M429.792,34.781l3.119,0.146c0,2.351-1.455,3.542-4.363,3.574c-0.035,0.007-0.064,0.01-0.092,0.01
			c-2.768,0-4.152-1.565-4.152-4.697v-0.293c0.088-3.359,1.562-5.056,4.43-5.088h0.104c2.637,0,3.955,1.126,3.955,3.379
			c0,0.13-0.004,0.261-0.012,0.391l-2.816,0.156v-0.234c0-1.185-0.451-1.777-1.35-1.777c-0.918,0-1.375,0.96-1.375,2.881v0.322
			c0.051,2.077,0.514,3.115,1.389,3.115h0.078c0.76-0.046,1.139-0.479,1.139-1.299C429.845,35.191,429.828,34.996,429.792,34.781z"
			/>
		<path fill="#331842" d="M439.068,28.492c2.875,0.117,4.311,1.194,4.311,3.232v6.934l-3.053,0.039l-0.104-0.928
			c-0.629,0.534-1.463,0.801-2.502,0.801c-0.445,0-0.926-0.052-1.441-0.156c-1.545-0.286-2.318-1.179-2.318-2.676
			c0-0.183,0.014-0.378,0.039-0.586c0.174-1.543,1.646-2.314,4.414-2.314c0.533,0,1.119,0.029,1.756,0.088v-1.133
			c0-0.918-0.389-1.377-1.166-1.377h-0.053c-0.061-0.007-0.117-0.01-0.17-0.01c-0.848,0-1.271,0.515-1.271,1.543v0.146l-3.117-0.195
			c0-2.272,1.467-3.408,4.402-3.408H439.068z M440.169,36.207v-1.719c-0.375-0.059-0.717-0.088-1.021-0.088
			c-0.795,0-1.338,0.198-1.625,0.596c-0.176,0.241-0.262,0.466-0.262,0.674c0,0.261,0.141,0.491,0.418,0.693
			c0.221,0.156,0.504,0.234,0.854,0.234C438.976,36.598,439.523,36.468,440.169,36.207z"/>
		<path fill="#331842" d="M454.332,24.986c-0.053,2.2-0.08,4.509-0.08,6.924c0,2.2,0.021,4.492,0.066,6.875l-3.105,0.01
			l-0.104-1.494c-0.646,0.723-1.508,1.084-2.58,1.084c-2.684,0-4.023-1.53-4.023-4.59c0-0.065,0.006-0.13,0.014-0.195
			c0.055-3.066,1.381-4.6,3.982-4.6c0.105,0,0.215,0.003,0.328,0.01c0.891,0.039,1.611,0.4,2.162,1.084
			c0-1.445-0.049-3.147-0.146-5.107L454.332,24.986L454.332,24.986z M451.056,35.299l-0.064-3.379
			c-0.508-0.515-1.027-0.771-1.561-0.771c-0.219,0-0.438,0.042-0.654,0.127c-0.689,0.267-1.035,1.016-1.035,2.246
			c0,0.144,0.004,0.29,0.014,0.439c0.086,1.491,0.533,2.278,1.336,2.363c0.078,0.007,0.156,0.01,0.236,0.01
			C450.025,36.334,450.601,35.989,451.056,35.299z"/>
		<path fill="#331842" d="M460.435,28.492c2.873,0.117,4.311,1.194,4.311,3.232v6.934l-3.051,0.039l-0.105-0.928
			c-0.629,0.534-1.463,0.801-2.502,0.801c-0.445,0-0.926-0.052-1.439-0.156c-1.549-0.286-2.32-1.179-2.32-2.676
			c0-0.183,0.014-0.378,0.039-0.586c0.176-1.543,1.646-2.314,4.416-2.314c0.533,0,1.117,0.029,1.756,0.088v-1.133
			c0-0.918-0.389-1.377-1.166-1.377h-0.053c-0.062-0.007-0.117-0.01-0.17-0.01c-0.85,0-1.271,0.515-1.271,1.543v0.146l-3.117-0.195
			c0-2.272,1.467-3.408,4.4-3.408H460.435z M461.537,36.207v-1.719c-0.377-0.059-0.717-0.088-1.021-0.088
			c-0.795,0-1.338,0.198-1.625,0.596c-0.176,0.241-0.262,0.466-0.262,0.674c0,0.261,0.139,0.491,0.418,0.693
			c0.219,0.156,0.502,0.234,0.854,0.234C460.343,36.598,460.89,36.468,461.537,36.207z"/>
		<path fill="#331842" d="M470.759,42.701c0.053-2.194,0.078-4.528,0.078-7.002c0-2.253-0.021-4.616-0.064-7.09l3.104-0.01
			l0.105,1.504c0.645-0.729,1.506-1.094,2.58-1.094c2.682,0,4.021,1.579,4.021,4.736v0.195c-0.062,3.164-1.398,4.746-4.01,4.746
			c-0.104,0-0.209-0.003-0.314-0.01c-0.891-0.032-1.609-0.395-2.16-1.084c0,1.445,0.049,3.147,0.145,5.107h-3.484V42.701z
			 M474.035,32.105l0.064,3.672c0.506,0.515,1.018,0.771,1.531,0.771c0.211,0,0.42-0.046,0.629-0.137
			c0.639-0.261,0.957-1.038,0.957-2.334c0-0.156-0.004-0.319-0.014-0.488c-0.088-1.589-0.51-2.425-1.271-2.51
			c-0.078-0.007-0.152-0.01-0.223-0.01C475.046,31.07,474.488,31.415,474.035,32.105z"/>
		<path fill="#331842" d="M486.23,28.775c2.971,0,4.453,1.536,4.453,4.609c0,0.124-0.004,0.247-0.014,0.371
			c-0.121,3.327-1.701,5.007-4.742,5.039c-0.035,0.007-0.068,0.01-0.104,0.01c-2.891,0-4.336-1.572-4.336-4.717v-0.273
			C481.576,30.455,483.156,28.775,486.23,28.775z M485.798,31.002c-0.551,0.144-0.926,0.674-1.127,1.592
			c-0.123,0.547-0.184,1.097-0.184,1.65c0,0.371,0.025,0.745,0.078,1.123c0.141,0.938,0.59,1.423,1.35,1.455h0.092
			c0.707,0,1.193-0.349,1.455-1.045c0.219-0.579,0.326-1.267,0.326-2.061c0-0.195-0.004-0.394-0.012-0.596
			c-0.07-1.048-0.279-1.702-0.629-1.963c-0.221-0.156-0.48-0.234-0.787-0.234C486.187,30.924,486,30.95,485.798,31.002z"/>
		<path fill="#331842" d="M494.89,31.803l0.131,7.08l-3.209,0.02c0-2.995-0.137-6.357-0.406-10.088l2.41-0.195l0.131,1.592
			c0.367-0.781,1.223-1.228,2.568-1.338c0.199-0.013,0.393-0.02,0.576-0.02c1.057,0,1.859,0.257,2.41,0.771
			c0.637,0.612,0.961,1.585,0.969,2.92l-2.906,0.215c0.008-0.11,0.012-0.218,0.012-0.322c0-1.042-0.361-1.562-1.086-1.562h-0.055
			C495.597,30.907,495.082,31.217,494.89,31.803z"/>
		<path fill="#331842" d="M509.916,38.639l-3.262,0.225c0.035-2.155,0.053-4.229,0.053-6.221c0-2.8-0.035-5.439-0.105-7.92
			l3.211-0.039c-0.035,1.595-0.053,3.232-0.053,4.912C509.759,32.493,509.812,35.507,509.916,38.639z"/>
		<path fill="#331842" d="M516.113,28.492c2.873,0.117,4.311,1.194,4.311,3.232v6.934l-3.053,0.039l-0.105-0.928
			c-0.629,0.534-1.463,0.801-2.502,0.801c-0.445,0-0.926-0.052-1.439-0.156c-1.547-0.286-2.32-1.179-2.32-2.676
			c0-0.183,0.014-0.378,0.041-0.586c0.174-1.543,1.646-2.314,4.414-2.314c0.533,0,1.117,0.029,1.756,0.088v-1.133
			c0-0.918-0.389-1.377-1.166-1.377h-0.053c-0.062-0.007-0.117-0.01-0.17-0.01c-0.848,0-1.271,0.515-1.271,1.543v0.146l-3.119-0.195
			c0-2.272,1.469-3.408,4.402-3.408H516.113z M517.212,36.207v-1.719c-0.375-0.059-0.715-0.088-1.02-0.088
			c-0.795,0-1.338,0.198-1.625,0.596c-0.176,0.241-0.264,0.466-0.264,0.674c0,0.261,0.141,0.491,0.42,0.693
			c0.219,0.156,0.502,0.234,0.852,0.234C516.021,36.598,516.566,36.468,517.212,36.207z"/>
		<path fill="#331842" d="M530.406,24.117c-0.158,3.392-0.236,6.299-0.236,8.721c0,0.964,0.014,1.853,0.039,2.666l5.844-0.215
			l0.092,3.184l-9.354,0.156c0.008-0.859,0.012-1.716,0.012-2.568c0-3.913-0.111-7.806-0.34-11.68L530.406,24.117z"/>
		<path fill="#331842" d="M541.646,28.775c3.031,0,4.547,1.501,4.547,4.502c0,0.364-0.021,0.755-0.066,1.172h-5.854
			c0,1.673,0.432,2.51,1.297,2.51h0.092c0.76-0.046,1.139-0.479,1.139-1.299c0-0.176-0.018-0.371-0.053-0.586l3.119-0.049
			c0,2.48-1.455,3.737-4.363,3.77c-0.035,0.007-0.064,0.01-0.092,0.01c-2.768,0-4.152-1.565-4.152-4.697v-0.293
			C537.345,30.455,538.808,28.775,541.646,28.775z M539.957,32.652h2.961v-0.234c0-1.185-0.451-1.777-1.35-1.777
			C540.597,30.641,540.06,31.312,539.957,32.652z"/>
		<path fill="#331842" d="M547.148,28.736l3.432-0.205c-0.078,1.953-0.117,3.562-0.117,4.824c0,0.476,0.008,0.901,0.025,1.279
			c0.035,1.394,0.455,2.109,1.258,2.148c0.053,0.007,0.102,0.01,0.145,0.01c0.717,0,1.17-0.306,1.363-0.918
			c0.104-0.358,0.156-1.208,0.156-2.549c0-1.074-0.035-2.461-0.104-4.16l3.223-0.176c0.035,1.985,0.053,3.691,0.053,5.117
			c0,1.777-0.027,3.118-0.078,4.023c-0.088,1.628-0.713,2.864-1.875,3.711c-1.047,0.769-2.52,1.152-4.414,1.152
			c-0.219,0-0.439-0.007-0.668-0.02l-0.367-2.383c0.166,0.007,0.328,0.01,0.484,0.01c1.469,0,2.473-0.192,3.014-0.576
			c0.561-0.397,0.838-1.035,0.838-1.914v-0.156c-0.498,0.586-1.262,0.879-2.293,0.879h-0.182c-1.127-0.039-2-0.369-2.621-0.991
			c-0.619-0.622-0.959-1.494-1.016-2.617S547.261,31.939,547.148,28.736z"/>
		<path fill="#331842" d="M569.406,24.488c-0.062,3.073-0.092,6.13-0.092,9.17c0,1.523,0.01,3.044,0.025,4.561l-3.25,0.127
			c-0.061-3.913-0.135-7.536-0.223-10.869c-0.732,0.11-1.729,0.384-2.986,0.82l-0.629-2.139l3.643-1.719L569.406,24.488z"/>
		<path fill="#331842" d="M570.335,33.971l3.08-0.195c0,1.426,0.602,2.139,1.807,2.139c1.197,0,1.848-0.427,1.953-1.279
			c0.043-0.397,0.064-0.798,0.064-1.201c0-0.462-0.031-0.928-0.092-1.396c-0.113-0.853-0.584-1.279-1.414-1.279h-0.078
			c-0.893,0.032-1.539,0.55-1.939,1.553l-3.184-0.059l0.367-8.096l8.803-0.117l0.039,2.373l-5.83,0.088l-0.234,3.32
			c0.4-0.866,1.131-1.36,2.188-1.484c0.254-0.032,0.502-0.049,0.748-0.049c0.76,0,1.457,0.149,2.096,0.449
			c0.838,0.391,1.361,1.321,1.572,2.793c0.068,0.501,0.104,0.993,0.104,1.475c0,0.911-0.131,1.774-0.393,2.588
			c-0.402,1.243-1.189,2.015-2.359,2.314c-0.828,0.215-1.662,0.322-2.502,0.322c-0.34,0-0.686-0.02-1.035-0.059
			c-1.188-0.124-2.127-0.505-2.814-1.143c-0.639-0.579-0.957-1.475-0.957-2.686C570.324,34.225,570.328,34.101,570.335,33.971z"/>
		<path fill="#331842" d="M588.468,31.783c-0.682,0.957-1.67,1.436-2.961,1.436c-0.01,0-0.014-0.003-0.014-0.01
			c-1.311,0-2.328-0.354-3.053-1.06c-0.727-0.706-1.105-1.685-1.141-2.935c-0.01-0.091-0.014-0.186-0.014-0.283
			c0-1.126,0.215-2.109,0.643-2.949c0.463-0.911,1.188-1.521,2.176-1.826c0.725-0.222,1.479-0.332,2.266-0.332
			c0.289,0,0.582,0.017,0.879,0.049c1.109,0.11,2.021,0.521,2.738,1.23c0.715,0.71,1.229,1.65,1.545,2.822
			c0.236,0.872,0.354,1.846,0.354,2.92c0,0.378-0.014,0.762-0.041,1.152c-0.111,1.543-0.379,2.798-0.799,3.765
			c-0.418,0.967-1.043,1.652-1.873,2.056c-0.811,0.403-1.775,0.605-2.895,0.605c-0.027,0-0.053-0.003-0.078-0.01
			c-1.162-0.007-2.154-0.325-2.975-0.957c-0.805-0.612-1.205-1.706-1.205-3.281v-0.146h2.934c-0.018,0.149-0.025,0.293-0.025,0.43
			c0,0.723,0.264,1.194,0.785,1.416c0.254,0.117,0.508,0.176,0.762,0.176c0.35,0,0.689-0.107,1.021-0.322
			c0.566-0.358,0.885-0.944,0.955-1.758c0.035-0.449,0.053-0.872,0.053-1.27C588.507,32.376,588.494,32.069,588.468,31.783z
			 M588.335,29.928c0.01-0.222,0.014-0.43,0.014-0.625c0-0.931-0.131-1.628-0.393-2.09c-0.332-0.554-0.773-0.862-1.324-0.928
			c-0.078-0.007-0.15-0.01-0.223-0.01c-0.471,0-0.902,0.179-1.297,0.537c-0.418,0.384-0.629,1.077-0.629,2.08v0.234
			c0.035,1.126,0.533,1.729,1.492,1.807c0.09,0.013,0.182,0.02,0.275,0.02C587.083,30.953,587.777,30.611,588.335,29.928z"/>
		<path fill="#331842" d="M593.289,29.02c-0.045-0.391-0.066-0.752-0.066-1.084c0-1.165,0.285-2.005,0.854-2.52
			c0.725-0.657,1.648-1.052,2.775-1.182c0.402-0.046,0.797-0.068,1.18-0.068c0.689,0,1.354,0.071,1.992,0.215
			c0.994,0.228,1.746,0.677,2.254,1.348c0.408,0.56,0.613,1.276,0.613,2.148c0,0.169-0.004,0.349-0.012,0.537
			c-0.105,1.12-0.557,2.15-1.355,3.091c-0.801,0.94-2.182,2.287-4.146,4.038l5.725,0.029l-0.037,2.451
			c-2.508,0.085-5.738,0.127-9.695,0.127l-0.301-2.666c2.375-1.914,4.068-3.386,5.082-4.414c0.926-0.944,1.389-1.872,1.389-2.783
			v-0.244c-0.096-0.977-0.646-1.465-1.65-1.465h-0.053c-0.873,0.02-1.309,0.612-1.309,1.777c0,0.222,0.012,0.459,0.039,0.713
			L593.289,29.02z"/>
		<path fill="#331842" d="M618.861,24.986c-0.055,2.2-0.078,4.509-0.078,6.924c0,2.2,0.02,4.492,0.064,6.875l-3.105,0.01
			l-0.104-1.494c-0.646,0.723-1.508,1.084-2.582,1.084c-2.68,0-4.02-1.53-4.02-4.59c0-0.065,0.004-0.13,0.012-0.195
			c0.053-3.066,1.381-4.6,3.982-4.6c0.105,0,0.215,0.003,0.328,0.01c0.891,0.039,1.611,0.4,2.162,1.084
			c0-1.445-0.049-3.147-0.145-5.107L618.861,24.986L618.861,24.986z M615.585,35.299l-0.064-3.379
			c-0.508-0.515-1.027-0.771-1.561-0.771c-0.219,0-0.436,0.042-0.654,0.127c-0.689,0.267-1.035,1.016-1.035,2.246
			c0,0.144,0.006,0.29,0.014,0.439c0.088,1.491,0.533,2.278,1.336,2.363c0.078,0.007,0.158,0.01,0.236,0.01
			C614.554,36.334,615.13,35.989,615.585,35.299z"/>
		<path fill="#331842" d="M624.154,28.775c3.029,0,4.545,1.501,4.545,4.502c0,0.364-0.021,0.755-0.064,1.172h-5.855
			c0,1.673,0.432,2.51,1.297,2.51h0.092c0.76-0.046,1.139-0.479,1.139-1.299c0-0.176-0.018-0.371-0.053-0.586l3.119-0.049
			c0,2.48-1.455,3.737-4.363,3.77c-0.035,0.007-0.064,0.01-0.092,0.01c-2.768,0-4.152-1.565-4.152-4.697v-0.293
			C619.851,30.455,621.314,28.775,624.154,28.775z M622.462,32.652h2.961v-0.234c0-1.185-0.449-1.777-1.35-1.777
			C623.105,30.641,622.568,31.312,622.462,32.652z"/>
		<path fill="#331842" d="M634.988,29.02c-0.045-0.391-0.066-0.752-0.066-1.084c0-1.165,0.283-2.005,0.854-2.52
			c0.725-0.657,1.648-1.052,2.775-1.182c0.402-0.046,0.795-0.068,1.18-0.068c0.689,0,1.354,0.071,1.99,0.215
			c0.996,0.228,1.748,0.677,2.254,1.348c0.41,0.56,0.615,1.276,0.615,2.148c0,0.169-0.004,0.349-0.012,0.537
			c-0.105,1.12-0.557,2.15-1.357,3.091c-0.799,0.94-2.18,2.287-4.145,4.038l5.725,0.029l-0.039,2.451
			c-2.508,0.085-5.736,0.127-9.693,0.127l-0.303-2.666c2.375-1.914,4.07-3.386,5.084-4.414c0.926-0.944,1.389-1.872,1.389-2.783
			v-0.244c-0.098-0.977-0.646-1.465-1.65-1.465h-0.053c-0.873,0.02-1.311,0.612-1.311,1.777c0,0.222,0.014,0.459,0.039,0.713
			L634.988,29.02z"/>
		<path fill="#331842" d="M651.494,24.215c3.449,0,5.176,2.344,5.176,7.031c0,4.694-1.848,7.041-5.543,7.041
			c-3.693,0-5.541-2.432-5.541-7.295C645.585,26.474,647.554,24.215,651.494,24.215z M649.136,31.314
			c-0.01,0.176-0.014,0.345-0.014,0.508c0,2.571,0.713,3.857,2.135,3.857c1.502,0,2.254-1.455,2.254-4.365s-0.703-4.365-2.107-4.365
			C649.996,26.949,649.24,28.404,649.136,31.314z"/>
		<path fill="#331842" d="M664.332,24.488c-0.061,3.073-0.09,6.13-0.09,9.17c0,1.523,0.008,3.044,0.023,4.561l-3.248,0.127
			c-0.061-3.913-0.137-7.536-0.223-10.869c-0.734,0.11-1.729,0.384-2.986,0.82l-0.629-2.139l3.643-1.719L664.332,24.488z"/>
		<path fill="#331842" d="M665.826,29.02c-0.043-0.391-0.064-0.752-0.064-1.084c0-1.165,0.283-2.005,0.852-2.52
			c0.725-0.657,1.65-1.052,2.777-1.182c0.4-0.046,0.793-0.068,1.18-0.068c0.688,0,1.354,0.071,1.99,0.215
			c0.996,0.228,1.746,0.677,2.254,1.348c0.41,0.56,0.615,1.276,0.615,2.148c0,0.169-0.006,0.349-0.014,0.537
			c-0.104,1.12-0.557,2.15-1.355,3.091s-2.182,2.287-4.146,4.038l5.725,0.029l-0.039,2.451c-2.506,0.085-5.736,0.127-9.693,0.127
			l-0.301-2.666c2.375-1.914,4.068-3.386,5.084-4.414c0.926-0.944,1.389-1.872,1.389-2.783v-0.244
			c-0.098-0.977-0.646-1.465-1.652-1.465h-0.051c-0.875,0.02-1.311,0.612-1.311,1.777c0,0.222,0.014,0.459,0.037,0.713
			L665.826,29.02z"/>
	</g>
</g>
</svg>
