<?xml version="1.0" encoding="utf-8"?>
<!-- Generator: Adobe Illustrator 16.0.0, SVG Export Plug-In . SVG Version: 6.00 Build 0)  -->
<!DOCTYPE svg PUBLIC "-//W3C//DTD SVG 1.1//EN" "http://www.w3.org/Graphics/SVG/1.1/DTD/svg11.dtd">
<svg version="1.1" id="Capa_1" xmlns="http://www.w3.org/2000/svg" xmlns:xlink="http://www.w3.org/1999/xlink" x="0px" y="0px"
	 width="455.216px" height="99.005px" viewBox="0 0 455.216 99.005" enable-background="new 0 0 455.216 99.005"
	 xml:space="preserve">
<g>
	<g>
		<g>
			<path fill="#331842" d="M160.756,25.631l-3.359,0.012v-0.305c0-1.767-0.666-2.65-1.997-2.65c-1.422,0-2.134,1.632-2.134,4.895
				c0,3.678,0.747,5.516,2.239,5.516h0.015c1.493-0.007,2.24-0.909,2.24-2.707v-1.116h3.752v0.846c0,3.745-2.063,5.704-6.188,5.877
				c-0.121,0.007-0.242,0.011-0.363,0.011c-3.884,0-5.826-2.782-5.826-8.347c0-5.443,1.998-8.166,5.992-8.166
				c3.762,0,5.644,1.82,5.644,5.459C160.771,25.173,160.766,25.398,160.756,25.631z"/>
			<path fill="#331842" d="M167.731,24.515c3.43,0,5.145,1.774,5.145,5.323c0,0.144-0.005,0.286-0.015,0.429
				c-0.141,3.843-1.967,5.783-5.477,5.82c-0.041,0.008-0.081,0.012-0.121,0.012c-3.339,0-5.008-1.816-5.008-5.448v-0.315
				C162.354,26.454,164.18,24.515,167.731,24.515z M167.232,27.086c-0.636,0.166-1.069,0.778-1.301,1.839
				c-0.142,0.632-0.212,1.267-0.212,1.906c0,0.429,0.03,0.861,0.091,1.297c0.161,1.083,0.681,1.643,1.559,1.681h0.106
				c0.817,0,1.376-0.402,1.679-1.207c0.252-0.669,0.378-1.462,0.378-2.38c0-0.226-0.005-0.455-0.015-0.688
				c-0.081-1.211-0.323-1.967-0.726-2.268c-0.252-0.181-0.555-0.271-0.908-0.271C167.681,26.996,167.464,27.026,167.232,27.086z"/>
			<path fill="#331842" d="M173.526,32.094l3.465-0.124v0.146c0,1.158,0.479,1.745,1.438,1.76h0.061
				c0.928,0,1.392-0.334,1.392-1.004v-0.079c-0.041-0.736-0.956-1.33-2.747-1.781s-2.867-1.211-3.23-2.279
				c-0.131-0.375-0.196-0.736-0.196-1.082c0-0.632,0.217-1.219,0.65-1.76c0.666-0.827,1.674-1.301,3.026-1.421
				c0.363-0.03,0.716-0.046,1.059-0.046c0.897,0,1.689,0.117,2.375,0.35c0.938,0.324,1.589,0.786,1.952,1.388
				c0.242,0.414,0.363,0.872,0.363,1.376c0,0.241-0.025,0.489-0.076,0.744l-3.238,0.057c0.03-0.188,0.045-0.36,0.045-0.519
				c0-0.752-0.323-1.154-0.969-1.207c-0.07-0.007-0.141-0.011-0.211-0.011c-0.666,0-1.115,0.252-1.347,0.755
				c-0.081,0.174-0.121,0.331-0.121,0.474c0,0.354,0.222,0.658,0.666,0.914c0.625,0.361,1.551,0.728,2.777,1.1s2.05,1.006,2.474,1.9
				c0.151,0.339,0.227,0.677,0.227,1.016c0,0.571-0.222,1.146-0.666,1.726c-0.706,0.925-1.8,1.463-3.283,1.613
				c-0.323,0.037-0.641,0.056-0.953,0.056c-1.11,0-2.139-0.214-3.087-0.643C174.162,34.963,173.546,33.823,173.526,32.094z"/>
			<path fill="#331842" d="M186.978,20.916l3.435-0.169v3.733l2.89-0.057l0.045,2.132l-2.936,0.102v5.132
				c0,1.196,0.681,1.794,2.042,1.794c0.282,0,0.59-0.026,0.923-0.079l-0.136,2.481c-0.484,0.045-0.943,0.067-1.377,0.067
				c-3.188,0-4.812-1.226-4.872-3.677V26.86l-2.482,0.113l-0.06-2.516l2.542,0.022L186.978,20.916z"/>
			<path fill="#331842" d="M200.459,24.188c3.319,0.136,4.978,1.38,4.978,3.733v8.008l-3.525,0.045l-0.121-1.071
				c-0.727,0.617-1.69,0.925-2.89,0.925c-0.514,0-1.069-0.06-1.665-0.18c-1.785-0.331-2.678-1.361-2.678-3.091
				c0-0.211,0.015-0.437,0.045-0.677c0.202-1.782,1.901-2.673,5.099-2.673c0.615,0,1.291,0.033,2.027,0.102V28
				c0-1.061-0.449-1.591-1.347-1.591h-0.061c-0.071-0.007-0.136-0.011-0.197-0.011c-0.979,0-1.468,0.594-1.468,1.782v0.169
				l-3.601-0.226c0-2.624,1.695-3.937,5.084-3.937H200.459z M201.73,33.098v-1.985c-0.434-0.067-0.827-0.101-1.18-0.101
				c-0.918,0-1.543,0.229-1.876,0.688c-0.202,0.278-0.302,0.538-0.302,0.778c0,0.301,0.161,0.567,0.484,0.801
				c0.252,0.181,0.58,0.271,0.983,0.271C200.354,33.549,200.984,33.398,201.73,33.098z"/>
			<path fill="#331842" d="M206.467,32.094l3.465-0.124v0.146c0,1.158,0.479,1.745,1.438,1.76h0.061
				c0.928,0,1.392-0.334,1.392-1.004v-0.079c-0.041-0.736-0.956-1.33-2.747-1.781s-2.867-1.211-3.23-2.279
				c-0.131-0.375-0.196-0.736-0.196-1.082c0-0.632,0.217-1.219,0.65-1.76c0.666-0.827,1.674-1.301,3.026-1.421
				c0.363-0.03,0.716-0.046,1.059-0.046c0.897,0,1.689,0.117,2.375,0.35c0.938,0.324,1.589,0.786,1.952,1.388
				c0.242,0.414,0.363,0.872,0.363,1.376c0,0.241-0.025,0.489-0.076,0.744l-3.238,0.057c0.03-0.188,0.045-0.36,0.045-0.519
				c0-0.752-0.323-1.154-0.969-1.207c-0.07-0.007-0.141-0.011-0.211-0.011c-0.666,0-1.115,0.252-1.347,0.755
				c-0.081,0.174-0.121,0.331-0.121,0.474c0,0.354,0.222,0.658,0.666,0.914c0.625,0.361,1.551,0.728,2.777,1.1s2.05,1.006,2.474,1.9
				c0.151,0.339,0.227,0.677,0.227,1.016c0,0.571-0.222,1.146-0.666,1.726c-0.706,0.925-1.8,1.463-3.283,1.613
				c-0.323,0.037-0.641,0.056-0.953,0.056c-1.11,0-2.139-0.214-3.087-0.643C207.102,34.963,206.487,33.823,206.467,32.094z"/>
			<path fill="#331842" d="M223.005,24.47l3.964-0.237c-0.09,2.256-0.136,4.113-0.136,5.572c0,0.549,0.01,1.041,0.03,1.478
				c0.04,1.609,0.524,2.436,1.452,2.481c0.061,0.007,0.116,0.011,0.167,0.011c0.827,0,1.352-0.354,1.574-1.06
				c0.121-0.414,0.182-1.396,0.182-2.944c0-1.24-0.041-2.842-0.121-4.805l3.722-0.203c0.04,2.294,0.061,4.264,0.061,5.91
				c0,2.053-0.03,3.602-0.091,4.647c-0.101,1.879-0.822,3.308-2.164,4.286c-1.21,0.887-2.911,1.33-5.099,1.33
				c-0.252,0-0.51-0.007-0.772-0.022l-0.423-2.752c0.191,0.008,0.378,0.012,0.56,0.012c1.695,0,2.854-0.223,3.48-0.666
				c0.645-0.459,0.968-1.195,0.968-2.211v-0.18c-0.575,0.677-1.458,1.015-2.648,1.015h-0.212c-1.301-0.045-2.31-0.427-3.026-1.145
				s-1.107-1.726-1.172-3.022C223.234,30.667,223.136,28.169,223.005,24.47z"/>
			<path fill="#331842" d="M241.253,37.406l3.556-0.146c-0.01,0.091-0.015,0.181-0.015,0.271c0,0.82,0.439,1.268,1.316,1.343
				c0.141,0.015,0.272,0.022,0.394,0.022c0.756,0,1.296-0.226,1.619-0.677c0.282-0.406,0.423-1.166,0.423-2.278
				c0-0.301-0.01-0.632-0.03-0.993c-0.565,0.843-1.614,1.302-3.147,1.377c-2.996-0.023-4.494-1.922-4.494-5.696v-0.079
				c0.021-3.819,1.801-5.741,5.341-5.764c0.969,0,1.836,0.421,2.603,1.264l0.045-1.794l3.314,0.113
				c0,6.203-0.025,10.046-0.076,11.527c-0.051,1.48-0.351,2.669-0.9,3.563c-0.55,0.896-1.485,1.467-2.807,1.715
				c-0.696,0.136-1.387,0.203-2.073,0.203c-0.615,0-1.226-0.053-1.831-0.158c-1.292-0.226-2.179-0.65-2.663-1.274
				c-0.404-0.512-0.605-1.181-0.605-2.008C241.223,37.771,241.233,37.595,241.253,37.406z M248.486,32.94v-4.58
				c-0.495-0.744-1.12-1.116-1.876-1.116c-0.151,0-0.308,0.015-0.469,0.045c-0.979,0.173-1.518,1.177-1.619,3.012
				c-0.01,0.195-0.015,0.384-0.015,0.563c0,1.497,0.373,2.414,1.12,2.753c0.252,0.12,0.52,0.18,0.802,0.18
				C247.053,33.797,247.739,33.512,248.486,32.94z"/>
			<path fill="#331842" d="M259.198,24.188c3.319,0.136,4.978,1.38,4.978,3.733v8.008l-3.525,0.045l-0.121-1.071
				c-0.727,0.617-1.69,0.925-2.89,0.925c-0.514,0-1.069-0.06-1.665-0.18c-1.785-0.331-2.678-1.361-2.678-3.091
				c0-0.211,0.015-0.437,0.045-0.677c0.202-1.782,1.901-2.673,5.099-2.673c0.615,0,1.291,0.033,2.027,0.102V28
				c0-1.061-0.449-1.591-1.347-1.591h-0.061c-0.071-0.007-0.136-0.011-0.197-0.011c-0.979,0-1.468,0.594-1.468,1.782v0.169
				l-3.601-0.226c0-2.624,1.695-3.937,5.084-3.937H259.198z M260.469,33.098v-1.985c-0.434-0.067-0.827-0.101-1.18-0.101
				c-0.918,0-1.543,0.229-1.876,0.688c-0.202,0.278-0.302,0.538-0.302,0.778c0,0.301,0.161,0.567,0.484,0.801
				c0.252,0.181,0.58,0.271,0.983,0.271C259.092,33.549,259.723,33.398,260.469,33.098z"/>
			<path fill="#331842" d="M265.206,32.094l3.465-0.124v0.146c0,1.158,0.479,1.745,1.438,1.76h0.061
				c0.928,0,1.392-0.334,1.392-1.004v-0.079c-0.041-0.736-0.956-1.33-2.747-1.781s-2.867-1.211-3.23-2.279
				c-0.131-0.375-0.196-0.736-0.196-1.082c0-0.632,0.217-1.219,0.65-1.76c0.666-0.827,1.674-1.301,3.026-1.421
				c0.363-0.03,0.716-0.046,1.059-0.046c0.897,0,1.689,0.117,2.375,0.35c0.938,0.324,1.589,0.786,1.952,1.388
				c0.242,0.414,0.363,0.872,0.363,1.376c0,0.241-0.025,0.489-0.076,0.744l-3.238,0.057c0.03-0.188,0.045-0.36,0.045-0.519
				c0-0.752-0.323-1.154-0.969-1.207c-0.07-0.007-0.141-0.011-0.211-0.011c-0.666,0-1.115,0.252-1.347,0.755
				c-0.081,0.174-0.121,0.331-0.121,0.474c0,0.354,0.222,0.658,0.666,0.914c0.625,0.361,1.551,0.728,2.777,1.1s2.05,1.006,2.474,1.9
				c0.151,0.339,0.227,0.677,0.227,1.016c0,0.571-0.222,1.146-0.666,1.726c-0.706,0.925-1.8,1.463-3.283,1.613
				c-0.323,0.037-0.641,0.056-0.953,0.056c-1.11,0-2.139-0.214-3.087-0.643C265.841,34.963,265.226,33.823,265.206,32.094z"/>
			<path fill="#331842" d="M278.657,20.916l3.435-0.169v3.733l2.89-0.057l0.045,2.132l-2.936,0.102v5.132
				c0,1.196,0.681,1.794,2.042,1.794c0.282,0,0.59-0.026,0.923-0.079l-0.136,2.481c-0.484,0.045-0.943,0.067-1.377,0.067
				c-3.188,0-4.812-1.226-4.872-3.677V26.86l-2.482,0.113l-0.06-2.516l2.542,0.022L278.657,20.916z"/>
			<path fill="#331842" d="M291.609,24.515c3.43,0,5.145,1.774,5.145,5.323c0,0.144-0.005,0.286-0.015,0.429
				c-0.141,3.843-1.967,5.783-5.477,5.82c-0.041,0.008-0.081,0.012-0.121,0.012c-3.339,0-5.008-1.816-5.008-5.448v-0.315
				C286.232,26.454,288.058,24.515,291.609,24.515z M291.11,27.086c-0.636,0.166-1.069,0.778-1.301,1.839
				c-0.142,0.632-0.212,1.267-0.212,1.906c0,0.429,0.03,0.861,0.091,1.297c0.161,1.083,0.681,1.643,1.559,1.681h0.106
				c0.817,0,1.376-0.402,1.679-1.207c0.252-0.669,0.378-1.462,0.378-2.38c0-0.226-0.005-0.455-0.015-0.688
				c-0.081-1.211-0.323-1.967-0.726-2.268c-0.252-0.181-0.555-0.271-0.908-0.271C291.559,26.996,291.342,27.026,291.11,27.086z"/>
			<path fill="#331842" d="M297.404,32.094l3.465-0.124v0.146c0,1.158,0.479,1.745,1.438,1.76h0.061
				c0.928,0,1.392-0.334,1.392-1.004v-0.079c-0.041-0.736-0.956-1.33-2.747-1.781s-2.867-1.211-3.23-2.279
				c-0.131-0.375-0.196-0.736-0.196-1.082c0-0.632,0.217-1.219,0.65-1.76c0.666-0.827,1.674-1.301,3.026-1.421
				c0.363-0.03,0.716-0.046,1.059-0.046c0.897,0,1.689,0.117,2.375,0.35c0.938,0.324,1.589,0.786,1.952,1.388
				c0.242,0.414,0.363,0.872,0.363,1.376c0,0.241-0.025,0.489-0.076,0.744l-3.238,0.057c0.03-0.188,0.045-0.36,0.045-0.519
				c0-0.752-0.323-1.154-0.969-1.207c-0.07-0.007-0.141-0.011-0.211-0.011c-0.666,0-1.115,0.252-1.347,0.755
				c-0.081,0.174-0.121,0.331-0.121,0.474c0,0.354,0.222,0.658,0.666,0.914c0.625,0.361,1.551,0.728,2.777,1.1s2.05,1.006,2.474,1.9
				c0.151,0.339,0.227,0.677,0.227,1.016c0,0.571-0.222,1.146-0.666,1.726c-0.706,0.925-1.8,1.463-3.283,1.613
				c-0.323,0.037-0.641,0.056-0.953,0.056c-1.11,0-2.139-0.214-3.087-0.643C298.04,34.963,297.424,33.823,297.404,32.094z"/>
			<path fill="#3C3C3B" d="M139.953,55.862V44.409h5.078c1.021,0,1.797,0.103,2.328,0.309s0.956,0.569,1.273,1.09
				c0.317,0.521,0.477,1.097,0.477,1.727c0,0.812-0.263,1.497-0.789,2.055c-0.526,0.558-1.339,0.911-2.438,1.062
				c0.401,0.192,0.706,0.383,0.914,0.57c0.442,0.406,0.862,0.914,1.258,1.523l1.992,3.117h-1.906l-1.516-2.383
				c-0.443-0.688-0.808-1.214-1.094-1.578c-0.287-0.364-0.543-0.62-0.77-0.766s-0.457-0.247-0.691-0.305
				c-0.172-0.036-0.453-0.055-0.844-0.055h-1.758v5.086H139.953z M141.468,49.464h3.258c0.692,0,1.234-0.071,1.625-0.215
				s0.688-0.372,0.891-0.688s0.305-0.657,0.305-1.027c0-0.542-0.197-0.987-0.59-1.336c-0.394-0.349-1.015-0.523-1.863-0.523h-3.625
				V49.464z"/>
			<path fill="#3C3C3B" d="M156.984,53.19l1.453,0.18c-0.229,0.849-0.654,1.508-1.273,1.977c-0.62,0.469-1.412,0.703-2.375,0.703
				c-1.214,0-2.176-0.374-2.887-1.121s-1.066-1.796-1.066-3.145c0-1.396,0.359-2.479,1.078-3.25s1.651-1.156,2.797-1.156
				c1.109,0,2.016,0.378,2.719,1.133s1.055,1.817,1.055,3.188c0,0.083-0.003,0.208-0.008,0.375h-6.188
				c0.052,0.911,0.31,1.609,0.773,2.094c0.463,0.484,1.042,0.727,1.734,0.727c0.516,0,0.956-0.136,1.32-0.406
				C156.481,54.217,156.77,53.784,156.984,53.19z M152.367,50.917H157c-0.062-0.698-0.24-1.222-0.531-1.57
				c-0.448-0.542-1.029-0.812-1.742-0.812c-0.646,0-1.189,0.216-1.629,0.648C152.657,49.615,152.414,50.193,152.367,50.917z"/>
			<path fill="#3C3C3B" d="M165.617,52.823l1.383,0.18c-0.151,0.953-0.538,1.699-1.16,2.238c-0.623,0.539-1.387,0.809-2.293,0.809
				c-1.136,0-2.048-0.371-2.738-1.113c-0.69-0.742-1.035-1.806-1.035-3.191c0-0.896,0.148-1.68,0.445-2.352s0.749-1.176,1.355-1.512
				c0.606-0.336,1.267-0.504,1.98-0.504c0.901,0,1.638,0.228,2.211,0.684c0.573,0.456,0.94,1.103,1.102,1.941l-1.367,0.211
				c-0.13-0.558-0.361-0.977-0.691-1.258c-0.331-0.281-0.73-0.422-1.199-0.422c-0.708,0-1.284,0.254-1.727,0.762
				c-0.443,0.508-0.664,1.312-0.664,2.41c0,1.114,0.213,1.925,0.641,2.43c0.427,0.505,0.984,0.758,1.672,0.758
				c0.552,0,1.013-0.169,1.383-0.508C165.283,54.047,165.518,53.526,165.617,52.823z"/>
			<path fill="#3C3C3B" d="M173.64,55.862v-1.219c-0.646,0.938-1.523,1.406-2.633,1.406c-0.49,0-0.947-0.094-1.371-0.281
				c-0.425-0.188-0.74-0.423-0.945-0.707c-0.206-0.284-0.351-0.632-0.434-1.043c-0.058-0.276-0.086-0.714-0.086-1.312v-5.141h1.406
				v4.602c0,0.734,0.028,1.229,0.086,1.484c0.088,0.37,0.276,0.66,0.562,0.871c0.286,0.211,0.641,0.316,1.062,0.316
				s0.817-0.108,1.188-0.324c0.37-0.216,0.631-0.511,0.785-0.883c0.153-0.372,0.23-0.913,0.23-1.621v-4.445h1.406v8.297H173.64z"/>
			<path fill="#3C3C3B" d="M177.085,55.862v-8.297h1.266v1.258c0.323-0.589,0.621-0.977,0.895-1.164s0.574-0.281,0.902-0.281
				c0.474,0,0.956,0.151,1.445,0.453l-0.484,1.305c-0.344-0.203-0.688-0.305-1.031-0.305c-0.308,0-0.583,0.093-0.828,0.277
				c-0.245,0.185-0.419,0.441-0.523,0.77c-0.156,0.5-0.234,1.047-0.234,1.641v4.344H177.085z"/>
			<path fill="#3C3C3B" d="M181.867,53.386l1.391-0.219c0.078,0.558,0.295,0.984,0.652,1.281c0.356,0.297,0.855,0.445,1.496,0.445
				c0.646,0,1.125-0.132,1.438-0.395s0.469-0.571,0.469-0.926c0-0.317-0.138-0.567-0.414-0.75c-0.193-0.125-0.672-0.284-1.438-0.477
				c-1.031-0.261-1.746-0.485-2.145-0.676s-0.701-0.453-0.906-0.789c-0.206-0.336-0.309-0.707-0.309-1.113
				c0-0.37,0.084-0.712,0.254-1.027c0.169-0.315,0.399-0.577,0.691-0.785c0.219-0.161,0.517-0.298,0.895-0.41
				c0.377-0.112,0.782-0.168,1.215-0.168c0.651,0,1.223,0.094,1.715,0.281s0.855,0.441,1.09,0.762s0.396,0.749,0.484,1.285
				l-1.375,0.188c-0.062-0.427-0.244-0.761-0.543-1c-0.3-0.239-0.723-0.359-1.27-0.359c-0.646,0-1.107,0.106-1.383,0.32
				c-0.276,0.214-0.414,0.464-0.414,0.75c0,0.183,0.057,0.347,0.172,0.492c0.114,0.151,0.294,0.276,0.539,0.375
				c0.141,0.052,0.555,0.172,1.242,0.359c0.995,0.266,1.688,0.483,2.082,0.652c0.393,0.169,0.702,0.415,0.926,0.738
				c0.224,0.323,0.336,0.724,0.336,1.203c0,0.469-0.137,0.91-0.41,1.324s-0.668,0.734-1.184,0.961s-1.099,0.34-1.75,0.34
				c-1.078,0-1.9-0.224-2.465-0.672C182.383,54.93,182.023,54.266,181.867,53.386z"/>
			<path fill="#3C3C3B" d="M189.906,51.714c0-1.536,0.427-2.675,1.281-3.414c0.713-0.614,1.583-0.922,2.609-0.922
				c1.141,0,2.073,0.374,2.797,1.121c0.724,0.747,1.086,1.78,1.086,3.098c0,1.067-0.16,1.907-0.48,2.52s-0.787,1.087-1.398,1.426
				c-0.612,0.339-1.28,0.508-2.004,0.508c-1.162,0-2.101-0.372-2.816-1.117C190.264,54.188,189.906,53.115,189.906,51.714z
				 M191.351,51.714c0,1.062,0.231,1.858,0.695,2.387c0.463,0.528,1.047,0.793,1.75,0.793c0.698,0,1.278-0.266,1.742-0.797
				c0.463-0.531,0.695-1.341,0.695-2.43c0-1.026-0.233-1.804-0.699-2.332c-0.466-0.528-1.046-0.793-1.738-0.793
				c-0.703,0-1.287,0.263-1.75,0.789C191.583,49.857,191.351,50.651,191.351,51.714z"/>
			<path fill="#3C3C3B" d="M198.765,53.386l1.391-0.219c0.078,0.558,0.295,0.984,0.652,1.281c0.356,0.297,0.855,0.445,1.496,0.445
				c0.646,0,1.125-0.132,1.438-0.395s0.469-0.571,0.469-0.926c0-0.317-0.138-0.567-0.414-0.75c-0.193-0.125-0.672-0.284-1.438-0.477
				c-1.031-0.261-1.746-0.485-2.145-0.676s-0.701-0.453-0.906-0.789c-0.206-0.336-0.309-0.707-0.309-1.113
				c0-0.37,0.084-0.712,0.254-1.027c0.169-0.315,0.399-0.577,0.691-0.785c0.219-0.161,0.517-0.298,0.895-0.41
				c0.377-0.112,0.782-0.168,1.215-0.168c0.651,0,1.223,0.094,1.715,0.281s0.855,0.441,1.09,0.762s0.396,0.749,0.484,1.285
				l-1.375,0.188c-0.062-0.427-0.244-0.761-0.543-1c-0.3-0.239-0.723-0.359-1.27-0.359c-0.646,0-1.107,0.106-1.383,0.32
				c-0.276,0.214-0.414,0.464-0.414,0.75c0,0.183,0.057,0.347,0.172,0.492c0.114,0.151,0.294,0.276,0.539,0.375
				c0.141,0.052,0.555,0.172,1.242,0.359c0.995,0.266,1.688,0.483,2.082,0.652c0.393,0.169,0.702,0.415,0.926,0.738
				c0.224,0.323,0.336,0.724,0.336,1.203c0,0.469-0.137,0.91-0.41,1.324s-0.668,0.734-1.184,0.961s-1.099,0.34-1.75,0.34
				c-1.078,0-1.9-0.224-2.465-0.672C199.282,54.93,198.921,54.266,198.765,53.386z"/>
			<path fill="#3C3C3B" d="M211.781,46.026v-1.617h1.406v1.617H211.781z M211.781,55.862v-8.297h1.406v8.297H211.781z"/>
			<path fill="#3C3C3B" d="M215.328,55.862v-8.297h1.266v1.18c0.609-0.911,1.489-1.367,2.641-1.367c0.5,0,0.959,0.09,1.379,0.27
				c0.419,0.18,0.733,0.415,0.941,0.707c0.208,0.292,0.354,0.638,0.438,1.039c0.052,0.261,0.078,0.716,0.078,1.367v5.102h-1.406
				v-5.047c0-0.573-0.055-1.001-0.164-1.285s-0.304-0.511-0.582-0.68c-0.279-0.169-0.605-0.254-0.98-0.254
				c-0.599,0-1.116,0.19-1.551,0.57c-0.435,0.38-0.652,1.102-0.652,2.164v4.531H215.328z"/>
			<path fill="#3C3C3B" d="M226.531,55.862l-3.156-8.297h1.484l1.781,4.969c0.192,0.536,0.37,1.094,0.531,1.672
				c0.125-0.438,0.299-0.964,0.523-1.578l1.844-5.062h1.445l-3.141,8.297H226.531z"/>
			<path fill="#3C3C3B" d="M237.906,53.19l1.453,0.18c-0.229,0.849-0.654,1.508-1.273,1.977c-0.62,0.469-1.412,0.703-2.375,0.703
				c-1.214,0-2.176-0.374-2.887-1.121s-1.066-1.796-1.066-3.145c0-1.396,0.359-2.479,1.078-3.25s1.651-1.156,2.797-1.156
				c1.109,0,2.016,0.378,2.719,1.133s1.055,1.817,1.055,3.188c0,0.083-0.003,0.208-0.008,0.375h-6.188
				c0.052,0.911,0.31,1.609,0.773,2.094c0.463,0.484,1.042,0.727,1.734,0.727c0.516,0,0.956-0.136,1.32-0.406
				C237.403,54.217,237.692,53.784,237.906,53.19z M233.289,50.917h4.633c-0.062-0.698-0.24-1.222-0.531-1.57
				c-0.448-0.542-1.029-0.812-1.742-0.812c-0.646,0-1.189,0.216-1.629,0.648C233.579,49.615,233.335,50.193,233.289,50.917z"/>
			<path fill="#3C3C3B" d="M241.109,55.862v-8.297h1.266v1.258c0.323-0.589,0.621-0.977,0.895-1.164s0.574-0.281,0.902-0.281
				c0.474,0,0.956,0.151,1.445,0.453l-0.484,1.305c-0.344-0.203-0.688-0.305-1.031-0.305c-0.308,0-0.583,0.093-0.828,0.277
				c-0.245,0.185-0.419,0.441-0.523,0.77c-0.156,0.5-0.234,1.047-0.234,1.641v4.344H241.109z"/>
			<path fill="#3C3C3B" d="M249.523,54.604l0.203,1.242c-0.396,0.083-0.75,0.125-1.062,0.125c-0.511,0-0.906-0.081-1.188-0.242
				s-0.479-0.374-0.594-0.637c-0.115-0.263-0.172-0.816-0.172-1.66v-4.773h-1.031v-1.094h1.031v-2.055l1.398-0.844v2.898h1.414
				v1.094h-1.414v4.852c0,0.401,0.024,0.659,0.074,0.773c0.049,0.114,0.13,0.206,0.242,0.273c0.112,0.067,0.272,0.102,0.48,0.102
				C249.062,54.659,249.268,54.641,249.523,54.604z"/>
			<path fill="#3C3C3B" d="M250.906,46.026v-1.617h1.406v1.617H250.906z M250.906,55.862v-8.297h1.406v8.297H250.906z"/>
			<path fill="#3C3C3B" d="M259.835,55.862v-1.047c-0.526,0.823-1.3,1.234-2.32,1.234c-0.662,0-1.27-0.183-1.824-0.547
				s-0.984-0.874-1.289-1.527s-0.457-1.405-0.457-2.254c0-0.828,0.138-1.579,0.414-2.254c0.276-0.675,0.69-1.191,1.242-1.551
				c0.552-0.359,1.169-0.539,1.852-0.539c0.5,0,0.945,0.105,1.336,0.316s0.708,0.485,0.953,0.824v-4.109h1.398v11.453H259.835z
				 M255.39,51.722c0,1.062,0.224,1.856,0.672,2.383c0.448,0.526,0.977,0.789,1.586,0.789c0.614,0,1.137-0.251,1.566-0.754
				s0.645-1.27,0.645-2.301c0-1.136-0.219-1.969-0.656-2.5s-0.977-0.797-1.617-0.797c-0.625,0-1.147,0.255-1.566,0.766
				C255.6,49.818,255.39,50.623,255.39,51.722z"/>
			<path fill="#3C3C3B" d="M262.828,51.714c0-1.536,0.427-2.675,1.281-3.414c0.713-0.614,1.583-0.922,2.609-0.922
				c1.141,0,2.073,0.374,2.797,1.121c0.724,0.747,1.086,1.78,1.086,3.098c0,1.067-0.16,1.907-0.48,2.52s-0.787,1.087-1.398,1.426
				c-0.612,0.339-1.28,0.508-2.004,0.508c-1.162,0-2.101-0.372-2.816-1.117C263.186,54.188,262.828,53.115,262.828,51.714z
				 M264.273,51.714c0,1.062,0.231,1.858,0.695,2.387c0.463,0.528,1.047,0.793,1.75,0.793c0.698,0,1.278-0.266,1.742-0.797
				c0.463-0.531,0.695-1.341,0.695-2.43c0-1.026-0.233-1.804-0.699-2.332c-0.466-0.528-1.046-0.793-1.738-0.793
				c-0.703,0-1.287,0.263-1.75,0.789C264.504,49.857,264.273,50.651,264.273,51.714z"/>
			<path fill="#3C3C3B" d="M271.687,53.386l1.391-0.219c0.078,0.558,0.295,0.984,0.652,1.281c0.356,0.297,0.855,0.445,1.496,0.445
				c0.646,0,1.125-0.132,1.438-0.395s0.469-0.571,0.469-0.926c0-0.317-0.138-0.567-0.414-0.75c-0.193-0.125-0.672-0.284-1.438-0.477
				c-1.031-0.261-1.746-0.485-2.145-0.676s-0.701-0.453-0.906-0.789c-0.206-0.336-0.309-0.707-0.309-1.113
				c0-0.37,0.084-0.712,0.254-1.027c0.169-0.315,0.399-0.577,0.691-0.785c0.219-0.161,0.517-0.298,0.895-0.41
				c0.377-0.112,0.782-0.168,1.215-0.168c0.651,0,1.223,0.094,1.715,0.281s0.855,0.441,1.09,0.762s0.396,0.749,0.484,1.285
				l-1.375,0.188c-0.062-0.427-0.244-0.761-0.543-1c-0.3-0.239-0.723-0.359-1.27-0.359c-0.646,0-1.107,0.106-1.383,0.32
				c-0.276,0.214-0.414,0.464-0.414,0.75c0,0.183,0.057,0.347,0.172,0.492c0.114,0.151,0.294,0.276,0.539,0.375
				c0.141,0.052,0.555,0.172,1.242,0.359c0.995,0.266,1.688,0.483,2.082,0.652c0.393,0.169,0.702,0.415,0.926,0.738
				c0.224,0.323,0.336,0.724,0.336,1.203c0,0.469-0.137,0.91-0.41,1.324s-0.668,0.734-1.184,0.961s-1.099,0.34-1.75,0.34
				c-1.078,0-1.9-0.224-2.465-0.672C272.204,54.93,271.843,54.266,271.687,53.386z"/>
			<path fill="#3C3C3B" d="M290.109,54.839c-0.521,0.442-1.022,0.755-1.504,0.938c-0.482,0.183-0.999,0.273-1.551,0.273
				c-0.912,0-1.612-0.223-2.102-0.668c-0.49-0.445-0.734-1.015-0.734-1.707c0-0.406,0.092-0.777,0.277-1.113
				c0.185-0.336,0.427-0.605,0.727-0.809c0.299-0.203,0.637-0.356,1.012-0.461c0.276-0.073,0.692-0.144,1.25-0.211
				c1.135-0.136,1.971-0.297,2.508-0.484c0.005-0.192,0.008-0.315,0.008-0.367c0-0.573-0.133-0.977-0.398-1.211
				c-0.359-0.317-0.894-0.477-1.602-0.477c-0.662,0-1.15,0.116-1.465,0.348c-0.315,0.231-0.548,0.642-0.699,1.23l-1.375-0.188
				c0.125-0.589,0.331-1.063,0.617-1.426c0.286-0.362,0.7-0.641,1.242-0.836c0.542-0.195,1.169-0.293,1.883-0.293
				c0.708,0,1.284,0.083,1.727,0.25c0.442,0.167,0.768,0.376,0.977,0.629c0.208,0.253,0.354,0.571,0.438,0.957
				c0.047,0.239,0.07,0.672,0.07,1.297v1.875c0,1.308,0.03,2.134,0.09,2.48c0.06,0.347,0.178,0.679,0.355,0.996h-1.469
				C290.244,55.57,290.15,55.229,290.109,54.839z M289.992,51.698c-0.511,0.208-1.276,0.386-2.297,0.531
				c-0.578,0.083-0.987,0.177-1.227,0.281c-0.24,0.104-0.425,0.257-0.555,0.457c-0.13,0.2-0.195,0.423-0.195,0.668
				c0,0.375,0.142,0.688,0.426,0.938c0.284,0.25,0.699,0.375,1.246,0.375c0.542,0,1.023-0.118,1.445-0.355s0.731-0.562,0.93-0.973
				c0.151-0.317,0.227-0.786,0.227-1.406V51.698z"/>
			<path fill="#3C3C3B" d="M298.007,55.862V44.409h1.406v11.453H298.007z"/>
			<path fill="#3C3C3B" d="M301.07,51.714c0-1.536,0.427-2.675,1.281-3.414c0.713-0.614,1.583-0.922,2.609-0.922
				c1.141,0,2.073,0.374,2.797,1.121c0.724,0.747,1.086,1.78,1.086,3.098c0,1.067-0.16,1.907-0.48,2.52s-0.787,1.087-1.398,1.426
				c-0.612,0.339-1.28,0.508-2.004,0.508c-1.162,0-2.101-0.372-2.816-1.117C301.428,54.188,301.07,53.115,301.07,51.714z
				 M302.515,51.714c0,1.062,0.231,1.858,0.695,2.387c0.463,0.528,1.047,0.793,1.75,0.793c0.698,0,1.278-0.266,1.742-0.797
				c0.463-0.531,0.695-1.341,0.695-2.43c0-1.026-0.233-1.804-0.699-2.332c-0.466-0.528-1.046-0.793-1.738-0.793
				c-0.703,0-1.287,0.263-1.75,0.789C302.747,49.857,302.515,50.651,302.515,51.714z"/>
			<path fill="#3C3C3B" d="M309.929,53.386l1.391-0.219c0.078,0.558,0.295,0.984,0.652,1.281c0.356,0.297,0.855,0.445,1.496,0.445
				c0.646,0,1.125-0.132,1.438-0.395s0.469-0.571,0.469-0.926c0-0.317-0.138-0.567-0.414-0.75c-0.193-0.125-0.672-0.284-1.438-0.477
				c-1.031-0.261-1.746-0.485-2.145-0.676s-0.701-0.453-0.906-0.789c-0.206-0.336-0.309-0.707-0.309-1.113
				c0-0.37,0.084-0.712,0.254-1.027c0.169-0.315,0.399-0.577,0.691-0.785c0.219-0.161,0.517-0.298,0.895-0.41
				c0.377-0.112,0.782-0.168,1.215-0.168c0.651,0,1.223,0.094,1.715,0.281s0.855,0.441,1.09,0.762s0.396,0.749,0.484,1.285
				l-1.375,0.188c-0.062-0.427-0.244-0.761-0.543-1c-0.3-0.239-0.723-0.359-1.27-0.359c-0.646,0-1.107,0.106-1.383,0.32
				c-0.276,0.214-0.414,0.464-0.414,0.75c0,0.183,0.057,0.347,0.172,0.492c0.114,0.151,0.294,0.276,0.539,0.375
				c0.141,0.052,0.555,0.172,1.242,0.359c0.995,0.266,1.688,0.483,2.082,0.652c0.393,0.169,0.702,0.415,0.926,0.738
				c0.224,0.323,0.336,0.724,0.336,1.203c0,0.469-0.137,0.91-0.41,1.324s-0.668,0.734-1.184,0.961s-1.099,0.34-1.75,0.34
				c-1.078,0-1.9-0.224-2.465-0.672C310.446,54.93,310.085,54.266,309.929,53.386z"/>
			<path fill="#3C3C3B" d="M159.308,78.242V66.766h1.281v1.078c0.302-0.422,0.643-0.738,1.023-0.949
				c0.38-0.211,0.841-0.316,1.383-0.316c0.708,0,1.333,0.183,1.875,0.547c0.542,0.364,0.95,0.879,1.227,1.543
				c0.276,0.664,0.414,1.392,0.414,2.184c0,0.849-0.152,1.613-0.457,2.293s-0.748,1.2-1.328,1.562
				c-0.581,0.362-1.191,0.543-1.832,0.543c-0.469,0-0.89-0.099-1.262-0.297c-0.373-0.198-0.679-0.448-0.918-0.75v4.039H159.308z
				 M160.582,70.961c0,1.067,0.216,1.856,0.648,2.367c0.432,0.511,0.956,0.766,1.57,0.766c0.625,0,1.16-0.265,1.605-0.793
				s0.668-1.348,0.668-2.457c0-1.058-0.218-1.849-0.652-2.375c-0.435-0.526-0.955-0.789-1.559-0.789c-0.599,0-1.129,0.28-1.59,0.84
				S160.582,69.894,160.582,70.961z"/>
			<path fill="#3C3C3B" d="M168.191,75.062v-8.297h1.266v1.258c0.323-0.589,0.621-0.977,0.895-1.164s0.574-0.281,0.902-0.281
				c0.474,0,0.956,0.151,1.445,0.453l-0.484,1.305c-0.344-0.203-0.688-0.305-1.031-0.305c-0.308,0-0.583,0.093-0.828,0.277
				c-0.245,0.185-0.419,0.441-0.523,0.77c-0.156,0.5-0.234,1.047-0.234,1.641v4.344H168.191z"/>
			<path fill="#3C3C3B" d="M173.011,70.914c0-1.536,0.427-2.675,1.281-3.414c0.713-0.614,1.583-0.922,2.609-0.922
				c1.141,0,2.073,0.374,2.797,1.121c0.724,0.747,1.086,1.78,1.086,3.098c0,1.067-0.16,1.907-0.48,2.52s-0.787,1.087-1.398,1.426
				c-0.612,0.339-1.28,0.508-2.004,0.508c-1.162,0-2.101-0.372-2.816-1.117C173.369,73.388,173.011,72.315,173.011,70.914z
				 M174.457,70.914c0,1.062,0.231,1.858,0.695,2.387c0.463,0.528,1.047,0.793,1.75,0.793c0.698,0,1.278-0.266,1.742-0.797
				c0.463-0.531,0.695-1.341,0.695-2.43c0-1.026-0.233-1.804-0.699-2.332c-0.466-0.528-1.046-0.793-1.738-0.793
				c-0.703,0-1.287,0.263-1.75,0.789C174.688,69.058,174.457,69.852,174.457,70.914z"/>
			<path fill="#3C3C3B" d="M187.847,72.023l1.383,0.18c-0.151,0.953-0.538,1.699-1.16,2.238c-0.623,0.539-1.387,0.809-2.293,0.809
				c-1.136,0-2.048-0.371-2.738-1.113c-0.69-0.742-1.035-1.806-1.035-3.191c0-0.896,0.148-1.68,0.445-2.352s0.749-1.176,1.355-1.512
				c0.606-0.336,1.267-0.504,1.98-0.504c0.901,0,1.638,0.228,2.211,0.684c0.573,0.456,0.94,1.103,1.102,1.941l-1.367,0.211
				c-0.13-0.558-0.361-0.977-0.691-1.258c-0.331-0.281-0.73-0.422-1.199-0.422c-0.708,0-1.284,0.254-1.727,0.762
				c-0.443,0.508-0.664,1.312-0.664,2.41c0,1.114,0.213,1.925,0.641,2.43c0.427,0.505,0.984,0.758,1.672,0.758
				c0.552,0,1.013-0.169,1.383-0.508C187.514,73.247,187.748,72.727,187.847,72.023z"/>
			<path fill="#3C3C3B" d="M196.113,72.391l1.453,0.18c-0.229,0.849-0.654,1.508-1.273,1.977c-0.62,0.469-1.412,0.703-2.375,0.703
				c-1.214,0-2.176-0.374-2.887-1.121s-1.066-1.796-1.066-3.145c0-1.396,0.359-2.479,1.078-3.25s1.651-1.156,2.797-1.156
				c1.109,0,2.016,0.378,2.719,1.133s1.055,1.817,1.055,3.188c0,0.083-0.003,0.208-0.008,0.375h-6.188
				c0.052,0.911,0.31,1.609,0.773,2.094c0.463,0.484,1.042,0.727,1.734,0.727c0.516,0,0.956-0.136,1.32-0.406
				C195.61,73.417,195.899,72.984,196.113,72.391z M191.496,70.117h4.633c-0.062-0.698-0.24-1.222-0.531-1.57
				c-0.448-0.542-1.029-0.812-1.742-0.812c-0.646,0-1.189,0.216-1.629,0.648C191.786,68.815,191.542,69.394,191.496,70.117z"/>
			<path fill="#3C3C3B" d="M198.769,72.586l1.391-0.219c0.078,0.558,0.295,0.984,0.652,1.281c0.356,0.297,0.855,0.445,1.496,0.445
				c0.646,0,1.125-0.132,1.438-0.395s0.469-0.571,0.469-0.926c0-0.317-0.138-0.567-0.414-0.75c-0.193-0.125-0.672-0.284-1.438-0.477
				c-1.031-0.261-1.746-0.485-2.145-0.676s-0.701-0.453-0.906-0.789c-0.206-0.336-0.309-0.707-0.309-1.113
				c0-0.37,0.084-0.712,0.254-1.027c0.169-0.315,0.399-0.577,0.691-0.785c0.219-0.161,0.517-0.298,0.895-0.41
				c0.377-0.112,0.782-0.168,1.215-0.168c0.651,0,1.223,0.094,1.715,0.281s0.855,0.441,1.09,0.762s0.396,0.749,0.484,1.285
				l-1.375,0.188c-0.062-0.427-0.244-0.761-0.543-1c-0.3-0.239-0.723-0.359-1.27-0.359c-0.646,0-1.107,0.106-1.383,0.32
				c-0.276,0.214-0.414,0.464-0.414,0.75c0,0.183,0.057,0.347,0.172,0.492c0.114,0.151,0.294,0.276,0.539,0.375
				c0.141,0.052,0.555,0.172,1.242,0.359c0.995,0.266,1.688,0.483,2.082,0.652c0.393,0.169,0.702,0.415,0.926,0.738
				c0.224,0.323,0.336,0.724,0.336,1.203c0,0.469-0.137,0.91-0.41,1.324s-0.668,0.734-1.184,0.961s-1.099,0.34-1.75,0.34
				c-1.078,0-1.9-0.224-2.465-0.672C199.286,74.13,198.925,73.466,198.769,72.586z"/>
			<path fill="#3C3C3B" d="M206.808,70.914c0-1.536,0.427-2.675,1.281-3.414c0.713-0.614,1.583-0.922,2.609-0.922
				c1.141,0,2.073,0.374,2.797,1.121c0.724,0.747,1.086,1.78,1.086,3.098c0,1.067-0.16,1.907-0.48,2.52s-0.787,1.087-1.398,1.426
				c-0.612,0.339-1.28,0.508-2.004,0.508c-1.162,0-2.101-0.372-2.816-1.117C207.166,73.388,206.808,72.315,206.808,70.914z
				 M208.253,70.914c0,1.062,0.231,1.858,0.695,2.387c0.463,0.528,1.047,0.793,1.75,0.793c0.698,0,1.278-0.266,1.742-0.797
				c0.463-0.531,0.695-1.341,0.695-2.43c0-1.026-0.233-1.804-0.699-2.332c-0.466-0.528-1.046-0.793-1.738-0.793
				c-0.703,0-1.287,0.263-1.75,0.789C208.485,69.058,208.253,69.852,208.253,70.914z"/>
			<path fill="#3C3C3B" d="M215.667,72.586l1.391-0.219c0.078,0.558,0.295,0.984,0.652,1.281c0.356,0.297,0.855,0.445,1.496,0.445
				c0.646,0,1.125-0.132,1.438-0.395s0.469-0.571,0.469-0.926c0-0.317-0.138-0.567-0.414-0.75c-0.193-0.125-0.672-0.284-1.438-0.477
				c-1.031-0.261-1.746-0.485-2.145-0.676s-0.701-0.453-0.906-0.789c-0.206-0.336-0.309-0.707-0.309-1.113
				c0-0.37,0.084-0.712,0.254-1.027c0.169-0.315,0.399-0.577,0.691-0.785c0.219-0.161,0.517-0.298,0.895-0.41
				c0.377-0.112,0.782-0.168,1.215-0.168c0.651,0,1.223,0.094,1.715,0.281s0.855,0.441,1.09,0.762s0.396,0.749,0.484,1.285
				l-1.375,0.188c-0.062-0.427-0.244-0.761-0.543-1c-0.3-0.239-0.723-0.359-1.27-0.359c-0.646,0-1.107,0.106-1.383,0.32
				c-0.276,0.214-0.414,0.464-0.414,0.75c0,0.183,0.057,0.347,0.172,0.492c0.114,0.151,0.294,0.276,0.539,0.375
				c0.141,0.052,0.555,0.172,1.242,0.359c0.995,0.266,1.688,0.483,2.082,0.652c0.393,0.169,0.702,0.415,0.926,0.738
				c0.224,0.323,0.336,0.724,0.336,1.203c0,0.469-0.137,0.91-0.41,1.324s-0.668,0.734-1.184,0.961s-1.099,0.34-1.75,0.34
				c-1.078,0-1.9-0.224-2.465-0.672C216.184,74.13,215.824,73.466,215.667,72.586z"/>
			<path fill="#3C3C3B" d="M226.886,78.281l0.266-1.195c0.281,0.073,0.502,0.109,0.664,0.109c0.286,0,0.5-0.095,0.641-0.285
				s0.211-0.665,0.211-1.426v-8.719h1.406v8.75c0,1.021-0.133,1.731-0.398,2.133c-0.339,0.521-0.901,0.781-1.688,0.781
				C227.608,78.43,227.241,78.38,226.886,78.281z M228.667,65.242v-1.633h1.406v1.633H228.667z"/>
			<path fill="#3C3C3B" d="M237.667,75.062v-1.219c-0.646,0.938-1.523,1.406-2.633,1.406c-0.49,0-0.947-0.094-1.371-0.281
				c-0.425-0.188-0.74-0.423-0.945-0.707c-0.206-0.284-0.351-0.632-0.434-1.043c-0.058-0.276-0.086-0.714-0.086-1.312v-5.141h1.406
				v4.602c0,0.734,0.028,1.229,0.086,1.484c0.088,0.37,0.276,0.66,0.562,0.871c0.286,0.211,0.641,0.316,1.062,0.316
				s0.817-0.108,1.188-0.324c0.37-0.216,0.631-0.511,0.785-0.883c0.153-0.372,0.23-0.913,0.23-1.621v-4.445h1.406v8.297H237.667z"/>
			<path fill="#3C3C3B" d="M246.511,75.062v-1.047c-0.526,0.823-1.3,1.234-2.32,1.234c-0.662,0-1.27-0.183-1.824-0.547
				s-0.984-0.874-1.289-1.527s-0.457-1.405-0.457-2.254c0-0.828,0.138-1.579,0.414-2.254c0.276-0.675,0.69-1.191,1.242-1.551
				c0.552-0.359,1.169-0.539,1.852-0.539c0.5,0,0.945,0.105,1.336,0.316s0.708,0.485,0.953,0.824v-4.109h1.398v11.453H246.511z
				 M242.066,70.922c0,1.062,0.224,1.856,0.672,2.383c0.448,0.526,0.977,0.789,1.586,0.789c0.614,0,1.137-0.251,1.566-0.754
				s0.645-1.27,0.645-2.301c0-1.136-0.219-1.969-0.656-2.5s-0.977-0.797-1.617-0.797c-0.625,0-1.147,0.255-1.566,0.766
				C242.275,69.019,242.066,69.823,242.066,70.922z"/>
			<path fill="#3C3C3B" d="M250.035,65.227v-1.617h1.406v1.617H250.035z M250.035,75.062v-8.297h1.406v8.297H250.035z"/>
			<path fill="#3C3C3B" d="M258.996,72.023l1.383,0.18c-0.151,0.953-0.538,1.699-1.16,2.238c-0.623,0.539-1.387,0.809-2.293,0.809
				c-1.136,0-2.048-0.371-2.738-1.113c-0.69-0.742-1.035-1.806-1.035-3.191c0-0.896,0.148-1.68,0.445-2.352s0.749-1.176,1.355-1.512
				c0.606-0.336,1.267-0.504,1.98-0.504c0.901,0,1.638,0.228,2.211,0.684c0.573,0.456,0.94,1.103,1.102,1.941l-1.367,0.211
				c-0.13-0.558-0.361-0.977-0.691-1.258c-0.331-0.281-0.73-0.422-1.199-0.422c-0.708,0-1.284,0.254-1.727,0.762
				c-0.443,0.508-0.664,1.312-0.664,2.41c0,1.114,0.213,1.925,0.641,2.43c0.427,0.505,0.984,0.758,1.672,0.758
				c0.552,0,1.013-0.169,1.383-0.508C258.662,73.247,258.896,72.727,258.996,72.023z"/>
			<path fill="#3C3C3B" d="M261.589,65.227v-1.617h1.406v1.617H261.589z M261.589,75.062v-8.297h1.406v8.297H261.589z"/>
			<path fill="#3C3C3B" d="M270.55,74.039c-0.521,0.442-1.022,0.755-1.504,0.938c-0.482,0.183-0.999,0.273-1.551,0.273
				c-0.912,0-1.612-0.223-2.102-0.668c-0.49-0.445-0.734-1.015-0.734-1.707c0-0.406,0.092-0.777,0.277-1.113
				c0.185-0.336,0.427-0.605,0.727-0.809c0.299-0.203,0.637-0.356,1.012-0.461c0.276-0.073,0.692-0.144,1.25-0.211
				c1.135-0.136,1.971-0.297,2.508-0.484c0.005-0.192,0.008-0.315,0.008-0.367c0-0.573-0.133-0.977-0.398-1.211
				c-0.359-0.317-0.894-0.477-1.602-0.477c-0.662,0-1.15,0.116-1.465,0.348c-0.315,0.231-0.548,0.642-0.699,1.23l-1.375-0.188
				c0.125-0.589,0.331-1.063,0.617-1.426c0.286-0.362,0.7-0.641,1.242-0.836c0.542-0.195,1.169-0.293,1.883-0.293
				c0.708,0,1.284,0.083,1.727,0.25c0.442,0.167,0.768,0.376,0.977,0.629c0.208,0.253,0.354,0.571,0.438,0.957
				c0.047,0.239,0.07,0.672,0.07,1.297v1.875c0,1.308,0.03,2.134,0.09,2.48c0.06,0.347,0.178,0.679,0.355,0.996h-1.469
				C270.686,74.771,270.592,74.43,270.55,74.039z M270.433,70.898c-0.511,0.208-1.276,0.386-2.297,0.531
				c-0.578,0.083-0.987,0.177-1.227,0.281c-0.24,0.104-0.425,0.257-0.555,0.457c-0.13,0.2-0.195,0.423-0.195,0.668
				c0,0.375,0.142,0.688,0.426,0.938c0.284,0.25,0.699,0.375,1.246,0.375c0.542,0,1.023-0.118,1.445-0.355s0.731-0.562,0.93-0.973
				c0.151-0.317,0.227-0.786,0.227-1.406V70.898z"/>
			<path fill="#3C3C3B" d="M274.003,75.062V63.609h1.406v11.453H274.003z"/>
			<path fill="#3C3C3B" d="M283.269,72.391l1.453,0.18c-0.229,0.849-0.654,1.508-1.273,1.977c-0.62,0.469-1.412,0.703-2.375,0.703
				c-1.214,0-2.176-0.374-2.887-1.121s-1.066-1.796-1.066-3.145c0-1.396,0.359-2.479,1.078-3.25s1.651-1.156,2.797-1.156
				c1.109,0,2.016,0.378,2.719,1.133s1.055,1.817,1.055,3.188c0,0.083-0.003,0.208-0.008,0.375h-6.188
				c0.052,0.911,0.31,1.609,0.773,2.094c0.463,0.484,1.042,0.727,1.734,0.727c0.516,0,0.956-0.136,1.32-0.406
				C282.766,73.417,283.055,72.984,283.269,72.391z M278.652,70.117h4.633c-0.062-0.698-0.24-1.222-0.531-1.57
				c-0.448-0.542-1.029-0.812-1.742-0.812c-0.646,0-1.189,0.216-1.629,0.648C278.942,68.815,278.699,69.394,278.652,70.117z"/>
			<path fill="#3C3C3B" d="M285.925,72.586l1.391-0.219c0.078,0.558,0.295,0.984,0.652,1.281c0.356,0.297,0.855,0.445,1.496,0.445
				c0.646,0,1.125-0.132,1.438-0.395s0.469-0.571,0.469-0.926c0-0.317-0.138-0.567-0.414-0.75c-0.193-0.125-0.672-0.284-1.438-0.477
				c-1.031-0.261-1.746-0.485-2.145-0.676s-0.701-0.453-0.906-0.789c-0.206-0.336-0.309-0.707-0.309-1.113
				c0-0.37,0.084-0.712,0.254-1.027c0.169-0.315,0.399-0.577,0.691-0.785c0.219-0.161,0.517-0.298,0.895-0.41
				c0.377-0.112,0.782-0.168,1.215-0.168c0.651,0,1.223,0.094,1.715,0.281s0.855,0.441,1.09,0.762s0.396,0.749,0.484,1.285
				l-1.375,0.188c-0.062-0.427-0.244-0.761-0.543-1c-0.3-0.239-0.723-0.359-1.27-0.359c-0.646,0-1.107,0.106-1.383,0.32
				c-0.276,0.214-0.414,0.464-0.414,0.75c0,0.183,0.057,0.347,0.172,0.492c0.114,0.151,0.294,0.276,0.539,0.375
				c0.141,0.052,0.555,0.172,1.242,0.359c0.995,0.266,1.688,0.483,2.082,0.652c0.393,0.169,0.702,0.415,0.926,0.738
				c0.224,0.323,0.336,0.724,0.336,1.203c0,0.469-0.137,0.91-0.41,1.324s-0.668,0.734-1.184,0.961s-1.099,0.34-1.75,0.34
				c-1.078,0-1.9-0.224-2.465-0.672C286.442,74.13,286.082,73.466,285.925,72.586z"/>
			<path fill="#3C3C3B" d="M294.886,75.062v-1.602h1.602v1.602H294.886z"/>
		</g>
	</g>
	<g>
		<g>
			<polyline fill="none" stroke="#951B81" stroke-miterlimit="10" points="454.716,98.005 454.716,98.505 454.216,98.505 			"/>
			
				<line fill="none" stroke="#951B81" stroke-miterlimit="10" stroke-dasharray="1.0005,1.0005" x1="453.216" y1="98.505" x2="1.5" y2="98.505"/>
			<polyline fill="none" stroke="#951B81" stroke-miterlimit="10" points="1,98.505 0.5,98.505 0.5,98.005 			"/>
			<line fill="none" stroke="#951B81" stroke-miterlimit="10" stroke-dasharray="1,1" x1="0.5" y1="97.005" x2="0.5" y2="1.5"/>
			<polyline fill="none" stroke="#951B81" stroke-miterlimit="10" points="0.5,1 0.5,0.5 1,0.5 			"/>
			
				<line fill="none" stroke="#951B81" stroke-miterlimit="10" stroke-dasharray="1.0005,1.0005" x1="2.001" y1="0.5" x2="453.716" y2="0.5"/>
			<polyline fill="none" stroke="#951B81" stroke-miterlimit="10" points="454.216,0.5 454.716,0.5 454.716,1 			"/>
			
				<line fill="none" stroke="#951B81" stroke-miterlimit="10" stroke-dasharray="1,1" x1="454.716" y1="2" x2="454.716" y2="97.505"/>
		</g>
	</g>
</g>
</svg>
