<?xml version="1.0" encoding="utf-8"?>
<!-- Generator: Adobe Illustrator 16.0.0, SVG Export Plug-In . SVG Version: 6.00 Build 0)  -->
<!DOCTYPE svg PUBLIC "-//W3C//DTD SVG 1.1//EN" "http://www.w3.org/Graphics/SVG/1.1/DTD/svg11.dtd">
<svg version="1.1" id="Capa_1" xmlns="http://www.w3.org/2000/svg" xmlns:xlink="http://www.w3.org/1999/xlink" x="0px" y="0px"
	 width="636.835px" height="208.553px" viewBox="0 0 636.835 208.553" enable-background="new 0 0 636.835 208.553"
	 xml:space="preserve">
<g>
	<g>
		<circle fill="#951B81" cx="27.33" cy="180.931" r="2.551"/>
		<circle fill="#951B81" cx="21.136" cy="180.931" r="2.551"/>
		<circle fill="#951B81" cx="14.94" cy="180.931" r="2.55"/>
		<circle fill="#951B81" cx="21.136" cy="187.198" r="2.551"/>
		<circle fill="#951B81" cx="14.94" cy="187.198" r="2.55"/>
		<circle fill="#951B81" cx="8.746" cy="187.198" r="2.55"/>
		<circle fill="#951B81" cx="14.94" cy="193.466" r="2.55"/>
		<circle fill="#951B81" cx="8.746" cy="193.466" r="2.55"/>
		<circle fill="#951B81" cx="2.551" cy="193.466" r="2.551"/>
		<circle fill="#951B81" cx="21.136" cy="199.733" r="2.551"/>
		<circle fill="#951B81" cx="14.94" cy="199.733" r="2.55"/>
		<circle fill="#951B81" cx="8.746" cy="199.733" r="2.55"/>
		<circle fill="#951B81" cx="27.33" cy="206.001" r="2.551"/>
		<circle fill="#951B81" cx="21.136" cy="206.001" r="2.551"/>
		<circle fill="#951B81" cx="14.94" cy="206.001" r="2.55"/>
	</g>
	<g>
		<path fill="#331842" d="M48.481,18.319c0.023-2.854,0.034-5.789,0.034-8.812c0-3.029-0.011-6.141-0.034-9.33
			C49.787,0.06,50.99,0,52.092,0c3.065,0,5.325,0.457,6.778,1.371c1.976,1.253,3.009,3.567,3.1,6.944v0.914
			c0,2.895-0.375,4.96-1.124,6.194c-0.829,1.362-2.345,2.27-4.547,2.718c-1.272,0.263-2.668,0.394-4.19,0.394
			C50.973,18.535,49.764,18.463,48.481,18.319z M52.705,3.809c-0.193,2.784-0.29,5.476-0.29,8.073c0,0.981,0.011,1.946,0.034,2.896
			c0.397,0.067,0.777,0.102,1.141,0.102c0.999,0,1.839-0.258,2.521-0.773c0.931-0.694,1.396-2.251,1.396-4.672V9.382
			c-0.011-2.438-0.466-4.036-1.362-4.799c-0.693-0.575-1.516-0.862-2.47-0.862C53.369,3.72,53.045,3.749,52.705,3.809z"/>
		<path fill="#331842" d="M69.837,5.396c3.735,0.151,5.604,1.553,5.604,4.202v9.014l-3.968,0.051l-0.136-1.206
			c-0.818,0.694-1.902,1.041-3.253,1.041c-0.579,0-1.204-0.066-1.874-0.203c-2.01-0.372-3.014-1.531-3.014-3.479
			c0-0.237,0.017-0.491,0.051-0.762c0.227-2.007,2.14-3.01,5.739-3.01c0.692,0,1.454,0.038,2.282,0.114V9.687
			c0-1.193-0.505-1.79-1.516-1.79h-0.068c-0.08-0.009-0.153-0.014-0.221-0.014c-1.102,0-1.652,0.67-1.652,2.007v0.189l-4.053-0.254
			c0-2.954,1.907-4.431,5.722-4.431L69.837,5.396L69.837,5.396z M71.268,15.425V13.19c-0.488-0.076-0.931-0.114-1.328-0.114
			c-1.034,0-1.737,0.258-2.112,0.774c-0.228,0.312-0.341,0.604-0.341,0.876c0,0.339,0.182,0.639,0.545,0.9
			c0.284,0.203,0.653,0.306,1.107,0.306C69.718,15.933,70.428,15.764,71.268,15.425z"/>
		<path fill="#331842" d="M79.937,5.434l0.17,2.068c0.477-1.101,1.731-1.658,3.764-1.676h0.068c1.999,0,3.361,0.584,4.087,1.752
			c0.5,0.796,0.75,2.657,0.75,5.586c0,1.438-0.062,3.141-0.188,5.104h-4.121c0.147-2.615,0.221-4.644,0.221-6.081
			c0-0.72-0.017-1.295-0.051-1.728c-0.114-1.27-0.659-1.903-1.635-1.903s-1.59,0.339-1.839,1.016l0.17,9.204l-4.002,0.025
			c0-3.895-0.176-8.266-0.528-13.114L79.937,5.434z M77.246,4.062c0-2.539,1.135-3.81,3.406-3.81c1.135,0,2.015,0.317,2.64,0.952
			c0.522,0.524,1.005,0.787,1.448,0.787c0.091,0,0.176-0.009,0.255-0.025c0.511-0.127,0.767-0.697,0.767-1.714h2.554
			c0,2.539-1.135,3.81-3.406,3.81c-1.136,0-2.044-0.317-2.725-0.952c-0.568-0.533-1.056-0.8-1.465-0.8
			c-0.08,0-0.159,0.013-0.238,0.038c-0.454,0.127-0.681,0.697-0.681,1.714H77.246z"/>
		<path fill="#331842" d="M96.185,5.764c3.86,0,5.79,1.997,5.79,5.991c0,0.161-0.006,0.321-0.017,0.482
			c-0.159,4.325-2.214,6.509-6.166,6.551c-0.045,0.009-0.091,0.014-0.136,0.014c-3.758,0-5.637-2.045-5.637-6.133v-0.354
			C90.133,7.947,92.188,5.764,96.185,5.764z M95.623,8.658c-0.715,0.188-1.204,0.876-1.465,2.069
			c-0.159,0.711-0.238,1.426-0.238,2.146c0,0.482,0.034,0.969,0.102,1.46c0.182,1.22,0.766,1.851,1.754,1.893h0.12
			c0.919,0,1.55-0.453,1.89-1.358c0.284-0.753,0.426-1.646,0.426-2.679c0-0.254-0.006-0.512-0.017-0.774
			c-0.091-1.361-0.363-2.213-0.817-2.552c-0.284-0.203-0.625-0.305-1.022-0.305C96.127,8.557,95.883,8.591,95.623,8.658z"/>
	</g>
	<path fill="#951B81" d="M283.685,130.339h145.271c12.141,0,21.986,9.845,21.986,21.986l0,0c0,12.144-9.846,21.986-21.986,21.986
		H283.685"/>
	<path fill="#951B81" d="M250.293,117.867c8.325-3.461,17.488-3.586,25.8-0.356c0.199,0.077,0.397,0.155,0.594,0.235
		c7.617,3.119,13.885,8.861,17.648,16.167c2.319,4.498,6.169,8.029,10.842,9.943c3.071,1.257,6.443,1.775,9.753,1.504l11.394-0.649
		l0.514,10.946l-16.845,1.104c-6.837,0.588-13.038,4.555-16.588,10.611c-8.64,14.74-27.108,20.961-42.96,14.472
		c-8.704-3.563-15.443-10.328-18.975-19.047c-3.532-8.715-3.398-18.268,0.375-26.896
		C235.415,127.732,241.968,121.328,250.293,117.867z"/>
	
		<radialGradient id="SVGID_1_" cx="-7196.0952" cy="1503.5242" r="28.7671" gradientTransform="matrix(-0.9254 -0.3789 0.3789 -0.9254 -6965.3882 -1185.4429)" gradientUnits="userSpaceOnUse">
		<stop  offset="0" style="stop-color:#FFFFFF"/>
		<stop  offset="1" style="stop-color:#F2F2F2"/>
	</radialGradient>
	<circle fill="url(#SVGID_1_)" cx="263.564" cy="149.795" r="28.758"/>
	<g>
		<path fill="#FFFFFF" d="M321.46,158.891l-6.495-16.765h2.401l4.357,12.179c0.352,0.977,0.645,1.892,0.881,2.744
			c0.258-0.914,0.559-1.829,0.902-2.744l4.529-12.179h2.264l-6.564,16.765H321.46z"/>
		<path fill="#FFFFFF" d="M339.048,154.979l2.127,0.264c-0.336,1.242-0.957,2.207-1.865,2.894c-0.906,0.687-2.064,1.028-3.475,1.028
			c-1.777,0-3.186-0.547-4.225-1.641c-1.041-1.094-1.562-2.628-1.562-4.604c0-2.043,0.527-3.629,1.578-4.758
			c1.053-1.128,2.418-1.691,4.094-1.691c1.625,0,2.951,0.554,3.98,1.657c1.027,1.105,1.543,2.661,1.543,4.666
			c0,0.122-0.004,0.306-0.01,0.55h-9.057c0.076,1.334,0.453,2.354,1.131,3.063c0.68,0.709,1.525,1.063,2.539,1.063
			c0.756,0,1.4-0.198,1.934-0.596C338.314,156.479,338.736,155.849,339.048,154.979z M332.291,151.652h6.781
			c-0.092-1.021-0.352-1.788-0.779-2.299c-0.656-0.793-1.506-1.189-2.549-1.189c-0.945,0-1.74,0.317-2.385,0.949
			C332.714,149.746,332.359,150.594,332.291,151.652z"/>
		<path fill="#FFFFFF" d="M343.736,158.891v-12.145h1.854v1.841c0.473-0.86,0.908-1.43,1.309-1.703
			c0.4-0.274,0.842-0.412,1.32-0.412c0.695,0,1.4,0.222,2.115,0.664l-0.709,1.908c-0.502-0.297-1.006-0.445-1.51-0.445
			c-0.449,0-0.854,0.136-1.211,0.405c-0.359,0.271-0.615,0.646-0.768,1.127c-0.229,0.731-0.342,1.532-0.342,2.401v6.357
			L343.736,158.891L343.736,158.891z"/>
		<path fill="#FFFFFF" d="M358.064,158.891v-12.145h1.842v1.703c0.381-0.595,0.887-1.072,1.52-1.435s1.354-0.544,2.162-0.544
			c0.898,0,1.637,0.188,2.213,0.561c0.574,0.374,0.98,0.896,1.217,1.566c0.963-1.418,2.213-2.127,3.752-2.127
			c1.205,0,2.131,0.334,2.779,1.001s0.971,1.693,0.971,3.082v8.336h-2.047v-7.65c0-0.823-0.066-1.416-0.199-1.777
			s-0.375-0.653-0.727-0.875c-0.35-0.222-0.762-0.332-1.234-0.332c-0.854,0-1.562,0.284-2.127,0.854
			c-0.564,0.567-0.846,1.477-0.846,2.727v7.057h-2.059V151c0-0.914-0.168-1.601-0.502-2.058c-0.336-0.458-0.887-0.688-1.648-0.688
			c-0.578,0-1.115,0.152-1.605,0.458c-0.492,0.306-0.848,0.751-1.068,1.339c-0.221,0.587-0.332,1.433-0.332,2.537v6.302
			L358.064,158.891L358.064,158.891z"/>
		<path fill="#FFFFFF" d="M385.498,157.393c-0.762,0.647-1.496,1.104-2.201,1.372c-0.705,0.267-1.463,0.399-2.27,0.399
			c-1.334,0-2.361-0.326-3.076-0.978c-0.717-0.652-1.076-1.484-1.076-2.499c0-0.595,0.135-1.139,0.406-1.629
			c0.271-0.492,0.625-0.888,1.062-1.185c0.439-0.298,0.934-0.521,1.482-0.675c0.404-0.105,1.014-0.21,1.83-0.309
			c1.662-0.198,2.885-0.436,3.67-0.709c0.008-0.282,0.012-0.461,0.012-0.538c0-0.838-0.195-1.43-0.584-1.772
			c-0.525-0.465-1.307-0.697-2.344-0.697c-0.967,0-1.684,0.171-2.145,0.51c-0.461,0.34-0.801,0.938-1.021,1.802l-2.012-0.275
			c0.182-0.86,0.482-1.557,0.902-2.086c0.418-0.529,1.025-0.938,1.818-1.224s1.711-0.43,2.756-0.43c1.037,0,1.879,0.122,2.527,0.365
			c0.646,0.244,1.123,0.552,1.428,0.921c0.305,0.37,0.518,0.838,0.641,1.4c0.068,0.352,0.104,0.983,0.104,1.898v2.743
			c0,1.914,0.043,3.124,0.131,3.632c0.086,0.507,0.26,0.992,0.52,1.458h-2.148C385.695,158.464,385.558,157.965,385.498,157.393z
			 M385.326,152.796c-0.748,0.306-1.869,0.564-3.363,0.777c-0.846,0.122-1.445,0.26-1.795,0.412s-0.621,0.375-0.811,0.669
			c-0.191,0.293-0.287,0.619-0.287,0.978c0,0.55,0.209,1.007,0.623,1.372c0.416,0.366,1.023,0.55,1.824,0.55
			c0.793,0,1.498-0.174,2.115-0.521c0.617-0.347,1.07-0.821,1.361-1.424c0.221-0.465,0.332-1.15,0.332-2.059V152.796
			L385.326,152.796z"/>
		<path fill="#FFFFFF" d="M390.597,163.545v-16.798h1.875v1.577c0.441-0.617,0.941-1.08,1.498-1.389
			c0.557-0.31,1.23-0.464,2.023-0.464c1.037,0,1.951,0.268,2.744,0.801c0.793,0.534,1.391,1.286,1.795,2.259
			c0.404,0.972,0.605,2.037,0.605,3.196c0,1.242-0.223,2.36-0.668,3.354c-0.445,0.995-1.094,1.758-1.943,2.287
			c-0.852,0.53-1.744,0.795-2.682,0.795c-0.686,0-1.303-0.145-1.848-0.435s-0.992-0.655-1.344-1.099v5.912h-2.057V163.545z
			 M392.46,152.888c0,1.562,0.316,2.718,0.949,3.464c0.633,0.748,1.398,1.121,2.299,1.121c0.916,0,1.699-0.388,2.35-1.16
			c0.652-0.774,0.979-1.974,0.979-3.598c0-1.548-0.318-2.705-0.955-3.477c-0.637-0.77-1.396-1.154-2.281-1.154
			c-0.877,0-1.65,0.409-2.326,1.229S392.46,151.324,392.46,152.888z"/>
		<path fill="#FFFFFF" d="M411.546,157.393c-0.762,0.647-1.496,1.104-2.201,1.372c-0.705,0.267-1.463,0.399-2.27,0.399
			c-1.334,0-2.361-0.326-3.076-0.978c-0.717-0.652-1.076-1.484-1.076-2.499c0-0.595,0.135-1.139,0.406-1.629
			c0.271-0.492,0.625-0.888,1.062-1.185c0.439-0.298,0.934-0.521,1.482-0.675c0.404-0.105,1.014-0.21,1.83-0.309
			c1.662-0.198,2.885-0.436,3.67-0.709c0.008-0.282,0.012-0.461,0.012-0.538c0-0.838-0.193-1.43-0.584-1.772
			c-0.525-0.465-1.307-0.697-2.344-0.697c-0.967,0-1.682,0.171-2.143,0.51c-0.463,0.34-0.803,0.938-1.023,1.802l-2.012-0.275
			c0.182-0.86,0.482-1.557,0.902-2.086c0.418-0.529,1.025-0.938,1.818-1.224s1.711-0.43,2.756-0.43c1.037,0,1.879,0.122,2.527,0.365
			c0.646,0.244,1.123,0.552,1.428,0.921c0.305,0.37,0.52,0.838,0.641,1.4c0.068,0.352,0.104,0.983,0.104,1.898v2.743
			c0,1.914,0.043,3.124,0.131,3.632c0.086,0.507,0.26,0.992,0.521,1.458h-2.15C411.744,158.464,411.607,157.965,411.546,157.393z
			 M411.375,152.796c-0.748,0.306-1.869,0.564-3.363,0.777c-0.846,0.122-1.443,0.26-1.795,0.412
			c-0.35,0.152-0.621,0.375-0.811,0.669c-0.191,0.293-0.287,0.619-0.287,0.978c0,0.55,0.209,1.007,0.623,1.372
			c0.416,0.366,1.023,0.55,1.824,0.55c0.793,0,1.498-0.174,2.115-0.521c0.617-0.347,1.07-0.821,1.361-1.424
			c0.221-0.465,0.332-1.15,0.332-2.059V152.796L411.375,152.796z"/>
	</g>
	<path fill="#951B81" d="M264.533,152.131c0.108,0.229,0.258,0.438,0.307,0.667c0.152,0.708,0.621,1.108,1.274,1.244
		c0.776,0.161,1.571,0.277,2.362,0.312c1.565,0.067,3.135,0.019,4.698,0.104c2.976,0.161,5.942,0.292,8.887-0.345
		c1.135-0.245,2.072-0.707,2.435-1.912c0.177-0.59,0.256-1.198,0.149-1.808c-0.126-0.73-0.271-1.459-0.453-2.177
		c-0.058-0.226-0.228-0.455-0.411-0.604c-0.213-0.174-0.486-0.297-0.752-0.376c-1.139-0.337-2.308-0.294-3.475-0.224
		c-1.73,0.104-3.46,0.251-5.191,0.338c-1.901,0.095-3.805,0.136-5.707,0.214c-0.348,0.015-0.678,0.02-1.018-0.103
		c-0.432-0.152-0.872-0.104-1.281,0.119c-0.265,0.145-0.524,0.3-0.791,0.44c-0.672,0.354-1.071,0.927-1.188,1.652
		c-0.096,0.592-0.081,1.2-0.117,1.825c-0.781-0.034-1.618-0.062-2.375-0.438c-0.657-0.327-1.148-0.81-1.131-1.637
		c0.007-0.291-0.063-0.585-0.085-0.878c-0.081-1.099-0.157-2.195-0.237-3.295c-0.005-0.062-0.019-0.121-0.026-0.183
		c-0.035-0.301-0.069-0.601-0.099-0.857c1.899-0.112,3.726-0.188,5.547-0.34c1.391-0.115,2.776-0.307,4.159-0.502
		c0.509-0.072,0.995-0.257,1.342-0.69c0.467-0.584,0.806-1.188,0.94-1.969c0.344-1.998,0.42-3.981,0.15-5.991
		c-0.18-1.342-0.871-2.216-2.145-2.647c-0.898-0.306-1.819-0.407-2.765-0.332c-0.1,0.008-0.209-0.018-0.306-0.053
		c-0.101-0.035-0.194-0.15-0.285-0.146c-1.489,0.104-2.977,0.225-4.465,0.329c-0.953,0.068-1.907,0.167-2.861,0.167
		c-2.418-0.001-4.837-0.084-7.255-0.061c-0.898,0.009-1.792,0.054-2.641,0.604c-0.687,0.445-1.015,0.953-1.083,1.706
		c-0.144,1.617-0.161,3.234-0.005,4.853c0.035,0.365,0.077,0.73,0.094,1.098c0.026,0.565-0.018,1.138,0.061,1.695
		c0.105,0.747,0.431,1.428,1.099,1.832c0.784,0.476,1.684,0.382,2.569,0.366c-0.106-0.05-0.213-0.1-0.346-0.159
		c0.059-0.008,0.087-0.019,0.114-0.015c1.147,0.176,2.299,0.183,3.458,0.145c1.289-0.045,2.58-0.012,3.871-0.012
		c0.034,0.646,0.03,1.203,0.101,1.754c0.23,1.759,0.529,3.512,0.513,5.296c-0.014,1.479,0.044,2.964-0.058,4.437
		c-0.064,0.932-0.373,1.543-1.549,1.718c-0.232,0.035-0.271-0.034-0.329-0.232c-0.175-0.594-0.147-1.237-0.549-1.784
		c-0.37-0.503-0.812-0.88-1.408-0.959c-0.86-0.112-1.734-0.162-2.603-0.171c-1.44-0.017-2.881,0.024-4.321,0.033
		c-1.009,0.006-2.02-0.046-3.026,0.004c-0.771,0.039-1.535,0.216-2.307,0.298c-0.703,0.074-1.276,0.451-1.42,1.14
		c-0.13,0.619-0.167,1.268-0.166,1.902c0.002,0.628,0.068,1.261,0.169,1.881c0.08,0.48,0.215,0.962,0.406,1.409
		c0.213,0.499,0.644,0.761,1.203,0.771c0.156,0.004,0.313,0.01,0.469,0.024c0.636,0.063,1.273,0.204,1.906,0.187
		c1.901-0.052,3.801-0.154,5.7-0.256c1.207-0.062,2.413-0.143,3.618-0.236c1.253-0.101,2.168-0.788,2.414-1.866
		c0.102-0.44,0.062-0.914,0.076-1.374c0.005-0.15-0.019-0.303-0.03-0.464c0.789-0.034,1.357-0.409,1.832-1.021
		c0.027,0.117,0.04,0.188,0.061,0.256c0.217,0.699,0.387,1.418,0.663,2.093c0.452,1.104,1.205,1.947,2.396,2.293
		c0.448,0.13,0.917,0.192,1.406,0.294c0.001,0.008,0.017,0.056,0.023,0.105c0.1,0.903,0.5,1.658,1.152,2.278
		c0.155,0.146,0.346,0.282,0.546,0.355c0.278,0.104,0.581,0.141,0.872,0.211c0.97,0.235,1.961,0.271,2.946,0.22
		c3.968-0.209,7.936-0.438,11.901-0.681c0.473-0.027,0.94-0.072,1.331-0.513c0.391-0.438,0.702-0.884,0.74-1.449
		c0.06-0.898,0.108-1.81,0.043-2.706c-0.111-1.5-0.741-2.133-2.233-2.34c-1.217-0.168-2.433-0.032-3.646,0.104
		c-1.347,0.15-2.693,0.373-4.042,0.394c-1.89,0.029-3.783-0.067-5.671-0.176c-1.081-0.063-2.047,0.228-3.01,0.65
		c-0.749,0.329-1.136,0.87-1.121,1.688c0.005,0.322,0.027,0.645,0.042,0.979c-0.118,0-0.223,0.011-0.323-0.002
		c-0.364-0.046-0.725-0.122-1.09-0.141c-0.502-0.024-0.904-0.2-1.226-0.596c-0.524-0.645-0.732-1.406-0.878-2.197
		c-0.286-1.562-0.269-3.137-0.212-4.716c0.025-0.698,0.004-1.398,0.004-2.146C261.918,151.879,263.164,152.192,264.533,152.131z"/>
</g>
</svg>
