<?xml version="1.0" encoding="utf-8"?>
<!-- Generator: Adobe Illustrator 16.0.0, SVG Export Plug-In . SVG Version: 6.00 Build 0)  -->
<!DOCTYPE svg PUBLIC "-//W3C//DTD SVG 1.1//EN" "http://www.w3.org/Graphics/SVG/1.1/DTD/svg11.dtd">
<svg version="1.1" id="Capa_1" xmlns="http://www.w3.org/2000/svg" xmlns:xlink="http://www.w3.org/1999/xlink" x="0px" y="0px"
	 width="526.712px" height="210.547px" viewBox="0 0 526.712 210.547" enable-background="new 0 0 526.712 210.547"
	 xml:space="preserve">
<g>
	<g>
		<g>
			<path fill="#3C3C3B" d="M251.407,166.201l1.43-0.125c0.067,0.574,0.225,1.043,0.473,1.41c0.247,0.367,0.631,0.664,1.152,0.891
				c0.521,0.227,1.106,0.34,1.758,0.34c0.578,0,1.088-0.086,1.531-0.258c0.442-0.172,0.772-0.406,0.988-0.707
				c0.216-0.299,0.324-0.625,0.324-0.98c0-0.359-0.104-0.672-0.312-0.941c-0.208-0.268-0.552-0.492-1.031-0.676
				c-0.308-0.119-0.987-0.305-2.039-0.559c-1.052-0.252-1.789-0.49-2.211-0.715c-0.547-0.285-0.955-0.641-1.223-1.066
				c-0.269-0.424-0.402-0.898-0.402-1.426c0-0.578,0.164-1.117,0.492-1.621c0.328-0.502,0.807-0.883,1.438-1.145
				c0.63-0.26,1.331-0.391,2.102-0.391c0.849,0,1.598,0.137,2.246,0.41s1.147,0.676,1.496,1.207
				c0.349,0.531,0.536,1.133,0.562,1.805l-1.453,0.109c-0.078-0.723-0.343-1.27-0.793-1.641c-0.451-0.369-1.116-0.555-1.996-0.555
				c-0.917,0-1.585,0.168-2.004,0.504c-0.419,0.336-0.629,0.742-0.629,1.215c0,0.412,0.148,0.75,0.445,1.016
				c0.292,0.266,1.053,0.539,2.285,0.816c1.231,0.279,2.077,0.523,2.535,0.73c0.667,0.309,1.159,0.697,1.477,1.168
				c0.317,0.473,0.477,1.016,0.477,1.629c0,0.609-0.175,1.184-0.523,1.723c-0.349,0.539-0.851,0.959-1.504,1.258
				c-0.654,0.301-1.39,0.449-2.207,0.449c-1.037,0-1.905-0.15-2.605-0.453c-0.701-0.301-1.25-0.756-1.648-1.363
				C251.638,167.654,251.428,166.967,251.407,166.201z"/>
			<path fill="#3C3C3B" d="M268.095,167.209l1.453,0.18c-0.229,0.85-0.654,1.508-1.273,1.977c-0.62,0.469-1.412,0.703-2.375,0.703
				c-1.214,0-2.176-0.373-2.887-1.121c-0.711-0.746-1.066-1.795-1.066-3.145c0-1.395,0.359-2.479,1.078-3.25
				c0.719-0.77,1.651-1.156,2.797-1.156c1.109,0,2.016,0.379,2.719,1.133c0.703,0.756,1.055,1.818,1.055,3.188
				c0,0.084-0.003,0.209-0.008,0.375h-6.188c0.052,0.912,0.31,1.609,0.773,2.094c0.463,0.484,1.042,0.727,1.734,0.727
				c0.516,0,0.956-0.135,1.32-0.406C267.592,168.236,267.881,167.803,268.095,167.209z M263.478,164.936h4.633
				c-0.062-0.697-0.24-1.221-0.531-1.57c-0.448-0.541-1.029-0.812-1.742-0.812c-0.646,0-1.189,0.217-1.629,0.648
				C263.768,163.635,263.524,164.213,263.478,164.936z"/>
			<path fill="#3C3C3B" d="M271.313,169.881v-8.297h1.266v1.18c0.609-0.91,1.489-1.367,2.641-1.367c0.5,0,0.959,0.09,1.379,0.27
				c0.419,0.18,0.733,0.416,0.941,0.707c0.208,0.293,0.354,0.639,0.438,1.039c0.052,0.262,0.078,0.717,0.078,1.367v5.102h-1.406
				v-5.047c0-0.572-0.055-1-0.164-1.285c-0.109-0.283-0.304-0.51-0.582-0.68c-0.279-0.168-0.605-0.254-0.98-0.254
				c-0.599,0-1.116,0.191-1.551,0.57c-0.435,0.381-0.652,1.102-0.652,2.164v4.531H271.313z"/>
			<path fill="#3C3C3B" d="M283.282,168.623l0.203,1.242c-0.396,0.084-0.75,0.125-1.062,0.125c-0.511,0-0.906-0.08-1.188-0.242
				c-0.281-0.16-0.479-0.373-0.594-0.637c-0.115-0.262-0.172-0.816-0.172-1.66v-4.773h-1.031v-1.094h1.031v-2.055l1.398-0.844v2.898
				h1.414v1.094h-1.414v4.852c0,0.402,0.024,0.66,0.074,0.773c0.049,0.115,0.13,0.207,0.242,0.273
				c0.112,0.068,0.272,0.102,0.48,0.102C282.821,168.678,283.027,168.66,283.282,168.623z"/>
			<path fill="#3C3C3B" d="M290.337,167.209l1.453,0.18c-0.229,0.85-0.654,1.508-1.273,1.977c-0.62,0.469-1.412,0.703-2.375,0.703
				c-1.214,0-2.176-0.373-2.887-1.121c-0.711-0.746-1.066-1.795-1.066-3.145c0-1.395,0.359-2.479,1.078-3.25
				c0.719-0.77,1.651-1.156,2.797-1.156c1.109,0,2.016,0.379,2.719,1.133c0.703,0.756,1.055,1.818,1.055,3.188
				c0,0.084-0.003,0.209-0.008,0.375h-6.188c0.052,0.912,0.31,1.609,0.773,2.094c0.463,0.484,1.042,0.727,1.734,0.727
				c0.516,0,0.956-0.135,1.32-0.406C289.834,168.236,290.123,167.803,290.337,167.209z M285.72,164.936h4.633
				c-0.062-0.697-0.24-1.221-0.531-1.57c-0.448-0.541-1.029-0.812-1.742-0.812c-0.646,0-1.189,0.217-1.629,0.648
				C286.01,163.635,285.767,164.213,285.72,164.936z"/>
			<path fill="#3C3C3B" d="M293.556,169.881v-8.297h1.266v1.18c0.609-0.91,1.489-1.367,2.641-1.367c0.5,0,0.959,0.09,1.379,0.27
				c0.419,0.18,0.733,0.416,0.941,0.707c0.208,0.293,0.354,0.639,0.438,1.039c0.052,0.262,0.078,0.717,0.078,1.367v5.102h-1.406
				v-5.047c0-0.572-0.055-1-0.164-1.285c-0.109-0.283-0.304-0.51-0.582-0.68c-0.279-0.168-0.605-0.254-0.98-0.254
				c-0.599,0-1.116,0.191-1.551,0.57c-0.435,0.381-0.652,1.102-0.652,2.164v4.531H293.556z"/>
			<path fill="#3C3C3B" d="M307.868,166.842l1.383,0.18c-0.151,0.953-0.538,1.699-1.16,2.238c-0.623,0.539-1.387,0.809-2.293,0.809
				c-1.136,0-2.048-0.371-2.738-1.113c-0.69-0.742-1.035-1.805-1.035-3.191c0-0.895,0.148-1.68,0.445-2.352s0.749-1.176,1.355-1.512
				c0.606-0.336,1.267-0.504,1.98-0.504c0.901,0,1.638,0.229,2.211,0.684c0.573,0.457,0.94,1.104,1.102,1.941l-1.367,0.211
				c-0.13-0.557-0.361-0.977-0.691-1.258c-0.331-0.281-0.73-0.422-1.199-0.422c-0.708,0-1.284,0.254-1.727,0.762
				c-0.443,0.508-0.664,1.312-0.664,2.41c0,1.115,0.213,1.926,0.641,2.43c0.427,0.506,0.984,0.758,1.672,0.758
				c0.552,0,1.013-0.168,1.383-0.508C307.535,168.066,307.769,167.545,307.868,166.842z"/>
			<path fill="#3C3C3B" d="M310.462,160.045v-1.617h1.406v1.617H310.462z M310.462,169.881v-8.297h1.406v8.297H310.462z"/>
			<path fill="#3C3C3B" d="M319.423,168.857c-0.521,0.443-1.022,0.756-1.504,0.938c-0.482,0.184-0.999,0.273-1.551,0.273
				c-0.912,0-1.612-0.223-2.102-0.668c-0.49-0.445-0.734-1.014-0.734-1.707c0-0.406,0.092-0.777,0.277-1.113
				c0.185-0.336,0.427-0.605,0.727-0.809c0.299-0.203,0.637-0.355,1.012-0.461c0.276-0.072,0.692-0.143,1.25-0.211
				c1.135-0.135,1.971-0.297,2.508-0.484c0.005-0.191,0.008-0.314,0.008-0.367c0-0.572-0.133-0.977-0.398-1.211
				c-0.359-0.316-0.894-0.477-1.602-0.477c-0.662,0-1.15,0.117-1.465,0.348c-0.315,0.232-0.548,0.643-0.699,1.23l-1.375-0.188
				c0.125-0.588,0.331-1.062,0.617-1.426c0.286-0.361,0.7-0.641,1.242-0.836c0.542-0.195,1.169-0.293,1.883-0.293
				c0.708,0,1.284,0.084,1.727,0.25c0.442,0.168,0.768,0.377,0.977,0.629c0.208,0.254,0.354,0.572,0.438,0.957
				c0.047,0.24,0.07,0.672,0.07,1.297v1.875c0,1.309,0.03,2.135,0.09,2.48c0.06,0.348,0.178,0.68,0.355,0.996h-1.469
				C319.558,169.59,319.464,169.248,319.423,168.857z M319.306,165.717c-0.511,0.209-1.276,0.387-2.297,0.531
				c-0.578,0.084-0.987,0.178-1.227,0.281c-0.24,0.105-0.425,0.258-0.555,0.457c-0.13,0.201-0.195,0.424-0.195,0.668
				c0,0.375,0.142,0.688,0.426,0.938c0.284,0.25,0.699,0.375,1.246,0.375c0.542,0,1.023-0.117,1.445-0.355
				c0.422-0.236,0.731-0.561,0.93-0.973c0.151-0.316,0.227-0.785,0.227-1.406V165.717z"/>
			<path fill="#3C3C3B" d="M322.345,167.404l1.391-0.219c0.078,0.559,0.295,0.984,0.652,1.281c0.356,0.297,0.855,0.445,1.496,0.445
				c0.646,0,1.125-0.131,1.438-0.395c0.312-0.262,0.469-0.57,0.469-0.926c0-0.316-0.138-0.566-0.414-0.75
				c-0.193-0.125-0.672-0.283-1.438-0.477c-1.031-0.26-1.746-0.484-2.145-0.676c-0.398-0.189-0.701-0.453-0.906-0.789
				c-0.206-0.336-0.309-0.707-0.309-1.113c0-0.369,0.084-0.711,0.254-1.027c0.169-0.314,0.399-0.576,0.691-0.785
				c0.219-0.16,0.517-0.297,0.895-0.41c0.377-0.111,0.782-0.168,1.215-0.168c0.651,0,1.223,0.094,1.715,0.281
				s0.855,0.441,1.09,0.762s0.396,0.75,0.484,1.285l-1.375,0.188c-0.062-0.426-0.244-0.76-0.543-1
				c-0.3-0.238-0.723-0.359-1.27-0.359c-0.646,0-1.107,0.107-1.383,0.32c-0.276,0.215-0.414,0.465-0.414,0.75
				c0,0.184,0.057,0.348,0.172,0.492c0.114,0.152,0.294,0.277,0.539,0.375c0.141,0.053,0.555,0.172,1.242,0.359
				c0.995,0.266,1.688,0.484,2.082,0.652c0.393,0.17,0.702,0.416,0.926,0.738c0.224,0.324,0.336,0.725,0.336,1.203
				c0,0.469-0.137,0.91-0.41,1.324s-0.668,0.734-1.184,0.961s-1.099,0.34-1.75,0.34c-1.078,0-1.9-0.223-2.465-0.672
				C322.861,168.949,322.501,168.285,322.345,167.404z"/>
			<path fill="#3C3C3B" d="M340.735,169.881v-1.047c-0.526,0.824-1.3,1.234-2.32,1.234c-0.662,0-1.27-0.182-1.824-0.547
				c-0.555-0.363-0.984-0.873-1.289-1.527c-0.305-0.652-0.457-1.404-0.457-2.254c0-0.828,0.138-1.578,0.414-2.254
				c0.276-0.674,0.69-1.191,1.242-1.551c0.552-0.359,1.169-0.539,1.852-0.539c0.5,0,0.945,0.105,1.336,0.316
				s0.708,0.486,0.953,0.824v-4.109h1.398v11.453H340.735z M336.29,165.74c0,1.062,0.224,1.857,0.672,2.383
				c0.448,0.527,0.977,0.789,1.586,0.789c0.614,0,1.137-0.25,1.566-0.754c0.43-0.502,0.645-1.27,0.645-2.301
				c0-1.135-0.219-1.969-0.656-2.5s-0.977-0.797-1.617-0.797c-0.625,0-1.147,0.256-1.566,0.766
				C336.5,163.838,336.29,164.643,336.29,165.74z"/>
			<path fill="#3C3C3B" d="M349.931,167.209l1.453,0.18c-0.229,0.85-0.654,1.508-1.273,1.977c-0.62,0.469-1.412,0.703-2.375,0.703
				c-1.214,0-2.176-0.373-2.887-1.121c-0.711-0.746-1.066-1.795-1.066-3.145c0-1.395,0.359-2.479,1.078-3.25
				c0.719-0.77,1.651-1.156,2.797-1.156c1.109,0,2.016,0.379,2.719,1.133c0.703,0.756,1.055,1.818,1.055,3.188
				c0,0.084-0.003,0.209-0.008,0.375h-6.188c0.052,0.912,0.31,1.609,0.773,2.094c0.463,0.484,1.042,0.727,1.734,0.727
				c0.516,0,0.956-0.135,1.32-0.406C349.428,168.236,349.717,167.803,349.931,167.209z M345.313,164.936h4.633
				c-0.062-0.697-0.24-1.221-0.531-1.57c-0.448-0.541-1.029-0.812-1.742-0.812c-0.646,0-1.189,0.217-1.629,0.648
				C345.604,163.635,345.36,164.213,345.313,164.936z"/>
			<path fill="#3C3C3B" d="M357.001,166.631l1.367-0.188c0.036,0.875,0.2,1.475,0.492,1.797c0.292,0.324,0.695,0.484,1.211,0.484
				c0.38,0,0.708-0.086,0.984-0.262c0.276-0.174,0.466-0.41,0.57-0.711c0.104-0.299,0.156-0.777,0.156-1.434v-7.891h1.516v7.805
				c0,0.959-0.116,1.701-0.348,2.227c-0.232,0.527-0.599,0.928-1.102,1.203c-0.503,0.277-1.093,0.414-1.77,0.414
				c-1.005,0-1.775-0.289-2.309-0.867C357.236,168.631,356.98,167.771,357.001,166.631z"/>
			<path fill="#3C3C3B" d="M371.032,169.881v-1.219c-0.646,0.938-1.523,1.406-2.633,1.406c-0.49,0-0.947-0.094-1.371-0.281
				c-0.425-0.188-0.74-0.422-0.945-0.707c-0.206-0.283-0.351-0.631-0.434-1.043c-0.058-0.275-0.086-0.713-0.086-1.312v-5.141h1.406
				v4.602c0,0.734,0.028,1.23,0.086,1.484c0.088,0.371,0.276,0.66,0.562,0.871c0.286,0.211,0.641,0.316,1.062,0.316
				s0.817-0.107,1.188-0.324c0.37-0.215,0.631-0.51,0.785-0.883c0.153-0.371,0.23-0.912,0.23-1.621v-4.445h1.406v8.297H371.032z"/>
			<path fill="#3C3C3B" d="M373.931,167.404l1.391-0.219c0.078,0.559,0.295,0.984,0.652,1.281c0.356,0.297,0.855,0.445,1.496,0.445
				c0.646,0,1.125-0.131,1.438-0.395c0.312-0.262,0.469-0.57,0.469-0.926c0-0.316-0.138-0.566-0.414-0.75
				c-0.193-0.125-0.672-0.283-1.438-0.477c-1.031-0.26-1.746-0.484-2.145-0.676c-0.398-0.189-0.701-0.453-0.906-0.789
				c-0.206-0.336-0.309-0.707-0.309-1.113c0-0.369,0.084-0.711,0.254-1.027c0.169-0.314,0.399-0.576,0.691-0.785
				c0.219-0.16,0.517-0.297,0.895-0.41c0.377-0.111,0.782-0.168,1.215-0.168c0.651,0,1.223,0.094,1.715,0.281
				s0.855,0.441,1.09,0.762s0.396,0.75,0.484,1.285l-1.375,0.188c-0.062-0.426-0.244-0.76-0.543-1
				c-0.3-0.238-0.723-0.359-1.27-0.359c-0.646,0-1.107,0.107-1.383,0.32c-0.276,0.215-0.414,0.465-0.414,0.75
				c0,0.184,0.057,0.348,0.172,0.492c0.114,0.152,0.294,0.277,0.539,0.375c0.141,0.053,0.555,0.172,1.242,0.359
				c0.995,0.266,1.688,0.484,2.082,0.652c0.393,0.17,0.702,0.416,0.926,0.738c0.224,0.324,0.336,0.725,0.336,1.203
				c0,0.469-0.137,0.91-0.41,1.324s-0.668,0.734-1.184,0.961s-1.099,0.34-1.75,0.34c-1.078,0-1.9-0.223-2.465-0.672
				C374.447,168.949,374.087,168.285,373.931,167.404z"/>
			<path fill="#3C3C3B" d="M385.563,168.623l0.203,1.242c-0.396,0.084-0.75,0.125-1.062,0.125c-0.511,0-0.906-0.08-1.188-0.242
				c-0.281-0.16-0.479-0.373-0.594-0.637c-0.115-0.262-0.172-0.816-0.172-1.66v-4.773h-1.031v-1.094h1.031v-2.055l1.398-0.844v2.898
				h1.414v1.094h-1.414v4.852c0,0.402,0.024,0.66,0.074,0.773c0.049,0.115,0.13,0.207,0.242,0.273
				c0.112,0.068,0.272,0.102,0.48,0.102C385.103,168.678,385.308,168.66,385.563,168.623z"/>
			<path fill="#3C3C3B" d="M386.946,160.045v-1.617h1.406v1.617H386.946z M386.946,169.881v-8.297h1.406v8.297H386.946z"/>
			<path fill="#3C3C3B" d="M395.907,166.842l1.383,0.18c-0.151,0.953-0.538,1.699-1.16,2.238c-0.623,0.539-1.387,0.809-2.293,0.809
				c-1.136,0-2.048-0.371-2.738-1.113c-0.69-0.742-1.035-1.805-1.035-3.191c0-0.895,0.148-1.68,0.445-2.352s0.749-1.176,1.355-1.512
				c0.606-0.336,1.267-0.504,1.98-0.504c0.901,0,1.638,0.229,2.211,0.684c0.573,0.457,0.94,1.104,1.102,1.941l-1.367,0.211
				c-0.13-0.557-0.361-0.977-0.691-1.258c-0.331-0.281-0.73-0.422-1.199-0.422c-0.708,0-1.284,0.254-1.727,0.762
				c-0.443,0.508-0.664,1.312-0.664,2.41c0,1.115,0.213,1.926,0.641,2.43c0.427,0.506,0.984,0.758,1.672,0.758
				c0.552,0,1.013-0.168,1.383-0.508C395.574,168.066,395.808,167.545,395.907,166.842z"/>
			<path fill="#3C3C3B" d="M398.501,160.045v-1.617h1.406v1.617H398.501z M398.501,169.881v-8.297h1.406v8.297H398.501z"/>
			<path fill="#3C3C3B" d="M407.462,168.857c-0.521,0.443-1.022,0.756-1.504,0.938c-0.482,0.184-0.999,0.273-1.551,0.273
				c-0.912,0-1.612-0.223-2.102-0.668c-0.49-0.445-0.734-1.014-0.734-1.707c0-0.406,0.092-0.777,0.277-1.113
				c0.185-0.336,0.427-0.605,0.727-0.809c0.299-0.203,0.637-0.355,1.012-0.461c0.276-0.072,0.692-0.143,1.25-0.211
				c1.135-0.135,1.971-0.297,2.508-0.484c0.005-0.191,0.008-0.314,0.008-0.367c0-0.572-0.133-0.977-0.398-1.211
				c-0.359-0.316-0.894-0.477-1.602-0.477c-0.662,0-1.15,0.117-1.465,0.348c-0.315,0.232-0.548,0.643-0.699,1.23l-1.375-0.188
				c0.125-0.588,0.331-1.062,0.617-1.426c0.286-0.361,0.7-0.641,1.242-0.836c0.542-0.195,1.169-0.293,1.883-0.293
				c0.708,0,1.284,0.084,1.727,0.25c0.442,0.168,0.768,0.377,0.977,0.629c0.208,0.254,0.354,0.572,0.438,0.957
				c0.047,0.24,0.07,0.672,0.07,1.297v1.875c0,1.309,0.03,2.135,0.09,2.48c0.06,0.348,0.178,0.68,0.355,0.996h-1.469
				C407.597,169.59,407.503,169.248,407.462,168.857z M407.345,165.717c-0.511,0.209-1.276,0.387-2.297,0.531
				c-0.578,0.084-0.987,0.178-1.227,0.281c-0.24,0.105-0.425,0.258-0.555,0.457c-0.13,0.201-0.195,0.424-0.195,0.668
				c0,0.375,0.142,0.688,0.426,0.938c0.284,0.25,0.699,0.375,1.246,0.375c0.542,0,1.023-0.117,1.445-0.355
				c0.422-0.236,0.731-0.561,0.93-0.973c0.151-0.316,0.227-0.785,0.227-1.406V165.717z"/>
			<path fill="#3C3C3B" d="M415.329,173.076l-0.156-1.32c0.307,0.084,0.575,0.125,0.805,0.125c0.312,0,0.562-0.051,0.75-0.156
				c0.188-0.104,0.341-0.25,0.461-0.438c0.088-0.141,0.231-0.488,0.43-1.047c0.026-0.078,0.067-0.191,0.125-0.344l-3.148-8.312
				h1.516l1.727,4.805c0.224,0.609,0.424,1.25,0.602,1.922c0.161-0.645,0.354-1.275,0.578-1.891l1.773-4.836h1.406l-3.156,8.438
				c-0.339,0.912-0.602,1.539-0.789,1.883c-0.25,0.465-0.537,0.805-0.859,1.02c-0.323,0.217-0.708,0.324-1.156,0.324
				C415.964,173.248,415.662,173.191,415.329,173.076z"/>
			<path fill="#3C3C3B" d="M428.017,169.881v-11.453h4.32c0.76,0,1.341,0.037,1.742,0.109c0.562,0.094,1.034,0.273,1.414,0.535
				c0.38,0.264,0.686,0.633,0.918,1.105c0.231,0.475,0.348,0.996,0.348,1.562c0,0.975-0.31,1.799-0.93,2.473
				c-0.62,0.676-1.74,1.012-3.359,1.012h-2.938v4.656H428.017z M429.532,163.873h2.961c0.979,0,1.674-0.182,2.086-0.547
				c0.411-0.363,0.617-0.877,0.617-1.539c0-0.479-0.121-0.889-0.363-1.23c-0.242-0.34-0.562-0.566-0.957-0.676
				c-0.255-0.066-0.727-0.102-1.414-0.102h-2.93V163.873z"/>
			<path fill="#3C3C3B" d="M443.923,168.857c-0.521,0.443-1.022,0.756-1.504,0.938c-0.482,0.184-0.999,0.273-1.551,0.273
				c-0.912,0-1.612-0.223-2.102-0.668c-0.49-0.445-0.734-1.014-0.734-1.707c0-0.406,0.092-0.777,0.277-1.113
				c0.185-0.336,0.427-0.605,0.727-0.809c0.299-0.203,0.637-0.355,1.012-0.461c0.276-0.072,0.692-0.143,1.25-0.211
				c1.135-0.135,1.971-0.297,2.508-0.484c0.005-0.191,0.008-0.314,0.008-0.367c0-0.572-0.133-0.977-0.398-1.211
				c-0.359-0.316-0.894-0.477-1.602-0.477c-0.662,0-1.15,0.117-1.465,0.348c-0.315,0.232-0.548,0.643-0.699,1.23l-1.375-0.188
				c0.125-0.588,0.331-1.062,0.617-1.426c0.286-0.361,0.7-0.641,1.242-0.836c0.542-0.195,1.169-0.293,1.883-0.293
				c0.708,0,1.284,0.084,1.727,0.25c0.442,0.168,0.768,0.377,0.977,0.629c0.208,0.254,0.354,0.572,0.438,0.957
				c0.047,0.24,0.07,0.672,0.07,1.297v1.875c0,1.309,0.03,2.135,0.09,2.48c0.06,0.348,0.178,0.68,0.355,0.996h-1.469
				C444.058,169.59,443.964,169.248,443.923,168.857z M443.806,165.717c-0.511,0.209-1.276,0.387-2.297,0.531
				c-0.578,0.084-0.987,0.178-1.227,0.281c-0.24,0.105-0.425,0.258-0.555,0.457c-0.13,0.201-0.195,0.424-0.195,0.668
				c0,0.375,0.142,0.688,0.426,0.938c0.284,0.25,0.699,0.375,1.246,0.375c0.542,0,1.023-0.117,1.445-0.355
				c0.422-0.236,0.731-0.561,0.93-0.973c0.151-0.316,0.227-0.785,0.227-1.406V165.717z"/>
			<path fill="#3C3C3B" d="M446.665,169.881v-1.141l5.281-6.062c-0.599,0.031-1.128,0.047-1.586,0.047h-3.383v-1.141h6.781v0.93
				l-4.492,5.266l-0.867,0.961c0.63-0.047,1.221-0.07,1.773-0.07h3.836v1.211H446.665z"/>
			<path fill="#3C3C3B" d="M455.798,163.186v-1.602h1.602v1.602H455.798z M455.798,169.881v-1.602h1.602v1.602H455.798z"/>
			<path fill="#3C3C3B" d="M462.337,169.881l4.398-11.453h1.633l4.688,11.453h-1.727l-1.336-3.469h-4.789l-1.258,3.469H462.337z
				 M465.642,165.178h3.883l-1.195-3.172c-0.365-0.963-0.636-1.754-0.812-2.375c-0.146,0.734-0.352,1.465-0.617,2.188
				L465.642,165.178z"/>
			<path fill="#3C3C3B" d="M474.071,169.881v-8.297h1.266v1.258c0.323-0.588,0.621-0.977,0.895-1.164s0.574-0.281,0.902-0.281
				c0.474,0,0.956,0.152,1.445,0.453l-0.484,1.305c-0.344-0.203-0.688-0.305-1.031-0.305c-0.308,0-0.583,0.094-0.828,0.277
				c-0.245,0.186-0.419,0.441-0.523,0.77c-0.156,0.5-0.234,1.047-0.234,1.641v4.344H474.071z"/>
			<path fill="#3C3C3B" d="M484.829,168.857c-0.521,0.443-1.022,0.756-1.504,0.938c-0.482,0.184-0.999,0.273-1.551,0.273
				c-0.912,0-1.612-0.223-2.102-0.668c-0.49-0.445-0.734-1.014-0.734-1.707c0-0.406,0.092-0.777,0.277-1.113
				c0.185-0.336,0.427-0.605,0.727-0.809c0.299-0.203,0.637-0.355,1.012-0.461c0.276-0.072,0.692-0.143,1.25-0.211
				c1.135-0.135,1.971-0.297,2.508-0.484c0.005-0.191,0.008-0.314,0.008-0.367c0-0.572-0.133-0.977-0.398-1.211
				c-0.359-0.316-0.894-0.477-1.602-0.477c-0.662,0-1.15,0.117-1.465,0.348c-0.315,0.232-0.548,0.643-0.699,1.23l-1.375-0.188
				c0.125-0.588,0.331-1.062,0.617-1.426c0.286-0.361,0.7-0.641,1.242-0.836c0.542-0.195,1.169-0.293,1.883-0.293
				c0.708,0,1.284,0.084,1.727,0.25c0.442,0.168,0.768,0.377,0.977,0.629c0.208,0.254,0.354,0.572,0.438,0.957
				c0.047,0.24,0.07,0.672,0.07,1.297v1.875c0,1.309,0.03,2.135,0.09,2.48c0.06,0.348,0.178,0.68,0.355,0.996h-1.469
				C484.964,169.59,484.871,169.248,484.829,168.857z M484.712,165.717c-0.511,0.209-1.276,0.387-2.297,0.531
				c-0.578,0.084-0.987,0.178-1.227,0.281c-0.24,0.105-0.425,0.258-0.555,0.457c-0.13,0.201-0.195,0.424-0.195,0.668
				c0,0.375,0.142,0.688,0.426,0.938c0.284,0.25,0.699,0.375,1.246,0.375c0.542,0,1.023-0.117,1.445-0.355
				c0.422-0.236,0.731-0.561,0.93-0.973c0.151-0.316,0.227-0.785,0.227-1.406V165.717z"/>
			<path fill="#3C3C3B" d="M488.313,169.881v-8.297h1.258v1.164c0.26-0.406,0.606-0.732,1.039-0.98
				c0.432-0.246,0.924-0.371,1.477-0.371c0.614,0,1.118,0.129,1.512,0.383c0.393,0.256,0.67,0.613,0.832,1.07
				c0.656-0.969,1.51-1.453,2.562-1.453c0.823,0,1.456,0.229,1.898,0.684c0.442,0.457,0.664,1.158,0.664,2.105v5.695h-1.398v-5.227
				c0-0.562-0.046-0.967-0.137-1.215c-0.091-0.246-0.257-0.445-0.496-0.598c-0.24-0.15-0.521-0.227-0.844-0.227
				c-0.583,0-1.068,0.195-1.453,0.582c-0.386,0.389-0.578,1.01-0.578,1.863v4.82h-1.406v-5.391c0-0.625-0.115-1.094-0.344-1.406
				c-0.229-0.312-0.604-0.469-1.125-0.469c-0.396,0-0.762,0.105-1.098,0.312c-0.336,0.209-0.58,0.514-0.73,0.914
				c-0.151,0.402-0.227,0.98-0.227,1.734v4.305H488.313z"/>
			<path fill="#3C3C3B" d="M501.649,160.045v-1.617h1.406v1.617H501.649z M501.649,169.881v-8.297h1.406v8.297H501.649z"/>
			<path fill="#3C3C3B" d="M504.634,167.404l1.391-0.219c0.078,0.559,0.295,0.984,0.652,1.281c0.356,0.297,0.855,0.445,1.496,0.445
				c0.646,0,1.125-0.131,1.438-0.395c0.312-0.262,0.469-0.57,0.469-0.926c0-0.316-0.138-0.566-0.414-0.75
				c-0.193-0.125-0.672-0.283-1.438-0.477c-1.031-0.26-1.746-0.484-2.145-0.676c-0.398-0.189-0.701-0.453-0.906-0.789
				c-0.206-0.336-0.309-0.707-0.309-1.113c0-0.369,0.084-0.711,0.254-1.027c0.169-0.314,0.399-0.576,0.691-0.785
				c0.219-0.16,0.517-0.297,0.895-0.41c0.377-0.111,0.782-0.168,1.215-0.168c0.651,0,1.223,0.094,1.715,0.281
				s0.855,0.441,1.09,0.762s0.396,0.75,0.484,1.285l-1.375,0.188c-0.062-0.426-0.244-0.76-0.543-1
				c-0.3-0.238-0.723-0.359-1.27-0.359c-0.646,0-1.107,0.107-1.383,0.32c-0.276,0.215-0.414,0.465-0.414,0.75
				c0,0.184,0.057,0.348,0.172,0.492c0.114,0.152,0.294,0.277,0.539,0.375c0.141,0.053,0.555,0.172,1.242,0.359
				c0.995,0.266,1.688,0.484,2.082,0.652c0.393,0.17,0.702,0.416,0.926,0.738c0.224,0.324,0.336,0.725,0.336,1.203
				c0,0.469-0.137,0.91-0.41,1.324s-0.668,0.734-1.184,0.961s-1.099,0.34-1.75,0.34c-1.078,0-1.9-0.223-2.465-0.672
				C505.15,168.949,504.79,168.285,504.634,167.404z"/>
			<path fill="#3C3C3B" d="M251.876,189.082v-11.453h2.281l2.711,8.109c0.25,0.754,0.432,1.32,0.547,1.695
				c0.13-0.418,0.333-1.029,0.609-1.836l2.742-7.969h2.039v11.453h-1.461v-9.586l-3.328,9.586h-1.367l-3.312-9.75v9.75H251.876z"/>
			<path fill="#3C3C3B" d="M270.485,188.059c-0.521,0.441-1.022,0.754-1.504,0.938c-0.482,0.182-0.999,0.273-1.551,0.273
				c-0.912,0-1.612-0.223-2.102-0.668c-0.49-0.445-0.734-1.016-0.734-1.707c0-0.406,0.092-0.777,0.277-1.113
				c0.185-0.336,0.427-0.605,0.727-0.809c0.299-0.203,0.637-0.357,1.012-0.461c0.276-0.074,0.692-0.145,1.25-0.211
				c1.135-0.137,1.971-0.297,2.508-0.484c0.005-0.193,0.008-0.316,0.008-0.367c0-0.574-0.133-0.977-0.398-1.211
				c-0.359-0.318-0.894-0.477-1.602-0.477c-0.662,0-1.15,0.115-1.465,0.348c-0.315,0.23-0.548,0.641-0.699,1.23l-1.375-0.188
				c0.125-0.59,0.331-1.064,0.617-1.426c0.286-0.363,0.7-0.641,1.242-0.836c0.542-0.195,1.169-0.293,1.883-0.293
				c0.708,0,1.284,0.082,1.727,0.25c0.442,0.166,0.768,0.375,0.977,0.629c0.208,0.252,0.354,0.57,0.438,0.957
				c0.047,0.238,0.07,0.672,0.07,1.297v1.875c0,1.307,0.03,2.133,0.09,2.48c0.06,0.346,0.178,0.678,0.355,0.996h-1.469
				C270.621,188.789,270.527,188.449,270.485,188.059z M270.368,184.918c-0.511,0.207-1.276,0.385-2.297,0.531
				c-0.578,0.082-0.987,0.176-1.227,0.281c-0.24,0.104-0.425,0.256-0.555,0.457c-0.13,0.199-0.195,0.422-0.195,0.668
				c0,0.375,0.142,0.688,0.426,0.938c0.284,0.25,0.699,0.375,1.246,0.375c0.542,0,1.023-0.119,1.445-0.355
				c0.422-0.238,0.731-0.562,0.93-0.973c0.151-0.318,0.227-0.787,0.227-1.406V184.918z"/>
			<path fill="#3C3C3B" d="M279.384,186.043l1.383,0.18c-0.151,0.953-0.538,1.699-1.16,2.238c-0.623,0.539-1.387,0.809-2.293,0.809
				c-1.136,0-2.048-0.371-2.738-1.113c-0.69-0.742-1.035-1.807-1.035-3.191c0-0.896,0.148-1.68,0.445-2.352s0.749-1.176,1.355-1.512
				c0.606-0.336,1.267-0.504,1.98-0.504c0.901,0,1.638,0.227,2.211,0.684c0.573,0.455,0.94,1.102,1.102,1.941l-1.367,0.211
				c-0.13-0.559-0.361-0.977-0.691-1.258c-0.331-0.281-0.73-0.422-1.199-0.422c-0.708,0-1.284,0.254-1.727,0.762
				c-0.443,0.508-0.664,1.311-0.664,2.41c0,1.113,0.213,1.924,0.641,2.43c0.427,0.504,0.984,0.758,1.672,0.758
				c0.552,0,1.013-0.17,1.383-0.508C279.05,187.266,279.285,186.746,279.384,186.043z"/>
			<path fill="#3C3C3B" d="M281.97,189.082v-11.453h1.406v4.109c0.656-0.762,1.484-1.141,2.484-1.141
				c0.614,0,1.148,0.121,1.602,0.363s0.777,0.576,0.973,1.004c0.195,0.426,0.293,1.047,0.293,1.859v5.258h-1.406v-5.258
				c0-0.703-0.152-1.215-0.457-1.535s-0.736-0.48-1.293-0.48c-0.417,0-0.809,0.107-1.176,0.324
				c-0.367,0.215-0.629,0.508-0.785,0.879c-0.156,0.369-0.234,0.879-0.234,1.531v4.539H281.97z"/>
			<path fill="#3C3C3B" d="M296.282,188.059c-0.521,0.441-1.022,0.754-1.504,0.938c-0.482,0.182-0.999,0.273-1.551,0.273
				c-0.912,0-1.612-0.223-2.102-0.668c-0.49-0.445-0.734-1.016-0.734-1.707c0-0.406,0.092-0.777,0.277-1.113
				c0.185-0.336,0.427-0.605,0.727-0.809c0.299-0.203,0.637-0.357,1.012-0.461c0.276-0.074,0.692-0.145,1.25-0.211
				c1.135-0.137,1.971-0.297,2.508-0.484c0.005-0.193,0.008-0.316,0.008-0.367c0-0.574-0.133-0.977-0.398-1.211
				c-0.359-0.318-0.894-0.477-1.602-0.477c-0.662,0-1.15,0.115-1.465,0.348c-0.315,0.23-0.548,0.641-0.699,1.23l-1.375-0.188
				c0.125-0.59,0.331-1.064,0.617-1.426c0.286-0.363,0.7-0.641,1.242-0.836c0.542-0.195,1.169-0.293,1.883-0.293
				c0.708,0,1.284,0.082,1.727,0.25c0.442,0.166,0.768,0.375,0.977,0.629c0.208,0.252,0.354,0.57,0.438,0.957
				c0.047,0.238,0.07,0.672,0.07,1.297v1.875c0,1.307,0.03,2.133,0.09,2.48c0.06,0.346,0.178,0.678,0.355,0.996h-1.469
				C296.417,188.789,296.324,188.449,296.282,188.059z M296.165,184.918c-0.511,0.207-1.276,0.385-2.297,0.531
				c-0.578,0.082-0.987,0.176-1.227,0.281c-0.24,0.104-0.425,0.256-0.555,0.457c-0.13,0.199-0.195,0.422-0.195,0.668
				c0,0.375,0.142,0.688,0.426,0.938c0.284,0.25,0.699,0.375,1.246,0.375c0.542,0,1.023-0.119,1.445-0.355
				c0.422-0.238,0.731-0.562,0.93-0.973c0.151-0.318,0.227-0.787,0.227-1.406V184.918z"/>
			<path fill="#3C3C3B" d="M305.149,189.082v-1.047c-0.526,0.822-1.3,1.234-2.32,1.234c-0.662,0-1.27-0.184-1.824-0.547
				c-0.555-0.365-0.984-0.875-1.289-1.527c-0.305-0.654-0.457-1.406-0.457-2.254c0-0.828,0.138-1.58,0.414-2.254
				c0.276-0.676,0.69-1.191,1.242-1.551c0.552-0.359,1.169-0.539,1.852-0.539c0.5,0,0.945,0.105,1.336,0.316
				s0.708,0.484,0.953,0.824v-4.109h1.398v11.453H305.149z M300.704,184.941c0,1.062,0.224,1.855,0.672,2.383
				c0.448,0.525,0.977,0.789,1.586,0.789c0.614,0,1.137-0.252,1.566-0.754c0.43-0.504,0.645-1.27,0.645-2.301
				c0-1.137-0.219-1.969-0.656-2.5s-0.977-0.797-1.617-0.797c-0.625,0-1.147,0.254-1.566,0.766
				C300.914,183.037,300.704,183.842,300.704,184.941z"/>
			<path fill="#3C3C3B" d="M308.142,184.934c0-1.537,0.427-2.676,1.281-3.414c0.713-0.615,1.583-0.922,2.609-0.922
				c1.141,0,2.073,0.373,2.797,1.121c0.724,0.746,1.086,1.779,1.086,3.098c0,1.066-0.16,1.906-0.48,2.52
				c-0.32,0.611-0.787,1.086-1.398,1.426c-0.612,0.338-1.28,0.508-2.004,0.508c-1.162,0-2.101-0.373-2.816-1.117
				C308.5,187.406,308.142,186.334,308.142,184.934z M309.587,184.934c0,1.062,0.231,1.857,0.695,2.387
				c0.463,0.527,1.047,0.793,1.75,0.793c0.698,0,1.278-0.266,1.742-0.797c0.463-0.531,0.695-1.342,0.695-2.43
				c0-1.027-0.233-1.805-0.699-2.332c-0.466-0.529-1.046-0.793-1.738-0.793c-0.703,0-1.287,0.262-1.75,0.789
				C309.818,183.076,309.587,183.871,309.587,184.934z"/>
			<path fill="#3C3C3B" d="M317.931,189.082v-1.602h1.602v1.602c0,0.588-0.104,1.062-0.312,1.426
				c-0.208,0.361-0.539,0.641-0.992,0.84l-0.391-0.602c0.297-0.131,0.516-0.322,0.656-0.574c0.141-0.254,0.219-0.617,0.234-1.09
				H317.931z"/>
			<path fill="#3C3C3B" d="M326.712,189.082v-11.453h7.727v1.352h-6.211v3.547h5.375v1.352h-5.375v5.203H326.712z"/>
			<path fill="#3C3C3B" d="M336.235,179.246v-1.617h1.406v1.617H336.235z M336.235,189.082v-8.297h1.406v8.297H336.235z"/>
			<path fill="#3C3C3B" d="M345.462,186.41l1.453,0.18c-0.229,0.848-0.654,1.508-1.273,1.977c-0.62,0.469-1.412,0.703-2.375,0.703
				c-1.214,0-2.176-0.375-2.887-1.121c-0.711-0.748-1.066-1.797-1.066-3.145c0-1.396,0.359-2.48,1.078-3.25
				c0.719-0.771,1.651-1.156,2.797-1.156c1.109,0,2.016,0.377,2.719,1.133c0.703,0.754,1.055,1.816,1.055,3.188
				c0,0.082-0.003,0.207-0.008,0.375h-6.188c0.052,0.91,0.31,1.609,0.773,2.094c0.463,0.484,1.042,0.727,1.734,0.727
				c0.516,0,0.956-0.137,1.32-0.406C344.959,187.436,345.248,187.004,345.462,186.41z M340.845,184.137h4.633
				c-0.062-0.699-0.24-1.223-0.531-1.57c-0.448-0.543-1.029-0.812-1.742-0.812c-0.646,0-1.189,0.215-1.629,0.648
				C341.135,182.834,340.892,183.412,340.845,184.137z"/>
			<path fill="#3C3C3B" d="M348.665,189.082v-8.297h1.266v1.258c0.323-0.59,0.621-0.977,0.895-1.164s0.574-0.281,0.902-0.281
				c0.474,0,0.956,0.15,1.445,0.453l-0.484,1.305c-0.344-0.203-0.688-0.305-1.031-0.305c-0.308,0-0.583,0.092-0.828,0.277
				c-0.245,0.184-0.419,0.441-0.523,0.77c-0.156,0.5-0.234,1.047-0.234,1.641v4.344H348.665z"/>
			<path fill="#3C3C3B" d="M353.993,189.082v-8.297h1.266v1.258c0.323-0.59,0.621-0.977,0.895-1.164s0.574-0.281,0.902-0.281
				c0.474,0,0.956,0.15,1.445,0.453l-0.484,1.305c-0.344-0.203-0.688-0.305-1.031-0.305c-0.308,0-0.583,0.092-0.828,0.277
				c-0.245,0.184-0.419,0.441-0.523,0.77c-0.156,0.5-0.234,1.047-0.234,1.641v4.344H353.993z"/>
			<path fill="#3C3C3B" d="M358.813,184.934c0-1.537,0.427-2.676,1.281-3.414c0.713-0.615,1.583-0.922,2.609-0.922
				c1.141,0,2.073,0.373,2.797,1.121c0.724,0.746,1.086,1.779,1.086,3.098c0,1.066-0.16,1.906-0.48,2.52
				c-0.32,0.611-0.787,1.086-1.398,1.426c-0.612,0.338-1.28,0.508-2.004,0.508c-1.162,0-2.101-0.373-2.816-1.117
				C359.171,187.406,358.813,186.334,358.813,184.934z M360.259,184.934c0,1.062,0.231,1.857,0.695,2.387
				c0.463,0.527,1.047,0.793,1.75,0.793c0.698,0,1.278-0.266,1.742-0.797c0.463-0.531,0.695-1.342,0.695-2.43
				c0-1.027-0.233-1.805-0.699-2.332c-0.466-0.529-1.046-0.793-1.738-0.793c-0.703,0-1.287,0.262-1.75,0.789
				C360.49,183.076,360.259,183.871,360.259,184.934z"/>
			<path fill="#3C3C3B" d="M372.938,189.082v-11.453h7.727v1.352h-6.211v3.547h5.375v1.352h-5.375v5.203H372.938z"/>
			<path fill="#3C3C3B" d="M382.423,189.082v-11.453h1.406v11.453H382.423z"/>
			<path fill="#3C3C3B" d="M385.485,184.934c0-1.537,0.427-2.676,1.281-3.414c0.713-0.615,1.583-0.922,2.609-0.922
				c1.141,0,2.073,0.373,2.797,1.121c0.724,0.746,1.086,1.779,1.086,3.098c0,1.066-0.16,1.906-0.48,2.52
				c-0.32,0.611-0.787,1.086-1.398,1.426c-0.612,0.338-1.28,0.508-2.004,0.508c-1.162,0-2.101-0.373-2.816-1.117
				C385.843,187.406,385.485,186.334,385.485,184.934z M386.931,184.934c0,1.062,0.231,1.857,0.695,2.387
				c0.463,0.527,1.047,0.793,1.75,0.793c0.698,0,1.278-0.266,1.742-0.797c0.463-0.531,0.695-1.342,0.695-2.43
				c0-1.027-0.233-1.805-0.699-2.332c-0.466-0.529-1.046-0.793-1.738-0.793c-0.703,0-1.287,0.262-1.75,0.789
				C387.162,183.076,386.931,183.871,386.931,184.934z M388.595,179.754l1.039-2.188h1.844l-1.719,2.188H388.595z"/>
			<path fill="#3C3C3B" d="M394.892,189.082v-8.297h1.266v1.258c0.323-0.59,0.621-0.977,0.895-1.164s0.574-0.281,0.902-0.281
				c0.474,0,0.956,0.15,1.445,0.453l-0.484,1.305c-0.344-0.203-0.688-0.305-1.031-0.305c-0.308,0-0.583,0.092-0.828,0.277
				c-0.245,0.184-0.419,0.441-0.523,0.77c-0.156,0.5-0.234,1.047-0.234,1.641v4.344H394.892z"/>
			<path fill="#3C3C3B" d="M405.915,186.41l1.453,0.18c-0.229,0.848-0.654,1.508-1.273,1.977c-0.62,0.469-1.412,0.703-2.375,0.703
				c-1.214,0-2.176-0.375-2.887-1.121c-0.711-0.748-1.066-1.797-1.066-3.145c0-1.396,0.359-2.48,1.078-3.25
				c0.719-0.771,1.651-1.156,2.797-1.156c1.109,0,2.016,0.377,2.719,1.133c0.703,0.754,1.055,1.816,1.055,3.188
				c0,0.082-0.003,0.207-0.008,0.375h-6.188c0.052,0.91,0.31,1.609,0.773,2.094c0.463,0.484,1.042,0.727,1.734,0.727
				c0.516,0,0.956-0.137,1.32-0.406C405.412,187.436,405.701,187.004,405.915,186.41z M401.298,184.137h4.633
				c-0.062-0.699-0.24-1.223-0.531-1.57c-0.448-0.543-1.029-0.812-1.742-0.812c-0.646,0-1.189,0.215-1.629,0.648
				C401.588,182.834,401.345,183.412,401.298,184.137z"/>
			<path fill="#3C3C3B" d="M408.392,189.082v-1.141l5.281-6.062c-0.599,0.031-1.128,0.047-1.586,0.047h-3.383v-1.141h6.781v0.93
				l-4.492,5.266l-0.867,0.961c0.63-0.047,1.221-0.07,1.773-0.07h3.836v1.211H408.392z"/>
			<path fill="#3C3C3B" d="M420.493,185.504v-1.133h8.898v1.133H420.493z"/>
			<path fill="#3C3C3B" d="M435.056,189.082v-11.453h2.281l2.711,8.109c0.25,0.754,0.432,1.32,0.547,1.695
				c0.13-0.418,0.333-1.029,0.609-1.836l2.742-7.969h2.039v11.453h-1.461v-9.586l-3.328,9.586h-1.367l-3.312-9.75v9.75H435.056z"/>
			<path fill="#3C3C3B" d="M453.665,188.059c-0.521,0.441-1.022,0.754-1.504,0.938c-0.482,0.182-0.999,0.273-1.551,0.273
				c-0.912,0-1.612-0.223-2.102-0.668c-0.49-0.445-0.734-1.016-0.734-1.707c0-0.406,0.092-0.777,0.277-1.113
				c0.185-0.336,0.427-0.605,0.727-0.809c0.299-0.203,0.637-0.357,1.012-0.461c0.276-0.074,0.692-0.145,1.25-0.211
				c1.135-0.137,1.971-0.297,2.508-0.484c0.005-0.193,0.008-0.316,0.008-0.367c0-0.574-0.133-0.977-0.398-1.211
				c-0.359-0.318-0.894-0.477-1.602-0.477c-0.662,0-1.15,0.115-1.465,0.348c-0.315,0.23-0.548,0.641-0.699,1.23l-1.375-0.188
				c0.125-0.59,0.331-1.064,0.617-1.426c0.286-0.363,0.7-0.641,1.242-0.836c0.542-0.195,1.169-0.293,1.883-0.293
				c0.708,0,1.284,0.082,1.727,0.25c0.442,0.166,0.768,0.375,0.977,0.629c0.208,0.252,0.354,0.57,0.438,0.957
				c0.047,0.238,0.07,0.672,0.07,1.297v1.875c0,1.307,0.03,2.133,0.09,2.48c0.06,0.346,0.178,0.678,0.355,0.996h-1.469
				C453.8,188.789,453.707,188.449,453.665,188.059z M453.548,184.918c-0.511,0.207-1.276,0.385-2.297,0.531
				c-0.578,0.082-0.987,0.176-1.227,0.281c-0.24,0.104-0.425,0.256-0.555,0.457c-0.13,0.199-0.195,0.422-0.195,0.668
				c0,0.375,0.142,0.688,0.426,0.938c0.284,0.25,0.699,0.375,1.246,0.375c0.542,0,1.023-0.119,1.445-0.355
				c0.422-0.238,0.731-0.562,0.93-0.973c0.151-0.318,0.227-0.787,0.227-1.406V184.918z"/>
			<path fill="#3C3C3B" d="M457.134,189.082v-8.297h1.266v1.258c0.323-0.59,0.621-0.977,0.895-1.164s0.574-0.281,0.902-0.281
				c0.474,0,0.956,0.15,1.445,0.453l-0.484,1.305c-0.344-0.203-0.688-0.305-1.031-0.305c-0.308,0-0.583,0.092-0.828,0.277
				c-0.245,0.184-0.419,0.441-0.523,0.77c-0.156,0.5-0.234,1.047-0.234,1.641v4.344H457.134z"/>
			<path fill="#3C3C3B" d="M462.485,179.246v-1.617h1.406v1.617H462.485z M462.485,189.082v-8.297h1.406v8.297H462.485z"/>
			<path fill="#3C3C3B" d="M471.446,188.059c-0.521,0.441-1.022,0.754-1.504,0.938c-0.482,0.182-0.999,0.273-1.551,0.273
				c-0.912,0-1.612-0.223-2.102-0.668c-0.49-0.445-0.734-1.016-0.734-1.707c0-0.406,0.092-0.777,0.277-1.113
				c0.185-0.336,0.427-0.605,0.727-0.809c0.299-0.203,0.637-0.357,1.012-0.461c0.276-0.074,0.692-0.145,1.25-0.211
				c1.135-0.137,1.971-0.297,2.508-0.484c0.005-0.193,0.008-0.316,0.008-0.367c0-0.574-0.133-0.977-0.398-1.211
				c-0.359-0.318-0.894-0.477-1.602-0.477c-0.662,0-1.15,0.115-1.465,0.348c-0.315,0.23-0.548,0.641-0.699,1.23l-1.375-0.188
				c0.125-0.59,0.331-1.064,0.617-1.426c0.286-0.363,0.7-0.641,1.242-0.836c0.542-0.195,1.169-0.293,1.883-0.293
				c0.708,0,1.284,0.082,1.727,0.25c0.442,0.166,0.768,0.375,0.977,0.629c0.208,0.252,0.354,0.57,0.438,0.957
				c0.047,0.238,0.07,0.672,0.07,1.297v1.875c0,1.307,0.03,2.133,0.09,2.48c0.06,0.346,0.178,0.678,0.355,0.996h-1.469
				C471.582,188.789,471.488,188.449,471.446,188.059z M471.329,184.918c-0.511,0.207-1.276,0.385-2.297,0.531
				c-0.578,0.082-0.987,0.176-1.227,0.281c-0.24,0.104-0.425,0.256-0.555,0.457c-0.13,0.199-0.195,0.422-0.195,0.668
				c0,0.375,0.142,0.688,0.426,0.938c0.284,0.25,0.699,0.375,1.246,0.375c0.542,0,1.023-0.119,1.445-0.355
				c0.422-0.238,0.731-0.562,0.93-0.973c0.151-0.318,0.227-0.787,0.227-1.406V184.918z"/>
			<path fill="#3C3C3B" d="M479.493,189.082v-11.453h4.297c0.875,0,1.577,0.115,2.105,0.348c0.528,0.23,0.942,0.588,1.242,1.07
				c0.299,0.48,0.449,0.984,0.449,1.512c0,0.488-0.133,0.949-0.398,1.383c-0.266,0.432-0.667,0.781-1.203,1.047
				c0.692,0.203,1.225,0.549,1.598,1.039c0.372,0.488,0.559,1.066,0.559,1.734c0,0.535-0.113,1.035-0.34,1.496
				s-0.507,0.816-0.84,1.066c-0.333,0.25-0.751,0.438-1.254,0.566c-0.503,0.127-1.119,0.191-1.848,0.191H479.493z M481.009,182.441
				h2.477c0.672,0,1.153-0.045,1.445-0.133c0.385-0.115,0.676-0.305,0.871-0.57s0.293-0.6,0.293-1c0-0.381-0.091-0.715-0.273-1.004
				c-0.183-0.289-0.443-0.488-0.781-0.594c-0.339-0.107-0.919-0.16-1.742-0.16h-2.289V182.441z M481.009,187.73h2.852
				c0.489,0,0.833-0.02,1.031-0.055c0.349-0.062,0.641-0.168,0.875-0.312c0.234-0.146,0.427-0.359,0.578-0.637
				c0.151-0.279,0.227-0.602,0.227-0.965c0-0.428-0.109-0.799-0.328-1.113c-0.219-0.316-0.522-0.537-0.91-0.664
				c-0.388-0.129-0.947-0.191-1.676-0.191h-2.648V187.73z"/>
			<path fill="#3C3C3B" d="M489.524,184.934c0-1.537,0.427-2.676,1.281-3.414c0.713-0.615,1.583-0.922,2.609-0.922
				c1.141,0,2.073,0.373,2.797,1.121c0.724,0.746,1.086,1.779,1.086,3.098c0,1.066-0.16,1.906-0.48,2.52
				c-0.32,0.611-0.787,1.086-1.398,1.426c-0.612,0.338-1.28,0.508-2.004,0.508c-1.162,0-2.101-0.373-2.816-1.117
				C489.882,187.406,489.524,186.334,489.524,184.934z M490.97,184.934c0,1.062,0.231,1.857,0.695,2.387
				c0.463,0.527,1.047,0.793,1.75,0.793c0.698,0,1.278-0.266,1.742-0.797c0.463-0.531,0.695-1.342,0.695-2.43
				c0-1.027-0.233-1.805-0.699-2.332c-0.466-0.529-1.046-0.793-1.738-0.793c-0.703,0-1.287,0.262-1.75,0.789
				C491.201,183.076,490.97,183.871,490.97,184.934z"/>
			<path fill="#3C3C3B" d="M498.946,189.082v-8.297h1.266v1.18c0.609-0.912,1.489-1.367,2.641-1.367c0.5,0,0.959,0.09,1.379,0.27
				c0.419,0.18,0.733,0.414,0.941,0.707c0.208,0.291,0.354,0.637,0.438,1.039c0.052,0.26,0.078,0.715,0.078,1.367v5.102h-1.406
				v-5.047c0-0.574-0.055-1.002-0.164-1.285c-0.109-0.285-0.304-0.512-0.582-0.68c-0.279-0.17-0.605-0.254-0.98-0.254
				c-0.599,0-1.116,0.189-1.551,0.57c-0.435,0.379-0.652,1.102-0.652,2.164v4.531H498.946z"/>
			<path fill="#3C3C3B" d="M507.853,179.246v-1.617h1.406v1.617H507.853z M507.853,189.082v-8.297h1.406v8.297H507.853z"/>
			<path fill="#3C3C3B" d="M514.47,187.824l0.203,1.242c-0.396,0.082-0.75,0.125-1.062,0.125c-0.511,0-0.906-0.082-1.188-0.242
				c-0.281-0.162-0.479-0.375-0.594-0.637c-0.115-0.264-0.172-0.816-0.172-1.66v-4.773h-1.031v-1.094h1.031v-2.055l1.398-0.844
				v2.898h1.414v1.094h-1.414v4.852c0,0.4,0.024,0.658,0.074,0.773c0.049,0.113,0.13,0.205,0.242,0.273
				c0.112,0.066,0.272,0.102,0.48,0.102C514.009,187.879,514.214,187.859,514.47,187.824z"/>
			<path fill="#3C3C3B" d="M521.259,188.059c-0.521,0.441-1.022,0.754-1.504,0.938c-0.482,0.182-0.999,0.273-1.551,0.273
				c-0.912,0-1.612-0.223-2.102-0.668c-0.49-0.445-0.734-1.016-0.734-1.707c0-0.406,0.092-0.777,0.277-1.113
				c0.185-0.336,0.427-0.605,0.727-0.809c0.299-0.203,0.637-0.357,1.012-0.461c0.276-0.074,0.692-0.145,1.25-0.211
				c1.135-0.137,1.971-0.297,2.508-0.484c0.005-0.193,0.008-0.316,0.008-0.367c0-0.574-0.133-0.977-0.398-1.211
				c-0.359-0.318-0.894-0.477-1.602-0.477c-0.662,0-1.15,0.115-1.465,0.348c-0.315,0.23-0.548,0.641-0.699,1.23l-1.375-0.188
				c0.125-0.59,0.331-1.064,0.617-1.426c0.286-0.363,0.7-0.641,1.242-0.836c0.542-0.195,1.169-0.293,1.883-0.293
				c0.708,0,1.284,0.082,1.727,0.25c0.442,0.166,0.768,0.375,0.977,0.629c0.208,0.252,0.354,0.57,0.438,0.957
				c0.047,0.238,0.07,0.672,0.07,1.297v1.875c0,1.307,0.03,2.133,0.09,2.48c0.06,0.346,0.178,0.678,0.355,0.996h-1.469
				C521.394,188.789,521.3,188.449,521.259,188.059z M521.142,184.918c-0.511,0.207-1.276,0.385-2.297,0.531
				c-0.578,0.082-0.987,0.176-1.227,0.281c-0.24,0.104-0.425,0.256-0.555,0.457c-0.13,0.199-0.195,0.422-0.195,0.668
				c0,0.375,0.142,0.688,0.426,0.938c0.284,0.25,0.699,0.375,1.246,0.375c0.542,0,1.023-0.119,1.445-0.355
				c0.422-0.238,0.731-0.562,0.93-0.973c0.151-0.318,0.227-0.787,0.227-1.406V184.918z"/>
			<path fill="#3C3C3B" d="M525.11,189.082v-1.602h1.602v1.602c0,0.588-0.104,1.062-0.312,1.426
				c-0.208,0.361-0.539,0.641-0.992,0.84l-0.391-0.602c0.297-0.131,0.516-0.322,0.656-0.574c0.141-0.254,0.219-0.617,0.234-1.09
				H525.11z"/>
			<path fill="#3C3C3B" d="M251.149,205.031l1.367-0.188c0.036,0.875,0.2,1.473,0.492,1.797c0.292,0.322,0.695,0.484,1.211,0.484
				c0.38,0,0.708-0.088,0.984-0.262c0.276-0.176,0.466-0.412,0.57-0.711c0.104-0.301,0.156-0.777,0.156-1.434v-7.891h1.516v7.805
				c0,0.957-0.116,1.699-0.348,2.227c-0.232,0.525-0.599,0.926-1.102,1.203c-0.503,0.275-1.093,0.414-1.77,0.414
				c-1.005,0-1.775-0.289-2.309-0.867C251.385,207.031,251.128,206.172,251.149,205.031z"/>
			<path fill="#3C3C3B" d="M265.181,208.281v-1.219c-0.646,0.938-1.523,1.406-2.633,1.406c-0.49,0-0.947-0.094-1.371-0.281
				c-0.425-0.188-0.74-0.424-0.945-0.707c-0.206-0.285-0.351-0.633-0.434-1.043c-0.058-0.277-0.086-0.715-0.086-1.312v-5.141h1.406
				v4.602c0,0.734,0.028,1.229,0.086,1.484c0.088,0.369,0.276,0.66,0.562,0.871c0.286,0.211,0.641,0.316,1.062,0.316
				s0.817-0.109,1.188-0.324c0.37-0.217,0.631-0.512,0.785-0.883c0.153-0.373,0.23-0.914,0.23-1.621v-4.445h1.406v8.297H265.181z"/>
			<path fill="#3C3C3B" d="M274.056,207.258c-0.521,0.441-1.022,0.754-1.504,0.938c-0.482,0.182-0.999,0.273-1.551,0.273
				c-0.912,0-1.612-0.223-2.102-0.668c-0.49-0.445-0.734-1.016-0.734-1.707c0-0.406,0.092-0.777,0.277-1.113
				c0.185-0.336,0.427-0.605,0.727-0.809c0.299-0.203,0.637-0.357,1.012-0.461c0.276-0.074,0.692-0.145,1.25-0.211
				c1.135-0.137,1.971-0.297,2.508-0.484c0.005-0.193,0.008-0.316,0.008-0.367c0-0.574-0.133-0.977-0.398-1.211
				c-0.359-0.318-0.894-0.477-1.602-0.477c-0.662,0-1.15,0.115-1.465,0.348c-0.315,0.23-0.548,0.641-0.699,1.23l-1.375-0.188
				c0.125-0.59,0.331-1.064,0.617-1.426c0.286-0.363,0.7-0.641,1.242-0.836c0.542-0.195,1.169-0.293,1.883-0.293
				c0.708,0,1.284,0.082,1.727,0.25c0.442,0.166,0.768,0.375,0.977,0.629c0.208,0.252,0.354,0.57,0.438,0.957
				c0.047,0.238,0.07,0.672,0.07,1.297v1.875c0,1.307,0.03,2.133,0.09,2.48c0.06,0.346,0.178,0.678,0.355,0.996h-1.469
				C274.191,207.988,274.097,207.648,274.056,207.258z M273.938,204.117c-0.511,0.207-1.276,0.385-2.297,0.531
				c-0.578,0.082-0.987,0.176-1.227,0.281c-0.24,0.104-0.425,0.256-0.555,0.457c-0.13,0.199-0.195,0.422-0.195,0.668
				c0,0.375,0.142,0.688,0.426,0.938c0.284,0.25,0.699,0.375,1.246,0.375c0.542,0,1.023-0.119,1.445-0.355
				c0.422-0.238,0.731-0.562,0.93-0.973c0.151-0.318,0.227-0.787,0.227-1.406V204.117z"/>
			<path fill="#3C3C3B" d="M277.54,208.281v-8.297h1.266v1.18c0.609-0.912,1.489-1.367,2.641-1.367c0.5,0,0.959,0.09,1.379,0.27
				c0.419,0.18,0.733,0.414,0.941,0.707c0.208,0.291,0.354,0.637,0.438,1.039c0.052,0.26,0.078,0.715,0.078,1.367v5.102h-1.406
				v-5.047c0-0.574-0.055-1.002-0.164-1.285c-0.109-0.285-0.304-0.512-0.582-0.68c-0.279-0.17-0.605-0.254-0.98-0.254
				c-0.599,0-1.116,0.189-1.551,0.57c-0.435,0.379-0.652,1.102-0.652,2.164v4.531H277.54z"/>
			<path fill="#3C3C3B" d="M291.063,208.281v-11.453h4.32c0.76,0,1.341,0.035,1.742,0.109c0.562,0.094,1.034,0.271,1.414,0.535
				c0.38,0.262,0.686,0.631,0.918,1.105c0.231,0.473,0.348,0.994,0.348,1.562c0,0.973-0.31,1.797-0.93,2.473
				c-0.62,0.674-1.74,1.012-3.359,1.012h-2.938v4.656H291.063z M292.579,202.273h2.961c0.979,0,1.674-0.184,2.086-0.547
				c0.411-0.365,0.617-0.879,0.617-1.539c0-0.48-0.121-0.891-0.363-1.23c-0.242-0.342-0.562-0.566-0.957-0.676
				c-0.255-0.068-0.727-0.102-1.414-0.102h-2.93V202.273z"/>
			<path fill="#3C3C3B" d="M301.54,208.281v-8.297h1.266v1.258c0.323-0.59,0.621-0.977,0.895-1.164s0.574-0.281,0.902-0.281
				c0.474,0,0.956,0.15,1.445,0.453l-0.484,1.305c-0.344-0.203-0.688-0.305-1.031-0.305c-0.308,0-0.583,0.092-0.828,0.277
				c-0.245,0.184-0.419,0.441-0.523,0.77c-0.156,0.5-0.234,1.047-0.234,1.641v4.344H301.54z"/>
			<path fill="#3C3C3B" d="M312.298,207.258c-0.521,0.441-1.022,0.754-1.504,0.938c-0.482,0.182-0.999,0.273-1.551,0.273
				c-0.912,0-1.612-0.223-2.102-0.668c-0.49-0.445-0.734-1.016-0.734-1.707c0-0.406,0.092-0.777,0.277-1.113
				c0.185-0.336,0.427-0.605,0.727-0.809c0.299-0.203,0.637-0.357,1.012-0.461c0.276-0.074,0.692-0.145,1.25-0.211
				c1.135-0.137,1.971-0.297,2.508-0.484c0.005-0.193,0.008-0.316,0.008-0.367c0-0.574-0.133-0.977-0.398-1.211
				c-0.359-0.318-0.894-0.477-1.602-0.477c-0.662,0-1.15,0.115-1.465,0.348c-0.315,0.23-0.548,0.641-0.699,1.23l-1.375-0.188
				c0.125-0.59,0.331-1.064,0.617-1.426c0.286-0.363,0.7-0.641,1.242-0.836c0.542-0.195,1.169-0.293,1.883-0.293
				c0.708,0,1.284,0.082,1.727,0.25c0.442,0.166,0.768,0.375,0.977,0.629c0.208,0.252,0.354,0.57,0.438,0.957
				c0.047,0.238,0.07,0.672,0.07,1.297v1.875c0,1.307,0.03,2.133,0.09,2.48c0.06,0.346,0.178,0.678,0.355,0.996h-1.469
				C312.433,207.988,312.339,207.648,312.298,207.258z M312.181,204.117c-0.511,0.207-1.276,0.385-2.297,0.531
				c-0.578,0.082-0.987,0.176-1.227,0.281c-0.24,0.104-0.425,0.256-0.555,0.457c-0.13,0.199-0.195,0.422-0.195,0.668
				c0,0.375,0.142,0.688,0.426,0.938c0.284,0.25,0.699,0.375,1.246,0.375c0.542,0,1.023-0.119,1.445-0.355
				c0.422-0.238,0.731-0.562,0.93-0.973c0.151-0.318,0.227-0.787,0.227-1.406V204.117z"/>
			<path fill="#3C3C3B" d="M321.165,208.281v-1.047c-0.526,0.822-1.3,1.234-2.32,1.234c-0.662,0-1.27-0.184-1.824-0.547
				c-0.555-0.365-0.984-0.875-1.289-1.527c-0.305-0.654-0.457-1.406-0.457-2.254c0-0.828,0.138-1.58,0.414-2.254
				c0.276-0.676,0.69-1.191,1.242-1.551c0.552-0.359,1.169-0.539,1.852-0.539c0.5,0,0.945,0.105,1.336,0.316
				s0.708,0.484,0.953,0.824v-4.109h1.398v11.453H321.165z M316.72,204.141c0,1.062,0.224,1.855,0.672,2.383
				c0.448,0.525,0.977,0.789,1.586,0.789c0.614,0,1.137-0.252,1.566-0.754c0.43-0.504,0.645-1.27,0.645-2.301
				c0-1.137-0.219-1.969-0.656-2.5s-0.977-0.797-1.617-0.797c-0.625,0-1.147,0.254-1.566,0.766
				C316.929,202.236,316.72,203.041,316.72,204.141z"/>
			<path fill="#3C3C3B" d="M330.095,207.258c-0.521,0.441-1.022,0.754-1.504,0.938c-0.482,0.182-0.999,0.273-1.551,0.273
				c-0.912,0-1.612-0.223-2.102-0.668c-0.49-0.445-0.734-1.016-0.734-1.707c0-0.406,0.092-0.777,0.277-1.113
				c0.185-0.336,0.427-0.605,0.727-0.809c0.299-0.203,0.637-0.357,1.012-0.461c0.276-0.074,0.692-0.145,1.25-0.211
				c1.135-0.137,1.971-0.297,2.508-0.484c0.005-0.193,0.008-0.316,0.008-0.367c0-0.574-0.133-0.977-0.398-1.211
				c-0.359-0.318-0.894-0.477-1.602-0.477c-0.662,0-1.15,0.115-1.465,0.348c-0.315,0.23-0.548,0.641-0.699,1.23l-1.375-0.188
				c0.125-0.59,0.331-1.064,0.617-1.426c0.286-0.363,0.7-0.641,1.242-0.836c0.542-0.195,1.169-0.293,1.883-0.293
				c0.708,0,1.284,0.082,1.727,0.25c0.442,0.166,0.768,0.375,0.977,0.629c0.208,0.252,0.354,0.57,0.438,0.957
				c0.047,0.238,0.07,0.672,0.07,1.297v1.875c0,1.307,0.03,2.133,0.09,2.48c0.06,0.346,0.178,0.678,0.355,0.996h-1.469
				C330.23,207.988,330.136,207.648,330.095,207.258z M329.978,204.117c-0.511,0.207-1.276,0.385-2.297,0.531
				c-0.578,0.082-0.987,0.176-1.227,0.281c-0.24,0.104-0.425,0.256-0.555,0.457c-0.13,0.199-0.195,0.422-0.195,0.668
				c0,0.375,0.142,0.688,0.426,0.938c0.284,0.25,0.699,0.375,1.246,0.375c0.542,0,1.023-0.119,1.445-0.355
				c0.422-0.238,0.731-0.562,0.93-0.973c0.151-0.318,0.227-0.787,0.227-1.406V204.117z"/>
			<path fill="#3C3C3B" d="M333.946,208.281v-1.602h1.602v1.602c0,0.588-0.104,1.062-0.312,1.426
				c-0.208,0.361-0.539,0.641-0.992,0.84l-0.391-0.602c0.297-0.131,0.516-0.322,0.656-0.574c0.141-0.254,0.219-0.617,0.234-1.09
				H333.946z"/>
			<path fill="#3C3C3B" d="M342.587,208.281v-11.453h1.516v10.102h5.641v1.352H342.587z"/>
			<path fill="#3C3C3B" d="M356.806,208.281v-1.219c-0.646,0.938-1.523,1.406-2.633,1.406c-0.49,0-0.947-0.094-1.371-0.281
				c-0.425-0.188-0.74-0.424-0.945-0.707c-0.206-0.285-0.351-0.633-0.434-1.043c-0.058-0.277-0.086-0.715-0.086-1.312v-5.141h1.406
				v4.602c0,0.734,0.028,1.229,0.086,1.484c0.088,0.369,0.276,0.66,0.562,0.871c0.286,0.211,0.641,0.316,1.062,0.316
				s0.817-0.109,1.188-0.324c0.37-0.217,0.631-0.512,0.785-0.883c0.153-0.373,0.23-0.914,0.23-1.621v-4.445h1.406v8.297H356.806z"/>
			<path fill="#3C3C3B" d="M360.274,198.445v-1.617h1.406v1.617H360.274z M360.274,208.281v-8.297h1.406v8.297H360.274z"/>
			<path fill="#3C3C3B" d="M363.259,205.805l1.391-0.219c0.078,0.557,0.295,0.984,0.652,1.281c0.356,0.297,0.855,0.445,1.496,0.445
				c0.646,0,1.125-0.133,1.438-0.395c0.312-0.264,0.469-0.572,0.469-0.926c0-0.318-0.138-0.568-0.414-0.75
				c-0.193-0.125-0.672-0.285-1.438-0.477c-1.031-0.262-1.746-0.486-2.145-0.676c-0.398-0.191-0.701-0.453-0.906-0.789
				c-0.206-0.336-0.309-0.707-0.309-1.113c0-0.371,0.084-0.713,0.254-1.027c0.169-0.316,0.399-0.578,0.691-0.785
				c0.219-0.162,0.517-0.299,0.895-0.41c0.377-0.113,0.782-0.168,1.215-0.168c0.651,0,1.223,0.094,1.715,0.281
				s0.855,0.441,1.09,0.762s0.396,0.748,0.484,1.285l-1.375,0.188c-0.062-0.428-0.244-0.762-0.543-1
				c-0.3-0.24-0.723-0.359-1.27-0.359c-0.646,0-1.107,0.105-1.383,0.32c-0.276,0.213-0.414,0.463-0.414,0.75
				c0,0.182,0.057,0.346,0.172,0.492c0.114,0.15,0.294,0.275,0.539,0.375c0.141,0.051,0.555,0.172,1.242,0.359
				c0.995,0.266,1.688,0.482,2.082,0.652c0.393,0.168,0.702,0.414,0.926,0.738c0.224,0.322,0.336,0.723,0.336,1.203
				c0,0.469-0.137,0.91-0.41,1.324s-0.668,0.734-1.184,0.961s-1.099,0.34-1.75,0.34c-1.078,0-1.9-0.225-2.465-0.672
				C363.775,207.348,363.415,206.684,363.259,205.805z"/>
			<path fill="#3C3C3B" d="M376.446,208.281v-11.453h4.32c0.76,0,1.341,0.035,1.742,0.109c0.562,0.094,1.034,0.271,1.414,0.535
				c0.38,0.262,0.686,0.631,0.918,1.105c0.231,0.473,0.348,0.994,0.348,1.562c0,0.973-0.31,1.797-0.93,2.473
				c-0.62,0.674-1.74,1.012-3.359,1.012h-2.938v4.656H376.446z M377.962,202.273h2.961c0.979,0,1.674-0.184,2.086-0.547
				c0.411-0.365,0.617-0.879,0.617-1.539c0-0.48-0.121-0.891-0.363-1.23c-0.242-0.342-0.562-0.566-0.957-0.676
				c-0.255-0.068-0.727-0.102-1.414-0.102h-2.93V202.273z"/>
			<path fill="#3C3C3B" d="M392.618,205.609l1.453,0.18c-0.229,0.848-0.654,1.508-1.273,1.977c-0.62,0.469-1.412,0.703-2.375,0.703
				c-1.214,0-2.176-0.375-2.887-1.121c-0.711-0.748-1.066-1.797-1.066-3.145c0-1.396,0.359-2.48,1.078-3.25
				c0.719-0.771,1.651-1.156,2.797-1.156c1.109,0,2.016,0.377,2.719,1.133c0.703,0.754,1.055,1.816,1.055,3.188
				c0,0.082-0.003,0.207-0.008,0.375h-6.188c0.052,0.91,0.31,1.609,0.773,2.094c0.463,0.484,1.042,0.727,1.734,0.727
				c0.516,0,0.956-0.137,1.32-0.406C392.115,206.635,392.404,206.203,392.618,205.609z M388.001,203.336h4.633
				c-0.062-0.699-0.24-1.223-0.531-1.57c-0.448-0.543-1.029-0.812-1.742-0.812c-0.646,0-1.189,0.215-1.629,0.648
				C388.291,202.033,388.048,202.611,388.001,203.336z"/>
			<path fill="#3C3C3B" d="M395.274,205.805l1.391-0.219c0.078,0.557,0.295,0.984,0.652,1.281c0.356,0.297,0.855,0.445,1.496,0.445
				c0.646,0,1.125-0.133,1.438-0.395c0.312-0.264,0.469-0.572,0.469-0.926c0-0.318-0.138-0.568-0.414-0.75
				c-0.193-0.125-0.672-0.285-1.438-0.477c-1.031-0.262-1.746-0.486-2.145-0.676c-0.398-0.191-0.701-0.453-0.906-0.789
				c-0.206-0.336-0.309-0.707-0.309-1.113c0-0.371,0.084-0.713,0.254-1.027c0.169-0.316,0.399-0.578,0.691-0.785
				c0.219-0.162,0.517-0.299,0.895-0.41c0.377-0.113,0.782-0.168,1.215-0.168c0.651,0,1.223,0.094,1.715,0.281
				s0.855,0.441,1.09,0.762s0.396,0.748,0.484,1.285l-1.375,0.188c-0.062-0.428-0.244-0.762-0.543-1
				c-0.3-0.24-0.723-0.359-1.27-0.359c-0.646,0-1.107,0.105-1.383,0.32c-0.276,0.213-0.414,0.463-0.414,0.75
				c0,0.182,0.057,0.346,0.172,0.492c0.114,0.15,0.294,0.275,0.539,0.375c0.141,0.051,0.555,0.172,1.242,0.359
				c0.995,0.266,1.688,0.482,2.082,0.652c0.393,0.168,0.702,0.414,0.926,0.738c0.224,0.322,0.336,0.723,0.336,1.203
				c0,0.469-0.137,0.91-0.41,1.324s-0.668,0.734-1.184,0.961s-1.099,0.34-1.75,0.34c-1.078,0-1.9-0.225-2.465-0.672
				C395.791,207.348,395.431,206.684,395.274,205.805z"/>
			<path fill="#3C3C3B" d="M406.907,207.023l0.203,1.242c-0.396,0.082-0.75,0.125-1.062,0.125c-0.511,0-0.906-0.082-1.188-0.242
				c-0.281-0.162-0.479-0.375-0.594-0.637c-0.115-0.264-0.172-0.816-0.172-1.66v-4.773h-1.031v-1.094h1.031v-2.055l1.398-0.844
				v2.898h1.414v1.094h-1.414v4.852c0,0.4,0.024,0.658,0.074,0.773c0.049,0.113,0.13,0.205,0.242,0.273
				c0.112,0.066,0.272,0.102,0.48,0.102C406.446,207.078,406.652,207.059,406.907,207.023z"/>
			<path fill="#3C3C3B" d="M413.696,207.258c-0.521,0.441-1.022,0.754-1.504,0.938c-0.482,0.182-0.999,0.273-1.551,0.273
				c-0.912,0-1.612-0.223-2.102-0.668c-0.49-0.445-0.734-1.016-0.734-1.707c0-0.406,0.092-0.777,0.277-1.113
				c0.185-0.336,0.427-0.605,0.727-0.809c0.299-0.203,0.637-0.357,1.012-0.461c0.276-0.074,0.692-0.145,1.25-0.211
				c1.135-0.137,1.971-0.297,2.508-0.484c0.005-0.193,0.008-0.316,0.008-0.367c0-0.574-0.133-0.977-0.398-1.211
				c-0.359-0.318-0.894-0.477-1.602-0.477c-0.662,0-1.15,0.115-1.465,0.348c-0.315,0.23-0.548,0.641-0.699,1.23l-1.375-0.188
				c0.125-0.59,0.331-1.064,0.617-1.426c0.286-0.363,0.7-0.641,1.242-0.836c0.542-0.195,1.169-0.293,1.883-0.293
				c0.708,0,1.284,0.082,1.727,0.25c0.442,0.166,0.768,0.375,0.977,0.629c0.208,0.252,0.354,0.57,0.438,0.957
				c0.047,0.238,0.07,0.672,0.07,1.297v1.875c0,1.307,0.03,2.133,0.09,2.48c0.06,0.346,0.178,0.678,0.355,0.996h-1.469
				C413.832,207.988,413.738,207.648,413.696,207.258z M413.579,204.117c-0.511,0.207-1.276,0.385-2.297,0.531
				c-0.578,0.082-0.987,0.176-1.227,0.281c-0.24,0.104-0.425,0.256-0.555,0.457c-0.13,0.199-0.195,0.422-0.195,0.668
				c0,0.375,0.142,0.688,0.426,0.938c0.284,0.25,0.699,0.375,1.246,0.375c0.542,0,1.023-0.119,1.445-0.355
				c0.422-0.238,0.731-0.562,0.93-0.973c0.151-0.318,0.227-0.787,0.227-1.406V204.117z"/>
			<path fill="#3C3C3B" d="M417.181,208.281v-8.297h1.266v1.18c0.609-0.912,1.489-1.367,2.641-1.367c0.5,0,0.959,0.09,1.379,0.27
				c0.419,0.18,0.733,0.414,0.941,0.707c0.208,0.291,0.354,0.637,0.438,1.039c0.052,0.26,0.078,0.715,0.078,1.367v5.102h-1.406
				v-5.047c0-0.574-0.055-1.002-0.164-1.285c-0.109-0.285-0.304-0.512-0.582-0.68c-0.279-0.17-0.605-0.254-0.98-0.254
				c-0.599,0-1.116,0.189-1.551,0.57c-0.435,0.379-0.652,1.102-0.652,2.164v4.531H417.181z M418.173,198.758
				c-0.005-0.543,0.143-0.975,0.445-1.297c0.297-0.324,0.677-0.484,1.141-0.484c0.323,0,0.763,0.141,1.32,0.422
				c0.307,0.156,0.552,0.234,0.734,0.234c0.167,0,0.294-0.047,0.383-0.137c0.088-0.092,0.151-0.273,0.188-0.543h1.016
				c-0.016,0.594-0.166,1.039-0.449,1.336c-0.284,0.297-0.645,0.445-1.082,0.445c-0.328,0-0.761-0.146-1.297-0.438
				c-0.349-0.188-0.604-0.281-0.766-0.281c-0.177,0-0.32,0.062-0.43,0.188c-0.115,0.125-0.169,0.309-0.164,0.555H418.173z"/>
			<path fill="#3C3C3B" d="M431.493,207.258c-0.521,0.441-1.022,0.754-1.504,0.938c-0.482,0.182-0.999,0.273-1.551,0.273
				c-0.912,0-1.612-0.223-2.102-0.668c-0.49-0.445-0.734-1.016-0.734-1.707c0-0.406,0.092-0.777,0.277-1.113
				c0.185-0.336,0.427-0.605,0.727-0.809c0.299-0.203,0.637-0.357,1.012-0.461c0.276-0.074,0.692-0.145,1.25-0.211
				c1.135-0.137,1.971-0.297,2.508-0.484c0.005-0.193,0.008-0.316,0.008-0.367c0-0.574-0.133-0.977-0.398-1.211
				c-0.359-0.318-0.894-0.477-1.602-0.477c-0.662,0-1.15,0.115-1.465,0.348c-0.315,0.23-0.548,0.641-0.699,1.23l-1.375-0.188
				c0.125-0.59,0.331-1.064,0.617-1.426c0.286-0.363,0.7-0.641,1.242-0.836c0.542-0.195,1.169-0.293,1.883-0.293
				c0.708,0,1.284,0.082,1.727,0.25c0.442,0.166,0.768,0.375,0.977,0.629c0.208,0.252,0.354,0.57,0.438,0.957
				c0.047,0.238,0.07,0.672,0.07,1.297v1.875c0,1.307,0.03,2.133,0.09,2.48c0.06,0.346,0.178,0.678,0.355,0.996h-1.469
				C431.628,207.988,431.535,207.648,431.493,207.258z M431.376,204.117c-0.511,0.207-1.276,0.385-2.297,0.531
				c-0.578,0.082-0.987,0.176-1.227,0.281c-0.24,0.104-0.425,0.256-0.555,0.457c-0.13,0.199-0.195,0.422-0.195,0.668
				c0,0.375,0.142,0.688,0.426,0.938c0.284,0.25,0.699,0.375,1.246,0.375c0.542,0,1.023-0.119,1.445-0.355
				c0.422-0.238,0.731-0.562,0.93-0.973c0.151-0.318,0.227-0.787,0.227-1.406V204.117z"/>
			<path fill="#3C3C3B" d="M435.376,208.281v-1.602h1.602v1.602H435.376z"/>
		</g>
	</g>
	<path fill="#F39200" d="M26.917,10.223l-0.861,0.365l-0.393,0.107l-0.421,0.072c-0.015,0.002-0.029,0.002-0.042,0.002l-0.405-0.033
		l-0.356-0.072l-0.437-0.178l-0.277-0.051l-0.39,0.059l-0.387,0.162l-0.352,0.105c-0.042,0.014-0.086,0.01-0.125-0.01l-0.203-0.102
		c-0.041-0.018-0.072-0.055-0.086-0.098l-0.134-0.404l-0.122-0.301l-0.218-0.246L21.315,9.48c-0.047-0.016-0.085-0.049-0.105-0.096
		c-0.02-0.045-0.018-0.098,0.005-0.143l0.274-0.516c0.017-0.027,0.041-0.051,0.07-0.064l0.221-0.111l0.414-0.797
		c0.016-0.029,0.039-0.053,0.068-0.068l0.246-0.137l0.25-0.748c0.007-0.02,0.016-0.039,0.03-0.055l0.287-0.35l0.293-0.785
		c0.006-0.012,0.012-0.025,0.021-0.039l0.203-0.277l-0.16-0.254l-0.859-0.725l-0.868-0.514l-0.651-0.164
		c-0.017-0.002-0.032-0.008-0.047-0.018l-0.589-0.359l-0.654-0.197c-0.044-0.014-0.081-0.045-0.103-0.086l-0.167-0.336
		c-0.017-0.033-0.022-0.068-0.017-0.102l0.034-0.236l0.108-0.332l0.024-0.213l-0.098-0.584l-0.09-0.361l-0.233-0.32l-0.23-0.152
		l-0.346,0.027c-0.019,0.004-0.033,0-0.049-0.002l-0.811-0.17l-0.583-0.029l-0.529-0.105L15.212,0l-3.319,0.453l-0.018,0.141
		c-0.002,0.025-0.013,0.053-0.026,0.074l-0.734,1.1l-0.07,0.178l0.02,0.01l0.289-0.031l0.372,0.033l0.429,0.107
		c0.012,0.002,0.024,0.008,0.035,0.014l0.337,0.168c0.019,0.012,0.037,0.023,0.052,0.039l0.235,0.27
		c0.019,0.021,0.032,0.047,0.038,0.076l0.067,0.303c0.005,0.023,0.005,0.047,0.001,0.07c-0.005,0.021-0.014,0.045-0.028,0.064
		l-0.338,0.473l-0.235,0.24l-0.558,1.051l0.084,0.184l0.085,0.182l0.108,0.357l0.141,0.867L12.18,6.82l-0.062,0.324l0.042,0.123
		l0.057,0.059l0.217,0.123c0.016,0.012,0.033,0.023,0.044,0.039l0.169,0.203c0.019,0.023,0.032,0.051,0.037,0.078l0.033,0.203
		c0.008,0.045-0.002,0.092-0.028,0.127l-0.17,0.236c-0.018,0.025-0.042,0.043-0.07,0.057l-0.539,0.236l-0.749,0.246l-0.209,0.508
		c-0.011,0.025-0.028,0.049-0.051,0.066l-0.168,0.137c-0.024,0.02-0.055,0.031-0.087,0.035l-0.548,0.064L9.921,9.762l-0.278,0.34
		c-0.016,0.02-0.037,0.035-0.06,0.045l-0.372,0.17c-0.011,0.004-0.022,0.008-0.033,0.012l-0.271,0.061l-0.782,0.553
		c-0.015,0.01-0.03,0.018-0.048,0.023l-0.879,0.27c-0.015,0.008-0.032,0.008-0.049,0.008H6.914c-0.015,0-0.03,0-0.044-0.006
		L6.52,11.141H6.367l-0.278,0.094L5.26,11.408l-0.252,0.084l-0.279,0.246l-0.407,0.41l-0.391,0.979L3.716,13.49
		c-0.006,0.012-0.014,0.021-0.023,0.029l-0.709,0.744l-0.319,0.484L2.43,14.986l-0.226,0.48c-0.004,0.01-0.011,0.021-0.017,0.031
		l-0.379,0.504l-0.129,1.035L1.411,18.02v0.291l0.057,0.229l0.697,1.23l0.603,0.936l0.201,0.258l0.267,0.119l0.366,0.254l0.387,0.35
		l1.323,1.793l0.216,0.152l0.648,0.602l0.348,0.324c0.028,0.027,0.047,0.062,0.052,0.102l0.102,0.775
		c0.004,0.029,0,0.057-0.009,0.08l-0.109,0.301l0.538,1.016l0.754,2.221c0.019,0.053,0.008,0.113-0.027,0.158L7.452,29.68
		c-0.033,0.043-0.083,0.068-0.139,0.064c-0.055,0-0.104-0.027-0.135-0.074l-0.244-0.367L6.89,29.281l-0.084,0.016l-1.087,0.627
		c-0.031,0.018-0.065,0.025-0.1,0.023l-0.439-0.033H4.348c-0.027,0-0.053-0.006-0.076-0.018L4.07,29.795l-0.3-0.23L3.64,29.539
		l-0.354-0.031l-0.268-0.074l-0.33-0.059l-0.458,0.062l-0.319,0.127l-0.358,0.209l-1.062,1.262c-0.01,0.012-0.021,0.021-0.032,0.029
		L0,31.389l1.024,0.607c0.01,0.008,0.019,0.014,0.029,0.023l0.964,0.896l0.456,0.262c0.01,0.006,0.022,0.014,0.031,0.021
		l0.404,0.371c0.031,0.029,0.05,0.066,0.054,0.109l0.132,1.25l0.207,0.414l0.378,0.314l0.146,0.146
		c0.011,0.01,0.019,0.02,0.026,0.033l0.102,0.168c0.013,0.021,0.021,0.047,0.023,0.072l0.099,1l0.002,0.297l0,0
		c0,0.035-0.011,0.07-0.031,0.1l-0.204,0.291v0.242l0.119,0.215l0.235,0.105l0.835,0.162l0.533-0.033
		c0.051,0,0.103,0.025,0.134,0.066l0.101,0.137c0.02,0.025,0.031,0.055,0.034,0.088l0.034,0.438l0.092,0.42l0.276,0.434l0.663,0.662
		l0.589,0.795c0.022,0.027,0.033,0.061,0.035,0.094c0.001,0.033-0.007,0.064-0.025,0.094l-0.531,0.863l-0.23,0.658l-0.241,0.418
		L5.92,45.412l0.316,0.402l0.761,0.725c0.008,0.008,0.015,0.016,0.022,0.025l0.303,0.439c0.017,0.023,0.027,0.051,0.03,0.078
		l0.067,0.641c0.002,0.018,0.001,0.035-0.002,0.055l-0.102,0.471c-0.001,0.014-0.006,0.025-0.012,0.039l-0.397,0.824L6.813,49.58
		l0.033,1.467l0.09,0.406l0.148,0.209l0.4,0.498c0.015,0.018,0.025,0.041,0.032,0.064l0.067,0.27
		c0.003,0.014,0.005,0.027,0.005,0.041v0.777l0.093,0.482l0.494,0.887c0.005,0.01,0.01,0.02,0.014,0.033l0.169,0.537l0.174,1.654
		c0.004,0.023,0.001,0.045-0.005,0.066l-0.102,0.338l-0.155,0.316l0.018,0.129l0.129,0.131c0.022,0.02,0.038,0.047,0.045,0.076
		l0.067,0.271c0.008,0.035,0.005,0.07-0.007,0.104l-0.067,0.17l-0.184,0.297l-0.075,0.209v0.611l-0.036,0.262
		c-0.002,0.016-0.006,0.031-0.014,0.047l-0.203,0.439l-0.056,0.238c-0.007,0.029-0.023,0.059-0.046,0.078l-0.194,0.195l-0.021,0.162
		l0.078,0.158c0.007,0.014,0.014,0.031,0.016,0.045l0.067,0.406l0.063,0.219c0.008,0.023,0.008,0.049,0.004,0.076l-0.029,0.178
		l0.163,1.41l0.163,0.453l0.933,1.627c0.013,0.021,0.021,0.045,0.021,0.07l0.03,0.352l0.132,0.154l0.218,0.053
		c0.011,0.004,0.023,0.008,0.034,0.014l0.135,0.066c0.021,0.012,0.04,0.025,0.054,0.043l0.151,0.182l0.247,0.156
		c0.021,0.012,0.038,0.029,0.051,0.049l0.136,0.201c0.008,0.014,0.015,0.027,0.019,0.041l0.134,0.406
		c0.007,0.016,0.009,0.033,0.009,0.053v0.404c0,0.023-0.003,0.045-0.013,0.066l-0.169,0.404c-0.01,0.025-0.026,0.047-0.047,0.064
		l-0.642,0.539l-0.38,0.277l-0.362,0.367L8.765,69.77l-0.025,0.15l0.062,0.309l0.068,0.445c0.006,0.039-0.002,0.076-0.021,0.111
		l-0.215,0.369L8.61,71.619l2.295,0.107l0-0.014c-0.001-0.008-0.001-0.016-0.002-0.02c-0.002-0.031,0.001-0.062,0.016-0.092V71.6
		h0.001c0.034-0.066,0.11-0.102,0.181-0.086l0.843,0.17c0.012,0.002,0.023,0.004,0.035,0.01l0.235,0.102l0.189,0.111
		c0.014,0.008,0.028,0.02,0.04,0.033l0.139,0.15l0.258,0.279l0.392,0.092c0.018,0.002,0.033,0.01,0.048,0.02l0.169,0.102
		l0.439,0.336l0.198,0.084l0.147,0.023l0.236-0.057l0.345-0.168l0.333-0.16l0.415-0.289l0.32-0.291l0.216-0.283l0.27-0.27
		l0.193-0.32l0.516-0.691l0.084-0.174l0.051-0.191l0.033-0.455l-0.066-0.783c-0.002-0.018,0-0.039,0.004-0.057l0.102-0.404
		l0.106-0.289c0.01-0.027,0.029-0.053,0.053-0.072l0.168-0.135c0.013-0.012,0.027-0.02,0.041-0.023l0.387-0.162l0.237-0.178
		l0.19-0.223l0.276-0.367l0.06-0.27l0.027-0.258l-0.043-0.193l-0.294-0.135c-0.025-0.012-0.048-0.029-0.065-0.051l-0.1-0.135
		l-0.159-0.213l-0.906-0.094c-0.041-0.004-0.08-0.023-0.108-0.055l-0.303-0.338c-0.017-0.018-0.028-0.037-0.036-0.059l-0.102-0.305
		c-0.005-0.02-0.009-0.043-0.008-0.062l0,0l0,0v-0.018l0.034-0.557l-0.03-0.305l0-0.016l-0.308-0.705l-0.263-0.176
		c-0.043-0.031-0.071-0.078-0.075-0.129l-0.1-1.791l0.069-0.539c0-0.012,0.004-0.021,0.007-0.035l0.169-0.473
		c0.003-0.01,0.008-0.02,0.015-0.031l0.256-0.416l0.164-0.648l0.374-0.824l0.295-1.41L17.25,55.83l-0.305-0.23l-0.776-0.094
		l-0.083,0.016l-0.048,0.129l0.087,0.318l0.159,0.346c0.006,0.016,0.011,0.029,0.014,0.045l0.136,0.877
		c0.008,0.059-0.015,0.121-0.062,0.156l-0.654,0.527l-0.324,0.482c-0.013,0.02-0.028,0.035-0.047,0.047l-0.102,0.068
		c-0.031,0.021-0.067,0.029-0.103,0.025c-0.034,0-0.065-0.014-0.093-0.035c-0.002-0.002-0.005,0-0.007-0.002l0,0h-0.001
		l-0.235-0.203c-0.032-0.027-0.053-0.066-0.059-0.107l-0.058-0.467l-0.398-0.283l-0.297-0.119l-0.486-0.064
		c-0.063-0.01-0.117-0.053-0.137-0.115l-0.035-0.102c-0.009-0.027-0.01-0.057-0.004-0.086l0,0l0,0l0.01-0.051l0.023-0.117
		c0.006-0.029,0.02-0.059,0.04-0.08l0.514-0.578l0.242-0.875l-0.11-0.197l-0.089-0.045c-0.036-0.018-0.063-0.047-0.08-0.086
		l-0.357-0.85l-0.075-0.178l-0.164-0.236l-0.467-0.664c-0.007-0.008-0.013-0.02-0.018-0.031l-0.236-0.572
		c-0.009-0.02-0.013-0.043-0.013-0.064v-0.475c0-0.012,0.001-0.023,0.004-0.035l0.067-0.305c0.003-0.012,0.008-0.025,0.013-0.037
		l0.137-0.273l0.312-0.486c0.008-0.014,0.019-0.023,0.029-0.035l0.338-0.303l0.818-0.648l0.198-0.199l0.036-0.092l-0.058-0.322
		c-0.005-0.031-0.003-0.064,0.009-0.094l0.068-0.168c0.007-0.023,0.021-0.041,0.037-0.057l0.067-0.068l0.067-0.068
		c0.009-0.008,0.018-0.016,0.028-0.023l0.574-0.371l0.289-0.262l0.068-0.158l-0.024-0.166l-0.003-0.023l-0.163-0.516l-0.307-1.154
		c-0.008-0.027-0.008-0.057,0-0.086l0.164-0.621v-0.146l-0.1-0.891c-0.002-0.014-0.002-0.023,0-0.037l0.302-3.156l-0.099-0.859
		c-0.004-0.037,0.003-0.072,0.02-0.104l0.439-0.775c0.017-0.029,0.042-0.053,0.071-0.068l0.203-0.1
		c0.012-0.008,0.024-0.012,0.037-0.014l0.173-0.041l0.177-0.041l-0.022-0.012c-0.057-0.033-0.091-0.094-0.086-0.16l0.035-0.506
		c0.002-0.027,0.01-0.055,0.024-0.078l0.271-0.439c0.012-0.018,0.028-0.035,0.046-0.047l0.81-0.574l0.37-0.373l0.295-0.457
		l0.763-1.932c0.003-0.01,0.009-0.021,0.017-0.031l1.812-2.686l0.398-0.998c0.01-0.023,0.024-0.045,0.044-0.062l0.337-0.303
		l0.918-0.582l0.341-0.34l0.225-0.416l0.564-1.531c0.004-0.014,0.009-0.023,0.016-0.033l1.25-1.959l0.699-1.436l0.148-0.541
		l-0.058-0.348l-0.193-0.418l-0.178-0.633c-0.005-0.02-0.007-0.039-0.006-0.057l0.033-0.473l0.171-0.9l0.031-0.885
		c0-0.014,0.003-0.027,0.007-0.041l1.182-4.053l0.432-5.031v-0.559L26.917,10.223z"/>
	<g>
		<g>
			<g enable-background="new    ">
				<path fill="#331842" d="M265.333,135.211l-2.908,0.01v-0.264c0-1.529-0.576-2.295-1.729-2.295c-1.231,0-1.847,1.413-1.847,4.238
					c0,3.184,0.646,4.775,1.939,4.775h0.013c1.292-0.006,1.939-0.787,1.939-2.344v-0.967h3.249v0.732
					c0,3.242-1.786,4.938-5.358,5.088c-0.104,0.007-0.209,0.01-0.314,0.01c-3.362,0-5.043-2.408-5.043-7.227
					c0-4.713,1.729-7.07,5.188-7.07c3.257,0,4.886,1.576,4.886,4.727C265.346,134.814,265.341,135.01,265.333,135.211z"/>
				<path fill="#331842" d="M275.185,130.211v2.754l-5.175-0.156v3.203l4.651-0.098l0.118,2.646h-4.153v2.48h5.437v2.773
					l-9.066-0.098c0.096-1.829,0.144-3.672,0.144-5.527c0-2.571-0.092-5.166-0.275-7.783
					C268.839,130.348,271.612,130.283,275.185,130.211z"/>
				<path fill="#331842" d="M277.372,138.814l3.891-0.195c-0.053,0.404-0.079,0.769-0.079,1.094c0,1.479,0.493,2.217,1.48,2.217
					h0.053c1.196-0.025,1.795-0.501,1.795-1.426v-0.088c-0.044-0.982-1.175-1.946-3.393-2.891c-2.158-0.911-3.236-2.415-3.236-4.512
					c0-0.064,0.004-0.13,0.013-0.195c0.061-2.193,1.712-3.311,4.952-3.35h0.105c2.926,0,4.389,1.391,4.389,4.17
					c0,0.222-0.009,0.456-0.026,0.703l-3.419,0.146c0.035-0.293,0.052-0.562,0.052-0.811c0-1.165-0.38-1.748-1.14-1.748
					c-0.917,0-1.419,0.349-1.507,1.045c-0.009,0.098-0.013,0.195-0.013,0.293c0,0.58,0.231,1.12,0.694,1.621
					c0.533,0.58,1.448,1.11,2.745,1.592c1.297,0.482,2.203,1.143,2.718,1.982c0.367,0.605,0.55,1.25,0.55,1.934
					c0,0.261-0.026,0.527-0.079,0.801c-0.201,0.983-0.76,1.799-1.677,2.447c-0.917,0.647-2.148,1-3.694,1.059
					c-0.105,0.007-0.209,0.01-0.314,0.01c-1.406,0-2.581-0.384-3.524-1.152c-0.909-0.735-1.362-2.073-1.362-4.014
					C277.346,139.312,277.354,139.068,277.372,138.814z"/>
				<path fill="#331842" d="M288.363,143.883c1.642-5.56,2.969-10.273,3.982-14.141l4.913-0.059c1.205,4.023,2.585,8.607,4.14,13.75
					l-3.354,0.508l-1.061-3.701h-4.074l-1.101,3.994L288.363,143.883z M296.879,137.496c-0.455-1.406-1.197-3.089-2.228-5.049
					c-0.794,1.647-1.467,3.354-2.017,5.117L296.879,137.496z"/>
				<path fill="#331842" d="M301.909,144.137c0.053-1.861,0.079-3.736,0.079-5.625c0-2.891-0.061-5.811-0.183-8.76
					c1.354-0.104,2.568-0.156,3.642-0.156c2.987,0,4.891,0.407,5.711,1.221c0.769,0.762,1.153,1.602,1.153,2.52
					c0,0.417-0.075,0.847-0.223,1.289c-0.506,1.433-1.572,2.341-3.196,2.725c1.135,0.117,1.996,0.573,2.581,1.367
					c0.559,0.769,0.839,2.702,0.839,5.801v0.42l-3.957,0.039c0.043-0.82,0.065-1.556,0.065-2.207c0-1.973-0.214-3.18-0.642-3.623
					c-0.489-0.494-1.07-0.742-1.742-0.742c-0.131,0-0.267,0.01-0.406,0.029c0.053,1.986,0.166,3.867,0.341,5.645L301.909,144.137z
					 M305.263,132.027l0.092,4.18c1.625-0.059,2.655-0.469,3.092-1.23c0.236-0.403,0.354-0.797,0.354-1.182
					c0-0.332-0.087-0.657-0.262-0.977c-0.314-0.553-1.096-0.83-2.345-0.83C305.905,131.988,305.595,132.002,305.263,132.027z"/>
			</g>
		</g>
	</g>
</g>
</svg>
