<?xml version="1.0" encoding="utf-8"?>
<!-- Generator: Adobe Illustrator 16.0.0, SVG Export Plug-In . SVG Version: 6.00 Build 0)  -->
<!DOCTYPE svg PUBLIC "-//W3C//DTD SVG 1.1//EN" "http://www.w3.org/Graphics/SVG/1.1/DTD/svg11.dtd">
<svg version="1.1" id="Capa_1" xmlns="http://www.w3.org/2000/svg" xmlns:xlink="http://www.w3.org/1999/xlink" x="0px" y="0px"
	 width="455.215px" height="99.004px" viewBox="0 0 455.215 99.004" enable-background="new 0 0 455.215 99.004"
	 xml:space="preserve">
<g>
	<g>
		<path fill="#331842" d="M178.534,35.695c0.021-2.534,0.03-5.144,0.03-7.828c0-2.691-0.01-5.455-0.03-8.29
			c1.16-0.105,2.229-0.158,3.208-0.158c2.724,0,4.731,0.406,6.022,1.219c1.755,1.112,2.673,3.169,2.754,6.169v0.812
			c0,2.571-0.333,4.406-0.999,5.504c-0.736,1.211-2.083,2.016-4.04,2.414c-1.13,0.233-2.371,0.35-3.722,0.35
			C180.749,35.887,179.674,35.823,178.534,35.695z M182.287,22.803c-0.171,2.475-0.257,4.865-0.257,7.174
			c0,0.872,0.01,1.729,0.03,2.571c0.353,0.061,0.69,0.091,1.014,0.091c0.888,0,1.634-0.229,2.239-0.688
			c0.827-0.616,1.241-2,1.241-4.15v-0.045c-0.01-2.166-0.414-3.587-1.21-4.264c-0.615-0.512-1.347-0.768-2.194-0.768
			C182.877,22.724,182.589,22.75,182.287,22.803z"/>
		<path fill="#331842" d="M197.509,24.213c3.319,0.136,4.978,1.38,4.978,3.733v8.008l-3.525,0.045l-0.121-1.071
			c-0.727,0.617-1.69,0.925-2.89,0.925c-0.514,0-1.069-0.06-1.665-0.18c-1.785-0.331-2.678-1.361-2.678-3.091
			c0-0.211,0.015-0.437,0.045-0.677c0.202-1.782,1.901-2.673,5.099-2.673c0.615,0,1.291,0.033,2.027,0.102v-1.309
			c0-1.061-0.449-1.591-1.347-1.591h-0.061c-0.071-0.007-0.136-0.011-0.197-0.011c-0.979,0-1.468,0.594-1.468,1.782v0.169
			l-3.601-0.226c0-2.624,1.695-3.937,5.084-3.937H197.509z M198.78,33.123v-1.985c-0.434-0.067-0.827-0.101-1.18-0.101
			c-0.918,0-1.543,0.229-1.876,0.688c-0.202,0.278-0.302,0.538-0.302,0.778c0,0.301,0.161,0.567,0.484,0.801
			c0.252,0.181,0.58,0.271,0.983,0.271C197.403,33.574,198.033,33.424,198.78,33.123z"/>
		<path fill="#331842" d="M206.481,24.247l0.151,1.838c0.424-0.978,1.538-1.474,3.344-1.488h0.061c1.775,0,2.985,0.519,3.631,1.556
			c0.444,0.707,0.666,2.361,0.666,4.963c0,1.278-0.056,2.79-0.167,4.534h-3.662c0.131-2.323,0.197-4.124,0.197-5.402
			c0-0.639-0.015-1.15-0.045-1.534c-0.101-1.128-0.585-1.691-1.453-1.691s-1.412,0.301-1.634,0.902l0.151,8.177l-3.556,0.023
			c0-3.459-0.156-7.343-0.469-11.651L206.481,24.247z M204.091,23.028c0-2.256,1.009-3.384,3.026-3.384
			c1.008,0,1.791,0.282,2.345,0.846c0.464,0.467,0.893,0.7,1.286,0.7c0.081,0,0.156-0.008,0.227-0.023
			c0.454-0.112,0.681-0.62,0.681-1.522h2.27c0,2.256-1.009,3.384-3.026,3.384c-1.009,0-1.816-0.282-2.421-0.846
			c-0.504-0.474-0.938-0.711-1.301-0.711c-0.071,0-0.142,0.012-0.212,0.034c-0.404,0.112-0.605,0.62-0.605,1.522H204.091z"/>
		<path fill="#331842" d="M220.917,24.54c3.43,0,5.145,1.774,5.145,5.323c0,0.144-0.005,0.286-0.015,0.429
			c-0.141,3.843-1.967,5.783-5.477,5.82c-0.041,0.008-0.081,0.012-0.121,0.012c-3.339,0-5.008-1.816-5.008-5.448V30.36
			C215.54,26.479,217.366,24.54,220.917,24.54z M220.417,27.111c-0.636,0.166-1.069,0.778-1.301,1.839
			c-0.142,0.632-0.212,1.267-0.212,1.906c0,0.429,0.03,0.861,0.091,1.297c0.161,1.083,0.681,1.643,1.559,1.681h0.106
			c0.817,0,1.376-0.402,1.679-1.207c0.252-0.669,0.378-1.462,0.378-2.38c0-0.226-0.005-0.455-0.015-0.688
			c-0.081-1.211-0.323-1.967-0.726-2.268c-0.252-0.181-0.555-0.271-0.908-0.271C220.866,27.021,220.649,27.052,220.417,27.111z"/>
		<path fill="#331842" d="M234.973,24.303l0.061,1.805c0.545-0.864,1.176-1.402,1.892-1.612c0.424-0.12,0.853-0.181,1.286-0.181
			c0.322,0,0.646,0.03,0.969,0.09c0.787,0.15,1.346,0.752,1.68,1.805c0.262-0.819,0.716-1.366,1.361-1.641s1.361-0.416,2.148-0.423
			h0.061c0.767,0,1.503,0.139,2.209,0.417c0.717,0.286,1.264,0.821,1.643,1.607c0.377,0.785,0.576,1.863,0.598,3.231v6.553
			l-3.27,0.057c0.132-2.474,0.197-4.579,0.197-6.316s-0.443-2.673-1.332-2.809c-0.131-0.015-0.257-0.022-0.378-0.022
			c-0.706,0-1.251,0.339-1.634,1.016c-0.061,0.782-0.091,1.695-0.091,2.74c0,1.421,0.056,3.079,0.167,4.975l-3.783,0.022
			c0.141-2.91,0.211-5.03,0.211-6.361v-0.136c-0.01-1.315-0.357-2.008-1.043-2.075h-0.197c-0.615,0-1.211,0.264-1.785,0.789
			l0.03,8.257l-3.571,0.102v-1.85c0-3.278-0.065-6.554-0.196-9.824L234.973,24.303z"/>
		<path fill="#331842" d="M255.112,24.54c3.43,0,5.145,1.774,5.145,5.323c0,0.144-0.004,0.286-0.015,0.429
			c-0.142,3.843-1.967,5.783-5.478,5.82c-0.04,0.008-0.08,0.012-0.121,0.012c-3.338,0-5.008-1.816-5.008-5.448V30.36
			C249.736,26.479,251.561,24.54,255.112,24.54z M254.614,27.111c-0.637,0.166-1.07,0.778-1.302,1.839
			c-0.142,0.632-0.212,1.267-0.212,1.906c0,0.429,0.03,0.861,0.091,1.297c0.161,1.083,0.681,1.643,1.559,1.681h0.106
			c0.816,0,1.376-0.402,1.679-1.207c0.252-0.669,0.378-1.462,0.378-2.38c0-0.226-0.005-0.455-0.015-0.688
			c-0.081-1.211-0.323-1.967-0.726-2.268c-0.253-0.181-0.556-0.271-0.908-0.271C255.062,27.021,254.845,27.052,254.614,27.111z"/>
		<path fill="#331842" d="M265.114,28.036l0.151,8.178l-3.707,0.022c0-3.459-0.156-7.343-0.469-11.651l2.784-0.226l0.15,1.839
			c0.424-0.902,1.412-1.418,2.967-1.546c0.231-0.015,0.453-0.022,0.665-0.022c1.221,0,2.149,0.298,2.784,0.892
			c0.736,0.707,1.109,1.831,1.119,3.372l-3.358,0.248c0.01-0.128,0.015-0.252,0.015-0.372c0-1.203-0.418-1.805-1.256-1.805h-0.061
			C265.931,27.003,265.336,27.359,265.114,28.036z"/>
		<path fill="#331842" d="M278.429,24.213c3.319,0.136,4.978,1.38,4.978,3.733v8.008l-3.525,0.045l-0.121-1.071
			c-0.727,0.617-1.689,0.925-2.89,0.925c-0.515,0-1.069-0.06-1.665-0.18c-1.785-0.331-2.678-1.361-2.678-3.091
			c0-0.211,0.016-0.437,0.046-0.677c0.202-1.782,1.901-2.673,5.099-2.673c0.615,0,1.291,0.033,2.027,0.102v-1.309
			c0-1.061-0.449-1.591-1.346-1.591h-0.061c-0.071-0.007-0.137-0.011-0.197-0.011c-0.979,0-1.468,0.594-1.468,1.782v0.169
			l-3.601-0.226c0-2.624,1.694-3.937,5.084-3.937H278.429z M279.7,33.123v-1.985c-0.434-0.067-0.826-0.101-1.18-0.101
			c-0.918,0-1.543,0.229-1.877,0.688c-0.201,0.278-0.302,0.538-0.302,0.778c0,0.301,0.161,0.567,0.483,0.801
			c0.252,0.181,0.58,0.271,0.984,0.271C278.323,33.574,278.954,33.424,279.7,33.123z"/>
		<path fill="#331842" d="M288.87,35.932l-3.768,0.26c0.04-2.489,0.061-4.884,0.061-7.185c0-3.233-0.041-6.283-0.121-9.147
			l3.707-0.046c-0.041,1.843-0.061,3.733-0.061,5.674C288.688,28.834,288.749,32.315,288.87,35.932z"/>
		<path fill="#3C3C3B" d="M36.323,51.872l1.516,0.383c-0.318,1.246-0.89,2.195-1.715,2.848c-0.826,0.654-1.835,0.98-3.027,0.98
			c-1.234,0-2.238-0.25-3.012-0.754c-0.773-0.502-1.362-1.23-1.766-2.184c-0.404-0.953-0.605-1.977-0.605-3.07
			c0-1.192,0.228-2.233,0.684-3.121c0.456-0.888,1.104-1.562,1.945-2.023c0.841-0.461,1.767-0.691,2.777-0.691
			c1.146,0,2.109,0.292,2.891,0.875s1.325,1.403,1.633,2.461l-1.492,0.352c-0.266-0.833-0.651-1.44-1.156-1.82
			c-0.505-0.38-1.141-0.57-1.906-0.57c-0.88,0-1.616,0.211-2.207,0.633c-0.591,0.422-1.007,0.988-1.246,1.699
			c-0.24,0.711-0.359,1.444-0.359,2.199c0,0.975,0.142,1.824,0.426,2.551c0.284,0.727,0.725,1.27,1.324,1.629
			c0.599,0.359,1.247,0.539,1.945,0.539c0.849,0,1.567-0.244,2.156-0.734C35.716,53.563,36.115,52.836,36.323,51.872z"/>
		<path fill="#3C3C3B" d="M44.94,54.864c-0.521,0.443-1.022,0.756-1.504,0.938c-0.482,0.184-0.999,0.273-1.551,0.273
			c-0.912,0-1.612-0.223-2.102-0.668c-0.49-0.445-0.734-1.014-0.734-1.707c0-0.406,0.092-0.777,0.277-1.113
			c0.185-0.336,0.427-0.605,0.727-0.809c0.299-0.203,0.637-0.355,1.012-0.461c0.276-0.072,0.692-0.143,1.25-0.211
			c1.135-0.135,1.971-0.297,2.508-0.484c0.005-0.191,0.008-0.314,0.008-0.367c0-0.573-0.133-0.976-0.398-1.21
			c-0.359-0.317-0.894-0.477-1.602-0.477c-0.662,0-1.15,0.116-1.465,0.348c-0.315,0.231-0.548,0.642-0.699,1.23l-1.375-0.187
			c0.125-0.589,0.331-1.063,0.617-1.426c0.286-0.362,0.7-0.641,1.242-0.836c0.542-0.195,1.169-0.293,1.883-0.293
			c0.708,0,1.284,0.083,1.727,0.25c0.442,0.167,0.768,0.376,0.977,0.629c0.208,0.253,0.354,0.571,0.438,0.957
			c0.047,0.239,0.07,0.672,0.07,1.296v1.875c0,1.309,0.03,2.135,0.09,2.48c0.06,0.348,0.178,0.68,0.355,0.996h-1.469
			C45.076,55.596,44.982,55.254,44.94,54.864z M44.823,51.723c-0.511,0.209-1.276,0.387-2.297,0.531
			c-0.578,0.084-0.987,0.178-1.227,0.281c-0.24,0.105-0.425,0.258-0.555,0.457c-0.13,0.201-0.195,0.424-0.195,0.668
			c0,0.375,0.142,0.688,0.426,0.938c0.284,0.25,0.699,0.375,1.246,0.375c0.542,0,1.023-0.117,1.445-0.355
			c0.422-0.236,0.731-0.561,0.93-0.973c0.151-0.316,0.227-0.785,0.227-1.406V51.723z"/>
		<path fill="#3C3C3B" d="M53.862,55.887v-1.219c-0.646,0.938-1.523,1.406-2.633,1.406c-0.49,0-0.947-0.094-1.371-0.281
			c-0.425-0.188-0.74-0.422-0.945-0.707c-0.206-0.283-0.351-0.631-0.434-1.043c-0.058-0.275-0.086-0.713-0.086-1.312v-5.14H49.8
			v4.601c0,0.734,0.028,1.23,0.086,1.484c0.088,0.371,0.276,0.66,0.562,0.871c0.286,0.211,0.641,0.316,1.062,0.316
			s0.817-0.107,1.188-0.324c0.37-0.215,0.631-0.51,0.785-0.883c0.153-0.371,0.23-0.912,0.23-1.621v-4.445h1.406v8.296H53.862z"/>
		<path fill="#3C3C3B" d="M56.761,53.411l1.391-0.219c0.078,0.559,0.295,0.984,0.652,1.281c0.356,0.297,0.855,0.445,1.496,0.445
			c0.646,0,1.125-0.131,1.438-0.395c0.312-0.262,0.469-0.57,0.469-0.926c0-0.316-0.138-0.566-0.414-0.75
			c-0.193-0.125-0.672-0.283-1.438-0.477c-1.031-0.26-1.746-0.484-2.145-0.676c-0.398-0.189-0.701-0.453-0.906-0.789
			c-0.206-0.336-0.309-0.707-0.309-1.113c0-0.37,0.084-0.712,0.254-1.027c0.169-0.315,0.399-0.577,0.691-0.785
			c0.219-0.161,0.517-0.298,0.895-0.41c0.377-0.112,0.782-0.168,1.215-0.168c0.651,0,1.223,0.094,1.715,0.281
			s0.855,0.441,1.09,0.762s0.396,0.749,0.484,1.285l-1.375,0.188c-0.062-0.427-0.244-0.761-0.543-1
			c-0.3-0.239-0.723-0.359-1.27-0.359c-0.646,0-1.107,0.106-1.383,0.32c-0.276,0.214-0.414,0.464-0.414,0.75
			c0,0.183,0.057,0.347,0.172,0.492c0.114,0.152,0.294,0.277,0.539,0.375c0.141,0.053,0.555,0.172,1.242,0.359
			c0.995,0.266,1.688,0.484,2.082,0.652c0.393,0.17,0.702,0.416,0.926,0.738c0.224,0.324,0.336,0.725,0.336,1.203
			c0,0.469-0.137,0.91-0.41,1.324s-0.668,0.734-1.184,0.961s-1.099,0.34-1.75,0.34c-1.078,0-1.9-0.223-2.465-0.672
			C57.277,54.956,56.917,54.292,56.761,53.411z"/>
		<path fill="#3C3C3B" d="M70.737,54.864c-0.521,0.443-1.022,0.756-1.504,0.938c-0.482,0.184-0.999,0.273-1.551,0.273
			c-0.912,0-1.612-0.223-2.102-0.668c-0.49-0.445-0.734-1.014-0.734-1.707c0-0.406,0.092-0.777,0.277-1.113
			c0.185-0.336,0.427-0.605,0.727-0.809c0.299-0.203,0.637-0.355,1.012-0.461c0.276-0.072,0.692-0.143,1.25-0.211
			c1.135-0.135,1.971-0.297,2.508-0.484c0.005-0.191,0.008-0.314,0.008-0.367c0-0.573-0.133-0.976-0.398-1.21
			c-0.359-0.317-0.894-0.477-1.602-0.477c-0.662,0-1.15,0.116-1.465,0.348c-0.315,0.231-0.548,0.642-0.699,1.23l-1.375-0.187
			c0.125-0.589,0.331-1.063,0.617-1.426c0.286-0.362,0.7-0.641,1.242-0.836c0.542-0.195,1.169-0.293,1.883-0.293
			c0.708,0,1.284,0.083,1.727,0.25c0.442,0.167,0.768,0.376,0.977,0.629c0.208,0.253,0.354,0.571,0.438,0.957
			c0.047,0.239,0.07,0.672,0.07,1.296v1.875c0,1.309,0.03,2.135,0.09,2.48c0.06,0.348,0.178,0.68,0.355,0.996h-1.469
			C70.873,55.596,70.779,55.254,70.737,54.864z M70.62,51.723c-0.511,0.209-1.276,0.387-2.297,0.531
			c-0.578,0.084-0.987,0.178-1.227,0.281c-0.24,0.105-0.425,0.258-0.555,0.457c-0.13,0.201-0.195,0.424-0.195,0.668
			c0,0.375,0.142,0.688,0.426,0.938c0.284,0.25,0.699,0.375,1.246,0.375c0.542,0,1.023-0.117,1.445-0.355
			c0.422-0.236,0.731-0.561,0.93-0.973c0.151-0.316,0.227-0.785,0.227-1.406V51.723z"/>
		<path fill="#3C3C3B" d="M74.222,55.887v-8.296h1.266v1.18c0.609-0.911,1.489-1.367,2.641-1.367c0.5,0,0.959,0.09,1.379,0.27
			c0.419,0.18,0.733,0.415,0.941,0.707c0.208,0.292,0.354,0.638,0.438,1.039c0.052,0.261,0.078,0.716,0.078,1.367v5.102h-1.406
			V50.84c0-0.572-0.055-1-0.164-1.285s-0.304-0.511-0.582-0.68c-0.279-0.169-0.605-0.254-0.98-0.254c-0.599,0-1.116,0.19-1.551,0.57
			c-0.435,0.38-0.652,1.101-0.652,2.164v4.531H74.222z"/>
		<path fill="#3C3C3B" d="M87.003,53.411l1.391-0.219c0.078,0.559,0.295,0.984,0.652,1.281c0.356,0.297,0.855,0.445,1.496,0.445
			c0.646,0,1.125-0.131,1.438-0.395c0.312-0.262,0.469-0.57,0.469-0.926c0-0.316-0.138-0.566-0.414-0.75
			c-0.193-0.125-0.672-0.283-1.438-0.477c-1.031-0.26-1.746-0.484-2.145-0.676c-0.398-0.189-0.701-0.453-0.906-0.789
			c-0.206-0.336-0.309-0.707-0.309-1.113c0-0.37,0.084-0.712,0.254-1.027c0.169-0.315,0.399-0.577,0.691-0.785
			c0.219-0.161,0.517-0.298,0.895-0.41c0.377-0.112,0.782-0.168,1.215-0.168c0.651,0,1.223,0.094,1.715,0.281
			s0.855,0.441,1.09,0.762s0.396,0.749,0.484,1.285l-1.375,0.188c-0.062-0.427-0.244-0.761-0.543-1
			c-0.3-0.239-0.723-0.359-1.27-0.359c-0.646,0-1.107,0.106-1.383,0.32c-0.276,0.214-0.414,0.464-0.414,0.75
			c0,0.183,0.057,0.347,0.172,0.492c0.114,0.152,0.294,0.277,0.539,0.375c0.141,0.053,0.555,0.172,1.242,0.359
			c0.995,0.266,1.688,0.484,2.082,0.652c0.393,0.17,0.702,0.416,0.926,0.738c0.224,0.324,0.336,0.725,0.336,1.203
			c0,0.469-0.137,0.91-0.41,1.324s-0.668,0.734-1.184,0.961s-1.099,0.34-1.75,0.34c-1.078,0-1.9-0.223-2.465-0.672
			C87.52,54.956,87.159,54.292,87.003,53.411z"/>
		<path fill="#3C3C3B" d="M101.003,55.887v-1.219c-0.646,0.938-1.523,1.406-2.633,1.406c-0.49,0-0.947-0.094-1.371-0.281
			c-0.425-0.188-0.74-0.422-0.945-0.707c-0.206-0.283-0.351-0.631-0.434-1.043c-0.058-0.275-0.086-0.713-0.086-1.312v-5.14h1.406
			v4.601c0,0.734,0.028,1.23,0.086,1.484c0.088,0.371,0.276,0.66,0.562,0.871c0.286,0.211,0.641,0.316,1.062,0.316
			s0.817-0.107,1.188-0.324c0.37-0.215,0.631-0.51,0.785-0.883c0.153-0.371,0.23-0.912,0.23-1.621v-4.445h1.406v8.296H101.003z"/>
		<path fill="#3C3C3B" d="M104.8,55.887v-7.203h-1.242v-1.094h1.242v-0.883c0-0.558,0.049-0.972,0.148-1.242
			c0.135-0.364,0.374-0.66,0.715-0.887c0.341-0.227,0.819-0.34,1.434-0.34c0.396,0,0.833,0.047,1.312,0.141l-0.211,1.227
			c-0.292-0.052-0.568-0.078-0.828-0.078c-0.427,0-0.729,0.091-0.906,0.273c-0.177,0.183-0.266,0.523-0.266,1.023v0.766h1.617v1.094
			h-1.617v7.203H104.8z"/>
		<path fill="#3C3C3B" d="M108.894,55.887v-8.296h1.266v1.258c0.323-0.589,0.621-0.977,0.895-1.164s0.574-0.281,0.902-0.281
			c0.474,0,0.956,0.151,1.445,0.453l-0.484,1.305c-0.344-0.203-0.688-0.305-1.031-0.305c-0.308,0-0.583,0.093-0.828,0.277
			c-0.245,0.185-0.419,0.441-0.523,0.77c-0.156,0.5-0.234,1.046-0.234,1.64v4.344H108.894z"/>
		<path fill="#3C3C3B" d="M114.245,46.052v-1.617h1.406v1.617H114.245z M114.245,55.887v-8.296h1.406v8.296H114.245z"/>
		<path fill="#3C3C3B" d="M117.792,55.887v-8.296h1.258v1.164c0.26-0.406,0.606-0.733,1.039-0.98
			c0.432-0.247,0.924-0.371,1.477-0.371c0.614,0,1.118,0.128,1.512,0.383c0.393,0.255,0.67,0.612,0.832,1.07
			c0.656-0.969,1.51-1.453,2.562-1.453c0.823,0,1.456,0.228,1.898,0.684c0.442,0.456,0.664,1.157,0.664,2.105v5.695h-1.398v-5.227
			c0-0.562-0.046-0.967-0.137-1.214c-0.091-0.247-0.257-0.446-0.496-0.598c-0.24-0.151-0.521-0.227-0.844-0.227
			c-0.583,0-1.068,0.194-1.453,0.582c-0.386,0.388-0.578,1.009-0.578,1.863v4.82h-1.406v-5.391c0-0.625-0.115-1.093-0.344-1.406
			c-0.229-0.312-0.604-0.469-1.125-0.469c-0.396,0-0.762,0.104-1.098,0.312s-0.58,0.513-0.73,0.914
			c-0.151,0.402-0.227,0.98-0.227,1.734v4.305H117.792z"/>
		<path fill="#3C3C3B" d="M131.128,46.052v-1.617h1.406v1.617H131.128z M131.128,55.887v-8.296h1.406v8.296H131.128z"/>
		<path fill="#3C3C3B" d="M140.354,53.215l1.453,0.18c-0.229,0.85-0.654,1.508-1.273,1.977c-0.62,0.469-1.412,0.703-2.375,0.703
			c-1.214,0-2.176-0.373-2.887-1.121c-0.711-0.746-1.066-1.795-1.066-3.145c0-1.395,0.359-2.479,1.078-3.25s1.651-1.156,2.797-1.156
			c1.109,0,2.016,0.378,2.719,1.133s1.055,1.818,1.055,3.187c0,0.084-0.003,0.209-0.008,0.375h-6.188
			c0.052,0.912,0.31,1.609,0.773,2.094c0.463,0.484,1.042,0.727,1.734,0.727c0.516,0,0.956-0.135,1.32-0.406
			C139.852,54.243,140.141,53.809,140.354,53.215z M135.737,50.942h4.633c-0.062-0.697-0.24-1.221-0.531-1.57
			c-0.448-0.542-1.029-0.812-1.742-0.812c-0.646,0-1.189,0.216-1.629,0.648C136.027,49.641,135.784,50.219,135.737,50.942z"/>
		<path fill="#3C3C3B" d="M143.573,55.887v-8.296h1.266v1.18c0.609-0.911,1.489-1.367,2.641-1.367c0.5,0,0.959,0.09,1.379,0.27
			c0.419,0.18,0.733,0.415,0.941,0.707c0.208,0.292,0.354,0.638,0.438,1.039c0.052,0.261,0.078,0.716,0.078,1.367v5.102h-1.406
			V50.84c0-0.572-0.055-1-0.164-1.285s-0.304-0.511-0.582-0.68c-0.279-0.169-0.605-0.254-0.98-0.254c-0.599,0-1.116,0.19-1.551,0.57
			c-0.435,0.38-0.652,1.101-0.652,2.164v4.531H143.573z"/>
		<path fill="#3C3C3B" d="M155.542,54.629l0.203,1.242c-0.396,0.084-0.75,0.125-1.062,0.125c-0.511,0-0.906-0.08-1.188-0.242
			c-0.281-0.16-0.479-0.373-0.594-0.637c-0.115-0.262-0.172-0.816-0.172-1.66v-4.773h-1.031v-1.094h1.031v-2.055l1.398-0.844v2.898
			h1.414v1.094h-1.414v4.851c0,0.402,0.024,0.66,0.074,0.773c0.049,0.115,0.13,0.207,0.242,0.273
			c0.112,0.068,0.272,0.102,0.48,0.102C155.081,54.684,155.287,54.667,155.542,54.629z"/>
		<path fill="#3C3C3B" d="M156.394,51.739c0-1.535,0.427-2.674,1.281-3.414c0.713-0.614,1.583-0.922,2.609-0.922
			c1.141,0,2.073,0.374,2.797,1.121c0.724,0.747,1.086,1.781,1.086,3.097c0,1.068-0.16,1.908-0.48,2.52
			c-0.32,0.613-0.787,1.088-1.398,1.426c-0.612,0.34-1.28,0.508-2.004,0.508c-1.162,0-2.101-0.371-2.816-1.117
			C156.751,54.213,156.394,53.141,156.394,51.739z M157.839,51.739c0,1.062,0.231,1.859,0.695,2.387
			c0.463,0.529,1.047,0.793,1.75,0.793c0.698,0,1.278-0.266,1.742-0.797c0.463-0.531,0.695-1.34,0.695-2.43
			c0-1.025-0.233-1.803-0.699-2.332c-0.466-0.528-1.046-0.793-1.738-0.793c-0.703,0-1.287,0.263-1.75,0.789
			C158.07,49.883,157.839,50.676,157.839,51.739z"/>
		<path fill="#3C3C3B" d="M175.94,53.215l1.453,0.18c-0.229,0.85-0.654,1.508-1.273,1.977c-0.62,0.469-1.412,0.703-2.375,0.703
			c-1.214,0-2.176-0.373-2.887-1.121c-0.711-0.746-1.066-1.795-1.066-3.145c0-1.395,0.359-2.479,1.078-3.25s1.651-1.156,2.797-1.156
			c1.109,0,2.016,0.378,2.719,1.133s1.055,1.818,1.055,3.187c0,0.084-0.003,0.209-0.008,0.375h-6.188
			c0.052,0.912,0.31,1.609,0.773,2.094c0.463,0.484,1.042,0.727,1.734,0.727c0.516,0,0.956-0.135,1.32-0.406
			C175.438,54.243,175.727,53.809,175.94,53.215z M171.323,50.942h4.633c-0.062-0.697-0.24-1.221-0.531-1.57
			c-0.448-0.542-1.029-0.812-1.742-0.812c-0.646,0-1.189,0.216-1.629,0.648C171.613,49.641,171.37,50.219,171.323,50.942z"/>
		<path fill="#3C3C3B" d="M179.159,55.887v-8.296h1.266v1.18c0.609-0.911,1.489-1.367,2.641-1.367c0.5,0,0.959,0.09,1.379,0.27
			c0.419,0.18,0.733,0.415,0.941,0.707c0.208,0.292,0.354,0.638,0.438,1.039c0.052,0.261,0.078,0.716,0.078,1.367v5.102h-1.406
			V50.84c0-0.572-0.055-1-0.164-1.285s-0.304-0.511-0.582-0.68c-0.279-0.169-0.605-0.254-0.98-0.254c-0.599,0-1.116,0.19-1.551,0.57
			c-0.435,0.38-0.652,1.101-0.652,2.164v4.531H179.159z"/>
		<path fill="#3C3C3B" d="M192.472,55.887V44.435h1.406v11.453H192.472z"/>
		<path fill="#3C3C3B" d="M201.472,54.864c-0.521,0.443-1.022,0.756-1.504,0.938c-0.482,0.184-0.999,0.273-1.551,0.273
			c-0.912,0-1.612-0.223-2.102-0.668c-0.49-0.445-0.734-1.014-0.734-1.707c0-0.406,0.092-0.777,0.277-1.113
			c0.185-0.336,0.427-0.605,0.727-0.809c0.299-0.203,0.637-0.355,1.012-0.461c0.276-0.072,0.692-0.143,1.25-0.211
			c1.135-0.135,1.971-0.297,2.508-0.484c0.005-0.191,0.008-0.314,0.008-0.367c0-0.573-0.133-0.976-0.398-1.21
			c-0.359-0.317-0.894-0.477-1.602-0.477c-0.662,0-1.15,0.116-1.465,0.348c-0.315,0.231-0.548,0.642-0.699,1.23l-1.375-0.187
			c0.125-0.589,0.331-1.063,0.617-1.426c0.286-0.362,0.7-0.641,1.242-0.836c0.542-0.195,1.169-0.293,1.883-0.293
			c0.708,0,1.284,0.083,1.727,0.25c0.442,0.167,0.768,0.376,0.977,0.629c0.208,0.253,0.354,0.571,0.438,0.957
			c0.047,0.239,0.07,0.672,0.07,1.296v1.875c0,1.309,0.03,2.135,0.09,2.48c0.06,0.348,0.178,0.68,0.355,0.996h-1.469
			C201.607,55.596,201.513,55.254,201.472,54.864z M201.354,51.723c-0.511,0.209-1.276,0.387-2.297,0.531
			c-0.578,0.084-0.987,0.178-1.227,0.281c-0.24,0.105-0.425,0.258-0.555,0.457c-0.13,0.201-0.195,0.424-0.195,0.668
			c0,0.375,0.142,0.688,0.426,0.938c0.284,0.25,0.699,0.375,1.246,0.375c0.542,0,1.023-0.117,1.445-0.355
			c0.422-0.236,0.731-0.561,0.93-0.973c0.151-0.316,0.227-0.785,0.227-1.406V51.723z"/>
		<path fill="#3C3C3B" d="M215.081,53.215l1.453,0.18c-0.229,0.85-0.654,1.508-1.273,1.977c-0.62,0.469-1.412,0.703-2.375,0.703
			c-1.214,0-2.176-0.373-2.887-1.121c-0.711-0.746-1.066-1.795-1.066-3.145c0-1.395,0.359-2.479,1.078-3.25s1.651-1.156,2.797-1.156
			c1.109,0,2.016,0.378,2.719,1.133s1.055,1.818,1.055,3.187c0,0.084-0.003,0.209-0.008,0.375h-6.188
			c0.052,0.912,0.31,1.609,0.773,2.094c0.463,0.484,1.042,0.727,1.734,0.727c0.516,0,0.956-0.135,1.32-0.406
			C214.578,54.243,214.867,53.809,215.081,53.215z M210.464,50.942h4.633c-0.062-0.697-0.24-1.221-0.531-1.57
			c-0.448-0.542-1.029-0.812-1.742-0.812c-0.646,0-1.189,0.216-1.629,0.648C210.754,49.641,210.511,50.219,210.464,50.942z"/>
		<path fill="#3C3C3B" d="M217.737,53.411l1.391-0.219c0.078,0.559,0.295,0.984,0.652,1.281c0.356,0.297,0.855,0.445,1.496,0.445
			c0.646,0,1.125-0.131,1.438-0.395c0.312-0.262,0.469-0.57,0.469-0.926c0-0.316-0.138-0.566-0.414-0.75
			c-0.193-0.125-0.672-0.283-1.438-0.477c-1.031-0.26-1.746-0.484-2.145-0.676c-0.398-0.189-0.701-0.453-0.906-0.789
			c-0.206-0.336-0.309-0.707-0.309-1.113c0-0.37,0.084-0.712,0.254-1.027c0.169-0.315,0.399-0.577,0.691-0.785
			c0.219-0.161,0.517-0.298,0.895-0.41c0.377-0.112,0.782-0.168,1.215-0.168c0.651,0,1.223,0.094,1.715,0.281
			s0.855,0.441,1.09,0.762s0.396,0.749,0.484,1.285l-1.375,0.188c-0.062-0.427-0.244-0.761-0.543-1
			c-0.3-0.239-0.723-0.359-1.27-0.359c-0.646,0-1.107,0.106-1.383,0.32c-0.276,0.214-0.414,0.464-0.414,0.75
			c0,0.183,0.057,0.347,0.172,0.492c0.114,0.152,0.294,0.277,0.539,0.375c0.141,0.053,0.555,0.172,1.242,0.359
			c0.995,0.266,1.688,0.484,2.082,0.652c0.393,0.17,0.702,0.416,0.926,0.738c0.224,0.324,0.336,0.725,0.336,1.203
			c0,0.469-0.137,0.91-0.41,1.324s-0.668,0.734-1.184,0.961s-1.099,0.34-1.75,0.34c-1.078,0-1.9-0.223-2.465-0.672
			C218.254,54.956,217.894,54.292,217.737,53.411z"/>
		<path fill="#3C3C3B" d="M226.636,55.887v-7.203h-1.242v-1.094h1.242v-0.883c0-0.558,0.049-0.972,0.148-1.242
			c0.135-0.364,0.374-0.66,0.715-0.887c0.341-0.227,0.819-0.34,1.433-0.34c0.396,0,0.834,0.047,1.312,0.141l-0.211,1.227
			c-0.291-0.052-0.567-0.078-0.828-0.078c-0.427,0-0.729,0.091-0.906,0.273c-0.177,0.183-0.265,0.523-0.265,1.023v0.766h1.617v1.094
			h-1.617v7.203H226.636z"/>
		<path fill="#3C3C3B" d="M236.424,53.215l1.453,0.18c-0.229,0.85-0.653,1.508-1.273,1.977c-0.619,0.469-1.411,0.703-2.375,0.703
			c-1.213,0-2.176-0.373-2.887-1.121c-0.711-0.746-1.066-1.795-1.066-3.145c0-1.395,0.359-2.479,1.078-3.25s1.651-1.156,2.797-1.156
			c1.109,0,2.016,0.378,2.719,1.133s1.055,1.818,1.055,3.187c0,0.084-0.002,0.209-0.008,0.375h-6.188
			c0.053,0.912,0.311,1.609,0.773,2.094c0.464,0.484,1.042,0.727,1.734,0.727c0.516,0,0.956-0.135,1.32-0.406
			C235.922,54.243,236.211,53.809,236.424,53.215z M231.807,50.942h4.633c-0.062-0.697-0.239-1.221-0.531-1.57
			c-0.447-0.542-1.028-0.812-1.742-0.812c-0.646,0-1.188,0.216-1.629,0.648C232.098,49.641,231.854,50.219,231.807,50.942z"/>
		<path fill="#3C3C3B" d="M239.627,55.887v-8.296h1.266v1.258c0.323-0.589,0.621-0.977,0.895-1.164s0.574-0.281,0.902-0.281
			c0.475,0,0.956,0.151,1.445,0.453l-0.484,1.305c-0.344-0.203-0.688-0.305-1.031-0.305c-0.307,0-0.583,0.093-0.828,0.277
			c-0.244,0.185-0.419,0.441-0.523,0.77c-0.156,0.5-0.234,1.046-0.234,1.64v4.344H239.627z"/>
		<path fill="#3C3C3B" d="M250.385,54.864c-0.521,0.443-1.021,0.756-1.504,0.938c-0.481,0.184-0.998,0.273-1.551,0.273
			c-0.911,0-1.611-0.223-2.102-0.668c-0.489-0.445-0.734-1.014-0.734-1.707c0-0.406,0.093-0.777,0.277-1.113
			c0.186-0.336,0.428-0.605,0.727-0.809c0.3-0.203,0.637-0.355,1.012-0.461c0.276-0.072,0.693-0.143,1.25-0.211
			c1.136-0.135,1.972-0.297,2.508-0.484c0.006-0.191,0.008-0.314,0.008-0.367c0-0.573-0.133-0.976-0.398-1.21
			c-0.359-0.317-0.893-0.477-1.602-0.477c-0.661,0-1.149,0.116-1.465,0.348c-0.314,0.231-0.548,0.642-0.699,1.23l-1.375-0.187
			c0.125-0.589,0.331-1.063,0.617-1.426c0.287-0.362,0.701-0.641,1.242-0.836c0.542-0.195,1.17-0.293,1.883-0.293
			c0.709,0,1.284,0.083,1.727,0.25c0.443,0.167,0.769,0.376,0.977,0.629c0.209,0.253,0.354,0.571,0.438,0.957
			c0.047,0.239,0.07,0.672,0.07,1.296v1.875c0,1.309,0.03,2.135,0.09,2.48c0.061,0.348,0.179,0.68,0.355,0.996h-1.469
			C250.521,55.596,250.427,55.254,250.385,54.864z M250.268,51.723c-0.51,0.209-1.275,0.387-2.297,0.531
			c-0.578,0.084-0.986,0.178-1.227,0.281c-0.239,0.105-0.424,0.258-0.555,0.457c-0.13,0.201-0.195,0.424-0.195,0.668
			c0,0.375,0.143,0.688,0.426,0.938c0.284,0.25,0.699,0.375,1.246,0.375c0.542,0,1.023-0.117,1.445-0.355
			c0.422-0.236,0.732-0.561,0.93-0.973c0.151-0.316,0.227-0.785,0.227-1.406V51.723z"/>
		<path fill="#3C3C3B" d="M258.315,59.067V47.591h1.281v1.078c0.303-0.422,0.644-0.738,1.023-0.949
			c0.381-0.211,0.842-0.316,1.383-0.316c0.709,0,1.334,0.183,1.875,0.547c0.542,0.364,0.951,0.879,1.227,1.543
			c0.276,0.664,0.414,1.392,0.414,2.183c0,0.85-0.152,1.613-0.457,2.293s-0.747,1.201-1.328,1.562
			c-0.58,0.363-1.191,0.543-1.832,0.543c-0.469,0-0.889-0.098-1.262-0.297c-0.372-0.197-0.678-0.447-0.918-0.75v4.039H258.315z
			 M259.588,51.786c0,1.068,0.217,1.857,0.648,2.367c0.433,0.512,0.956,0.766,1.57,0.766c0.625,0,1.16-0.264,1.605-0.793
			c0.445-0.527,0.668-1.348,0.668-2.457c0-1.057-0.217-1.848-0.652-2.375c-0.435-0.526-0.954-0.789-1.559-0.789
			c-0.599,0-1.129,0.28-1.59,0.84S259.588,50.719,259.588,51.786z"/>
		<path fill="#3C3C3B" d="M266.651,53.411l1.391-0.219c0.078,0.559,0.296,0.984,0.652,1.281c0.357,0.297,0.855,0.445,1.496,0.445
			c0.646,0,1.125-0.131,1.438-0.395c0.312-0.262,0.469-0.57,0.469-0.926c0-0.316-0.138-0.566-0.414-0.75
			c-0.192-0.125-0.672-0.283-1.438-0.477c-1.031-0.26-1.746-0.484-2.145-0.676c-0.398-0.189-0.7-0.453-0.906-0.789
			c-0.205-0.336-0.309-0.707-0.309-1.113c0-0.37,0.085-0.712,0.254-1.027c0.17-0.315,0.4-0.577,0.691-0.785
			c0.219-0.161,0.518-0.298,0.895-0.41c0.378-0.112,0.783-0.168,1.215-0.168c0.651,0,1.223,0.094,1.715,0.281
			s0.855,0.441,1.09,0.762s0.396,0.749,0.484,1.285l-1.375,0.188c-0.062-0.427-0.243-0.761-0.543-1
			c-0.299-0.239-0.723-0.359-1.27-0.359c-0.646,0-1.106,0.106-1.383,0.32c-0.275,0.214-0.414,0.464-0.414,0.75
			c0,0.183,0.058,0.347,0.172,0.492c0.115,0.152,0.295,0.277,0.539,0.375c0.141,0.053,0.555,0.172,1.242,0.359
			c0.995,0.266,1.689,0.484,2.082,0.652c0.394,0.17,0.702,0.416,0.926,0.738c0.225,0.324,0.336,0.725,0.336,1.203
			c0,0.469-0.137,0.91-0.41,1.324s-0.668,0.734-1.184,0.961s-1.099,0.34-1.75,0.34c-1.078,0-1.899-0.223-2.465-0.672
			C267.168,54.956,266.807,54.292,266.651,53.411z"/>
		<path fill="#3C3C3B" d="M275.221,46.052v-1.617h1.406v1.617H275.221z M275.221,55.887v-8.296h1.406v8.296H275.221z"/>
		<path fill="#3C3C3B" d="M284.182,52.848l1.383,0.18c-0.15,0.953-0.537,1.699-1.16,2.238c-0.622,0.539-1.387,0.809-2.293,0.809
			c-1.135,0-2.048-0.371-2.738-1.113c-0.689-0.742-1.035-1.805-1.035-3.191c0-0.895,0.148-1.68,0.445-2.351
			c0.297-0.672,0.749-1.176,1.355-1.512c0.607-0.336,1.268-0.504,1.98-0.504c0.901,0,1.639,0.228,2.211,0.684
			c0.573,0.456,0.94,1.103,1.102,1.941l-1.367,0.211c-0.13-0.557-0.36-0.976-0.691-1.257c-0.33-0.281-0.73-0.422-1.199-0.422
			c-0.708,0-1.283,0.254-1.727,0.762c-0.442,0.508-0.664,1.312-0.664,2.41c0,1.115,0.214,1.926,0.641,2.43
			c0.428,0.506,0.984,0.758,1.672,0.758c0.553,0,1.014-0.168,1.383-0.508C283.849,54.073,284.083,53.551,284.182,52.848z"/>
		<path fill="#3C3C3B" d="M286.245,51.739c0-1.535,0.428-2.674,1.281-3.414c0.714-0.614,1.584-0.922,2.609-0.922
			c1.141,0,2.073,0.374,2.797,1.121c0.725,0.747,1.086,1.781,1.086,3.097c0,1.068-0.16,1.908-0.48,2.52
			c-0.32,0.613-0.786,1.088-1.398,1.426c-0.611,0.34-1.279,0.508-2.004,0.508c-1.161,0-2.1-0.371-2.816-1.117
			C286.603,54.213,286.245,53.141,286.245,51.739z M287.69,51.739c0,1.062,0.232,1.859,0.695,2.387
			c0.464,0.529,1.047,0.793,1.75,0.793c0.698,0,1.279-0.266,1.742-0.797c0.464-0.531,0.695-1.34,0.695-2.43
			c0-1.025-0.232-1.803-0.699-2.332c-0.466-0.528-1.045-0.793-1.738-0.793c-0.703,0-1.286,0.263-1.75,0.789
			C287.922,49.883,287.69,50.676,287.69,51.739z"/>
		<path fill="#3C3C3B" d="M295.635,55.887V44.435h1.406v11.453H295.635z"/>
		<path fill="#3C3C3B" d="M298.698,51.739c0-1.535,0.428-2.674,1.281-3.414c0.714-0.614,1.584-0.922,2.609-0.922
			c1.141,0,2.073,0.374,2.797,1.121c0.725,0.747,1.086,1.781,1.086,3.097c0,1.068-0.16,1.908-0.48,2.52
			c-0.32,0.613-0.786,1.088-1.398,1.426c-0.611,0.34-1.279,0.508-2.004,0.508c-1.161,0-2.1-0.371-2.816-1.117
			C299.056,54.213,298.698,53.141,298.698,51.739z M300.143,51.739c0,1.062,0.232,1.859,0.695,2.387
			c0.464,0.529,1.047,0.793,1.75,0.793c0.698,0,1.279-0.266,1.742-0.797c0.464-0.531,0.695-1.34,0.695-2.43
			c0-1.025-0.232-1.803-0.699-2.332c-0.466-0.528-1.045-0.793-1.738-0.793c-0.703,0-1.286,0.263-1.75,0.789
			C300.375,49.883,300.143,50.676,300.143,51.739z M301.807,46.56l1.039-2.188h1.844l-1.719,2.188H301.807z"/>
		<path fill="#3C3C3B" d="M307.862,56.575l1.367,0.203c0.058,0.422,0.217,0.73,0.477,0.922c0.35,0.262,0.826,0.391,1.43,0.391
			c0.651,0,1.154-0.129,1.508-0.391c0.354-0.26,0.594-0.625,0.719-1.094c0.073-0.285,0.107-0.887,0.102-1.805
			c-0.614,0.725-1.38,1.086-2.297,1.086c-1.141,0-2.023-0.41-2.648-1.234c-0.625-0.822-0.938-1.809-0.938-2.961
			c0-0.791,0.144-1.521,0.43-2.191c0.287-0.669,0.702-1.187,1.246-1.551c0.545-0.364,1.184-0.547,1.918-0.547
			c0.979,0,1.787,0.396,2.422,1.188v-1h1.297v7.171c0,1.293-0.131,2.207-0.395,2.746c-0.263,0.539-0.68,0.965-1.25,1.277
			s-1.271,0.469-2.105,0.469c-0.989,0-1.789-0.223-2.398-0.668S307.841,57.471,307.862,56.575z M309.026,51.59
			c0,1.09,0.217,1.883,0.648,2.383c0.433,0.5,0.975,0.75,1.625,0.75c0.646,0,1.188-0.248,1.625-0.746
			c0.438-0.496,0.656-1.277,0.656-2.34c0-1.016-0.225-1.781-0.676-2.296c-0.45-0.516-0.993-0.773-1.629-0.773
			c-0.625,0-1.156,0.254-1.594,0.762S309.026,50.59,309.026,51.59z"/>
		<path fill="#3C3C3B" d="M317.026,46.052v-1.617h1.406v1.617H317.026z M317.026,55.887v-8.296h1.406v8.296H317.026z"/>
		<path fill="#3C3C3B" d="M325.987,52.848l1.383,0.18c-0.15,0.953-0.537,1.699-1.16,2.238c-0.622,0.539-1.387,0.809-2.293,0.809
			c-1.135,0-2.048-0.371-2.738-1.113c-0.689-0.742-1.035-1.805-1.035-3.191c0-0.895,0.148-1.68,0.445-2.351
			c0.297-0.672,0.749-1.176,1.355-1.512c0.607-0.336,1.268-0.504,1.98-0.504c0.901,0,1.639,0.228,2.211,0.684
			c0.573,0.456,0.94,1.103,1.102,1.941l-1.367,0.211c-0.13-0.557-0.36-0.976-0.691-1.257c-0.33-0.281-0.73-0.422-1.199-0.422
			c-0.708,0-1.283,0.254-1.727,0.762c-0.442,0.508-0.664,1.312-0.664,2.41c0,1.115,0.214,1.926,0.641,2.43
			c0.428,0.506,0.984,0.758,1.672,0.758c0.553,0,1.014-0.168,1.383-0.508C325.654,54.073,325.888,53.551,325.987,52.848z"/>
		<path fill="#3C3C3B" d="M333.987,54.864c-0.521,0.443-1.021,0.756-1.504,0.938c-0.481,0.184-0.998,0.273-1.551,0.273
			c-0.911,0-1.611-0.223-2.102-0.668c-0.489-0.445-0.734-1.014-0.734-1.707c0-0.406,0.093-0.777,0.277-1.113
			c0.186-0.336,0.428-0.605,0.727-0.809c0.3-0.203,0.637-0.355,1.012-0.461c0.276-0.072,0.693-0.143,1.25-0.211
			c1.136-0.135,1.972-0.297,2.508-0.484c0.006-0.191,0.008-0.314,0.008-0.367c0-0.573-0.133-0.976-0.398-1.21
			c-0.359-0.317-0.893-0.477-1.602-0.477c-0.661,0-1.149,0.116-1.465,0.348c-0.314,0.231-0.548,0.642-0.699,1.23l-1.375-0.187
			c0.125-0.589,0.331-1.063,0.617-1.426c0.287-0.362,0.701-0.641,1.242-0.836c0.542-0.195,1.17-0.293,1.883-0.293
			c0.709,0,1.284,0.083,1.727,0.25c0.443,0.167,0.769,0.376,0.977,0.629c0.209,0.253,0.354,0.571,0.438,0.957
			c0.047,0.239,0.07,0.672,0.07,1.296v1.875c0,1.309,0.03,2.135,0.09,2.48c0.061,0.348,0.179,0.68,0.355,0.996h-1.469
			C334.123,55.596,334.029,55.254,333.987,54.864z M333.87,51.723c-0.51,0.209-1.275,0.387-2.297,0.531
			c-0.578,0.084-0.986,0.178-1.227,0.281c-0.239,0.105-0.424,0.258-0.555,0.457c-0.13,0.201-0.195,0.424-0.195,0.668
			c0,0.375,0.143,0.688,0.426,0.938c0.284,0.25,0.699,0.375,1.246,0.375c0.542,0,1.023-0.117,1.445-0.355
			c0.422-0.236,0.732-0.561,0.93-0.973c0.151-0.316,0.227-0.785,0.227-1.406V51.723z"/>
		<path fill="#3C3C3B" d="M341.854,59.083l-0.156-1.32c0.308,0.084,0.576,0.125,0.805,0.125c0.312,0,0.562-0.051,0.75-0.156
			c0.188-0.104,0.342-0.25,0.461-0.438c0.089-0.141,0.232-0.488,0.43-1.047c0.026-0.078,0.068-0.191,0.125-0.344l-3.148-8.312h1.516
			l1.727,4.804c0.225,0.609,0.425,1.25,0.602,1.922c0.162-0.645,0.354-1.275,0.578-1.891l1.773-4.835h1.406l-3.156,8.437
			c-0.338,0.912-0.602,1.539-0.789,1.883c-0.25,0.465-0.536,0.805-0.859,1.02c-0.322,0.217-0.708,0.324-1.156,0.324
			C342.49,59.254,342.188,59.198,341.854,59.083z"/>
		<path fill="#3C3C3B" d="M354.362,55.887v-8.296h1.258v1.164c0.261-0.406,0.607-0.733,1.039-0.98
			c0.433-0.247,0.925-0.371,1.477-0.371c0.615,0,1.119,0.128,1.512,0.383c0.394,0.255,0.671,0.612,0.832,1.07
			c0.656-0.969,1.511-1.453,2.562-1.453c0.823,0,1.456,0.228,1.898,0.684c0.443,0.456,0.664,1.157,0.664,2.105v5.695h-1.398v-5.227
			c0-0.562-0.045-0.967-0.137-1.214c-0.091-0.247-0.256-0.446-0.496-0.598c-0.239-0.151-0.521-0.227-0.844-0.227
			c-0.583,0-1.067,0.194-1.453,0.582c-0.385,0.388-0.578,1.009-0.578,1.863v4.82h-1.406v-5.391c0-0.625-0.114-1.093-0.344-1.406
			c-0.229-0.312-0.604-0.469-1.125-0.469c-0.396,0-0.762,0.104-1.098,0.312s-0.579,0.513-0.73,0.914
			c-0.15,0.402-0.227,0.98-0.227,1.734v4.305H354.362z"/>
		<path fill="#3C3C3B" d="M367.167,51.739c0-1.535,0.428-2.674,1.281-3.414c0.714-0.614,1.584-0.922,2.609-0.922
			c1.141,0,2.073,0.374,2.797,1.121c0.725,0.747,1.086,1.781,1.086,3.097c0,1.068-0.16,1.908-0.48,2.52
			c-0.32,0.613-0.786,1.088-1.398,1.426c-0.611,0.34-1.279,0.508-2.004,0.508c-1.161,0-2.1-0.371-2.816-1.117
			C367.525,54.213,367.167,53.141,367.167,51.739z M368.612,51.739c0,1.062,0.232,1.859,0.695,2.387
			c0.464,0.529,1.047,0.793,1.75,0.793c0.698,0,1.279-0.266,1.742-0.797c0.464-0.531,0.695-1.34,0.695-2.43
			c0-1.025-0.232-1.803-0.699-2.332c-0.466-0.528-1.045-0.793-1.738-0.793c-0.703,0-1.286,0.263-1.75,0.789
			C368.844,49.883,368.612,50.676,368.612,51.739z"/>
		<path fill="#3C3C3B" d="M376.573,55.887v-8.296h1.266v1.258c0.323-0.589,0.621-0.977,0.895-1.164s0.574-0.281,0.902-0.281
			c0.475,0,0.956,0.151,1.445,0.453l-0.484,1.305c-0.344-0.203-0.688-0.305-1.031-0.305c-0.307,0-0.583,0.093-0.828,0.277
			c-0.244,0.185-0.419,0.441-0.523,0.77c-0.156,0.5-0.234,1.046-0.234,1.64v4.344H376.573z"/>
		<path fill="#3C3C3B" d="M387.331,54.864c-0.521,0.443-1.021,0.756-1.504,0.938c-0.481,0.184-0.998,0.273-1.551,0.273
			c-0.911,0-1.611-0.223-2.102-0.668c-0.489-0.445-0.734-1.014-0.734-1.707c0-0.406,0.093-0.777,0.277-1.113
			c0.186-0.336,0.428-0.605,0.727-0.809c0.3-0.203,0.637-0.355,1.012-0.461c0.276-0.072,0.693-0.143,1.25-0.211
			c1.136-0.135,1.972-0.297,2.508-0.484c0.006-0.191,0.008-0.314,0.008-0.367c0-0.573-0.133-0.976-0.398-1.21
			c-0.359-0.317-0.893-0.477-1.602-0.477c-0.661,0-1.149,0.116-1.465,0.348c-0.314,0.231-0.548,0.642-0.699,1.23l-1.375-0.187
			c0.125-0.589,0.331-1.063,0.617-1.426c0.287-0.362,0.701-0.641,1.242-0.836c0.542-0.195,1.17-0.293,1.883-0.293
			c0.709,0,1.284,0.083,1.727,0.25c0.443,0.167,0.769,0.376,0.977,0.629c0.209,0.253,0.354,0.571,0.438,0.957
			c0.047,0.239,0.07,0.672,0.07,1.296v1.875c0,1.309,0.03,2.135,0.09,2.48c0.061,0.348,0.179,0.68,0.355,0.996h-1.469
			C387.466,55.596,387.373,55.254,387.331,54.864z M387.213,51.723c-0.51,0.209-1.275,0.387-2.297,0.531
			c-0.578,0.084-0.986,0.178-1.227,0.281c-0.239,0.105-0.424,0.258-0.555,0.457c-0.13,0.201-0.195,0.424-0.195,0.668
			c0,0.375,0.143,0.688,0.426,0.938c0.284,0.25,0.699,0.375,1.246,0.375c0.542,0,1.023-0.117,1.445-0.355
			c0.422-0.236,0.732-0.561,0.93-0.973c0.151-0.316,0.227-0.785,0.227-1.406V51.723z"/>
		<path fill="#3C3C3B" d="M390.784,55.887V44.435h1.406v11.453H390.784z"/>
		<path fill="#3C3C3B" d="M404.198,55.887V54.84c-0.525,0.824-1.299,1.234-2.32,1.234c-0.661,0-1.27-0.182-1.824-0.547
			c-0.555-0.363-0.984-0.873-1.289-1.527c-0.305-0.652-0.457-1.404-0.457-2.254c0-0.828,0.139-1.578,0.414-2.253
			c0.276-0.675,0.69-1.191,1.242-1.551c0.553-0.359,1.17-0.539,1.852-0.539c0.5,0,0.945,0.105,1.336,0.316s0.709,0.485,0.953,0.824
			v-4.109h1.398v11.453H404.198z M399.752,51.747c0,1.062,0.225,1.857,0.672,2.383c0.448,0.527,0.977,0.789,1.586,0.789
			c0.615,0,1.137-0.25,1.566-0.754c0.43-0.502,0.645-1.27,0.645-2.301c0-1.135-0.219-1.968-0.656-2.5s-0.977-0.797-1.617-0.797
			c-0.625,0-1.146,0.255-1.566,0.766C399.962,49.844,399.752,50.649,399.752,51.747z"/>
		<path fill="#3C3C3B" d="M413.393,53.215l1.453,0.18c-0.229,0.85-0.653,1.508-1.273,1.977c-0.619,0.469-1.411,0.703-2.375,0.703
			c-1.213,0-2.176-0.373-2.887-1.121c-0.711-0.746-1.066-1.795-1.066-3.145c0-1.395,0.359-2.479,1.078-3.25s1.651-1.156,2.797-1.156
			c1.109,0,2.016,0.378,2.719,1.133s1.055,1.818,1.055,3.187c0,0.084-0.002,0.209-0.008,0.375h-6.188
			c0.053,0.912,0.311,1.609,0.773,2.094c0.464,0.484,1.042,0.727,1.734,0.727c0.516,0,0.956-0.135,1.32-0.406
			C412.891,54.243,413.18,53.809,413.393,53.215z M408.776,50.942h4.633c-0.062-0.697-0.239-1.221-0.531-1.57
			c-0.447-0.542-1.028-0.812-1.742-0.812c-0.646,0-1.188,0.216-1.629,0.648C409.067,49.641,408.823,50.219,408.776,50.942z"/>
		<path fill="#3C3C3B" d="M421.026,55.887V44.435h1.406v11.453H421.026z"/>
		<path fill="#3C3C3B" d="M430.026,54.864c-0.521,0.443-1.021,0.756-1.504,0.938c-0.481,0.184-0.998,0.273-1.551,0.273
			c-0.911,0-1.611-0.223-2.102-0.668c-0.489-0.445-0.734-1.014-0.734-1.707c0-0.406,0.093-0.777,0.277-1.113
			c0.186-0.336,0.428-0.605,0.727-0.809c0.3-0.203,0.637-0.355,1.012-0.461c0.276-0.072,0.693-0.143,1.25-0.211
			c1.136-0.135,1.972-0.297,2.508-0.484c0.006-0.191,0.008-0.314,0.008-0.367c0-0.573-0.133-0.976-0.398-1.21
			c-0.359-0.317-0.893-0.477-1.602-0.477c-0.661,0-1.149,0.116-1.465,0.348c-0.314,0.231-0.548,0.642-0.699,1.23l-1.375-0.187
			c0.125-0.589,0.331-1.063,0.617-1.426c0.287-0.362,0.701-0.641,1.242-0.836c0.542-0.195,1.17-0.293,1.883-0.293
			c0.709,0,1.284,0.083,1.727,0.25c0.443,0.167,0.769,0.376,0.977,0.629c0.209,0.253,0.354,0.571,0.438,0.957
			c0.047,0.239,0.07,0.672,0.07,1.296v1.875c0,1.309,0.03,2.135,0.09,2.48c0.061,0.348,0.179,0.68,0.355,0.996h-1.469
			C430.162,55.596,430.068,55.254,430.026,54.864z M429.909,51.723c-0.51,0.209-1.275,0.387-2.297,0.531
			c-0.578,0.084-0.986,0.178-1.227,0.281c-0.239,0.105-0.424,0.258-0.555,0.457c-0.13,0.201-0.195,0.424-0.195,0.668
			c0,0.375,0.143,0.688,0.426,0.938c0.284,0.25,0.699,0.375,1.246,0.375c0.542,0,1.023-0.117,1.445-0.355
			c0.422-0.236,0.732-0.561,0.93-0.973c0.151-0.316,0.227-0.785,0.227-1.406V51.723z"/>
		<path fill="#3C3C3B" d="M432.948,53.411l1.391-0.219c0.078,0.559,0.296,0.984,0.652,1.281c0.357,0.297,0.855,0.445,1.496,0.445
			c0.646,0,1.125-0.131,1.438-0.395c0.312-0.262,0.469-0.57,0.469-0.926c0-0.316-0.138-0.566-0.414-0.75
			c-0.192-0.125-0.672-0.283-1.438-0.477c-1.031-0.26-1.746-0.484-2.145-0.676c-0.398-0.189-0.7-0.453-0.906-0.789
			c-0.205-0.336-0.309-0.707-0.309-1.113c0-0.37,0.085-0.712,0.254-1.027c0.17-0.315,0.4-0.577,0.691-0.785
			c0.219-0.161,0.518-0.298,0.895-0.41c0.378-0.112,0.783-0.168,1.215-0.168c0.651,0,1.223,0.094,1.715,0.281
			s0.855,0.441,1.09,0.762s0.396,0.749,0.484,1.285l-1.375,0.188c-0.062-0.427-0.243-0.761-0.543-1
			c-0.299-0.239-0.723-0.359-1.27-0.359c-0.646,0-1.106,0.106-1.383,0.32c-0.275,0.214-0.414,0.464-0.414,0.75
			c0,0.183,0.058,0.347,0.172,0.492c0.115,0.152,0.295,0.277,0.539,0.375c0.141,0.053,0.555,0.172,1.242,0.359
			c0.995,0.266,1.689,0.484,2.082,0.652c0.394,0.17,0.702,0.416,0.926,0.738c0.225,0.324,0.336,0.725,0.336,1.203
			c0,0.469-0.137,0.91-0.41,1.324s-0.668,0.734-1.184,0.961s-1.099,0.34-1.75,0.34c-1.078,0-1.899-0.223-2.465-0.672
			C433.465,54.956,433.104,54.292,432.948,53.411z"/>
		<path fill="#3C3C3B" d="M75.651,75.088l-3.156-8.297h1.484l1.781,4.969c0.192,0.535,0.37,1.094,0.531,1.672
			c0.125-0.438,0.299-0.965,0.523-1.578l1.844-5.062h1.445l-3.141,8.297H75.651z"/>
		<path fill="#3C3C3B" d="M81.769,65.76l1.039-2.188h1.844l-1.719,2.188H81.769z M81.839,75.088v-8.297h1.406v8.297H81.839z"/>
		<path fill="#3C3C3B" d="M91.206,72.049l1.383,0.18c-0.151,0.953-0.538,1.699-1.16,2.238c-0.623,0.539-1.387,0.809-2.293,0.809
			c-1.136,0-2.048-0.371-2.738-1.113c-0.69-0.742-1.035-1.807-1.035-3.191c0-0.896,0.148-1.68,0.445-2.352s0.749-1.176,1.355-1.512
			c0.606-0.336,1.267-0.504,1.98-0.504c0.901,0,1.638,0.227,2.211,0.684c0.573,0.455,0.94,1.102,1.102,1.941l-1.367,0.211
			c-0.13-0.559-0.361-0.977-0.691-1.258c-0.331-0.281-0.73-0.422-1.199-0.422c-0.708,0-1.284,0.254-1.727,0.762
			c-0.443,0.508-0.664,1.311-0.664,2.41c0,1.113,0.213,1.924,0.641,2.43c0.427,0.504,0.984,0.758,1.672,0.758
			c0.552,0,1.013-0.17,1.383-0.508C90.873,73.272,91.107,72.752,91.206,72.049z"/>
		<path fill="#3C3C3B" d="M96.862,73.831l0.203,1.242c-0.396,0.082-0.75,0.125-1.062,0.125c-0.511,0-0.906-0.082-1.188-0.242
			c-0.281-0.162-0.479-0.375-0.594-0.637c-0.115-0.264-0.172-0.816-0.172-1.66v-4.773h-1.031v-1.094h1.031v-2.055l1.398-0.844v2.898
			h1.414v1.094h-1.414v4.852c0,0.4,0.024,0.658,0.074,0.773c0.049,0.113,0.13,0.205,0.242,0.273c0.112,0.066,0.272,0.102,0.48,0.102
			C96.401,73.885,96.607,73.866,96.862,73.831z"/>
		<path fill="#3C3C3B" d="M98.245,65.252v-1.617h1.406v1.617H98.245z M98.245,75.088v-8.297h1.406v8.297H98.245z"/>
		<path fill="#3C3C3B" d="M101.792,75.088v-8.297h1.258v1.164c0.26-0.406,0.606-0.734,1.039-0.98
			c0.432-0.248,0.924-0.371,1.477-0.371c0.614,0,1.118,0.127,1.512,0.383c0.393,0.254,0.67,0.611,0.832,1.07
			c0.656-0.969,1.51-1.453,2.562-1.453c0.823,0,1.456,0.227,1.898,0.684c0.442,0.455,0.664,1.156,0.664,2.105v5.695h-1.398v-5.227
			c0-0.562-0.046-0.969-0.137-1.215c-0.091-0.248-0.257-0.447-0.496-0.598c-0.24-0.152-0.521-0.227-0.844-0.227
			c-0.583,0-1.068,0.193-1.453,0.582c-0.386,0.387-0.578,1.008-0.578,1.863v4.82h-1.406v-5.391c0-0.625-0.115-1.094-0.344-1.406
			c-0.229-0.312-0.604-0.469-1.125-0.469c-0.396,0-0.762,0.104-1.098,0.312c-0.336,0.207-0.58,0.512-0.73,0.914
			c-0.151,0.4-0.227,0.979-0.227,1.734v4.305H101.792z"/>
		<path fill="#3C3C3B" d="M120.534,74.065c-0.521,0.441-1.022,0.754-1.504,0.938c-0.482,0.182-0.999,0.273-1.551,0.273
			c-0.912,0-1.612-0.223-2.102-0.668c-0.49-0.445-0.734-1.016-0.734-1.707c0-0.406,0.092-0.777,0.277-1.113
			c0.185-0.336,0.427-0.605,0.727-0.809c0.299-0.203,0.637-0.357,1.012-0.461c0.276-0.074,0.692-0.145,1.25-0.211
			c1.135-0.137,1.971-0.297,2.508-0.484c0.005-0.193,0.008-0.316,0.008-0.367c0-0.574-0.133-0.977-0.398-1.211
			c-0.359-0.318-0.894-0.477-1.602-0.477c-0.662,0-1.15,0.115-1.465,0.348c-0.315,0.23-0.548,0.641-0.699,1.23l-1.375-0.188
			c0.125-0.59,0.331-1.064,0.617-1.426c0.286-0.363,0.7-0.641,1.242-0.836c0.542-0.195,1.169-0.293,1.883-0.293
			c0.708,0,1.284,0.082,1.727,0.25c0.442,0.166,0.768,0.375,0.977,0.629c0.208,0.252,0.354,0.57,0.438,0.957
			c0.047,0.238,0.07,0.672,0.07,1.297v1.875c0,1.307,0.03,2.133,0.09,2.48c0.06,0.346,0.178,0.678,0.355,0.996h-1.469
			C120.669,74.795,120.576,74.456,120.534,74.065z M120.417,70.924c-0.511,0.207-1.276,0.385-2.297,0.531
			c-0.578,0.082-0.987,0.176-1.227,0.281c-0.24,0.104-0.425,0.256-0.555,0.457c-0.13,0.199-0.195,0.422-0.195,0.668
			c0,0.375,0.142,0.688,0.426,0.938c0.284,0.25,0.699,0.375,1.246,0.375c0.542,0,1.023-0.119,1.445-0.355
			c0.422-0.238,0.731-0.562,0.93-0.973c0.151-0.318,0.227-0.787,0.227-1.406V70.924z"/>
		<path fill="#3C3C3B" d="M123.456,72.612l1.391-0.219c0.078,0.557,0.295,0.984,0.652,1.281c0.356,0.297,0.855,0.445,1.496,0.445
			c0.646,0,1.125-0.133,1.438-0.395c0.312-0.264,0.469-0.572,0.469-0.926c0-0.318-0.138-0.568-0.414-0.75
			c-0.193-0.125-0.672-0.285-1.438-0.477c-1.031-0.262-1.746-0.486-2.145-0.676c-0.398-0.191-0.701-0.453-0.906-0.789
			c-0.206-0.336-0.309-0.707-0.309-1.113c0-0.371,0.084-0.713,0.254-1.027c0.169-0.316,0.399-0.578,0.691-0.785
			c0.219-0.162,0.517-0.299,0.895-0.41c0.377-0.113,0.782-0.168,1.215-0.168c0.651,0,1.223,0.094,1.715,0.281
			s0.855,0.441,1.09,0.762s0.396,0.748,0.484,1.285l-1.375,0.188c-0.062-0.428-0.244-0.762-0.543-1
			c-0.3-0.24-0.723-0.359-1.27-0.359c-0.646,0-1.107,0.105-1.383,0.32c-0.276,0.213-0.414,0.463-0.414,0.75
			c0,0.182,0.057,0.346,0.172,0.492c0.114,0.15,0.294,0.275,0.539,0.375c0.141,0.051,0.555,0.172,1.242,0.359
			c0.995,0.266,1.688,0.482,2.082,0.652c0.393,0.168,0.702,0.414,0.926,0.738c0.224,0.322,0.336,0.723,0.336,1.203
			c0,0.469-0.137,0.91-0.41,1.324s-0.668,0.734-1.184,0.961s-1.099,0.34-1.75,0.34c-1.078,0-1.9-0.225-2.465-0.672
			C123.973,74.155,123.612,73.491,123.456,72.612z"/>
		<path fill="#3C3C3B" d="M132.386,75.088v-1.602h1.602v1.602c0,0.588-0.104,1.062-0.312,1.426c-0.208,0.361-0.539,0.641-0.992,0.84
			l-0.391-0.602c0.297-0.131,0.516-0.322,0.656-0.574c0.141-0.254,0.219-0.617,0.234-1.09H132.386z"/>
		<path fill="#3C3C3B" d="M140.347,72.612l1.391-0.219c0.078,0.557,0.295,0.984,0.652,1.281c0.356,0.297,0.855,0.445,1.496,0.445
			c0.646,0,1.125-0.133,1.438-0.395c0.312-0.264,0.469-0.572,0.469-0.926c0-0.318-0.138-0.568-0.414-0.75
			c-0.193-0.125-0.672-0.285-1.438-0.477c-1.031-0.262-1.746-0.486-2.145-0.676c-0.398-0.191-0.701-0.453-0.906-0.789
			c-0.206-0.336-0.309-0.707-0.309-1.113c0-0.371,0.084-0.713,0.254-1.027c0.169-0.316,0.399-0.578,0.691-0.785
			c0.219-0.162,0.517-0.299,0.895-0.41c0.377-0.113,0.782-0.168,1.215-0.168c0.651,0,1.223,0.094,1.715,0.281
			s0.855,0.441,1.09,0.762s0.396,0.748,0.484,1.285l-1.375,0.188c-0.062-0.428-0.244-0.762-0.543-1
			c-0.3-0.24-0.723-0.359-1.27-0.359c-0.646,0-1.107,0.105-1.383,0.32c-0.276,0.213-0.414,0.463-0.414,0.75
			c0,0.182,0.057,0.346,0.172,0.492c0.114,0.15,0.294,0.275,0.539,0.375c0.141,0.051,0.555,0.172,1.242,0.359
			c0.995,0.266,1.688,0.482,2.082,0.652c0.393,0.168,0.702,0.414,0.926,0.738c0.224,0.322,0.336,0.723,0.336,1.203
			c0,0.469-0.137,0.91-0.41,1.324s-0.668,0.734-1.184,0.961s-1.099,0.34-1.75,0.34c-1.078,0-1.9-0.225-2.465-0.672
			C140.863,74.155,140.503,73.491,140.347,72.612z"/>
		<path fill="#3C3C3B" d="M154.347,75.088V73.87c-0.646,0.938-1.523,1.406-2.633,1.406c-0.49,0-0.947-0.094-1.371-0.281
			c-0.425-0.188-0.74-0.424-0.945-0.707c-0.206-0.285-0.351-0.633-0.434-1.043c-0.058-0.277-0.086-0.715-0.086-1.312v-5.141h1.406
			v4.602c0,0.734,0.028,1.229,0.086,1.484c0.088,0.369,0.276,0.66,0.562,0.871c0.286,0.211,0.641,0.316,1.062,0.316
			s0.817-0.109,1.188-0.324c0.37-0.217,0.631-0.512,0.785-0.883c0.153-0.373,0.23-0.914,0.23-1.621v-4.445h1.406v8.297H154.347z"/>
		<path fill="#3C3C3B" d="M157.245,72.612l1.391-0.219c0.078,0.557,0.295,0.984,0.652,1.281c0.356,0.297,0.855,0.445,1.496,0.445
			c0.646,0,1.125-0.133,1.438-0.395c0.312-0.264,0.469-0.572,0.469-0.926c0-0.318-0.138-0.568-0.414-0.75
			c-0.193-0.125-0.672-0.285-1.438-0.477c-1.031-0.262-1.746-0.486-2.145-0.676c-0.398-0.191-0.701-0.453-0.906-0.789
			c-0.206-0.336-0.309-0.707-0.309-1.113c0-0.371,0.084-0.713,0.254-1.027c0.169-0.316,0.399-0.578,0.691-0.785
			c0.219-0.162,0.517-0.299,0.895-0.41c0.377-0.113,0.782-0.168,1.215-0.168c0.651,0,1.223,0.094,1.715,0.281
			s0.855,0.441,1.09,0.762s0.396,0.748,0.484,1.285l-1.375,0.188c-0.062-0.428-0.244-0.762-0.543-1
			c-0.3-0.24-0.723-0.359-1.27-0.359c-0.646,0-1.107,0.105-1.383,0.32c-0.276,0.213-0.414,0.463-0.414,0.75
			c0,0.182,0.057,0.346,0.172,0.492c0.114,0.15,0.294,0.275,0.539,0.375c0.141,0.051,0.555,0.172,1.242,0.359
			c0.995,0.266,1.688,0.482,2.082,0.652c0.393,0.168,0.702,0.414,0.926,0.738c0.224,0.322,0.336,0.723,0.336,1.203
			c0,0.469-0.137,0.91-0.41,1.324s-0.668,0.734-1.184,0.961s-1.099,0.34-1.75,0.34c-1.078,0-1.9-0.225-2.465-0.672
			C157.762,74.155,157.401,73.491,157.245,72.612z"/>
		<path fill="#3C3C3B" d="M170.589,75.088v-7.203h-1.242v-1.094h1.242v-0.883c0-0.559,0.049-0.973,0.148-1.242
			c0.135-0.365,0.374-0.66,0.715-0.887c0.341-0.227,0.819-0.34,1.434-0.34c0.396,0,0.833,0.047,1.312,0.141l-0.211,1.227
			c-0.292-0.053-0.568-0.078-0.828-0.078c-0.427,0-0.729,0.09-0.906,0.273c-0.177,0.182-0.266,0.523-0.266,1.023v0.766h1.617v1.094
			h-1.617v7.203H170.589z"/>
		<path fill="#3C3C3B" d="M180.112,74.065c-0.521,0.441-1.022,0.754-1.504,0.938c-0.482,0.182-0.999,0.273-1.551,0.273
			c-0.912,0-1.612-0.223-2.102-0.668c-0.49-0.445-0.734-1.016-0.734-1.707c0-0.406,0.092-0.777,0.277-1.113
			c0.185-0.336,0.427-0.605,0.727-0.809c0.299-0.203,0.637-0.357,1.012-0.461c0.276-0.074,0.692-0.145,1.25-0.211
			c1.135-0.137,1.971-0.297,2.508-0.484c0.005-0.193,0.008-0.316,0.008-0.367c0-0.574-0.133-0.977-0.398-1.211
			c-0.359-0.318-0.894-0.477-1.602-0.477c-0.662,0-1.15,0.115-1.465,0.348c-0.315,0.23-0.548,0.641-0.699,1.23l-1.375-0.188
			c0.125-0.59,0.331-1.064,0.617-1.426c0.286-0.363,0.7-0.641,1.242-0.836c0.542-0.195,1.169-0.293,1.883-0.293
			c0.708,0,1.284,0.082,1.727,0.25c0.442,0.166,0.768,0.375,0.977,0.629c0.208,0.252,0.354,0.57,0.438,0.957
			c0.047,0.238,0.07,0.672,0.07,1.297v1.875c0,1.307,0.03,2.133,0.09,2.48c0.06,0.346,0.178,0.678,0.355,0.996h-1.469
			C180.248,74.795,180.154,74.456,180.112,74.065z M179.995,70.924c-0.511,0.207-1.276,0.385-2.297,0.531
			c-0.578,0.082-0.987,0.176-1.227,0.281c-0.24,0.104-0.425,0.256-0.555,0.457c-0.13,0.199-0.195,0.422-0.195,0.668
			c0,0.375,0.142,0.688,0.426,0.938c0.284,0.25,0.699,0.375,1.246,0.375c0.542,0,1.023-0.119,1.445-0.355
			c0.422-0.238,0.731-0.562,0.93-0.973c0.151-0.318,0.227-0.787,0.227-1.406V70.924z"/>
		<path fill="#3C3C3B" d="M183.597,75.088v-8.297h1.258v1.164c0.26-0.406,0.606-0.734,1.039-0.98
			c0.432-0.248,0.924-0.371,1.477-0.371c0.614,0,1.118,0.127,1.512,0.383c0.393,0.254,0.67,0.611,0.832,1.07
			c0.656-0.969,1.51-1.453,2.562-1.453c0.823,0,1.456,0.227,1.898,0.684c0.442,0.455,0.664,1.156,0.664,2.105v5.695h-1.398v-5.227
			c0-0.562-0.046-0.969-0.137-1.215c-0.091-0.248-0.257-0.447-0.496-0.598c-0.24-0.152-0.521-0.227-0.844-0.227
			c-0.583,0-1.068,0.193-1.453,0.582c-0.386,0.387-0.578,1.008-0.578,1.863v4.82h-1.406v-5.391c0-0.625-0.115-1.094-0.344-1.406
			c-0.229-0.312-0.604-0.469-1.125-0.469c-0.396,0-0.762,0.104-1.098,0.312c-0.336,0.207-0.58,0.512-0.73,0.914
			c-0.151,0.4-0.227,0.979-0.227,1.734v4.305H183.597z"/>
		<path fill="#3C3C3B" d="M196.933,65.252v-1.617h1.406v1.617H196.933z M196.933,75.088v-8.297h1.406v8.297H196.933z"/>
		<path fill="#3C3C3B" d="M200.448,75.088V63.635h1.406v11.453H200.448z"/>
		<path fill="#3C3C3B" d="M204.042,65.252v-1.617h1.406v1.617H204.042z M204.042,75.088v-8.297h1.406v8.297H204.042z"/>
		<path fill="#3C3C3B" d="M213.003,74.065c-0.521,0.441-1.022,0.754-1.504,0.938c-0.482,0.182-0.999,0.273-1.551,0.273
			c-0.912,0-1.612-0.223-2.102-0.668c-0.49-0.445-0.734-1.016-0.734-1.707c0-0.406,0.092-0.777,0.277-1.113
			c0.185-0.336,0.427-0.605,0.727-0.809c0.299-0.203,0.637-0.357,1.012-0.461c0.276-0.074,0.692-0.145,1.25-0.211
			c1.135-0.137,1.971-0.297,2.508-0.484c0.005-0.193,0.008-0.316,0.008-0.367c0-0.574-0.133-0.977-0.398-1.211
			c-0.359-0.318-0.894-0.477-1.602-0.477c-0.662,0-1.15,0.115-1.465,0.348c-0.315,0.23-0.548,0.641-0.699,1.23l-1.375-0.188
			c0.125-0.59,0.331-1.064,0.617-1.426c0.286-0.363,0.7-0.641,1.242-0.836c0.542-0.195,1.169-0.293,1.883-0.293
			c0.708,0,1.284,0.082,1.727,0.25c0.442,0.166,0.768,0.375,0.977,0.629c0.208,0.252,0.354,0.57,0.438,0.957
			c0.047,0.238,0.07,0.672,0.07,1.297v1.875c0,1.307,0.03,2.133,0.09,2.48c0.06,0.346,0.178,0.678,0.355,0.996h-1.469
			C213.138,74.795,213.044,74.456,213.003,74.065z M212.886,70.924c-0.511,0.207-1.276,0.385-2.297,0.531
			c-0.578,0.082-0.987,0.176-1.227,0.281c-0.24,0.104-0.425,0.256-0.555,0.457c-0.13,0.199-0.195,0.422-0.195,0.668
			c0,0.375,0.142,0.688,0.426,0.938c0.284,0.25,0.699,0.375,1.246,0.375c0.542,0,1.023-0.119,1.445-0.355
			c0.422-0.238,0.731-0.562,0.93-0.973c0.151-0.318,0.227-0.787,0.227-1.406V70.924z"/>
		<path fill="#3C3C3B" d="M216.472,75.088v-8.297h1.266v1.258c0.323-0.59,0.621-0.977,0.895-1.164s0.574-0.281,0.902-0.281
			c0.474,0,0.956,0.15,1.445,0.453l-0.484,1.305c-0.344-0.203-0.688-0.305-1.031-0.305c-0.308,0-0.583,0.092-0.828,0.277
			c-0.245,0.184-0.419,0.441-0.523,0.77c-0.156,0.5-0.234,1.047-0.234,1.641v4.344H216.472z"/>
		<path fill="#3C3C3B" d="M227.495,72.417l1.453,0.18c-0.229,0.848-0.653,1.508-1.273,1.977c-0.62,0.469-1.412,0.703-2.375,0.703
			c-1.214,0-2.176-0.375-2.887-1.121c-0.711-0.748-1.066-1.797-1.066-3.145c0-1.396,0.359-2.48,1.078-3.25
			c0.719-0.771,1.651-1.156,2.797-1.156c1.109,0,2.016,0.377,2.719,1.133c0.703,0.754,1.054,1.816,1.054,3.188
			c0,0.082-0.002,0.207-0.008,0.375H222.8c0.052,0.91,0.31,1.609,0.773,2.094c0.463,0.484,1.042,0.727,1.734,0.727
			c0.516,0,0.956-0.137,1.32-0.406C226.992,73.442,227.281,73.01,227.495,72.417z M222.878,70.143h4.633
			c-0.062-0.699-0.24-1.223-0.531-1.57c-0.448-0.543-1.029-0.812-1.742-0.812c-0.646,0-1.189,0.215-1.629,0.648
			C223.168,68.84,222.925,69.418,222.878,70.143z"/>
		<path fill="#3C3C3B" d="M230.151,72.612l1.391-0.219c0.078,0.557,0.296,0.984,0.652,1.281c0.357,0.297,0.855,0.445,1.496,0.445
			c0.646,0,1.125-0.133,1.438-0.395c0.312-0.264,0.469-0.572,0.469-0.926c0-0.318-0.138-0.568-0.414-0.75
			c-0.192-0.125-0.672-0.285-1.438-0.477c-1.031-0.262-1.746-0.486-2.145-0.676c-0.398-0.191-0.7-0.453-0.906-0.789
			c-0.205-0.336-0.309-0.707-0.309-1.113c0-0.371,0.085-0.713,0.254-1.027c0.17-0.316,0.4-0.578,0.691-0.785
			c0.219-0.162,0.518-0.299,0.895-0.41c0.378-0.113,0.783-0.168,1.215-0.168c0.651,0,1.223,0.094,1.715,0.281
			s0.855,0.441,1.09,0.762s0.396,0.748,0.484,1.285l-1.375,0.188c-0.062-0.428-0.243-0.762-0.543-1
			c-0.299-0.24-0.723-0.359-1.27-0.359c-0.646,0-1.106,0.105-1.383,0.32c-0.275,0.213-0.414,0.463-0.414,0.75
			c0,0.182,0.058,0.346,0.172,0.492c0.115,0.15,0.295,0.275,0.539,0.375c0.141,0.051,0.555,0.172,1.242,0.359
			c0.995,0.266,1.689,0.482,2.082,0.652c0.394,0.168,0.702,0.414,0.926,0.738c0.225,0.322,0.336,0.723,0.336,1.203
			c0,0.469-0.137,0.91-0.41,1.324s-0.668,0.734-1.184,0.961s-1.099,0.34-1.75,0.34c-1.078,0-1.899-0.225-2.465-0.672
			C230.668,74.155,230.307,73.491,230.151,72.612z"/>
		<path fill="#3C3C3B" d="M242.635,70.94c0-1.537,0.428-2.676,1.281-3.414c0.714-0.615,1.584-0.922,2.609-0.922
			c1.141,0,2.073,0.373,2.797,1.121c0.725,0.746,1.086,1.779,1.086,3.098c0,1.066-0.16,1.906-0.48,2.52
			c-0.32,0.611-0.786,1.086-1.398,1.426c-0.611,0.338-1.279,0.508-2.004,0.508c-1.161,0-2.1-0.373-2.816-1.117
			C242.994,73.413,242.635,72.34,242.635,70.94z M244.081,70.94c0,1.062,0.232,1.857,0.695,2.387
			c0.464,0.527,1.047,0.793,1.75,0.793c0.698,0,1.279-0.266,1.742-0.797c0.464-0.531,0.695-1.342,0.695-2.43
			c0-1.027-0.232-1.805-0.699-2.332c-0.466-0.529-1.045-0.793-1.738-0.793c-0.703,0-1.286,0.262-1.75,0.789
			C244.313,69.083,244.081,69.877,244.081,70.94z"/>
		<path fill="#3C3C3B" d="M256.502,78.268V66.792h1.281v1.078c0.303-0.422,0.644-0.738,1.023-0.949
			c0.381-0.211,0.842-0.316,1.383-0.316c0.709,0,1.334,0.182,1.875,0.547c0.542,0.363,0.951,0.879,1.227,1.543
			c0.276,0.664,0.414,1.391,0.414,2.184c0,0.848-0.152,1.613-0.457,2.293s-0.747,1.199-1.328,1.562
			c-0.58,0.361-1.191,0.543-1.832,0.543c-0.469,0-0.889-0.1-1.262-0.297c-0.372-0.199-0.678-0.449-0.918-0.75v4.039H256.502z
			 M257.776,70.987c0,1.066,0.217,1.855,0.648,2.367c0.433,0.51,0.956,0.766,1.57,0.766c0.625,0,1.16-0.266,1.605-0.793
			c0.445-0.529,0.668-1.348,0.668-2.457c0-1.059-0.217-1.85-0.652-2.375c-0.435-0.527-0.954-0.789-1.559-0.789
			c-0.599,0-1.129,0.279-1.59,0.84C258.006,69.104,257.776,69.918,257.776,70.987z"/>
		<path fill="#3C3C3B" d="M271.081,72.417l1.453,0.18c-0.229,0.848-0.653,1.508-1.273,1.977c-0.619,0.469-1.411,0.703-2.375,0.703
			c-1.213,0-2.176-0.375-2.887-1.121c-0.711-0.748-1.066-1.797-1.066-3.145c0-1.396,0.359-2.48,1.078-3.25
			c0.719-0.771,1.651-1.156,2.797-1.156c1.109,0,2.016,0.377,2.719,1.133c0.703,0.754,1.055,1.816,1.055,3.188
			c0,0.082-0.002,0.207-0.008,0.375h-6.188c0.053,0.91,0.311,1.609,0.773,2.094c0.464,0.484,1.042,0.727,1.734,0.727
			c0.516,0,0.956-0.137,1.32-0.406C270.579,73.442,270.868,73.01,271.081,72.417z M266.463,70.143h4.633
			c-0.062-0.699-0.239-1.223-0.531-1.57c-0.447-0.543-1.028-0.812-1.742-0.812c-0.646,0-1.188,0.215-1.629,0.648
			C266.754,68.84,266.51,69.418,266.463,70.143z"/>
		<path fill="#3C3C3B" d="M274.284,75.088v-8.297h1.266v1.258c0.323-0.59,0.621-0.977,0.895-1.164s0.574-0.281,0.902-0.281
			c0.475,0,0.956,0.15,1.445,0.453l-0.484,1.305c-0.344-0.203-0.688-0.305-1.031-0.305c-0.307,0-0.583,0.092-0.828,0.277
			c-0.244,0.184-0.419,0.441-0.523,0.77c-0.156,0.5-0.234,1.047-0.234,1.641v4.344H274.284z"/>
		<path fill="#3C3C3B" d="M279.065,72.612l1.391-0.219c0.078,0.557,0.296,0.984,0.652,1.281c0.357,0.297,0.855,0.445,1.496,0.445
			c0.646,0,1.125-0.133,1.438-0.395c0.312-0.264,0.469-0.572,0.469-0.926c0-0.318-0.138-0.568-0.414-0.75
			c-0.192-0.125-0.672-0.285-1.438-0.477c-1.031-0.262-1.746-0.486-2.145-0.676c-0.398-0.191-0.7-0.453-0.906-0.789
			c-0.205-0.336-0.309-0.707-0.309-1.113c0-0.371,0.085-0.713,0.254-1.027c0.17-0.316,0.4-0.578,0.691-0.785
			c0.219-0.162,0.518-0.299,0.895-0.41c0.378-0.113,0.783-0.168,1.215-0.168c0.651,0,1.223,0.094,1.715,0.281
			s0.855,0.441,1.09,0.762s0.396,0.748,0.484,1.285l-1.375,0.188c-0.062-0.428-0.243-0.762-0.543-1
			c-0.299-0.24-0.723-0.359-1.27-0.359c-0.646,0-1.106,0.105-1.383,0.32c-0.275,0.213-0.414,0.463-0.414,0.75
			c0,0.182,0.058,0.346,0.172,0.492c0.115,0.15,0.295,0.275,0.539,0.375c0.141,0.051,0.555,0.172,1.242,0.359
			c0.995,0.266,1.689,0.482,2.082,0.652c0.394,0.168,0.702,0.414,0.926,0.738c0.225,0.322,0.336,0.723,0.336,1.203
			c0,0.469-0.137,0.91-0.41,1.324s-0.668,0.734-1.184,0.961s-1.099,0.34-1.75,0.34c-1.078,0-1.899-0.225-2.465-0.672
			C279.583,74.155,279.221,73.491,279.065,72.612z"/>
		<path fill="#3C3C3B" d="M287.104,70.94c0-1.537,0.428-2.676,1.281-3.414c0.714-0.615,1.584-0.922,2.609-0.922
			c1.141,0,2.073,0.373,2.797,1.121c0.725,0.746,1.086,1.779,1.086,3.098c0,1.066-0.16,1.906-0.48,2.52
			c-0.32,0.611-0.786,1.086-1.398,1.426c-0.611,0.338-1.279,0.508-2.004,0.508c-1.161,0-2.1-0.373-2.816-1.117
			C287.462,73.413,287.104,72.34,287.104,70.94z M288.549,70.94c0,1.062,0.232,1.857,0.695,2.387
			c0.464,0.527,1.047,0.793,1.75,0.793c0.698,0,1.279-0.266,1.742-0.797c0.464-0.531,0.695-1.342,0.695-2.43
			c0-1.027-0.232-1.805-0.699-2.332c-0.466-0.529-1.045-0.793-1.738-0.793c-0.703,0-1.286,0.262-1.75,0.789
			C288.782,69.083,288.549,69.877,288.549,70.94z"/>
		<path fill="#3C3C3B" d="M296.526,75.088v-8.297h1.266v1.18c0.609-0.912,1.49-1.367,2.641-1.367c0.5,0,0.96,0.09,1.379,0.27
			c0.42,0.18,0.733,0.414,0.941,0.707c0.209,0.291,0.354,0.637,0.438,1.039c0.053,0.26,0.078,0.715,0.078,1.367v5.102h-1.406v-5.047
			c0-0.574-0.055-1.002-0.164-1.285c-0.109-0.285-0.303-0.512-0.582-0.68c-0.278-0.17-0.605-0.254-0.98-0.254
			c-0.599,0-1.115,0.189-1.551,0.57c-0.435,0.379-0.652,1.102-0.652,2.164v4.531H296.526z"/>
		<path fill="#3C3C3B" d="M310.838,74.065c-0.521,0.441-1.021,0.754-1.504,0.938c-0.481,0.182-0.998,0.273-1.551,0.273
			c-0.911,0-1.611-0.223-2.102-0.668c-0.489-0.445-0.734-1.016-0.734-1.707c0-0.406,0.093-0.777,0.277-1.113
			c0.186-0.336,0.428-0.605,0.727-0.809c0.3-0.203,0.637-0.357,1.012-0.461c0.276-0.074,0.693-0.145,1.25-0.211
			c1.136-0.137,1.972-0.297,2.508-0.484c0.006-0.193,0.008-0.316,0.008-0.367c0-0.574-0.133-0.977-0.398-1.211
			c-0.359-0.318-0.893-0.477-1.602-0.477c-0.661,0-1.149,0.115-1.465,0.348c-0.314,0.23-0.548,0.641-0.699,1.23l-1.375-0.188
			c0.125-0.59,0.331-1.064,0.617-1.426c0.287-0.363,0.701-0.641,1.242-0.836c0.542-0.195,1.17-0.293,1.883-0.293
			c0.709,0,1.284,0.082,1.727,0.25c0.443,0.166,0.769,0.375,0.977,0.629c0.209,0.252,0.354,0.57,0.438,0.957
			c0.047,0.238,0.07,0.672,0.07,1.297v1.875c0,1.307,0.03,2.133,0.09,2.48c0.061,0.346,0.179,0.678,0.355,0.996h-1.469
			C310.974,74.795,310.88,74.456,310.838,74.065z M310.721,70.924c-0.51,0.207-1.275,0.385-2.297,0.531
			c-0.578,0.082-0.986,0.176-1.227,0.281c-0.239,0.104-0.424,0.256-0.555,0.457c-0.13,0.199-0.195,0.422-0.195,0.668
			c0,0.375,0.143,0.688,0.426,0.938c0.284,0.25,0.699,0.375,1.246,0.375c0.542,0,1.023-0.119,1.445-0.355
			c0.422-0.238,0.732-0.562,0.93-0.973c0.151-0.318,0.227-0.787,0.227-1.406V70.924z"/>
		<path fill="#3C3C3B" d="M313.76,72.612l1.391-0.219c0.078,0.557,0.296,0.984,0.652,1.281c0.357,0.297,0.855,0.445,1.496,0.445
			c0.646,0,1.125-0.133,1.438-0.395c0.312-0.264,0.469-0.572,0.469-0.926c0-0.318-0.138-0.568-0.414-0.75
			c-0.192-0.125-0.672-0.285-1.438-0.477c-1.031-0.262-1.746-0.486-2.145-0.676c-0.398-0.191-0.7-0.453-0.906-0.789
			c-0.205-0.336-0.309-0.707-0.309-1.113c0-0.371,0.085-0.713,0.254-1.027c0.17-0.316,0.4-0.578,0.691-0.785
			c0.219-0.162,0.518-0.299,0.895-0.41c0.378-0.113,0.783-0.168,1.215-0.168c0.651,0,1.223,0.094,1.715,0.281
			s0.855,0.441,1.09,0.762s0.396,0.748,0.484,1.285l-1.375,0.188c-0.062-0.428-0.243-0.762-0.543-1
			c-0.299-0.24-0.723-0.359-1.27-0.359c-0.646,0-1.106,0.105-1.383,0.32c-0.275,0.213-0.414,0.463-0.414,0.75
			c0,0.182,0.058,0.346,0.172,0.492c0.115,0.15,0.295,0.275,0.539,0.375c0.141,0.051,0.555,0.172,1.242,0.359
			c0.995,0.266,1.689,0.482,2.082,0.652c0.394,0.168,0.702,0.414,0.926,0.738c0.225,0.322,0.336,0.723,0.336,1.203
			c0,0.469-0.137,0.91-0.41,1.324s-0.668,0.734-1.184,0.961s-1.099,0.34-1.75,0.34c-1.078,0-1.899-0.225-2.465-0.672
			C314.278,74.155,313.917,73.491,313.76,72.612z"/>
		<path fill="#3C3C3B" d="M332.182,72.049l1.383,0.18c-0.15,0.953-0.537,1.699-1.16,2.238c-0.622,0.539-1.387,0.809-2.293,0.809
			c-1.135,0-2.048-0.371-2.738-1.113c-0.689-0.742-1.035-1.807-1.035-3.191c0-0.896,0.148-1.68,0.445-2.352s0.749-1.176,1.355-1.512
			c0.607-0.336,1.268-0.504,1.98-0.504c0.901,0,1.639,0.227,2.211,0.684c0.573,0.455,0.94,1.102,1.102,1.941l-1.367,0.211
			c-0.13-0.559-0.36-0.977-0.691-1.258c-0.33-0.281-0.73-0.422-1.199-0.422c-0.708,0-1.283,0.254-1.727,0.762
			c-0.442,0.508-0.664,1.311-0.664,2.41c0,1.113,0.214,1.924,0.641,2.43c0.428,0.504,0.984,0.758,1.672,0.758
			c0.553,0,1.014-0.17,1.383-0.508C331.849,73.272,332.083,72.752,332.182,72.049z"/>
		<path fill="#3C3C3B" d="M340.448,72.417l1.453,0.18c-0.229,0.848-0.653,1.508-1.273,1.977c-0.619,0.469-1.411,0.703-2.375,0.703
			c-1.213,0-2.176-0.375-2.887-1.121c-0.711-0.748-1.066-1.797-1.066-3.145c0-1.396,0.359-2.48,1.078-3.25
			c0.719-0.771,1.651-1.156,2.797-1.156c1.109,0,2.016,0.377,2.719,1.133c0.703,0.754,1.055,1.816,1.055,3.188
			c0,0.082-0.002,0.207-0.008,0.375h-6.188c0.053,0.91,0.311,1.609,0.773,2.094c0.464,0.484,1.042,0.727,1.734,0.727
			c0.516,0,0.956-0.137,1.32-0.406C339.946,73.442,340.235,73.01,340.448,72.417z M335.831,70.143h4.633
			c-0.062-0.699-0.239-1.223-0.531-1.57c-0.447-0.543-1.028-0.812-1.742-0.812c-0.646,0-1.188,0.215-1.629,0.648
			C336.122,68.84,335.877,69.418,335.831,70.143z"/>
		<path fill="#3C3C3B" d="M343.651,75.088v-8.297h1.266v1.258c0.323-0.59,0.621-0.977,0.895-1.164s0.574-0.281,0.902-0.281
			c0.475,0,0.956,0.15,1.445,0.453l-0.484,1.305c-0.344-0.203-0.688-0.305-1.031-0.305c-0.307,0-0.583,0.092-0.828,0.277
			c-0.244,0.184-0.419,0.441-0.523,0.77c-0.156,0.5-0.234,1.047-0.234,1.641v4.344H343.651z"/>
		<path fill="#3C3C3B" d="M354.409,72.049l1.383,0.18c-0.15,0.953-0.537,1.699-1.16,2.238c-0.622,0.539-1.387,0.809-2.293,0.809
			c-1.135,0-2.048-0.371-2.738-1.113c-0.689-0.742-1.035-1.807-1.035-3.191c0-0.896,0.148-1.68,0.445-2.352s0.749-1.176,1.355-1.512
			c0.607-0.336,1.268-0.504,1.98-0.504c0.901,0,1.639,0.227,2.211,0.684c0.573,0.455,0.94,1.102,1.102,1.941l-1.367,0.211
			c-0.13-0.559-0.36-0.977-0.691-1.258c-0.33-0.281-0.73-0.422-1.199-0.422c-0.708,0-1.283,0.254-1.727,0.762
			c-0.442,0.508-0.664,1.311-0.664,2.41c0,1.113,0.214,1.924,0.641,2.43c0.428,0.504,0.984,0.758,1.672,0.758
			c0.553,0,1.014-0.17,1.383-0.508C354.076,73.272,354.31,72.752,354.409,72.049z"/>
		<path fill="#3C3C3B" d="M362.409,74.065c-0.521,0.441-1.021,0.754-1.504,0.938c-0.481,0.182-0.998,0.273-1.551,0.273
			c-0.911,0-1.611-0.223-2.102-0.668c-0.489-0.445-0.734-1.016-0.734-1.707c0-0.406,0.093-0.777,0.277-1.113
			c0.186-0.336,0.428-0.605,0.727-0.809c0.3-0.203,0.637-0.357,1.012-0.461c0.276-0.074,0.693-0.145,1.25-0.211
			c1.136-0.137,1.972-0.297,2.508-0.484c0.006-0.193,0.008-0.316,0.008-0.367c0-0.574-0.133-0.977-0.398-1.211
			c-0.359-0.318-0.893-0.477-1.602-0.477c-0.661,0-1.149,0.115-1.465,0.348c-0.314,0.23-0.548,0.641-0.699,1.23l-1.375-0.188
			c0.125-0.59,0.331-1.064,0.617-1.426c0.287-0.363,0.701-0.641,1.242-0.836c0.542-0.195,1.17-0.293,1.883-0.293
			c0.709,0,1.284,0.082,1.727,0.25c0.443,0.166,0.769,0.375,0.977,0.629c0.209,0.252,0.354,0.57,0.438,0.957
			c0.047,0.238,0.07,0.672,0.07,1.297v1.875c0,1.307,0.03,2.133,0.09,2.48c0.061,0.346,0.179,0.678,0.355,0.996h-1.469
			C362.544,74.795,362.451,74.456,362.409,74.065z M362.292,70.924c-0.51,0.207-1.275,0.385-2.297,0.531
			c-0.578,0.082-0.986,0.176-1.227,0.281c-0.239,0.104-0.424,0.256-0.555,0.457c-0.13,0.199-0.195,0.422-0.195,0.668
			c0,0.375,0.143,0.688,0.426,0.938c0.284,0.25,0.699,0.375,1.246,0.375c0.542,0,1.023-0.119,1.445-0.355
			c0.422-0.238,0.732-0.562,0.93-0.973c0.151-0.318,0.227-0.787,0.227-1.406V70.924z"/>
		<path fill="#3C3C3B" d="M365.893,75.088v-8.297h1.266v1.18c0.609-0.912,1.49-1.367,2.641-1.367c0.5,0,0.96,0.09,1.379,0.27
			c0.42,0.18,0.733,0.414,0.941,0.707c0.209,0.291,0.354,0.637,0.438,1.039c0.053,0.26,0.078,0.715,0.078,1.367v5.102h-1.406v-5.047
			c0-0.574-0.055-1.002-0.164-1.285c-0.109-0.285-0.303-0.512-0.582-0.68c-0.278-0.17-0.605-0.254-0.98-0.254
			c-0.599,0-1.115,0.189-1.551,0.57c-0.435,0.379-0.652,1.102-0.652,2.164v4.531H365.893z"/>
		<path fill="#3C3C3B" d="M380.206,74.065c-0.521,0.441-1.021,0.754-1.504,0.938c-0.481,0.182-0.998,0.273-1.551,0.273
			c-0.911,0-1.611-0.223-2.102-0.668c-0.489-0.445-0.734-1.016-0.734-1.707c0-0.406,0.093-0.777,0.277-1.113
			c0.186-0.336,0.428-0.605,0.727-0.809c0.3-0.203,0.637-0.357,1.012-0.461c0.276-0.074,0.693-0.145,1.25-0.211
			c1.136-0.137,1.972-0.297,2.508-0.484c0.006-0.193,0.008-0.316,0.008-0.367c0-0.574-0.133-0.977-0.398-1.211
			c-0.359-0.318-0.893-0.477-1.602-0.477c-0.661,0-1.149,0.115-1.465,0.348c-0.314,0.23-0.548,0.641-0.699,1.23l-1.375-0.188
			c0.125-0.59,0.331-1.064,0.617-1.426c0.287-0.363,0.701-0.641,1.242-0.836c0.542-0.195,1.17-0.293,1.883-0.293
			c0.709,0,1.284,0.082,1.727,0.25c0.443,0.166,0.769,0.375,0.977,0.629c0.209,0.252,0.354,0.57,0.438,0.957
			c0.047,0.238,0.07,0.672,0.07,1.297v1.875c0,1.307,0.03,2.133,0.09,2.48c0.061,0.346,0.179,0.678,0.355,0.996h-1.469
			C380.341,74.795,380.248,74.456,380.206,74.065z M380.088,70.924c-0.51,0.207-1.275,0.385-2.297,0.531
			c-0.578,0.082-0.986,0.176-1.227,0.281c-0.239,0.104-0.424,0.256-0.555,0.457c-0.13,0.199-0.195,0.422-0.195,0.668
			c0,0.375,0.143,0.688,0.426,0.938c0.284,0.25,0.699,0.375,1.246,0.375c0.542,0,1.023-0.119,1.445-0.355
			c0.422-0.238,0.732-0.562,0.93-0.973c0.151-0.318,0.227-0.787,0.227-1.406V70.924z"/>
		<path fill="#3C3C3B" d="M383.127,72.612l1.391-0.219c0.078,0.557,0.296,0.984,0.652,1.281c0.357,0.297,0.855,0.445,1.496,0.445
			c0.646,0,1.125-0.133,1.438-0.395c0.312-0.264,0.469-0.572,0.469-0.926c0-0.318-0.138-0.568-0.414-0.75
			c-0.192-0.125-0.672-0.285-1.438-0.477c-1.031-0.262-1.746-0.486-2.145-0.676c-0.398-0.191-0.7-0.453-0.906-0.789
			c-0.205-0.336-0.309-0.707-0.309-1.113c0-0.371,0.085-0.713,0.254-1.027c0.17-0.316,0.4-0.578,0.691-0.785
			c0.219-0.162,0.518-0.299,0.895-0.41c0.378-0.113,0.783-0.168,1.215-0.168c0.651,0,1.223,0.094,1.715,0.281
			s0.855,0.441,1.09,0.762s0.396,0.748,0.484,1.285l-1.375,0.188c-0.062-0.428-0.243-0.762-0.543-1
			c-0.299-0.24-0.723-0.359-1.27-0.359c-0.646,0-1.106,0.105-1.383,0.32c-0.275,0.213-0.414,0.463-0.414,0.75
			c0,0.182,0.058,0.346,0.172,0.492c0.115,0.15,0.295,0.275,0.539,0.375c0.141,0.051,0.555,0.172,1.242,0.359
			c0.995,0.266,1.689,0.482,2.082,0.652c0.394,0.168,0.702,0.414,0.926,0.738c0.225,0.322,0.336,0.723,0.336,1.203
			c0,0.469-0.137,0.91-0.41,1.324s-0.668,0.734-1.184,0.961s-1.099,0.34-1.75,0.34c-1.078,0-1.899-0.225-2.465-0.672
			C383.645,74.155,383.284,73.491,383.127,72.612z"/>
		<path fill="#3C3C3B" d="M392.088,75.088v-1.602h1.602v1.602H392.088z"/>
	</g>
</g>
<g>
	<g>
		<polyline fill="none" stroke="#941B80" stroke-miterlimit="10" points="455.108,98.03 455.108,98.53 454.608,98.53 		"/>
		
			<line fill="none" stroke="#941B80" stroke-miterlimit="10" stroke-dasharray="1.0005,1.0005" x1="453.608" y1="98.53" x2="1.893" y2="98.53"/>
		<polyline fill="none" stroke="#941B80" stroke-miterlimit="10" points="1.393,98.53 0.893,98.53 0.893,98.03 		"/>
		<line fill="none" stroke="#941B80" stroke-miterlimit="10" stroke-dasharray="1,1" x1="0.893" y1="97.03" x2="0.893" y2="1.525"/>
		<polyline fill="none" stroke="#941B80" stroke-miterlimit="10" points="0.893,1.025 0.893,0.525 1.393,0.525 		"/>
		
			<line fill="none" stroke="#941B80" stroke-miterlimit="10" stroke-dasharray="1.0005,1.0005" x1="2.393" y1="0.525" x2="454.108" y2="0.525"/>
		<polyline fill="none" stroke="#941B80" stroke-miterlimit="10" points="454.608,0.525 455.108,0.525 455.108,1.025 		"/>
		
			<line fill="none" stroke="#941B80" stroke-miterlimit="10" stroke-dasharray="1,1" x1="455.108" y1="2.025" x2="455.108" y2="97.53"/>
	</g>
</g>
</svg>
