<?xml version="1.0" encoding="utf-8"?>
<!-- Generator: Adobe Illustrator 16.0.0, SVG Export Plug-In . SVG Version: 6.00 Build 0)  -->
<!DOCTYPE svg PUBLIC "-//W3C//DTD SVG 1.1//EN" "http://www.w3.org/Graphics/SVG/1.1/DTD/svg11.dtd">
<svg version="1.1" id="Capa_1" xmlns="http://www.w3.org/2000/svg" xmlns:xlink="http://www.w3.org/1999/xlink" x="0px" y="0px"
	 width="887.17px" height="405.033px" viewBox="0 0 887.17 405.033" enable-background="new 0 0 887.17 405.033"
	 xml:space="preserve">
<g>
	<path fill="#951B81" d="M31,0L0,346.529l769.656,13.854L805.991,0C802.63,1.554,31,0,31,0z"/>
	<g>
		<g>
			<g>
				<path fill="#F7E2C0" d="M872.764,208.122c-0.011-0.16-0.016-0.324-0.014-0.489c-0.005-0.075,0-0.159-0.012-0.231
					c-0.13-1.08-0.979-2.104-1.98-2.428c-0.688-0.608-1.533-1.104-2.605-1.438c-2.143-1.314-4.88-1.975-7.014-2.371
					c-1.695-0.313-8.355-0.588-11.234,0.795c-4.867-0.286-10.084,0.692-14.828,1.075c-5.972,0.479-12.659,0.463-18.396,2.606
					c-5.196-0.38-10.556,0.229-15.753,0.386c-5.592,0.174-11.184,0.279-16.778,0.353c-5.594,0.071-11.186,0.063-16.777,0.065
					c-4.759,0.002-9.884-0.598-14.673,0.03c-5.539-1.08-11.132-1.54-16.636-3.038c-6.438-1.756-12.545-4.572-18.626-7.357
					c-9.193-4.207-21.196-10.174-31.619-7.896c-0.078-0.438-0.379-0.788-0.941-0.712c-5.949,0.769-8.793,8.443-5.967,13.78
					c4.737,8.954,16.477,11.642,25.328,13.573c25,5.464,50.67,0.005,75.889,0.486c24.428,0.47,48.166,9.828,72.69,5.482
					c6.968-1.232,18.568-3.907,19.952-12.489C872.767,208.243,872.769,208.181,872.764,208.122z"/>
				<path opacity="0.5" fill="#F6DEBB" enable-background="new    " d="M872.764,208.122c-0.011-0.16-0.016-0.324-0.014-0.489
					c-0.005-0.075,0-0.159-0.012-0.231c-0.13-1.08-0.979-2.104-1.98-2.428c-0.688-0.608-1.533-1.104-2.605-1.438
					c-2.143-1.314-4.88-1.975-7.014-2.371c-1.695-0.313-8.355-0.588-11.234,0.795c-4.867-0.286-10.084,0.692-14.828,1.075
					c-5.972,0.479-12.659,0.463-18.396,2.606c-5.196-0.38-10.556,0.229-15.753,0.386c-5.592,0.174-11.184,0.279-16.778,0.353
					c-5.594,0.071-11.186,0.063-16.777,0.065c-4.759,0.002-9.884-0.598-14.673,0.03c-5.539-1.08-11.132-1.54-16.636-3.038
					c-6.438-1.756-12.545-4.572-18.626-7.357c-9.193-4.207-21.196-10.174-31.619-7.896c-0.078-0.438-0.379-0.788-0.941-0.712
					c-5.949,0.769-8.793,8.443-5.967,13.78c4.737,8.954,16.477,11.642,25.328,13.573c25,5.464,50.67,0.005,75.889,0.486
					c24.428,0.47,48.166,9.828,72.69,5.482c6.968-1.232,18.568-3.907,19.952-12.489
					C872.767,208.243,872.769,208.181,872.764,208.122z"/>
				<path opacity="0.5" fill="#F6DEBB" enable-background="new    " d="M872.764,208.122c-0.011-0.16-0.016-0.324-0.014-0.489
					c-0.005-0.075,0-0.159-0.012-0.231c-0.13-1.08-0.979-2.104-1.98-2.428c-0.688-0.608-1.533-1.104-2.605-1.438
					c-2.143-1.314-4.88-1.975-7.014-2.371c-1.695-0.313-8.355-0.588-11.234,0.795c-4.867-0.286-10.084,0.692-14.828,1.075
					c-5.972,0.479-12.659,0.463-18.396,2.606c-5.196-0.38-10.556,0.229-15.753,0.386c-5.592,0.174-11.184,0.279-16.778,0.353
					c-5.594,0.071-11.186,0.063-16.777,0.065c-4.759,0.002-9.884-0.598-14.673,0.03c-5.539-1.08-11.132-1.54-16.636-3.038
					c-6.438-1.756-12.545-4.572-18.626-7.357c-9.193-4.207-21.196-10.174-31.619-7.896c-0.078-0.438-0.379-0.788-0.941-0.712
					c-5.949,0.769-8.793,8.443-5.967,13.78c4.737,8.954,16.477,11.642,25.328,13.573c25,5.464,50.67,0.005,75.889,0.486
					c24.428,0.47,48.166,9.828,72.69,5.482c6.968-1.232,18.568-3.907,19.952-12.489
					C872.767,208.243,872.769,208.181,872.764,208.122z"/>
				<path opacity="0.5" fill="#F6DEBB" enable-background="new    " d="M854.485,204.666c-2.292-2.712-5.272-2.521-8.59-2.375
					c-2.945,0.134-5.886,0.329-8.826,0.554c-0.672,0.07-1.34,0.137-1.994,0.188c-0.92,0.074-1.859,0.137-2.808,0.195
					c-1.652,0.14-3.307,0.283-4.958,0.426c-1.203,0.104-2.404,0.209-3.604,0.313c-2.419,0.338-4.793,0.839-7.026,1.672
					c-5.196-0.381-10.556,0.229-15.753,0.386c-1.004,0.032-2.011,0.052-3.016,0.078c-2.437,0.279-4.833,0.707-7.108,1.498
					c-1.844-0.151-3.67-0.28-5.438-0.443c-2.773-0.253-5.55-0.492-8.324-0.729c-3.225,0.01-6.448,0.014-9.67,0.016
					c-4.759,0.002-9.884-0.598-14.673,0.03c-5.539-1.08-11.132-1.54-16.636-3.038c-3.862-1.055-7.605-2.493-11.3-4.072
					c-0.052-0.018-0.103-0.036-0.153-0.052c-0.03-0.02-0.062-0.035-0.094-0.055c-2.377-1.021-4.73-2.102-7.079-3.18
					c-4.589-2.098-9.872-4.635-15.313-6.368c-5.025-1.196-13.421-1.417-12.03,5.915c1.377,7.283,8.92,12.865,15.021,16.224
					c5.258,2.894,12.391,4.99,18.686,4.238c1.115,0.536,2.271,0.897,3.453,1.161c17.592,0.26,35.344-2.273,52.875-1.938
					c7.362,0.141,14.658,1.091,21.935,2.229c1.735-0.357,3.483-0.674,5.264-0.888c3.434-0.414,6.745,0.101,10.121,0.337
					c7.817,2.983,16.178,2.466,24.189,0.015C845.034,215.962,859.416,210.509,854.485,204.666z"/>
			</g>
			<g>
				<path fill="#7B5340" d="M810.183,217.294c0,0,0.811,0.164,2.233,0.407c1.421,0.25,3.456,0.593,5.911,0.871
					c2.445,0.288,5.33,0.59,8.375,0.406c1.51-0.104,3.087-0.379,4.676-0.652c1.59-0.287,3.199-0.625,4.8-0.998
					c3.193-0.771,6.394-1.548,9.305-2.535c1.459-0.48,2.838-1.022,4.108-1.592c1.258-0.597,2.422-1.226,3.035-2.22
					c0.633-0.98,0.826-2.1,0.842-3.073c0.011-0.981-0.146-1.845-0.314-2.539c-0.354-1.392-0.718-2.144-0.718-2.144
					s0.106,0.178,0.279,0.524c0.171,0.35,0.413,0.866,0.64,1.561c0.226,0.691,0.453,1.558,0.521,2.588
					c0.073,1.021-0.071,2.253-0.74,3.398c-0.331,0.573-0.816,1.092-1.386,1.501c-0.561,0.413-1.172,0.773-1.813,1.104
					c-1.281,0.669-2.694,1.215-4.164,1.733c-2.947,1.016-6.138,1.946-9.384,2.629c-1.618,0.353-3.248,0.668-4.858,0.935
					c-1.615,0.263-3.202,0.502-4.786,0.545c-1.573,0.048-3.081-0.041-4.503-0.174c-1.418-0.148-2.756-0.312-3.98-0.521
					C813.36,218.217,810.183,217.294,810.183,217.294z"/>
			</g>
			<g>
				<path fill="#7B5340" d="M848.505,221.418c0,0,1.632-0.472,4.006-1.381c2.373-0.896,5.506-2.255,8.306-4.153
					c0.698-0.472,1.383-0.97,2.006-1.517c0.633-0.537,1.198-1.128,1.694-1.74c0.484-0.62,0.898-1.267,1.169-1.936
					c0.146-0.33,0.265-0.66,0.331-0.993c0.104-0.325,0.123-0.653,0.155-0.966c0.043-0.625-0.001-1.208-0.112-1.708
					c-0.062-0.514-0.276-0.919-0.375-1.276c-0.311-0.67-0.506-1.049-0.506-1.049s0.207,0.369,0.545,1.032
					c0.11,0.354,0.343,0.757,0.425,1.272c0.133,0.502,0.199,1.097,0.157,1.736c-0.027,0.32-0.046,0.657-0.146,0.991
					c-0.064,0.342-0.183,0.681-0.325,1.021c-0.269,0.688-0.683,1.354-1.169,1.989c-0.497,0.629-1.064,1.236-1.699,1.788
					c-0.625,0.562-1.309,1.075-2.01,1.56c-2.852,1.883-6.009,3.202-8.398,4.072C850.157,221.021,848.505,221.418,848.505,221.418z"
					/>
			</g>
			<polygon fill="#7B5340" points="854.401,203.226 858.028,205.746 855.405,207.936 			"/>
			<polygon fill="#7B5340" points="855.146,208.666 853.676,211.749 856.214,211.749 			"/>
			<polygon fill="#7B5340" points="852.375,213.057 848.505,215.959 852.375,215.959 			"/>
			<polygon fill="#7B5340" points="846.284,216.698 841.789,217.857 844.979,219.371 			"/>
			<polygon fill="#7B5340" points="840.63,218.492 835.699,219.037 839.034,221.418 			"/>
			<polygon fill="#7B5340" points="832.366,219.956 827.631,219.956 831.046,221.418 			"/>
			<polygon fill="#7B5340" points="867.491,206.694 867.491,208.666 869.19,207.679 			"/>
			<polygon fill="#7B5340" points="867.491,210.204 866.268,211.749 868.341,211.749 			"/>
			<polygon fill="#7B5340" points="865.712,213.057 864.118,214.959 865.712,214.959 			"/>
			<polygon fill="#7B5340" points="863.173,215.393 861.146,216.698 862.812,216.698 			"/>
			<polygon fill="#7B5340" points="860.202,217.279 858.462,218.492 860.202,218.492 			"/>
			<polygon fill="#7B5340" points="856.649,219.037 854.944,219.956 856.649,219.497 			"/>
		</g>
		<g>
			<path fill="#3C2713" d="M730.466,264.598c-0.82-19.283-3.213-41.655-4.031-60.94c-0.315-7.411-0.567-15.158,2.569-21.884
				c2.733-5.863,7.84-10.363,13.505-13.488c5.667-3.124,11.918-5.005,18.131-6.808c4.742-1.379,9.586-2.739,14.521-2.562
				c4.935,0.178,10.055,2.138,12.861,6.199c2.808,4.062,2.466,10.376-1.516,13.296c5.614-1.521,11.447-2.262,17.271-2.188
				c2.582,0.033,5.367,0.312,7.307,2.017c2.668,2.341,2.708,6.673,1.057,9.815c-1.646,3.145-4.579,5.382-7.419,7.513
				c5.04,0.217,11.061,1.053,13.205,5.618c1.084,2.312,0.819,5.007,0.532,7.546c-1.096,9.667-0.572,14.511-1.668,24.177
				c-0.323,2.866,0.899,10.68-1.115,12.739c-2.047,2.095-8.456,2.678-11.365,3.041c-24.23,3.045-46.804,11.385-71.033,14.429"/>
			<path fill="#FFFEFE" d="M682.529,405.033c0,0,28.808-84.633,103.381-84.166c74.571,0.469,101.26,84.166,101.26,84.166H682.529
				L682.529,405.033z"/>
			<path fill="#D1966C" d="M727.251,214.823c-1.452,13.228-1.646,29.389-0.995,43.78c0.91,20,11.397,39.726,31.099,43.307
				l3.238,0.59l-3.55,23.821l54.896-0.941l0.369-54.738c0,0,13.531,2.518,21.246-9.786c8.378-13.366,2.792-37.753-9.573-26.597
				c-14.485,13.072-17.615,12.925-17.615,12.925c-2.503-16.909,7.053-51.104-32.769-59.79
				C753.599,183.028,729.487,194.476,727.251,214.823z"/>
			<g>
				<path fill="#AB7C59" d="M816.79,257.55c0.068-0.245,1.635,0.279,4.109-0.03c2.425-0.262,5.823-1.691,7.694-4.961
					c1.509-2.519,1.831-5.584,1.129-7.513c-0.737-2.029-2.913-1.864-3.378-1.284l-0.279-0.375c0.513-0.143,0.771-0.172,0.808-0.095
					c0.032,0.077-0.163,0.25-0.613,0.534l-0.757,0.471l0.475-0.845c0.251-0.451,1.016-0.997,2.041-0.932
					c1.006-0.012,2.271,0.76,2.828,2.016c1.104,2.472,0.787,5.849-0.932,8.805c-2.167,3.788-6.273,5.29-8.938,5.26
					C818.214,258.643,816.707,257.691,816.79,257.55z"/>
			</g>
			<g>
				<path fill="#AB7C59" d="M831.017,248.967c-0.262,0.344-1.688-0.303-3.459,0.055c-1.782,0.274-2.896,1.375-3.262,1.146
					c-0.166-0.109-0.095-0.61,0.396-1.216c0.481-0.603,1.423-1.233,2.6-1.441c1.172-0.211,2.273,0.057,2.932,0.454
					C830.896,248.362,831.134,248.809,831.017,248.967z"/>
			</g>
			<path fill="#F0A67B" d="M755.232,280.149"/>
			<g>
				<path fill="#AB7C59" d="M778.425,299.65c0.205,0.356-1.157,1.456-3.224,1.727c-2.063,0.281-3.665-0.422-3.563-0.822
					c0.089-0.426,1.597-0.448,3.361-0.695C776.768,299.634,778.228,299.262,778.425,299.65z"/>
			</g>
			<path fill="#FFFFFF" d="M774.396,245.647c0,0-1.774-10.391,9.334-13.04c9.328-2.229,12.673,8.238,12.673,8.238L774.396,245.647z"
				/>
			<path fill="#3C2713" d="M782.654,232.908l4.104,10.044l-12.363,2.695C774.396,245.647,773.06,235.29,782.654,232.908z"/>
			<path fill="#FFFFFF" d="M733.275,242.22c0,0,2.93-10.13,14.08-7.677c9.369,2.059,7.819,12.938,7.819,12.938L733.275,242.22z"/>
			<path fill="#3C2713" d="M746.26,234.348l-0.681,10.826l-12.304-2.954C733.275,242.22,736.585,232.313,746.26,234.348z"/>
			<path fill="#3C2713" d="M725.901,254.547c0,0,2.629,63.814,41.26,64.591c38.624,0.778,45.146-48.496,45.146-48.496l4.482-30.186
				l-9.303,2.496c0,0-10.15,23.515-42.267,24.307C729.685,268.136,725.901,254.547,725.901,254.547z"/>
			<g>
				<path fill="#AB7C59" d="M765.222,264.598c0,0.139-1.602,0.318-4.317-0.063c-2.691-0.382-6.525-1.431-10.437-3.866l-1.293-0.81
					l1.469-0.464c2.804-0.892,5.783-1.839,8.91-2.83c0.8-0.25,1.594-0.496,2.376-0.737c0.351-0.142,0.337-0.162,0.358-0.234
					c0.039-0.121-0.026-0.543-0.086-0.938c-0.23-1.571-0.492-3.081-0.769-4.514c-0.562-2.863-1.187-5.421-1.764-7.558
					c-1.166-4.269-2.076-6.87-1.861-6.956c0.18-0.07,1.452,2.396,2.897,6.64c0.722,2.122,1.465,4.688,2.111,7.586
					c0.317,1.447,0.613,2.979,0.869,4.573c0.04,0.392,0.19,0.777,0.086,1.465c-0.11,0.775-0.919,1.271-1.338,1.374
					c-0.799,0.252-1.606,0.506-2.428,0.763c-3.137,0.955-6.133,1.867-8.944,2.721l0.176-1.272
					C758.659,264.305,765.336,264.176,765.222,264.598z"/>
			</g>
			<g>
				<path fill="#3C2713" d="M797.565,226.301c-0.758,1.988-5.533,2.011-10.805,0.468c-5.266-1.556-9.271-4.163-8.829-6.244
					c0.435-2.062,5.41-2.765,10.997-1.116C794.514,221.047,798.317,224.33,797.565,226.301z"/>
			</g>
			<g>
				<path fill="#3C2713" d="M732.059,226.301c0.757,1.988,5.532,2.011,10.804,0.468c5.266-1.556,9.27-4.163,8.829-6.244
					c-0.436-2.062-5.409-2.765-10.997-1.116C735.109,221.047,731.306,224.33,732.059,226.301z"/>
			</g>
			<path fill="#FFFFFF" d="M755.232,276.165c4.953,1.937,10.523,2.264,15.671,0.92c5.146-1.345,9.848-4.351,13.223-8.461"/>
			<g>
				<path fill="#3C2713" d="M741.812,298.313c0.27,0.327-1.188,1.96-3.255,3.648c-2.067,1.691-3.958,2.794-4.228,2.467
					c-0.266-0.327,1.188-1.963,3.258-3.652C739.653,299.087,741.545,297.986,741.812,298.313z"/>
			</g>
			<g>
				<path fill="#3C2713" d="M742.404,302.242c0.339,0.255-0.319,1.701-1.468,3.235c-1.148,1.53-2.354,2.567-2.695,2.313
					c-0.34-0.256,0.317-1.703,1.471-3.235C740.858,303.024,742.064,301.988,742.404,302.242z"/>
			</g>
			<g>
				<path fill="#3C2713" d="M812.021,283.157c-0.194,0.377-1.66,0.004-3.274-0.836c-1.609-0.837-2.758-1.819-2.564-2.195
					c0.196-0.376,1.662-0.002,3.274,0.836C811.065,281.799,812.216,282.779,812.021,283.157z"/>
			</g>
			<g>
				<path fill="#3C2713" d="M815.661,282.259c-0.17,0.375-2.335-0.269-4.493-1.947c-2.168-1.669-3.338-3.6-3.021-3.858
					c0.334-0.28,1.932,1.092,3.957,2.646C814.117,280.664,815.85,281.867,815.661,282.259z"/>
			</g>
			<g>
				<path fill="#3C2713" d="M800.634,166.528c0.063,0.062-0.208,0.561-1.027,1.195c-0.412,0.288-0.988,0.688-1.892,0.642
					c-0.926-0.008-1.85-1.066-1.723-2.187c0.018-1.143,1.013-2.186,2.089-2.575c1.068-0.438,2.34-0.567,3.606-0.288
					c1.242,0.265,2.649,1.013,3.308,2.495c0.655,1.491,0.151,3.199-0.639,4.381c-3.408,4.602-8.148,6.722-11.579,7.602
					c-3.484,0.86-5.722,0.521-5.707,0.362c-0.015-0.262,2.165-0.32,5.402-1.403c3.156-1.049,7.612-3.354,10.589-7.386
					c0.654-1.004,0.919-2.096,0.55-2.973c-0.354-0.865-1.278-1.466-2.247-1.703c-1.912-0.513-4.197,0.262-4.289,1.581
					c-0.103,0.659,0.267,1.149,0.76,1.245c0.496,0.103,1.057-0.106,1.46-0.305C800.122,166.795,800.552,166.44,800.634,166.528z"/>
			</g>
			<g>
				<path fill="#3C2713" d="M715.456,203.09c0.081-0.086,0.467,0.374,1.26,0.173c0.383-0.105,0.758-0.38,0.871-0.881
					c0.123-0.485-0.027-1.159-0.49-1.602c-0.824-0.914-3.425-1.179-3.986,0.334c-0.299,0.732-0.127,1.819,0.394,2.659
					c0.542,0.871,1.428,1.596,2.469,2.045c2.113,0.902,4.561,0.695,6.42-0.072c1.914-0.794,3.396-2.083,4.54-3.229
					c2.258-2.365,3.421-4.123,3.627-3.979c0.145,0.09-0.666,2.029-2.823,4.709c-1.103,1.301-2.615,2.802-4.777,3.794
					c-2.159,0.969-4.963,1.29-7.594,0.186c-1.296-0.562-2.438-1.484-3.149-2.678c-0.689-1.211-0.963-2.656-0.405-3.993
					c0.592-1.406,2.165-1.897,3.241-1.791c1.121,0.066,2.176,0.504,2.851,1.286c0.682,0.799,0.796,1.829,0.502,2.599
					c-0.287,0.807-1.067,1.193-1.598,1.201C715.629,203.888,715.347,203.078,715.456,203.09z"/>
			</g>
			<g>
				<path fill="#583B23" d="M764.017,287.621c-0.029-0.092,1.012-0.608,3.013-1.272c1.992-0.613,5.024-1.498,8.896-1.102
					c1.914,0.208,4.036,0.862,5.944,2.165c1.896,1.278,3.689,3.252,4.391,5.872c0.753,2.612,0.054,5.64-1.666,7.942
					c-1.683,2.354-4.506,3.974-7.502,4.361c-3.012,0.403-5.995-0.183-8.531-1.505c-2.488-1.267-4.698-3.833-4.465-6.771
					c0.234-2.854,2.225-4.949,4.326-5.979c2.172-1.045,4.578-0.983,6.423-0.07c1.889,0.921,2.875,2.84,2.85,4.465
					c0.028,1.688-1.091,2.965-2.123,3.37c-1.036,0.47-1.976,0.371-2.509,0.154c-0.545-0.222-0.739-0.473-0.715-0.502
					c0.011-0.153,1.163,0.769,2.954-0.185c0.852-0.446,1.623-1.474,1.534-2.822c-0.06-1.318-0.918-2.828-2.463-3.506
					c-1.519-0.694-3.619-0.688-5.384,0.234c-1.761,0.896-3.362,2.759-3.479,4.927c-0.158,2.172,1.531,4.229,3.758,5.358
					c2.226,1.146,4.961,1.673,7.607,1.311c5.396-0.538,9.272-5.987,8.013-10.428c-0.545-2.203-2.06-3.989-3.744-5.185
					c-1.705-1.225-3.587-1.876-5.361-2.134c-3.594-0.513-6.589,0.164-8.595,0.601C765.17,287.399,764.053,287.73,764.017,287.621z"
					/>
			</g>
			<g>
				<path fill="#583B23" d="M769.212,166.72c-0.026-0.025,0.119-0.274,0.617-0.448c0.48-0.154,1.348-0.141,2.139,0.508
					c0.844,0.61,1.207,2.124,0.583,3.42c-0.558,1.347-2.078,2.349-3.729,2.683c-1.659,0.352-3.481,0.408-5.43,0.135
					c-1.892-0.365-4.057-0.688-5.866-2.484c-0.896-0.912-1.238-2.455-0.842-3.706c0.344-1.272,1.243-2.347,2.27-3.072
					c2.094-1.394,4.352-2.232,6.847-2.831c2.481-0.552,5.079-0.574,7.448,0.154c2.354,0.756,4.376,2.219,5.677,4.107
					c1.325,1.869,1.796,4.219,1.405,6.211c-0.365,2.005-1.316,3.66-2.365,4.949c-2.18,2.575-4.598,3.796-6.171,4.641
					c-1.614,0.81-2.541,1.169-2.59,1.079c-0.055-0.1,0.786-0.638,2.29-1.597c1.465-0.983,3.733-2.347,5.611-4.793
					c0.919-1.223,1.708-2.755,1.965-4.481c0.28-1.725-0.147-3.61-1.302-5.194c-1.132-1.59-2.925-2.853-4.965-3.484
					c-2.06-0.615-4.392-0.604-6.675-0.092c-2.254,0.521-4.552,1.396-6.297,2.554c-1.734,1.111-2.472,3.356-1.252,4.622
					c1.2,1.298,3.283,1.815,5.012,2.161c1.776,0.311,3.521,0.312,5.01,0.06c1.484-0.249,2.663-0.971,3.175-1.992
					c0.544-1.002,0.37-2.075-0.209-2.604C770.302,166.049,769.194,166.841,769.212,166.72z"/>
			</g>
			<path fill="#D1966C" d="M757.354,324.439c0,0,20.389,24.662,21.094,33.177c1.396,16.879,33.695-33.577,33.695-33.577
				L757.354,324.439z"/>
			<g>
				<path fill="#583B23" d="M778.353,347.788c-0.013-0.036,0.423-0.255,1.265-0.535c0.84-0.256,2.112-0.628,3.737-0.463
					c0.807,0.09,1.696,0.362,2.498,0.91c0.8,0.538,1.552,1.367,1.845,2.469c0.317,1.1,0.022,2.371-0.697,3.338
					c-0.708,0.989-1.896,1.669-3.153,1.834c-1.265,0.17-2.519-0.077-3.585-0.634c-1.045-0.532-1.974-1.609-1.875-2.844
					c0.099-1.199,0.934-2.081,1.816-2.513c0.913-0.44,1.924-0.415,2.698-0.032c0.795,0.388,1.209,1.196,1.197,1.877
					c0.013,0.711-0.457,1.246-0.892,1.418c-0.438,0.196-0.831,0.156-1.052,0.062c-0.23-0.092-0.313-0.196-0.304-0.21
					c0.005-0.064,0.488,0.323,1.243-0.077c0.356-0.188,0.682-0.62,0.644-1.188c-0.026-0.553-0.387-1.188-1.034-1.47
					c-0.64-0.291-1.521-0.288-2.263,0.097c-0.739,0.379-1.416,1.16-1.462,2.07c-0.066,0.914,0.644,1.777,1.577,2.253
					c0.936,0.479,2.086,0.702,3.197,0.548c2.267-0.224,3.896-2.514,3.367-4.381c-0.229-0.926-0.865-1.675-1.573-2.178
					c-0.715-0.516-1.507-0.787-2.25-0.898c-1.513-0.213-2.773,0.071-3.614,0.254C778.837,347.696,778.366,347.836,778.353,347.788z"
					/>
			</g>
			<g>
				<path fill="#979696" d="M778.353,361.014c-0.762-1.871-1.635-3.697-2.688-5.405c-1.064-1.682-2.253-3.358-3.865-4.443
					c-0.396-0.271-0.828-0.479-1.27-0.625c-0.441-0.161-0.89-0.182-1.41-0.224c-0.501-0.021-0.955-0.029-1.449,0.012
					c-0.486,0.02-0.972,0.09-1.453,0.171c-0.962,0.17-1.906,0.451-2.815,0.818c-0.902,0.367-1.808,0.819-2.59,1.342l-0.639,0.425
					l-0.111-0.756c-0.321-2.157-0.591-4.322-0.863-6.486l-0.818-6.493l-0.723-6.507l-0.32-3.258
					c-0.107-1.087-0.209-2.174-0.294-3.263c0.206,1.073,0.396,2.147,0.58,3.224l0.553,3.229l1.024,6.465l0.93,6.479
					c0.31,2.159,0.623,4.318,0.884,6.484l-0.75-0.33c0.907-0.585,1.829-1.021,2.803-1.403c0.969-0.374,1.976-0.657,3.006-0.824
					c0.515-0.079,1.033-0.147,1.557-0.16c0.512-0.035,1.072,0.009,1.577,0.054c0.479,0.062,1.052,0.114,1.56,0.32
					c0.512,0.188,0.988,0.445,1.414,0.759c0.863,0.616,1.568,1.392,2.195,2.204c0.626,0.816,1.168,1.686,1.646,2.587
					C776.974,357.202,777.763,359.078,778.353,361.014z"/>
			</g>
			<g>
				<path fill="#979696" d="M783.089,362.949c1.317-2.534,2.828-4.973,4.549-7.269c0.869-1.141,1.789-2.255,2.857-3.236
					c0.534-0.49,1.102-0.954,1.729-1.344c0.626-0.388,1.317-0.719,2.094-0.828c0.768-0.122,1.616,0.06,2.266,0.515l0.871,0.649
					c0.283,0.225,0.557,0.479,0.836,0.72c0.536,0.499,1.051,1.008,1.528,1.555c0.491,0.532,0.94,1.102,1.388,1.668
					c0.889,1.142,1.681,2.351,2.43,3.58c0.746,1.234,1.438,2.489,2.071,3.801l-0.854,0.108l1.687-9.39l1.764-9.374l0.861-4.687
					c0.278-1.564,0.604-3.122,0.904-4.684l0.924-4.679c0.312-1.56,0.606-3.12,0.945-4.678c-0.158,1.584-0.36,3.162-0.548,4.744
					c-0.172,1.585-0.446,3.149-0.668,4.727c-0.238,1.571-0.453,3.147-0.714,4.717c-0.255,1.563-0.513,3.145-0.802,4.706
					l-1.693,9.387l-1.771,9.371l-0.256,1.354l-0.6-1.246c-1.214-2.533-2.664-4.999-4.338-7.265
					c-0.422-0.562-0.847-1.128-1.312-1.653c-0.449-0.54-0.941-1.049-1.438-1.531c-0.258-0.231-0.499-0.473-0.771-0.697l-0.83-0.65
					c-0.52-0.378-1.157-0.533-1.805-0.45c-0.646,0.073-1.283,0.352-1.876,0.698c-0.594,0.351-1.147,0.78-1.676,1.242
					c-1.053,0.933-2.017,1.979-2.916,3.078C786.136,358.116,784.548,360.497,783.089,362.949z"/>
			</g>
		</g>
		<g>
			<path fill="#F7E2C0" d="M820.402,204.225c-0.854,0.195-1.709,0.398-2.563,0.604c1.918-12.734-1.7-26.48-8.196-37.815
				c-3.12-5.438-7.298-10.807-13.085-12.164c-5.538-1.302-10.78-1.193-16.094-2.129c-7.743-1.364-11.122,0.079-18.141-1.185
				c-6.78-1.217-12.283,2.938-17.062,7.543c-10.202,9.832-19.96,23.132-22.976,37.279c-0.033,0.155-0.028,0.299-0.01,0.437
				c-0.274,0.194-0.281,0.672,0.122,0.966c7.644,5.534,17.178,8.551,25.131,11.848c7.974,3.298,15.838,5.373,23.918,6.077
				c16.36,1.426,34.097-2.913,49.371-8.636C822.443,206.438,822.092,203.837,820.402,204.225z"/>
			<path fill="#7B5340" d="M771.403,203.358c-9.363-0.173-18.854-2.191-27.989-4.202c-5.251-1.156-15.292-4.308-20.296-6.091
				c-2.77,5.01-0.291,1.23-0.833,3.293c-0.041,0.153-0.028,0.299-0.01,0.437c-0.274,0.194-0.281,0.672,0.122,0.966
				c7.644,5.534,17.178,8.551,25.131,11.848c3.203,1.323,6.387,2.439,9.573,3.362c1.767,0.021,3.523,0.014,5.265-0.026
				c8.863-0.198,17.713-1.191,26.54-1.974c8.318-0.741,17.063-0.811,25.133-3.148c2.614-0.758,4.956-1.999,6.984-3.593
				c-0.182-0.049-0.387-0.06-0.622-0.004c-0.854,0.195-1.826,4.221-2.68,4.427c0.755-5.016,0.771,1.343,0.624-8.263
				C803.913,204.94,786.637,203.644,771.403,203.358z"/>
			<path opacity="0.5" fill="#F6DEBB" enable-background="new    " d="M820.402,204.225c-0.854,0.195-1.709,0.398-2.563,0.604
				c1.918-12.734-1.7-26.48-8.196-37.815c-3.12-5.438-7.298-10.807-13.085-12.164c-5.538-1.302-10.7-2.196-16.094-2.129
				c-7.078,0.089-11.122,0.079-18.141-1.185c-6.78-1.217-12.283,2.938-17.062,7.543c-10.202,9.832-19.96,23.132-22.976,37.279
				c-0.033,0.155-0.028,0.299-0.01,0.437c-0.274,0.194-0.281,0.672,0.122,0.966c7.644,5.534,17.178,8.551,25.131,11.848
				c7.974,3.298,15.838,5.373,23.918,6.077c16.36,1.426,34.097-2.913,49.371-8.636C822.443,206.438,822.092,203.837,820.402,204.225
				z"/>
			<path fill="#F7E2C0" d="M871.977,205.8c-4.427-3.925-9.564-5.921-14.968-6.597c-5.039-0.85-10.405-0.603-15.28-0.284
				c-8.021,0.523-15.988,1.985-23.929,3.214c-16.063,2.486-32.144,3.225-48.338,1.853c-15.954-1.354-31.676-4.994-46.848-10.257
				c-12.325-4.273-27.427-10.897-40.419-5.703c-0.38,0.297-0.789,0.641-1.215,0.925c-0.943,0.783-1.747,1.879-2.336,3.395
				c-0.355,0.913,0.921,1.269,1.396,0.615c3.984-5.479,10.63-1.733,15.172,0.437c3.864,1.847,7.659,3.855,11.426,5.916
				c7.08,3.866,14.042,7.967,21.143,11.802c14.214,7.672,29.119,13.452,45.234,14.188c17.217,0.789,32.542-5.426,47.812-12.961
				c15.896-7.846,33.321-14.167,50.12-5.142C871.765,207.64,872.748,206.486,871.977,205.8z"/>
			<path opacity="0.5" fill="#F6DEBB" enable-background="new    " d="M857.009,199.203c-5.039-0.85-10.405-0.603-15.28-0.284
				c-8.021,0.523-15.988,1.985-23.929,3.214c-16.063,2.486-32.144,3.225-48.338,1.853c-15.954-1.354-31.676-4.994-46.848-10.257
				c-11.79-4.09-26.123-10.319-38.719-6.306c9.319,0.452,17.559,2.475,26.067,6.655c8.333,4.096,16.007,9.433,24.198,13.797
				c15.52,8.271,34.101,12.431,51.667,11.224c1.14-0.079,1.913-1.824,0.646-2.388c-3.872-1.713-7.788-3.39-11.734-5.005
				c12.216,0.568,25.006-2.211,36.349-4.904c12.065-2.864,24.077-6.052,36.524-6.598c7.033-0.31,13.549,0.561,19.879,2.406
				C864.209,200.747,860.673,199.662,857.009,199.203z"/>
		</g>
		<g>
			<path fill="#7B5340" d="M817.934,195.547c0,0-1.445,0.126-3.982,0.259c-1.269,0.08-2.811,0.13-4.577,0.211
				c-1.769,0.042-3.763,0.136-5.94,0.142c-2.178,0.031-4.536,0.046-7.032,0.014c-2.495,0.006-5.125-0.093-7.848-0.156
				c-2.721-0.088-5.53-0.236-8.386-0.381c-2.85-0.222-5.752-0.357-8.642-0.652c-2.89-0.299-5.784-0.538-8.614-0.942
				c-2.837-0.36-5.629-0.71-8.312-1.185c-2.688-0.432-5.287-0.844-7.728-1.374c-2.442-0.516-4.772-0.902-6.878-1.468
				c-2.113-0.524-4.051-1.004-5.77-1.432c-1.703-0.476-3.173-0.946-4.392-1.307c-2.432-0.733-3.821-1.153-3.821-1.153
				s1.395,0.404,3.833,1.113c1.223,0.347,2.695,0.802,4.403,1.26c1.72,0.413,3.659,0.879,5.776,1.387
				c2.104,0.559,4.436,0.937,6.877,1.441c2.438,0.521,5.039,0.925,7.727,1.345c2.683,0.465,5.474,0.804,8.308,1.153
				c2.829,0.395,5.725,0.621,8.61,0.911c2.887,0.306,5.785,0.453,8.633,0.684c2.853,0.154,5.66,0.313,8.379,0.411
				c2.72,0.074,5.349,0.181,7.843,0.186c2.494,0.041,4.852,0.035,7.028,0.012c2.178-0.003,4.171-0.074,5.939-0.096
				c1.768-0.063,3.311-0.098,4.578-0.163C816.485,195.658,817.934,195.547,817.934,195.547z"/>
		</g>
		<g>
			<path fill="#7B5340" d="M816.457,183.641c0,0-1.319,0.212-3.642,0.479c-1.16,0.152-2.574,0.279-4.193,0.456
				c-1.623,0.135-3.451,0.328-5.451,0.444c-2,0.135-4.168,0.271-6.464,0.35c-2.294,0.122-4.716,0.146-7.222,0.193
				c-2.506,0.042-5.097-0.021-7.728-0.035c-2.628-0.119-5.303-0.154-7.97-0.346c-2.664-0.222-5.337-0.343-7.948-0.685
				c-2.615-0.295-5.191-0.553-7.663-0.982c-2.477-0.386-4.876-0.729-7.118-1.238c-1.125-0.231-2.219-0.456-3.276-0.674
				c-0.529-0.111-1.049-0.221-1.56-0.327c-0.505-0.133-1-0.264-1.483-0.391c-1.938-0.516-3.713-0.986-5.287-1.404
				c-1.56-0.474-2.896-0.958-4.006-1.32c-2.217-0.744-3.482-1.17-3.482-1.17s1.271,0.411,3.495,1.13
				c1.115,0.35,2.456,0.819,4.019,1.273c1.575,0.403,3.354,0.86,5.295,1.359c0.483,0.125,0.979,0.254,1.482,0.386
				c0.51,0.104,1.03,0.212,1.56,0.319c1.059,0.213,2.151,0.435,3.276,0.66c2.242,0.5,4.639,0.835,7.115,1.209
				c2.469,0.421,5.045,0.667,7.658,0.952c2.606,0.331,5.278,0.44,7.939,0.652c2.663,0.201,5.335,0.247,7.96,0.377
				c2.63,0.024,5.216,0.098,7.72,0.063c2.504-0.038,4.925-0.052,7.218-0.164c2.294-0.069,4.461-0.196,6.46-0.323
				c2-0.114,3.829-0.284,5.453-0.399c1.619-0.158,3.035-0.271,4.195-0.408C815.136,183.837,816.457,183.641,816.457,183.641z"/>
		</g>
		<g>
			<path fill="#7B5340" d="M813.66,174.071c0,0-4.756,0.35-11.906,0.432c-3.574,0.028-7.746,0.027-12.213-0.118
				c-2.235-0.038-4.54-0.186-6.884-0.279c-2.344-0.13-4.723-0.301-7.1-0.47c-2.372-0.242-4.749-0.427-7.078-0.715
				c-2.324-0.312-4.628-0.524-6.83-0.904c-2.203-0.373-4.353-0.627-6.355-1.062c-2.006-0.41-3.918-0.731-5.656-1.146
				c-1.736-0.427-3.329-0.815-4.739-1.161c-1.41-0.349-2.607-0.769-3.609-1.054c-1.996-0.604-3.136-0.95-3.136-0.95
				s1.145,0.331,3.146,0.91c1.006,0.271,2.207,0.678,3.621,1.007c1.412,0.332,3.006,0.707,4.745,1.116
				c1.739,0.406,3.651,0.721,5.657,1.121c2.004,0.425,4.15,0.668,6.354,1.031c2.203,0.37,4.504,0.571,6.828,0.874
				c2.328,0.278,4.704,0.449,7.074,0.684c2.375,0.18,4.75,0.359,7.09,0.501c2.342,0.104,4.645,0.262,6.878,0.31
				c4.464,0.165,8.633,0.186,12.206,0.172c3.572-0.028,6.551-0.078,8.635-0.157C812.471,174.145,813.66,174.071,813.66,174.071z"/>
		</g>
		<g>
			<path fill="#7B5340" d="M810.183,167.981c0,0-3.983-0.582-9.959-1.454c-5.975-0.876-13.946-2.008-21.932-3.038
				c-3.99-0.536-7.983-1.041-11.731-1.485c-3.747-0.439-7.251-0.798-10.257-1.069c-1.506-0.116-2.885-0.224-4.106-0.316
				c-1.226-0.055-2.293-0.103-3.172-0.142c-0.881-0.016-1.571,0.021-2.044,0.024c-0.473,0.011-0.724,0.016-0.724,0.016
				s0.251-0.01,0.724-0.025c0.472-0.01,1.162-0.059,2.044-0.057c0.881,0.024,1.95,0.058,3.178,0.094
				c1.224,0.081,2.604,0.172,4.112,0.271c3.009,0.257,6.517,0.597,10.269,1.018c3.75,0.426,7.748,0.908,11.741,1.426
				c7.98,1.071,15.947,2.245,21.919,3.152C806.212,167.313,810.183,167.981,810.183,167.981z"/>
		</g>
		<path fill="#7B5340" d="M777.899,196.702c1.485,0.235,0,6.013,0,6.013s-16.435-0.154-19.478-1.676
			c-3.046-1.522,1.086-6.525,1.086-6.525S774.21,196.12,777.899,196.702z"/>
		<path fill="#7B5340" d="M780.376,186.47c0,0,2.414,6.486-0.32,6.938c-2.729,0.454-18.629-0.021-20.151-2.068
			c-1.521-2.045-2.154-4.994,1.543-5.302C765.143,185.732,780.376,186.47,780.376,186.47z"/>
		<path fill="#7B5340" d="M781.724,175.812c0,0,1.688,5.713-1.26,7.493c-2.949,1.775-17.69,0.257-19.647-1.226
			c-1.958-1.485-0.438-8.118,1.521-7.63C764.295,174.939,777.823,174.45,781.724,175.812z"/>
		<path fill="#7B5340" d="M780.546,165.371c0,0,5.991,7.396,1.178,7.396c-4.815,0-19.387-0.74-19.17-2.222
			c0.22-1.478-3.478-6.7,1.463-7.527C768.955,162.188,778.529,164.719,780.546,165.371z"/>
		<path fill="#7B5340" d="M816.79,196.702v2.734c0,0-9.868,2.905-10.629,2.253c-0.764-0.65-0.864-4.987-0.864-4.987
			S815.35,195.632,816.79,196.702z"/>
		<path fill="#7B5340" d="M815.675,185.493l0.782,7.572c0,0-7.914,2.1-10.356,1.447c-2.443-0.65-1.772-8.039-0.804-8.043
			C806.268,186.467,815.675,185.493,815.675,185.493z"/>
		<path fill="#7B5340" d="M813.66,182.08c0,0-7.827,3.521-9.24,1.562c-1.413-1.958-3.153-7.612-1.198-7.612
			c1.958,0,8.812-1.632,9.354-0.869C813.119,175.92,815.264,181.421,813.66,182.08z"/>
		<path fill="#7B5340" d="M809.421,169.018c0,0,2.501,2.985,2.066,3.749c-0.437,0.759-8.819,1.305-9.139,0.434
			c-0.32-0.87,0-5.393,0-5.393S807.899,168.205,809.421,169.018z"/>
		<path fill="#7B5340" d="M726.256,187.458c0,0,3.462,0.671,5.708,1.616c2.245,0.945,1.667,5.691,0,5.565
			c-1.67-0.127-7.468-2.304-7.468-2.304S724.394,189.101,726.256,187.458z"/>
		<path fill="#7B5340" d="M730.964,178.354c0,0-4.564,5.621-3.34,7.139c1.223,1.519,7.745,1.965,7.745,1.965
			s4.642-3.973,2.175-6.216C735.079,178.999,730.964,178.354,730.964,178.354z"/>
		<path fill="#7B5340" d="M738.267,167.981c0,0-6.22,6.207-4.992,7.454c1.227,1.244,8.568,2.919,8.568,2.919
			s4.663-5.335,2.431-7.059C742.038,169.576,738.267,167.981,738.267,167.981z"/>
		<path fill="#7B5340" d="M744.878,160.516c0,0-5.354,4.854-5.111,4.999c0.243,0.146,7.491,3.569,8.219,2.293
			c0.725-1.277,4.057-3.997,1.882-4.957C747.692,161.892,744.878,160.516,744.878,160.516z"/>
		<path fill="none" stroke="#7B5340" stroke-miterlimit="10" d="M689.939,191.687"/>
		<g>
			<g>
				<path fill="#7B5340" d="M692.493,191.34c0,0-0.445,0.679-0.783,2.012c-0.157,0.665-0.287,1.494-0.22,2.438
					c0.01,0.95,0.315,1.982,0.696,3.066c0.482,1.052,1.104,2.148,1.979,3.155c0.443,0.496,0.865,1.034,1.408,1.484
					c0.526,0.462,1.012,0.991,1.615,1.411c0.59,0.431,1.143,0.93,1.785,1.325c0.637,0.406,1.278,0.815,1.928,1.23
					c1.373,0.725,2.768,1.458,4.161,2.193c1.371,0.815,2.843,1.332,4.245,1.981c0.708,0.305,1.404,0.623,2.104,0.909
					c0.717,0.253,1.424,0.502,2.121,0.746c1.393,0.486,2.727,1.002,4.035,1.354c1.303,0.37,2.518,0.792,3.677,1.034
					c1.154,0.255,2.2,0.562,3.146,0.743c0.943,0.187,1.767,0.367,2.447,0.482c0.685,0.113,1.22,0.202,1.586,0.263
					c0.369,0.052,0.564,0.077,0.564,0.077s-0.792-0.02-2.176-0.146c-0.691-0.066-1.525-0.19-2.488-0.31
					c-0.963-0.113-2.031-0.344-3.203-0.562c-1.18-0.193-2.42-0.564-3.75-0.881c-1.338-0.299-2.711-0.746-4.123-1.234
					c-0.707-0.238-1.428-0.48-2.156-0.725c-0.717-0.281-1.433-0.598-2.16-0.898c-1.435-0.638-2.975-1.162-4.341-1.954
					c-1.396-0.763-2.794-1.524-4.169-2.274c-0.659-0.436-1.312-0.866-1.959-1.292c-0.652-0.415-1.223-0.939-1.824-1.395
					c-0.608-0.444-1.123-0.991-1.643-1.501c-0.539-0.49-0.962-1.075-1.4-1.614c-0.866-1.09-1.479-2.275-1.934-3.403
					c-0.369-1.162-0.605-2.271-0.545-3.263c0-0.986,0.195-1.832,0.404-2.498c0.215-0.669,0.47-1.157,0.657-1.479
					C692.37,191.495,692.493,191.34,692.493,191.34z"/>
			</g>
			<g>
				<path fill="#7B5340" d="M704.237,214.823c0,0-2.104-0.744-5.187-2.051c-3.062-1.338-7.149-3.169-10.905-5.615
					c-0.933-0.615-1.83-1.294-2.638-2.052c-0.79-0.754-1.547-1.63-1.805-2.684c-0.308-0.998-0.588-1.97-0.797-2.908
					c-0.244-0.932-0.388-1.827-0.563-2.646c-0.134-0.826-0.281-1.579-0.359-2.255c-0.093-0.674-0.166-1.262-0.218-1.747
					c-0.108-0.97-0.146-1.526-0.146-1.526s0.056,0.556,0.193,1.521c0.125,0.967,0.372,2.339,0.669,3.98
					c0.184,0.814,0.336,1.709,0.588,2.631c0.217,0.93,0.508,1.896,0.825,2.894c0.255,1.004,0.982,1.834,1.771,2.573
					c0.798,0.741,1.7,1.392,2.616,2.019c3.706,2.463,7.778,4.332,10.823,5.694C702.158,214.013,704.237,214.823,704.237,214.823z"/>
			</g>
			<polygon fill="#7B5340" points="689.939,191.687 689.264,193.408 688.396,192.048 			"/>
			<polygon fill="#7B5340" points="689.166,194.643 689.166,196.12 687.67,195.382 689.166,193.935 			"/>
			<polygon fill="#7B5340" points="689.166,196.979 689.548,198.789 688.103,197.884 			"/>
			<polygon fill="#7B5340" points="689.939,199.66 690.643,201.039 689.166,200.675 			"/>
			<polygon fill="#7B5340" points="691.294,201.907 692.382,203.226 690.643,203.647 			"/>
			<polygon fill="#7B5340" points="693.47,204.699 695.86,206.474 693.47,206.474 			"/>
			<polygon fill="#7B5340" points="696.731,207.489 699.34,209.229 697.094,209.229 			"/>
			<polygon fill="#7B5340" points="701.081,209.953 703.821,211.117 701.95,211.749 			"/>
			<polygon fill="#7B5340" points="705.449,212.03 708.399,213.441 706.3,213.441 			"/>
			<polygon fill="#7B5340" points="710.731,214.341 713.032,215.062 711.511,215.465 			"/>
			<polygon fill="#7B5340" points="681.074,192.546 681.29,194.643 680.421,193.935 			"/>
			<polygon fill="#7B5340" points="681.619,195.385 682.015,196.979 680.421,196.183 			"/>
			<polygon fill="#7B5340" points="682.015,197.884 682.595,199.952 680.854,199.226 			"/>
			<polygon fill="#7B5340" points="682.595,201.039 683.393,203.023 682.015,202.416 			"/>
			<polygon fill="#7B5340" points="683.896,204.055 685.35,205.587 683.896,205.746 			"/>
			<polygon fill="#7B5340" points="686.147,206.474 688.103,207.925 686.438,207.925 			"/>
			<polygon fill="#7B5340" points="689.166,208.358 691.946,209.953 689.905,209.953 			"/>
			<polygon fill="#7B5340" points="692.928,210.533 695.498,211.749 692.928,211.749 			"/>
			<polygon fill="#7B5340" points="697.238,212.347 698.688,212.98 697.238,213.152 			"/>
		</g>
		<g>
			<path fill="#7B5340" d="M869.779,204.055c0,0-0.696-0.315-2.065-0.734c-1.375-0.386-3.414-0.902-6.062-1.253
				c-2.646-0.334-5.885-0.625-9.604-0.552c-3.72-0.02-7.904,0.369-12.444,0.925c-4.522,0.685-9.405,1.562-14.481,2.878
				c-2.539,0.657-5.153,1.303-7.771,2.158c-1.313,0.403-2.645,0.812-3.986,1.226s-2.665,0.927-4.018,1.393
				c-2.692,0.955-5.438,1.934-8.226,2.877c-1.394,0.478-2.794,0.957-4.202,1.439c-1.408,0.479-2.875,0.807-4.32,1.218
				c-1.455,0.379-2.901,0.818-4.378,1.151c-1.485,0.29-2.977,0.58-4.47,0.871c-0.748,0.14-1.492,0.305-2.244,0.423l-2.272,0.263
				c-1.519,0.153-3.031,0.401-4.558,0.479c-6.1,0.4-12.26-0.046-18.121-1.4c-5.869-1.352-11.37-3.699-16.369-6.477
				c-2.52-1.354-4.934-2.813-7.45-3.913c-1.249-0.562-2.552-1.006-3.744-1.629c-1.216-0.592-2.355-1.278-3.485-1.945
				c-4.447-2.784-8.517-5.628-12.536-7.821c-4.003-2.209-7.848-3.934-11.392-5.062c-0.868-0.335-1.749-0.53-2.581-0.779
				c-0.839-0.222-1.634-0.494-2.424-0.649c-1.577-0.311-3.012-0.688-4.334-0.863c-1.322-0.188-2.502-0.354-3.528-0.497
				c-1.034-0.077-1.913-0.144-2.626-0.196c-1.428-0.103-2.188-0.156-2.188-0.156s0.762,0.053,2.188,0.15
				c0.713,0.052,1.593,0.115,2.627,0.189c1.027,0.143,2.209,0.306,3.531,0.487c1.324,0.175,2.759,0.548,4.338,0.854
				c0.791,0.154,1.586,0.424,2.427,0.644c0.833,0.247,1.715,0.44,2.585,0.773c3.549,1.121,7.402,2.837,11.415,5.038
				c4.028,2.185,8.11,5.021,12.56,7.79c1.13,0.663,2.27,1.346,3.477,1.93c1.194,0.619,2.483,1.055,3.746,1.618
				c2.534,1.1,4.952,2.555,7.474,3.898c5.001,2.762,10.488,5.087,16.339,6.419c5.845,1.335,11.98,1.762,18.061,1.35
				c1.521-0.072,3.029-0.315,4.543-0.464l2.268-0.257c0.75-0.115,1.494-0.278,2.24-0.416c1.49-0.286,2.979-0.572,4.461-0.857
				c1.475-0.328,2.918-0.763,4.369-1.137c1.443-0.408,2.906-0.729,4.316-1.205c1.407-0.479,2.811-0.956,4.203-1.43
				c2.793-0.938,5.53-1.903,8.231-2.854c1.354-0.462,2.68-0.974,4.023-1.383c1.346-0.409,2.677-0.814,3.993-1.216
				c2.621-0.852,5.24-1.489,7.781-2.141c5.084-1.303,9.976-2.17,14.502-2.844c4.544-0.545,8.731-0.921,12.453-0.894
				c3.721-0.064,6.961,0.234,9.606,0.575c2.647,0.358,4.687,0.881,6.062,1.27C869.083,203.737,869.779,204.055,869.779,204.055z"/>
		</g>
		<g>
			<path fill="#7B5340" d="M700.433,186.877c0,0,0.607,0.181,1.746,0.519c0.57,0.166,1.273,0.369,2.082,0.668
				c0.812,0.29,1.758,0.591,2.779,1.023c2.077,0.788,4.521,1.94,7.256,3.389c2.732,1.452,5.71,3.285,8.9,5.349
				c3.211,2.039,6.625,4.32,10.727,5.777c1.013,0.386,2.012,0.895,3.022,1.413c1.011,0.512,1.986,1.065,3,1.605
				c2.009,1.086,4.056,2.194,6.19,3.199c4.27,2,8.877,3.698,13.753,4.577c0.601,0.151,1.213,0.244,1.83,0.317l1.849,0.25
				l1.854,0.252c0.622,0.05,1.248,0.067,1.873,0.103c1.251,0.054,2.504,0.145,3.758,0.168l3.771-0.131l1.887-0.064l1.875-0.21
				c1.25-0.141,2.498-0.28,3.745-0.42c2.479-0.372,4.927-0.914,7.367-1.356c2.4-0.636,4.782-1.267,7.137-1.889
				c2.331-0.7,4.593-1.532,6.841-2.273c2.243-0.743,4.458-1.558,6.613-2.292c1.08-0.374,2.147-0.743,3.205-1.108
				c1.071-0.325,2.132-0.646,3.177-0.962c4.165-1.319,8.171-2.312,11.873-3.194c1.862-0.392,3.646-0.767,5.347-1.123
				c1.713-0.273,3.338-0.534,4.864-0.779c1.526-0.241,2.972-0.355,4.3-0.521c1.326-0.173,2.552-0.255,3.66-0.319
				c1.107-0.066,2.094-0.147,2.955-0.183c0.861-0.015,1.594-0.026,2.188-0.037c1.188-0.02,1.821-0.03,1.821-0.03
				s-0.633,0.026-1.818,0.074c-0.595,0.024-1.324,0.056-2.186,0.09c-0.859,0.056-1.843,0.159-2.946,0.255
				c-1.104,0.091-2.323,0.2-3.645,0.405c-1.32,0.197-2.757,0.347-4.273,0.624c-1.516,0.28-3.129,0.579-4.829,0.895
				c-1.687,0.382-3.459,0.781-5.31,1.199c-3.676,0.93-7.655,1.975-11.775,3.342c-1.034,0.328-2.084,0.66-3.145,0.997
				c-1.051,0.38-2.114,0.764-3.189,1.151c-2.157,0.781-4.332,1.567-6.594,2.335c-2.258,0.757-4.531,1.604-6.876,2.32
				c-2.37,0.637-4.762,1.31-7.187,1.935c-2.464,0.46-4.931,1.019-7.437,1.405c-1.262,0.146-2.523,0.294-3.789,0.442l-1.897,0.221
				l-1.911,0.072l-3.824,0.115c-1.273-0.029-2.546-0.128-3.815-0.188c-0.635-0.038-1.27-0.06-1.9-0.112l-1.884-0.264l-1.877-0.264
				c-0.627-0.077-1.248-0.175-1.858-0.331c-4.952-0.917-9.634-2.665-13.944-4.709c-2.154-1.031-4.221-2.144-6.215-3.268
				c-0.998-0.55-1.979-1.125-2.956-1.636c-0.971-0.515-1.931-1.023-2.95-1.428c-4.117-1.526-7.593-3.908-10.752-5.979
				c-3.171-2.094-6.085-3.989-8.77-5.504c-2.688-1.506-5.094-2.713-7.146-3.547c-1.01-0.457-1.943-0.779-2.747-1.089
				c-0.8-0.317-1.499-0.538-2.064-0.718C701.035,187.071,700.433,186.877,700.433,186.877z"/>
		</g>
		<g>
			<path fill="#7B5340" d="M808.987,202.939c0,0-0.314,0.146-0.904,0.42c-0.598,0.263-1.439,0.7-2.576,1.159
				c-1.121,0.464-2.481,1.024-4.043,1.671c-1.57,0.627-3.305,1.399-5.33,1.974c-2.004,0.604-4.158,1.396-6.5,1.944
				c-1.174,0.265-2.381,0.538-3.613,0.815c-1.233,0.28-2.493,0.579-3.808,0.717c-2.613,0.331-5.308,0.809-8.096,0.812
				c-2.776,0.207-5.606-0.016-8.438-0.137c-1.403-0.201-2.809-0.403-4.207-0.604c-0.702-0.077-1.389-0.253-2.073-0.41
				c-0.687-0.157-1.369-0.314-2.052-0.473c-1.375-0.261-2.672-0.771-3.977-1.181c-1.313-0.39-2.545-0.948-3.775-1.44
				c-2.455-0.999-4.713-2.206-6.809-3.382c-2.101-1.175-4.008-2.371-5.772-3.434c-0.889-0.485-1.729-1.035-2.556-1.411
				c-0.846-0.412-1.648-0.804-2.402-1.171c-0.764-0.343-1.471-0.755-2.108-1.147c-0.652-0.373-1.208-0.755-1.711-1.101
				c-1.021-0.668-1.771-1.265-2.293-1.65c-0.521-0.39-0.8-0.598-0.8-0.598s0.31,0.16,0.886,0.46
				c0.574,0.304,1.424,0.741,2.507,1.271c0.539,0.271,1.137,0.572,1.798,0.839c0.656,0.28,1.342,0.607,2.158,0.864
				c0.801,0.284,1.651,0.587,2.551,0.906c0.939,0.312,1.809,0.797,2.784,1.219c1.857,0.919,3.871,1.915,6.001,2.969
				c2.119,1.02,4.373,2.024,6.748,2.913c1.195,0.424,2.389,0.916,3.654,1.235c0.625,0.179,1.254,0.359,1.887,0.541
				c0.623,0.209,1.27,0.349,1.92,0.483c0.646,0.141,1.298,0.28,1.951,0.424c0.651,0.142,1.303,0.301,1.973,0.363
				c1.331,0.177,2.668,0.353,4.004,0.528c2.695,0.145,5.391,0.398,8.062,0.229c0.666-0.017,1.33-0.031,1.991-0.049
				c0.662,0.014,1.318-0.042,1.972-0.113c1.307-0.125,2.598-0.247,3.867-0.367c1.275-0.075,2.508-0.346,3.727-0.528
				c1.219-0.194,2.41-0.387,3.57-0.573c1.172-0.144,2.26-0.489,3.344-0.708c1.082-0.238,2.126-0.472,3.129-0.693
				c2.014-0.398,3.843-0.974,5.47-1.417c1.63-0.444,3.051-0.832,4.221-1.151C807.652,203.31,808.987,202.939,808.987,202.939z"/>
		</g>
	</g>
	<g>
		<path fill="#FFFFFF" d="M61.808,46.679c0.061-1.979,0.091-4,0.091-6.068c0-3.173-0.07-6.459-0.212-9.857
			c1.725-0.181,3.248-0.271,4.57-0.271c2.078,0,3.641,0.226,4.69,0.677c1.624,0.7,2.436,2.132,2.436,4.298v0.372
			c-0.101,2.376-0.822,3.897-2.164,4.562c-1.342,0.665-2.996,1.021-4.963,1.064c-0.01,0.233-0.015,0.476-0.015,0.724
			c0,1.248,0.085,2.726,0.257,4.433L61.808,46.679z M65.682,33.369l0.105,5.517c1.876-0.075,2.976-0.575,3.299-1.5
			c0.151-0.422,0.227-0.854,0.227-1.298c0-0.52-0.101-1.053-0.303-1.602c-0.302-0.805-1.059-1.207-2.27-1.207
			C66.417,33.279,66.064,33.31,65.682,33.369z"/>
		<path fill="#FFFFFF" d="M80.722,35.106c3.318,0.136,4.978,1.38,4.978,3.732v8.009l-3.525,0.045l-0.121-1.071
			c-0.726,0.617-1.689,0.925-2.89,0.925c-0.515,0-1.069-0.06-1.664-0.18c-1.786-0.331-2.679-1.361-2.679-3.091
			c0-0.211,0.015-0.438,0.046-0.678c0.201-1.781,1.9-2.673,5.099-2.673c0.615,0,1.291,0.033,2.027,0.103v-1.31
			c0-1.061-0.448-1.591-1.347-1.591h-0.061c-0.07-0.007-0.136-0.011-0.196-0.011c-0.979,0-1.468,0.594-1.468,1.782v0.169
			l-3.602-0.227c0-2.624,1.695-3.937,5.084-3.937h0.319V35.106z M81.992,44.017v-1.985c-0.434-0.067-0.827-0.101-1.18-0.101
			c-0.918,0-1.544,0.229-1.876,0.688c-0.202,0.278-0.303,0.538-0.303,0.778c0,0.301,0.161,0.566,0.483,0.801
			c0.253,0.181,0.58,0.271,0.983,0.271C80.615,44.469,81.246,44.317,81.992,44.017z"/>
		<path fill="#FFFFFF" d="M90.935,38.93l0.151,8.178l-3.707,0.021c0-3.459-0.156-7.343-0.469-11.65l2.784-0.227l0.15,1.839
			c0.424-0.901,1.413-1.418,2.967-1.546c0.231-0.015,0.453-0.021,0.665-0.021c1.221,0,2.148,0.298,2.784,0.892
			c0.736,0.707,1.109,1.831,1.12,3.372l-3.359,0.248c0.01-0.128,0.015-0.252,0.015-0.372c0-1.203-0.418-1.805-1.256-1.805h-0.06
			C91.752,37.896,91.156,38.253,90.935,38.93z"/>
		<path fill="#FFFFFF" d="M104.25,35.106c3.318,0.136,4.978,1.38,4.978,3.732v8.009l-3.525,0.045l-0.121-1.071
			c-0.726,0.617-1.689,0.925-2.89,0.925c-0.515,0-1.069-0.06-1.664-0.18c-1.786-0.331-2.679-1.361-2.679-3.091
			c0-0.211,0.016-0.438,0.046-0.678c0.201-1.781,1.901-2.673,5.099-2.673c0.615,0,1.291,0.033,2.027,0.103v-1.31
			c0-1.061-0.448-1.591-1.346-1.591h-0.061c-0.071-0.007-0.137-0.011-0.197-0.011c-0.979,0-1.468,0.594-1.468,1.782v0.169
			l-3.601-0.227c0-2.624,1.694-3.937,5.084-3.937h0.318V35.106z M105.521,44.017v-1.985c-0.434-0.067-0.826-0.101-1.18-0.101
			c-0.918,0-1.543,0.229-1.876,0.688c-0.202,0.278-0.303,0.538-0.303,0.778c0,0.301,0.161,0.566,0.483,0.801
			c0.253,0.181,0.58,0.271,0.984,0.271C104.144,44.469,104.774,44.317,105.521,44.017z"/>
		<path fill="#FFFFFF" d="M118.609,31.835l3.435-0.169v3.733l2.89-0.058l0.046,2.133l-2.936,0.102v5.132
			c0,1.196,0.681,1.794,2.043,1.794c0.282,0,0.59-0.025,0.923-0.079l-0.137,2.481c-0.483,0.045-0.943,0.067-1.377,0.067
			c-3.188,0-4.812-1.227-4.872-3.678v-5.516l-2.481,0.113l-0.061-2.517l2.542,0.022L118.609,31.835z"/>
		<path fill="#FFFFFF" d="M131.152,35.434c3.501,0,5.251,1.732,5.251,5.198c0,0.423-0.025,0.873-0.076,1.354h-6.764
			c0,1.933,0.5,2.899,1.498,2.899h0.106c0.878-0.054,1.316-0.554,1.316-1.501c0-0.202-0.021-0.429-0.061-0.678l3.601-0.056
			c0,2.864-1.68,4.316-5.038,4.354c-0.04,0.009-0.075,0.013-0.106,0.013c-3.197,0-4.796-1.81-4.796-5.427v-0.338
			C126.185,37.373,127.874,35.434,131.152,35.434z M129.2,39.911h3.42V39.64c0-1.368-0.52-2.054-1.559-2.054
			C129.942,37.588,129.321,38.362,129.2,39.911z"/>
		<path fill="#FFFFFF" d="M140.322,35.141l0.151,1.838c0.424-0.979,1.538-1.475,3.344-1.488h0.061c1.775,0,2.985,0.52,3.631,1.556
			c0.444,0.707,0.666,2.361,0.666,4.964c0,1.277-0.056,2.789-0.166,4.533h-3.662c0.131-2.322,0.197-4.124,0.197-5.401
			c0-0.64-0.016-1.15-0.046-1.534c-0.101-1.128-0.585-1.691-1.452-1.691c-0.868,0-1.413,0.302-1.635,0.902l0.151,8.177l-3.556,0.023
			c0-3.459-0.156-7.343-0.469-11.651L140.322,35.141z"/>
		<path fill="#FFFFFF" d="M154.349,35.434c3.5,0,5.25,1.732,5.25,5.198c0,0.423-0.025,0.873-0.076,1.354h-6.763
			c0,1.933,0.499,2.899,1.497,2.899h0.106c0.878-0.054,1.316-0.554,1.316-1.501c0-0.202-0.021-0.429-0.061-0.678l3.602-0.056
			c0,2.864-1.68,4.316-5.039,4.354c-0.04,0.009-0.075,0.013-0.105,0.013c-3.198,0-4.797-1.81-4.797-5.427v-0.338
			C149.38,37.373,151.069,35.434,154.349,35.434z M152.396,39.911h3.419V39.64c0-1.368-0.52-2.054-1.559-2.054
			C153.138,37.588,152.518,38.362,152.396,39.911z"/>
		<path fill="#FFFFFF" d="M164.759,38.93l0.15,8.178l-3.707,0.021c0-3.459-0.156-7.343-0.469-11.65l2.784-0.227l0.151,1.839
			c0.424-0.901,1.412-1.418,2.966-1.546c0.231-0.015,0.454-0.021,0.665-0.021c1.221,0,2.148,0.298,2.784,0.892
			c0.736,0.707,1.11,1.831,1.12,3.372l-3.359,0.248c0.01-0.128,0.016-0.252,0.016-0.372c0-1.203-0.419-1.805-1.256-1.805h-0.061
			C165.575,37.896,164.979,38.253,164.759,38.93z"/>
		<path fill="#FFFFFF" d="M177.952,51.518c0.061-2.534,0.091-5.229,0.091-8.087c0-2.603-0.025-5.331-0.075-8.188l3.586-0.012
			l0.121,1.737c0.746-0.844,1.74-1.265,2.98-1.265c3.097,0,4.646,1.823,4.646,5.471V41.4c-0.071,3.654-1.614,5.48-4.63,5.48
			c-0.121,0-0.242-0.004-0.363-0.012c-1.029-0.037-1.861-0.454-2.497-1.252c0,1.67,0.056,3.636,0.167,5.899h-4.026V51.518z
			 M181.735,39.279l0.075,4.241c0.585,0.594,1.175,0.892,1.771,0.892c0.242,0,0.484-0.053,0.727-0.158
			c0.736-0.301,1.104-1.198,1.104-2.695c0-0.181-0.005-0.368-0.016-0.563c-0.101-1.835-0.59-2.801-1.468-2.897
			c-0.09-0.009-0.176-0.013-0.257-0.013C182.905,38.084,182.26,38.482,181.735,39.279z"/>
		<path fill="#FFFFFF" d="M194.521,38.93l0.151,8.178l-3.707,0.021c0-3.459-0.156-7.343-0.469-11.65l2.784-0.227l0.15,1.839
			c0.424-0.901,1.413-1.418,2.967-1.546c0.231-0.015,0.453-0.021,0.665-0.021c1.221,0,2.148,0.298,2.784,0.892
			c0.736,0.707,1.109,1.831,1.12,3.372l-3.359,0.248c0.01-0.128,0.015-0.252,0.015-0.372c0-1.203-0.418-1.805-1.256-1.805h-0.061
			C195.338,37.896,194.742,38.253,194.521,38.93z"/>
		<path fill="#FFFFFF" d="M206.897,35.434c3.5,0,5.251,1.732,5.251,5.198c0,0.423-0.025,0.873-0.076,1.354h-6.763
			c0,1.933,0.499,2.899,1.497,2.899h0.106c0.877-0.054,1.316-0.554,1.316-1.501c0-0.202-0.021-0.429-0.061-0.678l3.602-0.056
			c0,2.864-1.68,4.316-5.039,4.354c-0.041,0.009-0.076,0.013-0.105,0.013c-3.198,0-4.797-1.81-4.797-5.427v-0.338
			C201.93,37.373,203.619,35.434,206.897,35.434z M204.946,39.911h3.419V39.64c0-1.368-0.52-2.054-1.559-2.054
			C205.688,37.588,205.067,38.362,204.946,39.911z"/>
		<path fill="#FFFFFF" d="M213.102,43.013l3.465-0.124v0.146c0,1.158,0.479,1.745,1.438,1.76h0.061c0.928,0,1.392-0.334,1.392-1.004
			v-0.079c-0.04-0.735-0.955-1.33-2.746-1.78c-1.791-0.451-2.867-1.211-3.23-2.279c-0.131-0.375-0.196-0.736-0.196-1.082
			c0-0.632,0.217-1.219,0.65-1.76c0.666-0.827,1.675-1.301,3.026-1.421c0.363-0.03,0.716-0.046,1.059-0.046
			c0.898,0,1.689,0.116,2.376,0.35c0.938,0.324,1.589,0.786,1.952,1.388c0.242,0.414,0.363,0.872,0.363,1.376
			c0,0.241-0.025,0.489-0.076,0.744l-3.238,0.057c0.03-0.188,0.046-0.359,0.046-0.519c0-0.752-0.323-1.154-0.969-1.207
			c-0.07-0.007-0.142-0.011-0.212-0.011c-0.666,0-1.114,0.252-1.347,0.755c-0.081,0.174-0.12,0.331-0.12,0.474
			c0,0.354,0.221,0.658,0.665,0.914c0.626,0.361,1.551,0.729,2.776,1.101c1.225,0.372,2.051,1.006,2.475,1.899
			c0.15,0.339,0.227,0.677,0.227,1.017c0,0.57-0.222,1.146-0.666,1.726c-0.706,0.925-1.801,1.463-3.283,1.613
			c-0.323,0.037-0.641,0.056-0.953,0.056c-1.109,0-2.139-0.214-3.087-0.643C213.737,45.882,213.122,44.742,213.102,43.013z"/>
		<path fill="#FFFFFF" d="M228.943,35.434c3.5,0,5.251,1.732,5.251,5.198c0,0.423-0.025,0.873-0.076,1.354h-6.764
			c0,1.933,0.5,2.899,1.498,2.899h0.105c0.878-0.054,1.316-0.554,1.316-1.501c0-0.202-0.02-0.429-0.061-0.678l3.602-0.056
			c0,2.864-1.68,4.316-5.038,4.354c-0.041,0.009-0.076,0.013-0.106,0.013c-3.197,0-4.797-1.81-4.797-5.427v-0.338
			C223.976,37.373,225.665,35.434,228.943,35.434z M226.991,39.911h3.42V39.64c0-1.368-0.52-2.054-1.559-2.054
			C227.733,37.588,227.112,38.362,226.991,39.911z"/>
		<path fill="#FFFFFF" d="M238.112,35.141l0.151,1.838c0.424-0.979,1.538-1.475,3.345-1.488h0.061c1.775,0,2.985,0.52,3.631,1.556
			c0.443,0.707,0.666,2.361,0.666,4.964c0,1.277-0.056,2.789-0.166,4.533h-3.662c0.131-2.322,0.196-4.124,0.196-5.401
			c0-0.64-0.015-1.15-0.045-1.534c-0.101-1.128-0.585-1.691-1.453-1.691c-0.867,0-1.412,0.302-1.634,0.902l0.151,8.177l-3.556,0.023
			c0-3.459-0.156-7.343-0.469-11.651L238.112,35.141z"/>
		<path fill="#FFFFFF" d="M249.748,31.835l3.435-0.169v3.733l2.891-0.058l0.045,2.133l-2.936,0.102v5.132
			c0,1.196,0.682,1.794,2.043,1.794c0.282,0,0.59-0.025,0.923-0.079l-0.136,2.481c-0.484,0.045-0.943,0.067-1.377,0.067
			c-3.188,0-4.812-1.227-4.872-3.678v-5.516l-2.481,0.113l-0.061-2.517l2.542,0.022L249.748,31.835z"/>
		<path fill="#FFFFFF" d="M262.292,35.434c3.5,0,5.25,1.732,5.25,5.198c0,0.423-0.025,0.873-0.075,1.354h-6.764
			c0,1.933,0.499,2.899,1.498,2.899h0.105c0.878-0.054,1.316-0.554,1.316-1.501c0-0.202-0.021-0.429-0.061-0.678l3.602-0.056
			c0,2.864-1.68,4.316-5.038,4.354c-0.041,0.009-0.076,0.013-0.106,0.013c-3.198,0-4.797-1.81-4.797-5.427v-0.338
			C257.323,37.373,259.014,35.434,262.292,35.434z M260.34,39.911h3.42V39.64c0-1.368-0.52-2.054-1.559-2.054
			C261.081,37.588,260.461,38.362,260.34,39.911z"/>
		<path fill="#FFFFFF" d="M270.886,38.49c-0.604,0-1.125-0.162-1.559-0.485c-0.434-0.322-0.65-0.71-0.65-1.16
			c0-0.459,0.217-0.851,0.65-1.175c0.434-0.322,0.954-0.483,1.559-0.483c0.615,0,1.141,0.161,1.574,0.483
			c0.434,0.324,0.65,0.716,0.65,1.175c0,0.45-0.217,0.838-0.65,1.16C272.027,38.328,271.501,38.49,270.886,38.49z M270.886,47.073
			c-0.604,0-1.125-0.161-1.559-0.484c-0.434-0.322-0.65-0.711-0.65-1.161c0-0.459,0.217-0.851,0.65-1.174
			c0.433-0.322,0.954-0.484,1.559-0.484c0.615,0,1.141,0.162,1.574,0.484c0.433,0.323,0.65,0.715,0.65,1.174
			c0,0.45-0.217,0.839-0.65,1.161C272.027,46.912,271.501,47.073,270.886,47.073z"/>
	</g>
	<circle fill="#FFFFFF" cx="51.815" cy="147.884" r="3.666"/>
	<circle fill="#FFFFFF" cx="51.815" cy="198.884" r="3.666"/>
	<path fill="#331842" d="M787.646,31.059c0-0.048-0.002-0.096-0.003-0.143c-0.015-0.797-0.188-1.582-0.525-2.261
		c-0.13-0.274-0.28-0.535-0.455-0.776c-0.2-0.274-0.456-0.519-0.751-0.729c-1.288-1.062-3.035-1.337-4.83-0.705
		c-0.834,0.293-1.235,0.25-1.393-0.265c-0.032-0.177-0.048-0.393-0.049-0.655c-0.005-2.049,0.02-4.098,0.022-6.147
		c0-0.639-0.019-1.005-0.17-1.217c-0.162-0.355-0.508-0.495-1.082-0.484c-2.192,0.036-4.387,0.016-6.578,0.043
		c-0.117,0.001-0.222,0.006-0.319,0.014c-0.578-0.218-0.622-0.728-0.269-1.729c0.77-2.181,0.116-4.457-1.66-5.784
		c-1.596-1.194-4.033-1.229-5.664-0.079c-1.826,1.285-2.533,3.507-1.827,5.733c0.383,1.206,0.364,1.7-0.343,1.875
		c-2.002-0.013-4.004-0.021-6.006,0.012c-0.229-0.005-0.459-0.01-0.688-0.013c-0.183-0.004-0.346,0.006-0.49,0.032
		c-0.008,0-0.015,0-0.021,0c-0.04,0.001-0.084,0.015-0.131,0.036c-0.429,0.128-0.646,0.461-0.619,1.178
		c0.004,0.104,0.006,0.207,0.01,0.312c-0.026,0.963,0,1.928,0,2.893c0,1.139-0.038,2.281,0.013,3.418
		c-0.001,0.121-0.002,0.232-0.005,0.329c-0.041,0.474-0.256,0.693-0.618,0.757c-0.191-0.005-0.44-0.031-0.77-0.065
		c-0.276-0.029-0.557-0.038-0.837-0.043c-0.338-0.025-0.674-0.035-1.008-0.019c-0.004,0-0.009,0-0.013,0
		c-0.68,0.035-1.35,0.182-1.996,0.533c-1.314,0.715-2.105,2.267-2.083,3.903c0,0.016,0,0.031,0,0.047c0,0.015,0,0.029,0,0.045
		c-0.022,1.637,0.769,3.189,2.083,3.902c0.646,0.354,1.317,0.498,1.996,0.533c0.004,0.002,0.009,0.002,0.013,0.002
		c0.334,0.018,0.67,0.007,1.008-0.018c0.28-0.006,0.561-0.014,0.837-0.044c0.328-0.035,0.577-0.062,0.77-0.065
		c0.362,0.062,0.577,0.282,0.618,0.756c0.003,0.099,0.004,0.207,0.005,0.329c-0.05,1.139-0.013,2.278-0.013,3.419
		c0,0.963-0.026,1.931,0,2.892c-0.004,0.104-0.006,0.207-0.01,0.311c-0.028,0.718,0.19,1.05,0.619,1.181
		c0.047,0.021,0.091,0.032,0.131,0.034c0.008,0,0.016,0,0.021,0c0.146,0.025,0.309,0.035,0.49,0.033
		c0.229-0.005,0.461-0.008,0.688-0.012c2.002,0.029,4.004,0.021,6.006,0.01c0.707,0.174,0.725,0.67,0.343,1.875
		c-0.706,2.229,0.001,4.449,1.827,5.734c1.631,1.147,4.068,1.114,5.664-0.079c1.776-1.327,2.43-3.604,1.66-5.785
		c-0.354-1.001-0.312-1.511,0.269-1.729c0.099,0.009,0.202,0.014,0.319,0.015c2.191,0.025,4.386,0.007,6.578,0.043
		c0.574,0.009,0.92-0.13,1.082-0.485c0.151-0.212,0.17-0.578,0.17-1.217c-0.004-2.05-0.027-4.099-0.022-6.147
		c0.001-0.264,0.017-0.479,0.049-0.655c0.156-0.515,0.559-0.558,1.393-0.264c1.795,0.632,3.542,0.355,4.83-0.707
		c0.295-0.209,0.551-0.451,0.751-0.727c0.175-0.242,0.325-0.504,0.455-0.777c0.337-0.68,0.512-1.463,0.525-2.262
		C787.646,31.151,787.646,31.104,787.646,31.059z"/>
	<path fill="#951B81" d="M759.597,31.493c0.261,4.521,4.136,7.979,8.657,7.72c4.525-0.26,7.981-4.136,7.724-8.657
		c-0.26-4.523-4.137-7.979-8.66-7.723C762.793,23.094,759.338,26.97,759.597,31.493z M766.879,31.075l-3.241-2.889
		c-0.264-0.239-0.287-0.644-0.052-0.909c0.238-0.257,0.644-0.282,0.907-0.051l3.24,2.888l2.89-3.24
		c0.237-0.264,0.642-0.278,0.901-0.052c0.267,0.239,0.295,0.642,0.059,0.908l-2.889,3.241l3.238,2.89
		c0.261,0.236,0.283,0.642,0.053,0.907c-0.236,0.264-0.644,0.287-0.907,0.052l-3.241-2.89l-2.891,3.239
		c-0.235,0.266-0.64,0.287-0.906,0.054c-0.264-0.238-0.287-0.644-0.052-0.908L766.879,31.075z"/>
</g>
</svg>
