<?xml version="1.0" encoding="utf-8"?>
<!-- Generator: Adobe Illustrator 16.0.0, SVG Export Plug-In . SVG Version: 6.00 Build 0)  -->
<!DOCTYPE svg PUBLIC "-//W3C//DTD SVG 1.1//EN" "http://www.w3.org/Graphics/SVG/1.1/DTD/svg11.dtd">
<svg version="1.1" id="Capa_1" xmlns="http://www.w3.org/2000/svg" xmlns:xlink="http://www.w3.org/1999/xlink" x="0px" y="0px"
	 width="698.393px" height="208.553px" viewBox="0 0 698.393 208.553" enable-background="new 0 0 698.393 208.553"
	 xml:space="preserve">
<g>
	<g>
		<circle fill="none" cx="27.331" cy="180.931" r="2.551"/>
		<circle fill="none" cx="21.136" cy="180.931" r="2.551"/>
		<circle fill="none" cx="14.94" cy="180.931" r="2.55"/>
		<circle fill="none" cx="21.136" cy="187.198" r="2.551"/>
		<circle fill="none" cx="14.94" cy="187.198" r="2.55"/>
		<circle fill="none" cx="8.746" cy="187.198" r="2.55"/>
		<circle fill="none" cx="14.94" cy="193.466" r="2.55"/>
		<circle fill="none" cx="8.746" cy="193.466" r="2.55"/>
		<circle fill="none" cx="2.551" cy="193.466" r="2.551"/>
		<circle fill="none" cx="21.136" cy="199.733" r="2.551"/>
		<circle fill="none" cx="14.94" cy="199.733" r="2.55"/>
		<circle fill="none" cx="8.746" cy="199.733" r="2.55"/>
		<circle fill="none" cx="27.331" cy="206.001" r="2.551"/>
		<circle fill="none" cx="21.136" cy="206.001" r="2.551"/>
		<circle fill="none" cx="14.94" cy="206.001" r="2.55"/>
	</g>
	<g>
		<path fill="#331842" d="M48.481,18.319c0.023-2.854,0.034-5.789,0.034-8.812c0-3.029-0.011-6.141-0.034-9.33
			C49.787,0.06,50.99,0,52.092,0c3.065,0,5.325,0.457,6.778,1.371c1.976,1.253,3.009,3.566,3.1,6.943v0.914
			c0,2.896-0.375,4.96-1.124,6.194c-0.829,1.362-2.345,2.27-4.547,2.718c-1.272,0.263-2.668,0.395-4.19,0.395
			C50.973,18.535,49.764,18.463,48.481,18.319z M52.705,3.809c-0.193,2.784-0.29,5.477-0.29,8.073c0,0.98,0.011,1.946,0.034,2.896
			c0.397,0.067,0.777,0.103,1.141,0.103c0.999,0,1.839-0.258,2.521-0.773c0.931-0.693,1.396-2.251,1.396-4.672V9.382
			c-0.011-2.438-0.466-4.036-1.362-4.799c-0.693-0.575-1.516-0.862-2.47-0.862C53.369,3.72,53.045,3.749,52.705,3.809z"/>
		<path fill="#331842" d="M69.837,5.396c3.735,0.151,5.604,1.553,5.604,4.202v9.014l-3.968,0.052l-0.136-1.206
			c-0.818,0.693-1.902,1.041-3.253,1.041c-0.579,0-1.204-0.066-1.874-0.203c-2.01-0.372-3.014-1.531-3.014-3.479
			c0-0.236,0.017-0.49,0.051-0.762c0.227-2.007,2.14-3.01,5.739-3.01c0.692,0,1.454,0.038,2.282,0.114V9.687
			c0-1.192-0.505-1.79-1.516-1.79h-0.068c-0.08-0.009-0.153-0.014-0.221-0.014c-1.102,0-1.652,0.67-1.652,2.007v0.189l-4.053-0.254
			c0-2.954,1.907-4.432,5.722-4.432L69.837,5.396L69.837,5.396z M71.268,15.425V13.19c-0.488-0.076-0.931-0.113-1.328-0.113
			c-1.034,0-1.737,0.258-2.112,0.773c-0.228,0.312-0.341,0.604-0.341,0.876c0,0.339,0.182,0.639,0.545,0.9
			c0.284,0.203,0.653,0.306,1.107,0.306C69.718,15.933,70.428,15.764,71.268,15.425z"/>
		<path fill="#331842" d="M79.937,5.434l0.17,2.068c0.477-1.102,1.731-1.658,3.764-1.676h0.068c1.999,0,3.361,0.584,4.087,1.752
			c0.5,0.796,0.75,2.656,0.75,5.586c0,1.438-0.062,3.141-0.188,5.104h-4.121c0.147-2.615,0.221-4.644,0.221-6.081
			c0-0.72-0.017-1.295-0.051-1.728c-0.114-1.271-0.659-1.903-1.635-1.903s-1.59,0.339-1.839,1.016l0.17,9.204l-4.002,0.025
			c0-3.896-0.176-8.266-0.528-13.114L79.937,5.434z M77.246,4.062c0-2.539,1.135-3.81,3.406-3.81c1.135,0,2.015,0.316,2.64,0.952
			c0.522,0.523,1.005,0.787,1.448,0.787c0.091,0,0.176-0.01,0.255-0.025c0.511-0.127,0.767-0.697,0.767-1.714h2.554
			c0,2.539-1.135,3.81-3.406,3.81c-1.136,0-2.044-0.316-2.725-0.952c-0.568-0.532-1.056-0.8-1.465-0.8
			c-0.08,0-0.159,0.013-0.238,0.038c-0.454,0.127-0.681,0.697-0.681,1.714H77.246z"/>
		<path fill="#331842" d="M96.185,5.764c3.86,0,5.79,1.997,5.79,5.991c0,0.161-0.006,0.321-0.017,0.481
			c-0.159,4.325-2.214,6.51-6.166,6.552c-0.045,0.009-0.091,0.014-0.136,0.014c-3.758,0-5.637-2.045-5.637-6.133v-0.354
			C90.133,7.947,92.188,5.764,96.185,5.764z M95.623,8.658c-0.715,0.188-1.204,0.876-1.465,2.068
			c-0.159,0.711-0.238,1.426-0.238,2.146c0,0.481,0.034,0.969,0.102,1.46c0.182,1.22,0.766,1.851,1.754,1.893h0.12
			c0.919,0,1.55-0.453,1.89-1.357c0.284-0.754,0.426-1.646,0.426-2.68c0-0.254-0.006-0.512-0.017-0.773
			c-0.091-1.361-0.363-2.213-0.817-2.553c-0.284-0.202-0.625-0.305-1.022-0.305C96.127,8.557,95.883,8.591,95.623,8.658z"/>
	</g>
</g>
</svg>
