<?xml version="1.0" encoding="utf-8"?>
<!-- Generator: Adobe Illustrator 16.0.0, SVG Export Plug-In . SVG Version: 6.00 Build 0)  -->
<!DOCTYPE svg PUBLIC "-//W3C//DTD SVG 1.1//EN" "http://www.w3.org/Graphics/SVG/1.1/DTD/svg11.dtd">
<svg version="1.1" id="Capa_1" xmlns="http://www.w3.org/2000/svg" xmlns:xlink="http://www.w3.org/1999/xlink" x="0px" y="0px"
	 width="698.393px" height="207.906px" viewBox="0 0 698.393 207.906" enable-background="new 0 0 698.393 207.906"
	 xml:space="preserve">
<g>
	<g>
		<circle fill="none" cx="671.062" cy="180.285" r="2.551"/>
		<circle fill="none" cx="677.257" cy="180.285" r="2.551"/>
		<circle fill="none" cx="683.452" cy="180.285" r="2.551"/>
		<circle fill="none" cx="677.257" cy="186.553" r="2.551"/>
		<circle fill="none" cx="683.452" cy="186.553" r="2.551"/>
		<circle fill="none" cx="689.647" cy="186.553" r="2.551"/>
		<circle fill="none" cx="683.452" cy="192.82" r="2.551"/>
		<circle fill="none" cx="689.647" cy="192.82" r="2.551"/>
		<circle fill="none" cx="695.842" cy="192.82" r="2.551"/>
		<circle fill="none" cx="677.257" cy="199.088" r="2.551"/>
		<circle fill="none" cx="683.452" cy="199.088" r="2.551"/>
		<circle fill="none" cx="689.647" cy="199.088" r="2.551"/>
		<circle fill="none" cx="671.062" cy="205.355" r="2.551"/>
		<circle fill="none" cx="677.257" cy="205.355" r="2.551"/>
		<circle fill="none" cx="683.452" cy="205.355" r="2.551"/>
	</g>
	<g>
		<circle fill="#951B81" cx="27.33" cy="180.285" r="2.551"/>
		<circle fill="#951B81" cx="21.136" cy="180.285" r="2.551"/>
		<circle fill="#951B81" cx="14.94" cy="180.285" r="2.551"/>
		<circle fill="#951B81" cx="21.136" cy="186.553" r="2.551"/>
		<circle fill="#951B81" cx="14.94" cy="186.553" r="2.551"/>
		<circle fill="#951B81" cx="8.746" cy="186.553" r="2.551"/>
		<circle fill="#951B81" cx="14.94" cy="192.82" r="2.551"/>
		<circle fill="#951B81" cx="8.746" cy="192.82" r="2.551"/>
		<circle fill="#951B81" cx="2.551" cy="192.82" r="2.551"/>
		<circle fill="#951B81" cx="21.136" cy="199.088" r="2.551"/>
		<circle fill="#951B81" cx="14.94" cy="199.088" r="2.551"/>
		<circle fill="#951B81" cx="8.746" cy="199.088" r="2.551"/>
		<circle fill="#951B81" cx="27.33" cy="205.355" r="2.551"/>
		<circle fill="#951B81" cx="21.136" cy="205.355" r="2.551"/>
		<circle fill="#951B81" cx="14.94" cy="205.355" r="2.551"/>
	</g>
</g>
</svg>
