<?xml version="1.0" encoding="utf-8"?>
<!-- Generator: Adobe Illustrator 16.0.0, SVG Export Plug-In . SVG Version: 6.00 Build 0)  -->
<!DOCTYPE svg PUBLIC "-//W3C//DTD SVG 1.1//EN" "http://www.w3.org/Graphics/SVG/1.1/DTD/svg11.dtd">
<svg version="1.1" id="Capa_1" xmlns="http://www.w3.org/2000/svg" xmlns:xlink="http://www.w3.org/1999/xlink" x="0px" y="0px"
	 width="522.24px" height="148.025px" viewBox="0 0 522.24 148.025" enable-background="new 0 0 522.24 148.025"
	 xml:space="preserve">
<g>
	<g>
		<g>
			<path fill="#3C3C3B" d="M260.209,103.681l1.43-0.125c0.067,0.573,0.225,1.043,0.473,1.41c0.247,0.367,0.631,0.664,1.152,0.891
				c0.521,0.227,1.106,0.34,1.758,0.34c0.578,0,1.088-0.086,1.531-0.258c0.442-0.172,0.772-0.407,0.988-0.707
				c0.216-0.3,0.324-0.626,0.324-0.98c0-0.359-0.104-0.673-0.312-0.941c-0.208-0.269-0.552-0.493-1.031-0.676
				c-0.308-0.12-0.987-0.306-2.039-0.559c-1.052-0.253-1.789-0.491-2.211-0.715c-0.547-0.286-0.955-0.642-1.223-1.066
				c-0.269-0.425-0.402-0.899-0.402-1.426c0-0.578,0.164-1.118,0.492-1.621s0.807-0.884,1.438-1.145
				c0.63-0.261,1.331-0.391,2.102-0.391c0.849,0,1.598,0.137,2.246,0.41s1.147,0.676,1.496,1.207
				c0.349,0.531,0.536,1.133,0.562,1.805l-1.453,0.109c-0.078-0.724-0.343-1.271-0.793-1.641c-0.451-0.37-1.116-0.555-1.996-0.555
				c-0.917,0-1.585,0.168-2.004,0.504c-0.419,0.336-0.629,0.741-0.629,1.215c0,0.411,0.148,0.75,0.445,1.016
				c0.292,0.266,1.053,0.538,2.285,0.816c1.231,0.278,2.077,0.522,2.535,0.73c0.667,0.308,1.159,0.696,1.477,1.168
				c0.317,0.472,0.477,1.015,0.477,1.629c0,0.609-0.175,1.184-0.523,1.723c-0.349,0.539-0.851,0.958-1.504,1.258
				c-0.654,0.3-1.39,0.449-2.207,0.449c-1.037,0-1.905-0.151-2.605-0.453c-0.701-0.302-1.25-0.757-1.648-1.363
				S260.23,104.446,260.209,103.681z"/>
			<path fill="#3C3C3B" d="M276.897,104.688l1.453,0.18c-0.229,0.849-0.654,1.508-1.273,1.977c-0.62,0.469-1.412,0.703-2.375,0.703
				c-1.214,0-2.176-0.374-2.887-1.121s-1.066-1.796-1.066-3.145c0-1.396,0.359-2.479,1.078-3.25s1.651-1.156,2.797-1.156
				c1.109,0,2.016,0.378,2.719,1.133s1.055,1.817,1.055,3.188c0,0.083-0.003,0.208-0.008,0.375h-6.188
				c0.052,0.911,0.31,1.609,0.773,2.094c0.463,0.484,1.042,0.727,1.734,0.727c0.516,0,0.956-0.136,1.32-0.406
				C276.394,105.715,276.683,105.282,276.897,104.688z M272.28,102.415h4.633c-0.062-0.698-0.24-1.222-0.531-1.57
				c-0.448-0.542-1.029-0.812-1.742-0.812c-0.646,0-1.189,0.216-1.629,0.648C272.57,101.113,272.326,101.691,272.28,102.415z"/>
			<path fill="#3C3C3B" d="M280.115,107.36v-8.297h1.266v1.18c0.609-0.911,1.489-1.367,2.641-1.367c0.5,0,0.959,0.09,1.379,0.27
				c0.419,0.18,0.733,0.415,0.941,0.707c0.208,0.292,0.354,0.638,0.438,1.039c0.052,0.261,0.078,0.716,0.078,1.367v5.102h-1.406
				v-5.047c0-0.573-0.055-1.001-0.164-1.285s-0.304-0.511-0.582-0.68c-0.279-0.169-0.605-0.254-0.98-0.254
				c-0.599,0-1.116,0.19-1.551,0.57c-0.435,0.38-0.652,1.102-0.652,2.164v4.531H280.115z"/>
			<path fill="#3C3C3B" d="M292.084,106.103l0.203,1.242c-0.396,0.083-0.75,0.125-1.062,0.125c-0.511,0-0.906-0.081-1.188-0.242
				s-0.479-0.374-0.594-0.637c-0.115-0.263-0.172-0.816-0.172-1.66v-4.773h-1.031v-1.094h1.031v-2.055l1.398-0.844v2.898h1.414
				v1.094h-1.414v4.852c0,0.401,0.024,0.659,0.074,0.773c0.049,0.114,0.13,0.206,0.242,0.273c0.112,0.067,0.272,0.102,0.48,0.102
				C291.623,106.157,291.829,106.139,292.084,106.103z"/>
			<path fill="#3C3C3B" d="M299.139,104.688l1.453,0.18c-0.229,0.849-0.654,1.508-1.273,1.977c-0.62,0.469-1.412,0.703-2.375,0.703
				c-1.214,0-2.176-0.374-2.887-1.121s-1.066-1.796-1.066-3.145c0-1.396,0.359-2.479,1.078-3.25s1.651-1.156,2.797-1.156
				c1.109,0,2.016,0.378,2.719,1.133s1.055,1.817,1.055,3.188c0,0.083-0.003,0.208-0.008,0.375h-6.188
				c0.052,0.911,0.31,1.609,0.773,2.094c0.463,0.484,1.042,0.727,1.734,0.727c0.516,0,0.956-0.136,1.32-0.406
				C298.636,105.715,298.925,105.282,299.139,104.688z M294.522,102.415h4.633c-0.062-0.698-0.24-1.222-0.531-1.57
				c-0.448-0.542-1.029-0.812-1.742-0.812c-0.646,0-1.189,0.216-1.629,0.648C294.812,101.113,294.569,101.691,294.522,102.415z"/>
			<path fill="#3C3C3B" d="M302.358,107.36v-8.297h1.266v1.18c0.609-0.911,1.489-1.367,2.641-1.367c0.5,0,0.959,0.09,1.379,0.27
				c0.419,0.18,0.733,0.415,0.941,0.707c0.208,0.292,0.354,0.638,0.438,1.039c0.052,0.261,0.078,0.716,0.078,1.367v5.102h-1.406
				v-5.047c0-0.573-0.055-1.001-0.164-1.285s-0.304-0.511-0.582-0.68c-0.279-0.169-0.605-0.254-0.98-0.254
				c-0.599,0-1.116,0.19-1.551,0.57c-0.435,0.38-0.652,1.102-0.652,2.164v4.531H302.358z"/>
			<path fill="#3C3C3B" d="M316.67,104.321l1.383,0.18c-0.151,0.953-0.538,1.699-1.16,2.238c-0.623,0.539-1.387,0.809-2.293,0.809
				c-1.136,0-2.048-0.371-2.738-1.113c-0.69-0.742-1.035-1.806-1.035-3.191c0-0.896,0.148-1.68,0.445-2.352s0.749-1.176,1.355-1.512
				c0.606-0.336,1.267-0.504,1.98-0.504c0.901,0,1.638,0.228,2.211,0.684c0.573,0.456,0.94,1.103,1.102,1.941l-1.367,0.211
				c-0.13-0.558-0.361-0.977-0.691-1.258c-0.331-0.281-0.73-0.422-1.199-0.422c-0.708,0-1.284,0.254-1.727,0.762
				c-0.443,0.508-0.664,1.312-0.664,2.41c0,1.114,0.213,1.925,0.641,2.43c0.427,0.505,0.984,0.758,1.672,0.758
				c0.552,0,1.013-0.169,1.383-0.508C316.337,105.545,316.571,105.024,316.67,104.321z"/>
			<path fill="#3C3C3B" d="M319.264,97.524v-1.617h1.406v1.617H319.264z M319.264,107.36v-8.297h1.406v8.297H319.264z"/>
			<path fill="#3C3C3B" d="M328.225,106.337c-0.521,0.442-1.022,0.755-1.504,0.938c-0.482,0.183-0.999,0.273-1.551,0.273
				c-0.912,0-1.612-0.223-2.102-0.668c-0.49-0.445-0.734-1.015-0.734-1.707c0-0.406,0.092-0.777,0.277-1.113
				c0.185-0.336,0.427-0.605,0.727-0.809c0.299-0.203,0.637-0.356,1.012-0.461c0.276-0.073,0.692-0.144,1.25-0.211
				c1.135-0.136,1.971-0.297,2.508-0.484c0.005-0.192,0.008-0.315,0.008-0.367c0-0.573-0.133-0.977-0.398-1.211
				c-0.359-0.317-0.894-0.477-1.602-0.477c-0.662,0-1.15,0.116-1.465,0.348c-0.315,0.231-0.548,0.642-0.699,1.23l-1.375-0.188
				c0.125-0.589,0.331-1.063,0.617-1.426c0.286-0.362,0.7-0.641,1.242-0.836c0.542-0.195,1.169-0.293,1.883-0.293
				c0.708,0,1.284,0.083,1.727,0.25c0.442,0.167,0.768,0.376,0.977,0.629c0.208,0.253,0.354,0.571,0.438,0.957
				c0.047,0.239,0.07,0.672,0.07,1.297v1.875c0,1.308,0.03,2.134,0.09,2.48c0.06,0.347,0.178,0.679,0.355,0.996h-1.469
				C328.36,107.068,328.266,106.728,328.225,106.337z M328.108,103.196c-0.511,0.208-1.276,0.386-2.297,0.531
				c-0.578,0.083-0.987,0.177-1.227,0.281c-0.24,0.104-0.425,0.257-0.555,0.457c-0.13,0.2-0.195,0.423-0.195,0.668
				c0,0.375,0.142,0.688,0.426,0.938c0.284,0.25,0.699,0.375,1.246,0.375c0.542,0,1.023-0.118,1.445-0.355s0.731-0.562,0.93-0.973
				c0.151-0.317,0.227-0.786,0.227-1.406V103.196z"/>
			<path fill="#3C3C3B" d="M344.506,103.345l1.516,0.383c-0.318,1.245-0.89,2.194-1.715,2.848c-0.826,0.653-1.835,0.98-3.027,0.98
				c-1.234,0-2.238-0.251-3.012-0.754s-1.362-1.23-1.766-2.184c-0.404-0.953-0.605-1.977-0.605-3.07
				c0-1.192,0.228-2.233,0.684-3.121c0.456-0.888,1.104-1.562,1.945-2.023c0.841-0.461,1.767-0.691,2.777-0.691
				c1.146,0,2.109,0.292,2.891,0.875s1.325,1.403,1.633,2.461l-1.492,0.352c-0.266-0.833-0.651-1.44-1.156-1.82
				c-0.505-0.38-1.141-0.57-1.906-0.57c-0.88,0-1.616,0.211-2.207,0.633c-0.591,0.422-1.007,0.988-1.246,1.699
				c-0.24,0.711-0.359,1.444-0.359,2.199c0,0.974,0.142,1.824,0.426,2.551c0.284,0.727,0.725,1.27,1.324,1.629
				c0.599,0.359,1.247,0.539,1.945,0.539c0.849,0,1.567-0.245,2.156-0.734C343.899,105.035,344.298,104.309,344.506,103.345z"/>
			<path fill="#3C3C3B" d="M347.186,103.212c0-1.536,0.427-2.675,1.281-3.414c0.713-0.614,1.583-0.922,2.609-0.922
				c1.141,0,2.073,0.374,2.797,1.121c0.724,0.747,1.086,1.78,1.086,3.098c0,1.067-0.16,1.907-0.48,2.52s-0.787,1.087-1.398,1.426
				c-0.612,0.339-1.28,0.508-2.004,0.508c-1.162,0-2.101-0.372-2.816-1.117C347.544,105.686,347.186,104.613,347.186,103.212z
				 M348.631,103.212c0,1.062,0.231,1.858,0.695,2.387c0.463,0.528,1.047,0.793,1.75,0.793c0.698,0,1.278-0.266,1.742-0.797
				c0.463-0.531,0.695-1.341,0.695-2.43c0-1.026-0.233-1.804-0.699-2.332c-0.466-0.528-1.046-0.793-1.738-0.793
				c-0.703,0-1.287,0.263-1.75,0.789C348.863,101.355,348.631,102.149,348.631,103.212z"/>
			<path fill="#3C3C3B" d="M356.592,107.36v-8.297h1.266v1.258c0.323-0.589,0.621-0.977,0.895-1.164s0.574-0.281,0.902-0.281
				c0.474,0,0.956,0.151,1.445,0.453l-0.484,1.305c-0.344-0.203-0.688-0.305-1.031-0.305c-0.308,0-0.583,0.093-0.828,0.277
				c-0.245,0.185-0.419,0.441-0.523,0.77c-0.156,0.5-0.234,1.047-0.234,1.641v4.344H356.592z"/>
			<path fill="#3C3C3B" d="M365.006,106.103l0.203,1.242c-0.396,0.083-0.75,0.125-1.062,0.125c-0.511,0-0.906-0.081-1.188-0.242
				s-0.479-0.374-0.594-0.637c-0.115-0.263-0.172-0.816-0.172-1.66v-4.773h-1.031v-1.094h1.031v-2.055l1.398-0.844v2.898h1.414
				v1.094h-1.414v4.852c0,0.401,0.024,0.659,0.074,0.773c0.049,0.114,0.13,0.206,0.242,0.273c0.112,0.067,0.272,0.102,0.48,0.102
				C364.545,106.157,364.751,106.139,365.006,106.103z"/>
			<path fill="#3C3C3B" d="M372.061,104.688l1.453,0.18c-0.229,0.849-0.654,1.508-1.273,1.977c-0.62,0.469-1.412,0.703-2.375,0.703
				c-1.214,0-2.176-0.374-2.887-1.121s-1.066-1.796-1.066-3.145c0-1.396,0.359-2.479,1.078-3.25s1.651-1.156,2.797-1.156
				c1.109,0,2.016,0.378,2.719,1.133s1.055,1.817,1.055,3.188c0,0.083-0.003,0.208-0.008,0.375h-6.188
				c0.052,0.911,0.31,1.609,0.773,2.094c0.463,0.484,1.042,0.727,1.734,0.727c0.516,0,0.956-0.136,1.32-0.406
				C371.558,105.715,371.847,105.282,372.061,104.688z M367.444,102.415h4.633c-0.062-0.698-0.24-1.222-0.531-1.57
				c-0.448-0.542-1.029-0.812-1.742-0.812c-0.646,0-1.189,0.216-1.629,0.648C367.734,101.113,367.49,101.691,367.444,102.415z"/>
			<path fill="#3C3C3B" d="M380.162,107.36V95.907h1.516v11.453H380.162z"/>
			<path fill="#3C3C3B" d="M384.35,107.36V95.907h3.945c0.891,0,1.57,0.055,2.039,0.164c0.656,0.151,1.216,0.425,1.68,0.82
				c0.604,0.511,1.056,1.163,1.355,1.957c0.299,0.794,0.449,1.702,0.449,2.723c0,0.87-0.102,1.641-0.305,2.312
				s-0.464,1.228-0.781,1.668c-0.318,0.44-0.666,0.786-1.043,1.039c-0.378,0.253-0.833,0.444-1.367,0.574
				c-0.534,0.13-1.147,0.195-1.84,0.195H384.35z M385.865,106.009h2.445c0.755,0,1.348-0.07,1.777-0.211s0.772-0.339,1.027-0.594
				c0.359-0.359,0.639-0.843,0.84-1.449c0.2-0.606,0.301-1.343,0.301-2.207c0-1.198-0.197-2.118-0.59-2.762
				c-0.394-0.644-0.871-1.074-1.434-1.293c-0.406-0.156-1.06-0.234-1.961-0.234h-2.406V106.009z"/>
			<path fill="#3C3C3B" d="M395.951,107.36V95.907h1.516v4.703h5.953v-4.703h1.516v11.453h-1.516v-5.398h-5.953v5.398H395.951z"/>
			<path fill="#3C3C3B" d="M407.67,100.665v-1.602h1.602v1.602H407.67z M407.67,107.36v-1.602h1.602v1.602H407.67z"/>
			<path fill="#3C3C3B" d="M416.287,107.36V95.907h1.516v10.102h5.641v1.352H416.287z"/>
			<path fill="#3C3C3B" d="M430.483,106.337c-0.521,0.442-1.022,0.755-1.504,0.938c-0.482,0.183-0.999,0.273-1.551,0.273
				c-0.912,0-1.612-0.223-2.102-0.668c-0.49-0.445-0.734-1.015-0.734-1.707c0-0.406,0.092-0.777,0.277-1.113
				c0.185-0.336,0.427-0.605,0.727-0.809c0.299-0.203,0.637-0.356,1.012-0.461c0.276-0.073,0.692-0.144,1.25-0.211
				c1.135-0.136,1.971-0.297,2.508-0.484c0.005-0.192,0.008-0.315,0.008-0.367c0-0.573-0.133-0.977-0.398-1.211
				c-0.359-0.317-0.894-0.477-1.602-0.477c-0.662,0-1.15,0.116-1.465,0.348c-0.315,0.231-0.548,0.642-0.699,1.23l-1.375-0.188
				c0.125-0.589,0.331-1.063,0.617-1.426c0.286-0.362,0.7-0.641,1.242-0.836c0.542-0.195,1.169-0.293,1.883-0.293
				c0.708,0,1.284,0.083,1.727,0.25c0.442,0.167,0.768,0.376,0.977,0.629c0.208,0.253,0.354,0.571,0.438,0.957
				c0.047,0.239,0.07,0.672,0.07,1.297v1.875c0,1.308,0.03,2.134,0.09,2.48c0.06,0.347,0.178,0.679,0.355,0.996h-1.469
				C430.618,107.068,430.524,106.728,430.483,106.337z M430.365,103.196c-0.511,0.208-1.276,0.386-2.297,0.531
				c-0.578,0.083-0.987,0.177-1.227,0.281c-0.24,0.104-0.425,0.257-0.555,0.457c-0.13,0.2-0.195,0.423-0.195,0.668
				c0,0.375,0.142,0.688,0.426,0.938c0.284,0.25,0.699,0.375,1.246,0.375c0.542,0,1.023-0.118,1.445-0.355s0.731-0.562,0.93-0.973
				c0.151-0.317,0.227-0.786,0.227-1.406V103.196z"/>
			<path fill="#3C3C3B" d="M438.615,107.36V95.907h5.078c1.021,0,1.797,0.103,2.328,0.309s0.956,0.569,1.273,1.09
				c0.317,0.521,0.477,1.097,0.477,1.727c0,0.812-0.263,1.497-0.789,2.055c-0.526,0.558-1.339,0.911-2.438,1.062
				c0.401,0.192,0.706,0.383,0.914,0.57c0.442,0.406,0.862,0.914,1.258,1.523l1.992,3.117h-1.906l-1.516-2.383
				c-0.443-0.688-0.808-1.214-1.094-1.578c-0.287-0.364-0.543-0.62-0.77-0.766s-0.457-0.247-0.691-0.305
				c-0.172-0.036-0.453-0.055-0.844-0.055h-1.758v5.086H438.615z M440.131,100.962h3.258c0.692,0,1.234-0.071,1.625-0.215
				s0.688-0.372,0.891-0.688s0.305-0.657,0.305-1.027c0-0.542-0.197-0.987-0.59-1.336c-0.394-0.349-1.015-0.523-1.863-0.523h-3.625
				V100.962z"/>
			<path fill="#3C3C3B" d="M449.444,103.212c0-1.536,0.427-2.675,1.281-3.414c0.713-0.614,1.583-0.922,2.609-0.922
				c1.141,0,2.073,0.374,2.797,1.121c0.724,0.747,1.086,1.78,1.086,3.098c0,1.067-0.16,1.907-0.48,2.52s-0.787,1.087-1.398,1.426
				c-0.612,0.339-1.28,0.508-2.004,0.508c-1.162,0-2.101-0.372-2.816-1.117C449.802,105.686,449.444,104.613,449.444,103.212z
				 M450.889,103.212c0,1.062,0.231,1.858,0.695,2.387c0.463,0.528,1.047,0.793,1.75,0.793c0.698,0,1.278-0.266,1.742-0.797
				c0.463-0.531,0.695-1.341,0.695-2.43c0-1.026-0.233-1.804-0.699-2.332c-0.466-0.528-1.046-0.793-1.738-0.793
				c-0.703,0-1.287,0.263-1.75,0.789C451.12,101.355,450.889,102.149,450.889,103.212z"/>
			<path fill="#3C3C3B" d="M464.28,104.321l1.383,0.18c-0.151,0.953-0.538,1.699-1.16,2.238c-0.623,0.539-1.387,0.809-2.293,0.809
				c-1.136,0-2.048-0.371-2.738-1.113c-0.69-0.742-1.035-1.806-1.035-3.191c0-0.896,0.148-1.68,0.445-2.352s0.749-1.176,1.355-1.512
				c0.606-0.336,1.267-0.504,1.98-0.504c0.901,0,1.638,0.228,2.211,0.684c0.573,0.456,0.94,1.103,1.102,1.941l-1.367,0.211
				c-0.13-0.558-0.361-0.977-0.691-1.258c-0.331-0.281-0.73-0.422-1.199-0.422c-0.708,0-1.284,0.254-1.727,0.762
				c-0.443,0.508-0.664,1.312-0.664,2.41c0,1.114,0.213,1.925,0.641,2.43c0.427,0.505,0.984,0.758,1.672,0.758
				c0.552,0,1.013-0.169,1.383-0.508C463.946,105.545,464.18,105.024,464.28,104.321z"/>
			<path fill="#3C3C3B" d="M466.865,107.36V95.907h1.406v4.109c0.656-0.761,1.484-1.141,2.484-1.141
				c0.614,0,1.148,0.121,1.602,0.363s0.777,0.577,0.973,1.004s0.293,1.047,0.293,1.859v5.258h-1.406v-5.258
				c0-0.703-0.152-1.215-0.457-1.535s-0.736-0.48-1.293-0.48c-0.417,0-0.809,0.108-1.176,0.324s-0.629,0.509-0.785,0.879
				s-0.234,0.88-0.234,1.531v4.539H466.865z"/>
			<path fill="#3C3C3B" d="M481.444,104.688l1.453,0.18c-0.229,0.849-0.654,1.508-1.273,1.977c-0.62,0.469-1.412,0.703-2.375,0.703
				c-1.214,0-2.176-0.374-2.887-1.121s-1.066-1.796-1.066-3.145c0-1.396,0.359-2.479,1.078-3.25s1.651-1.156,2.797-1.156
				c1.109,0,2.016,0.378,2.719,1.133s1.055,1.817,1.055,3.188c0,0.083-0.003,0.208-0.008,0.375h-6.188
				c0.052,0.911,0.31,1.609,0.773,2.094c0.463,0.484,1.042,0.727,1.734,0.727c0.516,0,0.956-0.136,1.32-0.406
				C480.941,105.715,481.23,105.282,481.444,104.688z M476.826,102.415h4.633c-0.062-0.698-0.24-1.222-0.531-1.57
				c-0.448-0.542-1.029-0.812-1.742-0.812c-0.646,0-1.189,0.216-1.629,0.648C477.116,101.113,476.873,101.691,476.826,102.415z"/>
			<path fill="#3C3C3B" d="M484.631,107.36V95.907h1.406v11.453H484.631z"/>
			<path fill="#3C3C3B" d="M493.631,106.337c-0.521,0.442-1.022,0.755-1.504,0.938c-0.482,0.183-0.999,0.273-1.551,0.273
				c-0.912,0-1.612-0.223-2.102-0.668c-0.49-0.445-0.734-1.015-0.734-1.707c0-0.406,0.092-0.777,0.277-1.113
				c0.185-0.336,0.427-0.605,0.727-0.809c0.299-0.203,0.637-0.356,1.012-0.461c0.276-0.073,0.692-0.144,1.25-0.211
				c1.135-0.136,1.971-0.297,2.508-0.484c0.005-0.192,0.008-0.315,0.008-0.367c0-0.573-0.133-0.977-0.398-1.211
				c-0.359-0.317-0.894-0.477-1.602-0.477c-0.662,0-1.15,0.116-1.465,0.348c-0.315,0.231-0.548,0.642-0.699,1.23l-1.375-0.188
				c0.125-0.589,0.331-1.063,0.617-1.426c0.286-0.362,0.7-0.641,1.242-0.836c0.542-0.195,1.169-0.293,1.883-0.293
				c0.708,0,1.284,0.083,1.727,0.25c0.442,0.167,0.768,0.376,0.977,0.629c0.208,0.253,0.354,0.571,0.438,0.957
				c0.047,0.239,0.07,0.672,0.07,1.297v1.875c0,1.308,0.03,2.134,0.09,2.48c0.06,0.347,0.178,0.679,0.355,0.996h-1.469
				C493.766,107.068,493.673,106.728,493.631,106.337z M493.514,103.196c-0.511,0.208-1.276,0.386-2.297,0.531
				c-0.578,0.083-0.987,0.177-1.227,0.281c-0.24,0.104-0.425,0.257-0.555,0.457c-0.13,0.2-0.195,0.423-0.195,0.668
				c0,0.375,0.142,0.688,0.426,0.938c0.284,0.25,0.699,0.375,1.246,0.375c0.542,0,1.023-0.118,1.445-0.355s0.731-0.562,0.93-0.973
				c0.151-0.317,0.227-0.786,0.227-1.406V103.196z"/>
			<path fill="#3C3C3B" d="M260.209,122.881l1.43-0.125c0.067,0.573,0.225,1.043,0.473,1.41c0.247,0.367,0.631,0.664,1.152,0.891
				c0.521,0.227,1.106,0.34,1.758,0.34c0.578,0,1.088-0.086,1.531-0.258c0.442-0.172,0.772-0.407,0.988-0.707
				c0.216-0.3,0.324-0.626,0.324-0.98c0-0.359-0.104-0.673-0.312-0.941c-0.208-0.269-0.552-0.493-1.031-0.676
				c-0.308-0.12-0.987-0.306-2.039-0.559c-1.052-0.253-1.789-0.491-2.211-0.715c-0.547-0.286-0.955-0.642-1.223-1.066
				c-0.269-0.425-0.402-0.899-0.402-1.426c0-0.578,0.164-1.118,0.492-1.621s0.807-0.884,1.438-1.145
				c0.63-0.261,1.331-0.391,2.102-0.391c0.849,0,1.598,0.137,2.246,0.41s1.147,0.676,1.496,1.207
				c0.349,0.531,0.536,1.133,0.562,1.805l-1.453,0.109c-0.078-0.724-0.343-1.271-0.793-1.641c-0.451-0.37-1.116-0.555-1.996-0.555
				c-0.917,0-1.585,0.168-2.004,0.504c-0.419,0.336-0.629,0.741-0.629,1.215c0,0.411,0.148,0.75,0.445,1.016
				c0.292,0.266,1.053,0.538,2.285,0.816c1.231,0.278,2.077,0.522,2.535,0.73c0.667,0.308,1.159,0.696,1.477,1.168
				c0.317,0.472,0.477,1.015,0.477,1.629c0,0.609-0.175,1.184-0.523,1.723c-0.349,0.539-0.851,0.958-1.504,1.258
				c-0.654,0.3-1.39,0.449-2.207,0.449c-1.037,0-1.905-0.151-2.605-0.453c-0.701-0.302-1.25-0.757-1.648-1.363
				S260.23,123.646,260.209,122.881z"/>
			<path fill="#3C3C3B" d="M276.897,123.889l1.453,0.18c-0.229,0.849-0.654,1.508-1.273,1.977c-0.62,0.469-1.412,0.703-2.375,0.703
				c-1.214,0-2.176-0.374-2.887-1.121s-1.066-1.796-1.066-3.145c0-1.396,0.359-2.479,1.078-3.25s1.651-1.156,2.797-1.156
				c1.109,0,2.016,0.378,2.719,1.133s1.055,1.817,1.055,3.188c0,0.083-0.003,0.208-0.008,0.375h-6.188
				c0.052,0.911,0.31,1.609,0.773,2.094c0.463,0.484,1.042,0.727,1.734,0.727c0.516,0,0.956-0.136,1.32-0.406
				C276.394,124.915,276.683,124.482,276.897,123.889z M272.28,121.615h4.633c-0.062-0.698-0.24-1.222-0.531-1.57
				c-0.448-0.542-1.029-0.812-1.742-0.812c-0.646,0-1.189,0.216-1.629,0.648C272.57,120.313,272.326,120.892,272.28,121.615z"/>
			<path fill="#3C3C3B" d="M280.115,126.561v-8.297h1.266v1.18c0.609-0.911,1.489-1.367,2.641-1.367c0.5,0,0.959,0.09,1.379,0.27
				c0.419,0.18,0.733,0.415,0.941,0.707c0.208,0.292,0.354,0.638,0.438,1.039c0.052,0.261,0.078,0.716,0.078,1.367v5.102h-1.406
				v-5.047c0-0.573-0.055-1.001-0.164-1.285s-0.304-0.511-0.582-0.68c-0.279-0.169-0.605-0.254-0.98-0.254
				c-0.599,0-1.116,0.19-1.551,0.57c-0.435,0.38-0.652,1.102-0.652,2.164v4.531H280.115z"/>
			<path fill="#3C3C3B" d="M292.084,125.303l0.203,1.242c-0.396,0.083-0.75,0.125-1.062,0.125c-0.511,0-0.906-0.081-1.188-0.242
				s-0.479-0.374-0.594-0.637c-0.115-0.263-0.172-0.816-0.172-1.66v-4.773h-1.031v-1.094h1.031v-2.055l1.398-0.844v2.898h1.414
				v1.094h-1.414v4.852c0,0.401,0.024,0.659,0.074,0.773c0.049,0.114,0.13,0.206,0.242,0.273c0.112,0.067,0.272,0.102,0.48,0.102
				C291.623,125.357,291.829,125.339,292.084,125.303z"/>
			<path fill="#3C3C3B" d="M299.139,123.889l1.453,0.18c-0.229,0.849-0.654,1.508-1.273,1.977c-0.62,0.469-1.412,0.703-2.375,0.703
				c-1.214,0-2.176-0.374-2.887-1.121s-1.066-1.796-1.066-3.145c0-1.396,0.359-2.479,1.078-3.25s1.651-1.156,2.797-1.156
				c1.109,0,2.016,0.378,2.719,1.133s1.055,1.817,1.055,3.188c0,0.083-0.003,0.208-0.008,0.375h-6.188
				c0.052,0.911,0.31,1.609,0.773,2.094c0.463,0.484,1.042,0.727,1.734,0.727c0.516,0,0.956-0.136,1.32-0.406
				C298.636,124.915,298.925,124.482,299.139,123.889z M294.522,121.615h4.633c-0.062-0.698-0.24-1.222-0.531-1.57
				c-0.448-0.542-1.029-0.812-1.742-0.812c-0.646,0-1.189,0.216-1.629,0.648C294.812,120.313,294.569,120.892,294.522,121.615z"/>
			<path fill="#3C3C3B" d="M302.358,126.561v-8.297h1.266v1.18c0.609-0.911,1.489-1.367,2.641-1.367c0.5,0,0.959,0.09,1.379,0.27
				c0.419,0.18,0.733,0.415,0.941,0.707c0.208,0.292,0.354,0.638,0.438,1.039c0.052,0.261,0.078,0.716,0.078,1.367v5.102h-1.406
				v-5.047c0-0.573-0.055-1.001-0.164-1.285s-0.304-0.511-0.582-0.68c-0.279-0.169-0.605-0.254-0.98-0.254
				c-0.599,0-1.116,0.19-1.551,0.57c-0.435,0.38-0.652,1.102-0.652,2.164v4.531H302.358z"/>
			<path fill="#3C3C3B" d="M316.67,123.521l1.383,0.18c-0.151,0.953-0.538,1.699-1.16,2.238c-0.623,0.539-1.387,0.809-2.293,0.809
				c-1.136,0-2.048-0.371-2.738-1.113c-0.69-0.742-1.035-1.806-1.035-3.191c0-0.896,0.148-1.68,0.445-2.352s0.749-1.176,1.355-1.512
				c0.606-0.336,1.267-0.504,1.98-0.504c0.901,0,1.638,0.228,2.211,0.684c0.573,0.456,0.94,1.103,1.102,1.941l-1.367,0.211
				c-0.13-0.558-0.361-0.977-0.691-1.258c-0.331-0.281-0.73-0.422-1.199-0.422c-0.708,0-1.284,0.254-1.727,0.762
				c-0.443,0.508-0.664,1.312-0.664,2.41c0,1.114,0.213,1.925,0.641,2.43c0.427,0.505,0.984,0.758,1.672,0.758
				c0.552,0,1.013-0.169,1.383-0.508C316.337,124.745,316.571,124.225,316.67,123.521z"/>
			<path fill="#3C3C3B" d="M319.264,116.725v-1.617h1.406v1.617H319.264z M319.264,126.561v-8.297h1.406v8.297H319.264z"/>
			<path fill="#3C3C3B" d="M328.225,125.537c-0.521,0.442-1.022,0.755-1.504,0.938c-0.482,0.183-0.999,0.273-1.551,0.273
				c-0.912,0-1.612-0.223-2.102-0.668c-0.49-0.445-0.734-1.015-0.734-1.707c0-0.406,0.092-0.777,0.277-1.113
				c0.185-0.336,0.427-0.605,0.727-0.809c0.299-0.203,0.637-0.356,1.012-0.461c0.276-0.073,0.692-0.144,1.25-0.211
				c1.135-0.136,1.971-0.297,2.508-0.484c0.005-0.192,0.008-0.315,0.008-0.367c0-0.573-0.133-0.977-0.398-1.211
				c-0.359-0.317-0.894-0.477-1.602-0.477c-0.662,0-1.15,0.116-1.465,0.348c-0.315,0.231-0.548,0.642-0.699,1.23l-1.375-0.188
				c0.125-0.589,0.331-1.063,0.617-1.426c0.286-0.362,0.7-0.641,1.242-0.836c0.542-0.195,1.169-0.293,1.883-0.293
				c0.708,0,1.284,0.083,1.727,0.25c0.442,0.167,0.768,0.376,0.977,0.629c0.208,0.253,0.354,0.571,0.438,0.957
				c0.047,0.239,0.07,0.672,0.07,1.297v1.875c0,1.308,0.03,2.134,0.09,2.48c0.06,0.347,0.178,0.679,0.355,0.996h-1.469
				C328.36,126.269,328.266,125.928,328.225,125.537z M328.108,122.396c-0.511,0.208-1.276,0.386-2.297,0.531
				c-0.578,0.083-0.987,0.177-1.227,0.281c-0.24,0.104-0.425,0.257-0.555,0.457c-0.13,0.2-0.195,0.423-0.195,0.668
				c0,0.375,0.142,0.688,0.426,0.938c0.284,0.25,0.699,0.375,1.246,0.375c0.542,0,1.023-0.118,1.445-0.355s0.731-0.562,0.93-0.973
				c0.151-0.317,0.227-0.786,0.227-1.406V122.396z"/>
			<path fill="#3C3C3B" d="M331.147,124.084l1.391-0.219c0.078,0.558,0.295,0.984,0.652,1.281c0.356,0.297,0.855,0.445,1.496,0.445
				c0.646,0,1.125-0.132,1.438-0.395s0.469-0.571,0.469-0.926c0-0.317-0.138-0.567-0.414-0.75c-0.193-0.125-0.672-0.284-1.438-0.477
				c-1.031-0.261-1.746-0.485-2.145-0.676s-0.701-0.453-0.906-0.789c-0.206-0.336-0.309-0.707-0.309-1.113
				c0-0.37,0.084-0.712,0.254-1.027c0.169-0.315,0.399-0.577,0.691-0.785c0.219-0.161,0.517-0.298,0.895-0.41
				c0.377-0.112,0.782-0.168,1.215-0.168c0.651,0,1.223,0.094,1.715,0.281s0.855,0.441,1.09,0.762s0.396,0.749,0.484,1.285
				l-1.375,0.188c-0.062-0.427-0.244-0.761-0.543-1c-0.3-0.239-0.723-0.359-1.27-0.359c-0.646,0-1.107,0.106-1.383,0.32
				c-0.276,0.214-0.414,0.464-0.414,0.75c0,0.183,0.057,0.347,0.172,0.492c0.114,0.151,0.294,0.276,0.539,0.375
				c0.141,0.052,0.555,0.172,1.242,0.359c0.995,0.266,1.688,0.483,2.082,0.652c0.393,0.169,0.702,0.415,0.926,0.738
				c0.224,0.323,0.336,0.724,0.336,1.203c0,0.469-0.137,0.91-0.41,1.324s-0.668,0.734-1.184,0.961s-1.099,0.34-1.75,0.34
				c-1.078,0-1.9-0.224-2.465-0.672C331.663,125.628,331.303,124.964,331.147,124.084z"/>
			<path fill="#3C3C3B" d="M349.537,126.561v-1.047c-0.526,0.823-1.3,1.234-2.32,1.234c-0.662,0-1.27-0.183-1.824-0.547
				s-0.984-0.874-1.289-1.527s-0.457-1.405-0.457-2.254c0-0.828,0.138-1.579,0.414-2.254c0.276-0.675,0.69-1.191,1.242-1.551
				c0.552-0.359,1.169-0.539,1.852-0.539c0.5,0,0.945,0.105,1.336,0.316s0.708,0.485,0.953,0.824v-4.109h1.398v11.453H349.537z
				 M345.092,122.42c0,1.062,0.224,1.856,0.672,2.383c0.448,0.526,0.977,0.789,1.586,0.789c0.614,0,1.137-0.251,1.566-0.754
				s0.645-1.27,0.645-2.301c0-1.136-0.219-1.969-0.656-2.5s-0.977-0.797-1.617-0.797c-0.625,0-1.147,0.255-1.566,0.766
				C345.302,120.517,345.092,121.321,345.092,122.42z"/>
			<path fill="#3C3C3B" d="M358.733,123.889l1.453,0.18c-0.229,0.849-0.654,1.508-1.273,1.977c-0.62,0.469-1.412,0.703-2.375,0.703
				c-1.214,0-2.176-0.374-2.887-1.121s-1.066-1.796-1.066-3.145c0-1.396,0.359-2.479,1.078-3.25s1.651-1.156,2.797-1.156
				c1.109,0,2.016,0.378,2.719,1.133s1.055,1.817,1.055,3.188c0,0.083-0.003,0.208-0.008,0.375h-6.188
				c0.052,0.911,0.31,1.609,0.773,2.094c0.463,0.484,1.042,0.727,1.734,0.727c0.516,0,0.956-0.136,1.32-0.406
				C358.23,124.915,358.519,124.482,358.733,123.889z M354.115,121.615h4.633c-0.062-0.698-0.24-1.222-0.531-1.57
				c-0.448-0.542-1.029-0.812-1.742-0.812c-0.646,0-1.189,0.216-1.629,0.648C354.406,120.313,354.162,120.892,354.115,121.615z"/>
			<path fill="#3C3C3B" d="M365.803,123.311l1.367-0.188c0.036,0.875,0.2,1.474,0.492,1.797c0.292,0.323,0.695,0.484,1.211,0.484
				c0.38,0,0.708-0.087,0.984-0.262c0.276-0.175,0.466-0.411,0.57-0.711c0.104-0.3,0.156-0.777,0.156-1.434v-7.891h1.516v7.805
				c0,0.958-0.116,1.7-0.348,2.227c-0.232,0.526-0.599,0.927-1.102,1.203c-0.503,0.276-1.093,0.414-1.77,0.414
				c-1.005,0-1.775-0.289-2.309-0.867C366.038,125.311,365.782,124.451,365.803,123.311z"/>
			<path fill="#3C3C3B" d="M379.834,126.561v-1.219c-0.646,0.938-1.523,1.406-2.633,1.406c-0.49,0-0.947-0.094-1.371-0.281
				c-0.425-0.188-0.74-0.423-0.945-0.707c-0.206-0.284-0.351-0.632-0.434-1.043c-0.058-0.276-0.086-0.714-0.086-1.312v-5.141h1.406
				v4.602c0,0.734,0.028,1.229,0.086,1.484c0.088,0.37,0.276,0.66,0.562,0.871c0.286,0.211,0.641,0.316,1.062,0.316
				s0.817-0.108,1.188-0.324c0.37-0.216,0.631-0.511,0.785-0.883c0.153-0.372,0.23-0.913,0.23-1.621v-4.445h1.406v8.297H379.834z"/>
			<path fill="#3C3C3B" d="M382.733,124.084l1.391-0.219c0.078,0.558,0.295,0.984,0.652,1.281c0.356,0.297,0.855,0.445,1.496,0.445
				c0.646,0,1.125-0.132,1.438-0.395s0.469-0.571,0.469-0.926c0-0.317-0.138-0.567-0.414-0.75c-0.193-0.125-0.672-0.284-1.438-0.477
				c-1.031-0.261-1.746-0.485-2.145-0.676s-0.701-0.453-0.906-0.789c-0.206-0.336-0.309-0.707-0.309-1.113
				c0-0.37,0.084-0.712,0.254-1.027c0.169-0.315,0.399-0.577,0.691-0.785c0.219-0.161,0.517-0.298,0.895-0.41
				c0.377-0.112,0.782-0.168,1.215-0.168c0.651,0,1.223,0.094,1.715,0.281s0.855,0.441,1.09,0.762s0.396,0.749,0.484,1.285
				l-1.375,0.188c-0.062-0.427-0.244-0.761-0.543-1c-0.3-0.239-0.723-0.359-1.27-0.359c-0.646,0-1.107,0.106-1.383,0.32
				c-0.276,0.214-0.414,0.464-0.414,0.75c0,0.183,0.057,0.347,0.172,0.492c0.114,0.151,0.294,0.276,0.539,0.375
				c0.141,0.052,0.555,0.172,1.242,0.359c0.995,0.266,1.688,0.483,2.082,0.652c0.393,0.169,0.702,0.415,0.926,0.738
				c0.224,0.323,0.336,0.724,0.336,1.203c0,0.469-0.137,0.91-0.41,1.324s-0.668,0.734-1.184,0.961s-1.099,0.34-1.75,0.34
				c-1.078,0-1.9-0.224-2.465-0.672C383.249,125.628,382.889,124.964,382.733,124.084z"/>
			<path fill="#3C3C3B" d="M394.365,125.303l0.203,1.242c-0.396,0.083-0.75,0.125-1.062,0.125c-0.511,0-0.906-0.081-1.188-0.242
				s-0.479-0.374-0.594-0.637c-0.115-0.263-0.172-0.816-0.172-1.66v-4.773h-1.031v-1.094h1.031v-2.055l1.398-0.844v2.898h1.414
				v1.094h-1.414v4.852c0,0.401,0.024,0.659,0.074,0.773c0.049,0.114,0.13,0.206,0.242,0.273c0.112,0.067,0.272,0.102,0.48,0.102
				C393.905,125.357,394.11,125.339,394.365,125.303z"/>
			<path fill="#3C3C3B" d="M395.748,116.725v-1.617h1.406v1.617H395.748z M395.748,126.561v-8.297h1.406v8.297H395.748z"/>
			<path fill="#3C3C3B" d="M404.709,123.521l1.383,0.18c-0.151,0.953-0.538,1.699-1.16,2.238c-0.623,0.539-1.387,0.809-2.293,0.809
				c-1.136,0-2.048-0.371-2.738-1.113c-0.69-0.742-1.035-1.806-1.035-3.191c0-0.896,0.148-1.68,0.445-2.352s0.749-1.176,1.355-1.512
				c0.606-0.336,1.267-0.504,1.98-0.504c0.901,0,1.638,0.228,2.211,0.684c0.573,0.456,0.94,1.103,1.102,1.941l-1.367,0.211
				c-0.13-0.558-0.361-0.977-0.691-1.258c-0.331-0.281-0.73-0.422-1.199-0.422c-0.708,0-1.284,0.254-1.727,0.762
				c-0.443,0.508-0.664,1.312-0.664,2.41c0,1.114,0.213,1.925,0.641,2.43c0.427,0.505,0.984,0.758,1.672,0.758
				c0.552,0,1.013-0.169,1.383-0.508C404.376,124.745,404.61,124.225,404.709,123.521z"/>
			<path fill="#3C3C3B" d="M407.303,116.725v-1.617h1.406v1.617H407.303z M407.303,126.561v-8.297h1.406v8.297H407.303z"/>
			<path fill="#3C3C3B" d="M416.264,125.537c-0.521,0.442-1.022,0.755-1.504,0.938c-0.482,0.183-0.999,0.273-1.551,0.273
				c-0.912,0-1.612-0.223-2.102-0.668c-0.49-0.445-0.734-1.015-0.734-1.707c0-0.406,0.092-0.777,0.277-1.113
				c0.185-0.336,0.427-0.605,0.727-0.809c0.299-0.203,0.637-0.356,1.012-0.461c0.276-0.073,0.692-0.144,1.25-0.211
				c1.135-0.136,1.971-0.297,2.508-0.484c0.005-0.192,0.008-0.315,0.008-0.367c0-0.573-0.133-0.977-0.398-1.211
				c-0.359-0.317-0.894-0.477-1.602-0.477c-0.662,0-1.15,0.116-1.465,0.348c-0.315,0.231-0.548,0.642-0.699,1.23l-1.375-0.188
				c0.125-0.589,0.331-1.063,0.617-1.426c0.286-0.362,0.7-0.641,1.242-0.836c0.542-0.195,1.169-0.293,1.883-0.293
				c0.708,0,1.284,0.083,1.727,0.25c0.442,0.167,0.768,0.376,0.977,0.629c0.208,0.253,0.354,0.571,0.438,0.957
				c0.047,0.239,0.07,0.672,0.07,1.297v1.875c0,1.308,0.03,2.134,0.09,2.48c0.06,0.347,0.178,0.679,0.355,0.996h-1.469
				C416.399,126.269,416.305,125.928,416.264,125.537z M416.147,122.396c-0.511,0.208-1.276,0.386-2.297,0.531
				c-0.578,0.083-0.987,0.177-1.227,0.281c-0.24,0.104-0.425,0.257-0.555,0.457c-0.13,0.2-0.195,0.423-0.195,0.668
				c0,0.375,0.142,0.688,0.426,0.938c0.284,0.25,0.699,0.375,1.246,0.375c0.542,0,1.023-0.118,1.445-0.355s0.731-0.562,0.93-0.973
				c0.151-0.317,0.227-0.786,0.227-1.406V122.396z"/>
			<path fill="#3C3C3B" d="M424.131,129.756l-0.156-1.32c0.307,0.083,0.575,0.125,0.805,0.125c0.312,0,0.562-0.052,0.75-0.156
				s0.341-0.25,0.461-0.438c0.088-0.141,0.231-0.489,0.43-1.047c0.026-0.078,0.067-0.192,0.125-0.344l-3.148-8.312h1.516
				l1.727,4.805c0.224,0.609,0.424,1.25,0.602,1.922c0.161-0.646,0.354-1.276,0.578-1.891l1.773-4.836h1.406l-3.156,8.438
				c-0.339,0.911-0.602,1.539-0.789,1.883c-0.25,0.464-0.537,0.804-0.859,1.02c-0.323,0.216-0.708,0.324-1.156,0.324
				C424.766,129.928,424.464,129.87,424.131,129.756z"/>
			<path fill="#3C3C3B" d="M436.819,126.561v-11.453h4.32c0.76,0,1.341,0.036,1.742,0.109c0.562,0.094,1.034,0.272,1.414,0.535
				c0.38,0.263,0.686,0.632,0.918,1.105c0.231,0.474,0.348,0.995,0.348,1.562c0,0.974-0.31,1.798-0.93,2.473
				c-0.62,0.675-1.74,1.012-3.359,1.012h-2.938v4.656H436.819z M438.334,120.553h2.961c0.979,0,1.674-0.183,2.086-0.547
				c0.411-0.364,0.617-0.878,0.617-1.539c0-0.479-0.121-0.89-0.363-1.23s-0.562-0.566-0.957-0.676
				c-0.255-0.067-0.727-0.102-1.414-0.102h-2.93V120.553z"/>
			<path fill="#3C3C3B" d="M452.725,125.537c-0.521,0.442-1.022,0.755-1.504,0.938c-0.482,0.183-0.999,0.273-1.551,0.273
				c-0.912,0-1.612-0.223-2.102-0.668c-0.49-0.445-0.734-1.015-0.734-1.707c0-0.406,0.092-0.777,0.277-1.113
				c0.185-0.336,0.427-0.605,0.727-0.809c0.299-0.203,0.637-0.356,1.012-0.461c0.276-0.073,0.692-0.144,1.25-0.211
				c1.135-0.136,1.971-0.297,2.508-0.484c0.005-0.192,0.008-0.315,0.008-0.367c0-0.573-0.133-0.977-0.398-1.211
				c-0.359-0.317-0.894-0.477-1.602-0.477c-0.662,0-1.15,0.116-1.465,0.348c-0.315,0.231-0.548,0.642-0.699,1.23l-1.375-0.188
				c0.125-0.589,0.331-1.063,0.617-1.426c0.286-0.362,0.7-0.641,1.242-0.836c0.542-0.195,1.169-0.293,1.883-0.293
				c0.708,0,1.284,0.083,1.727,0.25c0.442,0.167,0.768,0.376,0.977,0.629c0.208,0.253,0.354,0.571,0.438,0.957
				c0.047,0.239,0.07,0.672,0.07,1.297v1.875c0,1.308,0.03,2.134,0.09,2.48c0.06,0.347,0.178,0.679,0.355,0.996h-1.469
				C452.86,126.269,452.766,125.928,452.725,125.537z M452.608,122.396c-0.511,0.208-1.276,0.386-2.297,0.531
				c-0.578,0.083-0.987,0.177-1.227,0.281c-0.24,0.104-0.425,0.257-0.555,0.457c-0.13,0.2-0.195,0.423-0.195,0.668
				c0,0.375,0.142,0.688,0.426,0.938c0.284,0.25,0.699,0.375,1.246,0.375c0.542,0,1.023-0.118,1.445-0.355s0.731-0.562,0.93-0.973
				c0.151-0.317,0.227-0.786,0.227-1.406V122.396z"/>
			<path fill="#3C3C3B" d="M455.467,126.561v-1.141l5.281-6.062c-0.599,0.031-1.128,0.047-1.586,0.047h-3.383v-1.141h6.781v0.93
				l-4.492,5.266l-0.867,0.961c0.63-0.047,1.221-0.07,1.773-0.07h3.836v1.211H455.467z"/>
			<path fill="#3C3C3B" d="M464.6,119.865v-1.602h1.602v1.602H464.6z M464.6,126.561v-1.602h1.602v1.602H464.6z"/>
			<path fill="#3C3C3B" d="M472.506,123.311l1.367-0.188c0.036,0.875,0.2,1.474,0.492,1.797c0.292,0.323,0.695,0.484,1.211,0.484
				c0.38,0,0.708-0.087,0.984-0.262c0.276-0.175,0.466-0.411,0.57-0.711c0.104-0.3,0.156-0.777,0.156-1.434v-7.891h1.516v7.805
				c0,0.958-0.116,1.7-0.348,2.227c-0.232,0.526-0.599,0.927-1.102,1.203c-0.503,0.276-1.093,0.414-1.77,0.414
				c-1.005,0-1.775-0.289-2.309-0.867C472.741,125.311,472.485,124.451,472.506,123.311z"/>
			<path fill="#3C3C3B" d="M486.537,126.561v-1.219c-0.646,0.938-1.523,1.406-2.633,1.406c-0.49,0-0.947-0.094-1.371-0.281
				c-0.425-0.188-0.74-0.423-0.945-0.707c-0.206-0.284-0.351-0.632-0.434-1.043c-0.058-0.276-0.086-0.714-0.086-1.312v-5.141h1.406
				v4.602c0,0.734,0.028,1.229,0.086,1.484c0.088,0.37,0.276,0.66,0.562,0.871c0.286,0.211,0.641,0.316,1.062,0.316
				s0.817-0.108,1.188-0.324c0.37-0.216,0.631-0.511,0.785-0.883c0.153-0.372,0.23-0.913,0.23-1.621v-4.445h1.406v8.297H486.537z"/>
			<path fill="#3C3C3B" d="M489.967,126.561v-11.453h1.406v11.453H489.967z"/>
			<path fill="#3C3C3B" d="M493.561,116.725v-1.617h1.406v1.617H493.561z M493.561,126.561v-8.297h1.406v8.297H493.561z"/>
			<path fill="#3C3C3B" d="M502.522,125.537c-0.521,0.442-1.022,0.755-1.504,0.938c-0.482,0.183-0.999,0.273-1.551,0.273
				c-0.912,0-1.612-0.223-2.102-0.668c-0.49-0.445-0.734-1.015-0.734-1.707c0-0.406,0.092-0.777,0.277-1.113
				c0.185-0.336,0.427-0.605,0.727-0.809c0.299-0.203,0.637-0.356,1.012-0.461c0.276-0.073,0.692-0.144,1.25-0.211
				c1.135-0.136,1.971-0.297,2.508-0.484c0.005-0.192,0.008-0.315,0.008-0.367c0-0.573-0.133-0.977-0.398-1.211
				c-0.359-0.317-0.894-0.477-1.602-0.477c-0.662,0-1.15,0.116-1.465,0.348c-0.315,0.231-0.548,0.642-0.699,1.23l-1.375-0.188
				c0.125-0.589,0.331-1.063,0.617-1.426c0.286-0.362,0.7-0.641,1.242-0.836c0.542-0.195,1.169-0.293,1.883-0.293
				c0.708,0,1.284,0.083,1.727,0.25c0.442,0.167,0.768,0.376,0.977,0.629c0.208,0.253,0.354,0.571,0.438,0.957
				c0.047,0.239,0.07,0.672,0.07,1.297v1.875c0,1.308,0.03,2.134,0.09,2.48c0.06,0.347,0.178,0.679,0.355,0.996h-1.469
				C502.657,126.269,502.563,125.928,502.522,125.537z M502.405,122.396c-0.511,0.208-1.276,0.386-2.297,0.531
				c-0.578,0.083-0.987,0.177-1.227,0.281c-0.24,0.104-0.425,0.257-0.555,0.457c-0.13,0.2-0.195,0.423-0.195,0.668
				c0,0.375,0.142,0.688,0.426,0.938c0.284,0.25,0.699,0.375,1.246,0.375c0.542,0,1.023-0.118,1.445-0.355s0.731-0.562,0.93-0.973
				c0.151-0.317,0.227-0.786,0.227-1.406V122.396z M499.67,117.232l1.039-2.188h1.844l-1.719,2.188H499.67z"/>
			<path fill="#3C3C3B" d="M506.006,126.561v-8.297h1.266v1.18c0.609-0.911,1.489-1.367,2.641-1.367c0.5,0,0.959,0.09,1.379,0.27
				c0.419,0.18,0.733,0.415,0.941,0.707c0.208,0.292,0.354,0.638,0.438,1.039c0.052,0.261,0.078,0.716,0.078,1.367v5.102h-1.406
				v-5.047c0-0.573-0.055-1.001-0.164-1.285s-0.304-0.511-0.582-0.68c-0.279-0.169-0.605-0.254-0.98-0.254
				c-0.599,0-1.116,0.19-1.551,0.57c-0.435,0.38-0.652,1.102-0.652,2.164v4.531H506.006z"/>
			<path fill="#3C3C3B" d="M260.662,145.76v-11.453h4.297c0.875,0,1.577,0.116,2.105,0.348c0.528,0.231,0.942,0.589,1.242,1.07
				c0.299,0.481,0.449,0.985,0.449,1.512c0,0.489-0.133,0.95-0.398,1.383s-0.667,0.781-1.203,1.047
				c0.692,0.203,1.225,0.55,1.598,1.039c0.372,0.489,0.559,1.067,0.559,1.734c0,0.536-0.113,1.035-0.34,1.496
				s-0.507,0.816-0.84,1.066c-0.333,0.25-0.751,0.438-1.254,0.566c-0.503,0.128-1.119,0.191-1.848,0.191H260.662z M262.178,139.119
				h2.477c0.672,0,1.153-0.044,1.445-0.133c0.385-0.114,0.676-0.305,0.871-0.57s0.293-0.599,0.293-1c0-0.38-0.091-0.715-0.273-1.004
				c-0.183-0.289-0.443-0.487-0.781-0.594c-0.339-0.106-0.919-0.16-1.742-0.16h-2.289V139.119z M262.178,144.408h2.852
				c0.489,0,0.833-0.019,1.031-0.055c0.349-0.062,0.641-0.167,0.875-0.312s0.427-0.358,0.578-0.637
				c0.151-0.278,0.227-0.601,0.227-0.965c0-0.427-0.109-0.798-0.328-1.113s-0.522-0.536-0.91-0.664
				c-0.388-0.128-0.947-0.191-1.676-0.191h-2.648V144.408z"/>
			<path fill="#3C3C3B" d="M270.694,141.611c0-1.536,0.427-2.675,1.281-3.414c0.713-0.614,1.583-0.922,2.609-0.922
				c1.141,0,2.073,0.374,2.797,1.121c0.724,0.747,1.086,1.78,1.086,3.098c0,1.067-0.16,1.907-0.48,2.52s-0.787,1.087-1.398,1.426
				c-0.612,0.339-1.28,0.508-2.004,0.508c-1.162,0-2.101-0.372-2.816-1.117C271.052,144.085,270.694,143.013,270.694,141.611z
				 M272.139,141.611c0,1.062,0.231,1.858,0.695,2.387c0.463,0.528,1.047,0.793,1.75,0.793c0.698,0,1.278-0.266,1.742-0.797
				c0.463-0.531,0.695-1.341,0.695-2.43c0-1.026-0.233-1.804-0.699-2.332c-0.466-0.528-1.046-0.793-1.738-0.793
				c-0.703,0-1.287,0.263-1.75,0.789C272.37,139.755,272.139,140.549,272.139,141.611z"/>
			<path fill="#3C3C3B" d="M280.084,145.76v-11.453h1.406v11.453H280.084z"/>
			<path fill="#3C3C3B" d="M284.092,136.432l1.039-2.188h1.844l-1.719,2.188H284.092z M284.162,145.76v-8.297h1.406v8.297H284.162z"
				/>
			<path fill="#3C3C3B" d="M290.42,145.76l-3.156-8.297h1.484l1.781,4.969c0.192,0.536,0.37,1.094,0.531,1.672
				c0.125-0.438,0.299-0.964,0.523-1.578l1.844-5.062h1.445l-3.141,8.297H290.42z"/>
			<path fill="#3C3C3B" d="M301.53,144.736c-0.521,0.442-1.022,0.755-1.504,0.938c-0.482,0.183-0.999,0.273-1.551,0.273
				c-0.912,0-1.612-0.223-2.102-0.668c-0.49-0.445-0.734-1.015-0.734-1.707c0-0.406,0.092-0.777,0.277-1.113
				c0.185-0.336,0.427-0.605,0.727-0.809c0.299-0.203,0.637-0.356,1.012-0.461c0.276-0.073,0.692-0.144,1.25-0.211
				c1.135-0.136,1.971-0.297,2.508-0.484c0.005-0.192,0.008-0.315,0.008-0.367c0-0.573-0.133-0.977-0.398-1.211
				c-0.359-0.317-0.894-0.477-1.602-0.477c-0.662,0-1.15,0.116-1.465,0.348c-0.315,0.231-0.548,0.642-0.699,1.23l-1.375-0.188
				c0.125-0.589,0.331-1.063,0.617-1.426c0.286-0.362,0.7-0.641,1.242-0.836c0.542-0.195,1.169-0.293,1.883-0.293
				c0.708,0,1.284,0.083,1.727,0.25c0.442,0.167,0.768,0.376,0.977,0.629c0.208,0.253,0.354,0.571,0.438,0.957
				c0.047,0.239,0.07,0.672,0.07,1.297v1.875c0,1.308,0.03,2.134,0.09,2.48c0.06,0.347,0.178,0.679,0.355,0.996h-1.469
				C301.665,145.468,301.571,145.127,301.53,144.736z M301.412,141.596c-0.511,0.208-1.276,0.386-2.297,0.531
				c-0.578,0.083-0.987,0.177-1.227,0.281c-0.24,0.104-0.425,0.257-0.555,0.457c-0.13,0.2-0.195,0.423-0.195,0.668
				c0,0.375,0.142,0.688,0.426,0.938c0.284,0.25,0.699,0.375,1.246,0.375c0.542,0,1.023-0.118,1.445-0.355s0.731-0.562,0.93-0.973
				c0.151-0.317,0.227-0.786,0.227-1.406V141.596z"/>
			<path fill="#3C3C3B" d="M304.998,145.76v-8.297h1.266v1.258c0.323-0.589,0.621-0.977,0.895-1.164s0.574-0.281,0.902-0.281
				c0.474,0,0.956,0.151,1.445,0.453l-0.484,1.305c-0.344-0.203-0.688-0.305-1.031-0.305c-0.308,0-0.583,0.093-0.828,0.277
				c-0.245,0.185-0.419,0.441-0.523,0.77c-0.156,0.5-0.234,1.047-0.234,1.641v4.344H304.998z"/>
			<path fill="#3C3C3B" d="M313.701,142.182v-1.133h8.898v1.133H313.701z"/>
			<path fill="#3C3C3B" d="M328.264,145.76v-11.453h2.281l2.711,8.109c0.25,0.755,0.432,1.32,0.547,1.695
				c0.13-0.417,0.333-1.028,0.609-1.836l2.742-7.969h2.039v11.453h-1.461v-9.586l-3.328,9.586h-1.367l-3.312-9.75v9.75H328.264z"/>
			<path fill="#3C3C3B" d="M346.873,144.736c-0.521,0.442-1.022,0.755-1.504,0.938c-0.482,0.183-0.999,0.273-1.551,0.273
				c-0.912,0-1.612-0.223-2.102-0.668c-0.49-0.445-0.734-1.015-0.734-1.707c0-0.406,0.092-0.777,0.277-1.113
				c0.185-0.336,0.427-0.605,0.727-0.809c0.299-0.203,0.637-0.356,1.012-0.461c0.276-0.073,0.692-0.144,1.25-0.211
				c1.135-0.136,1.971-0.297,2.508-0.484c0.005-0.192,0.008-0.315,0.008-0.367c0-0.573-0.133-0.977-0.398-1.211
				c-0.359-0.317-0.894-0.477-1.602-0.477c-0.662,0-1.15,0.116-1.465,0.348c-0.315,0.231-0.548,0.642-0.699,1.23l-1.375-0.188
				c0.125-0.589,0.331-1.063,0.617-1.426c0.286-0.362,0.7-0.641,1.242-0.836c0.542-0.195,1.169-0.293,1.883-0.293
				c0.708,0,1.284,0.083,1.727,0.25c0.442,0.167,0.768,0.376,0.977,0.629c0.208,0.253,0.354,0.571,0.438,0.957
				c0.047,0.239,0.07,0.672,0.07,1.297v1.875c0,1.308,0.03,2.134,0.09,2.48c0.06,0.347,0.178,0.679,0.355,0.996h-1.469
				C347.009,145.468,346.915,145.127,346.873,144.736z M346.756,141.596c-0.511,0.208-1.276,0.386-2.297,0.531
				c-0.578,0.083-0.987,0.177-1.227,0.281c-0.24,0.104-0.425,0.257-0.555,0.457c-0.13,0.2-0.195,0.423-0.195,0.668
				c0,0.375,0.142,0.688,0.426,0.938c0.284,0.25,0.699,0.375,1.246,0.375c0.542,0,1.023-0.118,1.445-0.355s0.731-0.562,0.93-0.973
				c0.151-0.317,0.227-0.786,0.227-1.406V141.596z"/>
			<path fill="#3C3C3B" d="M350.342,145.76v-8.297h1.266v1.258c0.323-0.589,0.621-0.977,0.895-1.164s0.574-0.281,0.902-0.281
				c0.474,0,0.956,0.151,1.445,0.453l-0.484,1.305c-0.344-0.203-0.688-0.305-1.031-0.305c-0.308,0-0.583,0.093-0.828,0.277
				c-0.245,0.185-0.419,0.441-0.523,0.77c-0.156,0.5-0.234,1.047-0.234,1.641v4.344H350.342z"/>
			<path fill="#3C3C3B" d="M356.108,136.432l1.039-2.188h1.844l-1.719,2.188H356.108z M356.178,145.76v-8.297h1.406v8.297H356.178z"
				/>
			<path fill="#3C3C3B" d="M365.545,144.736c-0.521,0.442-1.022,0.755-1.504,0.938c-0.482,0.183-0.999,0.273-1.551,0.273
				c-0.912,0-1.612-0.223-2.102-0.668c-0.49-0.445-0.734-1.015-0.734-1.707c0-0.406,0.092-0.777,0.277-1.113
				c0.185-0.336,0.427-0.605,0.727-0.809c0.299-0.203,0.637-0.356,1.012-0.461c0.276-0.073,0.692-0.144,1.25-0.211
				c1.135-0.136,1.971-0.297,2.508-0.484c0.005-0.192,0.008-0.315,0.008-0.367c0-0.573-0.133-0.977-0.398-1.211
				c-0.359-0.317-0.894-0.477-1.602-0.477c-0.662,0-1.15,0.116-1.465,0.348c-0.315,0.231-0.548,0.642-0.699,1.23l-1.375-0.188
				c0.125-0.589,0.331-1.063,0.617-1.426c0.286-0.362,0.7-0.641,1.242-0.836c0.542-0.195,1.169-0.293,1.883-0.293
				c0.708,0,1.284,0.083,1.727,0.25c0.442,0.167,0.768,0.376,0.977,0.629c0.208,0.253,0.354,0.571,0.438,0.957
				c0.047,0.239,0.07,0.672,0.07,1.297v1.875c0,1.308,0.03,2.134,0.09,2.48c0.06,0.347,0.178,0.679,0.355,0.996h-1.469
				C365.68,145.468,365.587,145.127,365.545,144.736z M365.428,141.596c-0.511,0.208-1.276,0.386-2.297,0.531
				c-0.578,0.083-0.987,0.177-1.227,0.281c-0.24,0.104-0.425,0.257-0.555,0.457c-0.13,0.2-0.195,0.423-0.195,0.668
				c0,0.375,0.142,0.688,0.426,0.938c0.284,0.25,0.699,0.375,1.246,0.375c0.542,0,1.023-0.118,1.445-0.355s0.731-0.562,0.93-0.973
				c0.151-0.317,0.227-0.786,0.227-1.406V141.596z"/>
			<path fill="#3C3C3B" d="M373.592,145.76v-11.453h4.297c0.875,0,1.577,0.116,2.105,0.348c0.528,0.231,0.942,0.589,1.242,1.07
				c0.299,0.481,0.449,0.985,0.449,1.512c0,0.489-0.133,0.95-0.398,1.383s-0.667,0.781-1.203,1.047
				c0.692,0.203,1.225,0.55,1.598,1.039c0.372,0.489,0.559,1.067,0.559,1.734c0,0.536-0.113,1.035-0.34,1.496
				s-0.507,0.816-0.84,1.066c-0.333,0.25-0.751,0.438-1.254,0.566c-0.503,0.128-1.119,0.191-1.848,0.191H373.592z M375.108,139.119
				h2.477c0.672,0,1.153-0.044,1.445-0.133c0.385-0.114,0.676-0.305,0.871-0.57s0.293-0.599,0.293-1c0-0.38-0.091-0.715-0.273-1.004
				c-0.183-0.289-0.443-0.487-0.781-0.594c-0.339-0.106-0.919-0.16-1.742-0.16h-2.289V139.119z M375.108,144.408h2.852
				c0.489,0,0.833-0.019,1.031-0.055c0.349-0.062,0.641-0.167,0.875-0.312s0.427-0.358,0.578-0.637
				c0.151-0.278,0.227-0.601,0.227-0.965c0-0.427-0.109-0.798-0.328-1.113s-0.522-0.536-0.91-0.664
				c-0.388-0.128-0.947-0.191-1.676-0.191h-2.648V144.408z"/>
			<path fill="#3C3C3B" d="M383.623,141.611c0-1.536,0.427-2.675,1.281-3.414c0.713-0.614,1.583-0.922,2.609-0.922
				c1.141,0,2.073,0.374,2.797,1.121c0.724,0.747,1.086,1.78,1.086,3.098c0,1.067-0.16,1.907-0.48,2.52s-0.787,1.087-1.398,1.426
				c-0.612,0.339-1.28,0.508-2.004,0.508c-1.162,0-2.101-0.372-2.816-1.117C383.981,144.085,383.623,143.013,383.623,141.611z
				 M385.069,141.611c0,1.062,0.231,1.858,0.695,2.387c0.463,0.528,1.047,0.793,1.75,0.793c0.698,0,1.278-0.266,1.742-0.797
				c0.463-0.531,0.695-1.341,0.695-2.43c0-1.026-0.233-1.804-0.699-2.332c-0.466-0.528-1.046-0.793-1.738-0.793
				c-0.703,0-1.287,0.263-1.75,0.789C385.3,139.755,385.069,140.549,385.069,141.611z"/>
			<path fill="#3C3C3B" d="M393.045,145.76v-8.297h1.266v1.18c0.609-0.911,1.489-1.367,2.641-1.367c0.5,0,0.959,0.09,1.379,0.27
				c0.419,0.18,0.733,0.415,0.941,0.707c0.208,0.292,0.354,0.638,0.438,1.039c0.052,0.261,0.078,0.716,0.078,1.367v5.102h-1.406
				v-5.047c0-0.573-0.055-1.001-0.164-1.285s-0.304-0.511-0.582-0.68c-0.279-0.169-0.605-0.254-0.98-0.254
				c-0.599,0-1.116,0.19-1.551,0.57c-0.435,0.38-0.652,1.102-0.652,2.164v4.531H393.045z"/>
			<path fill="#3C3C3B" d="M401.951,135.924v-1.617h1.406v1.617H401.951z M401.951,145.76v-8.297h1.406v8.297H401.951z"/>
			<path fill="#3C3C3B" d="M408.569,144.502l0.203,1.242c-0.396,0.083-0.75,0.125-1.062,0.125c-0.511,0-0.906-0.081-1.188-0.242
				s-0.479-0.374-0.594-0.637c-0.115-0.263-0.172-0.816-0.172-1.66v-4.773h-1.031v-1.094h1.031v-2.055l1.398-0.844v2.898h1.414
				v1.094h-1.414v4.852c0,0.401,0.024,0.659,0.074,0.773c0.049,0.114,0.13,0.206,0.242,0.273c0.112,0.067,0.272,0.102,0.48,0.102
				C408.108,144.557,408.313,144.538,408.569,144.502z"/>
			<path fill="#3C3C3B" d="M415.358,144.736c-0.521,0.442-1.022,0.755-1.504,0.938c-0.482,0.183-0.999,0.273-1.551,0.273
				c-0.912,0-1.612-0.223-2.102-0.668c-0.49-0.445-0.734-1.015-0.734-1.707c0-0.406,0.092-0.777,0.277-1.113
				c0.185-0.336,0.427-0.605,0.727-0.809c0.299-0.203,0.637-0.356,1.012-0.461c0.276-0.073,0.692-0.144,1.25-0.211
				c1.135-0.136,1.971-0.297,2.508-0.484c0.005-0.192,0.008-0.315,0.008-0.367c0-0.573-0.133-0.977-0.398-1.211
				c-0.359-0.317-0.894-0.477-1.602-0.477c-0.662,0-1.15,0.116-1.465,0.348c-0.315,0.231-0.548,0.642-0.699,1.23l-1.375-0.188
				c0.125-0.589,0.331-1.063,0.617-1.426c0.286-0.362,0.7-0.641,1.242-0.836c0.542-0.195,1.169-0.293,1.883-0.293
				c0.708,0,1.284,0.083,1.727,0.25c0.442,0.167,0.768,0.376,0.977,0.629c0.208,0.253,0.354,0.571,0.438,0.957
				c0.047,0.239,0.07,0.672,0.07,1.297v1.875c0,1.308,0.03,2.134,0.09,2.48c0.06,0.347,0.178,0.679,0.355,0.996h-1.469
				C415.493,145.468,415.399,145.127,415.358,144.736z M415.24,141.596c-0.511,0.208-1.276,0.386-2.297,0.531
				c-0.578,0.083-0.987,0.177-1.227,0.281c-0.24,0.104-0.425,0.257-0.555,0.457c-0.13,0.2-0.195,0.423-0.195,0.668
				c0,0.375,0.142,0.688,0.426,0.938c0.284,0.25,0.699,0.375,1.246,0.375c0.542,0,1.023-0.118,1.445-0.355s0.731-0.562,0.93-0.973
				c0.151-0.317,0.227-0.786,0.227-1.406V141.596z"/>
			<path fill="#3C3C3B" d="M419.209,145.76v-1.602h1.602v1.602c0,0.589-0.104,1.063-0.312,1.426
				c-0.208,0.362-0.539,0.642-0.992,0.84l-0.391-0.602c0.297-0.13,0.516-0.321,0.656-0.574s0.219-0.616,0.234-1.09H419.209z"/>
			<path fill="#3C3C3B" d="M427.85,145.76v-11.453h1.516v10.102h5.641v1.352H427.85z"/>
			<path fill="#3C3C3B" d="M442.069,145.76v-1.219c-0.646,0.938-1.523,1.406-2.633,1.406c-0.49,0-0.947-0.094-1.371-0.281
				c-0.425-0.188-0.74-0.423-0.945-0.707c-0.206-0.284-0.351-0.632-0.434-1.043c-0.058-0.276-0.086-0.714-0.086-1.312v-5.141h1.406
				v4.602c0,0.734,0.028,1.229,0.086,1.484c0.088,0.37,0.276,0.66,0.562,0.871c0.286,0.211,0.641,0.316,1.062,0.316
				s0.817-0.108,1.188-0.324c0.37-0.216,0.631-0.511,0.785-0.883c0.153-0.372,0.23-0.913,0.23-1.621v-4.445h1.406v8.297H442.069z"/>
			<path fill="#3C3C3B" d="M445.537,135.924v-1.617h1.406v1.617H445.537z M445.537,145.76v-8.297h1.406v8.297H445.537z"/>
			<path fill="#3C3C3B" d="M448.522,143.283l1.391-0.219c0.078,0.558,0.295,0.984,0.652,1.281c0.356,0.297,0.855,0.445,1.496,0.445
				c0.646,0,1.125-0.132,1.438-0.395s0.469-0.571,0.469-0.926c0-0.317-0.138-0.567-0.414-0.75c-0.193-0.125-0.672-0.284-1.438-0.477
				c-1.031-0.261-1.746-0.485-2.145-0.676s-0.701-0.453-0.906-0.789c-0.206-0.336-0.309-0.707-0.309-1.113
				c0-0.37,0.084-0.712,0.254-1.027c0.169-0.315,0.399-0.577,0.691-0.785c0.219-0.161,0.517-0.298,0.895-0.41
				c0.377-0.112,0.782-0.168,1.215-0.168c0.651,0,1.223,0.094,1.715,0.281s0.855,0.441,1.09,0.762s0.396,0.749,0.484,1.285
				l-1.375,0.188c-0.062-0.427-0.244-0.761-0.543-1c-0.3-0.239-0.723-0.359-1.27-0.359c-0.646,0-1.107,0.106-1.383,0.32
				c-0.276,0.214-0.414,0.464-0.414,0.75c0,0.183,0.057,0.347,0.172,0.492c0.114,0.151,0.294,0.276,0.539,0.375
				c0.141,0.052,0.555,0.172,1.242,0.359c0.995,0.266,1.688,0.483,2.082,0.652c0.393,0.169,0.702,0.415,0.926,0.738
				c0.224,0.323,0.336,0.724,0.336,1.203c0,0.469-0.137,0.91-0.41,1.324s-0.668,0.734-1.184,0.961s-1.099,0.34-1.75,0.34
				c-1.078,0-1.9-0.224-2.465-0.672C449.038,144.827,448.678,144.163,448.522,143.283z"/>
			<path fill="#3C3C3B" d="M461.709,145.76v-11.453h4.32c0.76,0,1.341,0.036,1.742,0.109c0.562,0.094,1.034,0.272,1.414,0.535
				c0.38,0.263,0.686,0.632,0.918,1.105c0.231,0.474,0.348,0.995,0.348,1.562c0,0.974-0.31,1.798-0.93,2.473
				c-0.62,0.675-1.74,1.012-3.359,1.012h-2.938v4.656H461.709z M463.225,139.752h2.961c0.979,0,1.674-0.183,2.086-0.547
				c0.411-0.364,0.617-0.878,0.617-1.539c0-0.479-0.121-0.89-0.363-1.23s-0.562-0.566-0.957-0.676
				c-0.255-0.067-0.727-0.102-1.414-0.102h-2.93V139.752z"/>
			<path fill="#3C3C3B" d="M477.881,143.088l1.453,0.18c-0.229,0.849-0.654,1.508-1.273,1.977c-0.62,0.469-1.412,0.703-2.375,0.703
				c-1.214,0-2.176-0.374-2.887-1.121s-1.066-1.796-1.066-3.145c0-1.396,0.359-2.479,1.078-3.25s1.651-1.156,2.797-1.156
				c1.109,0,2.016,0.378,2.719,1.133s1.055,1.817,1.055,3.188c0,0.083-0.003,0.208-0.008,0.375h-6.188
				c0.052,0.911,0.31,1.609,0.773,2.094c0.463,0.484,1.042,0.727,1.734,0.727c0.516,0,0.956-0.136,1.32-0.406
				C477.378,144.114,477.667,143.682,477.881,143.088z M473.264,140.814h4.633c-0.062-0.698-0.24-1.222-0.531-1.57
				c-0.448-0.542-1.029-0.812-1.742-0.812c-0.646,0-1.189,0.216-1.629,0.648C473.554,139.513,473.311,140.091,473.264,140.814z"/>
			<path fill="#3C3C3B" d="M480.537,143.283l1.391-0.219c0.078,0.558,0.295,0.984,0.652,1.281c0.356,0.297,0.855,0.445,1.496,0.445
				c0.646,0,1.125-0.132,1.438-0.395s0.469-0.571,0.469-0.926c0-0.317-0.138-0.567-0.414-0.75c-0.193-0.125-0.672-0.284-1.438-0.477
				c-1.031-0.261-1.746-0.485-2.145-0.676s-0.701-0.453-0.906-0.789c-0.206-0.336-0.309-0.707-0.309-1.113
				c0-0.37,0.084-0.712,0.254-1.027c0.169-0.315,0.399-0.577,0.691-0.785c0.219-0.161,0.517-0.298,0.895-0.41
				c0.377-0.112,0.782-0.168,1.215-0.168c0.651,0,1.223,0.094,1.715,0.281s0.855,0.441,1.09,0.762s0.396,0.749,0.484,1.285
				l-1.375,0.188c-0.062-0.427-0.244-0.761-0.543-1c-0.3-0.239-0.723-0.359-1.27-0.359c-0.646,0-1.107,0.106-1.383,0.32
				c-0.276,0.214-0.414,0.464-0.414,0.75c0,0.183,0.057,0.347,0.172,0.492c0.114,0.151,0.294,0.276,0.539,0.375
				c0.141,0.052,0.555,0.172,1.242,0.359c0.995,0.266,1.688,0.483,2.082,0.652c0.393,0.169,0.702,0.415,0.926,0.738
				c0.224,0.323,0.336,0.724,0.336,1.203c0,0.469-0.137,0.91-0.41,1.324s-0.668,0.734-1.184,0.961s-1.099,0.34-1.75,0.34
				c-1.078,0-1.9-0.224-2.465-0.672C481.054,144.827,480.694,144.163,480.537,143.283z"/>
			<path fill="#3C3C3B" d="M492.17,144.502l0.203,1.242c-0.396,0.083-0.75,0.125-1.062,0.125c-0.511,0-0.906-0.081-1.188-0.242
				s-0.479-0.374-0.594-0.637c-0.115-0.263-0.172-0.816-0.172-1.66v-4.773h-1.031v-1.094h1.031v-2.055l1.398-0.844v2.898h1.414
				v1.094h-1.414v4.852c0,0.401,0.024,0.659,0.074,0.773c0.049,0.114,0.13,0.206,0.242,0.273c0.112,0.067,0.272,0.102,0.48,0.102
				C491.709,144.557,491.915,144.538,492.17,144.502z"/>
			<path fill="#3C3C3B" d="M498.959,144.736c-0.521,0.442-1.022,0.755-1.504,0.938c-0.482,0.183-0.999,0.273-1.551,0.273
				c-0.912,0-1.612-0.223-2.102-0.668c-0.49-0.445-0.734-1.015-0.734-1.707c0-0.406,0.092-0.777,0.277-1.113
				c0.185-0.336,0.427-0.605,0.727-0.809c0.299-0.203,0.637-0.356,1.012-0.461c0.276-0.073,0.692-0.144,1.25-0.211
				c1.135-0.136,1.971-0.297,2.508-0.484c0.005-0.192,0.008-0.315,0.008-0.367c0-0.573-0.133-0.977-0.398-1.211
				c-0.359-0.317-0.894-0.477-1.602-0.477c-0.662,0-1.15,0.116-1.465,0.348c-0.315,0.231-0.548,0.642-0.699,1.23l-1.375-0.188
				c0.125-0.589,0.331-1.063,0.617-1.426c0.286-0.362,0.7-0.641,1.242-0.836c0.542-0.195,1.169-0.293,1.883-0.293
				c0.708,0,1.284,0.083,1.727,0.25c0.442,0.167,0.768,0.376,0.977,0.629c0.208,0.253,0.354,0.571,0.438,0.957
				c0.047,0.239,0.07,0.672,0.07,1.297v1.875c0,1.308,0.03,2.134,0.09,2.48c0.06,0.347,0.178,0.679,0.355,0.996h-1.469
				C499.094,145.468,499.001,145.127,498.959,144.736z M498.842,141.596c-0.511,0.208-1.276,0.386-2.297,0.531
				c-0.578,0.083-0.987,0.177-1.227,0.281c-0.24,0.104-0.425,0.257-0.555,0.457c-0.13,0.2-0.195,0.423-0.195,0.668
				c0,0.375,0.142,0.688,0.426,0.938c0.284,0.25,0.699,0.375,1.246,0.375c0.542,0,1.023-0.118,1.445-0.355s0.731-0.562,0.93-0.973
				c0.151-0.317,0.227-0.786,0.227-1.406V141.596z"/>
			<path fill="#3C3C3B" d="M502.444,145.76v-8.297h1.266v1.18c0.609-0.911,1.489-1.367,2.641-1.367c0.5,0,0.959,0.09,1.379,0.27
				c0.419,0.18,0.733,0.415,0.941,0.707c0.208,0.292,0.354,0.638,0.438,1.039c0.052,0.261,0.078,0.716,0.078,1.367v5.102h-1.406
				v-5.047c0-0.573-0.055-1.001-0.164-1.285s-0.304-0.511-0.582-0.68c-0.279-0.169-0.605-0.254-0.98-0.254
				c-0.599,0-1.116,0.19-1.551,0.57c-0.435,0.38-0.652,1.102-0.652,2.164v4.531H502.444z"/>
			<path fill="#3C3C3B" d="M516.756,144.736c-0.521,0.442-1.022,0.755-1.504,0.938c-0.482,0.183-0.999,0.273-1.551,0.273
				c-0.912,0-1.612-0.223-2.102-0.668c-0.49-0.445-0.734-1.015-0.734-1.707c0-0.406,0.092-0.777,0.277-1.113
				c0.185-0.336,0.427-0.605,0.727-0.809c0.299-0.203,0.637-0.356,1.012-0.461c0.276-0.073,0.692-0.144,1.25-0.211
				c1.135-0.136,1.971-0.297,2.508-0.484c0.005-0.192,0.008-0.315,0.008-0.367c0-0.573-0.133-0.977-0.398-1.211
				c-0.359-0.317-0.894-0.477-1.602-0.477c-0.662,0-1.15,0.116-1.465,0.348c-0.315,0.231-0.548,0.642-0.699,1.23l-1.375-0.188
				c0.125-0.589,0.331-1.063,0.617-1.426c0.286-0.362,0.7-0.641,1.242-0.836c0.542-0.195,1.169-0.293,1.883-0.293
				c0.708,0,1.284,0.083,1.727,0.25c0.442,0.167,0.768,0.376,0.977,0.629c0.208,0.253,0.354,0.571,0.438,0.957
				c0.047,0.239,0.07,0.672,0.07,1.297v1.875c0,1.308,0.03,2.134,0.09,2.48c0.06,0.347,0.178,0.679,0.355,0.996h-1.469
				C516.891,145.468,516.798,145.127,516.756,144.736z M516.639,141.596c-0.511,0.208-1.276,0.386-2.297,0.531
				c-0.578,0.083-0.987,0.177-1.227,0.281c-0.24,0.104-0.425,0.257-0.555,0.457c-0.13,0.2-0.195,0.423-0.195,0.668
				c0,0.375,0.142,0.688,0.426,0.938c0.284,0.25,0.699,0.375,1.246,0.375c0.542,0,1.023-0.118,1.445-0.355s0.731-0.562,0.93-0.973
				c0.151-0.317,0.227-0.786,0.227-1.406V141.596z"/>
			<path fill="#3C3C3B" d="M520.639,145.76v-1.602h1.602v1.602H520.639z"/>
		</g>
	</g>
	<g>
		<g>
			<g enable-background="new    ">
				<path fill="#331842" d="M264.126,76.293l3.891-0.195c-0.053,0.404-0.079,0.769-0.079,1.094c0,1.479,0.493,2.217,1.48,2.217
					h0.053c1.196-0.025,1.795-0.501,1.795-1.426v-0.088c-0.044-0.982-1.175-1.946-3.393-2.891c-2.158-0.911-3.236-2.415-3.236-4.512
					c0-0.064,0.004-0.13,0.013-0.195c0.061-2.193,1.712-3.311,4.952-3.35h0.105c2.926,0,4.389,1.391,4.389,4.17
					c0,0.222-0.009,0.456-0.026,0.703l-3.419,0.146c0.035-0.293,0.052-0.562,0.052-0.811c0-1.165-0.38-1.748-1.14-1.748
					c-0.917,0-1.419,0.349-1.507,1.045c-0.009,0.098-0.013,0.195-0.013,0.293c0,0.58,0.231,1.12,0.694,1.621
					c0.533,0.58,1.448,1.11,2.745,1.592c1.297,0.482,2.203,1.143,2.718,1.982c0.367,0.605,0.55,1.25,0.55,1.934
					c0,0.261-0.026,0.527-0.079,0.801c-0.201,0.983-0.76,1.799-1.677,2.447c-0.917,0.647-2.148,1-3.694,1.059
					c-0.105,0.007-0.209,0.01-0.314,0.01c-1.406,0-2.581-0.384-3.524-1.152c-0.909-0.735-1.362-2.073-1.362-4.014
					C264.1,76.791,264.108,76.547,264.126,76.293z"/>
				<path fill="#331842" d="M275.117,81.361c1.642-5.56,2.969-10.273,3.982-14.141l4.913-0.059c1.205,4.023,2.585,8.607,4.14,13.75
					l-3.354,0.508l-1.061-3.701h-4.074l-1.101,3.994L275.117,81.361z M283.633,74.975c-0.455-1.406-1.197-3.089-2.228-5.049
					c-0.794,1.647-1.467,3.354-2.017,5.117L283.633,74.975z"/>
				<path fill="#331842" d="M288.611,81.469c0.105-2.227,0.157-4.395,0.157-6.504c0-2.435-0.07-4.795-0.209-7.08l3.852-0.137
					l3.537,7.354c-0.035-2.525-0.131-5.11-0.288-7.754l4.048-0.039c-0.402,3.991-0.603,8.021-0.603,12.09
					c0,0.547,0.004,1.094,0.013,1.641l-3.55,0.029l-3.773-7.871c0.113,2.904,0.218,5.603,0.314,8.096L288.611,81.469z"/>
				<path fill="#331842" d="M300.965,70.209v-2.568c1.284,0.026,2.555,0.039,3.812,0.039c1.957,0,3.874-0.029,5.751-0.088
					l0.118,2.734h-3.301c0,4.629,0.065,8.301,0.197,11.016l-3.695,0.137c0.192-4.622,0.332-8.392,0.419-11.309L300.965,70.209z"/>
				<path fill="#331842" d="M311.039,81.361c1.642-5.56,2.969-10.273,3.982-14.141l4.913-0.059c1.205,4.023,2.585,8.607,4.14,13.75
					l-3.354,0.508l-1.061-3.701h-4.074l-1.101,3.994L311.039,81.361z M319.554,74.975c-0.455-1.406-1.197-3.089-2.228-5.049
					c-0.794,1.647-1.467,3.354-2.017,5.117L319.554,74.975z"/>
				<path fill="#331842" d="M324.532,81.469c0.105-2.227,0.157-4.395,0.157-6.504c0-2.435-0.07-4.795-0.209-7.08l3.852-0.137
					l3.537,7.354c-0.035-2.525-0.131-5.11-0.288-7.754l4.048-0.039c-0.402,3.991-0.603,8.021-0.603,12.09
					c0,0.547,0.004,1.094,0.013,1.641l-3.55,0.029l-3.773-7.871c0.113,2.904,0.218,5.603,0.314,8.096L324.532,81.469z"/>
				<path fill="#331842" d="M336.886,81.381c0.017-2.193,0.026-4.453,0.026-6.777c0-2.33-0.009-4.723-0.026-7.178
					c1.004-0.091,1.93-0.137,2.777-0.137c2.358,0,4.096,0.352,5.214,1.055c1.52,0.964,2.314,2.744,2.384,5.342v0.703
					c0,2.227-0.288,3.815-0.865,4.766c-0.637,1.049-1.803,1.745-3.498,2.09c-0.979,0.202-2.053,0.303-3.223,0.303
					C338.803,81.547,337.873,81.492,336.886,81.381z M340.135,70.219c-0.149,2.143-0.223,4.213-0.223,6.211
					c0,0.756,0.008,1.498,0.026,2.227c0.306,0.053,0.598,0.078,0.878,0.078c0.769,0,1.415-0.198,1.939-0.596
					c0.716-0.533,1.074-1.731,1.074-3.594v-0.039c-0.009-1.875-0.358-3.105-1.048-3.691c-0.533-0.442-1.166-0.664-1.899-0.664
					C340.646,70.15,340.397,70.174,340.135,70.219z"/>
				<path fill="#331842" d="M356.668,67.689v2.754l-5.175-0.156v3.203l4.651-0.098l0.118,2.646h-4.153v2.48h5.437v2.773
					l-9.066-0.098c0.096-1.829,0.144-3.672,0.144-5.527c0-2.571-0.092-5.166-0.275-7.783
					C350.323,67.826,353.096,67.762,356.668,67.689z"/>
				<path fill="#331842" d="M358.908,81.615c0.053-1.861,0.079-3.736,0.079-5.625c0-2.891-0.061-5.811-0.183-8.76
					c1.354-0.104,2.568-0.156,3.642-0.156c2.987,0,4.891,0.407,5.711,1.221c0.769,0.762,1.153,1.602,1.153,2.52
					c0,0.417-0.075,0.847-0.223,1.289c-0.506,1.433-1.572,2.341-3.196,2.725c1.135,0.117,1.996,0.573,2.581,1.367
					c0.559,0.769,0.839,2.702,0.839,5.801v0.42l-3.957,0.039c0.043-0.82,0.065-1.556,0.065-2.207c0-1.973-0.214-3.18-0.642-3.623
					c-0.489-0.494-1.07-0.742-1.742-0.742c-0.131,0-0.267,0.01-0.406,0.029c0.053,1.986,0.166,3.867,0.341,5.645L358.908,81.615z
					 M362.262,69.506l0.092,4.18c1.625-0.059,2.655-0.469,3.092-1.23c0.236-0.403,0.354-0.797,0.354-1.182
					c0-0.332-0.087-0.657-0.262-0.977c-0.314-0.553-1.096-0.83-2.345-0.83C362.905,69.467,362.594,69.48,362.262,69.506z"/>
			</g>
		</g>
	</g>
	<g>
		<g>
			<path fill="#F39200" d="M3.044,39.739c-0.007,0.018-0.017,0.036-0.027,0.049l-0.169,0.203c-0.021,0.025-0.051,0.045-0.084,0.055
				l-0.235,0.066c-0.036,0.011-0.073,0.01-0.106-0.003l-0.144-0.055l-0.974,1.475l-0.589,0.662
				c-0.008,0.009-0.018,0.017-0.028,0.024L0,42.693l0.115,0.602l0.193,0.678l0.228,0.422l0.343,1.054l0.866,1.332l0.454,0.482
				l0.293,0.26l0.48,0.285l0.523,0.204l0.258-0.077l0.55-0.419l0.324-0.184c0.02-0.01,0.04-0.018,0.063-0.02l0.303-0.035
				c0.038-0.002,0.076,0.006,0.108,0.024l0.271,0.17c0.021,0.013,0.038,0.031,0.051,0.049l0.202,0.305
				c0.007,0.01,0.013,0.021,0.017,0.03l0.27,0.676l0.229,0.421l0.178,0.46c0.008,0.018,0.012,0.039,0.012,0.061l0,0v0.404
				c0,0.026-0.006,0.054-0.019,0.077l-0.54,1.047l-0.122,0.442L5.624,51.71l0.257,0.687l0.244,0.043l0.108-0.021l0.243-0.152
				l0.298-0.239l0.288-0.48c0.013-0.021,0.029-0.04,0.05-0.053l0.438-0.305c0.065-0.045,0.153-0.037,0.211,0.016l0.442,0.411
				l0.939,0.259c0.031,0.008,0.06,0.025,0.08,0.05l0.305,0.338c0.017,0.02,0.029,0.042,0.037,0.067l0.166,0.587h0.279
				c0.015,0,0.031,0.001,0.046,0.006l0.236,0.067c0.019,0.005,0.037,0.013,0.052,0.025l0.236,0.168
				c0.021,0.015,0.038,0.034,0.05,0.057l0.406,0.744l0.503,0.623l0.699,0.396l0.194-0.025l0.252-0.094l0.195-0.041l0.449-0.162
				c0.013-0.005,0.027-0.008,0.042-0.011l0.371-0.032c0.013-0.002,0.026,0,0.038,0.001l0.237,0.034
				c0.015,0.003,0.028,0.005,0.042,0.012l0.237,0.102c0.013,0.006,0.027,0.014,0.037,0.022l0.17,0.135
				c0.043,0.034,0.067,0.088,0.062,0.141l-0.015,0.247l0.735-0.465c0.016-0.011,0.032-0.018,0.05-0.023l1.486-0.369l0.726-0.105
				c0.008-0.001,0.016-0.001,0.023-0.001c0.004,0,0.008,0,0.012,0l0.506,0.034c0.015,0,0.031,0.004,0.045,0.009l0.474,0.169
				l0.434,0.249l0.462,0.39l0.099,0.113l0.055-0.029l0.109-0.384v-0.483l0.206-1.179l0.232-0.673v-0.93l-0.096-0.386
				c-0.006-0.028-0.006-0.058,0.001-0.086l0.102-0.371c0.004-0.016,0.011-0.03,0.02-0.045l0.419-0.677l0.097-0.771
				c0.004-0.025,0.012-0.049,0.024-0.07l0.27-0.438c0.011-0.018,0.023-0.033,0.04-0.043l0.934-0.742l0.053-0.216
				c0.004-0.017,0.012-0.032,0.021-0.046l0.743-1.216c0.027-0.045,0.073-0.074,0.123-0.08c0.053-0.007,0.103,0.012,0.14,0.05
				l0.317,0.317l1.021,0.492c0.016,0.008,0.03,0.018,0.042,0.028l0.912,0.846c0.011,0.01,0.021,0.021,0.027,0.035l0.271,0.438
				l0.116,0.298c0.007,0.02,0.011,0.041,0.011,0.059v0.003v0.403c0,0.013-0.001,0.022-0.004,0.035l-0.102,0.473l-0.343,0.968
				c-0.005,0.012-0.01,0.022-0.017,0.033l-0.338,0.541c-0.016,0.025-0.042,0.048-0.07,0.062l-0.431,0.202l-0.084,0.39
				c-0.01,0.043-0.036,0.083-0.073,0.105l-0.586,0.381l0.081,0.627l0.835,1.09l0.227,0.152l0.107-0.012l0.268-0.716
				c0.009-0.024,0.024-0.047,0.043-0.064l0.446-0.414l0.222-0.538l0.092-0.477c0.005-0.021,0.013-0.041,0.025-0.062l0.067-0.1
				c0.023-0.035,0.06-0.061,0.1-0.07l0.135-0.034c0.029-0.007,0.062-0.007,0.09,0.003l0.748,0.227l0.457-0.026l1.059-1.666
				l0.398-1.131c0.015-0.041,0.044-0.074,0.083-0.095l0.405-0.203c0.024-0.01,0.05-0.018,0.075-0.018h0.136
				c0.014,0,0.028,0.003,0.041,0.007l0.271,0.067c0.019,0.005,0.038,0.013,0.055,0.022l0.54,0.373l0.699,0.349l2.068,0.332
				l0.308-0.001L34,50.093l0.292-1.07c0.007-0.024,0.018-0.045,0.034-0.064l1.723-2.027l0.219-0.381l0.319-0.392
				c0.019-0.023,0.042-0.04,0.069-0.051l0.607-0.235l0.696-0.169l0.338-0.253l0.388-1.066c0.015-0.036,0.039-0.068,0.073-0.089
				l0.405-0.236l0.271-0.103l0.295-0.237l0.141-0.224l0.054-0.186l-0.032-0.407c-0.001-0.016,0-0.029,0.003-0.041l0.06-0.361
				L39.7,41.834c-0.016-0.036-0.016-0.077-0.003-0.115l0.428-1.248l-0.098-0.942c-0.002-0.015-0.001-0.032,0.001-0.048l0.162-0.836
				l-0.089-0.261l-0.152-0.333l-0.167-0.195l-0.211-0.121c-0.015-0.009-0.028-0.019-0.039-0.03l-0.675-0.71
				c-0.015-0.015-0.026-0.031-0.034-0.051l-0.169-0.406c-0.02-0.047-0.016-0.101,0.008-0.145l0.203-0.371
				c0.021-0.04,0.058-0.068,0.102-0.082l0.473-0.136c0.016-0.003,0.031-0.007,0.047-0.007h0.202c0.043,0,0.084,0.017,0.115,0.046
				l0.438,0.405l0.767,0.599c0.012,0.011,0.021,0.021,0.032,0.033l0.369,0.506l0.253,0.497l0.446,1.115l0.278,0.068l0.52-0.145
				l0.779-0.811c0.015-0.015,0.031-0.027,0.051-0.036l0.438-0.202l0.188-0.138l0.153-0.205v-1.294l0,0
				c0-0.024,0.006-0.047,0.016-0.07l0.169-0.37l0.838-1.543l0.367-1.697l0.094-0.828l-0.226-0.743
				c-0.006-0.015-0.007-0.031-0.007-0.049v-0.371l0.034-0.322c0.002-0.013,0.005-0.025,0.009-0.038l0.148-0.414L45.5,28.568
				c-0.003,0.004-0.007,0.008-0.011,0.013l-0.203,0.237c-0.009,0.009-0.018,0.017-0.026,0.024l-0.136,0.102
				c-0.025,0.019-0.056,0.03-0.088,0.033l-0.438,0.032c-0.09,0.006-0.165-0.053-0.18-0.14l-0.102-0.607
				c-0.004-0.017-0.004-0.036,0-0.053l0,0l0.098-0.655l-0.032-0.352l-0.063-0.51l-0.15-0.332l-0.265-0.049l-0.255,0.028
				l-0.213,0.092l-0.675,0.145c-0.021,0.006-0.045,0.003-0.065,0l-0.462-0.091L42.1,26.729c-0.01,0.015-0.019,0.025-0.029,0.038
				l-0.169,0.168c-0.066,0.066-0.173,0.066-0.238,0l-0.068-0.067c-0.02-0.019-0.034-0.044-0.042-0.071l-0.102-0.336l-0.066-0.155
				l-0.066-0.025l-0.26,0.029l-0.27,0.001l-0.097,0.024l-0.524,0.261c-0.06,0.03-0.13,0.022-0.181-0.021l-0.61-0.507l-0.251-0.156
				c-0.014-0.008-0.025-0.018-0.037-0.03l-0.22-0.252l-0.123-0.073l-0.548-0.13l-0.49-0.063c-0.017-0.001-0.031-0.006-0.046-0.013
				l-0.607-0.269l-0.128-0.084c-0.028-0.018-0.051-0.046-0.062-0.077l-0.136-0.337c-0.01-0.025-0.014-0.054-0.011-0.079
				c0.002-0.027,0.011-0.053,0.026-0.076l1.241-1.951l-0.11-0.334c-0.009-0.024-0.012-0.046-0.009-0.071l0,0l0,0l0.031-0.31
				l-0.042-0.193l-0.159-0.065c-0.012-0.007-0.023-0.015-0.033-0.021l-0.135-0.101c-0.017-0.013-0.028-0.025-0.038-0.039
				l-0.641-0.911c-0.045-0.062-0.041-0.146,0.008-0.207l0.807-0.966l0.029-1.112l-0.201-0.089c-0.051-0.022-0.087-0.071-0.098-0.127
				l-0.025-0.155l-0.205-0.234l-0.689-1.065c-0.009-0.013-0.016-0.026-0.021-0.042l-0.134-0.44c-0.01-0.026-0.011-0.056-0.004-0.084
				l0.059-0.271l-0.048-0.242l-1.571-1.244c-0.016-0.012-0.03-0.027-0.041-0.046l-0.202-0.338c-0.006-0.009-0.013-0.021-0.016-0.033
				l-0.101-0.304l-0.174-0.759c-0.005-0.02-0.006-0.041-0.003-0.06l0.059-0.32l-0.592-0.124l-0.371,0.114l-0.214,0.152
				c-0.042,0.03-0.097,0.039-0.146,0.025l-0.319-0.097l-0.52-0.033c-0.021-0.001-0.04-0.005-0.058-0.013l-0.1-0.043l-0.116-0.05
				l-0.213-0.03l-0.484,0.001l-0.715-0.099l-0.42,0.031c-0.025,0.003-0.052-0.001-0.075-0.011l-0.317-0.127l-0.222-0.028l-0.1,0.021
				l-0.149,0.122l-0.308,0.494l-0.229,1.018l-0.076,0.194c-0.027,0.07-0.097,0.116-0.173,0.105l-1.079-0.102l-0.72,0.034l0,0l0,0
				l-0.473-0.068l-0.257-0.072c-0.049-0.014-0.089-0.048-0.109-0.097l-0.079-0.184l-0.328-0.192l-1.215-0.165l-0.455-0.103
				l-0.363-0.143l-0.361-0.214c-0.012-0.008-0.021-0.018-0.032-0.027l-0.168-0.167c-0.011-0.009-0.019-0.021-0.024-0.032
				l-0.271-0.439c-0.017-0.026-0.025-0.057-0.025-0.088l0,0v-0.163l-0.04-0.079l-0.559-0.624l-0.51-0.443l-0.52-0.261
				c-0.012-0.007-0.021-0.014-0.033-0.021l-0.405-0.336l-0.312-0.371l-2.796-0.132c-0.045-0.003-0.087-0.021-0.116-0.056
				c-0.031-0.033-0.047-0.076-0.044-0.122l0.034-0.675c0.001-0.027,0.008-0.055,0.023-0.077L17.17,8.42l0.16-0.273l-0.125-0.71
				c-0.004-0.021-0.004-0.041-0.001-0.062l0.034-0.203c0.001-0.014,0.006-0.026,0.011-0.039l0.102-0.236
				c0.009-0.021,0.021-0.037,0.036-0.053l0.404-0.404l0.393-0.287l0.601-0.506l0.141-0.337V4.964l-0.12-0.354l-0.103-0.155
				l-0.238-0.15c-0.016-0.008-0.029-0.021-0.041-0.034l-0.146-0.175L18.19,4.05l-0.252-0.062c-0.035-0.009-0.065-0.026-0.088-0.054
				l-0.202-0.236c-0.024-0.027-0.037-0.062-0.04-0.096l-0.031-0.367L16.65,1.612l-0.182-0.5C16.465,1.1,16.462,1.087,16.46,1.074
				L16.335,0c-0.019,0.016-0.042,0.027-0.065,0.035l-0.194,0.056l-0.171,0.172l-0.315,0.476c-0.021,0.033-0.052,0.06-0.089,0.071
				l-0.102,0.033l-0.326,0.143c-0.001,0.01-0.004,0.02-0.009,0.03l-0.237,0.606L14.665,2.31l-0.029,0.413l0.031,0.393l0.399,1.265
				c0.011,0.03,0.011,0.063,0.003,0.092v0.001l0,0l-0.028,0.115l-0.029,0.116l0.283,1.291l0.194,0.165
				c0.017,0.016,0.03,0.033,0.041,0.054l0.101,0.2c0.007,0.016,0.012,0.029,0.016,0.045l0.27,1.384l0.036,0.494
				c0.001,0.013,0,0.024-0.001,0.038l-0.203,1.316l-0.07,0.286c-0.006,0.022-0.018,0.045-0.031,0.063l-0.117,0.145l-0.031,0.097
				l0.156,0.233l0.112,0.222c0.015,0.031,0.021,0.065,0.016,0.098l0,0l0,0l-0.007,0.049l-0.027,0.19l-0.105,0.328l-0.028,0.079
				v0.751c0,0.015-0.002,0.031-0.007,0.048l-0.101,0.337c-0.013,0.042-0.041,0.077-0.079,0.1l-0.247,0.136l-0.047,0.142
				c-0.008,0.018-0.017,0.036-0.029,0.052l-1.26,1.56l-0.087,0.315v0.856l0.026,0.173l0.183,0.271
				c0.01,0.018,0.018,0.035,0.022,0.054l0.068,0.27c0.005,0.023,0.007,0.048,0.001,0.069l-0.032,0.204
				c-0.003,0.013-0.007,0.024-0.012,0.035l-0.27,0.643l-0.265,0.926l-0.129,0.923c-0.001,0.008-0.009,0.013-0.011,0.021
				l-0.155,1.041l0.233,2.918l0.092,0.419l0.217,0.309l0.265,0.329c0.007,0.01,0.013,0.021,0.019,0.03l0.169,0.338
				c0.008,0.016,0.013,0.034,0.016,0.052l0.136,0.946c0.004,0.033,0,0.068-0.017,0.099l-0.304,0.607
				c-0.012,0.022-0.029,0.044-0.05,0.061l-0.541,0.404l-1.884,0.928l-0.172,0.126l-0.116,0.292c-0.008,0.021-0.02,0.037-0.034,0.052
				l-0.929,0.997l-0.698,1.363l-0.319,0.43c-0.01,0.013-0.021,0.024-0.035,0.033l-4.186,3.106l-0.873,0.422
				c-0.015,0.008-0.03,0.014-0.048,0.015l-0.911,0.137l-0.271,0.073l-0.104,0.261L2.815,35.29l-0.334,0.841l0.066,2.061l0.054,0.225
				l0.342,0.374c0.008,0.01,0.016,0.02,0.022,0.03L3.1,39.057c0.012,0.019,0.019,0.04,0.021,0.063l0.036,0.269
				c0.002,0.028,0,0.055-0.011,0.082L3.044,39.739z"/>
		</g>
	</g>
</g>
</svg>
