<?xml version="1.0" encoding="utf-8"?>
<!-- Generator: Adobe Illustrator 16.0.0, SVG Export Plug-In . SVG Version: 6.00 Build 0)  -->
<!DOCTYPE svg PUBLIC "-//W3C//DTD SVG 1.1//EN" "http://www.w3.org/Graphics/SVG/1.1/DTD/svg11.dtd">
<svg version="1.1" id="Capa_1" xmlns="http://www.w3.org/2000/svg" xmlns:xlink="http://www.w3.org/1999/xlink" x="0px" y="0px"
	 width="455.215px" height="99.004px" viewBox="0 0 455.215 99.004" enable-background="new 0 0 455.215 99.004"
	 xml:space="preserve">
<g>
	<g>
		<path fill="#331842" d="M109.211,35.695c0.021-2.534,0.03-5.144,0.03-7.828c0-2.691-0.01-5.455-0.03-8.29
			c1.16-0.105,2.229-0.158,3.208-0.158c2.724,0,4.731,0.406,6.022,1.219c1.755,1.112,2.673,3.169,2.754,6.169v0.812
			c0,2.571-0.333,4.406-0.999,5.504c-0.736,1.211-2.083,2.016-4.04,2.414c-1.13,0.233-2.371,0.35-3.722,0.35
			C111.425,35.887,110.351,35.823,109.211,35.695z M112.963,22.803c-0.171,2.475-0.257,4.865-0.257,7.174
			c0,0.872,0.01,1.729,0.03,2.571c0.353,0.061,0.69,0.091,1.014,0.091c0.888,0,1.634-0.229,2.239-0.688
			c0.827-0.616,1.241-2,1.241-4.15v-0.045c-0.01-2.166-0.414-3.587-1.21-4.264c-0.615-0.512-1.347-0.768-2.194-0.768
			C113.554,22.724,113.266,22.75,112.963,22.803z"/>
		<path fill="#331842" d="M128.186,24.213c3.319,0.136,4.978,1.38,4.978,3.733v8.008l-3.525,0.045l-0.121-1.071
			c-0.727,0.617-1.69,0.925-2.89,0.925c-0.514,0-1.069-0.06-1.665-0.18c-1.785-0.331-2.678-1.361-2.678-3.091
			c0-0.211,0.015-0.437,0.045-0.677c0.202-1.782,1.901-2.673,5.099-2.673c0.615,0,1.291,0.033,2.027,0.102v-1.309
			c0-1.061-0.449-1.591-1.347-1.591h-0.061c-0.071-0.007-0.136-0.011-0.197-0.011c-0.979,0-1.468,0.594-1.468,1.782v0.169
			l-3.601-0.226c0-2.624,1.695-3.937,5.084-3.937H128.186z M129.457,33.123v-1.985c-0.434-0.067-0.827-0.101-1.18-0.101
			c-0.918,0-1.543,0.229-1.876,0.688c-0.202,0.278-0.302,0.538-0.302,0.778c0,0.301,0.161,0.567,0.484,0.801
			c0.252,0.181,0.58,0.271,0.983,0.271C128.08,33.574,128.71,33.424,129.457,33.123z"/>
		<path fill="#331842" d="M137.158,24.247l0.151,1.838c0.424-0.978,1.538-1.474,3.344-1.488h0.061c1.775,0,2.985,0.519,3.631,1.556
			c0.444,0.707,0.666,2.361,0.666,4.963c0,1.278-0.056,2.79-0.167,4.534h-3.662c0.131-2.323,0.197-4.124,0.197-5.402
			c0-0.639-0.015-1.15-0.045-1.534c-0.101-1.128-0.585-1.691-1.453-1.691s-1.412,0.301-1.634,0.902l0.151,8.177l-3.556,0.023
			c0-3.459-0.156-7.343-0.469-11.651L137.158,24.247z M134.768,23.028c0-2.256,1.009-3.384,3.026-3.384
			c1.008,0,1.791,0.282,2.345,0.846c0.464,0.467,0.893,0.7,1.286,0.7c0.081,0,0.156-0.008,0.227-0.023
			c0.454-0.112,0.681-0.62,0.681-1.522h2.27c0,2.256-1.009,3.384-3.026,3.384c-1.009,0-1.816-0.282-2.421-0.846
			c-0.504-0.474-0.938-0.711-1.301-0.711c-0.071,0-0.142,0.012-0.212,0.034c-0.404,0.112-0.605,0.62-0.605,1.522H134.768z"/>
		<path fill="#331842" d="M151.593,24.54c3.43,0,5.145,1.774,5.145,5.323c0,0.144-0.005,0.286-0.015,0.429
			c-0.141,3.843-1.967,5.783-5.477,5.82c-0.041,0.008-0.081,0.012-0.121,0.012c-3.339,0-5.008-1.816-5.008-5.448V30.36
			C146.217,26.479,148.042,24.54,151.593,24.54z M151.094,27.111c-0.636,0.166-1.069,0.778-1.301,1.839
			c-0.142,0.632-0.212,1.267-0.212,1.906c0,0.429,0.03,0.861,0.091,1.297c0.161,1.083,0.681,1.643,1.559,1.681h0.106
			c0.817,0,1.376-0.402,1.679-1.207c0.252-0.669,0.378-1.462,0.378-2.38c0-0.226-0.005-0.455-0.015-0.688
			c-0.081-1.211-0.323-1.967-0.726-2.268c-0.252-0.181-0.555-0.271-0.908-0.271C151.543,27.021,151.326,27.052,151.094,27.111z"/>
		<path fill="#331842" d="M169.07,24.213c3.319,0.136,4.978,1.38,4.978,3.733v8.008l-3.525,0.045l-0.121-1.071
			c-0.727,0.617-1.69,0.925-2.89,0.925c-0.514,0-1.069-0.06-1.665-0.18c-1.785-0.331-2.678-1.361-2.678-3.091
			c0-0.211,0.015-0.437,0.045-0.677c0.202-1.782,1.901-2.673,5.099-2.673c0.615,0,1.291,0.033,2.027,0.102v-1.309
			c0-1.061-0.449-1.591-1.347-1.591h-0.061c-0.071-0.007-0.136-0.011-0.197-0.011c-0.979,0-1.468,0.594-1.468,1.782v0.169
			l-3.601-0.226c0-2.624,1.695-3.937,5.084-3.937H169.07z M170.341,33.123v-1.985c-0.434-0.067-0.827-0.101-1.18-0.101
			c-0.918,0-1.543,0.229-1.876,0.688c-0.202,0.278-0.302,0.538-0.302,0.778c0,0.301,0.161,0.567,0.484,0.801
			c0.252,0.181,0.58,0.271,0.983,0.271C168.964,33.574,169.594,33.424,170.341,33.123z"/>
		<path fill="#331842" d="M185.154,35.932l-3.768,0.26c0.04-2.489,0.061-4.884,0.061-7.185c0-3.233-0.041-6.283-0.121-9.147
			l3.707-0.046c-0.041,1.843-0.061,3.733-0.061,5.674C184.973,28.834,185.033,32.315,185.154,35.932z"/>
		<path fill="#331842" d="M192.312,24.213c3.319,0.136,4.978,1.38,4.978,3.733v8.008l-3.525,0.045l-0.121-1.071
			c-0.727,0.617-1.69,0.925-2.89,0.925c-0.514,0-1.069-0.06-1.665-0.18c-1.785-0.331-2.678-1.361-2.678-3.091
			c0-0.211,0.015-0.437,0.045-0.677c0.202-1.782,1.901-2.673,5.099-2.673c0.615,0,1.291,0.033,2.027,0.102v-1.309
			c0-1.061-0.449-1.591-1.347-1.591h-0.061c-0.071-0.007-0.136-0.011-0.197-0.011c-0.979,0-1.468,0.594-1.468,1.782v0.169
			l-3.601-0.226c0-2.624,1.695-3.937,5.084-3.937H192.312z M193.583,33.123v-1.985c-0.434-0.067-0.827-0.101-1.18-0.101
			c-0.918,0-1.543,0.229-1.876,0.688c-0.202,0.278-0.302,0.538-0.302,0.778c0,0.301,0.161,0.567,0.484,0.801
			c0.252,0.181,0.58,0.271,0.983,0.271C192.206,33.574,192.836,33.424,193.583,33.123z"/>
		<path fill="#331842" d="M206.958,35.83c-1.271-4.354-2.411-8.091-3.419-11.211l3.677-0.146l1.861,8.199
			c0.968-3.067,1.74-5.865,2.315-8.392l3.616,0.339c-1.14,3.15-2.466,6.873-3.979,11.166L206.958,35.83z"/>
		<path fill="#331842" d="M219.805,21.945c0,0.459-0.217,0.851-0.65,1.174c-0.434,0.323-0.958,0.484-1.574,0.484
			c-0.605,0-1.125-0.161-1.559-0.484s-0.65-0.715-0.65-1.174c0-0.451,0.217-0.838,0.65-1.161s0.953-0.485,1.559-0.485
			c0.615,0,1.14,0.162,1.574,0.485C219.588,21.107,219.805,21.494,219.805,21.945z M215.75,36.18
			c-0.07-4.398-0.106-8.199-0.106-11.403l3.813-0.169c-0.121,3.068-0.181,6.117-0.181,9.147c0,0.812,0.005,1.62,0.015,2.425H215.75z
			"/>
		<path fill="#331842" d="M232.077,20.164c-0.061,2.541-0.092,5.207-0.092,7.996c0,2.542,0.025,5.188,0.076,7.94l-3.586,0.012
			l-0.121-1.726c-0.747,0.835-1.74,1.252-2.981,1.252c-3.097,0-4.646-1.767-4.646-5.302c0-0.074,0.005-0.149,0.015-0.226
			c0.061-3.541,1.594-5.312,4.6-5.312c0.121,0,0.247,0.004,0.378,0.012c1.029,0.045,1.861,0.463,2.496,1.252
			c0-1.669-0.055-3.636-0.166-5.898H232.077z M228.293,32.074l-0.076-3.902c-0.585-0.594-1.185-0.892-1.8-0.892
			c-0.252,0-0.504,0.05-0.756,0.147c-0.797,0.308-1.195,1.173-1.195,2.594c0,0.166,0.005,0.335,0.015,0.508
			c0.101,1.722,0.615,2.632,1.543,2.729c0.091,0.008,0.182,0.011,0.272,0.011C227.103,33.27,227.769,32.871,228.293,32.074z"/>
		<path fill="#331842" d="M239.127,24.213c3.318,0.136,4.978,1.38,4.978,3.733v8.008l-3.525,0.045l-0.121-1.071
			c-0.727,0.617-1.69,0.925-2.89,0.925c-0.515,0-1.07-0.06-1.665-0.18c-1.785-0.331-2.678-1.361-2.678-3.091
			c0-0.211,0.015-0.437,0.046-0.677c0.201-1.782,1.9-2.673,5.099-2.673c0.614,0,1.291,0.033,2.027,0.102v-1.309
			c0-1.061-0.449-1.591-1.347-1.591h-0.061c-0.07-0.007-0.137-0.011-0.197-0.011c-0.979,0-1.467,0.594-1.467,1.782v0.169
			l-3.602-0.226c0-2.624,1.695-3.937,5.084-3.937H239.127z M240.398,33.123v-1.985c-0.435-0.067-0.827-0.101-1.181-0.101
			c-0.918,0-1.543,0.229-1.876,0.688c-0.202,0.278-0.302,0.538-0.302,0.778c0,0.301,0.16,0.567,0.483,0.801
			c0.252,0.181,0.58,0.271,0.983,0.271C239.021,33.574,239.651,33.424,240.398,33.123z"/>
		<path fill="#331842" d="M255.877,24.54c3.5,0,5.25,1.733,5.25,5.199c0,0.422-0.025,0.873-0.075,1.354h-6.764
			c0,1.933,0.499,2.899,1.498,2.899h0.106c0.877-0.053,1.316-0.553,1.316-1.501c0-0.202-0.021-0.428-0.061-0.677l3.601-0.056
			c0,2.864-1.68,4.316-5.038,4.354c-0.041,0.008-0.076,0.012-0.106,0.012c-3.198,0-4.796-1.809-4.796-5.426V30.36
			C250.909,26.479,252.598,24.54,255.877,24.54z M253.925,29.018h3.42v-0.271c0-1.368-0.521-2.053-1.559-2.053
			C254.667,26.694,254.046,27.469,253.925,29.018z"/>
		<path fill="#331842" d="M265.046,24.247l0.151,1.838c0.424-0.978,1.538-1.474,3.344-1.488h0.061c1.775,0,2.986,0.519,3.632,1.556
			c0.444,0.707,0.665,2.361,0.665,4.963c0,1.278-0.055,2.79-0.166,4.534h-3.662c0.131-2.323,0.197-4.124,0.197-5.402
			c0-0.639-0.016-1.15-0.045-1.534c-0.102-1.128-0.586-1.691-1.453-1.691s-1.412,0.301-1.635,0.902l0.152,8.177l-3.557,0.023
			c0-3.459-0.156-7.343-0.469-11.651L265.046,24.247z"/>
		<path fill="#331842" d="M283.825,28.036l0.15,8.178l-3.707,0.022c0-3.459-0.156-7.343-0.469-11.651l2.784-0.226l0.151,1.839
			c0.424-0.902,1.412-1.418,2.966-1.546c0.231-0.015,0.454-0.022,0.665-0.022c1.221,0,2.149,0.298,2.785,0.892
			c0.736,0.707,1.109,1.831,1.119,3.372l-3.359,0.248c0.01-0.128,0.016-0.252,0.016-0.372c0-1.203-0.419-1.805-1.256-1.805h-0.061
			C284.641,27.003,284.046,27.359,283.825,28.036z"/>
		<path fill="#331842" d="M296.202,24.54c3.5,0,5.25,1.733,5.25,5.199c0,0.422-0.025,0.873-0.075,1.354h-6.764
			c0,1.933,0.499,2.899,1.498,2.899h0.106c0.877-0.053,1.316-0.553,1.316-1.501c0-0.202-0.021-0.428-0.061-0.677l3.601-0.056
			c0,2.864-1.68,4.316-5.038,4.354c-0.041,0.008-0.076,0.012-0.106,0.012c-3.198,0-4.796-1.809-4.796-5.426V30.36
			C291.233,26.479,292.922,24.54,296.202,24.54z M294.25,29.018h3.42v-0.271c0-1.368-0.521-2.053-1.559-2.053
			C294.991,26.694,294.371,27.469,294.25,29.018z"/>
		<path fill="#331842" d="M306.838,35.932l-3.768,0.26c0.04-2.489,0.061-4.884,0.061-7.185c0-3.233-0.041-6.283-0.121-9.147
			l3.707-0.046c-0.041,1.843-0.061,3.733-0.061,5.674C306.657,28.834,306.717,32.315,306.838,35.932z"/>
		<path fill="#331842" d="M313.996,24.213c3.319,0.136,4.978,1.38,4.978,3.733v8.008l-3.525,0.045l-0.121-1.071
			c-0.727,0.617-1.689,0.925-2.89,0.925c-0.515,0-1.069-0.06-1.665-0.18c-1.785-0.331-2.678-1.361-2.678-3.091
			c0-0.211,0.016-0.437,0.046-0.677c0.202-1.782,1.901-2.673,5.099-2.673c0.615,0,1.291,0.033,2.027,0.102v-1.309
			c0-1.061-0.449-1.591-1.346-1.591h-0.061c-0.071-0.007-0.137-0.011-0.197-0.011c-0.979,0-1.468,0.594-1.468,1.782v0.169
			l-3.601-0.226c0-2.624,1.694-3.937,5.084-3.937H313.996z M315.266,33.123v-1.985c-0.434-0.067-0.826-0.101-1.18-0.101
			c-0.918,0-1.543,0.229-1.877,0.688c-0.201,0.278-0.302,0.538-0.302,0.778c0,0.301,0.161,0.567,0.483,0.801
			c0.252,0.181,0.58,0.271,0.984,0.271C313.889,33.574,314.52,33.424,315.266,33.123z"/>
		<path fill="#331842" d="M326.374,31.477l3.601,0.169c0,2.715-1.68,4.091-5.038,4.128c-0.041,0.008-0.076,0.012-0.106,0.012
			c-3.198,0-4.796-1.809-4.796-5.425v-0.339c0.1-3.88,1.805-5.839,5.113-5.876h0.121c3.047,0,4.57,1.301,4.57,3.902
			c0,0.15-0.006,0.301-0.016,0.451l-3.253,0.181v-0.271c0-1.368-0.521-2.053-1.559-2.053c-1.06,0-1.589,1.109-1.589,3.328v0.372
			c0.061,2.398,0.596,3.598,1.604,3.598h0.092c0.877-0.053,1.316-0.553,1.316-1.5C326.434,31.95,326.413,31.725,326.374,31.477z"/>
		<path fill="#331842" d="M335.466,21.945c0,0.459-0.217,0.851-0.65,1.174c-0.435,0.323-0.958,0.484-1.573,0.484
			c-0.605,0-1.125-0.161-1.559-0.484s-0.65-0.715-0.65-1.174c0-0.451,0.217-0.838,0.65-1.161s0.953-0.485,1.559-0.485
			c0.615,0,1.139,0.162,1.573,0.485C335.25,21.107,335.466,21.494,335.466,21.945z M331.411,36.18
			c-0.07-4.398-0.105-8.199-0.105-11.403l3.812-0.169c-0.12,3.068-0.181,6.117-0.181,9.147c0,0.812,0.005,1.62,0.015,2.425H331.411z
			"/>
		<path fill="#331842" d="M341.625,24.54c3.43,0,5.145,1.774,5.145,5.323c0,0.144-0.005,0.286-0.015,0.429
			c-0.142,3.843-1.967,5.783-5.478,5.82c-0.04,0.008-0.081,0.012-0.121,0.012c-3.339,0-5.009-1.816-5.009-5.448V30.36
			C336.249,26.479,338.074,24.54,341.625,24.54z M341.125,27.111c-0.636,0.166-1.069,0.778-1.301,1.839
			c-0.143,0.632-0.213,1.267-0.213,1.906c0,0.429,0.031,0.861,0.092,1.297c0.16,1.083,0.68,1.643,1.559,1.681h0.105
			c0.816,0,1.377-0.402,1.68-1.207c0.252-0.669,0.378-1.462,0.378-2.38c0-0.226-0.005-0.455-0.015-0.688
			c-0.082-1.211-0.323-1.967-0.727-2.268c-0.252-0.181-0.555-0.271-0.908-0.271C341.575,27.021,341.358,27.052,341.125,27.111z
			 M339.658,22.341c1.181-1.046,2.148-2.042,2.905-2.989l2.481,1.466c-1.069,0.782-2.26,1.741-3.571,2.877L339.658,22.341z"/>
		<path fill="#331842" d="M350.385,24.247l0.151,1.838c0.424-0.978,1.538-1.474,3.345-1.488h0.061c1.774,0,2.984,0.519,3.631,1.556
			c0.443,0.707,0.666,2.361,0.666,4.963c0,1.278-0.057,2.79-0.167,4.534h-3.661c0.131-2.323,0.196-4.124,0.196-5.402
			c0-0.639-0.015-1.15-0.046-1.534c-0.101-1.128-0.584-1.691-1.452-1.691s-1.412,0.301-1.634,0.902l0.15,8.177l-3.555,0.023
			c0-3.459-0.156-7.343-0.469-11.651L350.385,24.247z"/>
		<path fill="#3C3C3B" d="M29.1,55.887l4.398-11.453h1.633l4.688,11.453h-1.727l-1.336-3.469h-4.789l-1.258,3.469H29.1z
			 M32.404,51.184h3.883l-1.195-3.171c-0.365-0.964-0.636-1.755-0.812-2.375c-0.146,0.734-0.352,1.464-0.617,2.188L32.404,51.184z"
			/>
		<path fill="#3C3C3B" d="M41.186,55.887v-7.203h-1.242v-1.094h1.242v-0.883c0-0.558,0.049-0.972,0.148-1.242
			c0.135-0.364,0.374-0.66,0.715-0.887c0.341-0.227,0.819-0.34,1.434-0.34c0.396,0,0.833,0.047,1.312,0.141l-0.211,1.227
			c-0.292-0.052-0.568-0.078-0.828-0.078c-0.427,0-0.729,0.091-0.906,0.273c-0.177,0.183-0.266,0.523-0.266,1.023v0.766h1.617v1.094
			h-1.617v7.203H41.186z"/>
		<path fill="#3C3C3B" d="M50.975,53.215l1.453,0.18c-0.229,0.85-0.654,1.508-1.273,1.977c-0.62,0.469-1.412,0.703-2.375,0.703
			c-1.214,0-2.176-0.373-2.887-1.121c-0.711-0.746-1.066-1.795-1.066-3.145c0-1.395,0.359-2.479,1.078-3.25s1.651-1.156,2.797-1.156
			c1.109,0,2.016,0.378,2.719,1.133s1.055,1.818,1.055,3.187c0,0.084-0.003,0.209-0.008,0.375h-6.188
			c0.052,0.912,0.31,1.609,0.773,2.094c0.463,0.484,1.042,0.727,1.734,0.727c0.516,0,0.956-0.135,1.32-0.406
			C50.472,54.243,50.761,53.809,50.975,53.215z M46.357,50.942h4.633c-0.062-0.697-0.24-1.221-0.531-1.57
			c-0.448-0.542-1.029-0.812-1.742-0.812c-0.646,0-1.189,0.216-1.629,0.648C46.647,49.641,46.404,50.219,46.357,50.942z"/>
		<path fill="#3C3C3B" d="M59.607,52.848l1.383,0.18c-0.151,0.953-0.538,1.699-1.16,2.238c-0.623,0.539-1.387,0.809-2.293,0.809
			c-1.136,0-2.048-0.371-2.738-1.113c-0.69-0.742-1.035-1.805-1.035-3.191c0-0.895,0.148-1.68,0.445-2.351
			c0.297-0.672,0.749-1.176,1.355-1.512c0.606-0.336,1.267-0.504,1.98-0.504c0.901,0,1.638,0.228,2.211,0.684
			c0.573,0.456,0.94,1.103,1.102,1.941l-1.367,0.211c-0.13-0.557-0.361-0.976-0.691-1.257c-0.331-0.281-0.73-0.422-1.199-0.422
			c-0.708,0-1.284,0.254-1.727,0.762c-0.443,0.508-0.664,1.312-0.664,2.41c0,1.115,0.213,1.926,0.641,2.43
			c0.427,0.506,0.984,0.758,1.672,0.758c0.552,0,1.013-0.168,1.383-0.508C59.274,54.073,59.508,53.551,59.607,52.848z"/>
		<path fill="#3C3C3B" d="M65.264,54.629l0.203,1.242c-0.396,0.084-0.75,0.125-1.062,0.125c-0.511,0-0.906-0.08-1.188-0.242
			c-0.281-0.16-0.479-0.373-0.594-0.637c-0.115-0.262-0.172-0.816-0.172-1.66v-4.773H61.42v-1.094h1.031v-2.055l1.398-0.844v2.898
			h1.414v1.094H63.85v4.851c0,0.402,0.024,0.66,0.074,0.773c0.049,0.115,0.13,0.207,0.242,0.273c0.112,0.068,0.272,0.102,0.48,0.102
			C64.803,54.684,65.008,54.667,65.264,54.629z"/>
		<path fill="#3C3C3B" d="M72.053,54.864c-0.521,0.443-1.022,0.756-1.504,0.938c-0.482,0.184-0.999,0.273-1.551,0.273
			c-0.912,0-1.612-0.223-2.102-0.668c-0.49-0.445-0.734-1.014-0.734-1.707c0-0.406,0.092-0.777,0.277-1.113
			c0.185-0.336,0.427-0.605,0.727-0.809c0.299-0.203,0.637-0.355,1.012-0.461c0.276-0.072,0.692-0.143,1.25-0.211
			c1.135-0.135,1.971-0.297,2.508-0.484c0.005-0.191,0.008-0.314,0.008-0.367c0-0.573-0.133-0.976-0.398-1.21
			c-0.359-0.317-0.894-0.477-1.602-0.477c-0.662,0-1.15,0.116-1.465,0.348c-0.315,0.231-0.548,0.642-0.699,1.23l-1.375-0.187
			c0.125-0.589,0.331-1.063,0.617-1.426c0.286-0.362,0.7-0.641,1.242-0.836c0.542-0.195,1.169-0.293,1.883-0.293
			c0.708,0,1.284,0.083,1.727,0.25c0.442,0.167,0.768,0.376,0.977,0.629c0.208,0.253,0.354,0.571,0.438,0.957
			c0.047,0.239,0.07,0.672,0.07,1.296v1.875c0,1.309,0.03,2.135,0.09,2.48c0.06,0.348,0.178,0.68,0.355,0.996h-1.469
			C72.188,55.596,72.094,55.254,72.053,54.864z M71.936,51.723c-0.511,0.209-1.276,0.387-2.297,0.531
			c-0.578,0.084-0.987,0.178-1.227,0.281c-0.24,0.105-0.425,0.258-0.555,0.457c-0.13,0.201-0.195,0.424-0.195,0.668
			c0,0.375,0.142,0.688,0.426,0.938c0.284,0.25,0.699,0.375,1.246,0.375c0.542,0,1.023-0.117,1.445-0.355
			c0.422-0.236,0.731-0.561,0.93-0.973c0.151-0.316,0.227-0.785,0.227-1.406V51.723z"/>
		<path fill="#3C3C3B" d="M75.537,55.887v-8.296h1.266v1.18c0.609-0.911,1.489-1.367,2.641-1.367c0.5,0,0.959,0.09,1.379,0.27
			c0.419,0.18,0.733,0.415,0.941,0.707c0.208,0.292,0.354,0.638,0.438,1.039c0.052,0.261,0.078,0.716,0.078,1.367v5.102h-1.406
			V50.84c0-0.572-0.055-1-0.164-1.285s-0.304-0.511-0.582-0.68c-0.279-0.169-0.605-0.254-0.98-0.254c-0.599,0-1.116,0.19-1.551,0.57
			c-0.435,0.38-0.652,1.101-0.652,2.164v4.531H75.537z"/>
		<path fill="#3C3C3B" d="M88.85,55.887V44.435h1.406v11.453H88.85z"/>
		<path fill="#3C3C3B" d="M97.85,54.864c-0.521,0.443-1.022,0.756-1.504,0.938c-0.482,0.184-0.999,0.273-1.551,0.273
			c-0.912,0-1.612-0.223-2.102-0.668c-0.49-0.445-0.734-1.014-0.734-1.707c0-0.406,0.092-0.777,0.277-1.113
			c0.185-0.336,0.427-0.605,0.727-0.809c0.299-0.203,0.637-0.355,1.012-0.461c0.276-0.072,0.692-0.143,1.25-0.211
			c1.135-0.135,1.971-0.297,2.508-0.484c0.005-0.191,0.008-0.314,0.008-0.367c0-0.573-0.133-0.976-0.398-1.21
			c-0.359-0.317-0.894-0.477-1.602-0.477c-0.662,0-1.15,0.116-1.465,0.348c-0.315,0.231-0.548,0.642-0.699,1.23l-1.375-0.187
			c0.125-0.589,0.331-1.063,0.617-1.426c0.286-0.362,0.7-0.641,1.242-0.836c0.542-0.195,1.169-0.293,1.883-0.293
			c0.708,0,1.284,0.083,1.727,0.25c0.442,0.167,0.768,0.376,0.977,0.629c0.208,0.253,0.354,0.571,0.438,0.957
			c0.047,0.239,0.07,0.672,0.07,1.296v1.875c0,1.309,0.03,2.135,0.09,2.48c0.06,0.348,0.178,0.68,0.355,0.996h-1.469
			C97.985,55.596,97.891,55.254,97.85,54.864z M97.732,51.723c-0.511,0.209-1.276,0.387-2.297,0.531
			c-0.578,0.084-0.987,0.178-1.227,0.281c-0.24,0.105-0.425,0.258-0.555,0.457c-0.13,0.201-0.195,0.424-0.195,0.668
			c0,0.375,0.142,0.688,0.426,0.938c0.284,0.25,0.699,0.375,1.246,0.375c0.542,0,1.023-0.117,1.445-0.355
			c0.422-0.236,0.731-0.561,0.93-0.973c0.151-0.316,0.227-0.785,0.227-1.406V51.723z"/>
		<path fill="#3C3C3B" d="M108.084,55.887l-3.156-8.296h1.484l1.781,4.968c0.192,0.537,0.37,1.094,0.531,1.672
			c0.125-0.438,0.299-0.963,0.523-1.578l1.844-5.062h1.445l-3.141,8.296H108.084z"/>
		<path fill="#3C3C3B" d="M113.787,46.052v-1.617h1.406v1.617H113.787z M113.787,55.887v-8.296h1.406v8.296H113.787z"/>
		<path fill="#3C3C3B" d="M122.717,55.887V54.84c-0.526,0.824-1.3,1.234-2.32,1.234c-0.662,0-1.27-0.182-1.824-0.547
			c-0.555-0.363-0.984-0.873-1.289-1.527c-0.305-0.652-0.457-1.404-0.457-2.254c0-0.828,0.138-1.578,0.414-2.253
			c0.276-0.675,0.69-1.191,1.242-1.551c0.552-0.359,1.169-0.539,1.852-0.539c0.5,0,0.945,0.105,1.336,0.316s0.708,0.485,0.953,0.824
			v-4.109h1.398v11.453H122.717z M118.271,51.747c0,1.062,0.224,1.857,0.672,2.383c0.448,0.527,0.977,0.789,1.586,0.789
			c0.614,0,1.137-0.25,1.566-0.754c0.43-0.502,0.645-1.27,0.645-2.301c0-1.135-0.219-1.968-0.656-2.5s-0.977-0.797-1.617-0.797
			c-0.625,0-1.147,0.255-1.566,0.766C118.481,49.844,118.271,50.649,118.271,51.747z"/>
		<path fill="#3C3C3B" d="M131.646,54.864c-0.521,0.443-1.022,0.756-1.504,0.938c-0.482,0.184-0.999,0.273-1.551,0.273
			c-0.912,0-1.612-0.223-2.102-0.668c-0.49-0.445-0.734-1.014-0.734-1.707c0-0.406,0.092-0.777,0.277-1.113
			c0.185-0.336,0.427-0.605,0.727-0.809c0.299-0.203,0.637-0.355,1.012-0.461c0.276-0.072,0.692-0.143,1.25-0.211
			c1.135-0.135,1.971-0.297,2.508-0.484c0.005-0.191,0.008-0.314,0.008-0.367c0-0.573-0.133-0.976-0.398-1.21
			c-0.359-0.317-0.894-0.477-1.602-0.477c-0.662,0-1.15,0.116-1.465,0.348c-0.315,0.231-0.548,0.642-0.699,1.23l-1.375-0.187
			c0.125-0.589,0.331-1.063,0.617-1.426c0.286-0.362,0.7-0.641,1.242-0.836c0.542-0.195,1.169-0.293,1.883-0.293
			c0.708,0,1.284,0.083,1.727,0.25c0.442,0.167,0.768,0.376,0.977,0.629c0.208,0.253,0.354,0.571,0.438,0.957
			c0.047,0.239,0.07,0.672,0.07,1.296v1.875c0,1.309,0.03,2.135,0.09,2.48c0.06,0.348,0.178,0.68,0.355,0.996h-1.469
			C131.782,55.596,131.688,55.254,131.646,54.864z M131.529,51.723c-0.511,0.209-1.276,0.387-2.297,0.531
			c-0.578,0.084-0.987,0.178-1.227,0.281c-0.24,0.105-0.425,0.258-0.555,0.457c-0.13,0.201-0.195,0.424-0.195,0.668
			c0,0.375,0.142,0.688,0.426,0.938c0.284,0.25,0.699,0.375,1.246,0.375c0.542,0,1.023-0.117,1.445-0.355
			c0.422-0.236,0.731-0.561,0.93-0.973c0.151-0.316,0.227-0.785,0.227-1.406V51.723z"/>
		<path fill="#3C3C3B" d="M145.256,53.215l1.453,0.18c-0.229,0.85-0.654,1.508-1.273,1.977c-0.62,0.469-1.412,0.703-2.375,0.703
			c-1.214,0-2.176-0.373-2.887-1.121c-0.711-0.746-1.066-1.795-1.066-3.145c0-1.395,0.359-2.479,1.078-3.25s1.651-1.156,2.797-1.156
			c1.109,0,2.016,0.378,2.719,1.133s1.055,1.818,1.055,3.187c0,0.084-0.003,0.209-0.008,0.375h-6.188
			c0.052,0.912,0.31,1.609,0.773,2.094c0.463,0.484,1.042,0.727,1.734,0.727c0.516,0,0.956-0.135,1.32-0.406
			C144.753,54.243,145.042,53.809,145.256,53.215z M140.639,50.942h4.633c-0.062-0.697-0.24-1.221-0.531-1.57
			c-0.448-0.542-1.029-0.812-1.742-0.812c-0.646,0-1.189,0.216-1.629,0.648C140.929,49.641,140.686,50.219,140.639,50.942z"/>
		<path fill="#3C3C3B" d="M152.928,46.052v-1.617h1.406v1.617H152.928z M152.928,55.887v-8.296h1.406v8.296H152.928z"/>
		<path fill="#3C3C3B" d="M156.475,55.887v-8.296h1.266v1.18c0.609-0.911,1.489-1.367,2.641-1.367c0.5,0,0.959,0.09,1.379,0.27
			c0.419,0.18,0.733,0.415,0.941,0.707c0.208,0.292,0.354,0.638,0.438,1.039c0.052,0.261,0.078,0.716,0.078,1.367v5.102h-1.406
			V50.84c0-0.572-0.055-1-0.164-1.285s-0.304-0.511-0.582-0.68c-0.279-0.169-0.605-0.254-0.98-0.254c-0.599,0-1.116,0.19-1.551,0.57
			c-0.435,0.38-0.652,1.101-0.652,2.164v4.531H156.475z"/>
		<path fill="#3C3C3B" d="M168.443,54.629l0.203,1.242c-0.396,0.084-0.75,0.125-1.062,0.125c-0.511,0-0.906-0.08-1.188-0.242
			c-0.281-0.16-0.479-0.373-0.594-0.637c-0.115-0.262-0.172-0.816-0.172-1.66v-4.773H164.6v-1.094h1.031v-2.055l1.398-0.844v2.898
			h1.414v1.094h-1.414v4.851c0,0.402,0.024,0.66,0.074,0.773c0.049,0.115,0.13,0.207,0.242,0.273
			c0.112,0.068,0.272,0.102,0.48,0.102C167.982,54.684,168.188,54.667,168.443,54.629z"/>
		<path fill="#3C3C3B" d="M175.498,53.215l1.453,0.18c-0.229,0.85-0.654,1.508-1.273,1.977c-0.62,0.469-1.412,0.703-2.375,0.703
			c-1.214,0-2.176-0.373-2.887-1.121c-0.711-0.746-1.066-1.795-1.066-3.145c0-1.395,0.359-2.479,1.078-3.25s1.651-1.156,2.797-1.156
			c1.109,0,2.016,0.378,2.719,1.133s1.055,1.818,1.055,3.187c0,0.084-0.003,0.209-0.008,0.375h-6.188
			c0.052,0.912,0.31,1.609,0.773,2.094c0.463,0.484,1.042,0.727,1.734,0.727c0.516,0,0.956-0.135,1.32-0.406
			C174.995,54.243,175.284,53.809,175.498,53.215z M170.881,50.942h4.633c-0.062-0.697-0.24-1.221-0.531-1.57
			c-0.448-0.542-1.029-0.812-1.742-0.812c-0.646,0-1.189,0.216-1.629,0.648C171.171,49.641,170.928,50.219,170.881,50.942z"/>
		<path fill="#3C3C3B" d="M178.459,56.575l1.367,0.203c0.057,0.422,0.216,0.73,0.477,0.922c0.349,0.262,0.825,0.391,1.43,0.391
			c0.651,0,1.153-0.129,1.508-0.391c0.354-0.26,0.594-0.625,0.719-1.094c0.073-0.285,0.106-0.887,0.102-1.805
			c-0.615,0.725-1.38,1.086-2.297,1.086c-1.141,0-2.023-0.41-2.648-1.234c-0.625-0.822-0.938-1.809-0.938-2.961
			c0-0.791,0.143-1.521,0.43-2.191c0.286-0.669,0.702-1.187,1.246-1.551c0.544-0.364,1.184-0.547,1.918-0.547
			c0.979,0,1.786,0.396,2.422,1.188v-1h1.297v7.171c0,1.293-0.132,2.207-0.395,2.746c-0.263,0.539-0.68,0.965-1.25,1.277
			s-1.272,0.469-2.105,0.469c-0.99,0-1.789-0.223-2.398-0.668S178.438,57.471,178.459,56.575z M179.623,51.59
			c0,1.09,0.216,1.883,0.648,2.383c0.432,0.5,0.974,0.75,1.625,0.75c0.646,0,1.188-0.248,1.625-0.746
			c0.438-0.496,0.656-1.277,0.656-2.34c0-1.016-0.226-1.781-0.676-2.296c-0.451-0.516-0.994-0.773-1.629-0.773
			c-0.625,0-1.156,0.254-1.594,0.762S179.623,50.59,179.623,51.59z"/>
		<path fill="#3C3C3B" d="M187.6,55.887v-8.296h1.266v1.258c0.323-0.589,0.621-0.977,0.895-1.164s0.574-0.281,0.902-0.281
			c0.474,0,0.956,0.151,1.445,0.453l-0.484,1.305c-0.344-0.203-0.688-0.305-1.031-0.305c-0.308,0-0.583,0.093-0.828,0.277
			c-0.245,0.185-0.419,0.441-0.523,0.77c-0.156,0.5-0.234,1.046-0.234,1.64v4.344H187.6z"/>
		<path fill="#3C3C3B" d="M192.951,46.052v-1.617h1.406v1.617H192.951z M192.951,55.887v-8.296h1.406v8.296H192.951z"/>
		<path fill="#3C3C3B" d="M201.881,55.887V54.84c-0.526,0.824-1.3,1.234-2.32,1.234c-0.662,0-1.27-0.182-1.824-0.547
			c-0.555-0.363-0.984-0.873-1.289-1.527c-0.305-0.652-0.457-1.404-0.457-2.254c0-0.828,0.138-1.578,0.414-2.253
			c0.276-0.675,0.69-1.191,1.242-1.551c0.552-0.359,1.169-0.539,1.852-0.539c0.5,0,0.945,0.105,1.336,0.316s0.708,0.485,0.953,0.824
			v-4.109h1.398v11.453H201.881z M197.436,51.747c0,1.062,0.224,1.857,0.672,2.383c0.448,0.527,0.977,0.789,1.586,0.789
			c0.614,0,1.137-0.25,1.566-0.754c0.43-0.502,0.645-1.27,0.645-2.301c0-1.135-0.219-1.968-0.656-2.5s-0.977-0.797-1.617-0.797
			c-0.625,0-1.147,0.255-1.566,0.766C197.645,49.844,197.436,50.649,197.436,51.747z"/>
		<path fill="#3C3C3B" d="M210.811,54.864c-0.521,0.443-1.022,0.756-1.504,0.938c-0.482,0.184-0.999,0.273-1.551,0.273
			c-0.912,0-1.612-0.223-2.102-0.668c-0.49-0.445-0.734-1.014-0.734-1.707c0-0.406,0.092-0.777,0.277-1.113
			c0.185-0.336,0.427-0.605,0.727-0.809c0.299-0.203,0.637-0.355,1.012-0.461c0.276-0.072,0.692-0.143,1.25-0.211
			c1.135-0.135,1.971-0.297,2.508-0.484c0.005-0.191,0.008-0.314,0.008-0.367c0-0.573-0.133-0.976-0.398-1.21
			c-0.359-0.317-0.894-0.477-1.602-0.477c-0.662,0-1.15,0.116-1.465,0.348c-0.315,0.231-0.548,0.642-0.699,1.23l-1.375-0.187
			c0.125-0.589,0.331-1.063,0.617-1.426c0.286-0.362,0.7-0.641,1.242-0.836c0.542-0.195,1.169-0.293,1.883-0.293
			c0.708,0,1.284,0.083,1.727,0.25c0.442,0.167,0.768,0.376,0.977,0.629c0.208,0.253,0.354,0.571,0.438,0.957
			c0.047,0.239,0.07,0.672,0.07,1.296v1.875c0,1.309,0.03,2.135,0.09,2.48c0.06,0.348,0.178,0.68,0.355,0.996h-1.469
			C210.946,55.596,210.852,55.254,210.811,54.864z M210.693,51.723c-0.511,0.209-1.276,0.387-2.297,0.531
			c-0.578,0.084-0.987,0.178-1.227,0.281c-0.24,0.105-0.425,0.258-0.555,0.457c-0.13,0.201-0.195,0.424-0.195,0.668
			c0,0.375,0.142,0.688,0.426,0.938c0.284,0.25,0.699,0.375,1.246,0.375c0.542,0,1.023-0.117,1.445-0.355
			c0.422-0.236,0.731-0.561,0.93-0.973c0.151-0.316,0.227-0.785,0.227-1.406V51.723z"/>
		<path fill="#3C3C3B" d="M219.678,55.887V54.84c-0.526,0.824-1.3,1.234-2.32,1.234c-0.662,0-1.27-0.182-1.824-0.547
			c-0.555-0.363-0.984-0.873-1.289-1.527c-0.305-0.652-0.457-1.404-0.457-2.254c0-0.828,0.138-1.578,0.414-2.253
			c0.276-0.675,0.69-1.191,1.242-1.551c0.552-0.359,1.169-0.539,1.852-0.539c0.5,0,0.945,0.105,1.336,0.316s0.708,0.485,0.953,0.824
			v-4.109h1.398v11.453H219.678z M215.232,51.747c0,1.062,0.224,1.857,0.672,2.383c0.448,0.527,0.977,0.789,1.586,0.789
			c0.614,0,1.137-0.25,1.566-0.754c0.43-0.502,0.645-1.27,0.645-2.301c0-1.135-0.219-1.968-0.656-2.5s-0.977-0.797-1.617-0.797
			c-0.625,0-1.147,0.255-1.566,0.766C215.442,49.844,215.232,50.649,215.232,51.747z"/>
		<path fill="#3C3C3B" d="M227.639,59.067V47.591h1.282v1.078c0.301-0.422,0.643-0.738,1.023-0.949
			c0.379-0.211,0.84-0.316,1.383-0.316c0.707,0,1.332,0.183,1.875,0.547c0.541,0.364,0.949,0.879,1.227,1.543
			c0.275,0.664,0.414,1.392,0.414,2.183c0,0.85-0.152,1.613-0.457,2.293s-0.748,1.201-1.328,1.562
			c-0.582,0.363-1.191,0.543-1.832,0.543c-0.469,0-0.891-0.098-1.262-0.297c-0.373-0.197-0.68-0.447-0.918-0.75v4.039H227.639z
			 M228.913,51.786c0,1.068,0.215,1.857,0.648,2.367c0.432,0.512,0.955,0.766,1.57,0.766c0.625,0,1.16-0.264,1.605-0.793
			c0.445-0.527,0.668-1.348,0.668-2.457c0-1.057-0.219-1.848-0.652-2.375c-0.436-0.526-0.955-0.789-1.559-0.789
			c-0.6,0-1.129,0.28-1.59,0.84S228.913,50.719,228.913,51.786z"/>
		<path fill="#3C3C3B" d="M242.217,53.215l1.453,0.18c-0.23,0.85-0.654,1.508-1.273,1.977c-0.621,0.469-1.412,0.703-2.375,0.703
			c-1.215,0-2.176-0.373-2.887-1.121c-0.711-0.746-1.066-1.795-1.066-3.145c0-1.395,0.359-2.479,1.078-3.25s1.65-1.156,2.797-1.156
			c1.109,0,2.016,0.378,2.719,1.133s1.055,1.818,1.055,3.187c0,0.084-0.004,0.209-0.008,0.375h-6.188
			c0.051,0.912,0.309,1.609,0.773,2.094c0.463,0.484,1.041,0.727,1.734,0.727c0.516,0,0.955-0.135,1.32-0.406
			C241.713,54.243,242.002,53.809,242.217,53.215z M237.6,50.942h4.633c-0.062-0.697-0.24-1.221-0.531-1.57
			c-0.449-0.542-1.029-0.812-1.742-0.812c-0.646,0-1.189,0.216-1.629,0.648C237.889,49.641,237.647,50.219,237.6,50.942z"/>
		<path fill="#3C3C3B" d="M245.42,55.887v-8.296h1.266v1.258c0.322-0.589,0.621-0.977,0.895-1.164s0.574-0.281,0.902-0.281
			c0.473,0,0.955,0.151,1.445,0.453l-0.484,1.305c-0.344-0.203-0.688-0.305-1.031-0.305c-0.309,0-0.584,0.093-0.828,0.277
			c-0.246,0.185-0.42,0.441-0.523,0.77c-0.156,0.5-0.234,1.046-0.234,1.64v4.344H245.42z"/>
		<path fill="#3C3C3B" d="M250.202,53.411l1.391-0.219c0.078,0.559,0.295,0.984,0.652,1.281c0.355,0.297,0.855,0.445,1.496,0.445
			c0.645,0,1.125-0.131,1.438-0.395c0.312-0.262,0.469-0.57,0.469-0.926c0-0.316-0.139-0.566-0.414-0.75
			c-0.193-0.125-0.672-0.283-1.438-0.477c-1.031-0.26-1.746-0.484-2.145-0.676c-0.398-0.189-0.701-0.453-0.906-0.789
			c-0.207-0.336-0.309-0.707-0.309-1.113c0-0.37,0.084-0.712,0.254-1.027c0.168-0.315,0.398-0.577,0.691-0.785
			c0.219-0.161,0.516-0.298,0.895-0.41c0.377-0.112,0.781-0.168,1.215-0.168c0.65,0,1.223,0.094,1.715,0.281s0.855,0.441,1.09,0.762
			s0.395,0.749,0.484,1.285l-1.375,0.188c-0.062-0.427-0.244-0.761-0.543-1c-0.301-0.239-0.723-0.359-1.27-0.359
			c-0.646,0-1.107,0.106-1.383,0.32c-0.277,0.214-0.414,0.464-0.414,0.75c0,0.183,0.057,0.347,0.172,0.492
			c0.113,0.152,0.293,0.277,0.539,0.375c0.141,0.053,0.555,0.172,1.242,0.359c0.994,0.266,1.688,0.484,2.082,0.652
			c0.393,0.17,0.701,0.416,0.926,0.738c0.223,0.324,0.336,0.725,0.336,1.203c0,0.469-0.137,0.91-0.41,1.324
			s-0.668,0.734-1.184,0.961s-1.1,0.34-1.75,0.34c-1.078,0-1.9-0.223-2.465-0.672C250.717,54.956,250.358,54.292,250.202,53.411z"/>
		<path fill="#3C3C3B" d="M258.241,51.739c0-1.535,0.426-2.674,1.281-3.414c0.713-0.614,1.582-0.922,2.609-0.922
			c1.141,0,2.072,0.374,2.797,1.121c0.723,0.747,1.086,1.781,1.086,3.097c0,1.068-0.16,1.908-0.48,2.52
			c-0.32,0.613-0.787,1.088-1.398,1.426c-0.613,0.34-1.281,0.508-2.004,0.508c-1.162,0-2.102-0.371-2.816-1.117
			C258.598,54.213,258.241,53.141,258.241,51.739z M259.686,51.739c0,1.062,0.23,1.859,0.695,2.387
			c0.463,0.529,1.047,0.793,1.75,0.793c0.697,0,1.277-0.266,1.742-0.797c0.463-0.531,0.695-1.34,0.695-2.43
			c0-1.025-0.234-1.803-0.699-2.332c-0.467-0.528-1.047-0.793-1.738-0.793c-0.703,0-1.287,0.263-1.75,0.789
			C259.917,49.883,259.686,50.676,259.686,51.739z"/>
		<path fill="#3C3C3B" d="M267.663,55.887v-8.296h1.266v1.18c0.609-0.911,1.488-1.367,2.641-1.367c0.5,0,0.959,0.09,1.379,0.27
			c0.418,0.18,0.732,0.415,0.941,0.707c0.207,0.292,0.354,0.638,0.438,1.039c0.051,0.261,0.078,0.716,0.078,1.367v5.102h-1.406
			V50.84c0-0.572-0.055-1-0.164-1.285s-0.305-0.511-0.582-0.68c-0.279-0.169-0.605-0.254-0.98-0.254c-0.6,0-1.117,0.19-1.551,0.57
			c-0.436,0.38-0.652,1.101-0.652,2.164v4.531H267.663z"/>
		<path fill="#3C3C3B" d="M281.975,54.864c-0.521,0.443-1.023,0.756-1.504,0.938c-0.482,0.184-1,0.273-1.551,0.273
			c-0.912,0-1.613-0.223-2.102-0.668c-0.49-0.445-0.734-1.014-0.734-1.707c0-0.406,0.092-0.777,0.277-1.113
			c0.184-0.336,0.426-0.605,0.727-0.809c0.299-0.203,0.637-0.355,1.012-0.461c0.275-0.072,0.691-0.143,1.25-0.211
			c1.135-0.135,1.971-0.297,2.508-0.484c0.004-0.191,0.008-0.314,0.008-0.367c0-0.573-0.133-0.976-0.398-1.21
			c-0.359-0.317-0.895-0.477-1.602-0.477c-0.662,0-1.15,0.116-1.465,0.348c-0.316,0.231-0.549,0.642-0.699,1.23l-1.375-0.187
			c0.125-0.589,0.33-1.063,0.617-1.426c0.285-0.362,0.699-0.641,1.242-0.836c0.541-0.195,1.168-0.293,1.883-0.293
			c0.707,0,1.283,0.083,1.727,0.25c0.441,0.167,0.768,0.376,0.977,0.629c0.207,0.253,0.354,0.571,0.438,0.957
			c0.047,0.239,0.07,0.672,0.07,1.296v1.875c0,1.309,0.029,2.135,0.09,2.48c0.059,0.348,0.178,0.68,0.355,0.996h-1.469
			C282.11,55.596,282.016,55.254,281.975,54.864z M281.858,51.723c-0.512,0.209-1.277,0.387-2.297,0.531
			c-0.578,0.084-0.988,0.178-1.227,0.281c-0.24,0.105-0.426,0.258-0.555,0.457c-0.131,0.201-0.195,0.424-0.195,0.668
			c0,0.375,0.141,0.688,0.426,0.938c0.283,0.25,0.699,0.375,1.246,0.375c0.541,0,1.023-0.117,1.445-0.355
			c0.422-0.236,0.73-0.561,0.93-0.973c0.15-0.316,0.227-0.785,0.227-1.406V51.723z"/>
		<path fill="#3C3C3B" d="M285.428,55.887V44.435h1.406v11.453H285.428z"/>
		<path fill="#3C3C3B" d="M298.842,55.887V54.84c-0.527,0.824-1.301,1.234-2.32,1.234c-0.662,0-1.27-0.182-1.824-0.547
			c-0.555-0.363-0.984-0.873-1.289-1.527c-0.305-0.652-0.457-1.404-0.457-2.254c0-0.828,0.137-1.578,0.414-2.253
			c0.275-0.675,0.689-1.191,1.242-1.551c0.551-0.359,1.168-0.539,1.852-0.539c0.5,0,0.945,0.105,1.336,0.316
			s0.707,0.485,0.953,0.824v-4.109h1.398v11.453H298.842z M294.397,51.747c0,1.062,0.223,1.857,0.672,2.383
			c0.447,0.527,0.977,0.789,1.586,0.789c0.613,0,1.137-0.25,1.566-0.754c0.43-0.502,0.645-1.27,0.645-2.301
			c0-1.135-0.219-1.968-0.656-2.5s-0.977-0.797-1.617-0.797c-0.625,0-1.148,0.255-1.566,0.766
			C294.606,49.844,294.397,50.649,294.397,51.747z"/>
		<path fill="#3C3C3B" d="M308.038,53.215l1.453,0.18c-0.23,0.85-0.654,1.508-1.273,1.977c-0.621,0.469-1.412,0.703-2.375,0.703
			c-1.215,0-2.176-0.373-2.887-1.121c-0.711-0.746-1.066-1.795-1.066-3.145c0-1.395,0.359-2.479,1.078-3.25s1.65-1.156,2.797-1.156
			c1.109,0,2.016,0.378,2.719,1.133s1.055,1.818,1.055,3.187c0,0.084-0.004,0.209-0.008,0.375h-6.188
			c0.051,0.912,0.309,1.609,0.773,2.094c0.463,0.484,1.041,0.727,1.734,0.727c0.516,0,0.955-0.135,1.32-0.406
			C307.534,54.243,307.823,53.809,308.038,53.215z M303.42,50.942h4.633c-0.062-0.697-0.24-1.221-0.531-1.57
			c-0.449-0.542-1.029-0.812-1.742-0.812c-0.646,0-1.189,0.216-1.629,0.648C303.709,49.641,303.467,50.219,303.42,50.942z"/>
		<path fill="#3C3C3B" d="M315.67,55.887V44.435h1.406v11.453H315.67z"/>
		<path fill="#3C3C3B" d="M324.67,54.864c-0.521,0.443-1.023,0.756-1.504,0.938c-0.482,0.184-1,0.273-1.551,0.273
			c-0.912,0-1.613-0.223-2.102-0.668c-0.49-0.445-0.734-1.014-0.734-1.707c0-0.406,0.092-0.777,0.277-1.113
			c0.184-0.336,0.426-0.605,0.727-0.809c0.299-0.203,0.637-0.355,1.012-0.461c0.275-0.072,0.691-0.143,1.25-0.211
			c1.135-0.135,1.971-0.297,2.508-0.484c0.004-0.191,0.008-0.314,0.008-0.367c0-0.573-0.133-0.976-0.398-1.21
			c-0.359-0.317-0.895-0.477-1.602-0.477c-0.662,0-1.15,0.116-1.465,0.348c-0.316,0.231-0.549,0.642-0.699,1.23l-1.375-0.187
			c0.125-0.589,0.33-1.063,0.617-1.426c0.285-0.362,0.699-0.641,1.242-0.836c0.541-0.195,1.168-0.293,1.883-0.293
			c0.707,0,1.283,0.083,1.727,0.25c0.441,0.167,0.768,0.376,0.977,0.629c0.207,0.253,0.354,0.571,0.438,0.957
			c0.047,0.239,0.07,0.672,0.07,1.296v1.875c0,1.309,0.029,2.135,0.09,2.48c0.059,0.348,0.178,0.68,0.355,0.996h-1.469
			C324.805,55.596,324.711,55.254,324.67,54.864z M324.553,51.723c-0.512,0.209-1.277,0.387-2.297,0.531
			c-0.578,0.084-0.988,0.178-1.227,0.281c-0.24,0.105-0.426,0.258-0.555,0.457c-0.131,0.201-0.195,0.424-0.195,0.668
			c0,0.375,0.141,0.688,0.426,0.938c0.283,0.25,0.699,0.375,1.246,0.375c0.541,0,1.023-0.117,1.445-0.355
			c0.422-0.236,0.73-0.561,0.93-0.973c0.15-0.316,0.227-0.785,0.227-1.406V51.723z"/>
		<path fill="#3C3C3B" d="M334.905,55.887l-3.156-8.296h1.484l1.781,4.968c0.191,0.537,0.369,1.094,0.531,1.672
			c0.125-0.438,0.299-0.963,0.523-1.578l1.844-5.062h1.445l-3.141,8.296H334.905z"/>
		<path fill="#3C3C3B" d="M341.022,46.56l1.039-2.188h1.844l-1.719,2.188H341.022z M341.092,55.887v-8.296h1.406v8.296H341.092z"/>
		<path fill="#3C3C3B" d="M350.459,52.848l1.383,0.18c-0.152,0.953-0.539,1.699-1.16,2.238c-0.623,0.539-1.387,0.809-2.293,0.809
			c-1.137,0-2.049-0.371-2.738-1.113c-0.691-0.742-1.035-1.805-1.035-3.191c0-0.895,0.148-1.68,0.445-2.351
			c0.297-0.672,0.748-1.176,1.355-1.512c0.605-0.336,1.266-0.504,1.98-0.504c0.9,0,1.637,0.228,2.211,0.684
			c0.572,0.456,0.939,1.103,1.102,1.941l-1.367,0.211c-0.131-0.557-0.361-0.976-0.691-1.257c-0.332-0.281-0.73-0.422-1.199-0.422
			c-0.709,0-1.285,0.254-1.727,0.762c-0.443,0.508-0.664,1.312-0.664,2.41c0,1.115,0.213,1.926,0.641,2.43
			c0.426,0.506,0.984,0.758,1.672,0.758c0.551,0,1.012-0.168,1.383-0.508C350.125,54.073,350.36,53.551,350.459,52.848z"/>
		<path fill="#3C3C3B" d="M356.116,54.629l0.203,1.242c-0.396,0.084-0.75,0.125-1.062,0.125c-0.512,0-0.906-0.08-1.188-0.242
			c-0.281-0.16-0.48-0.373-0.594-0.637c-0.115-0.262-0.172-0.816-0.172-1.66v-4.773h-1.031v-1.094h1.031v-2.055l1.398-0.844v2.898
			h1.414v1.094h-1.414v4.851c0,0.402,0.023,0.66,0.074,0.773c0.049,0.115,0.129,0.207,0.242,0.273
			c0.111,0.068,0.271,0.102,0.48,0.102C355.655,54.684,355.86,54.667,356.116,54.629z"/>
		<path fill="#3C3C3B" d="M357.499,46.052v-1.617h1.406v1.617H357.499z M357.499,55.887v-8.296h1.406v8.296H357.499z"/>
		<path fill="#3C3C3B" d="M361.045,55.887v-8.296h1.258v1.164c0.26-0.406,0.605-0.733,1.039-0.98
			c0.432-0.247,0.924-0.371,1.477-0.371c0.613,0,1.117,0.128,1.512,0.383c0.393,0.255,0.67,0.612,0.832,1.07
			c0.656-0.969,1.51-1.453,2.562-1.453c0.822,0,1.455,0.228,1.898,0.684c0.441,0.456,0.664,1.157,0.664,2.105v5.695h-1.398v-5.227
			c0-0.562-0.047-0.967-0.137-1.214c-0.092-0.247-0.258-0.446-0.496-0.598c-0.24-0.151-0.521-0.227-0.844-0.227
			c-0.584,0-1.068,0.194-1.453,0.582c-0.387,0.388-0.578,1.009-0.578,1.863v4.82h-1.406v-5.391c0-0.625-0.115-1.093-0.344-1.406
			c-0.23-0.312-0.605-0.469-1.125-0.469c-0.396,0-0.762,0.104-1.098,0.312s-0.58,0.513-0.73,0.914
			c-0.152,0.402-0.227,0.98-0.227,1.734v4.305H361.045z"/>
		<path fill="#3C3C3B" d="M379.788,54.864c-0.521,0.443-1.023,0.756-1.504,0.938c-0.482,0.184-1,0.273-1.551,0.273
			c-0.912,0-1.613-0.223-2.102-0.668c-0.49-0.445-0.734-1.014-0.734-1.707c0-0.406,0.092-0.777,0.277-1.113
			c0.184-0.336,0.426-0.605,0.727-0.809c0.299-0.203,0.637-0.355,1.012-0.461c0.275-0.072,0.691-0.143,1.25-0.211
			c1.135-0.135,1.971-0.297,2.508-0.484c0.004-0.191,0.008-0.314,0.008-0.367c0-0.573-0.133-0.976-0.398-1.21
			c-0.359-0.317-0.895-0.477-1.602-0.477c-0.662,0-1.15,0.116-1.465,0.348c-0.316,0.231-0.549,0.642-0.699,1.23l-1.375-0.187
			c0.125-0.589,0.33-1.063,0.617-1.426c0.285-0.362,0.699-0.641,1.242-0.836c0.541-0.195,1.168-0.293,1.883-0.293
			c0.707,0,1.283,0.083,1.727,0.25c0.441,0.167,0.768,0.376,0.977,0.629c0.207,0.253,0.354,0.571,0.438,0.957
			c0.047,0.239,0.07,0.672,0.07,1.296v1.875c0,1.309,0.029,2.135,0.09,2.48c0.059,0.348,0.178,0.68,0.355,0.996h-1.469
			C379.922,55.596,379.829,55.254,379.788,54.864z M379.67,51.723c-0.512,0.209-1.277,0.387-2.297,0.531
			c-0.578,0.084-0.988,0.178-1.227,0.281c-0.24,0.105-0.426,0.258-0.555,0.457c-0.131,0.201-0.195,0.424-0.195,0.668
			c0,0.375,0.141,0.688,0.426,0.938c0.283,0.25,0.699,0.375,1.246,0.375c0.541,0,1.023-0.117,1.445-0.355
			c0.422-0.236,0.73-0.561,0.93-0.973c0.15-0.316,0.227-0.785,0.227-1.406V51.723z"/>
		<path fill="#3C3C3B" d="M383.639,55.887v-1.602h1.602v1.602c0,0.59-0.105,1.064-0.312,1.426c-0.209,0.363-0.539,0.643-0.992,0.84
			l-0.391-0.602c0.297-0.129,0.516-0.32,0.656-0.574c0.141-0.252,0.219-0.615,0.234-1.09H383.639z"/>
		<path fill="#3C3C3B" d="M397.545,55.887V54.84c-0.527,0.824-1.301,1.234-2.32,1.234c-0.662,0-1.27-0.182-1.824-0.547
			c-0.555-0.363-0.984-0.873-1.289-1.527c-0.305-0.652-0.457-1.404-0.457-2.254c0-0.828,0.137-1.578,0.414-2.253
			c0.275-0.675,0.689-1.191,1.242-1.551c0.551-0.359,1.168-0.539,1.852-0.539c0.5,0,0.945,0.105,1.336,0.316
			s0.707,0.485,0.953,0.824v-4.109h1.398v11.453H397.545z M393.1,51.747c0,1.062,0.223,1.857,0.672,2.383
			c0.447,0.527,0.977,0.789,1.586,0.789c0.613,0,1.137-0.25,1.566-0.754c0.43-0.502,0.645-1.27,0.645-2.301
			c0-1.135-0.219-1.968-0.656-2.5s-0.977-0.797-1.617-0.797c-0.625,0-1.148,0.255-1.566,0.766
			C393.309,49.844,393.1,50.649,393.1,51.747z"/>
		<path fill="#3C3C3B" d="M406.741,53.215l1.453,0.18c-0.23,0.85-0.654,1.508-1.273,1.977c-0.621,0.469-1.412,0.703-2.375,0.703
			c-1.215,0-2.176-0.373-2.887-1.121c-0.711-0.746-1.066-1.795-1.066-3.145c0-1.395,0.359-2.479,1.078-3.25s1.65-1.156,2.797-1.156
			c1.109,0,2.016,0.378,2.719,1.133s1.055,1.818,1.055,3.187c0,0.084-0.004,0.209-0.008,0.375h-6.188
			c0.051,0.912,0.309,1.609,0.773,2.094c0.463,0.484,1.041,0.727,1.734,0.727c0.516,0,0.955-0.135,1.32-0.406
			C406.237,54.243,406.526,53.809,406.741,53.215z M402.124,50.942h4.633c-0.062-0.697-0.24-1.221-0.531-1.57
			c-0.449-0.542-1.029-0.812-1.742-0.812c-0.646,0-1.189,0.216-1.629,0.648C402.413,49.641,402.17,50.219,402.124,50.942z"/>
		<path fill="#3C3C3B" d="M413.842,53.411l1.391-0.219c0.078,0.559,0.295,0.984,0.652,1.281c0.355,0.297,0.855,0.445,1.496,0.445
			c0.645,0,1.125-0.131,1.438-0.395c0.312-0.262,0.469-0.57,0.469-0.926c0-0.316-0.139-0.566-0.414-0.75
			c-0.193-0.125-0.672-0.283-1.438-0.477c-1.031-0.26-1.746-0.484-2.145-0.676c-0.398-0.189-0.701-0.453-0.906-0.789
			c-0.207-0.336-0.309-0.707-0.309-1.113c0-0.37,0.084-0.712,0.254-1.027c0.168-0.315,0.398-0.577,0.691-0.785
			c0.219-0.161,0.516-0.298,0.895-0.41c0.377-0.112,0.781-0.168,1.215-0.168c0.65,0,1.223,0.094,1.715,0.281s0.855,0.441,1.09,0.762
			s0.395,0.749,0.484,1.285l-1.375,0.188c-0.062-0.427-0.244-0.761-0.543-1c-0.301-0.239-0.723-0.359-1.27-0.359
			c-0.646,0-1.107,0.106-1.383,0.32c-0.277,0.214-0.414,0.464-0.414,0.75c0,0.183,0.057,0.347,0.172,0.492
			c0.113,0.152,0.293,0.277,0.539,0.375c0.141,0.053,0.555,0.172,1.242,0.359c0.994,0.266,1.688,0.484,2.082,0.652
			c0.393,0.17,0.701,0.416,0.926,0.738c0.223,0.324,0.336,0.725,0.336,1.203c0,0.469-0.137,0.91-0.41,1.324
			s-0.668,0.734-1.184,0.961s-1.1,0.34-1.75,0.34c-1.078,0-1.9-0.223-2.465-0.672C414.358,54.956,413.999,54.292,413.842,53.411z"/>
		<path fill="#3C3C3B" d="M427.842,55.887v-1.219c-0.646,0.938-1.523,1.406-2.633,1.406c-0.49,0-0.947-0.094-1.371-0.281
			c-0.426-0.188-0.74-0.422-0.945-0.707c-0.207-0.283-0.352-0.631-0.434-1.043c-0.059-0.275-0.086-0.713-0.086-1.312v-5.14h1.406
			v4.601c0,0.734,0.027,1.23,0.086,1.484c0.088,0.371,0.275,0.66,0.562,0.871c0.285,0.211,0.641,0.316,1.062,0.316
			s0.816-0.107,1.188-0.324c0.369-0.215,0.631-0.51,0.785-0.883c0.152-0.371,0.23-0.912,0.23-1.621v-4.445h1.406v8.296H427.842z"/>
		<path fill="#3C3C3B" d="M430.741,53.411l1.391-0.219c0.078,0.559,0.295,0.984,0.652,1.281c0.355,0.297,0.855,0.445,1.496,0.445
			c0.645,0,1.125-0.131,1.438-0.395c0.312-0.262,0.469-0.57,0.469-0.926c0-0.316-0.139-0.566-0.414-0.75
			c-0.193-0.125-0.672-0.283-1.438-0.477c-1.031-0.26-1.746-0.484-2.145-0.676c-0.398-0.189-0.701-0.453-0.906-0.789
			c-0.207-0.336-0.309-0.707-0.309-1.113c0-0.37,0.084-0.712,0.254-1.027c0.168-0.315,0.398-0.577,0.691-0.785
			c0.219-0.161,0.516-0.298,0.895-0.41c0.377-0.112,0.781-0.168,1.215-0.168c0.65,0,1.223,0.094,1.715,0.281s0.855,0.441,1.09,0.762
			s0.395,0.749,0.484,1.285l-1.375,0.188c-0.062-0.427-0.244-0.761-0.543-1c-0.301-0.239-0.723-0.359-1.27-0.359
			c-0.646,0-1.107,0.106-1.383,0.32c-0.277,0.214-0.414,0.464-0.414,0.75c0,0.183,0.057,0.347,0.172,0.492
			c0.113,0.152,0.293,0.277,0.539,0.375c0.141,0.053,0.555,0.172,1.242,0.359c0.994,0.266,1.688,0.484,2.082,0.652
			c0.393,0.17,0.701,0.416,0.926,0.738c0.223,0.324,0.336,0.725,0.336,1.203c0,0.469-0.137,0.91-0.41,1.324
			s-0.668,0.734-1.184,0.961s-1.1,0.34-1.75,0.34c-1.078,0-1.9-0.223-2.465-0.672C431.256,54.956,430.897,54.292,430.741,53.411z"/>
		<path fill="#3C3C3B" d="M90.115,75.088v-7.203h-1.242v-1.094h1.242v-0.883c0-0.559,0.049-0.973,0.148-1.242
			c0.135-0.365,0.374-0.66,0.715-0.887c0.341-0.227,0.819-0.34,1.434-0.34c0.396,0,0.833,0.047,1.312,0.141l-0.211,1.227
			c-0.292-0.053-0.568-0.078-0.828-0.078c-0.427,0-0.729,0.09-0.906,0.273c-0.177,0.182-0.266,0.523-0.266,1.023v0.766h1.617v1.094
			h-1.617v7.203H90.115z"/>
		<path fill="#3C3C3B" d="M99.639,74.065c-0.521,0.441-1.022,0.754-1.504,0.938c-0.482,0.182-0.999,0.273-1.551,0.273
			c-0.912,0-1.612-0.223-2.102-0.668c-0.49-0.445-0.734-1.016-0.734-1.707c0-0.406,0.092-0.777,0.277-1.113
			c0.185-0.336,0.427-0.605,0.727-0.809c0.299-0.203,0.637-0.357,1.012-0.461c0.276-0.074,0.692-0.145,1.25-0.211
			c1.135-0.137,1.971-0.297,2.508-0.484c0.005-0.193,0.008-0.316,0.008-0.367c0-0.574-0.133-0.977-0.398-1.211
			c-0.359-0.318-0.894-0.477-1.602-0.477c-0.662,0-1.15,0.115-1.465,0.348c-0.315,0.23-0.548,0.641-0.699,1.23l-1.375-0.188
			c0.125-0.59,0.331-1.064,0.617-1.426c0.286-0.363,0.7-0.641,1.242-0.836c0.542-0.195,1.169-0.293,1.883-0.293
			c0.708,0,1.284,0.082,1.727,0.25c0.442,0.166,0.768,0.375,0.977,0.629c0.208,0.252,0.354,0.57,0.438,0.957
			c0.047,0.238,0.07,0.672,0.07,1.297v1.875c0,1.307,0.03,2.133,0.09,2.48c0.06,0.346,0.178,0.678,0.355,0.996H99.92
			C99.774,74.795,99.68,74.456,99.639,74.065z M99.521,70.924c-0.511,0.207-1.276,0.385-2.297,0.531
			c-0.578,0.082-0.987,0.176-1.227,0.281c-0.24,0.104-0.425,0.256-0.555,0.457c-0.13,0.199-0.195,0.422-0.195,0.668
			c0,0.375,0.142,0.688,0.426,0.938c0.284,0.25,0.699,0.375,1.246,0.375c0.542,0,1.023-0.119,1.445-0.355
			c0.422-0.238,0.731-0.562,0.93-0.973c0.151-0.318,0.227-0.787,0.227-1.406V70.924z"/>
		<path fill="#3C3C3B" d="M103.123,75.088v-8.297h1.258v1.164c0.26-0.406,0.606-0.734,1.039-0.98
			c0.432-0.248,0.924-0.371,1.477-0.371c0.614,0,1.118,0.127,1.512,0.383c0.393,0.254,0.67,0.611,0.832,1.07
			c0.656-0.969,1.51-1.453,2.562-1.453c0.823,0,1.456,0.227,1.898,0.684c0.442,0.455,0.664,1.156,0.664,2.105v5.695h-1.398v-5.227
			c0-0.562-0.046-0.969-0.137-1.215c-0.091-0.248-0.257-0.447-0.496-0.598c-0.24-0.152-0.521-0.227-0.844-0.227
			c-0.583,0-1.068,0.193-1.453,0.582c-0.386,0.387-0.578,1.008-0.578,1.863v4.82h-1.406v-5.391c0-0.625-0.115-1.094-0.344-1.406
			c-0.229-0.312-0.604-0.469-1.125-0.469c-0.396,0-0.762,0.104-1.098,0.312c-0.336,0.207-0.58,0.512-0.73,0.914
			c-0.151,0.4-0.227,0.979-0.227,1.734v4.305H103.123z"/>
		<path fill="#3C3C3B" d="M116.459,65.252v-1.617h1.406v1.617H116.459z M116.459,75.088v-8.297h1.406v8.297H116.459z"/>
		<path fill="#3C3C3B" d="M119.975,75.088V63.635h1.406v11.453H119.975z"/>
		<path fill="#3C3C3B" d="M123.568,65.252v-1.617h1.406v1.617H123.568z M123.568,75.088v-8.297h1.406v8.297H123.568z"/>
		<path fill="#3C3C3B" d="M132.529,74.065c-0.521,0.441-1.022,0.754-1.504,0.938c-0.482,0.182-0.999,0.273-1.551,0.273
			c-0.912,0-1.612-0.223-2.102-0.668c-0.49-0.445-0.734-1.016-0.734-1.707c0-0.406,0.092-0.777,0.277-1.113
			c0.185-0.336,0.427-0.605,0.727-0.809c0.299-0.203,0.637-0.357,1.012-0.461c0.276-0.074,0.692-0.145,1.25-0.211
			c1.135-0.137,1.971-0.297,2.508-0.484c0.005-0.193,0.008-0.316,0.008-0.367c0-0.574-0.133-0.977-0.398-1.211
			c-0.359-0.318-0.894-0.477-1.602-0.477c-0.662,0-1.15,0.115-1.465,0.348c-0.315,0.23-0.548,0.641-0.699,1.23l-1.375-0.188
			c0.125-0.59,0.331-1.064,0.617-1.426c0.286-0.363,0.7-0.641,1.242-0.836c0.542-0.195,1.169-0.293,1.883-0.293
			c0.708,0,1.284,0.082,1.727,0.25c0.442,0.166,0.768,0.375,0.977,0.629c0.208,0.252,0.354,0.57,0.438,0.957
			c0.047,0.238,0.07,0.672,0.07,1.297v1.875c0,1.307,0.03,2.133,0.09,2.48c0.06,0.346,0.178,0.678,0.355,0.996h-1.469
			C132.665,74.795,132.571,74.456,132.529,74.065z M132.412,70.924c-0.511,0.207-1.276,0.385-2.297,0.531
			c-0.578,0.082-0.987,0.176-1.227,0.281c-0.24,0.104-0.425,0.256-0.555,0.457c-0.13,0.199-0.195,0.422-0.195,0.668
			c0,0.375,0.142,0.688,0.426,0.938c0.284,0.25,0.699,0.375,1.246,0.375c0.542,0,1.023-0.119,1.445-0.355
			c0.422-0.238,0.731-0.562,0.93-0.973c0.151-0.318,0.227-0.787,0.227-1.406V70.924z"/>
		<path fill="#3C3C3B" d="M135.998,75.088v-8.297h1.266v1.258c0.323-0.59,0.621-0.977,0.895-1.164s0.574-0.281,0.902-0.281
			c0.474,0,0.956,0.15,1.445,0.453l-0.484,1.305c-0.344-0.203-0.688-0.305-1.031-0.305c-0.308,0-0.583,0.092-0.828,0.277
			c-0.245,0.184-0.419,0.441-0.523,0.77c-0.156,0.5-0.234,1.047-0.234,1.641v4.344H135.998z"/>
		<path fill="#3C3C3B" d="M147.021,72.417l1.453,0.18c-0.229,0.848-0.654,1.508-1.273,1.977c-0.62,0.469-1.412,0.703-2.375,0.703
			c-1.214,0-2.176-0.375-2.887-1.121c-0.711-0.748-1.066-1.797-1.066-3.145c0-1.396,0.359-2.48,1.078-3.25
			c0.719-0.771,1.651-1.156,2.797-1.156c1.109,0,2.016,0.377,2.719,1.133c0.703,0.754,1.055,1.816,1.055,3.188
			c0,0.082-0.003,0.207-0.008,0.375h-6.188c0.052,0.91,0.31,1.609,0.773,2.094c0.463,0.484,1.042,0.727,1.734,0.727
			c0.516,0,0.956-0.137,1.32-0.406C146.519,73.442,146.808,73.01,147.021,72.417z M142.404,70.143h4.633
			c-0.062-0.699-0.24-1.223-0.531-1.57c-0.448-0.543-1.029-0.812-1.742-0.812c-0.646,0-1.189,0.215-1.629,0.648
			C142.694,68.84,142.451,69.418,142.404,70.143z"/>
		<path fill="#3C3C3B" d="M149.678,72.612l1.391-0.219c0.078,0.557,0.295,0.984,0.652,1.281c0.356,0.297,0.855,0.445,1.496,0.445
			c0.646,0,1.125-0.133,1.438-0.395c0.312-0.264,0.469-0.572,0.469-0.926c0-0.318-0.138-0.568-0.414-0.75
			c-0.193-0.125-0.672-0.285-1.438-0.477c-1.031-0.262-1.746-0.486-2.145-0.676c-0.398-0.191-0.701-0.453-0.906-0.789
			c-0.206-0.336-0.309-0.707-0.309-1.113c0-0.371,0.084-0.713,0.254-1.027c0.169-0.316,0.399-0.578,0.691-0.785
			c0.219-0.162,0.517-0.299,0.895-0.41c0.377-0.113,0.782-0.168,1.215-0.168c0.651,0,1.223,0.094,1.715,0.281
			s0.855,0.441,1.09,0.762s0.396,0.748,0.484,1.285l-1.375,0.188c-0.062-0.428-0.244-0.762-0.543-1
			c-0.3-0.24-0.723-0.359-1.27-0.359c-0.646,0-1.107,0.105-1.383,0.32c-0.276,0.213-0.414,0.463-0.414,0.75
			c0,0.182,0.057,0.346,0.172,0.492c0.114,0.15,0.294,0.275,0.539,0.375c0.141,0.051,0.555,0.172,1.242,0.359
			c0.995,0.266,1.688,0.482,2.082,0.652c0.393,0.168,0.702,0.414,0.926,0.738c0.224,0.322,0.336,0.723,0.336,1.203
			c0,0.469-0.137,0.91-0.41,1.324s-0.668,0.734-1.184,0.961s-1.099,0.34-1.75,0.34c-1.078,0-1.9-0.225-2.465-0.672
			C150.194,74.155,149.834,73.491,149.678,72.612z"/>
		<path fill="#3C3C3B" d="M162.162,70.94c0-1.537,0.427-2.676,1.281-3.414c0.713-0.615,1.583-0.922,2.609-0.922
			c1.141,0,2.073,0.373,2.797,1.121c0.724,0.746,1.086,1.779,1.086,3.098c0,1.066-0.16,1.906-0.48,2.52
			c-0.32,0.611-0.787,1.086-1.398,1.426c-0.612,0.338-1.28,0.508-2.004,0.508c-1.162,0-2.101-0.373-2.816-1.117
			C162.52,73.413,162.162,72.34,162.162,70.94z M163.607,70.94c0,1.062,0.231,1.857,0.695,2.387c0.463,0.527,1.047,0.793,1.75,0.793
			c0.698,0,1.278-0.266,1.742-0.797c0.463-0.531,0.695-1.342,0.695-2.43c0-1.027-0.233-1.805-0.699-2.332
			c-0.466-0.529-1.046-0.793-1.738-0.793c-0.703,0-1.287,0.262-1.75,0.789C163.839,69.083,163.607,69.877,163.607,70.94z"/>
		<path fill="#3C3C3B" d="M175.998,75.088V63.635h1.406v11.453H175.998z"/>
		<path fill="#3C3C3B" d="M184.998,74.065c-0.521,0.441-1.022,0.754-1.504,0.938c-0.482,0.182-0.999,0.273-1.551,0.273
			c-0.912,0-1.612-0.223-2.102-0.668c-0.49-0.445-0.734-1.016-0.734-1.707c0-0.406,0.092-0.777,0.277-1.113
			c0.185-0.336,0.427-0.605,0.727-0.809c0.299-0.203,0.637-0.357,1.012-0.461c0.276-0.074,0.692-0.145,1.25-0.211
			c1.135-0.137,1.971-0.297,2.508-0.484c0.005-0.193,0.008-0.316,0.008-0.367c0-0.574-0.133-0.977-0.398-1.211
			c-0.359-0.318-0.894-0.477-1.602-0.477c-0.662,0-1.15,0.115-1.465,0.348c-0.315,0.23-0.548,0.641-0.699,1.23l-1.375-0.188
			c0.125-0.59,0.331-1.064,0.617-1.426c0.286-0.363,0.7-0.641,1.242-0.836c0.542-0.195,1.169-0.293,1.883-0.293
			c0.708,0,1.284,0.082,1.727,0.25c0.442,0.166,0.768,0.375,0.977,0.629c0.208,0.252,0.354,0.57,0.438,0.957
			c0.047,0.238,0.07,0.672,0.07,1.297v1.875c0,1.307,0.03,2.133,0.09,2.48c0.06,0.346,0.178,0.678,0.355,0.996h-1.469
			C185.133,74.795,185.04,74.456,184.998,74.065z M184.881,70.924c-0.511,0.207-1.276,0.385-2.297,0.531
			c-0.578,0.082-0.987,0.176-1.227,0.281c-0.24,0.104-0.425,0.256-0.555,0.457c-0.13,0.199-0.195,0.422-0.195,0.668
			c0,0.375,0.142,0.688,0.426,0.938c0.284,0.25,0.699,0.375,1.246,0.375c0.542,0,1.023-0.119,1.445-0.355
			c0.422-0.238,0.731-0.562,0.93-0.973c0.151-0.318,0.227-0.787,0.227-1.406V70.924z"/>
		<path fill="#3C3C3B" d="M198.311,75.088v-1.047c-0.526,0.822-1.3,1.234-2.32,1.234c-0.662,0-1.27-0.184-1.824-0.547
			c-0.555-0.365-0.984-0.875-1.289-1.527c-0.305-0.654-0.457-1.406-0.457-2.254c0-0.828,0.138-1.58,0.414-2.254
			c0.276-0.676,0.69-1.191,1.242-1.551c0.552-0.359,1.169-0.539,1.852-0.539c0.5,0,0.945,0.105,1.336,0.316s0.708,0.484,0.953,0.824
			v-4.109h1.398v11.453H198.311z M193.865,70.948c0,1.062,0.224,1.855,0.672,2.383c0.448,0.525,0.977,0.789,1.586,0.789
			c0.614,0,1.137-0.252,1.566-0.754c0.43-0.504,0.645-1.27,0.645-2.301c0-1.137-0.219-1.969-0.656-2.5s-0.977-0.797-1.617-0.797
			c-0.625,0-1.147,0.254-1.566,0.766C194.075,69.043,193.865,69.848,193.865,70.948z"/>
		<path fill="#3C3C3B" d="M207.506,72.417l1.453,0.18c-0.229,0.848-0.654,1.508-1.273,1.977c-0.62,0.469-1.412,0.703-2.375,0.703
			c-1.214,0-2.176-0.375-2.887-1.121c-0.711-0.748-1.066-1.797-1.066-3.145c0-1.396,0.359-2.48,1.078-3.25
			c0.719-0.771,1.651-1.156,2.797-1.156c1.109,0,2.016,0.377,2.719,1.133c0.703,0.754,1.055,1.816,1.055,3.188
			c0,0.082-0.003,0.207-0.008,0.375h-6.188c0.052,0.91,0.31,1.609,0.773,2.094c0.463,0.484,1.042,0.727,1.734,0.727
			c0.516,0,0.956-0.137,1.32-0.406C207.003,73.442,207.292,73.01,207.506,72.417z M202.889,70.143h4.633
			c-0.062-0.699-0.24-1.223-0.531-1.57c-0.448-0.543-1.029-0.812-1.742-0.812c-0.646,0-1.189,0.215-1.629,0.648
			C203.179,68.84,202.936,69.418,202.889,70.143z"/>
		<path fill="#3C3C3B" d="M215.139,75.088V63.635h1.406v11.453H215.139z"/>
		<path fill="#3C3C3B" d="M224.139,74.065c-0.521,0.441-1.022,0.754-1.504,0.938c-0.482,0.182-0.999,0.273-1.551,0.273
			c-0.912,0-1.612-0.223-2.102-0.668c-0.49-0.445-0.734-1.016-0.734-1.707c0-0.406,0.092-0.777,0.277-1.113
			c0.185-0.336,0.427-0.605,0.727-0.809c0.299-0.203,0.637-0.357,1.012-0.461c0.276-0.074,0.692-0.145,1.25-0.211
			c1.135-0.137,1.971-0.297,2.508-0.484c0.005-0.193,0.008-0.316,0.008-0.367c0-0.574-0.133-0.977-0.398-1.211
			c-0.359-0.318-0.894-0.477-1.602-0.477c-0.662,0-1.15,0.115-1.465,0.348c-0.315,0.23-0.548,0.641-0.699,1.23l-1.375-0.188
			c0.125-0.59,0.331-1.064,0.617-1.426c0.286-0.363,0.7-0.641,1.242-0.836c0.542-0.195,1.169-0.293,1.883-0.293
			c0.708,0,1.284,0.082,1.727,0.25c0.442,0.166,0.768,0.375,0.977,0.629c0.208,0.252,0.354,0.57,0.438,0.957
			c0.047,0.238,0.07,0.672,0.07,1.297v1.875c0,1.307,0.03,2.133,0.09,2.48c0.06,0.346,0.178,0.678,0.355,0.996h-1.469
			C224.274,74.795,224.18,74.456,224.139,74.065z M224.021,70.924c-0.511,0.207-1.276,0.385-2.297,0.531
			c-0.578,0.082-0.987,0.176-1.227,0.281c-0.24,0.104-0.425,0.256-0.555,0.457c-0.13,0.199-0.195,0.422-0.195,0.668
			c0,0.375,0.142,0.688,0.426,0.938c0.284,0.25,0.699,0.375,1.246,0.375c0.542,0,1.023-0.119,1.445-0.355
			c0.422-0.238,0.731-0.562,0.93-0.973c0.151-0.318,0.227-0.787,0.227-1.406V70.924z"/>
		<path fill="#3C3C3B" d="M227.061,72.612l1.391-0.219c0.078,0.557,0.295,0.984,0.652,1.281c0.355,0.297,0.855,0.445,1.496,0.445
			c0.645,0,1.125-0.133,1.438-0.395c0.312-0.264,0.469-0.572,0.469-0.926c0-0.318-0.139-0.568-0.414-0.75
			c-0.193-0.125-0.672-0.285-1.438-0.477c-1.031-0.262-1.746-0.486-2.145-0.676c-0.398-0.191-0.701-0.453-0.907-0.789
			c-0.206-0.336-0.309-0.707-0.309-1.113c0-0.371,0.084-0.713,0.254-1.027c0.169-0.316,0.399-0.578,0.692-0.785
			c0.219-0.162,0.516-0.299,0.895-0.41c0.377-0.113,0.781-0.168,1.215-0.168c0.65,0,1.223,0.094,1.715,0.281s0.855,0.441,1.09,0.762
			s0.395,0.748,0.484,1.285l-1.375,0.188c-0.062-0.428-0.244-0.762-0.543-1c-0.301-0.24-0.723-0.359-1.27-0.359
			c-0.646,0-1.107,0.105-1.383,0.32c-0.277,0.213-0.414,0.463-0.414,0.75c0,0.182,0.057,0.346,0.172,0.492
			c0.113,0.15,0.293,0.275,0.539,0.375c0.141,0.051,0.555,0.172,1.242,0.359c0.994,0.266,1.688,0.482,2.082,0.652
			c0.393,0.168,0.701,0.414,0.926,0.738c0.223,0.322,0.336,0.723,0.336,1.203c0,0.469-0.137,0.91-0.41,1.324
			s-0.668,0.734-1.184,0.961s-1.1,0.34-1.75,0.34c-1.078,0-1.9-0.225-2.465-0.672C227.577,74.155,227.217,73.491,227.061,72.612z"/>
		<path fill="#3C3C3B" d="M240.069,78.268V66.792h1.281v1.078c0.301-0.422,0.643-0.738,1.023-0.949
			c0.379-0.211,0.84-0.316,1.383-0.316c0.707,0,1.332,0.182,1.875,0.547c0.541,0.363,0.949,0.879,1.227,1.543
			c0.275,0.664,0.414,1.391,0.414,2.184c0,0.848-0.152,1.613-0.457,2.293s-0.748,1.199-1.328,1.562
			c-0.582,0.361-1.191,0.543-1.832,0.543c-0.469,0-0.891-0.1-1.262-0.297c-0.373-0.199-0.68-0.449-0.918-0.75v4.039H240.069z
			 M241.342,70.987c0,1.066,0.215,1.855,0.648,2.367c0.432,0.51,0.955,0.766,1.57,0.766c0.625,0,1.16-0.266,1.605-0.793
			c0.445-0.529,0.668-1.348,0.668-2.457c0-1.059-0.219-1.85-0.652-2.375c-0.436-0.527-0.955-0.789-1.559-0.789
			c-0.6,0-1.129,0.279-1.59,0.84C241.573,69.104,241.342,69.918,241.342,70.987z"/>
		<path fill="#3C3C3B" d="M254.647,72.417l1.453,0.18c-0.23,0.848-0.654,1.508-1.273,1.977c-0.621,0.469-1.412,0.703-2.375,0.703
			c-1.215,0-2.176-0.375-2.887-1.121c-0.711-0.748-1.066-1.797-1.066-3.145c0-1.396,0.359-2.48,1.078-3.25
			c0.719-0.771,1.65-1.156,2.797-1.156c1.109,0,2.016,0.377,2.719,1.133c0.703,0.754,1.055,1.816,1.055,3.188
			c0,0.082-0.004,0.207-0.008,0.375h-6.188c0.051,0.91,0.309,1.609,0.773,2.094c0.463,0.484,1.041,0.727,1.734,0.727
			c0.516,0,0.955-0.137,1.32-0.406C254.143,73.442,254.432,73.01,254.647,72.417z M250.03,70.143h4.633
			c-0.062-0.699-0.24-1.223-0.531-1.57c-0.449-0.543-1.029-0.812-1.742-0.812c-0.646,0-1.189,0.215-1.629,0.648
			C250.319,68.84,250.077,69.418,250.03,70.143z"/>
		<path fill="#3C3C3B" d="M257.85,75.088v-8.297h1.266v1.258c0.322-0.59,0.621-0.977,0.895-1.164s0.574-0.281,0.902-0.281
			c0.473,0,0.955,0.15,1.445,0.453l-0.484,1.305c-0.344-0.203-0.688-0.305-1.031-0.305c-0.309,0-0.584,0.092-0.828,0.277
			c-0.246,0.184-0.42,0.441-0.523,0.77c-0.156,0.5-0.234,1.047-0.234,1.641v4.344H257.85z"/>
		<path fill="#3C3C3B" d="M262.631,72.612l1.391-0.219c0.078,0.557,0.295,0.984,0.652,1.281c0.355,0.297,0.855,0.445,1.496,0.445
			c0.645,0,1.125-0.133,1.438-0.395c0.312-0.264,0.469-0.572,0.469-0.926c0-0.318-0.139-0.568-0.414-0.75
			c-0.193-0.125-0.672-0.285-1.438-0.477c-1.031-0.262-1.746-0.486-2.145-0.676c-0.398-0.191-0.701-0.453-0.906-0.789
			c-0.207-0.336-0.309-0.707-0.309-1.113c0-0.371,0.084-0.713,0.254-1.027c0.168-0.316,0.398-0.578,0.691-0.785
			c0.219-0.162,0.516-0.299,0.895-0.41c0.377-0.113,0.781-0.168,1.215-0.168c0.65,0,1.223,0.094,1.715,0.281s0.855,0.441,1.09,0.762
			s0.395,0.748,0.484,1.285l-1.375,0.188c-0.062-0.428-0.244-0.762-0.543-1c-0.301-0.24-0.723-0.359-1.27-0.359
			c-0.646,0-1.107,0.105-1.383,0.32c-0.277,0.213-0.414,0.463-0.414,0.75c0,0.182,0.057,0.346,0.172,0.492
			c0.113,0.15,0.293,0.275,0.539,0.375c0.141,0.051,0.555,0.172,1.242,0.359c0.994,0.266,1.688,0.482,2.082,0.652
			c0.393,0.168,0.701,0.414,0.926,0.738c0.223,0.322,0.336,0.723,0.336,1.203c0,0.469-0.137,0.91-0.41,1.324
			s-0.668,0.734-1.184,0.961s-1.1,0.34-1.75,0.34c-1.078,0-1.9-0.225-2.465-0.672C263.147,74.155,262.788,73.491,262.631,72.612z"/>
		<path fill="#3C3C3B" d="M270.67,70.94c0-1.537,0.426-2.676,1.281-3.414c0.713-0.615,1.582-0.922,2.609-0.922
			c1.141,0,2.072,0.373,2.797,1.121c0.723,0.746,1.086,1.779,1.086,3.098c0,1.066-0.16,1.906-0.48,2.52
			c-0.32,0.611-0.787,1.086-1.398,1.426c-0.613,0.338-1.281,0.508-2.004,0.508c-1.162,0-2.102-0.373-2.816-1.117
			C271.028,73.413,270.67,72.34,270.67,70.94z M272.116,70.94c0,1.062,0.23,1.857,0.695,2.387c0.463,0.527,1.047,0.793,1.75,0.793
			c0.697,0,1.277-0.266,1.742-0.797c0.463-0.531,0.695-1.342,0.695-2.43c0-1.027-0.234-1.805-0.699-2.332
			c-0.467-0.529-1.047-0.793-1.738-0.793c-0.703,0-1.287,0.262-1.75,0.789C272.346,69.083,272.116,69.877,272.116,70.94z"/>
		<path fill="#3C3C3B" d="M280.092,75.088v-8.297h1.266v1.18c0.609-0.912,1.488-1.367,2.641-1.367c0.5,0,0.959,0.09,1.379,0.27
			c0.418,0.18,0.732,0.414,0.941,0.707c0.207,0.291,0.354,0.637,0.438,1.039c0.051,0.26,0.078,0.715,0.078,1.367v5.102h-1.406
			v-5.047c0-0.574-0.055-1.002-0.164-1.285c-0.109-0.285-0.305-0.512-0.582-0.68c-0.279-0.17-0.605-0.254-0.98-0.254
			c-0.6,0-1.117,0.189-1.551,0.57c-0.436,0.379-0.652,1.102-0.652,2.164v4.531H280.092z"/>
		<path fill="#3C3C3B" d="M294.405,74.065c-0.521,0.441-1.023,0.754-1.504,0.938c-0.482,0.182-1,0.273-1.551,0.273
			c-0.912,0-1.613-0.223-2.102-0.668c-0.49-0.445-0.734-1.016-0.734-1.707c0-0.406,0.092-0.777,0.277-1.113
			c0.184-0.336,0.426-0.605,0.727-0.809c0.299-0.203,0.637-0.357,1.012-0.461c0.275-0.074,0.691-0.145,1.25-0.211
			c1.135-0.137,1.971-0.297,2.508-0.484c0.004-0.193,0.008-0.316,0.008-0.367c0-0.574-0.133-0.977-0.398-1.211
			c-0.359-0.318-0.895-0.477-1.602-0.477c-0.662,0-1.15,0.115-1.465,0.348c-0.316,0.23-0.549,0.641-0.699,1.23l-1.375-0.188
			c0.125-0.59,0.33-1.064,0.617-1.426c0.285-0.363,0.699-0.641,1.242-0.836c0.541-0.195,1.168-0.293,1.883-0.293
			c0.707,0,1.283,0.082,1.727,0.25c0.441,0.166,0.768,0.375,0.977,0.629c0.207,0.252,0.354,0.57,0.438,0.957
			c0.047,0.238,0.07,0.672,0.07,1.297v1.875c0,1.307,0.029,2.133,0.09,2.48c0.059,0.346,0.178,0.678,0.355,0.996h-1.469
			C294.54,74.795,294.446,74.456,294.405,74.065z M294.288,70.924c-0.512,0.207-1.277,0.385-2.297,0.531
			c-0.578,0.082-0.988,0.176-1.227,0.281c-0.24,0.104-0.426,0.256-0.555,0.457c-0.131,0.199-0.195,0.422-0.195,0.668
			c0,0.375,0.141,0.688,0.426,0.938c0.283,0.25,0.699,0.375,1.246,0.375c0.541,0,1.023-0.119,1.445-0.355
			c0.422-0.238,0.73-0.562,0.93-0.973c0.15-0.318,0.227-0.787,0.227-1.406V70.924z"/>
		<path fill="#3C3C3B" d="M297.327,72.612l1.391-0.219c0.078,0.557,0.295,0.984,0.652,1.281c0.355,0.297,0.855,0.445,1.496,0.445
			c0.645,0,1.125-0.133,1.438-0.395c0.312-0.264,0.469-0.572,0.469-0.926c0-0.318-0.139-0.568-0.414-0.75
			c-0.193-0.125-0.672-0.285-1.438-0.477c-1.031-0.262-1.746-0.486-2.145-0.676c-0.398-0.191-0.701-0.453-0.906-0.789
			c-0.207-0.336-0.309-0.707-0.309-1.113c0-0.371,0.084-0.713,0.254-1.027c0.168-0.316,0.398-0.578,0.691-0.785
			c0.219-0.162,0.516-0.299,0.895-0.41c0.377-0.113,0.781-0.168,1.215-0.168c0.65,0,1.223,0.094,1.715,0.281s0.855,0.441,1.09,0.762
			s0.395,0.748,0.484,1.285l-1.375,0.188c-0.062-0.428-0.244-0.762-0.543-1c-0.301-0.24-0.723-0.359-1.27-0.359
			c-0.646,0-1.107,0.105-1.383,0.32c-0.277,0.213-0.414,0.463-0.414,0.75c0,0.182,0.057,0.346,0.172,0.492
			c0.113,0.15,0.293,0.275,0.539,0.375c0.141,0.051,0.555,0.172,1.242,0.359c0.994,0.266,1.688,0.482,2.082,0.652
			c0.393,0.168,0.701,0.414,0.926,0.738c0.223,0.322,0.336,0.723,0.336,1.203c0,0.469-0.137,0.91-0.41,1.324
			s-0.668,0.734-1.184,0.961s-1.1,0.34-1.75,0.34c-1.078,0-1.9-0.225-2.465-0.672C297.842,74.155,297.483,73.491,297.327,72.612z"/>
		<path fill="#3C3C3B" d="M315.749,72.049l1.383,0.18c-0.152,0.953-0.539,1.699-1.16,2.238c-0.623,0.539-1.387,0.809-2.293,0.809
			c-1.137,0-2.049-0.371-2.738-1.113c-0.691-0.742-1.035-1.807-1.035-3.191c0-0.896,0.148-1.68,0.445-2.352s0.748-1.176,1.355-1.512
			c0.605-0.336,1.266-0.504,1.98-0.504c0.9,0,1.637,0.227,2.211,0.684c0.572,0.455,0.939,1.102,1.102,1.941l-1.367,0.211
			c-0.131-0.559-0.361-0.977-0.691-1.258c-0.332-0.281-0.73-0.422-1.199-0.422c-0.709,0-1.285,0.254-1.727,0.762
			c-0.443,0.508-0.664,1.311-0.664,2.41c0,1.113,0.213,1.924,0.641,2.43c0.426,0.504,0.984,0.758,1.672,0.758
			c0.551,0,1.012-0.17,1.383-0.508C315.415,73.272,315.649,72.752,315.749,72.049z"/>
		<path fill="#3C3C3B" d="M324.014,72.417l1.453,0.18c-0.23,0.848-0.654,1.508-1.273,1.977c-0.621,0.469-1.412,0.703-2.375,0.703
			c-1.215,0-2.176-0.375-2.887-1.121c-0.711-0.748-1.066-1.797-1.066-3.145c0-1.396,0.359-2.48,1.078-3.25
			c0.719-0.771,1.65-1.156,2.797-1.156c1.109,0,2.016,0.377,2.719,1.133c0.703,0.754,1.055,1.816,1.055,3.188
			c0,0.082-0.004,0.207-0.008,0.375h-6.188c0.051,0.91,0.309,1.609,0.773,2.094c0.463,0.484,1.041,0.727,1.734,0.727
			c0.516,0,0.955-0.137,1.32-0.406C323.51,73.442,323.799,73.01,324.014,72.417z M319.397,70.143h4.633
			c-0.062-0.699-0.24-1.223-0.531-1.57c-0.449-0.543-1.029-0.812-1.742-0.812c-0.646,0-1.189,0.215-1.629,0.648
			C319.686,68.84,319.444,69.418,319.397,70.143z"/>
		<path fill="#3C3C3B" d="M327.217,75.088v-8.297h1.266v1.258c0.322-0.59,0.621-0.977,0.895-1.164s0.574-0.281,0.902-0.281
			c0.473,0,0.955,0.15,1.445,0.453l-0.484,1.305c-0.344-0.203-0.688-0.305-1.031-0.305c-0.309,0-0.584,0.092-0.828,0.277
			c-0.246,0.184-0.42,0.441-0.523,0.77c-0.156,0.5-0.234,1.047-0.234,1.641v4.344H327.217z"/>
		<path fill="#3C3C3B" d="M337.975,72.049l1.383,0.18c-0.152,0.953-0.539,1.699-1.16,2.238c-0.623,0.539-1.387,0.809-2.293,0.809
			c-1.137,0-2.049-0.371-2.738-1.113c-0.691-0.742-1.035-1.807-1.035-3.191c0-0.896,0.148-1.68,0.445-2.352s0.748-1.176,1.355-1.512
			c0.605-0.336,1.266-0.504,1.98-0.504c0.9,0,1.637,0.227,2.211,0.684c0.572,0.455,0.939,1.102,1.102,1.941l-1.367,0.211
			c-0.131-0.559-0.361-0.977-0.691-1.258c-0.332-0.281-0.73-0.422-1.199-0.422c-0.709,0-1.285,0.254-1.727,0.762
			c-0.443,0.508-0.664,1.311-0.664,2.41c0,1.113,0.213,1.924,0.641,2.43c0.426,0.504,0.984,0.758,1.672,0.758
			c0.551,0,1.012-0.17,1.383-0.508C337.641,73.272,337.875,72.752,337.975,72.049z"/>
		<path fill="#3C3C3B" d="M345.975,74.065c-0.521,0.441-1.023,0.754-1.504,0.938c-0.482,0.182-1,0.273-1.551,0.273
			c-0.912,0-1.613-0.223-2.102-0.668c-0.49-0.445-0.734-1.016-0.734-1.707c0-0.406,0.092-0.777,0.277-1.113
			c0.184-0.336,0.426-0.605,0.727-0.809c0.299-0.203,0.637-0.357,1.012-0.461c0.275-0.074,0.691-0.145,1.25-0.211
			c1.135-0.137,1.971-0.297,2.508-0.484c0.004-0.193,0.008-0.316,0.008-0.367c0-0.574-0.133-0.977-0.398-1.211
			c-0.359-0.318-0.895-0.477-1.602-0.477c-0.662,0-1.15,0.115-1.465,0.348c-0.316,0.23-0.549,0.641-0.699,1.23l-1.375-0.188
			c0.125-0.59,0.33-1.064,0.617-1.426c0.285-0.363,0.699-0.641,1.242-0.836c0.541-0.195,1.168-0.293,1.883-0.293
			c0.707,0,1.283,0.082,1.727,0.25c0.441,0.166,0.768,0.375,0.977,0.629c0.207,0.252,0.354,0.57,0.438,0.957
			c0.047,0.238,0.07,0.672,0.07,1.297v1.875c0,1.307,0.029,2.133,0.09,2.48c0.059,0.346,0.178,0.678,0.355,0.996h-1.469
			C346.11,74.795,346.016,74.456,345.975,74.065z M345.858,70.924c-0.512,0.207-1.277,0.385-2.297,0.531
			c-0.578,0.082-0.988,0.176-1.227,0.281c-0.24,0.104-0.426,0.256-0.555,0.457c-0.131,0.199-0.195,0.422-0.195,0.668
			c0,0.375,0.141,0.688,0.426,0.938c0.283,0.25,0.699,0.375,1.246,0.375c0.541,0,1.023-0.119,1.445-0.355
			c0.422-0.238,0.73-0.562,0.93-0.973c0.15-0.318,0.227-0.787,0.227-1.406V70.924z"/>
		<path fill="#3C3C3B" d="M349.459,75.088v-8.297h1.266v1.18c0.609-0.912,1.488-1.367,2.641-1.367c0.5,0,0.959,0.09,1.379,0.27
			c0.418,0.18,0.732,0.414,0.941,0.707c0.207,0.291,0.354,0.637,0.438,1.039c0.051,0.26,0.078,0.715,0.078,1.367v5.102h-1.406
			v-5.047c0-0.574-0.055-1.002-0.164-1.285c-0.109-0.285-0.305-0.512-0.582-0.68c-0.279-0.17-0.605-0.254-0.98-0.254
			c-0.6,0-1.117,0.189-1.551,0.57c-0.436,0.379-0.652,1.102-0.652,2.164v4.531H349.459z"/>
		<path fill="#3C3C3B" d="M363.772,74.065c-0.521,0.441-1.023,0.754-1.504,0.938c-0.482,0.182-1,0.273-1.551,0.273
			c-0.912,0-1.613-0.223-2.102-0.668c-0.49-0.445-0.734-1.016-0.734-1.707c0-0.406,0.092-0.777,0.277-1.113
			c0.184-0.336,0.426-0.605,0.727-0.809c0.299-0.203,0.637-0.357,1.012-0.461c0.275-0.074,0.691-0.145,1.25-0.211
			c1.135-0.137,1.971-0.297,2.508-0.484c0.004-0.193,0.008-0.316,0.008-0.367c0-0.574-0.133-0.977-0.398-1.211
			c-0.359-0.318-0.895-0.477-1.602-0.477c-0.662,0-1.15,0.115-1.465,0.348c-0.316,0.23-0.549,0.641-0.699,1.23l-1.375-0.188
			c0.125-0.59,0.33-1.064,0.617-1.426c0.285-0.363,0.699-0.641,1.242-0.836c0.541-0.195,1.168-0.293,1.883-0.293
			c0.707,0,1.283,0.082,1.727,0.25c0.441,0.166,0.768,0.375,0.977,0.629c0.207,0.252,0.354,0.57,0.438,0.957
			c0.047,0.238,0.07,0.672,0.07,1.297v1.875c0,1.307,0.029,2.133,0.09,2.48c0.059,0.346,0.178,0.678,0.355,0.996h-1.469
			C363.907,74.795,363.813,74.456,363.772,74.065z M363.655,70.924c-0.512,0.207-1.277,0.385-2.297,0.531
			c-0.578,0.082-0.988,0.176-1.227,0.281c-0.24,0.104-0.426,0.256-0.555,0.457c-0.131,0.199-0.195,0.422-0.195,0.668
			c0,0.375,0.141,0.688,0.426,0.938c0.283,0.25,0.699,0.375,1.246,0.375c0.541,0,1.023-0.119,1.445-0.355
			c0.422-0.238,0.73-0.562,0.93-0.973c0.15-0.318,0.227-0.787,0.227-1.406V70.924z"/>
		<path fill="#3C3C3B" d="M366.694,72.612l1.391-0.219c0.078,0.557,0.295,0.984,0.652,1.281c0.355,0.297,0.855,0.445,1.496,0.445
			c0.645,0,1.125-0.133,1.438-0.395c0.312-0.264,0.469-0.572,0.469-0.926c0-0.318-0.139-0.568-0.414-0.75
			c-0.193-0.125-0.672-0.285-1.438-0.477c-1.031-0.262-1.746-0.486-2.145-0.676c-0.398-0.191-0.701-0.453-0.906-0.789
			c-0.207-0.336-0.309-0.707-0.309-1.113c0-0.371,0.084-0.713,0.254-1.027c0.168-0.316,0.398-0.578,0.691-0.785
			c0.219-0.162,0.516-0.299,0.895-0.41c0.377-0.113,0.781-0.168,1.215-0.168c0.65,0,1.223,0.094,1.715,0.281s0.855,0.441,1.09,0.762
			s0.395,0.748,0.484,1.285l-1.375,0.188c-0.062-0.428-0.244-0.762-0.543-1c-0.301-0.24-0.723-0.359-1.27-0.359
			c-0.646,0-1.107,0.105-1.383,0.32c-0.277,0.213-0.414,0.463-0.414,0.75c0,0.182,0.057,0.346,0.172,0.492
			c0.113,0.15,0.293,0.275,0.539,0.375c0.141,0.051,0.555,0.172,1.242,0.359c0.994,0.266,1.688,0.482,2.082,0.652
			c0.393,0.168,0.701,0.414,0.926,0.738c0.223,0.322,0.336,0.723,0.336,1.203c0,0.469-0.137,0.91-0.41,1.324
			s-0.668,0.734-1.184,0.961s-1.1,0.34-1.75,0.34c-1.078,0-1.9-0.225-2.465-0.672C367.209,74.155,366.85,73.491,366.694,72.612z"/>
		<path fill="#3C3C3B" d="M375.655,75.088v-1.602h1.602v1.602H375.655z"/>
	</g>
</g>
<g>
	<g>
		<polyline fill="none" stroke="#941B80" stroke-miterlimit="10" points="455.108,98.03 455.108,98.53 454.608,98.53 		"/>
		
			<line fill="none" stroke="#941B80" stroke-miterlimit="10" stroke-dasharray="1.0005,1.0005" x1="453.608" y1="98.53" x2="1.892" y2="98.53"/>
		<polyline fill="none" stroke="#941B80" stroke-miterlimit="10" points="1.392,98.53 0.892,98.53 0.892,98.03 		"/>
		<line fill="none" stroke="#941B80" stroke-miterlimit="10" stroke-dasharray="1,1" x1="0.892" y1="97.03" x2="0.892" y2="1.525"/>
		<polyline fill="none" stroke="#941B80" stroke-miterlimit="10" points="0.892,1.025 0.892,0.525 1.392,0.525 		"/>
		
			<line fill="none" stroke="#941B80" stroke-miterlimit="10" stroke-dasharray="1.0005,1.0005" x1="2.393" y1="0.525" x2="454.108" y2="0.525"/>
		<polyline fill="none" stroke="#941B80" stroke-miterlimit="10" points="454.608,0.525 455.108,0.525 455.108,1.025 		"/>
		
			<line fill="none" stroke="#941B80" stroke-miterlimit="10" stroke-dasharray="1,1" x1="455.108" y1="2.025" x2="455.108" y2="97.53"/>
	</g>
</g>
</svg>
