<?xml version="1.0" encoding="utf-8"?>
<!-- Generator: Adobe Illustrator 16.0.0, SVG Export Plug-In . SVG Version: 6.00 Build 0)  -->
<!DOCTYPE svg PUBLIC "-//W3C//DTD SVG 1.1//EN" "http://www.w3.org/Graphics/SVG/1.1/DTD/svg11.dtd">
<svg version="1.1" id="Capa_1" xmlns="http://www.w3.org/2000/svg" xmlns:xlink="http://www.w3.org/1999/xlink" x="0px" y="0px"
	 width="455.216px" height="99.005px" viewBox="0 0 455.216 99.005" enable-background="new 0 0 455.216 99.005"
	 xml:space="preserve">
<g>
	<g>
		<g>
			<path fill="#331842" d="M167.278,26.135c-0.182,3.917-0.272,7.274-0.272,10.072c0,1.112,0.015,2.139,0.045,3.079l6.749-0.248
				l0.106,3.677l-10.804,0.181c0.01-0.993,0.015-1.981,0.015-2.967c0-4.519-0.131-9.016-0.394-13.49L167.278,26.135z"/>
			<path fill="#331842" d="M183.195,43.099l-0.151-1.839c-0.423,0.978-1.563,1.47-3.419,1.478c-0.02,0.008-0.035,0.011-0.045,0.011
				c-1.836,0-3.051-0.616-3.646-1.85c-0.403-0.819-0.605-2.515-0.605-5.087c0-1.323,0.055-2.883,0.166-4.681h3.677
				c-0.202,2.526-0.303,4.471-0.303,5.831c0,0.685,0.025,1.219,0.076,1.602c0.151,1.174,0.661,1.76,1.528,1.76
				c0.867,0,1.412-0.305,1.634-0.913l-0.151-7.828l3.556-0.022c0,3.233,0.156,7.001,0.469,11.302L183.195,43.099z"/>
			<path fill="#331842" d="M193.424,38.451l3.601,0.169c0,2.715-1.68,4.091-5.039,4.128c-0.041,0.008-0.076,0.012-0.106,0.012
				c-3.198,0-4.796-1.809-4.796-5.425v-0.339c0.101-3.88,1.805-5.839,5.114-5.876h0.121c3.046,0,4.569,1.301,4.569,3.902
				c0,0.15-0.005,0.301-0.015,0.451l-3.253,0.181v-0.271c0-1.368-0.52-2.053-1.559-2.053c-1.059,0-1.589,1.109-1.589,3.328v0.372
				c0.061,2.398,0.595,3.598,1.604,3.598h0.091c0.877-0.053,1.316-0.553,1.316-1.5C193.485,38.925,193.464,38.699,193.424,38.451z"
				/>
			<path fill="#331842" d="M202.306,35.011l0.151,8.178l-3.707,0.022c0-3.459-0.156-7.343-0.469-11.651l2.784-0.226l0.151,1.839
				c0.424-0.902,1.412-1.418,2.966-1.546c0.232-0.015,0.454-0.022,0.666-0.022c1.221,0,2.149,0.298,2.784,0.892
				c0.736,0.707,1.109,1.831,1.12,3.372l-3.359,0.248c0.01-0.128,0.015-0.252,0.015-0.372c0-1.203-0.419-1.805-1.256-1.805h-0.061
				C203.123,33.978,202.528,34.334,202.306,35.011z"/>
			<path fill="#331842" d="M215.091,31.515c3.43,0,5.145,1.774,5.145,5.323c0,0.144-0.005,0.286-0.015,0.429
				c-0.141,3.843-1.967,5.783-5.477,5.82c-0.041,0.008-0.081,0.012-0.121,0.012c-3.339,0-5.008-1.816-5.008-5.448v-0.315
				C209.715,33.454,211.541,31.515,215.091,31.515z M214.592,34.086c-0.636,0.166-1.069,0.778-1.301,1.839
				c-0.142,0.632-0.212,1.267-0.212,1.906c0,0.429,0.03,0.861,0.091,1.297c0.161,1.083,0.681,1.643,1.559,1.681h0.106
				c0.817,0,1.376-0.402,1.679-1.207c0.252-0.669,0.378-1.462,0.378-2.38c0-0.226-0.005-0.455-0.015-0.688
				c-0.081-1.211-0.323-1.967-0.726-2.268c-0.252-0.181-0.555-0.271-0.908-0.271C215.041,33.996,214.824,34.026,214.592,34.086z"/>
			<path fill="#331842" d="M232.901,38.451l3.601,0.169c0,2.715-1.68,4.091-5.039,4.128c-0.041,0.008-0.076,0.012-0.106,0.012
				c-3.198,0-4.796-1.809-4.796-5.425v-0.339c0.101-3.88,1.805-5.839,5.114-5.876h0.121c3.046,0,4.569,1.301,4.569,3.902
				c0,0.15-0.005,0.301-0.015,0.451l-3.253,0.181v-0.271c0-1.368-0.52-2.053-1.559-2.053c-1.059,0-1.589,1.109-1.589,3.328v0.372
				c0.061,2.398,0.595,3.598,1.604,3.598h0.091c0.877-0.053,1.316-0.553,1.316-1.5C232.961,38.925,232.941,38.699,232.901,38.451z"
				/>
			<path fill="#331842" d="M242.675,31.515c3.5,0,5.25,1.733,5.25,5.199c0,0.422-0.025,0.873-0.076,1.354h-6.764
				c0,1.933,0.5,2.899,1.498,2.899h0.106c0.877-0.053,1.316-0.553,1.316-1.501c0-0.202-0.021-0.428-0.061-0.677l3.601-0.056
				c0,2.864-1.68,4.316-5.039,4.354c-0.041,0.008-0.076,0.012-0.106,0.012c-3.198,0-4.796-1.809-4.796-5.426v-0.338
				C237.707,33.454,239.396,31.515,242.675,31.515z M240.723,35.992h3.42v-0.271c0-1.368-0.52-2.053-1.559-2.053
				C241.465,33.669,240.844,34.443,240.723,35.992z"/>
			<path fill="#331842" d="M248.879,39.094l3.465-0.124v0.146c0,1.158,0.479,1.745,1.438,1.76h0.061
				c0.928,0,1.392-0.334,1.392-1.004v-0.079c-0.041-0.736-0.956-1.33-2.747-1.781s-2.867-1.211-3.23-2.279
				c-0.131-0.375-0.196-0.736-0.196-1.082c0-0.632,0.217-1.219,0.65-1.76c0.666-0.827,1.674-1.301,3.026-1.421
				c0.363-0.03,0.716-0.046,1.059-0.046c0.897,0,1.689,0.117,2.375,0.35c0.938,0.324,1.589,0.786,1.952,1.388
				c0.242,0.414,0.363,0.872,0.363,1.376c0,0.241-0.025,0.489-0.076,0.744l-3.238,0.057c0.03-0.188,0.045-0.36,0.045-0.519
				c0-0.752-0.323-1.154-0.969-1.207c-0.07-0.007-0.141-0.011-0.211-0.011c-0.666,0-1.115,0.252-1.347,0.755
				c-0.081,0.174-0.121,0.331-0.121,0.474c0,0.354,0.222,0.658,0.666,0.914c0.625,0.361,1.551,0.728,2.777,1.1s2.05,1.006,2.474,1.9
				c0.151,0.339,0.227,0.677,0.227,1.016c0,0.571-0.222,1.146-0.666,1.726c-0.706,0.925-1.8,1.463-3.283,1.613
				c-0.323,0.037-0.641,0.056-0.953,0.056c-1.11,0-2.139-0.214-3.087-0.643C249.514,41.963,248.899,40.823,248.879,39.094z"/>
			<path fill="#331842" d="M265.659,31.188c3.319,0.136,4.978,1.38,4.978,3.733v8.008l-3.525,0.045l-0.121-1.071
				c-0.727,0.617-1.69,0.925-2.89,0.925c-0.514,0-1.069-0.06-1.665-0.18c-1.785-0.331-2.678-1.361-2.678-3.091
				c0-0.211,0.015-0.437,0.045-0.677c0.202-1.782,1.901-2.673,5.099-2.673c0.615,0,1.291,0.033,2.027,0.102V35
				c0-1.061-0.449-1.591-1.347-1.591h-0.061c-0.071-0.007-0.136-0.011-0.197-0.011c-0.979,0-1.468,0.594-1.468,1.782v0.169
				l-3.601-0.226c0-2.624,1.695-3.937,5.084-3.937H265.659z M266.93,40.098v-1.985c-0.434-0.067-0.827-0.101-1.18-0.101
				c-0.918,0-1.543,0.229-1.876,0.688c-0.202,0.278-0.302,0.538-0.302,0.778c0,0.301,0.161,0.567,0.484,0.801
				c0.252,0.181,0.58,0.271,0.983,0.271C265.553,40.549,266.184,40.398,266.93,40.098z"/>
			<path fill="#331842" d="M274.632,31.222l0.151,1.838c0.424-0.978,1.538-1.474,3.344-1.488h0.061c1.775,0,2.985,0.519,3.631,1.556
				c0.444,0.707,0.666,2.361,0.666,4.963c0,1.278-0.056,2.79-0.167,4.534h-3.662c0.131-2.323,0.197-4.124,0.197-5.402
				c0-0.639-0.015-1.15-0.045-1.534c-0.101-1.128-0.585-1.691-1.453-1.691s-1.412,0.301-1.634,0.902l0.151,8.177l-3.556,0.023
				c0-3.459-0.156-7.343-0.469-11.651L274.632,31.222z"/>
			<path fill="#331842" d="M286.268,27.916l3.435-0.169v3.733l2.89-0.057l0.045,2.132l-2.936,0.102v5.132
				c0,1.196,0.681,1.794,2.042,1.794c0.282,0,0.59-0.026,0.923-0.079l-0.136,2.481c-0.484,0.045-0.943,0.067-1.377,0.067
				c-3.188,0-4.812-1.226-4.872-3.677V33.86l-2.482,0.113l-0.06-2.516l2.542,0.022L286.268,27.916z"/>
			<path fill="#331842" d="M298.812,31.515c3.5,0,5.25,1.733,5.25,5.199c0,0.422-0.025,0.873-0.076,1.354h-6.764
				c0,1.933,0.5,2.899,1.498,2.899h0.106c0.877-0.053,1.316-0.553,1.316-1.501c0-0.202-0.021-0.428-0.061-0.677l3.601-0.056
				c0,2.864-1.68,4.316-5.039,4.354c-0.041,0.008-0.076,0.012-0.106,0.012c-3.198,0-4.796-1.809-4.796-5.426v-0.338
				C293.843,33.454,295.533,31.515,298.812,31.515z M296.859,35.992h3.42v-0.271c0-1.368-0.52-2.053-1.559-2.053
				C297.601,33.669,296.98,34.443,296.859,35.992z"/>
			<path fill="#3C3C3B" d="M161.149,62.862V51.409h4.32c0.76,0,1.341,0.036,1.742,0.109c0.562,0.094,1.034,0.272,1.414,0.535
				c0.38,0.263,0.686,0.632,0.918,1.105c0.231,0.474,0.348,0.995,0.348,1.562c0,0.974-0.31,1.798-0.93,2.473
				c-0.62,0.675-1.74,1.012-3.359,1.012h-2.938v4.656H161.149z M162.665,56.854h2.961c0.979,0,1.674-0.183,2.086-0.547
				c0.411-0.364,0.617-0.878,0.617-1.539c0-0.479-0.121-0.89-0.363-1.23s-0.562-0.566-0.957-0.676
				c-0.255-0.067-0.727-0.102-1.414-0.102h-2.93V56.854z"/>
			<path fill="#3C3C3B" d="M177.321,60.19l1.453,0.18c-0.229,0.849-0.654,1.508-1.273,1.977c-0.62,0.469-1.412,0.703-2.375,0.703
				c-1.214,0-2.176-0.374-2.887-1.121s-1.066-1.796-1.066-3.145c0-1.396,0.359-2.479,1.078-3.25s1.651-1.156,2.797-1.156
				c1.109,0,2.016,0.378,2.719,1.133s1.055,1.817,1.055,3.188c0,0.083-0.003,0.208-0.008,0.375h-6.188
				c0.052,0.911,0.31,1.609,0.773,2.094c0.463,0.484,1.042,0.727,1.734,0.727c0.516,0,0.956-0.136,1.32-0.406
				C176.818,61.217,177.107,60.784,177.321,60.19z M172.704,57.917h4.633c-0.062-0.698-0.24-1.222-0.531-1.57
				c-0.448-0.542-1.029-0.812-1.742-0.812c-0.646,0-1.189,0.216-1.629,0.648C172.994,56.615,172.751,57.193,172.704,57.917z
				 M174.22,53.534l1.039-2.188h1.844l-1.719,2.188H174.22z"/>
			<path fill="#3C3C3B" d="M180.524,62.862v-8.297h1.266v1.258c0.323-0.589,0.621-0.977,0.895-1.164s0.574-0.281,0.902-0.281
				c0.474,0,0.956,0.151,1.445,0.453l-0.484,1.305c-0.344-0.203-0.688-0.305-1.031-0.305c-0.308,0-0.583,0.093-0.828,0.277
				c-0.245,0.185-0.419,0.441-0.523,0.77c-0.156,0.5-0.234,1.047-0.234,1.641v4.344H180.524z"/>
			<path fill="#3C3C3B" d="M191.251,62.862v-1.047c-0.526,0.823-1.3,1.234-2.32,1.234c-0.662,0-1.27-0.183-1.824-0.547
				s-0.984-0.874-1.289-1.527s-0.457-1.405-0.457-2.254c0-0.828,0.138-1.579,0.414-2.254c0.276-0.675,0.69-1.191,1.242-1.551
				c0.552-0.359,1.169-0.539,1.852-0.539c0.5,0,0.945,0.105,1.336,0.316s0.708,0.485,0.953,0.824v-4.109h1.398v11.453H191.251z
				 M186.806,58.722c0,1.062,0.224,1.856,0.672,2.383c0.448,0.526,0.977,0.789,1.586,0.789c0.614,0,1.137-0.251,1.566-0.754
				s0.645-1.27,0.645-2.301c0-1.136-0.219-1.969-0.656-2.5s-0.977-0.797-1.617-0.797c-0.625,0-1.147,0.255-1.566,0.766
				C187.015,56.818,186.806,57.623,186.806,58.722z"/>
			<path fill="#3C3C3B" d="M194.774,53.026v-1.617h1.406v1.617H194.774z M194.774,62.862v-8.297h1.406v8.297H194.774z"/>
			<path fill="#3C3C3B" d="M203.704,62.862v-1.047c-0.526,0.823-1.3,1.234-2.32,1.234c-0.662,0-1.27-0.183-1.824-0.547
				s-0.984-0.874-1.289-1.527s-0.457-1.405-0.457-2.254c0-0.828,0.138-1.579,0.414-2.254c0.276-0.675,0.69-1.191,1.242-1.551
				c0.552-0.359,1.169-0.539,1.852-0.539c0.5,0,0.945,0.105,1.336,0.316s0.708,0.485,0.953,0.824v-4.109h1.398v11.453H203.704z
				 M199.259,58.722c0,1.062,0.224,1.856,0.672,2.383c0.448,0.526,0.977,0.789,1.586,0.789c0.614,0,1.137-0.251,1.566-0.754
				s0.645-1.27,0.645-2.301c0-1.136-0.219-1.969-0.656-2.5s-0.977-0.797-1.617-0.797c-0.625,0-1.147,0.255-1.566,0.766
				C199.468,56.818,199.259,57.623,199.259,58.722z"/>
			<path fill="#3C3C3B" d="M212.634,61.839c-0.521,0.442-1.022,0.755-1.504,0.938c-0.482,0.183-0.999,0.273-1.551,0.273
				c-0.912,0-1.612-0.223-2.102-0.668c-0.49-0.445-0.734-1.015-0.734-1.707c0-0.406,0.092-0.777,0.277-1.113
				c0.185-0.336,0.427-0.605,0.727-0.809c0.299-0.203,0.637-0.356,1.012-0.461c0.276-0.073,0.692-0.144,1.25-0.211
				c1.135-0.136,1.971-0.297,2.508-0.484c0.005-0.192,0.008-0.315,0.008-0.367c0-0.573-0.133-0.977-0.398-1.211
				c-0.359-0.317-0.894-0.477-1.602-0.477c-0.662,0-1.15,0.116-1.465,0.348c-0.315,0.231-0.548,0.642-0.699,1.23l-1.375-0.188
				c0.125-0.589,0.331-1.063,0.617-1.426c0.286-0.362,0.7-0.641,1.242-0.836c0.542-0.195,1.169-0.293,1.883-0.293
				c0.708,0,1.284,0.083,1.727,0.25c0.442,0.167,0.768,0.376,0.977,0.629c0.208,0.253,0.354,0.571,0.438,0.957
				c0.047,0.239,0.07,0.672,0.07,1.297v1.875c0,1.308,0.03,2.134,0.09,2.48c0.06,0.347,0.178,0.679,0.355,0.996h-1.469
				C212.769,62.57,212.675,62.229,212.634,61.839z M212.517,58.698c-0.511,0.208-1.276,0.386-2.297,0.531
				c-0.578,0.083-0.987,0.177-1.227,0.281c-0.24,0.104-0.425,0.257-0.555,0.457c-0.13,0.2-0.195,0.423-0.195,0.668
				c0,0.375,0.142,0.688,0.426,0.938c0.284,0.25,0.699,0.375,1.246,0.375c0.542,0,1.023-0.118,1.445-0.355s0.731-0.562,0.93-0.973
				c0.151-0.317,0.227-0.786,0.227-1.406V58.698z"/>
			<path fill="#3C3C3B" d="M225.946,62.862v-1.047c-0.526,0.823-1.3,1.234-2.32,1.234c-0.662,0-1.27-0.183-1.824-0.547
				s-0.984-0.874-1.289-1.527s-0.457-1.405-0.457-2.254c0-0.828,0.138-1.579,0.414-2.254c0.276-0.675,0.69-1.191,1.242-1.551
				c0.552-0.359,1.169-0.539,1.852-0.539c0.5,0,0.945,0.105,1.336,0.316s0.708,0.485,0.953,0.824v-4.109h1.398v11.453H225.946z
				 M221.501,58.722c0,1.062,0.224,1.856,0.672,2.383c0.448,0.526,0.977,0.789,1.586,0.789c0.614,0,1.137-0.251,1.566-0.754
				s0.645-1.27,0.645-2.301c0-1.136-0.219-1.969-0.656-2.5s-0.977-0.797-1.617-0.797c-0.625,0-1.147,0.255-1.566,0.766
				C221.71,56.818,221.501,57.623,221.501,58.722z"/>
			<path fill="#3C3C3B" d="M235.142,60.19l1.453,0.18c-0.229,0.849-0.654,1.508-1.273,1.977c-0.62,0.469-1.412,0.703-2.375,0.703
				c-1.214,0-2.176-0.374-2.887-1.121s-1.066-1.796-1.066-3.145c0-1.396,0.359-2.479,1.078-3.25s1.651-1.156,2.797-1.156
				c1.109,0,2.016,0.378,2.719,1.133s1.055,1.817,1.055,3.188c0,0.083-0.003,0.208-0.008,0.375h-6.188
				c0.052,0.911,0.31,1.609,0.773,2.094c0.463,0.484,1.042,0.727,1.734,0.727c0.516,0,0.956-0.136,1.32-0.406
				C234.639,61.217,234.928,60.784,235.142,60.19z M230.524,57.917h4.633c-0.062-0.698-0.24-1.222-0.531-1.57
				c-0.448-0.542-1.029-0.812-1.742-0.812c-0.646,0-1.189,0.216-1.629,0.648C230.814,56.615,230.571,57.193,230.524,57.917z"/>
			<path fill="#3C3C3B" d="M242.813,53.026v-1.617h1.406v1.617H242.813z M242.813,62.862v-8.297h1.406v8.297H242.813z"/>
			<path fill="#3C3C3B" d="M246.36,62.862v-8.297h1.266v1.18c0.609-0.911,1.489-1.367,2.641-1.367c0.5,0,0.959,0.09,1.379,0.27
				c0.419,0.18,0.733,0.415,0.941,0.707c0.208,0.292,0.354,0.638,0.438,1.039c0.052,0.261,0.078,0.716,0.078,1.367v5.102h-1.406
				v-5.047c0-0.573-0.055-1.001-0.164-1.285s-0.304-0.511-0.582-0.68c-0.279-0.169-0.605-0.254-0.98-0.254
				c-0.599,0-1.116,0.19-1.551,0.57c-0.435,0.38-0.652,1.102-0.652,2.164v4.531H246.36z"/>
			<path fill="#3C3C3B" d="M255.001,63.55l1.367,0.203c0.057,0.422,0.216,0.729,0.477,0.922c0.349,0.261,0.825,0.391,1.43,0.391
				c0.651,0,1.153-0.13,1.508-0.391c0.354-0.261,0.594-0.625,0.719-1.094c0.073-0.286,0.106-0.888,0.102-1.805
				c-0.615,0.724-1.38,1.086-2.297,1.086c-1.141,0-2.023-0.411-2.648-1.234s-0.938-1.81-0.938-2.961c0-0.792,0.143-1.522,0.43-2.191
				c0.286-0.669,0.702-1.187,1.246-1.551c0.544-0.364,1.184-0.547,1.918-0.547c0.979,0,1.786,0.396,2.422,1.188v-1h1.297v7.172
				c0,1.292-0.132,2.207-0.395,2.746c-0.263,0.539-0.68,0.965-1.25,1.277s-1.272,0.469-2.105,0.469c-0.99,0-1.789-0.223-2.398-0.668
				S254.98,64.445,255.001,63.55z M256.165,58.565c0,1.089,0.216,1.883,0.648,2.383c0.432,0.5,0.974,0.75,1.625,0.75
				c0.646,0,1.188-0.249,1.625-0.746s0.656-1.277,0.656-2.34c0-1.016-0.226-1.781-0.676-2.297c-0.451-0.516-0.994-0.773-1.629-0.773
				c-0.625,0-1.156,0.254-1.594,0.762S256.165,57.565,256.165,58.565z"/>
			<path fill="#3C3C3B" d="M264.142,62.862v-8.297h1.266v1.258c0.323-0.589,0.621-0.977,0.895-1.164s0.574-0.281,0.902-0.281
				c0.474,0,0.956,0.151,1.445,0.453l-0.484,1.305c-0.344-0.203-0.688-0.305-1.031-0.305c-0.308,0-0.583,0.093-0.828,0.277
				c-0.245,0.185-0.419,0.441-0.523,0.77c-0.156,0.5-0.234,1.047-0.234,1.641v4.344H264.142z"/>
			<path fill="#3C3C3B" d="M275.165,60.19l1.453,0.18c-0.229,0.849-0.654,1.508-1.273,1.977c-0.62,0.469-1.412,0.703-2.375,0.703
				c-1.214,0-2.176-0.374-2.887-1.121s-1.066-1.796-1.066-3.145c0-1.396,0.359-2.479,1.078-3.25s1.651-1.156,2.797-1.156
				c1.109,0,2.016,0.378,2.719,1.133s1.055,1.817,1.055,3.188c0,0.083-0.003,0.208-0.008,0.375h-6.188
				c0.052,0.911,0.31,1.609,0.773,2.094c0.463,0.484,1.042,0.727,1.734,0.727c0.516,0,0.956-0.136,1.32-0.406
				C274.662,61.217,274.951,60.784,275.165,60.19z M270.548,57.917h4.633c-0.062-0.698-0.24-1.222-0.531-1.57
				c-0.448-0.542-1.029-0.812-1.742-0.812c-0.646,0-1.189,0.216-1.629,0.648C270.838,56.615,270.595,57.193,270.548,57.917z"/>
			<path fill="#3C3C3B" d="M277.821,60.386l1.391-0.219c0.078,0.558,0.295,0.984,0.652,1.281c0.356,0.297,0.855,0.445,1.496,0.445
				c0.646,0,1.125-0.132,1.438-0.395s0.469-0.571,0.469-0.926c0-0.317-0.138-0.567-0.414-0.75c-0.193-0.125-0.672-0.284-1.438-0.477
				c-1.031-0.261-1.746-0.485-2.145-0.676s-0.701-0.453-0.906-0.789c-0.206-0.336-0.309-0.707-0.309-1.113
				c0-0.37,0.084-0.712,0.254-1.027c0.169-0.315,0.399-0.577,0.691-0.785c0.219-0.161,0.517-0.298,0.895-0.41
				c0.377-0.112,0.782-0.168,1.215-0.168c0.651,0,1.223,0.094,1.715,0.281s0.855,0.441,1.09,0.762s0.396,0.749,0.484,1.285
				l-1.375,0.188c-0.062-0.427-0.244-0.761-0.543-1c-0.3-0.239-0.723-0.359-1.27-0.359c-0.646,0-1.107,0.106-1.383,0.32
				c-0.276,0.214-0.414,0.464-0.414,0.75c0,0.183,0.057,0.347,0.172,0.492c0.114,0.151,0.294,0.276,0.539,0.375
				c0.141,0.052,0.555,0.172,1.242,0.359c0.995,0.266,1.688,0.483,2.082,0.652c0.393,0.169,0.702,0.415,0.926,0.738
				c0.224,0.323,0.336,0.724,0.336,1.203c0,0.469-0.137,0.91-0.41,1.324s-0.668,0.734-1.184,0.961s-1.099,0.34-1.75,0.34
				c-1.078,0-1.9-0.224-2.465-0.672C278.338,61.93,277.978,61.266,277.821,60.386z"/>
			<path fill="#3C3C3B" d="M285.86,58.714c0-1.536,0.427-2.675,1.281-3.414c0.713-0.614,1.583-0.922,2.609-0.922
				c1.141,0,2.073,0.374,2.797,1.121c0.724,0.747,1.086,1.78,1.086,3.098c0,1.067-0.16,1.907-0.48,2.52s-0.787,1.087-1.398,1.426
				c-0.612,0.339-1.28,0.508-2.004,0.508c-1.162,0-2.101-0.372-2.816-1.117C286.218,61.188,285.86,60.115,285.86,58.714z
				 M287.306,58.714c0,1.062,0.231,1.858,0.695,2.387c0.463,0.528,1.047,0.793,1.75,0.793c0.698,0,1.278-0.266,1.742-0.797
				c0.463-0.531,0.695-1.341,0.695-2.43c0-1.026-0.233-1.804-0.699-2.332c-0.466-0.528-1.046-0.793-1.738-0.793
				c-0.703,0-1.287,0.263-1.75,0.789C287.537,56.857,287.306,57.651,287.306,58.714z"/>
			<path fill="#3C3C3B" d="M294.72,60.386l1.391-0.219c0.078,0.558,0.295,0.984,0.652,1.281c0.356,0.297,0.855,0.445,1.496,0.445
				c0.646,0,1.125-0.132,1.438-0.395s0.469-0.571,0.469-0.926c0-0.317-0.138-0.567-0.414-0.75c-0.193-0.125-0.672-0.284-1.438-0.477
				c-1.031-0.261-1.746-0.485-2.145-0.676s-0.701-0.453-0.906-0.789c-0.206-0.336-0.309-0.707-0.309-1.113
				c0-0.37,0.084-0.712,0.254-1.027c0.169-0.315,0.399-0.577,0.691-0.785c0.219-0.161,0.517-0.298,0.895-0.41
				c0.377-0.112,0.782-0.168,1.215-0.168c0.651,0,1.223,0.094,1.715,0.281s0.855,0.441,1.09,0.762s0.396,0.749,0.484,1.285
				l-1.375,0.188c-0.062-0.427-0.244-0.761-0.543-1c-0.3-0.239-0.723-0.359-1.27-0.359c-0.646,0-1.107,0.106-1.383,0.32
				c-0.276,0.214-0.414,0.464-0.414,0.75c0,0.183,0.057,0.347,0.172,0.492c0.114,0.151,0.294,0.276,0.539,0.375
				c0.141,0.052,0.555,0.172,1.242,0.359c0.995,0.266,1.688,0.483,2.082,0.652c0.393,0.169,0.702,0.415,0.926,0.738
				c0.224,0.323,0.336,0.724,0.336,1.203c0,0.469-0.137,0.91-0.41,1.324s-0.668,0.734-1.184,0.961s-1.099,0.34-1.75,0.34
				c-1.078,0-1.9-0.224-2.465-0.672C295.236,61.93,294.876,61.266,294.72,60.386z"/>
			<path fill="#3C3C3B" d="M303.681,62.862v-1.602h1.602v1.602H303.681z"/>
		</g>
	</g>
	<g>
		<g>
			<polyline fill="none" stroke="#951B81" stroke-miterlimit="10" points="454.716,98.005 454.716,98.505 454.216,98.505 			"/>
			
				<line fill="none" stroke="#951B81" stroke-miterlimit="10" stroke-dasharray="1.0005,1.0005" x1="453.216" y1="98.505" x2="1.5" y2="98.505"/>
			<polyline fill="none" stroke="#951B81" stroke-miterlimit="10" points="1,98.505 0.5,98.505 0.5,98.005 			"/>
			<line fill="none" stroke="#951B81" stroke-miterlimit="10" stroke-dasharray="1,1" x1="0.5" y1="97.005" x2="0.5" y2="1.5"/>
			<polyline fill="none" stroke="#951B81" stroke-miterlimit="10" points="0.5,1 0.5,0.5 1,0.5 			"/>
			
				<line fill="none" stroke="#951B81" stroke-miterlimit="10" stroke-dasharray="1.0005,1.0005" x1="2.001" y1="0.5" x2="453.716" y2="0.5"/>
			<polyline fill="none" stroke="#951B81" stroke-miterlimit="10" points="454.216,0.5 454.716,0.5 454.716,1 			"/>
			
				<line fill="none" stroke="#951B81" stroke-miterlimit="10" stroke-dasharray="1,1" x1="454.716" y1="2" x2="454.716" y2="97.505"/>
		</g>
	</g>
</g>
</svg>
