<?xml version="1.0" encoding="utf-8"?>
<!-- Generator: Adobe Illustrator 16.0.0, SVG Export Plug-In . SVG Version: 6.00 Build 0)  -->
<!DOCTYPE svg PUBLIC "-//W3C//DTD SVG 1.1//EN" "http://www.w3.org/Graphics/SVG/1.1/DTD/svg11.dtd">
<svg version="1.1" id="Capa_1" xmlns="http://www.w3.org/2000/svg" xmlns:xlink="http://www.w3.org/1999/xlink" x="0px" y="0px"
	 width="561.176px" height="183.359px" viewBox="0 0 561.176 183.359" enable-background="new 0 0 561.176 183.359"
	 xml:space="preserve">
<g>
	<rect x="261.01" y="0" opacity="0.5" fill="#951B81" enable-background="new    " width="300.167" height="183.359"/>
	<rect y="38.09" opacity="0.5" fill="#331842" enable-background="new    " width="254.12" height="31"/>
	<g>
		<g>
			<path fill="#FFFFFF" d="M76.234,59.85l-3.262,0.225c0-4.778-0.105-9.264-0.314-13.457l3.734-0.234
				C76.295,50.804,76.242,55.293,76.234,59.85z"/>
			<path fill="#FFFFFF" d="M79.954,50.318l0.131,1.592c0.367-0.846,1.332-1.274,2.895-1.289h0.052c1.537,0,2.585,0.449,3.144,1.349
				c0.384,0.611,0.576,2.045,0.576,4.297c0,1.106-0.048,2.416-0.144,3.926h-3.17c0.114-2.012,0.17-3.57,0.17-4.678
				c0-0.554-0.013-0.996-0.039-1.328c-0.087-0.978-0.507-1.465-1.258-1.465s-1.223,0.261-1.415,0.78l0.131,7.08l-3.079,0.021
				c0-2.994-0.135-6.357-0.406-10.088L79.954,50.318z"/>
			<path fill="#FFFFFF" d="M97.745,46.783c-0.052,2.201-0.079,4.509-0.079,6.924c0,2.201,0.022,4.492,0.065,6.875l-3.105,0.01
				l-0.105-1.493c-0.646,0.723-1.506,1.084-2.581,1.084c-2.681,0-4.022-1.529-4.022-4.591c0-0.063,0.004-0.13,0.013-0.194
				c0.052-3.066,1.38-4.601,3.982-4.601c0.105,0,0.214,0.005,0.328,0.011c0.891,0.039,1.611,0.399,2.162,1.084
				c0-1.445-0.048-3.147-0.144-5.107L97.745,46.783L97.745,46.783z M94.47,57.096l-0.065-3.38c-0.507-0.514-1.026-0.771-1.559-0.771
				c-0.218,0-0.437,0.043-0.655,0.127c-0.69,0.268-1.035,1.016-1.035,2.246c0,0.144,0.004,0.29,0.013,0.438
				c0.087,1.491,0.532,2.279,1.336,2.363c0.079,0.007,0.157,0.01,0.236,0.01C93.439,58.131,94.016,57.786,94.47,57.096z"/>
			<path fill="#FFFFFF" d="M103.038,50.572c3.031,0,4.546,1.501,4.546,4.502c0,0.365-0.022,0.756-0.065,1.172h-5.856
				c0,1.674,0.432,2.51,1.297,2.51h0.092c0.76-0.045,1.14-0.479,1.14-1.299c0-0.176-0.018-0.371-0.052-0.586l3.118-0.049
				c0,2.48-1.454,3.737-4.362,3.77c-0.035,0.008-0.065,0.011-0.092,0.011c-2.769,0-4.153-1.565-4.153-4.697v-0.293
				C98.736,52.252,100.199,50.572,103.038,50.572z M101.348,54.449h2.961v-0.234c0-1.185-0.45-1.776-1.349-1.776
				C101.99,52.438,101.452,53.108,101.348,54.449z"/>
			<path fill="#FFFFFF" d="M110.675,50.367l0.052,1.562c0.472-0.748,1.018-1.215,1.638-1.396c0.367-0.104,0.738-0.156,1.114-0.156
				c0.28,0,0.559,0.026,0.838,0.078c0.681,0.131,1.166,0.651,1.454,1.562c0.227-0.709,0.62-1.185,1.179-1.421
				c0.559-0.237,1.179-0.359,1.86-0.366h0.053c0.664,0,1.301,0.121,1.913,0.36c0.62,0.248,1.094,0.712,1.421,1.393
				c0.327,0.681,0.5,1.613,0.518,2.798v5.674l-2.83,0.049c0.113-2.142,0.17-3.965,0.17-5.469s-0.384-2.313-1.153-2.432
				c-0.113-0.014-0.223-0.021-0.328-0.021c-0.611,0-1.083,0.293-1.415,0.879c-0.053,0.679-0.079,1.47-0.079,2.373
				c0,1.23,0.048,2.666,0.144,4.308l-3.275,0.02c0.122-2.52,0.184-4.354,0.184-5.508v-0.117c-0.009-1.139-0.31-1.738-0.904-1.797
				h-0.17c-0.533,0-1.048,0.229-1.546,0.684l0.026,7.148l-3.092,0.088v-1.602c0-2.838-0.057-5.675-0.17-8.506L110.675,50.367z"/>
			<path fill="#FFFFFF" d="M125.911,50.318l0.131,1.592c0.367-0.846,1.332-1.274,2.896-1.289h0.052c1.537,0,2.585,0.449,3.144,1.349
				c0.384,0.611,0.577,2.045,0.577,4.297c0,1.106-0.048,2.416-0.144,3.926h-3.17c0.113-2.012,0.17-3.57,0.17-4.678
				c0-0.554-0.013-0.996-0.04-1.328c-0.087-0.978-0.506-1.465-1.258-1.465c-0.751,0-1.223,0.261-1.415,0.78l0.131,7.08l-3.079,0.021
				c0-2.994-0.135-6.357-0.406-10.088L125.911,50.318z"/>
			<path fill="#FFFFFF" d="M137.466,48.326c0,0.397-0.188,0.736-0.563,1.016c-0.375,0.28-0.83,0.421-1.362,0.421
				c-0.524,0-0.974-0.141-1.35-0.421c-0.375-0.278-0.563-0.617-0.563-1.016c0-0.391,0.188-0.726,0.563-1.006
				c0.376-0.279,0.826-0.42,1.35-0.42c0.533,0,0.987,0.141,1.362,0.42C137.278,47.601,137.466,47.936,137.466,48.326z
				 M133.955,60.65c-0.062-3.81-0.092-7.101-0.092-9.873l3.301-0.146c-0.105,2.656-0.157,5.298-0.157,7.921
				c0,0.702,0.004,1.402,0.013,2.1L133.955,60.65L133.955,60.65z"/>
			<path fill="#FFFFFF" d="M138.252,50.523c0.769,0.014,1.629,0.02,2.581,0.02c1.528,0,3.297-0.016,5.306-0.049l0.065,1.992
				l-4.664,5.859h4.664l-0.04,2.139c-2.192,0-4.86,0.033-8.004,0.098l-0.104-1.895l4.886-6.201c-1.563,0-3.105,0.043-4.625,0.127
				L138.252,50.523z"/>
			<path fill="#FFFFFF" d="M152.23,50.289c2.873,0.117,4.31,1.195,4.31,3.232v6.934l-3.052,0.039l-0.105-0.928
				c-0.629,0.534-1.463,0.801-2.502,0.801c-0.445,0-0.926-0.052-1.441-0.156c-1.545-0.286-2.318-1.178-2.318-2.676
				c0-0.182,0.013-0.377,0.039-0.586c0.175-1.543,1.646-2.313,4.415-2.313c0.533,0,1.118,0.028,1.755,0.088V53.59
				c0-0.918-0.389-1.377-1.166-1.377h-0.052c-0.062-0.006-0.118-0.01-0.17-0.01c-0.847,0-1.271,0.516-1.271,1.543v0.146
				l-3.118-0.195c0-2.271,1.467-3.408,4.402-3.408H152.23z M153.331,58.004v-1.719c-0.375-0.059-0.716-0.088-1.022-0.088
				c-0.795,0-1.336,0.199-1.624,0.596c-0.175,0.241-0.262,0.466-0.262,0.674c0,0.262,0.14,0.492,0.419,0.693
				c0.218,0.156,0.502,0.234,0.852,0.234C152.139,58.395,152.684,58.265,153.331,58.004z"/>
			<path fill="#FFFFFF" d="M162.946,56.578l3.118,0.146c0,2.351-1.454,3.542-4.362,3.573c-0.035,0.008-0.065,0.011-0.092,0.011
				c-2.769,0-4.153-1.565-4.153-4.697v-0.293c0.087-3.359,1.563-5.055,4.428-5.088h0.105c2.638,0,3.956,1.127,3.956,3.379
				c0,0.131-0.004,0.261-0.013,0.391l-2.817,0.156v-0.234c0-1.185-0.45-1.776-1.349-1.776c-0.917,0-1.376,0.961-1.376,2.881v0.322
				c0.053,2.076,0.516,3.114,1.389,3.114h0.079c0.76-0.045,1.14-0.479,1.14-1.299C162.999,56.988,162.981,56.793,162.946,56.578z"/>
			<path fill="#FFFFFF" d="M170.82,48.326c0,0.397-0.188,0.736-0.563,1.016c-0.376,0.28-0.83,0.421-1.363,0.421
				c-0.524,0-0.974-0.141-1.349-0.421c-0.376-0.278-0.563-0.617-0.563-1.016c0-0.391,0.188-0.726,0.563-1.006
				c0.375-0.279,0.825-0.42,1.349-0.42c0.533,0,0.987,0.141,1.363,0.42C170.632,47.601,170.82,47.936,170.82,48.326z M167.309,60.65
				c-0.062-3.81-0.092-7.101-0.092-9.873l3.301-0.146c-0.105,2.656-0.157,5.298-0.157,7.921c0,0.702,0.004,1.402,0.013,2.1
				L167.309,60.65L167.309,60.65z"/>
			<path fill="#FFFFFF" d="M176.152,50.572c2.969,0,4.454,1.537,4.454,4.609c0,0.124-0.004,0.248-0.013,0.371
				c-0.122,3.326-1.703,5.007-4.742,5.038c-0.035,0.008-0.07,0.011-0.105,0.011c-2.891,0-4.336-1.572-4.336-4.718v-0.272
				C171.497,52.252,173.077,50.572,176.152,50.572z M175.72,52.799c-0.551,0.145-0.926,0.675-1.127,1.593
				c-0.122,0.547-0.184,1.098-0.184,1.649c0,0.371,0.026,0.746,0.079,1.123c0.139,0.938,0.589,1.423,1.349,1.455h0.092
				c0.708,0,1.192-0.348,1.454-1.045c0.218-0.579,0.328-1.266,0.328-2.061c0-0.195-0.005-0.395-0.013-0.597
				c-0.07-1.048-0.28-1.702-0.629-1.963c-0.218-0.156-0.48-0.233-0.786-0.233C176.108,52.721,175.92,52.747,175.72,52.799z
				 M174.449,48.668c1.022-0.903,1.86-1.768,2.515-2.588l2.148,1.271c-0.926,0.678-1.956,1.508-3.092,2.489L174.449,48.668z"/>
			<path fill="#FFFFFF" d="M183.737,50.318l0.131,1.592c0.367-0.846,1.332-1.274,2.895-1.289h0.052c1.537,0,2.585,0.449,3.145,1.349
				c0.384,0.611,0.576,2.045,0.576,4.297c0,1.106-0.048,2.416-0.144,3.926h-3.17c0.113-2.012,0.17-3.57,0.17-4.678
				c0-0.554-0.013-0.996-0.04-1.328c-0.087-0.978-0.506-1.465-1.257-1.465s-1.223,0.261-1.415,0.78l0.131,7.08l-3.079,0.021
				c0-2.994-0.135-6.357-0.406-10.088L183.737,50.318z"/>
		</g>
	</g>
</g>
</svg>
