<?xml version="1.0" encoding="utf-8"?>
<!-- Generator: Adobe Illustrator 16.0.0, SVG Export Plug-In . SVG Version: 6.00 Build 0)  -->
<!DOCTYPE svg PUBLIC "-//W3C//DTD SVG 1.1//EN" "http://www.w3.org/Graphics/SVG/1.1/DTD/svg11.dtd">
<svg version="1.1" id="Capa_1" xmlns="http://www.w3.org/2000/svg" xmlns:xlink="http://www.w3.org/1999/xlink" x="0px" y="0px"
	 width="538.678px" height="120.48px" viewBox="0 0 538.678 120.48" enable-background="new 0 0 538.678 120.48"
	 xml:space="preserve">
<g>
	<g>
		<g>
			<path fill="#3C3C3B" d="M263.444,78.214l1.43-0.125c0.067,0.573,0.225,1.043,0.473,1.41c0.247,0.367,0.631,0.664,1.152,0.891
				c0.521,0.227,1.106,0.34,1.758,0.34c0.578,0,1.088-0.086,1.531-0.258c0.442-0.172,0.772-0.407,0.988-0.707
				c0.216-0.3,0.324-0.626,0.324-0.98c0-0.359-0.104-0.673-0.312-0.941c-0.208-0.269-0.552-0.493-1.031-0.676
				c-0.308-0.12-0.987-0.306-2.039-0.559c-1.052-0.253-1.789-0.491-2.211-0.715c-0.547-0.286-0.955-0.642-1.223-1.066
				c-0.269-0.425-0.402-0.899-0.402-1.426c0-0.578,0.164-1.118,0.492-1.621s0.807-0.884,1.438-1.145
				c0.63-0.261,1.331-0.391,2.102-0.391c0.849,0,1.598,0.137,2.246,0.41s1.147,0.676,1.496,1.207
				c0.349,0.531,0.536,1.133,0.562,1.805l-1.453,0.109c-0.078-0.724-0.343-1.271-0.793-1.641c-0.451-0.37-1.116-0.555-1.996-0.555
				c-0.917,0-1.585,0.168-2.004,0.504c-0.419,0.336-0.629,0.741-0.629,1.215c0,0.411,0.148,0.75,0.445,1.016
				c0.292,0.266,1.053,0.538,2.285,0.816c1.231,0.278,2.077,0.522,2.535,0.73c0.667,0.308,1.159,0.696,1.477,1.168
				c0.317,0.472,0.477,1.015,0.477,1.629c0,0.609-0.175,1.184-0.523,1.723c-0.349,0.539-0.851,0.958-1.504,1.258
				c-0.654,0.3-1.39,0.449-2.207,0.449c-1.037,0-1.905-0.151-2.605-0.453c-0.701-0.302-1.25-0.757-1.648-1.363
				S263.464,78.979,263.444,78.214z"/>
			<path fill="#3C3C3B" d="M280.131,79.222l1.453,0.18c-0.229,0.849-0.654,1.508-1.273,1.977c-0.62,0.469-1.412,0.703-2.375,0.703
				c-1.214,0-2.176-0.374-2.887-1.121s-1.066-1.796-1.066-3.145c0-1.396,0.359-2.479,1.078-3.25s1.651-1.156,2.797-1.156
				c1.109,0,2.016,0.378,2.719,1.133s1.055,1.817,1.055,3.188c0,0.083-0.003,0.208-0.008,0.375h-6.188
				c0.052,0.911,0.31,1.609,0.773,2.094c0.463,0.484,1.042,0.727,1.734,0.727c0.516,0,0.956-0.136,1.32-0.406
				C279.628,80.248,279.917,79.815,280.131,79.222z M275.514,76.948h4.633c-0.062-0.698-0.24-1.222-0.531-1.57
				c-0.448-0.542-1.029-0.812-1.742-0.812c-0.646,0-1.189,0.216-1.629,0.648C275.804,75.646,275.561,76.225,275.514,76.948z"/>
			<path fill="#3C3C3B" d="M283.35,81.894v-8.297h1.266v1.18c0.609-0.911,1.489-1.367,2.641-1.367c0.5,0,0.959,0.09,1.379,0.27
				c0.419,0.18,0.733,0.415,0.941,0.707c0.208,0.292,0.354,0.638,0.438,1.039c0.052,0.261,0.078,0.716,0.078,1.367v5.102h-1.406
				v-5.047c0-0.573-0.055-1.001-0.164-1.285s-0.304-0.511-0.582-0.68c-0.279-0.169-0.605-0.254-0.98-0.254
				c-0.599,0-1.116,0.19-1.551,0.57c-0.435,0.38-0.652,1.102-0.652,2.164v4.531H283.35z"/>
			<path fill="#3C3C3B" d="M295.319,80.636l0.203,1.242c-0.396,0.083-0.75,0.125-1.062,0.125c-0.511,0-0.906-0.081-1.188-0.242
				s-0.479-0.374-0.594-0.637c-0.115-0.263-0.172-0.816-0.172-1.66V74.69h-1.031v-1.094h1.031v-2.055l1.398-0.844v2.898h1.414v1.094
				h-1.414v4.852c0,0.401,0.024,0.659,0.074,0.773c0.049,0.114,0.13,0.206,0.242,0.273c0.112,0.067,0.272,0.102,0.48,0.102
				C294.858,80.69,295.063,80.672,295.319,80.636z"/>
			<path fill="#3C3C3B" d="M302.374,79.222l1.453,0.18c-0.229,0.849-0.654,1.508-1.273,1.977c-0.62,0.469-1.412,0.703-2.375,0.703
				c-1.214,0-2.176-0.374-2.887-1.121s-1.066-1.796-1.066-3.145c0-1.396,0.359-2.479,1.078-3.25s1.651-1.156,2.797-1.156
				c1.109,0,2.016,0.378,2.719,1.133s1.055,1.817,1.055,3.188c0,0.083-0.003,0.208-0.008,0.375h-6.188
				c0.052,0.911,0.31,1.609,0.773,2.094c0.463,0.484,1.042,0.727,1.734,0.727c0.516,0,0.956-0.136,1.32-0.406
				C301.871,80.248,302.16,79.815,302.374,79.222z M297.756,76.948h4.633c-0.062-0.698-0.24-1.222-0.531-1.57
				c-0.448-0.542-1.029-0.812-1.742-0.812c-0.646,0-1.189,0.216-1.629,0.648C298.046,75.646,297.803,76.225,297.756,76.948z"/>
			<path fill="#3C3C3B" d="M305.592,81.894v-8.297h1.266v1.18c0.609-0.911,1.489-1.367,2.641-1.367c0.5,0,0.959,0.09,1.379,0.27
				c0.419,0.18,0.733,0.415,0.941,0.707c0.208,0.292,0.354,0.638,0.438,1.039c0.052,0.261,0.078,0.716,0.078,1.367v5.102h-1.406
				v-5.047c0-0.573-0.055-1.001-0.164-1.285s-0.304-0.511-0.582-0.68c-0.279-0.169-0.605-0.254-0.98-0.254
				c-0.599,0-1.116,0.19-1.551,0.57c-0.435,0.38-0.652,1.102-0.652,2.164v4.531H305.592z"/>
			<path fill="#3C3C3B" d="M319.905,78.854l1.383,0.18c-0.151,0.953-0.538,1.699-1.16,2.238c-0.623,0.539-1.387,0.809-2.293,0.809
				c-1.136,0-2.048-0.371-2.738-1.113c-0.69-0.742-1.035-1.806-1.035-3.191c0-0.896,0.148-1.68,0.445-2.352s0.749-1.176,1.355-1.512
				c0.606-0.336,1.267-0.504,1.98-0.504c0.901,0,1.638,0.228,2.211,0.684c0.573,0.456,0.94,1.103,1.102,1.941l-1.367,0.211
				c-0.13-0.558-0.361-0.977-0.691-1.258c-0.331-0.281-0.73-0.422-1.199-0.422c-0.708,0-1.284,0.254-1.727,0.762
				c-0.443,0.508-0.664,1.312-0.664,2.41c0,1.114,0.213,1.925,0.641,2.43c0.427,0.505,0.984,0.758,1.672,0.758
				c0.552,0,1.013-0.169,1.383-0.508C319.571,80.078,319.806,79.558,319.905,78.854z"/>
			<path fill="#3C3C3B" d="M322.499,72.058V70.44h1.406v1.617H322.499z M322.499,81.894v-8.297h1.406v8.297H322.499z"/>
			<path fill="#3C3C3B" d="M331.459,80.87c-0.521,0.442-1.022,0.755-1.504,0.938c-0.482,0.183-0.999,0.273-1.551,0.273
				c-0.912,0-1.612-0.223-2.102-0.668c-0.49-0.445-0.734-1.015-0.734-1.707c0-0.406,0.092-0.777,0.277-1.113
				c0.185-0.336,0.427-0.605,0.727-0.809c0.299-0.203,0.637-0.356,1.012-0.461c0.276-0.073,0.692-0.144,1.25-0.211
				c1.135-0.136,1.971-0.297,2.508-0.484c0.005-0.192,0.008-0.315,0.008-0.367c0-0.573-0.133-0.977-0.398-1.211
				c-0.359-0.317-0.894-0.477-1.602-0.477c-0.662,0-1.15,0.116-1.465,0.348c-0.315,0.231-0.548,0.642-0.699,1.23l-1.375-0.188
				c0.125-0.589,0.331-1.063,0.617-1.426c0.286-0.362,0.7-0.641,1.242-0.836c0.542-0.195,1.169-0.293,1.883-0.293
				c0.708,0,1.284,0.083,1.727,0.25c0.442,0.167,0.768,0.376,0.977,0.629c0.208,0.253,0.354,0.571,0.438,0.957
				c0.047,0.239,0.07,0.672,0.07,1.297v1.875c0,1.308,0.03,2.134,0.09,2.48c0.06,0.347,0.178,0.679,0.355,0.996h-1.469
				C331.595,81.602,331.501,81.261,331.459,80.87z M331.342,77.729c-0.511,0.208-1.276,0.386-2.297,0.531
				c-0.578,0.083-0.987,0.177-1.227,0.281c-0.24,0.104-0.425,0.257-0.555,0.457c-0.13,0.2-0.195,0.423-0.195,0.668
				c0,0.375,0.142,0.688,0.426,0.938c0.284,0.25,0.699,0.375,1.246,0.375c0.542,0,1.023-0.118,1.445-0.355s0.731-0.562,0.93-0.973
				c0.151-0.317,0.227-0.786,0.227-1.406V77.729z"/>
			<path fill="#3C3C3B" d="M347.741,77.878l1.516,0.383c-0.318,1.245-0.89,2.194-1.715,2.848c-0.826,0.653-1.835,0.98-3.027,0.98
				c-1.234,0-2.238-0.251-3.012-0.754s-1.362-1.23-1.766-2.184c-0.404-0.953-0.605-1.977-0.605-3.07
				c0-1.192,0.228-2.233,0.684-3.121c0.456-0.888,1.104-1.562,1.945-2.023c0.841-0.461,1.767-0.691,2.777-0.691
				c1.146,0,2.109,0.292,2.891,0.875s1.325,1.403,1.633,2.461l-1.492,0.352c-0.266-0.833-0.651-1.44-1.156-1.82
				c-0.505-0.38-1.141-0.57-1.906-0.57c-0.88,0-1.616,0.211-2.207,0.633c-0.591,0.422-1.007,0.988-1.246,1.699
				c-0.24,0.711-0.359,1.444-0.359,2.199c0,0.974,0.142,1.824,0.426,2.551c0.284,0.727,0.725,1.27,1.324,1.629
				c0.599,0.359,1.247,0.539,1.945,0.539c0.849,0,1.567-0.245,2.156-0.734C347.134,79.568,347.532,78.842,347.741,77.878z"/>
			<path fill="#3C3C3B" d="M350.42,77.745c0-1.536,0.427-2.675,1.281-3.414c0.713-0.614,1.583-0.922,2.609-0.922
				c1.141,0,2.073,0.374,2.797,1.121c0.724,0.747,1.086,1.78,1.086,3.098c0,1.067-0.16,1.907-0.48,2.52s-0.787,1.087-1.398,1.426
				c-0.612,0.339-1.28,0.508-2.004,0.508c-1.162,0-2.101-0.372-2.816-1.117C350.778,80.219,350.42,79.146,350.42,77.745z
				 M351.866,77.745c0,1.062,0.231,1.858,0.695,2.387c0.463,0.528,1.047,0.793,1.75,0.793c0.698,0,1.278-0.266,1.742-0.797
				c0.463-0.531,0.695-1.341,0.695-2.43c0-1.026-0.233-1.804-0.699-2.332c-0.466-0.528-1.046-0.793-1.738-0.793
				c-0.703,0-1.287,0.263-1.75,0.789C352.097,75.889,351.866,76.683,351.866,77.745z"/>
			<path fill="#3C3C3B" d="M359.827,81.894v-8.297h1.266v1.258c0.323-0.589,0.621-0.977,0.895-1.164s0.574-0.281,0.902-0.281
				c0.474,0,0.956,0.151,1.445,0.453l-0.484,1.305c-0.344-0.203-0.688-0.305-1.031-0.305c-0.308,0-0.583,0.093-0.828,0.277
				c-0.245,0.185-0.419,0.441-0.523,0.77c-0.156,0.5-0.234,1.047-0.234,1.641v4.344H359.827z"/>
			<path fill="#3C3C3B" d="M368.241,80.636l0.203,1.242c-0.396,0.083-0.75,0.125-1.062,0.125c-0.511,0-0.906-0.081-1.188-0.242
				s-0.479-0.374-0.594-0.637c-0.115-0.263-0.172-0.816-0.172-1.66V74.69h-1.031v-1.094h1.031v-2.055l1.398-0.844v2.898h1.414v1.094
				h-1.414v4.852c0,0.401,0.024,0.659,0.074,0.773c0.049,0.114,0.13,0.206,0.242,0.273c0.112,0.067,0.272,0.102,0.48,0.102
				C367.78,80.69,367.985,80.672,368.241,80.636z"/>
			<path fill="#3C3C3B" d="M375.295,79.222l1.453,0.18c-0.229,0.849-0.654,1.508-1.273,1.977c-0.62,0.469-1.412,0.703-2.375,0.703
				c-1.214,0-2.176-0.374-2.887-1.121s-1.066-1.796-1.066-3.145c0-1.396,0.359-2.479,1.078-3.25s1.651-1.156,2.797-1.156
				c1.109,0,2.016,0.378,2.719,1.133s1.055,1.817,1.055,3.188c0,0.083-0.003,0.208-0.008,0.375H370.6
				c0.052,0.911,0.31,1.609,0.773,2.094c0.463,0.484,1.042,0.727,1.734,0.727c0.516,0,0.956-0.136,1.32-0.406
				C374.792,80.248,375.082,79.815,375.295,79.222z M370.678,76.948h4.633c-0.062-0.698-0.24-1.222-0.531-1.57
				c-0.448-0.542-1.029-0.812-1.742-0.812c-0.646,0-1.189,0.216-1.629,0.648C370.968,75.646,370.725,76.225,370.678,76.948z"/>
			<path fill="#3C3C3B" d="M383.397,81.894V70.44h1.516v11.453H383.397z"/>
			<path fill="#3C3C3B" d="M387.584,81.894V70.44h3.945c0.891,0,1.57,0.055,2.039,0.164c0.656,0.151,1.216,0.425,1.68,0.82
				c0.604,0.511,1.056,1.163,1.355,1.957c0.299,0.794,0.449,1.702,0.449,2.723c0,0.87-0.102,1.641-0.305,2.312
				s-0.464,1.228-0.781,1.668c-0.318,0.44-0.666,0.786-1.043,1.039c-0.378,0.253-0.833,0.444-1.367,0.574
				c-0.534,0.13-1.147,0.195-1.84,0.195H387.584z M389.1,80.542h2.445c0.755,0,1.348-0.07,1.777-0.211s0.772-0.339,1.027-0.594
				c0.359-0.359,0.639-0.843,0.84-1.449c0.2-0.606,0.301-1.343,0.301-2.207c0-1.198-0.197-2.118-0.59-2.762
				c-0.394-0.644-0.871-1.074-1.434-1.293c-0.406-0.156-1.06-0.234-1.961-0.234H389.1V80.542z"/>
			<path fill="#3C3C3B" d="M399.186,81.894V70.44h1.516v4.703h5.953V70.44h1.516v11.453h-1.516v-5.398h-5.953v5.398H399.186z"/>
			<path fill="#3C3C3B" d="M410.905,75.198v-1.602h1.602v1.602H410.905z M410.905,81.894v-1.602h1.602v1.602H410.905z"/>
			<path fill="#3C3C3B" d="M424.311,81.894h-1.406v-8.961c-0.339,0.323-0.783,0.646-1.332,0.969c-0.55,0.323-1.043,0.565-1.48,0.727
				v-1.359c0.786-0.37,1.474-0.817,2.062-1.344c0.588-0.526,1.005-1.036,1.25-1.531h0.906V81.894z"/>
			<path fill="#3C3C3B" d="M428.124,79.245l1.352-0.125c0.114,0.636,0.333,1.097,0.656,1.383c0.323,0.286,0.737,0.43,1.242,0.43
				c0.432,0,0.811-0.099,1.137-0.297c0.325-0.198,0.592-0.462,0.801-0.793c0.208-0.331,0.383-0.777,0.523-1.34
				s0.211-1.136,0.211-1.719c0-0.062-0.003-0.156-0.008-0.281c-0.281,0.448-0.666,0.812-1.152,1.09
				c-0.487,0.278-1.015,0.418-1.582,0.418c-0.948,0-1.75-0.344-2.406-1.031s-0.984-1.594-0.984-2.719
				c0-1.161,0.342-2.097,1.027-2.805c0.685-0.708,1.543-1.062,2.574-1.062c0.745,0,1.426,0.2,2.043,0.602s1.086,0.973,1.406,1.715
				s0.48,1.816,0.48,3.223c0,1.464-0.159,2.629-0.477,3.496c-0.318,0.867-0.791,1.527-1.418,1.98
				c-0.628,0.453-1.363,0.68-2.207,0.68c-0.896,0-1.628-0.249-2.195-0.746C428.579,80.846,428.238,80.146,428.124,79.245z
				 M433.881,74.19c0-0.808-0.215-1.448-0.645-1.922s-0.947-0.711-1.551-0.711c-0.625,0-1.169,0.255-1.633,0.766
				c-0.464,0.511-0.695,1.172-0.695,1.984c0,0.729,0.22,1.321,0.66,1.777c0.44,0.456,0.983,0.684,1.629,0.684
				c0.651,0,1.186-0.228,1.605-0.684C433.671,75.629,433.881,74.998,433.881,74.19z"/>
			<path fill="#3C3C3B" d="M449.999,77.878l1.516,0.383c-0.318,1.245-0.89,2.194-1.715,2.848c-0.826,0.653-1.835,0.98-3.027,0.98
				c-1.234,0-2.238-0.251-3.012-0.754s-1.362-1.23-1.766-2.184c-0.404-0.953-0.605-1.977-0.605-3.07
				c0-1.192,0.228-2.233,0.684-3.121c0.456-0.888,1.104-1.562,1.945-2.023c0.841-0.461,1.767-0.691,2.777-0.691
				c1.146,0,2.109,0.292,2.891,0.875s1.325,1.403,1.633,2.461l-1.492,0.352c-0.266-0.833-0.651-1.44-1.156-1.82
				c-0.505-0.38-1.141-0.57-1.906-0.57c-0.88,0-1.616,0.211-2.207,0.633c-0.591,0.422-1.007,0.988-1.246,1.699
				c-0.24,0.711-0.359,1.444-0.359,2.199c0,0.974,0.142,1.824,0.426,2.551c0.284,0.727,0.725,1.27,1.324,1.629
				c0.599,0.359,1.247,0.539,1.945,0.539c0.849,0,1.567-0.245,2.156-0.734C449.392,79.568,449.79,78.842,449.999,77.878z"/>
			<path fill="#3C3C3B" d="M452.678,77.745c0-1.536,0.427-2.675,1.281-3.414c0.713-0.614,1.583-0.922,2.609-0.922
				c1.141,0,2.073,0.374,2.797,1.121c0.724,0.747,1.086,1.78,1.086,3.098c0,1.067-0.16,1.907-0.48,2.52s-0.787,1.087-1.398,1.426
				c-0.612,0.339-1.28,0.508-2.004,0.508c-1.162,0-2.101-0.372-2.816-1.117C453.036,80.219,452.678,79.146,452.678,77.745z
				 M454.124,77.745c0,1.062,0.231,1.858,0.695,2.387c0.463,0.528,1.047,0.793,1.75,0.793c0.698,0,1.278-0.266,1.742-0.797
				c0.463-0.531,0.695-1.341,0.695-2.43c0-1.026-0.233-1.804-0.699-2.332c-0.466-0.528-1.046-0.793-1.738-0.793
				c-0.703,0-1.287,0.263-1.75,0.789C454.355,75.889,454.124,76.683,454.124,77.745z"/>
			<path fill="#3C3C3B" d="M462.1,81.894v-8.297h1.258v1.164c0.26-0.406,0.606-0.733,1.039-0.98
				c0.432-0.247,0.924-0.371,1.477-0.371c0.614,0,1.118,0.128,1.512,0.383c0.393,0.255,0.67,0.612,0.832,1.07
				c0.656-0.969,1.51-1.453,2.562-1.453c0.823,0,1.456,0.228,1.898,0.684c0.442,0.456,0.664,1.157,0.664,2.105v5.695h-1.398v-5.227
				c0-0.562-0.046-0.968-0.137-1.215c-0.091-0.247-0.257-0.446-0.496-0.598c-0.24-0.151-0.521-0.227-0.844-0.227
				c-0.583,0-1.068,0.194-1.453,0.582c-0.386,0.388-0.578,1.009-0.578,1.863v4.82h-1.406v-5.391c0-0.625-0.115-1.094-0.344-1.406
				c-0.229-0.312-0.604-0.469-1.125-0.469c-0.396,0-0.762,0.104-1.098,0.312s-0.58,0.513-0.73,0.914
				c-0.151,0.401-0.227,0.979-0.227,1.734v4.305H462.1z"/>
			<path fill="#3C3C3B" d="M481.108,79.222l1.453,0.18c-0.229,0.849-0.654,1.508-1.273,1.977c-0.62,0.469-1.412,0.703-2.375,0.703
				c-1.214,0-2.176-0.374-2.887-1.121s-1.066-1.796-1.066-3.145c0-1.396,0.359-2.479,1.078-3.25s1.651-1.156,2.797-1.156
				c1.109,0,2.016,0.378,2.719,1.133s1.055,1.817,1.055,3.188c0,0.083-0.003,0.208-0.008,0.375h-6.188
				c0.052,0.911,0.31,1.609,0.773,2.094c0.463,0.484,1.042,0.727,1.734,0.727c0.516,0,0.956-0.136,1.32-0.406
				C480.605,80.248,480.894,79.815,481.108,79.222z M476.491,76.948h4.633c-0.062-0.698-0.24-1.222-0.531-1.57
				c-0.448-0.542-1.029-0.812-1.742-0.812c-0.646,0-1.189,0.216-1.629,0.648C476.781,75.646,476.538,76.225,476.491,76.948z"/>
			<path fill="#3C3C3B" d="M484.311,81.894v-8.297h1.266v1.258c0.323-0.589,0.621-0.977,0.895-1.164s0.574-0.281,0.902-0.281
				c0.474,0,0.956,0.151,1.445,0.453l-0.484,1.305c-0.344-0.203-0.688-0.305-1.031-0.305c-0.308,0-0.583,0.093-0.828,0.277
				c-0.245,0.185-0.419,0.441-0.523,0.77c-0.156,0.5-0.234,1.047-0.234,1.641v4.344H484.311z"/>
			<path fill="#3C3C3B" d="M495.069,78.854l1.383,0.18c-0.151,0.953-0.538,1.699-1.16,2.238c-0.623,0.539-1.387,0.809-2.293,0.809
				c-1.136,0-2.048-0.371-2.738-1.113c-0.69-0.742-1.035-1.806-1.035-3.191c0-0.896,0.148-1.68,0.445-2.352s0.749-1.176,1.355-1.512
				c0.606-0.336,1.267-0.504,1.98-0.504c0.901,0,1.638,0.228,2.211,0.684c0.573,0.456,0.94,1.103,1.102,1.941l-1.367,0.211
				c-0.13-0.558-0.361-0.977-0.691-1.258c-0.331-0.281-0.73-0.422-1.199-0.422c-0.708,0-1.284,0.254-1.727,0.762
				c-0.443,0.508-0.664,1.312-0.664,2.41c0,1.114,0.213,1.925,0.641,2.43c0.427,0.505,0.984,0.758,1.672,0.758
				c0.552,0,1.013-0.169,1.383-0.508C494.735,80.078,494.97,79.558,495.069,78.854z"/>
			<path fill="#3C3C3B" d="M497.663,72.058V70.44h1.406v1.617H497.663z M497.663,81.894v-8.297h1.406v8.297H497.663z"/>
			<path fill="#3C3C3B" d="M506.624,80.87c-0.521,0.442-1.022,0.755-1.504,0.938c-0.482,0.183-0.999,0.273-1.551,0.273
				c-0.912,0-1.612-0.223-2.102-0.668c-0.49-0.445-0.734-1.015-0.734-1.707c0-0.406,0.092-0.777,0.277-1.113
				c0.185-0.336,0.427-0.605,0.727-0.809c0.299-0.203,0.637-0.356,1.012-0.461c0.276-0.073,0.692-0.144,1.25-0.211
				c1.135-0.136,1.971-0.297,2.508-0.484c0.005-0.192,0.008-0.315,0.008-0.367c0-0.573-0.133-0.977-0.398-1.211
				c-0.359-0.317-0.894-0.477-1.602-0.477c-0.662,0-1.15,0.116-1.465,0.348c-0.315,0.231-0.548,0.642-0.699,1.23l-1.375-0.188
				c0.125-0.589,0.331-1.063,0.617-1.426c0.286-0.362,0.7-0.641,1.242-0.836c0.542-0.195,1.169-0.293,1.883-0.293
				c0.708,0,1.284,0.083,1.727,0.25c0.442,0.167,0.768,0.376,0.977,0.629c0.208,0.253,0.354,0.571,0.438,0.957
				c0.047,0.239,0.07,0.672,0.07,1.297v1.875c0,1.308,0.03,2.134,0.09,2.48c0.06,0.347,0.178,0.679,0.355,0.996h-1.469
				C506.759,81.602,506.665,81.261,506.624,80.87z M506.506,77.729c-0.511,0.208-1.276,0.386-2.297,0.531
				c-0.578,0.083-0.987,0.177-1.227,0.281c-0.24,0.104-0.425,0.257-0.555,0.457c-0.13,0.2-0.195,0.423-0.195,0.668
				c0,0.375,0.142,0.688,0.426,0.938c0.284,0.25,0.699,0.375,1.246,0.375c0.542,0,1.023-0.118,1.445-0.355s0.731-0.562,0.93-0.973
				c0.151-0.317,0.227-0.786,0.227-1.406V77.729z"/>
			<path fill="#3C3C3B" d="M510.108,81.894v-8.297h1.266v1.18c0.609-0.911,1.489-1.367,2.641-1.367c0.5,0,0.959,0.09,1.379,0.27
				c0.419,0.18,0.733,0.415,0.941,0.707c0.208,0.292,0.354,0.638,0.438,1.039c0.052,0.261,0.078,0.716,0.078,1.367v5.102h-1.406
				v-5.047c0-0.573-0.055-1.001-0.164-1.285s-0.304-0.511-0.582-0.68c-0.279-0.169-0.605-0.254-0.98-0.254
				c-0.599,0-1.116,0.19-1.551,0.57c-0.435,0.38-0.652,1.102-0.652,2.164v4.531H510.108z"/>
			<path fill="#3C3C3B" d="M522.077,80.636l0.203,1.242c-0.396,0.083-0.75,0.125-1.062,0.125c-0.511,0-0.906-0.081-1.188-0.242
				s-0.479-0.374-0.594-0.637c-0.115-0.263-0.172-0.816-0.172-1.66V74.69h-1.031v-1.094h1.031v-2.055l1.398-0.844v2.898h1.414v1.094
				h-1.414v4.852c0,0.401,0.024,0.659,0.074,0.773c0.049,0.114,0.13,0.206,0.242,0.273c0.112,0.067,0.272,0.102,0.48,0.102
				C521.616,80.69,521.821,80.672,522.077,80.636z"/>
			<path fill="#3C3C3B" d="M529.131,79.222l1.453,0.18c-0.229,0.849-0.654,1.508-1.273,1.977c-0.62,0.469-1.412,0.703-2.375,0.703
				c-1.214,0-2.176-0.374-2.887-1.121s-1.066-1.796-1.066-3.145c0-1.396,0.359-2.479,1.078-3.25s1.651-1.156,2.797-1.156
				c1.109,0,2.016,0.378,2.719,1.133s1.055,1.817,1.055,3.188c0,0.083-0.003,0.208-0.008,0.375h-6.188
				c0.052,0.911,0.31,1.609,0.773,2.094c0.463,0.484,1.042,0.727,1.734,0.727c0.516,0,0.956-0.136,1.32-0.406
				C528.628,80.248,528.917,79.815,529.131,79.222z M524.514,76.948h4.633c-0.062-0.698-0.24-1.222-0.531-1.57
				c-0.448-0.542-1.029-0.812-1.742-0.812c-0.646,0-1.189,0.216-1.629,0.648C524.804,75.646,524.561,76.225,524.514,76.948z"/>
			<path fill="#3C3C3B" d="M531.788,79.417l1.391-0.219c0.078,0.558,0.295,0.984,0.652,1.281c0.356,0.297,0.855,0.445,1.496,0.445
				c0.646,0,1.125-0.132,1.438-0.395s0.469-0.571,0.469-0.926c0-0.317-0.138-0.567-0.414-0.75c-0.193-0.125-0.672-0.284-1.438-0.477
				c-1.031-0.261-1.746-0.485-2.145-0.676s-0.701-0.453-0.906-0.789c-0.206-0.336-0.309-0.707-0.309-1.113
				c0-0.37,0.084-0.712,0.254-1.027c0.169-0.315,0.399-0.577,0.691-0.785c0.219-0.161,0.517-0.298,0.895-0.41
				c0.377-0.112,0.782-0.168,1.215-0.168c0.651,0,1.223,0.094,1.715,0.281s0.855,0.441,1.09,0.762s0.396,0.749,0.484,1.285
				l-1.375,0.188c-0.062-0.427-0.244-0.761-0.543-1c-0.3-0.239-0.723-0.359-1.27-0.359c-0.646,0-1.107,0.106-1.383,0.32
				c-0.276,0.214-0.414,0.464-0.414,0.75c0,0.183,0.057,0.347,0.172,0.492c0.114,0.151,0.294,0.276,0.539,0.375
				c0.141,0.052,0.555,0.172,1.242,0.359c0.995,0.266,1.688,0.483,2.082,0.652c0.393,0.169,0.702,0.415,0.926,0.738
				c0.224,0.323,0.336,0.724,0.336,1.203c0,0.469-0.137,0.91-0.41,1.324s-0.668,0.734-1.184,0.961s-1.099,0.34-1.75,0.34
				c-1.078,0-1.9-0.224-2.465-0.672C532.304,80.961,531.944,80.297,531.788,79.417z"/>
			<path fill="#3C3C3B" d="M263.444,97.414l1.43-0.125c0.067,0.573,0.225,1.043,0.473,1.41c0.247,0.367,0.631,0.664,1.152,0.891
				c0.521,0.227,1.106,0.34,1.758,0.34c0.578,0,1.088-0.086,1.531-0.258c0.442-0.172,0.772-0.407,0.988-0.707
				c0.216-0.3,0.324-0.626,0.324-0.98c0-0.359-0.104-0.673-0.312-0.941c-0.208-0.269-0.552-0.493-1.031-0.676
				c-0.308-0.12-0.987-0.306-2.039-0.559c-1.052-0.253-1.789-0.491-2.211-0.715c-0.547-0.286-0.955-0.642-1.223-1.066
				c-0.269-0.425-0.402-0.899-0.402-1.426c0-0.578,0.164-1.118,0.492-1.621s0.807-0.884,1.438-1.145
				c0.63-0.261,1.331-0.391,2.102-0.391c0.849,0,1.598,0.137,2.246,0.41s1.147,0.676,1.496,1.207
				c0.349,0.531,0.536,1.133,0.562,1.805l-1.453,0.109c-0.078-0.724-0.343-1.271-0.793-1.641c-0.451-0.37-1.116-0.555-1.996-0.555
				c-0.917,0-1.585,0.168-2.004,0.504c-0.419,0.336-0.629,0.741-0.629,1.215c0,0.411,0.148,0.75,0.445,1.016
				c0.292,0.266,1.053,0.538,2.285,0.816c1.231,0.278,2.077,0.522,2.535,0.73c0.667,0.308,1.159,0.696,1.477,1.168
				c0.317,0.472,0.477,1.015,0.477,1.629c0,0.609-0.175,1.184-0.523,1.723c-0.349,0.539-0.851,0.958-1.504,1.258
				c-0.654,0.3-1.39,0.449-2.207,0.449c-1.037,0-1.905-0.151-2.605-0.453c-0.701-0.302-1.25-0.757-1.648-1.363
				S263.464,98.18,263.444,97.414z"/>
			<path fill="#3C3C3B" d="M280.131,98.422l1.453,0.18c-0.229,0.849-0.654,1.508-1.273,1.977c-0.62,0.469-1.412,0.703-2.375,0.703
				c-1.214,0-2.176-0.374-2.887-1.121s-1.066-1.796-1.066-3.145c0-1.396,0.359-2.479,1.078-3.25s1.651-1.156,2.797-1.156
				c1.109,0,2.016,0.378,2.719,1.133s1.055,1.817,1.055,3.188c0,0.083-0.003,0.208-0.008,0.375h-6.188
				c0.052,0.911,0.31,1.609,0.773,2.094c0.463,0.484,1.042,0.727,1.734,0.727c0.516,0,0.956-0.136,1.32-0.406
				C279.628,99.448,279.917,99.016,280.131,98.422z M275.514,96.148h4.633c-0.062-0.698-0.24-1.222-0.531-1.57
				c-0.448-0.542-1.029-0.812-1.742-0.812c-0.646,0-1.189,0.216-1.629,0.648C275.804,94.847,275.561,95.425,275.514,96.148z"/>
			<path fill="#3C3C3B" d="M283.35,101.094v-8.297h1.266v1.18c0.609-0.911,1.489-1.367,2.641-1.367c0.5,0,0.959,0.09,1.379,0.27
				c0.419,0.18,0.733,0.415,0.941,0.707c0.208,0.292,0.354,0.638,0.438,1.039c0.052,0.261,0.078,0.716,0.078,1.367v5.102h-1.406
				v-5.047c0-0.573-0.055-1.001-0.164-1.285s-0.304-0.511-0.582-0.68c-0.279-0.169-0.605-0.254-0.98-0.254
				c-0.599,0-1.116,0.19-1.551,0.57c-0.435,0.38-0.652,1.102-0.652,2.164v4.531H283.35z"/>
			<path fill="#3C3C3B" d="M295.319,99.836l0.203,1.242c-0.396,0.083-0.75,0.125-1.062,0.125c-0.511,0-0.906-0.081-1.188-0.242
				s-0.479-0.374-0.594-0.637c-0.115-0.263-0.172-0.816-0.172-1.66v-4.773h-1.031v-1.094h1.031v-2.055l1.398-0.844v2.898h1.414
				v1.094h-1.414v4.852c0,0.401,0.024,0.659,0.074,0.773c0.049,0.114,0.13,0.206,0.242,0.273c0.112,0.067,0.272,0.102,0.48,0.102
				C294.858,99.891,295.063,99.872,295.319,99.836z"/>
			<path fill="#3C3C3B" d="M302.374,98.422l1.453,0.18c-0.229,0.849-0.654,1.508-1.273,1.977c-0.62,0.469-1.412,0.703-2.375,0.703
				c-1.214,0-2.176-0.374-2.887-1.121s-1.066-1.796-1.066-3.145c0-1.396,0.359-2.479,1.078-3.25s1.651-1.156,2.797-1.156
				c1.109,0,2.016,0.378,2.719,1.133s1.055,1.817,1.055,3.188c0,0.083-0.003,0.208-0.008,0.375h-6.188
				c0.052,0.911,0.31,1.609,0.773,2.094c0.463,0.484,1.042,0.727,1.734,0.727c0.516,0,0.956-0.136,1.32-0.406
				C301.871,99.448,302.16,99.016,302.374,98.422z M297.756,96.148h4.633c-0.062-0.698-0.24-1.222-0.531-1.57
				c-0.448-0.542-1.029-0.812-1.742-0.812c-0.646,0-1.189,0.216-1.629,0.648C298.046,94.847,297.803,95.425,297.756,96.148z"/>
			<path fill="#3C3C3B" d="M305.592,101.094v-8.297h1.266v1.18c0.609-0.911,1.489-1.367,2.641-1.367c0.5,0,0.959,0.09,1.379,0.27
				c0.419,0.18,0.733,0.415,0.941,0.707c0.208,0.292,0.354,0.638,0.438,1.039c0.052,0.261,0.078,0.716,0.078,1.367v5.102h-1.406
				v-5.047c0-0.573-0.055-1.001-0.164-1.285s-0.304-0.511-0.582-0.68c-0.279-0.169-0.605-0.254-0.98-0.254
				c-0.599,0-1.116,0.19-1.551,0.57c-0.435,0.38-0.652,1.102-0.652,2.164v4.531H305.592z"/>
			<path fill="#3C3C3B" d="M319.905,98.055l1.383,0.18c-0.151,0.953-0.538,1.699-1.16,2.238c-0.623,0.539-1.387,0.809-2.293,0.809
				c-1.136,0-2.048-0.371-2.738-1.113c-0.69-0.742-1.035-1.806-1.035-3.191c0-0.896,0.148-1.68,0.445-2.352s0.749-1.176,1.355-1.512
				c0.606-0.336,1.267-0.504,1.98-0.504c0.901,0,1.638,0.228,2.211,0.684c0.573,0.456,0.94,1.103,1.102,1.941l-1.367,0.211
				c-0.13-0.558-0.361-0.977-0.691-1.258c-0.331-0.281-0.73-0.422-1.199-0.422c-0.708,0-1.284,0.254-1.727,0.762
				c-0.443,0.508-0.664,1.312-0.664,2.41c0,1.114,0.213,1.925,0.641,2.43c0.427,0.505,0.984,0.758,1.672,0.758
				c0.552,0,1.013-0.169,1.383-0.508C319.571,99.278,319.806,98.758,319.905,98.055z"/>
			<path fill="#3C3C3B" d="M322.499,91.258v-1.617h1.406v1.617H322.499z M322.499,101.094v-8.297h1.406v8.297H322.499z"/>
			<path fill="#3C3C3B" d="M331.459,100.07c-0.521,0.442-1.022,0.755-1.504,0.938c-0.482,0.183-0.999,0.273-1.551,0.273
				c-0.912,0-1.612-0.223-2.102-0.668c-0.49-0.445-0.734-1.015-0.734-1.707c0-0.406,0.092-0.777,0.277-1.113
				c0.185-0.336,0.427-0.605,0.727-0.809c0.299-0.203,0.637-0.356,1.012-0.461c0.276-0.073,0.692-0.144,1.25-0.211
				c1.135-0.136,1.971-0.297,2.508-0.484c0.005-0.192,0.008-0.315,0.008-0.367c0-0.573-0.133-0.977-0.398-1.211
				c-0.359-0.317-0.894-0.477-1.602-0.477c-0.662,0-1.15,0.116-1.465,0.348c-0.315,0.231-0.548,0.642-0.699,1.23l-1.375-0.188
				c0.125-0.589,0.331-1.063,0.617-1.426c0.286-0.362,0.7-0.641,1.242-0.836c0.542-0.195,1.169-0.293,1.883-0.293
				c0.708,0,1.284,0.083,1.727,0.25c0.442,0.167,0.768,0.376,0.977,0.629c0.208,0.253,0.354,0.571,0.438,0.957
				c0.047,0.239,0.07,0.672,0.07,1.297v1.875c0,1.308,0.03,2.134,0.09,2.48c0.06,0.347,0.178,0.679,0.355,0.996h-1.469
				C331.595,100.802,331.501,100.461,331.459,100.07z M331.342,96.93c-0.511,0.208-1.276,0.386-2.297,0.531
				c-0.578,0.083-0.987,0.177-1.227,0.281c-0.24,0.104-0.425,0.257-0.555,0.457c-0.13,0.2-0.195,0.423-0.195,0.668
				c0,0.375,0.142,0.688,0.426,0.938c0.284,0.25,0.699,0.375,1.246,0.375c0.542,0,1.023-0.118,1.445-0.355s0.731-0.562,0.93-0.973
				c0.151-0.317,0.227-0.786,0.227-1.406V96.93z"/>
			<path fill="#3C3C3B" d="M334.381,98.617l1.391-0.219c0.078,0.558,0.295,0.984,0.652,1.281c0.356,0.297,0.855,0.445,1.496,0.445
				c0.646,0,1.125-0.132,1.438-0.395s0.469-0.571,0.469-0.926c0-0.317-0.138-0.567-0.414-0.75c-0.193-0.125-0.672-0.284-1.438-0.477
				c-1.031-0.261-1.746-0.485-2.145-0.676s-0.701-0.453-0.906-0.789c-0.206-0.336-0.309-0.707-0.309-1.113
				c0-0.37,0.084-0.712,0.254-1.027c0.169-0.315,0.399-0.577,0.691-0.785c0.219-0.161,0.517-0.298,0.895-0.41
				c0.377-0.112,0.782-0.168,1.215-0.168c0.651,0,1.223,0.094,1.715,0.281s0.855,0.441,1.09,0.762s0.396,0.749,0.484,1.285
				l-1.375,0.188c-0.062-0.427-0.244-0.761-0.543-1c-0.3-0.239-0.723-0.359-1.27-0.359c-0.646,0-1.107,0.106-1.383,0.32
				c-0.276,0.214-0.414,0.464-0.414,0.75c0,0.183,0.057,0.347,0.172,0.492c0.114,0.151,0.294,0.276,0.539,0.375
				c0.141,0.052,0.555,0.172,1.242,0.359c0.995,0.266,1.688,0.483,2.082,0.652c0.393,0.169,0.702,0.415,0.926,0.738
				c0.224,0.323,0.336,0.724,0.336,1.203c0,0.469-0.137,0.91-0.41,1.324s-0.668,0.734-1.184,0.961s-1.099,0.34-1.75,0.34
				c-1.078,0-1.9-0.224-2.465-0.672C334.898,100.161,334.538,99.497,334.381,98.617z"/>
			<path fill="#3C3C3B" d="M352.772,101.094v-1.047c-0.526,0.823-1.3,1.234-2.32,1.234c-0.662,0-1.27-0.183-1.824-0.547
				s-0.984-0.874-1.289-1.527s-0.457-1.405-0.457-2.254c0-0.828,0.138-1.579,0.414-2.254c0.276-0.675,0.69-1.191,1.242-1.551
				c0.552-0.359,1.169-0.539,1.852-0.539c0.5,0,0.945,0.105,1.336,0.316s0.708,0.485,0.953,0.824v-4.109h1.398v11.453H352.772z
				 M348.327,96.953c0,1.062,0.224,1.856,0.672,2.383c0.448,0.526,0.977,0.789,1.586,0.789c0.614,0,1.137-0.251,1.566-0.754
				s0.645-1.27,0.645-2.301c0-1.136-0.219-1.969-0.656-2.5s-0.977-0.797-1.617-0.797c-0.625,0-1.147,0.255-1.566,0.766
				C348.536,95.05,348.327,95.854,348.327,96.953z"/>
			<path fill="#3C3C3B" d="M361.967,98.422l1.453,0.18c-0.229,0.849-0.654,1.508-1.273,1.977c-0.62,0.469-1.412,0.703-2.375,0.703
				c-1.214,0-2.176-0.374-2.887-1.121s-1.066-1.796-1.066-3.145c0-1.396,0.359-2.479,1.078-3.25s1.651-1.156,2.797-1.156
				c1.109,0,2.016,0.378,2.719,1.133s1.055,1.817,1.055,3.188c0,0.083-0.003,0.208-0.008,0.375h-6.188
				c0.052,0.911,0.31,1.609,0.773,2.094c0.463,0.484,1.042,0.727,1.734,0.727c0.516,0,0.956-0.136,1.32-0.406
				C361.464,99.448,361.753,99.016,361.967,98.422z M357.35,96.148h4.633c-0.062-0.698-0.24-1.222-0.531-1.57
				c-0.448-0.542-1.029-0.812-1.742-0.812c-0.646,0-1.189,0.216-1.629,0.648C357.64,94.847,357.397,95.425,357.35,96.148z"/>
			<path fill="#3C3C3B" d="M369.038,97.844l1.367-0.188c0.036,0.875,0.2,1.474,0.492,1.797c0.292,0.323,0.695,0.484,1.211,0.484
				c0.38,0,0.708-0.087,0.984-0.262c0.276-0.175,0.466-0.411,0.57-0.711c0.104-0.3,0.156-0.777,0.156-1.434v-7.891h1.516v7.805
				c0,0.958-0.116,1.7-0.348,2.227c-0.232,0.526-0.599,0.927-1.102,1.203c-0.503,0.276-1.093,0.414-1.77,0.414
				c-1.005,0-1.775-0.289-2.309-0.867C369.273,99.844,369.017,98.984,369.038,97.844z"/>
			<path fill="#3C3C3B" d="M383.069,101.094v-1.219c-0.646,0.938-1.523,1.406-2.633,1.406c-0.49,0-0.947-0.094-1.371-0.281
				c-0.425-0.188-0.74-0.423-0.945-0.707c-0.206-0.284-0.351-0.632-0.434-1.043c-0.058-0.276-0.086-0.714-0.086-1.312v-5.141h1.406
				v4.602c0,0.734,0.028,1.229,0.086,1.484c0.088,0.37,0.276,0.66,0.562,0.871c0.286,0.211,0.641,0.316,1.062,0.316
				s0.817-0.108,1.188-0.324c0.37-0.216,0.631-0.511,0.785-0.883c0.153-0.372,0.23-0.913,0.23-1.621v-4.445h1.406v8.297H383.069z"/>
			<path fill="#3C3C3B" d="M385.967,98.617l1.391-0.219c0.078,0.558,0.295,0.984,0.652,1.281c0.356,0.297,0.855,0.445,1.496,0.445
				c0.646,0,1.125-0.132,1.438-0.395s0.469-0.571,0.469-0.926c0-0.317-0.138-0.567-0.414-0.75c-0.193-0.125-0.672-0.284-1.438-0.477
				c-1.031-0.261-1.746-0.485-2.145-0.676s-0.701-0.453-0.906-0.789c-0.206-0.336-0.309-0.707-0.309-1.113
				c0-0.37,0.084-0.712,0.254-1.027c0.169-0.315,0.399-0.577,0.691-0.785c0.219-0.161,0.517-0.298,0.895-0.41
				c0.377-0.112,0.782-0.168,1.215-0.168c0.651,0,1.223,0.094,1.715,0.281s0.855,0.441,1.09,0.762s0.396,0.749,0.484,1.285
				l-1.375,0.188c-0.062-0.427-0.244-0.761-0.543-1c-0.3-0.239-0.723-0.359-1.27-0.359c-0.646,0-1.107,0.106-1.383,0.32
				c-0.276,0.214-0.414,0.464-0.414,0.75c0,0.183,0.057,0.347,0.172,0.492c0.114,0.151,0.294,0.276,0.539,0.375
				c0.141,0.052,0.555,0.172,1.242,0.359c0.995,0.266,1.688,0.483,2.082,0.652c0.393,0.169,0.702,0.415,0.926,0.738
				c0.224,0.323,0.336,0.724,0.336,1.203c0,0.469-0.137,0.91-0.41,1.324s-0.668,0.734-1.184,0.961s-1.099,0.34-1.75,0.34
				c-1.078,0-1.9-0.224-2.465-0.672C386.484,100.161,386.124,99.497,385.967,98.617z"/>
			<path fill="#3C3C3B" d="M397.6,99.836l0.203,1.242c-0.396,0.083-0.75,0.125-1.062,0.125c-0.511,0-0.906-0.081-1.188-0.242
				s-0.479-0.374-0.594-0.637c-0.115-0.263-0.172-0.816-0.172-1.66v-4.773h-1.031v-1.094h1.031v-2.055l1.398-0.844v2.898h1.414
				v1.094h-1.414v4.852c0,0.401,0.024,0.659,0.074,0.773c0.049,0.114,0.13,0.206,0.242,0.273c0.112,0.067,0.272,0.102,0.48,0.102
				C397.139,99.891,397.345,99.872,397.6,99.836z"/>
			<path fill="#3C3C3B" d="M398.983,91.258v-1.617h1.406v1.617H398.983z M398.983,101.094v-8.297h1.406v8.297H398.983z"/>
			<path fill="#3C3C3B" d="M407.944,98.055l1.383,0.18c-0.151,0.953-0.538,1.699-1.16,2.238c-0.623,0.539-1.387,0.809-2.293,0.809
				c-1.136,0-2.048-0.371-2.738-1.113c-0.69-0.742-1.035-1.806-1.035-3.191c0-0.896,0.148-1.68,0.445-2.352s0.749-1.176,1.355-1.512
				c0.606-0.336,1.267-0.504,1.98-0.504c0.901,0,1.638,0.228,2.211,0.684c0.573,0.456,0.94,1.103,1.102,1.941l-1.367,0.211
				c-0.13-0.558-0.361-0.977-0.691-1.258c-0.331-0.281-0.73-0.422-1.199-0.422c-0.708,0-1.284,0.254-1.727,0.762
				c-0.443,0.508-0.664,1.312-0.664,2.41c0,1.114,0.213,1.925,0.641,2.43c0.427,0.505,0.984,0.758,1.672,0.758
				c0.552,0,1.013-0.169,1.383-0.508C407.61,99.278,407.845,98.758,407.944,98.055z"/>
			<path fill="#3C3C3B" d="M410.538,91.258v-1.617h1.406v1.617H410.538z M410.538,101.094v-8.297h1.406v8.297H410.538z"/>
			<path fill="#3C3C3B" d="M419.499,100.07c-0.521,0.442-1.022,0.755-1.504,0.938c-0.482,0.183-0.999,0.273-1.551,0.273
				c-0.912,0-1.612-0.223-2.102-0.668c-0.49-0.445-0.734-1.015-0.734-1.707c0-0.406,0.092-0.777,0.277-1.113
				c0.185-0.336,0.427-0.605,0.727-0.809c0.299-0.203,0.637-0.356,1.012-0.461c0.276-0.073,0.692-0.144,1.25-0.211
				c1.135-0.136,1.971-0.297,2.508-0.484c0.005-0.192,0.008-0.315,0.008-0.367c0-0.573-0.133-0.977-0.398-1.211
				c-0.359-0.317-0.894-0.477-1.602-0.477c-0.662,0-1.15,0.116-1.465,0.348c-0.315,0.231-0.548,0.642-0.699,1.23l-1.375-0.188
				c0.125-0.589,0.331-1.063,0.617-1.426c0.286-0.362,0.7-0.641,1.242-0.836c0.542-0.195,1.169-0.293,1.883-0.293
				c0.708,0,1.284,0.083,1.727,0.25c0.442,0.167,0.768,0.376,0.977,0.629c0.208,0.253,0.354,0.571,0.438,0.957
				c0.047,0.239,0.07,0.672,0.07,1.297v1.875c0,1.308,0.03,2.134,0.09,2.48c0.06,0.347,0.178,0.679,0.355,0.996h-1.469
				C419.634,100.802,419.54,100.461,419.499,100.07z M419.381,96.93c-0.511,0.208-1.276,0.386-2.297,0.531
				c-0.578,0.083-0.987,0.177-1.227,0.281c-0.24,0.104-0.425,0.257-0.555,0.457c-0.13,0.2-0.195,0.423-0.195,0.668
				c0,0.375,0.142,0.688,0.426,0.938c0.284,0.25,0.699,0.375,1.246,0.375c0.542,0,1.023-0.118,1.445-0.355s0.731-0.562,0.93-0.973
				c0.151-0.317,0.227-0.786,0.227-1.406V96.93z"/>
			<path fill="#3C3C3B" d="M427.366,104.289l-0.156-1.32c0.307,0.083,0.575,0.125,0.805,0.125c0.312,0,0.562-0.052,0.75-0.156
				s0.341-0.25,0.461-0.438c0.088-0.141,0.231-0.489,0.43-1.047c0.026-0.078,0.067-0.192,0.125-0.344l-3.148-8.312h1.516
				l1.727,4.805c0.224,0.609,0.424,1.25,0.602,1.922c0.161-0.646,0.354-1.276,0.578-1.891l1.773-4.836h1.406l-3.156,8.438
				c-0.339,0.911-0.602,1.539-0.789,1.883c-0.25,0.464-0.537,0.804-0.859,1.02c-0.323,0.216-0.708,0.324-1.156,0.324
				C428.001,104.461,427.699,104.403,427.366,104.289z"/>
			<path fill="#3C3C3B" d="M440.053,101.094V89.641h4.32c0.76,0,1.341,0.036,1.742,0.109c0.562,0.094,1.034,0.272,1.414,0.535
				c0.38,0.263,0.686,0.632,0.918,1.105c0.231,0.474,0.348,0.995,0.348,1.562c0,0.974-0.31,1.798-0.93,2.473
				c-0.62,0.675-1.74,1.012-3.359,1.012h-2.938v4.656H440.053z M441.569,95.086h2.961c0.979,0,1.674-0.183,2.086-0.547
				c0.411-0.364,0.617-0.878,0.617-1.539c0-0.479-0.121-0.89-0.363-1.23s-0.562-0.566-0.957-0.676
				c-0.255-0.067-0.727-0.102-1.414-0.102h-2.93V95.086z"/>
			<path fill="#3C3C3B" d="M455.959,100.07c-0.521,0.442-1.022,0.755-1.504,0.938c-0.482,0.183-0.999,0.273-1.551,0.273
				c-0.912,0-1.612-0.223-2.102-0.668c-0.49-0.445-0.734-1.015-0.734-1.707c0-0.406,0.092-0.777,0.277-1.113
				c0.185-0.336,0.427-0.605,0.727-0.809c0.299-0.203,0.637-0.356,1.012-0.461c0.276-0.073,0.692-0.144,1.25-0.211
				c1.135-0.136,1.971-0.297,2.508-0.484c0.005-0.192,0.008-0.315,0.008-0.367c0-0.573-0.133-0.977-0.398-1.211
				c-0.359-0.317-0.894-0.477-1.602-0.477c-0.662,0-1.15,0.116-1.465,0.348c-0.315,0.231-0.548,0.642-0.699,1.23l-1.375-0.188
				c0.125-0.589,0.331-1.063,0.617-1.426c0.286-0.362,0.7-0.641,1.242-0.836c0.542-0.195,1.169-0.293,1.883-0.293
				c0.708,0,1.284,0.083,1.727,0.25c0.442,0.167,0.768,0.376,0.977,0.629c0.208,0.253,0.354,0.571,0.438,0.957
				c0.047,0.239,0.07,0.672,0.07,1.297v1.875c0,1.308,0.03,2.134,0.09,2.48c0.06,0.347,0.178,0.679,0.355,0.996h-1.469
				C456.095,100.802,456.001,100.461,455.959,100.07z M455.842,96.93c-0.511,0.208-1.276,0.386-2.297,0.531
				c-0.578,0.083-0.987,0.177-1.227,0.281c-0.24,0.104-0.425,0.257-0.555,0.457c-0.13,0.2-0.195,0.423-0.195,0.668
				c0,0.375,0.142,0.688,0.426,0.938c0.284,0.25,0.699,0.375,1.246,0.375c0.542,0,1.023-0.118,1.445-0.355s0.731-0.562,0.93-0.973
				c0.151-0.317,0.227-0.786,0.227-1.406V96.93z"/>
			<path fill="#3C3C3B" d="M458.702,101.094v-1.141l5.281-6.062c-0.599,0.031-1.128,0.047-1.586,0.047h-3.383v-1.141h6.781v0.93
				l-4.492,5.266l-0.867,0.961c0.63-0.047,1.221-0.07,1.773-0.07h3.836v1.211H458.702z"/>
			<path fill="#3C3C3B" d="M467.834,94.398v-1.602h1.602v1.602H467.834z M467.834,101.094v-1.602h1.602v1.602H467.834z"/>
			<path fill="#3C3C3B" d="M475.741,97.844l1.367-0.188c0.036,0.875,0.2,1.474,0.492,1.797c0.292,0.323,0.695,0.484,1.211,0.484
				c0.38,0,0.708-0.087,0.984-0.262c0.276-0.175,0.466-0.411,0.57-0.711c0.104-0.3,0.156-0.777,0.156-1.434v-7.891h1.516v7.805
				c0,0.958-0.116,1.7-0.348,2.227c-0.232,0.526-0.599,0.927-1.102,1.203c-0.503,0.276-1.093,0.414-1.77,0.414
				c-1.005,0-1.775-0.289-2.309-0.867C475.976,99.844,475.72,98.984,475.741,97.844z"/>
			<path fill="#3C3C3B" d="M489.772,101.094v-1.219c-0.646,0.938-1.523,1.406-2.633,1.406c-0.49,0-0.947-0.094-1.371-0.281
				c-0.425-0.188-0.74-0.423-0.945-0.707c-0.206-0.284-0.351-0.632-0.434-1.043c-0.058-0.276-0.086-0.714-0.086-1.312v-5.141h1.406
				v4.602c0,0.734,0.028,1.229,0.086,1.484c0.088,0.37,0.276,0.66,0.562,0.871c0.286,0.211,0.641,0.316,1.062,0.316
				s0.817-0.108,1.188-0.324c0.37-0.216,0.631-0.511,0.785-0.883c0.153-0.372,0.23-0.913,0.23-1.621v-4.445h1.406v8.297H489.772z"/>
			<path fill="#3C3C3B" d="M493.202,101.094V89.641h1.406v11.453H493.202z"/>
			<path fill="#3C3C3B" d="M496.795,91.258v-1.617h1.406v1.617H496.795z M496.795,101.094v-8.297h1.406v8.297H496.795z"/>
			<path fill="#3C3C3B" d="M505.756,100.07c-0.521,0.442-1.022,0.755-1.504,0.938c-0.482,0.183-0.999,0.273-1.551,0.273
				c-0.912,0-1.612-0.223-2.102-0.668c-0.49-0.445-0.734-1.015-0.734-1.707c0-0.406,0.092-0.777,0.277-1.113
				c0.185-0.336,0.427-0.605,0.727-0.809c0.299-0.203,0.637-0.356,1.012-0.461c0.276-0.073,0.692-0.144,1.25-0.211
				c1.135-0.136,1.971-0.297,2.508-0.484c0.005-0.192,0.008-0.315,0.008-0.367c0-0.573-0.133-0.977-0.398-1.211
				c-0.359-0.317-0.894-0.477-1.602-0.477c-0.662,0-1.15,0.116-1.465,0.348c-0.315,0.231-0.548,0.642-0.699,1.23l-1.375-0.188
				c0.125-0.589,0.331-1.063,0.617-1.426c0.286-0.362,0.7-0.641,1.242-0.836c0.542-0.195,1.169-0.293,1.883-0.293
				c0.708,0,1.284,0.083,1.727,0.25c0.442,0.167,0.768,0.376,0.977,0.629c0.208,0.253,0.354,0.571,0.438,0.957
				c0.047,0.239,0.07,0.672,0.07,1.297v1.875c0,1.308,0.03,2.134,0.09,2.48c0.06,0.347,0.178,0.679,0.355,0.996h-1.469
				C505.892,100.802,505.798,100.461,505.756,100.07z M505.639,96.93c-0.511,0.208-1.276,0.386-2.297,0.531
				c-0.578,0.083-0.987,0.177-1.227,0.281c-0.24,0.104-0.425,0.257-0.555,0.457c-0.13,0.2-0.195,0.423-0.195,0.668
				c0,0.375,0.142,0.688,0.426,0.938c0.284,0.25,0.699,0.375,1.246,0.375c0.542,0,1.023-0.118,1.445-0.355s0.731-0.562,0.93-0.973
				c0.151-0.317,0.227-0.786,0.227-1.406V96.93z M502.905,91.766l1.039-2.188h1.844l-1.719,2.188H502.905z"/>
			<path fill="#3C3C3B" d="M509.241,101.094v-8.297h1.266v1.18c0.609-0.911,1.489-1.367,2.641-1.367c0.5,0,0.959,0.09,1.379,0.27
				c0.419,0.18,0.733,0.415,0.941,0.707c0.208,0.292,0.354,0.638,0.438,1.039c0.052,0.261,0.078,0.716,0.078,1.367v5.102h-1.406
				v-5.047c0-0.573-0.055-1.001-0.164-1.285s-0.304-0.511-0.582-0.68c-0.279-0.169-0.605-0.254-0.98-0.254
				c-0.599,0-1.116,0.19-1.551,0.57c-0.435,0.38-0.652,1.102-0.652,2.164v4.531H509.241z"/>
			<path fill="#3C3C3B" d="M263.897,120.293V108.84h4.297c0.875,0,1.577,0.116,2.105,0.348c0.528,0.231,0.942,0.589,1.242,1.07
				c0.299,0.481,0.449,0.985,0.449,1.512c0,0.489-0.133,0.95-0.398,1.383s-0.667,0.781-1.203,1.047
				c0.692,0.203,1.225,0.55,1.598,1.039c0.372,0.489,0.559,1.067,0.559,1.734c0,0.536-0.113,1.035-0.34,1.496
				s-0.507,0.816-0.84,1.066c-0.333,0.25-0.751,0.438-1.254,0.566c-0.503,0.128-1.119,0.191-1.848,0.191H263.897z M265.413,113.652
				h2.477c0.672,0,1.153-0.044,1.445-0.133c0.385-0.114,0.676-0.305,0.871-0.57s0.293-0.599,0.293-1c0-0.38-0.091-0.715-0.273-1.004
				c-0.183-0.289-0.443-0.487-0.781-0.594c-0.339-0.106-0.919-0.16-1.742-0.16h-2.289V113.652z M265.413,118.941h2.852
				c0.489,0,0.833-0.019,1.031-0.055c0.349-0.062,0.641-0.167,0.875-0.312s0.427-0.358,0.578-0.637
				c0.151-0.278,0.227-0.601,0.227-0.965c0-0.427-0.109-0.798-0.328-1.113s-0.522-0.536-0.91-0.664
				c-0.388-0.128-0.947-0.191-1.676-0.191h-2.648V118.941z"/>
			<path fill="#3C3C3B" d="M273.928,116.145c0-1.536,0.427-2.675,1.281-3.414c0.713-0.614,1.583-0.922,2.609-0.922
				c1.141,0,2.073,0.374,2.797,1.121c0.724,0.747,1.086,1.78,1.086,3.098c0,1.067-0.16,1.907-0.48,2.52s-0.787,1.087-1.398,1.426
				c-0.612,0.339-1.28,0.508-2.004,0.508c-1.162,0-2.101-0.372-2.816-1.117C274.286,118.618,273.928,117.546,273.928,116.145z
				 M275.374,116.145c0,1.062,0.231,1.858,0.695,2.387c0.463,0.528,1.047,0.793,1.75,0.793c0.698,0,1.278-0.266,1.742-0.797
				c0.463-0.531,0.695-1.341,0.695-2.43c0-1.026-0.233-1.804-0.699-2.332c-0.466-0.528-1.046-0.793-1.738-0.793
				c-0.703,0-1.287,0.263-1.75,0.789C275.605,114.288,275.374,115.082,275.374,116.145z"/>
			<path fill="#3C3C3B" d="M283.319,120.293V108.84h1.406v11.453H283.319z"/>
			<path fill="#3C3C3B" d="M287.327,110.965l1.039-2.188h1.844l-1.719,2.188H287.327z M287.397,120.293v-8.297h1.406v8.297H287.397z
				"/>
			<path fill="#3C3C3B" d="M293.655,120.293l-3.156-8.297h1.484l1.781,4.969c0.192,0.536,0.37,1.094,0.531,1.672
				c0.125-0.438,0.299-0.964,0.523-1.578l1.844-5.062h1.445l-3.141,8.297H293.655z"/>
			<path fill="#3C3C3B" d="M304.764,119.27c-0.521,0.442-1.022,0.755-1.504,0.938c-0.482,0.183-0.999,0.273-1.551,0.273
				c-0.912,0-1.612-0.223-2.102-0.668c-0.49-0.445-0.734-1.015-0.734-1.707c0-0.406,0.092-0.777,0.277-1.113
				c0.185-0.336,0.427-0.605,0.727-0.809c0.299-0.203,0.637-0.356,1.012-0.461c0.276-0.073,0.692-0.144,1.25-0.211
				c1.135-0.136,1.971-0.297,2.508-0.484c0.005-0.192,0.008-0.315,0.008-0.367c0-0.573-0.133-0.977-0.398-1.211
				c-0.359-0.317-0.894-0.477-1.602-0.477c-0.662,0-1.15,0.116-1.465,0.348c-0.315,0.231-0.548,0.642-0.699,1.23l-1.375-0.188
				c0.125-0.589,0.331-1.063,0.617-1.426c0.286-0.362,0.7-0.641,1.242-0.836c0.542-0.195,1.169-0.293,1.883-0.293
				c0.708,0,1.284,0.083,1.727,0.25c0.442,0.167,0.768,0.376,0.977,0.629c0.208,0.253,0.354,0.571,0.438,0.957
				c0.047,0.239,0.07,0.672,0.07,1.297v1.875c0,1.308,0.03,2.134,0.09,2.48c0.06,0.347,0.178,0.679,0.355,0.996h-1.469
				C304.899,120.001,304.806,119.66,304.764,119.27z M304.647,116.129c-0.511,0.208-1.276,0.386-2.297,0.531
				c-0.578,0.083-0.987,0.177-1.227,0.281c-0.24,0.104-0.425,0.257-0.555,0.457c-0.13,0.2-0.195,0.423-0.195,0.668
				c0,0.375,0.142,0.688,0.426,0.938c0.284,0.25,0.699,0.375,1.246,0.375c0.542,0,1.023-0.118,1.445-0.355s0.731-0.562,0.93-0.973
				c0.151-0.317,0.227-0.786,0.227-1.406V116.129z"/>
			<path fill="#3C3C3B" d="M308.233,120.293v-8.297h1.266v1.258c0.323-0.589,0.621-0.977,0.895-1.164s0.574-0.281,0.902-0.281
				c0.474,0,0.956,0.151,1.445,0.453l-0.484,1.305c-0.344-0.203-0.688-0.305-1.031-0.305c-0.308,0-0.583,0.093-0.828,0.277
				c-0.245,0.185-0.419,0.441-0.523,0.77c-0.156,0.5-0.234,1.047-0.234,1.641v4.344H308.233z"/>
		</g>
	</g>
	<path fill="#F39200" d="M59.388,0.588L59.388,0.588L59.388,0.588l-0.44-0.236l-0.42-0.16l-0.603-0.158l-0.065-0.002L56.119,0
		L55.71,0.146l-0.089,0.088l-0.078,0.158L55.48,0.707c-0.006,0.029-0.018,0.057-0.037,0.076l-0.169,0.203l-0.212,0.213l-0.228,0.156
		c-0.014,0.01-0.031,0.018-0.046,0.021l-0.237,0.07c-0.026,0.004-0.052,0.006-0.078,0.002c-0.004,0-0.008-0.004-0.012-0.006
		c-0.02-0.004-0.041-0.012-0.058-0.025l-0.136-0.102c-0.024-0.018-0.043-0.045-0.054-0.072l-0.139-0.359l-0.29-0.078l-0.344,0.688
		L53.21,2.117c-0.005,0.016-0.011,0.027-0.021,0.041l-0.235,0.338L52.677,2.84l-0.624,0.592c-0.009,0.008-0.019,0.018-0.03,0.023
		l-0.405,0.236c-0.019,0.01-0.037,0.016-0.057,0.02l-0.405,0.068h-0.001c-0.009,0-0.018,0.002-0.026,0.002
		c-0.011,0-0.021-0.002-0.032-0.004h0l-0.507-0.1c-0.018-0.004-0.034-0.01-0.049-0.02l0,0l0,0l-1.259-0.695L49.025,2.92l0.394,1.045
		l0.111,0.297c0.007,0.02,0.011,0.039,0.011,0.059c0,0.018-0.004,0.039-0.009,0.059l-0.164,0.455l-0.031,0.283l0,0.328l0.229,0.752
		c0.006,0.021,0.01,0.045,0.006,0.068l-0.102,0.879l-0.04,0.186l-0.334,1.553c-0.002,0.012-0.007,0.025-0.013,0.035
		c-0.002,0.002-0.002,0.008-0.003,0.01l-0.843,1.551l-0.149,0.328v1.314l0,0c0,0.037-0.011,0.072-0.033,0.102l-0.203,0.27
		c-0.012,0.014-0.024,0.025-0.037,0.037l-0.236,0.17l-0.438,0.203l-0.789,0.822c-0.021,0.02-0.048,0.035-0.076,0.045l-0.607,0.168
		c-0.03,0.008-0.059,0.008-0.086,0.002l-0.406-0.102c-0.053-0.012-0.096-0.051-0.116-0.102l-0.472-1.18l-0.058-0.117l-0.173-0.344
		l-0.217-0.291l-0.125-0.172l-0.759-0.594l-0.217-0.201l-0.183-0.168h-0.114l-0.382,0.109l-0.13,0.238l0.127,0.299l0.636,0.672
		l0.026,0.014l0.187,0.107c0.018,0.01,0.033,0.023,0.045,0.037l0.202,0.236c0.011,0.012,0.019,0.023,0.026,0.039l0.169,0.371
		l0.107,0.322c0.009,0.027,0.011,0.057,0.006,0.084L43.6,14.053l0.089,0.859l0.011,0.096l0,0l0,0
		c0.001,0.023-0.002,0.049-0.01,0.072l-0.419,1.225l0.169,0.443l0.081,0.207c0.01,0.029,0.013,0.059,0.009,0.09h-0.001h0.001
		l-0.067,0.385l0.034,0.42c0,0.018,0,0.039-0.006,0.057l-0.067,0.238c-0.005,0.014-0.011,0.027-0.019,0.041l-0.169,0.273
		c-0.009,0.014-0.023,0.029-0.038,0.039l-0.337,0.271c-0.014,0.012-0.032,0.02-0.047,0.025l-0.269,0.102l-0.328,0.193l-0.385,1.057
		c-0.012,0.031-0.031,0.059-0.057,0.078l-0.406,0.303c-0.019,0.014-0.039,0.025-0.062,0.029l-0.71,0.17l-0.544,0.213l-0.275,0.338
		l-0.221,0.383l-1.715,2.021l-0.294,1.078c-0.007,0.027-0.023,0.055-0.042,0.074l-0.238,0.236c-0.029,0.033-0.072,0.049-0.118,0.049
		h-0.403l-2.122-0.338c-0.017-0.004-0.033-0.01-0.048-0.016l0,0l-0.743-0.373l0,0l-0.534-0.365l-0.221-0.057h-0.075l-0.309,0.156
		l-0.382,1.084c-0.004,0.012-0.01,0.021-0.017,0.033L31.181,27c-0.029,0.045-0.078,0.074-0.132,0.076l-0.574,0.037
		c-0.019,0-0.04-0.004-0.059-0.008l-0.331-0.102l-0.401-0.123l-0.039,0.025l-0.094,0.475l-0.248,0.605
		c-0.008,0.023-0.022,0.043-0.041,0.059l-0.443,0.414l-0.29,0.771c-0.022,0.059-0.075,0.1-0.137,0.109l-0.27,0.033
		c-0.042,0.004-0.081-0.004-0.115-0.027l-0.305-0.203c-0.016-0.008-0.029-0.023-0.04-0.037l-0.878-1.146
		c-0.018-0.025-0.029-0.053-0.033-0.082L26.65,27.1c-0.008-0.062,0.022-0.129,0.075-0.162l0.619-0.402l0.085-0.406
		c0.013-0.049,0.046-0.094,0.095-0.115l0.461-0.215l0.301-0.482l0.332-0.928l0.092-0.434v-0.357l-0.091-0.24l-0.075-0.123
		l-0.168-0.27l-0.403-0.373l-0.473-0.438l-1.025-0.496l0,0l0,0c-0.016-0.008-0.032-0.018-0.045-0.033l-0.186-0.184l-0.617,1.01
		l-0.062,0.246c-0.009,0.035-0.03,0.068-0.059,0.09l-0.956,0.758l-0.235,0.383l-0.097,0.775c-0.002,0.021-0.01,0.047-0.023,0.066
		l-0.427,0.689l-0.083,0.305l0.091,0.363c0.003,0.012,0.006,0.025,0.006,0.039v0.98c0,0.02-0.004,0.037-0.011,0.055l-0.236,0.676
		L23.337,29l0.003,0.475c0,0.016-0.001,0.033-0.006,0.049l-0.136,0.471c-0.011,0.043-0.039,0.08-0.077,0.102l-0.236,0.135
		c-0.019,0.01-0.037,0.016-0.057,0.018c-0.057,0.012-0.117-0.01-0.156-0.059l-0.169-0.201l-0.419-0.35l-0.381-0.221l-0.421-0.146
		l-0.467-0.031l-0.691,0.098l-1.441,0.363l-0.991,0.627c-0.028,0.018-0.058,0.025-0.09,0.025l0,0c-0.027,0-0.051-0.008-0.075-0.021
		c-0.002,0-0.007,0-0.01-0.002h-0.001l0,0c-0.054-0.033-0.086-0.092-0.083-0.156l0.028-0.486l-0.083-0.066l-0.195-0.084
		l-0.194-0.025l-0.331,0.029l-0.453,0.162L16.07,29.73l-0.057,0.014l-0.106,0.039l-0.139,0.053c-0.013,0.004-0.024,0.008-0.038,0.01
		l-0.27,0.033c-0.038,0.004-0.073-0.004-0.105-0.021l-0.687-0.387l-0.089-0.049c-0.019-0.014-0.035-0.025-0.049-0.045l-0.324-0.402
		l-0.216-0.271l-0.11-0.201l-0.292-0.533l-0.182-0.127l-0.186-0.055H12.84c-0.076,0-0.142-0.051-0.164-0.123l-0.191-0.67
		l-0.245-0.273l-0.931-0.256h-0.001l0,0c-0.025-0.008-0.049-0.021-0.069-0.041l-0.374-0.346l-0.296,0.207l-0.286,0.477
		c-0.01,0.016-0.023,0.031-0.04,0.043l-0.338,0.271l-0.286,0.18c-0.017,0.01-0.036,0.018-0.055,0.021l-0.17,0.033
		c-0.02,0.006-0.041,0.006-0.062,0.002L8.96,27.244c-0.028-0.004-0.056-0.018-0.078-0.035c-0.022-0.02-0.041-0.043-0.05-0.07
		l-0.19-0.508l-0.114-0.303c-0.009-0.025-0.012-0.051-0.009-0.076l0,0l0,0l0.033-0.338l0.141-0.504l0.533-1.041v-0.332l-0.157-0.41
		l-0.049-0.09l-0.179-0.328l-0.227-0.562l-0.045-0.115l-0.173-0.26l-0.189-0.117l-0.212,0.023L7.723,22.33l-0.554,0.424
		c-0.017,0.014-0.034,0.023-0.054,0.029l-0.337,0.102c-0.034,0.01-0.07,0.01-0.103-0.002l-0.203-0.066l-0.415-0.174l-0.529-0.316
		l-0.329-0.287l0,0l0-0.002l-0.484-0.516l-0.896-1.375c-0.008-0.012-0.014-0.025-0.019-0.041l-0.337-1.045l-0.225-0.41
		c-0.005-0.01-0.01-0.021-0.013-0.035l-0.203-0.709l-0.089-0.471L2.52,17.719l-0.409,0.471l-0.252,0.535l-0.197,0.961
		c-0.004,0.018-0.011,0.031-0.019,0.047L1.351,20.25l-0.058,0.262v0.275l0.112,0.197l0.288,0.348
		c0.009,0.012,0.017,0.023,0.022,0.037l0.169,0.373c0.007,0.018,0.013,0.033,0.014,0.053l0.034,0.338L1.9,23.1l0.066,0.443
		c0.004,0.025,0.001,0.053-0.007,0.078l-0.068,0.201C1.878,23.865,1.848,23.9,1.807,23.92l-0.52,0.262L1.261,24.49l0.327,0.91
		c0.015,0.043,0.012,0.092-0.008,0.133l-0.101,0.203c-0.019,0.037-0.052,0.068-0.093,0.084L1.15,25.906l-0.278,0.277L0.62,26.535
		l-0.142,0.291l-0.199,1.391c-0.002,0.018-0.008,0.035-0.017,0.051L0,28.793l0.042,0.072l0.179,0.18l0.271-0.1l1.222-0.24
		l0.506-0.221l0.254-0.191c0.018-0.014,0.038-0.021,0.06-0.029l0.135-0.031c0.024-0.008,0.046-0.008,0.069-0.006l0.406,0.07
		c0.011,0.002,0.023,0.004,0.034,0.01l0.338,0.135l0.324,0.096l0.995,0.191l0.499-0.117l0.171-0.145l0.35-0.244l0.662-0.564
		l0.351-0.246c0.038-0.025,0.085-0.035,0.129-0.027l0.169,0.035c0.027,0.006,0.051,0.016,0.073,0.033l0.167,0.135
		c0.024,0.02,0.043,0.045,0.053,0.072l0,0v0.002l0.118,0.322l0.193,0.137c0.023,0.018,0.041,0.037,0.053,0.062l0.067,0.135h0
		c0.014,0.029,0.019,0.061,0.018,0.092l-0.031,0.336l0.049,0.145l0.154,0.215c0.017,0.027,0.028,0.057,0.031,0.086l0.033,0.473
		l0.002,0.395l0.025,0.086l0.06,0.201l0.152,0.213c0.015,0.021,0.025,0.045,0.03,0.07l0.027,0.166l0.006,0.037l0,0l0,0
		c0.002,0.021,0.002,0.045-0.002,0.064l-0.067,0.303c-0.006,0.027-0.019,0.053-0.036,0.076l-0.191,0.221L7.9,31.969l-0.055,0.217
		l0.025,0.174l0.097,0.186l0.214,0.406l0.96,0.926c0.018,0.018,0.033,0.041,0.042,0.066l0.169,0.471
		c0.009,0.025,0.011,0.051,0.007,0.078l0,0l0,0l-0.063,0.547l0.021,0.104l0.041,0.051l0.01,0.012l0.21-0.023l0.537,0.035
		c0.025,0.002,0.051,0.01,0.073,0.021l0.709,0.404l0.621,0.279l1.073-0.066c0.048,0,0.093,0.016,0.127,0.047
		c0.034,0.033,0.054,0.076,0.054,0.123l0,0v0.42l0.193,0.277l0.22,0.188l0.281,0.166l0.333,0.031
		c0.025,0.002,0.048,0.008,0.068,0.021l0.941,0.545l1.394-1.268c0.018-0.016,0.04-0.029,0.063-0.035l0.561-0.178l0.132-0.365v-0.41
		l0,0c0-0.045,0.016-0.086,0.047-0.119l1.25-1.283l0.517-0.447c0.011-0.01,0.022-0.018,0.034-0.023l0.203-0.102
		c0.019-0.008,0.038-0.016,0.059-0.018l0.337-0.033c0.042-0.004,0.084,0.008,0.118,0.033l0.09,0.066l0.046,0.035
		c0.042,0.031,0.067,0.082,0.067,0.135v1.076l1.029,0.5l0.446-0.119c0.055-0.016,0.11,0.002,0.152,0.039
		c0.003,0.002,0.008,0.002,0.012,0.004l0.481,0.482l0.275,0.109h0.209l0.177-0.057c0.03-0.012,0.063-0.012,0.095-0.006l0.135,0.035
		c0.066,0.018,0.117,0.072,0.126,0.139l0.03,0.211l0.21,0.42l0.921,0.82l0.221,0.158c0.045,0.031,0.071,0.082,0.071,0.139l0,0v0.146
		l0.139,0.193c0.018,0.025,0.028,0.055,0.03,0.086c0.002,0.029-0.003,0.061-0.018,0.088l-0.134,0.271l-0.119,0.293v0.176
		l0.175,0.498l0.946,0.75l0,0l0,0c0.003,0.004,0.006,0.01,0.01,0.014c0.01,0.008,0.019,0.02,0.027,0.029l0,0l0,0l0.472,0.777
		c0.022,0.035,0.029,0.076,0.022,0.117l-0.095,0.535l0.153,0.584l0.562,0.924c0.008,0.014,0.015,0.031,0.019,0.047l0.068,0.271
		c0.008,0.029,0.006,0.061-0.002,0.088l-0.09,0.303l0.059,0.408l0.324,0.615c0.016,0.029,0.022,0.062,0.019,0.096l-0.034,0.305
		c-0.005,0.047-0.029,0.088-0.067,0.117l-0.832,0.615l0.01,0.076l0.078,0.568c0.005,0.035-0.001,0.07-0.018,0.102l-0.689,1.279
		v0.209l0.425,0.594l1.772,0.033c0.015,0,0.03,0.002,0.046,0.006l0.674,0.203c0.023,0.008,0.043,0.018,0.061,0.033l0.203,0.17
		c0.013,0.01,0.025,0.021,0.035,0.037l0.338,0.541l0.319,0.348c0.009,0.01,0.017,0.021,0.022,0.029l0.135,0.238
		c0.008,0.016,0.013,0.029,0.017,0.047c0.001,0,0.002,0.006,0.003,0.008c0.002,0.018,0.002,0.039,0,0.059l-0.062,0.336l0.004,0.012
		l0.796,0.307c0.036,0.016,0.067,0.043,0.085,0.076l0.214,0.391l0.353,0.639l0.108,0.107l0.174,0.023l0.368-0.123
		c0.021-0.008,0.044-0.012,0.067-0.01l0.438,0.035c0.013,0,0.022,0.002,0.034,0.006l0.236,0.066
		c0.016,0.008,0.032,0.014,0.047,0.023l0.202,0.135c0.042,0.027,0.07,0.072,0.075,0.123l0.065,0.617l0.12,0.283l0.401,0.029
		c0.018,0,0.036,0.004,0.053,0.012l0.875,0.355l0.869-0.061l0.25-0.139l0.124-0.125l0.056-0.166c0.003-0.01,0.009-0.021,0.015-0.033
		l0.313-0.533v-0.223c0-0.035,0.01-0.07,0.031-0.1l0.169-0.236c0.032-0.045,0.083-0.07,0.137-0.07h0.194l0.038-0.223l-0.427-1.311
		c-0.008-0.025-0.01-0.051-0.006-0.08l0.067-0.438c0.002-0.012,0.005-0.023,0.009-0.033l0.362-0.955l0.067-1.023l0.375-1.514
		c0.003-0.014,0.007-0.025,0.012-0.035l0.102-0.203c0.027-0.051,0.078-0.088,0.135-0.092l0.336-0.033
		c0.031-0.002,0.059,0,0.086,0.012l0.731,0.322l0.458-0.516l0.361-0.33l0.114-0.225l0.131-0.492
		c0.002-0.012,0.007-0.023,0.013-0.033l0.295-0.562l-0.109-0.195l-0.516-0.418c-0.015-0.014-0.029-0.027-0.039-0.047l-0.237-0.402
		c-0.006-0.012-0.011-0.021-0.014-0.033l-0.084-0.252l-0.018-0.053c-0.005-0.016-0.008-0.033-0.008-0.051v-0.34l0.105-0.539
		c0.002-0.014,0.006-0.025,0.011-0.035l0.135-0.305c0.006-0.014,0.014-0.027,0.025-0.039l0.123-0.15l-0.062-0.74l0,0l0,0
		c-0.004-0.043,0.011-0.088,0.039-0.123l0.169-0.203l1.277-1.746l0.378-0.449l0.353-0.32c0.011-0.008,0.024-0.018,0.038-0.025
		l0.25-0.125l0.49-0.424c0.026-0.021,0.055-0.035,0.086-0.041c0.03-0.004,0.062,0,0.091,0.014l0.473,0.201
		c0.024,0.012,0.046,0.027,0.062,0.047l0.169,0.203l0.536,0.801l0.417,0.322c0.011,0.008,0.022,0.018,0.032,0.029l0.595,0.785
		l0.292,0.023l1.264-1.135c0.009-0.008,0.018-0.014,0.028-0.021l0.908-0.518l0.787-1.312c0.006-0.012,0.013-0.02,0.021-0.029
		l3.037-3.305c0.015-0.016,0.031-0.029,0.051-0.039l0.269-0.135c0.024-0.012,0.05-0.018,0.076-0.018h0.237l0,0
		c0.018,0,0.033,0.01,0.051,0.016c0.017,0.006,0.034,0.006,0.051,0.018l0,0l0,0l0.055,0.041l0.08,0.061
		c0.015,0.01,0.028,0.025,0.039,0.041l0.137,0.203l0.198,0.363l0.152,0.15l0.725,0.535l0.088,0.012l0.062-0.047l0.292-1.527
		c0.004-0.012,0.008-0.025,0.012-0.037l0.203-0.439c0.01-0.021,0.024-0.039,0.042-0.057l0.267-0.236l0.157-0.527l0.098-0.398
		l0.062-0.148l0.05-0.113c0.009-0.021,0.02-0.039,0.036-0.055l0.168-0.166c0.016-0.02,0.035-0.031,0.057-0.039l0.141-0.057
		l0.168-0.152l-0.386-0.314c-0.012-0.01-0.024-0.021-0.034-0.037l-0.489-0.717l-0.448-0.32c-0.031-0.021-0.052-0.051-0.064-0.086
		l-0.152-0.488l-0.867-0.643l-2.139-1.135c-0.055-0.027-0.09-0.086-0.09-0.148v-0.473c0-0.039,0.014-0.076,0.038-0.105l0.135-0.17
		l0.214-0.215c0.018-0.018,0.038-0.031,0.062-0.039l0.372-0.135l0.458-0.094l0.053-0.088l0.5-1.67l0.197-1.127
		c0.003-0.016,0.009-0.031,0.016-0.047l0.292-0.582l0.051-0.33l-0.619-0.65c-0.011-0.014-0.021-0.025-0.028-0.041l-0.135-0.27
		l-0.111-0.326l-0.128-0.289l-0.136-0.531l-0.09-0.113l-0.303-0.152c-0.037-0.018-0.065-0.049-0.082-0.088L50.6,19.24
		c-0.011-0.027-0.015-0.059-0.01-0.086l0,0l0,0l0.003-0.033l0.029-0.203l0.445-1.479c0.005-0.012,0.012-0.027,0.019-0.041
		l0.945-1.518c0.015-0.025,0.037-0.045,0.063-0.059l0.725-0.396l0.559-0.496l0.147-0.471V14.18c0-0.029,0.007-0.059,0.021-0.082
		l0.135-0.238c0.007-0.014,0.018-0.023,0.028-0.033l0.202-0.203l0.23-0.158c0.036-0.021,0.079-0.033,0.119-0.025l0.203,0.033
		c0.031,0.006,0.06,0.018,0.084,0.039l0.199,0.172l0.082,0.016l0.11-0.09l0.224-0.223l0.182-0.279
		c0.008-0.012,0.019-0.025,0.031-0.035l0.203-0.17c0.019-0.016,0.042-0.029,0.067-0.033l0.271-0.068l0.301-0.033l0.345-0.145
		l0.243-0.305l0.179-0.301l0.229-0.787l0.536-4.297c0.001-0.016,0.005-0.029,0.012-0.043l0.168-0.406
		c0.017-0.037,0.047-0.07,0.085-0.086l0.468-0.221l0.395-0.514l0.26-0.949c0.004-0.014,0.009-0.025,0.016-0.037l0.474-0.844
		l0.832-2.174l0.244-0.486l0.14-0.445l-0.482-0.121h-0.89C59.438,0.607,59.413,0.602,59.388,0.588z"/>
	<g>
		<g>
			<g enable-background="new    ">
				<path fill="#331842" d="M267.4,55.943c0.035-1.816,0.052-3.604,0.052-5.361c0-3.033-0.052-5.979-0.157-8.838
					c1.485-0.117,2.786-0.176,3.904-0.176c2.052,0,3.476,0.199,4.271,0.596c1.223,0.612,1.913,1.439,2.07,2.48
					c0.035,0.268,0.052,0.524,0.052,0.771c0,0.71-0.162,1.325-0.484,1.846c-0.446,0.71-1.236,1.218-2.372,1.523
					c1.267,0.144,2.175,0.485,2.725,1.025c0.463,0.456,0.694,1.107,0.694,1.953c0,0.163-0.009,0.332-0.026,0.508
					c-0.104,1.107-0.574,1.934-1.408,2.48s-1.994,0.922-3.478,1.123c-0.838,0.111-1.821,0.166-2.948,0.166
					C269.413,56.041,268.448,56.009,267.4,55.943z M270.767,43.99l0.092,4.189c1.625-0.064,2.655-0.479,3.092-1.24
					c0.236-0.403,0.354-0.801,0.354-1.191c0-0.325-0.087-0.647-0.262-0.967c-0.306-0.553-1.087-0.83-2.345-0.83
					C271.417,43.951,271.108,43.965,270.767,43.99z M271.016,50.191v3.271c0.201,0.007,0.393,0.01,0.576,0.01
					c1.625,0,2.651-0.332,3.079-0.996c0.236-0.371,0.354-0.706,0.354-1.006c0-0.293-0.114-0.55-0.341-0.771
					c-0.375-0.357-1.249-0.537-2.62-0.537C271.741,50.162,271.392,50.172,271.016,50.191z"/>
				<path fill="#331842" d="M285.335,41.891c3.677,0,5.515,2.344,5.515,7.031c0,4.694-1.969,7.041-5.908,7.041
					s-5.908-2.432-5.908-7.295C279.034,44.15,281.134,41.891,285.335,41.891z M282.715,49.186c-0.009,0.17-0.013,0.332-0.013,0.488
					c0,2.455,0.769,3.682,2.306,3.682c1.633,0,2.45-1.39,2.45-4.17c0-2.779-0.76-4.17-2.279-4.17
					C283.649,45.016,282.828,46.406,282.715,49.186z"/>
				<path fill="#331842" d="M295.147,56.041l0.144-6.055c-1.991-3.138-3.528-5.689-4.611-7.656l3.694-0.283l2.502,5.449
					c1.126-2.617,2.031-4.566,2.712-5.85h3.576c-2.14,3.926-3.677,6.768-4.611,8.525v5.752L295.147,56.041z"/>
				<path fill="#331842" d="M301.868,55.895c1.642-5.56,2.969-10.273,3.982-14.141l4.913-0.059c1.205,4.023,2.585,8.607,4.14,13.75
					l-3.354,0.508l-1.061-3.701h-4.074l-1.101,3.994L301.868,55.895z M310.383,49.508c-0.455-1.406-1.197-3.089-2.228-5.049
					c-0.794,1.647-1.467,3.354-2.017,5.117L310.383,49.508z"/>
				<path fill="#331842" d="M325.37,47.223l-2.908,0.01v-0.264c0-1.529-0.576-2.295-1.729-2.295c-1.231,0-1.847,1.413-1.847,4.238
					c0,3.184,0.646,4.775,1.939,4.775h0.013c1.292-0.006,1.939-0.787,1.939-2.344v-0.967h3.249v0.732
					c0,3.242-1.786,4.938-5.358,5.088c-0.104,0.007-0.209,0.01-0.314,0.01c-3.362,0-5.043-2.408-5.043-7.227
					c0-4.713,1.729-7.07,5.188-7.07c3.257,0,4.886,1.576,4.886,4.727C325.383,46.826,325.379,47.021,325.37,47.223z"/>
				<path fill="#331842" d="M326.039,55.895c1.642-5.56,2.969-10.273,3.982-14.141l4.913-0.059c1.205,4.023,2.585,8.607,4.14,13.75
					l-3.354,0.508l-1.061-3.701h-4.074l-1.101,3.994L326.039,55.895z M334.554,49.508c-0.455-1.406-1.197-3.089-2.228-5.049
					c-0.794,1.647-1.467,3.354-2.017,5.117L334.554,49.508z M331.004,39.879c1.021-0.904,1.86-1.768,2.515-2.588l2.148,1.27
					c-0.926,0.678-1.957,1.508-3.092,2.49L331.004,39.879z"/>
			</g>
		</g>
	</g>
</g>
</svg>
