<?xml version="1.0" encoding="utf-8"?>
<!-- Generator: Adobe Illustrator 16.0.0, SVG Export Plug-In . SVG Version: 6.00 Build 0)  -->
<!DOCTYPE svg PUBLIC "-//W3C//DTD SVG 1.1//EN" "http://www.w3.org/Graphics/SVG/1.1/DTD/svg11.dtd">
<svg version="1.1" id="Capa_1" xmlns="http://www.w3.org/2000/svg" xmlns:xlink="http://www.w3.org/1999/xlink" x="0px" y="0px"
	 width="500.014px" height="172.236px" viewBox="0 0 500.014 172.236" enable-background="new 0 0 500.014 172.236"
	 xml:space="preserve">
<g>
	<g>
		<g>
			<path fill="#3C3C3B" d="M239.857,129.97l1.43-0.125c0.067,0.573,0.225,1.043,0.473,1.41c0.247,0.367,0.631,0.664,1.152,0.891
				c0.521,0.227,1.106,0.34,1.758,0.34c0.578,0,1.088-0.086,1.531-0.258c0.442-0.172,0.772-0.407,0.988-0.707
				c0.216-0.3,0.324-0.626,0.324-0.98c0-0.359-0.104-0.673-0.312-0.941c-0.208-0.269-0.552-0.493-1.031-0.676
				c-0.308-0.12-0.987-0.306-2.039-0.559c-1.052-0.253-1.789-0.491-2.211-0.715c-0.547-0.286-0.955-0.642-1.223-1.066
				c-0.269-0.425-0.402-0.899-0.402-1.426c0-0.578,0.164-1.118,0.492-1.621s0.807-0.884,1.438-1.145
				c0.63-0.261,1.331-0.391,2.102-0.391c0.849,0,1.598,0.137,2.246,0.41s1.147,0.676,1.496,1.207
				c0.349,0.531,0.536,1.133,0.562,1.805l-1.453,0.109c-0.078-0.724-0.343-1.271-0.793-1.641c-0.451-0.37-1.116-0.555-1.996-0.555
				c-0.917,0-1.585,0.168-2.004,0.504c-0.419,0.336-0.629,0.741-0.629,1.215c0,0.411,0.148,0.75,0.445,1.016
				c0.292,0.266,1.053,0.538,2.285,0.816c1.231,0.278,2.077,0.522,2.535,0.73c0.667,0.308,1.159,0.696,1.477,1.168
				c0.317,0.472,0.477,1.015,0.477,1.629c0,0.609-0.175,1.184-0.523,1.723c-0.349,0.539-0.851,0.958-1.504,1.258
				c-0.654,0.3-1.39,0.449-2.207,0.449c-1.037,0-1.905-0.151-2.605-0.453c-0.701-0.302-1.25-0.757-1.648-1.363
				S239.878,130.735,239.857,129.97z"/>
			<path fill="#3C3C3B" d="M256.545,130.978l1.453,0.18c-0.229,0.849-0.654,1.508-1.273,1.977c-0.62,0.469-1.412,0.703-2.375,0.703
				c-1.214,0-2.176-0.374-2.887-1.121s-1.066-1.796-1.066-3.145c0-1.396,0.359-2.479,1.078-3.25s1.651-1.156,2.797-1.156
				c1.109,0,2.016,0.378,2.719,1.133s1.055,1.817,1.055,3.188c0,0.083-0.003,0.208-0.008,0.375h-6.188
				c0.052,0.911,0.31,1.609,0.773,2.094c0.463,0.484,1.042,0.727,1.734,0.727c0.516,0,0.956-0.136,1.32-0.406
				C256.042,132.004,256.331,131.571,256.545,130.978z M251.928,128.704h4.633c-0.062-0.698-0.24-1.222-0.531-1.57
				c-0.448-0.542-1.029-0.812-1.742-0.812c-0.646,0-1.189,0.216-1.629,0.648C252.218,127.402,251.975,127.98,251.928,128.704z"/>
			<path fill="#3C3C3B" d="M259.764,133.649v-8.297h1.266v1.18c0.609-0.911,1.489-1.367,2.641-1.367c0.5,0,0.959,0.09,1.379,0.27
				c0.419,0.18,0.733,0.415,0.941,0.707c0.208,0.292,0.354,0.638,0.438,1.039c0.052,0.261,0.078,0.716,0.078,1.367v5.102H265.1
				v-5.047c0-0.573-0.055-1.001-0.164-1.285s-0.304-0.511-0.582-0.68c-0.279-0.169-0.605-0.254-0.98-0.254
				c-0.599,0-1.116,0.19-1.551,0.57c-0.435,0.38-0.652,1.102-0.652,2.164v4.531H259.764z"/>
			<path fill="#3C3C3B" d="M271.732,132.392l0.203,1.242c-0.396,0.083-0.75,0.125-1.062,0.125c-0.511,0-0.906-0.081-1.188-0.242
				s-0.479-0.374-0.594-0.637c-0.115-0.263-0.172-0.816-0.172-1.66v-4.773h-1.031v-1.094h1.031v-2.055l1.398-0.844v2.898h1.414
				v1.094h-1.414v4.852c0,0.401,0.024,0.659,0.074,0.773c0.049,0.114,0.13,0.206,0.242,0.273c0.112,0.067,0.272,0.102,0.48,0.102
				C271.271,132.446,271.477,132.428,271.732,132.392z"/>
			<path fill="#3C3C3B" d="M278.787,130.978l1.453,0.18c-0.229,0.849-0.654,1.508-1.273,1.977c-0.62,0.469-1.412,0.703-2.375,0.703
				c-1.214,0-2.176-0.374-2.887-1.121s-1.066-1.796-1.066-3.145c0-1.396,0.359-2.479,1.078-3.25s1.651-1.156,2.797-1.156
				c1.109,0,2.016,0.378,2.719,1.133s1.055,1.817,1.055,3.188c0,0.083-0.003,0.208-0.008,0.375h-6.188
				c0.052,0.911,0.31,1.609,0.773,2.094c0.463,0.484,1.042,0.727,1.734,0.727c0.516,0,0.956-0.136,1.32-0.406
				C278.284,132.004,278.573,131.571,278.787,130.978z M274.17,128.704h4.633c-0.062-0.698-0.24-1.222-0.531-1.57
				c-0.448-0.542-1.029-0.812-1.742-0.812c-0.646,0-1.189,0.216-1.629,0.648C274.46,127.402,274.217,127.98,274.17,128.704z"/>
			<path fill="#3C3C3B" d="M282.006,133.649v-8.297h1.266v1.18c0.609-0.911,1.489-1.367,2.641-1.367c0.5,0,0.959,0.09,1.379,0.27
				c0.419,0.18,0.733,0.415,0.941,0.707c0.208,0.292,0.354,0.638,0.438,1.039c0.052,0.261,0.078,0.716,0.078,1.367v5.102h-1.406
				v-5.047c0-0.573-0.055-1.001-0.164-1.285s-0.304-0.511-0.582-0.68c-0.279-0.169-0.605-0.254-0.98-0.254
				c-0.599,0-1.116,0.19-1.551,0.57c-0.435,0.38-0.652,1.102-0.652,2.164v4.531H282.006z"/>
			<path fill="#3C3C3B" d="M296.318,130.61l1.383,0.18c-0.151,0.953-0.538,1.699-1.16,2.238c-0.623,0.539-1.387,0.809-2.293,0.809
				c-1.136,0-2.048-0.371-2.738-1.113c-0.69-0.742-1.035-1.806-1.035-3.191c0-0.896,0.148-1.68,0.445-2.352s0.749-1.176,1.355-1.512
				c0.606-0.336,1.267-0.504,1.98-0.504c0.901,0,1.638,0.228,2.211,0.684c0.573,0.456,0.94,1.103,1.102,1.941l-1.367,0.211
				c-0.13-0.558-0.361-0.977-0.691-1.258c-0.331-0.281-0.73-0.422-1.199-0.422c-0.708,0-1.284,0.254-1.727,0.762
				c-0.443,0.508-0.664,1.312-0.664,2.41c0,1.114,0.213,1.925,0.641,2.43c0.427,0.505,0.984,0.758,1.672,0.758
				c0.552,0,1.013-0.169,1.383-0.508C295.985,131.834,296.219,131.313,296.318,130.61z"/>
			<path fill="#3C3C3B" d="M298.912,123.813v-1.617h1.406v1.617H298.912z M298.912,133.649v-8.297h1.406v8.297H298.912z"/>
			<path fill="#3C3C3B" d="M307.873,132.626c-0.521,0.442-1.022,0.755-1.504,0.938c-0.482,0.183-0.999,0.273-1.551,0.273
				c-0.912,0-1.612-0.223-2.102-0.668c-0.49-0.445-0.734-1.015-0.734-1.707c0-0.406,0.092-0.777,0.277-1.113
				c0.185-0.336,0.427-0.605,0.727-0.809c0.299-0.203,0.637-0.356,1.012-0.461c0.276-0.073,0.692-0.144,1.25-0.211
				c1.135-0.136,1.971-0.297,2.508-0.484c0.005-0.192,0.008-0.315,0.008-0.367c0-0.573-0.133-0.977-0.398-1.211
				c-0.359-0.317-0.894-0.477-1.602-0.477c-0.662,0-1.15,0.116-1.465,0.348c-0.315,0.231-0.548,0.642-0.699,1.23l-1.375-0.188
				c0.125-0.589,0.331-1.063,0.617-1.426c0.286-0.362,0.7-0.641,1.242-0.836c0.542-0.195,1.169-0.293,1.883-0.293
				c0.708,0,1.284,0.083,1.727,0.25c0.442,0.167,0.768,0.376,0.977,0.629c0.208,0.253,0.354,0.571,0.438,0.957
				c0.047,0.239,0.07,0.672,0.07,1.297v1.875c0,1.308,0.03,2.134,0.09,2.48c0.06,0.347,0.178,0.679,0.355,0.996h-1.469
				C308.008,133.357,307.915,133.017,307.873,132.626z M307.756,129.485c-0.511,0.208-1.276,0.386-2.297,0.531
				c-0.578,0.083-0.987,0.177-1.227,0.281c-0.24,0.104-0.425,0.257-0.555,0.457c-0.13,0.2-0.195,0.423-0.195,0.668
				c0,0.375,0.142,0.688,0.426,0.938c0.284,0.25,0.699,0.375,1.246,0.375c0.542,0,1.023-0.118,1.445-0.355s0.731-0.562,0.93-0.973
				c0.151-0.317,0.227-0.786,0.227-1.406V129.485z"/>
			<path fill="#3C3C3B" d="M310.795,131.173l1.391-0.219c0.078,0.558,0.295,0.984,0.652,1.281c0.356,0.297,0.855,0.445,1.496,0.445
				c0.646,0,1.125-0.132,1.438-0.395s0.469-0.571,0.469-0.926c0-0.317-0.138-0.567-0.414-0.75c-0.193-0.125-0.672-0.284-1.438-0.477
				c-1.031-0.261-1.746-0.485-2.145-0.676s-0.701-0.453-0.906-0.789c-0.206-0.336-0.309-0.707-0.309-1.113
				c0-0.37,0.084-0.712,0.254-1.027c0.169-0.315,0.399-0.577,0.691-0.785c0.219-0.161,0.517-0.298,0.895-0.41
				c0.377-0.112,0.782-0.168,1.215-0.168c0.651,0,1.223,0.094,1.715,0.281s0.855,0.441,1.09,0.762s0.396,0.749,0.484,1.285
				l-1.375,0.188c-0.062-0.427-0.244-0.761-0.543-1c-0.3-0.239-0.723-0.359-1.27-0.359c-0.646,0-1.107,0.106-1.383,0.32
				c-0.276,0.214-0.414,0.464-0.414,0.75c0,0.183,0.057,0.347,0.172,0.492c0.114,0.151,0.294,0.276,0.539,0.375
				c0.141,0.052,0.555,0.172,1.242,0.359c0.995,0.266,1.688,0.483,2.082,0.652c0.393,0.169,0.702,0.415,0.926,0.738
				c0.224,0.323,0.336,0.724,0.336,1.203c0,0.469-0.137,0.91-0.41,1.324s-0.668,0.734-1.184,0.961s-1.099,0.34-1.75,0.34
				c-1.078,0-1.9-0.224-2.465-0.672C311.312,132.717,310.951,132.053,310.795,131.173z"/>
			<path fill="#3C3C3B" d="M329.186,133.649v-1.047c-0.526,0.823-1.3,1.234-2.32,1.234c-0.662,0-1.27-0.183-1.824-0.547
				s-0.984-0.874-1.289-1.527s-0.457-1.405-0.457-2.254c0-0.828,0.138-1.579,0.414-2.254c0.276-0.675,0.69-1.191,1.242-1.551
				c0.552-0.359,1.169-0.539,1.852-0.539c0.5,0,0.945,0.105,1.336,0.316s0.708,0.485,0.953,0.824v-4.109h1.398v11.453H329.186z
				 M324.74,129.509c0,1.062,0.224,1.856,0.672,2.383c0.448,0.526,0.977,0.789,1.586,0.789c0.614,0,1.137-0.251,1.566-0.754
				s0.645-1.27,0.645-2.301c0-1.136-0.219-1.969-0.656-2.5s-0.977-0.797-1.617-0.797c-0.625,0-1.147,0.255-1.566,0.766
				C324.95,127.605,324.74,128.41,324.74,129.509z"/>
			<path fill="#3C3C3B" d="M338.381,130.978l1.453,0.18c-0.229,0.849-0.654,1.508-1.273,1.977c-0.62,0.469-1.412,0.703-2.375,0.703
				c-1.214,0-2.176-0.374-2.887-1.121s-1.066-1.796-1.066-3.145c0-1.396,0.359-2.479,1.078-3.25s1.651-1.156,2.797-1.156
				c1.109,0,2.016,0.378,2.719,1.133s1.055,1.817,1.055,3.188c0,0.083-0.003,0.208-0.008,0.375h-6.188
				c0.052,0.911,0.31,1.609,0.773,2.094c0.463,0.484,1.042,0.727,1.734,0.727c0.516,0,0.956-0.136,1.32-0.406
				C337.878,132.004,338.167,131.571,338.381,130.978z M333.764,128.704h4.633c-0.062-0.698-0.24-1.222-0.531-1.57
				c-0.448-0.542-1.029-0.812-1.742-0.812c-0.646,0-1.189,0.216-1.629,0.648C334.054,127.402,333.811,127.98,333.764,128.704z"/>
			<path fill="#3C3C3B" d="M345.451,130.399l1.367-0.188c0.036,0.875,0.2,1.474,0.492,1.797c0.292,0.323,0.695,0.484,1.211,0.484
				c0.38,0,0.708-0.087,0.984-0.262c0.276-0.175,0.466-0.411,0.57-0.711c0.104-0.3,0.156-0.777,0.156-1.434v-7.891h1.516v7.805
				c0,0.958-0.116,1.7-0.348,2.227c-0.232,0.526-0.599,0.927-1.102,1.203c-0.503,0.276-1.093,0.414-1.77,0.414
				c-1.005,0-1.775-0.289-2.309-0.867C345.687,132.399,345.43,131.54,345.451,130.399z"/>
			<path fill="#3C3C3B" d="M359.482,133.649v-1.219c-0.646,0.938-1.523,1.406-2.633,1.406c-0.49,0-0.947-0.094-1.371-0.281
				c-0.425-0.188-0.74-0.423-0.945-0.707c-0.206-0.284-0.351-0.632-0.434-1.043c-0.058-0.276-0.086-0.714-0.086-1.312v-5.141h1.406
				v4.602c0,0.734,0.028,1.229,0.086,1.484c0.088,0.37,0.276,0.66,0.562,0.871c0.286,0.211,0.641,0.316,1.062,0.316
				s0.817-0.108,1.188-0.324c0.37-0.216,0.631-0.511,0.785-0.883c0.153-0.372,0.23-0.913,0.23-1.621v-4.445h1.406v8.297H359.482z"/>
			<path fill="#3C3C3B" d="M362.381,131.173l1.391-0.219c0.078,0.558,0.295,0.984,0.652,1.281c0.356,0.297,0.855,0.445,1.496,0.445
				c0.646,0,1.125-0.132,1.438-0.395s0.469-0.571,0.469-0.926c0-0.317-0.138-0.567-0.414-0.75c-0.193-0.125-0.672-0.284-1.438-0.477
				c-1.031-0.261-1.746-0.485-2.145-0.676s-0.701-0.453-0.906-0.789c-0.206-0.336-0.309-0.707-0.309-1.113
				c0-0.37,0.084-0.712,0.254-1.027c0.169-0.315,0.399-0.577,0.691-0.785c0.219-0.161,0.517-0.298,0.895-0.41
				c0.377-0.112,0.782-0.168,1.215-0.168c0.651,0,1.223,0.094,1.715,0.281s0.855,0.441,1.09,0.762s0.396,0.749,0.484,1.285
				l-1.375,0.188c-0.062-0.427-0.244-0.761-0.543-1c-0.3-0.239-0.723-0.359-1.27-0.359c-0.646,0-1.107,0.106-1.383,0.32
				c-0.276,0.214-0.414,0.464-0.414,0.75c0,0.183,0.057,0.347,0.172,0.492c0.114,0.151,0.294,0.276,0.539,0.375
				c0.141,0.052,0.555,0.172,1.242,0.359c0.995,0.266,1.688,0.483,2.082,0.652c0.393,0.169,0.702,0.415,0.926,0.738
				c0.224,0.323,0.336,0.724,0.336,1.203c0,0.469-0.137,0.91-0.41,1.324s-0.668,0.734-1.184,0.961s-1.099,0.34-1.75,0.34
				c-1.078,0-1.9-0.224-2.465-0.672C362.897,132.717,362.537,132.053,362.381,131.173z"/>
			<path fill="#3C3C3B" d="M374.014,132.392l0.203,1.242c-0.396,0.083-0.75,0.125-1.062,0.125c-0.511,0-0.906-0.081-1.188-0.242
				s-0.479-0.374-0.594-0.637c-0.115-0.263-0.172-0.816-0.172-1.66v-4.773h-1.031v-1.094h1.031v-2.055l1.398-0.844v2.898h1.414
				v1.094H372.6v4.852c0,0.401,0.024,0.659,0.074,0.773c0.049,0.114,0.13,0.206,0.242,0.273c0.112,0.067,0.272,0.102,0.48,0.102
				C373.553,132.446,373.758,132.428,374.014,132.392z"/>
			<path fill="#3C3C3B" d="M375.396,123.813v-1.617h1.406v1.617H375.396z M375.396,133.649v-8.297h1.406v8.297H375.396z"/>
			<path fill="#3C3C3B" d="M384.357,130.61l1.383,0.18c-0.151,0.953-0.538,1.699-1.16,2.238c-0.623,0.539-1.387,0.809-2.293,0.809
				c-1.136,0-2.048-0.371-2.738-1.113c-0.69-0.742-1.035-1.806-1.035-3.191c0-0.896,0.148-1.68,0.445-2.352s0.749-1.176,1.355-1.512
				c0.606-0.336,1.267-0.504,1.98-0.504c0.901,0,1.638,0.228,2.211,0.684c0.573,0.456,0.94,1.103,1.102,1.941l-1.367,0.211
				c-0.13-0.558-0.361-0.977-0.691-1.258c-0.331-0.281-0.73-0.422-1.199-0.422c-0.708,0-1.284,0.254-1.727,0.762
				c-0.443,0.508-0.664,1.312-0.664,2.41c0,1.114,0.213,1.925,0.641,2.43c0.427,0.505,0.984,0.758,1.672,0.758
				c0.552,0,1.013-0.169,1.383-0.508C384.024,131.834,384.258,131.313,384.357,130.61z"/>
			<path fill="#3C3C3B" d="M386.951,123.813v-1.617h1.406v1.617H386.951z M386.951,133.649v-8.297h1.406v8.297H386.951z"/>
			<path fill="#3C3C3B" d="M395.912,132.626c-0.521,0.442-1.022,0.755-1.504,0.938c-0.482,0.183-0.999,0.273-1.551,0.273
				c-0.912,0-1.612-0.223-2.102-0.668c-0.49-0.445-0.734-1.015-0.734-1.707c0-0.406,0.092-0.777,0.277-1.113
				c0.185-0.336,0.427-0.605,0.727-0.809c0.299-0.203,0.637-0.356,1.012-0.461c0.276-0.073,0.692-0.144,1.25-0.211
				c1.135-0.136,1.971-0.297,2.508-0.484c0.005-0.192,0.008-0.315,0.008-0.367c0-0.573-0.133-0.977-0.398-1.211
				c-0.359-0.317-0.894-0.477-1.602-0.477c-0.662,0-1.15,0.116-1.465,0.348c-0.315,0.231-0.548,0.642-0.699,1.23l-1.375-0.188
				c0.125-0.589,0.331-1.063,0.617-1.426c0.286-0.362,0.7-0.641,1.242-0.836c0.542-0.195,1.169-0.293,1.883-0.293
				c0.708,0,1.284,0.083,1.727,0.25c0.442,0.167,0.768,0.376,0.977,0.629c0.208,0.253,0.354,0.571,0.438,0.957
				c0.047,0.239,0.07,0.672,0.07,1.297v1.875c0,1.308,0.03,2.134,0.09,2.48c0.06,0.347,0.178,0.679,0.355,0.996h-1.469
				C396.047,133.357,395.954,133.017,395.912,132.626z M395.795,129.485c-0.511,0.208-1.276,0.386-2.297,0.531
				c-0.578,0.083-0.987,0.177-1.227,0.281c-0.24,0.104-0.425,0.257-0.555,0.457c-0.13,0.2-0.195,0.423-0.195,0.668
				c0,0.375,0.142,0.688,0.426,0.938c0.284,0.25,0.699,0.375,1.246,0.375c0.542,0,1.023-0.118,1.445-0.355s0.731-0.562,0.93-0.973
				c0.151-0.317,0.227-0.786,0.227-1.406V129.485z"/>
			<path fill="#3C3C3B" d="M403.779,136.845l-0.156-1.32c0.307,0.083,0.575,0.125,0.805,0.125c0.312,0,0.562-0.052,0.75-0.156
				s0.341-0.25,0.461-0.438c0.088-0.141,0.231-0.489,0.43-1.047c0.026-0.078,0.067-0.192,0.125-0.344l-3.148-8.312h1.516
				l1.727,4.805c0.224,0.609,0.424,1.25,0.602,1.922c0.161-0.646,0.354-1.276,0.578-1.891l1.773-4.836h1.406l-3.156,8.438
				c-0.339,0.911-0.602,1.539-0.789,1.883c-0.25,0.464-0.537,0.804-0.859,1.02c-0.323,0.216-0.708,0.324-1.156,0.324
				C404.415,137.017,404.112,136.959,403.779,136.845z"/>
			<path fill="#3C3C3B" d="M416.467,133.649v-11.453h4.32c0.76,0,1.341,0.036,1.742,0.109c0.562,0.094,1.034,0.272,1.414,0.535
				c0.38,0.263,0.686,0.632,0.918,1.105c0.231,0.474,0.348,0.995,0.348,1.562c0,0.974-0.31,1.798-0.93,2.473
				c-0.62,0.675-1.74,1.012-3.359,1.012h-2.938v4.656H416.467z M417.982,127.642h2.961c0.979,0,1.674-0.183,2.086-0.547
				c0.411-0.364,0.617-0.878,0.617-1.539c0-0.479-0.121-0.89-0.363-1.23s-0.562-0.566-0.957-0.676
				c-0.255-0.067-0.727-0.102-1.414-0.102h-2.93V127.642z"/>
			<path fill="#3C3C3B" d="M432.373,132.626c-0.521,0.442-1.022,0.755-1.504,0.938c-0.482,0.183-0.999,0.273-1.551,0.273
				c-0.912,0-1.612-0.223-2.102-0.668c-0.49-0.445-0.734-1.015-0.734-1.707c0-0.406,0.092-0.777,0.277-1.113
				c0.185-0.336,0.427-0.605,0.727-0.809c0.299-0.203,0.637-0.356,1.012-0.461c0.276-0.073,0.692-0.144,1.25-0.211
				c1.135-0.136,1.971-0.297,2.508-0.484c0.005-0.192,0.008-0.315,0.008-0.367c0-0.573-0.133-0.977-0.398-1.211
				c-0.359-0.317-0.894-0.477-1.602-0.477c-0.662,0-1.15,0.116-1.465,0.348c-0.315,0.231-0.548,0.642-0.699,1.23l-1.375-0.188
				c0.125-0.589,0.331-1.063,0.617-1.426c0.286-0.362,0.7-0.641,1.242-0.836c0.542-0.195,1.169-0.293,1.883-0.293
				c0.708,0,1.284,0.083,1.727,0.25c0.442,0.167,0.768,0.376,0.977,0.629c0.208,0.253,0.354,0.571,0.438,0.957
				c0.047,0.239,0.07,0.672,0.07,1.297v1.875c0,1.308,0.03,2.134,0.09,2.48c0.06,0.347,0.178,0.679,0.355,0.996h-1.469
				C432.508,133.357,432.415,133.017,432.373,132.626z M432.256,129.485c-0.511,0.208-1.276,0.386-2.297,0.531
				c-0.578,0.083-0.987,0.177-1.227,0.281c-0.24,0.104-0.425,0.257-0.555,0.457c-0.13,0.2-0.195,0.423-0.195,0.668
				c0,0.375,0.142,0.688,0.426,0.938c0.284,0.25,0.699,0.375,1.246,0.375c0.542,0,1.023-0.118,1.445-0.355s0.731-0.562,0.93-0.973
				c0.151-0.317,0.227-0.786,0.227-1.406V129.485z"/>
			<path fill="#3C3C3B" d="M435.115,133.649v-1.141l5.281-6.062c-0.599,0.031-1.128,0.047-1.586,0.047h-3.383v-1.141h6.781v0.93
				l-4.492,5.266l-0.867,0.961c0.63-0.047,1.221-0.07,1.773-0.07h3.836v1.211H435.115z"/>
			<path fill="#3C3C3B" d="M444.248,126.954v-1.602h1.602v1.602H444.248z M444.248,133.649v-1.602h1.602v1.602H444.248z"/>
			<path fill="#3C3C3B" d="M450.787,133.649l4.398-11.453h1.633l4.688,11.453h-1.727l-1.336-3.469h-4.789l-1.258,3.469H450.787z
				 M454.092,128.946h3.883l-1.195-3.172c-0.365-0.964-0.636-1.755-0.812-2.375c-0.146,0.734-0.352,1.464-0.617,2.188
				L454.092,128.946z"/>
			<path fill="#3C3C3B" d="M462.521,133.649v-8.297h1.266v1.258c0.323-0.589,0.621-0.977,0.895-1.164s0.574-0.281,0.902-0.281
				c0.474,0,0.956,0.151,1.445,0.453l-0.484,1.305c-0.344-0.203-0.688-0.305-1.031-0.305c-0.308,0-0.583,0.093-0.828,0.277
				c-0.245,0.185-0.419,0.441-0.523,0.77c-0.156,0.5-0.234,1.047-0.234,1.641v4.344H462.521z"/>
			<path fill="#3C3C3B" d="M473.279,132.626c-0.521,0.442-1.022,0.755-1.504,0.938c-0.482,0.183-0.999,0.273-1.551,0.273
				c-0.912,0-1.612-0.223-2.102-0.668c-0.49-0.445-0.734-1.015-0.734-1.707c0-0.406,0.092-0.777,0.277-1.113
				c0.185-0.336,0.427-0.605,0.727-0.809c0.299-0.203,0.637-0.356,1.012-0.461c0.276-0.073,0.692-0.144,1.25-0.211
				c1.135-0.136,1.971-0.297,2.508-0.484c0.005-0.192,0.008-0.315,0.008-0.367c0-0.573-0.133-0.977-0.398-1.211
				c-0.359-0.317-0.894-0.477-1.602-0.477c-0.662,0-1.15,0.116-1.465,0.348c-0.315,0.231-0.548,0.642-0.699,1.23l-1.375-0.188
				c0.125-0.589,0.331-1.063,0.617-1.426c0.286-0.362,0.7-0.641,1.242-0.836c0.542-0.195,1.169-0.293,1.883-0.293
				c0.708,0,1.284,0.083,1.727,0.25c0.442,0.167,0.768,0.376,0.977,0.629c0.208,0.253,0.354,0.571,0.438,0.957
				c0.047,0.239,0.07,0.672,0.07,1.297v1.875c0,1.308,0.03,2.134,0.09,2.48c0.06,0.347,0.178,0.679,0.355,0.996h-1.469
				C473.415,133.357,473.321,133.017,473.279,132.626z M473.162,129.485c-0.511,0.208-1.276,0.386-2.297,0.531
				c-0.578,0.083-0.987,0.177-1.227,0.281c-0.24,0.104-0.425,0.257-0.555,0.457c-0.13,0.2-0.195,0.423-0.195,0.668
				c0,0.375,0.142,0.688,0.426,0.938c0.284,0.25,0.699,0.375,1.246,0.375c0.542,0,1.023-0.118,1.445-0.355s0.731-0.562,0.93-0.973
				c0.151-0.317,0.227-0.786,0.227-1.406V129.485z"/>
			<path fill="#3C3C3B" d="M476.764,133.649v-8.297h1.258v1.164c0.26-0.406,0.606-0.733,1.039-0.98
				c0.432-0.247,0.924-0.371,1.477-0.371c0.614,0,1.118,0.128,1.512,0.383c0.393,0.255,0.67,0.612,0.832,1.07
				c0.656-0.969,1.51-1.453,2.562-1.453c0.823,0,1.456,0.228,1.898,0.684c0.442,0.456,0.664,1.157,0.664,2.105v5.695h-1.398v-5.227
				c0-0.562-0.046-0.968-0.137-1.215c-0.091-0.247-0.257-0.446-0.496-0.598c-0.24-0.151-0.521-0.227-0.844-0.227
				c-0.583,0-1.068,0.194-1.453,0.582c-0.386,0.388-0.578,1.009-0.578,1.863v4.82h-1.406v-5.391c0-0.625-0.115-1.094-0.344-1.406
				c-0.229-0.312-0.604-0.469-1.125-0.469c-0.396,0-0.762,0.104-1.098,0.312s-0.58,0.513-0.73,0.914
				c-0.151,0.401-0.227,0.979-0.227,1.734v4.305H476.764z"/>
			<path fill="#3C3C3B" d="M490.1,123.813v-1.617h1.406v1.617H490.1z M490.1,133.649v-8.297h1.406v8.297H490.1z"/>
			<path fill="#3C3C3B" d="M493.084,131.173l1.391-0.219c0.078,0.558,0.295,0.984,0.652,1.281c0.356,0.297,0.855,0.445,1.496,0.445
				c0.646,0,1.125-0.132,1.438-0.395s0.469-0.571,0.469-0.926c0-0.317-0.138-0.567-0.414-0.75c-0.193-0.125-0.672-0.284-1.438-0.477
				c-1.031-0.261-1.746-0.485-2.145-0.676s-0.701-0.453-0.906-0.789c-0.206-0.336-0.309-0.707-0.309-1.113
				c0-0.37,0.084-0.712,0.254-1.027c0.169-0.315,0.399-0.577,0.691-0.785c0.219-0.161,0.517-0.298,0.895-0.41
				c0.377-0.112,0.782-0.168,1.215-0.168c0.651,0,1.223,0.094,1.715,0.281s0.855,0.441,1.09,0.762s0.396,0.749,0.484,1.285
				l-1.375,0.188c-0.062-0.427-0.244-0.761-0.543-1c-0.3-0.239-0.723-0.359-1.27-0.359c-0.646,0-1.107,0.106-1.383,0.32
				c-0.276,0.214-0.414,0.464-0.414,0.75c0,0.183,0.057,0.347,0.172,0.492c0.114,0.151,0.294,0.276,0.539,0.375
				c0.141,0.052,0.555,0.172,1.242,0.359c0.995,0.266,1.688,0.483,2.082,0.652c0.393,0.169,0.702,0.415,0.926,0.738
				c0.224,0.323,0.336,0.724,0.336,1.203c0,0.469-0.137,0.91-0.41,1.324s-0.668,0.734-1.184,0.961s-1.099,0.34-1.75,0.34
				c-1.078,0-1.9-0.224-2.465-0.672C493.601,132.717,493.24,132.053,493.084,131.173z"/>
			<path fill="#3C3C3B" d="M240.326,152.85v-11.453h2.281l2.711,8.109c0.25,0.755,0.432,1.32,0.547,1.695
				c0.13-0.417,0.333-1.028,0.609-1.836l2.742-7.969h2.039v11.453h-1.461v-9.586l-3.328,9.586H245.1l-3.312-9.75v9.75H240.326z"/>
			<path fill="#3C3C3B" d="M258.936,151.826c-0.521,0.442-1.022,0.755-1.504,0.938c-0.482,0.183-0.999,0.273-1.551,0.273
				c-0.912,0-1.612-0.223-2.102-0.668c-0.49-0.445-0.734-1.015-0.734-1.707c0-0.406,0.092-0.777,0.277-1.113
				c0.185-0.336,0.427-0.605,0.727-0.809c0.299-0.203,0.637-0.356,1.012-0.461c0.276-0.073,0.692-0.144,1.25-0.211
				c1.135-0.136,1.971-0.297,2.508-0.484c0.005-0.192,0.008-0.315,0.008-0.367c0-0.573-0.133-0.977-0.398-1.211
				c-0.359-0.317-0.894-0.477-1.602-0.477c-0.662,0-1.15,0.116-1.465,0.348c-0.315,0.231-0.548,0.642-0.699,1.23l-1.375-0.188
				c0.125-0.589,0.331-1.063,0.617-1.426c0.286-0.362,0.7-0.641,1.242-0.836c0.542-0.195,1.169-0.293,1.883-0.293
				c0.708,0,1.284,0.083,1.727,0.25c0.442,0.167,0.768,0.376,0.977,0.629c0.208,0.253,0.354,0.571,0.438,0.957
				c0.047,0.239,0.07,0.672,0.07,1.297v1.875c0,1.308,0.03,2.134,0.09,2.48c0.06,0.347,0.178,0.679,0.355,0.996h-1.469
				C259.071,152.558,258.977,152.217,258.936,151.826z M258.818,148.686c-0.511,0.208-1.276,0.386-2.297,0.531
				c-0.578,0.083-0.987,0.177-1.227,0.281c-0.24,0.104-0.425,0.257-0.555,0.457c-0.13,0.2-0.195,0.423-0.195,0.668
				c0,0.375,0.142,0.688,0.426,0.938c0.284,0.25,0.699,0.375,1.246,0.375c0.542,0,1.023-0.118,1.445-0.355s0.731-0.562,0.93-0.973
				c0.151-0.317,0.227-0.786,0.227-1.406V148.686z"/>
			<path fill="#3C3C3B" d="M267.834,149.811l1.383,0.18c-0.151,0.953-0.538,1.699-1.16,2.238c-0.623,0.539-1.387,0.809-2.293,0.809
				c-1.136,0-2.048-0.371-2.738-1.113c-0.69-0.742-1.035-1.806-1.035-3.191c0-0.896,0.148-1.68,0.445-2.352s0.749-1.176,1.355-1.512
				c0.606-0.336,1.267-0.504,1.98-0.504c0.901,0,1.638,0.228,2.211,0.684c0.573,0.456,0.94,1.103,1.102,1.941l-1.367,0.211
				c-0.13-0.558-0.361-0.977-0.691-1.258c-0.331-0.281-0.73-0.422-1.199-0.422c-0.708,0-1.284,0.254-1.727,0.762
				c-0.443,0.508-0.664,1.312-0.664,2.41c0,1.114,0.213,1.925,0.641,2.43c0.427,0.505,0.984,0.758,1.672,0.758
				c0.552,0,1.013-0.169,1.383-0.508C267.5,151.034,267.735,150.514,267.834,149.811z"/>
			<path fill="#3C3C3B" d="M270.42,152.85v-11.453h1.406v4.109c0.656-0.761,1.484-1.141,2.484-1.141
				c0.614,0,1.148,0.121,1.602,0.363s0.777,0.577,0.973,1.004s0.293,1.047,0.293,1.859v5.258h-1.406v-5.258
				c0-0.703-0.152-1.215-0.457-1.535s-0.736-0.48-1.293-0.48c-0.417,0-0.809,0.108-1.176,0.324s-0.629,0.509-0.785,0.879
				s-0.234,0.88-0.234,1.531v4.539H270.42z"/>
			<path fill="#3C3C3B" d="M284.732,151.826c-0.521,0.442-1.022,0.755-1.504,0.938c-0.482,0.183-0.999,0.273-1.551,0.273
				c-0.912,0-1.612-0.223-2.102-0.668c-0.49-0.445-0.734-1.015-0.734-1.707c0-0.406,0.092-0.777,0.277-1.113
				c0.185-0.336,0.427-0.605,0.727-0.809c0.299-0.203,0.637-0.356,1.012-0.461c0.276-0.073,0.692-0.144,1.25-0.211
				c1.135-0.136,1.971-0.297,2.508-0.484c0.005-0.192,0.008-0.315,0.008-0.367c0-0.573-0.133-0.977-0.398-1.211
				c-0.359-0.317-0.894-0.477-1.602-0.477c-0.662,0-1.15,0.116-1.465,0.348c-0.315,0.231-0.548,0.642-0.699,1.23l-1.375-0.188
				c0.125-0.589,0.331-1.063,0.617-1.426c0.286-0.362,0.7-0.641,1.242-0.836c0.542-0.195,1.169-0.293,1.883-0.293
				c0.708,0,1.284,0.083,1.727,0.25c0.442,0.167,0.768,0.376,0.977,0.629c0.208,0.253,0.354,0.571,0.438,0.957
				c0.047,0.239,0.07,0.672,0.07,1.297v1.875c0,1.308,0.03,2.134,0.09,2.48c0.06,0.347,0.178,0.679,0.355,0.996h-1.469
				C284.868,152.558,284.774,152.217,284.732,151.826z M284.615,148.686c-0.511,0.208-1.276,0.386-2.297,0.531
				c-0.578,0.083-0.987,0.177-1.227,0.281c-0.24,0.104-0.425,0.257-0.555,0.457c-0.13,0.2-0.195,0.423-0.195,0.668
				c0,0.375,0.142,0.688,0.426,0.938c0.284,0.25,0.699,0.375,1.246,0.375c0.542,0,1.023-0.118,1.445-0.355s0.731-0.562,0.93-0.973
				c0.151-0.317,0.227-0.786,0.227-1.406V148.686z"/>
			<path fill="#3C3C3B" d="M293.6,152.85v-1.047c-0.526,0.823-1.3,1.234-2.32,1.234c-0.662,0-1.27-0.183-1.824-0.547
				s-0.984-0.874-1.289-1.527s-0.457-1.405-0.457-2.254c0-0.828,0.138-1.579,0.414-2.254c0.276-0.675,0.69-1.191,1.242-1.551
				c0.552-0.359,1.169-0.539,1.852-0.539c0.5,0,0.945,0.105,1.336,0.316s0.708,0.485,0.953,0.824v-4.109h1.398v11.453H293.6z
				 M289.154,148.709c0,1.062,0.224,1.856,0.672,2.383c0.448,0.526,0.977,0.789,1.586,0.789c0.614,0,1.137-0.251,1.566-0.754
				s0.645-1.27,0.645-2.301c0-1.136-0.219-1.969-0.656-2.5s-0.977-0.797-1.617-0.797c-0.625,0-1.147,0.255-1.566,0.766
				C289.364,146.806,289.154,147.61,289.154,148.709z"/>
			<path fill="#3C3C3B" d="M296.592,148.701c0-1.536,0.427-2.675,1.281-3.414c0.713-0.614,1.583-0.922,2.609-0.922
				c1.141,0,2.073,0.374,2.797,1.121c0.724,0.747,1.086,1.78,1.086,3.098c0,1.067-0.16,1.907-0.48,2.52s-0.787,1.087-1.398,1.426
				c-0.612,0.339-1.28,0.508-2.004,0.508c-1.162,0-2.101-0.372-2.816-1.117C296.95,151.175,296.592,150.103,296.592,148.701z
				 M298.037,148.701c0,1.062,0.231,1.858,0.695,2.387c0.463,0.528,1.047,0.793,1.75,0.793c0.698,0,1.278-0.266,1.742-0.797
				c0.463-0.531,0.695-1.341,0.695-2.43c0-1.026-0.233-1.804-0.699-2.332c-0.466-0.528-1.046-0.793-1.738-0.793
				c-0.703,0-1.287,0.263-1.75,0.789C298.269,146.845,298.037,147.639,298.037,148.701z"/>
			<path fill="#3C3C3B" d="M306.381,152.85v-1.602h1.602v1.602c0,0.589-0.104,1.063-0.312,1.426
				c-0.208,0.362-0.539,0.642-0.992,0.84l-0.391-0.602c0.297-0.13,0.516-0.321,0.656-0.574s0.219-0.616,0.234-1.09H306.381z"/>
			<path fill="#3C3C3B" d="M315.342,152.85v-11.453h1.516v11.453H315.342z"/>
			<path fill="#3C3C3B" d="M319.092,153.537l1.367,0.203c0.057,0.422,0.216,0.729,0.477,0.922c0.349,0.261,0.825,0.391,1.43,0.391
				c0.651,0,1.153-0.13,1.508-0.391c0.354-0.261,0.594-0.625,0.719-1.094c0.073-0.286,0.106-0.888,0.102-1.805
				c-0.615,0.724-1.38,1.086-2.297,1.086c-1.141,0-2.023-0.411-2.648-1.234s-0.938-1.81-0.938-2.961c0-0.792,0.143-1.522,0.43-2.191
				c0.286-0.669,0.702-1.187,1.246-1.551c0.544-0.364,1.184-0.547,1.918-0.547c0.979,0,1.786,0.396,2.422,1.188v-1h1.297v7.172
				c0,1.292-0.132,2.207-0.395,2.746c-0.263,0.539-0.68,0.965-1.25,1.277s-1.272,0.469-2.105,0.469c-0.99,0-1.789-0.223-2.398-0.668
				S319.071,154.433,319.092,153.537z M320.256,148.553c0,1.089,0.216,1.883,0.648,2.383c0.432,0.5,0.974,0.75,1.625,0.75
				c0.646,0,1.188-0.249,1.625-0.746s0.656-1.277,0.656-2.34c0-1.016-0.226-1.781-0.676-2.297c-0.451-0.516-0.994-0.773-1.629-0.773
				c-0.625,0-1.156,0.254-1.594,0.762S320.256,147.553,320.256,148.553z"/>
			<path fill="#3C3C3B" d="M333.686,152.85v-1.219c-0.646,0.938-1.523,1.406-2.633,1.406c-0.49,0-0.947-0.094-1.371-0.281
				c-0.425-0.188-0.74-0.423-0.945-0.707c-0.206-0.284-0.351-0.632-0.434-1.043c-0.058-0.276-0.086-0.714-0.086-1.312v-5.141h1.406
				v4.602c0,0.734,0.028,1.229,0.086,1.484c0.088,0.37,0.276,0.66,0.562,0.871c0.286,0.211,0.641,0.316,1.062,0.316
				s0.817-0.108,1.188-0.324c0.37-0.216,0.631-0.511,0.785-0.883c0.153-0.372,0.23-0.913,0.23-1.621v-4.445h1.406v8.297H333.686z"/>
			<path fill="#3C3C3B" d="M342.561,151.826c-0.521,0.442-1.022,0.755-1.504,0.938c-0.482,0.183-0.999,0.273-1.551,0.273
				c-0.912,0-1.612-0.223-2.102-0.668c-0.49-0.445-0.734-1.015-0.734-1.707c0-0.406,0.092-0.777,0.277-1.113
				c0.185-0.336,0.427-0.605,0.727-0.809c0.299-0.203,0.637-0.356,1.012-0.461c0.276-0.073,0.692-0.144,1.25-0.211
				c1.135-0.136,1.971-0.297,2.508-0.484c0.005-0.192,0.008-0.315,0.008-0.367c0-0.573-0.133-0.977-0.398-1.211
				c-0.359-0.317-0.894-0.477-1.602-0.477c-0.662,0-1.15,0.116-1.465,0.348c-0.315,0.231-0.548,0.642-0.699,1.23l-1.375-0.188
				c0.125-0.589,0.331-1.063,0.617-1.426c0.286-0.362,0.7-0.641,1.242-0.836c0.542-0.195,1.169-0.293,1.883-0.293
				c0.708,0,1.284,0.083,1.727,0.25c0.442,0.167,0.768,0.376,0.977,0.629c0.208,0.253,0.354,0.571,0.438,0.957
				c0.047,0.239,0.07,0.672,0.07,1.297v1.875c0,1.308,0.03,2.134,0.09,2.48c0.06,0.347,0.178,0.679,0.355,0.996h-1.469
				C342.696,152.558,342.602,152.217,342.561,151.826z M342.443,148.686c-0.511,0.208-1.276,0.386-2.297,0.531
				c-0.578,0.083-0.987,0.177-1.227,0.281c-0.24,0.104-0.425,0.257-0.555,0.457c-0.13,0.2-0.195,0.423-0.195,0.668
				c0,0.375,0.142,0.688,0.426,0.938c0.284,0.25,0.699,0.375,1.246,0.375c0.542,0,1.023-0.118,1.445-0.355s0.731-0.562,0.93-0.973
				c0.151-0.317,0.227-0.786,0.227-1.406V148.686z"/>
			<path fill="#3C3C3B" d="M346.045,152.85v-8.297h1.266v1.18c0.609-0.911,1.489-1.367,2.641-1.367c0.5,0,0.959,0.09,1.379,0.27
				c0.419,0.18,0.733,0.415,0.941,0.707c0.208,0.292,0.354,0.638,0.438,1.039c0.052,0.261,0.078,0.716,0.078,1.367v5.102h-1.406
				v-5.047c0-0.573-0.055-1.001-0.164-1.285s-0.304-0.511-0.582-0.68c-0.279-0.169-0.605-0.254-0.98-0.254
				c-0.599,0-1.116,0.19-1.551,0.57c-0.435,0.38-0.652,1.102-0.652,2.164v4.531H346.045z"/>
			<path fill="#3C3C3B" d="M354.42,148.701c0-1.536,0.427-2.675,1.281-3.414c0.713-0.614,1.583-0.922,2.609-0.922
				c1.141,0,2.073,0.374,2.797,1.121c0.724,0.747,1.086,1.78,1.086,3.098c0,1.067-0.16,1.907-0.48,2.52s-0.787,1.087-1.398,1.426
				c-0.612,0.339-1.28,0.508-2.004,0.508c-1.162,0-2.101-0.372-2.816-1.117C354.778,151.175,354.42,150.103,354.42,148.701z
				 M355.865,148.701c0,1.062,0.231,1.858,0.695,2.387c0.463,0.528,1.047,0.793,1.75,0.793c0.698,0,1.278-0.266,1.742-0.797
				c0.463-0.531,0.695-1.341,0.695-2.43c0-1.026-0.233-1.804-0.699-2.332c-0.466-0.528-1.046-0.793-1.738-0.793
				c-0.703,0-1.287,0.263-1.75,0.789C356.097,146.845,355.865,147.639,355.865,148.701z"/>
			<path fill="#3C3C3B" d="M364.209,152.85v-1.602h1.602v1.602c0,0.589-0.104,1.063-0.312,1.426
				c-0.208,0.362-0.539,0.642-0.992,0.84l-0.391-0.602c0.297-0.13,0.516-0.321,0.656-0.574s0.219-0.616,0.234-1.09H364.209z"/>
			<path fill="#3C3C3B" d="M372.865,152.85v-11.453h2.281l2.711,8.109c0.25,0.755,0.432,1.32,0.547,1.695
				c0.13-0.417,0.333-1.028,0.609-1.836l2.742-7.969h2.039v11.453h-1.461v-9.586l-3.328,9.586h-1.367l-3.312-9.75v9.75H372.865z"/>
			<path fill="#3C3C3B" d="M391.475,151.826c-0.521,0.442-1.022,0.755-1.504,0.938c-0.482,0.183-0.999,0.273-1.551,0.273
				c-0.912,0-1.612-0.223-2.102-0.668c-0.49-0.445-0.734-1.015-0.734-1.707c0-0.406,0.092-0.777,0.277-1.113
				c0.185-0.336,0.427-0.605,0.727-0.809c0.299-0.203,0.637-0.356,1.012-0.461c0.276-0.073,0.692-0.144,1.25-0.211
				c1.135-0.136,1.971-0.297,2.508-0.484c0.005-0.192,0.008-0.315,0.008-0.367c0-0.573-0.133-0.977-0.398-1.211
				c-0.359-0.317-0.894-0.477-1.602-0.477c-0.662,0-1.15,0.116-1.465,0.348c-0.315,0.231-0.548,0.642-0.699,1.23l-1.375-0.188
				c0.125-0.589,0.331-1.063,0.617-1.426c0.286-0.362,0.7-0.641,1.242-0.836c0.542-0.195,1.169-0.293,1.883-0.293
				c0.708,0,1.284,0.083,1.727,0.25c0.442,0.167,0.768,0.376,0.977,0.629c0.208,0.253,0.354,0.571,0.438,0.957
				c0.047,0.239,0.07,0.672,0.07,1.297v1.875c0,1.308,0.03,2.134,0.09,2.48c0.06,0.347,0.178,0.679,0.355,0.996h-1.469
				C391.61,152.558,391.516,152.217,391.475,151.826z M391.357,148.686c-0.511,0.208-1.276,0.386-2.297,0.531
				c-0.578,0.083-0.987,0.177-1.227,0.281c-0.24,0.104-0.425,0.257-0.555,0.457c-0.13,0.2-0.195,0.423-0.195,0.668
				c0,0.375,0.142,0.688,0.426,0.938c0.284,0.25,0.699,0.375,1.246,0.375c0.542,0,1.023-0.118,1.445-0.355s0.731-0.562,0.93-0.973
				c0.151-0.317,0.227-0.786,0.227-1.406V148.686z"/>
			<path fill="#3C3C3B" d="M394.943,152.85v-8.297h1.266v1.258c0.323-0.589,0.621-0.977,0.895-1.164s0.574-0.281,0.902-0.281
				c0.474,0,0.956,0.151,1.445,0.453l-0.484,1.305c-0.344-0.203-0.688-0.305-1.031-0.305c-0.308,0-0.583,0.093-0.828,0.277
				c-0.245,0.185-0.419,0.441-0.523,0.77c-0.156,0.5-0.234,1.047-0.234,1.641v4.344H394.943z"/>
			<path fill="#3C3C3B" d="M400.709,143.521l1.039-2.188h1.844l-1.719,2.188H400.709z M400.779,152.85v-8.297h1.406v8.297H400.779z"
				/>
			<path fill="#3C3C3B" d="M410.146,151.826c-0.521,0.442-1.022,0.755-1.504,0.938c-0.482,0.183-0.999,0.273-1.551,0.273
				c-0.912,0-1.612-0.223-2.102-0.668c-0.49-0.445-0.734-1.015-0.734-1.707c0-0.406,0.092-0.777,0.277-1.113
				c0.185-0.336,0.427-0.605,0.727-0.809c0.299-0.203,0.637-0.356,1.012-0.461c0.276-0.073,0.692-0.144,1.25-0.211
				c1.135-0.136,1.971-0.297,2.508-0.484c0.005-0.192,0.008-0.315,0.008-0.367c0-0.573-0.133-0.977-0.398-1.211
				c-0.359-0.317-0.894-0.477-1.602-0.477c-0.662,0-1.15,0.116-1.465,0.348c-0.315,0.231-0.548,0.642-0.699,1.23l-1.375-0.188
				c0.125-0.589,0.331-1.063,0.617-1.426c0.286-0.362,0.7-0.641,1.242-0.836c0.542-0.195,1.169-0.293,1.883-0.293
				c0.708,0,1.284,0.083,1.727,0.25c0.442,0.167,0.768,0.376,0.977,0.629c0.208,0.253,0.354,0.571,0.438,0.957
				c0.047,0.239,0.07,0.672,0.07,1.297v1.875c0,1.308,0.03,2.134,0.09,2.48c0.06,0.347,0.178,0.679,0.355,0.996h-1.469
				C410.282,152.558,410.188,152.217,410.146,151.826z M410.029,148.686c-0.511,0.208-1.276,0.386-2.297,0.531
				c-0.578,0.083-0.987,0.177-1.227,0.281c-0.24,0.104-0.425,0.257-0.555,0.457c-0.13,0.2-0.195,0.423-0.195,0.668
				c0,0.375,0.142,0.688,0.426,0.938c0.284,0.25,0.699,0.375,1.246,0.375c0.542,0,1.023-0.118,1.445-0.355s0.731-0.562,0.93-0.973
				c0.151-0.317,0.227-0.786,0.227-1.406V148.686z"/>
			<path fill="#3C3C3B" d="M418.193,152.85v-11.453h4.297c0.875,0,1.577,0.116,2.105,0.348c0.528,0.231,0.942,0.589,1.242,1.07
				c0.299,0.481,0.449,0.985,0.449,1.512c0,0.489-0.133,0.95-0.398,1.383s-0.667,0.781-1.203,1.047
				c0.692,0.203,1.225,0.55,1.598,1.039c0.372,0.489,0.559,1.067,0.559,1.734c0,0.536-0.113,1.035-0.34,1.496
				s-0.507,0.816-0.84,1.066c-0.333,0.25-0.751,0.438-1.254,0.566c-0.503,0.128-1.119,0.191-1.848,0.191H418.193z M419.709,146.209
				h2.477c0.672,0,1.153-0.044,1.445-0.133c0.385-0.114,0.676-0.305,0.871-0.57s0.293-0.599,0.293-1c0-0.38-0.091-0.715-0.273-1.004
				c-0.183-0.289-0.443-0.487-0.781-0.594c-0.339-0.106-0.919-0.16-1.742-0.16h-2.289V146.209z M419.709,151.498h2.852
				c0.489,0,0.833-0.019,1.031-0.055c0.349-0.062,0.641-0.167,0.875-0.312s0.427-0.358,0.578-0.637
				c0.151-0.278,0.227-0.601,0.227-0.965c0-0.427-0.109-0.798-0.328-1.113s-0.522-0.536-0.91-0.664
				c-0.388-0.128-0.947-0.191-1.676-0.191h-2.648V151.498z"/>
			<path fill="#3C3C3B" d="M428.225,148.701c0-1.536,0.427-2.675,1.281-3.414c0.713-0.614,1.583-0.922,2.609-0.922
				c1.141,0,2.073,0.374,2.797,1.121c0.724,0.747,1.086,1.78,1.086,3.098c0,1.067-0.16,1.907-0.48,2.52s-0.787,1.087-1.398,1.426
				c-0.612,0.339-1.28,0.508-2.004,0.508c-1.162,0-2.101-0.372-2.816-1.117C428.583,151.175,428.225,150.103,428.225,148.701z
				 M429.67,148.701c0,1.062,0.231,1.858,0.695,2.387c0.463,0.528,1.047,0.793,1.75,0.793c0.698,0,1.278-0.266,1.742-0.797
				c0.463-0.531,0.695-1.341,0.695-2.43c0-1.026-0.233-1.804-0.699-2.332c-0.466-0.528-1.046-0.793-1.738-0.793
				c-0.703,0-1.287,0.263-1.75,0.789C429.901,146.845,429.67,147.639,429.67,148.701z"/>
			<path fill="#3C3C3B" d="M437.646,152.85v-8.297h1.266v1.18c0.609-0.911,1.489-1.367,2.641-1.367c0.5,0,0.959,0.09,1.379,0.27
				c0.419,0.18,0.733,0.415,0.941,0.707c0.208,0.292,0.354,0.638,0.438,1.039c0.052,0.261,0.078,0.716,0.078,1.367v5.102h-1.406
				v-5.047c0-0.573-0.055-1.001-0.164-1.285s-0.304-0.511-0.582-0.68c-0.279-0.169-0.605-0.254-0.98-0.254
				c-0.599,0-1.116,0.19-1.551,0.57c-0.435,0.38-0.652,1.102-0.652,2.164v4.531H437.646z"/>
			<path fill="#3C3C3B" d="M446.553,143.014v-1.617h1.406v1.617H446.553z M446.553,152.85v-8.297h1.406v8.297H446.553z"/>
			<path fill="#3C3C3B" d="M453.17,151.592l0.203,1.242c-0.396,0.083-0.75,0.125-1.062,0.125c-0.511,0-0.906-0.081-1.188-0.242
				s-0.479-0.374-0.594-0.637c-0.115-0.263-0.172-0.816-0.172-1.66v-4.773h-1.031v-1.094h1.031v-2.055l1.398-0.844v2.898h1.414
				v1.094h-1.414v4.852c0,0.401,0.024,0.659,0.074,0.773c0.049,0.114,0.13,0.206,0.242,0.273c0.112,0.067,0.272,0.102,0.48,0.102
				C452.709,151.646,452.915,151.628,453.17,151.592z"/>
			<path fill="#3C3C3B" d="M459.959,151.826c-0.521,0.442-1.022,0.755-1.504,0.938c-0.482,0.183-0.999,0.273-1.551,0.273
				c-0.912,0-1.612-0.223-2.102-0.668c-0.49-0.445-0.734-1.015-0.734-1.707c0-0.406,0.092-0.777,0.277-1.113
				c0.185-0.336,0.427-0.605,0.727-0.809c0.299-0.203,0.637-0.356,1.012-0.461c0.276-0.073,0.692-0.144,1.25-0.211
				c1.135-0.136,1.971-0.297,2.508-0.484c0.005-0.192,0.008-0.315,0.008-0.367c0-0.573-0.133-0.977-0.398-1.211
				c-0.359-0.317-0.894-0.477-1.602-0.477c-0.662,0-1.15,0.116-1.465,0.348c-0.315,0.231-0.548,0.642-0.699,1.23l-1.375-0.188
				c0.125-0.589,0.331-1.063,0.617-1.426c0.286-0.362,0.7-0.641,1.242-0.836c0.542-0.195,1.169-0.293,1.883-0.293
				c0.708,0,1.284,0.083,1.727,0.25c0.442,0.167,0.768,0.376,0.977,0.629c0.208,0.253,0.354,0.571,0.438,0.957
				c0.047,0.239,0.07,0.672,0.07,1.297v1.875c0,1.308,0.03,2.134,0.09,2.48c0.06,0.347,0.178,0.679,0.355,0.996h-1.469
				C460.094,152.558,460,152.217,459.959,151.826z M459.842,148.686c-0.511,0.208-1.276,0.386-2.297,0.531
				c-0.578,0.083-0.987,0.177-1.227,0.281c-0.24,0.104-0.425,0.257-0.555,0.457c-0.13,0.2-0.195,0.423-0.195,0.668
				c0,0.375,0.142,0.688,0.426,0.938c0.284,0.25,0.699,0.375,1.246,0.375c0.542,0,1.023-0.118,1.445-0.355s0.731-0.562,0.93-0.973
				c0.151-0.317,0.227-0.786,0.227-1.406V148.686z"/>
			<path fill="#3C3C3B" d="M463.811,152.85v-1.602h1.602v1.602c0,0.589-0.104,1.063-0.312,1.426
				c-0.208,0.362-0.539,0.642-0.992,0.84l-0.391-0.602c0.297-0.13,0.516-0.321,0.656-0.574s0.219-0.616,0.234-1.09H463.811z"/>
			<path fill="#3C3C3B" d="M472.451,152.85v-11.453h1.516v10.102h5.641v1.352H472.451z"/>
			<path fill="#3C3C3B" d="M486.67,152.85v-1.219c-0.646,0.938-1.523,1.406-2.633,1.406c-0.49,0-0.947-0.094-1.371-0.281
				c-0.425-0.188-0.74-0.423-0.945-0.707c-0.206-0.284-0.351-0.632-0.434-1.043c-0.058-0.276-0.086-0.714-0.086-1.312v-5.141h1.406
				v4.602c0,0.734,0.028,1.229,0.086,1.484c0.088,0.37,0.276,0.66,0.562,0.871c0.286,0.211,0.641,0.316,1.062,0.316
				s0.817-0.108,1.188-0.324c0.37-0.216,0.631-0.511,0.785-0.883c0.153-0.372,0.23-0.913,0.23-1.621v-4.445h1.406v8.297H486.67z"/>
			<path fill="#3C3C3B" d="M490.139,143.014v-1.617h1.406v1.617H490.139z M490.139,152.85v-8.297h1.406v8.297H490.139z"/>
			<path fill="#3C3C3B" d="M493.123,150.373l1.391-0.219c0.078,0.558,0.295,0.984,0.652,1.281c0.356,0.297,0.855,0.445,1.496,0.445
				c0.646,0,1.125-0.132,1.438-0.395s0.469-0.571,0.469-0.926c0-0.317-0.138-0.567-0.414-0.75c-0.193-0.125-0.672-0.284-1.438-0.477
				c-1.031-0.261-1.746-0.485-2.145-0.676s-0.701-0.453-0.906-0.789c-0.206-0.336-0.309-0.707-0.309-1.113
				c0-0.37,0.084-0.712,0.254-1.027c0.169-0.315,0.399-0.577,0.691-0.785c0.219-0.161,0.517-0.298,0.895-0.41
				c0.377-0.112,0.782-0.168,1.215-0.168c0.651,0,1.223,0.094,1.715,0.281s0.855,0.441,1.09,0.762s0.396,0.749,0.484,1.285
				l-1.375,0.188c-0.062-0.427-0.244-0.761-0.543-1c-0.3-0.239-0.723-0.359-1.27-0.359c-0.646,0-1.107,0.106-1.383,0.32
				c-0.276,0.214-0.414,0.464-0.414,0.75c0,0.183,0.057,0.347,0.172,0.492c0.114,0.151,0.294,0.276,0.539,0.375
				c0.141,0.052,0.555,0.172,1.242,0.359c0.995,0.266,1.688,0.483,2.082,0.652c0.393,0.169,0.702,0.415,0.926,0.738
				c0.224,0.323,0.336,0.724,0.336,1.203c0,0.469-0.137,0.91-0.41,1.324s-0.668,0.734-1.184,0.961s-1.099,0.34-1.75,0.34
				c-1.078,0-1.9-0.224-2.465-0.672C493.64,151.917,493.279,151.253,493.123,150.373z"/>
			<path fill="#3C3C3B" d="M240.373,172.049v-11.453h4.32c0.76,0,1.341,0.036,1.742,0.109c0.562,0.094,1.034,0.272,1.414,0.535
				c0.38,0.263,0.686,0.632,0.918,1.105c0.231,0.474,0.348,0.995,0.348,1.562c0,0.974-0.31,1.798-0.93,2.473
				c-0.62,0.675-1.74,1.012-3.359,1.012h-2.938v4.656H240.373z M241.889,166.041h2.961c0.979,0,1.674-0.183,2.086-0.547
				c0.411-0.364,0.617-0.878,0.617-1.539c0-0.479-0.121-0.89-0.363-1.23s-0.562-0.566-0.957-0.676
				c-0.255-0.067-0.727-0.102-1.414-0.102h-2.93V166.041z"/>
			<path fill="#3C3C3B" d="M256.545,169.377l1.453,0.18c-0.229,0.849-0.654,1.508-1.273,1.977c-0.62,0.469-1.412,0.703-2.375,0.703
				c-1.214,0-2.176-0.374-2.887-1.121s-1.066-1.796-1.066-3.145c0-1.396,0.359-2.479,1.078-3.25s1.651-1.156,2.797-1.156
				c1.109,0,2.016,0.378,2.719,1.133s1.055,1.817,1.055,3.188c0,0.083-0.003,0.208-0.008,0.375h-6.188
				c0.052,0.911,0.31,1.609,0.773,2.094c0.463,0.484,1.042,0.727,1.734,0.727c0.516,0,0.956-0.136,1.32-0.406
				C256.042,170.403,256.331,169.971,256.545,169.377z M251.928,167.104h4.633c-0.062-0.698-0.24-1.222-0.531-1.57
				c-0.448-0.542-1.029-0.812-1.742-0.812c-0.646,0-1.189,0.216-1.629,0.648C252.218,165.802,251.975,166.38,251.928,167.104z"/>
			<path fill="#3C3C3B" d="M259.201,169.572l1.391-0.219c0.078,0.558,0.295,0.984,0.652,1.281c0.356,0.297,0.855,0.445,1.496,0.445
				c0.646,0,1.125-0.132,1.438-0.395s0.469-0.571,0.469-0.926c0-0.317-0.138-0.567-0.414-0.75c-0.193-0.125-0.672-0.284-1.438-0.477
				c-1.031-0.261-1.746-0.485-2.145-0.676s-0.701-0.453-0.906-0.789c-0.206-0.336-0.309-0.707-0.309-1.113
				c0-0.37,0.084-0.712,0.254-1.027c0.169-0.315,0.399-0.577,0.691-0.785c0.219-0.161,0.517-0.298,0.895-0.41
				c0.377-0.112,0.782-0.168,1.215-0.168c0.651,0,1.223,0.094,1.715,0.281s0.855,0.441,1.09,0.762s0.396,0.749,0.484,1.285
				l-1.375,0.188c-0.062-0.427-0.244-0.761-0.543-1c-0.3-0.239-0.723-0.359-1.27-0.359c-0.646,0-1.107,0.106-1.383,0.32
				c-0.276,0.214-0.414,0.464-0.414,0.75c0,0.183,0.057,0.347,0.172,0.492c0.114,0.151,0.294,0.276,0.539,0.375
				c0.141,0.052,0.555,0.172,1.242,0.359c0.995,0.266,1.688,0.483,2.082,0.652c0.393,0.169,0.702,0.415,0.926,0.738
				c0.224,0.323,0.336,0.724,0.336,1.203c0,0.469-0.137,0.91-0.41,1.324s-0.668,0.734-1.184,0.961s-1.099,0.34-1.75,0.34
				c-1.078,0-1.9-0.224-2.465-0.672C259.718,171.116,259.357,170.452,259.201,169.572z"/>
			<path fill="#3C3C3B" d="M270.834,170.791l0.203,1.242c-0.396,0.083-0.75,0.125-1.062,0.125c-0.511,0-0.906-0.081-1.188-0.242
				s-0.479-0.374-0.594-0.637c-0.115-0.263-0.172-0.816-0.172-1.66v-4.773h-1.031v-1.094h1.031v-2.055l1.398-0.844v2.898h1.414
				v1.094h-1.414v4.852c0,0.401,0.024,0.659,0.074,0.773c0.049,0.114,0.13,0.206,0.242,0.273c0.112,0.067,0.272,0.102,0.48,0.102
				C270.373,170.846,270.579,170.827,270.834,170.791z"/>
			<path fill="#3C3C3B" d="M277.623,171.025c-0.521,0.442-1.022,0.755-1.504,0.938c-0.482,0.183-0.999,0.273-1.551,0.273
				c-0.912,0-1.612-0.223-2.102-0.668c-0.49-0.445-0.734-1.015-0.734-1.707c0-0.406,0.092-0.777,0.277-1.113
				c0.185-0.336,0.427-0.605,0.727-0.809c0.299-0.203,0.637-0.356,1.012-0.461c0.276-0.073,0.692-0.144,1.25-0.211
				c1.135-0.136,1.971-0.297,2.508-0.484c0.005-0.192,0.008-0.315,0.008-0.367c0-0.573-0.133-0.977-0.398-1.211
				c-0.359-0.317-0.894-0.477-1.602-0.477c-0.662,0-1.15,0.116-1.465,0.348c-0.315,0.231-0.548,0.642-0.699,1.23l-1.375-0.188
				c0.125-0.589,0.331-1.063,0.617-1.426c0.286-0.362,0.7-0.641,1.242-0.836c0.542-0.195,1.169-0.293,1.883-0.293
				c0.708,0,1.284,0.083,1.727,0.25c0.442,0.167,0.768,0.376,0.977,0.629c0.208,0.253,0.354,0.571,0.438,0.957
				c0.047,0.239,0.07,0.672,0.07,1.297v1.875c0,1.308,0.03,2.134,0.09,2.48c0.06,0.347,0.178,0.679,0.355,0.996h-1.469
				C277.758,171.757,277.665,171.416,277.623,171.025z M277.506,167.885c-0.511,0.208-1.276,0.386-2.297,0.531
				c-0.578,0.083-0.987,0.177-1.227,0.281c-0.24,0.104-0.425,0.257-0.555,0.457c-0.13,0.2-0.195,0.423-0.195,0.668
				c0,0.375,0.142,0.688,0.426,0.938c0.284,0.25,0.699,0.375,1.246,0.375c0.542,0,1.023-0.118,1.445-0.355s0.731-0.562,0.93-0.973
				c0.151-0.317,0.227-0.786,0.227-1.406V167.885z"/>
			<path fill="#3C3C3B" d="M281.107,172.049v-8.297h1.266v1.18c0.609-0.911,1.489-1.367,2.641-1.367c0.5,0,0.959,0.09,1.379,0.27
				c0.419,0.18,0.733,0.415,0.941,0.707c0.208,0.292,0.354,0.638,0.438,1.039c0.052,0.261,0.078,0.716,0.078,1.367v5.102h-1.406
				v-5.047c0-0.573-0.055-1.001-0.164-1.285s-0.304-0.511-0.582-0.68c-0.279-0.169-0.605-0.254-0.98-0.254
				c-0.599,0-1.116,0.19-1.551,0.57c-0.435,0.38-0.652,1.102-0.652,2.164v4.531H281.107z"/>
			<path fill="#3C3C3B" d="M295.42,171.025c-0.521,0.442-1.022,0.755-1.504,0.938c-0.482,0.183-0.999,0.273-1.551,0.273
				c-0.912,0-1.612-0.223-2.102-0.668c-0.49-0.445-0.734-1.015-0.734-1.707c0-0.406,0.092-0.777,0.277-1.113
				c0.185-0.336,0.427-0.605,0.727-0.809c0.299-0.203,0.637-0.356,1.012-0.461c0.276-0.073,0.692-0.144,1.25-0.211
				c1.135-0.136,1.971-0.297,2.508-0.484c0.005-0.192,0.008-0.315,0.008-0.367c0-0.573-0.133-0.977-0.398-1.211
				c-0.359-0.317-0.894-0.477-1.602-0.477c-0.662,0-1.15,0.116-1.465,0.348c-0.315,0.231-0.548,0.642-0.699,1.23l-1.375-0.188
				c0.125-0.589,0.331-1.063,0.617-1.426c0.286-0.362,0.7-0.641,1.242-0.836c0.542-0.195,1.169-0.293,1.883-0.293
				c0.708,0,1.284,0.083,1.727,0.25c0.442,0.167,0.768,0.376,0.977,0.629c0.208,0.253,0.354,0.571,0.438,0.957
				c0.047,0.239,0.07,0.672,0.07,1.297v1.875c0,1.308,0.03,2.134,0.09,2.48c0.06,0.347,0.178,0.679,0.355,0.996h-1.469
				C295.555,171.757,295.461,171.416,295.42,171.025z M295.303,167.885c-0.511,0.208-1.276,0.386-2.297,0.531
				c-0.578,0.083-0.987,0.177-1.227,0.281c-0.24,0.104-0.425,0.257-0.555,0.457c-0.13,0.2-0.195,0.423-0.195,0.668
				c0,0.375,0.142,0.688,0.426,0.938c0.284,0.25,0.699,0.375,1.246,0.375c0.542,0,1.023-0.118,1.445-0.355s0.731-0.562,0.93-0.973
				c0.151-0.317,0.227-0.786,0.227-1.406V167.885z"/>
			<path fill="#3C3C3B" d="M299.303,172.049v-1.602h1.602v1.602H299.303z"/>
		</g>
	</g>
	<path fill="#F39200" d="M4.603,3.297L4.216,3.98l0.094,0.824c0.001,0.012,0.001,0.023,0,0.037L4.009,7.996l0.1,0.895v0.187
		c0,0.017-0.002,0.029-0.006,0.045L3.946,9.719l0.292,1.104l0.167,0.533l0.04,0.265c0.004,0.03,0,0.061-0.013,0.09l-0.1,0.236
		c-0.01,0.021-0.025,0.042-0.043,0.06l-0.336,0.302l-0.58,0.38l-0.099,0.097l-0.036,0.093L3.296,13.2
		c0.005,0.032,0.002,0.063-0.01,0.094l-0.067,0.169c-0.008,0.021-0.021,0.04-0.037,0.058l-0.237,0.236L2.122,14.41l-0.313,0.282
		l-0.292,0.453l-0.117,0.237L1.34,15.647v0.42l0.216,0.526l0.632,0.896c0.006,0.011,0.012,0.021,0.017,0.032l0.415,0.989l0.079,0.04
		c0.031,0.016,0.055,0.038,0.073,0.068l0.168,0.303c0.022,0.038,0.027,0.086,0.015,0.127l-0.269,0.98
		c-0.007,0.025-0.02,0.048-0.038,0.065l-0.509,0.574L2.13,20.711l0.382,0.052c0.013,0,0.026,0.005,0.039,0.01l0.338,0.135
		c0.014,0.006,0.027,0.013,0.038,0.021l0.469,0.334c0.039,0.028,0.065,0.071,0.071,0.117l0.06,0.477l0.078,0.066l0.298-0.445
		c0.009-0.016,0.021-0.028,0.034-0.039l0.6-0.48l-0.116-0.757l-0.16-0.35l-0.11-0.397c-0.01-0.035-0.008-0.069,0.005-0.104
		l0.1-0.269c0.021-0.059,0.07-0.1,0.13-0.109l0.202-0.033c0.016-0.003,0.032-0.003,0.046-0.003l0.847,0.104
		c0.028,0.004,0.054,0.014,0.077,0.03l0.413,0.31c0.037,0.029,0.06,0.072,0.062,0.119l0.068,1.013c0.001,0.018,0,0.032-0.003,0.048
		l-0.304,1.451c-0.003,0.012-0.006,0.024-0.012,0.034L5.41,22.856l-0.159,0.646c-0.004,0.016-0.01,0.033-0.02,0.046l-0.26,0.425
		l-0.157,0.439L4.75,24.902l0.097,1.673l0.234,0.155c0.026,0.018,0.047,0.043,0.062,0.073l0.337,0.777
		c0.007,0.017,0.012,0.033,0.013,0.052l0.035,0.371l-0.032,0.567l0.08,0.239l0.237,0.264l0.914,0.094
		c0.048,0.006,0.09,0.031,0.119,0.066l0.278,0.371l0.332,0.15c0.047,0.023,0.084,0.066,0.094,0.118l0.069,0.303
		c0.004,0.019,0.004,0.038,0.002,0.056l-0.034,0.305l-0.07,0.322C7.51,30.883,7.5,30.902,7.484,30.923l-0.303,0.404l-0.209,0.246
		c-0.008,0.009-0.017,0.019-0.026,0.025l-0.271,0.202c-0.011,0.009-0.022,0.017-0.035,0.021L6.256,31.98l-0.114,0.093l-0.085,0.228
		l-0.089,0.358l0.065,0.783L6,33.94c-0.001,0.011-0.003,0.022-0.006,0.034l-0.067,0.237l-0.113,0.23l-0.522,0.701l-0.193,0.323
		C5.09,35.479,5.083,35.489,5.073,35.5l-0.271,0.27L4.58,36.058l-0.358,0.325L3.766,36.7l-0.731,0.351l-0.302,0.08
		c-0.023,0.005-0.046,0.006-0.069,0.002l-0.202-0.034c-0.014-0.001-0.026-0.005-0.04-0.01l-0.235-0.102
		c-0.014-0.006-0.025-0.013-0.036-0.021L1.71,36.628l-0.13-0.075l-0.413-0.096c-0.03-0.008-0.059-0.023-0.082-0.046l-0.167-0.168
		l-0.26-0.293l-0.146-0.088l-0.2-0.084L0,35.719l0.221,0.262l0.368,0.304l0.523,0.262c0.013,0.007,0.025,0.015,0.036,0.022
		l0.541,0.474l0.588,0.656c0.011,0.012,0.018,0.023,0.025,0.038l0.068,0.135c0.011,0.022,0.017,0.05,0.017,0.075v0.154l0,0
		l0.235,0.383l0.14,0.14l0.32,0.191l0.313,0.123L3.81,39.03l1.233,0.166c0.021,0.003,0.043,0.011,0.062,0.021l0.405,0.237
		c0.032,0.02,0.056,0.047,0.07,0.08l0.07,0.163l0.158,0.044l0.419,0.063l0.71-0.035l0.978,0.09l0.021-0.052l0.229-1.021
		c0.004-0.019,0.01-0.036,0.021-0.052l0.338-0.539c0.009-0.017,0.021-0.029,0.035-0.041l0.203-0.169
		c0.022-0.019,0.047-0.03,0.075-0.035l0.168-0.036c0.019-0.002,0.036-0.002,0.055-0.001l0.27,0.034
		c0.015,0.003,0.028,0.005,0.041,0.012l0.302,0.119l0.4-0.03c0.012-0.002,0.024-0.002,0.036,0.001l0.709,0.102l0.483-0.003
		l0.26,0.036c0.015,0.002,0.029,0.008,0.043,0.013l0.209,0.089l0.511,0.033c0.013,0,0.026,0.002,0.038,0.006l0.259,0.079
		l0.169-0.122c0.015-0.012,0.031-0.02,0.048-0.024l0.439-0.135c0.027-0.007,0.056-0.01,0.084-0.005l0.81,0.17
		c0.046,0.011,0.086,0.038,0.11,0.078c0.023,0.04,0.031,0.089,0.017,0.133l-0.067,0.236l-0.025,0.183l0.163,0.714l0.091,0.27
		l0.177,0.297l1.596,1.262c0.032,0.025,0.053,0.062,0.061,0.101l0.068,0.338c0.004,0.021,0.004,0.046,0,0.069l-0.059,0.26
		l0.116,0.374l0.662,1.026l0.222,0.252c0.021,0.023,0.034,0.052,0.04,0.082l0.018,0.114l0.221,0.098
		c0.062,0.026,0.102,0.09,0.101,0.158l-0.034,1.283c-0.001,0.038-0.015,0.076-0.039,0.104l-0.76,0.914l0.551,0.784l0.098,0.072
		l0.218,0.094c0.049,0.021,0.086,0.064,0.098,0.118l0.067,0.304c0.006,0.018,0.006,0.035,0.004,0.052l-0.031,0.303l0.124,0.373
		c0.015,0.043,0.009,0.091-0.013,0.135l-0.168,0.303l-0.278,0.417l-0.795,1.24l0.084,0.208l0.056,0.038l0.561,0.247l0.482,0.065
		l0.591,0.138c0.016,0.004,0.032,0.01,0.047,0.02l0.169,0.103c0.016,0.007,0.029,0.02,0.041,0.032l0.218,0.252l0.25,0.156
		l0.542,0.448l0.441-0.222c0.011-0.005,0.021-0.009,0.034-0.012l0.135-0.033c0.013-0.004,0.027-0.006,0.041-0.006h0.271l0.285-0.032
		c0.028-0.004,0.056,0.001,0.083,0.01l0.169,0.068c0.041,0.017,0.074,0.05,0.091,0.089l0.102,0.238l0.056,0.184l0.147-0.266
		c0.021-0.039,0.055-0.067,0.095-0.08l0.1-0.034c0.028-0.009,0.057-0.012,0.087-0.005l0.472,0.095l0.608-0.129l0.205-0.089
		c0.014-0.008,0.031-0.013,0.048-0.014l0.304-0.035c0.015-0.002,0.032,0,0.048,0.003l0.371,0.067c0.052,0.01,0.098,0.042,0.121,0.09
		l0.208,0.45c0.006,0.013,0.01,0.027,0.012,0.044l0.102,0.918c0,0.012,0,0.026-0.002,0.041l-0.096,0.647l0.071,0.429l0.236-0.018
		l0.081-0.061l0.18-0.211l0.161-0.287c0.035-0.063,0.105-0.098,0.176-0.085l0.574,0.102c0.019,0.002,0.037,0.009,0.052,0.018
		l1.26,0.697l0.451,0.091l0.345-0.058l0.361-0.211l0.594-0.562l0.254-0.32l0.217-0.311l0.231-0.621l0.411-0.828
		c0.034-0.07,0.118-0.108,0.194-0.087l0.506,0.135c0.053,0.014,0.095,0.053,0.115,0.103l0.152,0.394l0.029,0.021l0.131-0.037
		l0.18-0.12l0.307-0.339l0.06-0.298c0.004-0.014,0.01-0.027,0.015-0.04l0.101-0.203c0.008-0.015,0.019-0.033,0.031-0.045
		l0.136-0.135c0.018-0.016,0.038-0.031,0.062-0.039l0.472-0.17c0.021-0.005,0.039-0.011,0.06-0.009l1.857,0.034
		c0.014,0,0.027,0.002,0.04,0.005l0.643,0.17l0.456,0.174l0.42,0.226h0.291l-0.338-0.274l-0.291-0.193l-0.582-0.256l-0.291-0.181
		c-0.016-0.011-0.028-0.021-0.04-0.033l-0.406-0.473c-0.008-0.01-0.015-0.02-0.02-0.032l-1.25-2.397l-0.246-0.697l-0.174-0.654
		l-0.071-0.7c-0.002-0.016-0.002-0.031,0-0.046l0.034-0.203l0.194-0.907l-0.003-0.007L32.64,44.9
		c-0.013-0.009-0.024-0.018-0.032-0.03l-0.743-0.968l-0.698-0.183l-1.834,0.035l-1.146-0.208l-1.004-0.343
		c-0.015-0.005-0.03-0.013-0.043-0.023l-0.844-0.606c-0.02-0.014-0.036-0.03-0.046-0.051l-0.608-1.014
		c-0.011-0.017-0.018-0.035-0.021-0.055l-0.102-0.54c-0.004-0.029-0.002-0.061,0.008-0.088l0.338-0.944l0.087-0.455l-0.062-0.41
		l-0.297-0.848l-0.075-0.505c-0.002-0.013-0.002-0.025-0.002-0.036l0.203-2.398c0.001-0.012,0.004-0.024,0.008-0.036l0.438-1.417
		l0.06-0.363l-0.065-0.96l-0.089-0.345l-0.15-0.211l-0.466-0.563c-0.009-0.011-0.016-0.021-0.021-0.031l-0.103-0.203
		c-0.02-0.043-0.022-0.091-0.005-0.136l0.1-0.271c0.013-0.033,0.036-0.06,0.063-0.081l0.203-0.135l0.474-0.205l0.318-0.286
		l0.244-0.275l0.182-0.335l0.098-0.417c0.003-0.015,0.01-0.031,0.019-0.047l0.235-0.405c0.025-0.043,0.068-0.073,0.119-0.081
		l0.404-0.067c0.021-0.004,0.041-0.002,0.061,0l0.507,0.102l0.249-0.001l0.291-0.423l-0.031-0.799l-0.498-1.528l-0.733-1.395
		c-0.006-0.012-0.011-0.022-0.014-0.035l-0.136-0.541c-0.005-0.018-0.005-0.038-0.004-0.056l0.035-0.372l0.208-0.773l0.026-0.317
		l-0.064-0.351l-0.122-0.355l-0.222-0.32l-0.251-0.246l-0.154-0.102l-0.417-0.127c-0.022-0.008-0.043-0.021-0.062-0.036
		l-0.269-0.235l-2.343-2.51l-2.195-2.399l-0.492-0.803c-0.009-0.013-0.015-0.029-0.02-0.045l-1.013-3.95L18.71,5.342l-0.346-0.41
		c-0.046-0.052-0.052-0.129-0.019-0.19l0.267-0.472l-0.055-0.143L18.233,3.92l-0.332-0.304l-0.057,0.066
		c-0.031,0.038-0.079,0.061-0.129,0.061h-0.168c-0.019,0-0.037-0.004-0.054-0.008l-0.203-0.068l-0.195-0.021l-0.233,0.087
		l-0.141,0.089l-0.771,0.503c-0.012,0.008-0.023,0.013-0.036,0.017l-0.473,0.169c-0.031,0.011-0.063,0.013-0.094,0.005l-0.439-0.102
		c-0.041-0.009-0.076-0.033-0.099-0.066l-0.405-0.574c-0.014-0.019-0.024-0.041-0.028-0.064l-0.102-0.507
		c-0.002-0.013-0.003-0.026-0.003-0.038l0.032-0.945l-0.059-0.497L14.01,1.458c-0.009-0.011-0.018-0.023-0.024-0.036l-0.102-0.203
		c-0.02-0.04-0.022-0.086-0.009-0.129l0.084-0.248l-0.245-0.737L13.646,0l-0.384,0.025l-0.935,0.871
		c-0.009,0.008-0.018,0.013-0.028,0.021l-0.506,0.304c-0.013,0.008-0.027,0.014-0.04,0.019l-0.549,0.16l-0.383,0.257L10.068,2.38
		c-0.013,0.013-0.027,0.021-0.042,0.029l-0.81,0.404C9.197,2.823,9.178,2.829,9.159,2.83L8.212,2.932L5.718,3.001L4.74,3.228
		L4.603,3.297z"/>
	<g>
		<g>
			<g enable-background="new    ">
				<path fill="#331842" d="M243.774,107.758c0.104-2.227,0.157-4.395,0.157-6.504c0-2.435-0.07-4.795-0.21-7.08l3.852-0.137
					l3.537,7.354c-0.035-2.525-0.131-5.11-0.288-7.754l4.048-0.039c-0.401,3.991-0.603,8.021-0.603,12.09
					c0,0.547,0.005,1.094,0.014,1.641l-3.551,0.029l-3.772-7.871c0.113,2.904,0.218,5.603,0.314,8.096L243.774,107.758z"/>
				<path fill="#331842" d="M262.142,93.646c3.677,0,5.515,2.344,5.515,7.031c0,4.694-1.969,7.041-5.908,7.041
					c-3.938,0-5.908-2.432-5.908-7.295C255.84,95.906,257.94,93.646,262.142,93.646z M259.521,100.941
					c-0.009,0.17-0.014,0.332-0.014,0.488c0,2.455,0.769,3.682,2.306,3.682c1.634,0,2.45-1.39,2.45-4.17
					c0-2.779-0.76-4.17-2.279-4.17C260.456,96.771,259.635,98.162,259.521,100.941z"/>
				<path fill="#331842" d="M268.704,107.904c0.053-1.861,0.079-3.736,0.079-5.625c0-2.891-0.062-5.811-0.184-8.76
					c1.354-0.104,2.568-0.156,3.643-0.156c2.986,0,4.891,0.407,5.711,1.221c0.769,0.762,1.153,1.602,1.153,2.52
					c0,0.417-0.074,0.847-0.223,1.289c-0.507,1.433-1.572,2.341-3.196,2.725c1.135,0.117,1.995,0.573,2.58,1.367
					c0.56,0.769,0.839,2.702,0.839,5.801v0.42l-3.956,0.039c0.043-0.82,0.065-1.556,0.065-2.207c0-1.973-0.215-3.18-0.643-3.623
					c-0.489-0.494-1.069-0.742-1.742-0.742c-0.131,0-0.267,0.01-0.406,0.029c0.053,1.986,0.166,3.867,0.341,5.645L268.704,107.904z
					 M272.059,95.795l0.092,4.18c1.624-0.059,2.654-0.469,3.092-1.23c0.235-0.403,0.354-0.797,0.354-1.182
					c0-0.332-0.088-0.657-0.263-0.977c-0.313-0.553-1.096-0.83-2.345-0.83C272.7,95.756,272.391,95.77,272.059,95.795z"/>
				<path fill="#331842" d="M280.325,96.498V93.93c1.283,0.026,2.555,0.039,3.812,0.039c1.957,0,3.874-0.029,5.752-0.088
					l0.117,2.734h-3.301c0,4.629,0.065,8.301,0.196,11.016l-3.694,0.137c0.192-4.622,0.332-8.392,0.419-11.309L280.325,96.498z"/>
				<path fill="#331842" d="M299.583,93.979v2.754l-5.175-0.156v3.203l4.65-0.098l0.118,2.646h-4.153v2.48h5.438v2.773l-9.066-0.098
					c0.097-1.829,0.145-3.672,0.145-5.527c0-2.571-0.092-5.166-0.275-7.783C293.237,94.115,296.011,94.051,299.583,93.979z"/>
				<path fill="#331842" d="M306.604,107.67c0.018-2.193,0.026-4.453,0.026-6.777c0-2.33-0.009-4.723-0.026-7.178
					c1.005-0.091,1.931-0.137,2.777-0.137c2.358,0,4.096,0.352,5.214,1.055c1.52,0.964,2.314,2.744,2.385,5.342v0.703
					c0,2.227-0.288,3.815-0.865,4.766c-0.637,1.049-1.803,1.745-3.497,2.09c-0.979,0.202-2.053,0.303-3.223,0.303
					C308.521,107.836,307.592,107.781,306.604,107.67z M309.854,96.508c-0.148,2.143-0.223,4.213-0.223,6.211
					c0,0.756,0.009,1.498,0.026,2.227c0.306,0.053,0.598,0.078,0.878,0.078c0.769,0,1.414-0.198,1.938-0.596
					c0.716-0.533,1.074-1.731,1.074-3.594v-0.039c-0.009-1.875-0.358-3.105-1.048-3.691c-0.533-0.442-1.166-0.664-1.899-0.664
					C310.364,96.439,310.115,96.463,309.854,96.508z"/>
				<path fill="#331842" d="M326.387,93.979v2.754l-5.175-0.156v3.203l4.65-0.098l0.118,2.646h-4.153v2.48h5.438v2.773l-9.066-0.098
					c0.097-1.829,0.145-3.672,0.145-5.527c0-2.571-0.092-5.166-0.275-7.783C320.041,94.115,322.814,94.051,326.387,93.979z"/>
				<path fill="#331842" d="M333.461,102.582l3.891-0.195c-0.053,0.404-0.078,0.769-0.078,1.094c0,1.479,0.493,2.217,1.479,2.217
					h0.053c1.196-0.025,1.795-0.501,1.795-1.426v-0.088c-0.044-0.982-1.175-1.946-3.393-2.891c-2.158-0.911-3.236-2.415-3.236-4.512
					c0-0.064,0.004-0.13,0.013-0.195c0.062-2.193,1.712-3.311,4.952-3.35h0.105c2.926,0,4.389,1.391,4.389,4.17
					c0,0.222-0.009,0.456-0.026,0.703l-3.419,0.146c0.034-0.293,0.052-0.562,0.052-0.811c0-1.165-0.38-1.748-1.14-1.748
					c-0.917,0-1.419,0.349-1.507,1.045c-0.009,0.098-0.013,0.195-0.013,0.293c0,0.58,0.231,1.12,0.694,1.621
					c0.532,0.58,1.447,1.11,2.744,1.592c1.297,0.482,2.203,1.143,2.719,1.982c0.367,0.605,0.55,1.25,0.55,1.934
					c0,0.261-0.025,0.527-0.078,0.801c-0.201,0.983-0.76,1.799-1.677,2.447c-0.917,0.647-2.148,1-3.694,1.059
					c-0.105,0.007-0.21,0.01-0.314,0.01c-1.406,0-2.581-0.384-3.524-1.152c-0.908-0.735-1.362-2.073-1.362-4.014
					C333.435,103.08,333.443,102.836,333.461,102.582z"/>
				<path fill="#331842" d="M344.452,107.65c1.642-5.56,2.969-10.273,3.982-14.141l4.913-0.059c1.205,4.023,2.585,8.607,4.14,13.75
					l-3.354,0.508l-1.061-3.701h-4.074l-1.101,3.994L344.452,107.65z M352.968,101.264c-0.455-1.406-1.197-3.089-2.228-5.049
					c-0.795,1.647-1.467,3.354-2.018,5.117L352.968,101.264z"/>
				<path fill="#331842" d="M357.945,107.758c0.105-2.227,0.157-4.395,0.157-6.504c0-2.435-0.069-4.795-0.209-7.08l3.852-0.137
					l3.537,7.354c-0.035-2.525-0.131-5.11-0.288-7.754l4.048-0.039c-0.402,3.991-0.603,8.021-0.603,12.09
					c0,0.547,0.004,1.094,0.013,1.641l-3.55,0.029l-3.773-7.871c0.113,2.904,0.219,5.603,0.314,8.096L357.945,107.758z"/>
				<path fill="#331842" d="M370.3,96.498V93.93c1.283,0.026,2.555,0.039,3.812,0.039c1.957,0,3.874-0.029,5.752-0.088l0.117,2.734
					h-3.301c0,4.629,0.065,8.301,0.196,11.016l-3.694,0.137c0.192-4.622,0.332-8.392,0.419-11.309L370.3,96.498z"/>
				<path fill="#331842" d="M380.374,107.65c1.642-5.56,2.969-10.273,3.982-14.141l4.913-0.059c1.205,4.023,2.585,8.607,4.14,13.75
					l-3.354,0.508l-1.061-3.701h-4.074l-1.101,3.994L380.374,107.65z M388.89,101.264c-0.455-1.406-1.197-3.089-2.228-5.049
					c-0.795,1.647-1.467,3.354-2.018,5.117L388.89,101.264z"/>
				<path fill="#331842" d="M393.867,107.758c0.105-2.227,0.157-4.395,0.157-6.504c0-2.435-0.069-4.795-0.209-7.08l3.852-0.137
					l3.537,7.354c-0.035-2.525-0.131-5.11-0.288-7.754l4.048-0.039c-0.402,3.991-0.603,8.021-0.603,12.09
					c0,0.547,0.004,1.094,0.013,1.641l-3.55,0.029l-3.773-7.871c0.113,2.904,0.219,5.603,0.314,8.096L393.867,107.758z"/>
				<path fill="#331842" d="M406.222,107.67c0.017-2.193,0.026-4.453,0.026-6.777c0-2.33-0.01-4.723-0.026-7.178
					c1.004-0.091,1.93-0.137,2.777-0.137c2.357,0,4.096,0.352,5.214,1.055c1.52,0.964,2.314,2.744,2.384,5.342v0.703
					c0,2.227-0.288,3.815-0.864,4.766c-0.638,1.049-1.804,1.745-3.498,2.09c-0.979,0.202-2.053,0.303-3.223,0.303
					C408.139,107.836,407.208,107.781,406.222,107.67z M409.471,96.508c-0.149,2.143-0.223,4.213-0.223,6.211
					c0,0.756,0.008,1.498,0.025,2.227c0.306,0.053,0.599,0.078,0.878,0.078c0.769,0,1.415-0.198,1.939-0.596
					c0.716-0.533,1.074-1.731,1.074-3.594v-0.039c-0.009-1.875-0.358-3.105-1.049-3.691c-0.532-0.442-1.166-0.664-1.899-0.664
					C409.981,96.439,409.732,96.463,409.471,96.508z"/>
				<path fill="#331842" d="M426.003,93.979v2.754l-5.175-0.156v3.203l4.651-0.098l0.117,2.646h-4.152v2.48h5.437v2.773
					l-9.065-0.098c0.096-1.829,0.144-3.672,0.144-5.527c0-2.571-0.092-5.166-0.274-7.783
					C419.658,94.115,422.431,94.051,426.003,93.979z"/>
				<path fill="#331842" d="M428.243,107.904c0.053-1.861,0.079-3.736,0.079-5.625c0-2.891-0.062-5.811-0.184-8.76
					c1.354-0.104,2.568-0.156,3.643-0.156c2.986,0,4.891,0.407,5.711,1.221c0.769,0.762,1.153,1.602,1.153,2.52
					c0,0.417-0.074,0.847-0.223,1.289c-0.507,1.433-1.572,2.341-3.196,2.725c1.135,0.117,1.995,0.573,2.58,1.367
					c0.56,0.769,0.839,2.702,0.839,5.801v0.42l-3.956,0.039c0.043-0.82,0.065-1.556,0.065-2.207c0-1.973-0.215-3.18-0.643-3.623
					c-0.489-0.494-1.069-0.742-1.742-0.742c-0.131,0-0.267,0.01-0.406,0.029c0.053,1.986,0.166,3.867,0.341,5.645L428.243,107.904z
					 M431.598,95.795l0.092,4.18c1.624-0.059,2.654-0.469,3.092-1.23c0.235-0.403,0.354-0.797,0.354-1.182
					c0-0.332-0.088-0.657-0.263-0.977c-0.313-0.553-1.096-0.83-2.345-0.83C432.239,95.756,431.93,95.77,431.598,95.795z"/>
			</g>
		</g>
	</g>
</g>
</svg>
