<?xml version="1.0" encoding="utf-8"?>
<!-- Generator: Adobe Illustrator 16.0.0, SVG Export Plug-In . SVG Version: 6.00 Build 0)  -->
<!DOCTYPE svg PUBLIC "-//W3C//DTD SVG 1.1//EN" "http://www.w3.org/Graphics/SVG/1.1/DTD/svg11.dtd">
<svg version="1.1" id="Capa_1" xmlns="http://www.w3.org/2000/svg" xmlns:xlink="http://www.w3.org/1999/xlink" x="0px" y="0px"
	 width="561.176px" height="183.359px" viewBox="0 0 561.176 183.359" enable-background="new 0 0 561.176 183.359"
	 xml:space="preserve">
<g>
	<rect y="0" opacity="0.5" fill="#331842" enable-background="new    " width="254.12" height="31"/>
	<rect x="261.01" y="0" opacity="0.5" fill="#951B81" enable-background="new    " width="300.167" height="183.359"/>
	<g>
		<g>
			<path fill="#FFFFFF" d="M83.741,22.375c0.053-1.86,0.079-3.735,0.079-5.625c0-2.891-0.061-5.811-0.183-8.76
				c1.354-0.104,2.567-0.156,3.642-0.156c2.987,0,4.891,0.407,5.712,1.222c0.769,0.762,1.153,1.602,1.153,2.52
				c0,0.417-0.074,0.847-0.223,1.289c-0.506,1.433-1.572,2.341-3.197,2.725c1.136,0.117,1.996,0.573,2.581,1.367
				c0.559,0.77,0.838,2.702,0.838,5.801v0.421l-3.957,0.038c0.044-0.819,0.066-1.556,0.066-2.207c0-1.973-0.214-3.18-0.642-3.622
				c-0.489-0.494-1.07-0.742-1.742-0.742c-0.131,0-0.267,0.01-0.406,0.028c0.052,1.986,0.166,3.867,0.341,5.646L83.741,22.375z
				 M87.095,10.266l0.091,4.18c1.625-0.059,2.655-0.469,3.092-1.23c0.236-0.402,0.354-0.797,0.354-1.182
				c0-0.332-0.087-0.657-0.262-0.977c-0.314-0.554-1.096-0.83-2.345-0.83C87.737,10.227,87.426,10.24,87.095,10.266z"/>
			<path fill="#FFFFFF" d="M99.514,12.482c3.03,0,4.546,1.501,4.546,4.502c0,0.365-0.022,0.756-0.066,1.172h-5.856
				c0,1.674,0.433,2.51,1.297,2.51h0.092c0.76-0.045,1.14-0.479,1.14-1.299c0-0.176-0.018-0.371-0.052-0.586l3.118-0.049
				c0,2.479-1.455,3.737-4.363,3.77c-0.035,0.008-0.065,0.011-0.092,0.011c-2.769,0-4.152-1.565-4.152-4.697v-0.293
				C95.212,14.162,96.675,12.482,99.514,12.482z M97.824,16.359h2.961v-0.234c0-1.185-0.45-1.776-1.35-1.776
				C98.466,14.348,97.929,15.019,97.824,16.359z"/>
			<path fill="#FFFFFF" d="M104.885,19.045l3-0.106v0.127c0,1.003,0.415,1.511,1.245,1.522h0.052c0.804,0,1.205-0.289,1.205-0.868
				V19.65c-0.035-0.638-0.827-1.152-2.377-1.543c-1.55-0.392-2.483-1.048-2.797-1.974c-0.113-0.324-0.17-0.638-0.17-0.938
				c0-0.547,0.188-1.055,0.563-1.523c0.576-0.716,1.449-1.126,2.62-1.229c0.314-0.025,0.62-0.039,0.917-0.039
				c0.777,0,1.462,0.102,2.057,0.303c0.812,0.28,1.375,0.682,1.69,1.201c0.209,0.358,0.314,0.756,0.314,1.191
				c0,0.209-0.022,0.424-0.065,0.645l-2.804,0.049c0.026-0.162,0.04-0.312,0.04-0.448c0-0.65-0.28-0.999-0.839-1.046
				c-0.061-0.006-0.122-0.01-0.183-0.01c-0.577,0-0.965,0.219-1.166,0.654c-0.07,0.15-0.105,0.287-0.105,0.41
				c0,0.307,0.192,0.569,0.577,0.791c0.542,0.312,1.343,0.63,2.404,0.952c1.061,0.321,1.775,0.87,2.142,1.646
				c0.131,0.293,0.196,0.586,0.196,0.879c0,0.495-0.192,0.993-0.576,1.494c-0.612,0.801-1.559,1.267-2.843,1.396
				c-0.279,0.032-0.555,0.049-0.825,0.049c-0.961,0-1.852-0.187-2.672-0.558C105.435,21.529,104.902,20.543,104.885,19.045z"/>
			<path fill="#FFFFFF" d="M116.532,9.367l2.974-0.146v3.231l2.502-0.049l0.039,1.846l-2.542,0.088v4.443
				c0,1.035,0.59,1.553,1.769,1.553c0.245,0,0.511-0.021,0.799-0.067l-0.118,2.147c-0.419,0.039-0.817,0.06-1.192,0.06
				c-2.76,0-4.166-1.062-4.218-3.185v-4.774l-2.149,0.098l-0.052-2.178l2.201,0.02L116.532,9.367z"/>
			<path fill="#FFFFFF" d="M126.802,10.236c0,0.396-0.188,0.736-0.563,1.016c-0.375,0.28-0.83,0.42-1.363,0.42
				c-0.524,0-0.974-0.14-1.349-0.42c-0.375-0.278-0.563-0.618-0.563-1.016c0-0.391,0.188-0.726,0.563-1.006
				c0.375-0.279,0.825-0.42,1.349-0.42c0.533,0,0.987,0.141,1.363,0.42C126.615,9.511,126.802,9.846,126.802,10.236z
				 M123.292,22.561c-0.062-3.81-0.092-7.101-0.092-9.873l3.301-0.146c-0.105,2.656-0.157,5.297-0.157,7.92
				c0,0.703,0.004,1.403,0.013,2.101L123.292,22.561L123.292,22.561z"/>
			<path fill="#FFFFFF" d="M129.71,9.367l2.974-0.146v3.231l2.502-0.049l0.039,1.846l-2.542,0.088v4.443
				c0,1.035,0.589,1.553,1.769,1.553c0.245,0,0.511-0.021,0.799-0.067l-0.118,2.147c-0.419,0.039-0.816,0.06-1.192,0.06
				c-2.76,0-4.166-1.062-4.218-3.185v-4.774l-2.149,0.098l-0.052-2.178l2.201,0.02L129.71,9.367z"/>
			<path fill="#FFFFFF" d="M143.113,22.512l-0.131-1.593c-0.367,0.848-1.354,1.273-2.961,1.279c-0.018,0.007-0.031,0.01-0.04,0.01
				c-1.589,0-2.642-0.532-3.157-1.602c-0.349-0.709-0.524-2.178-0.524-4.404c0-1.146,0.048-2.496,0.144-4.053h3.184
				c-0.175,2.188-0.262,3.871-0.262,5.049c0,0.593,0.022,1.055,0.065,1.387c0.131,1.017,0.572,1.523,1.323,1.523
				s1.223-0.264,1.415-0.791l-0.131-6.777l3.079-0.02c0,2.8,0.135,6.062,0.406,9.785L143.113,22.512z"/>
			<path fill="#FFFFFF" d="M151.969,18.488l3.118,0.146c0,2.352-1.454,3.543-4.362,3.574c-0.035,0.007-0.065,0.011-0.092,0.011
				c-2.769,0-4.153-1.565-4.153-4.697v-0.293c0.087-3.359,1.563-5.056,4.428-5.088h0.104c2.638,0,3.957,1.127,3.957,3.379
				c0,0.131-0.004,0.261-0.013,0.391l-2.816,0.156v-0.234c0-1.185-0.45-1.776-1.35-1.776c-0.917,0-1.375,0.961-1.375,2.881v0.321
				c0.052,2.077,0.515,3.115,1.389,3.115h0.079c0.76-0.045,1.14-0.479,1.14-1.299C152.021,18.898,152.003,18.703,151.969,18.488z"/>
			<path fill="#FFFFFF" d="M159.842,10.236c0,0.396-0.188,0.736-0.563,1.016c-0.375,0.28-0.83,0.42-1.362,0.42
				c-0.524,0-0.974-0.14-1.35-0.42c-0.375-0.278-0.563-0.618-0.563-1.016c0-0.391,0.188-0.726,0.563-1.006
				c0.375-0.279,0.825-0.42,1.35-0.42c0.532,0,0.987,0.141,1.362,0.42C159.654,9.511,159.842,9.846,159.842,10.236z M156.331,22.561
				c-0.061-3.81-0.092-7.101-0.092-9.873l3.301-0.146c-0.104,2.656-0.157,5.297-0.157,7.92c0,0.703,0.004,1.403,0.014,2.101
				L156.331,22.561L156.331,22.561z"/>
			<path fill="#FFFFFF" d="M165.174,12.482c2.969,0,4.455,1.537,4.455,4.608c0,0.124-0.005,0.248-0.013,0.371
				c-0.123,3.327-1.703,5.008-4.743,5.039c-0.035,0.007-0.07,0.011-0.104,0.011c-2.891,0-4.336-1.572-4.336-4.718v-0.272
				C160.519,14.162,162.1,12.482,165.174,12.482z M164.742,14.709c-0.55,0.145-0.926,0.674-1.127,1.593
				c-0.122,0.547-0.183,1.098-0.183,1.649c0,0.371,0.026,0.746,0.079,1.123c0.14,0.938,0.589,1.423,1.35,1.455h0.091
				c0.708,0,1.192-0.348,1.455-1.045c0.218-0.579,0.327-1.266,0.327-2.062c0-0.194-0.004-0.394-0.013-0.596
				c-0.07-1.048-0.279-1.702-0.628-1.963c-0.219-0.156-0.48-0.234-0.786-0.234C165.13,14.631,164.942,14.657,164.742,14.709z
				 M163.471,10.578c1.021-0.904,1.86-1.768,2.515-2.588l2.148,1.271c-0.926,0.678-1.957,1.508-3.092,2.489L163.471,10.578z"/>
			<path fill="#FFFFFF" d="M172.759,12.229l0.131,1.592c0.367-0.846,1.332-1.275,2.896-1.289h0.052c1.537,0,2.585,0.449,3.144,1.348
				c0.384,0.612,0.577,2.045,0.577,4.298c0,1.106-0.048,2.416-0.144,3.926h-3.17c0.113-2.013,0.17-3.57,0.17-4.679
				c0-0.553-0.013-0.995-0.04-1.327c-0.087-0.978-0.506-1.466-1.258-1.466c-0.751,0-1.223,0.262-1.415,0.781l0.131,7.08
				l-3.079,0.021c0-2.994-0.135-6.357-0.406-10.089L172.759,12.229z"/>
		</g>
	</g>
</g>
</svg>
