<?xml version="1.0" encoding="utf-8"?>
<!-- Generator: Adobe Illustrator 16.0.0, SVG Export Plug-In . SVG Version: 6.00 Build 0)  -->
<!DOCTYPE svg PUBLIC "-//W3C//DTD SVG 1.1//EN" "http://www.w3.org/Graphics/SVG/1.1/DTD/svg11.dtd">
<svg version="1.1" id="Capa_1" xmlns="http://www.w3.org/2000/svg" xmlns:xlink="http://www.w3.org/1999/xlink" x="0px" y="0px"
	 width="601.694px" height="96.159px" viewBox="0 0 601.694 96.159" enable-background="new 0 0 601.694 96.159"
	 xml:space="preserve">
<g>
	<g>
		<g>
			<path fill="#3C3C3B" d="M340.749,36.519l1.43-0.125c0.067,0.573,0.225,1.043,0.473,1.41c0.247,0.367,0.631,0.664,1.152,0.891
				c0.521,0.227,1.106,0.34,1.758,0.34c0.578,0,1.088-0.086,1.531-0.258c0.442-0.172,0.772-0.407,0.988-0.707
				c0.216-0.3,0.324-0.626,0.324-0.98c0-0.359-0.104-0.673-0.312-0.941c-0.208-0.269-0.552-0.493-1.031-0.676
				c-0.308-0.12-0.987-0.306-2.039-0.559c-1.052-0.253-1.789-0.491-2.211-0.715c-0.547-0.286-0.955-0.642-1.223-1.066
				c-0.269-0.425-0.402-0.899-0.402-1.426c0-0.578,0.164-1.118,0.492-1.621s0.807-0.884,1.438-1.145
				c0.63-0.261,1.331-0.391,2.102-0.391c0.849,0,1.598,0.137,2.246,0.41s1.147,0.676,1.496,1.207
				c0.349,0.531,0.536,1.133,0.562,1.805l-1.453,0.109c-0.078-0.724-0.343-1.271-0.793-1.641c-0.451-0.37-1.116-0.555-1.996-0.555
				c-0.917,0-1.585,0.168-2.004,0.504c-0.419,0.336-0.629,0.741-0.629,1.215c0,0.411,0.148,0.75,0.445,1.016
				c0.292,0.266,1.053,0.538,2.285,0.816c1.231,0.278,2.077,0.522,2.535,0.73c0.667,0.308,1.159,0.696,1.477,1.168
				c0.317,0.472,0.477,1.015,0.477,1.629c0,0.609-0.175,1.184-0.523,1.723c-0.349,0.539-0.851,0.958-1.504,1.258
				c-0.654,0.3-1.39,0.449-2.207,0.449c-1.037,0-1.905-0.151-2.605-0.453c-0.701-0.302-1.25-0.757-1.648-1.363
				S340.769,37.284,340.749,36.519z"/>
			<path fill="#3C3C3B" d="M357.436,37.526l1.453,0.18c-0.229,0.849-0.654,1.508-1.273,1.977c-0.62,0.469-1.412,0.703-2.375,0.703
				c-1.214,0-2.176-0.374-2.887-1.121s-1.066-1.796-1.066-3.145c0-1.396,0.359-2.479,1.078-3.25s1.651-1.156,2.797-1.156
				c1.109,0,2.016,0.378,2.719,1.133s1.055,1.817,1.055,3.188c0,0.083-0.003,0.208-0.008,0.375h-6.188
				c0.052,0.911,0.31,1.609,0.773,2.094c0.463,0.484,1.042,0.727,1.734,0.727c0.516,0,0.956-0.136,1.32-0.406
				C356.933,38.553,357.222,38.12,357.436,37.526z M352.819,35.253h4.633c-0.062-0.698-0.24-1.222-0.531-1.57
				c-0.448-0.542-1.029-0.812-1.742-0.812c-0.646,0-1.189,0.216-1.629,0.648C353.109,33.951,352.866,34.529,352.819,35.253z"/>
			<path fill="#3C3C3B" d="M360.655,40.198v-8.297h1.266v1.18c0.609-0.911,1.489-1.367,2.641-1.367c0.5,0,0.959,0.09,1.379,0.27
				c0.419,0.18,0.733,0.415,0.941,0.707c0.208,0.292,0.354,0.638,0.438,1.039c0.052,0.261,0.078,0.716,0.078,1.367v5.102h-1.406
				v-5.047c0-0.573-0.055-1.001-0.164-1.285s-0.304-0.511-0.582-0.68c-0.279-0.169-0.605-0.254-0.98-0.254
				c-0.599,0-1.116,0.19-1.551,0.57c-0.435,0.38-0.652,1.102-0.652,2.164v4.531H360.655z"/>
			<path fill="#3C3C3B" d="M372.624,38.94l0.203,1.242c-0.396,0.083-0.75,0.125-1.062,0.125c-0.511,0-0.906-0.081-1.188-0.242
				s-0.479-0.374-0.594-0.637c-0.115-0.263-0.172-0.816-0.172-1.66v-4.773h-1.031v-1.094h1.031v-2.055l1.398-0.844v2.898h1.414
				v1.094h-1.414v4.852c0,0.401,0.024,0.659,0.074,0.773c0.049,0.114,0.13,0.206,0.242,0.273c0.112,0.067,0.272,0.102,0.48,0.102
				C372.163,38.995,372.368,38.977,372.624,38.94z"/>
			<path fill="#3C3C3B" d="M379.678,37.526l1.453,0.18c-0.229,0.849-0.654,1.508-1.273,1.977c-0.62,0.469-1.412,0.703-2.375,0.703
				c-1.214,0-2.176-0.374-2.887-1.121s-1.066-1.796-1.066-3.145c0-1.396,0.359-2.479,1.078-3.25s1.651-1.156,2.797-1.156
				c1.109,0,2.016,0.378,2.719,1.133s1.055,1.817,1.055,3.188c0,0.083-0.003,0.208-0.008,0.375h-6.188
				c0.052,0.911,0.31,1.609,0.773,2.094c0.463,0.484,1.042,0.727,1.734,0.727c0.516,0,0.956-0.136,1.32-0.406
				C379.175,38.553,379.464,38.12,379.678,37.526z M375.061,35.253h4.633c-0.062-0.698-0.24-1.222-0.531-1.57
				c-0.448-0.542-1.029-0.812-1.742-0.812c-0.646,0-1.189,0.216-1.629,0.648C375.351,33.951,375.108,34.529,375.061,35.253z"/>
			<path fill="#3C3C3B" d="M382.897,40.198v-8.297h1.266v1.18c0.609-0.911,1.489-1.367,2.641-1.367c0.5,0,0.959,0.09,1.379,0.27
				c0.419,0.18,0.733,0.415,0.941,0.707c0.208,0.292,0.354,0.638,0.438,1.039c0.052,0.261,0.078,0.716,0.078,1.367v5.102h-1.406
				v-5.047c0-0.573-0.055-1.001-0.164-1.285s-0.304-0.511-0.582-0.68c-0.279-0.169-0.605-0.254-0.98-0.254
				c-0.599,0-1.116,0.19-1.551,0.57c-0.435,0.38-0.652,1.102-0.652,2.164v4.531H382.897z"/>
			<path fill="#3C3C3B" d="M397.209,37.159l1.383,0.18c-0.151,0.953-0.538,1.699-1.16,2.238c-0.623,0.539-1.387,0.809-2.293,0.809
				c-1.136,0-2.048-0.371-2.738-1.113c-0.69-0.742-1.035-1.806-1.035-3.191c0-0.896,0.148-1.68,0.445-2.352s0.749-1.176,1.355-1.512
				c0.606-0.336,1.267-0.504,1.98-0.504c0.901,0,1.638,0.228,2.211,0.684c0.573,0.456,0.94,1.103,1.102,1.941l-1.367,0.211
				c-0.13-0.558-0.361-0.977-0.691-1.258c-0.331-0.281-0.73-0.422-1.199-0.422c-0.708,0-1.284,0.254-1.727,0.762
				c-0.443,0.508-0.664,1.312-0.664,2.41c0,1.114,0.213,1.925,0.641,2.43c0.427,0.505,0.984,0.758,1.672,0.758
				c0.552,0,1.013-0.169,1.383-0.508C396.876,38.383,397.11,37.862,397.209,37.159z"/>
			<path fill="#3C3C3B" d="M399.803,30.362v-1.617h1.406v1.617H399.803z M399.803,40.198v-8.297h1.406v8.297H399.803z"/>
			<path fill="#3C3C3B" d="M408.764,39.175c-0.521,0.442-1.022,0.755-1.504,0.938c-0.482,0.183-0.999,0.273-1.551,0.273
				c-0.912,0-1.612-0.223-2.102-0.668c-0.49-0.445-0.734-1.015-0.734-1.707c0-0.406,0.092-0.777,0.277-1.113
				c0.185-0.336,0.427-0.605,0.727-0.809c0.299-0.203,0.637-0.356,1.012-0.461c0.276-0.073,0.692-0.144,1.25-0.211
				c1.135-0.136,1.971-0.297,2.508-0.484c0.005-0.192,0.008-0.315,0.008-0.367c0-0.573-0.133-0.977-0.398-1.211
				c-0.359-0.317-0.894-0.477-1.602-0.477c-0.662,0-1.15,0.116-1.465,0.348c-0.315,0.231-0.548,0.642-0.699,1.23l-1.375-0.188
				c0.125-0.589,0.331-1.063,0.617-1.426c0.286-0.362,0.7-0.641,1.242-0.836c0.542-0.195,1.169-0.293,1.883-0.293
				c0.708,0,1.284,0.083,1.727,0.25c0.442,0.167,0.768,0.376,0.977,0.629c0.208,0.253,0.354,0.571,0.438,0.957
				c0.047,0.239,0.07,0.672,0.07,1.297v1.875c0,1.308,0.03,2.134,0.09,2.48c0.06,0.347,0.178,0.679,0.355,0.996h-1.469
				C408.899,39.906,408.806,39.565,408.764,39.175z M408.647,36.034c-0.511,0.208-1.276,0.386-2.297,0.531
				c-0.578,0.083-0.987,0.177-1.227,0.281c-0.24,0.104-0.425,0.257-0.555,0.457c-0.13,0.2-0.195,0.423-0.195,0.668
				c0,0.375,0.142,0.688,0.426,0.938c0.284,0.25,0.699,0.375,1.246,0.375c0.542,0,1.023-0.118,1.445-0.355s0.731-0.562,0.93-0.973
				c0.151-0.317,0.227-0.786,0.227-1.406V36.034z"/>
			<path fill="#3C3C3B" d="M425.045,36.183l1.516,0.383c-0.318,1.245-0.89,2.194-1.715,2.848c-0.826,0.653-1.835,0.98-3.027,0.98
				c-1.234,0-2.238-0.251-3.012-0.754s-1.362-1.23-1.766-2.184c-0.404-0.953-0.605-1.977-0.605-3.07
				c0-1.192,0.228-2.233,0.684-3.121c0.456-0.888,1.104-1.562,1.945-2.023c0.841-0.461,1.767-0.691,2.777-0.691
				c1.146,0,2.109,0.292,2.891,0.875s1.325,1.403,1.633,2.461l-1.492,0.352c-0.266-0.833-0.651-1.44-1.156-1.82
				c-0.505-0.38-1.141-0.57-1.906-0.57c-0.88,0-1.616,0.211-2.207,0.633c-0.591,0.422-1.007,0.988-1.246,1.699
				c-0.24,0.711-0.359,1.444-0.359,2.199c0,0.974,0.142,1.824,0.426,2.551c0.284,0.727,0.725,1.27,1.324,1.629
				c0.599,0.359,1.247,0.539,1.945,0.539c0.849,0,1.567-0.245,2.156-0.734C424.438,37.873,424.837,37.146,425.045,36.183z"/>
			<path fill="#3C3C3B" d="M427.725,36.05c0-1.536,0.427-2.675,1.281-3.414c0.713-0.614,1.583-0.922,2.609-0.922
				c1.141,0,2.073,0.374,2.797,1.121c0.724,0.747,1.086,1.78,1.086,3.098c0,1.067-0.16,1.907-0.48,2.52s-0.787,1.087-1.398,1.426
				c-0.612,0.339-1.28,0.508-2.004,0.508c-1.162,0-2.101-0.372-2.816-1.117C428.083,38.523,427.725,37.451,427.725,36.05z
				 M429.17,36.05c0,1.062,0.231,1.858,0.695,2.387c0.463,0.528,1.047,0.793,1.75,0.793c0.698,0,1.278-0.266,1.742-0.797
				c0.463-0.531,0.695-1.341,0.695-2.43c0-1.026-0.233-1.804-0.699-2.332c-0.466-0.528-1.046-0.793-1.738-0.793
				c-0.703,0-1.287,0.263-1.75,0.789C429.402,34.193,429.17,34.987,429.17,36.05z"/>
			<path fill="#3C3C3B" d="M437.131,40.198v-8.297h1.266v1.258c0.323-0.589,0.621-0.977,0.895-1.164s0.574-0.281,0.902-0.281
				c0.474,0,0.956,0.151,1.445,0.453l-0.484,1.305c-0.344-0.203-0.688-0.305-1.031-0.305c-0.308,0-0.583,0.093-0.828,0.277
				c-0.245,0.185-0.419,0.441-0.523,0.77c-0.156,0.5-0.234,1.047-0.234,1.641v4.344H437.131z"/>
			<path fill="#3C3C3B" d="M445.545,38.94l0.203,1.242c-0.396,0.083-0.75,0.125-1.062,0.125c-0.511,0-0.906-0.081-1.188-0.242
				s-0.479-0.374-0.594-0.637c-0.115-0.263-0.172-0.816-0.172-1.66v-4.773h-1.031v-1.094h1.031v-2.055l1.398-0.844v2.898h1.414
				v1.094h-1.414v4.852c0,0.401,0.024,0.659,0.074,0.773c0.049,0.114,0.13,0.206,0.242,0.273c0.112,0.067,0.272,0.102,0.48,0.102
				C445.084,38.995,445.29,38.977,445.545,38.94z"/>
			<path fill="#3C3C3B" d="M452.6,37.526l1.453,0.18c-0.229,0.849-0.654,1.508-1.273,1.977c-0.62,0.469-1.412,0.703-2.375,0.703
				c-1.214,0-2.176-0.374-2.887-1.121s-1.066-1.796-1.066-3.145c0-1.396,0.359-2.479,1.078-3.25s1.651-1.156,2.797-1.156
				c1.109,0,2.016,0.378,2.719,1.133s1.055,1.817,1.055,3.188c0,0.083-0.003,0.208-0.008,0.375h-6.188
				c0.052,0.911,0.31,1.609,0.773,2.094c0.463,0.484,1.042,0.727,1.734,0.727c0.516,0,0.956-0.136,1.32-0.406
				C452.097,38.553,452.386,38.12,452.6,37.526z M447.983,35.253h4.633c-0.062-0.698-0.24-1.222-0.531-1.57
				c-0.448-0.542-1.029-0.812-1.742-0.812c-0.646,0-1.189,0.216-1.629,0.648C448.273,33.951,448.03,34.529,447.983,35.253z"/>
			<path fill="#3C3C3B" d="M460.702,40.198V28.745h1.516v11.453H460.702z"/>
			<path fill="#3C3C3B" d="M464.889,40.198V28.745h3.945c0.891,0,1.57,0.055,2.039,0.164c0.656,0.151,1.216,0.425,1.68,0.82
				c0.604,0.511,1.056,1.163,1.355,1.957c0.299,0.794,0.449,1.702,0.449,2.723c0,0.87-0.102,1.641-0.305,2.312
				s-0.464,1.228-0.781,1.668c-0.318,0.44-0.666,0.786-1.043,1.039c-0.378,0.253-0.833,0.444-1.367,0.574
				c-0.534,0.13-1.147,0.195-1.84,0.195H464.889z M466.405,38.847h2.445c0.755,0,1.348-0.07,1.777-0.211s0.772-0.339,1.027-0.594
				c0.359-0.359,0.639-0.843,0.84-1.449c0.2-0.606,0.301-1.343,0.301-2.207c0-1.198-0.197-2.118-0.59-2.762
				c-0.394-0.644-0.871-1.074-1.434-1.293c-0.406-0.156-1.06-0.234-1.961-0.234h-2.406V38.847z"/>
			<path fill="#3C3C3B" d="M476.491,40.198V28.745h1.516v4.703h5.953v-4.703h1.516v11.453h-1.516V34.8h-5.953v5.398H476.491z"/>
			<path fill="#3C3C3B" d="M488.209,33.503v-1.602h1.602v1.602H488.209z M488.209,40.198v-1.602h1.602v1.602H488.209z"/>
			<path fill="#3C3C3B" d="M496.116,36.948l1.367-0.188c0.036,0.875,0.2,1.474,0.492,1.797c0.292,0.323,0.695,0.484,1.211,0.484
				c0.38,0,0.708-0.087,0.984-0.262c0.276-0.175,0.466-0.411,0.57-0.711c0.104-0.3,0.156-0.777,0.156-1.434v-7.891h1.516v7.805
				c0,0.958-0.116,1.7-0.348,2.227c-0.232,0.526-0.599,0.927-1.102,1.203c-0.503,0.276-1.093,0.414-1.77,0.414
				c-1.005,0-1.775-0.289-2.309-0.867C496.351,38.948,496.095,38.089,496.116,36.948z"/>
			<path fill="#3C3C3B" d="M510.124,39.175c-0.521,0.442-1.022,0.755-1.504,0.938c-0.482,0.183-0.999,0.273-1.551,0.273
				c-0.912,0-1.612-0.223-2.102-0.668c-0.49-0.445-0.734-1.015-0.734-1.707c0-0.406,0.092-0.777,0.277-1.113
				c0.185-0.336,0.427-0.605,0.727-0.809c0.299-0.203,0.637-0.356,1.012-0.461c0.276-0.073,0.692-0.144,1.25-0.211
				c1.135-0.136,1.971-0.297,2.508-0.484c0.005-0.192,0.008-0.315,0.008-0.367c0-0.573-0.133-0.977-0.398-1.211
				c-0.359-0.317-0.894-0.477-1.602-0.477c-0.662,0-1.15,0.116-1.465,0.348c-0.315,0.231-0.548,0.642-0.699,1.23l-1.375-0.188
				c0.125-0.589,0.331-1.063,0.617-1.426c0.286-0.362,0.7-0.641,1.242-0.836c0.542-0.195,1.169-0.293,1.883-0.293
				c0.708,0,1.284,0.083,1.727,0.25c0.442,0.167,0.768,0.376,0.977,0.629c0.208,0.253,0.354,0.571,0.438,0.957
				c0.047,0.239,0.07,0.672,0.07,1.297v1.875c0,1.308,0.03,2.134,0.09,2.48c0.06,0.347,0.178,0.679,0.355,0.996h-1.469
				C510.259,39.906,510.165,39.565,510.124,39.175z M510.006,36.034c-0.511,0.208-1.276,0.386-2.297,0.531
				c-0.578,0.083-0.987,0.177-1.227,0.281c-0.24,0.104-0.425,0.257-0.555,0.457c-0.13,0.2-0.195,0.423-0.195,0.668
				c0,0.375,0.142,0.688,0.426,0.938c0.284,0.25,0.699,0.375,1.246,0.375c0.542,0,1.023-0.118,1.445-0.355s0.731-0.562,0.93-0.973
				c0.151-0.317,0.227-0.786,0.227-1.406V36.034z"/>
			<path fill="#3C3C3B" d="M513.608,40.198v-8.297h1.258v1.164c0.26-0.406,0.606-0.733,1.039-0.98
				c0.432-0.247,0.924-0.371,1.477-0.371c0.614,0,1.118,0.128,1.512,0.383c0.393,0.255,0.67,0.612,0.832,1.07
				c0.656-0.969,1.51-1.453,2.562-1.453c0.823,0,1.456,0.228,1.898,0.684c0.442,0.456,0.664,1.157,0.664,2.105v5.695h-1.398v-5.227
				c0-0.562-0.046-0.968-0.137-1.215c-0.091-0.247-0.257-0.446-0.496-0.598c-0.24-0.151-0.521-0.227-0.844-0.227
				c-0.583,0-1.068,0.194-1.453,0.582c-0.386,0.388-0.578,1.009-0.578,1.863v4.82h-1.406v-5.391c0-0.625-0.115-1.094-0.344-1.406
				c-0.229-0.312-0.604-0.469-1.125-0.469c-0.396,0-0.762,0.104-1.098,0.312s-0.58,0.513-0.73,0.914
				c-0.151,0.401-0.227,0.979-0.227,1.734v4.305H513.608z"/>
			<path fill="#3C3C3B" d="M528.233,40.198h-1.305V28.745h1.406v4.086c0.594-0.745,1.352-1.117,2.273-1.117
				c0.51,0,0.993,0.103,1.449,0.309c0.456,0.206,0.831,0.495,1.125,0.867c0.294,0.372,0.524,0.821,0.691,1.348
				c0.167,0.526,0.25,1.089,0.25,1.688c0,1.422-0.352,2.521-1.055,3.297s-1.547,1.164-2.531,1.164c-0.979,0-1.748-0.409-2.305-1.227
				V40.198z M528.217,35.987c0,0.995,0.135,1.714,0.406,2.156c0.442,0.724,1.042,1.086,1.797,1.086c0.614,0,1.146-0.267,1.594-0.801
				c0.448-0.534,0.672-1.329,0.672-2.387c0-1.083-0.215-1.883-0.645-2.398s-0.949-0.773-1.559-0.773
				c-0.615,0-1.146,0.267-1.594,0.801C528.441,34.205,528.217,34.977,528.217,35.987z"/>
			<path fill="#3C3C3B" d="M541.249,39.175c-0.521,0.442-1.022,0.755-1.504,0.938c-0.482,0.183-0.999,0.273-1.551,0.273
				c-0.912,0-1.612-0.223-2.102-0.668c-0.49-0.445-0.734-1.015-0.734-1.707c0-0.406,0.092-0.777,0.277-1.113
				c0.185-0.336,0.427-0.605,0.727-0.809c0.299-0.203,0.637-0.356,1.012-0.461c0.276-0.073,0.692-0.144,1.25-0.211
				c1.135-0.136,1.971-0.297,2.508-0.484c0.005-0.192,0.008-0.315,0.008-0.367c0-0.573-0.133-0.977-0.398-1.211
				c-0.359-0.317-0.894-0.477-1.602-0.477c-0.662,0-1.15,0.116-1.465,0.348c-0.315,0.231-0.548,0.642-0.699,1.23l-1.375-0.188
				c0.125-0.589,0.331-1.063,0.617-1.426c0.286-0.362,0.7-0.641,1.242-0.836c0.542-0.195,1.169-0.293,1.883-0.293
				c0.708,0,1.284,0.083,1.727,0.25c0.442,0.167,0.768,0.376,0.977,0.629c0.208,0.253,0.354,0.571,0.438,0.957
				c0.047,0.239,0.07,0.672,0.07,1.297v1.875c0,1.308,0.03,2.134,0.09,2.48c0.06,0.347,0.178,0.679,0.355,0.996h-1.469
				C541.384,39.906,541.29,39.565,541.249,39.175z M541.131,36.034c-0.511,0.208-1.276,0.386-2.297,0.531
				c-0.578,0.083-0.987,0.177-1.227,0.281c-0.24,0.104-0.425,0.257-0.555,0.457c-0.13,0.2-0.195,0.423-0.195,0.668
				c0,0.375,0.142,0.688,0.426,0.938c0.284,0.25,0.699,0.375,1.246,0.375c0.542,0,1.023-0.118,1.445-0.355s0.731-0.562,0.93-0.973
				c0.151-0.317,0.227-0.786,0.227-1.406V36.034z"/>
			<path fill="#3C3C3B" d="M544.702,40.198V28.745h1.406v11.453H544.702z"/>
			<path fill="#3C3C3B" d="M547.764,36.05c0-1.536,0.427-2.675,1.281-3.414c0.713-0.614,1.583-0.922,2.609-0.922
				c1.141,0,2.073,0.374,2.797,1.121c0.724,0.747,1.086,1.78,1.086,3.098c0,1.067-0.16,1.907-0.48,2.52s-0.787,1.087-1.398,1.426
				c-0.612,0.339-1.28,0.508-2.004,0.508c-1.162,0-2.101-0.372-2.816-1.117C548.122,38.523,547.764,37.451,547.764,36.05z
				 M549.209,36.05c0,1.062,0.231,1.858,0.695,2.387c0.463,0.528,1.047,0.793,1.75,0.793c0.698,0,1.278-0.266,1.742-0.797
				c0.463-0.531,0.695-1.341,0.695-2.43c0-1.026-0.233-1.804-0.699-2.332c-0.466-0.528-1.046-0.793-1.738-0.793
				c-0.703,0-1.287,0.263-1.75,0.789C549.441,34.193,549.209,34.987,549.209,36.05z M550.874,30.87l1.039-2.188h1.844l-1.719,2.188
				H550.874z"/>
			<path fill="#3C3C3B" d="M341.217,59.398V47.945h2.281l2.711,8.109c0.25,0.755,0.432,1.32,0.547,1.695
				c0.13-0.417,0.333-1.028,0.609-1.836l2.742-7.969h2.039v11.453h-1.461v-9.586l-3.328,9.586h-1.367l-3.312-9.75v9.75H341.217z"/>
			<path fill="#3C3C3B" d="M360.092,56.727l1.453,0.18c-0.229,0.849-0.654,1.508-1.273,1.977c-0.62,0.469-1.412,0.703-2.375,0.703
				c-1.214,0-2.176-0.374-2.887-1.121s-1.066-1.796-1.066-3.145c0-1.396,0.359-2.479,1.078-3.25s1.651-1.156,2.797-1.156
				c1.109,0,2.016,0.378,2.719,1.133s1.055,1.817,1.055,3.188c0,0.083-0.003,0.208-0.008,0.375h-6.188
				c0.052,0.911,0.31,1.609,0.773,2.094c0.463,0.484,1.042,0.727,1.734,0.727c0.516,0,0.956-0.136,1.32-0.406
				C359.589,57.753,359.878,57.32,360.092,56.727z M355.475,54.453h4.633c-0.062-0.698-0.24-1.222-0.531-1.57
				c-0.448-0.542-1.029-0.812-1.742-0.812c-0.646,0-1.189,0.216-1.629,0.648C355.765,53.151,355.522,53.729,355.475,54.453z"/>
			<path fill="#3C3C3B" d="M368.694,59.398v-1.047c-0.526,0.823-1.3,1.234-2.32,1.234c-0.662,0-1.27-0.183-1.824-0.547
				s-0.984-0.874-1.289-1.527s-0.457-1.405-0.457-2.254c0-0.828,0.138-1.579,0.414-2.254c0.276-0.675,0.69-1.191,1.242-1.551
				c0.552-0.359,1.169-0.539,1.852-0.539c0.5,0,0.945,0.105,1.336,0.316s0.708,0.485,0.953,0.824v-4.109h1.398v11.453H368.694z
				 M364.249,55.258c0,1.062,0.224,1.856,0.672,2.383c0.448,0.526,0.977,0.789,1.586,0.789c0.614,0,1.137-0.251,1.566-0.754
				s0.645-1.27,0.645-2.301c0-1.136-0.219-1.969-0.656-2.5s-0.977-0.797-1.617-0.797c-0.625,0-1.147,0.255-1.566,0.766
				C364.458,53.354,364.249,54.159,364.249,55.258z"/>
			<path fill="#3C3C3B" d="M372.217,49.562v-1.617h1.406v1.617H372.217z M372.217,59.398v-8.297h1.406v8.297H372.217z"/>
			<path fill="#3C3C3B" d="M381.147,59.398v-1.047c-0.526,0.823-1.3,1.234-2.32,1.234c-0.662,0-1.27-0.183-1.824-0.547
				s-0.984-0.874-1.289-1.527s-0.457-1.405-0.457-2.254c0-0.828,0.138-1.579,0.414-2.254c0.276-0.675,0.69-1.191,1.242-1.551
				c0.552-0.359,1.169-0.539,1.852-0.539c0.5,0,0.945,0.105,1.336,0.316s0.708,0.485,0.953,0.824v-4.109h1.398v11.453H381.147z
				 M376.702,55.258c0,1.062,0.224,1.856,0.672,2.383c0.448,0.526,0.977,0.789,1.586,0.789c0.614,0,1.137-0.251,1.566-0.754
				s0.645-1.27,0.645-2.301c0-1.136-0.219-1.969-0.656-2.5s-0.977-0.797-1.617-0.797c-0.625,0-1.147,0.255-1.566,0.766
				C376.911,53.354,376.702,54.159,376.702,55.258z"/>
			<path fill="#3C3C3B" d="M390.077,58.375c-0.521,0.442-1.022,0.755-1.504,0.938c-0.482,0.183-0.999,0.273-1.551,0.273
				c-0.912,0-1.612-0.223-2.102-0.668c-0.49-0.445-0.734-1.015-0.734-1.707c0-0.406,0.092-0.777,0.277-1.113
				c0.185-0.336,0.427-0.605,0.727-0.809c0.299-0.203,0.637-0.356,1.012-0.461c0.276-0.073,0.692-0.144,1.25-0.211
				c1.135-0.136,1.971-0.297,2.508-0.484c0.005-0.192,0.008-0.315,0.008-0.367c0-0.573-0.133-0.977-0.398-1.211
				c-0.359-0.317-0.894-0.477-1.602-0.477c-0.662,0-1.15,0.116-1.465,0.348c-0.315,0.231-0.548,0.642-0.699,1.23l-1.375-0.188
				c0.125-0.589,0.331-1.063,0.617-1.426c0.286-0.362,0.7-0.641,1.242-0.836c0.542-0.195,1.169-0.293,1.883-0.293
				c0.708,0,1.284,0.083,1.727,0.25c0.442,0.167,0.768,0.376,0.977,0.629c0.208,0.253,0.354,0.571,0.438,0.957
				c0.047,0.239,0.07,0.672,0.07,1.297v1.875c0,1.308,0.03,2.134,0.09,2.48c0.06,0.347,0.178,0.679,0.355,0.996h-1.469
				C390.212,59.106,390.118,58.766,390.077,58.375z M389.959,55.234c-0.511,0.208-1.276,0.386-2.297,0.531
				c-0.578,0.083-0.987,0.177-1.227,0.281c-0.24,0.104-0.425,0.257-0.555,0.457c-0.13,0.2-0.195,0.423-0.195,0.668
				c0,0.375,0.142,0.688,0.426,0.938c0.284,0.25,0.699,0.375,1.246,0.375c0.542,0,1.023-0.118,1.445-0.355s0.731-0.562,0.93-0.973
				c0.151-0.317,0.227-0.786,0.227-1.406V55.234z"/>
			<path fill="#3C3C3B" d="M406.358,55.383l1.516,0.383c-0.318,1.245-0.89,2.194-1.715,2.848c-0.826,0.653-1.835,0.98-3.027,0.98
				c-1.234,0-2.238-0.251-3.012-0.754s-1.362-1.23-1.766-2.184c-0.404-0.953-0.605-1.977-0.605-3.07
				c0-1.192,0.228-2.233,0.684-3.121c0.456-0.888,1.104-1.562,1.945-2.023c0.841-0.461,1.767-0.691,2.777-0.691
				c1.146,0,2.109,0.292,2.891,0.875s1.325,1.403,1.633,2.461l-1.492,0.352c-0.266-0.833-0.651-1.44-1.156-1.82
				c-0.505-0.38-1.141-0.57-1.906-0.57c-0.88,0-1.616,0.211-2.207,0.633c-0.591,0.422-1.007,0.988-1.246,1.699
				c-0.24,0.711-0.359,1.444-0.359,2.199c0,0.974,0.142,1.824,0.426,2.551c0.284,0.727,0.725,1.27,1.324,1.629
				c0.599,0.359,1.247,0.539,1.945,0.539c0.849,0,1.567-0.245,2.156-0.734C405.751,57.073,406.149,56.347,406.358,55.383z"/>
			<path fill="#3C3C3B" d="M414.975,58.375c-0.521,0.442-1.022,0.755-1.504,0.938c-0.482,0.183-0.999,0.273-1.551,0.273
				c-0.912,0-1.612-0.223-2.102-0.668c-0.49-0.445-0.734-1.015-0.734-1.707c0-0.406,0.092-0.777,0.277-1.113
				c0.185-0.336,0.427-0.605,0.727-0.809c0.299-0.203,0.637-0.356,1.012-0.461c0.276-0.073,0.692-0.144,1.25-0.211
				c1.135-0.136,1.971-0.297,2.508-0.484c0.005-0.192,0.008-0.315,0.008-0.367c0-0.573-0.133-0.977-0.398-1.211
				c-0.359-0.317-0.894-0.477-1.602-0.477c-0.662,0-1.15,0.116-1.465,0.348c-0.315,0.231-0.548,0.642-0.699,1.23l-1.375-0.188
				c0.125-0.589,0.331-1.063,0.617-1.426c0.286-0.362,0.7-0.641,1.242-0.836c0.542-0.195,1.169-0.293,1.883-0.293
				c0.708,0,1.284,0.083,1.727,0.25c0.442,0.167,0.768,0.376,0.977,0.629c0.208,0.253,0.354,0.571,0.438,0.957
				c0.047,0.239,0.07,0.672,0.07,1.297v1.875c0,1.308,0.03,2.134,0.09,2.48c0.06,0.347,0.178,0.679,0.355,0.996h-1.469
				C415.11,59.106,415.017,58.766,414.975,58.375z M414.858,55.234c-0.511,0.208-1.276,0.386-2.297,0.531
				c-0.578,0.083-0.987,0.177-1.227,0.281c-0.24,0.104-0.425,0.257-0.555,0.457c-0.13,0.2-0.195,0.423-0.195,0.668
				c0,0.375,0.142,0.688,0.426,0.938c0.284,0.25,0.699,0.375,1.246,0.375c0.542,0,1.023-0.118,1.445-0.355s0.731-0.562,0.93-0.973
				c0.151-0.317,0.227-0.786,0.227-1.406V55.234z"/>
			<path fill="#3C3C3B" d="M423.897,59.398V58.18c-0.646,0.938-1.523,1.406-2.633,1.406c-0.49,0-0.947-0.094-1.371-0.281
				c-0.425-0.188-0.74-0.423-0.945-0.707c-0.206-0.284-0.351-0.632-0.434-1.043c-0.058-0.276-0.086-0.714-0.086-1.312v-5.141h1.406
				v4.602c0,0.734,0.028,1.229,0.086,1.484c0.088,0.37,0.276,0.66,0.562,0.871c0.286,0.211,0.641,0.316,1.062,0.316
				s0.817-0.108,1.188-0.324c0.37-0.216,0.631-0.511,0.785-0.883c0.153-0.372,0.23-0.913,0.23-1.621v-4.445h1.406v8.297H423.897z"/>
			<path fill="#3C3C3B" d="M430.428,58.141l0.203,1.242c-0.396,0.083-0.75,0.125-1.062,0.125c-0.511,0-0.906-0.081-1.188-0.242
				s-0.479-0.374-0.594-0.637c-0.115-0.263-0.172-0.816-0.172-1.66v-4.773h-1.031v-1.094h1.031v-2.055l1.398-0.844v2.898h1.414
				v1.094h-1.414v4.852c0,0.401,0.024,0.659,0.074,0.773c0.049,0.114,0.13,0.206,0.242,0.273c0.112,0.067,0.272,0.102,0.48,0.102
				C429.967,58.195,430.173,58.177,430.428,58.141z"/>
			<path fill="#3C3C3B" d="M437.483,56.727l1.453,0.18c-0.229,0.849-0.654,1.508-1.273,1.977c-0.62,0.469-1.412,0.703-2.375,0.703
				c-1.214,0-2.176-0.374-2.887-1.121s-1.066-1.796-1.066-3.145c0-1.396,0.359-2.479,1.078-3.25s1.651-1.156,2.797-1.156
				c1.109,0,2.016,0.378,2.719,1.133s1.055,1.817,1.055,3.188c0,0.083-0.003,0.208-0.008,0.375h-6.188
				c0.052,0.911,0.31,1.609,0.773,2.094c0.463,0.484,1.042,0.727,1.734,0.727c0.516,0,0.956-0.136,1.32-0.406
				C436.98,57.753,437.269,57.32,437.483,56.727z M432.866,54.453h4.633c-0.062-0.698-0.24-1.222-0.531-1.57
				c-0.448-0.542-1.029-0.812-1.742-0.812c-0.646,0-1.189,0.216-1.629,0.648C433.156,53.151,432.913,53.729,432.866,54.453z"/>
			<path fill="#3C3C3B" d="M440.67,59.398V47.945h1.406v11.453H440.67z"/>
			<path fill="#3C3C3B" d="M449.67,58.375c-0.521,0.442-1.022,0.755-1.504,0.938c-0.482,0.183-0.999,0.273-1.551,0.273
				c-0.912,0-1.612-0.223-2.102-0.668c-0.49-0.445-0.734-1.015-0.734-1.707c0-0.406,0.092-0.777,0.277-1.113
				c0.185-0.336,0.427-0.605,0.727-0.809c0.299-0.203,0.637-0.356,1.012-0.461c0.276-0.073,0.692-0.144,1.25-0.211
				c1.135-0.136,1.971-0.297,2.508-0.484c0.005-0.192,0.008-0.315,0.008-0.367c0-0.573-0.133-0.977-0.398-1.211
				c-0.359-0.317-0.894-0.477-1.602-0.477c-0.662,0-1.15,0.116-1.465,0.348c-0.315,0.231-0.548,0.642-0.699,1.23l-1.375-0.188
				c0.125-0.589,0.331-1.063,0.617-1.426c0.286-0.362,0.7-0.641,1.242-0.836c0.542-0.195,1.169-0.293,1.883-0.293
				c0.708,0,1.284,0.083,1.727,0.25c0.442,0.167,0.768,0.376,0.977,0.629c0.208,0.253,0.354,0.571,0.438,0.957
				c0.047,0.239,0.07,0.672,0.07,1.297v1.875c0,1.308,0.03,2.134,0.09,2.48c0.06,0.347,0.178,0.679,0.355,0.996h-1.469
				C449.806,59.106,449.712,58.766,449.67,58.375z M449.553,55.234c-0.511,0.208-1.276,0.386-2.297,0.531
				c-0.578,0.083-0.987,0.177-1.227,0.281c-0.24,0.104-0.425,0.257-0.555,0.457c-0.13,0.2-0.195,0.423-0.195,0.668
				c0,0.375,0.142,0.688,0.426,0.938c0.284,0.25,0.699,0.375,1.246,0.375c0.542,0,1.023-0.118,1.445-0.355s0.731-0.562,0.93-0.973
				c0.151-0.317,0.227-0.786,0.227-1.406V55.234z"/>
			<path fill="#3C3C3B" d="M453.139,59.398v-8.297h1.266v1.258c0.323-0.589,0.621-0.977,0.895-1.164s0.574-0.281,0.902-0.281
				c0.474,0,0.956,0.151,1.445,0.453l-0.484,1.305c-0.344-0.203-0.688-0.305-1.031-0.305c-0.308,0-0.583,0.093-0.828,0.277
				c-0.245,0.185-0.419,0.441-0.523,0.77c-0.156,0.5-0.234,1.047-0.234,1.641v4.344H453.139z"/>
			<path fill="#3C3C3B" d="M471.28,55.383l1.516,0.383c-0.318,1.245-0.89,2.194-1.715,2.848c-0.826,0.653-1.835,0.98-3.027,0.98
				c-1.234,0-2.238-0.251-3.012-0.754s-1.362-1.23-1.766-2.184c-0.404-0.953-0.605-1.977-0.605-3.07
				c0-1.192,0.228-2.233,0.684-3.121c0.456-0.888,1.104-1.562,1.945-2.023c0.841-0.461,1.767-0.691,2.777-0.691
				c1.146,0,2.109,0.292,2.891,0.875s1.325,1.403,1.633,2.461l-1.492,0.352c-0.266-0.833-0.651-1.44-1.156-1.82
				c-0.505-0.38-1.141-0.57-1.906-0.57c-0.88,0-1.616,0.211-2.207,0.633c-0.591,0.422-1.007,0.988-1.246,1.699
				c-0.24,0.711-0.359,1.444-0.359,2.199c0,0.974,0.142,1.824,0.426,2.551c0.284,0.727,0.725,1.27,1.324,1.629
				c0.599,0.359,1.247,0.539,1.945,0.539c0.849,0,1.567-0.245,2.156-0.734C470.673,57.073,471.071,56.347,471.28,55.383z"/>
			<path fill="#3C3C3B" d="M474.92,59.398V47.945h1.516v11.453H474.92z"/>
			<path fill="#3C3C3B" d="M479.108,59.398V47.945h3.945c0.891,0,1.57,0.055,2.039,0.164c0.656,0.151,1.216,0.425,1.68,0.82
				c0.604,0.511,1.056,1.163,1.355,1.957c0.299,0.794,0.449,1.702,0.449,2.723c0,0.87-0.102,1.641-0.305,2.312
				s-0.464,1.228-0.781,1.668c-0.318,0.44-0.666,0.786-1.043,1.039c-0.378,0.253-0.833,0.444-1.367,0.574
				c-0.534,0.13-1.147,0.195-1.84,0.195H479.108z M480.624,58.047h2.445c0.755,0,1.348-0.07,1.777-0.211s0.772-0.339,1.027-0.594
				c0.359-0.359,0.639-0.843,0.84-1.449c0.2-0.606,0.301-1.343,0.301-2.207c0-1.198-0.197-2.118-0.59-2.762
				c-0.394-0.644-0.871-1.074-1.434-1.293c-0.406-0.156-1.06-0.234-1.961-0.234h-2.406V58.047z"/>
			<path fill="#3C3C3B" d="M490.709,59.398V47.945h1.516v4.703h5.953v-4.703h1.516v11.453h-1.516V54h-5.953v5.398H490.709z"/>
			<path fill="#3C3C3B" d="M502.428,52.703v-1.602h1.602v1.602H502.428z M502.428,59.398v-1.602h1.602v1.602H502.428z"/>
			<path fill="#3C3C3B" d="M508.967,59.398l4.398-11.453h1.633l4.688,11.453h-1.727l-1.336-3.469h-4.789l-1.258,3.469H508.967z
				 M512.272,54.695h3.883l-1.195-3.172c-0.365-0.964-0.636-1.755-0.812-2.375c-0.146,0.734-0.352,1.464-0.617,2.188L512.272,54.695
				z"/>
			<path fill="#3C3C3B" d="M520.702,59.398v-8.297h1.266v1.258c0.323-0.589,0.621-0.977,0.895-1.164s0.574-0.281,0.902-0.281
				c0.474,0,0.956,0.151,1.445,0.453l-0.484,1.305c-0.344-0.203-0.688-0.305-1.031-0.305c-0.308,0-0.583,0.093-0.828,0.277
				c-0.245,0.185-0.419,0.441-0.523,0.77c-0.156,0.5-0.234,1.047-0.234,1.641v4.344H520.702z"/>
			<path fill="#3C3C3B" d="M525.788,60.086l1.367,0.203c0.057,0.422,0.216,0.729,0.477,0.922c0.349,0.261,0.825,0.391,1.43,0.391
				c0.651,0,1.153-0.13,1.508-0.391c0.354-0.261,0.594-0.625,0.719-1.094c0.073-0.286,0.106-0.888,0.102-1.805
				c-0.615,0.724-1.38,1.086-2.297,1.086c-1.141,0-2.023-0.411-2.648-1.234s-0.938-1.81-0.938-2.961c0-0.792,0.143-1.522,0.43-2.191
				c0.286-0.669,0.702-1.187,1.246-1.551c0.544-0.364,1.184-0.547,1.918-0.547c0.979,0,1.786,0.396,2.422,1.188v-1h1.297v7.172
				c0,1.292-0.132,2.207-0.395,2.746c-0.263,0.539-0.68,0.965-1.25,1.277s-1.272,0.469-2.105,0.469c-0.99,0-1.789-0.223-2.398-0.668
				S525.767,60.981,525.788,60.086z M526.952,55.102c0,1.089,0.216,1.883,0.648,2.383c0.432,0.5,0.974,0.75,1.625,0.75
				c0.646,0,1.188-0.249,1.625-0.746s0.656-1.277,0.656-2.34c0-1.016-0.226-1.781-0.676-2.297c-0.451-0.516-0.994-0.773-1.629-0.773
				c-0.625,0-1.156,0.254-1.594,0.762S526.952,54.102,526.952,55.102z"/>
			<path fill="#3C3C3B" d="M540.624,56.727l1.453,0.18c-0.229,0.849-0.654,1.508-1.273,1.977c-0.62,0.469-1.412,0.703-2.375,0.703
				c-1.214,0-2.176-0.374-2.887-1.121s-1.066-1.796-1.066-3.145c0-1.396,0.359-2.479,1.078-3.25s1.651-1.156,2.797-1.156
				c1.109,0,2.016,0.378,2.719,1.133s1.055,1.817,1.055,3.188c0,0.083-0.003,0.208-0.008,0.375h-6.188
				c0.052,0.911,0.31,1.609,0.773,2.094c0.463,0.484,1.042,0.727,1.734,0.727c0.516,0,0.956-0.136,1.32-0.406
				C540.121,57.753,540.41,57.32,540.624,56.727z M536.006,54.453h4.633c-0.062-0.698-0.24-1.222-0.531-1.57
				c-0.448-0.542-1.029-0.812-1.742-0.812c-0.646,0-1.189,0.216-1.629,0.648C536.296,53.151,536.053,53.729,536.006,54.453z"/>
			<path fill="#3C3C3B" d="M543.811,59.398V47.945h1.406v11.453H543.811z"/>
			<path fill="#3C3C3B" d="M547.405,49.562v-1.617h1.406v1.617H547.405z M547.405,59.398v-8.297h1.406v8.297H547.405z"/>
			<path fill="#3C3C3B" d="M556.366,58.375c-0.521,0.442-1.022,0.755-1.504,0.938c-0.482,0.183-0.999,0.273-1.551,0.273
				c-0.912,0-1.612-0.223-2.102-0.668c-0.49-0.445-0.734-1.015-0.734-1.707c0-0.406,0.092-0.777,0.277-1.113
				c0.185-0.336,0.427-0.605,0.727-0.809c0.299-0.203,0.637-0.356,1.012-0.461c0.276-0.073,0.692-0.144,1.25-0.211
				c1.135-0.136,1.971-0.297,2.508-0.484c0.005-0.192,0.008-0.315,0.008-0.367c0-0.573-0.133-0.977-0.398-1.211
				c-0.359-0.317-0.894-0.477-1.602-0.477c-0.662,0-1.15,0.116-1.465,0.348c-0.315,0.231-0.548,0.642-0.699,1.23l-1.375-0.188
				c0.125-0.589,0.331-1.063,0.617-1.426c0.286-0.362,0.7-0.641,1.242-0.836c0.542-0.195,1.169-0.293,1.883-0.293
				c0.708,0,1.284,0.083,1.727,0.25c0.442,0.167,0.768,0.376,0.977,0.629c0.208,0.253,0.354,0.571,0.438,0.957
				c0.047,0.239,0.07,0.672,0.07,1.297v1.875c0,1.308,0.03,2.134,0.09,2.48c0.06,0.347,0.178,0.679,0.355,0.996h-1.469
				C556.501,59.106,556.407,58.766,556.366,58.375z M556.249,55.234c-0.511,0.208-1.276,0.386-2.297,0.531
				c-0.578,0.083-0.987,0.177-1.227,0.281c-0.24,0.104-0.425,0.257-0.555,0.457c-0.13,0.2-0.195,0.423-0.195,0.668
				c0,0.375,0.142,0.688,0.426,0.938c0.284,0.25,0.699,0.375,1.246,0.375c0.542,0,1.023-0.118,1.445-0.355s0.731-0.562,0.93-0.973
				c0.151-0.317,0.227-0.786,0.227-1.406V55.234z"/>
			<path fill="#3C3C3B" d="M340.749,74.918l1.43-0.125c0.067,0.573,0.225,1.043,0.473,1.41c0.247,0.367,0.631,0.664,1.152,0.891
				c0.521,0.227,1.106,0.34,1.758,0.34c0.578,0,1.088-0.086,1.531-0.258c0.442-0.172,0.772-0.407,0.988-0.707
				c0.216-0.3,0.324-0.626,0.324-0.98c0-0.359-0.104-0.673-0.312-0.941c-0.208-0.269-0.552-0.493-1.031-0.676
				c-0.308-0.12-0.987-0.306-2.039-0.559c-1.052-0.253-1.789-0.491-2.211-0.715c-0.547-0.286-0.955-0.642-1.223-1.066
				c-0.269-0.425-0.402-0.899-0.402-1.426c0-0.578,0.164-1.118,0.492-1.621s0.807-0.884,1.438-1.145
				c0.63-0.261,1.331-0.391,2.102-0.391c0.849,0,1.598,0.137,2.246,0.41s1.147,0.676,1.496,1.207
				c0.349,0.531,0.536,1.133,0.562,1.805l-1.453,0.109c-0.078-0.724-0.343-1.271-0.793-1.641c-0.451-0.37-1.116-0.555-1.996-0.555
				c-0.917,0-1.585,0.168-2.004,0.504c-0.419,0.336-0.629,0.741-0.629,1.215c0,0.411,0.148,0.75,0.445,1.016
				c0.292,0.266,1.053,0.538,2.285,0.816c1.231,0.278,2.077,0.522,2.535,0.73c0.667,0.308,1.159,0.696,1.477,1.168
				c0.317,0.472,0.477,1.015,0.477,1.629c0,0.609-0.175,1.184-0.523,1.723c-0.349,0.539-0.851,0.958-1.504,1.258
				c-0.654,0.3-1.39,0.449-2.207,0.449c-1.037,0-1.905-0.151-2.605-0.453c-0.701-0.302-1.25-0.757-1.648-1.363
				S340.769,75.684,340.749,74.918z"/>
			<path fill="#3C3C3B" d="M357.436,75.926l1.453,0.18c-0.229,0.849-0.654,1.508-1.273,1.977c-0.62,0.469-1.412,0.703-2.375,0.703
				c-1.214,0-2.176-0.374-2.887-1.121s-1.066-1.796-1.066-3.145c0-1.396,0.359-2.479,1.078-3.25s1.651-1.156,2.797-1.156
				c1.109,0,2.016,0.378,2.719,1.133s1.055,1.817,1.055,3.188c0,0.083-0.003,0.208-0.008,0.375h-6.188
				c0.052,0.911,0.31,1.609,0.773,2.094c0.463,0.484,1.042,0.727,1.734,0.727c0.516,0,0.956-0.136,1.32-0.406
				C356.933,76.952,357.222,76.52,357.436,75.926z M352.819,73.652h4.633c-0.062-0.698-0.24-1.222-0.531-1.57
				c-0.448-0.542-1.029-0.812-1.742-0.812c-0.646,0-1.189,0.216-1.629,0.648C353.109,72.351,352.866,72.929,352.819,73.652z"/>
			<path fill="#3C3C3B" d="M360.655,78.598v-8.297h1.266v1.18c0.609-0.911,1.489-1.367,2.641-1.367c0.5,0,0.959,0.09,1.379,0.27
				c0.419,0.18,0.733,0.415,0.941,0.707c0.208,0.292,0.354,0.638,0.438,1.039c0.052,0.261,0.078,0.716,0.078,1.367v5.102h-1.406
				v-5.047c0-0.573-0.055-1.001-0.164-1.285s-0.304-0.511-0.582-0.68c-0.279-0.169-0.605-0.254-0.98-0.254
				c-0.599,0-1.116,0.19-1.551,0.57c-0.435,0.38-0.652,1.102-0.652,2.164v4.531H360.655z"/>
			<path fill="#3C3C3B" d="M372.624,77.34l0.203,1.242c-0.396,0.083-0.75,0.125-1.062,0.125c-0.511,0-0.906-0.081-1.188-0.242
				s-0.479-0.374-0.594-0.637c-0.115-0.263-0.172-0.816-0.172-1.66v-4.773h-1.031v-1.094h1.031v-2.055l1.398-0.844v2.898h1.414
				v1.094h-1.414v4.852c0,0.401,0.024,0.659,0.074,0.773c0.049,0.114,0.13,0.206,0.242,0.273c0.112,0.067,0.272,0.102,0.48,0.102
				C372.163,77.395,372.368,77.376,372.624,77.34z"/>
			<path fill="#3C3C3B" d="M379.678,75.926l1.453,0.18c-0.229,0.849-0.654,1.508-1.273,1.977c-0.62,0.469-1.412,0.703-2.375,0.703
				c-1.214,0-2.176-0.374-2.887-1.121s-1.066-1.796-1.066-3.145c0-1.396,0.359-2.479,1.078-3.25s1.651-1.156,2.797-1.156
				c1.109,0,2.016,0.378,2.719,1.133s1.055,1.817,1.055,3.188c0,0.083-0.003,0.208-0.008,0.375h-6.188
				c0.052,0.911,0.31,1.609,0.773,2.094c0.463,0.484,1.042,0.727,1.734,0.727c0.516,0,0.956-0.136,1.32-0.406
				C379.175,76.952,379.464,76.52,379.678,75.926z M375.061,73.652h4.633c-0.062-0.698-0.24-1.222-0.531-1.57
				c-0.448-0.542-1.029-0.812-1.742-0.812c-0.646,0-1.189,0.216-1.629,0.648C375.351,72.351,375.108,72.929,375.061,73.652z"/>
			<path fill="#3C3C3B" d="M382.897,78.598v-8.297h1.266v1.18c0.609-0.911,1.489-1.367,2.641-1.367c0.5,0,0.959,0.09,1.379,0.27
				c0.419,0.18,0.733,0.415,0.941,0.707c0.208,0.292,0.354,0.638,0.438,1.039c0.052,0.261,0.078,0.716,0.078,1.367v5.102h-1.406
				v-5.047c0-0.573-0.055-1.001-0.164-1.285s-0.304-0.511-0.582-0.68c-0.279-0.169-0.605-0.254-0.98-0.254
				c-0.599,0-1.116,0.19-1.551,0.57c-0.435,0.38-0.652,1.102-0.652,2.164v4.531H382.897z"/>
			<path fill="#3C3C3B" d="M397.209,75.559l1.383,0.18c-0.151,0.953-0.538,1.699-1.16,2.238c-0.623,0.539-1.387,0.809-2.293,0.809
				c-1.136,0-2.048-0.371-2.738-1.113c-0.69-0.742-1.035-1.806-1.035-3.191c0-0.896,0.148-1.68,0.445-2.352s0.749-1.176,1.355-1.512
				c0.606-0.336,1.267-0.504,1.98-0.504c0.901,0,1.638,0.228,2.211,0.684c0.573,0.456,0.94,1.103,1.102,1.941l-1.367,0.211
				c-0.13-0.558-0.361-0.977-0.691-1.258c-0.331-0.281-0.73-0.422-1.199-0.422c-0.708,0-1.284,0.254-1.727,0.762
				c-0.443,0.508-0.664,1.312-0.664,2.41c0,1.114,0.213,1.925,0.641,2.43c0.427,0.505,0.984,0.758,1.672,0.758
				c0.552,0,1.013-0.169,1.383-0.508C396.876,76.782,397.11,76.262,397.209,75.559z"/>
			<path fill="#3C3C3B" d="M399.803,68.762v-1.617h1.406v1.617H399.803z M399.803,78.598v-8.297h1.406v8.297H399.803z"/>
			<path fill="#3C3C3B" d="M408.764,77.574c-0.521,0.442-1.022,0.755-1.504,0.938c-0.482,0.183-0.999,0.273-1.551,0.273
				c-0.912,0-1.612-0.223-2.102-0.668c-0.49-0.445-0.734-1.015-0.734-1.707c0-0.406,0.092-0.777,0.277-1.113
				c0.185-0.336,0.427-0.605,0.727-0.809c0.299-0.203,0.637-0.356,1.012-0.461c0.276-0.073,0.692-0.144,1.25-0.211
				c1.135-0.136,1.971-0.297,2.508-0.484c0.005-0.192,0.008-0.315,0.008-0.367c0-0.573-0.133-0.977-0.398-1.211
				c-0.359-0.317-0.894-0.477-1.602-0.477c-0.662,0-1.15,0.116-1.465,0.348c-0.315,0.231-0.548,0.642-0.699,1.23l-1.375-0.188
				c0.125-0.589,0.331-1.063,0.617-1.426c0.286-0.362,0.7-0.641,1.242-0.836c0.542-0.195,1.169-0.293,1.883-0.293
				c0.708,0,1.284,0.083,1.727,0.25c0.442,0.167,0.768,0.376,0.977,0.629c0.208,0.253,0.354,0.571,0.438,0.957
				c0.047,0.239,0.07,0.672,0.07,1.297v1.875c0,1.308,0.03,2.134,0.09,2.48c0.06,0.347,0.178,0.679,0.355,0.996h-1.469
				C408.899,78.306,408.806,77.965,408.764,77.574z M408.647,74.434c-0.511,0.208-1.276,0.386-2.297,0.531
				c-0.578,0.083-0.987,0.177-1.227,0.281c-0.24,0.104-0.425,0.257-0.555,0.457c-0.13,0.2-0.195,0.423-0.195,0.668
				c0,0.375,0.142,0.688,0.426,0.938c0.284,0.25,0.699,0.375,1.246,0.375c0.542,0,1.023-0.118,1.445-0.355s0.731-0.562,0.93-0.973
				c0.151-0.317,0.227-0.786,0.227-1.406V74.434z"/>
			<path fill="#3C3C3B" d="M411.686,76.121l1.391-0.219c0.078,0.558,0.295,0.984,0.652,1.281c0.356,0.297,0.855,0.445,1.496,0.445
				c0.646,0,1.125-0.132,1.438-0.395s0.469-0.571,0.469-0.926c0-0.317-0.138-0.567-0.414-0.75c-0.193-0.125-0.672-0.284-1.438-0.477
				c-1.031-0.261-1.746-0.485-2.145-0.676s-0.701-0.453-0.906-0.789c-0.206-0.336-0.309-0.707-0.309-1.113
				c0-0.37,0.084-0.712,0.254-1.027c0.169-0.315,0.399-0.577,0.691-0.785c0.219-0.161,0.517-0.298,0.895-0.41
				c0.377-0.112,0.782-0.168,1.215-0.168c0.651,0,1.223,0.094,1.715,0.281s0.855,0.441,1.09,0.762s0.396,0.749,0.484,1.285
				l-1.375,0.188c-0.062-0.427-0.244-0.761-0.543-1c-0.3-0.239-0.723-0.359-1.27-0.359c-0.646,0-1.107,0.106-1.383,0.32
				c-0.276,0.214-0.414,0.464-0.414,0.75c0,0.183,0.057,0.347,0.172,0.492c0.114,0.151,0.294,0.276,0.539,0.375
				c0.141,0.052,0.555,0.172,1.242,0.359c0.995,0.266,1.688,0.483,2.082,0.652c0.393,0.169,0.702,0.415,0.926,0.738
				c0.224,0.323,0.336,0.724,0.336,1.203c0,0.469-0.137,0.91-0.41,1.324s-0.668,0.734-1.184,0.961s-1.099,0.34-1.75,0.34
				c-1.078,0-1.9-0.224-2.465-0.672C412.203,77.665,411.842,77.001,411.686,76.121z"/>
			<path fill="#3C3C3B" d="M430.077,78.598v-1.047c-0.526,0.823-1.3,1.234-2.32,1.234c-0.662,0-1.27-0.183-1.824-0.547
				s-0.984-0.874-1.289-1.527s-0.457-1.405-0.457-2.254c0-0.828,0.138-1.579,0.414-2.254c0.276-0.675,0.69-1.191,1.242-1.551
				c0.552-0.359,1.169-0.539,1.852-0.539c0.5,0,0.945,0.105,1.336,0.316s0.708,0.485,0.953,0.824v-4.109h1.398v11.453H430.077z
				 M425.631,74.457c0,1.062,0.224,1.856,0.672,2.383c0.448,0.526,0.977,0.789,1.586,0.789c0.614,0,1.137-0.251,1.566-0.754
				s0.645-1.27,0.645-2.301c0-1.136-0.219-1.969-0.656-2.5s-0.977-0.797-1.617-0.797c-0.625,0-1.147,0.255-1.566,0.766
				C425.841,72.554,425.631,73.358,425.631,74.457z"/>
			<path fill="#3C3C3B" d="M439.272,75.926l1.453,0.18c-0.229,0.849-0.654,1.508-1.273,1.977c-0.62,0.469-1.412,0.703-2.375,0.703
				c-1.214,0-2.176-0.374-2.887-1.121s-1.066-1.796-1.066-3.145c0-1.396,0.359-2.479,1.078-3.25s1.651-1.156,2.797-1.156
				c1.109,0,2.016,0.378,2.719,1.133s1.055,1.817,1.055,3.188c0,0.083-0.003,0.208-0.008,0.375h-6.188
				c0.052,0.911,0.31,1.609,0.773,2.094c0.463,0.484,1.042,0.727,1.734,0.727c0.516,0,0.956-0.136,1.32-0.406
				C438.769,76.952,439.058,76.52,439.272,75.926z M434.655,73.652h4.633c-0.062-0.698-0.24-1.222-0.531-1.57
				c-0.448-0.542-1.029-0.812-1.742-0.812c-0.646,0-1.189,0.216-1.629,0.648C434.945,72.351,434.702,72.929,434.655,73.652z"/>
			<path fill="#3C3C3B" d="M446.342,75.348l1.367-0.188c0.036,0.875,0.2,1.474,0.492,1.797c0.292,0.323,0.695,0.484,1.211,0.484
				c0.38,0,0.708-0.087,0.984-0.262c0.276-0.175,0.466-0.411,0.57-0.711c0.104-0.3,0.156-0.777,0.156-1.434v-7.891h1.516v7.805
				c0,0.958-0.116,1.7-0.348,2.227c-0.232,0.526-0.599,0.927-1.102,1.203c-0.503,0.276-1.093,0.414-1.77,0.414
				c-1.005,0-1.775-0.289-2.309-0.867C446.578,77.348,446.321,76.488,446.342,75.348z"/>
			<path fill="#3C3C3B" d="M460.374,78.598v-1.219c-0.646,0.938-1.523,1.406-2.633,1.406c-0.49,0-0.947-0.094-1.371-0.281
				c-0.425-0.188-0.74-0.423-0.945-0.707c-0.206-0.284-0.351-0.632-0.434-1.043c-0.058-0.276-0.086-0.714-0.086-1.312v-5.141h1.406
				v4.602c0,0.734,0.028,1.229,0.086,1.484c0.088,0.37,0.276,0.66,0.562,0.871c0.286,0.211,0.641,0.316,1.062,0.316
				s0.817-0.108,1.188-0.324c0.37-0.216,0.631-0.511,0.785-0.883c0.153-0.372,0.23-0.913,0.23-1.621v-4.445h1.406v8.297H460.374z"/>
			<path fill="#3C3C3B" d="M463.272,76.121l1.391-0.219c0.078,0.558,0.295,0.984,0.652,1.281c0.356,0.297,0.855,0.445,1.496,0.445
				c0.646,0,1.125-0.132,1.438-0.395s0.469-0.571,0.469-0.926c0-0.317-0.138-0.567-0.414-0.75c-0.193-0.125-0.672-0.284-1.438-0.477
				c-1.031-0.261-1.746-0.485-2.145-0.676s-0.701-0.453-0.906-0.789c-0.206-0.336-0.309-0.707-0.309-1.113
				c0-0.37,0.084-0.712,0.254-1.027c0.169-0.315,0.399-0.577,0.691-0.785c0.219-0.161,0.517-0.298,0.895-0.41
				c0.377-0.112,0.782-0.168,1.215-0.168c0.651,0,1.223,0.094,1.715,0.281s0.855,0.441,1.09,0.762s0.396,0.749,0.484,1.285
				l-1.375,0.188c-0.062-0.427-0.244-0.761-0.543-1c-0.3-0.239-0.723-0.359-1.27-0.359c-0.646,0-1.107,0.106-1.383,0.32
				c-0.276,0.214-0.414,0.464-0.414,0.75c0,0.183,0.057,0.347,0.172,0.492c0.114,0.151,0.294,0.276,0.539,0.375
				c0.141,0.052,0.555,0.172,1.242,0.359c0.995,0.266,1.688,0.483,2.082,0.652c0.393,0.169,0.702,0.415,0.926,0.738
				c0.224,0.323,0.336,0.724,0.336,1.203c0,0.469-0.137,0.91-0.41,1.324s-0.668,0.734-1.184,0.961s-1.099,0.34-1.75,0.34
				c-1.078,0-1.9-0.224-2.465-0.672C463.789,77.665,463.428,77.001,463.272,76.121z"/>
			<path fill="#3C3C3B" d="M474.905,77.34l0.203,1.242c-0.396,0.083-0.75,0.125-1.062,0.125c-0.511,0-0.906-0.081-1.188-0.242
				s-0.479-0.374-0.594-0.637c-0.115-0.263-0.172-0.816-0.172-1.66v-4.773h-1.031v-1.094h1.031v-2.055l1.398-0.844v2.898h1.414
				v1.094h-1.414v4.852c0,0.401,0.024,0.659,0.074,0.773c0.049,0.114,0.13,0.206,0.242,0.273c0.112,0.067,0.272,0.102,0.48,0.102
				C474.444,77.395,474.649,77.376,474.905,77.34z"/>
			<path fill="#3C3C3B" d="M476.288,68.762v-1.617h1.406v1.617H476.288z M476.288,78.598v-8.297h1.406v8.297H476.288z"/>
			<path fill="#3C3C3B" d="M485.249,75.559l1.383,0.18c-0.151,0.953-0.538,1.699-1.16,2.238c-0.623,0.539-1.387,0.809-2.293,0.809
				c-1.136,0-2.048-0.371-2.738-1.113c-0.69-0.742-1.035-1.806-1.035-3.191c0-0.896,0.148-1.68,0.445-2.352s0.749-1.176,1.355-1.512
				c0.606-0.336,1.267-0.504,1.98-0.504c0.901,0,1.638,0.228,2.211,0.684c0.573,0.456,0.94,1.103,1.102,1.941l-1.367,0.211
				c-0.13-0.558-0.361-0.977-0.691-1.258c-0.331-0.281-0.73-0.422-1.199-0.422c-0.708,0-1.284,0.254-1.727,0.762
				c-0.443,0.508-0.664,1.312-0.664,2.41c0,1.114,0.213,1.925,0.641,2.43c0.427,0.505,0.984,0.758,1.672,0.758
				c0.552,0,1.013-0.169,1.383-0.508C484.915,76.782,485.149,76.262,485.249,75.559z"/>
			<path fill="#3C3C3B" d="M487.842,68.762v-1.617h1.406v1.617H487.842z M487.842,78.598v-8.297h1.406v8.297H487.842z"/>
			<path fill="#3C3C3B" d="M496.803,77.574c-0.521,0.442-1.022,0.755-1.504,0.938c-0.482,0.183-0.999,0.273-1.551,0.273
				c-0.912,0-1.612-0.223-2.102-0.668c-0.49-0.445-0.734-1.015-0.734-1.707c0-0.406,0.092-0.777,0.277-1.113
				c0.185-0.336,0.427-0.605,0.727-0.809c0.299-0.203,0.637-0.356,1.012-0.461c0.276-0.073,0.692-0.144,1.25-0.211
				c1.135-0.136,1.971-0.297,2.508-0.484c0.005-0.192,0.008-0.315,0.008-0.367c0-0.573-0.133-0.977-0.398-1.211
				c-0.359-0.317-0.894-0.477-1.602-0.477c-0.662,0-1.15,0.116-1.465,0.348c-0.315,0.231-0.548,0.642-0.699,1.23l-1.375-0.188
				c0.125-0.589,0.331-1.063,0.617-1.426c0.286-0.362,0.7-0.641,1.242-0.836c0.542-0.195,1.169-0.293,1.883-0.293
				c0.708,0,1.284,0.083,1.727,0.25c0.442,0.167,0.768,0.376,0.977,0.629c0.208,0.253,0.354,0.571,0.438,0.957
				c0.047,0.239,0.07,0.672,0.07,1.297v1.875c0,1.308,0.03,2.134,0.09,2.48c0.06,0.347,0.178,0.679,0.355,0.996h-1.469
				C496.938,78.306,496.845,77.965,496.803,77.574z M496.686,74.434c-0.511,0.208-1.276,0.386-2.297,0.531
				c-0.578,0.083-0.987,0.177-1.227,0.281c-0.24,0.104-0.425,0.257-0.555,0.457c-0.13,0.2-0.195,0.423-0.195,0.668
				c0,0.375,0.142,0.688,0.426,0.938c0.284,0.25,0.699,0.375,1.246,0.375c0.542,0,1.023-0.118,1.445-0.355s0.731-0.562,0.93-0.973
				c0.151-0.317,0.227-0.786,0.227-1.406V74.434z"/>
			<path fill="#3C3C3B" d="M504.67,81.793l-0.156-1.32c0.307,0.083,0.575,0.125,0.805,0.125c0.312,0,0.562-0.052,0.75-0.156
				s0.341-0.25,0.461-0.438c0.088-0.141,0.231-0.489,0.43-1.047c0.026-0.078,0.067-0.192,0.125-0.344l-3.148-8.312h1.516
				l1.727,4.805c0.224,0.609,0.424,1.25,0.602,1.922c0.161-0.646,0.354-1.276,0.578-1.891l1.773-4.836h1.406l-3.156,8.438
				c-0.339,0.911-0.602,1.539-0.789,1.883c-0.25,0.464-0.537,0.804-0.859,1.02c-0.323,0.216-0.708,0.324-1.156,0.324
				C505.306,81.965,505.003,81.907,504.67,81.793z"/>
			<path fill="#3C3C3B" d="M517.358,78.598V67.145h4.32c0.76,0,1.341,0.036,1.742,0.109c0.562,0.094,1.034,0.272,1.414,0.535
				c0.38,0.263,0.686,0.632,0.918,1.105c0.231,0.474,0.348,0.995,0.348,1.562c0,0.974-0.31,1.798-0.93,2.473
				c-0.62,0.675-1.74,1.012-3.359,1.012h-2.938v4.656H517.358z M518.874,72.59h2.961c0.979,0,1.674-0.183,2.086-0.547
				c0.411-0.364,0.617-0.878,0.617-1.539c0-0.479-0.121-0.89-0.363-1.23s-0.562-0.566-0.957-0.676
				c-0.255-0.067-0.727-0.102-1.414-0.102h-2.93V72.59z"/>
			<path fill="#3C3C3B" d="M533.264,77.574c-0.521,0.442-1.022,0.755-1.504,0.938c-0.482,0.183-0.999,0.273-1.551,0.273
				c-0.912,0-1.612-0.223-2.102-0.668c-0.49-0.445-0.734-1.015-0.734-1.707c0-0.406,0.092-0.777,0.277-1.113
				c0.185-0.336,0.427-0.605,0.727-0.809c0.299-0.203,0.637-0.356,1.012-0.461c0.276-0.073,0.692-0.144,1.25-0.211
				c1.135-0.136,1.971-0.297,2.508-0.484c0.005-0.192,0.008-0.315,0.008-0.367c0-0.573-0.133-0.977-0.398-1.211
				c-0.359-0.317-0.894-0.477-1.602-0.477c-0.662,0-1.15,0.116-1.465,0.348c-0.315,0.231-0.548,0.642-0.699,1.23l-1.375-0.188
				c0.125-0.589,0.331-1.063,0.617-1.426c0.286-0.362,0.7-0.641,1.242-0.836c0.542-0.195,1.169-0.293,1.883-0.293
				c0.708,0,1.284,0.083,1.727,0.25c0.442,0.167,0.768,0.376,0.977,0.629c0.208,0.253,0.354,0.571,0.438,0.957
				c0.047,0.239,0.07,0.672,0.07,1.297v1.875c0,1.308,0.03,2.134,0.09,2.48c0.06,0.347,0.178,0.679,0.355,0.996h-1.469
				C533.399,78.306,533.306,77.965,533.264,77.574z M533.147,74.434c-0.511,0.208-1.276,0.386-2.297,0.531
				c-0.578,0.083-0.987,0.177-1.227,0.281c-0.24,0.104-0.425,0.257-0.555,0.457c-0.13,0.2-0.195,0.423-0.195,0.668
				c0,0.375,0.142,0.688,0.426,0.938c0.284,0.25,0.699,0.375,1.246,0.375c0.542,0,1.023-0.118,1.445-0.355s0.731-0.562,0.93-0.973
				c0.151-0.317,0.227-0.786,0.227-1.406V74.434z"/>
			<path fill="#3C3C3B" d="M536.006,78.598v-1.141l5.281-6.062c-0.599,0.031-1.128,0.047-1.586,0.047h-3.383v-1.141h6.781v0.93
				l-4.492,5.266l-0.867,0.961c0.63-0.047,1.221-0.07,1.773-0.07h3.836v1.211H536.006z"/>
			<path fill="#3C3C3B" d="M545.139,71.902v-1.602h1.602v1.602H545.139z M545.139,78.598v-1.602h1.602v1.602H545.139z"/>
			<path fill="#3C3C3B" d="M561.991,74.582l1.516,0.383c-0.318,1.245-0.89,2.194-1.715,2.848c-0.826,0.653-1.835,0.98-3.027,0.98
				c-1.234,0-2.238-0.251-3.012-0.754s-1.362-1.23-1.766-2.184c-0.404-0.953-0.605-1.977-0.605-3.07
				c0-1.192,0.228-2.233,0.684-3.121c0.456-0.888,1.104-1.562,1.945-2.023c0.841-0.461,1.767-0.691,2.777-0.691
				c1.146,0,2.109,0.292,2.891,0.875s1.325,1.403,1.633,2.461l-1.492,0.352c-0.266-0.833-0.651-1.44-1.156-1.82
				c-0.505-0.38-1.141-0.57-1.906-0.57c-0.88,0-1.616,0.211-2.207,0.633c-0.591,0.422-1.007,0.988-1.246,1.699
				c-0.24,0.711-0.359,1.444-0.359,2.199c0,0.974,0.142,1.824,0.426,2.551c0.284,0.727,0.725,1.27,1.324,1.629
				c0.599,0.359,1.247,0.539,1.945,0.539c0.849,0,1.567-0.245,2.156-0.734C561.384,76.272,561.782,75.546,561.991,74.582z"/>
			<path fill="#3C3C3B" d="M570.608,77.574c-0.521,0.442-1.022,0.755-1.504,0.938c-0.482,0.183-0.999,0.273-1.551,0.273
				c-0.912,0-1.612-0.223-2.102-0.668c-0.49-0.445-0.734-1.015-0.734-1.707c0-0.406,0.092-0.777,0.277-1.113
				c0.185-0.336,0.427-0.605,0.727-0.809c0.299-0.203,0.637-0.356,1.012-0.461c0.276-0.073,0.692-0.144,1.25-0.211
				c1.135-0.136,1.971-0.297,2.508-0.484c0.005-0.192,0.008-0.315,0.008-0.367c0-0.573-0.133-0.977-0.398-1.211
				c-0.359-0.317-0.894-0.477-1.602-0.477c-0.662,0-1.15,0.116-1.465,0.348c-0.315,0.231-0.548,0.642-0.699,1.23l-1.375-0.188
				c0.125-0.589,0.331-1.063,0.617-1.426c0.286-0.362,0.7-0.641,1.242-0.836c0.542-0.195,1.169-0.293,1.883-0.293
				c0.708,0,1.284,0.083,1.727,0.25c0.442,0.167,0.768,0.376,0.977,0.629c0.208,0.253,0.354,0.571,0.438,0.957
				c0.047,0.239,0.07,0.672,0.07,1.297v1.875c0,1.308,0.03,2.134,0.09,2.48c0.06,0.347,0.178,0.679,0.355,0.996h-1.469
				C570.743,78.306,570.649,77.965,570.608,77.574z M570.491,74.434c-0.511,0.208-1.276,0.386-2.297,0.531
				c-0.578,0.083-0.987,0.177-1.227,0.281c-0.24,0.104-0.425,0.257-0.555,0.457c-0.13,0.2-0.195,0.423-0.195,0.668
				c0,0.375,0.142,0.688,0.426,0.938c0.284,0.25,0.699,0.375,1.246,0.375c0.542,0,1.023-0.118,1.445-0.355s0.731-0.562,0.93-0.973
				c0.151-0.317,0.227-0.786,0.227-1.406V74.434z"/>
			<path fill="#3C3C3B" d="M574.061,78.598V67.145h1.406v11.453H574.061z"/>
			<path fill="#3C3C3B" d="M577.655,68.762v-1.617h1.406v1.617H577.655z M577.655,78.598v-8.297h1.406v8.297H577.655z"/>
			<path fill="#3C3C3B" d="M581.202,78.598v-8.297h1.258v1.164c0.26-0.406,0.606-0.733,1.039-0.98
				c0.432-0.247,0.924-0.371,1.477-0.371c0.614,0,1.118,0.128,1.512,0.383c0.393,0.255,0.67,0.612,0.832,1.07
				c0.656-0.969,1.51-1.453,2.562-1.453c0.823,0,1.456,0.228,1.898,0.684c0.442,0.456,0.664,1.157,0.664,2.105v5.695h-1.398v-5.227
				c0-0.562-0.046-0.968-0.137-1.215c-0.091-0.247-0.257-0.446-0.496-0.598c-0.24-0.151-0.521-0.227-0.844-0.227
				c-0.583,0-1.068,0.194-1.453,0.582c-0.386,0.388-0.578,1.009-0.578,1.863v4.82h-1.406v-5.391c0-0.625-0.115-1.094-0.344-1.406
				c-0.229-0.312-0.604-0.469-1.125-0.469c-0.396,0-0.762,0.104-1.098,0.312s-0.58,0.513-0.73,0.914
				c-0.151,0.401-0.227,0.979-0.227,1.734v4.305H581.202z"/>
			<path fill="#3C3C3B" d="M599.944,77.574c-0.521,0.442-1.022,0.755-1.504,0.938c-0.482,0.183-0.999,0.273-1.551,0.273
				c-0.912,0-1.612-0.223-2.102-0.668c-0.49-0.445-0.734-1.015-0.734-1.707c0-0.406,0.092-0.777,0.277-1.113
				c0.185-0.336,0.427-0.605,0.727-0.809c0.299-0.203,0.637-0.356,1.012-0.461c0.276-0.073,0.692-0.144,1.25-0.211
				c1.135-0.136,1.971-0.297,2.508-0.484c0.005-0.192,0.008-0.315,0.008-0.367c0-0.573-0.133-0.977-0.398-1.211
				c-0.359-0.317-0.894-0.477-1.602-0.477c-0.662,0-1.15,0.116-1.465,0.348c-0.315,0.231-0.548,0.642-0.699,1.23l-1.375-0.188
				c0.125-0.589,0.331-1.063,0.617-1.426c0.286-0.362,0.7-0.641,1.242-0.836c0.542-0.195,1.169-0.293,1.883-0.293
				c0.708,0,1.284,0.083,1.727,0.25c0.442,0.167,0.768,0.376,0.977,0.629c0.208,0.253,0.354,0.571,0.438,0.957
				c0.047,0.239,0.07,0.672,0.07,1.297v1.875c0,1.308,0.03,2.134,0.09,2.48c0.06,0.347,0.178,0.679,0.355,0.996h-1.469
				C600.079,78.306,599.985,77.965,599.944,77.574z M599.827,74.434c-0.511,0.208-1.276,0.386-2.297,0.531
				c-0.578,0.083-0.987,0.177-1.227,0.281c-0.24,0.104-0.425,0.257-0.555,0.457c-0.13,0.2-0.195,0.423-0.195,0.668
				c0,0.375,0.142,0.688,0.426,0.938c0.284,0.25,0.699,0.375,1.246,0.375c0.542,0,1.023-0.118,1.445-0.355s0.731-0.562,0.93-0.973
				c0.151-0.317,0.227-0.786,0.227-1.406V74.434z"/>
		</g>
	</g>
	<path fill="#F39200" d="M1.874,59.511l0.708,0.743c0.027,0.028,0.043,0.066,0.046,0.104l0.034,0.44l0.099,0.486l0.296,0.783
		c0.005,0.012,0.008,0.023,0.009,0.036l0.034,0.237c0.002,0.014,0.002,0.031,0,0.047l-0.034,0.236l-0.07,0.317l-0.275,0.795
		l-0.057,0.348l0.027,0.154l0.397,0.929l1.604,2.335c0.009,0.013,0.017,0.025,0.021,0.041l0.067,0.203
		c0.004,0.013,0.007,0.025,0.008,0.038l0.064,0.711l0.075,0.148l0.161,0.161l0.647,0.292l0.679,0.157l0.825,0.277l0.475,0.06
		l0.385-0.002l1.018-0.394c0.021-0.01,0.044-0.015,0.069-0.013l0.673,0.032l0.617-0.245l0.35-0.288
		c0.014-0.011,0.028-0.02,0.044-0.026l0.169-0.067l0.634-0.143l0.643-0.069l0.35-0.117l0.241-0.241
		c0.015-0.016,0.033-0.026,0.053-0.036l0.237-0.102c0.012-0.005,0.025-0.01,0.038-0.011l0.406-0.067l0.635-0.003l0.26,0.036
		l0.464,0.141l2.015,0.953c0.026,0.013,0.048,0.032,0.064,0.054l0.271,0.372c0.025,0.033,0.036,0.075,0.032,0.115l-0.067,0.676
		c-0.003,0.025-0.011,0.051-0.026,0.073l-0.327,0.523l-0.208,0.623l0.058,0.116l0.183,0.183l1.333,0.995l0.285,0.158l0.246,0.091
		l0.433,0.249c0.024,0.014,0.045,0.036,0.06,0.059l0.338,0.575c0.027,0.044,0.03,0.102,0.01,0.152l-0.343,0.784
		c-0.021,0.044-0.06,0.075-0.107,0.089l-0.34,0.092l-0.057,0.045L18.8,75.227c-0.004,0.016-0.01,0.033-0.018,0.046l-0.203,0.373
		c-0.01,0.019-0.022,0.033-0.037,0.046l-0.777,0.679l-0.347,1.012v0.253l0.095,0.35c0.005,0.021,0.007,0.041,0.005,0.062l0,0l0,0
		l-0.034,0.337l-0.07,0.355c-0.002,0.011-0.005,0.021-0.01,0.031l-0.5,1.178l0.981,0.293l0.146,0.044l0.262-0.058
		c0.044-0.011,0.092-0.002,0.131,0.025l0.202,0.134l0.147,0.062l1.087-0.384c0.018-0.005,0.038-0.01,0.057-0.01h0.339l0.256-0.102
		l0.051-0.021c0.02-0.01,0.042-0.013,0.063-0.013h0.169c0.038,0,0.076,0.016,0.106,0.038l0.101,0.084l0.248,0.2l0.35,0.115h0.208
		l0.179-0.025l0.14-0.085l0.687-0.589c0.01-0.01,0.021-0.018,0.034-0.025l0.135-0.066l0.738-0.213l0.933-0.14l0.724-0.2
		c0.038-0.01,0.079-0.008,0.114,0.01l0.373,0.17c0.029,0.013,0.055,0.033,0.072,0.062l1.333,2.065l0.21,0.151
		c0.018,0.01,0.031,0.025,0.042,0.043l0.203,0.306c0.012,0.017,0.021,0.037,0.025,0.06l0.034,0.168
		c0.004,0.018,0.004,0.038,0.002,0.056l0,0l0,0l-0.033,0.239l-0.104,0.482l-0.11,0.267c-0.008,0.018-0.018,0.034-0.029,0.048
		l-0.507,0.571c-0.01,0.013-0.022,0.025-0.036,0.033l-1.023,0.638l-0.078,0.316l0.099,1.897l0.234,1.09l0.03,0.741h0.581
		l1.809,0.103l0.561-0.125l0.562-0.312l0.487-0.553l1.167-1.769c0.023-0.034,0.057-0.06,0.097-0.071l0.321-0.086l0.05-0.016l0,0l0,0
		c0.034-0.01,0.069-0.007,0.103,0.004l0.371,0.136c0.012,0.004,0.023,0.011,0.034,0.016l0.371,0.237l0.747,0.289
		c0.03,0.012,0.056,0.031,0.075,0.058l0.372,0.506l0.444,0.683c0.013,0.021,0.023,0.045,0.026,0.068l0.024,0.173l0.355,0.297
		c0.021,0.017,0.039,0.04,0.049,0.066l0.27,0.676l0.105,0.313c0.005,0.017,0.008,0.035,0.008,0.052v0.305
		c0,0.015-0.001,0.03-0.006,0.043l-0.101,0.371l-0.381,0.807l-0.12,0.361l-0.066,1.946l0.192,0.928l0.538,0.76l0.395,0.305
		l1.592,0.497l0.916,0.438l0.655,0.131l3.151,0.098l0.293-0.087l0.199-0.116l0.188-0.185c0.009-0.011,0.019-0.019,0.03-0.024
		l0.27-0.169l0.352-0.174c0.013-0.009,0.025-0.014,0.039-0.017l0.304-0.067c0.014-0.003,0.029-0.006,0.044-0.003l0,0l0,0
		l0.691,0.032l0.327-0.056l0.143-0.165l0.091-0.244c0.01-0.025,0.026-0.05,0.047-0.066l0.127-0.111l-2.058-1.874l-0.159-0.046
		l-0.839,0.163c-0.021,0.003-0.042,0.003-0.063,0l-1.047-0.203c-0.018-0.003-0.037-0.011-0.053-0.02l-0.406-0.236
		c-0.016-0.009-0.028-0.021-0.041-0.034l-0.271-0.302c-0.01-0.013-0.018-0.025-0.023-0.038l-0.271-0.54
		c-0.009-0.019-0.015-0.037-0.016-0.056l-0.035-0.271c-0.001-0.011-0.001-0.023,0-0.034l0.27-2.973l0.071-0.295
		c0.006-0.022,0.017-0.043,0.029-0.062l0.428-0.561l0.153-0.332l0.13-0.757c0.003-0.015,0.007-0.028,0.013-0.041l0.507-1.114
		l1.43-2.248c0.011-0.021,0.027-0.035,0.046-0.048l0.195-0.135l-0.511-0.235l-0.844-0.032c-0.018,0-0.037-0.004-0.053-0.011
		l-0.811-0.304l-0.377-0.203l-1.672-0.502c-0.012-0.002-0.025-0.008-0.036-0.016l-0.81-0.473c-0.013-0.008-0.024-0.018-0.034-0.027
		l-0.607-0.607c-0.01-0.01-0.019-0.021-0.025-0.03l-0.979-1.587l-1.158-1.488l-1.639-1.27c-0.017-0.013-0.032-0.032-0.042-0.051
		l-0.474-0.845c-0.013-0.021-0.019-0.046-0.021-0.071l-0.068-0.979l0.035-0.303c0.002-0.015,0.006-0.03,0.012-0.043l0.17-0.406
		c0.007-0.021,0.022-0.042,0.039-0.059l0.575-0.541l0.045-0.159l-0.064-0.646l-0.034-1.058c-0.002-0.039,0.011-0.079,0.036-0.11
		l0.371-0.472c0.015-0.019,0.032-0.034,0.051-0.044l0.305-0.168c0.033-0.02,0.072-0.027,0.11-0.02l0.405,0.068
		c0.021,0.002,0.042,0.011,0.062,0.023l0.237,0.146l0.297,0.03l0.389-0.001c0.012,0,0.025,0.001,0.038,0.006l0.395,0.089
		l0.577-0.183l0.11-0.065l0.02-0.038l-0.056-0.281l-0.037-0.424c-0.005-0.045,0.01-0.088,0.037-0.121l0.304-0.372
		c0.013-0.016,0.029-0.03,0.047-0.039l0.197-0.113l0.315-0.535l0.29-0.846l0.107-0.249c0.004-0.012,0.01-0.021,0.017-0.032
		l0.137-0.192v-0.279l-0.794-1.758c-0.016-0.035-0.019-0.073-0.01-0.111l0.304-1.213c0.021-0.089,0.108-0.144,0.195-0.125
		l0.708,0.134c0.033,0.006,0.063,0.023,0.088,0.047l0.337,0.337l1.2,0.939l0.395,0.062l0.531,0.03l1.765-0.467l0.722-0.298
		l1.609-0.804l0.519-0.36l0.526-0.459l0.521-0.624c0.021-0.025,0.046-0.044,0.076-0.053l0.304-0.1
		c0.051-0.019,0.108-0.01,0.151,0.02l0.81,0.574l0.741,0.672l0.378,0.174l0.643-0.026l0.223-0.393
		c0.008-0.013,0.017-0.025,0.028-0.035l0.269-0.27c0.012-0.013,0.025-0.022,0.04-0.03l0.427-0.227l-0.565-1.102
		c-0.013-0.025-0.02-0.055-0.019-0.085l0.034-0.676c0.001-0.021,0.006-0.045,0.017-0.063l0.438-0.913l0.443-1.493l-0.269-0.478
		l-0.269-0.602l-0.243-0.305l-0.368-0.275l-0.347-0.127c-0.021-0.007-0.039-0.017-0.055-0.031l-0.305-0.27l-0.623-0.727
		l-2.954-2.581c-0.02-0.02-0.035-0.04-0.044-0.062l-0.17-0.406c-0.008-0.021-0.012-0.041-0.012-0.063l0-0.005l0.034-1.487
		l-0.312-0.841l-0.439-0.376c-0.011-0.011-0.021-0.021-0.03-0.034l-0.275-0.396l-0.29-0.116c-0.018-0.007-0.033-0.017-0.046-0.026
		l-0.439-0.373c-0.041-0.036-0.063-0.087-0.06-0.14l0.034-0.506c0-0.015,0.004-0.03,0.008-0.043l0.067-0.201
		c0.01-0.03,0.026-0.057,0.051-0.075l0.193-0.165l0.116-0.557l-0.062-0.373c-0.004-0.016-0.004-0.032-0.002-0.051l0.068-0.506
		c0.007-0.053,0.04-0.1,0.086-0.124l0.057-0.033l-0.511-0.203l-1.423-0.296l-0.366-0.145c-0.013-0.005-0.025-0.012-0.036-0.02
		l-0.824-0.593l-0.562-0.187l-2.208-0.168l-1.032-0.205c-0.016-0.003-0.03-0.008-0.043-0.014l-0.757-0.38l-0.435,0.552l0.031,0.093
		l0.276,0.275c0.012,0.012,0.023,0.027,0.031,0.042l0.102,0.203c0.013,0.024,0.019,0.054,0.019,0.084l-0.035,0.774
		c0,0.015-0.003,0.026-0.005,0.038l-0.102,0.371c-0.004,0.016-0.01,0.03-0.019,0.043l-0.203,0.338
		c-0.007,0.013-0.015,0.022-0.025,0.033l-0.236,0.236c-0.015,0.015-0.033,0.025-0.052,0.035l-0.237,0.102l-0.602,0.144L35.2,46.662
		l-0.03,0.012l-0.12,0.117l-0.189,0.477c-0.004,0.01-0.01,0.021-0.017,0.029l-0.135,0.202c-0.007,0.013-0.017,0.023-0.026,0.031
		l-0.372,0.338c-0.059,0.054-0.147,0.06-0.213,0.012l-0.342-0.248l-0.007-0.001l-0.077-0.016l-0.179,0.066l-0.303,0.427
		c-0.039,0.059-0.113,0.085-0.182,0.069l-0.27-0.068c-0.03-0.008-0.057-0.022-0.079-0.044l-0.202-0.202
		c-0.013-0.014-0.023-0.029-0.032-0.045l-0.098-0.195l-0.24,0.24c-0.008,0.009-0.02,0.019-0.032,0.024l-0.168,0.103
		c-0.032,0.019-0.069,0.026-0.105,0.022l-0.304-0.034c-0.019-0.002-0.036-0.005-0.053-0.013l-0.101-0.048l-0.338-0.155
		c-0.017-0.008-0.031-0.021-0.044-0.03l-0.473-0.439l-1.195-0.792c-0.011-0.008-0.022-0.019-0.032-0.029l-0.111-0.126l-0.628,1.141
		c-0.007,0.013-0.015,0.025-0.023,0.034l-0.405,0.439l-0.188,0.151c-0.018,0.015-0.041,0.027-0.064,0.032l-0.75,0.17
		c-0.011,0.003-0.022,0.003-0.034,0.003c-0.009,0-0.018,0-0.027-0.003l-0.406-0.065l-0.696-0.208
		c-0.01-0.003-0.021-0.008-0.031-0.011l-1.317-0.711l-0.223-0.094c-0.031-0.013-0.056-0.036-0.074-0.062l-0.123-0.187l-0.357-0.321
		l-0.122-0.072l-1.096-0.33l-1-0.193l-0.376,0.062l-0.42,0.154l-0.352,0.256c-0.018,0.011-0.036,0.021-0.055,0.026
		c-0.02,0.004-0.041,0.008-0.06,0.004l0,0l0,0l-0.309-0.03l-0.067,0.017l-0.24,0.209l-0.194,0.195l-0.648,0.58
		c-0.019,0.019-0.041,0.029-0.065,0.036l-0.237,0.068c-0.025,0.008-0.053,0.009-0.079,0.003h-0.001l0,0l-0.032-0.007l-0.135-0.026
		c-0.025-0.005-0.048-0.016-0.069-0.03c-0.024,0.018-0.053,0.03-0.085,0.032c-0.03,0.002-0.058-0.002-0.084-0.015
		c-0.004-0.001-0.008-0.007-0.012-0.009c-0.021-0.009-0.039-0.023-0.054-0.042l-0.287-0.372H17.52c-0.038,0-0.076-0.014-0.105-0.037
		l-0.17-0.135c-0.012-0.011-0.018-0.026-0.027-0.04c-0.009-0.013-0.022-0.023-0.028-0.038l-0.033-0.102
		c-0.007-0.021-0.006-0.041-0.005-0.062c0,0-0.002-0.013-0.001-0.02c0.004-0.023,0.014-0.046,0.029-0.067c0,0,0-0.004,0.001-0.007
		l0,0l0,0l0.025-0.033l-0.423-0.198l-0.199,0.024l-0.384,0.16c-0.015,0.007-0.032,0.012-0.047,0.012l-0.338,0.034
		c-0.036,0.005-0.072-0.004-0.104-0.023l-0.169-0.1c-0.022-0.016-0.041-0.033-0.055-0.057l-0.303-0.471l-0.083-0.196l-0.131-0.522
		l-0.211-0.242l-0.336-0.564l-0.069-0.047l-0.891-0.855l-0.424,0.159l-0.357,0.226l-0.505,0.445l-0.198,0.273l0.333-0.046
		l0.318-0.127c0.044-0.018,0.091-0.015,0.133,0.003l0.372,0.17c0.038,0.017,0.069,0.047,0.085,0.086l0.102,0.236
		c0.027,0.063,0.012,0.138-0.037,0.186l-0.135,0.135c-0.035,0.037-0.086,0.056-0.136,0.05l-0.19-0.019l-0.067,0.294l-0.072,0.216
		c-0.014,0.046-0.046,0.08-0.087,0.101c-0.042,0.019-0.088,0.021-0.131,0.006l-0.317-0.114l-0.217,0.063l-0.676,1.256
		c-0.011,0.018-0.023,0.034-0.038,0.048l-1.722,1.484l-0.33,0.33l-0.523,0.723l-0.42,0.51l0.105-0.095
		c0.044-0.038,0.105-0.051,0.161-0.034c0.057,0.017,0.101,0.062,0.114,0.121l0.044,0.179l0.078,0.026l0.191-0.022l0.065-0.048
		c-0.004-0.024-0.002-0.05,0.004-0.074l0.067-0.236c0.019-0.066,0.078-0.114,0.147-0.119c0.069-0.008,0.135,0.028,0.167,0.09
		l0.059,0.12l0.277,0.023c0.021,0.003,0.042,0.008,0.061,0.018l0.135,0.069c0.037,0.018,0.064,0.048,0.08,0.083l0.101,0.235
		c0.019,0.045,0.019,0.09,0.002,0.132s-0.051,0.076-0.093,0.093L9.88,50.879L9.773,51.12c-0.013,0.03-0.034,0.056-0.061,0.073
		l-0.021,0.013l0.264,0.051c0.051,0.013,0.094,0.045,0.117,0.092l0.069,0.135c0.011,0.022,0.017,0.048,0.017,0.076v0.338
		c0,0.048-0.021,0.094-0.057,0.125l-0.283,0.253l-0.224,0.381c-0.039,0.066-0.118,0.099-0.191,0.077l-0.236-0.067
		c-0.023-0.006-0.046-0.019-0.063-0.034l-0.237-0.201l-0.372-0.372l-0.177-0.021l-0.207,0.162l-0.113,0.396v0.449l0.051,0.127
		l0.305-0.173c0.018-0.01,0.038-0.018,0.06-0.021l0.708-0.102c0.028-0.002,0.055,0,0.082,0.008l0.472,0.17
		c0.079,0.028,0.125,0.108,0.109,0.189l-0.102,0.54c-0.013,0.069-0.066,0.123-0.136,0.137c-0.07,0.01-0.139-0.021-0.175-0.081
		l-0.165-0.252l-0.252-0.105l-0.19,0.215C8.742,53.723,8.71,53.74,8.676,53.75l-0.304,0.066L8.053,53.85L7.78,54.013l-0.117,0.175
		l0.578,0.145c0.049,0.013,0.09,0.046,0.112,0.093l0.237,0.507c0.023,0.051,0.019,0.114-0.011,0.162
		c-0.03,0.049-0.085,0.076-0.142,0.076H8.268c-0.063,0-0.122-0.035-0.151-0.091l-0.067-0.134l-0.158-0.227l-0.195,0.045
		c-0.016,0.002-0.033,0.003-0.049,0.003l-0.439-0.033l-0.431-0.114l-0.066,0.085C6.7,54.719,6.685,54.729,6.67,54.741l-0.192,0.12
		l0.155,0.108h0.112l0.338-0.153c0.032-0.016,0.068-0.021,0.103-0.015l0.169,0.036c0.033,0.006,0.063,0.023,0.086,0.046l0.102,0.103
		c0.034,0.033,0.053,0.08,0.048,0.131c-0.002,0.048-0.027,0.091-0.066,0.122L7.39,55.341c-0.02,0.015-0.043,0.025-0.068,0.03
		l-0.337,0.067l-0.281,0.114l-0.248,0.218c-0.014,0.012-0.027,0.022-0.043,0.028l-0.303,0.135c-0.022,0.01-0.046,0.014-0.069,0.014
		l0,0c0.027,0.021,0.047,0.049,0.059,0.082c0.017,0.05,0.01,0.104-0.021,0.146l-0.114,0.173l-0.019,0.114l0.01,0.018l0.165,0.049
		c0.048,0.014,0.087,0.048,0.108,0.094c0.021,0.046,0.019,0.099-0.003,0.142l-0.083,0.168v0.104l0.053,0.068l0.234,0.025
		c0.086,0.01,0.15,0.081,0.15,0.168v0.203c0,0.078-0.056,0.146-0.13,0.163l0.277,0.25c0.011,0.011,0.02,0.022,0.027,0.032
		l0.271,0.406l0.145,0.288c0.012,0.023,0.019,0.049,0.019,0.074v0.406c0,0.026-0.007,0.052-0.019,0.076l-0.202,0.403
		c-0.011,0.023-0.025,0.041-0.042,0.056L6.52,59.994c-0.023,0.019-0.049,0.031-0.077,0.037l-0.54,0.102l-0.282,0.035l-0.556,0.131
		c-0.019,0.006-0.038,0.006-0.057,0.004l-0.304-0.034l-0.49-0.104l-0.255-0.031c-0.014-0.001-0.027-0.005-0.041-0.009l-0.438-0.17
		c-0.06-0.023-0.102-0.079-0.108-0.146l-0.034-0.403c-0.002-0.028,0.003-0.055,0.013-0.081l0.215-0.494l-0.044,0.014
		c-0.031,0.009-0.063,0.009-0.096,0l-0.236-0.065c-0.036-0.013-0.068-0.033-0.091-0.066l-0.169-0.236l-0.232-0.431l-0.274-0.245
		L2.1,57.775l-0.729,0.476c-0.028,0.018-0.06,0.028-0.093,0.028H0l1.844,1.208C1.855,59.494,1.865,59.503,1.874,59.511z"/>
	<g>
		<g>
			<g enable-background="new    ">
				<path fill="#331842" d="M354.674,5.527l-2.908,0.01V5.273c0-1.529-0.576-2.295-1.729-2.295c-1.231,0-1.847,1.413-1.847,4.238
					c0,3.184,0.646,4.775,1.939,4.775h0.013c1.292-0.006,1.939-0.787,1.939-2.344V8.682h3.249v0.732
					c0,3.242-1.786,4.938-5.358,5.088c-0.104,0.007-0.209,0.01-0.314,0.01c-3.362,0-5.043-2.408-5.043-7.227
					c0-4.713,1.729-7.07,5.188-7.07c3.257,0,4.886,1.576,4.886,4.727C354.688,5.131,354.683,5.326,354.674,5.527z"/>
				<path fill="#331842" d="M355.343,14.199c1.642-5.56,2.969-10.273,3.982-14.141L364.238,0c1.205,4.023,2.585,8.607,4.14,13.75
					l-3.354,0.508l-1.061-3.701h-4.074l-1.101,3.994L355.343,14.199z M363.858,7.812c-0.455-1.406-1.197-3.089-2.228-5.049
					c-0.794,1.647-1.467,3.354-2.017,5.117L363.858,7.812z"/>
				<path fill="#331842" d="M379.474,0.273v9.658c0,2.976-1.825,4.463-5.476,4.463h-0.288c-3.057-0.26-4.638-1.507-4.743-3.74
					c0-4.459-0.061-7.975-0.183-10.547h3.485c-0.087,1.472-0.131,3.2-0.131,5.186c0,1.394,0.022,2.917,0.065,4.57
					c0.018,1.211,0.603,1.816,1.756,1.816c0,0.007,0.004,0.01,0.013,0.01c1.144,0,1.716-0.774,1.716-2.324l-0.065-9.004
					L379.474,0.273z"/>
				<path fill="#331842" d="M390.793,5.527l-2.908,0.01V5.273c0-1.529-0.576-2.295-1.729-2.295c-1.231,0-1.847,1.413-1.847,4.238
					c0,3.184,0.646,4.775,1.939,4.775h0.013c1.292-0.006,1.939-0.787,1.939-2.344V8.682h3.249v0.732
					c0,3.242-1.786,4.938-5.358,5.088c-0.104,0.007-0.209,0.01-0.314,0.01c-3.362,0-5.043-2.408-5.043-7.227
					c0-4.713,1.729-7.07,5.188-7.07c3.257,0,4.886,1.576,4.886,4.727C390.806,5.131,390.802,5.326,390.793,5.527z"/>
				<path fill="#331842" d="M391.461,14.199c1.642-5.56,2.969-10.273,3.982-14.141L400.357,0c1.205,4.023,2.585,8.607,4.14,13.75
					l-3.354,0.508l-1.061-3.701h-4.074l-1.101,3.994L391.461,14.199z M399.977,7.812c-0.455-1.406-1.197-3.089-2.228-5.049
					c-0.794,1.647-1.467,3.354-2.017,5.117L399.977,7.812z"/>
			</g>
		</g>
	</g>
</g>
</svg>
