<?xml version="1.0" encoding="utf-8"?>
<!-- Generator: Adobe Illustrator 16.0.0, SVG Export Plug-In . SVG Version: 6.00 Build 0)  -->
<!DOCTYPE svg PUBLIC "-//W3C//DTD SVG 1.1//EN" "http://www.w3.org/Graphics/SVG/1.1/DTD/svg11.dtd">
<svg version="1.1" id="Capa_1" xmlns="http://www.w3.org/2000/svg" xmlns:xlink="http://www.w3.org/1999/xlink" x="0px" y="0px"
	 width="392.25px" height="114.557px" viewBox="0 0 392.25 114.557" enable-background="new 0 0 392.25 114.557"
	 xml:space="preserve">
<g>
	<path fill="#951B81" d="M0,61.264L392.25,50.67c0.063-5.221-6.075-50.599-6.075-50.599L386.172,0L0.187,10.555l-0.144,41.83
		L0,61.264z"/>
	<g>
		<g>
			<path fill="#FFFFFF" d="M18.053,45.997c-0.044-3.748-0.105-7.607-0.184-11.578c-0.079-3.98-0.175-8.066-0.287-12.26
				c1.712-0.188,3.292-0.297,4.739-0.326c4.028-0.08,7.008,0.463,8.941,1.627c2.628,1.594,4.045,4.609,4.252,9.043l0.024,1.201
				c0.075,3.803-0.364,6.525-1.316,8.17c-1.054,1.811-3.021,3.039-5.904,3.686c-1.664,0.379-3.495,0.588-5.494,0.627
				C21.333,46.216,19.743,46.151,18.053,45.997z M23.226,26.821c-0.182,3.664-0.238,7.203-0.171,10.615
				c0.025,1.291,0.065,2.559,0.119,3.803c0.524,0.08,1.024,0.113,1.502,0.105c1.312-0.027,2.41-0.387,3.292-1.084
				c1.205-0.936,1.776-2.994,1.714-6.174l-0.001-0.066c-0.078-3.203-0.716-5.293-1.915-6.271c-0.925-0.738-2.014-1.094-3.267-1.068
				C24.096,26.688,23.672,26.735,23.226,26.821z"/>
			<path fill="#FFFFFF" d="M44.4,28.974c5.177-0.102,7.815,2.41,7.917,7.537c0.012,0.621-0.012,1.289-0.072,2.004l-10.002,0.197
				c0.057,2.857,0.823,4.271,2.3,4.242l0.157-0.004c1.296-0.104,1.931-0.855,1.903-2.256c-0.006-0.301-0.042-0.633-0.109-1
				l5.324-0.188c0.084,4.236-2.358,6.432-7.324,6.586c-0.06,0.012-0.111,0.02-0.156,0.02c-4.729,0.094-7.146-2.535-7.252-7.883
				l-0.01-0.502C37.109,31.987,39.551,29.069,44.4,28.974z M41.644,35.653l5.057-0.102l-0.008-0.4
				c-0.04-2.023-0.829-3.02-2.365-2.99C42.673,32.194,41.778,33.358,41.644,35.653z"/>
			<path fill="#FFFFFF" d="M59.897,33.841l0.462,12.088l-5.481,0.143c-0.101-5.115-0.446-10.855-1.034-17.217l4.11-0.416
				l0.277,2.715c0.601-1.346,2.047-2.137,4.341-2.371c0.343-0.029,0.671-0.047,0.984-0.053c1.805-0.035,3.186,0.377,4.143,1.236
				c1.11,1.023,1.694,2.676,1.755,4.955l-4.961,0.465c0.011-0.189,0.016-0.373,0.012-0.551c-0.035-1.779-0.672-2.658-1.91-2.633
				l-0.089,0.002C61.075,32.288,60.205,32.833,59.897,33.841z"/>
			<path fill="#FFFFFF" d="M78.099,28.308c5.176-0.102,7.815,2.41,7.917,7.537c0.012,0.621-0.012,1.291-0.072,2.004L75.94,38.046
				c0.056,2.859,0.823,4.271,2.3,4.242l0.157-0.002c1.296-0.104,1.931-0.855,1.903-2.256c-0.006-0.301-0.043-0.635-0.109-1
				l5.324-0.189c0.083,4.238-2.358,6.434-7.324,6.586c-0.06,0.014-0.112,0.02-0.156,0.021c-4.729,0.092-7.146-2.535-7.252-7.885
				l-0.01-0.5C70.808,31.321,73.25,28.403,78.099,28.308z M75.343,34.987l5.057-0.1l-0.008-0.4c-0.04-2.023-0.828-3.021-2.365-2.99
				C76.372,31.53,75.477,32.692,75.343,34.987z"/>
			<path fill="#FFFFFF" d="M96.896,38.2l5.331,0.145c0.079,4.014-2.364,6.098-7.331,6.252c-0.06,0.014-0.111,0.02-0.156,0.02
				c-4.729,0.094-7.146-2.535-7.251-7.883l-0.01-0.5c0.036-5.74,2.5-8.688,7.392-8.84l0.179-0.004
				c4.505-0.088,6.796,1.791,6.872,5.639c0.004,0.223,0.001,0.445-0.009,0.668l-4.806,0.361l-0.008-0.4
				c-0.04-2.023-0.829-3.021-2.365-2.992c-1.566,0.031-2.317,1.688-2.252,4.969l0.011,0.551c0.159,3.545,0.985,5.303,2.477,5.273
				l0.135-0.002c1.296-0.104,1.931-0.855,1.903-2.258C96.999,38.899,96.962,38.565,96.896,38.2z"/>
			<path fill="#FFFFFF" d="M109.068,20.923l0.409,9.385c0.598-1.455,2.045-2.219,4.343-2.287l0.067-0.002
				c2.267-0.043,3.893,0.691,4.878,2.207c0.677,1.031,1.054,3.473,1.129,7.32c0.038,1.891,0,4.127-0.114,6.711l-5.639,0.111
				c0.125-3.441,0.17-6.105,0.133-7.996c-0.019-0.945-0.056-1.701-0.112-2.268c-0.182-1.666-0.84-2.486-1.973-2.465
				c-1.134,0.023-1.856,0.482-2.167,1.379l0.462,12.088l-5.481,0.143c-0.101-5.115-0.565-13.133-1.393-24.053L109.068,20.923z"/>
			<path fill="#FFFFFF" d="M129.452,27.296c5.072-0.102,7.66,2.473,7.764,7.721c0.004,0.213,0,0.424-0.01,0.635
				c-0.097,5.688-2.74,8.609-7.931,8.768c-0.06,0.012-0.119,0.02-0.179,0.021c-4.938,0.096-7.459-2.541-7.565-7.912l-0.009-0.467
				C121.557,30.319,124.201,27.399,129.452,27.296z M128.789,31.112c-0.935,0.264-1.559,1.184-1.871,2.758
				c-0.19,0.938-0.275,1.879-0.257,2.824c0.012,0.635,0.069,1.273,0.172,1.916c0.27,1.596,1.055,2.41,2.354,2.439l0.157-0.004
				c1.208-0.023,2.024-0.635,2.449-1.832c0.353-0.998,0.517-2.174,0.49-3.531c-0.006-0.334-0.021-0.674-0.042-1.018
				c-0.155-1.787-0.535-2.898-1.14-3.332c-0.378-0.258-0.829-0.383-1.35-0.373C129.45,30.966,129.13,31.017,128.789,31.112z"/>
			<path fill="#FFFFFF" d="M138.244,38.335l5.12-0.285l0.004,0.217c0.034,1.713,0.759,2.566,2.177,2.561l0.089-0.002
				c1.373-0.027,2.048-0.535,2.029-1.523l-0.002-0.117c-0.081-1.09-1.452-1.941-4.113-2.557s-4.275-1.707-4.844-3.275
				c-0.205-0.551-0.312-1.084-0.322-1.596c-0.019-0.934,0.285-1.807,0.911-2.619c0.96-1.244,2.438-1.973,4.434-2.191
				c0.536-0.055,1.057-0.088,1.564-0.098c1.328-0.025,2.502,0.123,3.523,0.449c1.397,0.451,2.373,1.115,2.927,1.994
				c0.37,0.604,0.562,1.277,0.578,2.023c0.007,0.355-0.023,0.725-0.091,1.104l-4.787,0.178c0.04-0.279,0.057-0.535,0.052-0.77
				c-0.022-1.111-0.511-1.697-1.467-1.756c-0.104-0.01-0.209-0.014-0.313-0.012c-0.984,0.02-1.641,0.406-1.97,1.158
				c-0.114,0.258-0.169,0.492-0.165,0.705c0.01,0.521,0.347,0.967,1.012,1.33c0.935,0.518,2.314,1.031,4.138,1.545
				c1.823,0.516,3.062,1.428,3.714,2.74c0.233,0.496,0.355,0.994,0.365,1.494c0.017,0.846-0.294,1.701-0.934,2.57
				c-1.017,1.391-2.62,2.217-4.808,2.482c-0.477,0.064-0.946,0.102-1.408,0.111c-1.642,0.031-3.169-0.254-4.583-0.861
				C139.267,42.558,138.324,40.892,138.244,38.335z"/>
			<path fill="#FFFFFF" d="M179.313,19.837c-0.016,3.76,0.018,7.703,0.099,11.828c0.074,3.758,0.188,7.672,0.343,11.742
				l-5.303,0.121l-0.229-2.549c-1.08,1.256-2.536,1.902-4.371,1.938c-4.58,0.09-6.921-2.477-7.024-7.703
				c-0.002-0.111,0.003-0.223,0.016-0.336c-0.014-5.238,2.202-7.9,6.647-7.988c0.179-0.004,0.365-0.002,0.56,0.004
				c1.523,0.037,2.766,0.631,3.729,1.779c-0.048-2.469-0.188-5.375-0.418-8.719L179.313,19.837z M174.066,37.562l-0.226-5.77
				c-0.882-0.861-1.779-1.283-2.688-1.266c-0.373,0.008-0.745,0.088-1.115,0.238c-1.169,0.48-1.733,1.771-1.692,3.873
				c0.005,0.244,0.017,0.494,0.037,0.75c0.199,2.545,0.987,3.875,2.362,3.99c0.134,0.01,0.269,0.012,0.403,0.01
				C172.341,39.364,173.314,38.755,174.066,37.562z"/>
			<path fill="#FFFFFF" d="M188.48,26.13c5.176-0.102,7.815,2.41,7.917,7.537c0.012,0.621-0.012,1.291-0.072,2.004l-10.002,0.197
				c0.056,2.857,0.823,4.271,2.3,4.242l0.156-0.004c1.296-0.104,1.931-0.855,1.903-2.256c-0.006-0.301-0.043-0.633-0.109-0.998
				l5.324-0.189c0.083,4.236-2.358,6.432-7.324,6.586c-0.06,0.012-0.112,0.02-0.156,0.02c-4.729,0.094-7.146-2.535-7.252-7.883
				l-0.01-0.502C181.19,29.144,183.632,26.226,188.48,26.13z M185.725,32.81l5.057-0.1l-0.008-0.4
				c-0.04-2.025-0.828-3.021-2.364-2.99C186.753,29.351,185.859,30.515,185.725,32.81z"/>
			<path fill="#FFFFFF" d="M212.89,42.501l-5.564,0.494c-0.013-3.682-0.053-7.225-0.12-10.627
				c-0.094-4.781-0.243-9.289-0.446-13.523l5.481-0.176c-0.006,2.727,0.02,5.523,0.076,8.393
				C212.414,32.011,212.605,37.157,212.89,42.501z"/>
			<path fill="#FFFFFF" d="M223.131,24.962c4.912,0.104,7.402,1.896,7.471,5.377l0.234,11.844l-5.212,0.168l-0.21-1.58
				c-1.056,0.932-2.472,1.416-4.247,1.451c-0.761,0.016-1.583-0.057-2.466-0.219c-2.65-0.438-4-1.934-4.051-4.49
				c-0.006-0.312,0.009-0.646,0.047-1.004c0.246-2.643,2.733-4.008,7.463-4.102c0.91-0.018,1.91,0.012,3.001,0.09l-0.038-1.934
				c-0.031-1.568-0.71-2.34-2.038-2.312l-0.089,0.002c-0.105-0.01-0.202-0.014-0.292-0.012c-1.447,0.029-2.153,0.922-2.119,2.678
				l0.005,0.25l-5.333-0.227c-0.076-3.881,2.392-5.871,7.403-5.971L223.131,24.962z M225.271,38.103l-0.058-2.936
				c-0.644-0.088-1.226-0.127-1.748-0.115c-1.357,0.025-2.276,0.385-2.755,1.072c-0.29,0.418-0.432,0.805-0.425,1.16
				c0.009,0.445,0.255,0.834,0.739,1.168c0.378,0.26,0.866,0.385,1.463,0.373C223.249,38.81,224.176,38.569,225.271,38.103z"/>
			<path fill="#FFFFFF" d="M232.246,36.479l5.121-0.285l0.004,0.217c0.034,1.713,0.759,2.566,2.177,2.561l0.089-0.002
				c1.373-0.027,2.049-0.535,2.029-1.523l-0.002-0.117c-0.082-1.09-1.453-1.941-4.113-2.557c-2.661-0.613-4.275-1.705-4.844-3.273
				c-0.205-0.553-0.312-1.084-0.323-1.596c-0.018-0.934,0.285-1.809,0.911-2.621c0.96-1.244,2.438-1.973,4.434-2.189
				c0.536-0.057,1.057-0.09,1.565-0.1c1.327-0.025,2.502,0.123,3.523,0.449c1.396,0.451,2.372,1.115,2.927,1.994
				c0.37,0.604,0.562,1.279,0.578,2.023c0.007,0.357-0.023,0.725-0.09,1.104l-4.787,0.178c0.039-0.277,0.057-0.535,0.052-0.77
				c-0.021-1.111-0.511-1.697-1.467-1.756c-0.105-0.008-0.209-0.012-0.313-0.01c-0.985,0.02-1.642,0.404-1.97,1.156
				c-0.114,0.258-0.169,0.494-0.165,0.705c0.01,0.523,0.347,0.967,1.011,1.332c0.935,0.516,2.315,1.029,4.138,1.545
				c1.824,0.514,3.062,1.426,3.714,2.738c0.233,0.496,0.355,0.994,0.365,1.494c0.017,0.846-0.295,1.703-0.935,2.572
				c-1.017,1.389-2.62,2.215-4.808,2.48c-0.477,0.066-0.946,0.102-1.408,0.111c-1.641,0.033-3.169-0.254-4.583-0.861
				C233.27,40.704,232.327,39.036,232.246,36.479z"/>
			<path fill="#FFFFFF" d="M261.018,41.403c-2.007-6.402-3.802-11.896-5.384-16.48l5.433-0.326l2.992,12.072
				c1.343-4.564,2.402-8.725,3.179-12.477l5.358,0.395c-1.594,4.693-3.447,10.236-5.559,16.629L261.018,41.403z"/>
			<path fill="#FFFFFF" d="M274.029,41.663c-0.233-6.504-0.396-12.125-0.49-16.861l5.634-0.361
				c-0.089,4.541-0.09,9.053-0.001,13.533c0.023,1.201,0.054,2.396,0.093,3.586L274.029,41.663z M273.625,21.196
				c1.715-1.58,3.118-3.082,4.209-4.506l3.712,2.096c-1.559,1.189-3.291,2.643-5.197,4.359L273.625,21.196z"/>
			<path fill="#FFFFFF" d="M290.271,34.384l5.331,0.145c0.079,4.014-2.365,6.1-7.331,6.252c-0.06,0.014-0.112,0.02-0.156,0.02
				c-4.729,0.094-7.146-2.535-7.252-7.883l-0.01-0.5c0.036-5.74,2.5-8.688,7.392-8.84l0.179-0.004
				c4.505-0.088,6.795,1.791,6.872,5.639c0.004,0.223,0.001,0.445-0.01,0.668l-4.805,0.361l-0.008-0.4
				c-0.04-2.023-0.829-3.021-2.365-2.99c-1.566,0.029-2.317,1.686-2.252,4.967l0.011,0.551c0.159,3.545,0.985,5.303,2.477,5.273
				l0.134-0.002c1.296-0.104,1.931-0.855,1.903-2.258C290.375,35.083,290.338,34.749,290.271,34.384z"/>
			<path fill="#FFFFFF" d="M300.883,18.589l5.075-0.35l0.109,5.521l4.272-0.17l0.129,3.152l-4.338,0.236l0.15,7.59
				c0.035,1.768,1.059,2.631,3.073,2.592c0.417-0.01,0.872-0.057,1.363-0.145l-0.129,3.674c-0.714,0.082-1.393,0.127-2.035,0.141
				c-4.714,0.094-7.151-1.672-7.312-5.295l-0.161-8.158l-3.667,0.24l-0.163-3.717l3.76-0.041L300.883,18.589z"/>
			<path fill="#FFFFFF" d="M318.456,19.728c0.014,0.68-0.296,1.264-0.928,1.752c-0.632,0.492-1.403,0.746-2.313,0.764
				c-0.895,0.018-1.668-0.205-2.319-0.672c-0.651-0.463-0.983-1.035-0.997-1.715c-0.013-0.668,0.296-1.246,0.928-1.736
				s1.396-0.746,2.291-0.764c0.909-0.018,1.69,0.207,2.341,0.672S318.443,19.06,318.456,19.728z M312.875,40.896
				c-0.233-6.502-0.396-12.123-0.489-16.859l5.634-0.363c-0.09,4.541-0.09,9.053-0.002,13.533c0.024,1.201,0.055,2.398,0.094,3.586
				L312.875,40.896z"/>
			<path fill="#FFFFFF" d="M323.358,23.118l0.142,2.668c0.781-1.295,1.697-2.109,2.75-2.441c0.624-0.189,1.255-0.293,1.897-0.305
				c0.477-0.01,0.956,0.025,1.435,0.105c1.168,0.199,2.013,1.072,2.536,2.619c0.364-1.219,1.019-2.041,1.966-2.465
				c0.946-0.426,2.002-0.654,3.165-0.689l0.09-0.002c1.134-0.021,2.227,0.162,3.279,0.553c1.067,0.402,1.892,1.18,2.475,2.33
				c0.582,1.15,0.908,2.736,0.978,4.762l0.191,9.691l-4.832,0.178c0.122-3.664,0.158-6.779,0.107-9.348s-0.734-3.939-2.051-4.115
				c-0.195-0.018-0.381-0.025-0.561-0.021c-1.044,0.021-1.84,0.537-2.387,1.549c-0.067,1.158-0.085,2.512-0.055,4.057
				c0.042,2.102,0.172,4.551,0.392,7.352l-5.594,0.143c0.124-4.307,0.167-7.445,0.128-9.412l-0.004-0.201
				c-0.054-1.945-0.588-2.959-1.604-3.039l-0.291,0.006c-0.91,0.018-1.782,0.424-2.617,1.219l0.285,12.211l-5.277,0.254
				l-0.054-2.736c-0.096-4.848-0.288-9.689-0.578-14.521L323.358,23.118z"/>
			<path fill="#FFFFFF" d="M353.921,22.382c4.911,0.104,7.402,1.896,7.471,5.375l0.233,11.844l-5.212,0.17l-0.211-1.582
				c-1.056,0.934-2.472,1.418-4.247,1.453c-0.761,0.014-1.583-0.059-2.466-0.219c-2.65-0.438-4.001-1.936-4.051-4.492
				c-0.007-0.311,0.009-0.646,0.047-1.002c0.247-2.643,2.734-4.008,7.463-4.102c0.91-0.018,1.91,0.012,3.001,0.09l-0.038-1.934
				c-0.031-1.568-0.71-2.34-2.038-2.314l-0.09,0.002c-0.104-0.008-0.202-0.012-0.291-0.012c-1.447,0.029-2.153,0.922-2.119,2.68
				l0.005,0.25l-5.333-0.229c-0.077-3.881,2.391-5.871,7.403-5.969L353.921,22.382z M356.061,35.522l-0.058-2.936
				c-0.644-0.088-1.226-0.127-1.749-0.117c-1.357,0.027-2.275,0.385-2.754,1.072c-0.291,0.418-0.432,0.805-0.425,1.16
				c0.009,0.445,0.255,0.836,0.74,1.17c0.377,0.26,0.865,0.383,1.462,0.371C354.038,36.229,354.965,35.987,356.061,35.522z"/>
			<path fill="#FFFFFF" d="M363.036,33.899l5.12-0.285l0.004,0.217c0.034,1.711,0.759,2.566,2.177,2.561l0.089-0.002
				c1.373-0.027,2.048-0.535,2.029-1.525l-0.002-0.117c-0.081-1.088-1.452-1.939-4.113-2.555s-4.275-1.707-4.844-3.275
				c-0.205-0.551-0.312-1.084-0.322-1.596c-0.019-0.934,0.285-1.809,0.911-2.621c0.96-1.242,2.438-1.973,4.434-2.189
				c0.536-0.055,1.058-0.088,1.564-0.098c1.328-0.027,2.502,0.123,3.523,0.447c1.397,0.451,2.373,1.117,2.927,1.996
				c0.37,0.604,0.562,1.277,0.578,2.023c0.007,0.355-0.023,0.725-0.091,1.104l-4.787,0.178c0.04-0.279,0.056-0.535,0.052-0.77
				c-0.022-1.111-0.511-1.697-1.467-1.756c-0.104-0.01-0.209-0.014-0.313-0.012c-0.984,0.02-1.641,0.406-1.97,1.158
				c-0.114,0.258-0.169,0.492-0.165,0.705c0.011,0.521,0.347,0.965,1.012,1.33c0.935,0.516,2.314,1.031,4.138,1.545
				c1.823,0.516,3.062,1.428,3.714,2.74c0.233,0.494,0.355,0.994,0.365,1.494c0.017,0.844-0.294,1.701-0.934,2.57
				c-1.017,1.389-2.62,2.217-4.808,2.482c-0.477,0.064-0.946,0.102-1.408,0.111c-1.642,0.031-3.169-0.254-4.583-0.861
				C364.059,38.122,363.116,36.456,363.036,33.899z"/>
		</g>
	</g>
	<g>
		<g>
			<path fill="#331842" d="M31.463,82.199l-0.004-0.24c-0.587,0.492-1.229,0.873-1.923,1.143s-1.44,0.412-2.235,0.429
				c-1.845,0.036-3.433-0.588-4.764-1.876s-2.014-2.86-2.05-4.717c-0.037-1.857,0.584-3.457,1.862-4.795
				c1.279-1.339,2.841-2.026,4.687-2.062c1.829-0.036,3.417,0.589,4.763,1.876c1.331,1.287,2.014,2.859,2.05,4.717l0.108,5.477
				c0.007,0.344-0.108,0.642-0.347,0.891c-0.238,0.248-0.527,0.376-0.87,0.383c-0.35,0.007-0.649-0.109-0.896-0.348
				C31.597,82.835,31.47,82.543,31.463,82.199z M27.084,72.591c-0.589,0.011-1.135,0.133-1.64,0.368
				c-0.505,0.233-0.94,0.544-1.307,0.933c-0.366,0.387-0.653,0.839-0.862,1.356c-0.208,0.517-0.307,1.062-0.296,1.64
				c0.012,0.576,0.132,1.119,0.36,1.626c0.229,0.509,0.534,0.949,0.916,1.322s0.829,0.666,1.342,0.881
				c0.514,0.214,1.064,0.314,1.653,0.304c0.58-0.012,1.123-0.134,1.628-0.369c0.504-0.234,0.941-0.547,1.312-0.938
				c0.37-0.393,0.66-0.845,0.869-1.356c0.208-0.513,0.307-1.058,0.296-1.634c-0.012-0.577-0.132-1.117-0.36-1.621
				s-0.536-0.945-0.921-1.321c-0.386-0.378-0.835-0.673-1.349-0.887S27.665,72.579,27.084,72.591z"/>
			<path fill="#331842" d="M52.678,81.78l-0.33-16.706c-0.007-0.353,0.104-0.652,0.334-0.901c0.229-0.249,0.523-0.377,0.882-0.384
				c0.357-0.007,0.656,0.109,0.896,0.349s0.363,0.535,0.37,0.888l0.305,15.444l0.572-0.012c0.342-0.006,0.637,0.11,0.885,0.35
				c0.247,0.24,0.375,0.535,0.381,0.888c0.007,0.344-0.109,0.642-0.347,0.891c-0.238,0.248-0.528,0.376-0.87,0.382l-1.825,0.036
				c-0.342,0.007-0.635-0.109-0.878-0.348C52.81,82.417,52.685,82.124,52.678,81.78z"/>
			<path fill="#331842" d="M74.281,81.354l-0.005-0.24c-0.587,0.492-1.229,0.873-1.923,1.143c-0.695,0.27-1.44,0.412-2.235,0.428
				c-1.846,0.037-3.434-0.588-4.764-1.875c-1.33-1.288-2.014-2.861-2.051-4.718c-0.036-1.857,0.584-3.456,1.863-4.794
				c1.278-1.34,2.84-2.026,4.686-2.063c1.83-0.036,3.417,0.589,4.764,1.877c1.33,1.286,2.014,2.859,2.05,4.717l0.108,5.477
				c0.007,0.344-0.108,0.642-0.347,0.891c-0.237,0.248-0.527,0.375-0.869,0.382c-0.35,0.007-0.648-0.109-0.896-0.348
				C74.415,81.99,74.288,81.698,74.281,81.354z M69.902,71.745c-0.589,0.012-1.136,0.134-1.64,0.369
				c-0.505,0.233-0.94,0.544-1.307,0.932c-0.367,0.388-0.654,0.84-0.863,1.356c-0.208,0.518-0.307,1.063-0.295,1.641
				c0.011,0.576,0.131,1.119,0.36,1.626c0.229,0.509,0.534,0.949,0.916,1.321c0.381,0.374,0.829,0.667,1.342,0.882
				c0.513,0.214,1.064,0.314,1.653,0.303c0.581-0.011,1.124-0.133,1.628-0.368c0.505-0.234,0.942-0.547,1.312-0.939
				c0.37-0.392,0.66-0.844,0.868-1.356c0.209-0.512,0.308-1.057,0.296-1.633c-0.011-0.577-0.131-1.117-0.36-1.622
				c-0.229-0.503-0.535-0.944-0.921-1.321s-0.835-0.672-1.348-0.886S70.482,71.734,69.902,71.745z"/>
			<path fill="#331842" d="M101.856,82.059c-0.525,0.011-0.896-0.205-1.11-0.65l-5.253-10.925c-0.067-0.168-0.102-0.335-0.105-0.503
				c-0.003-0.168,0.025-0.329,0.086-0.482s0.146-0.289,0.255-0.407c0.109-0.119,0.238-0.211,0.389-0.278
				c0.149-0.066,0.312-0.103,0.487-0.105c0.214-0.005,0.422,0.045,0.623,0.149s0.359,0.256,0.475,0.453l4.07,8.485l3.721-8.627
				c0.222-0.429,0.58-0.648,1.073-0.658c0.175-0.003,0.339,0.026,0.491,0.086c0.152,0.062,0.285,0.149,0.398,0.264
				c0.114,0.113,0.206,0.245,0.277,0.396s0.108,0.311,0.111,0.479c0.004,0.185-0.029,0.354-0.097,0.507l-4.805,11.124
				C102.727,81.818,102.365,82.049,101.856,82.059z"/>
			<path fill="#331842" d="M124.935,77.818c0.357-0.007,0.656,0.106,0.896,0.337c0.239,0.231,0.362,0.528,0.37,0.889
				c0.007,0.353-0.106,0.654-0.34,0.907c-1.211,1.113-2.656,1.687-4.334,1.719c-1.845,0.037-3.433-0.587-4.763-1.875
				c-1.331-1.288-2.014-2.861-2.051-4.718c-0.037-1.857,0.584-3.456,1.863-4.794c1.279-1.339,2.84-2.026,4.686-2.063
				c1.829-0.036,3.417,0.59,4.764,1.877c0.665,0.636,1.168,1.348,1.51,2.138c0.342,0.791,0.522,1.65,0.54,2.579
				c0.007,0.36-0.108,0.661-0.346,0.902c-0.238,0.241-0.532,0.365-0.882,0.372l-9.449,0.187c0.144,0.437,0.351,0.835,0.62,1.194
				s0.584,0.665,0.943,0.919c0.359,0.253,0.753,0.447,1.181,0.583c0.429,0.136,0.874,0.199,1.335,0.189
				c0.525-0.01,1.005-0.1,1.439-0.269s0.835-0.417,1.203-0.744C124.352,77.942,124.625,77.833,124.935,77.818z M125.389,73.617
				c-0.144-0.438-0.353-0.836-0.626-1.195c-0.274-0.359-0.59-0.665-0.95-0.919c-0.358-0.253-0.752-0.446-1.181-0.582
				c-0.428-0.137-0.869-0.199-1.323-0.19c-0.453,0.01-0.894,0.09-1.32,0.242c-0.427,0.153-0.816,0.362-1.169,0.629
				c-0.353,0.268-0.657,0.586-0.912,0.956c-0.255,0.369-0.442,0.775-0.561,1.219L125.389,73.617z"/>
			<path fill="#331842" d="M137.208,69.155l0.005,0.24c0.587-0.492,1.229-0.873,1.923-1.145c0.695-0.27,1.44-0.412,2.236-0.428
				c0.35-0.007,0.726,0.009,1.129,0.05c0.402,0.04,0.774,0.119,1.114,0.236c0.341,0.117,0.625,0.281,0.851,0.494
				c0.227,0.211,0.344,0.489,0.351,0.834c0.003,0.176-0.027,0.341-0.092,0.494c-0.065,0.154-0.151,0.289-0.26,0.408
				c-0.109,0.118-0.239,0.21-0.389,0.278c-0.15,0.067-0.312,0.102-0.487,0.104c-0.151,0.003-0.327-0.037-0.527-0.121
				c-0.505-0.19-1.052-0.279-1.641-0.268c-0.581,0.012-1.123,0.132-1.628,0.362c-0.505,0.229-0.942,0.538-1.312,0.926
				c-0.371,0.389-0.66,0.841-0.868,1.357c-0.209,0.517-0.308,1.067-0.296,1.652l0.108,5.477c0.007,0.344-0.109,0.641-0.346,0.89
				c-0.238,0.248-0.528,0.376-0.87,0.383c-0.35,0.007-0.648-0.109-0.896-0.348c-0.248-0.239-0.375-0.532-0.382-0.876l-0.216-10.953
				c-0.007-0.344,0.108-0.641,0.347-0.89c0.237-0.249,0.531-0.377,0.881-0.384c0.342-0.007,0.636,0.109,0.884,0.349
				C137.074,68.519,137.201,68.812,137.208,69.155z"/>
			<path fill="#331842" d="M157.759,67.5c1.583-0.031,2.988,0.434,4.217,1.395l-0.118-5.993c-0.007-0.36,0.104-0.66,0.334-0.901
				c0.229-0.241,0.524-0.365,0.882-0.372c0.35-0.007,0.648,0.105,0.896,0.337s0.375,0.527,0.382,0.888l0.222,11.241
				c0.037,1.873-0.584,3.471-1.863,4.794c-1.294,1.34-2.856,2.026-4.686,2.062c-1.846,0.036-3.434-0.588-4.764-1.876
				c-1.33-1.287-2.014-2.86-2.051-4.717c-0.037-1.857,0.584-3.456,1.863-4.795C154.352,68.224,155.914,67.536,157.759,67.5z
				 M162.08,74.143c-0.011-0.577-0.131-1.117-0.36-1.621c-0.229-0.504-0.536-0.945-0.921-1.321
				c-0.386-0.377-0.835-0.672-1.348-0.886c-0.514-0.215-1.061-0.315-1.641-0.304c-0.589,0.012-1.136,0.134-1.64,0.368
				c-0.504,0.233-0.94,0.544-1.307,0.933c-0.366,0.387-0.654,0.839-0.862,1.356c-0.208,0.517-0.307,1.063-0.296,1.641
				c0.011,0.576,0.131,1.118,0.36,1.626s0.534,0.948,0.916,1.321c0.381,0.373,0.829,0.666,1.342,0.881
				c0.514,0.215,1.064,0.315,1.653,0.304c0.581-0.012,1.123-0.134,1.628-0.368s0.942-0.547,1.312-0.939
				c0.37-0.393,0.659-0.845,0.868-1.356C161.993,75.264,162.091,74.719,162.08,74.143z"/>
			<path fill="#331842" d="M182.346,79.222l-0.004-0.24c-0.587,0.492-1.229,0.873-1.923,1.143c-0.694,0.27-1.44,0.412-2.235,0.429
				c-1.845,0.036-3.433-0.588-4.764-1.876c-1.33-1.288-2.014-2.86-2.05-4.717c-0.037-1.857,0.584-3.457,1.863-4.795
				c1.278-1.339,2.841-2.026,4.686-2.062c1.83-0.036,3.418,0.589,4.764,1.876c1.331,1.287,2.014,2.86,2.051,4.718l0.108,5.477
				c0.007,0.344-0.109,0.641-0.347,0.89c-0.238,0.248-0.527,0.376-0.87,0.383c-0.35,0.007-0.648-0.109-0.896-0.348
				C182.48,79.857,182.353,79.565,182.346,79.222z M177.967,69.613c-0.589,0.011-1.135,0.134-1.64,0.368
				c-0.505,0.233-0.94,0.544-1.307,0.933c-0.366,0.387-0.654,0.839-0.862,1.356c-0.209,0.517-0.307,1.062-0.296,1.64
				c0.012,0.576,0.131,1.119,0.36,1.627c0.229,0.508,0.534,0.948,0.915,1.321s0.829,0.666,1.343,0.881
				c0.513,0.215,1.064,0.314,1.652,0.304c0.581-0.012,1.124-0.134,1.628-0.368c0.504-0.235,0.942-0.548,1.312-0.939
				c0.37-0.393,0.66-0.845,0.868-1.356c0.209-0.513,0.308-1.058,0.296-1.634c-0.011-0.577-0.131-1.117-0.36-1.621
				s-0.536-0.945-0.921-1.321c-0.386-0.378-0.835-0.673-1.348-0.886C179.095,69.702,178.548,69.602,177.967,69.613z"/>
			<path fill="#331842" d="M198.077,66.704c1.582-0.031,2.988,0.434,4.217,1.396l-0.118-5.993c-0.007-0.36,0.104-0.661,0.334-0.902
				c0.229-0.24,0.524-0.364,0.882-0.372c0.35-0.007,0.648,0.105,0.896,0.338c0.248,0.231,0.375,0.526,0.381,0.887l0.222,11.241
				c0.037,1.873-0.584,3.471-1.862,4.795c-1.295,1.339-2.856,2.025-4.686,2.062c-1.845,0.036-3.433-0.588-4.764-1.875
				c-1.331-1.288-2.014-2.861-2.05-4.718c-0.037-1.857,0.584-3.456,1.862-4.794C194.669,67.428,196.231,66.74,198.077,66.704z
				 M202.397,73.348c-0.012-0.577-0.132-1.117-0.36-1.622c-0.229-0.503-0.536-0.944-0.921-1.321
				c-0.386-0.377-0.835-0.672-1.349-0.886c-0.514-0.215-1.061-0.315-1.641-0.304c-0.589,0.012-1.135,0.134-1.64,0.368
				s-0.94,0.545-1.307,0.933c-0.366,0.388-0.653,0.84-0.862,1.356c-0.208,0.518-0.307,1.063-0.296,1.641
				c0.012,0.576,0.132,1.119,0.36,1.626c0.229,0.509,0.534,0.949,0.916,1.321c0.381,0.374,0.829,0.667,1.342,0.881
				c0.514,0.215,1.064,0.315,1.653,0.304c0.58-0.012,1.123-0.134,1.628-0.368c0.504-0.234,0.941-0.547,1.312-0.939
				c0.37-0.392,0.66-0.844,0.869-1.356C202.309,74.469,202.408,73.924,202.397,73.348z"/>
			<path fill="#331842" d="M215.042,78.119c0.009,0.449-0.023,0.935-0.096,1.457c-0.073,0.521-0.187,1.006-0.341,1.453
				c-0.155,0.447-0.348,0.819-0.581,1.116c-0.232,0.298-0.504,0.449-0.814,0.455c-0.286,0.006-0.529-0.089-0.728-0.286
				c-0.199-0.196-0.301-0.438-0.307-0.727c-0.005-0.249,0.078-0.472,0.249-0.672c0.171-0.199,0.255-0.403,0.25-0.611
				c-0.005-0.288-0.175-0.598-0.507-0.927c-0.333-0.322-0.504-0.719-0.513-1.191c-0.009-0.472,0.148-0.878,0.471-1.218
				c0.324-0.338,0.72-0.512,1.189-0.521c0.469-0.009,0.872,0.149,1.209,0.475C214.86,77.248,215.034,77.647,215.042,78.119z"/>
			<path fill="#331842" d="M239.285,67.152l0.239,12.129c0.016,0.793-0.123,1.545-0.415,2.256c-0.292,0.71-0.696,1.336-1.21,1.874
				c-0.515,0.539-1.119,0.968-1.813,1.291c-0.694,0.322-1.435,0.491-2.222,0.507c-0.357,0.007-0.656-0.107-0.896-0.343
				c-0.24-0.236-0.363-0.533-0.37-0.894c-0.007-0.36,0.104-0.661,0.335-0.901c0.229-0.241,0.523-0.365,0.881-0.372
				c0.454-0.009,0.877-0.104,1.271-0.283c0.394-0.181,0.738-0.424,1.03-0.729c0.293-0.307,0.522-0.661,0.689-1.065
				s0.246-0.834,0.237-1.291l-0.239-12.129c-0.007-0.352,0.108-0.652,0.346-0.901c0.238-0.249,0.528-0.377,0.87-0.384
				c0.342-0.007,0.637,0.109,0.884,0.349C239.15,66.504,239.278,66.801,239.285,67.152z M239.439,63.497
				c0.008,0.407-0.128,0.759-0.409,1.053s-0.624,0.445-1.029,0.453s-0.755-0.13-1.047-0.412c-0.292-0.282-0.442-0.628-0.45-1.035
				c-0.008-0.408,0.128-0.76,0.408-1.054c0.281-0.294,0.624-0.445,1.03-0.453c0.405-0.008,0.754,0.13,1.046,0.412
				S239.431,63.089,239.439,63.497z"/>
			<path fill="#331842" d="M257.429,78.988c-0.358,0.007-0.655-0.107-0.89-0.342c-0.235-0.235-0.36-0.525-0.375-0.87
				c-0.54,0.443-1.115,0.77-1.724,0.978s-1.271,0.318-1.986,0.333c-0.852,0.017-1.658-0.134-2.42-0.45
				c-0.763-0.317-1.432-0.755-2.007-1.312c-0.576-0.557-1.037-1.213-1.382-1.967c-0.346-0.755-0.526-1.559-0.543-2.416l-0.117-5.933
				c-0.007-0.344,0.108-0.642,0.346-0.891s0.532-0.377,0.882-0.384c0.342-0.007,0.637,0.109,0.884,0.35
				c0.247,0.239,0.374,0.531,0.381,0.875l0.117,5.933c0.01,0.521,0.117,1.007,0.321,1.459s0.479,0.846,0.823,1.18
				c0.345,0.333,0.746,0.594,1.203,0.781c0.457,0.188,0.944,0.275,1.461,0.266c0.509-0.011,0.988-0.117,1.438-0.322
				c0.45-0.206,0.843-0.484,1.178-0.835s0.596-0.755,0.781-1.211c0.187-0.456,0.274-0.944,0.264-1.465l-0.117-5.933
				c-0.007-0.344,0.108-0.641,0.346-0.89s0.532-0.377,0.882-0.384c0.342-0.007,0.637,0.109,0.884,0.349
				c0.248,0.239,0.375,0.532,0.382,0.876l0.216,10.953c0.007,0.344-0.108,0.641-0.347,0.89
				C258.072,78.854,257.779,78.981,257.429,78.988z"/>
			<path fill="#331842" d="M267.75,72.382c-0.754-0.273-1.285-0.559-1.593-0.857h0.012c-0.616-0.605-0.933-1.324-0.949-2.157
				c-0.012-0.608,0.138-1.161,0.45-1.66c0.312-0.498,0.724-0.926,1.234-1.279c0.51-0.355,1.087-0.632,1.732-0.834
				c0.644-0.201,1.292-0.308,1.944-0.32c1.989-0.039,3.711,0.731,5.166,2.313c0.171,0.204,0.26,0.456,0.266,0.751
				c0.007,0.36-0.104,0.661-0.334,0.901c-0.23,0.24-0.524,0.364-0.882,0.372c-0.255,0.005-0.473-0.063-0.655-0.203
				c-0.182-0.142-0.358-0.294-0.528-0.459c-0.828-0.799-1.822-1.188-2.983-1.165c-1.146,0.022-2.053,0.393-2.724,1.11
				c-0.125,0.13-0.185,0.308-0.18,0.531c0.004,0.225,0.111,0.375,0.319,0.451l5.62,1.739c0.786,0.29,1.316,0.575,1.592,0.857
				l-0.012,0.001c0.616,0.604,0.933,1.322,0.95,2.154c0.012,0.617-0.138,1.174-0.451,1.668c-0.312,0.495-0.724,0.921-1.234,1.28
				c-0.51,0.358-1.085,0.637-1.726,0.833s-1.287,0.301-1.939,0.313c-2.004,0.04-3.726-0.723-5.166-2.288
				c-0.18-0.229-0.272-0.487-0.278-0.775c-0.007-0.36,0.104-0.662,0.334-0.902c0.23-0.24,0.524-0.364,0.882-0.371
				c0.263-0.006,0.487,0.067,0.673,0.22c0.186,0.153,0.356,0.3,0.51,0.441c0.828,0.801,1.826,1.189,2.995,1.166
				c1.138-0.022,2.045-0.4,2.723-1.135c0.117-0.139,0.173-0.304,0.169-0.496c-0.005-0.225-0.115-0.378-0.332-0.462L267.75,72.382z"
				/>
			<path fill="#331842" d="M283.879,65.011L284.44,65l-0.089-4.516c-0.007-0.345,0.108-0.641,0.346-0.89
				c0.238-0.249,0.532-0.377,0.882-0.384c0.342-0.007,0.637,0.109,0.884,0.349s0.375,0.531,0.381,0.876l0.089,4.516l1.492-0.03
				c0.342-0.006,0.635,0.11,0.878,0.35s0.368,0.532,0.375,0.876c0.007,0.353-0.106,0.652-0.34,0.901
				c-0.234,0.25-0.522,0.378-0.864,0.384l-1.491,0.03l0.119,6.04c0.031,1.593,0.843,2.374,2.434,2.342
				c0.342-0.006,0.635,0.11,0.878,0.35c0.244,0.24,0.369,0.532,0.375,0.876c0.007,0.353-0.106,0.653-0.34,0.902
				c-0.233,0.248-0.521,0.376-0.863,0.382c-3.254,0.064-4.912-1.536-4.977-4.803l-0.119-6.04l-0.561,0.011
				c-0.334,0.007-0.625-0.109-0.872-0.35c-0.248-0.239-0.375-0.535-0.381-0.888c-0.007-0.344,0.108-0.641,0.346-0.89
				S283.545,65.018,283.879,65.011z"/>
			<path fill="#331842" d="M300.471,62.293c0.008,0.407-0.129,0.759-0.409,1.053c-0.281,0.294-0.624,0.445-1.029,0.453
				c-0.406,0.008-0.755-0.13-1.047-0.412s-0.442-0.629-0.45-1.036c-0.008-0.408,0.128-0.759,0.409-1.053
				c0.28-0.294,0.624-0.445,1.029-0.453s0.754,0.13,1.046,0.412S300.463,61.885,300.471,62.293z M298.05,76.926l-0.216-10.929
				c-0.007-0.352,0.108-0.653,0.346-0.901c0.238-0.249,0.528-0.377,0.87-0.384c0.342-0.007,0.637,0.109,0.884,0.349
				c0.248,0.239,0.379,0.536,0.394,0.887l0.215,10.929c-0.001,0.354-0.12,0.654-0.358,0.903c-0.237,0.248-0.527,0.376-0.869,0.383
				c-0.342,0.007-0.637-0.109-0.884-0.348C298.184,77.574,298.057,77.278,298.05,76.926z"/>
			<path fill="#331842" d="M318.111,73.982c0.357-0.007,0.656,0.105,0.896,0.338c0.239,0.231,0.362,0.526,0.37,0.887
				c0.007,0.353-0.118,0.664-0.375,0.933c-1.211,1.113-2.652,1.687-4.322,1.719c-1.846,0.037-3.434-0.588-4.764-1.875
				c-1.33-1.288-2.014-2.861-2.051-4.718c-0.036-1.857,0.584-3.456,1.863-4.794c1.278-1.34,2.84-2.026,4.686-2.063
				c1.679-0.033,3.141,0.483,4.387,1.548c0.291,0.251,0.441,0.564,0.448,0.94c0.007,0.36-0.104,0.662-0.334,0.907
				c-0.229,0.245-0.523,0.371-0.882,0.378c-0.302,0.006-0.574-0.086-0.816-0.272c-0.413-0.337-0.844-0.587-1.292-0.755
				c-0.449-0.167-0.936-0.245-1.461-0.235c-0.581,0.012-1.124,0.132-1.628,0.362c-0.504,0.229-0.944,0.539-1.318,0.926
				c-0.374,0.389-0.666,0.841-0.875,1.358c-0.208,0.517-0.307,1.066-0.296,1.651c0.012,0.585,0.132,1.131,0.361,1.639
				s0.539,0.948,0.927,1.32c0.39,0.374,0.841,0.666,1.354,0.875c0.513,0.211,1.061,0.31,1.641,0.298
				c0.525-0.01,1.008-0.105,1.451-0.286c0.442-0.181,0.858-0.448,1.25-0.801C317.548,74.09,317.809,73.997,318.111,73.982z"/>
			<path fill="#331842" d="M329.334,61.724c0.008,0.407-0.128,0.759-0.409,1.053c-0.281,0.293-0.624,0.444-1.029,0.453
				c-0.406,0.008-0.755-0.13-1.047-0.413c-0.292-0.282-0.441-0.628-0.45-1.035c-0.008-0.408,0.128-0.76,0.409-1.053
				c0.28-0.294,0.624-0.445,1.029-0.453c0.406-0.009,0.755,0.129,1.047,0.412C329.176,60.97,329.326,61.315,329.334,61.724z
				 M326.914,76.356l-0.216-10.929c-0.007-0.352,0.108-0.653,0.346-0.902s0.528-0.377,0.87-0.383
				c0.342-0.007,0.636,0.109,0.884,0.349s0.378,0.535,0.394,0.887l0.215,10.929c-0.001,0.353-0.121,0.654-0.358,0.903
				c-0.238,0.248-0.528,0.376-0.87,0.383c-0.342,0.006-0.637-0.11-0.884-0.349C327.047,77.005,326.92,76.709,326.914,76.356z"/>
			<path fill="#331842" d="M347.729,75.958l-0.004-0.24c-0.587,0.492-1.229,0.873-1.923,1.143s-1.44,0.413-2.235,0.429
				c-1.845,0.036-3.433-0.588-4.764-1.876s-2.014-2.86-2.05-4.717c-0.037-1.857,0.584-3.457,1.862-4.795
				c1.279-1.339,2.841-2.026,4.687-2.062c1.829-0.036,3.417,0.589,4.763,1.876c1.331,1.287,2.014,2.86,2.05,4.718l0.108,5.477
				c0.007,0.344-0.109,0.641-0.347,0.89c-0.238,0.248-0.527,0.376-0.87,0.383c-0.35,0.007-0.649-0.109-0.896-0.348
				C347.862,76.595,347.735,76.302,347.729,75.958z M343.35,66.35c-0.589,0.012-1.135,0.134-1.64,0.368
				c-0.505,0.233-0.94,0.544-1.307,0.933c-0.366,0.387-0.653,0.839-0.862,1.356c-0.208,0.517-0.307,1.062-0.296,1.64
				c0.012,0.576,0.132,1.119,0.36,1.627c0.229,0.508,0.534,0.948,0.916,1.321s0.829,0.666,1.342,0.881
				c0.513,0.215,1.064,0.315,1.653,0.304c0.58-0.012,1.123-0.134,1.628-0.368c0.504-0.235,0.941-0.548,1.312-0.939
				c0.37-0.393,0.66-0.845,0.869-1.356c0.208-0.513,0.307-1.058,0.296-1.634c-0.012-0.577-0.132-1.117-0.36-1.621
				s-0.536-0.945-0.921-1.321c-0.386-0.378-0.835-0.673-1.349-0.886C344.477,66.438,343.93,66.338,343.35,66.35z"/>
			<path fill="#331842" d="M373.454,75.45l-4.5-10.304c-0.083-0.182-0.126-0.37-0.13-0.562c-0.003-0.168,0.025-0.328,0.086-0.482
				c0.061-0.153,0.146-0.289,0.254-0.407c0.109-0.118,0.239-0.211,0.389-0.278c0.149-0.066,0.312-0.102,0.487-0.105
				c0.247-0.005,0.479,0.062,0.696,0.196c0.218,0.137,0.385,0.34,0.501,0.608l3.511,7.993l3.193-8.148
				c0.091-0.242,0.224-0.439,0.4-0.591c0.176-0.151,0.427-0.23,0.753-0.237c0.175-0.003,0.338,0.025,0.491,0.086
				c0.152,0.062,0.285,0.149,0.399,0.263c0.114,0.114,0.206,0.246,0.276,0.397s0.108,0.311,0.111,0.479
				c0.004,0.176-0.037,0.365-0.12,0.567l-6.533,16.696c-0.099,0.249-0.254,0.455-0.465,0.615s-0.445,0.243-0.7,0.248
				c-0.357,0.007-0.656-0.107-0.896-0.343c-0.24-0.235-0.363-0.532-0.37-0.893c-0.003-0.192,0.032-0.378,0.108-0.555L373.454,75.45z
				"/>
			<path fill="#331842" d="M38.043,97.287l0.005,0.24c0.587-0.492,1.228-0.873,1.923-1.144c0.695-0.27,1.44-0.413,2.235-0.429
				c0.35-0.007,0.727,0.01,1.129,0.051c0.402,0.039,0.774,0.118,1.114,0.235c0.341,0.117,0.625,0.282,0.852,0.494
				c0.227,0.212,0.344,0.489,0.351,0.834c0.004,0.176-0.027,0.341-0.092,0.494c-0.064,0.154-0.151,0.29-0.26,0.407
				c-0.109,0.118-0.239,0.211-0.388,0.278c-0.15,0.067-0.312,0.102-0.487,0.105c-0.151,0.003-0.327-0.038-0.528-0.122
				c-0.505-0.19-1.052-0.279-1.64-0.268c-0.581,0.012-1.124,0.132-1.628,0.362s-0.942,0.54-1.312,0.927
				c-0.371,0.389-0.66,0.841-0.869,1.357c-0.208,0.518-0.307,1.067-0.295,1.652l0.108,5.477c0.007,0.344-0.108,0.64-0.346,0.889
				s-0.528,0.377-0.87,0.384c-0.35,0.007-0.649-0.109-0.896-0.349c-0.247-0.239-0.374-0.531-0.381-0.875L35.55,97.336
				c-0.007-0.344,0.108-0.641,0.346-0.89c0.238-0.249,0.532-0.377,0.882-0.384c0.342-0.007,0.637,0.109,0.884,0.349
				S38.037,96.943,38.043,97.287z"/>
			<path fill="#331842" d="M62.27,105.23c0.358-0.007,0.657,0.106,0.896,0.337c0.239,0.231,0.362,0.528,0.369,0.889
				c0.007,0.353-0.106,0.654-0.34,0.907c-1.212,1.112-2.656,1.686-4.334,1.719c-1.845,0.036-3.433-0.589-4.764-1.875
				c-1.331-1.288-2.014-2.861-2.05-4.718c-0.037-1.857,0.584-3.456,1.862-4.794c1.279-1.34,2.841-2.027,4.687-2.063
				c1.829-0.036,3.417,0.589,4.763,1.877c0.665,0.635,1.168,1.348,1.51,2.138s0.521,1.65,0.54,2.579
				c0.007,0.36-0.108,0.661-0.346,0.902c-0.238,0.239-0.532,0.363-0.882,0.37l-9.449,0.187c0.144,0.438,0.351,0.837,0.621,1.195
				c0.27,0.36,0.584,0.666,0.943,0.92c0.358,0.253,0.752,0.447,1.181,0.583c0.428,0.135,0.873,0.199,1.335,0.189
				c0.524-0.01,1.004-0.1,1.438-0.269c0.435-0.169,0.835-0.417,1.203-0.745C61.687,105.354,61.959,105.245,62.27,105.23z
				 M62.723,101.029c-0.144-0.438-0.353-0.836-0.626-1.195c-0.273-0.36-0.59-0.665-0.949-0.919
				c-0.359-0.253-0.753-0.447-1.181-0.583c-0.429-0.137-0.869-0.199-1.323-0.19s-0.894,0.089-1.32,0.242
				c-0.427,0.153-0.817,0.363-1.169,0.63c-0.353,0.268-0.657,0.585-0.913,0.956c-0.255,0.369-0.442,0.775-0.561,1.218
				L62.723,101.029z"/>
			<path fill="#331842" d="M79.019,108.685c-1.599,0.031-3.005-0.434-4.217-1.395l0.119,5.992c0.007,0.36-0.108,0.661-0.347,0.902
				c-0.238,0.241-0.532,0.365-0.882,0.372c-0.358,0.007-0.656-0.105-0.896-0.337c-0.239-0.232-0.363-0.527-0.37-0.888l-0.222-11.24
				c-0.037-1.857,0.584-3.456,1.863-4.795c1.278-1.339,2.84-2.026,4.686-2.062c1.829-0.036,3.417,0.589,4.764,1.876
				c0.665,0.635,1.168,1.348,1.51,2.139c0.342,0.79,0.522,1.65,0.541,2.579c0.037,1.873-0.584,3.471-1.863,4.794
				c-0.655,0.679-1.371,1.188-2.148,1.525C80.78,108.487,79.933,108.666,79.019,108.685z M74.698,102.042
				c0.011,0.576,0.131,1.118,0.36,1.627c0.229,0.508,0.534,0.948,0.916,1.321c0.381,0.373,0.829,0.666,1.342,0.881
				c0.514,0.215,1.064,0.315,1.653,0.304c0.58-0.012,1.123-0.134,1.628-0.368s0.942-0.547,1.312-0.939
				c0.37-0.393,0.659-0.845,0.868-1.356c0.209-0.514,0.308-1.058,0.296-1.634c-0.011-0.577-0.131-1.117-0.36-1.621
				c-0.229-0.504-0.536-0.945-0.921-1.321c-0.386-0.377-0.835-0.672-1.348-0.887c-0.514-0.215-1.061-0.315-1.641-0.304
				c-0.589,0.012-1.136,0.134-1.64,0.368s-0.94,0.545-1.307,0.934c-0.367,0.387-0.654,0.839-0.862,1.356
				C74.786,100.919,74.687,101.465,74.698,102.042z"/>
			<path fill="#331842" d="M103.34,106.956l-0.004-0.24c-0.587,0.492-1.229,0.872-1.923,1.142c-0.694,0.271-1.44,0.413-2.235,0.429
				c-1.845,0.037-3.433-0.588-4.764-1.875c-1.33-1.288-2.014-2.861-2.051-4.718c-0.036-1.857,0.585-3.456,1.863-4.794
				c1.278-1.339,2.841-2.026,4.686-2.063c1.83-0.035,3.418,0.59,4.764,1.877c1.33,1.287,2.014,2.859,2.051,4.717l0.108,5.477
				c0.007,0.344-0.109,0.641-0.347,0.89s-0.527,0.377-0.87,0.384c-0.35,0.007-0.648-0.109-0.896-0.349
				C103.474,107.591,103.347,107.3,103.34,106.956z M98.961,97.346c-0.589,0.012-1.135,0.134-1.64,0.369
				c-0.505,0.234-0.94,0.545-1.307,0.934c-0.366,0.387-0.654,0.839-0.862,1.355c-0.209,0.518-0.308,1.063-0.296,1.641
				c0.011,0.576,0.131,1.118,0.36,1.626c0.229,0.509,0.534,0.949,0.915,1.322s0.829,0.666,1.342,0.881
				c0.513,0.214,1.064,0.314,1.653,0.303c0.581-0.011,1.124-0.133,1.628-0.368c0.504-0.234,0.942-0.547,1.312-0.938
				c0.37-0.393,0.66-0.845,0.868-1.357c0.209-0.513,0.308-1.057,0.296-1.633c-0.011-0.577-0.131-1.117-0.36-1.622
				c-0.229-0.503-0.536-0.944-0.921-1.32c-0.386-0.378-0.835-0.673-1.348-0.888C100.089,97.436,99.542,97.335,98.961,97.346z"/>
			<path fill="#331842" d="M114.86,95.771l0.004,0.24c0.587-0.492,1.228-0.873,1.923-1.145c0.694-0.27,1.439-0.412,2.235-0.428
				c0.35-0.007,0.726,0.009,1.129,0.05c0.402,0.04,0.773,0.119,1.114,0.236s0.624,0.281,0.852,0.494
				c0.227,0.211,0.344,0.489,0.351,0.834c0.003,0.176-0.027,0.341-0.092,0.494c-0.064,0.154-0.151,0.289-0.261,0.407
				s-0.238,0.211-0.388,0.278s-0.312,0.102-0.487,0.104c-0.151,0.004-0.327-0.037-0.528-0.121c-0.505-0.19-1.052-0.279-1.64-0.268
				c-0.581,0.012-1.124,0.132-1.629,0.362c-0.504,0.229-0.942,0.539-1.312,0.927c-0.37,0.389-0.66,0.841-0.868,1.357
				c-0.208,0.518-0.307,1.067-0.296,1.652l0.108,5.477c0.007,0.344-0.108,0.64-0.347,0.889c-0.238,0.249-0.527,0.377-0.869,0.384
				c-0.351,0.007-0.649-0.109-0.896-0.349s-0.374-0.531-0.381-0.875l-0.216-10.953c-0.007-0.344,0.108-0.641,0.346-0.89
				s0.532-0.377,0.882-0.384c0.342-0.007,0.637,0.109,0.884,0.349C114.726,95.135,114.853,95.428,114.86,95.771z"/>
			<path fill="#331842" d="M139.84,106.235l-0.004-0.24c-0.588,0.492-1.229,0.872-1.924,1.143c-0.694,0.271-1.44,0.413-2.235,0.429
				c-1.845,0.036-3.433-0.589-4.764-1.876c-1.33-1.287-2.014-2.86-2.05-4.717c-0.037-1.857,0.584-3.456,1.863-4.795
				s2.841-2.026,4.686-2.062c1.83-0.036,3.417,0.589,4.763,1.876c1.331,1.287,2.014,2.86,2.051,4.718l0.108,5.477
				c0.007,0.344-0.109,0.64-0.347,0.889c-0.238,0.249-0.528,0.377-0.87,0.384c-0.35,0.007-0.649-0.109-0.896-0.349
				S139.847,106.579,139.84,106.235z M135.46,96.626c-0.589,0.012-1.135,0.134-1.64,0.368s-0.94,0.545-1.307,0.934
				c-0.366,0.388-0.653,0.84-0.862,1.356s-0.307,1.063-0.296,1.641c0.012,0.576,0.131,1.117,0.36,1.626s0.534,0.949,0.915,1.321
				c0.382,0.373,0.829,0.666,1.343,0.881c0.513,0.215,1.064,0.315,1.653,0.304c0.581-0.012,1.124-0.134,1.628-0.368
				c0.504-0.234,0.941-0.547,1.312-0.939s0.66-0.845,0.869-1.356c0.208-0.513,0.308-1.058,0.296-1.634
				c-0.012-0.577-0.132-1.116-0.36-1.621c-0.229-0.504-0.536-0.945-0.921-1.321c-0.386-0.377-0.835-0.672-1.348-0.887
				C136.588,96.715,136.041,96.614,135.46,96.626z"/>
			<path fill="#331842" d="M159.244,103.293c0.358-0.007,0.657,0.105,0.896,0.337s0.362,0.527,0.37,0.888
				c0.007,0.353-0.118,0.664-0.375,0.933c-1.211,1.112-2.652,1.686-4.323,1.719c-1.845,0.036-3.433-0.589-4.763-1.875
				c-1.331-1.288-2.014-2.861-2.051-4.718c-0.037-1.857,0.584-3.456,1.863-4.794c1.278-1.34,2.841-2.027,4.686-2.063
				c1.679-0.033,3.141,0.483,4.388,1.548c0.291,0.25,0.44,0.563,0.448,0.938c0.007,0.36-0.104,0.664-0.334,0.908
				c-0.23,0.245-0.524,0.371-0.882,0.378c-0.302,0.007-0.574-0.085-0.816-0.271c-0.413-0.337-0.843-0.588-1.292-0.756
				c-0.449-0.167-0.936-0.246-1.461-0.235c-0.581,0.012-1.124,0.132-1.628,0.362c-0.505,0.229-0.944,0.539-1.318,0.927
				c-0.374,0.389-0.666,0.841-0.875,1.357c-0.208,0.518-0.307,1.067-0.295,1.652c0.012,0.585,0.132,1.13,0.361,1.638
				c0.229,0.509,0.538,0.949,0.927,1.321c0.389,0.373,0.84,0.665,1.354,0.875c0.513,0.211,1.061,0.31,1.641,0.298
				c0.525-0.011,1.009-0.105,1.451-0.286c0.441-0.181,0.858-0.448,1.249-0.801C158.681,103.4,158.942,103.307,159.244,103.293z"/>
			<path fill="#331842" d="M170.467,91.033c0.008,0.408-0.128,0.759-0.409,1.053c-0.28,0.294-0.624,0.445-1.029,0.453
				c-0.405,0.008-0.755-0.13-1.047-0.412c-0.292-0.282-0.441-0.628-0.45-1.036c-0.008-0.407,0.128-0.759,0.409-1.053
				c0.281-0.294,0.624-0.445,1.03-0.453s0.754,0.13,1.046,0.412S170.459,90.626,170.467,91.033z M168.046,105.666l-0.215-10.929
				c-0.007-0.352,0.108-0.652,0.346-0.901c0.238-0.249,0.527-0.377,0.87-0.384c0.342-0.007,0.636,0.109,0.884,0.35
				c0.247,0.239,0.378,0.535,0.394,0.887l0.216,10.929c-0.001,0.353-0.121,0.653-0.358,0.902c-0.238,0.248-0.528,0.376-0.87,0.383
				c-0.342,0.007-0.637-0.109-0.884-0.349C168.181,106.314,168.053,106.019,168.046,105.666z"/>
			<path fill="#331842" d="M191.247,99.742c0.037,1.873-0.583,3.471-1.862,4.795c-1.294,1.339-2.856,2.025-4.686,2.062
				c-1.846,0.037-3.434-0.589-4.764-1.875c-1.331-1.288-2.014-2.861-2.051-4.718c-0.037-1.857,0.584-3.456,1.863-4.794
				c1.279-1.34,2.84-2.026,4.686-2.063c1.829-0.036,3.417,0.59,4.764,1.877c0.665,0.643,1.167,1.358,1.504,2.144
				C191.039,97.956,191.22,98.813,191.247,99.742z M184.483,95.658c-0.589,0.012-1.136,0.134-1.64,0.369
				c-0.505,0.234-0.94,0.545-1.307,0.933s-0.654,0.84-0.862,1.356c-0.208,0.518-0.307,1.063-0.296,1.641
				c0.011,0.576,0.131,1.118,0.36,1.626c0.229,0.509,0.534,0.949,0.916,1.321c0.381,0.374,0.828,0.667,1.342,0.882
				c0.514,0.214,1.064,0.314,1.653,0.303c0.58-0.011,1.123-0.133,1.628-0.368c0.505-0.234,0.942-0.547,1.312-0.939
				c0.37-0.392,0.659-0.844,0.868-1.356c0.208-0.513,0.308-1.057,0.296-1.633c-0.011-0.577-0.132-1.117-0.36-1.622
				c-0.229-0.503-0.536-0.944-0.921-1.321c-0.386-0.377-0.835-0.672-1.349-0.887C185.61,95.748,185.063,95.647,184.483,95.658z
				 M186.939,89.482l-2.339,2.437c-0.218,0.229-0.502,0.348-0.852,0.354c-0.358,0.007-0.657-0.105-0.896-0.337
				c-0.24-0.231-0.363-0.528-0.37-0.889c-0.007-0.344,0.091-0.629,0.293-0.857l2.339-2.438c0.25-0.253,0.542-0.383,0.875-0.389
				c0.358-0.008,0.657,0.108,0.896,0.349c0.239,0.239,0.362,0.536,0.369,0.888C187.263,88.961,187.157,89.255,186.939,89.482z"/>
			<path fill="#331842" d="M200.417,94.071c1.041-0.847,2.278-1.283,3.71-1.312c0.835-0.016,1.632,0.132,2.39,0.445
				c0.758,0.313,1.429,0.747,2.013,1.301c0.583,0.554,1.05,1.207,1.399,1.966s0.532,1.57,0.549,2.435l0.117,5.921
				c0.007,0.353-0.108,0.652-0.346,0.901c-0.238,0.249-0.528,0.377-0.87,0.384c-0.35,0.007-0.648-0.109-0.896-0.349
				c-0.248-0.24-0.375-0.535-0.382-0.888l-0.117-5.921c-0.01-0.512-0.119-0.994-0.326-1.447c-0.208-0.452-0.484-0.846-0.829-1.18
				c-0.345-0.333-0.746-0.596-1.203-0.787s-0.94-0.281-1.45-0.271c-0.517,0.011-0.999,0.118-1.444,0.323s-0.836,0.483-1.171,0.834
				c-0.335,0.352-0.596,0.757-0.782,1.217c-0.186,0.461-0.274,0.947-0.264,1.459l0.117,5.921c0.007,0.353-0.108,0.652-0.347,0.901
				c-0.237,0.249-0.527,0.377-0.869,0.384c-0.351,0.007-0.648-0.109-0.896-0.349c-0.247-0.239-0.375-0.535-0.381-0.888
				l-0.215-10.929c-0.007-0.344,0.108-0.643,0.346-0.896s0.531-0.383,0.881-0.39c0.342-0.007,0.637,0.111,0.884,0.354
				S200.41,93.743,200.417,94.071z"/>
			<path fill="#331842" d="M232.489,89.809c0.008,0.408-0.128,0.76-0.409,1.054s-0.624,0.445-1.03,0.453
				c-0.405,0.008-0.754-0.13-1.046-0.412s-0.442-0.628-0.45-1.036c-0.008-0.407,0.128-0.759,0.409-1.053
				c0.281-0.294,0.624-0.445,1.03-0.453s0.754,0.13,1.046,0.412S232.481,89.401,232.489,89.809z M230.068,104.442l-0.215-10.929
				c-0.007-0.352,0.108-0.652,0.346-0.901c0.238-0.249,0.528-0.377,0.87-0.384c0.342-0.007,0.637,0.109,0.884,0.349
				s0.378,0.536,0.394,0.888l0.216,10.929c-0.001,0.353-0.121,0.652-0.358,0.901s-0.527,0.377-0.87,0.384s-0.637-0.109-0.884-0.349
				C230.203,105.091,230.075,104.795,230.068,104.442z"/>
			<path fill="#331842" d="M242.28,93.245c1.041-0.846,2.278-1.283,3.71-1.312c0.835-0.016,1.632,0.133,2.39,0.445
				c0.758,0.313,1.429,0.747,2.013,1.301c0.583,0.554,1.05,1.207,1.399,1.966s0.532,1.57,0.549,2.435l0.117,5.921
				c0.007,0.353-0.109,0.652-0.347,0.901c-0.238,0.249-0.527,0.377-0.87,0.384c-0.35,0.007-0.649-0.109-0.896-0.349
				c-0.248-0.239-0.375-0.535-0.382-0.888l-0.117-5.921c-0.01-0.512-0.119-0.994-0.327-1.447c-0.208-0.452-0.484-0.846-0.829-1.18
				c-0.345-0.333-0.746-0.596-1.203-0.787s-0.94-0.281-1.449-0.271c-0.518,0.011-0.999,0.118-1.444,0.323
				c-0.445,0.205-0.836,0.483-1.171,0.834c-0.335,0.352-0.596,0.757-0.782,1.217c-0.186,0.461-0.274,0.947-0.264,1.459l0.117,5.921
				c0.007,0.353-0.108,0.652-0.346,0.901s-0.528,0.377-0.87,0.384c-0.35,0.007-0.648-0.109-0.896-0.349
				c-0.247-0.239-0.374-0.535-0.381-0.888l-0.216-10.929c-0.007-0.344,0.108-0.643,0.346-0.896s0.532-0.383,0.882-0.39
				c0.341-0.007,0.636,0.111,0.884,0.354C242.146,92.63,242.273,92.917,242.28,93.245z"/>
			<path fill="#331842" d="M260.147,91.654l0.561-0.011l-0.089-4.516c-0.007-0.345,0.108-0.641,0.346-0.89s0.532-0.377,0.882-0.384
				c0.342-0.007,0.637,0.109,0.884,0.349c0.247,0.239,0.374,0.531,0.381,0.876l0.089,4.516l1.492-0.03
				c0.342-0.006,0.635,0.11,0.878,0.35s0.369,0.532,0.375,0.876c0.007,0.353-0.107,0.652-0.34,0.901
				c-0.233,0.25-0.521,0.377-0.864,0.383l-1.492,0.03l0.119,6.041c0.032,1.593,0.843,2.374,2.434,2.342
				c0.342-0.007,0.635,0.11,0.878,0.35c0.244,0.24,0.369,0.532,0.375,0.876c0.007,0.353-0.106,0.652-0.341,0.901
				c-0.233,0.249-0.521,0.376-0.863,0.383c-3.253,0.064-4.912-1.536-4.977-4.803l-0.119-6.041l-0.561,0.011
				c-0.334,0.007-0.625-0.108-0.873-0.349c-0.248-0.239-0.375-0.535-0.381-0.888c-0.007-0.344,0.108-0.641,0.346-0.89
				S259.813,91.661,260.147,91.654z"/>
			<path fill="#331842" d="M283.765,100.859c0.358-0.007,0.657,0.106,0.896,0.337c0.239,0.231,0.363,0.528,0.37,0.889
				c0.007,0.353-0.106,0.654-0.34,0.907c-1.212,1.112-2.657,1.686-4.335,1.719c-1.845,0.037-3.433-0.589-4.764-1.875
				c-1.33-1.288-2.014-2.861-2.051-4.718c-0.036-1.857,0.585-3.456,1.863-4.794c1.278-1.34,2.841-2.026,4.686-2.063
				c1.83-0.036,3.418,0.59,4.764,1.877c0.665,0.635,1.169,1.348,1.51,2.138c0.342,0.791,0.522,1.65,0.541,2.579
				c0.007,0.36-0.108,0.661-0.347,0.902c-0.238,0.24-0.532,0.364-0.882,0.371l-9.449,0.187c0.144,0.438,0.351,0.836,0.621,1.195
				c0.27,0.359,0.584,0.665,0.943,0.919c0.359,0.253,0.753,0.447,1.182,0.583c0.428,0.136,0.873,0.199,1.334,0.189
				c0.525-0.01,1.005-0.1,1.439-0.269c0.434-0.169,0.835-0.417,1.202-0.744C283.183,100.983,283.456,100.874,283.765,100.859z
				 M284.219,96.658c-0.144-0.438-0.353-0.836-0.626-1.195c-0.274-0.359-0.59-0.665-0.949-0.919
				c-0.359-0.253-0.753-0.447-1.182-0.583c-0.428-0.137-0.869-0.199-1.322-0.19c-0.453,0.009-0.894,0.089-1.32,0.242
				c-0.426,0.153-0.816,0.363-1.169,0.63c-0.353,0.268-0.657,0.585-0.912,0.956c-0.255,0.369-0.442,0.775-0.561,1.219
				L284.219,96.658z"/>
			<path fill="#331842" d="M304.673,102.754c-1.174,1.008-2.56,1.528-4.159,1.56c-1.845,0.036-3.433-0.589-4.764-1.876
				s-2.014-2.86-2.05-4.717c-0.037-1.857,0.584-3.456,1.862-4.795c1.279-1.339,2.841-2.026,4.687-2.062
				c1.829-0.036,3.417,0.589,4.763,1.877c1.331,1.286,2.014,2.859,2.05,4.717l0.132,6.677c0.012,0.576-0.065,1.123-0.23,1.639
				c-0.165,0.516-0.398,0.991-0.7,1.426c-0.302,0.434-0.66,0.828-1.075,1.181c-0.415,0.352-0.864,0.651-1.349,0.897
				c-0.485,0.245-0.992,0.438-1.522,0.576s-1.062,0.213-1.595,0.224c-0.636,0.013-1.262-0.057-1.878-0.209s-1.201-0.383-1.756-0.692
				c-0.555-0.31-1.066-0.695-1.533-1.158c-0.466-0.464-0.865-0.984-1.195-1.563c-0.131-0.181-0.199-0.404-0.204-0.668
				c-0.007-0.36,0.106-0.661,0.341-0.902c0.233-0.241,0.53-0.365,0.888-0.372c0.238-0.005,0.437,0.048,0.594,0.157
				c0.157,0.108,0.375,0.353,0.653,0.731c0.277,0.379,0.522,0.667,0.733,0.862c0.924,0.896,2.027,1.33,3.308,1.305
				c1.288-0.025,2.369-0.495,3.242-1.409c0.536-0.684,0.797-1.343,0.785-1.975L304.673,102.754z M300.299,93.373
				c-0.589,0.012-1.135,0.134-1.64,0.368c-0.505,0.235-0.94,0.545-1.307,0.934c-0.366,0.388-0.653,0.84-0.862,1.356
				c-0.208,0.517-0.307,1.063-0.296,1.641c0.012,0.576,0.132,1.117,0.36,1.626c0.229,0.509,0.534,0.949,0.916,1.321
				c0.381,0.373,0.829,0.667,1.342,0.881c0.513,0.215,1.064,0.315,1.653,0.304c0.58-0.012,1.123-0.134,1.628-0.368
				c0.504-0.234,0.941-0.547,1.312-0.939c0.37-0.393,0.66-0.845,0.869-1.356c0.208-0.513,0.307-1.058,0.296-1.634
				c-0.012-0.577-0.132-1.116-0.36-1.621c-0.229-0.504-0.536-0.945-0.921-1.321c-0.386-0.377-0.835-0.672-1.349-0.887
				S300.879,93.361,300.299,93.373z"/>
			<path fill="#331842" d="M316.197,91.798l0.005,0.24c0.587-0.492,1.228-0.873,1.923-1.144c0.695-0.27,1.44-0.412,2.235-0.428
				c0.35-0.007,0.727,0.009,1.129,0.05c0.402,0.04,0.774,0.118,1.114,0.235c0.341,0.118,0.625,0.282,0.852,0.494
				s0.344,0.49,0.351,0.835c0.004,0.176-0.027,0.34-0.092,0.494c-0.064,0.153-0.151,0.289-0.26,0.406
				c-0.109,0.118-0.239,0.211-0.388,0.278c-0.15,0.067-0.312,0.102-0.487,0.105c-0.151,0.003-0.327-0.037-0.527-0.121
				c-0.505-0.19-1.052-0.279-1.641-0.268c-0.581,0.011-1.124,0.131-1.628,0.362c-0.504,0.229-0.942,0.539-1.312,0.927
				s-0.66,0.84-0.868,1.357c-0.208,0.517-0.307,1.066-0.296,1.651l0.108,5.477c0.007,0.344-0.108,0.641-0.346,0.89
				c-0.238,0.248-0.528,0.376-0.87,0.383c-0.35,0.007-0.648-0.109-0.896-0.349s-0.375-0.53-0.381-0.874l-0.216-10.953
				c-0.007-0.344,0.108-0.642,0.346-0.891s0.532-0.377,0.881-0.384c0.342-0.007,0.637,0.109,0.884,0.35
				C316.063,91.162,316.19,91.454,316.197,91.798z"/>
			<path fill="#331842" d="M341.177,102.263l-0.005-0.24c-0.587,0.492-1.229,0.872-1.923,1.142c-0.695,0.271-1.44,0.413-2.235,0.429
				c-1.845,0.037-3.433-0.588-4.763-1.875c-1.331-1.288-2.015-2.861-2.051-4.718c-0.037-1.857,0.584-3.456,1.863-4.794
				c1.279-1.339,2.84-2.026,4.686-2.063c1.829-0.036,3.417,0.59,4.763,1.877c1.331,1.287,2.014,2.859,2.05,4.717l0.108,5.477
				c0.007,0.344-0.108,0.641-0.347,0.89c-0.238,0.249-0.527,0.377-0.869,0.384c-0.351,0.007-0.649-0.109-0.896-0.35
				C341.311,102.897,341.184,102.606,341.177,102.263z M336.798,92.652c-0.588,0.012-1.135,0.134-1.64,0.369
				c-0.504,0.234-0.94,0.545-1.307,0.933c-0.366,0.388-0.653,0.84-0.862,1.356c-0.208,0.518-0.307,1.063-0.296,1.641
				c0.012,0.576,0.132,1.118,0.36,1.626c0.229,0.509,0.534,0.949,0.916,1.321c0.381,0.374,0.829,0.667,1.342,0.882
				c0.514,0.214,1.064,0.314,1.653,0.303c0.58-0.011,1.123-0.133,1.628-0.368c0.504-0.234,0.941-0.547,1.312-0.938
				c0.37-0.393,0.659-0.845,0.868-1.357c0.208-0.513,0.308-1.057,0.296-1.633c-0.011-0.577-0.132-1.117-0.36-1.622
				c-0.229-0.503-0.536-0.944-0.921-1.32c-0.386-0.378-0.835-0.673-1.349-0.888C337.925,92.742,337.378,92.642,336.798,92.652z"/>
			<path fill="#331842" d="M350.347,102.082l-0.33-16.706c-0.007-0.353,0.104-0.653,0.334-0.902c0.23-0.248,0.524-0.376,0.882-0.384
				c0.358-0.007,0.657,0.109,0.896,0.349c0.239,0.24,0.362,0.535,0.37,0.888l0.305,15.444l0.573-0.011
				c0.342-0.007,0.637,0.109,0.884,0.349c0.247,0.24,0.375,0.536,0.381,0.889c0.007,0.344-0.108,0.64-0.347,0.889
				c-0.237,0.249-0.527,0.377-0.87,0.384l-1.825,0.036c-0.342,0.007-0.635-0.11-0.878-0.35S350.354,102.426,350.347,102.082z"/>
		</g>
	</g>
</g>
</svg>
