<?xml version="1.0" encoding="utf-8"?>
<!-- Generator: Adobe Illustrator 16.0.0, SVG Export Plug-In . SVG Version: 6.00 Build 0)  -->
<!DOCTYPE svg PUBLIC "-//W3C//DTD SVG 1.1//EN" "http://www.w3.org/Graphics/SVG/1.1/DTD/svg11.dtd">
<svg version="1.1" id="Capa_1" xmlns="http://www.w3.org/2000/svg" xmlns:xlink="http://www.w3.org/1999/xlink" x="0px" y="0px"
	 width="862.238px" height="279.865px" viewBox="0 0 862.238 279.865" enable-background="new 0 0 862.238 279.865"
	 xml:space="preserve">
<g>
	<rect y="65.729" opacity="0.5" fill="#331842" enable-background="new    " width="254.12" height="31"/>
	<rect x="261.01" y="65.729" opacity="0.5" fill="#331842" enable-background="new    " width="240.167" height="31"/>
	<g>
		<g>
			<path fill="#FFFFFF" d="M44.688,87.87c0.018-2.191,0.026-4.453,0.026-6.775c0-2.33-0.009-4.725-0.026-7.18
				c1.004-0.091,1.93-0.137,2.777-0.137c2.358,0,4.096,0.352,5.214,1.055c1.52,0.964,2.314,2.744,2.384,5.342v0.703
				c0,2.229-0.288,3.815-0.864,4.768c-0.638,1.049-1.804,1.745-3.498,2.09c-0.979,0.202-2.053,0.303-3.223,0.303
				C46.604,88.036,45.674,87.981,44.688,87.87z M47.937,76.708c-0.149,2.145-0.223,4.213-0.223,6.211
				c0,0.756,0.008,1.498,0.026,2.229c0.306,0.053,0.599,0.078,0.878,0.078c0.769,0,1.415-0.198,1.939-0.598
				c0.716-0.531,1.074-1.729,1.074-3.594v-0.039c-0.009-1.875-0.358-3.104-1.048-3.689c-0.533-0.442-1.166-0.664-1.899-0.664
				C48.447,76.64,48.199,76.663,47.937,76.708z"/>
			<path fill="#FFFFFF" d="M60.303,78.212c3.031,0,4.546,1.501,4.546,4.502c0,0.365-0.021,0.758-0.065,1.174h-5.856
				c0,1.674,0.433,2.51,1.297,2.51h0.091c0.76-0.045,1.14-0.479,1.14-1.299c0-0.178-0.018-0.371-0.053-0.586l3.118-0.051
				c0,2.48-1.454,3.737-4.363,3.771c-0.035,0.007-0.065,0.01-0.091,0.01c-2.769,0-4.153-1.563-4.153-4.697v-0.293
				C56.002,79.892,57.465,78.212,60.303,78.212z M58.614,82.089h2.96v-0.232c0-1.187-0.45-1.777-1.349-1.777
				C59.255,80.077,58.718,80.748,58.614,82.089z"/>
			<path fill="#FFFFFF" d="M69.317,81.239l0.131,7.08l-3.21,0.02c0-2.992-0.135-6.355-0.406-10.088l2.411-0.193l0.131,1.592
				c0.367-0.781,1.223-1.229,2.567-1.338c0.201-0.015,0.393-0.021,0.577-0.021c1.057,0,1.86,0.258,2.411,0.771
				c0.637,0.61,0.96,1.586,0.969,2.92l-2.908,0.215c0.008-0.11,0.013-0.218,0.013-0.322c0-1.041-0.363-1.562-1.087-1.562h-0.052
				C70.024,80.345,69.509,80.653,69.317,81.239z"/>
			<path fill="#FFFFFF" d="M80.033,78.212c3.031,0,4.546,1.501,4.546,4.502c0,0.365-0.021,0.758-0.065,1.174h-5.856
				c0,1.674,0.433,2.51,1.297,2.51h0.091c0.76-0.045,1.14-0.479,1.14-1.299c0-0.178-0.018-0.371-0.053-0.586l3.118-0.051
				c0,2.48-1.454,3.737-4.363,3.771c-0.035,0.007-0.065,0.01-0.091,0.01c-2.769,0-4.153-1.563-4.153-4.697v-0.293
				C75.731,79.892,77.194,78.212,80.033,78.212z M78.343,82.089h2.96v-0.232c0-1.187-0.45-1.777-1.349-1.777
				C78.985,80.077,78.448,80.748,78.343,82.089z"/>
			<path fill="#FFFFFF" d="M90.919,84.219l3.118,0.146c0,2.351-1.454,3.542-4.363,3.574c-0.035,0.007-0.065,0.01-0.091,0.01
				c-2.769,0-4.153-1.564-4.153-4.697v-0.293c0.087-3.357,1.563-5.055,4.428-5.088h0.105c2.637,0,3.956,1.127,3.956,3.379
				c0,0.131-0.004,0.263-0.013,0.393l-2.817,0.154v-0.232c0-1.187-0.45-1.777-1.349-1.777c-0.917,0-1.376,0.961-1.376,2.881v0.322
				c0.053,2.077,0.516,3.115,1.389,3.115h0.079c0.76-0.045,1.14-0.479,1.14-1.299C90.972,84.628,90.955,84.433,90.919,84.219z"/>
			<path fill="#FFFFFF" d="M98.243,74.247l0.131,5.498c0.367-0.846,1.223-1.273,2.568-1.289h0.04c1.327,0,2.271,0.449,2.83,1.35
				c0.384,0.61,0.576,2.045,0.576,4.297c0,1.105-0.048,2.416-0.144,3.926h-3.301c0.113-2.012,0.17-3.57,0.17-4.678
				c0-0.555-0.013-0.996-0.04-1.328c-0.087-0.979-0.463-1.465-1.126-1.465c-0.664,0-1.092,0.261-1.284,0.779l0.131,7.08
				l-3.209,0.021c0-2.994-0.179-7.691-0.537-14.092L98.243,74.247z"/>
			<path fill="#FFFFFF" d="M110.099,78.212c2.969,0,4.455,1.537,4.455,4.609c0,0.124-0.005,0.248-0.013,0.371
				c-0.123,3.327-1.703,5.007-4.743,5.039c-0.035,0.007-0.07,0.01-0.104,0.01c-2.891,0-4.336-1.572-4.336-4.717v-0.273
				C105.444,79.892,107.024,78.212,110.099,78.212z M109.667,80.438c-0.55,0.144-0.926,0.674-1.127,1.592
				c-0.122,0.547-0.183,1.098-0.183,1.65c0,0.371,0.026,0.746,0.079,1.123c0.14,0.938,0.589,1.423,1.35,1.453h0.091
				c0.708,0,1.192-0.348,1.455-1.045c0.218-0.577,0.327-1.266,0.327-2.061c0-0.195-0.004-0.396-0.013-0.596
				c-0.07-1.05-0.279-1.702-0.628-1.963c-0.219-0.156-0.48-0.234-0.786-0.234C110.055,80.36,109.867,80.387,109.667,80.438z"/>
			<path fill="#FFFFFF" d="M125.23,77.929c2.873,0.115,4.31,1.193,4.31,3.23v6.936l-3.052,0.039l-0.105-0.93
				c-0.629,0.534-1.463,0.801-2.502,0.801c-0.445,0-0.926-0.052-1.441-0.154c-1.546-0.286-2.319-1.18-2.319-2.678
				c0-0.182,0.013-0.377,0.04-0.586c0.174-1.543,1.646-2.312,4.415-2.312c0.533,0,1.118,0.029,1.756,0.088V81.23
				c0-0.918-0.389-1.377-1.166-1.377h-0.053c-0.061-0.006-0.118-0.01-0.17-0.01c-0.848,0-1.271,0.515-1.271,1.543v0.146
				l-3.118-0.195c0-2.271,1.467-3.406,4.401-3.406L125.23,77.929L125.23,77.929z M126.331,85.644v-1.721
				c-0.376-0.059-0.716-0.088-1.022-0.088c-0.795,0-1.336,0.199-1.625,0.598c-0.175,0.239-0.262,0.466-0.262,0.674
				c0,0.261,0.14,0.492,0.419,0.691c0.218,0.156,0.502,0.234,0.852,0.234C125.138,86.034,125.684,85.904,126.331,85.644z"/>
			<path fill="#FFFFFF" d="M139.156,88.075l-3.262,0.225c0.035-2.152,0.052-4.229,0.052-6.221c0-2.799-0.035-5.438-0.105-7.92
				l3.21-0.039c-0.035,1.596-0.053,3.232-0.053,4.912C138.999,81.93,139.051,84.944,139.156,88.075z"/>
			<path fill="#FFFFFF" d="M145.353,77.929c2.873,0.115,4.31,1.193,4.31,3.23v6.936l-3.053,0.039l-0.104-0.93
				c-0.629,0.534-1.463,0.801-2.502,0.801c-0.445,0-0.926-0.052-1.441-0.154c-1.546-0.286-2.319-1.18-2.319-2.678
				c0-0.182,0.013-0.377,0.04-0.586c0.174-1.543,1.646-2.312,4.415-2.312c0.533,0,1.118,0.029,1.755,0.088V81.23
				c0-0.918-0.389-1.377-1.166-1.377h-0.052c-0.061-0.006-0.118-0.01-0.17-0.01c-0.847,0-1.271,0.515-1.271,1.543v0.146
				l-3.118-0.195c0-2.271,1.467-3.406,4.402-3.406L145.353,77.929L145.353,77.929z M146.453,85.644v-1.721
				c-0.375-0.059-0.716-0.088-1.021-0.088c-0.795,0-1.336,0.199-1.625,0.598c-0.175,0.239-0.262,0.466-0.262,0.674
				c0,0.261,0.14,0.492,0.419,0.691c0.218,0.156,0.502,0.234,0.852,0.234C145.261,86.034,145.806,85.904,146.453,85.644z"/>
			<path fill="#FFFFFF" d="M158.532,87.812c-1.066-4.39-2.328-8.977-3.786-13.76l3.825-0.295l2.24,10.703
				c1.144-3.741,2.079-7.132,2.804-10.166l3.629,0.332c-1.834,5.905-3.201,10.266-4.101,13.076L158.532,87.812z"/>
			<path fill="#FFFFFF" d="M171.815,78.212c3.031,0,4.546,1.501,4.546,4.502c0,0.365-0.022,0.758-0.065,1.174h-5.856
				c0,1.674,0.433,2.51,1.297,2.51h0.092c0.76-0.045,1.14-0.479,1.14-1.299c0-0.178-0.018-0.371-0.052-0.586l3.118-0.051
				c0,2.48-1.454,3.737-4.362,3.771c-0.035,0.007-0.065,0.01-0.092,0.01c-2.769,0-4.153-1.563-4.153-4.697v-0.293
				C167.514,79.892,168.977,78.212,171.815,78.212z M170.125,82.089h2.961v-0.232c0-1.187-0.45-1.777-1.35-1.777
				C170.768,80.077,170.23,80.748,170.125,82.089z"/>
			<path fill="#FFFFFF" d="M180.829,81.239l0.131,7.08l-3.209,0.02c0-2.992-0.135-6.355-0.406-10.088l2.41-0.193l0.131,1.592
				c0.367-0.781,1.223-1.229,2.568-1.338c0.201-0.015,0.393-0.021,0.577-0.021c1.057,0,1.86,0.258,2.41,0.771
				c0.638,0.61,0.961,1.586,0.97,2.92l-2.908,0.215c0.008-0.11,0.013-0.218,0.013-0.322c0-1.041-0.362-1.562-1.087-1.562h-0.053
				C181.536,80.345,181.021,80.653,180.829,81.239z"/>
			<path fill="#FFFFFF" d="M197.191,74.423c-0.052,2.201-0.079,4.511-0.079,6.926c0,2.199,0.021,4.49,0.065,6.875l-3.104,0.01
				l-0.105-1.494c-0.646,0.723-1.507,1.084-2.581,1.084c-2.681,0-4.022-1.529-4.022-4.59c0-0.064,0.004-0.13,0.013-0.195
				c0.052-3.064,1.38-4.6,3.983-4.6c0.104,0,0.214,0.004,0.327,0.01c0.891,0.039,1.611,0.4,2.162,1.084
				c0-1.445-0.048-3.146-0.144-5.107L197.191,74.423L197.191,74.423z M193.917,84.735l-0.066-3.379
				c-0.506-0.516-1.026-0.771-1.559-0.771c-0.218,0-0.437,0.043-0.655,0.127c-0.69,0.27-1.035,1.018-1.035,2.246
				c0,0.146,0.004,0.29,0.013,0.439c0.087,1.491,0.533,2.279,1.336,2.363c0.079,0.007,0.157,0.01,0.236,0.01
				C192.886,85.771,193.462,85.427,193.917,84.735z"/>
			<path fill="#FFFFFF" d="M203.296,77.929c2.873,0.115,4.31,1.193,4.31,3.23v6.936l-3.053,0.039l-0.104-0.93
				c-0.629,0.534-1.463,0.801-2.502,0.801c-0.445,0-0.926-0.052-1.441-0.154c-1.546-0.286-2.319-1.18-2.319-2.678
				c0-0.182,0.013-0.377,0.039-0.586c0.175-1.543,1.646-2.312,4.415-2.312c0.533,0,1.118,0.029,1.756,0.088V81.23
				c0-0.918-0.389-1.377-1.166-1.377h-0.053c-0.061-0.006-0.118-0.01-0.17-0.01c-0.848,0-1.271,0.515-1.271,1.543v0.146
				l-3.118-0.195c0-2.271,1.467-3.406,4.402-3.406L203.296,77.929L203.296,77.929z M204.397,85.644v-1.721
				c-0.376-0.059-0.717-0.088-1.022-0.088c-0.795,0-1.336,0.199-1.625,0.598c-0.175,0.239-0.262,0.466-0.262,0.674
				c0,0.261,0.14,0.492,0.419,0.691c0.218,0.156,0.502,0.234,0.852,0.234C203.205,86.034,203.75,85.904,204.397,85.644z"/>
			<path fill="#FFFFFF" d="M218.559,74.423c-0.053,2.201-0.079,4.511-0.079,6.926c0,2.199,0.021,4.49,0.065,6.875l-3.105,0.01
				l-0.105-1.494c-0.646,0.723-1.506,1.084-2.581,1.084c-2.681,0-4.022-1.529-4.022-4.59c0-0.064,0.004-0.13,0.013-0.195
				c0.052-3.064,1.38-4.6,3.982-4.6c0.105,0,0.214,0.004,0.328,0.01c0.891,0.039,1.611,0.4,2.162,1.084
				c0-1.445-0.048-3.146-0.144-5.107L218.559,74.423L218.559,74.423z M215.283,84.735l-0.065-3.379
				c-0.506-0.516-1.026-0.771-1.559-0.771c-0.218,0-0.437,0.043-0.655,0.127c-0.69,0.27-1.035,1.018-1.035,2.246
				c0,0.146,0.004,0.29,0.013,0.439c0.087,1.491,0.533,2.279,1.336,2.363c0.079,0.007,0.157,0.01,0.236,0.01
				C214.252,85.771,214.829,85.427,215.283,84.735z"/>
		</g>
	</g>
	<g>
		<g>
			<path fill="#FFFFFF" d="M291.662,87.87c0.018-2.191,0.026-4.453,0.026-6.775c0-2.33-0.009-4.725-0.026-7.18
				c1.004-0.091,1.93-0.137,2.777-0.137c2.358,0,4.096,0.352,5.214,1.055c1.52,0.964,2.314,2.744,2.384,5.342v0.703
				c0,2.229-0.288,3.815-0.864,4.768c-0.638,1.049-1.804,1.745-3.498,2.09c-0.979,0.202-2.053,0.303-3.223,0.303
				C293.579,88.036,292.649,87.981,291.662,87.87z M294.911,76.708c-0.149,2.145-0.223,4.213-0.223,6.211
				c0,0.756,0.008,1.498,0.026,2.229c0.306,0.053,0.599,0.078,0.878,0.078c0.769,0,1.415-0.198,1.939-0.598
				c0.716-0.531,1.074-1.729,1.074-3.594v-0.039c-0.009-1.875-0.358-3.104-1.048-3.689c-0.533-0.442-1.166-0.664-1.899-0.664
				C295.422,76.64,295.173,76.663,294.911,76.708z"/>
			<path fill="#FFFFFF" d="M307.278,78.212c3.029,0,4.546,1.501,4.546,4.502c0,0.365-0.021,0.758-0.065,1.174h-5.856
				c0,1.674,0.433,2.51,1.297,2.51h0.091c0.76-0.045,1.14-0.479,1.14-1.299c0-0.178-0.018-0.371-0.053-0.586l3.118-0.051
				c0,2.48-1.454,3.737-4.363,3.771c-0.035,0.007-0.063,0.01-0.091,0.01c-2.769,0-4.153-1.563-4.153-4.697v-0.293
				C302.977,79.892,304.439,78.212,307.278,78.212z M305.588,82.089h2.96v-0.232c0-1.187-0.45-1.777-1.349-1.777
				C306.23,80.077,305.693,80.748,305.588,82.089z"/>
			<path fill="#FFFFFF" d="M316.292,81.239l0.131,7.08l-3.21,0.02c0-2.992-0.135-6.355-0.406-10.088l2.411-0.193l0.131,1.592
				c0.367-0.781,1.225-1.229,2.567-1.338c0.201-0.015,0.393-0.021,0.577-0.021c1.057,0,1.858,0.258,2.411,0.771
				c0.637,0.61,0.96,1.586,0.969,2.92l-2.908,0.215c0.008-0.11,0.013-0.218,0.013-0.322c0-1.041-0.361-1.562-1.087-1.562h-0.052
				C316.999,80.345,316.483,80.653,316.292,81.239z"/>
			<path fill="#FFFFFF" d="M327.007,78.212c3.031,0,4.546,1.501,4.546,4.502c0,0.365-0.021,0.758-0.063,1.174h-5.856
				c0,1.674,0.435,2.51,1.297,2.51h0.091c0.762-0.045,1.142-0.479,1.142-1.299c0-0.178-0.02-0.371-0.053-0.586l3.116-0.051
				c0,2.48-1.453,3.737-4.361,3.771c-0.035,0.007-0.065,0.01-0.092,0.01c-2.77,0-4.152-1.563-4.152-4.697v-0.293
				C322.706,79.892,324.169,78.212,327.007,78.212z M325.318,82.089h2.96v-0.232c0-1.187-0.45-1.777-1.351-1.777
				C325.959,80.077,325.422,80.748,325.318,82.089z"/>
			<path fill="#FFFFFF" d="M337.894,84.219l3.118,0.146c0,2.351-1.454,3.542-4.361,3.574c-0.035,0.007-0.065,0.01-0.093,0.01
				c-2.769,0-4.151-1.564-4.151-4.697v-0.293c0.087-3.357,1.562-5.055,4.428-5.088h0.105c2.637,0,3.954,1.127,3.954,3.379
				c0,0.131-0.004,0.263-0.013,0.393l-2.815,0.154v-0.232c0-1.187-0.45-1.777-1.351-1.777c-0.917,0-1.376,0.961-1.376,2.881v0.322
				c0.053,2.077,0.518,3.115,1.391,3.115h0.077c0.762-0.045,1.142-0.479,1.142-1.299C337.947,84.628,337.929,84.433,337.894,84.219z
				"/>
			<path fill="#FFFFFF" d="M345.217,74.247l0.131,5.498c0.367-0.846,1.225-1.273,2.568-1.289h0.04c1.327,0,2.271,0.449,2.83,1.35
				c0.384,0.61,0.576,2.045,0.576,4.297c0,1.105-0.048,2.416-0.146,3.926h-3.301c0.113-2.012,0.17-3.57,0.17-4.678
				c0-0.555-0.013-0.996-0.04-1.328c-0.087-0.979-0.463-1.465-1.126-1.465c-0.664,0-1.092,0.261-1.284,0.779l0.131,7.08
				l-3.209,0.021c0-2.994-0.179-7.691-0.535-14.092L345.217,74.247z"/>
			<path fill="#FFFFFF" d="M357.073,78.212c2.969,0,4.455,1.537,4.455,4.609c0,0.124-0.005,0.248-0.015,0.371
				c-0.123,3.327-1.703,5.007-4.741,5.039c-0.035,0.007-0.07,0.01-0.104,0.01c-2.891,0-4.336-1.572-4.336-4.717v-0.273
				C352.418,79.892,353.999,78.212,357.073,78.212z M356.641,80.438c-0.55,0.144-0.926,0.674-1.127,1.592
				c-0.122,0.547-0.183,1.098-0.183,1.65c0,0.371,0.026,0.746,0.079,1.123c0.14,0.938,0.589,1.423,1.35,1.453h0.091
				c0.708,0,1.192-0.348,1.455-1.045c0.22-0.577,0.327-1.266,0.327-2.061c0-0.195-0.004-0.396-0.013-0.596
				c-0.07-1.05-0.279-1.702-0.628-1.963c-0.219-0.156-0.48-0.234-0.786-0.234C357.03,80.36,356.842,80.387,356.641,80.438z"/>
			<path fill="#FFFFFF" d="M372.205,77.929c2.873,0.115,4.31,1.193,4.31,3.23v6.936l-3.052,0.039l-0.104-0.93
				c-0.631,0.534-1.465,0.801-2.502,0.801c-0.445,0-0.928-0.052-1.441-0.154c-1.546-0.286-2.319-1.18-2.319-2.678
				c0-0.182,0.015-0.377,0.04-0.586c0.174-1.543,1.646-2.312,4.415-2.312c0.533,0,1.118,0.029,1.756,0.088V81.23
				c0-0.918-0.389-1.377-1.166-1.377h-0.053c-0.061-0.006-0.118-0.01-0.17-0.01c-0.848,0-1.271,0.515-1.271,1.543v0.146
				l-3.118-0.195c0-2.271,1.467-3.406,4.399-3.406L372.205,77.929L372.205,77.929z M373.305,85.644v-1.721
				c-0.376-0.059-0.716-0.088-1.021-0.088c-0.795,0-1.336,0.199-1.625,0.598c-0.175,0.239-0.264,0.466-0.264,0.674
				c0,0.261,0.142,0.492,0.421,0.691c0.218,0.156,0.502,0.234,0.852,0.234C372.113,86.034,372.659,85.904,373.305,85.644z"/>
			<path fill="#FFFFFF" d="M386.13,88.075l-3.262,0.225c0.035-2.152,0.052-4.229,0.052-6.221c0-2.799-0.035-5.438-0.104-7.92
				l3.21-0.039c-0.035,1.596-0.055,3.232-0.055,4.912C385.973,81.93,386.026,84.944,386.13,88.075z"/>
			<path fill="#FFFFFF" d="M392.327,77.929c2.873,0.115,4.31,1.193,4.31,3.23v6.936l-3.053,0.039l-0.104-0.93
				c-0.629,0.534-1.463,0.801-2.502,0.801c-0.443,0-0.926-0.052-1.439-0.154c-1.546-0.286-2.319-1.18-2.319-2.678
				c0-0.182,0.015-0.377,0.04-0.586c0.174-1.543,1.646-2.312,4.415-2.312c0.533,0,1.118,0.029,1.755,0.088V81.23
				c0-0.918-0.389-1.377-1.166-1.377h-0.052c-0.061-0.006-0.118-0.01-0.17-0.01c-0.847,0-1.271,0.515-1.271,1.543v0.146
				l-3.116-0.195c0-2.271,1.467-3.406,4.4-3.406L392.327,77.929L392.327,77.929z M393.427,85.644v-1.721
				c-0.375-0.059-0.716-0.088-1.021-0.088c-0.795,0-1.336,0.199-1.625,0.598c-0.175,0.239-0.264,0.466-0.264,0.674
				c0,0.261,0.142,0.492,0.421,0.691c0.218,0.156,0.502,0.234,0.852,0.234C392.235,86.034,392.781,85.904,393.427,85.644z"/>
			<path fill="#FFFFFF" d="M402.886,82.001l3.445-0.176c-0.009,0.189-0.013,0.368-0.013,0.537c0,1.452,0.234,2.331,0.708,2.637
				c0.288,0.202,0.598,0.305,0.93,0.305c0.262,0,0.533-0.061,0.812-0.178c0.611-0.254,0.917-1.143,0.917-2.666v-0.225
				c-0.033-1.66-0.131-4.355-0.286-8.086l3.732-0.166c0.062,1.83,0.091,3.444,0.091,4.844c0,3.483-0.19,5.654-0.574,6.514
				c-0.542,1.22-1.435,1.975-2.674,2.268c-0.741,0.176-1.463,0.264-2.16,0.264c-0.474,0-0.937-0.042-1.391-0.127
				c-1.127-0.195-1.954-0.617-2.48-1.265c-0.529-0.647-0.843-1.333-0.938-2.058c-0.079-0.604-0.118-1.273-0.118-2.012V82.001
				L402.886,82.001z"/>
			<path fill="#FFFFFF" d="M421.319,88.241l-0.131-1.592c-0.367,0.847-1.354,1.271-2.962,1.279c-0.018,0.007-0.029,0.01-0.038,0.01
				c-1.591,0-2.644-0.533-3.157-1.604c-0.351-0.709-0.524-2.178-0.524-4.402c0-1.146,0.048-2.496,0.146-4.055h3.184
				c-0.175,2.188-0.262,3.871-0.262,5.051c0,0.593,0.021,1.055,0.063,1.387c0.131,1.016,0.572,1.521,1.323,1.521
				s1.223-0.264,1.415-0.791l-0.131-6.775l3.078-0.021c0,2.8,0.136,6.062,0.405,9.785L421.319,88.241z"/>
			<path fill="#FFFFFF" d="M424.659,84.774l3-0.107v0.127c0,1.003,0.415,1.513,1.245,1.523h0.052c0.804,0,1.206-0.289,1.206-0.869
				V85.38c-0.035-0.638-0.828-1.15-2.378-1.543c-1.55-0.391-2.482-1.048-2.797-1.973c-0.114-0.325-0.17-0.638-0.17-0.938
				c0-0.549,0.188-1.057,0.562-1.523c0.576-0.716,1.45-1.126,2.62-1.23c0.312-0.023,0.62-0.039,0.917-0.039
				c0.777,0,1.462,0.104,2.057,0.305c0.813,0.278,1.375,0.681,1.69,1.201c0.211,0.356,0.313,0.756,0.313,1.189
				c0,0.209-0.021,0.424-0.063,0.646l-2.804,0.049c0.024-0.162,0.04-0.312,0.04-0.449c0-0.65-0.28-0.999-0.84-1.045
				c-0.062-0.006-0.121-0.01-0.184-0.01c-0.576,0-0.965,0.219-1.166,0.652c-0.07,0.15-0.104,0.287-0.104,0.41
				c0,0.309,0.19,0.57,0.574,0.791c0.542,0.312,1.345,0.63,2.404,0.952c1.062,0.322,1.776,0.871,2.141,1.646
				c0.134,0.293,0.197,0.586,0.197,0.879c0,0.495-0.19,0.993-0.576,1.494c-0.61,0.801-1.559,1.267-2.843,1.396
				c-0.28,0.033-0.555,0.049-0.825,0.049c-0.961,0-1.852-0.186-2.673-0.557C425.209,87.26,424.676,86.272,424.659,84.774z"/>
			<path fill="#FFFFFF" d="M436.306,75.097l2.976-0.146v3.232l2.502-0.051l0.039,1.848l-2.543,0.088v4.443
				c0,1.033,0.59,1.553,1.77,1.553c0.244,0,0.51-0.022,0.799-0.068l-0.116,2.148c-0.421,0.039-0.816,0.059-1.193,0.059
				c-2.76,0-4.166-1.061-4.217-3.184v-4.775l-2.148,0.098l-0.053-2.178l2.201,0.021L436.306,75.097z"/>
			<path fill="#FFFFFF" d="M446.578,75.966c0,0.397-0.189,0.736-0.564,1.018s-0.83,0.42-1.36,0.42c-0.523,0-0.976-0.14-1.351-0.42
				c-0.375-0.279-0.562-0.618-0.562-1.018c0-0.391,0.188-0.726,0.562-1.006c0.375-0.277,0.824-0.42,1.351-0.42
				c0.53,0,0.985,0.143,1.36,0.42C446.388,75.24,446.578,75.575,446.578,75.966z M443.066,88.29c-0.062-3.809-0.095-7.1-0.095-9.873
				l3.304-0.146c-0.105,2.656-0.158,5.297-0.158,7.92c0,0.703,0.004,1.403,0.014,2.1L443.066,88.29L443.066,88.29z"/>
			<path fill="#FFFFFF" d="M452.656,84.219l3.117,0.146c0,2.351-1.453,3.542-4.361,3.574c-0.035,0.007-0.066,0.01-0.092,0.01
				c-2.771,0-4.154-1.564-4.154-4.697v-0.293c0.088-3.357,1.564-5.055,4.428-5.088h0.105c2.637,0,3.957,1.127,3.957,3.379
				c0,0.131-0.004,0.263-0.015,0.393l-2.815,0.154v-0.232c0-1.187-0.449-1.777-1.351-1.777c-0.918,0-1.375,0.961-1.375,2.881v0.322
				c0.054,2.077,0.517,3.115,1.39,3.115h0.08c0.76-0.045,1.139-0.479,1.139-1.299C452.708,84.628,452.691,84.433,452.656,84.219z"/>
			<path fill="#FFFFFF" d="M460.529,75.966c0,0.397-0.188,0.736-0.562,1.018s-0.83,0.42-1.36,0.42c-0.525,0-0.976-0.14-1.353-0.42
				c-0.375-0.279-0.562-0.618-0.562-1.018c0-0.391,0.188-0.726,0.562-1.006c0.375-0.277,0.826-0.42,1.353-0.42
				c0.53,0,0.985,0.143,1.36,0.42C460.341,75.24,460.529,75.575,460.529,75.966z M457.017,88.29c-0.061-3.809-0.092-7.1-0.092-9.873
				l3.301-0.146c-0.104,2.656-0.155,5.297-0.155,7.92c0,0.703,0.004,1.403,0.014,2.1L457.017,88.29L457.017,88.29z"/>
			<path fill="#FFFFFF" d="M466.32,77.929c2.873,0.115,4.311,1.193,4.311,3.23v6.936l-3.053,0.039l-0.105-0.93
				c-0.629,0.534-1.463,0.801-2.502,0.801c-0.442,0-0.926-0.052-1.438-0.154c-1.547-0.286-2.32-1.18-2.32-2.678
				c0-0.182,0.014-0.377,0.039-0.586c0.176-1.543,1.646-2.312,4.416-2.312c0.533,0,1.117,0.029,1.754,0.088V81.23
				c0-0.918-0.389-1.377-1.166-1.377h-0.051c-0.062-0.006-0.119-0.01-0.17-0.01c-0.849,0-1.271,0.515-1.271,1.543v0.146
				l-3.119-0.195c0-2.271,1.47-3.406,4.402-3.406L466.32,77.929L466.32,77.929z M467.419,85.644v-1.721
				c-0.375-0.059-0.717-0.088-1.021-0.088c-0.796,0-1.337,0.199-1.625,0.598c-0.177,0.239-0.263,0.466-0.263,0.674
				c0,0.261,0.142,0.492,0.418,0.691c0.22,0.156,0.502,0.234,0.854,0.234C466.226,86.034,466.773,85.904,467.419,85.644z"/>
		</g>
	</g>
	<rect x="508.177" y="65.729" opacity="0.5" fill="#331842" enable-background="new    " width="313.81" height="31"/>
	<g>
		<g>
			<path fill="#FFFFFF" d="M524.177,88.87c0.019-2.191,0.025-4.453,0.025-6.775c0-2.33-0.008-4.725-0.025-7.18
				c1.004-0.091,1.931-0.137,2.777-0.137c2.356,0,4.096,0.352,5.213,1.055c1.521,0.964,2.314,2.744,2.385,5.342v0.703
				c0,2.229-0.289,3.815-0.862,4.768c-0.64,1.049-1.806,1.745-3.498,2.09c-0.979,0.202-2.054,0.303-3.226,0.303
				C526.093,89.036,525.164,88.981,524.177,88.87z M527.425,77.708c-0.146,2.145-0.223,4.213-0.223,6.211
				c0,0.756,0.01,1.498,0.026,2.229c0.306,0.053,0.599,0.078,0.878,0.078c0.768,0,1.413-0.198,1.938-0.598
				c0.717-0.531,1.074-1.729,1.074-3.594v-0.039c-0.008-1.875-0.357-3.104-1.047-3.689c-0.533-0.442-1.166-0.664-1.9-0.664
				C527.937,77.64,527.689,77.663,527.425,77.708z"/>
			<path fill="#FFFFFF" d="M539.792,79.212c3.031,0,4.547,1.501,4.547,4.502c0,0.365-0.021,0.758-0.065,1.174h-5.855
				c0,1.674,0.432,2.51,1.297,2.51h0.092c0.761-0.045,1.142-0.479,1.142-1.299c0-0.178-0.021-0.371-0.053-0.586l3.116-0.051
				c0,2.48-1.455,3.737-4.36,3.771c-0.035,0.007-0.066,0.01-0.095,0.01c-2.768,0-4.149-1.563-4.149-4.697v-0.293
				C535.492,80.892,536.955,79.212,539.792,79.212z M538.103,83.089h2.962v-0.232c0-1.187-0.449-1.777-1.351-1.777
				C538.746,81.077,538.208,81.748,538.103,83.089z"/>
			<path fill="#FFFFFF" d="M548.806,82.239l0.131,7.08l-3.209,0.02c0-2.992-0.137-6.355-0.405-10.088l2.41-0.193l0.131,1.592
				c0.366-0.781,1.223-1.229,2.567-1.338c0.201-0.015,0.394-0.021,0.576-0.021c1.057,0,1.859,0.258,2.41,0.771
				c0.637,0.61,0.961,1.586,0.969,2.92l-2.908,0.215c0.011-0.11,0.015-0.218,0.015-0.322c0-1.041-0.363-1.562-1.086-1.562h-0.056
				C549.513,81.345,549,81.653,548.806,82.239z"/>
			<path fill="#FFFFFF" d="M559.523,79.212c3.028,0,4.547,1.501,4.547,4.502c0,0.365-0.023,0.758-0.066,1.174h-5.854
				c0,1.674,0.432,2.51,1.297,2.51h0.092c0.76-0.045,1.139-0.479,1.139-1.299c0-0.178-0.018-0.371-0.051-0.586l3.117-0.051
				c0,2.48-1.455,3.737-4.363,3.771c-0.035,0.007-0.063,0.01-0.092,0.01c-2.768,0-4.152-1.563-4.152-4.697v-0.293
				C555.22,80.892,556.683,79.212,559.523,79.212z M557.833,83.089h2.961v-0.232c0-1.187-0.451-1.777-1.35-1.777
				C558.474,81.077,557.939,81.748,557.833,83.089z"/>
			<path fill="#FFFFFF" d="M570.41,85.219l3.117,0.146c0,2.351-1.455,3.542-4.363,3.574c-0.035,0.007-0.064,0.01-0.092,0.01
				c-2.771,0-4.152-1.564-4.152-4.697v-0.293c0.088-3.357,1.564-5.055,4.428-5.088h0.105c2.637,0,3.957,1.127,3.957,3.379
				c0,0.131-0.004,0.263-0.015,0.393l-2.815,0.154v-0.232c0-1.187-0.449-1.777-1.35-1.777c-0.916,0-1.375,0.961-1.375,2.881v0.322
				c0.053,2.077,0.516,3.115,1.389,3.115h0.08c0.76-0.045,1.139-0.479,1.139-1.299C570.46,85.628,570.445,85.433,570.41,85.219z"/>
			<path fill="#FFFFFF" d="M577.732,75.247l0.131,5.498c0.366-0.846,1.223-1.273,2.567-1.289h0.039c1.328,0,2.271,0.449,2.83,1.35
				c0.383,0.61,0.576,2.045,0.576,4.297c0,1.105-0.049,2.416-0.145,3.926h-3.302c0.113-2.012,0.17-3.57,0.17-4.678
				c0-0.555-0.014-0.996-0.041-1.328c-0.086-0.979-0.463-1.465-1.125-1.465c-0.664,0-1.092,0.261-1.282,0.779l0.131,7.08
				l-3.211,0.021c0-2.994-0.181-7.691-0.537-14.092L577.732,75.247z"/>
			<path fill="#FFFFFF" d="M589.587,79.212c2.971,0,4.455,1.537,4.455,4.609c0,0.124-0.004,0.248-0.014,0.371
				c-0.123,3.327-1.703,5.007-4.742,5.039c-0.035,0.007-0.07,0.01-0.105,0.01c-2.891,0-4.336-1.572-4.336-4.717v-0.273
				C584.933,80.892,586.513,79.212,589.587,79.212z M589.156,81.438c-0.549,0.144-0.927,0.674-1.125,1.592
				c-0.123,0.547-0.187,1.098-0.187,1.65c0,0.371,0.027,0.746,0.08,1.123c0.142,0.938,0.588,1.423,1.351,1.453h0.092
				c0.707,0,1.19-0.348,1.453-1.045c0.219-0.577,0.328-1.266,0.328-2.061c0-0.195-0.005-0.396-0.015-0.596
				c-0.067-1.05-0.276-1.702-0.629-1.963c-0.217-0.156-0.479-0.234-0.785-0.234C589.544,81.36,589.357,81.387,589.156,81.438z"/>
			<path fill="#FFFFFF" d="M604.72,78.929c2.873,0.115,4.312,1.193,4.312,3.23v6.936l-3.056,0.039l-0.104-0.93
				c-0.629,0.534-1.463,0.801-2.502,0.801c-0.445,0-0.926-0.052-1.441-0.154c-1.545-0.286-2.317-1.18-2.317-2.678
				c0-0.182,0.014-0.377,0.041-0.586c0.174-1.543,1.645-2.312,4.414-2.312c0.53,0,1.116,0.029,1.756,0.088V82.23
				c0-0.918-0.392-1.377-1.166-1.377h-0.054c-0.062-0.006-0.116-0.01-0.17-0.01c-0.848,0-1.271,0.515-1.271,1.543v0.146
				l-3.117-0.195c0-2.271,1.467-3.406,4.402-3.406L604.72,78.929L604.72,78.929z M605.82,86.644v-1.721
				c-0.375-0.059-0.716-0.088-1.021-0.088c-0.795,0-1.336,0.199-1.625,0.598c-0.176,0.239-0.262,0.466-0.262,0.674
				c0,0.261,0.139,0.492,0.418,0.691c0.219,0.156,0.502,0.234,0.852,0.234C604.628,87.034,605.173,86.904,605.82,86.644z"/>
			<path fill="#FFFFFF" d="M618.646,89.075l-3.262,0.225c0.035-2.152,0.053-4.229,0.053-6.221c0-2.799-0.034-5.438-0.104-7.92
				l3.209-0.039c-0.035,1.596-0.051,3.232-0.051,4.912C618.488,82.93,618.541,85.944,618.646,89.075z"/>
			<path fill="#FFFFFF" d="M624.841,78.929c2.873,0.115,4.312,1.193,4.312,3.23v6.936l-3.054,0.039l-0.104-0.93
				c-0.629,0.534-1.463,0.801-2.502,0.801c-0.445,0-0.926-0.052-1.441-0.154c-1.547-0.286-2.317-1.18-2.317-2.678
				c0-0.182,0.012-0.377,0.039-0.586c0.174-1.543,1.645-2.312,4.413-2.312c0.533,0,1.117,0.029,1.757,0.088V82.23
				c0-0.918-0.39-1.377-1.166-1.377h-0.054c-0.061-0.006-0.116-0.01-0.17-0.01c-0.848,0-1.271,0.515-1.271,1.543v0.146l-3.117-0.195
				c0-2.271,1.467-3.406,4.402-3.406L624.841,78.929L624.841,78.929z M625.943,86.644v-1.721c-0.375-0.059-0.718-0.088-1.021-0.088
				c-0.795,0-1.336,0.199-1.625,0.598c-0.176,0.239-0.262,0.466-0.262,0.674c0,0.261,0.139,0.492,0.418,0.691
				c0.219,0.156,0.502,0.234,0.852,0.234C624.75,87.034,625.296,86.904,625.943,86.644z"/>
			<path fill="#FFFFFF" d="M635.296,89.104c0.051-1.861,0.078-3.736,0.078-5.625c0-2.893-0.061-5.812-0.184-8.76
				c1.354-0.104,2.567-0.156,3.643-0.156c2.986,0,4.891,0.407,5.711,1.221c0.771,0.762,1.154,1.604,1.154,2.521
				c0,0.417-0.074,0.847-0.226,1.289c-0.506,1.433-1.569,2.341-3.194,2.725c1.135,0.117,1.996,0.573,2.58,1.367
				c0.559,0.769,0.838,2.702,0.838,5.801v0.42l-3.957,0.039c0.045-0.82,0.063-1.556,0.063-2.207c0-1.973-0.213-3.18-0.641-3.623
				c-0.49-0.494-1.07-0.742-1.742-0.742c-0.131,0-0.268,0.01-0.406,0.029c0.054,1.986,0.166,3.867,0.341,5.645L635.296,89.104z
				 M638.65,76.995l0.092,4.18c1.625-0.059,2.656-0.469,3.092-1.229c0.236-0.403,0.354-0.797,0.354-1.182
				c0-0.332-0.088-0.657-0.264-0.979c-0.312-0.553-1.096-0.83-2.344-0.83C639.292,76.956,638.982,76.97,638.65,76.995z"/>
			<path fill="#FFFFFF" d="M651.07,79.212c3.028,0,4.545,1.501,4.545,4.502c0,0.365-0.021,0.758-0.064,1.174h-5.854
				c0,1.674,0.432,2.51,1.297,2.51h0.092c0.76-0.045,1.139-0.479,1.139-1.299c0-0.178-0.018-0.371-0.051-0.586l3.117-0.051
				c0,2.48-1.453,3.737-4.361,3.771c-0.035,0.007-0.063,0.01-0.092,0.01c-2.77,0-4.154-1.563-4.154-4.697v-0.293
				C646.767,80.892,648.232,79.212,651.07,79.212z M649.378,83.089h2.961v-0.232c0-1.187-0.449-1.777-1.35-1.777
				C650.021,81.077,649.484,81.748,649.378,83.089z"/>
			<path fill="#FFFFFF" d="M656.675,93.138c0.055-2.194,0.08-4.527,0.08-7.002c0-2.252-0.021-4.615-0.065-7.092l3.104-0.01
				l0.104,1.504c0.646-0.729,1.508-1.094,2.581-1.094c2.681,0,4.021,1.579,4.021,4.736v0.193c-0.061,3.164-1.396,4.746-4.01,4.746
				c-0.105,0-0.209-0.003-0.314-0.01c-0.891-0.032-1.608-0.395-2.162-1.084c0,1.445,0.049,3.146,0.146,5.106h-3.484L656.675,93.138
				L656.675,93.138z M659.953,82.542l0.063,3.672c0.507,0.517,1.019,0.771,1.533,0.771c0.209,0,0.418-0.045,0.629-0.137
				c0.638-0.262,0.957-1.038,0.957-2.334c0-0.156-0.006-0.318-0.014-0.488c-0.086-1.588-0.51-2.425-1.27-2.51
				c-0.08-0.006-0.154-0.012-0.226-0.012C660.964,81.507,660.406,81.853,659.953,82.542z"/>
			<path fill="#FFFFFF" d="M672.607,78.929c2.872,0.115,4.311,1.193,4.311,3.23v6.936l-3.053,0.039l-0.105-0.93
				c-0.629,0.534-1.463,0.801-2.502,0.801c-0.442,0-0.926-0.052-1.438-0.154c-1.547-0.286-2.32-1.18-2.32-2.678
				c0-0.182,0.014-0.377,0.039-0.586c0.176-1.543,1.646-2.312,4.416-2.312c0.533,0,1.117,0.029,1.756,0.088V82.23
				c0-0.918-0.389-1.377-1.166-1.377h-0.053c-0.062-0.006-0.119-0.01-0.17-0.01c-0.851,0-1.271,0.515-1.271,1.543v0.146
				l-3.119-0.195c0-2.271,1.47-3.406,4.402-3.406L672.607,78.929L672.607,78.929z M673.708,86.644v-1.721
				c-0.377-0.059-0.717-0.088-1.021-0.088c-0.797,0-1.338,0.199-1.625,0.598c-0.176,0.239-0.264,0.466-0.264,0.674
				c0,0.261,0.142,0.492,0.42,0.691c0.219,0.156,0.502,0.234,0.853,0.234C672.515,87.034,673.06,86.904,673.708,86.644z"/>
			<path fill="#FFFFFF" d="M681.451,82.239l0.131,7.08l-3.209,0.02c0-2.992-0.135-6.355-0.406-10.088l2.41-0.193l0.131,1.592
				c0.367-0.781,1.226-1.229,2.568-1.338c0.201-0.015,0.393-0.021,0.578-0.021c1.057,0,1.858,0.258,2.409,0.771
				c0.638,0.61,0.961,1.586,0.97,2.92l-2.908,0.215c0.008-0.11,0.012-0.218,0.012-0.322c0-1.041-0.36-1.562-1.086-1.562h-0.053
				C682.158,81.345,681.642,81.653,681.451,82.239z"/>
			<path fill="#FFFFFF" d="M692.978,78.929c2.875,0.115,4.312,1.193,4.312,3.23v6.936l-3.053,0.039l-0.104-0.93
				c-0.629,0.534-1.463,0.801-2.502,0.801c-0.445,0-0.926-0.052-1.44-0.154c-1.548-0.286-2.318-1.18-2.318-2.678
				c0-0.182,0.012-0.377,0.039-0.586c0.174-1.543,1.645-2.312,4.414-2.312c0.533,0,1.119,0.029,1.756,0.088V82.23
				c0-0.918-0.389-1.377-1.166-1.377h-0.053c-0.062-0.006-0.117-0.01-0.17-0.01c-0.849,0-1.271,0.515-1.271,1.543v0.146
				l-3.117-0.195c0-2.271,1.468-3.406,4.402-3.406L692.978,78.929L692.978,78.929z M694.08,86.644v-1.721
				c-0.375-0.059-0.717-0.088-1.021-0.088c-0.795,0-1.336,0.199-1.625,0.598c-0.176,0.239-0.262,0.466-0.262,0.674
				c0,0.261,0.139,0.492,0.418,0.691c0.219,0.156,0.502,0.234,0.854,0.234C692.886,87.034,693.431,86.904,694.08,86.644z"/>
			<path fill="#FFFFFF" d="M703.695,85.219l3.116,0.146c0,2.351-1.454,3.542-4.362,3.574c-0.035,0.007-0.064,0.01-0.092,0.01
				c-2.771,0-4.152-1.564-4.152-4.697v-0.293c0.088-3.357,1.562-5.055,4.428-5.088h0.105c2.637,0,3.957,1.127,3.957,3.379
				c0,0.131-0.004,0.263-0.015,0.393l-2.815,0.154v-0.232c0-1.187-0.449-1.777-1.351-1.777c-0.918,0-1.375,0.961-1.375,2.881v0.322
				c0.054,2.077,0.517,3.115,1.39,3.115h0.08c0.76-0.045,1.139-0.479,1.139-1.299C703.748,85.628,703.729,85.433,703.695,85.219z"/>
			<path fill="#FFFFFF" d="M711.568,76.966c0,0.397-0.188,0.736-0.562,1.018s-0.83,0.42-1.363,0.42c-0.522,0-0.973-0.14-1.35-0.42
				c-0.375-0.279-0.562-0.618-0.562-1.018c0-0.391,0.188-0.726,0.562-1.006c0.377-0.277,0.826-0.42,1.35-0.42
				c0.533,0,0.988,0.143,1.363,0.42C711.38,76.24,711.568,76.575,711.568,76.966z M708.056,89.29
				c-0.061-3.809-0.092-7.1-0.092-9.873l3.301-0.146c-0.104,2.656-0.155,5.297-0.155,7.92c0,0.703,0.004,1.403,0.014,2.1
				L708.056,89.29L708.056,89.29z"/>
			<path fill="#FFFFFF" d="M716.9,79.212c2.969,0,4.455,1.537,4.455,4.609c0,0.124-0.007,0.248-0.015,0.371
				c-0.123,3.327-1.703,5.007-4.742,5.039c-0.034,0.007-0.069,0.01-0.104,0.01c-2.891,0-4.336-1.572-4.336-4.717v-0.273
				C712.246,80.892,713.826,79.212,716.9,79.212z M716.466,81.438c-0.549,0.144-0.926,0.674-1.125,1.592
				c-0.123,0.547-0.184,1.098-0.184,1.65c0,0.371,0.024,0.746,0.078,1.123c0.141,0.938,0.59,1.423,1.35,1.453h0.092
				c0.707,0,1.193-0.348,1.455-1.045c0.217-0.577,0.328-1.266,0.328-2.061c0-0.195-0.004-0.396-0.014-0.596
				c-0.07-1.05-0.279-1.702-0.629-1.963c-0.22-0.156-0.48-0.234-0.785-0.234C716.857,81.36,716.667,81.387,716.466,81.438z
				 M715.197,77.308c1.021-0.904,1.858-1.77,2.516-2.588l2.148,1.27c-0.927,0.678-1.957,1.508-3.093,2.49L715.197,77.308z"/>
			<path fill="#FFFFFF" d="M724.486,78.958l0.131,1.592c0.367-0.846,1.332-1.273,2.895-1.287h0.054c1.536,0,2.586,0.447,3.145,1.348
				c0.383,0.612,0.576,2.045,0.576,4.297c0,1.107-0.049,2.416-0.146,3.926h-3.17c0.113-2.012,0.17-3.568,0.17-4.678
				c0-0.553-0.014-0.996-0.039-1.328c-0.088-0.977-0.508-1.465-1.258-1.465c-0.752,0-1.223,0.261-1.416,0.781l0.131,7.08
				l-3.075,0.02c0-2.994-0.138-6.355-0.406-10.088L724.486,78.958z"/>
			<path fill="#FFFFFF" d="M740.939,88.489l-3.263,0.225c0-4.776-0.104-9.264-0.313-13.457l3.733-0.232
				C741,79.443,740.949,83.933,740.939,88.489z"/>
			<path fill="#FFFFFF" d="M744.66,78.958l0.131,1.592c0.367-0.846,1.332-1.273,2.895-1.287h0.056c1.537,0,2.584,0.447,3.143,1.348
				c0.385,0.612,0.578,2.045,0.578,4.297c0,1.107-0.049,2.416-0.145,3.926h-3.173c0.113-2.012,0.173-3.568,0.173-4.678
				c0-0.553-0.015-0.996-0.039-1.328c-0.088-0.977-0.509-1.465-1.261-1.465c-0.75,0-1.223,0.261-1.414,0.781l0.132,7.08l-3.078,0.02
				c0-2.994-0.138-6.355-0.406-10.088L744.66,78.958z"/>
			<path fill="#FFFFFF" d="M754.734,76.097l2.975-0.146v3.232l2.502-0.051l0.039,1.848l-2.543,0.088v4.443
				c0,1.033,0.59,1.553,1.77,1.553c0.244,0,0.513-0.022,0.8-0.068l-0.117,2.148c-0.42,0.039-0.816,0.059-1.193,0.059
				c-2.76,0-4.166-1.061-4.217-3.184v-4.775l-2.148,0.098l-0.053-2.178l2.201,0.021L754.734,76.097z"/>
			<path fill="#FFFFFF" d="M765.595,79.212c3.031,0,4.545,1.501,4.545,4.502c0,0.365-0.021,0.758-0.063,1.174h-5.855
				c0,1.674,0.433,2.51,1.297,2.51h0.093c0.76-0.045,1.141-0.479,1.141-1.299c0-0.178-0.018-0.371-0.053-0.586l3.119-0.051
				c0,2.48-1.455,3.737-4.363,3.771c-0.035,0.007-0.064,0.01-0.092,0.01c-2.771,0-4.152-1.563-4.152-4.697v-0.293
				C761.292,80.892,762.755,79.212,765.595,79.212z M763.906,83.089h2.961v-0.232c0-1.187-0.451-1.777-1.353-1.777
				C764.546,81.077,764.009,81.748,763.906,83.089z"/>
			<path fill="#FFFFFF" d="M771.49,90.374l3.08-0.127c-0.011,0.078-0.015,0.156-0.015,0.234c0,0.709,0.379,1.097,1.142,1.162
				c0.121,0.013,0.233,0.02,0.34,0.02c0.654,0,1.121-0.193,1.402-0.586c0.243-0.352,0.364-1.01,0.364-1.973
				c0-0.26-0.008-0.547-0.024-0.859c-0.488,0.729-1.396,1.127-2.726,1.191c-2.594-0.021-3.891-1.663-3.891-4.934v-0.066
				c0.016-3.309,1.559-4.973,4.625-4.99c0.838,0,1.588,0.365,2.252,1.094l0.039-1.553l2.869,0.098c0,5.371-0.021,8.698-0.064,9.98
				c-0.045,1.282-0.305,2.311-0.778,3.086c-0.478,0.772-1.287,1.27-2.433,1.484c-0.602,0.115-1.201,0.176-1.795,0.176
				c-0.533,0-1.061-0.046-1.584-0.139c-1.119-0.193-1.887-0.562-2.307-1.104c-0.351-0.443-0.523-1.022-0.523-1.738
				C771.464,90.689,771.472,90.536,771.49,90.374z M777.751,86.507v-3.965c-0.428-0.645-0.969-0.967-1.625-0.967
				c-0.131,0-0.266,0.014-0.406,0.039c-0.846,0.15-1.312,1.021-1.399,2.607c-0.009,0.17-0.015,0.332-0.015,0.486
				c0,1.296,0.324,2.09,0.972,2.385c0.217,0.104,0.448,0.154,0.692,0.154C776.511,87.249,777.104,87.002,777.751,86.507z"/>
			<path fill="#FFFFFF" d="M785.443,82.239l0.131,7.08l-3.209,0.02c0-2.992-0.138-6.355-0.406-10.088l2.41-0.193l0.131,1.592
				c0.367-0.781,1.223-1.229,2.568-1.338c0.198-0.015,0.393-0.021,0.573-0.021c1.06,0,1.861,0.258,2.412,0.771
				c0.637,0.61,0.959,1.586,0.969,2.92l-2.907,0.215c0.01-0.11,0.014-0.218,0.014-0.322c0-1.041-0.363-1.562-1.088-1.562h-0.053
				C786.15,81.345,785.634,81.653,785.443,82.239z"/>
			<path fill="#FFFFFF" d="M796.97,78.929c2.875,0.115,4.312,1.193,4.312,3.23v6.936l-3.054,0.039l-0.104-0.93
				c-0.629,0.534-1.463,0.801-2.502,0.801c-0.447,0-0.926-0.052-1.441-0.154c-1.547-0.286-2.317-1.18-2.317-2.678
				c0-0.182,0.012-0.377,0.039-0.586c0.174-1.543,1.646-2.312,4.416-2.312c0.53,0,1.116,0.029,1.754,0.088V82.23
				c0-0.918-0.39-1.377-1.166-1.377h-0.052c-0.062-0.006-0.118-0.01-0.172-0.01c-0.846,0-1.27,0.515-1.27,1.543v0.146l-3.119-0.195
				c0-2.271,1.469-3.406,4.402-3.406L796.97,78.929L796.97,78.929z M798.072,86.644v-1.721c-0.377-0.059-0.717-0.088-1.023-0.088
				c-0.795,0-1.336,0.199-1.625,0.598c-0.174,0.239-0.262,0.466-0.262,0.674c0,0.261,0.141,0.492,0.42,0.691
				c0.217,0.156,0.502,0.234,0.852,0.234C796.878,87.034,797.425,86.904,798.072,86.644z"/>
			<path fill="#FFFFFF" d="M806.009,89.075l-3.262,0.225c0.035-2.152,0.053-4.229,0.053-6.221c0-2.799-0.035-5.438-0.104-7.92
				l3.209-0.039c-0.035,1.596-0.054,3.232-0.054,4.912C805.853,82.93,805.906,85.944,806.009,89.075z"/>
		</g>
	</g>
</g>
</svg>
