<?xml version="1.0" encoding="utf-8"?>
<!-- Generator: Adobe Illustrator 16.0.0, SVG Export Plug-In . SVG Version: 6.00 Build 0)  -->
<!DOCTYPE svg PUBLIC "-//W3C//DTD SVG 1.1//EN" "http://www.w3.org/Graphics/SVG/1.1/DTD/svg11.dtd">
<svg version="1.1" id="Capa_1" xmlns="http://www.w3.org/2000/svg" xmlns:xlink="http://www.w3.org/1999/xlink" x="0px" y="0px"
	 width="586.269px" height="156.368px" viewBox="0 0 586.269 156.368" enable-background="new 0 0 586.269 156.368"
	 xml:space="preserve">
<g>
	<g>
		<g>
			<path fill="#3C3C3B" d="M305.3,133.301l1.43-0.125c0.067,0.573,0.225,1.043,0.473,1.41c0.247,0.367,0.631,0.664,1.152,0.891
				c0.521,0.227,1.106,0.34,1.758,0.34c0.578,0,1.088-0.086,1.531-0.258c0.442-0.172,0.772-0.407,0.988-0.707
				c0.216-0.3,0.324-0.626,0.324-0.98c0-0.359-0.104-0.673-0.312-0.941c-0.208-0.269-0.552-0.493-1.031-0.676
				c-0.308-0.12-0.987-0.306-2.039-0.559c-1.052-0.253-1.789-0.491-2.211-0.715c-0.547-0.286-0.955-0.642-1.223-1.066
				c-0.269-0.425-0.402-0.899-0.402-1.426c0-0.578,0.164-1.118,0.492-1.621s0.807-0.884,1.438-1.145
				c0.63-0.261,1.331-0.391,2.102-0.391c0.849,0,1.598,0.137,2.246,0.41s1.147,0.676,1.496,1.207
				c0.349,0.531,0.536,1.133,0.562,1.805l-1.453,0.109c-0.078-0.724-0.343-1.271-0.793-1.641c-0.451-0.37-1.116-0.555-1.996-0.555
				c-0.917,0-1.585,0.168-2.004,0.504c-0.419,0.336-0.629,0.741-0.629,1.215c0,0.411,0.148,0.75,0.445,1.016
				c0.292,0.266,1.053,0.538,2.285,0.816c1.231,0.278,2.077,0.522,2.535,0.73c0.667,0.308,1.159,0.696,1.477,1.168
				c0.317,0.472,0.477,1.015,0.477,1.629c0,0.609-0.175,1.184-0.523,1.723c-0.349,0.539-0.851,0.958-1.504,1.258
				c-0.654,0.3-1.39,0.449-2.207,0.449c-1.037,0-1.905-0.151-2.605-0.453c-0.701-0.302-1.25-0.757-1.648-1.363
				S305.321,134.066,305.3,133.301z"/>
			<path fill="#3C3C3B" d="M321.988,134.309l1.453,0.18c-0.229,0.849-0.654,1.508-1.273,1.977c-0.62,0.469-1.412,0.703-2.375,0.703
				c-1.214,0-2.176-0.374-2.887-1.121s-1.066-1.796-1.066-3.145c0-1.396,0.359-2.479,1.078-3.25s1.651-1.156,2.797-1.156
				c1.109,0,2.016,0.378,2.719,1.133s1.055,1.817,1.055,3.188c0,0.083-0.003,0.208-0.008,0.375h-6.188
				c0.052,0.911,0.31,1.609,0.773,2.094c0.463,0.484,1.042,0.727,1.734,0.727c0.516,0,0.956-0.136,1.32-0.406
				C321.485,135.335,321.774,134.902,321.988,134.309z M317.371,132.035h4.633c-0.062-0.698-0.24-1.222-0.531-1.57
				c-0.448-0.542-1.029-0.812-1.742-0.812c-0.646,0-1.189,0.216-1.629,0.648C317.661,130.733,317.417,131.312,317.371,132.035z"/>
			<path fill="#3C3C3B" d="M325.207,136.98v-8.297h1.266v1.18c0.609-0.911,1.489-1.367,2.641-1.367c0.5,0,0.959,0.09,1.379,0.27
				c0.419,0.18,0.733,0.415,0.941,0.707c0.208,0.292,0.354,0.638,0.438,1.039c0.052,0.261,0.078,0.716,0.078,1.367v5.102h-1.406
				v-5.047c0-0.573-0.055-1.001-0.164-1.285s-0.304-0.511-0.582-0.68c-0.279-0.169-0.605-0.254-0.98-0.254
				c-0.599,0-1.116,0.19-1.551,0.57c-0.435,0.38-0.652,1.102-0.652,2.164v4.531H325.207z"/>
			<path fill="#3C3C3B" d="M337.175,135.723l0.203,1.242c-0.396,0.083-0.75,0.125-1.062,0.125c-0.511,0-0.906-0.081-1.188-0.242
				s-0.479-0.374-0.594-0.637c-0.115-0.263-0.172-0.816-0.172-1.66v-4.773h-1.031v-1.094h1.031v-2.055l1.398-0.844v2.898h1.414
				v1.094h-1.414v4.852c0,0.401,0.024,0.659,0.074,0.773c0.049,0.114,0.13,0.206,0.242,0.273c0.112,0.067,0.272,0.102,0.48,0.102
				C336.714,135.777,336.92,135.759,337.175,135.723z"/>
			<path fill="#3C3C3B" d="M344.23,134.309l1.453,0.18c-0.229,0.849-0.654,1.508-1.273,1.977c-0.62,0.469-1.412,0.703-2.375,0.703
				c-1.214,0-2.176-0.374-2.887-1.121s-1.066-1.796-1.066-3.145c0-1.396,0.359-2.479,1.078-3.25s1.651-1.156,2.797-1.156
				c1.109,0,2.016,0.378,2.719,1.133s1.055,1.817,1.055,3.188c0,0.083-0.003,0.208-0.008,0.375h-6.188
				c0.052,0.911,0.31,1.609,0.773,2.094c0.463,0.484,1.042,0.727,1.734,0.727c0.516,0,0.956-0.136,1.32-0.406
				C343.727,135.335,344.016,134.902,344.23,134.309z M339.613,132.035h4.633c-0.062-0.698-0.24-1.222-0.531-1.57
				c-0.448-0.542-1.029-0.812-1.742-0.812c-0.646,0-1.189,0.216-1.629,0.648C339.903,130.733,339.66,131.312,339.613,132.035z"/>
			<path fill="#3C3C3B" d="M347.449,136.98v-8.297h1.266v1.18c0.609-0.911,1.489-1.367,2.641-1.367c0.5,0,0.959,0.09,1.379,0.27
				c0.419,0.18,0.733,0.415,0.941,0.707c0.208,0.292,0.354,0.638,0.438,1.039c0.052,0.261,0.078,0.716,0.078,1.367v5.102h-1.406
				v-5.047c0-0.573-0.055-1.001-0.164-1.285s-0.304-0.511-0.582-0.68c-0.279-0.169-0.605-0.254-0.98-0.254
				c-0.599,0-1.116,0.19-1.551,0.57c-0.435,0.38-0.652,1.102-0.652,2.164v4.531H347.449z"/>
			<path fill="#3C3C3B" d="M361.761,133.941l1.383,0.18c-0.151,0.953-0.538,1.699-1.16,2.238c-0.623,0.539-1.387,0.809-2.293,0.809
				c-1.136,0-2.048-0.371-2.738-1.113c-0.69-0.742-1.035-1.806-1.035-3.191c0-0.896,0.148-1.68,0.445-2.352s0.749-1.176,1.355-1.512
				c0.606-0.336,1.267-0.504,1.98-0.504c0.901,0,1.638,0.228,2.211,0.684c0.573,0.456,0.94,1.103,1.102,1.941l-1.367,0.211
				c-0.13-0.558-0.361-0.977-0.691-1.258c-0.331-0.281-0.73-0.422-1.199-0.422c-0.708,0-1.284,0.254-1.727,0.762
				c-0.443,0.508-0.664,1.312-0.664,2.41c0,1.114,0.213,1.925,0.641,2.43c0.427,0.505,0.984,0.758,1.672,0.758
				c0.552,0,1.013-0.169,1.383-0.508C361.428,135.165,361.662,134.645,361.761,133.941z"/>
			<path fill="#3C3C3B" d="M364.355,127.145v-1.617h1.406v1.617H364.355z M364.355,136.98v-8.297h1.406v8.297H364.355z"/>
			<path fill="#3C3C3B" d="M373.316,135.957c-0.521,0.442-1.022,0.755-1.504,0.938c-0.482,0.183-0.999,0.273-1.551,0.273
				c-0.912,0-1.612-0.223-2.102-0.668c-0.49-0.445-0.734-1.015-0.734-1.707c0-0.406,0.092-0.777,0.277-1.113
				c0.185-0.336,0.427-0.605,0.727-0.809c0.299-0.203,0.637-0.356,1.012-0.461c0.276-0.073,0.692-0.144,1.25-0.211
				c1.135-0.136,1.971-0.297,2.508-0.484c0.005-0.192,0.008-0.315,0.008-0.367c0-0.573-0.133-0.977-0.398-1.211
				c-0.359-0.317-0.894-0.477-1.602-0.477c-0.662,0-1.15,0.116-1.465,0.348c-0.315,0.231-0.548,0.642-0.699,1.23l-1.375-0.188
				c0.125-0.589,0.331-1.063,0.617-1.426c0.286-0.362,0.7-0.641,1.242-0.836c0.542-0.195,1.169-0.293,1.883-0.293
				c0.708,0,1.284,0.083,1.727,0.25c0.442,0.167,0.768,0.376,0.977,0.629c0.208,0.253,0.354,0.571,0.438,0.957
				c0.047,0.239,0.07,0.672,0.07,1.297v1.875c0,1.308,0.03,2.134,0.09,2.48c0.06,0.347,0.178,0.679,0.355,0.996h-1.469
				C373.451,136.688,373.357,136.348,373.316,135.957z M373.199,132.816c-0.511,0.208-1.276,0.386-2.297,0.531
				c-0.578,0.083-0.987,0.177-1.227,0.281c-0.24,0.104-0.425,0.257-0.555,0.457c-0.13,0.2-0.195,0.423-0.195,0.668
				c0,0.375,0.142,0.688,0.426,0.938c0.284,0.25,0.699,0.375,1.246,0.375c0.542,0,1.023-0.118,1.445-0.355s0.731-0.562,0.93-0.973
				c0.151-0.317,0.227-0.786,0.227-1.406V132.816z"/>
			<path fill="#3C3C3B" d="M376.238,134.504l1.391-0.219c0.078,0.558,0.295,0.984,0.652,1.281c0.356,0.297,0.855,0.445,1.496,0.445
				c0.646,0,1.125-0.132,1.438-0.395s0.469-0.571,0.469-0.926c0-0.317-0.138-0.567-0.414-0.75c-0.193-0.125-0.672-0.284-1.438-0.477
				c-1.031-0.261-1.746-0.485-2.145-0.676s-0.701-0.453-0.906-0.789c-0.206-0.336-0.309-0.707-0.309-1.113
				c0-0.37,0.084-0.712,0.254-1.027c0.169-0.315,0.399-0.577,0.691-0.785c0.219-0.161,0.517-0.298,0.895-0.41
				c0.377-0.112,0.782-0.168,1.215-0.168c0.651,0,1.223,0.094,1.715,0.281s0.855,0.441,1.09,0.762s0.396,0.749,0.484,1.285
				l-1.375,0.188c-0.062-0.427-0.244-0.761-0.543-1c-0.3-0.239-0.723-0.359-1.27-0.359c-0.646,0-1.107,0.106-1.383,0.32
				c-0.276,0.214-0.414,0.464-0.414,0.75c0,0.183,0.057,0.347,0.172,0.492c0.114,0.151,0.294,0.276,0.539,0.375
				c0.141,0.052,0.555,0.172,1.242,0.359c0.995,0.266,1.688,0.483,2.082,0.652c0.393,0.169,0.702,0.415,0.926,0.738
				c0.224,0.323,0.336,0.724,0.336,1.203c0,0.469-0.137,0.91-0.41,1.324s-0.668,0.734-1.184,0.961s-1.099,0.34-1.75,0.34
				c-1.078,0-1.9-0.224-2.465-0.672C376.754,136.048,376.394,135.384,376.238,134.504z"/>
			<path fill="#3C3C3B" d="M394.628,136.98v-1.047c-0.526,0.823-1.3,1.234-2.32,1.234c-0.662,0-1.27-0.183-1.824-0.547
				s-0.984-0.874-1.289-1.527s-0.457-1.405-0.457-2.254c0-0.828,0.138-1.579,0.414-2.254c0.276-0.675,0.69-1.191,1.242-1.551
				c0.552-0.359,1.169-0.539,1.852-0.539c0.5,0,0.945,0.105,1.336,0.316s0.708,0.485,0.953,0.824v-4.109h1.398v11.453H394.628z
				 M390.183,132.84c0,1.062,0.224,1.856,0.672,2.383c0.448,0.526,0.977,0.789,1.586,0.789c0.614,0,1.137-0.251,1.566-0.754
				s0.645-1.27,0.645-2.301c0-1.136-0.219-1.969-0.656-2.5s-0.977-0.797-1.617-0.797c-0.625,0-1.147,0.255-1.566,0.766
				C390.393,130.937,390.183,131.741,390.183,132.84z"/>
			<path fill="#3C3C3B" d="M403.824,134.309l1.453,0.18c-0.229,0.849-0.654,1.508-1.273,1.977c-0.62,0.469-1.412,0.703-2.375,0.703
				c-1.214,0-2.176-0.374-2.887-1.121s-1.066-1.796-1.066-3.145c0-1.396,0.359-2.479,1.078-3.25s1.651-1.156,2.797-1.156
				c1.109,0,2.016,0.378,2.719,1.133s1.055,1.817,1.055,3.188c0,0.083-0.003,0.208-0.008,0.375h-6.188
				c0.052,0.911,0.31,1.609,0.773,2.094c0.463,0.484,1.042,0.727,1.734,0.727c0.516,0,0.956-0.136,1.32-0.406
				C403.321,135.335,403.61,134.902,403.824,134.309z M399.207,132.035h4.633c-0.062-0.698-0.24-1.222-0.531-1.57
				c-0.448-0.542-1.029-0.812-1.742-0.812c-0.646,0-1.189,0.216-1.629,0.648C399.497,130.733,399.253,131.312,399.207,132.035z"/>
			<path fill="#3C3C3B" d="M410.894,133.73l1.367-0.188c0.036,0.875,0.2,1.474,0.492,1.797c0.292,0.323,0.695,0.484,1.211,0.484
				c0.38,0,0.708-0.087,0.984-0.262c0.276-0.175,0.466-0.411,0.57-0.711c0.104-0.3,0.156-0.777,0.156-1.434v-7.891h1.516v7.805
				c0,0.958-0.116,1.7-0.348,2.227c-0.232,0.526-0.599,0.927-1.102,1.203c-0.503,0.276-1.093,0.414-1.77,0.414
				c-1.005,0-1.775-0.289-2.309-0.867C411.129,135.73,410.873,134.871,410.894,133.73z"/>
			<path fill="#3C3C3B" d="M424.925,136.98v-1.219c-0.646,0.938-1.523,1.406-2.633,1.406c-0.49,0-0.947-0.094-1.371-0.281
				c-0.425-0.188-0.74-0.423-0.945-0.707c-0.206-0.284-0.351-0.632-0.434-1.043c-0.058-0.276-0.086-0.714-0.086-1.312v-5.141h1.406
				v4.602c0,0.734,0.028,1.229,0.086,1.484c0.088,0.37,0.276,0.66,0.562,0.871c0.286,0.211,0.641,0.316,1.062,0.316
				s0.817-0.108,1.188-0.324c0.37-0.216,0.631-0.511,0.785-0.883c0.153-0.372,0.23-0.913,0.23-1.621v-4.445h1.406v8.297H424.925z"/>
			<path fill="#3C3C3B" d="M427.824,134.504l1.391-0.219c0.078,0.558,0.295,0.984,0.652,1.281c0.356,0.297,0.855,0.445,1.496,0.445
				c0.646,0,1.125-0.132,1.438-0.395s0.469-0.571,0.469-0.926c0-0.317-0.138-0.567-0.414-0.75c-0.193-0.125-0.672-0.284-1.438-0.477
				c-1.031-0.261-1.746-0.485-2.145-0.676s-0.701-0.453-0.906-0.789c-0.206-0.336-0.309-0.707-0.309-1.113
				c0-0.37,0.084-0.712,0.254-1.027c0.169-0.315,0.399-0.577,0.691-0.785c0.219-0.161,0.517-0.298,0.895-0.41
				c0.377-0.112,0.782-0.168,1.215-0.168c0.651,0,1.223,0.094,1.715,0.281s0.855,0.441,1.09,0.762s0.396,0.749,0.484,1.285
				l-1.375,0.188c-0.062-0.427-0.244-0.761-0.543-1c-0.3-0.239-0.723-0.359-1.27-0.359c-0.646,0-1.107,0.106-1.383,0.32
				c-0.276,0.214-0.414,0.464-0.414,0.75c0,0.183,0.057,0.347,0.172,0.492c0.114,0.151,0.294,0.276,0.539,0.375
				c0.141,0.052,0.555,0.172,1.242,0.359c0.995,0.266,1.688,0.483,2.082,0.652c0.393,0.169,0.702,0.415,0.926,0.738
				c0.224,0.323,0.336,0.724,0.336,1.203c0,0.469-0.137,0.91-0.41,1.324s-0.668,0.734-1.184,0.961s-1.099,0.34-1.75,0.34
				c-1.078,0-1.9-0.224-2.465-0.672C428.34,136.048,427.98,135.384,427.824,134.504z"/>
			<path fill="#3C3C3B" d="M439.457,135.723l0.203,1.242c-0.396,0.083-0.75,0.125-1.062,0.125c-0.511,0-0.906-0.081-1.188-0.242
				s-0.479-0.374-0.594-0.637c-0.115-0.263-0.172-0.816-0.172-1.66v-4.773h-1.031v-1.094h1.031v-2.055l1.398-0.844v2.898h1.414
				v1.094h-1.414v4.852c0,0.401,0.024,0.659,0.074,0.773c0.049,0.114,0.13,0.206,0.242,0.273c0.112,0.067,0.272,0.102,0.48,0.102
				C438.996,135.777,439.201,135.759,439.457,135.723z"/>
			<path fill="#3C3C3B" d="M440.839,127.145v-1.617h1.406v1.617H440.839z M440.839,136.98v-8.297h1.406v8.297H440.839z"/>
			<path fill="#3C3C3B" d="M449.8,133.941l1.383,0.18c-0.151,0.953-0.538,1.699-1.16,2.238c-0.623,0.539-1.387,0.809-2.293,0.809
				c-1.136,0-2.048-0.371-2.738-1.113c-0.69-0.742-1.035-1.806-1.035-3.191c0-0.896,0.148-1.68,0.445-2.352s0.749-1.176,1.355-1.512
				c0.606-0.336,1.267-0.504,1.98-0.504c0.901,0,1.638,0.228,2.211,0.684c0.573,0.456,0.94,1.103,1.102,1.941l-1.367,0.211
				c-0.13-0.558-0.361-0.977-0.691-1.258c-0.331-0.281-0.73-0.422-1.199-0.422c-0.708,0-1.284,0.254-1.727,0.762
				c-0.443,0.508-0.664,1.312-0.664,2.41c0,1.114,0.213,1.925,0.641,2.43c0.427,0.505,0.984,0.758,1.672,0.758
				c0.552,0,1.013-0.169,1.383-0.508C449.467,135.165,449.701,134.645,449.8,133.941z"/>
			<path fill="#3C3C3B" d="M452.394,127.145v-1.617h1.406v1.617H452.394z M452.394,136.98v-8.297h1.406v8.297H452.394z"/>
			<path fill="#3C3C3B" d="M461.355,135.957c-0.521,0.442-1.022,0.755-1.504,0.938c-0.482,0.183-0.999,0.273-1.551,0.273
				c-0.912,0-1.612-0.223-2.102-0.668c-0.49-0.445-0.734-1.015-0.734-1.707c0-0.406,0.092-0.777,0.277-1.113
				c0.185-0.336,0.427-0.605,0.727-0.809c0.299-0.203,0.637-0.356,1.012-0.461c0.276-0.073,0.692-0.144,1.25-0.211
				c1.135-0.136,1.971-0.297,2.508-0.484c0.005-0.192,0.008-0.315,0.008-0.367c0-0.573-0.133-0.977-0.398-1.211
				c-0.359-0.317-0.894-0.477-1.602-0.477c-0.662,0-1.15,0.116-1.465,0.348c-0.315,0.231-0.548,0.642-0.699,1.23l-1.375-0.188
				c0.125-0.589,0.331-1.063,0.617-1.426c0.286-0.362,0.7-0.641,1.242-0.836c0.542-0.195,1.169-0.293,1.883-0.293
				c0.708,0,1.284,0.083,1.727,0.25c0.442,0.167,0.768,0.376,0.977,0.629c0.208,0.253,0.354,0.571,0.438,0.957
				c0.047,0.239,0.07,0.672,0.07,1.297v1.875c0,1.308,0.03,2.134,0.09,2.48c0.06,0.347,0.178,0.679,0.355,0.996h-1.469
				C461.49,136.688,461.396,136.348,461.355,135.957z M461.238,132.816c-0.511,0.208-1.276,0.386-2.297,0.531
				c-0.578,0.083-0.987,0.177-1.227,0.281c-0.24,0.104-0.425,0.257-0.555,0.457c-0.13,0.2-0.195,0.423-0.195,0.668
				c0,0.375,0.142,0.688,0.426,0.938c0.284,0.25,0.699,0.375,1.246,0.375c0.542,0,1.023-0.118,1.445-0.355s0.731-0.562,0.93-0.973
				c0.151-0.317,0.227-0.786,0.227-1.406V132.816z"/>
			<path fill="#3C3C3B" d="M469.222,140.176l-0.156-1.32c0.307,0.083,0.575,0.125,0.805,0.125c0.312,0,0.562-0.052,0.75-0.156
				s0.341-0.25,0.461-0.438c0.088-0.141,0.231-0.489,0.43-1.047c0.026-0.078,0.067-0.192,0.125-0.344l-3.148-8.312h1.516
				l1.727,4.805c0.224,0.609,0.424,1.25,0.602,1.922c0.161-0.646,0.354-1.276,0.578-1.891l1.773-4.836h1.406l-3.156,8.438
				c-0.339,0.911-0.602,1.539-0.789,1.883c-0.25,0.464-0.537,0.804-0.859,1.02c-0.323,0.216-0.708,0.324-1.156,0.324
				C469.857,140.348,469.555,140.29,469.222,140.176z"/>
			<path fill="#3C3C3B" d="M481.91,136.98v-11.453h4.32c0.76,0,1.341,0.036,1.742,0.109c0.562,0.094,1.034,0.272,1.414,0.535
				c0.38,0.263,0.686,0.632,0.918,1.105c0.231,0.474,0.348,0.995,0.348,1.562c0,0.974-0.31,1.798-0.93,2.473
				c-0.62,0.675-1.74,1.012-3.359,1.012h-2.938v4.656H481.91z M483.425,130.973h2.961c0.979,0,1.674-0.183,2.086-0.547
				c0.411-0.364,0.617-0.878,0.617-1.539c0-0.479-0.121-0.89-0.363-1.23s-0.562-0.566-0.957-0.676
				c-0.255-0.067-0.727-0.102-1.414-0.102h-2.93V130.973z"/>
			<path fill="#3C3C3B" d="M497.816,135.957c-0.521,0.442-1.022,0.755-1.504,0.938c-0.482,0.183-0.999,0.273-1.551,0.273
				c-0.912,0-1.612-0.223-2.102-0.668c-0.49-0.445-0.734-1.015-0.734-1.707c0-0.406,0.092-0.777,0.277-1.113
				c0.185-0.336,0.427-0.605,0.727-0.809c0.299-0.203,0.637-0.356,1.012-0.461c0.276-0.073,0.692-0.144,1.25-0.211
				c1.135-0.136,1.971-0.297,2.508-0.484c0.005-0.192,0.008-0.315,0.008-0.367c0-0.573-0.133-0.977-0.398-1.211
				c-0.359-0.317-0.894-0.477-1.602-0.477c-0.662,0-1.15,0.116-1.465,0.348c-0.315,0.231-0.548,0.642-0.699,1.23l-1.375-0.188
				c0.125-0.589,0.331-1.063,0.617-1.426c0.286-0.362,0.7-0.641,1.242-0.836c0.542-0.195,1.169-0.293,1.883-0.293
				c0.708,0,1.284,0.083,1.727,0.25c0.442,0.167,0.768,0.376,0.977,0.629c0.208,0.253,0.354,0.571,0.438,0.957
				c0.047,0.239,0.07,0.672,0.07,1.297v1.875c0,1.308,0.03,2.134,0.09,2.48c0.06,0.347,0.178,0.679,0.355,0.996h-1.469
				C497.951,136.688,497.857,136.348,497.816,135.957z M497.699,132.816c-0.511,0.208-1.276,0.386-2.297,0.531
				c-0.578,0.083-0.987,0.177-1.227,0.281c-0.24,0.104-0.425,0.257-0.555,0.457c-0.13,0.2-0.195,0.423-0.195,0.668
				c0,0.375,0.142,0.688,0.426,0.938c0.284,0.25,0.699,0.375,1.246,0.375c0.542,0,1.023-0.118,1.445-0.355s0.731-0.562,0.93-0.973
				c0.151-0.317,0.227-0.786,0.227-1.406V132.816z"/>
			<path fill="#3C3C3B" d="M500.558,136.98v-1.141l5.281-6.062c-0.599,0.031-1.128,0.047-1.586,0.047h-3.383v-1.141h6.781v0.93
				l-4.492,5.266l-0.867,0.961c0.63-0.047,1.221-0.07,1.773-0.07h3.836v1.211H500.558z"/>
			<path fill="#3C3C3B" d="M509.691,130.285v-1.602h1.602v1.602H509.691z M509.691,136.98v-1.602h1.602v1.602H509.691z"/>
			<path fill="#3C3C3B" d="M518.371,136.98v-11.453h4.32c0.76,0,1.341,0.036,1.742,0.109c0.562,0.094,1.034,0.272,1.414,0.535
				c0.38,0.263,0.686,0.632,0.918,1.105c0.231,0.474,0.348,0.995,0.348,1.562c0,0.974-0.31,1.798-0.93,2.473
				c-0.62,0.675-1.74,1.012-3.359,1.012h-2.938v4.656H518.371z M519.886,130.973h2.961c0.979,0,1.674-0.183,2.086-0.547
				c0.411-0.364,0.617-0.878,0.617-1.539c0-0.479-0.121-0.89-0.363-1.23s-0.562-0.566-0.957-0.676
				c-0.255-0.067-0.727-0.102-1.414-0.102h-2.93V130.973z"/>
			<path fill="#3C3C3B" d="M528.871,127.145v-1.617h1.406v1.617H528.871z M528.871,136.98v-8.297h1.406v8.297H528.871z"/>
			<path fill="#3C3C3B" d="M535.488,135.723l0.203,1.242c-0.396,0.083-0.75,0.125-1.062,0.125c-0.511,0-0.906-0.081-1.188-0.242
				s-0.479-0.374-0.594-0.637c-0.115-0.263-0.172-0.816-0.172-1.66v-4.773h-1.031v-1.094h1.031v-2.055l1.398-0.844v2.898h1.414
				v1.094h-1.414v4.852c0,0.401,0.024,0.659,0.074,0.773c0.049,0.114,0.13,0.206,0.242,0.273c0.112,0.067,0.272,0.102,0.48,0.102
				C535.027,135.777,535.232,135.759,535.488,135.723z"/>
			<path fill="#3C3C3B" d="M542.3,136.98v-1.219c-0.646,0.938-1.523,1.406-2.633,1.406c-0.49,0-0.947-0.094-1.371-0.281
				c-0.425-0.188-0.74-0.423-0.945-0.707c-0.206-0.284-0.351-0.632-0.434-1.043c-0.058-0.276-0.086-0.714-0.086-1.312v-5.141h1.406
				v4.602c0,0.734,0.028,1.229,0.086,1.484c0.088,0.37,0.276,0.66,0.562,0.871c0.286,0.211,0.641,0.316,1.062,0.316
				s0.817-0.108,1.188-0.324c0.37-0.216,0.631-0.511,0.785-0.883c0.153-0.372,0.23-0.913,0.23-1.621v-4.445h1.406v8.297H542.3z"/>
			<path fill="#3C3C3B" d="M546.097,136.98v-7.203h-1.242v-1.094h1.242v-0.883c0-0.558,0.049-0.972,0.148-1.242
				c0.135-0.364,0.374-0.66,0.715-0.887c0.341-0.227,0.819-0.34,1.434-0.34c0.396,0,0.833,0.047,1.312,0.141l-0.211,1.227
				c-0.292-0.052-0.568-0.078-0.828-0.078c-0.427,0-0.729,0.091-0.906,0.273c-0.177,0.183-0.266,0.523-0.266,1.023v0.766h1.617
				v1.094h-1.617v7.203H546.097z"/>
			<path fill="#3C3C3B" d="M549.683,132.832c0-1.536,0.427-2.675,1.281-3.414c0.713-0.614,1.583-0.922,2.609-0.922
				c1.141,0,2.073,0.374,2.797,1.121c0.724,0.747,1.086,1.78,1.086,3.098c0,1.067-0.16,1.907-0.48,2.52s-0.787,1.087-1.398,1.426
				c-0.612,0.339-1.28,0.508-2.004,0.508c-1.162,0-2.101-0.372-2.816-1.117C550.041,135.306,549.683,134.233,549.683,132.832z
				 M551.128,132.832c0,1.062,0.231,1.858,0.695,2.387c0.463,0.528,1.047,0.793,1.75,0.793c0.698,0,1.278-0.266,1.742-0.797
				c0.463-0.531,0.695-1.341,0.695-2.43c0-1.026-0.233-1.804-0.699-2.332c-0.466-0.528-1.046-0.793-1.738-0.793
				c-0.703,0-1.287,0.263-1.75,0.789C551.36,130.976,551.128,131.77,551.128,132.832z"/>
			<path fill="#3C3C3B" d="M563.488,140.176l-0.156-1.32c0.307,0.083,0.575,0.125,0.805,0.125c0.312,0,0.562-0.052,0.75-0.156
				s0.341-0.25,0.461-0.438c0.088-0.141,0.231-0.489,0.43-1.047c0.026-0.078,0.067-0.192,0.125-0.344l-3.148-8.312h1.516
				l1.727,4.805c0.224,0.609,0.424,1.25,0.602,1.922c0.161-0.646,0.354-1.276,0.578-1.891l1.773-4.836h1.406l-3.156,8.438
				c-0.339,0.911-0.602,1.539-0.789,1.883c-0.25,0.464-0.537,0.804-0.859,1.02c-0.323,0.216-0.708,0.324-1.156,0.324
				C564.123,140.348,563.821,140.29,563.488,140.176z"/>
			<path fill="#3C3C3B" d="M581.675,134.309l1.453,0.18c-0.229,0.849-0.654,1.508-1.273,1.977c-0.62,0.469-1.412,0.703-2.375,0.703
				c-1.214,0-2.176-0.374-2.887-1.121s-1.066-1.796-1.066-3.145c0-1.396,0.359-2.479,1.078-3.25s1.651-1.156,2.797-1.156
				c1.109,0,2.016,0.378,2.719,1.133s1.055,1.817,1.055,3.188c0,0.083-0.003,0.208-0.008,0.375h-6.188
				c0.052,0.911,0.31,1.609,0.773,2.094c0.463,0.484,1.042,0.727,1.734,0.727c0.516,0,0.956-0.136,1.32-0.406
				C581.172,135.335,581.461,134.902,581.675,134.309z M577.058,132.035h4.633c-0.062-0.698-0.24-1.222-0.531-1.57
				c-0.448-0.542-1.029-0.812-1.742-0.812c-0.646,0-1.189,0.216-1.629,0.648C577.348,130.733,577.105,131.312,577.058,132.035z"/>
			<path fill="#3C3C3B" d="M584.863,136.98v-11.453h1.406v11.453H584.863z"/>
			<path fill="#3C3C3B" d="M304.558,156.181l4.398-11.453h1.633l4.688,11.453h-1.727l-1.336-3.469h-4.789l-1.258,3.469H304.558z
				 M307.863,151.478h3.883l-1.195-3.172c-0.365-0.964-0.636-1.755-0.812-2.375c-0.146,0.734-0.352,1.464-0.617,2.188
				L307.863,151.478z"/>
			<path fill="#3C3C3B" d="M316.277,156.181v-11.453h1.406v11.453H316.277z"/>
			<path fill="#3C3C3B" d="M325.542,153.509l1.453,0.18c-0.229,0.849-0.654,1.508-1.273,1.977c-0.62,0.469-1.412,0.703-2.375,0.703
				c-1.214,0-2.176-0.374-2.887-1.121s-1.066-1.796-1.066-3.145c0-1.396,0.359-2.479,1.078-3.25s1.651-1.156,2.797-1.156
				c1.109,0,2.016,0.378,2.719,1.133s1.055,1.817,1.055,3.188c0,0.083-0.003,0.208-0.008,0.375h-6.188
				c0.052,0.911,0.31,1.609,0.773,2.094c0.463,0.484,1.042,0.727,1.734,0.727c0.516,0,0.956-0.136,1.32-0.406
				C325.04,154.535,325.329,154.103,325.542,153.509z M320.925,151.235h4.633c-0.062-0.698-0.24-1.222-0.531-1.57
				c-0.448-0.542-1.029-0.812-1.742-0.812c-0.646,0-1.189,0.216-1.629,0.648C321.215,149.934,320.972,150.512,320.925,151.235z"/>
			<path fill="#3C3C3B" d="M328.761,156.181v-8.297h1.258v1.164c0.26-0.406,0.606-0.733,1.039-0.98
				c0.432-0.247,0.924-0.371,1.477-0.371c0.614,0,1.118,0.128,1.512,0.383c0.393,0.255,0.67,0.612,0.832,1.07
				c0.656-0.969,1.51-1.453,2.562-1.453c0.823,0,1.456,0.228,1.898,0.684c0.442,0.456,0.664,1.157,0.664,2.105v5.695h-1.398v-5.227
				c0-0.562-0.046-0.968-0.137-1.215c-0.091-0.247-0.257-0.446-0.496-0.598c-0.24-0.151-0.521-0.227-0.844-0.227
				c-0.583,0-1.068,0.194-1.453,0.582c-0.386,0.388-0.578,1.009-0.578,1.863v4.82h-1.406v-5.391c0-0.625-0.115-1.094-0.344-1.406
				c-0.229-0.312-0.604-0.469-1.125-0.469c-0.396,0-0.762,0.104-1.098,0.312s-0.58,0.513-0.73,0.914
				c-0.151,0.401-0.227,0.979-0.227,1.734v4.305H328.761z"/>
			<path fill="#3C3C3B" d="M347.503,155.157c-0.521,0.442-1.022,0.755-1.504,0.938c-0.482,0.183-0.999,0.273-1.551,0.273
				c-0.912,0-1.612-0.223-2.102-0.668c-0.49-0.445-0.734-1.015-0.734-1.707c0-0.406,0.092-0.777,0.277-1.113
				c0.185-0.336,0.427-0.605,0.727-0.809c0.299-0.203,0.637-0.356,1.012-0.461c0.276-0.073,0.692-0.144,1.25-0.211
				c1.135-0.136,1.971-0.297,2.508-0.484c0.005-0.192,0.008-0.315,0.008-0.367c0-0.573-0.133-0.977-0.398-1.211
				c-0.359-0.317-0.894-0.477-1.602-0.477c-0.662,0-1.15,0.116-1.465,0.348c-0.315,0.231-0.548,0.642-0.699,1.23l-1.375-0.188
				c0.125-0.589,0.331-1.063,0.617-1.426c0.286-0.362,0.7-0.641,1.242-0.836c0.542-0.195,1.169-0.293,1.883-0.293
				c0.708,0,1.284,0.083,1.727,0.25c0.442,0.167,0.768,0.376,0.977,0.629c0.208,0.253,0.354,0.571,0.438,0.957
				c0.047,0.239,0.07,0.672,0.07,1.297v1.875c0,1.308,0.03,2.134,0.09,2.48c0.06,0.347,0.178,0.679,0.355,0.996h-1.469
				C347.639,155.889,347.545,155.548,347.503,155.157z M347.386,152.017c-0.511,0.208-1.276,0.386-2.297,0.531
				c-0.578,0.083-0.987,0.177-1.227,0.281c-0.24,0.104-0.425,0.257-0.555,0.457c-0.13,0.2-0.195,0.423-0.195,0.668
				c0,0.375,0.142,0.688,0.426,0.938c0.284,0.25,0.699,0.375,1.246,0.375c0.542,0,1.023-0.118,1.445-0.355s0.731-0.562,0.93-0.973
				c0.151-0.317,0.227-0.786,0.227-1.406V152.017z M344.652,146.853l1.039-2.188h1.844l-1.719,2.188H344.652z"/>
			<path fill="#3C3C3B" d="M350.988,156.181v-8.297h1.266v1.18c0.609-0.911,1.489-1.367,2.641-1.367c0.5,0,0.959,0.09,1.379,0.27
				c0.419,0.18,0.733,0.415,0.941,0.707c0.208,0.292,0.354,0.638,0.438,1.039c0.052,0.261,0.078,0.716,0.078,1.367v5.102h-1.406
				v-5.047c0-0.573-0.055-1.001-0.164-1.285s-0.304-0.511-0.582-0.68c-0.279-0.169-0.605-0.254-0.98-0.254
				c-0.599,0-1.116,0.19-1.551,0.57c-0.435,0.38-0.652,1.102-0.652,2.164v4.531H350.988z"/>
		</g>
	</g>
	<path fill="#F39200" d="M2.117,13.601l0.169,0.474l0.371,1.812l0.521,0.747l0.401,0.703l0.296,0.295l1.181,0.426
		c0.021,0.008,0.04,0.021,0.055,0.035l0.372,0.337c0.01,0.009,0.019,0.019,0.027,0.032l0.743,1.113
		c0.014,0.019,0.023,0.042,0.026,0.067l0.304,1.889l0.036,1.001l-0.068,0.997c-0.003,0.036-0.017,0.072-0.041,0.099l-1.214,1.418
		l-1.07,1.539l-1.169,2.343L2.369,29.99l-0.41,0.727l0.066,2.081l-0.069,0.631l-0.309,1.107c-0.004,0.016-0.01,0.03-0.019,0.043
		l-0.797,1.297L0,38.902v2.173l0,0l0.194,0.959l1.411,3.089l0.579,1.831l9.906,0.266l2.205,0.1l0.187-0.053l0.184-0.114l0.023-0.159
		l0.106-0.361c0.005-0.019,0.013-0.034,0.024-0.05l1.587-2.263c0.01-0.014,0.023-0.026,0.037-0.038l0.642-0.473
		c0.014-0.011,0.03-0.019,0.046-0.023l0.811-0.271l1.37-0.276l0.815-0.33l0.379-0.234l0.503-0.789l0.434-1.861
		c0.004-0.019,0.012-0.039,0.023-0.056l0.271-0.406c0.007-0.01,0.017-0.021,0.026-0.03l0.406-0.371l0.589-0.362l0.687-1.539
		c0.009-0.021,0.021-0.037,0.035-0.051l0.371-0.371l1.207-0.832l0.614-0.52l0.833-1.064l1.395-1.497l0.758-1.158
		c0.019-0.03,0.047-0.054,0.079-0.066l0.337-0.135l0.589-0.174l1.719-0.174l0.535,0.033l0.688,0.16l0.242-0.079l0.322-0.192
		c0.018-0.011,0.035-0.019,0.054-0.021l0.338-0.068l0.493-0.036l1.18,0.063l0.622-0.841l0.601-0.936l0.388-0.428l0.397-0.292
		c0.018-0.014,0.038-0.022,0.059-0.028l0.326-0.081l0.121-0.264v-0.267c0-0.036,0.012-0.071,0.032-0.101l0.271-0.371l0.317-0.352
		l0.017-0.085l-0.125-0.466c-0.004-0.016-0.006-0.033-0.006-0.051l0.034-1.251l-0.113-0.309l-0.235-0.264l-0.286-0.19l-0.532-0.528
		c-0.01-0.009-0.017-0.021-0.024-0.032l-0.625-1.02l-0.819-0.622l-0.433-0.37h-0.241l-0.473,0.031l-1.228,0.432l-0.985,0.306
		l-2.373,1.171c-0.066,0.033-0.145,0.021-0.196-0.033l-0.833-0.865l-0.728-0.495l-0.922-0.427c-0.018-0.008-0.034-0.02-0.048-0.033
		l-0.236-0.236c-0.011-0.013-0.022-0.024-0.029-0.038l-0.169-0.304l-0.147-0.434c-0.003-0.012-0.006-0.021-0.007-0.034l-0.135-1.146
		l-0.001-0.976l-0.432-1.463l-0.072-0.496l-0.002-0.36c0-0.013,0.001-0.024,0.004-0.037l0.125-0.563l-0.425-1.376
		c-0.006-0.02-0.009-0.042-0.008-0.063l0.067-0.911c0.004-0.034,0.017-0.068,0.04-0.094l0.169-0.203
		c0.008-0.011,0.017-0.02,0.026-0.026l0.438-0.339l0.419-0.452c0.008-0.01,0.016-0.018,0.027-0.023l0.337-0.236
		c0.01-0.008,0.02-0.013,0.03-0.018l0.236-0.102c0.017-0.007,0.034-0.011,0.051-0.013l0.337-0.033l1.091-0.292l0.148-0.105
		l0.095-1.037c0.002-0.027,0.01-0.053,0.025-0.075l0.118-0.189l-0.025-0.051L28.896,9.7c-0.006-0.01-0.012-0.019-0.016-0.029
		l-0.068-0.17c-0.017-0.043-0.016-0.092,0.003-0.134l0.145-0.312l-0.867-0.63l-3.922-1.805c-0.028-0.014-0.054-0.034-0.07-0.062
		l-0.642-0.978c-0.012-0.021-0.021-0.043-0.025-0.065l-0.156-0.904l-0.273-0.173l-0.431-0.031c-0.013-0.002-0.026-0.004-0.041-0.008
		l-0.101-0.034C22.39,4.35,22.355,4.32,22.335,4.281L22.27,4.146l-0.769-0.183c-0.032-0.008-0.062-0.025-0.084-0.05L21.01,3.476
		l-0.292-0.42l-1.175-0.555L18.9,2.342c-0.019-0.003-0.036-0.013-0.053-0.022L18.66,2.193l-0.59-0.229
		c-0.066-0.026-0.109-0.09-0.108-0.162l0.031-1.289l-0.317-0.098L17.22,0.357l-0.456,0.06L16.353,0.64l-0.695,0.465
		c-0.052,0.034-0.119,0.038-0.173,0.008c-0.055-0.028-0.089-0.086-0.089-0.147V0.831l-0.122-0.123l-0.088,0.059
		c-0.016,0.012-0.033,0.018-0.052,0.022l-0.136,0.034c-0.041,0.009-0.085,0.004-0.122-0.017l-0.304-0.17
		c-0.049-0.025-0.081-0.073-0.086-0.129c-0.006-0.054,0.016-0.107,0.057-0.146l0.271-0.234c0.017-0.016,0.036-0.026,0.058-0.033
		l0.022-0.008l-0.779,0.164l-0.769,0.038c-0.05,0.003-0.095-0.016-0.127-0.051l-0.196-0.195L12.689,0l-0.1,0.201l-0.065,0.546
		c-0.005,0.042-0.027,0.084-0.061,0.11l-0.541,0.438l-0.664,0.388c-0.009,0.005-0.02,0.01-0.031,0.015l-0.709,0.236L9.603,2.206
		L9.428,2.298L9.23,2.44L9.02,2.679L8.943,2.834L8.912,3.206v0.391c0,0.021-0.002,0.039-0.01,0.06L8.8,3.926
		c-0.016,0.047-0.054,0.084-0.1,0.1L8.33,4.16L7.696,4.427C7.674,4.436,7.653,4.441,7.63,4.441H7.599L7.49,4.659L7.258,6.554
		c-0.002,0.016-0.006,0.03-0.012,0.043L7.112,6.935C7.104,6.952,7.095,6.968,7.081,6.983L6.846,7.252L6.09,7.943L5.685,8.41
		L5.477,9.007l0.19,0.762c0.014,0.054,0,0.109-0.036,0.152l-0.203,0.234c-0.009,0.01-0.017,0.019-0.027,0.025l-0.792,0.594
		l-0.222,0.287l-0.083,0.174c-0.01,0.021-0.025,0.039-0.043,0.055l-0.202,0.169c-0.027,0.021-0.06,0.037-0.095,0.038l-0.367,0.031
		l-0.508,0.286c-0.012,0.006-0.026,0.012-0.039,0.015L1.7,12.191l-0.061,0.051l0.09,0.145c0.017,0.028,0.026,0.059,0.026,0.091
		v0.134c0,0.048-0.021,0.093-0.055,0.126L1.476,12.94l0.601,0.6C2.094,13.557,2.109,13.578,2.117,13.601z"/>
	<g>
		<g>
			<g enable-background="new    ">
				<path fill="#331842" d="M319.226,102.31l-2.908,0.01v-0.264c0-1.529-0.576-2.295-1.729-2.295c-1.231,0-1.847,1.413-1.847,4.238
					c0,3.184,0.646,4.775,1.938,4.775h0.014c1.292-0.006,1.938-0.787,1.938-2.344v-0.967h3.249v0.732
					c0,3.242-1.786,4.938-5.358,5.088c-0.104,0.007-0.209,0.01-0.314,0.01c-3.362,0-5.043-2.408-5.043-7.227
					c0-4.713,1.729-7.07,5.188-7.07c3.258,0,4.887,1.576,4.887,4.727C319.239,101.913,319.234,102.108,319.226,102.31z"/>
				<path fill="#331842" d="M326.772,96.978c3.677,0,5.515,2.344,5.515,7.031c0,4.694-1.969,7.041-5.908,7.041
					c-3.938,0-5.908-2.432-5.908-7.295C320.471,99.237,322.571,96.978,326.772,96.978z M324.152,104.272
					c-0.009,0.17-0.014,0.332-0.014,0.488c0,2.455,0.769,3.682,2.306,3.682c1.634,0,2.45-1.39,2.45-4.17
					c0-2.779-0.76-4.17-2.279-4.17C325.087,100.103,324.266,101.493,324.152,104.272z M324.82,95.063
					c1.021-0.904,1.86-1.768,2.516-2.588l2.148,1.27c-0.927,0.678-1.957,1.508-3.092,2.49L324.82,95.063z"/>
				<path fill="#331842" d="M333.335,111.235c0.053-1.861,0.079-3.736,0.079-5.625c0-2.891-0.062-5.811-0.184-8.76
					c1.354-0.104,2.568-0.156,3.643-0.156c2.986,0,4.891,0.407,5.711,1.221c0.769,0.762,1.153,1.602,1.153,2.52
					c0,0.417-0.074,0.847-0.223,1.289c-0.507,1.433-1.572,2.341-3.196,2.725c1.135,0.117,1.995,0.573,2.58,1.367
					c0.56,0.769,0.839,2.702,0.839,5.801v0.42l-3.956,0.039c0.043-0.82,0.065-1.556,0.065-2.207c0-1.973-0.215-3.18-0.643-3.623
					c-0.489-0.494-1.069-0.742-1.742-0.742c-0.131,0-0.267,0.01-0.406,0.029c0.053,1.986,0.166,3.867,0.341,5.645L333.335,111.235z
					 M336.689,99.126l0.092,4.18c1.624-0.059,2.654-0.469,3.092-1.23c0.235-0.403,0.354-0.797,0.354-1.182
					c0-0.332-0.088-0.657-0.263-0.977c-0.313-0.553-1.096-0.83-2.345-0.83C337.331,99.087,337.021,99.101,336.689,99.126z"/>
				<path fill="#331842" d="M344.956,111.001c0.017-2.193,0.026-4.453,0.026-6.777c0-2.33-0.01-4.723-0.026-7.178
					c1.004-0.091,1.93-0.137,2.777-0.137c2.357,0,4.096,0.352,5.214,1.055c1.52,0.964,2.314,2.744,2.384,5.342v0.703
					c0,2.227-0.288,3.815-0.864,4.766c-0.638,1.049-1.804,1.745-3.498,2.09c-0.979,0.202-2.053,0.303-3.223,0.303
					C346.873,111.167,345.942,111.112,344.956,111.001z M348.205,99.839c-0.149,2.143-0.223,4.213-0.223,6.211
					c0,0.756,0.008,1.498,0.025,2.227c0.306,0.053,0.599,0.078,0.878,0.078c0.769,0,1.415-0.198,1.939-0.596
					c0.716-0.533,1.074-1.731,1.074-3.594v-0.039c-0.009-1.875-0.358-3.105-1.049-3.691c-0.532-0.442-1.166-0.664-1.899-0.664
					C348.716,99.771,348.467,99.794,348.205,99.839z"/>
				<path fill="#331842" d="M362.432,96.978c3.677,0,5.516,2.344,5.516,7.031c0,4.694-1.97,7.041-5.908,7.041
					c-3.939,0-5.908-2.432-5.908-7.295C356.131,99.237,358.23,96.978,362.432,96.978z M359.812,104.272
					c-0.009,0.17-0.013,0.332-0.013,0.488c0,2.455,0.769,3.682,2.306,3.682c1.633,0,2.449-1.39,2.449-4.17
					c0-2.779-0.76-4.17-2.279-4.17C360.746,100.103,359.925,101.493,359.812,104.272z"/>
				<path fill="#331842" d="M368.982,111.03c0.034-1.816,0.052-3.604,0.052-5.361c0-3.033-0.052-5.979-0.157-8.838
					c1.485-0.117,2.786-0.176,3.904-0.176c2.052,0,3.476,0.199,4.271,0.596c1.223,0.612,1.913,1.439,2.07,2.48
					c0.034,0.268,0.052,0.524,0.052,0.771c0,0.71-0.161,1.325-0.484,1.846c-0.445,0.71-1.236,1.218-2.371,1.523
					c1.267,0.144,2.175,0.485,2.725,1.025c0.463,0.456,0.694,1.107,0.694,1.953c0,0.163-0.009,0.332-0.026,0.508
					c-0.104,1.107-0.574,1.934-1.408,2.48s-1.993,0.922-3.478,1.123c-0.839,0.111-1.821,0.166-2.948,0.166
					C370.995,111.128,370.03,111.096,368.982,111.03z M372.349,99.077l0.092,4.189c1.625-0.064,2.655-0.479,3.092-1.24
					c0.236-0.403,0.354-0.801,0.354-1.191c0-0.325-0.087-0.647-0.262-0.967c-0.306-0.553-1.087-0.83-2.345-0.83
					C372.999,99.038,372.689,99.052,372.349,99.077z M372.598,105.278v3.271c0.201,0.007,0.394,0.01,0.576,0.01
					c1.625,0,2.651-0.332,3.079-0.996c0.235-0.371,0.354-0.706,0.354-1.006c0-0.293-0.113-0.55-0.341-0.771
					c-0.375-0.357-1.249-0.537-2.62-0.537C373.322,105.249,372.974,105.259,372.598,105.278z"/>
				<path fill="#331842" d="M380.039,110.981c1.642-5.56,2.969-10.273,3.982-14.141l4.913-0.059c1.205,4.023,2.585,8.607,4.14,13.75
					l-3.354,0.508l-1.061-3.701h-4.074l-1.101,3.994L380.039,110.981z M388.555,104.595c-0.455-1.406-1.197-3.089-2.228-5.049
					c-0.795,1.647-1.467,3.354-2.018,5.117L388.555,104.595z"/>
			</g>
		</g>
	</g>
</g>
</svg>
