<?xml version="1.0" encoding="utf-8"?>
<!-- Generator: Adobe Illustrator 16.0.0, SVG Export Plug-In . SVG Version: 6.00 Build 0)  -->
<!DOCTYPE svg PUBLIC "-//W3C//DTD SVG 1.1//EN" "http://www.w3.org/Graphics/SVG/1.1/DTD/svg11.dtd">
<svg version="1.1" id="Capa_1" xmlns="http://www.w3.org/2000/svg" xmlns:xlink="http://www.w3.org/1999/xlink" x="0px" y="0px"
	 width="561.176px" height="183.359px" viewBox="0 0 561.176 183.359" enable-background="new 0 0 561.176 183.359"
	 xml:space="preserve">
<g>
	<rect x="261.01" y="0" opacity="0.5" fill="#951B81" enable-background="new    " width="300.167" height="183.359"/>
	<rect y="76.18" opacity="0.5" fill="#331842" enable-background="new    " width="254.12" height="31"/>
	<g>
		<g>
			<path fill="#FFFFFF" d="M72.258,98.555c0.052-1.861,0.079-3.736,0.079-5.625c0-2.892-0.062-5.812-0.184-8.761
				c1.354-0.104,2.568-0.155,3.642-0.155c2.987,0,4.891,0.406,5.712,1.221c0.768,0.762,1.153,1.602,1.153,2.52
				c0,0.417-0.074,0.848-0.223,1.289c-0.507,1.434-1.572,2.342-3.197,2.726c1.135,0.117,1.996,0.572,2.581,1.367
				c0.559,0.769,0.838,2.701,0.838,5.801v0.42l-3.957,0.039c0.043-0.82,0.065-1.557,0.065-2.207c0-1.974-0.214-3.181-0.642-3.623
				c-0.489-0.494-1.07-0.742-1.742-0.742c-0.131,0-0.267,0.01-0.406,0.029c0.053,1.985,0.166,3.867,0.341,5.645L72.258,98.555z
				 M75.611,86.445l0.092,4.18c1.625-0.059,2.655-0.469,3.092-1.229c0.236-0.403,0.354-0.797,0.354-1.183
				c0-0.332-0.087-0.656-0.262-0.977c-0.314-0.553-1.096-0.83-2.345-0.83C76.253,86.406,75.943,86.42,75.611,86.445z"/>
			<path fill="#FFFFFF" d="M88.031,88.662c3.03,0,4.546,1.501,4.546,4.502c0,0.365-0.022,0.756-0.065,1.172h-5.856
				c0,1.675,0.432,2.511,1.297,2.511h0.092c0.76-0.045,1.14-0.479,1.14-1.3c0-0.176-0.018-0.37-0.052-0.586l3.118-0.049
				c0,2.48-1.454,3.737-4.362,3.771c-0.035,0.007-0.065,0.01-0.092,0.01c-2.769,0-4.153-1.565-4.153-4.697v-0.293
				C83.729,90.342,85.192,88.662,88.031,88.662z M86.341,92.539h2.96v-0.233c0-1.186-0.45-1.777-1.349-1.777
				C86.983,90.527,86.446,91.198,86.341,92.539z"/>
			<path fill="#FFFFFF" d="M96.677,84.697l0.131,5.498c0.367-0.846,1.223-1.275,2.568-1.289h0.039c1.328,0,2.271,0.449,2.83,1.348
				c0.384,0.612,0.577,2.045,0.577,4.298c0,1.106-0.048,2.415-0.144,3.926h-3.301c0.113-2.013,0.17-3.57,0.17-4.679
				c0-0.553-0.013-0.995-0.04-1.327c-0.087-0.978-0.463-1.466-1.126-1.466c-0.664,0-1.092,0.262-1.284,0.781l0.131,7.08
				l-3.209,0.021c0-2.994-0.179-7.691-0.537-14.093L96.677,84.697z"/>
			<path fill="#FFFFFF" d="M108.992,88.379c2.873,0.117,4.31,1.195,4.31,3.232v6.934l-3.052,0.039l-0.105-0.928
				c-0.629,0.534-1.463,0.801-2.502,0.801c-0.445,0-0.926-0.052-1.441-0.155c-1.546-0.286-2.319-1.179-2.319-2.677
				c0-0.182,0.013-0.377,0.04-0.586c0.174-1.543,1.646-2.313,4.415-2.313c0.533,0,1.118,0.028,1.756,0.088V91.68
				c0-0.918-0.389-1.377-1.166-1.377h-0.053c-0.061-0.007-0.118-0.011-0.17-0.011c-0.848,0-1.271,0.516-1.271,1.543v0.146
				l-3.118-0.195c0-2.271,1.467-3.408,4.401-3.408H108.992z M110.092,96.094v-1.72c-0.376-0.059-0.716-0.088-1.022-0.088
				c-0.795,0-1.336,0.199-1.625,0.596c-0.175,0.241-0.262,0.467-0.262,0.675c0,0.261,0.14,0.491,0.419,0.692
				c0.218,0.156,0.502,0.234,0.852,0.234C108.9,96.484,109.446,96.354,110.092,96.094z"/>
			<path fill="#FFFFFF" d="M117.913,84.873c-0.096,1.96-0.144,3.662-0.144,5.107c0.463-0.618,1.052-0.979,1.769-1.084
				c0.122-0.006,0.24-0.01,0.354-0.01c2.848,0,4.302,1.532,4.363,4.6v0.176c0,3.073-1.515,4.609-4.546,4.609
				c-0.725,0-1.411-0.361-2.057-1.084l-0.104,1.494l-3.105-0.011c0.043-2.383,0.066-4.674,0.066-6.875
				c0-2.415-0.026-4.723-0.079-6.924L117.913,84.873L117.913,84.873z M117.769,91.807l-0.065,3.379
				c0.454,0.689,1.03,1.035,1.729,1.035c0.078,0,0.157-0.003,0.235-0.011c0.804-0.084,1.249-0.889,1.336-2.412
				c0.009-0.155,0.013-0.306,0.013-0.448c0-1.25-0.341-1.995-1.022-2.236c-0.209-0.071-0.415-0.107-0.616-0.107
				C118.83,91.006,118.293,91.273,117.769,91.807z"/>
			<path fill="#FFFFFF" d="M128.957,86.416c0,0.397-0.188,0.736-0.563,1.017c-0.375,0.279-0.83,0.42-1.362,0.42
				c-0.524,0-0.974-0.141-1.35-0.42c-0.375-0.279-0.563-0.618-0.563-1.017c0-0.391,0.188-0.726,0.563-1.006
				c0.375-0.279,0.826-0.42,1.35-0.42c0.533,0,0.987,0.141,1.362,0.42C128.769,85.69,128.957,86.025,128.957,86.416z M125.446,98.74
				c-0.061-3.809-0.092-7.1-0.092-9.873l3.302-0.146c-0.105,2.655-0.157,5.297-0.157,7.92c0,0.703,0.004,1.402,0.013,2.1
				L125.446,98.74L125.446,98.74z"/>
			<path fill="#FFFFFF" d="M133.359,98.525l-3.262,0.225c0.035-2.153,0.052-4.229,0.052-6.221c0-2.799-0.035-5.439-0.104-7.92
				l3.209-0.039c-0.035,1.596-0.052,3.232-0.052,4.912C133.202,92.38,133.254,95.395,133.359,98.525z"/>
			<path fill="#FFFFFF" d="M138.154,86.416c0,0.397-0.188,0.736-0.563,1.017c-0.375,0.279-0.83,0.42-1.362,0.42
				c-0.524,0-0.974-0.141-1.35-0.42c-0.375-0.279-0.563-0.618-0.563-1.017c0-0.391,0.188-0.726,0.563-1.006
				c0.375-0.279,0.825-0.42,1.35-0.42c0.532,0,0.987,0.141,1.362,0.42C137.966,85.69,138.154,86.025,138.154,86.416z M134.643,98.74
				c-0.061-3.809-0.092-7.1-0.092-9.873l3.301-0.146c-0.104,2.655-0.157,5.297-0.157,7.92c0,0.703,0.004,1.402,0.014,2.1
				L134.643,98.74L134.643,98.74z"/>
			<path fill="#FFFFFF" d="M141.062,85.547l2.974-0.146v3.231l2.502-0.049l0.039,1.847l-2.542,0.088v4.442
				c0,1.035,0.59,1.554,1.769,1.554c0.245,0,0.511-0.022,0.799-0.068l-0.118,2.148c-0.419,0.038-0.817,0.059-1.192,0.059
				c-2.76,0-4.166-1.062-4.218-3.184v-4.775l-2.149,0.098l-0.052-2.178l2.201,0.02L141.062,85.547z"/>
			<path fill="#FFFFFF" d="M152.735,88.379c2.873,0.117,4.31,1.195,4.31,3.232v6.934l-3.052,0.039l-0.105-0.928
				c-0.629,0.534-1.463,0.801-2.502,0.801c-0.445,0-0.926-0.052-1.441-0.155c-1.545-0.286-2.318-1.179-2.318-2.677
				c0-0.182,0.013-0.377,0.039-0.586c0.175-1.543,1.646-2.313,4.415-2.313c0.533,0,1.118,0.028,1.755,0.088V91.68
				c0-0.918-0.389-1.377-1.166-1.377h-0.052c-0.062-0.007-0.118-0.011-0.17-0.011c-0.847,0-1.271,0.516-1.271,1.543v0.146
				l-3.118-0.195c0-2.271,1.467-3.408,4.402-3.408H152.735z M153.835,96.094v-1.72c-0.375-0.059-0.716-0.088-1.022-0.088
				c-0.795,0-1.336,0.199-1.624,0.596c-0.175,0.241-0.262,0.467-0.262,0.675c0,0.261,0.14,0.491,0.419,0.692
				c0.218,0.156,0.502,0.234,0.852,0.234C152.643,96.484,153.188,96.354,153.835,96.094z"/>
			<path fill="#FFFFFF" d="M163.451,94.668l3.118,0.146c0,2.351-1.454,3.542-4.363,3.574c-0.035,0.007-0.065,0.01-0.091,0.01
				c-2.769,0-4.153-1.565-4.153-4.697v-0.293c0.087-3.359,1.563-5.055,4.428-5.088h0.105c2.637,0,3.956,1.127,3.956,3.379
				c0,0.131-0.004,0.261-0.013,0.391l-2.817,0.156v-0.233c0-1.186-0.45-1.777-1.349-1.777c-0.917,0-1.376,0.961-1.376,2.881v0.322
				c0.053,2.077,0.516,3.115,1.389,3.115h0.079c0.76-0.046,1.14-0.479,1.14-1.3C163.503,95.078,163.486,94.883,163.451,94.668z"/>
			<path fill="#FFFFFF" d="M171.324,86.416c0,0.397-0.188,0.736-0.563,1.017c-0.376,0.279-0.83,0.42-1.363,0.42
				c-0.524,0-0.974-0.141-1.349-0.42c-0.376-0.279-0.563-0.618-0.563-1.017c0-0.391,0.188-0.726,0.563-1.006
				c0.375-0.279,0.825-0.42,1.349-0.42c0.533,0,0.987,0.141,1.363,0.42C171.136,85.69,171.324,86.025,171.324,86.416z
				 M167.813,98.74c-0.062-3.809-0.092-7.1-0.092-9.873l3.301-0.146c-0.105,2.655-0.157,5.297-0.157,7.92
				c0,0.703,0.004,1.402,0.013,2.1L167.813,98.74L167.813,98.74z"/>
			<path fill="#FFFFFF" d="M176.656,88.662c2.969,0,4.454,1.537,4.454,4.609c0,0.124-0.004,0.248-0.013,0.371
				c-0.122,3.327-1.703,5.007-4.742,5.039c-0.035,0.007-0.07,0.01-0.105,0.01c-2.891,0-4.336-1.572-4.336-4.717v-0.273
				C172.001,90.342,173.582,88.662,176.656,88.662z M176.224,90.889c-0.551,0.144-0.926,0.674-1.127,1.592
				c-0.122,0.547-0.184,1.098-0.184,1.649c0,0.371,0.026,0.746,0.079,1.123c0.139,0.938,0.589,1.424,1.349,1.455h0.092
				c0.708,0,1.192-0.348,1.454-1.045c0.218-0.579,0.328-1.266,0.328-2.061c0-0.195-0.005-0.395-0.013-0.597
				c-0.07-1.048-0.28-1.701-0.629-1.963c-0.218-0.155-0.48-0.233-0.786-0.233C176.612,90.811,176.425,90.837,176.224,90.889z
				 M174.953,86.758c1.022-0.903,1.86-1.768,2.515-2.588l2.148,1.271c-0.926,0.678-1.956,1.508-3.092,2.49L174.953,86.758z"/>
			<path fill="#FFFFFF" d="M184.242,88.408L184.373,90c0.367-0.846,1.332-1.274,2.895-1.289h0.052c1.537,0,2.585,0.449,3.145,1.349
				c0.384,0.611,0.576,2.045,0.576,4.297c0,1.106-0.048,2.416-0.144,3.926h-3.17c0.113-2.012,0.17-3.57,0.17-4.678
				c0-0.553-0.013-0.996-0.04-1.328c-0.087-0.978-0.506-1.465-1.257-1.465s-1.223,0.261-1.415,0.78l0.131,7.08l-3.079,0.021
				c0-2.994-0.135-6.357-0.406-10.088L184.242,88.408z"/>
		</g>
	</g>
</g>
</svg>
