<?xml version="1.0" encoding="utf-8"?>
<!-- Generator: Adobe Illustrator 16.0.0, SVG Export Plug-In . SVG Version: 6.00 Build 0)  -->
<!DOCTYPE svg PUBLIC "-//W3C//DTD SVG 1.1//EN" "http://www.w3.org/Graphics/SVG/1.1/DTD/svg11.dtd">
<svg version="1.1" id="Capa_1" xmlns="http://www.w3.org/2000/svg" xmlns:xlink="http://www.w3.org/1999/xlink" x="0px" y="0px"
	 width="172.491px" height="157.603px" viewBox="0 0 172.491 157.603" enable-background="new 0 0 172.491 157.603"
	 xml:space="preserve">
<g>
	
		<rect x="0.359" y="43.746" transform="matrix(1 -0.0024 0.0024 1 -0.1433 0.2081)" fill="#331842" width="171.772" height="31.639"/>
	
		<rect x="0.388" y="85.35" transform="matrix(1 -0.0024 0.0024 1 -0.2429 0.2083)" fill="#331842" width="171.716" height="30.998"/>
	
		<rect x="0.037" y="126.805" transform="matrix(1 -0.0024 0.0024 1 -0.3426 0.2085)" fill="#331842" width="172.418" height="30.59"/>
	<g>
		<g>
			<path fill="#FFFFFF" d="M40.319,133.16c1.707,0,3.169,0.612,4.385,1.836c0.61,0.615,1.067,1.285,1.37,2.012
				s0.454,1.527,0.454,2.402c0,1.724-0.608,3.198-1.824,4.422c-1.211,1.219-2.672,1.828-4.385,1.828h-2.391
				c-0.114,0-0.221-0.022-0.322-0.066c-0.101-0.044-0.189-0.103-0.264-0.176c-0.075-0.073-0.135-0.16-0.179-0.262
				s-0.066-0.209-0.066-0.324v-10.844c0-0.115,0.022-0.223,0.066-0.324s0.104-0.189,0.179-0.262
				c0.075-0.073,0.163-0.131,0.264-0.176c0.101-0.044,0.208-0.066,0.322-0.066H40.319z M40.319,144.004
				c1.257,0,2.331-0.448,3.221-1.344c0.45-0.453,0.786-0.947,1.009-1.48s0.334-1.124,0.334-1.77c0-1.26-0.448-2.341-1.343-3.242
				c-0.896-0.901-1.969-1.352-3.221-1.352H38.75v9.188H40.319z"/>
			<path fill="#FFFFFF" d="M57.476,143.199c0.232,0,0.425,0.077,0.578,0.23c0.152,0.154,0.229,0.348,0.229,0.582
				c0,0.229-0.077,0.424-0.232,0.586c-0.802,0.708-1.749,1.062-2.841,1.062c-1.2,0-2.225-0.427-3.073-1.281
				c-0.849-0.854-1.273-1.885-1.273-3.094s0.425-2.24,1.273-3.094c0.848-0.854,1.873-1.281,3.073-1.281
				c1.19,0,2.215,0.427,3.073,1.281c0.424,0.422,0.743,0.892,0.955,1.41c0.212,0.518,0.318,1.08,0.318,1.684
				c0,0.234-0.079,0.428-0.237,0.582c-0.158,0.154-0.351,0.23-0.578,0.23h-6.147c0.088,0.287,0.217,0.548,0.388,0.785
				s0.371,0.44,0.602,0.609s0.483,0.301,0.761,0.395c0.276,0.094,0.565,0.141,0.865,0.141c0.342,0,0.654-0.052,0.939-0.156
				s0.548-0.26,0.792-0.469C57.095,143.272,57.274,143.205,57.476,143.199z M57.825,140.473c-0.088-0.287-0.218-0.548-0.392-0.785
				c-0.174-0.237-0.375-0.44-0.605-0.609s-0.484-0.301-0.761-0.395c-0.276-0.094-0.562-0.141-0.857-0.141s-0.582,0.047-0.861,0.141
				s-0.536,0.225-0.769,0.395s-0.435,0.373-0.605,0.609s-0.298,0.499-0.38,0.785H57.825z"/>
			<path fill="#FFFFFF" d="M65.568,137.723v0.156c0.388-0.312,0.81-0.552,1.265-0.719c0.456-0.167,0.942-0.25,1.459-0.25
				c0.228,0,0.472,0.016,0.733,0.047s0.501,0.087,0.722,0.168s0.402,0.191,0.547,0.332c0.145,0.141,0.217,0.323,0.217,0.547
				c0,0.115-0.022,0.221-0.066,0.32s-0.103,0.186-0.175,0.262s-0.158,0.134-0.256,0.176c-0.099,0.042-0.205,0.062-0.318,0.062
				c-0.099,0-0.212-0.029-0.342-0.086c-0.326-0.13-0.68-0.195-1.063-0.195c-0.378,0-0.732,0.072-1.063,0.215
				s-0.62,0.338-0.865,0.586s-0.44,0.538-0.583,0.871c-0.142,0.333-0.213,0.69-0.213,1.07v3.562c0,0.224-0.079,0.416-0.237,0.574
				s-0.348,0.238-0.571,0.238c-0.228,0-0.42-0.08-0.578-0.238c-0.158-0.159-0.236-0.35-0.236-0.574v-7.125
				c0-0.224,0.079-0.416,0.236-0.574c0.158-0.159,0.351-0.238,0.578-0.238c0.223,0,0.413,0.08,0.571,0.238
				S65.568,137.499,65.568,137.723z"/>
			<path fill="#FFFFFF" d="M81.219,143.199c0.232,0,0.426,0.077,0.578,0.23s0.229,0.348,0.229,0.582
				c0,0.229-0.078,0.424-0.233,0.586c-0.802,0.708-1.749,1.062-2.841,1.062c-1.2,0-2.225-0.427-3.073-1.281
				s-1.273-1.885-1.273-3.094s0.424-2.24,1.273-3.094s1.873-1.281,3.073-1.281c1.19,0,2.215,0.427,3.074,1.281
				c0.424,0.422,0.743,0.892,0.955,1.41s0.318,1.08,0.318,1.684c0,0.234-0.079,0.428-0.237,0.582s-0.351,0.23-0.579,0.23h-6.146
				c0.088,0.287,0.217,0.548,0.388,0.785c0.171,0.237,0.371,0.44,0.602,0.609s0.484,0.301,0.761,0.395s0.565,0.141,0.865,0.141
				c0.342,0,0.655-0.052,0.939-0.156c0.284-0.104,0.548-0.26,0.792-0.469C80.839,143.272,81.017,143.205,81.219,143.199z
				 M81.568,140.473c-0.088-0.287-0.218-0.548-0.392-0.785c-0.173-0.237-0.375-0.44-0.605-0.609c-0.23-0.169-0.483-0.301-0.76-0.395
				s-0.563-0.141-0.858-0.141s-0.582,0.047-0.861,0.141s-0.535,0.225-0.769,0.395c-0.232,0.169-0.435,0.373-0.605,0.609
				c-0.17,0.237-0.297,0.499-0.38,0.785H81.568z"/>
			<path fill="#FFFFFF" d="M94.333,143.184c0.233,0,0.426,0.077,0.578,0.23c0.153,0.154,0.229,0.348,0.229,0.582
				c0,0.229-0.086,0.43-0.256,0.602c-0.802,0.708-1.747,1.062-2.833,1.062c-1.201,0-2.225-0.427-3.074-1.281
				s-1.272-1.885-1.272-3.094s0.424-2.24,1.272-3.094s1.873-1.281,3.074-1.281c1.092,0,2.036,0.354,2.833,1.062
				c0.186,0.167,0.279,0.373,0.279,0.617c0,0.234-0.077,0.43-0.229,0.586s-0.345,0.234-0.578,0.234
				c-0.197,0-0.373-0.062-0.528-0.188c-0.264-0.224-0.541-0.393-0.831-0.508c-0.29-0.115-0.605-0.172-0.947-0.172
				c-0.377,0-0.732,0.072-1.063,0.215c-0.332,0.143-0.621,0.338-0.87,0.586s-0.444,0.538-0.586,0.871s-0.213,0.69-0.213,1.07
				s0.071,0.737,0.213,1.07s0.337,0.624,0.586,0.871s0.538,0.443,0.87,0.586c0.331,0.143,0.686,0.215,1.063,0.215
				c0.341,0,0.657-0.056,0.947-0.168c0.29-0.112,0.564-0.28,0.823-0.504C93.965,143.246,94.136,143.189,94.333,143.184z"/>
			<path fill="#FFFFFF" d="M101.207,144.84c0,0.229-0.079,0.423-0.237,0.582c-0.158,0.159-0.351,0.238-0.578,0.238
				c-0.223,0-0.413-0.08-0.57-0.238c-0.158-0.159-0.237-0.353-0.237-0.582V133.98c0-0.229,0.079-0.423,0.237-0.582
				c0.158-0.159,0.348-0.238,0.57-0.238s0.413,0.08,0.57,0.238c0.158,0.159,0.239,0.353,0.245,0.582v3.75
				c0.688-0.537,1.498-0.805,2.429-0.805c0.543,0,1.06,0.107,1.549,0.32c0.489,0.213,0.919,0.504,1.292,0.871
				s0.667,0.799,0.885,1.297c0.218,0.498,0.326,1.027,0.326,1.59v3.836c-0.005,0.229-0.087,0.423-0.245,0.582
				s-0.348,0.238-0.57,0.238c-0.223,0-0.413-0.08-0.571-0.238c-0.158-0.159-0.236-0.353-0.236-0.582v-3.836
				c0-0.333-0.065-0.648-0.194-0.945c-0.129-0.297-0.304-0.556-0.523-0.777c-0.22-0.221-0.478-0.397-0.772-0.527
				s-0.608-0.195-0.939-0.195c-0.336,0-0.65,0.064-0.943,0.191s-0.55,0.303-0.772,0.527c-0.223,0.224-0.397,0.484-0.524,0.781
				c-0.126,0.297-0.189,0.612-0.189,0.945V144.84z"/>
			<path fill="#FFFFFF" d="M120.777,141.285c0,1.219-0.424,2.25-1.272,3.094c-0.859,0.854-1.884,1.281-3.073,1.281
				c-1.201,0-2.226-0.427-3.074-1.281c-0.849-0.854-1.273-1.885-1.273-3.094s0.424-2.24,1.273-3.094
				c0.848-0.854,1.873-1.281,3.074-1.281c1.189,0,2.214,0.427,3.073,1.281c0.424,0.427,0.741,0.898,0.951,1.414
				S120.772,140.681,120.777,141.285z M116.431,138.543c-0.383,0-0.74,0.073-1.071,0.219s-0.618,0.342-0.861,0.59
				s-0.437,0.538-0.578,0.871c-0.143,0.333-0.214,0.688-0.214,1.062s0.071,0.729,0.214,1.062c0.142,0.333,0.335,0.624,0.578,0.871
				s0.53,0.444,0.861,0.59s0.688,0.219,1.071,0.219c0.377,0,0.732-0.073,1.063-0.219s0.62-0.344,0.866-0.594
				c0.245-0.25,0.439-0.541,0.582-0.871c0.142-0.331,0.213-0.684,0.213-1.059s-0.071-0.728-0.213-1.059
				c-0.143-0.331-0.337-0.621-0.582-0.871c-0.246-0.25-0.535-0.448-0.866-0.594S116.809,138.543,116.431,138.543z"/>
			<path fill="#FFFFFF" d="M126.781,141.496c-0.486-0.188-0.828-0.38-1.024-0.578h0.008c-0.393-0.401-0.59-0.873-0.59-1.414
				c0-0.396,0.105-0.754,0.314-1.074c0.21-0.32,0.482-0.592,0.819-0.816c0.336-0.224,0.715-0.397,1.137-0.52
				s0.845-0.184,1.269-0.184c1.293,0,2.403,0.523,3.33,1.57c0.108,0.135,0.163,0.299,0.163,0.492c0,0.234-0.076,0.428-0.229,0.582
				s-0.345,0.23-0.578,0.23c-0.166,0-0.307-0.047-0.423-0.141c-0.116-0.094-0.229-0.195-0.337-0.305
				c-0.528-0.531-1.169-0.797-1.925-0.797c-0.745,0-1.34,0.229-1.785,0.688c-0.083,0.083-0.124,0.198-0.124,0.344
				s0.067,0.245,0.202,0.297l3.632,1.203c0.507,0.198,0.849,0.391,1.025,0.578h-0.008c0.393,0.401,0.59,0.873,0.59,1.414
				c0,0.401-0.105,0.76-0.314,1.078c-0.21,0.318-0.482,0.59-0.819,0.816s-0.714,0.4-1.133,0.52s-0.841,0.18-1.265,0.18
				c-1.304,0-2.414-0.518-3.33-1.555c-0.114-0.151-0.171-0.32-0.171-0.508c0-0.234,0.076-0.428,0.229-0.582
				c0.152-0.154,0.345-0.23,0.578-0.23c0.17,0,0.315,0.051,0.435,0.152s0.228,0.199,0.326,0.293
				c0.528,0.531,1.172,0.797,1.933,0.797c0.74,0,1.335-0.234,1.785-0.703c0.078-0.088,0.117-0.195,0.117-0.32
				c0-0.146-0.07-0.248-0.21-0.305L126.781,141.496z"/>
		</g>
	</g>
	<g>
		<path fill="#FFFFFF" d="M29.839,57.286c0,1.724-0.608,3.198-1.824,4.422c-1.21,1.219-2.672,1.828-4.385,1.828
			c-1.718,0-3.182-0.609-4.393-1.828c-1.21-1.219-1.816-2.693-1.816-4.422c0-1.724,0.605-3.195,1.816-4.414
			c1.216-1.224,2.68-1.836,4.393-1.836c1.708,0,3.169,0.612,4.385,1.836c0.611,0.615,1.067,1.287,1.37,2.016
			S29.839,56.417,29.839,57.286z M23.63,52.692c-0.642,0-1.228,0.112-1.758,0.336c-0.531,0.224-1.021,0.562-1.471,1.016
			c-0.45,0.453-0.785,0.945-1.005,1.477c-0.22,0.531-0.33,1.12-0.33,1.766c0,1.271,0.445,2.354,1.334,3.25
			c0.89,0.896,1.966,1.344,3.229,1.344c1.262,0,2.339-0.448,3.229-1.344c0.89-0.896,1.335-1.979,1.335-3.25
			c0-1.266-0.445-2.346-1.335-3.242C25.964,53.143,24.888,52.692,23.63,52.692z"/>
		<path fill="#FFFFFF" d="M35.882,55.755c0.771-0.646,1.679-0.969,2.724-0.969c1.19,0,2.214,0.427,3.074,1.281
			c0.424,0.422,0.742,0.892,0.955,1.41c0.212,0.518,0.318,1.08,0.318,1.684c0,1.219-0.424,2.25-1.272,3.094
			c-0.859,0.854-1.884,1.281-3.074,1.281c-1.2,0-2.225-0.427-3.073-1.281c-0.849-0.854-1.273-1.885-1.273-3.094v-7.312
			c0-0.234,0.076-0.428,0.229-0.582c0.152-0.154,0.345-0.23,0.578-0.23c0.228,0,0.42,0.077,0.578,0.23s0.237,0.348,0.237,0.582
			V55.755z M38.606,61.903c0.377,0,0.732-0.073,1.063-0.219c0.331-0.146,0.62-0.344,0.865-0.594s0.44-0.541,0.582-0.871
			s0.213-0.684,0.213-1.059s-0.071-0.728-0.213-1.059s-0.336-0.621-0.582-0.871s-0.534-0.448-0.865-0.594
			c-0.332-0.146-0.686-0.219-1.063-0.219c-0.383,0-0.74,0.073-1.071,0.219c-0.332,0.146-0.619,0.342-0.862,0.59
			s-0.436,0.538-0.578,0.871s-0.213,0.688-0.213,1.062s0.071,0.729,0.213,1.062s0.335,0.624,0.578,0.871s0.53,0.444,0.862,0.59
			C37.867,61.831,38.224,61.903,38.606,61.903z"/>
		<path fill="#FFFFFF" d="M47.296,62.724V51.856c0-0.229,0.076-0.423,0.229-0.582c0.153-0.159,0.346-0.238,0.578-0.238
			c0.233,0,0.426,0.08,0.579,0.238c0.152,0.159,0.229,0.353,0.229,0.582v10.047h0.372c0.223,0,0.413,0.08,0.571,0.238
			s0.237,0.353,0.237,0.582c0,0.224-0.079,0.416-0.237,0.574s-0.348,0.238-0.571,0.238h-1.188c-0.222,0-0.411-0.08-0.566-0.238
			S47.296,62.948,47.296,62.724z"/>
		<path fill="#FFFFFF" d="M56.475,53.231c0,0.266-0.093,0.492-0.279,0.68c-0.187,0.188-0.412,0.281-0.675,0.281
			s-0.489-0.094-0.675-0.281s-0.279-0.414-0.279-0.68s0.093-0.492,0.279-0.68s0.412-0.281,0.675-0.281s0.489,0.094,0.675,0.281
			C56.381,52.739,56.475,52.966,56.475,53.231z M54.713,62.716v-7.109c0-0.229,0.079-0.423,0.237-0.582
			c0.158-0.159,0.348-0.238,0.57-0.238c0.222,0,0.413,0.08,0.57,0.238s0.239,0.353,0.245,0.582v7.109
			c-0.005,0.229-0.087,0.423-0.245,0.582s-0.348,0.238-0.57,0.238c-0.223,0-0.413-0.08-0.57-0.238
			C54.792,63.139,54.713,62.945,54.713,62.716z"/>
		<path fill="#FFFFFF" d="M68.253,62.575c-0.776,0.641-1.685,0.961-2.725,0.961c-1.2,0-2.225-0.427-3.073-1.281
			s-1.273-1.885-1.273-3.094s0.424-2.24,1.273-3.094s1.873-1.281,3.073-1.281c1.19,0,2.215,0.427,3.074,1.281
			c0.848,0.854,1.273,1.885,1.273,3.094v4.344c0,0.375-0.057,0.729-0.171,1.062s-0.271,0.639-0.474,0.918
			c-0.202,0.279-0.439,0.53-0.714,0.754s-0.57,0.413-0.889,0.566s-0.65,0.272-0.997,0.355s-0.693,0.125-1.04,0.125
			c-0.414,0-0.82-0.053-1.219-0.16s-0.776-0.264-1.133-0.473s-0.684-0.466-0.982-0.773c-0.297-0.307-0.55-0.651-0.756-1.031
			c-0.083-0.12-0.125-0.266-0.125-0.438c0-0.234,0.078-0.428,0.233-0.582c0.155-0.154,0.35-0.23,0.583-0.23
			c0.155,0,0.283,0.037,0.384,0.109c0.101,0.073,0.239,0.234,0.416,0.484c0.176,0.25,0.331,0.44,0.465,0.57
			c0.59,0.594,1.301,0.891,2.135,0.891c0.838,0,1.547-0.292,2.126-0.875c0.357-0.438,0.536-0.862,0.536-1.273V62.575z
			 M65.529,56.419c-0.383,0-0.74,0.073-1.071,0.219c-0.332,0.146-0.619,0.342-0.862,0.59s-0.436,0.538-0.578,0.871
			c-0.142,0.333-0.213,0.688-0.213,1.062s0.071,0.729,0.213,1.062c0.143,0.333,0.335,0.624,0.578,0.871s0.53,0.444,0.862,0.59
			c0.331,0.146,0.688,0.219,1.071,0.219c0.378,0,0.732-0.073,1.063-0.219s0.62-0.344,0.865-0.594c0.246-0.25,0.44-0.541,0.582-0.871
			c0.143-0.331,0.214-0.684,0.214-1.059s-0.071-0.728-0.214-1.059c-0.142-0.331-0.336-0.621-0.582-0.871
			c-0.246-0.25-0.534-0.448-0.865-0.594S65.907,56.419,65.529,56.419z"/>
		<path fill="#FFFFFF" d="M81.367,62.724v-0.156c-0.388,0.312-0.81,0.552-1.265,0.719s-0.942,0.25-1.459,0.25
			c-1.201,0-2.225-0.427-3.074-1.281s-1.272-1.885-1.272-3.094s0.424-2.24,1.272-3.094s1.873-1.281,3.074-1.281
			c1.19,0,2.214,0.427,3.074,1.281c0.848,0.854,1.272,1.885,1.272,3.094v3.562c0,0.224-0.079,0.416-0.236,0.574
			c-0.158,0.159-0.349,0.238-0.571,0.238c-0.228,0-0.42-0.08-0.578-0.238S81.367,62.948,81.367,62.724z M78.643,56.419
			c-0.383,0-0.74,0.073-1.071,0.219c-0.332,0.146-0.619,0.342-0.862,0.59s-0.436,0.538-0.578,0.871s-0.213,0.688-0.213,1.062
			s0.071,0.729,0.213,1.062s0.335,0.624,0.578,0.871s0.53,0.444,0.862,0.59c0.331,0.146,0.688,0.219,1.071,0.219
			c0.377,0,0.732-0.073,1.063-0.219s0.62-0.344,0.866-0.594s0.44-0.541,0.582-0.871s0.213-0.684,0.213-1.059
			s-0.071-0.728-0.213-1.059s-0.336-0.621-0.582-0.871s-0.535-0.448-0.866-0.594S79.02,56.419,78.643,56.419z"/>
		<path fill="#FFFFFF" d="M94.022,61.06c0.233,0,0.425,0.077,0.578,0.23s0.229,0.348,0.229,0.582c0,0.229-0.085,0.43-0.256,0.602
			c-0.803,0.708-1.747,1.062-2.833,1.062c-1.201,0-2.225-0.427-3.074-1.281s-1.273-1.885-1.273-3.094s0.424-2.24,1.273-3.094
			s1.873-1.281,3.074-1.281c1.092,0,2.036,0.354,2.833,1.062c0.186,0.167,0.279,0.373,0.279,0.617c0,0.234-0.077,0.43-0.229,0.586
			c-0.152,0.156-0.345,0.234-0.578,0.234c-0.196,0-0.372-0.062-0.527-0.188c-0.264-0.224-0.541-0.393-0.831-0.508
			s-0.605-0.172-0.947-0.172c-0.378,0-0.732,0.072-1.063,0.215s-0.621,0.338-0.869,0.586c-0.249,0.248-0.444,0.538-0.586,0.871
			c-0.143,0.333-0.214,0.69-0.214,1.07s0.071,0.737,0.214,1.07c0.142,0.333,0.337,0.624,0.586,0.871
			c0.248,0.248,0.538,0.443,0.869,0.586s0.686,0.215,1.063,0.215c0.341,0,0.657-0.056,0.947-0.168s0.564-0.28,0.823-0.504
			C93.655,61.122,93.826,61.065,94.022,61.06z"/>
		<path fill="#FFFFFF" d="M101.478,53.231c0,0.266-0.093,0.492-0.279,0.68c-0.187,0.188-0.411,0.281-0.675,0.281
			s-0.489-0.094-0.675-0.281s-0.279-0.414-0.279-0.68s0.093-0.492,0.279-0.68s0.411-0.281,0.675-0.281s0.489,0.094,0.675,0.281
			C101.385,52.739,101.478,52.966,101.478,53.231z M99.716,62.716v-7.109c0-0.229,0.079-0.423,0.236-0.582
			c0.158-0.159,0.348-0.238,0.571-0.238c0.222,0,0.413,0.08,0.57,0.238s0.239,0.353,0.245,0.582v7.109
			c-0.005,0.229-0.087,0.423-0.245,0.582s-0.348,0.238-0.57,0.238c-0.223,0-0.413-0.08-0.571-0.238
			C99.795,63.139,99.716,62.945,99.716,62.716z"/>
		<path fill="#FFFFFF" d="M114.878,59.161c0,1.219-0.424,2.25-1.272,3.094c-0.859,0.854-1.884,1.281-3.074,1.281
			c-1.201,0-2.225-0.427-3.074-1.281s-1.272-1.885-1.272-3.094s0.424-2.24,1.272-3.094s1.873-1.281,3.074-1.281
			c1.19,0,2.214,0.427,3.074,1.281c0.424,0.427,0.741,0.898,0.95,1.414C114.766,57.997,114.874,58.557,114.878,59.161z
			 M110.532,56.419c-0.383,0-0.74,0.073-1.071,0.219c-0.332,0.146-0.619,0.342-0.862,0.59s-0.436,0.538-0.578,0.871
			s-0.213,0.688-0.213,1.062s0.071,0.729,0.213,1.062s0.335,0.624,0.578,0.871s0.53,0.444,0.862,0.59
			c0.331,0.146,0.688,0.219,1.071,0.219c0.377,0,0.732-0.073,1.063-0.219s0.62-0.344,0.866-0.594s0.44-0.541,0.582-0.871
			s0.213-0.684,0.213-1.059s-0.071-0.728-0.213-1.059s-0.336-0.621-0.582-0.871s-0.535-0.448-0.866-0.594
			S110.91,56.419,110.532,56.419z"/>
		<path fill="#FFFFFF" d="M120.914,55.591c0.688-0.537,1.498-0.805,2.43-0.805c0.543,0,1.059,0.107,1.548,0.32
			c0.489,0.213,0.92,0.504,1.292,0.871s0.667,0.799,0.885,1.297s0.326,1.027,0.326,1.59v3.852c0,0.229-0.079,0.423-0.237,0.582
			c-0.158,0.159-0.348,0.238-0.57,0.238c-0.228,0-0.421-0.08-0.578-0.238c-0.158-0.159-0.237-0.353-0.237-0.582v-3.852
			c0-0.333-0.064-0.648-0.193-0.945c-0.13-0.297-0.305-0.556-0.524-0.777s-0.477-0.397-0.772-0.527s-0.608-0.195-0.939-0.195
			c-0.337,0-0.651,0.064-0.943,0.191c-0.292,0.127-0.55,0.303-0.772,0.527c-0.222,0.224-0.396,0.484-0.523,0.781
			s-0.19,0.612-0.19,0.945v3.852c0,0.229-0.079,0.423-0.236,0.582c-0.158,0.159-0.349,0.238-0.571,0.238
			c-0.228,0-0.42-0.08-0.578-0.238s-0.237-0.353-0.237-0.582v-7.109c0-0.224,0.079-0.417,0.237-0.578s0.351-0.242,0.578-0.242
			c0.222,0,0.413,0.081,0.571,0.242C120.834,55.19,120.914,55.377,120.914,55.591z"/>
		<path fill="#FFFFFF" d="M138.405,61.075c0.232,0,0.426,0.077,0.578,0.23s0.229,0.348,0.229,0.582c0,0.229-0.078,0.424-0.233,0.586
			c-0.802,0.708-1.749,1.062-2.841,1.062c-1.2,0-2.225-0.427-3.073-1.281s-1.273-1.885-1.273-3.094s0.424-2.24,1.273-3.094
			s1.873-1.281,3.073-1.281c1.19,0,2.215,0.427,3.074,1.281c0.424,0.422,0.743,0.892,0.955,1.41s0.318,1.08,0.318,1.684
			c0,0.234-0.079,0.428-0.237,0.582s-0.351,0.23-0.579,0.23h-6.146c0.088,0.287,0.217,0.548,0.388,0.785
			c0.171,0.237,0.371,0.44,0.602,0.609s0.484,0.301,0.761,0.395s0.565,0.141,0.865,0.141c0.342,0,0.655-0.052,0.939-0.156
			c0.284-0.104,0.548-0.26,0.792-0.469C138.024,61.148,138.203,61.081,138.405,61.075z M138.754,58.349
			c-0.088-0.287-0.218-0.548-0.392-0.785c-0.173-0.237-0.375-0.44-0.605-0.609c-0.23-0.169-0.483-0.301-0.76-0.395
			s-0.563-0.141-0.858-0.141s-0.582,0.047-0.861,0.141s-0.535,0.225-0.769,0.395c-0.232,0.169-0.435,0.373-0.605,0.609
			c-0.17,0.237-0.297,0.499-0.38,0.785H138.754z"/>
		<path fill="#FFFFFF" d="M146.489,59.372c-0.486-0.188-0.828-0.38-1.024-0.578h0.008c-0.394-0.401-0.59-0.873-0.59-1.414
			c0-0.396,0.104-0.754,0.314-1.074c0.209-0.32,0.482-0.592,0.818-0.816c0.337-0.224,0.716-0.397,1.138-0.52
			c0.421-0.123,0.844-0.184,1.269-0.184c1.293,0,2.403,0.523,3.33,1.57c0.109,0.135,0.163,0.299,0.163,0.492
			c0,0.234-0.077,0.428-0.229,0.582s-0.346,0.23-0.578,0.23c-0.166,0-0.307-0.047-0.423-0.141c-0.117-0.094-0.229-0.195-0.338-0.305
			c-0.527-0.531-1.169-0.797-1.925-0.797c-0.745,0-1.34,0.229-1.785,0.688c-0.083,0.083-0.124,0.198-0.124,0.344
			s0.067,0.245,0.202,0.297l3.632,1.203c0.507,0.198,0.849,0.391,1.024,0.578h-0.008c0.394,0.401,0.59,0.873,0.59,1.414
			c0,0.401-0.104,0.76-0.314,1.078c-0.209,0.318-0.482,0.59-0.818,0.816c-0.336,0.227-0.714,0.4-1.133,0.52s-0.841,0.18-1.265,0.18
			c-1.304,0-2.414-0.518-3.33-1.555c-0.114-0.151-0.17-0.32-0.17-0.508c0-0.234,0.076-0.428,0.229-0.582
			c0.153-0.154,0.346-0.23,0.578-0.23c0.171,0,0.315,0.051,0.435,0.152s0.228,0.199,0.326,0.293
			c0.528,0.531,1.172,0.797,1.933,0.797c0.74,0,1.335-0.234,1.785-0.703c0.078-0.088,0.116-0.195,0.116-0.32
			c0-0.146-0.069-0.248-0.209-0.305L146.489,59.372z"/>
	</g>
	
		<rect x="0.359" y="0.207" transform="matrix(1 -0.0024 0.0024 1 -0.0384 0.2079)" fill="#662483" width="171.772" height="31.639"/>
	<g>
		<path fill="#FFFFFF" d="M59.928,19.169c0,0.229-0.08,0.424-0.24,0.586c-0.161,0.162-0.354,0.242-0.582,0.242
			c-0.228,0-0.422-0.081-0.582-0.242c-0.161-0.162-0.241-0.357-0.241-0.586V8.325c0-0.229,0.081-0.424,0.241-0.586
			c0.16-0.162,0.354-0.242,0.582-0.242c0.228,0,0.421,0.081,0.582,0.242c0.16,0.162,0.24,0.357,0.24,0.586V19.169z"/>
		<path fill="#FFFFFF" d="M66.29,12.052c0.688-0.537,1.498-0.805,2.43-0.805c0.543,0,1.059,0.107,1.548,0.32
			c0.489,0.213,0.92,0.504,1.292,0.871s0.667,0.799,0.885,1.297s0.326,1.027,0.326,1.59v3.852c0,0.229-0.079,0.423-0.237,0.582
			c-0.158,0.159-0.348,0.238-0.57,0.238c-0.228,0-0.421-0.08-0.578-0.238c-0.158-0.159-0.237-0.353-0.237-0.582v-3.852
			c0-0.333-0.064-0.648-0.193-0.945c-0.13-0.297-0.305-0.556-0.524-0.777s-0.477-0.397-0.772-0.527s-0.608-0.195-0.939-0.195
			c-0.337,0-0.651,0.064-0.943,0.191c-0.292,0.127-0.55,0.303-0.772,0.527c-0.222,0.224-0.396,0.484-0.523,0.781
			s-0.19,0.612-0.19,0.945v3.852c0,0.229-0.079,0.423-0.236,0.582c-0.158,0.159-0.349,0.238-0.571,0.238
			c-0.228,0-0.42-0.08-0.578-0.238s-0.237-0.353-0.237-0.582v-7.109c0-0.224,0.079-0.417,0.237-0.578s0.351-0.242,0.578-0.242
			c0.222,0,0.413,0.081,0.571,0.242C66.21,11.651,66.29,11.838,66.29,12.052z"/>
		<path fill="#FFFFFF" d="M79.365,9.692c0,0.266-0.094,0.492-0.28,0.68s-0.411,0.281-0.675,0.281c-0.264,0-0.489-0.094-0.675-0.281
			c-0.187-0.188-0.28-0.414-0.28-0.68s0.093-0.492,0.28-0.68c0.186-0.188,0.411-0.281,0.675-0.281c0.264,0,0.489,0.094,0.675,0.281
			S79.365,9.427,79.365,9.692z M77.603,19.177v-7.109c0-0.229,0.079-0.423,0.237-0.582c0.158-0.159,0.348-0.238,0.57-0.238
			s0.413,0.08,0.57,0.238c0.158,0.159,0.239,0.353,0.245,0.582v7.109c-0.006,0.229-0.087,0.423-0.245,0.582
			c-0.157,0.159-0.348,0.238-0.57,0.238s-0.413-0.08-0.57-0.238C77.681,19.6,77.603,19.406,77.603,19.177z"/>
		<path fill="#FFFFFF" d="M90.685,17.521c0.232,0,0.426,0.077,0.578,0.23s0.229,0.348,0.229,0.582c0,0.229-0.085,0.43-0.256,0.602
			c-0.802,0.708-1.746,1.062-2.833,1.062c-1.2,0-2.225-0.427-3.073-1.281s-1.272-1.885-1.272-3.094s0.424-2.24,1.272-3.094
			s1.873-1.281,3.073-1.281c1.092,0,2.036,0.354,2.833,1.062c0.187,0.167,0.279,0.373,0.279,0.617c0,0.234-0.076,0.43-0.229,0.586
			c-0.153,0.156-0.346,0.234-0.578,0.234c-0.197,0-0.373-0.062-0.528-0.188c-0.264-0.224-0.541-0.393-0.83-0.508
			c-0.29-0.115-0.605-0.172-0.947-0.172c-0.377,0-0.732,0.072-1.063,0.215c-0.332,0.143-0.621,0.338-0.87,0.586
			c-0.248,0.248-0.443,0.538-0.586,0.871c-0.142,0.333-0.213,0.69-0.213,1.07s0.071,0.737,0.213,1.07
			c0.143,0.333,0.338,0.624,0.586,0.871c0.249,0.248,0.538,0.443,0.87,0.586c0.331,0.143,0.686,0.215,1.063,0.215
			c0.342,0,0.657-0.056,0.947-0.168c0.29-0.112,0.563-0.28,0.822-0.504C90.318,17.583,90.488,17.526,90.685,17.521z"/>
		<path fill="#FFFFFF" d="M98.141,9.692c0,0.266-0.093,0.492-0.28,0.68c-0.186,0.188-0.411,0.281-0.675,0.281
			s-0.489-0.094-0.675-0.281s-0.28-0.414-0.28-0.68s0.094-0.492,0.28-0.68s0.412-0.281,0.675-0.281s0.489,0.094,0.675,0.281
			C98.047,9.2,98.141,9.427,98.141,9.692z M96.378,19.177v-7.109c0-0.229,0.079-0.423,0.237-0.582
			c0.157-0.159,0.348-0.238,0.57-0.238s0.413,0.08,0.57,0.238c0.158,0.159,0.239,0.353,0.245,0.582v7.109
			c-0.005,0.229-0.086,0.423-0.245,0.582c-0.158,0.159-0.348,0.238-0.57,0.238s-0.413-0.08-0.57-0.238
			C96.458,19.6,96.378,19.406,96.378,19.177z"/>
		<path fill="#FFFFFF" d="M111.542,15.622c0,1.219-0.425,2.25-1.273,3.094c-0.859,0.854-1.883,1.281-3.074,1.281
			c-1.2,0-2.225-0.427-3.073-1.281s-1.273-1.885-1.273-3.094s0.424-2.24,1.273-3.094s1.873-1.281,3.073-1.281
			c1.19,0,2.215,0.427,3.074,1.281c0.424,0.427,0.741,0.898,0.951,1.414C111.429,14.458,111.536,15.018,111.542,15.622z
			 M107.195,12.88c-0.383,0-0.74,0.073-1.071,0.219c-0.332,0.146-0.619,0.342-0.862,0.59s-0.436,0.538-0.578,0.871
			c-0.142,0.333-0.213,0.688-0.213,1.062s0.071,0.729,0.213,1.062c0.143,0.333,0.335,0.624,0.578,0.871s0.53,0.444,0.862,0.59
			c0.331,0.146,0.688,0.219,1.071,0.219c0.378,0,0.732-0.073,1.063-0.219s0.62-0.344,0.865-0.594c0.246-0.25,0.44-0.541,0.582-0.871
			c0.143-0.331,0.214-0.684,0.214-1.059s-0.071-0.728-0.214-1.059c-0.142-0.331-0.336-0.621-0.582-0.871
			c-0.246-0.25-0.534-0.448-0.865-0.594S107.573,12.88,107.195,12.88z"/>
	</g>
	<g>
		<path fill="#FFFFFF" d="M26.848,105.002V94.158c0-0.115,0.021-0.223,0.062-0.324s0.1-0.19,0.174-0.266
			c0.075-0.076,0.162-0.134,0.26-0.176s0.207-0.062,0.326-0.062h2.996c0.522,0,1.016,0.102,1.479,0.305s0.867,0.479,1.211,0.828
			c0.344,0.349,0.617,0.756,0.819,1.223s0.302,0.962,0.302,1.488c0,0.344-0.042,0.678-0.128,1.004
			c-0.085,0.326-0.212,0.633-0.38,0.922c-0.168,0.289-0.378,0.557-0.629,0.805s-0.542,0.465-0.873,0.652l2.476,3.992
			c0.088,0.146,0.132,0.297,0.132,0.453c0,0.12-0.021,0.229-0.062,0.328c-0.042,0.099-0.1,0.186-0.175,0.262
			c-0.075,0.076-0.163,0.134-0.264,0.176c-0.101,0.042-0.208,0.062-0.322,0.062c-0.29,0-0.525-0.135-0.707-0.406l-2.74-4.414h-2.312
			v3.992c0,0.229-0.081,0.424-0.241,0.586c-0.161,0.162-0.354,0.242-0.583,0.242c-0.228,0-0.421-0.081-0.582-0.242
			C26.928,105.426,26.848,105.231,26.848,105.002z M28.494,94.986v4.367h2.173c0.3,0,0.582-0.057,0.846-0.172
			c0.264-0.115,0.493-0.272,0.687-0.473c0.194-0.201,0.348-0.432,0.461-0.695s0.171-0.543,0.171-0.84
			c0-0.302-0.057-0.586-0.171-0.852s-0.269-0.498-0.465-0.695c-0.197-0.198-0.427-0.354-0.691-0.469
			c-0.264-0.115-0.543-0.172-0.838-0.172H28.494z"/>
		<path fill="#FFFFFF" d="M45.992,103.369c0.233,0,0.425,0.077,0.578,0.23s0.229,0.348,0.229,0.582c0,0.229-0.078,0.424-0.233,0.586
			c-0.802,0.708-1.749,1.062-2.84,1.062c-1.201,0-2.225-0.427-3.074-1.281s-1.273-1.885-1.273-3.094s0.424-2.24,1.273-3.094
			s1.873-1.281,3.074-1.281c1.189,0,2.214,0.427,3.073,1.281c0.424,0.422,0.742,0.892,0.955,1.41s0.318,1.08,0.318,1.684
			c0,0.234-0.079,0.428-0.237,0.582c-0.158,0.154-0.351,0.23-0.578,0.23H41.11c0.088,0.287,0.217,0.548,0.388,0.785
			c0.17,0.237,0.371,0.44,0.602,0.609c0.23,0.169,0.483,0.301,0.76,0.395s0.565,0.141,0.866,0.141c0.341,0,0.654-0.052,0.939-0.156
			s0.548-0.26,0.792-0.469C45.612,103.442,45.791,103.375,45.992,103.369z M46.341,100.643c-0.088-0.287-0.219-0.548-0.392-0.785
			c-0.174-0.237-0.375-0.44-0.605-0.609c-0.23-0.169-0.484-0.301-0.761-0.395c-0.277-0.094-0.562-0.141-0.857-0.141
			s-0.583,0.047-0.862,0.141s-0.536,0.225-0.768,0.395c-0.233,0.169-0.435,0.373-0.605,0.609c-0.171,0.237-0.298,0.499-0.38,0.785
			H46.341z"/>
		<path fill="#FFFFFF" d="M56.839,105.83c-1.04,0-1.948-0.32-2.724-0.961v3.898c0,0.234-0.079,0.428-0.237,0.582
			c-0.158,0.154-0.351,0.23-0.578,0.23c-0.233,0-0.426-0.077-0.578-0.23c-0.153-0.154-0.229-0.348-0.229-0.582v-7.312
			c0-1.208,0.425-2.24,1.273-3.094c0.848-0.854,1.873-1.281,3.073-1.281c1.19,0,2.214,0.427,3.073,1.281
			c0.424,0.422,0.743,0.892,0.955,1.41c0.212,0.518,0.318,1.08,0.318,1.684c0,1.219-0.424,2.25-1.273,3.094
			c-0.435,0.432-0.907,0.754-1.416,0.965C57.987,105.725,57.434,105.83,56.839,105.83z M54.115,101.455
			c0,0.375,0.071,0.729,0.213,1.062c0.142,0.333,0.335,0.624,0.578,0.871s0.53,0.444,0.861,0.59s0.688,0.219,1.071,0.219
			c0.377,0,0.732-0.073,1.063-0.219c0.331-0.146,0.619-0.344,0.865-0.594c0.246-0.25,0.439-0.541,0.582-0.871
			c0.142-0.331,0.213-0.684,0.213-1.059s-0.071-0.728-0.213-1.059c-0.143-0.331-0.336-0.621-0.582-0.871
			c-0.246-0.25-0.534-0.448-0.865-0.594c-0.332-0.146-0.686-0.219-1.063-0.219c-0.383,0-0.74,0.073-1.071,0.219
			s-0.618,0.342-0.861,0.59s-0.436,0.538-0.578,0.871C54.186,100.726,54.115,101.08,54.115,101.455z"/>
		<path fill="#FFFFFF" d="M72.677,105.018v-0.156c-0.388,0.312-0.81,0.552-1.265,0.719c-0.456,0.167-0.942,0.25-1.459,0.25
			c-1.2,0-2.225-0.427-3.073-1.281s-1.273-1.885-1.273-3.094s0.424-2.24,1.273-3.094s1.873-1.281,3.073-1.281
			c1.19,0,2.215,0.427,3.074,1.281c0.849,0.854,1.273,1.885,1.273,3.094v3.562c0,0.224-0.079,0.416-0.237,0.574
			s-0.348,0.238-0.57,0.238c-0.228,0-0.42-0.08-0.579-0.238C72.756,105.433,72.677,105.242,72.677,105.018z M69.953,98.713
			c-0.383,0-0.74,0.073-1.071,0.219c-0.332,0.146-0.619,0.342-0.862,0.59s-0.436,0.538-0.578,0.871
			c-0.142,0.333-0.213,0.688-0.213,1.062s0.071,0.729,0.213,1.062c0.143,0.333,0.335,0.624,0.578,0.871s0.53,0.444,0.862,0.59
			c0.331,0.146,0.688,0.219,1.071,0.219c0.378,0,0.732-0.073,1.063-0.219s0.62-0.344,0.865-0.594c0.246-0.25,0.44-0.541,0.582-0.871
			c0.143-0.331,0.214-0.684,0.214-1.059s-0.071-0.728-0.214-1.059c-0.142-0.331-0.336-0.621-0.582-0.871
			c-0.246-0.25-0.534-0.448-0.865-0.594S70.331,98.713,69.953,98.713z"/>
		<path fill="#FFFFFF" d="M80.311,97.893v0.156c0.388-0.312,0.81-0.552,1.265-0.719s0.942-0.25,1.459-0.25
			c0.228,0,0.472,0.016,0.734,0.047c0.261,0.031,0.501,0.087,0.722,0.168c0.22,0.081,0.402,0.191,0.547,0.332
			c0.145,0.141,0.218,0.323,0.218,0.547c0,0.115-0.022,0.221-0.066,0.32s-0.102,0.186-0.175,0.262
			c-0.072,0.076-0.158,0.134-0.256,0.176s-0.205,0.062-0.318,0.062c-0.098,0-0.212-0.029-0.341-0.086
			c-0.326-0.13-0.68-0.195-1.063-0.195c-0.377,0-0.732,0.072-1.063,0.215s-0.62,0.338-0.865,0.586
			c-0.246,0.248-0.44,0.538-0.583,0.871s-0.213,0.69-0.213,1.07v3.562c0,0.224-0.079,0.416-0.237,0.574s-0.348,0.238-0.57,0.238
			c-0.228,0-0.42-0.08-0.578-0.238s-0.237-0.35-0.237-0.574v-7.125c0-0.224,0.079-0.416,0.237-0.574s0.35-0.238,0.578-0.238
			c0.222,0,0.413,0.08,0.57,0.238S80.311,97.668,80.311,97.893z"/>
		<path fill="#FFFFFF" d="M96.42,105.018v-0.156c-0.388,0.312-0.81,0.552-1.265,0.719s-0.942,0.25-1.459,0.25
			c-1.201,0-2.225-0.427-3.074-1.281s-1.272-1.885-1.272-3.094s0.424-2.24,1.272-3.094s1.873-1.281,3.074-1.281
			c1.19,0,2.214,0.427,3.074,1.281c0.848,0.854,1.272,1.885,1.272,3.094v3.562c0,0.224-0.079,0.416-0.236,0.574
			c-0.158,0.159-0.348,0.238-0.571,0.238c-0.228,0-0.42-0.08-0.578-0.238S96.42,105.242,96.42,105.018z M93.696,98.713
			c-0.383,0-0.74,0.073-1.071,0.219c-0.332,0.146-0.619,0.342-0.862,0.59s-0.436,0.538-0.578,0.871
			c-0.143,0.333-0.213,0.688-0.213,1.062s0.071,0.729,0.213,1.062c0.142,0.333,0.335,0.624,0.578,0.871s0.53,0.444,0.862,0.59
			c0.331,0.146,0.688,0.219,1.071,0.219c0.377,0,0.732-0.073,1.063-0.219s0.62-0.344,0.866-0.594s0.44-0.541,0.582-0.871
			s0.213-0.684,0.213-1.059s-0.071-0.728-0.213-1.059s-0.336-0.621-0.582-0.871s-0.535-0.448-0.866-0.594
			S94.074,98.713,93.696,98.713z"/>
		<path fill="#FFFFFF" d="M109.076,103.354c0.233,0,0.425,0.077,0.578,0.23s0.229,0.348,0.229,0.582c0,0.229-0.085,0.43-0.256,0.602
			c-0.802,0.708-1.747,1.062-2.833,1.062c-1.201,0-2.225-0.427-3.074-1.281s-1.273-1.885-1.273-3.094s0.424-2.24,1.273-3.094
			s1.873-1.281,3.074-1.281c1.092,0,2.036,0.354,2.833,1.062c0.186,0.167,0.279,0.373,0.279,0.617c0,0.234-0.077,0.43-0.229,0.586
			c-0.153,0.156-0.346,0.234-0.579,0.234c-0.196,0-0.372-0.062-0.527-0.188c-0.264-0.224-0.541-0.393-0.831-0.508
			c-0.29-0.115-0.605-0.172-0.947-0.172c-0.378,0-0.732,0.072-1.063,0.215s-0.621,0.338-0.869,0.586
			c-0.249,0.248-0.444,0.538-0.586,0.871c-0.143,0.333-0.214,0.69-0.214,1.07s0.071,0.737,0.214,1.07
			c0.142,0.333,0.337,0.624,0.586,0.871c0.248,0.248,0.538,0.443,0.869,0.586s0.686,0.215,1.063,0.215
			c0.341,0,0.657-0.056,0.947-0.168c0.29-0.112,0.564-0.28,0.823-0.504C108.708,103.416,108.879,103.359,109.076,103.354z"/>
		<path fill="#FFFFFF" d="M116.532,95.525c0,0.266-0.093,0.492-0.279,0.68c-0.187,0.188-0.412,0.281-0.676,0.281
			c-0.264,0-0.489-0.094-0.675-0.281c-0.187-0.188-0.279-0.414-0.279-0.68s0.093-0.492,0.279-0.68
			c0.186-0.188,0.411-0.281,0.675-0.281c0.264,0,0.489,0.094,0.676,0.281C116.438,95.033,116.532,95.26,116.532,95.525z
			 M114.77,105.01V97.9c0-0.229,0.079-0.423,0.236-0.582c0.158-0.159,0.348-0.238,0.57-0.238c0.223,0,0.413,0.08,0.571,0.238
			s0.239,0.353,0.245,0.582v7.109c-0.005,0.229-0.087,0.423-0.245,0.582s-0.348,0.238-0.571,0.238c-0.222,0-0.412-0.08-0.57-0.238
			C114.849,105.433,114.77,105.239,114.77,105.01z"/>
		<path fill="#FFFFFF" d="M129.932,101.455c0,1.219-0.424,2.25-1.272,3.094c-0.859,0.854-1.884,1.281-3.074,1.281
			c-1.2,0-2.225-0.427-3.073-1.281c-0.849-0.854-1.273-1.885-1.273-3.094s0.424-2.24,1.273-3.094
			c0.848-0.854,1.873-1.281,3.073-1.281c1.19,0,2.214,0.427,3.074,1.281c0.424,0.427,0.741,0.898,0.951,1.414
			S129.927,100.851,129.932,101.455z M125.586,98.713c-0.383,0-0.74,0.073-1.071,0.219c-0.332,0.146-0.619,0.342-0.862,0.59
			s-0.436,0.538-0.578,0.871s-0.213,0.688-0.213,1.062s0.071,0.729,0.213,1.062s0.335,0.624,0.578,0.871s0.53,0.444,0.862,0.59
			c0.331,0.146,0.688,0.219,1.071,0.219c0.377,0,0.732-0.073,1.063-0.219c0.331-0.146,0.62-0.344,0.865-0.594
			s0.44-0.541,0.582-0.871s0.213-0.684,0.213-1.059s-0.071-0.728-0.213-1.059s-0.336-0.621-0.582-0.871s-0.534-0.448-0.865-0.594
			C126.318,98.786,125.963,98.713,125.586,98.713z M127.262,94.729l-1.552,1.555c-0.145,0.146-0.332,0.219-0.559,0.219
			c-0.233,0-0.426-0.077-0.578-0.23c-0.153-0.154-0.229-0.348-0.229-0.582c0-0.224,0.067-0.409,0.202-0.555l1.552-1.555
			c0.166-0.162,0.357-0.242,0.574-0.242c0.233,0,0.426,0.08,0.579,0.238c0.152,0.159,0.229,0.353,0.229,0.582
			C127.48,94.393,127.407,94.583,127.262,94.729z"/>
		<path fill="#FFFFFF" d="M135.967,97.885c0.688-0.537,1.498-0.805,2.43-0.805c0.543,0,1.06,0.107,1.548,0.32
			s0.919,0.504,1.292,0.871c0.372,0.367,0.667,0.799,0.885,1.297c0.217,0.498,0.326,1.027,0.326,1.59v3.852
			c0,0.229-0.079,0.423-0.237,0.582c-0.158,0.159-0.348,0.238-0.57,0.238c-0.228,0-0.42-0.08-0.578-0.238
			c-0.158-0.159-0.237-0.353-0.237-0.582v-3.852c0-0.333-0.065-0.648-0.194-0.945c-0.13-0.297-0.304-0.556-0.524-0.777
			c-0.22-0.221-0.478-0.397-0.772-0.527s-0.608-0.195-0.939-0.195c-0.336,0-0.651,0.064-0.943,0.191
			c-0.292,0.127-0.55,0.303-0.772,0.527c-0.223,0.224-0.397,0.484-0.524,0.781s-0.19,0.612-0.19,0.945v3.852
			c0,0.229-0.079,0.423-0.236,0.582c-0.158,0.159-0.348,0.238-0.57,0.238c-0.228,0-0.421-0.08-0.579-0.238s-0.237-0.353-0.237-0.582
			V97.9c0-0.224,0.079-0.417,0.237-0.578s0.351-0.242,0.579-0.242c0.222,0,0.412,0.081,0.57,0.242
			C135.889,97.484,135.967,97.671,135.967,97.885z"/>
	</g>
</g>
</svg>
