<?xml version="1.0" encoding="utf-8"?>
<!-- Generator: Adobe Illustrator 16.0.0, SVG Export Plug-In . SVG Version: 6.00 Build 0)  -->
<!DOCTYPE svg PUBLIC "-//W3C//DTD SVG 1.1//EN" "http://www.w3.org/Graphics/SVG/1.1/DTD/svg11.dtd">
<svg version="1.1" id="Capa_1" xmlns="http://www.w3.org/2000/svg" xmlns:xlink="http://www.w3.org/1999/xlink" x="0px" y="0px"
	 width="353.936px" height="43.539px" viewBox="0 0 353.936 43.539" enable-background="new 0 0 353.936 43.539"
	 xml:space="preserve">
<g>
	<rect x="37.444" fill="#951B81" width="316.491" height="43.539"/>
	<g>
		<g>
			<path fill="#FFFFFF" d="M64.083,12.65v3.58l-6.727-0.203v4.164l6.046-0.127l0.153,3.44h-5.399v3.225h7.068v3.605l-11.786-0.127
				c0.125-2.378,0.187-4.773,0.187-7.186c0-3.343-0.119-6.716-0.357-10.118C55.834,12.828,59.439,12.743,64.083,12.65z"/>
			<path fill="#FFFFFF" d="M71.985,11.838c-0.204,4.409-0.307,8.188-0.307,11.337c0,1.253,0.018,2.408,0.051,3.466l7.596-0.279
				l0.12,4.139l-12.16,0.203c0.011-1.117,0.017-2.23,0.017-3.339c0-5.087-0.147-10.147-0.442-15.184L71.985,11.838z"/>
			<path fill="#FFFFFF" d="M87.552,30.449c0.022-2.853,0.034-5.789,0.034-8.811c0-3.03-0.012-6.141-0.034-9.331
				c1.306-0.118,2.509-0.178,3.61-0.178c3.065,0,5.325,0.457,6.778,1.371c1.976,1.253,3.009,3.567,3.1,6.944v0.914
				c0,2.895-0.375,4.96-1.124,6.195c-0.829,1.362-2.345,2.269-4.547,2.717c-1.272,0.263-2.668,0.394-4.189,0.394
				C90.044,30.665,88.834,30.593,87.552,30.449z M91.775,15.938c-0.193,2.784-0.29,5.476-0.29,8.074
				c0,0.981,0.012,1.946,0.034,2.895c0.397,0.067,0.778,0.102,1.142,0.102c0.999,0,1.839-0.258,2.521-0.774
				c0.931-0.694,1.396-2.251,1.396-4.672v-0.051c-0.012-2.438-0.466-4.037-1.363-4.799c-0.693-0.575-1.516-0.863-2.469-0.863
				C92.439,15.85,92.116,15.879,91.775,15.938z"/>
			<path fill="#FFFFFF" d="M101.329,30.424c2.135-7.228,3.86-13.355,5.178-18.383l6.387-0.076c1.566,5.23,3.36,11.188,5.382,17.875
				l-4.36,0.66l-1.379-4.812h-5.296l-1.431,5.192L101.329,30.424z M112.399,22.121c-0.591-1.828-1.556-4.016-2.896-6.563
				c-1.033,2.142-1.907,4.358-2.623,6.652L112.399,22.121z"/>
			<path fill="#FFFFFF" d="M118.871,30.563c0.136-2.895,0.205-5.713,0.205-8.455c0-3.165-0.091-6.233-0.273-9.204l5.007-0.178
				l4.598,9.56c-0.045-3.284-0.17-6.644-0.375-10.08l5.262-0.051c-0.522,5.188-0.783,10.427-0.783,15.717
				c0,0.711,0.006,1.422,0.017,2.133l-4.615,0.038l-4.905-10.232c0.147,3.774,0.284,7.283,0.409,10.524L118.871,30.563z
				 M120.523,10.378c0-2.539,1.135-3.809,3.406-3.809c1.135,0,2.015,0.317,2.64,0.952c0.522,0.524,1.005,0.787,1.447,0.787
				c0.091,0,0.176-0.009,0.256-0.025c0.511-0.127,0.766-0.698,0.766-1.714h2.555c0,2.539-1.135,3.809-3.406,3.809
				c-1.135,0-2.043-0.317-2.725-0.952c-0.567-0.533-1.056-0.8-1.464-0.8c-0.08,0-0.159,0.013-0.239,0.038
				c-0.454,0.127-0.681,0.698-0.681,1.714H120.523z"/>
			<path fill="#FFFFFF" d="M142.748,12.219c4.78,0,7.17,3.047,7.17,9.141c0,6.103-2.56,9.153-7.681,9.153s-7.681-3.161-7.681-9.483
				C134.557,15.155,137.287,12.219,142.748,12.219z M139.342,21.702c-0.011,0.22-0.017,0.432-0.017,0.635
				c0,3.19,0.999,4.786,2.997,4.786c2.123,0,3.185-1.807,3.185-5.421s-0.988-5.421-2.963-5.421
				C140.557,16.281,139.49,18.088,139.342,21.702z"/>
			<path fill="#FFFFFF" d="M161.857,30.614l0.188-7.871c-2.588-4.079-4.587-7.397-5.995-9.953l4.803-0.368l3.252,7.084
				c1.465-3.402,2.64-5.938,3.525-7.604h4.649c-2.782,5.104-4.78,8.798-5.995,11.083v7.478L161.857,30.614z"/>
			<path fill="#FFFFFF" d="M178.139,23.835l5.058-0.254c-0.068,0.524-0.102,0.999-0.102,1.422c0,1.921,0.641,2.882,1.924,2.882
				h0.068c1.556-0.034,2.333-0.651,2.333-1.854v-0.114c-0.057-1.278-1.527-2.53-4.411-3.758c-2.804-1.185-4.207-3.14-4.207-5.865
				c0-0.085,0.006-0.169,0.017-0.254c0.08-2.853,2.225-4.304,6.438-4.354h0.136c3.804,0,5.705,1.807,5.705,5.421
				c0,0.288-0.011,0.593-0.034,0.914l-4.445,0.19c0.045-0.381,0.068-0.732,0.068-1.054c0-1.515-0.494-2.272-1.482-2.272
				c-1.192,0-1.845,0.453-1.958,1.358c-0.012,0.127-0.018,0.254-0.018,0.381c0,0.753,0.301,1.456,0.903,2.107
				c0.692,0.753,1.882,1.443,3.568,2.069c1.687,0.626,2.864,1.485,3.534,2.577c0.477,0.787,0.715,1.625,0.715,2.514
				c0,0.339-0.034,0.686-0.102,1.041c-0.262,1.278-0.988,2.338-2.18,3.181c-1.192,0.842-2.793,1.301-4.803,1.377
				c-0.136,0.009-0.272,0.013-0.409,0.013c-1.828,0-3.355-0.499-4.581-1.498c-1.182-0.956-1.771-2.695-1.771-5.218
				C178.104,24.482,178.116,24.165,178.139,23.835z"/>
			<path fill="#FFFFFF" d="M207.448,12.32v12.556c0,3.868-2.373,5.802-7.119,5.802h-0.375c-3.974-0.339-6.029-1.959-6.165-4.862
				c0-5.798-0.08-10.368-0.239-13.711h4.53c-0.114,1.913-0.17,4.16-0.17,6.741c0,1.812,0.028,3.792,0.085,5.941
				c0.023,1.574,0.784,2.361,2.282,2.361c0,0.009,0.006,0.013,0.018,0.013c1.487,0,2.23-1.007,2.23-3.021l-0.085-11.705
				L207.448,12.32z"/>
			<path fill="#FFFFFF" d="M215.436,15.926v-3.339c1.669,0.034,3.321,0.051,4.956,0.051c2.543,0,5.035-0.038,7.477-0.114
				l0.153,3.555h-4.292c0,6.018,0.085,10.791,0.255,14.32l-4.803,0.178c0.25-6.009,0.432-10.909,0.545-14.701L215.436,15.926z"/>
			<path fill="#FFFFFF" d="M234.306,29.954l-4.24,0.292c0-6.212-0.136-12.044-0.409-17.494l4.854-0.305
				C234.385,18.194,234.317,24.029,234.306,29.954z"/>
			<path fill="#FFFFFF" d="M236.281,30.551c0.068-2.226,0.103-4.503,0.103-6.83c0-3.571-0.08-7.271-0.238-11.096
				c1.941-0.203,3.655-0.305,5.143-0.305c2.339,0,4.099,0.254,5.28,0.762c1.828,0.787,2.742,2.399,2.742,4.837v0.419
				c-0.114,2.675-0.925,4.387-2.435,5.135c-1.511,0.75-3.372,1.149-5.586,1.2c-0.011,0.263-0.017,0.533-0.017,0.812
				c0,1.405,0.097,3.068,0.29,4.989L236.281,30.551z M240.642,15.57l0.119,6.208c2.112-0.085,3.349-0.647,3.713-1.688
				c0.17-0.474,0.255-0.961,0.255-1.46c0-0.584-0.113-1.185-0.34-1.803c-0.34-0.905-1.192-1.358-2.554-1.358
				C241.47,15.469,241.073,15.503,240.642,15.57z"/>
			<path fill="#FFFFFF" d="M258.933,12.219c4.779,0,7.17,3.047,7.17,9.141c0,6.103-2.561,9.153-7.681,9.153
				c-5.121,0-7.681-3.161-7.681-9.483C250.741,15.155,253.471,12.219,258.933,12.219z M255.526,21.702
				c-0.012,0.22-0.017,0.432-0.017,0.635c0,3.19,0.999,4.786,2.998,4.786c2.123,0,3.185-1.807,3.185-5.421s-0.988-5.421-2.963-5.421
				C256.741,16.281,255.674,18.088,255.526,21.702z"/>
			<path fill="#FFFFFF" d="M272.455,11.838c-0.205,4.409-0.307,8.188-0.307,11.337c0,1.253,0.017,2.408,0.051,3.466l7.596-0.279
				l0.12,4.139l-12.16,0.203c0.011-1.117,0.017-2.23,0.017-3.339c0-5.087-0.147-10.147-0.443-15.184L272.455,11.838z"/>
			<path fill="#FFFFFF" d="M289.485,12.219c4.78,0,7.17,3.047,7.17,9.141c0,6.103-2.56,9.153-7.681,9.153s-7.681-3.161-7.681-9.483
				C281.294,15.155,284.024,12.219,289.485,12.219z M286.08,21.702c-0.011,0.22-0.017,0.432-0.017,0.635
				c0,3.19,0.999,4.786,2.997,4.786c2.123,0,3.185-1.807,3.185-5.421s-0.988-5.421-2.963-5.421
				C287.294,16.281,286.227,18.088,286.08,21.702z"/>
			<path fill="#FFFFFF" d="M312.086,19.392l-3.866,0.025c-0.057-2.149-0.783-3.279-2.18-3.39h-0.306
				c-1.249,0-2.26,0.613-3.032,1.841s-1.158,2.967-1.158,5.218v0.559c0.068,2.522,1.254,3.783,3.56,3.783
				c1.589,0,2.384-0.965,2.384-2.895c0-0.194-0.006-0.394-0.017-0.597l-3.389,0.038l0.17-2.856l8.703,0.102v3.11l-1.737,0.025
				c0,4.418-2.361,6.627-7.084,6.627c-4.372,0-6.557-2.599-6.557-7.795c0-0.432,0.017-0.885,0.051-1.358
				c0.397-6.103,3.003-9.28,7.817-9.534c0.239-0.009,0.466-0.013,0.682-0.013c4.008,0,6.012,2.015,6.012,6.043
				C312.137,18.664,312.12,19.02,312.086,19.392z"/>
			<path fill="#FFFFFF" d="M319.238,29.954l-4.24,0.292c0-6.212-0.136-12.044-0.409-17.494l4.854-0.305
				C319.318,18.194,319.25,24.029,319.238,29.954z M314.998,9.857c1.328-1.177,2.418-2.298,3.27-3.364l2.793,1.65
				c-1.203,0.88-2.543,1.959-4.019,3.237L314.998,9.857z"/>
			<path fill="#FFFFFF" d="M319.954,30.424c2.134-7.228,3.86-13.355,5.177-18.383l6.386-0.076c1.567,5.23,3.361,11.188,5.382,17.875
				l-4.359,0.66l-1.38-4.812h-5.297l-1.43,5.192L319.954,30.424z M331.024,22.121c-0.59-1.828-1.556-4.016-2.895-6.563
				c-1.033,2.142-1.908,4.358-2.623,6.652L331.024,22.121z"/>
		</g>
	</g>
	<g>
		<path fill="#331842" d="M0.749,19.772L10.764,9.757c1.001-1.001,2.624-1.001,3.625,0s1.001,2.624,0,3.625l-8.387,8.387
			l8.387,8.387c1.001,1.002,1.001,2.625,0,3.626c-0.5,0.5-1.156,0.751-1.812,0.751s-1.312-0.251-1.812-0.751L0.749,23.765
			c-0.547-0.547-0.793-1.28-0.742-1.996C-0.044,21.053,0.202,20.319,0.749,19.772z"/>
		<path fill="#331842" d="M11.979,21.769c0-0.656,0.25-1.312,0.75-1.812l6.145-6.145c1.001-1,2.624-1,3.625,0.001
			s1.001,2.624,0,3.625l-4.332,4.331l4.332,4.332c1.001,1.002,1.001,2.624,0,3.625c-0.5,0.5-1.157,0.75-1.812,0.75
			c-0.656,0-1.312-0.25-1.812-0.75l-6.145-6.145C12.229,23.081,11.979,22.425,11.979,21.769z"/>
	</g>
</g>
</svg>
