<?xml version="1.0" encoding="utf-8"?>
<!-- Generator: Adobe Illustrator 16.0.0, SVG Export Plug-In . SVG Version: 6.00 Build 0)  -->
<!DOCTYPE svg PUBLIC "-//W3C//DTD SVG 1.1//EN" "http://www.w3.org/Graphics/SVG/1.1/DTD/svg11.dtd">
<svg version="1.1" id="Capa_1" xmlns="http://www.w3.org/2000/svg" xmlns:xlink="http://www.w3.org/1999/xlink" x="0px" y="0px"
	 width="561.176px" height="183.359px" viewBox="0 0 561.176 183.359" enable-background="new 0 0 561.176 183.359"
	 xml:space="preserve">
<g>
	<rect x="261.01" y="0" opacity="0.5" fill="#951B81" enable-background="new    " width="300.167" height="183.359"/>
	<rect y="114.27" opacity="0.5" fill="#331842" enable-background="new    " width="254.12" height="31"/>
	<g>
		<g>
			<path fill="#FFFFFF" d="M78.245,131.322l3.891-0.195c-0.052,0.404-0.078,0.77-0.078,1.095c0,1.479,0.493,2.217,1.48,2.217h0.052
				c1.197-0.025,1.795-0.501,1.795-1.426v-0.089c-0.044-0.981-1.175-1.945-3.393-2.891c-2.157-0.911-3.236-2.415-3.236-4.512
				c0-0.064,0.004-0.13,0.013-0.195c0.061-2.193,1.711-3.311,4.952-3.35h0.105c2.926,0,4.389,1.391,4.389,4.17
				c0,0.222-0.009,0.456-0.026,0.703l-3.419,0.146c0.035-0.293,0.052-0.562,0.052-0.811c0-1.165-0.38-1.748-1.14-1.748
				c-0.917,0-1.419,0.349-1.506,1.045c-0.009,0.098-0.013,0.195-0.013,0.293c0,0.58,0.231,1.12,0.694,1.621
				c0.533,0.58,1.448,1.109,2.745,1.592s2.203,1.143,2.718,1.982c0.367,0.604,0.55,1.25,0.55,1.934c0,0.261-0.026,0.527-0.079,0.801
				c-0.201,0.983-0.76,1.799-1.677,2.446c-0.917,0.646-2.148,1.001-3.694,1.06c-0.105,0.007-0.21,0.011-0.314,0.011
				c-1.406,0-2.581-0.385-3.524-1.152c-0.908-0.735-1.362-2.073-1.362-4.014C78.218,131.82,78.227,131.576,78.245,131.322z"/>
			<path fill="#FFFFFF" d="M95.066,126.469c2.873,0.116,4.31,1.194,4.31,3.231v6.935l-3.053,0.038l-0.104-0.928
				c-0.629,0.534-1.463,0.801-2.502,0.801c-0.445,0-0.926-0.052-1.441-0.155c-1.546-0.286-2.319-1.179-2.319-2.677
				c0-0.182,0.013-0.377,0.039-0.586c0.175-1.543,1.646-2.313,4.415-2.313c0.533,0,1.118,0.029,1.756,0.088v-1.133
				c0-0.918-0.389-1.377-1.166-1.377h-0.053c-0.061-0.006-0.118-0.01-0.17-0.01c-0.848,0-1.271,0.515-1.271,1.543v0.146
				l-3.118-0.195c0-2.271,1.467-3.407,4.402-3.407H95.066z M96.167,134.184v-1.72c-0.376-0.059-0.717-0.088-1.022-0.088
				c-0.795,0-1.336,0.199-1.625,0.597c-0.175,0.24-0.262,0.466-0.262,0.674c0,0.261,0.14,0.492,0.419,0.692
				c0.218,0.156,0.502,0.234,0.852,0.234C94.974,134.574,95.52,134.444,96.167,134.184z"/>
			<path fill="#FFFFFF" d="M102.612,123.637l2.974-0.146v3.232l2.502-0.05l0.039,1.847l-2.542,0.088v4.442
				c0,1.035,0.59,1.554,1.769,1.554c0.245,0,0.511-0.022,0.799-0.068l-0.118,2.148c-0.419,0.039-0.817,0.059-1.192,0.059
				c-2.76,0-4.166-1.061-4.218-3.184v-4.775l-2.149,0.098l-0.052-2.178l2.201,0.021L102.612,123.637z"/>
			<path fill="#FFFFFF" d="M112.882,124.506c0,0.397-0.188,0.736-0.563,1.017s-0.83,0.42-1.363,0.42c-0.524,0-0.974-0.14-1.349-0.42
				c-0.375-0.279-0.563-0.618-0.563-1.017c0-0.391,0.188-0.726,0.563-1.006c0.375-0.278,0.825-0.42,1.349-0.42
				c0.533,0,0.987,0.142,1.363,0.42C112.695,123.78,112.882,124.115,112.882,124.506z M109.372,136.83
				c-0.062-3.809-0.092-7.1-0.092-9.873l3.301-0.146c-0.105,2.655-0.157,5.297-0.157,7.92c0,0.703,0.004,1.403,0.013,2.1
				L109.372,136.83L109.372,136.83z"/>
			<path fill="#FFFFFF" d="M113.446,133.314l3-0.107v0.127c0,1.003,0.415,1.512,1.245,1.523h0.052c0.804,0,1.205-0.289,1.205-0.869
				v-0.068c-0.035-0.638-0.827-1.151-2.377-1.543c-1.55-0.391-2.482-1.048-2.797-1.973c-0.114-0.325-0.17-0.638-0.17-0.938
				c0-0.547,0.188-1.055,0.563-1.522c0.576-0.716,1.449-1.126,2.62-1.23c0.314-0.024,0.62-0.039,0.917-0.039
				c0.777,0,1.463,0.103,2.057,0.304c0.812,0.279,1.375,0.681,1.69,1.201c0.209,0.357,0.314,0.756,0.314,1.19
				c0,0.209-0.022,0.424-0.065,0.646l-2.804,0.049c0.026-0.162,0.04-0.312,0.04-0.449c0-0.65-0.28-0.999-0.838-1.045
				c-0.062-0.006-0.123-0.01-0.184-0.01c-0.577,0-0.965,0.219-1.166,0.653c-0.07,0.15-0.105,0.287-0.105,0.41
				c0,0.308,0.192,0.57,0.577,0.791c0.542,0.312,1.343,0.63,2.404,0.952c1.062,0.322,1.775,0.871,2.142,1.646
				c0.131,0.293,0.197,0.586,0.197,0.879c0,0.495-0.192,0.992-0.577,1.494c-0.611,0.801-1.559,1.267-2.843,1.396
				c-0.28,0.033-0.555,0.049-0.826,0.049c-0.96,0-1.852-0.186-2.672-0.557C113.996,135.799,113.463,134.812,113.446,133.314z"/>
			<path fill="#FFFFFF" d="M124.817,127.104c-0.018-0.176-0.026-0.354-0.026-0.537c0-0.611,0.083-1.24,0.249-1.885
				c0.201-0.841,0.812-1.511,1.834-2.013c0.76-0.377,1.72-0.565,2.882-0.565c0.384,0,0.795,0.022,1.231,0.067l-0.026,2.14
				c-0.262-0.025-0.507-0.039-0.734-0.039c-0.725,0-1.257,0.134-1.598,0.399c-0.375,0.28-0.563,0.827-0.563,1.642
				c0,0.194,0.013,0.41,0.04,0.645l2.803-0.028v1.981l-2.882,0.137c0.07,2.137,0.104,4.154,0.104,6.056
				c0,0.572-0.004,1.133-0.013,1.68l-3.328,0.107c0.026-2.168,0.07-4.732,0.131-7.695l-2.123,0.078l-0.052-2.101L124.817,127.104z"
				/>
			<path fill="#FFFFFF" d="M137.132,126.469c2.873,0.116,4.31,1.194,4.31,3.231v6.935l-3.053,0.038l-0.104-0.928
				c-0.629,0.534-1.463,0.801-2.502,0.801c-0.445,0-0.926-0.052-1.441-0.155c-1.546-0.286-2.319-1.179-2.319-2.677
				c0-0.182,0.013-0.377,0.04-0.586c0.174-1.543,1.646-2.313,4.415-2.313c0.533,0,1.118,0.029,1.755,0.088v-1.133
				c0-0.918-0.389-1.377-1.166-1.377h-0.052c-0.061-0.006-0.118-0.01-0.17-0.01c-0.847,0-1.271,0.515-1.271,1.543v0.146
				l-3.118-0.195c0-2.271,1.467-3.407,4.402-3.407H137.132z M138.232,134.184v-1.72c-0.375-0.059-0.716-0.088-1.021-0.088
				c-0.795,0-1.336,0.199-1.625,0.597c-0.175,0.24-0.262,0.466-0.262,0.674c0,0.261,0.14,0.492,0.419,0.692
				c0.218,0.156,0.502,0.234,0.852,0.234C137.04,134.574,137.585,134.444,138.232,134.184z"/>
			<path fill="#FFFFFF" d="M147.848,132.758l3.118,0.146c0,2.351-1.454,3.542-4.362,3.574c-0.035,0.007-0.065,0.01-0.092,0.01
				c-2.769,0-4.153-1.565-4.153-4.697v-0.293c0.087-3.358,1.563-5.055,4.428-5.088h0.105c2.638,0,3.957,1.127,3.957,3.379
				c0,0.131-0.005,0.261-0.013,0.392l-2.817,0.155v-0.233c0-1.186-0.45-1.777-1.349-1.777c-0.917,0-1.375,0.961-1.375,2.881v0.322
				c0.052,2.077,0.515,3.115,1.389,3.115h0.079c0.76-0.045,1.14-0.479,1.14-1.299C147.9,133.168,147.883,132.973,147.848,132.758z"
				/>
			<path fill="#FFFFFF" d="M157.412,132.758l3.118,0.146c0,2.351-1.454,3.542-4.363,3.574c-0.035,0.007-0.065,0.01-0.091,0.01
				c-2.769,0-4.153-1.565-4.153-4.697v-0.293c0.087-3.358,1.563-5.055,4.428-5.088h0.105c2.637,0,3.957,1.127,3.957,3.379
				c0,0.131-0.005,0.261-0.013,0.392l-2.817,0.155v-0.233c0-1.186-0.45-1.777-1.349-1.777c-0.917,0-1.375,0.961-1.375,2.881v0.322
				c0.052,2.077,0.515,3.115,1.389,3.115h0.078c0.76-0.045,1.14-0.479,1.14-1.299C157.464,133.168,157.446,132.973,157.412,132.758z
				"/>
			<path fill="#FFFFFF" d="M165.285,124.506c0,0.397-0.188,0.736-0.563,1.017s-0.83,0.42-1.363,0.42c-0.524,0-0.974-0.14-1.349-0.42
				c-0.375-0.279-0.563-0.618-0.563-1.017c0-0.391,0.188-0.726,0.563-1.006c0.375-0.278,0.825-0.42,1.349-0.42
				c0.533,0,0.987,0.142,1.363,0.42C165.097,123.78,165.285,124.115,165.285,124.506z M161.774,136.83
				c-0.062-3.809-0.092-7.1-0.092-9.873l3.301-0.146c-0.105,2.655-0.157,5.297-0.157,7.92c0,0.703,0.004,1.403,0.013,2.1
				L161.774,136.83L161.774,136.83z"/>
			<path fill="#FFFFFF" d="M170.617,126.752c2.969,0,4.454,1.537,4.454,4.609c0,0.124-0.004,0.248-0.013,0.371
				c-0.123,3.327-1.703,5.007-4.743,5.039c-0.035,0.007-0.07,0.01-0.105,0.01c-2.891,0-4.336-1.572-4.336-4.717v-0.273
				C165.961,128.432,167.542,126.752,170.617,126.752z M170.185,128.979c-0.55,0.144-0.926,0.674-1.127,1.592
				c-0.122,0.547-0.183,1.098-0.183,1.65c0,0.37,0.026,0.745,0.079,1.123c0.139,0.938,0.589,1.423,1.349,1.454h0.092
				c0.708,0,1.192-0.348,1.454-1.045c0.218-0.579,0.328-1.266,0.328-2.061c0-0.195-0.004-0.395-0.013-0.596
				c-0.07-1.049-0.279-1.702-0.629-1.963c-0.218-0.156-0.48-0.234-0.786-0.234C170.573,128.9,170.385,128.927,170.185,128.979z
				 M168.914,124.848c1.022-0.904,1.86-1.769,2.516-2.588l2.148,1.27c-0.926,0.678-1.957,1.508-3.092,2.49L168.914,124.848z"/>
			<path fill="#FFFFFF" d="M178.202,126.498l0.131,1.592c0.367-0.846,1.332-1.274,2.895-1.288h0.053
				c1.537,0,2.585,0.448,3.144,1.348c0.384,0.612,0.577,2.045,0.577,4.297c0,1.107-0.048,2.416-0.145,3.926h-3.17
				c0.113-2.012,0.17-3.569,0.17-4.678c0-0.553-0.013-0.996-0.039-1.328c-0.087-0.977-0.507-1.465-1.258-1.465
				s-1.223,0.261-1.415,0.781l0.131,7.08l-3.079,0.02c0-2.994-0.136-6.356-0.406-10.088L178.202,126.498z"/>
		</g>
	</g>
</g>
</svg>
