<?xml version="1.0" encoding="utf-8"?>
<!-- Generator: Adobe Illustrator 16.0.0, SVG Export Plug-In . SVG Version: 6.00 Build 0)  -->
<!DOCTYPE svg PUBLIC "-//W3C//DTD SVG 1.1//EN" "http://www.w3.org/Graphics/SVG/1.1/DTD/svg11.dtd">
<svg version="1.1" id="Capa_1" xmlns="http://www.w3.org/2000/svg" xmlns:xlink="http://www.w3.org/1999/xlink" x="0px" y="0px"
	 width="601.391px" height="161.151px" viewBox="0 0 601.391 161.151" enable-background="new 0 0 601.391 161.151"
	 xml:space="preserve">
<g>
	<g>
		<g>
			<path fill="#3C3C3B" d="M336.789,115.705l1.43-0.125c0.067,0.573,0.225,1.043,0.473,1.41c0.247,0.367,0.631,0.664,1.152,0.891
				c0.521,0.227,1.106,0.34,1.758,0.34c0.578,0,1.088-0.086,1.531-0.258c0.442-0.172,0.772-0.407,0.988-0.707
				c0.216-0.3,0.324-0.626,0.324-0.98c0-0.359-0.104-0.673-0.312-0.941c-0.208-0.269-0.552-0.493-1.031-0.676
				c-0.308-0.12-0.987-0.306-2.039-0.559c-1.052-0.253-1.789-0.491-2.211-0.715c-0.547-0.286-0.955-0.642-1.223-1.066
				c-0.269-0.425-0.402-0.899-0.402-1.426c0-0.578,0.164-1.118,0.492-1.621s0.807-0.884,1.438-1.145
				c0.63-0.261,1.331-0.391,2.102-0.391c0.849,0,1.598,0.137,2.246,0.41s1.147,0.676,1.496,1.207
				c0.349,0.531,0.536,1.133,0.562,1.805l-1.453,0.109c-0.078-0.724-0.343-1.271-0.793-1.641c-0.451-0.37-1.116-0.555-1.996-0.555
				c-0.917,0-1.585,0.168-2.004,0.504c-0.419,0.336-0.629,0.741-0.629,1.215c0,0.411,0.148,0.75,0.445,1.016
				c0.292,0.266,1.053,0.538,2.285,0.816c1.231,0.278,2.077,0.522,2.535,0.73c0.667,0.308,1.159,0.696,1.477,1.168
				c0.317,0.472,0.477,1.015,0.477,1.629c0,0.609-0.175,1.184-0.523,1.723c-0.349,0.539-0.851,0.958-1.504,1.258
				c-0.654,0.3-1.39,0.449-2.207,0.449c-1.037,0-1.905-0.151-2.605-0.453c-0.701-0.302-1.25-0.757-1.648-1.363
				S336.81,116.471,336.789,115.705z"/>
			<path fill="#3C3C3B" d="M353.477,116.713l1.453,0.18c-0.229,0.849-0.654,1.508-1.273,1.977c-0.62,0.469-1.412,0.703-2.375,0.703
				c-1.214,0-2.176-0.374-2.887-1.121s-1.066-1.796-1.066-3.145c0-1.396,0.359-2.479,1.078-3.25s1.651-1.156,2.797-1.156
				c1.109,0,2.016,0.378,2.719,1.133s1.055,1.817,1.055,3.188c0,0.083-0.003,0.208-0.008,0.375h-6.188
				c0.052,0.911,0.31,1.609,0.773,2.094c0.463,0.484,1.042,0.727,1.734,0.727c0.516,0,0.956-0.136,1.32-0.406
				C352.974,117.739,353.263,117.307,353.477,116.713z M348.859,114.439h4.633c-0.062-0.698-0.24-1.222-0.531-1.57
				c-0.448-0.542-1.029-0.812-1.742-0.812c-0.646,0-1.189,0.216-1.629,0.648C349.149,113.138,348.906,113.716,348.859,114.439z"/>
			<path fill="#3C3C3B" d="M356.695,119.385v-8.297h1.266v1.18c0.609-0.911,1.489-1.367,2.641-1.367c0.5,0,0.959,0.09,1.379,0.27
				c0.419,0.18,0.733,0.415,0.941,0.707c0.208,0.292,0.354,0.638,0.438,1.039c0.052,0.261,0.078,0.716,0.078,1.367v5.102h-1.406
				v-5.047c0-0.573-0.055-1.001-0.164-1.285s-0.304-0.511-0.582-0.68c-0.279-0.169-0.605-0.254-0.98-0.254
				c-0.599,0-1.116,0.19-1.551,0.57c-0.435,0.38-0.652,1.102-0.652,2.164v4.531H356.695z"/>
			<path fill="#3C3C3B" d="M368.664,118.127l0.203,1.242c-0.396,0.083-0.75,0.125-1.062,0.125c-0.511,0-0.906-0.081-1.188-0.242
				s-0.479-0.374-0.594-0.637c-0.115-0.263-0.172-0.816-0.172-1.66v-4.773h-1.031v-1.094h1.031v-2.055l1.398-0.844v2.898h1.414
				v1.094h-1.414v4.852c0,0.401,0.024,0.659,0.074,0.773c0.049,0.114,0.13,0.206,0.242,0.273c0.112,0.067,0.272,0.102,0.48,0.102
				C368.203,118.182,368.409,118.163,368.664,118.127z"/>
			<path fill="#3C3C3B" d="M375.719,116.713l1.453,0.18c-0.229,0.849-0.654,1.508-1.273,1.977c-0.62,0.469-1.412,0.703-2.375,0.703
				c-1.214,0-2.176-0.374-2.887-1.121s-1.066-1.796-1.066-3.145c0-1.396,0.359-2.479,1.078-3.25s1.651-1.156,2.797-1.156
				c1.109,0,2.016,0.378,2.719,1.133s1.055,1.817,1.055,3.188c0,0.083-0.003,0.208-0.008,0.375h-6.188
				c0.052,0.911,0.31,1.609,0.773,2.094c0.463,0.484,1.042,0.727,1.734,0.727c0.516,0,0.956-0.136,1.32-0.406
				C375.216,117.739,375.505,117.307,375.719,116.713z M371.102,114.439h4.633c-0.062-0.698-0.24-1.222-0.531-1.57
				c-0.448-0.542-1.029-0.812-1.742-0.812c-0.646,0-1.189,0.216-1.629,0.648C371.392,113.138,371.148,113.716,371.102,114.439z"/>
			<path fill="#3C3C3B" d="M378.938,119.385v-8.297h1.266v1.18c0.609-0.911,1.489-1.367,2.641-1.367c0.5,0,0.959,0.09,1.379,0.27
				c0.419,0.18,0.733,0.415,0.941,0.707c0.208,0.292,0.354,0.638,0.438,1.039c0.052,0.261,0.078,0.716,0.078,1.367v5.102h-1.406
				v-5.047c0-0.573-0.055-1.001-0.164-1.285s-0.304-0.511-0.582-0.68c-0.279-0.169-0.605-0.254-0.98-0.254
				c-0.599,0-1.116,0.19-1.551,0.57c-0.435,0.38-0.652,1.102-0.652,2.164v4.531H378.938z"/>
			<path fill="#3C3C3B" d="M393.25,116.346l1.383,0.18c-0.151,0.953-0.538,1.699-1.16,2.238c-0.623,0.539-1.387,0.809-2.293,0.809
				c-1.136,0-2.048-0.371-2.738-1.113c-0.69-0.742-1.035-1.806-1.035-3.191c0-0.896,0.148-1.68,0.445-2.352s0.749-1.176,1.355-1.512
				c0.606-0.336,1.267-0.504,1.98-0.504c0.901,0,1.638,0.228,2.211,0.684c0.573,0.456,0.94,1.103,1.102,1.941l-1.367,0.211
				c-0.13-0.558-0.361-0.977-0.691-1.258c-0.331-0.281-0.73-0.422-1.199-0.422c-0.708,0-1.284,0.254-1.727,0.762
				c-0.443,0.508-0.664,1.312-0.664,2.41c0,1.114,0.213,1.925,0.641,2.43c0.427,0.505,0.984,0.758,1.672,0.758
				c0.552,0,1.013-0.169,1.383-0.508C392.917,117.569,393.151,117.049,393.25,116.346z"/>
			<path fill="#3C3C3B" d="M395.844,109.549v-1.617h1.406v1.617H395.844z M395.844,119.385v-8.297h1.406v8.297H395.844z"/>
			<path fill="#3C3C3B" d="M404.805,118.361c-0.521,0.442-1.022,0.755-1.504,0.938c-0.482,0.183-0.999,0.273-1.551,0.273
				c-0.912,0-1.612-0.223-2.102-0.668c-0.49-0.445-0.734-1.015-0.734-1.707c0-0.406,0.092-0.777,0.277-1.113
				c0.185-0.336,0.427-0.605,0.727-0.809c0.299-0.203,0.637-0.356,1.012-0.461c0.276-0.073,0.692-0.144,1.25-0.211
				c1.135-0.136,1.971-0.297,2.508-0.484c0.005-0.192,0.008-0.315,0.008-0.367c0-0.573-0.133-0.977-0.398-1.211
				c-0.359-0.317-0.894-0.477-1.602-0.477c-0.662,0-1.15,0.116-1.465,0.348c-0.315,0.231-0.548,0.642-0.699,1.23l-1.375-0.188
				c0.125-0.589,0.331-1.063,0.617-1.426c0.286-0.362,0.7-0.641,1.242-0.836c0.542-0.195,1.169-0.293,1.883-0.293
				c0.708,0,1.284,0.083,1.727,0.25c0.442,0.167,0.768,0.376,0.977,0.629c0.208,0.253,0.354,0.571,0.438,0.957
				c0.047,0.239,0.07,0.672,0.07,1.297v1.875c0,1.308,0.03,2.134,0.09,2.48c0.06,0.347,0.178,0.679,0.355,0.996h-1.469
				C404.94,119.093,404.846,118.752,404.805,118.361z M404.688,115.221c-0.511,0.208-1.276,0.386-2.297,0.531
				c-0.578,0.083-0.987,0.177-1.227,0.281c-0.24,0.104-0.425,0.257-0.555,0.457c-0.13,0.2-0.195,0.423-0.195,0.668
				c0,0.375,0.142,0.688,0.426,0.938c0.284,0.25,0.699,0.375,1.246,0.375c0.542,0,1.023-0.118,1.445-0.355s0.731-0.562,0.93-0.973
				c0.151-0.317,0.227-0.786,0.227-1.406V115.221z"/>
			<path fill="#3C3C3B" d="M421.086,115.369l1.516,0.383c-0.318,1.245-0.89,2.194-1.715,2.848c-0.826,0.653-1.835,0.98-3.027,0.98
				c-1.234,0-2.238-0.251-3.012-0.754s-1.362-1.23-1.766-2.184c-0.404-0.953-0.605-1.977-0.605-3.07
				c0-1.192,0.228-2.233,0.684-3.121c0.456-0.888,1.104-1.562,1.945-2.023c0.841-0.461,1.767-0.691,2.777-0.691
				c1.146,0,2.109,0.292,2.891,0.875s1.325,1.403,1.633,2.461l-1.492,0.352c-0.266-0.833-0.651-1.44-1.156-1.82
				c-0.505-0.38-1.141-0.57-1.906-0.57c-0.88,0-1.616,0.211-2.207,0.633c-0.591,0.422-1.007,0.988-1.246,1.699
				c-0.24,0.711-0.359,1.444-0.359,2.199c0,0.974,0.142,1.824,0.426,2.551c0.284,0.727,0.725,1.27,1.324,1.629
				c0.599,0.359,1.247,0.539,1.945,0.539c0.849,0,1.567-0.245,2.156-0.734C420.479,117.06,420.877,116.333,421.086,115.369z"/>
			<path fill="#3C3C3B" d="M423.766,115.236c0-1.536,0.427-2.675,1.281-3.414c0.713-0.614,1.583-0.922,2.609-0.922
				c1.141,0,2.073,0.374,2.797,1.121c0.724,0.747,1.086,1.78,1.086,3.098c0,1.067-0.16,1.907-0.48,2.52s-0.787,1.087-1.398,1.426
				c-0.612,0.339-1.28,0.508-2.004,0.508c-1.162,0-2.101-0.372-2.816-1.117C424.124,117.71,423.766,116.638,423.766,115.236z
				 M425.211,115.236c0,1.062,0.231,1.858,0.695,2.387c0.463,0.528,1.047,0.793,1.75,0.793c0.698,0,1.278-0.266,1.742-0.797
				c0.463-0.531,0.695-1.341,0.695-2.43c0-1.026-0.233-1.804-0.699-2.332c-0.466-0.528-1.046-0.793-1.738-0.793
				c-0.703,0-1.287,0.263-1.75,0.789C425.442,113.38,425.211,114.174,425.211,115.236z"/>
			<path fill="#3C3C3B" d="M433.172,119.385v-8.297h1.266v1.258c0.323-0.589,0.621-0.977,0.895-1.164s0.574-0.281,0.902-0.281
				c0.474,0,0.956,0.151,1.445,0.453l-0.484,1.305c-0.344-0.203-0.688-0.305-1.031-0.305c-0.308,0-0.583,0.093-0.828,0.277
				c-0.245,0.185-0.419,0.441-0.523,0.77c-0.156,0.5-0.234,1.047-0.234,1.641v4.344H433.172z"/>
			<path fill="#3C3C3B" d="M441.586,118.127l0.203,1.242c-0.396,0.083-0.75,0.125-1.062,0.125c-0.511,0-0.906-0.081-1.188-0.242
				s-0.479-0.374-0.594-0.637c-0.115-0.263-0.172-0.816-0.172-1.66v-4.773h-1.031v-1.094h1.031v-2.055l1.398-0.844v2.898h1.414
				v1.094h-1.414v4.852c0,0.401,0.024,0.659,0.074,0.773c0.049,0.114,0.13,0.206,0.242,0.273c0.112,0.067,0.272,0.102,0.48,0.102
				C441.125,118.182,441.331,118.163,441.586,118.127z"/>
			<path fill="#3C3C3B" d="M448.641,116.713l1.453,0.18c-0.229,0.849-0.654,1.508-1.273,1.977c-0.62,0.469-1.412,0.703-2.375,0.703
				c-1.214,0-2.176-0.374-2.887-1.121s-1.066-1.796-1.066-3.145c0-1.396,0.359-2.479,1.078-3.25s1.651-1.156,2.797-1.156
				c1.109,0,2.016,0.378,2.719,1.133s1.055,1.817,1.055,3.188c0,0.083-0.003,0.208-0.008,0.375h-6.188
				c0.052,0.911,0.31,1.609,0.773,2.094c0.463,0.484,1.042,0.727,1.734,0.727c0.516,0,0.956-0.136,1.32-0.406
				C448.138,117.739,448.427,117.307,448.641,116.713z M444.023,114.439h4.633c-0.062-0.698-0.24-1.222-0.531-1.57
				c-0.448-0.542-1.029-0.812-1.742-0.812c-0.646,0-1.189,0.216-1.629,0.648C444.313,113.138,444.07,113.716,444.023,114.439z"/>
			<path fill="#3C3C3B" d="M456.742,119.385v-11.453h1.516v11.453H456.742z"/>
			<path fill="#3C3C3B" d="M460.93,119.385v-11.453h3.945c0.891,0,1.57,0.055,2.039,0.164c0.656,0.151,1.216,0.425,1.68,0.82
				c0.604,0.511,1.056,1.163,1.355,1.957c0.299,0.794,0.449,1.702,0.449,2.723c0,0.87-0.102,1.641-0.305,2.312
				s-0.464,1.228-0.781,1.668c-0.318,0.44-0.666,0.786-1.043,1.039c-0.378,0.253-0.833,0.444-1.367,0.574
				c-0.534,0.13-1.147,0.195-1.84,0.195H460.93z M462.445,118.033h2.445c0.755,0,1.348-0.07,1.777-0.211s0.772-0.339,1.027-0.594
				c0.359-0.359,0.639-0.843,0.84-1.449c0.2-0.606,0.301-1.343,0.301-2.207c0-1.198-0.197-2.118-0.59-2.762
				c-0.394-0.644-0.871-1.074-1.434-1.293c-0.406-0.156-1.06-0.234-1.961-0.234h-2.406V118.033z"/>
			<path fill="#3C3C3B" d="M472.531,119.385v-11.453h1.516v4.703H480v-4.703h1.516v11.453H480v-5.398h-5.953v5.398H472.531z"/>
			<path fill="#3C3C3B" d="M484.25,112.689v-1.602h1.602v1.602H484.25z M484.25,119.385v-1.602h1.602v1.602H484.25z"/>
			<path fill="#3C3C3B" d="M501.102,115.369l1.516,0.383c-0.318,1.245-0.89,2.194-1.715,2.848c-0.826,0.653-1.835,0.98-3.027,0.98
				c-1.234,0-2.238-0.251-3.012-0.754s-1.362-1.23-1.766-2.184c-0.404-0.953-0.605-1.977-0.605-3.07
				c0-1.192,0.228-2.233,0.684-3.121c0.456-0.888,1.104-1.562,1.945-2.023c0.841-0.461,1.767-0.691,2.777-0.691
				c1.146,0,2.109,0.292,2.891,0.875s1.325,1.403,1.633,2.461l-1.492,0.352c-0.266-0.833-0.651-1.44-1.156-1.82
				c-0.505-0.38-1.141-0.57-1.906-0.57c-0.88,0-1.616,0.211-2.207,0.633c-0.591,0.422-1.007,0.988-1.246,1.699
				c-0.24,0.711-0.359,1.444-0.359,2.199c0,0.974,0.142,1.824,0.426,2.551c0.284,0.727,0.725,1.27,1.324,1.629
				c0.599,0.359,1.247,0.539,1.945,0.539c0.849,0,1.567-0.245,2.156-0.734C500.495,117.06,500.893,116.333,501.102,115.369z"/>
			<path fill="#3C3C3B" d="M509.742,119.385v-1.219c-0.646,0.938-1.523,1.406-2.633,1.406c-0.49,0-0.947-0.094-1.371-0.281
				c-0.425-0.188-0.74-0.423-0.945-0.707c-0.206-0.284-0.351-0.632-0.434-1.043c-0.058-0.276-0.086-0.714-0.086-1.312v-5.141h1.406
				v4.602c0,0.734,0.028,1.229,0.086,1.484c0.088,0.37,0.276,0.66,0.562,0.871c0.286,0.211,0.641,0.316,1.062,0.316
				s0.817-0.108,1.188-0.324c0.37-0.216,0.631-0.511,0.785-0.883c0.153-0.372,0.23-0.913,0.23-1.621v-4.445H511v8.297H509.742z"/>
			<path fill="#3C3C3B" d="M518.883,116.713l1.453,0.18c-0.229,0.849-0.654,1.508-1.273,1.977c-0.62,0.469-1.412,0.703-2.375,0.703
				c-1.214,0-2.176-0.374-2.887-1.121s-1.066-1.796-1.066-3.145c0-1.396,0.359-2.479,1.078-3.25s1.651-1.156,2.797-1.156
				c1.109,0,2.016,0.378,2.719,1.133s1.055,1.817,1.055,3.188c0,0.083-0.003,0.208-0.008,0.375h-6.188
				c0.052,0.911,0.31,1.609,0.773,2.094c0.463,0.484,1.042,0.727,1.734,0.727c0.516,0,0.956-0.136,1.32-0.406
				C518.38,117.739,518.669,117.307,518.883,116.713z M514.266,114.439h4.633c-0.062-0.698-0.24-1.222-0.531-1.57
				c-0.448-0.542-1.029-0.812-1.742-0.812c-0.646,0-1.189,0.216-1.629,0.648C514.556,113.138,514.312,113.716,514.266,114.439z"/>
			<path fill="#3C3C3B" d="M522.102,119.385v-8.297h1.266v1.18c0.609-0.911,1.489-1.367,2.641-1.367c0.5,0,0.959,0.09,1.379,0.27
				c0.419,0.18,0.733,0.415,0.941,0.707c0.208,0.292,0.354,0.638,0.438,1.039c0.052,0.261,0.078,0.716,0.078,1.367v5.102h-1.406
				v-5.047c0-0.573-0.055-1.001-0.164-1.285s-0.304-0.511-0.582-0.68c-0.279-0.169-0.605-0.254-0.98-0.254
				c-0.599,0-1.116,0.19-1.551,0.57c-0.435,0.38-0.652,1.102-0.652,2.164v4.531H522.102z"/>
			<path fill="#3C3C3B" d="M536.414,116.346l1.383,0.18c-0.151,0.953-0.538,1.699-1.16,2.238c-0.623,0.539-1.387,0.809-2.293,0.809
				c-1.136,0-2.048-0.371-2.738-1.113c-0.69-0.742-1.035-1.806-1.035-3.191c0-0.896,0.148-1.68,0.445-2.352s0.749-1.176,1.355-1.512
				c0.606-0.336,1.267-0.504,1.98-0.504c0.901,0,1.638,0.228,2.211,0.684c0.573,0.456,0.94,1.103,1.102,1.941l-1.367,0.211
				c-0.13-0.558-0.361-0.977-0.691-1.258c-0.331-0.281-0.73-0.422-1.199-0.422c-0.708,0-1.284,0.254-1.727,0.762
				c-0.443,0.508-0.664,1.312-0.664,2.41c0,1.114,0.213,1.925,0.641,2.43c0.427,0.505,0.984,0.758,1.672,0.758
				c0.552,0,1.013-0.169,1.383-0.508C536.081,117.569,536.315,117.049,536.414,116.346z"/>
			<path fill="#3C3C3B" d="M544.414,118.361c-0.521,0.442-1.022,0.755-1.504,0.938c-0.482,0.183-0.999,0.273-1.551,0.273
				c-0.912,0-1.612-0.223-2.102-0.668c-0.49-0.445-0.734-1.015-0.734-1.707c0-0.406,0.092-0.777,0.277-1.113
				c0.185-0.336,0.427-0.605,0.727-0.809c0.299-0.203,0.637-0.356,1.012-0.461c0.276-0.073,0.692-0.144,1.25-0.211
				c1.135-0.136,1.971-0.297,2.508-0.484c0.005-0.192,0.008-0.315,0.008-0.367c0-0.573-0.133-0.977-0.398-1.211
				c-0.359-0.317-0.894-0.477-1.602-0.477c-0.662,0-1.15,0.116-1.465,0.348c-0.315,0.231-0.548,0.642-0.699,1.23l-1.375-0.188
				c0.125-0.589,0.331-1.063,0.617-1.426c0.286-0.362,0.7-0.641,1.242-0.836c0.542-0.195,1.169-0.293,1.883-0.293
				c0.708,0,1.284,0.083,1.727,0.25c0.442,0.167,0.768,0.376,0.977,0.629c0.208,0.253,0.354,0.571,0.438,0.957
				c0.047,0.239,0.07,0.672,0.07,1.297v1.875c0,1.308,0.03,2.134,0.09,2.48c0.06,0.347,0.178,0.679,0.355,0.996h-1.469
				C544.549,119.093,544.456,118.752,544.414,118.361z M544.297,115.221c-0.511,0.208-1.276,0.386-2.297,0.531
				c-0.578,0.083-0.987,0.177-1.227,0.281c-0.24,0.104-0.425,0.257-0.555,0.457c-0.13,0.2-0.195,0.423-0.195,0.668
				c0,0.375,0.142,0.688,0.426,0.938c0.284,0.25,0.699,0.375,1.246,0.375c0.542,0,1.023-0.118,1.445-0.355s0.731-0.562,0.93-0.973
				c0.151-0.317,0.227-0.786,0.227-1.406V115.221z"/>
			<path fill="#3C3C3B" d="M557.727,119.385v-1.047c-0.526,0.823-1.3,1.234-2.32,1.234c-0.662,0-1.27-0.183-1.824-0.547
				s-0.984-0.874-1.289-1.527s-0.457-1.405-0.457-2.254c0-0.828,0.138-1.579,0.414-2.254c0.276-0.675,0.69-1.191,1.242-1.551
				c0.552-0.359,1.169-0.539,1.852-0.539c0.5,0,0.945,0.105,1.336,0.316s0.708,0.485,0.953,0.824v-4.109h1.398v11.453H557.727z
				 M553.281,115.244c0,1.062,0.224,1.856,0.672,2.383c0.448,0.526,0.977,0.789,1.586,0.789c0.614,0,1.137-0.251,1.566-0.754
				s0.645-1.27,0.645-2.301c0-1.136-0.219-1.969-0.656-2.5s-0.977-0.797-1.617-0.797c-0.625,0-1.147,0.255-1.566,0.766
				C553.491,113.341,553.281,114.146,553.281,115.244z"/>
			<path fill="#3C3C3B" d="M566.922,116.713l1.453,0.18c-0.229,0.849-0.654,1.508-1.273,1.977c-0.62,0.469-1.412,0.703-2.375,0.703
				c-1.214,0-2.176-0.374-2.887-1.121s-1.066-1.796-1.066-3.145c0-1.396,0.359-2.479,1.078-3.25s1.651-1.156,2.797-1.156
				c1.109,0,2.016,0.378,2.719,1.133s1.055,1.817,1.055,3.188c0,0.083-0.003,0.208-0.008,0.375h-6.188
				c0.052,0.911,0.31,1.609,0.773,2.094c0.463,0.484,1.042,0.727,1.734,0.727c0.516,0,0.956-0.136,1.32-0.406
				C566.419,117.739,566.708,117.307,566.922,116.713z M562.305,114.439h4.633c-0.062-0.698-0.24-1.222-0.531-1.57
				c-0.448-0.542-1.029-0.812-1.742-0.812c-0.646,0-1.189,0.216-1.629,0.648C562.595,113.138,562.352,113.716,562.305,114.439z"/>
			<path fill="#3C3C3B" d="M570.109,119.385v-11.453h1.406v11.453H570.109z"/>
			<path fill="#3C3C3B" d="M578.344,119.385v-11.453h5.078c1.021,0,1.797,0.103,2.328,0.309s0.956,0.569,1.273,1.09
				c0.317,0.521,0.477,1.097,0.477,1.727c0,0.812-0.263,1.497-0.789,2.055c-0.526,0.558-1.339,0.911-2.438,1.062
				c0.401,0.192,0.706,0.383,0.914,0.57c0.442,0.406,0.862,0.914,1.258,1.523l1.992,3.117h-1.906l-1.516-2.383
				c-0.443-0.688-0.808-1.214-1.094-1.578c-0.287-0.364-0.543-0.62-0.77-0.766s-0.457-0.247-0.691-0.305
				c-0.172-0.036-0.453-0.055-0.844-0.055h-1.758v5.086H578.344z M579.859,112.986h3.258c0.692,0,1.234-0.071,1.625-0.215
				s0.688-0.372,0.891-0.688s0.305-0.657,0.305-1.027c0-0.542-0.197-0.987-0.59-1.336c-0.394-0.349-1.015-0.523-1.863-0.523h-3.625
				V112.986z"/>
			<path fill="#3C3C3B" d="M590.117,110.057l1.039-2.188H593l-1.719,2.188H590.117z M590.188,119.385v-8.297h1.406v8.297H590.188z"
				/>
			<path fill="#3C3C3B" d="M593.617,115.236c0-1.536,0.427-2.675,1.281-3.414c0.713-0.614,1.583-0.922,2.609-0.922
				c1.141,0,2.073,0.374,2.797,1.121c0.724,0.747,1.086,1.78,1.086,3.098c0,1.067-0.16,1.907-0.48,2.52s-0.787,1.087-1.398,1.426
				c-0.612,0.339-1.28,0.508-2.004,0.508c-1.162,0-2.101-0.372-2.816-1.117C593.975,117.71,593.617,116.638,593.617,115.236z
				 M595.062,115.236c0,1.062,0.231,1.858,0.695,2.387c0.463,0.528,1.047,0.793,1.75,0.793c0.698,0,1.278-0.266,1.742-0.797
				c0.463-0.531,0.695-1.341,0.695-2.43c0-1.026-0.233-1.804-0.699-2.332c-0.466-0.528-1.046-0.793-1.738-0.793
				c-0.703,0-1.287,0.263-1.75,0.789C595.294,113.38,595.062,114.174,595.062,115.236z"/>
			<path fill="#3C3C3B" d="M345.477,134.569l1.516,0.383c-0.318,1.245-0.89,2.194-1.715,2.848c-0.826,0.653-1.835,0.98-3.027,0.98
				c-1.234,0-2.238-0.251-3.012-0.754s-1.362-1.23-1.766-2.184c-0.404-0.953-0.605-1.977-0.605-3.07
				c0-1.192,0.228-2.233,0.684-3.121c0.456-0.888,1.104-1.562,1.945-2.023c0.841-0.461,1.767-0.691,2.777-0.691
				c1.146,0,2.109,0.292,2.891,0.875s1.325,1.403,1.633,2.461l-1.492,0.352c-0.266-0.833-0.651-1.44-1.156-1.82
				c-0.505-0.38-1.141-0.57-1.906-0.57c-0.88,0-1.616,0.211-2.207,0.633c-0.591,0.422-1.007,0.988-1.246,1.699
				c-0.24,0.711-0.359,1.444-0.359,2.199c0,0.974,0.142,1.824,0.426,2.551c0.284,0.727,0.725,1.27,1.324,1.629
				c0.599,0.359,1.247,0.539,1.945,0.539c0.849,0,1.567-0.245,2.156-0.734C344.87,136.26,345.268,135.533,345.477,134.569z"/>
			<path fill="#3C3C3B" d="M354.094,137.562c-0.521,0.442-1.022,0.755-1.504,0.938c-0.482,0.183-0.999,0.273-1.551,0.273
				c-0.912,0-1.612-0.223-2.102-0.668c-0.49-0.445-0.734-1.015-0.734-1.707c0-0.406,0.092-0.777,0.277-1.113
				c0.185-0.336,0.427-0.605,0.727-0.809c0.299-0.203,0.637-0.356,1.012-0.461c0.276-0.073,0.692-0.144,1.25-0.211
				c1.135-0.136,1.971-0.297,2.508-0.484c0.005-0.192,0.008-0.315,0.008-0.367c0-0.573-0.133-0.977-0.398-1.211
				c-0.359-0.317-0.894-0.477-1.602-0.477c-0.662,0-1.15,0.116-1.465,0.348c-0.315,0.231-0.548,0.642-0.699,1.23l-1.375-0.188
				c0.125-0.589,0.331-1.063,0.617-1.426c0.286-0.362,0.7-0.641,1.242-0.836c0.542-0.195,1.169-0.293,1.883-0.293
				c0.708,0,1.284,0.083,1.727,0.25c0.442,0.167,0.768,0.376,0.977,0.629c0.208,0.253,0.354,0.571,0.438,0.957
				c0.047,0.239,0.07,0.672,0.07,1.297v1.875c0,1.308,0.03,2.134,0.09,2.48c0.06,0.347,0.178,0.679,0.355,0.996h-1.469
				C354.229,138.293,354.135,137.952,354.094,137.562z M353.977,134.421c-0.511,0.208-1.276,0.386-2.297,0.531
				c-0.578,0.083-0.987,0.177-1.227,0.281c-0.24,0.104-0.425,0.257-0.555,0.457c-0.13,0.2-0.195,0.423-0.195,0.668
				c0,0.375,0.142,0.688,0.426,0.938c0.284,0.25,0.699,0.375,1.246,0.375c0.542,0,1.023-0.118,1.445-0.355s0.731-0.562,0.93-0.973
				c0.151-0.317,0.227-0.786,0.227-1.406V134.421z"/>
			<path fill="#3C3C3B" d="M362.992,135.546l1.383,0.18c-0.151,0.953-0.538,1.699-1.16,2.238c-0.623,0.539-1.387,0.809-2.293,0.809
				c-1.136,0-2.048-0.371-2.738-1.113c-0.69-0.742-1.035-1.806-1.035-3.191c0-0.896,0.148-1.68,0.445-2.352s0.749-1.176,1.355-1.512
				c0.606-0.336,1.267-0.504,1.98-0.504c0.901,0,1.638,0.228,2.211,0.684c0.573,0.456,0.94,1.103,1.102,1.941l-1.367,0.211
				c-0.13-0.558-0.361-0.977-0.691-1.258c-0.331-0.281-0.73-0.422-1.199-0.422c-0.708,0-1.284,0.254-1.727,0.762
				c-0.443,0.508-0.664,1.312-0.664,2.41c0,1.114,0.213,1.925,0.641,2.43c0.427,0.505,0.984,0.758,1.672,0.758
				c0.552,0,1.013-0.169,1.383-0.508C362.659,136.77,362.893,136.249,362.992,135.546z"/>
			<path fill="#3C3C3B" d="M370.992,137.562c-0.521,0.442-1.022,0.755-1.504,0.938c-0.482,0.183-0.999,0.273-1.551,0.273
				c-0.912,0-1.612-0.223-2.102-0.668c-0.49-0.445-0.734-1.015-0.734-1.707c0-0.406,0.092-0.777,0.277-1.113
				c0.185-0.336,0.427-0.605,0.727-0.809c0.299-0.203,0.637-0.356,1.012-0.461c0.276-0.073,0.692-0.144,1.25-0.211
				c1.135-0.136,1.971-0.297,2.508-0.484c0.005-0.192,0.008-0.315,0.008-0.367c0-0.573-0.133-0.977-0.398-1.211
				c-0.359-0.317-0.894-0.477-1.602-0.477c-0.662,0-1.15,0.116-1.465,0.348c-0.315,0.231-0.548,0.642-0.699,1.23l-1.375-0.188
				c0.125-0.589,0.331-1.063,0.617-1.426c0.286-0.362,0.7-0.641,1.242-0.836c0.542-0.195,1.169-0.293,1.883-0.293
				c0.708,0,1.284,0.083,1.727,0.25c0.442,0.167,0.768,0.376,0.977,0.629c0.208,0.253,0.354,0.571,0.438,0.957
				c0.047,0.239,0.07,0.672,0.07,1.297v1.875c0,1.308,0.03,2.134,0.09,2.48c0.06,0.347,0.178,0.679,0.355,0.996h-1.469
				C371.127,138.293,371.034,137.952,370.992,137.562z M370.875,134.421c-0.511,0.208-1.276,0.386-2.297,0.531
				c-0.578,0.083-0.987,0.177-1.227,0.281c-0.24,0.104-0.425,0.257-0.555,0.457c-0.13,0.2-0.195,0.423-0.195,0.668
				c0,0.375,0.142,0.688,0.426,0.938c0.284,0.25,0.699,0.375,1.246,0.375c0.542,0,1.023-0.118,1.445-0.355s0.731-0.562,0.93-0.973
				c0.151-0.317,0.227-0.786,0.227-1.406V134.421z"/>
			<path fill="#3C3C3B" d="M374.461,138.585v-8.297h1.266v1.258c0.323-0.589,0.621-0.977,0.895-1.164s0.574-0.281,0.902-0.281
				c0.474,0,0.956,0.151,1.445,0.453l-0.484,1.305c-0.344-0.203-0.688-0.305-1.031-0.305c-0.308,0-0.583,0.093-0.828,0.277
				c-0.245,0.185-0.419,0.441-0.523,0.77c-0.156,0.5-0.234,1.047-0.234,1.641v4.344H374.461z"/>
			<path fill="#3C3C3B" d="M379.812,128.749v-1.617h1.406v1.617H379.812z M379.812,138.585v-8.297h1.406v8.297H379.812z"/>
			<path fill="#3C3C3B" d="M388.773,135.546l1.383,0.18c-0.151,0.953-0.538,1.699-1.16,2.238c-0.623,0.539-1.387,0.809-2.293,0.809
				c-1.136,0-2.048-0.371-2.738-1.113c-0.69-0.742-1.035-1.806-1.035-3.191c0-0.896,0.148-1.68,0.445-2.352s0.749-1.176,1.355-1.512
				c0.606-0.336,1.267-0.504,1.98-0.504c0.901,0,1.638,0.228,2.211,0.684c0.573,0.456,0.94,1.103,1.102,1.941l-1.367,0.211
				c-0.13-0.558-0.361-0.977-0.691-1.258c-0.331-0.281-0.73-0.422-1.199-0.422c-0.708,0-1.284,0.254-1.727,0.762
				c-0.443,0.508-0.664,1.312-0.664,2.41c0,1.114,0.213,1.925,0.641,2.43c0.427,0.505,0.984,0.758,1.672,0.758
				c0.552,0,1.013-0.169,1.383-0.508C388.44,136.77,388.674,136.249,388.773,135.546z"/>
			<path fill="#3C3C3B" d="M396.773,137.562c-0.521,0.442-1.022,0.755-1.504,0.938c-0.482,0.183-0.999,0.273-1.551,0.273
				c-0.912,0-1.612-0.223-2.102-0.668c-0.49-0.445-0.734-1.015-0.734-1.707c0-0.406,0.092-0.777,0.277-1.113
				c0.185-0.336,0.427-0.605,0.727-0.809c0.299-0.203,0.637-0.356,1.012-0.461c0.276-0.073,0.692-0.144,1.25-0.211
				c1.135-0.136,1.971-0.297,2.508-0.484c0.005-0.192,0.008-0.315,0.008-0.367c0-0.573-0.133-0.977-0.398-1.211
				c-0.359-0.317-0.894-0.477-1.602-0.477c-0.662,0-1.15,0.116-1.465,0.348c-0.315,0.231-0.548,0.642-0.699,1.23l-1.375-0.188
				c0.125-0.589,0.331-1.063,0.617-1.426c0.286-0.362,0.7-0.641,1.242-0.836c0.542-0.195,1.169-0.293,1.883-0.293
				c0.708,0,1.284,0.083,1.727,0.25c0.442,0.167,0.768,0.376,0.977,0.629c0.208,0.253,0.354,0.571,0.438,0.957
				c0.047,0.239,0.07,0.672,0.07,1.297v1.875c0,1.308,0.03,2.134,0.09,2.48c0.06,0.347,0.178,0.679,0.355,0.996h-1.469
				C396.909,138.293,396.815,137.952,396.773,137.562z M396.656,134.421c-0.511,0.208-1.276,0.386-2.297,0.531
				c-0.578,0.083-0.987,0.177-1.227,0.281c-0.24,0.104-0.425,0.257-0.555,0.457c-0.13,0.2-0.195,0.423-0.195,0.668
				c0,0.375,0.142,0.688,0.426,0.938c0.284,0.25,0.699,0.375,1.246,0.375c0.542,0,1.023-0.118,1.445-0.355s0.731-0.562,0.93-0.973
				c0.151-0.317,0.227-0.786,0.227-1.406V134.421z"/>
			<path fill="#3C3C3B" d="M336.789,154.104l1.43-0.125c0.067,0.573,0.225,1.043,0.473,1.41c0.247,0.367,0.631,0.664,1.152,0.891
				c0.521,0.227,1.106,0.34,1.758,0.34c0.578,0,1.088-0.086,1.531-0.258c0.442-0.172,0.772-0.407,0.988-0.707
				c0.216-0.3,0.324-0.626,0.324-0.98c0-0.359-0.104-0.673-0.312-0.941c-0.208-0.269-0.552-0.493-1.031-0.676
				c-0.308-0.12-0.987-0.306-2.039-0.559c-1.052-0.253-1.789-0.491-2.211-0.715c-0.547-0.286-0.955-0.642-1.223-1.066
				c-0.269-0.425-0.402-0.899-0.402-1.426c0-0.578,0.164-1.118,0.492-1.621s0.807-0.884,1.438-1.145
				c0.63-0.261,1.331-0.391,2.102-0.391c0.849,0,1.598,0.137,2.246,0.41s1.147,0.676,1.496,1.207
				c0.349,0.531,0.536,1.133,0.562,1.805l-1.453,0.109c-0.078-0.724-0.343-1.271-0.793-1.641c-0.451-0.37-1.116-0.555-1.996-0.555
				c-0.917,0-1.585,0.168-2.004,0.504c-0.419,0.336-0.629,0.741-0.629,1.215c0,0.411,0.148,0.75,0.445,1.016
				c0.292,0.266,1.053,0.538,2.285,0.816c1.231,0.278,2.077,0.522,2.535,0.73c0.667,0.308,1.159,0.696,1.477,1.168
				c0.317,0.472,0.477,1.015,0.477,1.629c0,0.609-0.175,1.184-0.523,1.723c-0.349,0.539-0.851,0.958-1.504,1.258
				c-0.654,0.3-1.39,0.449-2.207,0.449c-1.037,0-1.905-0.151-2.605-0.453c-0.701-0.302-1.25-0.757-1.648-1.363
				S336.81,154.87,336.789,154.104z"/>
			<path fill="#3C3C3B" d="M353.477,155.112l1.453,0.18c-0.229,0.849-0.654,1.508-1.273,1.977c-0.62,0.469-1.412,0.703-2.375,0.703
				c-1.214,0-2.176-0.374-2.887-1.121s-1.066-1.796-1.066-3.145c0-1.396,0.359-2.479,1.078-3.25s1.651-1.156,2.797-1.156
				c1.109,0,2.016,0.378,2.719,1.133s1.055,1.817,1.055,3.188c0,0.083-0.003,0.208-0.008,0.375h-6.188
				c0.052,0.911,0.31,1.609,0.773,2.094c0.463,0.484,1.042,0.727,1.734,0.727c0.516,0,0.956-0.136,1.32-0.406
				C352.974,156.139,353.263,155.706,353.477,155.112z M348.859,152.839h4.633c-0.062-0.698-0.24-1.222-0.531-1.57
				c-0.448-0.542-1.029-0.812-1.742-0.812c-0.646,0-1.189,0.216-1.629,0.648C349.149,151.537,348.906,152.115,348.859,152.839z"/>
			<path fill="#3C3C3B" d="M356.695,157.784v-8.297h1.266v1.18c0.609-0.911,1.489-1.367,2.641-1.367c0.5,0,0.959,0.09,1.379,0.27
				c0.419,0.18,0.733,0.415,0.941,0.707c0.208,0.292,0.354,0.638,0.438,1.039c0.052,0.261,0.078,0.716,0.078,1.367v5.102h-1.406
				v-5.047c0-0.573-0.055-1.001-0.164-1.285s-0.304-0.511-0.582-0.68c-0.279-0.169-0.605-0.254-0.98-0.254
				c-0.599,0-1.116,0.19-1.551,0.57c-0.435,0.38-0.652,1.102-0.652,2.164v4.531H356.695z"/>
			<path fill="#3C3C3B" d="M368.664,156.526l0.203,1.242c-0.396,0.083-0.75,0.125-1.062,0.125c-0.511,0-0.906-0.081-1.188-0.242
				s-0.479-0.374-0.594-0.637c-0.115-0.263-0.172-0.816-0.172-1.66v-4.773h-1.031v-1.094h1.031v-2.055l1.398-0.844v2.898h1.414
				v1.094h-1.414v4.852c0,0.401,0.024,0.659,0.074,0.773c0.049,0.114,0.13,0.206,0.242,0.273c0.112,0.067,0.272,0.102,0.48,0.102
				C368.203,156.581,368.409,156.562,368.664,156.526z"/>
			<path fill="#3C3C3B" d="M375.719,155.112l1.453,0.18c-0.229,0.849-0.654,1.508-1.273,1.977c-0.62,0.469-1.412,0.703-2.375,0.703
				c-1.214,0-2.176-0.374-2.887-1.121s-1.066-1.796-1.066-3.145c0-1.396,0.359-2.479,1.078-3.25s1.651-1.156,2.797-1.156
				c1.109,0,2.016,0.378,2.719,1.133s1.055,1.817,1.055,3.188c0,0.083-0.003,0.208-0.008,0.375h-6.188
				c0.052,0.911,0.31,1.609,0.773,2.094c0.463,0.484,1.042,0.727,1.734,0.727c0.516,0,0.956-0.136,1.32-0.406
				C375.216,156.139,375.505,155.706,375.719,155.112z M371.102,152.839h4.633c-0.062-0.698-0.24-1.222-0.531-1.57
				c-0.448-0.542-1.029-0.812-1.742-0.812c-0.646,0-1.189,0.216-1.629,0.648C371.392,151.537,371.148,152.115,371.102,152.839z"/>
			<path fill="#3C3C3B" d="M378.938,157.784v-8.297h1.266v1.18c0.609-0.911,1.489-1.367,2.641-1.367c0.5,0,0.959,0.09,1.379,0.27
				c0.419,0.18,0.733,0.415,0.941,0.707c0.208,0.292,0.354,0.638,0.438,1.039c0.052,0.261,0.078,0.716,0.078,1.367v5.102h-1.406
				v-5.047c0-0.573-0.055-1.001-0.164-1.285s-0.304-0.511-0.582-0.68c-0.279-0.169-0.605-0.254-0.98-0.254
				c-0.599,0-1.116,0.19-1.551,0.57c-0.435,0.38-0.652,1.102-0.652,2.164v4.531H378.938z"/>
			<path fill="#3C3C3B" d="M393.25,154.745l1.383,0.18c-0.151,0.953-0.538,1.699-1.16,2.238c-0.623,0.539-1.387,0.809-2.293,0.809
				c-1.136,0-2.048-0.371-2.738-1.113c-0.69-0.742-1.035-1.806-1.035-3.191c0-0.896,0.148-1.68,0.445-2.352s0.749-1.176,1.355-1.512
				c0.606-0.336,1.267-0.504,1.98-0.504c0.901,0,1.638,0.228,2.211,0.684c0.573,0.456,0.94,1.103,1.102,1.941l-1.367,0.211
				c-0.13-0.558-0.361-0.977-0.691-1.258c-0.331-0.281-0.73-0.422-1.199-0.422c-0.708,0-1.284,0.254-1.727,0.762
				c-0.443,0.508-0.664,1.312-0.664,2.41c0,1.114,0.213,1.925,0.641,2.43c0.427,0.505,0.984,0.758,1.672,0.758
				c0.552,0,1.013-0.169,1.383-0.508C392.917,155.969,393.151,155.448,393.25,154.745z"/>
			<path fill="#3C3C3B" d="M395.844,147.948v-1.617h1.406v1.617H395.844z M395.844,157.784v-8.297h1.406v8.297H395.844z"/>
			<path fill="#3C3C3B" d="M404.805,156.761c-0.521,0.442-1.022,0.755-1.504,0.938c-0.482,0.183-0.999,0.273-1.551,0.273
				c-0.912,0-1.612-0.223-2.102-0.668c-0.49-0.445-0.734-1.015-0.734-1.707c0-0.406,0.092-0.777,0.277-1.113
				c0.185-0.336,0.427-0.605,0.727-0.809c0.299-0.203,0.637-0.356,1.012-0.461c0.276-0.073,0.692-0.144,1.25-0.211
				c1.135-0.136,1.971-0.297,2.508-0.484c0.005-0.192,0.008-0.315,0.008-0.367c0-0.573-0.133-0.977-0.398-1.211
				c-0.359-0.317-0.894-0.477-1.602-0.477c-0.662,0-1.15,0.116-1.465,0.348c-0.315,0.231-0.548,0.642-0.699,1.23l-1.375-0.188
				c0.125-0.589,0.331-1.063,0.617-1.426c0.286-0.362,0.7-0.641,1.242-0.836c0.542-0.195,1.169-0.293,1.883-0.293
				c0.708,0,1.284,0.083,1.727,0.25c0.442,0.167,0.768,0.376,0.977,0.629c0.208,0.253,0.354,0.571,0.438,0.957
				c0.047,0.239,0.07,0.672,0.07,1.297v1.875c0,1.308,0.03,2.134,0.09,2.48c0.06,0.347,0.178,0.679,0.355,0.996h-1.469
				C404.94,157.492,404.846,157.151,404.805,156.761z M404.688,153.62c-0.511,0.208-1.276,0.386-2.297,0.531
				c-0.578,0.083-0.987,0.177-1.227,0.281c-0.24,0.104-0.425,0.257-0.555,0.457c-0.13,0.2-0.195,0.423-0.195,0.668
				c0,0.375,0.142,0.688,0.426,0.938c0.284,0.25,0.699,0.375,1.246,0.375c0.542,0,1.023-0.118,1.445-0.355s0.731-0.562,0.93-0.973
				c0.151-0.317,0.227-0.786,0.227-1.406V153.62z"/>
			<path fill="#3C3C3B" d="M407.727,155.308l1.391-0.219c0.078,0.558,0.295,0.984,0.652,1.281c0.356,0.297,0.855,0.445,1.496,0.445
				c0.646,0,1.125-0.132,1.438-0.395s0.469-0.571,0.469-0.926c0-0.317-0.138-0.567-0.414-0.75c-0.193-0.125-0.672-0.284-1.438-0.477
				c-1.031-0.261-1.746-0.485-2.145-0.676s-0.701-0.453-0.906-0.789c-0.206-0.336-0.309-0.707-0.309-1.113
				c0-0.37,0.084-0.712,0.254-1.027c0.169-0.315,0.399-0.577,0.691-0.785c0.219-0.161,0.517-0.298,0.895-0.41
				c0.377-0.112,0.782-0.168,1.215-0.168c0.651,0,1.223,0.094,1.715,0.281s0.855,0.441,1.09,0.762s0.396,0.749,0.484,1.285
				l-1.375,0.188c-0.062-0.427-0.244-0.761-0.543-1c-0.3-0.239-0.723-0.359-1.27-0.359c-0.646,0-1.107,0.106-1.383,0.32
				c-0.276,0.214-0.414,0.464-0.414,0.75c0,0.183,0.057,0.347,0.172,0.492c0.114,0.151,0.294,0.276,0.539,0.375
				c0.141,0.052,0.555,0.172,1.242,0.359c0.995,0.266,1.688,0.483,2.082,0.652c0.393,0.169,0.702,0.415,0.926,0.738
				c0.224,0.323,0.336,0.724,0.336,1.203c0,0.469-0.137,0.91-0.41,1.324s-0.668,0.734-1.184,0.961s-1.099,0.34-1.75,0.34
				c-1.078,0-1.9-0.224-2.465-0.672C408.243,156.852,407.883,156.188,407.727,155.308z"/>
			<path fill="#3C3C3B" d="M426.117,157.784v-1.047c-0.526,0.823-1.3,1.234-2.32,1.234c-0.662,0-1.27-0.183-1.824-0.547
				s-0.984-0.874-1.289-1.527s-0.457-1.405-0.457-2.254c0-0.828,0.138-1.579,0.414-2.254c0.276-0.675,0.69-1.191,1.242-1.551
				c0.552-0.359,1.169-0.539,1.852-0.539c0.5,0,0.945,0.105,1.336,0.316s0.708,0.485,0.953,0.824v-4.109h1.398v11.453H426.117z
				 M421.672,153.644c0,1.062,0.224,1.856,0.672,2.383c0.448,0.526,0.977,0.789,1.586,0.789c0.614,0,1.137-0.251,1.566-0.754
				s0.645-1.27,0.645-2.301c0-1.136-0.219-1.969-0.656-2.5s-0.977-0.797-1.617-0.797c-0.625,0-1.147,0.255-1.566,0.766
				C421.881,151.74,421.672,152.545,421.672,153.644z"/>
			<path fill="#3C3C3B" d="M435.312,155.112l1.453,0.18c-0.229,0.849-0.654,1.508-1.273,1.977c-0.62,0.469-1.412,0.703-2.375,0.703
				c-1.214,0-2.176-0.374-2.887-1.121s-1.066-1.796-1.066-3.145c0-1.396,0.359-2.479,1.078-3.25s1.651-1.156,2.797-1.156
				c1.109,0,2.016,0.378,2.719,1.133s1.055,1.817,1.055,3.188c0,0.083-0.003,0.208-0.008,0.375h-6.188
				c0.052,0.911,0.31,1.609,0.773,2.094c0.463,0.484,1.042,0.727,1.734,0.727c0.516,0,0.956-0.136,1.32-0.406
				C434.81,156.139,435.099,155.706,435.312,155.112z M430.695,152.839h4.633c-0.062-0.698-0.24-1.222-0.531-1.57
				c-0.448-0.542-1.029-0.812-1.742-0.812c-0.646,0-1.189,0.216-1.629,0.648C430.985,151.537,430.742,152.115,430.695,152.839z"/>
			<path fill="#3C3C3B" d="M442.383,154.534l1.367-0.188c0.036,0.875,0.2,1.474,0.492,1.797c0.292,0.323,0.695,0.484,1.211,0.484
				c0.38,0,0.708-0.087,0.984-0.262c0.276-0.175,0.466-0.411,0.57-0.711c0.104-0.3,0.156-0.777,0.156-1.434v-7.891h1.516v7.805
				c0,0.958-0.116,1.7-0.348,2.227c-0.232,0.526-0.599,0.927-1.102,1.203c-0.503,0.276-1.093,0.414-1.77,0.414
				c-1.005,0-1.775-0.289-2.309-0.867C442.618,156.534,442.362,155.675,442.383,154.534z"/>
			<path fill="#3C3C3B" d="M456.414,157.784v-1.219c-0.646,0.938-1.523,1.406-2.633,1.406c-0.49,0-0.947-0.094-1.371-0.281
				c-0.425-0.188-0.74-0.423-0.945-0.707c-0.206-0.284-0.351-0.632-0.434-1.043c-0.058-0.276-0.086-0.714-0.086-1.312v-5.141h1.406
				v4.602c0,0.734,0.028,1.229,0.086,1.484c0.088,0.37,0.276,0.66,0.562,0.871c0.286,0.211,0.641,0.316,1.062,0.316
				s0.817-0.108,1.188-0.324c0.37-0.216,0.631-0.511,0.785-0.883c0.153-0.372,0.23-0.913,0.23-1.621v-4.445h1.406v8.297H456.414z"/>
			<path fill="#3C3C3B" d="M459.312,155.308l1.391-0.219c0.078,0.558,0.295,0.984,0.652,1.281c0.356,0.297,0.855,0.445,1.496,0.445
				c0.646,0,1.125-0.132,1.438-0.395s0.469-0.571,0.469-0.926c0-0.317-0.138-0.567-0.414-0.75c-0.193-0.125-0.672-0.284-1.438-0.477
				c-1.031-0.261-1.746-0.485-2.145-0.676s-0.701-0.453-0.906-0.789c-0.206-0.336-0.309-0.707-0.309-1.113
				c0-0.37,0.084-0.712,0.254-1.027c0.169-0.315,0.399-0.577,0.691-0.785c0.219-0.161,0.517-0.298,0.895-0.41
				c0.377-0.112,0.782-0.168,1.215-0.168c0.651,0,1.223,0.094,1.715,0.281s0.855,0.441,1.09,0.762s0.396,0.749,0.484,1.285
				l-1.375,0.188c-0.062-0.427-0.244-0.761-0.543-1c-0.3-0.239-0.723-0.359-1.27-0.359c-0.646,0-1.107,0.106-1.383,0.32
				c-0.276,0.214-0.414,0.464-0.414,0.75c0,0.183,0.057,0.347,0.172,0.492c0.114,0.151,0.294,0.276,0.539,0.375
				c0.141,0.052,0.555,0.172,1.242,0.359c0.995,0.266,1.688,0.483,2.082,0.652c0.393,0.169,0.702,0.415,0.926,0.738
				c0.224,0.323,0.336,0.724,0.336,1.203c0,0.469-0.137,0.91-0.41,1.324s-0.668,0.734-1.184,0.961s-1.099,0.34-1.75,0.34
				c-1.078,0-1.9-0.224-2.465-0.672C459.829,156.852,459.469,156.188,459.312,155.308z"/>
			<path fill="#3C3C3B" d="M470.945,156.526l0.203,1.242c-0.396,0.083-0.75,0.125-1.062,0.125c-0.511,0-0.906-0.081-1.188-0.242
				s-0.479-0.374-0.594-0.637c-0.115-0.263-0.172-0.816-0.172-1.66v-4.773h-1.031v-1.094h1.031v-2.055l1.398-0.844v2.898h1.414
				v1.094h-1.414v4.852c0,0.401,0.024,0.659,0.074,0.773c0.049,0.114,0.13,0.206,0.242,0.273c0.112,0.067,0.272,0.102,0.48,0.102
				C470.484,156.581,470.69,156.562,470.945,156.526z"/>
			<path fill="#3C3C3B" d="M472.328,147.948v-1.617h1.406v1.617H472.328z M472.328,157.784v-8.297h1.406v8.297H472.328z"/>
			<path fill="#3C3C3B" d="M481.289,154.745l1.383,0.18c-0.151,0.953-0.538,1.699-1.16,2.238c-0.623,0.539-1.387,0.809-2.293,0.809
				c-1.136,0-2.048-0.371-2.738-1.113c-0.69-0.742-1.035-1.806-1.035-3.191c0-0.896,0.148-1.68,0.445-2.352s0.749-1.176,1.355-1.512
				c0.606-0.336,1.267-0.504,1.98-0.504c0.901,0,1.638,0.228,2.211,0.684c0.573,0.456,0.94,1.103,1.102,1.941l-1.367,0.211
				c-0.13-0.558-0.361-0.977-0.691-1.258c-0.331-0.281-0.73-0.422-1.199-0.422c-0.708,0-1.284,0.254-1.727,0.762
				c-0.443,0.508-0.664,1.312-0.664,2.41c0,1.114,0.213,1.925,0.641,2.43c0.427,0.505,0.984,0.758,1.672,0.758
				c0.552,0,1.013-0.169,1.383-0.508C480.956,155.969,481.19,155.448,481.289,154.745z"/>
			<path fill="#3C3C3B" d="M483.883,147.948v-1.617h1.406v1.617H483.883z M483.883,157.784v-8.297h1.406v8.297H483.883z"/>
			<path fill="#3C3C3B" d="M492.844,156.761c-0.521,0.442-1.022,0.755-1.504,0.938c-0.482,0.183-0.999,0.273-1.551,0.273
				c-0.912,0-1.612-0.223-2.102-0.668c-0.49-0.445-0.734-1.015-0.734-1.707c0-0.406,0.092-0.777,0.277-1.113
				c0.185-0.336,0.427-0.605,0.727-0.809c0.299-0.203,0.637-0.356,1.012-0.461c0.276-0.073,0.692-0.144,1.25-0.211
				c1.135-0.136,1.971-0.297,2.508-0.484c0.005-0.192,0.008-0.315,0.008-0.367c0-0.573-0.133-0.977-0.398-1.211
				c-0.359-0.317-0.894-0.477-1.602-0.477c-0.662,0-1.15,0.116-1.465,0.348c-0.315,0.231-0.548,0.642-0.699,1.23l-1.375-0.188
				c0.125-0.589,0.331-1.063,0.617-1.426c0.286-0.362,0.7-0.641,1.242-0.836c0.542-0.195,1.169-0.293,1.883-0.293
				c0.708,0,1.284,0.083,1.727,0.25c0.442,0.167,0.768,0.376,0.977,0.629c0.208,0.253,0.354,0.571,0.438,0.957
				c0.047,0.239,0.07,0.672,0.07,1.297v1.875c0,1.308,0.03,2.134,0.09,2.48c0.06,0.347,0.178,0.679,0.355,0.996h-1.469
				C492.979,157.492,492.885,157.151,492.844,156.761z M492.727,153.62c-0.511,0.208-1.276,0.386-2.297,0.531
				c-0.578,0.083-0.987,0.177-1.227,0.281c-0.24,0.104-0.425,0.257-0.555,0.457c-0.13,0.2-0.195,0.423-0.195,0.668
				c0,0.375,0.142,0.688,0.426,0.938c0.284,0.25,0.699,0.375,1.246,0.375c0.542,0,1.023-0.118,1.445-0.355s0.731-0.562,0.93-0.973
				c0.151-0.317,0.227-0.786,0.227-1.406V153.62z"/>
			<path fill="#3C3C3B" d="M500.711,160.979l-0.156-1.32c0.307,0.083,0.575,0.125,0.805,0.125c0.312,0,0.562-0.052,0.75-0.156
				s0.341-0.25,0.461-0.438c0.088-0.141,0.231-0.489,0.43-1.047c0.026-0.078,0.067-0.192,0.125-0.344l-3.148-8.312h1.516
				l1.727,4.805c0.224,0.609,0.424,1.25,0.602,1.922c0.161-0.646,0.354-1.276,0.578-1.891l1.773-4.836h1.406l-3.156,8.438
				c-0.339,0.911-0.602,1.539-0.789,1.883c-0.25,0.464-0.537,0.804-0.859,1.02c-0.323,0.216-0.708,0.324-1.156,0.324
				C501.346,161.151,501.044,161.094,500.711,160.979z"/>
			<path fill="#3C3C3B" d="M513.398,157.784v-11.453h4.32c0.76,0,1.341,0.036,1.742,0.109c0.562,0.094,1.034,0.272,1.414,0.535
				c0.38,0.263,0.686,0.632,0.918,1.105c0.231,0.474,0.348,0.995,0.348,1.562c0,0.974-0.31,1.798-0.93,2.473
				c-0.62,0.675-1.74,1.012-3.359,1.012h-2.938v4.656H513.398z M514.914,151.776h2.961c0.979,0,1.674-0.183,2.086-0.547
				c0.411-0.364,0.617-0.878,0.617-1.539c0-0.479-0.121-0.89-0.363-1.23s-0.562-0.566-0.957-0.676
				c-0.255-0.067-0.727-0.102-1.414-0.102h-2.93V151.776z"/>
			<path fill="#3C3C3B" d="M529.305,156.761c-0.521,0.442-1.022,0.755-1.504,0.938c-0.482,0.183-0.999,0.273-1.551,0.273
				c-0.912,0-1.612-0.223-2.102-0.668c-0.49-0.445-0.734-1.015-0.734-1.707c0-0.406,0.092-0.777,0.277-1.113
				c0.185-0.336,0.427-0.605,0.727-0.809c0.299-0.203,0.637-0.356,1.012-0.461c0.276-0.073,0.692-0.144,1.25-0.211
				c1.135-0.136,1.971-0.297,2.508-0.484c0.005-0.192,0.008-0.315,0.008-0.367c0-0.573-0.133-0.977-0.398-1.211
				c-0.359-0.317-0.894-0.477-1.602-0.477c-0.662,0-1.15,0.116-1.465,0.348c-0.315,0.231-0.548,0.642-0.699,1.23l-1.375-0.188
				c0.125-0.589,0.331-1.063,0.617-1.426c0.286-0.362,0.7-0.641,1.242-0.836c0.542-0.195,1.169-0.293,1.883-0.293
				c0.708,0,1.284,0.083,1.727,0.25c0.442,0.167,0.768,0.376,0.977,0.629c0.208,0.253,0.354,0.571,0.438,0.957
				c0.047,0.239,0.07,0.672,0.07,1.297v1.875c0,1.308,0.03,2.134,0.09,2.48c0.06,0.347,0.178,0.679,0.355,0.996h-1.469
				C529.44,157.492,529.346,157.151,529.305,156.761z M529.188,153.62c-0.511,0.208-1.276,0.386-2.297,0.531
				c-0.578,0.083-0.987,0.177-1.227,0.281c-0.24,0.104-0.425,0.257-0.555,0.457c-0.13,0.2-0.195,0.423-0.195,0.668
				c0,0.375,0.142,0.688,0.426,0.938c0.284,0.25,0.699,0.375,1.246,0.375c0.542,0,1.023-0.118,1.445-0.355s0.731-0.562,0.93-0.973
				c0.151-0.317,0.227-0.786,0.227-1.406V153.62z"/>
			<path fill="#3C3C3B" d="M532.047,157.784v-1.141l5.281-6.062c-0.599,0.031-1.128,0.047-1.586,0.047h-3.383v-1.141h6.781v0.93
				l-4.492,5.266l-0.867,0.961c0.63-0.047,1.221-0.07,1.773-0.07h3.836v1.211H532.047z"/>
			<path fill="#3C3C3B" d="M541.18,151.089v-1.602h1.602v1.602H541.18z M541.18,157.784v-1.602h1.602v1.602H541.18z"/>
			<path fill="#3C3C3B" d="M547.719,157.784l4.398-11.453h1.633l4.688,11.453h-1.727l-1.336-3.469h-4.789l-1.258,3.469H547.719z
				 M551.023,153.081h3.883l-1.195-3.172c-0.365-0.964-0.636-1.755-0.812-2.375c-0.146,0.734-0.352,1.464-0.617,2.188
				L551.023,153.081z"/>
			<path fill="#3C3C3B" d="M559.438,157.784v-11.453h1.406v11.453H559.438z"/>
			<path fill="#3C3C3B" d="M568.703,155.112l1.453,0.18c-0.229,0.849-0.654,1.508-1.273,1.977c-0.62,0.469-1.412,0.703-2.375,0.703
				c-1.214,0-2.176-0.374-2.887-1.121s-1.066-1.796-1.066-3.145c0-1.396,0.359-2.479,1.078-3.25s1.651-1.156,2.797-1.156
				c1.109,0,2.016,0.378,2.719,1.133s1.055,1.817,1.055,3.188c0,0.083-0.003,0.208-0.008,0.375h-6.188
				c0.052,0.911,0.31,1.609,0.773,2.094c0.463,0.484,1.042,0.727,1.734,0.727c0.516,0,0.956-0.136,1.32-0.406
				C568.2,156.139,568.489,155.706,568.703,155.112z M564.086,152.839h4.633c-0.062-0.698-0.24-1.222-0.531-1.57
				c-0.448-0.542-1.029-0.812-1.742-0.812c-0.646,0-1.189,0.216-1.629,0.648C564.376,151.537,564.133,152.115,564.086,152.839z"/>
			<path fill="#3C3C3B" d="M571.922,157.784v-8.297h1.258v1.164c0.26-0.406,0.606-0.733,1.039-0.98
				c0.432-0.247,0.924-0.371,1.477-0.371c0.614,0,1.118,0.128,1.512,0.383c0.393,0.255,0.67,0.612,0.832,1.07
				c0.656-0.969,1.51-1.453,2.562-1.453c0.823,0,1.456,0.228,1.898,0.684c0.442,0.456,0.664,1.157,0.664,2.105v5.695h-1.398v-5.227
				c0-0.562-0.046-0.968-0.137-1.215c-0.091-0.247-0.257-0.446-0.496-0.598c-0.24-0.151-0.521-0.227-0.844-0.227
				c-0.583,0-1.068,0.194-1.453,0.582c-0.386,0.388-0.578,1.009-0.578,1.863v4.82h-1.406v-5.391c0-0.625-0.115-1.094-0.344-1.406
				c-0.229-0.312-0.604-0.469-1.125-0.469c-0.396,0-0.762,0.104-1.098,0.312s-0.58,0.513-0.73,0.914
				c-0.151,0.401-0.227,0.979-0.227,1.734v4.305H571.922z"/>
			<path fill="#3C3C3B" d="M590.664,156.761c-0.521,0.442-1.022,0.755-1.504,0.938c-0.482,0.183-0.999,0.273-1.551,0.273
				c-0.912,0-1.612-0.223-2.102-0.668c-0.49-0.445-0.734-1.015-0.734-1.707c0-0.406,0.092-0.777,0.277-1.113
				c0.185-0.336,0.427-0.605,0.727-0.809c0.299-0.203,0.637-0.356,1.012-0.461c0.276-0.073,0.692-0.144,1.25-0.211
				c1.135-0.136,1.971-0.297,2.508-0.484c0.005-0.192,0.008-0.315,0.008-0.367c0-0.573-0.133-0.977-0.398-1.211
				c-0.359-0.317-0.894-0.477-1.602-0.477c-0.662,0-1.15,0.116-1.465,0.348c-0.315,0.231-0.548,0.642-0.699,1.23l-1.375-0.188
				c0.125-0.589,0.331-1.063,0.617-1.426c0.286-0.362,0.7-0.641,1.242-0.836c0.542-0.195,1.169-0.293,1.883-0.293
				c0.708,0,1.284,0.083,1.727,0.25c0.442,0.167,0.768,0.376,0.977,0.629c0.208,0.253,0.354,0.571,0.438,0.957
				c0.047,0.239,0.07,0.672,0.07,1.297v1.875c0,1.308,0.03,2.134,0.09,2.48c0.06,0.347,0.178,0.679,0.355,0.996h-1.469
				C590.799,157.492,590.706,157.151,590.664,156.761z M590.547,153.62c-0.511,0.208-1.276,0.386-2.297,0.531
				c-0.578,0.083-0.987,0.177-1.227,0.281c-0.24,0.104-0.425,0.257-0.555,0.457c-0.13,0.2-0.195,0.423-0.195,0.668
				c0,0.375,0.142,0.688,0.426,0.938c0.284,0.25,0.699,0.375,1.246,0.375c0.542,0,1.023-0.118,1.445-0.355s0.731-0.562,0.93-0.973
				c0.151-0.317,0.227-0.786,0.227-1.406V153.62z M587.812,148.456l1.039-2.188h1.844l-1.719,2.188H587.812z"/>
			<path fill="#3C3C3B" d="M594.148,157.784v-8.297h1.266v1.18c0.609-0.911,1.489-1.367,2.641-1.367c0.5,0,0.959,0.09,1.379,0.27
				c0.419,0.18,0.733,0.415,0.941,0.707c0.208,0.292,0.354,0.638,0.438,1.039c0.052,0.261,0.078,0.716,0.078,1.367v5.102h-1.406
				v-5.047c0-0.573-0.055-1.001-0.164-1.285s-0.304-0.511-0.582-0.68c-0.279-0.169-0.605-0.254-0.98-0.254
				c-0.599,0-1.116,0.19-1.551,0.57c-0.435,0.38-0.652,1.102-0.652,2.164v4.531H594.148z"/>
		</g>
	</g>
	<path fill="#F39200" d="M12.567,100.408l0.283,0.055l1.894,0.031c0.064,0,0.122,0.037,0.15,0.096
		c0.026,0.059,0.019,0.129-0.021,0.178l-0.341,0.424l0.126,0.279c0.011,0.021,0.016,0.047,0.016,0.07v0.551l0.051,0.18l0.267,0.324
		l0.154,0.102l0.068,0.016l0.314-0.201c0.013-0.006,0.024-0.012,0.037-0.018l0.506-0.17c0.018-0.004,0.036-0.008,0.054-0.008h0.236
		l0.23,0.037c0.025,0.004,0.047,0.014,0.069,0.027l0.413,0.287l0.24,0.061c0.031,0.008,0.059,0.023,0.081,0.043l0.979,1.016
		l0.302,0.352h0.32l0.496,0.07l0.185-0.002l0.159-0.053l0.125-0.074l0.182-0.244c0.013-0.016,0.026-0.027,0.042-0.039l0.102-0.068
		c0.028-0.018,0.06-0.027,0.094-0.027h0.169l0.322,0.035h0.219c0.021,0,0.044,0.002,0.065,0.012l0.236,0.104
		c0.02,0.008,0.038,0.018,0.054,0.035l0.271,0.27c0.007,0.008,0.015,0.018,0.021,0.029l0.919,1.41l0.488,0.229l0.664-0.064
		c0.018,0,0.036,0,0.053,0.006l0.305,0.066c0.046,0.01,0.085,0.041,0.109,0.082l0.111,0.197l0.196,0.109l0.274,0.088l0.696,0.299
		l0.344,0.029l0.235-0.078l0.715-0.684l0.421-0.316l0.319-0.322c0.015-0.016,0.033-0.029,0.053-0.037l0.236-0.102
		c0.015-0.006,0.03-0.01,0.045-0.01l0.271-0.035c0.022-0.004,0.043,0,0.064,0.004l1.093,0.301h0.201l0.057-0.035l0.024-0.221
		c0.003-0.016,0.007-0.033,0.013-0.049l0.102-0.236c0.004-0.01,0.011-0.021,0.018-0.031l0.507-0.709l0.589-0.627
		c0.013-0.014,0.028-0.025,0.047-0.033l0.54-0.271l0.528-0.168l0.546-0.516l0.093-0.299l-0.248-0.248l-0.924-0.496
		c-0.044-0.023-0.077-0.068-0.085-0.117l-0.102-0.574c-0.004-0.02-0.004-0.037-0.001-0.055l0.163-1.084L31.4,99.5l-0.496-0.432
		c-0.012-0.012-0.021-0.021-0.029-0.035l-0.203-0.303l-0.411-0.719c-0.008-0.018-0.016-0.035-0.02-0.049l-0.032-0.172
		c-0.016-0.074,0.021-0.148,0.09-0.184l0.135-0.066c0.037-0.018,0.077-0.023,0.115-0.014l0.25,0.062l0,0h0.129l0.385-0.096
		l0.605-0.191l0.403-0.287l0.279-0.963l-0.029-0.379l-0.157-0.342c-0.009-0.023-0.015-0.049-0.015-0.072v-0.27
		c0-0.016,0.003-0.031,0.007-0.047l0.337-1.18c0.004-0.014,0.01-0.025,0.015-0.035l0.202-0.371c0.01-0.018,0.021-0.033,0.037-0.047
		l1.215-1.08l0.621-0.449l0.652-0.689l0.247-0.389l-0.05-0.246l-0.121-0.213c-0.015-0.025-0.021-0.051-0.021-0.082v-0.27
		c0-0.023,0.005-0.049,0.014-0.07l0.135-0.301l0.176-0.32l0.188-0.229l1.877-1.605l0.872-1.039l0.631-1.793
		c0.005-0.014,0.012-0.027,0.02-0.037l0.202-0.305l0.393-0.396l0.257-0.186l0.607-0.582l0.03-0.994l-0.312-0.533
		c-0.018-0.025-0.025-0.059-0.024-0.094l0.033-0.646L40.414,80l-1.846-3.053c-0.013-0.023-0.021-0.049-0.023-0.076l-0.067-0.979
		c-0.002-0.021,0.001-0.045,0.007-0.062l0.406-1.285c0.009-0.029,0.026-0.057,0.052-0.076l0.438-0.373l1.141-0.686l0.255-1.178
		l0.03-0.582c0.003-0.039,0.019-0.076,0.046-0.105l0.734-0.795l-0.767-0.797l-0.146-0.18l-0.253-0.465
		c-0.016-0.029-0.022-0.062-0.02-0.096l0.034-0.371l0.267-0.975l-0.061-0.51l-0.152-0.275l-0.64-1.076
		c-0.006-0.01-0.011-0.021-0.015-0.033l-0.168-0.506l-0.107-0.635c-0.003-0.016-0.004-0.031-0.002-0.047l0.067-0.541
		c0.002-0.014,0.005-0.027,0.01-0.039l0.593-1.547l-0.118-0.883l-0.459-0.244h-0.566c-0.022,0-0.044-0.006-0.064-0.014l-0.574-0.236
		c-0.026-0.01-0.051-0.029-0.068-0.053l-0.641-0.809c-0.012-0.014-0.021-0.029-0.025-0.045l-0.541-1.418
		c-0.005-0.014-0.008-0.027-0.011-0.041l-0.162-1.379l-0.201-0.312l-0.344-0.258l-0.765-0.098l-0.824,0.002l-0.857,0.102
		l-0.726,0.166l-1.102,0.104l-1.285,0.102l-0.989,0.23l-1.821,0.074l-0.601-0.068l-0.633-0.176
		c-0.021-0.006-0.041-0.016-0.058-0.027l-0.305-0.238c-0.012-0.008-0.022-0.02-0.03-0.029l-0.203-0.271
		c-0.017-0.023-0.028-0.049-0.032-0.078l-0.063-0.439l-0.209-0.361l-0.629-0.66c-0.019-0.021-0.034-0.047-0.041-0.076l-0.032-0.135
		l-0.091-0.443l-0.021-0.016l-0.344-0.094c-0.029-0.006-0.056-0.021-0.076-0.043l-0.135-0.135c-0.021-0.021-0.035-0.047-0.044-0.074
		l-0.101-0.373c-0.006-0.023-0.009-0.045-0.005-0.07l0.068-0.438l0.143-0.434c0.008-0.025,0.021-0.047,0.039-0.066l0.029-0.027
		l-0.079-0.037c-0.044-0.02-0.079-0.059-0.092-0.104c-0.015-0.049-0.008-0.1,0.019-0.141l0.203-0.32l-0.021-0.158l-0.169-0.199
		c-0.011-0.012-0.019-0.025-0.025-0.039l-0.169-0.371c-0.02-0.043-0.02-0.094-0.001-0.139c0.02-0.043,0.056-0.078,0.102-0.094
		l0.241-0.08L24.59,51.16c-0.055-0.016-0.098-0.057-0.116-0.109l-0.067-0.203c-0.013-0.039-0.012-0.084,0.006-0.121l0.135-0.305
		c0.007-0.016,0.017-0.031,0.028-0.043l0.181-0.207l-0.01-0.049l-0.44-0.551l-0.191,0.064c-0.062,0.021-0.129,0.006-0.174-0.039
		l-0.202-0.203c-0.012-0.012-0.021-0.023-0.028-0.039l-0.154-0.277l-0.214-0.182c-0.037-0.031-0.059-0.078-0.059-0.129v-0.381
		L23.2,48.107l-0.152-0.178l-0.229-0.092l-0.203,0.102c-0.084,0.041-0.184,0.008-0.227-0.076l-0.136-0.27
		c-0.016-0.029-0.021-0.064-0.016-0.098l0.067-0.473c0.003-0.023,0.011-0.047,0.023-0.064l0.201-0.338
		c0.031-0.051,0.086-0.082,0.146-0.082h0.135c0.037,0,0.072,0.014,0.101,0.035l0.04,0.027l0.014-0.07l-0.446-0.062l-0.234-0.072
		c-0.039-0.014-0.072-0.041-0.093-0.076l-0.135-0.236c-0.015-0.025-0.022-0.057-0.022-0.084v-0.135l0,0
		c-0.003,0.002-0.005,0.006-0.008,0.01c-0.038,0.043-0.095,0.061-0.148,0.057l-0.271-0.035c-0.028-0.004-0.056-0.016-0.079-0.031
		l-0.136-0.102c-0.024-0.02-0.043-0.043-0.056-0.074l-0.067-0.168c-0.008-0.02-0.012-0.039-0.012-0.062v-0.203l-0.022-0.055
		l-0.078-0.016l-0.387-0.031c-0.063-0.006-0.118-0.045-0.142-0.104c-0.024-0.059-0.013-0.125,0.027-0.174l0.421-0.516l-0.033-0.115
		l-0.288-0.201c-0.034-0.023-0.057-0.059-0.067-0.098l-0.066-0.271c-0.005-0.012-0.006-0.025-0.006-0.041V42.82l-0.06-0.178
		c-0.014-0.041-0.011-0.088,0.011-0.129c0.019-0.039,0.055-0.07,0.096-0.084l1.014-0.338c0.012-0.006,0.023-0.006,0.035-0.008
		l0.266-0.031l0.677-0.418c0.031-0.018,0.068-0.027,0.104-0.023l1.032,0.098l0.124-0.062l0.078-0.104l0.284-0.289l0.17-0.227
		l0.083-0.275l-0.099-0.811l-0.096-0.346L24.235,39.4l-0.231-0.145c-0.011-0.008-0.021-0.016-0.029-0.025l-0.067-0.066
		c-0.016-0.016-0.027-0.033-0.036-0.055l-0.203-0.471c-0.015-0.037-0.018-0.08-0.006-0.117l0.101-0.336
		c0.013-0.041,0.04-0.076,0.075-0.096l0.337-0.203l0.466-0.182c0.012-0.004,0.023-0.006,0.036-0.01l0.675-0.102l1.461-0.135
		l0.488-0.002c0.015,0,0.028,0.002,0.042,0.006l1.857,0.473l0.417,0.139l0.299,0.162l0.399,0.025l0.772-1.328l0.064-0.414
		l-0.069-2.51l-0.457-1.373l-0.278-0.4l-0.962-0.83l-0.239-0.178l-0.277-0.094l-0.745-0.094c-0.023-0.004-0.046-0.012-0.067-0.023
		l-0.607-0.371l-0.46-0.387l-1.846-2.285L22.8,25.43l-2.349-1.678L17.53,21.07l-0.249-0.281c-0.01-0.012-0.018-0.023-0.023-0.037
		l-0.169-0.338c-0.036-0.07-0.017-0.156,0.046-0.207l0.168-0.135c0.006-0.002,0.012-0.008,0.019-0.01
		c-0.069-0.025-0.114-0.09-0.114-0.162v-0.945c0-0.051,0.021-0.098,0.06-0.127c0.038-0.033,0.087-0.049,0.136-0.039l0.542,0.09
		l0.451-0.301l0.446-0.451l0.345-0.246l0.26-0.287l0.43-2.283l0.145-0.369c0.005-0.012,0.012-0.021,0.02-0.035l0.168-0.236
		c0.015-0.018,0.031-0.035,0.05-0.045l0.373-0.229l0.055-0.363c0.004-0.025,0.014-0.051,0.029-0.07l0.152-0.215l0.118-0.414
		l-0.166-1.857l-0.098-0.418l-0.158-0.34L20.29,9.602h-0.585c-0.013,0-0.025,0-0.036-0.002l-0.305-0.068
		c-0.023-0.006-0.044-0.016-0.063-0.029l-0.507-0.371c-0.018-0.014-0.033-0.029-0.045-0.049l-1.823-3.039l-0.218-0.246l-0.295-0.232
		l-1.125-0.43c-0.012-0.006-0.022-0.01-0.034-0.02l-1.485-1.012c-0.031-0.02-0.054-0.051-0.065-0.088l-0.169-0.504l-0.207-0.893
		l-0.161-0.418l-0.19-0.312l-0.182-0.24l-0.292-0.26c-0.013-0.012-0.023-0.021-0.031-0.037L12.2,0.914
		c-0.009-0.016-0.016-0.033-0.021-0.051l-0.186-0.771L11.825,0l-0.026,0.039L11.77,0.398C11.766,0.449,11.74,0.492,11.7,0.521
		l-0.237,0.17c-0.023,0.018-0.053,0.027-0.083,0.029l-0.371,0.037l-0.317,0.086l-0.29,0.186l-0.007,0.035l0.104,0.182
		c0.015,0.025,0.021,0.055,0.021,0.084v0.406c0,0.023-0.005,0.049-0.017,0.07l-0.27,0.574c-0.006,0.016-0.017,0.031-0.029,0.045
		L9.354,3.34L9.171,3.953v0.426l0.076,0.053l0.649-0.061c0.025-0.004,0.051,0,0.074,0.008l0.37,0.135
		c0.021,0.008,0.038,0.018,0.054,0.031l0.236,0.203c0.014,0.012,0.027,0.025,0.037,0.043l0.37,0.641l0.347,0.795
		c0.007,0.016,0.012,0.031,0.014,0.049l0.168,1.588l0.191,0.758l0.224,0.338l0.199,0.072l0.283,0.031
		c0.012,0.004,0.023,0.004,0.034,0.008l0.304,0.102c0.035,0.012,0.063,0.033,0.085,0.062l0.168,0.236l0.49,1.076l0.795,1.154
		l0.686,1.301c0.006,0.01,0.012,0.023,0.014,0.035l0.473,1.789l0.037,0.537l0.142,0.285l0.183,0.184l0.216,0.148l0.257,0.256
		c0.015,0.014,0.026,0.031,0.034,0.049l0.169,0.371c0.033,0.072,0.012,0.158-0.052,0.205l-0.135,0.102
		c-0.029,0.021-0.064,0.033-0.102,0.033h-0.844l-0.643,0.133l-0.726,0.23l-0.655,0.348l-0.435,0.465l-0.562,1.258
		c-0.005,0.012-0.013,0.023-0.02,0.033l-0.654,0.85l-0.044,0.18l0.267,0.594l0.417,0.418c0.016,0.014,0.028,0.033,0.036,0.053
		l0.169,0.404c0.027,0.068,0.01,0.145-0.042,0.191l-0.677,0.609L8.668,24.76l-1.033,1.033l-0.586,0.482
		c-0.026,0.025-0.061,0.035-0.096,0.039l-0.506,0.033c-0.049,0.002-0.097-0.014-0.131-0.047L6.08,26.064
		c-0.021-0.021-0.037-0.047-0.045-0.076l-0.298-1.129l-0.158-0.287l-0.563-0.809l-0.208-0.053c-0.053-0.012-0.097-0.051-0.116-0.102
		l-0.067-0.168c-0.016-0.043-0.016-0.088,0.002-0.131l0.062-0.146l-0.133-0.176l-1.114-0.951l-0.136-0.059l-0.397,0.225L2.79,22.91
		l0.1,0.957l0.196,0.68l0.496,0.984c0.008,0.016,0.014,0.035,0.016,0.055l0.068,0.504c0.003,0.025,0,0.055-0.009,0.08l-0.202,0.572
		c-0.007,0.02-0.015,0.033-0.026,0.047l-0.338,0.439c-0.014,0.02-0.032,0.035-0.053,0.045l-0.439,0.238
		c-0.014,0.006-0.028,0.012-0.045,0.016l-0.472,0.102c-0.026,0.004-0.052,0.004-0.076-0.002L1.62,27.531L0,32.738
		c0.036,0.01,0.066,0.031,0.09,0.061l0.356,0.486l0.228,0.172l0.277,0.092c0.059,0.02,0.103,0.07,0.113,0.131
		c0.005,0.031,0.003,0.061-0.008,0.088l0.059,0.016c0.04,0.014,0.072,0.039,0.095,0.072l0.168,0.271L1.501,34.4l0.157,0.09
		l0.368,0.031c0.024,0.002,0.049,0.008,0.069,0.02l0.236,0.135c0.016,0.01,0.029,0.021,0.04,0.033l1.622,1.752
		c0.029-0.051,0.085-0.084,0.146-0.084h0.169c0.063,0,0.119,0.033,0.148,0.09l0.71,1.352l0.282,0.906
		c0.015,0.049,0.007,0.102-0.021,0.143l-0.271,0.406c-0.017,0.025-0.042,0.047-0.071,0.059l-0.538,0.24l-0.171,0.539l0.061,0.932
		l0.023-0.049c0.023-0.045,0.062-0.076,0.11-0.088l0.271-0.068c0.051-0.014,0.107,0,0.148,0.035l0.172,0.145l0.536,0.125
		c0.02,0.004,0.04,0.014,0.058,0.025l0.338,0.236l0.664,0.662l0.486,0.621c0.008,0.012,0.015,0.021,0.021,0.037l0.912,2.023
		c0.018,0.041,0.02,0.088,0.004,0.129l-0.095,0.252l-0.031,0.25l0.001,0.354l0.202-0.09c0.002,0,0.006-0.004,0.01-0.004
		l-0.055-0.098c-0.032-0.059-0.028-0.127,0.011-0.182l0.271-0.371c0.009-0.012,0.021-0.025,0.032-0.035l0.439-0.338
		c0.019-0.012,0.039-0.021,0.062-0.029l0.54-0.135c0.042-0.01,0.086-0.004,0.124,0.018l0.775,0.439l0.175,0.053
		c0.019,0.008,0.035,0.016,0.051,0.027l0.17,0.135c0.027,0.023,0.05,0.057,0.058,0.092l0.067,0.27
		c0.004,0.016,0.004,0.027,0.004,0.043v0.303c0,0.016-0.001,0.033-0.005,0.047l-0.129,0.451v0.123l0.165,0.119
		c0.011,0.008,0.021,0.02,0.03,0.029l0.406,0.473l0.752,0.584c0.021,0.016,0.038,0.037,0.049,0.062l0.169,0.371
		c0.009,0.02,0.014,0.041,0.016,0.059l0.033,0.508c0.001,0.016,0,0.029-0.003,0.043l-0.102,0.508
		c-0.005,0.025-0.017,0.051-0.033,0.074l-0.237,0.295l-0.029,0.42L11.967,50.4c-0.004,0.014-0.009,0.027-0.017,0.041l-0.315,0.562
		l0.19,0.119c0.016,0.01,0.027,0.021,0.04,0.035l0.201,0.234c0.02,0.023,0.032,0.049,0.038,0.078l0.067,0.336
		c0.005,0.021,0.005,0.045,0,0.066l-0.067,0.338c-0.011,0.057-0.051,0.104-0.104,0.123c-0.054,0.023-0.114,0.014-0.16-0.02
		l-0.236-0.168c-0.022-0.016-0.04-0.037-0.053-0.062l-0.004-0.006l-0.304,0.096l-0.005,0.031l0.365,0.518
		c0.011,0.018,0.02,0.033,0.024,0.051l0.067,0.234l0.039,0.369l-0.033,0.438l-0.069,0.449c-0.002,0.012-0.005,0.025-0.009,0.037
		l-0.339,0.844l-0.211,0.389c-0.013,0.023-0.029,0.043-0.051,0.057l-0.236,0.17c-0.072,0.053-0.173,0.037-0.23-0.031l-0.539-0.676
		L9.438,54.57l0.014,0.025c0.016,0.023,0.021,0.053,0.021,0.082v0.369c0,0.014-0.001,0.023-0.003,0.037l-0.169,0.809l-0.029,0.855
		l0.087,0.291l0.227,0.389l1.37,1.701l0.615,0.889c0.009,0.012,0.016,0.025,0.021,0.041l0.179,0.533v-0.107
		c0-0.094,0.075-0.17,0.169-0.17h0.168c0.071,0,0.136,0.045,0.159,0.111l0.878,2.467c0.005,0.016,0.008,0.029,0.01,0.045
		l0.028,0.436l0.184,0.156c0.013,0.012,0.024,0.025,0.032,0.041l0.912,1.484l0.351,0.834c0.008,0.016,0.01,0.035,0.012,0.053
		l0.068,0.945c0.001,0.018,0,0.035-0.006,0.053l-0.134,0.541l-0.107,0.289c-0.006,0.016-0.017,0.033-0.028,0.047l-0.169,0.203
		l-0.224,0.191l-0.517,0.354l-0.15,0.301c-0.031,0.062-0.099,0.102-0.171,0.092l-0.189-0.023l-0.018,0.018l0.023,0.188
		c0.003,0.029,0,0.057-0.009,0.082l-0.201,0.566c-0.008,0.027-0.022,0.049-0.042,0.068l-0.134,0.135
		c-0.019,0.018-0.04,0.033-0.065,0.041l-0.507,0.168c-0.036,0.012-0.075,0.012-0.112-0.002l-0.37-0.135l-0.351-0.207l-0.346-0.115
		l-0.259,0.053l-0.188,0.135l-0.154,0.188c-0.013,0.014-0.025,0.025-0.041,0.031l-0.269,0.172c-0.015,0.008-0.029,0.014-0.044,0.018
		l-0.237,0.068c-0.011,0.004-0.023,0.006-0.034,0.006l-0.485,0.031l-0.13,0.043l-0.239,0.328l-0.525,1.09
		c-0.005,0.012-0.014,0.025-0.023,0.035l-0.202,0.238c-0.026,0.031-0.065,0.051-0.107,0.057L7.746,72.26l-0.123,0.082L7.6,72.416
		l0.077,0.121h0.041l0.205-0.086c0.021-0.01,0.043-0.014,0.065-0.014h0.271c0.041,0,0.08,0.014,0.11,0.041l0.048,0.041
		c0.008-0.012,0.016-0.023,0.026-0.033l0.169-0.168c0.02-0.021,0.045-0.037,0.072-0.045l0.237-0.068
		c0.015-0.004,0.03-0.006,0.046-0.006h0.337c0.019,0,0.037,0.006,0.054,0.01l0.304,0.102c0.025,0.008,0.047,0.021,0.065,0.039
		l0.203,0.203l0.188,0.258l0.197,0.195l0.093,0.047l0.451,0.096c0.033,0.008,0.062,0.023,0.085,0.047l0.168,0.168
		c0.04,0.039,0.057,0.098,0.047,0.152l-0.027,0.133l0.156,0.654l0.074,0.146l0.202,0.146c0.043,0.029,0.069,0.08,0.07,0.133
		c0.002,0.051-0.021,0.104-0.063,0.135l-0.169,0.135c-0.03,0.025-0.065,0.037-0.104,0.037h-0.136c-0.038,0-0.075-0.012-0.105-0.037
		l-0.064-0.049v0.125l0.068,0.178l0.075,0.037l0.268-0.105c0.05-0.021,0.107-0.014,0.151,0.012c0.047,0.031,0.075,0.078,0.08,0.133
		l0.067,0.912l0.085,0.393l0.158,0.129c0.021,0.02,0.036,0.039,0.047,0.064l0.102,0.238c0.011,0.023,0.015,0.049,0.014,0.076
		l-0.033,0.506l0.027,0.393l0.224,0.125c0.073,0.041,0.106,0.129,0.074,0.209l-0.271,0.676l-0.195,0.727l-0.128,0.74l0.132,3.363
		l0.157,0.377c0.007,0.016,0.011,0.033,0.013,0.049l0.27,2.904l0.133,0.74l0.321-0.107c0.047-0.018,0.097-0.01,0.14,0.014
		c0.042,0.025,0.07,0.068,0.08,0.117l0.127,0.697l0.951,1.148c0.014,0.018,0.024,0.035,0.031,0.055l0.235,0.744
		c0.017,0.051,0.007,0.107-0.024,0.15c-0.033,0.043-0.082,0.07-0.136,0.07H14.1c-0.063,0-0.122-0.037-0.151-0.094l-0.201-0.406
		l-0.238-0.322l-0.348-0.23l-0.229-0.031l0.016,0.068c0.002,0.012,0.004,0.023,0.004,0.037v0.344l0.07,0.211l0.478,0.24
		c0.047,0.021,0.079,0.064,0.09,0.115l0.068,0.34c0.003,0.02,0.003,0.041,0,0.062l-0.067,0.371
		c-0.003,0.012-0.007,0.025-0.012,0.037l-0.101,0.234c-0.021,0.051-0.065,0.088-0.118,0.098c-0.055,0.014-0.108,0-0.149-0.037
		l-0.165-0.146L13.02,94.25c0,0.012-0.001,0.023-0.006,0.035l-0.235,1.049l-0.038,0.389l0.223-0.08
		c0.051-0.02,0.109-0.01,0.153,0.02c0.046,0.031,0.072,0.082,0.072,0.139v0.17c0,0.064-0.038,0.123-0.099,0.152l-0.464,0.217
		l-0.189,0.27l-0.163,0.943c-0.002,0.01-0.005,0.021-0.009,0.033l-0.136,0.338c-0.005,0.01-0.01,0.023-0.019,0.035l-0.58,0.822
		l0.749,1.307L12.567,100.408z"/>
	<g>
		<g>
			<g enable-background="new    ">
				<path fill="#331842" d="M350.714,84.715l-2.908,0.01v-0.264c0-1.529-0.576-2.295-1.729-2.295c-1.231,0-1.847,1.413-1.847,4.238
					c0,3.184,0.646,4.775,1.939,4.775h0.013c1.292-0.006,1.939-0.787,1.939-2.344v-0.967h3.249v0.732
					c0,3.242-1.786,4.938-5.358,5.088c-0.104,0.007-0.209,0.01-0.314,0.01c-3.362,0-5.043-2.408-5.043-7.227
					c0-4.713,1.729-7.07,5.188-7.07c3.257,0,4.886,1.576,4.886,4.727C350.728,84.318,350.723,84.514,350.714,84.715z"/>
				<path fill="#331842" d="M362.833,79.773c-0.104,4.382-0.205,9.102-0.301,14.16h-2.974V88.24h-3.734v5.234l-3.576-0.01
					c0.104-2.389,0.157-4.727,0.157-7.012c0-2.278-0.053-4.505-0.157-6.68h3.419l-0.144,5.693l3.734,0.117v-6.045L362.833,79.773z"
					/>
				<path fill="#331842" d="M370.104,79.383c3.677,0,5.515,2.344,5.515,7.031c0,4.694-1.969,7.041-5.908,7.041
					s-5.908-2.432-5.908-7.295C363.802,81.643,365.902,79.383,370.104,79.383z M367.483,86.678c-0.009,0.17-0.013,0.332-0.013,0.488
					c0,2.455,0.769,3.682,2.306,3.682c1.633,0,2.45-1.39,2.45-4.17c0-2.779-0.76-4.17-2.279-4.17
					C368.418,82.508,367.597,83.898,367.483,86.678z"/>
				<path fill="#331842" d="M386.623,84.715l-2.908,0.01v-0.264c0-1.529-0.576-2.295-1.729-2.295c-1.231,0-1.847,1.413-1.847,4.238
					c0,3.184,0.646,4.775,1.939,4.775h0.013c1.292-0.006,1.939-0.787,1.939-2.344v-0.967h3.249v0.732
					c0,3.242-1.786,4.938-5.358,5.088c-0.104,0.007-0.209,0.01-0.314,0.01c-3.362,0-5.043-2.408-5.043-7.227
					c0-4.713,1.729-7.07,5.188-7.07c3.257,0,4.886,1.576,4.886,4.727C386.636,84.318,386.632,84.514,386.623,84.715z"/>
				<path fill="#331842" d="M394.169,79.383c3.677,0,5.515,2.344,5.515,7.031c0,4.694-1.969,7.041-5.908,7.041
					s-5.908-2.432-5.908-7.295C387.868,81.643,389.968,79.383,394.169,79.383z M391.549,86.678c-0.009,0.17-0.013,0.332-0.013,0.488
					c0,2.455,0.769,3.682,2.306,3.682c1.633,0,2.45-1.39,2.45-4.17c0-2.779-0.76-4.17-2.279-4.17
					C392.484,82.508,391.663,83.898,391.549,86.678z M392.217,77.469c1.022-0.904,1.86-1.768,2.516-2.588l2.148,1.27
					c-0.926,0.678-1.957,1.508-3.092,2.49L392.217,77.469z"/>
			</g>
		</g>
	</g>
</g>
</svg>
