<?xml version="1.0" encoding="utf-8"?>
<!-- Generator: Adobe Illustrator 16.0.0, SVG Export Plug-In . SVG Version: 6.00 Build 0)  -->
<!DOCTYPE svg PUBLIC "-//W3C//DTD SVG 1.1//EN" "http://www.w3.org/Graphics/SVG/1.1/DTD/svg11.dtd">
<svg version="1.1" id="Capa_1" xmlns="http://www.w3.org/2000/svg" xmlns:xlink="http://www.w3.org/1999/xlink" x="0px" y="0px"
	 width="547.789px" height="163.069px" viewBox="0 0 547.789 163.069" enable-background="new 0 0 547.789 163.069"
	 xml:space="preserve">
<g>
	<rect x="163.045" y="62.39" opacity="0.5" fill-rule="evenodd" clip-rule="evenodd" fill="#951B81" width="267.871" height="31"/>
	<g>
		<g>
			<path fill="#FFFFFF" d="M255.039,79.442l3.891-0.195c-0.052,0.404-0.079,0.769-0.079,1.094c0,1.479,0.493,2.217,1.48,2.217h0.052
				c1.197-0.025,1.795-0.501,1.795-1.426v-0.088c-0.044-0.982-1.175-1.946-3.393-2.891c-2.157-0.911-3.236-2.415-3.236-4.512
				c0-0.064,0.004-0.13,0.013-0.195c0.061-2.193,1.711-3.311,4.952-3.35h0.105c2.926,0,4.389,1.391,4.389,4.17
				c0,0.222-0.009,0.456-0.026,0.703l-3.419,0.146c0.035-0.293,0.052-0.562,0.052-0.811c0-1.165-0.38-1.748-1.14-1.748
				c-0.917,0-1.419,0.349-1.506,1.045c-0.009,0.098-0.014,0.195-0.014,0.293c0,0.58,0.231,1.12,0.694,1.621
				c0.533,0.58,1.448,1.11,2.745,1.592c1.297,0.482,2.203,1.143,2.718,1.982c0.367,0.605,0.55,1.25,0.55,1.934
				c0,0.261-0.026,0.527-0.079,0.801c-0.201,0.983-0.76,1.799-1.677,2.446s-2.148,1.001-3.694,1.06
				c-0.104,0.007-0.209,0.01-0.314,0.01c-1.406,0-2.581-0.384-3.524-1.152c-0.909-0.735-1.362-2.073-1.362-4.014
				C255.013,79.94,255.021,79.696,255.039,79.442z"/>
			<path fill="#FFFFFF" d="M271.048,74.872c3.03,0,4.546,1.501,4.546,4.502c0,0.365-0.022,0.756-0.066,1.172h-5.855
				c0,1.674,0.432,2.51,1.297,2.51h0.092c0.76-0.045,1.14-0.479,1.14-1.299c0-0.176-0.018-0.371-0.053-0.586l3.118-0.049
				c0,2.48-1.454,3.737-4.362,3.77c-0.035,0.007-0.065,0.01-0.092,0.01c-2.769,0-4.153-1.565-4.153-4.697v-0.293
				C266.747,76.552,268.21,74.872,271.048,74.872z M269.358,78.749h2.96v-0.234c0-1.185-0.45-1.777-1.349-1.777
				C270,76.737,269.463,77.408,269.358,78.749z"/>
			<path fill="#FFFFFF" d="M278.987,74.618l0.131,1.592c0.367-0.846,1.332-1.275,2.896-1.289h0.052c1.537,0,2.585,0.449,3.144,1.348
				c0.384,0.612,0.576,2.045,0.576,4.297c0,1.107-0.048,2.416-0.144,3.926h-3.17c0.114-2.012,0.17-3.57,0.17-4.678
				c0-0.553-0.013-0.996-0.039-1.328c-0.087-0.977-0.507-1.465-1.258-1.465c-0.751,0-1.223,0.261-1.415,0.781l0.131,7.08
				l-3.079,0.02c0-2.994-0.136-6.357-0.406-10.088L278.987,74.618z"/>
			<path fill="#FFFFFF" d="M289.062,71.757l2.974-0.146v3.232l2.502-0.049l0.039,1.846l-2.542,0.088v4.443
				c0,1.035,0.59,1.553,1.769,1.553c0.245,0,0.511-0.022,0.799-0.068l-0.118,2.148c-0.419,0.039-0.817,0.059-1.192,0.059
				c-2.76,0-4.166-1.061-4.218-3.184v-4.775l-2.149,0.098l-0.052-2.178l2.201,0.02L289.062,71.757z"/>
			<path fill="#FFFFFF" d="M299.922,74.872c3.03,0,4.546,1.501,4.546,4.502c0,0.365-0.022,0.756-0.065,1.172h-5.856
				c0,1.674,0.432,2.51,1.297,2.51h0.092c0.76-0.045,1.14-0.479,1.14-1.299c0-0.176-0.018-0.371-0.052-0.586l3.118-0.049
				c0,2.48-1.454,3.737-4.362,3.77c-0.035,0.007-0.065,0.01-0.092,0.01c-2.769,0-4.153-1.565-4.153-4.697v-0.293
				C295.62,76.552,297.083,74.872,299.922,74.872z M298.232,78.749h2.96v-0.234c0-1.185-0.45-1.777-1.349-1.777
				C298.874,76.737,298.337,77.408,298.232,78.749z"/>
			<path fill="#FFFFFF" d="M307.861,74.618l0.131,1.592c0.367-0.846,1.332-1.275,2.896-1.289h0.052c1.537,0,2.585,0.449,3.144,1.348
				c0.384,0.612,0.577,2.045,0.577,4.297c0,1.107-0.048,2.416-0.145,3.926h-3.17c0.113-2.012,0.17-3.57,0.17-4.678
				c0-0.553-0.013-0.996-0.039-1.328c-0.087-0.977-0.507-1.465-1.258-1.465s-1.223,0.261-1.415,0.781l0.131,7.08l-3.079,0.02
				c0-2.994-0.136-6.357-0.406-10.088L307.861,74.618z"/>
			<path fill="#FFFFFF" d="M321.105,80.878l3.118,0.146c0,2.351-1.454,3.542-4.363,3.574c-0.035,0.007-0.065,0.01-0.091,0.01
				c-2.769,0-4.153-1.565-4.153-4.697v-0.293c0.087-3.359,1.563-5.055,4.428-5.088h0.105c2.637,0,3.956,1.127,3.956,3.379
				c0,0.131-0.004,0.261-0.013,0.391l-2.817,0.156v-0.234c0-1.185-0.45-1.777-1.349-1.777c-0.917,0-1.376,0.961-1.376,2.881v0.322
				c0.053,2.077,0.516,3.115,1.389,3.115h0.079c0.76-0.045,1.14-0.479,1.14-1.299C321.158,81.288,321.141,81.093,321.105,80.878z"/>
			<path fill="#FFFFFF" d="M328.979,72.626c0,0.397-0.188,0.736-0.563,1.016c-0.375,0.28-0.83,0.42-1.362,0.42
				c-0.524,0-0.974-0.14-1.35-0.42c-0.375-0.279-0.563-0.618-0.563-1.016c0-0.391,0.188-0.726,0.563-1.006
				c0.375-0.279,0.826-0.42,1.35-0.42c0.533,0,0.987,0.141,1.362,0.42C328.791,71.9,328.979,72.235,328.979,72.626z M325.468,84.95
				c-0.061-3.809-0.092-7.1-0.092-9.873l3.302-0.146c-0.105,2.656-0.157,5.297-0.157,7.92c0,0.703,0.004,1.403,0.013,2.1H325.468z"
				/>
			<path fill="#FFFFFF" d="M334.77,74.589c2.873,0.117,4.31,1.195,4.31,3.232v6.934l-3.053,0.039l-0.104-0.928
				c-0.629,0.534-1.463,0.801-2.502,0.801c-0.445,0-0.926-0.052-1.441-0.156c-1.546-0.286-2.319-1.178-2.319-2.676
				c0-0.182,0.013-0.377,0.039-0.586c0.175-1.543,1.646-2.314,4.415-2.314c0.533,0,1.118,0.029,1.756,0.088V77.89
				c0-0.918-0.389-1.377-1.166-1.377h-0.053c-0.061-0.006-0.118-0.01-0.17-0.01c-0.848,0-1.271,0.515-1.271,1.543v0.146
				l-3.118-0.195c0-2.271,1.467-3.408,4.402-3.408H334.77z M335.87,82.304v-1.719c-0.376-0.059-0.717-0.088-1.022-0.088
				c-0.795,0-1.336,0.199-1.625,0.596c-0.175,0.241-0.262,0.466-0.262,0.674c0,0.261,0.14,0.492,0.419,0.693
				c0.218,0.156,0.502,0.234,0.852,0.234C334.678,82.694,335.224,82.564,335.87,82.304z"/>
		</g>
	</g>
	<g>
		<path fill="#331842" d="M339.063,9.346l3.891-0.195c-0.052,0.403-0.079,0.769-0.079,1.094c0,1.478,0.493,2.217,1.48,2.217h0.053
			c1.196-0.026,1.794-0.501,1.794-1.426v-0.088c-0.043-0.983-1.175-1.946-3.393-2.891c-2.157-0.911-3.236-2.415-3.236-4.512
			c0-0.065,0.004-0.13,0.013-0.195c0.061-2.194,1.712-3.311,4.952-3.35h0.104c2.926,0,4.389,1.39,4.389,4.17
			c0,0.222-0.009,0.456-0.026,0.703l-3.419,0.146c0.035-0.293,0.053-0.563,0.053-0.811c0-1.165-0.38-1.748-1.14-1.748
			c-0.917,0-1.419,0.349-1.506,1.045c-0.009,0.098-0.013,0.195-0.013,0.293c0,0.579,0.231,1.12,0.694,1.621
			c0.533,0.579,1.448,1.11,2.745,1.592s2.203,1.143,2.718,1.982c0.367,0.605,0.55,1.25,0.55,1.934c0,0.261-0.026,0.527-0.079,0.801
			c-0.201,0.983-0.76,1.799-1.677,2.446s-2.148,1.001-3.694,1.06c-0.104,0.007-0.209,0.01-0.314,0.01
			c-1.406,0-2.581-0.384-3.523-1.152c-0.909-0.735-1.363-2.073-1.363-4.014C339.038,9.844,339.046,9.6,339.063,9.346z"/>
		<path fill="#331842" d="M355.073,4.775c3.031,0,4.546,1.501,4.546,4.502c0,0.364-0.022,0.755-0.065,1.172h-5.856
			c0,1.673,0.432,2.51,1.297,2.51h0.092c0.76-0.046,1.14-0.479,1.14-1.299c0-0.176-0.018-0.371-0.053-0.586l3.118-0.049
			c0,2.48-1.454,3.737-4.362,3.77c-0.035,0.007-0.065,0.01-0.092,0.01c-2.769,0-4.153-1.565-4.153-4.697V9.814
			C350.771,6.455,352.234,4.775,355.073,4.775z M353.383,8.652h2.961V8.418c0-1.185-0.45-1.777-1.35-1.777
			C354.024,6.641,353.487,7.312,353.383,8.652z"/>
		<path fill="#331842" d="M363.012,4.521l0.131,1.592c0.367-0.847,1.332-1.276,2.896-1.289h0.052c1.537,0,2.585,0.449,3.144,1.348
			c0.384,0.612,0.576,2.044,0.576,4.297c0,1.106-0.048,2.415-0.144,3.926h-3.171c0.114-2.012,0.171-3.571,0.171-4.678
			c0-0.554-0.014-0.996-0.04-1.328c-0.087-0.977-0.506-1.465-1.257-1.465c-0.751,0-1.223,0.261-1.415,0.781l0.131,7.08l-3.079,0.02
			c0-2.995-0.135-6.357-0.406-10.088L363.012,4.521z"/>
		<path fill="#331842" d="M373.086,1.66l2.974-0.146v3.232l2.503-0.049l0.039,1.846l-2.542,0.088v4.443
			c0,1.035,0.59,1.553,1.769,1.553c0.245,0,0.511-0.022,0.799-0.068l-0.118,2.148c-0.419,0.039-0.817,0.059-1.192,0.059
			c-2.76,0-4.166-1.062-4.218-3.184V6.807l-2.148,0.098l-0.052-2.178l2.201,0.02L373.086,1.66z"/>
		<path fill="#331842" d="M383.946,4.775c3.031,0,4.546,1.501,4.546,4.502c0,0.364-0.021,0.755-0.065,1.172h-5.855
			c0,1.673,0.432,2.51,1.297,2.51h0.092c0.76-0.046,1.14-0.479,1.14-1.299c0-0.176-0.018-0.371-0.053-0.586l3.118-0.049
			c0,2.48-1.454,3.737-4.362,3.77c-0.035,0.007-0.066,0.01-0.092,0.01c-2.769,0-4.153-1.565-4.153-4.697V9.814
			C379.645,6.455,381.108,4.775,383.946,4.775z M382.257,8.652h2.96V8.418c0-1.185-0.45-1.777-1.349-1.777
			C382.898,6.641,382.361,7.312,382.257,8.652z"/>
		<path fill="#331842" d="M391.886,4.521l0.131,1.592c0.367-0.847,1.332-1.276,2.895-1.289h0.052c1.537,0,2.585,0.449,3.145,1.348
			c0.384,0.612,0.576,2.044,0.576,4.297c0,1.106-0.048,2.415-0.144,3.926h-3.17c0.113-2.012,0.17-3.571,0.17-4.678
			c0-0.554-0.013-0.996-0.04-1.328c-0.087-0.977-0.506-1.465-1.257-1.465c-0.751,0-1.223,0.261-1.415,0.781l0.131,7.08l-3.079,0.02
			c0-2.995-0.135-6.357-0.406-10.088L391.886,4.521z"/>
		<path fill="#331842" d="M405.13,10.781l3.118,0.146c0,2.351-1.454,3.542-4.362,3.574c-0.035,0.007-0.065,0.01-0.092,0.01
			c-2.769,0-4.153-1.565-4.153-4.697V9.521c0.087-3.359,1.563-5.056,4.428-5.088h0.104c2.638,0,3.956,1.126,3.956,3.379
			c0,0.13-0.004,0.261-0.013,0.391l-2.816,0.156V8.125c0-1.185-0.45-1.777-1.35-1.777c-0.917,0-1.375,0.96-1.375,2.881v0.322
			c0.052,2.077,0.515,3.115,1.389,3.115h0.079c0.76-0.046,1.14-0.479,1.14-1.299C405.183,11.191,405.165,10.996,405.13,10.781z"/>
		<path fill="#331842" d="M413.004,2.529c0,0.397-0.188,0.735-0.563,1.016c-0.376,0.28-0.83,0.42-1.362,0.42
			c-0.524,0-0.974-0.14-1.35-0.42s-0.563-0.618-0.563-1.016c0-0.391,0.188-0.726,0.563-1.006s0.825-0.42,1.35-0.42
			c0.532,0,0.986,0.14,1.362,0.42C412.816,1.804,413.004,2.139,413.004,2.529z M409.493,14.854c-0.061-3.809-0.091-7.1-0.091-9.873
			l3.301-0.146c-0.104,2.656-0.157,5.296-0.157,7.92c0,0.703,0.005,1.403,0.014,2.1H409.493z"/>
		<path fill="#331842" d="M418.794,4.492c2.874,0.117,4.311,1.194,4.311,3.232v6.934l-3.053,0.039l-0.104-0.928
			c-0.629,0.534-1.463,0.801-2.502,0.801c-0.446,0-0.926-0.052-1.441-0.156c-1.546-0.286-2.319-1.179-2.319-2.676
			c0-0.183,0.014-0.378,0.04-0.586c0.175-1.543,1.646-2.314,4.415-2.314c0.533,0,1.118,0.029,1.755,0.088V7.793
			c0-0.918-0.389-1.377-1.166-1.377h-0.052c-0.061-0.007-0.118-0.01-0.17-0.01c-0.847,0-1.271,0.515-1.271,1.543v0.146L414.117,7.9
			c0-2.272,1.467-3.408,4.402-3.408H418.794z M419.895,12.207v-1.719c-0.375-0.059-0.716-0.088-1.021-0.088
			c-0.795,0-1.337,0.198-1.625,0.596c-0.175,0.241-0.262,0.466-0.262,0.674c0,0.261,0.14,0.491,0.419,0.693
			c0.219,0.156,0.502,0.234,0.852,0.234C418.702,12.598,419.248,12.468,419.895,12.207z"/>
		<path fill="#331842" d="M423.995,11.338l3-0.107v0.127c0,1.003,0.415,1.511,1.244,1.523h0.053c0.804,0,1.205-0.29,1.205-0.869
			v-0.068c-0.035-0.638-0.827-1.152-2.378-1.543c-1.55-0.391-2.482-1.048-2.797-1.973c-0.113-0.325-0.17-0.638-0.17-0.938
			c0-0.547,0.188-1.055,0.563-1.523c0.576-0.716,1.449-1.126,2.62-1.23c0.314-0.026,0.62-0.039,0.917-0.039
			c0.777,0,1.462,0.101,2.057,0.303c0.812,0.28,1.375,0.681,1.69,1.201c0.209,0.358,0.314,0.755,0.314,1.191
			c0,0.208-0.022,0.423-0.066,0.645l-2.803,0.049c0.026-0.163,0.04-0.312,0.04-0.449c0-0.651-0.28-0.999-0.839-1.045
			c-0.061-0.007-0.122-0.01-0.183-0.01c-0.577,0-0.965,0.218-1.166,0.654c-0.07,0.149-0.105,0.286-0.105,0.41
			c0,0.306,0.192,0.569,0.577,0.791c0.542,0.312,1.343,0.63,2.404,0.952c1.062,0.322,1.775,0.871,2.142,1.646
			c0.131,0.293,0.196,0.586,0.196,0.879c0,0.495-0.192,0.993-0.577,1.494c-0.611,0.801-1.559,1.267-2.843,1.396
			c-0.279,0.032-0.555,0.049-0.825,0.049c-0.961,0-1.852-0.186-2.672-0.557C424.545,13.821,424.013,12.835,423.995,11.338z"/>
		<path fill="#331842" d="M448.244,0.986c-0.052,2.2-0.079,4.509-0.079,6.924c0,2.2,0.022,4.492,0.066,6.875l-3.105,0.01
			l-0.104-1.494c-0.646,0.723-1.507,1.084-2.581,1.084c-2.681,0-4.021-1.53-4.021-4.59c0-0.065,0.004-0.13,0.013-0.195
			c0.053-3.066,1.38-4.6,3.983-4.6c0.105,0,0.214,0.003,0.328,0.01c0.891,0.039,1.611,0.4,2.161,1.084
			c0-1.445-0.048-3.147-0.144-5.107H448.244z M444.969,11.299l-0.065-3.379c-0.506-0.515-1.026-0.771-1.559-0.771
			c-0.219,0-0.437,0.042-0.655,0.127c-0.69,0.267-1.035,1.016-1.035,2.246c0,0.144,0.005,0.29,0.014,0.439
			c0.087,1.491,0.532,2.278,1.336,2.363c0.079,0.007,0.157,0.01,0.236,0.01C443.938,12.334,444.515,11.989,444.969,11.299z"/>
		<path fill="#331842" d="M453.537,4.775c3.03,0,4.546,1.501,4.546,4.502c0,0.364-0.022,0.755-0.065,1.172h-5.856
			c0,1.673,0.433,2.51,1.297,2.51h0.092c0.76-0.046,1.14-0.479,1.14-1.299c0-0.176-0.018-0.371-0.052-0.586l3.118-0.049
			c0,2.48-1.454,3.737-4.362,3.77c-0.035,0.007-0.065,0.01-0.092,0.01c-2.769,0-4.152-1.565-4.152-4.697V9.814
			C449.235,6.455,450.698,4.775,453.537,4.775z M451.847,8.652h2.961V8.418c0-1.185-0.45-1.777-1.35-1.777
			C452.489,6.641,451.952,7.312,451.847,8.652z"/>
		<path fill="#331842" d="M467.633,14.639l-3.262,0.225c0.035-2.155,0.052-4.229,0.052-6.221c0-2.8-0.035-5.439-0.105-7.92
			l3.21-0.039c-0.035,1.595-0.053,3.232-0.053,4.912C467.476,8.493,467.528,11.507,467.633,14.639z"/>
		<path fill="#331842" d="M473.83,4.492c2.874,0.117,4.31,1.194,4.31,3.232v6.934l-3.053,0.039l-0.104-0.928
			c-0.629,0.534-1.463,0.801-2.502,0.801c-0.446,0-0.926-0.052-1.441-0.156c-1.546-0.286-2.319-1.179-2.319-2.676
			c0-0.183,0.013-0.378,0.04-0.586c0.175-1.543,1.646-2.314,4.415-2.314c0.532,0,1.118,0.029,1.755,0.088V7.793
			c0-0.918-0.389-1.377-1.166-1.377h-0.052c-0.062-0.007-0.118-0.01-0.171-0.01c-0.847,0-1.271,0.515-1.271,1.543v0.146L469.152,7.9
			c0-2.272,1.468-3.408,4.402-3.408H473.83z M474.93,12.207v-1.719c-0.375-0.059-0.716-0.088-1.021-0.088
			c-0.795,0-1.336,0.198-1.625,0.596c-0.175,0.241-0.262,0.466-0.262,0.674c0,0.261,0.14,0.491,0.419,0.693
			c0.218,0.156,0.502,0.234,0.852,0.234C473.738,12.598,474.283,12.468,474.93,12.207z"/>
		<path fill="#331842" d="M494.24,5.742l-2.908,0.01V5.488c0-1.53-0.577-2.295-1.729-2.295c-1.231,0-1.847,1.413-1.847,4.238
			c0,3.184,0.646,4.775,1.939,4.775h0.013c1.293-0.007,1.939-0.788,1.939-2.344V8.896h3.249v0.732c0,3.242-1.787,4.938-5.358,5.088
			c-0.105,0.007-0.21,0.01-0.314,0.01c-3.362,0-5.044-2.409-5.044-7.227c0-4.714,1.729-7.07,5.188-7.07
			c3.257,0,4.886,1.575,4.886,4.727C494.253,5.345,494.249,5.54,494.24,5.742z"/>
		<path fill="#331842" d="M500.279,4.775c2.97,0,4.454,1.536,4.454,4.609c0,0.124-0.004,0.247-0.013,0.371
			c-0.123,3.327-1.703,5.007-4.742,5.039c-0.035,0.007-0.07,0.01-0.105,0.01c-2.891,0-4.336-1.572-4.336-4.717V9.814
			C495.624,6.455,497.205,4.775,500.279,4.775z M499.847,7.002c-0.55,0.144-0.926,0.674-1.126,1.592
			c-0.123,0.547-0.184,1.097-0.184,1.65c0,0.371,0.026,0.745,0.079,1.123c0.14,0.938,0.589,1.423,1.349,1.455h0.092
			c0.708,0,1.192-0.349,1.454-1.045c0.219-0.579,0.328-1.267,0.328-2.061c0-0.195-0.004-0.394-0.013-0.596
			c-0.07-1.048-0.279-1.702-0.629-1.963c-0.218-0.156-0.48-0.234-0.786-0.234C500.235,6.924,500.048,6.95,499.847,7.002z"/>
		<path fill="#331842" d="M508.939,7.803l0.131,7.08l-3.21,0.02c0-2.995-0.136-6.357-0.406-10.088l2.411-0.195l0.131,1.592
			c0.367-0.781,1.223-1.228,2.568-1.338c0.201-0.013,0.393-0.02,0.576-0.02c1.057,0,1.86,0.257,2.411,0.771
			c0.637,0.612,0.96,1.585,0.969,2.92l-2.908,0.215c0.009-0.11,0.013-0.218,0.013-0.322c0-1.042-0.363-1.562-1.087-1.562h-0.052
			C509.646,6.907,509.131,7.217,508.939,7.803z"/>
		<path fill="#331842" d="M517.585,1.66l2.974-0.146v3.232l2.502-0.049l0.039,1.846l-2.542,0.088v4.443
			c0,1.035,0.589,1.553,1.769,1.553c0.244,0,0.511-0.022,0.799-0.068l-0.118,2.148c-0.419,0.039-0.816,0.059-1.192,0.059
			c-2.76,0-4.166-1.062-4.218-3.184V6.807l-2.148,0.098l-0.053-2.178l2.201,0.02L517.585,1.66z"/>
		<path fill="#331842" d="M528.446,4.775c3.031,0,4.546,1.501,4.546,4.502c0,0.364-0.022,0.755-0.065,1.172h-5.856
			c0,1.673,0.432,2.51,1.297,2.51h0.092c0.76-0.046,1.14-0.479,1.14-1.299c0-0.176-0.018-0.371-0.053-0.586l3.118-0.049
			c0,2.48-1.454,3.737-4.362,3.77c-0.035,0.007-0.065,0.01-0.092,0.01c-2.769,0-4.153-1.565-4.153-4.697V9.814
			C524.145,6.455,525.607,4.775,528.446,4.775z M526.756,8.652h2.961V8.418c0-1.185-0.45-1.777-1.35-1.777
			C527.397,6.641,526.86,7.312,526.756,8.652z"/>
		<path fill="#331842" d="M334.21,29.742l-2.908,0.01v-0.264c0-1.53-0.577-2.295-1.729-2.295c-1.231,0-1.847,1.413-1.847,4.238
			c0,3.184,0.646,4.775,1.939,4.775h0.013c1.293-0.007,1.939-0.788,1.939-2.344v-0.967h3.249v0.732c0,3.242-1.787,4.938-5.358,5.088
			c-0.105,0.007-0.21,0.01-0.314,0.01c-3.362,0-5.044-2.409-5.044-7.227c0-4.714,1.729-7.07,5.188-7.07
			c3.257,0,4.886,1.575,4.886,4.727C334.223,29.345,334.219,29.54,334.21,29.742z"/>
		<path fill="#331842" d="M340.249,28.775c2.97,0,4.454,1.536,4.454,4.609c0,0.124-0.004,0.247-0.013,0.371
			c-0.123,3.327-1.703,5.007-4.742,5.039c-0.035,0.007-0.07,0.01-0.105,0.01c-2.891,0-4.336-1.572-4.336-4.717v-0.273
			C335.594,30.455,337.175,28.775,340.249,28.775z M339.817,31.002c-0.55,0.144-0.926,0.674-1.126,1.592
			c-0.123,0.547-0.184,1.097-0.184,1.65c0,0.371,0.026,0.745,0.079,1.123c0.14,0.938,0.589,1.423,1.349,1.455h0.092
			c0.708,0,1.192-0.349,1.454-1.045c0.219-0.579,0.328-1.267,0.328-2.061c0-0.195-0.004-0.394-0.013-0.596
			c-0.07-1.048-0.279-1.702-0.629-1.963c-0.218-0.156-0.48-0.234-0.786-0.234C340.205,30.924,340.018,30.95,339.817,31.002z"/>
		<path fill="#331842" d="M347.834,28.521l0.131,1.592c0.367-0.847,1.332-1.276,2.895-1.289h0.053c1.537,0,2.585,0.449,3.144,1.348
			c0.384,0.612,0.577,2.044,0.577,4.297c0,1.106-0.048,2.415-0.145,3.926h-3.17c0.113-2.012,0.17-3.571,0.17-4.678
			c0-0.554-0.013-0.996-0.039-1.328c-0.087-0.977-0.507-1.465-1.258-1.465s-1.223,0.261-1.415,0.781l0.131,7.08l-3.079,0.02
			c0-2.995-0.136-6.357-0.406-10.088L347.834,28.521z"/>
		<path fill="#331842" d="M355.563,35.338l3-0.107v0.127c0,1.003,0.415,1.511,1.245,1.523h0.052c0.803,0,1.206-0.29,1.206-0.869
			v-0.068c-0.035-0.638-0.828-1.152-2.378-1.543c-1.551-0.391-2.482-1.048-2.797-1.973c-0.114-0.325-0.171-0.638-0.171-0.938
			c0-0.547,0.188-1.055,0.563-1.523c0.577-0.716,1.45-1.126,2.62-1.23c0.314-0.026,0.62-0.039,0.917-0.039
			c0.777,0,1.463,0.101,2.057,0.303c0.812,0.28,1.375,0.681,1.69,1.201c0.209,0.358,0.314,0.755,0.314,1.191
			c0,0.208-0.022,0.423-0.065,0.645l-2.804,0.049c0.026-0.163,0.039-0.312,0.039-0.449c0-0.651-0.279-0.999-0.838-1.045
			c-0.062-0.007-0.123-0.01-0.184-0.01c-0.576,0-0.965,0.218-1.166,0.654c-0.07,0.149-0.104,0.286-0.104,0.41
			c0,0.306,0.191,0.569,0.576,0.791c0.541,0.312,1.343,0.63,2.404,0.952s1.775,0.871,2.142,1.646
			c0.131,0.293,0.196,0.586,0.196,0.879c0,0.495-0.192,0.993-0.576,1.494c-0.611,0.801-1.559,1.267-2.843,1.396
			c-0.28,0.032-0.555,0.049-0.825,0.049c-0.961,0-1.852-0.186-2.673-0.557C356.114,37.821,355.581,36.835,355.563,35.338z"/>
		<path fill="#331842" d="M367.21,25.66l2.974-0.146v3.232l2.502-0.049l0.039,1.846l-2.542,0.088v4.443
			c0,1.035,0.589,1.553,1.769,1.553c0.244,0,0.511-0.022,0.799-0.068l-0.118,2.148c-0.419,0.039-0.816,0.059-1.192,0.059
			c-2.76,0-4.166-1.062-4.218-3.184v-4.775l-2.148,0.098l-0.053-2.178l2.201,0.02L367.21,25.66z"/>
		<path fill="#331842" d="M377.481,26.529c0,0.397-0.188,0.735-0.563,1.016c-0.376,0.28-0.83,0.42-1.362,0.42
			c-0.524,0-0.974-0.14-1.35-0.42s-0.563-0.618-0.563-1.016c0-0.391,0.188-0.726,0.563-1.006s0.825-0.42,1.35-0.42
			c0.532,0,0.986,0.14,1.362,0.42C377.293,25.804,377.481,26.139,377.481,26.529z M373.97,38.854
			c-0.061-3.809-0.091-7.1-0.091-9.873l3.301-0.146c-0.104,2.656-0.157,5.296-0.157,7.92c0,0.703,0.005,1.403,0.014,2.1H373.97z"/>
		<path fill="#331842" d="M380.39,25.66l2.974-0.146v3.232l2.502-0.049l0.039,1.846l-2.542,0.088v4.443
			c0,1.035,0.59,1.553,1.769,1.553c0.245,0,0.511-0.022,0.799-0.068l-0.118,2.148c-0.419,0.039-0.817,0.059-1.192,0.059
			c-2.76,0-4.166-1.062-4.219-3.184v-4.775l-2.148,0.098l-0.052-2.178l2.201,0.02L380.39,25.66z"/>
		<path fill="#331842" d="M393.792,38.805l-0.131-1.592c-0.366,0.847-1.354,1.272-2.96,1.279c-0.018,0.007-0.031,0.01-0.04,0.01
			c-1.589,0-2.642-0.534-3.157-1.602c-0.349-0.71-0.523-2.178-0.523-4.404c0-1.146,0.048-2.497,0.144-4.053h3.184
			c-0.175,2.188-0.262,3.87-0.262,5.049c0,0.593,0.021,1.055,0.065,1.387c0.131,1.016,0.572,1.523,1.323,1.523
			c0.751,0,1.223-0.264,1.415-0.791l-0.131-6.777l3.079-0.02c0,2.8,0.135,6.062,0.406,9.785L393.792,38.805z"/>
		<path fill="#331842" d="M402.647,34.781l3.118,0.146c0,2.351-1.454,3.542-4.362,3.574c-0.035,0.007-0.066,0.01-0.092,0.01
			c-2.769,0-4.153-1.565-4.153-4.697v-0.293c0.087-3.359,1.563-5.056,4.428-5.088h0.105c2.637,0,3.956,1.126,3.956,3.379
			c0,0.13-0.004,0.261-0.013,0.391l-2.817,0.156v-0.234c0-1.185-0.45-1.777-1.349-1.777c-0.917,0-1.376,0.96-1.376,2.881v0.322
			c0.053,2.077,0.516,3.115,1.389,3.115h0.079c0.76-0.046,1.14-0.479,1.14-1.299C402.7,35.191,402.683,34.996,402.647,34.781z"/>
		<path fill="#331842" d="M410.521,26.529c0,0.397-0.188,0.735-0.563,1.016c-0.376,0.28-0.83,0.42-1.363,0.42
			c-0.524,0-0.974-0.14-1.349-0.42c-0.376-0.28-0.563-0.618-0.563-1.016c0-0.391,0.188-0.726,0.563-1.006
			c0.375-0.28,0.825-0.42,1.349-0.42c0.533,0,0.987,0.14,1.363,0.42C410.333,25.804,410.521,26.139,410.521,26.529z M407.01,38.854
			c-0.061-3.809-0.091-7.1-0.091-9.873l3.301-0.146c-0.104,2.656-0.157,5.296-0.157,7.92c0,0.703,0.004,1.403,0.013,2.1H407.01z"/>
		<path fill="#331842" d="M415.853,28.775c2.969,0,4.454,1.536,4.454,4.609c0,0.124-0.004,0.247-0.013,0.371
			c-0.122,3.327-1.703,5.007-4.742,5.039c-0.035,0.007-0.07,0.01-0.105,0.01c-2.891,0-4.336-1.572-4.336-4.717v-0.273
			C411.198,30.455,412.778,28.775,415.853,28.775z M415.421,31.002c-0.551,0.144-0.926,0.674-1.127,1.592
			c-0.122,0.547-0.184,1.097-0.184,1.65c0,0.371,0.026,0.745,0.079,1.123c0.14,0.938,0.589,1.423,1.349,1.455h0.092
			c0.708,0,1.192-0.349,1.454-1.045c0.218-0.579,0.328-1.267,0.328-2.061c0-0.195-0.005-0.394-0.013-0.596
			c-0.07-1.048-0.28-1.702-0.629-1.963c-0.218-0.156-0.48-0.234-0.786-0.234C415.809,30.924,415.621,30.95,415.421,31.002z"/>
		<path fill="#331842" d="M423.438,28.521l0.131,1.592c0.367-0.847,1.332-1.276,2.895-1.289h0.052c1.537,0,2.585,0.449,3.145,1.348
			c0.384,0.612,0.576,2.044,0.576,4.297c0,1.106-0.048,2.415-0.144,3.926h-3.17c0.113-2.012,0.17-3.571,0.17-4.678
			c0-0.554-0.013-0.996-0.04-1.328c-0.087-0.977-0.506-1.465-1.257-1.465c-0.751,0-1.223,0.261-1.415,0.781l0.131,7.08l-3.079,0.02
			c0-2.995-0.135-6.357-0.406-10.088L423.438,28.521z"/>
		<path fill="#331842" d="M436.395,28.492c2.874,0.117,4.311,1.194,4.311,3.232v6.934l-3.053,0.039l-0.104-0.928
			c-0.629,0.534-1.463,0.801-2.502,0.801c-0.446,0-0.926-0.052-1.441-0.156c-1.546-0.286-2.319-1.179-2.319-2.676
			c0-0.183,0.014-0.378,0.04-0.586c0.175-1.543,1.646-2.314,4.415-2.314c0.533,0,1.118,0.029,1.755,0.088v-1.133
			c0-0.918-0.389-1.377-1.166-1.377h-0.052c-0.061-0.007-0.118-0.01-0.17-0.01c-0.847,0-1.271,0.515-1.271,1.543v0.146l-3.118-0.195
			c0-2.272,1.467-3.408,4.402-3.408H436.395z M437.495,36.207v-1.719c-0.375-0.059-0.716-0.088-1.021-0.088
			c-0.795,0-1.337,0.198-1.625,0.596c-0.175,0.241-0.262,0.466-0.262,0.674c0,0.261,0.14,0.491,0.419,0.693
			c0.219,0.156,0.502,0.234,0.852,0.234C436.303,36.598,436.849,36.468,437.495,36.207z"/>
		<path fill="#331842" d="M445.434,38.639l-3.262,0.225c0.035-2.155,0.053-4.229,0.053-6.221c0-2.8-0.035-5.439-0.105-7.92
			l3.209-0.039c-0.035,1.595-0.052,3.232-0.052,4.912C445.277,32.493,445.329,35.507,445.434,38.639z"/>
		<path fill="#331842" d="M461.613,29.742l-2.908,0.01v-0.264c0-1.53-0.577-2.295-1.729-2.295c-1.231,0-1.847,1.413-1.847,4.238
			c0,3.184,0.646,4.775,1.939,4.775h0.013c1.293-0.007,1.939-0.788,1.939-2.344v-0.967h3.249v0.732c0,3.242-1.787,4.938-5.358,5.088
			c-0.105,0.007-0.21,0.01-0.314,0.01c-3.362,0-5.044-2.409-5.044-7.227c0-4.714,1.729-7.07,5.188-7.07
			c3.257,0,4.886,1.575,4.886,4.727C461.626,29.345,461.622,29.54,461.613,29.742z"/>
		<path fill="#331842" d="M467.652,28.775c2.97,0,4.454,1.536,4.454,4.609c0,0.124-0.004,0.247-0.013,0.371
			c-0.123,3.327-1.703,5.007-4.742,5.039c-0.035,0.007-0.07,0.01-0.105,0.01c-2.891,0-4.336-1.572-4.336-4.717v-0.273
			C462.997,30.455,464.578,28.775,467.652,28.775z M467.22,31.002c-0.55,0.144-0.926,0.674-1.126,1.592
			c-0.123,0.547-0.184,1.097-0.184,1.65c0,0.371,0.026,0.745,0.079,1.123c0.14,0.938,0.589,1.423,1.349,1.455h0.092
			c0.708,0,1.192-0.349,1.454-1.045c0.219-0.579,0.328-1.267,0.328-2.061c0-0.195-0.004-0.394-0.013-0.596
			c-0.07-1.048-0.279-1.702-0.629-1.963c-0.218-0.156-0.48-0.234-0.786-0.234C467.608,30.924,467.421,30.95,467.22,31.002z"/>
		<path fill="#331842" d="M476.509,38.639l-3.262,0.225c0.035-2.155,0.052-4.229,0.052-6.221c0-2.8-0.035-5.439-0.104-7.92
			l3.209-0.039c-0.035,1.595-0.052,3.232-0.052,4.912C476.352,32.493,476.404,35.507,476.509,38.639z"/>
		<path fill="#331842" d="M482.247,28.775c2.969,0,4.454,1.536,4.454,4.609c0,0.124-0.004,0.247-0.013,0.371
			c-0.122,3.327-1.703,5.007-4.742,5.039c-0.035,0.007-0.07,0.01-0.105,0.01c-2.891,0-4.336-1.572-4.336-4.717v-0.273
			C477.591,30.455,479.172,28.775,482.247,28.775z M481.814,31.002c-0.551,0.144-0.926,0.674-1.127,1.592
			c-0.122,0.547-0.184,1.097-0.184,1.65c0,0.371,0.026,0.745,0.079,1.123c0.14,0.938,0.589,1.423,1.349,1.455h0.092
			c0.708,0,1.192-0.349,1.454-1.045c0.218-0.579,0.328-1.267,0.328-2.061c0-0.195-0.005-0.394-0.013-0.596
			c-0.07-1.048-0.28-1.702-0.629-1.963c-0.218-0.156-0.48-0.234-0.786-0.234C482.203,30.924,482.015,30.95,481.814,31.002z"/>
		<path fill="#331842" d="M489.53,28.57l0.053,1.562c0.472-0.749,1.017-1.214,1.638-1.396c0.366-0.104,0.737-0.156,1.113-0.156
			c0.279,0,0.559,0.026,0.838,0.078c0.681,0.13,1.166,0.651,1.454,1.562c0.227-0.71,0.62-1.184,1.179-1.421
			c0.559-0.237,1.179-0.359,1.86-0.366h0.052c0.664,0,1.301,0.12,1.913,0.361c0.62,0.247,1.094,0.711,1.422,1.392
			c0.327,0.681,0.5,1.613,0.517,2.798v5.674l-2.83,0.049c0.113-2.142,0.17-3.965,0.17-5.469s-0.384-2.314-1.152-2.432
			c-0.114-0.013-0.223-0.02-0.328-0.02c-0.612,0-1.083,0.293-1.415,0.879c-0.052,0.677-0.079,1.468-0.079,2.373
			c0,1.23,0.048,2.666,0.145,4.307l-3.275,0.02c0.122-2.52,0.184-4.355,0.184-5.508V32.74c-0.009-1.14-0.311-1.738-0.904-1.797
			h-0.17c-0.533,0-1.048,0.228-1.546,0.684l0.026,7.148l-3.092,0.088v-1.602c0-2.839-0.057-5.674-0.17-8.506L489.53,28.57z"/>
		<path fill="#331842" d="M505.919,24.986c-0.096,1.96-0.144,3.662-0.144,5.107c0.462-0.618,1.052-0.979,1.769-1.084
			c0.122-0.007,0.24-0.01,0.354-0.01c2.847,0,4.301,1.533,4.362,4.6v0.176c0,3.073-1.516,4.609-4.546,4.609
			c-0.725,0-1.41-0.361-2.057-1.084l-0.105,1.494l-3.105-0.01c0.044-2.383,0.065-4.675,0.065-6.875c0-2.415-0.026-4.724-0.078-6.924
			H505.919z M505.775,31.92l-0.066,3.379c0.454,0.69,1.031,1.035,1.729,1.035c0.079,0,0.157-0.003,0.236-0.01
			c0.803-0.085,1.249-0.889,1.336-2.412c0.009-0.156,0.013-0.306,0.013-0.449c0-1.25-0.34-1.995-1.022-2.236
			c-0.209-0.071-0.415-0.107-0.615-0.107C506.836,31.119,506.299,31.386,505.775,31.92z"/>
		<path fill="#331842" d="M516.963,26.529c0,0.397-0.188,0.735-0.563,1.016c-0.375,0.28-0.83,0.42-1.362,0.42
			c-0.524,0-0.974-0.14-1.35-0.42c-0.375-0.28-0.563-0.618-0.563-1.016c0-0.391,0.188-0.726,0.563-1.006
			c0.376-0.28,0.826-0.42,1.35-0.42c0.533,0,0.987,0.14,1.362,0.42C516.775,25.804,516.963,26.139,516.963,26.529z M513.452,38.854
			c-0.062-3.809-0.092-7.1-0.092-9.873l3.301-0.146c-0.105,2.656-0.157,5.296-0.157,7.92c0,0.703,0.004,1.403,0.013,2.1H513.452z"/>
		<path fill="#331842" d="M522.753,28.492c2.874,0.117,4.31,1.194,4.31,3.232v6.934l-3.053,0.039l-0.104-0.928
			c-0.629,0.534-1.463,0.801-2.502,0.801c-0.446,0-0.926-0.052-1.441-0.156c-1.546-0.286-2.319-1.179-2.319-2.676
			c0-0.183,0.013-0.378,0.04-0.586c0.175-1.543,1.646-2.314,4.415-2.314c0.532,0,1.118,0.029,1.755,0.088v-1.133
			c0-0.918-0.389-1.377-1.166-1.377h-0.052c-0.062-0.007-0.118-0.01-0.171-0.01c-0.847,0-1.271,0.515-1.271,1.543v0.146
			l-3.118-0.195c0-2.272,1.468-3.408,4.402-3.408H522.753z M523.854,36.207v-1.719c-0.375-0.059-0.716-0.088-1.021-0.088
			c-0.795,0-1.336,0.198-1.625,0.596c-0.175,0.241-0.262,0.466-0.262,0.674c0,0.261,0.14,0.491,0.419,0.693
			c0.218,0.156,0.502,0.234,0.852,0.234C522.662,36.598,523.207,36.468,523.854,36.207z"/>
		<path fill="#331842" d="M530.522,28.521l0.131,1.592c0.367-0.847,1.332-1.276,2.895-1.289h0.053c1.537,0,2.585,0.449,3.144,1.348
			c0.384,0.612,0.577,2.044,0.577,4.297c0,1.106-0.048,2.415-0.145,3.926h-3.17c0.113-2.012,0.17-3.571,0.17-4.678
			c0-0.554-0.013-0.996-0.039-1.328c-0.087-0.977-0.507-1.465-1.258-1.465s-1.223,0.261-1.415,0.781l0.131,7.08l-3.079,0.02
			c0-2.995-0.136-6.357-0.406-10.088L530.522,28.521z"/>
		<path fill="#331842" d="M543.479,28.492c2.873,0.117,4.31,1.194,4.31,3.232v6.934l-3.052,0.039l-0.105-0.928
			c-0.629,0.534-1.463,0.801-2.502,0.801c-0.445,0-0.926-0.052-1.441-0.156c-1.546-0.286-2.319-1.179-2.319-2.676
			c0-0.183,0.013-0.378,0.039-0.586c0.175-1.543,1.646-2.314,4.415-2.314c0.533,0,1.118,0.029,1.756,0.088v-1.133
			c0-0.918-0.389-1.377-1.166-1.377h-0.053c-0.061-0.007-0.118-0.01-0.17-0.01c-0.848,0-1.271,0.515-1.271,1.543v0.146l-3.118-0.195
			c0-2.272,1.467-3.408,4.401-3.408H543.479z M544.579,36.207v-1.719c-0.376-0.059-0.716-0.088-1.022-0.088
			c-0.795,0-1.336,0.198-1.625,0.596c-0.175,0.241-0.262,0.466-0.262,0.674c0,0.261,0.14,0.491,0.419,0.693
			c0.218,0.156,0.502,0.234,0.852,0.234C543.387,36.598,543.933,36.468,544.579,36.207z"/>
	</g>
	<g>
		<g>
			<line fill="none" stroke="#666665" stroke-width="4" stroke-miterlimit="10" x1="0" y1="93.39" x2="146.941" y2="93.39"/>
			<g>
				<circle fill="#666665" cx="146.941" cy="93.39" r="7.52"/>
			</g>
		</g>
	</g>
	<g>
		<g>
			<path fill="#3C3C3B" d="M368.653,160.163l1.072-0.094c0.051,0.43,0.169,0.782,0.354,1.058s0.474,0.498,0.864,0.668
				s0.83,0.255,1.318,0.255c0.434,0,0.816-0.064,1.148-0.193s0.579-0.306,0.741-0.53s0.243-0.47,0.243-0.735
				c0-0.27-0.078-0.505-0.234-0.706s-0.414-0.37-0.773-0.507c-0.23-0.09-0.74-0.229-1.529-0.419s-1.342-0.368-1.658-0.536
				c-0.41-0.215-0.716-0.481-0.917-0.8s-0.302-0.675-0.302-1.069c0-0.434,0.123-0.839,0.369-1.216s0.605-0.663,1.078-0.858
				s0.998-0.293,1.576-0.293c0.637,0,1.198,0.103,1.685,0.308s0.86,0.507,1.122,0.905s0.402,0.85,0.422,1.354l-1.09,0.082
				c-0.059-0.543-0.257-0.953-0.595-1.23s-0.837-0.416-1.497-0.416c-0.688,0-1.188,0.126-1.503,0.378s-0.472,0.556-0.472,0.911
				c0,0.309,0.111,0.562,0.334,0.762c0.219,0.199,0.79,0.403,1.714,0.612s1.558,0.392,1.901,0.548c0.5,0.23,0.869,0.522,1.107,0.876
				s0.357,0.761,0.357,1.222c0,0.457-0.131,0.888-0.393,1.292s-0.638,0.719-1.128,0.943s-1.042,0.337-1.655,0.337
				c-0.777,0-1.429-0.113-1.954-0.34s-0.938-0.567-1.236-1.022S368.668,160.737,368.653,160.163z"/>
			<path fill="#3C3C3B" d="M381.168,160.919l1.09,0.135c-0.172,0.637-0.49,1.131-0.955,1.482s-1.059,0.527-1.781,0.527
				c-0.91,0-1.632-0.28-2.165-0.841s-0.8-1.347-0.8-2.358c0-1.047,0.27-1.859,0.809-2.438s1.238-0.867,2.098-0.867
				c0.832,0,1.512,0.283,2.039,0.85s0.791,1.363,0.791,2.391c0,0.062-0.002,0.156-0.006,0.281h-4.641
				c0.039,0.684,0.232,1.207,0.58,1.57s0.781,0.545,1.301,0.545c0.387,0,0.717-0.102,0.99-0.305S381.008,161.364,381.168,160.919z
				 M377.706,159.214h3.475c-0.047-0.523-0.18-0.916-0.398-1.178c-0.336-0.406-0.771-0.609-1.307-0.609
				c-0.484,0-0.892,0.162-1.222,0.486S377.741,158.671,377.706,159.214z"/>
			<path fill="#3C3C3B" d="M383.583,162.923V156.7h0.949v0.885c0.457-0.684,1.117-1.025,1.98-1.025c0.375,0,0.72,0.067,1.034,0.202
				s0.55,0.312,0.706,0.53s0.266,0.479,0.328,0.779c0.039,0.195,0.059,0.537,0.059,1.025v3.826h-1.055v-3.785
				c0-0.43-0.041-0.751-0.123-0.964s-0.228-0.383-0.437-0.51s-0.454-0.19-0.735-0.19c-0.449,0-0.837,0.143-1.163,0.428
				s-0.489,0.826-0.489,1.623v3.398H383.583z"/>
			<path fill="#3C3C3B" d="M392.559,161.979l0.152,0.932c-0.297,0.062-0.562,0.094-0.797,0.094c-0.383,0-0.68-0.061-0.891-0.182
				s-0.359-0.28-0.445-0.478s-0.129-0.612-0.129-1.245v-3.58h-0.773v-0.82h0.773v-1.541l1.049-0.633v2.174h1.061v0.82h-1.061v3.639
				c0,0.301,0.019,0.494,0.056,0.58s0.098,0.154,0.182,0.205s0.204,0.076,0.36,0.076
				C392.213,162.021,392.368,162.007,392.559,161.979z"/>
			<path fill="#3C3C3B" d="M397.85,160.919l1.09,0.135c-0.172,0.637-0.49,1.131-0.955,1.482s-1.059,0.527-1.781,0.527
				c-0.91,0-1.632-0.28-2.165-0.841s-0.8-1.347-0.8-2.358c0-1.047,0.27-1.859,0.809-2.438s1.238-0.867,2.098-0.867
				c0.832,0,1.512,0.283,2.039,0.85s0.791,1.363,0.791,2.391c0,0.062-0.002,0.156-0.006,0.281h-4.641
				c0.039,0.684,0.232,1.207,0.58,1.57s0.781,0.545,1.301,0.545c0.387,0,0.717-0.102,0.99-0.305S397.69,161.364,397.85,160.919z
				 M394.387,159.214h3.475c-0.047-0.523-0.18-0.916-0.398-1.178c-0.336-0.406-0.771-0.609-1.307-0.609
				c-0.484,0-0.892,0.162-1.222,0.486S394.422,158.671,394.387,159.214z"/>
			<path fill="#3C3C3B" d="M400.264,162.923V156.7h0.949v0.885c0.457-0.684,1.117-1.025,1.98-1.025c0.375,0,0.72,0.067,1.034,0.202
				s0.55,0.312,0.706,0.53s0.266,0.479,0.328,0.779c0.039,0.195,0.059,0.537,0.059,1.025v3.826h-1.055v-3.785
				c0-0.43-0.041-0.751-0.123-0.964s-0.228-0.383-0.437-0.51s-0.454-0.19-0.735-0.19c-0.449,0-0.837,0.143-1.163,0.428
				s-0.489,0.826-0.489,1.623v3.398H400.264z"/>
			<path fill="#3C3C3B" d="M410.999,160.644l1.037,0.135c-0.113,0.715-0.403,1.274-0.87,1.679s-1.04,0.606-1.72,0.606
				c-0.852,0-1.536-0.278-2.054-0.835s-0.776-1.354-0.776-2.394c0-0.672,0.111-1.26,0.334-1.764s0.562-0.882,1.017-1.134
				s0.95-0.378,1.485-0.378c0.676,0,1.229,0.171,1.658,0.513s0.705,0.827,0.826,1.456l-1.025,0.158
				c-0.098-0.418-0.271-0.732-0.519-0.943s-0.548-0.316-0.899-0.316c-0.531,0-0.963,0.19-1.295,0.571s-0.498,0.983-0.498,1.808
				c0,0.836,0.16,1.443,0.48,1.822s0.738,0.568,1.254,0.568c0.414,0,0.76-0.127,1.037-0.381S410.924,161.171,410.999,160.644z"/>
			<path fill="#3C3C3B" d="M412.944,155.546v-1.213h1.055v1.213H412.944z M412.944,162.923V156.7h1.055v6.223H412.944z"/>
			<path fill="#3C3C3B" d="M419.665,162.155c-0.391,0.332-0.767,0.566-1.128,0.703s-0.749,0.205-1.163,0.205
				c-0.684,0-1.209-0.167-1.576-0.501s-0.551-0.761-0.551-1.28c0-0.305,0.069-0.583,0.208-0.835s0.32-0.454,0.545-0.606
				s0.478-0.268,0.759-0.346c0.207-0.055,0.52-0.107,0.938-0.158c0.852-0.102,1.479-0.223,1.881-0.363
				c0.004-0.145,0.006-0.236,0.006-0.275c0-0.43-0.1-0.732-0.299-0.908c-0.27-0.238-0.67-0.357-1.201-0.357
				c-0.496,0-0.862,0.087-1.099,0.261s-0.411,0.481-0.524,0.923l-1.031-0.141c0.094-0.441,0.248-0.798,0.463-1.069
				s0.525-0.48,0.932-0.627s0.877-0.22,1.412-0.22c0.531,0,0.963,0.062,1.295,0.188s0.576,0.282,0.732,0.472
				s0.266,0.429,0.328,0.718c0.035,0.18,0.053,0.504,0.053,0.973v1.406c0,0.98,0.022,1.601,0.067,1.86s0.134,0.509,0.267,0.747
				h-1.102C419.766,162.704,419.696,162.448,419.665,162.155z M419.577,159.8c-0.383,0.156-0.957,0.289-1.723,0.398
				c-0.434,0.062-0.74,0.133-0.92,0.211s-0.318,0.192-0.416,0.343s-0.146,0.317-0.146,0.501c0,0.281,0.106,0.516,0.319,0.703
				s0.524,0.281,0.935,0.281c0.406,0,0.768-0.089,1.084-0.267s0.549-0.421,0.697-0.729c0.113-0.238,0.17-0.59,0.17-1.055V159.8z"/>
			<path fill="#3C3C3B" d="M427.715,162.923v-7.576h-2.83v-1.014h6.809v1.014h-2.842v7.576H427.715z"/>
			<path fill="#3C3C3B" d="M431.653,160.345v-1.061h3.24v1.061H431.653z"/>
			<path fill="#3C3C3B" d="M435.766,158.687c0-1.016,0.104-1.833,0.313-2.452s0.52-1.097,0.932-1.433s0.931-0.504,1.556-0.504
				c0.461,0,0.865,0.093,1.213,0.278s0.635,0.453,0.861,0.803s0.404,0.775,0.533,1.277s0.193,1.179,0.193,2.03
				c0,1.008-0.104,1.821-0.311,2.44s-0.517,1.098-0.929,1.436s-0.933,0.507-1.562,0.507c-0.828,0-1.479-0.297-1.951-0.891
				C436.049,161.464,435.766,160.3,435.766,158.687z M436.85,158.687c0,1.41,0.165,2.349,0.495,2.815s0.737,0.7,1.222,0.7
				s0.892-0.234,1.222-0.703s0.495-1.406,0.495-2.812c0-1.414-0.165-2.354-0.495-2.818s-0.741-0.697-1.233-0.697
				c-0.484,0-0.871,0.205-1.16,0.615C437.032,156.31,436.85,157.276,436.85,158.687z"/>
			<path fill="#3C3C3B" d="M445.821,162.923v-2.057h-3.727v-0.967l3.92-5.566h0.861v5.566h1.16v0.967h-1.16v2.057H445.821z
				 M445.821,159.899v-3.873l-2.689,3.873H445.821z"/>
			<path fill="#3C3C3B" d="M449.114,160.673l1.107-0.094c0.082,0.539,0.272,0.944,0.571,1.216s0.659,0.407,1.081,0.407
				c0.508,0,0.938-0.191,1.289-0.574s0.527-0.891,0.527-1.523c0-0.602-0.169-1.076-0.507-1.424s-0.78-0.521-1.327-0.521
				c-0.34,0-0.646,0.077-0.92,0.231s-0.488,0.354-0.645,0.601l-0.99-0.129l0.832-4.412h4.271v1.008h-3.428l-0.463,2.309
				c0.516-0.359,1.057-0.539,1.623-0.539c0.75,0,1.383,0.26,1.898,0.779s0.773,1.188,0.773,2.004c0,0.777-0.227,1.449-0.68,2.016
				c-0.551,0.695-1.303,1.043-2.256,1.043c-0.781,0-1.419-0.219-1.913-0.656S449.184,161.396,449.114,160.673z"/>
			<path fill="#3C3C3B" d="M463.452,162.923v-0.785c-0.395,0.617-0.975,0.926-1.74,0.926c-0.496,0-0.952-0.137-1.368-0.41
				s-0.738-0.655-0.967-1.146s-0.343-1.054-0.343-1.69c0-0.621,0.104-1.185,0.311-1.69s0.518-0.894,0.932-1.163
				s0.877-0.404,1.389-0.404c0.375,0,0.709,0.079,1.002,0.237s0.531,0.364,0.715,0.618v-3.082h1.049v8.59H463.452z M460.118,159.817
				c0,0.797,0.168,1.393,0.504,1.787s0.732,0.592,1.189,0.592c0.461,0,0.853-0.188,1.175-0.565s0.483-0.952,0.483-1.726
				c0-0.852-0.164-1.477-0.492-1.875s-0.732-0.598-1.213-0.598c-0.469,0-0.86,0.191-1.175,0.574S460.118,158.993,460.118,159.817z"
				/>
			<path fill="#3C3C3B" d="M470.348,160.919l1.09,0.135c-0.172,0.637-0.49,1.131-0.955,1.482s-1.059,0.527-1.781,0.527
				c-0.91,0-1.632-0.28-2.165-0.841s-0.8-1.347-0.8-2.358c0-1.047,0.27-1.859,0.809-2.438s1.238-0.867,2.098-0.867
				c0.832,0,1.512,0.283,2.039,0.85s0.791,1.363,0.791,2.391c0,0.062-0.002,0.156-0.006,0.281h-4.641
				c0.039,0.684,0.232,1.207,0.58,1.57s0.781,0.545,1.301,0.545c0.387,0,0.717-0.102,0.99-0.305S470.188,161.364,470.348,160.919z
				 M466.885,159.214h3.475c-0.047-0.523-0.18-0.916-0.398-1.178c-0.336-0.406-0.771-0.609-1.307-0.609
				c-0.484,0-0.892,0.162-1.222,0.486S466.92,158.671,466.885,159.214z"/>
			<path fill="#3C3C3B" d="M481.346,161.909v1.014h-5.678c-0.008-0.254,0.033-0.498,0.123-0.732
				c0.145-0.387,0.376-0.768,0.694-1.143s0.778-0.809,1.38-1.301c0.934-0.766,1.564-1.372,1.893-1.819s0.492-0.87,0.492-1.269
				c0-0.418-0.149-0.771-0.448-1.058s-0.688-0.431-1.169-0.431c-0.508,0-0.914,0.152-1.219,0.457s-0.459,0.727-0.463,1.266
				l-1.084-0.111c0.074-0.809,0.354-1.425,0.838-1.849s1.135-0.636,1.951-0.636c0.824,0,1.477,0.229,1.957,0.686
				s0.721,1.023,0.721,1.699c0,0.344-0.07,0.682-0.211,1.014s-0.374,0.682-0.7,1.049s-0.868,0.871-1.626,1.512
				c-0.633,0.531-1.039,0.892-1.219,1.081s-0.328,0.38-0.445,0.571H481.346z"/>
			<path fill="#3C3C3B" d="M482.477,158.687c0-1.016,0.104-1.833,0.313-2.452s0.52-1.097,0.932-1.433s0.931-0.504,1.556-0.504
				c0.461,0,0.865,0.093,1.213,0.278s0.635,0.453,0.861,0.803s0.404,0.775,0.533,1.277s0.193,1.179,0.193,2.03
				c0,1.008-0.104,1.821-0.311,2.44s-0.517,1.098-0.929,1.436s-0.933,0.507-1.562,0.507c-0.828,0-1.479-0.297-1.951-0.891
				C482.76,161.464,482.477,160.3,482.477,158.687z M483.561,158.687c0,1.41,0.165,2.349,0.495,2.815s0.737,0.7,1.222,0.7
				s0.892-0.234,1.222-0.703s0.495-1.406,0.495-2.812c0-1.414-0.165-2.354-0.495-2.818s-0.741-0.697-1.233-0.697
				c-0.484,0-0.871,0.205-1.16,0.615C483.743,156.31,483.561,157.276,483.561,158.687z"/>
			<path fill="#3C3C3B" d="M493.124,162.923h-1.055v-6.721c-0.254,0.242-0.587,0.484-0.999,0.727s-0.782,0.424-1.11,0.545v-1.02
				c0.59-0.277,1.105-0.613,1.547-1.008s0.754-0.777,0.938-1.148h0.68V162.923z"/>
			<path fill="#3C3C3B" d="M495.825,158.687c0-1.016,0.104-1.833,0.313-2.452s0.52-1.097,0.932-1.433s0.931-0.504,1.556-0.504
				c0.461,0,0.865,0.093,1.213,0.278s0.635,0.453,0.861,0.803s0.404,0.775,0.533,1.277s0.193,1.179,0.193,2.03
				c0,1.008-0.104,1.821-0.311,2.44s-0.517,1.098-0.929,1.436s-0.933,0.507-1.562,0.507c-0.828,0-1.479-0.297-1.951-0.891
				C496.108,161.464,495.825,160.3,495.825,158.687z M496.909,158.687c0,1.41,0.165,2.349,0.495,2.815s0.737,0.7,1.222,0.7
				s0.892-0.234,1.222-0.703s0.495-1.406,0.495-2.812c0-1.414-0.165-2.354-0.495-2.818s-0.741-0.697-1.233-0.697
				c-0.484,0-0.871,0.205-1.16,0.615C497.09,156.31,496.909,157.276,496.909,158.687z"/>
		</g>
	</g>
</g>
</svg>
