<?xml version="1.0" encoding="utf-8"?>
<!-- Generator: Adobe Illustrator 16.0.0, SVG Export Plug-In . SVG Version: 6.00 Build 0)  -->
<!DOCTYPE svg PUBLIC "-//W3C//DTD SVG 1.1//EN" "http://www.w3.org/Graphics/SVG/1.1/DTD/svg11.dtd">
<svg version="1.1" id="Capa_1" xmlns="http://www.w3.org/2000/svg" xmlns:xlink="http://www.w3.org/1999/xlink" x="0px" y="0px"
	 width="576.591px" height="205.631px" viewBox="0 0 576.591 205.631" enable-background="new 0 0 576.591 205.631"
	 xml:space="preserve">
<g>
	<g>
		<g>
			<path fill="#3C3C3B" d="M287.029,163.356l1.43-0.125c0.067,0.573,0.225,1.043,0.473,1.41c0.247,0.367,0.631,0.664,1.152,0.891
				c0.521,0.227,1.106,0.34,1.758,0.34c0.578,0,1.088-0.086,1.531-0.258c0.442-0.172,0.772-0.407,0.988-0.707
				c0.216-0.3,0.324-0.626,0.324-0.98c0-0.359-0.104-0.673-0.312-0.941c-0.208-0.269-0.552-0.493-1.031-0.676
				c-0.308-0.12-0.987-0.306-2.039-0.559c-1.052-0.253-1.789-0.491-2.211-0.715c-0.547-0.286-0.955-0.642-1.223-1.066
				c-0.269-0.425-0.402-0.899-0.402-1.426c0-0.578,0.164-1.118,0.492-1.621s0.807-0.884,1.438-1.145
				c0.63-0.261,1.331-0.391,2.102-0.391c0.849,0,1.598,0.137,2.246,0.41s1.147,0.676,1.496,1.207
				c0.349,0.531,0.536,1.133,0.562,1.805l-1.453,0.109c-0.078-0.724-0.343-1.271-0.793-1.641c-0.451-0.37-1.116-0.555-1.996-0.555
				c-0.917,0-1.585,0.168-2.004,0.504c-0.419,0.336-0.629,0.741-0.629,1.215c0,0.411,0.148,0.75,0.445,1.016
				c0.292,0.266,1.053,0.538,2.285,0.816c1.231,0.278,2.077,0.522,2.535,0.73c0.667,0.308,1.159,0.696,1.477,1.168
				c0.317,0.472,0.477,1.015,0.477,1.629c0,0.609-0.175,1.184-0.523,1.723c-0.349,0.539-0.851,0.958-1.504,1.258
				c-0.654,0.3-1.39,0.449-2.207,0.449c-1.037,0-1.905-0.151-2.605-0.453c-0.701-0.302-1.25-0.757-1.648-1.363
				S287.049,164.122,287.029,163.356z"/>
			<path fill="#3C3C3B" d="M303.716,164.364l1.453,0.18c-0.229,0.849-0.654,1.508-1.273,1.977c-0.62,0.469-1.412,0.703-2.375,0.703
				c-1.214,0-2.176-0.374-2.887-1.121s-1.066-1.796-1.066-3.145c0-1.396,0.359-2.479,1.078-3.25s1.651-1.156,2.797-1.156
				c1.109,0,2.016,0.378,2.719,1.133s1.055,1.817,1.055,3.188c0,0.083-0.003,0.208-0.008,0.375h-6.188
				c0.052,0.911,0.31,1.609,0.773,2.094c0.463,0.484,1.042,0.727,1.734,0.727c0.516,0,0.956-0.136,1.32-0.406
				C303.213,165.391,303.502,164.958,303.716,164.364z M299.099,162.091h4.633c-0.062-0.698-0.24-1.222-0.531-1.57
				c-0.448-0.542-1.029-0.812-1.742-0.812c-0.646,0-1.189,0.216-1.629,0.648C299.389,160.789,299.146,161.367,299.099,162.091z"/>
			<path fill="#3C3C3B" d="M306.935,167.036v-8.297h1.266v1.18c0.609-0.911,1.489-1.367,2.641-1.367c0.5,0,0.959,0.09,1.379,0.27
				c0.419,0.18,0.733,0.415,0.941,0.707c0.208,0.292,0.354,0.638,0.438,1.039c0.052,0.261,0.078,0.716,0.078,1.367v5.102h-1.406
				v-5.047c0-0.573-0.055-1.001-0.164-1.285s-0.304-0.511-0.582-0.68c-0.279-0.169-0.605-0.254-0.98-0.254
				c-0.599,0-1.116,0.19-1.551,0.57c-0.435,0.38-0.652,1.102-0.652,2.164v4.531H306.935z"/>
			<path fill="#3C3C3B" d="M318.904,165.778l0.203,1.242c-0.396,0.083-0.75,0.125-1.062,0.125c-0.511,0-0.906-0.081-1.188-0.242
				s-0.479-0.374-0.594-0.637c-0.115-0.263-0.172-0.816-0.172-1.66v-4.773h-1.031v-1.094h1.031v-2.055l1.398-0.844v2.898h1.414
				v1.094h-1.414v4.852c0,0.401,0.024,0.659,0.074,0.773c0.049,0.114,0.13,0.206,0.242,0.273c0.112,0.067,0.272,0.102,0.48,0.102
				C318.443,165.833,318.648,165.814,318.904,165.778z"/>
			<path fill="#3C3C3B" d="M325.958,164.364l1.453,0.18c-0.229,0.849-0.654,1.508-1.273,1.977c-0.62,0.469-1.412,0.703-2.375,0.703
				c-1.214,0-2.176-0.374-2.887-1.121s-1.066-1.796-1.066-3.145c0-1.396,0.359-2.479,1.078-3.25s1.651-1.156,2.797-1.156
				c1.109,0,2.016,0.378,2.719,1.133s1.055,1.817,1.055,3.188c0,0.083-0.003,0.208-0.008,0.375h-6.188
				c0.052,0.911,0.31,1.609,0.773,2.094c0.463,0.484,1.042,0.727,1.734,0.727c0.516,0,0.956-0.136,1.32-0.406
				C325.456,165.391,325.745,164.958,325.958,164.364z M321.341,162.091h4.633c-0.062-0.698-0.24-1.222-0.531-1.57
				c-0.448-0.542-1.029-0.812-1.742-0.812c-0.646,0-1.189,0.216-1.629,0.648C321.631,160.789,321.388,161.367,321.341,162.091z"/>
			<path fill="#3C3C3B" d="M329.177,167.036v-8.297h1.266v1.18c0.609-0.911,1.489-1.367,2.641-1.367c0.5,0,0.959,0.09,1.379,0.27
				c0.419,0.18,0.733,0.415,0.941,0.707c0.208,0.292,0.354,0.638,0.438,1.039c0.052,0.261,0.078,0.716,0.078,1.367v5.102h-1.406
				v-5.047c0-0.573-0.055-1.001-0.164-1.285s-0.304-0.511-0.582-0.68c-0.279-0.169-0.605-0.254-0.98-0.254
				c-0.599,0-1.116,0.19-1.551,0.57c-0.435,0.38-0.652,1.102-0.652,2.164v4.531H329.177z"/>
			<path fill="#3C3C3B" d="M343.49,163.997l1.383,0.18c-0.151,0.953-0.538,1.699-1.16,2.238c-0.623,0.539-1.387,0.809-2.293,0.809
				c-1.136,0-2.048-0.371-2.738-1.113c-0.69-0.742-1.035-1.806-1.035-3.191c0-0.896,0.148-1.68,0.445-2.352s0.749-1.176,1.355-1.512
				c0.606-0.336,1.267-0.504,1.98-0.504c0.901,0,1.638,0.228,2.211,0.684c0.573,0.456,0.94,1.103,1.102,1.941l-1.367,0.211
				c-0.13-0.558-0.361-0.977-0.691-1.258c-0.331-0.281-0.73-0.422-1.199-0.422c-0.708,0-1.284,0.254-1.727,0.762
				c-0.443,0.508-0.664,1.312-0.664,2.41c0,1.114,0.213,1.925,0.641,2.43c0.427,0.505,0.984,0.758,1.672,0.758
				c0.552,0,1.013-0.169,1.383-0.508C343.156,165.221,343.391,164.7,343.49,163.997z"/>
			<path fill="#3C3C3B" d="M346.083,157.2v-1.617h1.406v1.617H346.083z M346.083,167.036v-8.297h1.406v8.297H346.083z"/>
			<path fill="#3C3C3B" d="M355.044,166.013c-0.521,0.442-1.022,0.755-1.504,0.938c-0.482,0.183-0.999,0.273-1.551,0.273
				c-0.912,0-1.612-0.223-2.102-0.668c-0.49-0.445-0.734-1.015-0.734-1.707c0-0.406,0.092-0.777,0.277-1.113
				c0.185-0.336,0.427-0.605,0.727-0.809c0.299-0.203,0.637-0.356,1.012-0.461c0.276-0.073,0.692-0.144,1.25-0.211
				c1.135-0.136,1.971-0.297,2.508-0.484c0.005-0.192,0.008-0.315,0.008-0.367c0-0.573-0.133-0.977-0.398-1.211
				c-0.359-0.317-0.894-0.477-1.602-0.477c-0.662,0-1.15,0.116-1.465,0.348c-0.315,0.231-0.548,0.642-0.699,1.23l-1.375-0.188
				c0.125-0.589,0.331-1.063,0.617-1.426c0.286-0.362,0.7-0.641,1.242-0.836c0.542-0.195,1.169-0.293,1.883-0.293
				c0.708,0,1.284,0.083,1.727,0.25c0.442,0.167,0.768,0.376,0.977,0.629c0.208,0.253,0.354,0.571,0.438,0.957
				c0.047,0.239,0.07,0.672,0.07,1.297v1.875c0,1.308,0.03,2.134,0.09,2.48c0.06,0.347,0.178,0.679,0.355,0.996h-1.469
				C355.18,166.744,355.086,166.403,355.044,166.013z M354.927,162.872c-0.511,0.208-1.276,0.386-2.297,0.531
				c-0.578,0.083-0.987,0.177-1.227,0.281c-0.24,0.104-0.425,0.257-0.555,0.457c-0.13,0.2-0.195,0.423-0.195,0.668
				c0,0.375,0.142,0.688,0.426,0.938c0.284,0.25,0.699,0.375,1.246,0.375c0.542,0,1.023-0.118,1.445-0.355s0.731-0.562,0.93-0.973
				c0.151-0.317,0.227-0.786,0.227-1.406V162.872z"/>
			<path fill="#3C3C3B" d="M365.779,167.036v-10.102h-3.773v-1.352h9.078v1.352h-3.789v10.102H365.779z"/>
			<path fill="#3C3C3B" d="M371.029,163.599v-1.414h4.32v1.414H371.029z"/>
			<path fill="#3C3C3B" d="M376.513,161.388c0-1.354,0.139-2.444,0.418-3.27c0.278-0.825,0.692-1.462,1.242-1.91
				c0.549-0.448,1.241-0.672,2.074-0.672c0.614,0,1.153,0.124,1.617,0.371c0.463,0.247,0.846,0.604,1.148,1.07
				c0.302,0.466,0.539,1.034,0.711,1.703s0.258,1.571,0.258,2.707c0,1.344-0.138,2.429-0.414,3.254
				c-0.276,0.825-0.689,1.464-1.238,1.914c-0.55,0.45-1.244,0.676-2.082,0.676c-1.104,0-1.972-0.396-2.602-1.188
				C376.891,165.091,376.513,163.539,376.513,161.388z M377.958,161.388c0,1.88,0.22,3.132,0.66,3.754
				c0.44,0.622,0.983,0.934,1.629,0.934c0.646,0,1.188-0.312,1.629-0.938c0.44-0.625,0.66-1.875,0.66-3.75
				c0-1.886-0.22-3.138-0.66-3.758c-0.44-0.62-0.988-0.93-1.645-0.93c-0.646,0-1.162,0.273-1.547,0.82
				C378.201,158.219,377.958,159.508,377.958,161.388z"/>
			<path fill="#3C3C3B" d="M389.919,167.036v-2.742h-4.969v-1.289l5.227-7.422h1.148v7.422h1.547v1.289h-1.547v2.742H389.919z
				 M389.919,163.005v-5.164l-3.586,5.164H389.919z"/>
			<path fill="#3C3C3B" d="M394.31,164.036l1.477-0.125c0.109,0.719,0.363,1.259,0.762,1.621s0.879,0.543,1.441,0.543
				c0.677,0,1.25-0.255,1.719-0.766s0.703-1.188,0.703-2.031c0-0.802-0.226-1.435-0.676-1.898c-0.451-0.464-1.041-0.695-1.77-0.695
				c-0.453,0-0.862,0.103-1.227,0.309c-0.365,0.206-0.651,0.473-0.859,0.801l-1.32-0.172l1.109-5.883h5.695v1.344h-4.57
				l-0.617,3.078c0.688-0.479,1.409-0.719,2.164-0.719c1,0,1.844,0.347,2.531,1.039s1.031,1.583,1.031,2.672
				c0,1.036-0.302,1.933-0.906,2.688c-0.734,0.927-1.737,1.391-3.008,1.391c-1.042,0-1.892-0.292-2.551-0.875
				C394.78,165.773,394.404,165,394.31,164.036z"/>
			<path fill="#3C3C3B" d="M413.427,167.036v-1.047c-0.526,0.823-1.3,1.234-2.32,1.234c-0.662,0-1.27-0.183-1.824-0.547
				s-0.984-0.874-1.289-1.527s-0.457-1.405-0.457-2.254c0-0.828,0.138-1.579,0.414-2.254c0.276-0.675,0.69-1.191,1.242-1.551
				c0.552-0.359,1.169-0.539,1.852-0.539c0.5,0,0.945,0.105,1.336,0.316s0.708,0.485,0.953,0.824v-4.109h1.398v11.453H413.427z
				 M408.982,162.896c0,1.062,0.224,1.856,0.672,2.383c0.448,0.526,0.977,0.789,1.586,0.789c0.614,0,1.137-0.251,1.566-0.754
				s0.645-1.27,0.645-2.301c0-1.136-0.219-1.969-0.656-2.5s-0.977-0.797-1.617-0.797c-0.625,0-1.147,0.255-1.566,0.766
				C409.191,160.992,408.982,161.797,408.982,162.896z"/>
			<path fill="#3C3C3B" d="M422.623,164.364l1.453,0.18c-0.229,0.849-0.654,1.508-1.273,1.977c-0.62,0.469-1.412,0.703-2.375,0.703
				c-1.214,0-2.176-0.374-2.887-1.121s-1.066-1.796-1.066-3.145c0-1.396,0.359-2.479,1.078-3.25s1.651-1.156,2.797-1.156
				c1.109,0,2.016,0.378,2.719,1.133s1.055,1.817,1.055,3.188c0,0.083-0.003,0.208-0.008,0.375h-6.188
				c0.052,0.911,0.31,1.609,0.773,2.094c0.463,0.484,1.042,0.727,1.734,0.727c0.516,0,0.956-0.136,1.32-0.406
				C422.12,165.391,422.409,164.958,422.623,164.364z M418.005,162.091h4.633c-0.062-0.698-0.24-1.222-0.531-1.57
				c-0.448-0.542-1.029-0.812-1.742-0.812c-0.646,0-1.189,0.216-1.629,0.648C418.295,160.789,418.052,161.367,418.005,162.091z"/>
			<path fill="#3C3C3B" d="M437.287,165.685v1.352h-7.57c-0.011-0.339,0.044-0.664,0.164-0.977c0.192-0.516,0.501-1.023,0.926-1.523
				c0.424-0.5,1.038-1.078,1.84-1.734c1.245-1.021,2.086-1.829,2.523-2.426s0.656-1.16,0.656-1.691c0-0.558-0.199-1.027-0.598-1.41
				s-0.918-0.574-1.559-0.574c-0.677,0-1.219,0.203-1.625,0.609s-0.612,0.969-0.617,1.688l-1.445-0.148
				c0.099-1.078,0.471-1.899,1.117-2.465c0.646-0.565,1.513-0.848,2.602-0.848c1.099,0,1.969,0.305,2.609,0.914
				s0.961,1.364,0.961,2.266c0,0.458-0.094,0.909-0.281,1.352s-0.499,0.909-0.934,1.398c-0.435,0.489-1.158,1.161-2.168,2.016
				c-0.844,0.708-1.386,1.188-1.625,1.441c-0.24,0.253-0.438,0.507-0.594,0.762H437.287z"/>
			<path fill="#3C3C3B" d="M438.794,161.388c0-1.354,0.139-2.444,0.418-3.27c0.278-0.825,0.692-1.462,1.242-1.91
				c0.549-0.448,1.241-0.672,2.074-0.672c0.614,0,1.153,0.124,1.617,0.371c0.463,0.247,0.846,0.604,1.148,1.07
				c0.302,0.466,0.539,1.034,0.711,1.703s0.258,1.571,0.258,2.707c0,1.344-0.138,2.429-0.414,3.254
				c-0.276,0.825-0.689,1.464-1.238,1.914c-0.55,0.45-1.244,0.676-2.082,0.676c-1.104,0-1.972-0.396-2.602-1.188
				C439.172,165.091,438.794,163.539,438.794,161.388z M440.24,161.388c0,1.88,0.22,3.132,0.66,3.754
				c0.44,0.622,0.983,0.934,1.629,0.934c0.646,0,1.188-0.312,1.629-0.938c0.44-0.625,0.66-1.875,0.66-3.75
				c0-1.886-0.22-3.138-0.66-3.758c-0.44-0.62-0.988-0.93-1.645-0.93c-0.646,0-1.162,0.273-1.547,0.82
				C440.482,158.219,440.24,159.508,440.24,161.388z"/>
			<path fill="#3C3C3B" d="M452.99,167.036h-1.406v-8.961c-0.339,0.323-0.783,0.646-1.332,0.969c-0.55,0.323-1.043,0.565-1.48,0.727
				v-1.359c0.786-0.37,1.474-0.817,2.062-1.344c0.588-0.526,1.005-1.036,1.25-1.531h0.906V167.036z"/>
			<path fill="#3C3C3B" d="M456.591,161.388c0-1.354,0.139-2.444,0.418-3.27c0.278-0.825,0.692-1.462,1.242-1.91
				c0.549-0.448,1.241-0.672,2.074-0.672c0.614,0,1.153,0.124,1.617,0.371c0.463,0.247,0.846,0.604,1.148,1.07
				c0.302,0.466,0.539,1.034,0.711,1.703s0.258,1.571,0.258,2.707c0,1.344-0.138,2.429-0.414,3.254
				c-0.276,0.825-0.689,1.464-1.238,1.914c-0.55,0.45-1.244,0.676-2.082,0.676c-1.104,0-1.972-0.396-2.602-1.188
				C456.969,165.091,456.591,163.539,456.591,161.388z M458.037,161.388c0,1.88,0.22,3.132,0.66,3.754
				c0.44,0.622,0.983,0.934,1.629,0.934c0.646,0,1.188-0.312,1.629-0.938c0.44-0.625,0.66-1.875,0.66-3.75
				c0-1.886-0.22-3.138-0.66-3.758c-0.44-0.62-0.988-0.93-1.645-0.93c-0.646,0-1.162,0.273-1.547,0.82
				C458.279,158.219,458.037,159.508,458.037,161.388z"/>
			<path fill="#3C3C3B" d="M287.029,182.557l1.43-0.125c0.067,0.573,0.225,1.043,0.473,1.41c0.247,0.367,0.631,0.664,1.152,0.891
				c0.521,0.227,1.106,0.34,1.758,0.34c0.578,0,1.088-0.086,1.531-0.258c0.442-0.172,0.772-0.407,0.988-0.707
				c0.216-0.3,0.324-0.626,0.324-0.98c0-0.359-0.104-0.673-0.312-0.941c-0.208-0.269-0.552-0.493-1.031-0.676
				c-0.308-0.12-0.987-0.306-2.039-0.559c-1.052-0.253-1.789-0.491-2.211-0.715c-0.547-0.286-0.955-0.642-1.223-1.066
				c-0.269-0.425-0.402-0.899-0.402-1.426c0-0.578,0.164-1.118,0.492-1.621s0.807-0.884,1.438-1.145
				c0.63-0.261,1.331-0.391,2.102-0.391c0.849,0,1.598,0.137,2.246,0.41s1.147,0.676,1.496,1.207
				c0.349,0.531,0.536,1.133,0.562,1.805l-1.453,0.109c-0.078-0.724-0.343-1.271-0.793-1.641c-0.451-0.37-1.116-0.555-1.996-0.555
				c-0.917,0-1.585,0.168-2.004,0.504c-0.419,0.336-0.629,0.741-0.629,1.215c0,0.411,0.148,0.75,0.445,1.016
				c0.292,0.266,1.053,0.538,2.285,0.816c1.231,0.278,2.077,0.522,2.535,0.73c0.667,0.308,1.159,0.696,1.477,1.168
				c0.317,0.472,0.477,1.015,0.477,1.629c0,0.609-0.175,1.184-0.523,1.723c-0.349,0.539-0.851,0.958-1.504,1.258
				c-0.654,0.3-1.39,0.449-2.207,0.449c-1.037,0-1.905-0.151-2.605-0.453c-0.701-0.302-1.25-0.757-1.648-1.363
				S287.049,183.322,287.029,182.557z"/>
			<path fill="#3C3C3B" d="M303.716,183.564l1.453,0.18c-0.229,0.849-0.654,1.508-1.273,1.977c-0.62,0.469-1.412,0.703-2.375,0.703
				c-1.214,0-2.176-0.374-2.887-1.121s-1.066-1.796-1.066-3.145c0-1.396,0.359-2.479,1.078-3.25s1.651-1.156,2.797-1.156
				c1.109,0,2.016,0.378,2.719,1.133s1.055,1.817,1.055,3.188c0,0.083-0.003,0.208-0.008,0.375h-6.188
				c0.052,0.911,0.31,1.609,0.773,2.094c0.463,0.484,1.042,0.727,1.734,0.727c0.516,0,0.956-0.136,1.32-0.406
				C303.213,184.591,303.502,184.158,303.716,183.564z M299.099,181.291h4.633c-0.062-0.698-0.24-1.222-0.531-1.57
				c-0.448-0.542-1.029-0.812-1.742-0.812c-0.646,0-1.189,0.216-1.629,0.648C299.389,179.989,299.146,180.567,299.099,181.291z"/>
			<path fill="#3C3C3B" d="M306.935,186.236v-8.297h1.266v1.18c0.609-0.911,1.489-1.367,2.641-1.367c0.5,0,0.959,0.09,1.379,0.27
				c0.419,0.18,0.733,0.415,0.941,0.707c0.208,0.292,0.354,0.638,0.438,1.039c0.052,0.261,0.078,0.716,0.078,1.367v5.102h-1.406
				v-5.047c0-0.573-0.055-1.001-0.164-1.285s-0.304-0.511-0.582-0.68c-0.279-0.169-0.605-0.254-0.98-0.254
				c-0.599,0-1.116,0.19-1.551,0.57c-0.435,0.38-0.652,1.102-0.652,2.164v4.531H306.935z"/>
			<path fill="#3C3C3B" d="M318.904,184.979l0.203,1.242c-0.396,0.083-0.75,0.125-1.062,0.125c-0.511,0-0.906-0.081-1.188-0.242
				s-0.479-0.374-0.594-0.637c-0.115-0.263-0.172-0.816-0.172-1.66v-4.773h-1.031v-1.094h1.031v-2.055l1.398-0.844v2.898h1.414
				v1.094h-1.414v4.852c0,0.401,0.024,0.659,0.074,0.773c0.049,0.114,0.13,0.206,0.242,0.273c0.112,0.067,0.272,0.102,0.48,0.102
				C318.443,185.033,318.648,185.015,318.904,184.979z"/>
			<path fill="#3C3C3B" d="M325.958,183.564l1.453,0.18c-0.229,0.849-0.654,1.508-1.273,1.977c-0.62,0.469-1.412,0.703-2.375,0.703
				c-1.214,0-2.176-0.374-2.887-1.121s-1.066-1.796-1.066-3.145c0-1.396,0.359-2.479,1.078-3.25s1.651-1.156,2.797-1.156
				c1.109,0,2.016,0.378,2.719,1.133s1.055,1.817,1.055,3.188c0,0.083-0.003,0.208-0.008,0.375h-6.188
				c0.052,0.911,0.31,1.609,0.773,2.094c0.463,0.484,1.042,0.727,1.734,0.727c0.516,0,0.956-0.136,1.32-0.406
				C325.456,184.591,325.745,184.158,325.958,183.564z M321.341,181.291h4.633c-0.062-0.698-0.24-1.222-0.531-1.57
				c-0.448-0.542-1.029-0.812-1.742-0.812c-0.646,0-1.189,0.216-1.629,0.648C321.631,179.989,321.388,180.567,321.341,181.291z"/>
			<path fill="#3C3C3B" d="M329.177,186.236v-8.297h1.266v1.18c0.609-0.911,1.489-1.367,2.641-1.367c0.5,0,0.959,0.09,1.379,0.27
				c0.419,0.18,0.733,0.415,0.941,0.707c0.208,0.292,0.354,0.638,0.438,1.039c0.052,0.261,0.078,0.716,0.078,1.367v5.102h-1.406
				v-5.047c0-0.573-0.055-1.001-0.164-1.285s-0.304-0.511-0.582-0.68c-0.279-0.169-0.605-0.254-0.98-0.254
				c-0.599,0-1.116,0.19-1.551,0.57c-0.435,0.38-0.652,1.102-0.652,2.164v4.531H329.177z"/>
			<path fill="#3C3C3B" d="M343.49,183.197l1.383,0.18c-0.151,0.953-0.538,1.699-1.16,2.238c-0.623,0.539-1.387,0.809-2.293,0.809
				c-1.136,0-2.048-0.371-2.738-1.113c-0.69-0.742-1.035-1.806-1.035-3.191c0-0.896,0.148-1.68,0.445-2.352s0.749-1.176,1.355-1.512
				c0.606-0.336,1.267-0.504,1.98-0.504c0.901,0,1.638,0.228,2.211,0.684c0.573,0.456,0.94,1.103,1.102,1.941l-1.367,0.211
				c-0.13-0.558-0.361-0.977-0.691-1.258c-0.331-0.281-0.73-0.422-1.199-0.422c-0.708,0-1.284,0.254-1.727,0.762
				c-0.443,0.508-0.664,1.312-0.664,2.41c0,1.114,0.213,1.925,0.641,2.43c0.427,0.505,0.984,0.758,1.672,0.758
				c0.552,0,1.013-0.169,1.383-0.508C343.156,184.421,343.391,183.9,343.49,183.197z"/>
			<path fill="#3C3C3B" d="M346.083,176.4v-1.617h1.406v1.617H346.083z M346.083,186.236v-8.297h1.406v8.297H346.083z"/>
			<path fill="#3C3C3B" d="M355.044,185.213c-0.521,0.442-1.022,0.755-1.504,0.938c-0.482,0.183-0.999,0.273-1.551,0.273
				c-0.912,0-1.612-0.223-2.102-0.668c-0.49-0.445-0.734-1.015-0.734-1.707c0-0.406,0.092-0.777,0.277-1.113
				c0.185-0.336,0.427-0.605,0.727-0.809c0.299-0.203,0.637-0.356,1.012-0.461c0.276-0.073,0.692-0.144,1.25-0.211
				c1.135-0.136,1.971-0.297,2.508-0.484c0.005-0.192,0.008-0.315,0.008-0.367c0-0.573-0.133-0.977-0.398-1.211
				c-0.359-0.317-0.894-0.477-1.602-0.477c-0.662,0-1.15,0.116-1.465,0.348c-0.315,0.231-0.548,0.642-0.699,1.23l-1.375-0.188
				c0.125-0.589,0.331-1.063,0.617-1.426c0.286-0.362,0.7-0.641,1.242-0.836c0.542-0.195,1.169-0.293,1.883-0.293
				c0.708,0,1.284,0.083,1.727,0.25c0.442,0.167,0.768,0.376,0.977,0.629c0.208,0.253,0.354,0.571,0.438,0.957
				c0.047,0.239,0.07,0.672,0.07,1.297v1.875c0,1.308,0.03,2.134,0.09,2.48c0.06,0.347,0.178,0.679,0.355,0.996h-1.469
				C355.18,185.944,355.086,185.604,355.044,185.213z M354.927,182.072c-0.511,0.208-1.276,0.386-2.297,0.531
				c-0.578,0.083-0.987,0.177-1.227,0.281c-0.24,0.104-0.425,0.257-0.555,0.457c-0.13,0.2-0.195,0.423-0.195,0.668
				c0,0.375,0.142,0.688,0.426,0.938c0.284,0.25,0.699,0.375,1.246,0.375c0.542,0,1.023-0.118,1.445-0.355s0.731-0.562,0.93-0.973
				c0.151-0.317,0.227-0.786,0.227-1.406V182.072z"/>
			<path fill="#3C3C3B" d="M357.966,183.76l1.391-0.219c0.078,0.558,0.295,0.984,0.652,1.281c0.356,0.297,0.855,0.445,1.496,0.445
				c0.646,0,1.125-0.132,1.438-0.395s0.469-0.571,0.469-0.926c0-0.317-0.138-0.567-0.414-0.75c-0.193-0.125-0.672-0.284-1.438-0.477
				c-1.031-0.261-1.746-0.485-2.145-0.676s-0.701-0.453-0.906-0.789c-0.206-0.336-0.309-0.707-0.309-1.113
				c0-0.37,0.084-0.712,0.254-1.027c0.169-0.315,0.399-0.577,0.691-0.785c0.219-0.161,0.517-0.298,0.895-0.41
				c0.377-0.112,0.782-0.168,1.215-0.168c0.651,0,1.223,0.094,1.715,0.281s0.855,0.441,1.09,0.762s0.396,0.749,0.484,1.285
				l-1.375,0.188c-0.062-0.427-0.244-0.761-0.543-1c-0.3-0.239-0.723-0.359-1.27-0.359c-0.646,0-1.107,0.106-1.383,0.32
				c-0.276,0.214-0.414,0.464-0.414,0.75c0,0.183,0.057,0.347,0.172,0.492c0.114,0.151,0.294,0.276,0.539,0.375
				c0.141,0.052,0.555,0.172,1.242,0.359c0.995,0.266,1.688,0.483,2.082,0.652c0.393,0.169,0.702,0.415,0.926,0.738
				c0.224,0.323,0.336,0.724,0.336,1.203c0,0.469-0.137,0.91-0.41,1.324s-0.668,0.734-1.184,0.961s-1.099,0.34-1.75,0.34
				c-1.078,0-1.9-0.224-2.465-0.672C358.483,185.304,358.123,184.64,357.966,183.76z"/>
			<path fill="#3C3C3B" d="M376.357,186.236v-1.047c-0.526,0.823-1.3,1.234-2.32,1.234c-0.662,0-1.27-0.183-1.824-0.547
				s-0.984-0.874-1.289-1.527s-0.457-1.405-0.457-2.254c0-0.828,0.138-1.579,0.414-2.254c0.276-0.675,0.69-1.191,1.242-1.551
				c0.552-0.359,1.169-0.539,1.852-0.539c0.5,0,0.945,0.105,1.336,0.316s0.708,0.485,0.953,0.824v-4.109h1.398v11.453H376.357z
				 M371.912,182.096c0,1.062,0.224,1.856,0.672,2.383c0.448,0.526,0.977,0.789,1.586,0.789c0.614,0,1.137-0.251,1.566-0.754
				s0.645-1.27,0.645-2.301c0-1.136-0.219-1.969-0.656-2.5s-0.977-0.797-1.617-0.797c-0.625,0-1.147,0.255-1.566,0.766
				C372.121,180.192,371.912,180.997,371.912,182.096z"/>
			<path fill="#3C3C3B" d="M385.552,183.564l1.453,0.18c-0.229,0.849-0.654,1.508-1.273,1.977c-0.62,0.469-1.412,0.703-2.375,0.703
				c-1.214,0-2.176-0.374-2.887-1.121s-1.066-1.796-1.066-3.145c0-1.396,0.359-2.479,1.078-3.25s1.651-1.156,2.797-1.156
				c1.109,0,2.016,0.378,2.719,1.133s1.055,1.817,1.055,3.188c0,0.083-0.003,0.208-0.008,0.375h-6.188
				c0.052,0.911,0.31,1.609,0.773,2.094c0.463,0.484,1.042,0.727,1.734,0.727c0.516,0,0.956-0.136,1.32-0.406
				C385.049,184.591,385.338,184.158,385.552,183.564z M380.935,181.291h4.633c-0.062-0.698-0.24-1.222-0.531-1.57
				c-0.448-0.542-1.029-0.812-1.742-0.812c-0.646,0-1.189,0.216-1.629,0.648C381.225,179.989,380.982,180.567,380.935,181.291z"/>
			<path fill="#3C3C3B" d="M392.623,182.986l1.367-0.188c0.036,0.875,0.2,1.474,0.492,1.797c0.292,0.323,0.695,0.484,1.211,0.484
				c0.38,0,0.708-0.087,0.984-0.262c0.276-0.175,0.466-0.411,0.57-0.711c0.104-0.3,0.156-0.777,0.156-1.434v-7.891h1.516v7.805
				c0,0.958-0.116,1.7-0.348,2.227c-0.232,0.526-0.599,0.927-1.102,1.203c-0.503,0.276-1.093,0.414-1.77,0.414
				c-1.005,0-1.775-0.289-2.309-0.867C392.858,184.986,392.602,184.127,392.623,182.986z"/>
			<path fill="#3C3C3B" d="M406.654,186.236v-1.219c-0.646,0.938-1.523,1.406-2.633,1.406c-0.49,0-0.947-0.094-1.371-0.281
				c-0.425-0.188-0.74-0.423-0.945-0.707c-0.206-0.284-0.351-0.632-0.434-1.043c-0.058-0.276-0.086-0.714-0.086-1.312v-5.141h1.406
				v4.602c0,0.734,0.028,1.229,0.086,1.484c0.088,0.37,0.276,0.66,0.562,0.871c0.286,0.211,0.641,0.316,1.062,0.316
				s0.817-0.108,1.188-0.324c0.37-0.216,0.631-0.511,0.785-0.883c0.153-0.372,0.23-0.913,0.23-1.621v-4.445h1.406v8.297H406.654z"/>
			<path fill="#3C3C3B" d="M409.552,183.76l1.391-0.219c0.078,0.558,0.295,0.984,0.652,1.281c0.356,0.297,0.855,0.445,1.496,0.445
				c0.646,0,1.125-0.132,1.438-0.395s0.469-0.571,0.469-0.926c0-0.317-0.138-0.567-0.414-0.75c-0.193-0.125-0.672-0.284-1.438-0.477
				c-1.031-0.261-1.746-0.485-2.145-0.676s-0.701-0.453-0.906-0.789c-0.206-0.336-0.309-0.707-0.309-1.113
				c0-0.37,0.084-0.712,0.254-1.027c0.169-0.315,0.399-0.577,0.691-0.785c0.219-0.161,0.517-0.298,0.895-0.41
				c0.377-0.112,0.782-0.168,1.215-0.168c0.651,0,1.223,0.094,1.715,0.281s0.855,0.441,1.09,0.762s0.396,0.749,0.484,1.285
				l-1.375,0.188c-0.062-0.427-0.244-0.761-0.543-1c-0.3-0.239-0.723-0.359-1.27-0.359c-0.646,0-1.107,0.106-1.383,0.32
				c-0.276,0.214-0.414,0.464-0.414,0.75c0,0.183,0.057,0.347,0.172,0.492c0.114,0.151,0.294,0.276,0.539,0.375
				c0.141,0.052,0.555,0.172,1.242,0.359c0.995,0.266,1.688,0.483,2.082,0.652c0.393,0.169,0.702,0.415,0.926,0.738
				c0.224,0.323,0.336,0.724,0.336,1.203c0,0.469-0.137,0.91-0.41,1.324s-0.668,0.734-1.184,0.961s-1.099,0.34-1.75,0.34
				c-1.078,0-1.9-0.224-2.465-0.672C410.069,185.304,409.708,184.64,409.552,183.76z"/>
			<path fill="#3C3C3B" d="M421.185,184.979l0.203,1.242c-0.396,0.083-0.75,0.125-1.062,0.125c-0.511,0-0.906-0.081-1.188-0.242
				s-0.479-0.374-0.594-0.637c-0.115-0.263-0.172-0.816-0.172-1.66v-4.773h-1.031v-1.094h1.031v-2.055l1.398-0.844v2.898h1.414
				v1.094h-1.414v4.852c0,0.401,0.024,0.659,0.074,0.773c0.049,0.114,0.13,0.206,0.242,0.273c0.112,0.067,0.272,0.102,0.48,0.102
				C420.724,185.033,420.93,185.015,421.185,184.979z"/>
			<path fill="#3C3C3B" d="M422.568,176.4v-1.617h1.406v1.617H422.568z M422.568,186.236v-8.297h1.406v8.297H422.568z"/>
			<path fill="#3C3C3B" d="M431.529,183.197l1.383,0.18c-0.151,0.953-0.538,1.699-1.16,2.238c-0.623,0.539-1.387,0.809-2.293,0.809
				c-1.136,0-2.048-0.371-2.738-1.113c-0.69-0.742-1.035-1.806-1.035-3.191c0-0.896,0.148-1.68,0.445-2.352s0.749-1.176,1.355-1.512
				c0.606-0.336,1.267-0.504,1.98-0.504c0.901,0,1.638,0.228,2.211,0.684c0.573,0.456,0.94,1.103,1.102,1.941l-1.367,0.211
				c-0.13-0.558-0.361-0.977-0.691-1.258c-0.331-0.281-0.73-0.422-1.199-0.422c-0.708,0-1.284,0.254-1.727,0.762
				c-0.443,0.508-0.664,1.312-0.664,2.41c0,1.114,0.213,1.925,0.641,2.43c0.427,0.505,0.984,0.758,1.672,0.758
				c0.552,0,1.013-0.169,1.383-0.508C431.195,184.421,431.43,183.9,431.529,183.197z"/>
			<path fill="#3C3C3B" d="M434.123,176.4v-1.617h1.406v1.617H434.123z M434.123,186.236v-8.297h1.406v8.297H434.123z"/>
			<path fill="#3C3C3B" d="M443.083,185.213c-0.521,0.442-1.022,0.755-1.504,0.938c-0.482,0.183-0.999,0.273-1.551,0.273
				c-0.912,0-1.612-0.223-2.102-0.668c-0.49-0.445-0.734-1.015-0.734-1.707c0-0.406,0.092-0.777,0.277-1.113
				c0.185-0.336,0.427-0.605,0.727-0.809c0.299-0.203,0.637-0.356,1.012-0.461c0.276-0.073,0.692-0.144,1.25-0.211
				c1.135-0.136,1.971-0.297,2.508-0.484c0.005-0.192,0.008-0.315,0.008-0.367c0-0.573-0.133-0.977-0.398-1.211
				c-0.359-0.317-0.894-0.477-1.602-0.477c-0.662,0-1.15,0.116-1.465,0.348c-0.315,0.231-0.548,0.642-0.699,1.23l-1.375-0.188
				c0.125-0.589,0.331-1.063,0.617-1.426c0.286-0.362,0.7-0.641,1.242-0.836c0.542-0.195,1.169-0.293,1.883-0.293
				c0.708,0,1.284,0.083,1.727,0.25c0.442,0.167,0.768,0.376,0.977,0.629c0.208,0.253,0.354,0.571,0.438,0.957
				c0.047,0.239,0.07,0.672,0.07,1.297v1.875c0,1.308,0.03,2.134,0.09,2.48c0.06,0.347,0.178,0.679,0.355,0.996h-1.469
				C443.219,185.944,443.125,185.604,443.083,185.213z M442.966,182.072c-0.511,0.208-1.276,0.386-2.297,0.531
				c-0.578,0.083-0.987,0.177-1.227,0.281c-0.24,0.104-0.425,0.257-0.555,0.457c-0.13,0.2-0.195,0.423-0.195,0.668
				c0,0.375,0.142,0.688,0.426,0.938c0.284,0.25,0.699,0.375,1.246,0.375c0.542,0,1.023-0.118,1.445-0.355s0.731-0.562,0.93-0.973
				c0.151-0.317,0.227-0.786,0.227-1.406V182.072z"/>
			<path fill="#3C3C3B" d="M450.951,189.432l-0.156-1.32c0.307,0.083,0.575,0.125,0.805,0.125c0.312,0,0.562-0.052,0.75-0.156
				s0.341-0.25,0.461-0.438c0.088-0.141,0.231-0.489,0.43-1.047c0.026-0.078,0.067-0.192,0.125-0.344l-3.148-8.312h1.516
				l1.727,4.805c0.224,0.609,0.424,1.25,0.602,1.922c0.161-0.646,0.354-1.276,0.578-1.891l1.773-4.836h1.406l-3.156,8.438
				c-0.339,0.911-0.602,1.539-0.789,1.883c-0.25,0.464-0.537,0.804-0.859,1.02c-0.323,0.216-0.708,0.324-1.156,0.324
				C451.586,189.604,451.284,189.546,450.951,189.432z"/>
			<path fill="#3C3C3B" d="M463.638,186.236v-11.453h4.32c0.76,0,1.341,0.036,1.742,0.109c0.562,0.094,1.034,0.272,1.414,0.535
				c0.38,0.263,0.686,0.632,0.918,1.105c0.231,0.474,0.348,0.995,0.348,1.562c0,0.974-0.31,1.798-0.93,2.473
				c-0.62,0.675-1.74,1.012-3.359,1.012h-2.938v4.656H463.638z M465.154,180.229h2.961c0.979,0,1.674-0.183,2.086-0.547
				c0.411-0.364,0.617-0.878,0.617-1.539c0-0.479-0.121-0.89-0.363-1.23s-0.562-0.566-0.957-0.676
				c-0.255-0.067-0.727-0.102-1.414-0.102h-2.93V180.229z"/>
			<path fill="#3C3C3B" d="M479.544,185.213c-0.521,0.442-1.022,0.755-1.504,0.938c-0.482,0.183-0.999,0.273-1.551,0.273
				c-0.912,0-1.612-0.223-2.102-0.668c-0.49-0.445-0.734-1.015-0.734-1.707c0-0.406,0.092-0.777,0.277-1.113
				c0.185-0.336,0.427-0.605,0.727-0.809c0.299-0.203,0.637-0.356,1.012-0.461c0.276-0.073,0.692-0.144,1.25-0.211
				c1.135-0.136,1.971-0.297,2.508-0.484c0.005-0.192,0.008-0.315,0.008-0.367c0-0.573-0.133-0.977-0.398-1.211
				c-0.359-0.317-0.894-0.477-1.602-0.477c-0.662,0-1.15,0.116-1.465,0.348c-0.315,0.231-0.548,0.642-0.699,1.23l-1.375-0.188
				c0.125-0.589,0.331-1.063,0.617-1.426c0.286-0.362,0.7-0.641,1.242-0.836c0.542-0.195,1.169-0.293,1.883-0.293
				c0.708,0,1.284,0.083,1.727,0.25c0.442,0.167,0.768,0.376,0.977,0.629c0.208,0.253,0.354,0.571,0.438,0.957
				c0.047,0.239,0.07,0.672,0.07,1.297v1.875c0,1.308,0.03,2.134,0.09,2.48c0.06,0.347,0.178,0.679,0.355,0.996h-1.469
				C479.68,185.944,479.586,185.604,479.544,185.213z M479.427,182.072c-0.511,0.208-1.276,0.386-2.297,0.531
				c-0.578,0.083-0.987,0.177-1.227,0.281c-0.24,0.104-0.425,0.257-0.555,0.457c-0.13,0.2-0.195,0.423-0.195,0.668
				c0,0.375,0.142,0.688,0.426,0.938c0.284,0.25,0.699,0.375,1.246,0.375c0.542,0,1.023-0.118,1.445-0.355s0.731-0.562,0.93-0.973
				c0.151-0.317,0.227-0.786,0.227-1.406V182.072z"/>
			<path fill="#3C3C3B" d="M482.287,186.236v-1.141l5.281-6.062c-0.599,0.031-1.128,0.047-1.586,0.047h-3.383v-1.141h6.781v0.93
				l-4.492,5.266l-0.867,0.961c0.63-0.047,1.221-0.07,1.773-0.07h3.836v1.211H482.287z"/>
			<path fill="#3C3C3B" d="M491.419,179.541v-1.602h1.602v1.602H491.419z M491.419,186.236v-1.602h1.602v1.602H491.419z"/>
			<path fill="#3C3C3B" d="M500.052,186.236v-11.453h2.281l2.711,8.109c0.25,0.755,0.432,1.32,0.547,1.695
				c0.13-0.417,0.333-1.028,0.609-1.836l2.742-7.969h2.039v11.453h-1.461v-9.586l-3.328,9.586h-1.367l-3.312-9.75v9.75H500.052z"/>
			<path fill="#3C3C3B" d="M518.662,185.213c-0.521,0.442-1.022,0.755-1.504,0.938c-0.482,0.183-0.999,0.273-1.551,0.273
				c-0.912,0-1.612-0.223-2.102-0.668c-0.49-0.445-0.734-1.015-0.734-1.707c0-0.406,0.092-0.777,0.277-1.113
				c0.185-0.336,0.427-0.605,0.727-0.809c0.299-0.203,0.637-0.356,1.012-0.461c0.276-0.073,0.692-0.144,1.25-0.211
				c1.135-0.136,1.971-0.297,2.508-0.484c0.005-0.192,0.008-0.315,0.008-0.367c0-0.573-0.133-0.977-0.398-1.211
				c-0.359-0.317-0.894-0.477-1.602-0.477c-0.662,0-1.15,0.116-1.465,0.348c-0.315,0.231-0.548,0.642-0.699,1.23l-1.375-0.188
				c0.125-0.589,0.331-1.063,0.617-1.426c0.286-0.362,0.7-0.641,1.242-0.836c0.542-0.195,1.169-0.293,1.883-0.293
				c0.708,0,1.284,0.083,1.727,0.25c0.442,0.167,0.768,0.376,0.977,0.629c0.208,0.253,0.354,0.571,0.438,0.957
				c0.047,0.239,0.07,0.672,0.07,1.297v1.875c0,1.308,0.03,2.134,0.09,2.48c0.06,0.347,0.178,0.679,0.355,0.996h-1.469
				C518.797,185.944,518.703,185.604,518.662,185.213z M518.544,182.072c-0.511,0.208-1.276,0.386-2.297,0.531
				c-0.578,0.083-0.987,0.177-1.227,0.281c-0.24,0.104-0.425,0.257-0.555,0.457c-0.13,0.2-0.195,0.423-0.195,0.668
				c0,0.375,0.142,0.688,0.426,0.938c0.284,0.25,0.699,0.375,1.246,0.375c0.542,0,1.023-0.118,1.445-0.355s0.731-0.562,0.93-0.973
				c0.151-0.317,0.227-0.786,0.227-1.406V182.072z"/>
			<path fill="#3C3C3B" d="M522.146,186.236v-8.297h1.258v1.164c0.26-0.406,0.606-0.733,1.039-0.98
				c0.432-0.247,0.924-0.371,1.477-0.371c0.614,0,1.118,0.128,1.512,0.383c0.393,0.255,0.67,0.612,0.832,1.07
				c0.656-0.969,1.51-1.453,2.562-1.453c0.823,0,1.456,0.228,1.898,0.684c0.442,0.456,0.664,1.157,0.664,2.105v5.695h-1.398v-5.227
				c0-0.562-0.046-0.968-0.137-1.215c-0.091-0.247-0.257-0.446-0.496-0.598c-0.24-0.151-0.521-0.227-0.844-0.227
				c-0.583,0-1.068,0.194-1.453,0.582c-0.386,0.388-0.578,1.009-0.578,1.863v4.82h-1.406v-5.391c0-0.625-0.115-1.094-0.344-1.406
				c-0.229-0.312-0.604-0.469-1.125-0.469c-0.396,0-0.762,0.104-1.098,0.312s-0.58,0.513-0.73,0.914
				c-0.151,0.401-0.227,0.979-0.227,1.734v4.305H522.146z"/>
			<path fill="#3C3C3B" d="M535.474,189.416v-11.477h1.281v1.078c0.302-0.422,0.643-0.738,1.023-0.949
				c0.38-0.211,0.841-0.316,1.383-0.316c0.708,0,1.333,0.183,1.875,0.547c0.542,0.364,0.95,0.879,1.227,1.543
				c0.276,0.664,0.414,1.392,0.414,2.184c0,0.849-0.152,1.613-0.457,2.293s-0.748,1.2-1.328,1.562
				c-0.581,0.362-1.191,0.543-1.832,0.543c-0.469,0-0.89-0.099-1.262-0.297c-0.373-0.198-0.679-0.448-0.918-0.75v4.039H535.474z
				 M536.748,182.135c0,1.067,0.216,1.856,0.648,2.367c0.432,0.511,0.956,0.766,1.57,0.766c0.625,0,1.16-0.265,1.605-0.793
				s0.668-1.348,0.668-2.457c0-1.058-0.218-1.849-0.652-2.375c-0.435-0.526-0.955-0.789-1.559-0.789c-0.599,0-1.129,0.28-1.59,0.84
				S536.748,181.067,536.748,182.135z"/>
			<path fill="#3C3C3B" d="M549.81,186.236v-1.219c-0.646,0.938-1.523,1.406-2.633,1.406c-0.49,0-0.947-0.094-1.371-0.281
				c-0.425-0.188-0.74-0.423-0.945-0.707c-0.206-0.284-0.351-0.632-0.434-1.043c-0.058-0.276-0.086-0.714-0.086-1.312v-5.141h1.406
				v4.602c0,0.734,0.028,1.229,0.086,1.484c0.088,0.37,0.276,0.66,0.562,0.871c0.286,0.211,0.641,0.316,1.062,0.316
				s0.817-0.108,1.188-0.324c0.37-0.216,0.631-0.511,0.785-0.883c0.153-0.372,0.23-0.913,0.23-1.621v-4.445h1.406v8.297H549.81z"/>
			<path fill="#3C3C3B" d="M551.482,189.455l0.266-1.195c0.281,0.073,0.502,0.109,0.664,0.109c0.286,0,0.5-0.095,0.641-0.285
				s0.211-0.665,0.211-1.426v-8.719h1.406v8.75c0,1.021-0.133,1.731-0.398,2.133c-0.339,0.521-0.901,0.781-1.688,0.781
				C552.204,189.604,551.836,189.554,551.482,189.455z M553.263,176.416v-1.633h1.406v1.633H553.263z"/>
			<path fill="#3C3C3B" d="M562.24,185.213c-0.521,0.442-1.022,0.755-1.504,0.938c-0.482,0.183-0.999,0.273-1.551,0.273
				c-0.912,0-1.612-0.223-2.102-0.668c-0.49-0.445-0.734-1.015-0.734-1.707c0-0.406,0.092-0.777,0.277-1.113
				c0.185-0.336,0.427-0.605,0.727-0.809c0.299-0.203,0.637-0.356,1.012-0.461c0.276-0.073,0.692-0.144,1.25-0.211
				c1.135-0.136,1.971-0.297,2.508-0.484c0.005-0.192,0.008-0.315,0.008-0.367c0-0.573-0.133-0.977-0.398-1.211
				c-0.359-0.317-0.894-0.477-1.602-0.477c-0.662,0-1.15,0.116-1.465,0.348c-0.315,0.231-0.548,0.642-0.699,1.23l-1.375-0.188
				c0.125-0.589,0.331-1.063,0.617-1.426c0.286-0.362,0.7-0.641,1.242-0.836c0.542-0.195,1.169-0.293,1.883-0.293
				c0.708,0,1.284,0.083,1.727,0.25c0.442,0.167,0.768,0.376,0.977,0.629c0.208,0.253,0.354,0.571,0.438,0.957
				c0.047,0.239,0.07,0.672,0.07,1.297v1.875c0,1.308,0.03,2.134,0.09,2.48c0.06,0.347,0.178,0.679,0.355,0.996h-1.469
				C562.375,185.944,562.281,185.604,562.24,185.213z M562.123,182.072c-0.511,0.208-1.276,0.386-2.297,0.531
				c-0.578,0.083-0.987,0.177-1.227,0.281c-0.24,0.104-0.425,0.257-0.555,0.457c-0.13,0.2-0.195,0.423-0.195,0.668
				c0,0.375,0.142,0.688,0.426,0.938c0.284,0.25,0.699,0.375,1.246,0.375c0.542,0,1.023-0.118,1.445-0.355s0.731-0.562,0.93-0.973
				c0.151-0.317,0.227-0.786,0.227-1.406V182.072z M559.388,176.908l1.039-2.188h1.844l-1.719,2.188H559.388z"/>
			<path fill="#3C3C3B" d="M565.724,186.236v-8.297h1.266v1.18c0.609-0.911,1.489-1.367,2.641-1.367c0.5,0,0.959,0.09,1.379,0.27
				c0.419,0.18,0.733,0.415,0.941,0.707c0.208,0.292,0.354,0.638,0.438,1.039c0.052,0.261,0.078,0.716,0.078,1.367v5.102h-1.406
				v-5.047c0-0.573-0.055-1.001-0.164-1.285s-0.304-0.511-0.582-0.68c-0.279-0.169-0.605-0.254-0.98-0.254
				c-0.599,0-1.116,0.19-1.551,0.57c-0.435,0.38-0.652,1.102-0.652,2.164v4.531H565.724z"/>
			<path fill="#3C3C3B" d="M574.99,186.236v-1.602h1.602v1.602c0,0.589-0.104,1.063-0.312,1.426
				c-0.208,0.362-0.539,0.642-0.992,0.84l-0.391-0.602c0.297-0.13,0.516-0.321,0.656-0.574s0.219-0.616,0.234-1.09H574.99z"/>
			<path fill="#3C3C3B" d="M286.771,202.186l1.367-0.188c0.036,0.875,0.2,1.474,0.492,1.797c0.292,0.323,0.695,0.484,1.211,0.484
				c0.38,0,0.708-0.087,0.984-0.262c0.276-0.175,0.466-0.411,0.57-0.711c0.104-0.3,0.156-0.777,0.156-1.434v-7.891h1.516v7.805
				c0,0.958-0.116,1.7-0.348,2.227c-0.232,0.526-0.599,0.927-1.102,1.203c-0.503,0.276-1.093,0.414-1.77,0.414
				c-1.005,0-1.775-0.289-2.309-0.867C287.006,204.186,286.75,203.326,286.771,202.186z"/>
			<path fill="#3C3C3B" d="M300.802,205.436v-1.219c-0.646,0.938-1.523,1.406-2.633,1.406c-0.49,0-0.947-0.094-1.371-0.281
				c-0.425-0.188-0.74-0.423-0.945-0.707c-0.206-0.284-0.351-0.632-0.434-1.043c-0.058-0.276-0.086-0.714-0.086-1.312v-5.141h1.406
				v4.602c0,0.734,0.028,1.229,0.086,1.484c0.088,0.37,0.276,0.66,0.562,0.871c0.286,0.211,0.641,0.316,1.062,0.316
				s0.817-0.108,1.188-0.324c0.37-0.216,0.631-0.511,0.785-0.883c0.153-0.372,0.23-0.913,0.23-1.621v-4.445h1.406v8.297H300.802z"/>
			<path fill="#3C3C3B" d="M304.232,205.436v-11.453h1.406v11.453H304.232z"/>
			<path fill="#3C3C3B" d="M307.826,195.6v-1.617h1.406v1.617H307.826z M307.826,205.436v-8.297h1.406v8.297H307.826z"/>
			<path fill="#3C3C3B" d="M316.787,204.412c-0.521,0.442-1.022,0.755-1.504,0.938c-0.482,0.183-0.999,0.273-1.551,0.273
				c-0.912,0-1.612-0.223-2.102-0.668c-0.49-0.445-0.734-1.015-0.734-1.707c0-0.406,0.092-0.777,0.277-1.113
				c0.185-0.336,0.427-0.605,0.727-0.809c0.299-0.203,0.637-0.356,1.012-0.461c0.276-0.073,0.692-0.144,1.25-0.211
				c1.135-0.136,1.971-0.297,2.508-0.484c0.005-0.192,0.008-0.315,0.008-0.367c0-0.573-0.133-0.977-0.398-1.211
				c-0.359-0.317-0.894-0.477-1.602-0.477c-0.662,0-1.15,0.116-1.465,0.348c-0.315,0.231-0.548,0.642-0.699,1.23l-1.375-0.188
				c0.125-0.589,0.331-1.063,0.617-1.426c0.286-0.362,0.7-0.641,1.242-0.836c0.542-0.195,1.169-0.293,1.883-0.293
				c0.708,0,1.284,0.083,1.727,0.25c0.442,0.167,0.768,0.376,0.977,0.629c0.208,0.253,0.354,0.571,0.438,0.957
				c0.047,0.239,0.07,0.672,0.07,1.297v1.875c0,1.308,0.03,2.134,0.09,2.48c0.06,0.347,0.178,0.679,0.355,0.996h-1.469
				C316.922,205.144,316.828,204.803,316.787,204.412z M316.669,201.271c-0.511,0.208-1.276,0.386-2.297,0.531
				c-0.578,0.083-0.987,0.177-1.227,0.281c-0.24,0.104-0.425,0.257-0.555,0.457c-0.13,0.2-0.195,0.423-0.195,0.668
				c0,0.375,0.142,0.688,0.426,0.938c0.284,0.25,0.699,0.375,1.246,0.375c0.542,0,1.023-0.118,1.445-0.355s0.731-0.562,0.93-0.973
				c0.151-0.317,0.227-0.786,0.227-1.406V201.271z M313.935,196.107l1.039-2.188h1.844l-1.719,2.188H313.935z"/>
			<path fill="#3C3C3B" d="M320.271,205.436v-8.297h1.266v1.18c0.609-0.911,1.489-1.367,2.641-1.367c0.5,0,0.959,0.09,1.379,0.27
				c0.419,0.18,0.733,0.415,0.941,0.707c0.208,0.292,0.354,0.638,0.438,1.039c0.052,0.261,0.078,0.716,0.078,1.367v5.102h-1.406
				v-5.047c0-0.573-0.055-1.001-0.164-1.285s-0.304-0.511-0.582-0.68c-0.279-0.169-0.605-0.254-0.98-0.254
				c-0.599,0-1.116,0.19-1.551,0.57c-0.435,0.38-0.652,1.102-0.652,2.164v4.531H320.271z"/>
			<path fill="#3C3C3B" d="M333.732,205.436v-11.453h4.297c0.875,0,1.577,0.116,2.105,0.348c0.528,0.231,0.942,0.589,1.242,1.07
				c0.299,0.481,0.449,0.985,0.449,1.512c0,0.489-0.133,0.95-0.398,1.383s-0.667,0.781-1.203,1.047
				c0.692,0.203,1.225,0.55,1.598,1.039c0.372,0.489,0.559,1.067,0.559,1.734c0,0.536-0.113,1.035-0.34,1.496
				s-0.507,0.816-0.84,1.066c-0.333,0.25-0.751,0.438-1.254,0.566c-0.503,0.128-1.119,0.191-1.848,0.191H333.732z M335.248,198.795
				h2.477c0.672,0,1.153-0.044,1.445-0.133c0.385-0.114,0.676-0.305,0.871-0.57s0.293-0.599,0.293-1c0-0.38-0.091-0.715-0.273-1.004
				c-0.183-0.289-0.443-0.487-0.781-0.594c-0.339-0.106-0.919-0.16-1.742-0.16h-2.289V198.795z M335.248,204.084h2.852
				c0.489,0,0.833-0.019,1.031-0.055c0.349-0.062,0.641-0.167,0.875-0.312s0.427-0.358,0.578-0.637
				c0.151-0.278,0.227-0.601,0.227-0.965c0-0.427-0.109-0.798-0.328-1.113s-0.522-0.536-0.91-0.664
				c-0.388-0.128-0.947-0.191-1.676-0.191h-2.648V204.084z"/>
			<path fill="#3C3C3B" d="M343.763,201.287c0-1.536,0.427-2.675,1.281-3.414c0.713-0.614,1.583-0.922,2.609-0.922
				c1.141,0,2.073,0.374,2.797,1.121c0.724,0.747,1.086,1.78,1.086,3.098c0,1.067-0.16,1.907-0.48,2.52s-0.787,1.087-1.398,1.426
				c-0.612,0.339-1.28,0.508-2.004,0.508c-1.162,0-2.101-0.372-2.816-1.117C344.121,203.761,343.763,202.688,343.763,201.287z
				 M345.208,201.287c0,1.062,0.231,1.858,0.695,2.387c0.463,0.528,1.047,0.793,1.75,0.793c0.698,0,1.278-0.266,1.742-0.797
				c0.463-0.531,0.695-1.341,0.695-2.43c0-1.026-0.233-1.804-0.699-2.332c-0.466-0.528-1.046-0.793-1.738-0.793
				c-0.703,0-1.287,0.263-1.75,0.789C345.44,199.431,345.208,200.225,345.208,201.287z"/>
			<path fill="#3C3C3B" d="M353.154,205.436v-11.453h1.406v11.453H353.154z"/>
			<path fill="#3C3C3B" d="M357.162,196.107l1.039-2.188h1.844l-1.719,2.188H357.162z M357.232,205.436v-8.297h1.406v8.297H357.232z
				"/>
			<path fill="#3C3C3B" d="M363.49,205.436l-3.156-8.297h1.484l1.781,4.969c0.192,0.536,0.37,1.094,0.531,1.672
				c0.125-0.438,0.299-0.964,0.523-1.578l1.844-5.062h1.445l-3.141,8.297H363.49z"/>
			<path fill="#3C3C3B" d="M374.599,204.412c-0.521,0.442-1.022,0.755-1.504,0.938c-0.482,0.183-0.999,0.273-1.551,0.273
				c-0.912,0-1.612-0.223-2.102-0.668c-0.49-0.445-0.734-1.015-0.734-1.707c0-0.406,0.092-0.777,0.277-1.113
				c0.185-0.336,0.427-0.605,0.727-0.809c0.299-0.203,0.637-0.356,1.012-0.461c0.276-0.073,0.692-0.144,1.25-0.211
				c1.135-0.136,1.971-0.297,2.508-0.484c0.005-0.192,0.008-0.315,0.008-0.367c0-0.573-0.133-0.977-0.398-1.211
				c-0.359-0.317-0.894-0.477-1.602-0.477c-0.662,0-1.15,0.116-1.465,0.348c-0.315,0.231-0.548,0.642-0.699,1.23l-1.375-0.188
				c0.125-0.589,0.331-1.063,0.617-1.426c0.286-0.362,0.7-0.641,1.242-0.836c0.542-0.195,1.169-0.293,1.883-0.293
				c0.708,0,1.284,0.083,1.727,0.25c0.442,0.167,0.768,0.376,0.977,0.629c0.208,0.253,0.354,0.571,0.438,0.957
				c0.047,0.239,0.07,0.672,0.07,1.297v1.875c0,1.308,0.03,2.134,0.09,2.48c0.06,0.347,0.178,0.679,0.355,0.996h-1.469
				C374.734,205.144,374.641,204.803,374.599,204.412z M374.482,201.271c-0.511,0.208-1.276,0.386-2.297,0.531
				c-0.578,0.083-0.987,0.177-1.227,0.281c-0.24,0.104-0.425,0.257-0.555,0.457c-0.13,0.2-0.195,0.423-0.195,0.668
				c0,0.375,0.142,0.688,0.426,0.938c0.284,0.25,0.699,0.375,1.246,0.375c0.542,0,1.023-0.118,1.445-0.355s0.731-0.562,0.93-0.973
				c0.151-0.317,0.227-0.786,0.227-1.406V201.271z"/>
			<path fill="#3C3C3B" d="M378.068,205.436v-8.297h1.266v1.258c0.323-0.589,0.621-0.977,0.895-1.164s0.574-0.281,0.902-0.281
				c0.474,0,0.956,0.151,1.445,0.453l-0.484,1.305c-0.344-0.203-0.688-0.305-1.031-0.305c-0.308,0-0.583,0.093-0.828,0.277
				c-0.245,0.185-0.419,0.441-0.523,0.77c-0.156,0.5-0.234,1.047-0.234,1.641v4.344H378.068z"/>
		</g>
	</g>
	<path fill="#F39200" d="M2.618,14.639l1.079-0.581l0.943-0.509c0.017-0.008,0.036-0.005,0.053-0.009
		c0.019-0.001,0.035-0.012,0.053-0.009c0.036,0.006,0.068,0.022,0.096,0.048c0.053,0.055,0.063,0.138,0.026,0.202l-1.047,1.856
		l-0.104,0.264l0.029,0.104l0.14,0.06l0.242,0.026l0.37-0.123c0.012-0.004,0.023-0.008,0.038-0.008l0.372-0.034
		C4.954,15.923,5,15.938,5.034,15.969c0.036,0.03,0.057,0.074,0.059,0.119l0.033,0.776l0.029,0.263l0.19,0.378
		c0.012,0.024,0.017,0.05,0.017,0.076v0.236c0,0.018-0.003,0.038-0.009,0.054l-0.066,0.202c-0.006,0.016-0.014,0.031-0.022,0.045
		L4.94,18.57l-0.031,0.097l0.095,0.136l0.473,0.249l1.797,0.598l0.223,0.049l0.249-0.136c0.029-0.019,0.062-0.025,0.095-0.021
		l0.473,0.034c0.082,0.005,0.146,0.068,0.155,0.149l0.034,0.338c0.003,0.029-0.002,0.06-0.015,0.089l-0.16,0.354l-0.159,0.691
		l0.095,0.506c0.004,0.021,0.004,0.04,0.001,0.061l-0.067,0.371l-0.242,0.733l-0.097,0.423l-0.064,0.722
		c-0.003,0.026-0.012,0.053-0.024,0.072l-0.154,0.246L7.5,24.821L7.524,24.8l0.024-0.021c0.012-0.009,0.025-0.012,0.039-0.018
		c0.04-0.019,0.085-0.025,0.127-0.013l0.377,0.137l0.461-0.435c0.015-0.015,0.03-0.025,0.05-0.034l0.305-0.136
		c0.025-0.011,0.056-0.015,0.085-0.013l0,0l0,0l0.337,0.033c0.013,0.001,0.025,0.005,0.036,0.008l0.406,0.135
		c0.016,0.006,0.029,0.014,0.044,0.022l0.64,0.449l0.231,0.025l0.24-0.062c0.02-0.004,0.041-0.007,0.062-0.003l0.27,0.033
		c0.015,0.001,0.029,0.006,0.042,0.012l0.338,0.134c0.017,0.006,0.031,0.016,0.044,0.025l0.912,0.744
		c0.01,0.008,0.019,0.017,0.026,0.025l0.472,0.608l0.957,0.819l0.217,0.163h0.585c0.016,0,0.032,0.002,0.048,0.007l0.676,0.204
		c0.046,0.012,0.084,0.046,0.104,0.089c0.019,0.045,0.021,0.096,0.001,0.139l-0.446,1.021l0.038,0.113l0.086,0.108l0.327,0.118
		l0.379,0.087l0.483-0.122l0.254-0.125c0.023-0.012,0.049-0.02,0.075-0.02h0.169c0.056,0,0.109,0.029,0.141,0.076l0.185,0.279
		l0.448,0.318l0.18,0.088c0.028,0.016,0.054,0.038,0.069,0.063l0.102,0.171c0.035,0.058,0.031,0.132-0.011,0.188l-0.102,0.135
		l-0.296,0.462l-0.495,1.167l0.156,0.234c0.025,0.04,0.033,0.087,0.024,0.134l-0.02,0.077l-0.078,0.343v0.231l0.093,0.401
		l0.296,0.625c0.005,0.011,0.009,0.021,0.011,0.032l0.237,0.98c0.004,0.013,0.004,0.025,0.004,0.039v0.304l0.06,0.282l0.076,0.152
		l0.196,0.165l0.184,0.094c0.012,0.005,0.021,0.013,0.032,0.021l0.406,0.338c0.017,0.015,0.031,0.033,0.04,0.053l0.439,0.844
		l0.387,0.805l0.937,0.581l0.618,0.257c0.014,0.008,0.025,0.014,0.037,0.023l2.161,1.654l1.103,1.201l1.155,1.764l0.292,0.292
		c0.01,0.01,0.019,0.021,0.026,0.035l0.135,0.236c0.015,0.026,0.022,0.054,0.022,0.084v0.169c0,0.044-0.018,0.087-0.049,0.118
		l-0.288,0.288l-0.293,0.52c-0.009,0.018-0.021,0.032-0.034,0.044l-0.547,0.481l-0.168,0.394l0.398,2.62l0.215,0.607l0.244,0.242
		c0.021,0.023,0.037,0.053,0.044,0.08c0.002,0.008-0.002,0.016-0.001,0.023c0.003,0.023,0.005,0.048-0.003,0.07l-0.024,0.075V50.5
		l0.065,0.658l0.199,0.752l0.038,0.434c0.001,0.018,0,0.036-0.004,0.056l-0.068,0.27l-0.308,0.892
		c-0.005,0.013-0.01,0.024-0.017,0.035l-0.17,0.27c-0.033,0.055-0.093,0.086-0.157,0.078l-0.372-0.032
		c-0.012-0.003-0.025-0.006-0.037-0.009l-0.134-0.044l-0.02,0.055l-0.065,0.559c-0.001,0.016-0.006,0.032-0.012,0.047l-0.237,0.54
		c-0.008,0.017-0.017,0.033-0.03,0.046l-0.337,0.37c-0.008,0.011-0.017,0.019-0.026,0.025l-0.473,0.338
		c-0.016,0.011-0.031,0.019-0.049,0.023l-0.54,0.169c-0.013,0.004-0.027,0.007-0.04,0.007l-0.607,0.035l0,0l0,0l-0.737-0.066
		l-0.17,0.05l-0.445,0.381l-0.218,0.148c-0.018,0.01-0.036,0.018-0.056,0.023l-0.403,0.095l0.09,0.34
		c0.007,0.024,0.007,0.05,0.001,0.075l-0.033,0.168c-0.006,0.031-0.021,0.058-0.041,0.081l-0.337,0.37l-0.226,0.312v0.25
		c0,0.024-0.005,0.048-0.016,0.07l-0.115,0.253l5.233,4.272c0.016,0.014,0.029,0.03,0.04,0.048l0.404,0.709l0.43,0.592l0.227,0.259
		c0.013,0.016,0.024,0.033,0.032,0.052l0.235,0.642c0.005,0.014,0.009,0.027,0.01,0.04l0.236,2.297l0.19,0.624l0.234,0.384
		l0.544,0.318c0.033,0.021,0.059,0.053,0.071,0.09l0.1,0.305c0.009,0.025,0.011,0.054,0.007,0.081l-0.067,0.404
		c-0.003,0.018-0.009,0.035-0.017,0.051l-0.338,0.643c-0.009,0.015-0.019,0.027-0.03,0.039l-0.405,0.406
		c-0.009,0.009-0.021,0.02-0.033,0.024l-0.505,0.305l-0.46,0.338l-0.241,0.513l-0.3,1.866l0.001,0.685l0.096,0.558l0.422,0.938
		l0.762,0.928l0.429,0.396l0.358,0.111l0.354-0.082l0.474-0.413l0.269-0.33l0.396-0.956l0.245-0.425
		c0.011-0.019,0.026-0.036,0.043-0.05l0.911-0.707c0.044-0.036,0.102-0.046,0.154-0.029c0.053,0.018,0.094,0.057,0.11,0.11
		l0.405,1.282c0.009,0.03,0.011,0.062,0.003,0.093l-0.135,0.54l-0.141,0.388c-0.006,0.013-0.011,0.024-0.018,0.036l-0.202,0.304
		l-0.476,0.515l-0.147,0.261l-0.089,0.449l0.095,0.508l0.004,0.943c0,0.017-0.003,0.032-0.008,0.05l-0.228,0.748l0.032,0.543
		l0.164,0.68l0.363,0.887l0.209,0.726l0.232,0.63c0.003,0.013,0.007,0.024,0.009,0.036l0.067,0.508l0.092,0.459l0.189,0.27
		l0.477,0.21l0.396,0.061l0.654-0.064c0.007,0,0.012-0.003,0.017-0.003c0.014,0,0.028,0.003,0.042,0.007l0.314,0.077l7.218-6.884
		l0.125-0.887l0.277-0.968l0.268-0.643l0.025-0.148l-0.052-0.21l-0.187-0.277c-0.015-0.022-0.023-0.045-0.027-0.07l-0.032-0.236
		l-0.003-0.901c0-0.016,0.003-0.03,0.006-0.044l0.101-0.372c0.007-0.023,0.018-0.044,0.033-0.062l1.263-1.564l0.059-0.172
		c0.014-0.041,0.041-0.074,0.078-0.095l0.243-0.137l0.075-0.246v-0.752c0-0.02,0.003-0.035,0.009-0.054l0.134-0.406l0.021-0.153
		l-0.078-0.156l-0.191-0.286c-0.029-0.043-0.037-0.098-0.021-0.146l0.067-0.203c0.007-0.021,0.017-0.034,0.029-0.051l0.111-0.143
		l0.059-0.233l0.197-1.282l-0.032-0.452l-0.264-1.344l-0.076-0.152l-0.21-0.179c-0.027-0.024-0.047-0.057-0.055-0.093l-0.305-1.384
		c-0.005-0.025-0.005-0.051,0.002-0.077l0.055-0.224l-0.391-1.238c-0.004-0.013-0.006-0.025-0.006-0.038l-0.034-0.438l0.034-0.467
		l0.173-0.733l0.216-0.562l0,0c-0.021-0.042-0.024-0.09-0.009-0.135c0.017-0.043,0.05-0.078,0.093-0.097l0.529-0.221l0.136-0.218
		l0.176-0.247l0.22-0.223c0.021-0.021,0.046-0.036,0.073-0.044l0.188-0.053l0.172-0.198l0.02-0.117l-0.057-0.199l-0.067-0.398
		l-0.091-0.181c-0.015-0.029-0.021-0.062-0.016-0.098l0.033-0.27c0.005-0.038,0.021-0.07,0.049-0.099l0.204-0.203l0.056-0.224
		l0.201-0.445l0.031-0.212l-0.002-0.617v-0.002c0-0.02,0.003-0.041,0.011-0.06l0.032-0.085l0.069-0.184l0.184-0.301l0.033-0.089
		l-0.043-0.175l-0.136-0.137c-0.025-0.025-0.042-0.059-0.047-0.095l-0.029-0.202l-0.005-0.033l0,0l0,0
		c-0.004-0.035,0.001-0.07,0.017-0.101l0.168-0.336l0.081-0.277l-0.165-1.59l-0.157-0.489l-0.498-0.896
		c-0.008-0.016-0.015-0.033-0.018-0.051l-0.101-0.541l-0.004-0.787l-0.054-0.214l-0.557-0.721c-0.014-0.021-0.023-0.041-0.027-0.063
		l-0.09-0.422l-0.012-0.051l-0.037-1.516c0-0.013,0.001-0.027,0.003-0.038l0.102-0.507c0.002-0.015,0.008-0.027,0.013-0.04
		l0.397-0.824l0.091-0.429l-0.061-0.571l-0.27-0.39l-0.382-0.366l-0.382-0.364l-0.388-0.491c-0.01-0.01-0.016-0.022-0.021-0.035
		L40.93,42.06c-0.008-0.019-0.013-0.038-0.014-0.059l-0.033-0.676c-0.003-0.025,0.002-0.048,0.012-0.069l0.208-0.522l-0.462-0.195
		l-1.86-0.098c-0.026-0.004-0.051-0.011-0.072-0.021l-0.743-0.405c-0.073-0.039-0.106-0.128-0.077-0.206l0.104-0.285l-0.134-0.181
		l-0.287-0.221l-0.107-0.108l-0.257,0.375c-0.029,0.039-0.074,0.066-0.124,0.071l-0.708,0.067c-0.022,0.002-0.039,0-0.059-0.004
		l-0.777-0.203l-0.665-0.277c-0.055-0.022-0.094-0.076-0.102-0.134c-0.006-0.062,0.019-0.12,0.066-0.156l0.105-0.079l-0.137-0.123
		l-0.931-0.531c-0.018-0.01-0.036-0.025-0.049-0.043l-0.339-0.439l-0.597-0.927l-0.335-0.224l-0.831-0.032
		c-0.049-0.002-0.093-0.024-0.123-0.061l-0.169-0.203c-0.023-0.027-0.037-0.062-0.039-0.099l-0.031-0.592l-0.118-0.166l-0.403-0.216
		l-0.46-0.151l-0.389-0.029l-0.182,0.051l-0.181,0.122c-0.013,0.008-0.025,0.013-0.04,0.019l-0.203,0.067
		c-0.008,0.003-0.015,0.002-0.023,0.003c-0.027,0.005-0.055,0.005-0.082-0.005c-0.006-0.003-0.011-0.003-0.017-0.004l-0.303-0.136
		c-0.037-0.016-0.065-0.044-0.083-0.079l-0.102-0.2l-0.171-0.607l-0.038-0.051l-0.667-0.061l-0.306,0.03l-0.307,0.168l-0.214,0.305
		l-0.154,0.157l0,0l0,0c-0.006,0.005-0.011,0.006-0.017,0.012c-0.03,0.023-0.064,0.038-0.103,0.038h-0.001h-0.235
		c-0.017,0-0.031-0.002-0.047-0.007l-0.236-0.067c-0.022-0.008-0.043-0.018-0.062-0.033l-0.203-0.169
		c-0.012-0.01-0.022-0.022-0.032-0.035l-0.135-0.203c-0.01-0.016-0.018-0.032-0.022-0.048l-0.191-0.704l-0.331-0.36l-0.69-0.461
		l-0.218-0.181c-0.013-0.011-0.023-0.022-0.032-0.036l-0.27-0.404c-0.016-0.022-0.025-0.048-0.027-0.076l-0.032-0.28l-0.046-0.115
		l-0.127-0.127l-0.394-0.204h-0.281c-0.015,0-0.027-0.002-0.041-0.005l-0.054-0.015l-0.081-0.02
		c-0.01-0.002-0.014-0.012-0.023-0.017c-0.027-0.01-0.054-0.022-0.07-0.046l-0.102-0.134c-0.012-0.017-0.021-0.036-0.026-0.054
		l-0.096-0.318l-0.068-0.114l-0.195-0.123h-0.229l-0.277,0.094l-0.276,0.154c-0.074,0.044-0.168,0.021-0.218-0.047l-0.54-0.729
		l-0.581,0.089c-0.095,0.011-0.179-0.051-0.192-0.143l-0.135-0.879c-0.003-0.018-0.003-0.033,0-0.052l0.338-2.059l0.06-0.205
		l0.203-0.689l-0.054-0.294l-0.236-0.326l-0.594-0.526c-0.013-0.013-0.024-0.025-0.033-0.041l-0.203-0.338
		c-0.01-0.018-0.018-0.04-0.021-0.061l-0.067-0.474c-0.002-0.021-0.002-0.042,0.003-0.062l0.102-0.438l0.174-0.522l0.086-0.41
		l-0.106-0.319l-0.744-0.681c-0.01-0.009-0.019-0.02-0.027-0.029l-0.202-0.305l-0.215-0.461c-0.006-0.012-0.01-0.024-0.014-0.037
		l-0.101-0.473c-0.003-0.011-0.004-0.022-0.004-0.035l0,0v-1.079l0.036-0.519c0.001-0.02,0.005-0.039,0.013-0.058l0.135-0.304
		c0.012-0.028,0.032-0.051,0.058-0.068l0.235-0.169l0.833-0.419l0.206-0.158l0.109-0.271l0.06-0.537l-0.056-0.11l-0.259-0.144
		c-0.014-0.009-0.025-0.017-0.037-0.028l-0.067-0.066c-0.015-0.016-0.027-0.035-0.036-0.054l-0.295-0.69l-0.181-0.24l-0.223-0.194
		l-0.633-0.127l-0.196-0.076c-0.013-0.005-0.023-0.009-0.034-0.018l-0.421-0.292l-0.352-0.127c-0.022-0.009-0.043-0.023-0.061-0.04
		l-0.271-0.271c-0.024-0.023-0.042-0.058-0.047-0.093l-0.101-0.641c-0.004-0.017-0.004-0.033-0.002-0.049l0.067-0.508
		c0.002-0.013,0.006-0.027,0.011-0.04l0.305-0.743l0.16-0.78c0.003-0.017,0.009-0.033,0.018-0.049l0.113-0.203l-0.401-0.485
		l-0.998-1.165l-0.567-0.442l-0.474-0.127c-0.028-0.007-0.055-0.019-0.076-0.043l-0.948-0.947l-1.192,0.252
		c-0.069,0.013-0.141-0.017-0.178-0.075L11.928,6.8l-0.305-0.182c-0.039-0.025-0.067-0.063-0.077-0.107
		c-0.012-0.046-0.001-0.093,0.024-0.131l0.152-0.229l-0.006-0.018l-0.301-0.109L11.04,5.964l-0.861-0.062
		c-0.032-0.005-0.064-0.017-0.089-0.037L9.955,5.763C9.934,5.748,9.917,5.729,9.904,5.704L9.604,5.136
		C9.596,5.122,9.59,5.106,9.587,5.093L9.52,4.788C9.514,4.76,9.514,4.729,9.523,4.701l0.27-0.879L9.82,3.518
		c0.005-0.043,0.026-0.083,0.06-0.111l0.202-0.17l0.221-0.127l0.091-0.159V2.488l-0.057-0.271l-0.103-0.152L9.782,1.71l-0.15-0.148
		c-0.026-0.027-0.043-0.06-0.048-0.098L9.55,1.193c-0.001-0.02-0.001-0.04,0.004-0.058l0.067-0.304
		C9.625,0.815,9.631,0.8,9.64,0.785l0.106-0.19L9.632,0.481c-0.058-0.059-0.065-0.15-0.018-0.217l0.114-0.161L9.5,0L9.475,0.006
		l-0.134,0.16L9.118,0.519C9.111,0.529,9.104,0.54,9.095,0.548L8.892,0.751C8.87,0.774,8.843,0.788,8.813,0.796L7.312,1.164
		L6.788,1.426c-0.01,0.005-0.022,0.009-0.034,0.013L6.743,1.44c-0.002,0.018-0.01,0.034-0.019,0.051L6.59,1.729
		C6.583,1.743,6.572,1.753,6.562,1.765L6.36,1.967c-0.013,0.013-0.026,0.022-0.042,0.03L6.27,2.192
		C6.254,2.256,6.203,2.304,6.138,2.317L5.97,2.352L5.807,2.353L5.438,2.525l0.096,0.136C5.555,2.69,5.565,2.723,5.565,2.759v0.136
		c0,0.044-0.018,0.089-0.05,0.119L5.312,3.216c-0.01,0.01-0.022,0.021-0.035,0.028L5.042,3.378L4.707,3.494L4.429,3.53L4.25,3.606
		l-0.164,0.19l-0.034,0.07l0.199,0.044c0.058,0.012,0.105,0.054,0.123,0.113l0.069,0.201c0.003,0.014,0.006,0.026,0.008,0.042
		l0.033,0.507c0.002,0.023-0.002,0.049-0.011,0.073L4.362,5.123L4.58,5.158c0.046,0.008,0.086,0.036,0.113,0.073L4.76,5.332
		c0.015,0.021,0.023,0.045,0.027,0.07l0.067,0.473l0.002,0.598c0,0.016-0.002,0.03-0.007,0.044L4.716,7.022
		C4.704,7.063,4.681,7.098,4.646,7.119L4.341,7.322C4.294,7.355,4.232,7.36,4.178,7.335L3.807,7.167
		C3.733,7.133,3.693,7.052,3.713,6.972l0.102-0.404c0.004-0.013,0.008-0.023,0.014-0.034L3.92,6.349L3.6,6.718l-0.19,0.157
		c-0.01,0.008-0.021,0.013-0.03,0.02L3.133,7.018L3.008,7.159c0.018-0.007,0.038-0.01,0.059-0.01h0.169
		c0.08,0,0.147,0.054,0.165,0.131l0.132,0.576l0.037-0.029c0.029-0.023,0.066-0.038,0.105-0.038h0.169
		c0.089,0,0.162,0.069,0.168,0.157l0.034,0.541l0.132,0.582C4.18,9.082,4.182,9.095,4.182,9.108v0.537
		c0,0.051-0.021,0.098-0.06,0.13L3.886,9.979l-0.863,0.554c-0.017,0.01-0.033,0.018-0.053,0.022L2.53,10.656
		c-0.063,0.016-0.131-0.01-0.17-0.061l0.07,0.105c0.035,0.052,0.038,0.118,0.009,0.174c-0.03,0.056-0.088,0.089-0.148,0.089
		l-0.396,0.005l0.082,0.246c0.011,0.032,0.012,0.066,0.002,0.101L1.912,11.55c-0.006,0.02-0.015,0.038-0.026,0.057L1.694,11.86
		l-0.127,0.287c-0.006,0.01-0.012,0.02-0.019,0.028l-0.336,0.474c-0.014,0.019-0.03,0.035-0.051,0.046l-0.935,0.548L0,13.768
		l0.163,0.025l0.84-0.498l0.896-0.93c0.007-0.007,0.016-0.015,0.025-0.021l0.946-0.643l0.72-0.412
		c0.062-0.035,0.142-0.027,0.195,0.021c0.055,0.048,0.071,0.125,0.044,0.192l-0.088,0.205v0.437l-0.036,0.262l-0.07,0.287
		c-0.004,0.018-0.012,0.034-0.022,0.049l-0.235,0.372l-0.226,0.486c-0.005,0.012-0.011,0.021-0.019,0.03l-0.102,0.135
		c-0.018,0.024-0.043,0.045-0.071,0.055l-0.3,0.12L2.53,14.095l0.027,0.378L2.618,14.639z"/>
	<g>
		<g>
			<g enable-background="new    ">
				<path fill="#331842" d="M290.985,141.087c0.035-1.816,0.052-3.604,0.052-5.361c0-3.034-0.052-5.98-0.157-8.838
					c1.485-0.117,2.786-0.176,3.904-0.176c2.052,0,3.476,0.198,4.271,0.596c1.223,0.611,1.913,1.438,2.07,2.48
					c0.035,0.267,0.052,0.523,0.052,0.771c0,0.709-0.162,1.324-0.484,1.846c-0.446,0.709-1.236,1.217-2.372,1.523
					c1.267,0.143,2.175,0.484,2.725,1.025c0.463,0.455,0.694,1.106,0.694,1.953c0,0.162-0.009,0.332-0.026,0.508
					c-0.104,1.106-0.574,1.934-1.408,2.48s-1.994,0.921-3.478,1.123c-0.838,0.11-1.821,0.166-2.948,0.166
					C292.998,141.185,292.033,141.151,290.985,141.087z M294.352,129.134l0.092,4.189c1.625-0.065,2.655-0.479,3.092-1.24
					c0.236-0.404,0.354-0.801,0.354-1.191c0-0.326-0.087-0.648-0.262-0.967c-0.306-0.554-1.087-0.83-2.345-0.83
					C295.002,129.095,294.693,129.107,294.352,129.134z M294.601,135.335v3.271c0.201,0.006,0.393,0.01,0.576,0.01
					c1.625,0,2.651-0.332,3.079-0.996c0.236-0.371,0.354-0.707,0.354-1.006c0-0.293-0.114-0.551-0.341-0.771
					c-0.375-0.358-1.249-0.537-2.62-0.537C295.326,135.306,294.977,135.315,294.601,135.335z"/>
				<path fill="#331842" d="M308.92,127.034c3.677,0,5.515,2.344,5.515,7.031c0,4.693-1.969,7.041-5.908,7.041
					s-5.908-2.432-5.908-7.295C302.619,129.293,304.719,127.034,308.92,127.034z M306.3,134.329
					c-0.009,0.169-0.013,0.332-0.013,0.488c0,2.454,0.769,3.682,2.306,3.682c1.633,0,2.45-1.391,2.45-4.17
					c0-2.78-0.76-4.17-2.279-4.17C307.234,130.159,306.413,131.549,306.3,134.329z"/>
				<path fill="#331842" d="M319.322,126.741c-0.157,3.392-0.236,6.299-0.236,8.721c0,0.963,0.013,1.852,0.039,2.666l5.843-0.215
					l0.092,3.184l-9.354,0.156c0.008-0.859,0.013-1.716,0.013-2.568c0-3.913-0.113-7.807-0.34-11.68L319.322,126.741z"/>
				<path fill="#331842" d="M329.985,140.677l-3.262,0.225c0-4.779-0.105-9.265-0.314-13.457l3.733-0.234
					C330.046,131.63,329.994,136.119,329.985,140.677z M326.724,125.218c1.022-0.905,1.86-1.768,2.515-2.588l2.148,1.27
					c-0.926,0.677-1.957,1.507-3.092,2.49L326.724,125.218z"/>
				<path fill="#331842" d="M334.23,140.999c-1.065-4.389-2.328-8.975-3.786-13.76l3.826-0.293l2.24,10.703
					c1.144-3.744,2.078-7.133,2.803-10.166l3.629,0.332c-1.834,5.904-3.201,10.264-4.101,13.076L334.23,140.999z"/>
				<path fill="#331842" d="M342.497,141.038c1.642-5.561,2.969-10.273,3.982-14.141l4.913-0.059
					c1.205,4.023,2.585,8.606,4.14,13.75l-3.354,0.508l-1.061-3.701h-4.074l-1.101,3.994L342.497,141.038z M351.012,134.651
					c-0.455-1.406-1.197-3.09-2.228-5.049c-0.794,1.646-1.467,3.353-2.017,5.117L351.012,134.651z"/>
				<path fill="#331842" d="M356.042,141.292c0.053-1.862,0.079-3.737,0.079-5.625c0-2.891-0.061-5.811-0.183-8.76
					c1.354-0.104,2.568-0.156,3.642-0.156c2.987,0,4.891,0.406,5.711,1.221c0.769,0.762,1.153,1.602,1.153,2.52
					c0,0.416-0.075,0.846-0.223,1.289c-0.506,1.432-1.572,2.34-3.196,2.725c1.135,0.117,1.996,0.572,2.581,1.367
					c0.559,0.768,0.839,2.701,0.839,5.801v0.42l-3.957,0.039c0.043-0.82,0.065-1.557,0.065-2.207c0-1.973-0.214-3.181-0.642-3.623
					c-0.489-0.495-1.07-0.742-1.742-0.742c-0.131,0-0.267,0.01-0.406,0.029c0.053,1.985,0.166,3.867,0.341,5.645L356.042,141.292z
					 M359.396,129.183l0.092,4.18c1.625-0.059,2.655-0.469,3.092-1.23c0.236-0.404,0.354-0.798,0.354-1.182
					c0-0.332-0.087-0.658-0.262-0.977c-0.314-0.554-1.096-0.83-2.345-0.83C360.039,129.144,359.729,129.156,359.396,129.183z"/>
			</g>
		</g>
	</g>
</g>
</svg>
