<?xml version="1.0" encoding="utf-8"?>
<!-- Generator: Adobe Illustrator 16.0.0, SVG Export Plug-In . SVG Version: 6.00 Build 0)  -->
<!DOCTYPE svg PUBLIC "-//W3C//DTD SVG 1.1//EN" "http://www.w3.org/Graphics/SVG/1.1/DTD/svg11.dtd">
<svg version="1.1" id="Capa_1" xmlns="http://www.w3.org/2000/svg" xmlns:xlink="http://www.w3.org/1999/xlink" x="0px" y="0px"
	 width="788.418px" height="230.904px" viewBox="0 0 788.418 230.904" enable-background="new 0 0 788.418 230.904"
	 xml:space="preserve">
<g>
	<rect y="184.872" fill="#951B81" width="239.093" height="46.032"/>
	<rect x="244.434" y="0" opacity="0.5" fill="#951B81" enable-background="new    " width="269.321" height="31"/>
	<rect x="244.434" y="36.5" opacity="0.5" fill="#951B81" enable-background="new    " width="269.321" height="194.404"/>
	<rect x="519.098" y="0" opacity="0.5" fill="#331842" enable-background="new    " width="269.32" height="31"/>
	<rect x="519.098" y="36.844" opacity="0.5" fill="#331842" enable-background="new    " width="269.32" height="194.061"/>
	<g>
		<g>
			<path fill="#FFFFFF" d="M302.702,13.448l-2.908,0.011v-0.265c0-1.529-0.577-2.295-1.729-2.295c-1.231,0-1.848,1.413-1.848,4.238
				c0,3.184,0.646,4.775,1.939,4.775h0.013c1.292-0.007,1.939-0.788,1.939-2.345v-0.967h3.249v0.732
				c0,3.242-1.786,4.938-5.358,5.088c-0.104,0.007-0.209,0.01-0.314,0.01c-3.363,0-5.044-2.409-5.044-7.227
				c0-4.713,1.729-7.07,5.188-7.07c3.258,0,4.887,1.576,4.887,4.727C302.715,13.052,302.71,13.248,302.702,13.448z"/>
			<path fill="#FFFFFF" d="M308.741,12.482c2.969,0,4.454,1.537,4.454,4.609c0,0.124-0.004,0.248-0.014,0.371
				c-0.123,3.327-1.702,5.007-4.741,5.039c-0.035,0.007-0.07,0.01-0.105,0.01c-2.891,0-4.336-1.572-4.336-4.717v-0.273
				C304.086,14.162,305.667,12.482,308.741,12.482z M308.309,14.709c-0.55,0.144-0.926,0.674-1.126,1.592
				c-0.123,0.547-0.183,1.097-0.183,1.65c0,0.37,0.026,0.745,0.078,1.122c0.14,0.938,0.59,1.424,1.35,1.455h0.092
				c0.707,0,1.192-0.348,1.454-1.045c0.219-0.579,0.328-1.266,0.328-2.061c0-0.195-0.004-0.395-0.013-0.596
				c-0.07-1.049-0.28-1.702-0.629-1.964c-0.218-0.155-0.48-0.233-0.786-0.233C308.697,14.631,308.51,14.656,308.309,14.709z"/>
			<path fill="#FFFFFF" d="M316.326,12.229l0.131,1.592c0.367-0.846,1.332-1.275,2.895-1.289h0.054c1.537,0,2.585,0.449,3.144,1.349
				c0.384,0.612,0.576,2.044,0.576,4.297c0,1.107-0.048,2.416-0.144,3.926h-3.171c0.114-2.012,0.171-3.571,0.171-4.678
				c0-0.553-0.014-0.996-0.039-1.328c-0.089-0.977-0.508-1.465-1.259-1.465s-1.223,0.261-1.415,0.781l0.132,7.08l-3.078,0.02
				c0-2.995-0.137-6.357-0.406-10.088L316.326,12.229z"/>
			<path fill="#FFFFFF" d="M324.056,19.045l3-0.107v0.127c0,1.003,0.415,1.512,1.245,1.523h0.052c0.805,0,1.206-0.29,1.206-0.869
				V19.65c-0.034-0.638-0.827-1.151-2.378-1.543c-1.55-0.391-2.481-1.048-2.797-1.973c-0.114-0.325-0.17-0.638-0.17-0.938
				c0-0.547,0.188-1.055,0.563-1.522c0.575-0.716,1.449-1.126,2.62-1.23c0.313-0.025,0.619-0.039,0.916-0.039
				c0.777,0,1.464,0.102,2.058,0.304c0.812,0.279,1.376,0.681,1.689,1.201c0.21,0.357,0.314,0.755,0.314,1.19
				c0,0.208-0.022,0.423-0.065,0.646l-2.803,0.049c0.026-0.163,0.039-0.312,0.039-0.449c0-0.651-0.28-0.999-0.838-1.045
				c-0.062-0.006-0.123-0.01-0.184-0.01c-0.576,0-0.966,0.218-1.166,0.653c-0.07,0.15-0.105,0.287-0.105,0.41
				c0,0.307,0.192,0.57,0.576,0.791c0.542,0.312,1.343,0.63,2.404,0.952s1.774,0.871,2.142,1.646
				c0.131,0.293,0.197,0.586,0.197,0.879c0,0.495-0.192,0.992-0.577,1.493c-0.611,0.802-1.56,1.268-2.843,1.396
				c-0.28,0.033-0.556,0.049-0.825,0.049c-0.961,0-1.853-0.186-2.672-0.557C324.606,21.529,324.073,20.542,324.056,19.045z"/>
			<path fill="#FFFFFF" d="M335.702,9.367l2.974-0.146v3.232l2.502-0.05l0.04,1.847l-2.542,0.088v4.442
				c0,1.035,0.59,1.554,1.77,1.554c0.245,0,0.511-0.022,0.799-0.068l-0.118,2.148c-0.419,0.039-0.817,0.059-1.192,0.059
				c-2.76,0-4.165-1.061-4.218-3.184v-4.775l-2.147,0.098l-0.053-2.178l2.201,0.021L335.702,9.367z"/>
			<path fill="#FFFFFF" d="M345.973,10.236c0,0.397-0.188,0.736-0.562,1.017c-0.375,0.279-0.83,0.42-1.363,0.42
				c-0.522,0-0.974-0.141-1.349-0.42c-0.375-0.28-0.563-0.618-0.563-1.017c0-0.391,0.188-0.726,0.563-1.006
				c0.375-0.279,0.826-0.42,1.349-0.42c0.533,0,0.987,0.141,1.363,0.42C345.785,9.511,345.973,9.846,345.973,10.236z
				 M342.462,22.561c-0.061-3.809-0.092-7.1-0.092-9.873l3.302-0.146c-0.104,2.655-0.157,5.296-0.157,7.92
				c0,0.703,0.004,1.402,0.014,2.1L342.462,22.561L342.462,22.561z"/>
			<path fill="#FFFFFF" d="M348.881,9.367l2.975-0.146v3.232l2.502-0.05l0.039,1.847l-2.542,0.088v4.442
				c0,1.035,0.589,1.554,1.769,1.554c0.245,0,0.511-0.022,0.799-0.068l-0.118,2.148c-0.419,0.039-0.815,0.059-1.191,0.059
				c-2.76,0-4.166-1.061-4.218-3.184v-4.775l-2.148,0.098l-0.053-2.178l2.2,0.021L348.881,9.367z"/>
			<path fill="#FFFFFF" d="M362.283,22.512l-0.131-1.592c-0.367,0.847-1.354,1.272-2.961,1.278
				c-0.019,0.008-0.031,0.011-0.039,0.011c-1.591,0-2.643-0.534-3.157-1.603c-0.351-0.709-0.524-2.178-0.524-4.403
				c0-1.146,0.048-2.497,0.146-4.054h3.183c-0.175,2.188-0.262,3.871-0.262,5.049c0,0.594,0.021,1.056,0.065,1.388
				c0.132,1.016,0.572,1.522,1.323,1.522s1.224-0.264,1.415-0.791l-0.131-6.776l3.079-0.021c0,2.8,0.135,6.062,0.406,9.785
				L362.283,22.512z"/>
			<path fill="#FFFFFF" d="M371.139,18.488l3.118,0.146c0,2.351-1.455,3.542-4.363,3.574c-0.034,0.007-0.064,0.01-0.092,0.01
				c-2.769,0-4.151-1.565-4.151-4.697v-0.293c0.087-3.358,1.562-5.055,4.428-5.088h0.104c2.639,0,3.957,1.126,3.957,3.379
				c0,0.13-0.004,0.261-0.013,0.392l-2.816,0.155v-0.233c0-1.186-0.449-1.777-1.35-1.777c-0.917,0-1.375,0.96-1.375,2.881v0.322
				c0.053,2.077,0.515,3.115,1.389,3.115h0.079c0.761-0.045,1.141-0.479,1.141-1.3C371.191,18.898,371.174,18.703,371.139,18.488z"
				/>
			<path fill="#FFFFFF" d="M379.013,10.236c0,0.397-0.188,0.736-0.562,1.017c-0.375,0.279-0.83,0.42-1.362,0.42
				c-0.523,0-0.974-0.141-1.35-0.42c-0.375-0.28-0.563-0.618-0.563-1.017c0-0.391,0.188-0.726,0.563-1.006
				c0.375-0.279,0.826-0.42,1.35-0.42c0.533,0,0.987,0.141,1.362,0.42C378.825,9.511,379.013,9.846,379.013,10.236z M375.502,22.561
				c-0.062-3.809-0.092-7.1-0.092-9.873l3.301-0.146c-0.104,2.655-0.157,5.296-0.157,7.92c0,0.703,0.004,1.402,0.014,2.1
				L375.502,22.561L375.502,22.561z"/>
			<path fill="#FFFFFF" d="M384.345,12.482c2.97,0,4.454,1.537,4.454,4.609c0,0.124-0.005,0.248-0.013,0.371
				c-0.123,3.327-1.703,5.007-4.743,5.039c-0.035,0.007-0.07,0.01-0.104,0.01c-2.892,0-4.337-1.572-4.337-4.717v-0.273
				C379.689,14.162,381.27,12.482,384.345,12.482z M383.912,14.709c-0.55,0.144-0.926,0.674-1.126,1.592
				c-0.123,0.547-0.185,1.097-0.185,1.65c0,0.37,0.026,0.745,0.079,1.122c0.141,0.938,0.59,1.424,1.351,1.455h0.092
				c0.707,0,1.192-0.348,1.454-1.045c0.218-0.579,0.327-1.266,0.327-2.061c0-0.195-0.004-0.395-0.014-0.596
				c-0.069-1.049-0.279-1.702-0.629-1.964c-0.219-0.155-0.479-0.233-0.786-0.233C384.301,14.631,384.113,14.656,383.912,14.709z
				 M382.642,10.578c1.021-0.905,1.86-1.769,2.516-2.589l2.147,1.271c-0.926,0.677-1.957,1.507-3.092,2.49L382.642,10.578z"/>
			<path fill="#FFFFFF" d="M391.93,12.229l0.131,1.592c0.367-0.846,1.332-1.275,2.896-1.289h0.052c1.537,0,2.585,0.449,3.145,1.349
				c0.384,0.612,0.577,2.044,0.577,4.297c0,1.107-0.049,2.416-0.145,3.926h-3.17c0.113-2.012,0.17-3.571,0.17-4.678
				c0-0.553-0.013-0.996-0.04-1.328c-0.087-0.977-0.506-1.465-1.257-1.465s-1.223,0.261-1.415,0.781l0.131,7.08l-3.079,0.02
				c0-2.995-0.135-6.357-0.406-10.088L391.93,12.229z"/>
			<path fill="#FFFFFF" d="M404.913,22.219c0.052-1.712,0.079-3.463,0.079-5.254c0-2.747-0.062-5.592-0.185-8.535
				c1.494-0.156,2.812-0.234,3.957-0.234c1.8,0,3.153,0.195,4.062,0.586c1.406,0.605,2.108,1.847,2.108,3.722v0.322
				c-0.087,2.058-0.712,3.373-1.873,3.949c-1.162,0.576-2.595,0.885-4.298,0.923c-0.009,0.202-0.013,0.41-0.013,0.625
				c0,1.081,0.074,2.36,0.223,3.839L404.913,22.219z M408.266,10.695l0.093,4.775c1.625-0.065,2.575-0.498,2.855-1.299
				c0.131-0.364,0.196-0.739,0.196-1.123c0-0.449-0.087-0.911-0.262-1.387c-0.263-0.696-0.917-1.045-1.966-1.045
				C408.904,10.617,408.598,10.644,408.266,10.695z"/>
			<path fill="#FFFFFF" d="M420.83,12.482c2.969,0,4.454,1.537,4.454,4.609c0,0.124-0.004,0.248-0.014,0.371
				c-0.121,3.327-1.702,5.007-4.741,5.039c-0.035,0.007-0.07,0.01-0.104,0.01c-2.891,0-4.336-1.572-4.336-4.717v-0.273
				C416.174,14.162,417.755,12.482,420.83,12.482z M420.397,14.709c-0.551,0.144-0.927,0.674-1.128,1.592
				c-0.121,0.547-0.183,1.097-0.183,1.65c0,0.37,0.026,0.745,0.079,1.122c0.14,0.938,0.589,1.424,1.349,1.455h0.093
				c0.708,0,1.191-0.348,1.453-1.045c0.219-0.579,0.328-1.266,0.328-2.061c0-0.195-0.004-0.395-0.013-0.596
				c-0.07-1.049-0.28-1.702-0.629-1.964c-0.218-0.155-0.48-0.233-0.786-0.233C420.786,14.631,420.598,14.656,420.397,14.709z"/>
			<path fill="#FFFFFF" d="M429.686,22.346l-3.262,0.225c0.035-2.154,0.052-4.229,0.052-6.221c0-2.799-0.034-5.438-0.104-7.92
				l3.21-0.039c-0.035,1.595-0.053,3.232-0.053,4.912C429.528,16.2,429.581,19.214,429.686,22.346z"/>
			<path fill="#FFFFFF" d="M430.97,22.561c-0.062-3.809-0.092-7.1-0.092-9.873l3.301-0.146c-0.104,2.655-0.156,5.296-0.156,7.92
				c0,0.703,0.004,1.402,0.013,2.1L430.97,22.561L430.97,22.561z M430.97,10.578c1.021-0.905,1.86-1.769,2.516-2.589l2.147,1.271
				c-0.926,0.677-1.957,1.507-3.092,2.49L430.97,10.578z"/>
			<path fill="#FFFFFF" d="M437.389,9.367l2.975-0.146v3.232l2.502-0.05l0.04,1.847l-2.542,0.088v4.442
				c0,1.035,0.589,1.554,1.769,1.554c0.244,0,0.511-0.022,0.799-0.068l-0.117,2.148c-0.42,0.039-0.817,0.059-1.192,0.059
				c-2.76,0-4.166-1.061-4.218-3.184v-4.775l-2.148,0.098l-0.052-2.178l2.201,0.021L437.389,9.367z"/>
			<path fill="#FFFFFF" d="M447.66,10.236c0,0.397-0.188,0.736-0.563,1.017c-0.375,0.279-0.83,0.42-1.361,0.42
				c-0.524,0-0.975-0.141-1.351-0.42c-0.375-0.28-0.562-0.618-0.562-1.017c0-0.391,0.188-0.726,0.562-1.006
				c0.375-0.279,0.826-0.42,1.351-0.42c0.532,0,0.986,0.141,1.361,0.42C447.472,9.511,447.66,9.846,447.66,10.236z M444.148,22.561
				c-0.062-3.809-0.093-7.1-0.093-9.873l3.303-0.146c-0.105,2.655-0.157,5.296-0.157,7.92c0,0.703,0.004,1.402,0.013,2.1
				L444.148,22.561L444.148,22.561z"/>
			<path fill="#FFFFFF" d="M453.738,18.488l3.118,0.146c0,2.351-1.454,3.542-4.363,3.574c-0.035,0.007-0.065,0.01-0.091,0.01
				c-2.77,0-4.153-1.565-4.153-4.697v-0.293c0.087-3.358,1.562-5.055,4.428-5.088h0.105c2.637,0,3.956,1.126,3.956,3.379
				c0,0.13-0.004,0.261-0.014,0.392l-2.816,0.155v-0.233c0-1.186-0.45-1.777-1.35-1.777c-0.917,0-1.376,0.96-1.376,2.881v0.322
				c0.054,2.077,0.517,3.115,1.39,3.115h0.079c0.76-0.045,1.14-0.479,1.14-1.3C453.791,18.898,453.773,18.703,453.738,18.488z"/>
			<path fill="#FFFFFF" d="M463.014,12.198c2.873,0.117,4.311,1.195,4.311,3.232v6.934l-3.054,0.039l-0.104-0.928
				c-0.629,0.534-1.463,0.801-2.502,0.801c-0.445,0-0.926-0.052-1.441-0.155c-1.546-0.286-2.318-1.179-2.318-2.677
				c0-0.182,0.013-0.377,0.039-0.586c0.175-1.543,1.646-2.313,4.415-2.313c0.532,0,1.117,0.028,1.756,0.088V15.5
				c0-0.918-0.39-1.377-1.166-1.377h-0.054c-0.061-0.006-0.117-0.011-0.17-0.011c-0.848,0-1.271,0.516-1.271,1.543v0.146
				l-3.118-0.195c0-2.271,1.467-3.408,4.402-3.408H463.014z M464.114,19.914v-1.72c-0.376-0.059-0.717-0.088-1.022-0.088
				c-0.795,0-1.336,0.199-1.625,0.597c-0.175,0.24-0.262,0.466-0.262,0.674c0,0.261,0.14,0.492,0.419,0.692
				c0.218,0.156,0.502,0.234,0.852,0.234C462.922,20.305,463.468,20.175,464.114,19.914z"/>
		</g>
	</g>
	<g>
		<g>
			<path fill="#FFFFFF" d="M631.081,23.141c0.018-2.194,0.026-4.453,0.026-6.777c0-2.33-0.01-4.723-0.026-7.178
				c1.004-0.091,1.93-0.137,2.777-0.137c2.357,0,4.096,0.352,5.214,1.055c1.52,0.964,2.313,2.744,2.384,5.342v0.703
				c0,2.228-0.289,3.815-0.865,4.767c-0.638,1.048-1.804,1.745-3.498,2.09c-0.978,0.202-2.052,0.303-3.223,0.303
				C632.998,23.307,632.067,23.251,631.081,23.141z M634.33,11.979c-0.148,2.143-0.223,4.212-0.223,6.211
				c0,0.755,0.009,1.498,0.025,2.228c0.306,0.052,0.599,0.078,0.877,0.078c0.77,0,1.415-0.198,1.939-0.597
				c0.716-0.534,1.074-1.73,1.074-3.594v-0.039c-0.01-1.875-0.358-3.104-1.049-3.69c-0.532-0.442-1.166-0.664-1.899-0.664
				C634.841,11.91,634.592,11.933,634.33,11.979z"/>
			<path fill="#FFFFFF" d="M642.544,23.141c0.018-2.194,0.026-4.453,0.026-6.777c0-2.33-0.009-4.723-0.026-7.178
				c1.004-0.091,1.93-0.137,2.777-0.137c2.357,0,4.096,0.352,5.214,1.055c1.52,0.964,2.313,2.744,2.384,5.342v0.703
				c0,2.228-0.288,3.815-0.865,4.767c-0.638,1.048-1.804,1.745-3.498,2.09c-0.978,0.202-2.052,0.303-3.223,0.303
				C644.461,23.307,643.531,23.251,642.544,23.141z M645.793,11.979c-0.149,2.143-0.223,4.212-0.223,6.211
				c0,0.755,0.009,1.498,0.025,2.228c0.307,0.052,0.599,0.078,0.877,0.078c0.77,0,1.415-0.198,1.939-0.597
				c0.716-0.534,1.074-1.73,1.074-3.594v-0.039c-0.009-1.875-0.358-3.104-1.048-3.69c-0.533-0.442-1.166-0.664-1.899-0.664
				C646.304,11.91,646.055,11.933,645.793,11.979z"/>
			<path fill="#FFFFFF" d="M664.592,9.508c-0.104,4.382-0.205,9.102-0.301,14.16h-2.974v-5.693h-3.734v5.234l-3.576-0.011
				c0.104-2.389,0.157-4.727,0.157-7.012c0-2.277-0.053-4.505-0.157-6.68h3.419l-0.144,5.693l3.733,0.116V9.273L664.592,9.508z"/>
			<path fill="#FFFFFF" d="M676.435,9.508c-0.104,4.382-0.205,9.102-0.301,14.16h-2.974v-5.693h-3.733v5.234l-3.577-0.011
				c0.105-2.389,0.157-4.727,0.157-7.012c0-2.277-0.052-4.505-0.157-6.68h3.419l-0.144,5.693l3.733,0.116V9.273L676.435,9.508z"/>
		</g>
	</g>
	<g>
		<path fill="#FFFFFF" d="M9.512,194.468c2.574,0,3.861,1.641,3.861,4.922c0,3.286-1.379,4.929-4.136,4.929
			c-2.757,0-4.136-1.701-4.136-5.105C5.102,196.05,6.572,194.468,9.512,194.468z M7.678,199.574
			c-0.006,0.117-0.009,0.231-0.009,0.342c0,1.718,0.538,2.577,1.614,2.577c1.143,0,1.715-0.974,1.715-2.92
			c0-1.945-0.532-2.919-1.596-2.919C8.333,196.655,7.758,197.628,7.678,199.574z"/>
		<path fill="#FFFFFF" d="M16.454,194.871c-0.067,1.372-0.101,2.562-0.101,3.574c0.324-0.433,0.736-0.686,1.238-0.759
			c0.085-0.005,0.168-0.007,0.248-0.007c1.993,0,3.011,1.073,3.054,3.22v0.123c0,2.151-1.061,3.228-3.182,3.228
			c-0.508,0-0.988-0.253-1.44-0.759l-0.074,1.046l-2.173-0.008c0.03-1.668,0.045-3.271,0.045-4.812c0-1.69-0.018-3.307-0.055-4.847
			H16.454z M16.354,199.725l-0.046,2.365c0.318,0.482,0.721,0.725,1.21,0.725c0.055,0,0.11-0.002,0.165-0.007
			c0.562-0.059,0.875-0.622,0.936-1.688c0.006-0.109,0.009-0.215,0.009-0.314c0-0.875-0.239-1.396-0.716-1.564
			c-0.146-0.051-0.29-0.075-0.431-0.075C17.096,199.164,16.72,199.351,16.354,199.725z"/>
		<path fill="#FFFFFF" d="M24.194,204.428l-2.284,0.157c0.024-1.508,0.037-2.96,0.037-4.354c0-1.96-0.024-3.808-0.073-5.544
			l2.247-0.026c-0.025,1.116-0.037,2.263-0.037,3.438C24.084,200.126,24.121,202.235,24.194,204.428z"/>
		<path fill="#FFFFFF" d="M27.551,195.951c0,0.277-0.132,0.515-0.395,0.711c-0.263,0.195-0.581,0.294-0.954,0.294
			c-0.367,0-0.682-0.099-0.944-0.294c-0.262-0.196-0.395-0.434-0.395-0.711c0-0.273,0.132-0.509,0.395-0.704
			c0.263-0.195,0.578-0.294,0.944-0.294c0.373,0,0.691,0.099,0.954,0.294C27.419,195.443,27.551,195.678,27.551,195.951z
			 M25.093,204.578c-0.043-2.666-0.064-4.971-0.064-6.911l2.311-0.104c-0.074,1.859-0.11,3.708-0.11,5.544
			c0,0.492,0.003,0.982,0.009,1.471H25.093z"/>
		<path fill="#FFFFFF" d="M28.312,205.337l2.155-0.089c-0.006,0.055-0.009,0.108-0.009,0.164c0,0.497,0.266,0.768,0.798,0.812
			c0.085,0.009,0.165,0.014,0.238,0.014c0.458,0,0.786-0.137,0.981-0.409c0.171-0.246,0.256-0.707,0.256-1.382
			c0-0.182-0.006-0.383-0.018-0.602c-0.342,0.511-0.978,0.789-1.908,0.834c-1.815-0.014-2.724-1.164-2.724-3.452v-0.048
			c0.013-2.313,1.092-3.479,3.237-3.493c0.587,0,1.113,0.255,1.577,0.767l0.028-1.087l2.008,0.067c0,3.76-0.016,6.089-0.046,6.986
			c-0.031,0.896-0.212,1.617-0.546,2.16c-0.333,0.542-0.9,0.889-1.701,1.039c-0.422,0.082-0.841,0.123-1.256,0.123
			c-0.373,0-0.743-0.032-1.11-0.097c-0.783-0.137-1.32-0.395-1.614-0.771c-0.245-0.311-0.367-0.716-0.367-1.217
			C28.293,205.558,28.299,205.45,28.312,205.337z M32.695,202.63v-2.775c-0.3-0.451-0.679-0.677-1.138-0.677
			c-0.091,0-0.187,0.009-0.284,0.027c-0.593,0.104-0.92,0.714-0.981,1.824c-0.006,0.119-0.009,0.232-0.009,0.343
			c0,0.906,0.226,1.463,0.679,1.668c0.153,0.072,0.314,0.108,0.486,0.108C31.827,203.149,32.243,202.977,32.695,202.63z"/>
		<path fill="#FFFFFF" d="M39.188,197.325c2.012,0.081,3.018,0.836,3.018,2.263v4.854l-2.137,0.027l-0.074-0.649
			c-0.44,0.374-1.024,0.562-1.751,0.562c-0.312,0-0.648-0.036-1.009-0.109c-1.082-0.2-1.623-0.824-1.623-1.873
			c0-0.127,0.009-0.264,0.027-0.41c0.122-1.079,1.152-1.619,3.091-1.619c0.373,0,0.782,0.021,1.229,0.062v-0.793
			c0-0.643-0.272-0.964-0.816-0.964h-0.036c-0.043-0.005-0.083-0.007-0.12-0.007c-0.593,0-0.889,0.359-0.889,1.08v0.103
			l-2.183-0.137c0-1.591,1.027-2.386,3.081-2.386h0.192V197.325z M39.958,202.726v-1.203c-0.263-0.041-0.501-0.062-0.715-0.062
			c-0.556,0-0.935,0.14-1.137,0.417c-0.122,0.169-0.183,0.326-0.183,0.472c0,0.184,0.098,0.345,0.293,0.485
			c0.152,0.108,0.352,0.164,0.596,0.164C39.124,202.999,39.505,202.908,39.958,202.726z"/>
		<path fill="#FFFFFF" d="M46.689,201.728l2.182,0.104c0,1.646-1.018,2.479-3.054,2.502c-0.024,0.005-0.046,0.007-0.064,0.007
			c-1.938,0-2.907-1.096-2.907-3.288v-0.205c0.061-2.352,1.094-3.538,3.1-3.562h0.073c1.847,0,2.77,0.789,2.77,2.364
			c0,0.093-0.003,0.184-0.009,0.273l-1.972,0.108v-0.163c0-0.829-0.315-1.244-0.945-1.244c-0.642,0-0.963,0.672-0.963,2.017v0.227
			c0.037,1.453,0.361,2.181,0.972,2.181h0.055c0.532-0.032,0.798-0.335,0.798-0.909C46.726,202.015,46.713,201.878,46.689,201.728z"
			/>
		<path fill="#FFFFFF" d="M52.201,195.951c0,0.277-0.132,0.515-0.395,0.711c-0.263,0.195-0.581,0.294-0.954,0.294
			c-0.367,0-0.682-0.099-0.944-0.294c-0.263-0.196-0.395-0.434-0.395-0.711c0-0.273,0.131-0.509,0.395-0.704
			c0.263-0.195,0.577-0.294,0.944-0.294c0.373,0,0.69,0.099,0.954,0.294C52.069,195.443,52.201,195.678,52.201,195.951z
			 M49.743,204.578c-0.042-2.666-0.064-4.971-0.064-6.911l2.311-0.104c-0.074,1.859-0.11,3.708-0.11,5.544
			c0,0.492,0.003,0.982,0.009,1.471H49.743z"/>
		<path fill="#FFFFFF" d="M55.933,197.523c2.079,0,3.118,1.075,3.118,3.228c0,0.087-0.003,0.173-0.009,0.26
			c-0.086,2.329-1.192,3.505-3.32,3.527c-0.025,0.005-0.049,0.007-0.074,0.007c-2.023,0-3.035-1.102-3.035-3.302v-0.191
			C52.674,198.699,53.781,197.523,55.933,197.523z M55.63,199.082c-0.385,0.101-0.648,0.472-0.789,1.113
			c-0.086,0.384-0.128,0.769-0.128,1.155c0,0.26,0.018,0.522,0.055,0.786c0.098,0.656,0.412,0.996,0.944,1.019h0.064
			c0.495,0,0.834-0.242,1.018-0.73c0.153-0.405,0.229-0.887,0.229-1.442c0-0.137-0.003-0.274-0.009-0.417
			c-0.049-0.732-0.196-1.19-0.44-1.374c-0.153-0.108-0.336-0.164-0.55-0.164C55.902,199.027,55.771,199.046,55.63,199.082z
			 M54.741,196.19c0.715-0.633,1.302-1.236,1.761-1.812l1.504,0.889c-0.648,0.475-1.37,1.056-2.164,1.743L54.741,196.19z"/>
		<path fill="#FFFFFF" d="M61.243,197.346l0.091,1.114c0.257-0.592,0.933-0.894,2.027-0.902h0.037c1.076,0,1.81,0.314,2.201,0.943
			c0.269,0.429,0.403,1.432,0.403,3.008c0,0.775-0.034,1.691-0.101,2.748h-2.22c0.08-1.408,0.119-2.5,0.119-3.274
			c0-0.388-0.009-0.696-0.027-0.93c-0.061-0.684-0.354-1.025-0.88-1.025s-0.856,0.184-0.99,0.548l0.092,4.955l-2.155,0.015
			c0-2.096-0.095-4.45-0.284-7.062L61.243,197.346z"/>
		<path fill="#FFFFFF" d="M77.117,194.871c-0.037,1.54-0.055,3.155-0.055,4.847c0,1.541,0.015,3.145,0.046,4.812l-2.173,0.008
			l-0.074-1.046c-0.452,0.506-1.054,0.759-1.806,0.759c-1.877,0-2.815-1.071-2.815-3.213c0-0.046,0.003-0.092,0.009-0.138
			c0.037-2.146,0.966-3.22,2.788-3.22c0.074,0,0.15,0.002,0.229,0.007c0.624,0.027,1.128,0.28,1.513,0.759
			c0-1.012-0.034-2.202-0.101-3.574H77.117L77.117,194.871z M74.824,202.09l-0.046-2.365c-0.355-0.36-0.719-0.54-1.092-0.54
			c-0.152,0-0.306,0.029-0.458,0.089c-0.483,0.188-0.725,0.711-0.725,1.572c0,0.101,0.003,0.203,0.009,0.308
			c0.062,1.044,0.373,1.597,0.936,1.654c0.055,0.005,0.11,0.007,0.165,0.007C74.103,202.814,74.506,202.573,74.824,202.09z"/>
		<path fill="#FFFFFF" d="M80.821,197.523c2.122,0,3.182,1.051,3.182,3.151c0,0.256-0.015,0.529-0.046,0.82h-4.099
			c0,1.172,0.303,1.757,0.908,1.757h0.064c0.532-0.032,0.798-0.335,0.798-0.909c0-0.123-0.012-0.26-0.037-0.41l2.183-0.034
			c0,1.736-1.018,2.616-3.054,2.64c-0.025,0.005-0.046,0.007-0.064,0.007c-1.938,0-2.907-1.096-2.907-3.288v-0.205
			C77.811,198.699,78.834,197.523,80.821,197.523z M79.638,200.237h2.073v-0.164c0-0.828-0.315-1.243-0.944-1.243
			C80.088,198.829,79.712,199.299,79.638,200.237z"/>
		<path fill="#FFFFFF" d="M88.369,205.337l2.155-0.089c-0.006,0.055-0.009,0.108-0.009,0.164c0,0.497,0.266,0.768,0.798,0.812
			c0.085,0.009,0.165,0.014,0.238,0.014c0.458,0,0.785-0.137,0.981-0.409c0.171-0.246,0.256-0.707,0.256-1.382
			c0-0.182-0.006-0.383-0.018-0.602c-0.343,0.511-0.979,0.789-1.908,0.834c-1.815-0.014-2.724-1.164-2.724-3.452v-0.048
			c0.012-2.313,1.091-3.479,3.237-3.493c0.587,0,1.113,0.255,1.577,0.767l0.028-1.087l2.008,0.067c0,3.76-0.016,6.089-0.046,6.986
			c-0.031,0.896-0.212,1.617-0.546,2.16c-0.333,0.542-0.9,0.889-1.701,1.039c-0.422,0.082-0.841,0.123-1.257,0.123
			c-0.373,0-0.743-0.032-1.109-0.097c-0.783-0.137-1.32-0.395-1.614-0.771c-0.244-0.311-0.367-0.716-0.367-1.217
			C88.35,205.558,88.356,205.45,88.369,205.337z M92.752,202.63v-2.775c-0.3-0.451-0.679-0.677-1.137-0.677
			c-0.091,0-0.187,0.009-0.284,0.027c-0.593,0.104-0.92,0.714-0.981,1.824c-0.006,0.119-0.009,0.232-0.009,0.343
			c0,0.906,0.226,1.463,0.678,1.668c0.153,0.072,0.315,0.108,0.486,0.108C91.884,203.149,92.3,202.977,92.752,202.63z"/>
		<path fill="#FFFFFF" d="M99.245,197.325c2.011,0.081,3.017,0.836,3.017,2.263v4.854l-2.137,0.027l-0.073-0.649
			c-0.44,0.374-1.024,0.562-1.751,0.562c-0.312,0-0.648-0.036-1.009-0.109c-1.082-0.2-1.623-0.824-1.623-1.873
			c0-0.127,0.009-0.264,0.027-0.41c0.122-1.079,1.152-1.619,3.09-1.619c0.373,0,0.783,0.021,1.229,0.062v-0.793
			c0-0.643-0.272-0.964-0.816-0.964h-0.037c-0.043-0.005-0.083-0.007-0.119-0.007c-0.593,0-0.89,0.359-0.89,1.08v0.103l-2.183-0.137
			c0-1.591,1.027-2.386,3.082-2.386h0.193V197.325z M100.015,202.726v-1.203c-0.263-0.041-0.501-0.062-0.715-0.062
			c-0.557,0-0.936,0.14-1.137,0.417c-0.123,0.169-0.183,0.326-0.183,0.472c0,0.184,0.098,0.345,0.293,0.485
			c0.153,0.108,0.352,0.164,0.596,0.164C99.181,202.999,99.562,202.908,100.015,202.726z"/>
		<path fill="#FFFFFF" d="M105.435,199.643l0.092,4.956l-2.247,0.014c0-2.096-0.095-4.449-0.285-7.062l1.688-0.137l0.092,1.113
			c0.257-0.547,0.856-0.858,1.797-0.937c0.141-0.009,0.275-0.014,0.404-0.014c0.739,0,1.302,0.181,1.687,0.54
			c0.446,0.429,0.672,1.108,0.679,2.044l-2.036,0.149c0.006-0.077,0.009-0.151,0.009-0.226c0-0.729-0.253-1.094-0.761-1.094h-0.037
			C105.93,199.017,105.569,199.232,105.435,199.643z"/>
		<path fill="#FFFFFF" d="M113.505,197.325c2.011,0.081,3.017,0.836,3.017,2.263v4.854l-2.137,0.027l-0.073-0.649
			c-0.44,0.374-1.024,0.562-1.751,0.562c-0.312,0-0.648-0.036-1.009-0.109c-1.082-0.2-1.623-0.824-1.623-1.873
			c0-0.127,0.009-0.264,0.027-0.41c0.123-1.079,1.152-1.619,3.09-1.619c0.373,0,0.783,0.021,1.229,0.062v-0.793
			c0-0.643-0.272-0.964-0.816-0.964h-0.037c-0.042-0.005-0.082-0.007-0.119-0.007c-0.593,0-0.89,0.359-0.89,1.08v0.103l-2.182-0.137
			c0-1.591,1.027-2.386,3.081-2.386h0.193V197.325z M114.275,202.726v-1.203c-0.263-0.041-0.501-0.062-0.715-0.062
			c-0.556,0-0.936,0.14-1.137,0.417c-0.122,0.169-0.183,0.326-0.183,0.472c0,0.184,0.098,0.345,0.293,0.485
			c0.153,0.108,0.351,0.164,0.596,0.164C113.44,202.999,113.822,202.908,114.275,202.726z"/>
		<path fill="#FFFFFF" d="M118.943,197.346l0.091,1.114c0.257-0.592,0.933-0.894,2.027-0.902h0.037c1.076,0,1.81,0.314,2.201,0.943
			c0.269,0.429,0.403,1.432,0.403,3.008c0,0.775-0.034,1.691-0.101,2.748h-2.22c0.08-1.408,0.119-2.5,0.119-3.274
			c0-0.388-0.009-0.696-0.027-0.93c-0.061-0.684-0.354-1.025-0.88-1.025c-0.526,0-0.856,0.184-0.99,0.548l0.092,4.955l-2.155,0.015
			c0-2.096-0.095-4.45-0.284-7.062L118.943,197.346z"/>
		<path fill="#FFFFFF" d="M125.995,195.343l2.082-0.104v2.264l1.752-0.034l0.027,1.292l-1.779,0.062v3.11
			c0,0.726,0.413,1.087,1.238,1.087c0.171,0,0.357-0.016,0.56-0.048l-0.083,1.504c-0.293,0.027-0.571,0.041-0.834,0.041
			c-1.932,0-2.917-0.742-2.953-2.229v-3.344l-1.504,0.068l-0.037-1.524l1.541,0.015L125.995,195.343z"/>
		<path fill="#FFFFFF" d="M133.185,195.951c0,0.277-0.132,0.515-0.395,0.711c-0.263,0.195-0.581,0.294-0.954,0.294
			c-0.367,0-0.682-0.099-0.945-0.294c-0.263-0.196-0.394-0.434-0.394-0.711c0-0.273,0.131-0.509,0.394-0.704
			c0.263-0.195,0.578-0.294,0.945-0.294c0.373,0,0.691,0.099,0.954,0.294S133.185,195.678,133.185,195.951z M130.727,204.578
			c-0.043-2.666-0.064-4.971-0.064-6.911l2.311-0.104c-0.073,1.859-0.11,3.708-0.11,5.544c0,0.492,0.003,0.982,0.009,1.471H130.727z
			"/>
		<path fill="#FFFFFF" d="M133.734,197.489c0.538,0.011,1.141,0.015,1.807,0.015c1.07,0,2.308-0.012,3.714-0.034l0.046,1.395
			l-3.265,4.103h3.265l-0.027,1.497c-1.535,0-3.402,0.022-5.603,0.067l-0.073-1.325l3.42-4.342c-1.095,0-2.173,0.03-3.237,0.09
			L133.734,197.489z"/>
		<path fill="#FFFFFF" d="M143.52,197.325c2.011,0.081,3.017,0.836,3.017,2.263v4.854l-2.137,0.027l-0.074-0.649
			c-0.44,0.374-1.024,0.562-1.751,0.562c-0.312,0-0.648-0.036-1.008-0.109c-1.083-0.2-1.624-0.824-1.624-1.873
			c0-0.127,0.009-0.264,0.028-0.41c0.122-1.079,1.152-1.619,3.09-1.619c0.373,0,0.782,0.021,1.229,0.062v-0.793
			c0-0.643-0.272-0.964-0.816-0.964h-0.037c-0.043-0.005-0.083-0.007-0.12-0.007c-0.593,0-0.889,0.359-0.889,1.08v0.103
			l-2.183-0.137c0-1.591,1.027-2.386,3.081-2.386h0.194V197.325z M144.29,202.726v-1.203c-0.263-0.041-0.501-0.062-0.715-0.062
			c-0.556,0-0.935,0.14-1.137,0.417c-0.123,0.169-0.184,0.326-0.184,0.472c0,0.184,0.098,0.345,0.293,0.485
			c0.153,0.108,0.352,0.164,0.596,0.164C143.455,202.999,143.837,202.908,144.29,202.726z"/>
		<path fill="#FFFFFF" d="M149.709,199.643l0.092,4.956l-2.247,0.014c0-2.096-0.095-4.449-0.285-7.062l1.688-0.137l0.092,1.113
			c0.256-0.547,0.856-0.858,1.797-0.937c0.141-0.009,0.275-0.014,0.403-0.014c0.74,0,1.302,0.181,1.688,0.54
			c0.446,0.429,0.672,1.108,0.679,2.044l-2.036,0.149c0.006-0.077,0.009-0.151,0.009-0.226c0-0.729-0.253-1.094-0.761-1.094h-0.037
			C150.205,199.017,149.844,199.232,149.709,199.643z"/>
		<path fill="#FFFFFF" d="M160.228,204.428l-2.284,0.157c0.024-1.508,0.037-2.96,0.037-4.354c0-1.96-0.024-3.808-0.073-5.544
			l2.247-0.026c-0.024,1.116-0.037,2.263-0.037,3.438C160.118,200.126,160.154,202.235,160.228,204.428z"/>
		<path fill="#FFFFFF" d="M164.245,197.523c2.079,0,3.118,1.075,3.118,3.228c0,0.087-0.003,0.173-0.009,0.26
			c-0.086,2.329-1.192,3.505-3.32,3.527c-0.025,0.005-0.049,0.007-0.074,0.007c-2.023,0-3.035-1.102-3.035-3.302v-0.191
			C160.986,198.699,162.092,197.523,164.245,197.523z M163.942,199.082c-0.385,0.101-0.648,0.472-0.789,1.113
			c-0.086,0.384-0.128,0.769-0.128,1.155c0,0.26,0.018,0.522,0.055,0.786c0.098,0.656,0.412,0.996,0.944,1.019h0.064
			c0.495,0,0.834-0.242,1.018-0.73c0.153-0.405,0.229-0.887,0.229-1.442c0-0.137-0.003-0.274-0.009-0.417
			c-0.049-0.732-0.196-1.19-0.44-1.374c-0.153-0.108-0.336-0.164-0.55-0.164C164.214,199.027,164.083,199.046,163.942,199.082z"/>
		<path fill="#FFFFFF" d="M167.757,202.117l2.1-0.075v0.089c0,0.702,0.29,1.058,0.871,1.065h0.037c0.562,0,0.844-0.201,0.844-0.607
			v-0.048c-0.024-0.446-0.579-0.808-1.665-1.08c-1.086-0.273-1.738-0.733-1.958-1.381c-0.08-0.229-0.12-0.446-0.12-0.656
			c0-0.383,0.131-0.738,0.395-1.066c0.403-0.501,1.015-0.788,1.834-0.86c0.22-0.02,0.434-0.027,0.642-0.027
			c0.544,0,1.024,0.071,1.439,0.212c0.569,0.196,0.963,0.478,1.183,0.841c0.147,0.251,0.22,0.528,0.22,0.834
			c0,0.146-0.016,0.296-0.046,0.451l-1.962,0.034c0.018-0.113,0.027-0.219,0.027-0.314c0-0.454-0.196-0.698-0.587-0.73
			c-0.042-0.005-0.085-0.007-0.128-0.007c-0.403,0-0.676,0.151-0.816,0.458c-0.049,0.104-0.074,0.199-0.074,0.287
			c0,0.214,0.135,0.398,0.404,0.554c0.379,0.219,0.94,0.44,1.683,0.666c0.743,0.227,1.243,0.61,1.5,1.152
			c0.092,0.204,0.138,0.409,0.138,0.614c0,0.348-0.135,0.695-0.404,1.046c-0.428,0.562-1.091,0.888-1.99,0.979
			c-0.196,0.022-0.389,0.034-0.578,0.034c-0.672,0-1.296-0.13-1.871-0.391C168.142,203.856,167.769,203.165,167.757,202.117z"/>
		<path fill="#FFFFFF" d="M177.872,204.284c0.012-1.535,0.019-3.117,0.019-4.744c0-1.631-0.006-3.308-0.019-5.024
			c0.703-0.062,1.351-0.096,1.944-0.096c1.651,0,2.867,0.246,3.65,0.738c1.063,0.675,1.62,1.921,1.669,3.738v0.492
			c0,1.559-0.202,2.671-0.605,3.336c-0.446,0.734-1.262,1.222-2.448,1.463c-0.685,0.143-1.437,0.212-2.256,0.212
			C179.214,204.4,178.562,204.362,177.872,204.284z M180.146,196.471c-0.104,1.499-0.156,2.948-0.156,4.348
			c0,0.528,0.006,1.049,0.018,1.56c0.214,0.036,0.419,0.055,0.615,0.055c0.538,0,0.99-0.139,1.357-0.417
			c0.501-0.373,0.752-1.212,0.752-2.516v-0.027c-0.006-1.312-0.25-2.174-0.733-2.584c-0.373-0.31-0.816-0.465-1.33-0.465
			C180.504,196.423,180.329,196.438,180.146,196.471z"/>
		<path fill="#FFFFFF" d="M188.803,197.523c2.122,0,3.182,1.051,3.182,3.151c0,0.256-0.015,0.529-0.045,0.82h-4.1
			c0,1.172,0.303,1.757,0.908,1.757h0.064c0.532-0.032,0.798-0.335,0.798-0.909c0-0.123-0.012-0.26-0.037-0.41l2.183-0.034
			c0,1.736-1.018,2.616-3.054,2.64c-0.024,0.005-0.046,0.007-0.064,0.007c-1.938,0-2.907-1.096-2.907-3.288v-0.205
			C185.792,198.699,186.816,197.523,188.803,197.523z M187.62,200.237h2.072v-0.164c0-0.828-0.315-1.243-0.944-1.243
			C188.069,198.829,187.693,199.299,187.62,200.237z"/>
		<path fill="#FFFFFF" d="M195.112,199.643l0.091,4.956l-2.247,0.014c0-2.096-0.095-4.449-0.284-7.062l1.688-0.137l0.091,1.113
			c0.257-0.547,0.856-0.858,1.797-0.937c0.141-0.009,0.275-0.014,0.404-0.014c0.74,0,1.302,0.181,1.687,0.54
			c0.446,0.429,0.673,1.108,0.679,2.044l-2.036,0.149c0.006-0.077,0.009-0.151,0.009-0.226c0-0.729-0.254-1.094-0.761-1.094h-0.037
			C195.607,199.017,195.247,199.232,195.112,199.643z"/>
		<path fill="#FFFFFF" d="M202.613,197.523c2.122,0,3.183,1.051,3.183,3.151c0,0.256-0.016,0.529-0.046,0.82h-4.1
			c0,1.172,0.303,1.757,0.908,1.757h0.064c0.532-0.032,0.798-0.335,0.798-0.909c0-0.123-0.012-0.26-0.037-0.41l2.183-0.034
			c0,1.736-1.018,2.616-3.054,2.64c-0.024,0.005-0.046,0.007-0.064,0.007c-1.938,0-2.907-1.096-2.907-3.288v-0.205
			C199.603,198.699,200.626,197.523,202.613,197.523z M201.431,200.237h2.072v-0.164c0-0.828-0.315-1.243-0.944-1.243
			C201.88,198.829,201.504,199.299,201.431,200.237z"/>
		<path fill="#FFFFFF" d="M210.234,201.728l2.182,0.104c0,1.646-1.018,2.479-3.054,2.502c-0.024,0.005-0.046,0.007-0.064,0.007
			c-1.938,0-2.907-1.096-2.907-3.288v-0.205c0.061-2.352,1.094-3.538,3.1-3.562h0.073c1.847,0,2.77,0.789,2.77,2.364
			c0,0.093-0.003,0.184-0.009,0.273l-1.972,0.108v-0.163c0-0.829-0.315-1.244-0.945-1.244c-0.642,0-0.963,0.672-0.963,2.017v0.227
			c0.037,1.453,0.361,2.181,0.972,2.181h0.055c0.532-0.032,0.798-0.335,0.798-0.909
			C210.271,202.015,210.258,201.878,210.234,201.728z"/>
		<path fill="#FFFFFF" d="M215.36,194.748l0.092,3.849c0.257-0.592,0.856-0.893,1.797-0.902h0.027c0.929,0,1.589,0.314,1.981,0.943
			c0.269,0.429,0.403,1.432,0.403,3.008c0,0.775-0.033,1.691-0.101,2.748h-2.311c0.08-1.408,0.119-2.5,0.119-3.273
			c0-0.389-0.009-0.697-0.027-0.931c-0.061-0.684-0.324-1.024-0.789-1.024c-0.465,0-0.765,0.183-0.899,0.547l0.092,4.956
			l-2.247,0.014c0-2.096-0.125-5.385-0.376-9.864L215.36,194.748z"/>
		<path fill="#FFFFFF" d="M223.66,197.523c2.079,0,3.118,1.075,3.118,3.228c0,0.087-0.003,0.173-0.009,0.26
			c-0.086,2.329-1.192,3.505-3.32,3.527c-0.024,0.005-0.049,0.007-0.073,0.007c-2.024,0-3.036-1.102-3.036-3.302v-0.191
			C220.401,198.699,221.508,197.523,223.66,197.523z M223.357,199.082c-0.385,0.101-0.648,0.472-0.789,1.113
			c-0.086,0.384-0.128,0.769-0.128,1.155c0,0.26,0.018,0.522,0.055,0.786c0.098,0.656,0.413,0.996,0.944,1.019h0.064
			c0.495,0,0.834-0.242,1.018-0.73c0.153-0.405,0.229-0.887,0.229-1.442c0-0.137-0.003-0.274-0.009-0.417
			c-0.049-0.732-0.196-1.19-0.44-1.374c-0.153-0.108-0.336-0.164-0.55-0.164C223.629,199.027,223.498,199.046,223.357,199.082z"/>
		<path fill="#FFFFFF" d="M227.172,202.117l2.1-0.075v0.089c0,0.702,0.29,1.058,0.871,1.065h0.037c0.562,0,0.844-0.201,0.844-0.607
			v-0.048c-0.024-0.446-0.579-0.808-1.665-1.08c-1.086-0.273-1.738-0.733-1.958-1.381c-0.08-0.229-0.12-0.446-0.12-0.656
			c0-0.383,0.131-0.738,0.395-1.066c0.403-0.501,1.015-0.788,1.834-0.86c0.22-0.02,0.434-0.027,0.642-0.027
			c0.544,0,1.024,0.071,1.439,0.212c0.569,0.196,0.963,0.478,1.183,0.841c0.147,0.251,0.22,0.528,0.22,0.834
			c0,0.146-0.016,0.296-0.046,0.451l-1.962,0.034c0.018-0.113,0.027-0.219,0.027-0.314c0-0.454-0.196-0.698-0.587-0.73
			c-0.042-0.005-0.085-0.007-0.128-0.007c-0.403,0-0.676,0.151-0.816,0.458c-0.049,0.104-0.074,0.199-0.074,0.287
			c0,0.214,0.135,0.398,0.404,0.554c0.379,0.219,0.94,0.44,1.683,0.666c0.743,0.227,1.243,0.61,1.5,1.152
			c0.092,0.204,0.138,0.409,0.138,0.614c0,0.348-0.135,0.695-0.404,1.046c-0.428,0.562-1.091,0.888-1.99,0.979
			c-0.196,0.022-0.389,0.034-0.578,0.034c-0.672,0-1.296-0.13-1.871-0.391C227.557,203.856,227.184,203.165,227.172,202.117z"/>
		<path fill="#FFFFFF" d="M24.859,211.741c-0.073,3.066-0.144,6.37-0.211,9.911h-2.082v-3.984h-2.613v3.664l-2.504-0.007
			c0.073-1.673,0.11-3.31,0.11-4.908c0-1.596-0.037-3.153-0.11-4.676h2.394l-0.101,3.984l2.613,0.082v-4.23L24.859,211.741z"/>
		<path fill="#FFFFFF" d="M30.425,221.544l-0.091-1.114c-0.257,0.593-0.948,0.892-2.073,0.896c-0.012,0.005-0.021,0.007-0.027,0.007
			c-1.113,0-1.85-0.374-2.21-1.121c-0.244-0.497-0.367-1.524-0.367-3.083c0-0.802,0.034-1.748,0.101-2.837h2.229
			c-0.123,1.53-0.184,2.71-0.184,3.534c0,0.415,0.015,0.737,0.046,0.971c0.092,0.711,0.4,1.065,0.926,1.065s0.856-0.185,0.99-0.554
			l-0.092-4.744l2.155-0.014c0,1.96,0.095,4.243,0.284,6.85L30.425,221.544z"/>
		<path fill="#FFFFFF" d="M34.351,214.38l0.036,1.094c0.331-0.522,0.712-0.85,1.146-0.978c0.257-0.073,0.517-0.109,0.779-0.109
			c0.196,0,0.392,0.019,0.587,0.055c0.477,0.092,0.816,0.456,1.018,1.095c0.159-0.497,0.434-0.828,0.826-0.995
			c0.391-0.166,0.825-0.251,1.302-0.256h0.037c0.464,0,0.911,0.084,1.339,0.253c0.434,0.173,0.766,0.498,0.995,0.974
			c0.229,0.477,0.35,1.13,0.362,1.959v3.972l-1.981,0.034c0.08-1.499,0.12-2.774,0.12-3.828c0-1.053-0.269-1.62-0.807-1.702
			c-0.08-0.009-0.156-0.014-0.229-0.014c-0.428,0-0.758,0.205-0.99,0.615c-0.037,0.474-0.055,1.028-0.055,1.661
			c0,0.86,0.033,1.866,0.101,3.015l-2.292,0.014c0.085-1.764,0.128-3.049,0.128-3.854v-0.082c-0.006-0.798-0.217-1.217-0.633-1.258
			h-0.12c-0.373,0-0.734,0.159-1.082,0.479l0.018,5.004l-2.164,0.062v-1.121c0-1.986-0.04-3.972-0.12-5.954L34.351,214.38z"/>
		<path fill="#FFFFFF" d="M46.877,214.325c2.012,0.081,3.018,0.836,3.018,2.263v4.854l-2.137,0.027l-0.074-0.649
			c-0.44,0.374-1.024,0.562-1.751,0.562c-0.312,0-0.648-0.036-1.009-0.109c-1.082-0.2-1.623-0.824-1.623-1.873
			c0-0.127,0.009-0.264,0.027-0.41c0.122-1.079,1.152-1.619,3.091-1.619c0.373,0,0.782,0.021,1.229,0.062v-0.793
			c0-0.643-0.272-0.964-0.816-0.964h-0.036c-0.043-0.005-0.083-0.007-0.12-0.007c-0.593,0-0.889,0.359-0.889,1.08v0.103
			l-2.183-0.137c0-1.591,1.027-2.386,3.081-2.386h0.192V214.325z M47.647,219.726v-1.203c-0.263-0.041-0.501-0.062-0.715-0.062
			c-0.556,0-0.935,0.14-1.137,0.417c-0.122,0.169-0.183,0.326-0.183,0.472c0,0.184,0.098,0.345,0.293,0.485
			c0.152,0.108,0.352,0.164,0.596,0.164C46.813,219.999,47.195,219.908,47.647,219.726z"/>
		<path fill="#FFFFFF" d="M52.315,214.346l0.091,1.114c0.257-0.592,0.932-0.894,2.027-0.902h0.037c1.076,0,1.81,0.314,2.201,0.943
			c0.269,0.429,0.404,1.432,0.404,3.008c0,0.775-0.034,1.691-0.101,2.748h-2.219c0.08-1.408,0.119-2.5,0.119-3.274
			c0-0.388-0.009-0.696-0.027-0.93c-0.061-0.684-0.354-1.025-0.88-1.025c-0.526,0-0.856,0.184-0.99,0.548l0.092,4.955l-2.155,0.015
			c0-2.096-0.095-4.45-0.284-7.062L52.315,214.346z"/>
		<path fill="#FFFFFF" d="M61.064,214.523c2.079,0,3.118,1.075,3.118,3.228c0,0.087-0.003,0.173-0.009,0.26
			c-0.086,2.329-1.192,3.505-3.32,3.527c-0.025,0.005-0.049,0.007-0.074,0.007c-2.023,0-3.035-1.102-3.035-3.302v-0.191
			C57.805,215.699,58.912,214.523,61.064,214.523z M60.761,216.082c-0.385,0.101-0.648,0.472-0.789,1.113
			c-0.086,0.384-0.128,0.769-0.128,1.155c0,0.26,0.018,0.522,0.055,0.786c0.098,0.656,0.412,0.996,0.944,1.019h0.064
			c0.495,0,0.834-0.242,1.018-0.73c0.153-0.405,0.229-0.887,0.229-1.442c0-0.137-0.003-0.274-0.009-0.417
			c-0.049-0.732-0.196-1.19-0.44-1.374c-0.153-0.108-0.336-0.164-0.55-0.164C61.033,216.027,60.902,216.046,60.761,216.082z"/>
		<path fill="#FFFFFF" d="M64.576,219.117l2.1-0.075v0.089c0,0.702,0.291,1.058,0.872,1.065h0.037c0.562,0,0.844-0.201,0.844-0.607
			v-0.048c-0.024-0.446-0.58-0.808-1.665-1.08c-1.085-0.273-1.738-0.733-1.958-1.381c-0.08-0.229-0.119-0.446-0.119-0.656
			c0-0.383,0.131-0.738,0.394-1.066c0.404-0.501,1.015-0.788,1.834-0.86c0.22-0.02,0.434-0.027,0.642-0.027
			c0.544,0,1.023,0.071,1.439,0.212c0.568,0.196,0.963,0.478,1.183,0.841c0.146,0.251,0.22,0.528,0.22,0.834
			c0,0.146-0.016,0.296-0.046,0.451l-1.963,0.034c0.019-0.113,0.028-0.219,0.028-0.314c0-0.454-0.196-0.698-0.587-0.73
			c-0.043-0.005-0.085-0.007-0.128-0.007c-0.403,0-0.676,0.151-0.816,0.458c-0.049,0.104-0.073,0.199-0.073,0.287
			c0,0.214,0.135,0.398,0.403,0.554c0.379,0.219,0.94,0.44,1.683,0.666c0.743,0.227,1.243,0.61,1.5,1.152
			c0.091,0.204,0.137,0.409,0.137,0.614c0,0.348-0.134,0.695-0.403,1.046c-0.428,0.562-1.091,0.888-1.99,0.979
			c-0.196,0.022-0.389,0.034-0.578,0.034c-0.672,0-1.296-0.13-1.871-0.391C64.961,220.856,64.588,220.165,64.576,219.117z"/>
		<path fill="#FFFFFF" d="M77.112,211.871c-0.067,1.372-0.101,2.562-0.101,3.574c0.324-0.433,0.737-0.686,1.238-0.759
			c0.086-0.005,0.168-0.007,0.248-0.007c1.993,0,3.011,1.073,3.054,3.22v0.123c0,2.151-1.061,3.228-3.183,3.228
			c-0.507,0-0.987-0.253-1.439-0.759l-0.073,1.046l-2.174-0.008c0.031-1.668,0.046-3.271,0.046-4.812
			c0-1.69-0.018-3.307-0.055-4.847H77.112z M77.011,216.725l-0.046,2.365c0.318,0.482,0.721,0.725,1.21,0.725
			c0.055,0,0.11-0.002,0.165-0.007c0.562-0.059,0.874-0.622,0.936-1.688c0.006-0.109,0.009-0.215,0.009-0.314
			c0-0.875-0.238-1.396-0.715-1.564c-0.147-0.051-0.291-0.075-0.431-0.075C77.754,216.164,77.378,216.351,77.011,216.725z"/>
		<path fill="#FFFFFF" d="M85.824,214.325c2.011,0.081,3.017,0.836,3.017,2.263v4.854l-2.137,0.027l-0.073-0.649
			c-0.44,0.374-1.024,0.562-1.751,0.562c-0.312,0-0.648-0.036-1.009-0.109c-1.082-0.2-1.623-0.824-1.623-1.873
			c0-0.127,0.009-0.264,0.027-0.41c0.122-1.079,1.152-1.619,3.09-1.619c0.373,0,0.783,0.021,1.229,0.062v-0.793
			c0-0.643-0.272-0.964-0.816-0.964h-0.037c-0.043-0.005-0.083-0.007-0.119-0.007c-0.593,0-0.89,0.359-0.89,1.08v0.103l-2.183-0.137
			c0-1.591,1.027-2.386,3.082-2.386h0.193V214.325z M86.594,219.726v-1.203c-0.263-0.041-0.501-0.062-0.715-0.062
			c-0.557,0-0.936,0.14-1.137,0.417c-0.123,0.169-0.183,0.326-0.183,0.472c0,0.184,0.098,0.345,0.293,0.485
			c0.153,0.108,0.352,0.164,0.596,0.164C85.76,219.999,86.142,219.908,86.594,219.726z"/>
		<path fill="#FFFFFF" d="M89.648,214.797l2.256-0.123c0.024,1.39,0.037,2.596,0.037,3.616c0,1.28-0.018,2.275-0.055,2.986
			c-0.062,1.276-0.422,2.143-1.082,2.599c-0.581,0.4-1.428,0.602-2.541,0.602c-0.165,0-0.336-0.005-0.514-0.014l-0.256-1.736
			c0.256,0.032,0.489,0.048,0.697,0.048c0.581,0,0.981-0.125,1.201-0.376c0.288-0.333,0.431-1.026,0.431-2.085v-0.067
			C89.816,219.156,89.758,217.34,89.648,214.797z M92.143,212.951c0,0.277-0.132,0.515-0.395,0.711
			c-0.263,0.195-0.581,0.294-0.954,0.294c-0.367,0-0.682-0.099-0.944-0.294c-0.262-0.196-0.395-0.434-0.395-0.711
			c0-0.273,0.132-0.509,0.395-0.704c0.263-0.195,0.578-0.294,0.944-0.294c0.373,0,0.691,0.099,0.954,0.294
			S92.143,212.678,92.143,212.951z"/>
		<path fill="#FFFFFF" d="M95.875,214.523c2.079,0,3.118,1.075,3.118,3.228c0,0.087-0.003,0.173-0.009,0.26
			c-0.086,2.329-1.192,3.505-3.32,3.527c-0.024,0.005-0.049,0.007-0.073,0.007c-2.024,0-3.036-1.102-3.036-3.302v-0.191
			C92.616,215.699,93.723,214.523,95.875,214.523z M95.572,216.082c-0.386,0.101-0.648,0.472-0.789,1.113
			c-0.085,0.384-0.128,0.769-0.128,1.155c0,0.26,0.019,0.522,0.055,0.786c0.098,0.656,0.413,0.996,0.944,1.019h0.064
			c0.495,0,0.834-0.242,1.018-0.73c0.153-0.405,0.229-0.887,0.229-1.442c0-0.137-0.003-0.274-0.009-0.417
			c-0.049-0.732-0.196-1.19-0.44-1.374c-0.153-0.108-0.336-0.164-0.55-0.164C95.844,216.027,95.712,216.046,95.572,216.082z"/>
		<path fill="#FFFFFF" d="M108.814,211.7v1.928l-3.622-0.109v2.242l3.255-0.068l0.083,1.854h-2.907v1.735h3.806v1.941l-6.346-0.068
			c0.067-1.279,0.101-2.569,0.101-3.868c0-1.801-0.064-3.616-0.193-5.448C104.373,211.796,106.313,211.751,108.814,211.7z"/>
		<path fill="#FFFFFF" d="M111.923,214.346l0.092,1.114c0.257-0.592,0.932-0.894,2.026-0.902h0.037c1.076,0,1.81,0.314,2.201,0.943
			c0.269,0.429,0.403,1.432,0.403,3.008c0,0.775-0.034,1.691-0.101,2.748h-2.219c0.079-1.408,0.119-2.5,0.119-3.274
			c0-0.388-0.009-0.696-0.027-0.93c-0.062-0.684-0.355-1.025-0.881-1.025c-0.525,0-0.855,0.184-0.99,0.548l0.092,4.955l-2.155,0.015
			c0-2.096-0.095-4.45-0.284-7.062L111.923,214.346z"/>
		<path fill="#FFFFFF" d="M118.782,214.77c-0.012-0.123-0.019-0.248-0.019-0.376c0-0.428,0.058-0.868,0.174-1.318
			c0.141-0.589,0.569-1.059,1.284-1.408c0.532-0.266,1.204-0.396,2.017-0.396c0.269,0,0.557,0.018,0.862,0.048l-0.019,1.497
			c-0.183-0.019-0.354-0.026-0.514-0.026c-0.507,0-0.88,0.094-1.119,0.279c-0.263,0.196-0.394,0.579-0.394,1.148
			c0,0.137,0.009,0.287,0.027,0.451l1.962-0.021v1.389l-2.018,0.096c0.049,1.495,0.074,2.908,0.074,4.238
			c0,0.4-0.003,0.793-0.009,1.176l-2.33,0.075c0.019-1.519,0.049-3.313,0.092-5.388l-1.485,0.056l-0.037-1.471L118.782,214.77z"/>
		<path fill="#FFFFFF" d="M127.082,214.523c2.079,0,3.118,1.075,3.118,3.228c0,0.087-0.003,0.173-0.009,0.26
			c-0.086,2.329-1.192,3.505-3.32,3.527c-0.024,0.005-0.049,0.007-0.073,0.007c-2.024,0-3.036-1.102-3.036-3.302v-0.191
			C123.823,215.699,124.93,214.523,127.082,214.523z M126.779,216.082c-0.385,0.101-0.648,0.472-0.789,1.113
			c-0.086,0.384-0.128,0.769-0.128,1.155c0,0.26,0.018,0.522,0.055,0.786c0.098,0.656,0.413,0.996,0.944,1.019h0.064
			c0.495,0,0.834-0.242,1.018-0.73c0.153-0.405,0.229-0.887,0.229-1.442c0-0.137-0.003-0.274-0.009-0.417
			c-0.049-0.732-0.196-1.19-0.44-1.374c-0.153-0.108-0.336-0.164-0.55-0.164C127.051,216.027,126.919,216.046,126.779,216.082z"/>
		<path fill="#FFFFFF" d="M135.335,224.613c0.006-1.463,0.009-2.699,0.009-3.712c-0.355,0.483-0.997,0.736-1.926,0.76
			c-1.792,0-2.69-1.162-2.696-3.486c-0.006-0.009-0.009-0.02-0.009-0.027c0-2.306,1.076-3.459,3.228-3.459
			c0.629,0,1.171,0.255,1.624,0.767l0.073-1.054l1.99,0.008c-0.031,1.801-0.046,3.505-0.046,5.112c0,1.77,0.019,3.42,0.055,4.956
			L135.335,224.613z M135.344,219.63v-2.775c-0.3-0.451-0.679-0.677-1.137-0.677c-0.092,0-0.187,0.009-0.284,0.027
			c-0.593,0.104-0.92,0.714-0.981,1.824c-0.006,0.119-0.009,0.232-0.009,0.343c0,0.906,0.226,1.463,0.679,1.668
			c0.153,0.072,0.315,0.108,0.486,0.108C134.476,220.149,134.892,219.977,135.344,219.63z"/>
		<path fill="#FFFFFF" d="M143.121,221.544l-0.092-1.114c-0.257,0.593-0.948,0.892-2.073,0.896
			c-0.012,0.005-0.021,0.007-0.027,0.007c-1.113,0-1.85-0.374-2.21-1.121c-0.245-0.497-0.367-1.524-0.367-3.083
			c0-0.802,0.034-1.748,0.101-2.837h2.229c-0.123,1.53-0.183,2.71-0.183,3.534c0,0.415,0.015,0.737,0.045,0.971
			c0.092,0.711,0.4,1.065,0.926,1.065c0.526,0,0.856-0.185,0.99-0.554l-0.091-4.744l2.155-0.014c0,1.96,0.095,4.243,0.284,6.85
			L143.121,221.544z"/>
		<path fill="#FFFFFF" d="M148.549,214.523c2.122,0,3.182,1.051,3.182,3.151c0,0.256-0.015,0.529-0.046,0.82h-4.099
			c0,1.172,0.303,1.757,0.908,1.757h0.064c0.532-0.032,0.798-0.335,0.798-0.909c0-0.123-0.013-0.26-0.037-0.41l2.182-0.034
			c0,1.736-1.018,2.616-3.054,2.64c-0.024,0.005-0.046,0.007-0.064,0.007c-1.938,0-2.907-1.096-2.907-3.288v-0.205
			C145.538,215.699,146.562,214.523,148.549,214.523z M147.366,217.237h2.073v-0.164c0-0.828-0.315-1.243-0.945-1.243
			C147.815,215.829,147.439,216.299,147.366,217.237z"/>
		<path fill="#FFFFFF" d="M155.913,221.284c0.012-1.535,0.019-3.117,0.019-4.744c0-1.631-0.006-3.308-0.019-5.024
			c0.703-0.062,1.351-0.096,1.944-0.096c1.65,0,2.867,0.246,3.65,0.738c1.063,0.675,1.62,1.921,1.669,3.738v0.492
			c0,1.559-0.202,2.671-0.605,3.336c-0.446,0.734-1.262,1.222-2.448,1.463c-0.685,0.143-1.437,0.212-2.256,0.212
			C157.255,221.4,156.604,221.362,155.913,221.284z M158.188,213.471c-0.104,1.499-0.156,2.948-0.156,4.348
			c0,0.528,0.006,1.049,0.018,1.56c0.214,0.036,0.419,0.055,0.614,0.055c0.538,0,0.991-0.139,1.357-0.417
			c0.501-0.373,0.752-1.212,0.752-2.516v-0.027c-0.006-1.312-0.25-2.174-0.733-2.584c-0.373-0.31-0.816-0.465-1.33-0.465
			C158.545,213.423,158.371,213.438,158.188,213.471z"/>
		<path fill="#FFFFFF" d="M166.432,212.951c0,0.277-0.131,0.515-0.395,0.711c-0.263,0.195-0.581,0.294-0.954,0.294
			c-0.367,0-0.682-0.099-0.944-0.294c-0.263-0.196-0.395-0.434-0.395-0.711c0-0.273,0.131-0.509,0.395-0.704
			c0.263-0.195,0.578-0.294,0.944-0.294c0.373,0,0.691,0.099,0.954,0.294C166.3,212.443,166.432,212.678,166.432,212.951z
			 M163.974,221.578c-0.043-2.666-0.064-4.971-0.064-6.911l2.311-0.104c-0.073,1.859-0.11,3.708-0.11,5.544
			c0,0.492,0.003,0.982,0.009,1.471H163.974z"/>
		<path fill="#FFFFFF" d="M168.275,214.77c-0.012-0.123-0.018-0.248-0.018-0.376c0-0.428,0.058-0.868,0.174-1.318
			c0.141-0.589,0.569-1.059,1.284-1.408c0.532-0.266,1.204-0.396,2.018-0.396c0.269,0,0.556,0.018,0.862,0.048l-0.019,1.497
			c-0.183-0.019-0.354-0.026-0.513-0.026c-0.508,0-0.881,0.094-1.119,0.279c-0.263,0.196-0.394,0.579-0.394,1.148
			c0,0.137,0.009,0.287,0.027,0.451l1.962-0.021v1.389l-2.018,0.096c0.049,1.495,0.073,2.908,0.073,4.238
			c0,0.4-0.003,0.793-0.009,1.176l-2.329,0.075c0.018-1.519,0.049-3.313,0.091-5.388l-1.485,0.056l-0.037-1.471L168.275,214.77z"/>
		<path fill="#FFFFFF" d="M176.327,214.523c2.122,0,3.182,1.051,3.182,3.151c0,0.256-0.016,0.529-0.046,0.82h-4.099
			c0,1.172,0.302,1.757,0.908,1.757h0.064c0.532-0.032,0.798-0.335,0.798-0.909c0-0.123-0.013-0.26-0.037-0.41l2.183-0.034
			c0,1.736-1.018,2.616-3.054,2.64c-0.024,0.005-0.046,0.007-0.064,0.007c-1.938,0-2.907-1.096-2.907-3.288v-0.205
			C173.315,215.699,174.34,214.523,176.327,214.523z M175.144,217.237h2.072v-0.164c0-0.828-0.314-1.243-0.944-1.243
			C175.593,215.829,175.217,216.299,175.144,217.237z"/>
		<path fill="#FFFFFF" d="M182.636,216.643l0.092,4.956l-2.247,0.014c0-2.096-0.095-4.449-0.285-7.062l1.688-0.137l0.092,1.113
			c0.257-0.547,0.856-0.858,1.797-0.937c0.141-0.009,0.275-0.014,0.404-0.014c0.739,0,1.302,0.181,1.687,0.54
			c0.446,0.429,0.672,1.108,0.679,2.044l-2.036,0.149c0.006-0.077,0.009-0.151,0.009-0.226c0-0.729-0.253-1.094-0.761-1.094h-0.037
			C183.131,216.017,182.771,216.232,182.636,216.643z"/>
		<path fill="#FFFFFF" d="M190.137,214.523c2.122,0,3.182,1.051,3.182,3.151c0,0.256-0.015,0.529-0.046,0.82h-4.099
			c0,1.172,0.303,1.757,0.908,1.757h0.064c0.532-0.032,0.798-0.335,0.798-0.909c0-0.123-0.013-0.26-0.037-0.41l2.182-0.034
			c0,1.736-1.018,2.616-3.054,2.64c-0.024,0.005-0.046,0.007-0.064,0.007c-1.938,0-2.907-1.096-2.907-3.288v-0.205
			C187.126,215.699,188.15,214.523,190.137,214.523z M188.954,217.237h2.073v-0.164c0-0.828-0.315-1.243-0.945-1.243
			C189.403,215.829,189.027,216.299,188.954,217.237z"/>
		<path fill="#FFFFFF" d="M195.694,214.346l0.092,1.114c0.257-0.592,0.932-0.894,2.026-0.902h0.037c1.076,0,1.81,0.314,2.201,0.943
			c0.269,0.429,0.404,1.432,0.404,3.008c0,0.775-0.034,1.691-0.101,2.748h-2.219c0.079-1.408,0.119-2.5,0.119-3.274
			c0-0.388-0.009-0.696-0.027-0.93c-0.062-0.684-0.354-1.025-0.88-1.025c-0.526,0-0.856,0.184-0.991,0.548l0.092,4.955l-2.155,0.015
			c0-2.096-0.095-4.45-0.285-7.062L195.694,214.346z"/>
		<path fill="#FFFFFF" d="M204.966,218.728l2.183,0.104c0,1.646-1.018,2.479-3.054,2.502c-0.024,0.005-0.046,0.007-0.064,0.007
			c-1.938,0-2.907-1.096-2.907-3.288v-0.205c0.061-2.352,1.094-3.538,3.1-3.562h0.073c1.846,0,2.77,0.789,2.77,2.364
			c0,0.093-0.003,0.184-0.009,0.273l-1.972,0.108v-0.163c0-0.829-0.315-1.244-0.944-1.244c-0.642,0-0.963,0.672-0.963,2.017v0.227
			c0.037,1.453,0.36,2.181,0.972,2.181h0.055c0.532-0.032,0.798-0.335,0.798-0.909C205.002,219.015,204.99,218.878,204.966,218.728z
			"/>
		<path fill="#FFFFFF" d="M210.477,212.951c0,0.277-0.131,0.515-0.394,0.711c-0.263,0.195-0.581,0.294-0.954,0.294
			c-0.367,0-0.682-0.099-0.944-0.294c-0.262-0.196-0.395-0.434-0.395-0.711c0-0.273,0.132-0.509,0.395-0.704
			s0.578-0.294,0.944-0.294c0.373,0,0.691,0.099,0.954,0.294S210.477,212.678,210.477,212.951z M208.02,221.578
			c-0.043-2.666-0.064-4.971-0.064-6.911l2.311-0.104c-0.073,1.859-0.11,3.708-0.11,5.544c0,0.492,0.003,0.982,0.009,1.471H208.02z"
			/>
		<path fill="#FFFFFF" d="M214.53,214.325c2.012,0.081,3.018,0.836,3.018,2.263v4.854l-2.137,0.027l-0.074-0.649
			c-0.44,0.374-1.024,0.562-1.751,0.562c-0.312,0-0.648-0.036-1.009-0.109c-1.082-0.2-1.623-0.824-1.623-1.873
			c0-0.127,0.009-0.264,0.027-0.41c0.122-1.079,1.152-1.619,3.091-1.619c0.373,0,0.782,0.021,1.229,0.062v-0.793
			c0-0.643-0.272-0.964-0.816-0.964h-0.036c-0.043-0.005-0.083-0.007-0.12-0.007c-0.593,0-0.889,0.359-0.889,1.08v0.103
			l-2.183-0.137c0-1.591,1.027-2.386,3.081-2.386h0.192V214.325z M215.301,219.726v-1.203c-0.263-0.041-0.501-0.062-0.715-0.062
			c-0.556,0-0.935,0.14-1.137,0.417c-0.122,0.169-0.183,0.326-0.183,0.472c0,0.184,0.098,0.345,0.293,0.485
			c0.152,0.108,0.352,0.164,0.596,0.164C214.466,219.999,214.848,219.908,215.301,219.726z"/>
		<path fill="#FFFFFF" d="M220.858,221.428l-2.283,0.157c0.024-1.508,0.037-2.96,0.037-4.354c0-1.96-0.024-3.808-0.073-5.544
			l2.247-0.026c-0.024,1.116-0.037,2.263-0.037,3.438C220.748,217.126,220.785,219.235,220.858,221.428z"/>
	</g>
</g>
</svg>
