<?xml version="1.0" encoding="utf-8"?>
<!-- Generator: Adobe Illustrator 16.0.0, SVG Export Plug-In . SVG Version: 6.00 Build 0)  -->
<!DOCTYPE svg PUBLIC "-//W3C//DTD SVG 1.1//EN" "http://www.w3.org/Graphics/SVG/1.1/DTD/svg11.dtd">
<svg version="1.1" id="Capa_1" xmlns="http://www.w3.org/2000/svg" xmlns:xlink="http://www.w3.org/1999/xlink" x="0px" y="0px"
	 width="905.851px" height="299.551px" viewBox="0 0 905.851 299.551" enable-background="new 0 0 905.851 299.551"
	 xml:space="preserve">
<g>
	<g>
		<circle fill="#951B81" cx="27.33" cy="271.93" r="2.551"/>
		<circle fill="#951B81" cx="21.136" cy="271.93" r="2.551"/>
		<circle fill="#951B81" cx="14.94" cy="271.93" r="2.55"/>
		<circle fill="#951B81" cx="21.136" cy="278.197" r="2.551"/>
		<circle fill="#951B81" cx="14.94" cy="278.197" r="2.55"/>
		<circle fill="#951B81" cx="8.746" cy="278.197" r="2.551"/>
		<circle fill="#951B81" cx="14.94" cy="284.466" r="2.55"/>
		<circle fill="#951B81" cx="8.746" cy="284.466" r="2.551"/>
		<circle fill="#951B81" cx="2.551" cy="284.466" r="2.551"/>
		<circle fill="#951B81" cx="21.136" cy="290.732" r="2.551"/>
		<circle fill="#951B81" cx="14.94" cy="290.731" r="2.55"/>
		<circle fill="#951B81" cx="8.746" cy="290.732" r="2.551"/>
		<circle fill="#951B81" cx="27.33" cy="297" r="2.551"/>
		<circle fill="#951B81" cx="21.136" cy="297" r="2.551"/>
		<circle fill="#951B81" cx="14.94" cy="297" r="2.55"/>
	</g>
	<rect x="267.615" y="127.581" opacity="0.5" fill="#331842" enable-background="new    " width="267.871" height="31"/>
	<g>
		<g>
			<path fill="#FFFFFF" d="M359.608,144.634l3.891-0.195c-0.052,0.404-0.078,0.769-0.078,1.094c0,1.479,0.493,2.217,1.48,2.217
				h0.052c1.197-0.025,1.795-0.501,1.795-1.426v-0.088c-0.044-0.982-1.175-1.946-3.393-2.891c-2.157-0.911-3.236-2.415-3.236-4.512
				c0-0.064,0.004-0.13,0.013-0.195c0.062-2.193,1.711-3.311,4.952-3.35h0.105c2.926,0,4.389,1.391,4.389,4.17
				c0,0.222-0.009,0.456-0.026,0.703l-3.419,0.146c0.035-0.293,0.052-0.562,0.052-0.811c0-1.165-0.38-1.748-1.14-1.748
				c-0.917,0-1.419,0.349-1.506,1.045c-0.009,0.098-0.013,0.195-0.013,0.293c0,0.58,0.229,1.12,0.692,1.621
				c0.533,0.58,1.448,1.11,2.745,1.592s2.203,1.143,2.718,1.982c0.367,0.605,0.552,1.25,0.552,1.934
				c0,0.261-0.026,0.527-0.079,0.801c-0.201,0.983-0.762,1.799-1.679,2.446s-2.146,1.001-3.692,1.06
				c-0.105,0.008-0.21,0.01-0.314,0.01c-1.406,0-2.581-0.382-3.522-1.15c-0.908-0.735-1.362-2.073-1.362-4.014
				C359.582,145.132,359.591,144.888,359.608,144.634z"/>
			<path fill="#FFFFFF" d="M375.617,140.063c3.031,0,4.546,1.501,4.546,4.502c0,0.365-0.022,0.756-0.065,1.172h-5.854
				c0,1.674,0.432,2.51,1.297,2.51h0.092c0.76-0.045,1.142-0.479,1.142-1.299c0-0.176-0.02-0.371-0.054-0.586l3.118-0.049
				c0,2.48-1.455,3.737-4.363,3.77c-0.033,0.007-0.063,0.01-0.092,0.01c-2.769,0-4.151-1.565-4.151-4.697v-0.293
				C371.316,141.743,372.779,140.063,375.617,140.063z M373.927,143.94h2.961v-0.234c0-1.185-0.448-1.777-1.35-1.777
				C374.569,141.929,374.032,142.6,373.927,143.94z"/>
			<path fill="#FFFFFF" d="M383.556,139.81l0.131,1.592c0.367-0.846,1.332-1.275,2.896-1.289h0.052c1.537,0,2.585,0.449,3.146,1.348
				c0.384,0.612,0.575,2.045,0.575,4.297c0,1.107-0.049,2.416-0.145,3.926h-3.17c0.113-2.012,0.17-3.57,0.17-4.678
				c0-0.553-0.013-0.996-0.04-1.328c-0.087-0.977-0.506-1.465-1.258-1.465c-0.751,0-1.223,0.261-1.415,0.781l0.131,7.08
				l-3.079,0.021c0-2.994-0.135-6.357-0.406-10.088L383.556,139.81z"/>
			<path fill="#FFFFFF" d="M393.63,136.948l2.976-0.146v3.232l2.502-0.049l0.04,1.846l-2.542,0.088v4.443
				c0,1.035,0.589,1.553,1.769,1.553c0.244,0,0.511-0.022,0.799-0.068l-0.118,2.148c-0.419,0.039-0.815,0.059-1.19,0.059
				c-2.76,0-4.166-1.061-4.219-3.184v-4.775l-2.148,0.098l-0.052-2.178l2.2,0.02L393.63,136.948z"/>
			<path fill="#FFFFFF" d="M404.491,140.063c3.028,0,4.546,1.501,4.546,4.502c0,0.365-0.022,0.756-0.066,1.172h-5.854
				c0,1.674,0.433,2.51,1.297,2.51h0.092c0.76-0.045,1.14-0.479,1.14-1.299c0-0.176-0.018-0.371-0.052-0.586l3.118-0.049
				c0,2.48-1.455,3.737-4.363,3.77c-0.034,0.007-0.063,0.01-0.092,0.01c-2.769,0-4.152-1.565-4.152-4.697v-0.293
				C400.189,141.743,401.652,140.063,404.491,140.063z M402.801,143.94h2.961v-0.234c0-1.185-0.45-1.777-1.35-1.777
				C403.443,141.929,402.906,142.6,402.801,143.94z"/>
			<path fill="#FFFFFF" d="M412.43,139.81l0.131,1.592c0.367-0.846,1.332-1.275,2.896-1.289h0.053c1.537,0,2.585,0.449,3.146,1.348
				c0.384,0.612,0.576,2.045,0.576,4.297c0,1.107-0.05,2.416-0.146,3.926h-3.17c0.114-2.012,0.17-3.57,0.17-4.678
				c0-0.553-0.013-0.996-0.039-1.328c-0.088-0.977-0.507-1.465-1.258-1.465s-1.223,0.261-1.415,0.781l0.131,7.08l-3.078,0.021
				c0-2.994-0.136-6.357-0.406-10.088L412.43,139.81z"/>
			<path fill="#FFFFFF" d="M425.675,146.069l3.118,0.146c0,2.351-1.454,3.542-4.362,3.574c-0.035,0.007-0.063,0.01-0.092,0.01
				c-2.769,0-4.153-1.565-4.153-4.697v-0.293c0.089-3.359,1.563-5.055,4.43-5.088h0.104c2.64,0,3.957,1.127,3.957,3.379
				c0,0.131-0.005,0.261-0.013,0.391l-2.817,0.156v-0.234c0-1.185-0.45-1.777-1.349-1.777c-0.917,0-1.375,0.961-1.375,2.881v0.322
				c0.052,2.077,0.515,3.115,1.389,3.115h0.079c0.76-0.045,1.142-0.479,1.142-1.299
				C425.727,146.479,425.709,146.284,425.675,146.069z"/>
			<path fill="#FFFFFF" d="M433.548,137.817c0,0.397-0.188,0.736-0.562,1.016s-0.83,0.42-1.363,0.42c-0.524,0-0.974-0.14-1.349-0.42
				c-0.375-0.279-0.563-0.618-0.563-1.016c0-0.391,0.188-0.726,0.563-1.006c0.375-0.279,0.823-0.42,1.349-0.42
				c0.533,0,0.987,0.141,1.363,0.42C433.36,137.092,433.548,137.427,433.548,137.817z M430.037,150.142
				c-0.062-3.809-0.092-7.1-0.092-9.873l3.301-0.146c-0.105,2.656-0.157,5.297-0.157,7.92c0,0.703,0.004,1.403,0.013,2.1
				L430.037,150.142L430.037,150.142z"/>
			<path fill="#FFFFFF" d="M439.338,139.78c2.874,0.117,4.312,1.195,4.312,3.232v6.934l-3.054,0.039l-0.104-0.928
				c-0.629,0.534-1.463,0.801-2.502,0.801c-0.445,0-0.926-0.052-1.441-0.156c-1.546-0.286-2.317-1.178-2.317-2.676
				c0-0.182,0.014-0.377,0.038-0.586c0.177-1.543,1.646-2.314,4.415-2.314c0.532,0,1.118,0.029,1.757,0.088v-1.133
				c0-0.918-0.391-1.377-1.166-1.377h-0.054c-0.062-0.006-0.117-0.01-0.17-0.01c-0.847,0-1.271,0.515-1.271,1.543v0.146
				l-3.118-0.195c0-2.271,1.467-3.408,4.402-3.408H439.338z M440.439,147.495v-1.719c-0.375-0.059-0.718-0.088-1.022-0.088
				c-0.795,0-1.336,0.199-1.625,0.596c-0.175,0.241-0.262,0.466-0.262,0.674c0,0.261,0.14,0.492,0.419,0.693
				c0.218,0.156,0.502,0.234,0.852,0.234C439.247,147.886,439.792,147.756,440.439,147.495z"/>
		</g>
	</g>
	<rect x="543.767" y="127.581" opacity="0.5" fill="#331842" enable-background="new    " width="267.869" height="31"/>
	<g>
		<g>
			<path fill="#FFFFFF" d="M628.621,149.722c0.018-2.193,0.025-4.453,0.025-6.777c0-2.33-0.01-4.723-0.025-7.178
				c1.004-0.091,1.93-0.137,2.777-0.137c2.357,0,4.096,0.352,5.213,1.055c1.52,0.964,2.314,2.744,2.385,5.342v0.703
				c0,2.227-0.289,3.815-0.865,4.766c-0.639,1.049-1.803,1.745-3.498,2.09c-0.979,0.202-2.053,0.303-3.223,0.303
				C630.537,149.888,629.607,149.833,628.621,149.722z M631.869,138.56c-0.148,2.143-0.223,4.213-0.223,6.211
				c0,0.756,0.01,1.498,0.025,2.227c0.307,0.053,0.6,0.078,0.879,0.078c0.768,0,1.414-0.198,1.938-0.596
				c0.717-0.533,1.074-1.731,1.074-3.594v-0.039c-0.01-1.875-0.357-3.105-1.049-3.691c-0.531-0.442-1.166-0.664-1.898-0.664
				C632.38,138.491,632.13,138.515,631.869,138.56z"/>
			<path fill="#FFFFFF" d="M644.236,140.063c3.029,0,4.547,1.501,4.547,4.502c0,0.365-0.023,0.756-0.066,1.172h-5.854
				c0,1.674,0.432,2.51,1.297,2.51h0.092c0.76-0.045,1.141-0.479,1.141-1.299c0-0.176-0.018-0.371-0.053-0.586l3.119-0.049
				c0,2.48-1.455,3.737-4.363,3.77c-0.035,0.007-0.064,0.01-0.092,0.01c-2.768,0-4.152-1.565-4.152-4.697v-0.293
				C639.935,141.743,641.398,140.063,644.236,140.063z M642.546,143.94h2.959v-0.234c0-1.185-0.449-1.777-1.348-1.777
				C643.189,141.929,642.652,142.6,642.546,143.94z"/>
			<path fill="#FFFFFF" d="M649.607,146.626l3-0.107v0.127c0,1.003,0.416,1.511,1.244,1.523h0.053c0.805,0,1.207-0.289,1.207-0.869
				v-0.068c-0.035-0.638-0.828-1.152-2.379-1.543s-2.482-1.048-2.797-1.973c-0.113-0.325-0.17-0.638-0.17-0.938
				c0-0.547,0.188-1.055,0.562-1.523c0.576-0.716,1.451-1.126,2.621-1.23c0.311-0.025,0.619-0.039,0.916-0.039
				c0.775,0,1.463,0.102,2.057,0.303c0.812,0.28,1.377,0.681,1.691,1.201c0.209,0.358,0.311,0.756,0.311,1.191
				c0,0.209-0.02,0.424-0.062,0.645l-2.805,0.049c0.025-0.162,0.039-0.312,0.039-0.449c0-0.65-0.277-0.999-0.838-1.045
				c-0.061-0.006-0.123-0.01-0.184-0.01c-0.576,0-0.965,0.219-1.166,0.654c-0.07,0.15-0.105,0.287-0.105,0.41
				c0,0.307,0.191,0.57,0.576,0.791c0.541,0.312,1.342,0.63,2.404,0.952c1.061,0.322,1.773,0.871,2.141,1.646
				c0.131,0.293,0.197,0.586,0.197,0.879c0,0.495-0.191,0.993-0.576,1.494c-0.611,0.801-1.559,1.267-2.844,1.396
				c-0.279,0.033-0.555,0.049-0.824,0.049c-0.961,0-1.852-0.186-2.672-0.557C650.158,149.11,649.625,148.124,649.607,146.626z"/>
			<path fill="#FFFFFF" d="M664.423,146.069l3.119,0.146c0,2.351-1.455,3.542-4.363,3.574c-0.033,0.007-0.064,0.01-0.092,0.01
				c-2.768,0-4.152-1.565-4.152-4.697v-0.293c0.088-3.359,1.562-5.055,4.428-5.088h0.104c2.641,0,3.957,1.127,3.957,3.379
				c0,0.131-0.004,0.261-0.012,0.391l-2.816,0.156v-0.234c0-1.185-0.449-1.777-1.35-1.777c-0.918,0-1.375,0.961-1.375,2.881v0.322
				c0.051,2.077,0.514,3.115,1.389,3.115h0.078c0.76-0.045,1.143-0.479,1.143-1.299
				C664.476,146.479,664.458,146.284,664.423,146.069z"/>
			<path fill="#FFFFFF" d="M672.115,143.091l0.131,7.08l-3.209,0.02c0-2.994-0.135-6.357-0.406-10.088l2.41-0.195l0.131,1.592
				c0.367-0.781,1.223-1.227,2.568-1.338c0.201-0.013,0.393-0.02,0.576-0.02c1.057,0,1.859,0.258,2.41,0.771
				c0.639,0.612,0.961,1.586,0.971,2.92l-2.908,0.215c0.008-0.11,0.012-0.218,0.012-0.322c0-1.041-0.361-1.562-1.086-1.562h-0.053
				C672.822,142.196,672.306,142.505,672.115,143.091z"/>
			<path fill="#FFFFFF" d="M682.242,137.817c0,0.397-0.189,0.736-0.564,1.016s-0.83,0.42-1.359,0.42c-0.523,0-0.977-0.14-1.352-0.42
				c-0.375-0.279-0.561-0.618-0.561-1.016c0-0.391,0.188-0.726,0.561-1.006c0.375-0.279,0.824-0.42,1.352-0.42
				c0.529,0,0.984,0.141,1.359,0.42C682.052,137.092,682.242,137.427,682.242,137.817z M678.73,150.142
				c-0.061-3.809-0.092-7.1-0.092-9.873l3.301-0.146c-0.104,2.656-0.156,5.297-0.156,7.92c0,0.703,0.004,1.403,0.014,2.1
				L678.73,150.142L678.73,150.142z"/>
			<path fill="#FFFFFF" d="M683.041,153.988c0.053-2.193,0.078-4.526,0.078-7.001c0-2.252-0.021-4.615-0.066-7.09l3.105-0.01
				l0.104,1.504c0.646-0.729,1.51-1.094,2.582-1.094c2.684,0,4.021,1.579,4.021,4.736v0.195c-0.061,3.164-1.396,4.746-4.008,4.746
				c-0.105,0-0.209-0.003-0.314-0.01c-0.891-0.032-1.611-0.394-2.162-1.084c0,1.445,0.047,3.147,0.146,5.106h-3.484v0.002H683.041z
				 M686.316,143.394l0.064,3.672c0.506,0.515,1.018,0.771,1.533,0.771c0.209,0,0.418-0.045,0.629-0.137
				c0.637-0.26,0.957-1.038,0.957-2.334c0-0.156-0.006-0.318-0.014-0.488c-0.086-1.588-0.514-2.425-1.271-2.51
				c-0.078-0.006-0.152-0.01-0.223-0.01C687.33,142.358,686.771,142.704,686.316,143.394z"/>
			<path fill="#FFFFFF" d="M699.259,146.069l3.117,0.146c0,2.351-1.455,3.542-4.363,3.574c-0.033,0.007-0.064,0.01-0.092,0.01
				c-2.768,0-4.152-1.565-4.152-4.697v-0.293c0.088-3.359,1.562-5.055,4.428-5.088h0.104c2.641,0,3.957,1.127,3.957,3.379
				c0,0.131-0.004,0.261-0.012,0.391l-2.816,0.156v-0.234c0-1.185-0.449-1.777-1.35-1.777c-0.918,0-1.375,0.961-1.375,2.881v0.322
				c0.053,2.077,0.514,3.115,1.389,3.115h0.078c0.76-0.045,1.143-0.479,1.143-1.299C699.31,146.479,699.292,146.284,699.259,146.069
				z"/>
			<path fill="#FFFFFF" d="M707.132,137.817c0,0.397-0.188,0.736-0.562,1.016c-0.373,0.28-0.83,0.42-1.363,0.42
				c-0.523,0-0.975-0.14-1.35-0.42c-0.375-0.279-0.562-0.618-0.562-1.016c0-0.391,0.189-0.726,0.562-1.006
				c0.375-0.279,0.826-0.42,1.35-0.42c0.533,0,0.986,0.141,1.363,0.42C706.945,137.092,707.132,137.427,707.132,137.817z
				 M703.621,150.142c-0.061-3.809-0.092-7.1-0.092-9.873l3.303-0.146c-0.105,2.656-0.158,5.297-0.158,7.92
				c0,0.703,0.004,1.403,0.014,2.1L703.621,150.142L703.621,150.142z"/>
			<path fill="#FFFFFF" d="M712.464,140.063c2.969,0,4.453,1.537,4.453,4.609c0,0.124-0.004,0.248-0.012,0.371
				c-0.123,3.327-1.703,5.007-4.744,5.039c-0.035,0.007-0.07,0.01-0.105,0.01c-2.891,0-4.336-1.572-4.336-4.717v-0.273
				C707.808,141.743,709.39,140.063,712.464,140.063z M712.033,142.29c-0.551,0.144-0.926,0.674-1.127,1.592
				c-0.123,0.547-0.184,1.098-0.184,1.65c0,0.371,0.025,0.746,0.078,1.123c0.141,0.938,0.59,1.423,1.35,1.455h0.092
				c0.709,0,1.191-0.348,1.455-1.045c0.217-0.579,0.328-1.266,0.328-2.061c0-0.195-0.006-0.394-0.014-0.596
				c-0.07-1.048-0.279-1.702-0.629-1.963c-0.219-0.156-0.48-0.234-0.787-0.234C712.419,142.212,712.232,142.238,712.033,142.29z
				 M710.761,138.159c1.021-0.904,1.859-1.768,2.516-2.588l2.148,1.27c-0.926,0.678-1.957,1.508-3.092,2.49L710.761,138.159z"/>
			<path fill="#FFFFFF" d="M720.048,139.81l0.131,1.592c0.367-0.846,1.332-1.275,2.896-1.289h0.053c1.537,0,2.584,0.449,3.145,1.348
				c0.383,0.612,0.576,2.045,0.576,4.297c0,1.107-0.049,2.416-0.145,3.926h-3.17c0.111-2.012,0.17-3.57,0.17-4.678
				c0-0.553-0.014-0.996-0.039-1.328c-0.088-0.977-0.508-1.465-1.258-1.465c-0.752,0-1.227,0.261-1.416,0.781l0.131,7.08
				l-3.078,0.021c0-2.994-0.137-6.357-0.406-10.088L720.048,139.81z"/>
		</g>
	</g>
	<g>
		<polygon fill="#007E78" points="99.242,115.704 122.516,140.013 110.878,150.909 86.473,129.115 		"/>
		<polygon fill="#287EB0" points="109.663,173.262 89.792,195.232 99.727,207.628 121.119,186.673 		"/>
		<g>
			<path fill="#00A19A" d="M89.833,134.298c-6.611,6.611-17.431,6.611-24.042,0l-16.75-16.75c-6.611-6.611-6.612-17.43-0.001-24.041
				l16.752-16.752c6.611-6.611,17.43-6.611,24.041,0l16.751,16.752c6.611,6.611,6.611,17.43,0,24.041L89.833,134.298z"/>
		</g>
		<g>
			<path fill="#007E78" d="M89.833,129.411c-6.611,6.611-17.43,6.611-24.042,0l-11.863-11.863c-6.611-6.611-6.612-17.43,0-24.041
				l11.864-11.865c6.611-6.611,17.43-6.611,24.041,0l11.864,11.865c6.611,6.611,6.611,17.43,0,24.041L89.833,129.411z"/>
		</g>
		<g>
			<path fill="#36A9E1" d="M140.78,189.619c-6.611,6.611-17.431,6.611-24.042,0l-16.75-16.75c-6.611-6.611-6.612-17.432,0-24.042
				l16.751-16.75c6.611-6.611,17.43-6.611,24.041,0l16.751,16.75c6.611,6.61,6.611,17.431,0,24.042L140.78,189.619z"/>
		</g>
		<g>
			<path fill="#287EB0" d="M140.78,184.732c-6.612,6.611-17.431,6.611-24.042,0l-11.863-11.863c-6.611-6.611-6.612-17.432,0-24.042
				l11.864-11.863c6.611-6.611,17.43-6.611,24.042,0l11.864,11.864c6.611,6.611,6.612,17.43,0,24.041L140.78,184.732z"/>
		</g>
		<g>
			<path fill="#1D71B8" d="M90.195,248.294c-6.611,6.61-17.43,6.61-24.041,0l-16.751-16.752c-6.611-6.61-6.611-17.431,0-24.041
				l16.75-16.751c6.611-6.611,17.431-6.609,24.042,0.001l16.75,16.75c6.611,6.61,6.612,17.431,0,24.041L90.195,248.294z"/>
		</g>
		<g>
			<path fill="#2C5694" d="M90.195,243.406c-6.611,6.611-17.43,6.611-24.041,0L54.29,231.542c-6.611-6.61-6.611-17.431,0-24.041
				l11.864-11.862c6.611-6.611,17.43-6.611,24.041,0l11.864,11.862c6.611,6.61,6.611,17.431,0,24.041L90.195,243.406z"/>
		</g>
		<g>
			<g>
				<path fill="#FFFFFF" d="M84.051,89.661c-0.146,7.323-0.218,14.608-0.218,21.854c0,3.631,0.021,7.254,0.062,10.868l-7.743,0.303
					c-0.146-9.324-0.323-17.959-0.531-25.903c-1.748,0.264-4.121,0.915-7.118,1.955l-1.499-5.098l8.68-4.096L84.051,89.661z"/>
			</g>
		</g>
		<g>
			<g>
				<path fill="#FFFFFF" d="M117.66,155.596c-0.104-0.932-0.156-1.793-0.156-2.584c0-2.777,0.676-4.779,2.03-6.005
					c1.727-1.566,3.934-2.506,6.619-2.816c0.958-0.108,1.894-0.162,2.81-0.162c1.644,0,3.226,0.171,4.746,0.512
					c2.373,0.543,4.162,1.614,5.37,3.212c0.978,1.334,1.467,3.041,1.467,5.12c0,0.402-0.011,0.83-0.031,1.279
					c-0.25,2.67-1.327,5.125-3.231,7.367c-1.904,2.242-5.198,5.449-9.881,9.623l13.644,0.068l-0.094,5.844
					c-5.974,0.199-13.675,0.303-23.104,0.303l-0.718-6.354c5.661-4.562,9.699-8.067,12.114-10.521
					c2.206-2.248,3.31-4.461,3.31-6.633v-0.582c-0.229-2.326-1.541-3.492-3.935-3.492h-0.125c-2.082,0.047-3.123,1.458-3.123,4.238
					c0,0.525,0.031,1.094,0.094,1.696L117.66,155.596z"/>
			</g>
		</g>
		<g>
			<g>
				<path fill="#FFFFFF" d="M66.166,212.174c-0.083-0.822-0.125-1.59-0.125-2.304c0-2.468,0.5-4.368,1.499-5.702
					c1.27-1.707,3.351-2.762,6.244-3.166c1.415-0.201,2.768-0.302,4.059-0.302c1.312,0,2.561,0.108,3.747,0.325
					c2.311,0.418,4.157,1.356,5.542,2.814c1.384,1.459,2.128,3.46,2.232,6.006v0.697c0,2.203-0.458,3.811-1.374,4.816
					c-1.02,1.134-2.696,1.986-5.026,2.562c1.936,0.218,3.387,0.74,4.355,1.57c0.968,0.829,1.639,1.942,2.014,3.34
					c0.208,0.774,0.312,1.629,0.312,2.562c0,0.76-0.073,1.582-0.218,2.467c-0.312,1.938-1.369,3.615-3.169,5.027
					c-1.8,1.411-4.574,2.148-8.321,2.211h-0.499c-3.518,0-6.328-0.684-8.43-2.049c-2.186-1.396-3.278-4.398-3.278-9.008V223.9
					l8.086-0.35c-0.021,0.264-0.031,0.521-0.031,0.768c0,3.261,1.145,4.943,3.435,5.053c0.166,0.018,0.322,0.021,0.468,0.021
					c2.165,0,3.465-0.854,3.903-2.561c0.125-0.48,0.188-0.938,0.188-1.373c0-1.227-0.469-2.288-1.405-3.188
					c-1.291-1.211-3.424-1.815-6.4-1.815l-0.375-4.422c0.354,0.016,0.688,0.022,0.999,0.022c2.602,0,4.392-0.56,5.371-1.677
					c0.916-1.039,1.374-2.39,1.374-4.05c0-0.325-0.021-0.659-0.062-1.001c-0.188-1.983-1.384-2.979-3.59-2.979h-0.406
					c-2.186,0.107-3.278,1.736-3.278,4.887c0,0.373,0.01,0.77,0.031,1.188L66.166,212.174z"/>
			</g>
		</g>
	</g>
</g>
</svg>
