<?xml version="1.0" encoding="utf-8"?>
<!-- Generator: Adobe Illustrator 16.0.0, SVG Export Plug-In . SVG Version: 6.00 Build 0)  -->
<!DOCTYPE svg PUBLIC "-//W3C//DTD SVG 1.1//EN" "http://www.w3.org/Graphics/SVG/1.1/DTD/svg11.dtd">
<svg version="1.1" id="Capa_1" xmlns="http://www.w3.org/2000/svg" xmlns:xlink="http://www.w3.org/1999/xlink" x="0px" y="0px"
	 width="434.906px" height="146.062px" viewBox="0 0 434.906 146.062" enable-background="new 0 0 434.906 146.062"
	 xml:space="preserve">
<g>
	<g>
		<g>
			<path fill="#331842" d="M139.738,37.032c0.045,1.834-0.564,3.417-1.826,4.751c-1.251,1.328-2.791,2.014-4.618,2.058
				c-0.897,0.022-1.744-0.126-2.539-0.446c-0.795-0.318-1.522-0.78-2.182-1.385c-0.632-0.633-1.126-1.342-1.481-2.125
				c-0.355-0.785-0.543-1.628-0.565-2.531c-0.045-1.834,0.562-3.415,1.818-4.744c1.262-1.333,2.804-2.022,4.626-2.067
				c1.833-0.044,3.404,0.569,4.712,1.84C139.009,33.648,139.694,35.198,139.738,37.032z M132.996,31.566
				c-1.531,0.038-2.835,0.621-3.915,1.751c-1.063,1.123-1.576,2.46-1.538,4.012c0.038,1.557,0.615,2.871,1.732,3.941
				c1.122,1.07,2.454,1.587,3.995,1.549c1.541-0.038,2.843-0.618,3.907-1.742c1.068-1.124,1.584-2.464,1.546-4.021
				c-0.038-1.552-0.618-2.862-1.74-3.933C135.861,32.048,134.532,31.529,132.996,31.566z"/>
			<path fill="#331842" d="M145.442,35.92l0.322-0.332c0.88-0.931,1.959-1.412,3.236-1.443c1.277-0.031,2.378,0.396,3.303,1.283
				s1.403,1.974,1.434,3.259c0.032,1.286-0.393,2.393-1.274,3.324c-0.881,0.93-1.959,1.412-3.236,1.442
				c-1.277,0.031-2.378-0.396-3.303-1.283c-0.925-0.887-1.403-1.973-1.434-3.259l-0.198-8.128c-0.003-0.144,0.043-0.267,0.14-0.369
				c0.097-0.103,0.217-0.155,0.36-0.159c0.143-0.004,0.266,0.043,0.367,0.141c0.101,0.098,0.154,0.218,0.157,0.362L145.442,35.92z
				 M149.202,42.423c0.991-0.024,1.83-0.399,2.518-1.126c0.682-0.72,1.011-1.583,0.986-2.585c-0.024-1.002-0.395-1.848-1.111-2.534
				c-0.722-0.692-1.578-1.026-2.569-1.002c-0.991,0.024-1.83,0.4-2.517,1.126c-0.688,0.727-1.019,1.589-0.995,2.586
				c0.024,0.997,0.397,1.842,1.119,2.534C147.355,42.113,148.211,42.448,149.202,42.423z"/>
			<path fill="#331842" d="M158.301,30.426c-0.004-0.144,0.043-0.267,0.14-0.369c0.097-0.103,0.216-0.155,0.359-0.159
				s0.267,0.043,0.371,0.141s0.158,0.218,0.162,0.362l0.287,11.769l0.851-0.021c0.143-0.003,0.267,0.043,0.371,0.141
				s0.158,0.217,0.162,0.361c0.003,0.145-0.044,0.268-0.144,0.37c-0.099,0.102-0.221,0.155-0.363,0.158l-1.371,0.034
				c-0.143,0.003-0.265-0.043-0.367-0.141c-0.102-0.098-0.154-0.218-0.158-0.363L158.301,30.426z"/>
			<path fill="#331842" d="M167.559,31.448c0.005,0.194-0.057,0.359-0.186,0.495s-0.29,0.207-0.482,0.211
				c-0.187,0.005-0.35-0.058-0.488-0.188c-0.138-0.129-0.209-0.292-0.214-0.485c-0.004-0.188,0.059-0.352,0.19-0.491
				c0.132-0.138,0.291-0.21,0.478-0.215c0.193-0.004,0.357,0.06,0.492,0.192C167.484,31.099,167.554,31.259,167.559,31.448z
				 M166.429,34.236c-0.003-0.144,0.043-0.267,0.14-0.37c0.097-0.102,0.217-0.155,0.36-0.158s0.267,0.043,0.371,0.141
				c0.104,0.098,0.158,0.218,0.162,0.362l0.202,8.278c0.003,0.145-0.044,0.268-0.144,0.37c-0.1,0.102-0.221,0.155-0.364,0.158
				s-0.265-0.043-0.367-0.141c-0.102-0.098-0.154-0.218-0.158-0.362L166.429,34.236z"/>
			<path fill="#331842" d="M181.419,40.965c-0.98,1.144-2.164,1.732-3.551,1.766c-1.277,0.031-2.378-0.394-3.303-1.275
				c-0.925-0.887-1.403-1.971-1.434-3.25c-0.031-1.285,0.393-2.391,1.274-3.316c0.88-0.931,1.959-1.412,3.237-1.442
				c1.277-0.031,2.378,0.396,3.303,1.283c0.925,0.881,1.403,1.965,1.434,3.25l0.115,4.704c0.023,0.953-0.301,1.79-0.972,2.51
				c-0.945,0.999-2.106,1.515-3.482,1.549s-2.558-0.426-3.545-1.378c-0.366-0.334-0.664-0.702-0.894-1.101
				c-0.063-0.104-0.096-0.206-0.099-0.305c-0.003-0.145,0.043-0.267,0.14-0.37c0.097-0.102,0.217-0.155,0.36-0.158
				s0.268,0.046,0.375,0.149c0.045,0.038,0.085,0.09,0.12,0.155c0.195,0.328,0.431,0.625,0.708,0.89
				c0.395,0.378,0.827,0.658,1.296,0.837c0.47,0.18,0.975,0.264,1.514,0.25c1.09-0.026,2.011-0.438,2.762-1.231
				c0.47-0.6,0.698-1.189,0.684-1.771L181.419,40.965z M177.667,34.478c-0.991,0.024-1.83,0.396-2.518,1.118
				c-0.687,0.727-1.019,1.588-0.995,2.585c0.024,0.992,0.397,1.834,1.119,2.526c0.722,0.692,1.578,1.026,2.569,1.002
				c0.991-0.024,1.83-0.4,2.517-1.126c0.682-0.72,1.011-1.58,0.986-2.577c-0.024-1.002-0.395-1.848-1.111-2.535
				C179.515,34.785,178.658,34.454,177.667,34.478z"/>
			<path fill="#331842" d="M195.371,40.642c-1.084,1.151-2.268,1.743-3.551,1.774c-1.277,0.031-2.378-0.397-3.303-1.283
				c-0.925-0.887-1.403-1.973-1.434-3.259c-0.032-1.285,0.393-2.394,1.274-3.324c0.88-0.931,1.959-1.411,3.236-1.442
				s2.378,0.396,3.303,1.283c0.924,0.887,1.403,1.973,1.434,3.258l0.101,4.139c0.003,0.145-0.043,0.268-0.14,0.37
				c-0.097,0.102-0.216,0.155-0.359,0.158c-0.144,0.003-0.267-0.043-0.371-0.141c-0.104-0.098-0.158-0.218-0.162-0.362
				L195.371,40.642z M191.618,34.138c-0.991,0.024-1.83,0.4-2.517,1.126c-0.688,0.727-1.019,1.588-0.995,2.585
				c0.024,0.997,0.397,1.842,1.119,2.534c0.722,0.692,1.579,1.026,2.569,1.002c0.991-0.024,1.83-0.4,2.517-1.126
				c0.682-0.72,1.011-1.582,0.986-2.585c-0.024-1.002-0.395-1.848-1.111-2.535C193.465,34.448,192.609,34.114,191.618,34.138z"/>
			<path fill="#331842" d="M208.38,39.992c0.143-0.003,0.266,0.045,0.367,0.145c0.102,0.101,0.154,0.223,0.158,0.367
				s-0.046,0.27-0.148,0.378c-0.41,0.37-0.868,0.659-1.375,0.865c-0.507,0.207-1.044,0.317-1.611,0.331
				c-1.277,0.031-2.378-0.397-3.303-1.283c-0.925-0.887-1.403-1.973-1.434-3.258c-0.031-1.285,0.393-2.394,1.274-3.325
				s1.959-1.411,3.236-1.442c0.567-0.014,1.11,0.07,1.63,0.251c0.52,0.181,0.99,0.447,1.412,0.797
				c0.051,0.048,0.095,0.108,0.132,0.179c0.038,0.071,0.057,0.146,0.059,0.223c0.003,0.144-0.043,0.268-0.14,0.37
				s-0.217,0.155-0.36,0.159c-0.132,0.003-0.243-0.036-0.333-0.117c-0.686-0.576-1.478-0.854-2.375-0.832
				c-0.991,0.024-1.83,0.4-2.517,1.126c-0.682,0.721-1.011,1.583-0.986,2.585c0.024,1.003,0.395,1.848,1.111,2.534
				c0.722,0.692,1.578,1.026,2.569,1.002c0.435-0.011,0.853-0.102,1.253-0.272c0.401-0.17,0.76-0.396,1.078-0.675
				C208.158,40.031,208.259,39.995,208.38,39.992z"/>
			<path fill="#331842" d="M215.436,30.282c0.004,0.194-0.058,0.359-0.187,0.495c-0.128,0.136-0.29,0.207-0.482,0.211
				c-0.188,0.004-0.35-0.058-0.488-0.188c-0.138-0.129-0.209-0.292-0.214-0.485c-0.005-0.188,0.059-0.352,0.19-0.491
				c0.131-0.139,0.291-0.211,0.478-0.215c0.192-0.005,0.356,0.06,0.492,0.192C215.361,29.933,215.431,30.093,215.436,30.282z
				 M214.306,33.07c-0.003-0.144,0.043-0.267,0.14-0.369c0.097-0.102,0.217-0.155,0.36-0.158s0.267,0.043,0.371,0.141
				c0.104,0.097,0.158,0.218,0.162,0.362l0.202,8.278c0.003,0.145-0.044,0.267-0.144,0.37c-0.099,0.102-0.221,0.155-0.363,0.158
				c-0.144,0.003-0.266-0.043-0.367-0.141c-0.102-0.098-0.154-0.218-0.158-0.363L214.306,33.07z"/>
			<path fill="#331842" d="M230.257,36.823c0.031,1.286-0.394,2.393-1.274,3.324c-0.88,0.93-1.959,1.412-3.236,1.442
				c-1.277,0.031-2.378-0.396-3.303-1.283c-0.925-0.887-1.403-1.973-1.435-3.259c-0.031-1.285,0.394-2.394,1.274-3.324
				c0.881-0.931,1.959-1.412,3.237-1.443c1.277-0.031,2.378,0.396,3.303,1.283S230.226,35.538,230.257,36.823z M225.544,33.312
				c-0.991,0.024-1.83,0.4-2.517,1.126c-0.688,0.727-1.019,1.589-0.995,2.586s0.397,1.842,1.119,2.534
				c0.722,0.692,1.579,1.027,2.569,1.002c0.991-0.024,1.83-0.399,2.518-1.126c0.682-0.72,1.011-1.583,0.986-2.585
				c-0.024-1.002-0.395-1.848-1.111-2.534C227.392,33.622,226.535,33.288,225.544,33.312z"/>
			<path fill="#331842" d="M234.867,32.569c-0.003-0.144,0.043-0.267,0.14-0.37c0.097-0.102,0.217-0.155,0.36-0.158
				s0.265,0.043,0.367,0.141c0.102,0.098,0.154,0.219,0.158,0.362l0.023,0.964c0.989-1.012,2.061-1.531,3.217-1.559
				c1.189-0.029,2.207,0.368,3.053,1.19c0.863,0.822,1.309,1.828,1.338,3.02l0.109,4.479c0.003,0.145-0.044,0.267-0.144,0.37
				c-0.1,0.102-0.221,0.155-0.364,0.159c-0.143,0.003-0.265-0.043-0.367-0.141c-0.102-0.098-0.154-0.218-0.158-0.363l-0.109-4.479
				c-0.022-0.914-0.36-1.677-1.014-2.287c-0.655-0.633-1.427-0.938-2.319-0.917c-0.892,0.022-1.652,0.365-2.28,1.029
				c-0.618,0.647-0.916,1.425-0.894,2.334l0.109,4.479c0.003,0.145-0.043,0.267-0.14,0.37c-0.097,0.102-0.217,0.155-0.36,0.158
				s-0.265-0.043-0.367-0.141c-0.102-0.098-0.154-0.218-0.158-0.362L234.867,32.569z"/>
			<path fill="#331842" d="M255.573,38.859c0.143-0.003,0.265,0.045,0.367,0.145s0.154,0.222,0.158,0.366
				c0.003,0.145-0.038,0.264-0.124,0.36c-0.84,0.769-1.836,1.167-2.986,1.196c-1.277,0.031-2.378-0.397-3.303-1.283
				c-0.925-0.887-1.403-1.973-1.435-3.259c-0.031-1.285,0.394-2.394,1.274-3.324c0.88-0.931,1.959-1.412,3.236-1.442
				c1.277-0.031,2.378,0.396,3.303,1.283s1.403,1.974,1.435,3.259c0.003,0.144-0.043,0.267-0.14,0.369s-0.217,0.155-0.36,0.159
				l-7.695,0.188c0.185,0.827,0.548,1.5,1.09,2.019c0.722,0.692,1.578,1.027,2.569,1.003c0.451-0.011,0.868-0.095,1.25-0.251
				c0.382-0.156,0.729-0.376,1.042-0.662C255.345,38.904,255.452,38.862,255.573,38.859z M256.437,35.669
				c-0.174-0.821-0.535-1.495-1.082-2.019c-0.722-0.692-1.579-1.026-2.569-1.002c-0.991,0.024-1.83,0.399-2.517,1.125
				c-0.516,0.545-0.846,1.235-0.991,2.07L256.437,35.669z"/>
			<path fill="#331842" d="M263.791,35.84l0.008,0c-0.255-0.087-0.47-0.175-0.643-0.263c-0.173-0.087-0.308-0.18-0.403-0.277
				c-0.378-0.374-0.573-0.815-0.586-1.325c-0.013-0.515,0.169-0.977,0.545-1.385c0.773-0.828,1.798-1.258,3.075-1.289
				c0.683-0.017,1.328,0.113,1.935,0.389c0.607,0.276,1.16,0.675,1.657,1.195c0.062,0.076,0.095,0.172,0.098,0.289
				c0.004,0.144-0.044,0.269-0.144,0.374c-0.099,0.105-0.221,0.159-0.363,0.163c-0.138,0.003-0.246-0.039-0.326-0.125l-0.262-0.251
				c-0.722-0.692-1.578-1.026-2.569-1.002c-0.997,0.024-1.79,0.365-2.379,1.023c-0.16,0.198-0.237,0.438-0.23,0.721
				c0.015,0.166,0.068,0.309,0.159,0.429c0.091,0.12,0.223,0.208,0.395,0.265l4.253,1.302h-0.008
				c0.255,0.088,0.47,0.176,0.643,0.263c0.173,0.087,0.305,0.18,0.395,0.277c0.384,0.368,0.582,0.81,0.594,1.325
				c0.013,0.521-0.172,0.982-0.553,1.385c-0.767,0.829-1.79,1.258-3.066,1.289c-1.382,0.034-2.579-0.492-3.591-1.576
				c-0.063-0.082-0.096-0.181-0.099-0.297c-0.003-0.144,0.043-0.269,0.14-0.374c0.097-0.104,0.217-0.159,0.36-0.162
				c0.132-0.003,0.243,0.039,0.333,0.124l0.262,0.252c0.722,0.692,1.578,1.026,2.569,1.002c0.991-0.024,1.778-0.362,2.363-1.014
				c0.166-0.199,0.245-0.438,0.238-0.721c-0.036-0.354-0.221-0.588-0.554-0.702L263.791,35.84z"/>
			<path fill="#331842" d="M290.689,27.218c-0.004-0.144,0.044-0.267,0.144-0.369c0.1-0.103,0.221-0.156,0.364-0.159
				c0.143-0.003,0.265,0.043,0.367,0.141c0.102,0.097,0.154,0.218,0.158,0.362l0.198,8.128c0.031,1.286-0.394,2.393-1.274,3.324
				c-0.881,0.93-1.959,1.412-3.236,1.442c-1.277,0.031-2.378-0.396-3.303-1.283c-0.925-0.887-1.403-1.973-1.434-3.259
				c-0.031-1.285,0.393-2.394,1.274-3.324c0.88-0.931,1.959-1.412,3.236-1.443c1.277-0.031,2.378,0.396,3.303,1.283l0.33,0.316
				L290.689,27.218z M290.887,35.346c-0.024-1.002-0.395-1.848-1.111-2.534c-0.722-0.692-1.578-1.026-2.569-1.002
				c-0.99,0.024-1.83,0.4-2.517,1.126c-0.687,0.727-1.019,1.589-0.995,2.586c0.024,0.997,0.397,1.842,1.12,2.534
				c0.722,0.692,1.578,1.027,2.569,1.002c0.991-0.024,1.83-0.399,2.517-1.126C290.583,37.211,290.912,36.349,290.887,35.346z"/>
			<path fill="#331842" d="M303.945,37.681c0.143-0.003,0.265,0.045,0.367,0.145s0.154,0.222,0.158,0.366
				c0.003,0.145-0.038,0.264-0.124,0.36c-0.84,0.769-1.836,1.167-2.986,1.196c-1.277,0.031-2.378-0.397-3.303-1.283
				c-0.925-0.887-1.403-1.973-1.434-3.259c-0.031-1.285,0.393-2.394,1.274-3.324s1.959-1.412,3.236-1.442
				c1.277-0.031,2.378,0.396,3.303,1.283s1.403,1.974,1.435,3.259c0.003,0.144-0.043,0.267-0.14,0.369s-0.216,0.155-0.359,0.159
				l-7.695,0.188c0.185,0.827,0.549,1.5,1.09,2.019c0.722,0.692,1.578,1.027,2.569,1.003c0.451-0.011,0.868-0.095,1.25-0.251
				c0.381-0.156,0.729-0.376,1.042-0.662C303.718,37.726,303.824,37.684,303.945,37.681z M304.809,34.491
				c-0.174-0.821-0.535-1.495-1.082-2.019c-0.722-0.692-1.578-1.026-2.569-1.002c-0.991,0.024-1.83,0.399-2.517,1.125
				c-0.516,0.545-0.846,1.235-0.991,2.07L304.809,34.491z"/>
			<path fill="#331842" d="M310.433,26.72c-0.003-0.144,0.043-0.267,0.14-0.369c0.097-0.103,0.216-0.155,0.36-0.159
				c0.143-0.003,0.267,0.043,0.371,0.141c0.104,0.097,0.158,0.218,0.162,0.362l0.287,11.769l0.85-0.021
				c0.143-0.003,0.267,0.043,0.371,0.141c0.104,0.097,0.158,0.218,0.162,0.362c0.004,0.145-0.044,0.267-0.144,0.37
				c-0.1,0.102-0.221,0.155-0.364,0.158l-1.371,0.034c-0.144,0.003-0.266-0.043-0.367-0.141c-0.102-0.098-0.154-0.218-0.157-0.363
				L310.433,26.72z"/>
		</g>
	</g>
	<path fill="#F2961C" d="M99.572,88.152l-5.613,0.134l-3.3,0.082l-7.48,0.179l-0.911-37.631l23.866-0.583l12.444-0.299v1.105
		c-0.165,2.762-1.732,3.322-4.419,2.859c-1.523-0.269-3.046-0.306-4.539-0.149c-7.711,0.829-14.557,7.002-16.131,14.997
		c-0.866,4.382-0.456,8.928,1.247,12.833C95.818,84.173,97.43,86.398,99.572,88.152z"/>
	<path fill="#331842" d="M410.989,77.958l-301.682,9.956c-4.054-0.53-7.197-2.322-9.354-5.308c-0.239-0.335-0.463-0.679-0.672-1.037
		c-1.941-3.315-2.605-7.674-1.762-11.929c1.202-6.136,6.48-11.056,12.541-11.706c1.127-0.119,2.27-0.082,3.404,0.112
		c0.798,0.134,1.516,0.201,2.188,0.201c4.076,0,6.771-2.627,7.024-6.86l0.007-1.403v-0.052l287.387-9.613l0.754,31.047
		L410.989,77.958z"/>
	<g>
		<path fill="#FFFFFF" d="M137.638,58.725c2.94-0.072,4.446,1.348,4.517,4.26c0.008,0.354-0.003,0.733-0.036,1.138l-5.681,0.138
			c0.04,1.624,0.479,2.425,1.318,2.405l0.089-0.002c0.736-0.062,1.094-0.491,1.075-1.287c-0.004-0.171-0.025-0.36-0.064-0.567
			l3.023-0.121c0.059,2.407-1.322,3.66-4.143,3.76c-0.034,0.007-0.063,0.011-0.088,0.012c-2.687,0.065-4.066-1.421-4.14-4.459
			l-0.007-0.284C133.504,60.456,134.884,58.792,137.638,58.725z M136.09,62.526l2.873-0.07l-0.005-0.228
			c-0.028-1.15-0.479-1.713-1.351-1.692C136.665,60.56,136.16,61.222,136.09,62.526z"/>
		<path fill="#FFFFFF" d="M143.004,64.964l2.908-0.175l0.003,0.123c0.023,0.973,0.438,1.456,1.243,1.448l0.051-0.001
			c0.78-0.019,1.163-0.31,1.149-0.871l-0.001-0.066c-0.049-0.619-0.83-1.099-2.343-1.441c-1.513-0.342-2.433-0.958-2.76-1.848
			c-0.118-0.312-0.18-0.615-0.188-0.906c-0.013-0.53,0.157-1.027,0.511-1.491c0.542-0.708,1.38-1.126,2.513-1.255
			c0.305-0.033,0.601-0.053,0.889-0.06c0.754-0.019,1.422,0.063,2.003,0.245c0.794,0.252,1.351,0.627,1.668,1.125
			c0.211,0.343,0.323,0.726,0.333,1.148c0.005,0.202-0.011,0.411-0.048,0.627l-2.719,0.114c0.021-0.158,0.031-0.304,0.027-0.437
			c-0.015-0.631-0.294-0.962-0.838-0.993c-0.06-0.005-0.119-0.007-0.178-0.005c-0.559,0.014-0.931,0.234-1.116,0.662
			c-0.064,0.146-0.095,0.28-0.092,0.4c0.007,0.297,0.2,0.548,0.578,0.754c0.533,0.29,1.318,0.579,2.355,0.867
			c1.037,0.288,1.743,0.803,2.117,1.546c0.134,0.281,0.205,0.564,0.211,0.848c0.012,0.48-0.163,0.968-0.524,1.463
			c-0.574,0.791-1.482,1.265-2.725,1.422c-0.271,0.038-0.537,0.061-0.8,0.067c-0.932,0.023-1.801-0.136-2.606-0.477
			C143.597,67.361,143.056,66.417,143.004,64.964z"/>
		<path fill="#FFFFFF" d="M154.074,55.3l2.882-0.212l0.076,3.136l2.426-0.106l0.082,1.79l-2.464,0.145l0.105,4.311
			c0.024,1.004,0.609,1.493,1.752,1.465c0.237-0.006,0.495-0.034,0.774-0.085l-0.063,2.087c-0.406,0.048-0.791,0.076-1.155,0.085
			c-2.678,0.065-4.067-0.931-4.168-2.988l-0.113-4.633l-2.082,0.146l-0.103-2.112l2.136-0.033L154.074,55.3z"/>
		<path fill="#FFFFFF" d="M165.465,57.772c2.791,0.046,4.21,1.057,4.258,3.034l0.164,6.727l-2.96,0.11l-0.124-0.897
			c-0.598,0.533-1.4,0.812-2.409,0.836c-0.432,0.01-0.899-0.029-1.402-0.118c-1.506-0.241-2.277-1.088-2.313-2.541
			c-0.004-0.177,0.004-0.367,0.024-0.569c0.133-1.501,1.542-2.285,4.229-2.35c0.517-0.013,1.085,0.002,1.705,0.043l-0.027-1.099
			c-0.021-0.891-0.41-1.327-1.164-1.308l-0.051,0.001c-0.06-0.005-0.115-0.006-0.166-0.005c-0.822,0.02-1.221,0.529-1.196,1.527
			l0.003,0.143l-3.029-0.116c-0.054-2.204,1.343-3.341,4.19-3.41L165.465,57.772z M166.715,65.23l-0.041-1.667
			c-0.366-0.048-0.697-0.068-0.994-0.061c-0.771,0.019-1.292,0.224-1.562,0.616c-0.164,0.238-0.243,0.458-0.238,0.66
			c0.006,0.253,0.147,0.473,0.423,0.663c0.215,0.146,0.493,0.215,0.832,0.207C165.568,65.638,166.094,65.498,166.715,65.23z"/>
		<path fill="#FFFFFF" d="M180.189,54.01c0.001,2.136,0.03,4.375,0.087,6.719c0.052,2.135,0.127,4.357,0.226,6.668l-3.012,0.083
			l-0.137-1.447c-0.61,0.716-1.436,1.087-2.478,1.112c-2.601,0.063-3.938-1.39-4.01-4.358c-0.001-0.063,0.001-0.126,0.008-0.189
			c-0.021-2.977,1.23-4.495,3.755-4.557c0.102-0.002,0.208-0.001,0.318,0.001c0.865,0.017,1.573,0.35,2.123,1
			c-0.034-1.402-0.121-3.052-0.26-4.952L180.189,54.01z M177.255,64.092l-0.143-3.277c-0.504-0.487-1.014-0.724-1.531-0.711
			c-0.212,0.005-0.423,0.051-0.632,0.139c-0.663,0.275-0.98,1.01-0.951,2.204c0.003,0.139,0.011,0.281,0.023,0.426
			c0.12,1.444,0.571,2.198,1.353,2.261c0.076,0.005,0.153,0.006,0.229,0.004C176.28,65.121,176.831,64.772,177.255,64.092z"/>
		<path fill="#FFFFFF" d="M185.757,57.553c2.88-0.07,4.357,1.385,4.43,4.367c0.003,0.12,0.001,0.24-0.004,0.36
			c-0.04,3.23-1.534,4.897-4.481,5c-0.034,0.007-0.068,0.011-0.102,0.012c-2.805,0.068-4.244-1.423-4.318-4.474l-0.006-0.265
			C181.28,59.292,182.774,57.625,185.757,57.553z M185.39,59.723c-0.53,0.152-0.882,0.675-1.055,1.571
			c-0.106,0.533-0.152,1.069-0.139,1.606c0.009,0.359,0.043,0.722,0.103,1.087c0.158,0.906,0.605,1.366,1.343,1.38l0.089-0.002
			c0.686-0.017,1.148-0.366,1.386-1.048c0.198-0.568,0.288-1.237,0.269-2.007c-0.004-0.189-0.014-0.382-0.026-0.577
			c-0.093-1.016-0.312-1.646-0.657-1.89c-0.215-0.146-0.472-0.215-0.768-0.208C185.765,59.639,185.583,59.668,185.39,59.723z"/>
		<path fill="#FFFFFF" d="M205.403,58.013l-2.821,0.078l-0.006-0.256c-0.036-1.484-0.613-2.212-1.732-2.185
			c-1.195,0.029-1.759,1.414-1.692,4.155c0.075,3.088,0.74,4.618,1.994,4.587l0.013,0c1.253-0.037,1.862-0.81,1.825-2.319
			l-0.022-0.938l3.152-0.077l0.017,0.711c0.077,3.146-1.616,4.833-5.078,5.062c-0.102,0.009-0.203,0.014-0.305,0.017
			c-3.262,0.08-4.95-2.218-5.064-6.892c-0.111-4.573,1.511-6.9,4.866-6.982c3.16-0.077,4.778,1.413,4.853,4.47
			C205.407,57.627,205.407,57.816,205.403,58.013z"/>
		<path fill="#FFFFFF" d="M211.239,56.932c2.881-0.07,4.358,1.385,4.431,4.367c0.003,0.12,0.001,0.24-0.004,0.36
			c-0.04,3.23-1.534,4.898-4.481,5.001c-0.034,0.007-0.068,0.011-0.102,0.012c-2.805,0.068-4.244-1.423-4.318-4.474l-0.006-0.265
			C206.763,58.672,208.257,57.005,211.239,56.932z M210.873,59.103c-0.53,0.152-0.882,0.675-1.055,1.571
			c-0.106,0.533-0.152,1.069-0.139,1.606c0.009,0.359,0.043,0.722,0.103,1.087c0.157,0.906,0.605,1.366,1.343,1.38l0.089-0.002
			c0.687-0.017,1.148-0.367,1.386-1.048c0.198-0.568,0.288-1.237,0.269-2.007c-0.004-0.189-0.014-0.382-0.027-0.578
			c-0.093-1.015-0.312-1.645-0.656-1.89c-0.216-0.146-0.472-0.215-0.768-0.208C211.248,59.018,211.066,59.047,210.873,59.103z"/>
		<path fill="#FFFFFF" d="M220.064,66.292l-3.16,0.295c-0.017-2.092-0.049-4.104-0.096-6.037c-0.066-2.716-0.162-5.276-0.289-7.681
			l3.113-0.114c0.004,1.548,0.025,3.137,0.065,4.767C219.767,60.333,219.889,63.256,220.064,66.292z"/>
		<path fill="#FFFFFF" d="M225.398,56.587c2.881-0.07,4.358,1.385,4.43,4.366c0.003,0.12,0.001,0.24-0.004,0.36
			c-0.04,3.23-1.534,4.897-4.481,5.001c-0.034,0.007-0.068,0.011-0.102,0.012c-2.805,0.068-4.244-1.423-4.318-4.474l-0.007-0.265
			C220.921,58.327,222.416,56.66,225.398,56.587z M225.031,58.758c-0.53,0.152-0.882,0.675-1.056,1.57
			c-0.105,0.533-0.152,1.069-0.139,1.606c0.009,0.359,0.043,0.722,0.103,1.088c0.158,0.906,0.606,1.366,1.344,1.379l0.089-0.002
			c0.687-0.017,1.148-0.367,1.386-1.048c0.198-0.567,0.288-1.236,0.269-2.007c-0.005-0.189-0.014-0.382-0.027-0.578
			c-0.093-1.015-0.312-1.645-0.657-1.89c-0.215-0.146-0.471-0.215-0.768-0.208C225.406,58.673,225.225,58.702,225.031,58.758z"/>
		<path fill="#FFFFFF" d="M232.46,56.216l0.087,1.515c0.44-0.737,0.958-1.202,1.556-1.393c0.353-0.11,0.712-0.169,1.076-0.178
			c0.271-0.007,0.543,0.012,0.815,0.056c0.664,0.11,1.146,0.604,1.448,1.481c0.204-0.694,0.574-1.162,1.11-1.406
			c0.537-0.244,1.135-0.377,1.796-0.399l0.051-0.001c0.644-0.016,1.265,0.086,1.864,0.306c0.607,0.226,1.078,0.664,1.412,1.316
			c0.334,0.652,0.523,1.553,0.568,2.702l0.134,5.504l-2.744,0.114c0.059-2.081,0.071-3.851,0.036-5.31
			c-0.035-1.459-0.427-2.236-1.176-2.332c-0.11-0.01-0.216-0.014-0.318-0.011c-0.593,0.015-1.043,0.31-1.352,0.886
			c-0.035,0.658-0.042,1.426-0.021,2.304c0.029,1.194,0.11,2.585,0.242,4.174l-3.177,0.097c0.059-2.447,0.075-4.229,0.048-5.348
			l-0.003-0.113c-0.036-1.105-0.342-1.679-0.919-1.722l-0.165,0.004c-0.517,0.013-1.012,0.246-1.483,0.7l0.194,6.935l-2.998,0.158
			l-0.038-1.554c-0.067-2.754-0.189-5.503-0.366-8.248L232.46,56.216z"/>
		<path fill="#FFFFFF" d="M248.275,52.352c-0.047,1.904-0.053,3.556-0.019,4.958c0.434-0.611,0.998-0.976,1.69-1.093
			c0.119-0.009,0.233-0.015,0.343-0.018c2.762-0.067,4.209,1.385,4.341,4.359l0.004,0.17c0.073,2.981-1.361,4.507-4.301,4.579
			c-0.704,0.017-1.377-0.317-2.021-1.003l-0.066,1.452l-3.012,0.064c-0.014-2.313-0.047-4.536-0.099-6.671
			c-0.057-2.344-0.137-4.582-0.24-6.715L248.275,52.352z M248.299,59.082l0.017,3.28c0.457,0.659,1.024,0.979,1.702,0.963
			c0.077-0.002,0.153-0.007,0.229-0.015c0.777-0.101,1.19-0.892,1.239-2.371c0.004-0.152,0.005-0.297,0.002-0.437
			c-0.029-1.213-0.378-1.928-1.044-2.146c-0.205-0.064-0.405-0.094-0.6-0.09C249.31,58.28,248.794,58.551,248.299,59.082z"/>
		<path fill="#FFFFFF" d="M259.025,53.587c0.009,0.386-0.165,0.719-0.522,0.999c-0.358,0.28-0.795,0.427-1.312,0.439
			c-0.508,0.012-0.948-0.113-1.319-0.375s-0.561-0.586-0.57-0.972c-0.01-0.379,0.165-0.708,0.522-0.989
			c0.357-0.28,0.791-0.427,1.299-0.439c0.517-0.013,0.96,0.112,1.332,0.375C258.826,52.888,259.016,53.208,259.025,53.587z
			 M255.911,65.627c-0.149-3.694-0.257-6.886-0.323-9.577l3.2-0.22c-0.039,2.58-0.027,5.142,0.035,7.688
			c0.017,0.682,0.037,1.361,0.062,2.037L255.911,65.627z"/>
		<path fill="#FFFFFF" d="M264.689,55.355c2.791,0.046,4.21,1.057,4.258,3.034l0.164,6.727l-2.96,0.11l-0.124-0.898
			c-0.598,0.533-1.4,0.812-2.409,0.836c-0.432,0.011-0.899-0.029-1.402-0.118c-1.506-0.241-2.277-1.088-2.312-2.541
			c-0.005-0.177,0.003-0.367,0.024-0.569c0.133-1.501,1.542-2.285,4.229-2.35c0.517-0.012,1.085,0.002,1.705,0.043l-0.027-1.099
			c-0.021-0.891-0.41-1.327-1.164-1.308l-0.051,0.001c-0.06-0.005-0.115-0.006-0.166-0.005c-0.822,0.02-1.221,0.529-1.196,1.526
			l0.003,0.143l-3.029-0.116c-0.054-2.204,1.343-3.341,4.19-3.41L264.689,55.355z M265.939,62.813l-0.041-1.667
			c-0.366-0.048-0.697-0.068-0.994-0.061c-0.771,0.019-1.292,0.225-1.562,0.616c-0.164,0.238-0.243,0.458-0.238,0.66
			c0.006,0.253,0.146,0.473,0.423,0.663c0.215,0.146,0.493,0.216,0.832,0.208C264.792,63.221,265.318,63.082,265.939,62.813z"/>
		<path fill="#FFFFFF" d="M272.227,55.2l0.165,1.541c0.336-0.829,1.262-1.269,2.778-1.319l0.051-0.001
			c1.491-0.037,2.519,0.375,3.083,1.233c0.387,0.584,0.607,1.97,0.661,4.155c0.026,1.074,0.01,2.345-0.047,3.812l-3.076,0.075
			c0.062-1.954,0.081-3.468,0.055-4.542c-0.013-0.537-0.036-0.966-0.069-1.287c-0.108-0.946-0.526-1.409-1.255-1.391
			c-0.729,0.018-1.18,0.281-1.354,0.791l0.294,6.866l-2.986,0.092c-0.071-2.905-0.282-6.165-0.632-9.778L272.227,55.2z"/>
		<path fill="#FFFFFF" d="M284.358,55.151c2.881-0.07,4.358,1.385,4.43,4.366c0.003,0.12,0.001,0.24-0.004,0.36
			c-0.04,3.23-1.534,4.897-4.481,5c-0.034,0.007-0.068,0.012-0.102,0.013c-2.805,0.068-4.244-1.423-4.318-4.474l-0.007-0.265
			C279.881,56.891,281.375,55.224,284.358,55.151z M283.991,57.322c-0.53,0.151-0.882,0.675-1.056,1.57
			c-0.105,0.533-0.152,1.069-0.139,1.606c0.009,0.359,0.043,0.722,0.103,1.087c0.158,0.906,0.606,1.366,1.344,1.38l0.089-0.002
			c0.687-0.017,1.148-0.367,1.386-1.048c0.198-0.567,0.288-1.237,0.269-2.007c-0.005-0.189-0.014-0.381-0.027-0.577
			c-0.093-1.016-0.312-1.645-0.657-1.89c-0.215-0.146-0.471-0.215-0.768-0.208C284.366,57.237,284.185,57.266,283.991,57.322z"/>
		<path fill="#FFFFFF" d="M295.983,55.209c-0.021-0.17-0.034-0.343-0.038-0.52c-0.015-0.594,0.051-1.205,0.197-1.834
			c0.175-0.819,0.752-1.485,1.732-1.995c0.728-0.385,1.656-0.59,2.783-0.618c0.373-0.009,0.771,0.003,1.196,0.038l0.025,2.075
			c-0.255-0.019-0.493-0.025-0.713-0.02c-0.703,0.017-1.217,0.159-1.541,0.426c-0.358,0.281-0.527,0.816-0.508,1.605
			c0.004,0.189,0.022,0.398,0.053,0.625l2.719-0.094l0.047,1.923l-2.793,0.2c0.118,2.07,0.2,4.027,0.245,5.872
			c0.013,0.556,0.022,1.099,0.027,1.63l-3.226,0.183c-0.025-2.104-0.044-4.594-0.055-7.469l-2.057,0.126l-0.1-2.035L295.983,55.209z
			"/>
		<path fill="#FFFFFF" d="M306.455,57.551l0.295,6.866l-3.114,0.095c-0.071-2.905-0.282-6.165-0.632-9.777l2.334-0.247l0.165,1.542
			c0.337-0.767,1.157-1.219,2.459-1.358c0.195-0.018,0.381-0.029,0.559-0.033c1.025-0.025,1.811,0.206,2.357,0.691
			c0.633,0.579,0.969,1.515,1.009,2.81l-2.816,0.277c0.005-0.107,0.007-0.211,0.005-0.312c-0.024-1.011-0.389-1.507-1.092-1.49
			l-0.051,0.001C307.121,56.667,306.628,56.979,306.455,57.551z"/>
		<path fill="#FFFFFF" d="M316.78,54.362c2.94-0.072,4.446,1.348,4.517,4.26c0.009,0.354-0.003,0.733-0.036,1.138l-5.681,0.138
			c0.039,1.624,0.479,2.425,1.317,2.404l0.089-0.002c0.736-0.062,1.095-0.491,1.075-1.287c-0.004-0.171-0.026-0.36-0.065-0.568
			l3.024-0.121c0.059,2.407-1.322,3.661-4.144,3.76c-0.033,0.007-0.063,0.012-0.088,0.012c-2.686,0.065-4.066-1.421-4.14-4.459
			l-0.007-0.284C312.647,56.093,314.026,54.429,316.78,54.362z M315.232,58.163l2.872-0.07l-0.005-0.228
			c-0.028-1.15-0.479-1.713-1.351-1.692C315.808,56.196,315.302,56.858,315.232,58.163z"/>
		<path fill="#FFFFFF" d="M324.477,53.927l0.165,1.542c0.336-0.83,1.262-1.269,2.778-1.319l0.051-0.001
			c1.491-0.036,2.519,0.375,3.083,1.233c0.387,0.585,0.607,1.97,0.66,4.155c0.026,1.074,0.011,2.345-0.047,3.812l-3.076,0.075
			c0.062-1.955,0.081-3.469,0.055-4.542c-0.013-0.537-0.036-0.966-0.069-1.287c-0.108-0.945-0.526-1.409-1.255-1.391
			c-0.729,0.018-1.18,0.281-1.354,0.791l0.294,6.866l-2.986,0.092c-0.071-2.905-0.282-6.165-0.632-9.777L324.477,53.927z"/>
		<path fill="#FFFFFF" d="M334.183,50.914l2.881-0.212l0.077,3.136l2.426-0.106l0.082,1.79l-2.463,0.145l0.105,4.311
			c0.024,1.004,0.608,1.492,1.752,1.464c0.237-0.006,0.495-0.034,0.773-0.085l-0.063,2.087c-0.406,0.048-0.791,0.077-1.155,0.085
			c-2.677,0.065-4.067-0.931-4.167-2.989l-0.113-4.633l-2.082,0.146l-0.102-2.112l2.136-0.033L334.183,50.914z"/>
		<path fill="#FFFFFF" d="M344.792,53.679c2.94-0.071,4.446,1.348,4.517,4.26c0.008,0.354-0.003,0.733-0.036,1.138l-5.681,0.139
			c0.04,1.624,0.479,2.425,1.317,2.404l0.089-0.002c0.736-0.062,1.094-0.492,1.075-1.287c-0.004-0.171-0.025-0.36-0.064-0.567
			l3.023-0.121c0.059,2.407-1.322,3.66-4.143,3.76c-0.034,0.007-0.063,0.011-0.088,0.012c-2.687,0.065-4.066-1.421-4.14-4.459
			l-0.007-0.284C340.659,55.41,342.039,53.747,344.792,53.679z M343.244,57.48l2.873-0.07l-0.005-0.228
			c-0.028-1.15-0.479-1.714-1.351-1.692C343.819,55.514,343.314,56.176,343.244,57.48z"/>
		<path fill="#FFFFFF" d="M359.809,53.039c2.79,0.046,4.209,1.057,4.258,3.034l0.164,6.727l-2.96,0.11l-0.124-0.898
			c-0.597,0.533-1.4,0.812-2.409,0.836c-0.432,0.011-0.899-0.029-1.401-0.118c-1.507-0.241-2.278-1.088-2.313-2.541
			c-0.004-0.177,0.003-0.367,0.024-0.569c0.133-1.501,1.542-2.285,4.229-2.35c0.517-0.012,1.085,0.002,1.706,0.044l-0.027-1.099
			c-0.021-0.891-0.41-1.327-1.164-1.309l-0.051,0.001c-0.06-0.005-0.114-0.006-0.165-0.005c-0.822,0.02-1.221,0.529-1.196,1.526
			l0.003,0.143l-3.029-0.116c-0.054-2.204,1.343-3.341,4.19-3.41L359.809,53.039z M361.059,60.497l-0.041-1.667
			c-0.366-0.048-0.697-0.069-0.993-0.062c-0.771,0.019-1.292,0.225-1.562,0.617c-0.164,0.238-0.243,0.458-0.238,0.66
			c0.006,0.253,0.147,0.474,0.423,0.663c0.215,0.146,0.493,0.216,0.832,0.208C359.911,60.904,360.438,60.765,361.059,60.497z"/>
		<path fill="#FFFFFF" d="M373.559,62.553l-3.16,0.295c-0.017-2.092-0.049-4.104-0.096-6.037c-0.066-2.716-0.162-5.276-0.289-7.681
			l3.113-0.114c0.004,1.549,0.025,3.137,0.065,4.767C373.261,56.594,373.383,59.518,373.559,62.553z"/>
		<path fill="#FFFFFF" d="M379.331,52.563c2.79,0.046,4.209,1.057,4.258,3.034l0.164,6.727l-2.96,0.11l-0.124-0.898
			c-0.597,0.533-1.4,0.812-2.409,0.836c-0.432,0.011-0.899-0.029-1.402-0.118c-1.506-0.241-2.277-1.088-2.312-2.541
			c-0.004-0.177,0.004-0.366,0.024-0.569c0.133-1.501,1.542-2.284,4.229-2.35c0.517-0.013,1.085,0.002,1.705,0.043l-0.027-1.099
			c-0.022-0.891-0.41-1.327-1.164-1.309l-0.051,0.001c-0.06-0.005-0.115-0.007-0.166-0.005c-0.822,0.02-1.22,0.529-1.196,1.526
			l0.004,0.143l-3.03-0.116c-0.054-2.204,1.343-3.341,4.19-3.41L379.331,52.563z M380.58,60.021l-0.04-1.667
			c-0.366-0.048-0.697-0.069-0.994-0.062c-0.771,0.019-1.292,0.225-1.562,0.617c-0.164,0.238-0.243,0.458-0.238,0.66
			c0.006,0.253,0.147,0.474,0.423,0.663c0.216,0.147,0.493,0.216,0.832,0.208C379.433,60.428,379.959,60.289,380.58,60.021z"/>
		<path fill="#FFFFFF" d="M384.538,59.081l2.908-0.175l0.003,0.123c0.024,0.973,0.438,1.456,1.244,1.449l0.051-0.001
			c0.779-0.019,1.162-0.31,1.148-0.871l-0.001-0.066c-0.049-0.618-0.83-1.099-2.343-1.441c-1.513-0.342-2.433-0.958-2.76-1.848
			c-0.118-0.312-0.181-0.614-0.188-0.905c-0.013-0.53,0.157-1.027,0.51-1.492c0.542-0.708,1.38-1.126,2.513-1.255
			c0.304-0.033,0.601-0.053,0.889-0.06c0.754-0.018,1.421,0.063,2.002,0.246c0.794,0.252,1.351,0.627,1.668,1.125
			c0.212,0.343,0.323,0.726,0.333,1.148c0.005,0.202-0.011,0.411-0.048,0.627l-2.719,0.113c0.021-0.158,0.031-0.304,0.028-0.437
			c-0.016-0.631-0.295-0.963-0.838-0.994c-0.06-0.005-0.119-0.007-0.178-0.005c-0.56,0.014-0.932,0.235-1.116,0.662
			c-0.064,0.147-0.095,0.281-0.092,0.401c0.007,0.297,0.2,0.548,0.578,0.754c0.532,0.29,1.317,0.579,2.354,0.866
			c1.037,0.288,1.743,0.803,2.117,1.546c0.134,0.281,0.204,0.563,0.211,0.848c0.012,0.48-0.163,0.968-0.523,1.463
			c-0.574,0.792-1.482,1.265-2.725,1.422c-0.271,0.038-0.537,0.06-0.8,0.067c-0.932,0.022-1.801-0.137-2.606-0.478
			C385.13,61.478,384.59,60.534,384.538,59.081z"/>
	</g>
	<path fill="#A0C219" d="M118.466,92.526c0,6.435,0.045,12.467-0.03,18.409l-4.099,0.104l-23.111,0.56l-0.567-23.231l-0.157-6.196
		l-0.007-0.388l4.24-0.104c1.083,2.493,2.694,4.718,4.837,6.472c2.412,1.978,5.502,3.352,9.271,3.837
		c0.956,0.127,1.948,0.194,2.994,0.194C113.935,92.191,116.025,92.393,118.466,92.526z"/>
	<path fill="#951B81" d="M122.542,110.838c0.052-4.188,0.045-8.406,0.037-12.803c-0.007-1.807-0.007-3.643-0.007-5.509v-3.881
		l-3.882-0.216c-0.754-0.045-1.478-0.09-2.172-0.142c-1.598-0.104-3.106-0.209-4.68-0.209c-0.836,0-1.643-0.052-2.471-0.157
		c-0.022,0-0.038-0.007-0.06-0.007c-4.054-0.53-7.197-2.322-9.354-5.308c-0.239-0.335-0.463-0.679-0.672-1.037l272.078-6.629
		l62.823-2.509l0.724,29.815L122.542,110.838z"/>
	<g>
		<g>
			<path fill="#FFFFFF" d="M137.382,102.682c-1.157-3.631-2.19-6.747-3.102-9.348l3.085-0.198l1.731,6.849
				c0.75-2.596,1.342-4.961,1.773-7.096l3.044,0.21c-0.893,2.669-1.931,5.823-3.114,9.46L137.382,102.682z"/>
			<path fill="#FFFFFF" d="M147.888,90.756c0.009,0.386-0.165,0.719-0.522,0.999c-0.358,0.28-0.795,0.427-1.312,0.44
				c-0.508,0.012-0.948-0.113-1.319-0.376c-0.371-0.262-0.561-0.586-0.57-0.972c-0.009-0.379,0.165-0.708,0.522-0.989
				s0.791-0.427,1.299-0.439c0.517-0.013,0.961,0.112,1.332,0.375C147.689,90.057,147.879,90.377,147.888,90.756z M144.773,102.796
				c-0.149-3.694-0.257-6.886-0.322-9.577L147.65,93c-0.039,2.579-0.027,5.142,0.035,7.688c0.017,0.682,0.038,1.361,0.062,2.037
				L144.773,102.796z"/>
			<path fill="#FFFFFF" d="M153.114,92.81c2.881-0.07,4.357,1.385,4.43,4.366c0.003,0.12,0.001,0.24-0.004,0.36
				c-0.04,3.23-1.534,4.897-4.482,5c-0.034,0.007-0.067,0.012-0.102,0.012c-2.805,0.068-4.244-1.423-4.318-4.474l-0.006-0.265
				C148.638,94.549,150.132,92.882,153.114,92.81z M152.748,94.98c-0.531,0.152-0.882,0.675-1.056,1.57
				c-0.106,0.534-0.152,1.069-0.139,1.606c0.009,0.36,0.043,0.723,0.103,1.088c0.158,0.906,0.605,1.366,1.344,1.38l0.089-0.002
				c0.686-0.017,1.148-0.366,1.386-1.048c0.198-0.567,0.288-1.236,0.269-2.007c-0.005-0.189-0.014-0.382-0.027-0.577
				c-0.093-1.016-0.312-1.646-0.657-1.89c-0.215-0.146-0.471-0.215-0.768-0.208C153.123,94.895,152.941,94.924,152.748,94.98z"/>
			<path fill="#FFFFFF" d="M161.939,102.169l-3.159,0.295c-0.017-2.092-0.049-4.104-0.096-6.037
				c-0.066-2.715-0.163-5.275-0.289-7.681l3.113-0.114c0.003,1.549,0.025,3.138,0.065,4.767
				C161.641,96.21,161.763,99.134,161.939,102.169z"/>
			<path fill="#FFFFFF" d="M167.711,92.179c2.791,0.046,4.21,1.057,4.258,3.034l0.164,6.727l-2.961,0.11l-0.123-0.898
				c-0.598,0.533-1.4,0.812-2.409,0.836c-0.432,0.011-0.899-0.029-1.402-0.118c-1.506-0.241-2.277-1.088-2.313-2.541
				c-0.004-0.177,0.004-0.366,0.024-0.569c0.133-1.501,1.542-2.285,4.229-2.35c0.517-0.013,1.085,0.002,1.705,0.043l-0.027-1.099
				c-0.021-0.891-0.41-1.327-1.164-1.309l-0.051,0.001c-0.06-0.005-0.115-0.006-0.166-0.005c-0.822,0.02-1.221,0.529-1.196,1.527
				l0.003,0.143l-3.03-0.116c-0.054-2.204,1.343-3.341,4.19-3.411L167.711,92.179z M168.961,99.638l-0.041-1.667
				c-0.366-0.048-0.697-0.068-0.994-0.062c-0.771,0.019-1.292,0.225-1.562,0.617c-0.164,0.238-0.243,0.458-0.238,0.66
				c0.006,0.252,0.147,0.473,0.423,0.662c0.215,0.147,0.493,0.216,0.832,0.208C167.813,100.045,168.34,99.905,168.961,99.638z"/>
			<path fill="#FFFFFF" d="M178.256,98.027l3.028,0.068c0.056,2.28-1.327,3.47-4.147,3.571c-0.034,0.007-0.063,0.011-0.089,0.011
				c-2.686,0.065-4.066-1.421-4.14-4.458l-0.007-0.285c0.005-3.261,1.397-4.941,4.176-5.041l0.102-0.002
				c2.559-0.062,3.865,0.999,3.918,3.185c0.003,0.126,0.002,0.253-0.003,0.379l-2.729,0.218l-0.005-0.228
				c-0.028-1.15-0.479-1.714-1.351-1.692c-0.89,0.021-1.312,0.964-1.267,2.827l0.008,0.313c0.1,2.014,0.573,3.01,1.421,2.989
				l0.076-0.002c0.736-0.062,1.094-0.491,1.075-1.287C178.316,98.424,178.295,98.235,178.256,98.027z"/>
			<path fill="#FFFFFF" d="M185.699,89.835c0.01,0.386-0.165,0.719-0.522,0.999c-0.357,0.28-0.795,0.427-1.312,0.44
				c-0.509,0.012-0.948-0.113-1.319-0.376c-0.371-0.262-0.561-0.586-0.57-0.972c-0.009-0.379,0.165-0.708,0.522-0.989
				c0.358-0.28,0.791-0.427,1.299-0.439c0.517-0.013,0.961,0.112,1.332,0.375C185.5,89.136,185.69,89.457,185.699,89.835z
				 M182.584,101.875c-0.149-3.694-0.257-6.886-0.322-9.576l3.199-0.22c-0.039,2.579-0.027,5.142,0.035,7.688
				c0.017,0.682,0.038,1.361,0.062,2.037L182.584,101.875z"/>
			<path fill="#FFFFFF" d="M190.925,91.889c2.881-0.07,4.358,1.385,4.43,4.367c0.003,0.12,0.001,0.24-0.004,0.36
				c-0.04,3.23-1.534,4.897-4.481,5c-0.034,0.007-0.068,0.011-0.102,0.012c-2.805,0.068-4.244-1.423-4.318-4.474l-0.007-0.265
				C186.449,93.628,187.943,91.961,190.925,91.889z M190.559,94.059c-0.53,0.152-0.882,0.676-1.056,1.571
				c-0.105,0.534-0.152,1.069-0.139,1.606c0.009,0.36,0.043,0.723,0.103,1.088c0.158,0.906,0.606,1.366,1.344,1.38l0.089-0.002
				c0.687-0.017,1.148-0.366,1.386-1.048c0.198-0.567,0.288-1.236,0.269-2.007c-0.005-0.189-0.014-0.382-0.027-0.577
				c-0.093-1.016-0.312-1.646-0.657-1.89c-0.215-0.146-0.471-0.216-0.768-0.208C190.934,93.974,190.752,94.003,190.559,94.059z"/>
			<path fill="#FFFFFF" d="M198.278,91.463l0.165,1.542c0.336-0.83,1.262-1.269,2.778-1.319l0.051-0.001
				c1.492-0.036,2.519,0.374,3.083,1.233c0.387,0.584,0.607,1.97,0.661,4.155c0.026,1.074,0.01,2.345-0.047,3.812l-3.076,0.075
				c0.062-1.955,0.081-3.468,0.055-4.542c-0.013-0.537-0.037-0.966-0.07-1.288c-0.108-0.945-0.526-1.409-1.254-1.392
				c-0.729,0.018-1.181,0.281-1.354,0.792l0.294,6.866l-2.986,0.092c-0.071-2.906-0.282-6.165-0.632-9.777L198.278,91.463z"/>
			<path fill="#FFFFFF" d="M210.066,91.423c2.94-0.072,4.446,1.348,4.517,4.26c0.008,0.354-0.004,0.733-0.036,1.138l-5.681,0.138
				c0.04,1.624,0.479,2.425,1.317,2.404l0.089-0.002c0.736-0.062,1.095-0.491,1.075-1.287c-0.004-0.171-0.026-0.36-0.064-0.568
				l3.023-0.121c0.059,2.406-1.322,3.66-4.143,3.76c-0.034,0.007-0.063,0.011-0.089,0.012c-2.686,0.065-4.066-1.421-4.14-4.459
				l-0.007-0.284C205.933,93.154,207.312,91.49,210.066,91.423z M208.518,95.223l2.873-0.07l-0.006-0.227
				c-0.028-1.15-0.479-1.713-1.351-1.692C209.093,93.257,208.588,93.919,208.518,95.223z"/>
			<path fill="#FFFFFF" d="M215.432,97.662l2.908-0.175l0.003,0.123c0.024,0.973,0.438,1.455,1.244,1.448l0.051-0.001
				c0.78-0.019,1.163-0.31,1.149-0.872l-0.002-0.066c-0.049-0.618-0.83-1.099-2.343-1.44c-1.514-0.342-2.434-0.958-2.76-1.848
				c-0.118-0.312-0.18-0.614-0.188-0.905c-0.013-0.531,0.157-1.027,0.511-1.491c0.542-0.708,1.379-1.126,2.513-1.255
				c0.304-0.033,0.601-0.053,0.889-0.06c0.754-0.019,1.421,0.063,2.002,0.245c0.795,0.252,1.351,0.627,1.668,1.125
				c0.212,0.343,0.323,0.725,0.333,1.148c0.005,0.202-0.011,0.411-0.048,0.627l-2.719,0.114c0.021-0.158,0.031-0.304,0.027-0.437
				c-0.016-0.631-0.295-0.962-0.838-0.993c-0.06-0.005-0.119-0.007-0.178-0.005c-0.559,0.013-0.931,0.234-1.116,0.662
				c-0.064,0.146-0.095,0.28-0.092,0.4c0.007,0.297,0.199,0.548,0.578,0.753c0.533,0.291,1.318,0.58,2.355,0.867
				s1.743,0.803,2.117,1.546c0.134,0.281,0.205,0.564,0.211,0.848c0.012,0.48-0.163,0.968-0.524,1.464
				c-0.574,0.791-1.482,1.265-2.725,1.422c-0.271,0.038-0.537,0.061-0.8,0.067c-0.932,0.023-1.801-0.136-2.605-0.478
				C216.024,100.059,215.484,99.115,215.432,97.662z"/>
			<path fill="#FFFFFF" d="M234.106,90.562c2.791,0.046,4.209,1.057,4.258,3.034l0.164,6.727l-2.96,0.11l-0.124-0.898
				c-0.598,0.533-1.4,0.812-2.409,0.836c-0.432,0.011-0.899-0.029-1.402-0.118c-1.506-0.241-2.277-1.088-2.313-2.541
				c-0.004-0.177,0.004-0.366,0.024-0.569c0.133-1.501,1.542-2.284,4.229-2.35c0.517-0.013,1.085,0.002,1.705,0.043l-0.026-1.099
				c-0.022-0.891-0.41-1.327-1.164-1.309l-0.051,0.001c-0.06-0.005-0.115-0.006-0.166-0.005c-0.822,0.02-1.221,0.529-1.196,1.527
				l0.003,0.143l-3.029-0.117c-0.054-2.204,1.343-3.341,4.189-3.41L234.106,90.562z M235.356,98.021l-0.041-1.667
				c-0.366-0.048-0.697-0.068-0.994-0.062c-0.771,0.019-1.292,0.225-1.562,0.617c-0.164,0.238-0.243,0.458-0.238,0.66
				c0.006,0.252,0.147,0.473,0.423,0.662c0.215,0.147,0.493,0.216,0.832,0.208C234.208,98.428,234.735,98.288,235.356,98.021z"/>
			<path fill="#FFFFFF" d="M247.856,100.077l-3.159,0.295c-0.017-2.092-0.049-4.104-0.096-6.037
				c-0.066-2.715-0.163-5.276-0.289-7.681l3.113-0.114c0.003,1.549,0.025,3.138,0.065,4.767
				C247.559,94.118,247.681,97.041,247.856,100.077z"/>
			<path fill="#FFFFFF" d="M253.19,90.372c2.88-0.07,4.357,1.385,4.43,4.367c0.003,0.12,0.001,0.24-0.004,0.36
				c-0.04,3.23-1.534,4.897-4.482,5c-0.034,0.007-0.068,0.011-0.102,0.012c-2.804,0.068-4.244-1.423-4.318-4.474l-0.006-0.265
				C248.713,92.112,250.207,90.445,253.19,90.372z M252.823,92.542c-0.531,0.152-0.882,0.676-1.056,1.571
				c-0.105,0.534-0.152,1.069-0.139,1.606c0.009,0.36,0.043,0.723,0.103,1.088c0.158,0.906,0.605,1.366,1.344,1.38l0.089-0.002
				c0.686-0.017,1.148-0.366,1.386-1.048c0.198-0.567,0.288-1.236,0.27-2.007c-0.005-0.189-0.014-0.382-0.027-0.577
				c-0.093-1.016-0.312-1.646-0.657-1.89c-0.215-0.146-0.472-0.216-0.768-0.208C253.198,92.458,253.017,92.487,252.823,92.542z"/>
			<path fill="#FFFFFF" d="M258.213,96.62l2.908-0.175l0.003,0.123c0.024,0.973,0.438,1.456,1.244,1.449l0.051-0.001
				c0.779-0.019,1.162-0.31,1.148-0.872l-0.001-0.066c-0.049-0.618-0.83-1.099-2.343-1.441c-1.513-0.342-2.433-0.958-2.76-1.848
				c-0.118-0.312-0.181-0.614-0.188-0.905c-0.013-0.531,0.157-1.027,0.511-1.491c0.542-0.708,1.379-1.126,2.513-1.255
				c0.304-0.033,0.601-0.053,0.889-0.06c0.754-0.019,1.421,0.063,2.002,0.245c0.794,0.252,1.351,0.627,1.668,1.125
				c0.212,0.343,0.323,0.725,0.333,1.148c0.005,0.202-0.012,0.411-0.049,0.627l-2.719,0.114c0.022-0.158,0.031-0.304,0.028-0.437
				c-0.015-0.631-0.295-0.962-0.838-0.993c-0.06-0.005-0.119-0.007-0.178-0.006c-0.56,0.014-0.932,0.234-1.116,0.663
				c-0.064,0.146-0.095,0.28-0.092,0.4c0.007,0.297,0.2,0.548,0.578,0.753c0.532,0.291,1.317,0.58,2.354,0.867
				s1.743,0.803,2.117,1.546c0.134,0.281,0.204,0.564,0.211,0.848c0.012,0.48-0.163,0.968-0.523,1.463
				c-0.574,0.792-1.482,1.266-2.725,1.422c-0.271,0.038-0.537,0.061-0.799,0.067c-0.933,0.022-1.801-0.136-2.606-0.478
				C258.805,99.017,258.265,98.073,258.213,96.62z"/>
			<path fill="#FFFFFF" d="M281.494,86.004c0.001,2.137,0.03,4.375,0.087,6.719c0.052,2.135,0.127,4.357,0.226,6.668l-3.012,0.083
				l-0.137-1.447c-0.61,0.716-1.436,1.087-2.479,1.112c-2.601,0.063-3.938-1.389-4.01-4.357c-0.001-0.063,0.001-0.127,0.008-0.19
				c-0.021-2.977,1.23-4.495,3.755-4.557c0.102-0.002,0.208-0.001,0.318,0.001c0.865,0.017,1.572,0.35,2.123,1.001
				c-0.034-1.402-0.121-3.053-0.261-4.952L281.494,86.004z M278.56,96.087l-0.144-3.277c-0.503-0.487-1.014-0.725-1.531-0.712
				c-0.212,0.005-0.423,0.051-0.632,0.139c-0.663,0.275-0.98,1.01-0.951,2.204c0.003,0.139,0.011,0.281,0.023,0.426
				c0.12,1.444,0.571,2.198,1.353,2.261c0.076,0.004,0.153,0.005,0.229,0.003C277.584,97.115,278.136,96.767,278.56,96.087z"/>
			<path fill="#FFFFFF" d="M286.718,89.556c2.94-0.072,4.446,1.348,4.517,4.26c0.009,0.354-0.003,0.733-0.036,1.138l-5.681,0.139
				c0.04,1.624,0.479,2.425,1.317,2.404l0.089-0.002c0.736-0.062,1.095-0.491,1.075-1.287c-0.004-0.171-0.026-0.36-0.064-0.567
				l3.023-0.121c0.059,2.406-1.322,3.66-4.143,3.76c-0.034,0.007-0.063,0.011-0.089,0.012c-2.686,0.065-4.066-1.421-4.14-4.459
				l-0.007-0.284C282.584,91.287,283.964,89.623,286.718,89.556z M285.17,93.356l2.872-0.07l-0.005-0.227
				c-0.028-1.15-0.478-1.713-1.351-1.692C285.745,91.39,285.24,92.053,285.17,93.356z"/>
			<path fill="#FFFFFF" d="M295.534,92.279l0.294,6.866l-3.113,0.095c-0.071-2.906-0.282-6.166-0.633-9.778l2.334-0.246l0.165,1.541
				c0.337-0.767,1.157-1.219,2.459-1.358c0.194-0.018,0.381-0.028,0.559-0.033c1.025-0.025,1.811,0.205,2.357,0.691
				c0.633,0.579,0.969,1.515,1.01,2.81l-2.817,0.277c0.006-0.107,0.008-0.211,0.005-0.312c-0.025-1.01-0.389-1.508-1.092-1.491
				l-0.051,0.001C296.199,91.394,295.706,91.706,295.534,92.279z"/>
			<path fill="#FFFFFF" d="M305.858,89.089c2.94-0.071,4.446,1.348,4.517,4.26c0.009,0.354-0.003,0.733-0.036,1.138l-5.681,0.139
				c0.04,1.624,0.479,2.425,1.317,2.404l0.089-0.002c0.736-0.062,1.095-0.492,1.075-1.287c-0.004-0.171-0.026-0.36-0.064-0.567
				l3.023-0.121c0.059,2.406-1.322,3.66-4.143,3.76c-0.034,0.007-0.063,0.011-0.089,0.012c-2.686,0.065-4.066-1.421-4.14-4.459
				l-0.007-0.284C301.725,90.82,303.104,89.157,305.858,89.089z M304.311,92.89l2.873-0.07l-0.005-0.227
				c-0.028-1.15-0.479-1.714-1.352-1.692C304.886,90.924,304.381,91.586,304.311,92.89z"/>
			<path fill="#FFFFFF" d="M316.562,94.658l3.029,0.068c0.055,2.28-1.327,3.471-4.148,3.571c-0.033,0.007-0.063,0.011-0.088,0.011
				c-2.686,0.065-4.066-1.421-4.14-4.458l-0.007-0.285c0.005-3.261,1.397-4.941,4.176-5.041l0.102-0.002
				c2.559-0.062,3.865,0.999,3.918,3.185c0.003,0.126,0.002,0.252-0.003,0.379l-2.729,0.218l-0.005-0.228
				c-0.028-1.15-0.479-1.714-1.351-1.693c-0.89,0.022-1.312,0.964-1.267,2.828l0.008,0.313c0.1,2.013,0.573,3.01,1.421,2.989
				l0.076-0.002c0.736-0.062,1.095-0.491,1.075-1.287C316.623,95.055,316.601,94.866,316.562,94.658z"/>
			<path fill="#FFFFFF" d="M323.431,84.812l0.257,5.332c0.336-0.83,1.156-1.267,2.46-1.312l0.038-0.001
				c1.288-0.031,2.213,0.382,2.777,1.24c0.387,0.585,0.607,1.97,0.661,4.155c0.026,1.074,0.01,2.345-0.047,3.812l-3.203,0.078
				c0.062-1.955,0.081-3.468,0.055-4.542c-0.013-0.537-0.036-0.966-0.069-1.288c-0.108-0.945-0.484-1.41-1.128-1.395
				c-0.644,0.016-1.053,0.278-1.227,0.789l0.294,6.866l-3.113,0.095c-0.071-2.906-0.355-7.459-0.854-13.659L323.431,84.812z"/>
			<path fill="#FFFFFF" d="M335.027,88.379c2.881-0.07,4.357,1.385,4.43,4.367c0.003,0.12,0.001,0.24-0.004,0.36
				c-0.041,3.23-1.534,4.898-4.482,5.001c-0.034,0.007-0.067,0.011-0.102,0.012c-2.805,0.068-4.244-1.423-4.318-4.474l-0.006-0.265
				C330.551,90.118,332.044,88.452,335.027,88.379z M334.66,90.549c-0.53,0.152-0.882,0.676-1.055,1.571
				c-0.106,0.534-0.152,1.069-0.139,1.605c0.009,0.36,0.043,0.723,0.103,1.088c0.158,0.906,0.605,1.366,1.343,1.379l0.089-0.002
				c0.687-0.017,1.148-0.367,1.386-1.048c0.198-0.567,0.288-1.236,0.269-2.007c-0.004-0.189-0.014-0.382-0.026-0.578
				c-0.093-1.015-0.312-1.645-0.657-1.89c-0.215-0.146-0.472-0.216-0.768-0.208C335.035,90.464,334.854,90.493,334.66,90.549z"/>
			<path fill="#FFFFFF" d="M340.05,94.626l2.908-0.175l0.003,0.123c0.024,0.973,0.438,1.456,1.244,1.449l0.051-0.001
				c0.779-0.019,1.163-0.31,1.149-0.872l-0.002-0.066c-0.049-0.618-0.83-1.099-2.343-1.441c-1.513-0.342-2.433-0.958-2.76-1.848
				c-0.118-0.312-0.18-0.614-0.188-0.905c-0.013-0.531,0.157-1.027,0.511-1.492c0.542-0.708,1.38-1.126,2.513-1.255
				c0.305-0.033,0.601-0.053,0.889-0.06c0.754-0.018,1.421,0.063,2.002,0.246c0.794,0.251,1.351,0.627,1.668,1.125
				c0.212,0.343,0.323,0.725,0.333,1.148c0.005,0.202-0.011,0.411-0.048,0.627l-2.719,0.114c0.022-0.159,0.031-0.304,0.028-0.437
				c-0.016-0.631-0.295-0.963-0.838-0.994c-0.06-0.005-0.119-0.007-0.178-0.005c-0.559,0.014-0.931,0.234-1.115,0.663
				c-0.064,0.146-0.095,0.28-0.092,0.4c0.007,0.297,0.2,0.548,0.578,0.753c0.533,0.291,1.318,0.58,2.355,0.867
				c1.037,0.288,1.743,0.803,2.117,1.546c0.134,0.281,0.205,0.563,0.211,0.847c0.012,0.48-0.163,0.969-0.524,1.464
				c-0.574,0.792-1.482,1.266-2.725,1.422c-0.271,0.038-0.537,0.061-0.8,0.067c-0.932,0.022-1.801-0.137-2.606-0.478
				C340.643,97.023,340.103,96.079,340.05,94.626z"/>
			<path fill="#FFFFFF" d="M356.743,84L357,89.332c0.336-0.83,1.156-1.267,2.461-1.311l0.038-0.001
				c1.288-0.032,2.213,0.382,2.777,1.24c0.387,0.584,0.607,1.97,0.661,4.155c0.026,1.074,0.01,2.345-0.047,3.812l-3.203,0.078
				c0.062-1.955,0.081-3.469,0.055-4.542c-0.013-0.537-0.036-0.966-0.069-1.288c-0.108-0.945-0.484-1.41-1.128-1.394
				s-1.053,0.278-1.227,0.788l0.294,6.866l-3.113,0.095c-0.071-2.906-0.355-7.458-0.854-13.659L356.743,84z"/>
			<path fill="#FFFFFF" d="M370.699,97.246l-0.165-1.542c-0.336,0.83-1.284,1.267-2.842,1.311c-0.017,0.007-0.03,0.011-0.038,0.011
				c-1.542,0.038-2.576-0.456-3.101-1.479c-0.355-0.68-0.56-2.101-0.612-4.261c-0.027-1.111-0.013-2.423,0.044-3.935l3.089-0.075
				c-0.118,2.126-0.163,3.761-0.135,4.904c0.014,0.575,0.046,1.022,0.096,1.344c0.151,0.982,0.591,1.464,1.32,1.447
				c0.729-0.018,1.18-0.285,1.354-0.801l-0.287-6.572l2.986-0.092c0.066,2.716,0.274,5.877,0.625,9.483L370.699,97.246z"/>
			<path fill="#FFFFFF" d="M375.896,87.184l0.088,1.515c0.439-0.737,0.958-1.202,1.556-1.394c0.354-0.109,0.712-0.169,1.077-0.178
				c0.271-0.007,0.542,0.012,0.815,0.056c0.664,0.11,1.146,0.604,1.448,1.481c0.204-0.694,0.574-1.162,1.11-1.407
				c0.537-0.244,1.135-0.377,1.796-0.399l0.051-0.001c0.644-0.016,1.265,0.086,1.864,0.305c0.607,0.226,1.078,0.664,1.412,1.317
				c0.334,0.652,0.523,1.553,0.568,2.702l0.134,5.504l-2.744,0.114c0.06-2.08,0.072-3.851,0.036-5.31s-0.428-2.236-1.176-2.332
				c-0.111-0.01-0.217-0.014-0.318-0.011c-0.593,0.014-1.044,0.31-1.352,0.886c-0.035,0.658-0.042,1.426-0.02,2.304
				c0.029,1.194,0.109,2.585,0.242,4.174l-3.177,0.097c0.059-2.447,0.075-4.229,0.048-5.348l-0.002-0.113
				c-0.036-1.105-0.342-1.679-0.919-1.722l-0.166,0.004c-0.517,0.013-1.011,0.246-1.483,0.7l0.194,6.934l-2.998,0.159l-0.038-1.554
				c-0.067-2.754-0.189-5.503-0.366-8.248L375.896,87.184z"/>
			<path fill="#FFFFFF" d="M393.256,86.686c2.791,0.046,4.21,1.057,4.258,3.034l0.164,6.727l-2.96,0.11l-0.124-0.898
				c-0.598,0.533-1.4,0.812-2.409,0.836c-0.432,0.011-0.899-0.029-1.402-0.118c-1.506-0.241-2.277-1.088-2.312-2.541
				c-0.004-0.177,0.003-0.366,0.024-0.569c0.133-1.501,1.542-2.284,4.228-2.35c0.517-0.013,1.085,0.002,1.705,0.043l-0.027-1.099
				c-0.021-0.891-0.409-1.327-1.164-1.309l-0.051,0.001c-0.06-0.005-0.115-0.006-0.166-0.005c-0.822,0.02-1.221,0.529-1.196,1.527
				l0.003,0.143l-3.029-0.117c-0.054-2.204,1.343-3.341,4.19-3.41L393.256,86.686z M394.506,94.144l-0.041-1.667
				c-0.366-0.048-0.697-0.068-0.994-0.062c-0.771,0.019-1.292,0.225-1.562,0.617c-0.164,0.238-0.243,0.458-0.238,0.66
				c0.006,0.252,0.147,0.473,0.423,0.662c0.215,0.147,0.493,0.216,0.832,0.208C393.358,94.551,393.885,94.412,394.506,94.144z"/>
			<path fill="#FFFFFF" d="M400.793,86.53l0.165,1.542c0.336-0.83,1.262-1.27,2.778-1.319l0.051-0.001
				c1.492-0.036,2.519,0.374,3.083,1.233c0.387,0.584,0.607,1.97,0.661,4.155c0.026,1.074,0.011,2.345-0.047,3.812l-3.076,0.075
				c0.062-1.955,0.081-3.469,0.055-4.542c-0.013-0.537-0.036-0.966-0.07-1.287c-0.107-0.946-0.526-1.409-1.254-1.392
				c-0.729,0.018-1.18,0.281-1.354,0.792l0.294,6.866l-2.986,0.092c-0.07-2.906-0.281-6.165-0.632-9.777L400.793,86.53z"/>
			<path fill="#FFFFFF" d="M412.924,86.481c2.881-0.07,4.358,1.385,4.43,4.367c0.003,0.12,0.001,0.24-0.004,0.36
				c-0.04,3.23-1.534,4.898-4.481,5.001c-0.034,0.007-0.068,0.011-0.102,0.012c-2.805,0.068-4.244-1.423-4.318-4.474l-0.007-0.265
				C408.448,88.221,409.942,86.554,412.924,86.481z M412.558,88.651c-0.53,0.152-0.882,0.676-1.055,1.571
				c-0.106,0.534-0.152,1.069-0.139,1.606c0.009,0.36,0.043,0.722,0.103,1.088c0.158,0.906,0.605,1.366,1.344,1.38l0.089-0.002
				c0.687-0.017,1.148-0.367,1.386-1.048c0.198-0.567,0.288-1.236,0.269-2.007c-0.005-0.189-0.014-0.382-0.027-0.577
				c-0.093-1.016-0.312-1.646-0.656-1.89c-0.216-0.146-0.472-0.216-0.768-0.208C412.933,88.566,412.751,88.596,412.558,88.651z"/>
			<path fill="#FFFFFF" d="M417.947,92.729l2.908-0.175l0.003,0.123c0.023,0.973,0.438,1.456,1.243,1.449l0.051-0.001
				c0.779-0.019,1.163-0.31,1.149-0.872l-0.002-0.066c-0.049-0.618-0.83-1.099-2.343-1.441c-1.513-0.342-2.433-0.958-2.76-1.848
				c-0.118-0.312-0.18-0.614-0.188-0.905c-0.013-0.531,0.157-1.027,0.511-1.491c0.542-0.708,1.38-1.127,2.513-1.255
				c0.305-0.033,0.601-0.053,0.889-0.06c0.754-0.018,1.422,0.064,2.003,0.246c0.794,0.252,1.351,0.627,1.668,1.125
				c0.211,0.343,0.323,0.725,0.333,1.148c0.005,0.202-0.011,0.411-0.048,0.627l-2.719,0.114c0.021-0.159,0.031-0.304,0.028-0.437
				c-0.016-0.631-0.295-0.963-0.838-0.994c-0.06-0.005-0.119-0.007-0.178-0.005c-0.559,0.014-0.931,0.234-1.115,0.663
				c-0.065,0.146-0.095,0.28-0.092,0.4c0.007,0.297,0.2,0.548,0.578,0.753c0.533,0.291,1.318,0.58,2.355,0.867
				s1.743,0.803,2.117,1.546c0.134,0.281,0.205,0.563,0.212,0.847c0.012,0.48-0.163,0.969-0.524,1.464
				c-0.574,0.792-1.482,1.266-2.725,1.422c-0.271,0.038-0.537,0.061-0.8,0.067c-0.932,0.022-1.801-0.137-2.606-0.478
				C418.54,95.126,418,94.182,417.947,92.729z"/>
		</g>
	</g>
	<path fill-rule="evenodd" clip-rule="evenodd" fill="#331842" d="M118.365,30.055c-0.025-0.074-0.05-0.142-0.074-0.21
		c-0.135-0.326-0.308-0.591-0.518-0.826c0,0-0.012-0.005-0.018-0.018c-0.665-0.696-1.725-1.01-3.29-0.979
		c-7.239,0.129-14.477,0.037-21.721,0.024c-0.443,0-0.869-0.006-1.256-0.024h-0.006c-4.22-0.166-4.565-1.244-2.914-5.846
		c3.29-9.179-1.436-18.721-10.583-21.401c-1.318-0.388-2.624-0.622-3.911-0.721c-2.582-0.197-5.064,0.154-7.332,0.949
		c-7.54,2.649-12.671,10.201-10.829,18.746c1.799,8.335,1.799,8.316-7.146,8.273c-6.573-0.031-13.14-0.006-19.479-0.006V55.62
		c-0.53,2.674-2.224,3.105-5.816,1.867c-8.803-3.031-17.636,0.129-21.573,7.707c-3.209,6.179-2.279,14.07,2.268,19.27
		c4.423,5.058,12.302,6.992,18.862,4.62c3.881-1.404,5.55-1.367,6.179,0.979c-0.006,0-0.012-0.006-0.019-0.006v27.518
		c0.493,0.08,0.973,0.228,1.454,0.228h0.295c7.386,0.049,14.784,0.031,22.171,0.135c1.189,0.019,2.07,0.129,2.698,0.382
		c1.509,0.598,1.54,1.996,0.893,4.744c-0.794,3.413-1.521,7.25-0.751,10.54c1.959,8.372,9.666,13.183,18.086,12.37
		c1.43-0.136,2.883-0.438,4.337-0.912c9.136-2.982,13.239-12.247,9.66-21.814c-1.492-4.01-0.888-4.928,3.406-4.928
		c0.53,0,1.017-0.154,1.466-0.407c1.411,0,2.803,0,4.189,0.006h3.295c0.85,0.006,1.694,0.006,2.532,0h0.924
		c0.702,0,1.404,0,2.106-0.006c0.364,0,0.728,0,1.091-0.006c0.671,0,1.337-0.006,2.008-0.013c0.363,0,0.733,0,1.097-0.006
		c0.702-0.006,1.404-0.012,2.1-0.024c0.321-0.006,0.647-0.006,0.967-0.013c0.684-0.006,1.367-0.019,2.051-0.037
		c0.333,0,0.66-0.013,0.992-0.019c0.746-0.013,2.082-1.664,2.107-2.569c0.172-7.349,0.098-14.71,0.098-22.701
		c-2.439-0.135-4.528-0.339-6.628-0.344c-1.041,0-2.033-0.068-2.988-0.191c-12.388-1.583-17.39-12.826-15.357-23.144
		c1.571-7.99,8.42-14.169,16.134-14.995c1.491-0.16,3.012-0.117,4.534,0.148c2.686,0.462,4.257-0.099,4.423-2.858v-1.152
		c-0.012-5.914-0.012-11.822,0.074-17.736C118.673,31.379,118.581,30.646,118.365,30.055z"/>
	<g>
		<g>
			<path fill="#FFFFFF" d="M36.556,95.561h11.652c3.59,0,5.384,2.202,5.384,6.606v0.348c-0.314,3.688-1.818,5.595-4.512,5.721
				c-5.38,0-9.622,0.074-12.724,0.221v-4.204c1.775,0.105,3.86,0.158,6.256,0.158c1.681,0,3.519-0.026,5.514-0.079
				c1.461-0.021,2.191-0.727,2.191-2.118c0.008,0,0.012-0.005,0.012-0.016c0-1.38-0.935-2.07-2.804-2.07l-10.863,0.079
				L36.556,95.561z"/>
			<path fill="#FFFFFF" d="M41.422,91.261l1.92-0.158c-1.021-0.443-1.539-1.607-1.555-3.493v-0.063c0-1.854,0.542-3.119,1.626-3.793
				c0.738-0.464,2.466-0.696,5.184-0.696c1.335,0,2.914,0.058,4.736,0.174v3.825c-2.427-0.137-4.308-0.206-5.643-0.206
				c-0.667,0-1.202,0.016-1.603,0.047c-1.178,0.105-1.767,0.611-1.767,1.517c0,0.906,0.314,1.476,0.942,1.707l8.542-0.158
				l0.023,3.714c-3.613,0-7.67,0.164-12.17,0.49L41.422,91.261z"/>
			<path fill="#FFFFFF" d="M39.019,77.322c0.479,0,0.888,0.227,1.226,0.68c0.337,0.453,0.506,1.001,0.506,1.644
				c0,0.632-0.169,1.175-0.506,1.628c-0.338,0.453-0.746,0.68-1.226,0.68c-0.471,0-0.875-0.227-1.213-0.68
				c-0.337-0.453-0.506-0.996-0.506-1.628c0-0.643,0.169-1.19,0.506-1.644C38.143,77.548,38.547,77.322,39.019,77.322z
				 M53.887,81.558c-4.595,0.074-8.565,0.11-11.911,0.11l-0.177-3.982c3.205,0.126,6.39,0.189,9.555,0.189
				c0.848,0,1.692-0.005,2.533-0.016V81.558z"/>
			<path fill="#FFFFFF" d="M37.157,64.504c2.655,0.063,5.439,0.095,8.353,0.095c2.655,0,5.419-0.026,8.294-0.079l0.012,3.746
				l-1.803,0.126c0.872,0.78,1.308,1.818,1.308,3.114c0,3.235-1.846,4.852-5.537,4.852c-0.079,0-0.157-0.005-0.236-0.016
				C43.849,76.278,42,74.677,42,71.537c0-0.126,0.004-0.258,0.012-0.396c0.047-1.075,0.483-1.944,1.308-2.607
				c-1.744,0-3.797,0.058-6.162,0.174V64.504z M49.599,68.455l-4.077,0.079c-0.62,0.611-0.931,1.238-0.931,1.881
				c0,0.263,0.051,0.527,0.153,0.79c0.322,0.833,1.225,1.249,2.709,1.249c0.173,0,0.35-0.005,0.53-0.016
				c1.799-0.105,2.749-0.643,2.851-1.612c0.008-0.095,0.012-0.189,0.012-0.284C50.847,69.698,50.431,69.003,49.599,68.455z"/>
			<path fill="#FFFFFF" d="M41.387,57.139c0.142-3.467,1.441-5.2,3.899-5.2h8.365l0.047,3.682l-1.119,0.126
				c0.644,0.759,0.966,1.765,0.966,3.019c0,0.537-0.063,1.117-0.189,1.738c-0.345,1.865-1.421,2.797-3.228,2.797
				c-0.22,0-0.455-0.016-0.707-0.047c-1.862-0.21-2.792-1.986-2.792-5.326c0-0.643,0.036-1.349,0.106-2.118h-1.366
				c-1.108,0-1.662,0.469-1.662,1.407v0.063c-0.007,0.074-0.012,0.142-0.012,0.206c0,1.022,0.621,1.533,1.862,1.533h0.176
				l-0.235,3.761c-2.741,0-4.112-1.77-4.112-5.311V57.139z M50.694,55.812h-2.074c-0.071,0.453-0.106,0.864-0.106,1.233
				c0,0.958,0.24,1.612,0.719,1.959c0.291,0.211,0.562,0.316,0.812,0.316c0.314,0,0.593-0.168,0.837-0.506
				c0.188-0.263,0.283-0.606,0.283-1.027C51.166,57.25,51.008,56.591,50.694,55.812z"/>
			<path fill="#FFFFFF" d="M37.157,38.726c2.655,0.063,5.439,0.095,8.353,0.095c2.655,0,5.419-0.026,8.294-0.079l0.012,3.746
				l-1.803,0.126c0.872,0.78,1.308,1.818,1.308,3.114c0,3.235-1.846,4.852-5.537,4.852c-0.079,0-0.157-0.005-0.236-0.016
				C43.849,50.5,42,48.899,42,45.759c0-0.126,0.004-0.258,0.012-0.396c0.047-1.075,0.483-1.944,1.308-2.607
				c-1.744,0-3.797,0.058-6.162,0.174V38.726z M49.599,42.677l-4.077,0.079c-0.62,0.611-0.931,1.238-0.931,1.881
				c0,0.263,0.051,0.527,0.153,0.79c0.322,0.833,1.225,1.249,2.709,1.249c0.173,0,0.35-0.005,0.53-0.016
				c1.799-0.105,2.749-0.643,2.851-1.612c0.008-0.095,0.012-0.189,0.012-0.284C50.847,43.92,50.431,43.225,49.599,42.677z"/>
		</g>
	</g>
	<g>
		<g>
			<path fill="#FFFFFF" d="M60.316,69.493c-0.078-0.765-0.116-1.48-0.116-2.144c0-2.296,0.465-4.064,1.395-5.306
				c1.181-1.588,3.118-2.57,5.811-2.945c1.317-0.188,2.576-0.282,3.777-0.282c1.22,0,2.382,0.101,3.486,0.303
				c2.15,0.39,3.869,1.264,5.157,2.621c1.288,1.357,1.98,3.22,2.078,5.587v0.65c0,2.05-0.427,3.545-1.278,4.483
				c-0.949,1.054-2.509,1.849-4.678,2.382c1.801,0.203,3.152,0.69,4.053,1.462c0.901,0.772,1.525,1.809,1.874,3.108
				c0.193,0.722,0.291,1.516,0.291,2.382c0,0.708-0.068,1.473-0.204,2.296c-0.29,1.805-1.273,3.364-2.949,4.678
				c-1.675,1.314-4.256,2-7.743,2.058h-0.465c-3.273,0-5.888-0.635-7.844-1.906c-2.034-1.3-3.051-4.093-3.051-8.382v-0.13
				l7.525-0.325c-0.02,0.246-0.029,0.484-0.029,0.715c0,3.032,1.065,4.599,3.196,4.7c0.155,0.014,0.3,0.021,0.436,0.021
				c2.014,0,3.225-0.794,3.632-2.382c0.116-0.447,0.174-0.874,0.174-1.278c0-1.14-0.436-2.129-1.308-2.967
				c-1.201-1.126-3.186-1.689-5.956-1.689l-0.349-4.115c0.329,0.014,0.639,0.021,0.93,0.021c2.421,0,4.086-0.52,4.997-1.56
				c0.852-0.967,1.278-2.223,1.278-3.768c0-0.303-0.02-0.614-0.058-0.931c-0.174-1.848-1.289-2.772-3.341-2.772H70.66
				c-2.034,0.102-3.051,1.617-3.051,4.548c0,0.346,0.009,0.714,0.029,1.104L60.316,69.493z"/>
		</g>
	</g>
</g>
</svg>
