<?xml version="1.0" encoding="utf-8"?>
<!-- Generator: Adobe Illustrator 16.0.0, SVG Export Plug-In . SVG Version: 6.00 Build 0)  -->
<!DOCTYPE svg PUBLIC "-//W3C//DTD SVG 1.1//EN" "http://www.w3.org/Graphics/SVG/1.1/DTD/svg11.dtd">
<svg version="1.1" id="Capa_1" xmlns="http://www.w3.org/2000/svg" xmlns:xlink="http://www.w3.org/1999/xlink" x="0px" y="0px"
	 width="454.662px" height="85.274px" viewBox="0 0 454.662 85.274" enable-background="new 0 0 454.662 85.274"
	 xml:space="preserve">
<g>
	<g>
		<g>
			<path fill="#3C3C3B" d="M227.303,62.199l1.43-0.125c0.067,0.573,0.225,1.043,0.473,1.41c0.247,0.367,0.631,0.664,1.152,0.891
				c0.521,0.227,1.106,0.34,1.758,0.34c0.578,0,1.088-0.086,1.531-0.258c0.442-0.172,0.772-0.407,0.988-0.707
				c0.216-0.3,0.324-0.626,0.324-0.98c0-0.359-0.104-0.673-0.312-0.941c-0.208-0.269-0.552-0.493-1.031-0.676
				c-0.308-0.12-0.987-0.306-2.039-0.559c-1.052-0.253-1.789-0.491-2.211-0.715c-0.547-0.286-0.955-0.642-1.223-1.066
				c-0.269-0.425-0.402-0.899-0.402-1.426c0-0.578,0.164-1.118,0.492-1.621s0.807-0.884,1.438-1.145
				c0.63-0.261,1.331-0.391,2.102-0.391c0.849,0,1.598,0.137,2.246,0.41s1.147,0.676,1.496,1.207
				c0.349,0.531,0.536,1.133,0.562,1.805l-1.453,0.109c-0.078-0.724-0.343-1.271-0.793-1.641c-0.451-0.37-1.116-0.555-1.996-0.555
				c-0.917,0-1.585,0.168-2.004,0.504c-0.419,0.336-0.629,0.741-0.629,1.215c0,0.411,0.148,0.75,0.445,1.016
				c0.292,0.266,1.053,0.538,2.285,0.816c1.231,0.278,2.077,0.522,2.535,0.73c0.667,0.308,1.159,0.696,1.477,1.168
				c0.317,0.472,0.477,1.015,0.477,1.629c0,0.609-0.175,1.184-0.523,1.723c-0.349,0.539-0.851,0.958-1.504,1.258
				c-0.654,0.3-1.39,0.449-2.207,0.449c-1.037,0-1.905-0.151-2.605-0.453c-0.701-0.302-1.25-0.757-1.648-1.363
				S227.323,62.965,227.303,62.199z"/>
			<path fill="#3C3C3B" d="M243.99,63.207l1.453,0.18c-0.229,0.849-0.654,1.508-1.273,1.977c-0.62,0.469-1.412,0.703-2.375,0.703
				c-1.214,0-2.176-0.374-2.887-1.121s-1.066-1.796-1.066-3.145c0-1.396,0.359-2.479,1.078-3.25s1.651-1.156,2.797-1.156
				c1.109,0,2.016,0.378,2.719,1.133s1.055,1.817,1.055,3.188c0,0.083-0.003,0.208-0.008,0.375h-6.188
				c0.052,0.911,0.31,1.609,0.773,2.094c0.463,0.484,1.042,0.727,1.734,0.727c0.516,0,0.956-0.136,1.32-0.406
				C243.487,64.233,243.776,63.801,243.99,63.207z M239.373,60.934h4.633c-0.062-0.698-0.24-1.222-0.531-1.57
				c-0.448-0.542-1.029-0.812-1.742-0.812c-0.646,0-1.189,0.216-1.629,0.648C239.663,59.632,239.42,60.21,239.373,60.934z"/>
			<path fill="#3C3C3B" d="M247.209,65.879v-8.297h1.266v1.18c0.609-0.911,1.489-1.367,2.641-1.367c0.5,0,0.959,0.09,1.379,0.27
				c0.419,0.18,0.733,0.415,0.941,0.707c0.208,0.292,0.354,0.638,0.438,1.039c0.052,0.261,0.078,0.716,0.078,1.367v5.102h-1.406
				v-5.047c0-0.573-0.055-1.001-0.164-1.285s-0.304-0.511-0.582-0.68c-0.279-0.169-0.605-0.254-0.98-0.254
				c-0.599,0-1.116,0.19-1.551,0.57c-0.435,0.38-0.652,1.102-0.652,2.164v4.531H247.209z"/>
			<path fill="#3C3C3B" d="M259.178,64.621l0.203,1.242c-0.396,0.083-0.75,0.125-1.062,0.125c-0.511,0-0.906-0.081-1.188-0.242
				s-0.479-0.374-0.594-0.637c-0.115-0.263-0.172-0.816-0.172-1.66v-4.773h-1.031v-1.094h1.031v-2.055l1.398-0.844v2.898h1.414
				v1.094h-1.414v4.852c0,0.401,0.024,0.659,0.074,0.773c0.049,0.114,0.13,0.206,0.242,0.273c0.112,0.067,0.272,0.102,0.48,0.102
				C258.717,64.676,258.922,64.657,259.178,64.621z"/>
			<path fill="#3C3C3B" d="M266.232,63.207l1.453,0.18c-0.229,0.849-0.654,1.508-1.273,1.977c-0.62,0.469-1.412,0.703-2.375,0.703
				c-1.214,0-2.176-0.374-2.887-1.121s-1.066-1.796-1.066-3.145c0-1.396,0.359-2.479,1.078-3.25s1.651-1.156,2.797-1.156
				c1.109,0,2.016,0.378,2.719,1.133s1.055,1.817,1.055,3.188c0,0.083-0.003,0.208-0.008,0.375h-6.188
				c0.052,0.911,0.31,1.609,0.773,2.094c0.463,0.484,1.042,0.727,1.734,0.727c0.516,0,0.956-0.136,1.32-0.406
				C265.729,64.233,266.019,63.801,266.232,63.207z M261.615,60.934h4.633c-0.062-0.698-0.24-1.222-0.531-1.57
				c-0.448-0.542-1.029-0.812-1.742-0.812c-0.646,0-1.189,0.216-1.629,0.648C261.905,59.632,261.662,60.21,261.615,60.934z"/>
			<path fill="#3C3C3B" d="M269.451,65.879v-8.297h1.266v1.18c0.609-0.911,1.489-1.367,2.641-1.367c0.5,0,0.959,0.09,1.379,0.27
				c0.419,0.18,0.733,0.415,0.941,0.707c0.208,0.292,0.354,0.638,0.438,1.039c0.052,0.261,0.078,0.716,0.078,1.367v5.102h-1.406
				v-5.047c0-0.573-0.055-1.001-0.164-1.285s-0.304-0.511-0.582-0.68c-0.279-0.169-0.605-0.254-0.98-0.254
				c-0.599,0-1.116,0.19-1.551,0.57c-0.435,0.38-0.652,1.102-0.652,2.164v4.531H269.451z"/>
			<path fill="#3C3C3B" d="M283.764,62.84l1.383,0.18c-0.151,0.953-0.538,1.699-1.16,2.238c-0.623,0.539-1.387,0.809-2.293,0.809
				c-1.136,0-2.048-0.371-2.738-1.113c-0.69-0.742-1.035-1.806-1.035-3.191c0-0.896,0.148-1.68,0.445-2.352s0.749-1.176,1.355-1.512
				c0.606-0.336,1.267-0.504,1.98-0.504c0.901,0,1.638,0.228,2.211,0.684c0.573,0.456,0.94,1.103,1.102,1.941l-1.367,0.211
				c-0.13-0.558-0.361-0.977-0.691-1.258c-0.331-0.281-0.73-0.422-1.199-0.422c-0.708,0-1.284,0.254-1.727,0.762
				c-0.443,0.508-0.664,1.312-0.664,2.41c0,1.114,0.213,1.925,0.641,2.43c0.427,0.505,0.984,0.758,1.672,0.758
				c0.552,0,1.013-0.169,1.383-0.508C283.43,64.063,283.665,63.543,283.764,62.84z"/>
			<path fill="#3C3C3B" d="M286.357,56.043v-1.617h1.406v1.617H286.357z M286.357,65.879v-8.297h1.406v8.297H286.357z"/>
			<path fill="#3C3C3B" d="M295.318,64.855c-0.521,0.442-1.022,0.755-1.504,0.938c-0.482,0.183-0.999,0.273-1.551,0.273
				c-0.912,0-1.612-0.223-2.102-0.668c-0.49-0.445-0.734-1.015-0.734-1.707c0-0.406,0.092-0.777,0.277-1.113
				c0.185-0.336,0.427-0.605,0.727-0.809c0.299-0.203,0.637-0.356,1.012-0.461c0.276-0.073,0.692-0.144,1.25-0.211
				c1.135-0.136,1.971-0.297,2.508-0.484c0.005-0.192,0.008-0.315,0.008-0.367c0-0.573-0.133-0.977-0.398-1.211
				c-0.359-0.317-0.894-0.477-1.602-0.477c-0.662,0-1.15,0.116-1.465,0.348c-0.315,0.231-0.548,0.642-0.699,1.23l-1.375-0.188
				c0.125-0.589,0.331-1.063,0.617-1.426c0.286-0.362,0.7-0.641,1.242-0.836c0.542-0.195,1.169-0.293,1.883-0.293
				c0.708,0,1.284,0.083,1.727,0.25c0.442,0.167,0.768,0.376,0.977,0.629c0.208,0.253,0.354,0.571,0.438,0.957
				c0.047,0.239,0.07,0.672,0.07,1.297v1.875c0,1.308,0.03,2.134,0.09,2.48c0.06,0.347,0.178,0.679,0.355,0.996H295.6
				C295.454,65.587,295.36,65.246,295.318,64.855z M295.201,61.715c-0.511,0.208-1.276,0.386-2.297,0.531
				c-0.578,0.083-0.987,0.177-1.227,0.281c-0.24,0.104-0.425,0.257-0.555,0.457c-0.13,0.2-0.195,0.423-0.195,0.668
				c0,0.375,0.142,0.688,0.426,0.938c0.284,0.25,0.699,0.375,1.246,0.375c0.542,0,1.023-0.118,1.445-0.355s0.731-0.562,0.93-0.973
				c0.151-0.317,0.227-0.786,0.227-1.406V61.715z"/>
			<path fill="#3C3C3B" d="M298.24,63.402l1.391-0.219c0.078,0.558,0.295,0.984,0.652,1.281c0.356,0.297,0.855,0.445,1.496,0.445
				c0.646,0,1.125-0.132,1.438-0.395s0.469-0.571,0.469-0.926c0-0.317-0.138-0.567-0.414-0.75c-0.193-0.125-0.672-0.284-1.438-0.477
				c-1.031-0.261-1.746-0.485-2.145-0.676s-0.701-0.453-0.906-0.789c-0.206-0.336-0.309-0.707-0.309-1.113
				c0-0.37,0.084-0.712,0.254-1.027c0.169-0.315,0.399-0.577,0.691-0.785c0.219-0.161,0.517-0.298,0.895-0.41
				c0.377-0.112,0.782-0.168,1.215-0.168c0.651,0,1.223,0.094,1.715,0.281s0.855,0.441,1.09,0.762s0.396,0.749,0.484,1.285
				l-1.375,0.188c-0.062-0.427-0.244-0.761-0.543-1c-0.3-0.239-0.723-0.359-1.27-0.359c-0.646,0-1.107,0.106-1.383,0.32
				c-0.276,0.214-0.414,0.464-0.414,0.75c0,0.183,0.057,0.347,0.172,0.492c0.114,0.151,0.294,0.276,0.539,0.375
				c0.141,0.052,0.555,0.172,1.242,0.359c0.995,0.266,1.688,0.483,2.082,0.652c0.393,0.169,0.702,0.415,0.926,0.738
				c0.224,0.323,0.336,0.724,0.336,1.203c0,0.469-0.137,0.91-0.41,1.324s-0.668,0.734-1.184,0.961s-1.099,0.34-1.75,0.34
				c-1.078,0-1.9-0.224-2.465-0.672C298.757,64.946,298.396,64.282,298.24,63.402z"/>
			<path fill="#3C3C3B" d="M316.631,65.879v-1.047c-0.526,0.823-1.3,1.234-2.32,1.234c-0.662,0-1.27-0.183-1.824-0.547
				s-0.984-0.874-1.289-1.527s-0.457-1.405-0.457-2.254c0-0.828,0.138-1.579,0.414-2.254c0.276-0.675,0.69-1.191,1.242-1.551
				c0.552-0.359,1.169-0.539,1.852-0.539c0.5,0,0.945,0.105,1.336,0.316s0.708,0.485,0.953,0.824v-4.109h1.398v11.453H316.631z
				 M312.186,61.738c0,1.062,0.224,1.856,0.672,2.383c0.448,0.526,0.977,0.789,1.586,0.789c0.614,0,1.137-0.251,1.566-0.754
				s0.645-1.27,0.645-2.301c0-1.136-0.219-1.969-0.656-2.5s-0.977-0.797-1.617-0.797c-0.625,0-1.147,0.255-1.566,0.766
				C312.395,59.835,312.186,60.64,312.186,61.738z"/>
			<path fill="#3C3C3B" d="M325.826,63.207l1.453,0.18c-0.229,0.849-0.654,1.508-1.273,1.977c-0.62,0.469-1.412,0.703-2.375,0.703
				c-1.214,0-2.176-0.374-2.887-1.121s-1.066-1.796-1.066-3.145c0-1.396,0.359-2.479,1.078-3.25s1.651-1.156,2.797-1.156
				c1.109,0,2.016,0.378,2.719,1.133s1.055,1.817,1.055,3.188c0,0.083-0.003,0.208-0.008,0.375h-6.188
				c0.052,0.911,0.31,1.609,0.773,2.094c0.463,0.484,1.042,0.727,1.734,0.727c0.516,0,0.956-0.136,1.32-0.406
				C325.323,64.233,325.612,63.801,325.826,63.207z M321.209,60.934h4.633c-0.062-0.698-0.24-1.222-0.531-1.57
				c-0.448-0.542-1.029-0.812-1.742-0.812c-0.646,0-1.189,0.216-1.629,0.648C321.499,59.632,321.256,60.21,321.209,60.934z"/>
			<path fill="#3C3C3B" d="M332.896,62.629l1.367-0.188c0.036,0.875,0.2,1.474,0.492,1.797c0.292,0.323,0.695,0.484,1.211,0.484
				c0.38,0,0.708-0.087,0.984-0.262c0.276-0.175,0.466-0.411,0.57-0.711c0.104-0.3,0.156-0.777,0.156-1.434v-7.891h1.516v7.805
				c0,0.958-0.116,1.7-0.348,2.227c-0.232,0.526-0.599,0.927-1.102,1.203c-0.503,0.276-1.093,0.414-1.77,0.414
				c-1.005,0-1.775-0.289-2.309-0.867C333.132,64.629,332.875,63.77,332.896,62.629z"/>
			<path fill="#3C3C3B" d="M346.928,65.879V64.66c-0.646,0.938-1.523,1.406-2.633,1.406c-0.49,0-0.947-0.094-1.371-0.281
				c-0.425-0.188-0.74-0.423-0.945-0.707c-0.206-0.284-0.351-0.632-0.434-1.043c-0.058-0.276-0.086-0.714-0.086-1.312v-5.141h1.406
				v4.602c0,0.734,0.028,1.229,0.086,1.484c0.088,0.37,0.276,0.66,0.562,0.871c0.286,0.211,0.641,0.316,1.062,0.316
				s0.817-0.108,1.188-0.324c0.37-0.216,0.631-0.511,0.785-0.883c0.153-0.372,0.23-0.913,0.23-1.621v-4.445h1.406v8.297H346.928z"/>
			<path fill="#3C3C3B" d="M349.826,63.402l1.391-0.219c0.078,0.558,0.295,0.984,0.652,1.281c0.356,0.297,0.855,0.445,1.496,0.445
				c0.646,0,1.125-0.132,1.438-0.395s0.469-0.571,0.469-0.926c0-0.317-0.138-0.567-0.414-0.75c-0.193-0.125-0.672-0.284-1.438-0.477
				c-1.031-0.261-1.746-0.485-2.145-0.676s-0.701-0.453-0.906-0.789c-0.206-0.336-0.309-0.707-0.309-1.113
				c0-0.37,0.084-0.712,0.254-1.027c0.169-0.315,0.399-0.577,0.691-0.785c0.219-0.161,0.517-0.298,0.895-0.41
				c0.377-0.112,0.782-0.168,1.215-0.168c0.651,0,1.223,0.094,1.715,0.281s0.855,0.441,1.09,0.762s0.396,0.749,0.484,1.285
				l-1.375,0.188c-0.062-0.427-0.244-0.761-0.543-1c-0.3-0.239-0.723-0.359-1.27-0.359c-0.646,0-1.107,0.106-1.383,0.32
				c-0.276,0.214-0.414,0.464-0.414,0.75c0,0.183,0.057,0.347,0.172,0.492c0.114,0.151,0.294,0.276,0.539,0.375
				c0.141,0.052,0.555,0.172,1.242,0.359c0.995,0.266,1.688,0.483,2.082,0.652c0.393,0.169,0.702,0.415,0.926,0.738
				c0.224,0.323,0.336,0.724,0.336,1.203c0,0.469-0.137,0.91-0.41,1.324s-0.668,0.734-1.184,0.961s-1.099,0.34-1.75,0.34
				c-1.078,0-1.9-0.224-2.465-0.672C350.343,64.946,349.982,64.282,349.826,63.402z"/>
			<path fill="#3C3C3B" d="M361.459,64.621l0.203,1.242c-0.396,0.083-0.75,0.125-1.062,0.125c-0.511,0-0.906-0.081-1.188-0.242
				s-0.479-0.374-0.594-0.637c-0.115-0.263-0.172-0.816-0.172-1.66v-4.773h-1.031v-1.094h1.031v-2.055l1.398-0.844v2.898h1.414
				v1.094h-1.414v4.852c0,0.401,0.024,0.659,0.074,0.773c0.049,0.114,0.13,0.206,0.242,0.273c0.112,0.067,0.272,0.102,0.48,0.102
				C360.998,64.676,361.204,64.657,361.459,64.621z"/>
			<path fill="#3C3C3B" d="M362.842,56.043v-1.617h1.406v1.617H362.842z M362.842,65.879v-8.297h1.406v8.297H362.842z"/>
			<path fill="#3C3C3B" d="M371.803,62.84l1.383,0.18c-0.151,0.953-0.538,1.699-1.16,2.238c-0.623,0.539-1.387,0.809-2.293,0.809
				c-1.136,0-2.048-0.371-2.738-1.113c-0.69-0.742-1.035-1.806-1.035-3.191c0-0.896,0.148-1.68,0.445-2.352s0.749-1.176,1.355-1.512
				c0.606-0.336,1.267-0.504,1.98-0.504c0.901,0,1.638,0.228,2.211,0.684c0.573,0.456,0.94,1.103,1.102,1.941l-1.367,0.211
				c-0.13-0.558-0.361-0.977-0.691-1.258c-0.331-0.281-0.73-0.422-1.199-0.422c-0.708,0-1.284,0.254-1.727,0.762
				c-0.443,0.508-0.664,1.312-0.664,2.41c0,1.114,0.213,1.925,0.641,2.43c0.427,0.505,0.984,0.758,1.672,0.758
				c0.552,0,1.013-0.169,1.383-0.508C371.469,64.063,371.704,63.543,371.803,62.84z"/>
			<path fill="#3C3C3B" d="M374.396,56.043v-1.617h1.406v1.617H374.396z M374.396,65.879v-8.297h1.406v8.297H374.396z"/>
			<path fill="#3C3C3B" d="M383.357,64.855c-0.521,0.442-1.022,0.755-1.504,0.938c-0.482,0.183-0.999,0.273-1.551,0.273
				c-0.912,0-1.612-0.223-2.102-0.668c-0.49-0.445-0.734-1.015-0.734-1.707c0-0.406,0.092-0.777,0.277-1.113
				c0.185-0.336,0.427-0.605,0.727-0.809c0.299-0.203,0.637-0.356,1.012-0.461c0.276-0.073,0.692-0.144,1.25-0.211
				c1.135-0.136,1.971-0.297,2.508-0.484c0.005-0.192,0.008-0.315,0.008-0.367c0-0.573-0.133-0.977-0.398-1.211
				c-0.359-0.317-0.894-0.477-1.602-0.477c-0.662,0-1.15,0.116-1.465,0.348c-0.315,0.231-0.548,0.642-0.699,1.23l-1.375-0.188
				c0.125-0.589,0.331-1.063,0.617-1.426c0.286-0.362,0.7-0.641,1.242-0.836c0.542-0.195,1.169-0.293,1.883-0.293
				c0.708,0,1.284,0.083,1.727,0.25c0.442,0.167,0.768,0.376,0.977,0.629c0.208,0.253,0.354,0.571,0.438,0.957
				c0.047,0.239,0.07,0.672,0.07,1.297v1.875c0,1.308,0.03,2.134,0.09,2.48c0.06,0.347,0.178,0.679,0.355,0.996h-1.469
				C383.493,65.587,383.399,65.246,383.357,64.855z M383.24,61.715c-0.511,0.208-1.276,0.386-2.297,0.531
				c-0.578,0.083-0.987,0.177-1.227,0.281c-0.24,0.104-0.425,0.257-0.555,0.457c-0.13,0.2-0.195,0.423-0.195,0.668
				c0,0.375,0.142,0.688,0.426,0.938c0.284,0.25,0.699,0.375,1.246,0.375c0.542,0,1.023-0.118,1.445-0.355s0.731-0.562,0.93-0.973
				c0.151-0.317,0.227-0.786,0.227-1.406V61.715z"/>
			<path fill="#3C3C3B" d="M391.225,69.074l-0.156-1.32c0.307,0.083,0.575,0.125,0.805,0.125c0.312,0,0.562-0.052,0.75-0.156
				s0.341-0.25,0.461-0.438c0.088-0.141,0.231-0.489,0.43-1.047c0.026-0.078,0.067-0.192,0.125-0.344l-3.148-8.312h1.516
				l1.727,4.805c0.224,0.609,0.424,1.25,0.602,1.922c0.161-0.646,0.354-1.276,0.578-1.891l1.773-4.836h1.406l-3.156,8.438
				c-0.339,0.911-0.602,1.539-0.789,1.883c-0.25,0.464-0.537,0.804-0.859,1.02c-0.323,0.216-0.708,0.324-1.156,0.324
				C391.86,69.246,391.558,69.188,391.225,69.074z"/>
			<path fill="#3C3C3B" d="M403.912,65.879V54.426h4.32c0.76,0,1.341,0.036,1.742,0.109c0.562,0.094,1.034,0.272,1.414,0.535
				c0.38,0.263,0.686,0.632,0.918,1.105c0.231,0.474,0.348,0.995,0.348,1.562c0,0.974-0.31,1.798-0.93,2.473
				c-0.62,0.675-1.74,1.012-3.359,1.012h-2.938v4.656H403.912z M405.428,59.871h2.961c0.979,0,1.674-0.183,2.086-0.547
				c0.411-0.364,0.617-0.878,0.617-1.539c0-0.479-0.121-0.89-0.363-1.23s-0.562-0.566-0.957-0.676
				c-0.255-0.067-0.727-0.102-1.414-0.102h-2.93V59.871z"/>
			<path fill="#3C3C3B" d="M419.818,64.855c-0.521,0.442-1.022,0.755-1.504,0.938c-0.482,0.183-0.999,0.273-1.551,0.273
				c-0.912,0-1.612-0.223-2.102-0.668c-0.49-0.445-0.734-1.015-0.734-1.707c0-0.406,0.092-0.777,0.277-1.113
				c0.185-0.336,0.427-0.605,0.727-0.809c0.299-0.203,0.637-0.356,1.012-0.461c0.276-0.073,0.692-0.144,1.25-0.211
				c1.135-0.136,1.971-0.297,2.508-0.484c0.005-0.192,0.008-0.315,0.008-0.367c0-0.573-0.133-0.977-0.398-1.211
				c-0.359-0.317-0.894-0.477-1.602-0.477c-0.662,0-1.15,0.116-1.465,0.348c-0.315,0.231-0.548,0.642-0.699,1.23l-1.375-0.188
				c0.125-0.589,0.331-1.063,0.617-1.426c0.286-0.362,0.7-0.641,1.242-0.836c0.542-0.195,1.169-0.293,1.883-0.293
				c0.708,0,1.284,0.083,1.727,0.25c0.442,0.167,0.768,0.376,0.977,0.629c0.208,0.253,0.354,0.571,0.438,0.957
				c0.047,0.239,0.07,0.672,0.07,1.297v1.875c0,1.308,0.03,2.134,0.09,2.48c0.06,0.347,0.178,0.679,0.355,0.996H420.1
				C419.954,65.587,419.86,65.246,419.818,64.855z M419.701,61.715c-0.511,0.208-1.276,0.386-2.297,0.531
				c-0.578,0.083-0.987,0.177-1.227,0.281c-0.24,0.104-0.425,0.257-0.555,0.457c-0.13,0.2-0.195,0.423-0.195,0.668
				c0,0.375,0.142,0.688,0.426,0.938c0.284,0.25,0.699,0.375,1.246,0.375c0.542,0,1.023-0.118,1.445-0.355s0.731-0.562,0.93-0.973
				c0.151-0.317,0.227-0.786,0.227-1.406V61.715z"/>
			<path fill="#3C3C3B" d="M422.561,65.879v-1.141l5.281-6.062c-0.599,0.031-1.128,0.047-1.586,0.047h-3.383v-1.141h6.781v0.93
				l-4.492,5.266l-0.867,0.961c0.63-0.047,1.221-0.07,1.773-0.07h3.836v1.211H422.561z"/>
			<path fill="#3C3C3B" d="M431.693,59.184v-1.602h1.602v1.602H431.693z M431.693,65.879v-1.602h1.602v1.602H431.693z"/>
			<path fill="#3C3C3B" d="M440.311,65.879V54.426h4.297c0.875,0,1.577,0.116,2.105,0.348c0.528,0.231,0.942,0.589,1.242,1.07
				c0.299,0.481,0.449,0.985,0.449,1.512c0,0.489-0.133,0.95-0.398,1.383s-0.667,0.781-1.203,1.047
				c0.692,0.203,1.225,0.55,1.598,1.039c0.372,0.489,0.559,1.067,0.559,1.734c0,0.536-0.113,1.035-0.34,1.496
				s-0.507,0.816-0.84,1.066c-0.333,0.25-0.751,0.438-1.254,0.566c-0.503,0.128-1.119,0.191-1.848,0.191H440.311z M441.826,59.238
				h2.477c0.672,0,1.153-0.044,1.445-0.133c0.385-0.114,0.676-0.305,0.871-0.57s0.293-0.599,0.293-1c0-0.38-0.091-0.715-0.273-1.004
				c-0.183-0.289-0.443-0.487-0.781-0.594c-0.339-0.106-0.919-0.16-1.742-0.16h-2.289V59.238z M441.826,64.527h2.852
				c0.489,0,0.833-0.019,1.031-0.055c0.349-0.062,0.641-0.167,0.875-0.312s0.427-0.358,0.578-0.637
				c0.151-0.278,0.227-0.601,0.227-0.965c0-0.427-0.109-0.798-0.328-1.113s-0.522-0.536-0.91-0.664
				c-0.388-0.128-0.947-0.191-1.676-0.191h-2.648V64.527z"/>
			<path fill="#3C3C3B" d="M451.264,65.879v-1.602h1.602v1.602H451.264z"/>
			<path fill="#3C3C3B" d="M231.092,85.079l-4.438-11.453h1.641l2.977,8.32c0.239,0.667,0.44,1.292,0.602,1.875
				c0.177-0.625,0.383-1.25,0.617-1.875l3.094-8.32h1.547l-4.484,11.453H231.092z"/>
			<path fill="#3C3C3B" d="M243.107,82.407l1.453,0.18c-0.229,0.849-0.654,1.508-1.273,1.977c-0.62,0.469-1.412,0.703-2.375,0.703
				c-1.214,0-2.176-0.374-2.887-1.121s-1.066-1.796-1.066-3.145c0-1.396,0.359-2.479,1.078-3.25s1.651-1.156,2.797-1.156
				c1.109,0,2.016,0.378,2.719,1.133s1.055,1.817,1.055,3.188c0,0.083-0.003,0.208-0.008,0.375h-6.188
				c0.052,0.911,0.31,1.609,0.773,2.094c0.463,0.484,1.042,0.727,1.734,0.727c0.516,0,0.956-0.136,1.32-0.406
				C242.604,83.434,242.894,83.001,243.107,82.407z M238.49,80.134h4.633c-0.062-0.698-0.24-1.222-0.531-1.57
				c-0.448-0.542-1.029-0.812-1.742-0.812c-0.646,0-1.189,0.216-1.629,0.648C238.78,78.832,238.537,79.41,238.49,80.134z"/>
			<path fill="#3C3C3B" d="M246.326,85.079v-8.297h1.266v1.18c0.609-0.911,1.489-1.367,2.641-1.367c0.5,0,0.959,0.09,1.379,0.27
				c0.419,0.18,0.733,0.415,0.941,0.707c0.208,0.292,0.354,0.638,0.438,1.039c0.052,0.261,0.078,0.716,0.078,1.367v5.102h-1.406
				v-5.047c0-0.573-0.055-1.001-0.164-1.285s-0.304-0.511-0.582-0.68c-0.279-0.169-0.605-0.254-0.98-0.254
				c-0.599,0-1.116,0.19-1.551,0.57c-0.435,0.38-0.652,1.102-0.652,2.164v4.531H246.326z"/>
			<path fill="#3C3C3B" d="M260.639,82.04l1.383,0.18c-0.151,0.953-0.538,1.699-1.16,2.238c-0.623,0.539-1.387,0.809-2.293,0.809
				c-1.136,0-2.048-0.371-2.738-1.113c-0.69-0.742-1.035-1.806-1.035-3.191c0-0.896,0.148-1.68,0.445-2.352s0.749-1.176,1.355-1.512
				c0.606-0.336,1.267-0.504,1.98-0.504c0.901,0,1.638,0.228,2.211,0.684c0.573,0.456,0.94,1.103,1.102,1.941l-1.367,0.211
				c-0.13-0.558-0.361-0.977-0.691-1.258c-0.331-0.281-0.73-0.422-1.199-0.422c-0.708,0-1.284,0.254-1.727,0.762
				c-0.443,0.508-0.664,1.312-0.664,2.41c0,1.114,0.213,1.925,0.641,2.43c0.427,0.505,0.984,0.758,1.672,0.758
				c0.552,0,1.013-0.169,1.383-0.508C260.305,83.264,260.54,82.743,260.639,82.04z"/>
			<path fill="#3C3C3B" d="M268.904,82.407l1.453,0.18c-0.229,0.849-0.654,1.508-1.273,1.977c-0.62,0.469-1.412,0.703-2.375,0.703
				c-1.214,0-2.176-0.374-2.887-1.121s-1.066-1.796-1.066-3.145c0-1.396,0.359-2.479,1.078-3.25s1.651-1.156,2.797-1.156
				c1.109,0,2.016,0.378,2.719,1.133s1.055,1.817,1.055,3.188c0,0.083-0.003,0.208-0.008,0.375h-6.188
				c0.052,0.911,0.31,1.609,0.773,2.094c0.463,0.484,1.042,0.727,1.734,0.727c0.516,0,0.956-0.136,1.32-0.406
				C268.401,83.434,268.69,83.001,268.904,82.407z M264.287,80.134h4.633c-0.062-0.698-0.24-1.222-0.531-1.57
				c-0.448-0.542-1.029-0.812-1.742-0.812c-0.646,0-1.189,0.216-1.629,0.648C264.577,78.832,264.334,79.41,264.287,80.134z"/>
			<path fill="#3C3C3B" d="M277.506,85.079v-1.047c-0.526,0.823-1.3,1.234-2.32,1.234c-0.662,0-1.27-0.183-1.824-0.547
				s-0.984-0.874-1.289-1.527s-0.457-1.405-0.457-2.254c0-0.828,0.138-1.579,0.414-2.254c0.276-0.675,0.69-1.191,1.242-1.551
				c0.552-0.359,1.169-0.539,1.852-0.539c0.5,0,0.945,0.105,1.336,0.316s0.708,0.485,0.953,0.824v-4.109h1.398v11.453H277.506z
				 M273.061,80.938c0,1.062,0.224,1.856,0.672,2.383c0.448,0.526,0.977,0.789,1.586,0.789c0.614,0,1.137-0.251,1.566-0.754
				s0.645-1.27,0.645-2.301c0-1.136-0.219-1.969-0.656-2.5s-0.977-0.797-1.617-0.797c-0.625,0-1.147,0.255-1.566,0.766
				C273.27,79.035,273.061,79.84,273.061,80.938z"/>
			<path fill="#3C3C3B" d="M280.498,80.931c0-1.536,0.427-2.675,1.281-3.414c0.713-0.614,1.583-0.922,2.609-0.922
				c1.141,0,2.073,0.374,2.797,1.121c0.724,0.747,1.086,1.78,1.086,3.098c0,1.067-0.16,1.907-0.48,2.52s-0.787,1.087-1.398,1.426
				c-0.612,0.339-1.28,0.508-2.004,0.508c-1.162,0-2.101-0.372-2.816-1.117C280.856,83.404,280.498,82.332,280.498,80.931z
				 M281.943,80.931c0,1.062,0.231,1.858,0.695,2.387c0.463,0.528,1.047,0.793,1.75,0.793c0.698,0,1.278-0.266,1.742-0.797
				c0.463-0.531,0.695-1.341,0.695-2.43c0-1.026-0.233-1.804-0.699-2.332c-0.466-0.528-1.046-0.793-1.738-0.793
				c-0.703,0-1.287,0.263-1.75,0.789C282.175,79.074,281.943,79.868,281.943,80.931z"/>
			<path fill="#3C3C3B" d="M289.904,85.079v-8.297h1.266v1.258c0.323-0.589,0.621-0.977,0.895-1.164s0.574-0.281,0.902-0.281
				c0.474,0,0.956,0.151,1.445,0.453l-0.484,1.305c-0.344-0.203-0.688-0.305-1.031-0.305c-0.308,0-0.583,0.093-0.828,0.277
				c-0.245,0.185-0.419,0.441-0.523,0.77c-0.156,0.5-0.234,1.047-0.234,1.641v4.344H289.904z"/>
			<path fill="#3C3C3B" d="M300.928,82.407l1.453,0.18c-0.229,0.849-0.654,1.508-1.273,1.977c-0.62,0.469-1.412,0.703-2.375,0.703
				c-1.214,0-2.176-0.374-2.887-1.121s-1.066-1.796-1.066-3.145c0-1.396,0.359-2.479,1.078-3.25s1.651-1.156,2.797-1.156
				c1.109,0,2.016,0.378,2.719,1.133s1.055,1.817,1.055,3.188c0,0.083-0.003,0.208-0.008,0.375h-6.188
				c0.052,0.911,0.31,1.609,0.773,2.094c0.463,0.484,1.042,0.727,1.734,0.727c0.516,0,0.956-0.136,1.32-0.406
				C300.425,83.434,300.714,83.001,300.928,82.407z M296.311,80.134h4.633c-0.062-0.698-0.24-1.222-0.531-1.57
				c-0.448-0.542-1.029-0.812-1.742-0.812c-0.646,0-1.189,0.216-1.629,0.648C296.601,78.832,296.357,79.41,296.311,80.134z"/>
			<path fill="#3C3C3B" d="M303.584,82.603l1.391-0.219c0.078,0.558,0.295,0.984,0.652,1.281c0.356,0.297,0.855,0.445,1.496,0.445
				c0.646,0,1.125-0.132,1.438-0.395s0.469-0.571,0.469-0.926c0-0.317-0.138-0.567-0.414-0.75c-0.193-0.125-0.672-0.284-1.438-0.477
				c-1.031-0.261-1.746-0.485-2.145-0.676s-0.701-0.453-0.906-0.789c-0.206-0.336-0.309-0.707-0.309-1.113
				c0-0.37,0.084-0.712,0.254-1.027c0.169-0.315,0.399-0.577,0.691-0.785c0.219-0.161,0.517-0.298,0.895-0.41
				c0.377-0.112,0.782-0.168,1.215-0.168c0.651,0,1.223,0.094,1.715,0.281s0.855,0.441,1.09,0.762s0.396,0.749,0.484,1.285
				l-1.375,0.188c-0.062-0.427-0.244-0.761-0.543-1c-0.3-0.239-0.723-0.359-1.27-0.359c-0.646,0-1.107,0.106-1.383,0.32
				c-0.276,0.214-0.414,0.464-0.414,0.75c0,0.183,0.057,0.347,0.172,0.492c0.114,0.151,0.294,0.276,0.539,0.375
				c0.141,0.052,0.555,0.172,1.242,0.359c0.995,0.266,1.688,0.483,2.082,0.652c0.393,0.169,0.702,0.415,0.926,0.738
				c0.224,0.323,0.336,0.724,0.336,1.203c0,0.469-0.137,0.91-0.41,1.324s-0.668,0.734-1.184,0.961s-1.099,0.34-1.75,0.34
				c-1.078,0-1.9-0.224-2.465-0.672C304.101,84.146,303.74,83.482,303.584,82.603z"/>
			<path fill="#3C3C3B" d="M321.975,85.079v-1.047c-0.526,0.823-1.3,1.234-2.32,1.234c-0.662,0-1.27-0.183-1.824-0.547
				s-0.984-0.874-1.289-1.527s-0.457-1.405-0.457-2.254c0-0.828,0.138-1.579,0.414-2.254c0.276-0.675,0.69-1.191,1.242-1.551
				c0.552-0.359,1.169-0.539,1.852-0.539c0.5,0,0.945,0.105,1.336,0.316s0.708,0.485,0.953,0.824v-4.109h1.398v11.453H321.975z
				 M317.529,80.938c0,1.062,0.224,1.856,0.672,2.383c0.448,0.526,0.977,0.789,1.586,0.789c0.614,0,1.137-0.251,1.566-0.754
				s0.645-1.27,0.645-2.301c0-1.136-0.219-1.969-0.656-2.5s-0.977-0.797-1.617-0.797c-0.625,0-1.147,0.255-1.566,0.766
				C317.739,79.035,317.529,79.84,317.529,80.938z"/>
			<path fill="#3C3C3B" d="M331.17,82.407l1.453,0.18c-0.229,0.849-0.654,1.508-1.273,1.977c-0.62,0.469-1.412,0.703-2.375,0.703
				c-1.214,0-2.176-0.374-2.887-1.121s-1.066-1.796-1.066-3.145c0-1.396,0.359-2.479,1.078-3.25s1.651-1.156,2.797-1.156
				c1.109,0,2.016,0.378,2.719,1.133s1.055,1.817,1.055,3.188c0,0.083-0.003,0.208-0.008,0.375h-6.188
				c0.052,0.911,0.31,1.609,0.773,2.094c0.463,0.484,1.042,0.727,1.734,0.727c0.516,0,0.956-0.136,1.32-0.406
				C330.667,83.434,330.956,83.001,331.17,82.407z M326.553,80.134h4.633c-0.062-0.698-0.24-1.222-0.531-1.57
				c-0.448-0.542-1.029-0.812-1.742-0.812c-0.646,0-1.189,0.216-1.629,0.648C326.843,78.832,326.6,79.41,326.553,80.134z"/>
			<path fill="#3C3C3B" d="M336.873,85.079l4.398-11.453h1.633l4.688,11.453h-1.727l-1.336-3.469h-4.789l-1.258,3.469H336.873z
				 M340.178,80.376h3.883l-1.195-3.172c-0.365-0.964-0.636-1.755-0.812-2.375c-0.146,0.734-0.352,1.464-0.617,2.188L340.178,80.376
				z"/>
			<path fill="#3C3C3B" d="M348.607,85.079v-8.297h1.266v1.258c0.323-0.589,0.621-0.977,0.895-1.164s0.574-0.281,0.902-0.281
				c0.474,0,0.956,0.151,1.445,0.453l-0.484,1.305c-0.344-0.203-0.688-0.305-1.031-0.305c-0.308,0-0.583,0.093-0.828,0.277
				c-0.245,0.185-0.419,0.441-0.523,0.77c-0.156,0.5-0.234,1.047-0.234,1.641v4.344H348.607z"/>
			<path fill="#3C3C3B" d="M359.365,84.056c-0.521,0.442-1.022,0.755-1.504,0.938c-0.482,0.183-0.999,0.273-1.551,0.273
				c-0.912,0-1.612-0.223-2.102-0.668c-0.49-0.445-0.734-1.015-0.734-1.707c0-0.406,0.092-0.777,0.277-1.113
				c0.185-0.336,0.427-0.605,0.727-0.809c0.299-0.203,0.637-0.356,1.012-0.461c0.276-0.073,0.692-0.144,1.25-0.211
				c1.135-0.136,1.971-0.297,2.508-0.484c0.005-0.192,0.008-0.315,0.008-0.367c0-0.573-0.133-0.977-0.398-1.211
				c-0.359-0.317-0.894-0.477-1.602-0.477c-0.662,0-1.15,0.116-1.465,0.348c-0.315,0.231-0.548,0.642-0.699,1.23l-1.375-0.188
				c0.125-0.589,0.331-1.063,0.617-1.426c0.286-0.362,0.7-0.641,1.242-0.836c0.542-0.195,1.169-0.293,1.883-0.293
				c0.708,0,1.284,0.083,1.727,0.25c0.442,0.167,0.768,0.376,0.977,0.629c0.208,0.253,0.354,0.571,0.438,0.957
				c0.047,0.239,0.07,0.672,0.07,1.297v1.875c0,1.308,0.03,2.134,0.09,2.48c0.06,0.347,0.178,0.679,0.355,0.996h-1.469
				C359.5,84.787,359.407,84.446,359.365,84.056z M359.248,80.915c-0.511,0.208-1.276,0.386-2.297,0.531
				c-0.578,0.083-0.987,0.177-1.227,0.281c-0.24,0.104-0.425,0.257-0.555,0.457c-0.13,0.2-0.195,0.423-0.195,0.668
				c0,0.375,0.142,0.688,0.426,0.938c0.284,0.25,0.699,0.375,1.246,0.375c0.542,0,1.023-0.118,1.445-0.355s0.731-0.562,0.93-0.973
				c0.151-0.317,0.227-0.786,0.227-1.406V80.915z"/>
			<path fill="#3C3C3B" d="M368.287,85.079V83.86c-0.646,0.938-1.523,1.406-2.633,1.406c-0.49,0-0.947-0.094-1.371-0.281
				c-0.425-0.188-0.74-0.423-0.945-0.707c-0.206-0.284-0.351-0.632-0.434-1.043c-0.058-0.276-0.086-0.714-0.086-1.312v-5.141h1.406
				v4.602c0,0.734,0.028,1.229,0.086,1.484c0.088,0.37,0.276,0.66,0.562,0.871c0.286,0.211,0.641,0.316,1.062,0.316
				s0.817-0.108,1.188-0.324c0.37-0.216,0.631-0.511,0.785-0.883c0.153-0.372,0.23-0.913,0.23-1.621v-4.445h1.406v8.297H368.287z"/>
			<path fill="#3C3C3B" d="M377.162,82.04l1.383,0.18c-0.151,0.953-0.538,1.699-1.16,2.238c-0.623,0.539-1.387,0.809-2.293,0.809
				c-1.136,0-2.048-0.371-2.738-1.113c-0.69-0.742-1.035-1.806-1.035-3.191c0-0.896,0.148-1.68,0.445-2.352s0.749-1.176,1.355-1.512
				c0.606-0.336,1.267-0.504,1.98-0.504c0.901,0,1.638,0.228,2.211,0.684c0.573,0.456,0.94,1.103,1.102,1.941l-1.367,0.211
				c-0.13-0.558-0.361-0.977-0.691-1.258c-0.331-0.281-0.73-0.422-1.199-0.422c-0.708,0-1.284,0.254-1.727,0.762
				c-0.443,0.508-0.664,1.312-0.664,2.41c0,1.114,0.213,1.925,0.641,2.43c0.427,0.505,0.984,0.758,1.672,0.758
				c0.552,0,1.013-0.169,1.383-0.508C376.829,83.264,377.063,82.743,377.162,82.04z"/>
			<path fill="#3C3C3B" d="M385.162,84.056c-0.521,0.442-1.022,0.755-1.504,0.938c-0.482,0.183-0.999,0.273-1.551,0.273
				c-0.912,0-1.612-0.223-2.102-0.668c-0.49-0.445-0.734-1.015-0.734-1.707c0-0.406,0.092-0.777,0.277-1.113
				c0.185-0.336,0.427-0.605,0.727-0.809c0.299-0.203,0.637-0.356,1.012-0.461c0.276-0.073,0.692-0.144,1.25-0.211
				c1.135-0.136,1.971-0.297,2.508-0.484c0.005-0.192,0.008-0.315,0.008-0.367c0-0.573-0.133-0.977-0.398-1.211
				c-0.359-0.317-0.894-0.477-1.602-0.477c-0.662,0-1.15,0.116-1.465,0.348c-0.315,0.231-0.548,0.642-0.699,1.23l-1.375-0.188
				c0.125-0.589,0.331-1.063,0.617-1.426c0.286-0.362,0.7-0.641,1.242-0.836c0.542-0.195,1.169-0.293,1.883-0.293
				c0.708,0,1.284,0.083,1.727,0.25c0.442,0.167,0.768,0.376,0.977,0.629c0.208,0.253,0.354,0.571,0.438,0.957
				c0.047,0.239,0.07,0.672,0.07,1.297v1.875c0,1.308,0.03,2.134,0.09,2.48c0.06,0.347,0.178,0.679,0.355,0.996h-1.469
				C385.297,84.787,385.204,84.446,385.162,84.056z M385.045,80.915c-0.511,0.208-1.276,0.386-2.297,0.531
				c-0.578,0.083-0.987,0.177-1.227,0.281c-0.24,0.104-0.425,0.257-0.555,0.457c-0.13,0.2-0.195,0.423-0.195,0.668
				c0,0.375,0.142,0.688,0.426,0.938c0.284,0.25,0.699,0.375,1.246,0.375c0.542,0,1.023-0.118,1.445-0.355s0.731-0.562,0.93-0.973
				c0.151-0.317,0.227-0.786,0.227-1.406V80.915z"/>
			<path fill="#3C3C3B" d="M392.006,81.501v-1.133h8.898v1.133H392.006z"/>
			<path fill="#3C3C3B" d="M404.475,85.079l4.398-11.453h1.633l4.688,11.453h-1.727l-1.336-3.469h-4.789l-1.258,3.469H404.475z
				 M407.779,80.376h3.883l-1.195-3.172c-0.365-0.964-0.636-1.755-0.812-2.375c-0.146,0.734-0.352,1.464-0.617,2.188L407.779,80.376
				z"/>
			<path fill="#3C3C3B" d="M424.576,81.063l1.516,0.383c-0.318,1.245-0.89,2.194-1.715,2.848c-0.826,0.653-1.835,0.98-3.027,0.98
				c-1.234,0-2.238-0.251-3.012-0.754s-1.362-1.23-1.766-2.184c-0.404-0.953-0.605-1.977-0.605-3.07
				c0-1.192,0.228-2.233,0.684-3.121c0.456-0.888,1.104-1.562,1.945-2.023c0.841-0.461,1.767-0.691,2.777-0.691
				c1.146,0,2.109,0.292,2.891,0.875s1.325,1.403,1.633,2.461l-1.492,0.352c-0.266-0.833-0.651-1.44-1.156-1.82
				c-0.505-0.38-1.141-0.57-1.906-0.57c-0.88,0-1.616,0.211-2.207,0.633c-0.591,0.422-1.007,0.988-1.246,1.699
				c-0.24,0.711-0.359,1.444-0.359,2.199c0,0.974,0.142,1.824,0.426,2.551c0.284,0.727,0.725,1.27,1.324,1.629
				c0.599,0.359,1.247,0.539,1.945,0.539c0.849,0,1.567-0.245,2.156-0.734C423.969,82.754,424.368,82.027,424.576,81.063z"/>
			<path fill="#3C3C3B" d="M427.912,85.079V73.626h2.281l2.711,8.109c0.25,0.755,0.432,1.32,0.547,1.695
				c0.13-0.417,0.333-1.028,0.609-1.836l2.742-7.969h2.039v11.453h-1.461v-9.586l-3.328,9.586h-1.367l-3.312-9.75v9.75H427.912z"/>
			<path fill="#3C3C3B" d="M449.459,81.063l1.516,0.383c-0.318,1.245-0.89,2.194-1.715,2.848c-0.826,0.653-1.835,0.98-3.027,0.98
				c-1.234,0-2.238-0.251-3.012-0.754s-1.362-1.23-1.766-2.184c-0.404-0.953-0.605-1.977-0.605-3.07
				c0-1.192,0.228-2.233,0.684-3.121c0.456-0.888,1.104-1.562,1.945-2.023c0.841-0.461,1.767-0.691,2.777-0.691
				c1.146,0,2.109,0.292,2.891,0.875s1.325,1.403,1.633,2.461l-1.492,0.352c-0.266-0.833-0.651-1.44-1.156-1.82
				c-0.505-0.38-1.141-0.57-1.906-0.57c-0.88,0-1.616,0.211-2.207,0.633c-0.591,0.422-1.007,0.988-1.246,1.699
				c-0.24,0.711-0.359,1.444-0.359,2.199c0,0.974,0.142,1.824,0.426,2.551c0.284,0.727,0.725,1.27,1.324,1.629
				c0.599,0.359,1.247,0.539,1.945,0.539c0.849,0,1.567-0.245,2.156-0.734C448.852,82.754,449.25,82.027,449.459,81.063z"/>
			<path fill="#3C3C3B" d="M453.061,85.079v-1.602h1.602v1.602H453.061z"/>
		</g>
	</g>
	<path fill="#F39200" d="M3.328,29.223l-0.13,0.488c-0.003,0.012-0.007,0.021-0.013,0.031l-0.135,0.271
		c-0.009,0.018-0.023,0.033-0.038,0.049L2.642,30.4l-0.527,0.594c-0.049,0.057-0.128,0.074-0.193,0.043l-0.804-0.352l-0.202,0.018
		l-0.051,0.104l-0.366,1.467l-0.063,1.018c-0.002,0.018-0.006,0.033-0.01,0.049l-0.366,0.963L0,34.684l0.426,1.314
		c0.009,0.025,0.012,0.051,0.007,0.08l-0.063,0.371l0.044,0.219l0.08,0.4l0.11,0.191l1.028,0.998
		c0.013,0.012,0.023,0.025,0.031,0.041l0.88,1.604l0.664,1.211l1.96,2.092h0.265c0.025,0,0.052,0.008,0.076,0.02l0.203,0.1
		c0.037,0.02,0.067,0.053,0.081,0.094l0.091,0.244l0.054,0.061l0.3,0.354c0.014,0.018,0.024,0.035,0.031,0.055l0.097,0.322
		l0.049,0.072l0.07,0.105c0.023,0.035,0.033,0.078,0.027,0.119l-0.045,0.307l0.261-0.049L6.785,45h0.001l0,0
		c0.031-0.006,0.063-0.004,0.092,0.008l0.17,0.068c0.055,0.02,0.094,0.068,0.104,0.127l0.104,0.633l0.019,0.104l0.258,0.154
		l0.155,0.094l0.02,0.004l0.092,0.018l0.165-0.023l0.102-0.076l0.294-0.26c0.01-0.012,0.021-0.02,0.035-0.025l0.202-0.102
		c0.033-0.014,0.067-0.021,0.104-0.014l1.077,0.166H9.86l0.156-0.131c0.055-0.047,0.134-0.051,0.195-0.014l0.169,0.1l0.221,0.189
		l0.046-0.014l0.441-0.852c0.008-0.016,0.02-0.031,0.029-0.041l0.138-0.137c0.036-0.035,0.087-0.057,0.139-0.049l0.27,0.035
		l0.259,0.076l0.107,0.031l0.146,0.072l0.152,0.074c0.016,0.008,0.03,0.02,0.043,0.031l0,0l0.135,0.135
		c0.009,0.01,0.017,0.018,0.024,0.029l0.166,0.262l0.4-0.125l1.065-0.6c0.055-0.031,0.124-0.029,0.179,0.01l0.24,0.168l0.167,0.115
		l0.501,0.088l0.407-0.109l0.944-1.465c0.017-0.025,0.043-0.049,0.073-0.062l0.304-0.135l3.679-0.822
		c0.012-0.002,0.024-0.004,0.036-0.004l0,0h0.236h0.001c0.021,0,0.04,0.004,0.06,0.012l0.101,0.039l0.169,0.062
		c0.01,0.004,0.021,0.01,0.031,0.016l0.845,0.539v0.002l0,0l0,0c0.022,0.016,0.039,0.033,0.054,0.055l0.203,0.336l0.195,0.281
		l0.368,0.105l0.775-0.219l0.858-0.527l1.701-1.436l1.774-1.912c0.008-0.008,0.017-0.016,0.025-0.023l0.237-0.168
		c0.021-0.014,0.048-0.025,0.073-0.029l0.237-0.033l0.26-0.002l0.249-0.033l2.032-0.602l0.917-0.461l1.77-1.238
		c0.009-0.006,0.02-0.012,0.029-0.016l6.584-2.836c0.014-0.006,0.027-0.012,0.042-0.012l1.303-0.195l1.25-1.018l0.663-0.387
		l0.386-0.178c0.011-0.004,0.021-0.008,0.033-0.01l0.304-0.068l0.245-0.111l0.588-0.555l0.002-0.002
		c0.002-0.002,0.002-0.002,0.003-0.004l0.255-0.223l0.45-0.643l1.513-3.596c0.008-0.02,0.017-0.035,0.031-0.049l0.37-0.406
		c0.023-0.023,0.051-0.039,0.081-0.047l0.861-0.234l0.371-0.186l3.968-3.463c0.015-0.014,0.034-0.023,0.053-0.031l0.33-0.119
		l0.137-0.16l0.064-1.023c0.001-0.016,0.004-0.029,0.009-0.045l0.026-0.08l0.108-0.324c0.008-0.027,0.025-0.051,0.046-0.07
		l0.168-0.152l0.204-0.186c0.015-0.014,0.031-0.025,0.049-0.031l0.536-0.223l0.443-0.184l0.217-0.146l0.159-0.107l0.462-0.363
		l1.545-0.828l1.43-1.066c0.014-0.01,0.029-0.018,0.044-0.023l0.473-0.17c0.011-0.002,0.021-0.004,0.034-0.008l0.129-0.018
		l0.356-0.047l0.267-0.107l1.133-0.457l0.873-0.178l1.816-0.07l0.272-0.059l0.627-0.139l0.659-0.297l0.721-0.461l0.698-0.531
		l0.508-0.512l0.757-1.182l0.095-0.287c0.009-0.023,0.021-0.043,0.038-0.062l0.468-0.48l0.498-0.516l0.361-0.625l1.611-3.697
		l0.521-0.801l0.318-0.354l-0.512-0.207c-0.027-0.014-0.052-0.031-0.068-0.055l-0.372-0.471c-0.021-0.027-0.031-0.059-0.035-0.09
		L71.44,5.846l-0.052-0.17l-0.146-0.178l-0.517-0.414l-0.413-0.219l-1.499-0.566c-0.02-0.006-0.036-0.018-0.051-0.029l-0.27-0.236
		c-0.021-0.018-0.037-0.039-0.046-0.066l-0.203-0.506l-0.113-0.195l-0.138-0.139l-0.659-0.395c-0.01-0.006-0.021-0.016-0.032-0.023
		l-0.168-0.17l-0.274-0.373l-0.17-0.141l-0.706-0.324l-0.286-0.061L65.14,1.574l-0.783,0.035l-0.631,0.066h-0.627l-0.354-0.033
		c-0.013-0.002-0.025-0.004-0.036-0.01L62.02,1.404l-0.451-0.033l-0.523,0.066l-1.567,0.566L58.55,2.471l-0.501,0.145
		c-0.019,0.006-0.038,0.008-0.054,0.006l-0.844-0.033l-1.162,0.102l-1.74,0.303l-1.278,0.002c-0.036,0-0.072-0.012-0.102-0.033
		L52.75,2.873l-0.841-0.359l-0.357-0.057L51.104,2.52l-0.461,0.1l-0.479,0.193c-0.021,0.008-0.042,0.012-0.063,0.012h-0.236l0,0
		l-2.172-0.135c-0.016,0-0.032-0.004-0.047-0.01l-1.654-0.607l-0.697-0.125L44.095,1.98l-0.565-0.068
		c-0.013,0-0.026-0.004-0.039-0.01l-0.709-0.27L42.104,1.52l-0.383,0.262c-0.031,0.023-0.072,0.035-0.111,0.029l-0.349-0.031
		l-0.348,0.064c-0.023,0.004-0.049,0.004-0.071-0.002l-0.23-0.059l-0.203,0.051l-0.518,0.324l-0.828,0.381
		c-0.022,0.012-0.047,0.016-0.072,0.016h-0.708l-0.393,0.062l-1.539,0.602c-0.013,0.004-0.026,0.01-0.039,0.01l-0.575,0.068
		c-0.015,0.002-0.028,0.002-0.042,0l-0.507-0.068L34.827,3.23l-0.655,0.162C34.146,3.4,34.122,3.4,34.098,3.396L33.76,3.328
		c-0.015-0.004-0.028-0.008-0.042-0.014L33.11,3.01l-0.176-0.047l-0.283,0.029l-0.483,0.193c-0.021,0.008-0.042,0.012-0.063,0.012
		h-1.702l-0.556,0.131l-2.443,0.906c-0.018,0.004-0.033,0.008-0.051,0.01l-0.709,0.033l-0.428-0.035l-0.44,0.002l-0.437,0.094
		l-1.265,0.598c-0.011,0.006-0.021,0.01-0.032,0.012l-1.218,0.295l-1.255,0.926c-0.034,0.025-0.075,0.037-0.115,0.033l-0.371-0.035
		l-0.588-0.102c-0.025-0.004-0.048-0.016-0.069-0.029l-0.71-0.506l-0.885-0.424l-0.427-0.283l-0.321-0.283
		c-0.016-0.014-0.028-0.029-0.038-0.049l-0.562-1.059l-0.861-0.895c-0.009-0.01-0.017-0.02-0.023-0.029l-0.506-0.846
		c-0.012-0.016-0.019-0.037-0.022-0.057l-0.101-0.574l-0.003-0.232c0-0.012,0.002-0.023,0.004-0.037l0.068-0.303
		c0.004-0.018,0.011-0.037,0.02-0.053L16.308,0l-0.153,0.084l-0.91,1.461l-0.434,1.43l-0.021,0.168l0.026,0.068l0.281,0.139
		c0.021,0.01,0.04,0.025,0.057,0.047l0.135,0.166c0.016,0.021,0.025,0.041,0.031,0.066l0.135,0.539l0.126,0.277l0.108,0.318
		l0.114,0.225l0.657,0.693c0.036,0.035,0.052,0.088,0.044,0.139L16.438,6.26c-0.004,0.018-0.009,0.035-0.017,0.051l-0.292,0.586
		L15.93,8.02l-0.511,1.707c-0.004,0.014-0.01,0.027-0.018,0.041l-0.101,0.168c-0.025,0.039-0.066,0.068-0.112,0.078l-0.506,0.102
		l-0.312,0.113l-0.263,0.285v0.312l2.072,1.102l0.934,0.689c0.028,0.02,0.048,0.051,0.06,0.084l0.151,0.486l0.427,0.305
		c0.017,0.012,0.03,0.025,0.042,0.043l0.492,0.723l0.521,0.424c0.038,0.029,0.061,0.076,0.062,0.123
		c0.001,0.051-0.02,0.098-0.056,0.131l-0.338,0.305c-0.016,0.016-0.032,0.025-0.05,0.031l-0.137,0.055l-0.122,0.121l-0.089,0.207
		l-0.093,0.381l-0.17,0.58c-0.011,0.029-0.026,0.057-0.05,0.076l-0.277,0.248l-0.18,0.389l-0.3,1.566
		c-0.008,0.041-0.028,0.076-0.061,0.1l-0.168,0.137c-0.038,0.029-0.086,0.043-0.134,0.035l-0.202-0.035
		c-0.027-0.006-0.052-0.016-0.074-0.033l-0.775-0.57l-0.188-0.188c-0.011-0.01-0.021-0.023-0.029-0.037l-0.201-0.371l-0.112-0.166
		l-0.067-0.051h-0.138l-0.207,0.102L14.134,18.4l-2.49,2.691l-0.801,1.338c-0.014,0.023-0.035,0.043-0.061,0.059l-0.93,0.529
		l-1.304,1.172c-0.034,0.029-0.08,0.045-0.125,0.041l-0.438-0.033c-0.05-0.004-0.095-0.029-0.123-0.066l-0.627-0.826L6.814,22.98
		c-0.014-0.01-0.027-0.025-0.037-0.039l-0.54-0.812l-0.133-0.154l-0.339-0.146L5.34,22.197c-0.012,0.01-0.022,0.018-0.035,0.023
		l-0.25,0.125l-0.319,0.289l-0.356,0.424l-1.407,1.902l0.062,0.742c0.004,0.043-0.01,0.088-0.037,0.123L2.842,26.01l-0.117,0.266
		l-0.099,0.488l0.003,0.275l0.088,0.262l0.212,0.365l0.517,0.418c0.017,0.014,0.03,0.031,0.041,0.051l0.169,0.303
		c0.027,0.051,0.029,0.109,0.001,0.16L3.328,29.223z"/>
	<g>
		<g>
			<g enable-background="new    ">
				<path fill="#331842" d="M241.229,31.209l-2.908,0.01v-0.264c0-1.53-0.576-2.295-1.729-2.295c-1.231,0-1.847,1.412-1.847,4.238
					c0,3.184,0.646,4.775,1.939,4.775h0.013c1.292-0.007,1.939-0.788,1.939-2.344v-0.967h3.249v0.732
					c0,3.242-1.786,4.938-5.358,5.088c-0.104,0.006-0.209,0.01-0.314,0.01c-3.362,0-5.043-2.409-5.043-7.227
					c0-4.714,1.729-7.07,5.188-7.07c3.257,0,4.886,1.575,4.886,4.727C241.242,30.812,241.237,31.007,241.229,31.209z"/>
				<path fill="#331842" d="M241.897,39.881c1.642-5.561,2.969-10.273,3.982-14.141l4.913-0.059c1.205,4.023,2.585,8.606,4.14,13.75
					l-3.354,0.508l-1.061-3.701h-4.074l-1.101,3.994L241.897,39.881z M250.413,33.494c-0.455-1.406-1.197-3.09-2.228-5.049
					c-0.794,1.646-1.467,3.353-2.017,5.117L250.413,33.494z"/>
				<path fill="#331842" d="M255.391,34.812l3.891-0.195c-0.053,0.403-0.079,0.768-0.079,1.094c0,1.478,0.493,2.217,1.48,2.217
					h0.053c1.196-0.026,1.795-0.502,1.795-1.426v-0.088c-0.044-0.983-1.175-1.947-3.393-2.891c-2.158-0.912-3.236-2.416-3.236-4.512
					c0-0.065,0.004-0.131,0.013-0.195c0.061-2.194,1.712-3.311,4.952-3.35h0.105c2.926,0,4.389,1.39,4.389,4.17
					c0,0.221-0.009,0.455-0.026,0.703l-3.419,0.146c0.035-0.293,0.052-0.563,0.052-0.811c0-1.166-0.38-1.748-1.14-1.748
					c-0.917,0-1.419,0.348-1.507,1.045c-0.009,0.098-0.013,0.195-0.013,0.293c0,0.579,0.231,1.119,0.694,1.621
					c0.533,0.579,1.448,1.109,2.745,1.592c1.297,0.481,2.203,1.143,2.718,1.982c0.367,0.605,0.55,1.25,0.55,1.934
					c0,0.26-0.026,0.527-0.079,0.801c-0.201,0.982-0.76,1.798-1.677,2.445c-0.917,0.648-2.148,1.002-3.694,1.061
					c-0.105,0.006-0.209,0.01-0.314,0.01c-1.406,0-2.581-0.385-3.524-1.152c-0.909-0.736-1.362-2.074-1.362-4.014
					C255.365,35.311,255.373,35.066,255.391,34.812z"/>
				<path fill="#331842" d="M266.382,39.881c1.642-5.561,2.969-10.273,3.982-14.141l4.913-0.059c1.205,4.023,2.585,8.606,4.14,13.75
					l-3.354,0.508l-1.061-3.701h-4.074l-1.101,3.994L266.382,39.881z M274.897,33.494c-0.455-1.406-1.197-3.09-2.228-5.049
					c-0.794,1.646-1.467,3.353-2.017,5.117L274.897,33.494z"/>
				<path fill="#331842" d="M279.875,39.988c0.105-2.227,0.157-4.395,0.157-6.504c0-2.436-0.07-4.795-0.209-7.08l3.852-0.137
					l3.537,7.354c-0.035-2.526-0.131-5.111-0.288-7.754l4.048-0.039c-0.402,3.99-0.603,8.021-0.603,12.09
					c0,0.547,0.004,1.094,0.013,1.641l-3.55,0.029l-3.773-7.871c0.113,2.903,0.218,5.602,0.314,8.096L279.875,39.988z"/>
				<path fill="#331842" d="M291.365,39.881c1.642-5.561,2.969-10.273,3.982-14.141l4.913-0.059c1.205,4.023,2.585,8.606,4.14,13.75
					l-3.354,0.508l-1.061-3.701h-4.074l-1.101,3.994L291.365,39.881z M299.88,33.494c-0.455-1.406-1.197-3.09-2.228-5.049
					c-0.794,1.646-1.467,3.353-2.017,5.117L299.88,33.494z"/>
				<path fill="#331842" d="M304.911,40.135c0.053-1.862,0.079-3.737,0.079-5.625c0-2.891-0.061-5.811-0.183-8.76
					c1.354-0.104,2.568-0.156,3.642-0.156c2.987,0,4.891,0.406,5.711,1.221c0.769,0.762,1.153,1.602,1.153,2.52
					c0,0.416-0.075,0.846-0.223,1.289c-0.506,1.432-1.572,2.34-3.196,2.725c1.135,0.117,1.996,0.572,2.581,1.367
					c0.559,0.768,0.839,2.701,0.839,5.801v0.42l-3.957,0.039c0.043-0.82,0.065-1.557,0.065-2.207c0-1.973-0.214-3.181-0.642-3.623
					c-0.489-0.495-1.07-0.742-1.742-0.742c-0.131,0-0.267,0.01-0.406,0.029c0.053,1.985,0.166,3.867,0.341,5.645L304.911,40.135z
					 M308.265,28.025l0.092,4.18c1.625-0.059,2.655-0.469,3.092-1.23c0.236-0.404,0.354-0.798,0.354-1.182
					c0-0.332-0.087-0.658-0.262-0.977c-0.314-0.554-1.096-0.83-2.345-0.83C308.907,27.986,308.597,27.999,308.265,28.025z"/>
				<path fill="#331842" d="M324.85,26.209v2.754l-5.175-0.156v3.203l4.651-0.098l0.118,2.646h-4.153v2.48h5.437v2.773l-9.066-0.098
					c0.096-1.83,0.144-3.672,0.144-5.527c0-2.572-0.092-5.166-0.275-7.783C318.505,26.346,321.278,26.28,324.85,26.209z"/>
			</g>
		</g>
	</g>
</g>
</svg>
