<?xml version="1.0" encoding="utf-8"?>
<!-- Generator: Adobe Illustrator 16.0.0, SVG Export Plug-In . SVG Version: 6.00 Build 0)  -->
<!DOCTYPE svg PUBLIC "-//W3C//DTD SVG 1.1//EN" "http://www.w3.org/Graphics/SVG/1.1/DTD/svg11.dtd">
<svg version="1.1" id="Capa_1" xmlns="http://www.w3.org/2000/svg" xmlns:xlink="http://www.w3.org/1999/xlink" x="0px" y="0px"
	 width="615.023px" height="101.263px" viewBox="0 0 615.023 101.263" enable-background="new 0 0 615.023 101.263"
	 xml:space="preserve">
<g>
	<g>
		<g>
			<path fill="#3C3C3B" d="M327.812,40.296V28.843h2.281l2.711,8.109c0.25,0.754,0.432,1.32,0.547,1.695
				c0.13-0.418,0.333-1.029,0.609-1.836l2.742-7.969h2.039v11.453h-1.461V30.71l-3.328,9.586h-1.367l-3.312-9.75v9.75H327.812z"/>
			<path fill="#3C3C3B" d="M346.688,37.624l1.453,0.18c-0.229,0.848-0.654,1.508-1.273,1.977c-0.62,0.469-1.412,0.703-2.375,0.703
				c-1.214,0-2.176-0.375-2.887-1.121c-0.711-0.748-1.066-1.797-1.066-3.145c0-1.396,0.359-2.48,1.078-3.25
				c0.719-0.771,1.651-1.156,2.797-1.156c1.109,0,2.016,0.377,2.719,1.133c0.703,0.754,1.055,1.816,1.055,3.188
				c0,0.082-0.003,0.207-0.008,0.375h-6.188c0.052,0.91,0.31,1.609,0.773,2.094c0.463,0.484,1.042,0.727,1.734,0.727
				c0.516,0,0.956-0.137,1.32-0.406C346.185,38.649,346.474,38.218,346.688,37.624z M342.07,35.351h4.633
				c-0.062-0.699-0.24-1.223-0.531-1.57c-0.448-0.543-1.029-0.812-1.742-0.812c-0.646,0-1.189,0.215-1.629,0.648
				C342.36,34.048,342.117,34.626,342.07,35.351z"/>
			<path fill="#3C3C3B" d="M355.289,40.296v-1.047c-0.526,0.822-1.3,1.234-2.32,1.234c-0.662,0-1.27-0.184-1.824-0.547
				c-0.555-0.365-0.984-0.875-1.289-1.527c-0.305-0.654-0.457-1.406-0.457-2.254c0-0.828,0.138-1.58,0.414-2.254
				c0.276-0.676,0.69-1.191,1.242-1.551c0.552-0.359,1.169-0.539,1.852-0.539c0.5,0,0.945,0.105,1.336,0.316
				s0.708,0.484,0.953,0.824v-4.109h1.398v11.453H355.289z M350.844,36.155c0,1.062,0.224,1.855,0.672,2.383
				c0.448,0.525,0.977,0.789,1.586,0.789c0.614,0,1.137-0.252,1.566-0.754c0.43-0.504,0.645-1.27,0.645-2.301
				c0-1.137-0.219-1.969-0.656-2.5s-0.977-0.797-1.617-0.797c-0.625,0-1.147,0.254-1.566,0.766
				C351.053,34.251,350.844,35.056,350.844,36.155z"/>
			<path fill="#3C3C3B" d="M358.812,30.46v-1.617h1.406v1.617H358.812z M358.812,40.296v-8.297h1.406v8.297H358.812z"/>
			<path fill="#3C3C3B" d="M367.742,40.296v-1.047c-0.526,0.822-1.3,1.234-2.32,1.234c-0.662,0-1.27-0.184-1.824-0.547
				c-0.555-0.365-0.984-0.875-1.289-1.527c-0.305-0.654-0.457-1.406-0.457-2.254c0-0.828,0.138-1.58,0.414-2.254
				c0.276-0.676,0.69-1.191,1.242-1.551c0.552-0.359,1.169-0.539,1.852-0.539c0.5,0,0.945,0.105,1.336,0.316
				s0.708,0.484,0.953,0.824v-4.109h1.398v11.453H367.742z M363.297,36.155c0,1.062,0.224,1.855,0.672,2.383
				c0.448,0.525,0.977,0.789,1.586,0.789c0.614,0,1.137-0.252,1.566-0.754c0.43-0.504,0.645-1.27,0.645-2.301
				c0-1.137-0.219-1.969-0.656-2.5s-0.977-0.797-1.617-0.797c-0.625,0-1.147,0.254-1.566,0.766
				C363.506,34.251,363.297,35.056,363.297,36.155z"/>
			<path fill="#3C3C3B" d="M376.672,39.272c-0.521,0.441-1.022,0.754-1.504,0.938c-0.482,0.182-0.999,0.273-1.551,0.273
				c-0.912,0-1.612-0.223-2.102-0.668c-0.49-0.445-0.734-1.016-0.734-1.707c0-0.406,0.092-0.777,0.277-1.113
				c0.185-0.336,0.427-0.605,0.727-0.809c0.299-0.203,0.637-0.357,1.012-0.461c0.276-0.074,0.692-0.145,1.25-0.211
				c1.135-0.137,1.971-0.297,2.508-0.484c0.005-0.193,0.008-0.316,0.008-0.367c0-0.574-0.133-0.977-0.398-1.211
				c-0.359-0.318-0.894-0.477-1.602-0.477c-0.662,0-1.15,0.115-1.465,0.348c-0.315,0.23-0.548,0.641-0.699,1.23l-1.375-0.188
				c0.125-0.59,0.331-1.064,0.617-1.426c0.286-0.363,0.7-0.641,1.242-0.836c0.542-0.195,1.169-0.293,1.883-0.293
				c0.708,0,1.284,0.082,1.727,0.25c0.442,0.166,0.768,0.375,0.977,0.629c0.208,0.252,0.354,0.57,0.438,0.957
				c0.047,0.238,0.07,0.672,0.07,1.297v1.875c0,1.307,0.03,2.133,0.09,2.48c0.06,0.346,0.178,0.678,0.355,0.996h-1.469
				C376.807,40.003,376.713,39.663,376.672,39.272z M376.555,36.132c-0.511,0.207-1.276,0.385-2.297,0.531
				c-0.578,0.082-0.987,0.176-1.227,0.281c-0.24,0.104-0.425,0.256-0.555,0.457c-0.13,0.199-0.195,0.422-0.195,0.668
				c0,0.375,0.142,0.688,0.426,0.938c0.284,0.25,0.699,0.375,1.246,0.375c0.542,0,1.023-0.119,1.445-0.355
				c0.422-0.238,0.731-0.562,0.93-0.973c0.151-0.318,0.227-0.787,0.227-1.406V36.132z"/>
			<path fill="#3C3C3B" d="M379.594,37.819l1.391-0.219c0.078,0.557,0.295,0.984,0.652,1.281c0.356,0.297,0.855,0.445,1.496,0.445
				c0.646,0,1.125-0.133,1.438-0.395c0.312-0.264,0.469-0.572,0.469-0.926c0-0.318-0.138-0.568-0.414-0.75
				c-0.193-0.125-0.672-0.285-1.438-0.477c-1.031-0.262-1.746-0.486-2.145-0.676c-0.398-0.191-0.701-0.453-0.906-0.789
				c-0.206-0.336-0.309-0.707-0.309-1.113c0-0.371,0.084-0.713,0.254-1.027c0.169-0.316,0.399-0.578,0.691-0.785
				c0.219-0.162,0.517-0.299,0.895-0.41c0.377-0.113,0.782-0.168,1.215-0.168c0.651,0,1.223,0.094,1.715,0.281
				s0.855,0.441,1.09,0.762s0.396,0.748,0.484,1.285l-1.375,0.188c-0.062-0.428-0.244-0.762-0.543-1
				c-0.3-0.24-0.723-0.359-1.27-0.359c-0.646,0-1.107,0.105-1.383,0.32c-0.276,0.213-0.414,0.463-0.414,0.75
				c0,0.182,0.057,0.346,0.172,0.492c0.114,0.15,0.294,0.275,0.539,0.375c0.141,0.051,0.555,0.172,1.242,0.359
				c0.995,0.266,1.688,0.482,2.082,0.652c0.393,0.168,0.702,0.414,0.926,0.738c0.224,0.322,0.336,0.723,0.336,1.203
				c0,0.469-0.137,0.91-0.41,1.324s-0.668,0.734-1.184,0.961s-1.099,0.34-1.75,0.34c-1.078,0-1.9-0.225-2.465-0.672
				C380.11,39.362,379.75,38.698,379.594,37.819z"/>
			<path fill="#3C3C3B" d="M398.016,37.257l1.383,0.18c-0.151,0.953-0.538,1.699-1.16,2.238c-0.623,0.539-1.387,0.809-2.293,0.809
				c-1.136,0-2.048-0.371-2.738-1.113c-0.69-0.742-1.035-1.807-1.035-3.191c0-0.896,0.148-1.68,0.445-2.352s0.749-1.176,1.355-1.512
				c0.606-0.336,1.267-0.504,1.98-0.504c0.901,0,1.638,0.227,2.211,0.684c0.573,0.455,0.94,1.102,1.102,1.941l-1.367,0.211
				c-0.13-0.559-0.361-0.977-0.691-1.258c-0.331-0.281-0.73-0.422-1.199-0.422c-0.708,0-1.284,0.254-1.727,0.762
				c-0.443,0.508-0.664,1.311-0.664,2.41c0,1.113,0.213,1.924,0.641,2.43c0.427,0.504,0.984,0.758,1.672,0.758
				c0.552,0,1.013-0.17,1.383-0.508C397.682,38.479,397.917,37.96,398.016,37.257z"/>
			<path fill="#3C3C3B" d="M406.016,39.272c-0.521,0.441-1.022,0.754-1.504,0.938c-0.482,0.182-0.999,0.273-1.551,0.273
				c-0.912,0-1.612-0.223-2.102-0.668c-0.49-0.445-0.734-1.016-0.734-1.707c0-0.406,0.092-0.777,0.277-1.113
				c0.185-0.336,0.427-0.605,0.727-0.809c0.299-0.203,0.637-0.357,1.012-0.461c0.276-0.074,0.692-0.145,1.25-0.211
				c1.135-0.137,1.971-0.297,2.508-0.484c0.005-0.193,0.008-0.316,0.008-0.367c0-0.574-0.133-0.977-0.398-1.211
				c-0.359-0.318-0.894-0.477-1.602-0.477c-0.662,0-1.15,0.115-1.465,0.348c-0.315,0.23-0.548,0.641-0.699,1.23l-1.375-0.188
				c0.125-0.59,0.331-1.064,0.617-1.426c0.286-0.363,0.7-0.641,1.242-0.836c0.542-0.195,1.169-0.293,1.883-0.293
				c0.708,0,1.284,0.082,1.727,0.25c0.442,0.166,0.768,0.375,0.977,0.629c0.208,0.252,0.354,0.57,0.438,0.957
				c0.047,0.238,0.07,0.672,0.07,1.297v1.875c0,1.307,0.03,2.133,0.09,2.48c0.06,0.346,0.178,0.678,0.355,0.996h-1.469
				C406.151,40.003,406.057,39.663,406.016,39.272z M405.898,36.132c-0.511,0.207-1.276,0.385-2.297,0.531
				c-0.578,0.082-0.987,0.176-1.227,0.281c-0.24,0.104-0.425,0.256-0.555,0.457c-0.13,0.199-0.195,0.422-0.195,0.668
				c0,0.375,0.142,0.688,0.426,0.938c0.284,0.25,0.699,0.375,1.246,0.375c0.542,0,1.023-0.119,1.445-0.355
				c0.422-0.238,0.731-0.562,0.93-0.973c0.151-0.318,0.227-0.787,0.227-1.406V36.132z"/>
			<path fill="#3C3C3B" d="M414.938,40.296v-1.219c-0.646,0.938-1.523,1.406-2.633,1.406c-0.49,0-0.947-0.094-1.371-0.281
				c-0.425-0.188-0.74-0.424-0.945-0.707c-0.206-0.285-0.351-0.633-0.434-1.043c-0.058-0.277-0.086-0.715-0.086-1.312v-5.141h1.406
				v4.602c0,0.734,0.028,1.229,0.086,1.484c0.088,0.369,0.276,0.66,0.562,0.871c0.286,0.211,0.641,0.316,1.062,0.316
				s0.817-0.109,1.188-0.324c0.37-0.217,0.631-0.512,0.785-0.883c0.153-0.373,0.23-0.914,0.23-1.621v-4.445h1.406v8.297H414.938z"/>
			<path fill="#3C3C3B" d="M421.469,39.038l0.203,1.242c-0.396,0.082-0.75,0.125-1.062,0.125c-0.511,0-0.906-0.082-1.188-0.242
				c-0.281-0.162-0.479-0.375-0.594-0.637c-0.115-0.264-0.172-0.816-0.172-1.66v-4.773h-1.031v-1.094h1.031v-2.055l1.398-0.844
				v2.898h1.414v1.094h-1.414v4.852c0,0.4,0.024,0.658,0.074,0.773c0.049,0.113,0.13,0.205,0.242,0.273
				c0.112,0.066,0.272,0.102,0.48,0.102C421.008,39.093,421.213,39.073,421.469,39.038z"/>
			<path fill="#3C3C3B" d="M428.523,37.624l1.453,0.18c-0.229,0.848-0.654,1.508-1.273,1.977c-0.62,0.469-1.412,0.703-2.375,0.703
				c-1.214,0-2.176-0.375-2.887-1.121c-0.711-0.748-1.066-1.797-1.066-3.145c0-1.396,0.359-2.48,1.078-3.25
				c0.719-0.771,1.651-1.156,2.797-1.156c1.109,0,2.016,0.377,2.719,1.133c0.703,0.754,1.055,1.816,1.055,3.188
				c0,0.082-0.003,0.207-0.008,0.375h-6.188c0.052,0.91,0.31,1.609,0.773,2.094c0.463,0.484,1.042,0.727,1.734,0.727
				c0.516,0,0.956-0.137,1.32-0.406C428.021,38.649,428.31,38.218,428.523,37.624z M423.906,35.351h4.633
				c-0.062-0.699-0.24-1.223-0.531-1.57c-0.448-0.543-1.029-0.812-1.742-0.812c-0.646,0-1.189,0.215-1.629,0.648
				C424.196,34.048,423.953,34.626,423.906,35.351z"/>
			<path fill="#3C3C3B" d="M431.711,40.296V28.843h1.406v11.453H431.711z"/>
			<path fill="#3C3C3B" d="M440.711,39.272c-0.521,0.441-1.022,0.754-1.504,0.938c-0.482,0.182-0.999,0.273-1.551,0.273
				c-0.912,0-1.612-0.223-2.102-0.668c-0.49-0.445-0.734-1.016-0.734-1.707c0-0.406,0.092-0.777,0.277-1.113
				c0.185-0.336,0.427-0.605,0.727-0.809c0.299-0.203,0.637-0.357,1.012-0.461c0.276-0.074,0.692-0.145,1.25-0.211
				c1.135-0.137,1.971-0.297,2.508-0.484c0.005-0.193,0.008-0.316,0.008-0.367c0-0.574-0.133-0.977-0.398-1.211
				c-0.359-0.318-0.894-0.477-1.602-0.477c-0.662,0-1.15,0.115-1.465,0.348c-0.315,0.23-0.548,0.641-0.699,1.23l-1.375-0.188
				c0.125-0.59,0.331-1.064,0.617-1.426c0.286-0.363,0.7-0.641,1.242-0.836c0.542-0.195,1.169-0.293,1.883-0.293
				c0.708,0,1.284,0.082,1.727,0.25c0.442,0.166,0.768,0.375,0.977,0.629c0.208,0.252,0.354,0.57,0.438,0.957
				c0.047,0.238,0.07,0.672,0.07,1.297v1.875c0,1.307,0.03,2.133,0.09,2.48c0.06,0.346,0.178,0.678,0.355,0.996h-1.469
				C440.846,40.003,440.752,39.663,440.711,39.272z M440.594,36.132c-0.511,0.207-1.276,0.385-2.297,0.531
				c-0.578,0.082-0.987,0.176-1.227,0.281c-0.24,0.104-0.425,0.256-0.555,0.457c-0.13,0.199-0.195,0.422-0.195,0.668
				c0,0.375,0.142,0.688,0.426,0.938c0.284,0.25,0.699,0.375,1.246,0.375c0.542,0,1.023-0.119,1.445-0.355
				c0.422-0.238,0.731-0.562,0.93-0.973c0.151-0.318,0.227-0.787,0.227-1.406V36.132z"/>
			<path fill="#3C3C3B" d="M444.18,40.296v-8.297h1.266v1.258c0.323-0.59,0.621-0.977,0.895-1.164s0.574-0.281,0.902-0.281
				c0.474,0,0.956,0.15,1.445,0.453l-0.484,1.305c-0.344-0.203-0.688-0.305-1.031-0.305c-0.308,0-0.583,0.092-0.828,0.277
				c-0.245,0.184-0.419,0.441-0.523,0.77c-0.156,0.5-0.234,1.047-0.234,1.641v4.344H444.18z"/>
			<path fill="#3C3C3B" d="M455.203,37.624l1.453,0.18c-0.229,0.848-0.654,1.508-1.273,1.977c-0.62,0.469-1.412,0.703-2.375,0.703
				c-1.214,0-2.176-0.375-2.887-1.121c-0.711-0.748-1.066-1.797-1.066-3.145c0-1.396,0.359-2.48,1.078-3.25
				c0.719-0.771,1.651-1.156,2.797-1.156c1.109,0,2.016,0.377,2.719,1.133c0.703,0.754,1.055,1.816,1.055,3.188
				c0,0.082-0.003,0.207-0.008,0.375h-6.188c0.052,0.91,0.31,1.609,0.773,2.094c0.463,0.484,1.042,0.727,1.734,0.727
				c0.516,0,0.956-0.137,1.32-0.406C454.7,38.649,454.989,38.218,455.203,37.624z M450.586,35.351h4.633
				c-0.062-0.699-0.24-1.223-0.531-1.57c-0.448-0.543-1.029-0.812-1.742-0.812c-0.646,0-1.189,0.215-1.629,0.648
				C450.876,34.048,450.633,34.626,450.586,35.351z"/>
			<path fill="#3C3C3B" d="M457.859,37.819l1.391-0.219c0.078,0.557,0.295,0.984,0.652,1.281c0.356,0.297,0.855,0.445,1.496,0.445
				c0.646,0,1.125-0.133,1.438-0.395c0.312-0.264,0.469-0.572,0.469-0.926c0-0.318-0.138-0.568-0.414-0.75
				c-0.193-0.125-0.672-0.285-1.438-0.477c-1.031-0.262-1.746-0.486-2.145-0.676c-0.398-0.191-0.701-0.453-0.906-0.789
				c-0.206-0.336-0.309-0.707-0.309-1.113c0-0.371,0.084-0.713,0.254-1.027c0.169-0.316,0.399-0.578,0.691-0.785
				c0.219-0.162,0.517-0.299,0.895-0.41c0.377-0.113,0.782-0.168,1.215-0.168c0.651,0,1.223,0.094,1.715,0.281
				s0.855,0.441,1.09,0.762s0.396,0.748,0.484,1.285l-1.375,0.188c-0.062-0.428-0.244-0.762-0.543-1
				c-0.3-0.24-0.723-0.359-1.27-0.359c-0.646,0-1.107,0.105-1.383,0.32c-0.276,0.213-0.414,0.463-0.414,0.75
				c0,0.182,0.057,0.346,0.172,0.492c0.114,0.15,0.294,0.275,0.539,0.375c0.141,0.051,0.555,0.172,1.242,0.359
				c0.995,0.266,1.688,0.482,2.082,0.652c0.393,0.168,0.702,0.414,0.926,0.738c0.224,0.322,0.336,0.723,0.336,1.203
				c0,0.469-0.137,0.91-0.41,1.324s-0.668,0.734-1.184,0.961s-1.099,0.34-1.75,0.34c-1.078,0-1.9-0.225-2.465-0.672
				C458.376,39.362,458.016,38.698,457.859,37.819z"/>
			<path fill="#3C3C3B" d="M479.219,36.28l1.516,0.383c-0.318,1.244-0.89,2.193-1.715,2.848c-0.826,0.652-1.835,0.98-3.027,0.98
				c-1.234,0-2.238-0.252-3.012-0.754c-0.773-0.504-1.362-1.23-1.766-2.184c-0.404-0.953-0.605-1.977-0.605-3.07
				c0-1.193,0.228-2.234,0.684-3.121c0.456-0.889,1.104-1.562,1.945-2.023c0.841-0.461,1.767-0.691,2.777-0.691
				c1.146,0,2.109,0.291,2.891,0.875c0.781,0.582,1.325,1.402,1.633,2.461l-1.492,0.352c-0.266-0.834-0.651-1.441-1.156-1.82
				c-0.505-0.381-1.141-0.57-1.906-0.57c-0.88,0-1.616,0.211-2.207,0.633c-0.591,0.422-1.007,0.988-1.246,1.699
				c-0.24,0.711-0.359,1.443-0.359,2.199c0,0.973,0.142,1.824,0.426,2.551c0.284,0.727,0.725,1.27,1.324,1.629
				c0.599,0.359,1.247,0.539,1.945,0.539c0.849,0,1.567-0.246,2.156-0.734C478.612,37.97,479.01,37.243,479.219,36.28z"/>
			<path fill="#3C3C3B" d="M482.859,40.296V28.843h1.516v11.453H482.859z"/>
			<path fill="#3C3C3B" d="M487.047,40.296V28.843h3.945c0.891,0,1.57,0.055,2.039,0.164c0.656,0.15,1.216,0.424,1.68,0.82
				c0.604,0.51,1.056,1.162,1.355,1.957c0.299,0.793,0.449,1.701,0.449,2.723c0,0.869-0.102,1.641-0.305,2.312
				s-0.464,1.227-0.781,1.668c-0.318,0.439-0.666,0.785-1.043,1.039c-0.378,0.252-0.833,0.443-1.367,0.574
				c-0.534,0.129-1.147,0.195-1.84,0.195H487.047z M488.562,38.944h2.445c0.755,0,1.348-0.07,1.777-0.211s0.772-0.34,1.027-0.594
				c0.359-0.359,0.639-0.844,0.84-1.449c0.2-0.607,0.301-1.344,0.301-2.207c0-1.199-0.197-2.119-0.59-2.762
				c-0.394-0.645-0.871-1.074-1.434-1.293c-0.406-0.156-1.06-0.234-1.961-0.234h-2.406V38.944z"/>
			<path fill="#3C3C3B" d="M498.648,40.296V28.843h1.516v4.703h5.953v-4.703h1.516v11.453h-1.516v-5.398h-5.953v5.398H498.648z"/>
			<path fill="#3C3C3B" d="M513.336,36.718v-1.133h8.898v1.133H513.336z"/>
			<path fill="#3C3C3B" d="M527.43,36.616l1.43-0.125c0.067,0.572,0.225,1.043,0.473,1.41c0.247,0.367,0.631,0.664,1.152,0.891
				c0.521,0.227,1.106,0.34,1.758,0.34c0.578,0,1.088-0.086,1.531-0.258c0.442-0.172,0.772-0.408,0.988-0.707
				c0.216-0.301,0.324-0.627,0.324-0.98c0-0.359-0.104-0.674-0.312-0.941c-0.208-0.27-0.552-0.494-1.031-0.676
				c-0.308-0.121-0.987-0.307-2.039-0.559c-1.052-0.254-1.789-0.492-2.211-0.715c-0.547-0.287-0.955-0.643-1.223-1.066
				c-0.269-0.426-0.402-0.9-0.402-1.426c0-0.578,0.164-1.119,0.492-1.621c0.328-0.504,0.807-0.885,1.438-1.145
				c0.63-0.262,1.331-0.391,2.102-0.391c0.849,0,1.598,0.137,2.246,0.41s1.147,0.676,1.496,1.207
				c0.349,0.531,0.536,1.133,0.562,1.805l-1.453,0.109c-0.078-0.725-0.343-1.271-0.793-1.641c-0.451-0.371-1.116-0.555-1.996-0.555
				c-0.917,0-1.585,0.168-2.004,0.504c-0.419,0.336-0.629,0.74-0.629,1.215c0,0.41,0.148,0.75,0.445,1.016
				c0.292,0.266,1.053,0.537,2.285,0.816c1.231,0.277,2.077,0.521,2.535,0.73c0.667,0.307,1.159,0.695,1.477,1.168
				c0.317,0.471,0.477,1.014,0.477,1.629c0,0.609-0.175,1.184-0.523,1.723c-0.349,0.539-0.851,0.957-1.504,1.258
				c-0.654,0.299-1.39,0.449-2.207,0.449c-1.037,0-1.905-0.152-2.605-0.453c-0.701-0.303-1.25-0.758-1.648-1.363
				C527.66,38.067,527.45,37.382,527.43,36.616z"/>
			<path fill="#3C3C3B" d="M538.445,30.46v-1.617h1.406v1.617H538.445z M538.445,40.296v-8.297h1.406v8.297H538.445z"/>
			<path fill="#3C3C3B" d="M541.992,40.296v-8.297h1.266v1.18c0.609-0.912,1.489-1.367,2.641-1.367c0.5,0,0.959,0.09,1.379,0.27
				c0.419,0.18,0.733,0.414,0.941,0.707c0.208,0.291,0.354,0.637,0.438,1.039c0.052,0.26,0.078,0.715,0.078,1.367v5.102h-1.406
				v-5.047c0-0.574-0.055-1.002-0.164-1.285c-0.109-0.285-0.304-0.512-0.582-0.68c-0.279-0.17-0.605-0.254-0.98-0.254
				c-0.599,0-1.116,0.189-1.551,0.57c-0.435,0.379-0.652,1.102-0.652,2.164v4.531H541.992z"/>
			<path fill="#3C3C3B" d="M556.273,40.296v-1.047c-0.526,0.822-1.3,1.234-2.32,1.234c-0.662,0-1.27-0.184-1.824-0.547
				c-0.555-0.365-0.984-0.875-1.289-1.527c-0.305-0.654-0.457-1.406-0.457-2.254c0-0.828,0.138-1.58,0.414-2.254
				c0.276-0.676,0.69-1.191,1.242-1.551c0.552-0.359,1.169-0.539,1.852-0.539c0.5,0,0.945,0.105,1.336,0.316
				s0.708,0.484,0.953,0.824v-4.109h1.398v11.453H556.273z M551.828,36.155c0,1.062,0.224,1.855,0.672,2.383
				c0.448,0.525,0.977,0.789,1.586,0.789c0.614,0,1.137-0.252,1.566-0.754c0.43-0.504,0.645-1.27,0.645-2.301
				c0-1.137-0.219-1.969-0.656-2.5s-0.977-0.797-1.617-0.797c-0.625,0-1.147,0.254-1.566,0.766
				C552.038,34.251,551.828,35.056,551.828,36.155z"/>
			<path fill="#3C3C3B" d="M559.797,30.46v-1.617h1.406v1.617H559.797z M559.797,40.296v-8.297h1.406v8.297H559.797z"/>
			<path fill="#3C3C3B" d="M568.758,37.257l1.383,0.18c-0.151,0.953-0.538,1.699-1.16,2.238c-0.623,0.539-1.387,0.809-2.293,0.809
				c-1.136,0-2.048-0.371-2.738-1.113c-0.69-0.742-1.035-1.807-1.035-3.191c0-0.896,0.148-1.68,0.445-2.352s0.749-1.176,1.355-1.512
				c0.606-0.336,1.267-0.504,1.98-0.504c0.901,0,1.638,0.227,2.211,0.684c0.573,0.455,0.94,1.102,1.102,1.941l-1.367,0.211
				c-0.13-0.559-0.361-0.977-0.691-1.258c-0.331-0.281-0.73-0.422-1.199-0.422c-0.708,0-1.284,0.254-1.727,0.762
				c-0.443,0.508-0.664,1.311-0.664,2.41c0,1.113,0.213,1.924,0.641,2.43c0.427,0.504,0.984,0.758,1.672,0.758
				c0.552,0,1.013-0.17,1.383-0.508C568.424,38.479,568.659,37.96,568.758,37.257z"/>
			<path fill="#3C3C3B" d="M576.758,39.272c-0.521,0.441-1.022,0.754-1.504,0.938c-0.482,0.182-0.999,0.273-1.551,0.273
				c-0.912,0-1.612-0.223-2.102-0.668c-0.49-0.445-0.734-1.016-0.734-1.707c0-0.406,0.092-0.777,0.277-1.113
				c0.185-0.336,0.427-0.605,0.727-0.809c0.299-0.203,0.637-0.357,1.012-0.461c0.276-0.074,0.692-0.145,1.25-0.211
				c1.135-0.137,1.971-0.297,2.508-0.484c0.005-0.193,0.008-0.316,0.008-0.367c0-0.574-0.133-0.977-0.398-1.211
				c-0.359-0.318-0.894-0.477-1.602-0.477c-0.662,0-1.15,0.115-1.465,0.348c-0.315,0.23-0.548,0.641-0.699,1.23l-1.375-0.188
				c0.125-0.59,0.331-1.064,0.617-1.426c0.286-0.363,0.7-0.641,1.242-0.836c0.542-0.195,1.169-0.293,1.883-0.293
				c0.708,0,1.284,0.082,1.727,0.25c0.442,0.166,0.768,0.375,0.977,0.629c0.208,0.252,0.354,0.57,0.438,0.957
				c0.047,0.238,0.07,0.672,0.07,1.297v1.875c0,1.307,0.03,2.133,0.09,2.48c0.06,0.346,0.178,0.678,0.355,0.996h-1.469
				C576.893,40.003,576.799,39.663,576.758,39.272z M576.641,36.132c-0.511,0.207-1.276,0.385-2.297,0.531
				c-0.578,0.082-0.987,0.176-1.227,0.281c-0.24,0.104-0.425,0.256-0.555,0.457c-0.13,0.199-0.195,0.422-0.195,0.668
				c0,0.375,0.142,0.688,0.426,0.938c0.284,0.25,0.699,0.375,1.246,0.375c0.542,0,1.023-0.119,1.445-0.355
				c0.422-0.238,0.731-0.562,0.93-0.973c0.151-0.318,0.227-0.787,0.227-1.406V36.132z"/>
			<path fill="#3C3C3B" d="M580.211,40.296V28.843h1.406v11.453H580.211z"/>
			<path fill="#3C3C3B" d="M583.805,30.46v-1.617h1.406v1.617H583.805z M583.805,40.296v-8.297h1.406v8.297H583.805z"/>
			<path fill="#3C3C3B" d="M586.789,37.819l1.391-0.219c0.078,0.557,0.295,0.984,0.652,1.281c0.356,0.297,0.855,0.445,1.496,0.445
				c0.646,0,1.125-0.133,1.438-0.395c0.312-0.264,0.469-0.572,0.469-0.926c0-0.318-0.138-0.568-0.414-0.75
				c-0.193-0.125-0.672-0.285-1.438-0.477c-1.031-0.262-1.746-0.486-2.145-0.676c-0.398-0.191-0.701-0.453-0.906-0.789
				c-0.206-0.336-0.309-0.707-0.309-1.113c0-0.371,0.084-0.713,0.254-1.027c0.169-0.316,0.399-0.578,0.691-0.785
				c0.219-0.162,0.517-0.299,0.895-0.41c0.377-0.113,0.782-0.168,1.215-0.168c0.651,0,1.223,0.094,1.715,0.281
				s0.855,0.441,1.09,0.762s0.396,0.748,0.484,1.285l-1.375,0.188c-0.062-0.428-0.244-0.762-0.543-1
				c-0.3-0.24-0.723-0.359-1.27-0.359c-0.646,0-1.107,0.105-1.383,0.32c-0.276,0.213-0.414,0.463-0.414,0.75
				c0,0.182,0.057,0.346,0.172,0.492c0.114,0.15,0.294,0.275,0.539,0.375c0.141,0.051,0.555,0.172,1.242,0.359
				c0.995,0.266,1.688,0.482,2.082,0.652c0.393,0.168,0.702,0.414,0.926,0.738c0.224,0.322,0.336,0.723,0.336,1.203
				c0,0.469-0.137,0.91-0.41,1.324s-0.668,0.734-1.184,0.961s-1.099,0.34-1.75,0.34c-1.078,0-1.9-0.225-2.465-0.672
				C587.306,39.362,586.945,38.698,586.789,37.819z"/>
			<path fill="#3C3C3B" d="M598.422,39.038l0.203,1.242c-0.396,0.082-0.75,0.125-1.062,0.125c-0.511,0-0.906-0.082-1.188-0.242
				c-0.281-0.162-0.479-0.375-0.594-0.637c-0.115-0.264-0.172-0.816-0.172-1.66v-4.773h-1.031v-1.094h1.031v-2.055l1.398-0.844
				v2.898h1.414v1.094h-1.414v4.852c0,0.4,0.024,0.658,0.074,0.773c0.049,0.113,0.13,0.205,0.242,0.273
				c0.112,0.066,0.272,0.102,0.48,0.102C597.961,39.093,598.167,39.073,598.422,39.038z"/>
			<path fill="#3C3C3B" d="M605.211,39.272c-0.521,0.441-1.022,0.754-1.504,0.938c-0.482,0.182-0.999,0.273-1.551,0.273
				c-0.912,0-1.612-0.223-2.102-0.668c-0.49-0.445-0.734-1.016-0.734-1.707c0-0.406,0.092-0.777,0.277-1.113
				c0.185-0.336,0.427-0.605,0.727-0.809c0.299-0.203,0.637-0.357,1.012-0.461c0.276-0.074,0.692-0.145,1.25-0.211
				c1.135-0.137,1.971-0.297,2.508-0.484c0.005-0.193,0.008-0.316,0.008-0.367c0-0.574-0.133-0.977-0.398-1.211
				c-0.359-0.318-0.894-0.477-1.602-0.477c-0.662,0-1.15,0.115-1.465,0.348c-0.315,0.23-0.548,0.641-0.699,1.23l-1.375-0.188
				c0.125-0.59,0.331-1.064,0.617-1.426c0.286-0.363,0.7-0.641,1.242-0.836c0.542-0.195,1.169-0.293,1.883-0.293
				c0.708,0,1.284,0.082,1.727,0.25c0.442,0.166,0.768,0.375,0.977,0.629c0.208,0.252,0.354,0.57,0.438,0.957
				c0.047,0.238,0.07,0.672,0.07,1.297v1.875c0,1.307,0.03,2.133,0.09,2.48c0.06,0.346,0.178,0.678,0.355,0.996h-1.469
				C605.346,40.003,605.252,39.663,605.211,39.272z M605.094,36.132c-0.511,0.207-1.276,0.385-2.297,0.531
				c-0.578,0.082-0.987,0.176-1.227,0.281c-0.24,0.104-0.425,0.256-0.555,0.457c-0.13,0.199-0.195,0.422-0.195,0.668
				c0,0.375,0.142,0.688,0.426,0.938c0.284,0.25,0.699,0.375,1.246,0.375c0.542,0,1.023-0.119,1.445-0.355
				c0.422-0.238,0.731-0.562,0.93-0.973c0.151-0.318,0.227-0.787,0.227-1.406V36.132z"/>
			<path fill="#3C3C3B" d="M608.133,37.819l1.391-0.219c0.078,0.557,0.295,0.984,0.652,1.281c0.356,0.297,0.855,0.445,1.496,0.445
				c0.646,0,1.125-0.133,1.438-0.395c0.312-0.264,0.469-0.572,0.469-0.926c0-0.318-0.138-0.568-0.414-0.75
				c-0.193-0.125-0.672-0.285-1.438-0.477c-1.031-0.262-1.746-0.486-2.145-0.676c-0.398-0.191-0.701-0.453-0.906-0.789
				c-0.206-0.336-0.309-0.707-0.309-1.113c0-0.371,0.084-0.713,0.254-1.027c0.169-0.316,0.399-0.578,0.691-0.785
				c0.219-0.162,0.517-0.299,0.895-0.41c0.377-0.113,0.782-0.168,1.215-0.168c0.651,0,1.223,0.094,1.715,0.281
				s0.855,0.441,1.09,0.762s0.396,0.748,0.484,1.285l-1.375,0.188c-0.062-0.428-0.244-0.762-0.543-1
				c-0.3-0.24-0.723-0.359-1.27-0.359c-0.646,0-1.107,0.105-1.383,0.32c-0.276,0.213-0.414,0.463-0.414,0.75
				c0,0.182,0.057,0.346,0.172,0.492c0.114,0.15,0.294,0.275,0.539,0.375c0.141,0.051,0.555,0.172,1.242,0.359
				c0.995,0.266,1.688,0.482,2.082,0.652c0.393,0.168,0.702,0.414,0.926,0.738c0.224,0.322,0.336,0.723,0.336,1.203
				c0,0.469-0.137,0.91-0.41,1.324s-0.668,0.734-1.184,0.961s-1.099,0.34-1.75,0.34c-1.078,0-1.9-0.225-2.465-0.672
				C608.649,39.362,608.289,38.698,608.133,37.819z"/>
			<path fill="#3C3C3B" d="M327.617,62.69l-0.156-1.32c0.307,0.084,0.575,0.125,0.805,0.125c0.312,0,0.562-0.051,0.75-0.156
				c0.188-0.104,0.341-0.25,0.461-0.438c0.088-0.141,0.231-0.488,0.43-1.047c0.026-0.078,0.067-0.191,0.125-0.344l-3.148-8.312
				h1.516l1.727,4.805c0.224,0.609,0.424,1.25,0.602,1.922c0.161-0.645,0.354-1.275,0.578-1.891l1.773-4.836h1.406l-3.156,8.438
				c-0.339,0.912-0.602,1.539-0.789,1.883c-0.25,0.465-0.537,0.805-0.859,1.02c-0.323,0.217-0.708,0.324-1.156,0.324
				C328.252,62.862,327.95,62.806,327.617,62.69z"/>
			<path fill="#3C3C3B" d="M339.844,53.917c0-1.9,0.51-3.389,1.531-4.465c1.021-1.074,2.338-1.613,3.953-1.613
				c1.057,0,2.01,0.254,2.859,0.758c0.849,0.506,1.496,1.211,1.941,2.113c0.445,0.904,0.668,1.93,0.668,3.074
				c0,1.162-0.234,2.201-0.703,3.117c-0.469,0.918-1.133,1.611-1.992,2.082c-0.859,0.473-1.787,0.707-2.781,0.707
				c-1.078,0-2.042-0.26-2.891-0.781c-0.849-0.52-1.492-1.23-1.93-2.133C340.062,55.876,339.844,54.923,339.844,53.917z
				 M341.406,53.94c0,1.381,0.371,2.469,1.113,3.262c0.742,0.795,1.673,1.191,2.793,1.191c1.141,0,2.079-0.4,2.816-1.203
				c0.737-0.801,1.105-1.939,1.105-3.414c0-0.932-0.158-1.746-0.473-2.441c-0.315-0.695-0.776-1.234-1.383-1.617
				c-0.607-0.383-1.288-0.574-2.043-0.574c-1.073,0-1.996,0.369-2.77,1.105C341.793,50.987,341.406,52.218,341.406,53.94z"/>
			<path fill="#3C3C3B" d="M352.57,59.495v-8.297h1.266v1.18c0.609-0.91,1.489-1.367,2.641-1.367c0.5,0,0.959,0.09,1.379,0.27
				c0.419,0.18,0.733,0.416,0.941,0.707c0.208,0.293,0.354,0.639,0.438,1.039c0.052,0.262,0.078,0.717,0.078,1.367v5.102h-1.406
				v-5.047c0-0.572-0.055-1-0.164-1.285c-0.109-0.283-0.304-0.51-0.582-0.68c-0.279-0.168-0.605-0.254-0.98-0.254
				c-0.599,0-1.116,0.191-1.551,0.57c-0.435,0.381-0.652,1.102-0.652,2.164v4.531H352.57z"/>
			<path fill="#3C3C3B" d="M361.211,60.183l1.367,0.203c0.057,0.422,0.216,0.73,0.477,0.922c0.349,0.262,0.825,0.391,1.43,0.391
				c0.651,0,1.153-0.129,1.508-0.391c0.354-0.26,0.594-0.625,0.719-1.094c0.073-0.285,0.106-0.887,0.102-1.805
				c-0.615,0.725-1.38,1.086-2.297,1.086c-1.141,0-2.023-0.41-2.648-1.234c-0.625-0.822-0.938-1.809-0.938-2.961
				c0-0.791,0.143-1.521,0.43-2.191c0.286-0.668,0.702-1.186,1.246-1.551c0.544-0.363,1.184-0.547,1.918-0.547
				c0.979,0,1.786,0.396,2.422,1.188v-1h1.297v7.172c0,1.293-0.132,2.207-0.395,2.746c-0.263,0.539-0.68,0.965-1.25,1.277
				s-1.272,0.469-2.105,0.469c-0.99,0-1.789-0.223-2.398-0.668S361.19,61.079,361.211,60.183z M362.375,55.198
				c0,1.09,0.216,1.883,0.648,2.383c0.432,0.5,0.974,0.75,1.625,0.75c0.646,0,1.188-0.248,1.625-0.746
				c0.438-0.496,0.656-1.277,0.656-2.34c0-1.016-0.226-1.781-0.676-2.297c-0.451-0.516-0.994-0.773-1.629-0.773
				c-0.625,0-1.156,0.254-1.594,0.762S362.375,54.198,362.375,55.198z"/>
			<path fill="#3C3C3B" d="M380.195,59.495v-1.047c-0.526,0.824-1.3,1.234-2.32,1.234c-0.662,0-1.27-0.182-1.824-0.547
				c-0.555-0.363-0.984-0.873-1.289-1.527c-0.305-0.652-0.457-1.404-0.457-2.254c0-0.828,0.138-1.578,0.414-2.254
				c0.276-0.674,0.69-1.191,1.242-1.551c0.552-0.359,1.169-0.539,1.852-0.539c0.5,0,0.945,0.105,1.336,0.316
				s0.708,0.486,0.953,0.824v-4.109h1.398v11.453H380.195z M375.75,55.354c0,1.062,0.224,1.857,0.672,2.383
				c0.448,0.527,0.977,0.789,1.586,0.789c0.614,0,1.137-0.25,1.566-0.754c0.43-0.502,0.645-1.27,0.645-2.301
				c0-1.135-0.219-1.969-0.656-2.5s-0.977-0.797-1.617-0.797c-0.625,0-1.147,0.256-1.566,0.766
				C375.959,53.452,375.75,54.257,375.75,55.354z"/>
			<path fill="#3C3C3B" d="M389.391,56.823l1.453,0.18c-0.229,0.85-0.654,1.508-1.273,1.977c-0.62,0.469-1.412,0.703-2.375,0.703
				c-1.214,0-2.176-0.373-2.887-1.121c-0.711-0.746-1.066-1.795-1.066-3.145c0-1.395,0.359-2.479,1.078-3.25
				c0.719-0.77,1.651-1.156,2.797-1.156c1.109,0,2.016,0.379,2.719,1.133c0.703,0.756,1.055,1.818,1.055,3.188
				c0,0.084-0.003,0.209-0.008,0.375h-6.188c0.052,0.912,0.31,1.609,0.773,2.094c0.463,0.484,1.042,0.727,1.734,0.727
				c0.516,0,0.956-0.135,1.32-0.406C388.888,57.851,389.177,57.417,389.391,56.823z M384.773,54.55h4.633
				c-0.062-0.697-0.24-1.221-0.531-1.57c-0.448-0.541-1.029-0.812-1.742-0.812c-0.646,0-1.189,0.217-1.629,0.648
				C385.063,53.249,384.82,53.827,384.773,54.55z"/>
			<path fill="#3C3C3B" d="M397.234,59.495V48.042h3.945c0.891,0,1.57,0.055,2.039,0.164c0.656,0.152,1.216,0.426,1.68,0.82
				c0.604,0.512,1.056,1.164,1.355,1.957c0.299,0.795,0.449,1.703,0.449,2.723c0,0.871-0.102,1.641-0.305,2.312
				s-0.464,1.229-0.781,1.668c-0.318,0.441-0.666,0.787-1.043,1.039c-0.378,0.254-0.833,0.445-1.367,0.574
				c-0.534,0.131-1.147,0.195-1.84,0.195H397.234z M398.75,58.144h2.445c0.755,0,1.348-0.07,1.777-0.211s0.772-0.338,1.027-0.594
				c0.359-0.359,0.639-0.842,0.84-1.449c0.2-0.605,0.301-1.342,0.301-2.207c0-1.197-0.197-2.117-0.59-2.762
				c-0.394-0.643-0.871-1.074-1.434-1.293c-0.406-0.156-1.06-0.234-1.961-0.234h-2.406V58.144z"/>
			<path fill="#3C3C3B" d="M408.789,59.495V48.042h3.945c0.891,0,1.57,0.055,2.039,0.164c0.656,0.152,1.216,0.426,1.68,0.82
				c0.604,0.512,1.056,1.164,1.355,1.957c0.299,0.795,0.449,1.703,0.449,2.723c0,0.871-0.102,1.641-0.305,2.312
				s-0.464,1.229-0.781,1.668c-0.318,0.441-0.666,0.787-1.043,1.039c-0.378,0.254-0.833,0.445-1.367,0.574
				c-0.534,0.131-1.147,0.195-1.84,0.195H408.789z M410.305,58.144h2.445c0.755,0,1.348-0.07,1.777-0.211s0.772-0.338,1.027-0.594
				c0.359-0.359,0.639-0.842,0.84-1.449c0.2-0.605,0.301-1.342,0.301-2.207c0-1.197-0.197-2.117-0.59-2.762
				c-0.394-0.643-0.871-1.074-1.434-1.293c-0.406-0.156-1.06-0.234-1.961-0.234h-2.406V58.144z"/>
			<path fill="#3C3C3B" d="M420.391,59.495V48.042h1.516v4.703h5.953v-4.703h1.516v11.453h-1.516v-5.398h-5.953v5.398H420.391z"/>
			<path fill="#3C3C3B" d="M431.945,59.495V48.042h1.516v4.703h5.953v-4.703h1.516v11.453h-1.516v-5.398h-5.953v5.398H431.945z"/>
			<path fill="#3C3C3B" d="M327.344,75.015l1.43-0.125c0.067,0.574,0.225,1.043,0.473,1.41c0.247,0.367,0.631,0.664,1.152,0.891
				c0.521,0.227,1.106,0.34,1.758,0.34c0.578,0,1.088-0.086,1.531-0.258c0.442-0.172,0.772-0.406,0.988-0.707
				c0.216-0.299,0.324-0.625,0.324-0.98c0-0.359-0.104-0.672-0.312-0.941c-0.208-0.268-0.552-0.492-1.031-0.676
				c-0.308-0.119-0.987-0.305-2.039-0.559c-1.052-0.252-1.789-0.49-2.211-0.715c-0.547-0.285-0.955-0.641-1.223-1.066
				c-0.269-0.424-0.402-0.898-0.402-1.426c0-0.578,0.164-1.117,0.492-1.621c0.328-0.502,0.807-0.883,1.438-1.145
				c0.63-0.26,1.331-0.391,2.102-0.391c0.849,0,1.598,0.137,2.246,0.41s1.147,0.676,1.496,1.207
				c0.349,0.531,0.536,1.133,0.562,1.805l-1.453,0.109c-0.078-0.723-0.343-1.27-0.793-1.641c-0.451-0.369-1.116-0.555-1.996-0.555
				c-0.917,0-1.585,0.168-2.004,0.504c-0.419,0.336-0.629,0.742-0.629,1.215c0,0.412,0.148,0.75,0.445,1.016
				c0.292,0.266,1.053,0.539,2.285,0.816c1.231,0.279,2.077,0.523,2.535,0.73c0.667,0.309,1.159,0.697,1.477,1.168
				c0.317,0.473,0.477,1.016,0.477,1.629c0,0.609-0.175,1.184-0.523,1.723c-0.349,0.539-0.851,0.959-1.504,1.258
				c-0.654,0.301-1.39,0.449-2.207,0.449c-1.037,0-1.905-0.15-2.605-0.453c-0.701-0.301-1.25-0.756-1.648-1.363
				C327.574,76.468,327.364,75.78,327.344,75.015z"/>
			<path fill="#3C3C3B" d="M344.031,76.022l1.453,0.18c-0.229,0.85-0.654,1.508-1.273,1.977c-0.62,0.469-1.412,0.703-2.375,0.703
				c-1.214,0-2.176-0.373-2.887-1.121c-0.711-0.746-1.066-1.795-1.066-3.145c0-1.395,0.359-2.479,1.078-3.25
				c0.719-0.77,1.651-1.156,2.797-1.156c1.109,0,2.016,0.379,2.719,1.133c0.703,0.756,1.055,1.818,1.055,3.188
				c0,0.084-0.003,0.209-0.008,0.375h-6.188c0.052,0.912,0.31,1.609,0.773,2.094c0.463,0.484,1.042,0.727,1.734,0.727
				c0.516,0,0.956-0.135,1.32-0.406C343.528,77.05,343.817,76.616,344.031,76.022z M339.414,73.749h4.633
				c-0.062-0.697-0.24-1.221-0.531-1.57c-0.448-0.541-1.029-0.812-1.742-0.812c-0.646,0-1.189,0.217-1.629,0.648
				C339.704,72.448,339.461,73.026,339.414,73.749z"/>
			<path fill="#3C3C3B" d="M347.25,78.694v-8.297h1.266v1.18c0.609-0.91,1.489-1.367,2.641-1.367c0.5,0,0.959,0.09,1.379,0.27
				c0.419,0.18,0.733,0.416,0.941,0.707c0.208,0.293,0.354,0.639,0.438,1.039c0.052,0.262,0.078,0.717,0.078,1.367v5.102h-1.406
				v-5.047c0-0.572-0.055-1-0.164-1.285c-0.109-0.283-0.304-0.51-0.582-0.68c-0.279-0.168-0.605-0.254-0.98-0.254
				c-0.599,0-1.116,0.191-1.551,0.57c-0.435,0.381-0.652,1.102-0.652,2.164v4.531H347.25z"/>
			<path fill="#3C3C3B" d="M359.219,77.437l0.203,1.242c-0.396,0.084-0.75,0.125-1.062,0.125c-0.511,0-0.906-0.08-1.188-0.242
				c-0.281-0.16-0.479-0.373-0.594-0.637c-0.115-0.262-0.172-0.816-0.172-1.66v-4.773h-1.031v-1.094h1.031v-2.055l1.398-0.844v2.898
				h1.414v1.094h-1.414v4.852c0,0.402,0.024,0.66,0.074,0.773c0.049,0.115,0.13,0.207,0.242,0.273
				c0.112,0.068,0.272,0.102,0.48,0.102C358.758,77.491,358.963,77.474,359.219,77.437z"/>
			<path fill="#3C3C3B" d="M366.273,76.022l1.453,0.18c-0.229,0.85-0.654,1.508-1.273,1.977c-0.62,0.469-1.412,0.703-2.375,0.703
				c-1.214,0-2.176-0.373-2.887-1.121c-0.711-0.746-1.066-1.795-1.066-3.145c0-1.395,0.359-2.479,1.078-3.25
				c0.719-0.77,1.651-1.156,2.797-1.156c1.109,0,2.016,0.379,2.719,1.133c0.703,0.756,1.055,1.818,1.055,3.188
				c0,0.084-0.003,0.209-0.008,0.375h-6.188c0.052,0.912,0.31,1.609,0.773,2.094c0.463,0.484,1.042,0.727,1.734,0.727
				c0.516,0,0.956-0.135,1.32-0.406C365.771,77.05,366.06,76.616,366.273,76.022z M361.656,73.749h4.633
				c-0.062-0.697-0.24-1.221-0.531-1.57c-0.448-0.541-1.029-0.812-1.742-0.812c-0.646,0-1.189,0.217-1.629,0.648
				C361.946,72.448,361.703,73.026,361.656,73.749z"/>
			<path fill="#3C3C3B" d="M369.492,78.694v-8.297h1.266v1.18c0.609-0.91,1.489-1.367,2.641-1.367c0.5,0,0.959,0.09,1.379,0.27
				c0.419,0.18,0.733,0.416,0.941,0.707c0.208,0.293,0.354,0.639,0.438,1.039c0.052,0.262,0.078,0.717,0.078,1.367v5.102h-1.406
				v-5.047c0-0.572-0.055-1-0.164-1.285c-0.109-0.283-0.304-0.51-0.582-0.68c-0.279-0.168-0.605-0.254-0.98-0.254
				c-0.599,0-1.116,0.191-1.551,0.57c-0.435,0.381-0.652,1.102-0.652,2.164v4.531H369.492z"/>
			<path fill="#3C3C3B" d="M383.805,75.655l1.383,0.18c-0.151,0.953-0.538,1.699-1.16,2.238c-0.623,0.539-1.387,0.809-2.293,0.809
				c-1.136,0-2.048-0.371-2.738-1.113c-0.69-0.742-1.035-1.805-1.035-3.191c0-0.895,0.148-1.68,0.445-2.352s0.749-1.176,1.355-1.512
				c0.606-0.336,1.267-0.504,1.98-0.504c0.901,0,1.638,0.229,2.211,0.684c0.573,0.457,0.94,1.104,1.102,1.941l-1.367,0.211
				c-0.13-0.557-0.361-0.977-0.691-1.258c-0.331-0.281-0.73-0.422-1.199-0.422c-0.708,0-1.284,0.254-1.727,0.762
				c-0.443,0.508-0.664,1.312-0.664,2.41c0,1.115,0.213,1.926,0.641,2.43c0.427,0.506,0.984,0.758,1.672,0.758
				c0.552,0,1.013-0.168,1.383-0.508C383.471,76.88,383.706,76.358,383.805,75.655z"/>
			<path fill="#3C3C3B" d="M386.398,68.858v-1.617h1.406v1.617H386.398z M386.398,78.694v-8.297h1.406v8.297H386.398z"/>
			<path fill="#3C3C3B" d="M395.359,77.671c-0.521,0.443-1.022,0.756-1.504,0.938c-0.482,0.184-0.999,0.273-1.551,0.273
				c-0.912,0-1.612-0.223-2.102-0.668c-0.49-0.445-0.734-1.014-0.734-1.707c0-0.406,0.092-0.777,0.277-1.113
				c0.185-0.336,0.427-0.605,0.727-0.809c0.299-0.203,0.637-0.355,1.012-0.461c0.276-0.072,0.692-0.143,1.25-0.211
				c1.135-0.135,1.971-0.297,2.508-0.484c0.005-0.191,0.008-0.314,0.008-0.367c0-0.572-0.133-0.977-0.398-1.211
				c-0.359-0.316-0.894-0.477-1.602-0.477c-0.662,0-1.15,0.117-1.465,0.348c-0.315,0.232-0.548,0.643-0.699,1.23l-1.375-0.188
				c0.125-0.588,0.331-1.062,0.617-1.426c0.286-0.361,0.7-0.641,1.242-0.836c0.542-0.195,1.169-0.293,1.883-0.293
				c0.708,0,1.284,0.084,1.727,0.25c0.442,0.168,0.768,0.377,0.977,0.629c0.208,0.254,0.354,0.572,0.438,0.957
				c0.047,0.24,0.07,0.672,0.07,1.297v1.875c0,1.309,0.03,2.135,0.09,2.48c0.06,0.348,0.178,0.68,0.355,0.996h-1.469
				C395.495,78.403,395.401,78.062,395.359,77.671z M395.242,74.53c-0.511,0.209-1.276,0.387-2.297,0.531
				c-0.578,0.084-0.987,0.178-1.227,0.281c-0.24,0.105-0.425,0.258-0.555,0.457c-0.13,0.201-0.195,0.424-0.195,0.668
				c0,0.375,0.142,0.688,0.426,0.938c0.284,0.25,0.699,0.375,1.246,0.375c0.542,0,1.023-0.117,1.445-0.355
				c0.422-0.236,0.731-0.561,0.93-0.973c0.151-0.316,0.227-0.785,0.227-1.406V74.53z"/>
			<path fill="#3C3C3B" d="M398.281,76.218l1.391-0.219c0.078,0.559,0.295,0.984,0.652,1.281c0.356,0.297,0.855,0.445,1.496,0.445
				c0.646,0,1.125-0.131,1.438-0.395c0.312-0.262,0.469-0.57,0.469-0.926c0-0.316-0.138-0.566-0.414-0.75
				c-0.193-0.125-0.672-0.283-1.438-0.477c-1.031-0.26-1.746-0.484-2.145-0.676c-0.398-0.189-0.701-0.453-0.906-0.789
				c-0.206-0.336-0.309-0.707-0.309-1.113c0-0.369,0.084-0.711,0.254-1.027c0.169-0.314,0.399-0.576,0.691-0.785
				c0.219-0.16,0.517-0.297,0.895-0.41c0.377-0.111,0.782-0.168,1.215-0.168c0.651,0,1.223,0.094,1.715,0.281
				s0.855,0.441,1.09,0.762s0.396,0.75,0.484,1.285l-1.375,0.188c-0.062-0.426-0.244-0.76-0.543-1
				c-0.3-0.238-0.723-0.359-1.27-0.359c-0.646,0-1.107,0.107-1.383,0.32c-0.276,0.215-0.414,0.465-0.414,0.75
				c0,0.184,0.057,0.348,0.172,0.492c0.114,0.152,0.294,0.277,0.539,0.375c0.141,0.053,0.555,0.172,1.242,0.359
				c0.995,0.266,1.688,0.484,2.082,0.652c0.393,0.17,0.702,0.416,0.926,0.738c0.224,0.324,0.336,0.725,0.336,1.203
				c0,0.469-0.137,0.91-0.41,1.324s-0.668,0.734-1.184,0.961s-1.099,0.34-1.75,0.34c-1.078,0-1.9-0.223-2.465-0.672
				C398.798,77.763,398.438,77.099,398.281,76.218z"/>
			<path fill="#3C3C3B" d="M416.672,78.694v-1.047c-0.526,0.824-1.3,1.234-2.32,1.234c-0.662,0-1.27-0.182-1.824-0.547
				c-0.555-0.363-0.984-0.873-1.289-1.527c-0.305-0.652-0.457-1.404-0.457-2.254c0-0.828,0.138-1.578,0.414-2.254
				c0.276-0.674,0.69-1.191,1.242-1.551c0.552-0.359,1.169-0.539,1.852-0.539c0.5,0,0.945,0.105,1.336,0.316
				s0.708,0.486,0.953,0.824v-4.109h1.398v11.453H416.672z M412.227,74.554c0,1.062,0.224,1.857,0.672,2.383
				c0.448,0.527,0.977,0.789,1.586,0.789c0.614,0,1.137-0.25,1.566-0.754c0.43-0.502,0.645-1.27,0.645-2.301
				c0-1.135-0.219-1.969-0.656-2.5s-0.977-0.797-1.617-0.797c-0.625,0-1.147,0.256-1.566,0.766
				C412.436,72.651,412.227,73.456,412.227,74.554z"/>
			<path fill="#3C3C3B" d="M425.867,76.022l1.453,0.18c-0.229,0.85-0.654,1.508-1.273,1.977c-0.62,0.469-1.412,0.703-2.375,0.703
				c-1.214,0-2.176-0.373-2.887-1.121c-0.711-0.746-1.066-1.795-1.066-3.145c0-1.395,0.359-2.479,1.078-3.25
				c0.719-0.77,1.651-1.156,2.797-1.156c1.109,0,2.016,0.379,2.719,1.133c0.703,0.756,1.055,1.818,1.055,3.188
				c0,0.084-0.003,0.209-0.008,0.375h-6.188c0.052,0.912,0.31,1.609,0.773,2.094c0.463,0.484,1.042,0.727,1.734,0.727
				c0.516,0,0.956-0.135,1.32-0.406C425.364,77.05,425.653,76.616,425.867,76.022z M421.25,73.749h4.633
				c-0.062-0.697-0.24-1.221-0.531-1.57c-0.448-0.541-1.029-0.812-1.742-0.812c-0.646,0-1.189,0.217-1.629,0.648
				C421.54,72.448,421.297,73.026,421.25,73.749z"/>
			<path fill="#3C3C3B" d="M432.938,75.444l1.367-0.188c0.036,0.875,0.2,1.475,0.492,1.797c0.292,0.324,0.695,0.484,1.211,0.484
				c0.38,0,0.708-0.086,0.984-0.262c0.276-0.174,0.466-0.41,0.57-0.711c0.104-0.299,0.156-0.777,0.156-1.434v-7.891h1.516v7.805
				c0,0.959-0.116,1.701-0.348,2.227c-0.232,0.527-0.599,0.928-1.102,1.203c-0.503,0.277-1.093,0.414-1.77,0.414
				c-1.005,0-1.775-0.289-2.309-0.867C433.173,77.444,432.917,76.585,432.938,75.444z"/>
			<path fill="#3C3C3B" d="M446.969,78.694v-1.219c-0.646,0.938-1.523,1.406-2.633,1.406c-0.49,0-0.947-0.094-1.371-0.281
				c-0.425-0.188-0.74-0.422-0.945-0.707c-0.206-0.283-0.351-0.631-0.434-1.043c-0.058-0.275-0.086-0.713-0.086-1.312v-5.141h1.406
				v4.602c0,0.734,0.028,1.23,0.086,1.484c0.088,0.371,0.276,0.66,0.562,0.871c0.286,0.211,0.641,0.316,1.062,0.316
				s0.817-0.107,1.188-0.324c0.37-0.215,0.631-0.51,0.785-0.883c0.153-0.371,0.23-0.912,0.23-1.621v-4.445h1.406v8.297H446.969z"/>
			<path fill="#3C3C3B" d="M449.867,76.218l1.391-0.219c0.078,0.559,0.295,0.984,0.652,1.281c0.356,0.297,0.855,0.445,1.496,0.445
				c0.646,0,1.125-0.131,1.438-0.395c0.312-0.262,0.469-0.57,0.469-0.926c0-0.316-0.138-0.566-0.414-0.75
				c-0.193-0.125-0.672-0.283-1.438-0.477c-1.031-0.26-1.746-0.484-2.145-0.676c-0.398-0.189-0.701-0.453-0.906-0.789
				c-0.206-0.336-0.309-0.707-0.309-1.113c0-0.369,0.084-0.711,0.254-1.027c0.169-0.314,0.399-0.576,0.691-0.785
				c0.219-0.16,0.517-0.297,0.895-0.41c0.377-0.111,0.782-0.168,1.215-0.168c0.651,0,1.223,0.094,1.715,0.281
				s0.855,0.441,1.09,0.762s0.396,0.75,0.484,1.285l-1.375,0.188c-0.062-0.426-0.244-0.76-0.543-1
				c-0.3-0.238-0.723-0.359-1.27-0.359c-0.646,0-1.107,0.107-1.383,0.32c-0.276,0.215-0.414,0.465-0.414,0.75
				c0,0.184,0.057,0.348,0.172,0.492c0.114,0.152,0.294,0.277,0.539,0.375c0.141,0.053,0.555,0.172,1.242,0.359
				c0.995,0.266,1.688,0.484,2.082,0.652c0.393,0.17,0.702,0.416,0.926,0.738c0.224,0.324,0.336,0.725,0.336,1.203
				c0,0.469-0.137,0.91-0.41,1.324s-0.668,0.734-1.184,0.961s-1.099,0.34-1.75,0.34c-1.078,0-1.9-0.223-2.465-0.672
				C450.384,77.763,450.023,77.099,449.867,76.218z"/>
			<path fill="#3C3C3B" d="M461.5,77.437l0.203,1.242c-0.396,0.084-0.75,0.125-1.062,0.125c-0.511,0-0.906-0.08-1.188-0.242
				c-0.281-0.16-0.479-0.373-0.594-0.637c-0.115-0.262-0.172-0.816-0.172-1.66v-4.773h-1.031v-1.094h1.031v-2.055l1.398-0.844v2.898
				h1.414v1.094h-1.414v4.852c0,0.402,0.024,0.66,0.074,0.773c0.049,0.115,0.13,0.207,0.242,0.273
				c0.112,0.068,0.272,0.102,0.48,0.102C461.039,77.491,461.245,77.474,461.5,77.437z"/>
			<path fill="#3C3C3B" d="M462.883,68.858v-1.617h1.406v1.617H462.883z M462.883,78.694v-8.297h1.406v8.297H462.883z"/>
			<path fill="#3C3C3B" d="M471.844,75.655l1.383,0.18c-0.151,0.953-0.538,1.699-1.16,2.238c-0.623,0.539-1.387,0.809-2.293,0.809
				c-1.136,0-2.048-0.371-2.738-1.113c-0.69-0.742-1.035-1.805-1.035-3.191c0-0.895,0.148-1.68,0.445-2.352s0.749-1.176,1.355-1.512
				c0.606-0.336,1.267-0.504,1.98-0.504c0.901,0,1.638,0.229,2.211,0.684c0.573,0.457,0.94,1.104,1.102,1.941l-1.367,0.211
				c-0.13-0.557-0.361-0.977-0.691-1.258c-0.331-0.281-0.73-0.422-1.199-0.422c-0.708,0-1.284,0.254-1.727,0.762
				c-0.443,0.508-0.664,1.312-0.664,2.41c0,1.115,0.213,1.926,0.641,2.43c0.427,0.506,0.984,0.758,1.672,0.758
				c0.552,0,1.013-0.168,1.383-0.508C471.51,76.88,471.745,76.358,471.844,75.655z"/>
			<path fill="#3C3C3B" d="M474.438,68.858v-1.617h1.406v1.617H474.438z M474.438,78.694v-8.297h1.406v8.297H474.438z"/>
			<path fill="#3C3C3B" d="M483.398,77.671c-0.521,0.443-1.022,0.756-1.504,0.938c-0.482,0.184-0.999,0.273-1.551,0.273
				c-0.912,0-1.612-0.223-2.102-0.668c-0.49-0.445-0.734-1.014-0.734-1.707c0-0.406,0.092-0.777,0.277-1.113
				c0.185-0.336,0.427-0.605,0.727-0.809c0.299-0.203,0.637-0.355,1.012-0.461c0.276-0.072,0.692-0.143,1.25-0.211
				c1.135-0.135,1.971-0.297,2.508-0.484c0.005-0.191,0.008-0.314,0.008-0.367c0-0.572-0.133-0.977-0.398-1.211
				c-0.359-0.316-0.894-0.477-1.602-0.477c-0.662,0-1.15,0.117-1.465,0.348c-0.315,0.232-0.548,0.643-0.699,1.23l-1.375-0.188
				c0.125-0.588,0.331-1.062,0.617-1.426c0.286-0.361,0.7-0.641,1.242-0.836c0.542-0.195,1.169-0.293,1.883-0.293
				c0.708,0,1.284,0.084,1.727,0.25c0.442,0.168,0.768,0.377,0.977,0.629c0.208,0.254,0.354,0.572,0.438,0.957
				c0.047,0.24,0.07,0.672,0.07,1.297v1.875c0,1.309,0.03,2.135,0.09,2.48c0.06,0.348,0.178,0.68,0.355,0.996h-1.469
				C483.534,78.403,483.44,78.062,483.398,77.671z M483.281,74.53c-0.511,0.209-1.276,0.387-2.297,0.531
				c-0.578,0.084-0.987,0.178-1.227,0.281c-0.24,0.105-0.425,0.258-0.555,0.457c-0.13,0.201-0.195,0.424-0.195,0.668
				c0,0.375,0.142,0.688,0.426,0.938c0.284,0.25,0.699,0.375,1.246,0.375c0.542,0,1.023-0.117,1.445-0.355
				c0.422-0.236,0.731-0.561,0.93-0.973c0.151-0.316,0.227-0.785,0.227-1.406V74.53z"/>
			<path fill="#3C3C3B" d="M491.266,81.89l-0.156-1.32c0.307,0.084,0.575,0.125,0.805,0.125c0.312,0,0.562-0.051,0.75-0.156
				c0.188-0.104,0.341-0.25,0.461-0.438c0.088-0.141,0.231-0.488,0.43-1.047c0.026-0.078,0.067-0.191,0.125-0.344l-3.148-8.312
				h1.516l1.727,4.805c0.224,0.609,0.424,1.25,0.602,1.922c0.161-0.645,0.354-1.275,0.578-1.891l1.773-4.836h1.406l-3.156,8.438
				c-0.339,0.912-0.602,1.539-0.789,1.883c-0.25,0.465-0.537,0.805-0.859,1.02c-0.323,0.217-0.708,0.324-1.156,0.324
				C491.901,82.062,491.599,82.005,491.266,81.89z"/>
			<path fill="#3C3C3B" d="M503.953,78.694V67.241h4.32c0.76,0,1.341,0.037,1.742,0.109c0.562,0.094,1.034,0.273,1.414,0.535
				c0.38,0.264,0.686,0.633,0.918,1.105c0.231,0.475,0.348,0.996,0.348,1.562c0,0.975-0.31,1.799-0.93,2.473
				c-0.62,0.676-1.74,1.012-3.359,1.012h-2.938v4.656H503.953z M505.469,72.687h2.961c0.979,0,1.674-0.182,2.086-0.547
				c0.411-0.363,0.617-0.877,0.617-1.539c0-0.479-0.121-0.889-0.363-1.23c-0.242-0.34-0.562-0.566-0.957-0.676
				c-0.255-0.066-0.727-0.102-1.414-0.102h-2.93V72.687z"/>
			<path fill="#3C3C3B" d="M519.859,77.671c-0.521,0.443-1.022,0.756-1.504,0.938c-0.482,0.184-0.999,0.273-1.551,0.273
				c-0.912,0-1.612-0.223-2.102-0.668c-0.49-0.445-0.734-1.014-0.734-1.707c0-0.406,0.092-0.777,0.277-1.113
				c0.185-0.336,0.427-0.605,0.727-0.809c0.299-0.203,0.637-0.355,1.012-0.461c0.276-0.072,0.692-0.143,1.25-0.211
				c1.135-0.135,1.971-0.297,2.508-0.484c0.005-0.191,0.008-0.314,0.008-0.367c0-0.572-0.133-0.977-0.398-1.211
				c-0.359-0.316-0.894-0.477-1.602-0.477c-0.662,0-1.15,0.117-1.465,0.348c-0.315,0.232-0.548,0.643-0.699,1.23l-1.375-0.188
				c0.125-0.588,0.331-1.062,0.617-1.426c0.286-0.361,0.7-0.641,1.242-0.836c0.542-0.195,1.169-0.293,1.883-0.293
				c0.708,0,1.284,0.084,1.727,0.25c0.442,0.168,0.768,0.377,0.977,0.629c0.208,0.254,0.354,0.572,0.438,0.957
				c0.047,0.24,0.07,0.672,0.07,1.297v1.875c0,1.309,0.03,2.135,0.09,2.48c0.06,0.348,0.178,0.68,0.355,0.996h-1.469
				C519.995,78.403,519.901,78.062,519.859,77.671z M519.742,74.53c-0.511,0.209-1.276,0.387-2.297,0.531
				c-0.578,0.084-0.987,0.178-1.227,0.281c-0.24,0.105-0.425,0.258-0.555,0.457c-0.13,0.201-0.195,0.424-0.195,0.668
				c0,0.375,0.142,0.688,0.426,0.938c0.284,0.25,0.699,0.375,1.246,0.375c0.542,0,1.023-0.117,1.445-0.355
				c0.422-0.236,0.731-0.561,0.93-0.973c0.151-0.316,0.227-0.785,0.227-1.406V74.53z"/>
			<path fill="#3C3C3B" d="M522.602,78.694v-1.141l5.281-6.062c-0.599,0.031-1.128,0.047-1.586,0.047h-3.383v-1.141h6.781v0.93
				l-4.492,5.266l-0.867,0.961c0.63-0.047,1.221-0.07,1.773-0.07h3.836v1.211H522.602z"/>
			<path fill="#3C3C3B" d="M531.734,71.999v-1.602h1.602v1.602H531.734z M531.734,78.694v-1.602h1.602v1.602H531.734z"/>
			<path fill="#3C3C3B" d="M548.586,74.679l1.516,0.383c-0.318,1.246-0.89,2.195-1.715,2.848c-0.826,0.654-1.835,0.98-3.027,0.98
				c-1.234,0-2.238-0.25-3.012-0.754c-0.773-0.502-1.362-1.23-1.766-2.184c-0.404-0.953-0.605-1.977-0.605-3.07
				c0-1.191,0.228-2.232,0.684-3.121c0.456-0.887,1.104-1.562,1.945-2.023c0.841-0.461,1.767-0.691,2.777-0.691
				c1.146,0,2.109,0.293,2.891,0.875c0.781,0.584,1.325,1.404,1.633,2.461l-1.492,0.352c-0.266-0.832-0.651-1.439-1.156-1.82
				c-0.505-0.379-1.141-0.57-1.906-0.57c-0.88,0-1.616,0.211-2.207,0.633c-0.591,0.422-1.007,0.988-1.246,1.699
				c-0.24,0.711-0.359,1.445-0.359,2.199c0,0.975,0.142,1.824,0.426,2.551c0.284,0.727,0.725,1.27,1.324,1.629
				c0.599,0.359,1.247,0.539,1.945,0.539c0.849,0,1.567-0.244,2.156-0.734C547.979,76.37,548.377,75.644,548.586,74.679z"/>
			<path fill="#3C3C3B" d="M557.203,77.671c-0.521,0.443-1.022,0.756-1.504,0.938c-0.482,0.184-0.999,0.273-1.551,0.273
				c-0.912,0-1.612-0.223-2.102-0.668c-0.49-0.445-0.734-1.014-0.734-1.707c0-0.406,0.092-0.777,0.277-1.113
				c0.185-0.336,0.427-0.605,0.727-0.809c0.299-0.203,0.637-0.355,1.012-0.461c0.276-0.072,0.692-0.143,1.25-0.211
				c1.135-0.135,1.971-0.297,2.508-0.484c0.005-0.191,0.008-0.314,0.008-0.367c0-0.572-0.133-0.977-0.398-1.211
				c-0.359-0.316-0.894-0.477-1.602-0.477c-0.662,0-1.15,0.117-1.465,0.348c-0.315,0.232-0.548,0.643-0.699,1.23l-1.375-0.188
				c0.125-0.588,0.331-1.062,0.617-1.426c0.286-0.361,0.7-0.641,1.242-0.836c0.542-0.195,1.169-0.293,1.883-0.293
				c0.708,0,1.284,0.084,1.727,0.25c0.442,0.168,0.768,0.377,0.977,0.629c0.208,0.254,0.354,0.572,0.438,0.957
				c0.047,0.24,0.07,0.672,0.07,1.297v1.875c0,1.309,0.03,2.135,0.09,2.48c0.06,0.348,0.178,0.68,0.355,0.996h-1.469
				C557.338,78.403,557.245,78.062,557.203,77.671z M557.086,74.53c-0.511,0.209-1.276,0.387-2.297,0.531
				c-0.578,0.084-0.987,0.178-1.227,0.281c-0.24,0.105-0.425,0.258-0.555,0.457c-0.13,0.201-0.195,0.424-0.195,0.668
				c0,0.375,0.142,0.688,0.426,0.938c0.284,0.25,0.699,0.375,1.246,0.375c0.542,0,1.023-0.117,1.445-0.355
				c0.422-0.236,0.731-0.561,0.93-0.973c0.151-0.316,0.227-0.785,0.227-1.406V74.53z"/>
			<path fill="#3C3C3B" d="M560.656,78.694V67.241h1.406v11.453H560.656z"/>
			<path fill="#3C3C3B" d="M564.25,68.858v-1.617h1.406v1.617H564.25z M564.25,78.694v-8.297h1.406v8.297H564.25z"/>
			<path fill="#3C3C3B" d="M567.797,78.694v-8.297h1.258v1.164c0.26-0.406,0.606-0.732,1.039-0.98
				c0.432-0.246,0.924-0.371,1.477-0.371c0.614,0,1.118,0.129,1.512,0.383c0.393,0.256,0.67,0.613,0.832,1.07
				c0.656-0.969,1.51-1.453,2.562-1.453c0.823,0,1.456,0.229,1.898,0.684c0.442,0.457,0.664,1.158,0.664,2.105v5.695h-1.398v-5.227
				c0-0.562-0.046-0.967-0.137-1.215c-0.091-0.246-0.257-0.445-0.496-0.598c-0.24-0.15-0.521-0.227-0.844-0.227
				c-0.583,0-1.068,0.195-1.453,0.582c-0.386,0.389-0.578,1.01-0.578,1.863v4.82h-1.406v-5.391c0-0.625-0.115-1.094-0.344-1.406
				c-0.229-0.312-0.604-0.469-1.125-0.469c-0.396,0-0.762,0.105-1.098,0.312c-0.336,0.209-0.58,0.514-0.73,0.914
				c-0.151,0.402-0.227,0.98-0.227,1.734v4.305H567.797z"/>
			<path fill="#3C3C3B" d="M586.539,77.671c-0.521,0.443-1.022,0.756-1.504,0.938c-0.482,0.184-0.999,0.273-1.551,0.273
				c-0.912,0-1.612-0.223-2.102-0.668c-0.49-0.445-0.734-1.014-0.734-1.707c0-0.406,0.092-0.777,0.277-1.113
				c0.185-0.336,0.427-0.605,0.727-0.809c0.299-0.203,0.637-0.355,1.012-0.461c0.276-0.072,0.692-0.143,1.25-0.211
				c1.135-0.135,1.971-0.297,2.508-0.484c0.005-0.191,0.008-0.314,0.008-0.367c0-0.572-0.133-0.977-0.398-1.211
				c-0.359-0.316-0.894-0.477-1.602-0.477c-0.662,0-1.15,0.117-1.465,0.348c-0.315,0.232-0.548,0.643-0.699,1.23l-1.375-0.188
				c0.125-0.588,0.331-1.062,0.617-1.426c0.286-0.361,0.7-0.641,1.242-0.836c0.542-0.195,1.169-0.293,1.883-0.293
				c0.708,0,1.284,0.084,1.727,0.25c0.442,0.168,0.768,0.377,0.977,0.629c0.208,0.254,0.354,0.572,0.438,0.957
				c0.047,0.24,0.07,0.672,0.07,1.297v1.875c0,1.309,0.03,2.135,0.09,2.48c0.06,0.348,0.178,0.68,0.355,0.996h-1.469
				C586.674,78.403,586.581,78.062,586.539,77.671z M586.422,74.53c-0.511,0.209-1.276,0.387-2.297,0.531
				c-0.578,0.084-0.987,0.178-1.227,0.281c-0.24,0.105-0.425,0.258-0.555,0.457c-0.13,0.201-0.195,0.424-0.195,0.668
				c0,0.375,0.142,0.688,0.426,0.938c0.284,0.25,0.699,0.375,1.246,0.375c0.542,0,1.023-0.117,1.445-0.355
				c0.422-0.236,0.731-0.561,0.93-0.973c0.151-0.316,0.227-0.785,0.227-1.406V74.53z"/>
			<path fill="#3C3C3B" d="M590.391,78.694v-1.602h1.602v1.602c0,0.59-0.104,1.064-0.312,1.426c-0.208,0.363-0.539,0.643-0.992,0.84
				l-0.391-0.602c0.297-0.129,0.516-0.32,0.656-0.574c0.141-0.252,0.219-0.615,0.234-1.09H590.391z"/>
			<path fill="#3C3C3B" d="M327.797,97.896V86.442h4.297c0.875,0,1.577,0.115,2.105,0.348c0.528,0.23,0.942,0.588,1.242,1.07
				c0.299,0.48,0.449,0.984,0.449,1.512c0,0.488-0.133,0.949-0.398,1.383c-0.266,0.432-0.667,0.781-1.203,1.047
				c0.692,0.203,1.225,0.549,1.598,1.039c0.372,0.488,0.559,1.066,0.559,1.734c0,0.535-0.113,1.035-0.34,1.496
				s-0.507,0.816-0.84,1.066c-0.333,0.25-0.751,0.438-1.254,0.566c-0.503,0.127-1.119,0.191-1.848,0.191H327.797z M329.312,91.255
				h2.477c0.672,0,1.153-0.045,1.445-0.133c0.385-0.115,0.676-0.305,0.871-0.57s0.293-0.6,0.293-1c0-0.381-0.091-0.715-0.273-1.004
				c-0.183-0.289-0.443-0.488-0.781-0.594c-0.339-0.107-0.919-0.16-1.742-0.16h-2.289V91.255z M329.312,96.544h2.852
				c0.489,0,0.833-0.02,1.031-0.055c0.349-0.062,0.641-0.168,0.875-0.312c0.234-0.146,0.427-0.359,0.578-0.637
				c0.151-0.279,0.227-0.602,0.227-0.965c0-0.428-0.109-0.799-0.328-1.113c-0.219-0.316-0.522-0.537-0.91-0.664
				c-0.388-0.129-0.947-0.191-1.676-0.191h-2.648V96.544z"/>
			<path fill="#3C3C3B" d="M343.766,96.872c-0.521,0.441-1.022,0.754-1.504,0.938c-0.482,0.182-0.999,0.273-1.551,0.273
				c-0.912,0-1.612-0.223-2.102-0.668c-0.49-0.445-0.734-1.016-0.734-1.707c0-0.406,0.092-0.777,0.277-1.113
				c0.185-0.336,0.427-0.605,0.727-0.809c0.299-0.203,0.637-0.357,1.012-0.461c0.276-0.074,0.692-0.145,1.25-0.211
				c1.135-0.137,1.971-0.297,2.508-0.484c0.005-0.193,0.008-0.316,0.008-0.367c0-0.574-0.133-0.977-0.398-1.211
				c-0.359-0.318-0.894-0.477-1.602-0.477c-0.662,0-1.15,0.115-1.465,0.348c-0.315,0.23-0.548,0.641-0.699,1.23l-1.375-0.188
				c0.125-0.59,0.331-1.064,0.617-1.426c0.286-0.363,0.7-0.641,1.242-0.836c0.542-0.195,1.169-0.293,1.883-0.293
				c0.708,0,1.284,0.082,1.727,0.25c0.442,0.166,0.768,0.375,0.977,0.629c0.208,0.252,0.354,0.57,0.438,0.957
				c0.047,0.238,0.07,0.672,0.07,1.297v1.875c0,1.307,0.03,2.133,0.09,2.48c0.06,0.346,0.178,0.678,0.355,0.996h-1.469
				C343.901,97.603,343.807,97.263,343.766,96.872z M343.648,93.731c-0.511,0.207-1.276,0.385-2.297,0.531
				c-0.578,0.082-0.987,0.176-1.227,0.281c-0.24,0.104-0.425,0.256-0.555,0.457c-0.13,0.199-0.195,0.422-0.195,0.668
				c0,0.375,0.142,0.688,0.426,0.938c0.284,0.25,0.699,0.375,1.246,0.375c0.542,0,1.023-0.119,1.445-0.355
				c0.422-0.238,0.731-0.562,0.93-0.973c0.151-0.318,0.227-0.787,0.227-1.406V93.731z"/>
			<path fill="#3C3C3B" d="M347.234,97.896v-8.297h1.266v1.258c0.323-0.59,0.621-0.977,0.895-1.164s0.574-0.281,0.902-0.281
				c0.474,0,0.956,0.15,1.445,0.453l-0.484,1.305c-0.344-0.203-0.688-0.305-1.031-0.305c-0.308,0-0.583,0.092-0.828,0.277
				c-0.245,0.184-0.419,0.441-0.523,0.77c-0.156,0.5-0.234,1.047-0.234,1.641v4.344H347.234z"/>
			<path fill="#3C3C3B" d="M352.578,97.896v-8.297h1.266v1.18c0.609-0.912,1.489-1.367,2.641-1.367c0.5,0,0.959,0.09,1.379,0.27
				c0.419,0.18,0.733,0.414,0.941,0.707c0.208,0.291,0.354,0.637,0.438,1.039c0.052,0.26,0.078,0.715,0.078,1.367v5.102h-1.406
				v-5.047c0-0.574-0.055-1.002-0.164-1.285c-0.109-0.285-0.304-0.512-0.582-0.68c-0.279-0.17-0.605-0.254-0.98-0.254
				c-0.599,0-1.116,0.189-1.551,0.57c-0.435,0.379-0.652,1.102-0.652,2.164v4.531H352.578z"/>
			<path fill="#3C3C3B" d="M367.156,95.224l1.453,0.18c-0.229,0.848-0.654,1.508-1.273,1.977c-0.62,0.469-1.412,0.703-2.375,0.703
				c-1.214,0-2.176-0.375-2.887-1.121c-0.711-0.748-1.066-1.797-1.066-3.145c0-1.396,0.359-2.48,1.078-3.25
				c0.719-0.771,1.651-1.156,2.797-1.156c1.109,0,2.016,0.377,2.719,1.133c0.703,0.754,1.055,1.816,1.055,3.188
				c0,0.082-0.003,0.207-0.008,0.375h-6.188c0.052,0.91,0.31,1.609,0.773,2.094c0.463,0.484,1.042,0.727,1.734,0.727
				c0.516,0,0.956-0.137,1.32-0.406C366.653,96.249,366.942,95.817,367.156,95.224z M362.539,92.95h4.633
				c-0.062-0.699-0.24-1.223-0.531-1.57c-0.448-0.543-1.029-0.812-1.742-0.812c-0.646,0-1.189,0.215-1.629,0.648
				C362.829,91.647,362.586,92.226,362.539,92.95z"/>
			<path fill="#3C3C3B" d="M370.312,101.091l-0.156-1.32c0.307,0.082,0.575,0.125,0.805,0.125c0.312,0,0.562-0.053,0.75-0.156
				c0.188-0.105,0.341-0.25,0.461-0.438c0.088-0.141,0.231-0.49,0.43-1.047c0.026-0.078,0.067-0.193,0.125-0.344l-3.148-8.312h1.516
				l1.727,4.805c0.224,0.609,0.424,1.25,0.602,1.922c0.161-0.646,0.354-1.277,0.578-1.891l1.773-4.836h1.406l-3.156,8.438
				c-0.339,0.91-0.602,1.539-0.789,1.883c-0.25,0.463-0.537,0.803-0.859,1.02c-0.323,0.215-0.708,0.324-1.156,0.324
				C370.948,101.263,370.646,101.204,370.312,101.091z"/>
			<path fill="#3C3C3B" d="M386.273,97.896l-4.438-11.453h1.641l2.977,8.32c0.239,0.666,0.44,1.291,0.602,1.875
				c0.177-0.625,0.383-1.25,0.617-1.875l3.094-8.32h1.547l-4.484,11.453H386.273z"/>
			<path fill="#3C3C3B" d="M398.289,95.224l1.453,0.18c-0.229,0.848-0.654,1.508-1.273,1.977c-0.62,0.469-1.412,0.703-2.375,0.703
				c-1.214,0-2.176-0.375-2.887-1.121c-0.711-0.748-1.066-1.797-1.066-3.145c0-1.396,0.359-2.48,1.078-3.25
				c0.719-0.771,1.651-1.156,2.797-1.156c1.109,0,2.016,0.377,2.719,1.133c0.703,0.754,1.055,1.816,1.055,3.188
				c0,0.082-0.003,0.207-0.008,0.375h-6.188c0.052,0.91,0.31,1.609,0.773,2.094c0.463,0.484,1.042,0.727,1.734,0.727
				c0.516,0,0.956-0.137,1.32-0.406C397.786,96.249,398.075,95.817,398.289,95.224z M393.672,92.95h4.633
				c-0.062-0.699-0.24-1.223-0.531-1.57c-0.448-0.543-1.029-0.812-1.742-0.812c-0.646,0-1.189,0.215-1.629,0.648
				C393.962,91.647,393.719,92.226,393.672,92.95z"/>
			<path fill="#3C3C3B" d="M401.477,97.896V86.442h1.406v11.453H401.477z"/>
			<path fill="#3C3C3B" d="M404.539,93.747c0-1.537,0.427-2.676,1.281-3.414c0.713-0.615,1.583-0.922,2.609-0.922
				c1.141,0,2.073,0.373,2.797,1.121c0.724,0.746,1.086,1.779,1.086,3.098c0,1.066-0.16,1.906-0.48,2.52
				c-0.32,0.611-0.787,1.086-1.398,1.426c-0.612,0.338-1.28,0.508-2.004,0.508c-1.162,0-2.101-0.373-2.816-1.117
				C404.897,96.22,404.539,95.147,404.539,93.747z M405.984,93.747c0,1.062,0.231,1.857,0.695,2.387
				c0.463,0.527,1.047,0.793,1.75,0.793c0.698,0,1.278-0.266,1.742-0.797c0.463-0.531,0.695-1.342,0.695-2.43
				c0-1.027-0.233-1.805-0.699-2.332c-0.466-0.529-1.046-0.793-1.738-0.793c-0.703,0-1.287,0.262-1.75,0.789
				C406.216,91.89,405.984,92.685,405.984,93.747z"/>
			<path fill="#3C3C3B" d="M413.219,97.896v-1.141l5.281-6.062c-0.599,0.031-1.128,0.047-1.586,0.047h-3.383v-1.141h6.781v0.93
				l-4.492,5.266l-0.867,0.961c0.63-0.047,1.221-0.07,1.773-0.07h3.836v1.211H413.219z"/>
			<path fill="#3C3C3B" d="M427.375,96.872c-0.521,0.441-1.022,0.754-1.504,0.938c-0.482,0.182-0.999,0.273-1.551,0.273
				c-0.912,0-1.612-0.223-2.102-0.668c-0.49-0.445-0.734-1.016-0.734-1.707c0-0.406,0.092-0.777,0.277-1.113
				c0.185-0.336,0.427-0.605,0.727-0.809c0.299-0.203,0.637-0.357,1.012-0.461c0.276-0.074,0.692-0.145,1.25-0.211
				c1.135-0.137,1.971-0.297,2.508-0.484c0.005-0.193,0.008-0.316,0.008-0.367c0-0.574-0.133-0.977-0.398-1.211
				c-0.359-0.318-0.894-0.477-1.602-0.477c-0.662,0-1.15,0.115-1.465,0.348c-0.315,0.23-0.548,0.641-0.699,1.23l-1.375-0.188
				c0.125-0.59,0.331-1.064,0.617-1.426c0.286-0.363,0.7-0.641,1.242-0.836c0.542-0.195,1.169-0.293,1.883-0.293
				c0.708,0,1.284,0.082,1.727,0.25c0.442,0.166,0.768,0.375,0.977,0.629c0.208,0.252,0.354,0.57,0.438,0.957
				c0.047,0.238,0.07,0.672,0.07,1.297v1.875c0,1.307,0.03,2.133,0.09,2.48c0.06,0.346,0.178,0.678,0.355,0.996h-1.469
				C427.51,97.603,427.417,97.263,427.375,96.872z M427.258,93.731c-0.511,0.207-1.276,0.385-2.297,0.531
				c-0.578,0.082-0.987,0.176-1.227,0.281c-0.24,0.104-0.425,0.256-0.555,0.457c-0.13,0.199-0.195,0.422-0.195,0.668
				c0,0.375,0.142,0.688,0.426,0.938c0.284,0.25,0.699,0.375,1.246,0.375c0.542,0,1.023-0.119,1.445-0.355
				c0.422-0.238,0.731-0.562,0.93-0.973c0.151-0.318,0.227-0.787,0.227-1.406V93.731z"/>
		</g>
	</g>
	<path fill="#F39200" d="M1.159,44.276l0.079,0.047c0.021,0.016,0.038,0.033,0.051,0.057l0.337,0.572l0.219,0.244
		c0.015,0.02,0.028,0.043,0.034,0.066l0.069,0.236l0.069,0.314l0.061,0.143l0.267,0.41l0.087,0.051l0.257-0.025l0.381-0.156
		c0.014-0.008,0.03-0.012,0.044-0.014l0.271-0.033c0.031-0.004,0.063,0,0.093,0.014l0.574,0.271c0.042,0.02,0.073,0.055,0.089,0.1
		l0.033,0.102c0.018,0.051,0.008,0.109-0.025,0.154L4.111,46.88l0.062,0.049h0.211c0.053,0,0.103,0.025,0.134,0.068l0.196,0.254
		c0.015-0.008,0.031-0.014,0.048-0.016c0.054-0.01,0.108,0.008,0.146,0.049l0.1,0.098l0.078,0.016l0.159-0.045l1.086-0.988
		c0.02-0.02,0.044-0.031,0.07-0.037l0.136-0.033c0.018-0.006,0.038-0.008,0.057-0.004l0.273,0.025l0.32-0.232
		c0.013-0.012,0.027-0.018,0.042-0.021l0.473-0.17l0.434-0.074c0.02-0.002,0.04-0.002,0.06,0l1.047,0.203l1.129,0.342
		c0.015,0.004,0.029,0.01,0.04,0.018l0.169,0.102l0.397,0.355c0.011,0.01,0.019,0.023,0.026,0.033l0.108,0.16l0.19,0.08l1.315,0.709
		l0.66,0.197l0.353,0.057l0.307-0.061l0.362-0.09l0.14-0.113l0.373-0.406l0.733-1.332c0.026-0.047,0.075-0.08,0.13-0.088
		c0.053-0.006,0.108,0.016,0.145,0.057l0.255,0.289l1.199,0.797l0.473,0.438l0.389,0.18l0.22,0.025l0.102-0.062l0.29-0.287
		c0.021-0.023,0.049-0.039,0.079-0.047l0.136-0.033c0.075-0.018,0.156,0.018,0.19,0.09l0.158,0.312l0.149,0.148l0.11,0.029
		l0.068-0.105l0.208-0.275c0.019-0.027,0.046-0.047,0.076-0.059l0.27-0.1c0.03-0.012,0.062-0.014,0.092-0.008l0.168,0.033
		c0.024,0.004,0.047,0.014,0.066,0.027l0.26,0.191l0.255-0.232l0.113-0.17l0.196-0.488c0.008-0.023,0.021-0.041,0.038-0.059
		l0.169-0.168c0.018-0.018,0.038-0.031,0.06-0.039l0.27-0.102l0.595-0.143l0.178-0.078l0.201-0.201l0.18-0.297l0.089-0.332
		l0.032-0.713l-0.07-0.139l-0.285-0.285c-0.019-0.02-0.032-0.041-0.041-0.066l-0.067-0.201c-0.015-0.049-0.01-0.1,0.016-0.141
		l0.1-0.17l0.488-0.594c0.036-0.045,0.095-0.068,0.151-0.061c0.019,0.002,0.037,0.008,0.054,0.018l0.858,0.428l0.991,0.199
		l2.208,0.164c0.014,0.002,0.027,0.004,0.041,0.01l0.608,0.201c0.016,0.006,0.031,0.014,0.044,0.023l0.828,0.598l0.319,0.127
		l1.423,0.295l0.748,0.297l0.131-0.188l0.032-1.199c0-0.01,0.002-0.023,0.006-0.035l0.066-0.271
		c0.005-0.023,0.017-0.045,0.032-0.064l0.134-0.168c0.008-0.01,0.017-0.02,0.027-0.025l0.191-0.174l-0.036-0.121l-0.146-0.174
		c-0.009-0.014-0.017-0.025-0.023-0.039l-0.271-0.574c-0.021-0.045-0.021-0.098,0.002-0.146l0.289-0.576l0.064-1.279
		c0.001-0.016,0.003-0.029,0.007-0.041l0.136-0.439l0.242-0.59l0.095-0.322l0.141-0.35c0.005-0.016,0.015-0.031,0.024-0.045
		l0.254-0.318l0.127-0.312l0.162-0.266l0.029-0.266l-0.035-0.408c0-0.014,0-0.025,0.002-0.039l0.203-1.25
		c0.004-0.014,0.008-0.029,0.014-0.043l0.202-0.439l0.167-0.268l0.229-0.787c0.011-0.039,0.035-0.072,0.068-0.096l0.08-0.051
		l0.377-0.475l0.328-0.688l1.531-2.318l0.491-1.219l0.343-0.688l0.236-0.34l0.296-0.855c0.004-0.012,0.009-0.023,0.017-0.035
		l0.169-0.27c0.013-0.02,0.032-0.041,0.053-0.053l0.271-0.168l0.63-0.303v-0.08l-0.319-0.49l-0.393-0.182l-0.41-0.271l-0.688-0.229
		c-0.033-0.01-0.061-0.031-0.081-0.061l-0.102-0.135c-0.009-0.01-0.016-0.025-0.022-0.037l-0.067-0.17
		c-0.006-0.014-0.009-0.029-0.011-0.045l-0.034-0.338l0.034-0.436c0-0.023,0.008-0.043,0.017-0.062l0.125-0.248l0.059-0.324
		l-0.031-0.383c-0.002-0.025,0-0.047,0.008-0.068l0.066-0.203l0.207-0.516l0.283-0.465l0.378-0.9l-0.031-0.275l-0.001-0.93
		c0-0.039,0.012-0.072,0.035-0.102l-0.429-0.914l-0.921-0.369h-0.372c-0.022,0-0.045-0.004-0.066-0.012l-0.405-0.17
		c-0.079-0.033-0.121-0.121-0.097-0.201l0.135-0.475c0.005-0.021,0.017-0.041,0.03-0.059l0.135-0.17
		c0.01-0.01,0.021-0.021,0.034-0.031l0.127-0.092l-0.118-0.279c-0.007-0.02-0.011-0.041-0.012-0.062l-0.034-1.721
		c0-0.018,0.002-0.035,0.007-0.053l0.162-0.549v-0.18c0-0.033,0.01-0.064,0.028-0.094l0.168-0.252l-0.027-0.244
		c-0.005-0.039,0.005-0.08,0.03-0.115l0.844-1.182c0.038-0.053,0.1-0.078,0.163-0.068l1.505,0.229l0.192-0.082
		c0.021-0.01,0.043-0.014,0.066-0.014h0.596l0.074-0.088l-0.027-0.301l-0.081-0.508l-1.431-0.219l-0.903-0.275l-0.18-0.025
		l-0.48,0.096c-0.061,0.014-0.125-0.012-0.164-0.059c-0.04-0.049-0.048-0.115-0.024-0.174l0.19-0.439v-0.146l-0.044-0.176
		l-0.08-0.041l-0.202,0.047l-0.304,0.273c-0.031,0.027-0.072,0.043-0.113,0.043h-0.203l0,0l-0.355-0.035
		c-0.029-0.002-0.057-0.014-0.082-0.031l-0.236-0.166c-0.016-0.014-0.031-0.029-0.042-0.045L34.902,9.95
		c-0.023-0.031-0.032-0.072-0.028-0.111l0.028-0.281l-0.343-0.596c-0.044-0.074-0.023-0.172,0.047-0.221l0.198-0.143l0.106-0.24
		l0.054-0.393l-0.145,0.08c-0.024,0.014-0.053,0.021-0.081,0.021h-0.574c-0.019,0-0.037-0.004-0.053-0.008l-0.203-0.068
		c-0.011-0.004-0.023-0.01-0.034-0.016l-0.169-0.1c-0.024-0.016-0.045-0.037-0.059-0.062L33.51,7.577
		c-0.014-0.025-0.021-0.055-0.021-0.084V6.929l-0.753-0.66c-0.012-0.01-0.023-0.023-0.033-0.037l-0.269-0.439l-0.805-1.541
		l-0.556,0.527l-0.254,0.186l-0.349,0.354l-0.169,0.258l-0.636,1.807c-0.007,0.018-0.017,0.035-0.03,0.051l-0.912,1.082
		l-1.876,1.607l-0.149,0.18l-0.151,0.279l-0.114,0.258v0.189l0.112,0.195c0.01,0.018,0.016,0.035,0.02,0.053l0.067,0.338
		c0.009,0.043,0,0.086-0.023,0.123l-0.305,0.475l-0.694,0.732l-0.631,0.459l-1.18,1.051l-0.18,0.33l-0.327,1.141v0.209l0.153,0.338
		c0.007,0.018,0.013,0.037,0.015,0.059l0.034,0.438l0,0l0,0c0.002,0.02,0,0.041-0.005,0.061l-0.305,1.047
		c-0.01,0.035-0.033,0.068-0.063,0.088l-0.473,0.338c-0.014,0.01-0.03,0.021-0.047,0.025l-0.642,0.203l-0.414,0.102
		c-0.014,0.006-0.027,0.006-0.042,0.006h-0.169c-0.013,0-0.027,0-0.04-0.006l-0.163-0.039l0.384,0.672l0.184,0.273l0.523,0.461
		c0.028,0.021,0.048,0.055,0.055,0.092l0.034,0.17c0.004,0.018,0.004,0.037,0,0.059l-0.164,1.086l0.082,0.467l0.875,0.467
		c0.014,0.008,0.026,0.016,0.039,0.029l0.338,0.338c0.043,0.045,0.06,0.109,0.042,0.17l-0.135,0.436
		c-0.008,0.029-0.024,0.057-0.045,0.074l-0.607,0.576c-0.019,0.016-0.042,0.029-0.066,0.037l-0.54,0.17l-0.488,0.246L21.085,25.2
		l-0.481,0.678l-0.084,0.195l-0.032,0.279c-0.005,0.051-0.036,0.098-0.08,0.125l-0.168,0.102c-0.026,0.016-0.057,0.025-0.087,0.025
		h-0.271l0,0c-0.015,0-0.03-0.004-0.044-0.008l-1.082-0.295l-0.213,0.025l-0.184,0.082l-0.315,0.314l-0.423,0.32l-0.728,0.693
		c-0.018,0.018-0.039,0.031-0.063,0.039l-0.304,0.102c-0.018,0.006-0.036,0.01-0.054,0.01c-0.005,0-0.009,0-0.014,0l-0.405-0.035
		c-0.019,0-0.035-0.008-0.053-0.014l-0.709-0.303L15,27.438l-0.266-0.148c-0.026-0.016-0.048-0.037-0.062-0.062l-0.098-0.172
		l-0.206-0.045l-0.682,0.066c-0.03,0-0.061-0.006-0.088-0.018l-0.574-0.27c-0.028-0.012-0.052-0.035-0.07-0.061l-0.935-1.438
		l-0.235-0.234l-0.175-0.076h-0.201l-0.323-0.033h-0.098l-0.037,0.023l-0.185,0.246c-0.012,0.018-0.029,0.033-0.048,0.045
		l-0.168,0.102c-0.01,0.006-0.022,0.012-0.033,0.016l-0.203,0.066c-0.017,0.008-0.036,0.01-0.053,0.01h-0.236l-0.497-0.07
		l-0.348,0.002c-0.034,0-0.065-0.01-0.093-0.027l-0.102-0.068c-0.015-0.01-0.028-0.021-0.039-0.035l-0.27-0.338l-0.935-0.965
		l-0.224-0.057c-0.02-0.004-0.038-0.014-0.055-0.025l-0.408-0.283l-0.165-0.027l-0.18,0.004l-0.462,0.152l-0.354,0.227
		c-0.037,0.021-0.081,0.029-0.124,0.021l-0.169-0.033c-0.021-0.004-0.042-0.012-0.061-0.025l-0.202-0.135
		c-0.014-0.008-0.027-0.02-0.037-0.031l-0.305-0.373c-0.014-0.018-0.024-0.039-0.031-0.061l-0.068-0.238
		c-0.003-0.014-0.006-0.029-0.006-0.045v-0.535l-0.038-0.086l-0.064,0.082l-0.43,0.387l0.025,0.307
		c0.003,0.041-0.008,0.08-0.032,0.111l-0.168,0.24c-0.017,0.021-0.041,0.043-0.068,0.055L3.812,23.72
		c-0.041,0.018-0.087,0.018-0.129,0.002l-0.27-0.102c-0.022-0.006-0.043-0.02-0.06-0.039l-0.242-0.24l-0.129-0.043l-0.217,0.023
		l-0.941,0.779c-0.024,0.021-0.052,0.031-0.083,0.035L0.94,24.251v0.494l0.1,0.688l0.158,0.564l0.09,0.148l0.23,0.328
		c0.034,0.049,0.04,0.113,0.013,0.17c-0.025,0.053-0.08,0.09-0.14,0.096l-0.367,0.025L0.95,26.952l0.077,0.283l0.102,0.127
		l1.167,0.934c0.059,0.049,0.08,0.129,0.049,0.199l-0.108,0.246l0.063,0.189l0.176,0.133l0.203-0.018l0.022-0.057l0.098-0.623
		c0.003-0.018,0.009-0.031,0.017-0.047l0.067-0.137c0.008-0.016,0.019-0.031,0.032-0.045l0.206-0.205l0.156-0.533l0.061-0.59
		l-0.065-0.381c-0.008-0.055,0.01-0.109,0.049-0.148c0.04-0.039,0.097-0.057,0.15-0.043l0.246,0.047
		c-0.005-0.018-0.009-0.035-0.009-0.053v-0.168c0-0.066,0.037-0.123,0.094-0.152l0.203-0.1c0.014-0.01,0.03-0.014,0.047-0.018
		l0.202-0.033c0.022-0.002,0.042-0.002,0.062,0.002l0.167,0.035C4.5,25.8,4.514,25.806,4.528,25.812l0.051,0.023l0.014-0.023
		l0.027-0.221l-0.027-0.189l-0.093-0.217c-0.028-0.068-0.011-0.146,0.046-0.195c0.057-0.047,0.138-0.055,0.201-0.016l0.371,0.236
		c0.013,0.012,0.025,0.02,0.036,0.033l0.271,0.303l0.176,0.129l0.256-0.076c0.087-0.027,0.181,0.021,0.209,0.107l0.063,0.188h0.249
		c0.058,0,0.112,0.031,0.143,0.08c0.032,0.049,0.036,0.109,0.01,0.162l-0.371,0.775c-0.006,0.014-0.014,0.025-0.021,0.033
		l-0.755,0.951l0.487-0.107c0.049-0.01,0.102,0.002,0.142,0.035c0.039,0.031,0.062,0.08,0.062,0.131v0.17
		c0,0.072-0.048,0.139-0.121,0.16l-0.338,0.102l-1.098,0.207c-0.075,0.012-0.145-0.021-0.18-0.086
		c-0.035-0.066-0.022-0.146,0.03-0.201l0.2-0.195l-0.062-0.02l-0.263,0.027l-0.14,0.094l-0.095,0.143l-0.097,0.572
		c-0.002,0.018-0.007,0.031-0.015,0.047l-0.151,0.303v0.285l0.063,0.025l0.295,0.182l0.391,0.195
		c0.027,0.014,0.05,0.033,0.065,0.057l0.067,0.102c0.031,0.047,0.038,0.104,0.016,0.158l-0.067,0.166
		c-0.016,0.041-0.044,0.072-0.082,0.09l-0.259,0.129l0.719,0.389l1.533-0.256l1.199-0.707l-0.06-0.875
		c-0.004-0.064,0.026-0.123,0.079-0.156c0.053-0.031,0.12-0.035,0.173-0.004l0.207,0.119l0.237,0.031l0.553-0.002
		c0.081,0,0.151,0.057,0.165,0.135c0.005,0.02,0.005,0.039,0.001,0.057l0.879-0.189c0.05-0.008,0.102,0.002,0.143,0.035
		c0.038,0.033,0.062,0.08,0.062,0.131v0.135c0,0.049-0.02,0.094-0.055,0.127L9.75,29.919l-0.222,0.383l-0.276,0.414
		C9.23,30.747,9.2,30.769,9.164,30.782l-0.908,0.291l0.043,0.262L8.43,31.79c0.016,0.059,0,0.123-0.042,0.168L8.05,32.296
		c-0.049,0.047-0.122,0.061-0.184,0.035c-0.063-0.027-0.104-0.088-0.104-0.158v-0.234l-0.019-0.08l-0.121-0.104l-0.207,0.17
		l-0.019,0.168l0.144,0.189l0.346,0.223c0.078,0.049,0.102,0.152,0.053,0.232l-0.169,0.27c-0.011,0.018-0.026,0.033-0.044,0.049
		l-0.237,0.166c-0.024,0.02-0.052,0.029-0.081,0.031H7.397l0.005,0.002l0.217,0.037c0.021,0.002,0.041,0.01,0.06,0.021l0.169,0.102
		c0.075,0.045,0.103,0.141,0.064,0.221l-0.067,0.135c-0.03,0.059-0.092,0.1-0.163,0.09l-0.506-0.031
		c-0.012-0.002-0.025-0.004-0.038-0.008L6.8,33.72c-0.02-0.006-0.038-0.016-0.055-0.029l-0.43-0.332L6.27,33.47l-0.058,0.352
		l0.07,0.258l0.178,0.078l0.889-0.223l0.417-0.07c0.066-0.012,0.134,0.02,0.17,0.076c0.035,0.055,0.035,0.131-0.002,0.186
		l-0.203,0.303c-0.021,0.031-0.049,0.053-0.083,0.066l-0.372,0.133l-0.385,0.098l0.019,0.066l0.083,0.01l0.259-0.113
		c0.016-0.008,0.033-0.014,0.049-0.014l0.304-0.035c0.022-0.002,0.045,0,0.068,0.008l0.337,0.1c0.062,0.02,0.106,0.07,0.119,0.133
		c0.011,0.062-0.015,0.127-0.066,0.164l-0.135,0.102c-0.015,0.012-0.033,0.021-0.053,0.027L7.54,35.274L7.308,35.36l-0.214,0.184
		l-0.192,0.117c-0.042,0.025-0.093,0.031-0.14,0.016L6.559,35.61c-0.015-0.006-0.03-0.014-0.044-0.025l-0.056-0.039l-0.16,0.434
		L6.16,36.296c-0.007,0.014-0.016,0.027-0.026,0.039l-0.392,0.459l-0.057,0.115l0.005,0.012l0.248,0.053
		c0.076,0.016,0.132,0.078,0.136,0.156s-0.047,0.148-0.121,0.172l-0.675,0.199c-0.015,0.006-0.032,0.008-0.048,0.008H5.027
		c-0.059,0-0.115-0.029-0.144-0.078c-0.031-0.051-0.035-0.111-0.008-0.166l0.039-0.076l-0.248,0.016l-0.248,0.055l0.021,0.049
		c0.026,0.064,0.013,0.139-0.036,0.186l-0.102,0.102c-0.012,0.012-0.024,0.021-0.038,0.025l-0.055,0.033l0.131,0.084
		c0.061,0.039,0.089,0.109,0.074,0.18c-0.009,0.041-0.033,0.078-0.066,0.1l0.123,0.041c0.081,0.027,0.128,0.109,0.113,0.193
		l-0.069,0.338c-0.006,0.033-0.023,0.062-0.047,0.086L4.54,38.7c0.063,0.02,0.107,0.078,0.114,0.145
		c0.006,0.066-0.028,0.129-0.087,0.162l-0.039,0.021l0.129,0.104c0.025,0.018,0.042,0.043,0.051,0.07l0.069,0.168
		c0.017,0.047,0.016,0.094-0.007,0.139l-0.067,0.137c-0.023,0.045-0.067,0.08-0.119,0.088c-0.053,0.01-0.105-0.004-0.144-0.037
		l-0.257-0.229H3.896l-0.16,0.105c-0.028,0.018-0.061,0.029-0.094,0.029H3.473c-0.059,0-0.111-0.031-0.141-0.076l-0.039,0.102
		l-0.209,0.42l-0.102,0.363l0.222,0.309c0.014,0.02,0.024,0.041,0.029,0.064l0.034,0.168c0.008,0.045-0.001,0.09-0.025,0.127
		l-0.068,0.102c-0.025,0.041-0.066,0.066-0.112,0.074c-0.047,0.008-0.094-0.004-0.13-0.031l-0.135-0.102
		c-0.014-0.012-0.026-0.023-0.036-0.037l-0.143-0.199l-0.041,0.051l-0.083,0.27l0.029,0.33l0.178,0.27l0.734,0.898
		c0.008,0.01,0.015,0.018,0.021,0.031l0.134,0.27c0.031,0.062,0.021,0.139-0.027,0.189c-0.047,0.051-0.123,0.068-0.188,0.041
		l-0.573-0.236c-0.023-0.01-0.043-0.025-0.061-0.043l-0.336-0.371c-0.011-0.008-0.018-0.02-0.025-0.033l-0.403-0.754l-0.278,0.258
		l-0.123,0.086c-0.023,0.014-0.049,0.023-0.078,0.027L1.16,42.2l-0.344,0.098c-0.021,0.006-0.045,0.006-0.068,0.004l-0.184-0.025
		l-0.193,0.096l-0.214,0.246l-0.131,0.211L0,43.151l0.216,0.213L1.159,44.276z"/>
	<g>
		<g>
			<g enable-background="new    ">
				<path fill="#331842" d="M334.038,14.258c-1.065-4.388-2.328-8.975-3.786-13.76l3.826-0.293l2.24,10.703
					c1.144-3.743,2.078-7.132,2.803-10.166l3.629,0.332c-1.834,5.905-3.201,10.264-4.101,13.076L334.038,14.258z"/>
				<path fill="#331842" d="M342.304,14.297c1.642-5.56,2.969-10.273,3.982-14.141l4.913-0.059c1.205,4.023,2.585,8.606,4.14,13.75
					l-3.354,0.508l-1.061-3.701h-4.074l-1.101,3.994L342.304,14.297z M350.82,7.91c-0.455-1.406-1.197-3.089-2.228-5.049
					c-0.794,1.647-1.467,3.353-2.017,5.117L350.82,7.91z"/>
				<path fill="#331842" d="M359.689,0c-0.157,3.392-0.236,6.299-0.236,8.721c0,0.964,0.013,1.853,0.039,2.666l5.843-0.215
					l0.092,3.184l-9.354,0.156c0.008-0.859,0.013-1.716,0.013-2.568c0-3.913-0.113-7.806-0.34-11.68L359.689,0z"/>
				<path fill="#331842" d="M370.72,0c-0.157,3.392-0.236,6.299-0.236,8.721c0,0.964,0.013,1.853,0.039,2.666l5.843-0.215
					l0.092,3.184l-9.354,0.156c0.008-0.859,0.013-1.716,0.013-2.568c0-3.913-0.113-7.806-0.34-11.68L370.72,0z"/>
				<path fill="#331842" d="M386.126,0.625v2.754l-5.175-0.156v3.203l4.651-0.098l0.118,2.646h-4.153v2.48h5.437v2.773l-9.066-0.098
					c0.096-1.829,0.144-3.672,0.144-5.527c0-2.571-0.092-5.166-0.275-7.783C379.781,0.762,382.554,0.696,386.126,0.625z"/>
				<path fill="#331842" d="M393.148,14.316c0.017-2.194,0.026-4.453,0.026-6.777c0-2.331-0.009-4.724-0.026-7.178
					c1.004-0.091,1.93-0.137,2.777-0.137c2.358,0,4.096,0.352,5.214,1.055c1.52,0.964,2.314,2.744,2.384,5.342v0.703
					c0,2.227-0.288,3.815-0.865,4.766c-0.637,1.048-1.803,1.745-3.498,2.09c-0.979,0.202-2.053,0.303-3.223,0.303
					C395.065,14.482,394.135,14.427,393.148,14.316z M396.397,3.154c-0.149,2.142-0.223,4.212-0.223,6.211
					c0,0.755,0.008,1.497,0.026,2.227c0.306,0.052,0.598,0.078,0.878,0.078c0.769,0,1.415-0.198,1.939-0.596
					c0.716-0.534,1.074-1.731,1.074-3.594V7.441c-0.009-1.875-0.358-3.105-1.048-3.691c-0.533-0.442-1.166-0.664-1.899-0.664
					C396.908,3.086,396.659,3.108,396.397,3.154z"/>
				<path fill="#331842" d="M412.93,0.625v2.754l-5.175-0.156v3.203l4.651-0.098l0.118,2.646h-4.153v2.48h5.437v2.773l-9.066-0.098
					c0.096-1.829,0.144-3.672,0.144-5.527c0-2.571-0.092-5.166-0.275-7.783C406.584,0.762,409.357,0.696,412.93,0.625z"/>
				<path fill="#331842" d="M419.008,0c-0.157,3.392-0.236,6.299-0.236,8.721c0,0.964,0.013,1.853,0.039,2.666l5.843-0.215
					l0.092,3.184l-9.354,0.156c0.008-0.859,0.013-1.716,0.013-2.568c0-3.913-0.113-7.806-0.34-11.68L419.008,0z"/>
				<path fill="#331842" d="M441.043,5.625l-2.908,0.01V5.371c0-1.53-0.576-2.295-1.729-2.295c-1.231,0-1.847,1.413-1.847,4.238
					c0,3.184,0.646,4.775,1.939,4.775h0.013c1.292-0.007,1.939-0.788,1.939-2.344V8.779h3.249v0.732
					c0,3.242-1.786,4.938-5.358,5.088c-0.104,0.007-0.209,0.01-0.314,0.01c-3.362,0-5.043-2.409-5.043-7.227
					c0-4.714,1.729-7.07,5.188-7.07c3.257,0,4.886,1.575,4.886,4.727C441.057,5.228,441.052,5.423,441.043,5.625z"/>
				<path fill="#331842" d="M441.712,14.297c1.642-5.56,2.969-10.273,3.982-14.141l4.913-0.059c1.205,4.023,2.585,8.606,4.14,13.75
					l-3.354,0.508l-1.061-3.701h-4.074l-1.101,3.994L441.712,14.297z M450.228,7.91c-0.455-1.406-1.197-3.089-2.228-5.049
					c-0.794,1.647-1.467,3.353-2.017,5.117L450.228,7.91z"/>
				<path fill="#331842" d="M465.843,0.371v9.658c0,2.976-1.825,4.463-5.476,4.463h-0.288c-3.057-0.261-4.638-1.507-4.743-3.74
					c0-4.46-0.061-7.976-0.183-10.547h3.485c-0.087,1.472-0.131,3.2-0.131,5.186c0,1.394,0.022,2.917,0.065,4.57
					c0.018,1.211,0.603,1.816,1.756,1.816c0,0.007,0.004,0.01,0.013,0.01c1.144,0,1.716-0.774,1.716-2.324l-0.065-9.004
					L465.843,0.371z"/>
				<path fill="#331842" d="M477.162,5.625l-2.908,0.01V5.371c0-1.53-0.576-2.295-1.729-2.295c-1.231,0-1.847,1.413-1.847,4.238
					c0,3.184,0.646,4.775,1.939,4.775h0.013c1.292-0.007,1.939-0.788,1.939-2.344V8.779h3.249v0.732
					c0,3.242-1.786,4.938-5.358,5.088c-0.104,0.007-0.209,0.01-0.314,0.01c-3.362,0-5.043-2.409-5.043-7.227
					c0-4.714,1.729-7.07,5.188-7.07c3.257,0,4.886,1.575,4.886,4.727C477.175,5.228,477.171,5.423,477.162,5.625z"/>
				<path fill="#331842" d="M477.831,14.297c1.642-5.56,2.969-10.273,3.982-14.141l4.913-0.059c1.205,4.023,2.585,8.606,4.14,13.75
					l-3.354,0.508l-1.061-3.701h-4.074l-1.101,3.994L477.831,14.297z M486.346,7.91c-0.455-1.406-1.197-3.089-2.228-5.049
					c-0.794,1.647-1.467,3.353-2.017,5.117L486.346,7.91z"/>
			</g>
		</g>
	</g>
</g>
</svg>
