<?xml version="1.0" encoding="utf-8"?>
<!-- Generator: Adobe Illustrator 16.0.0, SVG Export Plug-In . SVG Version: 6.00 Build 0)  -->
<!DOCTYPE svg PUBLIC "-//W3C//DTD SVG 1.1//EN" "http://www.w3.org/Graphics/SVG/1.1/DTD/svg11.dtd">
<svg version="1.1" id="Capa_1" xmlns="http://www.w3.org/2000/svg" xmlns:xlink="http://www.w3.org/1999/xlink" x="0px" y="0px"
	 width="171.79px" height="31.413px" viewBox="0 0 171.79 31.413" enable-background="new 0 0 171.79 31.413" xml:space="preserve">
<rect x="0.037" y="0.207" transform="matrix(1 -0.0024 0.0024 1 -0.0377 0.2074)" fill="#951B81" width="171.716" height="30.999"/>
<g>
	<path fill="#FFFFFF" d="M26.498,19.859V9.016c0-0.114,0.021-0.223,0.062-0.324s0.1-0.19,0.174-0.266
		c0.075-0.075,0.162-0.134,0.26-0.176c0.098-0.042,0.207-0.062,0.326-0.062h2.996c0.522,0,1.016,0.102,1.479,0.305
		s0.867,0.479,1.211,0.828c0.344,0.349,0.617,0.757,0.819,1.223c0.202,0.466,0.302,0.962,0.302,1.488
		c0,0.344-0.042,0.679-0.128,1.004c-0.085,0.326-0.212,0.633-0.38,0.922c-0.168,0.289-0.378,0.558-0.629,0.805
		c-0.251,0.248-0.542,0.465-0.873,0.652l2.476,3.992c0.088,0.146,0.132,0.297,0.132,0.453c0,0.12-0.021,0.229-0.062,0.328
		c-0.042,0.099-0.1,0.187-0.175,0.262c-0.075,0.076-0.163,0.134-0.264,0.176c-0.101,0.042-0.208,0.062-0.322,0.062
		c-0.29,0-0.525-0.135-0.707-0.406l-2.74-4.414h-2.312v3.992c0,0.229-0.081,0.425-0.241,0.586c-0.161,0.162-0.354,0.242-0.583,0.242
		c-0.228,0-0.421-0.081-0.582-0.242C26.578,20.284,26.498,20.089,26.498,19.859z M28.143,9.844v4.367h2.173
		c0.3,0,0.582-0.057,0.846-0.172c0.264-0.114,0.493-0.272,0.687-0.473c0.194-0.2,0.348-0.432,0.461-0.695
		c0.114-0.263,0.171-0.543,0.171-0.84c0-0.302-0.057-0.586-0.171-0.852s-0.269-0.497-0.465-0.695
		c-0.197-0.198-0.427-0.354-0.691-0.469c-0.264-0.114-0.543-0.172-0.838-0.172H28.143z"/>
	<path fill="#FFFFFF" d="M45.642,18.227c0.233,0,0.425,0.077,0.578,0.23c0.153,0.154,0.229,0.348,0.229,0.582
		c0,0.229-0.078,0.425-0.233,0.586c-0.802,0.708-1.749,1.062-2.84,1.062c-1.201,0-2.225-0.427-3.074-1.281
		c-0.849-0.854-1.273-1.885-1.273-3.094c0-1.208,0.424-2.239,1.273-3.094c0.849-0.854,1.873-1.281,3.074-1.281
		c1.189,0,2.214,0.427,3.073,1.281c0.424,0.422,0.742,0.892,0.955,1.41c0.212,0.519,0.318,1.08,0.318,1.684
		c0,0.234-0.079,0.429-0.237,0.582c-0.158,0.154-0.351,0.23-0.578,0.23H40.76c0.088,0.287,0.217,0.548,0.388,0.785
		c0.17,0.237,0.371,0.44,0.602,0.609c0.23,0.169,0.483,0.301,0.76,0.395s0.565,0.141,0.866,0.141c0.341,0,0.654-0.052,0.939-0.156
		c0.285-0.104,0.548-0.26,0.792-0.469C45.261,18.3,45.44,18.232,45.642,18.227z M45.991,15.5c-0.088-0.286-0.219-0.548-0.392-0.785
		c-0.174-0.237-0.375-0.44-0.605-0.609c-0.23-0.169-0.484-0.301-0.761-0.395c-0.277-0.094-0.562-0.141-0.857-0.141
		s-0.583,0.047-0.862,0.141s-0.536,0.226-0.768,0.395c-0.233,0.169-0.435,0.373-0.605,0.609c-0.171,0.237-0.298,0.499-0.38,0.785
		H45.991z"/>
	<path fill="#FFFFFF" d="M56.489,20.688c-1.04,0-1.948-0.32-2.724-0.961v3.898c0,0.234-0.079,0.428-0.237,0.582
		c-0.158,0.153-0.351,0.23-0.578,0.23c-0.233,0-0.426-0.077-0.578-0.23c-0.153-0.154-0.229-0.348-0.229-0.582v-7.312
		c0-1.208,0.425-2.239,1.273-3.094c0.848-0.854,1.873-1.281,3.073-1.281c1.19,0,2.214,0.427,3.073,1.281
		c0.424,0.422,0.743,0.892,0.955,1.41c0.212,0.519,0.318,1.08,0.318,1.684c0,1.219-0.424,2.25-1.273,3.094
		c-0.435,0.433-0.907,0.754-1.416,0.965C57.636,20.582,57.083,20.688,56.489,20.688z M53.765,16.312
		c0,0.375,0.071,0.729,0.213,1.062c0.142,0.333,0.335,0.624,0.578,0.871c0.243,0.248,0.53,0.444,0.861,0.59
		c0.331,0.146,0.688,0.219,1.071,0.219c0.377,0,0.732-0.073,1.063-0.219c0.331-0.146,0.619-0.344,0.865-0.594
		c0.246-0.25,0.439-0.54,0.582-0.871c0.142-0.331,0.213-0.684,0.213-1.059S59.142,15.585,59,15.254
		c-0.143-0.331-0.336-0.621-0.582-0.871c-0.246-0.25-0.534-0.448-0.865-0.594c-0.332-0.146-0.686-0.219-1.063-0.219
		c-0.383,0-0.74,0.073-1.071,0.219c-0.331,0.146-0.618,0.343-0.861,0.59c-0.243,0.248-0.436,0.538-0.578,0.871
		C53.835,15.583,53.765,15.938,53.765,16.312z"/>
	<path fill="#FFFFFF" d="M72.327,19.875v-0.156c-0.388,0.312-0.81,0.552-1.265,0.719c-0.456,0.167-0.942,0.25-1.459,0.25
		c-1.2,0-2.225-0.427-3.073-1.281c-0.849-0.854-1.273-1.885-1.273-3.094c0-1.208,0.424-2.239,1.273-3.094
		c0.849-0.854,1.873-1.281,3.073-1.281c1.19,0,2.215,0.427,3.074,1.281c0.849,0.854,1.273,1.886,1.273,3.094v3.562
		c0,0.224-0.079,0.416-0.237,0.574c-0.158,0.159-0.348,0.238-0.57,0.238c-0.228,0-0.42-0.079-0.579-0.238
		C72.405,20.291,72.327,20.099,72.327,19.875z M69.602,13.57c-0.383,0-0.74,0.073-1.071,0.219c-0.332,0.146-0.619,0.343-0.862,0.59
		c-0.243,0.248-0.436,0.538-0.578,0.871c-0.142,0.333-0.213,0.688-0.213,1.062s0.071,0.729,0.213,1.062
		c0.143,0.333,0.335,0.624,0.578,0.871c0.243,0.248,0.53,0.444,0.862,0.59c0.331,0.146,0.688,0.219,1.071,0.219
		c0.378,0,0.732-0.073,1.063-0.219c0.331-0.146,0.62-0.344,0.865-0.594c0.246-0.25,0.44-0.54,0.582-0.871
		c0.143-0.331,0.214-0.684,0.214-1.059s-0.071-0.728-0.214-1.059c-0.142-0.331-0.336-0.621-0.582-0.871
		c-0.246-0.25-0.534-0.448-0.865-0.594C70.334,13.644,69.98,13.57,69.602,13.57z"/>
	<path fill="#FFFFFF" d="M79.96,12.75v0.156c0.388-0.312,0.81-0.552,1.265-0.719c0.456-0.167,0.942-0.25,1.459-0.25
		c0.228,0,0.472,0.016,0.734,0.047c0.261,0.031,0.501,0.087,0.722,0.168c0.22,0.081,0.402,0.191,0.547,0.332
		c0.145,0.141,0.218,0.323,0.218,0.547c0,0.115-0.022,0.222-0.066,0.32c-0.044,0.099-0.102,0.187-0.175,0.262
		c-0.072,0.076-0.158,0.134-0.256,0.176c-0.098,0.042-0.205,0.062-0.318,0.062c-0.098,0-0.212-0.028-0.341-0.086
		c-0.326-0.13-0.68-0.195-1.063-0.195c-0.377,0-0.732,0.072-1.063,0.215c-0.331,0.144-0.62,0.339-0.865,0.586
		c-0.246,0.248-0.44,0.538-0.583,0.871c-0.142,0.333-0.213,0.69-0.213,1.07v3.562c0,0.224-0.079,0.416-0.237,0.574
		c-0.158,0.159-0.348,0.238-0.57,0.238c-0.228,0-0.42-0.079-0.578-0.238c-0.158-0.159-0.237-0.35-0.237-0.574V12.75
		c0-0.224,0.079-0.415,0.237-0.574c0.158-0.159,0.35-0.238,0.578-0.238c0.222,0,0.413,0.08,0.57,0.238
		C79.881,12.335,79.96,12.526,79.96,12.75z"/>
	<path fill="#FFFFFF" d="M96.07,19.875v-0.156c-0.388,0.312-0.81,0.552-1.265,0.719c-0.456,0.167-0.942,0.25-1.459,0.25
		c-1.201,0-2.225-0.427-3.074-1.281C89.423,18.552,89,17.521,89,16.312c0-1.208,0.424-2.239,1.272-3.094
		c0.849-0.854,1.873-1.281,3.074-1.281c1.19,0,2.214,0.427,3.074,1.281c0.848,0.854,1.272,1.886,1.272,3.094v3.562
		c0,0.224-0.079,0.416-0.236,0.574c-0.158,0.159-0.348,0.238-0.571,0.238c-0.228,0-0.42-0.079-0.578-0.238
		C96.149,20.291,96.07,20.099,96.07,19.875z M93.346,13.57c-0.383,0-0.74,0.073-1.071,0.219c-0.332,0.146-0.619,0.343-0.862,0.59
		c-0.243,0.248-0.436,0.538-0.578,0.871c-0.143,0.333-0.213,0.688-0.213,1.062s0.071,0.729,0.213,1.062
		c0.142,0.333,0.335,0.624,0.578,0.871c0.243,0.248,0.53,0.444,0.862,0.59c0.331,0.146,0.688,0.219,1.071,0.219
		c0.377,0,0.732-0.073,1.063-0.219c0.331-0.146,0.62-0.344,0.866-0.594s0.44-0.54,0.582-0.871c0.142-0.331,0.213-0.684,0.213-1.059
		s-0.071-0.728-0.213-1.059c-0.142-0.331-0.336-0.621-0.582-0.871s-0.535-0.448-0.866-0.594
		C94.078,13.644,93.723,13.57,93.346,13.57z"/>
	<path fill="#FFFFFF" d="M108.726,18.211c0.233,0,0.425,0.077,0.578,0.23c0.153,0.154,0.229,0.348,0.229,0.582
		c0,0.229-0.085,0.43-0.256,0.602c-0.802,0.708-1.747,1.062-2.833,1.062c-1.201,0-2.225-0.427-3.074-1.281
		c-0.849-0.854-1.273-1.885-1.273-3.094c0-1.208,0.424-2.239,1.273-3.094c0.849-0.854,1.873-1.281,3.074-1.281
		c1.092,0,2.036,0.354,2.833,1.062c0.186,0.167,0.279,0.373,0.279,0.617c0,0.234-0.077,0.43-0.229,0.586
		c-0.153,0.156-0.346,0.234-0.579,0.234c-0.196,0-0.372-0.062-0.527-0.188c-0.264-0.224-0.541-0.393-0.831-0.508
		c-0.29-0.114-0.605-0.172-0.947-0.172c-0.378,0-0.732,0.072-1.063,0.215c-0.331,0.144-0.621,0.339-0.869,0.586
		c-0.249,0.248-0.444,0.538-0.586,0.871c-0.143,0.333-0.214,0.69-0.214,1.07c0,0.38,0.071,0.737,0.214,1.07
		c0.142,0.333,0.337,0.624,0.586,0.871c0.248,0.248,0.538,0.443,0.869,0.586c0.331,0.144,0.686,0.215,1.063,0.215
		c0.341,0,0.657-0.056,0.947-0.168c0.29-0.112,0.564-0.28,0.823-0.504C108.358,18.273,108.529,18.216,108.726,18.211z"/>
	<path fill="#FFFFFF" d="M116.181,10.383c0,0.266-0.093,0.492-0.279,0.68c-0.187,0.188-0.412,0.281-0.676,0.281
		c-0.264,0-0.489-0.094-0.675-0.281c-0.187-0.188-0.279-0.414-0.279-0.68s0.093-0.492,0.279-0.68
		c0.186-0.188,0.411-0.281,0.675-0.281c0.264,0,0.489,0.094,0.676,0.281C116.088,9.891,116.181,10.117,116.181,10.383z
		 M114.419,19.867v-7.109c0-0.229,0.079-0.423,0.236-0.582c0.158-0.159,0.348-0.238,0.57-0.238c0.223,0,0.413,0.08,0.571,0.238
		c0.158,0.159,0.239,0.353,0.245,0.582v7.109c-0.005,0.229-0.087,0.423-0.245,0.582c-0.158,0.159-0.348,0.238-0.571,0.238
		c-0.222,0-0.412-0.079-0.57-0.238C114.498,20.291,114.419,20.097,114.419,19.867z"/>
	<path fill="#FFFFFF" d="M129.582,16.312c0,1.219-0.424,2.25-1.272,3.094c-0.859,0.854-1.884,1.281-3.074,1.281
		c-1.2,0-2.225-0.427-3.073-1.281c-0.849-0.854-1.273-1.885-1.273-3.094c0-1.208,0.424-2.239,1.273-3.094
		c0.848-0.854,1.873-1.281,3.073-1.281c1.19,0,2.214,0.427,3.074,1.281c0.424,0.427,0.741,0.898,0.951,1.414
		S129.577,15.708,129.582,16.312z M125.235,13.57c-0.383,0-0.74,0.073-1.071,0.219c-0.332,0.146-0.619,0.343-0.862,0.59
		c-0.243,0.248-0.436,0.538-0.578,0.871c-0.142,0.333-0.213,0.688-0.213,1.062s0.071,0.729,0.213,1.062
		c0.142,0.333,0.335,0.624,0.578,0.871c0.243,0.248,0.53,0.444,0.862,0.59c0.331,0.146,0.688,0.219,1.071,0.219
		c0.377,0,0.732-0.073,1.063-0.219c0.331-0.146,0.62-0.344,0.865-0.594s0.44-0.54,0.582-0.871c0.142-0.331,0.213-0.684,0.213-1.059
		s-0.071-0.728-0.213-1.059c-0.142-0.331-0.336-0.621-0.582-0.871s-0.534-0.448-0.865-0.594
		C125.967,13.644,125.613,13.57,125.235,13.57z M126.912,9.586l-1.552,1.555c-0.145,0.146-0.332,0.219-0.559,0.219
		c-0.233,0-0.426-0.077-0.578-0.23c-0.153-0.153-0.229-0.348-0.229-0.582c0-0.224,0.067-0.409,0.202-0.555l1.552-1.555
		c0.166-0.161,0.357-0.242,0.574-0.242c0.233,0,0.426,0.08,0.579,0.238c0.152,0.159,0.229,0.353,0.229,0.582
		C127.129,9.25,127.057,9.44,126.912,9.586z"/>
	<path fill="#FFFFFF" d="M135.617,12.742c0.688-0.536,1.498-0.805,2.43-0.805c0.543,0,1.06,0.107,1.548,0.32
		c0.489,0.214,0.919,0.504,1.292,0.871c0.372,0.367,0.667,0.8,0.885,1.297c0.217,0.498,0.326,1.027,0.326,1.59v3.852
		c0,0.229-0.079,0.423-0.237,0.582c-0.158,0.159-0.348,0.238-0.57,0.238c-0.228,0-0.42-0.079-0.578-0.238
		c-0.158-0.159-0.237-0.353-0.237-0.582v-3.852c0-0.333-0.065-0.648-0.194-0.945c-0.13-0.297-0.304-0.556-0.524-0.777
		c-0.22-0.221-0.478-0.397-0.772-0.527c-0.295-0.13-0.608-0.195-0.939-0.195c-0.336,0-0.651,0.064-0.943,0.191
		c-0.292,0.128-0.55,0.304-0.772,0.527c-0.223,0.224-0.397,0.484-0.524,0.781s-0.19,0.612-0.19,0.945v3.852
		c0,0.229-0.079,0.423-0.236,0.582c-0.158,0.159-0.348,0.238-0.57,0.238c-0.228,0-0.421-0.079-0.579-0.238
		c-0.158-0.159-0.237-0.353-0.237-0.582v-7.109c0-0.224,0.079-0.417,0.237-0.578c0.158-0.161,0.351-0.242,0.579-0.242
		c0.222,0,0.412,0.081,0.57,0.242C135.538,12.341,135.617,12.529,135.617,12.742z"/>
</g>
</svg>
