<?xml version="1.0" encoding="utf-8"?>
<!-- Generator: Adobe Illustrator 16.0.0, SVG Export Plug-In . SVG Version: 6.00 Build 0)  -->
<!DOCTYPE svg PUBLIC "-//W3C//DTD SVG 1.1//EN" "http://www.w3.org/Graphics/SVG/1.1/DTD/svg11.dtd">
<svg version="1.1" id="Capa_1" xmlns="http://www.w3.org/2000/svg" xmlns:xlink="http://www.w3.org/1999/xlink" x="0px" y="0px"
	 width="455.216px" height="99.005px" viewBox="0 0 455.216 99.005" enable-background="new 0 0 455.216 99.005"
	 xml:space="preserve">
<g>
	<g>
		<g>
			<path fill="#331842" d="M140.021,35.67c0.021-2.534,0.03-5.144,0.03-7.828c0-2.691-0.01-5.455-0.03-8.29
				c1.16-0.105,2.229-0.158,3.208-0.158c2.724,0,4.731,0.406,6.022,1.219c1.755,1.112,2.673,3.169,2.754,6.169v0.812
				c0,2.571-0.333,4.406-0.999,5.504c-0.736,1.211-2.083,2.016-4.04,2.414c-1.13,0.233-2.371,0.35-3.722,0.35
				C142.235,35.861,141.161,35.798,140.021,35.67z M143.773,22.777c-0.171,2.475-0.257,4.865-0.257,7.174
				c0,0.872,0.01,1.729,0.03,2.571c0.353,0.061,0.69,0.091,1.014,0.091c0.888,0,1.634-0.229,2.239-0.688
				c0.827-0.616,1.241-2,1.241-4.15v-0.045c-0.01-2.166-0.414-3.587-1.21-4.264c-0.615-0.512-1.347-0.768-2.194-0.768
				C144.364,22.698,144.076,22.725,143.773,22.777z"/>
			<path fill="#331842" d="M158.996,24.188c3.319,0.136,4.978,1.38,4.978,3.733v8.008l-3.525,0.045l-0.121-1.071
				c-0.727,0.617-1.69,0.925-2.89,0.925c-0.514,0-1.069-0.06-1.665-0.18c-1.785-0.331-2.678-1.361-2.678-3.091
				c0-0.211,0.015-0.437,0.045-0.677c0.202-1.782,1.901-2.673,5.099-2.673c0.615,0,1.291,0.033,2.027,0.102V28
				c0-1.061-0.449-1.591-1.347-1.591h-0.061c-0.071-0.007-0.136-0.011-0.197-0.011c-0.979,0-1.468,0.594-1.468,1.782v0.169
				l-3.601-0.226c0-2.624,1.695-3.937,5.084-3.937H158.996z M160.267,33.098v-1.985c-0.434-0.067-0.827-0.101-1.18-0.101
				c-0.918,0-1.543,0.229-1.876,0.688c-0.202,0.278-0.302,0.538-0.302,0.778c0,0.301,0.161,0.567,0.484,0.801
				c0.252,0.181,0.58,0.271,0.983,0.271C158.89,33.549,159.52,33.398,160.267,33.098z"/>
			<path fill="#331842" d="M167.968,24.222l0.151,1.838c0.424-0.978,1.538-1.474,3.344-1.488h0.061c1.775,0,2.985,0.519,3.631,1.556
				c0.444,0.707,0.666,2.361,0.666,4.963c0,1.278-0.056,2.79-0.167,4.534h-3.662c0.131-2.323,0.197-4.124,0.197-5.402
				c0-0.639-0.015-1.15-0.045-1.534c-0.101-1.128-0.585-1.691-1.453-1.691s-1.412,0.301-1.634,0.902l0.151,8.177l-3.556,0.023
				c0-3.459-0.156-7.343-0.469-11.651L167.968,24.222z M165.578,23.003c0-2.256,1.009-3.384,3.026-3.384
				c1.008,0,1.791,0.282,2.345,0.846c0.464,0.467,0.893,0.7,1.286,0.7c0.081,0,0.156-0.008,0.227-0.023
				c0.454-0.112,0.681-0.62,0.681-1.522h2.27c0,2.256-1.009,3.384-3.026,3.384c-1.009,0-1.816-0.282-2.421-0.846
				c-0.504-0.474-0.938-0.711-1.301-0.711c-0.071,0-0.142,0.012-0.212,0.034c-0.404,0.112-0.605,0.62-0.605,1.522H165.578z"/>
			<path fill="#331842" d="M182.403,24.515c3.43,0,5.145,1.774,5.145,5.323c0,0.144-0.005,0.286-0.015,0.429
				c-0.141,3.843-1.967,5.783-5.477,5.82c-0.041,0.008-0.081,0.012-0.121,0.012c-3.339,0-5.008-1.816-5.008-5.448v-0.315
				C177.027,26.454,178.853,24.515,182.403,24.515z M181.904,27.086c-0.636,0.166-1.069,0.778-1.301,1.839
				c-0.142,0.632-0.212,1.267-0.212,1.906c0,0.429,0.03,0.861,0.091,1.297c0.161,1.083,0.681,1.643,1.559,1.681h0.106
				c0.817,0,1.376-0.402,1.679-1.207c0.252-0.669,0.378-1.462,0.378-2.38c0-0.226-0.005-0.455-0.015-0.688
				c-0.081-1.211-0.323-1.967-0.726-2.268c-0.252-0.181-0.555-0.271-0.908-0.271C182.353,26.996,182.136,27.026,181.904,27.086z"/>
			<path fill="#331842" d="M198.942,24.515c3.5,0,5.25,1.733,5.25,5.199c0,0.422-0.025,0.873-0.076,1.354h-6.764
				c0,1.933,0.5,2.899,1.498,2.899h0.106c0.877-0.053,1.316-0.553,1.316-1.501c0-0.202-0.021-0.428-0.061-0.677l3.601-0.056
				c0,2.864-1.68,4.316-5.039,4.354c-0.041,0.008-0.076,0.012-0.106,0.012c-3.198,0-4.796-1.809-4.796-5.426v-0.338
				C193.974,26.454,195.663,24.515,198.942,24.515z M196.99,28.992h3.42v-0.271c0-1.368-0.52-2.053-1.559-2.053
				C197.731,26.669,197.111,27.443,196.99,28.992z"/>
			<path fill="#331842" d="M207.763,24.277l0.061,1.805c0.544-0.864,1.175-1.402,1.891-1.612c0.424-0.12,0.853-0.181,1.286-0.181
				c0.323,0,0.646,0.03,0.968,0.09c0.787,0.15,1.347,0.752,1.68,1.805c0.262-0.819,0.716-1.366,1.362-1.641s1.362-0.416,2.148-0.423
				h0.061c0.767,0,1.503,0.139,2.209,0.417c0.716,0.286,1.264,0.821,1.642,1.607c0.378,0.785,0.577,1.863,0.598,3.231v6.553
				l-3.269,0.057c0.131-2.474,0.197-4.579,0.197-6.316s-0.444-2.673-1.332-2.809c-0.131-0.015-0.257-0.022-0.378-0.022
				c-0.706,0-1.25,0.339-1.634,1.016c-0.061,0.782-0.091,1.695-0.091,2.74c0,1.421,0.055,3.079,0.167,4.975l-3.783,0.022
				c0.141-2.91,0.211-5.03,0.211-6.361v-0.136c-0.01-1.315-0.358-2.008-1.044-2.075h-0.197c-0.615,0-1.21,0.264-1.785,0.789
				l0.03,8.257l-3.571,0.102v-1.85c0-3.278-0.066-6.554-0.197-9.824L207.763,24.277z"/>
			<path fill="#331842" d="M227.494,24.515c3.5,0,5.25,1.733,5.25,5.199c0,0.422-0.025,0.873-0.076,1.354h-6.764
				c0,1.933,0.5,2.899,1.498,2.899h0.106c0.877-0.053,1.316-0.553,1.316-1.501c0-0.202-0.021-0.428-0.061-0.677l3.601-0.056
				c0,2.864-1.68,4.316-5.039,4.354c-0.041,0.008-0.076,0.012-0.106,0.012c-3.198,0-4.796-1.809-4.796-5.426v-0.338
				C222.525,26.454,224.215,24.515,227.494,24.515z M225.542,28.992h3.42v-0.271c0-1.368-0.52-2.053-1.559-2.053
				C226.283,26.669,225.663,27.443,225.542,28.992z"/>
			<path fill="#331842" d="M237.903,28.011l0.151,8.178l-3.707,0.022c0-3.459-0.156-7.343-0.469-11.651l2.784-0.226l0.151,1.839
				c0.424-0.902,1.412-1.418,2.966-1.546c0.232-0.015,0.454-0.022,0.666-0.022c1.221,0,2.149,0.298,2.784,0.892
				c0.736,0.707,1.109,1.831,1.12,3.372l-3.359,0.248c0.01-0.128,0.015-0.252,0.015-0.372c0-1.203-0.419-1.805-1.256-1.805h-0.061
				C238.721,26.978,238.125,27.334,237.903,28.011z"/>
			<path fill="#331842" d="M245.787,37.406l3.556-0.146c-0.01,0.091-0.015,0.181-0.015,0.271c0,0.82,0.439,1.268,1.316,1.343
				c0.141,0.015,0.272,0.022,0.394,0.022c0.756,0,1.296-0.226,1.619-0.677c0.282-0.406,0.423-1.166,0.423-2.278
				c0-0.301-0.01-0.632-0.03-0.993c-0.565,0.843-1.614,1.302-3.147,1.377c-2.996-0.023-4.494-1.922-4.494-5.696v-0.079
				c0.021-3.819,1.801-5.741,5.341-5.764c0.969,0,1.836,0.421,2.603,1.264l0.045-1.794l3.314,0.113
				c0,6.203-0.025,10.046-0.076,11.527c-0.051,1.48-0.351,2.669-0.9,3.563c-0.55,0.896-1.485,1.467-2.807,1.715
				c-0.696,0.136-1.387,0.203-2.073,0.203c-0.615,0-1.226-0.053-1.831-0.158c-1.292-0.226-2.179-0.65-2.663-1.274
				c-0.404-0.512-0.605-1.181-0.605-2.008C245.756,37.771,245.767,37.595,245.787,37.406z M253.02,32.94v-4.58
				c-0.495-0.744-1.12-1.116-1.876-1.116c-0.151,0-0.308,0.015-0.469,0.045c-0.979,0.173-1.518,1.177-1.619,3.012
				c-0.01,0.195-0.015,0.384-0.015,0.563c0,1.497,0.373,2.414,1.12,2.753c0.252,0.12,0.52,0.18,0.802,0.18
				C251.587,33.797,252.272,33.512,253.02,32.94z"/>
			<path fill="#331842" d="M262.794,24.515c3.5,0,5.25,1.733,5.25,5.199c0,0.422-0.025,0.873-0.076,1.354h-6.764
				c0,1.933,0.5,2.899,1.498,2.899h0.106c0.877-0.053,1.316-0.553,1.316-1.501c0-0.202-0.021-0.428-0.061-0.677l3.601-0.056
				c0,2.864-1.68,4.316-5.039,4.354c-0.041,0.008-0.076,0.012-0.106,0.012c-3.198,0-4.796-1.809-4.796-5.426v-0.338
				C257.826,26.454,259.515,24.515,262.794,24.515z M260.842,28.992h3.42v-0.271c0-1.368-0.52-2.053-1.559-2.053
				C261.583,26.669,260.963,27.443,260.842,28.992z"/>
			<path fill="#331842" d="M271.963,24.222l0.151,1.838c0.424-0.978,1.538-1.474,3.344-1.488h0.061c1.775,0,2.985,0.519,3.631,1.556
				c0.444,0.707,0.666,2.361,0.666,4.963c0,1.278-0.056,2.79-0.167,4.534h-3.662c0.131-2.323,0.197-4.124,0.197-5.402
				c0-0.639-0.015-1.15-0.045-1.534c-0.101-1.128-0.585-1.691-1.453-1.691s-1.412,0.301-1.634,0.902l0.151,8.177l-3.556,0.023
				c0-3.459-0.156-7.343-0.469-11.651L271.963,24.222z"/>
			<path fill="#331842" d="M283.599,20.916l3.435-0.169v3.733l2.89-0.057l0.045,2.132l-2.936,0.102v5.132
				c0,1.196,0.681,1.794,2.042,1.794c0.282,0,0.59-0.026,0.923-0.079l-0.136,2.481c-0.484,0.045-0.943,0.067-1.377,0.067
				c-3.188,0-4.812-1.226-4.872-3.677V26.86l-2.482,0.113l-0.06-2.516l2.542,0.022L283.599,20.916z"/>
			<path fill="#331842" d="M296.143,24.515c3.5,0,5.25,1.733,5.25,5.199c0,0.422-0.025,0.873-0.076,1.354h-6.764
				c0,1.933,0.5,2.899,1.498,2.899h0.106c0.877-0.053,1.316-0.553,1.316-1.501c0-0.202-0.021-0.428-0.061-0.677l3.601-0.056
				c0,2.864-1.68,4.316-5.039,4.354c-0.041,0.008-0.076,0.012-0.106,0.012c-3.198,0-4.796-1.809-4.796-5.426v-0.338
				C291.174,26.454,292.864,24.515,296.143,24.515z M294.19,28.992h3.42v-0.271c0-1.368-0.52-2.053-1.559-2.053
				C294.932,26.669,294.312,27.443,294.19,28.992z"/>
			<path fill="#3C3C3B" d="M114.214,55.862V44.409h4.32c0.76,0,1.341,0.036,1.742,0.109c0.562,0.094,1.034,0.272,1.414,0.535
				c0.38,0.263,0.686,0.632,0.918,1.105c0.231,0.474,0.348,0.995,0.348,1.562c0,0.974-0.31,1.798-0.93,2.473
				c-0.62,0.675-1.74,1.012-3.359,1.012h-2.938v4.656H114.214z M115.729,49.854h2.961c0.979,0,1.674-0.183,2.086-0.547
				c0.411-0.364,0.617-0.878,0.617-1.539c0-0.479-0.121-0.89-0.363-1.23s-0.562-0.566-0.957-0.676
				c-0.255-0.067-0.727-0.102-1.414-0.102h-2.93V49.854z"/>
			<path fill="#3C3C3B" d="M130.386,53.19l1.453,0.18c-0.229,0.849-0.654,1.508-1.273,1.977c-0.62,0.469-1.412,0.703-2.375,0.703
				c-1.214,0-2.176-0.374-2.887-1.121s-1.066-1.796-1.066-3.145c0-1.396,0.359-2.479,1.078-3.25s1.651-1.156,2.797-1.156
				c1.109,0,2.016,0.378,2.719,1.133s1.055,1.817,1.055,3.188c0,0.083-0.003,0.208-0.008,0.375h-6.188
				c0.052,0.911,0.31,1.609,0.773,2.094c0.463,0.484,1.042,0.727,1.734,0.727c0.516,0,0.956-0.136,1.32-0.406
				C129.883,54.217,130.172,53.784,130.386,53.19z M125.769,50.917h4.633c-0.062-0.698-0.24-1.222-0.531-1.57
				c-0.448-0.542-1.029-0.812-1.742-0.812c-0.646,0-1.189,0.216-1.629,0.648C126.059,49.615,125.815,50.193,125.769,50.917z
				 M127.284,46.534l1.039-2.188h1.844l-1.719,2.188H127.284z"/>
			<path fill="#3C3C3B" d="M133.589,55.862v-8.297h1.266v1.258c0.323-0.589,0.621-0.977,0.895-1.164s0.574-0.281,0.902-0.281
				c0.474,0,0.956,0.151,1.445,0.453l-0.484,1.305c-0.344-0.203-0.688-0.305-1.031-0.305c-0.308,0-0.583,0.093-0.828,0.277
				c-0.245,0.185-0.419,0.441-0.523,0.77c-0.156,0.5-0.234,1.047-0.234,1.641v4.344H133.589z"/>
			<path fill="#3C3C3B" d="M144.315,55.862v-1.047c-0.526,0.823-1.3,1.234-2.32,1.234c-0.662,0-1.27-0.183-1.824-0.547
				s-0.984-0.874-1.289-1.527s-0.457-1.405-0.457-2.254c0-0.828,0.138-1.579,0.414-2.254c0.276-0.675,0.69-1.191,1.242-1.551
				c0.552-0.359,1.169-0.539,1.852-0.539c0.5,0,0.945,0.105,1.336,0.316s0.708,0.485,0.953,0.824v-4.109h1.398v11.453H144.315z
				 M139.87,51.722c0,1.062,0.224,1.856,0.672,2.383c0.448,0.526,0.977,0.789,1.586,0.789c0.614,0,1.137-0.251,1.566-0.754
				s0.645-1.27,0.645-2.301c0-1.136-0.219-1.969-0.656-2.5s-0.977-0.797-1.617-0.797c-0.625,0-1.147,0.255-1.566,0.766
				C140.08,49.818,139.87,50.623,139.87,51.722z"/>
			<path fill="#3C3C3B" d="M147.839,46.026v-1.617h1.406v1.617H147.839z M147.839,55.862v-8.297h1.406v8.297H147.839z"/>
			<path fill="#3C3C3B" d="M156.769,55.862v-1.047c-0.526,0.823-1.3,1.234-2.32,1.234c-0.662,0-1.27-0.183-1.824-0.547
				s-0.984-0.874-1.289-1.527s-0.457-1.405-0.457-2.254c0-0.828,0.138-1.579,0.414-2.254c0.276-0.675,0.69-1.191,1.242-1.551
				c0.552-0.359,1.169-0.539,1.852-0.539c0.5,0,0.945,0.105,1.336,0.316s0.708,0.485,0.953,0.824v-4.109h1.398v11.453H156.769z
				 M152.323,51.722c0,1.062,0.224,1.856,0.672,2.383c0.448,0.526,0.977,0.789,1.586,0.789c0.614,0,1.137-0.251,1.566-0.754
				s0.645-1.27,0.645-2.301c0-1.136-0.219-1.969-0.656-2.5s-0.977-0.797-1.617-0.797c-0.625,0-1.147,0.255-1.566,0.766
				C152.533,49.818,152.323,50.623,152.323,51.722z"/>
			<path fill="#3C3C3B" d="M165.698,54.839c-0.521,0.442-1.022,0.755-1.504,0.938c-0.482,0.183-0.999,0.273-1.551,0.273
				c-0.912,0-1.612-0.223-2.102-0.668c-0.49-0.445-0.734-1.015-0.734-1.707c0-0.406,0.092-0.777,0.277-1.113
				c0.185-0.336,0.427-0.605,0.727-0.809c0.299-0.203,0.637-0.356,1.012-0.461c0.276-0.073,0.692-0.144,1.25-0.211
				c1.135-0.136,1.971-0.297,2.508-0.484c0.005-0.192,0.008-0.315,0.008-0.367c0-0.573-0.133-0.977-0.398-1.211
				c-0.359-0.317-0.894-0.477-1.602-0.477c-0.662,0-1.15,0.116-1.465,0.348c-0.315,0.231-0.548,0.642-0.699,1.23l-1.375-0.188
				c0.125-0.589,0.331-1.063,0.617-1.426c0.286-0.362,0.7-0.641,1.242-0.836c0.542-0.195,1.169-0.293,1.883-0.293
				c0.708,0,1.284,0.083,1.727,0.25c0.442,0.167,0.768,0.376,0.977,0.629c0.208,0.253,0.354,0.571,0.438,0.957
				c0.047,0.239,0.07,0.672,0.07,1.297v1.875c0,1.308,0.03,2.134,0.09,2.48c0.06,0.347,0.178,0.679,0.355,0.996h-1.469
				C165.833,55.57,165.74,55.229,165.698,54.839z M165.581,51.698c-0.511,0.208-1.276,0.386-2.297,0.531
				c-0.578,0.083-0.987,0.177-1.227,0.281c-0.24,0.104-0.425,0.257-0.555,0.457c-0.13,0.2-0.195,0.423-0.195,0.668
				c0,0.375,0.142,0.688,0.426,0.938c0.284,0.25,0.699,0.375,1.246,0.375c0.542,0,1.023-0.118,1.445-0.355s0.731-0.562,0.93-0.973
				c0.151-0.317,0.227-0.786,0.227-1.406V51.698z"/>
			<path fill="#3C3C3B" d="M179.011,55.862v-1.047c-0.526,0.823-1.3,1.234-2.32,1.234c-0.662,0-1.27-0.183-1.824-0.547
				s-0.984-0.874-1.289-1.527s-0.457-1.405-0.457-2.254c0-0.828,0.138-1.579,0.414-2.254c0.276-0.675,0.69-1.191,1.242-1.551
				c0.552-0.359,1.169-0.539,1.852-0.539c0.5,0,0.945,0.105,1.336,0.316s0.708,0.485,0.953,0.824v-4.109h1.398v11.453H179.011z
				 M174.565,51.722c0,1.062,0.224,1.856,0.672,2.383c0.448,0.526,0.977,0.789,1.586,0.789c0.614,0,1.137-0.251,1.566-0.754
				s0.645-1.27,0.645-2.301c0-1.136-0.219-1.969-0.656-2.5s-0.977-0.797-1.617-0.797c-0.625,0-1.147,0.255-1.566,0.766
				C174.775,49.818,174.565,50.623,174.565,51.722z"/>
			<path fill="#3C3C3B" d="M188.206,53.19l1.453,0.18c-0.229,0.849-0.654,1.508-1.273,1.977c-0.62,0.469-1.412,0.703-2.375,0.703
				c-1.214,0-2.176-0.374-2.887-1.121s-1.066-1.796-1.066-3.145c0-1.396,0.359-2.479,1.078-3.25s1.651-1.156,2.797-1.156
				c1.109,0,2.016,0.378,2.719,1.133s1.055,1.817,1.055,3.188c0,0.083-0.003,0.208-0.008,0.375h-6.188
				c0.052,0.911,0.31,1.609,0.773,2.094c0.463,0.484,1.042,0.727,1.734,0.727c0.516,0,0.956-0.136,1.32-0.406
				C187.703,54.217,187.992,53.784,188.206,53.19z M183.589,50.917h4.633c-0.062-0.698-0.24-1.222-0.531-1.57
				c-0.448-0.542-1.029-0.812-1.742-0.812c-0.646,0-1.189,0.216-1.629,0.648C183.879,49.615,183.636,50.193,183.589,50.917z"/>
			<path fill="#3C3C3B" d="M197.167,55.862h-1.305V44.409h1.406v4.086c0.594-0.745,1.352-1.117,2.273-1.117
				c0.51,0,0.993,0.103,1.449,0.309c0.456,0.206,0.831,0.495,1.125,0.867c0.294,0.372,0.524,0.821,0.691,1.348
				c0.167,0.526,0.25,1.089,0.25,1.688c0,1.422-0.352,2.521-1.055,3.297s-1.547,1.164-2.531,1.164c-0.979,0-1.748-0.409-2.305-1.227
				V55.862z M197.151,51.651c0,0.995,0.135,1.714,0.406,2.156c0.442,0.724,1.042,1.086,1.797,1.086c0.614,0,1.146-0.267,1.594-0.801
				c0.448-0.534,0.672-1.329,0.672-2.387c0-1.083-0.215-1.883-0.645-2.398s-0.949-0.773-1.559-0.773
				c-0.615,0-1.146,0.267-1.594,0.801C197.375,49.869,197.151,50.641,197.151,51.651z"/>
			<path fill="#3C3C3B" d="M204.776,46.026v-1.617h1.406v1.617H204.776z M204.776,55.862v-8.297h1.406v8.297H204.776z"/>
			<path fill="#3C3C3B" d="M214.003,53.19l1.453,0.18c-0.229,0.849-0.654,1.508-1.273,1.977c-0.62,0.469-1.412,0.703-2.375,0.703
				c-1.214,0-2.176-0.374-2.887-1.121s-1.066-1.796-1.066-3.145c0-1.396,0.359-2.479,1.078-3.25s1.651-1.156,2.797-1.156
				c1.109,0,2.016,0.378,2.719,1.133s1.055,1.817,1.055,3.188c0,0.083-0.003,0.208-0.008,0.375h-6.188
				c0.052,0.911,0.31,1.609,0.773,2.094c0.463,0.484,1.042,0.727,1.734,0.727c0.516,0,0.956-0.136,1.32-0.406
				C213.5,54.217,213.789,53.784,214.003,53.19z M209.386,50.917h4.633c-0.062-0.698-0.24-1.222-0.531-1.57
				c-0.448-0.542-1.029-0.812-1.742-0.812c-0.646,0-1.189,0.216-1.629,0.648C209.676,49.615,209.433,50.193,209.386,50.917z"/>
			<path fill="#3C3C3B" d="M217.222,55.862v-8.297h1.266v1.18c0.609-0.911,1.489-1.367,2.641-1.367c0.5,0,0.959,0.09,1.379,0.27
				c0.419,0.18,0.733,0.415,0.941,0.707c0.208,0.292,0.354,0.638,0.438,1.039c0.052,0.261,0.078,0.716,0.078,1.367v5.102h-1.406
				v-5.047c0-0.573-0.055-1.001-0.164-1.285s-0.304-0.511-0.582-0.68c-0.279-0.169-0.605-0.254-0.98-0.254
				c-0.599,0-1.116,0.19-1.551,0.57c-0.435,0.38-0.652,1.102-0.652,2.164v4.531H217.222z"/>
			<path fill="#3C3C3B" d="M231.8,53.19l1.453,0.18c-0.229,0.849-0.654,1.508-1.273,1.977c-0.62,0.469-1.412,0.703-2.375,0.703
				c-1.214,0-2.176-0.374-2.887-1.121s-1.066-1.796-1.066-3.145c0-1.396,0.359-2.479,1.078-3.25s1.651-1.156,2.797-1.156
				c1.109,0,2.016,0.378,2.719,1.133s1.055,1.817,1.055,3.188c0,0.083-0.003,0.208-0.008,0.375h-6.188
				c0.052,0.911,0.31,1.609,0.773,2.094c0.463,0.484,1.042,0.727,1.734,0.727c0.516,0,0.956-0.136,1.32-0.406
				C231.297,54.217,231.586,53.784,231.8,53.19z M227.183,50.917h4.633c-0.062-0.698-0.24-1.222-0.531-1.57
				c-0.448-0.542-1.029-0.812-1.742-0.812c-0.646,0-1.189,0.216-1.629,0.648C227.473,49.615,227.229,50.193,227.183,50.917z"/>
			<path fill="#3C3C3B" d="M234.456,53.386l1.391-0.219c0.078,0.558,0.295,0.984,0.652,1.281c0.356,0.297,0.855,0.445,1.496,0.445
				c0.646,0,1.125-0.132,1.438-0.395s0.469-0.571,0.469-0.926c0-0.317-0.138-0.567-0.414-0.75c-0.193-0.125-0.672-0.284-1.438-0.477
				c-1.031-0.261-1.746-0.485-2.145-0.676s-0.701-0.453-0.906-0.789c-0.206-0.336-0.309-0.707-0.309-1.113
				c0-0.37,0.084-0.712,0.254-1.027c0.169-0.315,0.399-0.577,0.691-0.785c0.219-0.161,0.517-0.298,0.895-0.41
				c0.377-0.112,0.782-0.168,1.215-0.168c0.651,0,1.223,0.094,1.715,0.281s0.855,0.441,1.09,0.762s0.396,0.749,0.484,1.285
				l-1.375,0.188c-0.062-0.427-0.244-0.761-0.543-1c-0.3-0.239-0.723-0.359-1.27-0.359c-0.646,0-1.107,0.106-1.383,0.32
				c-0.276,0.214-0.414,0.464-0.414,0.75c0,0.183,0.057,0.347,0.172,0.492c0.114,0.151,0.294,0.276,0.539,0.375
				c0.141,0.052,0.555,0.172,1.242,0.359c0.995,0.266,1.688,0.483,2.082,0.652c0.393,0.169,0.702,0.415,0.926,0.738
				c0.224,0.323,0.336,0.724,0.336,1.203c0,0.469-0.137,0.91-0.41,1.324s-0.668,0.734-1.184,0.961s-1.099,0.34-1.75,0.34
				c-1.078,0-1.9-0.224-2.465-0.672C234.973,54.93,234.612,54.266,234.456,53.386z"/>
			<path fill="#3C3C3B" d="M243.386,55.862v-1.602h1.602v1.602c0,0.589-0.104,1.063-0.312,1.426
				c-0.208,0.362-0.539,0.642-0.992,0.84l-0.391-0.602c0.297-0.13,0.516-0.321,0.656-0.574s0.219-0.616,0.234-1.09H243.386z"/>
			<path fill="#3C3C3B" d="M251.651,56.55l1.367,0.203c0.057,0.422,0.216,0.729,0.477,0.922c0.349,0.261,0.825,0.391,1.43,0.391
				c0.651,0,1.153-0.13,1.508-0.391c0.354-0.261,0.594-0.625,0.719-1.094c0.073-0.286,0.106-0.888,0.102-1.805
				c-0.615,0.724-1.38,1.086-2.297,1.086c-1.141,0-2.023-0.411-2.648-1.234s-0.938-1.81-0.938-2.961c0-0.792,0.143-1.522,0.43-2.191
				c0.286-0.669,0.702-1.187,1.246-1.551c0.544-0.364,1.184-0.547,1.918-0.547c0.979,0,1.786,0.396,2.422,1.188v-1h1.297v7.172
				c0,1.292-0.132,2.207-0.395,2.746c-0.263,0.539-0.68,0.965-1.25,1.277s-1.272,0.469-2.105,0.469c-0.99,0-1.789-0.223-2.398-0.668
				S251.63,57.445,251.651,56.55z M252.815,51.565c0,1.089,0.216,1.883,0.648,2.383c0.432,0.5,0.974,0.75,1.625,0.75
				c0.646,0,1.188-0.249,1.625-0.746s0.656-1.277,0.656-2.34c0-1.016-0.226-1.781-0.676-2.297c-0.451-0.516-0.994-0.773-1.629-0.773
				c-0.625,0-1.156,0.254-1.594,0.762S252.815,50.565,252.815,51.565z"/>
			<path fill="#3C3C3B" d="M266.222,54.839c-0.521,0.442-1.022,0.755-1.504,0.938c-0.482,0.183-0.999,0.273-1.551,0.273
				c-0.912,0-1.612-0.223-2.102-0.668c-0.49-0.445-0.734-1.015-0.734-1.707c0-0.406,0.092-0.777,0.277-1.113
				c0.185-0.336,0.427-0.605,0.727-0.809c0.299-0.203,0.637-0.356,1.012-0.461c0.276-0.073,0.692-0.144,1.25-0.211
				c1.135-0.136,1.971-0.297,2.508-0.484c0.005-0.192,0.008-0.315,0.008-0.367c0-0.573-0.133-0.977-0.398-1.211
				c-0.359-0.317-0.894-0.477-1.602-0.477c-0.662,0-1.15,0.116-1.465,0.348c-0.315,0.231-0.548,0.642-0.699,1.23l-1.375-0.188
				c0.125-0.589,0.331-1.063,0.617-1.426c0.286-0.362,0.7-0.641,1.242-0.836c0.542-0.195,1.169-0.293,1.883-0.293
				c0.708,0,1.284,0.083,1.727,0.25c0.442,0.167,0.768,0.376,0.977,0.629c0.208,0.253,0.354,0.571,0.438,0.957
				c0.047,0.239,0.07,0.672,0.07,1.297v1.875c0,1.308,0.03,2.134,0.09,2.48c0.06,0.347,0.178,0.679,0.355,0.996h-1.469
				C266.357,55.57,266.263,55.229,266.222,54.839z M266.104,51.698c-0.511,0.208-1.276,0.386-2.297,0.531
				c-0.578,0.083-0.987,0.177-1.227,0.281c-0.24,0.104-0.425,0.257-0.555,0.457c-0.13,0.2-0.195,0.423-0.195,0.668
				c0,0.375,0.142,0.688,0.426,0.938c0.284,0.25,0.699,0.375,1.246,0.375c0.542,0,1.023-0.118,1.445-0.355s0.731-0.562,0.93-0.973
				c0.151-0.317,0.227-0.786,0.227-1.406V51.698z"/>
			<path fill="#3C3C3B" d="M269.144,53.386l1.391-0.219c0.078,0.558,0.295,0.984,0.652,1.281c0.356,0.297,0.855,0.445,1.496,0.445
				c0.646,0,1.125-0.132,1.438-0.395s0.469-0.571,0.469-0.926c0-0.317-0.138-0.567-0.414-0.75c-0.193-0.125-0.672-0.284-1.438-0.477
				c-1.031-0.261-1.746-0.485-2.145-0.676s-0.701-0.453-0.906-0.789c-0.206-0.336-0.309-0.707-0.309-1.113
				c0-0.37,0.084-0.712,0.254-1.027c0.169-0.315,0.399-0.577,0.691-0.785c0.219-0.161,0.517-0.298,0.895-0.41
				c0.377-0.112,0.782-0.168,1.215-0.168c0.651,0,1.223,0.094,1.715,0.281s0.855,0.441,1.09,0.762s0.396,0.749,0.484,1.285
				l-1.375,0.188c-0.062-0.427-0.244-0.761-0.543-1c-0.3-0.239-0.723-0.359-1.27-0.359c-0.646,0-1.107,0.106-1.383,0.32
				c-0.276,0.214-0.414,0.464-0.414,0.75c0,0.183,0.057,0.347,0.172,0.492c0.114,0.151,0.294,0.276,0.539,0.375
				c0.141,0.052,0.555,0.172,1.242,0.359c0.995,0.266,1.688,0.483,2.082,0.652c0.393,0.169,0.702,0.415,0.926,0.738
				c0.224,0.323,0.336,0.724,0.336,1.203c0,0.469-0.137,0.91-0.41,1.324s-0.668,0.734-1.184,0.961s-1.099,0.34-1.75,0.34
				c-1.078,0-1.9-0.224-2.465-0.672C269.66,54.93,269.3,54.266,269.144,53.386z"/>
			<path fill="#3C3C3B" d="M280.776,54.604l0.203,1.242c-0.396,0.083-0.75,0.125-1.062,0.125c-0.511,0-0.906-0.081-1.188-0.242
				s-0.479-0.374-0.594-0.637c-0.115-0.263-0.172-0.816-0.172-1.66v-4.773h-1.031v-1.094h1.031v-2.055l1.398-0.844v2.898h1.414
				v1.094h-1.414v4.852c0,0.401,0.024,0.659,0.074,0.773c0.049,0.114,0.13,0.206,0.242,0.273c0.112,0.067,0.272,0.102,0.48,0.102
				C280.315,54.659,280.521,54.641,280.776,54.604z"/>
			<path fill="#3C3C3B" d="M281.628,51.714c0-1.536,0.427-2.675,1.281-3.414c0.713-0.614,1.583-0.922,2.609-0.922
				c1.141,0,2.073,0.374,2.797,1.121c0.724,0.747,1.086,1.78,1.086,3.098c0,1.067-0.16,1.907-0.48,2.52s-0.787,1.087-1.398,1.426
				c-0.612,0.339-1.28,0.508-2.004,0.508c-1.162,0-2.101-0.372-2.816-1.117C281.986,54.188,281.628,53.115,281.628,51.714z
				 M283.073,51.714c0,1.062,0.231,1.858,0.695,2.387c0.463,0.528,1.047,0.793,1.75,0.793c0.698,0,1.278-0.266,1.742-0.797
				c0.463-0.531,0.695-1.341,0.695-2.43c0-1.026-0.233-1.804-0.699-2.332c-0.466-0.528-1.046-0.793-1.738-0.793
				c-0.703,0-1.287,0.263-1.75,0.789C283.305,49.857,283.073,50.651,283.073,51.714z"/>
			<path fill="#3C3C3B" d="M290.487,53.386l1.391-0.219c0.078,0.558,0.295,0.984,0.652,1.281c0.356,0.297,0.855,0.445,1.496,0.445
				c0.646,0,1.125-0.132,1.438-0.395s0.469-0.571,0.469-0.926c0-0.317-0.138-0.567-0.414-0.75c-0.193-0.125-0.672-0.284-1.438-0.477
				c-1.031-0.261-1.746-0.485-2.145-0.676s-0.701-0.453-0.906-0.789c-0.206-0.336-0.309-0.707-0.309-1.113
				c0-0.37,0.084-0.712,0.254-1.027c0.169-0.315,0.399-0.577,0.691-0.785c0.219-0.161,0.517-0.298,0.895-0.41
				c0.377-0.112,0.782-0.168,1.215-0.168c0.651,0,1.223,0.094,1.715,0.281s0.855,0.441,1.09,0.762s0.396,0.749,0.484,1.285
				l-1.375,0.188c-0.062-0.427-0.244-0.761-0.543-1c-0.3-0.239-0.723-0.359-1.27-0.359c-0.646,0-1.107,0.106-1.383,0.32
				c-0.276,0.214-0.414,0.464-0.414,0.75c0,0.183,0.057,0.347,0.172,0.492c0.114,0.151,0.294,0.276,0.539,0.375
				c0.141,0.052,0.555,0.172,1.242,0.359c0.995,0.266,1.688,0.483,2.082,0.652c0.393,0.169,0.702,0.415,0.926,0.738
				c0.224,0.323,0.336,0.724,0.336,1.203c0,0.469-0.137,0.91-0.41,1.324s-0.668,0.734-1.184,0.961s-1.099,0.34-1.75,0.34
				c-1.078,0-1.9-0.224-2.465-0.672C291.004,54.93,290.644,54.266,290.487,53.386z"/>
			<path fill="#3C3C3B" d="M308.909,52.823l1.383,0.18c-0.151,0.953-0.538,1.699-1.16,2.238c-0.623,0.539-1.387,0.809-2.293,0.809
				c-1.136,0-2.048-0.371-2.738-1.113c-0.69-0.742-1.035-1.806-1.035-3.191c0-0.896,0.148-1.68,0.445-2.352s0.749-1.176,1.355-1.512
				c0.606-0.336,1.267-0.504,1.98-0.504c0.901,0,1.638,0.228,2.211,0.684c0.573,0.456,0.94,1.103,1.102,1.941l-1.367,0.211
				c-0.13-0.558-0.361-0.977-0.691-1.258c-0.331-0.281-0.73-0.422-1.199-0.422c-0.708,0-1.284,0.254-1.727,0.762
				c-0.443,0.508-0.664,1.312-0.664,2.41c0,1.114,0.213,1.925,0.641,2.43c0.427,0.505,0.984,0.758,1.672,0.758
				c0.552,0,1.013-0.169,1.383-0.508C308.576,54.047,308.81,53.526,308.909,52.823z"/>
			<path fill="#3C3C3B" d="M310.972,51.714c0-1.536,0.427-2.675,1.281-3.414c0.713-0.614,1.583-0.922,2.609-0.922
				c1.141,0,2.073,0.374,2.797,1.121c0.724,0.747,1.086,1.78,1.086,3.098c0,1.067-0.16,1.907-0.48,2.52s-0.787,1.087-1.398,1.426
				c-0.612,0.339-1.28,0.508-2.004,0.508c-1.162,0-2.101-0.372-2.816-1.117C311.33,54.188,310.972,53.115,310.972,51.714z
				 M312.417,51.714c0,1.062,0.231,1.858,0.695,2.387c0.463,0.528,1.047,0.793,1.75,0.793c0.698,0,1.278-0.266,1.742-0.797
				c0.463-0.531,0.695-1.341,0.695-2.43c0-1.026-0.233-1.804-0.699-2.332c-0.466-0.528-1.046-0.793-1.738-0.793
				c-0.703,0-1.287,0.263-1.75,0.789C312.648,49.857,312.417,50.651,312.417,51.714z"/>
			<path fill="#3C3C3B" d="M320.394,55.862v-8.297h1.266v1.18c0.609-0.911,1.489-1.367,2.641-1.367c0.5,0,0.959,0.09,1.379,0.27
				c0.419,0.18,0.733,0.415,0.941,0.707c0.208,0.292,0.354,0.638,0.438,1.039c0.052,0.261,0.078,0.716,0.078,1.367v5.102h-1.406
				v-5.047c0-0.573-0.055-1.001-0.164-1.285s-0.304-0.511-0.582-0.68c-0.279-0.169-0.605-0.254-0.98-0.254
				c-0.599,0-1.116,0.19-1.551,0.57c-0.435,0.38-0.652,1.102-0.652,2.164v4.531H320.394z"/>
			<path fill="#3C3C3B" d="M124.206,70.914c0-1.536,0.427-2.675,1.281-3.414c0.713-0.614,1.583-0.922,2.609-0.922
				c1.141,0,2.073,0.374,2.797,1.121c0.724,0.747,1.086,1.78,1.086,3.098c0,1.067-0.16,1.907-0.48,2.52s-0.787,1.087-1.398,1.426
				c-0.612,0.339-1.28,0.508-2.004,0.508c-1.162,0-2.101-0.372-2.816-1.117C124.564,73.388,124.206,72.315,124.206,70.914z
				 M125.651,70.914c0,1.062,0.231,1.858,0.695,2.387c0.463,0.528,1.047,0.793,1.75,0.793c0.698,0,1.278-0.266,1.742-0.797
				c0.463-0.531,0.695-1.341,0.695-2.43c0-1.026-0.233-1.804-0.699-2.332c-0.466-0.528-1.046-0.793-1.738-0.793
				c-0.703,0-1.287,0.263-1.75,0.789C125.883,69.058,125.651,69.852,125.651,70.914z"/>
			<path fill="#3C3C3B" d="M139.042,72.023l1.383,0.18c-0.151,0.953-0.538,1.699-1.16,2.238c-0.623,0.539-1.387,0.809-2.293,0.809
				c-1.136,0-2.048-0.371-2.738-1.113c-0.69-0.742-1.035-1.806-1.035-3.191c0-0.896,0.148-1.68,0.445-2.352s0.749-1.176,1.355-1.512
				c0.606-0.336,1.267-0.504,1.98-0.504c0.901,0,1.638,0.228,2.211,0.684c0.573,0.456,0.94,1.103,1.102,1.941l-1.367,0.211
				c-0.13-0.558-0.361-0.977-0.691-1.258c-0.331-0.281-0.73-0.422-1.199-0.422c-0.708,0-1.284,0.254-1.727,0.762
				c-0.443,0.508-0.664,1.312-0.664,2.41c0,1.114,0.213,1.925,0.641,2.43c0.427,0.505,0.984,0.758,1.672,0.758
				c0.552,0,1.013-0.169,1.383-0.508C138.708,73.247,138.943,72.727,139.042,72.023z"/>
			<path fill="#3C3C3B" d="M147.042,74.039c-0.521,0.442-1.022,0.755-1.504,0.938c-0.482,0.183-0.999,0.273-1.551,0.273
				c-0.912,0-1.612-0.223-2.102-0.668c-0.49-0.445-0.734-1.015-0.734-1.707c0-0.406,0.092-0.777,0.277-1.113
				c0.185-0.336,0.427-0.605,0.727-0.809c0.299-0.203,0.637-0.356,1.012-0.461c0.276-0.073,0.692-0.144,1.25-0.211
				c1.135-0.136,1.971-0.297,2.508-0.484c0.005-0.192,0.008-0.315,0.008-0.367c0-0.573-0.133-0.977-0.398-1.211
				c-0.359-0.317-0.894-0.477-1.602-0.477c-0.662,0-1.15,0.116-1.465,0.348c-0.315,0.231-0.548,0.642-0.699,1.23l-1.375-0.188
				c0.125-0.589,0.331-1.063,0.617-1.426c0.286-0.362,0.7-0.641,1.242-0.836c0.542-0.195,1.169-0.293,1.883-0.293
				c0.708,0,1.284,0.083,1.727,0.25c0.442,0.167,0.768,0.376,0.977,0.629c0.208,0.253,0.354,0.571,0.438,0.957
				c0.047,0.239,0.07,0.672,0.07,1.297v1.875c0,1.308,0.03,2.134,0.09,2.48c0.06,0.347,0.178,0.679,0.355,0.996h-1.469
				C147.177,74.771,147.083,74.43,147.042,74.039z M146.925,70.898c-0.511,0.208-1.276,0.386-2.297,0.531
				c-0.578,0.083-0.987,0.177-1.227,0.281c-0.24,0.104-0.425,0.257-0.555,0.457c-0.13,0.2-0.195,0.423-0.195,0.668
				c0,0.375,0.142,0.688,0.426,0.938c0.284,0.25,0.699,0.375,1.246,0.375c0.542,0,1.023-0.118,1.445-0.355s0.731-0.562,0.93-0.973
				c0.151-0.317,0.227-0.786,0.227-1.406V70.898z"/>
			<path fill="#3C3C3B" d="M149.964,72.586l1.391-0.219c0.078,0.558,0.295,0.984,0.652,1.281c0.356,0.297,0.855,0.445,1.496,0.445
				c0.646,0,1.125-0.132,1.438-0.395s0.469-0.571,0.469-0.926c0-0.317-0.138-0.567-0.414-0.75c-0.193-0.125-0.672-0.284-1.438-0.477
				c-1.031-0.261-1.746-0.485-2.145-0.676s-0.701-0.453-0.906-0.789c-0.206-0.336-0.309-0.707-0.309-1.113
				c0-0.37,0.084-0.712,0.254-1.027c0.169-0.315,0.399-0.577,0.691-0.785c0.219-0.161,0.517-0.298,0.895-0.41
				c0.377-0.112,0.782-0.168,1.215-0.168c0.651,0,1.223,0.094,1.715,0.281s0.855,0.441,1.09,0.762s0.396,0.749,0.484,1.285
				l-1.375,0.188c-0.062-0.427-0.244-0.761-0.543-1c-0.3-0.239-0.723-0.359-1.27-0.359c-0.646,0-1.107,0.106-1.383,0.32
				c-0.276,0.214-0.414,0.464-0.414,0.75c0,0.183,0.057,0.347,0.172,0.492c0.114,0.151,0.294,0.276,0.539,0.375
				c0.141,0.052,0.555,0.172,1.242,0.359c0.995,0.266,1.688,0.483,2.082,0.652c0.393,0.169,0.702,0.415,0.926,0.738
				c0.224,0.323,0.336,0.724,0.336,1.203c0,0.469-0.137,0.91-0.41,1.324s-0.668,0.734-1.184,0.961s-1.099,0.34-1.75,0.34
				c-1.078,0-1.9-0.224-2.465-0.672C150.48,74.13,150.12,73.466,149.964,72.586z"/>
			<path fill="#3C3C3B" d="M158.534,65.227v-1.617h1.406v1.617H158.534z M158.534,75.062v-8.297h1.406v8.297H158.534z"/>
			<path fill="#3C3C3B" d="M161.558,70.914c0-1.536,0.427-2.675,1.281-3.414c0.713-0.614,1.583-0.922,2.609-0.922
				c1.141,0,2.073,0.374,2.797,1.121c0.724,0.747,1.086,1.78,1.086,3.098c0,1.067-0.16,1.907-0.48,2.52s-0.787,1.087-1.398,1.426
				c-0.612,0.339-1.28,0.508-2.004,0.508c-1.162,0-2.101-0.372-2.816-1.117C161.916,73.388,161.558,72.315,161.558,70.914z
				 M163.003,70.914c0,1.062,0.231,1.858,0.695,2.387c0.463,0.528,1.047,0.793,1.75,0.793c0.698,0,1.278-0.266,1.742-0.797
				c0.463-0.531,0.695-1.341,0.695-2.43c0-1.026-0.233-1.804-0.699-2.332c-0.466-0.528-1.046-0.793-1.738-0.793
				c-0.703,0-1.287,0.263-1.75,0.789C163.234,69.058,163.003,69.852,163.003,70.914z M164.667,65.734l1.039-2.188h1.844
				l-1.719,2.188H164.667z"/>
			<path fill="#3C3C3B" d="M170.979,75.062v-8.297h1.266v1.18c0.609-0.911,1.489-1.367,2.641-1.367c0.5,0,0.959,0.09,1.379,0.27
				c0.419,0.18,0.733,0.415,0.941,0.707c0.208,0.292,0.354,0.638,0.438,1.039c0.052,0.261,0.078,0.716,0.078,1.367v5.102h-1.406
				v-5.047c0-0.573-0.055-1.001-0.164-1.285s-0.304-0.511-0.582-0.68c-0.279-0.169-0.605-0.254-0.98-0.254
				c-0.599,0-1.116,0.19-1.551,0.57c-0.435,0.38-0.652,1.102-0.652,2.164v4.531H170.979z"/>
			<path fill="#3C3C3B" d="M189.706,75.062v-1.047c-0.526,0.823-1.3,1.234-2.32,1.234c-0.662,0-1.27-0.183-1.824-0.547
				s-0.984-0.874-1.289-1.527s-0.457-1.405-0.457-2.254c0-0.828,0.138-1.579,0.414-2.254c0.276-0.675,0.69-1.191,1.242-1.551
				c0.552-0.359,1.169-0.539,1.852-0.539c0.5,0,0.945,0.105,1.336,0.316s0.708,0.485,0.953,0.824v-4.109h1.398v11.453H189.706z
				 M185.261,70.922c0,1.062,0.224,1.856,0.672,2.383c0.448,0.526,0.977,0.789,1.586,0.789c0.614,0,1.137-0.251,1.566-0.754
				s0.645-1.27,0.645-2.301c0-1.136-0.219-1.969-0.656-2.5s-0.977-0.797-1.617-0.797c-0.625,0-1.147,0.255-1.566,0.766
				C185.47,69.019,185.261,69.823,185.261,70.922z"/>
			<path fill="#3C3C3B" d="M198.901,72.391l1.453,0.18c-0.229,0.849-0.654,1.508-1.273,1.977c-0.62,0.469-1.412,0.703-2.375,0.703
				c-1.214,0-2.176-0.374-2.887-1.121s-1.066-1.796-1.066-3.145c0-1.396,0.359-2.479,1.078-3.25s1.651-1.156,2.797-1.156
				c1.109,0,2.016,0.378,2.719,1.133s1.055,1.817,1.055,3.188c0,0.083-0.003,0.208-0.008,0.375h-6.188
				c0.052,0.911,0.31,1.609,0.773,2.094c0.463,0.484,1.042,0.727,1.734,0.727c0.516,0,0.956-0.136,1.32-0.406
				C198.398,73.417,198.688,72.984,198.901,72.391z M194.284,70.117h4.633c-0.062-0.698-0.24-1.222-0.531-1.57
				c-0.448-0.542-1.029-0.812-1.742-0.812c-0.646,0-1.189,0.216-1.629,0.648C194.574,68.815,194.331,69.394,194.284,70.117z"/>
			<path fill="#3C3C3B" d="M206.534,75.062V63.609h1.406v11.453H206.534z"/>
			<path fill="#3C3C3B" d="M215.534,74.039c-0.521,0.442-1.022,0.755-1.504,0.938c-0.482,0.183-0.999,0.273-1.551,0.273
				c-0.912,0-1.612-0.223-2.102-0.668c-0.49-0.445-0.734-1.015-0.734-1.707c0-0.406,0.092-0.777,0.277-1.113
				c0.185-0.336,0.427-0.605,0.727-0.809c0.299-0.203,0.637-0.356,1.012-0.461c0.276-0.073,0.692-0.144,1.25-0.211
				c1.135-0.136,1.971-0.297,2.508-0.484c0.005-0.192,0.008-0.315,0.008-0.367c0-0.573-0.133-0.977-0.398-1.211
				c-0.359-0.317-0.894-0.477-1.602-0.477c-0.662,0-1.15,0.116-1.465,0.348c-0.315,0.231-0.548,0.642-0.699,1.23l-1.375-0.188
				c0.125-0.589,0.331-1.063,0.617-1.426c0.286-0.362,0.7-0.641,1.242-0.836c0.542-0.195,1.169-0.293,1.883-0.293
				c0.708,0,1.284,0.083,1.727,0.25c0.442,0.167,0.768,0.376,0.977,0.629c0.208,0.253,0.354,0.571,0.438,0.957
				c0.047,0.239,0.07,0.672,0.07,1.297v1.875c0,1.308,0.03,2.134,0.09,2.48c0.06,0.347,0.178,0.679,0.355,0.996h-1.469
				C215.669,74.771,215.576,74.43,215.534,74.039z M215.417,70.898c-0.511,0.208-1.276,0.386-2.297,0.531
				c-0.578,0.083-0.987,0.177-1.227,0.281c-0.24,0.104-0.425,0.257-0.555,0.457c-0.13,0.2-0.195,0.423-0.195,0.668
				c0,0.375,0.142,0.688,0.426,0.938c0.284,0.25,0.699,0.375,1.246,0.375c0.542,0,1.023-0.118,1.445-0.355s0.731-0.562,0.93-0.973
				c0.151-0.317,0.227-0.786,0.227-1.406V70.898z"/>
			<path fill="#3C3C3B" d="M225.769,75.062l-3.156-8.297h1.484l1.781,4.969c0.192,0.536,0.37,1.094,0.531,1.672
				c0.125-0.438,0.299-0.964,0.523-1.578l1.844-5.062h1.445l-3.141,8.297H225.769z"/>
			<path fill="#3C3C3B" d="M231.472,65.227v-1.617h1.406v1.617H231.472z M231.472,75.062v-8.297h1.406v8.297H231.472z"/>
			<path fill="#3C3C3B" d="M240.433,72.023l1.383,0.18c-0.151,0.953-0.538,1.699-1.16,2.238c-0.623,0.539-1.387,0.809-2.293,0.809
				c-1.136,0-2.048-0.371-2.738-1.113c-0.69-0.742-1.035-1.806-1.035-3.191c0-0.896,0.148-1.68,0.445-2.352s0.749-1.176,1.355-1.512
				c0.606-0.336,1.267-0.504,1.98-0.504c0.901,0,1.638,0.228,2.211,0.684c0.573,0.456,0.94,1.103,1.102,1.941l-1.367,0.211
				c-0.13-0.558-0.361-0.977-0.691-1.258c-0.331-0.281-0.73-0.422-1.199-0.422c-0.708,0-1.284,0.254-1.727,0.762
				c-0.443,0.508-0.664,1.312-0.664,2.41c0,1.114,0.213,1.925,0.641,2.43c0.427,0.505,0.984,0.758,1.672,0.758
				c0.552,0,1.013-0.169,1.383-0.508C240.099,73.247,240.333,72.727,240.433,72.023z"/>
			<path fill="#3C3C3B" d="M246.089,73.805l0.203,1.242c-0.396,0.083-0.75,0.125-1.062,0.125c-0.511,0-0.906-0.081-1.188-0.242
				s-0.479-0.374-0.594-0.637c-0.115-0.263-0.172-0.816-0.172-1.66v-4.773h-1.031v-1.094h1.031v-2.055l1.398-0.844v2.898h1.414
				v1.094h-1.414v4.852c0,0.401,0.024,0.659,0.074,0.773c0.049,0.114,0.13,0.206,0.242,0.273c0.112,0.067,0.272,0.102,0.48,0.102
				C245.628,73.859,245.833,73.841,246.089,73.805z"/>
			<path fill="#3C3C3B" d="M247.472,65.227v-1.617h1.406v1.617H247.472z M247.472,75.062v-8.297h1.406v8.297H247.472z"/>
			<path fill="#3C3C3B" d="M251.019,75.062v-8.297h1.258v1.164c0.26-0.406,0.606-0.733,1.039-0.98
				c0.432-0.247,0.924-0.371,1.477-0.371c0.614,0,1.118,0.128,1.512,0.383c0.393,0.255,0.67,0.612,0.832,1.07
				c0.656-0.969,1.51-1.453,2.562-1.453c0.823,0,1.456,0.228,1.898,0.684c0.442,0.456,0.664,1.157,0.664,2.105v5.695h-1.398v-5.227
				c0-0.562-0.046-0.968-0.137-1.215c-0.091-0.247-0.257-0.446-0.496-0.598c-0.24-0.151-0.521-0.227-0.844-0.227
				c-0.583,0-1.068,0.194-1.453,0.582c-0.386,0.388-0.578,1.009-0.578,1.863v4.82h-1.406v-5.391c0-0.625-0.115-1.094-0.344-1.406
				c-0.229-0.312-0.604-0.469-1.125-0.469c-0.396,0-0.762,0.104-1.098,0.312s-0.58,0.513-0.73,0.914
				c-0.151,0.401-0.227,0.979-0.227,1.734v4.305H251.019z"/>
			<path fill="#3C3C3B" d="M264.354,65.227v-1.617h1.406v1.617H264.354z M264.354,75.062v-8.297h1.406v8.297H264.354z"/>
			<path fill="#3C3C3B" d="M267.159,75.062v-1.141l5.281-6.062c-0.599,0.031-1.128,0.047-1.586,0.047h-3.383v-1.141h6.781v0.93
				l-4.492,5.266l-0.867,0.961c0.63-0.047,1.221-0.07,1.773-0.07h3.836v1.211H267.159z"/>
			<path fill="#3C3C3B" d="M281.315,74.039c-0.521,0.442-1.022,0.755-1.504,0.938c-0.482,0.183-0.999,0.273-1.551,0.273
				c-0.912,0-1.612-0.223-2.102-0.668c-0.49-0.445-0.734-1.015-0.734-1.707c0-0.406,0.092-0.777,0.277-1.113
				c0.185-0.336,0.427-0.605,0.727-0.809c0.299-0.203,0.637-0.356,1.012-0.461c0.276-0.073,0.692-0.144,1.25-0.211
				c1.135-0.136,1.971-0.297,2.508-0.484c0.005-0.192,0.008-0.315,0.008-0.367c0-0.573-0.133-0.977-0.398-1.211
				c-0.359-0.317-0.894-0.477-1.602-0.477c-0.662,0-1.15,0.116-1.465,0.348c-0.315,0.231-0.548,0.642-0.699,1.23l-1.375-0.188
				c0.125-0.589,0.331-1.063,0.617-1.426c0.286-0.362,0.7-0.641,1.242-0.836c0.542-0.195,1.169-0.293,1.883-0.293
				c0.708,0,1.284,0.083,1.727,0.25c0.442,0.167,0.768,0.376,0.977,0.629c0.208,0.253,0.354,0.571,0.438,0.957
				c0.047,0.239,0.07,0.672,0.07,1.297v1.875c0,1.308,0.03,2.134,0.09,2.48c0.06,0.347,0.178,0.679,0.355,0.996h-1.469
				C281.451,74.771,281.357,74.43,281.315,74.039z M281.198,70.898c-0.511,0.208-1.276,0.386-2.297,0.531
				c-0.578,0.083-0.987,0.177-1.227,0.281c-0.24,0.104-0.425,0.257-0.555,0.457c-0.13,0.2-0.195,0.423-0.195,0.668
				c0,0.375,0.142,0.688,0.426,0.938c0.284,0.25,0.699,0.375,1.246,0.375c0.542,0,1.023-0.118,1.445-0.355s0.731-0.562,0.93-0.973
				c0.151-0.317,0.227-0.786,0.227-1.406V70.898z"/>
			<path fill="#3C3C3B" d="M290.214,72.023l1.383,0.18c-0.151,0.953-0.538,1.699-1.16,2.238c-0.623,0.539-1.387,0.809-2.293,0.809
				c-1.136,0-2.048-0.371-2.738-1.113c-0.69-0.742-1.035-1.806-1.035-3.191c0-0.896,0.148-1.68,0.445-2.352s0.749-1.176,1.355-1.512
				c0.606-0.336,1.267-0.504,1.98-0.504c0.901,0,1.638,0.228,2.211,0.684c0.573,0.456,0.94,1.103,1.102,1.941l-1.367,0.211
				c-0.13-0.558-0.361-0.977-0.691-1.258c-0.331-0.281-0.73-0.422-1.199-0.422c-0.708,0-1.284,0.254-1.727,0.762
				c-0.443,0.508-0.664,1.312-0.664,2.41c0,1.114,0.213,1.925,0.641,2.43c0.427,0.505,0.984,0.758,1.672,0.758
				c0.552,0,1.013-0.169,1.383-0.508C289.88,73.247,290.115,72.727,290.214,72.023z"/>
			<path fill="#3C3C3B" d="M292.808,65.227v-1.617h1.406v1.617H292.808z M292.808,75.062v-8.297h1.406v8.297H292.808z"/>
			<path fill="#3C3C3B" d="M295.831,70.914c0-1.536,0.427-2.675,1.281-3.414c0.713-0.614,1.583-0.922,2.609-0.922
				c1.141,0,2.073,0.374,2.797,1.121c0.724,0.747,1.086,1.78,1.086,3.098c0,1.067-0.16,1.907-0.48,2.52s-0.787,1.087-1.398,1.426
				c-0.612,0.339-1.28,0.508-2.004,0.508c-1.162,0-2.101-0.372-2.816-1.117C296.189,73.388,295.831,72.315,295.831,70.914z
				 M297.276,70.914c0,1.062,0.231,1.858,0.695,2.387c0.463,0.528,1.047,0.793,1.75,0.793c0.698,0,1.278-0.266,1.742-0.797
				c0.463-0.531,0.695-1.341,0.695-2.43c0-1.026-0.233-1.804-0.699-2.332c-0.466-0.528-1.046-0.793-1.738-0.793
				c-0.703,0-1.287,0.263-1.75,0.789C297.508,69.058,297.276,69.852,297.276,70.914z M298.94,65.734l1.039-2.188h1.844l-1.719,2.188
				H298.94z"/>
			<path fill="#3C3C3B" d="M305.253,75.062v-8.297h1.266v1.18c0.609-0.911,1.489-1.367,2.641-1.367c0.5,0,0.959,0.09,1.379,0.27
				c0.419,0.18,0.733,0.415,0.941,0.707c0.208,0.292,0.354,0.638,0.438,1.039c0.052,0.261,0.078,0.716,0.078,1.367v5.102h-1.406
				v-5.047c0-0.573-0.055-1.001-0.164-1.285s-0.304-0.511-0.582-0.68c-0.279-0.169-0.605-0.254-0.98-0.254
				c-0.599,0-1.116,0.19-1.551,0.57c-0.435,0.38-0.652,1.102-0.652,2.164v4.531H305.253z"/>
			<path fill="#3C3C3B" d="M314.55,75.062v-1.602h1.602v1.602H314.55z"/>
		</g>
	</g>
	<g>
		<g>
			<polyline fill="none" stroke="#951B81" stroke-miterlimit="10" points="454.716,98.005 454.716,98.505 454.216,98.505 			"/>
			
				<line fill="none" stroke="#951B81" stroke-miterlimit="10" stroke-dasharray="1.0005,1.0005" x1="453.216" y1="98.505" x2="1.5" y2="98.505"/>
			<polyline fill="none" stroke="#951B81" stroke-miterlimit="10" points="1,98.505 0.5,98.505 0.5,98.005 			"/>
			<line fill="none" stroke="#951B81" stroke-miterlimit="10" stroke-dasharray="1,1" x1="0.5" y1="97.005" x2="0.5" y2="1.5"/>
			<polyline fill="none" stroke="#951B81" stroke-miterlimit="10" points="0.5,1 0.5,0.5 1,0.5 			"/>
			
				<line fill="none" stroke="#951B81" stroke-miterlimit="10" stroke-dasharray="1.0005,1.0005" x1="2.001" y1="0.5" x2="453.716" y2="0.5"/>
			<polyline fill="none" stroke="#951B81" stroke-miterlimit="10" points="454.216,0.5 454.716,0.5 454.716,1 			"/>
			
				<line fill="none" stroke="#951B81" stroke-miterlimit="10" stroke-dasharray="1,1" x1="454.716" y1="2" x2="454.716" y2="97.505"/>
		</g>
	</g>
</g>
</svg>
