<?xml version="1.0" encoding="utf-8"?>
<!-- Generator: Adobe Illustrator 16.0.0, SVG Export Plug-In . SVG Version: 6.00 Build 0)  -->
<!DOCTYPE svg PUBLIC "-//W3C//DTD SVG 1.1//EN" "http://www.w3.org/Graphics/SVG/1.1/DTD/svg11.dtd">
<svg version="1.1" id="Capa_1" xmlns="http://www.w3.org/2000/svg" xmlns:xlink="http://www.w3.org/1999/xlink" x="0px" y="0px"
	 width="222.104px" height="302.26px" viewBox="0 0 222.104 302.26" enable-background="new 0 0 222.104 302.26"
	 xml:space="preserve">
<g>
	<g>
		<path fill="#3C2713" d="M65.399,161.824c-0.82-19.283-3.213-41.655-4.03-60.94C61.051,93.473,60.8,85.726,63.937,79
			c2.732-5.863,7.84-10.363,13.505-13.488c5.667-3.124,11.918-5.005,18.132-6.808c4.74-1.379,9.585-2.739,14.52-2.562
			c4.936,0.177,10.056,2.137,12.862,6.199c2.808,4.062,2.465,10.376-1.517,13.296c5.614-1.522,11.448-2.262,17.271-2.188
			c2.582,0.034,5.368,0.312,7.308,2.017c2.668,2.341,2.708,6.673,1.058,9.815c-1.647,3.145-4.579,5.382-7.42,7.513
			c5.04,0.217,11.061,1.053,13.205,5.618c1.084,2.312,0.82,5.007,0.532,7.546c-1.097,9.667-0.572,14.511-1.668,24.177
			c-0.323,2.866,0.899,10.68-1.115,12.739c-2.047,2.095-8.456,2.678-11.365,3.041c-24.23,3.045-46.804,11.385-71.034,14.429"/>
		<path fill="#FFFEFE" d="M17.462,302.26c0,0,28.808-84.633,103.381-84.166c74.572,0.47,101.261,84.166,101.261,84.166H17.462z"/>
		<path fill="#D1966C" d="M62.184,112.05c-1.452,13.228-1.646,29.389-0.995,43.78c0.91,20,11.396,39.726,31.099,43.308l3.238,0.59
			l-3.55,23.82l54.896-0.941l0.37-54.737c0,0,13.53,2.519,21.245-9.786c8.379-13.366,2.792-37.753-9.573-26.596
			c-14.484,13.072-17.615,12.924-17.615,12.924c-2.503-16.909,7.054-51.103-32.77-59.79C88.532,80.255,64.42,91.702,62.184,112.05z"
			/>
		<g>
			<path fill="#AB7C59" d="M151.723,154.776c0.068-0.246,1.636,0.279,4.109-0.031c2.425-0.262,5.824-1.691,7.695-4.961
				c1.509-2.518,1.831-5.584,1.129-7.512c-0.738-2.03-2.913-1.865-3.379-1.285l-0.28-0.375c0.514-0.142,0.771-0.171,0.809-0.094
				c0.032,0.077-0.164,0.25-0.613,0.534l-0.757,0.471l0.475-0.845c0.251-0.451,1.015-0.997,2.041-0.932
				c1.005-0.011,2.271,0.76,2.828,2.016c1.104,2.472,0.787,5.849-0.932,8.805c-2.167,3.788-6.272,5.29-8.938,5.259
				C153.147,155.869,151.64,154.918,151.723,154.776z"/>
		</g>
		<g>
			<path fill="#AB7C59" d="M165.95,146.193c-0.264,0.343-1.688-0.303-3.459,0.054c-1.784,0.275-2.897,1.375-3.264,1.147
				c-0.166-0.11-0.095-0.611,0.396-1.216c0.481-0.603,1.423-1.234,2.6-1.442c1.172-0.21,2.272,0.057,2.933,0.455
				C165.83,145.589,166.067,146.035,165.95,146.193z"/>
		</g>
		<path fill="#F0A67B" d="M90.166,177.376"/>
		<g>
			<path fill="#AB7C59" d="M113.358,196.877c0.205,0.356-1.156,1.456-3.225,1.728c-2.063,0.28-3.664-0.422-3.563-0.822
				c0.09-0.426,1.596-0.448,3.361-0.695C111.701,196.86,113.161,196.487,113.358,196.877z"/>
		</g>
		<path fill="#FFFFFF" d="M109.33,142.874c0,0-1.774-10.39,9.333-13.04c9.329-2.229,12.673,8.238,12.673,8.238L109.33,142.874z"/>
		<path fill="#3C2713" d="M117.587,130.135l4.104,10.044l-12.362,2.695C109.33,142.874,107.993,132.517,117.587,130.135z"/>
		<path fill="#FFFFFF" d="M68.208,139.446c0,0,2.931-10.129,14.08-7.676c9.37,2.058,7.819,12.938,7.819,12.938L68.208,139.446z"/>
		<path fill="#3C2713" d="M81.193,131.574l-0.68,10.827l-12.305-2.955C68.208,139.446,71.518,129.54,81.193,131.574z"/>
		<path fill="#3C2713" d="M60.834,151.772c0,0,2.629,63.813,41.26,64.59c38.624,0.779,45.146-48.495,45.146-48.495l4.481-30.185
			l-9.303,2.496c0,0-10.149,23.514-42.267,24.307C64.618,165.362,60.834,151.772,60.834,151.772z"/>
		<g>
			<path fill="#AB7C59" d="M100.154,161.824c0,0.139-1.601,0.319-4.317-0.063c-2.69-0.382-6.524-1.431-10.437-3.865l-1.293-0.811
				l1.47-0.464c2.803-0.892,5.782-1.839,8.91-2.83c0.8-0.25,1.593-0.496,2.375-0.737c0.351-0.142,0.338-0.162,0.359-0.234
				c0.038-0.12-0.027-0.543-0.087-0.938c-0.229-1.571-0.492-3.081-0.768-4.514c-0.563-2.863-1.188-5.421-1.765-7.557
				c-1.166-4.269-2.076-6.87-1.86-6.956c0.179-0.071,1.451,2.396,2.896,6.639c0.722,2.122,1.465,4.689,2.11,7.586
				c0.317,1.447,0.613,2.979,0.871,4.571c0.04,0.394,0.189,0.779,0.085,1.467c-0.11,0.775-0.918,1.271-1.337,1.374
				c-0.8,0.252-1.606,0.506-2.428,0.763c-3.137,0.955-6.133,1.867-8.944,2.723l0.175-1.273
				C93.592,161.531,100.269,161.401,100.154,161.824z"/>
		</g>
		<g>
			<path fill="#3C2713" d="M132.499,123.527c-0.757,1.988-5.533,2.01-10.805,0.467c-5.266-1.555-9.271-4.163-8.829-6.244
				c0.435-2.062,5.409-2.764,10.997-1.116C129.447,118.273,133.25,121.557,132.499,123.527z"/>
		</g>
		<g>
			<path fill="#3C2713" d="M66.992,123.527c0.756,1.988,5.532,2.01,10.803,0.467c5.267-1.555,9.271-4.163,8.829-6.244
				c-0.435-2.062-5.409-2.764-10.997-1.116C70.042,118.273,66.239,121.557,66.992,123.527z"/>
		</g>
		<path fill="#FFFFFF" d="M90.166,173.392c4.954,1.938,10.523,2.265,15.67,0.92c5.146-1.345,9.849-4.351,13.225-8.461"/>
		<g>
			<path fill="#3C2713" d="M76.745,195.54c0.27,0.327-1.188,1.96-3.255,3.648c-2.068,1.69-3.958,2.795-4.229,2.467
				c-0.266-0.327,1.188-1.963,3.258-3.652C74.586,196.313,76.478,195.213,76.745,195.54z"/>
		</g>
		<g>
			<path fill="#3C2713" d="M77.337,199.469c0.339,0.255-0.319,1.701-1.467,3.235c-1.148,1.531-2.354,2.568-2.696,2.314
				c-0.34-0.256,0.319-1.703,1.472-3.236C75.792,200.251,76.998,199.215,77.337,199.469z"/>
		</g>
		<g>
			<path fill="#3C2713" d="M146.953,180.384c-0.194,0.377-1.66,0.004-3.273-0.836c-1.609-0.837-2.759-1.818-2.564-2.195
				c0.195-0.375,1.662-0.002,3.273,0.836C145.999,179.024,147.149,180.006,146.953,180.384z"/>
		</g>
		<g>
			<path fill="#3C2713" d="M150.594,179.485c-0.169,0.375-2.334-0.271-4.492-1.948c-2.168-1.669-3.338-3.599-3.021-3.858
				c0.333-0.279,1.933,1.092,3.957,2.646C149.05,177.892,150.783,179.094,150.594,179.485z"/>
		</g>
		<g>
			<path fill="#3C2713" d="M135.567,63.755c0.063,0.062-0.208,0.561-1.027,1.195c-0.412,0.288-0.988,0.689-1.892,0.642
				c-0.926-0.008-1.851-1.066-1.724-2.187c0.019-1.142,1.014-2.187,2.09-2.575c1.067-0.438,2.34-0.567,3.606-0.288
				c1.241,0.265,2.648,1.013,3.308,2.495c0.654,1.491,0.151,3.199-0.64,4.381c-3.408,4.602-8.147,6.722-11.579,7.602
				c-3.483,0.86-5.722,0.521-5.707,0.362c-0.015-0.262,2.166-0.32,5.403-1.403c3.155-1.049,7.612-3.354,10.588-7.386
				c0.654-1.004,0.919-2.096,0.55-2.973c-0.354-0.865-1.277-1.466-2.248-1.703c-1.911-0.513-4.196,0.262-4.289,1.581
				c-0.103,0.659,0.268,1.15,0.761,1.245c0.497,0.103,1.058-0.106,1.46-0.304C135.055,64.021,135.485,63.667,135.567,63.755z"/>
		</g>
		<g>
			<path fill="#3C2713" d="M50.389,100.316c0.082-0.086,0.468,0.374,1.26,0.172c0.384-0.105,0.759-0.379,0.871-0.88
				c0.123-0.486-0.026-1.16-0.49-1.602c-0.825-0.914-3.425-1.179-3.987,0.334c-0.298,0.732-0.127,1.819,0.395,2.659
				c0.542,0.871,1.429,1.596,2.468,2.045c2.114,0.902,4.561,0.695,6.421-0.072c1.915-0.794,3.396-2.083,4.541-3.229
				c2.258-2.365,3.421-4.123,3.627-3.979c0.145,0.09-0.666,2.029-2.824,4.709c-1.103,1.301-2.614,2.802-4.776,3.794
				c-2.16,0.969-4.963,1.29-7.595,0.185c-1.296-0.562-2.438-1.484-3.148-2.677c-0.689-1.211-0.963-2.657-0.404-3.994
				c0.59-1.406,2.165-1.897,3.24-1.791c1.122,0.067,2.177,0.504,2.851,1.287c0.682,0.798,0.796,1.829,0.502,2.598
				c-0.287,0.807-1.067,1.194-1.597,1.201C50.562,101.114,50.28,100.305,50.389,100.316z"/>
		</g>
		<g>
			<path fill="#583B23" d="M98.95,184.849c-0.03-0.093,1.011-0.608,3.011-1.272c1.993-0.613,5.025-1.498,8.896-1.103
				c1.914,0.209,4.036,0.862,5.943,2.166c1.898,1.277,3.691,3.252,4.392,5.871c0.753,2.612,0.054,5.641-1.666,7.942
				c-1.684,2.354-4.506,3.974-7.502,4.362c-3.011,0.401-5.995-0.185-8.53-1.506c-2.489-1.268-4.699-3.832-4.465-6.771
				c0.234-2.854,2.224-4.949,4.325-5.979c2.172-1.045,4.579-0.983,6.423-0.07c1.889,0.921,2.875,2.84,2.85,4.465
				c0.028,1.688-1.09,2.965-2.123,3.37c-1.037,0.47-1.976,0.372-2.508,0.155c-0.545-0.224-0.741-0.475-0.716-0.502
				c0.012-0.154,1.164,0.768,2.955-0.187c0.852-0.444,1.623-1.474,1.534-2.822c-0.059-1.317-0.918-2.827-2.463-3.506
				c-1.519-0.692-3.619-0.688-5.385,0.233c-1.76,0.896-3.361,2.76-3.479,4.928c-0.157,2.172,1.532,4.229,3.759,5.357
				c2.225,1.146,4.961,1.672,7.606,1.312c5.396-0.538,9.272-5.985,8.013-10.428c-0.545-2.203-2.06-3.989-3.743-5.185
				c-1.705-1.226-3.587-1.877-5.363-2.135c-3.592-0.513-6.587,0.164-8.593,0.602C100.103,184.626,98.986,184.957,98.95,184.849z"/>
		</g>
		<g>
			<path fill="#583B23" d="M104.145,63.946c-0.025-0.025,0.119-0.274,0.617-0.448c0.481-0.154,1.348-0.14,2.139,0.508
				c0.845,0.61,1.207,2.124,0.583,3.42c-0.559,1.347-2.078,2.349-3.729,2.683c-1.658,0.351-3.48,0.408-5.428,0.134
				c-1.893-0.365-4.059-0.688-5.868-2.484c-0.895-0.912-1.239-2.455-0.841-3.706c0.342-1.273,1.242-2.347,2.269-3.072
				c2.094-1.394,4.353-2.233,6.848-2.831c2.48-0.552,5.079-0.575,7.448,0.154c2.354,0.756,4.376,2.219,5.677,4.107
				c1.326,1.869,1.796,4.219,1.405,6.211c-0.365,2.005-1.316,3.66-2.365,4.949c-2.181,2.576-4.599,3.796-6.171,4.641
				c-1.614,0.81-2.541,1.169-2.59,1.079c-0.056-0.099,0.785-0.638,2.289-1.597c1.466-0.983,3.734-2.346,5.612-4.793
				c0.918-1.222,1.708-2.754,1.964-4.481c0.281-1.725-0.146-3.61-1.301-5.194c-1.133-1.59-2.926-2.853-4.966-3.485
				c-2.061-0.615-4.392-0.604-6.675-0.091c-2.254,0.52-4.553,1.396-6.297,2.553c-1.734,1.112-2.473,3.357-1.252,4.622
				c1.199,1.298,3.282,1.816,5.012,2.161c1.775,0.311,3.521,0.313,5.011,0.06c1.483-0.249,2.664-0.971,3.174-1.992
				c0.544-1.002,0.371-2.075-0.208-2.604C105.235,63.275,104.127,64.067,104.145,63.946z"/>
		</g>
		<path fill="#D1966C" d="M92.287,221.666c0,0,20.389,24.662,21.094,33.177c1.397,16.879,33.696-33.576,33.696-33.576
			L92.287,221.666z"/>
		<g>
			<path fill="#583B23" d="M113.286,245.015c-0.014-0.035,0.422-0.255,1.264-0.535c0.84-0.256,2.113-0.627,3.738-0.463
				c0.807,0.09,1.695,0.362,2.498,0.91c0.799,0.538,1.551,1.367,1.844,2.469c0.319,1.101,0.023,2.371-0.696,3.338
				c-0.708,0.99-1.896,1.67-3.152,1.834c-1.266,0.17-2.52-0.076-3.586-0.633c-1.045-0.533-1.974-1.609-1.875-2.845
				c0.099-1.198,0.934-2.081,1.816-2.513c0.912-0.439,1.924-0.415,2.699-0.032c0.793,0.388,1.208,1.196,1.196,1.877
				c0.012,0.711-0.457,1.246-0.892,1.418c-0.438,0.196-0.831,0.156-1.053,0.063c-0.229-0.092-0.313-0.197-0.303-0.211
				c0.005-0.064,0.488,0.324,1.243-0.077c0.356-0.188,0.681-0.62,0.644-1.188c-0.025-0.553-0.386-1.188-1.033-1.47
				c-0.64-0.291-1.521-0.288-2.263,0.097c-0.739,0.379-1.416,1.16-1.461,2.07c-0.067,0.914,0.644,1.777,1.578,2.253
				c0.935,0.479,2.085,0.702,3.196,0.548c2.268-0.224,3.896-2.514,3.368-4.381c-0.229-0.926-0.866-1.675-1.574-2.178
				c-0.715-0.516-1.507-0.787-2.25-0.898c-1.513-0.213-2.772,0.071-3.614,0.254C113.771,244.923,113.3,245.062,113.286,245.015z"/>
		</g>
		<g>
			<path fill="#979696" d="M113.286,258.24c-0.763-1.871-1.635-3.697-2.688-5.405c-1.063-1.682-2.253-3.357-3.865-4.443
				c-0.396-0.271-0.829-0.479-1.271-0.625c-0.44-0.16-0.888-0.182-1.411-0.224c-0.5-0.021-0.953-0.028-1.448,0.013
				c-0.486,0.02-0.972,0.09-1.453,0.17c-0.962,0.17-1.906,0.451-2.816,0.818c-0.901,0.367-1.807,0.818-2.589,1.342l-0.639,0.426
				l-0.111-0.756c-0.321-2.158-0.591-4.322-0.863-6.486l-0.817-6.493l-0.724-6.507l-0.319-3.258
				c-0.107-1.088-0.208-2.174-0.294-3.264c0.206,1.073,0.396,2.146,0.58,3.225L93.109,230l1.023,6.465l0.93,6.479
				c0.31,2.158,0.623,4.318,0.884,6.482l-0.75-0.328c0.907-0.586,1.83-1.022,2.803-1.404c0.968-0.375,1.976-0.657,3.005-0.824
				c0.516-0.079,1.034-0.146,1.558-0.16c0.513-0.035,1.071,0.009,1.577,0.055c0.479,0.062,1.052,0.113,1.561,0.319
				c0.51,0.188,0.987,0.444,1.413,0.759c0.863,0.616,1.568,1.393,2.195,2.204c0.626,0.815,1.168,1.687,1.645,2.587
				C111.906,254.429,112.695,256.306,113.286,258.24z"/>
		</g>
		<g>
			<path fill="#979696" d="M118.021,260.176c1.317-2.534,2.829-4.973,4.55-7.269c0.869-1.141,1.789-2.254,2.857-3.236
				c0.533-0.49,1.101-0.954,1.729-1.344c0.626-0.387,1.317-0.719,2.092-0.828c0.769-0.122,1.618,0.061,2.267,0.516l0.871,0.648
				c0.282,0.225,0.557,0.48,0.835,0.72c0.536,0.499,1.052,1.009,1.528,1.556c0.492,0.531,0.94,1.102,1.389,1.668
				c0.889,1.142,1.681,2.351,2.429,3.58c0.747,1.233,1.438,2.488,2.072,3.801l-0.854,0.107l1.687-9.39l1.764-9.374l0.861-4.686
				c0.278-1.565,0.604-3.123,0.904-4.686l0.924-4.68c0.313-1.559,0.607-3.119,0.946-4.678c-0.159,1.584-0.36,3.162-0.548,4.744
				c-0.172,1.586-0.448,3.149-0.668,4.728c-0.239,1.571-0.453,3.147-0.715,4.717c-0.255,1.563-0.512,3.146-0.802,4.706l-1.692,9.387
				l-1.771,9.371l-0.256,1.354l-0.598-1.246c-1.215-2.532-2.664-5-4.339-7.264c-0.422-0.563-0.847-1.129-1.313-1.654
				c-0.448-0.541-0.94-1.049-1.438-1.53c-0.258-0.229-0.499-0.474-0.771-0.697l-0.831-0.649c-0.519-0.377-1.156-0.533-1.804-0.45
				c-0.646,0.073-1.284,0.352-1.876,0.698c-0.594,0.351-1.148,0.779-1.677,1.242c-1.053,0.932-2.016,1.979-2.915,3.077
				C121.068,255.343,119.481,257.724,118.021,260.176z"/>
		</g>
	</g>
	<path fill="none" stroke="#7B5340" stroke-miterlimit="10" d="M24.873,88.913"/>
</g>
</svg>
