<?xml version="1.0" encoding="utf-8"?>
<!-- Generator: Adobe Illustrator 16.0.0, SVG Export Plug-In . SVG Version: 6.00 Build 0)  -->
<!DOCTYPE svg PUBLIC "-//W3C//DTD SVG 1.1//EN" "http://www.w3.org/Graphics/SVG/1.1/DTD/svg11.dtd">
<svg version="1.1" id="Capa_1" xmlns="http://www.w3.org/2000/svg" xmlns:xlink="http://www.w3.org/1999/xlink" x="0px" y="0px"
	 width="455.215px" height="99.004px" viewBox="0 0 455.215 99.004" enable-background="new 0 0 455.215 99.004"
	 xml:space="preserve">
<g>
	<g>
		<path fill="#331842" d="M111.844,39.19c0.021-2.534,0.03-5.144,0.03-7.828c0-2.691-0.01-5.455-0.03-8.29
			c1.16-0.105,2.229-0.158,3.208-0.158c2.724,0,4.731,0.406,6.022,1.219c1.755,1.112,2.673,3.169,2.754,6.169v0.812
			c0,2.571-0.333,4.406-0.999,5.504c-0.736,1.211-2.083,2.016-4.04,2.414c-1.13,0.233-2.371,0.35-3.722,0.35
			C114.058,39.382,112.984,39.318,111.844,39.19z M115.596,26.298c-0.171,2.475-0.257,4.865-0.257,7.174
			c0,0.872,0.01,1.729,0.03,2.571c0.353,0.061,0.69,0.091,1.014,0.091c0.888,0,1.634-0.229,2.239-0.688
			c0.827-0.616,1.241-2,1.241-4.15V31.25c-0.01-2.166-0.414-3.587-1.21-4.264c-0.615-0.512-1.347-0.768-2.194-0.768
			C116.187,26.219,115.899,26.245,115.596,26.298z"/>
		<path fill="#331842" d="M130.818,27.708c3.319,0.136,4.978,1.38,4.978,3.733v8.008l-3.525,0.045l-0.121-1.071
			c-0.727,0.617-1.69,0.925-2.89,0.925c-0.514,0-1.069-0.06-1.665-0.18c-1.785-0.331-2.678-1.361-2.678-3.091
			c0-0.211,0.015-0.437,0.045-0.677c0.202-1.782,1.901-2.673,5.099-2.673c0.615,0,1.291,0.033,2.027,0.102v-1.309
			c0-1.061-0.449-1.591-1.347-1.591h-0.061c-0.071-0.007-0.136-0.011-0.197-0.011c-0.979,0-1.468,0.594-1.468,1.782v0.169
			l-3.601-0.226c0-2.624,1.695-3.937,5.084-3.937H130.818z M132.089,36.618v-1.985c-0.434-0.067-0.827-0.101-1.18-0.101
			c-0.918,0-1.543,0.229-1.876,0.688c-0.202,0.278-0.302,0.538-0.302,0.778c0,0.301,0.161,0.567,0.484,0.801
			c0.252,0.181,0.58,0.271,0.983,0.271C130.712,37.069,131.343,36.919,132.089,36.618z"/>
		<path fill="#331842" d="M139.791,27.742l0.151,1.838c0.424-0.978,1.538-1.474,3.344-1.488h0.061c1.775,0,2.985,0.519,3.631,1.556
			c0.444,0.707,0.666,2.361,0.666,4.963c0,1.278-0.056,2.79-0.167,4.534h-3.662c0.131-2.323,0.197-4.124,0.197-5.402
			c0-0.639-0.015-1.15-0.045-1.534c-0.101-1.128-0.585-1.691-1.453-1.691s-1.412,0.301-1.634,0.902l0.151,8.177l-3.556,0.023
			c0-3.459-0.156-7.343-0.469-11.651L139.791,27.742z M137.4,26.523c0-2.256,1.009-3.384,3.026-3.384
			c1.008,0,1.791,0.282,2.345,0.846c0.464,0.467,0.893,0.7,1.286,0.7c0.081,0,0.156-0.008,0.227-0.023
			c0.454-0.112,0.681-0.62,0.681-1.522h2.27c0,2.256-1.009,3.384-3.026,3.384c-1.009,0-1.816-0.282-2.421-0.846
			c-0.504-0.474-0.938-0.711-1.301-0.711c-0.071,0-0.142,0.012-0.212,0.034c-0.404,0.112-0.605,0.62-0.605,1.522H137.4z"/>
		<path fill="#331842" d="M154.226,28.035c3.43,0,5.145,1.774,5.145,5.323c0,0.144-0.005,0.286-0.015,0.429
			c-0.141,3.843-1.967,5.783-5.477,5.82c-0.041,0.008-0.081,0.012-0.121,0.012c-3.339,0-5.008-1.816-5.008-5.448v-0.315
			C148.85,29.975,150.675,28.035,154.226,28.035z M153.727,30.606c-0.636,0.166-1.069,0.778-1.301,1.839
			c-0.142,0.632-0.212,1.267-0.212,1.906c0,0.429,0.03,0.861,0.091,1.297c0.161,1.083,0.681,1.643,1.559,1.681h0.106
			c0.817,0,1.376-0.402,1.679-1.207c0.252-0.669,0.378-1.462,0.378-2.38c0-0.226-0.005-0.455-0.015-0.688
			c-0.081-1.211-0.323-1.967-0.726-2.268c-0.252-0.181-0.555-0.271-0.908-0.271C154.176,30.517,153.959,30.547,153.727,30.606z"/>
		<path fill="#331842" d="M171.703,27.708c3.319,0.136,4.978,1.38,4.978,3.733v8.008l-3.525,0.045l-0.121-1.071
			c-0.727,0.617-1.69,0.925-2.89,0.925c-0.514,0-1.069-0.06-1.665-0.18c-1.785-0.331-2.678-1.361-2.678-3.091
			c0-0.211,0.015-0.437,0.045-0.677c0.202-1.782,1.901-2.673,5.099-2.673c0.615,0,1.291,0.033,2.027,0.102v-1.309
			c0-1.061-0.449-1.591-1.347-1.591h-0.061c-0.071-0.007-0.136-0.011-0.197-0.011c-0.979,0-1.468,0.594-1.468,1.782v0.169
			l-3.601-0.226c0-2.624,1.695-3.937,5.084-3.937H171.703z M172.974,36.618v-1.985c-0.434-0.067-0.827-0.101-1.18-0.101
			c-0.918,0-1.543,0.229-1.876,0.688c-0.202,0.278-0.302,0.538-0.302,0.778c0,0.301,0.161,0.567,0.484,0.801
			c0.252,0.181,0.58,0.271,0.983,0.271C171.597,37.069,172.227,36.919,172.974,36.618z"/>
		<path fill="#331842" d="M182.143,39.427l-3.768,0.26c0.04-2.489,0.061-4.884,0.061-7.185c0-3.233-0.041-6.283-0.121-9.147
			l3.707-0.046c-0.041,1.843-0.061,3.733-0.061,5.674C181.961,32.329,182.022,35.811,182.143,39.427z"/>
		<path fill="#331842" d="M189.179,44.119c0.061-2.534,0.091-5.229,0.091-8.087c0-2.602-0.025-5.331-0.076-8.188l3.586-0.012
			l0.121,1.737c0.746-0.843,1.74-1.264,2.98-1.264c3.097,0,4.646,1.823,4.646,5.471v0.226c-0.071,3.654-1.614,5.481-4.63,5.481
			c-0.121,0-0.242-0.004-0.363-0.012c-1.029-0.037-1.861-0.454-2.497-1.252c0,1.67,0.056,3.636,0.167,5.899H189.179z
			 M192.962,31.881l0.076,4.241c0.585,0.594,1.175,0.892,1.771,0.892c0.242,0,0.484-0.053,0.726-0.158
			c0.736-0.301,1.105-1.199,1.105-2.696c0-0.18-0.005-0.368-0.015-0.563c-0.101-1.835-0.59-2.801-1.468-2.898
			c-0.091-0.008-0.177-0.012-0.257-0.012C194.132,30.686,193.486,31.084,192.962,31.881z"/>
		<path fill="#331842" d="M205.748,31.531l0.151,8.178l-3.707,0.022c0-3.459-0.156-7.343-0.469-11.651l2.784-0.226l0.151,1.839
			c0.424-0.902,1.412-1.418,2.966-1.546c0.232-0.015,0.454-0.022,0.666-0.022c1.221,0,2.149,0.298,2.784,0.892
			c0.736,0.707,1.109,1.831,1.12,3.372l-3.359,0.248c0.01-0.128,0.015-0.252,0.015-0.372c0-1.203-0.419-1.805-1.256-1.805h-0.061
			C206.565,30.498,205.97,30.854,205.748,31.531z"/>
		<path fill="#331842" d="M218.533,28.035c3.43,0,5.145,1.774,5.145,5.323c0,0.144-0.005,0.286-0.015,0.429
			c-0.141,3.843-1.967,5.783-5.477,5.82c-0.041,0.008-0.081,0.012-0.121,0.012c-3.339,0-5.008-1.816-5.008-5.448v-0.315
			C213.157,29.975,214.982,28.035,218.533,28.035z M218.034,30.606c-0.636,0.166-1.069,0.778-1.301,1.839
			c-0.142,0.632-0.212,1.267-0.212,1.906c0,0.429,0.03,0.861,0.091,1.297c0.161,1.083,0.681,1.643,1.559,1.681h0.106
			c0.817,0,1.376-0.402,1.679-1.207c0.252-0.669,0.378-1.462,0.378-2.38c0-0.226-0.005-0.455-0.015-0.688
			c-0.081-1.211-0.323-1.967-0.726-2.268c-0.252-0.181-0.555-0.271-0.908-0.271C218.483,30.517,218.266,30.547,218.034,30.606z"/>
		<path fill="#331842" d="M224.48,27.99l3.964-0.237c-0.09,2.256-0.136,4.113-0.136,5.572c0,0.549,0.01,1.041,0.03,1.478
			c0.04,1.609,0.523,2.436,1.452,2.481c0.061,0.007,0.116,0.011,0.167,0.011c0.826,0,1.352-0.354,1.573-1.06
			c0.121-0.414,0.182-1.396,0.182-2.944c0-1.24-0.04-2.842-0.121-4.805l3.722-0.203c0.041,2.294,0.061,4.264,0.061,5.91
			c0,2.053-0.029,3.602-0.09,4.647c-0.102,1.879-0.822,3.308-2.164,4.286c-1.211,0.887-2.91,1.33-5.099,1.33
			c-0.252,0-0.51-0.007-0.772-0.022l-0.423-2.752c0.191,0.008,0.378,0.012,0.56,0.012c1.695,0,2.854-0.223,3.481-0.666
			c0.645-0.459,0.968-1.195,0.968-2.211v-0.18c-0.575,0.677-1.458,1.015-2.647,1.015h-0.213c-1.301-0.045-2.31-0.427-3.026-1.145
			s-1.107-1.726-1.172-3.022C224.709,34.188,224.611,31.689,224.48,27.99z"/>
		<path fill="#331842" d="M241.578,28.035c3.5,0,5.251,1.733,5.251,5.199c0,0.422-0.025,0.873-0.076,1.354h-6.764
			c0,1.933,0.5,2.899,1.498,2.899h0.105c0.878-0.053,1.316-0.553,1.316-1.501c0-0.202-0.02-0.428-0.061-0.677l3.602-0.056
			c0,2.864-1.68,4.316-5.039,4.354c-0.04,0.008-0.075,0.012-0.105,0.012c-3.197,0-4.797-1.809-4.797-5.426v-0.338
			C236.61,29.975,238.299,28.035,241.578,28.035z M239.625,32.513h3.42v-0.271c0-1.368-0.52-2.053-1.559-2.053
			C240.368,30.189,239.747,30.964,239.625,32.513z"/>
		<path fill="#331842" d="M254.151,34.972l3.602,0.169c0,2.715-1.68,4.091-5.039,4.128c-0.04,0.008-0.075,0.012-0.105,0.012
			c-3.197,0-4.797-1.809-4.797-5.425v-0.339c0.102-3.88,1.806-5.839,5.115-5.876h0.121c3.045,0,4.568,1.301,4.568,3.902
			c0,0.15-0.005,0.301-0.015,0.451l-3.253,0.181v-0.271c0-1.368-0.52-2.053-1.559-2.053c-1.059,0-1.589,1.109-1.589,3.328v0.372
			c0.061,2.398,0.595,3.598,1.604,3.598h0.09c0.878-0.053,1.316-0.553,1.316-1.5C254.211,35.445,254.192,35.22,254.151,34.972z"/>
		<path fill="#331842" d="M261.536,24.437l3.434-0.169v3.733l2.891-0.057l0.045,2.132l-2.936,0.102v5.132
			c0,1.196,0.682,1.794,2.043,1.794c0.282,0,0.59-0.026,0.924-0.079l-0.137,2.481c-0.484,0.045-0.943,0.067-1.377,0.067
			c-3.188,0-4.812-1.226-4.872-3.677v-5.516l-2.481,0.113l-0.061-2.516l2.542,0.022L261.536,24.437z"/>
		<path fill="#331842" d="M274.487,28.035c3.43,0,5.145,1.774,5.145,5.323c0,0.144-0.005,0.286-0.016,0.429
			c-0.141,3.843-1.967,5.783-5.477,5.82c-0.041,0.008-0.081,0.012-0.121,0.012c-3.339,0-5.008-1.816-5.008-5.448v-0.315
			C269.11,29.975,270.936,28.035,274.487,28.035z M273.988,30.606c-0.636,0.166-1.069,0.778-1.302,1.839
			c-0.141,0.632-0.211,1.267-0.211,1.906c0,0.429,0.029,0.861,0.09,1.297c0.162,1.083,0.682,1.643,1.559,1.681h0.106
			c0.817,0,1.376-0.402,1.679-1.207c0.252-0.669,0.379-1.462,0.379-2.38c0-0.226-0.006-0.455-0.016-0.688
			c-0.08-1.211-0.322-1.967-0.726-2.268c-0.253-0.181-0.556-0.271-0.908-0.271C274.436,30.517,274.219,30.547,273.988,30.606z"/>
		<path fill="#331842" d="M297.547,23.659c-0.061,2.541-0.092,5.207-0.092,7.996c0,2.542,0.025,5.188,0.076,7.94l-3.586,0.012
			l-0.121-1.726c-0.747,0.835-1.74,1.252-2.98,1.252c-3.098,0-4.646-1.767-4.646-5.302c0-0.074,0.006-0.149,0.016-0.226
			c0.061-3.541,1.594-5.312,4.6-5.312c0.121,0,0.248,0.004,0.379,0.012c1.029,0.045,1.861,0.463,2.496,1.252
			c0-1.669-0.055-3.636-0.166-5.898H297.547z M293.764,35.569l-0.076-3.902c-0.585-0.594-1.186-0.892-1.801-0.892
			c-0.252,0-0.504,0.05-0.756,0.147c-0.797,0.308-1.195,1.173-1.195,2.594c0,0.166,0.005,0.335,0.016,0.508
			c0.1,1.722,0.614,2.632,1.543,2.729c0.09,0.008,0.182,0.011,0.271,0.011C292.574,36.765,293.239,36.366,293.764,35.569z"/>
		<path fill="#331842" d="M303.66,28.035c3.5,0,5.251,1.733,5.251,5.199c0,0.422-0.025,0.873-0.076,1.354h-6.764
			c0,1.933,0.5,2.899,1.498,2.899h0.105c0.878-0.053,1.316-0.553,1.316-1.501c0-0.202-0.02-0.428-0.061-0.677l3.602-0.056
			c0,2.864-1.68,4.316-5.039,4.354c-0.04,0.008-0.075,0.012-0.105,0.012c-3.197,0-4.797-1.809-4.797-5.426v-0.338
			C298.692,29.975,300.381,28.035,303.66,28.035z M301.708,32.513h3.42v-0.271c0-1.368-0.52-2.053-1.559-2.053
			C302.45,30.189,301.829,30.964,301.708,32.513z"/>
		<path fill="#331842" d="M318.502,39.325c-1.271-4.354-2.41-8.091-3.419-11.211l3.677-0.146l1.861,8.199
			c0.969-3.067,1.74-5.865,2.314-8.392l3.617,0.339c-1.141,3.15-2.467,6.873-3.98,11.166L318.502,39.325z"/>
		<path fill="#331842" d="M331.349,25.44c0,0.459-0.217,0.851-0.65,1.174c-0.435,0.323-0.958,0.484-1.573,0.484
			c-0.605,0-1.125-0.161-1.559-0.484s-0.65-0.715-0.65-1.174c0-0.451,0.217-0.838,0.65-1.161s0.953-0.485,1.559-0.485
			c0.615,0,1.139,0.162,1.573,0.485C331.132,24.603,331.349,24.989,331.349,25.44z M327.293,39.675
			c-0.07-4.398-0.105-8.199-0.105-11.403L331,28.103c-0.12,3.068-0.181,6.117-0.181,9.147c0,0.812,0.005,1.62,0.015,2.425H327.293z"
			/>
		<path fill="#331842" d="M343.621,23.659c-0.061,2.541-0.091,5.207-0.091,7.996c0,2.542,0.025,5.188,0.076,7.94l-3.587,0.012
			l-0.121-1.726c-0.747,0.835-1.739,1.252-2.98,1.252c-3.097,0-4.646-1.767-4.646-5.302c0-0.074,0.006-0.149,0.016-0.226
			c0.061-3.541,1.594-5.312,4.6-5.312c0.121,0,0.247,0.004,0.379,0.012c1.028,0.045,1.86,0.463,2.496,1.252
			c0-1.669-0.056-3.636-0.166-5.898H343.621z M339.838,35.569l-0.076-3.902c-0.586-0.594-1.186-0.892-1.801-0.892
			c-0.252,0-0.504,0.05-0.756,0.147c-0.798,0.308-1.195,1.173-1.195,2.594c0,0.166,0.004,0.335,0.015,0.508
			c0.101,1.722,0.614,2.632,1.543,2.729c0.091,0.008,0.182,0.011,0.272,0.011C338.647,36.765,339.313,36.366,339.838,35.569z"/>
		<path fill="#331842" d="M350.671,27.708c3.319,0.136,4.978,1.38,4.978,3.733v8.008l-3.525,0.045l-0.121-1.071
			c-0.727,0.617-1.689,0.925-2.89,0.925c-0.515,0-1.069-0.06-1.665-0.18c-1.785-0.331-2.678-1.361-2.678-3.091
			c0-0.211,0.016-0.437,0.046-0.677c0.202-1.782,1.901-2.673,5.099-2.673c0.615,0,1.291,0.033,2.027,0.102v-1.309
			c0-1.061-0.449-1.591-1.346-1.591h-0.061c-0.071-0.007-0.137-0.011-0.197-0.011c-0.979,0-1.468,0.594-1.468,1.782v0.169
			l-3.601-0.226c0-2.624,1.694-3.937,5.084-3.937H350.671z M351.942,36.618v-1.985c-0.434-0.067-0.826-0.101-1.18-0.101
			c-0.918,0-1.543,0.229-1.877,0.688c-0.201,0.278-0.302,0.538-0.302,0.778c0,0.301,0.161,0.567,0.483,0.801
			c0.252,0.181,0.58,0.271,0.984,0.271C350.565,37.069,351.196,36.919,351.942,36.618z"/>
		<path fill="#3C3C3B" d="M47.705,59.383V47.93h4.32c0.76,0,1.341,0.036,1.742,0.109c0.562,0.094,1.034,0.272,1.414,0.535
			c0.38,0.263,0.686,0.632,0.918,1.105c0.231,0.473,0.348,0.995,0.348,1.563c0,0.973-0.31,1.797-0.93,2.473
			c-0.62,0.674-1.74,1.012-3.359,1.012h-2.938v4.656H47.705z M49.221,53.375h2.961c0.979,0,1.674-0.184,2.086-0.547
			c0.411-0.365,0.617-0.879,0.617-1.539c0-0.48-0.121-0.891-0.363-1.23c-0.242-0.341-0.562-0.567-0.957-0.676
			c-0.255-0.067-0.727-0.102-1.414-0.102h-2.93V53.375z"/>
		<path fill="#3C3C3B" d="M63.877,56.711l1.453,0.18c-0.229,0.848-0.654,1.508-1.273,1.977c-0.62,0.469-1.412,0.703-2.375,0.703
			c-1.214,0-2.176-0.375-2.887-1.121c-0.711-0.748-1.066-1.797-1.066-3.145c0-1.396,0.359-2.48,1.078-3.25
			c0.719-0.771,1.651-1.156,2.797-1.156c1.109,0,2.016,0.377,2.719,1.133c0.703,0.754,1.055,1.816,1.055,3.188
			c0,0.082-0.003,0.207-0.008,0.375h-6.188c0.052,0.91,0.31,1.609,0.773,2.094c0.463,0.484,1.042,0.727,1.734,0.727
			c0.516,0,0.956-0.137,1.32-0.406C63.374,57.737,63.663,57.305,63.877,56.711z M59.26,54.438h4.633
			c-0.062-0.699-0.24-1.223-0.531-1.57c-0.448-0.543-1.029-0.812-1.742-0.812c-0.646,0-1.189,0.215-1.629,0.648
			C59.55,53.135,59.307,53.713,59.26,54.438z"/>
		<path fill="#3C3C3B" d="M67.08,59.383v-8.297h1.266v1.258c0.323-0.59,0.621-0.977,0.895-1.164s0.574-0.281,0.902-0.281
			c0.474,0,0.956,0.15,1.445,0.453l-0.484,1.305c-0.344-0.203-0.688-0.305-1.031-0.305c-0.308,0-0.583,0.092-0.828,0.277
			c-0.245,0.184-0.419,0.441-0.523,0.77c-0.156,0.5-0.234,1.047-0.234,1.641v4.344H67.08z"/>
		<path fill="#3C3C3B" d="M70.635,62.602l0.266-1.195c0.281,0.072,0.502,0.109,0.664,0.109c0.286,0,0.5-0.096,0.641-0.285
			c0.141-0.191,0.211-0.666,0.211-1.426v-8.719h1.406v8.75c0,1.02-0.133,1.73-0.398,2.133c-0.339,0.52-0.901,0.781-1.688,0.781
			C71.356,62.75,70.989,62.7,70.635,62.602z M72.416,49.562V47.93h1.406v1.633H72.416z"/>
		<path fill="#3C3C3B" d="M81.416,59.383v-1.219c-0.646,0.938-1.523,1.406-2.633,1.406c-0.49,0-0.947-0.094-1.371-0.281
			c-0.425-0.188-0.74-0.424-0.945-0.707c-0.206-0.285-0.351-0.633-0.434-1.043c-0.058-0.277-0.086-0.715-0.086-1.312v-5.141h1.406
			v4.602c0,0.734,0.028,1.229,0.086,1.484c0.088,0.369,0.276,0.66,0.562,0.871c0.286,0.211,0.641,0.316,1.062,0.316
			s0.817-0.109,1.188-0.324c0.37-0.217,0.631-0.512,0.785-0.883c0.153-0.373,0.23-0.914,0.23-1.621v-4.445h1.406v8.297H81.416z"/>
		<path fill="#3C3C3B" d="M84.885,49.547V47.93h1.406v1.617H84.885z M84.885,59.383v-8.297h1.406v8.297H84.885z"/>
		<path fill="#3C3C3B" d="M93.846,56.344l1.383,0.18c-0.151,0.953-0.538,1.699-1.16,2.238c-0.623,0.539-1.387,0.809-2.293,0.809
			c-1.136,0-2.048-0.371-2.738-1.113c-0.69-0.742-1.035-1.807-1.035-3.191c0-0.896,0.148-1.68,0.445-2.352s0.749-1.176,1.355-1.512
			c0.606-0.336,1.267-0.504,1.98-0.504c0.901,0,1.638,0.227,2.211,0.684c0.573,0.455,0.94,1.102,1.102,1.941l-1.367,0.211
			c-0.13-0.559-0.361-0.977-0.691-1.258c-0.331-0.281-0.73-0.422-1.199-0.422c-0.708,0-1.284,0.254-1.727,0.762
			c-0.443,0.508-0.664,1.311-0.664,2.41c0,1.113,0.213,1.924,0.641,2.43c0.427,0.504,0.984,0.758,1.672,0.758
			c0.552,0,1.013-0.17,1.383-0.508C93.512,57.567,93.747,57.047,93.846,56.344z"/>
		<path fill="#3C3C3B" d="M96.439,49.547V47.93h1.406v1.617H96.439z M96.439,59.383v-8.297h1.406v8.297H96.439z"/>
		<path fill="#3C3C3B" d="M99.463,55.235c0-1.537,0.427-2.676,1.281-3.414c0.713-0.615,1.583-0.922,2.609-0.922
			c1.141,0,2.073,0.373,2.797,1.121c0.724,0.746,1.086,1.779,1.086,3.098c0,1.066-0.16,1.906-0.48,2.52
			c-0.32,0.611-0.787,1.086-1.398,1.426c-0.612,0.338-1.28,0.508-2.004,0.508c-1.162,0-2.101-0.373-2.816-1.117
			C99.821,57.708,99.463,56.635,99.463,55.235z M100.908,55.235c0,1.062,0.231,1.857,0.695,2.387
			c0.463,0.527,1.047,0.793,1.75,0.793c0.698,0,1.278-0.266,1.742-0.797c0.463-0.531,0.695-1.342,0.695-2.43
			c0-1.027-0.233-1.805-0.699-2.332c-0.466-0.529-1.046-0.793-1.738-0.793c-0.703,0-1.287,0.262-1.75,0.789
			C101.14,53.377,100.908,54.172,100.908,55.235z"/>
		<path fill="#3C3C3B" d="M118.713,59.383v-1.047c-0.526,0.822-1.3,1.234-2.32,1.234c-0.662,0-1.27-0.184-1.824-0.547
			c-0.555-0.365-0.984-0.875-1.289-1.527c-0.305-0.654-0.457-1.406-0.457-2.254c0-0.828,0.138-1.58,0.414-2.254
			c0.276-0.676,0.69-1.191,1.242-1.551c0.552-0.359,1.169-0.539,1.852-0.539c0.5,0,0.945,0.105,1.336,0.316s0.708,0.484,0.953,0.824
			v-4.11h1.398v11.454H118.713z M114.268,55.243c0,1.062,0.224,1.855,0.672,2.383c0.448,0.525,0.977,0.789,1.586,0.789
			c0.614,0,1.137-0.252,1.566-0.754c0.43-0.504,0.645-1.27,0.645-2.301c0-1.137-0.219-1.969-0.656-2.5s-0.977-0.797-1.617-0.797
			c-0.625,0-1.147,0.254-1.566,0.766C114.477,53.338,114.268,54.143,114.268,55.243z"/>
		<path fill="#3C3C3B" d="M127.908,56.711l1.453,0.18c-0.229,0.848-0.654,1.508-1.273,1.977c-0.62,0.469-1.412,0.703-2.375,0.703
			c-1.214,0-2.176-0.375-2.887-1.121c-0.711-0.748-1.066-1.797-1.066-3.145c0-1.396,0.359-2.48,1.078-3.25
			c0.719-0.771,1.651-1.156,2.797-1.156c1.109,0,2.016,0.377,2.719,1.133c0.703,0.754,1.055,1.816,1.055,3.188
			c0,0.082-0.003,0.207-0.008,0.375h-6.188c0.052,0.91,0.31,1.609,0.773,2.094c0.463,0.484,1.042,0.727,1.734,0.727
			c0.516,0,0.956-0.137,1.32-0.406C127.405,57.737,127.694,57.305,127.908,56.711z M123.291,54.438h4.633
			c-0.062-0.699-0.24-1.223-0.531-1.57c-0.448-0.543-1.029-0.812-1.742-0.812c-0.646,0-1.189,0.215-1.629,0.648
			C123.581,53.135,123.338,53.713,123.291,54.438z"/>
		<path fill="#3C3C3B" d="M135.541,59.383V47.93h1.406v11.454H135.541z"/>
		<path fill="#3C3C3B" d="M138.604,55.235c0-1.537,0.427-2.676,1.281-3.414c0.713-0.615,1.583-0.922,2.609-0.922
			c1.141,0,2.073,0.373,2.797,1.121c0.724,0.746,1.086,1.779,1.086,3.098c0,1.066-0.16,1.906-0.48,2.52
			c-0.32,0.611-0.787,1.086-1.398,1.426c-0.612,0.338-1.28,0.508-2.004,0.508c-1.162,0-2.101-0.373-2.816-1.117
			C138.961,57.708,138.604,56.635,138.604,55.235z M140.049,55.235c0,1.062,0.231,1.857,0.695,2.387
			c0.463,0.527,1.047,0.793,1.75,0.793c0.698,0,1.278-0.266,1.742-0.797c0.463-0.531,0.695-1.342,0.695-2.43
			c0-1.027-0.233-1.805-0.699-2.332c-0.466-0.529-1.046-0.793-1.738-0.793c-0.703,0-1.287,0.262-1.75,0.789
			C140.28,53.377,140.049,54.172,140.049,55.235z"/>
		<path fill="#3C3C3B" d="M147.463,56.907l1.391-0.219c0.078,0.557,0.295,0.984,0.652,1.281c0.356,0.297,0.855,0.445,1.496,0.445
			c0.646,0,1.125-0.133,1.438-0.395c0.312-0.264,0.469-0.572,0.469-0.926c0-0.318-0.138-0.568-0.414-0.75
			c-0.193-0.125-0.672-0.285-1.438-0.477c-1.031-0.262-1.746-0.486-2.145-0.676c-0.398-0.191-0.701-0.453-0.906-0.789
			c-0.206-0.336-0.309-0.707-0.309-1.113c0-0.371,0.084-0.713,0.254-1.027c0.169-0.316,0.399-0.578,0.691-0.785
			c0.219-0.162,0.517-0.299,0.895-0.41c0.377-0.113,0.782-0.168,1.215-0.168c0.651,0,1.223,0.094,1.715,0.281
			s0.855,0.441,1.09,0.762s0.396,0.748,0.484,1.285l-1.375,0.188c-0.062-0.428-0.244-0.762-0.543-1
			c-0.3-0.24-0.723-0.359-1.27-0.359c-0.646,0-1.107,0.105-1.383,0.32c-0.276,0.213-0.414,0.463-0.414,0.75
			c0,0.182,0.057,0.346,0.172,0.492c0.114,0.15,0.294,0.275,0.539,0.375c0.141,0.051,0.555,0.172,1.242,0.359
			c0.995,0.266,1.688,0.482,2.082,0.652c0.393,0.168,0.702,0.414,0.926,0.738c0.224,0.322,0.336,0.723,0.336,1.203
			c0,0.469-0.137,0.91-0.41,1.324s-0.668,0.734-1.184,0.961s-1.099,0.34-1.75,0.34c-1.078,0-1.9-0.225-2.465-0.672
			C147.979,58.45,147.619,57.786,147.463,56.907z"/>
		<path fill="#3C3C3B" d="M160.471,59.383V47.93h1.406v4.11c0.656-0.762,1.484-1.141,2.484-1.141c0.614,0,1.148,0.121,1.602,0.363
			s0.777,0.576,0.973,1.004c0.195,0.426,0.293,1.047,0.293,1.859v5.258h-1.406v-5.258c0-0.703-0.152-1.215-0.457-1.535
			s-0.736-0.48-1.293-0.48c-0.417,0-0.809,0.107-1.176,0.324c-0.367,0.215-0.629,0.508-0.785,0.879
			c-0.156,0.369-0.234,0.879-0.234,1.531v4.539H160.471z"/>
		<path fill="#3C3C3B" d="M175.049,56.711l1.453,0.18c-0.229,0.848-0.654,1.508-1.273,1.977c-0.62,0.469-1.412,0.703-2.375,0.703
			c-1.214,0-2.176-0.375-2.887-1.121c-0.711-0.748-1.066-1.797-1.066-3.145c0-1.396,0.359-2.48,1.078-3.25
			c0.719-0.771,1.651-1.156,2.797-1.156c1.109,0,2.016,0.377,2.719,1.133c0.703,0.754,1.055,1.816,1.055,3.188
			c0,0.082-0.003,0.207-0.008,0.375h-6.188c0.052,0.91,0.31,1.609,0.773,2.094c0.463,0.484,1.042,0.727,1.734,0.727
			c0.516,0,0.956-0.137,1.32-0.406C174.546,57.737,174.835,57.305,175.049,56.711z M170.432,54.438h4.633
			c-0.062-0.699-0.24-1.223-0.531-1.57c-0.448-0.543-1.029-0.812-1.742-0.812c-0.646,0-1.189,0.215-1.629,0.648
			C170.722,53.135,170.479,53.713,170.432,54.438z"/>
		<path fill="#3C3C3B" d="M183.682,56.344l1.383,0.18c-0.151,0.953-0.538,1.699-1.16,2.238c-0.623,0.539-1.387,0.809-2.293,0.809
			c-1.136,0-2.048-0.371-2.738-1.113c-0.69-0.742-1.035-1.807-1.035-3.191c0-0.896,0.148-1.68,0.445-2.352s0.749-1.176,1.355-1.512
			c0.606-0.336,1.267-0.504,1.98-0.504c0.901,0,1.638,0.227,2.211,0.684c0.573,0.455,0.94,1.102,1.102,1.941l-1.367,0.211
			c-0.13-0.559-0.361-0.977-0.691-1.258c-0.331-0.281-0.73-0.422-1.199-0.422c-0.708,0-1.284,0.254-1.727,0.762
			c-0.443,0.508-0.664,1.311-0.664,2.41c0,1.113,0.213,1.924,0.641,2.43c0.427,0.504,0.984,0.758,1.672,0.758
			c0.552,0,1.013-0.17,1.383-0.508C183.348,57.567,183.583,57.047,183.682,56.344z"/>
		<path fill="#3C3C3B" d="M186.268,59.383V47.93h1.406v4.11c0.656-0.762,1.484-1.141,2.484-1.141c0.614,0,1.148,0.121,1.602,0.363
			s0.777,0.576,0.973,1.004c0.195,0.426,0.293,1.047,0.293,1.859v5.258h-1.406v-5.258c0-0.703-0.152-1.215-0.457-1.535
			s-0.736-0.48-1.293-0.48c-0.417,0-0.809,0.107-1.176,0.324c-0.367,0.215-0.629,0.508-0.785,0.879
			c-0.156,0.369-0.234,0.879-0.234,1.531v4.539H186.268z"/>
		<path fill="#3C3C3B" d="M194.643,55.235c0-1.537,0.427-2.676,1.281-3.414c0.713-0.615,1.583-0.922,2.609-0.922
			c1.141,0,2.073,0.373,2.797,1.121c0.724,0.746,1.086,1.779,1.086,3.098c0,1.066-0.16,1.906-0.48,2.52
			c-0.32,0.611-0.787,1.086-1.398,1.426c-0.612,0.338-1.28,0.508-2.004,0.508c-1.162,0-2.101-0.373-2.816-1.117
			C195,57.708,194.643,56.635,194.643,55.235z M196.088,55.235c0,1.062,0.231,1.857,0.695,2.387c0.463,0.527,1.047,0.793,1.75,0.793
			c0.698,0,1.278-0.266,1.742-0.797c0.463-0.531,0.695-1.342,0.695-2.43c0-1.027-0.233-1.805-0.699-2.332
			c-0.466-0.529-1.046-0.793-1.738-0.793c-0.703,0-1.287,0.262-1.75,0.789C196.319,53.377,196.088,54.172,196.088,55.235z"/>
		<path fill="#3C3C3B" d="M203.502,56.907l1.391-0.219c0.078,0.557,0.295,0.984,0.652,1.281c0.356,0.297,0.855,0.445,1.496,0.445
			c0.646,0,1.125-0.133,1.438-0.395c0.312-0.264,0.469-0.572,0.469-0.926c0-0.318-0.138-0.568-0.414-0.75
			c-0.193-0.125-0.672-0.285-1.438-0.477c-1.031-0.262-1.746-0.486-2.145-0.676c-0.398-0.191-0.701-0.453-0.906-0.789
			c-0.206-0.336-0.309-0.707-0.309-1.113c0-0.371,0.084-0.713,0.254-1.027c0.169-0.316,0.399-0.578,0.691-0.785
			c0.219-0.162,0.517-0.299,0.895-0.41c0.377-0.113,0.782-0.168,1.215-0.168c0.651,0,1.223,0.094,1.715,0.281
			s0.855,0.441,1.09,0.762s0.396,0.748,0.484,1.285l-1.375,0.188c-0.062-0.428-0.244-0.762-0.543-1
			c-0.3-0.24-0.723-0.359-1.27-0.359c-0.646,0-1.107,0.105-1.383,0.32c-0.276,0.213-0.414,0.463-0.414,0.75
			c0,0.182,0.057,0.346,0.172,0.492c0.114,0.15,0.294,0.275,0.539,0.375c0.141,0.051,0.555,0.172,1.242,0.359
			c0.995,0.266,1.688,0.482,2.082,0.652c0.393,0.168,0.702,0.414,0.926,0.738c0.224,0.322,0.336,0.723,0.336,1.203
			c0,0.469-0.137,0.91-0.41,1.324s-0.668,0.734-1.184,0.961s-1.099,0.34-1.75,0.34c-1.078,0-1.9-0.225-2.465-0.672
			C204.019,58.45,203.658,57.786,203.502,56.907z"/>
		<path fill="#3C3C3B" d="M218.814,59.383l-3.156-8.297h1.484l1.781,4.969c0.192,0.535,0.37,1.094,0.531,1.672
			c0.125-0.438,0.299-0.965,0.523-1.578l1.844-5.062h1.445l-3.141,8.297H218.814z"/>
		<path fill="#3C3C3B" d="M224.518,49.547V47.93h1.406v1.617H224.518z M224.518,59.383v-8.297h1.406v8.297H224.518z"/>
		<path fill="#3C3C3B" d="M227.541,55.235c0-1.537,0.427-2.676,1.282-3.414c0.713-0.615,1.582-0.922,2.609-0.922
			c1.141,0,2.072,0.373,2.797,1.121c0.723,0.746,1.086,1.779,1.086,3.098c0,1.066-0.16,1.906-0.48,2.52
			c-0.32,0.611-0.787,1.086-1.398,1.426c-0.613,0.338-1.281,0.508-2.004,0.508c-1.162,0-2.102-0.373-2.816-1.117
			C227.899,57.708,227.541,56.635,227.541,55.235z M228.987,55.235c0,1.062,0.23,1.857,0.695,2.387
			c0.463,0.527,1.047,0.793,1.75,0.793c0.697,0,1.277-0.266,1.742-0.797c0.463-0.531,0.695-1.342,0.695-2.43
			c0-1.027-0.234-1.805-0.699-2.332c-0.467-0.529-1.047-0.793-1.738-0.793c-0.703,0-1.287,0.262-1.75,0.789
			C229.217,53.377,228.987,54.172,228.987,55.235z"/>
		<path fill="#3C3C3B" d="M236.932,59.383V47.93h1.406v11.454H236.932z"/>
		<path fill="#3C3C3B" d="M246.198,56.711l1.453,0.18c-0.23,0.848-0.654,1.508-1.273,1.977c-0.621,0.469-1.412,0.703-2.375,0.703
			c-1.215,0-2.176-0.375-2.887-1.121c-0.711-0.748-1.066-1.797-1.066-3.145c0-1.396,0.359-2.48,1.078-3.25
			c0.719-0.771,1.65-1.156,2.797-1.156c1.109,0,2.016,0.377,2.719,1.133c0.703,0.754,1.055,1.816,1.055,3.188
			c0,0.082-0.004,0.207-0.008,0.375h-6.188c0.051,0.91,0.309,1.609,0.773,2.094c0.463,0.484,1.041,0.727,1.734,0.727
			c0.516,0,0.955-0.137,1.32-0.406C245.694,57.737,245.983,57.305,246.198,56.711z M241.581,54.438h4.633
			c-0.062-0.699-0.24-1.223-0.531-1.57c-0.449-0.543-1.029-0.812-1.742-0.812c-0.646,0-1.189,0.215-1.629,0.648
			C241.87,53.135,241.627,53.713,241.581,54.438z"/>
		<path fill="#3C3C3B" d="M249.417,59.383v-8.297h1.266v1.18c0.609-0.912,1.488-1.367,2.641-1.367c0.5,0,0.959,0.09,1.379,0.27
			c0.418,0.18,0.732,0.414,0.941,0.707c0.207,0.291,0.354,0.637,0.438,1.039c0.051,0.26,0.078,0.715,0.078,1.367v5.102h-1.406
			v-5.047c0-0.574-0.055-1.002-0.164-1.285c-0.109-0.285-0.305-0.512-0.582-0.68c-0.279-0.17-0.605-0.254-0.98-0.254
			c-0.6,0-1.117,0.189-1.551,0.57c-0.436,0.379-0.652,1.102-0.652,2.164v4.531H249.417z"/>
		<path fill="#3C3C3B" d="M261.385,58.125l0.203,1.242c-0.396,0.082-0.75,0.125-1.062,0.125c-0.512,0-0.906-0.082-1.188-0.242
			c-0.281-0.162-0.48-0.375-0.594-0.637c-0.115-0.264-0.172-0.816-0.172-1.66V52.18h-1.031v-1.094h1.031v-2.055l1.398-0.844v2.899
			h1.414v1.094h-1.414v4.852c0,0.4,0.023,0.658,0.074,0.773c0.049,0.113,0.129,0.205,0.242,0.273
			c0.111,0.066,0.271,0.102,0.48,0.102C260.924,58.18,261.129,58.161,261.385,58.125z"/>
		<path fill="#3C3C3B" d="M262.237,55.235c0-1.537,0.426-2.676,1.281-3.414c0.713-0.615,1.582-0.922,2.609-0.922
			c1.141,0,2.072,0.373,2.797,1.121c0.723,0.746,1.086,1.779,1.086,3.098c0,1.066-0.16,1.906-0.48,2.52
			c-0.32,0.611-0.787,1.086-1.398,1.426c-0.613,0.338-1.281,0.508-2.004,0.508c-1.162,0-2.102-0.373-2.816-1.117
			C262.594,57.708,262.237,56.635,262.237,55.235z M263.682,55.235c0,1.062,0.23,1.857,0.695,2.387
			c0.463,0.527,1.047,0.793,1.75,0.793c0.697,0,1.277-0.266,1.742-0.797c0.463-0.531,0.695-1.342,0.695-2.43
			c0-1.027-0.234-1.805-0.699-2.332c-0.467-0.529-1.047-0.793-1.738-0.793c-0.703,0-1.287,0.262-1.75,0.789
			C263.913,53.377,263.682,54.172,263.682,55.235z"/>
		<path fill="#3C3C3B" d="M271.096,56.907l1.391-0.219c0.078,0.557,0.295,0.984,0.652,1.281c0.355,0.297,0.855,0.445,1.496,0.445
			c0.645,0,1.125-0.133,1.438-0.395c0.312-0.264,0.469-0.572,0.469-0.926c0-0.318-0.139-0.568-0.414-0.75
			c-0.193-0.125-0.672-0.285-1.438-0.477c-1.031-0.262-1.746-0.486-2.145-0.676c-0.398-0.191-0.701-0.453-0.906-0.789
			c-0.207-0.336-0.309-0.707-0.309-1.113c0-0.371,0.084-0.713,0.254-1.027c0.168-0.316,0.398-0.578,0.691-0.785
			c0.219-0.162,0.516-0.299,0.895-0.41c0.377-0.113,0.781-0.168,1.215-0.168c0.65,0,1.223,0.094,1.715,0.281s0.855,0.441,1.09,0.762
			s0.395,0.748,0.484,1.285l-1.375,0.188c-0.062-0.428-0.244-0.762-0.543-1c-0.301-0.24-0.723-0.359-1.27-0.359
			c-0.646,0-1.107,0.105-1.383,0.32c-0.277,0.213-0.414,0.463-0.414,0.75c0,0.182,0.057,0.346,0.172,0.492
			c0.113,0.15,0.293,0.275,0.539,0.375c0.141,0.051,0.555,0.172,1.242,0.359c0.994,0.266,1.688,0.482,2.082,0.652
			c0.393,0.168,0.701,0.414,0.926,0.738c0.223,0.322,0.336,0.723,0.336,1.203c0,0.469-0.137,0.91-0.41,1.324
			s-0.668,0.734-1.184,0.961s-1.1,0.34-1.75,0.34c-1.078,0-1.9-0.225-2.465-0.672C271.612,58.45,271.252,57.786,271.096,56.907z"/>
		<path fill="#3C3C3B" d="M283.542,56.907l1.391-0.219c0.078,0.557,0.295,0.984,0.652,1.281c0.355,0.297,0.855,0.445,1.496,0.445
			c0.645,0,1.125-0.133,1.438-0.395c0.312-0.264,0.469-0.572,0.469-0.926c0-0.318-0.139-0.568-0.414-0.75
			c-0.193-0.125-0.672-0.285-1.438-0.477c-1.031-0.262-1.746-0.486-2.145-0.676c-0.398-0.191-0.701-0.453-0.906-0.789
			c-0.207-0.336-0.309-0.707-0.309-1.113c0-0.371,0.084-0.713,0.254-1.027c0.168-0.316,0.398-0.578,0.691-0.785
			c0.219-0.162,0.516-0.299,0.895-0.41c0.377-0.113,0.781-0.168,1.215-0.168c0.65,0,1.223,0.094,1.715,0.281s0.855,0.441,1.09,0.762
			s0.395,0.748,0.484,1.285l-1.375,0.188c-0.062-0.428-0.244-0.762-0.543-1c-0.301-0.24-0.723-0.359-1.27-0.359
			c-0.646,0-1.107,0.105-1.383,0.32c-0.277,0.213-0.414,0.463-0.414,0.75c0,0.182,0.057,0.346,0.172,0.492
			c0.113,0.15,0.293,0.275,0.539,0.375c0.141,0.051,0.555,0.172,1.242,0.359c0.994,0.266,1.688,0.482,2.082,0.652
			c0.393,0.168,0.701,0.414,0.926,0.738c0.223,0.322,0.336,0.723,0.336,1.203c0,0.469-0.137,0.91-0.41,1.324
			s-0.668,0.734-1.184,0.961s-1.1,0.34-1.75,0.34c-1.078,0-1.9-0.225-2.465-0.672C284.057,58.45,283.698,57.786,283.542,56.907z"/>
		<path fill="#3C3C3B" d="M291.581,55.235c0-1.537,0.426-2.676,1.281-3.414c0.713-0.615,1.582-0.922,2.609-0.922
			c1.141,0,2.072,0.373,2.797,1.121c0.723,0.746,1.086,1.779,1.086,3.098c0,1.066-0.16,1.906-0.48,2.52
			c-0.32,0.611-0.787,1.086-1.398,1.426c-0.613,0.338-1.281,0.508-2.004,0.508c-1.162,0-2.102-0.373-2.816-1.117
			C291.938,57.708,291.581,56.635,291.581,55.235z M293.026,55.235c0,1.062,0.23,1.857,0.695,2.387
			c0.463,0.527,1.047,0.793,1.75,0.793c0.697,0,1.277-0.266,1.742-0.797c0.463-0.531,0.695-1.342,0.695-2.43
			c0-1.027-0.234-1.805-0.699-2.332c-0.467-0.529-1.047-0.793-1.738-0.793c-0.703,0-1.287,0.262-1.75,0.789
			C293.256,53.377,293.026,54.172,293.026,55.235z"/>
		<path fill="#3C3C3B" d="M302.299,59.383h-1.305V47.93h1.406v4.086c0.594-0.746,1.352-1.117,2.273-1.117
			c0.51,0,0.992,0.102,1.449,0.309c0.455,0.205,0.83,0.494,1.125,0.867c0.293,0.371,0.523,0.82,0.691,1.348
			c0.166,0.525,0.25,1.088,0.25,1.688c0,1.422-0.352,2.52-1.055,3.297c-0.703,0.775-1.547,1.164-2.531,1.164
			c-0.98,0-1.748-0.41-2.305-1.227V59.383z M302.284,55.172c0,0.994,0.135,1.713,0.406,2.156c0.441,0.723,1.041,1.086,1.797,1.086
			c0.613,0,1.145-0.268,1.594-0.801c0.447-0.535,0.672-1.33,0.672-2.387c0-1.084-0.215-1.883-0.645-2.398s-0.949-0.773-1.559-0.773
			c-0.615,0-1.146,0.266-1.594,0.801C302.506,53.389,302.284,54.161,302.284,55.172z"/>
		<path fill="#3C3C3B" d="M309.885,59.383v-8.297h1.266v1.258c0.322-0.59,0.621-0.977,0.895-1.164s0.574-0.281,0.902-0.281
			c0.473,0,0.955,0.15,1.445,0.453l-0.484,1.305c-0.344-0.203-0.688-0.305-1.031-0.305c-0.309,0-0.584,0.092-0.828,0.277
			c-0.246,0.184-0.42,0.441-0.523,0.77c-0.156,0.5-0.234,1.047-0.234,1.641v4.344H309.885z"/>
		<path fill="#3C3C3B" d="M320.909,56.711l1.453,0.18c-0.23,0.848-0.654,1.508-1.273,1.977c-0.621,0.469-1.412,0.703-2.375,0.703
			c-1.215,0-2.176-0.375-2.887-1.121c-0.711-0.748-1.066-1.797-1.066-3.145c0-1.396,0.359-2.48,1.078-3.25
			c0.719-0.771,1.65-1.156,2.797-1.156c1.109,0,2.016,0.377,2.719,1.133c0.703,0.754,1.055,1.816,1.055,3.188
			c0,0.082-0.004,0.207-0.008,0.375h-6.188c0.051,0.91,0.309,1.609,0.773,2.094c0.463,0.484,1.041,0.727,1.734,0.727
			c0.516,0,0.955-0.137,1.32-0.406C320.405,57.737,320.694,57.305,320.909,56.711z M316.292,54.438h4.633
			c-0.062-0.699-0.24-1.223-0.531-1.57c-0.449-0.543-1.029-0.812-1.742-0.812c-0.646,0-1.189,0.215-1.629,0.648
			C316.581,53.135,316.338,53.713,316.292,54.438z"/>
		<path fill="#3C3C3B" d="M328.542,59.383V47.93h1.406v11.454H328.542z"/>
		<path fill="#3C3C3B" d="M337.542,58.36c-0.521,0.441-1.023,0.754-1.504,0.938c-0.482,0.182-1,0.273-1.551,0.273
			c-0.912,0-1.613-0.223-2.102-0.668c-0.49-0.445-0.734-1.016-0.734-1.707c0-0.406,0.092-0.777,0.277-1.113
			c0.184-0.336,0.426-0.605,0.727-0.809c0.299-0.203,0.637-0.357,1.012-0.461c0.275-0.074,0.691-0.145,1.25-0.211
			c1.135-0.137,1.971-0.297,2.508-0.484c0.004-0.193,0.008-0.316,0.008-0.367c0-0.574-0.133-0.977-0.398-1.211
			c-0.359-0.318-0.895-0.477-1.602-0.477c-0.662,0-1.15,0.115-1.465,0.348c-0.316,0.23-0.549,0.641-0.699,1.23l-1.375-0.188
			c0.125-0.59,0.33-1.064,0.617-1.426c0.285-0.363,0.699-0.641,1.242-0.836c0.541-0.195,1.168-0.293,1.883-0.293
			c0.707,0,1.283,0.082,1.727,0.25c0.441,0.166,0.768,0.375,0.977,0.629c0.207,0.252,0.354,0.57,0.438,0.957
			c0.047,0.238,0.07,0.672,0.07,1.297v1.875c0,1.307,0.029,2.133,0.09,2.48c0.059,0.346,0.178,0.678,0.355,0.996h-1.469
			C337.676,59.09,337.583,58.75,337.542,58.36z M337.424,55.219c-0.512,0.207-1.277,0.385-2.297,0.531
			c-0.578,0.082-0.988,0.176-1.227,0.281c-0.24,0.104-0.426,0.256-0.555,0.457c-0.131,0.199-0.195,0.422-0.195,0.668
			c0,0.375,0.141,0.688,0.426,0.938c0.283,0.25,0.699,0.375,1.246,0.375c0.541,0,1.023-0.119,1.445-0.355
			c0.422-0.238,0.73-0.562,0.93-0.973c0.15-0.318,0.227-0.787,0.227-1.406V55.219z"/>
		<path fill="#3C3C3B" d="M345.456,59.383v-8.297h1.266v1.258c0.322-0.59,0.621-0.977,0.895-1.164s0.574-0.281,0.902-0.281
			c0.473,0,0.955,0.15,1.445,0.453l-0.484,1.305c-0.344-0.203-0.688-0.305-1.031-0.305c-0.309,0-0.584,0.092-0.828,0.277
			c-0.246,0.184-0.42,0.441-0.523,0.77c-0.156,0.5-0.234,1.047-0.234,1.641v4.344H345.456z"/>
		<path fill="#3C3C3B" d="M356.479,56.711l1.453,0.18c-0.23,0.848-0.654,1.508-1.273,1.977c-0.621,0.469-1.412,0.703-2.375,0.703
			c-1.215,0-2.176-0.375-2.887-1.121c-0.711-0.748-1.066-1.797-1.066-3.145c0-1.396,0.359-2.48,1.078-3.25
			c0.719-0.771,1.65-1.156,2.797-1.156c1.109,0,2.016,0.377,2.719,1.133c0.703,0.754,1.055,1.816,1.055,3.188
			c0,0.082-0.004,0.207-0.008,0.375h-6.188c0.051,0.91,0.309,1.609,0.773,2.094c0.463,0.484,1.041,0.727,1.734,0.727
			c0.516,0,0.955-0.137,1.32-0.406C355.975,57.737,356.264,57.305,356.479,56.711z M351.862,54.438h4.633
			c-0.062-0.699-0.24-1.223-0.531-1.57c-0.449-0.543-1.029-0.812-1.742-0.812c-0.646,0-1.189,0.215-1.629,0.648
			C352.151,53.135,351.909,53.713,351.862,54.438z"/>
		<path fill="#3C3C3B" d="M365.112,58.36c-0.521,0.441-1.023,0.754-1.504,0.938c-0.482,0.182-1,0.273-1.551,0.273
			c-0.912,0-1.613-0.223-2.102-0.668c-0.49-0.445-0.734-1.016-0.734-1.707c0-0.406,0.092-0.777,0.277-1.113
			c0.184-0.336,0.426-0.605,0.727-0.809c0.299-0.203,0.637-0.357,1.012-0.461c0.275-0.074,0.691-0.145,1.25-0.211
			c1.135-0.137,1.971-0.297,2.508-0.484c0.004-0.193,0.008-0.316,0.008-0.367c0-0.574-0.133-0.977-0.398-1.211
			c-0.359-0.318-0.895-0.477-1.602-0.477c-0.662,0-1.15,0.115-1.465,0.348c-0.316,0.23-0.549,0.641-0.699,1.23l-1.375-0.188
			c0.125-0.59,0.33-1.064,0.617-1.426c0.285-0.363,0.699-0.641,1.242-0.836c0.541-0.195,1.168-0.293,1.883-0.293
			c0.707,0,1.283,0.082,1.727,0.25c0.441,0.166,0.768,0.375,0.977,0.629c0.207,0.252,0.354,0.57,0.438,0.957
			c0.047,0.238,0.07,0.672,0.07,1.297v1.875c0,1.307,0.029,2.133,0.09,2.48c0.059,0.346,0.178,0.678,0.355,0.996h-1.469
			C365.247,59.09,365.153,58.75,365.112,58.36z M364.995,55.219c-0.512,0.207-1.277,0.385-2.297,0.531
			c-0.578,0.082-0.988,0.176-1.227,0.281c-0.24,0.104-0.426,0.256-0.555,0.457c-0.131,0.199-0.195,0.422-0.195,0.668
			c0,0.375,0.141,0.688,0.426,0.938c0.283,0.25,0.699,0.375,1.246,0.375c0.541,0,1.023-0.119,1.445-0.355
			c0.422-0.238,0.73-0.562,0.93-0.973c0.15-0.318,0.227-0.787,0.227-1.406V55.219z"/>
		<path fill="#3C3C3B" d="M368.565,59.383V47.93h1.406v11.454H368.565z"/>
		<path fill="#3C3C3B" d="M372.159,49.547V47.93h1.406v1.617H372.159z M372.159,59.383v-8.297h1.406v8.297H372.159z"/>
		<path fill="#3C3C3B" d="M374.963,59.383v-1.141l5.281-6.062c-0.6,0.031-1.129,0.047-1.586,0.047h-3.383v-1.141h6.781v0.93
			l-4.492,5.266l-0.867,0.961c0.629-0.047,1.221-0.07,1.773-0.07h3.836v1.211H374.963z"/>
		<path fill="#3C3C3B" d="M389.12,58.36c-0.521,0.441-1.023,0.754-1.504,0.938c-0.482,0.182-1,0.273-1.551,0.273
			c-0.912,0-1.613-0.223-2.102-0.668c-0.49-0.445-0.734-1.016-0.734-1.707c0-0.406,0.092-0.777,0.277-1.113
			c0.184-0.336,0.426-0.605,0.727-0.809c0.299-0.203,0.637-0.357,1.012-0.461c0.275-0.074,0.691-0.145,1.25-0.211
			c1.135-0.137,1.971-0.297,2.508-0.484c0.004-0.193,0.008-0.316,0.008-0.367c0-0.574-0.133-0.977-0.398-1.211
			c-0.359-0.318-0.895-0.477-1.602-0.477c-0.662,0-1.15,0.115-1.465,0.348c-0.316,0.23-0.549,0.641-0.699,1.23l-1.375-0.188
			c0.125-0.59,0.33-1.064,0.617-1.426c0.285-0.363,0.699-0.641,1.242-0.836c0.541-0.195,1.168-0.293,1.883-0.293
			c0.707,0,1.283,0.082,1.727,0.25c0.441,0.166,0.768,0.375,0.977,0.629c0.207,0.252,0.354,0.57,0.438,0.957
			c0.047,0.238,0.07,0.672,0.07,1.297v1.875c0,1.307,0.029,2.133,0.09,2.48c0.059,0.346,0.178,0.678,0.355,0.996h-1.469
			C389.254,59.09,389.161,58.75,389.12,58.36z M389.002,55.219c-0.512,0.207-1.277,0.385-2.297,0.531
			c-0.578,0.082-0.988,0.176-1.227,0.281c-0.24,0.104-0.426,0.256-0.555,0.457c-0.131,0.199-0.195,0.422-0.195,0.668
			c0,0.375,0.141,0.688,0.426,0.938c0.283,0.25,0.699,0.375,1.246,0.375c0.541,0,1.023-0.119,1.445-0.355
			c0.422-0.238,0.73-0.562,0.93-0.973c0.15-0.318,0.227-0.787,0.227-1.406V55.219z"/>
		<path fill="#3C3C3B" d="M398.018,56.344l1.383,0.18c-0.152,0.953-0.539,1.699-1.16,2.238c-0.623,0.539-1.387,0.809-2.293,0.809
			c-1.137,0-2.049-0.371-2.738-1.113c-0.691-0.742-1.035-1.807-1.035-3.191c0-0.896,0.148-1.68,0.445-2.352s0.748-1.176,1.355-1.512
			c0.605-0.336,1.266-0.504,1.98-0.504c0.9,0,1.637,0.227,2.211,0.684c0.572,0.455,0.939,1.102,1.102,1.941l-1.367,0.211
			c-0.131-0.559-0.361-0.977-0.691-1.258c-0.332-0.281-0.73-0.422-1.199-0.422c-0.709,0-1.285,0.254-1.727,0.762
			c-0.443,0.508-0.664,1.311-0.664,2.41c0,1.113,0.213,1.924,0.641,2.43c0.426,0.504,0.984,0.758,1.672,0.758
			c0.551,0,1.012-0.17,1.383-0.508C397.684,57.567,397.918,57.047,398.018,56.344z"/>
		<path fill="#3C3C3B" d="M400.612,49.547V47.93h1.406v1.617H400.612z M400.612,59.383v-8.297h1.406v8.297H400.612z"/>
		<path fill="#3C3C3B" d="M403.635,55.235c0-1.537,0.426-2.676,1.281-3.414c0.713-0.615,1.582-0.922,2.609-0.922
			c1.141,0,2.072,0.373,2.797,1.121c0.723,0.746,1.086,1.779,1.086,3.098c0,1.066-0.16,1.906-0.48,2.52
			c-0.32,0.611-0.787,1.086-1.398,1.426c-0.613,0.338-1.281,0.508-2.004,0.508c-1.162,0-2.102-0.373-2.816-1.117
			C403.993,57.708,403.635,56.635,403.635,55.235z M405.081,55.235c0,1.062,0.23,1.857,0.695,2.387
			c0.463,0.527,1.047,0.793,1.75,0.793c0.697,0,1.277-0.266,1.742-0.797c0.463-0.531,0.695-1.342,0.695-2.43
			c0-1.027-0.234-1.805-0.699-2.332c-0.467-0.529-1.047-0.793-1.738-0.793c-0.703,0-1.287,0.262-1.75,0.789
			C405.311,53.377,405.081,54.172,405.081,55.235z M406.745,50.055l1.039-2.188h1.844l-1.719,2.188H406.745z"/>
		<path fill="#3C3C3B" d="M413.057,59.383v-8.297h1.266v1.18c0.609-0.912,1.488-1.367,2.641-1.367c0.5,0,0.959,0.09,1.379,0.27
			c0.418,0.18,0.732,0.414,0.941,0.707c0.207,0.291,0.354,0.637,0.438,1.039c0.051,0.26,0.078,0.715,0.078,1.367v5.102h-1.406
			v-5.047c0-0.574-0.055-1.002-0.164-1.285c-0.109-0.285-0.305-0.512-0.582-0.68c-0.279-0.17-0.605-0.254-0.98-0.254
			c-0.6,0-1.117,0.189-1.551,0.57c-0.436,0.379-0.652,1.102-0.652,2.164v4.531H413.057z"/>
		<path fill="#3C3C3B" d="M122.67,68.747v-1.617h1.406v1.617H122.67z M122.67,78.583v-8.297h1.406v8.297H122.67z"/>
		<path fill="#3C3C3B" d="M126.217,78.583v-8.297h1.266v1.18c0.609-0.91,1.489-1.367,2.641-1.367c0.5,0,0.959,0.09,1.379,0.27
			c0.419,0.18,0.733,0.416,0.941,0.707c0.208,0.293,0.354,0.639,0.438,1.039c0.052,0.262,0.078,0.717,0.078,1.367v5.102h-1.406
			v-5.047c0-0.572-0.055-1-0.164-1.285c-0.109-0.283-0.304-0.51-0.582-0.68c-0.279-0.168-0.605-0.254-0.98-0.254
			c-0.599,0-1.116,0.191-1.551,0.57c-0.435,0.381-0.652,1.102-0.652,2.164v4.531H126.217z"/>
		<path fill="#3C3C3B" d="M138.186,77.325l0.203,1.242c-0.396,0.084-0.75,0.125-1.062,0.125c-0.511,0-0.906-0.08-1.188-0.242
			c-0.281-0.16-0.479-0.373-0.594-0.637c-0.115-0.262-0.172-0.816-0.172-1.66v-4.773h-1.031v-1.094h1.031v-2.055l1.398-0.844v2.898
			h1.414v1.094h-1.414v4.852c0,0.402,0.024,0.66,0.074,0.773c0.049,0.115,0.13,0.207,0.242,0.273
			c0.112,0.068,0.272,0.102,0.48,0.102C137.725,77.379,137.93,77.362,138.186,77.325z"/>
		<path fill="#3C3C3B" d="M145.24,75.911l1.453,0.18c-0.229,0.85-0.654,1.508-1.273,1.977c-0.62,0.469-1.412,0.703-2.375,0.703
			c-1.214,0-2.176-0.373-2.887-1.121c-0.711-0.746-1.066-1.795-1.066-3.145c0-1.395,0.359-2.479,1.078-3.25
			c0.719-0.77,1.651-1.156,2.797-1.156c1.109,0,2.016,0.379,2.719,1.133c0.703,0.756,1.055,1.818,1.055,3.188
			c0,0.084-0.003,0.209-0.008,0.375h-6.188c0.052,0.912,0.31,1.609,0.773,2.094c0.463,0.484,1.042,0.727,1.734,0.727
			c0.516,0,0.956-0.135,1.32-0.406C144.737,76.938,145.026,76.504,145.24,75.911z M140.623,73.637h4.633
			c-0.062-0.697-0.24-1.221-0.531-1.57c-0.448-0.541-1.029-0.812-1.742-0.812c-0.646,0-1.189,0.217-1.629,0.648
			C140.913,72.336,140.67,72.915,140.623,73.637z"/>
		<path fill="#3C3C3B" d="M148.201,79.27l1.367,0.203c0.057,0.422,0.216,0.73,0.477,0.922c0.349,0.262,0.825,0.391,1.43,0.391
			c0.651,0,1.153-0.129,1.508-0.391c0.354-0.26,0.594-0.625,0.719-1.094c0.073-0.285,0.106-0.887,0.102-1.805
			c-0.615,0.725-1.38,1.086-2.297,1.086c-1.141,0-2.023-0.41-2.648-1.234c-0.625-0.822-0.938-1.809-0.938-2.961
			c0-0.791,0.143-1.521,0.43-2.191c0.286-0.668,0.702-1.186,1.246-1.551c0.544-0.363,1.184-0.547,1.918-0.547
			c0.979,0,1.786,0.396,2.422,1.188v-1h1.297v7.172c0,1.293-0.132,2.207-0.395,2.746c-0.263,0.539-0.68,0.965-1.25,1.277
			s-1.272,0.469-2.105,0.469c-0.99,0-1.789-0.223-2.398-0.668S148.18,80.167,148.201,79.27z M149.365,74.286
			c0,1.09,0.216,1.883,0.648,2.383c0.432,0.5,0.974,0.75,1.625,0.75c0.646,0,1.188-0.248,1.625-0.746
			c0.438-0.496,0.656-1.277,0.656-2.34c0-1.016-0.226-1.781-0.676-2.297c-0.451-0.516-0.994-0.773-1.629-0.773
			c-0.625,0-1.156,0.254-1.594,0.762S149.365,73.286,149.365,74.286z"/>
		<path fill="#3C3C3B" d="M157.342,78.583v-8.297h1.266v1.258c0.323-0.588,0.621-0.977,0.895-1.164s0.574-0.281,0.902-0.281
			c0.474,0,0.956,0.152,1.445,0.453l-0.484,1.305c-0.344-0.203-0.688-0.305-1.031-0.305c-0.308,0-0.583,0.094-0.828,0.277
			c-0.245,0.186-0.419,0.441-0.523,0.77c-0.156,0.5-0.234,1.047-0.234,1.641v4.344H157.342z"/>
		<path fill="#3C3C3B" d="M168.1,77.559c-0.521,0.443-1.022,0.756-1.504,0.938c-0.482,0.184-0.999,0.273-1.551,0.273
			c-0.912,0-1.612-0.223-2.102-0.668c-0.49-0.445-0.734-1.014-0.734-1.707c0-0.406,0.092-0.777,0.277-1.113
			c0.185-0.336,0.427-0.605,0.727-0.809c0.299-0.203,0.637-0.355,1.012-0.461c0.276-0.072,0.692-0.143,1.25-0.211
			c1.135-0.135,1.971-0.297,2.508-0.484c0.005-0.191,0.008-0.314,0.008-0.367c0-0.572-0.133-0.977-0.398-1.211
			c-0.359-0.316-0.894-0.477-1.602-0.477c-0.662,0-1.15,0.117-1.465,0.348c-0.315,0.232-0.548,0.643-0.699,1.23l-1.375-0.188
			c0.125-0.588,0.331-1.062,0.617-1.426c0.286-0.361,0.7-0.641,1.242-0.836c0.542-0.195,1.169-0.293,1.883-0.293
			c0.708,0,1.284,0.084,1.727,0.25c0.442,0.168,0.768,0.377,0.977,0.629c0.208,0.254,0.354,0.572,0.438,0.957
			c0.047,0.24,0.07,0.672,0.07,1.297v1.875c0,1.309,0.03,2.135,0.09,2.48c0.06,0.348,0.178,0.68,0.355,0.996h-1.469
			C168.235,78.292,168.141,77.95,168.1,77.559z M167.982,74.418c-0.511,0.209-1.276,0.387-2.297,0.531
			c-0.578,0.084-0.987,0.178-1.227,0.281c-0.24,0.105-0.425,0.258-0.555,0.457c-0.13,0.201-0.195,0.424-0.195,0.668
			c0,0.375,0.142,0.688,0.426,0.938c0.284,0.25,0.699,0.375,1.246,0.375c0.542,0,1.023-0.117,1.445-0.355
			c0.422-0.236,0.731-0.561,0.93-0.973c0.151-0.316,0.227-0.785,0.227-1.406V74.418z"/>
		<path fill="#3C3C3B" d="M171.553,78.583V67.129h1.406v11.453H171.553z"/>
		<path fill="#3C3C3B" d="M184.967,78.583v-1.047c-0.526,0.824-1.3,1.234-2.32,1.234c-0.662,0-1.27-0.182-1.824-0.547
			c-0.555-0.363-0.984-0.873-1.289-1.527c-0.305-0.652-0.457-1.404-0.457-2.254c0-0.828,0.138-1.578,0.414-2.254
			c0.276-0.674,0.69-1.191,1.242-1.551c0.552-0.359,1.169-0.539,1.852-0.539c0.5,0,0.945,0.105,1.336,0.316s0.708,0.486,0.953,0.824
			v-4.109h1.398v11.453H184.967z M180.521,74.442c0,1.062,0.224,1.857,0.672,2.383c0.448,0.527,0.977,0.789,1.586,0.789
			c0.614,0,1.137-0.25,1.566-0.754c0.43-0.502,0.645-1.27,0.645-2.301c0-1.135-0.219-1.969-0.656-2.5s-0.977-0.797-1.617-0.797
			c-0.625,0-1.147,0.256-1.566,0.766C180.731,72.54,180.521,73.344,180.521,74.442z"/>
		<path fill="#3C3C3B" d="M194.162,75.911l1.453,0.18c-0.229,0.85-0.654,1.508-1.273,1.977c-0.62,0.469-1.412,0.703-2.375,0.703
			c-1.214,0-2.176-0.373-2.887-1.121c-0.711-0.746-1.066-1.795-1.066-3.145c0-1.395,0.359-2.479,1.078-3.25
			c0.719-0.77,1.651-1.156,2.797-1.156c1.109,0,2.016,0.379,2.719,1.133c0.703,0.756,1.055,1.818,1.055,3.188
			c0,0.084-0.003,0.209-0.008,0.375h-6.188c0.052,0.912,0.31,1.609,0.773,2.094c0.463,0.484,1.042,0.727,1.734,0.727
			c0.516,0,0.956-0.135,1.32-0.406C193.659,76.938,193.948,76.504,194.162,75.911z M189.545,73.637h4.633
			c-0.062-0.697-0.24-1.221-0.531-1.57c-0.448-0.541-1.029-0.812-1.742-0.812c-0.646,0-1.189,0.217-1.629,0.648
			C189.835,72.336,189.592,72.915,189.545,73.637z"/>
		<path fill="#3C3C3B" d="M201.795,78.583V67.129h1.406v11.453H201.795z"/>
		<path fill="#3C3C3B" d="M210.795,77.559c-0.521,0.443-1.022,0.756-1.504,0.938c-0.482,0.184-0.999,0.273-1.551,0.273
			c-0.912,0-1.612-0.223-2.102-0.668c-0.49-0.445-0.734-1.014-0.734-1.707c0-0.406,0.092-0.777,0.277-1.113
			c0.185-0.336,0.427-0.605,0.727-0.809c0.299-0.203,0.637-0.355,1.012-0.461c0.276-0.072,0.692-0.143,1.25-0.211
			c1.135-0.135,1.971-0.297,2.508-0.484c0.005-0.191,0.008-0.314,0.008-0.367c0-0.572-0.133-0.977-0.398-1.211
			c-0.359-0.316-0.894-0.477-1.602-0.477c-0.662,0-1.15,0.117-1.465,0.348c-0.315,0.232-0.548,0.643-0.699,1.23l-1.375-0.188
			c0.125-0.588,0.331-1.062,0.617-1.426c0.286-0.361,0.7-0.641,1.242-0.836c0.542-0.195,1.169-0.293,1.883-0.293
			c0.708,0,1.284,0.084,1.727,0.25c0.442,0.168,0.768,0.377,0.977,0.629c0.208,0.254,0.354,0.572,0.438,0.957
			c0.047,0.24,0.07,0.672,0.07,1.297v1.875c0,1.309,0.03,2.135,0.09,2.48c0.06,0.348,0.178,0.68,0.355,0.996h-1.469
			C210.93,78.292,210.836,77.95,210.795,77.559z M210.678,74.418c-0.511,0.209-1.276,0.387-2.297,0.531
			c-0.578,0.084-0.987,0.178-1.227,0.281c-0.24,0.105-0.425,0.258-0.555,0.457c-0.13,0.201-0.195,0.424-0.195,0.668
			c0,0.375,0.142,0.688,0.426,0.938c0.284,0.25,0.699,0.375,1.246,0.375c0.542,0,1.023-0.117,1.445-0.355
			c0.422-0.236,0.731-0.561,0.93-0.973c0.151-0.316,0.227-0.785,0.227-1.406V74.418z"/>
		<path fill="#3C3C3B" d="M218.725,81.762V70.286h1.281v1.078c0.302-0.422,0.643-0.738,1.023-0.949
			c0.38-0.211,0.841-0.316,1.383-0.316c0.708,0,1.333,0.184,1.875,0.547c0.542,0.365,0.95,0.879,1.227,1.543
			c0.276,0.664,0.414,1.393,0.414,2.184c0,0.85-0.152,1.613-0.457,2.293s-0.748,1.201-1.328,1.562
			c-0.581,0.363-1.191,0.543-1.832,0.543c-0.469,0-0.89-0.098-1.262-0.297c-0.373-0.197-0.679-0.447-0.918-0.75v4.039H218.725z
			 M219.998,74.481c0,1.068,0.216,1.857,0.648,2.367c0.432,0.512,0.956,0.766,1.57,0.766c0.625,0,1.16-0.264,1.605-0.793
			c0.445-0.527,0.668-1.348,0.668-2.457c0-1.057-0.218-1.848-0.652-2.375c-0.435-0.525-0.955-0.789-1.559-0.789
			c-0.599,0-1.129,0.281-1.59,0.84C220.229,72.6,219.998,73.415,219.998,74.481z"/>
		<path fill="#3C3C3B" d="M233.303,75.911l1.453,0.18c-0.23,0.85-0.654,1.508-1.273,1.977c-0.621,0.469-1.412,0.703-2.375,0.703
			c-1.215,0-2.176-0.373-2.887-1.121c-0.711-0.746-1.067-1.795-1.067-3.145c0-1.395,0.359-2.479,1.079-3.25
			c0.719-0.77,1.65-1.156,2.797-1.156c1.109,0,2.016,0.379,2.719,1.133c0.703,0.756,1.055,1.818,1.055,3.188
			c0,0.084-0.004,0.209-0.008,0.375h-6.188c0.051,0.912,0.309,1.609,0.773,2.094c0.463,0.484,1.041,0.727,1.734,0.727
			c0.516,0,0.955-0.135,1.32-0.406C232.799,76.938,233.088,76.504,233.303,75.911z M228.686,73.637h4.633
			c-0.062-0.697-0.24-1.221-0.531-1.57c-0.449-0.541-1.029-0.812-1.742-0.812c-0.646,0-1.189,0.217-1.629,0.648
			C228.975,72.336,228.733,72.915,228.686,73.637z"/>
		<path fill="#3C3C3B" d="M236.506,78.583v-8.297h1.266v1.258c0.322-0.588,0.621-0.977,0.895-1.164s0.574-0.281,0.902-0.281
			c0.473,0,0.955,0.152,1.445,0.453l-0.484,1.305c-0.344-0.203-0.688-0.305-1.031-0.305c-0.309,0-0.584,0.094-0.828,0.277
			c-0.246,0.186-0.42,0.441-0.523,0.77c-0.156,0.5-0.234,1.047-0.234,1.641v4.344H236.506z"/>
		<path fill="#3C3C3B" d="M241.288,76.106l1.391-0.219c0.078,0.559,0.295,0.984,0.652,1.281c0.355,0.297,0.855,0.445,1.496,0.445
			c0.645,0,1.125-0.131,1.438-0.395c0.312-0.262,0.469-0.57,0.469-0.926c0-0.316-0.139-0.566-0.414-0.75
			c-0.193-0.125-0.672-0.283-1.438-0.477c-1.031-0.26-1.746-0.484-2.145-0.676c-0.398-0.189-0.701-0.453-0.906-0.789
			c-0.207-0.336-0.309-0.707-0.309-1.113c0-0.369,0.084-0.711,0.254-1.027c0.168-0.314,0.398-0.576,0.691-0.785
			c0.219-0.16,0.516-0.297,0.895-0.41c0.377-0.111,0.781-0.168,1.215-0.168c0.65,0,1.223,0.094,1.715,0.281s0.855,0.441,1.09,0.762
			s0.395,0.75,0.484,1.285l-1.375,0.188c-0.062-0.426-0.244-0.76-0.543-1c-0.301-0.238-0.723-0.359-1.27-0.359
			c-0.646,0-1.107,0.107-1.383,0.32c-0.277,0.215-0.414,0.465-0.414,0.75c0,0.184,0.057,0.348,0.172,0.492
			c0.113,0.152,0.293,0.277,0.539,0.375c0.141,0.053,0.555,0.172,1.242,0.359c0.994,0.266,1.688,0.484,2.082,0.652
			c0.393,0.17,0.701,0.416,0.926,0.738c0.223,0.324,0.336,0.725,0.336,1.203c0,0.469-0.137,0.91-0.41,1.324
			s-0.668,0.734-1.184,0.961s-1.1,0.34-1.75,0.34c-1.078,0-1.9-0.223-2.465-0.672C241.803,77.651,241.444,76.987,241.288,76.106z"/>
		<path fill="#3C3C3B" d="M249.327,74.434c0-1.535,0.426-2.674,1.281-3.414c0.713-0.613,1.582-0.922,2.609-0.922
			c1.141,0,2.072,0.375,2.797,1.121c0.723,0.748,1.086,1.781,1.086,3.098c0,1.068-0.16,1.908-0.48,2.52
			c-0.32,0.613-0.787,1.088-1.398,1.426c-0.613,0.34-1.281,0.508-2.004,0.508c-1.162,0-2.102-0.371-2.816-1.117
			C249.684,76.909,249.327,75.836,249.327,74.434z M250.772,74.434c0,1.062,0.23,1.859,0.695,2.387
			c0.463,0.529,1.047,0.793,1.75,0.793c0.697,0,1.277-0.266,1.742-0.797c0.463-0.531,0.695-1.34,0.695-2.43
			c0-1.025-0.234-1.803-0.699-2.332c-0.467-0.527-1.047-0.793-1.738-0.793c-0.703,0-1.287,0.264-1.75,0.789
			C251.002,72.579,250.772,73.372,250.772,74.434z"/>
		<path fill="#3C3C3B" d="M258.749,78.583v-8.297h1.266v1.18c0.609-0.91,1.488-1.367,2.641-1.367c0.5,0,0.959,0.09,1.379,0.27
			c0.418,0.18,0.732,0.416,0.941,0.707c0.207,0.293,0.354,0.639,0.438,1.039c0.051,0.262,0.078,0.717,0.078,1.367v5.102h-1.406
			v-5.047c0-0.572-0.055-1-0.164-1.285c-0.109-0.283-0.305-0.51-0.582-0.68c-0.279-0.168-0.605-0.254-0.98-0.254
			c-0.6,0-1.117,0.191-1.551,0.57c-0.436,0.381-0.652,1.102-0.652,2.164v4.531H258.749z"/>
		<path fill="#3C3C3B" d="M273.061,77.559c-0.521,0.443-1.023,0.756-1.504,0.938c-0.482,0.184-1,0.273-1.551,0.273
			c-0.912,0-1.613-0.223-2.102-0.668c-0.49-0.445-0.734-1.014-0.734-1.707c0-0.406,0.092-0.777,0.277-1.113
			c0.184-0.336,0.426-0.605,0.727-0.809c0.299-0.203,0.637-0.355,1.012-0.461c0.275-0.072,0.691-0.143,1.25-0.211
			c1.135-0.135,1.971-0.297,2.508-0.484c0.004-0.191,0.008-0.314,0.008-0.367c0-0.572-0.133-0.977-0.398-1.211
			c-0.359-0.316-0.895-0.477-1.602-0.477c-0.662,0-1.15,0.117-1.465,0.348c-0.316,0.232-0.549,0.643-0.699,1.23l-1.375-0.188
			c0.125-0.588,0.33-1.062,0.617-1.426c0.285-0.361,0.699-0.641,1.242-0.836c0.541-0.195,1.168-0.293,1.883-0.293
			c0.707,0,1.283,0.084,1.727,0.25c0.441,0.168,0.768,0.377,0.977,0.629c0.207,0.254,0.354,0.572,0.438,0.957
			c0.047,0.24,0.07,0.672,0.07,1.297v1.875c0,1.309,0.029,2.135,0.09,2.48c0.059,0.348,0.178,0.68,0.355,0.996h-1.469
			C273.196,78.292,273.102,77.95,273.061,77.559z M272.944,74.418c-0.512,0.209-1.277,0.387-2.297,0.531
			c-0.578,0.084-0.988,0.178-1.227,0.281c-0.24,0.105-0.426,0.258-0.555,0.457c-0.131,0.201-0.195,0.424-0.195,0.668
			c0,0.375,0.141,0.688,0.426,0.938c0.283,0.25,0.699,0.375,1.246,0.375c0.541,0,1.023-0.117,1.445-0.355
			c0.422-0.236,0.73-0.561,0.93-0.973c0.15-0.316,0.227-0.785,0.227-1.406V74.418z"/>
		<path fill="#3C3C3B" d="M286.405,77.559c-0.521,0.443-1.023,0.756-1.504,0.938c-0.482,0.184-1,0.273-1.551,0.273
			c-0.912,0-1.613-0.223-2.102-0.668c-0.49-0.445-0.734-1.014-0.734-1.707c0-0.406,0.092-0.777,0.277-1.113
			c0.184-0.336,0.426-0.605,0.727-0.809c0.299-0.203,0.637-0.355,1.012-0.461c0.275-0.072,0.691-0.143,1.25-0.211
			c1.135-0.135,1.971-0.297,2.508-0.484c0.004-0.191,0.008-0.314,0.008-0.367c0-0.572-0.133-0.977-0.398-1.211
			c-0.359-0.316-0.895-0.477-1.602-0.477c-0.662,0-1.15,0.117-1.465,0.348c-0.316,0.232-0.549,0.643-0.699,1.23l-1.375-0.188
			c0.125-0.588,0.33-1.062,0.617-1.426c0.285-0.361,0.699-0.641,1.242-0.836c0.541-0.195,1.168-0.293,1.883-0.293
			c0.707,0,1.283,0.084,1.727,0.25c0.441,0.168,0.768,0.377,0.977,0.629c0.207,0.254,0.354,0.572,0.438,0.957
			c0.047,0.24,0.07,0.672,0.07,1.297v1.875c0,1.309,0.029,2.135,0.09,2.48c0.059,0.348,0.178,0.68,0.355,0.996h-1.469
			C286.54,78.292,286.446,77.95,286.405,77.559z M286.288,74.418c-0.512,0.209-1.277,0.387-2.297,0.531
			c-0.578,0.084-0.988,0.178-1.227,0.281c-0.24,0.105-0.426,0.258-0.555,0.457c-0.131,0.201-0.195,0.424-0.195,0.668
			c0,0.375,0.141,0.688,0.426,0.938c0.283,0.25,0.699,0.375,1.246,0.375c0.541,0,1.023-0.117,1.445-0.355
			c0.422-0.236,0.73-0.561,0.93-0.973c0.15-0.316,0.227-0.785,0.227-1.406V74.418z"/>
		<path fill="#3C3C3B" d="M290.225,78.583v-7.203h-1.242v-1.094h1.242v-0.883c0-0.557,0.049-0.971,0.148-1.242
			c0.135-0.363,0.373-0.66,0.715-0.887c0.34-0.227,0.818-0.34,1.434-0.34c0.395,0,0.832,0.047,1.312,0.141l-0.211,1.227
			c-0.293-0.051-0.568-0.078-0.828-0.078c-0.428,0-0.73,0.092-0.906,0.273c-0.178,0.184-0.266,0.523-0.266,1.023v0.766h1.617v1.094
			h-1.617v7.203H290.225z"/>
		<path fill="#3C3C3B" d="M300.014,75.911l1.453,0.18c-0.23,0.85-0.654,1.508-1.273,1.977c-0.621,0.469-1.412,0.703-2.375,0.703
			c-1.215,0-2.176-0.373-2.887-1.121c-0.711-0.746-1.066-1.795-1.066-3.145c0-1.395,0.359-2.479,1.078-3.25
			c0.719-0.77,1.65-1.156,2.797-1.156c1.109,0,2.016,0.379,2.719,1.133c0.703,0.756,1.055,1.818,1.055,3.188
			c0,0.084-0.004,0.209-0.008,0.375h-6.188c0.051,0.912,0.309,1.609,0.773,2.094c0.463,0.484,1.041,0.727,1.734,0.727
			c0.516,0,0.955-0.135,1.32-0.406C299.51,76.938,299.799,76.504,300.014,75.911z M295.397,73.637h4.633
			c-0.062-0.697-0.24-1.221-0.531-1.57c-0.449-0.541-1.029-0.812-1.742-0.812c-0.646,0-1.189,0.217-1.629,0.648
			C295.686,72.336,295.444,72.915,295.397,73.637z"/>
		<path fill="#3C3C3B" d="M308.647,75.543l1.383,0.18c-0.152,0.953-0.539,1.699-1.16,2.238c-0.623,0.539-1.387,0.809-2.293,0.809
			c-1.137,0-2.049-0.371-2.738-1.113c-0.691-0.742-1.035-1.805-1.035-3.191c0-0.895,0.148-1.68,0.445-2.352s0.748-1.176,1.355-1.512
			c0.605-0.336,1.266-0.504,1.98-0.504c0.9,0,1.637,0.229,2.211,0.684c0.572,0.457,0.939,1.104,1.102,1.941l-1.367,0.211
			c-0.131-0.557-0.361-0.977-0.691-1.258c-0.332-0.281-0.73-0.422-1.199-0.422c-0.709,0-1.285,0.254-1.727,0.762
			c-0.443,0.508-0.664,1.312-0.664,2.41c0,1.115,0.213,1.926,0.641,2.43c0.426,0.506,0.984,0.758,1.672,0.758
			c0.551,0,1.012-0.168,1.383-0.508C308.313,76.768,308.547,76.247,308.647,75.543z"/>
		<path fill="#3C3C3B" d="M314.303,77.325l0.203,1.242c-0.396,0.084-0.75,0.125-1.062,0.125c-0.512,0-0.906-0.08-1.188-0.242
			c-0.281-0.16-0.48-0.373-0.594-0.637c-0.115-0.262-0.172-0.816-0.172-1.66v-4.773h-1.031v-1.094h1.031v-2.055l1.398-0.844v2.898
			h1.414v1.094h-1.414v4.852c0,0.402,0.023,0.66,0.074,0.773c0.049,0.115,0.129,0.207,0.242,0.273
			c0.111,0.068,0.271,0.102,0.48,0.102C313.842,77.379,314.047,77.362,314.303,77.325z"/>
		<path fill="#3C3C3B" d="M321.092,77.559c-0.521,0.443-1.023,0.756-1.504,0.938c-0.482,0.184-1,0.273-1.551,0.273
			c-0.912,0-1.613-0.223-2.102-0.668c-0.49-0.445-0.734-1.014-0.734-1.707c0-0.406,0.092-0.777,0.277-1.113
			c0.184-0.336,0.426-0.605,0.727-0.809c0.299-0.203,0.637-0.355,1.012-0.461c0.275-0.072,0.691-0.143,1.25-0.211
			c1.135-0.135,1.971-0.297,2.508-0.484c0.004-0.191,0.008-0.314,0.008-0.367c0-0.572-0.133-0.977-0.398-1.211
			c-0.359-0.316-0.895-0.477-1.602-0.477c-0.662,0-1.15,0.117-1.465,0.348c-0.316,0.232-0.549,0.643-0.699,1.23l-1.375-0.188
			c0.125-0.588,0.33-1.062,0.617-1.426c0.285-0.361,0.699-0.641,1.242-0.836c0.541-0.195,1.168-0.293,1.883-0.293
			c0.707,0,1.283,0.084,1.727,0.25c0.441,0.168,0.768,0.377,0.977,0.629c0.207,0.254,0.354,0.572,0.438,0.957
			c0.047,0.24,0.07,0.672,0.07,1.297v1.875c0,1.309,0.029,2.135,0.09,2.48c0.059,0.348,0.178,0.68,0.355,0.996h-1.469
			C321.227,78.292,321.133,77.95,321.092,77.559z M320.975,74.418c-0.512,0.209-1.277,0.387-2.297,0.531
			c-0.578,0.084-0.988,0.178-1.227,0.281c-0.24,0.105-0.426,0.258-0.555,0.457c-0.131,0.201-0.195,0.424-0.195,0.668
			c0,0.375,0.141,0.688,0.426,0.938c0.283,0.25,0.699,0.375,1.246,0.375c0.541,0,1.023-0.117,1.445-0.355
			c0.422-0.236,0.73-0.561,0.93-0.973c0.15-0.316,0.227-0.785,0.227-1.406V74.418z"/>
		<path fill="#3C3C3B" d="M329.959,78.583v-1.047c-0.527,0.824-1.301,1.234-2.32,1.234c-0.662,0-1.27-0.182-1.824-0.547
			c-0.555-0.363-0.984-0.873-1.289-1.527c-0.305-0.652-0.457-1.404-0.457-2.254c0-0.828,0.137-1.578,0.414-2.254
			c0.275-0.674,0.689-1.191,1.242-1.551c0.551-0.359,1.168-0.539,1.852-0.539c0.5,0,0.945,0.105,1.336,0.316
			s0.707,0.486,0.953,0.824v-4.109h1.398v11.453H329.959z M325.514,74.442c0,1.062,0.223,1.857,0.672,2.383
			c0.447,0.527,0.977,0.789,1.586,0.789c0.613,0,1.137-0.25,1.566-0.754c0.43-0.502,0.645-1.27,0.645-2.301
			c0-1.135-0.219-1.969-0.656-2.5s-0.977-0.797-1.617-0.797c-0.625,0-1.148,0.256-1.566,0.766
			C325.723,72.54,325.514,73.344,325.514,74.442z"/>
		<path fill="#3C3C3B" d="M338.889,77.559c-0.521,0.443-1.023,0.756-1.504,0.938c-0.482,0.184-1,0.273-1.551,0.273
			c-0.912,0-1.613-0.223-2.102-0.668c-0.49-0.445-0.734-1.014-0.734-1.707c0-0.406,0.092-0.777,0.277-1.113
			c0.184-0.336,0.426-0.605,0.727-0.809c0.299-0.203,0.637-0.355,1.012-0.461c0.275-0.072,0.691-0.143,1.25-0.211
			c1.135-0.135,1.971-0.297,2.508-0.484c0.004-0.191,0.008-0.314,0.008-0.367c0-0.572-0.133-0.977-0.398-1.211
			c-0.359-0.316-0.895-0.477-1.602-0.477c-0.662,0-1.15,0.117-1.465,0.348c-0.316,0.232-0.549,0.643-0.699,1.23l-1.375-0.188
			c0.125-0.588,0.33-1.062,0.617-1.426c0.285-0.361,0.699-0.641,1.242-0.836c0.541-0.195,1.168-0.293,1.883-0.293
			c0.707,0,1.283,0.084,1.727,0.25c0.441,0.168,0.768,0.377,0.977,0.629c0.207,0.254,0.354,0.572,0.438,0.957
			c0.047,0.24,0.07,0.672,0.07,1.297v1.875c0,1.309,0.029,2.135,0.09,2.48c0.059,0.348,0.178,0.68,0.355,0.996h-1.469
			C339.024,78.292,338.93,77.95,338.889,77.559z M338.772,74.418c-0.512,0.209-1.277,0.387-2.297,0.531
			c-0.578,0.084-0.988,0.178-1.227,0.281c-0.24,0.105-0.426,0.258-0.555,0.457c-0.131,0.201-0.195,0.424-0.195,0.668
			c0,0.375,0.141,0.688,0.426,0.938c0.283,0.25,0.699,0.375,1.246,0.375c0.541,0,1.023-0.117,1.445-0.355
			c0.422-0.236,0.73-0.561,0.93-0.973c0.15-0.316,0.227-0.785,0.227-1.406V74.418z"/>
		<path fill="#3C3C3B" d="M342.772,78.583v-1.602h1.602v1.602H342.772z"/>
	</g>
</g>
<g>
	<g>
		<polyline fill="none" stroke="#941B80" stroke-miterlimit="10" points="455.108,98.03 455.108,98.53 454.608,98.53 		"/>
		
			<line fill="none" stroke="#941B80" stroke-miterlimit="10" stroke-dasharray="1.0005,1.0005" x1="453.608" y1="98.53" x2="1.892" y2="98.53"/>
		<polyline fill="none" stroke="#941B80" stroke-miterlimit="10" points="1.392,98.53 0.892,98.53 0.892,98.03 		"/>
		<line fill="none" stroke="#941B80" stroke-miterlimit="10" stroke-dasharray="1,1" x1="0.892" y1="97.03" x2="0.892" y2="1.525"/>
		<polyline fill="none" stroke="#941B80" stroke-miterlimit="10" points="0.892,1.025 0.892,0.525 1.392,0.525 		"/>
		
			<line fill="none" stroke="#941B80" stroke-miterlimit="10" stroke-dasharray="1.0005,1.0005" x1="2.393" y1="0.525" x2="454.108" y2="0.525"/>
		<polyline fill="none" stroke="#941B80" stroke-miterlimit="10" points="454.608,0.525 455.108,0.525 455.108,1.025 		"/>
		
			<line fill="none" stroke="#941B80" stroke-miterlimit="10" stroke-dasharray="1,1" x1="455.108" y1="2.025" x2="455.108" y2="97.53"/>
	</g>
</g>
</svg>
