<?xml version="1.0" encoding="utf-8"?>
<!-- Generator: Adobe Illustrator 16.0.0, SVG Export Plug-In . SVG Version: 6.00 Build 0)  -->
<!DOCTYPE svg PUBLIC "-//W3C//DTD SVG 1.1//EN" "http://www.w3.org/Graphics/SVG/1.1/DTD/svg11.dtd">
<svg version="1.1" id="Capa_1" xmlns="http://www.w3.org/2000/svg" xmlns:xlink="http://www.w3.org/1999/xlink" x="0px" y="0px"
	 width="421.384px" height="54.358px" viewBox="0 0 421.384 54.358" enable-background="new 0 0 421.384 54.358"
	 xml:space="preserve">
<g>
	<g>
		<g>
			<path fill="#3C3C3B" d="M268.657,50.483l1.43-0.125c0.067,0.573,0.225,1.043,0.473,1.41c0.247,0.367,0.631,0.664,1.152,0.891
				c0.521,0.227,1.106,0.34,1.758,0.34c0.578,0,1.088-0.086,1.531-0.258c0.442-0.172,0.772-0.407,0.988-0.707
				c0.216-0.3,0.324-0.626,0.324-0.98c0-0.359-0.104-0.673-0.312-0.941c-0.208-0.269-0.552-0.493-1.031-0.676
				c-0.308-0.12-0.987-0.306-2.039-0.559c-1.052-0.253-1.789-0.491-2.211-0.715c-0.547-0.286-0.955-0.642-1.223-1.066
				c-0.269-0.425-0.402-0.899-0.402-1.426c0-0.578,0.164-1.118,0.492-1.621s0.807-0.884,1.438-1.145
				c0.63-0.261,1.331-0.391,2.102-0.391c0.849,0,1.598,0.137,2.246,0.41s1.147,0.676,1.496,1.207
				c0.349,0.531,0.536,1.133,0.562,1.805l-1.453,0.109c-0.078-0.724-0.343-1.271-0.793-1.641c-0.451-0.37-1.116-0.555-1.996-0.555
				c-0.917,0-1.585,0.168-2.004,0.504c-0.419,0.336-0.629,0.741-0.629,1.215c0,0.411,0.148,0.75,0.445,1.016
				c0.292,0.266,1.053,0.538,2.285,0.816c1.231,0.278,2.077,0.522,2.535,0.73c0.667,0.308,1.159,0.696,1.477,1.168
				c0.317,0.472,0.477,1.015,0.477,1.629c0,0.609-0.175,1.184-0.523,1.723c-0.349,0.539-0.851,0.958-1.504,1.258
				c-0.654,0.3-1.39,0.449-2.207,0.449c-1.037,0-1.905-0.151-2.605-0.453c-0.701-0.302-1.25-0.757-1.648-1.363
				S268.678,51.249,268.657,50.483z"/>
			<path fill="#3C3C3B" d="M285.345,51.491l1.453,0.18c-0.229,0.849-0.654,1.508-1.273,1.977c-0.62,0.469-1.412,0.703-2.375,0.703
				c-1.214,0-2.176-0.374-2.887-1.121s-1.066-1.796-1.066-3.145c0-1.396,0.359-2.479,1.078-3.25s1.651-1.156,2.797-1.156
				c1.109,0,2.016,0.378,2.719,1.133s1.055,1.817,1.055,3.188c0,0.083-0.003,0.208-0.008,0.375h-6.188
				c0.052,0.911,0.31,1.609,0.773,2.094c0.463,0.484,1.042,0.727,1.734,0.727c0.516,0,0.956-0.136,1.32-0.406
				C284.842,52.518,285.131,52.085,285.345,51.491z M280.728,49.218h4.633c-0.062-0.698-0.24-1.222-0.531-1.57
				c-0.448-0.542-1.029-0.812-1.742-0.812c-0.646,0-1.189,0.216-1.629,0.648C281.018,47.916,280.774,48.494,280.728,49.218z"/>
			<path fill="#3C3C3B" d="M288.563,54.163v-8.297h1.266v1.18c0.609-0.911,1.489-1.367,2.641-1.367c0.5,0,0.959,0.09,1.379,0.27
				c0.419,0.18,0.733,0.415,0.941,0.707c0.208,0.292,0.354,0.638,0.438,1.039c0.052,0.261,0.078,0.716,0.078,1.367v5.102h-1.406
				v-5.047c0-0.573-0.055-1.001-0.164-1.285s-0.304-0.511-0.582-0.68c-0.279-0.169-0.605-0.254-0.98-0.254
				c-0.599,0-1.116,0.19-1.551,0.57c-0.435,0.38-0.652,1.102-0.652,2.164v4.531H288.563z"/>
			<path fill="#3C3C3B" d="M300.532,52.905l0.203,1.242c-0.396,0.083-0.75,0.125-1.062,0.125c-0.511,0-0.906-0.081-1.188-0.242
				s-0.479-0.374-0.594-0.637c-0.115-0.263-0.172-0.816-0.172-1.66V46.96h-1.031v-1.094h1.031v-2.055l1.398-0.844v2.898h1.414v1.094
				h-1.414v4.852c0,0.401,0.024,0.659,0.074,0.773c0.049,0.114,0.13,0.206,0.242,0.273c0.112,0.067,0.272,0.102,0.48,0.102
				C300.071,52.96,300.277,52.941,300.532,52.905z"/>
			<path fill="#3C3C3B" d="M307.587,51.491l1.453,0.18c-0.229,0.849-0.654,1.508-1.273,1.977c-0.62,0.469-1.412,0.703-2.375,0.703
				c-1.214,0-2.176-0.374-2.887-1.121s-1.066-1.796-1.066-3.145c0-1.396,0.359-2.479,1.078-3.25s1.651-1.156,2.797-1.156
				c1.109,0,2.016,0.378,2.719,1.133s1.055,1.817,1.055,3.188c0,0.083-0.003,0.208-0.008,0.375h-6.188
				c0.052,0.911,0.31,1.609,0.773,2.094c0.463,0.484,1.042,0.727,1.734,0.727c0.516,0,0.956-0.136,1.32-0.406
				C307.084,52.518,307.373,52.085,307.587,51.491z M302.97,49.218h4.633c-0.062-0.698-0.24-1.222-0.531-1.57
				c-0.448-0.542-1.029-0.812-1.742-0.812c-0.646,0-1.189,0.216-1.629,0.648C303.26,47.916,303.017,48.494,302.97,49.218z"/>
			<path fill="#3C3C3B" d="M310.806,54.163v-8.297h1.266v1.18c0.609-0.911,1.489-1.367,2.641-1.367c0.5,0,0.959,0.09,1.379,0.27
				c0.419,0.18,0.733,0.415,0.941,0.707c0.208,0.292,0.354,0.638,0.438,1.039c0.052,0.261,0.078,0.716,0.078,1.367v5.102h-1.406
				v-5.047c0-0.573-0.055-1.001-0.164-1.285s-0.304-0.511-0.582-0.68c-0.279-0.169-0.605-0.254-0.98-0.254
				c-0.599,0-1.116,0.19-1.551,0.57c-0.435,0.38-0.652,1.102-0.652,2.164v4.531H310.806z"/>
			<path fill="#3C3C3B" d="M325.118,51.124l1.383,0.18c-0.151,0.953-0.538,1.699-1.16,2.238c-0.623,0.539-1.387,0.809-2.293,0.809
				c-1.136,0-2.048-0.371-2.738-1.113c-0.69-0.742-1.035-1.806-1.035-3.191c0-0.896,0.148-1.68,0.445-2.352s0.749-1.176,1.355-1.512
				c0.606-0.336,1.267-0.504,1.98-0.504c0.901,0,1.638,0.228,2.211,0.684c0.573,0.456,0.94,1.103,1.102,1.941l-1.367,0.211
				c-0.13-0.558-0.361-0.977-0.691-1.258c-0.331-0.281-0.73-0.422-1.199-0.422c-0.708,0-1.284,0.254-1.727,0.762
				c-0.443,0.508-0.664,1.312-0.664,2.41c0,1.114,0.213,1.925,0.641,2.43c0.427,0.505,0.984,0.758,1.672,0.758
				c0.552,0,1.013-0.169,1.383-0.508C324.785,52.348,325.019,51.827,325.118,51.124z"/>
			<path fill="#3C3C3B" d="M327.712,44.327V42.71h1.406v1.617H327.712z M327.712,54.163v-8.297h1.406v8.297H327.712z"/>
			<path fill="#3C3C3B" d="M336.673,53.14c-0.521,0.442-1.022,0.755-1.504,0.938c-0.482,0.183-0.999,0.273-1.551,0.273
				c-0.912,0-1.612-0.223-2.102-0.668c-0.49-0.445-0.734-1.015-0.734-1.707c0-0.406,0.092-0.777,0.277-1.113
				c0.185-0.336,0.427-0.605,0.727-0.809c0.299-0.203,0.637-0.356,1.012-0.461c0.276-0.073,0.692-0.144,1.25-0.211
				c1.135-0.136,1.971-0.297,2.508-0.484c0.005-0.192,0.008-0.315,0.008-0.367c0-0.573-0.133-0.977-0.398-1.211
				c-0.359-0.317-0.894-0.477-1.602-0.477c-0.662,0-1.15,0.116-1.465,0.348c-0.315,0.231-0.548,0.642-0.699,1.23l-1.375-0.188
				c0.125-0.589,0.331-1.063,0.617-1.426c0.286-0.362,0.7-0.641,1.242-0.836c0.542-0.195,1.169-0.293,1.883-0.293
				c0.708,0,1.284,0.083,1.727,0.25c0.442,0.167,0.768,0.376,0.977,0.629c0.208,0.253,0.354,0.571,0.438,0.957
				c0.047,0.239,0.07,0.672,0.07,1.297v1.875c0,1.308,0.03,2.134,0.09,2.48c0.06,0.347,0.178,0.679,0.355,0.996h-1.469
				C336.808,53.871,336.714,53.53,336.673,53.14z M336.556,49.999c-0.511,0.208-1.276,0.386-2.297,0.531
				c-0.578,0.083-0.987,0.177-1.227,0.281c-0.24,0.104-0.425,0.257-0.555,0.457c-0.13,0.2-0.195,0.423-0.195,0.668
				c0,0.375,0.142,0.688,0.426,0.938c0.284,0.25,0.699,0.375,1.246,0.375c0.542,0,1.023-0.118,1.445-0.355s0.731-0.562,0.93-0.973
				c0.151-0.317,0.227-0.786,0.227-1.406V49.999z"/>
			<path fill="#3C3C3B" d="M339.595,51.687l1.391-0.219c0.078,0.558,0.295,0.984,0.652,1.281c0.356,0.297,0.855,0.445,1.496,0.445
				c0.646,0,1.125-0.132,1.438-0.395s0.469-0.571,0.469-0.926c0-0.317-0.138-0.567-0.414-0.75c-0.193-0.125-0.672-0.284-1.438-0.477
				c-1.031-0.261-1.746-0.485-2.145-0.676s-0.701-0.453-0.906-0.789c-0.206-0.336-0.309-0.707-0.309-1.113
				c0-0.37,0.084-0.712,0.254-1.027c0.169-0.315,0.399-0.577,0.691-0.785c0.219-0.161,0.517-0.298,0.895-0.41
				c0.377-0.112,0.782-0.168,1.215-0.168c0.651,0,1.223,0.094,1.715,0.281s0.855,0.441,1.09,0.762s0.396,0.749,0.484,1.285
				l-1.375,0.188c-0.062-0.427-0.244-0.761-0.543-1c-0.3-0.239-0.723-0.359-1.27-0.359c-0.646,0-1.107,0.106-1.383,0.32
				c-0.276,0.214-0.414,0.464-0.414,0.75c0,0.183,0.057,0.347,0.172,0.492c0.114,0.151,0.294,0.276,0.539,0.375
				c0.141,0.052,0.555,0.172,1.242,0.359c0.995,0.266,1.688,0.483,2.082,0.652c0.393,0.169,0.702,0.415,0.926,0.738
				c0.224,0.323,0.336,0.724,0.336,1.203c0,0.469-0.137,0.91-0.41,1.324s-0.668,0.734-1.184,0.961s-1.099,0.34-1.75,0.34
				c-1.078,0-1.9-0.224-2.465-0.672C340.111,53.23,339.751,52.566,339.595,51.687z"/>
			<path fill="#3C3C3B" d="M360.954,50.147l1.516,0.383c-0.318,1.245-0.89,2.194-1.715,2.848c-0.826,0.653-1.835,0.98-3.027,0.98
				c-1.234,0-2.238-0.251-3.012-0.754s-1.362-1.23-1.766-2.184c-0.404-0.953-0.605-1.977-0.605-3.07
				c0-1.192,0.228-2.233,0.684-3.121c0.456-0.888,1.104-1.562,1.945-2.023c0.841-0.461,1.767-0.691,2.777-0.691
				c1.146,0,2.109,0.292,2.891,0.875s1.325,1.403,1.633,2.461l-1.492,0.352c-0.266-0.833-0.651-1.44-1.156-1.82
				c-0.505-0.38-1.141-0.57-1.906-0.57c-0.88,0-1.616,0.211-2.207,0.633c-0.591,0.422-1.007,0.988-1.246,1.699
				c-0.24,0.711-0.359,1.444-0.359,2.199c0,0.974,0.142,1.824,0.426,2.551c0.284,0.727,0.725,1.27,1.324,1.629
				c0.599,0.359,1.247,0.539,1.945,0.539c0.849,0,1.567-0.245,2.156-0.734C360.347,51.838,360.746,51.111,360.954,50.147z"/>
			<path fill="#3C3C3B" d="M363.634,50.015c0-1.536,0.427-2.675,1.281-3.414c0.713-0.614,1.583-0.922,2.609-0.922
				c1.141,0,2.073,0.374,2.797,1.121c0.724,0.747,1.086,1.78,1.086,3.098c0,1.067-0.16,1.907-0.48,2.52s-0.787,1.087-1.398,1.426
				c-0.612,0.339-1.28,0.508-2.004,0.508c-1.162,0-2.101-0.372-2.816-1.117C363.992,52.488,363.634,51.416,363.634,50.015z
				 M365.079,50.015c0,1.062,0.231,1.858,0.695,2.387c0.463,0.528,1.047,0.793,1.75,0.793c0.698,0,1.278-0.266,1.742-0.797
				c0.463-0.531,0.695-1.341,0.695-2.43c0-1.026-0.233-1.804-0.699-2.332c-0.466-0.528-1.046-0.793-1.738-0.793
				c-0.703,0-1.287,0.263-1.75,0.789C365.311,48.158,365.079,48.952,365.079,50.015z"/>
			<path fill="#3C3C3B" d="M373.04,54.163v-8.297h1.266v1.258c0.323-0.589,0.621-0.977,0.895-1.164s0.574-0.281,0.902-0.281
				c0.474,0,0.956,0.151,1.445,0.453l-0.484,1.305c-0.344-0.203-0.688-0.305-1.031-0.305c-0.308,0-0.583,0.093-0.828,0.277
				c-0.245,0.185-0.419,0.441-0.523,0.77c-0.156,0.5-0.234,1.047-0.234,1.641v4.344H373.04z"/>
			<path fill="#3C3C3B" d="M381.454,52.905l0.203,1.242c-0.396,0.083-0.75,0.125-1.062,0.125c-0.511,0-0.906-0.081-1.188-0.242
				s-0.479-0.374-0.594-0.637c-0.115-0.263-0.172-0.816-0.172-1.66V46.96h-1.031v-1.094h1.031v-2.055l1.398-0.844v2.898h1.414v1.094
				h-1.414v4.852c0,0.401,0.024,0.659,0.074,0.773c0.049,0.114,0.13,0.206,0.242,0.273c0.112,0.067,0.272,0.102,0.48,0.102
				C380.993,52.96,381.199,52.941,381.454,52.905z"/>
			<path fill="#3C3C3B" d="M388.509,51.491l1.453,0.18c-0.229,0.849-0.654,1.508-1.273,1.977c-0.62,0.469-1.412,0.703-2.375,0.703
				c-1.214,0-2.176-0.374-2.887-1.121s-1.066-1.796-1.066-3.145c0-1.396,0.359-2.479,1.078-3.25s1.651-1.156,2.797-1.156
				c1.109,0,2.016,0.378,2.719,1.133s1.055,1.817,1.055,3.188c0,0.083-0.003,0.208-0.008,0.375h-6.188
				c0.052,0.911,0.31,1.609,0.773,2.094c0.463,0.484,1.042,0.727,1.734,0.727c0.516,0,0.956-0.136,1.32-0.406
				C388.006,52.518,388.295,52.085,388.509,51.491z M383.892,49.218h4.633c-0.062-0.698-0.24-1.222-0.531-1.57
				c-0.448-0.542-1.029-0.812-1.742-0.812c-0.646,0-1.189,0.216-1.629,0.648C384.182,47.916,383.938,48.494,383.892,49.218z"/>
			<path fill="#3C3C3B" d="M396.61,54.163V42.71h1.516v11.453H396.61z"/>
			<path fill="#3C3C3B" d="M400.798,54.163V42.71h3.945c0.891,0,1.57,0.055,2.039,0.164c0.656,0.151,1.216,0.425,1.68,0.82
				c0.604,0.511,1.056,1.163,1.355,1.957c0.299,0.794,0.449,1.702,0.449,2.723c0,0.87-0.102,1.641-0.305,2.312
				s-0.464,1.228-0.781,1.668c-0.318,0.44-0.666,0.786-1.043,1.039c-0.378,0.253-0.833,0.444-1.367,0.574
				c-0.534,0.13-1.147,0.195-1.84,0.195H400.798z M402.313,52.812h2.445c0.755,0,1.348-0.07,1.777-0.211s0.772-0.339,1.027-0.594
				c0.359-0.359,0.639-0.843,0.84-1.449c0.2-0.606,0.301-1.343,0.301-2.207c0-1.198-0.197-2.118-0.59-2.762
				c-0.394-0.644-0.871-1.074-1.434-1.293c-0.406-0.156-1.06-0.234-1.961-0.234h-2.406V52.812z"/>
			<path fill="#3C3C3B" d="M412.399,54.163V42.71h1.516v4.703h5.953V42.71h1.516v11.453h-1.516v-5.398h-5.953v5.398H412.399z"/>
		</g>
	</g>
	<path fill="#F39200" d="M5.609,3.272L5.447,3.521l0.064,0.021c0.046,0.016,0.082,0.051,0.102,0.093l0.135,0.304
		c0.015,0.033,0.019,0.071,0.011,0.106L5.625,4.651L5.283,5.48l0.188,0.052c0.041,0.012,0.076,0.038,0.1,0.075l0.102,0.169
		c0.043,0.073,0.026,0.166-0.04,0.219L5.463,6.132C5.441,6.146,5.415,6.159,5.389,6.164L5.017,6.231l-0.2,0.069L4.803,6.342
		l0.089,0.125l0.222,0.084C5.156,6.565,5.19,6.599,5.208,6.64c0.02,0.04,0.02,0.089,0.003,0.131L5.085,7.084l-0.03,0.36L5.12,7.863
		L5.216,8.18C5.229,8.224,5.224,8.272,5.2,8.312C5.177,8.354,5.136,8.382,5.09,8.392L4.834,8.465l0.112,0.427
		C4.961,8.942,4.95,8.996,4.919,9.038L4.817,9.173C4.812,9.182,4.803,9.188,4.794,9.196L4.528,9.434L4.373,9.994
		c-0.005,0.015-0.011,0.027-0.019,0.04l-0.424,0.719L3.835,11.2c-0.005,0.021-0.012,0.041-0.024,0.059l-0.067,0.101
		c-0.007,0.011-0.017,0.021-0.025,0.029l-0.51,0.479l0.021,0.144l0.131,0.494c0.004,0.011,0.007,0.022,0.007,0.035l0.168,3.68
		c0.002,0.016,0,0.029-0.003,0.043L3.228,17.65l-0.029,0.411l0.06,0.157l0.022,0.059l0.327,0.49
		c0.013,0.021,0.021,0.041,0.025,0.062l0.034,0.17l0,0l0,0c0.011,0.056-0.007,0.111-0.047,0.152l-0.102,0.102
		c-0.015,0.014-0.029,0.024-0.048,0.033L2.992,19.51l-0.065,0.064v0.069l0.055,0.152l0.206,0.599c0.007,0.018,0.01,0.037,0.01,0.055
		v0.235c0,0.019-0.003,0.033-0.007,0.049l-0.082,0.274l0.07,0.142c0.023,0.046,0.024,0.1,0.003,0.147
		c-0.021,0.046-0.062,0.081-0.112,0.093l-0.201,0.05l-0.087,0.153L2.725,21.82v0.318l0.199,1.084l0,0l0,0
		c0.005,0.027,0.003,0.055-0.006,0.083l-0.101,0.304c-0.009,0.024-0.023,0.047-0.041,0.065L2.5,23.951l-0.155,0.468
		c-0.014,0.04-0.04,0.072-0.077,0.093L2.03,24.646c-0.012,0.008-0.027,0.016-0.042,0.018l-0.244,0.062l-0.207,0.129l-0.09,0.184
		l0.021,0.176l0.312,0.438c0.026,0.033,0.036,0.076,0.032,0.116l0,0l0,0L1.78,26.043l0.019,0.071l0.05,0.067l0.254,0.084
		c0.047,0.015,0.084,0.05,0.104,0.095l0.066,0.171c0.009,0.02,0.013,0.04,0.014,0.061c0,0.021-0.005,0.042-0.012,0.062l-0.102,0.269
		c-0.006,0.017-0.014,0.032-0.024,0.046l-0.372,0.474l-0.082,0.132l0.162,0.143c0.016,0.013,0.03,0.031,0.04,0.051l0.067,0.135
		c0.012,0.022,0.018,0.048,0.018,0.071c0,0.025-0.004,0.049-0.015,0.07c-0.019,0.049-0.058,0.082-0.105,0.097l-0.175,0.054
		L1.94,29.01c0.005,0.015,0.008,0.032,0.008,0.049v0.914c0,0.012-0.003,0.027-0.006,0.041l-0.237,0.88l-1.62,3.581L0,35.043
		l0.123,0.122l0.415-0.028h0.014l0.61-0.163l0.538-0.04l0.52-0.099c0.047-0.008,0.094,0.002,0.132,0.029
		c0.038,0.029,0.062,0.069,0.067,0.116l0.023,0.182l0.563,0.298c0.035,0.018,0.062,0.052,0.078,0.086l0.073,0.188l0.219-0.079
		c0.059-0.022,0.124-0.01,0.17,0.032l0.72,0.654l0.417,0.14l0.189-0.056c0,0,0.002,0.002,0.003,0
		c0.033-0.009,0.068-0.005,0.102,0.005h0.001l0.207,0.079l0.132-0.058l0.331-0.452l0.128-0.317c0.008-0.021,0.021-0.042,0.037-0.057
		l0.135-0.135c0.012-0.011,0.021-0.02,0.033-0.025l0.169-0.102l0.633-0.249l0.368-0.07l0.035-0.007l0,0
		c0.039-0.004,0.078,0,0.112,0.021l0.237,0.135c0.013,0.007,0.025,0.015,0.036,0.027l0.304,0.303l0.386,0.289
		c0.022,0.016,0.04,0.037,0.052,0.063l0.507,1.079l0.154,0.21c0.007,0.011,0.014,0.022,0.019,0.036l0.108,0.27l0.027,0.068
		c0.005,0.011,0.008,0.025,0.01,0.04v0.001l0,0l0,0l0.018,0.135l0.017,0.135l0.065,0.263l0.066,0.258
		c0.004,0.019,0.005,0.035,0.004,0.053l-0.034,0.54C9.271,39,9.257,39.036,9.23,39.065l-0.71,0.777l-0.136,0.221L8.27,40.555
		l0.146,0.319c0.018,0.038,0.021,0.08,0.008,0.119l-0.249,0.808l0.403,0.713c0.012,0.021,0.019,0.042,0.021,0.066l0.033,0.305
		c0.002,0.018,0.001,0.039-0.004,0.059l-0.102,0.405l-0.207,0.588l-0.604,1.116l-0.286,1.55l0.715,0.87l0.655,0.492l1.554-2.157
		l0.563-1.028l0.567-1.303l0.127-0.452l0.06-0.335l-0.025-0.404l-0.005-0.061l-0.079-0.259l-0.05-0.161l-0.031-0.291l-0.009-0.079
		l-0.002-0.253l-0.032-0.463c-0.002-0.022,0.001-0.047,0.01-0.071l0.675-1.79c0.007-0.016,0.016-0.032,0.026-0.046l0.136-0.168
		c0.006-0.007,0.015-0.018,0.024-0.025l0.201-0.168c0.063-0.051,0.155-0.051,0.218,0.001l0.42,0.355l0.021,0.009l0.191,0.083
		l0.491,0.143l0.032-0.016l0.064-0.107l0.258-0.967v-0.958c0-0.038,0.013-0.076,0.038-0.106l0.427-0.525l0.228-0.456l0.124-0.308
		l0.064-0.356l-0.004-0.34l0.205-1.211l0.24-0.861l0.024-0.287l-0.02-0.032l-0.37,0.027c-0.058,0.002-0.112-0.022-0.146-0.066
		c-0.035-0.048-0.044-0.106-0.024-0.163l0.835-2.268l0.032-0.858l-0.257-0.901l-0.107-0.188l-0.241-0.181
		c-0.015-0.011-0.025-0.022-0.036-0.035l-0.1-0.135l-0.314-0.52c-0.011-0.021-0.019-0.039-0.021-0.06
		c-0.011-0.06,0.012-0.122,0.063-0.162l0.607-0.473c0.01-0.008,0.022-0.015,0.035-0.021l0.579-0.259l0.098-0.097l0.038-0.065h-0.106
		c-0.05,0-0.097-0.021-0.128-0.058c-0.033-0.038-0.047-0.09-0.038-0.139l0,0l0,0l0.029-0.173l-0.028-0.137l0,0l0,0
		c-0.014-0.067,0.014-0.137,0.072-0.175l0.357-0.239l0.117-0.318c0.019-0.052,0.062-0.09,0.114-0.105l0.311-0.084l0.021-0.033
		l0.012-0.018l0.458-1.084c0.005-0.016,0.013-0.028,0.023-0.041l0.135-0.169c0.016-0.021,0.038-0.038,0.062-0.048l0.255-0.114
		l0.151-0.252v-0.195l-0.043-0.133l-0.015-0.044c-0.008-0.021-0.011-0.045-0.008-0.065c0.005-0.066,0.048-0.126,0.114-0.147
		l0.101-0.033c0.041-0.015,0.084-0.013,0.122,0.005l0.271,0.12h0.201l0.419,0.035c0.018,0.001,0.035,0.005,0.052,0.013l0.641,0.27
		c0.076,0.032,0.118,0.114,0.099,0.195l-0.136,0.574l-0.001,0.014l-0.028,0.398l0.033,1.785l0.062,0.215l0,0
		c0.008,0.03,0.01,0.062,0,0.093l0,0l-0.068,0.237c-0.009,0.033-0.026,0.061-0.053,0.082l-0.188,0.156l-0.067,0.089l-0.015,0.083
		l0.031,0.08l0.252,0.2l0.373-0.027c0.055-0.006,0.109,0.018,0.144,0.062c0.018,0.021,0.029,0.046,0.035,0.072
		c0.005,0.027,0.003,0.055-0.003,0.082l-0.439,1.485c-0.013,0.044-0.045,0.081-0.085,0.104l-0.314,0.154l-0.101,0.103l-0.665,1.097
		l-0.278,0.383l-0.26,0.457c-0.01,0.018-0.023,0.033-0.038,0.046l-0.406,0.338l-0.121,0.147l-0.056,0.247v0.558l0.192,0.513
		l0.089,0.143c0.02,0.033,0.027,0.071,0.021,0.109l0,0V33l-0.101,0.707c-0.005,0.025-0.013,0.047-0.026,0.067l-0.928,1.462
		l-0.062,0.275l-0.027,0.276l0.314,0.814l0.521,0.62l0.285,0.459l0.215,0.494c0.012,0.03,0.016,0.063,0.011,0.094l-0.034,0.203
		c-0.002,0.021-0.01,0.042-0.021,0.06l-0.203,0.338l-0.184,0.224c-0.01,0.013-0.022,0.022-0.035,0.033l-0.358,0.235l-0.042,0.13
		l-0.066,0.692c-0.002,0.014-0.005,0.03-0.011,0.044l-0.355,0.93l0.403,0.019l1.062-1.029l0.817-0.549l0.358-0.39
		c0.012-0.014,0.027-0.026,0.044-0.034l0.371-0.202c0.015-0.009,0.031-0.015,0.047-0.018l0.338-0.066l0.355-0.039l0.287-0.078
		l0.168-0.227l0.224-0.416c0.015-0.031,0.04-0.054,0.068-0.069l0.507-0.269c0.015-0.011,0.034-0.016,0.052-0.018l0.384-0.063
		l1.472-0.655l0.18-0.181l0.258-0.186c0.028-0.022,0.062-0.033,0.098-0.033h0.507c0.014,0,0.028,0.003,0.04,0.007l0.246,0.061
		l0.398-0.021l-0.17-0.533l-0.04-0.302l-0.001-0.321l-0.139-0.308l-0.172-0.156l-0.173-0.157c-0.029-0.026-0.049-0.062-0.054-0.101
		l-0.067-0.474c-0.003-0.015-0.003-0.033,0-0.049l0.062-0.408l-0.207-0.93l-0.046-0.205l-0.133-0.135l-0.134-0.136
		c-0.035-0.036-0.053-0.081-0.05-0.131l0.035-0.474c0.001-0.03,0.011-0.061,0.03-0.086l0.41-0.545
		c0.008-0.011,0.018-0.021,0.027-0.028l0.169-0.137c0.011-0.008,0.024-0.016,0.037-0.021l0.54-0.237l0.445-0.27l0.114-0.226
		l0.345-0.555c0.007-0.011,0.015-0.021,0.024-0.028l0.202-0.203c0.023-0.023,0.052-0.038,0.083-0.046l0.305-0.067
		c0.027-0.005,0.056-0.005,0.083,0.001l0.236,0.069c0.006,0.002,0.011,0.005,0.017,0.007c0.006,0.002,0.014,0.006,0.02,0.008
		l0.237,0.135c0.019,0.01,0.036,0.025,0.05,0.043l0,0l0,0l0.051,0.066l0.174,0.226l0.177,0.15h0.275l0.231,0.035
		c0.016,0.003,0.032,0.008,0.047,0.016l0.203,0.103c0.031,0.014,0.055,0.038,0.072,0.066l0.262,0.458l0.258,0.29l0.316,0.455
		l0.114,0.223c0.012,0.025,0.018,0.051,0.018,0.076v0.287l0.026,0.127l0.101,0.479l0.465,1.064c0.006,0.015,0.011,0.03,0.013,0.046
		l0.03,0.235l0.069,0.114l0.165,0.139l0.251,0.126l0.131,0.051l0.193,0.078l0.134,0.066l0.131,0.064l0.251,0.057l0.317-0.059
		l0.334-0.152l0.559-0.427c0.025-0.02,0.053-0.03,0.083-0.032l1.452-0.17c0.021-0.002,0.041-0.001,0.061,0.005l2.769,0.708
		l0.528,0.209c0.014,0.005,0.026,0.013,0.039,0.023l0.269,0.203c0.022,0.015,0.038,0.035,0.05,0.058l0.124,0.244l0.062,0.064
		l0.246,0.122l0.626,0.415l0.236,0.118l0.047-0.028l0.066-0.133l0.065-0.512l0.743-4.934l0.723-5.024l-0.233,0.394l-0.061,0.186
		c-0.008,0.025-0.023,0.048-0.042,0.065l-0.168,0.169c-0.011,0.012-0.023,0.021-0.038,0.028l-0.303,0.169
		c-0.022,0.011-0.046,0.019-0.071,0.02l-0.946,0.067c-0.026,0.005-0.051-0.001-0.075-0.011l-0.887-0.361l-0.478-0.032
		c-0.064-0.004-0.121-0.044-0.146-0.104L37.48,25.68c-0.007-0.015-0.01-0.03-0.012-0.048l-0.06-0.562l-0.115-0.076l-0.195-0.056
		l-0.387-0.03l-0.372,0.124c-0.024,0.008-0.048,0.012-0.075,0.008l-0.27-0.034c-0.037-0.004-0.072-0.022-0.099-0.048l-0.168-0.169h0
		c-0.012-0.013-0.023-0.027-0.031-0.043l-0.135-0.272l-0.405-0.715l-0.821-0.315c-0.052-0.021-0.09-0.063-0.104-0.117l-0.033-0.135
		c-0.005-0.022-0.007-0.048-0.002-0.072l0.057-0.309l-0.096-0.168l-0.325-0.357l-0.341-0.542l-0.156-0.129l-0.62-0.187l-1.834-0.033
		c-0.052-0.001-0.103-0.027-0.135-0.071l-0.506-0.708c-0.021-0.029-0.032-0.063-0.032-0.098v-0.304v-0.001
		c0-0.028,0.007-0.055,0.021-0.079l0.682-1.27l-0.094-0.688c-0.008-0.061,0.018-0.121,0.067-0.158l0.853-0.631l0.02-0.181
		l-0.313-0.595c-0.01-0.018-0.016-0.035-0.019-0.056l-0.066-0.472c-0.003-0.024-0.002-0.049,0.005-0.07l0.088-0.296l-0.05-0.199
		l-0.561-0.925c-0.008-0.014-0.015-0.028-0.019-0.044l-0.168-0.642c-0.007-0.023-0.008-0.048-0.003-0.072l0.09-0.51l-0.426-0.699
		l-0.347-0.285l-0.604-0.471c-0.025-0.019-0.044-0.045-0.055-0.074l-0.205-0.579c-0.005-0.018-0.007-0.035-0.007-0.053V10.93l0,0
		c0-0.024,0.003-0.044,0.011-0.064l0.135-0.338l0.096-0.19l-0.11-0.155c-0.021-0.027-0.032-0.063-0.032-0.099V9.969l0,0L29.03,9.85
		l-0.96-0.856c-0.015-0.013-0.029-0.03-0.038-0.048l-0.238-0.473c-0.008-0.018-0.012-0.035-0.015-0.053l-0.015-0.112l-0.136,0.046
		c-0.018,0.005-0.035,0.008-0.053,0.008h-0.271c-0.021,0-0.043-0.003-0.063-0.011l-0.337-0.134
		c-0.022-0.011-0.041-0.023-0.057-0.037L26.41,7.74L25.997,7.85c-0.04,0.011-0.08,0.006-0.118-0.012l-1.182-0.574
		c-0.057-0.027-0.094-0.086-0.094-0.15l-0.015-1.108l-0.241,0.023l-0.156,0.078L23.7,6.532l-1.19,1.224l0,0v0.369
		c0,0.021-0.004,0.039-0.01,0.057l-0.169,0.473c-0.018,0.05-0.056,0.089-0.107,0.104L21.617,8.95l-1.458,1.325
		c-0.054,0.05-0.135,0.059-0.199,0.021L18.946,9.71l-0.333-0.033c-0.026-0.002-0.051-0.009-0.071-0.023L18.203,9.45l-0.259-0.218
		c-0.012-0.008-0.021-0.021-0.028-0.031l-0.237-0.337c-0.02-0.028-0.03-0.062-0.03-0.097V8.473l0,0l-0.935,0.059
		c-0.026,0-0.053-0.003-0.077-0.016l-0.68-0.305l-0.688-0.392l-0.468-0.032L14.526,7.82c-0.057,0.005-0.114-0.016-0.15-0.062
		l-0.135-0.169c-0.017-0.021-0.029-0.046-0.034-0.072l-0.035-0.169c-0.002-0.018-0.003-0.035-0.001-0.053l0.063-0.533l-0.144-0.399
		l-0.949-0.919c-0.014-0.01-0.024-0.025-0.032-0.041L12.771,4.76c-0.009-0.017-0.015-0.035-0.018-0.055l-0.033-0.234
		c-0.004-0.022-0.003-0.046,0.003-0.066l0.067-0.271c0.003-0.014,0.009-0.026,0.015-0.038l0.271-0.506
		c0.006-0.011,0.013-0.021,0.021-0.031l0.175-0.205l0.052-0.229l-0.021-0.132l-0.147-0.206c-0.011-0.016-0.019-0.03-0.023-0.051
		l-0.102-0.335c-0.005-0.016-0.007-0.033-0.007-0.05V1.946l-0.029-0.412l-0.143-0.197c-0.009-0.014-0.017-0.03-0.022-0.046
		l-0.067-0.203c-0.008-0.021-0.009-0.044-0.008-0.068l0.029-0.322l-0.027-0.055l-0.203-0.146c-0.027-0.018-0.048-0.047-0.06-0.078
		L12.373,0.09l-0.099-0.078L12.216,0l-0.279,0.195l-0.662,0.563l-0.35,0.245l-0.192,0.162c-0.02,0.016-0.043,0.027-0.068,0.034
		L10.09,1.334c-0.023,0.006-0.047,0.007-0.07,0.003L8.973,1.134L8.618,1.028L8.283,0.894L7.931,0.837L7.863,0.854L7.62,1.035
		C7.609,1.044,7.599,1.05,7.587,1.055L7.045,1.291C7.034,1.296,7.023,1.3,7.011,1.302L5.795,1.537L5.56,1.627v0.614l0.118,0.212
		L5.792,2.5C5.835,2.517,5.87,2.552,5.888,2.598C5.904,2.64,5.901,2.69,5.881,2.731L5.609,3.272z"/>
	<g>
		<g>
			<g enable-background="new    ">
				<path fill="#331842" d="M272.613,28.213c0.035-1.816,0.052-3.604,0.052-5.361c0-3.033-0.052-5.979-0.157-8.838
					c1.485-0.117,2.786-0.176,3.904-0.176c2.052,0,3.476,0.199,4.271,0.596c1.223,0.612,1.913,1.439,2.07,2.48
					c0.035,0.268,0.052,0.524,0.052,0.771c0,0.71-0.162,1.325-0.484,1.846c-0.446,0.71-1.236,1.218-2.372,1.523
					c1.267,0.144,2.175,0.485,2.725,1.025c0.463,0.456,0.694,1.107,0.694,1.953c0,0.163-0.009,0.332-0.026,0.508
					c-0.104,1.107-0.574,1.934-1.408,2.48s-1.994,0.922-3.478,1.123c-0.838,0.111-1.821,0.166-2.948,0.166
					C274.626,28.311,273.661,28.278,272.613,28.213z M275.98,16.26l0.092,4.189c1.625-0.064,2.655-0.479,3.092-1.24
					c0.236-0.403,0.354-0.801,0.354-1.191c0-0.325-0.087-0.647-0.262-0.967c-0.306-0.553-1.087-0.83-2.345-0.83
					C276.63,16.221,276.321,16.234,275.98,16.26z M276.229,22.461v3.271c0.201,0.007,0.393,0.01,0.576,0.01
					c1.625,0,2.651-0.332,3.079-0.996c0.236-0.371,0.354-0.706,0.354-1.006c0-0.293-0.114-0.55-0.341-0.771
					c-0.375-0.357-1.249-0.537-2.62-0.537C276.954,22.432,276.604,22.441,276.229,22.461z"/>
				<path fill="#331842" d="M290.548,14.16c3.677,0,5.515,2.344,5.515,7.031c0,4.694-1.969,7.041-5.908,7.041
					s-5.908-2.432-5.908-7.295C284.247,16.42,286.347,14.16,290.548,14.16z M287.928,21.455c-0.009,0.17-0.013,0.332-0.013,0.488
					c0,2.455,0.769,3.682,2.306,3.682c1.633,0,2.45-1.39,2.45-4.17c0-2.779-0.76-4.17-2.279-4.17
					C288.862,17.285,288.041,18.676,287.928,21.455z"/>
				<path fill="#331842" d="M307.932,19.678l-2.974,0.02c-0.044-1.653-0.603-2.522-1.677-2.607h-0.236
					c-0.96,0-1.738,0.473-2.332,1.416c-0.594,0.944-0.891,2.282-0.891,4.014v0.43c0.053,1.94,0.965,2.91,2.738,2.91
					c1.223,0,1.834-0.742,1.834-2.227c0-0.149-0.004-0.303-0.013-0.459l-2.607,0.029l0.131-2.197l6.694,0.078v2.393l-1.336,0.02
					c0,3.398-1.817,5.098-5.45,5.098c-3.362,0-5.043-1.998-5.043-5.996c0-0.332,0.013-0.68,0.039-1.045
					c0.306-4.693,2.31-7.139,6.013-7.334c0.184-0.006,0.358-0.01,0.524-0.01c3.083,0,4.625,1.55,4.625,4.648
					C307.972,19.118,307.958,19.392,307.932,19.678z"/>
				<path fill="#331842" d="M315.871,14.16c3.677,0,5.515,2.344,5.515,7.031c0,4.694-1.969,7.041-5.908,7.041
					s-5.908-2.432-5.908-7.295C309.57,16.42,311.67,14.16,315.871,14.16z M313.251,21.455c-0.009,0.17-0.013,0.332-0.013,0.488
					c0,2.455,0.769,3.682,2.306,3.682c1.633,0,2.45-1.39,2.45-4.17c0-2.779-0.76-4.17-2.279-4.17
					C314.186,17.285,313.364,18.676,313.251,21.455z"/>
				<path fill="#331842" d="M322.33,17.012v-2.568c1.284,0.026,2.555,0.039,3.812,0.039c1.957,0,3.874-0.029,5.751-0.088
					l0.118,2.734h-3.301c0,4.629,0.065,8.301,0.197,11.016l-3.695,0.137c0.192-4.622,0.332-8.392,0.419-11.309L322.33,17.012z"/>
				<path fill="#331842" d="M332.404,28.164c1.642-5.56,2.969-10.273,3.982-14.141l4.913-0.059c1.205,4.023,2.585,8.607,4.14,13.75
					l-3.354,0.508l-1.061-3.701h-4.074l-1.101,3.994L332.404,28.164z M340.919,21.777c-0.455-1.406-1.197-3.089-2.228-5.049
					c-0.794,1.647-1.467,3.354-2.017,5.117L340.919,21.777z M337.369,12.148c1.021-0.904,1.86-1.768,2.515-2.588l2.148,1.27
					c-0.926,0.678-1.957,1.508-3.092,2.49L337.369,12.148z"/>
			</g>
		</g>
	</g>
</g>
</svg>
