<?xml version="1.0" encoding="utf-8"?>
<!-- Generator: Adobe Illustrator 16.0.0, SVG Export Plug-In . SVG Version: 6.00 Build 0)  -->
<!DOCTYPE svg PUBLIC "-//W3C//DTD SVG 1.1//EN" "http://www.w3.org/Graphics/SVG/1.1/DTD/svg11.dtd">
<svg version="1.1" id="Capa_1" xmlns="http://www.w3.org/2000/svg" xmlns:xlink="http://www.w3.org/1999/xlink" x="0px" y="0px"
	 width="561.176px" height="183.359px" viewBox="0 0 561.176 183.359" enable-background="new 0 0 561.176 183.359"
	 xml:space="preserve">
<g>
	<rect x="261.01" y="0" opacity="0.5" fill="#951B81" enable-background="new    " width="300.167" height="183.359"/>
	<rect y="152.359" opacity="0.5" fill="#331842" enable-background="new    " width="254.12" height="31"/>
	<g>
		<g>
			<path fill="#FFFFFF" d="M73.98,174.588c0.105-2.227,0.157-4.395,0.157-6.504c0-2.435-0.07-4.795-0.209-7.08l3.852-0.137
				l3.537,7.354c-0.035-2.525-0.131-5.11-0.288-7.754l4.048-0.039c-0.402,3.99-0.603,8.021-0.603,12.09
				c0,0.547,0.004,1.094,0.013,1.641l-3.55,0.029l-3.773-7.871c0.114,2.904,0.219,5.603,0.314,8.096L73.98,174.588z"/>
			<path fill="#FFFFFF" d="M90.841,164.842c2.969,0,4.454,1.537,4.454,4.609c0,0.124-0.004,0.248-0.013,0.371
				c-0.122,3.327-1.703,5.007-4.742,5.039c-0.035,0.007-0.07,0.01-0.104,0.01c-2.891,0-4.336-1.572-4.336-4.717v-0.273
				C86.186,166.521,87.767,164.842,90.841,164.842z M90.409,167.068c-0.55,0.144-0.926,0.674-1.127,1.592
				c-0.122,0.547-0.183,1.098-0.183,1.65c0,0.371,0.026,0.746,0.079,1.123c0.14,0.938,0.589,1.423,1.349,1.455h0.092
				c0.708,0,1.192-0.349,1.454-1.045c0.218-0.579,0.328-1.267,0.328-2.062c0-0.195-0.004-0.394-0.013-0.596
				c-0.07-1.048-0.28-1.702-0.629-1.963c-0.218-0.156-0.48-0.234-0.786-0.234C90.797,166.99,90.609,167.017,90.409,167.068z"/>
			<path fill="#FFFFFF" d="M101.112,174.734c0.052-1.861,0.079-3.736,0.079-5.625c0-2.891-0.062-5.812-0.184-8.76
				c1.354-0.104,2.568-0.156,3.642-0.156c2.987,0,4.891,0.407,5.712,1.221c0.769,0.762,1.153,1.603,1.153,2.521
				c0,0.417-0.075,0.847-0.223,1.289c-0.507,1.433-1.572,2.341-3.197,2.725c1.135,0.117,1.996,0.573,2.581,1.367
				c0.559,0.769,0.838,2.702,0.838,5.801v0.42l-3.957,0.039c0.044-0.82,0.065-1.556,0.065-2.207c0-1.973-0.214-3.18-0.642-3.623
				c-0.489-0.494-1.07-0.742-1.743-0.742c-0.131,0-0.267,0.011-0.406,0.029c0.052,1.986,0.166,3.867,0.34,5.646L101.112,174.734z
				 M104.465,162.625l0.092,4.181c1.625-0.06,2.655-0.47,3.092-1.23c0.236-0.403,0.354-0.797,0.354-1.182
				c0-0.332-0.087-0.657-0.262-0.978c-0.314-0.553-1.096-0.83-2.345-0.83C105.107,162.586,104.797,162.6,104.465,162.625z"/>
			<path fill="#FFFFFF" d="M116.885,164.842c3.031,0,4.546,1.502,4.546,4.503c0,0.364-0.022,0.756-0.065,1.172h-5.856
				c0,1.674,0.433,2.51,1.297,2.51h0.092c0.76-0.045,1.14-0.479,1.14-1.299c0-0.176-0.018-0.371-0.052-0.586l3.118-0.05
				c0,2.48-1.454,3.737-4.362,3.771c-0.035,0.007-0.065,0.01-0.092,0.01c-2.769,0-4.153-1.564-4.153-4.697v-0.293
				C112.583,166.521,114.046,164.842,116.885,164.842z M115.195,168.719h2.961v-0.234c0-1.186-0.45-1.777-1.35-1.777
				C115.837,166.707,115.3,167.378,115.195,168.719z"/>
			<path fill="#FFFFFF" d="M122.492,178.768c0.053-2.194,0.079-4.527,0.079-7.002c0-2.252-0.022-4.615-0.066-7.09l3.105-0.011
				l0.104,1.504c0.646-0.729,1.507-1.094,2.581-1.094c2.681,0,4.022,1.579,4.022,4.736v0.194c-0.061,3.164-1.397,4.746-4.009,4.746
				c-0.105,0-0.209-0.003-0.314-0.01c-0.891-0.032-1.611-0.394-2.162-1.084c0,1.445,0.048,3.147,0.144,5.107h-3.484V178.768z
				 M125.767,168.172l0.065,3.673c0.506,0.515,1.018,0.771,1.533,0.771c0.209,0,0.419-0.045,0.629-0.137
				c0.637-0.26,0.957-1.038,0.957-2.334c0-0.156-0.005-0.318-0.013-0.488c-0.087-1.588-0.511-2.425-1.271-2.51
				c-0.079-0.006-0.153-0.01-0.223-0.01C126.78,167.137,126.221,167.482,125.767,168.172z"/>
			<path fill="#FFFFFF" d="M137.61,164.842c3.031,0,4.546,1.502,4.546,4.503c0,0.364-0.022,0.756-0.065,1.172h-5.856
				c0,1.674,0.432,2.51,1.297,2.51h0.092c0.76-0.045,1.14-0.479,1.14-1.299c0-0.176-0.018-0.371-0.052-0.586l3.118-0.05
				c0,2.48-1.455,3.737-4.363,3.771c-0.035,0.007-0.065,0.01-0.092,0.01c-2.769,0-4.153-1.564-4.153-4.697v-0.293
				C133.309,166.521,134.771,164.842,137.61,164.842z M135.92,168.719h2.961v-0.234c0-1.186-0.45-1.777-1.35-1.777
				C136.562,166.707,136.025,167.378,135.92,168.719z"/>
			<path fill="#FFFFFF" d="M145.326,161.727l2.974-0.146v3.232l2.502-0.049l0.039,1.846l-2.541,0.088v4.443
				c0,1.035,0.589,1.553,1.769,1.553c0.244,0,0.511-0.022,0.799-0.068l-0.118,2.148c-0.419,0.039-0.817,0.059-1.192,0.059
				c-2.76,0-4.166-1.061-4.218-3.184v-4.775l-2.148,0.099l-0.053-2.179l2.201,0.021L145.326,161.727z"/>
			<path fill="#FFFFFF" d="M155.597,162.596c0,0.396-0.188,0.735-0.563,1.016s-0.83,0.42-1.362,0.42c-0.524,0-0.974-0.14-1.35-0.42
				c-0.375-0.279-0.563-0.618-0.563-1.016c0-0.392,0.188-0.727,0.563-1.007c0.375-0.278,0.825-0.42,1.35-0.42
				c0.532,0,0.987,0.142,1.362,0.42C155.409,161.87,155.597,162.205,155.597,162.596z M152.086,174.92
				c-0.061-3.809-0.092-7.1-0.092-9.873l3.301-0.146c-0.104,2.656-0.157,5.297-0.157,7.92c0,0.703,0.004,1.403,0.014,2.1
				L152.086,174.92L152.086,174.92z"/>
			<path fill="#FFFFFF" d="M161.676,170.848l3.118,0.146c0,2.352-1.454,3.542-4.362,3.574c-0.035,0.007-0.065,0.01-0.092,0.01
				c-2.769,0-4.153-1.564-4.153-4.697v-0.293c0.087-3.358,1.563-5.055,4.428-5.088h0.104c2.638,0,3.957,1.127,3.957,3.379
				c0,0.132-0.004,0.262-0.013,0.392l-2.816,0.156v-0.234c0-1.186-0.45-1.777-1.35-1.777c-0.917,0-1.375,0.961-1.375,2.881v0.322
				c0.052,2.077,0.515,3.115,1.389,3.115h0.079c0.76-0.045,1.14-0.479,1.14-1.299C161.728,171.258,161.71,171.062,161.676,170.848z"
				/>
			<path fill="#FFFFFF" d="M169.549,162.596c0,0.396-0.188,0.735-0.563,1.016s-0.83,0.42-1.362,0.42c-0.524,0-0.974-0.14-1.35-0.42
				c-0.375-0.279-0.563-0.618-0.563-1.016c0-0.392,0.188-0.727,0.563-1.007c0.375-0.278,0.825-0.42,1.35-0.42
				c0.532,0,0.987,0.142,1.362,0.42C169.361,161.87,169.549,162.205,169.549,162.596z M166.038,174.92
				c-0.061-3.809-0.092-7.1-0.092-9.873l3.301-0.146c-0.104,2.656-0.157,5.297-0.157,7.92c0,0.703,0.004,1.403,0.014,2.1
				L166.038,174.92L166.038,174.92z"/>
			<path fill="#FFFFFF" d="M174.881,164.842c2.969,0,4.455,1.537,4.455,4.609c0,0.124-0.005,0.248-0.013,0.371
				c-0.123,3.327-1.703,5.007-4.743,5.039c-0.035,0.007-0.07,0.01-0.104,0.01c-2.891,0-4.336-1.572-4.336-4.717v-0.273
				C170.226,166.521,171.807,164.842,174.881,164.842z M174.449,167.068c-0.55,0.144-0.926,0.674-1.127,1.592
				c-0.122,0.547-0.183,1.098-0.183,1.65c0,0.371,0.026,0.746,0.079,1.123c0.14,0.938,0.589,1.423,1.35,1.455h0.091
				c0.708,0,1.192-0.349,1.455-1.045c0.218-0.579,0.327-1.267,0.327-2.062c0-0.195-0.004-0.394-0.013-0.596
				c-0.07-1.048-0.279-1.702-0.628-1.963c-0.219-0.156-0.48-0.234-0.786-0.234C174.837,166.99,174.649,167.017,174.449,167.068z
				 M173.178,162.938c1.021-0.904,1.86-1.769,2.515-2.588l2.148,1.27c-0.926,0.678-1.957,1.508-3.092,2.49L173.178,162.938z"/>
			<path fill="#FFFFFF" d="M182.466,164.588l0.131,1.593c0.367-0.847,1.332-1.275,2.896-1.289h0.052
				c1.537,0,2.585,0.448,3.144,1.348c0.384,0.612,0.577,2.045,0.577,4.297c0,1.107-0.048,2.416-0.144,3.926h-3.17
				c0.113-2.012,0.17-3.569,0.17-4.678c0-0.553-0.013-0.996-0.04-1.328c-0.087-0.977-0.506-1.465-1.258-1.465
				c-0.751,0-1.223,0.261-1.415,0.781l0.131,7.08l-3.079,0.02c0-2.994-0.135-6.356-0.406-10.088L182.466,164.588z"/>
		</g>
	</g>
</g>
</svg>
