<?xml version="1.0" encoding="utf-8"?>
<!-- Generator: Adobe Illustrator 16.0.0, SVG Export Plug-In . SVG Version: 6.00 Build 0)  -->
<!DOCTYPE svg PUBLIC "-//W3C//DTD SVG 1.1//EN" "http://www.w3.org/Graphics/SVG/1.1/DTD/svg11.dtd">
<svg version="1.1" id="Capa_1" xmlns="http://www.w3.org/2000/svg" xmlns:xlink="http://www.w3.org/1999/xlink" x="0px" y="0px"
	 width="795.371px" height="336.229px" viewBox="0 0 795.371 336.229" enable-background="new 0 0 795.371 336.229"
	 xml:space="preserve">
<g>
	<rect x="294.799" y="0.5" opacity="0.2" fill="#951B81" enable-background="new    " width="453.488" height="81.76"/>
	<g>
		<g>
			<polyline fill="none" stroke="#951B81" stroke-miterlimit="10" points="748.287,81.76 748.287,82.26 747.787,82.26 			"/>
			
				<line fill="none" stroke="#951B81" stroke-miterlimit="10" stroke-dasharray="0.9989,0.9989" x1="746.788" y1="82.26" x2="295.798" y2="82.26"/>
			<polyline fill="none" stroke="#951B81" stroke-miterlimit="10" points="295.299,82.26 294.799,82.26 294.799,81.76 			"/>
			
				<line fill="none" stroke="#951B81" stroke-miterlimit="10" stroke-dasharray="0.997,0.997" x1="294.799" y1="80.763" x2="294.799" y2="1.499"/>
			<polyline fill="none" stroke="#951B81" stroke-miterlimit="10" points="294.799,1 294.799,0.5 295.299,0.5 			"/>
			
				<line fill="none" stroke="#951B81" stroke-miterlimit="10" stroke-dasharray="0.9989,0.9989" x1="296.297" y1="0.5" x2="747.288" y2="0.5"/>
			<polyline fill="none" stroke="#951B81" stroke-miterlimit="10" points="747.787,0.5 748.287,0.5 748.287,1 			"/>
			
				<line fill="none" stroke="#951B81" stroke-miterlimit="10" stroke-dasharray="0.997,0.997" x1="748.287" y1="1.997" x2="748.287" y2="81.261"/>
		</g>
	</g>
	<rect y="140.761" fill="#331842" width="239.093" height="32"/>
	<rect y="184.709" fill="#331842" width="239.093" height="32"/>
	<rect y="228.656" fill="#331842" width="239.093" height="46.65"/>
	<rect y="288.607" fill="#331842" width="239.093" height="46.033"/>
	<g>
		<path fill="#FFFFFF" d="M57.813,152.203c2.574,0,3.861,1.641,3.861,4.922c0,3.286-1.379,4.929-4.136,4.929
			c-2.757,0-4.136-1.702-4.136-5.106C53.402,153.785,54.872,152.203,57.813,152.203z M55.979,157.31
			c-0.006,0.119-0.009,0.232-0.009,0.342c0,1.72,0.538,2.577,1.614,2.577c1.143,0,1.715-0.973,1.715-2.919s-0.532-2.919-1.596-2.919
			C56.633,154.391,56.058,155.364,55.979,157.31z"/>
		<path fill="#FFFFFF" d="M64.755,152.606c-0.067,1.372-0.101,2.563-0.101,3.575c0.324-0.433,0.737-0.686,1.238-0.759
			c0.085-0.004,0.168-0.007,0.248-0.007c1.993,0,3.011,1.071,3.054,3.22v0.123c0,2.151-1.061,3.227-3.182,3.227
			c-0.508,0-0.987-0.253-1.44-0.759l-0.073,1.046l-2.173-0.007c0.031-1.668,0.046-3.271,0.046-4.812
			c0-1.691-0.019-3.308-0.055-4.849L64.755,152.606L64.755,152.606z M64.654,157.46l-0.046,2.365
			c0.318,0.481,0.721,0.725,1.21,0.725c0.055,0,0.11-0.002,0.165-0.007c0.562-0.061,0.874-0.622,0.935-1.688
			c0.006-0.107,0.009-0.214,0.009-0.312c0-0.875-0.238-1.397-0.715-1.565c-0.147-0.05-0.291-0.075-0.431-0.075
			C65.397,156.899,65.021,157.086,64.654,157.46z"/>
		<path fill="#FFFFFF" d="M72.495,162.163l-2.283,0.155c0.024-1.508,0.037-2.96,0.037-4.354c0-1.959-0.024-3.81-0.073-5.544
			l2.247-0.027c-0.024,1.117-0.037,2.263-0.037,3.438C72.385,157.861,72.421,159.971,72.495,162.163z"/>
		<path fill="#FFFFFF" d="M75.851,153.687c0,0.278-0.132,0.517-0.395,0.711c-0.263,0.196-0.581,0.294-0.954,0.294
			c-0.367,0-0.682-0.098-0.944-0.294c-0.263-0.194-0.395-0.433-0.395-0.711c0-0.271,0.131-0.508,0.395-0.704
			c0.263-0.194,0.578-0.294,0.944-0.294c0.373,0,0.691,0.1,0.954,0.294C75.719,153.178,75.851,153.413,75.851,153.687z
			 M73.393,162.313c-0.043-2.666-0.064-4.97-0.064-6.911l2.311-0.103c-0.073,1.859-0.11,3.708-0.11,5.544
			c0,0.492,0.003,0.982,0.009,1.47H73.393z"/>
		<path fill="#FFFFFF" d="M76.612,163.072l2.155-0.089c-0.006,0.057-0.009,0.109-0.009,0.164c0,0.497,0.266,0.77,0.798,0.813
			c0.086,0.009,0.165,0.014,0.239,0.014c0.459,0,0.785-0.137,0.981-0.41c0.171-0.246,0.257-0.707,0.257-1.381
			c0-0.182-0.006-0.383-0.018-0.602c-0.343,0.51-0.978,0.789-1.907,0.834c-1.816-0.016-2.724-1.165-2.724-3.452v-0.048
			c0.012-2.315,1.091-3.479,3.237-3.493c0.587,0,1.113,0.255,1.577,0.766l0.028-1.087l2.008,0.068c0,3.76-0.015,6.088-0.046,6.984
			c-0.031,0.898-0.212,1.618-0.546,2.16s-0.9,0.891-1.701,1.039c-0.422,0.082-0.841,0.123-1.256,0.123
			c-0.373,0-0.743-0.032-1.109-0.096c-0.783-0.137-1.321-0.396-1.614-0.772c-0.245-0.31-0.367-0.715-0.367-1.217
			C76.594,163.293,76.6,163.186,76.612,163.072z M80.996,160.365v-2.773c-0.3-0.451-0.679-0.677-1.137-0.677
			c-0.092,0-0.187,0.009-0.284,0.025c-0.593,0.105-0.92,0.713-0.981,1.825c-0.006,0.119-0.009,0.232-0.009,0.342
			c0,0.907,0.226,1.463,0.678,1.668c0.153,0.073,0.315,0.109,0.486,0.109C80.127,160.885,80.543,160.711,80.996,160.365z"/>
		<path fill="#FFFFFF" d="M87.488,155.061c2.011,0.082,3.017,0.836,3.017,2.263v4.854l-2.137,0.027l-0.073-0.649
			c-0.44,0.374-1.024,0.562-1.752,0.562c-0.312,0-0.648-0.037-1.009-0.109c-1.082-0.201-1.623-0.825-1.623-1.873
			c0-0.127,0.009-0.264,0.028-0.41c0.122-1.08,1.152-1.62,3.09-1.62c0.373,0,0.782,0.021,1.229,0.062v-0.793
			c0-0.645-0.272-0.964-0.816-0.964h-0.037c-0.043-0.006-0.083-0.009-0.119-0.009c-0.593,0-0.89,0.36-0.89,1.08v0.104l-2.183-0.139
			c0-1.59,1.027-2.386,3.081-2.386h0.194V155.061L87.488,155.061z M88.259,160.461v-1.203c-0.263-0.041-0.501-0.062-0.715-0.062
			c-0.557,0-0.936,0.141-1.137,0.417c-0.123,0.168-0.184,0.326-0.184,0.474c0,0.182,0.098,0.344,0.293,0.483
			c0.153,0.109,0.352,0.164,0.596,0.164C87.424,160.734,87.806,160.643,88.259,160.461z"/>
		<path fill="#FFFFFF" d="M94.99,159.463l2.183,0.103c0,1.646-1.018,2.479-3.054,2.502c-0.025,0.004-0.046,0.009-0.064,0.009
			c-1.938,0-2.907-1.098-2.907-3.288v-0.205c0.061-2.354,1.094-3.539,3.1-3.562h0.073c1.846,0,2.77,0.789,2.77,2.365
			c0,0.091-0.003,0.182-0.009,0.273l-1.972,0.107v-0.164c0-0.83-0.315-1.244-0.944-1.244c-0.642,0-0.963,0.672-0.963,2.019v0.226
			c0.037,1.454,0.361,2.182,0.972,2.182h0.055c0.532-0.031,0.798-0.336,0.798-0.908C95.026,159.75,95.014,159.613,94.99,159.463z"/>
		<path fill="#FFFFFF" d="M100.501,153.687c0,0.278-0.131,0.517-0.394,0.711c-0.263,0.196-0.581,0.294-0.954,0.294
			c-0.367,0-0.682-0.098-0.944-0.294c-0.263-0.194-0.395-0.433-0.395-0.711c0-0.271,0.132-0.508,0.395-0.704
			c0.263-0.194,0.578-0.294,0.944-0.294c0.373,0,0.691,0.1,0.954,0.294C100.37,153.179,100.501,153.413,100.501,153.687z
			 M98.043,162.313c-0.043-2.666-0.064-4.97-0.064-6.911l2.311-0.103c-0.073,1.859-0.11,3.708-0.11,5.544
			c0,0.492,0.003,0.982,0.009,1.47H98.043z"/>
		<path fill="#FFFFFF" d="M104.233,155.259c2.079,0,3.118,1.076,3.118,3.227c0,0.086-0.003,0.175-0.009,0.262
			c-0.086,2.329-1.192,3.504-3.32,3.525c-0.024,0.004-0.049,0.007-0.073,0.007c-2.024,0-3.035-1.101-3.035-3.302v-0.189
			C100.975,156.435,102.082,155.259,104.233,155.259z M103.931,156.817c-0.385,0.102-0.648,0.474-0.789,1.114
			c-0.085,0.383-0.128,0.768-0.128,1.155c0,0.26,0.019,0.521,0.055,0.786c0.098,0.654,0.413,0.996,0.945,1.019h0.064
			c0.495,0,0.834-0.244,1.018-0.729c0.153-0.406,0.229-0.888,0.229-1.442c0-0.137-0.003-0.276-0.009-0.417
			c-0.049-0.734-0.196-1.192-0.44-1.374c-0.153-0.109-0.336-0.164-0.55-0.164C104.203,156.763,104.071,156.781,103.931,156.817z
			 M103.041,153.926c0.715-0.633,1.302-1.237,1.761-1.812l1.504,0.891c-0.648,0.474-1.37,1.055-2.165,1.743L103.041,153.926z"/>
		<path fill="#FFFFFF" d="M109.543,155.081l0.092,1.112c0.257-0.592,0.932-0.893,2.027-0.9h0.037c1.076,0,1.81,0.312,2.201,0.941
			c0.269,0.43,0.404,1.433,0.404,3.01c0,0.773-0.034,1.689-0.101,2.748h-2.219c0.079-1.408,0.119-2.5,0.119-3.274
			c0-0.387-0.009-0.697-0.027-0.93c-0.061-0.686-0.355-1.025-0.88-1.025c-0.526,0-0.856,0.182-0.99,0.547l0.092,4.956l-2.155,0.014
			c0-2.096-0.095-4.448-0.284-7.062L109.543,155.081z"/>
		<path fill="#FFFFFF" d="M125.417,152.606c-0.037,1.541-0.055,3.156-0.055,4.849c0,1.541,0.015,3.145,0.046,4.812l-2.174,0.007
			l-0.073-1.046c-0.453,0.506-1.055,0.759-1.807,0.759c-1.877,0-2.815-1.069-2.815-3.213c0-0.045,0.003-0.091,0.009-0.137
			c0.037-2.146,0.966-3.22,2.788-3.22c0.073,0,0.149,0.002,0.229,0.007c0.624,0.026,1.128,0.28,1.513,0.759
			c0-1.012-0.034-2.204-0.101-3.575L125.417,152.606L125.417,152.606z M123.125,159.825l-0.046-2.365
			c-0.354-0.36-0.718-0.54-1.091-0.54c-0.153,0-0.306,0.03-0.458,0.089c-0.483,0.187-0.725,0.711-0.725,1.572
			c0,0.1,0.003,0.203,0.009,0.308c0.061,1.043,0.373,1.595,0.936,1.654c0.055,0.004,0.11,0.007,0.165,0.007
			C122.403,160.55,122.807,160.308,123.125,159.825z"/>
		<path fill="#FFFFFF" d="M129.122,155.259c2.121,0,3.182,1.05,3.182,3.151c0,0.255-0.015,0.527-0.046,0.818h-4.099
			c0,1.171,0.302,1.757,0.908,1.757h0.064c0.532-0.03,0.798-0.335,0.798-0.907c0-0.123-0.012-0.262-0.037-0.41l2.183-0.034
			c0,1.736-1.018,2.616-3.054,2.639c-0.024,0.004-0.046,0.007-0.064,0.007c-1.938,0-2.907-1.096-2.907-3.286v-0.205
			C126.111,156.435,127.135,155.259,129.122,155.259z M127.939,157.973h2.072v-0.164c0-0.83-0.315-1.244-0.944-1.244
			C128.388,156.564,128.012,157.034,127.939,157.973z"/>
		<path fill="#FFFFFF" d="M136.559,162.184c0.037-1.303,0.055-2.616,0.055-3.938c0-2.023-0.043-4.067-0.128-6.134
			c0.947-0.071,1.797-0.107,2.549-0.107c2.091,0,3.423,0.285,3.998,0.854c0.538,0.533,0.807,1.121,0.807,1.766
			c0,0.292-0.052,0.592-0.156,0.9c-0.355,1.002-1.101,1.64-2.238,1.907c0.795,0.082,1.397,0.401,1.807,0.957
			c0.391,0.538,0.587,1.891,0.587,4.062v0.294l-2.77,0.025c0.031-0.574,0.046-1.089,0.046-1.545c0-1.381-0.15-2.226-0.449-2.536
			c-0.343-0.346-0.749-0.52-1.22-0.52c-0.092,0-0.187,0.007-0.284,0.021c0.037,1.392,0.116,2.707,0.238,3.951L136.559,162.184z
			 M138.907,153.707l0.064,2.926c1.137-0.041,1.858-0.328,2.164-0.861c0.165-0.283,0.248-0.558,0.248-0.827
			c0-0.23-0.061-0.46-0.184-0.684c-0.22-0.387-0.767-0.581-1.642-0.581C139.356,153.68,139.139,153.689,138.907,153.707z"/>
		<path fill="#FFFFFF" d="M147.6,155.259c2.122,0,3.182,1.05,3.182,3.151c0,0.255-0.015,0.527-0.046,0.818h-4.099
			c0,1.171,0.303,1.757,0.908,1.757h0.064c0.532-0.03,0.798-0.335,0.798-0.907c0-0.123-0.012-0.262-0.037-0.41l2.183-0.034
			c0,1.736-1.018,2.616-3.054,2.639c-0.025,0.004-0.046,0.007-0.064,0.007c-1.938,0-2.907-1.096-2.907-3.286v-0.205
			C144.589,156.435,145.613,155.259,147.6,155.259z M146.417,157.973h2.073v-0.164c0-0.83-0.315-1.244-0.944-1.244
			C146.867,156.564,146.491,157.034,146.417,157.973z"/>
		<path fill="#FFFFFF" d="M151.36,159.853l2.1-0.075v0.091c0,0.7,0.29,1.057,0.871,1.064h0.037c0.562,0,0.844-0.203,0.844-0.606
			v-0.05c-0.025-0.445-0.58-0.807-1.665-1.08c-1.085-0.271-1.738-0.732-1.958-1.381c-0.08-0.228-0.119-0.445-0.119-0.654
			c0-0.385,0.131-0.738,0.394-1.066c0.404-0.501,1.015-0.789,1.834-0.861c0.22-0.018,0.434-0.025,0.642-0.025
			c0.544,0,1.024,0.069,1.44,0.212c0.569,0.195,0.963,0.476,1.183,0.841c0.146,0.25,0.22,0.529,0.22,0.834
			c0,0.146-0.015,0.296-0.046,0.451l-1.963,0.034c0.018-0.114,0.028-0.221,0.028-0.314c0-0.456-0.196-0.7-0.587-0.729
			c-0.043-0.006-0.086-0.009-0.128-0.009c-0.404,0-0.676,0.153-0.816,0.458c-0.049,0.105-0.073,0.201-0.073,0.287
			c0,0.214,0.135,0.399,0.404,0.556c0.379,0.219,0.94,0.439,1.683,0.667c0.743,0.226,1.243,0.607,1.499,1.15
			c0.092,0.205,0.137,0.41,0.137,0.615c0,0.346-0.134,0.695-0.403,1.046c-0.428,0.562-1.091,0.886-1.99,0.979
			c-0.196,0.021-0.388,0.032-0.578,0.032c-0.672,0-1.296-0.13-1.871-0.39C151.745,161.591,151.372,160.901,151.36,159.853z"/>
		<path fill="#FFFFFF" d="M158.036,165.007c0.037-1.536,0.055-3.169,0.055-4.901c0-1.577-0.015-3.229-0.046-4.963l2.173-0.007
			l0.073,1.053c0.453-0.51,1.055-0.766,1.807-0.766c1.877,0,2.815,1.104,2.815,3.313v0.139c-0.043,2.215-0.978,3.32-2.806,3.32
			c-0.073,0-0.147-0.002-0.22-0.007c-0.624-0.021-1.128-0.274-1.513-0.759c0,1.012,0.034,2.204,0.101,3.575L158.036,165.007
			L158.036,165.007z M160.329,157.59l0.046,2.57c0.354,0.358,0.712,0.54,1.073,0.54c0.146,0,0.293-0.032,0.44-0.098
			c0.446-0.182,0.669-0.727,0.669-1.634c0-0.109-0.003-0.223-0.009-0.342c-0.061-1.112-0.358-1.698-0.889-1.757
			c-0.055-0.005-0.107-0.009-0.156-0.009C161.038,156.865,160.646,157.107,160.329,157.59z"/>
		<path fill="#FFFFFF" d="M168.619,155.259c2.122,0,3.182,1.05,3.182,3.151c0,0.255-0.015,0.527-0.046,0.818h-4.099
			c0,1.171,0.303,1.757,0.908,1.757h0.064c0.532-0.03,0.798-0.335,0.798-0.907c0-0.123-0.012-0.262-0.037-0.41l2.183-0.034
			c0,1.736-1.018,2.616-3.054,2.639c-0.025,0.004-0.046,0.007-0.064,0.007c-1.938,0-2.907-1.096-2.907-3.286v-0.205
			C165.608,156.435,166.632,155.259,168.619,155.259z M167.436,157.973h2.073v-0.164c0-0.83-0.315-1.244-0.944-1.244
			C167.885,156.564,167.509,157.034,167.436,157.973z"/>
		<path fill="#FFFFFF" d="M174.02,153.078l2.082-0.104v2.263l1.751-0.032l0.027,1.292l-1.779,0.062v3.11
			c0,0.725,0.413,1.087,1.238,1.087c0.171,0,0.358-0.018,0.56-0.048l-0.083,1.504c-0.293,0.025-0.572,0.041-0.834,0.041
			c-1.932,0-2.917-0.743-2.953-2.229v-3.343l-1.504,0.068l-0.037-1.524l1.541,0.014L174.02,153.078z"/>
		<path fill="#FFFFFF" d="M181.87,155.259c2.079,0,3.118,1.076,3.118,3.227c0,0.086-0.003,0.175-0.009,0.262
			c-0.086,2.329-1.192,3.504-3.32,3.525c-0.024,0.004-0.049,0.007-0.073,0.007c-2.024,0-3.036-1.101-3.036-3.302v-0.189
			C178.611,156.435,179.718,155.259,181.87,155.259z M181.567,156.817c-0.385,0.102-0.648,0.474-0.789,1.114
			c-0.086,0.383-0.128,0.768-0.128,1.155c0,0.26,0.018,0.521,0.055,0.786c0.098,0.654,0.413,0.996,0.944,1.019h0.064
			c0.495,0,0.834-0.244,1.018-0.729c0.153-0.406,0.229-0.888,0.229-1.442c0-0.137-0.003-0.276-0.009-0.417
			c-0.049-0.734-0.196-1.192-0.44-1.374c-0.153-0.109-0.336-0.164-0.55-0.164C181.839,156.763,181.708,156.781,181.567,156.817z"/>
		<path fill="#FFFFFF" d="M55.208,195.203c2.574,0,3.861,1.641,3.861,4.922c0,3.286-1.379,4.929-4.136,4.929
			c-2.757,0-4.136-1.702-4.136-5.106C50.797,196.785,52.268,195.203,55.208,195.203z M53.375,200.31
			c-0.006,0.119-0.009,0.232-0.009,0.342c0,1.72,0.538,2.577,1.614,2.577c1.143,0,1.715-0.973,1.715-2.919s-0.532-2.919-1.596-2.919
			C54.029,197.391,53.454,198.364,53.375,200.31z"/>
		<path fill="#FFFFFF" d="M62.15,195.606c-0.067,1.372-0.101,2.563-0.101,3.575c0.324-0.433,0.737-0.686,1.238-0.759
			c0.085-0.004,0.168-0.007,0.248-0.007c1.993,0,3.011,1.071,3.054,3.22v0.123c0,2.151-1.061,3.227-3.182,3.227
			c-0.507,0-0.987-0.253-1.44-0.759l-0.073,1.046l-2.173-0.007c0.031-1.668,0.046-3.271,0.046-4.812
			c0-1.691-0.018-3.308-0.055-4.849L62.15,195.606L62.15,195.606z M62.05,200.46l-0.046,2.365c0.318,0.481,0.721,0.725,1.21,0.725
			c0.055,0,0.11-0.002,0.165-0.007c0.562-0.061,0.874-0.622,0.935-1.688c0.006-0.107,0.009-0.214,0.009-0.312
			c0-0.875-0.238-1.397-0.715-1.565c-0.146-0.05-0.29-0.075-0.431-0.075C62.792,199.899,62.417,200.086,62.05,200.46z"/>
		<path fill="#FFFFFF" d="M69.89,205.163l-2.283,0.155c0.024-1.508,0.037-2.96,0.037-4.354c0-1.959-0.024-3.809-0.073-5.544
			l2.247-0.027c-0.024,1.117-0.037,2.265-0.037,3.438C69.78,200.861,69.817,202.971,69.89,205.163z"/>
		<path fill="#FFFFFF" d="M73.247,196.687c0,0.278-0.131,0.517-0.394,0.711c-0.263,0.196-0.581,0.294-0.954,0.294
			c-0.367,0-0.682-0.098-0.944-0.294c-0.263-0.194-0.395-0.433-0.395-0.711c0-0.271,0.132-0.508,0.395-0.704
			c0.263-0.194,0.578-0.294,0.944-0.294c0.373,0,0.691,0.1,0.954,0.294C73.116,196.179,73.247,196.413,73.247,196.687z
			 M70.789,205.313c-0.043-2.666-0.064-4.97-0.064-6.911l2.311-0.103c-0.073,1.859-0.11,3.708-0.11,5.544
			c0,0.492,0.003,0.982,0.009,1.47H70.789L70.789,205.313z"/>
		<path fill="#FFFFFF" d="M74.008,206.072l2.155-0.089c-0.006,0.057-0.009,0.109-0.009,0.164c0,0.497,0.266,0.77,0.798,0.813
			c0.085,0.009,0.165,0.014,0.238,0.014c0.458,0,0.786-0.137,0.981-0.41c0.171-0.246,0.257-0.707,0.257-1.381
			c0-0.182-0.006-0.383-0.018-0.602c-0.342,0.51-0.978,0.789-1.907,0.834c-1.816-0.016-2.724-1.165-2.724-3.452v-0.048
			c0.012-2.315,1.091-3.479,3.237-3.493c0.587,0,1.113,0.255,1.577,0.766l0.028-1.087l2.008,0.068c0,3.76-0.015,6.088-0.046,6.984
			c-0.031,0.898-0.212,1.618-0.546,2.16s-0.9,0.891-1.701,1.039c-0.422,0.082-0.841,0.123-1.256,0.123
			c-0.373,0-0.743-0.032-1.11-0.096c-0.782-0.137-1.32-0.396-1.614-0.772c-0.245-0.31-0.367-0.715-0.367-1.217
			C73.99,206.293,73.996,206.186,74.008,206.072z M78.391,203.365v-2.773c-0.3-0.451-0.678-0.677-1.137-0.677
			c-0.092,0-0.187,0.009-0.284,0.025c-0.593,0.105-0.92,0.713-0.981,1.825c-0.006,0.119-0.009,0.232-0.009,0.342
			c0,0.907,0.226,1.463,0.679,1.668c0.153,0.073,0.315,0.109,0.486,0.109C77.523,203.885,77.939,203.711,78.391,203.365z"/>
		<path fill="#FFFFFF" d="M84.884,198.061c2.011,0.082,3.017,0.836,3.017,2.265v4.854l-2.137,0.027l-0.073-0.649
			c-0.44,0.374-1.024,0.562-1.751,0.562c-0.312,0-0.648-0.037-1.009-0.109c-1.082-0.201-1.623-0.825-1.623-1.873
			c0-0.127,0.009-0.264,0.027-0.41c0.122-1.08,1.152-1.62,3.09-1.62c0.373,0,0.783,0.021,1.229,0.062v-0.793
			c0-0.645-0.272-0.964-0.816-0.964h-0.037c-0.043-0.006-0.083-0.009-0.119-0.009c-0.593,0-0.89,0.36-0.89,1.08v0.104l-2.182-0.137
			c0-1.592,1.027-2.388,3.081-2.388h0.193V198.061L84.884,198.061z M85.654,203.461v-1.203c-0.263-0.041-0.501-0.062-0.715-0.062
			c-0.556,0-0.936,0.141-1.137,0.417c-0.122,0.168-0.183,0.326-0.183,0.474c0,0.182,0.098,0.344,0.293,0.483
			c0.153,0.109,0.351,0.164,0.596,0.164C84.82,203.734,85.202,203.643,85.654,203.461z"/>
		<path fill="#FFFFFF" d="M92.385,202.463l2.183,0.103c0,1.646-1.018,2.479-3.054,2.502c-0.024,0.004-0.046,0.009-0.064,0.009
			c-1.938,0-2.907-1.098-2.907-3.288v-0.205c0.061-2.354,1.094-3.539,3.1-3.562h0.073c1.846,0,2.77,0.789,2.77,2.365
			c0,0.091-0.003,0.182-0.009,0.273l-1.972,0.107v-0.164c0-0.83-0.315-1.244-0.944-1.244c-0.642,0-0.963,0.672-0.963,2.019v0.226
			c0.037,1.454,0.361,2.183,0.972,2.183h0.055c0.532-0.032,0.798-0.336,0.798-0.909C92.422,202.75,92.41,202.613,92.385,202.463z"/>
		<path fill="#FFFFFF" d="M97.897,196.687c0,0.278-0.132,0.517-0.394,0.711c-0.263,0.196-0.581,0.294-0.954,0.294
			c-0.367,0-0.682-0.098-0.945-0.294c-0.263-0.194-0.394-0.433-0.394-0.711c0-0.271,0.132-0.508,0.394-0.704
			c0.262-0.194,0.578-0.294,0.945-0.294c0.373,0,0.691,0.1,0.954,0.294C97.765,196.178,97.897,196.413,97.897,196.687z
			 M95.439,205.313c-0.043-2.666-0.064-4.97-0.064-6.911l2.311-0.103c-0.073,1.859-0.11,3.708-0.11,5.544
			c0,0.492,0.003,0.982,0.009,1.47H95.439L95.439,205.313z"/>
		<path fill="#FFFFFF" d="M101.629,198.259c2.078,0,3.118,1.076,3.118,3.227c0,0.086-0.003,0.175-0.009,0.262
			c-0.085,2.329-1.192,3.504-3.32,3.525c-0.025,0.004-0.049,0.007-0.073,0.007c-2.023,0-3.035-1.101-3.035-3.302v-0.189
			C98.371,199.435,99.477,198.259,101.629,198.259z M101.327,199.817c-0.385,0.102-0.648,0.474-0.789,1.114
			c-0.086,0.383-0.128,0.77-0.128,1.155c0,0.26,0.018,0.521,0.055,0.786c0.098,0.654,0.413,0.996,0.945,1.019h0.064
			c0.495,0,0.834-0.244,1.018-0.729c0.153-0.406,0.229-0.888,0.229-1.442c0-0.137-0.003-0.276-0.009-0.417
			c-0.049-0.734-0.196-1.192-0.44-1.374c-0.153-0.109-0.336-0.164-0.55-0.164C101.598,199.763,101.467,199.781,101.327,199.817z
			 M100.437,196.926c0.715-0.633,1.302-1.237,1.761-1.812l1.504,0.891c-0.648,0.474-1.37,1.055-2.164,1.743L100.437,196.926z"/>
		<path fill="#FFFFFF" d="M106.939,198.081l0.092,1.112c0.257-0.592,0.932-0.893,2.027-0.9h0.037c1.076,0,1.81,0.312,2.201,0.941
			c0.269,0.43,0.404,1.433,0.404,3.01c0,0.773-0.034,1.689-0.101,2.748h-2.219c0.08-1.408,0.119-2.5,0.119-3.274
			c0-0.387-0.009-0.697-0.027-0.93c-0.061-0.686-0.354-1.025-0.88-1.025c-0.526,0-0.856,0.182-0.99,0.547l0.092,4.956l-2.155,0.014
			c0-2.096-0.095-4.448-0.284-7.062L106.939,198.081z"/>
		<path fill="#FFFFFF" d="M122.813,195.606c-0.037,1.541-0.055,3.156-0.055,4.849c0,1.541,0.015,3.145,0.046,4.812l-2.174,0.007
			l-0.073-1.046c-0.452,0.506-1.054,0.759-1.806,0.759c-1.877,0-2.815-1.069-2.815-3.213c0-0.045,0.003-0.091,0.009-0.137
			c0.037-2.146,0.966-3.22,2.788-3.22c0.073,0,0.15,0.002,0.229,0.007c0.624,0.027,1.128,0.28,1.513,0.759
			c0-1.012-0.034-2.204-0.101-3.575L122.813,195.606L122.813,195.606z M120.52,202.825l-0.046-2.365
			c-0.354-0.36-0.718-0.54-1.091-0.54c-0.153,0-0.306,0.03-0.458,0.089c-0.483,0.187-0.724,0.711-0.724,1.572
			c0,0.1,0.003,0.203,0.009,0.308c0.061,1.043,0.373,1.595,0.936,1.654c0.055,0.004,0.11,0.007,0.165,0.007
			C119.799,203.55,120.202,203.308,120.52,202.825z"/>
		<path fill="#FFFFFF" d="M126.518,198.259c2.121,0,3.182,1.05,3.182,3.151c0,0.255-0.015,0.527-0.046,0.818h-4.099
			c0,1.171,0.302,1.757,0.908,1.757h0.064c0.532-0.03,0.798-0.335,0.798-0.907c0-0.123-0.012-0.262-0.037-0.41l2.182-0.034
			c0,1.736-1.018,2.616-3.054,2.639c-0.024,0.004-0.046,0.007-0.064,0.007c-1.938,0-2.907-1.096-2.907-3.286v-0.205
			C123.506,199.435,124.531,198.259,126.518,198.259z M125.334,200.973h2.073v-0.164c0-0.83-0.315-1.244-0.945-1.244
			C125.784,199.564,125.408,200.034,125.334,200.973z"/>
		<path fill="#FFFFFF" d="M141.529,199.065l-2.082,0.016c-0.031-1.158-0.422-1.768-1.174-1.825h-0.165
			c-0.673,0-1.217,0.331-1.632,0.991c-0.416,0.659-0.624,1.597-0.624,2.81v0.301c0.037,1.358,0.675,2.037,1.917,2.037
			c0.856,0,1.284-0.52,1.284-1.559c0-0.105-0.003-0.212-0.009-0.321l-1.825,0.021l0.092-1.538l4.686,0.055v1.675l-0.935,0.015
			c0,2.38-1.272,3.567-3.815,3.567c-2.354,0-3.531-1.397-3.531-4.197c0-0.23,0.009-0.476,0.027-0.729
			c0.214-3.286,1.617-4.997,4.209-5.134c0.128-0.004,0.25-0.009,0.367-0.009c2.158,0,3.237,1.084,3.237,3.256
			C141.557,198.673,141.548,198.865,141.529,199.065z"/>
		<path fill="#FFFFFF" d="M146.353,198.061c2.011,0.082,3.017,0.836,3.017,2.265v4.854l-2.137,0.027l-0.073-0.649
			c-0.44,0.374-1.024,0.562-1.751,0.562c-0.312,0-0.648-0.037-1.009-0.109c-1.082-0.201-1.623-0.825-1.623-1.873
			c0-0.127,0.009-0.264,0.027-0.41c0.122-1.08,1.152-1.62,3.09-1.62c0.373,0,0.783,0.021,1.229,0.062v-0.793
			c0-0.645-0.272-0.964-0.816-0.964h-0.037c-0.043-0.006-0.083-0.009-0.119-0.009c-0.593,0-0.89,0.36-0.89,1.08v0.104l-2.182-0.137
			c0-1.592,1.027-2.388,3.081-2.388h0.193V198.061L146.353,198.061z M147.124,203.461v-1.203c-0.263-0.041-0.501-0.062-0.715-0.062
			c-0.556,0-0.936,0.141-1.137,0.417c-0.122,0.168-0.183,0.326-0.183,0.474c0,0.182,0.098,0.344,0.293,0.483
			c0.153,0.109,0.351,0.164,0.596,0.164C146.289,203.734,146.671,203.643,147.124,203.461z"/>
		<path fill="#FFFFFF" d="M152.543,200.378l0.092,4.956l-2.247,0.014c0-2.096-0.095-4.45-0.284-7.062l1.687-0.139l0.092,1.114
			c0.257-0.547,0.856-0.859,1.797-0.937c0.141-0.011,0.275-0.016,0.404-0.016c0.74,0,1.302,0.182,1.687,0.54
			c0.446,0.428,0.672,1.11,0.678,2.044l-2.036,0.15c0.006-0.078,0.009-0.153,0.009-0.228c0-0.729-0.254-1.094-0.761-1.094h-0.037
			C153.039,199.751,152.678,199.968,152.543,200.378z"/>
		<path fill="#FFFFFF" d="M160.613,198.061c2.011,0.082,3.017,0.836,3.017,2.265v4.854l-2.137,0.027l-0.073-0.649
			c-0.44,0.374-1.024,0.562-1.752,0.562c-0.312,0-0.648-0.037-1.009-0.109c-1.082-0.201-1.623-0.825-1.623-1.873
			c0-0.127,0.009-0.264,0.028-0.41c0.122-1.08,1.152-1.62,3.091-1.62c0.373,0,0.782,0.021,1.229,0.062v-0.793
			c0-0.645-0.272-0.964-0.816-0.964h-0.037c-0.043-0.006-0.083-0.009-0.119-0.009c-0.593,0-0.889,0.36-0.889,1.08v0.104
			l-2.183-0.137c0-1.592,1.027-2.388,3.081-2.388h0.192V198.061z M161.383,203.461v-1.203c-0.263-0.041-0.501-0.062-0.715-0.062
			c-0.556,0-0.935,0.141-1.137,0.417c-0.122,0.168-0.183,0.326-0.183,0.474c0,0.182,0.098,0.344,0.293,0.483
			c0.153,0.109,0.352,0.164,0.596,0.164C160.549,203.734,160.931,203.643,161.383,203.461z"/>
		<path fill="#FFFFFF" d="M166.051,198.081l0.092,1.112c0.257-0.592,0.932-0.893,2.027-0.9h0.037c1.076,0,1.81,0.312,2.201,0.941
			c0.269,0.43,0.403,1.433,0.403,3.01c0,0.773-0.034,1.689-0.101,2.748h-2.219c0.079-1.408,0.119-2.5,0.119-3.274
			c0-0.387-0.009-0.697-0.028-0.93c-0.061-0.686-0.354-1.025-0.88-1.025c-0.526,0-0.856,0.182-0.99,0.547l0.092,4.956l-2.155,0.014
			c0-2.096-0.095-4.448-0.284-7.062L166.051,198.081z"/>
		<path fill="#FFFFFF" d="M173.103,196.078l2.082-0.104v2.263l1.751-0.032l0.027,1.292l-1.779,0.062v3.11
			c0,0.725,0.413,1.087,1.238,1.087c0.171,0,0.358-0.018,0.56-0.048l-0.083,1.504c-0.293,0.025-0.572,0.041-0.834,0.041
			c-1.932,0-2.917-0.743-2.953-2.229v-3.343l-1.504,0.068l-0.037-1.524l1.541,0.014L173.103,196.078z"/>
		<path fill="#FFFFFF" d="M177.835,205.313c-0.043-2.666-0.064-4.97-0.064-6.911l2.311-0.103c-0.073,1.859-0.11,3.708-0.11,5.544
			c0,0.492,0.003,0.982,0.009,1.47H177.835L177.835,205.313z M177.835,196.926c0.715-0.633,1.302-1.237,1.761-1.812l1.504,0.891
			c-0.648,0.474-1.37,1.055-2.164,1.743L177.835,196.926z"/>
		<path fill="#FFFFFF" d="M184.346,198.061c2.011,0.082,3.017,0.836,3.017,2.265v4.854l-2.137,0.027l-0.073-0.649
			c-0.44,0.374-1.024,0.562-1.752,0.562c-0.312,0-0.648-0.037-1.009-0.109c-1.082-0.201-1.623-0.825-1.623-1.873
			c0-0.127,0.009-0.264,0.028-0.41c0.122-1.08,1.152-1.62,3.091-1.62c0.373,0,0.782,0.021,1.229,0.062v-0.793
			c0-0.645-0.272-0.964-0.816-0.964h-0.037c-0.043-0.006-0.083-0.009-0.119-0.009c-0.593,0-0.889,0.36-0.889,1.08v0.104
			l-2.183-0.137c0-1.592,1.027-2.388,3.081-2.388h0.192V198.061z M185.116,203.461v-1.203c-0.263-0.041-0.501-0.062-0.715-0.062
			c-0.556,0-0.935,0.141-1.137,0.417c-0.122,0.168-0.183,0.326-0.183,0.474c0,0.182,0.098,0.344,0.293,0.483
			c0.153,0.109,0.352,0.164,0.596,0.164C184.282,203.734,184.664,203.643,185.116,203.461z"/>
		<path fill="#FFFFFF" d="M52.32,248.006c1.149-3.894,2.079-7.191,2.788-9.898l3.439-0.041c0.844,2.816,1.81,6.025,2.898,9.625
			l-2.348,0.355l-0.743-2.591h-2.852l-0.771,2.796L52.32,248.006z M58.281,243.535c-0.318-0.984-0.838-2.163-1.559-3.534
			c-0.557,1.151-1.027,2.347-1.412,3.582L58.281,243.535z"/>
		<path fill="#FFFFFF" d="M68.588,238.606c-0.037,1.541-0.055,3.156-0.055,4.849c0,1.541,0.015,3.145,0.046,4.812l-2.174,0.007
			l-0.073-1.046c-0.452,0.506-1.054,0.759-1.806,0.759c-1.877,0-2.815-1.069-2.815-3.213c0-0.045,0.003-0.091,0.009-0.137
			c0.037-2.146,0.966-3.22,2.788-3.22c0.073,0,0.15,0.002,0.229,0.007c0.624,0.027,1.128,0.28,1.513,0.759
			c0-1.012-0.034-2.204-0.101-3.575L68.588,238.606L68.588,238.606z M66.295,245.825l-0.046-2.365
			c-0.354-0.36-0.718-0.54-1.091-0.54c-0.153,0-0.306,0.03-0.458,0.089c-0.483,0.187-0.724,0.711-0.724,1.572
			c0,0.1,0.003,0.203,0.009,0.308c0.061,1.043,0.373,1.595,0.936,1.654c0.055,0.004,0.11,0.007,0.165,0.007
			C65.574,246.55,65.978,246.308,66.295,245.825z"/>
		<path fill="#FFFFFF" d="M72.541,241.259c2.079,0,3.118,1.076,3.118,3.227c0,0.086-0.003,0.175-0.009,0.262
			c-0.086,2.329-1.192,3.504-3.32,3.525c-0.024,0.004-0.049,0.007-0.073,0.007c-2.024,0-3.035-1.101-3.035-3.302v-0.189
			C69.282,242.435,70.389,241.259,72.541,241.259z M72.238,242.817c-0.385,0.102-0.648,0.474-0.789,1.114
			c-0.085,0.383-0.128,0.77-0.128,1.155c0,0.26,0.019,0.521,0.055,0.786c0.098,0.654,0.413,0.996,0.945,1.019h0.064
			c0.495,0,0.834-0.244,1.018-0.729c0.153-0.406,0.229-0.888,0.229-1.442c0-0.137-0.003-0.276-0.009-0.417
			c-0.049-0.734-0.196-1.192-0.44-1.374c-0.153-0.109-0.336-0.164-0.55-0.164C72.51,242.763,72.378,242.781,72.238,242.817z"/>
		<path fill="#FFFFFF" d="M76.218,251.007c0.037-1.536,0.055-3.169,0.055-4.901c0-1.577-0.015-3.229-0.046-4.963l2.173-0.007
			l0.073,1.053c0.453-0.51,1.055-0.766,1.807-0.766c1.877,0,2.815,1.104,2.815,3.313v0.139c-0.043,2.215-0.978,3.32-2.806,3.32
			c-0.073,0-0.147-0.002-0.22-0.007c-0.624-0.021-1.128-0.274-1.513-0.759c0,1.012,0.034,2.204,0.101,3.575L76.218,251.007
			L76.218,251.007z M78.51,243.59l0.046,2.57c0.354,0.358,0.712,0.54,1.073,0.54c0.146,0,0.293-0.032,0.44-0.098
			c0.446-0.182,0.669-0.727,0.669-1.634c0-0.109-0.003-0.223-0.009-0.342c-0.061-1.112-0.358-1.698-0.889-1.757
			c-0.055-0.004-0.107-0.009-0.156-0.009C79.22,242.865,78.828,243.107,78.51,243.59z"/>
		<path fill="#FFFFFF" d="M85.352,239.078l2.082-0.104v2.263l1.751-0.032l0.028,1.292l-1.779,0.062v3.11
			c0,0.725,0.413,1.087,1.238,1.087c0.171,0,0.357-0.018,0.559-0.048l-0.083,1.504c-0.293,0.025-0.572,0.041-0.834,0.041
			c-1.932,0-2.916-0.743-2.953-2.229v-3.343l-1.504,0.068l-0.037-1.524l1.541,0.014L85.352,239.078z"/>
		<path fill="#FFFFFF" d="M93.522,241.061c2.011,0.082,3.017,0.836,3.017,2.265v4.854l-2.137,0.027l-0.073-0.649
			c-0.44,0.374-1.024,0.562-1.752,0.562c-0.312,0-0.648-0.037-1.009-0.109c-1.082-0.201-1.623-0.825-1.623-1.873
			c0-0.127,0.009-0.264,0.028-0.41c0.122-1.08,1.152-1.62,3.09-1.62c0.373,0,0.782,0.021,1.229,0.062v-0.793
			c0-0.645-0.272-0.964-0.816-0.964H93.44c-0.043-0.006-0.083-0.009-0.119-0.009c-0.593,0-0.89,0.36-0.89,1.08v0.104l-2.183-0.137
			c0-1.592,1.027-2.388,3.081-2.388h0.193V241.061z M94.293,246.461v-1.203c-0.263-0.041-0.501-0.062-0.715-0.062
			c-0.557,0-0.936,0.141-1.137,0.417c-0.123,0.168-0.184,0.326-0.184,0.474c0,0.182,0.098,0.344,0.293,0.483
			c0.153,0.109,0.352,0.164,0.596,0.164C93.458,246.734,93.84,246.643,94.293,246.461z"/>
		<path fill="#FFFFFF" d="M99.712,243.378l0.092,4.956l-2.247,0.014c0-2.096-0.095-4.45-0.284-7.062l1.688-0.139l0.092,1.114
			c0.257-0.547,0.856-0.859,1.797-0.937c0.141-0.011,0.275-0.016,0.403-0.016c0.74,0,1.302,0.182,1.688,0.54
			c0.446,0.428,0.672,1.11,0.679,2.044l-2.036,0.15c0.006-0.078,0.009-0.153,0.009-0.228c0-0.729-0.254-1.094-0.761-1.094h-0.037
			C100.208,242.751,99.847,242.968,99.712,243.378z"/>
		<path fill="#FFFFFF" d="M114.587,238.606c-0.037,1.541-0.055,3.156-0.055,4.849c0,1.541,0.015,3.145,0.046,4.812l-2.173,0.007
			l-0.073-1.046c-0.453,0.506-1.055,0.759-1.807,0.759c-1.877,0-2.815-1.069-2.815-3.213c0-0.045,0.003-0.091,0.009-0.137
			c0.037-2.146,0.966-3.22,2.788-3.22c0.073,0,0.15,0.002,0.229,0.007c0.624,0.027,1.128,0.28,1.513,0.759
			c0-1.012-0.034-2.204-0.101-3.575L114.587,238.606L114.587,238.606z M112.294,245.825l-0.046-2.365
			c-0.355-0.36-0.719-0.54-1.091-0.54c-0.153,0-0.306,0.03-0.458,0.089c-0.483,0.187-0.725,0.711-0.725,1.572
			c0,0.1,0.003,0.203,0.009,0.308c0.061,1.043,0.373,1.595,0.935,1.654c0.055,0.004,0.11,0.007,0.165,0.007
			C111.573,246.55,111.976,246.308,112.294,245.825z"/>
		<path fill="#FFFFFF" d="M117.879,239.687c0,0.278-0.131,0.517-0.394,0.711c-0.263,0.196-0.581,0.294-0.954,0.294
			c-0.367,0-0.682-0.098-0.944-0.294c-0.263-0.194-0.395-0.433-0.395-0.711c0-0.271,0.132-0.508,0.395-0.704
			c0.263-0.194,0.578-0.294,0.944-0.294c0.373,0,0.691,0.1,0.954,0.294C117.748,239.179,117.879,239.413,117.879,239.687z
			 M115.421,248.313c-0.043-2.666-0.064-4.97-0.064-6.911l2.311-0.103c-0.073,1.859-0.11,3.708-0.11,5.544
			c0,0.492,0.003,0.982,0.009,1.47H115.421L115.421,248.313z"/>
		<path fill="#FFFFFF" d="M118.273,245.853l2.1-0.075v0.091c0,0.7,0.29,1.057,0.871,1.064h0.037c0.562,0,0.844-0.203,0.844-0.606
			v-0.05c-0.024-0.445-0.579-0.807-1.665-1.08c-1.086-0.271-1.738-0.732-1.958-1.381c-0.08-0.228-0.119-0.445-0.119-0.654
			c0-0.385,0.131-0.738,0.395-1.066c0.403-0.501,1.015-0.789,1.834-0.861c0.22-0.018,0.434-0.025,0.642-0.025
			c0.544,0,1.024,0.069,1.439,0.212c0.569,0.195,0.963,0.476,1.183,0.841c0.147,0.25,0.22,0.529,0.22,0.834
			c0,0.146-0.015,0.296-0.046,0.451l-1.962,0.034c0.018-0.114,0.027-0.221,0.027-0.314c0-0.456-0.196-0.7-0.587-0.729
			c-0.043-0.005-0.085-0.009-0.128-0.009c-0.403,0-0.676,0.153-0.816,0.458c-0.049,0.105-0.073,0.201-0.073,0.287
			c0,0.214,0.135,0.399,0.404,0.556c0.379,0.219,0.94,0.439,1.683,0.667c0.743,0.226,1.243,0.607,1.5,1.15
			c0.092,0.205,0.137,0.41,0.137,0.615c0,0.346-0.135,0.695-0.404,1.046c-0.428,0.562-1.091,0.886-1.99,0.979
			c-0.196,0.021-0.388,0.032-0.578,0.032c-0.673,0-1.296-0.13-1.871-0.39C118.659,247.591,118.286,246.901,118.273,245.853z"/>
		<path fill="#FFFFFF" d="M124.949,251.007c0.037-1.536,0.055-3.169,0.055-4.901c0-1.577-0.015-3.229-0.046-4.963l2.173-0.007
			l0.073,1.053c0.452-0.51,1.054-0.766,1.807-0.766c1.877,0,2.815,1.104,2.815,3.313v0.139c-0.043,2.215-0.978,3.32-2.806,3.32
			c-0.073,0-0.146-0.002-0.22-0.007c-0.624-0.021-1.128-0.274-1.513-0.759c0,1.012,0.033,2.204,0.101,3.575L124.949,251.007
			L124.949,251.007z M127.242,243.59l0.046,2.57c0.354,0.358,0.712,0.54,1.073,0.54c0.147,0,0.293-0.032,0.44-0.098
			c0.446-0.182,0.669-0.727,0.669-1.634c0-0.109-0.003-0.223-0.009-0.342c-0.062-1.112-0.358-1.698-0.89-1.757
			c-0.055-0.004-0.107-0.009-0.156-0.009C127.951,242.865,127.56,243.107,127.242,243.59z"/>
		<path fill="#FFFFFF" d="M135.78,241.259c2.078,0,3.118,1.076,3.118,3.227c0,0.086-0.003,0.175-0.009,0.262
			c-0.086,2.329-1.192,3.504-3.32,3.525c-0.025,0.004-0.049,0.007-0.073,0.007c-2.024,0-3.035-1.101-3.035-3.302v-0.189
			C132.521,242.435,133.627,241.259,135.78,241.259z M135.477,242.817c-0.385,0.102-0.648,0.474-0.789,1.114
			c-0.086,0.383-0.128,0.77-0.128,1.155c0,0.26,0.018,0.521,0.055,0.786c0.098,0.654,0.413,0.996,0.945,1.019h0.064
			c0.495,0,0.834-0.244,1.018-0.729c0.153-0.406,0.229-0.888,0.229-1.442c0-0.137-0.003-0.276-0.009-0.417
			c-0.049-0.734-0.196-1.192-0.44-1.374c-0.153-0.109-0.336-0.164-0.55-0.164C135.749,242.763,135.618,242.781,135.477,242.817z"/>
		<path fill="#FFFFFF" d="M139.292,245.853l2.1-0.075v0.091c0,0.7,0.29,1.057,0.871,1.064h0.037c0.562,0,0.844-0.203,0.844-0.606
			v-0.05c-0.024-0.445-0.579-0.807-1.665-1.08c-1.086-0.271-1.738-0.732-1.958-1.381c-0.08-0.228-0.119-0.445-0.119-0.654
			c0-0.385,0.131-0.738,0.395-1.066c0.403-0.501,1.015-0.789,1.834-0.861c0.22-0.018,0.434-0.025,0.642-0.025
			c0.544,0,1.024,0.069,1.439,0.212c0.569,0.195,0.963,0.476,1.183,0.841c0.147,0.25,0.22,0.529,0.22,0.834
			c0,0.146-0.015,0.296-0.046,0.451l-1.962,0.034c0.018-0.114,0.027-0.221,0.027-0.314c0-0.456-0.196-0.7-0.587-0.729
			c-0.043-0.005-0.085-0.009-0.128-0.009c-0.403,0-0.676,0.153-0.816,0.458c-0.049,0.105-0.073,0.201-0.073,0.287
			c0,0.214,0.135,0.399,0.404,0.556c0.379,0.219,0.94,0.439,1.683,0.667c0.743,0.226,1.243,0.607,1.5,1.15
			c0.092,0.205,0.137,0.41,0.137,0.615c0,0.346-0.135,0.695-0.404,1.046c-0.428,0.562-1.091,0.886-1.99,0.979
			c-0.196,0.021-0.388,0.032-0.578,0.032c-0.673,0-1.296-0.13-1.871-0.39C139.677,247.591,139.304,246.901,139.292,245.853z"/>
		<path fill="#FFFFFF" d="M148.481,239.687c0,0.278-0.132,0.517-0.394,0.711c-0.263,0.196-0.581,0.294-0.954,0.294
			c-0.367,0-0.682-0.098-0.945-0.294c-0.263-0.194-0.394-0.433-0.394-0.711c0-0.271,0.132-0.508,0.394-0.704
			c0.262-0.194,0.578-0.294,0.945-0.294c0.373,0,0.691,0.1,0.954,0.294C148.349,239.178,148.481,239.413,148.481,239.687z
			 M146.023,248.313c-0.043-2.666-0.064-4.97-0.064-6.911l2.311-0.103c-0.073,1.859-0.11,3.708-0.11,5.544
			c0,0.492,0.003,0.982,0.009,1.47H146.023L146.023,248.313z"/>
		<path fill="#FFFFFF" d="M152.736,245.463l2.182,0.103c0,1.646-1.018,2.479-3.054,2.502c-0.025,0.004-0.046,0.009-0.064,0.009
			c-1.938,0-2.907-1.098-2.907-3.288v-0.205c0.061-2.354,1.094-3.539,3.1-3.562h0.073c1.846,0,2.769,0.789,2.769,2.365
			c0,0.091-0.003,0.182-0.009,0.273l-1.972,0.107v-0.164c0-0.83-0.315-1.244-0.945-1.244c-0.642,0-0.963,0.672-0.963,2.019v0.226
			c0.037,1.454,0.361,2.183,0.972,2.183h0.055c0.532-0.032,0.798-0.336,0.798-0.909C152.772,245.75,152.76,245.613,152.736,245.463z
			"/>
		<path fill="#FFFFFF" d="M158.247,239.687c0,0.278-0.131,0.517-0.394,0.711c-0.263,0.196-0.581,0.294-0.954,0.294
			c-0.367,0-0.682-0.098-0.944-0.294c-0.263-0.194-0.395-0.433-0.395-0.711c0-0.271,0.132-0.508,0.395-0.704
			c0.263-0.194,0.578-0.294,0.944-0.294c0.373,0,0.691,0.1,0.954,0.294C158.116,239.179,158.247,239.413,158.247,239.687z
			 M155.79,248.313c-0.043-2.666-0.064-4.97-0.064-6.911l2.311-0.103c-0.073,1.859-0.11,3.708-0.11,5.544
			c0,0.492,0.003,0.982,0.009,1.47H155.79L155.79,248.313z"/>
		<path fill="#FFFFFF" d="M161.979,241.259c2.079,0,3.118,1.076,3.118,3.227c0,0.086-0.003,0.175-0.009,0.262
			c-0.086,2.329-1.192,3.504-3.32,3.525c-0.024,0.004-0.049,0.007-0.073,0.007c-2.024,0-3.036-1.101-3.036-3.302v-0.189
			C158.721,242.435,159.827,241.259,161.979,241.259z M161.677,242.817c-0.385,0.102-0.648,0.474-0.789,1.114
			c-0.086,0.383-0.128,0.77-0.128,1.155c0,0.26,0.018,0.521,0.055,0.786c0.098,0.654,0.413,0.996,0.944,1.019h0.064
			c0.495,0,0.834-0.244,1.018-0.729c0.153-0.406,0.229-0.888,0.229-1.442c0-0.137-0.003-0.276-0.009-0.417
			c-0.049-0.734-0.196-1.192-0.44-1.374c-0.153-0.109-0.336-0.164-0.55-0.164C161.949,242.763,161.817,242.781,161.677,242.817z"/>
		<path fill="#FFFFFF" d="M167.289,241.081l0.092,1.112c0.257-0.592,0.932-0.893,2.027-0.9h0.037c1.076,0,1.81,0.312,2.201,0.941
			c0.269,0.43,0.404,1.433,0.404,3.01c0,0.773-0.034,1.689-0.101,2.748h-2.219c0.079-1.408,0.119-2.5,0.119-3.274
			c0-0.387-0.009-0.697-0.027-0.93c-0.061-0.686-0.355-1.025-0.88-1.025c-0.526,0-0.856,0.182-0.99,0.547l0.092,4.956l-2.155,0.014
			c0-2.096-0.095-4.448-0.284-7.062L167.289,241.081z"/>
		<path fill="#FFFFFF" d="M175.79,241.259c2.122,0,3.182,1.05,3.182,3.151c0,0.255-0.015,0.527-0.046,0.818h-4.099
			c0,1.171,0.303,1.757,0.908,1.757h0.064c0.532-0.03,0.798-0.335,0.798-0.907c0-0.123-0.012-0.262-0.037-0.41l2.182-0.034
			c0,1.736-1.018,2.616-3.054,2.639c-0.025,0.004-0.046,0.007-0.064,0.007c-1.938,0-2.907-1.096-2.907-3.286v-0.205
			C172.779,242.435,173.803,241.259,175.79,241.259z M174.607,243.973h2.073v-0.164c0-0.83-0.315-1.244-0.945-1.244
			C175.056,242.564,174.68,243.034,174.607,243.973z"/>
		<path fill="#FFFFFF" d="M179.55,245.853l2.1-0.075v0.091c0,0.7,0.291,1.057,0.871,1.064h0.037c0.562,0,0.844-0.203,0.844-0.606
			v-0.05c-0.025-0.445-0.579-0.807-1.664-1.08c-1.085-0.271-1.738-0.732-1.958-1.381c-0.08-0.228-0.119-0.445-0.119-0.654
			c0-0.385,0.131-0.738,0.394-1.066c0.404-0.501,1.015-0.789,1.834-0.861c0.22-0.018,0.434-0.025,0.642-0.025
			c0.544,0,1.024,0.069,1.44,0.212c0.568,0.195,0.963,0.476,1.183,0.841c0.147,0.25,0.22,0.529,0.22,0.834
			c0,0.146-0.015,0.296-0.046,0.451l-1.963,0.034c0.019-0.114,0.028-0.221,0.028-0.314c0-0.456-0.196-0.7-0.587-0.729
			c-0.043-0.005-0.086-0.009-0.128-0.009c-0.404,0-0.676,0.153-0.816,0.458c-0.049,0.105-0.073,0.201-0.073,0.287
			c0,0.214,0.134,0.399,0.403,0.556c0.379,0.219,0.94,0.439,1.683,0.667c0.743,0.226,1.243,0.607,1.499,1.15
			c0.092,0.205,0.138,0.41,0.138,0.615c0,0.346-0.135,0.695-0.403,1.046c-0.428,0.562-1.091,0.886-1.99,0.979
			c-0.196,0.021-0.388,0.032-0.578,0.032c-0.673,0-1.296-0.13-1.871-0.39C179.935,247.591,179.562,246.901,179.55,245.853z"/>
		<path fill="#FFFFFF" d="M68.666,255.606c-0.037,1.541-0.055,3.156-0.055,4.849c0,1.541,0.015,3.145,0.046,4.812l-2.173,0.007
			l-0.073-1.046c-0.453,0.506-1.055,0.759-1.807,0.759c-1.877,0-2.815-1.069-2.815-3.213c0-0.045,0.003-0.091,0.009-0.137
			c0.037-2.146,0.966-3.22,2.788-3.22c0.073,0,0.15,0.002,0.229,0.007c0.624,0.027,1.128,0.28,1.513,0.759
			c0-1.012-0.034-2.204-0.101-3.575L68.666,255.606L68.666,255.606z M66.374,262.825l-0.046-2.365
			c-0.355-0.36-0.719-0.54-1.091-0.54c-0.153,0-0.306,0.03-0.458,0.089c-0.483,0.187-0.725,0.711-0.725,1.572
			c0,0.1,0.003,0.203,0.009,0.308c0.061,1.043,0.373,1.595,0.935,1.654c0.055,0.004,0.11,0.007,0.165,0.007
			C65.652,263.55,66.055,263.308,66.374,262.825z"/>
		<path fill="#FFFFFF" d="M72.371,258.259c2.121,0,3.182,1.05,3.182,3.151c0,0.255-0.015,0.527-0.046,0.818h-4.099
			c0,1.171,0.302,1.757,0.908,1.757h0.064c0.532-0.03,0.798-0.335,0.798-0.907c0-0.123-0.012-0.262-0.037-0.41l2.183-0.034
			c0,1.736-1.018,2.616-3.054,2.639c-0.024,0.004-0.046,0.007-0.064,0.007c-1.938,0-2.907-1.096-2.907-3.286v-0.205
			C69.36,259.435,70.384,258.259,72.371,258.259z M71.188,260.973h2.072v-0.164c0-0.83-0.315-1.244-0.944-1.244
			C71.637,259.564,71.261,260.034,71.188,260.973z"/>
		<path fill="#FFFFFF" d="M79.735,265.02c0.012-1.536,0.018-3.117,0.018-4.744c0-1.631-0.006-3.306-0.018-5.022
			c0.703-0.064,1.351-0.098,1.944-0.098c1.651,0,2.867,0.246,3.65,0.738c1.064,0.674,1.62,1.921,1.669,3.739v0.492
			c0,1.559-0.202,2.67-0.605,3.336c-0.446,0.732-1.262,1.221-2.448,1.463c-0.685,0.141-1.437,0.212-2.256,0.212
			C81.077,265.136,80.425,265.097,79.735,265.02z M82.009,257.206c-0.104,1.5-0.156,2.947-0.156,4.348
			c0,0.529,0.006,1.048,0.018,1.559c0.214,0.037,0.419,0.057,0.615,0.057c0.538,0,0.99-0.141,1.357-0.417
			c0.501-0.374,0.752-1.212,0.752-2.518v-0.025c-0.006-1.312-0.251-2.174-0.734-2.584c-0.373-0.312-0.816-0.465-1.33-0.465
			C82.367,257.158,82.192,257.174,82.009,257.206z"/>
		<path fill="#FFFFFF" d="M90.666,258.259c2.121,0,3.182,1.05,3.182,3.151c0,0.255-0.015,0.527-0.046,0.818h-4.099
			c0,1.171,0.302,1.757,0.908,1.757h0.064c0.532-0.03,0.798-0.335,0.798-0.907c0-0.123-0.012-0.262-0.037-0.41l2.183-0.034
			c0,1.736-1.018,2.616-3.054,2.639c-0.024,0.004-0.046,0.007-0.064,0.007c-1.938,0-2.907-1.096-2.907-3.286v-0.205
			C87.655,259.435,88.679,258.259,90.666,258.259z M89.483,260.973h2.072v-0.164c0-0.83-0.315-1.244-0.944-1.244
			C89.932,259.564,89.556,260.034,89.483,260.973z"/>
		<path fill="#FFFFFF" d="M96.975,260.378l0.092,4.956l-2.247,0.014c0-2.096-0.095-4.45-0.284-7.062l1.688-0.139l0.092,1.114
			c0.257-0.547,0.856-0.859,1.797-0.937c0.141-0.011,0.275-0.016,0.403-0.016c0.74,0,1.302,0.181,1.688,0.54
			c0.446,0.428,0.672,1.11,0.679,2.044l-2.036,0.15c0.006-0.078,0.009-0.153,0.009-0.228c0-0.729-0.254-1.094-0.761-1.094h-0.037
			C97.47,259.751,97.109,259.968,96.975,260.378z"/>
		<path fill="#FFFFFF" d="M104.477,258.259c2.121,0,3.182,1.05,3.182,3.151c0,0.255-0.015,0.527-0.046,0.818h-4.099
			c0,1.171,0.302,1.757,0.908,1.757h0.064c0.532-0.03,0.798-0.335,0.798-0.907c0-0.123-0.012-0.262-0.037-0.41l2.182-0.034
			c0,1.736-1.018,2.616-3.054,2.639c-0.024,0.004-0.046,0.007-0.064,0.007c-1.938,0-2.907-1.096-2.907-3.286v-0.205
			C101.465,259.435,102.49,258.259,104.477,258.259z M103.293,260.973h2.073v-0.164c0-0.83-0.315-1.244-0.945-1.244
			C103.743,259.564,103.367,260.034,103.293,260.973z"/>
		<path fill="#FFFFFF" d="M112.097,262.463l2.182,0.103c0,1.646-1.018,2.479-3.054,2.502c-0.025,0.004-0.046,0.009-0.064,0.009
			c-1.938,0-2.907-1.098-2.907-3.288v-0.205c0.061-2.354,1.094-3.539,3.1-3.562h0.073c1.846,0,2.769,0.789,2.769,2.365
			c0,0.091-0.003,0.182-0.009,0.273l-1.972,0.107v-0.164c0-0.83-0.315-1.244-0.945-1.244c-0.642,0-0.963,0.674-0.963,2.019v0.226
			c0.037,1.454,0.361,2.183,0.972,2.183h0.055c0.532-0.032,0.798-0.335,0.798-0.909C112.134,262.75,112.121,262.613,112.097,262.463
			z"/>
		<path fill="#FFFFFF" d="M117.223,255.483l0.092,3.851c0.257-0.593,0.856-0.895,1.797-0.902h0.028c0.929,0,1.59,0.314,1.981,0.943
			c0.269,0.428,0.404,1.431,0.404,3.008c0,0.773-0.034,1.689-0.101,2.748h-2.311c0.08-1.408,0.119-2.5,0.119-3.274
			c0-0.387-0.009-0.695-0.028-0.93c-0.061-0.684-0.324-1.025-0.789-1.025s-0.764,0.184-0.899,0.547l0.092,4.956l-2.247,0.016
			c0-2.098-0.125-5.384-0.376-9.864L117.223,255.483z"/>
		<path fill="#FFFFFF" d="M125.522,258.259c2.079,0,3.118,1.076,3.118,3.227c0,0.086-0.003,0.175-0.009,0.262
			c-0.086,2.329-1.192,3.504-3.32,3.525c-0.024,0.004-0.049,0.007-0.073,0.007c-2.024,0-3.035-1.101-3.035-3.302v-0.189
			C122.264,259.435,123.371,258.259,125.522,258.259z M125.22,259.817c-0.385,0.102-0.648,0.474-0.789,1.114
			c-0.085,0.383-0.128,0.77-0.128,1.155c0,0.26,0.019,0.521,0.055,0.786c0.098,0.654,0.413,0.996,0.945,1.019h0.064
			c0.495,0,0.834-0.244,1.018-0.729c0.153-0.406,0.229-0.888,0.229-1.442c0-0.137-0.003-0.276-0.009-0.417
			c-0.049-0.734-0.196-1.192-0.44-1.374c-0.153-0.109-0.336-0.164-0.55-0.164C125.492,259.763,125.36,259.781,125.22,259.817z"/>
		<path fill="#FFFFFF" d="M135.142,264.753l-2.283,0.157c0-3.347-0.073-6.485-0.22-9.422l2.614-0.162
			C135.185,258.42,135.148,261.563,135.142,264.753z"/>
		<path fill="#FFFFFF" d="M137.747,258.081l0.092,1.112c0.257-0.592,0.932-0.893,2.027-0.9h0.037c1.076,0,1.81,0.312,2.201,0.941
			c0.269,0.43,0.404,1.433,0.404,3.01c0,0.773-0.034,1.689-0.101,2.748h-2.219c0.079-1.408,0.119-2.5,0.119-3.274
			c0-0.387-0.009-0.697-0.027-0.93c-0.061-0.686-0.355-1.025-0.88-1.025c-0.526,0-0.856,0.182-0.99,0.547l0.092,4.956l-2.155,0.014
			c0-2.096-0.095-4.448-0.284-7.062L137.747,258.081z"/>
		<path fill="#FFFFFF" d="M144.799,256.078l2.082-0.104v2.263l1.751-0.032l0.028,1.292l-1.779,0.062v3.11
			c0,0.725,0.413,1.087,1.238,1.087c0.171,0,0.358-0.018,0.559-0.048l-0.083,1.504c-0.293,0.025-0.572,0.041-0.834,0.041
			c-1.932,0-2.916-0.743-2.953-2.229v-3.343l-1.504,0.068l-0.037-1.524l1.541,0.014L144.799,256.078z"/>
		<path fill="#FFFFFF" d="M152.401,258.259c2.122,0,3.182,1.05,3.182,3.151c0,0.255-0.015,0.527-0.046,0.818h-4.099
			c0,1.171,0.303,1.757,0.908,1.757h0.064c0.532-0.03,0.798-0.335,0.798-0.907c0-0.123-0.012-0.262-0.037-0.41l2.182-0.034
			c0,1.736-1.018,2.616-3.054,2.639c-0.025,0.004-0.046,0.007-0.064,0.007c-1.938,0-2.907-1.096-2.907-3.286v-0.205
			C149.39,259.435,150.414,258.259,152.401,258.259z M151.218,260.973h2.073v-0.164c0-0.83-0.315-1.244-0.945-1.244
			C151.667,259.564,151.291,260.034,151.218,260.973z"/>
		<path fill="#FFFFFF" d="M158.71,260.378l0.092,4.956l-2.247,0.014c0-2.096-0.095-4.45-0.284-7.062l1.687-0.139l0.092,1.114
			c0.257-0.547,0.856-0.859,1.797-0.937c0.141-0.011,0.275-0.016,0.404-0.016c0.74,0,1.302,0.181,1.687,0.54
			c0.446,0.428,0.672,1.11,0.678,2.044l-2.036,0.15c0.006-0.078,0.009-0.153,0.009-0.228c0-0.729-0.254-1.094-0.761-1.094h-0.037
			C159.206,259.751,158.845,259.968,158.71,260.378z"/>
		<path fill="#FFFFFF" d="M164.918,258.081l0.092,1.112c0.257-0.592,0.932-0.893,2.027-0.9h0.037c1.076,0,1.81,0.312,2.201,0.941
			c0.269,0.43,0.404,1.433,0.404,3.01c0,0.773-0.034,1.689-0.101,2.748h-2.219c0.079-1.408,0.119-2.5,0.119-3.274
			c0-0.387-0.009-0.697-0.027-0.93c-0.061-0.686-0.355-1.025-0.88-1.025c-0.526,0-0.856,0.182-0.99,0.547l0.092,4.956l-2.155,0.014
			c0-2.096-0.095-4.448-0.284-7.062L164.918,258.081z"/>
		<path fill="#FFFFFF" d="M173.667,258.259c2.079,0,3.118,1.076,3.118,3.227c0,0.086-0.003,0.175-0.009,0.262
			c-0.086,2.329-1.192,3.504-3.32,3.525c-0.024,0.004-0.049,0.007-0.073,0.007c-2.024,0-3.035-1.101-3.035-3.302v-0.189
			C170.408,259.435,171.515,258.259,173.667,258.259z M173.365,259.817c-0.385,0.102-0.648,0.474-0.789,1.114
			c-0.085,0.383-0.128,0.77-0.128,1.155c0,0.26,0.019,0.521,0.055,0.786c0.098,0.654,0.413,0.996,0.945,1.019h0.064
			c0.495,0,0.834-0.244,1.018-0.729c0.153-0.406,0.229-0.888,0.229-1.442c0-0.137-0.003-0.276-0.009-0.417
			c-0.049-0.734-0.196-1.192-0.44-1.374c-0.153-0.109-0.336-0.164-0.55-0.164C173.636,259.763,173.505,259.781,173.365,259.817z"/>
		<path fill="#FFFFFF" d="M9.512,298.203c2.574,0,3.861,1.641,3.861,4.922c0,3.286-1.379,4.929-4.136,4.929
			c-2.757,0-4.136-1.702-4.136-5.106C5.101,299.785,6.572,298.203,9.512,298.203z M7.678,303.31
			c-0.006,0.119-0.009,0.232-0.009,0.342c0,1.72,0.538,2.577,1.614,2.577c1.143,0,1.715-0.973,1.715-2.919s-0.532-2.919-1.596-2.919
			C8.333,300.391,7.758,301.364,7.678,303.31z"/>
		<path fill="#FFFFFF" d="M16.454,298.606c-0.067,1.372-0.101,2.563-0.101,3.575c0.324-0.433,0.737-0.686,1.238-0.759
			c0.086-0.004,0.168-0.007,0.248-0.007c1.993,0,3.011,1.071,3.054,3.22v0.123c0,2.151-1.061,3.227-3.182,3.227
			c-0.508,0-0.988-0.253-1.44-0.759l-0.073,1.046l-2.173-0.007c0.031-1.668,0.046-3.271,0.046-4.812
			c0-1.691-0.018-3.308-0.055-4.849L16.454,298.606L16.454,298.606z M16.354,303.46l-0.046,2.365
			c0.318,0.481,0.721,0.725,1.21,0.725c0.055,0,0.11-0.002,0.165-0.007c0.562-0.061,0.874-0.622,0.936-1.688
			c0.006-0.107,0.009-0.214,0.009-0.312c0-0.875-0.239-1.397-0.715-1.565c-0.147-0.05-0.29-0.075-0.431-0.075
			C17.096,302.899,16.72,303.086,16.354,303.46z"/>
		<path fill="#FFFFFF" d="M24.194,308.163l-2.284,0.155c0.024-1.508,0.037-2.96,0.037-4.354c0-1.959-0.024-3.809-0.073-5.544
			l2.247-0.027c-0.025,1.117-0.037,2.265-0.037,3.438C24.084,303.861,24.121,305.971,24.194,308.163z"/>
		<path fill="#FFFFFF" d="M27.551,299.687c0,0.278-0.132,0.517-0.394,0.711c-0.263,0.196-0.581,0.294-0.954,0.294
			c-0.367,0-0.682-0.098-0.945-0.294c-0.263-0.194-0.394-0.433-0.394-0.711c0-0.271,0.132-0.508,0.394-0.704
			c0.262-0.194,0.578-0.294,0.945-0.294c0.373,0,0.691,0.1,0.954,0.294C27.419,299.178,27.551,299.413,27.551,299.687z
			 M25.093,308.313c-0.043-2.666-0.064-4.97-0.064-6.911l2.311-0.103c-0.073,1.859-0.11,3.708-0.11,5.544
			c0,0.492,0.003,0.982,0.009,1.47H25.093z"/>
		<path fill="#FFFFFF" d="M28.312,309.072l2.155-0.089c-0.006,0.057-0.009,0.109-0.009,0.164c0,0.497,0.266,0.77,0.798,0.813
			c0.085,0.009,0.165,0.014,0.238,0.014c0.458,0,0.786-0.137,0.981-0.41c0.171-0.246,0.257-0.707,0.257-1.381
			c0-0.182-0.006-0.383-0.018-0.602c-0.342,0.51-0.978,0.789-1.907,0.834c-1.816-0.016-2.724-1.165-2.724-3.452v-0.048
			c0.012-2.315,1.091-3.479,3.237-3.493c0.587,0,1.113,0.255,1.577,0.766l0.028-1.087l2.008,0.068c0,3.76-0.015,6.088-0.046,6.984
			c-0.031,0.898-0.212,1.618-0.546,2.16s-0.9,0.891-1.701,1.039c-0.422,0.082-0.841,0.123-1.256,0.123
			c-0.373,0-0.743-0.032-1.11-0.096c-0.782-0.137-1.32-0.396-1.614-0.772c-0.245-0.31-0.367-0.715-0.367-1.217
			C28.293,309.293,28.299,309.186,28.312,309.072z M32.695,306.365v-2.773c-0.3-0.451-0.678-0.677-1.137-0.677
			c-0.092,0-0.187,0.009-0.284,0.025c-0.593,0.105-0.92,0.713-0.981,1.825c-0.006,0.119-0.009,0.232-0.009,0.342
			c0,0.907,0.226,1.463,0.679,1.668c0.153,0.073,0.315,0.109,0.486,0.109C31.827,306.885,32.243,306.711,32.695,306.365z"/>
		<path fill="#FFFFFF" d="M39.188,301.061c2.011,0.082,3.017,0.836,3.017,2.265v4.854l-2.137,0.027l-0.073-0.649
			c-0.44,0.374-1.024,0.562-1.751,0.562c-0.312,0-0.648-0.037-1.009-0.109c-1.082-0.201-1.623-0.825-1.623-1.873
			c0-0.127,0.009-0.264,0.027-0.41c0.122-1.08,1.152-1.62,3.091-1.62c0.373,0,0.782,0.021,1.229,0.062v-0.793
			c0-0.645-0.272-0.964-0.816-0.964h-0.037c-0.043-0.004-0.083-0.008-0.119-0.008c-0.593,0-0.889,0.359-0.889,1.079v0.104
			l-2.182-0.137c0-1.592,1.027-2.388,3.081-2.388h0.191V301.061z M39.958,306.461v-1.203c-0.263-0.041-0.501-0.062-0.715-0.062
			c-0.556,0-0.935,0.141-1.137,0.417c-0.122,0.168-0.183,0.326-0.183,0.474c0,0.182,0.098,0.344,0.293,0.483
			c0.153,0.109,0.351,0.164,0.596,0.164C39.124,306.734,39.505,306.643,39.958,306.461z"/>
		<path fill="#FFFFFF" d="M46.689,305.463l2.182,0.103c0,1.646-1.018,2.479-3.054,2.502c-0.024,0.004-0.046,0.009-0.064,0.009
			c-1.938,0-2.907-1.098-2.907-3.288v-0.205c0.061-2.354,1.094-3.539,3.1-3.562h0.073c1.846,0,2.769,0.789,2.769,2.365
			c0,0.091-0.003,0.182-0.009,0.273l-1.972,0.107v-0.164c0-0.83-0.315-1.244-0.945-1.244c-0.642,0-0.963,0.674-0.963,2.019v0.226
			c0.037,1.454,0.361,2.183,0.972,2.183h0.055c0.532-0.032,0.798-0.335,0.798-0.909C46.726,305.75,46.713,305.613,46.689,305.463z"
			/>
		<path fill="#FFFFFF" d="M52.201,299.687c0,0.278-0.132,0.517-0.395,0.711c-0.263,0.196-0.581,0.294-0.954,0.294
			c-0.367,0-0.682-0.098-0.945-0.294c-0.263-0.194-0.394-0.433-0.394-0.711c0-0.271,0.131-0.508,0.394-0.704
			c0.263-0.194,0.578-0.294,0.945-0.294c0.373,0,0.691,0.1,0.954,0.294C52.069,299.178,52.201,299.413,52.201,299.687z
			 M49.743,308.313c-0.043-2.666-0.064-4.97-0.064-6.911l2.311-0.103c-0.073,1.859-0.11,3.708-0.11,5.544
			c0,0.492,0.003,0.982,0.009,1.47H49.743z"/>
		<path fill="#FFFFFF" d="M55.933,301.259c2.078,0,3.118,1.076,3.118,3.227c0,0.086-0.003,0.175-0.009,0.262
			c-0.086,2.329-1.192,3.504-3.32,3.525c-0.025,0.004-0.049,0.007-0.073,0.007c-2.024,0-3.035-1.101-3.035-3.302v-0.189
			C52.674,302.435,53.781,301.259,55.933,301.259z M55.63,302.817c-0.385,0.102-0.648,0.474-0.789,1.114
			c-0.086,0.383-0.128,0.77-0.128,1.155c0,0.26,0.018,0.521,0.055,0.786c0.098,0.654,0.413,0.996,0.945,1.019h0.064
			c0.495,0,0.834-0.244,1.018-0.729c0.153-0.406,0.229-0.888,0.229-1.442c0-0.137-0.003-0.276-0.009-0.417
			c-0.049-0.734-0.196-1.192-0.44-1.374c-0.153-0.109-0.336-0.164-0.55-0.164C55.902,302.763,55.771,302.781,55.63,302.817z
			 M54.741,299.926c0.715-0.633,1.302-1.237,1.761-1.812l1.504,0.891c-0.648,0.474-1.37,1.055-2.164,1.743L54.741,299.926z"/>
		<path fill="#FFFFFF" d="M61.243,301.081l0.092,1.112c0.257-0.592,0.932-0.893,2.027-0.9h0.037c1.076,0,1.81,0.312,2.201,0.941
			c0.269,0.43,0.403,1.433,0.403,3.01c0,0.773-0.034,1.689-0.101,2.748h-2.219c0.079-1.408,0.119-2.5,0.119-3.274
			c0-0.387-0.009-0.697-0.028-0.93c-0.061-0.686-0.354-1.025-0.88-1.025s-0.856,0.182-0.99,0.547l0.092,4.956l-2.155,0.014
			c0-2.096-0.095-4.448-0.284-7.062L61.243,301.081z"/>
		<path fill="#FFFFFF" d="M77.117,298.606c-0.037,1.541-0.055,3.156-0.055,4.849c0,1.541,0.015,3.145,0.046,4.812l-2.173,0.007
			l-0.073-1.046c-0.452,0.506-1.054,0.759-1.806,0.759c-1.877,0-2.815-1.069-2.815-3.213c0-0.045,0.003-0.091,0.009-0.137
			c0.037-2.146,0.966-3.22,2.788-3.22c0.073,0,0.15,0.002,0.229,0.007c0.624,0.027,1.128,0.28,1.513,0.759
			c0-1.012-0.034-2.204-0.101-3.575L77.117,298.606L77.117,298.606z M74.824,305.825l-0.046-2.365
			c-0.355-0.36-0.719-0.54-1.091-0.54c-0.153,0-0.306,0.03-0.458,0.089c-0.483,0.187-0.724,0.711-0.724,1.572
			c0,0.1,0.003,0.203,0.009,0.308c0.061,1.043,0.373,1.595,0.935,1.654c0.055,0.004,0.11,0.007,0.165,0.007
			C74.103,306.55,74.506,306.308,74.824,305.825z"/>
		<path fill="#FFFFFF" d="M80.821,301.259c2.122,0,3.182,1.05,3.182,3.151c0,0.255-0.015,0.527-0.046,0.818h-4.099
			c0,1.171,0.303,1.757,0.908,1.757h0.064c0.532-0.03,0.798-0.335,0.798-0.907c0-0.123-0.012-0.262-0.037-0.41l2.182-0.034
			c0,1.736-1.018,2.616-3.054,2.639c-0.025,0.004-0.046,0.007-0.064,0.007c-1.938,0-2.907-1.096-2.907-3.286v-0.205
			C77.81,302.435,78.834,301.259,80.821,301.259z M79.638,303.973h2.073v-0.164c0-0.83-0.315-1.244-0.945-1.244
			C80.088,302.564,79.712,303.034,79.638,303.973z"/>
		<path fill="#FFFFFF" d="M88.369,309.072l2.155-0.089c-0.006,0.057-0.009,0.109-0.009,0.164c0,0.497,0.266,0.77,0.798,0.813
			c0.086,0.009,0.165,0.014,0.239,0.014c0.458,0,0.785-0.137,0.981-0.41c0.171-0.246,0.257-0.707,0.257-1.381
			c0-0.182-0.006-0.383-0.018-0.602c-0.343,0.51-0.979,0.789-1.908,0.834c-1.815-0.016-2.724-1.165-2.724-3.452v-0.048
			c0.012-2.315,1.091-3.479,3.237-3.493c0.587,0,1.113,0.255,1.577,0.766l0.028-1.087l2.008,0.068c0,3.76-0.016,6.088-0.046,6.984
			c-0.031,0.898-0.212,1.618-0.546,2.16c-0.333,0.542-0.9,0.891-1.701,1.039c-0.422,0.082-0.841,0.123-1.256,0.123
			c-0.373,0-0.743-0.032-1.11-0.096c-0.783-0.137-1.321-0.396-1.614-0.772c-0.245-0.31-0.367-0.715-0.367-1.217
			C88.35,309.293,88.356,309.186,88.369,309.072z M92.752,306.365v-2.773c-0.3-0.451-0.678-0.677-1.137-0.677
			c-0.092,0-0.187,0.009-0.284,0.025c-0.593,0.105-0.92,0.713-0.981,1.825c-0.006,0.119-0.009,0.232-0.009,0.342
			c0,0.907,0.226,1.463,0.678,1.668c0.153,0.073,0.315,0.109,0.486,0.109C91.884,306.885,92.3,306.711,92.752,306.365z"/>
		<path fill="#FFFFFF" d="M99.245,301.061c2.011,0.082,3.017,0.836,3.017,2.265v4.854l-2.137,0.027l-0.073-0.649
			c-0.44,0.374-1.024,0.562-1.751,0.562c-0.312,0-0.648-0.037-1.009-0.109c-1.082-0.201-1.623-0.825-1.623-1.873
			c0-0.127,0.009-0.264,0.027-0.41c0.122-1.08,1.152-1.62,3.09-1.62c0.373,0,0.783,0.021,1.229,0.062v-0.793
			c0-0.645-0.272-0.964-0.816-0.964h-0.037c-0.043-0.004-0.083-0.008-0.119-0.008c-0.593,0-0.89,0.359-0.89,1.079v0.104
			l-2.182-0.137c0-1.592,1.027-2.388,3.081-2.388h0.193V301.061L99.245,301.061z M100.015,306.461v-1.203
			c-0.263-0.041-0.501-0.062-0.715-0.062c-0.556,0-0.936,0.141-1.137,0.417c-0.122,0.168-0.183,0.326-0.183,0.474
			c0,0.182,0.098,0.344,0.293,0.483c0.153,0.109,0.351,0.164,0.596,0.164C99.181,306.734,99.562,306.643,100.015,306.461z"/>
		<path fill="#FFFFFF" d="M105.435,303.378l0.092,4.956l-2.247,0.014c0-2.096-0.095-4.45-0.284-7.062l1.687-0.139l0.092,1.114
			c0.257-0.547,0.856-0.859,1.797-0.937c0.141-0.011,0.275-0.016,0.404-0.016c0.74,0,1.302,0.181,1.687,0.54
			c0.446,0.428,0.672,1.11,0.679,2.044l-2.036,0.15c0.006-0.078,0.009-0.153,0.009-0.228c0-0.729-0.253-1.094-0.761-1.094h-0.037
			C105.93,302.751,105.569,302.968,105.435,303.378z"/>
		<path fill="#FFFFFF" d="M113.505,301.061c2.011,0.082,3.017,0.836,3.017,2.265v4.854l-2.137,0.027l-0.073-0.649
			c-0.44,0.374-1.024,0.562-1.751,0.562c-0.312,0-0.648-0.037-1.009-0.109c-1.082-0.201-1.623-0.825-1.623-1.873
			c0-0.127,0.009-0.264,0.027-0.41c0.122-1.08,1.152-1.62,3.091-1.62c0.373,0,0.782,0.021,1.229,0.062v-0.793
			c0-0.645-0.272-0.964-0.816-0.964h-0.037c-0.043-0.004-0.083-0.008-0.119-0.008c-0.593,0-0.889,0.359-0.889,1.079v0.104
			l-2.182-0.137c0-1.592,1.027-2.388,3.081-2.388h0.191V301.061z M114.275,306.461v-1.203c-0.263-0.041-0.501-0.062-0.715-0.062
			c-0.556,0-0.935,0.141-1.137,0.417c-0.122,0.168-0.183,0.326-0.183,0.474c0,0.182,0.098,0.344,0.293,0.483
			c0.153,0.109,0.351,0.164,0.596,0.164C113.44,306.734,113.822,306.643,114.275,306.461z"/>
		<path fill="#FFFFFF" d="M118.943,301.081l0.092,1.112c0.257-0.592,0.932-0.893,2.027-0.9h0.037c1.076,0,1.81,0.312,2.201,0.941
			c0.269,0.43,0.403,1.433,0.403,3.01c0,0.773-0.034,1.689-0.101,2.748h-2.219c0.079-1.408,0.119-2.5,0.119-3.274
			c0-0.387-0.009-0.697-0.028-0.93c-0.061-0.686-0.354-1.025-0.88-1.025c-0.526,0-0.856,0.182-0.99,0.547l0.092,4.956l-2.155,0.014
			c0-2.096-0.095-4.448-0.284-7.062L118.943,301.081z"/>
		<path fill="#FFFFFF" d="M125.995,299.078l2.082-0.104v2.263l1.751-0.032l0.028,1.292l-1.779,0.062v3.11
			c0,0.725,0.413,1.087,1.238,1.087c0.171,0,0.357-0.018,0.559-0.048l-0.083,1.504c-0.293,0.025-0.572,0.041-0.834,0.041
			c-1.932,0-2.916-0.743-2.953-2.229v-3.343l-1.504,0.068l-0.037-1.524l1.541,0.014L125.995,299.078z"/>
		<path fill="#FFFFFF" d="M133.185,299.687c0,0.278-0.132,0.517-0.395,0.711c-0.263,0.196-0.581,0.294-0.954,0.294
			c-0.367,0-0.682-0.098-0.945-0.294c-0.263-0.194-0.394-0.433-0.394-0.711c0-0.271,0.131-0.508,0.394-0.704
			c0.263-0.194,0.578-0.294,0.945-0.294c0.373,0,0.691,0.1,0.954,0.294C133.053,299.178,133.185,299.413,133.185,299.687z
			 M130.727,308.313c-0.043-2.666-0.064-4.97-0.064-6.911l2.311-0.103c-0.073,1.859-0.11,3.708-0.11,5.544
			c0,0.492,0.003,0.982,0.009,1.47H130.727z"/>
		<path fill="#FFFFFF" d="M133.735,301.225c0.538,0.009,1.14,0.014,1.806,0.014c1.07,0,2.308-0.011,3.714-0.032l0.046,1.395
			l-3.265,4.104h3.265l-0.028,1.497c-1.535,0-3.402,0.021-5.603,0.066l-0.073-1.326l3.42-4.341c-1.094,0-2.173,0.03-3.237,0.089
			L133.735,301.225z"/>
		<path fill="#FFFFFF" d="M143.52,301.061c2.011,0.082,3.017,0.836,3.017,2.265v4.854l-2.137,0.027l-0.073-0.649
			c-0.44,0.374-1.024,0.562-1.752,0.562c-0.312,0-0.648-0.037-1.009-0.109c-1.082-0.201-1.623-0.825-1.623-1.873
			c0-0.127,0.009-0.264,0.028-0.41c0.122-1.08,1.152-1.62,3.091-1.62c0.373,0,0.782,0.021,1.229,0.062v-0.793
			c0-0.645-0.272-0.964-0.816-0.964h-0.037c-0.043-0.004-0.083-0.008-0.119-0.008c-0.593,0-0.889,0.359-0.889,1.079v0.104
			l-2.183-0.137c0-1.592,1.027-2.388,3.081-2.388h0.192V301.061z M144.29,306.461v-1.203c-0.263-0.041-0.501-0.062-0.715-0.062
			c-0.556,0-0.935,0.141-1.137,0.417c-0.122,0.168-0.183,0.326-0.183,0.474c0,0.182,0.098,0.344,0.293,0.483
			c0.153,0.109,0.352,0.164,0.596,0.164C143.455,306.734,143.837,306.643,144.29,306.461z"/>
		<path fill="#FFFFFF" d="M149.709,303.378l0.092,4.956l-2.247,0.014c0-2.096-0.095-4.45-0.284-7.062l1.688-0.139l0.092,1.114
			c0.257-0.547,0.856-0.859,1.797-0.937c0.141-0.011,0.275-0.016,0.403-0.016c0.74,0,1.302,0.181,1.688,0.54
			c0.446,0.428,0.672,1.11,0.679,2.044l-2.036,0.15c0.006-0.078,0.009-0.153,0.009-0.228c0-0.729-0.254-1.094-0.761-1.094h-0.037
			C150.205,302.751,149.844,302.968,149.709,303.378z"/>
		<path fill="#FFFFFF" d="M160.228,308.163l-2.284,0.155c0.024-1.508,0.037-2.96,0.037-4.354c0-1.959-0.024-3.809-0.073-5.544
			l2.247-0.027c-0.025,1.117-0.037,2.265-0.037,3.438C160.118,303.861,160.155,305.971,160.228,308.163z"/>
		<path fill="#FFFFFF" d="M164.245,301.259c2.078,0,3.118,1.076,3.118,3.227c0,0.086-0.003,0.175-0.009,0.262
			c-0.086,2.329-1.192,3.504-3.32,3.525c-0.025,0.004-0.049,0.007-0.073,0.007c-2.024,0-3.035-1.101-3.035-3.302v-0.189
			C160.986,302.435,162.092,301.259,164.245,301.259z M163.942,302.817c-0.385,0.102-0.648,0.474-0.789,1.114
			c-0.086,0.383-0.128,0.77-0.128,1.155c0,0.26,0.018,0.521,0.055,0.786c0.098,0.654,0.413,0.996,0.945,1.019h0.064
			c0.495,0,0.834-0.244,1.018-0.729c0.153-0.406,0.229-0.888,0.229-1.442c0-0.137-0.003-0.276-0.009-0.417
			c-0.049-0.734-0.196-1.192-0.44-1.374c-0.153-0.109-0.336-0.164-0.55-0.164C164.214,302.763,164.083,302.781,163.942,302.817z"/>
		<path fill="#FFFFFF" d="M167.757,305.853l2.1-0.075v0.091c0,0.7,0.29,1.057,0.871,1.064h0.037c0.562,0,0.844-0.203,0.844-0.606
			v-0.05c-0.024-0.445-0.579-0.807-1.665-1.08c-1.086-0.271-1.738-0.732-1.958-1.381c-0.08-0.228-0.119-0.445-0.119-0.654
			c0-0.385,0.131-0.738,0.395-1.066c0.403-0.501,1.015-0.789,1.834-0.861c0.22-0.018,0.434-0.025,0.642-0.025
			c0.544,0,1.024,0.069,1.439,0.212c0.569,0.194,0.963,0.476,1.183,0.841c0.147,0.25,0.22,0.529,0.22,0.834
			c0,0.146-0.015,0.296-0.046,0.451l-1.962,0.034c0.018-0.114,0.027-0.221,0.027-0.314c0-0.456-0.196-0.7-0.587-0.729
			c-0.043-0.006-0.085-0.009-0.128-0.009c-0.403,0-0.676,0.153-0.816,0.458c-0.049,0.105-0.073,0.201-0.073,0.287
			c0,0.214,0.135,0.399,0.404,0.556c0.379,0.219,0.94,0.439,1.683,0.667c0.743,0.226,1.243,0.607,1.5,1.15
			c0.092,0.205,0.137,0.41,0.137,0.615c0,0.346-0.135,0.695-0.404,1.046c-0.428,0.562-1.091,0.886-1.99,0.979
			c-0.196,0.022-0.388,0.033-0.578,0.033c-0.673,0-1.296-0.13-1.871-0.39C168.142,307.591,167.769,306.901,167.757,305.853z"/>
		<path fill="#FFFFFF" d="M177.872,308.02c0.012-1.536,0.019-3.117,0.019-4.744c0-1.631-0.006-3.306-0.019-5.022
			c0.703-0.064,1.351-0.098,1.944-0.098c1.651,0,2.867,0.246,3.65,0.738c1.063,0.674,1.62,1.921,1.669,3.739v0.492
			c0,1.559-0.202,2.67-0.605,3.336c-0.446,0.732-1.262,1.221-2.448,1.463c-0.685,0.141-1.437,0.212-2.256,0.212
			C179.214,308.136,178.562,308.097,177.872,308.02z M180.146,300.206c-0.104,1.5-0.156,2.947-0.156,4.348
			c0,0.529,0.006,1.048,0.018,1.559c0.214,0.037,0.419,0.057,0.615,0.057c0.538,0,0.99-0.141,1.357-0.417
			c0.501-0.374,0.752-1.212,0.752-2.518v-0.025c-0.006-1.312-0.25-2.174-0.733-2.584c-0.373-0.312-0.816-0.465-1.33-0.465
			C180.504,300.158,180.329,300.174,180.146,300.206z"/>
		<path fill="#FFFFFF" d="M188.803,301.259c2.122,0,3.182,1.05,3.182,3.151c0,0.255-0.015,0.527-0.046,0.818h-4.099
			c0,1.171,0.303,1.757,0.908,1.757h0.064c0.532-0.03,0.798-0.335,0.798-0.907c0-0.123-0.012-0.262-0.037-0.41l2.183-0.034
			c0,1.736-1.018,2.616-3.054,2.639c-0.025,0.004-0.046,0.007-0.064,0.007c-1.938,0-2.907-1.096-2.907-3.286v-0.205
			C185.792,302.435,186.816,301.259,188.803,301.259z M187.62,303.973h2.073v-0.164c0-0.83-0.315-1.244-0.944-1.244
			C188.069,302.564,187.693,303.034,187.62,303.973z"/>
		<path fill="#FFFFFF" d="M195.112,303.378l0.092,4.956l-2.247,0.014c0-2.096-0.095-4.45-0.284-7.062l1.687-0.139l0.092,1.114
			c0.257-0.547,0.856-0.859,1.797-0.937c0.141-0.011,0.275-0.016,0.404-0.016c0.74,0,1.302,0.181,1.687,0.54
			c0.446,0.428,0.672,1.11,0.678,2.044l-2.036,0.15c0.006-0.078,0.009-0.153,0.009-0.228c0-0.729-0.254-1.094-0.761-1.094h-0.037
			C195.607,302.751,195.247,302.968,195.112,303.378z"/>
		<path fill="#FFFFFF" d="M202.614,301.259c2.121,0,3.182,1.05,3.182,3.151c0,0.255-0.015,0.527-0.046,0.818h-4.099
			c0,1.171,0.302,1.757,0.908,1.757h0.064c0.532-0.03,0.798-0.335,0.798-0.907c0-0.123-0.012-0.262-0.037-0.41l2.183-0.034
			c0,1.736-1.018,2.616-3.054,2.639c-0.024,0.004-0.046,0.007-0.064,0.007c-1.938,0-2.907-1.096-2.907-3.286v-0.205
			C199.603,302.435,200.626,301.259,202.614,301.259z M201.431,303.973h2.072v-0.164c0-0.83-0.315-1.244-0.944-1.244
			C201.88,302.564,201.504,303.034,201.431,303.973z"/>
		<path fill="#FFFFFF" d="M210.234,305.463l2.182,0.103c0,1.646-1.018,2.479-3.054,2.502c-0.024,0.004-0.046,0.009-0.064,0.009
			c-1.938,0-2.907-1.098-2.907-3.288v-0.205c0.061-2.354,1.094-3.539,3.1-3.562h0.073c1.846,0,2.769,0.789,2.769,2.365
			c0,0.091-0.003,0.182-0.009,0.273l-1.972,0.107v-0.164c0-0.83-0.315-1.244-0.945-1.244c-0.642,0-0.963,0.674-0.963,2.019v0.226
			c0.037,1.454,0.361,2.183,0.972,2.183h0.055c0.532-0.032,0.798-0.335,0.798-0.909C210.271,305.75,210.258,305.613,210.234,305.463
			z"/>
		<path fill="#FFFFFF" d="M215.36,298.483l0.092,3.851c0.257-0.593,0.856-0.895,1.797-0.902h0.027c0.929,0,1.59,0.314,1.981,0.943
			c0.269,0.428,0.404,1.431,0.404,3.008c0,0.773-0.034,1.689-0.101,2.748h-2.311c0.079-1.408,0.119-2.5,0.119-3.274
			c0-0.387-0.009-0.695-0.027-0.93c-0.061-0.684-0.324-1.025-0.789-1.025c-0.465,0-0.765,0.184-0.899,0.547l0.092,4.956
			l-2.247,0.016c0-2.098-0.125-5.384-0.376-9.864L215.36,298.483z"/>
		<path fill="#FFFFFF" d="M223.66,301.259c2.079,0,3.118,1.076,3.118,3.227c0,0.086-0.003,0.175-0.009,0.262
			c-0.086,2.329-1.192,3.504-3.32,3.525c-0.024,0.004-0.049,0.007-0.073,0.007c-2.024,0-3.036-1.101-3.036-3.302v-0.189
			C220.401,302.435,221.508,301.259,223.66,301.259z M223.357,302.817c-0.385,0.102-0.648,0.474-0.789,1.114
			c-0.086,0.383-0.128,0.77-0.128,1.155c0,0.26,0.018,0.521,0.055,0.786c0.098,0.654,0.413,0.996,0.944,1.019h0.064
			c0.495,0,0.834-0.244,1.018-0.729c0.153-0.406,0.229-0.888,0.229-1.442c0-0.137-0.003-0.276-0.009-0.417
			c-0.049-0.734-0.196-1.192-0.44-1.374c-0.153-0.109-0.336-0.164-0.55-0.164C223.629,302.763,223.498,302.781,223.357,302.817z"/>
		<path fill="#FFFFFF" d="M227.172,305.853l2.1-0.075v0.091c0,0.7,0.29,1.057,0.871,1.064h0.037c0.562,0,0.844-0.203,0.844-0.606
			v-0.05c-0.024-0.445-0.579-0.807-1.665-1.08c-1.086-0.271-1.738-0.732-1.958-1.381c-0.08-0.228-0.119-0.445-0.119-0.654
			c0-0.385,0.131-0.738,0.395-1.066c0.403-0.501,1.015-0.789,1.834-0.861c0.22-0.018,0.434-0.025,0.642-0.025
			c0.544,0,1.024,0.069,1.439,0.212c0.569,0.194,0.963,0.476,1.183,0.841c0.147,0.25,0.22,0.529,0.22,0.834
			c0,0.146-0.015,0.296-0.046,0.451l-1.962,0.034c0.018-0.114,0.027-0.221,0.027-0.314c0-0.456-0.196-0.7-0.587-0.729
			c-0.043-0.006-0.085-0.009-0.128-0.009c-0.403,0-0.676,0.153-0.816,0.458c-0.049,0.105-0.073,0.201-0.073,0.287
			c0,0.214,0.135,0.399,0.404,0.556c0.379,0.219,0.94,0.439,1.683,0.667c0.743,0.226,1.243,0.607,1.5,1.15
			c0.092,0.205,0.137,0.41,0.137,0.615c0,0.346-0.135,0.695-0.404,1.046c-0.428,0.562-1.091,0.886-1.99,0.979
			c-0.196,0.022-0.388,0.033-0.578,0.033c-0.673,0-1.296-0.13-1.871-0.39C227.557,307.591,227.184,306.901,227.172,305.853z"/>
		<path fill="#FFFFFF" d="M24.859,315.477c-0.073,3.067-0.144,6.371-0.211,9.912h-2.082v-3.985h-2.614v3.664l-2.504-0.007
			c0.073-1.672,0.11-3.309,0.11-4.908c0-1.595-0.037-3.152-0.11-4.676h2.394l-0.101,3.985l2.614,0.082v-4.231L24.859,315.477z"/>
		<path fill="#FFFFFF" d="M30.425,325.279l-0.092-1.112c-0.257,0.592-0.948,0.891-2.073,0.896c-0.012,0.004-0.021,0.007-0.027,0.007
			c-1.113,0-1.85-0.374-2.21-1.121c-0.245-0.496-0.367-1.522-0.367-3.083c0-0.802,0.034-1.747,0.101-2.837h2.228
			c-0.122,1.531-0.183,2.709-0.183,3.534c0,0.415,0.015,0.738,0.046,0.971c0.092,0.713,0.4,1.066,0.926,1.066
			s0.856-0.185,0.99-0.554l-0.092-4.744l2.155-0.014c0,1.959,0.095,4.241,0.284,6.85L30.425,325.279z"/>
		<path fill="#FFFFFF" d="M34.35,318.115l0.037,1.096c0.33-0.524,0.712-0.852,1.146-0.979c0.257-0.071,0.517-0.107,0.78-0.107
			c0.196,0,0.391,0.018,0.587,0.055c0.477,0.091,0.816,0.456,1.018,1.094c0.159-0.497,0.434-0.828,0.825-0.995
			c0.391-0.166,0.825-0.252,1.302-0.256h0.037c0.465,0,0.911,0.084,1.339,0.253c0.434,0.173,0.766,0.498,0.995,0.976
			c0.229,0.477,0.35,1.129,0.362,1.958v3.972l-1.981,0.034c0.079-1.5,0.119-2.775,0.119-3.828s-0.269-1.62-0.807-1.702
			c-0.08-0.009-0.156-0.014-0.229-0.014c-0.428,0-0.758,0.205-0.99,0.613c-0.037,0.476-0.055,1.028-0.055,1.661
			c0,0.861,0.033,1.866,0.101,3.017l-2.292,0.014c0.085-1.764,0.128-3.049,0.128-3.854v-0.081c-0.006-0.799-0.217-1.219-0.633-1.26
			H36.02c-0.373,0-0.734,0.16-1.082,0.479l0.018,5.004l-2.164,0.062v-1.119c0-1.987-0.04-3.974-0.119-5.954L34.35,318.115z"/>
		<path fill="#FFFFFF" d="M46.877,318.061c2.011,0.082,3.017,0.836,3.017,2.265v4.854l-2.137,0.027l-0.073-0.649
			c-0.44,0.374-1.024,0.562-1.751,0.562c-0.312,0-0.648-0.037-1.009-0.109c-1.082-0.201-1.623-0.825-1.623-1.873
			c0-0.127,0.009-0.264,0.027-0.41c0.122-1.08,1.152-1.62,3.091-1.62c0.373,0,0.782,0.021,1.229,0.062v-0.793
			c0-0.645-0.272-0.964-0.816-0.964h-0.037c-0.043-0.004-0.083-0.008-0.119-0.008c-0.593,0-0.889,0.359-0.889,1.079v0.104
			l-2.182-0.137c0-1.592,1.027-2.388,3.081-2.388h0.191V318.061z M47.647,323.461v-1.203c-0.263-0.041-0.501-0.062-0.715-0.062
			c-0.556,0-0.935,0.141-1.137,0.417c-0.122,0.168-0.183,0.326-0.183,0.474c0,0.182,0.098,0.344,0.293,0.483
			c0.153,0.109,0.351,0.164,0.596,0.164C46.813,323.734,47.195,323.643,47.647,323.461z"/>
		<path fill="#FFFFFF" d="M52.315,318.081l0.092,1.112c0.257-0.592,0.932-0.893,2.027-0.9h0.037c1.076,0,1.81,0.312,2.201,0.941
			c0.269,0.43,0.404,1.433,0.404,3.01c0,0.773-0.034,1.689-0.101,2.748h-2.219c0.08-1.408,0.119-2.5,0.119-3.274
			c0-0.387-0.009-0.697-0.027-0.93c-0.061-0.686-0.354-1.025-0.88-1.025c-0.526,0-0.856,0.182-0.99,0.547l0.092,4.956l-2.155,0.014
			c0-2.096-0.095-4.448-0.284-7.062L52.315,318.081z"/>
		<path fill="#FFFFFF" d="M61.064,318.259c2.078,0,3.118,1.076,3.118,3.227c0,0.086-0.003,0.175-0.009,0.262
			c-0.086,2.329-1.192,3.504-3.32,3.525c-0.025,0.004-0.049,0.007-0.073,0.007c-2.024,0-3.035-1.101-3.035-3.302v-0.189
			C57.805,319.435,58.912,318.259,61.064,318.259z M60.761,319.817c-0.385,0.102-0.648,0.474-0.789,1.114
			c-0.086,0.383-0.128,0.77-0.128,1.155c0,0.26,0.018,0.521,0.055,0.786c0.098,0.654,0.413,0.996,0.945,1.019h0.064
			c0.495,0,0.834-0.244,1.018-0.729c0.153-0.406,0.229-0.888,0.229-1.442c0-0.137-0.003-0.276-0.009-0.417
			c-0.049-0.734-0.196-1.192-0.44-1.374c-0.153-0.109-0.336-0.164-0.55-0.164C61.033,319.763,60.902,319.781,60.761,319.817z"/>
		<path fill="#FFFFFF" d="M64.576,322.853l2.1-0.075v0.091c0,0.7,0.29,1.057,0.871,1.064h0.037c0.562,0,0.844-0.203,0.844-0.606
			v-0.05c-0.025-0.445-0.58-0.807-1.665-1.08c-1.085-0.271-1.738-0.732-1.958-1.381c-0.08-0.228-0.119-0.445-0.119-0.654
			c0-0.385,0.131-0.738,0.394-1.066c0.404-0.501,1.015-0.789,1.834-0.861c0.22-0.018,0.434-0.025,0.642-0.025
			c0.544,0,1.024,0.069,1.44,0.212c0.569,0.194,0.963,0.476,1.183,0.841c0.146,0.25,0.22,0.529,0.22,0.834
			c0,0.146-0.015,0.296-0.046,0.451l-1.963,0.034c0.018-0.114,0.028-0.221,0.028-0.314c0-0.456-0.196-0.7-0.587-0.729
			c-0.043-0.006-0.086-0.009-0.128-0.009c-0.404,0-0.676,0.153-0.816,0.458c-0.049,0.105-0.073,0.201-0.073,0.287
			c0,0.214,0.135,0.399,0.404,0.556c0.379,0.219,0.94,0.439,1.683,0.667c0.743,0.226,1.243,0.607,1.499,1.15
			c0.092,0.205,0.137,0.41,0.137,0.615c0,0.346-0.134,0.695-0.403,1.046c-0.428,0.562-1.091,0.886-1.99,0.979
			c-0.196,0.022-0.388,0.033-0.578,0.033c-0.672,0-1.296-0.13-1.871-0.39C64.961,324.591,64.588,323.901,64.576,322.853z"/>
		<path fill="#FFFFFF" d="M77.112,315.606c-0.067,1.372-0.101,2.563-0.101,3.575c0.324-0.433,0.737-0.686,1.238-0.759
			c0.086-0.004,0.168-0.007,0.248-0.007c1.993,0,3.011,1.071,3.054,3.22v0.123c0,2.151-1.061,3.227-3.182,3.227
			c-0.508,0-0.988-0.253-1.44-0.759l-0.073,1.046l-2.173-0.007c0.031-1.668,0.046-3.271,0.046-4.812
			c0-1.691-0.018-3.308-0.055-4.849L77.112,315.606L77.112,315.606z M77.011,320.46l-0.046,2.365
			c0.318,0.481,0.721,0.725,1.21,0.725c0.055,0,0.11-0.002,0.165-0.007c0.562-0.061,0.874-0.622,0.936-1.688
			c0.006-0.107,0.009-0.214,0.009-0.312c0-0.875-0.239-1.397-0.715-1.565c-0.147-0.05-0.29-0.075-0.431-0.075
			C77.754,319.899,77.378,320.086,77.011,320.46z"/>
		<path fill="#FFFFFF" d="M85.824,318.061c2.011,0.082,3.017,0.836,3.017,2.265v4.854l-2.137,0.027l-0.073-0.649
			c-0.44,0.374-1.024,0.562-1.751,0.562c-0.312,0-0.648-0.037-1.009-0.109c-1.082-0.201-1.623-0.825-1.623-1.873
			c0-0.127,0.009-0.264,0.027-0.41c0.122-1.08,1.152-1.62,3.09-1.62c0.373,0,0.783,0.021,1.229,0.062v-0.793
			c0-0.645-0.272-0.964-0.816-0.964h-0.037c-0.043-0.004-0.083-0.008-0.119-0.008c-0.593,0-0.89,0.359-0.89,1.079v0.104
			l-2.182-0.137c0-1.592,1.027-2.388,3.081-2.388h0.193V318.061L85.824,318.061z M86.594,323.461v-1.203
			c-0.263-0.041-0.501-0.062-0.715-0.062c-0.556,0-0.936,0.141-1.137,0.417c-0.122,0.168-0.183,0.326-0.183,0.474
			c0,0.182,0.098,0.344,0.293,0.483c0.153,0.109,0.351,0.164,0.596,0.164C85.76,323.734,86.142,323.643,86.594,323.461z"/>
		<path fill="#FFFFFF" d="M89.648,318.532l2.256-0.123c0.024,1.39,0.037,2.595,0.037,3.614c0,1.281-0.018,2.276-0.055,2.987
			c-0.061,1.276-0.422,2.142-1.082,2.598c-0.581,0.401-1.427,0.604-2.54,0.604c-0.165,0-0.336-0.004-0.514-0.016l-0.257-1.734
			c0.257,0.032,0.489,0.048,0.697,0.048c0.581,0,0.981-0.125,1.201-0.376c0.287-0.333,0.431-1.028,0.431-2.085v-0.068
			C89.816,322.891,89.758,321.075,89.648,318.532z M92.142,316.687c0,0.278-0.132,0.517-0.394,0.711
			c-0.263,0.196-0.581,0.294-0.954,0.294c-0.367,0-0.682-0.098-0.945-0.294c-0.263-0.194-0.394-0.433-0.394-0.711
			c0-0.271,0.132-0.508,0.394-0.704c0.262-0.194,0.578-0.294,0.945-0.294c0.373,0,0.691,0.1,0.954,0.294
			C92.011,316.178,92.142,316.413,92.142,316.687z"/>
		<path fill="#FFFFFF" d="M95.875,318.259c2.079,0,3.118,1.076,3.118,3.227c0,0.086-0.003,0.175-0.009,0.262
			c-0.086,2.329-1.192,3.504-3.32,3.525c-0.024,0.004-0.049,0.007-0.073,0.007c-2.024,0-3.035-1.101-3.035-3.302v-0.189
			C92.616,319.435,93.723,318.259,95.875,318.259z M95.572,319.817c-0.385,0.102-0.648,0.474-0.789,1.114
			c-0.085,0.383-0.128,0.77-0.128,1.155c0,0.26,0.019,0.521,0.055,0.786c0.098,0.654,0.413,0.996,0.945,1.019h0.064
			c0.495,0,0.834-0.244,1.018-0.729c0.153-0.406,0.229-0.888,0.229-1.442c0-0.137-0.003-0.276-0.009-0.417
			c-0.049-0.734-0.196-1.192-0.44-1.374c-0.153-0.109-0.336-0.164-0.55-0.164C95.844,319.763,95.712,319.781,95.572,319.817z"/>
		<path fill="#FFFFFF" d="M108.814,315.436v1.928l-3.622-0.107v2.242l3.255-0.068l0.083,1.854h-2.907v1.734h3.806v1.941
			l-6.346-0.068c0.067-1.281,0.101-2.57,0.101-3.869c0-1.8-0.064-3.614-0.193-5.446
			C104.373,315.531,106.313,315.486,108.814,315.436z"/>
		<path fill="#FFFFFF" d="M111.923,318.081l0.092,1.112c0.257-0.592,0.932-0.893,2.026-0.9h0.037c1.076,0,1.81,0.312,2.201,0.941
			c0.269,0.43,0.403,1.433,0.403,3.01c0,0.773-0.034,1.689-0.101,2.748h-2.219c0.079-1.408,0.119-2.5,0.119-3.274
			c0-0.387-0.009-0.697-0.028-0.93c-0.061-0.686-0.355-1.025-0.88-1.025c-0.526,0-0.856,0.182-0.99,0.547l0.092,4.956l-2.155,0.014
			c0-2.096-0.095-4.448-0.284-7.062L111.923,318.081z"/>
		<path fill="#FFFFFF" d="M118.782,318.505c-0.012-0.123-0.018-0.249-0.018-0.376c0-0.428,0.058-0.868,0.174-1.319
			c0.141-0.588,0.569-1.057,1.284-1.408c0.532-0.264,1.204-0.396,2.017-0.396c0.269,0,0.556,0.016,0.862,0.048l-0.019,1.497
			c-0.183-0.018-0.354-0.027-0.513-0.027c-0.508,0-0.88,0.095-1.119,0.28c-0.263,0.196-0.394,0.579-0.394,1.148
			c0,0.137,0.009,0.285,0.027,0.449l1.962-0.021v1.388l-2.018,0.098c0.049,1.493,0.073,2.906,0.073,4.236
			c0,0.401-0.003,0.793-0.009,1.176l-2.329,0.075c0.018-1.518,0.049-3.312,0.092-5.387l-1.485,0.055l-0.037-1.47L118.782,318.505z"
			/>
		<path fill="#FFFFFF" d="M127.082,318.259c2.079,0,3.118,1.076,3.118,3.227c0,0.086-0.003,0.175-0.009,0.262
			c-0.086,2.329-1.192,3.504-3.32,3.525c-0.024,0.004-0.049,0.007-0.073,0.007c-2.024,0-3.036-1.101-3.036-3.302v-0.189
			C123.823,319.435,124.929,318.259,127.082,318.259z M126.779,319.817c-0.385,0.102-0.648,0.474-0.789,1.114
			c-0.086,0.383-0.128,0.77-0.128,1.155c0,0.26,0.018,0.521,0.055,0.786c0.098,0.654,0.413,0.996,0.944,1.019h0.064
			c0.495,0,0.834-0.244,1.018-0.729c0.153-0.406,0.229-0.888,0.229-1.442c0-0.137-0.003-0.276-0.009-0.417
			c-0.049-0.734-0.196-1.192-0.44-1.374c-0.153-0.109-0.336-0.164-0.55-0.164C127.051,319.763,126.919,319.781,126.779,319.817z"/>
		<path fill="#FFFFFF" d="M135.335,328.349c0.006-1.463,0.009-2.7,0.009-3.712c-0.355,0.483-0.997,0.736-1.926,0.759
			c-1.792,0-2.69-1.162-2.696-3.484c-0.006-0.011-0.009-0.02-0.009-0.027c0-2.306,1.076-3.459,3.228-3.459
			c0.63,0,1.171,0.255,1.623,0.766l0.073-1.053l1.99,0.007c-0.031,1.8-0.046,3.504-0.046,5.113c0,1.768,0.019,3.42,0.055,4.956
			L135.335,328.349z M135.344,323.365v-2.773c-0.3-0.451-0.679-0.677-1.137-0.677c-0.092,0-0.187,0.009-0.284,0.025
			c-0.593,0.105-0.92,0.713-0.981,1.825c-0.006,0.119-0.009,0.232-0.009,0.342c0,0.907,0.226,1.463,0.679,1.668
			c0.153,0.073,0.315,0.109,0.486,0.109C134.476,323.885,134.892,323.711,135.344,323.365z"/>
		<path fill="#FFFFFF" d="M143.121,325.279l-0.092-1.112c-0.257,0.592-0.948,0.891-2.073,0.896
			c-0.012,0.004-0.021,0.007-0.028,0.007c-1.113,0-1.849-0.374-2.21-1.121c-0.245-0.496-0.367-1.522-0.367-3.083
			c0-0.802,0.033-1.747,0.101-2.837h2.229c-0.122,1.531-0.183,2.709-0.183,3.534c0,0.415,0.015,0.738,0.046,0.971
			c0.092,0.713,0.4,1.066,0.926,1.066c0.526,0,0.856-0.185,0.99-0.554l-0.092-4.744l2.155-0.014c0,1.959,0.095,4.241,0.284,6.85
			L143.121,325.279z"/>
		<path fill="#FFFFFF" d="M148.549,318.259c2.122,0,3.182,1.05,3.182,3.151c0,0.255-0.015,0.527-0.046,0.818h-4.099
			c0,1.171,0.303,1.757,0.908,1.757h0.064c0.532-0.03,0.798-0.335,0.798-0.907c0-0.123-0.012-0.262-0.037-0.41l2.182-0.034
			c0,1.736-1.018,2.616-3.054,2.639c-0.025,0.004-0.046,0.007-0.064,0.007c-1.938,0-2.907-1.096-2.907-3.286v-0.205
			C145.538,319.435,146.562,318.259,148.549,318.259z M147.366,320.973h2.073v-0.164c0-0.83-0.315-1.244-0.945-1.244
			C147.816,319.564,147.44,320.034,147.366,320.973z"/>
		<path fill="#FFFFFF" d="M155.913,325.02c0.012-1.536,0.019-3.117,0.019-4.744c0-1.631-0.006-3.306-0.019-5.022
			c0.703-0.064,1.351-0.098,1.944-0.098c1.651,0,2.867,0.246,3.65,0.738c1.063,0.674,1.62,1.921,1.669,3.739v0.492
			c0,1.559-0.202,2.67-0.605,3.336c-0.446,0.732-1.262,1.221-2.448,1.463c-0.685,0.141-1.437,0.212-2.256,0.212
			C157.255,325.136,156.604,325.097,155.913,325.02z M158.188,317.206c-0.104,1.5-0.156,2.947-0.156,4.348
			c0,0.529,0.006,1.048,0.018,1.559c0.214,0.037,0.419,0.057,0.615,0.057c0.538,0,0.99-0.141,1.357-0.417
			c0.501-0.374,0.752-1.212,0.752-2.518v-0.025c-0.006-1.312-0.25-2.174-0.733-2.584c-0.373-0.312-0.816-0.465-1.33-0.465
			C158.545,317.158,158.371,317.174,158.188,317.206z"/>
		<path fill="#FFFFFF" d="M166.432,316.687c0,0.278-0.131,0.517-0.394,0.711c-0.263,0.196-0.581,0.294-0.954,0.294
			c-0.367,0-0.682-0.098-0.944-0.294c-0.263-0.194-0.395-0.433-0.395-0.711c0-0.271,0.132-0.508,0.395-0.704
			c0.263-0.194,0.578-0.294,0.944-0.294c0.373,0,0.691,0.1,0.954,0.294C166.301,316.179,166.432,316.413,166.432,316.687z
			 M163.974,325.313c-0.043-2.666-0.064-4.97-0.064-6.911l2.311-0.103c-0.073,1.859-0.11,3.708-0.11,5.544
			c0,0.492,0.003,0.982,0.009,1.47H163.974z"/>
		<path fill="#FFFFFF" d="M168.275,318.505c-0.012-0.123-0.018-0.249-0.018-0.376c0-0.428,0.058-0.868,0.174-1.319
			c0.141-0.588,0.569-1.057,1.284-1.408c0.532-0.264,1.204-0.396,2.017-0.396c0.269,0,0.556,0.016,0.862,0.048l-0.019,1.497
			c-0.183-0.018-0.354-0.027-0.513-0.027c-0.508,0-0.88,0.095-1.119,0.28c-0.263,0.196-0.394,0.579-0.394,1.148
			c0,0.137,0.009,0.285,0.027,0.449l1.962-0.021v1.388l-2.018,0.098c0.049,1.493,0.073,2.906,0.073,4.236
			c0,0.401-0.003,0.793-0.009,1.176l-2.329,0.075c0.018-1.518,0.049-3.312,0.092-5.387l-1.485,0.055l-0.037-1.47L168.275,318.505z"
			/>
		<path fill="#FFFFFF" d="M176.327,318.259c2.121,0,3.182,1.05,3.182,3.151c0,0.255-0.015,0.527-0.046,0.818h-4.099
			c0,1.171,0.302,1.757,0.908,1.757h0.064c0.532-0.03,0.798-0.335,0.798-0.907c0-0.123-0.012-0.262-0.037-0.41l2.182-0.034
			c0,1.736-1.018,2.616-3.054,2.639c-0.024,0.004-0.046,0.007-0.064,0.007c-1.938,0-2.907-1.096-2.907-3.286v-0.205
			C173.315,319.435,174.34,318.259,176.327,318.259z M175.144,320.973h2.073v-0.164c0-0.83-0.315-1.244-0.945-1.244
			C175.593,319.564,175.217,320.034,175.144,320.973z"/>
		<path fill="#FFFFFF" d="M182.636,320.378l0.092,4.956l-2.247,0.014c0-2.096-0.095-4.45-0.284-7.062l1.687-0.139l0.092,1.114
			c0.257-0.547,0.856-0.859,1.797-0.937c0.141-0.011,0.275-0.016,0.404-0.016c0.74,0,1.302,0.181,1.687,0.54
			c0.446,0.428,0.672,1.11,0.679,2.044l-2.036,0.15c0.006-0.078,0.009-0.153,0.009-0.228c0-0.729-0.253-1.094-0.761-1.094h-0.037
			C183.131,319.751,182.77,319.968,182.636,320.378z"/>
		<path fill="#FFFFFF" d="M190.137,318.259c2.122,0,3.182,1.05,3.182,3.151c0,0.255-0.015,0.527-0.046,0.818h-4.099
			c0,1.171,0.303,1.757,0.908,1.757h0.064c0.532-0.03,0.798-0.335,0.798-0.907c0-0.123-0.012-0.262-0.037-0.41l2.182-0.034
			c0,1.736-1.018,2.616-3.054,2.639c-0.025,0.004-0.046,0.007-0.064,0.007c-1.938,0-2.907-1.096-2.907-3.286v-0.205
			C187.126,319.435,188.15,318.259,190.137,318.259z M188.954,320.973h2.073v-0.164c0-0.83-0.315-1.244-0.945-1.244
			C189.404,319.564,189.028,320.034,188.954,320.973z"/>
		<path fill="#FFFFFF" d="M195.694,318.081l0.092,1.112c0.257-0.592,0.932-0.893,2.027-0.9h0.037c1.076,0,1.81,0.312,2.201,0.941
			c0.269,0.43,0.404,1.433,0.404,3.01c0,0.773-0.034,1.689-0.101,2.748h-2.219c0.079-1.408,0.119-2.5,0.119-3.274
			c0-0.387-0.009-0.697-0.027-0.93c-0.061-0.686-0.355-1.025-0.88-1.025c-0.526,0-0.856,0.182-0.99,0.547l0.092,4.956l-2.155,0.014
			c0-2.096-0.095-4.448-0.284-7.062L195.694,318.081z"/>
		<path fill="#FFFFFF" d="M204.966,322.463l2.183,0.103c0,1.646-1.018,2.479-3.054,2.502c-0.025,0.004-0.046,0.009-0.064,0.009
			c-1.938,0-2.907-1.098-2.907-3.288v-0.205c0.061-2.354,1.094-3.539,3.1-3.562h0.073c1.846,0,2.77,0.789,2.77,2.365
			c0,0.091-0.003,0.182-0.009,0.273l-1.972,0.107v-0.164c0-0.83-0.315-1.244-0.944-1.244c-0.642,0-0.963,0.674-0.963,2.019v0.226
			c0.037,1.454,0.361,2.183,0.972,2.183h0.055c0.532-0.032,0.798-0.335,0.798-0.909C205.002,322.75,204.99,322.613,204.966,322.463z
			"/>
		<path fill="#FFFFFF" d="M210.477,316.687c0,0.278-0.131,0.517-0.394,0.711c-0.263,0.196-0.581,0.294-0.954,0.294
			c-0.367,0-0.682-0.098-0.944-0.294c-0.263-0.194-0.395-0.433-0.395-0.711c0-0.271,0.132-0.508,0.395-0.704
			c0.263-0.194,0.578-0.294,0.944-0.294c0.373,0,0.691,0.1,0.954,0.294C210.346,316.179,210.477,316.413,210.477,316.687z
			 M208.02,325.313c-0.043-2.666-0.064-4.97-0.064-6.911l2.311-0.103c-0.073,1.859-0.11,3.708-0.11,5.544
			c0,0.492,0.003,0.982,0.009,1.47H208.02z"/>
		<path fill="#FFFFFF" d="M214.531,318.061c2.011,0.082,3.017,0.836,3.017,2.265v4.854l-2.137,0.027l-0.073-0.649
			c-0.44,0.374-1.024,0.562-1.751,0.562c-0.312,0-0.648-0.037-1.009-0.109c-1.082-0.201-1.623-0.825-1.623-1.873
			c0-0.127,0.009-0.264,0.027-0.41c0.122-1.08,1.152-1.62,3.091-1.62c0.373,0,0.782,0.021,1.229,0.062v-0.793
			c0-0.645-0.272-0.964-0.816-0.964h-0.037c-0.043-0.004-0.083-0.008-0.119-0.008c-0.593,0-0.889,0.359-0.889,1.079v0.104
			l-2.182-0.137c0-1.592,1.027-2.388,3.081-2.388h0.191L214.531,318.061L214.531,318.061z M215.301,323.461v-1.203
			c-0.263-0.041-0.501-0.062-0.715-0.062c-0.556,0-0.935,0.141-1.137,0.417c-0.122,0.168-0.183,0.326-0.183,0.474
			c0,0.182,0.098,0.344,0.293,0.483c0.153,0.109,0.351,0.164,0.596,0.164C214.466,323.734,214.848,323.643,215.301,323.461z"/>
		<path fill="#FFFFFF" d="M220.858,325.163l-2.283,0.155c0.024-1.508,0.037-2.96,0.037-4.354c0-1.959-0.024-3.809-0.073-5.544
			l2.247-0.027c-0.024,1.117-0.037,2.265-0.037,3.438C220.748,320.861,220.785,322.971,220.858,325.163z"/>
	</g>
</g>
</svg>
