<?xml version="1.0" encoding="utf-8"?>
<!-- Generator: Adobe Illustrator 16.0.0, SVG Export Plug-In . SVG Version: 6.00 Build 0)  -->
<!DOCTYPE svg PUBLIC "-//W3C//DTD SVG 1.1//EN" "http://www.w3.org/Graphics/SVG/1.1/DTD/svg11.dtd">
<svg version="1.1" id="Capa_1" xmlns="http://www.w3.org/2000/svg" xmlns:xlink="http://www.w3.org/1999/xlink" x="0px" y="0px"
	 width="821.984px" height="232.494px" viewBox="0 0 821.984 232.494" enable-background="new 0 0 821.984 232.494"
	 xml:space="preserve">
<g>
	<rect y="38.09" opacity="0.5" fill="#951B81" enable-background="new    " width="821.984" height="194.404"/>
	<rect x="261.01" opacity="0.5" fill="#951B81" enable-background="new    " width="240.167" height="31"/>
	<g>
		<g>
			<path fill="#FFFFFF" d="M291.662,22.141c0.018-2.194,0.026-4.453,0.026-6.777c0-2.331-0.009-4.724-0.026-7.178
				c1.004-0.091,1.93-0.137,2.777-0.137c2.358,0,4.096,0.352,5.214,1.055c1.52,0.964,2.314,2.744,2.384,5.342v0.703
				c0,2.227-0.288,3.815-0.864,4.766c-0.638,1.048-1.804,1.745-3.498,2.09c-0.979,0.202-2.053,0.303-3.223,0.303
				C293.579,22.307,292.648,22.251,291.662,22.141z M294.911,10.979c-0.149,2.142-0.223,4.212-0.223,6.211
				c0,0.755,0.008,1.497,0.026,2.227c0.306,0.052,0.599,0.078,0.878,0.078c0.769,0,1.415-0.198,1.939-0.596
				c0.716-0.534,1.074-1.731,1.074-3.594v-0.039c-0.009-1.875-0.358-3.105-1.048-3.691c-0.533-0.442-1.166-0.664-1.899-0.664
				C295.421,10.91,295.173,10.933,294.911,10.979z"/>
			<path fill="#FFFFFF" d="M307.277,12.482c3.03,0,4.546,1.501,4.546,4.502c0,0.364-0.021,0.755-0.065,1.172h-5.856
				c0,1.673,0.433,2.51,1.297,2.51h0.091c0.76-0.046,1.14-0.479,1.14-1.299c0-0.176-0.018-0.371-0.053-0.586l3.118-0.049
				c0,2.48-1.454,3.737-4.363,3.77c-0.035,0.007-0.064,0.01-0.091,0.01c-2.769,0-4.153-1.565-4.153-4.697v-0.293
				C302.976,14.162,304.439,12.482,307.277,12.482z M305.588,16.359h2.96v-0.234c0-1.185-0.45-1.777-1.349-1.777
				C306.229,14.348,305.692,15.019,305.588,16.359z"/>
			<path fill="#FFFFFF" d="M316.291,15.51l0.131,7.08l-3.21,0.02c0-2.995-0.135-6.357-0.406-10.088l2.411-0.195l0.131,1.592
				c0.367-0.781,1.224-1.228,2.567-1.338c0.201-0.013,0.393-0.02,0.577-0.02c1.057,0,1.859,0.257,2.411,0.771
				c0.637,0.612,0.96,1.585,0.969,2.92l-2.908,0.215c0.008-0.11,0.013-0.218,0.013-0.322c0-1.042-0.362-1.562-1.087-1.562h-0.052
				C316.998,14.614,316.483,14.924,316.291,15.51z"/>
			<path fill="#FFFFFF" d="M327.007,12.482c3.031,0,4.546,1.501,4.546,4.502c0,0.364-0.021,0.755-0.064,1.172h-5.856
				c0,1.673,0.434,2.51,1.297,2.51h0.091c0.761-0.046,1.141-0.479,1.141-1.299c0-0.176-0.019-0.371-0.053-0.586l3.117-0.049
				c0,2.48-1.454,3.737-4.362,3.77c-0.035,0.007-0.065,0.01-0.092,0.01c-2.769,0-4.152-1.565-4.152-4.697v-0.293
				C322.706,14.162,324.168,12.482,327.007,12.482z M325.317,16.359h2.96v-0.234c0-1.185-0.45-1.777-1.35-1.777
				C325.959,14.348,325.422,15.019,325.317,16.359z"/>
			<path fill="#FFFFFF" d="M337.894,18.488l3.118,0.146c0,2.351-1.454,3.542-4.362,3.574c-0.035,0.007-0.065,0.01-0.092,0.01
				c-2.769,0-4.152-1.565-4.152-4.697v-0.293c0.087-3.359,1.562-5.056,4.428-5.088h0.105c2.637,0,3.955,1.126,3.955,3.379
				c0,0.13-0.004,0.261-0.013,0.391l-2.816,0.156v-0.234c0-1.185-0.45-1.777-1.35-1.777c-0.917,0-1.376,0.96-1.376,2.881v0.322
				c0.053,2.077,0.517,3.115,1.39,3.115h0.078c0.761-0.046,1.141-0.479,1.141-1.299C337.946,18.898,337.929,18.703,337.894,18.488z"
				/>
			<path fill="#FFFFFF" d="M345.217,8.518l0.131,5.498c0.367-0.847,1.224-1.276,2.568-1.289h0.04c1.327,0,2.271,0.449,2.83,1.348
				c0.384,0.612,0.576,2.044,0.576,4.297c0,1.106-0.048,2.415-0.145,3.926h-3.301c0.113-2.012,0.17-3.571,0.17-4.678
				c0-0.554-0.013-0.996-0.04-1.328c-0.087-0.977-0.463-1.465-1.126-1.465c-0.664,0-1.092,0.261-1.284,0.781l0.131,7.08l-3.209,0.02
				c0-2.995-0.179-7.692-0.536-14.092L345.217,8.518z"/>
			<path fill="#FFFFFF" d="M357.073,12.482c2.969,0,4.455,1.536,4.455,4.609c0,0.124-0.005,0.247-0.014,0.371
				c-0.123,3.327-1.703,5.007-4.742,5.039c-0.035,0.007-0.07,0.01-0.104,0.01c-2.891,0-4.336-1.572-4.336-4.717v-0.273
				C352.418,14.162,353.999,12.482,357.073,12.482z M356.641,14.709c-0.55,0.144-0.926,0.674-1.127,1.592
				c-0.122,0.547-0.183,1.097-0.183,1.65c0,0.371,0.026,0.745,0.079,1.123c0.14,0.938,0.589,1.423,1.35,1.455h0.091
				c0.708,0,1.192-0.349,1.455-1.045c0.219-0.579,0.327-1.267,0.327-2.061c0-0.195-0.004-0.394-0.013-0.596
				c-0.07-1.048-0.279-1.702-0.628-1.963c-0.219-0.156-0.48-0.234-0.786-0.234C357.029,14.631,356.841,14.657,356.641,14.709z"/>
			<path fill="#FFFFFF" d="M372.204,12.199c2.873,0.117,4.31,1.194,4.31,3.232v6.934l-3.052,0.039l-0.104-0.928
				c-0.63,0.534-1.464,0.801-2.503,0.801c-0.444,0-0.926-0.052-1.44-0.156c-1.546-0.286-2.319-1.179-2.319-2.676
				c0-0.183,0.014-0.378,0.04-0.586c0.174-1.543,1.646-2.314,4.415-2.314c0.533,0,1.118,0.029,1.756,0.088V15.5
				c0-0.918-0.389-1.377-1.166-1.377h-0.053c-0.061-0.007-0.118-0.01-0.17-0.01c-0.848,0-1.271,0.515-1.271,1.543v0.146
				l-3.117-0.195c0-2.272,1.467-3.408,4.4-3.408H372.204z M373.305,19.914v-1.719c-0.376-0.059-0.716-0.088-1.021-0.088
				c-0.795,0-1.336,0.198-1.625,0.596c-0.175,0.241-0.263,0.466-0.263,0.674c0,0.261,0.141,0.491,0.42,0.693
				c0.218,0.156,0.502,0.234,0.852,0.234C372.112,20.305,372.658,20.175,373.305,19.914z"/>
			<path fill="#FFFFFF" d="M386.13,22.346l-3.262,0.225c0.035-2.155,0.052-4.229,0.052-6.221c0-2.8-0.035-5.439-0.104-7.92
				l3.21-0.039c-0.035,1.595-0.054,3.232-0.054,4.912C385.973,16.2,386.025,19.214,386.13,22.346z"/>
			<path fill="#FFFFFF" d="M392.327,12.199c2.873,0.117,4.31,1.194,4.31,3.232v6.934l-3.053,0.039l-0.104-0.928
				c-0.629,0.534-1.463,0.801-2.502,0.801c-0.444,0-0.926-0.052-1.44-0.156c-1.546-0.286-2.319-1.179-2.319-2.676
				c0-0.183,0.014-0.378,0.04-0.586c0.174-1.543,1.646-2.314,4.415-2.314c0.533,0,1.118,0.029,1.755,0.088V15.5
				c0-0.918-0.389-1.377-1.166-1.377h-0.052c-0.061-0.007-0.118-0.01-0.17-0.01c-0.847,0-1.271,0.515-1.271,1.543v0.146
				l-3.117-0.195c0-2.272,1.467-3.408,4.401-3.408H392.327z M393.427,19.914v-1.719c-0.375-0.059-0.716-0.088-1.021-0.088
				c-0.795,0-1.336,0.198-1.625,0.596c-0.175,0.241-0.263,0.466-0.263,0.674c0,0.261,0.141,0.491,0.42,0.693
				c0.218,0.156,0.502,0.234,0.852,0.234C392.235,20.305,392.78,20.175,393.427,19.914z"/>
			<path fill="#FFFFFF" d="M402.886,16.271l3.445-0.176c-0.009,0.188-0.013,0.368-0.013,0.537c0,1.452,0.235,2.331,0.708,2.637
				c0.288,0.202,0.598,0.303,0.93,0.303c0.262,0,0.533-0.059,0.812-0.176c0.611-0.254,0.917-1.143,0.917-2.666v-0.225
				c-0.034-1.66-0.131-4.355-0.287-8.086l3.733-0.166c0.062,1.829,0.091,3.444,0.091,4.844c0,3.483-0.191,5.654-0.575,6.514
				c-0.542,1.218-1.434,1.973-2.673,2.266c-0.742,0.176-1.463,0.264-2.161,0.264c-0.473,0-0.936-0.042-1.39-0.127
				c-1.127-0.195-1.954-0.616-2.481-1.265c-0.529-0.647-0.842-1.333-0.938-2.056c-0.079-0.605-0.118-1.276-0.118-2.012V16.271
				L402.886,16.271z"/>
			<path fill="#FFFFFF" d="M421.318,22.512l-0.132-1.592c-0.366,0.847-1.354,1.272-2.96,1.279c-0.018,0.007-0.03,0.01-0.04,0.01
				c-1.589,0-2.642-0.534-3.156-1.602c-0.35-0.71-0.524-2.178-0.524-4.404c0-1.146,0.048-2.497,0.145-4.053h3.184
				c-0.175,2.188-0.262,3.87-0.262,5.049c0,0.593,0.021,1.055,0.064,1.387c0.131,1.016,0.572,1.523,1.323,1.523
				s1.223-0.264,1.415-0.791l-0.131-6.777l3.078-0.02c0,2.8,0.136,6.062,0.405,9.785L421.318,22.512z"/>
			<path fill="#FFFFFF" d="M424.659,19.045l3-0.107v0.127c0,1.003,0.415,1.511,1.245,1.523h0.052c0.804,0,1.206-0.29,1.206-0.869
				V19.65c-0.035-0.638-0.828-1.152-2.378-1.543s-2.482-1.048-2.797-1.973c-0.114-0.325-0.17-0.638-0.17-0.938
				c0-0.547,0.188-1.055,0.562-1.523c0.576-0.716,1.45-1.126,2.62-1.23c0.313-0.026,0.62-0.039,0.917-0.039
				c0.777,0,1.462,0.101,2.057,0.303c0.812,0.28,1.375,0.681,1.69,1.201c0.21,0.358,0.313,0.755,0.313,1.191
				c0,0.208-0.021,0.423-0.064,0.645l-2.804,0.049c0.025-0.163,0.04-0.312,0.04-0.449c0-0.651-0.28-0.999-0.839-1.045
				c-0.062-0.007-0.122-0.01-0.184-0.01c-0.576,0-0.965,0.218-1.166,0.654c-0.07,0.149-0.104,0.286-0.104,0.41
				c0,0.306,0.191,0.569,0.575,0.791c0.542,0.312,1.344,0.63,2.404,0.952c1.062,0.322,1.775,0.871,2.142,1.646
				c0.132,0.293,0.196,0.586,0.196,0.879c0,0.495-0.191,0.993-0.576,1.494c-0.61,0.801-1.559,1.267-2.843,1.396
				c-0.28,0.032-0.555,0.049-0.825,0.049c-0.961,0-1.852-0.186-2.673-0.557C425.209,21.528,424.676,20.542,424.659,19.045z"/>
			<path fill="#FFFFFF" d="M436.305,9.367l2.975-0.146v3.232l2.502-0.049l0.039,1.846l-2.542,0.088v4.443
				c0,1.035,0.589,1.553,1.769,1.553c0.245,0,0.511-0.022,0.799-0.068l-0.118,2.148c-0.419,0.039-0.815,0.059-1.191,0.059
				c-2.76,0-4.166-1.062-4.218-3.184v-4.775l-2.148,0.098l-0.053-2.178l2.201,0.02L436.305,9.367z"/>
			<path fill="#FFFFFF" d="M446.576,10.236c0,0.397-0.188,0.735-0.563,1.016c-0.375,0.281-0.83,0.42-1.361,0.42
				c-0.524,0-0.975-0.14-1.351-0.42s-0.562-0.618-0.562-1.016c0-0.391,0.188-0.726,0.562-1.006c0.375-0.28,0.825-0.42,1.351-0.42
				c0.531,0,0.986,0.14,1.361,0.42C446.388,9.51,446.576,9.846,446.576,10.236z M443.065,22.561c-0.062-3.809-0.093-7.1-0.093-9.873
				l3.302-0.146c-0.104,2.656-0.157,5.296-0.157,7.92c0,0.703,0.004,1.403,0.014,2.1L443.065,22.561L443.065,22.561z"/>
			<path fill="#FFFFFF" d="M452.655,18.488l3.118,0.146c0,2.351-1.454,3.542-4.362,3.574c-0.035,0.007-0.065,0.01-0.092,0.01
				c-2.77,0-4.153-1.565-4.153-4.697v-0.293c0.087-3.359,1.563-5.056,4.428-5.088h0.104c2.638,0,3.957,1.126,3.957,3.379
				c0,0.13-0.004,0.261-0.014,0.391l-2.815,0.156v-0.234c0-1.185-0.45-1.777-1.351-1.777c-0.917,0-1.375,0.96-1.375,2.881v0.322
				c0.053,2.077,0.516,3.115,1.39,3.115h0.079c0.76-0.046,1.14-0.479,1.14-1.299C452.707,18.898,452.689,18.703,452.655,18.488z"/>
			<path fill="#FFFFFF" d="M460.528,10.236c0,0.397-0.188,0.735-0.563,1.016c-0.375,0.281-0.83,0.42-1.362,0.42
				c-0.523,0-0.974-0.14-1.35-0.42s-0.562-0.618-0.562-1.016c0-0.391,0.188-0.726,0.562-1.006c0.375-0.28,0.825-0.42,1.35-0.42
				c0.532,0,0.987,0.14,1.362,0.42C460.34,9.51,460.528,9.846,460.528,10.236z M457.017,22.561c-0.061-3.809-0.092-7.1-0.092-9.873
				l3.301-0.146c-0.104,2.656-0.156,5.296-0.156,7.92c0,0.703,0.004,1.403,0.014,2.1L457.017,22.561L457.017,22.561z"/>
			<path fill="#FFFFFF" d="M466.318,12.199c2.874,0.117,4.311,1.194,4.311,3.232v6.934l-3.053,0.039l-0.104-0.928
				c-0.629,0.534-1.463,0.801-2.502,0.801c-0.444,0-0.926-0.052-1.44-0.156c-1.546-0.286-2.319-1.179-2.319-2.676
				c0-0.183,0.013-0.378,0.039-0.586c0.175-1.543,1.646-2.314,4.415-2.314c0.533,0,1.118,0.029,1.755,0.088V15.5
				c0-0.918-0.389-1.377-1.166-1.377h-0.052c-0.062-0.007-0.118-0.01-0.17-0.01c-0.848,0-1.271,0.515-1.271,1.543v0.146
				l-3.118-0.195c0-2.272,1.468-3.408,4.402-3.408H466.318z M467.419,19.914v-1.719c-0.375-0.059-0.716-0.088-1.021-0.088
				c-0.796,0-1.337,0.198-1.625,0.596c-0.176,0.241-0.263,0.466-0.263,0.674c0,0.261,0.141,0.491,0.419,0.693
				c0.219,0.156,0.502,0.234,0.853,0.234C466.227,20.305,466.772,20.175,467.419,19.914z"/>
		</g>
	</g>
	<circle fill="#FFFFFF" cx="33.541" cy="76.901" r="3.367"/>
	<circle fill="#FFFFFF" cx="436.061" cy="76.901" r="3.367"/>
	<circle fill="#FFFFFF" cx="436.061" cy="113.826" r="3.367"/>
	<circle fill="#FFFFFF" cx="436.061" cy="148.826" r="3.367"/>
	<circle fill="#FFFFFF" cx="436.061" cy="185.826" r="3.367"/>
	<circle fill="#FFFFFF" cx="33.541" cy="113.826" r="3.367"/>
	<circle fill="#FFFFFF" cx="33.541" cy="184.494" r="3.367"/>
	<circle fill="#FFFFFF" cx="33.541" cy="150.326" r="3.367"/>
</g>
</svg>
