<?xml version="1.0" encoding="utf-8"?>
<!-- Generator: Adobe Illustrator 16.0.0, SVG Export Plug-In . SVG Version: 6.00 Build 0)  -->
<!DOCTYPE svg PUBLIC "-//W3C//DTD SVG 1.1//EN" "http://www.w3.org/Graphics/SVG/1.1/DTD/svg11.dtd">
<svg version="1.1" id="Capa_1" xmlns="http://www.w3.org/2000/svg" xmlns:xlink="http://www.w3.org/1999/xlink" x="0px" y="0px"
	 width="804.312px" height="334.641px" viewBox="0 0 804.312 334.641" enable-background="new 0 0 804.312 334.641"
	 xml:space="preserve">
<g>
	<rect x="100.39" y="0.5" opacity="0.2" fill="#951B81" enable-background="new    " width="343.205" height="81.76"/>
	<g>
		<g>
			<polyline fill="none" stroke="#951B81" stroke-miterlimit="10" points="443.595,81.76 443.595,82.26 443.095,82.26 			"/>
			
				<line fill="none" stroke="#951B81" stroke-miterlimit="10" stroke-dasharray="0.9977,0.9977" x1="442.097" y1="82.26" x2="101.389" y2="82.26"/>
			<polyline fill="none" stroke="#951B81" stroke-miterlimit="10" points="100.89,82.26 100.39,82.26 100.39,81.76 			"/>
			
				<line fill="none" stroke="#951B81" stroke-miterlimit="10" stroke-dasharray="0.997,0.997" x1="100.39" y1="80.763" x2="100.39" y2="1.499"/>
			<polyline fill="none" stroke="#951B81" stroke-miterlimit="10" points="100.39,1 100.39,0.5 100.89,0.5 			"/>
			
				<line fill="none" stroke="#951B81" stroke-miterlimit="10" stroke-dasharray="0.9977,0.9977" x1="101.888" y1="0.5" x2="442.595" y2="0.5"/>
			<polyline fill="none" stroke="#951B81" stroke-miterlimit="10" points="443.095,0.5 443.595,0.5 443.595,1 			"/>
			
				<line fill="none" stroke="#951B81" stroke-miterlimit="10" stroke-dasharray="0.997,0.997" x1="443.595" y1="1.997" x2="443.595" y2="81.261"/>
		</g>
	</g>
	<rect y="103.735" fill="#331842" width="543.984" height="31"/>
	<rect y="140.235" opacity="0.5" fill="#951B81" enable-background="new    " width="269.321" height="194.405"/>
	<rect x="274.664" y="140.58" opacity="0.5" fill="#331842" enable-background="new    " width="269.32" height="194.061"/>
	<g>
		<g>
			<path fill="#FFFFFF" d="M116.417,111.853c3.677,0,5.515,2.344,5.515,7.031c0,4.694-1.97,7.041-5.908,7.041
				c-3.939,0-5.909-2.432-5.909-7.295C110.115,114.112,112.215,111.853,116.417,111.853z M113.796,119.147
				c-0.009,0.169-0.013,0.332-0.013,0.488c0,2.455,0.768,3.682,2.306,3.682c1.633,0,2.45-1.39,2.45-4.17
				c0-2.779-0.76-4.17-2.279-4.17C114.73,114.978,113.91,116.368,113.796,119.147z"/>
			<path fill="#FFFFFF" d="M126.333,112.429c-0.096,1.96-0.144,3.662-0.144,5.107c0.463-0.618,1.052-0.979,1.769-1.084
				c0.122-0.007,0.24-0.011,0.354-0.011c2.847,0,4.301,1.533,4.363,4.601v0.176c0,3.073-1.516,4.609-4.546,4.609
				c-0.725,0-1.411-0.361-2.057-1.084l-0.104,1.493l-3.105-0.01c0.043-2.383,0.065-4.674,0.065-6.875
				c0-2.415-0.026-4.723-0.079-6.924L126.333,112.429L126.333,112.429z M126.189,119.362l-0.065,3.379
				c0.454,0.69,1.03,1.035,1.729,1.035c0.079,0,0.157-0.003,0.236-0.01c0.803-0.084,1.249-0.889,1.336-2.412
				c0.009-0.156,0.013-0.306,0.013-0.449c0-1.25-0.341-1.994-1.022-2.235c-0.209-0.071-0.415-0.107-0.616-0.107
				C127.25,118.562,126.713,118.829,126.189,119.362z"/>
			<path fill="#FFFFFF" d="M137.39,126.081l-3.262,0.225c0.035-2.155,0.052-4.229,0.052-6.221c0-2.799-0.035-5.439-0.105-7.92
				l3.21-0.039c-0.035,1.595-0.053,3.231-0.053,4.912C137.233,119.936,137.286,122.95,137.39,126.081z"/>
			<path fill="#FFFFFF" d="M142.185,113.972c0,0.397-0.188,0.736-0.563,1.016c-0.375,0.28-0.83,0.421-1.362,0.421
				c-0.524,0-0.974-0.141-1.35-0.421c-0.375-0.279-0.563-0.617-0.563-1.016c0-0.391,0.188-0.726,0.563-1.006
				c0.376-0.28,0.826-0.42,1.35-0.42c0.533,0,0.987,0.14,1.362,0.42S142.185,113.581,142.185,113.972z M138.674,126.296
				c-0.062-3.81-0.092-7.101-0.092-9.873l3.301-0.146c-0.105,2.656-0.157,5.296-0.157,7.92c0,0.703,0.004,1.403,0.013,2.101
				L138.674,126.296L138.674,126.296z"/>
			<path fill="#FFFFFF" d="M143.272,127.38l3.079-0.127c-0.009,0.078-0.013,0.156-0.013,0.233c0,0.709,0.38,1.098,1.14,1.162
				c0.123,0.014,0.236,0.021,0.341,0.021c0.655,0,1.122-0.195,1.402-0.586c0.244-0.353,0.367-1.01,0.367-1.974
				c0-0.26-0.009-0.547-0.026-0.858c-0.489,0.729-1.397,1.126-2.725,1.19c-2.594-0.02-3.891-1.663-3.891-4.932v-0.068
				c0.018-3.307,1.559-4.971,4.625-4.989c0.838,0,1.589,0.364,2.253,1.094l0.039-1.553l2.869,0.098c0,5.371-0.022,8.698-0.065,9.979
				c-0.044,1.282-0.304,2.312-0.779,3.086c-0.477,0.774-1.286,1.271-2.43,1.484c-0.603,0.117-1.201,0.176-1.795,0.176
				c-0.533,0-1.061-0.046-1.585-0.137c-1.118-0.195-1.886-0.562-2.306-1.104c-0.349-0.443-0.524-1.022-0.524-1.738
				C143.246,127.695,143.255,127.542,143.272,127.38z M149.535,123.513v-3.965c-0.428-0.646-0.97-0.967-1.625-0.967
				c-0.131,0-0.267,0.013-0.406,0.039c-0.847,0.149-1.314,1.019-1.402,2.606c-0.009,0.169-0.013,0.332-0.013,0.488
				c0,1.296,0.323,2.09,0.969,2.383c0.218,0.104,0.45,0.156,0.694,0.156C148.294,124.255,148.888,124.008,149.535,123.513z"/>
			<path fill="#FFFFFF" d="M158.81,115.935c2.873,0.117,4.31,1.195,4.31,3.232v6.934l-3.052,0.039l-0.105-0.928
				c-0.629,0.534-1.463,0.801-2.502,0.801c-0.445,0-0.926-0.052-1.441-0.156c-1.545-0.286-2.318-1.178-2.318-2.676
				c0-0.182,0.013-0.377,0.039-0.586c0.175-1.543,1.646-2.314,4.415-2.314c0.533,0,1.118,0.029,1.755,0.089v-1.134
				c0-0.918-0.389-1.377-1.166-1.377h-0.052c-0.062-0.006-0.118-0.01-0.17-0.01c-0.847,0-1.271,0.515-1.271,1.543v0.146
				l-3.118-0.195c0-2.272,1.467-3.408,4.402-3.408H158.81z M159.91,123.649v-1.719c-0.375-0.059-0.716-0.088-1.022-0.088
				c-0.795,0-1.336,0.199-1.624,0.596c-0.175,0.241-0.262,0.466-0.262,0.674c0,0.262,0.14,0.492,0.419,0.693
				c0.218,0.156,0.502,0.234,0.852,0.234C158.718,124.04,159.264,123.91,159.91,123.649z"/>
			<path fill="#FFFFFF" d="M169.526,122.224l3.118,0.146c0,2.351-1.454,3.542-4.363,3.573c-0.035,0.008-0.065,0.011-0.091,0.011
				c-2.769,0-4.153-1.565-4.153-4.697v-0.293c0.087-3.359,1.563-5.055,4.428-5.088h0.105c2.637,0,3.956,1.126,3.956,3.379
				c0,0.13-0.004,0.261-0.013,0.391l-2.817,0.156v-0.234c0-1.185-0.45-1.776-1.349-1.776c-0.917,0-1.376,0.96-1.376,2.881v0.322
				c0.053,2.076,0.516,3.114,1.389,3.114h0.079c0.76-0.045,1.14-0.479,1.14-1.299C169.579,122.634,169.561,122.438,169.526,122.224z
				"/>
			<path fill="#FFFFFF" d="M177.399,113.972c0,0.397-0.188,0.736-0.563,1.016c-0.376,0.28-0.83,0.421-1.363,0.421
				c-0.524,0-0.974-0.141-1.349-0.421c-0.376-0.279-0.563-0.617-0.563-1.016c0-0.391,0.188-0.726,0.563-1.006s0.825-0.42,1.349-0.42
				c0.533,0,0.987,0.14,1.363,0.42C177.211,113.246,177.399,113.581,177.399,113.972z M173.889,126.296
				c-0.062-3.81-0.092-7.101-0.092-9.873l3.301-0.146c-0.105,2.656-0.157,5.296-0.157,7.92c0,0.703,0.004,1.403,0.013,2.101
				L173.889,126.296L173.889,126.296z"/>
			<path fill="#FFFFFF" d="M182.731,116.218c2.969,0,4.454,1.537,4.454,4.609c0,0.124-0.004,0.248-0.013,0.37
				c-0.122,3.327-1.703,5.008-4.742,5.039c-0.035,0.008-0.07,0.011-0.105,0.011c-2.891,0-4.336-1.572-4.336-4.718v-0.272
				C178.076,117.897,179.657,116.218,182.731,116.218z M182.299,118.444c-0.551,0.145-0.926,0.675-1.127,1.593
				c-0.122,0.547-0.184,1.097-0.184,1.649c0,0.371,0.026,0.746,0.079,1.123c0.139,0.938,0.589,1.423,1.349,1.455h0.092
				c0.708,0,1.192-0.348,1.454-1.045c0.218-0.579,0.328-1.266,0.328-2.061c0-0.195-0.005-0.395-0.013-0.597
				c-0.07-1.048-0.28-1.702-0.629-1.963c-0.218-0.156-0.48-0.234-0.786-0.234C182.688,118.365,182.5,118.393,182.299,118.444z"/>
			<path fill="#FFFFFF" d="M190.317,115.964l0.131,1.592c0.367-0.846,1.332-1.276,2.895-1.289h0.052
				c1.537,0,2.585,0.449,3.145,1.348c0.384,0.612,0.576,2.045,0.576,4.298c0,1.106-0.048,2.416-0.144,3.926h-3.17
				c0.113-2.012,0.17-3.571,0.17-4.678c0-0.554-0.013-0.996-0.04-1.328c-0.087-0.978-0.506-1.465-1.257-1.465
				s-1.223,0.261-1.415,0.78l0.131,7.08l-3.079,0.021c0-2.995-0.135-6.357-0.406-10.088L190.317,115.964z"/>
			<path fill="#FFFFFF" d="M202.461,116.218c3.031,0,4.546,1.501,4.546,4.502c0,0.365-0.022,0.755-0.065,1.172h-5.856
				c0,1.673,0.432,2.51,1.297,2.51h0.092c0.76-0.045,1.14-0.479,1.14-1.299c0-0.176-0.018-0.371-0.052-0.586l3.118-0.049
				c0,2.479-1.454,3.737-4.362,3.77c-0.035,0.008-0.065,0.011-0.092,0.011c-2.769,0-4.153-1.565-4.153-4.697v-0.293
				C198.16,117.897,199.623,116.218,202.461,116.218z M200.771,120.095h2.961v-0.234c0-1.185-0.45-1.776-1.35-1.776
				C201.413,118.083,200.875,118.754,200.771,120.095z"/>
			<path fill="#FFFFFF" d="M207.832,122.78l3-0.106v0.127c0,1.003,0.415,1.511,1.245,1.522h0.053c0.803,0,1.205-0.289,1.205-0.868
				v-0.068c-0.035-0.638-0.828-1.152-2.378-1.543s-2.482-1.048-2.797-1.973c-0.114-0.325-0.17-0.639-0.17-0.938
				c0-0.547,0.188-1.055,0.563-1.522c0.577-0.717,1.45-1.127,2.62-1.23c0.314-0.026,0.62-0.039,0.917-0.039
				c0.777,0,1.463,0.101,2.057,0.303c0.812,0.28,1.375,0.682,1.69,1.201c0.21,0.358,0.314,0.755,0.314,1.191
				c0,0.208-0.021,0.423-0.065,0.645l-2.804,0.049c0.026-0.163,0.04-0.312,0.04-0.448c0-0.651-0.28-0.999-0.838-1.045
				c-0.062-0.007-0.123-0.011-0.184-0.011c-0.576,0-0.965,0.219-1.166,0.654c-0.07,0.15-0.104,0.287-0.104,0.41
				c0,0.306,0.192,0.57,0.576,0.791c0.542,0.312,1.343,0.63,2.404,0.952c1.061,0.321,1.775,0.871,2.142,1.646
				c0.131,0.293,0.197,0.586,0.197,0.879c0,0.495-0.192,0.993-0.577,1.494c-0.611,0.801-1.559,1.268-2.843,1.396
				c-0.279,0.032-0.555,0.049-0.825,0.049c-0.961,0-1.852-0.187-2.673-0.558C208.382,125.264,207.85,124.278,207.832,122.78z"/>
			<path fill="#FFFFFF" d="M226.435,116.218c3.03,0,4.546,1.501,4.546,4.502c0,0.365-0.022,0.755-0.065,1.172h-5.856
				c0,1.673,0.433,2.51,1.297,2.51h0.091c0.76-0.045,1.14-0.479,1.14-1.299c0-0.176-0.018-0.371-0.052-0.586l3.118-0.049
				c0,2.479-1.454,3.737-4.363,3.77c-0.035,0.008-0.065,0.011-0.091,0.011c-2.769,0-4.153-1.565-4.153-4.697v-0.293
				C222.133,117.897,223.596,116.218,226.435,116.218z M224.745,120.095h2.96v-0.234c0-1.185-0.45-1.776-1.349-1.776
				C225.387,118.083,224.85,118.754,224.745,120.095z"/>
			<path fill="#FFFFFF" d="M231.806,122.78l3-0.106v0.127c0,1.003,0.415,1.511,1.245,1.522h0.052c0.804,0,1.205-0.289,1.205-0.868
				v-0.068c-0.035-0.638-0.827-1.152-2.377-1.543c-1.55-0.391-2.482-1.048-2.797-1.973c-0.114-0.325-0.17-0.639-0.17-0.938
				c0-0.547,0.188-1.055,0.563-1.522c0.576-0.717,1.449-1.127,2.62-1.23c0.314-0.026,0.62-0.039,0.917-0.039
				c0.777,0,1.463,0.101,2.057,0.303c0.812,0.28,1.375,0.682,1.69,1.201c0.209,0.358,0.314,0.755,0.314,1.191
				c0,0.208-0.022,0.423-0.065,0.645l-2.804,0.049c0.026-0.163,0.04-0.312,0.04-0.448c0-0.651-0.28-0.999-0.838-1.045
				c-0.062-0.007-0.123-0.011-0.184-0.011c-0.577,0-0.965,0.219-1.166,0.654c-0.07,0.15-0.105,0.287-0.105,0.41
				c0,0.306,0.192,0.57,0.577,0.791c0.542,0.312,1.343,0.63,2.404,0.952c1.062,0.321,1.775,0.871,2.142,1.646
				c0.131,0.293,0.197,0.586,0.197,0.879c0,0.495-0.192,0.993-0.577,1.494c-0.611,0.801-1.559,1.268-2.843,1.396
				c-0.28,0.032-0.555,0.049-0.826,0.049c-0.96,0-1.852-0.187-2.672-0.558C232.356,125.264,231.824,124.278,231.806,122.78z"/>
			<path fill="#FFFFFF" d="M241.343,130.144c0.053-2.193,0.079-4.528,0.079-7.002c0-2.252-0.022-4.616-0.065-7.09l3.105-0.01
				l0.104,1.504c0.646-0.729,1.507-1.094,2.581-1.094c2.681,0,4.022,1.578,4.022,4.735v0.195c-0.062,3.164-1.397,4.746-4.009,4.746
				c-0.105,0-0.209-0.003-0.314-0.01c-0.891-0.032-1.611-0.395-2.162-1.084c0,1.444,0.048,3.146,0.144,5.106h-3.485V130.144z
				 M244.619,119.548l0.065,3.672c0.506,0.515,1.017,0.771,1.533,0.771c0.209,0,0.419-0.045,0.629-0.137
				c0.637-0.26,0.956-1.038,0.956-2.334c0-0.156-0.004-0.318-0.013-0.488c-0.087-1.588-0.511-2.425-1.271-2.51
				c-0.079-0.006-0.153-0.01-0.223-0.01C245.631,118.513,245.073,118.858,244.619,119.548z"/>
			<path fill="#FFFFFF" d="M256.461,116.218c3.03,0,4.546,1.501,4.546,4.502c0,0.365-0.022,0.755-0.065,1.172h-5.856
				c0,1.673,0.432,2.51,1.297,2.51h0.092c0.76-0.045,1.14-0.479,1.14-1.299c0-0.176-0.018-0.371-0.052-0.586l3.118-0.049
				c0,2.479-1.454,3.737-4.362,3.77c-0.035,0.008-0.065,0.011-0.092,0.011c-2.769,0-4.153-1.565-4.153-4.697v-0.293
				C252.16,117.897,253.623,116.218,256.461,116.218z M254.771,120.095h2.96v-0.234c0-1.185-0.45-1.776-1.349-1.776
				C255.414,118.083,254.876,118.754,254.771,120.095z"/>
			<path fill="#FFFFFF" d="M267.348,122.224l3.118,0.146c0,2.351-1.454,3.542-4.362,3.573c-0.035,0.008-0.065,0.011-0.092,0.011
				c-2.769,0-4.153-1.565-4.153-4.697v-0.293c0.087-3.359,1.563-5.055,4.428-5.088h0.105c2.638,0,3.957,1.126,3.957,3.379
				c0,0.13-0.005,0.261-0.013,0.391l-2.817,0.156v-0.234c0-1.185-0.45-1.776-1.349-1.776c-0.917,0-1.375,0.96-1.375,2.881v0.322
				c0.052,2.076,0.515,3.114,1.389,3.114h0.079c0.76-0.045,1.14-0.479,1.14-1.299C267.4,122.634,267.383,122.438,267.348,122.224z"
				/>
			<path fill="#FFFFFF" d="M271.71,126.296c-0.061-3.81-0.092-7.101-0.092-9.873l3.302-0.146c-0.105,2.656-0.157,5.296-0.157,7.92
				c0,0.703,0.004,1.403,0.013,2.101L271.71,126.296L271.71,126.296z M271.71,114.313c1.022-0.904,1.86-1.768,2.516-2.588
				l2.148,1.271c-0.926,0.677-1.957,1.507-3.092,2.489L271.71,114.313z"/>
			<path fill="#FFFFFF" d="M277.855,116.569c-0.018-0.176-0.026-0.354-0.026-0.537c0-0.611,0.083-1.239,0.249-1.885
				c0.201-0.84,0.812-1.51,1.834-2.012c0.76-0.377,1.72-0.566,2.882-0.566c0.384,0,0.795,0.023,1.231,0.068l-0.026,2.139
				c-0.262-0.025-0.507-0.039-0.734-0.039c-0.725,0-1.258,0.135-1.598,0.4c-0.375,0.28-0.563,0.827-0.563,1.641
				c0,0.195,0.013,0.41,0.04,0.646l2.803-0.029v1.982l-2.882,0.137c0.07,2.136,0.104,4.154,0.104,6.055
				c0,0.573-0.004,1.134-0.013,1.681l-3.327,0.106c0.026-2.168,0.07-4.732,0.131-7.694l-2.122,0.077l-0.053-2.1L277.855,116.569z"/>
			<path fill="#FFFFFF" d="M288.767,113.972c0,0.397-0.188,0.736-0.563,1.016c-0.375,0.28-0.83,0.421-1.363,0.421
				c-0.523,0-0.974-0.141-1.349-0.421c-0.375-0.279-0.563-0.617-0.563-1.016c0-0.391,0.188-0.726,0.563-1.006s0.826-0.42,1.349-0.42
				c0.533,0,0.987,0.14,1.363,0.42S288.767,113.581,288.767,113.972z M285.256,126.296c-0.061-3.81-0.092-7.101-0.092-9.873
				l3.302-0.146c-0.105,2.656-0.157,5.296-0.157,7.92c0,0.703,0.004,1.403,0.013,2.101L285.256,126.296L285.256,126.296z"/>
			<path fill="#FFFFFF" d="M294.846,122.224l3.118,0.146c0,2.351-1.455,3.542-4.363,3.573c-0.035,0.008-0.065,0.011-0.092,0.011
				c-2.769,0-4.153-1.565-4.153-4.697v-0.293c0.087-3.359,1.563-5.055,4.428-5.088h0.104c2.638,0,3.957,1.126,3.957,3.379
				c0,0.13-0.004,0.261-0.013,0.391l-2.816,0.156v-0.234c0-1.185-0.45-1.776-1.35-1.776c-0.917,0-1.375,0.96-1.375,2.881v0.322
				c0.053,2.076,0.515,3.114,1.389,3.114h0.079c0.76-0.045,1.14-0.479,1.14-1.299C294.898,122.634,294.881,122.438,294.846,122.224z
				"/>
			<path fill="#FFFFFF" d="M304.122,115.935c2.873,0.117,4.31,1.195,4.31,3.232v6.934l-3.052,0.039l-0.105-0.928
				c-0.629,0.534-1.463,0.801-2.502,0.801c-0.445,0-0.926-0.052-1.441-0.156c-1.545-0.286-2.318-1.178-2.318-2.676
				c0-0.182,0.013-0.377,0.039-0.586c0.175-1.543,1.646-2.314,4.415-2.314c0.533,0,1.118,0.029,1.755,0.089v-1.134
				c0-0.918-0.389-1.377-1.166-1.377h-0.052c-0.062-0.006-0.118-0.01-0.17-0.01c-0.847,0-1.271,0.515-1.271,1.543v0.146
				l-3.118-0.195c0-2.272,1.467-3.408,4.402-3.408H304.122z M305.222,123.649v-1.719c-0.375-0.059-0.716-0.088-1.022-0.088
				c-0.795,0-1.336,0.199-1.624,0.596c-0.175,0.241-0.262,0.466-0.262,0.674c0,0.262,0.14,0.492,0.419,0.693
				c0.218,0.156,0.502,0.234,0.852,0.234C304.03,124.04,304.575,123.91,305.222,123.649z"/>
			<path fill="#FFFFFF" d="M309.322,122.78l3-0.106v0.127c0,1.003,0.415,1.511,1.245,1.522h0.052c0.804,0,1.206-0.289,1.206-0.868
				v-0.068c-0.035-0.638-0.828-1.152-2.378-1.543s-2.482-1.048-2.797-1.973c-0.114-0.325-0.171-0.639-0.171-0.938
				c0-0.547,0.188-1.055,0.563-1.522c0.576-0.717,1.45-1.127,2.62-1.23c0.313-0.026,0.62-0.039,0.917-0.039
				c0.777,0,1.462,0.101,2.057,0.303c0.812,0.28,1.375,0.682,1.69,1.201c0.21,0.358,0.313,0.755,0.313,1.191
				c0,0.208-0.021,0.423-0.064,0.645l-2.804,0.049c0.025-0.163,0.039-0.312,0.039-0.448c0-0.651-0.279-0.999-0.838-1.045
				c-0.062-0.007-0.123-0.011-0.184-0.011c-0.576,0-0.965,0.219-1.166,0.654c-0.07,0.15-0.104,0.287-0.104,0.41
				c0,0.306,0.192,0.57,0.576,0.791c0.542,0.312,1.343,0.63,2.404,0.952c1.061,0.321,1.775,0.871,2.142,1.646
				c0.132,0.293,0.196,0.586,0.196,0.879c0,0.495-0.192,0.993-0.576,1.494c-0.61,0.801-1.559,1.268-2.843,1.396
				c-0.28,0.032-0.555,0.049-0.825,0.049c-0.961,0-1.852-0.187-2.673-0.558C309.873,125.264,309.339,124.278,309.322,122.78z"/>
			<path fill="#FFFFFF" d="M325.58,116.569c-0.019-0.176-0.026-0.354-0.026-0.537c0-0.611,0.083-1.239,0.249-1.885
				c0.201-0.84,0.812-1.51,1.834-2.012c0.761-0.377,1.722-0.566,2.882-0.566c0.385,0,0.795,0.023,1.231,0.068l-0.026,2.139
				c-0.262-0.025-0.507-0.039-0.732-0.039c-0.726,0-1.258,0.135-1.6,0.4c-0.375,0.28-0.562,0.827-0.562,1.641
				c0,0.195,0.013,0.41,0.039,0.646l2.804-0.029v1.982l-2.882,0.137c0.07,2.136,0.104,4.154,0.104,6.055
				c0,0.573-0.004,1.134-0.013,1.681l-3.328,0.106c0.026-2.168,0.07-4.732,0.131-7.694l-2.123,0.077l-0.052-2.1L325.58,116.569z"/>
			<path fill="#FFFFFF" d="M336.31,119.245l0.132,7.08l-3.209,0.02c0-2.995-0.137-6.357-0.406-10.088l2.411-0.195l0.131,1.592
				c0.367-0.78,1.223-1.227,2.567-1.338c0.201-0.013,0.394-0.02,0.576-0.02c1.058,0,1.86,0.257,2.411,0.771
				c0.637,0.612,0.96,1.585,0.969,2.92l-2.907,0.216c0.009-0.11,0.013-0.219,0.013-0.322c0-1.042-0.363-1.562-1.087-1.562h-0.052
				C337.017,118.35,336.501,118.659,336.31,119.245z"/>
			<path fill="#FFFFFF" d="M347.026,116.218c3.029,0,4.546,1.501,4.546,4.502c0,0.365-0.022,0.755-0.065,1.172h-5.855
				c0,1.673,0.433,2.51,1.297,2.51h0.091c0.76-0.045,1.14-0.479,1.14-1.299c0-0.176-0.018-0.371-0.052-0.586l3.118-0.049
				c0,2.479-1.454,3.737-4.363,3.77c-0.035,0.008-0.064,0.011-0.091,0.011c-2.769,0-4.153-1.565-4.153-4.697v-0.293
				C342.724,117.897,344.187,116.218,347.026,116.218z M345.336,120.095h2.96v-0.234c0-1.185-0.45-1.776-1.349-1.776
				C345.978,118.083,345.44,118.754,345.336,120.095z"/>
			<path fill="#FFFFFF" d="M354.965,115.964l0.131,1.592c0.367-0.846,1.332-1.276,2.896-1.289h0.053
				c1.537,0,2.585,0.449,3.145,1.348c0.384,0.612,0.576,2.045,0.576,4.298c0,1.106-0.048,2.416-0.145,3.926h-3.17
				c0.113-2.012,0.17-3.571,0.17-4.678c0-0.554-0.013-0.996-0.039-1.328c-0.087-0.978-0.507-1.465-1.258-1.465
				s-1.224,0.261-1.415,0.78l0.131,7.08l-3.079,0.021c0-2.995-0.136-6.357-0.406-10.088L354.965,115.964z"/>
			<path fill="#FFFFFF" d="M365.039,113.103l2.974-0.146v3.231l2.502-0.049l0.039,1.846l-2.542,0.088v4.443
				c0,1.035,0.589,1.553,1.77,1.553c0.245,0,0.511-0.021,0.799-0.067l-0.118,2.147c-0.419,0.039-0.815,0.06-1.191,0.06
				c-2.761,0-4.166-1.062-4.219-3.185v-4.774l-2.147,0.098l-0.054-2.178l2.201,0.02L365.039,113.103z"/>
			<path fill="#FFFFFF" d="M375.899,116.218c3.03,0,4.546,1.501,4.546,4.502c0,0.365-0.022,0.755-0.065,1.172h-5.855
				c0,1.673,0.432,2.51,1.297,2.51h0.092c0.76-0.045,1.14-0.479,1.14-1.299c0-0.176-0.018-0.371-0.052-0.586l3.118-0.049
				c0,2.479-1.454,3.737-4.362,3.77c-0.035,0.008-0.064,0.011-0.092,0.011c-2.77,0-4.153-1.565-4.153-4.697v-0.293
				C371.598,117.897,373.061,116.218,375.899,116.218z M374.209,120.095h2.961v-0.234c0-1.185-0.45-1.776-1.35-1.776
				C374.851,118.083,374.314,118.754,374.209,120.095z"/>
			<path fill="#FFFFFF" d="M391.384,115.935c2.873,0.117,4.311,1.195,4.311,3.232v6.934l-3.053,0.039l-0.104-0.928
				c-0.629,0.534-1.463,0.801-2.502,0.801c-0.445,0-0.926-0.052-1.441-0.156c-1.546-0.286-2.318-1.178-2.318-2.676
				c0-0.182,0.013-0.377,0.04-0.586c0.174-1.543,1.646-2.314,4.414-2.314c0.533,0,1.118,0.029,1.757,0.089v-1.134
				c0-0.918-0.39-1.377-1.166-1.377h-0.054c-0.061-0.006-0.117-0.01-0.17-0.01c-0.848,0-1.271,0.515-1.271,1.543v0.146l-3.118-0.195
				c0-2.272,1.467-3.408,4.401-3.408H391.384z M392.485,123.649v-1.719c-0.376-0.059-0.717-0.088-1.022-0.088
				c-0.795,0-1.336,0.199-1.625,0.596c-0.175,0.241-0.262,0.466-0.262,0.674c0,0.262,0.14,0.492,0.419,0.693
				c0.218,0.156,0.502,0.234,0.852,0.234C391.292,124.04,391.838,123.91,392.485,123.649z"/>
			<path fill="#FFFFFF" d="M400.423,126.081l-3.262,0.225c0.035-2.155,0.052-4.229,0.052-6.221c0-2.799-0.035-5.439-0.104-7.92
				l3.21-0.039c-0.035,1.595-0.054,3.231-0.054,4.912C400.266,119.936,400.319,122.95,400.423,126.081z"/>
			<path fill="#FFFFFF" d="M406.542,125.876c0.018-2.194,0.025-4.453,0.025-6.777c0-2.331-0.01-4.723-0.025-7.178
				c1.004-0.091,1.93-0.137,2.777-0.137c2.357,0,4.096,0.352,5.213,1.055c1.52,0.964,2.314,2.744,2.385,5.342v0.703
				c0,2.227-0.289,3.814-0.865,4.766c-0.637,1.048-1.803,1.745-3.498,2.09c-0.977,0.202-2.051,0.304-3.223,0.304
				C408.458,126.042,407.529,125.987,406.542,125.876z M409.791,114.714c-0.148,2.142-0.223,4.212-0.223,6.211
				c0,0.755,0.01,1.498,0.025,2.227c0.307,0.053,0.6,0.078,0.877,0.078c0.77,0,1.416-0.198,1.939-0.596
				c0.717-0.534,1.074-1.731,1.074-3.594v-0.039c-0.01-1.875-0.357-3.105-1.049-3.691c-0.531-0.441-1.164-0.664-1.898-0.664
				C410.3,114.646,410.052,114.668,409.791,114.714z"/>
			<path fill="#FFFFFF" d="M421.582,125.495l-3.262,0.225c0-4.778-0.105-9.264-0.314-13.457l3.734-0.234
				C421.642,116.448,421.589,120.938,421.582,125.495z"/>
			<path fill="#FFFFFF" d="M433.582,112.243c-0.105,4.382-0.205,9.102-0.301,14.159h-2.975v-5.692h-3.734v5.233l-3.576-0.01
				c0.104-2.389,0.156-4.727,0.156-7.012c0-2.278-0.053-4.505-0.156-6.68h3.418l-0.145,5.692l3.734,0.117v-6.045L433.582,112.243z"
				/>
		</g>
	</g>
	<g>
		<circle fill="#951B81" cx="63.152" cy="28.845" r="2.551"/>
		<circle fill="#951B81" cx="56.957" cy="28.845" r="2.551"/>
		<circle fill="#951B81" cx="50.762" cy="28.845" r="2.55"/>
		<circle fill="#951B81" cx="56.957" cy="35.112" r="2.551"/>
		<circle fill="#951B81" cx="50.762" cy="35.112" r="2.55"/>
		<circle fill="#951B81" cx="44.568" cy="35.112" r="2.55"/>
		<circle fill="#951B81" cx="50.762" cy="41.379" r="2.55"/>
		<circle fill="#951B81" cx="44.568" cy="41.379" r="2.55"/>
		<circle fill="#951B81" cx="38.373" cy="41.379" r="2.551"/>
		<circle fill="#951B81" cx="56.957" cy="47.647" r="2.551"/>
		<circle fill="#951B81" cx="50.762" cy="47.647" r="2.55"/>
		<circle fill="#951B81" cx="44.568" cy="47.647" r="2.55"/>
		<circle fill="#951B81" cx="63.152" cy="53.915" r="2.551"/>
		<circle fill="#951B81" cx="56.957" cy="53.915" r="2.551"/>
		<circle fill="#951B81" cx="50.762" cy="53.915" r="2.55"/>
	</g>
</g>
</svg>
