<?xml version="1.0" encoding="utf-8"?>
<!-- Generator: Adobe Illustrator 16.0.0, SVG Export Plug-In . SVG Version: 6.00 Build 0)  -->
<!DOCTYPE svg PUBLIC "-//W3C//DTD SVG 1.1//EN" "http://www.w3.org/Graphics/SVG/1.1/DTD/svg11.dtd">
<svg version="1.1" id="Capa_1" xmlns="http://www.w3.org/2000/svg" xmlns:xlink="http://www.w3.org/1999/xlink" x="0px" y="0px"
	 width="788.418px" height="232.494px" viewBox="0 0 788.418 232.494" enable-background="new 0 0 788.418 232.494"
	 xml:space="preserve">
<g>
	<rect y="37.025" fill="#951B81" width="239.093" height="32"/>
	<rect x="244.434" opacity="0.5" fill="#951B81" enable-background="new    " width="269.321" height="31"/>
	<rect x="244.434" y="38.09" opacity="0.5" fill="#951B81" enable-background="new    " width="269.321" height="194.404"/>
	<rect x="519.098" opacity="0.5" fill="#331842" enable-background="new    " width="269.32" height="31"/>
	<rect x="519.098" y="36.844" opacity="0.5" fill="#331842" enable-background="new    " width="269.32" height="194.061"/>
	<g>
		<g>
			<path fill="#FFFFFF" d="M302.702,13.449l-2.908,0.01v-0.264c0-1.53-0.576-2.295-1.729-2.295c-1.231,0-1.847,1.413-1.847,4.238
				c0,3.184,0.646,4.775,1.938,4.775h0.013c1.292-0.006,1.939-0.788,1.939-2.344v-0.967h3.249v0.732
				c0,3.242-1.786,4.938-5.358,5.088c-0.104,0.007-0.209,0.01-0.314,0.01c-3.362,0-5.043-2.409-5.043-7.227
				c0-4.713,1.729-7.07,5.188-7.07c3.257,0,4.886,1.576,4.886,4.727C302.715,13.052,302.71,13.248,302.702,13.449z"/>
			<path fill="#FFFFFF" d="M308.741,12.482c2.969,0,4.454,1.537,4.454,4.609c0,0.124-0.004,0.248-0.014,0.371
				c-0.122,3.327-1.702,5.007-4.741,5.039c-0.035,0.007-0.07,0.01-0.105,0.01c-2.891,0-4.336-1.572-4.336-4.717v-0.273
				C304.086,14.162,305.667,12.482,308.741,12.482z M308.309,14.709c-0.551,0.144-0.926,0.674-1.127,1.592
				c-0.122,0.547-0.184,1.097-0.184,1.65c0,0.371,0.026,0.746,0.079,1.123c0.139,0.938,0.589,1.423,1.349,1.455h0.092
				c0.708,0,1.192-0.348,1.454-1.045c0.219-0.579,0.328-1.266,0.328-2.061c0-0.195-0.005-0.394-0.013-0.596
				c-0.07-1.048-0.28-1.702-0.629-1.963c-0.218-0.156-0.48-0.234-0.786-0.234C308.697,14.631,308.51,14.657,308.309,14.709z"/>
			<path fill="#FFFFFF" d="M316.327,12.229l0.131,1.592c0.367-0.846,1.332-1.276,2.895-1.289h0.053c1.537,0,2.585,0.449,3.145,1.348
				c0.384,0.612,0.576,2.044,0.576,4.297c0,1.107-0.048,2.416-0.144,3.926h-3.171c0.113-2.012,0.171-3.571,0.171-4.678
				c0-0.553-0.014-0.996-0.04-1.328c-0.088-0.977-0.507-1.465-1.258-1.465s-1.223,0.261-1.415,0.781l0.132,7.08l-3.079,0.02
				c0-2.995-0.136-6.357-0.406-10.088L316.327,12.229z"/>
			<path fill="#FFFFFF" d="M324.056,19.045l3-0.107v0.127c0,1.003,0.415,1.511,1.245,1.523h0.054c0.803,0,1.204-0.29,1.204-0.869
				V19.65c-0.034-0.638-0.827-1.152-2.378-1.543c-1.55-0.391-2.481-1.048-2.797-1.973c-0.114-0.325-0.17-0.638-0.17-0.938
				c0-0.547,0.188-1.055,0.563-1.523c0.576-0.716,1.449-1.126,2.62-1.23c0.313-0.026,0.619-0.039,0.916-0.039
				c0.777,0,1.464,0.101,2.058,0.303c0.812,0.28,1.375,0.681,1.689,1.201c0.21,0.358,0.314,0.755,0.314,1.191
				c0,0.208-0.021,0.423-0.065,0.645l-2.804,0.049c0.026-0.163,0.04-0.312,0.04-0.449c0-0.651-0.28-0.999-0.838-1.045
				c-0.062-0.006-0.123-0.01-0.184-0.01c-0.576,0-0.966,0.218-1.166,0.654c-0.07,0.15-0.104,0.287-0.104,0.41
				c0,0.306,0.192,0.57,0.576,0.791c0.542,0.312,1.343,0.63,2.404,0.952c1.061,0.322,1.774,0.871,2.142,1.646
				c0.131,0.293,0.197,0.586,0.197,0.879c0,0.495-0.192,0.993-0.577,1.494c-0.611,0.801-1.56,1.267-2.843,1.396
				c-0.279,0.033-0.556,0.049-0.825,0.049c-0.961,0-1.853-0.186-2.673-0.557C324.606,21.529,324.073,20.542,324.056,19.045z"/>
			<path fill="#FFFFFF" d="M335.702,9.367l2.974-0.146v3.232l2.502-0.049l0.039,1.846l-2.541,0.088v4.443
				c0,1.035,0.589,1.553,1.77,1.553c0.244,0,0.511-0.022,0.799-0.068l-0.118,2.148c-0.419,0.039-0.817,0.059-1.192,0.059
				c-2.76,0-4.165-1.061-4.218-3.184v-4.775l-2.147,0.098l-0.054-2.178l2.201,0.02L335.702,9.367z"/>
			<path fill="#FFFFFF" d="M345.973,10.236c0,0.397-0.188,0.736-0.562,1.016s-0.83,0.42-1.362,0.42c-0.523,0-0.974-0.14-1.35-0.42
				c-0.375-0.28-0.563-0.618-0.563-1.016c0-0.391,0.188-0.726,0.563-1.006c0.375-0.28,0.825-0.42,1.35-0.42
				c0.532,0,0.987,0.14,1.362,0.42C345.785,9.511,345.973,9.846,345.973,10.236z M342.462,22.561
				c-0.061-3.809-0.092-7.1-0.092-9.873l3.301-0.146c-0.104,2.656-0.157,5.296-0.157,7.92c0,0.703,0.004,1.403,0.015,2.1
				L342.462,22.561L342.462,22.561z"/>
			<path fill="#FFFFFF" d="M348.881,9.367l2.975-0.146v3.232l2.502-0.049l0.039,1.846l-2.542,0.088v4.443
				c0,1.035,0.59,1.553,1.769,1.553c0.245,0,0.511-0.022,0.799-0.068l-0.118,2.148c-0.419,0.039-0.816,0.059-1.191,0.059
				c-2.76,0-4.166-1.061-4.218-3.184v-4.775l-2.149,0.098l-0.052-2.178l2.201,0.02L348.881,9.367z"/>
			<path fill="#FFFFFF" d="M362.283,22.512l-0.131-1.592c-0.367,0.847-1.354,1.273-2.961,1.279c-0.019,0.007-0.031,0.01-0.04,0.01
				c-1.59,0-2.643-0.534-3.157-1.602c-0.35-0.709-0.524-2.178-0.524-4.404c0-1.146,0.048-2.497,0.145-4.053h3.184
				c-0.175,2.188-0.262,3.871-0.262,5.049c0,0.593,0.021,1.055,0.064,1.387c0.132,1.016,0.572,1.523,1.323,1.523
				s1.224-0.264,1.415-0.791l-0.131-6.777l3.079-0.02c0,2.8,0.135,6.062,0.406,9.785L362.283,22.512z"/>
			<path fill="#FFFFFF" d="M371.139,18.488l3.118,0.146c0,2.351-1.454,3.542-4.363,3.574c-0.034,0.007-0.064,0.01-0.091,0.01
				c-2.769,0-4.152-1.565-4.152-4.697v-0.293c0.087-3.359,1.562-5.055,4.428-5.088h0.104c2.638,0,3.956,1.126,3.956,3.379
				c0,0.13-0.004,0.261-0.013,0.391l-2.817,0.156v-0.234c0-1.185-0.449-1.777-1.349-1.777c-0.917,0-1.376,0.96-1.376,2.881v0.322
				c0.053,2.077,0.516,3.115,1.389,3.115h0.079c0.761-0.045,1.141-0.479,1.141-1.299C371.192,18.898,371.174,18.703,371.139,18.488z
				"/>
			<path fill="#FFFFFF" d="M379.013,10.236c0,0.397-0.188,0.736-0.562,1.016s-0.83,0.42-1.362,0.42c-0.523,0-0.974-0.14-1.35-0.42
				c-0.375-0.28-0.563-0.618-0.563-1.016c0-0.391,0.188-0.726,0.563-1.006c0.375-0.28,0.826-0.42,1.35-0.42
				c0.533,0,0.987,0.14,1.362,0.42C378.825,9.511,379.013,9.846,379.013,10.236z M375.501,22.561
				c-0.061-3.809-0.092-7.1-0.092-9.873l3.302-0.146c-0.104,2.656-0.157,5.296-0.157,7.92c0,0.703,0.004,1.403,0.014,2.1
				L375.501,22.561L375.501,22.561z"/>
			<path fill="#FFFFFF" d="M384.344,12.482c2.971,0,4.455,1.537,4.455,4.609c0,0.124-0.004,0.248-0.013,0.371
				c-0.123,3.327-1.703,5.007-4.742,5.039c-0.035,0.007-0.07,0.01-0.105,0.01c-2.891,0-4.336-1.572-4.336-4.717v-0.273
				C379.689,14.162,381.27,12.482,384.344,12.482z M383.912,14.709c-0.55,0.144-0.926,0.674-1.126,1.592
				c-0.123,0.547-0.185,1.097-0.185,1.65c0,0.371,0.026,0.746,0.079,1.123c0.141,0.938,0.589,1.423,1.351,1.455h0.091
				c0.708,0,1.192-0.348,1.455-1.045c0.218-0.579,0.328-1.266,0.328-2.061c0-0.195-0.005-0.394-0.015-0.596
				c-0.069-1.048-0.278-1.702-0.628-1.963c-0.218-0.156-0.479-0.234-0.786-0.234C384.301,14.631,384.113,14.657,383.912,14.709z
				 M382.642,10.578c1.022-0.905,1.86-1.768,2.516-2.588l2.147,1.271c-0.926,0.677-1.957,1.507-3.092,2.49L382.642,10.578z"/>
			<path fill="#FFFFFF" d="M391.93,12.229l0.131,1.592c0.367-0.846,1.332-1.276,2.896-1.289h0.052c1.537,0,2.585,0.449,3.146,1.348
				c0.384,0.612,0.575,2.044,0.575,4.297c0,1.107-0.048,2.416-0.144,3.926h-3.17c0.113-2.012,0.17-3.571,0.17-4.678
				c0-0.553-0.013-0.996-0.04-1.328c-0.087-0.977-0.506-1.465-1.258-1.465c-0.751,0-1.224,0.261-1.415,0.781l0.131,7.08l-3.079,0.02
				c0-2.995-0.135-6.357-0.406-10.088L391.93,12.229z"/>
			<path fill="#FFFFFF" d="M404.913,22.219c0.052-1.712,0.079-3.463,0.079-5.254c0-2.747-0.062-5.592-0.185-8.535
				c1.494-0.156,2.812-0.234,3.957-0.234c1.8,0,3.152,0.195,4.062,0.586c1.406,0.605,2.108,1.846,2.108,3.721v0.322
				c-0.087,2.058-0.712,3.374-1.873,3.95c-1.162,0.576-2.595,0.884-4.298,0.923c-0.009,0.202-0.013,0.41-0.013,0.625
				c0,1.081,0.074,2.36,0.223,3.838L404.913,22.219z M408.266,10.695l0.093,4.775c1.625-0.065,2.575-0.498,2.855-1.299
				c0.131-0.364,0.197-0.739,0.197-1.123c0-0.449-0.088-0.911-0.262-1.387c-0.263-0.696-0.917-1.045-1.966-1.045
				C408.904,10.617,408.598,10.644,408.266,10.695z"/>
			<path fill="#FFFFFF" d="M420.83,12.482c2.969,0,4.454,1.537,4.454,4.609c0,0.124-0.004,0.248-0.014,0.371
				c-0.122,3.327-1.702,5.007-4.742,5.039c-0.035,0.007-0.07,0.01-0.105,0.01c-2.891,0-4.336-1.572-4.336-4.717v-0.273
				C416.174,14.162,417.755,12.482,420.83,12.482z M420.397,14.709c-0.551,0.144-0.927,0.674-1.128,1.592
				c-0.121,0.547-0.183,1.097-0.183,1.65c0,0.371,0.026,0.746,0.079,1.123c0.139,0.938,0.589,1.423,1.349,1.455h0.093
				c0.708,0,1.191-0.348,1.453-1.045c0.219-0.579,0.328-1.266,0.328-2.061c0-0.195-0.004-0.394-0.013-0.596
				c-0.07-1.048-0.279-1.702-0.629-1.963c-0.218-0.156-0.48-0.234-0.786-0.234C420.786,14.631,420.598,14.657,420.397,14.709z"/>
			<path fill="#FFFFFF" d="M429.686,22.346l-3.262,0.225c0.035-2.155,0.053-4.229,0.053-6.221c0-2.799-0.034-5.439-0.104-7.92
				l3.209-0.039c-0.035,1.595-0.052,3.232-0.052,4.912C429.528,16.2,429.581,19.214,429.686,22.346z"/>
			<path fill="#FFFFFF" d="M430.97,22.561c-0.062-3.809-0.092-7.1-0.092-9.873l3.301-0.146c-0.104,2.656-0.156,5.296-0.156,7.92
				c0,0.703,0.004,1.403,0.013,2.1L430.97,22.561L430.97,22.561z M430.97,10.578c1.022-0.905,1.86-1.768,2.516-2.588l2.147,1.271
				c-0.926,0.677-1.957,1.507-3.092,2.49L430.97,10.578z"/>
			<path fill="#FFFFFF" d="M437.389,9.367l2.975-0.146v3.232l2.502-0.049l0.04,1.846l-2.542,0.088v4.443
				c0,1.035,0.589,1.553,1.769,1.553c0.244,0,0.511-0.022,0.799-0.068l-0.117,2.148c-0.42,0.039-0.817,0.059-1.192,0.059
				c-2.76,0-4.166-1.061-4.219-3.184v-4.775l-2.148,0.098l-0.052-2.178l2.201,0.02L437.389,9.367z"/>
			<path fill="#FFFFFF" d="M447.66,10.236c0,0.397-0.188,0.736-0.563,1.016s-0.83,0.42-1.361,0.42c-0.524,0-0.975-0.14-1.351-0.42
				c-0.375-0.28-0.562-0.618-0.562-1.016c0-0.391,0.188-0.726,0.562-1.006c0.375-0.28,0.826-0.42,1.351-0.42
				c0.532,0,0.986,0.14,1.361,0.42C447.472,9.511,447.66,9.846,447.66,10.236z M444.149,22.561c-0.062-3.809-0.093-7.1-0.093-9.873
				l3.302-0.146c-0.105,2.656-0.157,5.296-0.157,7.92c0,0.703,0.004,1.403,0.013,2.1L444.149,22.561L444.149,22.561z"/>
			<path fill="#FFFFFF" d="M453.738,18.488l3.118,0.146c0,2.351-1.455,3.542-4.363,3.574c-0.035,0.007-0.065,0.01-0.092,0.01
				c-2.77,0-4.152-1.565-4.152-4.697v-0.293c0.087-3.359,1.562-5.055,4.428-5.088h0.104c2.638,0,3.957,1.126,3.957,3.379
				c0,0.13-0.004,0.261-0.014,0.391l-2.815,0.156v-0.234c0-1.185-0.45-1.777-1.351-1.777c-0.917,0-1.375,0.96-1.375,2.881v0.322
				c0.054,2.077,0.516,3.115,1.39,3.115h0.079c0.76-0.045,1.14-0.479,1.14-1.299C453.791,18.898,453.773,18.703,453.738,18.488z"/>
			<path fill="#FFFFFF" d="M463.014,12.199c2.873,0.117,4.311,1.195,4.311,3.232v6.934l-3.054,0.039l-0.104-0.928
				c-0.629,0.534-1.463,0.801-2.502,0.801c-0.445,0-0.926-0.052-1.441-0.156c-1.546-0.286-2.318-1.178-2.318-2.676
				c0-0.182,0.013-0.377,0.04-0.586c0.174-1.543,1.646-2.314,4.415-2.314c0.532,0,1.117,0.029,1.755,0.088V15.5
				c0-0.918-0.39-1.377-1.166-1.377h-0.052c-0.062-0.006-0.118-0.01-0.171-0.01c-0.847,0-1.271,0.515-1.271,1.543v0.146
				l-3.118-0.195c0-2.272,1.467-3.408,4.402-3.408H463.014z M464.114,19.914v-1.719c-0.375-0.059-0.716-0.088-1.021-0.088
				c-0.795,0-1.336,0.199-1.625,0.596c-0.175,0.241-0.262,0.466-0.262,0.674c0,0.261,0.14,0.492,0.419,0.693
				c0.218,0.156,0.502,0.234,0.852,0.234C462.922,20.305,463.467,20.175,464.114,19.914z"/>
		</g>
	</g>
	<g>
		<g>
			<path fill="#FFFFFF" d="M631.081,23.141c0.018-2.194,0.026-4.453,0.026-6.777c0-2.331-0.01-4.723-0.026-7.178
				c1.004-0.091,1.93-0.137,2.777-0.137c2.357,0,4.096,0.352,5.214,1.055c1.52,0.964,2.313,2.744,2.384,5.342v0.703
				c0,2.227-0.288,3.815-0.865,4.766c-0.638,1.048-1.804,1.745-3.498,2.09c-0.978,0.202-2.052,0.303-3.223,0.303
				C632.998,23.307,632.068,23.251,631.081,23.141z M634.33,11.979c-0.148,2.142-0.223,4.212-0.223,6.211
				c0,0.755,0.009,1.498,0.025,2.227c0.307,0.052,0.599,0.078,0.877,0.078c0.77,0,1.415-0.198,1.939-0.596
				c0.716-0.534,1.074-1.731,1.074-3.594v-0.039c-0.01-1.875-0.358-3.105-1.049-3.691c-0.532-0.442-1.166-0.664-1.898-0.664
				C634.84,11.91,634.592,11.933,634.33,11.979z"/>
			<path fill="#FFFFFF" d="M642.543,23.141c0.019-2.194,0.026-4.453,0.026-6.777c0-2.331-0.01-4.723-0.026-7.178
				c1.004-0.091,1.931-0.137,2.777-0.137c2.357,0,4.096,0.352,5.214,1.055c1.52,0.964,2.313,2.744,2.384,5.342v0.703
				c0,2.227-0.288,3.815-0.865,4.766c-0.638,1.048-1.803,1.745-3.498,2.09c-0.979,0.202-2.053,0.303-3.223,0.303
				C644.46,23.307,643.531,23.251,642.543,23.141z M645.792,11.979c-0.148,2.142-0.223,4.212-0.223,6.211
				c0,0.755,0.009,1.498,0.025,2.227c0.307,0.052,0.599,0.078,0.878,0.078c0.769,0,1.415-0.198,1.938-0.596
				c0.716-0.534,1.074-1.731,1.074-3.594v-0.039c-0.01-1.875-0.358-3.105-1.049-3.691c-0.532-0.442-1.166-0.664-1.898-0.664
				C646.304,11.91,646.055,11.933,645.792,11.979z"/>
			<path fill="#FFFFFF" d="M664.592,9.508c-0.104,4.382-0.206,9.102-0.302,14.16h-2.974v-5.693h-3.733v5.234l-3.577-0.01
				c0.105-2.389,0.157-4.727,0.157-7.012c0-2.278-0.052-4.505-0.157-6.68h3.419L657.28,15.2l3.733,0.117V9.273L664.592,9.508z"/>
			<path fill="#FFFFFF" d="M676.435,9.508c-0.104,4.382-0.205,9.102-0.301,14.16h-2.974v-5.693h-3.733v5.234l-3.577-0.01
				c0.105-2.389,0.157-4.727,0.157-7.012c0-2.278-0.052-4.505-0.157-6.68h3.419l-0.145,5.693l3.734,0.117V9.273L676.435,9.508z"/>
		</g>
	</g>
	<g>
		<path fill="#FFFFFF" d="M57.813,48.468c2.574,0,3.86,1.641,3.86,4.922c0,3.286-1.378,4.929-4.136,4.929
			c-2.758,0-4.136-1.702-4.136-5.106C53.402,50.049,54.872,48.468,57.813,48.468z M55.979,53.574
			c-0.006,0.119-0.009,0.232-0.009,0.342c0,1.718,0.538,2.577,1.614,2.577c1.143,0,1.715-0.973,1.715-2.919
			c0-1.946-0.532-2.919-1.596-2.919C56.633,50.655,56.058,51.628,55.979,53.574z"/>
		<path fill="#FFFFFF" d="M64.755,48.871c-0.067,1.372-0.101,2.563-0.101,3.575c0.324-0.433,0.737-0.686,1.238-0.759
			c0.085-0.004,0.168-0.007,0.248-0.007c1.993,0,3.011,1.073,3.054,3.22v0.123c0,2.151-1.061,3.227-3.182,3.227
			c-0.508,0-0.987-0.253-1.44-0.759l-0.073,1.046l-2.173-0.007c0.03-1.668,0.046-3.272,0.046-4.812c0-1.69-0.019-3.306-0.055-4.847
			H64.755L64.755,48.871z M64.654,53.725l-0.046,2.365c0.318,0.483,0.722,0.725,1.211,0.725c0.055,0,0.11-0.002,0.165-0.007
			c0.562-0.059,0.874-0.622,0.935-1.688c0.006-0.109,0.009-0.214,0.009-0.314c0-0.875-0.238-1.396-0.715-1.565
			c-0.147-0.05-0.291-0.075-0.431-0.075C65.397,53.164,65.021,53.351,64.654,53.725z"/>
		<path fill="#FFFFFF" d="M72.495,58.428l-2.283,0.157c0.024-1.508,0.037-2.96,0.037-4.354c0-1.959-0.024-3.808-0.074-5.544
			l2.247-0.027c-0.024,1.117-0.037,2.263-0.037,3.438C72.385,54.126,72.421,56.236,72.495,58.428z"/>
		<path fill="#FFFFFF" d="M75.851,49.951c0,0.278-0.132,0.515-0.395,0.711c-0.263,0.196-0.581,0.294-0.954,0.294
			c-0.367,0-0.682-0.098-0.944-0.294c-0.263-0.196-0.395-0.433-0.395-0.711c0-0.273,0.131-0.508,0.395-0.704
			c0.263-0.196,0.578-0.294,0.944-0.294c0.373,0,0.691,0.098,0.954,0.294S75.851,49.678,75.851,49.951z M73.393,58.578
			c-0.042-2.666-0.064-4.97-0.064-6.911l2.311-0.103c-0.073,1.859-0.11,3.708-0.11,5.544c0,0.492,0.003,0.982,0.009,1.47H73.393z"/>
		<path fill="#FFFFFF" d="M76.612,59.337l2.155-0.089c-0.006,0.055-0.009,0.109-0.009,0.164c0,0.497,0.266,0.768,0.798,0.813
			c0.085,0.009,0.165,0.014,0.239,0.014c0.458,0,0.785-0.137,0.981-0.41c0.171-0.246,0.257-0.707,0.257-1.381
			c0-0.182-0.006-0.383-0.018-0.602c-0.343,0.511-0.979,0.789-1.908,0.834c-1.816-0.014-2.724-1.164-2.724-3.452V55.18
			c0.012-2.315,1.091-3.479,3.237-3.493c0.587,0,1.113,0.255,1.577,0.766l0.028-1.087l2.008,0.068c0,3.76-0.015,6.089-0.046,6.986
			c-0.03,0.897-0.212,1.618-0.545,2.16s-0.9,0.889-1.701,1.039c-0.422,0.082-0.84,0.123-1.256,0.123
			c-0.373,0-0.743-0.032-1.109-0.096c-0.783-0.137-1.321-0.395-1.614-0.772c-0.245-0.31-0.367-0.716-0.367-1.217
			C76.594,59.558,76.6,59.451,76.612,59.337z M80.996,56.63v-2.775c-0.3-0.451-0.679-0.677-1.137-0.677
			c-0.092,0-0.187,0.009-0.284,0.027c-0.593,0.105-0.92,0.713-0.981,1.825c-0.006,0.119-0.009,0.232-0.009,0.342
			c0,0.907,0.227,1.463,0.679,1.668c0.153,0.073,0.315,0.109,0.486,0.109C80.127,57.149,80.543,56.977,80.996,56.63z"/>
		<path fill="#FFFFFF" d="M87.488,51.325c2.011,0.082,3.017,0.836,3.017,2.263v4.854l-2.137,0.027l-0.073-0.649
			c-0.44,0.374-1.024,0.561-1.752,0.561c-0.312,0-0.648-0.036-1.008-0.109c-1.083-0.2-1.624-0.825-1.624-1.873
			c0-0.127,0.009-0.264,0.028-0.41c0.122-1.08,1.152-1.62,3.09-1.62c0.373,0,0.782,0.021,1.229,0.062v-0.793
			c0-0.643-0.272-0.964-0.816-0.964h-0.037c-0.043-0.004-0.083-0.007-0.119-0.007c-0.593,0-0.89,0.36-0.89,1.08v0.103l-2.183-0.137
			c0-1.59,1.027-2.386,3.081-2.386h0.194V51.325z M88.258,56.726v-1.203c-0.263-0.041-0.501-0.062-0.715-0.062
			c-0.557,0-0.936,0.139-1.137,0.417c-0.123,0.169-0.184,0.326-0.184,0.472c0,0.183,0.098,0.344,0.293,0.485
			c0.153,0.109,0.352,0.164,0.596,0.164C87.424,56.999,87.806,56.908,88.258,56.726z"/>
		<path fill="#FFFFFF" d="M94.99,55.728l2.183,0.103c0,1.646-1.018,2.479-3.054,2.502c-0.024,0.005-0.046,0.007-0.064,0.007
			c-1.938,0-2.907-1.096-2.907-3.288v-0.205c0.061-2.352,1.094-3.539,3.1-3.562h0.073c1.846,0,2.77,0.789,2.77,2.365
			c0,0.091-0.003,0.183-0.009,0.273l-1.972,0.109v-0.164c0-0.829-0.315-1.244-0.944-1.244c-0.642,0-0.963,0.672-0.963,2.017v0.226
			c0.037,1.454,0.36,2.181,0.972,2.181h0.055c0.532-0.032,0.798-0.335,0.798-0.909C95.026,56.015,95.014,55.878,94.99,55.728z"/>
		<path fill="#FFFFFF" d="M100.501,49.951c0,0.278-0.131,0.515-0.394,0.711c-0.263,0.196-0.581,0.294-0.954,0.294
			c-0.367,0-0.682-0.098-0.944-0.294c-0.263-0.196-0.395-0.433-0.395-0.711c0-0.273,0.132-0.508,0.395-0.704
			s0.578-0.294,0.944-0.294c0.373,0,0.691,0.098,0.954,0.294C100.37,49.443,100.501,49.678,100.501,49.951z M98.043,58.578
			c-0.043-2.666-0.064-4.97-0.064-6.911l2.311-0.103c-0.073,1.859-0.11,3.708-0.11,5.544c0,0.492,0.003,0.982,0.009,1.47H98.043z"/>
		<path fill="#FFFFFF" d="M104.233,51.523c2.079,0,3.118,1.076,3.118,3.227c0,0.087-0.003,0.173-0.009,0.26
			c-0.086,2.329-1.192,3.505-3.32,3.527c-0.024,0.005-0.049,0.007-0.073,0.007c-2.024,0-3.036-1.101-3.036-3.302v-0.191
			C100.975,52.699,102.082,51.523,104.233,51.523z M103.931,53.082c-0.386,0.101-0.648,0.472-0.789,1.114
			c-0.085,0.383-0.128,0.768-0.128,1.155c0,0.26,0.019,0.522,0.055,0.786c0.098,0.656,0.413,0.996,0.944,1.019h0.064
			c0.495,0,0.834-0.244,1.018-0.731c0.153-0.405,0.229-0.886,0.229-1.442c0-0.137-0.003-0.275-0.009-0.417
			c-0.049-0.733-0.196-1.191-0.44-1.374c-0.153-0.109-0.336-0.164-0.55-0.164C104.203,53.027,104.071,53.046,103.931,53.082z
			 M103.042,50.19c0.715-0.633,1.302-1.237,1.761-1.812l1.504,0.889c-0.648,0.474-1.37,1.055-2.165,1.743L103.042,50.19z"/>
		<path fill="#FFFFFF" d="M109.543,51.346l0.092,1.114c0.257-0.592,0.932-0.893,2.027-0.902h0.037c1.076,0,1.81,0.314,2.201,0.943
			c0.269,0.429,0.403,1.431,0.403,3.008c0,0.775-0.033,1.691-0.101,2.748h-2.219c0.08-1.408,0.119-2.5,0.119-3.274
			c0-0.387-0.009-0.697-0.027-0.93c-0.061-0.684-0.355-1.025-0.88-1.025c-0.526,0-0.856,0.183-0.99,0.547l0.091,4.956l-2.155,0.014
			c0-2.096-0.095-4.45-0.284-7.062L109.543,51.346z"/>
		<path fill="#FFFFFF" d="M125.417,48.871c-0.037,1.541-0.055,3.156-0.055,4.847c0,1.541,0.016,3.145,0.046,4.812l-2.173,0.007
			l-0.073-1.046c-0.453,0.506-1.055,0.759-1.807,0.759c-1.877,0-2.815-1.071-2.815-3.213c0-0.045,0.003-0.091,0.009-0.137
			c0.037-2.146,0.966-3.22,2.788-3.22c0.073,0,0.149,0.002,0.229,0.007c0.624,0.027,1.128,0.28,1.513,0.759
			c0-1.012-0.034-2.203-0.101-3.575H125.417z M123.125,56.09l-0.046-2.365c-0.354-0.36-0.718-0.54-1.091-0.54
			c-0.153,0-0.306,0.03-0.458,0.089c-0.483,0.187-0.725,0.711-0.725,1.572c0,0.101,0.003,0.203,0.009,0.308
			c0.061,1.044,0.373,1.595,0.936,1.654c0.055,0.005,0.11,0.007,0.165,0.007C122.403,56.814,122.807,56.573,123.125,56.09z"/>
		<path fill="#FFFFFF" d="M129.122,51.523c2.122,0,3.183,1.051,3.183,3.151c0,0.255-0.016,0.529-0.046,0.82h-4.1
			c0,1.171,0.303,1.757,0.908,1.757h0.064c0.532-0.032,0.798-0.335,0.798-0.909c0-0.123-0.012-0.26-0.037-0.41l2.183-0.034
			c0,1.736-1.018,2.616-3.054,2.639c-0.024,0.005-0.046,0.007-0.064,0.007c-1.938,0-2.907-1.096-2.907-3.288v-0.205
			C126.111,52.699,127.135,51.523,129.122,51.523z M127.939,54.237h2.072v-0.164c0-0.829-0.315-1.244-0.944-1.244
			C128.388,52.829,128.012,53.299,127.939,54.237z"/>
		<path fill="#FFFFFF" d="M136.559,58.448c0.037-1.303,0.055-2.616,0.055-3.938c0-2.023-0.043-4.067-0.128-6.132
			c0.947-0.073,1.797-0.109,2.549-0.109c2.091,0,3.423,0.285,3.998,0.854c0.538,0.533,0.807,1.121,0.807,1.764
			c0,0.292-0.052,0.593-0.156,0.902c-0.355,1.003-1.101,1.639-2.238,1.907c0.795,0.082,1.397,0.401,1.807,0.957
			c0.391,0.538,0.587,1.892,0.587,4.061v0.294l-2.77,0.027c0.031-0.574,0.046-1.089,0.046-1.545c0-1.381-0.15-2.226-0.449-2.536
			c-0.343-0.346-0.749-0.52-1.22-0.52c-0.092,0-0.187,0.007-0.284,0.021c0.037,1.39,0.116,2.707,0.238,3.951L136.559,58.448z
			 M138.907,49.972l0.064,2.926c1.137-0.041,1.858-0.328,2.164-0.861c0.165-0.282,0.248-0.558,0.248-0.827
			c0-0.232-0.061-0.46-0.184-0.684c-0.22-0.387-0.767-0.581-1.642-0.581C139.356,49.944,139.139,49.954,138.907,49.972z"/>
		<path fill="#FFFFFF" d="M147.6,51.523c2.122,0,3.182,1.051,3.182,3.151c0,0.255-0.015,0.529-0.045,0.82h-4.1
			c0,1.171,0.303,1.757,0.908,1.757h0.064c0.532-0.032,0.798-0.335,0.798-0.909c0-0.123-0.012-0.26-0.037-0.41l2.183-0.034
			c0,1.736-1.018,2.616-3.054,2.639c-0.024,0.005-0.046,0.007-0.064,0.007c-1.938,0-2.907-1.096-2.907-3.288v-0.205
			C144.589,52.699,145.613,51.523,147.6,51.523z M146.417,54.237h2.072v-0.164c0-0.829-0.315-1.244-0.944-1.244
			C146.867,52.829,146.491,53.299,146.417,54.237z"/>
		<path fill="#FFFFFF" d="M151.36,56.117l2.101-0.075v0.089c0,0.702,0.29,1.058,0.871,1.066h0.037c0.562,0,0.844-0.203,0.844-0.608
			v-0.048c-0.025-0.446-0.58-0.807-1.665-1.08s-1.738-0.733-1.958-1.381c-0.08-0.228-0.119-0.446-0.119-0.656
			c0-0.383,0.131-0.738,0.395-1.066c0.403-0.501,1.015-0.788,1.834-0.861c0.22-0.018,0.434-0.027,0.642-0.027
			c0.544,0,1.024,0.071,1.44,0.212c0.569,0.196,0.963,0.477,1.183,0.841c0.146,0.251,0.22,0.529,0.22,0.834
			c0,0.146-0.015,0.296-0.045,0.451l-1.962,0.034c0.018-0.114,0.027-0.219,0.027-0.314c0-0.456-0.196-0.699-0.587-0.731
			c-0.043-0.004-0.086-0.007-0.128-0.007c-0.404,0-0.676,0.153-0.816,0.458c-0.049,0.105-0.074,0.201-0.074,0.287
			c0,0.214,0.134,0.399,0.404,0.554c0.379,0.219,0.939,0.441,1.683,0.667c0.743,0.226,1.243,0.61,1.499,1.152
			c0.092,0.205,0.138,0.41,0.138,0.615c0,0.347-0.134,0.695-0.403,1.046c-0.428,0.561-1.091,0.887-1.99,0.978
			c-0.195,0.023-0.388,0.034-0.578,0.034c-0.672,0-1.296-0.13-1.871-0.39C151.746,57.856,151.373,57.166,151.36,56.117z"/>
		<path fill="#FFFFFF" d="M158.036,61.271c0.037-1.536,0.055-3.169,0.055-4.901c0-1.577-0.016-3.231-0.046-4.963l2.173-0.007
			l0.073,1.053c0.453-0.51,1.055-0.766,1.807-0.766c1.877,0,2.815,1.105,2.815,3.315v0.137c-0.043,2.215-0.978,3.322-2.806,3.322
			c-0.073,0-0.146-0.002-0.22-0.007c-0.624-0.022-1.128-0.275-1.513-0.759c0,1.012,0.034,2.203,0.101,3.575L158.036,61.271
			L158.036,61.271z M160.329,53.854l0.046,2.57c0.354,0.36,0.712,0.54,1.073,0.54c0.146,0,0.293-0.032,0.44-0.096
			c0.446-0.182,0.669-0.727,0.669-1.634c0-0.109-0.003-0.223-0.009-0.342c-0.062-1.112-0.358-1.697-0.89-1.757
			c-0.055-0.004-0.107-0.007-0.156-0.007C161.038,53.13,160.646,53.372,160.329,53.854z"/>
		<path fill="#FFFFFF" d="M168.619,51.523c2.122,0,3.182,1.051,3.182,3.151c0,0.255-0.015,0.529-0.045,0.82h-4.1
			c0,1.171,0.303,1.757,0.908,1.757h0.064c0.532-0.032,0.798-0.335,0.798-0.909c0-0.123-0.012-0.26-0.037-0.41l2.183-0.034
			c0,1.736-1.018,2.616-3.054,2.639c-0.024,0.005-0.046,0.007-0.064,0.007c-1.938,0-2.907-1.096-2.907-3.288v-0.205
			C165.608,52.699,166.632,51.523,168.619,51.523z M167.436,54.237h2.072v-0.164c0-0.829-0.315-1.244-0.944-1.244
			C167.885,52.829,167.509,53.299,167.436,54.237z"/>
		<path fill="#FFFFFF" d="M174.02,49.343l2.082-0.104v2.263l1.751-0.034l0.027,1.292l-1.779,0.062v3.11
			c0,0.725,0.413,1.087,1.238,1.087c0.171,0,0.358-0.016,0.56-0.048l-0.083,1.504c-0.293,0.027-0.572,0.041-0.834,0.041
			c-1.932,0-2.917-0.743-2.953-2.229v-3.343l-1.504,0.068l-0.037-1.524l1.541,0.014L174.02,49.343z"/>
		<path fill="#FFFFFF" d="M181.87,51.523c2.079,0,3.118,1.076,3.118,3.227c0,0.087-0.003,0.173-0.009,0.26
			c-0.086,2.329-1.192,3.505-3.32,3.527c-0.024,0.005-0.049,0.007-0.073,0.007c-2.024,0-3.036-1.101-3.036-3.302v-0.191
			C178.611,52.699,179.718,51.523,181.87,51.523z M181.567,53.082c-0.385,0.101-0.648,0.472-0.789,1.114
			c-0.086,0.383-0.128,0.768-0.128,1.155c0,0.26,0.018,0.522,0.055,0.786c0.098,0.656,0.413,0.996,0.944,1.019h0.064
			c0.495,0,0.834-0.244,1.018-0.731c0.153-0.405,0.229-0.886,0.229-1.442c0-0.137-0.003-0.275-0.009-0.417
			c-0.049-0.733-0.196-1.191-0.44-1.374c-0.153-0.109-0.336-0.164-0.55-0.164C181.839,53.027,181.708,53.046,181.567,53.082z"/>
	</g>
</g>
</svg>
