<?xml version="1.0" encoding="utf-8"?>
<!-- Generator: Adobe Illustrator 16.0.0, SVG Export Plug-In . SVG Version: 6.00 Build 0)  -->
<!DOCTYPE svg PUBLIC "-//W3C//DTD SVG 1.1//EN" "http://www.w3.org/Graphics/SVG/1.1/DTD/svg11.dtd">
<svg version="1.1" id="Capa_1" xmlns="http://www.w3.org/2000/svg" xmlns:xlink="http://www.w3.org/1999/xlink" x="0px" y="0px"
	 width="821.985px" height="232.494px" viewBox="0 0 821.985 232.494" enable-background="new 0 0 821.985 232.494"
	 xml:space="preserve">
<g>
	<rect x="0.001" opacity="0.5" fill="#951B81" enable-background="new    " width="254.119" height="31"/>
	<rect y="38.09" opacity="0.5" fill="#951B81" enable-background="new    " width="821.985" height="194.404"/>
	<g>
		<g>
			<path fill="#FFFFFF" d="M44.688,22.141c0.017-2.194,0.026-4.453,0.026-6.777c0-2.331-0.009-4.724-0.026-7.178
				c1.004-0.091,1.93-0.137,2.777-0.137c2.358,0,4.096,0.352,5.214,1.055c1.52,0.964,2.314,2.744,2.384,5.342v0.703
				c0,2.227-0.288,3.815-0.865,4.766c-0.638,1.048-1.804,1.745-3.498,2.09c-0.978,0.202-2.052,0.303-3.223,0.303
				C46.605,22.307,45.675,22.251,44.688,22.141z M47.938,10.979c-0.149,2.142-0.223,4.212-0.223,6.211
				c0,0.755,0.009,1.497,0.026,2.227c0.306,0.052,0.598,0.078,0.877,0.078c0.769,0,1.415-0.198,1.939-0.596
				c0.716-0.534,1.074-1.731,1.074-3.594v-0.039c-0.009-1.875-0.358-3.105-1.048-3.691c-0.533-0.442-1.166-0.664-1.899-0.664
				C48.448,10.91,48.199,10.933,47.938,10.979z"/>
			<path fill="#FFFFFF" d="M60.304,12.482c3.031,0,4.546,1.501,4.546,4.502c0,0.364-0.022,0.755-0.065,1.172h-5.856
				c0,1.673,0.432,2.51,1.297,2.51h0.092c0.76-0.046,1.14-0.479,1.14-1.299c0-0.176-0.018-0.371-0.052-0.586l3.118-0.049
				c0,2.48-1.454,3.737-4.362,3.77c-0.035,0.007-0.065,0.01-0.092,0.01c-2.769,0-4.153-1.565-4.153-4.697v-0.293
				C56.003,14.162,57.466,12.482,60.304,12.482z M58.614,16.359h2.961v-0.234c0-1.185-0.45-1.777-1.35-1.777
				C59.256,14.348,58.719,15.019,58.614,16.359z"/>
			<path fill="#FFFFFF" d="M69.317,15.51l0.131,7.08l-3.209,0.02c0-2.995-0.135-6.357-0.406-10.088l2.411-0.195l0.131,1.592
				c0.367-0.781,1.223-1.228,2.568-1.338c0.201-0.013,0.393-0.02,0.577-0.02c1.057,0,1.86,0.257,2.41,0.771
				c0.638,0.612,0.961,1.585,0.97,2.92l-2.909,0.215c0.009-0.11,0.013-0.218,0.013-0.322c0-1.042-0.362-1.562-1.087-1.562h-0.052
				C70.025,14.614,69.509,14.924,69.317,15.51z"/>
			<path fill="#FFFFFF" d="M80.034,12.482c3.031,0,4.546,1.501,4.546,4.502c0,0.364-0.022,0.755-0.065,1.172h-5.856
				c0,1.673,0.432,2.51,1.297,2.51h0.092c0.76-0.046,1.14-0.479,1.14-1.299c0-0.176-0.018-0.371-0.052-0.586l3.118-0.049
				c0,2.48-1.454,3.737-4.362,3.77c-0.035,0.007-0.065,0.01-0.092,0.01c-2.769,0-4.153-1.565-4.153-4.697v-0.293
				C75.732,14.162,77.195,12.482,80.034,12.482z M78.344,16.359h2.961v-0.234c0-1.185-0.45-1.777-1.35-1.777
				C78.985,14.348,78.448,15.019,78.344,16.359z"/>
			<path fill="#FFFFFF" d="M90.92,18.488l3.118,0.146c0,2.351-1.454,3.542-4.362,3.574c-0.035,0.007-0.065,0.01-0.092,0.01
				c-2.769,0-4.153-1.565-4.153-4.697v-0.293c0.087-3.359,1.563-5.056,4.428-5.088h0.104c2.638,0,3.957,1.126,3.957,3.379
				c0,0.13-0.004,0.261-0.013,0.391l-2.816,0.156v-0.234c0-1.185-0.45-1.777-1.35-1.777c-0.917,0-1.375,0.96-1.375,2.881v0.322
				c0.052,2.077,0.515,3.115,1.389,3.115h0.079c0.76-0.046,1.14-0.479,1.14-1.299C90.973,18.898,90.955,18.703,90.92,18.488z"/>
			<path fill="#FFFFFF" d="M98.243,8.518l0.131,5.498c0.367-0.847,1.223-1.276,2.568-1.289h0.039c1.327,0,2.271,0.449,2.83,1.348
				c0.384,0.612,0.577,2.044,0.577,4.297c0,1.106-0.048,2.415-0.144,3.926h-3.301c0.113-2.012,0.17-3.571,0.17-4.678
				c0-0.554-0.013-0.996-0.039-1.328c-0.087-0.977-0.463-1.465-1.127-1.465c-0.664,0-1.092,0.261-1.284,0.781l0.131,7.08
				l-3.209,0.02c0-2.995-0.179-7.692-0.537-14.092L98.243,8.518z"/>
			<path fill="#FFFFFF" d="M110.1,12.482c2.969,0,4.454,1.536,4.454,4.609c0,0.124-0.004,0.247-0.013,0.371
				c-0.123,3.327-1.703,5.007-4.742,5.039c-0.035,0.007-0.07,0.01-0.105,0.01c-2.891,0-4.336-1.572-4.336-4.717v-0.273
				C105.444,14.162,107.025,12.482,110.1,12.482z M109.667,14.709c-0.55,0.144-0.926,0.674-1.126,1.592
				c-0.123,0.547-0.183,1.097-0.183,1.65c0,0.371,0.026,0.745,0.078,1.123c0.14,0.938,0.59,1.423,1.35,1.455h0.092
				c0.707,0,1.192-0.349,1.454-1.045c0.218-0.579,0.328-1.267,0.328-2.061c0-0.195-0.004-0.394-0.013-0.596
				c-0.07-1.048-0.28-1.702-0.629-1.963c-0.218-0.156-0.48-0.234-0.786-0.234C110.056,14.631,109.868,14.657,109.667,14.709z"/>
			<path fill="#FFFFFF" d="M125.23,12.199c2.874,0.117,4.311,1.194,4.311,3.232v6.934l-3.053,0.039l-0.104-0.928
				c-0.629,0.534-1.463,0.801-2.502,0.801c-0.445,0-0.926-0.052-1.441-0.156c-1.546-0.286-2.319-1.179-2.319-2.676
				c0-0.183,0.013-0.378,0.039-0.586c0.175-1.543,1.646-2.314,4.415-2.314c0.533,0,1.118,0.029,1.755,0.088V15.5
				c0-0.918-0.389-1.377-1.166-1.377h-0.052c-0.061-0.007-0.118-0.01-0.17-0.01c-0.847,0-1.271,0.515-1.271,1.543v0.146
				l-3.118-0.195c0-2.272,1.467-3.408,4.402-3.408H125.23z M126.331,19.914v-1.719c-0.375-0.059-0.716-0.088-1.021-0.088
				c-0.795,0-1.336,0.198-1.625,0.596c-0.175,0.241-0.262,0.466-0.262,0.674c0,0.261,0.14,0.491,0.419,0.693
				c0.218,0.156,0.502,0.234,0.852,0.234C125.139,20.305,125.685,20.175,126.331,19.914z"/>
			<path fill="#FFFFFF" d="M139.157,22.346l-3.262,0.225c0.035-2.155,0.052-4.229,0.052-6.221c0-2.8-0.035-5.439-0.104-7.92
				l3.209-0.039C139.017,9.985,139,11.623,139,13.303C139,16.2,139.052,19.214,139.157,22.346z"/>
			<path fill="#FFFFFF" d="M145.353,12.199c2.874,0.117,4.31,1.194,4.31,3.232v6.934l-3.052,0.039l-0.105-0.928
				c-0.629,0.534-1.463,0.801-2.502,0.801c-0.445,0-0.926-0.052-1.441-0.156c-1.546-0.286-2.318-1.179-2.318-2.676
				c0-0.183,0.013-0.378,0.039-0.586c0.175-1.543,1.646-2.314,4.415-2.314c0.532,0,1.118,0.029,1.755,0.088V15.5
				c0-0.918-0.389-1.377-1.166-1.377h-0.052c-0.062-0.007-0.118-0.01-0.17-0.01c-0.847,0-1.271,0.515-1.271,1.543v0.146
				l-3.118-0.195c0-2.272,1.467-3.408,4.402-3.408H145.353z M146.454,19.914v-1.719c-0.375-0.059-0.716-0.088-1.022-0.088
				c-0.795,0-1.336,0.198-1.625,0.596c-0.175,0.241-0.262,0.466-0.262,0.674c0,0.261,0.14,0.491,0.419,0.693
				c0.218,0.156,0.502,0.234,0.852,0.234C145.261,20.305,145.807,20.175,146.454,19.914z"/>
			<path fill="#FFFFFF" d="M158.532,22.082c-1.065-4.388-2.328-8.975-3.786-13.76l3.825-0.293l2.24,10.703
				c1.145-3.743,2.079-7.132,2.804-10.166l3.629,0.332c-1.834,5.905-3.201,10.264-4.101,13.076L158.532,22.082z"/>
			<path fill="#FFFFFF" d="M171.816,12.482c3.03,0,4.546,1.501,4.546,4.502c0,0.364-0.022,0.755-0.065,1.172h-5.856
				c0,1.673,0.433,2.51,1.297,2.51h0.091c0.76-0.046,1.14-0.479,1.14-1.299c0-0.176-0.018-0.371-0.052-0.586l3.118-0.049
				c0,2.48-1.454,3.737-4.363,3.77c-0.035,0.007-0.065,0.01-0.091,0.01c-2.769,0-4.153-1.565-4.153-4.697v-0.293
				C167.515,14.162,168.978,12.482,171.816,12.482z M170.126,16.359h2.96v-0.234c0-1.185-0.45-1.777-1.349-1.777
				C170.768,14.348,170.231,15.019,170.126,16.359z"/>
			<path fill="#FFFFFF" d="M180.83,15.51l0.131,7.08l-3.209,0.02c0-2.995-0.136-6.357-0.406-10.088l2.411-0.195l0.131,1.592
				c0.367-0.781,1.223-1.228,2.568-1.338c0.201-0.013,0.393-0.02,0.576-0.02c1.057,0,1.86,0.257,2.411,0.771
				c0.637,0.612,0.96,1.585,0.969,2.92l-2.908,0.215c0.009-0.11,0.013-0.218,0.013-0.322c0-1.042-0.363-1.562-1.087-1.562h-0.052
				C181.537,14.614,181.021,14.924,180.83,15.51z"/>
			<path fill="#FFFFFF" d="M197.192,8.693c-0.052,2.2-0.079,4.509-0.079,6.924c0,2.2,0.022,4.492,0.065,6.875l-3.105,0.01
				l-0.105-1.494c-0.646,0.723-1.506,1.084-2.581,1.084c-2.682,0-4.022-1.53-4.022-4.59c0-0.065,0.004-0.13,0.013-0.195
				c0.052-3.066,1.38-4.6,3.982-4.6c0.105,0,0.214,0.003,0.328,0.01c0.891,0.039,1.611,0.4,2.162,1.084
				c0-1.445-0.048-3.147-0.144-5.107L197.192,8.693L197.192,8.693z M193.917,19.006l-0.065-3.379
				c-0.507-0.515-1.026-0.771-1.559-0.771c-0.218,0-0.437,0.042-0.655,0.127c-0.69,0.267-1.035,1.016-1.035,2.246
				c0,0.144,0.004,0.29,0.013,0.439c0.087,1.491,0.533,2.278,1.336,2.363c0.078,0.007,0.157,0.01,0.235,0.01
				C192.886,20.041,193.463,19.696,193.917,19.006z"/>
			<path fill="#FFFFFF" d="M203.297,12.199c2.874,0.117,4.31,1.194,4.31,3.232v6.934l-3.052,0.039l-0.105-0.928
				c-0.629,0.534-1.463,0.801-2.502,0.801c-0.446,0-0.926-0.052-1.441-0.156c-1.546-0.286-2.319-1.179-2.319-2.676
				c0-0.183,0.013-0.378,0.039-0.586c0.175-1.543,1.646-2.314,4.415-2.314c0.532,0,1.118,0.029,1.755,0.088V15.5
				c0-0.918-0.389-1.377-1.166-1.377h-0.052c-0.062-0.007-0.118-0.01-0.17-0.01c-0.847,0-1.271,0.515-1.271,1.543v0.146
				l-3.118-0.195c0-2.272,1.467-3.408,4.402-3.408H203.297z M204.397,19.914v-1.719c-0.376-0.059-0.716-0.088-1.022-0.088
				c-0.795,0-1.336,0.198-1.625,0.596c-0.175,0.241-0.262,0.466-0.262,0.674c0,0.261,0.14,0.491,0.419,0.693
				c0.218,0.156,0.502,0.234,0.852,0.234C203.205,20.305,203.751,20.175,204.397,19.914z"/>
			<path fill="#FFFFFF" d="M218.559,8.693c-0.052,2.2-0.079,4.509-0.079,6.924c0,2.2,0.022,4.492,0.065,6.875l-3.104,0.01
				l-0.105-1.494c-0.646,0.723-1.507,1.084-2.581,1.084c-2.681,0-4.022-1.53-4.022-4.59c0-0.065,0.004-0.13,0.013-0.195
				c0.052-3.066,1.38-4.6,3.983-4.6c0.105,0,0.214,0.003,0.327,0.01c0.891,0.039,1.612,0.4,2.162,1.084
				c0-1.445-0.048-3.147-0.144-5.107L218.559,8.693L218.559,8.693z M215.284,19.006l-0.066-3.379
				c-0.507-0.515-1.026-0.771-1.559-0.771c-0.219,0-0.437,0.042-0.655,0.127c-0.69,0.267-1.035,1.016-1.035,2.246
				c0,0.144,0.004,0.29,0.013,0.439c0.087,1.491,0.532,2.278,1.336,2.363c0.079,0.007,0.157,0.01,0.236,0.01
				C214.253,20.041,214.83,19.696,215.284,19.006z"/>
		</g>
	</g>
	<circle fill="#FFFFFF" cx="33.541" cy="76.901" r="3.367"/>
	<circle fill="#FFFFFF" cx="436.061" cy="76.901" r="3.367"/>
	<circle fill="#FFFFFF" cx="436.061" cy="130.234" r="3.367"/>
	<circle fill="#FFFFFF" cx="33.541" cy="149.827" r="3.367"/>
	<circle fill="#FFFFFF" cx="33.541" cy="184.494" r="3.367"/>
</g>
</svg>
