<?xml version="1.0" encoding="utf-8"?>
<!-- Generator: Adobe Illustrator 16.0.0, SVG Export Plug-In . SVG Version: 6.00 Build 0)  -->
<!DOCTYPE svg PUBLIC "-//W3C//DTD SVG 1.1//EN" "http://www.w3.org/Graphics/SVG/1.1/DTD/svg11.dtd">
<svg version="1.1" id="Capa_1" xmlns="http://www.w3.org/2000/svg" xmlns:xlink="http://www.w3.org/1999/xlink" x="0px" y="0px"
	 width="710.07px" height="200.926px" viewBox="0 0 710.07 200.926" enable-background="new 0 0 710.07 200.926"
	 xml:space="preserve">
<g>
	<rect x="442.199" y="62.39" opacity="0.5" fill="#951B81" enable-background="new    " width="267.871" height="31"/>
	<g>
		<g>
			<path fill="#FFFFFF" d="M527.052,84.53c0.018-2.193,0.025-4.453,0.025-6.777c0-2.33-0.008-4.723-0.025-7.178
				c1.004-0.091,1.93-0.137,2.777-0.137c2.357,0,4.096,0.352,5.213,1.055c1.521,0.964,2.314,2.744,2.385,5.342v0.703
				c0,2.227-0.289,3.815-0.865,4.766c-0.639,1.049-1.805,1.745-3.498,2.09c-0.979,0.202-2.053,0.303-3.223,0.303
				C528.968,84.696,528.039,84.642,527.052,84.53z M530.3,73.368c-0.148,2.143-0.223,4.213-0.223,6.211
				c0,0.756,0.01,1.498,0.027,2.227c0.305,0.053,0.598,0.078,0.877,0.078c0.768,0,1.414-0.198,1.938-0.596
				c0.717-0.533,1.074-1.731,1.074-3.594v-0.039c-0.008-1.875-0.357-3.105-1.047-3.691c-0.533-0.442-1.166-0.664-1.9-0.664
				C530.812,73.3,530.562,73.323,530.3,73.368z"/>
			<path fill="#FFFFFF" d="M542.667,74.872c3.031,0,4.545,1.501,4.545,4.502c0,0.365-0.021,0.756-0.064,1.172h-5.855
				c0,1.674,0.432,2.51,1.297,2.51h0.092c0.76-0.045,1.141-0.479,1.141-1.299c0-0.176-0.02-0.371-0.053-0.586l3.117-0.049
				c0,2.48-1.453,3.737-4.361,3.77c-0.035,0.007-0.064,0.01-0.092,0.01c-2.77,0-4.152-1.565-4.152-4.697v-0.293
				C538.367,76.552,539.83,74.872,542.667,74.872z M540.978,78.749h2.961v-0.234c0-1.185-0.449-1.777-1.35-1.777
				C541.619,76.737,541.082,77.408,540.978,78.749z"/>
			<path fill="#FFFFFF" d="M548.039,81.435l3-0.107v0.127c0,1.003,0.416,1.511,1.246,1.523h0.053c0.803,0,1.205-0.289,1.205-0.869
				V82.04c-0.035-0.638-0.828-1.152-2.379-1.543c-1.549-0.391-2.482-1.048-2.797-1.973c-0.113-0.325-0.17-0.638-0.17-0.938
				c0-0.547,0.188-1.055,0.562-1.523c0.578-0.716,1.451-1.126,2.621-1.23c0.314-0.025,0.619-0.039,0.916-0.039
				c0.777,0,1.463,0.102,2.059,0.303c0.811,0.28,1.375,0.681,1.689,1.201c0.209,0.358,0.314,0.756,0.314,1.191
				c0,0.209-0.021,0.424-0.066,0.645l-2.803,0.049c0.025-0.162,0.039-0.312,0.039-0.449c0-0.65-0.279-0.999-0.838-1.045
				c-0.062-0.006-0.123-0.01-0.184-0.01c-0.576,0-0.965,0.219-1.166,0.654c-0.07,0.15-0.104,0.287-0.104,0.41
				c0,0.307,0.191,0.57,0.574,0.791c0.543,0.312,1.344,0.63,2.404,0.952c1.062,0.322,1.775,0.871,2.143,1.646
				c0.131,0.293,0.197,0.586,0.197,0.879c0,0.495-0.191,0.993-0.578,1.494c-0.609,0.801-1.559,1.267-2.842,1.396
				c-0.279,0.033-0.555,0.049-0.826,0.049c-0.961,0-1.852-0.186-2.672-0.557C548.589,83.919,548.056,82.933,548.039,81.435z"/>
			<path fill="#FFFFFF" d="M562.855,80.878l3.117,0.146c0,2.351-1.455,3.542-4.361,3.574c-0.035,0.007-0.066,0.01-0.094,0.01
				c-2.768,0-4.152-1.565-4.152-4.697v-0.293c0.088-3.359,1.562-5.055,4.428-5.088h0.105c2.637,0,3.955,1.127,3.955,3.379
				c0,0.131-0.004,0.261-0.012,0.391l-2.816,0.156v-0.234c0-1.185-0.449-1.777-1.35-1.777c-0.918,0-1.375,0.961-1.375,2.881v0.322
				c0.053,2.077,0.516,3.115,1.389,3.115h0.078c0.762-0.045,1.141-0.479,1.141-1.299C562.908,81.288,562.89,81.093,562.855,80.878z"
				/>
			<path fill="#FFFFFF" d="M570.544,77.899l0.131,7.08l-3.209,0.02c0-2.994-0.135-6.357-0.406-10.088l2.41-0.195l0.131,1.592
				c0.367-0.781,1.225-1.227,2.568-1.338c0.201-0.013,0.393-0.02,0.576-0.02c1.057,0,1.861,0.258,2.412,0.771
				c0.637,0.612,0.959,1.586,0.969,2.92l-2.91,0.215c0.01-0.11,0.016-0.218,0.016-0.322c0-1.041-0.363-1.562-1.09-1.562h-0.051
				C571.253,77.005,570.738,77.313,570.544,77.899z"/>
			<path fill="#FFFFFF" d="M580.671,72.626c0,0.397-0.188,0.736-0.562,1.016c-0.375,0.28-0.83,0.42-1.363,0.42
				c-0.523,0-0.973-0.14-1.348-0.42c-0.375-0.279-0.564-0.618-0.564-1.016c0-0.391,0.189-0.726,0.564-1.006
				c0.375-0.279,0.824-0.42,1.348-0.42c0.533,0,0.988,0.141,1.363,0.42C580.484,71.9,580.671,72.235,580.671,72.626z M577.162,84.95
				c-0.062-3.809-0.092-7.1-0.092-9.873l3.301-0.146c-0.105,2.656-0.156,5.297-0.156,7.92c0,0.703,0.004,1.403,0.014,2.1
				L577.162,84.95L577.162,84.95z"/>
			<path fill="#FFFFFF" d="M581.472,88.798c0.053-2.194,0.078-4.527,0.078-7.002c0-2.252-0.021-4.615-0.064-7.09l3.104-0.01
				l0.105,1.504c0.646-0.729,1.506-1.094,2.582-1.094c2.68,0,4.021,1.579,4.021,4.736v0.195c-0.062,3.164-1.396,4.746-4.01,4.746
				c-0.105,0-0.209-0.003-0.314-0.01c-0.891-0.032-1.609-0.394-2.162-1.084c0,1.445,0.049,3.147,0.145,5.107h-3.484V88.798z
				 M584.748,78.202l0.064,3.672c0.506,0.515,1.018,0.771,1.533,0.771c0.209,0,0.418-0.045,0.629-0.137
				c0.639-0.26,0.955-1.038,0.955-2.334c0-0.156-0.004-0.318-0.012-0.488c-0.088-1.588-0.512-2.425-1.271-2.51
				c-0.078-0.006-0.152-0.01-0.223-0.01C585.759,77.167,585.201,77.513,584.748,78.202z"/>
			<path fill="#FFFFFF" d="M597.691,80.878l3.117,0.146c0,2.351-1.453,3.542-4.361,3.574c-0.035,0.007-0.066,0.01-0.092,0.01
				c-2.77,0-4.154-1.565-4.154-4.697v-0.293c0.088-3.359,1.562-5.055,4.428-5.088h0.105c2.637,0,3.957,1.127,3.957,3.379
				c0,0.131-0.006,0.261-0.014,0.391l-2.816,0.156v-0.234c0-1.185-0.449-1.777-1.35-1.777c-0.918,0-1.375,0.961-1.375,2.881v0.322
				c0.053,2.077,0.516,3.115,1.389,3.115h0.078c0.762-0.045,1.141-0.479,1.141-1.299C597.742,81.288,597.724,81.093,597.691,80.878z
				"/>
			<path fill="#FFFFFF" d="M605.564,72.626c0,0.397-0.189,0.736-0.564,1.016c-0.375,0.28-0.83,0.42-1.361,0.42
				c-0.523,0-0.975-0.14-1.35-0.42c-0.375-0.279-0.564-0.618-0.564-1.016c0-0.391,0.189-0.726,0.564-1.006
				c0.375-0.279,0.824-0.42,1.35-0.42c0.531,0,0.986,0.141,1.361,0.42C605.375,71.9,605.564,72.235,605.564,72.626z M602.052,84.95
				c-0.061-3.809-0.092-7.1-0.092-9.873l3.301-0.146c-0.104,2.656-0.156,5.297-0.156,7.92c0,0.703,0.004,1.403,0.014,2.1
				L602.052,84.95L602.052,84.95z"/>
			<path fill="#FFFFFF" d="M610.896,74.872c2.969,0,4.453,1.537,4.453,4.609c0,0.124-0.004,0.248-0.012,0.371
				c-0.123,3.327-1.703,5.007-4.744,5.039c-0.033,0.007-0.068,0.01-0.104,0.01c-2.891,0-4.336-1.572-4.336-4.717v-0.273
				C606.24,76.552,607.822,74.872,610.896,74.872z M610.462,77.099c-0.549,0.144-0.926,0.674-1.127,1.592
				c-0.121,0.547-0.182,1.098-0.182,1.65c0,0.371,0.025,0.746,0.078,1.123c0.141,0.938,0.59,1.423,1.35,1.455h0.092
				c0.707,0,1.191-0.348,1.455-1.045c0.217-0.579,0.326-1.266,0.326-2.061c0-0.195-0.004-0.394-0.012-0.596
				c-0.07-1.048-0.279-1.702-0.629-1.963c-0.219-0.156-0.48-0.234-0.785-0.234C610.851,77.021,610.664,77.047,610.462,77.099z
				 M609.193,72.968c1.02-0.904,1.859-1.768,2.514-2.588l2.148,1.27c-0.926,0.678-1.957,1.508-3.092,2.49L609.193,72.968z"/>
			<path fill="#FFFFFF" d="M618.48,74.618l0.131,1.592c0.367-0.846,1.332-1.275,2.896-1.289h0.051c1.537,0,2.586,0.449,3.145,1.348
				c0.385,0.612,0.578,2.045,0.578,4.297c0,1.107-0.049,2.416-0.145,3.926h-3.17c0.113-2.012,0.17-3.57,0.17-4.678
				c0-0.553-0.014-0.996-0.041-1.328c-0.086-0.977-0.506-1.465-1.258-1.465c-0.75,0-1.223,0.261-1.414,0.781l0.131,7.08l-3.08,0.02
				c0-2.994-0.135-6.357-0.404-10.088L618.48,74.618z"/>
		</g>
	</g>
	<g>
		<g>
			<line fill="none" stroke="#666665" stroke-width="4" stroke-miterlimit="10" x1="0" y1="93.39" x2="149.941" y2="93.39"/>
			<g>
				<circle fill="#666665" cx="149.941" cy="93.39" r="7.52"/>
			</g>
		</g>
	</g>
	<g>
		<path fill="#331842" d="M342.063,9.346l3.891-0.195c-0.052,0.403-0.079,0.769-0.079,1.094c0,1.478,0.493,2.217,1.479,2.217h0.054
			c1.196-0.026,1.794-0.501,1.794-1.426v-0.088c-0.043-0.983-1.175-1.946-3.394-2.891c-2.156-0.911-3.235-2.415-3.235-4.512
			c0-0.065,0.004-0.13,0.013-0.195c0.062-2.194,1.712-3.311,4.952-3.35h0.104c2.927,0,4.39,1.39,4.39,4.17
			c0,0.222-0.009,0.456-0.026,0.703l-3.419,0.146c0.035-0.293,0.053-0.563,0.053-0.811c0-1.165-0.38-1.748-1.14-1.748
			c-0.917,0-1.419,0.349-1.506,1.045c-0.009,0.098-0.014,0.195-0.014,0.293c0,0.579,0.231,1.12,0.694,1.621
			c0.533,0.579,1.448,1.11,2.745,1.592c1.297,0.482,2.203,1.143,2.718,1.982c0.367,0.605,0.55,1.25,0.55,1.934
			c0,0.261-0.025,0.527-0.078,0.801c-0.201,0.983-0.761,1.799-1.678,2.446s-2.147,1.001-3.693,1.06
			c-0.104,0.007-0.209,0.01-0.314,0.01c-1.406,0-2.581-0.384-3.522-1.152c-0.909-0.735-1.363-2.073-1.363-4.014
			C342.038,9.844,342.046,9.6,342.063,9.346z"/>
		<path fill="#331842" d="M358.074,4.775c3.031,0,4.545,1.501,4.545,4.502c0,0.364-0.021,0.755-0.064,1.172h-5.855
			c0,1.673,0.432,2.51,1.297,2.51h0.092c0.76-0.046,1.139-0.479,1.139-1.299c0-0.176-0.018-0.371-0.053-0.586l3.119-0.049
			c0,2.48-1.455,3.737-4.363,3.77c-0.033,0.007-0.064,0.01-0.092,0.01c-2.768,0-4.153-1.565-4.153-4.697V9.814
			C353.771,6.455,355.234,4.775,358.074,4.775z M356.382,8.652h2.961V8.418c0-1.185-0.449-1.777-1.35-1.777
			C357.025,6.641,356.488,7.312,356.382,8.652z"/>
		<path fill="#331842" d="M366.011,4.521l0.131,1.592c0.367-0.847,1.332-1.276,2.896-1.289h0.053c1.537,0,2.584,0.449,3.145,1.348
			c0.383,0.612,0.574,2.044,0.574,4.297c0,1.106-0.047,2.415-0.143,3.926h-3.172c0.115-2.012,0.172-3.571,0.172-4.678
			c0-0.554-0.014-0.996-0.041-1.328c-0.086-0.977-0.506-1.465-1.256-1.465c-0.752,0-1.223,0.261-1.416,0.781l0.131,7.08l-3.078,0.02
			c0-2.995-0.135-6.357-0.406-10.088L366.011,4.521z"/>
		<path fill="#331842" d="M376.085,1.66l2.975-0.146v3.232l2.504-0.049l0.037,1.846l-2.541,0.088v4.443
			c0,1.035,0.59,1.553,1.77,1.553c0.244,0,0.51-0.022,0.799-0.068l-0.119,2.148c-0.418,0.039-0.816,0.059-1.191,0.059
			c-2.76,0-4.166-1.062-4.219-3.184V6.807l-2.146,0.098L373.9,4.727l2.201,0.02L376.085,1.66z"/>
		<path fill="#331842" d="M386.947,4.775c3.029,0,4.545,1.501,4.545,4.502c0,0.364-0.021,0.755-0.064,1.172h-5.855
			c0,1.673,0.432,2.51,1.297,2.51h0.092c0.76-0.046,1.141-0.479,1.141-1.299c0-0.176-0.018-0.371-0.053-0.586l3.117-0.049
			c0,2.48-1.453,3.737-4.361,3.77c-0.035,0.007-0.066,0.01-0.092,0.01c-2.77,0-4.154-1.565-4.154-4.697V9.814
			C382.644,6.455,384.109,4.775,386.947,4.775z M385.257,8.652h2.959V8.418c0-1.185-0.449-1.777-1.348-1.777
			C385.898,6.641,385.361,7.312,385.257,8.652z"/>
		<path fill="#331842" d="M394.886,4.521l0.131,1.592c0.367-0.847,1.332-1.276,2.895-1.289h0.053c1.537,0,2.584,0.449,3.145,1.348
			c0.385,0.612,0.576,2.044,0.576,4.297c0,1.106-0.049,2.415-0.145,3.926h-3.17c0.113-2.012,0.17-3.571,0.17-4.678
			c0-0.554-0.012-0.996-0.039-1.328c-0.088-0.977-0.506-1.465-1.258-1.465c-0.75,0-1.223,0.261-1.414,0.781l0.131,7.08l-3.08,0.02
			c0-2.995-0.135-6.357-0.406-10.088L394.886,4.521z"/>
		<path fill="#331842" d="M408.13,10.781l3.117,0.146c0,2.351-1.453,3.542-4.361,3.574c-0.035,0.007-0.064,0.01-0.092,0.01
			c-2.77,0-4.154-1.565-4.154-4.697V9.521c0.088-3.359,1.564-5.056,4.43-5.088h0.104c2.637,0,3.955,1.126,3.955,3.379
			c0,0.13-0.004,0.261-0.012,0.391L408.3,8.359V8.125c0-1.185-0.451-1.777-1.35-1.777c-0.918,0-1.375,0.96-1.375,2.881v0.322
			c0.051,2.077,0.514,3.115,1.389,3.115h0.078c0.76-0.046,1.141-0.479,1.141-1.299C408.183,11.191,408.166,10.996,408.13,10.781z"/>
		<path fill="#331842" d="M416.003,2.529c0,0.397-0.188,0.735-0.562,1.016c-0.375,0.28-0.83,0.42-1.361,0.42
			c-0.525,0-0.975-0.14-1.35-0.42c-0.377-0.28-0.564-0.618-0.564-1.016c0-0.391,0.189-0.726,0.564-1.006
			c0.375-0.28,0.824-0.42,1.35-0.42c0.531,0,0.986,0.14,1.361,0.42C415.816,1.804,416.003,2.139,416.003,2.529z M412.494,14.854
			c-0.062-3.809-0.092-7.1-0.092-9.873l3.301-0.146c-0.104,2.656-0.156,5.296-0.156,7.92c0,0.703,0.004,1.403,0.014,2.1
			L412.494,14.854L412.494,14.854z"/>
		<path fill="#331842" d="M421.794,4.492c2.873,0.117,4.311,1.194,4.311,3.232v6.934l-3.053,0.039l-0.104-0.928
			c-0.629,0.534-1.463,0.801-2.502,0.801c-0.447,0-0.928-0.052-1.441-0.156c-1.547-0.286-2.32-1.179-2.32-2.676
			c0-0.183,0.016-0.378,0.041-0.586c0.176-1.543,1.646-2.314,4.414-2.314c0.533,0,1.119,0.029,1.756,0.088V7.793
			c0-0.918-0.389-1.377-1.166-1.377h-0.053c-0.061-0.007-0.117-0.01-0.17-0.01c-0.846,0-1.27,0.515-1.27,1.543v0.146L417.117,7.9
			c0-2.272,1.467-3.408,4.402-3.408H421.794z M422.894,12.207v-1.719c-0.375-0.059-0.715-0.088-1.02-0.088
			c-0.795,0-1.338,0.198-1.625,0.596c-0.176,0.241-0.262,0.466-0.262,0.674c0,0.261,0.139,0.491,0.418,0.693
			c0.219,0.156,0.502,0.234,0.852,0.234C421.703,12.598,422.248,12.468,422.894,12.207z"/>
		<path fill="#331842" d="M426.996,11.338l3-0.107v0.127c0,1.003,0.414,1.511,1.244,1.523h0.053c0.803,0,1.205-0.29,1.205-0.869
			v-0.068c-0.035-0.638-0.828-1.152-2.379-1.543c-1.549-0.391-2.482-1.048-2.797-1.973c-0.113-0.325-0.17-0.638-0.17-0.938
			c0-0.547,0.188-1.055,0.562-1.523c0.576-0.716,1.449-1.126,2.621-1.23c0.314-0.026,0.619-0.039,0.916-0.039
			c0.777,0,1.463,0.101,2.057,0.303c0.812,0.28,1.375,0.681,1.691,1.201c0.209,0.358,0.312,0.755,0.312,1.191
			c0,0.208-0.021,0.423-0.064,0.645l-2.803,0.049c0.025-0.163,0.039-0.312,0.039-0.449c0-0.651-0.279-0.999-0.84-1.045
			c-0.061-0.007-0.121-0.01-0.182-0.01c-0.578,0-0.965,0.218-1.166,0.654c-0.07,0.149-0.105,0.286-0.105,0.41
			c0,0.306,0.191,0.569,0.576,0.791c0.543,0.312,1.344,0.63,2.404,0.952c1.062,0.322,1.775,0.871,2.143,1.646
			c0.131,0.293,0.195,0.586,0.195,0.879c0,0.495-0.191,0.993-0.576,1.494c-0.611,0.801-1.559,1.267-2.844,1.396
			c-0.279,0.032-0.555,0.049-0.824,0.049c-0.961,0-1.852-0.186-2.672-0.557C427.544,13.821,427.013,12.835,426.996,11.338z"/>
		<path fill="#331842" d="M451.244,0.986c-0.051,2.2-0.078,4.509-0.078,6.924c0,2.2,0.021,4.492,0.066,6.875l-3.105,0.01
			l-0.104-1.494c-0.646,0.723-1.508,1.084-2.582,1.084c-2.682,0-4.021-1.53-4.021-4.59c0-0.065,0.004-0.13,0.014-0.195
			c0.053-3.066,1.381-4.6,3.982-4.6c0.105,0,0.215,0.003,0.328,0.01c0.891,0.039,1.611,0.4,2.162,1.084
			c0-1.445-0.049-3.147-0.145-5.107L451.244,0.986L451.244,0.986z M447.968,11.299l-0.064-3.379
			c-0.506-0.515-1.025-0.771-1.559-0.771c-0.219,0-0.438,0.042-0.654,0.127c-0.691,0.267-1.035,1.016-1.035,2.246
			c0,0.144,0.004,0.29,0.014,0.439c0.086,1.491,0.531,2.278,1.336,2.363c0.078,0.007,0.156,0.01,0.236,0.01
			C446.939,12.334,447.515,11.989,447.968,11.299z"/>
		<path fill="#331842" d="M456.537,4.775c3.031,0,4.547,1.501,4.547,4.502c0,0.364-0.023,0.755-0.066,1.172h-5.855
			c0,1.673,0.434,2.51,1.297,2.51h0.092c0.76-0.046,1.141-0.479,1.141-1.299c0-0.176-0.018-0.371-0.053-0.586l3.119-0.049
			c0,2.48-1.455,3.737-4.361,3.77c-0.035,0.007-0.066,0.01-0.094,0.01c-2.768,0-4.15-1.565-4.15-4.697V9.814
			C452.236,6.455,453.699,4.775,456.537,4.775z M454.847,8.652h2.961V8.418c0-1.185-0.449-1.777-1.35-1.777
			C455.49,6.641,454.953,7.312,454.847,8.652z"/>
		<path fill="#331842" d="M470.632,14.639l-3.262,0.225c0.035-2.155,0.053-4.229,0.053-6.221c0-2.8-0.035-5.439-0.105-7.92
			l3.211-0.039c-0.035,1.595-0.055,3.232-0.055,4.912C470.476,8.493,470.529,11.507,470.632,14.639z"/>
		<path fill="#331842" d="M476.83,4.492c2.875,0.117,4.311,1.194,4.311,3.232v6.934l-3.053,0.039l-0.104-0.928
			c-0.631,0.534-1.465,0.801-2.502,0.801c-0.447,0-0.928-0.052-1.441-0.156c-1.547-0.286-2.32-1.179-2.32-2.676
			c0-0.183,0.014-0.378,0.041-0.586c0.174-1.543,1.646-2.314,4.414-2.314c0.533,0,1.119,0.029,1.756,0.088V7.793
			c0-0.918-0.389-1.377-1.166-1.377h-0.053c-0.061-0.007-0.117-0.01-0.17-0.01c-0.848,0-1.271,0.515-1.271,1.543v0.146L472.152,7.9
			c0-2.272,1.469-3.408,4.402-3.408H476.83z M477.929,12.207v-1.719c-0.375-0.059-0.715-0.088-1.02-0.088
			c-0.795,0-1.336,0.198-1.625,0.596c-0.176,0.241-0.262,0.466-0.262,0.674c0,0.261,0.139,0.491,0.418,0.693
			c0.219,0.156,0.502,0.234,0.852,0.234C476.738,12.598,477.283,12.468,477.929,12.207z"/>
		<path fill="#331842" d="M497.24,5.742l-2.908,0.01V5.488c0-1.53-0.576-2.295-1.729-2.295c-1.23,0-1.848,1.413-1.848,4.238
			c0,3.184,0.646,4.775,1.939,4.775h0.014c1.293-0.007,1.939-0.788,1.939-2.344V8.896h3.248v0.732c0,3.242-1.787,4.938-5.357,5.088
			c-0.105,0.007-0.211,0.01-0.314,0.01c-3.361,0-5.045-2.409-5.045-7.227c0-4.714,1.73-7.07,5.189-7.07
			c3.256,0,4.885,1.575,4.885,4.727C497.253,5.345,497.25,5.54,497.24,5.742z"/>
		<path fill="#331842" d="M503.279,4.775c2.971,0,4.455,1.536,4.455,4.609c0,0.124-0.004,0.247-0.014,0.371
			c-0.123,3.327-1.703,5.007-4.742,5.039c-0.035,0.007-0.07,0.01-0.105,0.01c-2.891,0-4.336-1.572-4.336-4.717V9.814
			C498.625,6.455,500.205,4.775,503.279,4.775z M502.847,7.002c-0.551,0.144-0.926,0.674-1.127,1.592
			c-0.123,0.547-0.184,1.097-0.184,1.65c0,0.371,0.027,0.745,0.08,1.123c0.139,0.938,0.588,1.423,1.348,1.455h0.092
			c0.709,0,1.193-0.349,1.455-1.045c0.219-0.579,0.328-1.267,0.328-2.061c0-0.195-0.004-0.394-0.014-0.596
			c-0.07-1.048-0.279-1.702-0.629-1.963c-0.217-0.156-0.48-0.234-0.785-0.234C503.236,6.924,503.048,6.95,502.847,7.002z"/>
		<path fill="#331842" d="M511.939,7.803l0.131,7.08l-3.209,0.02c0-2.995-0.137-6.357-0.406-10.088l2.41-0.195l0.131,1.592
			c0.367-0.781,1.223-1.228,2.568-1.338c0.201-0.013,0.393-0.02,0.576-0.02c1.057,0,1.859,0.257,2.41,0.771
			c0.639,0.612,0.961,1.585,0.971,2.92l-2.908,0.215c0.008-0.11,0.012-0.218,0.012-0.322c0-1.042-0.363-1.562-1.086-1.562h-0.053
			C512.646,6.907,512.13,7.217,511.939,7.803z"/>
		<path fill="#331842" d="M520.585,1.66l2.973-0.146v3.232l2.504-0.049l0.037,1.846l-2.541,0.088v4.443
			c0,1.035,0.59,1.553,1.77,1.553c0.244,0,0.51-0.022,0.799-0.068l-0.119,2.148c-0.418,0.039-0.814,0.059-1.191,0.059
			c-2.76,0-4.166-1.062-4.219-3.184V6.807l-2.146,0.098l-0.053-2.178l2.199,0.02L520.585,1.66z"/>
		<path fill="#331842" d="M531.447,4.775c3.029,0,4.545,1.501,4.545,4.502c0,0.364-0.021,0.755-0.064,1.172h-5.855
			c0,1.673,0.432,2.51,1.297,2.51h0.092c0.76-0.046,1.139-0.479,1.139-1.299c0-0.176-0.018-0.371-0.053-0.586l3.119-0.049
			c0,2.48-1.455,3.737-4.363,3.77c-0.035,0.007-0.064,0.01-0.092,0.01c-2.768,0-4.152-1.565-4.152-4.697V9.814
			C527.146,6.455,528.607,4.775,531.447,4.775z M529.755,8.652h2.961V8.418c0-1.185-0.449-1.777-1.35-1.777
			C530.398,6.641,529.861,7.312,529.755,8.652z"/>
		<path fill="#331842" d="M337.21,29.742l-2.908,0.01v-0.264c0-1.53-0.577-2.295-1.729-2.295c-1.231,0-1.848,1.413-1.848,4.238
			c0,3.184,0.646,4.775,1.939,4.775h0.013c1.293-0.007,1.939-0.788,1.939-2.344v-0.967h3.249v0.732c0,3.242-1.787,4.938-5.358,5.088
			c-0.104,0.007-0.21,0.01-0.313,0.01c-3.362,0-5.044-2.409-5.044-7.227c0-4.714,1.729-7.07,5.188-7.07
			c3.257,0,4.886,1.575,4.886,4.727C337.223,29.345,337.219,29.54,337.21,29.742z"/>
		<path fill="#331842" d="M343.249,28.775c2.97,0,4.454,1.536,4.454,4.609c0,0.124-0.004,0.247-0.013,0.371
			c-0.123,3.327-1.703,5.007-4.742,5.039c-0.035,0.007-0.07,0.01-0.105,0.01c-2.891,0-4.336-1.572-4.336-4.717v-0.273
			C338.594,30.455,340.175,28.775,343.249,28.775z M342.817,31.002c-0.551,0.144-0.927,0.674-1.126,1.592
			c-0.123,0.547-0.185,1.097-0.185,1.65c0,0.371,0.026,0.745,0.079,1.123c0.14,0.938,0.589,1.423,1.349,1.455h0.093
			c0.708,0,1.191-0.349,1.454-1.045c0.219-0.579,0.327-1.267,0.327-2.061c0-0.195-0.004-0.394-0.013-0.596
			c-0.07-1.048-0.279-1.702-0.629-1.963c-0.218-0.156-0.48-0.234-0.786-0.234C343.205,30.924,343.018,30.95,342.817,31.002z"/>
		<path fill="#331842" d="M350.834,28.521l0.131,1.592c0.367-0.847,1.332-1.276,2.896-1.289h0.053c1.537,0,2.584,0.449,3.143,1.348
			c0.385,0.612,0.578,2.044,0.578,4.297c0,1.106-0.049,2.415-0.145,3.926h-3.17c0.112-2.012,0.17-3.571,0.17-4.678
			c0-0.554-0.014-0.996-0.039-1.328c-0.087-0.977-0.507-1.465-1.258-1.465s-1.224,0.261-1.415,0.781l0.131,7.08l-3.079,0.02
			c0-2.995-0.136-6.357-0.406-10.088L350.834,28.521z"/>
		<path fill="#331842" d="M358.564,35.338l3-0.107v0.127c0,1.003,0.414,1.511,1.244,1.523h0.053c0.803,0,1.205-0.29,1.205-0.869
			v-0.068c-0.035-0.638-0.828-1.152-2.377-1.543c-1.553-0.391-2.482-1.048-2.799-1.973c-0.113-0.325-0.17-0.638-0.17-0.938
			c0-0.547,0.188-1.055,0.562-1.523c0.578-0.716,1.451-1.126,2.621-1.23c0.312-0.026,0.619-0.039,0.916-0.039
			c0.777,0,1.463,0.101,2.057,0.303c0.812,0.28,1.375,0.681,1.691,1.201c0.209,0.358,0.312,0.755,0.312,1.191
			c0,0.208-0.021,0.423-0.064,0.645l-2.805,0.049c0.027-0.163,0.039-0.312,0.039-0.449c0-0.651-0.277-0.999-0.838-1.045
			c-0.061-0.007-0.123-0.01-0.184-0.01c-0.576,0-0.965,0.218-1.166,0.654c-0.07,0.149-0.104,0.286-0.104,0.41
			c0,0.306,0.191,0.569,0.576,0.791c0.541,0.312,1.342,0.63,2.404,0.952c1.061,0.322,1.773,0.871,2.141,1.646
			c0.131,0.293,0.197,0.586,0.197,0.879c0,0.495-0.193,0.993-0.576,1.494c-0.611,0.801-1.559,1.267-2.844,1.396
			c-0.279,0.032-0.555,0.049-0.824,0.049c-0.961,0-1.852-0.186-2.674-0.557C359.115,37.821,358.582,36.835,358.564,35.338z"/>
		<path fill="#331842" d="M370.21,25.66l2.973-0.146v3.232l2.502-0.049l0.039,1.846l-2.541,0.088v4.443
			c0,1.035,0.59,1.553,1.77,1.553c0.244,0,0.51-0.022,0.799-0.068l-0.119,2.148c-0.418,0.039-0.814,0.059-1.191,0.059
			c-2.76,0-4.166-1.062-4.219-3.184v-4.775l-2.146,0.098l-0.053-2.178l2.199,0.02L370.21,25.66z"/>
		<path fill="#331842" d="M380.482,26.529c0,0.397-0.189,0.735-0.564,1.016c-0.375,0.28-0.83,0.42-1.361,0.42
			c-0.523,0-0.975-0.14-1.35-0.42c-0.377-0.28-0.564-0.618-0.564-1.016c0-0.391,0.189-0.726,0.564-1.006
			c0.375-0.28,0.824-0.42,1.35-0.42c0.531,0,0.986,0.14,1.361,0.42C380.292,25.804,380.482,26.139,380.482,26.529z M376.97,38.854
			c-0.061-3.809-0.092-7.1-0.092-9.873l3.301-0.146c-0.104,2.656-0.156,5.296-0.156,7.92c0,0.703,0.006,1.403,0.014,2.1
			L376.97,38.854L376.97,38.854z"/>
		<path fill="#331842" d="M383.39,25.66l2.975-0.146v3.232l2.502-0.049l0.039,1.846l-2.543,0.088v4.443
			c0,1.035,0.59,1.553,1.77,1.553c0.244,0,0.51-0.022,0.799-0.068l-0.117,2.148c-0.42,0.039-0.818,0.059-1.193,0.059
			c-2.76,0-4.166-1.062-4.219-3.184v-4.775l-2.148,0.098l-0.051-2.178l2.201,0.02L383.39,25.66z"/>
		<path fill="#331842" d="M396.792,38.805l-0.131-1.592c-0.367,0.847-1.355,1.272-2.961,1.279c-0.018,0.007-0.031,0.01-0.039,0.01
			c-1.59,0-2.643-0.534-3.158-1.602c-0.348-0.71-0.521-2.178-0.521-4.404c0-1.146,0.047-2.497,0.143-4.053h3.184
			c-0.174,2.188-0.262,3.87-0.262,5.049c0,0.593,0.021,1.055,0.066,1.387c0.131,1.016,0.57,1.523,1.322,1.523
			c0.75,0,1.223-0.264,1.414-0.791l-0.131-6.777l3.08-0.02c0,2.8,0.135,6.062,0.406,9.785L396.792,38.805z"/>
		<path fill="#331842" d="M405.648,34.781l3.117,0.146c0,2.351-1.455,3.542-4.361,3.574c-0.035,0.007-0.066,0.01-0.094,0.01
			c-2.768,0-4.152-1.565-4.152-4.697v-0.293c0.088-3.359,1.562-5.056,4.428-5.088h0.105c2.637,0,3.957,1.126,3.957,3.379
			c0,0.13-0.006,0.261-0.014,0.391l-2.816,0.156v-0.234c0-1.185-0.451-1.777-1.35-1.777c-0.918,0-1.377,0.96-1.377,2.881v0.322
			c0.055,2.077,0.518,3.115,1.391,3.115h0.078c0.76-0.046,1.141-0.479,1.141-1.299C405.701,35.191,405.683,34.996,405.648,34.781z"
			/>
		<path fill="#331842" d="M413.521,26.529c0,0.397-0.188,0.735-0.562,1.016c-0.377,0.28-0.83,0.42-1.363,0.42
			c-0.523,0-0.975-0.14-1.35-0.42c-0.375-0.28-0.562-0.618-0.562-1.016c0-0.391,0.188-0.726,0.562-1.006
			c0.375-0.28,0.826-0.42,1.35-0.42c0.533,0,0.986,0.14,1.363,0.42C413.333,25.804,413.521,26.139,413.521,26.529z M410.009,38.854
			c-0.061-3.809-0.09-7.1-0.09-9.873l3.301-0.146c-0.104,2.656-0.156,5.296-0.156,7.92c0,0.703,0.004,1.403,0.012,2.1
			L410.009,38.854L410.009,38.854z"/>
		<path fill="#331842" d="M418.853,28.775c2.969,0,4.453,1.536,4.453,4.609c0,0.124-0.004,0.247-0.012,0.371
			c-0.123,3.327-1.703,5.007-4.742,5.039c-0.035,0.007-0.07,0.01-0.105,0.01c-2.891,0-4.336-1.572-4.336-4.717v-0.273
			C414.199,30.455,415.779,28.775,418.853,28.775z M418.421,31.002c-0.551,0.144-0.926,0.674-1.127,1.592
			c-0.123,0.547-0.184,1.097-0.184,1.65c0,0.371,0.025,0.745,0.078,1.123c0.141,0.938,0.59,1.423,1.35,1.455h0.092
			c0.707,0,1.191-0.349,1.453-1.045c0.219-0.579,0.328-1.267,0.328-2.061c0-0.195-0.004-0.394-0.012-0.596
			c-0.07-1.048-0.281-1.702-0.629-1.963c-0.219-0.156-0.48-0.234-0.787-0.234C418.808,30.924,418.621,30.95,418.421,31.002z"/>
		<path fill="#331842" d="M426.439,28.521l0.131,1.592c0.365-0.847,1.332-1.276,2.895-1.289h0.051c1.537,0,2.586,0.449,3.146,1.348
			c0.383,0.612,0.576,2.044,0.576,4.297c0,1.106-0.049,2.415-0.145,3.926h-3.17c0.113-2.012,0.17-3.571,0.17-4.678
			c0-0.554-0.014-0.996-0.041-1.328c-0.086-0.977-0.506-1.465-1.256-1.465c-0.752,0-1.223,0.261-1.416,0.781l0.131,7.08l-3.078,0.02
			c0-2.995-0.135-6.357-0.406-10.088L426.439,28.521z"/>
		<path fill="#331842" d="M439.394,28.492c2.875,0.117,4.312,1.194,4.312,3.232v6.934l-3.053,0.039l-0.105-0.928
			c-0.629,0.534-1.463,0.801-2.502,0.801c-0.445,0-0.926-0.052-1.439-0.156c-1.547-0.286-2.32-1.179-2.32-2.676
			c0-0.183,0.014-0.378,0.041-0.586c0.174-1.543,1.645-2.314,4.414-2.314c0.533,0,1.119,0.029,1.756,0.088v-1.133
			c0-0.918-0.389-1.377-1.166-1.377h-0.053c-0.061-0.007-0.117-0.01-0.17-0.01c-0.848,0-1.271,0.515-1.271,1.543v0.146L434.72,31.9
			c0-2.272,1.467-3.408,4.402-3.408H439.394z M440.496,36.207v-1.719c-0.375-0.059-0.717-0.088-1.021-0.088
			c-0.795,0-1.338,0.198-1.625,0.596c-0.176,0.241-0.262,0.466-0.262,0.674c0,0.261,0.139,0.491,0.418,0.693
			c0.219,0.156,0.502,0.234,0.854,0.234C439.302,36.598,439.849,36.468,440.496,36.207z"/>
		<path fill="#331842" d="M448.433,38.639l-3.262,0.225c0.035-2.155,0.053-4.229,0.053-6.221c0-2.8-0.033-5.439-0.104-7.92
			l3.209-0.039c-0.035,1.595-0.053,3.232-0.053,4.912C448.277,32.493,448.33,35.507,448.433,38.639z"/>
		<path fill="#331842" d="M464.613,29.742l-2.908,0.01v-0.264c0-1.53-0.576-2.295-1.729-2.295c-1.23,0-1.848,1.413-1.848,4.238
			c0,3.184,0.646,4.775,1.939,4.775h0.014c1.293-0.007,1.939-0.788,1.939-2.344v-0.967h3.248v0.732c0,3.242-1.787,4.938-5.357,5.088
			c-0.105,0.007-0.211,0.01-0.314,0.01c-3.361,0-5.045-2.409-5.045-7.227c0-4.714,1.73-7.07,5.189-7.07
			c3.256,0,4.885,1.575,4.885,4.727C464.626,29.345,464.623,29.54,464.613,29.742z"/>
		<path fill="#331842" d="M470.652,28.775c2.971,0,4.455,1.536,4.455,4.609c0,0.124-0.006,0.247-0.014,0.371
			c-0.123,3.327-1.703,5.007-4.742,5.039c-0.035,0.007-0.07,0.01-0.105,0.01c-2.891,0-4.336-1.572-4.336-4.717v-0.273
			C465.998,30.455,467.578,28.775,470.652,28.775z M470.22,31.002c-0.551,0.144-0.926,0.674-1.127,1.592
			c-0.123,0.547-0.184,1.097-0.184,1.65c0,0.371,0.025,0.745,0.08,1.123c0.139,0.938,0.588,1.423,1.348,1.455h0.092
			c0.709,0,1.193-0.349,1.455-1.045c0.219-0.579,0.328-1.267,0.328-2.061c0-0.195-0.004-0.394-0.014-0.596
			c-0.07-1.048-0.279-1.702-0.629-1.963c-0.217-0.156-0.48-0.234-0.785-0.234C470.609,30.924,470.421,30.95,470.22,31.002z"/>
		<path fill="#331842" d="M479.509,38.639l-3.262,0.225c0.035-2.155,0.051-4.229,0.051-6.221c0-2.8-0.035-5.439-0.104-7.92
			l3.209-0.039c-0.035,1.595-0.053,3.232-0.053,4.912C479.351,32.493,479.404,35.507,479.509,38.639z"/>
		<path fill="#331842" d="M485.248,28.775c2.969,0,4.453,1.536,4.453,4.609c0,0.124-0.004,0.247-0.012,0.371
			c-0.123,3.327-1.703,5.007-4.742,5.039c-0.035,0.007-0.07,0.01-0.105,0.01c-2.891,0-4.336-1.572-4.336-4.717v-0.273
			C480.591,30.455,482.171,28.775,485.248,28.775z M484.814,31.002c-0.551,0.144-0.926,0.674-1.127,1.592
			c-0.121,0.547-0.184,1.097-0.184,1.65c0,0.371,0.025,0.745,0.078,1.123c0.141,0.938,0.59,1.423,1.35,1.455h0.092
			c0.709,0,1.191-0.349,1.453-1.045c0.219-0.579,0.328-1.267,0.328-2.061c0-0.195-0.004-0.394-0.012-0.596
			c-0.07-1.048-0.281-1.702-0.629-1.963c-0.219-0.156-0.48-0.234-0.787-0.234C485.203,30.924,485.015,30.95,484.814,31.002z"/>
		<path fill="#331842" d="M492.531,28.57l0.053,1.562c0.471-0.749,1.016-1.214,1.637-1.396c0.367-0.104,0.738-0.156,1.113-0.156
			c0.279,0,0.559,0.026,0.838,0.078c0.682,0.13,1.166,0.651,1.455,1.562c0.227-0.71,0.619-1.184,1.178-1.421
			c0.561-0.237,1.18-0.359,1.861-0.366h0.051c0.664,0,1.301,0.12,1.914,0.361c0.619,0.247,1.094,0.711,1.422,1.392
			c0.326,0.681,0.5,1.613,0.518,2.798v5.674l-2.83,0.049c0.111-2.142,0.17-3.965,0.17-5.469c0-1.504-0.385-2.314-1.152-2.432
			c-0.115-0.013-0.223-0.02-0.328-0.02c-0.611,0-1.084,0.293-1.416,0.879c-0.051,0.677-0.078,1.468-0.078,2.373
			c0,1.23,0.049,2.666,0.145,4.307l-3.275,0.02c0.123-2.52,0.186-4.354,0.186-5.508V32.74c-0.01-1.14-0.312-1.738-0.904-1.797h-0.17
			c-0.533,0-1.049,0.228-1.547,0.684l0.025,7.148l-3.092,0.088v-1.602c0-2.839-0.057-5.674-0.17-8.506L492.531,28.57z"/>
		<path fill="#331842" d="M508.919,24.986c-0.096,1.96-0.145,3.662-0.145,5.107c0.463-0.618,1.053-0.979,1.77-1.084
			c0.121-0.007,0.24-0.01,0.354-0.01c2.848,0,4.301,1.533,4.361,4.6v0.176c0,3.073-1.516,4.609-4.545,4.609
			c-0.725,0-1.41-0.361-2.057-1.084l-0.105,1.494l-3.105-0.01c0.045-2.383,0.064-4.675,0.064-6.875c0-2.415-0.025-4.724-0.078-6.924
			L508.919,24.986L508.919,24.986z M508.775,31.92l-0.066,3.379c0.455,0.69,1.031,1.035,1.73,1.035c0.078,0,0.156-0.003,0.234-0.01
			c0.803-0.085,1.25-0.889,1.336-2.412c0.01-0.156,0.014-0.306,0.014-0.449c0-1.25-0.34-1.995-1.021-2.236
			c-0.209-0.071-0.416-0.107-0.615-0.107C509.835,31.119,509.298,31.386,508.775,31.92z"/>
		<path fill="#331842" d="M519.962,26.529c0,0.397-0.188,0.735-0.562,1.016c-0.375,0.28-0.83,0.42-1.361,0.42
			c-0.525,0-0.975-0.14-1.35-0.42c-0.375-0.28-0.564-0.618-0.564-1.016c0-0.391,0.189-0.726,0.564-1.006
			c0.375-0.28,0.824-0.42,1.35-0.42c0.533,0,0.986,0.14,1.361,0.42C519.775,25.804,519.962,26.139,519.962,26.529z M516.453,38.854
			c-0.062-3.809-0.092-7.1-0.092-9.873l3.301-0.146c-0.105,2.656-0.158,5.296-0.158,7.92c0,0.703,0.004,1.403,0.014,2.1
			L516.453,38.854L516.453,38.854z"/>
		<path fill="#331842" d="M525.753,28.492c2.873,0.117,4.311,1.194,4.311,3.232v6.934l-3.055,0.039l-0.104-0.928
			c-0.629,0.534-1.463,0.801-2.502,0.801c-0.445,0-0.926-0.052-1.441-0.156c-1.545-0.286-2.318-1.179-2.318-2.676
			c0-0.183,0.014-0.378,0.039-0.586c0.176-1.543,1.646-2.314,4.416-2.314c0.531,0,1.117,0.029,1.756,0.088v-1.133
			c0-0.918-0.391-1.377-1.166-1.377h-0.053c-0.062-0.007-0.119-0.01-0.172-0.01c-0.846,0-1.27,0.515-1.27,1.543v0.146l-3.119-0.195
			c0-2.272,1.469-3.408,4.402-3.408H525.753z M526.855,36.207v-1.719c-0.375-0.059-0.717-0.088-1.021-0.088
			c-0.795,0-1.336,0.198-1.625,0.596c-0.176,0.241-0.262,0.466-0.262,0.674c0,0.261,0.139,0.491,0.418,0.693
			c0.219,0.156,0.502,0.234,0.852,0.234C525.662,36.598,526.207,36.468,526.855,36.207z"/>
		<path fill="#331842" d="M533.523,28.521l0.131,1.592c0.365-0.847,1.332-1.276,2.895-1.289h0.053c1.537,0,2.584,0.449,3.145,1.348
			c0.383,0.612,0.576,2.044,0.576,4.297c0,1.106-0.047,2.415-0.145,3.926h-3.17c0.113-2.012,0.17-3.571,0.17-4.678
			c0-0.554-0.014-0.996-0.039-1.328c-0.088-0.977-0.508-1.465-1.258-1.465c-0.752,0-1.223,0.261-1.416,0.781l0.131,7.08l-3.078,0.02
			c0-2.995-0.137-6.357-0.406-10.088L533.523,28.521z"/>
		<path fill="#331842" d="M546.48,28.492c2.871,0.117,4.309,1.194,4.309,3.232v6.934l-3.051,0.039l-0.105-0.928
			c-0.629,0.534-1.463,0.801-2.502,0.801c-0.445,0-0.926-0.052-1.441-0.156c-1.547-0.286-2.318-1.179-2.318-2.676
			c0-0.183,0.012-0.378,0.039-0.586c0.174-1.543,1.645-2.314,4.414-2.314c0.533,0,1.119,0.029,1.756,0.088v-1.133
			c0-0.918-0.389-1.377-1.166-1.377h-0.053c-0.061-0.007-0.117-0.01-0.17-0.01c-0.848,0-1.271,0.515-1.271,1.543v0.146l-3.117-0.195
			c0-2.272,1.467-3.408,4.4-3.408H546.48z M547.58,36.207v-1.719c-0.377-0.059-0.717-0.088-1.023-0.088
			c-0.795,0-1.336,0.198-1.625,0.596c-0.174,0.241-0.262,0.466-0.262,0.674c0,0.261,0.141,0.491,0.42,0.693
			c0.217,0.156,0.502,0.234,0.852,0.234C546.386,36.598,546.933,36.468,547.58,36.207z"/>
	</g>
</g>
</svg>
