<?xml version="1.0" encoding="utf-8"?>
<!-- Generator: Adobe Illustrator 16.0.0, SVG Export Plug-In . SVG Version: 6.00 Build 0)  -->
<!DOCTYPE svg PUBLIC "-//W3C//DTD SVG 1.1//EN" "http://www.w3.org/Graphics/SVG/1.1/DTD/svg11.dtd">
<svg version="1.1" id="Capa_1" xmlns="http://www.w3.org/2000/svg" xmlns:xlink="http://www.w3.org/1999/xlink" x="0px" y="0px"
	 width="380.72px" height="123.175px" viewBox="0 0 380.72 123.175" enable-background="new 0 0 380.72 123.175"
	 xml:space="preserve">
<g>
	<path fill="#951B81" d="M0.564,77.858l380.156-8.674c-0.016-7.119-6.635-69.088-6.635-69.088L374.082,0L0,8.712L0.475,65.75
		L0.564,77.858z"/>
	<g>
		<g>
			<path fill="#FFFFFF" d="M31.953,37.621c0.024-2.852,0.008-5.719-0.049-8.607c-0.087-4.42-0.269-8.885-0.545-13.391
				c2.067-0.201,3.922-0.316,5.566-0.35c4.568-0.09,7.492,0.475,8.772,1.695c1.198,1.141,1.812,2.414,1.839,3.818
				c0.013,0.637-0.088,1.297-0.302,1.977c-0.731,2.207-2.333,3.629-4.807,4.266c1.74,0.145,3.069,0.814,3.988,2.012
				c0.878,1.158,1.364,4.107,1.458,8.848l0.013,0.641l-6.049,0.18c0.042-1.254,0.053-2.381,0.033-3.377
				c-0.06-3.018-0.424-4.857-1.091-5.521c-0.764-0.742-1.659-1.104-2.688-1.084c-0.2,0.004-0.407,0.023-0.62,0.059
				c0.14,3.035,0.37,5.91,0.691,8.623L31.953,37.621z M36.717,18.998l0.266,6.391c2.483-0.139,4.047-0.799,4.691-1.977
				c0.349-0.625,0.518-1.229,0.506-1.816c-0.01-0.508-0.154-1.004-0.431-1.486c-0.497-0.836-1.701-1.236-3.611-1.199
				C37.697,18.918,37.223,18.949,36.717,18.998z"/>
			<path fill="#FFFFFF" d="M55.778,22.014c4.635-0.092,6.999,2.158,7.089,6.748c0.011,0.559-0.011,1.156-0.064,1.795l-8.957,0.178
				c0.05,2.559,0.737,3.824,2.059,3.799l0.141-0.004c1.16-0.092,1.729-0.766,1.704-2.021c-0.005-0.268-0.038-0.566-0.098-0.893
				l4.767-0.17c0.075,3.795-2.111,5.76-6.559,5.898c-0.053,0.01-0.1,0.016-0.14,0.016c-4.234,0.084-6.398-2.268-6.493-7.059
				l-0.009-0.447C49.25,24.713,51.437,22.1,55.778,22.014z M53.311,27.994l4.528-0.09l-0.007-0.357
				c-0.036-1.812-0.742-2.705-2.117-2.678C54.231,24.898,53.43,25.939,53.311,27.994z"/>
			<path fill="#FFFFFF" d="M64.774,43.143c0.014-3.357-0.017-6.928-0.091-10.711c-0.068-3.445-0.173-7.059-0.314-10.842l4.749-0.107
				l0.206,2.295c0.966-1.135,2.271-1.717,3.914-1.75c4.101-0.08,6.199,2.293,6.295,7.123l0.006,0.299
				c0.001,4.84-1.994,7.301-5.988,7.381c-0.16,0.002-0.321,0.002-0.481-0.006c-1.364-0.023-2.477-0.555-3.339-1.594
				c0.043,2.211,0.168,4.812,0.375,7.807L64.774,43.143z M69.463,26.838l0.211,5.615c0.791,0.771,1.579,1.148,2.368,1.133
				c0.32-0.006,0.64-0.082,0.957-0.229c0.967-0.416,1.432-1.615,1.393-3.598c-0.005-0.238-0.017-0.488-0.035-0.746
				c-0.182-2.428-0.855-3.693-2.02-3.801c-0.121-0.008-0.234-0.01-0.341-0.008C70.982,25.225,70.137,25.77,69.463,26.838z"/>
			<path fill="#FFFFFF" d="M88.709,20.932c4.398,0.092,6.628,1.695,6.689,4.812l0.209,10.605l-4.667,0.152l-0.188-1.416
				c-0.946,0.834-2.213,1.268-3.803,1.299c-0.681,0.014-1.417-0.051-2.208-0.195c-2.373-0.391-3.583-1.732-3.628-4.023
				c-0.005-0.279,0.009-0.576,0.043-0.896c0.22-2.365,2.448-3.59,6.683-3.672c0.814-0.018,1.71,0.01,2.687,0.08l-0.034-1.73
				c-0.028-1.404-0.636-2.096-1.825-2.072l-0.08,0.002c-0.094-0.008-0.181-0.012-0.261-0.012c-1.296,0.027-1.928,0.826-1.897,2.4
				l0.004,0.223l-4.774-0.203c-0.068-3.477,2.141-5.258,6.629-5.346L88.709,20.932z M90.625,32.697l-0.052-2.629
				c-0.576-0.078-1.098-0.113-1.565-0.104c-1.216,0.023-2.038,0.344-2.467,0.959c-0.26,0.375-0.386,0.719-0.38,1.039
				c0.008,0.398,0.228,0.748,0.662,1.047c0.339,0.234,0.775,0.344,1.31,0.334C88.814,33.33,89.645,33.115,90.625,32.697z"/>
			<path fill="#FFFFFF" d="M102.334,25.727l0.414,10.824l-4.909,0.127c-0.09-4.58-0.399-9.719-0.926-15.416l3.681-0.371l0.248,2.43
				c0.538-1.205,1.833-1.914,3.887-2.123c0.307-0.025,0.601-0.043,0.881-0.049c1.616-0.031,2.854,0.338,3.71,1.109
				c0.994,0.916,1.518,2.395,1.571,4.436l-4.441,0.416c0.01-0.17,0.013-0.334,0.01-0.494c-0.031-1.592-0.602-2.377-1.71-2.355
				l-0.08,0.002C103.389,24.336,102.61,24.824,102.334,25.727z"/>
			<path fill="#FFFFFF" d="M119.866,20.316c4.398,0.092,6.628,1.697,6.69,4.814l0.209,10.604l-4.667,0.152l-0.188-1.416
				c-0.945,0.836-2.213,1.27-3.803,1.301c-0.682,0.012-1.418-0.053-2.209-0.197c-2.373-0.391-3.582-1.73-3.627-4.021
				c-0.006-0.279,0.008-0.578,0.042-0.896c0.221-2.367,2.448-3.59,6.683-3.674c0.814-0.016,1.711,0.01,2.688,0.08l-0.034-1.73
				c-0.027-1.404-0.636-2.096-1.825-2.072l-0.08,0.002c-0.094-0.008-0.181-0.012-0.261-0.01c-1.295,0.025-1.928,0.824-1.896,2.398
				l0.004,0.223l-4.774-0.203c-0.069-3.477,2.141-5.258,6.629-5.346L119.866,20.316z M121.782,32.082l-0.052-2.629
				c-0.577-0.078-1.098-0.113-1.565-0.104c-1.215,0.023-2.038,0.344-2.467,0.961c-0.26,0.373-0.386,0.719-0.38,1.037
				c0.008,0.398,0.229,0.748,0.662,1.049c0.339,0.232,0.775,0.342,1.31,0.332C119.971,32.715,120.801,32.5,121.782,32.082z"/>
			<path fill="#FFFFFF" d="M136.446,29.611l4.773,0.129c0.071,3.596-2.117,5.461-6.564,5.6c-0.053,0.01-0.1,0.016-0.14,0.018
				c-4.235,0.084-6.399-2.27-6.493-7.061l-0.009-0.447c0.032-5.141,2.238-7.777,6.618-7.914l0.161-0.004
				c4.034-0.08,6.085,1.604,6.153,5.049c0.004,0.199,0.001,0.398-0.008,0.596l-4.304,0.324l-0.007-0.357
				c-0.036-1.812-0.742-2.705-2.117-2.678c-1.402,0.029-2.075,1.512-2.017,4.447l0.01,0.494c0.143,3.174,0.882,4.748,2.218,4.723
				l0.12-0.004c1.16-0.092,1.729-0.766,1.704-2.02C136.539,30.236,136.505,29.939,136.446,29.611z"/>
			<path fill="#FFFFFF" d="M148.239,16.752c0.012,0.607-0.265,1.131-0.831,1.57s-1.256,0.668-2.071,0.684
				c-0.801,0.016-1.494-0.184-2.077-0.602c-0.583-0.416-0.88-0.928-0.892-1.537c-0.012-0.596,0.265-1.115,0.831-1.555
				c0.565-0.438,1.249-0.666,2.051-0.682c0.814-0.018,1.514,0.184,2.097,0.6C147.93,15.646,148.227,16.154,148.239,16.752z
				 M143.241,35.707c-0.208-5.822-0.354-10.854-0.438-15.098l5.044-0.322c-0.08,4.064-0.081,8.105-0.001,12.117
				c0.021,1.076,0.049,2.145,0.083,3.211L143.241,35.707z"/>
			<path fill="#FFFFFF" d="M156.461,20.027c4.541-0.09,6.858,2.215,6.951,6.914c0.004,0.189,0.001,0.379-0.009,0.568
				c-0.086,5.092-2.453,7.709-7.101,7.852c-0.054,0.01-0.107,0.016-0.16,0.018c-4.421,0.088-6.68-2.275-6.774-7.084l-0.008-0.418
				C149.392,22.736,151.759,20.119,156.461,20.027z M153.799,17.166c1.535-1.414,2.792-2.76,3.769-4.033l3.324,1.875
				c-1.396,1.064-2.947,2.365-4.654,3.904L153.799,17.166z M155.868,23.445c-0.837,0.236-1.396,1.059-1.675,2.469
				c-0.17,0.84-0.248,1.684-0.231,2.529c0.012,0.568,0.063,1.141,0.154,1.717c0.242,1.428,0.944,2.156,2.107,2.184l0.141-0.002
				c1.082-0.021,1.813-0.57,2.192-1.643c0.316-0.893,0.463-1.947,0.438-3.162c-0.006-0.299-0.019-0.602-0.038-0.91
				c-0.139-1.602-0.479-2.596-1.021-2.984c-0.339-0.23-0.742-0.344-1.209-0.334C156.459,23.314,156.173,23.359,155.868,23.445z"/>
			<path fill="#FFFFFF" d="M168.055,19.41l0.248,2.43c0.536-1.305,1.999-1.992,4.39-2.059l0.08-0.002
				c2.351-0.047,3.967,0.609,4.849,1.967c0.606,0.924,0.944,3.109,1.011,6.555c0.034,1.691,0,3.695-0.102,6.01l-4.849,0.096
				c0.112-3.082,0.152-5.469,0.119-7.162c-0.017-0.846-0.05-1.521-0.101-2.029c-0.163-1.49-0.819-2.225-1.968-2.203
				c-1.148,0.023-1.862,0.436-2.14,1.238l0.414,10.826l-4.708,0.121c-0.09-4.58-0.399-9.719-0.925-15.416L168.055,19.41z"/>
			<path fill="#FFFFFF" d="M195.343,18.826c4.398,0.094,6.628,1.697,6.69,4.814l0.209,10.605l-4.667,0.15l-0.188-1.416
				c-0.946,0.836-2.214,1.27-3.803,1.301c-0.682,0.014-1.418-0.053-2.209-0.195c-2.373-0.391-3.582-1.732-3.627-4.023
				c-0.005-0.279,0.008-0.578,0.042-0.896c0.221-2.365,2.448-3.59,6.683-3.674c0.814-0.016,1.71,0.01,2.688,0.082l-0.034-1.732
				c-0.028-1.404-0.636-2.094-1.825-2.07h-0.08c-0.094-0.008-0.181-0.012-0.261-0.01c-1.295,0.025-1.928,0.826-1.896,2.398
				l0.004,0.225l-4.774-0.205c-0.068-3.475,2.141-5.256,6.63-5.346L195.343,18.826z M197.259,30.592l-0.052-2.627
				c-0.576-0.08-1.098-0.113-1.565-0.105c-1.215,0.025-2.038,0.346-2.467,0.961c-0.26,0.375-0.386,0.719-0.38,1.039
				c0.008,0.398,0.228,0.746,0.662,1.047c0.339,0.232,0.774,0.344,1.31,0.332C195.448,31.227,196.279,31.01,197.259,30.592z"/>
			<path fill="#FFFFFF" d="M215.799,33.543c-1.762-6.678-3.831-13.656-6.206-20.93l5.842-0.564l3.749,16.303
				c1.637-5.76,2.964-10.971,3.981-15.633l5.56,0.398c-2.627,9.088-4.586,15.793-5.877,20.123L215.799,33.543z"/>
			<path fill="#FFFFFF" d="M234.857,15.043c0.012,0.607-0.266,1.131-0.831,1.57c-0.566,0.439-1.257,0.668-2.071,0.684
				c-0.802,0.016-1.494-0.184-2.076-0.602c-0.583-0.416-0.881-0.928-0.893-1.537c-0.012-0.596,0.265-1.115,0.831-1.555
				c0.566-0.438,1.25-0.666,2.051-0.682c0.814-0.018,1.514,0.184,2.096,0.6C234.547,13.938,234.845,14.445,234.857,15.043z
				 M229.859,33.998c-0.209-5.822-0.354-10.855-0.438-15.098l5.045-0.324c-0.08,4.066-0.081,8.105-0.001,12.119
				c0.021,1.074,0.049,2.145,0.083,3.211L229.859,33.998z"/>
			<path fill="#FFFFFF" d="M243.079,18.316c4.542-0.088,6.859,2.217,6.952,6.916c0.004,0.189,0.001,0.379-0.009,0.568
				c-0.087,5.092-2.454,7.709-7.101,7.852c-0.053,0.01-0.107,0.016-0.16,0.018c-4.422,0.086-6.68-2.275-6.774-7.084l-0.009-0.418
				C236.01,21.027,238.377,18.41,243.079,18.316z M242.486,21.736c-0.838,0.236-1.396,1.059-1.676,2.467
				c-0.171,0.842-0.247,1.686-0.23,2.531c0.011,0.568,0.062,1.139,0.154,1.717c0.241,1.428,0.944,2.156,2.107,2.184l0.141-0.004
				c1.082-0.021,1.812-0.568,2.192-1.643c0.316-0.891,0.462-1.945,0.438-3.16c-0.006-0.299-0.019-0.604-0.038-0.91
				c-0.139-1.602-0.479-2.596-1.021-2.984c-0.338-0.23-0.742-0.344-1.209-0.334C243.077,21.605,242.791,21.65,242.486,21.736z"/>
			<path fill="#FFFFFF" d="M256.921,33.137l-4.982,0.439c-0.012-3.297-0.047-6.467-0.107-9.514
				c-0.084-4.281-0.218-8.318-0.399-12.111l4.908-0.156c-0.006,2.441,0.017,4.945,0.068,7.514
				C256.496,23.74,256.667,28.35,256.921,33.137z"/>
			<path fill="#FFFFFF" d="M266.092,17.43c4.398,0.094,6.628,1.697,6.689,4.814l0.209,10.605L268.324,33l-0.188-1.416
				c-0.946,0.836-2.213,1.27-3.803,1.301c-0.681,0.014-1.417-0.053-2.208-0.195c-2.373-0.391-3.583-1.732-3.628-4.023
				c-0.005-0.279,0.009-0.576,0.043-0.896c0.22-2.365,2.448-3.59,6.683-3.674c0.814-0.016,1.71,0.012,2.687,0.082l-0.034-1.732
				c-0.028-1.404-0.636-2.094-1.825-2.07l-0.08,0.002c-0.094-0.008-0.181-0.014-0.261-0.012c-1.296,0.025-1.928,0.826-1.897,2.398
				l0.004,0.225l-4.774-0.203c-0.068-3.477,2.141-5.258,6.629-5.346L266.092,17.43z M268.008,29.195l-0.052-2.627
				c-0.576-0.078-1.098-0.113-1.565-0.104c-1.216,0.023-2.038,0.344-2.467,0.959c-0.26,0.375-0.386,0.719-0.38,1.039
				c0.008,0.398,0.228,0.748,0.662,1.047c0.339,0.232,0.775,0.344,1.31,0.334C266.197,29.83,267.028,29.613,268.008,29.195z"/>
			<path fill="#FFFFFF" d="M282.672,26.727l4.773,0.129c0.071,3.596-2.117,5.461-6.564,5.598c-0.054,0.012-0.1,0.018-0.14,0.018
				c-4.235,0.084-6.399-2.268-6.494-7.059l-0.009-0.447c0.032-5.141,2.238-7.779,6.619-7.916l0.16-0.004
				c4.034-0.078,6.085,1.604,6.153,5.049c0.004,0.199,0,0.398-0.009,0.598l-4.303,0.324l-0.007-0.357
				c-0.035-1.812-0.741-2.705-2.117-2.678c-1.403,0.027-2.075,1.51-2.017,4.447l0.01,0.492c0.143,3.176,0.882,4.75,2.218,4.723
				l0.12-0.002c1.161-0.092,1.729-0.768,1.704-2.02C282.765,27.352,282.732,27.053,282.672,26.727z"/>
			<path fill="#FFFFFF" d="M294.465,13.867c0.012,0.607-0.266,1.131-0.831,1.57c-0.566,0.439-1.257,0.668-2.071,0.684
				c-0.802,0.016-1.494-0.186-2.076-0.602c-0.583-0.418-0.88-0.93-0.893-1.537c-0.012-0.598,0.266-1.117,0.831-1.555
				c0.566-0.439,1.25-0.668,2.052-0.684c0.814-0.016,1.513,0.186,2.096,0.602C294.156,12.762,294.453,13.27,294.465,13.867z
				 M289.467,32.822c-0.209-5.822-0.354-10.855-0.438-15.098l5.044-0.324c-0.08,4.066-0.081,8.105-0.001,12.119
				c0.021,1.074,0.049,2.145,0.083,3.209L289.467,32.822z"/>
			<path fill="#FFFFFF" d="M302.688,17.141c4.541-0.09,6.858,2.217,6.951,6.916c0.004,0.189,0.001,0.379-0.009,0.568
				c-0.087,5.092-2.453,7.709-7.101,7.85c-0.053,0.012-0.107,0.018-0.16,0.018c-4.422,0.088-6.68-2.273-6.774-7.082l-0.008-0.42
				C295.619,19.852,297.986,17.234,302.688,17.141z M302.094,20.561c-0.838,0.234-1.396,1.059-1.676,2.467
				c-0.17,0.842-0.247,1.686-0.23,2.531c0.011,0.568,0.062,1.139,0.154,1.715c0.242,1.43,0.944,2.158,2.107,2.186l0.141-0.004
				c1.082-0.021,1.812-0.568,2.192-1.643c0.316-0.893,0.462-1.945,0.438-3.16c-0.006-0.299-0.019-0.604-0.038-0.912
				c-0.139-1.6-0.479-2.594-1.021-2.982c-0.339-0.232-0.742-0.344-1.209-0.334C302.686,20.428,302.399,20.475,302.094,20.561z"/>
			<path fill="#FFFFFF" d="M314.281,16.523l0.249,2.432c0.535-1.307,1.998-1.992,4.389-2.061l0.08-0.002
				c2.351-0.045,3.968,0.609,4.85,1.967c0.606,0.926,0.943,3.109,1.012,6.555c0.033,1.693-0.001,3.697-0.102,6.01l-4.849,0.096
				c0.113-3.082,0.153-5.467,0.119-7.16c-0.017-0.846-0.05-1.523-0.1-2.029c-0.163-1.492-0.819-2.227-1.968-2.203
				c-1.149,0.023-1.862,0.436-2.141,1.238l0.414,10.824l-4.708,0.123c-0.09-4.582-0.399-9.721-0.926-15.416L314.281,16.523z"/>
			<path fill="#FFFFFF" d="M332.863,16.545c4.635-0.092,6.998,2.16,7.089,6.75c0.011,0.557-0.011,1.154-0.065,1.795l-8.956,0.176
				c0.051,2.559,0.737,3.824,2.06,3.799l0.14-0.002c1.161-0.094,1.729-0.768,1.704-2.023c-0.005-0.268-0.038-0.564-0.098-0.893
				l4.767-0.168c0.075,3.793-2.111,5.76-6.558,5.896c-0.053,0.012-0.1,0.018-0.14,0.018c-4.235,0.084-6.399-2.27-6.494-7.059
				l-0.009-0.449C326.334,19.244,328.521,16.631,332.863,16.545z M330.395,22.525l4.528-0.088l-0.007-0.359
				c-0.036-1.811-0.742-2.703-2.118-2.678C331.316,19.43,330.515,20.473,330.395,22.525z"/>
			<path fill="#FFFFFF" d="M341.276,26.422l4.585-0.256l0.004,0.193c0.03,1.533,0.68,2.297,1.949,2.293l0.08-0.002
				c1.229-0.023,1.835-0.479,1.817-1.365l-0.002-0.105c-0.073-0.973-1.3-1.736-3.683-2.287s-3.828-1.529-4.337-2.934
				c-0.184-0.494-0.28-0.969-0.289-1.428c-0.017-0.836,0.256-1.619,0.815-2.348c0.86-1.113,2.183-1.766,3.971-1.961
				c0.479-0.049,0.947-0.078,1.401-0.088c1.188-0.023,2.24,0.111,3.154,0.402c1.251,0.402,2.125,0.998,2.621,1.785
				c0.332,0.541,0.504,1.146,0.517,1.814c0.007,0.318-0.021,0.648-0.08,0.986l-4.286,0.16c0.035-0.25,0.05-0.48,0.046-0.689
				c-0.02-0.996-0.458-1.52-1.313-1.572c-0.094-0.008-0.188-0.012-0.281-0.01c-0.881,0.018-1.469,0.363-1.763,1.037
				c-0.103,0.23-0.152,0.441-0.148,0.629c0.009,0.469,0.311,0.865,0.905,1.191c0.838,0.463,2.073,0.924,3.706,1.385
				s2.741,1.279,3.326,2.453c0.209,0.443,0.318,0.889,0.327,1.338c0.015,0.756-0.264,1.523-0.836,2.303
				c-0.911,1.244-2.346,1.984-4.306,2.223c-0.427,0.057-0.847,0.09-1.261,0.098c-1.47,0.029-2.838-0.227-4.104-0.77
				C342.192,30.203,341.347,28.709,341.276,26.422z"/>
			<path fill="#FFFFFF" d="M65.712,42.949c-0.014,3.367,0.016,6.896,0.089,10.59c0.066,3.367,0.169,6.871,0.308,10.514l-4.749,0.109
				l-0.206-2.283c-0.967,1.125-2.271,1.703-3.914,1.736c-4.101,0.08-6.197-2.217-6.29-6.896c-0.002-0.1,0.003-0.201,0.014-0.301
				c-0.012-4.691,1.972-7.076,5.953-7.154c0.16-0.004,0.327-0.002,0.501,0.004c1.364,0.033,2.477,0.564,3.339,1.594
				c-0.044-2.211-0.168-4.812-0.375-7.807L65.712,42.949z M61.015,58.818l-0.202-5.164c-0.791-0.771-1.593-1.148-2.408-1.133
				c-0.334,0.006-0.667,0.078-0.998,0.215c-1.047,0.428-1.552,1.584-1.515,3.465c0.004,0.221,0.015,0.443,0.033,0.672
				c0.178,2.277,0.883,3.469,2.115,3.574c0.121,0.008,0.241,0.01,0.361,0.008C59.47,60.434,60.34,59.889,61.015,58.818z"/>
			<path fill="#FFFFFF" d="M73.921,48.584c4.635-0.092,6.998,2.158,7.089,6.748c0.011,0.559-0.011,1.156-0.065,1.795l-8.957,0.178
				c0.051,2.559,0.737,3.824,2.06,3.799l0.14-0.004c1.161-0.092,1.729-0.766,1.704-2.021c-0.005-0.268-0.039-0.566-0.098-0.895
				l4.768-0.168c0.074,3.795-2.111,5.76-6.559,5.896c-0.053,0.012-0.1,0.018-0.14,0.018c-4.235,0.084-6.399-2.268-6.493-7.059
				l-0.009-0.447C67.393,51.283,69.581,48.67,73.921,48.584z M71.454,54.564l4.528-0.09l-0.007-0.357
				c-0.036-1.812-0.742-2.705-2.117-2.678C72.375,51.469,71.574,52.51,71.454,54.564z"/>
			<path fill="#FFFFFF" d="M90.302,63.037c-0.04-3.355-0.094-6.811-0.165-10.365c-0.07-3.564-0.156-7.223-0.256-10.977
				c1.533-0.17,2.948-0.268,4.243-0.293c3.606-0.072,6.275,0.414,8.006,1.455c2.353,1.428,3.623,4.127,3.808,8.098l0.021,1.074
				c0.067,3.406-0.326,5.844-1.178,7.316c-0.944,1.623-2.706,2.723-5.287,3.301c-1.49,0.34-3.13,0.525-4.92,0.561
				C93.239,63.234,91.815,63.178,90.302,63.037z M94.934,45.869c-0.162,3.279-0.213,6.447-0.153,9.506
				c0.023,1.154,0.058,2.289,0.107,3.404c0.47,0.07,0.917,0.1,1.345,0.092c1.175-0.023,2.158-0.346,2.947-0.969
				c1.079-0.838,1.591-2.68,1.535-5.529l-0.001-0.059c-0.07-2.867-0.642-4.74-1.715-5.615c-0.828-0.66-1.803-0.98-2.925-0.957
				C95.713,45.748,95.334,45.791,94.934,45.869z"/>
			<path fill="#FFFFFF" d="M113.894,47.795c4.636-0.092,6.999,2.158,7.089,6.748c0.011,0.559-0.011,1.156-0.064,1.795l-8.957,0.178
				c0.05,2.559,0.737,3.824,2.059,3.799l0.141-0.004c1.16-0.092,1.729-0.766,1.704-2.021c-0.006-0.268-0.039-0.566-0.098-0.893
				l4.767-0.17c0.075,3.795-2.111,5.76-6.559,5.896c-0.053,0.012-0.1,0.018-0.14,0.018c-4.234,0.084-6.399-2.268-6.493-7.059
				l-0.009-0.447C107.366,50.494,109.553,47.881,113.894,47.795z M111.426,53.775l4.528-0.09l-0.007-0.357
				c-0.036-1.812-0.742-2.705-2.117-2.678C112.348,50.68,111.546,51.721,111.426,53.775z"/>
			<path fill="#FFFFFF" d="M127.771,52.152l0.415,10.826l-4.909,0.125c-0.09-4.58-0.399-9.719-0.925-15.416l3.681-0.371l0.249,2.432
				c0.537-1.207,1.833-1.916,3.887-2.125c0.307-0.025,0.6-0.041,0.881-0.047c1.616-0.033,2.853,0.336,3.71,1.107
				c0.994,0.916,1.517,2.396,1.571,4.436l-4.441,0.416c0.01-0.168,0.013-0.332,0.01-0.492c-0.031-1.594-0.601-2.379-1.71-2.355
				h-0.08C128.826,50.764,128.046,51.252,127.771,52.152z"/>
			<path fill="#FFFFFF" d="M144.069,47.199c4.635-0.092,6.998,2.158,7.088,6.748c0.011,0.559-0.011,1.156-0.064,1.795l-8.957,0.178
				c0.05,2.559,0.737,3.824,2.06,3.799l0.14-0.004c1.161-0.092,1.729-0.766,1.704-2.021c-0.006-0.268-0.039-0.566-0.098-0.893
				l4.767-0.17c0.075,3.795-2.111,5.76-6.558,5.896c-0.053,0.012-0.1,0.018-0.14,0.018c-4.234,0.084-6.398-2.268-6.493-7.059
				l-0.009-0.447C137.542,49.898,139.728,47.285,144.069,47.199z M141.602,53.18l4.528-0.088l-0.007-0.359
				c-0.036-1.811-0.741-2.705-2.117-2.678C142.523,50.084,141.722,51.125,141.602,53.18z"/>
			<path fill="#FFFFFF" d="M160.901,56.057l4.773,0.129c0.071,3.596-2.117,5.461-6.564,5.6c-0.053,0.01-0.1,0.016-0.14,0.018
				c-4.235,0.082-6.399-2.27-6.494-7.059l-0.009-0.449c0.032-5.141,2.238-7.777,6.619-7.916l0.16-0.002
				c4.034-0.08,6.085,1.604,6.153,5.049c0.004,0.199,0.001,0.398-0.008,0.598l-4.303,0.324l-0.007-0.359
				c-0.036-1.811-0.742-2.703-2.117-2.676c-1.403,0.027-2.075,1.508-2.017,4.445l0.01,0.494c0.143,3.176,0.882,4.748,2.218,4.723
				l0.12-0.002c1.161-0.094,1.729-0.768,1.704-2.021C160.994,56.682,160.96,56.383,160.901,56.057z"/>
			<path fill="#FFFFFF" d="M171.8,40.586l0.366,8.406c0.535-1.307,1.831-1.99,3.888-2.051l0.06-0.002
				c2.03-0.039,3.486,0.619,4.369,1.977c0.606,0.926,0.944,3.109,1.011,6.555c0.034,1.693,0,3.697-0.102,6.01l-5.05,0.1
				c0.113-3.082,0.153-5.469,0.12-7.16c-0.017-0.846-0.05-1.523-0.1-2.029c-0.163-1.492-0.752-2.227-1.768-2.207
				s-1.662,0.43-1.94,1.232l0.414,10.824l-4.909,0.127c-0.09-4.58-0.506-11.758-1.246-21.535L171.8,40.586z"/>
			<path fill="#FFFFFF" d="M190.053,46.293c4.542-0.09,6.859,2.215,6.952,6.914c0.004,0.189,0,0.379-0.009,0.568
				c-0.087,5.092-2.454,7.709-7.102,7.85c-0.053,0.012-0.106,0.018-0.16,0.018c-4.421,0.088-6.679-2.273-6.774-7.082l-0.009-0.418
				C182.984,49.002,185.351,46.385,190.053,46.293z M189.458,49.711c-0.837,0.236-1.396,1.059-1.675,2.469
				c-0.171,0.84-0.247,1.684-0.23,2.529c0.011,0.568,0.062,1.139,0.154,1.715c0.241,1.43,0.944,2.158,2.107,2.186l0.14-0.004
				c1.082-0.02,1.813-0.568,2.192-1.641c0.316-0.895,0.462-1.947,0.439-3.162c-0.006-0.299-0.019-0.602-0.038-0.91
				c-0.139-1.602-0.479-2.598-1.021-2.984c-0.339-0.23-0.742-0.344-1.209-0.334C190.051,49.58,189.764,49.625,189.458,49.711z"/>
			<path fill="#FFFFFF" d="M197.925,56.178l4.585-0.256l0.004,0.195c0.03,1.533,0.68,2.297,1.949,2.293l0.08-0.002
				c1.229-0.023,1.834-0.48,1.817-1.367l-0.002-0.104c-0.073-0.975-1.3-1.738-3.683-2.287c-2.383-0.551-3.828-1.529-4.337-2.934
				c-0.184-0.494-0.28-0.971-0.289-1.43c-0.017-0.834,0.255-1.617,0.815-2.346c0.86-1.113,2.183-1.768,3.97-1.961
				c0.48-0.049,0.947-0.08,1.401-0.088c1.189-0.023,2.24,0.111,3.155,0.4c1.251,0.404,2.125,1,2.621,1.787
				c0.332,0.541,0.504,1.145,0.517,1.812c0.006,0.318-0.021,0.648-0.081,0.986l-4.287,0.16c0.035-0.25,0.051-0.479,0.047-0.688
				c-0.02-0.996-0.458-1.52-1.313-1.572c-0.094-0.008-0.188-0.012-0.281-0.01c-0.882,0.018-1.47,0.363-1.764,1.035
				c-0.103,0.23-0.151,0.441-0.147,0.631c0.009,0.469,0.311,0.865,0.905,1.191c0.837,0.463,2.073,0.924,3.706,1.385
				s2.741,1.279,3.326,2.451c0.209,0.443,0.318,0.891,0.327,1.338c0.015,0.758-0.265,1.525-0.837,2.305
				c-0.911,1.242-2.346,1.982-4.306,2.221c-0.427,0.059-0.847,0.092-1.261,0.1c-1.47,0.029-2.838-0.229-4.104-0.771
				C198.841,59.959,197.997,58.467,197.925,56.178z"/>
			<path fill="#FFFFFF" d="M235.897,39.307c-0.028,6.703-0.04,13.926-0.034,21.666l-4.548,0.09l-0.172-8.707l-5.71,0.111
				l0.158,8.006l-5.47,0.094c0.088-3.658,0.098-7.234,0.029-10.73c-0.069-3.484-0.216-6.887-0.442-10.211l5.229-0.104l-0.049,8.713
				l5.714,0.066l-0.183-9.244L235.897,39.307z"/>
			<path fill="#FFFFFF" d="M248.482,60.484l-0.249-2.43c-0.535,1.305-2.032,1.986-4.49,2.045c-0.027,0.01-0.046,0.016-0.06,0.016
				c-2.431,0.049-4.057-0.736-4.877-2.354c-0.556-1.074-0.868-3.314-0.935-6.721c-0.035-1.752-0.002-3.82,0.098-6.203l4.869-0.096
				c-0.202,3.352-0.284,5.928-0.249,7.73c0.018,0.906,0.065,1.613,0.143,2.119c0.23,1.549,0.92,2.312,2.069,2.289
				c1.149-0.021,1.862-0.439,2.14-1.252l-0.405-10.361l4.708-0.123c0.084,4.281,0.39,9.266,0.917,14.953L248.482,60.484z"/>
			<path fill="#FFFFFF" d="M256.749,44.662l0.127,2.389c0.699-1.158,1.52-1.889,2.462-2.186c0.558-0.17,1.124-0.262,1.699-0.273
				c0.427-0.008,0.855,0.023,1.285,0.094c1.045,0.18,1.802,0.961,2.271,2.348c0.326-1.094,0.912-1.83,1.761-2.209
				c0.847-0.381,1.792-0.586,2.834-0.617l0.08-0.002c1.015-0.02,1.994,0.145,2.936,0.496c0.956,0.359,1.695,1.055,2.216,2.086
				c0.522,1.029,0.813,2.451,0.876,4.264l0.171,8.678l-4.326,0.158c0.108-3.277,0.141-6.068,0.095-8.367
				c-0.045-2.301-0.658-3.529-1.836-3.686c-0.174-0.016-0.341-0.023-0.502-0.02c-0.935,0.018-1.647,0.48-2.138,1.387
				c-0.06,1.037-0.075,2.248-0.048,3.633c0.037,1.881,0.153,4.074,0.35,6.58l-5.008,0.129c0.11-3.855,0.149-6.666,0.114-8.428
				l-0.004-0.18c-0.048-1.742-0.527-2.648-1.437-2.721l-0.261,0.006c-0.814,0.016-1.596,0.379-2.343,1.092l0.255,10.932
				l-4.726,0.229l-0.048-2.449c-0.085-4.342-0.258-8.678-0.517-13.006L256.749,44.662z"/>
			<path fill="#FFFFFF" d="M284.116,44.002c4.398,0.094,6.628,1.697,6.689,4.814l0.209,10.604l-4.667,0.152l-0.188-1.414
				c-0.945,0.834-2.213,1.268-3.803,1.299c-0.681,0.014-1.417-0.053-2.208-0.195c-2.373-0.391-3.582-1.73-3.627-4.021
				c-0.005-0.279,0.009-0.58,0.042-0.898c0.221-2.365,2.448-3.59,6.683-3.672c0.814-0.018,1.71,0.01,2.687,0.08l-0.034-1.732
				c-0.027-1.402-0.636-2.094-1.824-2.07l-0.08,0.002c-0.094-0.008-0.181-0.012-0.261-0.01c-1.296,0.025-1.928,0.824-1.897,2.396
				l0.005,0.225l-4.775-0.205c-0.068-3.475,2.141-5.256,6.629-5.346L284.116,44.002z M286.032,55.77l-0.052-2.629
				c-0.576-0.078-1.098-0.113-1.565-0.104c-1.216,0.023-2.038,0.344-2.467,0.959c-0.26,0.375-0.387,0.721-0.38,1.039
				c0.008,0.398,0.228,0.748,0.662,1.049c0.339,0.232,0.775,0.342,1.31,0.332C284.22,56.402,285.051,56.188,286.032,55.77z"/>
			<path fill="#FFFFFF" d="M295.998,43.812l0.249,2.432c0.535-1.307,1.998-1.992,4.389-2.061l0.08-0.002
				c2.351-0.045,3.967,0.611,4.849,1.967c0.606,0.926,0.943,3.109,1.012,6.555c0.033,1.693-0.001,3.697-0.102,6.01l-4.849,0.096
				c0.113-3.082,0.153-5.467,0.12-7.16c-0.017-0.846-0.05-1.523-0.1-2.029c-0.163-1.492-0.819-2.227-1.968-2.203
				c-1.149,0.023-1.862,0.436-2.141,1.236l0.414,10.826l-4.708,0.121c-0.09-4.58-0.399-9.717-0.926-15.416L295.998,43.812z"/>
			<path fill="#FFFFFF" d="M315.121,43.824c4.541-0.09,6.858,2.217,6.951,6.916c0.004,0.189,0.001,0.379-0.009,0.566
				c-0.087,5.094-2.453,7.709-7.101,7.852c-0.054,0.01-0.107,0.016-0.16,0.018c-4.421,0.086-6.68-2.273-6.774-7.082l-0.008-0.42
				C308.051,46.533,310.418,43.916,315.121,43.824z M314.527,47.244c-0.837,0.234-1.396,1.057-1.676,2.467
				c-0.17,0.84-0.247,1.684-0.23,2.529c0.012,0.568,0.062,1.139,0.154,1.717c0.242,1.428,0.944,2.156,2.107,2.184l0.141-0.002
				c1.082-0.021,1.812-0.57,2.192-1.643c0.316-0.895,0.463-1.945,0.438-3.162c-0.006-0.299-0.019-0.602-0.038-0.91
				c-0.138-1.602-0.479-2.596-1.021-2.982c-0.339-0.232-0.742-0.344-1.209-0.336C315.119,47.111,314.833,47.156,314.527,47.244z"/>
			<path fill="#FFFFFF" d="M322.993,53.709l4.585-0.256l0.004,0.195c0.03,1.533,0.68,2.299,1.95,2.293l0.08-0.002
				c1.229-0.023,1.834-0.479,1.817-1.365l-0.002-0.105c-0.073-0.975-1.3-1.736-3.683-2.287c-2.383-0.551-3.829-1.529-4.337-2.934
				c-0.184-0.494-0.28-0.971-0.289-1.43c-0.017-0.834,0.256-1.617,0.816-2.346c0.86-1.113,2.183-1.766,3.97-1.961
				c0.48-0.049,0.947-0.078,1.401-0.088c1.188-0.023,2.24,0.111,3.155,0.402c1.25,0.402,2.125,0.998,2.621,1.785
				c0.332,0.541,0.504,1.146,0.518,1.812c0.006,0.318-0.021,0.648-0.081,0.988l-4.286,0.16c0.035-0.25,0.051-0.48,0.046-0.689
				c-0.02-0.994-0.458-1.52-1.314-1.572c-0.094-0.008-0.188-0.012-0.281-0.01c-0.881,0.018-1.469,0.363-1.763,1.037
				c-0.103,0.229-0.152,0.439-0.148,0.629c0.01,0.469,0.311,0.865,0.906,1.193c0.837,0.461,2.073,0.922,3.705,1.383
				c1.633,0.463,2.742,1.279,3.326,2.451c0.209,0.445,0.318,0.891,0.328,1.34c0.015,0.756-0.264,1.523-0.837,2.303
				c-0.911,1.242-2.346,1.982-4.306,2.221c-0.427,0.059-0.847,0.092-1.261,0.1c-1.469,0.029-2.837-0.229-4.104-0.77
				C323.909,57.492,323.064,56,322.993,53.709z"/>
		</g>
	</g>
	<g>
		<g>
			<path fill="#331842" d="M94.704,96.825l-4.029-9.228c-0.074-0.162-0.113-0.33-0.117-0.502c-0.003-0.15,0.023-0.295,0.077-0.433
				c0.054-0.137,0.13-0.259,0.228-0.365c0.098-0.105,0.213-0.188,0.348-0.249c0.134-0.06,0.28-0.092,0.437-0.095
				c0.221-0.004,0.428,0.056,0.624,0.177c0.194,0.122,0.344,0.304,0.449,0.545l3.144,7.156l2.859-7.297
				c0.082-0.216,0.201-0.393,0.358-0.528s0.382-0.207,0.675-0.213c0.156-0.003,0.303,0.023,0.439,0.077
				c0.136,0.056,0.255,0.134,0.357,0.235c0.102,0.103,0.184,0.222,0.247,0.355c0.063,0.136,0.097,0.279,0.1,0.43
				c0.003,0.157-0.033,0.326-0.107,0.507l-5.851,14.951c-0.088,0.224-0.227,0.408-0.417,0.552s-0.398,0.218-0.626,0.223
				c-0.321,0.006-0.588-0.097-0.803-0.308s-0.325-0.478-0.331-0.801c-0.003-0.172,0.029-0.338,0.097-0.496L94.704,96.825z"/>
			<path fill="#331842" d="M123.667,85.322c1.417-0.028,2.676,0.389,3.776,1.249l-0.106-5.366c-0.006-0.322,0.094-0.592,0.3-0.808
				c0.206-0.215,0.469-0.326,0.789-0.332c0.313-0.006,0.581,0.094,0.803,0.301c0.221,0.207,0.335,0.473,0.342,0.795l0.198,10.065
				c0.033,1.677-0.523,3.108-1.668,4.294c-1.159,1.199-2.558,1.814-4.196,1.847c-1.652,0.032-3.074-0.527-4.265-1.68
				c-1.191-1.153-1.803-2.562-1.836-4.225s0.523-3.095,1.667-4.292C120.616,85.971,122.014,85.354,123.667,85.322z M127.536,91.271
				c-0.011-0.517-0.118-1-0.323-1.451c-0.205-0.451-0.48-0.846-0.825-1.184s-0.748-0.603-1.208-0.793
				c-0.459-0.192-0.949-0.283-1.469-0.273c-0.527,0.011-1.017,0.121-1.468,0.331c-0.452,0.209-0.842,0.488-1.17,0.835
				c-0.328,0.348-0.585,0.752-0.772,1.215c-0.187,0.463-0.275,0.952-0.265,1.469c0.01,0.517,0.118,1.002,0.322,1.456
				c0.205,0.455,0.479,0.85,0.82,1.184s0.742,0.597,1.202,0.789c0.46,0.191,0.954,0.282,1.48,0.271
				c0.52-0.01,1.006-0.12,1.458-0.329c0.452-0.211,0.843-0.491,1.175-0.842c0.332-0.351,0.591-0.756,0.777-1.215
				C127.457,92.274,127.545,91.787,127.536,91.271z"/>
			<path fill="#331842" d="M145.008,93.562c0.32-0.006,0.587,0.094,0.802,0.301c0.214,0.208,0.324,0.474,0.331,0.796
				c0.006,0.315-0.096,0.587-0.305,0.812c-1.085,0.998-2.379,1.511-3.882,1.54c-1.652,0.033-3.074-0.527-4.265-1.68
				c-1.191-1.153-1.803-2.562-1.836-4.225s0.523-3.095,1.667-4.292c1.146-1.2,2.544-1.815,4.196-1.849
				c1.638-0.032,3.06,0.528,4.266,1.682c0.595,0.567,1.046,1.206,1.353,1.914c0.306,0.707,0.467,1.477,0.483,2.309
				c0.006,0.323-0.097,0.593-0.31,0.809c-0.213,0.215-0.476,0.327-0.79,0.333l-8.461,0.167c0.128,0.392,0.313,0.747,0.555,1.069
				s0.523,0.596,0.844,0.823c0.322,0.226,0.674,0.4,1.058,0.521c0.384,0.122,0.782,0.179,1.195,0.17
				c0.47-0.009,0.899-0.089,1.288-0.24c0.389-0.151,0.748-0.373,1.077-0.667C144.486,93.672,144.73,93.574,145.008,93.562z
				 M145.415,89.8c-0.129-0.393-0.316-0.749-0.561-1.071c-0.246-0.321-0.529-0.596-0.851-0.822c-0.321-0.227-0.674-0.4-1.058-0.523
				c-0.383-0.121-0.778-0.178-1.184-0.17c-0.406,0.009-0.8,0.081-1.182,0.217c-0.382,0.138-0.731,0.325-1.047,0.565
				c-0.316,0.238-0.588,0.524-0.816,0.855c-0.229,0.33-0.396,0.694-0.502,1.091L145.415,89.8z"/>
			<path fill="#331842" d="M153.894,95.657l-0.295-14.959c-0.006-0.315,0.094-0.584,0.299-0.809c0.206-0.222,0.469-0.336,0.79-0.343
				c0.32-0.006,0.588,0.098,0.802,0.312c0.215,0.216,0.325,0.48,0.331,0.796l0.273,13.829l0.513-0.011
				c0.306-0.006,0.57,0.099,0.792,0.313c0.222,0.214,0.335,0.479,0.342,0.795c0.006,0.308-0.097,0.573-0.31,0.797
				c-0.213,0.223-0.473,0.337-0.779,0.343l-1.634,0.032c-0.306,0.007-0.568-0.098-0.786-0.312
				C154.012,96.226,153.9,95.965,153.894,95.657z"/>
			<path fill="#331842" d="M178.365,79.08c2.35-0.047,4.378,0.756,6.086,2.407c0.856,0.829,1.504,1.74,1.939,2.732
				c0.437,0.991,0.667,2.089,0.69,3.294c0.047,2.373-0.75,4.418-2.39,6.137c-1.633,1.71-3.629,2.589-5.987,2.636l-3.291,0.064
				c-0.157,0.003-0.305-0.024-0.445-0.083c-0.14-0.058-0.263-0.137-0.368-0.233c-0.105-0.099-0.189-0.218-0.253-0.355
				c-0.063-0.14-0.097-0.288-0.1-0.445l-0.294-14.927c-0.003-0.157,0.024-0.307,0.082-0.447c0.058-0.142,0.137-0.263,0.239-0.365
				c0.101-0.104,0.221-0.186,0.358-0.25c0.138-0.063,0.285-0.097,0.441-0.1L178.365,79.08z M178.659,94.006
				c1.73-0.034,3.196-0.68,4.397-1.938c0.607-0.636,1.057-1.324,1.349-2.065c0.292-0.74,0.429-1.556,0.411-2.444
				c-0.034-1.734-0.68-3.211-1.937-4.427s-2.747-1.807-4.47-1.772l-2.158,0.042l0.249,12.646L178.659,94.006z"/>
			<path fill="#331842" d="M202.253,92.433c0.321-0.007,0.588,0.094,0.803,0.3c0.214,0.208,0.324,0.474,0.331,0.796
				c0.006,0.315-0.095,0.587-0.304,0.813c-1.085,0.997-2.379,1.51-3.882,1.54c-1.652,0.032-3.074-0.528-4.265-1.681
				s-1.803-2.562-1.836-4.225c-0.033-1.663,0.523-3.094,1.668-4.292c1.145-1.2,2.544-1.815,4.196-1.848
				c1.638-0.033,3.06,0.527,4.265,1.681c0.595,0.567,1.046,1.206,1.353,1.915c0.306,0.707,0.467,1.477,0.484,2.309
				c0.006,0.323-0.097,0.592-0.311,0.808c-0.213,0.216-0.476,0.327-0.789,0.333l-8.461,0.167c0.128,0.392,0.314,0.747,0.555,1.07
				c0.242,0.321,0.523,0.595,0.845,0.822c0.321,0.226,0.674,0.4,1.058,0.522c0.384,0.121,0.782,0.178,1.195,0.17
				c0.47-0.01,0.899-0.09,1.288-0.241c0.389-0.15,0.748-0.373,1.077-0.667C201.732,92.542,201.976,92.444,202.253,92.433z
				 M202.661,88.67c-0.129-0.393-0.316-0.749-0.561-1.07c-0.245-0.321-0.528-0.597-0.85-0.822c-0.321-0.228-0.674-0.401-1.058-0.523
				s-0.778-0.179-1.184-0.17c-0.406,0.008-0.8,0.08-1.182,0.217s-0.731,0.324-1.047,0.564c-0.316,0.238-0.588,0.524-0.817,0.855
				c-0.229,0.33-0.396,0.694-0.502,1.091L202.661,88.67z"/>
			<path fill="#331842" d="M213.244,84.674l0.004,0.215c0.526-0.44,1.1-0.781,1.722-1.023c0.622-0.241,1.29-0.37,2.001-0.384
				c0.313-0.007,0.65,0.009,1.011,0.044c0.361,0.036,0.693,0.106,0.999,0.212c0.305,0.105,0.559,0.253,0.762,0.442
				c0.203,0.19,0.308,0.439,0.314,0.747c0.003,0.158-0.025,0.306-0.083,0.443c-0.058,0.137-0.136,0.258-0.233,0.364
				c-0.097,0.105-0.213,0.188-0.347,0.249c-0.134,0.059-0.28,0.091-0.437,0.095c-0.135,0.002-0.293-0.035-0.473-0.109
				c-0.452-0.171-0.942-0.251-1.469-0.24c-0.52,0.01-1.006,0.118-1.458,0.324c-0.452,0.206-0.844,0.482-1.175,0.83
				c-0.332,0.348-0.591,0.753-0.778,1.215c-0.187,0.463-0.275,0.956-0.265,1.479l0.097,4.904c0.006,0.308-0.097,0.574-0.31,0.797
				c-0.213,0.223-0.473,0.338-0.779,0.344c-0.313,0.006-0.581-0.098-0.803-0.312s-0.335-0.476-0.341-0.783l-0.194-9.808
				c-0.006-0.309,0.098-0.575,0.311-0.798s0.477-0.338,0.79-0.344c0.306-0.006,0.57,0.098,0.792,0.312
				S213.237,84.365,213.244,84.674z"/>
			<path fill="#331842" d="M234.937,91.787c0.32-0.006,0.587,0.094,0.802,0.301c0.214,0.208,0.324,0.474,0.331,0.796
				c0.006,0.315-0.096,0.587-0.305,0.812c-1.085,0.997-2.379,1.511-3.882,1.54c-1.652,0.033-3.074-0.527-4.265-1.68
				c-1.191-1.153-1.803-2.562-1.836-4.225s0.523-3.095,1.667-4.292c1.146-1.2,2.544-1.815,4.196-1.849
				c1.638-0.032,3.06,0.528,4.266,1.682c0.595,0.567,1.046,1.206,1.353,1.914c0.306,0.707,0.467,1.477,0.483,2.309
				c0.007,0.323-0.097,0.592-0.31,0.809c-0.213,0.215-0.476,0.327-0.79,0.333l-8.461,0.167c0.128,0.391,0.313,0.747,0.555,1.069
				c0.242,0.321,0.523,0.596,0.844,0.822c0.322,0.227,0.674,0.401,1.058,0.522c0.384,0.121,0.782,0.178,1.195,0.17
				c0.47-0.009,0.899-0.089,1.288-0.24c0.389-0.151,0.748-0.373,1.077-0.667C234.415,91.897,234.659,91.8,234.937,91.787z
				 M235.343,88.024c-0.129-0.392-0.316-0.749-0.561-1.07c-0.246-0.321-0.529-0.596-0.851-0.822c-0.321-0.227-0.674-0.4-1.058-0.523
				c-0.383-0.121-0.778-0.178-1.184-0.17c-0.406,0.008-0.8,0.08-1.182,0.217c-0.382,0.138-0.731,0.325-1.047,0.564
				s-0.588,0.525-0.816,0.855c-0.229,0.331-0.396,0.695-0.502,1.092L235.343,88.024z"/>
			<path fill="#331842" d="M252.987,91.409c0.32-0.006,0.587,0.094,0.802,0.301c0.214,0.208,0.325,0.474,0.331,0.796
				c0.006,0.315-0.105,0.594-0.336,0.835c-1.085,0.997-2.375,1.511-3.871,1.54c-1.652,0.032-3.074-0.527-4.265-1.681
				c-1.191-1.152-1.803-2.561-1.836-4.224s0.523-3.095,1.667-4.293c1.146-1.199,2.544-1.815,4.196-1.848
				c1.503-0.03,2.812,0.433,3.928,1.386c0.261,0.225,0.395,0.505,0.401,0.841c0.006,0.323-0.093,0.594-0.299,0.813
				s-0.469,0.332-0.789,0.339c-0.271,0.005-0.515-0.076-0.732-0.245c-0.369-0.3-0.755-0.526-1.156-0.676
				c-0.402-0.149-0.838-0.221-1.308-0.211c-0.52,0.01-1.006,0.118-1.458,0.324c-0.452,0.207-0.845,0.483-1.18,0.831
				c-0.336,0.347-0.597,0.752-0.783,1.215c-0.187,0.463-0.275,0.956-0.265,1.479c0.01,0.523,0.118,1.013,0.323,1.467
				c0.205,0.455,0.481,0.849,0.831,1.184c0.348,0.334,0.752,0.595,1.212,0.782c0.46,0.188,0.95,0.277,1.47,0.268
				c0.47-0.01,0.903-0.095,1.299-0.258c0.396-0.162,0.769-0.399,1.119-0.715C252.482,91.506,252.716,91.422,252.987,91.409z"/>
			<path fill="#331842" d="M262.493,93.503c0.006,0.315-0.097,0.584-0.31,0.808c-0.213,0.223-0.477,0.337-0.79,0.344
				c-0.306,0.006-0.57-0.099-0.791-0.312c-0.222-0.215-0.336-0.479-0.342-0.795l-0.295-14.948c-0.007-0.315,0.097-0.584,0.31-0.808
				c0.213-0.223,0.473-0.337,0.779-0.343s0.57,0.098,0.792,0.312c0.222,0.216,0.339,0.479,0.353,0.795l0.102,5.162
				c0.933-0.757,2.041-1.149,3.322-1.174c0.748-0.016,1.461,0.118,2.14,0.399c0.679,0.28,1.28,0.668,1.802,1.164
				c0.523,0.494,0.94,1.081,1.253,1.76c0.312,0.68,0.477,1.406,0.492,2.181l0.104,5.28c-0.001,0.315-0.108,0.584-0.321,0.808
				c-0.213,0.223-0.473,0.337-0.779,0.344c-0.307,0.006-0.57-0.099-0.792-0.313c-0.222-0.214-0.335-0.479-0.341-0.794l-0.104-5.28
				c-0.009-0.459-0.107-0.892-0.293-1.297c-0.187-0.405-0.434-0.757-0.742-1.056c-0.309-0.299-0.668-0.534-1.077-0.705
				c-0.41-0.171-0.843-0.253-1.298-0.243c-0.463,0.009-0.894,0.105-1.292,0.289c-0.399,0.184-0.749,0.433-1.049,0.747
				c-0.3,0.313-0.534,0.677-0.7,1.09c-0.167,0.411-0.245,0.848-0.236,1.307L262.493,93.503z"/>
			<path fill="#331842" d="M289.335,88.078c0.033,1.677-0.523,3.108-1.668,4.293c-1.159,1.199-2.558,1.815-4.196,1.848
				c-1.652,0.032-3.074-0.527-4.265-1.681c-1.191-1.152-1.803-2.561-1.836-4.224s0.523-3.095,1.667-4.293
				c1.145-1.199,2.544-1.815,4.196-1.848c1.638-0.032,3.06,0.527,4.266,1.681c0.595,0.575,1.044,1.216,1.347,1.92
				C289.149,86.479,289.312,87.246,289.335,88.078z M283.278,84.421c-0.527,0.01-1.017,0.12-1.468,0.33
				c-0.452,0.21-0.842,0.489-1.17,0.835c-0.328,0.348-0.585,0.753-0.772,1.216c-0.187,0.462-0.275,0.951-0.265,1.468
				c0.01,0.517,0.118,1.002,0.322,1.457c0.205,0.455,0.478,0.849,0.82,1.183c0.341,0.335,0.742,0.598,1.202,0.789
				c0.46,0.191,0.953,0.282,1.48,0.272c0.52-0.011,1.006-0.121,1.458-0.33c0.452-0.21,0.843-0.49,1.175-0.841
				c0.332-0.352,0.59-0.756,0.777-1.215s0.275-0.946,0.266-1.463c-0.011-0.517-0.118-1-0.323-1.451s-0.479-0.847-0.825-1.184
				c-0.345-0.338-0.748-0.603-1.208-0.794C284.288,84.501,283.798,84.41,283.278,84.421z"/>
			<path fill="#331842" d="M4.917,122.013c0.006,0.315-0.099,0.587-0.315,0.813s-0.481,0.343-0.795,0.349
				c-0.313,0.007-0.583-0.1-0.808-0.317s-0.341-0.484-0.347-0.8l-0.295-14.927c-0.006-0.315,0.099-0.586,0.315-0.813
				c0.216-0.227,0.481-0.342,0.794-0.349c0.313-0.006,0.583,0.1,0.808,0.317c0.225,0.219,0.341,0.484,0.347,0.8L4.917,122.013z"/>
			<path fill="#331842" d="M13.479,112.043c0.933-0.757,2.041-1.148,3.322-1.174c0.748-0.015,1.461,0.118,2.14,0.399
				c0.679,0.28,1.28,0.668,1.802,1.164c0.523,0.496,0.94,1.082,1.253,1.761c0.312,0.68,0.477,1.405,0.492,2.18l0.104,5.302
				c0.006,0.315-0.097,0.584-0.31,0.808c-0.213,0.223-0.473,0.337-0.779,0.344c-0.313,0.006-0.581-0.099-0.802-0.312
				c-0.222-0.215-0.336-0.479-0.342-0.795l-0.104-5.302c-0.009-0.459-0.107-0.892-0.293-1.295c-0.187-0.406-0.434-0.758-0.742-1.057
				c-0.309-0.299-0.668-0.533-1.077-0.704c-0.41-0.172-0.843-0.253-1.298-0.244c-0.463,0.009-0.894,0.105-1.292,0.289
				c-0.399,0.184-0.749,0.433-1.049,0.748c-0.3,0.313-0.534,0.677-0.7,1.089c-0.167,0.411-0.245,0.847-0.236,1.306l0.105,5.302
				c0.006,0.315-0.097,0.585-0.31,0.808s-0.473,0.338-0.779,0.344c-0.313,0.006-0.581-0.098-0.802-0.312s-0.335-0.479-0.342-0.794
				l-0.193-9.786c-0.006-0.309,0.097-0.577,0.31-0.803c0.213-0.227,0.476-0.344,0.789-0.35c0.307-0.006,0.57,0.1,0.792,0.318
				C13.36,111.493,13.473,111.749,13.479,112.043z"/>
			<path fill="#331842" d="M29.479,110.619l0.502-0.01l-0.08-4.043c-0.006-0.309,0.097-0.574,0.31-0.798
				c0.212-0.222,0.476-0.337,0.79-0.343c0.306-0.006,0.57,0.098,0.792,0.312c0.222,0.216,0.335,0.476,0.341,0.784l0.08,4.043
				l1.335-0.026c0.306-0.006,0.568,0.099,0.786,0.313c0.218,0.214,0.33,0.476,0.336,0.784c0.006,0.315-0.096,0.584-0.305,0.808
				c-0.21,0.223-0.468,0.337-0.773,0.343l-1.336,0.026l0.107,5.409c0.028,1.428,0.754,2.126,2.179,2.098
				c0.306-0.006,0.568,0.099,0.786,0.313c0.218,0.214,0.33,0.476,0.336,0.784c0.006,0.315-0.095,0.584-0.305,0.808
				c-0.209,0.223-0.467,0.337-0.773,0.343c-2.913,0.058-4.398-1.376-4.456-4.301l-0.106-5.409l-0.502,0.01
				c-0.3,0.006-0.56-0.099-0.781-0.313c-0.222-0.214-0.335-0.479-0.342-0.794c-0.006-0.309,0.098-0.574,0.31-0.798
				C28.923,110.739,29.179,110.625,29.479,110.619z"/>
			<path fill="#331842" d="M50.627,118.863c0.32-0.007,0.588,0.094,0.802,0.301c0.214,0.208,0.325,0.473,0.331,0.794
				c0.006,0.315-0.096,0.588-0.305,0.813c-1.085,0.997-2.379,1.511-3.881,1.54c-1.652,0.032-3.074-0.527-4.265-1.681
				c-1.191-1.151-1.804-2.56-1.836-4.224c-0.033-1.662,0.523-3.094,1.668-4.293s2.543-1.815,4.196-1.848
				c1.639-0.032,3.06,0.527,4.266,1.681c0.595,0.569,1.046,1.208,1.353,1.916c0.306,0.706,0.467,1.476,0.483,2.308
				c0.006,0.323-0.097,0.592-0.31,0.809c-0.213,0.215-0.477,0.326-0.79,0.333l-8.461,0.167c0.129,0.392,0.314,0.748,0.555,1.07
				c0.242,0.321,0.523,0.596,0.845,0.822c0.321,0.227,0.674,0.401,1.058,0.521c0.383,0.121,0.782,0.178,1.195,0.17
				c0.47-0.01,0.899-0.089,1.289-0.24c0.389-0.15,0.748-0.373,1.077-0.666C50.105,118.973,50.349,118.875,50.627,118.863z
				 M51.034,115.1c-0.129-0.392-0.316-0.748-0.561-1.069c-0.245-0.321-0.528-0.597-0.85-0.822c-0.322-0.228-0.674-0.401-1.058-0.523
				c-0.384-0.121-0.779-0.178-1.185-0.17s-0.8,0.08-1.182,0.217c-0.382,0.138-0.731,0.325-1.047,0.564
				c-0.315,0.239-0.588,0.524-0.816,0.855s-0.396,0.693-0.502,1.091L51.034,115.1z"/>
			<path fill="#331842" d="M61.617,111.104l0.004,0.215c0.526-0.441,1.1-0.782,1.722-1.023c0.622-0.242,1.289-0.371,2.001-0.385
				c0.313-0.006,0.65,0.009,1.011,0.045c0.36,0.035,0.693,0.106,0.998,0.211c0.305,0.105,0.559,0.253,0.762,0.442
				c0.203,0.19,0.308,0.439,0.314,0.747c0.003,0.158-0.024,0.306-0.082,0.443c-0.059,0.137-0.136,0.259-0.233,0.365
				c-0.098,0.105-0.214,0.188-0.348,0.249c-0.135,0.06-0.28,0.092-0.437,0.095c-0.136,0.003-0.293-0.034-0.473-0.109
				c-0.452-0.171-0.942-0.251-1.469-0.24c-0.521,0.01-1.006,0.118-1.458,0.325c-0.452,0.206-0.844,0.482-1.175,0.83
				c-0.332,0.347-0.591,0.752-0.778,1.214c-0.187,0.463-0.274,0.956-0.265,1.479l0.097,4.904c0.006,0.308-0.097,0.573-0.31,0.796
				c-0.214,0.224-0.473,0.338-0.779,0.344c-0.313,0.007-0.581-0.098-0.802-0.312c-0.221-0.214-0.335-0.476-0.341-0.783l-0.193-9.808
				c-0.006-0.309,0.097-0.574,0.31-0.798c0.213-0.223,0.477-0.337,0.79-0.344c0.306-0.006,0.569,0.099,0.792,0.312
				C61.497,110.534,61.611,110.796,61.617,111.104z"/>
			<path fill="#331842" d="M76.281,110.804c0.933-0.757,2.04-1.148,3.322-1.174c0.748-0.015,1.461,0.118,2.14,0.399
				c0.679,0.28,1.279,0.668,1.803,1.164c0.522,0.495,0.94,1.082,1.253,1.761c0.312,0.68,0.477,1.405,0.492,2.18l0.104,5.302
				c0.006,0.315-0.097,0.584-0.31,0.808c-0.213,0.223-0.473,0.337-0.779,0.344c-0.313,0.006-0.581-0.099-0.803-0.312
				c-0.222-0.215-0.335-0.479-0.341-0.795l-0.105-5.302c-0.009-0.459-0.106-0.892-0.293-1.295c-0.186-0.406-0.433-0.758-0.742-1.057
				c-0.309-0.299-0.668-0.533-1.078-0.704c-0.409-0.172-0.842-0.253-1.298-0.244c-0.463,0.009-0.894,0.105-1.292,0.289
				s-0.749,0.433-1.049,0.748c-0.3,0.313-0.534,0.677-0.7,1.089c-0.167,0.411-0.245,0.847-0.236,1.306l0.104,5.302
				c0.006,0.315-0.097,0.585-0.31,0.808c-0.213,0.223-0.473,0.338-0.779,0.344c-0.313,0.006-0.581-0.098-0.802-0.312
				c-0.222-0.215-0.336-0.479-0.342-0.794l-0.193-9.786c-0.006-0.309,0.097-0.577,0.311-0.803c0.212-0.227,0.476-0.344,0.789-0.35
				c0.306-0.006,0.57,0.1,0.792,0.318C76.161,110.254,76.275,110.51,76.281,110.804z"/>
			<path fill="#331842" d="M101.181,120.135l-0.005-0.216c-0.525,0.441-1.1,0.783-1.722,1.024c-0.622,0.242-1.289,0.37-2.002,0.384
				c-1.652,0.032-3.074-0.527-4.265-1.681c-1.191-1.151-1.803-2.56-1.836-4.224c-0.032-1.662,0.523-3.094,1.668-4.293
				c1.146-1.199,2.544-1.815,4.196-1.848c1.638-0.032,3.06,0.527,4.266,1.681c1.191,1.153,1.803,2.562,1.836,4.224l0.097,4.904
				c0.006,0.308-0.097,0.573-0.31,0.797c-0.213,0.223-0.473,0.337-0.779,0.344c-0.313,0.006-0.581-0.099-0.802-0.312
				C101.3,120.704,101.187,120.442,101.181,120.135z M97.259,111.53c-0.526,0.011-1.017,0.121-1.468,0.331
				c-0.452,0.209-0.842,0.488-1.17,0.835s-0.585,0.752-0.772,1.214c-0.187,0.463-0.275,0.952-0.265,1.469
				c0.01,0.517,0.118,1.002,0.322,1.457c0.205,0.455,0.478,0.849,0.82,1.184c0.341,0.334,0.742,0.597,1.202,0.789
				c0.46,0.19,0.954,0.281,1.48,0.271c0.52-0.011,1.006-0.12,1.458-0.329c0.452-0.21,0.843-0.49,1.175-0.841
				c0.331-0.352,0.591-0.756,0.777-1.215c0.187-0.46,0.275-0.947,0.265-1.464s-0.118-1-0.323-1.451
				c-0.205-0.45-0.479-0.846-0.825-1.183c-0.345-0.338-0.748-0.603-1.208-0.794S97.78,111.52,97.259,111.53z"/>
			<path fill="#331842" d="M118.556,117.501c0.32-0.006,0.587,0.094,0.802,0.301c0.214,0.208,0.325,0.474,0.331,0.795
				c0.006,0.315-0.105,0.594-0.336,0.835c-1.085,0.997-2.375,1.51-3.871,1.54c-1.652,0.032-3.074-0.527-4.265-1.681
				c-1.191-1.151-1.803-2.56-1.836-4.224c-0.032-1.662,0.523-3.094,1.668-4.293c1.145-1.199,2.544-1.815,4.196-1.848
				c1.503-0.03,2.812,0.433,3.928,1.386c0.261,0.225,0.395,0.505,0.401,0.842c0.006,0.323-0.093,0.594-0.299,0.812
				c-0.206,0.221-0.469,0.333-0.789,0.34c-0.271,0.005-0.515-0.076-0.732-0.245c-0.369-0.3-0.755-0.526-1.157-0.676
				c-0.402-0.15-0.838-0.221-1.308-0.211c-0.52,0.01-1.006,0.118-1.458,0.324s-0.845,0.482-1.181,0.83s-0.596,0.753-0.783,1.215
				c-0.188,0.463-0.275,0.956-0.265,1.479c0.01,0.523,0.117,1.013,0.322,1.468s0.482,0.849,0.831,1.183s0.753,0.595,1.212,0.783
				c0.459,0.188,0.95,0.276,1.47,0.267c0.47-0.01,0.902-0.096,1.299-0.258c0.396-0.161,0.769-0.398,1.119-0.715
				C118.052,117.597,118.285,117.514,118.556,117.501z"/>
			<path fill="#331842" d="M128.606,106.523c0.007,0.365-0.115,0.679-0.366,0.943c-0.251,0.263-0.559,0.397-0.922,0.404
				c-0.363,0.008-0.676-0.115-0.938-0.368c-0.261-0.254-0.396-0.562-0.402-0.928c-0.008-0.366,0.114-0.681,0.365-0.944
				c0.252-0.263,0.559-0.397,0.922-0.405c0.363-0.007,0.675,0.116,0.937,0.369S128.599,106.157,128.606,106.523z M126.438,119.626
				l-0.193-9.786c-0.006-0.315,0.097-0.585,0.31-0.809c0.213-0.223,0.473-0.337,0.779-0.344c0.306-0.006,0.57,0.099,0.792,0.312
				c0.222,0.215,0.339,0.48,0.353,0.796l0.193,9.786c-0.001,0.315-0.108,0.584-0.321,0.807c-0.213,0.224-0.473,0.338-0.778,0.344
				c-0.307,0.007-0.57-0.098-0.792-0.312C126.558,120.206,126.444,119.941,126.438,119.626z"/>
			<path fill="#331842" d="M147.212,114.32c0.033,1.678-0.522,3.109-1.667,4.293c-1.159,1.199-2.558,1.815-4.196,1.848
				c-1.652,0.032-3.074-0.527-4.266-1.681c-1.191-1.151-1.803-2.56-1.836-4.224c-0.033-1.662,0.523-3.094,1.668-4.293
				c1.145-1.199,2.543-1.815,4.196-1.848c1.638-0.032,3.06,0.527,4.265,1.681c0.596,0.577,1.045,1.217,1.348,1.921
				C147.026,112.721,147.189,113.488,147.212,114.32z M141.156,110.664c-0.527,0.011-1.017,0.121-1.469,0.331
				c-0.452,0.209-0.842,0.488-1.17,0.835s-0.585,0.752-0.772,1.214c-0.187,0.463-0.275,0.952-0.265,1.469
				c0.011,0.517,0.118,1.002,0.323,1.457s0.478,0.849,0.819,1.184c0.341,0.334,0.742,0.597,1.202,0.789
				c0.459,0.19,0.953,0.281,1.48,0.271c0.52-0.011,1.005-0.12,1.458-0.329c0.452-0.21,0.844-0.49,1.175-0.841
				c0.332-0.352,0.591-0.756,0.778-1.215c0.187-0.46,0.275-0.947,0.265-1.464c-0.01-0.517-0.118-1-0.322-1.451
				c-0.205-0.45-0.48-0.846-0.825-1.183c-0.345-0.338-0.748-0.603-1.207-0.794C142.166,110.745,141.675,110.653,141.156,110.664z"/>
			<path fill="#331842" d="M155.423,109.242c0.932-0.757,2.04-1.148,3.322-1.174c0.748-0.016,1.461,0.118,2.14,0.399
				c0.679,0.28,1.279,0.668,1.802,1.164c0.523,0.495,0.94,1.082,1.253,1.761c0.312,0.68,0.477,1.405,0.492,2.18l0.105,5.302
				c0.006,0.315-0.098,0.584-0.311,0.807c-0.213,0.224-0.473,0.338-0.778,0.344c-0.313,0.007-0.581-0.098-0.803-0.312
				c-0.222-0.214-0.335-0.479-0.341-0.794l-0.105-5.302c-0.009-0.459-0.106-0.892-0.293-1.296c-0.186-0.405-0.434-0.757-0.742-1.056
				s-0.667-0.534-1.077-0.705c-0.409-0.171-0.842-0.253-1.298-0.243c-0.463,0.009-0.894,0.105-1.293,0.289
				c-0.398,0.184-0.749,0.433-1.049,0.747c-0.3,0.313-0.533,0.677-0.7,1.09c-0.167,0.41-0.245,0.847-0.236,1.306l0.104,5.302
				c0.006,0.315-0.097,0.584-0.31,0.808c-0.213,0.223-0.473,0.337-0.779,0.344c-0.313,0.006-0.581-0.099-0.802-0.312
				c-0.222-0.215-0.335-0.479-0.341-0.795l-0.193-9.786c-0.006-0.309,0.097-0.576,0.31-0.802c0.212-0.228,0.476-0.344,0.79-0.35
				c0.306-0.007,0.57,0.1,0.792,0.318C155.304,108.691,155.417,108.948,155.423,109.242z"/>
			<path fill="#331842" d="M180.324,118.573l-0.005-0.216c-0.525,0.441-1.1,0.782-1.722,1.024s-1.29,0.369-2.002,0.384
				c-1.652,0.032-3.074-0.527-4.265-1.681c-1.191-1.151-1.803-2.56-1.836-4.224c-0.033-1.662,0.523-3.094,1.668-4.293
				c1.145-1.199,2.544-1.815,4.196-1.848c1.638-0.032,3.06,0.527,4.265,1.681c1.191,1.153,1.803,2.562,1.836,4.224l0.097,4.904
				c0.006,0.308-0.098,0.573-0.311,0.796c-0.213,0.224-0.473,0.338-0.778,0.344c-0.313,0.007-0.581-0.098-0.803-0.312
				C180.443,119.143,180.33,118.881,180.324,118.573z M176.402,109.969c-0.527,0.01-1.017,0.12-1.468,0.33
				c-0.452,0.21-0.842,0.489-1.17,0.835c-0.328,0.348-0.586,0.753-0.772,1.215c-0.187,0.462-0.275,0.951-0.265,1.468
				s0.118,1.002,0.323,1.458c0.205,0.455,0.478,0.849,0.82,1.183c0.341,0.335,0.742,0.598,1.202,0.789
				c0.459,0.19,0.953,0.281,1.48,0.271c0.52-0.011,1.006-0.121,1.457-0.329c0.452-0.21,0.844-0.49,1.175-0.841
				c0.332-0.352,0.591-0.756,0.778-1.215c0.187-0.46,0.275-0.947,0.265-1.464s-0.118-1-0.323-1.451
				c-0.205-0.45-0.48-0.846-0.825-1.183c-0.345-0.338-0.747-0.603-1.207-0.794C177.412,110.049,176.922,109.958,176.402,109.969z"/>
			<path fill="#331842" d="M188.535,118.411l-0.295-14.959c-0.007-0.315,0.093-0.584,0.299-0.808
				c0.206-0.223,0.469-0.337,0.79-0.343c0.321-0.007,0.588,0.098,0.802,0.311c0.215,0.216,0.325,0.48,0.331,0.796l0.273,13.829
				l0.513-0.01c0.306-0.006,0.57,0.098,0.792,0.312c0.222,0.214,0.336,0.479,0.342,0.795c0.006,0.308-0.097,0.573-0.31,0.797
				c-0.213,0.223-0.473,0.338-0.779,0.344l-1.635,0.032c-0.306,0.006-0.568-0.099-0.786-0.312
				C188.653,118.98,188.541,118.719,188.535,118.411z"/>
			<path fill="#331842" d="M221.035,117.748c0.006,0.315-0.099,0.586-0.315,0.813c-0.216,0.226-0.481,0.343-0.794,0.349
				s-0.583-0.1-0.808-0.317s-0.34-0.484-0.347-0.8l-0.125-6.324l-7.617,0.15l0.125,6.324c0.007,0.315-0.099,0.586-0.315,0.813
				c-0.216,0.226-0.481,0.342-0.794,0.349c-0.314,0.006-0.583-0.1-0.809-0.317c-0.225-0.219-0.341-0.484-0.347-0.8l-0.295-14.927
				c-0.006-0.315,0.099-0.587,0.315-0.813c0.216-0.227,0.481-0.343,0.795-0.349c0.313-0.007,0.582,0.099,0.808,0.317
				c0.225,0.218,0.341,0.484,0.347,0.8l0.125,6.323l7.617-0.15l-0.125-6.323c-0.006-0.315,0.099-0.586,0.315-0.813
				c0.217-0.227,0.481-0.343,0.795-0.349s0.583,0.099,0.808,0.317c0.226,0.218,0.341,0.484,0.348,0.8L221.035,117.748z"/>
			<path fill="#331842" d="M237.025,118.573c-0.32,0.006-0.586-0.097-0.797-0.307c-0.211-0.212-0.323-0.472-0.336-0.779
				c-0.483,0.396-0.998,0.688-1.543,0.875c-0.545,0.187-1.138,0.286-1.779,0.299c-0.762,0.015-1.484-0.119-2.167-0.404
				c-0.683-0.284-1.282-0.676-1.797-1.175s-0.928-1.086-1.237-1.761c-0.309-0.676-0.471-1.397-0.486-2.164l-0.104-5.312
				c-0.006-0.309,0.097-0.574,0.311-0.797c0.212-0.224,0.476-0.338,0.789-0.344c0.306-0.007,0.57,0.098,0.792,0.312
				c0.222,0.214,0.335,0.476,0.341,0.784l0.105,5.312c0.009,0.466,0.104,0.901,0.287,1.307s0.428,0.758,0.737,1.056
				c0.309,0.299,0.667,0.532,1.077,0.7c0.409,0.167,0.845,0.246,1.309,0.237c0.456-0.01,0.885-0.105,1.287-0.289
				c0.403-0.184,0.754-0.432,1.054-0.746s0.534-0.676,0.7-1.085c0.167-0.408,0.245-0.846,0.236-1.312l-0.104-5.312
				c-0.006-0.309,0.097-0.574,0.31-0.798c0.213-0.223,0.477-0.337,0.79-0.344c0.306-0.006,0.57,0.099,0.792,0.312
				c0.222,0.215,0.335,0.477,0.341,0.785l0.194,9.808c0.006,0.308-0.097,0.573-0.31,0.796
				C237.602,118.452,237.338,118.566,237.025,118.573z"/>
			<path fill="#331842" d="M261.068,116.969c0.006,0.315-0.097,0.584-0.31,0.808c-0.213,0.223-0.473,0.338-0.779,0.344
				c-0.313,0.006-0.579-0.099-0.797-0.312c-0.218-0.215-0.33-0.479-0.336-0.795l-0.121-6.119c-0.006-0.345-0.079-0.668-0.217-0.975
				c-0.138-0.305-0.323-0.573-0.556-0.801c-0.232-0.229-0.505-0.408-0.817-0.539c-0.312-0.129-0.647-0.191-1.003-0.184
				c-0.349,0.007-0.675,0.081-0.979,0.223c-0.304,0.144-0.569,0.331-0.796,0.565c-0.227,0.233-0.403,0.507-0.529,0.817
				s-0.185,0.642-0.178,0.993l0.121,6.119c0.006,0.315-0.097,0.584-0.31,0.807c-0.213,0.224-0.473,0.338-0.779,0.344
				c-0.313,0.007-0.581-0.098-0.802-0.312c-0.222-0.214-0.336-0.479-0.342-0.794l-0.121-6.119c-0.007-0.352-0.081-0.68-0.222-0.985
				c-0.142-0.305-0.328-0.571-0.561-0.796c-0.233-0.225-0.503-0.402-0.812-0.533c-0.309-0.13-0.638-0.191-0.987-0.185
				s-0.675,0.08-0.979,0.219s-0.569,0.326-0.796,0.564c-0.227,0.237-0.403,0.513-0.529,0.822c-0.125,0.312-0.185,0.642-0.178,0.993
				l0.121,6.119c0.006,0.315-0.097,0.584-0.31,0.808c-0.213,0.223-0.473,0.337-0.778,0.344c-0.314,0.006-0.581-0.099-0.803-0.312
				c-0.222-0.215-0.335-0.479-0.342-0.795l-0.193-9.797c-0.006-0.309,0.098-0.574,0.311-0.797c0.213-0.224,0.473-0.338,0.779-0.344
				c0.25-0.005,0.471,0.061,0.667,0.196c0.195,0.137,0.33,0.318,0.406,0.546c0.752-0.523,1.612-0.795,2.581-0.814
				c0.712-0.014,1.384,0.114,2.017,0.385c0.632,0.271,1.189,0.689,1.671,1.254c0.967-1.16,2.17-1.754,3.609-1.782
				c0.647-0.014,1.265,0.103,1.85,0.345c0.586,0.244,1.099,0.577,1.538,1.004c0.439,0.425,0.791,0.927,1.056,1.507
				c0.265,0.579,0.403,1.194,0.416,1.847L261.068,116.969z"/>
			<path fill="#331842" d="M277.089,116.664l-0.004-0.216c-0.526,0.44-1.1,0.782-1.722,1.024c-0.623,0.241-1.29,0.369-2.002,0.383
				c-1.652,0.033-3.074-0.527-4.265-1.68s-1.804-2.561-1.836-4.225c-0.033-1.662,0.523-3.094,1.668-4.292
				c1.145-1.2,2.543-1.815,4.195-1.849c1.639-0.032,3.06,0.528,4.266,1.682c1.191,1.152,1.804,2.561,1.836,4.223l0.097,4.904
				c0.006,0.308-0.097,0.574-0.31,0.797c-0.213,0.223-0.473,0.338-0.779,0.344c-0.313,0.006-0.581-0.098-0.802-0.312
				C277.209,117.232,277.095,116.972,277.089,116.664z M273.168,108.059c-0.527,0.011-1.017,0.121-1.468,0.331
				c-0.452,0.209-0.842,0.488-1.17,0.835c-0.328,0.348-0.585,0.752-0.772,1.214c-0.187,0.463-0.274,0.952-0.265,1.469
				c0.01,0.517,0.118,1.002,0.323,1.457s0.478,0.85,0.819,1.184s0.743,0.597,1.202,0.789c0.46,0.19,0.954,0.281,1.48,0.271
				c0.52-0.01,1.006-0.12,1.458-0.328c0.452-0.21,0.843-0.49,1.175-0.841c0.332-0.352,0.591-0.757,0.778-1.216
				c0.187-0.459,0.275-0.946,0.265-1.463c-0.01-0.517-0.118-1-0.322-1.452c-0.205-0.45-0.48-0.845-0.825-1.182
				c-0.346-0.339-0.748-0.603-1.208-0.794C274.178,108.14,273.688,108.049,273.168,108.059z"/>
			<path fill="#331842" d="M287.436,106.638c0.932-0.758,2.04-1.149,3.322-1.175c0.748-0.015,1.461,0.119,2.14,0.399
				s1.279,0.668,1.802,1.164s0.941,1.082,1.253,1.761c0.312,0.68,0.477,1.405,0.492,2.18l0.105,5.302
				c0.006,0.315-0.098,0.584-0.311,0.808c-0.213,0.223-0.473,0.338-0.778,0.344c-0.313,0.006-0.581-0.099-0.803-0.312
				c-0.222-0.215-0.335-0.479-0.341-0.795l-0.105-5.302c-0.009-0.459-0.106-0.892-0.293-1.295c-0.186-0.406-0.434-0.758-0.742-1.057
				c-0.309-0.299-0.668-0.533-1.078-0.704c-0.409-0.172-0.842-0.253-1.298-0.244c-0.463,0.009-0.894,0.105-1.292,0.289
				c-0.399,0.184-0.749,0.433-1.049,0.748c-0.3,0.313-0.533,0.677-0.7,1.089c-0.167,0.411-0.245,0.848-0.236,1.307l0.104,5.302
				c0.006,0.315-0.097,0.584-0.31,0.807c-0.213,0.224-0.473,0.338-0.779,0.344c-0.313,0.006-0.581-0.098-0.802-0.312
				c-0.222-0.215-0.336-0.479-0.342-0.794l-0.193-9.786c-0.006-0.309,0.097-0.577,0.311-0.803c0.212-0.227,0.476-0.344,0.789-0.35
				c0.306-0.006,0.57,0.101,0.792,0.318C287.316,106.087,287.43,106.344,287.436,106.638z"/>
			<path fill="#331842" d="M305.369,103.035c0.007,0.365-0.115,0.679-0.367,0.943c-0.251,0.263-0.558,0.397-0.921,0.404
				c-0.363,0.008-0.675-0.115-0.937-0.368c-0.262-0.254-0.396-0.562-0.403-0.928c-0.007-0.366,0.115-0.681,0.366-0.944
				c0.251-0.263,0.559-0.397,0.922-0.405c0.363-0.007,0.676,0.116,0.937,0.369S305.362,102.669,305.369,103.035z M303.202,116.138
				l-0.193-9.786c-0.006-0.315,0.097-0.585,0.31-0.809c0.213-0.223,0.472-0.337,0.779-0.344c0.306-0.006,0.57,0.099,0.792,0.313
				c0.221,0.214,0.338,0.479,0.352,0.795l0.193,9.786c-0.001,0.315-0.107,0.584-0.32,0.808c-0.213,0.223-0.473,0.337-0.779,0.343
				c-0.306,0.007-0.57-0.098-0.791-0.312C303.322,116.718,303.208,116.453,303.202,116.138z"/>
			<path fill="#331842" d="M312.939,105.025l0.502-0.01l-0.08-4.043c-0.006-0.309,0.097-0.574,0.31-0.798
				c0.213-0.222,0.476-0.337,0.789-0.343c0.307-0.006,0.57,0.098,0.792,0.312c0.222,0.216,0.335,0.476,0.342,0.784l0.08,4.043
				l1.335-0.025c0.306-0.007,0.568,0.098,0.786,0.312c0.218,0.214,0.33,0.476,0.336,0.784c0.006,0.315-0.095,0.584-0.305,0.808
				c-0.209,0.223-0.467,0.337-0.773,0.344l-1.335,0.025l0.106,5.409c0.028,1.428,0.754,2.126,2.179,2.098
				c0.306-0.006,0.568,0.099,0.787,0.313c0.218,0.214,0.33,0.476,0.336,0.784c0.006,0.315-0.096,0.584-0.305,0.808
				c-0.21,0.223-0.468,0.337-0.773,0.343c-2.913,0.058-4.398-1.376-4.456-4.301l-0.107-5.409l-0.502,0.01
				c-0.299,0.006-0.56-0.099-0.781-0.313c-0.222-0.214-0.335-0.479-0.341-0.794c-0.006-0.309,0.097-0.574,0.31-0.798
				C312.383,105.146,312.64,105.031,312.939,105.025z"/>
			<path fill="#331842" d="M334.763,115.525l-0.004-0.216c-0.525,0.441-1.1,0.783-1.722,1.024c-0.622,0.242-1.29,0.369-2.002,0.384
				c-1.652,0.032-3.074-0.527-4.265-1.681c-1.191-1.151-1.803-2.56-1.836-4.224c-0.033-1.662,0.523-3.094,1.668-4.293
				c1.145-1.199,2.544-1.815,4.196-1.848c1.638-0.032,3.06,0.527,4.265,1.681c1.191,1.153,1.803,2.562,1.836,4.224l0.097,4.904
				c0.006,0.308-0.098,0.573-0.311,0.797c-0.213,0.223-0.473,0.337-0.778,0.343c-0.313,0.007-0.581-0.098-0.803-0.312
				C334.882,116.095,334.769,115.833,334.763,115.525z M330.841,106.921c-0.527,0.011-1.017,0.12-1.468,0.331
				c-0.452,0.209-0.842,0.488-1.17,0.835c-0.328,0.347-0.585,0.752-0.772,1.214c-0.187,0.463-0.275,0.952-0.265,1.469
				s0.118,1.002,0.323,1.457s0.478,0.849,0.819,1.184c0.342,0.334,0.742,0.597,1.202,0.789c0.459,0.189,0.953,0.281,1.48,0.271
				c0.52-0.011,1.006-0.12,1.458-0.329c0.452-0.21,0.844-0.49,1.175-0.841c0.332-0.352,0.591-0.756,0.778-1.215
				c0.187-0.46,0.275-0.947,0.265-1.464c-0.01-0.517-0.117-1-0.322-1.451c-0.205-0.45-0.48-0.846-0.825-1.183
				c-0.345-0.338-0.747-0.603-1.207-0.794S331.361,106.91,330.841,106.921z"/>
			<path fill="#331842" d="M345.078,105.511l0.004,0.215c0.526-0.441,1.1-0.782,1.722-1.023c0.622-0.242,1.29-0.371,2.002-0.385
				c0.313-0.006,0.65,0.009,1.011,0.045c0.36,0.035,0.693,0.106,0.999,0.212c0.305,0.104,0.559,0.252,0.762,0.441
				c0.204,0.19,0.308,0.439,0.314,0.747c0.003,0.158-0.024,0.306-0.082,0.443c-0.058,0.137-0.136,0.259-0.233,0.365
				c-0.098,0.105-0.214,0.188-0.348,0.249c-0.134,0.06-0.279,0.092-0.436,0.095c-0.135,0.003-0.293-0.034-0.473-0.109
				c-0.452-0.171-0.942-0.251-1.469-0.24c-0.52,0.01-1.006,0.118-1.458,0.325c-0.452,0.206-0.844,0.482-1.175,0.83
				c-0.331,0.347-0.591,0.752-0.777,1.214c-0.188,0.463-0.275,0.956-0.265,1.479l0.097,4.904c0.006,0.308-0.098,0.573-0.31,0.796
				c-0.213,0.224-0.473,0.338-0.779,0.344c-0.313,0.007-0.581-0.098-0.803-0.312c-0.222-0.214-0.335-0.476-0.341-0.783l-0.194-9.808
				c-0.006-0.309,0.098-0.574,0.311-0.798c0.213-0.223,0.476-0.337,0.79-0.344c0.306-0.006,0.57,0.099,0.792,0.312
				C344.958,104.94,345.071,105.202,345.078,105.511z"/>
			<path fill="#331842" d="M360.479,101.947c0.007,0.365-0.115,0.68-0.366,0.943c-0.251,0.263-0.559,0.397-0.922,0.405
				c-0.363,0.007-0.675-0.116-0.937-0.368c-0.262-0.254-0.396-0.563-0.403-0.929c-0.007-0.366,0.115-0.68,0.366-0.943
				c0.251-0.264,0.559-0.398,0.922-0.405c0.363-0.008,0.676,0.115,0.938,0.368C360.336,101.272,360.471,101.581,360.479,101.947z
				 M358.311,115.05l-0.193-9.786c-0.006-0.315,0.097-0.585,0.31-0.808c0.213-0.224,0.472-0.338,0.779-0.344
				c0.306-0.006,0.57,0.098,0.792,0.312c0.221,0.215,0.338,0.479,0.352,0.795l0.193,9.786c-0.001,0.315-0.107,0.585-0.32,0.808
				s-0.473,0.338-0.779,0.344c-0.306,0.006-0.57-0.099-0.791-0.312C358.431,115.63,358.317,115.365,358.311,115.05z"/>
			<path fill="#331842" d="M379.085,109.745c0.033,1.678-0.523,3.108-1.668,4.293c-1.159,1.199-2.558,1.814-4.196,1.847
				c-1.652,0.033-3.074-0.527-4.265-1.68s-1.803-2.561-1.836-4.225c-0.033-1.662,0.523-3.094,1.668-4.292
				c1.145-1.2,2.544-1.815,4.196-1.849c1.638-0.032,3.06,0.528,4.265,1.682c0.596,0.576,1.044,1.216,1.347,1.92
				S379.062,108.913,379.085,109.745z M373.028,106.088c-0.527,0.011-1.017,0.121-1.468,0.331c-0.452,0.209-0.842,0.488-1.17,0.835
				c-0.328,0.348-0.586,0.752-0.772,1.214c-0.187,0.463-0.275,0.952-0.265,1.469s0.118,1.002,0.323,1.457s0.478,0.85,0.82,1.184
				c0.341,0.334,0.742,0.597,1.202,0.789c0.459,0.19,0.953,0.281,1.48,0.271c0.52-0.01,1.006-0.12,1.457-0.328
				c0.452-0.21,0.844-0.49,1.175-0.841c0.332-0.352,0.591-0.756,0.778-1.215c0.187-0.46,0.275-0.947,0.265-1.464
				s-0.118-1-0.323-1.451c-0.205-0.45-0.48-0.846-0.825-1.183c-0.345-0.338-0.747-0.603-1.207-0.794
				C374.038,106.169,373.548,106.078,373.028,106.088z"/>
		</g>
	</g>
</g>
</svg>
