<?xml version="1.0" encoding="utf-8"?>
<!-- Generator: Adobe Illustrator 16.0.0, SVG Export Plug-In . SVG Version: 6.00 Build 0)  -->
<!DOCTYPE svg PUBLIC "-//W3C//DTD SVG 1.1//EN" "http://www.w3.org/Graphics/SVG/1.1/DTD/svg11.dtd">
<svg version="1.1" id="Capa_1" xmlns="http://www.w3.org/2000/svg" xmlns:xlink="http://www.w3.org/1999/xlink" x="0px" y="0px"
	 width="720.07px" height="250.525px" viewBox="0 0 720.07 250.525" enable-background="new 0 0 720.07 250.525"
	 xml:space="preserve">
<g>
	<rect x="452.199" y="62.39" opacity="0.5" fill="#951B81" enable-background="new    " width="267.871" height="31"/>
	<g>
		<g>
			<path fill="#FFFFFF" d="M537.052,84.53c0.018-2.193,0.025-4.453,0.025-6.777c0-2.33-0.008-4.723-0.025-7.178
				c1.004-0.091,1.93-0.137,2.777-0.137c2.357,0,4.096,0.352,5.213,1.055c1.521,0.964,2.314,2.744,2.385,5.342v0.703
				c0,2.228-0.289,3.815-0.865,4.767c-0.639,1.049-1.805,1.744-3.498,2.09c-0.979,0.202-2.053,0.303-3.223,0.303
				C538.968,84.696,538.039,84.642,537.052,84.53z M540.3,73.368c-0.148,2.144-0.223,4.213-0.223,6.211
				c0,0.756,0.01,1.498,0.027,2.228c0.305,0.053,0.598,0.077,0.877,0.077c0.768,0,1.414-0.197,1.938-0.596
				c0.717-0.533,1.074-1.73,1.074-3.594v-0.039c-0.008-1.875-0.357-3.105-1.047-3.691c-0.533-0.441-1.166-0.664-1.9-0.664
				C540.812,73.3,540.562,73.323,540.3,73.368z"/>
			<path fill="#FFFFFF" d="M552.667,74.872c3.031,0,4.545,1.501,4.545,4.502c0,0.365-0.021,0.756-0.064,1.172h-5.855
				c0,1.675,0.432,2.511,1.297,2.511h0.092c0.76-0.045,1.141-0.479,1.141-1.3c0-0.176-0.02-0.37-0.053-0.586l3.117-0.049
				c0,2.48-1.453,3.737-4.361,3.771c-0.035,0.007-0.064,0.01-0.092,0.01c-2.77,0-4.152-1.565-4.152-4.697v-0.293
				C548.367,76.552,549.83,74.872,552.667,74.872z M550.978,78.749h2.961v-0.233c0-1.186-0.449-1.777-1.35-1.777
				C551.619,76.737,551.082,77.408,550.978,78.749z"/>
			<path fill="#FFFFFF" d="M558.039,81.435l3-0.107v0.127c0,1.003,0.416,1.511,1.246,1.523h0.053c0.803,0,1.205-0.289,1.205-0.869
				V82.04c-0.035-0.638-0.828-1.151-2.379-1.543c-1.549-0.391-2.482-1.048-2.797-1.973c-0.113-0.325-0.17-0.638-0.17-0.938
				c0-0.547,0.188-1.055,0.562-1.522c0.578-0.716,1.451-1.126,2.621-1.23c0.314-0.024,0.619-0.039,0.916-0.039
				c0.777,0,1.463,0.103,2.059,0.304c0.811,0.279,1.375,0.681,1.689,1.2c0.209,0.358,0.314,0.757,0.314,1.191
				c0,0.209-0.021,0.424-0.066,0.645l-2.803,0.05c0.025-0.162,0.039-0.312,0.039-0.449c0-0.65-0.279-0.999-0.838-1.045
				c-0.062-0.006-0.123-0.01-0.184-0.01c-0.576,0-0.965,0.219-1.166,0.653c-0.07,0.15-0.104,0.287-0.104,0.41
				c0,0.307,0.191,0.57,0.574,0.791c0.543,0.312,1.344,0.63,2.404,0.952c1.062,0.322,1.775,0.871,2.143,1.646
				c0.131,0.293,0.197,0.587,0.197,0.88c0,0.494-0.191,0.992-0.578,1.493c-0.609,0.802-1.559,1.268-2.842,1.396
				c-0.279,0.033-0.555,0.049-0.826,0.049c-0.961,0-1.852-0.186-2.672-0.557C558.589,83.919,558.056,82.933,558.039,81.435z"/>
			<path fill="#FFFFFF" d="M572.855,80.878l3.117,0.146c0,2.351-1.455,3.542-4.361,3.574c-0.035,0.007-0.066,0.01-0.094,0.01
				c-2.768,0-4.152-1.565-4.152-4.697v-0.293c0.088-3.358,1.562-5.055,4.428-5.088h0.105c2.637,0,3.955,1.127,3.955,3.379
				c0,0.131-0.004,0.261-0.012,0.391l-2.816,0.156v-0.233c0-1.186-0.449-1.777-1.35-1.777c-0.918,0-1.375,0.961-1.375,2.881v0.322
				c0.053,2.077,0.516,3.115,1.389,3.115h0.078c0.762-0.045,1.141-0.479,1.141-1.3C572.908,81.288,572.89,81.094,572.855,80.878z"/>
			<path fill="#FFFFFF" d="M580.544,77.899l0.131,7.08l-3.209,0.02c0-2.994-0.135-6.356-0.406-10.088l2.41-0.195l0.131,1.593
				c0.367-0.781,1.225-1.228,2.568-1.338c0.201-0.014,0.393-0.021,0.576-0.021c1.057,0,1.861,0.258,2.412,0.771
				c0.637,0.611,0.959,1.586,0.969,2.92l-2.91,0.215c0.01-0.11,0.016-0.218,0.016-0.322c0-1.041-0.363-1.562-1.09-1.562h-0.051
				C581.253,77.005,580.738,77.313,580.544,77.899z"/>
			<path fill="#FFFFFF" d="M590.671,72.626c0,0.397-0.188,0.736-0.562,1.017c-0.375,0.279-0.83,0.42-1.363,0.42
				c-0.523,0-0.973-0.141-1.348-0.42s-0.564-0.618-0.564-1.017c0-0.391,0.189-0.726,0.564-1.006c0.375-0.279,0.824-0.42,1.348-0.42
				c0.533,0,0.988,0.141,1.363,0.42C590.484,71.9,590.671,72.235,590.671,72.626z M587.162,84.95
				c-0.062-3.809-0.092-7.1-0.092-9.873l3.301-0.146c-0.105,2.655-0.156,5.297-0.156,7.92c0,0.703,0.004,1.402,0.014,2.1
				L587.162,84.95L587.162,84.95z"/>
			<path fill="#FFFFFF" d="M591.472,88.798c0.053-2.193,0.078-4.526,0.078-7.002c0-2.252-0.021-4.614-0.064-7.09l3.104-0.01
				l0.105,1.504c0.646-0.729,1.506-1.094,2.582-1.094c2.68,0,4.021,1.579,4.021,4.735v0.195c-0.062,3.164-1.396,4.746-4.01,4.746
				c-0.105,0-0.209-0.003-0.314-0.01c-0.891-0.032-1.609-0.395-2.162-1.084c0,1.444,0.049,3.146,0.145,5.106h-3.484V88.798z
				 M594.748,78.202l0.064,3.672c0.506,0.516,1.018,0.771,1.533,0.771c0.209,0,0.418-0.045,0.629-0.138
				c0.639-0.26,0.955-1.037,0.955-2.334c0-0.155-0.004-0.317-0.012-0.487c-0.088-1.588-0.512-2.425-1.271-2.51
				c-0.078-0.007-0.152-0.011-0.223-0.011C595.759,77.167,595.201,77.513,594.748,78.202z"/>
			<path fill="#FFFFFF" d="M607.691,80.878l3.117,0.146c0,2.351-1.453,3.542-4.361,3.574c-0.035,0.007-0.066,0.01-0.092,0.01
				c-2.77,0-4.154-1.565-4.154-4.697v-0.293c0.088-3.358,1.562-5.055,4.428-5.088h0.105c2.637,0,3.957,1.127,3.957,3.379
				c0,0.131-0.006,0.261-0.014,0.391l-2.816,0.156v-0.233c0-1.186-0.449-1.777-1.35-1.777c-0.918,0-1.375,0.961-1.375,2.881v0.322
				c0.053,2.077,0.516,3.115,1.389,3.115h0.078c0.762-0.045,1.141-0.479,1.141-1.3C607.742,81.288,607.724,81.094,607.691,80.878z"
				/>
			<path fill="#FFFFFF" d="M615.564,72.626c0,0.397-0.189,0.736-0.564,1.017c-0.375,0.279-0.83,0.42-1.361,0.42
				c-0.523,0-0.975-0.141-1.35-0.42s-0.564-0.618-0.564-1.017c0-0.391,0.189-0.726,0.564-1.006c0.375-0.279,0.824-0.42,1.35-0.42
				c0.531,0,0.986,0.141,1.361,0.42C615.375,71.9,615.564,72.235,615.564,72.626z M612.052,84.95
				c-0.061-3.809-0.092-7.1-0.092-9.873l3.301-0.146c-0.104,2.655-0.156,5.297-0.156,7.92c0,0.703,0.004,1.402,0.014,2.1
				L612.052,84.95L612.052,84.95z"/>
			<path fill="#FFFFFF" d="M620.896,74.872c2.969,0,4.453,1.537,4.453,4.609c0,0.124-0.004,0.248-0.012,0.371
				c-0.123,3.327-1.703,5.007-4.744,5.039c-0.033,0.007-0.068,0.01-0.104,0.01c-2.891,0-4.336-1.572-4.336-4.717v-0.273
				C616.24,76.552,617.822,74.872,620.896,74.872z M620.462,77.099c-0.549,0.144-0.926,0.674-1.127,1.592
				c-0.121,0.547-0.182,1.098-0.182,1.649c0,0.371,0.025,0.746,0.078,1.123c0.141,0.938,0.59,1.424,1.35,1.455h0.092
				c0.707,0,1.191-0.348,1.455-1.045c0.217-0.579,0.326-1.266,0.326-2.061c0-0.195-0.004-0.395-0.012-0.596
				c-0.07-1.049-0.279-1.702-0.629-1.964c-0.219-0.155-0.48-0.233-0.785-0.233C620.851,77.021,620.664,77.047,620.462,77.099z
				 M619.193,72.969c1.02-0.904,1.859-1.769,2.514-2.589l2.148,1.271c-0.926,0.678-1.957,1.508-3.092,2.49L619.193,72.969z"/>
			<path fill="#FFFFFF" d="M628.48,74.618l0.131,1.592c0.367-0.846,1.332-1.274,2.896-1.289h0.051c1.537,0,2.586,0.449,3.145,1.349
				c0.385,0.611,0.578,2.045,0.578,4.297c0,1.106-0.049,2.416-0.145,3.926h-3.17c0.113-2.012,0.17-3.57,0.17-4.678
				c0-0.553-0.014-0.996-0.041-1.328c-0.086-0.978-0.506-1.465-1.258-1.465c-0.75,0-1.223,0.261-1.414,0.781l0.131,7.079
				l-3.08,0.021c0-2.994-0.135-6.357-0.404-10.088L628.48,74.618z"/>
		</g>
	</g>
	<g>
		<g>
			<line fill="none" stroke="#666665" stroke-width="4" stroke-miterlimit="10" x1="0" y1="40.335" x2="159.94" y2="40.335"/>
			<g>
				<circle fill="#666665" cx="159.94" cy="40.335" r="7.52"/>
			</g>
		</g>
	</g>
	<g>
		<path fill="#331842" d="M349.063,9.346l3.891-0.195c-0.052,0.403-0.079,0.769-0.079,1.094c0,1.479,0.493,2.217,1.479,2.217h0.054
			c1.196-0.025,1.794-0.501,1.794-1.426v-0.088c-0.043-0.983-1.175-1.946-3.394-2.891c-2.156-0.911-3.235-2.415-3.235-4.513
			c0-0.064,0.004-0.13,0.013-0.194c0.062-2.194,1.712-3.312,4.952-3.351h0.104c2.927,0,4.39,1.391,4.39,4.17
			c0,0.223-0.009,0.456-0.026,0.703l-3.419,0.146c0.035-0.293,0.053-0.563,0.053-0.812c0-1.165-0.38-1.748-1.14-1.748
			c-0.917,0-1.419,0.35-1.506,1.045c-0.009,0.099-0.014,0.195-0.014,0.293c0,0.579,0.231,1.12,0.694,1.621
			c0.533,0.579,1.448,1.11,2.745,1.593c1.297,0.481,2.203,1.143,2.718,1.981c0.367,0.605,0.55,1.25,0.55,1.935
			c0,0.261-0.025,0.526-0.078,0.801c-0.201,0.982-0.761,1.799-1.678,2.445c-0.917,0.647-2.147,1.001-3.693,1.061
			c-0.104,0.007-0.209,0.01-0.314,0.01c-1.406,0-2.581-0.384-3.522-1.152c-0.909-0.734-1.363-2.072-1.363-4.014
			C349.038,9.844,349.046,9.6,349.063,9.346z"/>
		<path fill="#331842" d="M365.074,4.775c3.031,0,4.545,1.501,4.545,4.502c0,0.364-0.021,0.755-0.064,1.172h-5.855
			c0,1.673,0.432,2.51,1.297,2.51h0.092c0.76-0.046,1.139-0.479,1.139-1.299c0-0.176-0.018-0.371-0.053-0.586l3.119-0.049
			c0,2.479-1.455,3.737-4.363,3.77c-0.033,0.008-0.064,0.011-0.092,0.011c-2.768,0-4.152-1.565-4.152-4.697V9.814
			C360.771,6.455,362.234,4.775,365.074,4.775z M363.382,8.652h2.961V8.418c0-1.185-0.449-1.776-1.35-1.776
			C364.025,6.641,363.488,7.312,363.382,8.652z"/>
		<path fill="#331842" d="M373.011,4.521l0.131,1.592c0.367-0.847,1.332-1.276,2.896-1.289h0.053c1.537,0,2.584,0.449,3.145,1.348
			c0.383,0.612,0.574,2.044,0.574,4.298c0,1.105-0.047,2.414-0.143,3.926h-3.172c0.115-2.013,0.172-3.571,0.172-4.679
			c0-0.554-0.014-0.995-0.041-1.327c-0.086-0.978-0.506-1.466-1.256-1.466c-0.752,0-1.223,0.262-1.416,0.781l0.131,7.08
			l-3.078,0.021c0-2.995-0.135-6.357-0.406-10.089L373.011,4.521z"/>
		<path fill="#331842" d="M383.085,1.66l2.975-0.146v3.231l2.504-0.049l0.037,1.846l-2.541,0.088v4.443
			c0,1.035,0.59,1.553,1.77,1.553c0.244,0,0.51-0.021,0.799-0.067l-0.119,2.147c-0.418,0.039-0.816,0.06-1.191,0.06
			c-2.76,0-4.166-1.062-4.219-3.185V6.807l-2.146,0.098L380.9,4.727l2.201,0.02L383.085,1.66z"/>
		<path fill="#331842" d="M393.947,4.775c3.029,0,4.545,1.501,4.545,4.502c0,0.364-0.021,0.755-0.064,1.172h-5.855
			c0,1.673,0.432,2.51,1.297,2.51h0.092c0.76-0.046,1.141-0.479,1.141-1.299c0-0.176-0.018-0.371-0.053-0.586l3.117-0.049
			c0,2.479-1.453,3.737-4.361,3.77c-0.035,0.008-0.066,0.011-0.092,0.011c-2.77,0-4.154-1.565-4.154-4.697V9.814
			C389.644,6.455,391.109,4.775,393.947,4.775z M392.257,8.652h2.959V8.418c0-1.185-0.449-1.776-1.348-1.776
			C392.898,6.641,392.361,7.312,392.257,8.652z"/>
		<path fill="#331842" d="M401.886,4.521l0.131,1.592c0.367-0.847,1.332-1.276,2.895-1.289h0.053c1.537,0,2.584,0.449,3.145,1.348
			c0.385,0.612,0.576,2.044,0.576,4.298c0,1.105-0.049,2.414-0.145,3.926h-3.17c0.113-2.013,0.17-3.571,0.17-4.679
			c0-0.554-0.012-0.995-0.039-1.327c-0.088-0.978-0.506-1.466-1.258-1.466c-0.75,0-1.223,0.262-1.414,0.781l0.131,7.08l-3.08,0.021
			c0-2.995-0.135-6.357-0.406-10.089L401.886,4.521z"/>
		<path fill="#331842" d="M415.13,10.781l3.117,0.146c0,2.351-1.453,3.542-4.361,3.573c-0.035,0.007-0.064,0.011-0.092,0.011
			c-2.77,0-4.154-1.565-4.154-4.697V9.521c0.088-3.359,1.564-5.057,4.43-5.088h0.104c2.637,0,3.955,1.126,3.955,3.379
			c0,0.13-0.004,0.261-0.012,0.391L415.3,8.359V8.125c0-1.185-0.451-1.776-1.35-1.776c-0.918,0-1.375,0.96-1.375,2.881v0.322
			c0.051,2.076,0.514,3.114,1.389,3.114h0.078c0.76-0.046,1.141-0.479,1.141-1.299C415.183,11.191,415.166,10.996,415.13,10.781z"/>
		<path fill="#331842" d="M423.003,2.529c0,0.397-0.188,0.735-0.562,1.016s-0.83,0.42-1.361,0.42c-0.525,0-0.975-0.14-1.35-0.42
			c-0.377-0.279-0.564-0.617-0.564-1.016c0-0.391,0.189-0.726,0.564-1.006s0.824-0.42,1.35-0.42c0.531,0,0.986,0.14,1.361,0.42
			C422.816,1.804,423.003,2.139,423.003,2.529z M419.494,14.854c-0.062-3.81-0.092-7.101-0.092-9.873l3.301-0.146
			c-0.104,2.656-0.156,5.296-0.156,7.92c0,0.703,0.004,1.403,0.014,2.101L419.494,14.854L419.494,14.854z"/>
		<path fill="#331842" d="M428.794,4.492c2.873,0.117,4.311,1.194,4.311,3.232v6.934l-3.053,0.039l-0.104-0.928
			c-0.629,0.534-1.463,0.801-2.502,0.801c-0.447,0-0.928-0.052-1.441-0.156c-1.547-0.286-2.32-1.179-2.32-2.676
			c0-0.183,0.016-0.378,0.041-0.586c0.176-1.543,1.646-2.314,4.414-2.314c0.533,0,1.119,0.029,1.756,0.089V7.793
			c0-0.918-0.389-1.377-1.166-1.377h-0.053c-0.061-0.007-0.117-0.01-0.17-0.01c-0.846,0-1.27,0.515-1.27,1.543v0.146L424.117,7.9
			c0-2.272,1.467-3.408,4.402-3.408H428.794z M429.894,12.207v-1.719c-0.375-0.059-0.715-0.088-1.02-0.088
			c-0.795,0-1.338,0.198-1.625,0.596c-0.176,0.241-0.262,0.466-0.262,0.674c0,0.262,0.139,0.491,0.418,0.693
			c0.219,0.156,0.502,0.234,0.852,0.234C428.703,12.598,429.248,12.469,429.894,12.207z"/>
		<path fill="#331842" d="M433.996,11.338l3-0.106v0.127c0,1.003,0.414,1.511,1.244,1.522h0.053c0.803,0,1.205-0.29,1.205-0.868
			v-0.068c-0.035-0.638-0.828-1.152-2.379-1.543c-1.549-0.391-2.482-1.048-2.797-1.973c-0.113-0.325-0.17-0.639-0.17-0.938
			c0-0.547,0.188-1.055,0.562-1.523c0.576-0.716,1.449-1.126,2.621-1.229c0.314-0.026,0.619-0.039,0.916-0.039
			c0.777,0,1.463,0.101,2.057,0.303c0.812,0.28,1.375,0.682,1.691,1.201c0.209,0.358,0.312,0.755,0.312,1.191
			c0,0.208-0.021,0.423-0.064,0.645l-2.803,0.049c0.025-0.163,0.039-0.312,0.039-0.448c0-0.651-0.279-0.999-0.84-1.045
			c-0.061-0.008-0.121-0.011-0.182-0.011c-0.578,0-0.965,0.219-1.166,0.654c-0.07,0.149-0.105,0.286-0.105,0.41
			c0,0.306,0.191,0.568,0.576,0.791c0.543,0.312,1.344,0.63,2.404,0.952c1.062,0.321,1.775,0.871,2.143,1.646
			c0.131,0.293,0.195,0.586,0.195,0.879c0,0.495-0.191,0.993-0.576,1.494c-0.611,0.801-1.559,1.268-2.844,1.396
			c-0.279,0.031-0.555,0.049-0.824,0.049c-0.961,0-1.852-0.187-2.672-0.558C434.544,13.821,434.013,12.835,433.996,11.338z"/>
		<path fill="#331842" d="M458.244,0.986c-0.051,2.2-0.078,4.509-0.078,6.924c0,2.2,0.021,4.492,0.066,6.875l-3.105,0.01
			l-0.104-1.493c-0.646,0.723-1.508,1.084-2.582,1.084c-2.682,0-4.021-1.53-4.021-4.591c0-0.064,0.004-0.13,0.014-0.194
			C448.486,6.534,449.814,5,452.416,5c0.105,0,0.215,0.003,0.328,0.011c0.891,0.038,1.611,0.399,2.162,1.084
			c0-1.445-0.049-3.147-0.145-5.107L458.244,0.986L458.244,0.986z M454.968,11.299l-0.064-3.379
			c-0.506-0.515-1.025-0.771-1.559-0.771c-0.219,0-0.438,0.042-0.654,0.127c-0.691,0.267-1.035,1.016-1.035,2.246
			c0,0.144,0.004,0.29,0.014,0.438c0.086,1.491,0.531,2.278,1.336,2.363c0.078,0.007,0.156,0.01,0.236,0.01
			C453.939,12.334,454.515,11.989,454.968,11.299z"/>
		<path fill="#331842" d="M463.537,4.775c3.031,0,4.547,1.501,4.547,4.502c0,0.364-0.023,0.755-0.066,1.172h-5.855
			c0,1.673,0.434,2.51,1.297,2.51h0.092c0.76-0.046,1.141-0.479,1.141-1.299c0-0.176-0.018-0.371-0.053-0.586l3.119-0.049
			c0,2.479-1.455,3.737-4.361,3.77c-0.035,0.008-0.066,0.011-0.094,0.011c-2.768,0-4.15-1.565-4.15-4.697V9.814
			C459.236,6.455,460.699,4.775,463.537,4.775z M461.847,8.652h2.961V8.418c0-1.185-0.449-1.776-1.35-1.776
			C462.49,6.641,461.953,7.312,461.847,8.652z"/>
		<path fill="#331842" d="M477.632,14.639l-3.262,0.225c0.035-2.155,0.053-4.229,0.053-6.221c0-2.8-0.035-5.439-0.105-7.92
			l3.211-0.039c-0.035,1.595-0.055,3.231-0.055,4.912C477.476,8.493,477.529,11.507,477.632,14.639z"/>
		<path fill="#331842" d="M483.83,4.492c2.875,0.117,4.311,1.194,4.311,3.232v6.934l-3.053,0.039l-0.104-0.928
			c-0.631,0.534-1.465,0.801-2.502,0.801c-0.447,0-0.928-0.052-1.441-0.156c-1.547-0.286-2.32-1.179-2.32-2.676
			c0-0.183,0.014-0.378,0.041-0.586c0.174-1.543,1.646-2.314,4.414-2.314c0.533,0,1.119,0.029,1.756,0.089V7.793
			c0-0.918-0.389-1.377-1.166-1.377h-0.053c-0.061-0.007-0.117-0.01-0.17-0.01c-0.848,0-1.271,0.515-1.271,1.543v0.146L479.152,7.9
			c0-2.272,1.469-3.408,4.402-3.408H483.83z M484.929,12.207v-1.719c-0.375-0.059-0.715-0.088-1.02-0.088
			c-0.795,0-1.336,0.198-1.625,0.596c-0.176,0.241-0.262,0.466-0.262,0.674c0,0.262,0.139,0.491,0.418,0.693
			c0.219,0.156,0.502,0.234,0.852,0.234C483.738,12.598,484.283,12.469,484.929,12.207z"/>
		<path fill="#331842" d="M504.24,5.742l-2.908,0.01V5.488c0-1.53-0.576-2.295-1.729-2.295c-1.23,0-1.848,1.413-1.848,4.238
			c0,3.184,0.646,4.774,1.939,4.774h0.014c1.293-0.007,1.939-0.788,1.939-2.344V8.896h3.248v0.731c0,3.242-1.787,4.938-5.357,5.088
			c-0.105,0.008-0.211,0.011-0.314,0.011c-3.361,0-5.045-2.409-5.045-7.228c0-4.714,1.73-7.069,5.189-7.069
			c3.256,0,4.885,1.574,4.885,4.727C504.253,5.345,504.25,5.54,504.24,5.742z"/>
		<path fill="#331842" d="M510.279,4.775c2.971,0,4.455,1.536,4.455,4.608c0,0.124-0.006,0.247-0.014,0.371
			c-0.123,3.327-1.703,5.008-4.742,5.039c-0.035,0.008-0.07,0.011-0.105,0.011c-2.891,0-4.336-1.572-4.336-4.718V9.814
			C505.625,6.455,507.205,4.775,510.279,4.775z M509.847,7.002c-0.551,0.145-0.926,0.675-1.127,1.593
			c-0.123,0.547-0.184,1.097-0.184,1.649c0,0.371,0.027,0.745,0.08,1.123c0.139,0.938,0.588,1.423,1.348,1.455h0.092
			c0.709,0,1.193-0.349,1.455-1.045c0.219-0.579,0.328-1.267,0.328-2.062c0-0.194-0.004-0.394-0.014-0.596
			c-0.07-1.048-0.279-1.702-0.629-1.963c-0.217-0.156-0.48-0.234-0.785-0.234C510.236,6.924,510.048,6.95,509.847,7.002z"/>
		<path fill="#331842" d="M518.939,7.803l0.131,7.079l-3.209,0.021c0-2.995-0.137-6.357-0.406-10.088l2.41-0.195l0.131,1.592
			c0.367-0.78,1.223-1.228,2.568-1.338c0.201-0.013,0.393-0.02,0.576-0.02c1.057,0,1.859,0.257,2.41,0.771
			c0.639,0.612,0.961,1.585,0.969,2.92l-2.906,0.216c0.008-0.11,0.012-0.219,0.012-0.322c0-1.042-0.363-1.562-1.086-1.562h-0.053
			C519.646,6.907,519.13,7.217,518.939,7.803z"/>
		<path fill="#331842" d="M527.585,1.66l2.973-0.146v3.231l2.504-0.049l0.037,1.846l-2.541,0.088v4.443
			c0,1.035,0.59,1.553,1.77,1.553c0.244,0,0.51-0.021,0.799-0.067l-0.119,2.147c-0.418,0.039-0.814,0.06-1.191,0.06
			c-2.76,0-4.166-1.062-4.219-3.185V6.807l-2.146,0.098l-0.053-2.178l2.199,0.02L527.585,1.66z"/>
		<path fill="#331842" d="M538.447,4.775c3.029,0,4.545,1.501,4.545,4.502c0,0.364-0.021,0.755-0.064,1.172h-5.855
			c0,1.673,0.432,2.51,1.297,2.51h0.092c0.76-0.046,1.139-0.479,1.139-1.299c0-0.176-0.018-0.371-0.053-0.586l3.119-0.049
			c0,2.479-1.455,3.737-4.363,3.77c-0.035,0.008-0.064,0.011-0.092,0.011c-2.768,0-4.152-1.565-4.152-4.697V9.814
			C534.146,6.455,535.607,4.775,538.447,4.775z M536.755,8.652h2.961V8.418c0-1.185-0.449-1.776-1.35-1.776
			C537.398,6.641,536.861,7.312,536.755,8.652z"/>
		<path fill="#331842" d="M286.986,38.053l-3.262,0.225c0-4.778-0.105-9.265-0.314-13.457l3.733-0.234
			C287.048,29.007,286.995,33.495,286.986,38.053z"/>
		<path fill="#331842" d="M290.707,28.521l0.131,1.592c0.367-0.847,1.332-1.276,2.896-1.289h0.052c1.537,0,2.585,0.449,3.144,1.348
			c0.384,0.612,0.576,2.044,0.576,4.298c0,1.105-0.048,2.414-0.144,3.926h-3.171c0.114-2.013,0.171-3.571,0.171-4.679
			c0-0.554-0.014-0.995-0.04-1.327c-0.087-0.978-0.506-1.466-1.257-1.466s-1.223,0.262-1.415,0.781l0.131,7.08l-3.079,0.021
			c0-2.995-0.135-6.357-0.406-10.089L290.707,28.521z"/>
		<path fill="#331842" d="M300.781,25.66l2.974-0.146v3.231l2.503-0.049l0.039,1.846l-2.542,0.088v4.443
			c0,1.035,0.59,1.553,1.769,1.553c0.245,0,0.511-0.021,0.799-0.067l-0.118,2.147c-0.419,0.039-0.817,0.06-1.192,0.06
			c-2.76,0-4.166-1.062-4.218-3.185v-4.774l-2.148,0.098l-0.052-2.178l2.201,0.02L300.781,25.66z"/>
		<path fill="#331842" d="M311.642,28.775c3.031,0,4.547,1.501,4.547,4.502c0,0.364-0.021,0.755-0.065,1.172h-5.855
			c0,1.673,0.433,2.51,1.298,2.51h0.092c0.76-0.046,1.14-0.479,1.14-1.299c0-0.176-0.018-0.371-0.053-0.586l3.118-0.049
			c0,2.479-1.454,3.737-4.362,3.77c-0.035,0.008-0.066,0.011-0.092,0.011c-2.77,0-4.153-1.565-4.153-4.697v-0.293
			C307.34,30.455,308.803,28.775,311.642,28.775z M309.952,32.652h2.96v-0.234c0-1.185-0.45-1.776-1.349-1.776
			C310.594,30.641,310.057,31.312,309.952,32.652z"/>
		<path fill="#331842" d="M320.655,31.803l0.131,7.079l-3.21,0.021c0-2.995-0.135-6.357-0.406-10.088l2.411-0.195l0.131,1.592
			c0.367-0.78,1.223-1.228,2.567-1.338c0.201-0.013,0.394-0.02,0.577-0.02c1.057,0,1.859,0.257,2.41,0.771
			c0.638,0.612,0.96,1.585,0.97,2.92l-2.908,0.216c0.008-0.11,0.013-0.219,0.013-0.322c0-1.042-0.363-1.562-1.088-1.562h-0.052
			C321.362,30.907,320.847,31.217,320.655,31.803z"/>
		<path fill="#331842" d="M332.184,28.492c2.873,0.117,4.311,1.194,4.311,3.232v6.934l-3.052,0.039l-0.105-0.928
			c-0.629,0.534-1.463,0.801-2.502,0.801c-0.445,0-0.926-0.052-1.441-0.156c-1.546-0.286-2.318-1.179-2.318-2.676
			c0-0.183,0.013-0.378,0.039-0.586c0.175-1.543,1.646-2.314,4.415-2.314c0.532,0,1.118,0.029,1.756,0.089v-1.134
			c0-0.918-0.39-1.377-1.166-1.377h-0.053c-0.062-0.007-0.118-0.01-0.171-0.01c-0.848,0-1.271,0.515-1.271,1.543v0.146l-3.118-0.195
			c0-2.272,1.467-3.408,4.401-3.408H332.184z M333.284,36.207v-1.719c-0.376-0.059-0.716-0.088-1.022-0.088
			c-0.795,0-1.336,0.198-1.625,0.596c-0.175,0.241-0.262,0.466-0.262,0.674c0,0.262,0.14,0.491,0.419,0.693
			c0.218,0.156,0.502,0.234,0.852,0.234C332.092,36.598,332.638,36.469,333.284,36.207z"/>
		<path fill="#331842" d="M339.651,28.57l0.052,1.562c0.472-0.749,1.018-1.214,1.638-1.396c0.367-0.104,0.738-0.156,1.113-0.156
			c0.279,0,0.559,0.026,0.839,0.078c0.681,0.13,1.166,0.651,1.454,1.562c0.227-0.71,0.62-1.185,1.179-1.422
			c0.56-0.236,1.179-0.358,1.86-0.365h0.053c0.663,0,1.301,0.12,1.913,0.36c0.62,0.247,1.094,0.711,1.421,1.393
			c0.327,0.681,0.5,1.612,0.519,2.798v5.674l-2.83,0.049c0.112-2.142,0.17-3.965,0.17-5.469s-0.384-2.314-1.153-2.432
			c-0.113-0.014-0.223-0.021-0.327-0.021c-0.611,0-1.083,0.293-1.415,0.879c-0.053,0.677-0.079,1.468-0.079,2.373
			c0,1.23,0.048,2.666,0.146,4.308l-3.275,0.02c0.122-2.52,0.185-4.354,0.185-5.508V32.74c-0.01-1.14-0.311-1.738-0.904-1.797h-0.17
			c-0.533,0-1.048,0.228-1.546,0.684l0.025,7.148l-3.092,0.088v-1.602c0-2.84-0.057-5.675-0.17-8.507L339.651,28.57z"/>
		<path fill="#331842" d="M356.734,28.775c3.03,0,4.546,1.501,4.546,4.502c0,0.364-0.023,0.755-0.066,1.172h-5.855
			c0,1.673,0.432,2.51,1.297,2.51h0.092c0.76-0.046,1.14-0.479,1.14-1.299c0-0.176-0.018-0.371-0.053-0.586l3.118-0.049
			c0,2.479-1.454,3.737-4.362,3.77c-0.035,0.008-0.064,0.011-0.092,0.011c-2.769,0-4.153-1.565-4.153-4.697v-0.293
			C352.433,30.455,353.896,28.775,356.734,28.775z M355.044,32.652h2.961v-0.234c0-1.185-0.45-1.776-1.35-1.776
			C355.686,30.641,355.148,31.312,355.044,32.652z"/>
		<path fill="#331842" d="M365.748,31.803l0.131,7.079l-3.209,0.021c0-2.995-0.135-6.357-0.406-10.088l2.41-0.195l0.131,1.592
			c0.367-0.78,1.225-1.228,2.568-1.338c0.201-0.013,0.393-0.02,0.578-0.02c1.057,0,1.859,0.257,2.41,0.771
			c0.637,0.612,0.961,1.585,0.969,2.92l-2.908,0.216c0.008-0.11,0.014-0.219,0.014-0.322c0-1.042-0.361-1.562-1.088-1.562h-0.051
			C366.455,30.907,365.939,31.217,365.748,31.803z"/>
		<path fill="#331842" d="M375.875,26.529c0,0.397-0.189,0.735-0.564,1.016s-0.828,0.42-1.361,0.42c-0.523,0-0.975-0.14-1.35-0.42
			c-0.377-0.279-0.562-0.617-0.562-1.016c0-0.391,0.188-0.726,0.562-1.006s0.824-0.42,1.35-0.42c0.533,0,0.986,0.14,1.361,0.42
			C375.685,25.804,375.875,26.139,375.875,26.529z M372.363,38.854c-0.061-3.81-0.09-7.101-0.09-9.873l3.301-0.146
			c-0.105,2.656-0.158,5.296-0.158,7.92c0,0.703,0.006,1.403,0.014,2.101L372.363,38.854L372.363,38.854z"/>
		<path fill="#331842" d="M381.953,34.781l3.117,0.146c0,2.351-1.453,3.542-4.361,3.573c-0.035,0.007-0.066,0.011-0.092,0.011
			c-2.77,0-4.154-1.565-4.154-4.697v-0.293c0.088-3.359,1.564-5.057,4.428-5.088h0.105c2.637,0,3.955,1.126,3.955,3.379
			c0,0.13-0.004,0.261-0.012,0.391l-2.816,0.156v-0.234c0-1.185-0.451-1.776-1.35-1.776c-0.918,0-1.375,0.96-1.375,2.881v0.322
			c0.051,2.076,0.514,3.114,1.389,3.114h0.078c0.76-0.046,1.141-0.479,1.141-1.299C382.005,35.191,381.988,34.996,381.953,34.781z"
			/>
		<path fill="#331842" d="M391.228,28.492c2.873,0.117,4.311,1.194,4.311,3.232v6.934l-3.053,0.039l-0.104-0.928
			c-0.629,0.534-1.463,0.801-2.502,0.801c-0.447,0-0.926-0.052-1.441-0.156c-1.547-0.286-2.318-1.179-2.318-2.676
			c0-0.183,0.014-0.378,0.039-0.586c0.176-1.543,1.646-2.314,4.416-2.314c0.533,0,1.117,0.029,1.754,0.089v-1.134
			c0-0.918-0.389-1.377-1.166-1.377h-0.051c-0.062-0.007-0.119-0.01-0.17-0.01c-0.848,0-1.271,0.515-1.271,1.543v0.146l-3.119-0.195
			c0-2.272,1.467-3.408,4.402-3.408H391.228z M392.328,36.207v-1.719c-0.375-0.059-0.715-0.088-1.021-0.088
			c-0.795,0-1.336,0.198-1.625,0.596c-0.174,0.241-0.262,0.466-0.262,0.674c0,0.262,0.141,0.491,0.42,0.693
			c0.219,0.156,0.502,0.234,0.852,0.234C391.136,36.598,391.681,36.469,392.328,36.207z"/>
		<path fill="#331842" d="M398.996,28.521l0.131,1.592c0.367-0.847,1.332-1.276,2.896-1.289h0.053c1.537,0,2.586,0.449,3.145,1.348
			c0.385,0.612,0.576,2.044,0.576,4.298c0,1.105-0.047,2.414-0.143,3.926h-3.17c0.113-2.013,0.17-3.571,0.17-4.679
			c0-0.554-0.014-0.995-0.039-1.327c-0.088-0.978-0.508-1.466-1.258-1.466c-0.752,0-1.225,0.262-1.416,0.781l0.131,7.08
			l-3.078,0.021c0-2.995-0.135-6.357-0.406-10.089L398.996,28.521z"/>
		<path fill="#331842" d="M411.953,28.492c2.873,0.117,4.311,1.194,4.311,3.232v6.934l-3.053,0.039l-0.104-0.928
			c-0.631,0.534-1.465,0.801-2.504,0.801c-0.443,0-0.926-0.052-1.439-0.156c-1.547-0.286-2.318-1.179-2.318-2.676
			c0-0.183,0.014-0.378,0.039-0.586c0.174-1.543,1.646-2.314,4.414-2.314c0.533,0,1.119,0.029,1.756,0.089v-1.134
			c0-0.918-0.389-1.377-1.166-1.377h-0.053c-0.062-0.007-0.119-0.01-0.17-0.01c-0.848,0-1.271,0.515-1.271,1.543v0.146l-3.117-0.195
			c0-2.272,1.467-3.408,4.4-3.408H411.953z M413.052,36.207v-1.719c-0.375-0.059-0.715-0.088-1.021-0.088
			c-0.795,0-1.336,0.198-1.623,0.596c-0.176,0.241-0.262,0.466-0.262,0.674c0,0.262,0.139,0.491,0.418,0.693
			c0.219,0.156,0.502,0.234,0.852,0.234C411.861,36.598,412.408,36.469,413.052,36.207z"/>
		<path fill="#331842" d="M432.101,24.986c-0.053,2.2-0.078,4.509-0.078,6.924c0,2.2,0.021,4.492,0.066,6.875l-3.105,0.01
			l-0.104-1.493c-0.646,0.723-1.508,1.084-2.582,1.084c-2.682,0-4.021-1.53-4.021-4.591c0-0.064,0.004-0.13,0.014-0.194
			c0.053-3.066,1.379-4.601,3.982-4.601c0.104,0,0.213,0.003,0.326,0.011c0.893,0.038,1.611,0.399,2.162,1.084
			c0-1.445-0.047-3.147-0.143-5.107L432.101,24.986L432.101,24.986z M428.826,35.299l-0.064-3.379
			c-0.508-0.515-1.025-0.771-1.559-0.771c-0.219,0-0.439,0.042-0.656,0.127c-0.689,0.267-1.035,1.016-1.035,2.246
			c0,0.144,0.004,0.29,0.014,0.438c0.088,1.491,0.533,2.278,1.336,2.363c0.078,0.007,0.156,0.01,0.234,0.01
			C427.796,36.334,428.373,35.989,428.826,35.299z"/>
		<path fill="#331842" d="M437.394,28.775c3.031,0,4.547,1.501,4.547,4.502c0,0.364-0.023,0.755-0.066,1.172h-5.855
			c0,1.673,0.432,2.51,1.297,2.51h0.092c0.76-0.046,1.141-0.479,1.141-1.299c0-0.176-0.018-0.371-0.053-0.586l3.117-0.049
			c0,2.479-1.453,3.737-4.361,3.77c-0.035,0.008-0.064,0.011-0.092,0.011c-2.77,0-4.154-1.565-4.154-4.697v-0.293
			C433.093,30.455,434.556,28.775,437.394,28.775z M435.705,32.652h2.961v-0.234c0-1.185-0.451-1.776-1.35-1.776
			C436.345,30.641,435.808,31.312,435.705,32.652z"/>
		<path fill="#331842" d="M447.914,38.434c0.018-2.194,0.027-4.453,0.027-6.777c0-2.331-0.01-4.724-0.027-7.178
			c1.004-0.091,1.93-0.138,2.777-0.138c2.357,0,4.096,0.353,5.215,1.056c1.52,0.964,2.312,2.744,2.383,5.342v0.703
			c0,2.227-0.287,3.814-0.863,4.766c-0.639,1.048-1.805,1.745-3.498,2.09c-0.979,0.202-2.053,0.304-3.223,0.304
			C449.832,38.6,448.9,38.544,447.914,38.434z M451.164,27.271c-0.148,2.142-0.223,4.212-0.223,6.211
			c0,0.755,0.008,1.497,0.025,2.227c0.307,0.053,0.6,0.078,0.877,0.078c0.77,0,1.416-0.198,1.939-0.596
			c0.717-0.534,1.074-1.731,1.074-3.594v-0.039c-0.01-1.875-0.357-3.105-1.049-3.691c-0.531-0.442-1.166-0.664-1.898-0.664
			C451.673,27.203,451.425,27.226,451.164,27.271z"/>
		<path fill="#331842" d="M463.531,28.775c3.029,0,4.545,1.501,4.545,4.502c0,0.364-0.021,0.755-0.064,1.172h-5.855
			c0,1.673,0.432,2.51,1.297,2.51h0.092c0.76-0.046,1.139-0.479,1.139-1.299c0-0.176-0.018-0.371-0.053-0.586l3.119-0.049
			c0,2.479-1.455,3.737-4.363,3.77c-0.035,0.008-0.064,0.011-0.092,0.011c-2.768,0-4.152-1.565-4.152-4.697v-0.293
			C459.23,30.455,460.691,28.775,463.531,28.775z M461.839,32.652h2.961v-0.234c0-1.185-0.449-1.776-1.35-1.776
			C462.482,30.641,461.945,31.312,461.839,32.652z"/>
		<path fill="#331842" d="M472.542,31.803l0.131,7.079l-3.209,0.021c0-2.995-0.135-6.357-0.406-10.088l2.412-0.195l0.131,1.592
			c0.367-0.78,1.223-1.228,2.568-1.338c0.201-0.013,0.393-0.02,0.576-0.02c1.057,0,1.861,0.257,2.41,0.771
			c0.639,0.612,0.961,1.585,0.971,2.92l-2.908,0.216c0.008-0.11,0.014-0.219,0.014-0.322c0-1.042-0.363-1.562-1.088-1.562h-0.053
			C473.25,30.907,472.736,31.217,472.542,31.803z"/>
		<path fill="#331842" d="M483.259,28.775c3.031,0,4.545,1.501,4.545,4.502c0,0.364-0.021,0.755-0.064,1.172h-5.855
			c0,1.673,0.432,2.51,1.297,2.51h0.092c0.76-0.046,1.141-0.479,1.141-1.299c0-0.176-0.018-0.371-0.053-0.586l3.117-0.049
			c0,2.479-1.453,3.737-4.361,3.77c-0.035,0.008-0.066,0.011-0.092,0.011c-2.77,0-4.154-1.565-4.154-4.697v-0.293
			C478.958,30.455,480.421,28.775,483.259,28.775z M481.57,32.652h2.961v-0.234c0-1.185-0.451-1.776-1.352-1.776
			C482.21,30.641,481.673,31.312,481.57,32.652z"/>
		<path fill="#331842" d="M494.146,34.781l3.117,0.146c0,2.351-1.453,3.542-4.361,3.573c-0.035,0.007-0.064,0.011-0.092,0.011
			c-2.77,0-4.152-1.565-4.152-4.697v-0.293c0.086-3.359,1.562-5.057,4.428-5.088h0.104c2.639,0,3.955,1.126,3.955,3.379
			c0,0.13-0.004,0.261-0.012,0.391l-2.816,0.156v-0.234c0-1.185-0.449-1.776-1.35-1.776c-0.918,0-1.375,0.96-1.375,2.881v0.322
			c0.051,2.076,0.516,3.114,1.389,3.114h0.078c0.762-0.046,1.141-0.479,1.141-1.299C494.199,35.191,494.181,34.996,494.146,34.781z"
			/>
		<path fill="#331842" d="M501.468,24.811l0.131,5.498c0.367-0.848,1.225-1.276,2.568-1.289h0.039c1.328,0,2.271,0.449,2.83,1.348
			c0.385,0.612,0.576,2.044,0.576,4.297c0,1.106-0.047,2.415-0.145,3.926h-3.301c0.113-2.012,0.17-3.57,0.17-4.678
			c0-0.554-0.012-0.996-0.039-1.328c-0.086-0.977-0.463-1.465-1.127-1.465s-1.092,0.261-1.283,0.781l0.131,7.08L498.81,39
			c0-2.995-0.18-7.691-0.537-14.092L501.468,24.811z"/>
		<path fill="#331842" d="M513.326,28.775c2.969,0,4.453,1.536,4.453,4.608c0,0.124-0.004,0.247-0.014,0.371
			c-0.123,3.327-1.701,5.008-4.74,5.039c-0.035,0.008-0.07,0.011-0.105,0.011c-2.891,0-4.336-1.572-4.336-4.718v-0.272
			C508.669,30.455,510.251,28.775,513.326,28.775z M512.892,31.002c-0.549,0.145-0.926,0.675-1.125,1.593
			c-0.123,0.547-0.184,1.097-0.184,1.649c0,0.371,0.027,0.745,0.078,1.123c0.141,0.938,0.59,1.423,1.35,1.455h0.092
			c0.707,0,1.193-0.349,1.455-1.045c0.219-0.579,0.326-1.267,0.326-2.062c0-0.194-0.004-0.394-0.012-0.596
			c-0.07-1.048-0.281-1.702-0.629-1.963c-0.219-0.156-0.48-0.234-0.787-0.234C513.281,30.924,513.093,30.95,512.892,31.002z"/>
		<path fill="#331842" d="M518.343,35.338l3-0.106v0.127c0,1.003,0.414,1.511,1.244,1.522h0.053c0.805,0,1.205-0.29,1.205-0.868
			v-0.068c-0.035-0.638-0.828-1.152-2.379-1.543c-1.549-0.391-2.48-1.048-2.797-1.973c-0.113-0.325-0.17-0.639-0.17-0.938
			c0-0.547,0.189-1.055,0.564-1.523c0.574-0.716,1.447-1.126,2.619-1.229c0.314-0.026,0.619-0.039,0.916-0.039
			c0.777,0,1.463,0.101,2.059,0.303c0.811,0.28,1.375,0.682,1.689,1.201c0.209,0.358,0.314,0.755,0.314,1.191
			c0,0.208-0.023,0.423-0.066,0.645l-2.803,0.049c0.025-0.163,0.039-0.312,0.039-0.448c0-0.651-0.279-0.999-0.838-1.045
			c-0.061-0.008-0.123-0.011-0.184-0.011c-0.576,0-0.965,0.219-1.166,0.654c-0.07,0.149-0.105,0.286-0.105,0.41
			c0,0.306,0.193,0.568,0.578,0.791c0.541,0.312,1.342,0.63,2.404,0.952c1.061,0.321,1.773,0.871,2.141,1.646
			c0.131,0.293,0.197,0.586,0.197,0.879c0,0.495-0.193,0.993-0.578,1.494c-0.611,0.801-1.559,1.268-2.842,1.396
			c-0.279,0.031-0.557,0.049-0.826,0.049c-0.961,0-1.852-0.187-2.672-0.558C518.892,37.821,518.361,36.835,518.343,35.338z"/>
		<path fill="#331842" d="M543.378,24.802c-0.104,4.382-0.205,9.102-0.301,14.159h-2.975v-5.692h-3.732v5.233l-3.576-0.01
			c0.104-2.39,0.156-4.727,0.156-7.012c0-2.278-0.053-4.505-0.156-6.681h3.418l-0.143,5.693l3.732,0.117v-6.045L543.378,24.802z"/>
		<path fill="#331842" d="M551.33,38.805l-0.131-1.593c-0.367,0.848-1.354,1.272-2.961,1.279c-0.018,0.007-0.031,0.01-0.039,0.01
			c-1.59,0-2.643-0.533-3.156-1.602c-0.35-0.71-0.523-2.178-0.523-4.404c0-1.146,0.047-2.497,0.145-4.053h3.182
			c-0.174,2.188-0.262,3.87-0.262,5.049c0,0.593,0.023,1.055,0.066,1.387c0.131,1.017,0.57,1.523,1.322,1.523
			c0.75,0,1.223-0.264,1.414-0.791l-0.131-6.777l3.08-0.02c0,2.8,0.135,6.062,0.406,9.785L551.33,38.805z"/>
		<path fill="#331842" d="M556.939,28.57l0.051,1.562c0.473-0.749,1.018-1.214,1.639-1.396c0.367-0.104,0.738-0.156,1.113-0.156
			c0.279,0,0.559,0.026,0.838,0.078c0.682,0.13,1.166,0.651,1.455,1.562c0.227-0.71,0.619-1.185,1.178-1.422
			c0.561-0.236,1.18-0.358,1.861-0.365h0.051c0.664,0,1.301,0.12,1.914,0.36c0.619,0.247,1.094,0.711,1.42,1.393
			c0.328,0.681,0.5,1.612,0.52,2.798v5.674l-2.83,0.049c0.111-2.142,0.17-3.965,0.17-5.469s-0.387-2.314-1.154-2.432
			c-0.113-0.014-0.223-0.021-0.326-0.021c-0.611,0-1.084,0.293-1.416,0.879c-0.051,0.677-0.078,1.468-0.078,2.373
			c0,1.23,0.047,2.666,0.145,4.308l-3.275,0.02c0.121-2.52,0.182-4.354,0.182-5.508V32.74c-0.008-1.14-0.309-1.738-0.902-1.797
			h-0.17c-0.533,0-1.049,0.228-1.547,0.684l0.025,7.148l-3.092,0.088v-1.602c0-2.84-0.057-5.675-0.17-8.507L556.939,28.57z"/>
		<path fill="#331842" d="M574.833,28.492c2.873,0.117,4.309,1.194,4.309,3.232v6.934l-3.053,0.039l-0.104-0.928
			c-0.629,0.534-1.463,0.801-2.502,0.801c-0.445,0-0.926-0.052-1.441-0.156c-1.545-0.286-2.318-1.179-2.318-2.676
			c0-0.183,0.014-0.378,0.039-0.586c0.176-1.543,1.646-2.314,4.416-2.314c0.531,0,1.117,0.029,1.754,0.089v-1.134
			c0-0.918-0.389-1.377-1.166-1.377h-0.051c-0.062-0.007-0.119-0.01-0.172-0.01c-0.846,0-1.27,0.515-1.27,1.543v0.146l-3.119-0.195
			c0-2.272,1.469-3.408,4.402-3.408H574.833z M575.933,36.207v-1.719c-0.375-0.059-0.717-0.088-1.021-0.088
			c-0.795,0-1.336,0.198-1.625,0.596c-0.174,0.241-0.262,0.466-0.262,0.674c0,0.262,0.141,0.491,0.42,0.693
			c0.217,0.156,0.502,0.234,0.852,0.234C574.742,36.598,575.287,36.469,575.933,36.207z"/>
		<path fill="#331842" d="M582.601,28.521l0.131,1.592c0.367-0.847,1.332-1.276,2.895-1.289h0.053c1.537,0,2.586,0.449,3.145,1.348
			c0.385,0.612,0.578,2.044,0.578,4.298c0,1.105-0.049,2.414-0.146,3.926h-3.17c0.113-2.013,0.17-3.571,0.17-4.679
			c0-0.554-0.012-0.995-0.039-1.327c-0.086-0.978-0.506-1.466-1.258-1.466c-0.75,0-1.223,0.262-1.414,0.781l0.131,7.08l-3.08,0.021
			c0-2.995-0.135-6.357-0.404-10.089L582.601,28.521z"/>
		<path fill="#331842" d="M595.099,28.775c2.969,0,4.453,1.536,4.453,4.608c0,0.124-0.004,0.247-0.012,0.371
			c-0.123,3.327-1.703,5.008-4.742,5.039c-0.035,0.008-0.07,0.011-0.105,0.011c-2.891,0-4.336-1.572-4.336-4.718v-0.272
			C590.445,30.455,592.025,28.775,595.099,28.775z M594.667,31.002c-0.551,0.145-0.926,0.675-1.127,1.593
			c-0.123,0.547-0.184,1.097-0.184,1.649c0,0.371,0.025,0.745,0.078,1.123c0.141,0.938,0.59,1.423,1.35,1.455h0.092
			c0.707,0,1.191-0.349,1.453-1.045c0.219-0.579,0.328-1.267,0.328-2.062c0-0.194-0.004-0.394-0.014-0.596
			c-0.068-1.048-0.279-1.702-0.629-1.963c-0.217-0.156-0.479-0.234-0.785-0.234C595.054,30.924,594.867,30.95,594.667,31.002z"/>
		<path fill="#331842" d="M600.117,35.338l3-0.106v0.127c0,1.003,0.414,1.511,1.244,1.522h0.053c0.803,0,1.205-0.29,1.205-0.868
			v-0.068c-0.035-0.638-0.828-1.152-2.377-1.543c-1.551-0.391-2.482-1.048-2.797-1.973c-0.115-0.325-0.172-0.639-0.172-0.938
			c0-0.547,0.188-1.055,0.562-1.523c0.578-0.716,1.451-1.126,2.621-1.229c0.314-0.026,0.619-0.039,0.916-0.039
			c0.777,0,1.463,0.101,2.057,0.303c0.812,0.28,1.375,0.682,1.691,1.201c0.209,0.358,0.312,0.755,0.312,1.191
			c0,0.208-0.021,0.423-0.064,0.645l-2.803,0.049c0.025-0.163,0.039-0.312,0.039-0.448c0-0.651-0.279-0.999-0.84-1.045
			c-0.061-0.008-0.123-0.011-0.184-0.011c-0.576,0-0.965,0.219-1.166,0.654c-0.07,0.149-0.104,0.286-0.104,0.41
			c0,0.306,0.191,0.568,0.576,0.791c0.541,0.312,1.344,0.63,2.404,0.952c1.061,0.321,1.775,0.871,2.141,1.646
			c0.133,0.293,0.197,0.586,0.197,0.879c0,0.495-0.193,0.993-0.576,1.494c-0.611,0.801-1.559,1.268-2.844,1.396
			c-0.279,0.031-0.555,0.049-0.824,0.049c-0.961,0-1.852-0.187-2.674-0.558C600.667,37.821,600.134,36.835,600.117,35.338z"/>
	</g>
</g>
</svg>
