<?xml version="1.0" encoding="utf-8"?>
<!-- Generator: Adobe Illustrator 16.0.0, SVG Export Plug-In . SVG Version: 6.00 Build 0)  -->
<!DOCTYPE svg PUBLIC "-//W3C//DTD SVG 1.1//EN" "http://www.w3.org/Graphics/SVG/1.1/DTD/svg11.dtd">
<svg version="1.1" id="Capa_1" xmlns="http://www.w3.org/2000/svg" xmlns:xlink="http://www.w3.org/1999/xlink" x="0px" y="0px"
	 width="575.11px" height="184.775px" viewBox="0 0 575.11 184.775" enable-background="new 0 0 575.11 184.775"
	 xml:space="preserve">
<g>
	<g>
		<g>
			<path fill="#3C3C3B" d="M319.337,120.129l1.43-0.125c0.067,0.573,0.225,1.043,0.473,1.41c0.247,0.367,0.631,0.664,1.152,0.891
				c0.521,0.227,1.106,0.34,1.758,0.34c0.578,0,1.088-0.086,1.531-0.258c0.442-0.172,0.772-0.407,0.988-0.707
				c0.216-0.3,0.324-0.626,0.324-0.98c0-0.359-0.104-0.673-0.312-0.941c-0.208-0.269-0.552-0.493-1.031-0.676
				c-0.308-0.12-0.987-0.306-2.039-0.559c-1.052-0.253-1.789-0.491-2.211-0.715c-0.547-0.286-0.955-0.642-1.223-1.066
				c-0.269-0.425-0.402-0.899-0.402-1.426c0-0.578,0.164-1.118,0.492-1.621s0.807-0.884,1.438-1.145
				c0.63-0.261,1.331-0.391,2.102-0.391c0.849,0,1.598,0.137,2.246,0.41s1.147,0.676,1.496,1.207
				c0.349,0.531,0.536,1.133,0.562,1.805l-1.453,0.109c-0.078-0.724-0.343-1.271-0.793-1.641c-0.451-0.37-1.116-0.555-1.996-0.555
				c-0.917,0-1.585,0.168-2.004,0.504c-0.419,0.336-0.629,0.741-0.629,1.215c0,0.411,0.148,0.75,0.445,1.016
				c0.292,0.266,1.053,0.538,2.285,0.816c1.231,0.278,2.077,0.522,2.535,0.73c0.667,0.308,1.159,0.696,1.477,1.168
				c0.317,0.472,0.477,1.015,0.477,1.629c0,0.609-0.175,1.184-0.523,1.723c-0.349,0.539-0.851,0.958-1.504,1.258
				c-0.654,0.3-1.39,0.449-2.207,0.449c-1.037,0-1.905-0.151-2.605-0.453c-0.701-0.302-1.25-0.757-1.648-1.363
				S319.357,120.895,319.337,120.129z"/>
			<path fill="#3C3C3B" d="M336.024,121.137l1.453,0.18c-0.229,0.849-0.654,1.508-1.273,1.977c-0.62,0.469-1.412,0.703-2.375,0.703
				c-1.214,0-2.176-0.374-2.887-1.121s-1.066-1.796-1.066-3.145c0-1.396,0.359-2.479,1.078-3.25s1.651-1.156,2.797-1.156
				c1.109,0,2.016,0.378,2.719,1.133s1.055,1.817,1.055,3.188c0,0.083-0.003,0.208-0.008,0.375h-6.188
				c0.052,0.911,0.31,1.609,0.773,2.094c0.463,0.484,1.042,0.727,1.734,0.727c0.516,0,0.956-0.136,1.32-0.406
				C335.521,122.163,335.811,121.73,336.024,121.137z M331.407,118.863h4.633c-0.062-0.698-0.24-1.222-0.531-1.57
				c-0.448-0.542-1.029-0.812-1.742-0.812c-0.646,0-1.189,0.216-1.629,0.648C331.697,117.562,331.454,118.14,331.407,118.863z"/>
			<path fill="#3C3C3B" d="M339.243,123.809v-8.297h1.266v1.18c0.609-0.911,1.489-1.367,2.641-1.367c0.5,0,0.959,0.09,1.379,0.27
				c0.419,0.18,0.733,0.415,0.941,0.707c0.208,0.292,0.354,0.638,0.438,1.039c0.052,0.261,0.078,0.716,0.078,1.367v5.102h-1.406
				v-5.047c0-0.573-0.055-1.001-0.164-1.285s-0.304-0.511-0.582-0.68c-0.279-0.169-0.605-0.254-0.98-0.254
				c-0.599,0-1.116,0.19-1.551,0.57c-0.435,0.38-0.652,1.102-0.652,2.164v4.531H339.243z"/>
			<path fill="#3C3C3B" d="M351.212,122.551l0.203,1.242c-0.396,0.083-0.75,0.125-1.062,0.125c-0.511,0-0.906-0.081-1.188-0.242
				s-0.479-0.374-0.594-0.637c-0.115-0.263-0.172-0.816-0.172-1.66v-4.773h-1.031v-1.094h1.031v-2.055l1.398-0.844v2.898h1.414
				v1.094h-1.414v4.852c0,0.401,0.024,0.659,0.074,0.773c0.049,0.114,0.13,0.206,0.242,0.273c0.112,0.067,0.272,0.102,0.48,0.102
				C350.751,122.605,350.957,122.587,351.212,122.551z"/>
			<path fill="#3C3C3B" d="M358.267,121.137l1.453,0.18c-0.229,0.849-0.654,1.508-1.273,1.977c-0.62,0.469-1.412,0.703-2.375,0.703
				c-1.214,0-2.176-0.374-2.887-1.121s-1.066-1.796-1.066-3.145c0-1.396,0.359-2.479,1.078-3.25s1.651-1.156,2.797-1.156
				c1.109,0,2.016,0.378,2.719,1.133s1.055,1.817,1.055,3.188c0,0.083-0.003,0.208-0.008,0.375h-6.188
				c0.052,0.911,0.31,1.609,0.773,2.094c0.463,0.484,1.042,0.727,1.734,0.727c0.516,0,0.956-0.136,1.32-0.406
				C357.764,122.163,358.053,121.73,358.267,121.137z M353.649,118.863h4.633c-0.062-0.698-0.24-1.222-0.531-1.57
				c-0.448-0.542-1.029-0.812-1.742-0.812c-0.646,0-1.189,0.216-1.629,0.648C353.939,117.562,353.696,118.14,353.649,118.863z"/>
			<path fill="#3C3C3B" d="M361.485,123.809v-8.297h1.266v1.18c0.609-0.911,1.489-1.367,2.641-1.367c0.5,0,0.959,0.09,1.379,0.27
				c0.419,0.18,0.733,0.415,0.941,0.707c0.208,0.292,0.354,0.638,0.438,1.039c0.052,0.261,0.078,0.716,0.078,1.367v5.102h-1.406
				v-5.047c0-0.573-0.055-1.001-0.164-1.285s-0.304-0.511-0.582-0.68c-0.279-0.169-0.605-0.254-0.98-0.254
				c-0.599,0-1.116,0.19-1.551,0.57c-0.435,0.38-0.652,1.102-0.652,2.164v4.531H361.485z"/>
			<path fill="#3C3C3B" d="M375.798,120.77l1.383,0.18c-0.151,0.953-0.538,1.699-1.16,2.238c-0.623,0.539-1.387,0.809-2.293,0.809
				c-1.136,0-2.048-0.371-2.738-1.113c-0.69-0.742-1.035-1.806-1.035-3.191c0-0.896,0.148-1.68,0.445-2.352s0.749-1.176,1.355-1.512
				c0.606-0.336,1.267-0.504,1.98-0.504c0.901,0,1.638,0.228,2.211,0.684c0.573,0.456,0.94,1.103,1.102,1.941l-1.367,0.211
				c-0.13-0.558-0.361-0.977-0.691-1.258c-0.331-0.281-0.73-0.422-1.199-0.422c-0.708,0-1.284,0.254-1.727,0.762
				c-0.443,0.508-0.664,1.312-0.664,2.41c0,1.114,0.213,1.925,0.641,2.43c0.427,0.505,0.984,0.758,1.672,0.758
				c0.552,0,1.013-0.169,1.383-0.508C375.464,121.993,375.699,121.473,375.798,120.77z"/>
			<path fill="#3C3C3B" d="M378.392,113.973v-1.617h1.406v1.617H378.392z M378.392,123.809v-8.297h1.406v8.297H378.392z"/>
			<path fill="#3C3C3B" d="M387.353,122.785c-0.521,0.442-1.022,0.755-1.504,0.938c-0.482,0.183-0.999,0.273-1.551,0.273
				c-0.912,0-1.612-0.223-2.102-0.668c-0.49-0.445-0.734-1.015-0.734-1.707c0-0.406,0.092-0.777,0.277-1.113
				c0.185-0.336,0.427-0.605,0.727-0.809c0.299-0.203,0.637-0.356,1.012-0.461c0.276-0.073,0.692-0.144,1.25-0.211
				c1.135-0.136,1.971-0.297,2.508-0.484c0.005-0.192,0.008-0.315,0.008-0.367c0-0.573-0.133-0.977-0.398-1.211
				c-0.359-0.317-0.894-0.477-1.602-0.477c-0.662,0-1.15,0.116-1.465,0.348c-0.315,0.231-0.548,0.642-0.699,1.23l-1.375-0.188
				c0.125-0.589,0.331-1.063,0.617-1.426c0.286-0.362,0.7-0.641,1.242-0.836c0.542-0.195,1.169-0.293,1.883-0.293
				c0.708,0,1.284,0.083,1.727,0.25c0.442,0.167,0.768,0.376,0.977,0.629c0.208,0.253,0.354,0.571,0.438,0.957
				c0.047,0.239,0.07,0.672,0.07,1.297v1.875c0,1.308,0.03,2.134,0.09,2.48c0.06,0.347,0.178,0.679,0.355,0.996h-1.469
				C387.488,123.517,387.394,123.176,387.353,122.785z M387.235,119.645c-0.511,0.208-1.276,0.386-2.297,0.531
				c-0.578,0.083-0.987,0.177-1.227,0.281c-0.24,0.104-0.425,0.257-0.555,0.457c-0.13,0.2-0.195,0.423-0.195,0.668
				c0,0.375,0.142,0.688,0.426,0.938c0.284,0.25,0.699,0.375,1.246,0.375c0.542,0,1.023-0.118,1.445-0.355s0.731-0.562,0.93-0.973
				c0.151-0.317,0.227-0.786,0.227-1.406V119.645z"/>
			<path fill="#3C3C3B" d="M390.274,121.332l1.391-0.219c0.078,0.558,0.295,0.984,0.652,1.281c0.356,0.297,0.855,0.445,1.496,0.445
				c0.646,0,1.125-0.132,1.438-0.395s0.469-0.571,0.469-0.926c0-0.317-0.138-0.567-0.414-0.75c-0.193-0.125-0.672-0.284-1.438-0.477
				c-1.031-0.261-1.746-0.485-2.145-0.676s-0.701-0.453-0.906-0.789c-0.206-0.336-0.309-0.707-0.309-1.113
				c0-0.37,0.084-0.712,0.254-1.027c0.169-0.315,0.399-0.577,0.691-0.785c0.219-0.161,0.517-0.298,0.895-0.41
				c0.377-0.112,0.782-0.168,1.215-0.168c0.651,0,1.223,0.094,1.715,0.281s0.855,0.441,1.09,0.762s0.396,0.749,0.484,1.285
				l-1.375,0.188c-0.062-0.427-0.244-0.761-0.543-1c-0.3-0.239-0.723-0.359-1.27-0.359c-0.646,0-1.107,0.106-1.383,0.32
				c-0.276,0.214-0.414,0.464-0.414,0.75c0,0.183,0.057,0.347,0.172,0.492c0.114,0.151,0.294,0.276,0.539,0.375
				c0.141,0.052,0.555,0.172,1.242,0.359c0.995,0.266,1.688,0.483,2.082,0.652c0.393,0.169,0.702,0.415,0.926,0.738
				c0.224,0.323,0.336,0.724,0.336,1.203c0,0.469-0.137,0.91-0.41,1.324s-0.668,0.734-1.184,0.961s-1.099,0.34-1.75,0.34
				c-1.078,0-1.9-0.224-2.465-0.672C390.791,122.876,390.431,122.212,390.274,121.332z"/>
			<path fill="#3C3C3B" d="M411.634,119.793l1.516,0.383c-0.318,1.245-0.89,2.194-1.715,2.848c-0.826,0.653-1.835,0.98-3.027,0.98
				c-1.234,0-2.238-0.251-3.012-0.754s-1.362-1.23-1.766-2.184c-0.404-0.953-0.605-1.977-0.605-3.07
				c0-1.192,0.228-2.233,0.684-3.121c0.456-0.888,1.104-1.562,1.945-2.023c0.841-0.461,1.767-0.691,2.777-0.691
				c1.146,0,2.109,0.292,2.891,0.875s1.325,1.403,1.633,2.461l-1.492,0.352c-0.266-0.833-0.651-1.44-1.156-1.82
				c-0.505-0.38-1.141-0.57-1.906-0.57c-0.88,0-1.616,0.211-2.207,0.633c-0.591,0.422-1.007,0.988-1.246,1.699
				c-0.24,0.711-0.359,1.444-0.359,2.199c0,0.974,0.142,1.824,0.426,2.551c0.284,0.727,0.725,1.27,1.324,1.629
				c0.599,0.359,1.247,0.539,1.945,0.539c0.849,0,1.567-0.245,2.156-0.734C411.027,121.483,411.425,120.757,411.634,119.793z"/>
			<path fill="#3C3C3B" d="M414.313,119.66c0-1.536,0.427-2.675,1.281-3.414c0.713-0.614,1.583-0.922,2.609-0.922
				c1.141,0,2.073,0.374,2.797,1.121c0.724,0.747,1.086,1.78,1.086,3.098c0,1.067-0.16,1.907-0.48,2.52s-0.787,1.087-1.398,1.426
				c-0.612,0.339-1.28,0.508-2.004,0.508c-1.162,0-2.101-0.372-2.816-1.117C414.671,122.134,414.313,121.062,414.313,119.66z
				 M415.759,119.66c0,1.062,0.231,1.858,0.695,2.387c0.463,0.528,1.047,0.793,1.75,0.793c0.698,0,1.278-0.266,1.742-0.797
				c0.463-0.531,0.695-1.341,0.695-2.43c0-1.026-0.233-1.804-0.699-2.332c-0.466-0.528-1.046-0.793-1.738-0.793
				c-0.703,0-1.287,0.263-1.75,0.789C415.99,117.804,415.759,118.598,415.759,119.66z"/>
			<path fill="#3C3C3B" d="M423.72,123.809v-8.297h1.266v1.258c0.323-0.589,0.621-0.977,0.895-1.164s0.574-0.281,0.902-0.281
				c0.474,0,0.956,0.151,1.445,0.453l-0.484,1.305c-0.344-0.203-0.688-0.305-1.031-0.305c-0.308,0-0.583,0.093-0.828,0.277
				c-0.245,0.185-0.419,0.441-0.523,0.77c-0.156,0.5-0.234,1.047-0.234,1.641v4.344H423.72z"/>
			<path fill="#3C3C3B" d="M432.134,122.551l0.203,1.242c-0.396,0.083-0.75,0.125-1.062,0.125c-0.511,0-0.906-0.081-1.188-0.242
				s-0.479-0.374-0.594-0.637c-0.115-0.263-0.172-0.816-0.172-1.66v-4.773h-1.031v-1.094h1.031v-2.055l1.398-0.844v2.898h1.414
				v1.094h-1.414v4.852c0,0.401,0.024,0.659,0.074,0.773c0.049,0.114,0.13,0.206,0.242,0.273c0.112,0.067,0.272,0.102,0.48,0.102
				C431.673,122.605,431.878,122.587,432.134,122.551z"/>
			<path fill="#3C3C3B" d="M439.188,121.137l1.453,0.18c-0.229,0.849-0.654,1.508-1.273,1.977c-0.62,0.469-1.412,0.703-2.375,0.703
				c-1.214,0-2.176-0.374-2.887-1.121s-1.066-1.796-1.066-3.145c0-1.396,0.359-2.479,1.078-3.25s1.651-1.156,2.797-1.156
				c1.109,0,2.016,0.378,2.719,1.133s1.055,1.817,1.055,3.188c0,0.083-0.003,0.208-0.008,0.375h-6.188
				c0.052,0.911,0.31,1.609,0.773,2.094c0.463,0.484,1.042,0.727,1.734,0.727c0.516,0,0.956-0.136,1.32-0.406
				C438.686,122.163,438.975,121.73,439.188,121.137z M434.571,118.863h4.633c-0.062-0.698-0.24-1.222-0.531-1.57
				c-0.448-0.542-1.029-0.812-1.742-0.812c-0.646,0-1.189,0.216-1.629,0.648C434.861,117.562,434.618,118.14,434.571,118.863z"/>
			<path fill="#3C3C3B" d="M447.29,123.809v-11.453h1.516v11.453H447.29z"/>
			<path fill="#3C3C3B" d="M451.478,123.809v-11.453h3.945c0.891,0,1.57,0.055,2.039,0.164c0.656,0.151,1.216,0.425,1.68,0.82
				c0.604,0.511,1.056,1.163,1.355,1.957c0.299,0.794,0.449,1.702,0.449,2.723c0,0.87-0.102,1.641-0.305,2.312
				s-0.464,1.228-0.781,1.668c-0.318,0.44-0.666,0.786-1.043,1.039c-0.378,0.253-0.833,0.444-1.367,0.574
				c-0.534,0.13-1.147,0.195-1.84,0.195H451.478z M452.993,122.457h2.445c0.755,0,1.348-0.07,1.777-0.211s0.772-0.339,1.027-0.594
				c0.359-0.359,0.639-0.843,0.84-1.449c0.2-0.606,0.301-1.343,0.301-2.207c0-1.198-0.197-2.118-0.59-2.762
				c-0.394-0.644-0.871-1.074-1.434-1.293c-0.406-0.156-1.06-0.234-1.961-0.234h-2.406V122.457z"/>
			<path fill="#3C3C3B" d="M463.079,123.809v-11.453h1.516v4.703h5.953v-4.703h1.516v11.453h-1.516v-5.398h-5.953v5.398H463.079z"/>
			<path fill="#3C3C3B" d="M474.798,117.113v-1.602h1.602v1.602H474.798z M474.798,123.809v-1.602h1.602v1.602H474.798z"/>
			<path fill="#3C3C3B" d="M483.478,123.809v-11.453h4.32c0.76,0,1.341,0.036,1.742,0.109c0.562,0.094,1.034,0.272,1.414,0.535
				c0.38,0.263,0.686,0.632,0.918,1.105c0.231,0.474,0.348,0.995,0.348,1.562c0,0.974-0.31,1.798-0.93,2.473
				c-0.62,0.675-1.74,1.012-3.359,1.012h-2.938v4.656H483.478z M484.993,117.801h2.961c0.979,0,1.674-0.183,2.086-0.547
				c0.411-0.364,0.617-0.878,0.617-1.539c0-0.479-0.121-0.89-0.363-1.23s-0.562-0.566-0.957-0.676
				c-0.255-0.067-0.727-0.102-1.414-0.102h-2.93V117.801z"/>
			<path fill="#3C3C3B" d="M499.407,123.809v-1.219c-0.646,0.938-1.523,1.406-2.633,1.406c-0.49,0-0.947-0.094-1.371-0.281
				c-0.425-0.188-0.74-0.423-0.945-0.707c-0.206-0.284-0.351-0.632-0.434-1.043c-0.058-0.276-0.086-0.714-0.086-1.312v-5.141h1.406
				v4.602c0,0.734,0.028,1.229,0.086,1.484c0.088,0.37,0.276,0.66,0.562,0.871c0.286,0.211,0.641,0.316,1.062,0.316
				s0.817-0.108,1.188-0.324c0.37-0.216,0.631-0.511,0.785-0.883c0.153-0.372,0.23-0.913,0.23-1.621v-4.445h1.406v8.297H499.407z"/>
			<path fill="#3C3C3B" d="M508.548,121.137l1.453,0.18c-0.229,0.849-0.654,1.508-1.273,1.977c-0.62,0.469-1.412,0.703-2.375,0.703
				c-1.214,0-2.176-0.374-2.887-1.121s-1.066-1.796-1.066-3.145c0-1.396,0.359-2.479,1.078-3.25s1.651-1.156,2.797-1.156
				c1.109,0,2.016,0.378,2.719,1.133s1.055,1.817,1.055,3.188c0,0.083-0.003,0.208-0.008,0.375h-6.188
				c0.052,0.911,0.31,1.609,0.773,2.094c0.463,0.484,1.042,0.727,1.734,0.727c0.516,0,0.956-0.136,1.32-0.406
				C508.045,122.163,508.334,121.73,508.548,121.137z M503.931,118.863h4.633c-0.062-0.698-0.24-1.222-0.531-1.57
				c-0.448-0.542-1.029-0.812-1.742-0.812c-0.646,0-1.189,0.216-1.629,0.648C504.221,117.562,503.978,118.14,503.931,118.863z"/>
			<path fill="#3C3C3B" d="M513.063,123.809h-1.305v-11.453h1.406v4.086c0.594-0.745,1.352-1.117,2.273-1.117
				c0.51,0,0.993,0.103,1.449,0.309c0.456,0.206,0.831,0.495,1.125,0.867c0.294,0.372,0.524,0.821,0.691,1.348
				c0.167,0.526,0.25,1.089,0.25,1.688c0,1.422-0.352,2.521-1.055,3.297s-1.547,1.164-2.531,1.164c-0.979,0-1.748-0.409-2.305-1.227
				V123.809z M513.048,119.598c0,0.995,0.135,1.714,0.406,2.156c0.442,0.724,1.042,1.086,1.797,1.086
				c0.614,0,1.146-0.267,1.594-0.801c0.448-0.534,0.672-1.329,0.672-2.387c0-1.083-0.215-1.883-0.645-2.398
				s-0.949-0.773-1.559-0.773c-0.615,0-1.146,0.267-1.594,0.801C513.271,117.815,513.048,118.587,513.048,119.598z"/>
			<path fill="#3C3C3B" d="M520.634,123.809v-11.453h1.406v11.453H520.634z"/>
			<path fill="#3C3C3B" d="M523.696,119.66c0-1.536,0.427-2.675,1.281-3.414c0.713-0.614,1.583-0.922,2.609-0.922
				c1.141,0,2.073,0.374,2.797,1.121c0.724,0.747,1.086,1.78,1.086,3.098c0,1.067-0.16,1.907-0.48,2.52s-0.787,1.087-1.398,1.426
				c-0.612,0.339-1.28,0.508-2.004,0.508c-1.162,0-2.101-0.372-2.816-1.117C524.054,122.134,523.696,121.062,523.696,119.66z
				 M525.142,119.66c0,1.062,0.231,1.858,0.695,2.387c0.463,0.528,1.047,0.793,1.75,0.793c0.698,0,1.278-0.266,1.742-0.797
				c0.463-0.531,0.695-1.341,0.695-2.43c0-1.026-0.233-1.804-0.699-2.332c-0.466-0.528-1.046-0.793-1.738-0.793
				c-0.703,0-1.287,0.263-1.75,0.789C525.373,117.804,525.142,118.598,525.142,119.66z"/>
			<path fill="#3C3C3B" d="M537.681,123.809v-11.453h4.297c0.875,0,1.577,0.116,2.105,0.348c0.528,0.231,0.942,0.589,1.242,1.07
				c0.299,0.481,0.449,0.985,0.449,1.512c0,0.489-0.133,0.95-0.398,1.383s-0.667,0.781-1.203,1.047
				c0.692,0.203,1.225,0.55,1.598,1.039c0.372,0.489,0.559,1.067,0.559,1.734c0,0.536-0.113,1.035-0.34,1.496
				s-0.507,0.816-0.84,1.066c-0.333,0.25-0.751,0.438-1.254,0.566c-0.503,0.128-1.119,0.191-1.848,0.191H537.681z M539.196,117.168
				h2.477c0.672,0,1.153-0.044,1.445-0.133c0.385-0.114,0.676-0.305,0.871-0.57s0.293-0.599,0.293-1c0-0.38-0.091-0.715-0.273-1.004
				c-0.183-0.289-0.443-0.487-0.781-0.594c-0.339-0.106-0.919-0.16-1.742-0.16h-2.289V117.168z M539.196,122.457h2.852
				c0.489,0,0.833-0.019,1.031-0.055c0.349-0.062,0.641-0.167,0.875-0.312s0.427-0.358,0.578-0.637
				c0.151-0.278,0.227-0.601,0.227-0.965c0-0.427-0.109-0.798-0.328-1.113s-0.522-0.536-0.91-0.664
				c-0.388-0.128-0.947-0.191-1.676-0.191h-2.648V122.457z"/>
			<path fill="#3C3C3B" d="M553.915,121.137l1.453,0.18c-0.229,0.849-0.654,1.508-1.273,1.977c-0.62,0.469-1.412,0.703-2.375,0.703
				c-1.214,0-2.176-0.374-2.887-1.121s-1.066-1.796-1.066-3.145c0-1.396,0.359-2.479,1.078-3.25s1.651-1.156,2.797-1.156
				c1.109,0,2.016,0.378,2.719,1.133s1.055,1.817,1.055,3.188c0,0.083-0.003,0.208-0.008,0.375h-6.188
				c0.052,0.911,0.31,1.609,0.773,2.094c0.463,0.484,1.042,0.727,1.734,0.727c0.516,0,0.956-0.136,1.32-0.406
				C553.412,122.163,553.701,121.73,553.915,121.137z M549.298,118.863h4.633c-0.062-0.698-0.24-1.222-0.531-1.57
				c-0.448-0.542-1.029-0.812-1.742-0.812c-0.646,0-1.189,0.216-1.629,0.648C549.588,117.562,549.345,118.14,549.298,118.863z"/>
			<path fill="#3C3C3B" d="M557.103,123.809v-11.453h1.406v11.453H557.103z"/>
			<path fill="#3C3C3B" d="M560.657,123.809v-11.453h1.406v11.453H560.657z"/>
			<path fill="#3C3C3B" d="M563.72,119.66c0-1.536,0.427-2.675,1.281-3.414c0.713-0.614,1.583-0.922,2.609-0.922
				c1.141,0,2.073,0.374,2.797,1.121c0.724,0.747,1.086,1.78,1.086,3.098c0,1.067-0.16,1.907-0.48,2.52s-0.787,1.087-1.398,1.426
				c-0.612,0.339-1.28,0.508-2.004,0.508c-1.162,0-2.101-0.372-2.816-1.117C564.078,122.134,563.72,121.062,563.72,119.66z
				 M565.165,119.66c0,1.062,0.231,1.858,0.695,2.387c0.463,0.528,1.047,0.793,1.75,0.793c0.698,0,1.278-0.266,1.742-0.797
				c0.463-0.531,0.695-1.341,0.695-2.43c0-1.026-0.233-1.804-0.699-2.332c-0.466-0.528-1.046-0.793-1.738-0.793
				c-0.703,0-1.287,0.263-1.75,0.789C565.396,117.804,565.165,118.598,565.165,119.66z"/>
			<path fill="#3C3C3B" d="M573.509,123.809v-1.602h1.602v1.602c0,0.589-0.104,1.063-0.312,1.426
				c-0.208,0.362-0.539,0.642-0.992,0.84l-0.391-0.602c0.297-0.13,0.516-0.321,0.656-0.574s0.219-0.616,0.234-1.09H573.509z"/>
			<path fill="#3C3C3B" d="M320.11,143.009v-11.453h1.516v11.453H320.11z"/>
			<path fill="#3C3C3B" d="M327.188,141.751l0.203,1.242c-0.396,0.083-0.75,0.125-1.062,0.125c-0.511,0-0.906-0.081-1.188-0.242
				s-0.479-0.374-0.594-0.637c-0.115-0.263-0.172-0.816-0.172-1.66v-4.773h-1.031v-1.094h1.031v-2.055l1.398-0.844v2.898h1.414
				v1.094h-1.414v4.852c0,0.401,0.024,0.659,0.074,0.773c0.049,0.114,0.13,0.206,0.242,0.273c0.112,0.067,0.272,0.102,0.48,0.102
				C326.728,141.806,326.933,141.787,327.188,141.751z"/>
			<path fill="#3C3C3B" d="M334.001,143.009v-1.219c-0.646,0.938-1.523,1.406-2.633,1.406c-0.49,0-0.947-0.094-1.371-0.281
				c-0.425-0.188-0.74-0.423-0.945-0.707c-0.206-0.284-0.351-0.632-0.434-1.043c-0.058-0.276-0.086-0.714-0.086-1.312v-5.141h1.406
				v4.602c0,0.734,0.028,1.229,0.086,1.484c0.088,0.37,0.276,0.66,0.562,0.871c0.286,0.211,0.641,0.316,1.062,0.316
				s0.817-0.108,1.188-0.324c0.37-0.216,0.631-0.511,0.785-0.883c0.153-0.372,0.23-0.913,0.23-1.621v-4.445h1.406v8.297H334.001z"/>
			<path fill="#3C3C3B" d="M342.876,141.985c-0.521,0.442-1.022,0.755-1.504,0.938c-0.482,0.183-0.999,0.273-1.551,0.273
				c-0.912,0-1.612-0.223-2.102-0.668c-0.49-0.445-0.734-1.015-0.734-1.707c0-0.406,0.092-0.777,0.277-1.113
				c0.185-0.336,0.427-0.605,0.727-0.809c0.299-0.203,0.637-0.356,1.012-0.461c0.276-0.073,0.692-0.144,1.25-0.211
				c1.135-0.136,1.971-0.297,2.508-0.484c0.005-0.192,0.008-0.315,0.008-0.367c0-0.573-0.133-0.977-0.398-1.211
				c-0.359-0.317-0.894-0.477-1.602-0.477c-0.662,0-1.15,0.116-1.465,0.348c-0.315,0.231-0.548,0.642-0.699,1.23l-1.375-0.188
				c0.125-0.589,0.331-1.063,0.617-1.426c0.286-0.362,0.7-0.641,1.242-0.836c0.542-0.195,1.169-0.293,1.883-0.293
				c0.708,0,1.284,0.083,1.727,0.25c0.442,0.167,0.768,0.376,0.977,0.629c0.208,0.253,0.354,0.571,0.438,0.957
				c0.047,0.239,0.07,0.672,0.07,1.297v1.875c0,1.308,0.03,2.134,0.09,2.48c0.06,0.347,0.178,0.679,0.355,0.996h-1.469
				C343.011,142.717,342.917,142.376,342.876,141.985z M342.759,138.845c-0.511,0.208-1.276,0.386-2.297,0.531
				c-0.578,0.083-0.987,0.177-1.227,0.281c-0.24,0.104-0.425,0.257-0.555,0.457c-0.13,0.2-0.195,0.423-0.195,0.668
				c0,0.375,0.142,0.688,0.426,0.938c0.284,0.25,0.699,0.375,1.246,0.375c0.542,0,1.023-0.118,1.445-0.355s0.731-0.562,0.93-0.973
				c0.151-0.317,0.227-0.786,0.227-1.406V138.845z"/>
			<path fill="#3C3C3B" d="M346.36,143.009v-8.297h1.266v1.18c0.609-0.911,1.489-1.367,2.641-1.367c0.5,0,0.959,0.09,1.379,0.27
				c0.419,0.18,0.733,0.415,0.941,0.707c0.208,0.292,0.354,0.638,0.438,1.039c0.052,0.261,0.078,0.716,0.078,1.367v5.102h-1.406
				v-5.047c0-0.573-0.055-1.001-0.164-1.285s-0.304-0.511-0.582-0.68c-0.279-0.169-0.605-0.254-0.98-0.254
				c-0.599,0-1.116,0.19-1.551,0.57c-0.435,0.38-0.652,1.102-0.652,2.164v4.531H346.36z"/>
			<path fill="#3C3C3B" d="M355.001,143.696l1.367,0.203c0.057,0.422,0.216,0.729,0.477,0.922c0.349,0.261,0.825,0.391,1.43,0.391
				c0.651,0,1.153-0.13,1.508-0.391c0.354-0.261,0.594-0.625,0.719-1.094c0.073-0.286,0.106-0.888,0.102-1.805
				c-0.615,0.724-1.38,1.086-2.297,1.086c-1.141,0-2.023-0.411-2.648-1.234s-0.938-1.81-0.938-2.961c0-0.792,0.143-1.522,0.43-2.191
				c0.286-0.669,0.702-1.187,1.246-1.551c0.544-0.364,1.184-0.547,1.918-0.547c0.979,0,1.786,0.396,2.422,1.188v-1h1.297v7.172
				c0,1.292-0.132,2.207-0.395,2.746c-0.263,0.539-0.68,0.965-1.25,1.277s-1.272,0.469-2.105,0.469c-0.99,0-1.789-0.223-2.398-0.668
				S354.98,144.592,355.001,143.696z M356.165,138.712c0,1.089,0.216,1.883,0.648,2.383c0.432,0.5,0.974,0.75,1.625,0.75
				c0.646,0,1.188-0.249,1.625-0.746s0.656-1.277,0.656-2.34c0-1.016-0.226-1.781-0.676-2.297c-0.451-0.516-0.994-0.773-1.629-0.773
				c-0.625,0-1.156,0.254-1.594,0.762S356.165,137.712,356.165,138.712z"/>
			<path fill="#3C3C3B" d="M363.634,138.86c0-1.536,0.427-2.675,1.281-3.414c0.713-0.614,1.583-0.922,2.609-0.922
				c1.141,0,2.073,0.374,2.797,1.121c0.724,0.747,1.086,1.78,1.086,3.098c0,1.067-0.16,1.907-0.48,2.52s-0.787,1.087-1.398,1.426
				c-0.612,0.339-1.28,0.508-2.004,0.508c-1.162,0-2.101-0.372-2.816-1.117C363.992,141.334,363.634,140.262,363.634,138.86z
				 M365.079,138.86c0,1.062,0.231,1.858,0.695,2.387c0.463,0.528,1.047,0.793,1.75,0.793c0.698,0,1.278-0.266,1.742-0.797
				c0.463-0.531,0.695-1.341,0.695-2.43c0-1.026-0.233-1.804-0.699-2.332c-0.466-0.528-1.046-0.793-1.738-0.793
				c-0.703,0-1.287,0.263-1.75,0.789C365.311,137.004,365.079,137.798,365.079,138.86z"/>
			<path fill="#3C3C3B" d="M373.423,143.009v-1.602h1.602v1.602c0,0.589-0.104,1.063-0.312,1.426
				c-0.208,0.362-0.539,0.642-0.992,0.84l-0.391-0.602c0.297-0.13,0.516-0.321,0.656-0.574s0.219-0.616,0.234-1.09H373.423z"/>
			<path fill="#3C3C3B" d="M382.079,143.009v-11.453h2.281l2.711,8.109c0.25,0.755,0.432,1.32,0.547,1.695
				c0.13-0.417,0.333-1.028,0.609-1.836l2.742-7.969h2.039v11.453h-1.461v-9.586l-3.328,9.586h-1.367l-3.312-9.75v9.75H382.079z"/>
			<path fill="#3C3C3B" d="M400.954,140.337l1.453,0.18c-0.229,0.849-0.654,1.508-1.273,1.977c-0.62,0.469-1.412,0.703-2.375,0.703
				c-1.214,0-2.176-0.374-2.887-1.121s-1.066-1.796-1.066-3.145c0-1.396,0.359-2.479,1.078-3.25s1.651-1.156,2.797-1.156
				c1.109,0,2.016,0.378,2.719,1.133s1.055,1.817,1.055,3.188c0,0.083-0.003,0.208-0.008,0.375h-6.188
				c0.052,0.911,0.31,1.609,0.773,2.094c0.463,0.484,1.042,0.727,1.734,0.727c0.516,0,0.956-0.136,1.32-0.406
				C400.451,141.363,400.74,140.931,400.954,140.337z M396.337,138.063h4.633c-0.062-0.698-0.24-1.222-0.531-1.57
				c-0.448-0.542-1.029-0.812-1.742-0.812c-0.646,0-1.189,0.216-1.629,0.648C396.627,136.762,396.384,137.34,396.337,138.063z"/>
			<path fill="#3C3C3B" d="M409.556,143.009v-1.047c-0.526,0.823-1.3,1.234-2.32,1.234c-0.662,0-1.27-0.183-1.824-0.547
				s-0.984-0.874-1.289-1.527s-0.457-1.405-0.457-2.254c0-0.828,0.138-1.579,0.414-2.254c0.276-0.675,0.69-1.191,1.242-1.551
				c0.552-0.359,1.169-0.539,1.852-0.539c0.5,0,0.945,0.105,1.336,0.316s0.708,0.485,0.953,0.824v-4.109h1.398v11.453H409.556z
				 M405.11,138.868c0,1.062,0.224,1.856,0.672,2.383c0.448,0.526,0.977,0.789,1.586,0.789c0.614,0,1.137-0.251,1.566-0.754
				s0.645-1.27,0.645-2.301c0-1.136-0.219-1.969-0.656-2.5s-0.977-0.797-1.617-0.797c-0.625,0-1.147,0.255-1.566,0.766
				C405.32,136.965,405.11,137.77,405.11,138.868z"/>
			<path fill="#3C3C3B" d="M418.751,140.337l1.453,0.18c-0.229,0.849-0.654,1.508-1.273,1.977c-0.62,0.469-1.412,0.703-2.375,0.703
				c-1.214,0-2.176-0.374-2.887-1.121s-1.066-1.796-1.066-3.145c0-1.396,0.359-2.479,1.078-3.25s1.651-1.156,2.797-1.156
				c1.109,0,2.016,0.378,2.719,1.133s1.055,1.817,1.055,3.188c0,0.083-0.003,0.208-0.008,0.375h-6.188
				c0.052,0.911,0.31,1.609,0.773,2.094c0.463,0.484,1.042,0.727,1.734,0.727c0.516,0,0.956-0.136,1.32-0.406
				C418.248,141.363,418.537,140.931,418.751,140.337z M414.134,138.063h4.633c-0.062-0.698-0.24-1.222-0.531-1.57
				c-0.448-0.542-1.029-0.812-1.742-0.812c-0.646,0-1.189,0.216-1.629,0.648C414.424,136.762,414.181,137.34,414.134,138.063z"/>
			<path fill="#3C3C3B" d="M421.938,143.009v-11.453h1.406v11.453H421.938z"/>
			<path fill="#3C3C3B" d="M425.493,143.009v-11.453h1.406v11.453H425.493z"/>
			<path fill="#3C3C3B" d="M429.501,133.681l1.039-2.188h1.844l-1.719,2.188H429.501z M429.571,143.009v-8.297h1.406v8.297H429.571z
				"/>
			<path fill="#3C3C3B" d="M433.524,143.009v-8.297h1.266v1.18c0.609-0.911,1.489-1.367,2.641-1.367c0.5,0,0.959,0.09,1.379,0.27
				c0.419,0.18,0.733,0.415,0.941,0.707c0.208,0.292,0.354,0.638,0.438,1.039c0.052,0.261,0.078,0.716,0.078,1.367v5.102h-1.406
				v-5.047c0-0.573-0.055-1.001-0.164-1.285s-0.304-0.511-0.582-0.68c-0.279-0.169-0.605-0.254-0.98-0.254
				c-0.599,0-1.116,0.19-1.551,0.57c-0.435,0.38-0.652,1.102-0.652,2.164v4.531H433.524z"/>
			<path fill="#3C3C3B" d="M442.821,143.009v-1.602h1.602v1.602H442.821z"/>
			<path fill="#3C3C3B" d="M319.337,158.528l1.43-0.125c0.067,0.573,0.225,1.043,0.473,1.41c0.247,0.367,0.631,0.664,1.152,0.891
				c0.521,0.227,1.106,0.34,1.758,0.34c0.578,0,1.088-0.086,1.531-0.258c0.442-0.172,0.772-0.407,0.988-0.707
				c0.216-0.3,0.324-0.626,0.324-0.98c0-0.359-0.104-0.673-0.312-0.941c-0.208-0.269-0.552-0.493-1.031-0.676
				c-0.308-0.12-0.987-0.306-2.039-0.559c-1.052-0.253-1.789-0.491-2.211-0.715c-0.547-0.286-0.955-0.642-1.223-1.066
				c-0.269-0.425-0.402-0.899-0.402-1.426c0-0.578,0.164-1.118,0.492-1.621s0.807-0.884,1.438-1.145
				c0.63-0.261,1.331-0.391,2.102-0.391c0.849,0,1.598,0.137,2.246,0.41s1.147,0.676,1.496,1.207
				c0.349,0.531,0.536,1.133,0.562,1.805l-1.453,0.109c-0.078-0.724-0.343-1.271-0.793-1.641c-0.451-0.37-1.116-0.555-1.996-0.555
				c-0.917,0-1.585,0.168-2.004,0.504c-0.419,0.336-0.629,0.741-0.629,1.215c0,0.411,0.148,0.75,0.445,1.016
				c0.292,0.266,1.053,0.538,2.285,0.816c1.231,0.278,2.077,0.522,2.535,0.73c0.667,0.308,1.159,0.696,1.477,1.168
				c0.317,0.472,0.477,1.015,0.477,1.629c0,0.609-0.175,1.184-0.523,1.723c-0.349,0.539-0.851,0.958-1.504,1.258
				c-0.654,0.3-1.39,0.449-2.207,0.449c-1.037,0-1.905-0.151-2.605-0.453c-0.701-0.302-1.25-0.757-1.648-1.363
				S319.357,159.294,319.337,158.528z"/>
			<path fill="#3C3C3B" d="M336.024,159.536l1.453,0.18c-0.229,0.849-0.654,1.508-1.273,1.977c-0.62,0.469-1.412,0.703-2.375,0.703
				c-1.214,0-2.176-0.374-2.887-1.121s-1.066-1.796-1.066-3.145c0-1.396,0.359-2.479,1.078-3.25s1.651-1.156,2.797-1.156
				c1.109,0,2.016,0.378,2.719,1.133s1.055,1.817,1.055,3.188c0,0.083-0.003,0.208-0.008,0.375h-6.188
				c0.052,0.911,0.31,1.609,0.773,2.094c0.463,0.484,1.042,0.727,1.734,0.727c0.516,0,0.956-0.136,1.32-0.406
				C335.521,160.562,335.811,160.13,336.024,159.536z M331.407,157.263h4.633c-0.062-0.698-0.24-1.222-0.531-1.57
				c-0.448-0.542-1.029-0.812-1.742-0.812c-0.646,0-1.189,0.216-1.629,0.648C331.697,155.961,331.454,156.539,331.407,157.263z"/>
			<path fill="#3C3C3B" d="M339.243,162.208v-8.297h1.266v1.18c0.609-0.911,1.489-1.367,2.641-1.367c0.5,0,0.959,0.09,1.379,0.27
				c0.419,0.18,0.733,0.415,0.941,0.707c0.208,0.292,0.354,0.638,0.438,1.039c0.052,0.261,0.078,0.716,0.078,1.367v5.102h-1.406
				v-5.047c0-0.573-0.055-1.001-0.164-1.285s-0.304-0.511-0.582-0.68c-0.279-0.169-0.605-0.254-0.98-0.254
				c-0.599,0-1.116,0.19-1.551,0.57c-0.435,0.38-0.652,1.102-0.652,2.164v4.531H339.243z"/>
			<path fill="#3C3C3B" d="M351.212,160.95l0.203,1.242c-0.396,0.083-0.75,0.125-1.062,0.125c-0.511,0-0.906-0.081-1.188-0.242
				s-0.479-0.374-0.594-0.637c-0.115-0.263-0.172-0.816-0.172-1.66v-4.773h-1.031v-1.094h1.031v-2.055l1.398-0.844v2.898h1.414
				v1.094h-1.414v4.852c0,0.401,0.024,0.659,0.074,0.773c0.049,0.114,0.13,0.206,0.242,0.273c0.112,0.067,0.272,0.102,0.48,0.102
				C350.751,161.005,350.957,160.986,351.212,160.95z"/>
			<path fill="#3C3C3B" d="M358.267,159.536l1.453,0.18c-0.229,0.849-0.654,1.508-1.273,1.977c-0.62,0.469-1.412,0.703-2.375,0.703
				c-1.214,0-2.176-0.374-2.887-1.121s-1.066-1.796-1.066-3.145c0-1.396,0.359-2.479,1.078-3.25s1.651-1.156,2.797-1.156
				c1.109,0,2.016,0.378,2.719,1.133s1.055,1.817,1.055,3.188c0,0.083-0.003,0.208-0.008,0.375h-6.188
				c0.052,0.911,0.31,1.609,0.773,2.094c0.463,0.484,1.042,0.727,1.734,0.727c0.516,0,0.956-0.136,1.32-0.406
				C357.764,160.562,358.053,160.13,358.267,159.536z M353.649,157.263h4.633c-0.062-0.698-0.24-1.222-0.531-1.57
				c-0.448-0.542-1.029-0.812-1.742-0.812c-0.646,0-1.189,0.216-1.629,0.648C353.939,155.961,353.696,156.539,353.649,157.263z"/>
			<path fill="#3C3C3B" d="M361.485,162.208v-8.297h1.266v1.18c0.609-0.911,1.489-1.367,2.641-1.367c0.5,0,0.959,0.09,1.379,0.27
				c0.419,0.18,0.733,0.415,0.941,0.707c0.208,0.292,0.354,0.638,0.438,1.039c0.052,0.261,0.078,0.716,0.078,1.367v5.102h-1.406
				v-5.047c0-0.573-0.055-1.001-0.164-1.285s-0.304-0.511-0.582-0.68c-0.279-0.169-0.605-0.254-0.98-0.254
				c-0.599,0-1.116,0.19-1.551,0.57c-0.435,0.38-0.652,1.102-0.652,2.164v4.531H361.485z"/>
			<path fill="#3C3C3B" d="M375.798,159.169l1.383,0.18c-0.151,0.953-0.538,1.699-1.16,2.238c-0.623,0.539-1.387,0.809-2.293,0.809
				c-1.136,0-2.048-0.371-2.738-1.113c-0.69-0.742-1.035-1.806-1.035-3.191c0-0.896,0.148-1.68,0.445-2.352s0.749-1.176,1.355-1.512
				c0.606-0.336,1.267-0.504,1.98-0.504c0.901,0,1.638,0.228,2.211,0.684c0.573,0.456,0.94,1.103,1.102,1.941l-1.367,0.211
				c-0.13-0.558-0.361-0.977-0.691-1.258c-0.331-0.281-0.73-0.422-1.199-0.422c-0.708,0-1.284,0.254-1.727,0.762
				c-0.443,0.508-0.664,1.312-0.664,2.41c0,1.114,0.213,1.925,0.641,2.43c0.427,0.505,0.984,0.758,1.672,0.758
				c0.552,0,1.013-0.169,1.383-0.508C375.464,160.393,375.699,159.872,375.798,159.169z"/>
			<path fill="#3C3C3B" d="M378.392,152.372v-1.617h1.406v1.617H378.392z M378.392,162.208v-8.297h1.406v8.297H378.392z"/>
			<path fill="#3C3C3B" d="M387.353,161.185c-0.521,0.442-1.022,0.755-1.504,0.938c-0.482,0.183-0.999,0.273-1.551,0.273
				c-0.912,0-1.612-0.223-2.102-0.668c-0.49-0.445-0.734-1.015-0.734-1.707c0-0.406,0.092-0.777,0.277-1.113
				c0.185-0.336,0.427-0.605,0.727-0.809c0.299-0.203,0.637-0.356,1.012-0.461c0.276-0.073,0.692-0.144,1.25-0.211
				c1.135-0.136,1.971-0.297,2.508-0.484c0.005-0.192,0.008-0.315,0.008-0.367c0-0.573-0.133-0.977-0.398-1.211
				c-0.359-0.317-0.894-0.477-1.602-0.477c-0.662,0-1.15,0.116-1.465,0.348c-0.315,0.231-0.548,0.642-0.699,1.23l-1.375-0.188
				c0.125-0.589,0.331-1.063,0.617-1.426c0.286-0.362,0.7-0.641,1.242-0.836c0.542-0.195,1.169-0.293,1.883-0.293
				c0.708,0,1.284,0.083,1.727,0.25c0.442,0.167,0.768,0.376,0.977,0.629c0.208,0.253,0.354,0.571,0.438,0.957
				c0.047,0.239,0.07,0.672,0.07,1.297v1.875c0,1.308,0.03,2.134,0.09,2.48c0.06,0.347,0.178,0.679,0.355,0.996h-1.469
				C387.488,161.916,387.394,161.575,387.353,161.185z M387.235,158.044c-0.511,0.208-1.276,0.386-2.297,0.531
				c-0.578,0.083-0.987,0.177-1.227,0.281c-0.24,0.104-0.425,0.257-0.555,0.457c-0.13,0.2-0.195,0.423-0.195,0.668
				c0,0.375,0.142,0.688,0.426,0.938c0.284,0.25,0.699,0.375,1.246,0.375c0.542,0,1.023-0.118,1.445-0.355s0.731-0.562,0.93-0.973
				c0.151-0.317,0.227-0.786,0.227-1.406V158.044z"/>
			<path fill="#3C3C3B" d="M390.274,159.731l1.391-0.219c0.078,0.558,0.295,0.984,0.652,1.281c0.356,0.297,0.855,0.445,1.496,0.445
				c0.646,0,1.125-0.132,1.438-0.395s0.469-0.571,0.469-0.926c0-0.317-0.138-0.567-0.414-0.75c-0.193-0.125-0.672-0.284-1.438-0.477
				c-1.031-0.261-1.746-0.485-2.145-0.676s-0.701-0.453-0.906-0.789c-0.206-0.336-0.309-0.707-0.309-1.113
				c0-0.37,0.084-0.712,0.254-1.027c0.169-0.315,0.399-0.577,0.691-0.785c0.219-0.161,0.517-0.298,0.895-0.41
				c0.377-0.112,0.782-0.168,1.215-0.168c0.651,0,1.223,0.094,1.715,0.281s0.855,0.441,1.09,0.762s0.396,0.749,0.484,1.285
				l-1.375,0.188c-0.062-0.427-0.244-0.761-0.543-1c-0.3-0.239-0.723-0.359-1.27-0.359c-0.646,0-1.107,0.106-1.383,0.32
				c-0.276,0.214-0.414,0.464-0.414,0.75c0,0.183,0.057,0.347,0.172,0.492c0.114,0.151,0.294,0.276,0.539,0.375
				c0.141,0.052,0.555,0.172,1.242,0.359c0.995,0.266,1.688,0.483,2.082,0.652c0.393,0.169,0.702,0.415,0.926,0.738
				c0.224,0.323,0.336,0.724,0.336,1.203c0,0.469-0.137,0.91-0.41,1.324s-0.668,0.734-1.184,0.961s-1.099,0.34-1.75,0.34
				c-1.078,0-1.9-0.224-2.465-0.672C390.791,161.275,390.431,160.611,390.274,159.731z"/>
			<path fill="#3C3C3B" d="M408.665,162.208v-1.047c-0.526,0.823-1.3,1.234-2.32,1.234c-0.662,0-1.27-0.183-1.824-0.547
				s-0.984-0.874-1.289-1.527s-0.457-1.405-0.457-2.254c0-0.828,0.138-1.579,0.414-2.254c0.276-0.675,0.69-1.191,1.242-1.551
				c0.552-0.359,1.169-0.539,1.852-0.539c0.5,0,0.945,0.105,1.336,0.316s0.708,0.485,0.953,0.824v-4.109h1.398v11.453H408.665z
				 M404.22,158.067c0,1.062,0.224,1.856,0.672,2.383c0.448,0.526,0.977,0.789,1.586,0.789c0.614,0,1.137-0.251,1.566-0.754
				s0.645-1.27,0.645-2.301c0-1.136-0.219-1.969-0.656-2.5s-0.977-0.797-1.617-0.797c-0.625,0-1.147,0.255-1.566,0.766
				C404.429,156.164,404.22,156.969,404.22,158.067z"/>
			<path fill="#3C3C3B" d="M417.86,159.536l1.453,0.18c-0.229,0.849-0.654,1.508-1.273,1.977c-0.62,0.469-1.412,0.703-2.375,0.703
				c-1.214,0-2.176-0.374-2.887-1.121s-1.066-1.796-1.066-3.145c0-1.396,0.359-2.479,1.078-3.25s1.651-1.156,2.797-1.156
				c1.109,0,2.016,0.378,2.719,1.133s1.055,1.817,1.055,3.188c0,0.083-0.003,0.208-0.008,0.375h-6.188
				c0.052,0.911,0.31,1.609,0.773,2.094c0.463,0.484,1.042,0.727,1.734,0.727c0.516,0,0.956-0.136,1.32-0.406
				C417.357,160.562,417.646,160.13,417.86,159.536z M413.243,157.263h4.633c-0.062-0.698-0.24-1.222-0.531-1.57
				c-0.448-0.542-1.029-0.812-1.742-0.812c-0.646,0-1.189,0.216-1.629,0.648C413.533,155.961,413.29,156.539,413.243,157.263z"/>
			<path fill="#3C3C3B" d="M424.931,158.958l1.367-0.188c0.036,0.875,0.2,1.474,0.492,1.797c0.292,0.323,0.695,0.484,1.211,0.484
				c0.38,0,0.708-0.087,0.984-0.262c0.276-0.175,0.466-0.411,0.57-0.711c0.104-0.3,0.156-0.777,0.156-1.434v-7.891h1.516v7.805
				c0,0.958-0.116,1.7-0.348,2.227c-0.232,0.526-0.599,0.927-1.102,1.203c-0.503,0.276-1.093,0.414-1.77,0.414
				c-1.005,0-1.775-0.289-2.309-0.867C425.166,160.958,424.91,160.099,424.931,158.958z"/>
			<path fill="#3C3C3B" d="M438.962,162.208v-1.219c-0.646,0.938-1.523,1.406-2.633,1.406c-0.49,0-0.947-0.094-1.371-0.281
				c-0.425-0.188-0.74-0.423-0.945-0.707c-0.206-0.284-0.351-0.632-0.434-1.043c-0.058-0.276-0.086-0.714-0.086-1.312v-5.141h1.406
				v4.602c0,0.734,0.028,1.229,0.086,1.484c0.088,0.37,0.276,0.66,0.562,0.871c0.286,0.211,0.641,0.316,1.062,0.316
				s0.817-0.108,1.188-0.324c0.37-0.216,0.631-0.511,0.785-0.883c0.153-0.372,0.23-0.913,0.23-1.621v-4.445h1.406v8.297H438.962z"/>
			<path fill="#3C3C3B" d="M441.86,159.731l1.391-0.219c0.078,0.558,0.295,0.984,0.652,1.281c0.356,0.297,0.855,0.445,1.496,0.445
				c0.646,0,1.125-0.132,1.438-0.395s0.469-0.571,0.469-0.926c0-0.317-0.138-0.567-0.414-0.75c-0.193-0.125-0.672-0.284-1.438-0.477
				c-1.031-0.261-1.746-0.485-2.145-0.676s-0.701-0.453-0.906-0.789c-0.206-0.336-0.309-0.707-0.309-1.113
				c0-0.37,0.084-0.712,0.254-1.027c0.169-0.315,0.399-0.577,0.691-0.785c0.219-0.161,0.517-0.298,0.895-0.41
				c0.377-0.112,0.782-0.168,1.215-0.168c0.651,0,1.223,0.094,1.715,0.281s0.855,0.441,1.09,0.762s0.396,0.749,0.484,1.285
				l-1.375,0.188c-0.062-0.427-0.244-0.761-0.543-1c-0.3-0.239-0.723-0.359-1.27-0.359c-0.646,0-1.107,0.106-1.383,0.32
				c-0.276,0.214-0.414,0.464-0.414,0.75c0,0.183,0.057,0.347,0.172,0.492c0.114,0.151,0.294,0.276,0.539,0.375
				c0.141,0.052,0.555,0.172,1.242,0.359c0.995,0.266,1.688,0.483,2.082,0.652c0.393,0.169,0.702,0.415,0.926,0.738
				c0.224,0.323,0.336,0.724,0.336,1.203c0,0.469-0.137,0.91-0.41,1.324s-0.668,0.734-1.184,0.961s-1.099,0.34-1.75,0.34
				c-1.078,0-1.9-0.224-2.465-0.672C442.377,161.275,442.017,160.611,441.86,159.731z"/>
			<path fill="#3C3C3B" d="M453.493,160.95l0.203,1.242c-0.396,0.083-0.75,0.125-1.062,0.125c-0.511,0-0.906-0.081-1.188-0.242
				s-0.479-0.374-0.594-0.637c-0.115-0.263-0.172-0.816-0.172-1.66v-4.773h-1.031v-1.094h1.031v-2.055l1.398-0.844v2.898h1.414
				v1.094h-1.414v4.852c0,0.401,0.024,0.659,0.074,0.773c0.049,0.114,0.13,0.206,0.242,0.273c0.112,0.067,0.272,0.102,0.48,0.102
				C453.032,161.005,453.238,160.986,453.493,160.95z"/>
			<path fill="#3C3C3B" d="M454.876,152.372v-1.617h1.406v1.617H454.876z M454.876,162.208v-8.297h1.406v8.297H454.876z"/>
			<path fill="#3C3C3B" d="M463.837,159.169l1.383,0.18c-0.151,0.953-0.538,1.699-1.16,2.238c-0.623,0.539-1.387,0.809-2.293,0.809
				c-1.136,0-2.048-0.371-2.738-1.113c-0.69-0.742-1.035-1.806-1.035-3.191c0-0.896,0.148-1.68,0.445-2.352s0.749-1.176,1.355-1.512
				c0.606-0.336,1.267-0.504,1.98-0.504c0.901,0,1.638,0.228,2.211,0.684c0.573,0.456,0.94,1.103,1.102,1.941l-1.367,0.211
				c-0.13-0.558-0.361-0.977-0.691-1.258c-0.331-0.281-0.73-0.422-1.199-0.422c-0.708,0-1.284,0.254-1.727,0.762
				c-0.443,0.508-0.664,1.312-0.664,2.41c0,1.114,0.213,1.925,0.641,2.43c0.427,0.505,0.984,0.758,1.672,0.758
				c0.552,0,1.013-0.169,1.383-0.508C463.503,160.393,463.738,159.872,463.837,159.169z"/>
			<path fill="#3C3C3B" d="M466.431,152.372v-1.617h1.406v1.617H466.431z M466.431,162.208v-8.297h1.406v8.297H466.431z"/>
			<path fill="#3C3C3B" d="M475.392,161.185c-0.521,0.442-1.022,0.755-1.504,0.938c-0.482,0.183-0.999,0.273-1.551,0.273
				c-0.912,0-1.612-0.223-2.102-0.668c-0.49-0.445-0.734-1.015-0.734-1.707c0-0.406,0.092-0.777,0.277-1.113
				c0.185-0.336,0.427-0.605,0.727-0.809c0.299-0.203,0.637-0.356,1.012-0.461c0.276-0.073,0.692-0.144,1.25-0.211
				c1.135-0.136,1.971-0.297,2.508-0.484c0.005-0.192,0.008-0.315,0.008-0.367c0-0.573-0.133-0.977-0.398-1.211
				c-0.359-0.317-0.894-0.477-1.602-0.477c-0.662,0-1.15,0.116-1.465,0.348c-0.315,0.231-0.548,0.642-0.699,1.23l-1.375-0.188
				c0.125-0.589,0.331-1.063,0.617-1.426c0.286-0.362,0.7-0.641,1.242-0.836c0.542-0.195,1.169-0.293,1.883-0.293
				c0.708,0,1.284,0.083,1.727,0.25c0.442,0.167,0.768,0.376,0.977,0.629c0.208,0.253,0.354,0.571,0.438,0.957
				c0.047,0.239,0.07,0.672,0.07,1.297v1.875c0,1.308,0.03,2.134,0.09,2.48c0.06,0.347,0.178,0.679,0.355,0.996h-1.469
				C475.527,161.916,475.433,161.575,475.392,161.185z M475.274,158.044c-0.511,0.208-1.276,0.386-2.297,0.531
				c-0.578,0.083-0.987,0.177-1.227,0.281c-0.24,0.104-0.425,0.257-0.555,0.457c-0.13,0.2-0.195,0.423-0.195,0.668
				c0,0.375,0.142,0.688,0.426,0.938c0.284,0.25,0.699,0.375,1.246,0.375c0.542,0,1.023-0.118,1.445-0.355s0.731-0.562,0.93-0.973
				c0.151-0.317,0.227-0.786,0.227-1.406V158.044z"/>
			<path fill="#3C3C3B" d="M483.259,165.403l-0.156-1.32c0.307,0.083,0.575,0.125,0.805,0.125c0.312,0,0.562-0.052,0.75-0.156
				s0.341-0.25,0.461-0.438c0.088-0.141,0.231-0.489,0.43-1.047c0.026-0.078,0.067-0.192,0.125-0.344l-3.148-8.312h1.516
				l1.727,4.805c0.224,0.609,0.424,1.25,0.602,1.922c0.161-0.646,0.354-1.276,0.578-1.891l1.773-4.836h1.406l-3.156,8.438
				c-0.339,0.911-0.602,1.539-0.789,1.883c-0.25,0.464-0.537,0.804-0.859,1.02c-0.323,0.216-0.708,0.324-1.156,0.324
				C483.894,165.575,483.592,165.518,483.259,165.403z"/>
			<path fill="#3C3C3B" d="M495.946,162.208v-11.453h4.32c0.76,0,1.341,0.036,1.742,0.109c0.562,0.094,1.034,0.272,1.414,0.535
				c0.38,0.263,0.686,0.632,0.918,1.105c0.231,0.474,0.348,0.995,0.348,1.562c0,0.974-0.31,1.798-0.93,2.473
				c-0.62,0.675-1.74,1.012-3.359,1.012h-2.938v4.656H495.946z M497.462,156.2h2.961c0.979,0,1.674-0.183,2.086-0.547
				c0.411-0.364,0.617-0.878,0.617-1.539c0-0.479-0.121-0.89-0.363-1.23s-0.562-0.566-0.957-0.676
				c-0.255-0.067-0.727-0.102-1.414-0.102h-2.93V156.2z"/>
			<path fill="#3C3C3B" d="M511.853,161.185c-0.521,0.442-1.022,0.755-1.504,0.938c-0.482,0.183-0.999,0.273-1.551,0.273
				c-0.912,0-1.612-0.223-2.102-0.668c-0.49-0.445-0.734-1.015-0.734-1.707c0-0.406,0.092-0.777,0.277-1.113
				c0.185-0.336,0.427-0.605,0.727-0.809c0.299-0.203,0.637-0.356,1.012-0.461c0.276-0.073,0.692-0.144,1.25-0.211
				c1.135-0.136,1.971-0.297,2.508-0.484c0.005-0.192,0.008-0.315,0.008-0.367c0-0.573-0.133-0.977-0.398-1.211
				c-0.359-0.317-0.894-0.477-1.602-0.477c-0.662,0-1.15,0.116-1.465,0.348c-0.315,0.231-0.548,0.642-0.699,1.23l-1.375-0.188
				c0.125-0.589,0.331-1.063,0.617-1.426c0.286-0.362,0.7-0.641,1.242-0.836c0.542-0.195,1.169-0.293,1.883-0.293
				c0.708,0,1.284,0.083,1.727,0.25c0.442,0.167,0.768,0.376,0.977,0.629c0.208,0.253,0.354,0.571,0.438,0.957
				c0.047,0.239,0.07,0.672,0.07,1.297v1.875c0,1.308,0.03,2.134,0.09,2.48c0.06,0.347,0.178,0.679,0.355,0.996h-1.469
				C511.988,161.916,511.894,161.575,511.853,161.185z M511.735,158.044c-0.511,0.208-1.276,0.386-2.297,0.531
				c-0.578,0.083-0.987,0.177-1.227,0.281c-0.24,0.104-0.425,0.257-0.555,0.457c-0.13,0.2-0.195,0.423-0.195,0.668
				c0,0.375,0.142,0.688,0.426,0.938c0.284,0.25,0.699,0.375,1.246,0.375c0.542,0,1.023-0.118,1.445-0.355s0.731-0.562,0.93-0.973
				c0.151-0.317,0.227-0.786,0.227-1.406V158.044z"/>
			<path fill="#3C3C3B" d="M514.595,162.208v-1.141l5.281-6.062c-0.599,0.031-1.128,0.047-1.586,0.047h-3.383v-1.141h6.781v0.93
				l-4.492,5.266l-0.867,0.961c0.63-0.047,1.221-0.07,1.773-0.07h3.836v1.211H514.595z"/>
			<path fill="#3C3C3B" d="M523.728,155.513v-1.602h1.602v1.602H523.728z M523.728,162.208v-1.602h1.602v1.602H523.728z"/>
			<path fill="#3C3C3B" d="M532.407,162.208v-11.453h4.32c0.76,0,1.341,0.036,1.742,0.109c0.562,0.094,1.034,0.272,1.414,0.535
				c0.38,0.263,0.686,0.632,0.918,1.105c0.231,0.474,0.348,0.995,0.348,1.562c0,0.974-0.31,1.798-0.93,2.473
				c-0.62,0.675-1.74,1.012-3.359,1.012h-2.938v4.656H532.407z M533.923,156.2h2.961c0.979,0,1.674-0.183,2.086-0.547
				c0.411-0.364,0.617-0.878,0.617-1.539c0-0.479-0.121-0.89-0.363-1.23s-0.562-0.566-0.957-0.676
				c-0.255-0.067-0.727-0.102-1.414-0.102h-2.93V156.2z"/>
			<path fill="#3C3C3B" d="M542.907,152.372v-1.617h1.406v1.617H542.907z M542.907,162.208v-8.297h1.406v8.297H542.907z"/>
			<path fill="#3C3C3B" d="M549.524,160.95l0.203,1.242c-0.396,0.083-0.75,0.125-1.062,0.125c-0.511,0-0.906-0.081-1.188-0.242
				s-0.479-0.374-0.594-0.637c-0.115-0.263-0.172-0.816-0.172-1.66v-4.773h-1.031v-1.094h1.031v-2.055l1.398-0.844v2.898h1.414
				v1.094h-1.414v4.852c0,0.401,0.024,0.659,0.074,0.773c0.049,0.114,0.13,0.206,0.242,0.273c0.112,0.067,0.272,0.102,0.48,0.102
				C549.063,161.005,549.269,160.986,549.524,160.95z"/>
			<path fill="#3C3C3B" d="M556.337,162.208v-1.219c-0.646,0.938-1.523,1.406-2.633,1.406c-0.49,0-0.947-0.094-1.371-0.281
				c-0.425-0.188-0.74-0.423-0.945-0.707c-0.206-0.284-0.351-0.632-0.434-1.043c-0.058-0.276-0.086-0.714-0.086-1.312v-5.141h1.406
				v4.602c0,0.734,0.028,1.229,0.086,1.484c0.088,0.37,0.276,0.66,0.562,0.871c0.286,0.211,0.641,0.316,1.062,0.316
				s0.817-0.108,1.188-0.324c0.37-0.216,0.631-0.511,0.785-0.883c0.153-0.372,0.23-0.913,0.23-1.621v-4.445h1.406v8.297H556.337z"/>
			<path fill="#3C3C3B" d="M560.134,162.208v-7.203h-1.242v-1.094h1.242v-0.883c0-0.558,0.049-0.972,0.148-1.242
				c0.135-0.364,0.374-0.66,0.715-0.887c0.341-0.227,0.819-0.34,1.434-0.34c0.396,0,0.833,0.047,1.312,0.141l-0.211,1.227
				c-0.292-0.052-0.568-0.078-0.828-0.078c-0.427,0-0.729,0.091-0.906,0.273c-0.177,0.183-0.266,0.523-0.266,1.023v0.766h1.617
				v1.094h-1.617v7.203H560.134z"/>
			<path fill="#3C3C3B" d="M563.72,158.06c0-1.536,0.427-2.675,1.281-3.414c0.713-0.614,1.583-0.922,2.609-0.922
				c1.141,0,2.073,0.374,2.797,1.121c0.724,0.747,1.086,1.78,1.086,3.098c0,1.067-0.16,1.907-0.48,2.52s-0.787,1.087-1.398,1.426
				c-0.612,0.339-1.28,0.508-2.004,0.508c-1.162,0-2.101-0.372-2.816-1.117C564.078,160.533,563.72,159.461,563.72,158.06z
				 M565.165,158.06c0,1.062,0.231,1.858,0.695,2.387c0.463,0.528,1.047,0.793,1.75,0.793c0.698,0,1.278-0.266,1.742-0.797
				c0.463-0.531,0.695-1.341,0.695-2.43c0-1.026-0.233-1.804-0.699-2.332c-0.466-0.528-1.046-0.793-1.738-0.793
				c-0.703,0-1.287,0.263-1.75,0.789C565.396,156.203,565.165,156.997,565.165,158.06z"/>
			<path fill="#3C3C3B" d="M573.509,162.208v-1.602h1.602v1.602c0,0.589-0.104,1.063-0.312,1.426
				c-0.208,0.362-0.539,0.642-0.992,0.84l-0.391-0.602c0.297-0.13,0.516-0.321,0.656-0.574s0.219-0.616,0.234-1.09H573.509z"/>
			<path fill="#3C3C3B" d="M319.79,181.408v-11.453h4.297c0.875,0,1.577,0.116,2.105,0.348c0.528,0.231,0.942,0.589,1.242,1.07
				c0.299,0.481,0.449,0.985,0.449,1.512c0,0.489-0.133,0.95-0.398,1.383s-0.667,0.781-1.203,1.047
				c0.692,0.203,1.225,0.55,1.598,1.039c0.372,0.489,0.559,1.067,0.559,1.734c0,0.536-0.113,1.035-0.34,1.496
				s-0.507,0.816-0.84,1.066c-0.333,0.25-0.751,0.438-1.254,0.566c-0.503,0.128-1.119,0.191-1.848,0.191H319.79z M321.306,174.768
				h2.477c0.672,0,1.153-0.044,1.445-0.133c0.385-0.114,0.676-0.305,0.871-0.57s0.293-0.599,0.293-1c0-0.38-0.091-0.715-0.273-1.004
				c-0.183-0.289-0.443-0.487-0.781-0.594c-0.339-0.106-0.919-0.16-1.742-0.16h-2.289V174.768z M321.306,180.057h2.852
				c0.489,0,0.833-0.019,1.031-0.055c0.349-0.062,0.641-0.167,0.875-0.312s0.427-0.358,0.578-0.637
				c0.151-0.278,0.227-0.601,0.227-0.965c0-0.427-0.109-0.798-0.328-1.113s-0.522-0.536-0.91-0.664
				c-0.388-0.128-0.947-0.191-1.676-0.191h-2.648V180.057z"/>
			<path fill="#3C3C3B" d="M335.759,180.385c-0.521,0.442-1.022,0.755-1.504,0.938c-0.482,0.183-0.999,0.273-1.551,0.273
				c-0.912,0-1.612-0.223-2.102-0.668c-0.49-0.445-0.734-1.015-0.734-1.707c0-0.406,0.092-0.777,0.277-1.113
				c0.185-0.336,0.427-0.605,0.727-0.809c0.299-0.203,0.637-0.356,1.012-0.461c0.276-0.073,0.692-0.144,1.25-0.211
				c1.135-0.136,1.971-0.297,2.508-0.484c0.005-0.192,0.008-0.315,0.008-0.367c0-0.573-0.133-0.977-0.398-1.211
				c-0.359-0.317-0.894-0.477-1.602-0.477c-0.662,0-1.15,0.116-1.465,0.348c-0.315,0.231-0.548,0.642-0.699,1.23l-1.375-0.188
				c0.125-0.589,0.331-1.063,0.617-1.426c0.286-0.362,0.7-0.641,1.242-0.836c0.542-0.195,1.169-0.293,1.883-0.293
				c0.708,0,1.284,0.083,1.727,0.25c0.442,0.167,0.768,0.376,0.977,0.629c0.208,0.253,0.354,0.571,0.438,0.957
				c0.047,0.239,0.07,0.672,0.07,1.297v1.875c0,1.308,0.03,2.134,0.09,2.48c0.06,0.347,0.178,0.679,0.355,0.996h-1.469
				C335.894,181.116,335.8,180.775,335.759,180.385z M335.642,177.244c-0.511,0.208-1.276,0.386-2.297,0.531
				c-0.578,0.083-0.987,0.177-1.227,0.281c-0.24,0.104-0.425,0.257-0.555,0.457c-0.13,0.2-0.195,0.423-0.195,0.668
				c0,0.375,0.142,0.688,0.426,0.938c0.284,0.25,0.699,0.375,1.246,0.375c0.542,0,1.023-0.118,1.445-0.355s0.731-0.562,0.93-0.973
				c0.151-0.317,0.227-0.786,0.227-1.406V177.244z"/>
			<path fill="#3C3C3B" d="M339.228,181.408v-8.297h1.266v1.258c0.323-0.589,0.621-0.977,0.895-1.164s0.574-0.281,0.902-0.281
				c0.474,0,0.956,0.151,1.445,0.453l-0.484,1.305c-0.344-0.203-0.688-0.305-1.031-0.305c-0.308,0-0.583,0.093-0.828,0.277
				c-0.245,0.185-0.419,0.441-0.523,0.77c-0.156,0.5-0.234,1.047-0.234,1.641v4.344H339.228z"/>
			<path fill="#3C3C3B" d="M344.571,181.408v-8.297h1.266v1.18c0.609-0.911,1.489-1.367,2.641-1.367c0.5,0,0.959,0.09,1.379,0.27
				c0.419,0.18,0.733,0.415,0.941,0.707c0.208,0.292,0.354,0.638,0.438,1.039c0.052,0.261,0.078,0.716,0.078,1.367v5.102h-1.406
				v-5.047c0-0.573-0.055-1.001-0.164-1.285s-0.304-0.511-0.582-0.68c-0.279-0.169-0.605-0.254-0.98-0.254
				c-0.599,0-1.116,0.19-1.551,0.57c-0.435,0.38-0.652,1.102-0.652,2.164v4.531H344.571z"/>
			<path fill="#3C3C3B" d="M359.149,178.736l1.453,0.18c-0.229,0.849-0.654,1.508-1.273,1.977c-0.62,0.469-1.412,0.703-2.375,0.703
				c-1.214,0-2.176-0.374-2.887-1.121s-1.066-1.796-1.066-3.145c0-1.396,0.359-2.479,1.078-3.25s1.651-1.156,2.797-1.156
				c1.109,0,2.016,0.378,2.719,1.133s1.055,1.817,1.055,3.188c0,0.083-0.003,0.208-0.008,0.375h-6.188
				c0.052,0.911,0.31,1.609,0.773,2.094c0.463,0.484,1.042,0.727,1.734,0.727c0.516,0,0.956-0.136,1.32-0.406
				C358.646,179.763,358.936,179.33,359.149,178.736z M354.532,176.463h4.633c-0.062-0.698-0.24-1.222-0.531-1.57
				c-0.448-0.542-1.029-0.812-1.742-0.812c-0.646,0-1.189,0.216-1.629,0.648C354.822,175.161,354.579,175.739,354.532,176.463z"/>
			<path fill="#3C3C3B" d="M362.306,184.604l-0.156-1.32c0.307,0.083,0.575,0.125,0.805,0.125c0.312,0,0.562-0.052,0.75-0.156
				s0.341-0.25,0.461-0.438c0.088-0.141,0.231-0.489,0.43-1.047c0.026-0.078,0.067-0.192,0.125-0.344l-3.148-8.312h1.516
				l1.727,4.805c0.224,0.609,0.424,1.25,0.602,1.922c0.161-0.646,0.354-1.276,0.578-1.891l1.773-4.836h1.406l-3.156,8.438
				c-0.339,0.911-0.602,1.539-0.789,1.883c-0.25,0.464-0.537,0.804-0.859,1.02c-0.323,0.216-0.708,0.324-1.156,0.324
				C362.941,184.775,362.639,184.718,362.306,184.604z"/>
			<path fill="#3C3C3B" d="M378.267,181.408l-4.438-11.453h1.641l2.977,8.32c0.239,0.667,0.44,1.292,0.602,1.875
				c0.177-0.625,0.383-1.25,0.617-1.875l3.094-8.32h1.547l-4.484,11.453H378.267z"/>
			<path fill="#3C3C3B" d="M390.282,178.736l1.453,0.18c-0.229,0.849-0.654,1.508-1.273,1.977c-0.62,0.469-1.412,0.703-2.375,0.703
				c-1.214,0-2.176-0.374-2.887-1.121s-1.066-1.796-1.066-3.145c0-1.396,0.359-2.479,1.078-3.25s1.651-1.156,2.797-1.156
				c1.109,0,2.016,0.378,2.719,1.133s1.055,1.817,1.055,3.188c0,0.083-0.003,0.208-0.008,0.375h-6.188
				c0.052,0.911,0.31,1.609,0.773,2.094c0.463,0.484,1.042,0.727,1.734,0.727c0.516,0,0.956-0.136,1.32-0.406
				C389.779,179.763,390.068,179.33,390.282,178.736z M385.665,176.463h4.633c-0.062-0.698-0.24-1.222-0.531-1.57
				c-0.448-0.542-1.029-0.812-1.742-0.812c-0.646,0-1.189,0.216-1.629,0.648C385.955,175.161,385.712,175.739,385.665,176.463z"/>
			<path fill="#3C3C3B" d="M393.47,181.408v-11.453h1.406v11.453H393.47z"/>
			<path fill="#3C3C3B" d="M396.532,177.26c0-1.536,0.427-2.675,1.281-3.414c0.713-0.614,1.583-0.922,2.609-0.922
				c1.141,0,2.073,0.374,2.797,1.121c0.724,0.747,1.086,1.78,1.086,3.098c0,1.067-0.16,1.907-0.48,2.52s-0.787,1.087-1.398,1.426
				c-0.612,0.339-1.28,0.508-2.004,0.508c-1.162,0-2.101-0.372-2.816-1.117C396.89,179.733,396.532,178.661,396.532,177.26z
				 M397.978,177.26c0,1.062,0.231,1.858,0.695,2.387c0.463,0.528,1.047,0.793,1.75,0.793c0.698,0,1.278-0.266,1.742-0.797
				c0.463-0.531,0.695-1.341,0.695-2.43c0-1.026-0.233-1.804-0.699-2.332c-0.466-0.528-1.046-0.793-1.738-0.793
				c-0.703,0-1.287,0.263-1.75,0.789C398.209,175.403,397.978,176.197,397.978,177.26z"/>
			<path fill="#3C3C3B" d="M405.212,181.408v-1.141l5.281-6.062c-0.599,0.031-1.128,0.047-1.586,0.047h-3.383v-1.141h6.781v0.93
				l-4.492,5.266l-0.867,0.961c0.63-0.047,1.221-0.07,1.773-0.07h3.836v1.211H405.212z"/>
			<path fill="#3C3C3B" d="M419.368,180.385c-0.521,0.442-1.022,0.755-1.504,0.938c-0.482,0.183-0.999,0.273-1.551,0.273
				c-0.912,0-1.612-0.223-2.102-0.668c-0.49-0.445-0.734-1.015-0.734-1.707c0-0.406,0.092-0.777,0.277-1.113
				c0.185-0.336,0.427-0.605,0.727-0.809c0.299-0.203,0.637-0.356,1.012-0.461c0.276-0.073,0.692-0.144,1.25-0.211
				c1.135-0.136,1.971-0.297,2.508-0.484c0.005-0.192,0.008-0.315,0.008-0.367c0-0.573-0.133-0.977-0.398-1.211
				c-0.359-0.317-0.894-0.477-1.602-0.477c-0.662,0-1.15,0.116-1.465,0.348c-0.315,0.231-0.548,0.642-0.699,1.23l-1.375-0.188
				c0.125-0.589,0.331-1.063,0.617-1.426c0.286-0.362,0.7-0.641,1.242-0.836c0.542-0.195,1.169-0.293,1.883-0.293
				c0.708,0,1.284,0.083,1.727,0.25c0.442,0.167,0.768,0.376,0.977,0.629c0.208,0.253,0.354,0.571,0.438,0.957
				c0.047,0.239,0.07,0.672,0.07,1.297v1.875c0,1.308,0.03,2.134,0.09,2.48c0.06,0.347,0.178,0.679,0.355,0.996h-1.469
				C419.503,181.116,419.41,180.775,419.368,180.385z M419.251,177.244c-0.511,0.208-1.276,0.386-2.297,0.531
				c-0.578,0.083-0.987,0.177-1.227,0.281c-0.24,0.104-0.425,0.257-0.555,0.457c-0.13,0.2-0.195,0.423-0.195,0.668
				c0,0.375,0.142,0.688,0.426,0.938c0.284,0.25,0.699,0.375,1.246,0.375c0.542,0,1.023-0.118,1.445-0.355s0.731-0.562,0.93-0.973
				c0.151-0.317,0.227-0.786,0.227-1.406V177.244z"/>
			<path fill="#3C3C3B" d="M423.22,181.408v-1.602h1.602v1.602c0,0.589-0.104,1.063-0.312,1.426
				c-0.208,0.362-0.539,0.642-0.992,0.84l-0.391-0.602c0.297-0.13,0.516-0.321,0.656-0.574s0.219-0.616,0.234-1.09H423.22z"/>
			<path fill="#3C3C3B" d="M431.149,178.158l1.367-0.188c0.036,0.875,0.2,1.474,0.492,1.797c0.292,0.323,0.695,0.484,1.211,0.484
				c0.38,0,0.708-0.087,0.984-0.262c0.276-0.175,0.466-0.411,0.57-0.711c0.104-0.3,0.156-0.777,0.156-1.434v-7.891h1.516v7.805
				c0,0.958-0.116,1.7-0.348,2.227c-0.232,0.526-0.599,0.927-1.102,1.203c-0.503,0.276-1.093,0.414-1.77,0.414
				c-1.005,0-1.775-0.289-2.309-0.867C431.385,180.158,431.128,179.299,431.149,178.158z"/>
			<path fill="#3C3C3B" d="M445.181,181.408v-1.219c-0.646,0.938-1.523,1.406-2.633,1.406c-0.49,0-0.947-0.094-1.371-0.281
				c-0.425-0.188-0.74-0.423-0.945-0.707c-0.206-0.284-0.351-0.632-0.434-1.043c-0.058-0.276-0.086-0.714-0.086-1.312v-5.141h1.406
				v4.602c0,0.734,0.028,1.229,0.086,1.484c0.088,0.37,0.276,0.66,0.562,0.871c0.286,0.211,0.641,0.316,1.062,0.316
				s0.817-0.108,1.188-0.324c0.37-0.216,0.631-0.511,0.785-0.883c0.153-0.372,0.23-0.913,0.23-1.621v-4.445h1.406v8.297H445.181z"/>
			<path fill="#3C3C3B" d="M448.61,181.408v-11.453h1.406v11.453H448.61z"/>
			<path fill="#3C3C3B" d="M452.204,171.572v-1.617h1.406v1.617H452.204z M452.204,181.408v-8.297h1.406v8.297H452.204z"/>
			<path fill="#3C3C3B" d="M461.165,180.385c-0.521,0.442-1.022,0.755-1.504,0.938c-0.482,0.183-0.999,0.273-1.551,0.273
				c-0.912,0-1.612-0.223-2.102-0.668c-0.49-0.445-0.734-1.015-0.734-1.707c0-0.406,0.092-0.777,0.277-1.113
				c0.185-0.336,0.427-0.605,0.727-0.809c0.299-0.203,0.637-0.356,1.012-0.461c0.276-0.073,0.692-0.144,1.25-0.211
				c1.135-0.136,1.971-0.297,2.508-0.484c0.005-0.192,0.008-0.315,0.008-0.367c0-0.573-0.133-0.977-0.398-1.211
				c-0.359-0.317-0.894-0.477-1.602-0.477c-0.662,0-1.15,0.116-1.465,0.348c-0.315,0.231-0.548,0.642-0.699,1.23l-1.375-0.188
				c0.125-0.589,0.331-1.063,0.617-1.426c0.286-0.362,0.7-0.641,1.242-0.836c0.542-0.195,1.169-0.293,1.883-0.293
				c0.708,0,1.284,0.083,1.727,0.25c0.442,0.167,0.768,0.376,0.977,0.629c0.208,0.253,0.354,0.571,0.438,0.957
				c0.047,0.239,0.07,0.672,0.07,1.297v1.875c0,1.308,0.03,2.134,0.09,2.48c0.06,0.347,0.178,0.679,0.355,0.996h-1.469
				C461.3,181.116,461.207,180.775,461.165,180.385z M461.048,177.244c-0.511,0.208-1.276,0.386-2.297,0.531
				c-0.578,0.083-0.987,0.177-1.227,0.281c-0.24,0.104-0.425,0.257-0.555,0.457c-0.13,0.2-0.195,0.423-0.195,0.668
				c0,0.375,0.142,0.688,0.426,0.938c0.284,0.25,0.699,0.375,1.246,0.375c0.542,0,1.023-0.118,1.445-0.355s0.731-0.562,0.93-0.973
				c0.151-0.317,0.227-0.786,0.227-1.406V177.244z M458.313,172.08l1.039-2.188h1.844l-1.719,2.188H458.313z"/>
			<path fill="#3C3C3B" d="M464.649,181.408v-8.297h1.266v1.18c0.609-0.911,1.489-1.367,2.641-1.367c0.5,0,0.959,0.09,1.379,0.27
				c0.419,0.18,0.733,0.415,0.941,0.707c0.208,0.292,0.354,0.638,0.438,1.039c0.052,0.261,0.078,0.716,0.078,1.367v5.102h-1.406
				v-5.047c0-0.573-0.055-1.001-0.164-1.285s-0.304-0.511-0.582-0.68c-0.279-0.169-0.605-0.254-0.98-0.254
				c-0.599,0-1.116,0.19-1.551,0.57c-0.435,0.38-0.652,1.102-0.652,2.164v4.531H464.649z"/>
			<path fill="#3C3C3B" d="M478.11,181.408v-11.453h4.297c0.875,0,1.577,0.116,2.105,0.348c0.528,0.231,0.942,0.589,1.242,1.07
				c0.299,0.481,0.449,0.985,0.449,1.512c0,0.489-0.133,0.95-0.398,1.383s-0.667,0.781-1.203,1.047
				c0.692,0.203,1.225,0.55,1.598,1.039c0.372,0.489,0.559,1.067,0.559,1.734c0,0.536-0.113,1.035-0.34,1.496
				s-0.507,0.816-0.84,1.066c-0.333,0.25-0.751,0.438-1.254,0.566c-0.503,0.128-1.119,0.191-1.848,0.191H478.11z M479.626,174.768
				h2.477c0.672,0,1.153-0.044,1.445-0.133c0.385-0.114,0.676-0.305,0.871-0.57s0.293-0.599,0.293-1c0-0.38-0.091-0.715-0.273-1.004
				c-0.183-0.289-0.443-0.487-0.781-0.594c-0.339-0.106-0.919-0.16-1.742-0.16h-2.289V174.768z M479.626,180.057h2.852
				c0.489,0,0.833-0.019,1.031-0.055c0.349-0.062,0.641-0.167,0.875-0.312s0.427-0.358,0.578-0.637
				c0.151-0.278,0.227-0.601,0.227-0.965c0-0.427-0.109-0.798-0.328-1.113s-0.522-0.536-0.91-0.664
				c-0.388-0.128-0.947-0.191-1.676-0.191h-2.648V180.057z"/>
			<path fill="#3C3C3B" d="M488.142,177.26c0-1.536,0.427-2.675,1.281-3.414c0.713-0.614,1.583-0.922,2.609-0.922
				c1.141,0,2.073,0.374,2.797,1.121c0.724,0.747,1.086,1.78,1.086,3.098c0,1.067-0.16,1.907-0.48,2.52s-0.787,1.087-1.398,1.426
				c-0.612,0.339-1.28,0.508-2.004,0.508c-1.162,0-2.101-0.372-2.816-1.117C488.5,179.733,488.142,178.661,488.142,177.26z
				 M489.587,177.26c0,1.062,0.231,1.858,0.695,2.387c0.463,0.528,1.047,0.793,1.75,0.793c0.698,0,1.278-0.266,1.742-0.797
				c0.463-0.531,0.695-1.341,0.695-2.43c0-1.026-0.233-1.804-0.699-2.332c-0.466-0.528-1.046-0.793-1.738-0.793
				c-0.703,0-1.287,0.263-1.75,0.789C489.818,175.403,489.587,176.197,489.587,177.26z"/>
			<path fill="#3C3C3B" d="M497.532,181.408v-11.453h1.406v11.453H497.532z"/>
			<path fill="#3C3C3B" d="M501.54,172.08l1.039-2.188h1.844l-1.719,2.188H501.54z M501.61,181.408v-8.297h1.406v8.297H501.61z"/>
			<path fill="#3C3C3B" d="M507.868,181.408l-3.156-8.297h1.484l1.781,4.969c0.192,0.536,0.37,1.094,0.531,1.672
				c0.125-0.438,0.299-0.964,0.523-1.578l1.844-5.062h1.445l-3.141,8.297H507.868z"/>
			<path fill="#3C3C3B" d="M518.978,180.385c-0.521,0.442-1.022,0.755-1.504,0.938c-0.482,0.183-0.999,0.273-1.551,0.273
				c-0.912,0-1.612-0.223-2.102-0.668c-0.49-0.445-0.734-1.015-0.734-1.707c0-0.406,0.092-0.777,0.277-1.113
				c0.185-0.336,0.427-0.605,0.727-0.809c0.299-0.203,0.637-0.356,1.012-0.461c0.276-0.073,0.692-0.144,1.25-0.211
				c1.135-0.136,1.971-0.297,2.508-0.484c0.005-0.192,0.008-0.315,0.008-0.367c0-0.573-0.133-0.977-0.398-1.211
				c-0.359-0.317-0.894-0.477-1.602-0.477c-0.662,0-1.15,0.116-1.465,0.348c-0.315,0.231-0.548,0.642-0.699,1.23l-1.375-0.188
				c0.125-0.589,0.331-1.063,0.617-1.426c0.286-0.362,0.7-0.641,1.242-0.836c0.542-0.195,1.169-0.293,1.883-0.293
				c0.708,0,1.284,0.083,1.727,0.25c0.442,0.167,0.768,0.376,0.977,0.629c0.208,0.253,0.354,0.571,0.438,0.957
				c0.047,0.239,0.07,0.672,0.07,1.297v1.875c0,1.308,0.03,2.134,0.09,2.48c0.06,0.347,0.178,0.679,0.355,0.996h-1.469
				C519.113,181.116,519.019,180.775,518.978,180.385z M518.86,177.244c-0.511,0.208-1.276,0.386-2.297,0.531
				c-0.578,0.083-0.987,0.177-1.227,0.281c-0.24,0.104-0.425,0.257-0.555,0.457c-0.13,0.2-0.195,0.423-0.195,0.668
				c0,0.375,0.142,0.688,0.426,0.938c0.284,0.25,0.699,0.375,1.246,0.375c0.542,0,1.023-0.118,1.445-0.355s0.731-0.562,0.93-0.973
				c0.151-0.317,0.227-0.786,0.227-1.406V177.244z"/>
			<path fill="#3C3C3B" d="M522.446,181.408v-8.297h1.266v1.258c0.323-0.589,0.621-0.977,0.895-1.164s0.574-0.281,0.902-0.281
				c0.474,0,0.956,0.151,1.445,0.453l-0.484,1.305c-0.344-0.203-0.688-0.305-1.031-0.305c-0.308,0-0.583,0.093-0.828,0.277
				c-0.245,0.185-0.419,0.441-0.523,0.77c-0.156,0.5-0.234,1.047-0.234,1.641v4.344H522.446z"/>
			<path fill="#3C3C3B" d="M532.462,181.408v-11.453h1.516v4.703h5.953v-4.703h1.516v11.453h-1.516v-5.398h-5.953v5.398H532.462z"/>
			<path fill="#3C3C3B" d="M544.017,181.408v-11.453h1.516v4.703h5.953v-4.703h1.516v11.453h-1.516v-5.398h-5.953v5.398H544.017z"/>
			<path fill="#3C3C3B" d="M555.743,181.408v-1.602h1.602v1.602H555.743z"/>
		</g>
	</g>
	<path fill="#F39200" d="M3.793,16.875l0.069,0.766l0.011,0.117l0,0l0,0c0.002,0.021,0,0.043-0.005,0.061l-0.135,0.475
		c-0.006,0.018-0.015,0.035-0.025,0.051l-0.146,0.203l-0.063,0.398c-0.006,0.051-0.035,0.094-0.077,0.119l-0.41,0.252l-0.137,0.191
		l-0.127,0.32l-0.43,2.297c-0.005,0.031-0.019,0.061-0.04,0.084l-0.304,0.336c-0.008,0.01-0.018,0.018-0.028,0.025l-0.339,0.238
		L1.158,23.26l-0.533,0.359c-0.036,0.023-0.079,0.033-0.122,0.027l-0.411-0.07v0.627c0.045,0.02,0.081,0.059,0.096,0.105
		l0.067,0.238c0.013,0.043,0.007,0.09-0.015,0.131c-0.024,0.041-0.061,0.068-0.107,0.078l-0.098,0.025L0,24.809l0.098,0.197
		l0.223,0.254l2.891,2.652l2.348,1.678c0.009,0.004,0.018,0.012,0.025,0.021l2.364,2.564l1.831,2.271l0.417,0.35l0.555,0.336
		l0.741,0.098l0.335,0.107c0.018,0.006,0.033,0.016,0.048,0.025l0.271,0.203l0.988,0.852c0.011,0.01,0.021,0.02,0.029,0.031
		l0.303,0.439c0.01,0.012,0.016,0.027,0.021,0.041l0.472,1.42c0.006,0.016,0.01,0.031,0.01,0.049l0.068,2.564l-0.07,0.471
		c-0.002,0.018-0.008,0.033-0.016,0.051l-0.102,0.201l-0.748,1.26c-0.033,0.055-0.09,0.086-0.156,0.082l-0.54-0.033
		c-0.025-0.002-0.05-0.01-0.072-0.02l-0.304-0.17l-0.376-0.123l-1.826-0.465H9.377l-1.436,0.135l-0.648,0.098l-0.421,0.162
		l-0.1,0.061l-0.155,0.096l-0.064,0.217L6.748,43.4l0.253,0.16c0.027,0.016,0.049,0.039,0.062,0.066l0.136,0.271l0.113,0.402
		l0.106,0.867c0.002,0.025,0,0.047-0.006,0.068L7.31,45.574c-0.005,0.018-0.015,0.039-0.025,0.055l-0.087,0.115l-0.116,0.154
		l-0.286,0.287l-0.086,0.117c-0.015,0.021-0.035,0.039-0.059,0.049l-0.203,0.104c-0.027,0.014-0.06,0.02-0.091,0.016l-1.023-0.096
		l-0.252,0.156l-0.409,0.252c-0.022,0.014-0.046,0.023-0.071,0.025L4.315,46.84l-0.836,0.279l0.014,0.043
		c0.006,0.016,0.009,0.033,0.009,0.053v0.822l0.048,0.189l0.285,0.199c0.033,0.023,0.056,0.055,0.066,0.092l0.068,0.236
		c0.012,0.041,0.008,0.086-0.011,0.123L3.89,49.012c-0.006,0.014-0.014,0.023-0.023,0.035l-0.19,0.221l0.075,0.008l0.188,0.037
		c0.029,0.004,0.054,0.016,0.075,0.035h0.001c0.021,0.018,0.037,0.041,0.048,0.066l0.066,0.17c0.008,0.018,0.012,0.039,0.012,0.062
		v0.203l0.038,0.094l0.074,0.047c0.005-0.012,0.012-0.025,0.021-0.039l0.169-0.234c0.012-0.018,0.026-0.031,0.043-0.043l0.203-0.135
		c0.012-0.008,0.023-0.01,0.036-0.016c0.009-0.002,0.015-0.008,0.023-0.01c0.01-0.002,0.019,0,0.029,0c0.011,0,0.022-0.002,0.034,0
		c0.041,0.008,0.08,0.027,0.107,0.062l0.102,0.139c0.008,0.01,0.011,0.025,0.016,0.041c0.015,0.039,0.02,0.078,0.006,0.117
		l-0.124,0.342v0.162l0.081,0.143l0.141,0.047l0.475,0.059c0.037,0.006,0.071,0.023,0.098,0.049l0.102,0.102
		c0.019,0.021,0.033,0.045,0.042,0.072c0.003,0.012,0.001,0.027,0.001,0.041c0.001,0.014,0.005,0.027,0.002,0.039l0,0l0,0
		l-0.013,0.068l-0.053,0.27c-0.008,0.039-0.029,0.074-0.059,0.096C5.708,51.387,5.669,51.4,5.629,51.4H5.495
		c-0.037,0-0.073-0.012-0.102-0.033l-0.078-0.059l-0.131,0.219l-0.007,0.049l-0.048,0.338l0.036,0.072l0.119-0.061
		c0.044-0.021,0.093-0.025,0.138-0.006l0.338,0.135c0.025,0.01,0.048,0.025,0.066,0.047l0.202,0.236
		c0.015,0.02,0.026,0.039,0.033,0.062l0.102,0.338c0.005,0.014,0.008,0.031,0.008,0.047v0.328l0.176,0.15
		c0.017,0.014,0.028,0.029,0.038,0.049l0.057,0.1l0.101,0.182l0.112,0.113l0.205-0.07c0.067-0.02,0.14,0,0.186,0.057l0.539,0.676
		c0.018,0.02,0.029,0.045,0.033,0.072l0.035,0.168c0.01,0.051-0.004,0.105-0.038,0.146l-0.219,0.25l-0.098,0.219l0.018,0.057
		l0.284,0.076c0.037,0.01,0.065,0.035,0.088,0.064c0.009,0.014,0.021,0.025,0.028,0.041c0.008,0.025,0.011,0.055,0.008,0.082
		c-0.004,0.025-0.014,0.051-0.03,0.074l-0.17,0.236c-0.02,0.027-0.049,0.051-0.083,0.062l-0.126,0.041l0.082,0.18l0.187,0.217v0.002
		l0,0c0.003,0.004,0.003,0.012,0.009,0.018c0.014,0.021,0.027,0.043,0.031,0.07l0.033,0.27c0.005,0.039-0.004,0.08-0.024,0.111
		l-0.133,0.207l0.126,0.055c0.025,0.012,0.046,0.029,0.063,0.051s0.029,0.045,0.034,0.072c0.01,0.055-0.008,0.111-0.047,0.15
		l-0.174,0.174l-0.123,0.369l-0.008,0.055l-0.047,0.32l0.081,0.293l0.072,0.072l0.328,0.088c0.009,0.004,0.017,0.008,0.025,0.014
		c0.007,0.002,0.017,0.006,0.025,0.012l0.066,0.043l0.034,0.023c0.038,0.023,0.063,0.062,0.071,0.105l0.124,0.592l0.612,0.643
		c0.007,0.01,0.016,0.021,0.022,0.031l0.236,0.406c0.011,0.02,0.018,0.039,0.021,0.061L9.1,61.094l0.162,0.215l0.261,0.203
		l0.575,0.16l0.549,0.062l1.763-0.068l0.98-0.232l2.387-0.207l0.721-0.164l0.896-0.104l0.862-0.002l0.832,0.102
		c0.029,0.004,0.057,0.014,0.081,0.033l0.405,0.305c0.017,0.012,0.03,0.025,0.042,0.043l0.237,0.369
		c0.013,0.023,0.022,0.047,0.024,0.074l0.167,1.396l0.523,1.375l0.598,0.756l0.503,0.205h0.574c0.028,0,0.055,0.008,0.079,0.02
		l0.575,0.305c0.049,0.025,0.081,0.072,0.088,0.127l0.136,1.012l0,0l0,0c0.004,0.029,0,0.059-0.01,0.084l-0.166,0.434l-0.435,1.135
		l-0.062,0.494l0.098,0.584l0.156,0.463l0.804,1.373c0.011,0.021,0.017,0.041,0.021,0.062l0.06,0.506l0.007,0.068l0,0l0,0
		c0.003,0.021,0.001,0.045-0.005,0.064l-0.27,0.98l-0.024,0.289l0.213,0.396l0.118,0.143l0.848,0.879l0.649,0.324
		c0.033,0.016,0.059,0.043,0.075,0.074l0.256,0.516l0.403,0.369l0.491,0.295l0.734,0.287l1.006,0.16l0.458-0.061l1.144-0.49
		l1.036-0.729l0.435-0.307c0.024-0.018,0.052-0.027,0.082-0.031l0.337-0.033c0.041-0.004,0.081,0.008,0.116,0.031l0.607,0.439
		l0.229,0.225l0.133,0.045l0.031-0.002l0.442-0.029c0.012,0,0.023,0,0.035,0l0.456,0.066l0.523-0.033l0,0l0,0
		c0.018-0.002,0.04,0.002,0.059,0.008l0.394,0.115l0.067-0.357l0.032-0.418l-0.002-0.031l-0.031-0.398l-0.365-1.232
		c-0.005-0.018-0.008-0.033-0.008-0.049v-0.338l0.111-0.59l-0.192-0.059c-0.019-0.008-0.035-0.016-0.051-0.029
		c-0.023-0.018-0.044-0.037-0.055-0.064l-0.135-0.305c-0.01-0.021-0.015-0.045-0.015-0.066v-0.777c0-0.049,0.019-0.09,0.049-0.119
		c0.031-0.031,0.073-0.051,0.12-0.051h0.27c0.02,0,0.039,0.004,0.057,0.01l0.744,0.271l0.252,0.061
		c0.021,0.008,0.042,0.016,0.06,0.031l0.271,0.201c0.029,0.021,0.051,0.053,0.061,0.088l0.089,0.297l0.147,0.146l0.957,0.379h0.291
		l0.455-0.24l0.521-0.279c0.022-0.01,0.046-0.018,0.072-0.018c0.026-0.004,0.051,0.002,0.074,0.012l0.236,0.102
		c0.015,0.008,0.029,0.016,0.042,0.025l0.178,0.15l0.476,0.158c0.033,0.01,0.062,0.029,0.083,0.059l0.1,0.133
		c0.004,0.008,0.006,0.014,0.01,0.021c0.006,0.01,0.013,0.023,0.019,0.035l0.051,0.184l0.015,0.053
		c0.006,0.02,0.008,0.039,0.006,0.061l-0.065,0.658l0.022,0.131l0.187,0.215l0.146,0.088l0.285,0.125
		c0.032,0.012,0.057,0.035,0.075,0.062l0.168,0.27c0.007,0.014,0.012,0.023,0.017,0.035l0.54,1.553
		c0.005,0.016,0.008,0.029,0.009,0.043l0.034,0.406c0,0.01,0,0.02,0,0.033l-0.06,0.496l-0.008,0.068l0.249-0.098l0.097-0.037h0.002
		c0.02-0.008,0.039-0.012,0.059-0.012h0.001c0.03,0,0.058,0.012,0.082,0.025c0.006,0.004,0.011,0.006,0.017,0.012
		c0.023,0.018,0.043,0.039,0.055,0.068h0.001l0.315,0.771l0.027-0.008l0.236-0.383l0.214-0.27l0.055-0.068l0.195-0.422
		c0.01-0.023,0.026-0.043,0.045-0.059l0.373-0.305l0.488-0.314l0.353-0.178l0.061-0.023l0.226-0.086
		c0.015-0.006,0.032-0.01,0.049-0.01l0.529-0.031l0.088-0.061v-0.078l0,0c0-0.041,0.015-0.08,0.043-0.113l0.715-0.807l0.046-0.053
		l0.14-0.279l-0.032-0.801l0,0l0,0l0.007-0.061l0.061-0.572c0.008-0.08,0.073-0.145,0.154-0.148l0.065-0.008l0.754-0.059l0.417-0.16
		l0.392-0.213l0.217-0.248l0.29-0.453c0.021-0.033,0.053-0.057,0.092-0.068l1.114-0.338l0.338-0.102l0.229-0.047l1.172-0.229
		c0.027-0.004,0.056-0.004,0.081,0.004l0.44,0.137c0.024,0.008,0.045,0.02,0.064,0.037l0.406,0.371l0.925,0.625l0.15,0.062
		l0.62-0.197l0.259-0.461l0.027-0.123l0.068-0.324l0.179-0.436l0.023-0.135c0.003-0.018,0.015-0.029,0.023-0.045
		c0.007-0.016,0.011-0.031,0.022-0.043l0.137-0.135l0,0c0.026-0.027,0.063-0.043,0.099-0.049l0.287-0.033l0.187-0.061
		c0.02-0.008,0.042-0.01,0.064-0.008c0.021,0,0.043,0.008,0.063,0.018l0.137,0.068c0.012,0.006,0.024,0.014,0.034,0.023l0.173,0.15
		l0.058-0.039l0.271-0.543l0.2-1.391c0.001-0.018,0.007-0.035,0.015-0.051l0.169-0.338l0.284-0.396l0.321-0.322
		c0.017-0.018,0.038-0.031,0.06-0.039l0.208-0.078l0.04-0.078l-0.313-0.877c-0.007-0.023-0.011-0.049-0.009-0.074l0.034-0.402
		c0.004-0.039,0.021-0.078,0.048-0.107l0.101-0.1c0.015-0.014,0.032-0.025,0.05-0.035l0.438-0.203l0.033-0.096l-0.062-0.436
		l0.032-0.975l-0.03-0.287l-0.147-0.326l-0.292-0.354l-0.15-0.26c-0.015-0.027-0.022-0.055-0.022-0.084v-0.338
		c0-0.014,0.001-0.025,0.005-0.037l0.065-0.303c0.006-0.018,0.011-0.033,0.019-0.049l0.292-0.516l0.197-0.953
		c0.003-0.012,0.007-0.025,0.013-0.037l0.27-0.572c0.006-0.016,0.016-0.029,0.024-0.041l0.438-0.506
		c0.012-0.01,0.021-0.021,0.034-0.029l1.4-0.967l0.561-0.627l1.033-1.566c0.043-0.066,0.125-0.094,0.2-0.066l0.218,0.082
		l0.133-0.039l0.117-0.141l0.078-0.201l-0.026-0.195l-0.108-0.193l-0.359-0.391c-0.021-0.021-0.034-0.049-0.041-0.076l-0.068-0.305
		l-0.071-2.125l0,0l0,0c0-0.023,0.003-0.047,0.012-0.068l0.337-0.844l0.025-0.139l0.144-0.367c0.02-0.051,0.061-0.086,0.112-0.102
		l0.372-0.1l0.907-0.137l0.82-0.395l4.139-3.074l0.29-0.385l0.693-1.361c0.007-0.014,0.016-0.025,0.028-0.039l0.923-0.988
		l0.124-0.309c0.013-0.029,0.032-0.057,0.058-0.074l0.237-0.17l1.88-0.924l0.482-0.365l0.262-0.525l-0.124-0.865l-0.149-0.297
		l-0.259-0.326l-0.243-0.346c-0.013-0.018-0.023-0.039-0.026-0.061l-0.102-0.473l-0.239-2.961l0,0l0,0
		c-0.002-0.012-0.001-0.025,0-0.037l0.087-0.586l-6.962,6.643c-0.019,0.018-0.041,0.029-0.066,0.035
		c-0.006,0.002-0.014,0.002-0.021,0.006c-0.009,0.002-0.019,0.004-0.029,0.004c-0.013,0-0.027,0-0.041-0.004l-0.376-0.096
		l-0.646,0.066c-0.015,0-0.028,0-0.042-0.002l-0.439-0.066c-0.015-0.002-0.029-0.008-0.042-0.012l-0.541-0.236
		c-0.028-0.014-0.052-0.033-0.07-0.059l-0.236-0.338c-0.013-0.02-0.023-0.041-0.027-0.064l-0.102-0.506l-0.066-0.498l-0.23-0.625
		l-0.206-0.723l-0.366-0.893l-0.177-0.732l-0.038-0.604c-0.001-0.02,0.001-0.041,0.007-0.059l0.229-0.754v-0.887l-0.099-0.51
		c-0.004-0.021-0.003-0.041,0-0.064l0.101-0.506c0.004-0.018,0.01-0.031,0.019-0.047l0.169-0.305
		c0.006-0.012,0.015-0.023,0.023-0.033l0.472-0.508l0.175-0.264l0.128-0.354l0.118-0.475l-0.317-1.008l-0.694,0.539l-0.22,0.377
		l-0.395,0.959c-0.006,0.016-0.015,0.029-0.025,0.043l-0.305,0.371l-0.525,0.461c-0.022,0.018-0.046,0.029-0.073,0.035l-0.439,0.102
		c-0.029,0.008-0.059,0.004-0.088-0.002l-0.438-0.135c-0.023-0.008-0.047-0.021-0.065-0.039l-0.474-0.439l-0.792-0.963
		c-0.01-0.01-0.018-0.023-0.023-0.037l-0.439-0.979c-0.005-0.014-0.01-0.027-0.013-0.043l-0.101-0.607l-0.002-0.736l0.307-1.916
		c0.002-0.016,0.007-0.031,0.013-0.047l0.271-0.572c0.012-0.025,0.03-0.049,0.052-0.064l0.506-0.371l0.502-0.303l0.373-0.373
		l0.313-0.594l0.055-0.338l-0.067-0.205l-0.219-0.137l-0.297-0.166c-0.024-0.012-0.046-0.033-0.062-0.059l-0.27-0.438
		c-0.006-0.014-0.013-0.027-0.016-0.043l-0.203-0.674l-0.242-2.307l-0.217-0.592l-0.217-0.246l-0.448-0.619l-0.398-0.697
		l-5.246-4.281l-0.123,0.029l-0.168,0.043l-0.345,0.25l-0.347,0.383l-0.23,0.359l-0.359,0.564l-0.683,0.918
		c-0.016,0.025-0.037,0.041-0.064,0.055c-0.024,0.012-0.051,0.018-0.081,0.016l-1.25-0.068l-0.453,0.035l-0.286,0.059l-0.314,0.188
		c-0.01,0.004-0.021,0.01-0.033,0.016l-0.304,0.102c-0.028,0.008-0.059,0.01-0.089,0.004l-0.713-0.172l-0.477-0.027l-1.66,0.168
		l-0.543,0.162l-0.273,0.111l-0.747,1.137l-1.402,1.51l-0.835,1.068c-0.007,0.008-0.015,0.016-0.024,0.023l-0.642,0.541l-1.195,0.82
		l-0.325,0.33l-0.696,1.559c-0.015,0.029-0.037,0.059-0.067,0.076l-0.605,0.371l-0.366,0.338l-0.241,0.363l-0.1,0.432l-0.332,1.426
		c-0.005,0.021-0.012,0.037-0.023,0.055l-0.54,0.844l0,0c-0.014,0.021-0.033,0.039-0.053,0.053l-0.44,0.271l-0.871,0.35
		l-1.379,0.277l-0.764,0.258l-0.6,0.439l-1.555,2.217l-0.093,0.312l-0.028,0.211c-0.007,0.051-0.036,0.094-0.078,0.119l-0.271,0.172
		c-0.013,0.006-0.028,0.014-0.043,0.018l-0.184,0.051l-0.053,0.018c-0.015,0.004-0.031,0.006-0.045,0.006c-0.003,0-0.005,0-0.009,0
		l-2.228-0.102l-1.481-0.035l-8.543-0.234c-0.072-0.004-0.134-0.051-0.156-0.119l-0.608-1.926l-1.41-3.086
		c-0.005-0.012-0.009-0.023-0.012-0.035l-0.203-1.014l-0.004-2.229l0,0c0-0.016,0.002-0.029,0.007-0.045l0.844-3.072
		c0.004-0.016,0.011-0.029,0.019-0.045l0.798-1.295l0.298-1.059l0.062-0.58l-0.069-2.104c0-0.031,0.006-0.061,0.023-0.088
		l0.438-0.777l0.679-1.053l1.173-2.35l1.093-1.574l1.19-1.389l0.003-0.066l0.06-0.855l-0.035-0.963l-0.296-1.834l-0.71-1.064
		l-0.332-0.303l-1.184-0.428c-0.024-0.008-0.045-0.021-0.062-0.039l-0.338-0.338c-0.01-0.01-0.021-0.021-0.027-0.035l-0.405-0.709
		l-0.532-0.764c-0.013-0.02-0.022-0.041-0.027-0.062l-0.371-1.824l-0.15-0.412L15.27,0l-0.034,0.033l-1.206,0.828l-0.99,0.992
		l-0.319,0.252c-0.013,0.01-0.027,0.018-0.043,0.025l-1.52,0.572c-0.011,0.004-0.023,0.008-0.035,0.008L10.99,2.732
		c0.005,0.016,0.007,0.033,0.007,0.049v0.137c0,0.055-0.028,0.107-0.075,0.139l-0.165,0.111l-0.066,0.133L10.66,3.807
		C10.658,3.84,10.646,3.873,10.624,3.9l-0.135,0.17c-0.013,0.014-0.026,0.025-0.042,0.037l-0.271,0.168
		c-0.014,0.008-0.028,0.016-0.043,0.02L7.904,4.936C7.892,4.939,7.88,4.941,7.869,4.943L7.348,4.975L5.169,5.658L4.932,6.074
		L4.339,6.775L4.106,7.137c0.01,0,0.019,0,0.029,0.002L4.81,7.24c0.017,0.004,0.032,0.006,0.046,0.014l0.81,0.371l0.736,0.523
		l0.495,0.49c0.018,0.02,0.032,0.041,0.041,0.066l0.135,0.404l0.105,0.418l0.098,0.217l0.245,0.109l0.33,0.217
		c0.034,0.023,0.06,0.057,0.069,0.098l0.101,0.406c0.004,0.014,0.005,0.027,0.005,0.039v3.209l0.132,0.713l0.295,0.746
		c0.004,0.01,0.008,0.025,0.01,0.035l0.068,0.477c0.002,0.021,0.001,0.047-0.006,0.07l-0.228,0.752v0.516l0.024,0.182
		c0.029-0.045,0.077-0.076,0.133-0.08c0.067-0.004,0.132,0.033,0.162,0.094l0.27,0.541c0.011,0.02,0.017,0.043,0.019,0.066
		l0.033,0.643l-0.136,1.441c-0.001,0.014-0.004,0.023-0.007,0.039l-0.069,0.199c-0.005,0.021-0.017,0.041-0.031,0.059l-0.174,0.203
		l-0.021,0.098l0.063,0.479c0.004,0.023,0.001,0.051-0.006,0.076l-0.067,0.201c-0.006,0.021-0.017,0.039-0.031,0.055l-0.169,0.203
		c-0.013,0.016-0.028,0.029-0.045,0.039l-0.238,0.135l-0.293,0.111c-0.013,0.006-0.025,0.008-0.04,0.012l-0.269,0.033l-1.444-0.033
		c-0.015,0-0.03-0.004-0.046-0.008l-1.214-0.371c-0.035-0.01-0.065-0.031-0.086-0.061l-0.607-0.811
		c-0.033-0.043-0.042-0.102-0.025-0.154l0.379-1.137c-0.069-0.021-0.117-0.086-0.117-0.16v-0.102c0-0.043,0.016-0.082,0.043-0.113
		l0.337-0.371c0.028-0.031,0.065-0.049,0.104-0.055l0.541-0.066c0.022-0.004,0.045-0.002,0.066,0.004l0.372,0.104l-0.142-0.17
		c-0.04-0.047-0.05-0.115-0.026-0.174c0.024-0.057,0.079-0.098,0.141-0.102l0.098-0.01c-0.069-0.021-0.116-0.088-0.116-0.16v-0.135
		c0-0.07,0.042-0.133,0.107-0.158l0.21-0.08c-0.01-0.021-0.014-0.045-0.014-0.066v-0.27c0-0.018,0.003-0.033,0.007-0.047
		l0.067-0.234c0.004-0.016,0.01-0.031,0.019-0.045l0.113-0.18H5.211l-0.021,0.281c-0.007,0.08-0.068,0.146-0.147,0.156l-0.506,0.066
		c-0.039,0.004-0.076-0.004-0.107-0.021l-0.574-0.338C3.83,16.922,3.808,16.902,3.793,16.875z"/>
	<g>
		<g>
			<g enable-background="new    ">
				<path fill="#331842" d="M318.619,97.811c1.642-5.561,2.969-10.273,3.982-14.141l4.913-0.059c1.205,4.023,2.585,8.606,4.14,13.75
					l-3.354,0.508l-1.061-3.701h-4.074l-1.101,3.994L318.619,97.811z M327.134,91.424c-0.455-1.406-1.197-3.09-2.228-5.049
					c-0.794,1.646-1.467,3.353-2.017,5.117L327.134,91.424z"/>
				<path fill="#331842" d="M332.112,97.918c0.105-2.227,0.157-4.395,0.157-6.504c0-2.436-0.07-4.795-0.209-7.08l3.852-0.137
					l3.537,7.354c-0.035-2.526-0.131-5.111-0.288-7.754l4.048-0.039c-0.402,3.99-0.603,8.021-0.603,12.09
					c0,0.547,0.004,1.094,0.013,1.641l-3.55,0.029l-3.773-7.871c0.113,2.903,0.218,5.602,0.314,8.096L332.112,97.918z"/>
				<path fill="#331842" d="M344.466,86.658V84.09c1.284,0.025,2.555,0.039,3.812,0.039c1.957,0,3.874-0.029,5.751-0.088
					l0.118,2.734h-3.301c0,4.629,0.065,8.301,0.197,11.016l-3.695,0.137c0.192-4.623,0.332-8.393,0.419-11.309L344.466,86.658z"/>
				<path fill="#331842" d="M358.981,97.449l-3.262,0.225c0-4.779-0.105-9.265-0.314-13.457l3.733-0.234
					C359.042,88.402,358.99,92.892,358.981,97.449z"/>
				<path fill="#331842" d="M366.41,83.807c3.677,0,5.515,2.344,5.515,7.031c0,4.693-1.969,7.041-5.908,7.041
					s-5.908-2.432-5.908-7.295C360.108,86.065,362.208,83.807,366.41,83.807z M363.79,91.102c-0.009,0.169-0.013,0.332-0.013,0.488
					c0,2.454,0.769,3.682,2.306,3.682c1.633,0,2.45-1.391,2.45-4.17c0-2.78-0.76-4.17-2.279-4.17
					C364.724,86.932,363.903,88.321,363.79,91.102z"/>
				<path fill="#331842" d="M382.733,98.982c-0.445-0.502-0.926-1.032-1.441-1.592c-0.769,0.338-1.682,0.508-2.738,0.508
					c-3.939,0-5.908-2.436-5.908-7.305c0-4.519,2.1-6.777,6.301-6.777c3.677,0,5.515,2.347,5.515,7.041
					c0,2.22-0.441,3.916-1.323,5.088c0.506,0.501,1.004,0.979,1.493,1.436L382.733,98.982z M376.327,91.121
					c-0.009,0.169-0.013,0.332-0.013,0.488c0,2.454,0.769,3.682,2.306,3.682c0.218,0,0.424-0.026,0.616-0.078
					c-0.542-0.573-1.113-1.169-1.716-1.787l1.874-1.533c0.472,0.54,0.935,1.064,1.389,1.572c0.192-0.625,0.288-1.406,0.288-2.344
					c0-2.787-0.76-4.18-2.279-4.18C377.261,86.941,376.44,88.334,376.327,91.121z"/>
				<path fill="#331842" d="M396.095,83.885v9.658c0,2.975-1.825,4.463-5.476,4.463h-0.288c-3.057-0.261-4.638-1.508-4.743-3.74
					c0-4.46-0.061-7.976-0.183-10.547h3.485c-0.087,1.471-0.131,3.199-0.131,5.186c0,1.393,0.022,2.916,0.065,4.57
					c0.018,1.211,0.603,1.816,1.756,1.816c0,0.006,0.004,0.01,0.013,0.01c1.144,0,1.716-0.775,1.716-2.324l-0.065-9.004
					L396.095,83.885z"/>
				<path fill="#331842" d="M400.929,97.449l-3.262,0.225c0-4.779-0.105-9.265-0.314-13.457l3.733-0.234
					C400.99,88.402,400.938,92.892,400.929,97.449z"/>
				<path fill="#331842" d="M401.479,97.811c1.642-5.561,2.969-10.273,3.982-14.141l4.913-0.059c1.205,4.023,2.585,8.606,4.14,13.75
					l-3.354,0.508l-1.061-3.701h-4.074l-1.101,3.994L401.479,97.811z M409.995,91.424c-0.455-1.406-1.197-3.09-2.228-5.049
					c-0.794,1.646-1.467,3.353-2.017,5.117L409.995,91.424z"/>
			</g>
		</g>
	</g>
</g>
</svg>
