<?xml version="1.0" encoding="utf-8"?>
<!-- Generator: Adobe Illustrator 16.0.0, SVG Export Plug-In . SVG Version: 6.00 Build 0)  -->
<!DOCTYPE svg PUBLIC "-//W3C//DTD SVG 1.1//EN" "http://www.w3.org/Graphics/SVG/1.1/DTD/svg11.dtd">
<svg version="1.1" id="Capa_1" xmlns="http://www.w3.org/2000/svg" xmlns:xlink="http://www.w3.org/1999/xlink" x="0px" y="0px"
	 width="529.71px" height="213.212px" viewBox="0 0 529.71 213.212" enable-background="new 0 0 529.71 213.212"
	 xml:space="preserve">
<g>
	<g>
		<g>
			<path fill="#3C3C3B" d="M277.171,170.938l1.43-0.125c0.067,0.573,0.225,1.043,0.473,1.41c0.247,0.367,0.631,0.664,1.152,0.891
				c0.521,0.227,1.106,0.34,1.758,0.34c0.578,0,1.088-0.086,1.531-0.258c0.442-0.172,0.772-0.407,0.988-0.707
				c0.216-0.3,0.324-0.626,0.324-0.98c0-0.359-0.104-0.673-0.312-0.941c-0.208-0.269-0.552-0.493-1.031-0.676
				c-0.308-0.12-0.987-0.306-2.039-0.559c-1.052-0.253-1.789-0.491-2.211-0.715c-0.547-0.286-0.955-0.642-1.223-1.066
				c-0.269-0.425-0.402-0.899-0.402-1.426c0-0.578,0.164-1.118,0.492-1.621s0.807-0.884,1.438-1.145
				c0.63-0.261,1.331-0.391,2.102-0.391c0.849,0,1.598,0.137,2.246,0.41s1.147,0.676,1.496,1.207
				c0.349,0.531,0.536,1.133,0.562,1.805l-1.453,0.109c-0.078-0.724-0.343-1.271-0.793-1.641c-0.451-0.37-1.116-0.555-1.996-0.555
				c-0.917,0-1.585,0.168-2.004,0.504c-0.419,0.336-0.629,0.741-0.629,1.215c0,0.411,0.148,0.75,0.445,1.016
				c0.292,0.266,1.053,0.538,2.285,0.816c1.231,0.278,2.077,0.522,2.535,0.73c0.667,0.308,1.159,0.696,1.477,1.168
				c0.317,0.472,0.477,1.015,0.477,1.629c0,0.609-0.175,1.184-0.523,1.723c-0.349,0.539-0.851,0.958-1.504,1.258
				c-0.654,0.3-1.39,0.449-2.207,0.449c-1.037,0-1.905-0.151-2.605-0.453c-0.701-0.302-1.25-0.757-1.648-1.363
				S277.191,171.703,277.171,170.938z"/>
			<path fill="#3C3C3B" d="M293.858,171.945l1.453,0.18c-0.229,0.849-0.654,1.508-1.273,1.977c-0.62,0.469-1.412,0.703-2.375,0.703
				c-1.214,0-2.176-0.374-2.887-1.121s-1.066-1.796-1.066-3.145c0-1.396,0.359-2.479,1.078-3.25s1.651-1.156,2.797-1.156
				c1.109,0,2.016,0.378,2.719,1.133s1.055,1.817,1.055,3.188c0,0.083-0.003,0.208-0.008,0.375h-6.188
				c0.052,0.911,0.31,1.609,0.773,2.094c0.463,0.484,1.042,0.727,1.734,0.727c0.516,0,0.956-0.136,1.32-0.406
				C293.355,172.972,293.645,172.539,293.858,171.945z M289.241,169.672h4.633c-0.062-0.698-0.24-1.222-0.531-1.57
				c-0.448-0.542-1.029-0.812-1.742-0.812c-0.646,0-1.189,0.216-1.629,0.648C289.531,168.37,289.288,168.948,289.241,169.672z"/>
			<path fill="#3C3C3B" d="M297.077,174.617v-8.297h1.266v1.18c0.609-0.911,1.489-1.367,2.641-1.367c0.5,0,0.959,0.09,1.379,0.27
				c0.419,0.18,0.733,0.415,0.941,0.707c0.208,0.292,0.354,0.638,0.438,1.039c0.052,0.261,0.078,0.716,0.078,1.367v5.102h-1.406
				v-5.047c0-0.573-0.055-1.001-0.164-1.285s-0.304-0.511-0.582-0.68c-0.279-0.169-0.605-0.254-0.98-0.254
				c-0.599,0-1.116,0.19-1.551,0.57c-0.435,0.38-0.652,1.102-0.652,2.164v4.531H297.077z"/>
			<path fill="#3C3C3B" d="M309.046,173.359l0.203,1.242c-0.396,0.083-0.75,0.125-1.062,0.125c-0.511,0-0.906-0.081-1.188-0.242
				s-0.479-0.374-0.594-0.637c-0.115-0.263-0.172-0.816-0.172-1.66v-4.773h-1.031v-1.094h1.031v-2.055l1.398-0.844v2.898h1.414
				v1.094h-1.414v4.852c0,0.401,0.024,0.659,0.074,0.773c0.049,0.114,0.13,0.206,0.242,0.273c0.112,0.067,0.272,0.102,0.48,0.102
				C308.585,173.414,308.791,173.396,309.046,173.359z"/>
			<path fill="#3C3C3B" d="M316.101,171.945l1.453,0.18c-0.229,0.849-0.654,1.508-1.273,1.977c-0.62,0.469-1.412,0.703-2.375,0.703
				c-1.214,0-2.176-0.374-2.887-1.121s-1.066-1.796-1.066-3.145c0-1.396,0.359-2.479,1.078-3.25s1.651-1.156,2.797-1.156
				c1.109,0,2.016,0.378,2.719,1.133s1.055,1.817,1.055,3.188c0,0.083-0.003,0.208-0.008,0.375h-6.188
				c0.052,0.911,0.31,1.609,0.773,2.094c0.463,0.484,1.042,0.727,1.734,0.727c0.516,0,0.956-0.136,1.32-0.406
				C315.598,172.972,315.887,172.539,316.101,171.945z M311.483,169.672h4.633c-0.062-0.698-0.24-1.222-0.531-1.57
				c-0.448-0.542-1.029-0.812-1.742-0.812c-0.646,0-1.189,0.216-1.629,0.648C311.773,168.37,311.53,168.948,311.483,169.672z"/>
			<path fill="#3C3C3B" d="M319.319,174.617v-8.297h1.266v1.18c0.609-0.911,1.489-1.367,2.641-1.367c0.5,0,0.959,0.09,1.379,0.27
				c0.419,0.18,0.733,0.415,0.941,0.707c0.208,0.292,0.354,0.638,0.438,1.039c0.052,0.261,0.078,0.716,0.078,1.367v5.102h-1.406
				v-5.047c0-0.573-0.055-1.001-0.164-1.285s-0.304-0.511-0.582-0.68c-0.279-0.169-0.605-0.254-0.98-0.254
				c-0.599,0-1.116,0.19-1.551,0.57c-0.435,0.38-0.652,1.102-0.652,2.164v4.531H319.319z"/>
			<path fill="#3C3C3B" d="M333.632,171.578l1.383,0.18c-0.151,0.953-0.538,1.699-1.16,2.238c-0.623,0.539-1.387,0.809-2.293,0.809
				c-1.136,0-2.048-0.371-2.738-1.113c-0.69-0.742-1.035-1.806-1.035-3.191c0-0.896,0.148-1.68,0.445-2.352s0.749-1.176,1.355-1.512
				c0.606-0.336,1.267-0.504,1.98-0.504c0.901,0,1.638,0.228,2.211,0.684c0.573,0.456,0.94,1.103,1.102,1.941l-1.367,0.211
				c-0.13-0.558-0.361-0.977-0.691-1.258c-0.331-0.281-0.73-0.422-1.199-0.422c-0.708,0-1.284,0.254-1.727,0.762
				c-0.443,0.508-0.664,1.312-0.664,2.41c0,1.114,0.213,1.925,0.641,2.43c0.427,0.505,0.984,0.758,1.672,0.758
				c0.552,0,1.013-0.169,1.383-0.508C333.298,172.802,333.533,172.281,333.632,171.578z"/>
			<path fill="#3C3C3B" d="M336.226,164.781v-1.617h1.406v1.617H336.226z M336.226,174.617v-8.297h1.406v8.297H336.226z"/>
			<path fill="#3C3C3B" d="M345.187,173.594c-0.521,0.442-1.022,0.755-1.504,0.938c-0.482,0.183-0.999,0.273-1.551,0.273
				c-0.912,0-1.612-0.223-2.102-0.668c-0.49-0.445-0.734-1.015-0.734-1.707c0-0.406,0.092-0.777,0.277-1.113
				c0.185-0.336,0.427-0.605,0.727-0.809c0.299-0.203,0.637-0.356,1.012-0.461c0.276-0.073,0.692-0.144,1.25-0.211
				c1.135-0.136,1.971-0.297,2.508-0.484c0.005-0.192,0.008-0.315,0.008-0.367c0-0.573-0.133-0.977-0.398-1.211
				c-0.359-0.317-0.894-0.477-1.602-0.477c-0.662,0-1.15,0.116-1.465,0.348c-0.315,0.231-0.548,0.642-0.699,1.23l-1.375-0.188
				c0.125-0.589,0.331-1.063,0.617-1.426c0.286-0.362,0.7-0.641,1.242-0.836c0.542-0.195,1.169-0.293,1.883-0.293
				c0.708,0,1.284,0.083,1.727,0.25c0.442,0.167,0.768,0.376,0.977,0.629c0.208,0.253,0.354,0.571,0.438,0.957
				c0.047,0.239,0.07,0.672,0.07,1.297v1.875c0,1.308,0.03,2.134,0.09,2.48c0.06,0.347,0.178,0.679,0.355,0.996h-1.469
				C345.322,174.325,345.228,173.984,345.187,173.594z M345.069,170.453c-0.511,0.208-1.276,0.386-2.297,0.531
				c-0.578,0.083-0.987,0.177-1.227,0.281c-0.24,0.104-0.425,0.257-0.555,0.457c-0.13,0.2-0.195,0.423-0.195,0.668
				c0,0.375,0.142,0.688,0.426,0.938c0.284,0.25,0.699,0.375,1.246,0.375c0.542,0,1.023-0.118,1.445-0.355s0.731-0.562,0.93-0.973
				c0.151-0.317,0.227-0.786,0.227-1.406V170.453z"/>
			<path fill="#3C3C3B" d="M348.108,172.141l1.391-0.219c0.078,0.558,0.295,0.984,0.652,1.281c0.356,0.297,0.855,0.445,1.496,0.445
				c0.646,0,1.125-0.132,1.438-0.395s0.469-0.571,0.469-0.926c0-0.317-0.138-0.567-0.414-0.75c-0.193-0.125-0.672-0.284-1.438-0.477
				c-1.031-0.261-1.746-0.485-2.145-0.676s-0.701-0.453-0.906-0.789c-0.206-0.336-0.309-0.707-0.309-1.113
				c0-0.37,0.084-0.712,0.254-1.027c0.169-0.315,0.399-0.577,0.691-0.785c0.219-0.161,0.517-0.298,0.895-0.41
				c0.377-0.112,0.782-0.168,1.215-0.168c0.651,0,1.223,0.094,1.715,0.281s0.855,0.441,1.09,0.762s0.396,0.749,0.484,1.285
				l-1.375,0.188c-0.062-0.427-0.244-0.761-0.543-1c-0.3-0.239-0.723-0.359-1.27-0.359c-0.646,0-1.107,0.106-1.383,0.32
				c-0.276,0.214-0.414,0.464-0.414,0.75c0,0.183,0.057,0.347,0.172,0.492c0.114,0.151,0.294,0.276,0.539,0.375
				c0.141,0.052,0.555,0.172,1.242,0.359c0.995,0.266,1.688,0.483,2.082,0.652c0.393,0.169,0.702,0.415,0.926,0.738
				c0.224,0.323,0.336,0.724,0.336,1.203c0,0.469-0.137,0.91-0.41,1.324s-0.668,0.734-1.184,0.961s-1.099,0.34-1.75,0.34
				c-1.078,0-1.9-0.224-2.465-0.672C348.625,173.685,348.265,173.021,348.108,172.141z"/>
			<path fill="#3C3C3B" d="M366.499,174.617v-1.047c-0.526,0.823-1.3,1.234-2.32,1.234c-0.662,0-1.27-0.183-1.824-0.547
				s-0.984-0.874-1.289-1.527s-0.457-1.405-0.457-2.254c0-0.828,0.138-1.579,0.414-2.254c0.276-0.675,0.69-1.191,1.242-1.551
				c0.552-0.359,1.169-0.539,1.852-0.539c0.5,0,0.945,0.105,1.336,0.316s0.708,0.485,0.953,0.824v-4.109h1.398v11.453H366.499z
				 M362.054,170.477c0,1.062,0.224,1.856,0.672,2.383c0.448,0.526,0.977,0.789,1.586,0.789c0.614,0,1.137-0.251,1.566-0.754
				s0.645-1.27,0.645-2.301c0-1.136-0.219-1.969-0.656-2.5s-0.977-0.797-1.617-0.797c-0.625,0-1.147,0.255-1.566,0.766
				C362.263,168.573,362.054,169.378,362.054,170.477z"/>
			<path fill="#3C3C3B" d="M375.694,171.945l1.453,0.18c-0.229,0.849-0.654,1.508-1.273,1.977c-0.62,0.469-1.412,0.703-2.375,0.703
				c-1.214,0-2.176-0.374-2.887-1.121s-1.066-1.796-1.066-3.145c0-1.396,0.359-2.479,1.078-3.25s1.651-1.156,2.797-1.156
				c1.109,0,2.016,0.378,2.719,1.133s1.055,1.817,1.055,3.188c0,0.083-0.003,0.208-0.008,0.375h-6.188
				c0.052,0.911,0.31,1.609,0.773,2.094c0.463,0.484,1.042,0.727,1.734,0.727c0.516,0,0.956-0.136,1.32-0.406
				C375.191,172.972,375.48,172.539,375.694,171.945z M371.077,169.672h4.633c-0.062-0.698-0.24-1.222-0.531-1.57
				c-0.448-0.542-1.029-0.812-1.742-0.812c-0.646,0-1.189,0.216-1.629,0.648C371.367,168.37,371.124,168.948,371.077,169.672z"/>
			<path fill="#3C3C3B" d="M382.765,171.367l1.367-0.188c0.036,0.875,0.2,1.474,0.492,1.797c0.292,0.323,0.695,0.484,1.211,0.484
				c0.38,0,0.708-0.087,0.984-0.262c0.276-0.175,0.466-0.411,0.57-0.711c0.104-0.3,0.156-0.777,0.156-1.434v-7.891h1.516v7.805
				c0,0.958-0.116,1.7-0.348,2.227c-0.232,0.526-0.599,0.927-1.102,1.203c-0.503,0.276-1.093,0.414-1.77,0.414
				c-1.005,0-1.775-0.289-2.309-0.867C383,173.367,382.744,172.508,382.765,171.367z"/>
			<path fill="#3C3C3B" d="M396.796,174.617v-1.219c-0.646,0.938-1.523,1.406-2.633,1.406c-0.49,0-0.947-0.094-1.371-0.281
				c-0.425-0.188-0.74-0.423-0.945-0.707c-0.206-0.284-0.351-0.632-0.434-1.043c-0.058-0.276-0.086-0.714-0.086-1.312v-5.141h1.406
				v4.602c0,0.734,0.028,1.229,0.086,1.484c0.088,0.37,0.276,0.66,0.562,0.871c0.286,0.211,0.641,0.316,1.062,0.316
				s0.817-0.108,1.188-0.324c0.37-0.216,0.631-0.511,0.785-0.883c0.153-0.372,0.23-0.913,0.23-1.621v-4.445h1.406v8.297H396.796z"/>
			<path fill="#3C3C3B" d="M399.694,172.141l1.391-0.219c0.078,0.558,0.295,0.984,0.652,1.281c0.356,0.297,0.855,0.445,1.496,0.445
				c0.646,0,1.125-0.132,1.438-0.395s0.469-0.571,0.469-0.926c0-0.317-0.138-0.567-0.414-0.75c-0.193-0.125-0.672-0.284-1.438-0.477
				c-1.031-0.261-1.746-0.485-2.145-0.676s-0.701-0.453-0.906-0.789c-0.206-0.336-0.309-0.707-0.309-1.113
				c0-0.37,0.084-0.712,0.254-1.027c0.169-0.315,0.399-0.577,0.691-0.785c0.219-0.161,0.517-0.298,0.895-0.41
				c0.377-0.112,0.782-0.168,1.215-0.168c0.651,0,1.223,0.094,1.715,0.281s0.855,0.441,1.09,0.762s0.396,0.749,0.484,1.285
				l-1.375,0.188c-0.062-0.427-0.244-0.761-0.543-1c-0.3-0.239-0.723-0.359-1.27-0.359c-0.646,0-1.107,0.106-1.383,0.32
				c-0.276,0.214-0.414,0.464-0.414,0.75c0,0.183,0.057,0.347,0.172,0.492c0.114,0.151,0.294,0.276,0.539,0.375
				c0.141,0.052,0.555,0.172,1.242,0.359c0.995,0.266,1.688,0.483,2.082,0.652c0.393,0.169,0.702,0.415,0.926,0.738
				c0.224,0.323,0.336,0.724,0.336,1.203c0,0.469-0.137,0.91-0.41,1.324s-0.668,0.734-1.184,0.961s-1.099,0.34-1.75,0.34
				c-1.078,0-1.9-0.224-2.465-0.672C400.211,173.685,399.851,173.021,399.694,172.141z"/>
			<path fill="#3C3C3B" d="M411.327,173.359l0.203,1.242c-0.396,0.083-0.75,0.125-1.062,0.125c-0.511,0-0.906-0.081-1.188-0.242
				s-0.479-0.374-0.594-0.637c-0.115-0.263-0.172-0.816-0.172-1.66v-4.773h-1.031v-1.094h1.031v-2.055l1.398-0.844v2.898h1.414
				v1.094h-1.414v4.852c0,0.401,0.024,0.659,0.074,0.773c0.049,0.114,0.13,0.206,0.242,0.273c0.112,0.067,0.272,0.102,0.48,0.102
				C410.866,173.414,411.072,173.396,411.327,173.359z"/>
			<path fill="#3C3C3B" d="M412.71,164.781v-1.617h1.406v1.617H412.71z M412.71,174.617v-8.297h1.406v8.297H412.71z"/>
			<path fill="#3C3C3B" d="M421.671,171.578l1.383,0.18c-0.151,0.953-0.538,1.699-1.16,2.238c-0.623,0.539-1.387,0.809-2.293,0.809
				c-1.136,0-2.048-0.371-2.738-1.113c-0.69-0.742-1.035-1.806-1.035-3.191c0-0.896,0.148-1.68,0.445-2.352s0.749-1.176,1.355-1.512
				c0.606-0.336,1.267-0.504,1.98-0.504c0.901,0,1.638,0.228,2.211,0.684c0.573,0.456,0.94,1.103,1.102,1.941l-1.367,0.211
				c-0.13-0.558-0.361-0.977-0.691-1.258c-0.331-0.281-0.73-0.422-1.199-0.422c-0.708,0-1.284,0.254-1.727,0.762
				c-0.443,0.508-0.664,1.312-0.664,2.41c0,1.114,0.213,1.925,0.641,2.43c0.427,0.505,0.984,0.758,1.672,0.758
				c0.552,0,1.013-0.169,1.383-0.508C421.337,172.802,421.572,172.281,421.671,171.578z"/>
			<path fill="#3C3C3B" d="M424.265,164.781v-1.617h1.406v1.617H424.265z M424.265,174.617v-8.297h1.406v8.297H424.265z"/>
			<path fill="#3C3C3B" d="M433.226,173.594c-0.521,0.442-1.022,0.755-1.504,0.938c-0.482,0.183-0.999,0.273-1.551,0.273
				c-0.912,0-1.612-0.223-2.102-0.668c-0.49-0.445-0.734-1.015-0.734-1.707c0-0.406,0.092-0.777,0.277-1.113
				c0.185-0.336,0.427-0.605,0.727-0.809c0.299-0.203,0.637-0.356,1.012-0.461c0.276-0.073,0.692-0.144,1.25-0.211
				c1.135-0.136,1.971-0.297,2.508-0.484c0.005-0.192,0.008-0.315,0.008-0.367c0-0.573-0.133-0.977-0.398-1.211
				c-0.359-0.317-0.894-0.477-1.602-0.477c-0.662,0-1.15,0.116-1.465,0.348c-0.315,0.231-0.548,0.642-0.699,1.23l-1.375-0.188
				c0.125-0.589,0.331-1.063,0.617-1.426c0.286-0.362,0.7-0.641,1.242-0.836c0.542-0.195,1.169-0.293,1.883-0.293
				c0.708,0,1.284,0.083,1.727,0.25c0.442,0.167,0.768,0.376,0.977,0.629c0.208,0.253,0.354,0.571,0.438,0.957
				c0.047,0.239,0.07,0.672,0.07,1.297v1.875c0,1.308,0.03,2.134,0.09,2.48c0.06,0.347,0.178,0.679,0.355,0.996h-1.469
				C433.361,174.325,433.267,173.984,433.226,173.594z M433.108,170.453c-0.511,0.208-1.276,0.386-2.297,0.531
				c-0.578,0.083-0.987,0.177-1.227,0.281c-0.24,0.104-0.425,0.257-0.555,0.457c-0.13,0.2-0.195,0.423-0.195,0.668
				c0,0.375,0.142,0.688,0.426,0.938c0.284,0.25,0.699,0.375,1.246,0.375c0.542,0,1.023-0.118,1.445-0.355s0.731-0.562,0.93-0.973
				c0.151-0.317,0.227-0.786,0.227-1.406V170.453z"/>
			<path fill="#3C3C3B" d="M441.093,177.812l-0.156-1.32c0.307,0.083,0.575,0.125,0.805,0.125c0.312,0,0.562-0.052,0.75-0.156
				s0.341-0.25,0.461-0.438c0.088-0.141,0.231-0.489,0.43-1.047c0.026-0.078,0.067-0.192,0.125-0.344l-3.148-8.312h1.516
				l1.727,4.805c0.224,0.609,0.424,1.25,0.602,1.922c0.161-0.646,0.354-1.276,0.578-1.891l1.773-4.836h1.406l-3.156,8.438
				c-0.339,0.911-0.602,1.539-0.789,1.883c-0.25,0.464-0.537,0.804-0.859,1.02c-0.323,0.216-0.708,0.324-1.156,0.324
				C441.728,177.984,441.426,177.927,441.093,177.812z"/>
			<path fill="#3C3C3B" d="M453.78,174.617v-11.453h4.32c0.76,0,1.341,0.036,1.742,0.109c0.562,0.094,1.034,0.272,1.414,0.535
				c0.38,0.263,0.686,0.632,0.918,1.105c0.231,0.474,0.348,0.995,0.348,1.562c0,0.974-0.31,1.798-0.93,2.473
				c-0.62,0.675-1.74,1.012-3.359,1.012h-2.938v4.656H453.78z M455.296,168.609h2.961c0.979,0,1.674-0.183,2.086-0.547
				c0.411-0.364,0.617-0.878,0.617-1.539c0-0.479-0.121-0.89-0.363-1.23s-0.562-0.566-0.957-0.676
				c-0.255-0.067-0.727-0.102-1.414-0.102h-2.93V168.609z"/>
			<path fill="#3C3C3B" d="M469.687,173.594c-0.521,0.442-1.022,0.755-1.504,0.938c-0.482,0.183-0.999,0.273-1.551,0.273
				c-0.912,0-1.612-0.223-2.102-0.668c-0.49-0.445-0.734-1.015-0.734-1.707c0-0.406,0.092-0.777,0.277-1.113
				c0.185-0.336,0.427-0.605,0.727-0.809c0.299-0.203,0.637-0.356,1.012-0.461c0.276-0.073,0.692-0.144,1.25-0.211
				c1.135-0.136,1.971-0.297,2.508-0.484c0.005-0.192,0.008-0.315,0.008-0.367c0-0.573-0.133-0.977-0.398-1.211
				c-0.359-0.317-0.894-0.477-1.602-0.477c-0.662,0-1.15,0.116-1.465,0.348c-0.315,0.231-0.548,0.642-0.699,1.23l-1.375-0.188
				c0.125-0.589,0.331-1.063,0.617-1.426c0.286-0.362,0.7-0.641,1.242-0.836c0.542-0.195,1.169-0.293,1.883-0.293
				c0.708,0,1.284,0.083,1.727,0.25c0.442,0.167,0.768,0.376,0.977,0.629c0.208,0.253,0.354,0.571,0.438,0.957
				c0.047,0.239,0.07,0.672,0.07,1.297v1.875c0,1.308,0.03,2.134,0.09,2.48c0.06,0.347,0.178,0.679,0.355,0.996h-1.469
				C469.822,174.325,469.728,173.984,469.687,173.594z M469.569,170.453c-0.511,0.208-1.276,0.386-2.297,0.531
				c-0.578,0.083-0.987,0.177-1.227,0.281c-0.24,0.104-0.425,0.257-0.555,0.457c-0.13,0.2-0.195,0.423-0.195,0.668
				c0,0.375,0.142,0.688,0.426,0.938c0.284,0.25,0.699,0.375,1.246,0.375c0.542,0,1.023-0.118,1.445-0.355s0.731-0.562,0.93-0.973
				c0.151-0.317,0.227-0.786,0.227-1.406V170.453z"/>
			<path fill="#3C3C3B" d="M472.429,174.617v-1.141l5.281-6.062c-0.599,0.031-1.128,0.047-1.586,0.047h-3.383v-1.141h6.781v0.93
				l-4.492,5.266l-0.867,0.961c0.63-0.047,1.221-0.07,1.773-0.07h3.836v1.211H472.429z"/>
			<path fill="#3C3C3B" d="M481.562,167.922v-1.602h1.602v1.602H481.562z M481.562,174.617v-1.602h1.602v1.602H481.562z"/>
			<path fill="#3C3C3B" d="M489.468,171.367l1.367-0.188c0.036,0.875,0.2,1.474,0.492,1.797c0.292,0.323,0.695,0.484,1.211,0.484
				c0.38,0,0.708-0.087,0.984-0.262c0.276-0.175,0.466-0.411,0.57-0.711c0.104-0.3,0.156-0.777,0.156-1.434v-7.891h1.516v7.805
				c0,0.958-0.116,1.7-0.348,2.227c-0.232,0.526-0.599,0.927-1.102,1.203c-0.503,0.276-1.093,0.414-1.77,0.414
				c-1.005,0-1.775-0.289-2.309-0.867C489.703,173.367,489.447,172.508,489.468,171.367z"/>
			<path fill="#3C3C3B" d="M503.499,174.617v-1.219c-0.646,0.938-1.523,1.406-2.633,1.406c-0.49,0-0.947-0.094-1.371-0.281
				c-0.425-0.188-0.74-0.423-0.945-0.707c-0.206-0.284-0.351-0.632-0.434-1.043c-0.058-0.276-0.086-0.714-0.086-1.312v-5.141h1.406
				v4.602c0,0.734,0.028,1.229,0.086,1.484c0.088,0.37,0.276,0.66,0.562,0.871c0.286,0.211,0.641,0.316,1.062,0.316
				s0.817-0.108,1.188-0.324c0.37-0.216,0.631-0.511,0.785-0.883c0.153-0.372,0.23-0.913,0.23-1.621v-4.445h1.406v8.297H503.499z"/>
			<path fill="#3C3C3B" d="M506.929,174.617v-11.453h1.406v11.453H506.929z"/>
			<path fill="#3C3C3B" d="M510.522,164.781v-1.617h1.406v1.617H510.522z M510.522,174.617v-8.297h1.406v8.297H510.522z"/>
			<path fill="#3C3C3B" d="M519.483,173.594c-0.521,0.442-1.022,0.755-1.504,0.938c-0.482,0.183-0.999,0.273-1.551,0.273
				c-0.912,0-1.612-0.223-2.102-0.668c-0.49-0.445-0.734-1.015-0.734-1.707c0-0.406,0.092-0.777,0.277-1.113
				c0.185-0.336,0.427-0.605,0.727-0.809c0.299-0.203,0.637-0.356,1.012-0.461c0.276-0.073,0.692-0.144,1.25-0.211
				c1.135-0.136,1.971-0.297,2.508-0.484c0.005-0.192,0.008-0.315,0.008-0.367c0-0.573-0.133-0.977-0.398-1.211
				c-0.359-0.317-0.894-0.477-1.602-0.477c-0.662,0-1.15,0.116-1.465,0.348c-0.315,0.231-0.548,0.642-0.699,1.23l-1.375-0.188
				c0.125-0.589,0.331-1.063,0.617-1.426c0.286-0.362,0.7-0.641,1.242-0.836c0.542-0.195,1.169-0.293,1.883-0.293
				c0.708,0,1.284,0.083,1.727,0.25c0.442,0.167,0.768,0.376,0.977,0.629c0.208,0.253,0.354,0.571,0.438,0.957
				c0.047,0.239,0.07,0.672,0.07,1.297v1.875c0,1.308,0.03,2.134,0.09,2.48c0.06,0.347,0.178,0.679,0.355,0.996h-1.469
				C519.619,174.325,519.525,173.984,519.483,173.594z M519.366,170.453c-0.511,0.208-1.276,0.386-2.297,0.531
				c-0.578,0.083-0.987,0.177-1.227,0.281c-0.24,0.104-0.425,0.257-0.555,0.457c-0.13,0.2-0.195,0.423-0.195,0.668
				c0,0.375,0.142,0.688,0.426,0.938c0.284,0.25,0.699,0.375,1.246,0.375c0.542,0,1.023-0.118,1.445-0.355s0.731-0.562,0.93-0.973
				c0.151-0.317,0.227-0.786,0.227-1.406V170.453z M516.632,165.289l1.039-2.188h1.844l-1.719,2.188H516.632z"/>
			<path fill="#3C3C3B" d="M522.968,174.617v-8.297h1.266v1.18c0.609-0.911,1.489-1.367,2.641-1.367c0.5,0,0.959,0.09,1.379,0.27
				c0.419,0.18,0.733,0.415,0.941,0.707c0.208,0.292,0.354,0.638,0.438,1.039c0.052,0.261,0.078,0.716,0.078,1.367v5.102h-1.406
				v-5.047c0-0.573-0.055-1.001-0.164-1.285s-0.304-0.511-0.582-0.68c-0.279-0.169-0.605-0.254-0.98-0.254
				c-0.599,0-1.116,0.19-1.551,0.57c-0.435,0.38-0.652,1.102-0.652,2.164v4.531H522.968z"/>
			<path fill="#3C3C3B" d="M277.624,193.817v-11.453h4.297c0.875,0,1.577,0.116,2.105,0.348c0.528,0.231,0.942,0.589,1.242,1.07
				c0.299,0.481,0.449,0.985,0.449,1.512c0,0.489-0.133,0.95-0.398,1.383s-0.667,0.781-1.203,1.047
				c0.692,0.203,1.225,0.55,1.598,1.039c0.372,0.489,0.559,1.067,0.559,1.734c0,0.536-0.113,1.035-0.34,1.496
				s-0.507,0.816-0.84,1.066c-0.333,0.25-0.751,0.438-1.254,0.566c-0.503,0.128-1.119,0.191-1.848,0.191H277.624z M279.14,187.177
				h2.477c0.672,0,1.153-0.044,1.445-0.133c0.385-0.114,0.676-0.305,0.871-0.57s0.293-0.599,0.293-1c0-0.38-0.091-0.715-0.273-1.004
				c-0.183-0.289-0.443-0.487-0.781-0.594c-0.339-0.106-0.919-0.16-1.742-0.16h-2.289V187.177z M279.14,192.466h2.852
				c0.489,0,0.833-0.019,1.031-0.055c0.349-0.062,0.641-0.167,0.875-0.312s0.427-0.358,0.578-0.637
				c0.151-0.278,0.227-0.601,0.227-0.965c0-0.427-0.109-0.798-0.328-1.113s-0.522-0.536-0.91-0.664
				c-0.388-0.128-0.947-0.191-1.676-0.191h-2.648V192.466z"/>
			<path fill="#3C3C3B" d="M287.655,189.669c0-1.536,0.427-2.675,1.281-3.414c0.713-0.614,1.583-0.922,2.609-0.922
				c1.141,0,2.073,0.374,2.797,1.121c0.724,0.747,1.086,1.78,1.086,3.098c0,1.067-0.16,1.907-0.48,2.52s-0.787,1.087-1.398,1.426
				c-0.612,0.339-1.28,0.508-2.004,0.508c-1.162,0-2.101-0.372-2.816-1.117C288.013,192.143,287.655,191.07,287.655,189.669z
				 M289.101,189.669c0,1.062,0.231,1.858,0.695,2.387c0.463,0.528,1.047,0.793,1.75,0.793c0.698,0,1.278-0.266,1.742-0.797
				c0.463-0.531,0.695-1.341,0.695-2.43c0-1.026-0.233-1.804-0.699-2.332c-0.466-0.528-1.046-0.793-1.738-0.793
				c-0.703,0-1.287,0.263-1.75,0.789C289.332,187.812,289.101,188.606,289.101,189.669z"/>
			<path fill="#3C3C3B" d="M297.046,193.817v-11.453h1.406v11.453H297.046z"/>
			<path fill="#3C3C3B" d="M301.054,184.489l1.039-2.188h1.844l-1.719,2.188H301.054z M301.124,193.817v-8.297h1.406v8.297H301.124z
				"/>
			<path fill="#3C3C3B" d="M307.382,193.817l-3.156-8.297h1.484l1.781,4.969c0.192,0.536,0.37,1.094,0.531,1.672
				c0.125-0.438,0.299-0.964,0.523-1.578l1.844-5.062h1.445l-3.141,8.297H307.382z"/>
			<path fill="#3C3C3B" d="M318.491,192.794c-0.521,0.442-1.022,0.755-1.504,0.938c-0.482,0.183-0.999,0.273-1.551,0.273
				c-0.912,0-1.612-0.223-2.102-0.668c-0.49-0.445-0.734-1.015-0.734-1.707c0-0.406,0.092-0.777,0.277-1.113
				c0.185-0.336,0.427-0.605,0.727-0.809c0.299-0.203,0.637-0.356,1.012-0.461c0.276-0.073,0.692-0.144,1.25-0.211
				c1.135-0.136,1.971-0.297,2.508-0.484c0.005-0.192,0.008-0.315,0.008-0.367c0-0.573-0.133-0.977-0.398-1.211
				c-0.359-0.317-0.894-0.477-1.602-0.477c-0.662,0-1.15,0.116-1.465,0.348c-0.315,0.231-0.548,0.642-0.699,1.23l-1.375-0.188
				c0.125-0.589,0.331-1.063,0.617-1.426c0.286-0.362,0.7-0.641,1.242-0.836c0.542-0.195,1.169-0.293,1.883-0.293
				c0.708,0,1.284,0.083,1.727,0.25c0.442,0.167,0.768,0.376,0.977,0.629c0.208,0.253,0.354,0.571,0.438,0.957
				c0.047,0.239,0.07,0.672,0.07,1.297v1.875c0,1.308,0.03,2.134,0.09,2.48c0.06,0.347,0.178,0.679,0.355,0.996h-1.469
				C318.626,193.525,318.533,193.185,318.491,192.794z M318.374,189.653c-0.511,0.208-1.276,0.386-2.297,0.531
				c-0.578,0.083-0.987,0.177-1.227,0.281c-0.24,0.104-0.425,0.257-0.555,0.457c-0.13,0.2-0.195,0.423-0.195,0.668
				c0,0.375,0.142,0.688,0.426,0.938c0.284,0.25,0.699,0.375,1.246,0.375c0.542,0,1.023-0.118,1.445-0.355s0.731-0.562,0.93-0.973
				c0.151-0.317,0.227-0.786,0.227-1.406V189.653z"/>
			<path fill="#3C3C3B" d="M321.96,193.817v-8.297h1.266v1.258c0.323-0.589,0.621-0.977,0.895-1.164s0.574-0.281,0.902-0.281
				c0.474,0,0.956,0.151,1.445,0.453l-0.484,1.305c-0.344-0.203-0.688-0.305-1.031-0.305c-0.308,0-0.583,0.093-0.828,0.277
				c-0.245,0.185-0.419,0.441-0.523,0.77c-0.156,0.5-0.234,1.047-0.234,1.641v4.344H321.96z"/>
			<path fill="#3C3C3B" d="M326.788,193.817v-1.602h1.602v1.602c0,0.589-0.104,1.063-0.312,1.426
				c-0.208,0.362-0.539,0.642-0.992,0.84l-0.391-0.602c0.297-0.13,0.516-0.321,0.656-0.574s0.219-0.616,0.234-1.09H326.788z"/>
			<path fill="#3C3C3B" d="M335.444,193.817v-11.453h2.281l2.711,8.109c0.25,0.755,0.432,1.32,0.547,1.695
				c0.13-0.417,0.333-1.028,0.609-1.836l2.742-7.969h2.039v11.453h-1.461v-9.586l-3.328,9.586h-1.367l-3.312-9.75v9.75H335.444z"/>
			<path fill="#3C3C3B" d="M354.054,192.794c-0.521,0.442-1.022,0.755-1.504,0.938c-0.482,0.183-0.999,0.273-1.551,0.273
				c-0.912,0-1.612-0.223-2.102-0.668c-0.49-0.445-0.734-1.015-0.734-1.707c0-0.406,0.092-0.777,0.277-1.113
				c0.185-0.336,0.427-0.605,0.727-0.809c0.299-0.203,0.637-0.356,1.012-0.461c0.276-0.073,0.692-0.144,1.25-0.211
				c1.135-0.136,1.971-0.297,2.508-0.484c0.005-0.192,0.008-0.315,0.008-0.367c0-0.573-0.133-0.977-0.398-1.211
				c-0.359-0.317-0.894-0.477-1.602-0.477c-0.662,0-1.15,0.116-1.465,0.348c-0.315,0.231-0.548,0.642-0.699,1.23l-1.375-0.188
				c0.125-0.589,0.331-1.063,0.617-1.426c0.286-0.362,0.7-0.641,1.242-0.836c0.542-0.195,1.169-0.293,1.883-0.293
				c0.708,0,1.284,0.083,1.727,0.25c0.442,0.167,0.768,0.376,0.977,0.629c0.208,0.253,0.354,0.571,0.438,0.957
				c0.047,0.239,0.07,0.672,0.07,1.297v1.875c0,1.308,0.03,2.134,0.09,2.48c0.06,0.347,0.178,0.679,0.355,0.996h-1.469
				C354.189,193.525,354.095,193.185,354.054,192.794z M353.937,189.653c-0.511,0.208-1.276,0.386-2.297,0.531
				c-0.578,0.083-0.987,0.177-1.227,0.281c-0.24,0.104-0.425,0.257-0.555,0.457c-0.13,0.2-0.195,0.423-0.195,0.668
				c0,0.375,0.142,0.688,0.426,0.938c0.284,0.25,0.699,0.375,1.246,0.375c0.542,0,1.023-0.118,1.445-0.355s0.731-0.562,0.93-0.973
				c0.151-0.317,0.227-0.786,0.227-1.406V189.653z"/>
			<path fill="#3C3C3B" d="M357.538,193.817v-8.297h1.258v1.164c0.26-0.406,0.606-0.733,1.039-0.98
				c0.432-0.247,0.924-0.371,1.477-0.371c0.614,0,1.118,0.128,1.512,0.383c0.393,0.255,0.67,0.612,0.832,1.07
				c0.656-0.969,1.51-1.453,2.562-1.453c0.823,0,1.456,0.228,1.898,0.684c0.442,0.456,0.664,1.157,0.664,2.105v5.695h-1.398v-5.227
				c0-0.562-0.046-0.968-0.137-1.215c-0.091-0.247-0.257-0.446-0.496-0.598c-0.24-0.151-0.521-0.227-0.844-0.227
				c-0.583,0-1.068,0.194-1.453,0.582c-0.386,0.388-0.578,1.009-0.578,1.863v4.82h-1.406v-5.391c0-0.625-0.115-1.094-0.344-1.406
				c-0.229-0.312-0.604-0.469-1.125-0.469c-0.396,0-0.762,0.104-1.098,0.312s-0.58,0.513-0.73,0.914
				c-0.151,0.401-0.227,0.979-0.227,1.734v4.305H357.538z"/>
			<path fill="#3C3C3B" d="M370.866,196.997v-11.477h1.281v1.078c0.302-0.422,0.643-0.738,1.023-0.949
				c0.38-0.211,0.841-0.316,1.383-0.316c0.708,0,1.333,0.183,1.875,0.547c0.542,0.364,0.95,0.879,1.227,1.543
				c0.276,0.664,0.414,1.392,0.414,2.184c0,0.849-0.152,1.613-0.457,2.293s-0.748,1.2-1.328,1.562
				c-0.581,0.362-1.191,0.543-1.832,0.543c-0.469,0-0.89-0.099-1.262-0.297c-0.373-0.198-0.679-0.448-0.918-0.75v4.039H370.866z
				 M372.14,189.716c0,1.067,0.216,1.856,0.648,2.367c0.432,0.511,0.956,0.766,1.57,0.766c0.625,0,1.16-0.265,1.605-0.793
				s0.668-1.348,0.668-2.457c0-1.058-0.218-1.849-0.652-2.375c-0.435-0.526-0.955-0.789-1.559-0.789c-0.599,0-1.129,0.28-1.59,0.84
				S372.14,188.648,372.14,189.716z"/>
			<path fill="#3C3C3B" d="M385.202,193.817v-1.219c-0.646,0.938-1.523,1.406-2.633,1.406c-0.49,0-0.947-0.094-1.371-0.281
				c-0.425-0.188-0.74-0.423-0.945-0.707c-0.206-0.284-0.351-0.632-0.434-1.043c-0.058-0.276-0.086-0.714-0.086-1.312v-5.141h1.406
				v4.602c0,0.734,0.028,1.229,0.086,1.484c0.088,0.37,0.276,0.66,0.562,0.871c0.286,0.211,0.641,0.316,1.062,0.316
				s0.817-0.108,1.188-0.324c0.37-0.216,0.631-0.511,0.785-0.883c0.153-0.372,0.23-0.913,0.23-1.621v-4.445h1.406v8.297H385.202z"/>
			<path fill="#3C3C3B" d="M386.874,197.036l0.266-1.195c0.281,0.073,0.502,0.109,0.664,0.109c0.286,0,0.5-0.095,0.641-0.285
				s0.211-0.665,0.211-1.426v-8.719h1.406v8.75c0,1.021-0.133,1.731-0.398,2.133c-0.339,0.521-0.901,0.781-1.688,0.781
				C387.596,197.185,387.229,197.135,386.874,197.036z M388.655,183.997v-1.633h1.406v1.633H388.655z"/>
			<path fill="#3C3C3B" d="M397.632,192.794c-0.521,0.442-1.022,0.755-1.504,0.938c-0.482,0.183-0.999,0.273-1.551,0.273
				c-0.912,0-1.612-0.223-2.102-0.668c-0.49-0.445-0.734-1.015-0.734-1.707c0-0.406,0.092-0.777,0.277-1.113
				c0.185-0.336,0.427-0.605,0.727-0.809c0.299-0.203,0.637-0.356,1.012-0.461c0.276-0.073,0.692-0.144,1.25-0.211
				c1.135-0.136,1.971-0.297,2.508-0.484c0.005-0.192,0.008-0.315,0.008-0.367c0-0.573-0.133-0.977-0.398-1.211
				c-0.359-0.317-0.894-0.477-1.602-0.477c-0.662,0-1.15,0.116-1.465,0.348c-0.315,0.231-0.548,0.642-0.699,1.23l-1.375-0.188
				c0.125-0.589,0.331-1.063,0.617-1.426c0.286-0.362,0.7-0.641,1.242-0.836c0.542-0.195,1.169-0.293,1.883-0.293
				c0.708,0,1.284,0.083,1.727,0.25c0.442,0.167,0.768,0.376,0.977,0.629c0.208,0.253,0.354,0.571,0.438,0.957
				c0.047,0.239,0.07,0.672,0.07,1.297v1.875c0,1.308,0.03,2.134,0.09,2.48c0.06,0.347,0.178,0.679,0.355,0.996h-1.469
				C397.767,193.525,397.673,193.185,397.632,192.794z M397.515,189.653c-0.511,0.208-1.276,0.386-2.297,0.531
				c-0.578,0.083-0.987,0.177-1.227,0.281c-0.24,0.104-0.425,0.257-0.555,0.457c-0.13,0.2-0.195,0.423-0.195,0.668
				c0,0.375,0.142,0.688,0.426,0.938c0.284,0.25,0.699,0.375,1.246,0.375c0.542,0,1.023-0.118,1.445-0.355s0.731-0.562,0.93-0.973
				c0.151-0.317,0.227-0.786,0.227-1.406V189.653z M394.78,184.489l1.039-2.188h1.844l-1.719,2.188H394.78z"/>
			<path fill="#3C3C3B" d="M401.116,193.817v-8.297h1.266v1.18c0.609-0.911,1.489-1.367,2.641-1.367c0.5,0,0.959,0.09,1.379,0.27
				c0.419,0.18,0.733,0.415,0.941,0.707c0.208,0.292,0.354,0.638,0.438,1.039c0.052,0.261,0.078,0.716,0.078,1.367v5.102h-1.406
				v-5.047c0-0.573-0.055-1.001-0.164-1.285s-0.304-0.511-0.582-0.68c-0.279-0.169-0.605-0.254-0.98-0.254
				c-0.599,0-1.116,0.19-1.551,0.57c-0.435,0.38-0.652,1.102-0.652,2.164v4.531H401.116z"/>
			<path fill="#3C3C3B" d="M410.382,193.817v-1.602h1.602v1.602c0,0.589-0.104,1.063-0.312,1.426
				c-0.208,0.362-0.539,0.642-0.992,0.84l-0.391-0.602c0.297-0.13,0.516-0.321,0.656-0.574s0.219-0.616,0.234-1.09H410.382z"/>
			<path fill="#3C3C3B" d="M419.163,193.817v-11.453h7.727v1.352h-6.211v3.547h5.375v1.352h-5.375v5.203H419.163z"/>
			<path fill="#3C3C3B" d="M428.687,183.981v-1.617h1.406v1.617H428.687z M428.687,193.817v-8.297h1.406v8.297H428.687z"/>
			<path fill="#3C3C3B" d="M437.913,191.146l1.453,0.18c-0.229,0.849-0.654,1.508-1.273,1.977c-0.62,0.469-1.412,0.703-2.375,0.703
				c-1.214,0-2.176-0.374-2.887-1.121s-1.066-1.796-1.066-3.145c0-1.396,0.359-2.479,1.078-3.25s1.651-1.156,2.797-1.156
				c1.109,0,2.016,0.378,2.719,1.133s1.055,1.817,1.055,3.188c0,0.083-0.003,0.208-0.008,0.375h-6.188
				c0.052,0.911,0.31,1.609,0.773,2.094c0.463,0.484,1.042,0.727,1.734,0.727c0.516,0,0.956-0.136,1.32-0.406
				C437.41,192.172,437.699,191.739,437.913,191.146z M433.296,188.872h4.633c-0.062-0.698-0.24-1.222-0.531-1.57
				c-0.448-0.542-1.029-0.812-1.742-0.812c-0.646,0-1.189,0.216-1.629,0.648C433.586,187.57,433.343,188.148,433.296,188.872z"/>
			<path fill="#3C3C3B" d="M441.116,193.817v-8.297h1.266v1.258c0.323-0.589,0.621-0.977,0.895-1.164s0.574-0.281,0.902-0.281
				c0.474,0,0.956,0.151,1.445,0.453l-0.484,1.305c-0.344-0.203-0.688-0.305-1.031-0.305c-0.308,0-0.583,0.093-0.828,0.277
				c-0.245,0.185-0.419,0.441-0.523,0.77c-0.156,0.5-0.234,1.047-0.234,1.641v4.344H441.116z"/>
			<path fill="#3C3C3B" d="M446.444,193.817v-8.297h1.266v1.258c0.323-0.589,0.621-0.977,0.895-1.164s0.574-0.281,0.902-0.281
				c0.474,0,0.956,0.151,1.445,0.453l-0.484,1.305c-0.344-0.203-0.688-0.305-1.031-0.305c-0.308,0-0.583,0.093-0.828,0.277
				c-0.245,0.185-0.419,0.441-0.523,0.77c-0.156,0.5-0.234,1.047-0.234,1.641v4.344H446.444z"/>
			<path fill="#3C3C3B" d="M451.265,189.669c0-1.536,0.427-2.675,1.281-3.414c0.713-0.614,1.583-0.922,2.609-0.922
				c1.141,0,2.073,0.374,2.797,1.121c0.724,0.747,1.086,1.78,1.086,3.098c0,1.067-0.16,1.907-0.48,2.52s-0.787,1.087-1.398,1.426
				c-0.612,0.339-1.28,0.508-2.004,0.508c-1.162,0-2.101-0.372-2.816-1.117C451.623,192.143,451.265,191.07,451.265,189.669z
				 M452.71,189.669c0,1.062,0.231,1.858,0.695,2.387c0.463,0.528,1.047,0.793,1.75,0.793c0.698,0,1.278-0.266,1.742-0.797
				c0.463-0.531,0.695-1.341,0.695-2.43c0-1.026-0.233-1.804-0.699-2.332c-0.466-0.528-1.046-0.793-1.738-0.793
				c-0.703,0-1.287,0.263-1.75,0.789C452.941,187.812,452.71,188.606,452.71,189.669z"/>
			<path fill="#3C3C3B" d="M465.39,193.817v-11.453h7.727v1.352h-6.211v3.547h5.375v1.352h-5.375v5.203H465.39z"/>
			<path fill="#3C3C3B" d="M474.874,193.817v-11.453h1.406v11.453H474.874z"/>
			<path fill="#3C3C3B" d="M477.937,189.669c0-1.536,0.427-2.675,1.281-3.414c0.713-0.614,1.583-0.922,2.609-0.922
				c1.141,0,2.073,0.374,2.797,1.121c0.724,0.747,1.086,1.78,1.086,3.098c0,1.067-0.16,1.907-0.48,2.52s-0.787,1.087-1.398,1.426
				c-0.612,0.339-1.28,0.508-2.004,0.508c-1.162,0-2.101-0.372-2.816-1.117C478.294,192.143,477.937,191.07,477.937,189.669z
				 M479.382,189.669c0,1.062,0.231,1.858,0.695,2.387c0.463,0.528,1.047,0.793,1.75,0.793c0.698,0,1.278-0.266,1.742-0.797
				c0.463-0.531,0.695-1.341,0.695-2.43c0-1.026-0.233-1.804-0.699-2.332c-0.466-0.528-1.046-0.793-1.738-0.793
				c-0.703,0-1.287,0.263-1.75,0.789C479.613,187.812,479.382,188.606,479.382,189.669z M481.046,184.489l1.039-2.188h1.844
				l-1.719,2.188H481.046z"/>
			<path fill="#3C3C3B" d="M487.343,193.817v-8.297h1.266v1.258c0.323-0.589,0.621-0.977,0.895-1.164s0.574-0.281,0.902-0.281
				c0.474,0,0.956,0.151,1.445,0.453l-0.484,1.305c-0.344-0.203-0.688-0.305-1.031-0.305c-0.308,0-0.583,0.093-0.828,0.277
				c-0.245,0.185-0.419,0.441-0.523,0.77c-0.156,0.5-0.234,1.047-0.234,1.641v4.344H487.343z"/>
			<path fill="#3C3C3B" d="M498.366,191.146l1.453,0.18c-0.229,0.849-0.654,1.508-1.273,1.977c-0.62,0.469-1.412,0.703-2.375,0.703
				c-1.214,0-2.176-0.374-2.887-1.121s-1.066-1.796-1.066-3.145c0-1.396,0.359-2.479,1.078-3.25s1.651-1.156,2.797-1.156
				c1.109,0,2.016,0.378,2.719,1.133s1.055,1.817,1.055,3.188c0,0.083-0.003,0.208-0.008,0.375h-6.188
				c0.052,0.911,0.31,1.609,0.773,2.094c0.463,0.484,1.042,0.727,1.734,0.727c0.516,0,0.956-0.136,1.32-0.406
				C497.863,192.172,498.152,191.739,498.366,191.146z M493.749,188.872h4.633c-0.062-0.698-0.24-1.222-0.531-1.57
				c-0.448-0.542-1.029-0.812-1.742-0.812c-0.646,0-1.189,0.216-1.629,0.648C494.039,187.57,493.796,188.148,493.749,188.872z"/>
			<path fill="#3C3C3B" d="M500.843,193.817v-1.141l5.281-6.062c-0.599,0.031-1.128,0.047-1.586,0.047h-3.383v-1.141h6.781v0.93
				l-4.492,5.266l-0.867,0.961c0.63-0.047,1.221-0.07,1.773-0.07h3.836v1.211H500.843z"/>
			<path fill="#3C3C3B" d="M277.171,209.337l1.43-0.125c0.067,0.573,0.225,1.043,0.473,1.41c0.247,0.367,0.631,0.664,1.152,0.891
				c0.521,0.227,1.106,0.34,1.758,0.34c0.578,0,1.088-0.086,1.531-0.258c0.442-0.172,0.772-0.407,0.988-0.707
				c0.216-0.3,0.324-0.626,0.324-0.98c0-0.359-0.104-0.673-0.312-0.941c-0.208-0.269-0.552-0.493-1.031-0.676
				c-0.308-0.12-0.987-0.306-2.039-0.559c-1.052-0.253-1.789-0.491-2.211-0.715c-0.547-0.286-0.955-0.642-1.223-1.066
				c-0.269-0.425-0.402-0.899-0.402-1.426c0-0.578,0.164-1.118,0.492-1.621s0.807-0.884,1.438-1.145
				c0.63-0.261,1.331-0.391,2.102-0.391c0.849,0,1.598,0.137,2.246,0.41s1.147,0.676,1.496,1.207
				c0.349,0.531,0.536,1.133,0.562,1.805l-1.453,0.109c-0.078-0.724-0.343-1.271-0.793-1.641c-0.451-0.37-1.116-0.555-1.996-0.555
				c-0.917,0-1.585,0.168-2.004,0.504c-0.419,0.336-0.629,0.741-0.629,1.215c0,0.411,0.148,0.75,0.445,1.016
				c0.292,0.266,1.053,0.538,2.285,0.816c1.231,0.278,2.077,0.522,2.535,0.73c0.667,0.308,1.159,0.696,1.477,1.168
				c0.317,0.472,0.477,1.015,0.477,1.629c0,0.609-0.175,1.184-0.523,1.723c-0.349,0.539-0.851,0.958-1.504,1.258
				c-0.654,0.3-1.39,0.449-2.207,0.449c-1.037,0-1.905-0.151-2.605-0.453c-0.701-0.302-1.25-0.757-1.648-1.363
				S277.191,210.103,277.171,209.337z"/>
			<path fill="#3C3C3B" d="M293.858,210.345l1.453,0.18c-0.229,0.849-0.654,1.508-1.273,1.977c-0.62,0.469-1.412,0.703-2.375,0.703
				c-1.214,0-2.176-0.374-2.887-1.121s-1.066-1.796-1.066-3.145c0-1.396,0.359-2.479,1.078-3.25s1.651-1.156,2.797-1.156
				c1.109,0,2.016,0.378,2.719,1.133s1.055,1.817,1.055,3.188c0,0.083-0.003,0.208-0.008,0.375h-6.188
				c0.052,0.911,0.31,1.609,0.773,2.094c0.463,0.484,1.042,0.727,1.734,0.727c0.516,0,0.956-0.136,1.32-0.406
				C293.355,211.371,293.645,210.938,293.858,210.345z M289.241,208.071h4.633c-0.062-0.698-0.24-1.222-0.531-1.57
				c-0.448-0.542-1.029-0.812-1.742-0.812c-0.646,0-1.189,0.216-1.629,0.648C289.531,206.77,289.288,207.348,289.241,208.071z"/>
			<path fill="#3C3C3B" d="M297.077,213.017v-8.297h1.266v1.18c0.609-0.911,1.489-1.367,2.641-1.367c0.5,0,0.959,0.09,1.379,0.27
				c0.419,0.18,0.733,0.415,0.941,0.707c0.208,0.292,0.354,0.638,0.438,1.039c0.052,0.261,0.078,0.716,0.078,1.367v5.102h-1.406
				v-5.047c0-0.573-0.055-1.001-0.164-1.285s-0.304-0.511-0.582-0.68c-0.279-0.169-0.605-0.254-0.98-0.254
				c-0.599,0-1.116,0.19-1.551,0.57c-0.435,0.38-0.652,1.102-0.652,2.164v4.531H297.077z"/>
			<path fill="#3C3C3B" d="M309.046,211.759l0.203,1.242c-0.396,0.083-0.75,0.125-1.062,0.125c-0.511,0-0.906-0.081-1.188-0.242
				s-0.479-0.374-0.594-0.637c-0.115-0.263-0.172-0.816-0.172-1.66v-4.773h-1.031v-1.094h1.031v-2.055l1.398-0.844v2.898h1.414
				v1.094h-1.414v4.852c0,0.401,0.024,0.659,0.074,0.773c0.049,0.114,0.13,0.206,0.242,0.273c0.112,0.067,0.272,0.102,0.48,0.102
				C308.585,211.813,308.791,211.795,309.046,211.759z"/>
			<path fill="#3C3C3B" d="M316.101,210.345l1.453,0.18c-0.229,0.849-0.654,1.508-1.273,1.977c-0.62,0.469-1.412,0.703-2.375,0.703
				c-1.214,0-2.176-0.374-2.887-1.121s-1.066-1.796-1.066-3.145c0-1.396,0.359-2.479,1.078-3.25s1.651-1.156,2.797-1.156
				c1.109,0,2.016,0.378,2.719,1.133s1.055,1.817,1.055,3.188c0,0.083-0.003,0.208-0.008,0.375h-6.188
				c0.052,0.911,0.31,1.609,0.773,2.094c0.463,0.484,1.042,0.727,1.734,0.727c0.516,0,0.956-0.136,1.32-0.406
				C315.598,211.371,315.887,210.938,316.101,210.345z M311.483,208.071h4.633c-0.062-0.698-0.24-1.222-0.531-1.57
				c-0.448-0.542-1.029-0.812-1.742-0.812c-0.646,0-1.189,0.216-1.629,0.648C311.773,206.77,311.53,207.348,311.483,208.071z"/>
			<path fill="#3C3C3B" d="M319.319,213.017v-8.297h1.266v1.18c0.609-0.911,1.489-1.367,2.641-1.367c0.5,0,0.959,0.09,1.379,0.27
				c0.419,0.18,0.733,0.415,0.941,0.707c0.208,0.292,0.354,0.638,0.438,1.039c0.052,0.261,0.078,0.716,0.078,1.367v5.102h-1.406
				v-5.047c0-0.573-0.055-1.001-0.164-1.285s-0.304-0.511-0.582-0.68c-0.279-0.169-0.605-0.254-0.98-0.254
				c-0.599,0-1.116,0.19-1.551,0.57c-0.435,0.38-0.652,1.102-0.652,2.164v4.531H319.319z"/>
			<path fill="#3C3C3B" d="M333.632,209.978l1.383,0.18c-0.151,0.953-0.538,1.699-1.16,2.238c-0.623,0.539-1.387,0.809-2.293,0.809
				c-1.136,0-2.048-0.371-2.738-1.113c-0.69-0.742-1.035-1.806-1.035-3.191c0-0.896,0.148-1.68,0.445-2.352s0.749-1.176,1.355-1.512
				c0.606-0.336,1.267-0.504,1.98-0.504c0.901,0,1.638,0.228,2.211,0.684c0.573,0.456,0.94,1.103,1.102,1.941l-1.367,0.211
				c-0.13-0.558-0.361-0.977-0.691-1.258c-0.331-0.281-0.73-0.422-1.199-0.422c-0.708,0-1.284,0.254-1.727,0.762
				c-0.443,0.508-0.664,1.312-0.664,2.41c0,1.114,0.213,1.925,0.641,2.43c0.427,0.505,0.984,0.758,1.672,0.758
				c0.552,0,1.013-0.169,1.383-0.508C333.298,211.201,333.533,210.681,333.632,209.978z"/>
			<path fill="#3C3C3B" d="M336.226,203.181v-1.617h1.406v1.617H336.226z M336.226,213.017v-8.297h1.406v8.297H336.226z"/>
			<path fill="#3C3C3B" d="M345.187,211.993c-0.521,0.442-1.022,0.755-1.504,0.938c-0.482,0.183-0.999,0.273-1.551,0.273
				c-0.912,0-1.612-0.223-2.102-0.668c-0.49-0.445-0.734-1.015-0.734-1.707c0-0.406,0.092-0.777,0.277-1.113
				c0.185-0.336,0.427-0.605,0.727-0.809c0.299-0.203,0.637-0.356,1.012-0.461c0.276-0.073,0.692-0.144,1.25-0.211
				c1.135-0.136,1.971-0.297,2.508-0.484c0.005-0.192,0.008-0.315,0.008-0.367c0-0.573-0.133-0.977-0.398-1.211
				c-0.359-0.317-0.894-0.477-1.602-0.477c-0.662,0-1.15,0.116-1.465,0.348c-0.315,0.231-0.548,0.642-0.699,1.23l-1.375-0.188
				c0.125-0.589,0.331-1.063,0.617-1.426c0.286-0.362,0.7-0.641,1.242-0.836c0.542-0.195,1.169-0.293,1.883-0.293
				c0.708,0,1.284,0.083,1.727,0.25c0.442,0.167,0.768,0.376,0.977,0.629c0.208,0.253,0.354,0.571,0.438,0.957
				c0.047,0.239,0.07,0.672,0.07,1.297v1.875c0,1.308,0.03,2.134,0.09,2.48c0.06,0.347,0.178,0.679,0.355,0.996h-1.469
				C345.322,212.725,345.228,212.384,345.187,211.993z M345.069,208.853c-0.511,0.208-1.276,0.386-2.297,0.531
				c-0.578,0.083-0.987,0.177-1.227,0.281c-0.24,0.104-0.425,0.257-0.555,0.457c-0.13,0.2-0.195,0.423-0.195,0.668
				c0,0.375,0.142,0.688,0.426,0.938c0.284,0.25,0.699,0.375,1.246,0.375c0.542,0,1.023-0.118,1.445-0.355s0.731-0.562,0.93-0.973
				c0.151-0.317,0.227-0.786,0.227-1.406V208.853z"/>
			<path fill="#3C3C3B" d="M355.921,213.017v-10.102h-3.773v-1.352h9.078v1.352h-3.789v10.102H355.921z"/>
			<path fill="#3C3C3B" d="M361.171,209.579v-1.414h4.32v1.414H361.171z"/>
			<path fill="#3C3C3B" d="M366.655,207.368c0-1.354,0.139-2.444,0.418-3.27c0.278-0.825,0.692-1.462,1.242-1.91
				c0.549-0.448,1.241-0.672,2.074-0.672c0.614,0,1.153,0.124,1.617,0.371c0.463,0.247,0.846,0.604,1.148,1.07
				c0.302,0.466,0.539,1.034,0.711,1.703s0.258,1.571,0.258,2.707c0,1.344-0.138,2.429-0.414,3.254
				c-0.276,0.825-0.689,1.464-1.238,1.914c-0.55,0.45-1.244,0.676-2.082,0.676c-1.104,0-1.972-0.396-2.602-1.188
				C367.033,211.071,366.655,209.52,366.655,207.368z M368.101,207.368c0,1.88,0.22,3.132,0.66,3.754
				c0.44,0.622,0.983,0.934,1.629,0.934c0.646,0,1.188-0.312,1.629-0.938c0.44-0.625,0.66-1.875,0.66-3.75
				c0-1.886-0.22-3.138-0.66-3.758c-0.44-0.62-0.988-0.93-1.645-0.93c-0.646,0-1.162,0.273-1.547,0.82
				C368.343,204.199,368.101,205.488,368.101,207.368z"/>
			<path fill="#3C3C3B" d="M380.062,213.017v-2.742h-4.969v-1.289l5.227-7.422h1.148v7.422h1.547v1.289h-1.547v2.742H380.062z
				 M380.062,208.985v-5.164l-3.586,5.164H380.062z"/>
			<path fill="#3C3C3B" d="M384.452,210.017l1.477-0.125c0.109,0.719,0.363,1.259,0.762,1.621s0.879,0.543,1.441,0.543
				c0.677,0,1.25-0.255,1.719-0.766s0.703-1.188,0.703-2.031c0-0.802-0.226-1.435-0.676-1.898c-0.451-0.464-1.041-0.695-1.77-0.695
				c-0.453,0-0.862,0.103-1.227,0.309c-0.365,0.206-0.651,0.473-0.859,0.801l-1.32-0.172l1.109-5.883h5.695v1.344h-4.57
				l-0.617,3.078c0.688-0.479,1.409-0.719,2.164-0.719c1,0,1.844,0.347,2.531,1.039s1.031,1.583,1.031,2.672
				c0,1.036-0.302,1.933-0.906,2.688c-0.734,0.927-1.737,1.391-3.008,1.391c-1.042,0-1.892-0.292-2.551-0.875
				C384.922,211.754,384.546,210.98,384.452,210.017z"/>
			<path fill="#3C3C3B" d="M403.569,213.017v-1.047c-0.526,0.823-1.3,1.234-2.32,1.234c-0.662,0-1.27-0.183-1.824-0.547
				s-0.984-0.874-1.289-1.527s-0.457-1.405-0.457-2.254c0-0.828,0.138-1.579,0.414-2.254c0.276-0.675,0.69-1.191,1.242-1.551
				c0.552-0.359,1.169-0.539,1.852-0.539c0.5,0,0.945,0.105,1.336,0.316s0.708,0.485,0.953,0.824v-4.109h1.398v11.453H403.569z
				 M399.124,208.876c0,1.062,0.224,1.856,0.672,2.383c0.448,0.526,0.977,0.789,1.586,0.789c0.614,0,1.137-0.251,1.566-0.754
				s0.645-1.27,0.645-2.301c0-1.136-0.219-1.969-0.656-2.5s-0.977-0.797-1.617-0.797c-0.625,0-1.147,0.255-1.566,0.766
				C399.333,206.973,399.124,207.777,399.124,208.876z"/>
			<path fill="#3C3C3B" d="M412.765,210.345l1.453,0.18c-0.229,0.849-0.654,1.508-1.273,1.977c-0.62,0.469-1.412,0.703-2.375,0.703
				c-1.214,0-2.176-0.374-2.887-1.121s-1.066-1.796-1.066-3.145c0-1.396,0.359-2.479,1.078-3.25s1.651-1.156,2.797-1.156
				c1.109,0,2.016,0.378,2.719,1.133s1.055,1.817,1.055,3.188c0,0.083-0.003,0.208-0.008,0.375h-6.188
				c0.052,0.911,0.31,1.609,0.773,2.094c0.463,0.484,1.042,0.727,1.734,0.727c0.516,0,0.956-0.136,1.32-0.406
				C412.262,211.371,412.551,210.938,412.765,210.345z M408.147,208.071h4.633c-0.062-0.698-0.24-1.222-0.531-1.57
				c-0.448-0.542-1.029-0.812-1.742-0.812c-0.646,0-1.189,0.216-1.629,0.648C408.438,206.77,408.194,207.348,408.147,208.071z"/>
			<path fill="#3C3C3B" d="M427.429,211.665v1.352h-7.57c-0.011-0.339,0.044-0.664,0.164-0.977c0.192-0.516,0.501-1.023,0.926-1.523
				c0.424-0.5,1.038-1.078,1.84-1.734c1.245-1.021,2.086-1.829,2.523-2.426s0.656-1.16,0.656-1.691c0-0.558-0.199-1.027-0.598-1.41
				s-0.918-0.574-1.559-0.574c-0.677,0-1.219,0.203-1.625,0.609s-0.612,0.969-0.617,1.688l-1.445-0.148
				c0.099-1.078,0.471-1.899,1.117-2.465c0.646-0.565,1.513-0.848,2.602-0.848c1.099,0,1.969,0.305,2.609,0.914
				s0.961,1.364,0.961,2.266c0,0.458-0.094,0.909-0.281,1.352s-0.499,0.909-0.934,1.398c-0.435,0.489-1.158,1.161-2.168,2.016
				c-0.844,0.708-1.386,1.188-1.625,1.441c-0.24,0.253-0.438,0.507-0.594,0.762H427.429z"/>
			<path fill="#3C3C3B" d="M428.937,207.368c0-1.354,0.139-2.444,0.418-3.27c0.278-0.825,0.692-1.462,1.242-1.91
				c0.549-0.448,1.241-0.672,2.074-0.672c0.614,0,1.153,0.124,1.617,0.371c0.463,0.247,0.846,0.604,1.148,1.07
				c0.302,0.466,0.539,1.034,0.711,1.703s0.258,1.571,0.258,2.707c0,1.344-0.138,2.429-0.414,3.254
				c-0.276,0.825-0.689,1.464-1.238,1.914c-0.55,0.45-1.244,0.676-2.082,0.676c-1.104,0-1.972-0.396-2.602-1.188
				C429.314,211.071,428.937,209.52,428.937,207.368z M430.382,207.368c0,1.88,0.22,3.132,0.66,3.754
				c0.44,0.622,0.983,0.934,1.629,0.934c0.646,0,1.188-0.312,1.629-0.938c0.44-0.625,0.66-1.875,0.66-3.75
				c0-1.886-0.22-3.138-0.66-3.758c-0.44-0.62-0.988-0.93-1.645-0.93c-0.646,0-1.162,0.273-1.547,0.82
				C430.624,204.199,430.382,205.488,430.382,207.368z"/>
			<path fill="#3C3C3B" d="M443.132,213.017h-1.406v-8.961c-0.339,0.323-0.783,0.646-1.332,0.969
				c-0.55,0.323-1.043,0.565-1.48,0.727v-1.359c0.786-0.37,1.474-0.817,2.062-1.344c0.588-0.526,1.005-1.036,1.25-1.531h0.906
				V213.017z"/>
			<path fill="#3C3C3B" d="M446.733,207.368c0-1.354,0.139-2.444,0.418-3.27c0.278-0.825,0.692-1.462,1.242-1.91
				c0.549-0.448,1.241-0.672,2.074-0.672c0.614,0,1.153,0.124,1.617,0.371c0.463,0.247,0.846,0.604,1.148,1.07
				c0.302,0.466,0.539,1.034,0.711,1.703s0.258,1.571,0.258,2.707c0,1.344-0.138,2.429-0.414,3.254
				c-0.276,0.825-0.689,1.464-1.238,1.914c-0.55,0.45-1.244,0.676-2.082,0.676c-1.104,0-1.972-0.396-2.602-1.188
				C447.111,211.071,446.733,209.52,446.733,207.368z M448.179,207.368c0,1.88,0.22,3.132,0.66,3.754
				c0.44,0.622,0.983,0.934,1.629,0.934c0.646,0,1.188-0.312,1.629-0.938c0.44-0.625,0.66-1.875,0.66-3.75
				c0-1.886-0.22-3.138-0.66-3.758c-0.44-0.62-0.988-0.93-1.645-0.93c-0.646,0-1.162,0.273-1.547,0.82
				C448.421,204.199,448.179,205.488,448.179,207.368z"/>
		</g>
	</g>
	<path fill="#F39200" d="M0.954,7.729L0.447,8.201L0.329,8.354C0.288,8.404,0.222,8.428,0.157,8.411L0.146,8.407l-0.06,0.104
		L0.031,8.76l0.023,0.186l0.094,0.093l0.458,0.359C0.62,9.408,0.632,9.422,0.642,9.436l0.136,0.203
		C0.789,9.656,0.798,9.678,0.802,9.7l0.068,0.337l0.003,0.539c0,0.03-0.008,0.059-0.022,0.084l-0.136,0.235
		c-0.015,0.027-0.035,0.05-0.062,0.063l-0.236,0.135L0.291,11.2l-0.026,0.271L0,12.338l0.054,0.239l0.276,0.521l0.065,0.047
		l0.827,0.065l0.421,0.069l0.401,0.143c0.045,0.018,0.081,0.052,0.099,0.097l0.068,0.167c0.02,0.052,0.015,0.11-0.017,0.156L2.09,14
		l0.186,0.113c0.023,0.013,0.042,0.03,0.057,0.051l0.611,0.95l1.17-0.247c0.056-0.01,0.114,0.007,0.153,0.047l0.981,0.98
		l0.464,0.123c0.021,0.007,0.042,0.016,0.06,0.031l0.607,0.472c0.01,0.007,0.017,0.016,0.024,0.023l1.323,1.557l1.065-2.131
		c0.006-0.012,0.014-0.022,0.021-0.033l0.372-0.439l0.242-0.365l0.128-0.48l0.132-1.025c0.002-0.017,0.007-0.033,0.016-0.051
		l0.404-0.844c0.013-0.025,0.031-0.048,0.056-0.065l0.891-0.616l0.394-0.272l0.404-0.717l0.063-0.474l-0.065-1.39l-0.004-0.065l0,0
		l0,0l0.086-0.988l0.084-0.992l-0.001-0.431l-0.059-0.176l-0.37-1.044c-0.005-0.012-0.007-0.023-0.008-0.034l-0.035-0.271
		c-0.002-0.019-0.001-0.036,0.002-0.053l0.102-0.541c0.002-0.014,0.008-0.026,0.013-0.039l0.203-0.438l0.08-0.335l-0.083-0.367
		l-0.171-0.225l-0.258-0.226C11.42,2.963,11.41,2.95,11.401,2.938l-0.203-0.303c-0.012-0.021-0.021-0.043-0.024-0.063l-0.165-0.922
		l-0.148-0.3l-0.248-0.295l-0.246-0.296L9.952,0.375L9.548,0L9.55,0.032c0.003,0.053-0.021,0.106-0.062,0.141L9.117,0.477
		C9.091,0.497,9.059,0.511,9.024,0.515L8.248,0.581L7.747,0.583L7.727,0.835C7.723,0.878,7.701,0.921,7.665,0.949l-0.54,0.438
		l-0.286,0.32C6.822,1.729,6.8,1.744,6.775,1.754L6.336,1.922c-0.015,0.007-0.03,0.01-0.047,0.01L5.913,1.963L5.635,2.087
		L5.458,2.189L5.39,2.324L5.293,2.842C5.291,2.854,5.287,2.866,5.282,2.878L5.198,3.074l0.029,0.328
		C5.232,3.45,5.217,3.496,5.185,3.531L4.881,3.869c-0.012,0.013-0.025,0.025-0.04,0.033L4.367,4.173
		C4.354,4.181,4.342,4.186,4.329,4.188L3.51,4.418L2.08,5.35L1.817,5.464L1.521,5.54C1.508,5.543,1.495,5.545,1.48,5.545H1.246
		L1.078,5.616L0.876,5.865l0.04,0.066c0.013,0.02,0.021,0.043,0.023,0.065l0.067,0.575c0.004,0.03-0.001,0.062-0.014,0.09L0.84,7
		v0.227L0.99,7.53C1.023,7.597,1.009,7.677,0.954,7.729z"/>
	<g>
		<g>
			<g enable-background="new    ">
				<path fill="#331842" d="M280.171,148.619c1.642-5.561,2.969-10.273,3.982-14.141l4.913-0.059
					c1.205,4.023,2.585,8.606,4.14,13.75l-3.354,0.508l-1.061-3.701h-4.074l-1.101,3.994L280.171,148.619z M288.687,142.232
					c-0.455-1.406-1.197-3.09-2.228-5.049c-0.794,1.646-1.467,3.353-2.017,5.117L288.687,142.232z"/>
				<path fill="#331842" d="M293.612,137.467v-2.568c1.284,0.025,2.555,0.039,3.812,0.039c1.957,0,3.874-0.029,5.751-0.088
					l0.118,2.734h-3.301c0,4.629,0.065,8.301,0.197,11.016l-3.695,0.137c0.192-4.623,0.332-8.393,0.419-11.309L293.612,137.467z"/>
				<path fill="#331842" d="M308.495,134.322c-0.157,3.392-0.236,6.299-0.236,8.721c0,0.963,0.013,1.852,0.039,2.666l5.843-0.215
					l0.092,3.184l-9.354,0.156c0.008-0.859,0.013-1.716,0.013-2.568c0-3.913-0.113-7.807-0.34-11.68L308.495,134.322z"/>
				<path fill="#331842" d="M314.717,148.619c1.642-5.561,2.969-10.273,3.982-14.141l4.913-0.059
					c1.205,4.023,2.585,8.606,4.14,13.75l-3.354,0.508l-1.061-3.701h-4.074l-1.101,3.994L314.717,148.619z M323.233,142.232
					c-0.455-1.406-1.197-3.09-2.228-5.049c-0.794,1.646-1.467,3.353-2.017,5.117L323.233,142.232z M319.683,132.604
					c1.021-0.905,1.86-1.768,2.515-2.588l2.148,1.27c-0.926,0.677-1.957,1.507-3.092,2.49L319.683,132.604z"/>
				<path fill="#331842" d="M328.211,148.727c0.105-2.227,0.157-4.395,0.157-6.504c0-2.436-0.07-4.795-0.209-7.08l3.852-0.137
					l3.537,7.354c-0.035-2.526-0.131-5.111-0.288-7.754l4.048-0.039c-0.402,3.99-0.603,8.021-0.603,12.09
					c0,0.547,0.004,1.094,0.013,1.641l-3.55,0.029l-3.773-7.871c0.113,2.903,0.218,5.602,0.314,8.096L328.211,148.727z"/>
				<path fill="#331842" d="M340.565,137.467v-2.568c1.284,0.025,2.555,0.039,3.812,0.039c1.957,0,3.874-0.029,5.751-0.088
					l0.118,2.734h-3.301c0,4.629,0.065,8.301,0.197,11.016l-3.695,0.137c0.192-4.623,0.332-8.393,0.419-11.309L340.565,137.467z"/>
				<path fill="#331842" d="M355.08,148.258l-3.262,0.225c0-4.779-0.105-9.265-0.314-13.457l3.733-0.234
					C355.141,139.211,355.089,143.7,355.08,148.258z"/>
				<path fill="#331842" d="M366.556,139.947l-2.908,0.01v-0.264c0-1.53-0.576-2.295-1.729-2.295c-1.231,0-1.847,1.412-1.847,4.238
					c0,3.184,0.646,4.775,1.939,4.775h0.013c1.292-0.007,1.939-0.788,1.939-2.344v-0.967h3.249v0.732
					c0,3.242-1.786,4.938-5.358,5.088c-0.104,0.006-0.209,0.01-0.314,0.01c-3.362,0-5.043-2.409-5.043-7.227
					c0-4.714,1.729-7.07,5.188-7.07c3.257,0,4.886,1.575,4.886,4.727C366.569,139.55,366.565,139.745,366.556,139.947z"/>
				<path fill="#331842" d="M374.103,134.615c3.677,0,5.515,2.344,5.515,7.031c0,4.693-1.969,7.041-5.908,7.041
					s-5.908-2.432-5.908-7.295C367.801,136.874,369.901,134.615,374.103,134.615z M371.482,141.91
					c-0.009,0.169-0.013,0.332-0.013,0.488c0,2.454,0.769,3.682,2.306,3.682c1.633,0,2.45-1.391,2.45-4.17
					c0-2.78-0.76-4.17-2.279-4.17C372.417,137.74,371.596,139.13,371.482,141.91z"/>
			</g>
		</g>
	</g>
</g>
</svg>
