<?xml version="1.0" encoding="utf-8"?>
<!-- Generator: Adobe Illustrator 16.0.0, SVG Export Plug-In . SVG Version: 6.00 Build 0)  -->
<!DOCTYPE svg PUBLIC "-//W3C//DTD SVG 1.1//EN" "http://www.w3.org/Graphics/SVG/1.1/DTD/svg11.dtd">
<svg version="1.1" id="Capa_1" xmlns="http://www.w3.org/2000/svg" xmlns:xlink="http://www.w3.org/1999/xlink" x="0px" y="0px"
	 width="172.491px" height="31.005px" viewBox="0 0 172.491 31.005" enable-background="new 0 0 172.491 31.005"
	 xml:space="preserve">
<rect x="0.037" y="0.207" transform="matrix(1 -0.0024 0.0024 1 -0.0372 0.2081)" fill="#951B81" width="172.418" height="30.59"/>
<g>
	<g>
		<path fill="#FFFFFF" d="M40.319,6.563c1.707,0,3.169,0.612,4.385,1.836c0.61,0.615,1.067,1.285,1.37,2.012
			s0.454,1.527,0.454,2.402c0,1.724-0.608,3.198-1.824,4.422c-1.211,1.219-2.672,1.828-4.385,1.828h-2.391
			c-0.114,0-0.221-0.022-0.322-0.066c-0.101-0.044-0.189-0.103-0.264-0.176c-0.075-0.073-0.135-0.16-0.179-0.262
			s-0.066-0.209-0.066-0.324V7.391c0-0.114,0.022-0.223,0.066-0.324s0.104-0.188,0.179-0.262c0.075-0.073,0.163-0.131,0.264-0.176
			c0.101-0.044,0.208-0.066,0.322-0.066H40.319z M40.319,17.407c1.257,0,2.331-0.448,3.221-1.344c0.45-0.453,0.786-0.946,1.009-1.48
			c0.223-0.534,0.334-1.124,0.334-1.77c0-1.26-0.448-2.341-1.343-3.242c-0.896-0.901-1.969-1.352-3.221-1.352H38.75v9.188H40.319z"
			/>
		<path fill="#FFFFFF" d="M57.476,16.602c0.232,0,0.425,0.077,0.578,0.23c0.152,0.154,0.229,0.348,0.229,0.582
			c0,0.229-0.077,0.425-0.232,0.586c-0.802,0.708-1.749,1.062-2.841,1.062c-1.2,0-2.225-0.427-3.073-1.281
			c-0.849-0.854-1.273-1.885-1.273-3.094c0-1.208,0.425-2.239,1.273-3.094c0.848-0.854,1.873-1.281,3.073-1.281
			c1.19,0,2.215,0.427,3.073,1.281c0.424,0.422,0.743,0.892,0.955,1.41c0.212,0.519,0.318,1.08,0.318,1.684
			c0,0.234-0.079,0.429-0.237,0.582c-0.158,0.154-0.351,0.23-0.578,0.23h-6.147c0.088,0.287,0.217,0.548,0.388,0.785
			c0.171,0.237,0.371,0.44,0.602,0.609c0.23,0.169,0.483,0.301,0.761,0.395c0.276,0.094,0.565,0.141,0.865,0.141
			c0.342,0,0.654-0.052,0.939-0.156c0.285-0.104,0.548-0.26,0.792-0.469C57.095,16.675,57.274,16.607,57.476,16.602z M57.825,13.875
			c-0.088-0.286-0.218-0.548-0.392-0.785c-0.174-0.237-0.375-0.44-0.605-0.609c-0.23-0.169-0.484-0.301-0.761-0.395
			c-0.276-0.094-0.562-0.141-0.857-0.141s-0.582,0.047-0.861,0.141s-0.536,0.226-0.769,0.395c-0.233,0.169-0.435,0.373-0.605,0.609
			c-0.171,0.237-0.298,0.499-0.38,0.785H57.825z"/>
		<path fill="#FFFFFF" d="M65.568,11.125v0.156c0.388-0.312,0.81-0.552,1.265-0.719c0.456-0.167,0.942-0.25,1.459-0.25
			c0.228,0,0.472,0.016,0.733,0.047s0.501,0.087,0.722,0.168c0.22,0.081,0.402,0.191,0.547,0.332
			c0.145,0.141,0.217,0.323,0.217,0.547c0,0.115-0.022,0.222-0.066,0.32c-0.044,0.099-0.103,0.187-0.175,0.262
			c-0.072,0.076-0.158,0.134-0.256,0.176c-0.099,0.042-0.205,0.062-0.318,0.062c-0.099,0-0.212-0.028-0.342-0.086
			c-0.326-0.13-0.68-0.195-1.063-0.195c-0.378,0-0.732,0.072-1.063,0.215c-0.331,0.144-0.62,0.339-0.865,0.586
			c-0.246,0.248-0.44,0.538-0.583,0.871c-0.142,0.333-0.213,0.69-0.213,1.07v3.562c0,0.224-0.079,0.416-0.237,0.574
			c-0.158,0.159-0.348,0.238-0.571,0.238c-0.228,0-0.42-0.079-0.578-0.238c-0.158-0.159-0.236-0.35-0.236-0.574v-7.125
			c0-0.224,0.079-0.415,0.236-0.574c0.158-0.159,0.351-0.238,0.578-0.238c0.223,0,0.413,0.08,0.571,0.238
			C65.489,10.71,65.568,10.902,65.568,11.125z"/>
		<path fill="#FFFFFF" d="M81.219,16.602c0.232,0,0.426,0.077,0.578,0.23c0.152,0.154,0.229,0.348,0.229,0.582
			c0,0.229-0.078,0.425-0.233,0.586c-0.802,0.708-1.749,1.062-2.841,1.062c-1.2,0-2.225-0.427-3.073-1.281
			c-0.849-0.854-1.273-1.885-1.273-3.094c0-1.208,0.424-2.239,1.273-3.094c0.849-0.854,1.873-1.281,3.073-1.281
			c1.19,0,2.215,0.427,3.074,1.281c0.424,0.422,0.743,0.892,0.955,1.41c0.212,0.519,0.318,1.08,0.318,1.684
			c0,0.234-0.079,0.429-0.237,0.582c-0.158,0.154-0.351,0.23-0.579,0.23h-6.146c0.088,0.287,0.217,0.548,0.388,0.785
			c0.171,0.237,0.371,0.44,0.602,0.609c0.23,0.169,0.484,0.301,0.761,0.395s0.565,0.141,0.865,0.141
			c0.342,0,0.655-0.052,0.939-0.156c0.284-0.104,0.548-0.26,0.792-0.469C80.839,16.675,81.017,16.607,81.219,16.602z M81.568,13.875
			c-0.088-0.286-0.218-0.548-0.392-0.785c-0.173-0.237-0.375-0.44-0.605-0.609c-0.23-0.169-0.483-0.301-0.76-0.395
			s-0.563-0.141-0.858-0.141s-0.582,0.047-0.861,0.141s-0.535,0.226-0.769,0.395c-0.232,0.169-0.435,0.373-0.605,0.609
			c-0.17,0.237-0.297,0.499-0.38,0.785H81.568z"/>
		<path fill="#FFFFFF" d="M94.333,16.586c0.233,0,0.426,0.077,0.578,0.23c0.153,0.154,0.229,0.348,0.229,0.582
			c0,0.229-0.086,0.43-0.256,0.602c-0.802,0.708-1.747,1.062-2.833,1.062c-1.201,0-2.225-0.427-3.074-1.281
			c-0.849-0.854-1.272-1.885-1.272-3.094c0-1.208,0.424-2.239,1.272-3.094c0.849-0.854,1.873-1.281,3.074-1.281
			c1.092,0,2.036,0.354,2.833,1.062c0.186,0.167,0.279,0.373,0.279,0.617c0,0.234-0.077,0.43-0.229,0.586s-0.345,0.234-0.578,0.234
			c-0.197,0-0.373-0.062-0.528-0.188c-0.264-0.224-0.541-0.393-0.831-0.508c-0.29-0.114-0.605-0.172-0.947-0.172
			c-0.377,0-0.732,0.072-1.063,0.215c-0.332,0.144-0.621,0.339-0.87,0.586c-0.249,0.248-0.444,0.538-0.586,0.871
			c-0.142,0.333-0.213,0.69-0.213,1.07c0,0.38,0.071,0.737,0.213,1.07c0.142,0.333,0.337,0.624,0.586,0.871
			c0.249,0.248,0.538,0.443,0.87,0.586c0.331,0.144,0.686,0.215,1.063,0.215c0.341,0,0.657-0.056,0.947-0.168
			c0.29-0.112,0.564-0.28,0.823-0.504C93.965,16.649,94.136,16.592,94.333,16.586z"/>
		<path fill="#FFFFFF" d="M101.207,18.243c0,0.229-0.079,0.423-0.237,0.582c-0.158,0.159-0.351,0.238-0.578,0.238
			c-0.223,0-0.413-0.079-0.57-0.238c-0.158-0.159-0.237-0.353-0.237-0.582V7.383c0-0.229,0.079-0.423,0.237-0.582
			c0.158-0.159,0.348-0.238,0.57-0.238s0.413,0.08,0.57,0.238c0.158,0.159,0.239,0.353,0.245,0.582v3.75
			c0.688-0.536,1.498-0.805,2.429-0.805c0.543,0,1.06,0.107,1.549,0.32c0.489,0.214,0.919,0.504,1.292,0.871s0.667,0.8,0.885,1.297
			c0.218,0.498,0.326,1.027,0.326,1.59v3.836c-0.005,0.229-0.087,0.423-0.245,0.582c-0.158,0.159-0.348,0.238-0.57,0.238
			c-0.223,0-0.413-0.079-0.571-0.238c-0.158-0.159-0.236-0.353-0.236-0.582v-3.836c0-0.333-0.065-0.648-0.194-0.945
			c-0.129-0.297-0.304-0.556-0.523-0.777c-0.22-0.221-0.478-0.397-0.772-0.527c-0.295-0.13-0.608-0.195-0.939-0.195
			c-0.336,0-0.65,0.064-0.943,0.191c-0.292,0.128-0.55,0.304-0.772,0.527c-0.223,0.224-0.397,0.484-0.524,0.781
			c-0.126,0.297-0.189,0.612-0.189,0.945V18.243z"/>
		<path fill="#FFFFFF" d="M120.777,14.688c0,1.219-0.424,2.25-1.272,3.094c-0.859,0.854-1.884,1.281-3.073,1.281
			c-1.201,0-2.226-0.427-3.074-1.281c-0.849-0.854-1.273-1.885-1.273-3.094c0-1.208,0.424-2.239,1.273-3.094
			c0.848-0.854,1.873-1.281,3.074-1.281c1.189,0,2.214,0.427,3.073,1.281c0.424,0.427,0.741,0.898,0.951,1.414
			S120.772,14.084,120.777,14.688z M116.431,11.946c-0.383,0-0.74,0.073-1.071,0.219c-0.331,0.146-0.618,0.343-0.861,0.59
			c-0.243,0.248-0.437,0.538-0.578,0.871c-0.143,0.333-0.214,0.688-0.214,1.062s0.071,0.729,0.214,1.062
			c0.142,0.333,0.335,0.624,0.578,0.871c0.243,0.248,0.53,0.444,0.861,0.59c0.331,0.146,0.688,0.219,1.071,0.219
			c0.377,0,0.732-0.073,1.063-0.219c0.331-0.146,0.62-0.344,0.866-0.594c0.245-0.25,0.439-0.54,0.582-0.871
			c0.142-0.331,0.213-0.684,0.213-1.059s-0.071-0.728-0.213-1.059c-0.143-0.331-0.337-0.621-0.582-0.871
			c-0.246-0.25-0.535-0.448-0.866-0.594C117.163,12.019,116.809,11.946,116.431,11.946z"/>
		<path fill="#FFFFFF" d="M126.781,14.899c-0.486-0.188-0.828-0.38-1.024-0.578h0.008c-0.393-0.401-0.59-0.872-0.59-1.414
			c0-0.396,0.105-0.754,0.314-1.074c0.21-0.32,0.482-0.592,0.819-0.816c0.336-0.224,0.715-0.397,1.137-0.52
			c0.422-0.122,0.845-0.184,1.269-0.184c1.293,0,2.403,0.523,3.33,1.57c0.108,0.136,0.163,0.3,0.163,0.492
			c0,0.234-0.076,0.429-0.229,0.582c-0.153,0.154-0.345,0.23-0.578,0.23c-0.166,0-0.307-0.047-0.423-0.141
			c-0.116-0.094-0.229-0.195-0.337-0.305c-0.528-0.531-1.169-0.797-1.925-0.797c-0.745,0-1.34,0.229-1.785,0.688
			c-0.083,0.083-0.124,0.198-0.124,0.344c0,0.146,0.067,0.245,0.202,0.297l3.632,1.203c0.507,0.198,0.849,0.391,1.025,0.578h-0.008
			c0.393,0.401,0.59,0.873,0.59,1.414c0,0.401-0.105,0.761-0.314,1.078c-0.21,0.318-0.482,0.59-0.819,0.816s-0.714,0.4-1.133,0.52
			c-0.419,0.12-0.841,0.18-1.265,0.18c-1.304,0-2.414-0.518-3.33-1.555c-0.114-0.151-0.171-0.32-0.171-0.508
			c0-0.234,0.076-0.428,0.229-0.582c0.152-0.153,0.345-0.23,0.578-0.23c0.17,0,0.315,0.051,0.435,0.152s0.228,0.199,0.326,0.293
			c0.528,0.531,1.172,0.797,1.933,0.797c0.74,0,1.335-0.234,1.785-0.703c0.078-0.088,0.117-0.195,0.117-0.32
			c0-0.146-0.07-0.247-0.21-0.305L126.781,14.899z"/>
	</g>
</g>
</svg>
