<?xml version="1.0" encoding="utf-8"?>
<!-- Generator: Adobe Illustrator 16.0.0, SVG Export Plug-In . SVG Version: 6.00 Build 0)  -->
<!DOCTYPE svg PUBLIC "-//W3C//DTD SVG 1.1//EN" "http://www.w3.org/Graphics/SVG/1.1/DTD/svg11.dtd">
<svg version="1.1" id="Capa_1" xmlns="http://www.w3.org/2000/svg" xmlns:xlink="http://www.w3.org/1999/xlink" x="0px" y="0px"
	 width="905.852px" height="279.865px" viewBox="0 0 905.852 279.865" enable-background="new 0 0 905.852 279.865"
	 xml:space="preserve">
<g>
	<rect x="163.714" y="65.729" opacity="0.5" fill="#951B81" enable-background="new    " width="254.12" height="31"/>
	<g>
		<g>
			<path fill="#FFFFFF" d="M247.455,88.104c0.052-1.861,0.079-3.736,0.079-5.625c0-2.893-0.061-5.812-0.184-8.76
				c1.354-0.104,2.568-0.156,3.642-0.156c2.987,0,4.891,0.407,5.712,1.221c0.769,0.762,1.153,1.604,1.153,2.521
				c0,0.417-0.074,0.847-0.223,1.289c-0.507,1.433-1.572,2.341-3.196,2.725c1.135,0.117,1.995,0.573,2.581,1.367
				c0.559,0.769,0.838,2.702,0.838,5.801v0.42l-3.956,0.039c0.043-0.82,0.065-1.556,0.065-2.207c0-1.973-0.214-3.18-0.642-3.623
				c-0.489-0.494-1.07-0.742-1.742-0.742c-0.131,0-0.267,0.01-0.406,0.029c0.052,1.986,0.166,3.867,0.34,5.645L247.455,88.104z
				 M250.809,75.995l0.092,4.18c1.624-0.059,2.655-0.469,3.092-1.229c0.235-0.403,0.354-0.797,0.354-1.182
				c0-0.332-0.087-0.657-0.262-0.979c-0.314-0.553-1.096-0.83-2.345-0.83C251.45,75.956,251.14,75.97,250.809,75.995z"/>
			<path fill="#FFFFFF" d="M263.228,78.212c3.031,0,4.546,1.501,4.546,4.502c0,0.365-0.021,0.758-0.065,1.174h-5.856
				c0,1.674,0.433,2.51,1.297,2.51h0.091c0.76-0.045,1.14-0.479,1.14-1.299c0-0.178-0.018-0.371-0.053-0.586l3.118-0.051
				c0,2.48-1.454,3.737-4.363,3.771c-0.035,0.007-0.065,0.01-0.091,0.01c-2.769,0-4.153-1.563-4.153-4.697v-0.293
				C258.926,79.892,260.389,78.212,263.228,78.212z M261.538,82.089h2.96v-0.232c0-1.187-0.45-1.777-1.349-1.777
				C262.18,80.077,261.643,80.748,261.538,82.089z"/>
			<path fill="#FFFFFF" d="M268.599,84.774l3-0.107v0.127c0,1.003,0.415,1.513,1.245,1.523h0.052c0.803,0,1.205-0.289,1.205-0.869
				V85.38c-0.035-0.638-0.828-1.15-2.377-1.543c-1.551-0.391-2.482-1.048-2.797-1.973c-0.114-0.325-0.17-0.638-0.17-0.938
				c0-0.549,0.188-1.057,0.563-1.523c0.577-0.716,1.45-1.126,2.62-1.23c0.314-0.023,0.62-0.039,0.917-0.039
				c0.777,0,1.463,0.104,2.057,0.305c0.812,0.278,1.375,0.681,1.69,1.201c0.209,0.356,0.314,0.756,0.314,1.189
				c0,0.209-0.022,0.424-0.065,0.646l-2.804,0.049c0.026-0.162,0.039-0.312,0.039-0.449c0-0.65-0.279-0.999-0.838-1.045
				c-0.062-0.006-0.123-0.01-0.184-0.01c-0.577,0-0.965,0.219-1.166,0.652c-0.07,0.15-0.105,0.287-0.105,0.41
				c0,0.309,0.192,0.57,0.577,0.791c0.541,0.312,1.343,0.63,2.404,0.952s1.775,0.871,2.142,1.646
				c0.131,0.293,0.196,0.586,0.196,0.879c0,0.495-0.192,0.993-0.576,1.494c-0.611,0.801-1.559,1.267-2.843,1.396
				c-0.28,0.033-0.555,0.049-0.826,0.049c-0.96,0-1.852-0.186-2.672-0.557C269.149,87.26,268.616,86.272,268.599,84.774z"/>
			<path fill="#FFFFFF" d="M280.246,75.097l2.974-0.146v3.232l2.502-0.051l0.039,1.848l-2.542,0.088v4.443
				c0,1.033,0.589,1.553,1.769,1.553c0.245,0,0.511-0.022,0.799-0.068l-0.118,2.148c-0.419,0.039-0.816,0.059-1.192,0.059
				c-2.76,0-4.166-1.061-4.218-3.184v-4.775l-2.148,0.098l-0.053-2.178l2.201,0.021L280.246,75.097z"/>
			<path fill="#FFFFFF" d="M290.516,75.966c0,0.397-0.188,0.736-0.563,1.018c-0.376,0.28-0.83,0.42-1.363,0.42
				c-0.524,0-0.974-0.14-1.349-0.42c-0.376-0.279-0.563-0.618-0.563-1.018c0-0.391,0.188-0.726,0.563-1.006
				c0.375-0.277,0.825-0.42,1.349-0.42c0.533,0,0.987,0.143,1.363,0.42C290.328,75.24,290.516,75.575,290.516,75.966z
				 M287.005,88.29c-0.061-3.809-0.092-7.1-0.092-9.873l3.301-0.146c-0.104,2.656-0.157,5.297-0.157,7.92
				c0,0.703,0.004,1.403,0.013,2.1L287.005,88.29L287.005,88.29z"/>
			<path fill="#FFFFFF" d="M293.425,75.097l2.974-0.146v3.232l2.502-0.051l0.04,1.848l-2.542,0.088v4.443
				c0,1.033,0.589,1.553,1.769,1.553c0.244,0,0.511-0.022,0.799-0.068l-0.118,2.148c-0.419,0.039-0.817,0.059-1.192,0.059
				c-2.76,0-4.166-1.061-4.219-3.184v-4.775l-2.148,0.098l-0.052-2.178l2.201,0.021L293.425,75.097z"/>
			<path fill="#FFFFFF" d="M306.827,88.241l-0.131-1.592c-0.367,0.847-1.354,1.271-2.96,1.279c-0.018,0.007-0.031,0.01-0.04,0.01
				c-1.589,0-2.642-0.533-3.157-1.604c-0.349-0.709-0.524-2.178-0.524-4.402c0-1.146,0.048-2.496,0.144-4.055h3.184
				c-0.175,2.188-0.262,3.871-0.262,5.051c0,0.593,0.022,1.055,0.066,1.387c0.131,1.016,0.572,1.521,1.323,1.521
				c0.751,0,1.223-0.264,1.415-0.791l-0.131-6.775l3.079-0.021c0,2.8,0.135,6.062,0.406,9.785L306.827,88.241z"/>
			<path fill="#FFFFFF" d="M315.683,84.219l3.118,0.146c0,2.351-1.454,3.542-4.36,3.574c-0.035,0.007-0.065,0.01-0.094,0.01
				c-2.769,0-4.151-1.564-4.151-4.697v-0.293c0.087-3.357,1.562-5.055,4.428-5.088h0.105c2.638,0,3.955,1.127,3.955,3.379
				c0,0.131-0.005,0.263-0.013,0.393l-2.815,0.154v-0.232c0-1.187-0.45-1.777-1.351-1.777c-0.917,0-1.375,0.961-1.375,2.881v0.322
				c0.052,2.077,0.517,3.115,1.391,3.115h0.077c0.762-0.045,1.142-0.479,1.142-1.299C315.735,84.628,315.717,84.433,315.683,84.219z
				"/>
			<path fill="#FFFFFF" d="M323.556,75.966c0,0.397-0.188,0.736-0.562,1.018s-0.83,0.42-1.363,0.42c-0.521,0-0.974-0.14-1.349-0.42
				c-0.375-0.279-0.563-0.618-0.563-1.018c0-0.391,0.188-0.726,0.563-1.006c0.375-0.277,0.826-0.42,1.349-0.42
				c0.533,0,0.987,0.143,1.363,0.42C323.368,75.24,323.556,75.575,323.556,75.966z M320.045,88.29
				c-0.061-3.809-0.092-7.1-0.092-9.873l3.302-0.146c-0.104,2.656-0.157,5.297-0.157,7.92c0,0.703,0.004,1.403,0.015,2.1
				L320.045,88.29L320.045,88.29z"/>
			<path fill="#FFFFFF" d="M328.888,78.212c2.972,0,4.454,1.537,4.454,4.609c0,0.124-0.004,0.248-0.013,0.371
				c-0.123,3.327-1.703,5.007-4.743,5.039c-0.035,0.007-0.07,0.01-0.104,0.01c-2.893,0-4.338-1.572-4.338-4.717v-0.273
				C324.232,79.892,325.813,78.212,328.888,78.212z M328.456,80.438c-0.55,0.144-0.926,0.674-1.126,1.592
				c-0.123,0.547-0.186,1.098-0.186,1.65c0,0.371,0.026,0.746,0.079,1.123c0.142,0.938,0.591,1.423,1.351,1.453h0.092
				c0.708,0,1.192-0.348,1.454-1.045c0.218-0.577,0.328-1.266,0.328-2.061c0-0.195-0.004-0.396-0.015-0.596
				c-0.068-1.05-0.277-1.702-0.629-1.963c-0.218-0.156-0.479-0.234-0.784-0.234C328.844,80.36,328.656,80.387,328.456,80.438z
				 M327.185,76.308c1.022-0.904,1.86-1.77,2.518-2.588l2.146,1.27c-0.926,0.678-1.957,1.508-3.092,2.49L327.185,76.308z"/>
			<path fill="#FFFFFF" d="M336.473,77.958l0.132,1.592c0.366-0.846,1.331-1.273,2.896-1.287h0.052c1.537,0,2.585,0.447,3.146,1.348
				c0.384,0.612,0.577,2.045,0.577,4.297c0,1.107-0.05,2.416-0.146,3.926h-3.17c0.113-2.012,0.17-3.568,0.17-4.678
				c0-0.553-0.013-0.996-0.039-1.328c-0.087-0.977-0.507-1.465-1.258-1.465s-1.223,0.261-1.415,0.781l0.131,7.08l-3.079,0.02
				c0-2.994-0.136-6.355-0.406-10.088L336.473,77.958z"/>
		</g>
	</g>
	<rect x="163.714" y="103.819" opacity="0.5" fill="#951B81" enable-background="new    " width="254.12" height="31"/>
	<g>
		<g>
			<path fill="#FFFFFF" d="M239.948,125.579l-3.262,0.227c0-4.778-0.105-9.266-0.314-13.457l3.734-0.234
				C240.009,116.533,239.957,121.022,239.948,125.579z"/>
			<path fill="#FFFFFF" d="M243.669,116.048l0.131,1.594c0.367-0.848,1.332-1.275,2.895-1.289h0.052
				c1.537,0,2.585,0.447,3.145,1.348c0.384,0.612,0.576,2.045,0.576,4.297c0,1.107-0.048,2.416-0.144,3.926h-3.17
				c0.113-2.012,0.17-3.568,0.17-4.678c0-0.553-0.013-0.996-0.04-1.328c-0.087-0.977-0.506-1.465-1.257-1.465
				s-1.223,0.261-1.415,0.781l0.131,7.08l-3.079,0.02c0-2.994-0.135-6.355-0.406-10.088L243.669,116.048z"/>
			<path fill="#FFFFFF" d="M261.459,112.513c-0.052,2.199-0.078,4.509-0.078,6.924c0,2.201,0.021,4.492,0.065,6.875l-3.105,0.01
				l-0.105-1.494c-0.646,0.725-1.506,1.084-2.581,1.084c-2.681,0-4.022-1.529-4.022-4.59c0-0.064,0.004-0.13,0.013-0.195
				c0.052-3.064,1.38-4.6,3.982-4.6c0.105,0,0.214,0.004,0.328,0.01c0.891,0.039,1.611,0.4,2.162,1.084
				c0-1.443-0.048-3.146-0.144-5.105L261.459,112.513L261.459,112.513z M258.184,122.825l-0.065-3.379
				c-0.507-0.514-1.026-0.771-1.559-0.771c-0.218,0-0.437,0.045-0.655,0.129c-0.69,0.268-1.035,1.016-1.035,2.244
				c0,0.146,0.004,0.29,0.013,0.439c0.087,1.491,0.532,2.279,1.336,2.363c0.079,0.007,0.157,0.01,0.236,0.01
				C257.153,123.86,257.73,123.516,258.184,122.825z"/>
			<path fill="#FFFFFF" d="M266.752,116.302c3.03,0,4.546,1.501,4.546,4.502c0,0.363-0.022,0.756-0.065,1.172h-5.856
				c0,1.674,0.432,2.51,1.297,2.51h0.092c0.76-0.045,1.14-0.479,1.14-1.299c0-0.176-0.018-0.371-0.052-0.586l3.118-0.049
				c0,2.479-1.454,3.735-4.362,3.77c-0.035,0.007-0.065,0.01-0.092,0.01c-2.769,0-4.153-1.563-4.153-4.695v-0.295
				C262.45,117.981,263.914,116.302,266.752,116.302z M265.062,120.179h2.96v-0.234c0-1.185-0.45-1.777-1.349-1.777
				C265.704,118.167,265.167,118.838,265.062,120.179z"/>
			<path fill="#FFFFFF" d="M274.39,116.097l0.052,1.562c0.472-0.748,1.018-1.214,1.638-1.396c0.367-0.104,0.738-0.156,1.114-0.156
				c0.279,0,0.559,0.024,0.838,0.078c0.682,0.131,1.166,0.649,1.455,1.562c0.227-0.709,0.62-1.184,1.179-1.421
				s1.179-0.359,1.86-0.366h0.052c0.664,0,1.302,0.121,1.913,0.361c0.62,0.248,1.094,0.711,1.421,1.392
				c0.327,0.683,0.5,1.613,0.517,2.8v5.674l-2.83,0.049c0.114-2.143,0.17-3.965,0.17-5.469s-0.384-2.314-1.153-2.434
				c-0.114-0.013-0.223-0.02-0.328-0.02c-0.611,0-1.083,0.293-1.415,0.879c-0.053,0.678-0.079,1.469-0.079,2.373
				c0,1.229,0.048,2.666,0.144,4.307l-3.275,0.021c0.123-2.521,0.184-4.355,0.184-5.509v-0.116c-0.009-1.141-0.31-1.738-0.904-1.797
				h-0.17c-0.533,0-1.048,0.229-1.546,0.684l0.026,7.148l-3.091,0.088v-1.604c0-2.838-0.057-5.674-0.17-8.506L274.39,116.097z"/>
			<path fill="#FFFFFF" d="M289.625,116.048l0.131,1.594c0.367-0.848,1.332-1.275,2.896-1.289h0.052
				c1.537,0,2.585,0.447,3.144,1.348c0.384,0.612,0.577,2.045,0.577,4.297c0,1.107-0.048,2.416-0.145,3.926h-3.17
				c0.113-2.012,0.17-3.568,0.17-4.678c0-0.553-0.013-0.996-0.039-1.328c-0.087-0.977-0.507-1.465-1.258-1.465
				s-1.223,0.261-1.415,0.781l0.131,7.08l-3.079,0.02c0-2.994-0.136-6.355-0.406-10.088L289.625,116.048z"/>
			<path fill="#FFFFFF" d="M301.18,114.056c0,0.396-0.188,0.734-0.563,1.016c-0.376,0.28-0.83,0.42-1.363,0.42
				c-0.524,0-0.974-0.14-1.349-0.42c-0.376-0.279-0.563-0.618-0.563-1.016c0-0.393,0.188-0.728,0.563-1.008
				c0.375-0.277,0.825-0.42,1.349-0.42c0.533,0,0.987,0.143,1.363,0.42C300.992,113.33,301.18,113.665,301.18,114.056z
				 M297.669,126.38c-0.062-3.809-0.092-7.1-0.092-9.873l3.301-0.146c-0.105,2.656-0.157,5.297-0.157,7.92
				c0,0.703,0.004,1.403,0.013,2.1L297.669,126.38L297.669,126.38z"/>
			<path fill="#FFFFFF" d="M301.966,116.253c0.768,0.016,1.628,0.021,2.581,0.021c1.528,0,3.297-0.018,5.306-0.049l0.066,1.99
				l-4.664,5.859h4.664l-0.04,2.139c-2.192,0-4.86,0.033-8.004,0.1l-0.105-1.896l4.887-6.201c-1.563,0-3.105,0.043-4.625,0.129
				L301.966,116.253z"/>
			<path fill="#FFFFFF" d="M315.944,116.019c2.874,0.117,4.311,1.193,4.311,3.23v6.936l-3.053,0.039l-0.104-0.93
				c-0.629,0.534-1.463,0.803-2.502,0.803c-0.443,0-0.926-0.054-1.439-0.156c-1.546-0.286-2.319-1.178-2.319-2.676
				c0-0.184,0.013-0.377,0.039-0.586c0.175-1.543,1.646-2.314,4.415-2.314c0.533,0,1.118,0.029,1.755,0.088v-1.133
				c0-0.918-0.389-1.377-1.166-1.377h-0.052c-0.062-0.006-0.118-0.01-0.17-0.01c-0.849,0-1.271,0.515-1.271,1.543v0.146
				l-3.118-0.193c0-2.271,1.469-3.408,4.402-3.408L315.944,116.019L315.944,116.019z M317.045,123.733v-1.719
				c-0.375-0.061-0.716-0.088-1.021-0.088c-0.795,0-1.336,0.197-1.625,0.596c-0.177,0.241-0.264,0.466-0.264,0.674
				c0,0.261,0.142,0.492,0.419,0.693c0.22,0.154,0.502,0.232,0.854,0.232C315.853,124.124,316.398,123.994,317.045,123.733z"/>
			<path fill="#FFFFFF" d="M326.661,122.308l3.118,0.146c0,2.353-1.454,3.542-4.363,3.574c-0.035,0.007-0.065,0.01-0.091,0.01
				c-2.771,0-4.153-1.563-4.153-4.697v-0.293c0.087-3.357,1.563-5.055,4.428-5.088h0.105c2.637,0,3.957,1.127,3.957,3.379
				c0,0.133-0.005,0.263-0.013,0.393l-2.817,0.156v-0.234c0-1.187-0.45-1.777-1.349-1.777c-0.917,0-1.375,0.961-1.375,2.881v0.322
				c0.052,2.077,0.515,3.115,1.389,3.115h0.078c0.76-0.045,1.14-0.479,1.14-1.299C326.713,122.719,326.696,122.522,326.661,122.308z
				"/>
			<path fill="#FFFFFF" d="M334.534,114.056c0,0.396-0.188,0.734-0.563,1.016s-0.83,0.42-1.36,0.42c-0.524,0-0.976-0.14-1.352-0.42
				c-0.375-0.279-0.562-0.618-0.562-1.016c0-0.393,0.188-0.728,0.562-1.008c0.376-0.277,0.826-0.42,1.352-0.42
				c0.531,0,0.985,0.143,1.36,0.42C334.346,113.33,334.534,113.665,334.534,114.056z M331.023,126.38
				c-0.062-3.809-0.094-7.1-0.094-9.873l3.303-0.146c-0.105,2.656-0.157,5.297-0.157,7.92c0,0.703,0.004,1.403,0.013,2.1
				L331.023,126.38L331.023,126.38z"/>
			<path fill="#FFFFFF" d="M339.866,116.302c2.969,0,4.454,1.535,4.454,4.607c0,0.124-0.004,0.248-0.015,0.371
				c-0.123,3.327-1.701,5.007-4.74,5.039c-0.035,0.007-0.07,0.01-0.105,0.01c-2.891,0-4.336-1.57-4.336-4.717v-0.273
				C335.211,117.981,336.792,116.302,339.866,116.302z M339.434,118.528c-0.55,0.144-0.926,0.674-1.126,1.592
				c-0.123,0.547-0.183,1.1-0.183,1.65c0,0.371,0.026,0.746,0.078,1.123c0.14,0.938,0.59,1.423,1.35,1.455h0.092
				c0.707,0,1.192-0.35,1.454-1.045c0.22-0.579,0.328-1.268,0.328-2.062c0-0.195-0.004-0.394-0.013-0.596
				c-0.07-1.048-0.28-1.702-0.629-1.963c-0.218-0.156-0.48-0.234-0.786-0.234C339.822,118.45,339.635,118.477,339.434,118.528z
				 M338.163,114.397c1.021-0.904,1.86-1.77,2.515-2.588l2.149,1.27c-0.926,0.678-1.957,1.508-3.092,2.49L338.163,114.397z"/>
			<path fill="#FFFFFF" d="M347.451,116.048l0.131,1.594c0.367-0.848,1.332-1.275,2.895-1.289h0.055
				c1.537,0,2.585,0.447,3.144,1.348c0.384,0.612,0.576,2.045,0.576,4.297c0,1.107-0.048,2.416-0.144,3.926h-3.172
				c0.114-2.012,0.172-3.568,0.172-4.678c0-0.553-0.015-0.996-0.039-1.328c-0.09-0.977-0.509-1.465-1.26-1.465
				s-1.223,0.261-1.415,0.781l0.133,7.08l-3.078,0.02c0-2.994-0.138-6.355-0.406-10.088L347.451,116.048z"/>
		</g>
	</g>
	<rect x="163.714" y="141.909" opacity="0.5" fill="#951B81" enable-background="new    " width="254.12" height="31"/>
	<g>
		<g>
			<path fill="#FFFFFF" d="M235.972,164.284c0.052-1.861,0.079-3.736,0.079-5.625c0-2.891-0.062-5.811-0.184-8.76
				c1.354-0.104,2.568-0.156,3.642-0.156c2.987,0,4.891,0.407,5.712,1.221c0.768,0.764,1.153,1.604,1.153,2.521
				c0,0.417-0.074,0.847-0.223,1.289c-0.507,1.433-1.572,2.341-3.197,2.725c1.135,0.117,1.996,0.573,2.581,1.367
				c0.559,0.771,0.838,2.702,0.838,5.801v0.42l-3.957,0.039c0.043-0.818,0.065-1.556,0.065-2.207c0-1.973-0.214-3.18-0.642-3.623
				c-0.489-0.492-1.07-0.74-1.742-0.74c-0.131,0-0.267,0.01-0.406,0.027c0.053,1.986,0.166,3.867,0.341,5.646L235.972,164.284z
				 M239.326,152.175l0.092,4.182c1.625-0.061,2.655-0.469,3.092-1.23c0.236-0.401,0.354-0.797,0.354-1.182
				c0-0.332-0.087-0.657-0.262-0.979c-0.314-0.553-1.096-0.828-2.345-0.828C239.968,152.136,239.658,152.149,239.326,152.175z"/>
			<path fill="#FFFFFF" d="M251.745,154.392c3.03,0,4.546,1.501,4.546,4.502c0,0.365-0.022,0.756-0.065,1.172h-5.856
				c0,1.674,0.432,2.51,1.297,2.51h0.092c0.76-0.045,1.14-0.479,1.14-1.299c0-0.176-0.018-0.371-0.052-0.586l3.118-0.049
				c0,2.479-1.454,3.735-4.362,3.77c-0.035,0.007-0.065,0.01-0.092,0.01c-2.769,0-4.153-1.563-4.153-4.695v-0.293
				C247.443,156.071,248.907,154.392,251.745,154.392z M250.055,158.269h2.96v-0.234c0-1.185-0.45-1.777-1.349-1.777
				C250.697,156.257,250.16,156.928,250.055,158.269z"/>
			<path fill="#FFFFFF" d="M260.392,150.427l0.131,5.496c0.367-0.846,1.223-1.273,2.568-1.287h0.039c1.328,0,2.271,0.447,2.83,1.348
				c0.384,0.612,0.577,2.045,0.577,4.297c0,1.107-0.048,2.416-0.144,3.926h-3.301c0.113-2.012,0.17-3.568,0.17-4.678
				c0-0.553-0.013-0.996-0.04-1.328c-0.087-0.977-0.463-1.465-1.126-1.465c-0.664,0-1.092,0.261-1.284,0.781l0.131,7.08l-3.209,0.02
				c0-2.994-0.179-7.689-0.537-14.092L260.392,150.427z"/>
			<path fill="#FFFFFF" d="M272.706,154.108c2.873,0.117,4.31,1.195,4.31,3.23v6.936l-3.052,0.039l-0.105-0.928
				c-0.629,0.532-1.463,0.801-2.502,0.801c-0.445,0-0.926-0.052-1.441-0.156c-1.546-0.286-2.319-1.178-2.319-2.676
				c0-0.184,0.013-0.377,0.04-0.586c0.174-1.543,1.646-2.314,4.415-2.314c0.533,0,1.118,0.029,1.756,0.088v-1.133
				c0-0.918-0.389-1.377-1.166-1.377h-0.053c-0.061-0.006-0.118-0.01-0.17-0.01c-0.848,0-1.271,0.515-1.271,1.543v0.146
				l-3.118-0.193c0-2.271,1.467-3.408,4.401-3.408L272.706,154.108L272.706,154.108z M273.807,161.823v-1.719
				c-0.376-0.061-0.716-0.088-1.022-0.088c-0.795,0-1.336,0.197-1.625,0.596c-0.175,0.241-0.262,0.466-0.262,0.674
				c0,0.261,0.14,0.492,0.419,0.693c0.218,0.156,0.502,0.232,0.852,0.232C272.614,162.214,273.16,162.084,273.807,161.823z"/>
			<path fill="#FFFFFF" d="M281.627,150.603c-0.096,1.96-0.144,3.662-0.144,5.105c0.463-0.618,1.052-0.979,1.769-1.084
				c0.122-0.006,0.24-0.01,0.354-0.01c2.848,0,4.302,1.533,4.363,4.6v0.178c0,3.071-1.515,4.607-4.546,4.607
				c-0.725,0-1.411-0.359-2.057-1.084l-0.104,1.494l-3.105-0.01c0.043-2.383,0.066-4.674,0.066-6.875
				c0-2.415-0.026-4.723-0.079-6.924L281.627,150.603L281.627,150.603z M281.483,157.536l-0.065,3.379
				c0.454,0.69,1.03,1.035,1.729,1.035c0.078,0,0.157-0.003,0.235-0.01c0.804-0.084,1.249-0.889,1.336-2.412
				c0.009-0.156,0.013-0.306,0.013-0.449c0-1.25-0.341-1.995-1.022-2.234c-0.209-0.071-0.415-0.107-0.616-0.107
				C282.544,156.735,282.007,157.003,281.483,157.536z"/>
			<path fill="#FFFFFF" d="M292.671,152.146c0,0.396-0.188,0.734-0.563,1.016s-0.83,0.42-1.362,0.42c-0.524,0-0.974-0.14-1.35-0.42
				c-0.375-0.279-0.563-0.618-0.563-1.016c0-0.393,0.188-0.728,0.563-1.006c0.375-0.279,0.826-0.42,1.35-0.42
				c0.533,0,0.987,0.141,1.362,0.42C292.483,151.419,292.671,151.755,292.671,152.146z M289.16,164.47
				c-0.061-3.811-0.092-7.102-0.092-9.873l3.302-0.146c-0.105,2.656-0.157,5.297-0.157,7.92c0,0.703,0.004,1.403,0.013,2.102
				L289.16,164.47L289.16,164.47z"/>
			<path fill="#FFFFFF" d="M297.073,164.255l-3.262,0.227c0.035-2.154,0.052-4.229,0.052-6.221c0-2.801-0.035-5.439-0.104-7.922
				l3.209-0.037c-0.035,1.596-0.052,3.23-0.052,4.91C296.916,158.109,296.968,161.124,297.073,164.255z"/>
			<path fill="#FFFFFF" d="M301.868,152.146c0,0.396-0.188,0.734-0.563,1.016s-0.83,0.42-1.362,0.42c-0.524,0-0.974-0.14-1.35-0.42
				c-0.375-0.279-0.562-0.618-0.562-1.016c0-0.393,0.188-0.728,0.562-1.006c0.374-0.279,0.825-0.42,1.35-0.42
				c0.532,0,0.987,0.141,1.362,0.42C301.68,151.419,301.868,151.755,301.868,152.146z M298.357,164.47
				c-0.061-3.811-0.092-7.102-0.092-9.873l3.301-0.146c-0.104,2.656-0.157,5.297-0.157,7.92c0,0.703,0.004,1.403,0.014,2.102
				L298.357,164.47L298.357,164.47z"/>
			<path fill="#FFFFFF" d="M304.776,151.276l2.974-0.146v3.232l2.502-0.049l0.039,1.846l-2.542,0.088v4.443
				c0,1.035,0.59,1.553,1.769,1.553c0.245,0,0.513-0.021,0.801-0.068l-0.118,2.148c-0.419,0.039-0.817,0.059-1.192,0.059
				c-2.76,0-4.166-1.061-4.218-3.184v-4.775l-2.149,0.1l-0.052-2.178l2.201,0.02L304.776,151.276z"/>
			<path fill="#FFFFFF" d="M316.449,154.108c2.873,0.117,4.31,1.195,4.31,3.23v6.936l-3.052,0.039l-0.105-0.928
				c-0.629,0.532-1.463,0.801-2.502,0.801c-0.443,0-0.926-0.052-1.439-0.156c-1.545-0.286-2.318-1.178-2.318-2.676
				c0-0.184,0.013-0.377,0.039-0.586c0.175-1.543,1.646-2.314,4.415-2.314c0.533,0,1.118,0.029,1.755,0.088v-1.133
				c0-0.918-0.389-1.377-1.166-1.377h-0.052c-0.062-0.006-0.118-0.01-0.17-0.01c-0.847,0-1.271,0.515-1.271,1.543v0.146
				l-3.116-0.193c0-2.271,1.467-3.408,4.4-3.408L316.449,154.108L316.449,154.108z M317.549,161.823v-1.719
				c-0.375-0.061-0.716-0.088-1.021-0.088c-0.795,0-1.336,0.197-1.624,0.596c-0.177,0.241-0.264,0.466-0.264,0.674
				c0,0.261,0.142,0.492,0.419,0.693c0.22,0.156,0.504,0.232,0.854,0.232C316.357,162.214,316.903,162.084,317.549,161.823z"/>
			<path fill="#FFFFFF" d="M327.165,160.397l3.118,0.146c0,2.353-1.454,3.542-4.363,3.574c-0.035,0.007-0.063,0.01-0.091,0.01
				c-2.771,0-4.153-1.563-4.153-4.695v-0.293c0.087-3.359,1.563-5.057,4.43-5.09h0.104c2.637,0,3.956,1.129,3.956,3.381
				c0,0.131-0.004,0.261-0.013,0.391l-2.817,0.156v-0.234c0-1.185-0.45-1.777-1.349-1.777c-0.917,0-1.376,0.963-1.376,2.883v0.32
				c0.053,2.077,0.516,3.115,1.389,3.115h0.079c0.76-0.045,1.14-0.479,1.14-1.299C327.218,160.808,327.2,160.612,327.165,160.397z"
				/>
			<path fill="#FFFFFF" d="M335.039,152.146c0,0.396-0.188,0.734-0.563,1.016c-0.376,0.28-0.828,0.42-1.361,0.42
				c-0.524,0-0.976-0.14-1.351-0.42c-0.376-0.279-0.562-0.618-0.562-1.016c0-0.393,0.188-0.728,0.562-1.006
				c0.374-0.279,0.825-0.42,1.351-0.42c0.532,0,0.985,0.141,1.361,0.42C334.851,151.42,335.039,151.755,335.039,152.146z
				 M331.528,164.47c-0.062-3.811-0.094-7.102-0.094-9.873l3.303-0.146c-0.105,2.656-0.157,5.297-0.157,7.92
				c0,0.703,0.004,1.403,0.013,2.102L331.528,164.47L331.528,164.47z"/>
			<path fill="#FFFFFF" d="M340.371,154.392c2.969,0,4.454,1.537,4.454,4.607c0,0.124-0.004,0.248-0.015,0.371
				c-0.12,3.327-1.701,5.007-4.74,5.039c-0.035,0.007-0.07,0.01-0.105,0.01c-2.891,0-4.336-1.57-4.336-4.717v-0.271
				C335.715,156.071,337.296,154.392,340.371,154.392z M339.938,156.618c-0.553,0.146-0.928,0.674-1.129,1.592
				c-0.121,0.547-0.184,1.1-0.184,1.65c0,0.371,0.026,0.746,0.079,1.123c0.139,0.938,0.589,1.423,1.349,1.455h0.094
				c0.708,0,1.19-0.35,1.452-1.045c0.22-0.579,0.328-1.268,0.328-2.062c0-0.193-0.005-0.394-0.013-0.596
				c-0.07-1.048-0.28-1.702-0.629-1.963c-0.218-0.156-0.48-0.234-0.786-0.234C340.327,156.54,340.139,156.566,339.938,156.618z
				 M338.667,152.487c1.022-0.904,1.86-1.768,2.515-2.588l2.148,1.27c-0.926,0.68-1.956,1.51-3.092,2.49L338.667,152.487z"/>
			<path fill="#FFFFFF" d="M347.956,154.138l0.131,1.592c0.367-0.846,1.332-1.275,2.896-1.289h0.052
				c1.537,0,2.585,0.449,3.145,1.348c0.386,0.612,0.576,2.045,0.576,4.297c0,1.107-0.048,2.416-0.144,3.928h-3.17
				c0.111-2.014,0.17-3.57,0.17-4.68c0-0.553-0.015-0.996-0.04-1.328c-0.087-0.977-0.506-1.465-1.259-1.465
				c-0.751,0-1.223,0.263-1.413,0.781l0.131,7.08l-3.079,0.02c0-2.992-0.135-6.355-0.406-10.088L347.956,154.138z"/>
		</g>
	</g>
	<rect x="163.714" y="179.999" opacity="0.5" fill="#951B81" enable-background="new    " width="254.12" height="31"/>
	<g>
		<g>
			<path fill="#FFFFFF" d="M241.959,197.052l3.891-0.195c-0.052,0.404-0.078,0.769-0.078,1.094c0,1.479,0.493,2.217,1.48,2.217
				h0.052c1.197-0.023,1.795-0.501,1.795-1.426v-0.088c-0.044-0.982-1.175-1.946-3.393-2.891c-2.157-0.911-3.236-2.415-3.236-4.514
				c0-0.062,0.004-0.13,0.013-0.193c0.061-2.193,1.711-3.312,4.952-3.352h0.105c2.926,0,4.389,1.393,4.389,4.17
				c0,0.224-0.009,0.456-0.026,0.703l-3.419,0.146c0.035-0.293,0.052-0.562,0.052-0.812c0-1.165-0.38-1.748-1.14-1.748
				c-0.917,0-1.419,0.351-1.506,1.045c-0.009,0.1-0.013,0.195-0.013,0.293c0,0.58,0.231,1.12,0.694,1.621
				c0.533,0.58,1.448,1.11,2.745,1.592c1.297,0.482,2.203,1.145,2.718,1.982c0.367,0.604,0.55,1.25,0.55,1.934
				c0,0.263-0.026,0.527-0.079,0.803c-0.201,0.981-0.76,1.799-1.677,2.444c-0.917,0.647-2.148,1.001-3.694,1.062
				c-0.105,0.007-0.21,0.01-0.314,0.01c-1.406,0-2.581-0.384-3.524-1.152c-0.908-0.733-1.362-2.071-1.362-4.014
				C241.933,197.55,241.941,197.306,241.959,197.052z"/>
			<path fill="#FFFFFF" d="M258.78,192.198c2.873,0.117,4.31,1.195,4.31,3.232v6.934l-3.053,0.039l-0.104-0.928
				c-0.629,0.532-1.463,0.801-2.502,0.801c-0.445,0-0.926-0.052-1.441-0.156c-1.546-0.286-2.319-1.178-2.319-2.676
				c0-0.182,0.013-0.377,0.039-0.586c0.175-1.543,1.646-2.314,4.415-2.314c0.533,0,1.118,0.029,1.756,0.088v-1.133
				c0-0.918-0.389-1.377-1.166-1.377h-0.053c-0.061-0.006-0.118-0.01-0.17-0.01c-0.848,0-1.271,0.515-1.271,1.543v0.146
				l-3.118-0.195c0-2.271,1.467-3.408,4.402-3.408H258.78z M259.881,199.913v-1.719c-0.376-0.059-0.717-0.088-1.022-0.088
				c-0.795,0-1.336,0.199-1.625,0.596c-0.175,0.241-0.262,0.466-0.262,0.674c0,0.263,0.14,0.492,0.419,0.693
				c0.218,0.156,0.502,0.234,0.852,0.234C258.688,200.304,259.234,200.174,259.881,199.913z"/>
			<path fill="#FFFFFF" d="M266.326,189.366l2.974-0.146v3.23l2.502-0.049l0.039,1.846l-2.542,0.088v4.443
				c0,1.035,0.59,1.553,1.769,1.553c0.245,0,0.511-0.021,0.799-0.066l-0.118,2.146c-0.419,0.039-0.817,0.061-1.192,0.061
				c-2.76,0-4.166-1.062-4.218-3.186v-4.773l-2.149,0.098l-0.052-2.178l2.201,0.02L266.326,189.366z"/>
			<path fill="#FFFFFF" d="M276.597,190.235c0,0.396-0.188,0.736-0.563,1.016c-0.375,0.28-0.83,0.42-1.363,0.42
				c-0.524,0-0.974-0.14-1.349-0.42c-0.375-0.277-0.563-0.618-0.563-1.016c0-0.391,0.188-0.726,0.563-1.006
				c0.375-0.279,0.825-0.42,1.349-0.42c0.533,0,0.987,0.141,1.363,0.42C276.409,189.51,276.597,189.845,276.597,190.235z
				 M273.086,202.56c-0.062-3.811-0.092-7.102-0.092-9.873l3.301-0.146c-0.105,2.656-0.157,5.297-0.157,7.92
				c0,0.703,0.004,1.403,0.013,2.102L273.086,202.56L273.086,202.56z"/>
			<path fill="#FFFFFF" d="M277.16,199.044l3-0.105v0.127c0,1.003,0.415,1.511,1.245,1.521h0.052c0.804,0,1.205-0.289,1.205-0.867
				v-0.068c-0.035-0.638-0.827-1.152-2.377-1.543c-1.55-0.393-2.482-1.048-2.797-1.974c-0.114-0.324-0.17-0.639-0.17-0.938
				c0-0.547,0.188-1.055,0.563-1.523c0.576-0.716,1.449-1.126,2.62-1.229c0.314-0.025,0.62-0.039,0.917-0.039
				c0.777,0,1.463,0.102,2.057,0.303c0.812,0.28,1.375,0.683,1.69,1.201c0.209,0.358,0.314,0.756,0.314,1.191
				c0,0.209-0.022,0.424-0.065,0.645l-2.804,0.049c0.026-0.162,0.04-0.312,0.04-0.447c0-0.65-0.28-0.999-0.838-1.047
				c-0.062-0.006-0.123-0.01-0.184-0.01c-0.577,0-0.965,0.22-1.166,0.654c-0.07,0.15-0.105,0.287-0.105,0.41
				c0,0.307,0.192,0.568,0.577,0.791c0.542,0.312,1.343,0.63,2.404,0.952c1.062,0.32,1.775,0.869,2.142,1.646
				c0.131,0.293,0.197,0.586,0.197,0.879c0,0.495-0.192,0.993-0.577,1.494c-0.611,0.801-1.559,1.267-2.843,1.396
				c-0.28,0.031-0.555,0.049-0.826,0.049c-0.96,0-1.852-0.188-2.672-0.559C277.71,201.528,277.178,200.542,277.16,199.044z"/>
			<path fill="#FFFFFF" d="M288.531,192.833c-0.018-0.176-0.026-0.354-0.026-0.537c0-0.609,0.083-1.238,0.249-1.885
				c0.201-0.84,0.812-1.51,1.834-2.012c0.76-0.377,1.72-0.566,2.882-0.566c0.384,0,0.795,0.023,1.231,0.068l-0.026,2.139
				c-0.262-0.023-0.507-0.039-0.734-0.039c-0.725,0-1.257,0.136-1.598,0.4c-0.375,0.28-0.563,0.827-0.563,1.641
				c0,0.195,0.013,0.41,0.04,0.646l2.803-0.029v1.982l-2.882,0.137c0.07,2.136,0.104,4.154,0.104,6.055
				c0,0.573-0.004,1.133-0.013,1.682l-3.328,0.105c0.026-2.168,0.07-4.73,0.131-7.695l-2.123,0.078l-0.052-2.1L288.531,192.833z"/>
			<path fill="#FFFFFF" d="M300.846,192.198c2.873,0.117,4.31,1.195,4.31,3.232v6.934l-3.053,0.039l-0.104-0.928
				c-0.629,0.532-1.463,0.801-2.502,0.801c-0.445,0-0.926-0.052-1.441-0.156c-1.546-0.286-2.319-1.178-2.319-2.676
				c0-0.182,0.013-0.377,0.04-0.586c0.174-1.543,1.646-2.314,4.415-2.314c0.533,0,1.118,0.029,1.755,0.088v-1.133
				c0-0.918-0.389-1.377-1.166-1.377h-0.052c-0.061-0.006-0.118-0.01-0.17-0.01c-0.847,0-1.271,0.515-1.271,1.543v0.146
				l-3.118-0.195c0-2.271,1.467-3.408,4.402-3.408H300.846z M301.946,199.913v-1.719c-0.375-0.059-0.716-0.088-1.021-0.088
				c-0.795,0-1.336,0.199-1.625,0.596c-0.175,0.241-0.262,0.466-0.262,0.674c0,0.263,0.14,0.492,0.419,0.693
				c0.218,0.156,0.502,0.234,0.852,0.234C300.754,200.304,301.3,200.174,301.946,199.913z"/>
			<path fill="#FFFFFF" d="M311.562,198.487l3.118,0.146c0,2.353-1.454,3.542-4.36,3.574c-0.035,0.007-0.065,0.01-0.094,0.01
				c-2.769,0-4.151-1.563-4.151-4.695v-0.293c0.087-3.359,1.562-5.057,4.428-5.088h0.105c2.638,0,3.957,1.127,3.957,3.379
				c0,0.131-0.007,0.261-0.015,0.391l-2.815,0.156v-0.234c0-1.185-0.45-1.775-1.351-1.775c-0.917,0-1.375,0.961-1.375,2.881v0.32
				c0.054,2.077,0.517,3.115,1.391,3.115h0.079c0.76-0.045,1.14-0.479,1.14-1.299C311.615,198.897,311.597,198.702,311.562,198.487z
				"/>
			<path fill="#FFFFFF" d="M321.126,198.487l3.118,0.146c0,2.353-1.454,3.542-4.363,3.574c-0.035,0.007-0.063,0.01-0.091,0.01
				c-2.77,0-4.153-1.563-4.153-4.695v-0.293c0.087-3.359,1.563-5.057,4.43-5.088h0.104c2.637,0,3.957,1.127,3.957,3.379
				c0,0.131-0.005,0.261-0.013,0.391l-2.817,0.156v-0.234c0-1.185-0.45-1.775-1.349-1.775c-0.917,0-1.375,0.961-1.375,2.881v0.32
				c0.052,2.077,0.515,3.115,1.389,3.115h0.078c0.76-0.045,1.14-0.479,1.14-1.299C321.178,198.897,321.161,198.702,321.126,198.487z
				"/>
			<path fill="#FFFFFF" d="M328.999,190.235c0,0.396-0.188,0.736-0.563,1.016c-0.375,0.28-0.828,0.42-1.361,0.42
				c-0.524,0-0.976-0.14-1.351-0.42c-0.375-0.277-0.562-0.618-0.562-1.016c0-0.391,0.188-0.726,0.562-1.006
				c0.375-0.279,0.825-0.42,1.351-0.42c0.533,0,0.985,0.141,1.361,0.42C328.812,189.51,328.999,189.845,328.999,190.235z
				 M325.488,202.56c-0.062-3.811-0.093-7.102-0.093-9.873l3.302-0.146c-0.105,2.656-0.157,5.297-0.157,7.92
				c0,0.703,0.004,1.403,0.013,2.102L325.488,202.56L325.488,202.56z"/>
			<path fill="#FFFFFF" d="M334.331,192.481c2.969,0,4.454,1.537,4.454,4.607c0,0.124-0.004,0.248-0.013,0.371
				c-0.123,3.327-1.703,5.009-4.743,5.039c-0.035,0.007-0.07,0.012-0.105,0.012c-2.891,0-4.336-1.572-4.336-4.719v-0.271
				C329.676,194.161,331.257,192.481,334.331,192.481z M333.899,194.708c-0.552,0.146-0.928,0.674-1.127,1.592
				c-0.122,0.549-0.185,1.1-0.185,1.65c0,0.371,0.026,0.746,0.079,1.123c0.139,0.938,0.589,1.423,1.349,1.455h0.094
				c0.708,0,1.19-0.348,1.454-1.045c0.218-0.579,0.326-1.268,0.326-2.062c0-0.193-0.004-0.394-0.013-0.596
				c-0.07-1.048-0.279-1.702-0.629-1.963c-0.218-0.156-0.48-0.234-0.786-0.234C334.287,194.63,334.1,194.656,333.899,194.708z
				 M332.628,190.577c1.022-0.904,1.86-1.768,2.516-2.588l2.148,1.271c-0.926,0.678-1.957,1.508-3.092,2.488L332.628,190.577z"/>
			<path fill="#FFFFFF" d="M341.917,192.228l0.131,1.592c0.367-0.846,1.332-1.275,2.896-1.289h0.053
				c1.537,0,2.585,0.449,3.144,1.348c0.386,0.612,0.577,2.045,0.577,4.297c0,1.107-0.048,2.416-0.145,3.928h-3.17
				c0.111-2.014,0.17-3.57,0.17-4.68c0-0.553-0.015-0.994-0.039-1.326c-0.087-0.979-0.507-1.467-1.258-1.467
				s-1.225,0.263-1.415,0.781l0.131,7.08l-3.079,0.021c0-2.994-0.136-6.357-0.406-10.09L341.917,192.228z"/>
		</g>
	</g>
	<rect x="163.714" y="218.089" opacity="0.5" fill="#951B81" enable-background="new    " width="254.12" height="31"/>
	<g>
		<g>
			<path fill="#FFFFFF" d="M237.695,240.317c0.105-2.229,0.157-4.396,0.157-6.504c0-2.437-0.07-4.795-0.209-7.08l3.852-0.137
				l3.537,7.354c-0.035-2.525-0.131-5.11-0.288-7.754l4.048-0.039c-0.402,3.991-0.603,8.021-0.603,12.09
				c0,0.547,0.004,1.094,0.013,1.643l-3.55,0.027l-3.773-7.871c0.114,2.904,0.219,5.604,0.314,8.098L237.695,240.317z"/>
			<path fill="#FFFFFF" d="M254.555,230.571c2.969,0,4.454,1.537,4.454,4.609c0,0.124-0.004,0.248-0.013,0.369
				c-0.122,3.327-1.703,5.009-4.742,5.039c-0.035,0.009-0.07,0.012-0.104,0.012c-2.891,0-4.336-1.572-4.336-4.719v-0.271
				C249.9,232.251,251.481,230.571,254.555,230.571z M254.123,232.798c-0.55,0.146-0.926,0.676-1.127,1.594
				c-0.122,0.547-0.183,1.098-0.183,1.648c0,0.371,0.026,0.746,0.079,1.123c0.14,0.938,0.589,1.423,1.349,1.455h0.092
				c0.708,0,1.192-0.348,1.454-1.045c0.218-0.579,0.328-1.266,0.328-2.061c0-0.195-0.004-0.396-0.013-0.598
				c-0.07-1.048-0.28-1.702-0.629-1.963c-0.218-0.156-0.48-0.232-0.786-0.232C254.512,232.72,254.324,232.746,254.123,232.798z"/>
			<path fill="#FFFFFF" d="M264.826,240.464c0.052-1.859,0.079-3.734,0.079-5.625c0-2.891-0.062-5.811-0.184-8.76
				c1.354-0.104,2.568-0.156,3.642-0.156c2.987,0,4.891,0.407,5.712,1.223c0.769,0.762,1.153,1.602,1.153,2.52
				c0,0.417-0.075,0.849-0.223,1.289c-0.507,1.435-1.572,2.341-3.197,2.727c1.135,0.115,1.996,0.571,2.581,1.365
				c0.559,0.771,0.838,2.702,0.838,5.803v0.42l-3.957,0.039c0.044-0.82,0.065-1.558,0.065-2.207c0-1.975-0.214-3.182-0.642-3.623
				c-0.489-0.494-1.07-0.742-1.743-0.742c-0.131,0-0.267,0.01-0.406,0.029c0.052,1.984,0.166,3.865,0.34,5.645L264.826,240.464z
				 M268.18,228.354l0.092,4.18c1.625-0.059,2.655-0.469,3.092-1.229c0.236-0.403,0.354-0.799,0.354-1.184
				c0-0.332-0.087-0.657-0.262-0.977c-0.314-0.555-1.096-0.83-2.345-0.83C268.822,228.315,268.512,228.329,268.18,228.354z"/>
			<path fill="#FFFFFF" d="M280.599,230.571c3.031,0,4.546,1.501,4.546,4.502c0,0.365-0.022,0.756-0.065,1.172h-5.856
				c0,1.674,0.433,2.51,1.297,2.51h0.092c0.76-0.045,1.14-0.479,1.14-1.299c0-0.176-0.018-0.371-0.052-0.586l3.118-0.049
				c0,2.479-1.454,3.737-4.362,3.77c-0.035,0.009-0.065,0.012-0.092,0.012c-2.769,0-4.153-1.565-4.153-4.697v-0.293
				C276.298,232.251,277.761,230.571,280.599,230.571z M278.909,234.448h2.961v-0.234c0-1.185-0.45-1.775-1.35-1.775
				C279.551,232.437,279.014,233.107,278.909,234.448z"/>
			<path fill="#FFFFFF" d="M286.206,244.497c0.053-2.192,0.079-4.525,0.079-7.002c0-2.252-0.022-4.615-0.066-7.09l3.105-0.01
				l0.104,1.504c0.646-0.729,1.507-1.094,2.581-1.094c2.681,0,4.022,1.577,4.022,4.734v0.195c-0.061,3.164-1.397,4.746-4.009,4.746
				c-0.105,0-0.209-0.003-0.314-0.01c-0.891-0.032-1.611-0.396-2.162-1.084c0,1.443,0.048,3.146,0.144,5.105h-3.484V244.497
				L286.206,244.497z M289.481,233.901l0.065,3.672c0.506,0.515,1.018,0.771,1.533,0.771c0.209,0,0.419-0.047,0.629-0.139
				c0.637-0.26,0.957-1.038,0.957-2.334c0-0.156-0.005-0.316-0.013-0.486c-0.087-1.59-0.511-2.427-1.271-2.512
				c-0.079-0.006-0.153-0.01-0.223-0.01C290.495,232.866,289.936,233.212,289.481,233.901z"/>
			<path fill="#FFFFFF" d="M301.324,230.571c3.031,0,4.546,1.501,4.546,4.502c0,0.365-0.022,0.756-0.065,1.172h-5.856
				c0,1.674,0.432,2.51,1.297,2.51h0.092c0.76-0.045,1.14-0.479,1.14-1.299c0-0.176-0.018-0.371-0.052-0.586l3.118-0.049
				c0,2.479-1.455,3.737-4.363,3.77c-0.035,0.009-0.065,0.012-0.092,0.012c-2.769,0-4.153-1.565-4.153-4.697v-0.293
				C297.023,232.251,298.486,230.571,301.324,230.571z M299.634,234.448h2.961v-0.234c0-1.185-0.45-1.775-1.35-1.775
				C300.276,232.437,299.739,233.107,299.634,234.448z"/>
			<path fill="#FFFFFF" d="M309.041,227.456l2.974-0.146v3.23l2.502-0.049l0.039,1.846l-2.541,0.09v4.441
				c0,1.035,0.591,1.553,1.771,1.553c0.244,0,0.511-0.021,0.799-0.066l-0.118,2.146c-0.419,0.039-0.815,0.061-1.19,0.061
				c-2.762,0-4.166-1.062-4.22-3.186v-4.773l-2.146,0.098l-0.053-2.178l2.199,0.02L309.041,227.456z"/>
			<path fill="#FFFFFF" d="M319.312,228.325c0,0.397-0.188,0.736-0.562,1.016c-0.375,0.28-0.83,0.422-1.362,0.422
				c-0.522,0-0.974-0.142-1.35-0.422c-0.375-0.277-0.563-0.616-0.563-1.016c0-0.391,0.188-0.726,0.563-1.006
				c0.375-0.279,0.825-0.42,1.35-0.42c0.532,0,0.987,0.141,1.362,0.42C319.124,227.6,319.312,227.935,319.312,228.325z
				 M315.8,240.649c-0.061-3.811-0.092-7.102-0.092-9.873l3.301-0.146c-0.104,2.656-0.157,5.299-0.157,7.92
				c0,0.703,0.006,1.403,0.016,2.102L315.8,240.649L315.8,240.649z"/>
			<path fill="#FFFFFF" d="M325.39,236.577l3.118,0.146c0,2.351-1.454,3.542-4.36,3.572c-0.035,0.009-0.065,0.012-0.094,0.012
				c-2.769,0-4.151-1.565-4.151-4.697v-0.293c0.087-3.359,1.562-5.055,4.428-5.088h0.104c2.64,0,3.957,1.127,3.957,3.379
				c0,0.131-0.004,0.261-0.013,0.391l-2.815,0.156v-0.234c0-1.185-0.449-1.775-1.351-1.775c-0.917,0-1.375,0.961-1.375,2.881v0.322
				c0.052,2.075,0.516,3.113,1.389,3.113h0.079c0.762-0.045,1.142-0.479,1.142-1.299
				C325.442,236.987,325.425,236.792,325.39,236.577z"/>
			<path fill="#FFFFFF" d="M333.264,228.325c0,0.397-0.188,0.736-0.562,1.016c-0.375,0.28-0.83,0.422-1.362,0.422
				c-0.522,0-0.974-0.142-1.35-0.422c-0.375-0.277-0.563-0.616-0.563-1.016c0-0.391,0.188-0.726,0.563-1.006
				c0.375-0.279,0.825-0.42,1.35-0.42c0.532,0,0.987,0.141,1.362,0.42C333.076,227.6,333.264,227.935,333.264,228.325z
				 M329.752,240.649c-0.061-3.811-0.092-7.102-0.092-9.873l3.301-0.146c-0.104,2.656-0.157,5.299-0.157,7.92
				c0,0.703,0.004,1.403,0.016,2.102L329.752,240.649L329.752,240.649z"/>
			<path fill="#FFFFFF" d="M338.595,230.571c2.971,0,4.455,1.537,4.455,4.609c0,0.124-0.005,0.248-0.013,0.369
				c-0.123,3.327-1.703,5.009-4.743,5.039c-0.035,0.009-0.07,0.012-0.104,0.012c-2.893,0-4.338-1.572-4.338-4.719v-0.271
				C333.94,232.251,335.521,230.571,338.595,230.571z M338.163,232.798c-0.55,0.146-0.926,0.676-1.127,1.594
				c-0.122,0.547-0.185,1.098-0.185,1.648c0,0.371,0.026,0.746,0.079,1.123c0.142,0.938,0.589,1.423,1.352,1.455h0.091
				c0.708,0,1.192-0.348,1.455-1.045c0.218-0.579,0.327-1.266,0.327-2.061c0-0.195-0.004-0.396-0.015-0.598
				c-0.068-1.048-0.277-1.702-0.628-1.963c-0.219-0.156-0.479-0.232-0.786-0.232C338.552,232.72,338.364,232.746,338.163,232.798z
				 M336.893,228.667c1.021-0.902,1.86-1.768,2.517-2.588l2.146,1.271c-0.926,0.678-1.957,1.508-3.092,2.488L336.893,228.667z"/>
			<path fill="#FFFFFF" d="M346.181,230.317l0.131,1.592c0.367-0.846,1.332-1.275,2.896-1.289h0.052c1.537,0,2.585,0.449,3.146,1.35
				c0.384,0.61,0.577,2.045,0.577,4.297c0,1.105-0.05,2.416-0.146,3.926h-3.17c0.113-2.012,0.17-3.57,0.17-4.678
				c0-0.555-0.013-0.996-0.04-1.328c-0.087-0.979-0.506-1.465-1.258-1.465c-0.751,0-1.223,0.261-1.415,0.779l0.131,7.08
				l-3.079,0.021c0-2.994-0.135-6.357-0.406-10.088L346.181,230.317z"/>
		</g>
	</g>
	<g>
		<circle fill="#951B81" cx="27.33" cy="252.244" r="2.551"/>
		<circle fill="#951B81" cx="21.136" cy="252.244" r="2.551"/>
		<circle fill="#951B81" cx="14.94" cy="252.244" r="2.55"/>
		<circle fill="#951B81" cx="21.136" cy="258.512" r="2.551"/>
		<circle fill="#951B81" cx="14.94" cy="258.512" r="2.55"/>
		<circle fill="#951B81" cx="8.746" cy="258.512" r="2.551"/>
		<circle fill="#951B81" cx="14.94" cy="264.779" r="2.55"/>
		<circle fill="#951B81" cx="8.746" cy="264.779" r="2.551"/>
		<circle fill="#951B81" cx="2.551" cy="264.779" r="2.551"/>
		<circle fill="#951B81" cx="21.136" cy="271.047" r="2.551"/>
		<circle fill="#951B81" cx="14.94" cy="271.047" r="2.55"/>
		<circle fill="#951B81" cx="8.746" cy="271.047" r="2.551"/>
		<circle fill="#951B81" cx="27.33" cy="277.314" r="2.551"/>
		<circle fill="#951B81" cx="21.136" cy="277.314" r="2.551"/>
		<circle fill="#951B81" cx="14.94" cy="277.314" r="2.55"/>
	</g>
</g>
</svg>
