<?xml version="1.0" encoding="utf-8"?>
<!-- Generator: Adobe Illustrator 16.0.0, SVG Export Plug-In . SVG Version: 6.00 Build 0)  -->
<!DOCTYPE svg PUBLIC "-//W3C//DTD SVG 1.1//EN" "http://www.w3.org/Graphics/SVG/1.1/DTD/svg11.dtd">
<svg version="1.1" id="Capa_1" xmlns="http://www.w3.org/2000/svg" xmlns:xlink="http://www.w3.org/1999/xlink" x="0px" y="0px"
	 width="374.903px" height="109.385px" viewBox="0 0 374.903 109.385" enable-background="new 0 0 374.903 109.385"
	 xml:space="preserve">
<g>
	<path fill="#951B81" d="M0,58.553l374.902-10.125c0.06-4.99-5.807-48.362-5.807-48.362L369.093,0L0.179,10.087L0.041,50.067
		L0,58.553z"/>
	<g>
		<g>
			<path fill="#FFFFFF" d="M30.85,20.484c6.002-0.119,9.08,3.649,9.23,11.301c0.151,7.663-2.988,11.558-9.418,11.685
				c-6.43,0.127-9.724-3.78-9.88-11.719C20.636,24.375,23.992,20.619,30.85,20.484z M26.808,32.477
				c-0.009,0.277-0.011,0.543-0.006,0.798c0.079,4.007,1.373,5.985,3.883,5.936c2.666-0.053,3.955-2.347,3.865-6.886
				c-0.089-4.538-1.375-6.783-3.855-6.734C28.199,25.64,26.904,27.936,26.808,32.477z"/>
			<path fill="#FFFFFF" d="M47.059,21.105c-0.094,3.203-0.117,5.983-0.071,8.343c0.736-1.025,1.687-1.634,2.853-1.827
				c0.199-0.014,0.392-0.023,0.577-0.027c4.647-0.092,7.071,2.364,7.27,7.368l0.006,0.287c0.099,5.017-2.325,7.574-7.273,7.671
				c-1.184,0.023-2.314-0.544-3.393-1.704l-0.123,2.442l-5.069,0.084c-0.005-3.891-0.043-7.633-0.114-11.225
				c-0.078-3.943-0.195-7.709-0.352-11.301L47.059,21.105z M47.046,32.429l0.002,5.518c0.764,1.112,1.716,1.656,2.856,1.634
				c0.128-0.002,0.257-0.01,0.385-0.023c1.309-0.164,2.01-1.491,2.104-3.981c0.009-0.255,0.012-0.5,0.007-0.734
				c-0.041-2.041-0.621-3.246-1.741-3.618c-0.344-0.11-0.681-0.162-1.008-0.156C48.753,31.087,47.885,31.541,47.046,32.429z"/>
			<path fill="#FFFFFF" d="M65.549,43.036l-5.318,0.472c-0.012-3.519-0.05-6.904-0.115-10.157c-0.09-4.57-0.232-8.878-0.426-12.926
				l5.239-0.167c-0.006,2.605,0.019,5.278,0.072,8.021C65.094,33.008,65.277,37.928,65.549,43.036z"/>
			<path fill="#FFFFFF" d="M72.986,23.113c0.013,0.648-0.283,1.208-0.887,1.676c-0.604,0.469-1.341,0.712-2.211,0.729
				c-0.855,0.017-1.594-0.197-2.216-0.642s-0.939-0.991-0.952-1.64c-0.013-0.638,0.283-1.191,0.887-1.66
				c0.604-0.469,1.334-0.712,2.189-0.729c0.869-0.017,1.615,0.197,2.237,0.642C72.656,21.935,72.973,22.475,72.986,23.113z
				 M67.651,43.345c-0.223-6.215-0.378-11.586-0.468-16.114l5.385-0.346c-0.085,4.34-0.086,8.651-0.001,12.935
				c0.022,1.148,0.052,2.29,0.089,3.427L67.651,43.345z"/>
			<path fill="#FFFFFF" d="M75.193,44.967l5.022-0.306c-0.012,0.127-0.016,0.255-0.014,0.383c0.023,1.158,0.656,1.778,1.898,1.86
				c0.2,0.017,0.386,0.024,0.557,0.021c1.069-0.021,1.825-0.355,2.27-1.002c0.388-0.582,0.566-1.659,0.535-3.232
				c-0.008-0.424-0.032-0.892-0.07-1.402c-0.775,1.207-2.245,1.884-4.41,2.033c-4.235,0.052-6.405-2.59-6.511-7.926l-0.002-0.112
				c-0.078-5.399,2.385-8.165,7.389-8.295c1.369-0.027,2.606,0.544,3.714,1.713l0.014-2.537l4.687,0.067
				c0.173,8.768,0.245,14.2,0.214,16.294c-0.03,2.096-0.421,3.783-1.173,5.063c-0.752,1.28-2.059,2.114-3.919,2.502
				c-0.98,0.21-1.955,0.325-2.924,0.344c-0.87,0.017-1.734-0.04-2.592-0.171c-1.832-0.283-3.098-0.859-3.8-1.728
				c-0.585-0.711-0.889-1.652-0.912-2.821C75.161,45.483,75.169,45.233,75.193,44.967z M85.292,38.453l-0.128-6.473
				c-0.72-1.039-1.614-1.548-2.683-1.526c-0.214,0.004-0.435,0.03-0.662,0.077c-1.378,0.272-2.113,1.706-2.205,4.302
				c-0.009,0.276-0.01,0.542-0.005,0.797c0.042,2.115,0.595,3.401,1.659,3.859c0.359,0.163,0.739,0.24,1.139,0.232
				C83.291,39.704,84.252,39.281,85.292,38.453z"/>
			<path fill="#FFFFFF" d="M100.189,25.782c4.694,0.099,7.075,1.812,7.14,5.138l0.223,11.318l-4.981,0.163l-0.201-1.511
				c-1.009,0.892-2.362,1.354-4.059,1.387c-0.727,0.014-1.513-0.055-2.357-0.208c-2.533-0.418-3.823-1.849-3.872-4.294
				c-0.006-0.297,0.009-0.616,0.045-0.958c0.236-2.524,2.613-3.832,7.133-3.921c0.87-0.017,1.826,0.012,2.869,0.087l-0.037-1.849
				c-0.029-1.499-0.679-2.235-1.947-2.21l-0.086,0.001c-0.1-0.009-0.192-0.012-0.278-0.01c-1.383,0.027-2.058,0.88-2.024,2.56
				l0.004,0.239l-5.096-0.218c-0.073-3.709,2.285-5.611,7.076-5.706L100.189,25.782z M102.234,38.341l-0.056-2.806
				c-0.615-0.083-1.172-0.121-1.671-0.111c-1.297,0.026-2.175,0.368-2.633,1.025c-0.277,0.399-0.413,0.768-0.406,1.108
				c0.008,0.425,0.244,0.798,0.707,1.118c0.361,0.249,0.827,0.367,1.398,0.355C100.3,39.018,101.187,38.788,102.234,38.341z"/>
			<path fill="#FFFFFF" d="M117.886,35.704l5.095,0.139c0.076,3.836-2.26,5.829-7.007,5.976c-0.057,0.012-0.106,0.018-0.149,0.019
				c-4.521,0.089-6.83-2.422-6.931-7.535l-0.009-0.479c0.034-5.487,2.389-8.303,7.064-8.449l0.171-0.003
				c4.306-0.085,6.495,1.711,6.568,5.389c0.004,0.213,0.001,0.425-0.009,0.638l-4.593,0.345l-0.007-0.382
				c-0.038-1.935-0.792-2.887-2.26-2.858c-1.497,0.03-2.214,1.612-2.152,4.748l0.01,0.526c0.152,3.389,0.941,5.069,2.367,5.041
				l0.128-0.002c1.239-0.099,1.845-0.818,1.819-2.157C117.984,36.372,117.95,36.053,117.886,35.704z"/>
			<path fill="#FFFFFF" d="M130.473,21.979c0.013,0.648-0.283,1.207-0.887,1.676c-0.604,0.469-1.341,0.712-2.21,0.729
				c-0.855,0.017-1.595-0.197-2.216-0.642c-0.623-0.444-0.939-0.991-0.953-1.64c-0.012-0.638,0.283-1.191,0.888-1.66
				c0.604-0.469,1.333-0.712,2.189-0.729c0.87-0.017,1.616,0.197,2.238,0.642S130.46,21.341,130.473,21.979z M125.139,42.211
				c-0.223-6.215-0.378-11.586-0.468-16.114l5.385-0.346c-0.085,4.34-0.086,8.651-0.001,12.934c0.022,1.148,0.052,2.291,0.089,3.427
				L125.139,42.211z"/>
			<path fill="#FFFFFF" d="M139.25,25.474c4.848-0.096,7.321,2.365,7.42,7.381c0.004,0.202,0,0.405-0.009,0.606
				c-0.093,5.435-2.619,8.228-7.58,8.379c-0.057,0.011-0.114,0.018-0.17,0.019c-4.72,0.093-7.13-2.427-7.231-7.561l-0.009-0.446
				C131.704,28.366,134.231,25.573,139.25,25.474z M138.616,29.123c-0.894,0.251-1.49,1.13-1.788,2.635
				c-0.182,0.897-0.264,1.797-0.246,2.7c0.012,0.606,0.067,1.217,0.165,1.831c0.258,1.526,1.008,2.303,2.25,2.332l0.15-0.003
				c1.155-0.023,1.935-0.607,2.34-1.753c0.337-0.953,0.494-2.078,0.468-3.375c-0.006-0.319-0.02-0.643-0.041-0.972
				c-0.148-1.708-0.512-2.77-1.09-3.184c-0.361-0.249-0.792-0.368-1.291-0.357C139.248,28.982,138.942,29.031,138.616,29.123z"/>
			<path fill="#FFFFFF" d="M151.625,24.815l0.265,2.594c0.572-1.394,2.133-2.125,4.685-2.197l0.085-0.001
				c2.509-0.05,4.235,0.649,5.176,2.098c0.647,0.987,1.007,3.319,1.08,6.996c0.036,1.807-0.001,3.945-0.109,6.414l-5.176,0.102
				c0.121-3.289,0.163-5.835,0.127-7.642c-0.018-0.903-0.053-1.626-0.107-2.167c-0.174-1.591-0.874-2.375-2.101-2.351
				c-1.226,0.024-1.988,0.465-2.284,1.321l0.442,11.554l-5.025,0.131c-0.096-4.889-0.426-10.374-0.988-16.455L151.625,24.815z"/>
			<path fill="#FFFFFF" d="M171.458,24.838c4.947-0.098,7.469,2.304,7.566,7.203c0.012,0.595-0.011,1.233-0.069,1.915l-9.56,0.188
				c0.054,2.731,0.787,4.083,2.198,4.056l0.15-0.003c1.239-0.099,1.845-0.818,1.819-2.157c-0.006-0.287-0.041-0.605-0.104-0.955
				l5.088-0.181c0.08,4.049-2.253,6.147-7,6.294c-0.057,0.011-0.106,0.018-0.149,0.019c-4.52,0.089-6.83-2.422-6.931-7.534
				l-0.01-0.478C164.49,27.719,166.824,24.93,171.458,24.838z M168.824,31.222l4.833-0.095l-0.007-0.383
				c-0.038-1.934-0.792-2.887-2.26-2.857C169.807,27.917,168.952,29.029,168.824,31.222z"/>
			<path fill="#FFFFFF" d="M180.438,35.378l4.894-0.272l0.004,0.208c0.032,1.636,0.726,2.453,2.081,2.447l0.085-0.001
				c1.312-0.026,1.958-0.512,1.939-1.458l-0.002-0.112c-0.078-1.04-1.388-1.854-3.932-2.442c-2.543-0.588-4.086-1.631-4.629-3.13
				c-0.196-0.528-0.298-1.036-0.308-1.525c-0.018-0.893,0.272-1.728,0.87-2.505c0.918-1.188,2.331-1.885,4.238-2.093
				c0.512-0.053,1.011-0.084,1.496-0.094c1.269-0.025,2.391,0.118,3.368,0.429c1.335,0.43,2.267,1.066,2.797,1.906
				c0.354,0.578,0.538,1.223,0.552,1.935c0.006,0.34-0.022,0.692-0.086,1.055l-4.575,0.17c0.038-0.267,0.054-0.512,0.05-0.735
				c-0.021-1.063-0.489-1.622-1.402-1.679c-0.1-0.008-0.2-0.012-0.3-0.009c-0.941,0.019-1.568,0.386-1.882,1.105
				c-0.109,0.247-0.162,0.471-0.158,0.673c0.01,0.5,0.332,0.925,0.966,1.272c0.894,0.493,2.212,0.986,3.955,1.478
				c1.743,0.492,2.926,1.364,3.55,2.617c0.223,0.475,0.34,0.95,0.349,1.428c0.016,0.808-0.282,1.627-0.893,2.458
				c-0.972,1.328-2.504,2.118-4.596,2.372c-0.456,0.062-0.904,0.098-1.346,0.106c-1.569,0.031-3.029-0.243-4.381-0.822
				C181.417,39.416,180.515,37.823,180.438,35.378z"/>
			<path fill="#FFFFFF" d="M210.595,24.066c4.948-0.098,7.47,2.304,7.566,7.203c0.012,0.595-0.011,1.233-0.069,1.915l-9.56,0.189
				c0.054,2.731,0.787,4.083,2.198,4.055l0.149-0.003c1.239-0.099,1.845-0.818,1.819-2.157c-0.005-0.287-0.041-0.605-0.104-0.955
				l5.088-0.18c0.08,4.049-2.253,6.147-7,6.294c-0.057,0.012-0.106,0.018-0.149,0.019c-4.52,0.089-6.83-2.422-6.931-7.534
				l-0.01-0.478C203.627,26.947,205.961,24.157,210.595,24.066z M207.961,30.449l4.833-0.095l-0.008-0.383
				c-0.038-1.934-0.792-2.886-2.26-2.857C208.945,27.145,208.089,28.256,207.961,30.449z"/>
			<path fill="#FFFFFF" d="M219.576,34.606l4.894-0.272l0.004,0.208c0.032,1.636,0.726,2.452,2.081,2.446l0.086-0.001
				c1.312-0.026,1.958-0.512,1.939-1.458l-0.002-0.112c-0.078-1.04-1.389-1.854-3.932-2.442c-2.543-0.587-4.086-1.631-4.63-3.13
				c-0.196-0.528-0.298-1.036-0.308-1.525c-0.018-0.893,0.272-1.728,0.871-2.505c0.918-1.188,2.33-1.885,4.238-2.093
				c0.512-0.053,1.011-0.084,1.496-0.093c1.269-0.025,2.392,0.118,3.368,0.428c1.335,0.43,2.268,1.066,2.797,1.906
				c0.354,0.579,0.538,1.223,0.552,1.935c0.007,0.34-0.022,0.692-0.086,1.055l-4.575,0.17c0.038-0.267,0.054-0.512,0.05-0.735
				c-0.021-1.063-0.489-1.622-1.402-1.679c-0.101-0.008-0.2-0.012-0.3-0.01c-0.941,0.019-1.569,0.386-1.883,1.105
				c-0.109,0.247-0.162,0.471-0.158,0.673c0.01,0.5,0.332,0.924,0.966,1.272c0.894,0.493,2.213,0.985,3.956,1.477
				c1.743,0.492,2.926,1.364,3.549,2.618c0.224,0.474,0.34,0.95,0.35,1.428c0.016,0.808-0.282,1.627-0.893,2.458
				c-0.972,1.327-2.504,2.118-4.596,2.371c-0.455,0.062-0.904,0.098-1.346,0.106c-1.568,0.031-3.029-0.243-4.381-0.822
				C220.554,38.643,219.652,37.05,219.576,34.606z"/>
			<path fill="#FFFFFF" d="M235.382,46.319c0.015-3.583-0.018-7.394-0.098-11.433c-0.072-3.677-0.185-7.535-0.335-11.572
				l5.068-0.115l0.219,2.452c1.032-1.211,2.424-1.834,4.178-1.869c4.377-0.086,6.616,2.448,6.718,7.603l0.006,0.318
				c0.002,5.167-2.129,7.793-6.392,7.877c-0.171,0.003-0.342,0.001-0.514-0.006c-1.455-0.024-2.643-0.59-3.563-1.7
				c0.046,2.359,0.18,5.137,0.399,8.333L235.382,46.319z M240.387,28.917l0.226,5.992c0.843,0.823,1.686,1.227,2.527,1.21
				c0.342-0.007,0.683-0.088,1.022-0.244c1.032-0.445,1.528-1.726,1.486-3.841c-0.005-0.255-0.018-0.521-0.037-0.796
				c-0.194-2.59-0.912-3.943-2.155-4.057c-0.128-0.008-0.25-0.011-0.364-0.008C242.008,27.194,241.106,27.775,240.387,28.917z"/>
			<path fill="#FFFFFF" d="M259.614,23.099c4.947-0.098,7.469,2.304,7.566,7.203c0.012,0.595-0.011,1.233-0.069,1.915l-9.56,0.189
				c0.054,2.731,0.787,4.083,2.198,4.055l0.15-0.003c1.239-0.099,1.845-0.818,1.819-2.157c-0.006-0.287-0.041-0.605-0.104-0.955
				l5.089-0.18c0.08,4.049-2.254,6.147-7.001,6.294c-0.057,0.012-0.106,0.018-0.149,0.019c-4.52,0.089-6.83-2.422-6.931-7.534
				l-0.009-0.478C252.646,25.979,254.979,23.19,259.614,23.099z M256.979,29.482l4.833-0.095l-0.008-0.383
				c-0.038-1.934-0.792-2.886-2.26-2.857C257.962,26.178,257.107,27.289,256.979,29.482z"/>
			<path fill="#FFFFFF" d="M277.579,32.553l5.095,0.139c0.076,3.836-2.26,5.829-7.007,5.976c-0.057,0.012-0.106,0.018-0.149,0.019
				c-4.52,0.089-6.83-2.422-6.931-7.535l-0.01-0.479c0.034-5.487,2.389-8.303,7.065-8.449l0.171-0.003
				c4.306-0.085,6.495,1.711,6.568,5.389c0.004,0.213,0.001,0.425-0.009,0.639l-4.593,0.345l-0.007-0.382
				c-0.039-1.935-0.792-2.887-2.26-2.858c-1.497,0.03-2.214,1.612-2.153,4.748l0.01,0.526c0.153,3.389,0.942,5.069,2.368,5.041
				l0.128-0.002c1.239-0.099,1.845-0.818,1.819-2.157C277.678,33.22,277.643,32.902,277.579,32.553z"/>
			<path fill="#FFFFFF" d="M284.832,39.06c-0.222-6.215-0.378-11.586-0.468-16.114l5.385-0.346
				c-0.085,4.34-0.086,8.651-0.001,12.934c0.022,1.148,0.052,2.291,0.089,3.427L284.832,39.06z M284.446,19.499
				c1.639-1.511,2.98-2.946,4.023-4.306l3.548,2.003c-1.49,1.135-3.146,2.523-4.967,4.165L284.446,19.499z"/>
			<path fill="#FFFFFF" d="M294.549,22.983c-0.034-0.286-0.054-0.578-0.06-0.875c-0.02-0.999,0.095-2.027,0.345-3.085
				c0.301-1.377,1.277-2.492,2.93-3.343c1.228-0.64,2.79-0.98,4.687-1.017c0.627-0.013,1.298,0.012,2.013,0.072l0.026,3.492
				c-0.429-0.034-0.829-0.047-1.199-0.04c-1.184,0.023-2.049,0.258-2.596,0.706c-0.604,0.469-0.893,1.368-0.867,2.696
				c0.006,0.319,0.034,0.669,0.085,1.051l4.576-0.138l0.064,3.236l-4.701,0.317c0.183,3.484,0.305,6.778,0.366,9.88
				c0.018,0.936,0.029,1.85,0.033,2.743l-5.429,0.282c-0.027-3.54-0.039-7.729-0.034-12.567l-3.462,0.196l-0.153-3.426
				L294.549,22.983z"/>
			<path fill="#FFFFFF" d="M312.28,18.391c0.013,0.648-0.283,1.208-0.887,1.676s-1.341,0.712-2.21,0.729
				c-0.855,0.017-1.595-0.197-2.217-0.642c-0.622-0.444-0.939-0.991-0.952-1.639c-0.013-0.638,0.283-1.191,0.887-1.661
				c0.604-0.469,1.334-0.712,2.189-0.729c0.87-0.017,1.615,0.197,2.238,0.642C311.951,17.212,312.268,17.753,312.28,18.391z
				 M306.946,38.623c-0.223-6.215-0.378-11.586-0.468-16.114l5.385-0.346c-0.085,4.34-0.086,8.651-0.001,12.935
				c0.022,1.148,0.052,2.29,0.089,3.427L306.946,38.623z"/>
			<path fill="#FFFFFF" d="M322.47,31.667l5.095,0.139c0.076,3.836-2.26,5.829-7.006,5.975c-0.057,0.012-0.107,0.019-0.149,0.02
				c-4.52,0.089-6.83-2.422-6.931-7.535l-0.009-0.479c0.034-5.487,2.389-8.303,7.064-8.449l0.171-0.003
				c4.306-0.085,6.495,1.711,6.568,5.389c0.004,0.213,0,0.426-0.009,0.639l-4.593,0.345l-0.007-0.382
				c-0.038-1.935-0.792-2.887-2.26-2.858c-1.497,0.03-2.214,1.612-2.152,4.748l0.01,0.526c0.152,3.388,0.941,5.069,2.368,5.041
				l0.128-0.002c1.239-0.099,1.845-0.818,1.819-2.157C322.568,32.334,322.534,32.016,322.47,31.667z"/>
			<path fill="#FFFFFF" d="M337.409,21.101c4.695,0.099,7.075,1.812,7.141,5.139l0.223,11.318l-4.982,0.162l-0.201-1.511
				c-1.009,0.892-2.363,1.354-4.059,1.387c-0.727,0.015-1.513-0.054-2.357-0.208c-2.533-0.418-3.823-1.849-3.872-4.294
				c-0.006-0.297,0.009-0.616,0.045-0.957c0.235-2.525,2.613-3.832,7.133-3.921c0.87-0.018,1.826,0.012,2.869,0.087l-0.036-1.849
				c-0.03-1.499-0.679-2.235-1.948-2.21l-0.085,0.001c-0.1-0.009-0.193-0.012-0.278-0.011c-1.383,0.027-2.058,0.88-2.025,2.56
				l0.005,0.239l-5.096-0.218c-0.073-3.709,2.285-5.611,7.076-5.706L337.409,21.101z M339.454,33.66l-0.055-2.806
				c-0.615-0.083-1.172-0.121-1.671-0.111c-1.297,0.026-2.175,0.368-2.633,1.025c-0.278,0.399-0.413,0.769-0.406,1.109
				c0.008,0.425,0.243,0.798,0.707,1.118c0.361,0.249,0.827,0.367,1.398,0.355C337.52,34.336,338.407,34.106,339.454,33.66z"/>
			<path fill="#FFFFFF" d="M346.12,32.109l4.894-0.272l0.004,0.208c0.032,1.636,0.726,2.453,2.081,2.447l0.085-0.001
				c1.312-0.026,1.958-0.512,1.939-1.458l-0.002-0.112c-0.077-1.04-1.388-1.854-3.931-2.442c-2.543-0.588-4.086-1.631-4.629-3.13
				c-0.196-0.528-0.299-1.036-0.309-1.525c-0.018-0.893,0.272-1.728,0.871-2.505c0.918-1.188,2.331-1.885,4.238-2.093
				c0.513-0.053,1.011-0.084,1.496-0.094c1.269-0.025,2.391,0.118,3.367,0.429c1.335,0.43,2.268,1.066,2.797,1.906
				c0.354,0.578,0.538,1.223,0.552,1.935c0.007,0.34-0.022,0.692-0.086,1.055l-4.575,0.17c0.038-0.267,0.054-0.512,0.049-0.735
				c-0.021-1.063-0.488-1.622-1.402-1.679c-0.1-0.008-0.2-0.012-0.3-0.009c-0.94,0.019-1.568,0.386-1.882,1.105
				c-0.109,0.247-0.162,0.471-0.158,0.673c0.01,0.5,0.332,0.925,0.967,1.272c0.894,0.493,2.212,0.986,3.955,1.478
				c1.742,0.492,2.926,1.364,3.55,2.617c0.223,0.475,0.339,0.95,0.349,1.428c0.016,0.808-0.281,1.627-0.893,2.458
				c-0.973,1.328-2.504,2.118-4.596,2.372c-0.456,0.062-0.904,0.098-1.346,0.106c-1.568,0.031-3.029-0.243-4.38-0.822
				C347.098,36.146,346.197,34.553,346.12,32.109z"/>
		</g>
	</g>
	<g>
		<g>
			<path fill="#331842" d="M103.375,67.269c-2.099,0.042-3.127,1.114-3.085,3.218l0.012,0.597l2.292-0.045
				c0.327-0.006,0.609,0.105,0.845,0.334c0.236,0.229,0.358,0.508,0.364,0.837c0.007,0.337-0.104,0.624-0.331,0.861
				c-0.228,0.238-0.504,0.36-0.832,0.366l-2.292,0.045l0.17,8.609c0.003,0.161-0.024,0.314-0.082,0.461s-0.139,0.277-0.243,0.39
				c-0.104,0.113-0.229,0.202-0.371,0.266c-0.144,0.064-0.299,0.098-0.466,0.101c-0.167,0.003-0.324-0.024-0.47-0.083
				c-0.146-0.058-0.272-0.142-0.381-0.251s-0.195-0.235-0.258-0.38c-0.064-0.144-0.097-0.296-0.101-0.457l-0.17-8.609L97.43,73.54
				c-0.342,0.007-0.628-0.103-0.856-0.328c-0.229-0.224-0.347-0.509-0.354-0.854c-0.007-0.345,0.1-0.631,0.319-0.862
				c0.22-0.23,0.501-0.349,0.843-0.355l0.548-0.011l-0.012-0.597c-0.073-3.704,1.729-5.591,5.409-5.664
				c0.327-0.006,0.608,0.104,0.845,0.333c0.236,0.229,0.358,0.507,0.365,0.836c0.006,0.337-0.104,0.625-0.331,0.862
				C103.979,67.14,103.702,67.262,103.375,67.269z"/>
			<path fill="#331842" d="M112.509,71.382l0.005,0.23c0.561-0.471,1.174-0.835,1.838-1.093c0.664-0.258,1.376-0.395,2.137-0.41
				c0.334-0.006,0.694,0.009,1.079,0.047s0.74,0.114,1.065,0.226c0.325,0.112,0.597,0.27,0.813,0.472
				c0.217,0.202,0.329,0.468,0.335,0.797c0.003,0.168-0.026,0.326-0.088,0.473c-0.062,0.146-0.145,0.277-0.249,0.39
				s-0.228,0.201-0.371,0.265c-0.144,0.064-0.299,0.098-0.466,0.101c-0.145,0.003-0.312-0.036-0.504-0.117
				c-0.483-0.181-1.006-0.267-1.568-0.256c-0.555,0.011-1.074,0.127-1.556,0.347c-0.483,0.22-0.901,0.515-1.255,0.886
				c-0.354,0.371-0.63,0.803-0.83,1.297c-0.199,0.493-0.293,1.02-0.282,1.578l0.104,5.234c0.006,0.329-0.104,0.613-0.332,0.851
				c-0.227,0.238-0.504,0.36-0.831,0.367c-0.334,0.007-0.62-0.104-0.856-0.333c-0.237-0.229-0.358-0.507-0.365-0.836l-0.206-10.469
				c-0.007-0.329,0.104-0.612,0.331-0.851c0.227-0.238,0.508-0.359,0.842-0.366c0.327-0.006,0.608,0.104,0.845,0.333
				C112.381,70.775,112.503,71.054,112.509,71.382z"/>
			<path fill="#331842" d="M135.664,78.976c0.342-0.007,0.627,0.101,0.856,0.321c0.229,0.222,0.347,0.505,0.354,0.849
				c0.007,0.337-0.102,0.626-0.325,0.868c-1.158,1.064-2.539,1.612-4.143,1.644c-1.764,0.035-3.281-0.562-4.553-1.793
				c-1.272-1.23-1.925-2.733-1.96-4.509c-0.035-1.775,0.558-3.303,1.78-4.582s2.715-1.937,4.479-1.972
				c1.749-0.034,3.266,0.563,4.553,1.793c0.636,0.608,1.117,1.289,1.444,2.044c0.327,0.756,0.499,1.577,0.516,2.464
				c0.007,0.344-0.104,0.632-0.331,0.862c-0.228,0.23-0.508,0.349-0.843,0.355l-9.031,0.178c0.138,0.418,0.335,0.799,0.593,1.142
				c0.258,0.344,0.559,0.636,0.901,0.878c0.343,0.242,0.72,0.428,1.129,0.558c0.409,0.129,0.834,0.189,1.275,0.181
				c0.501-0.01,0.96-0.095,1.375-0.256c0.415-0.162,0.798-0.399,1.149-0.712C135.107,79.093,135.368,78.989,135.664,78.976z
				 M136.098,74.959c-0.138-0.418-0.337-0.799-0.599-1.142c-0.262-0.343-0.564-0.636-0.907-0.878
				c-0.343-0.242-0.72-0.428-1.129-0.558c-0.409-0.129-0.831-0.19-1.264-0.182c-0.433,0.009-0.854,0.086-1.262,0.232
				c-0.408,0.146-0.78,0.346-1.118,0.602c-0.337,0.255-0.627,0.56-0.872,0.913c-0.244,0.353-0.422,0.742-0.536,1.165L136.098,74.959
				z"/>
			<path fill="#331842" d="M147.428,70.682c0.996-0.808,2.178-1.226,3.546-1.252c0.798-0.016,1.56,0.126,2.284,0.425
				c0.725,0.3,1.366,0.714,1.924,1.243c0.558,0.529,1.004,1.155,1.338,1.879c0.334,0.725,0.509,1.5,0.525,2.327l0.112,5.659
				c0.006,0.337-0.104,0.625-0.331,0.862c-0.228,0.238-0.504,0.36-0.831,0.367c-0.335,0.007-0.62-0.104-0.856-0.333
				c-0.237-0.229-0.358-0.512-0.365-0.849l-0.112-5.659c-0.01-0.49-0.114-0.951-0.312-1.383c-0.199-0.433-0.463-0.808-0.792-1.127
				c-0.33-0.319-0.713-0.57-1.15-0.752c-0.437-0.183-0.899-0.269-1.385-0.259c-0.494,0.01-0.954,0.112-1.38,0.308
				c-0.426,0.196-0.799,0.462-1.12,0.797c-0.32,0.336-0.569,0.723-0.747,1.164c-0.178,0.439-0.262,0.904-0.252,1.394l0.112,5.659
				c0.007,0.337-0.104,0.625-0.331,0.862c-0.228,0.238-0.505,0.36-0.832,0.367c-0.334,0.006-0.62-0.104-0.856-0.333
				c-0.237-0.229-0.358-0.512-0.365-0.849l-0.206-10.445c-0.006-0.329,0.104-0.614,0.331-0.856c0.227-0.242,0.508-0.366,0.843-0.372
				c0.326-0.006,0.608,0.106,0.845,0.339S147.422,70.368,147.428,70.682z"/>
			<path fill="#331842" d="M164.505,69.163l0.536-0.011l-0.085-4.316c-0.007-0.329,0.104-0.613,0.331-0.851
				c0.227-0.238,0.508-0.36,0.842-0.367c0.327-0.006,0.609,0.104,0.845,0.333s0.358,0.508,0.364,0.837l0.085,4.316l1.426-0.028
				c0.327-0.006,0.606,0.104,0.839,0.333s0.352,0.508,0.359,0.837c0.006,0.337-0.102,0.624-0.325,0.862
				c-0.224,0.238-0.499,0.36-0.826,0.366l-1.425,0.028l0.114,5.773c0.03,1.523,0.805,2.269,2.326,2.239
				c0.327-0.007,0.606,0.104,0.839,0.333s0.352,0.508,0.359,0.837c0.006,0.337-0.102,0.625-0.325,0.862s-0.499,0.36-0.826,0.367
				c-3.109,0.061-4.695-1.47-4.756-4.592l-0.114-5.773l-0.536,0.011c-0.319,0.006-0.597-0.105-0.833-0.334
				c-0.237-0.229-0.358-0.512-0.365-0.849c-0.006-0.329,0.104-0.612,0.331-0.851C163.913,69.291,164.186,69.169,164.505,69.163z"/>
			<path fill="#331842" d="M187.079,77.961c0.342-0.007,0.627,0.101,0.856,0.322c0.229,0.221,0.346,0.504,0.353,0.848
				c0.007,0.337-0.102,0.626-0.325,0.868c-1.158,1.064-2.539,1.612-4.143,1.644c-1.764,0.035-3.281-0.562-4.553-1.793
				c-1.271-1.23-1.925-2.733-1.96-4.508c-0.035-1.775,0.559-3.303,1.78-4.583c1.222-1.279,2.715-1.937,4.479-1.972
				c1.749-0.034,3.267,0.563,4.553,1.793c0.635,0.608,1.117,1.289,1.443,2.044c0.327,0.756,0.499,1.577,0.516,2.464
				c0.007,0.344-0.104,0.632-0.331,0.862c-0.227,0.23-0.508,0.349-0.842,0.355l-9.032,0.178c0.138,0.418,0.335,0.799,0.593,1.142
				c0.258,0.344,0.559,0.636,0.902,0.878c0.343,0.242,0.719,0.428,1.129,0.558c0.409,0.129,0.834,0.189,1.275,0.181
				c0.501-0.01,0.96-0.095,1.375-0.256c0.415-0.162,0.798-0.399,1.149-0.712C186.523,78.079,186.783,77.974,187.079,77.961z
				 M187.513,73.944c-0.138-0.418-0.337-0.799-0.599-1.142c-0.262-0.343-0.564-0.636-0.907-0.878
				c-0.343-0.242-0.72-0.428-1.129-0.557c-0.409-0.13-0.831-0.19-1.264-0.182c-0.433,0.009-0.854,0.086-1.261,0.232
				c-0.408,0.146-0.781,0.346-1.118,0.602c-0.337,0.255-0.628,0.56-0.872,0.913c-0.244,0.353-0.423,0.742-0.536,1.165
				L187.513,73.944z"/>
			<path fill="#331842" d="M218.58,79.762l-0.005-0.23c-0.561,0.471-1.174,0.835-1.838,1.093c-0.664,0.258-1.376,0.395-2.136,0.41
				c-1.764,0.035-3.282-0.563-4.553-1.794c-1.271-1.23-1.924-2.733-1.959-4.508c-0.035-1.775,0.558-3.303,1.78-4.583
				s2.715-1.937,4.479-1.971c1.749-0.035,3.266,0.563,4.553,1.793c1.271,1.23,1.925,2.733,1.959,4.508l0.104,5.234
				c0.006,0.329-0.104,0.613-0.332,0.851c-0.227,0.238-0.504,0.36-0.831,0.367c-0.334,0.007-0.62-0.104-0.856-0.333
				C218.708,80.37,218.586,80.091,218.58,79.762z M214.394,70.578c-0.562,0.011-1.085,0.128-1.567,0.352
				c-0.482,0.224-0.898,0.521-1.249,0.892s-0.625,0.803-0.824,1.297c-0.2,0.494-0.293,1.016-0.283,1.567s0.125,1.07,0.344,1.555
				s0.51,0.907,0.875,1.263c0.365,0.357,0.792,0.638,1.283,0.842c0.491,0.204,1.018,0.301,1.58,0.29
				c0.555-0.011,1.073-0.128,1.556-0.352s0.9-0.523,1.254-0.897c0.354-0.375,0.63-0.807,0.83-1.297
				c0.2-0.489,0.293-1.01,0.283-1.561s-0.125-1.067-0.344-1.549c-0.219-0.481-0.512-0.903-0.88-1.263
				c-0.369-0.36-0.798-0.643-1.289-0.848C215.472,70.664,214.949,70.567,214.394,70.578z"/>
			<path fill="#331842" d="M238.857,79.362l-0.315-15.967c-0.007-0.337,0.1-0.624,0.32-0.861c0.219-0.238,0.5-0.36,0.842-0.367
				c0.342-0.007,0.628,0.104,0.856,0.333c0.229,0.229,0.347,0.511,0.354,0.848l0.291,14.761l0.548-0.011
				c0.327-0.006,0.608,0.105,0.845,0.333c0.236,0.229,0.358,0.512,0.365,0.849c0.006,0.329-0.104,0.613-0.331,0.851
				c-0.228,0.238-0.504,0.36-0.832,0.367l-1.745,0.035c-0.327,0.006-0.606-0.105-0.839-0.334
				C238.983,79.97,238.863,79.691,238.857,79.362z"/>
			<path fill="#331842" d="M261.784,73.673c0.035,1.791-0.559,3.319-1.78,4.583c-1.237,1.28-2.73,1.938-4.479,1.972
				c-1.764,0.035-3.281-0.563-4.553-1.794c-1.271-1.23-1.925-2.733-1.959-4.508c-0.035-1.775,0.558-3.303,1.78-4.583
				c1.222-1.279,2.715-1.937,4.479-1.971c1.748-0.035,3.266,0.563,4.553,1.793c0.636,0.616,1.115,1.298,1.438,2.05
				C261.584,71.966,261.758,72.786,261.784,73.673z M255.318,69.771c-0.562,0.011-1.085,0.129-1.567,0.352
				c-0.482,0.224-0.898,0.521-1.249,0.892c-0.351,0.371-0.625,0.803-0.824,1.297c-0.2,0.494-0.294,1.016-0.283,1.567
				s0.126,1.07,0.345,1.555s0.51,0.907,0.875,1.263c0.365,0.357,0.792,0.638,1.283,0.842s1.017,0.301,1.58,0.29
				c0.555-0.011,1.074-0.128,1.556-0.352c0.482-0.224,0.9-0.523,1.254-0.897c0.354-0.375,0.63-0.807,0.83-1.297
				c0.199-0.489,0.293-1.01,0.283-1.561c-0.011-0.551-0.125-1.067-0.344-1.549c-0.219-0.481-0.513-0.903-0.881-1.263
				c-0.368-0.36-0.798-0.643-1.289-0.848C256.396,69.856,255.873,69.759,255.318,69.771z"/>
			<path fill="#331842" d="M270.611,73.809c-0.72-0.261-1.228-0.535-1.522-0.82l0.011,0c-0.589-0.578-0.892-1.264-0.908-2.061
				c-0.011-0.582,0.132-1.111,0.431-1.587c0.299-0.477,0.692-0.885,1.18-1.224c0.487-0.338,1.039-0.604,1.655-0.796
				s1.236-0.294,1.859-0.307c1.9-0.038,3.546,0.699,4.938,2.211c0.164,0.196,0.248,0.435,0.253,0.718
				c0.007,0.345-0.1,0.632-0.319,0.862c-0.22,0.23-0.5,0.349-0.843,0.356c-0.244,0.005-0.452-0.06-0.625-0.195
				c-0.174-0.134-0.342-0.28-0.505-0.438c-0.791-0.766-1.741-1.137-2.852-1.115c-1.095,0.021-1.962,0.375-2.603,1.062
				c-0.119,0.125-0.177,0.295-0.172,0.509s0.106,0.358,0.305,0.43l5.372,1.662c0.75,0.276,1.258,0.55,1.522,0.82l-0.012,0
				c0.589,0.578,0.892,1.265,0.908,2.061c0.012,0.589-0.132,1.121-0.43,1.593c-0.299,0.473-0.692,0.881-1.18,1.224
				c-0.488,0.343-1.038,0.608-1.65,0.796c-0.612,0.188-1.23,0.289-1.854,0.301c-1.916,0.038-3.561-0.691-4.937-2.188
				c-0.172-0.218-0.26-0.465-0.266-0.741c-0.007-0.345,0.1-0.631,0.32-0.862c0.219-0.23,0.5-0.349,0.843-0.355
				c0.25-0.005,0.465,0.065,0.643,0.211c0.178,0.146,0.34,0.287,0.487,0.421c0.791,0.765,1.745,1.136,2.862,1.114
				c1.087-0.021,1.955-0.382,2.603-1.084c0.111-0.132,0.166-0.291,0.162-0.474c-0.004-0.214-0.11-0.362-0.317-0.441L270.611,73.809z
				"/>
			<path fill="#331842" d="M48.867,90.95c2.508-0.049,4.674,0.808,6.496,2.571c0.915,0.885,1.605,1.856,2.071,2.916
				c0.466,1.059,0.711,2.231,0.737,3.516c0.05,2.533-0.801,4.717-2.552,6.55c-1.744,1.825-3.874,2.763-6.39,2.813l-3.512,0.069
				c-0.167,0.003-0.326-0.026-0.475-0.088c-0.15-0.062-0.281-0.146-0.393-0.25s-0.203-0.231-0.27-0.38
				c-0.067-0.147-0.103-0.306-0.106-0.474L44.158,92.26c-0.003-0.168,0.026-0.328,0.088-0.478c0.062-0.15,0.146-0.28,0.255-0.39
				c0.108-0.109,0.235-0.198,0.382-0.266s0.304-0.104,0.471-0.107L48.867,90.95z M49.181,106.882
				c1.847-0.037,3.412-0.726,4.694-2.067c0.648-0.679,1.128-1.414,1.439-2.205c0.312-0.791,0.458-1.661,0.439-2.61
				c-0.037-1.852-0.726-3.426-2.067-4.725c-1.341-1.297-2.932-1.928-4.771-1.892l-2.304,0.045l0.267,13.499L49.181,106.882z"/>
			<path fill="#331842" d="M74.366,105.203c0.342-0.007,0.627,0.101,0.856,0.322c0.228,0.222,0.346,0.504,0.353,0.849
				c0.006,0.337-0.102,0.626-0.325,0.867c-1.158,1.064-2.539,1.612-4.143,1.644c-1.764,0.035-3.281-0.563-4.553-1.793
				s-1.925-2.733-1.96-4.509c-0.035-1.775,0.559-3.302,1.781-4.583c1.222-1.279,2.715-1.937,4.479-1.971
				c1.749-0.035,3.266,0.563,4.553,1.793c0.636,0.608,1.117,1.29,1.444,2.044c0.326,0.755,0.499,1.577,0.516,2.464
				c0.007,0.344-0.104,0.632-0.331,0.862c-0.228,0.23-0.508,0.348-0.843,0.355l-9.032,0.178c0.138,0.419,0.335,0.799,0.593,1.142
				c0.258,0.344,0.558,0.636,0.901,0.878c0.343,0.243,0.72,0.429,1.129,0.558c0.41,0.13,0.834,0.19,1.276,0.182
				c0.501-0.01,0.96-0.096,1.375-0.257c0.415-0.162,0.798-0.399,1.149-0.712C73.809,105.321,74.069,105.216,74.366,105.203z
				 M74.799,101.187c-0.137-0.418-0.337-0.799-0.598-1.142c-0.262-0.343-0.564-0.636-0.907-0.877
				c-0.343-0.242-0.72-0.428-1.129-0.558c-0.41-0.13-0.831-0.19-1.264-0.182c-0.434,0.008-0.854,0.085-1.262,0.231
				s-0.78,0.347-1.118,0.602s-0.627,0.56-0.872,0.913c-0.244,0.354-0.423,0.742-0.536,1.165L74.799,101.187z"/>
			<path fill="#331842" d="M86.096,96.921l0.004,0.23c0.562-0.471,1.174-0.834,1.838-1.092c0.664-0.259,1.376-0.395,2.137-0.41
				c0.334-0.007,0.694,0.009,1.079,0.047c0.385,0.039,0.74,0.114,1.065,0.226c0.325,0.112,0.597,0.27,0.813,0.472
				c0.217,0.202,0.329,0.468,0.335,0.797c0.003,0.168-0.026,0.326-0.087,0.473c-0.062,0.147-0.145,0.277-0.249,0.39
				c-0.104,0.113-0.228,0.202-0.371,0.266c-0.144,0.063-0.299,0.098-0.466,0.101c-0.145,0.003-0.313-0.036-0.504-0.116
				c-0.482-0.182-1.005-0.268-1.568-0.256c-0.555,0.011-1.074,0.126-1.556,0.347s-0.9,0.516-1.254,0.885
				c-0.354,0.371-0.63,0.804-0.83,1.297c-0.2,0.494-0.294,1.021-0.283,1.579l0.103,5.234c0.007,0.329-0.104,0.612-0.331,0.851
				c-0.228,0.238-0.504,0.36-0.831,0.367c-0.334,0.006-0.62-0.104-0.856-0.333c-0.237-0.229-0.358-0.508-0.364-0.837l-0.207-10.469
				c-0.006-0.329,0.104-0.612,0.332-0.85c0.227-0.238,0.508-0.36,0.842-0.367c0.327-0.007,0.608,0.104,0.845,0.333
				C85.968,96.314,86.089,96.593,86.096,96.921z"/>
			<path fill="#331842" d="M109.25,104.514c0.342-0.007,0.627,0.101,0.856,0.322c0.229,0.222,0.346,0.504,0.353,0.849
				c0.006,0.337-0.102,0.626-0.325,0.867c-1.158,1.064-2.539,1.612-4.143,1.644c-1.764,0.035-3.282-0.563-4.553-1.793
				s-1.925-2.733-1.959-4.509c-0.035-1.775,0.558-3.302,1.78-4.583c1.222-1.279,2.715-1.937,4.479-1.971
				c1.749-0.035,3.266,0.563,4.553,1.793c0.635,0.608,1.116,1.29,1.443,2.044c0.327,0.755,0.499,1.577,0.516,2.464
				c0.007,0.344-0.104,0.632-0.331,0.862c-0.227,0.23-0.508,0.349-0.843,0.355l-9.031,0.178c0.137,0.419,0.335,0.799,0.593,1.142
				c0.258,0.344,0.558,0.636,0.901,0.878c0.343,0.243,0.72,0.429,1.129,0.558c0.409,0.13,0.834,0.19,1.275,0.182
				c0.501-0.01,0.96-0.096,1.375-0.257c0.415-0.162,0.798-0.398,1.149-0.712C108.694,104.632,108.954,104.527,109.25,104.514z
				 M109.685,100.499c-0.138-0.418-0.337-0.799-0.599-1.143c-0.262-0.343-0.564-0.636-0.907-0.877
				c-0.343-0.242-0.72-0.428-1.129-0.558c-0.41-0.13-0.831-0.19-1.264-0.182c-0.434,0.008-0.854,0.085-1.262,0.231
				c-0.408,0.146-0.78,0.347-1.118,0.603c-0.337,0.254-0.627,0.559-0.872,0.913c-0.244,0.353-0.423,0.741-0.536,1.165
				L109.685,100.499z"/>
			<path fill="#331842" d="M128.517,104.111c0.342-0.007,0.627,0.1,0.856,0.321c0.229,0.222,0.347,0.504,0.354,0.849
				c0.006,0.337-0.113,0.633-0.359,0.891c-1.158,1.064-2.535,1.612-4.131,1.644c-1.764,0.035-3.282-0.563-4.553-1.793
				c-1.271-1.231-1.925-2.733-1.959-4.509c-0.035-1.775,0.558-3.302,1.78-4.582c1.222-1.279,2.715-1.937,4.479-1.972
				c1.604-0.032,3.001,0.461,4.193,1.479c0.279,0.24,0.421,0.539,0.429,0.898c0.007,0.345-0.1,0.634-0.319,0.868
				c-0.22,0.234-0.501,0.354-0.843,0.361c-0.289,0.006-0.549-0.081-0.781-0.26c-0.395-0.321-0.806-0.562-1.235-0.722
				c-0.43-0.16-0.895-0.235-1.396-0.226c-0.555,0.011-1.074,0.127-1.556,0.347c-0.482,0.22-0.902,0.516-1.26,0.886
				c-0.357,0.371-0.636,0.803-0.835,1.297c-0.2,0.494-0.293,1.02-0.283,1.578c0.011,0.559,0.126,1.081,0.345,1.567
				c0.219,0.485,0.514,0.907,0.886,1.263c0.372,0.356,0.803,0.635,1.294,0.835c0.49,0.202,1.013,0.296,1.568,0.285
				c0.502-0.01,0.964-0.101,1.386-0.274c0.422-0.172,0.82-0.428,1.194-0.764C127.979,104.213,128.228,104.124,128.517,104.111z"/>
			<path fill="#331842" d="M138.664,106.345c0.007,0.337-0.104,0.625-0.331,0.863c-0.227,0.238-0.508,0.36-0.842,0.367
				c-0.327,0.006-0.609-0.105-0.845-0.333c-0.236-0.229-0.358-0.512-0.364-0.849l-0.315-15.955
				c-0.006-0.336,0.104-0.624,0.331-0.862s0.504-0.36,0.832-0.367c0.327-0.006,0.608,0.104,0.845,0.333
				c0.237,0.229,0.362,0.512,0.376,0.848l0.108,5.51c0.996-0.807,2.178-1.225,3.546-1.252c0.798-0.016,1.56,0.126,2.284,0.426
				s1.366,0.714,1.924,1.243c0.558,0.528,1.004,1.155,1.338,1.879c0.333,0.725,0.509,1.5,0.525,2.327l0.111,5.636
				c-0.001,0.337-0.115,0.625-0.342,0.862c-0.228,0.238-0.504,0.36-0.831,0.367c-0.327,0.006-0.609-0.104-0.845-0.333
				c-0.237-0.229-0.358-0.512-0.365-0.849l-0.111-5.636c-0.01-0.489-0.114-0.951-0.312-1.383s-0.463-0.808-0.792-1.127
				c-0.33-0.318-0.713-0.569-1.15-0.752c-0.437-0.183-0.898-0.269-1.385-0.26c-0.494,0.01-0.954,0.113-1.38,0.309
				c-0.426,0.197-0.799,0.462-1.12,0.797c-0.32,0.336-0.569,0.724-0.747,1.164c-0.177,0.44-0.261,0.905-0.251,1.394L138.664,106.345
				z"/>
			<path fill="#331842" d="M167.315,100.555c0.036,1.791-0.558,3.319-1.78,4.583c-1.237,1.28-2.73,1.937-4.479,1.971
				c-1.764,0.035-3.281-0.562-4.553-1.793c-1.272-1.231-1.925-2.733-1.96-4.509c-0.035-1.775,0.559-3.303,1.78-4.583
				c1.222-1.279,2.715-1.937,4.479-1.972c1.749-0.034,3.267,0.564,4.553,1.793c0.635,0.616,1.115,1.299,1.438,2.05
				C167.116,98.848,167.29,99.668,167.315,100.555z M160.85,96.652c-0.562,0.011-1.085,0.129-1.567,0.353
				c-0.482,0.224-0.899,0.521-1.249,0.891c-0.35,0.371-0.625,0.803-0.824,1.297s-0.294,1.016-0.283,1.567
				c0.011,0.551,0.125,1.07,0.344,1.556c0.219,0.485,0.51,0.906,0.875,1.262c0.364,0.357,0.792,0.638,1.283,0.842
				s1.018,0.301,1.58,0.29c0.555-0.011,1.074-0.128,1.556-0.352c0.482-0.224,0.9-0.523,1.254-0.897
				c0.354-0.375,0.631-0.807,0.83-1.297c0.199-0.49,0.294-1.01,0.283-1.562c-0.011-0.551-0.126-1.067-0.345-1.549
				c-0.219-0.481-0.512-0.903-0.88-1.263c-0.369-0.36-0.798-0.642-1.289-0.847C161.927,96.738,161.405,96.641,160.85,96.652z"/>
			<path fill="#331842" d="M176.143,100.691c-0.721-0.261-1.228-0.535-1.522-0.82l0.012,0c-0.589-0.577-0.892-1.264-0.908-2.061
				c-0.012-0.581,0.132-1.11,0.431-1.587c0.298-0.477,0.692-0.885,1.179-1.224c0.488-0.338,1.04-0.604,1.656-0.796
				c0.616-0.192,1.236-0.294,1.859-0.307c1.9-0.038,3.546,0.699,4.938,2.21c0.164,0.196,0.248,0.436,0.254,0.719
				c0.007,0.344-0.1,0.631-0.319,0.861c-0.22,0.23-0.501,0.349-0.843,0.356c-0.244,0.004-0.452-0.06-0.626-0.195
				c-0.174-0.134-0.342-0.28-0.505-0.438c-0.791-0.765-1.741-1.137-2.851-1.115c-1.095,0.021-1.962,0.376-2.603,1.062
				c-0.119,0.125-0.177,0.294-0.172,0.509s0.106,0.358,0.305,0.43l5.372,1.663c0.75,0.276,1.258,0.549,1.522,0.82h-0.011
				c0.589,0.578,0.892,1.265,0.908,2.061c0.012,0.589-0.132,1.121-0.431,1.594c-0.299,0.472-0.692,0.88-1.18,1.223
				c-0.487,0.343-1.037,0.608-1.649,0.796c-0.612,0.188-1.23,0.289-1.854,0.301c-1.916,0.038-3.562-0.692-4.937-2.188
				c-0.172-0.218-0.26-0.466-0.266-0.741c-0.007-0.345,0.1-0.632,0.319-0.862c0.22-0.23,0.501-0.349,0.843-0.355
				c0.25-0.005,0.465,0.065,0.643,0.211s0.34,0.287,0.487,0.421c0.791,0.765,1.745,1.137,2.863,1.115
				c1.087-0.021,1.955-0.383,2.603-1.085c0.111-0.133,0.165-0.291,0.162-0.474c-0.004-0.214-0.11-0.362-0.317-0.441L176.143,100.691
				z"/>
			<path fill="#331842" d="M215.104,104.825c0.007,0.337-0.105,0.626-0.336,0.868c-0.231,0.242-0.514,0.366-0.848,0.373
				s-0.622-0.106-0.862-0.339c-0.24-0.233-0.364-0.517-0.37-0.854l-0.133-6.75l-8.131,0.16l0.133,6.75
				c0.007,0.337-0.105,0.626-0.336,0.868c-0.231,0.242-0.514,0.366-0.848,0.373c-0.335,0.007-0.622-0.106-0.862-0.339
				c-0.24-0.233-0.364-0.517-0.371-0.854l-0.314-15.932c-0.006-0.336,0.105-0.626,0.336-0.868c0.231-0.242,0.514-0.366,0.849-0.373
				c0.334-0.006,0.622,0.106,0.862,0.339c0.24,0.232,0.364,0.517,0.371,0.854l0.133,6.75l8.13-0.16l-0.133-6.75
				c-0.007-0.336,0.105-0.626,0.336-0.868c0.231-0.242,0.514-0.366,0.849-0.373c0.334-0.007,0.622,0.106,0.862,0.339
				c0.24,0.233,0.364,0.518,0.37,0.854L215.104,104.825z"/>
			<path fill="#331842" d="M232.171,105.706c-0.342,0.007-0.625-0.102-0.851-0.328s-0.345-0.502-0.358-0.832
				c-0.517,0.424-1.065,0.735-1.647,0.935c-0.582,0.199-1.214,0.305-1.898,0.319c-0.813,0.016-1.584-0.128-2.313-0.431
				c-0.729-0.303-1.368-0.722-1.918-1.254c-0.551-0.532-0.991-1.159-1.32-1.88c-0.33-0.721-0.503-1.49-0.519-2.309l-0.112-5.671
				c-0.007-0.329,0.104-0.612,0.331-0.85c0.227-0.238,0.508-0.36,0.843-0.367c0.327-0.007,0.608,0.104,0.845,0.333
				s0.358,0.508,0.364,0.836l0.112,5.671c0.01,0.498,0.112,0.962,0.307,1.395c0.195,0.433,0.457,0.808,0.787,1.127
				c0.329,0.319,0.712,0.567,1.149,0.747c0.437,0.179,0.903,0.263,1.397,0.254c0.486-0.01,0.944-0.113,1.374-0.309
				c0.43-0.196,0.805-0.462,1.125-0.797c0.32-0.336,0.569-0.722,0.748-1.157c0.178-0.436,0.261-0.903,0.251-1.4l-0.112-5.671
				c-0.006-0.329,0.104-0.611,0.331-0.85c0.228-0.238,0.508-0.36,0.843-0.367c0.327-0.006,0.608,0.104,0.845,0.333
				c0.236,0.229,0.358,0.508,0.364,0.836l0.207,10.469c0.007,0.329-0.104,0.613-0.331,0.851
				C232.787,105.577,232.506,105.699,232.171,105.706z"/>
			<path fill="#331842" d="M257.835,103.993c0.006,0.337-0.104,0.625-0.331,0.862c-0.228,0.238-0.504,0.36-0.831,0.367
				c-0.334,0.007-0.618-0.104-0.851-0.333c-0.232-0.229-0.352-0.512-0.359-0.849l-0.129-6.531c-0.007-0.368-0.084-0.714-0.231-1.041
				c-0.147-0.327-0.345-0.612-0.593-0.855c-0.248-0.244-0.539-0.436-0.872-0.574c-0.334-0.139-0.69-0.205-1.071-0.197
				c-0.373,0.007-0.721,0.087-1.045,0.239s-0.607,0.353-0.849,0.603s-0.431,0.541-0.565,0.872c-0.134,0.332-0.197,0.686-0.19,1.061
				l0.129,6.531c0.007,0.337-0.104,0.625-0.331,0.862s-0.504,0.36-0.831,0.367c-0.334,0.006-0.62-0.104-0.856-0.333
				c-0.237-0.229-0.358-0.512-0.365-0.849l-0.129-6.531c-0.007-0.375-0.086-0.726-0.237-1.052s-0.351-0.609-0.599-0.849
				c-0.249-0.24-0.537-0.43-0.867-0.569c-0.33-0.139-0.681-0.205-1.054-0.197c-0.373,0.007-0.721,0.085-1.045,0.233
				s-0.607,0.349-0.85,0.603c-0.242,0.253-0.43,0.546-0.564,0.878c-0.134,0.332-0.197,0.686-0.189,1.061l0.129,6.531
				c0.006,0.337-0.104,0.624-0.331,0.862c-0.228,0.238-0.505,0.36-0.832,0.367c-0.334,0.006-0.62-0.104-0.856-0.333
				c-0.237-0.229-0.358-0.512-0.365-0.849l-0.206-10.457c-0.007-0.329,0.104-0.612,0.331-0.85c0.227-0.238,0.504-0.36,0.831-0.367
				c0.266-0.005,0.503,0.065,0.711,0.21c0.208,0.145,0.353,0.339,0.434,0.582c0.803-0.559,1.721-0.849,2.755-0.87
				c0.76-0.015,1.478,0.123,2.153,0.412c0.675,0.289,1.27,0.734,1.783,1.337c1.033-1.238,2.317-1.872,3.853-1.902
				c0.691-0.014,1.35,0.109,1.975,0.369s1.172,0.616,1.641,1.07c0.469,0.454,0.845,0.99,1.127,1.609
				c0.282,0.618,0.43,1.275,0.444,1.972L257.835,103.993z"/>
			<path fill="#331842" d="M274.936,103.667l-0.004-0.23c-0.562,0.471-1.174,0.835-1.838,1.093c-0.665,0.258-1.377,0.395-2.137,0.41
				c-1.764,0.035-3.281-0.563-4.553-1.793c-1.272-1.23-1.925-2.733-1.96-4.509c-0.035-1.775,0.558-3.302,1.78-4.583
				c1.222-1.279,2.715-1.937,4.479-1.971c1.749-0.035,3.266,0.563,4.553,1.793c1.271,1.231,1.925,2.734,1.96,4.509l0.104,5.234
				c0.006,0.329-0.104,0.612-0.331,0.851c-0.228,0.238-0.505,0.36-0.832,0.367c-0.334,0.006-0.62-0.104-0.856-0.333
				S274.942,103.997,274.936,103.667z M270.75,94.483c-0.562,0.011-1.085,0.129-1.567,0.353c-0.482,0.224-0.898,0.521-1.249,0.892
				c-0.35,0.37-0.625,0.802-0.824,1.296c-0.2,0.494-0.294,1.017-0.283,1.567c0.011,0.551,0.126,1.069,0.345,1.555
				c0.219,0.485,0.51,0.906,0.875,1.263c0.364,0.356,0.792,0.637,1.283,0.842c0.491,0.205,1.017,0.302,1.58,0.291
				c0.555-0.011,1.074-0.128,1.556-0.352c0.482-0.224,0.9-0.523,1.254-0.898c0.354-0.375,0.63-0.807,0.83-1.296
				c0.199-0.49,0.294-1.011,0.283-1.562c-0.011-0.551-0.125-1.067-0.344-1.549s-0.512-0.903-0.88-1.263
				c-0.369-0.36-0.798-0.642-1.289-0.847C271.828,94.569,271.305,94.472,270.75,94.483z"/>
			<path fill="#331842" d="M285.979,92.965c0.996-0.807,2.178-1.226,3.546-1.252c0.798-0.016,1.56,0.126,2.284,0.426
				s1.366,0.714,1.924,1.242c0.558,0.529,1.004,1.156,1.338,1.88c0.334,0.725,0.509,1.5,0.525,2.327l0.112,5.659
				c0.006,0.337-0.104,0.624-0.331,0.862c-0.228,0.238-0.504,0.36-0.831,0.367c-0.335,0.006-0.62-0.105-0.856-0.333
				c-0.237-0.229-0.358-0.512-0.365-0.849l-0.112-5.659c-0.01-0.489-0.114-0.951-0.312-1.383s-0.463-0.808-0.792-1.127
				c-0.33-0.318-0.713-0.569-1.15-0.752c-0.437-0.183-0.899-0.27-1.385-0.26c-0.494,0.01-0.954,0.113-1.38,0.309
				c-0.426,0.197-0.799,0.462-1.119,0.797c-0.321,0.336-0.57,0.724-0.748,1.164s-0.261,0.905-0.252,1.394l0.112,5.659
				c0.007,0.337-0.104,0.625-0.331,0.862c-0.228,0.238-0.505,0.36-0.832,0.367c-0.334,0.007-0.62-0.104-0.856-0.333
				c-0.237-0.229-0.358-0.512-0.365-0.849l-0.206-10.445c-0.006-0.329,0.104-0.614,0.331-0.856c0.227-0.242,0.508-0.366,0.843-0.373
				c0.327-0.006,0.608,0.107,0.845,0.339C285.851,92.379,285.973,92.651,285.979,92.965z"/>
			<path fill="#331842" d="M314.837,97.644c0.036,1.791-0.558,3.318-1.78,4.583c-1.237,1.28-2.73,1.937-4.479,1.971
				c-1.764,0.035-3.281-0.563-4.553-1.793c-1.271-1.231-1.925-2.733-1.959-4.509c-0.035-1.775,0.558-3.302,1.78-4.582
				c1.222-1.279,2.715-1.937,4.479-1.972c1.749-0.034,3.266,0.564,4.553,1.793c0.635,0.616,1.115,1.299,1.438,2.05
				C314.638,95.937,314.812,96.757,314.837,97.644z M308.372,93.741c-0.562,0.011-1.085,0.129-1.567,0.353
				c-0.482,0.224-0.898,0.521-1.249,0.891c-0.35,0.371-0.625,0.803-0.824,1.296c-0.2,0.495-0.293,1.017-0.283,1.567
				c0.011,0.551,0.125,1.07,0.344,1.555s0.51,0.907,0.875,1.263c0.364,0.357,0.792,0.638,1.283,0.842s1.018,0.301,1.58,0.29
				c0.555-0.011,1.073-0.128,1.556-0.352c0.482-0.224,0.9-0.523,1.254-0.897c0.354-0.375,0.63-0.807,0.83-1.297
				c0.199-0.49,0.293-1.01,0.283-1.562c-0.011-0.551-0.125-1.067-0.344-1.549c-0.219-0.481-0.512-0.903-0.88-1.263
				c-0.368-0.36-0.798-0.642-1.289-0.847C309.45,93.827,308.926,93.73,308.372,93.741z"/>
			<path fill="#331842" d="M323.665,97.78c-0.72-0.261-1.228-0.535-1.522-0.82l0.011,0c-0.589-0.578-0.892-1.264-0.907-2.061
				c-0.012-0.581,0.132-1.11,0.431-1.587c0.298-0.477,0.691-0.885,1.179-1.224c0.488-0.338,1.04-0.604,1.656-0.796
				c0.616-0.192,1.235-0.294,1.859-0.307c1.9-0.038,3.546,0.699,4.938,2.21c0.164,0.196,0.249,0.436,0.254,0.719
				c0.007,0.344-0.1,0.631-0.32,0.861c-0.22,0.23-0.5,0.349-0.843,0.356c-0.243,0.004-0.452-0.06-0.625-0.195
				c-0.174-0.134-0.342-0.28-0.505-0.438c-0.791-0.765-1.741-1.137-2.851-1.115c-1.095,0.021-1.962,0.376-2.603,1.062
				c-0.119,0.125-0.176,0.294-0.172,0.509c0.004,0.214,0.106,0.358,0.305,0.43l5.372,1.663c0.751,0.276,1.258,0.549,1.522,0.82
				h-0.012c0.589,0.578,0.892,1.265,0.907,2.061c0.012,0.589-0.131,1.121-0.43,1.594c-0.299,0.472-0.692,0.88-1.179,1.223
				c-0.488,0.343-1.038,0.608-1.65,0.796c-0.613,0.188-1.23,0.289-1.854,0.301c-1.916,0.038-3.562-0.692-4.937-2.188
				c-0.172-0.219-0.26-0.466-0.266-0.741c-0.007-0.345,0.1-0.632,0.319-0.862c0.22-0.23,0.501-0.349,0.843-0.355
				c0.251-0.005,0.465,0.065,0.643,0.211s0.34,0.287,0.488,0.421c0.791,0.765,1.745,1.137,2.862,1.115
				c1.087-0.021,1.955-0.383,2.603-1.085c0.111-0.133,0.165-0.291,0.162-0.474c-0.004-0.214-0.11-0.362-0.317-0.441L323.665,97.78z"
				/>
		</g>
	</g>
</g>
</svg>
