<?xml version="1.0" encoding="utf-8"?>
<!-- Generator: Adobe Illustrator 16.0.0, SVG Export Plug-In . SVG Version: 6.00 Build 0)  -->
<!DOCTYPE svg PUBLIC "-//W3C//DTD SVG 1.1//EN" "http://www.w3.org/Graphics/SVG/1.1/DTD/svg11.dtd">
<svg version="1.1" id="Capa_1" xmlns="http://www.w3.org/2000/svg" xmlns:xlink="http://www.w3.org/1999/xlink" x="0px" y="0px"
	 width="821.985px" height="232.494px" viewBox="0 0 821.985 232.494" enable-background="new 0 0 821.985 232.494"
	 xml:space="preserve">
<g>
	<rect y="38.09" opacity="0.5" fill="#951B81" enable-background="new    " width="821.985" height="194.404"/>
	<rect x="508.176" opacity="0.5" fill="#951B81" enable-background="new    " width="313.809" height="31"/>
	<g>
		<g>
			<path fill="#FFFFFF" d="M524.176,23.141c0.02-2.194,0.027-4.453,0.027-6.777c0-2.331-0.01-4.724-0.027-7.178
				c1.004-0.091,1.932-0.137,2.777-0.137c2.357,0,4.096,0.352,5.215,1.055c1.52,0.964,2.314,2.744,2.383,5.342v0.703
				c0,2.227-0.287,3.815-0.863,4.766c-0.639,1.048-1.805,1.745-3.498,2.09c-0.979,0.202-2.053,0.303-3.223,0.303
				C526.094,23.307,525.165,23.251,524.176,23.141z M527.426,11.979c-0.148,2.142-0.223,4.212-0.223,6.211
				c0,0.755,0.008,1.497,0.025,2.227c0.307,0.052,0.6,0.078,0.879,0.078c0.768,0,1.414-0.198,1.938-0.596
				c0.717-0.534,1.074-1.731,1.074-3.594v-0.039c-0.008-1.875-0.357-3.105-1.047-3.691c-0.533-0.442-1.166-0.664-1.9-0.664
				C527.936,11.91,527.688,11.933,527.426,11.979z"/>
			<path fill="#FFFFFF" d="M539.793,13.482c3.031,0,4.545,1.501,4.545,4.502c0,0.364-0.02,0.755-0.064,1.172h-5.855
				c0,1.673,0.432,2.51,1.297,2.51h0.09c0.762-0.046,1.141-0.479,1.141-1.299c0-0.176-0.018-0.371-0.053-0.586l3.117-0.049
				c0,2.48-1.453,3.737-4.361,3.77c-0.035,0.007-0.066,0.01-0.092,0.01c-2.77,0-4.152-1.565-4.152-4.697v-0.293
				C535.493,15.162,536.956,13.482,539.793,13.482z M538.104,17.359h2.961v-0.234c0-1.185-0.451-1.777-1.35-1.777
				C538.745,15.348,538.208,16.019,538.104,17.359z"/>
			<path fill="#FFFFFF" d="M548.807,16.51l0.131,7.08l-3.211,0.02c0-2.995-0.135-6.357-0.404-10.088l2.41-0.195l0.131,1.592
				c0.367-0.781,1.223-1.228,2.566-1.338c0.201-0.013,0.395-0.02,0.578-0.02c1.057,0,1.859,0.257,2.41,0.771
				c0.637,0.612,0.961,1.585,0.969,2.92l-2.908,0.215c0.01-0.11,0.014-0.218,0.014-0.322c0-1.042-0.363-1.562-1.086-1.562h-0.053
				C549.514,15.614,548.999,15.924,548.807,16.51z"/>
			<path fill="#FFFFFF" d="M559.522,13.482c3.031,0,4.547,1.501,4.547,4.502c0,0.364-0.021,0.755-0.066,1.172h-5.855
				c0,1.673,0.434,2.51,1.297,2.51h0.092c0.76-0.046,1.139-0.479,1.139-1.299c0-0.176-0.018-0.371-0.053-0.586l3.119-0.049
				c0,2.48-1.455,3.737-4.363,3.77c-0.035,0.007-0.066,0.01-0.092,0.01c-2.77,0-4.152-1.565-4.152-4.697v-0.293
				C555.221,15.162,556.684,13.482,559.522,13.482z M557.833,17.359h2.961v-0.234c0-1.185-0.451-1.777-1.35-1.777
				C558.475,15.348,557.938,16.019,557.833,17.359z"/>
			<path fill="#FFFFFF" d="M570.409,19.488l3.119,0.146c0,2.351-1.455,3.542-4.363,3.574c-0.035,0.007-0.066,0.01-0.092,0.01
				c-2.77,0-4.152-1.565-4.152-4.697v-0.293c0.086-3.359,1.562-5.056,4.428-5.088h0.105c2.637,0,3.955,1.126,3.955,3.379
				c0,0.13-0.004,0.261-0.014,0.391l-2.816,0.156v-0.234c0-1.185-0.449-1.777-1.35-1.777c-0.916,0-1.375,0.96-1.375,2.881v0.322
				c0.053,2.077,0.516,3.115,1.389,3.115h0.08c0.76-0.046,1.139-0.479,1.139-1.299C570.461,19.898,570.444,19.703,570.409,19.488z"
				/>
			<path fill="#FFFFFF" d="M577.733,9.518l0.131,5.498c0.365-0.847,1.223-1.276,2.566-1.289h0.041c1.326,0,2.271,0.449,2.83,1.348
				c0.383,0.612,0.576,2.044,0.576,4.297c0,1.106-0.049,2.415-0.145,3.926h-3.301c0.113-2.012,0.17-3.571,0.17-4.678
				c0-0.554-0.014-0.996-0.041-1.328c-0.086-0.977-0.463-1.465-1.125-1.465c-0.664,0-1.092,0.261-1.283,0.781l0.131,7.08
				l-3.209,0.02c0-2.995-0.18-7.692-0.537-14.092L577.733,9.518z"/>
			<path fill="#FFFFFF" d="M589.588,13.482c2.969,0,4.455,1.536,4.455,4.609c0,0.124-0.006,0.247-0.014,0.371
				c-0.123,3.327-1.703,5.007-4.742,5.039c-0.035,0.007-0.07,0.01-0.105,0.01c-2.891,0-4.336-1.572-4.336-4.717v-0.273
				C584.934,15.162,586.514,13.482,589.588,13.482z M589.157,15.709c-0.551,0.144-0.928,0.674-1.127,1.592
				c-0.123,0.547-0.184,1.097-0.184,1.65c0,0.371,0.025,0.745,0.078,1.123c0.141,0.938,0.59,1.423,1.352,1.455h0.09
				c0.709,0,1.191-0.349,1.455-1.045c0.219-0.579,0.328-1.267,0.328-2.061c0-0.195-0.006-0.394-0.014-0.596
				c-0.07-1.048-0.279-1.702-0.629-1.963c-0.219-0.156-0.479-0.234-0.785-0.234C589.545,15.631,589.358,15.657,589.157,15.709z"/>
			<path fill="#FFFFFF" d="M604.719,13.199c2.873,0.117,4.311,1.194,4.311,3.232v6.934l-3.053,0.039l-0.104-0.928
				c-0.629,0.534-1.463,0.801-2.502,0.801c-0.445,0-0.926-0.052-1.441-0.156c-1.547-0.286-2.318-1.179-2.318-2.676
				c0-0.183,0.012-0.378,0.039-0.586c0.174-1.543,1.646-2.314,4.416-2.314c0.531,0,1.117,0.029,1.756,0.088V16.5
				c0-0.918-0.391-1.377-1.166-1.377h-0.055c-0.061-0.007-0.117-0.01-0.17-0.01c-0.848,0-1.27,0.515-1.27,1.543v0.146l-3.119-0.195
				c0-2.272,1.467-3.408,4.402-3.408H604.719z M605.821,20.914v-1.719c-0.377-0.059-0.717-0.088-1.023-0.088
				c-0.795,0-1.336,0.198-1.625,0.596c-0.174,0.241-0.262,0.466-0.262,0.674c0,0.261,0.141,0.491,0.42,0.693
				c0.217,0.156,0.502,0.234,0.852,0.234C604.627,21.305,605.174,21.175,605.821,20.914z"/>
			<path fill="#FFFFFF" d="M618.645,23.346l-3.262,0.225c0.035-2.155,0.053-4.229,0.053-6.221c0-2.8-0.035-5.439-0.105-7.92
				l3.211-0.039c-0.035,1.595-0.053,3.232-0.053,4.912C618.489,17.2,618.542,20.214,618.645,23.346z"/>
			<path fill="#FFFFFF" d="M624.842,13.199c2.873,0.117,4.311,1.194,4.311,3.232v6.934l-3.055,0.039l-0.104-0.928
				c-0.629,0.534-1.463,0.801-2.502,0.801c-0.445,0-0.926-0.052-1.441-0.156c-1.545-0.286-2.318-1.179-2.318-2.676
				c0-0.183,0.014-0.378,0.041-0.586c0.174-1.543,1.645-2.314,4.414-2.314c0.533,0,1.117,0.029,1.756,0.088V16.5
				c0-0.918-0.391-1.377-1.166-1.377h-0.053c-0.061-0.007-0.117-0.01-0.17-0.01c-0.848,0-1.271,0.515-1.271,1.543v0.146
				l-3.117-0.195c0-2.272,1.467-3.408,4.402-3.408H624.842z M625.942,20.914v-1.719c-0.375-0.059-0.717-0.088-1.021-0.088
				c-0.795,0-1.336,0.198-1.625,0.596c-0.174,0.241-0.262,0.466-0.262,0.674c0,0.261,0.141,0.491,0.42,0.693
				c0.217,0.156,0.502,0.234,0.852,0.234C624.75,21.305,625.295,21.175,625.942,20.914z"/>
			<path fill="#FFFFFF" d="M635.295,23.375c0.053-1.862,0.08-3.737,0.08-5.625c0-2.891-0.062-5.811-0.184-8.76
				c1.354-0.104,2.566-0.156,3.641-0.156c2.988,0,4.891,0.407,5.713,1.221c0.768,0.762,1.152,1.602,1.152,2.52
				c0,0.417-0.074,0.847-0.223,1.289c-0.508,1.433-1.572,2.341-3.197,2.725c1.135,0.117,1.996,0.573,2.582,1.367
				c0.559,0.769,0.838,2.702,0.838,5.801v0.42l-3.957,0.039c0.043-0.82,0.064-1.556,0.064-2.207c0-1.973-0.213-3.181-0.641-3.623
				c-0.49-0.495-1.07-0.742-1.744-0.742c-0.131,0-0.266,0.01-0.406,0.029c0.053,1.985,0.166,3.867,0.34,5.645L635.295,23.375z
				 M638.651,11.266l0.09,4.18c1.625-0.059,2.656-0.469,3.092-1.23c0.236-0.403,0.354-0.798,0.354-1.182
				c0-0.332-0.088-0.657-0.262-0.977c-0.312-0.554-1.096-0.83-2.344-0.83C639.292,11.227,638.983,11.239,638.651,11.266z"/>
			<path fill="#FFFFFF" d="M651.069,13.482c3.031,0,4.547,1.501,4.547,4.502c0,0.364-0.023,0.755-0.066,1.172h-5.855
				c0,1.673,0.432,2.51,1.297,2.51h0.092c0.76-0.046,1.141-0.479,1.141-1.299c0-0.176-0.018-0.371-0.053-0.586l3.119-0.049
				c0,2.48-1.455,3.737-4.363,3.77c-0.035,0.007-0.064,0.01-0.092,0.01c-2.77,0-4.154-1.565-4.154-4.697v-0.293
				C646.768,15.162,648.231,13.482,651.069,13.482z M649.379,17.359h2.961v-0.234c0-1.185-0.451-1.777-1.35-1.777
				C650.02,15.348,649.485,16.019,649.379,17.359z"/>
			<path fill="#FFFFFF" d="M656.676,27.408c0.053-2.194,0.078-4.528,0.078-7.002c0-2.253-0.02-4.616-0.064-7.09l3.105-0.01
				l0.105,1.504c0.645-0.729,1.506-1.094,2.58-1.094c2.682,0,4.021,1.579,4.021,4.736v0.195c-0.062,3.164-1.396,4.746-4.008,4.746
				c-0.105,0-0.209-0.003-0.314-0.01c-0.891-0.032-1.611-0.394-2.162-1.084c0,1.445,0.047,3.147,0.145,5.107h-3.486V27.408z
				 M659.952,16.812l0.064,3.672c0.508,0.515,1.018,0.771,1.533,0.771c0.211,0,0.42-0.046,0.629-0.137
				c0.639-0.261,0.957-1.038,0.957-2.334c0-0.156-0.004-0.319-0.014-0.488c-0.086-1.589-0.51-2.425-1.271-2.51
				c-0.078-0.007-0.152-0.01-0.223-0.01C660.965,15.777,660.407,16.122,659.952,16.812z"/>
			<path fill="#FFFFFF" d="M672.608,13.199c2.871,0.117,4.309,1.194,4.309,3.232v6.934l-3.053,0.039l-0.104-0.928
				c-0.629,0.534-1.463,0.801-2.502,0.801c-0.445,0-0.926-0.052-1.441-0.156c-1.547-0.286-2.318-1.179-2.318-2.676
				c0-0.183,0.012-0.378,0.039-0.586c0.174-1.543,1.646-2.314,4.416-2.314c0.533,0,1.117,0.029,1.754,0.088V16.5
				c0-0.918-0.389-1.377-1.166-1.377h-0.051c-0.062-0.007-0.119-0.01-0.17-0.01c-0.848,0-1.271,0.515-1.271,1.543v0.146
				l-3.119-0.195c0-2.272,1.469-3.408,4.402-3.408H672.608z M673.708,20.914v-1.719c-0.375-0.059-0.717-0.088-1.021-0.088
				c-0.795,0-1.336,0.198-1.625,0.596c-0.176,0.241-0.262,0.466-0.262,0.674c0,0.261,0.139,0.491,0.418,0.693
				c0.219,0.156,0.502,0.234,0.854,0.234C672.514,21.305,673.061,21.175,673.708,20.914z"/>
			<path fill="#FFFFFF" d="M681.45,16.51l0.131,7.08l-3.209,0.02c0-2.995-0.135-6.357-0.406-10.088l2.412-0.195l0.131,1.592
				c0.367-0.781,1.223-1.228,2.568-1.338c0.201-0.013,0.393-0.02,0.576-0.02c1.057,0,1.859,0.257,2.41,0.771
				c0.637,0.612,0.961,1.585,0.969,2.92l-2.908,0.215c0.01-0.11,0.014-0.218,0.014-0.322c0-1.042-0.361-1.562-1.088-1.562h-0.051
				C682.157,15.614,681.641,15.924,681.45,16.51z"/>
			<path fill="#FFFFFF" d="M692.979,13.199c2.873,0.117,4.311,1.194,4.311,3.232v6.934l-3.053,0.039l-0.105-0.928
				c-0.629,0.534-1.463,0.801-2.502,0.801c-0.445,0-0.926-0.052-1.439-0.156c-1.547-0.286-2.318-1.179-2.318-2.676
				c0-0.183,0.012-0.378,0.039-0.586c0.174-1.543,1.645-2.314,4.414-2.314c0.533,0,1.119,0.029,1.756,0.088V16.5
				c0-0.918-0.389-1.377-1.166-1.377h-0.053c-0.062-0.007-0.117-0.01-0.17-0.01c-0.848,0-1.271,0.515-1.271,1.543v0.146
				l-3.117-0.195c0-2.272,1.467-3.408,4.402-3.408H692.979z M694.079,20.914v-1.719c-0.375-0.059-0.715-0.088-1.021-0.088
				c-0.795,0-1.336,0.198-1.625,0.596c-0.174,0.241-0.262,0.466-0.262,0.674c0,0.261,0.141,0.491,0.42,0.693
				c0.217,0.156,0.502,0.234,0.852,0.234C692.887,21.305,693.432,21.175,694.079,20.914z"/>
			<path fill="#FFFFFF" d="M703.694,19.488l3.117,0.146c0,2.351-1.453,3.542-4.361,3.574c-0.035,0.007-0.066,0.01-0.092,0.01
				c-2.77,0-4.152-1.565-4.152-4.697v-0.293c0.086-3.359,1.562-5.056,4.428-5.088h0.105c2.637,0,3.955,1.126,3.955,3.379
				c0,0.13-0.004,0.261-0.014,0.391l-2.816,0.156v-0.234c0-1.185-0.449-1.777-1.35-1.777c-0.916,0-1.375,0.96-1.375,2.881v0.322
				c0.053,2.077,0.516,3.115,1.389,3.115h0.078c0.762-0.046,1.141-0.479,1.141-1.299C703.747,19.898,703.729,19.703,703.694,19.488z
				"/>
			<path fill="#FFFFFF" d="M711.569,11.236c0,0.397-0.189,0.735-0.564,1.016c-0.375,0.28-0.83,0.42-1.363,0.42
				c-0.523,0-0.973-0.14-1.348-0.42c-0.377-0.28-0.562-0.618-0.562-1.016c0-0.391,0.188-0.726,0.562-1.006
				c0.375-0.28,0.824-0.42,1.348-0.42c0.533,0,0.988,0.14,1.363,0.42C711.379,10.511,711.569,10.846,711.569,11.236z
				 M708.057,23.561c-0.062-3.809-0.092-7.1-0.092-9.873l3.301-0.146c-0.105,2.656-0.156,5.296-0.156,7.92
				c0,0.703,0.004,1.403,0.012,2.1L708.057,23.561L708.057,23.561z"/>
			<path fill="#FFFFFF" d="M716.901,13.482c2.969,0,4.453,1.536,4.453,4.609c0,0.124-0.004,0.247-0.014,0.371
				c-0.121,3.327-1.703,5.007-4.742,5.039c-0.033,0.007-0.068,0.01-0.104,0.01c-2.893,0-4.336-1.572-4.336-4.717v-0.273
				C712.245,15.162,713.825,13.482,716.901,13.482z M716.467,15.709c-0.551,0.144-0.926,0.674-1.127,1.592
				c-0.121,0.547-0.184,1.097-0.184,1.65c0,0.371,0.025,0.745,0.08,1.123c0.139,0.938,0.588,1.423,1.348,1.455h0.092
				c0.709,0,1.193-0.349,1.455-1.045c0.217-0.579,0.328-1.267,0.328-2.061c0-0.195-0.006-0.394-0.014-0.596
				c-0.07-1.048-0.279-1.702-0.629-1.963c-0.219-0.156-0.48-0.234-0.785-0.234C716.856,15.631,716.668,15.657,716.467,15.709z
				 M715.198,11.578c1.021-0.905,1.859-1.768,2.514-2.588l2.148,1.271c-0.926,0.677-1.955,1.507-3.092,2.49L715.198,11.578z"/>
			<path fill="#FFFFFF" d="M724.485,13.229l0.131,1.592c0.367-0.847,1.332-1.276,2.895-1.289h0.053c1.537,0,2.586,0.449,3.145,1.348
				c0.385,0.612,0.576,2.044,0.576,4.297c0,1.106-0.047,2.415-0.145,3.926h-3.17c0.113-2.012,0.17-3.571,0.17-4.678
				c0-0.554-0.012-0.996-0.039-1.328c-0.088-0.977-0.506-1.465-1.258-1.465c-0.75,0-1.223,0.261-1.414,0.781l0.131,7.08l-3.078,0.02
				c0-2.995-0.137-6.357-0.406-10.088L724.485,13.229z"/>
			<path fill="#FFFFFF" d="M740.94,22.76l-3.264,0.225c0-4.778-0.104-9.265-0.312-13.457l3.732-0.234
				C741,13.714,740.948,18.202,740.94,22.76z"/>
			<path fill="#FFFFFF" d="M744.661,13.229l0.131,1.592c0.367-0.847,1.332-1.276,2.895-1.289h0.053c1.537,0,2.586,0.449,3.145,1.348
				c0.383,0.612,0.576,2.044,0.576,4.297c0,1.106-0.049,2.415-0.145,3.926h-3.17c0.113-2.012,0.17-3.571,0.17-4.678
				c0-0.554-0.014-0.996-0.039-1.328c-0.088-0.977-0.508-1.465-1.258-1.465c-0.752,0-1.223,0.261-1.416,0.781l0.133,7.08l-3.08,0.02
				c0-2.995-0.137-6.357-0.406-10.088L744.661,13.229z"/>
			<path fill="#FFFFFF" d="M754.735,10.367l2.973-0.146v3.232l2.502-0.049l0.039,1.846l-2.541,0.088v4.443
				c0,1.035,0.59,1.553,1.768,1.553c0.246,0,0.512-0.022,0.801-0.068l-0.119,2.148c-0.418,0.039-0.816,0.059-1.191,0.059
				c-2.76,0-4.166-1.062-4.219-3.184v-4.775l-2.148,0.098l-0.053-2.178l2.201,0.02L754.735,10.367z"/>
			<path fill="#FFFFFF" d="M765.594,13.482c3.031,0,4.547,1.501,4.547,4.502c0,0.364-0.021,0.755-0.064,1.172h-5.857
				c0,1.673,0.434,2.51,1.297,2.51h0.094c0.76-0.046,1.139-0.479,1.139-1.299c0-0.176-0.018-0.371-0.051-0.586l3.117-0.049
				c0,2.48-1.453,3.737-4.361,3.77c-0.035,0.007-0.066,0.01-0.092,0.01c-2.77,0-4.154-1.565-4.154-4.697v-0.293
				C761.293,15.162,762.756,13.482,765.594,13.482z M763.905,17.359h2.961v-0.234c0-1.185-0.451-1.777-1.35-1.777
				C764.547,15.348,764.01,16.019,763.905,17.359z"/>
			<path fill="#FFFFFF" d="M771.491,24.645l3.078-0.127c-0.01,0.078-0.014,0.156-0.014,0.234c0,0.71,0.379,1.097,1.141,1.162
				c0.121,0.013,0.234,0.02,0.34,0.02c0.656,0,1.123-0.195,1.4-0.586c0.246-0.352,0.367-1.009,0.367-1.973
				c0-0.261-0.008-0.547-0.025-0.859c-0.488,0.729-1.396,1.126-2.725,1.191c-2.594-0.02-3.891-1.663-3.891-4.932v-0.068
				c0.016-3.308,1.559-4.971,4.625-4.99c0.838,0,1.588,0.364,2.252,1.094l0.041-1.553l2.869,0.098c0,5.371-0.023,8.698-0.066,9.98
				c-0.043,1.282-0.303,2.312-0.779,3.086s-1.285,1.27-2.43,1.484c-0.604,0.117-1.201,0.176-1.795,0.176
				c-0.533,0-1.061-0.046-1.584-0.137c-1.119-0.195-1.887-0.563-2.307-1.104c-0.35-0.442-0.523-1.022-0.523-1.738
				C771.463,24.96,771.473,24.808,771.491,24.645z M777.752,20.777v-3.965c-0.428-0.645-0.969-0.967-1.625-0.967
				c-0.131,0-0.266,0.013-0.406,0.039c-0.848,0.149-1.314,1.019-1.402,2.607c-0.01,0.169-0.014,0.332-0.014,0.488
				c0,1.296,0.324,2.09,0.971,2.383c0.217,0.104,0.449,0.156,0.693,0.156C776.512,21.52,777.104,21.272,777.752,20.777z"/>
			<path fill="#FFFFFF" d="M785.442,16.51l0.131,7.08l-3.209,0.02c0-2.995-0.137-6.357-0.406-10.088l2.41-0.195l0.131,1.592
				c0.367-0.781,1.223-1.228,2.568-1.338c0.199-0.013,0.393-0.02,0.576-0.02c1.057,0,1.859,0.257,2.41,0.771
				c0.639,0.612,0.961,1.585,0.971,2.92l-2.908,0.215c0.008-0.11,0.012-0.218,0.012-0.322c0-1.042-0.363-1.562-1.086-1.562h-0.053
				C786.149,15.614,785.633,15.924,785.442,16.51z"/>
			<path fill="#FFFFFF" d="M796.971,13.199c2.873,0.117,4.311,1.194,4.311,3.232v6.934l-3.053,0.039l-0.105-0.928
				c-0.629,0.534-1.463,0.801-2.502,0.801c-0.445,0-0.926-0.052-1.441-0.156c-1.545-0.286-2.318-1.179-2.318-2.676
				c0-0.183,0.014-0.378,0.041-0.586c0.174-1.543,1.645-2.314,4.414-2.314c0.533,0,1.117,0.029,1.756,0.088V16.5
				c0-0.918-0.389-1.377-1.166-1.377h-0.053c-0.061-0.007-0.117-0.01-0.17-0.01c-0.848,0-1.271,0.515-1.271,1.543v0.146
				l-3.117-0.195c0-2.272,1.467-3.408,4.4-3.408H796.971z M798.071,20.914v-1.719c-0.375-0.059-0.717-0.088-1.021-0.088
				c-0.795,0-1.336,0.198-1.625,0.596c-0.176,0.241-0.262,0.466-0.262,0.674c0,0.261,0.139,0.491,0.418,0.693
				c0.219,0.156,0.502,0.234,0.852,0.234C796.879,21.305,797.424,21.175,798.071,20.914z"/>
			<path fill="#FFFFFF" d="M806.01,23.346l-3.262,0.225c0.035-2.155,0.051-4.229,0.051-6.221c0-2.8-0.035-5.439-0.104-7.92
				l3.209-0.039c-0.035,1.595-0.053,3.232-0.053,4.912C805.852,17.2,805.905,20.214,806.01,23.346z"/>
		</g>
	</g>
	<circle fill="#FFFFFF" cx="33.541" cy="76.901" r="3.367"/>
	<circle fill="#FFFFFF" cx="436.061" cy="76.901" r="3.367"/>
	<circle fill="#FFFFFF" cx="436.061" cy="113.826" r="3.367"/>
	<circle fill="#FFFFFF" cx="33.541" cy="113.826" r="3.367"/>
	<circle fill="#FFFFFF" cx="33.541" cy="166.826" r="3.367"/>
</g>
</svg>
