<?xml version="1.0" encoding="utf-8"?>
<!-- Generator: Adobe Illustrator 16.0.0, SVG Export Plug-In . SVG Version: 6.00 Build 0)  -->
<!DOCTYPE svg PUBLIC "-//W3C//DTD SVG 1.1//EN" "http://www.w3.org/Graphics/SVG/1.1/DTD/svg11.dtd">
<svg version="1.1" id="Capa_1" xmlns="http://www.w3.org/2000/svg" xmlns:xlink="http://www.w3.org/1999/xlink" x="0px" y="0px"
	 width="222.104px" height="302.26px" viewBox="0 0 222.104 302.26" enable-background="new 0 0 222.104 302.26"
	 xml:space="preserve">
<g>
	<g>
		<g>
			<path fill="#F7E2C0" d="M207.697,105.349c-0.011-0.16-0.016-0.324-0.014-0.489c-0.005-0.076,0-0.16-0.013-0.232
				c-0.13-1.08-0.979-2.103-1.979-2.428c-0.688-0.608-1.533-1.104-2.606-1.438c-2.142-1.315-4.879-1.975-7.013-2.371
				c-1.697-0.314-8.357-0.588-11.235,0.795c-4.867-0.286-10.084,0.692-14.828,1.075c-5.972,0.479-12.658,0.463-18.394,2.606
				c-5.198-0.38-10.556,0.229-15.753,0.386c-5.592,0.174-11.184,0.279-16.779,0.353c-5.592,0.071-11.185,0.063-16.776,0.065
				c-4.759,0.002-9.885-0.598-14.674,0.03c-5.54-1.08-11.132-1.54-16.636-3.038c-6.438-1.756-12.544-4.572-18.626-7.357
				c-9.192-4.207-21.196-10.174-31.619-7.897c-0.079-0.437-0.379-0.788-0.941-0.712c-5.949,0.769-8.793,8.444-5.968,13.781
				c4.738,8.954,16.478,11.641,25.328,13.573c25,5.464,50.67,0.005,75.89,0.486c24.428,0.47,48.166,9.828,72.69,5.483
				c6.969-1.233,18.569-3.908,19.952-12.49C207.699,105.47,207.702,105.407,207.697,105.349z"/>
			<path opacity="0.5" fill="#F6DEBB" enable-background="new    " d="M207.697,105.349c-0.011-0.16-0.016-0.324-0.014-0.489
				c-0.005-0.076,0-0.16-0.013-0.232c-0.13-1.08-0.979-2.103-1.979-2.428c-0.688-0.608-1.533-1.104-2.606-1.438
				c-2.142-1.315-4.879-1.975-7.013-2.371c-1.697-0.314-8.357-0.588-11.235,0.795c-4.867-0.286-10.084,0.692-14.828,1.075
				c-5.972,0.479-12.658,0.463-18.394,2.606c-5.198-0.38-10.556,0.229-15.753,0.386c-5.592,0.174-11.184,0.279-16.779,0.353
				c-5.592,0.071-11.185,0.063-16.776,0.065c-4.759,0.002-9.885-0.598-14.674,0.03c-5.54-1.08-11.132-1.54-16.636-3.038
				c-6.438-1.756-12.544-4.572-18.626-7.357c-9.192-4.207-21.196-10.174-31.619-7.897c-0.079-0.437-0.379-0.788-0.941-0.712
				c-5.949,0.769-8.793,8.444-5.968,13.781c4.738,8.954,16.478,11.641,25.328,13.573c25,5.464,50.67,0.005,75.89,0.486
				c24.428,0.47,48.166,9.828,72.69,5.483c6.969-1.233,18.569-3.908,19.952-12.49C207.699,105.47,207.702,105.407,207.697,105.349z"
				/>
			<path opacity="0.5" fill="#F6DEBB" enable-background="new    " d="M207.697,105.349c-0.011-0.16-0.016-0.324-0.014-0.489
				c-0.005-0.076,0-0.16-0.013-0.232c-0.13-1.08-0.979-2.103-1.979-2.428c-0.688-0.608-1.533-1.104-2.606-1.438
				c-2.142-1.315-4.879-1.975-7.013-2.371c-1.697-0.314-8.357-0.588-11.235,0.795c-4.867-0.286-10.084,0.692-14.828,1.075
				c-5.972,0.479-12.658,0.463-18.394,2.606c-5.198-0.38-10.556,0.229-15.753,0.386c-5.592,0.174-11.184,0.279-16.779,0.353
				c-5.592,0.071-11.185,0.063-16.776,0.065c-4.759,0.002-9.885-0.598-14.674,0.03c-5.54-1.08-11.132-1.54-16.636-3.038
				c-6.438-1.756-12.544-4.572-18.626-7.357c-9.192-4.207-21.196-10.174-31.619-7.897c-0.079-0.437-0.379-0.788-0.941-0.712
				c-5.949,0.769-8.793,8.444-5.968,13.781c4.738,8.954,16.478,11.641,25.328,13.573c25,5.464,50.67,0.005,75.89,0.486
				c24.428,0.47,48.166,9.828,72.69,5.483c6.969-1.233,18.569-3.908,19.952-12.49C207.699,105.47,207.702,105.407,207.697,105.349z"
				/>
			<path opacity="0.5" fill="#F6DEBB" enable-background="new    " d="M189.418,101.893c-2.292-2.712-5.271-2.522-8.589-2.375
				c-2.946,0.134-5.886,0.329-8.827,0.553c-0.672,0.071-1.339,0.137-1.994,0.189c-0.92,0.074-1.858,0.137-2.807,0.195
				c-1.653,0.14-3.307,0.283-4.958,0.426c-1.204,0.104-2.405,0.209-3.604,0.314c-2.42,0.337-4.793,0.838-7.026,1.671
				c-5.198-0.38-10.556,0.229-15.753,0.386c-1.004,0.032-2.011,0.052-3.017,0.078c-2.436,0.28-4.833,0.707-7.108,1.498
				c-1.843-0.151-3.669-0.28-5.438-0.443c-2.772-0.253-5.549-0.492-8.323-0.73c-3.226,0.01-6.448,0.014-9.671,0.016
				c-4.758,0.002-9.884-0.598-14.673,0.03c-5.54-1.08-11.132-1.54-16.636-3.038c-3.862-1.054-7.604-2.493-11.299-4.072
				c-0.051-0.018-0.103-0.036-0.154-0.052c-0.031-0.019-0.061-0.035-0.093-0.054c-2.376-1.022-4.731-2.102-7.08-3.18
				c-4.588-2.098-9.872-4.635-15.313-6.368c-5.025-1.197-13.422-1.417-12.03,5.915c1.377,7.283,8.92,12.865,15.02,16.223
				c5.258,2.894,12.392,4.991,18.687,4.239c1.115,0.536,2.271,0.897,3.453,1.161c17.592,0.26,35.343-2.274,52.875-1.938
				c7.362,0.141,14.657,1.091,21.934,2.229c1.736-0.358,3.485-0.674,5.264-0.888c3.434-0.414,6.745,0.101,10.121,0.337
				c7.819,2.983,16.179,2.466,24.19,0.015C179.967,113.188,194.349,107.735,189.418,101.893z"/>
		</g>
		<g>
			<path fill="#7B5340" d="M145.116,114.521c0,0,0.81,0.164,2.233,0.407c1.421,0.25,3.456,0.593,5.91,0.871
				c2.446,0.288,5.331,0.59,8.375,0.406c1.51-0.104,3.088-0.379,4.676-0.652c1.59-0.287,3.199-0.625,4.8-0.998
				c3.193-0.771,6.393-1.548,9.304-2.535c1.458-0.481,2.838-1.023,4.109-1.592c1.257-0.597,2.422-1.226,3.036-2.22
				c0.633-0.98,0.825-2.099,0.842-3.073c0.01-0.982-0.147-1.845-0.316-2.539c-0.354-1.392-0.717-2.144-0.717-2.144
				s0.107,0.178,0.279,0.525c0.171,0.349,0.414,0.866,0.64,1.56c0.225,0.692,0.454,1.558,0.521,2.588
				c0.072,1.021-0.072,2.253-0.74,3.399c-0.331,0.573-0.817,1.091-1.385,1.501c-0.562,0.413-1.172,0.773-1.814,1.104
				c-1.282,0.669-2.695,1.215-4.165,1.733c-2.947,1.016-6.136,1.947-9.382,2.629c-1.62,0.353-3.248,0.668-4.86,0.935
				c-1.614,0.263-3.202,0.502-4.786,0.545c-1.572,0.048-3.081-0.041-4.502-0.174c-1.419-0.148-2.756-0.312-3.98-0.521
				C148.293,115.443,145.116,114.521,145.116,114.521z"/>
		</g>
		<g>
			<path fill="#7B5340" d="M183.438,118.645c0,0,1.632-0.472,4.006-1.381c2.373-0.896,5.505-2.255,8.305-4.153
				c0.699-0.472,1.382-0.97,2.005-1.517c0.634-0.537,1.199-1.128,1.695-1.74c0.485-0.62,0.898-1.267,1.169-1.936
				c0.146-0.33,0.264-0.66,0.331-0.993c0.103-0.325,0.124-0.653,0.156-0.966c0.043-0.625,0-1.208-0.112-1.708
				c-0.062-0.514-0.277-0.919-0.375-1.276c-0.312-0.67-0.506-1.049-0.506-1.049s0.208,0.369,0.545,1.032
				c0.11,0.354,0.342,0.757,0.424,1.273c0.133,0.502,0.2,1.096,0.158,1.736c-0.029,0.32-0.046,0.657-0.147,0.991
				c-0.064,0.342-0.182,0.681-0.324,1.021c-0.27,0.687-0.684,1.353-1.169,1.989c-0.497,0.629-1.065,1.236-1.699,1.788
				c-0.625,0.562-1.31,1.075-2.01,1.56c-2.852,1.882-6.009,3.202-8.398,4.072C185.091,118.248,183.438,118.645,183.438,118.645z"/>
		</g>
		<polygon fill="#7B5340" points="189.335,100.452 192.962,102.973 190.338,105.162 		"/>
		<polygon fill="#7B5340" points="190.079,105.893 188.609,108.976 191.147,108.976 		"/>
		<polygon fill="#7B5340" points="187.308,110.283 183.438,113.186 187.308,113.186 		"/>
		<polygon fill="#7B5340" points="181.217,113.925 176.722,115.084 179.913,116.598 		"/>
		<polygon fill="#7B5340" points="175.562,115.719 170.632,116.264 173.967,118.645 		"/>
		<polygon fill="#7B5340" points="167.299,117.183 162.564,117.183 165.979,118.645 		"/>
		<polygon fill="#7B5340" points="202.424,103.921 202.424,105.893 204.124,104.905 		"/>
		<polygon fill="#7B5340" points="202.424,107.431 201.201,108.976 203.274,108.976 		"/>
		<polygon fill="#7B5340" points="200.645,110.283 199.051,112.186 200.645,112.186 		"/>
		<polygon fill="#7B5340" points="198.106,112.619 196.079,113.925 197.746,113.925 		"/>
		<polygon fill="#7B5340" points="195.135,114.506 193.395,115.719 195.135,115.719 		"/>
		<polygon fill="#7B5340" points="191.583,116.264 189.877,117.183 191.583,116.724 		"/>
	</g>
	<g>
		<path fill="#3C2713" d="M65.399,161.824c-0.821-19.283-3.213-41.655-4.031-60.94C61.051,93.473,60.8,85.726,63.937,79
			c2.732-5.863,7.84-10.363,13.505-13.488c5.667-3.124,11.918-5.005,18.131-6.808c4.741-1.379,9.585-2.739,14.52-2.562
			c4.936,0.177,10.056,2.137,12.862,6.199c2.808,4.062,2.465,10.376-1.516,13.296c5.614-1.522,11.448-2.262,17.27-2.188
			c2.582,0.034,5.368,0.312,7.308,2.017c2.668,2.341,2.708,6.673,1.057,9.815c-1.647,3.145-4.579,5.382-7.419,7.513
			c5.04,0.217,11.06,1.053,13.205,5.618c1.084,2.312,0.82,5.007,0.532,7.546c-1.097,9.667-0.572,14.511-1.668,24.177
			c-0.323,2.866,0.899,10.68-1.115,12.739c-2.047,2.095-8.456,2.678-11.366,3.041c-24.23,3.045-46.803,11.385-71.034,14.429"/>
		<path fill="#FFFEFE" d="M17.462,302.26c0,0,28.808-84.633,103.381-84.166c74.572,0.47,101.261,84.166,101.261,84.166H17.462z"/>
		<path fill="#D1966C" d="M62.184,112.05c-1.452,13.228-1.647,29.389-0.995,43.78c0.91,20,11.396,39.726,31.098,43.308l3.239,0.59
			l-3.55,23.82l54.895-0.941l0.37-54.738c0,0,13.531,2.518,21.246-9.786c8.378-13.366,2.792-37.753-9.574-26.596
			c-14.484,13.072-17.615,12.924-17.615,12.924c-2.503-16.909,7.054-51.103-32.769-59.79C88.532,80.255,64.42,91.702,62.184,112.05z
			"/>
		<g>
			<path fill="#AB7C59" d="M151.723,154.776c0.068-0.246,1.636,0.279,4.109-0.031c2.425-0.262,5.824-1.691,7.696-4.961
				c1.508-2.518,1.831-5.584,1.128-7.512c-0.738-2.03-2.913-1.865-3.378-1.285l-0.281-0.375c0.514-0.142,0.771-0.171,0.809-0.094
				c0.032,0.077-0.164,0.25-0.613,0.534l-0.757,0.471l0.474-0.845c0.251-0.451,1.015-0.997,2.041-0.932
				c1.005-0.011,2.271,0.76,2.829,2.016c1.103,2.472,0.787,5.849-0.932,8.805c-2.167,3.788-6.273,5.29-8.938,5.259
				C153.147,155.869,151.64,154.918,151.723,154.776z"/>
		</g>
		<g>
			<path fill="#AB7C59" d="M165.95,146.193c-0.263,0.343-1.688-0.303-3.459,0.054c-1.784,0.275-2.897,1.375-3.263,1.147
				c-0.166-0.11-0.095-0.611,0.396-1.216c0.482-0.603,1.423-1.234,2.6-1.442c1.172-0.21,2.272,0.057,2.932,0.455
				C165.83,145.589,166.067,146.035,165.95,146.193z"/>
		</g>
		<path fill="#F0A67B" d="M90.166,177.376"/>
		<g>
			<path fill="#AB7C59" d="M113.358,196.877c0.205,0.356-1.157,1.456-3.225,1.728c-2.063,0.28-3.664-0.422-3.563-0.823
				c0.089-0.425,1.595-0.448,3.361-0.695C111.701,196.86,113.161,196.487,113.358,196.877z"/>
		</g>
		<path fill="#FFFFFF" d="M109.33,142.874c0,0-1.774-10.39,9.333-13.04c9.329-2.229,12.673,8.238,12.673,8.238L109.33,142.874z"/>
		<path fill="#3C2713" d="M117.587,130.135l4.105,10.044l-12.363,2.695C109.33,142.874,107.993,132.517,117.587,130.135z"/>
		<path fill="#FFFFFF" d="M68.208,139.446c0,0,2.931-10.129,14.08-7.676c9.37,2.058,7.82,12.938,7.82,12.938L68.208,139.446z"/>
		<path fill="#3C2713" d="M81.193,131.574l-0.68,10.827l-12.305-2.955C68.208,139.446,71.518,129.54,81.193,131.574z"/>
		<path fill="#3C2713" d="M60.834,151.772c0,0,2.629,63.814,41.26,64.59c38.624,0.779,45.146-48.495,45.146-48.495l4.482-30.185
			l-9.303,2.496c0,0-10.149,23.515-42.266,24.308C64.618,165.362,60.834,151.772,60.834,151.772z"/>
		<g>
			<path fill="#AB7C59" d="M100.154,161.824c0,0.139-1.601,0.319-4.318-0.063c-2.69-0.382-6.524-1.431-10.436-3.865l-1.293-0.811
				l1.469-0.464c2.803-0.892,5.783-1.839,8.911-2.83c0.799-0.25,1.592-0.496,2.375-0.737c0.35-0.142,0.337-0.162,0.359-0.234
				c0.038-0.121-0.027-0.543-0.087-0.938c-0.229-1.571-0.492-3.081-0.768-4.514c-0.562-2.863-1.187-5.421-1.764-7.557
				c-1.166-4.269-2.076-6.87-1.861-6.956c0.179-0.071,1.452,2.396,2.897,6.639c0.722,2.122,1.465,4.689,2.11,7.586
				c0.318,1.447,0.614,2.979,0.871,4.572c0.04,0.393,0.19,0.779,0.085,1.466c-0.11,0.776-0.918,1.271-1.337,1.374
				c-0.799,0.252-1.606,0.506-2.427,0.763c-3.137,0.955-6.133,1.867-8.945,2.722l0.175-1.273
				C93.592,161.531,100.269,161.401,100.154,161.824z"/>
		</g>
		<g>
			<path fill="#3C2713" d="M132.499,123.527c-0.757,1.988-5.533,2.01-10.804,0.467c-5.266-1.555-9.271-4.163-8.83-6.244
				c0.435-2.062,5.41-2.764,10.998-1.116C129.447,118.273,133.25,121.557,132.499,123.527z"/>
		</g>
		<g>
			<path fill="#3C2713" d="M66.992,123.527c0.756,1.988,5.533,2.01,10.803,0.467c5.267-1.555,9.271-4.163,8.829-6.244
				c-0.434-2.062-5.409-2.764-10.997-1.116C70.042,118.273,66.239,121.557,66.992,123.527z"/>
		</g>
		<path fill="#FFFFFF" d="M90.166,173.392c4.954,1.937,10.524,2.264,15.67,0.92c5.146-1.345,9.849-4.351,13.225-8.461"/>
		<g>
			<path fill="#3C2713" d="M76.745,195.54c0.27,0.327-1.188,1.96-3.255,3.648c-2.068,1.691-3.958,2.795-4.228,2.467
				c-0.266-0.327,1.188-1.963,3.258-3.652C74.586,196.313,76.478,195.213,76.745,195.54z"/>
		</g>
		<g>
			<path fill="#3C2713" d="M77.337,199.469c0.339,0.255-0.319,1.701-1.467,3.235c-1.148,1.531-2.354,2.568-2.696,2.314
				c-0.34-0.256,0.319-1.703,1.472-3.236C75.792,200.251,76.998,199.215,77.337,199.469z"/>
		</g>
		<g>
			<path fill="#3C2713" d="M146.953,180.384c-0.194,0.377-1.66,0.004-3.273-0.836c-1.609-0.837-2.759-1.818-2.565-2.195
				c0.196-0.375,1.663-0.002,3.274,0.836C145.999,179.024,147.149,180.006,146.953,180.384z"/>
		</g>
		<g>
			<path fill="#3C2713" d="M150.594,179.485c-0.169,0.375-2.334-0.27-4.492-1.948c-2.168-1.669-3.338-3.599-3.021-3.858
				c0.333-0.279,1.933,1.092,3.957,2.646C149.05,177.892,150.783,179.094,150.594,179.485z"/>
		</g>
		<g>
			<path fill="#3C2713" d="M135.567,63.755c0.063,0.062-0.208,0.561-1.028,1.195c-0.412,0.288-0.988,0.689-1.891,0.642
				c-0.926-0.008-1.851-1.066-1.724-2.187c0.019-1.142,1.014-2.186,2.09-2.575c1.067-0.438,2.34-0.567,3.606-0.288
				c1.242,0.265,2.649,1.013,3.308,2.495c0.654,1.491,0.151,3.199-0.64,4.381c-3.408,4.602-8.147,6.722-11.579,7.602
				c-3.483,0.86-5.721,0.521-5.707,0.362c-0.014-0.262,2.166-0.32,5.404-1.403c3.155-1.049,7.612-3.354,10.587-7.386
				c0.655-1.004,0.919-2.096,0.55-2.973c-0.354-0.865-1.277-1.466-2.248-1.703c-1.911-0.513-4.196,0.262-4.289,1.581
				c-0.102,0.659,0.268,1.15,0.761,1.245c0.497,0.103,1.057-0.106,1.46-0.304C135.055,64.021,135.485,63.667,135.567,63.755z"/>
		</g>
		<g>
			<path fill="#3C2713" d="M50.389,100.316c0.082-0.086,0.468,0.374,1.26,0.172c0.383-0.105,0.758-0.379,0.871-0.88
				c0.123-0.486-0.027-1.16-0.49-1.602c-0.826-0.914-3.425-1.179-3.988,0.334c-0.298,0.732-0.127,1.819,0.395,2.659
				c0.542,0.871,1.428,1.596,2.468,2.045c2.114,0.902,4.56,0.695,6.42-0.072c1.915-0.794,3.396-2.083,4.541-3.229
				c2.258-2.365,3.421-4.123,3.627-3.979c0.145,0.09-0.666,2.029-2.824,4.709c-1.102,1.301-2.614,2.802-4.776,3.794
				c-2.16,0.969-4.963,1.29-7.595,0.185c-1.296-0.562-2.437-1.484-3.148-2.677c-0.69-1.211-0.963-2.657-0.405-3.994
				c0.59-1.406,2.165-1.897,3.241-1.791c1.122,0.067,2.176,0.504,2.85,1.287c0.682,0.798,0.796,1.829,0.502,2.598
				c-0.287,0.807-1.067,1.194-1.597,1.201C50.562,101.114,50.28,100.305,50.389,100.316z"/>
		</g>
		<g>
			<path fill="#583B23" d="M98.95,184.849c-0.03-0.093,1.011-0.609,3.011-1.273c1.993-0.613,5.026-1.498,8.896-1.102
				c1.914,0.209,4.036,0.862,5.943,2.166c1.898,1.277,3.691,3.252,4.392,5.871c0.753,2.612,0.053,5.641-1.666,7.942
				c-1.684,2.354-4.506,3.974-7.502,4.362c-3.011,0.402-5.995-0.184-8.531-1.506c-2.489-1.267-4.699-3.832-4.464-6.771
				c0.234-2.854,2.223-4.949,4.325-5.979c2.172-1.045,4.579-0.983,6.423-0.07c1.888,0.921,2.875,2.84,2.849,4.465
				c0.029,1.688-1.09,2.965-2.123,3.37c-1.037,0.47-1.975,0.372-2.508,0.155c-0.545-0.223-0.741-0.474-0.715-0.502
				c0.011-0.154,1.164,0.768,2.955-0.186c0.851-0.445,1.623-1.473,1.534-2.822c-0.059-1.318-0.918-2.828-2.463-3.506
				c-1.519-0.693-3.619-0.688-5.385,0.234c-1.76,0.896-3.361,2.759-3.478,4.927c-0.158,2.172,1.532,4.229,3.758,5.358
				c2.225,1.146,4.961,1.672,7.607,1.311c5.396-0.538,9.272-5.986,8.013-10.428c-0.545-2.203-2.06-3.989-3.744-5.184
				c-1.705-1.226-3.587-1.877-5.363-2.135c-3.592-0.513-6.587,0.164-8.593,0.602C100.103,184.626,98.986,184.957,98.95,184.849z"/>
		</g>
		<g>
			<path fill="#583B23" d="M104.145,63.946c-0.026-0.025,0.119-0.274,0.617-0.448c0.481-0.154,1.348-0.14,2.139,0.508
				c0.844,0.61,1.207,2.124,0.583,3.42c-0.559,1.347-2.078,2.349-3.73,2.683c-1.658,0.351-3.48,0.408-5.428,0.134
				c-1.892-0.365-4.058-0.688-5.868-2.484c-0.894-0.912-1.239-2.455-0.841-3.706c0.342-1.273,1.243-2.347,2.269-3.072
				c2.094-1.394,4.353-2.233,6.848-2.831c2.48-0.552,5.079-0.575,7.448,0.154c2.354,0.756,4.376,2.219,5.677,4.107
				c1.326,1.869,1.796,4.219,1.405,6.211c-0.365,2.005-1.316,3.66-2.365,4.949c-2.181,2.576-4.599,3.796-6.171,4.641
				c-1.614,0.81-2.541,1.169-2.59,1.079c-0.056-0.099,0.785-0.638,2.289-1.597c1.466-0.983,3.734-2.346,5.612-4.793
				c0.918-1.222,1.708-2.754,1.964-4.481c0.281-1.725-0.146-3.61-1.301-5.194c-1.132-1.59-2.925-2.853-4.965-3.485
				c-2.061-0.615-4.392-0.604-6.675-0.091c-2.254,0.52-4.553,1.396-6.297,2.553c-1.734,1.112-2.473,3.357-1.252,4.622
				c1.199,1.298,3.282,1.816,5.012,2.161c1.775,0.311,3.521,0.313,5.01,0.06c1.484-0.249,2.664-0.971,3.174-1.992
				c0.544-1.002,0.371-2.075-0.208-2.604C105.235,63.275,104.127,64.067,104.145,63.946z"/>
		</g>
		<path fill="#D1966C" d="M92.287,221.666c0,0,20.389,24.662,21.094,33.177c1.398,16.879,33.696-33.576,33.696-33.576
			L92.287,221.666z"/>
		<g>
			<path fill="#583B23" d="M113.286,245.015c-0.013-0.035,0.422-0.255,1.264-0.535c0.84-0.256,2.113-0.627,3.738-0.463
				c0.807,0.09,1.696,0.362,2.498,0.91c0.799,0.538,1.551,1.367,1.844,2.469c0.319,1.1,0.024,2.371-0.696,3.338
				c-0.708,0.99-1.896,1.67-3.153,1.834c-1.265,0.17-2.519-0.077-3.585-0.633c-1.045-0.533-1.974-1.61-1.875-2.845
				c0.098-1.198,0.933-2.081,1.816-2.513c0.912-0.439,1.924-0.415,2.699-0.032c0.793,0.388,1.208,1.196,1.196,1.877
				c0.012,0.711-0.457,1.246-0.891,1.418c-0.438,0.196-0.831,0.156-1.053,0.063c-0.229-0.092-0.313-0.197-0.303-0.211
				c0.005-0.064,0.489,0.324,1.244-0.077c0.356-0.188,0.68-0.62,0.643-1.188c-0.025-0.553-0.386-1.188-1.033-1.47
				c-0.64-0.291-1.521-0.288-2.263,0.097c-0.739,0.379-1.416,1.16-1.461,2.07c-0.067,0.914,0.644,1.777,1.578,2.253
				c0.935,0.479,2.085,0.702,3.197,0.548c2.267-0.224,3.896-2.514,3.368-4.381c-0.229-0.926-0.866-1.675-1.574-2.178
				c-0.715-0.516-1.507-0.787-2.25-0.898c-1.513-0.213-2.773,0.071-3.615,0.254C113.771,244.923,113.3,245.062,113.286,245.015z"/>
		</g>
		<g>
			<path fill="#979696" d="M113.286,258.24c-0.762-1.871-1.634-3.697-2.688-5.405c-1.064-1.682-2.253-3.357-3.865-4.443
				c-0.397-0.271-0.829-0.479-1.271-0.625c-0.44-0.16-0.888-0.182-1.411-0.224c-0.5-0.021-0.953-0.028-1.448,0.013
				c-0.487,0.019-0.972,0.09-1.453,0.17c-0.962,0.17-1.907,0.451-2.817,0.818c-0.901,0.367-1.806,0.818-2.589,1.342l-0.638,0.426
				l-0.112-0.756c-0.321-2.158-0.59-4.322-0.863-6.486l-0.817-6.494l-0.724-6.506l-0.319-3.258
				c-0.108-1.088-0.208-2.174-0.294-3.264c0.206,1.073,0.396,2.146,0.58,3.225L93.109,230l1.023,6.465l0.93,6.479
				c0.309,2.158,0.623,4.318,0.884,6.483l-0.75-0.329c0.907-0.586,1.83-1.022,2.802-1.404c0.968-0.375,1.976-0.657,3.005-0.824
				c0.516-0.079,1.034-0.146,1.558-0.16c0.512-0.035,1.071,0.009,1.577,0.055c0.479,0.061,1.052,0.113,1.56,0.319
				c0.51,0.188,0.988,0.444,1.414,0.759c0.863,0.616,1.568,1.393,2.195,2.204c0.626,0.815,1.168,1.687,1.644,2.587
				C111.906,254.429,112.695,256.306,113.286,258.24z"/>
		</g>
		<g>
			<path fill="#979696" d="M118.021,260.176c1.317-2.534,2.829-4.973,4.55-7.269c0.869-1.141,1.789-2.254,2.857-3.236
				c0.533-0.49,1.101-0.954,1.729-1.344c0.626-0.387,1.318-0.719,2.092-0.828c0.769-0.122,1.618,0.061,2.267,0.516l0.871,0.648
				c0.282,0.225,0.557,0.48,0.835,0.72c0.536,0.499,1.052,1.009,1.528,1.556c0.492,0.531,0.941,1.101,1.389,1.668
				c0.889,1.141,1.681,2.35,2.429,3.58c0.747,1.233,1.437,2.488,2.072,3.801l-0.854,0.107l1.687-9.39l1.764-9.374l0.861-4.686
				c0.278-1.565,0.604-3.123,0.904-4.685l0.924-4.679c0.313-1.559,0.607-3.12,0.946-4.678c-0.159,1.584-0.36,3.162-0.548,4.744
				c-0.171,1.586-0.448,3.149-0.668,4.727c-0.239,1.572-0.453,3.148-0.714,4.717c-0.255,1.564-0.512,3.145-0.802,4.706l-1.693,9.387
				l-1.771,9.371l-0.256,1.354l-0.598-1.246c-1.214-2.533-2.664-5-4.338-7.264c-0.422-0.563-0.847-1.129-1.313-1.654
				c-0.448-0.541-0.94-1.049-1.437-1.531c-0.258-0.23-0.499-0.473-0.771-0.697l-0.831-0.65c-0.519-0.377-1.156-0.533-1.804-0.45
				c-0.646,0.073-1.284,0.352-1.876,0.698c-0.593,0.351-1.148,0.78-1.676,1.242c-1.053,0.932-2.016,1.979-2.915,3.078
				C121.068,255.343,119.481,257.724,118.021,260.176z"/>
		</g>
	</g>
	<g>
		<path fill="#F7E2C0" d="M155.335,101.451c-0.854,0.196-1.709,0.399-2.563,0.604c1.918-12.735-1.7-26.481-8.196-37.816
			c-3.121-5.438-7.298-10.806-13.085-12.164c-5.538-1.301-10.781-1.193-16.094-2.129c-7.743-1.364-11.122,0.08-18.141-1.184
			c-6.779-1.217-12.283,2.938-17.062,7.543c-10.202,9.832-19.96,23.132-22.977,37.279c-0.032,0.155-0.027,0.299-0.01,0.437
			c-0.274,0.194-0.28,0.672,0.123,0.965c7.644,5.535,17.177,8.551,25.13,11.848c7.975,3.298,15.837,5.373,23.917,6.077
			c16.361,1.426,34.098-2.913,49.372-8.635C157.376,103.664,157.025,101.063,155.335,101.451z"/>
		<path fill="#7B5340" d="M106.336,100.585c-9.362-0.173-18.854-2.191-27.988-4.202c-5.251-1.156-15.292-4.308-20.297-6.091
			c-2.768,5.01-0.289,1.231-0.833,3.293c-0.041,0.153-0.027,0.299-0.01,0.437c-0.274,0.194-0.28,0.672,0.123,0.965
			c7.644,5.535,17.177,8.551,25.13,11.848c3.203,1.323,6.388,2.44,9.574,3.362c1.766,0.021,3.523,0.014,5.264-0.026
			c8.864-0.198,17.714-1.191,26.54-1.974c8.32-0.741,17.064-0.81,25.134-3.148c2.614-0.758,4.957-1.999,6.985-3.593
			c-0.182-0.049-0.388-0.059-0.623-0.004c-0.854,0.196-1.827,4.221-2.68,4.427c0.755-5.016,0.771,1.343,0.624-8.263
			C138.846,102.167,121.57,100.87,106.336,100.585z"/>
		<path opacity="0.5" fill="#F6DEBB" enable-background="new    " d="M155.335,101.451c-0.854,0.196-1.709,0.399-2.563,0.604
			c1.918-12.735-1.7-26.481-8.196-37.816c-3.121-5.438-7.298-10.806-13.085-12.164c-5.538-1.301-10.701-2.196-16.094-2.129
			c-7.078,0.089-11.122,0.08-18.141-1.184c-6.779-1.217-12.283,2.938-17.062,7.543c-10.202,9.832-19.96,23.132-22.977,37.279
			c-0.032,0.155-0.027,0.299-0.01,0.437c-0.274,0.194-0.28,0.672,0.123,0.965c7.644,5.535,17.177,8.551,25.13,11.848
			c7.975,3.298,15.837,5.373,23.917,6.077c16.361,1.426,34.098-2.913,49.372-8.635C157.376,103.664,157.025,101.063,155.335,101.451
			z"/>
		<path fill="#F7E2C0" d="M206.91,103.026c-4.427-3.925-9.564-5.921-14.968-6.597c-5.039-0.85-10.405-0.603-15.28-0.284
			c-8.022,0.523-15.989,1.985-23.929,3.214c-16.064,2.486-32.145,3.224-48.338,1.852c-15.954-1.354-31.675-4.994-46.849-10.257
			c-12.324-4.273-27.425-10.897-40.418-5.703c-0.379,0.297-0.789,0.641-1.214,0.925c-0.943,0.783-1.747,1.879-2.336,3.394
			c-0.355,0.914,0.921,1.269,1.396,0.616c3.984-5.48,10.63-1.734,15.172,0.436c3.863,1.847,7.659,3.856,11.426,5.916
			c7.08,3.866,14.042,7.967,21.142,11.802c14.215,7.672,29.119,13.452,45.235,14.188c17.216,0.79,32.542-5.425,47.811-12.96
			c15.896-7.846,33.323-14.167,50.12-5.142C206.698,104.866,207.681,103.713,206.91,103.026z"/>
		<path opacity="0.5" fill="#F6DEBB" enable-background="new    " d="M191.942,96.43c-5.039-0.85-10.405-0.603-15.28-0.284
			c-8.022,0.523-15.989,1.985-23.929,3.214c-16.064,2.486-32.145,3.224-48.338,1.852c-15.954-1.354-31.675-4.994-46.849-10.257
			c-11.79-4.09-26.123-10.319-38.717-6.305c9.319,0.452,17.559,2.474,26.067,6.655c8.333,4.096,16.007,9.432,24.198,13.797
			c15.52,8.271,34.101,12.43,51.667,11.223c1.14-0.079,1.912-1.824,0.646-2.387c-3.872-1.713-7.788-3.39-11.735-5.005
			c12.217,0.568,25.007-2.211,36.35-4.905c12.064-2.864,24.077-6.051,36.523-6.597c7.034-0.31,13.549,0.56,19.879,2.406
			C199.142,97.974,195.606,96.889,191.942,96.43z"/>
	</g>
	<g>
		<path fill="#7B5340" d="M152.867,92.773c0,0-1.446,0.126-3.983,0.258c-1.268,0.08-2.81,0.13-4.576,0.211
			c-1.77,0.042-3.764,0.136-5.941,0.142c-2.178,0.031-4.537,0.046-7.032,0.014c-2.496,0.005-5.125-0.093-7.847-0.157
			c-2.721-0.088-5.531-0.236-8.385-0.381c-2.851-0.221-5.752-0.357-8.643-0.652c-2.889-0.299-5.784-0.538-8.614-0.942
			c-2.837-0.361-5.629-0.71-8.311-1.185c-2.688-0.431-5.288-0.844-7.728-1.374c-2.442-0.515-4.772-0.902-6.877-1.468
			c-2.114-0.524-4.052-1.004-5.77-1.431c-1.704-0.476-3.173-0.947-4.392-1.307c-2.433-0.733-3.821-1.153-3.821-1.153
			s1.394,0.404,3.833,1.113c1.221,0.347,2.695,0.802,4.403,1.26c1.72,0.413,3.66,0.879,5.775,1.387
			c2.105,0.558,4.437,0.936,6.877,1.441c2.439,0.521,5.039,0.925,7.727,1.345c2.682,0.465,5.473,0.803,8.308,1.153
			c2.83,0.395,5.725,0.621,8.611,0.911c2.886,0.306,5.785,0.453,8.632,0.684c2.852,0.154,5.66,0.313,8.378,0.411
			c2.72,0.074,5.348,0.181,7.842,0.185c2.494,0.041,4.853,0.036,7.029,0.012c2.177-0.003,4.171-0.074,5.94-0.096
			c1.767-0.063,3.31-0.097,4.577-0.163C151.419,92.885,152.867,92.773,152.867,92.773z"/>
	</g>
	<g>
		<path fill="#7B5340" d="M151.39,80.867c0,0-1.319,0.212-3.643,0.48c-1.16,0.152-2.574,0.279-4.192,0.456
			c-1.623,0.135-3.451,0.328-5.452,0.444c-2,0.135-4.167,0.271-6.463,0.35c-2.294,0.122-4.717,0.145-7.223,0.193
			c-2.505,0.042-5.095-0.02-7.726-0.035c-2.628-0.119-5.304-0.154-7.97-0.346c-2.664-0.221-5.337-0.342-7.948-0.684
			c-2.615-0.295-5.192-0.553-7.663-0.983c-2.478-0.385-4.875-0.729-7.118-1.238c-1.125-0.231-2.219-0.456-3.278-0.674
			c-0.528-0.111-1.049-0.22-1.559-0.327c-0.504-0.133-0.999-0.264-1.484-0.391c-1.938-0.515-3.713-0.986-5.288-1.404
			c-1.558-0.473-2.895-0.958-4.006-1.32c-2.216-0.744-3.481-1.17-3.481-1.17s1.271,0.411,3.496,1.13
			c1.114,0.349,2.456,0.819,4.018,1.273c1.576,0.404,3.354,0.861,5.295,1.36c0.484,0.125,0.979,0.254,1.483,0.385
			c0.51,0.104,1.029,0.212,1.559,0.32c1.06,0.213,2.153,0.434,3.278,0.66c2.241,0.5,4.639,0.835,7.114,1.209
			c2.469,0.421,5.045,0.667,7.657,0.952c2.608,0.331,5.28,0.44,7.941,0.652c2.663,0.202,5.334,0.247,7.96,0.377
			c2.628,0.025,5.215,0.098,7.719,0.064c2.504-0.038,4.925-0.052,7.218-0.164c2.295-0.07,4.462-0.197,6.461-0.324
			c2-0.114,3.828-0.284,5.452-0.399c1.62-0.158,3.035-0.27,4.196-0.408C150.068,81.063,151.39,80.867,151.39,80.867z"/>
	</g>
	<g>
		<path fill="#7B5340" d="M148.593,71.298c0,0-4.756,0.35-11.905,0.432c-3.574,0.028-7.746,0.027-12.213-0.119
			c-2.235-0.038-4.54-0.185-6.885-0.279c-2.343-0.13-4.721-0.301-7.098-0.47c-2.372-0.242-4.75-0.426-7.078-0.714
			c-2.326-0.313-4.628-0.525-6.831-0.905c-2.203-0.373-4.352-0.627-6.354-1.061c-2.007-0.41-3.918-0.732-5.657-1.147
			c-1.737-0.426-3.329-0.815-4.739-1.161c-1.41-0.348-2.607-0.768-3.609-1.054c-1.996-0.604-3.137-0.95-3.137-0.95
			s1.146,0.331,3.147,0.91c1.006,0.272,2.207,0.678,3.621,1.007c1.413,0.332,3.006,0.707,4.745,1.116
			c1.738,0.407,3.65,0.721,5.656,1.122c2.003,0.424,4.151,0.668,6.354,1.031c2.203,0.37,4.504,0.571,6.828,0.874
			c2.328,0.278,4.704,0.449,7.074,0.683c2.375,0.18,4.75,0.36,7.09,0.501c2.342,0.104,4.645,0.262,6.878,0.31
			c4.463,0.165,8.633,0.186,12.206,0.172c3.572-0.028,6.551-0.078,8.634-0.157C147.404,71.371,148.593,71.298,148.593,71.298z"/>
	</g>
	<g>
		<path fill="#7B5340" d="M145.116,65.208c0,0-3.984-0.582-9.959-1.454c-5.975-0.876-13.946-2.008-21.931-3.038
			c-3.99-0.536-7.983-1.041-11.731-1.485c-3.747-0.44-7.251-0.798-10.257-1.07c-1.505-0.116-2.884-0.223-4.107-0.316
			c-1.225-0.055-2.292-0.103-3.172-0.142c-0.88-0.015-1.57,0.022-2.043,0.025c-0.472,0.01-0.724,0.015-0.724,0.015
			s0.251-0.009,0.723-0.025c0.473-0.01,1.163-0.059,2.044-0.057c0.88,0.025,1.95,0.058,3.178,0.094
			c1.224,0.081,2.605,0.172,4.112,0.272c3.009,0.256,6.518,0.596,10.269,1.017c3.751,0.426,7.749,0.908,11.741,1.426
			c7.981,1.071,15.948,2.245,21.92,3.152C141.146,64.54,145.116,65.208,145.116,65.208z"/>
	</g>
	<path fill="#7B5340" d="M112.833,93.929c1.487,0.235,0,6.013,0,6.013S96.4,99.787,93.356,98.266
		c-3.046-1.523,1.086-6.526,1.086-6.526S109.143,93.347,112.833,93.929z"/>
	<path fill="#7B5340" d="M115.309,83.696c0,0,2.414,6.487-0.32,6.938c-2.73,0.454-18.63-0.022-20.153-2.068
		c-1.521-2.045-2.153-4.995,1.543-5.302C100.076,82.959,115.309,83.696,115.309,83.696z"/>
	<path fill="#7B5340" d="M116.657,73.038c0,0,1.688,5.713-1.26,7.493c-2.949,1.776-17.69,0.257-19.648-1.225
		c-1.958-1.486-0.437-8.118,1.521-7.63C99.228,72.166,112.756,71.677,116.657,73.038z"/>
	<path fill="#7B5340" d="M115.479,62.598c0,0,5.991,7.396,1.178,7.396c-4.816,0-19.387-0.74-19.17-2.221
		c0.219-1.478-3.479-6.701,1.463-7.528C103.888,59.414,113.462,61.944,115.479,62.598z"/>
	<path fill="#7B5340" d="M151.723,93.929v2.734c0,0-9.868,2.906-10.628,2.253c-0.764-0.65-0.864-4.987-0.864-4.987
		S150.283,92.858,151.723,93.929z"/>
	<path fill="#7B5340" d="M150.608,82.72l0.782,7.572c0,0-7.914,2.1-10.356,1.447c-2.444-0.65-1.772-8.039-0.804-8.043
		C141.201,83.693,150.608,82.72,150.608,82.72z"/>
	<path fill="#7B5340" d="M148.593,79.307c0,0-7.827,3.52-9.239,1.561c-1.413-1.958-3.153-7.612-1.198-7.612
		c1.958,0,8.81-1.632,9.354-0.869C148.052,73.146,150.197,78.647,148.593,79.307z"/>
	<path fill="#7B5340" d="M144.354,66.244c0,0,2.501,2.986,2.065,3.749c-0.436,0.759-8.818,1.305-9.138,0.434
		c-0.322-0.87,0-5.393,0-5.393S142.832,65.432,144.354,66.244z"/>
	<path fill="#7B5340" d="M61.189,84.685c0,0,3.462,0.671,5.708,1.616c2.246,0.945,1.667,5.691,0,5.565
		c-1.669-0.127-7.467-2.303-7.467-2.303S59.327,86.327,61.189,84.685z"/>
	<path fill="#7B5340" d="M65.896,75.581c0,0-4.565,5.621-3.34,7.139c1.223,1.518,7.745,1.965,7.745,1.965s4.643-3.973,2.176-6.216
		C70.012,76.226,65.896,75.581,65.896,75.581z"/>
	<path fill="#7B5340" d="M73.2,65.208c0,0-6.22,6.207-4.993,7.454c1.228,1.244,8.57,2.919,8.57,2.919s4.663-5.335,2.43-7.058
		C76.971,66.803,73.2,65.208,73.2,65.208z"/>
	<path fill="#7B5340" d="M79.811,57.742c0,0-5.354,4.854-5.111,4.999c0.243,0.147,7.491,3.57,8.218,2.293
		c0.726-1.277,4.058-3.997,1.882-4.957C82.625,59.118,79.811,57.742,79.811,57.742z"/>
	<path fill="none" stroke="#7B5340" stroke-miterlimit="10" d="M24.873,88.913"/>
	<g>
		<g>
			<path fill="#7B5340" d="M27.426,88.566c0,0-0.444,0.678-0.782,2.011c-0.158,0.665-0.288,1.494-0.221,2.438
				c0.011,0.95,0.316,1.982,0.697,3.066c0.482,1.052,1.104,2.149,1.98,3.155c0.442,0.497,0.863,1.035,1.407,1.485
				c0.527,0.462,1.012,0.991,1.615,1.411c0.59,0.431,1.144,0.93,1.787,1.325c0.636,0.406,1.279,0.816,1.927,1.231
				c1.373,0.724,2.768,1.458,4.161,2.193c1.372,0.815,2.843,1.332,4.246,1.981c0.708,0.305,1.404,0.624,2.105,0.91
				c0.716,0.253,1.424,0.502,2.12,0.746c1.394,0.486,2.727,1.002,4.035,1.353c1.303,0.37,2.518,0.792,3.677,1.034
				c1.153,0.255,2.199,0.562,3.145,0.744c0.944,0.186,1.766,0.367,2.448,0.482c0.684,0.113,1.22,0.202,1.586,0.263
				c0.368,0.051,0.563,0.077,0.563,0.077s-0.792-0.02-2.177-0.146c-0.69-0.066-1.524-0.19-2.487-0.309
				c-0.963-0.113-2.03-0.344-3.203-0.562c-1.181-0.193-2.419-0.564-3.75-0.881c-1.339-0.298-2.71-0.746-4.122-1.234
				c-0.708-0.238-1.429-0.48-2.156-0.725c-0.717-0.281-1.433-0.597-2.161-0.898c-1.435-0.638-2.975-1.162-4.341-1.954
				c-1.397-0.763-2.793-1.525-4.168-2.275c-0.66-0.435-1.313-0.866-1.96-1.292c-0.653-0.415-1.224-0.939-1.824-1.394
				c-0.609-0.444-1.124-0.991-1.642-1.501c-0.54-0.49-0.962-1.075-1.401-1.614c-0.868-1.09-1.478-2.276-1.934-3.404
				c-0.369-1.162-0.605-2.271-0.544-3.262c0-0.987,0.194-1.832,0.403-2.498c0.215-0.669,0.471-1.158,0.659-1.479
				C27.303,88.722,27.426,88.566,27.426,88.566z"/>
		</g>
		<g>
			<path fill="#7B5340" d="M39.17,112.05c0,0-2.104-0.744-5.185-2.051c-3.063-1.338-7.151-3.169-10.906-5.615
				c-0.933-0.615-1.831-1.294-2.638-2.052c-0.79-0.754-1.547-1.63-1.804-2.683c-0.308-0.998-0.589-1.97-0.798-2.909
				c-0.243-0.931-0.387-1.827-0.563-2.646c-0.134-0.826-0.281-1.579-0.36-2.255c-0.092-0.674-0.167-1.262-0.217-1.747
				c-0.109-0.97-0.148-1.526-0.148-1.526s0.057,0.555,0.193,1.521c0.125,0.967,0.372,2.339,0.669,3.981
				c0.185,0.814,0.336,1.709,0.588,2.63c0.216,0.93,0.508,1.896,0.825,2.894c0.255,1.004,0.984,1.834,1.771,2.573
				c0.798,0.741,1.699,1.392,2.615,2.019c3.707,2.463,7.778,4.332,10.823,5.694C37.091,111.239,39.17,112.05,39.17,112.05z"/>
		</g>
		<polygon fill="#7B5340" points="24.873,88.913 24.197,90.635 23.328,89.274 		"/>
		<polygon fill="#7B5340" points="24.099,91.869 24.099,93.347 22.603,92.608 24.099,91.161 		"/>
		<polygon fill="#7B5340" points="24.099,94.205 24.481,96.016 23.036,95.11 		"/>
		<polygon fill="#7B5340" points="24.873,96.887 25.576,98.266 24.099,97.901 		"/>
		<polygon fill="#7B5340" points="26.227,99.134 27.315,100.452 25.576,100.874 		"/>
		<polygon fill="#7B5340" points="28.402,101.926 30.794,103.7 28.402,103.7 		"/>
		<polygon fill="#7B5340" points="31.665,104.716 34.273,106.456 32.027,106.456 		"/>
		<polygon fill="#7B5340" points="36.014,107.18 38.754,108.344 36.883,108.976 		"/>
		<polygon fill="#7B5340" points="40.382,109.257 43.333,110.668 41.232,110.668 		"/>
		<polygon fill="#7B5340" points="45.665,111.567 47.965,112.288 46.444,112.691 		"/>
		<polygon fill="#7B5340" points="16.007,89.772 16.223,91.869 15.354,91.161 		"/>
		<polygon fill="#7B5340" points="16.552,92.61 16.948,94.205 15.354,93.409 		"/>
		<polygon fill="#7B5340" points="16.948,95.11 17.528,97.179 15.789,96.452 		"/>
		<polygon fill="#7B5340" points="17.528,98.266 18.326,100.25 16.948,99.643 		"/>
		<polygon fill="#7B5340" points="18.83,101.281 20.283,102.813 18.83,102.973 		"/>
		<polygon fill="#7B5340" points="21.081,103.7 23.036,105.151 21.371,105.151 		"/>
		<polygon fill="#7B5340" points="24.099,105.585 26.879,107.18 24.838,107.18 		"/>
		<polygon fill="#7B5340" points="27.861,107.76 30.431,108.976 27.861,108.976 		"/>
		<polygon fill="#7B5340" points="32.171,109.573 33.622,110.207 32.171,110.379 		"/>
	</g>
	<g>
		<path fill="#7B5340" d="M204.712,101.281c0,0-0.696-0.315-2.064-0.734c-1.376-0.386-3.415-0.902-6.063-1.253
			c-2.646-0.334-5.884-0.625-9.603-0.552c-3.72-0.019-7.904,0.369-12.444,0.925c-4.522,0.685-9.407,1.563-14.482,2.878
			c-2.538,0.657-5.153,1.303-7.771,2.158c-1.315,0.404-2.645,0.813-3.988,1.226c-1.343,0.413-2.666,0.927-4.017,1.392
			c-2.692,0.956-5.438,1.934-8.225,2.877c-1.394,0.478-2.794,0.957-4.202,1.44c-1.409,0.479-2.876,0.806-4.321,1.218
			c-1.455,0.379-2.902,0.818-4.378,1.151c-1.486,0.29-2.978,0.58-4.47,0.871c-0.748,0.14-1.492,0.305-2.244,0.423l-2.273,0.263
			c-1.518,0.153-3.031,0.401-4.556,0.478c-6.102,0.401-12.26-0.046-18.122-1.4c-5.869-1.352-11.37-3.699-16.369-6.477
			c-2.52-1.354-4.934-2.813-7.451-3.913c-1.249-0.562-2.55-1.006-3.745-1.629c-1.215-0.592-2.354-1.278-3.484-1.945
			c-4.447-2.784-8.517-5.628-12.536-7.821c-4.003-2.209-7.848-3.934-11.393-5.062c-0.867-0.335-1.75-0.53-2.58-0.779
			c-0.84-0.222-1.635-0.494-2.424-0.65c-1.578-0.31-3.011-0.687-4.334-0.863c-1.321-0.187-2.501-0.353-3.527-0.497
			c-1.034-0.077-1.914-0.144-2.626-0.196c-1.428-0.103-2.188-0.157-2.188-0.157s0.762,0.053,2.188,0.151
			c0.713,0.052,1.593,0.115,2.627,0.189c1.026,0.143,2.208,0.306,3.53,0.488c1.324,0.174,2.76,0.547,4.339,0.854
			c0.79,0.154,1.586,0.424,2.426,0.644c0.833,0.247,1.715,0.44,2.585,0.773c3.549,1.121,7.401,2.837,11.415,5.038
			c4.028,2.185,8.109,5.021,12.559,7.79c1.129,0.663,2.271,1.346,3.478,1.93c1.193,0.619,2.483,1.055,3.746,1.618
			c2.533,1.1,4.951,2.555,7.473,3.899c5.001,2.761,10.488,5.086,16.339,6.418c5.844,1.335,11.98,1.762,18.06,1.35
			c1.521-0.072,3.029-0.315,4.543-0.464l2.269-0.257c0.75-0.115,1.494-0.278,2.24-0.416c1.49-0.286,2.979-0.572,4.462-0.857
			c1.473-0.328,2.917-0.763,4.369-1.137c1.442-0.408,2.904-0.729,4.314-1.205c1.409-0.479,2.813-0.956,4.205-1.43
			c2.792-0.937,5.53-1.903,8.231-2.854c1.354-0.462,2.679-0.974,4.023-1.383c1.346-0.409,2.676-0.814,3.994-1.216
			c2.622-0.851,5.241-1.489,7.782-2.14c5.083-1.303,9.974-2.17,14.501-2.844c4.544-0.545,8.731-0.921,12.454-0.894
			c3.72-0.064,6.96,0.235,9.605,0.576c2.648,0.358,4.688,0.88,6.063,1.269C204.017,100.964,204.712,101.281,204.712,101.281z"/>
	</g>
	<g>
		<path fill="#7B5340" d="M35.365,84.104c0,0,0.607,0.18,1.746,0.518c0.57,0.166,1.273,0.369,2.083,0.668
			c0.811,0.29,1.757,0.591,2.779,1.024c2.076,0.788,4.52,1.94,7.255,3.388c2.732,1.452,5.71,3.285,8.9,5.349
			c3.21,2.039,6.625,4.32,10.727,5.777c1.013,0.386,2.012,0.895,3.022,1.413c1.012,0.512,1.987,1.066,3,1.606
			c2.009,1.086,4.056,2.194,6.191,3.199c4.269,2,8.877,3.698,13.753,4.577c0.6,0.152,1.212,0.244,1.83,0.318l1.848,0.25l1.854,0.252
			c0.622,0.049,1.248,0.067,1.873,0.102c1.251,0.054,2.503,0.145,3.758,0.168l3.77-0.131l1.887-0.064l1.875-0.21
			c1.25-0.141,2.499-0.28,3.745-0.42c2.479-0.372,4.926-0.914,7.366-1.357c2.401-0.635,4.783-1.266,7.138-1.888
			c2.331-0.7,4.593-1.532,6.841-2.274c2.243-0.743,4.458-1.557,6.613-2.292c1.079-0.374,2.148-0.743,3.204-1.108
			c1.073-0.325,2.133-0.646,3.178-0.962c4.166-1.319,8.171-2.312,11.873-3.194c1.862-0.392,3.647-0.767,5.346-1.123
			c1.713-0.274,3.338-0.535,4.865-0.78c1.526-0.241,2.972-0.355,4.299-0.521c1.327-0.173,2.552-0.255,3.661-0.319
			c1.106-0.067,2.094-0.148,2.955-0.183c0.86-0.015,1.594-0.026,2.188-0.037c1.188-0.02,1.821-0.03,1.821-0.03
			s-0.633,0.026-1.82,0.074c-0.593,0.024-1.324,0.055-2.184,0.09c-0.859,0.055-1.843,0.159-2.947,0.254
			c-1.104,0.091-2.324,0.201-3.645,0.406c-1.32,0.197-2.757,0.346-4.273,0.624c-1.516,0.28-3.128,0.579-4.829,0.894
			c-1.686,0.382-3.459,0.782-5.309,1.2c-3.677,0.929-7.656,1.974-11.776,3.341c-1.035,0.328-2.083,0.66-3.145,0.997
			c-1.051,0.38-2.114,0.764-3.189,1.152c-2.158,0.781-4.333,1.567-6.593,2.335c-2.259,0.757-4.531,1.604-6.876,2.32
			c-2.37,0.637-4.763,1.31-7.187,1.935c-2.463,0.46-4.93,1.018-7.436,1.405c-1.261,0.146-2.524,0.294-3.789,0.442l-1.898,0.221
			l-1.912,0.072l-3.823,0.115c-1.273-0.029-2.546-0.127-3.815-0.188c-0.634-0.038-1.27-0.06-1.9-0.112l-1.884-0.264l-1.877-0.264
			c-0.626-0.077-1.249-0.174-1.857-0.331c-4.952-0.917-9.635-2.665-13.944-4.709c-2.155-1.031-4.221-2.143-6.215-3.267
			c-0.998-0.55-1.981-1.125-2.956-1.636c-0.971-0.515-1.93-1.023-2.95-1.428c-4.118-1.526-7.593-3.908-10.752-5.979
			c-3.171-2.094-6.085-3.99-8.77-5.504c-2.688-1.506-5.095-2.713-7.146-3.547c-1.01-0.457-1.944-0.779-2.747-1.089
			c-0.8-0.317-1.499-0.538-2.064-0.718C35.968,84.298,35.365,84.104,35.365,84.104z"/>
	</g>
	<g>
		<path fill="#7B5340" d="M143.92,100.166c0,0-0.314,0.146-0.904,0.42c-0.599,0.263-1.439,0.7-2.575,1.159
			c-1.121,0.464-2.482,1.025-4.043,1.671c-1.57,0.627-3.306,1.4-5.331,1.974c-2.003,0.604-4.157,1.395-6.5,1.944
			c-1.174,0.265-2.381,0.538-3.614,0.816c-1.234,0.28-2.494,0.579-3.807,0.716c-2.613,0.331-5.308,0.809-8.097,0.812
			c-2.775,0.207-5.605-0.016-8.437-0.137c-1.404-0.201-2.809-0.403-4.208-0.604c-0.703-0.077-1.388-0.253-2.074-0.41
			c-0.686-0.158-1.369-0.315-2.05-0.473c-1.375-0.261-2.673-0.771-3.977-1.181c-1.313-0.389-2.545-0.948-3.775-1.44
			c-2.456-0.999-4.713-2.206-6.809-3.382c-2.1-1.175-4.008-2.371-5.772-3.434c-0.889-0.485-1.73-1.035-2.555-1.411
			c-0.847-0.412-1.649-0.803-2.403-1.171c-0.763-0.342-1.471-0.755-2.109-1.147c-0.65-0.373-1.208-0.755-1.71-1.101
			c-1.021-0.668-1.77-1.264-2.293-1.65c-0.521-0.39-0.798-0.598-0.798-0.598s0.309,0.16,0.885,0.46
			c0.575,0.304,1.424,0.741,2.507,1.271c0.538,0.271,1.137,0.572,1.797,0.839c0.655,0.28,1.343,0.607,2.158,0.864
			c0.802,0.284,1.652,0.587,2.551,0.906c0.939,0.312,1.809,0.797,2.783,1.219c1.858,0.919,3.871,1.915,6,2.969
			c2.12,1.019,4.374,2.024,6.749,2.913c1.195,0.424,2.39,0.916,3.653,1.235c0.625,0.179,1.254,0.359,1.887,0.541
			c0.624,0.209,1.271,0.349,1.921,0.483c0.647,0.141,1.298,0.281,1.95,0.424c0.652,0.142,1.304,0.301,1.974,0.364
			c1.331,0.176,2.667,0.352,4.004,0.528c2.695,0.144,5.39,0.398,8.06,0.229c0.667-0.016,1.331-0.031,1.992-0.048
			c0.662,0.013,1.319-0.042,1.971-0.114c1.308-0.125,2.598-0.247,3.867-0.367c1.276-0.075,2.508-0.346,3.728-0.528
			c1.218-0.195,2.409-0.387,3.569-0.573c1.173-0.144,2.26-0.49,3.346-0.708c1.08-0.239,2.125-0.472,3.128-0.694
			c2.015-0.398,3.843-0.973,5.47-1.417c1.63-0.444,3.05-0.832,4.22-1.151C142.585,100.536,143.92,100.166,143.92,100.166z"/>
	</g>
</g>
</svg>
