<?xml version="1.0" encoding="utf-8"?>
<!-- Generator: Adobe Illustrator 16.0.0, SVG Export Plug-In . SVG Version: 6.00 Build 0)  -->
<!DOCTYPE svg PUBLIC "-//W3C//DTD SVG 1.1//EN" "http://www.w3.org/Graphics/SVG/1.1/DTD/svg11.dtd">
<svg version="1.1" id="Capa_1" xmlns="http://www.w3.org/2000/svg" xmlns:xlink="http://www.w3.org/1999/xlink" x="0px" y="0px"
	 width="587.97px" height="82.92px" viewBox="0 0 587.97 82.92" enable-background="new 0 0 587.97 82.92" xml:space="preserve">
<g>
	<g>
		<g>
			<path fill="#3C3C3B" d="M307.462,36.616l1.43-0.125c0.067,0.573,0.225,1.043,0.473,1.41c0.247,0.367,0.631,0.664,1.152,0.891
				c0.521,0.227,1.106,0.34,1.758,0.34c0.578,0,1.088-0.086,1.531-0.258c0.442-0.172,0.772-0.407,0.988-0.707
				c0.216-0.3,0.324-0.626,0.324-0.98c0-0.359-0.104-0.673-0.312-0.941c-0.208-0.269-0.552-0.493-1.031-0.676
				c-0.308-0.12-0.987-0.306-2.039-0.559c-1.052-0.253-1.789-0.491-2.211-0.715c-0.547-0.286-0.955-0.642-1.223-1.066
				c-0.269-0.425-0.402-0.899-0.402-1.426c0-0.578,0.164-1.118,0.492-1.621s0.807-0.884,1.438-1.145
				c0.63-0.261,1.331-0.391,2.102-0.391c0.849,0,1.598,0.137,2.246,0.41s1.147,0.676,1.496,1.207
				c0.349,0.531,0.536,1.133,0.562,1.805l-1.453,0.109c-0.078-0.724-0.343-1.271-0.793-1.641c-0.451-0.37-1.116-0.555-1.996-0.555
				c-0.917,0-1.585,0.168-2.004,0.504c-0.419,0.336-0.629,0.741-0.629,1.215c0,0.411,0.148,0.75,0.445,1.016
				c0.292,0.266,1.053,0.538,2.285,0.816c1.231,0.278,2.077,0.522,2.535,0.73c0.667,0.308,1.159,0.696,1.477,1.168
				c0.317,0.472,0.477,1.015,0.477,1.629c0,0.609-0.175,1.184-0.523,1.723c-0.349,0.539-0.851,0.958-1.504,1.258
				c-0.654,0.3-1.39,0.449-2.207,0.449c-1.037,0-1.905-0.151-2.605-0.453c-0.701-0.302-1.25-0.757-1.648-1.363
				S307.483,37.382,307.462,36.616z"/>
			<path fill="#3C3C3B" d="M324.15,37.624l1.453,0.18c-0.229,0.849-0.654,1.508-1.273,1.977c-0.62,0.469-1.412,0.703-2.375,0.703
				c-1.214,0-2.176-0.374-2.887-1.121s-1.066-1.796-1.066-3.145c0-1.396,0.359-2.479,1.078-3.25s1.651-1.156,2.797-1.156
				c1.109,0,2.016,0.378,2.719,1.133s1.055,1.817,1.055,3.188c0,0.083-0.003,0.208-0.008,0.375h-6.188
				c0.052,0.911,0.31,1.609,0.773,2.094c0.463,0.484,1.042,0.727,1.734,0.727c0.516,0,0.956-0.136,1.32-0.406
				C323.647,38.65,323.936,38.218,324.15,37.624z M319.533,35.351h4.633c-0.062-0.698-0.24-1.222-0.531-1.57
				c-0.448-0.542-1.029-0.812-1.742-0.812c-0.646,0-1.189,0.216-1.629,0.648C319.823,34.049,319.58,34.627,319.533,35.351z"/>
			<path fill="#3C3C3B" d="M327.369,40.296v-8.297h1.266v1.18c0.609-0.911,1.489-1.367,2.641-1.367c0.5,0,0.959,0.09,1.379,0.27
				c0.419,0.18,0.733,0.415,0.941,0.707c0.208,0.292,0.354,0.638,0.438,1.039c0.052,0.261,0.078,0.716,0.078,1.367v5.102h-1.406
				v-5.047c0-0.573-0.055-1.001-0.164-1.285s-0.304-0.511-0.582-0.68c-0.279-0.169-0.605-0.254-0.98-0.254
				c-0.599,0-1.116,0.19-1.551,0.57c-0.435,0.38-0.652,1.102-0.652,2.164v4.531H327.369z"/>
			<path fill="#3C3C3B" d="M339.337,39.038l0.203,1.242c-0.396,0.083-0.75,0.125-1.062,0.125c-0.511,0-0.906-0.081-1.188-0.242
				s-0.479-0.374-0.594-0.637c-0.115-0.263-0.172-0.816-0.172-1.66v-4.773h-1.031v-1.094h1.031v-2.055l1.398-0.844v2.898h1.414
				v1.094h-1.414v4.852c0,0.401,0.024,0.659,0.074,0.773c0.049,0.114,0.13,0.206,0.242,0.273c0.112,0.067,0.272,0.102,0.48,0.102
				C338.876,39.093,339.082,39.074,339.337,39.038z"/>
			<path fill="#3C3C3B" d="M346.392,37.624l1.453,0.18c-0.229,0.849-0.654,1.508-1.273,1.977c-0.62,0.469-1.412,0.703-2.375,0.703
				c-1.214,0-2.176-0.374-2.887-1.121s-1.066-1.796-1.066-3.145c0-1.396,0.359-2.479,1.078-3.25s1.651-1.156,2.797-1.156
				c1.109,0,2.016,0.378,2.719,1.133s1.055,1.817,1.055,3.188c0,0.083-0.003,0.208-0.008,0.375h-6.188
				c0.052,0.911,0.31,1.609,0.773,2.094c0.463,0.484,1.042,0.727,1.734,0.727c0.516,0,0.956-0.136,1.32-0.406
				C345.889,38.65,346.178,38.218,346.392,37.624z M341.775,35.351h4.633c-0.062-0.698-0.24-1.222-0.531-1.57
				c-0.448-0.542-1.029-0.812-1.742-0.812c-0.646,0-1.189,0.216-1.629,0.648C342.065,34.049,341.822,34.627,341.775,35.351z"/>
			<path fill="#3C3C3B" d="M349.611,40.296v-8.297h1.266v1.18c0.609-0.911,1.489-1.367,2.641-1.367c0.5,0,0.959,0.09,1.379,0.27
				c0.419,0.18,0.733,0.415,0.941,0.707c0.208,0.292,0.354,0.638,0.438,1.039c0.052,0.261,0.078,0.716,0.078,1.367v5.102h-1.406
				v-5.047c0-0.573-0.055-1.001-0.164-1.285s-0.304-0.511-0.582-0.68c-0.279-0.169-0.605-0.254-0.98-0.254
				c-0.599,0-1.116,0.19-1.551,0.57c-0.435,0.38-0.652,1.102-0.652,2.164v4.531H349.611z"/>
			<path fill="#3C3C3B" d="M363.923,37.257l1.383,0.18c-0.151,0.953-0.538,1.699-1.16,2.238c-0.623,0.539-1.387,0.809-2.293,0.809
				c-1.136,0-2.048-0.371-2.738-1.113c-0.69-0.742-1.035-1.806-1.035-3.191c0-0.896,0.148-1.68,0.445-2.352s0.749-1.176,1.355-1.512
				c0.606-0.336,1.267-0.504,1.98-0.504c0.901,0,1.638,0.228,2.211,0.684c0.573,0.456,0.94,1.103,1.102,1.941l-1.367,0.211
				c-0.13-0.558-0.361-0.977-0.691-1.258c-0.331-0.281-0.73-0.422-1.199-0.422c-0.708,0-1.284,0.254-1.727,0.762
				c-0.443,0.508-0.664,1.312-0.664,2.41c0,1.114,0.213,1.925,0.641,2.43c0.427,0.505,0.984,0.758,1.672,0.758
				c0.552,0,1.013-0.169,1.383-0.508C363.59,38.48,363.824,37.96,363.923,37.257z"/>
			<path fill="#3C3C3B" d="M366.517,30.46v-1.617h1.406v1.617H366.517z M366.517,40.296v-8.297h1.406v8.297H366.517z"/>
			<path fill="#3C3C3B" d="M375.478,39.272c-0.521,0.442-1.022,0.755-1.504,0.938c-0.482,0.183-0.999,0.273-1.551,0.273
				c-0.912,0-1.612-0.223-2.102-0.668c-0.49-0.445-0.734-1.015-0.734-1.707c0-0.406,0.092-0.777,0.277-1.113
				c0.185-0.336,0.427-0.605,0.727-0.809c0.299-0.203,0.637-0.356,1.012-0.461c0.276-0.073,0.692-0.144,1.25-0.211
				c1.135-0.136,1.971-0.297,2.508-0.484c0.005-0.192,0.008-0.315,0.008-0.367c0-0.573-0.133-0.977-0.398-1.211
				c-0.359-0.317-0.894-0.477-1.602-0.477c-0.662,0-1.15,0.116-1.465,0.348c-0.315,0.231-0.548,0.642-0.699,1.23l-1.375-0.188
				c0.125-0.589,0.331-1.063,0.617-1.426c0.286-0.362,0.7-0.641,1.242-0.836c0.542-0.195,1.169-0.293,1.883-0.293
				c0.708,0,1.284,0.083,1.727,0.25c0.442,0.167,0.768,0.376,0.977,0.629c0.208,0.253,0.354,0.571,0.438,0.957
				c0.047,0.239,0.07,0.672,0.07,1.297v1.875c0,1.308,0.03,2.134,0.09,2.48c0.06,0.347,0.178,0.679,0.355,0.996h-1.469
				C375.613,40.004,375.52,39.663,375.478,39.272z M375.361,36.132c-0.511,0.208-1.276,0.386-2.297,0.531
				c-0.578,0.083-0.987,0.177-1.227,0.281c-0.24,0.104-0.425,0.257-0.555,0.457c-0.13,0.2-0.195,0.423-0.195,0.668
				c0,0.375,0.142,0.688,0.426,0.938c0.284,0.25,0.699,0.375,1.246,0.375c0.542,0,1.023-0.118,1.445-0.355s0.731-0.562,0.93-0.973
				c0.151-0.317,0.227-0.786,0.227-1.406V36.132z"/>
			<path fill="#3C3C3B" d="M378.4,37.819l1.391-0.219c0.078,0.558,0.295,0.984,0.652,1.281c0.356,0.297,0.855,0.445,1.496,0.445
				c0.646,0,1.125-0.132,1.438-0.395s0.469-0.571,0.469-0.926c0-0.317-0.138-0.567-0.414-0.75c-0.193-0.125-0.672-0.284-1.438-0.477
				c-1.031-0.261-1.746-0.485-2.145-0.676s-0.701-0.453-0.906-0.789c-0.206-0.336-0.309-0.707-0.309-1.113
				c0-0.37,0.084-0.712,0.254-1.027c0.169-0.315,0.399-0.577,0.691-0.785c0.219-0.161,0.517-0.298,0.895-0.41
				c0.377-0.112,0.782-0.168,1.215-0.168c0.651,0,1.223,0.094,1.715,0.281s0.855,0.441,1.09,0.762s0.396,0.749,0.484,1.285
				l-1.375,0.188c-0.062-0.427-0.244-0.761-0.543-1c-0.3-0.239-0.723-0.359-1.27-0.359c-0.646,0-1.107,0.106-1.383,0.32
				c-0.276,0.214-0.414,0.464-0.414,0.75c0,0.183,0.057,0.347,0.172,0.492c0.114,0.151,0.294,0.276,0.539,0.375
				c0.141,0.052,0.555,0.172,1.242,0.359c0.995,0.266,1.688,0.483,2.082,0.652c0.393,0.169,0.702,0.415,0.926,0.738
				c0.224,0.323,0.336,0.724,0.336,1.203c0,0.469-0.137,0.91-0.41,1.324s-0.668,0.734-1.184,0.961s-1.099,0.34-1.75,0.34
				c-1.078,0-1.9-0.224-2.465-0.672C378.917,39.363,378.556,38.699,378.4,37.819z"/>
			<path fill="#3C3C3B" d="M396.791,40.296v-1.047c-0.526,0.823-1.3,1.234-2.32,1.234c-0.662,0-1.27-0.183-1.824-0.547
				s-0.984-0.874-1.289-1.527s-0.457-1.405-0.457-2.254c0-0.828,0.138-1.579,0.414-2.254c0.276-0.675,0.69-1.191,1.242-1.551
				c0.552-0.359,1.169-0.539,1.852-0.539c0.5,0,0.945,0.105,1.336,0.316s0.708,0.485,0.953,0.824v-4.109h1.398v11.453H396.791z
				 M392.345,36.155c0,1.062,0.224,1.856,0.672,2.383c0.448,0.526,0.977,0.789,1.586,0.789c0.614,0,1.137-0.251,1.566-0.754
				s0.645-1.27,0.645-2.301c0-1.136-0.219-1.969-0.656-2.5s-0.977-0.797-1.617-0.797c-0.625,0-1.147,0.255-1.566,0.766
				C392.555,34.252,392.345,35.057,392.345,36.155z"/>
			<path fill="#3C3C3B" d="M405.986,37.624l1.453,0.18c-0.229,0.849-0.654,1.508-1.273,1.977c-0.62,0.469-1.412,0.703-2.375,0.703
				c-1.214,0-2.176-0.374-2.887-1.121s-1.066-1.796-1.066-3.145c0-1.396,0.359-2.479,1.078-3.25s1.651-1.156,2.797-1.156
				c1.109,0,2.016,0.378,2.719,1.133s1.055,1.817,1.055,3.188c0,0.083-0.003,0.208-0.008,0.375h-6.188
				c0.052,0.911,0.31,1.609,0.773,2.094c0.463,0.484,1.042,0.727,1.734,0.727c0.516,0,0.956-0.136,1.32-0.406
				C405.483,38.65,405.772,38.218,405.986,37.624z M401.369,35.351h4.633c-0.062-0.698-0.24-1.222-0.531-1.57
				c-0.448-0.542-1.029-0.812-1.742-0.812c-0.646,0-1.189,0.216-1.629,0.648C401.659,34.049,401.416,34.627,401.369,35.351z"/>
			<path fill="#3C3C3B" d="M413.056,37.046l1.367-0.188c0.036,0.875,0.2,1.474,0.492,1.797c0.292,0.323,0.695,0.484,1.211,0.484
				c0.38,0,0.708-0.087,0.984-0.262c0.276-0.175,0.466-0.411,0.57-0.711c0.104-0.3,0.156-0.777,0.156-1.434v-7.891h1.516v7.805
				c0,0.958-0.116,1.7-0.348,2.227c-0.232,0.526-0.599,0.927-1.102,1.203c-0.503,0.276-1.093,0.414-1.77,0.414
				c-1.005,0-1.775-0.289-2.309-0.867C413.292,39.046,413.035,38.187,413.056,37.046z"/>
			<path fill="#3C3C3B" d="M427.087,40.296v-1.219c-0.646,0.938-1.523,1.406-2.633,1.406c-0.49,0-0.947-0.094-1.371-0.281
				c-0.425-0.188-0.74-0.423-0.945-0.707c-0.206-0.284-0.351-0.632-0.434-1.043c-0.058-0.276-0.086-0.714-0.086-1.312v-5.141h1.406
				v4.602c0,0.734,0.028,1.229,0.086,1.484c0.088,0.37,0.276,0.66,0.562,0.871c0.286,0.211,0.641,0.316,1.062,0.316
				s0.817-0.108,1.188-0.324c0.37-0.216,0.631-0.511,0.785-0.883c0.153-0.372,0.23-0.913,0.23-1.621v-4.445h1.406v8.297H427.087z"/>
			<path fill="#3C3C3B" d="M429.986,37.819l1.391-0.219c0.078,0.558,0.295,0.984,0.652,1.281c0.356,0.297,0.855,0.445,1.496,0.445
				c0.646,0,1.125-0.132,1.438-0.395s0.469-0.571,0.469-0.926c0-0.317-0.138-0.567-0.414-0.75c-0.193-0.125-0.672-0.284-1.438-0.477
				c-1.031-0.261-1.746-0.485-2.145-0.676s-0.701-0.453-0.906-0.789c-0.206-0.336-0.309-0.707-0.309-1.113
				c0-0.37,0.084-0.712,0.254-1.027c0.169-0.315,0.399-0.577,0.691-0.785c0.219-0.161,0.517-0.298,0.895-0.41
				c0.377-0.112,0.782-0.168,1.215-0.168c0.651,0,1.223,0.094,1.715,0.281s0.855,0.441,1.09,0.762s0.396,0.749,0.484,1.285
				l-1.375,0.188c-0.062-0.427-0.244-0.761-0.543-1c-0.3-0.239-0.723-0.359-1.27-0.359c-0.646,0-1.107,0.106-1.383,0.32
				c-0.276,0.214-0.414,0.464-0.414,0.75c0,0.183,0.057,0.347,0.172,0.492c0.114,0.151,0.294,0.276,0.539,0.375
				c0.141,0.052,0.555,0.172,1.242,0.359c0.995,0.266,1.688,0.483,2.082,0.652c0.393,0.169,0.702,0.415,0.926,0.738
				c0.224,0.323,0.336,0.724,0.336,1.203c0,0.469-0.137,0.91-0.41,1.324s-0.668,0.734-1.184,0.961s-1.099,0.34-1.75,0.34
				c-1.078,0-1.9-0.224-2.465-0.672C430.502,39.363,430.142,38.699,429.986,37.819z"/>
			<path fill="#3C3C3B" d="M441.619,39.038l0.203,1.242c-0.396,0.083-0.75,0.125-1.062,0.125c-0.511,0-0.906-0.081-1.188-0.242
				s-0.479-0.374-0.594-0.637c-0.115-0.263-0.172-0.816-0.172-1.66v-4.773h-1.031v-1.094h1.031v-2.055l1.398-0.844v2.898h1.414
				v1.094h-1.414v4.852c0,0.401,0.024,0.659,0.074,0.773c0.049,0.114,0.13,0.206,0.242,0.273c0.112,0.067,0.272,0.102,0.48,0.102
				C441.158,39.093,441.363,39.074,441.619,39.038z"/>
			<path fill="#3C3C3B" d="M443.001,30.46v-1.617h1.406v1.617H443.001z M443.001,40.296v-8.297h1.406v8.297H443.001z"/>
			<path fill="#3C3C3B" d="M451.962,37.257l1.383,0.18c-0.151,0.953-0.538,1.699-1.16,2.238c-0.623,0.539-1.387,0.809-2.293,0.809
				c-1.136,0-2.048-0.371-2.738-1.113c-0.69-0.742-1.035-1.806-1.035-3.191c0-0.896,0.148-1.68,0.445-2.352s0.749-1.176,1.355-1.512
				c0.606-0.336,1.267-0.504,1.98-0.504c0.901,0,1.638,0.228,2.211,0.684c0.573,0.456,0.94,1.103,1.102,1.941l-1.367,0.211
				c-0.13-0.558-0.361-0.977-0.691-1.258c-0.331-0.281-0.73-0.422-1.199-0.422c-0.708,0-1.284,0.254-1.727,0.762
				c-0.443,0.508-0.664,1.312-0.664,2.41c0,1.114,0.213,1.925,0.641,2.43c0.427,0.505,0.984,0.758,1.672,0.758
				c0.552,0,1.013-0.169,1.383-0.508C451.629,38.48,451.863,37.96,451.962,37.257z"/>
			<path fill="#3C3C3B" d="M454.556,30.46v-1.617h1.406v1.617H454.556z M454.556,40.296v-8.297h1.406v8.297H454.556z"/>
			<path fill="#3C3C3B" d="M463.517,39.272c-0.521,0.442-1.022,0.755-1.504,0.938c-0.482,0.183-0.999,0.273-1.551,0.273
				c-0.912,0-1.612-0.223-2.102-0.668c-0.49-0.445-0.734-1.015-0.734-1.707c0-0.406,0.092-0.777,0.277-1.113
				c0.185-0.336,0.427-0.605,0.727-0.809c0.299-0.203,0.637-0.356,1.012-0.461c0.276-0.073,0.692-0.144,1.25-0.211
				c1.135-0.136,1.971-0.297,2.508-0.484c0.005-0.192,0.008-0.315,0.008-0.367c0-0.573-0.133-0.977-0.398-1.211
				c-0.359-0.317-0.894-0.477-1.602-0.477c-0.662,0-1.15,0.116-1.465,0.348c-0.315,0.231-0.548,0.642-0.699,1.23l-1.375-0.188
				c0.125-0.589,0.331-1.063,0.617-1.426c0.286-0.362,0.7-0.641,1.242-0.836c0.542-0.195,1.169-0.293,1.883-0.293
				c0.708,0,1.284,0.083,1.727,0.25c0.442,0.167,0.768,0.376,0.977,0.629c0.208,0.253,0.354,0.571,0.438,0.957
				c0.047,0.239,0.07,0.672,0.07,1.297v1.875c0,1.308,0.03,2.134,0.09,2.48c0.06,0.347,0.178,0.679,0.355,0.996h-1.469
				C463.652,40.004,463.559,39.663,463.517,39.272z M463.4,36.132c-0.511,0.208-1.276,0.386-2.297,0.531
				c-0.578,0.083-0.987,0.177-1.227,0.281c-0.24,0.104-0.425,0.257-0.555,0.457c-0.13,0.2-0.195,0.423-0.195,0.668
				c0,0.375,0.142,0.688,0.426,0.938c0.284,0.25,0.699,0.375,1.246,0.375c0.542,0,1.023-0.118,1.445-0.355s0.731-0.562,0.93-0.973
				c0.151-0.317,0.227-0.786,0.227-1.406V36.132z"/>
			<path fill="#3C3C3B" d="M471.384,43.491l-0.156-1.32c0.307,0.083,0.575,0.125,0.805,0.125c0.312,0,0.562-0.052,0.75-0.156
				s0.341-0.25,0.461-0.438c0.088-0.141,0.231-0.489,0.43-1.047c0.026-0.078,0.067-0.192,0.125-0.344l-3.148-8.312h1.516
				l1.727,4.805c0.224,0.609,0.424,1.25,0.602,1.922c0.161-0.646,0.354-1.276,0.578-1.891l1.773-4.836h1.406l-3.156,8.438
				c-0.339,0.911-0.602,1.539-0.789,1.883c-0.25,0.464-0.537,0.804-0.859,1.02c-0.323,0.216-0.708,0.324-1.156,0.324
				C472.02,43.663,471.717,43.605,471.384,43.491z"/>
			<path fill="#3C3C3B" d="M484.072,40.296V28.843h4.32c0.76,0,1.341,0.036,1.742,0.109c0.562,0.094,1.034,0.272,1.414,0.535
				c0.38,0.263,0.686,0.632,0.918,1.105c0.231,0.474,0.348,0.995,0.348,1.562c0,0.974-0.31,1.798-0.93,2.473
				c-0.62,0.675-1.74,1.012-3.359,1.012h-2.938v4.656H484.072z M485.587,34.288h2.961c0.979,0,1.674-0.183,2.086-0.547
				c0.411-0.364,0.617-0.878,0.617-1.539c0-0.479-0.121-0.89-0.363-1.23s-0.562-0.566-0.957-0.676
				c-0.255-0.067-0.727-0.102-1.414-0.102h-2.93V34.288z"/>
			<path fill="#3C3C3B" d="M499.978,39.272c-0.521,0.442-1.022,0.755-1.504,0.938c-0.482,0.183-0.999,0.273-1.551,0.273
				c-0.912,0-1.612-0.223-2.102-0.668c-0.49-0.445-0.734-1.015-0.734-1.707c0-0.406,0.092-0.777,0.277-1.113
				c0.185-0.336,0.427-0.605,0.727-0.809c0.299-0.203,0.637-0.356,1.012-0.461c0.276-0.073,0.692-0.144,1.25-0.211
				c1.135-0.136,1.971-0.297,2.508-0.484c0.005-0.192,0.008-0.315,0.008-0.367c0-0.573-0.133-0.977-0.398-1.211
				c-0.359-0.317-0.894-0.477-1.602-0.477c-0.662,0-1.15,0.116-1.465,0.348c-0.315,0.231-0.548,0.642-0.699,1.23l-1.375-0.188
				c0.125-0.589,0.331-1.063,0.617-1.426c0.286-0.362,0.7-0.641,1.242-0.836c0.542-0.195,1.169-0.293,1.883-0.293
				c0.708,0,1.284,0.083,1.727,0.25c0.442,0.167,0.768,0.376,0.977,0.629c0.208,0.253,0.354,0.571,0.438,0.957
				c0.047,0.239,0.07,0.672,0.07,1.297v1.875c0,1.308,0.03,2.134,0.09,2.48c0.06,0.347,0.178,0.679,0.355,0.996h-1.469
				C500.113,40.004,500.02,39.663,499.978,39.272z M499.861,36.132c-0.511,0.208-1.276,0.386-2.297,0.531
				c-0.578,0.083-0.987,0.177-1.227,0.281c-0.24,0.104-0.425,0.257-0.555,0.457c-0.13,0.2-0.195,0.423-0.195,0.668
				c0,0.375,0.142,0.688,0.426,0.938c0.284,0.25,0.699,0.375,1.246,0.375c0.542,0,1.023-0.118,1.445-0.355s0.731-0.562,0.93-0.973
				c0.151-0.317,0.227-0.786,0.227-1.406V36.132z"/>
			<path fill="#3C3C3B" d="M502.72,40.296v-1.141l5.281-6.062c-0.599,0.031-1.128,0.047-1.586,0.047h-3.383v-1.141h6.781v0.93
				l-4.492,5.266l-0.867,0.961c0.63-0.047,1.221-0.07,1.773-0.07h3.836v1.211H502.72z"/>
			<path fill="#3C3C3B" d="M511.853,33.601v-1.602h1.602v1.602H511.853z M511.853,40.296v-1.602h1.602v1.602H511.853z"/>
			<path fill="#3C3C3B" d="M520.47,40.296V28.843h4.297c0.875,0,1.577,0.116,2.105,0.348c0.528,0.231,0.942,0.589,1.242,1.07
				c0.299,0.481,0.449,0.985,0.449,1.512c0,0.489-0.133,0.95-0.398,1.383s-0.667,0.781-1.203,1.047
				c0.692,0.203,1.225,0.55,1.598,1.039c0.372,0.489,0.559,1.067,0.559,1.734c0,0.536-0.113,1.035-0.34,1.496
				s-0.507,0.816-0.84,1.066c-0.333,0.25-0.751,0.438-1.254,0.566c-0.503,0.128-1.119,0.191-1.848,0.191H520.47z M521.986,33.655
				h2.477c0.672,0,1.153-0.044,1.445-0.133c0.385-0.114,0.676-0.305,0.871-0.57s0.293-0.599,0.293-1c0-0.38-0.091-0.715-0.273-1.004
				c-0.183-0.289-0.443-0.487-0.781-0.594c-0.339-0.106-0.919-0.16-1.742-0.16h-2.289V33.655z M521.986,38.944h2.852
				c0.489,0,0.833-0.019,1.031-0.055c0.349-0.062,0.641-0.167,0.875-0.312s0.427-0.358,0.578-0.637
				c0.151-0.278,0.227-0.601,0.227-0.965c0-0.427-0.109-0.798-0.328-1.113s-0.522-0.536-0.91-0.664
				c-0.388-0.128-0.947-0.191-1.676-0.191h-2.648V38.944z"/>
			<path fill="#3C3C3B" d="M531.423,40.296v-1.602h1.602v1.602H531.423z"/>
			<path fill="#3C3C3B" d="M548.267,36.28l1.516,0.383c-0.318,1.245-0.89,2.194-1.715,2.848c-0.826,0.653-1.835,0.98-3.027,0.98
				c-1.234,0-2.238-0.251-3.012-0.754s-1.362-1.23-1.766-2.184c-0.404-0.953-0.605-1.977-0.605-3.07
				c0-1.192,0.228-2.233,0.684-3.121c0.456-0.888,1.104-1.562,1.945-2.023c0.841-0.461,1.767-0.691,2.777-0.691
				c1.146,0,2.109,0.292,2.891,0.875s1.325,1.403,1.633,2.461l-1.492,0.352c-0.266-0.833-0.651-1.44-1.156-1.82
				c-0.505-0.38-1.141-0.57-1.906-0.57c-0.88,0-1.616,0.211-2.207,0.633c-0.591,0.422-1.007,0.988-1.246,1.699
				c-0.24,0.711-0.359,1.444-0.359,2.199c0,0.974,0.142,1.824,0.426,2.551c0.284,0.727,0.725,1.27,1.324,1.629
				c0.599,0.359,1.247,0.539,1.945,0.539c0.849,0,1.567-0.245,2.156-0.734C547.66,37.971,548.059,37.244,548.267,36.28z"/>
			<path fill="#3C3C3B" d="M556.884,39.272c-0.521,0.442-1.022,0.755-1.504,0.938c-0.482,0.183-0.999,0.273-1.551,0.273
				c-0.912,0-1.612-0.223-2.102-0.668c-0.49-0.445-0.734-1.015-0.734-1.707c0-0.406,0.092-0.777,0.277-1.113
				c0.185-0.336,0.427-0.605,0.727-0.809c0.299-0.203,0.637-0.356,1.012-0.461c0.276-0.073,0.692-0.144,1.25-0.211
				c1.135-0.136,1.971-0.297,2.508-0.484c0.005-0.192,0.008-0.315,0.008-0.367c0-0.573-0.133-0.977-0.398-1.211
				c-0.359-0.317-0.894-0.477-1.602-0.477c-0.662,0-1.15,0.116-1.465,0.348c-0.315,0.231-0.548,0.642-0.699,1.23l-1.375-0.188
				c0.125-0.589,0.331-1.063,0.617-1.426c0.286-0.362,0.7-0.641,1.242-0.836c0.542-0.195,1.169-0.293,1.883-0.293
				c0.708,0,1.284,0.083,1.727,0.25c0.442,0.167,0.768,0.376,0.977,0.629c0.208,0.253,0.354,0.571,0.438,0.957
				c0.047,0.239,0.07,0.672,0.07,1.297v1.875c0,1.308,0.03,2.134,0.09,2.48c0.06,0.347,0.178,0.679,0.355,0.996h-1.469
				C557.02,40.004,556.926,39.663,556.884,39.272z M556.767,36.132c-0.511,0.208-1.276,0.386-2.297,0.531
				c-0.578,0.083-0.987,0.177-1.227,0.281c-0.24,0.104-0.425,0.257-0.555,0.457c-0.13,0.2-0.195,0.423-0.195,0.668
				c0,0.375,0.142,0.688,0.426,0.938c0.284,0.25,0.699,0.375,1.246,0.375c0.542,0,1.023-0.118,1.445-0.355s0.731-0.562,0.93-0.973
				c0.151-0.317,0.227-0.786,0.227-1.406V36.132z"/>
			<path fill="#3C3C3B" d="M560.337,40.296V28.843h1.406v11.453H560.337z"/>
			<path fill="#3C3C3B" d="M563.931,30.46v-1.617h1.406v1.617H563.931z M563.931,40.296v-8.297h1.406v8.297H563.931z"/>
			<path fill="#3C3C3B" d="M567.478,40.296v-8.297h1.258v1.164c0.26-0.406,0.606-0.733,1.039-0.98
				c0.432-0.247,0.924-0.371,1.477-0.371c0.614,0,1.118,0.128,1.512,0.383c0.393,0.255,0.67,0.612,0.832,1.07
				c0.656-0.969,1.51-1.453,2.562-1.453c0.823,0,1.456,0.228,1.898,0.684c0.442,0.456,0.664,1.157,0.664,2.105v5.695h-1.398v-5.227
				c0-0.562-0.046-0.968-0.137-1.215c-0.091-0.247-0.257-0.446-0.496-0.598c-0.24-0.151-0.521-0.227-0.844-0.227
				c-0.583,0-1.068,0.194-1.453,0.582c-0.386,0.388-0.578,1.009-0.578,1.863v4.82h-1.406v-5.391c0-0.625-0.115-1.094-0.344-1.406
				c-0.229-0.312-0.604-0.469-1.125-0.469c-0.396,0-0.762,0.104-1.098,0.312s-0.58,0.513-0.73,0.914
				c-0.151,0.401-0.227,0.979-0.227,1.734v4.305H567.478z"/>
			<path fill="#3C3C3B" d="M586.22,39.272c-0.521,0.442-1.022,0.755-1.504,0.938c-0.482,0.183-0.999,0.273-1.551,0.273
				c-0.912,0-1.612-0.223-2.102-0.668c-0.49-0.445-0.734-1.015-0.734-1.707c0-0.406,0.092-0.777,0.277-1.113
				c0.185-0.336,0.427-0.605,0.727-0.809c0.299-0.203,0.637-0.356,1.012-0.461c0.276-0.073,0.692-0.144,1.25-0.211
				c1.135-0.136,1.971-0.297,2.508-0.484c0.005-0.192,0.008-0.315,0.008-0.367c0-0.573-0.133-0.977-0.398-1.211
				c-0.359-0.317-0.894-0.477-1.602-0.477c-0.662,0-1.15,0.116-1.465,0.348c-0.315,0.231-0.548,0.642-0.699,1.23l-1.375-0.188
				c0.125-0.589,0.331-1.063,0.617-1.426c0.286-0.362,0.7-0.641,1.242-0.836c0.542-0.195,1.169-0.293,1.883-0.293
				c0.708,0,1.284,0.083,1.727,0.25c0.442,0.167,0.768,0.376,0.977,0.629c0.208,0.253,0.354,0.571,0.438,0.957
				c0.047,0.239,0.07,0.672,0.07,1.297v1.875c0,1.308,0.03,2.134,0.09,2.48c0.06,0.347,0.178,0.679,0.355,0.996h-1.469
				C586.355,40.004,586.262,39.663,586.22,39.272z M586.103,36.132c-0.511,0.208-1.276,0.386-2.297,0.531
				c-0.578,0.083-0.987,0.177-1.227,0.281c-0.24,0.104-0.425,0.257-0.555,0.457c-0.13,0.2-0.195,0.423-0.195,0.668
				c0,0.375,0.142,0.688,0.426,0.938c0.284,0.25,0.699,0.375,1.246,0.375c0.542,0,1.023-0.118,1.445-0.355s0.731-0.562,0.93-0.973
				c0.151-0.317,0.227-0.786,0.227-1.406V36.132z"/>
		</g>
	</g>
	<path fill="#F39200" d="M0.805,72.806c-0.009,0.027-0.025,0.056-0.047,0.076L0.176,73.43L0.03,73.78L0,74.029l0.065,0.908
		l0.438,0.782L2.13,76.98c0.011,0.01,0.021,0.018,0.029,0.03l1.181,1.519l0.98,1.585l0.578,0.579l0.774,0.451l1.668,0.501
		c0.013,0.005,0.023,0.008,0.033,0.014l0.371,0.202l0.763,0.285l0.852,0.032c0.021,0,0.042,0.006,0.063,0.015l0.789,0.363
		l1.43,0.231l1.125,0.031l0.569,0.101l0.526-0.094l0.424-0.183l0.383-0.383l0.358-0.455l0.418-0.421l1.204-0.861l0.299-0.304
		l0.293-0.522c0.005-0.009,0.011-0.018,0.018-0.025l0.439-0.508l1.489-1.622l1.103-1.507l1.516-2.256
		c0.006-0.012,0.017-0.022,0.027-0.031l1.705-1.537l1.709-2.717l0.708-1.178l0.502-0.938c0.01-0.02,0.023-0.034,0.039-0.05
		l0.473-0.405l1.059-0.751l0.226-0.131l0.826-0.925l0.327-0.458l0.287-0.646l0.735-2.543c0.005-0.019,0.012-0.033,0.022-0.047
		l0.338-0.507l0.291-0.298c0.021-0.019,0.046-0.034,0.073-0.041l0.237-0.069c0.022-0.004,0.045-0.007,0.066-0.004l0.271,0.033
		c0.021,0.003,0.042,0.009,0.061,0.018l0.675,0.374L32.654,61l0.66-0.211l1.899-1.466l0.736-0.835l0.137-0.328l-0.144-0.579
		l-0.462-0.492l-0.521-0.325c-0.033-0.021-0.057-0.051-0.07-0.089l-0.203-0.572c-0.012-0.034-0.012-0.071-0.001-0.105l0.135-0.439
		l0.273-0.719l0.448-0.832l1.029-1.307l1.235-1.134c0.012-0.011,0.024-0.019,0.038-0.026l0.202-0.103l0.305-0.11l0.014-0.051
		l0.611-1.77l0.79-1.377l0.25-0.325c0.009-0.013,0.021-0.023,0.033-0.033l0.506-0.371c0.01-0.006,0.02-0.013,0.031-0.018
		l0.645-0.289l0.551-0.584c0.008-0.011,0.019-0.019,0.03-0.024l1.08-0.71l0.368-0.307l0.65-1.107l0.23-0.724l0.095-0.715l0.1-1.877
		l0.102-0.955c0.001-0.012,0.005-0.024,0.009-0.037l0.269-0.776c0.006-0.017,0.015-0.032,0.025-0.045l1.688-2.263l0.461-0.826
		l0.49-1.212l0.083-0.521l-0.729-0.547c-0.011-0.009-0.02-0.017-0.029-0.028l-0.575-0.699l-0.011,0.034
		c-0.008,0.027-0.025,0.053-0.049,0.076l-1.417,1.282l-0.913,0.61l-0.256,0.289l-0.183,0.246l-0.229,0.488
		c-0.006,0.015-0.015,0.027-0.024,0.037l-0.169,0.203c-0.02,0.024-0.045,0.043-0.076,0.052l-0.267,0.088L42.475,36.6l-0.198,0.366
		l0.025,0.197l0.06,0.148c0.007,0.021,0.011,0.041,0.011,0.063v0.236c0,0.03-0.008,0.061-0.023,0.086l-0.102,0.169l-0.289,0.329
		c-0.01,0.01-0.021,0.021-0.033,0.028l-0.202,0.136l-0.161,0.136l-0.11,0.217l-0.092,0.461l0.03,0.292l0.095,0.287l0.041,0.267
		c0.005,0.033,0,0.068-0.016,0.098l-0.135,0.271c-0.011,0.021-0.024,0.039-0.042,0.055l-0.459,0.393l-0.427,0.561l-0.874,1.242
		l-1.234,1.239c-0.024,0.024-0.055,0.041-0.089,0.047l-1.282,0.235c-0.014,0.002-0.028,0.004-0.042,0.002l-1.08-0.065l-1.079-0.277
		c-0.029-0.008-0.056-0.022-0.077-0.042l-0.169-0.171c-0.013-0.013-0.023-0.028-0.032-0.045l-0.101-0.2
		c-0.019-0.037-0.022-0.077-0.012-0.118l0.202-0.811l0.03-0.377l0.038-0.162c0.004-0.021,0.015-0.042,0.028-0.062l0.186-0.247
		l0.05-0.15v-0.209c0-0.017,0.002-0.037,0.009-0.054l0.175-0.521h-1.951l0,0l-0.297,0.082l-0.1,0.127
		c-0.015,0.019-0.035,0.033-0.057,0.045l-0.239,0.119l-0.146,0.17l-0.029,0.316c-0.004,0.054-0.034,0.102-0.079,0.129
		c-0.044,0.028-0.1,0.035-0.15,0.014l-0.438-0.166c-0.04-0.019-0.072-0.046-0.091-0.084l-0.097-0.193l-0.083-0.014l-0.192,0.048
		l-0.27,0.271l-0.15,0.215c-0.009,0.012-0.017,0.019-0.028,0.029l-0.268,0.236c-0.062,0.054-0.154,0.057-0.218,0.005l-0.337-0.271
		l-0.281-0.153l-0.654-0.425l-0.174-0.025l-0.611,0.093l-0.183,0.13l-0.288,0.385c-0.013,0.018-0.028,0.033-0.047,0.043
		l-0.169,0.102c-0.013,0.008-0.025,0.013-0.038,0.017l-0.607,0.191l-0.211,0.181c-0.02,0.018-0.043,0.027-0.068,0.035l-0.269,0.067
		c-0.014,0.004-0.028,0.007-0.042,0.007h-0.202c-0.013,0-0.026-0.003-0.038-0.006l-0.41-0.094l-0.188,0.023l-0.281,0.252
		l-0.427,0.688l-0.684,0.893l-0.632,1l-0.483,1.002l-0.066,0.846c-0.003,0.041-0.02,0.077-0.049,0.106l-0.539,0.539l-0.158,0.695
		c-0.006,0.025-0.018,0.049-0.033,0.068l-0.406,0.507c-0.007,0.009-0.015,0.018-0.024,0.024l-2.229,1.823l-0.812,0.879L18.08,52.61
		l-0.219,0.296c-0.025,0.033-0.061,0.056-0.102,0.063l-0.337,0.068c-0.014,0.003-0.028,0.004-0.042,0.003l-0.608-0.033
		c-0.015-0.003-0.03-0.005-0.047-0.012l-1.822-0.641l-0.463-0.246c-0.013-0.007-0.024-0.016-0.036-0.025l-0.43-0.399l-0.281-0.03
		l-0.201,0.003l-0.521,0.363l0.102,0.243l2.942,2.575l0.625,0.728l0.263,0.229l0.341,0.126c0.015,0.004,0.03,0.014,0.044,0.021
		l0.404,0.305c0.011,0.008,0.022,0.018,0.031,0.03l0.27,0.338c0.008,0.011,0.017,0.023,0.022,0.036l0.27,0.607l0.296,0.526
		c0.023,0.039,0.028,0.087,0.015,0.131l-0.472,1.587l-0.434,0.904l-0.029,0.598l0.62,1.209c0.042,0.082,0.011,0.184-0.071,0.227
		l-0.551,0.293l-0.236,0.233l-0.258,0.454c-0.03,0.051-0.082,0.083-0.139,0.087l-0.778,0.033c-0.025,0-0.052-0.006-0.077-0.016
		l-0.44-0.203c-0.015-0.007-0.029-0.017-0.042-0.028l-0.743-0.675l-0.725-0.513l-0.178,0.059l-0.509,0.607l-0.559,0.488
		l-0.555,0.384l-1.641,0.823l-0.754,0.31l-1.81,0.479c-0.018,0.003-0.036,0.007-0.053,0.006L7.588,65.23l-0.455-0.071
		c-0.029-0.004-0.056-0.016-0.079-0.033l-1.249-0.979l-0.316-0.315l-0.5-0.095L4.736,64.74l0.787,1.737
		c0.01,0.02,0.015,0.046,0.015,0.068v0.37c0,0.037-0.011,0.071-0.032,0.1l-0.158,0.222l-0.095,0.22l-0.3,0.866l-0.352,0.604
		c-0.015,0.025-0.037,0.046-0.062,0.061l-0.209,0.121l-0.24,0.295L4.12,69.74l0.065,0.317c0.008,0.037,0.003,0.075-0.015,0.109
		l-0.067,0.135c-0.014,0.027-0.037,0.053-0.064,0.068l-0.168,0.102c-0.011,0.007-0.022,0.013-0.034,0.016l-0.646,0.206
		c-0.028,0.008-0.057,0.01-0.087,0.002l-0.42-0.097H2.297l-0.355-0.035c-0.025-0.003-0.051-0.011-0.073-0.024l-0.242-0.151
		l-0.313-0.053l-0.222,0.124l-0.313,0.396l0.033,0.985l0.067,0.665c0.001,0.021,0,0.041-0.006,0.062L0.805,72.806z"/>
	<g>
		<g>
			<g enable-background="new    ">
				<path fill="#331842" d="M321.912,0.684c-0.104,4.382-0.205,9.102-0.301,14.16h-2.974V9.15h-3.734v5.234l-3.576-0.01
					c0.104-2.389,0.157-4.727,0.157-7.012c0-2.278-0.053-4.505-0.157-6.68h3.419l-0.144,5.693l3.734,0.117V0.449L321.912,0.684z"/>
				<path fill="#331842" d="M333.86,0.371v9.658c0,2.976-1.825,4.463-5.476,4.463h-0.288c-3.057-0.26-4.638-1.507-4.743-3.74
					c0-4.459-0.061-7.975-0.183-10.547h3.485c-0.087,1.472-0.131,3.2-0.131,5.186c0,1.394,0.022,2.917,0.065,4.57
					c0.018,1.211,0.603,1.816,1.756,1.816c0,0.007,0.004,0.01,0.013,0.01c1.144,0,1.716-0.774,1.716-2.324l-0.065-9.004
					L333.86,0.371z"/>
				<path fill="#331842" d="M338.694,13.936l-3.262,0.225c0-4.778-0.105-9.264-0.314-13.457l3.733-0.234
					C338.755,4.89,338.703,9.379,338.694,13.936z"/>
				<path fill="#331842" d="M344.052,0c-0.157,3.393-0.236,6.299-0.236,8.721c0,0.964,0.013,1.853,0.039,2.666l5.843-0.215
					l0.092,3.184l-9.354,0.156c0.008-0.859,0.013-1.715,0.013-2.568c0-3.912-0.113-7.806-0.34-11.68L344.052,0z"/>
				<path fill="#331842" d="M350.275,14.297c1.642-5.56,2.969-10.273,3.982-14.141l4.913-0.059c1.205,4.023,2.585,8.607,4.14,13.75
					l-3.354,0.508l-1.061-3.701h-4.074l-1.101,3.994L350.275,14.297z M358.791,7.91c-0.455-1.406-1.197-3.089-2.228-5.049
					c-0.794,1.647-1.467,3.354-2.017,5.117L358.791,7.91z"/>
			</g>
		</g>
	</g>
</g>
</svg>
