<?xml version="1.0" encoding="utf-8"?>
<!-- Generator: Adobe Illustrator 16.0.0, SVG Export Plug-In . SVG Version: 6.00 Build 0)  -->
<!DOCTYPE svg PUBLIC "-//W3C//DTD SVG 1.1//EN" "http://www.w3.org/Graphics/SVG/1.1/DTD/svg11.dtd">
<svg version="1.1" id="Capa_1" xmlns="http://www.w3.org/2000/svg" xmlns:xlink="http://www.w3.org/1999/xlink" x="0px" y="0px"
	 width="522.972px" height="200.644px" viewBox="0 0 522.972 200.644" enable-background="new 0 0 522.972 200.644"
	 xml:space="preserve">
<g>
	<g>
		<g>
			<path fill="#3C3C3B" d="M269.949,177.576l1.43-0.125c0.067,0.573,0.225,1.043,0.473,1.41c0.247,0.367,0.631,0.664,1.152,0.891
				c0.521,0.227,1.106,0.34,1.758,0.34c0.578,0,1.088-0.086,1.531-0.258c0.442-0.172,0.772-0.407,0.988-0.707
				c0.216-0.3,0.324-0.626,0.324-0.98c0-0.359-0.104-0.673-0.312-0.941c-0.208-0.269-0.552-0.493-1.031-0.676
				c-0.308-0.12-0.987-0.306-2.039-0.559c-1.052-0.253-1.789-0.491-2.211-0.715c-0.547-0.286-0.955-0.642-1.223-1.066
				c-0.269-0.425-0.402-0.899-0.402-1.426c0-0.578,0.164-1.118,0.492-1.621s0.807-0.884,1.438-1.145
				c0.63-0.261,1.331-0.391,2.102-0.391c0.849,0,1.598,0.137,2.246,0.41s1.147,0.676,1.496,1.207
				c0.349,0.531,0.536,1.133,0.562,1.805l-1.453,0.109c-0.078-0.724-0.343-1.271-0.793-1.641c-0.451-0.37-1.116-0.555-1.996-0.555
				c-0.917,0-1.585,0.168-2.004,0.504c-0.419,0.336-0.629,0.741-0.629,1.215c0,0.411,0.148,0.75,0.445,1.016
				c0.292,0.266,1.053,0.538,2.285,0.816c1.231,0.278,2.077,0.522,2.535,0.73c0.667,0.308,1.159,0.696,1.477,1.168
				c0.317,0.472,0.477,1.015,0.477,1.629c0,0.609-0.175,1.184-0.523,1.723c-0.349,0.539-0.851,0.958-1.504,1.258
				c-0.654,0.3-1.39,0.449-2.207,0.449c-1.037,0-1.905-0.151-2.605-0.453c-0.701-0.302-1.25-0.757-1.648-1.363
				S269.969,178.342,269.949,177.576z"/>
			<path fill="#3C3C3B" d="M286.636,178.584l1.453,0.18c-0.229,0.849-0.654,1.508-1.273,1.977c-0.62,0.469-1.412,0.703-2.375,0.703
				c-1.214,0-2.176-0.374-2.887-1.121s-1.066-1.796-1.066-3.145c0-1.396,0.359-2.479,1.078-3.25s1.651-1.156,2.797-1.156
				c1.109,0,2.016,0.378,2.719,1.133s1.055,1.817,1.055,3.188c0,0.083-0.003,0.208-0.008,0.375h-6.188
				c0.052,0.911,0.31,1.609,0.773,2.094c0.463,0.484,1.042,0.727,1.734,0.727c0.516,0,0.956-0.136,1.32-0.406
				C286.133,179.61,286.422,179.178,286.636,178.584z M282.019,176.311h4.633c-0.062-0.698-0.24-1.222-0.531-1.57
				c-0.448-0.542-1.029-0.812-1.742-0.812c-0.646,0-1.189,0.216-1.629,0.648C282.309,175.009,282.066,175.587,282.019,176.311z"/>
			<path fill="#3C3C3B" d="M289.855,181.256v-8.297h1.266v1.18c0.609-0.911,1.489-1.367,2.641-1.367c0.5,0,0.959,0.09,1.379,0.27
				c0.419,0.18,0.733,0.415,0.941,0.707c0.208,0.292,0.354,0.638,0.438,1.039c0.052,0.261,0.078,0.716,0.078,1.367v5.102h-1.406
				v-5.047c0-0.573-0.055-1.001-0.164-1.285s-0.304-0.511-0.582-0.68c-0.279-0.169-0.605-0.254-0.98-0.254
				c-0.599,0-1.116,0.19-1.551,0.57c-0.435,0.38-0.652,1.102-0.652,2.164v4.531H289.855z"/>
			<path fill="#3C3C3B" d="M301.824,179.998l0.203,1.242c-0.396,0.083-0.75,0.125-1.062,0.125c-0.511,0-0.906-0.081-1.188-0.242
				s-0.479-0.374-0.594-0.637c-0.115-0.263-0.172-0.816-0.172-1.66v-4.773h-1.031v-1.094h1.031v-2.055l1.398-0.844v2.898h1.414
				v1.094h-1.414v4.852c0,0.401,0.024,0.659,0.074,0.773c0.049,0.114,0.13,0.206,0.242,0.273c0.112,0.067,0.272,0.102,0.48,0.102
				C301.363,180.053,301.568,180.034,301.824,179.998z"/>
			<path fill="#3C3C3B" d="M308.878,178.584l1.453,0.18c-0.229,0.849-0.654,1.508-1.273,1.977c-0.62,0.469-1.412,0.703-2.375,0.703
				c-1.214,0-2.176-0.374-2.887-1.121s-1.066-1.796-1.066-3.145c0-1.396,0.359-2.479,1.078-3.25s1.651-1.156,2.797-1.156
				c1.109,0,2.016,0.378,2.719,1.133s1.055,1.817,1.055,3.188c0,0.083-0.003,0.208-0.008,0.375h-6.188
				c0.052,0.911,0.31,1.609,0.773,2.094c0.463,0.484,1.042,0.727,1.734,0.727c0.516,0,0.956-0.136,1.32-0.406
				C308.375,179.61,308.665,179.178,308.878,178.584z M304.261,176.311h4.633c-0.062-0.698-0.24-1.222-0.531-1.57
				c-0.448-0.542-1.029-0.812-1.742-0.812c-0.646,0-1.189,0.216-1.629,0.648C304.551,175.009,304.308,175.587,304.261,176.311z"/>
			<path fill="#3C3C3B" d="M312.097,181.256v-8.297h1.266v1.18c0.609-0.911,1.489-1.367,2.641-1.367c0.5,0,0.959,0.09,1.379,0.27
				c0.419,0.18,0.733,0.415,0.941,0.707c0.208,0.292,0.354,0.638,0.438,1.039c0.052,0.261,0.078,0.716,0.078,1.367v5.102h-1.406
				v-5.047c0-0.573-0.055-1.001-0.164-1.285s-0.304-0.511-0.582-0.68c-0.279-0.169-0.605-0.254-0.98-0.254
				c-0.599,0-1.116,0.19-1.551,0.57c-0.435,0.38-0.652,1.102-0.652,2.164v4.531H312.097z"/>
			<path fill="#3C3C3B" d="M326.41,178.217l1.383,0.18c-0.151,0.953-0.538,1.699-1.16,2.238c-0.623,0.539-1.387,0.809-2.293,0.809
				c-1.136,0-2.048-0.371-2.738-1.113c-0.69-0.742-1.035-1.806-1.035-3.191c0-0.896,0.148-1.68,0.445-2.352s0.749-1.176,1.355-1.512
				c0.606-0.336,1.267-0.504,1.98-0.504c0.901,0,1.638,0.228,2.211,0.684c0.573,0.456,0.94,1.103,1.102,1.941l-1.367,0.211
				c-0.13-0.558-0.361-0.977-0.691-1.258c-0.331-0.281-0.73-0.422-1.199-0.422c-0.708,0-1.284,0.254-1.727,0.762
				c-0.443,0.508-0.664,1.312-0.664,2.41c0,1.114,0.213,1.925,0.641,2.43c0.427,0.505,0.984,0.758,1.672,0.758
				c0.552,0,1.013-0.169,1.383-0.508C326.076,179.44,326.311,178.92,326.41,178.217z"/>
			<path fill="#3C3C3B" d="M329.003,171.42v-1.617h1.406v1.617H329.003z M329.003,181.256v-8.297h1.406v8.297H329.003z"/>
			<path fill="#3C3C3B" d="M337.964,180.232c-0.521,0.442-1.022,0.755-1.504,0.938c-0.482,0.183-0.999,0.273-1.551,0.273
				c-0.912,0-1.612-0.223-2.102-0.668c-0.49-0.445-0.734-1.015-0.734-1.707c0-0.406,0.092-0.777,0.277-1.113
				c0.185-0.336,0.427-0.605,0.727-0.809c0.299-0.203,0.637-0.356,1.012-0.461c0.276-0.073,0.692-0.144,1.25-0.211
				c1.135-0.136,1.971-0.297,2.508-0.484c0.005-0.192,0.008-0.315,0.008-0.367c0-0.573-0.133-0.977-0.398-1.211
				c-0.359-0.317-0.894-0.477-1.602-0.477c-0.662,0-1.15,0.116-1.465,0.348c-0.315,0.231-0.548,0.642-0.699,1.23l-1.375-0.188
				c0.125-0.589,0.331-1.063,0.617-1.426c0.286-0.362,0.7-0.641,1.242-0.836c0.542-0.195,1.169-0.293,1.883-0.293
				c0.708,0,1.284,0.083,1.727,0.25c0.442,0.167,0.768,0.376,0.977,0.629c0.208,0.253,0.354,0.571,0.438,0.957
				c0.047,0.239,0.07,0.672,0.07,1.297v1.875c0,1.308,0.03,2.134,0.09,2.48c0.06,0.347,0.178,0.679,0.355,0.996h-1.469
				C338.1,180.964,338.006,180.623,337.964,180.232z M337.847,177.092c-0.511,0.208-1.276,0.386-2.297,0.531
				c-0.578,0.083-0.987,0.177-1.227,0.281c-0.24,0.104-0.425,0.257-0.555,0.457c-0.13,0.2-0.195,0.423-0.195,0.668
				c0,0.375,0.142,0.688,0.426,0.938c0.284,0.25,0.699,0.375,1.246,0.375c0.542,0,1.023-0.118,1.445-0.355s0.731-0.562,0.93-0.973
				c0.151-0.317,0.227-0.786,0.227-1.406V177.092z"/>
			<path fill="#3C3C3B" d="M340.886,178.779l1.391-0.219c0.078,0.558,0.295,0.984,0.652,1.281c0.356,0.297,0.855,0.445,1.496,0.445
				c0.646,0,1.125-0.132,1.438-0.395s0.469-0.571,0.469-0.926c0-0.317-0.138-0.567-0.414-0.75c-0.193-0.125-0.672-0.284-1.438-0.477
				c-1.031-0.261-1.746-0.485-2.145-0.676s-0.701-0.453-0.906-0.789c-0.206-0.336-0.309-0.707-0.309-1.113
				c0-0.37,0.084-0.712,0.254-1.027c0.169-0.315,0.399-0.577,0.691-0.785c0.219-0.161,0.517-0.298,0.895-0.41
				c0.377-0.112,0.782-0.168,1.215-0.168c0.651,0,1.223,0.094,1.715,0.281s0.855,0.441,1.09,0.762s0.396,0.749,0.484,1.285
				l-1.375,0.188c-0.062-0.427-0.244-0.761-0.543-1c-0.3-0.239-0.723-0.359-1.27-0.359c-0.646,0-1.107,0.106-1.383,0.32
				c-0.276,0.214-0.414,0.464-0.414,0.75c0,0.183,0.057,0.347,0.172,0.492c0.114,0.151,0.294,0.276,0.539,0.375
				c0.141,0.052,0.555,0.172,1.242,0.359c0.995,0.266,1.688,0.483,2.082,0.652c0.393,0.169,0.702,0.415,0.926,0.738
				c0.224,0.323,0.336,0.724,0.336,1.203c0,0.469-0.137,0.91-0.41,1.324s-0.668,0.734-1.184,0.961s-1.099,0.34-1.75,0.34
				c-1.078,0-1.9-0.224-2.465-0.672C341.403,180.323,341.042,179.659,340.886,178.779z"/>
			<path fill="#3C3C3B" d="M359.277,181.256v-1.047c-0.526,0.823-1.3,1.234-2.32,1.234c-0.662,0-1.27-0.183-1.824-0.547
				s-0.984-0.874-1.289-1.527s-0.457-1.405-0.457-2.254c0-0.828,0.138-1.579,0.414-2.254c0.276-0.675,0.69-1.191,1.242-1.551
				c0.552-0.359,1.169-0.539,1.852-0.539c0.5,0,0.945,0.105,1.336,0.316s0.708,0.485,0.953,0.824v-4.109h1.398v11.453H359.277z
				 M354.832,177.115c0,1.062,0.224,1.856,0.672,2.383c0.448,0.526,0.977,0.789,1.586,0.789c0.614,0,1.137-0.251,1.566-0.754
				s0.645-1.27,0.645-2.301c0-1.136-0.219-1.969-0.656-2.5s-0.977-0.797-1.617-0.797c-0.625,0-1.147,0.255-1.566,0.766
				C355.041,175.212,354.832,176.017,354.832,177.115z"/>
			<path fill="#3C3C3B" d="M368.472,178.584l1.453,0.18c-0.229,0.849-0.654,1.508-1.273,1.977c-0.62,0.469-1.412,0.703-2.375,0.703
				c-1.214,0-2.176-0.374-2.887-1.121s-1.066-1.796-1.066-3.145c0-1.396,0.359-2.479,1.078-3.25s1.651-1.156,2.797-1.156
				c1.109,0,2.016,0.378,2.719,1.133s1.055,1.817,1.055,3.188c0,0.083-0.003,0.208-0.008,0.375h-6.188
				c0.052,0.911,0.31,1.609,0.773,2.094c0.463,0.484,1.042,0.727,1.734,0.727c0.516,0,0.956-0.136,1.32-0.406
				C367.969,179.61,368.258,179.178,368.472,178.584z M363.855,176.311h4.633c-0.062-0.698-0.24-1.222-0.531-1.57
				c-0.448-0.542-1.029-0.812-1.742-0.812c-0.646,0-1.189,0.216-1.629,0.648C364.145,175.009,363.902,175.587,363.855,176.311z"/>
			<path fill="#3C3C3B" d="M375.542,178.006l1.367-0.188c0.036,0.875,0.2,1.474,0.492,1.797c0.292,0.323,0.695,0.484,1.211,0.484
				c0.38,0,0.708-0.087,0.984-0.262c0.276-0.175,0.466-0.411,0.57-0.711c0.104-0.3,0.156-0.777,0.156-1.434v-7.891h1.516v7.805
				c0,0.958-0.116,1.7-0.348,2.227c-0.232,0.526-0.599,0.927-1.102,1.203c-0.503,0.276-1.093,0.414-1.77,0.414
				c-1.005,0-1.775-0.289-2.309-0.867C375.778,180.006,375.521,179.146,375.542,178.006z"/>
			<path fill="#3C3C3B" d="M389.574,181.256v-1.219c-0.646,0.938-1.523,1.406-2.633,1.406c-0.49,0-0.947-0.094-1.371-0.281
				c-0.425-0.188-0.74-0.423-0.945-0.707c-0.206-0.284-0.351-0.632-0.434-1.043c-0.058-0.276-0.086-0.714-0.086-1.312v-5.141h1.406
				v4.602c0,0.734,0.028,1.229,0.086,1.484c0.088,0.37,0.276,0.66,0.562,0.871c0.286,0.211,0.641,0.316,1.062,0.316
				s0.817-0.108,1.188-0.324c0.37-0.216,0.631-0.511,0.785-0.883c0.153-0.372,0.23-0.913,0.23-1.621v-4.445h1.406v8.297H389.574z"/>
			<path fill="#3C3C3B" d="M392.472,178.779l1.391-0.219c0.078,0.558,0.295,0.984,0.652,1.281c0.356,0.297,0.855,0.445,1.496,0.445
				c0.646,0,1.125-0.132,1.438-0.395s0.469-0.571,0.469-0.926c0-0.317-0.138-0.567-0.414-0.75c-0.193-0.125-0.672-0.284-1.438-0.477
				c-1.031-0.261-1.746-0.485-2.145-0.676s-0.701-0.453-0.906-0.789c-0.206-0.336-0.309-0.707-0.309-1.113
				c0-0.37,0.084-0.712,0.254-1.027c0.169-0.315,0.399-0.577,0.691-0.785c0.219-0.161,0.517-0.298,0.895-0.41
				c0.377-0.112,0.782-0.168,1.215-0.168c0.651,0,1.223,0.094,1.715,0.281s0.855,0.441,1.09,0.762s0.396,0.749,0.484,1.285
				l-1.375,0.188c-0.062-0.427-0.244-0.761-0.543-1c-0.3-0.239-0.723-0.359-1.27-0.359c-0.646,0-1.107,0.106-1.383,0.32
				c-0.276,0.214-0.414,0.464-0.414,0.75c0,0.183,0.057,0.347,0.172,0.492c0.114,0.151,0.294,0.276,0.539,0.375
				c0.141,0.052,0.555,0.172,1.242,0.359c0.995,0.266,1.688,0.483,2.082,0.652c0.393,0.169,0.702,0.415,0.926,0.738
				c0.224,0.323,0.336,0.724,0.336,1.203c0,0.469-0.137,0.91-0.41,1.324s-0.668,0.734-1.184,0.961s-1.099,0.34-1.75,0.34
				c-1.078,0-1.9-0.224-2.465-0.672C392.989,180.323,392.628,179.659,392.472,178.779z"/>
			<path fill="#3C3C3B" d="M404.105,179.998l0.203,1.242c-0.396,0.083-0.75,0.125-1.062,0.125c-0.511,0-0.906-0.081-1.188-0.242
				s-0.479-0.374-0.594-0.637c-0.115-0.263-0.172-0.816-0.172-1.66v-4.773h-1.031v-1.094h1.031v-2.055l1.398-0.844v2.898h1.414
				v1.094h-1.414v4.852c0,0.401,0.024,0.659,0.074,0.773c0.049,0.114,0.13,0.206,0.242,0.273c0.112,0.067,0.272,0.102,0.48,0.102
				C403.644,180.053,403.85,180.034,404.105,179.998z"/>
			<path fill="#3C3C3B" d="M405.488,171.42v-1.617h1.406v1.617H405.488z M405.488,181.256v-8.297h1.406v8.297H405.488z"/>
			<path fill="#3C3C3B" d="M414.449,178.217l1.383,0.18c-0.151,0.953-0.538,1.699-1.16,2.238c-0.623,0.539-1.387,0.809-2.293,0.809
				c-1.136,0-2.048-0.371-2.738-1.113c-0.69-0.742-1.035-1.806-1.035-3.191c0-0.896,0.148-1.68,0.445-2.352s0.749-1.176,1.355-1.512
				c0.606-0.336,1.267-0.504,1.98-0.504c0.901,0,1.638,0.228,2.211,0.684c0.573,0.456,0.94,1.103,1.102,1.941l-1.367,0.211
				c-0.13-0.558-0.361-0.977-0.691-1.258c-0.331-0.281-0.73-0.422-1.199-0.422c-0.708,0-1.284,0.254-1.727,0.762
				c-0.443,0.508-0.664,1.312-0.664,2.41c0,1.114,0.213,1.925,0.641,2.43c0.427,0.505,0.984,0.758,1.672,0.758
				c0.552,0,1.013-0.169,1.383-0.508C414.115,179.44,414.35,178.92,414.449,178.217z"/>
			<path fill="#3C3C3B" d="M417.042,171.42v-1.617h1.406v1.617H417.042z M417.042,181.256v-8.297h1.406v8.297H417.042z"/>
			<path fill="#3C3C3B" d="M426.003,180.232c-0.521,0.442-1.022,0.755-1.504,0.938c-0.482,0.183-0.999,0.273-1.551,0.273
				c-0.912,0-1.612-0.223-2.102-0.668c-0.49-0.445-0.734-1.015-0.734-1.707c0-0.406,0.092-0.777,0.277-1.113
				c0.185-0.336,0.427-0.605,0.727-0.809c0.299-0.203,0.637-0.356,1.012-0.461c0.276-0.073,0.692-0.144,1.25-0.211
				c1.135-0.136,1.971-0.297,2.508-0.484c0.005-0.192,0.008-0.315,0.008-0.367c0-0.573-0.133-0.977-0.398-1.211
				c-0.359-0.317-0.894-0.477-1.602-0.477c-0.662,0-1.15,0.116-1.465,0.348c-0.315,0.231-0.548,0.642-0.699,1.23l-1.375-0.188
				c0.125-0.589,0.331-1.063,0.617-1.426c0.286-0.362,0.7-0.641,1.242-0.836c0.542-0.195,1.169-0.293,1.883-0.293
				c0.708,0,1.284,0.083,1.727,0.25c0.442,0.167,0.768,0.376,0.977,0.629c0.208,0.253,0.354,0.571,0.438,0.957
				c0.047,0.239,0.07,0.672,0.07,1.297v1.875c0,1.308,0.03,2.134,0.09,2.48c0.06,0.347,0.178,0.679,0.355,0.996h-1.469
				C426.139,180.964,426.045,180.623,426.003,180.232z M425.886,177.092c-0.511,0.208-1.276,0.386-2.297,0.531
				c-0.578,0.083-0.987,0.177-1.227,0.281c-0.24,0.104-0.425,0.257-0.555,0.457c-0.13,0.2-0.195,0.423-0.195,0.668
				c0,0.375,0.142,0.688,0.426,0.938c0.284,0.25,0.699,0.375,1.246,0.375c0.542,0,1.023-0.118,1.445-0.355s0.731-0.562,0.93-0.973
				c0.151-0.317,0.227-0.786,0.227-1.406V177.092z"/>
			<path fill="#3C3C3B" d="M433.871,184.451l-0.156-1.32c0.307,0.083,0.575,0.125,0.805,0.125c0.312,0,0.562-0.052,0.75-0.156
				s0.341-0.25,0.461-0.438c0.088-0.141,0.231-0.489,0.43-1.047c0.026-0.078,0.067-0.192,0.125-0.344l-3.148-8.312h1.516
				l1.727,4.805c0.224,0.609,0.424,1.25,0.602,1.922c0.161-0.646,0.354-1.276,0.578-1.891l1.773-4.836h1.406l-3.156,8.438
				c-0.339,0.911-0.602,1.539-0.789,1.883c-0.25,0.464-0.537,0.804-0.859,1.02c-0.323,0.216-0.708,0.324-1.156,0.324
				C434.506,184.623,434.204,184.565,433.871,184.451z"/>
			<path fill="#3C3C3B" d="M446.558,181.256v-11.453h4.32c0.76,0,1.341,0.036,1.742,0.109c0.562,0.094,1.034,0.272,1.414,0.535
				c0.38,0.263,0.686,0.632,0.918,1.105c0.231,0.474,0.348,0.995,0.348,1.562c0,0.974-0.31,1.798-0.93,2.473
				c-0.62,0.675-1.74,1.012-3.359,1.012h-2.938v4.656H446.558z M448.074,175.248h2.961c0.979,0,1.674-0.183,2.086-0.547
				c0.411-0.364,0.617-0.878,0.617-1.539c0-0.479-0.121-0.89-0.363-1.23s-0.562-0.566-0.957-0.676
				c-0.255-0.067-0.727-0.102-1.414-0.102h-2.93V175.248z"/>
			<path fill="#3C3C3B" d="M462.464,180.232c-0.521,0.442-1.022,0.755-1.504,0.938c-0.482,0.183-0.999,0.273-1.551,0.273
				c-0.912,0-1.612-0.223-2.102-0.668c-0.49-0.445-0.734-1.015-0.734-1.707c0-0.406,0.092-0.777,0.277-1.113
				c0.185-0.336,0.427-0.605,0.727-0.809c0.299-0.203,0.637-0.356,1.012-0.461c0.276-0.073,0.692-0.144,1.25-0.211
				c1.135-0.136,1.971-0.297,2.508-0.484c0.005-0.192,0.008-0.315,0.008-0.367c0-0.573-0.133-0.977-0.398-1.211
				c-0.359-0.317-0.894-0.477-1.602-0.477c-0.662,0-1.15,0.116-1.465,0.348c-0.315,0.231-0.548,0.642-0.699,1.23l-1.375-0.188
				c0.125-0.589,0.331-1.063,0.617-1.426c0.286-0.362,0.7-0.641,1.242-0.836c0.542-0.195,1.169-0.293,1.883-0.293
				c0.708,0,1.284,0.083,1.727,0.25c0.442,0.167,0.768,0.376,0.977,0.629c0.208,0.253,0.354,0.571,0.438,0.957
				c0.047,0.239,0.07,0.672,0.07,1.297v1.875c0,1.308,0.03,2.134,0.09,2.48c0.06,0.347,0.178,0.679,0.355,0.996h-1.469
				C462.6,180.964,462.506,180.623,462.464,180.232z M462.347,177.092c-0.511,0.208-1.276,0.386-2.297,0.531
				c-0.578,0.083-0.987,0.177-1.227,0.281c-0.24,0.104-0.425,0.257-0.555,0.457c-0.13,0.2-0.195,0.423-0.195,0.668
				c0,0.375,0.142,0.688,0.426,0.938c0.284,0.25,0.699,0.375,1.246,0.375c0.542,0,1.023-0.118,1.445-0.355s0.731-0.562,0.93-0.973
				c0.151-0.317,0.227-0.786,0.227-1.406V177.092z"/>
			<path fill="#3C3C3B" d="M465.207,181.256v-1.141l5.281-6.062c-0.599,0.031-1.128,0.047-1.586,0.047h-3.383v-1.141h6.781v0.93
				l-4.492,5.266l-0.867,0.961c0.63-0.047,1.221-0.07,1.773-0.07h3.836v1.211H465.207z"/>
			<path fill="#3C3C3B" d="M474.339,174.561v-1.602h1.602v1.602H474.339z M474.339,181.256v-1.602h1.602v1.602H474.339z"/>
			<path fill="#3C3C3B" d="M483.097,181.256v-11.453h7.727v1.352h-6.211v3.547h5.375v1.352h-5.375v5.203H483.097z"/>
			<path fill="#3C3C3B" d="M492.621,171.42v-1.617h1.406v1.617H492.621z M492.621,181.256v-8.297h1.406v8.297H492.621z"/>
			<path fill="#3C3C3B" d="M501.847,178.584l1.453,0.18c-0.229,0.849-0.654,1.508-1.273,1.977c-0.62,0.469-1.412,0.703-2.375,0.703
				c-1.214,0-2.176-0.374-2.887-1.121s-1.066-1.796-1.066-3.145c0-1.396,0.359-2.479,1.078-3.25s1.651-1.156,2.797-1.156
				c1.109,0,2.016,0.378,2.719,1.133s1.055,1.817,1.055,3.188c0,0.083-0.003,0.208-0.008,0.375h-6.188
				c0.052,0.911,0.31,1.609,0.773,2.094c0.463,0.484,1.042,0.727,1.734,0.727c0.516,0,0.956-0.136,1.32-0.406
				C501.344,179.61,501.633,179.178,501.847,178.584z M497.23,176.311h4.633c-0.062-0.698-0.24-1.222-0.531-1.57
				c-0.448-0.542-1.029-0.812-1.742-0.812c-0.646,0-1.189,0.216-1.629,0.648C497.52,175.009,497.277,175.587,497.23,176.311z"/>
			<path fill="#3C3C3B" d="M505.05,181.256v-8.297h1.266v1.258c0.323-0.589,0.621-0.977,0.895-1.164s0.574-0.281,0.902-0.281
				c0.474,0,0.956,0.151,1.445,0.453l-0.484,1.305c-0.344-0.203-0.688-0.305-1.031-0.305c-0.308,0-0.583,0.093-0.828,0.277
				c-0.245,0.185-0.419,0.441-0.523,0.77c-0.156,0.5-0.234,1.047-0.234,1.641v4.344H505.05z"/>
			<path fill="#3C3C3B" d="M510.378,181.256v-8.297h1.266v1.258c0.323-0.589,0.621-0.977,0.895-1.164s0.574-0.281,0.902-0.281
				c0.474,0,0.956,0.151,1.445,0.453l-0.484,1.305c-0.344-0.203-0.688-0.305-1.031-0.305c-0.308,0-0.583,0.093-0.828,0.277
				c-0.245,0.185-0.419,0.441-0.523,0.77c-0.156,0.5-0.234,1.047-0.234,1.641v4.344H510.378z"/>
			<path fill="#3C3C3B" d="M515.199,177.107c0-1.536,0.427-2.675,1.281-3.414c0.713-0.614,1.583-0.922,2.609-0.922
				c1.141,0,2.073,0.374,2.797,1.121c0.724,0.747,1.086,1.78,1.086,3.098c0,1.067-0.16,1.907-0.48,2.52s-0.787,1.087-1.398,1.426
				c-0.612,0.339-1.28,0.508-2.004,0.508c-1.162,0-2.101-0.372-2.816-1.117C515.557,179.581,515.199,178.509,515.199,177.107z
				 M516.644,177.107c0,1.062,0.231,1.858,0.695,2.387c0.463,0.528,1.047,0.793,1.75,0.793c0.698,0,1.278-0.266,1.742-0.797
				c0.463-0.531,0.695-1.341,0.695-2.43c0-1.026-0.233-1.804-0.699-2.332c-0.466-0.528-1.046-0.793-1.738-0.793
				c-0.703,0-1.287,0.263-1.75,0.789C516.875,175.251,516.644,176.045,516.644,177.107z"/>
			<path fill="#3C3C3B" d="M270.542,200.456v-11.453h7.727v1.352h-6.211v3.547h5.375v1.352h-5.375v5.203H270.542z"/>
			<path fill="#3C3C3B" d="M280.027,200.456v-11.453h1.406v11.453H280.027z"/>
			<path fill="#3C3C3B" d="M283.089,196.308c0-1.536,0.427-2.675,1.281-3.414c0.713-0.614,1.583-0.922,2.609-0.922
				c1.141,0,2.073,0.374,2.797,1.121c0.724,0.747,1.086,1.78,1.086,3.098c0,1.067-0.16,1.907-0.48,2.52s-0.787,1.087-1.398,1.426
				c-0.612,0.339-1.28,0.508-2.004,0.508c-1.162,0-2.101-0.372-2.816-1.117C283.447,198.781,283.089,197.709,283.089,196.308z
				 M284.535,196.308c0,1.062,0.231,1.858,0.695,2.387c0.463,0.528,1.047,0.793,1.75,0.793c0.698,0,1.278-0.266,1.742-0.797
				c0.463-0.531,0.695-1.341,0.695-2.43c0-1.026-0.233-1.804-0.699-2.332c-0.466-0.528-1.046-0.793-1.738-0.793
				c-0.703,0-1.287,0.263-1.75,0.789C284.766,194.451,284.535,195.245,284.535,196.308z M286.199,191.128l1.039-2.188h1.844
				l-1.719,2.188H286.199z"/>
			<path fill="#3C3C3B" d="M292.496,200.456v-8.297h1.266v1.258c0.323-0.589,0.621-0.977,0.895-1.164s0.574-0.281,0.902-0.281
				c0.474,0,0.956,0.151,1.445,0.453l-0.484,1.305c-0.344-0.203-0.688-0.305-1.031-0.305c-0.308,0-0.583,0.093-0.828,0.277
				c-0.245,0.185-0.419,0.441-0.523,0.77c-0.156,0.5-0.234,1.047-0.234,1.641v4.344H292.496z"/>
			<path fill="#3C3C3B" d="M303.519,197.784l1.453,0.18c-0.229,0.849-0.654,1.508-1.273,1.977c-0.62,0.469-1.412,0.703-2.375,0.703
				c-1.214,0-2.176-0.374-2.887-1.121s-1.066-1.796-1.066-3.145c0-1.396,0.359-2.479,1.078-3.25s1.651-1.156,2.797-1.156
				c1.109,0,2.016,0.378,2.719,1.133s1.055,1.817,1.055,3.188c0,0.083-0.003,0.208-0.008,0.375h-6.188
				c0.052,0.911,0.31,1.609,0.773,2.094c0.463,0.484,1.042,0.727,1.734,0.727c0.516,0,0.956-0.136,1.32-0.406
				C303.016,198.811,303.305,198.378,303.519,197.784z M298.902,195.511h4.633c-0.062-0.698-0.24-1.222-0.531-1.57
				c-0.448-0.542-1.029-0.812-1.742-0.812c-0.646,0-1.189,0.216-1.629,0.648C299.192,194.209,298.949,194.787,298.902,195.511z"/>
			<path fill="#3C3C3B" d="M305.996,200.456v-1.141l5.281-6.062c-0.599,0.031-1.128,0.047-1.586,0.047h-3.383v-1.141h6.781v0.93
				l-4.492,5.266l-0.867,0.961c0.63-0.047,1.221-0.07,1.773-0.07h3.836v1.211H305.996z"/>
		</g>
	</g>
	<path fill="#F39200" d="M2.458,6.3l0.931,0.865L3.91,7.788c0.008,0.01,0.015,0.021,0.021,0.033L4.1,8.159
		c0.006,0.014,0.012,0.029,0.015,0.045l0.162,0.909l0.17,0.257l0.253,0.221c0.009,0.011,0.018,0.019,0.024,0.028l0.203,0.27
		c0.014,0.019,0.024,0.04,0.029,0.063l0.101,0.438c0.006,0.025,0.006,0.053,0,0.079l-0.102,0.404l-0.204,0.45L4.66,11.818
		l0.028,0.226l0.434,1.234c0.005,0.018,0.008,0.035,0.008,0.054v0.474l-0.169,1.972l0.068,1.464l-0.068,0.537
		c-0.004,0.021-0.011,0.041-0.021,0.06l-0.438,0.776c-0.014,0.022-0.031,0.04-0.052,0.056L3.17,19.558l-0.375,0.778l-0.131,1.021
		l-0.14,0.528c-0.004,0.018-0.012,0.033-0.022,0.048l-0.271,0.406l-0.369,0.439L0.53,25.412l-0.164,0.784l-0.303,0.752L0,27.409
		l0.088,0.562l0.205,0.206L0.63,28.3c0.014,0.005,0.027,0.012,0.038,0.02l0.423,0.292l0.15,0.062L1.888,28.8
		c0.029,0.006,0.056,0.021,0.078,0.038l0.271,0.236c0.01,0.007,0.018,0.017,0.024,0.025l0.203,0.271
		c0.008,0.011,0.015,0.022,0.021,0.035l0.318,0.707l0.283,0.157c0.03,0.016,0.053,0.041,0.069,0.071l0.102,0.203
		c0.014,0.028,0.02,0.062,0.017,0.094l-0.069,0.607c0,0.016-0.005,0.03-0.011,0.044l-0.134,0.338
		c-0.012,0.029-0.031,0.055-0.056,0.074l-0.269,0.2l-0.836,0.422l-0.177,0.128l-0.104,0.233l-0.031,0.478v1.052l0.093,0.437
		l0.195,0.422l0.178,0.264l0.761,0.696c0.021,0.02,0.038,0.043,0.046,0.07l0.135,0.406c0.01,0.028,0.012,0.059,0.004,0.087
		l-0.1,0.475l-0.175,0.523l-0.09,0.394l0.059,0.407l0.171,0.286l0.588,0.523c0.008,0.007,0.017,0.018,0.025,0.027l0.269,0.371
		c0.015,0.021,0.025,0.044,0.03,0.068l0.067,0.372c0.006,0.026,0.003,0.052-0.004,0.079l-0.27,0.91l-0.329,2.013l0.105,0.686
		l0.509-0.078c0.059-0.007,0.118,0.016,0.156,0.062l0.168,0.2l0.359,0.497l0.173-0.096l0.333-0.114
		c0.017-0.006,0.036-0.01,0.053-0.01h0.305c0.031,0,0.062,0.01,0.089,0.026l0.27,0.169c0.022,0.013,0.042,0.033,0.056,0.056
		l0.101,0.17c0.007,0.012,0.013,0.024,0.017,0.038l0.093,0.308l0.047,0.063l0.057,0.016h0.283c0.018,0,0.036,0.002,0.053,0.009
		l0.102,0.031l0.399,0.216c0.014,0.009,0.026,0.018,0.039,0.03l0.168,0.168c0.016,0.016,0.029,0.036,0.038,0.056l0.067,0.169
		c0.005,0.015,0.009,0.029,0.012,0.045l0.028,0.263l0.234,0.352l0.183,0.152l0.696,0.462c0.01,0.007,0.021,0.016,0.031,0.025
		l0.371,0.406c0.019,0.02,0.032,0.044,0.038,0.069l0.196,0.716l0.106,0.16l0.156,0.131l0.18,0.049h0.143l0,0l0.085-0.083
		l0.218-0.316c0.014-0.021,0.034-0.037,0.057-0.05l0.371-0.203c0.02-0.013,0.043-0.018,0.066-0.021l0.372-0.034l0.773,0.067
		c0.047,0.005,0.091,0.028,0.12,0.067l0.1,0.136c0.014,0.016,0.023,0.034,0.028,0.056l0.169,0.607l0.061,0.116l0.19,0.087
		l0.119-0.041l0.184-0.123c0.015-0.009,0.03-0.017,0.048-0.021l0.236-0.067c0.019-0.005,0.04-0.005,0.059-0.005l0.439,0.031
		c0.014,0.003,0.028,0.006,0.041,0.012l0.506,0.166l0.466,0.25c0.022,0.011,0.042,0.027,0.056,0.049l0.17,0.236
		c0.018,0.026,0.029,0.059,0.031,0.09l0.031,0.584l0.084,0.102l0.804,0.033c0.03,0,0.061,0.01,0.087,0.029l0.405,0.268
		c0.019,0.013,0.036,0.031,0.048,0.05l0.608,0.946l0.309,0.399l0.917,0.524c0.01,0.005,0.019,0.013,0.028,0.021l0.304,0.269
		c0.038,0.032,0.058,0.081,0.057,0.133c-0.002,0.052-0.028,0.099-0.067,0.127l-0.035,0.026l0.37,0.155l0.725,0.188l0.601-0.057
		l0.327-0.478c0.028-0.04,0.073-0.065,0.124-0.07c0.053-0.003,0.099,0.014,0.135,0.048l0.237,0.236l0.288,0.224
		c0.011,0.009,0.021,0.021,0.031,0.03l0.202,0.271c0.035,0.046,0.044,0.105,0.024,0.159l-0.086,0.234l0.582,0.317l1.852,0.1
		c0.02,0,0.039,0.005,0.057,0.013l0.642,0.271c0.083,0.035,0.125,0.132,0.091,0.216l-0.256,0.643l0.03,0.606l0.077,0.175l0.473-1.47
		c0.004-0.012,0.008-0.022,0.015-0.034l0.236-0.405l0.223-0.645c0.004-0.012,0.009-0.023,0.015-0.032l0.481-0.782l-0.507-0.684
		l-0.659-0.655c-0.008-0.011-0.016-0.02-0.023-0.029L24.2,51.137c-0.011-0.017-0.019-0.036-0.023-0.056l-0.102-0.473l-0.033-0.411
		l-0.021-0.028h-0.085l-0.355,0.032c-0.014,0.002-0.032,0.001-0.047-0.002l-0.877-0.169c-0.014-0.002-0.025-0.006-0.037-0.011
		l-0.304-0.136c-0.034-0.015-0.061-0.04-0.08-0.073l-0.168-0.302c-0.014-0.026-0.021-0.056-0.021-0.084v-0.338l0,0
		c0-0.034,0.01-0.067,0.03-0.097l0.207-0.294V48.48l-0.032-0.176l-0.066-0.784l-0.071-0.117l-0.12-0.122L21.6,46.955
		c-0.017-0.015-0.032-0.033-0.042-0.053l-0.236-0.474c-0.01-0.019-0.015-0.038-0.018-0.059l-0.128-1.221l-0.344-0.313l-0.456-0.262
		c-0.012-0.005-0.021-0.014-0.032-0.022l-0.966-0.899l-1.233-0.733c-0.049-0.028-0.08-0.081-0.083-0.138
		c-0.002-0.058,0.025-0.112,0.072-0.146l0.657-0.46l1.066-1.265c0.013-0.016,0.027-0.028,0.043-0.038l0.406-0.236l0.359-0.146
		c0.013-0.007,0.027-0.008,0.041-0.009l0.506-0.069c0.018-0.002,0.034-0.002,0.052,0.002l0.372,0.067l0.252,0.07l0.34,0.028
		l0.187,0.037c0.025,0.005,0.05,0.017,0.07,0.031l0.304,0.236l0.138,0.066h0.806l0.397,0.03l0.124-0.074l0.948-0.542
		c0.016-0.009,0.033-0.017,0.051-0.019l0.169-0.033c0.036-0.008,0.074-0.003,0.108,0.014l0.135,0.067
		c0.026,0.013,0.049,0.033,0.065,0.058l0.14,0.212l0.171-0.219l-0.713-2.107l-0.564-1.057c-0.021-0.041-0.025-0.092-0.009-0.135
		l0.121-0.334l-0.088-0.677l-0.934-0.868l-0.22-0.155c-0.014-0.01-0.028-0.021-0.038-0.038l-1.317-1.789l-0.349-0.313l-0.321-0.224
		l-0.275-0.119c-0.026-0.01-0.047-0.026-0.065-0.05l-0.236-0.303l-0.616-0.958l-0.713-1.257c-0.008-0.012-0.014-0.027-0.018-0.043
		l-0.068-0.27c-0.003-0.015-0.004-0.027-0.004-0.042v-0.336l0,0c0-0.017,0.002-0.032,0.006-0.047l0.269-0.978l0.131-1.059
		c0.004-0.027,0.016-0.056,0.033-0.078l0.396-0.525l0.227-0.493c0.009-0.017,0.021-0.033,0.034-0.048l0.238-0.236l0.315-0.48
		l0.714-0.75l0.193-0.322l0.393-0.992c0.009-0.02,0.023-0.039,0.037-0.055l0.439-0.438l0.312-0.277
		c0.017-0.015,0.037-0.027,0.059-0.035l0.304-0.099l0.829-0.176l0.284-0.097c0.018-0.005,0.036-0.009,0.054-0.009h0.203
		c0.015,0,0.03,0.003,0.044,0.007l0.349,0.095h0.188l0.828-0.255l0.788-0.557c0.019-0.015,0.04-0.023,0.061-0.029l0.287-0.063
		l0.319-0.145l0.28-0.342c0.017-0.02,0.038-0.038,0.063-0.048l0.235-0.102c0.015-0.005,0.03-0.009,0.046-0.01l0.527-0.063
		l0.097-0.079l0.22-0.533c0.018-0.041,0.052-0.075,0.094-0.092l0.169-0.067l0.654-0.207l0.48-0.21l0.101-0.143l-0.015-0.089
		l-0.119-0.144l-0.211-0.12c-0.012-0.008-0.024-0.019-0.035-0.028l-0.102-0.101c-0.018-0.018-0.032-0.042-0.041-0.064l-0.068-0.203
		c-0.009-0.028-0.011-0.059-0.005-0.086l0.068-0.338l-0.003-0.34l-0.134-0.817l-0.096-0.316l-0.194-0.416
		c-0.021-0.047-0.021-0.102,0.004-0.149l0.609-1.148c0.007-0.015,0.018-0.027,0.03-0.04l0.236-0.236l0.275-0.39l-0.041-0.188
		l-0.187-0.213l-0.291-0.146l-0.388-0.097l-0.313-0.027l-0.304,0.031c-0.033,0.004-0.065-0.001-0.093-0.017l-0.202-0.102
		c-0.079-0.038-0.115-0.132-0.082-0.213l0.135-0.338c0.004-0.01,0.009-0.021,0.016-0.03l0.72-1.081l0.025-0.196l-0.463-1.656
		l-0.141-0.967l-0.087-0.256l-0.26-0.423c-0.011-0.017-0.018-0.035-0.022-0.056l-0.033-0.169l-0.004-0.269
		c0-0.012,0.002-0.024,0.005-0.038l0.134-0.575l0.132-0.336l0.066-1.187l0.034-0.282l-0.001-0.25L29.41,4.925
		c-0.008-0.041-0.001-0.082,0.019-0.118l0.134-0.234c0.021-0.038,0.057-0.065,0.098-0.079l0.297-0.088l0.072-0.073l0.288-0.386
		c0.013-0.017,0.028-0.031,0.046-0.044l0.23-0.142l0.079-0.16l0.418-1.26l-0.048-0.454h-0.456l-2.553,0.204l-2.76-0.204
		c-0.014,0-0.027-0.003-0.038-0.008L24.36,1.608c-0.013-0.004-0.025-0.009-0.036-0.016l-0.721-0.425l-1.021-0.231l-0.194-0.075
		c-0.019-0.007-0.035-0.019-0.051-0.034l-0.405-0.369l-0.339-0.245L21.194,0.06L20.679,0l-0.271,0.098l-0.02,0.1
		c-0.015,0.079-0.085,0.135-0.167,0.135h-0.168c-0.045,0-0.088-0.017-0.119-0.048l-0.037-0.038L19.8,0.442
		c-0.018,0.032-0.043,0.06-0.076,0.076l-0.203,0.101c-0.042,0.021-0.091,0.023-0.134,0.005l-0.272-0.099
		c-0.039-0.015-0.072-0.045-0.091-0.083l-0.055-0.11C18.955,0.41,18.887,0.47,18.804,0.47h-0.168c-0.034,0-0.067-0.012-0.095-0.031
		l-0.206,0.295c-0.036,0.051-0.095,0.079-0.157,0.071c-0.048-0.005-0.091-0.03-0.119-0.068c-0.007,0.039-0.028,0.073-0.06,0.099
		L17.83,0.973c-0.042,0.031-0.095,0.043-0.146,0.03L17.432,0.94h-0.249l-0.236,0.448v0.193c0,0.045-0.018,0.089-0.05,0.119
		l-0.303,0.305l-0.396,0.581L16.18,2.736l0.077,0.077c0.037,0.037,0.055,0.09,0.048,0.141l-0.034,0.271
		c-0.004,0.036-0.021,0.071-0.047,0.098l-0.2,0.199l0.04,0.143l0.191,0.375l0.078,0.267c0.008,0.021,0.009,0.047,0.005,0.069
		l-0.034,0.236c-0.001,0.013-0.004,0.022-0.008,0.033l-0.125,0.345v0.214l0.048,0.145l0.317,0.381
		c0.017,0.021,0.028,0.043,0.034,0.067l0.067,0.271c0.009,0.033,0.006,0.071-0.008,0.104l-0.067,0.167
		c-0.003,0.012-0.01,0.023-0.016,0.033l-1.418,2.093l-0.214,0.465L14.75,9.784c-0.004,0.018-0.009,0.03-0.015,0.046l-0.067,0.135
		c-0.006,0.01-0.013,0.021-0.021,0.03l-0.29,0.353l-0.347,0.76v0.773c0,0.028-0.006,0.057-0.021,0.081l-0.661,1.189l-0.028,0.175
		c-0.008,0.046-0.034,0.087-0.074,0.112l-0.1,0.068l-0.415,0.418c-0.012,0.013-0.027,0.022-0.043,0.03l-0.202,0.103
		c-0.014,0.007-0.027,0.011-0.042,0.013l-0.169,0.035l-0.934,0.071c-0.015,0-0.029,0-0.044-0.002l-0.339-0.069
		c-0.041-0.008-0.076-0.031-0.101-0.065l-0.202-0.269c-0.019-0.025-0.031-0.057-0.034-0.087l-0.1-1.097l-0.117-0.381l-0.241-0.241
		l-0.122-0.028l0,0.003c0.012,0.052,0,0.106-0.032,0.147l-0.283,0.378l-0.08,0.236l0.053,0.267l0.082,0.144l0.064,0.009l0.184-0.104
		c0.059-0.033,0.133-0.027,0.187,0.013c0.054,0.041,0.078,0.109,0.061,0.176l-0.102,0.404c-0.009,0.038-0.031,0.07-0.062,0.095
		l-0.271,0.201c-0.028,0.023-0.064,0.034-0.101,0.034H9.35c-0.02,0-0.042-0.003-0.062-0.011L8.95,13.793
		c-0.061-0.024-0.103-0.083-0.106-0.15l-0.032-0.877l0.008-0.074H8.777c-0.031,0-0.062-0.007-0.087-0.025l-0.168-0.102
		c-0.029-0.017-0.05-0.04-0.065-0.068l-0.021-0.043l-0.069,0.279L8.227,13.12c-0.018,0.049-0.056,0.086-0.105,0.103l-0.305,0.101
		c-0.067,0.021-0.141,0-0.185-0.055l-0.135-0.168c-0.02-0.025-0.032-0.056-0.036-0.089l-0.034-0.337v-0.728
		c0-0.013,0.001-0.022,0.002-0.035l0.069-0.305l0.138-0.482l0.177-0.395c0.014-0.032,0.037-0.058,0.067-0.075l0.168-0.102
		c0.049-0.03,0.111-0.033,0.162-0.004l0.304,0.148h0.5c0.05,0,0.097,0.022,0.13,0.061l0.042,0.052l0.106-0.122
		c0.058-0.066,0.159-0.076,0.23-0.021l0.396,0.326l-0.212-0.422L9.43,9.884C9.416,9.847,9.414,9.806,9.427,9.768l0.102-0.304
		c0.013-0.042,0.044-0.078,0.084-0.099l0.109-0.054V9.18L9.69,8.931c-0.003-0.025,0-0.052,0.007-0.073l0.067-0.203
		c0.017-0.05,0.054-0.087,0.102-0.104L10.1,8.461L9.461,8.367L8.332,8.094L6.629,7.517L4.424,6.601l-1.71-0.571L2.238,5.782
		l0.048,0.26L2.458,6.3z"/>
	<g>
		<g>
			<g enable-background="new    ">
				<path fill="#331842" d="M278.372,141.165l3.053,10.117l2.24-9.375l5.974,0.049c-0.104,2.116-0.157,4.252-0.157,6.406
					c0,2.402,0.065,4.834,0.196,7.295l-3.812,0.195c0-2.591-0.039-5.758-0.117-9.502l-2.136,8.584l-4.062,0.205l-2.62-9.258
					l-0.052,9.375l-3.196,0.166c0.061-2.142,0.091-4.268,0.091-6.377c0-2.63-0.048-5.228-0.144-7.793L278.372,141.165z"/>
				<path fill="#331842" d="M290.071,155.257c1.642-5.56,2.969-10.273,3.982-14.141l4.913-0.059c1.205,4.023,2.585,8.607,4.14,13.75
					l-3.354,0.508l-1.061-3.701h-4.074l-1.101,3.994L290.071,155.257z M298.587,148.87c-0.455-1.406-1.197-3.089-2.228-5.049
					c-0.795,1.647-1.467,3.354-2.018,5.117L298.587,148.87z"/>
				<path fill="#331842" d="M314.438,146.771l-2.974,0.02c-0.044-1.653-0.604-2.522-1.678-2.607h-0.235
					c-0.961,0-1.738,0.473-2.332,1.416c-0.594,0.944-0.891,2.282-0.891,4.014v0.43c0.053,1.94,0.965,2.91,2.738,2.91
					c1.223,0,1.834-0.742,1.834-2.227c0-0.149-0.005-0.303-0.014-0.459l-2.606,0.029l0.131-2.197l6.694,0.078v2.393l-1.336,0.02
					c0,3.398-1.817,5.098-5.45,5.098c-3.362,0-5.044-1.998-5.044-5.996c0-0.332,0.014-0.68,0.039-1.045
					c0.306-4.693,2.311-7.139,6.014-7.334c0.184-0.006,0.358-0.01,0.524-0.01c3.082,0,4.624,1.55,4.624,4.648
					C314.478,146.211,314.465,146.484,314.438,146.771z"/>
				<path fill="#331842" d="M316.364,155.276c0.017-2.193,0.026-4.453,0.026-6.777c0-2.33-0.01-4.723-0.026-7.178
					c1.004-0.091,1.93-0.137,2.777-0.137c2.357,0,4.096,0.352,5.214,1.055c1.52,0.964,2.314,2.744,2.384,5.342v0.703
					c0,2.227-0.288,3.815-0.864,4.766c-0.638,1.049-1.804,1.745-3.498,2.09c-0.979,0.202-2.053,0.303-3.223,0.303
					C318.281,155.442,317.351,155.388,316.364,155.276z M319.613,144.114c-0.149,2.143-0.223,4.213-0.223,6.211
					c0,0.756,0.008,1.498,0.025,2.227c0.306,0.053,0.599,0.078,0.878,0.078c0.769,0,1.415-0.198,1.939-0.596
					c0.716-0.533,1.074-1.731,1.074-3.594v-0.039c-0.009-1.875-0.358-3.105-1.049-3.691c-0.532-0.442-1.166-0.664-1.899-0.664
					C320.124,144.046,319.875,144.069,319.613,144.114z"/>
				<path fill="#331842" d="M326.962,155.257c1.643-5.56,2.97-10.273,3.982-14.141l4.913-0.059c1.205,4.023,2.585,8.607,4.14,13.75
					l-3.354,0.508l-1.062-3.701h-4.074l-1.101,3.994L326.962,155.257z M335.478,148.87c-0.454-1.406-1.196-3.089-2.228-5.049
					c-0.794,1.647-1.467,3.354-2.017,5.117L335.478,148.87z"/>
				<path fill="#331842" d="M344.347,140.96c-0.157,3.393-0.235,6.299-0.235,8.721c0,0.964,0.013,1.853,0.039,2.666l5.843-0.215
					l0.092,3.184l-9.354,0.156c0.008-0.859,0.013-1.715,0.013-2.568c0-3.912-0.113-7.806-0.341-11.68L344.347,140.96z"/>
				<path fill="#331842" d="M359.753,141.585v2.754l-5.175-0.156v3.203l4.651-0.098l0.117,2.646h-4.152v2.48h5.437v2.773
					l-9.065-0.098c0.096-1.829,0.144-3.672,0.144-5.527c0-2.571-0.092-5.166-0.274-7.783
					C353.408,141.722,356.181,141.657,359.753,141.585z"/>
				<path fill="#331842" d="M361.94,155.364c0.105-2.227,0.157-4.395,0.157-6.504c0-2.435-0.069-4.795-0.209-7.08l3.852-0.137
					l3.537,7.354c-0.035-2.525-0.131-5.11-0.288-7.754l4.048-0.039c-0.402,3.991-0.603,8.021-0.603,12.09
					c0,0.547,0.004,1.094,0.013,1.641l-3.55,0.029l-3.773-7.871c0.113,2.904,0.219,5.603,0.314,8.096L361.94,155.364z"/>
				<path fill="#331842" d="M373.43,155.257c1.643-5.56,2.97-10.273,3.982-14.141l4.913-0.059c1.205,4.023,2.585,8.607,4.14,13.75
					l-3.354,0.508l-1.062-3.701h-4.074l-1.101,3.994L373.43,155.257z M381.945,148.87c-0.454-1.406-1.196-3.089-2.228-5.049
					c-0.794,1.647-1.467,3.354-2.017,5.117L381.945,148.87z"/>
			</g>
		</g>
	</g>
</g>
</svg>
