<?xml version="1.0" encoding="utf-8"?>
<!-- Generator: Adobe Illustrator 16.0.0, SVG Export Plug-In . SVG Version: 6.00 Build 0)  -->
<!DOCTYPE svg PUBLIC "-//W3C//DTD SVG 1.1//EN" "http://www.w3.org/Graphics/SVG/1.1/DTD/svg11.dtd">
<svg version="1.1" id="Capa_1" xmlns="http://www.w3.org/2000/svg" xmlns:xlink="http://www.w3.org/1999/xlink" x="0px" y="0px"
	 width="531.048px" height="73.551px" viewBox="0 0 531.048 73.551" enable-background="new 0 0 531.048 73.551"
	 xml:space="preserve">
<g>
	<g>
		<g>
			<path fill="#3C3C3B" d="M268.658,50.483l1.43-0.125c0.067,0.573,0.225,1.043,0.473,1.41c0.247,0.367,0.631,0.664,1.152,0.891
				c0.521,0.227,1.106,0.34,1.758,0.34c0.578,0,1.088-0.086,1.531-0.258c0.442-0.172,0.772-0.407,0.988-0.707
				c0.216-0.3,0.324-0.626,0.324-0.98c0-0.359-0.104-0.673-0.312-0.941c-0.208-0.269-0.552-0.493-1.031-0.676
				c-0.308-0.12-0.987-0.306-2.039-0.559c-1.052-0.253-1.789-0.491-2.211-0.715c-0.547-0.286-0.955-0.642-1.223-1.066
				c-0.269-0.425-0.402-0.899-0.402-1.426c0-0.578,0.164-1.118,0.492-1.621s0.807-0.884,1.438-1.145
				c0.63-0.261,1.331-0.391,2.102-0.391c0.849,0,1.598,0.137,2.246,0.41s1.147,0.676,1.496,1.207
				c0.349,0.531,0.536,1.133,0.562,1.805l-1.453,0.109c-0.078-0.724-0.343-1.271-0.793-1.641c-0.451-0.37-1.116-0.555-1.996-0.555
				c-0.917,0-1.585,0.168-2.004,0.504c-0.419,0.336-0.629,0.741-0.629,1.215c0,0.411,0.148,0.75,0.445,1.016
				c0.292,0.266,1.053,0.538,2.285,0.816c1.231,0.278,2.077,0.522,2.535,0.73c0.667,0.308,1.159,0.696,1.477,1.168
				c0.317,0.472,0.477,1.015,0.477,1.629c0,0.609-0.175,1.184-0.523,1.723c-0.349,0.539-0.851,0.958-1.504,1.258
				c-0.654,0.3-1.39,0.449-2.207,0.449c-1.037,0-1.905-0.151-2.605-0.453c-0.701-0.302-1.25-0.757-1.648-1.363
				S268.678,51.249,268.658,50.483z"/>
			<path fill="#3C3C3B" d="M285.345,51.491l1.453,0.18c-0.229,0.849-0.654,1.508-1.273,1.977c-0.62,0.469-1.412,0.703-2.375,0.703
				c-1.214,0-2.176-0.374-2.887-1.121s-1.066-1.796-1.066-3.145c0-1.396,0.359-2.479,1.078-3.25s1.651-1.156,2.797-1.156
				c1.109,0,2.016,0.378,2.719,1.133s1.055,1.817,1.055,3.188c0,0.083-0.003,0.208-0.008,0.375h-6.188
				c0.052,0.911,0.31,1.609,0.773,2.094c0.463,0.484,1.042,0.727,1.734,0.727c0.516,0,0.956-0.136,1.32-0.406
				C284.842,52.518,285.131,52.085,285.345,51.491z M280.728,49.218h4.633c-0.062-0.698-0.24-1.222-0.531-1.57
				c-0.448-0.542-1.029-0.812-1.742-0.812c-0.646,0-1.189,0.216-1.629,0.648C281.018,47.916,280.775,48.494,280.728,49.218z"/>
			<path fill="#3C3C3B" d="M288.564,54.163v-8.297h1.266v1.18c0.609-0.911,1.489-1.367,2.641-1.367c0.5,0,0.959,0.09,1.379,0.27
				c0.419,0.18,0.733,0.415,0.941,0.707c0.208,0.292,0.354,0.638,0.438,1.039c0.052,0.261,0.078,0.716,0.078,1.367v5.102H293.9
				v-5.047c0-0.573-0.055-1.001-0.164-1.285s-0.304-0.511-0.582-0.68c-0.279-0.169-0.605-0.254-0.98-0.254
				c-0.599,0-1.116,0.19-1.551,0.57c-0.435,0.38-0.652,1.102-0.652,2.164v4.531H288.564z"/>
			<path fill="#3C3C3B" d="M300.533,52.905l0.203,1.242c-0.396,0.083-0.75,0.125-1.062,0.125c-0.511,0-0.906-0.081-1.188-0.242
				s-0.479-0.374-0.594-0.637c-0.115-0.263-0.172-0.816-0.172-1.66V46.96h-1.031v-1.094h1.031v-2.055l1.398-0.844v2.898h1.414v1.094
				h-1.414v4.852c0,0.401,0.024,0.659,0.074,0.773c0.049,0.114,0.13,0.206,0.242,0.273c0.112,0.067,0.272,0.102,0.48,0.102
				C300.072,52.96,300.277,52.941,300.533,52.905z"/>
			<path fill="#3C3C3B" d="M307.587,51.491l1.453,0.18c-0.229,0.849-0.654,1.508-1.273,1.977c-0.62,0.469-1.412,0.703-2.375,0.703
				c-1.214,0-2.176-0.374-2.887-1.121s-1.066-1.796-1.066-3.145c0-1.396,0.359-2.479,1.078-3.25s1.651-1.156,2.797-1.156
				c1.109,0,2.016,0.378,2.719,1.133s1.055,1.817,1.055,3.188c0,0.083-0.003,0.208-0.008,0.375h-6.188
				c0.052,0.911,0.31,1.609,0.773,2.094c0.463,0.484,1.042,0.727,1.734,0.727c0.516,0,0.956-0.136,1.32-0.406
				C307.084,52.518,307.374,52.085,307.587,51.491z M302.97,49.218h4.633c-0.062-0.698-0.24-1.222-0.531-1.57
				c-0.448-0.542-1.029-0.812-1.742-0.812c-0.646,0-1.189,0.216-1.629,0.648C303.26,47.916,303.017,48.494,302.97,49.218z"/>
			<path fill="#3C3C3B" d="M310.806,54.163v-8.297h1.266v1.18c0.609-0.911,1.489-1.367,2.641-1.367c0.5,0,0.959,0.09,1.379,0.27
				c0.419,0.18,0.733,0.415,0.941,0.707c0.208,0.292,0.354,0.638,0.438,1.039c0.052,0.261,0.078,0.716,0.078,1.367v5.102h-1.406
				v-5.047c0-0.573-0.055-1.001-0.164-1.285s-0.304-0.511-0.582-0.68c-0.279-0.169-0.605-0.254-0.98-0.254
				c-0.599,0-1.116,0.19-1.551,0.57c-0.435,0.38-0.652,1.102-0.652,2.164v4.531H310.806z"/>
			<path fill="#3C3C3B" d="M325.119,51.124l1.383,0.18c-0.151,0.953-0.538,1.699-1.16,2.238c-0.623,0.539-1.387,0.809-2.293,0.809
				c-1.136,0-2.048-0.371-2.738-1.113c-0.69-0.742-1.035-1.806-1.035-3.191c0-0.896,0.148-1.68,0.445-2.352s0.749-1.176,1.355-1.512
				c0.606-0.336,1.267-0.504,1.98-0.504c0.901,0,1.638,0.228,2.211,0.684c0.573,0.456,0.94,1.103,1.102,1.941l-1.367,0.211
				c-0.13-0.558-0.361-0.977-0.691-1.258c-0.331-0.281-0.73-0.422-1.199-0.422c-0.708,0-1.284,0.254-1.727,0.762
				c-0.443,0.508-0.664,1.312-0.664,2.41c0,1.114,0.213,1.925,0.641,2.43c0.427,0.505,0.984,0.758,1.672,0.758
				c0.552,0,1.013-0.169,1.383-0.508C324.785,52.348,325.02,51.827,325.119,51.124z"/>
			<path fill="#3C3C3B" d="M327.712,44.327V42.71h1.406v1.617H327.712z M327.712,54.163v-8.297h1.406v8.297H327.712z"/>
			<path fill="#3C3C3B" d="M336.673,53.14c-0.521,0.442-1.022,0.755-1.504,0.938c-0.482,0.183-0.999,0.273-1.551,0.273
				c-0.912,0-1.612-0.223-2.102-0.668c-0.49-0.445-0.734-1.015-0.734-1.707c0-0.406,0.092-0.777,0.277-1.113
				c0.185-0.336,0.427-0.605,0.727-0.809c0.299-0.203,0.637-0.356,1.012-0.461c0.276-0.073,0.692-0.144,1.25-0.211
				c1.135-0.136,1.971-0.297,2.508-0.484c0.005-0.192,0.008-0.315,0.008-0.367c0-0.573-0.133-0.977-0.398-1.211
				c-0.359-0.317-0.894-0.477-1.602-0.477c-0.662,0-1.15,0.116-1.465,0.348c-0.315,0.231-0.548,0.642-0.699,1.23l-1.375-0.188
				c0.125-0.589,0.331-1.063,0.617-1.426c0.286-0.362,0.7-0.641,1.242-0.836c0.542-0.195,1.169-0.293,1.883-0.293
				c0.708,0,1.284,0.083,1.727,0.25c0.442,0.167,0.768,0.376,0.977,0.629c0.208,0.253,0.354,0.571,0.438,0.957
				c0.047,0.239,0.07,0.672,0.07,1.297v1.875c0,1.308,0.03,2.134,0.09,2.48c0.06,0.347,0.178,0.679,0.355,0.996h-1.469
				C336.809,53.871,336.715,53.53,336.673,53.14z M336.556,49.999c-0.511,0.208-1.276,0.386-2.297,0.531
				c-0.578,0.083-0.987,0.177-1.227,0.281c-0.24,0.104-0.425,0.257-0.555,0.457c-0.13,0.2-0.195,0.423-0.195,0.668
				c0,0.375,0.142,0.688,0.426,0.938c0.284,0.25,0.699,0.375,1.246,0.375c0.542,0,1.023-0.118,1.445-0.355s0.731-0.562,0.93-0.973
				c0.151-0.317,0.227-0.786,0.227-1.406V49.999z"/>
			<path fill="#3C3C3B" d="M339.595,51.687l1.391-0.219c0.078,0.558,0.295,0.984,0.652,1.281c0.356,0.297,0.855,0.445,1.496,0.445
				c0.646,0,1.125-0.132,1.438-0.395s0.469-0.571,0.469-0.926c0-0.317-0.138-0.567-0.414-0.75c-0.193-0.125-0.672-0.284-1.438-0.477
				c-1.031-0.261-1.746-0.485-2.145-0.676s-0.701-0.453-0.906-0.789c-0.206-0.336-0.309-0.707-0.309-1.113
				c0-0.37,0.084-0.712,0.254-1.027c0.169-0.315,0.399-0.577,0.691-0.785c0.219-0.161,0.517-0.298,0.895-0.41
				c0.377-0.112,0.782-0.168,1.215-0.168c0.651,0,1.223,0.094,1.715,0.281s0.855,0.441,1.09,0.762s0.396,0.749,0.484,1.285
				l-1.375,0.188c-0.062-0.427-0.244-0.761-0.543-1c-0.3-0.239-0.723-0.359-1.27-0.359c-0.646,0-1.107,0.106-1.383,0.32
				c-0.276,0.214-0.414,0.464-0.414,0.75c0,0.183,0.057,0.347,0.172,0.492c0.114,0.151,0.294,0.276,0.539,0.375
				c0.141,0.052,0.555,0.172,1.242,0.359c0.995,0.266,1.688,0.483,2.082,0.652c0.393,0.169,0.702,0.415,0.926,0.738
				c0.224,0.323,0.336,0.724,0.336,1.203c0,0.469-0.137,0.91-0.41,1.324s-0.668,0.734-1.184,0.961s-1.099,0.34-1.75,0.34
				c-1.078,0-1.9-0.224-2.465-0.672C340.112,53.23,339.751,52.566,339.595,51.687z"/>
			<path fill="#3C3C3B" d="M357.986,54.163v-1.047c-0.526,0.823-1.3,1.234-2.32,1.234c-0.662,0-1.27-0.183-1.824-0.547
				s-0.984-0.874-1.289-1.527s-0.457-1.405-0.457-2.254c0-0.828,0.138-1.579,0.414-2.254c0.276-0.675,0.69-1.191,1.242-1.551
				c0.552-0.359,1.169-0.539,1.852-0.539c0.5,0,0.945,0.105,1.336,0.316s0.708,0.485,0.953,0.824V42.71h1.398v11.453H357.986z
				 M353.541,50.022c0,1.062,0.224,1.856,0.672,2.383c0.448,0.526,0.977,0.789,1.586,0.789c0.614,0,1.137-0.251,1.566-0.754
				s0.645-1.27,0.645-2.301c0-1.136-0.219-1.969-0.656-2.5s-0.977-0.797-1.617-0.797c-0.625,0-1.147,0.255-1.566,0.766
				C353.75,48.119,353.541,48.924,353.541,50.022z"/>
			<path fill="#3C3C3B" d="M367.181,51.491l1.453,0.18c-0.229,0.849-0.654,1.508-1.273,1.977c-0.62,0.469-1.412,0.703-2.375,0.703
				c-1.214,0-2.176-0.374-2.887-1.121s-1.066-1.796-1.066-3.145c0-1.396,0.359-2.479,1.078-3.25s1.651-1.156,2.797-1.156
				c1.109,0,2.016,0.378,2.719,1.133s1.055,1.817,1.055,3.188c0,0.083-0.003,0.208-0.008,0.375h-6.188
				c0.052,0.911,0.31,1.609,0.773,2.094c0.463,0.484,1.042,0.727,1.734,0.727c0.516,0,0.956-0.136,1.32-0.406
				C366.678,52.518,366.967,52.085,367.181,51.491z M362.564,49.218h4.633c-0.062-0.698-0.24-1.222-0.531-1.57
				c-0.448-0.542-1.029-0.812-1.742-0.812c-0.646,0-1.189,0.216-1.629,0.648C362.854,47.916,362.611,48.494,362.564,49.218z"/>
			<path fill="#3C3C3B" d="M374.251,50.913l1.367-0.188c0.036,0.875,0.2,1.474,0.492,1.797c0.292,0.323,0.695,0.484,1.211,0.484
				c0.38,0,0.708-0.087,0.984-0.262c0.276-0.175,0.466-0.411,0.57-0.711c0.104-0.3,0.156-0.777,0.156-1.434V42.71h1.516v7.805
				c0,0.958-0.116,1.7-0.348,2.227c-0.232,0.526-0.599,0.927-1.102,1.203c-0.503,0.276-1.093,0.414-1.77,0.414
				c-1.005,0-1.775-0.289-2.309-0.867C374.487,52.913,374.23,52.054,374.251,50.913z"/>
			<path fill="#3C3C3B" d="M388.283,54.163v-1.219c-0.646,0.938-1.523,1.406-2.633,1.406c-0.49,0-0.947-0.094-1.371-0.281
				c-0.425-0.188-0.74-0.423-0.945-0.707c-0.206-0.284-0.351-0.632-0.434-1.043c-0.058-0.276-0.086-0.714-0.086-1.312v-5.141h1.406
				v4.602c0,0.734,0.028,1.229,0.086,1.484c0.088,0.37,0.276,0.66,0.562,0.871c0.286,0.211,0.641,0.316,1.062,0.316
				s0.817-0.108,1.188-0.324c0.37-0.216,0.631-0.511,0.785-0.883c0.153-0.372,0.23-0.913,0.23-1.621v-4.445h1.406v8.297H388.283z"/>
			<path fill="#3C3C3B" d="M391.181,51.687l1.391-0.219c0.078,0.558,0.295,0.984,0.652,1.281c0.356,0.297,0.855,0.445,1.496,0.445
				c0.646,0,1.125-0.132,1.438-0.395s0.469-0.571,0.469-0.926c0-0.317-0.138-0.567-0.414-0.75c-0.193-0.125-0.672-0.284-1.438-0.477
				c-1.031-0.261-1.746-0.485-2.145-0.676s-0.701-0.453-0.906-0.789c-0.206-0.336-0.309-0.707-0.309-1.113
				c0-0.37,0.084-0.712,0.254-1.027c0.169-0.315,0.399-0.577,0.691-0.785c0.219-0.161,0.517-0.298,0.895-0.41
				c0.377-0.112,0.782-0.168,1.215-0.168c0.651,0,1.223,0.094,1.715,0.281s0.855,0.441,1.09,0.762s0.396,0.749,0.484,1.285
				l-1.375,0.188c-0.062-0.427-0.244-0.761-0.543-1c-0.3-0.239-0.723-0.359-1.27-0.359c-0.646,0-1.107,0.106-1.383,0.32
				c-0.276,0.214-0.414,0.464-0.414,0.75c0,0.183,0.057,0.347,0.172,0.492c0.114,0.151,0.294,0.276,0.539,0.375
				c0.141,0.052,0.555,0.172,1.242,0.359c0.995,0.266,1.688,0.483,2.082,0.652c0.393,0.169,0.702,0.415,0.926,0.738
				c0.224,0.323,0.336,0.724,0.336,1.203c0,0.469-0.137,0.91-0.41,1.324s-0.668,0.734-1.184,0.961s-1.099,0.34-1.75,0.34
				c-1.078,0-1.9-0.224-2.465-0.672C391.698,53.23,391.337,52.566,391.181,51.687z"/>
			<path fill="#3C3C3B" d="M402.814,52.905l0.203,1.242c-0.396,0.083-0.75,0.125-1.062,0.125c-0.511,0-0.906-0.081-1.188-0.242
				s-0.479-0.374-0.594-0.637c-0.115-0.263-0.172-0.816-0.172-1.66V46.96h-1.031v-1.094h1.031v-2.055l1.398-0.844v2.898h1.414v1.094
				H401.4v4.852c0,0.401,0.024,0.659,0.074,0.773c0.049,0.114,0.13,0.206,0.242,0.273c0.112,0.067,0.272,0.102,0.48,0.102
				C402.353,52.96,402.559,52.941,402.814,52.905z"/>
			<path fill="#3C3C3B" d="M404.197,44.327V42.71h1.406v1.617H404.197z M404.197,54.163v-8.297h1.406v8.297H404.197z"/>
			<path fill="#3C3C3B" d="M413.158,51.124l1.383,0.18c-0.151,0.953-0.538,1.699-1.16,2.238c-0.623,0.539-1.387,0.809-2.293,0.809
				c-1.136,0-2.048-0.371-2.738-1.113c-0.69-0.742-1.035-1.806-1.035-3.191c0-0.896,0.148-1.68,0.445-2.352s0.749-1.176,1.355-1.512
				c0.606-0.336,1.267-0.504,1.98-0.504c0.901,0,1.638,0.228,2.211,0.684c0.573,0.456,0.94,1.103,1.102,1.941l-1.367,0.211
				c-0.13-0.558-0.361-0.977-0.691-1.258c-0.331-0.281-0.73-0.422-1.199-0.422c-0.708,0-1.284,0.254-1.727,0.762
				c-0.443,0.508-0.664,1.312-0.664,2.41c0,1.114,0.213,1.925,0.641,2.43c0.427,0.505,0.984,0.758,1.672,0.758
				c0.552,0,1.013-0.169,1.383-0.508C412.824,52.348,413.059,51.827,413.158,51.124z"/>
			<path fill="#3C3C3B" d="M415.751,44.327V42.71h1.406v1.617H415.751z M415.751,54.163v-8.297h1.406v8.297H415.751z"/>
			<path fill="#3C3C3B" d="M424.712,53.14c-0.521,0.442-1.022,0.755-1.504,0.938c-0.482,0.183-0.999,0.273-1.551,0.273
				c-0.912,0-1.612-0.223-2.102-0.668c-0.49-0.445-0.734-1.015-0.734-1.707c0-0.406,0.092-0.777,0.277-1.113
				c0.185-0.336,0.427-0.605,0.727-0.809c0.299-0.203,0.637-0.356,1.012-0.461c0.276-0.073,0.692-0.144,1.25-0.211
				c1.135-0.136,1.971-0.297,2.508-0.484c0.005-0.192,0.008-0.315,0.008-0.367c0-0.573-0.133-0.977-0.398-1.211
				c-0.359-0.317-0.894-0.477-1.602-0.477c-0.662,0-1.15,0.116-1.465,0.348c-0.315,0.231-0.548,0.642-0.699,1.23l-1.375-0.188
				c0.125-0.589,0.331-1.063,0.617-1.426c0.286-0.362,0.7-0.641,1.242-0.836c0.542-0.195,1.169-0.293,1.883-0.293
				c0.708,0,1.284,0.083,1.727,0.25c0.442,0.167,0.768,0.376,0.977,0.629c0.208,0.253,0.354,0.571,0.438,0.957
				c0.047,0.239,0.07,0.672,0.07,1.297v1.875c0,1.308,0.03,2.134,0.09,2.48c0.06,0.347,0.178,0.679,0.355,0.996h-1.469
				C424.848,53.871,424.754,53.53,424.712,53.14z M424.595,49.999c-0.511,0.208-1.276,0.386-2.297,0.531
				c-0.578,0.083-0.987,0.177-1.227,0.281c-0.24,0.104-0.425,0.257-0.555,0.457c-0.13,0.2-0.195,0.423-0.195,0.668
				c0,0.375,0.142,0.688,0.426,0.938c0.284,0.25,0.699,0.375,1.246,0.375c0.542,0,1.023-0.118,1.445-0.355s0.731-0.562,0.93-0.973
				c0.151-0.317,0.227-0.786,0.227-1.406V49.999z"/>
			<path fill="#3C3C3B" d="M432.58,57.358l-0.156-1.32c0.307,0.083,0.575,0.125,0.805,0.125c0.312,0,0.562-0.052,0.75-0.156
				s0.341-0.25,0.461-0.438c0.088-0.141,0.231-0.489,0.43-1.047c0.026-0.078,0.067-0.192,0.125-0.344l-3.148-8.312h1.516
				l1.727,4.805c0.224,0.609,0.424,1.25,0.602,1.922c0.161-0.646,0.354-1.276,0.578-1.891l1.773-4.836h1.406l-3.156,8.438
				c-0.339,0.911-0.602,1.539-0.789,1.883c-0.25,0.464-0.537,0.804-0.859,1.02c-0.323,0.216-0.708,0.324-1.156,0.324
				C433.215,57.53,432.913,57.473,432.58,57.358z"/>
			<path fill="#3C3C3B" d="M445.267,54.163V42.71h4.32c0.76,0,1.341,0.036,1.742,0.109c0.562,0.094,1.034,0.272,1.414,0.535
				c0.38,0.263,0.686,0.632,0.918,1.105c0.231,0.474,0.348,0.995,0.348,1.562c0,0.974-0.31,1.798-0.93,2.473
				c-0.62,0.675-1.74,1.012-3.359,1.012h-2.938v4.656H445.267z M446.783,48.155h2.961c0.979,0,1.674-0.183,2.086-0.547
				c0.411-0.364,0.617-0.878,0.617-1.539c0-0.479-0.121-0.89-0.363-1.23s-0.562-0.566-0.957-0.676
				c-0.255-0.067-0.727-0.102-1.414-0.102h-2.93V48.155z"/>
			<path fill="#3C3C3B" d="M461.173,53.14c-0.521,0.442-1.022,0.755-1.504,0.938c-0.482,0.183-0.999,0.273-1.551,0.273
				c-0.912,0-1.612-0.223-2.102-0.668c-0.49-0.445-0.734-1.015-0.734-1.707c0-0.406,0.092-0.777,0.277-1.113
				c0.185-0.336,0.427-0.605,0.727-0.809c0.299-0.203,0.637-0.356,1.012-0.461c0.276-0.073,0.692-0.144,1.25-0.211
				c1.135-0.136,1.971-0.297,2.508-0.484c0.005-0.192,0.008-0.315,0.008-0.367c0-0.573-0.133-0.977-0.398-1.211
				c-0.359-0.317-0.894-0.477-1.602-0.477c-0.662,0-1.15,0.116-1.465,0.348c-0.315,0.231-0.548,0.642-0.699,1.23l-1.375-0.188
				c0.125-0.589,0.331-1.063,0.617-1.426c0.286-0.362,0.7-0.641,1.242-0.836c0.542-0.195,1.169-0.293,1.883-0.293
				c0.708,0,1.284,0.083,1.727,0.25c0.442,0.167,0.768,0.376,0.977,0.629c0.208,0.253,0.354,0.571,0.438,0.957
				c0.047,0.239,0.07,0.672,0.07,1.297v1.875c0,1.308,0.03,2.134,0.09,2.48c0.06,0.347,0.178,0.679,0.355,0.996h-1.469
				C461.309,53.871,461.215,53.53,461.173,53.14z M461.056,49.999c-0.511,0.208-1.276,0.386-2.297,0.531
				c-0.578,0.083-0.987,0.177-1.227,0.281c-0.24,0.104-0.425,0.257-0.555,0.457c-0.13,0.2-0.195,0.423-0.195,0.668
				c0,0.375,0.142,0.688,0.426,0.938c0.284,0.25,0.699,0.375,1.246,0.375c0.542,0,1.023-0.118,1.445-0.355s0.731-0.562,0.93-0.973
				c0.151-0.317,0.227-0.786,0.227-1.406V49.999z"/>
			<path fill="#3C3C3B" d="M463.916,54.163v-1.141l5.281-6.062c-0.599,0.031-1.128,0.047-1.586,0.047h-3.383v-1.141h6.781v0.93
				l-4.492,5.266l-0.867,0.961c0.63-0.047,1.221-0.07,1.773-0.07h3.836v1.211H463.916z"/>
			<path fill="#3C3C3B" d="M473.048,47.468v-1.602h1.602v1.602H473.048z M473.048,54.163v-1.602h1.602v1.602H473.048z"/>
			<path fill="#3C3C3B" d="M481.666,54.163V42.71h4.297c0.875,0,1.577,0.116,2.105,0.348c0.528,0.231,0.942,0.589,1.242,1.07
				c0.299,0.481,0.449,0.985,0.449,1.512c0,0.489-0.133,0.95-0.398,1.383s-0.667,0.781-1.203,1.047
				c0.692,0.203,1.225,0.55,1.598,1.039c0.372,0.489,0.559,1.067,0.559,1.734c0,0.536-0.113,1.035-0.34,1.496
				s-0.507,0.816-0.84,1.066c-0.333,0.25-0.751,0.438-1.254,0.566c-0.503,0.128-1.119,0.191-1.848,0.191H481.666z M483.181,47.522
				h2.477c0.672,0,1.153-0.044,1.445-0.133c0.385-0.114,0.676-0.305,0.871-0.57s0.293-0.599,0.293-1c0-0.38-0.091-0.715-0.273-1.004
				c-0.183-0.289-0.443-0.487-0.781-0.594c-0.339-0.106-0.919-0.16-1.742-0.16h-2.289V47.522z M483.181,52.812h2.852
				c0.489,0,0.833-0.019,1.031-0.055c0.349-0.062,0.641-0.167,0.875-0.312s0.427-0.358,0.578-0.637
				c0.151-0.278,0.227-0.601,0.227-0.965c0-0.427-0.109-0.798-0.328-1.113s-0.522-0.536-0.91-0.664
				c-0.388-0.128-0.947-0.191-1.676-0.191h-2.648V52.812z"/>
			<path fill="#3C3C3B" d="M497.634,53.14c-0.521,0.442-1.022,0.755-1.504,0.938c-0.482,0.183-0.999,0.273-1.551,0.273
				c-0.912,0-1.612-0.223-2.102-0.668c-0.49-0.445-0.734-1.015-0.734-1.707c0-0.406,0.092-0.777,0.277-1.113
				c0.185-0.336,0.427-0.605,0.727-0.809c0.299-0.203,0.637-0.356,1.012-0.461c0.276-0.073,0.692-0.144,1.25-0.211
				c1.135-0.136,1.971-0.297,2.508-0.484c0.005-0.192,0.008-0.315,0.008-0.367c0-0.573-0.133-0.977-0.398-1.211
				c-0.359-0.317-0.894-0.477-1.602-0.477c-0.662,0-1.15,0.116-1.465,0.348c-0.315,0.231-0.548,0.642-0.699,1.23l-1.375-0.188
				c0.125-0.589,0.331-1.063,0.617-1.426c0.286-0.362,0.7-0.641,1.242-0.836c0.542-0.195,1.169-0.293,1.883-0.293
				c0.708,0,1.284,0.083,1.727,0.25c0.442,0.167,0.768,0.376,0.977,0.629c0.208,0.253,0.354,0.571,0.438,0.957
				c0.047,0.239,0.07,0.672,0.07,1.297v1.875c0,1.308,0.03,2.134,0.09,2.48c0.06,0.347,0.178,0.679,0.355,0.996h-1.469
				C497.77,53.871,497.676,53.53,497.634,53.14z M497.517,49.999c-0.511,0.208-1.276,0.386-2.297,0.531
				c-0.578,0.083-0.987,0.177-1.227,0.281c-0.24,0.104-0.425,0.257-0.555,0.457c-0.13,0.2-0.195,0.423-0.195,0.668
				c0,0.375,0.142,0.688,0.426,0.938c0.284,0.25,0.699,0.375,1.246,0.375c0.542,0,1.023-0.118,1.445-0.355s0.731-0.562,0.93-0.973
				c0.151-0.317,0.227-0.786,0.227-1.406V49.999z"/>
			<path fill="#3C3C3B" d="M501.103,54.163v-8.297h1.266v1.258c0.323-0.589,0.621-0.977,0.895-1.164s0.574-0.281,0.902-0.281
				c0.474,0,0.956,0.151,1.445,0.453l-0.484,1.305c-0.344-0.203-0.688-0.305-1.031-0.305c-0.308,0-0.583,0.093-0.828,0.277
				c-0.245,0.185-0.419,0.441-0.523,0.77c-0.156,0.5-0.234,1.047-0.234,1.641v4.344H501.103z"/>
			<path fill="#3C3C3B" d="M506.447,54.163v-8.297h1.266v1.18c0.609-0.911,1.489-1.367,2.641-1.367c0.5,0,0.959,0.09,1.379,0.27
				c0.419,0.18,0.733,0.415,0.941,0.707c0.208,0.292,0.354,0.638,0.438,1.039c0.052,0.261,0.078,0.716,0.078,1.367v5.102h-1.406
				v-5.047c0-0.573-0.055-1.001-0.164-1.285s-0.304-0.511-0.582-0.68c-0.279-0.169-0.605-0.254-0.98-0.254
				c-0.599,0-1.116,0.19-1.551,0.57c-0.435,0.38-0.652,1.102-0.652,2.164v4.531H506.447z"/>
			<path fill="#3C3C3B" d="M521.025,51.491l1.453,0.18c-0.229,0.849-0.654,1.508-1.273,1.977c-0.62,0.469-1.412,0.703-2.375,0.703
				c-1.214,0-2.176-0.374-2.887-1.121s-1.066-1.796-1.066-3.145c0-1.396,0.359-2.479,1.078-3.25s1.651-1.156,2.797-1.156
				c1.109,0,2.016,0.378,2.719,1.133s1.055,1.817,1.055,3.188c0,0.083-0.003,0.208-0.008,0.375h-6.188
				c0.052,0.911,0.31,1.609,0.773,2.094c0.463,0.484,1.042,0.727,1.734,0.727c0.516,0,0.956-0.136,1.32-0.406
				C520.522,52.518,520.811,52.085,521.025,51.491z M516.408,49.218h4.633c-0.062-0.698-0.24-1.222-0.531-1.57
				c-0.448-0.542-1.029-0.812-1.742-0.812c-0.646,0-1.189,0.216-1.629,0.648C516.698,47.916,516.455,48.494,516.408,49.218z"/>
			<path fill="#3C3C3B" d="M524.181,57.358l-0.156-1.32c0.307,0.083,0.575,0.125,0.805,0.125c0.312,0,0.562-0.052,0.75-0.156
				s0.341-0.25,0.461-0.438c0.088-0.141,0.231-0.489,0.43-1.047c0.026-0.078,0.067-0.192,0.125-0.344l-3.148-8.312h1.516
				l1.727,4.805c0.224,0.609,0.424,1.25,0.602,1.922c0.161-0.646,0.354-1.276,0.578-1.891l1.773-4.836h1.406l-3.156,8.438
				c-0.339,0.911-0.602,1.539-0.789,1.883c-0.25,0.464-0.537,0.804-0.859,1.02c-0.323,0.216-0.708,0.324-1.156,0.324
				C524.816,57.53,524.514,57.473,524.181,57.358z"/>
			<path fill="#3C3C3B" d="M272.447,73.363l-4.438-11.453h1.641l2.977,8.32c0.239,0.667,0.44,1.292,0.602,1.875
				c0.177-0.625,0.383-1.25,0.617-1.875l3.094-8.32h1.547l-4.484,11.453H272.447z"/>
			<path fill="#3C3C3B" d="M284.462,70.691l1.453,0.18c-0.229,0.849-0.654,1.508-1.273,1.977c-0.62,0.469-1.412,0.703-2.375,0.703
				c-1.214,0-2.176-0.374-2.887-1.121s-1.066-1.796-1.066-3.145c0-1.396,0.359-2.479,1.078-3.25s1.651-1.156,2.797-1.156
				c1.109,0,2.016,0.378,2.719,1.133s1.055,1.817,1.055,3.188c0,0.083-0.003,0.208-0.008,0.375h-6.188
				c0.052,0.911,0.31,1.609,0.773,2.094c0.463,0.484,1.042,0.727,1.734,0.727c0.516,0,0.956-0.136,1.32-0.406
				C283.959,71.718,284.249,71.285,284.462,70.691z M279.845,68.418h4.633c-0.062-0.698-0.24-1.222-0.531-1.57
				c-0.448-0.542-1.029-0.812-1.742-0.812c-0.646,0-1.189,0.216-1.629,0.648C280.135,67.116,279.892,67.694,279.845,68.418z"/>
			<path fill="#3C3C3B" d="M287.65,73.363V61.91h1.406v11.453H287.65z"/>
			<path fill="#3C3C3B" d="M290.712,69.215c0-1.536,0.427-2.675,1.281-3.414c0.713-0.614,1.583-0.922,2.609-0.922
				c1.141,0,2.073,0.374,2.797,1.121c0.724,0.747,1.086,1.78,1.086,3.098c0,1.067-0.16,1.907-0.48,2.52s-0.787,1.087-1.398,1.426
				c-0.612,0.339-1.28,0.508-2.004,0.508c-1.162,0-2.101-0.372-2.816-1.117C291.07,71.688,290.712,70.616,290.712,69.215z
				 M292.158,69.215c0,1.062,0.231,1.858,0.695,2.387c0.463,0.528,1.047,0.793,1.75,0.793c0.698,0,1.278-0.266,1.742-0.797
				c0.463-0.531,0.695-1.341,0.695-2.43c0-1.026-0.233-1.804-0.699-2.332c-0.466-0.528-1.046-0.793-1.738-0.793
				c-0.703,0-1.287,0.263-1.75,0.789C292.389,67.358,292.158,68.152,292.158,69.215z"/>
			<path fill="#3C3C3B" d="M299.392,73.363v-1.141l5.281-6.062c-0.599,0.031-1.128,0.047-1.586,0.047h-3.383v-1.141h6.781v0.93
				l-4.492,5.266l-0.867,0.961c0.63-0.047,1.221-0.07,1.773-0.07h3.836v1.211H299.392z"/>
			<path fill="#3C3C3B" d="M313.548,72.34c-0.521,0.442-1.022,0.755-1.504,0.938c-0.482,0.183-0.999,0.273-1.551,0.273
				c-0.912,0-1.612-0.223-2.102-0.668c-0.49-0.445-0.734-1.015-0.734-1.707c0-0.406,0.092-0.777,0.277-1.113
				c0.185-0.336,0.427-0.605,0.727-0.809c0.299-0.203,0.637-0.356,1.012-0.461c0.276-0.073,0.692-0.144,1.25-0.211
				c1.135-0.136,1.971-0.297,2.508-0.484c0.005-0.192,0.008-0.315,0.008-0.367c0-0.573-0.133-0.977-0.398-1.211
				c-0.359-0.317-0.894-0.477-1.602-0.477c-0.662,0-1.15,0.116-1.465,0.348c-0.315,0.231-0.548,0.642-0.699,1.23l-1.375-0.188
				c0.125-0.589,0.331-1.063,0.617-1.426c0.286-0.362,0.7-0.641,1.242-0.836c0.542-0.195,1.169-0.293,1.883-0.293
				c0.708,0,1.284,0.083,1.727,0.25c0.442,0.167,0.768,0.376,0.977,0.629c0.208,0.253,0.354,0.571,0.438,0.957
				c0.047,0.239,0.07,0.672,0.07,1.297v1.875c0,1.308,0.03,2.134,0.09,2.48c0.06,0.347,0.178,0.679,0.355,0.996h-1.469
				C313.684,73.071,313.59,72.73,313.548,72.34z M313.431,69.199c-0.511,0.208-1.276,0.386-2.297,0.531
				c-0.578,0.083-0.987,0.177-1.227,0.281c-0.24,0.104-0.425,0.257-0.555,0.457c-0.13,0.2-0.195,0.423-0.195,0.668
				c0,0.375,0.142,0.688,0.426,0.938c0.284,0.25,0.699,0.375,1.246,0.375c0.542,0,1.023-0.118,1.445-0.355s0.731-0.562,0.93-0.973
				c0.151-0.317,0.227-0.786,0.227-1.406V69.199z"/>
		</g>
	</g>
	<path fill="#F39200" d="M5.609,3.272L5.447,3.521l0.065,0.021c0.045,0.016,0.082,0.051,0.101,0.093l0.135,0.304
		c0.015,0.033,0.019,0.071,0.011,0.106L5.625,4.651L5.283,5.48L5.47,5.533c0.041,0.011,0.077,0.037,0.1,0.074l0.102,0.169
		c0.043,0.073,0.026,0.166-0.04,0.219L5.463,6.132C5.442,6.146,5.416,6.159,5.389,6.164L5.017,6.231l-0.2,0.069L4.803,6.342
		l0.089,0.125l0.222,0.084C5.156,6.565,5.19,6.599,5.208,6.64c0.019,0.04,0.019,0.089,0.002,0.131L5.085,7.084l-0.031,0.36
		l0.066,0.419l0.095,0.315C5.229,8.224,5.224,8.272,5.2,8.312C5.177,8.354,5.136,8.382,5.09,8.392L4.834,8.465l0.113,0.427
		c0.014,0.051,0.004,0.104-0.028,0.146L4.818,9.173C4.812,9.182,4.803,9.188,4.794,9.197L4.528,9.434L4.373,9.994
		c-0.004,0.015-0.01,0.027-0.018,0.04l-0.424,0.719L3.835,11.2c-0.004,0.021-0.012,0.041-0.024,0.059l-0.067,0.101
		c-0.007,0.011-0.017,0.021-0.025,0.028l-0.51,0.48l0.021,0.143l0.131,0.495c0.003,0.011,0.006,0.022,0.006,0.035l0.168,3.68
		c0.001,0.016,0,0.029-0.003,0.043L3.228,17.65l-0.029,0.411l0.06,0.157l0.022,0.059l0.327,0.49
		c0.013,0.021,0.021,0.041,0.025,0.062l0.034,0.17l0,0l0,0c0.011,0.056-0.006,0.111-0.046,0.152l-0.102,0.102
		c-0.015,0.014-0.03,0.024-0.048,0.033L2.993,19.51l-0.065,0.064v0.069l0.054,0.152l0.207,0.599
		c0.006,0.018,0.009,0.036,0.009,0.055v0.235c0,0.019-0.003,0.033-0.006,0.049l-0.083,0.274l0.071,0.142
		c0.023,0.046,0.024,0.1,0.002,0.147c-0.021,0.046-0.062,0.081-0.112,0.093l-0.201,0.05l-0.087,0.153L2.725,21.82v0.317l0.2,1.084
		l0,0l0,0c0.004,0.028,0.003,0.056-0.006,0.084l-0.101,0.304c-0.008,0.024-0.023,0.047-0.041,0.065L2.5,23.951l-0.155,0.468
		c-0.014,0.04-0.041,0.072-0.078,0.093l-0.237,0.135c-0.012,0.008-0.027,0.016-0.042,0.018l-0.244,0.062l-0.207,0.129l-0.09,0.184
		l0.022,0.176l0.312,0.438c0.026,0.033,0.036,0.076,0.032,0.116l0,0l0,0l-0.032,0.274l0.019,0.072l0.049,0.065l0.254,0.085
		c0.047,0.016,0.084,0.05,0.104,0.095l0.066,0.171c0.009,0.02,0.013,0.041,0.013,0.061c0,0.021-0.004,0.042-0.012,0.062
		l-0.102,0.269c-0.005,0.017-0.013,0.032-0.024,0.046l-0.372,0.474l-0.082,0.132l0.162,0.143c0.016,0.013,0.03,0.031,0.041,0.051
		l0.067,0.135c0.011,0.022,0.017,0.048,0.017,0.071c0,0.025-0.004,0.049-0.015,0.07c-0.019,0.049-0.057,0.082-0.105,0.097
		l-0.175,0.054l0.254,0.815c0.004,0.015,0.007,0.032,0.007,0.049v0.913c0,0.013-0.003,0.028-0.006,0.042l-0.237,0.88l-1.62,3.581
		L0,35.043l0.123,0.122l0.415-0.028h0.014l0.61-0.163l0.538-0.04l0.52-0.099c0.046-0.008,0.093,0.002,0.131,0.03
		s0.062,0.068,0.067,0.115l0.023,0.182l0.563,0.298c0.035,0.018,0.063,0.051,0.078,0.086l0.074,0.188l0.218-0.079
		c0.059-0.022,0.125-0.01,0.17,0.032l0.72,0.654l0.417,0.14l0.19-0.056c0,0,0.002,0.002,0.002,0
		c0.033-0.009,0.069-0.005,0.102,0.005h0.001l0.207,0.079l0.131-0.058l0.331-0.452l0.128-0.318c0.008-0.021,0.021-0.041,0.037-0.056
		l0.135-0.135c0.011-0.011,0.021-0.021,0.033-0.025l0.169-0.102l0.633-0.248l0.368-0.071l0.035-0.007l0,0
		c0.039-0.004,0.079,0,0.113,0.021l0.237,0.135c0.013,0.007,0.025,0.015,0.036,0.027l0.304,0.303l0.386,0.289
		c0.022,0.016,0.04,0.037,0.052,0.063l0.506,1.079l0.154,0.21c0.007,0.011,0.014,0.022,0.019,0.036l0.108,0.27l0.027,0.068
		c0.005,0.011,0.008,0.025,0.01,0.04v0.001l0,0l0,0l0.018,0.135l0.017,0.135l0.065,0.264l0.065,0.257
		c0.005,0.018,0.006,0.036,0.005,0.053l-0.034,0.54C9.271,39,9.257,39.036,9.231,39.065l-0.71,0.777l-0.136,0.221l-0.116,0.49
		l0.146,0.32c0.017,0.038,0.02,0.08,0.008,0.119l-0.249,0.808l0.403,0.713c0.011,0.021,0.019,0.042,0.021,0.066l0.034,0.305
		c0.002,0.018,0,0.039-0.004,0.059l-0.102,0.405L8.32,43.937l-0.605,1.116l-0.286,1.55l0.714,0.87l0.656,0.492l1.554-2.157
		l0.563-1.028l0.567-1.303l0.127-0.452l0.06-0.335l-0.025-0.404l-0.004-0.061l-0.08-0.259l-0.05-0.161l-0.031-0.291l-0.009-0.079
		l-0.001-0.254l-0.032-0.462c-0.002-0.021,0-0.047,0.009-0.071l0.675-1.79c0.007-0.016,0.016-0.032,0.026-0.046l0.136-0.168
		c0.006-0.007,0.015-0.018,0.024-0.025l0.202-0.168c0.063-0.051,0.155-0.051,0.217,0.001l0.42,0.355l0.021,0.009l0.192,0.083
		l0.491,0.143l0.032-0.016l0.064-0.107l0.257-0.967v-0.958c0-0.038,0.013-0.076,0.039-0.106l0.426-0.525l0.228-0.455l0.124-0.31
		l0.064-0.355l-0.004-0.34l0.205-1.211l0.24-0.861l0.024-0.287l-0.02-0.032l-0.37,0.027c-0.058,0.002-0.112-0.022-0.147-0.066
		c-0.035-0.048-0.044-0.105-0.024-0.163l0.835-2.268l0.032-0.858l-0.256-0.9l-0.108-0.188l-0.241-0.181
		c-0.014-0.011-0.025-0.022-0.036-0.035l-0.1-0.135l-0.314-0.521c-0.011-0.02-0.019-0.038-0.022-0.059
		c-0.011-0.06,0.012-0.122,0.064-0.162l0.607-0.473c0.01-0.008,0.023-0.016,0.035-0.021l0.58-0.259l0.098-0.097l0.038-0.065h-0.107
		c-0.049,0-0.096-0.021-0.128-0.058c-0.033-0.038-0.046-0.09-0.039-0.139l0,0l0,0l0.03-0.173l-0.029-0.137l0,0l0,0
		c-0.013-0.068,0.015-0.137,0.073-0.175l0.357-0.239l0.117-0.318c0.019-0.052,0.062-0.09,0.114-0.105l0.311-0.084l0.021-0.033
		l0.011-0.018l0.458-1.084c0.005-0.016,0.013-0.028,0.023-0.041l0.135-0.169c0.016-0.021,0.038-0.038,0.062-0.048l0.255-0.114
		l0.151-0.252v-0.195l-0.043-0.133l-0.015-0.044c-0.008-0.021-0.011-0.045-0.008-0.065c0.005-0.066,0.048-0.126,0.114-0.147
		l0.102-0.032c0.041-0.016,0.084-0.014,0.122,0.004l0.271,0.12h0.201l0.419,0.035c0.018,0.001,0.035,0.005,0.052,0.013l0.641,0.27
		c0.076,0.032,0.118,0.114,0.099,0.195l-0.136,0.574l-0.001,0.014l-0.028,0.398l0.033,1.785l0.062,0.215l0,0
		c0.008,0.03,0.01,0.062,0,0.093l0,0l-0.068,0.237c-0.009,0.033-0.026,0.061-0.053,0.082l-0.188,0.156l-0.067,0.089l-0.016,0.083
		l0.032,0.08l0.251,0.2l0.373-0.027c0.055-0.006,0.109,0.018,0.144,0.062c0.018,0.021,0.029,0.046,0.035,0.072
		c0.005,0.027,0.003,0.055-0.003,0.082l-0.439,1.485c-0.013,0.044-0.045,0.081-0.085,0.104l-0.313,0.154l-0.102,0.103l-0.665,1.097
		l-0.278,0.383l-0.26,0.457c-0.01,0.018-0.023,0.032-0.038,0.046l-0.406,0.339l-0.121,0.146l-0.056,0.247v0.558l0.192,0.513
		l0.089,0.143c0.02,0.033,0.027,0.071,0.021,0.109l0,0V33l-0.101,0.707c-0.005,0.025-0.013,0.047-0.026,0.067l-0.928,1.462
		l-0.062,0.275l-0.027,0.276l0.314,0.814l0.521,0.619l0.285,0.46l0.214,0.494c0.012,0.03,0.016,0.064,0.011,0.094l-0.034,0.203
		c-0.002,0.021-0.01,0.042-0.021,0.061l-0.203,0.337l-0.184,0.224c-0.01,0.013-0.022,0.022-0.035,0.033l-0.358,0.236l-0.042,0.129
		l-0.066,0.692c-0.002,0.015-0.005,0.03-0.011,0.044l-0.355,0.93l0.402,0.019l1.062-1.029l0.817-0.549l0.358-0.39
		c0.012-0.014,0.027-0.026,0.044-0.034l0.371-0.203c0.015-0.008,0.031-0.014,0.047-0.017l0.338-0.067l0.355-0.038l0.287-0.078
		l0.168-0.227l0.224-0.416c0.015-0.031,0.04-0.054,0.068-0.069l0.507-0.269c0.016-0.01,0.034-0.016,0.052-0.018l0.384-0.063
		l1.472-0.655l0.18-0.181l0.258-0.186c0.028-0.022,0.062-0.032,0.098-0.032h0.507c0.014,0,0.028,0.002,0.04,0.006l0.246,0.06
		l0.398-0.021l-0.17-0.533l-0.04-0.302l-0.001-0.321l-0.139-0.308l-0.172-0.156l-0.173-0.157c-0.029-0.026-0.048-0.061-0.054-0.1
		l-0.067-0.475c-0.003-0.015-0.003-0.033,0-0.049l0.062-0.408l-0.207-0.93l-0.046-0.205l-0.133-0.135l-0.134-0.136
		c-0.035-0.036-0.053-0.081-0.05-0.131l0.035-0.474c0.001-0.03,0.011-0.061,0.03-0.086l0.41-0.545
		c0.008-0.011,0.018-0.021,0.027-0.028l0.169-0.137c0.011-0.008,0.024-0.015,0.037-0.021l0.54-0.237l0.445-0.27l0.114-0.226
		l0.345-0.555c0.007-0.011,0.015-0.021,0.024-0.028l0.202-0.203c0.023-0.023,0.052-0.038,0.083-0.046l0.305-0.067
		c0.027-0.006,0.056-0.006,0.083,0.001l0.236,0.069c0.006,0.002,0.011,0.005,0.017,0.006c0.006,0.003,0.014,0.007,0.021,0.009
		l0.237,0.135c0.019,0.01,0.036,0.025,0.05,0.043l0,0l0,0l0.051,0.066l0.174,0.227l0.177,0.149h0.274l0.231,0.035
		c0.016,0.003,0.032,0.008,0.047,0.016l0.203,0.103c0.031,0.014,0.055,0.038,0.072,0.066l0.262,0.458l0.258,0.29l0.316,0.455
		l0.114,0.223c0.012,0.025,0.018,0.051,0.018,0.076v0.287l0.026,0.127l0.101,0.479l0.465,1.064c0.006,0.015,0.011,0.03,0.013,0.046
		l0.03,0.235l0.069,0.114l0.165,0.139l0.251,0.126l0.131,0.052l0.193,0.077l0.134,0.066l0.131,0.065l0.251,0.056l0.317-0.059
		l0.334-0.152l0.559-0.427c0.025-0.02,0.053-0.03,0.083-0.032l1.453-0.17c0.021-0.002,0.041-0.001,0.061,0.005l2.769,0.708
		l0.528,0.209c0.014,0.005,0.026,0.013,0.039,0.023l0.27,0.203c0.021,0.015,0.038,0.035,0.05,0.058l0.124,0.244l0.062,0.063
		l0.246,0.123l0.626,0.415l0.236,0.118l0.047-0.029l0.066-0.132l0.065-0.512l0.743-4.934l0.723-5.024l-0.233,0.394l-0.061,0.186
		c-0.008,0.025-0.023,0.048-0.042,0.065l-0.168,0.169c-0.011,0.012-0.023,0.021-0.038,0.028l-0.302,0.169
		c-0.022,0.011-0.046,0.019-0.071,0.02l-0.946,0.067c-0.026,0.004-0.051-0.001-0.076-0.011l-0.887-0.361l-0.478-0.032
		c-0.064-0.004-0.121-0.044-0.146-0.104L37.48,25.68c-0.007-0.015-0.01-0.03-0.012-0.048l-0.06-0.562l-0.115-0.076l-0.195-0.056
		l-0.387-0.03l-0.373,0.125c-0.023,0.007-0.048,0.011-0.075,0.007l-0.27-0.034c-0.037-0.004-0.072-0.022-0.099-0.048l-0.168-0.169h0
		c-0.012-0.013-0.023-0.028-0.031-0.043l-0.135-0.272l-0.405-0.715l-0.821-0.315c-0.052-0.021-0.09-0.063-0.104-0.117l-0.033-0.135
		c-0.005-0.022-0.007-0.048-0.002-0.072l0.057-0.309l-0.096-0.168l-0.325-0.357l-0.341-0.542l-0.156-0.128l-0.62-0.188l-1.834-0.033
		c-0.053-0.001-0.103-0.027-0.135-0.07l-0.506-0.709c-0.021-0.029-0.032-0.063-0.032-0.098v-0.304v-0.001
		c0-0.028,0.007-0.055,0.021-0.079l0.682-1.269l-0.093-0.689c-0.008-0.061,0.018-0.122,0.067-0.158l0.853-0.631l0.02-0.181
		l-0.313-0.595c-0.01-0.018-0.016-0.035-0.019-0.056l-0.066-0.472c-0.003-0.024-0.002-0.049,0.005-0.071l0.088-0.295l-0.05-0.199
		l-0.561-0.925c-0.008-0.014-0.015-0.028-0.019-0.044l-0.168-0.642c-0.007-0.023-0.008-0.048-0.003-0.072l0.09-0.51l-0.425-0.699
		l-0.348-0.285l-0.604-0.471c-0.025-0.019-0.044-0.045-0.055-0.074l-0.205-0.579c-0.005-0.018-0.007-0.035-0.007-0.053v-0.236l0,0
		c0-0.022,0.003-0.043,0.011-0.063l0.135-0.338l0.096-0.19l-0.11-0.155c-0.021-0.027-0.032-0.063-0.032-0.099V9.969l0,0L29.03,9.85
		l-0.96-0.856c-0.016-0.013-0.029-0.03-0.038-0.048l-0.237-0.474c-0.008-0.017-0.013-0.034-0.016-0.052l-0.015-0.112l-0.136,0.046
		c-0.018,0.005-0.035,0.008-0.053,0.008h-0.271c-0.021,0-0.043-0.003-0.063-0.011l-0.337-0.134
		c-0.022-0.011-0.041-0.023-0.057-0.038L26.41,7.74L25.998,7.85c-0.04,0.011-0.08,0.006-0.118-0.012l-1.182-0.574
		c-0.057-0.027-0.094-0.086-0.094-0.15l-0.015-1.108l-0.242,0.023l-0.155,0.078l-0.49,0.427l-1.19,1.223l0,0v0.369
		c0,0.021-0.004,0.039-0.01,0.057l-0.169,0.473c-0.018,0.05-0.056,0.089-0.107,0.104L21.617,8.95l-1.458,1.325
		c-0.054,0.05-0.135,0.059-0.199,0.021L18.946,9.71l-0.333-0.033c-0.026-0.002-0.051-0.009-0.071-0.023L18.203,9.45l-0.259-0.218
		c-0.012-0.008-0.021-0.021-0.028-0.031l-0.237-0.336c-0.02-0.029-0.03-0.062-0.03-0.098V8.473l0,0l-0.935,0.059
		c-0.026,0-0.052-0.003-0.077-0.016l-0.679-0.305l-0.688-0.392l-0.467-0.032L14.527,7.82c-0.057,0.005-0.114-0.017-0.151-0.062
		l-0.135-0.169c-0.017-0.021-0.029-0.046-0.034-0.072l-0.035-0.169c-0.002-0.018-0.003-0.035-0.001-0.053l0.063-0.533l-0.143-0.398
		l-0.95-0.92c-0.013-0.01-0.024-0.025-0.032-0.041L12.772,4.76c-0.009-0.017-0.015-0.035-0.018-0.055L12.72,4.471
		c-0.003-0.021-0.002-0.046,0.003-0.066l0.067-0.271c0.003-0.014,0.009-0.026,0.015-0.038l0.27-0.506
		c0.006-0.011,0.013-0.021,0.021-0.031l0.175-0.205l0.051-0.229l-0.021-0.132l-0.147-0.206c-0.011-0.016-0.019-0.03-0.024-0.051
		L13.03,2.401c-0.005-0.016-0.007-0.033-0.007-0.05V1.947l-0.03-0.413l-0.143-0.197c-0.009-0.013-0.016-0.03-0.022-0.046
		l-0.067-0.203c-0.008-0.021-0.009-0.044-0.008-0.068l0.029-0.322l-0.027-0.055l-0.203-0.146c-0.027-0.018-0.048-0.047-0.06-0.078
		L12.374,0.09l-0.099-0.078L12.216,0l-0.279,0.195l-0.663,0.563l-0.35,0.245l-0.192,0.162c-0.02,0.016-0.043,0.027-0.068,0.034
		L10.09,1.334c-0.024,0.006-0.047,0.007-0.071,0.003L8.973,1.134L8.619,1.028L8.284,0.894L7.931,0.837L7.863,0.854L7.621,1.035
		C7.609,1.044,7.599,1.05,7.587,1.055L7.045,1.291C7.035,1.296,7.023,1.3,7.011,1.302L5.795,1.537L5.56,1.627v0.614l0.118,0.212
		L5.792,2.5c0.043,0.017,0.078,0.052,0.095,0.097C5.904,2.64,5.902,2.69,5.881,2.731L5.609,3.272z"/>
	<g>
		<g>
			<g enable-background="new    ">
				<path fill="#331842" d="M282.583,19.492l-2.908,0.01v-0.264c0-1.529-0.576-2.295-1.729-2.295c-1.231,0-1.847,1.413-1.847,4.238
					c0,3.184,0.646,4.775,1.939,4.775h0.013c1.292-0.006,1.939-0.787,1.939-2.344v-0.967h3.249v0.732
					c0,3.242-1.786,4.938-5.358,5.088c-0.104,0.007-0.209,0.01-0.314,0.01c-3.362,0-5.043-2.408-5.043-7.227
					c0-4.713,1.729-7.07,5.188-7.07c3.257,0,4.886,1.576,4.886,4.727C282.596,19.096,282.592,19.291,282.583,19.492z"/>
				<path fill="#331842" d="M294.806,14.238v9.658c0,2.976-1.825,4.463-5.476,4.463h-0.288c-3.057-0.26-4.638-1.507-4.743-3.74
					c0-4.459-0.061-7.975-0.183-10.547h3.485c-0.087,1.472-0.131,3.2-0.131,5.186c0,1.394,0.022,2.917,0.065,4.57
					c0.018,1.211,0.603,1.816,1.756,1.816c0,0.007,0.004,0.01,0.013,0.01c1.144,0,1.716-0.774,1.716-2.324l-0.065-9.004
					L294.806,14.238z"/>
				<path fill="#331842" d="M296.116,28.271c0.105-2.227,0.157-4.395,0.157-6.504c0-2.435-0.07-4.795-0.209-7.08l3.852-0.137
					l3.537,7.354c-0.035-2.525-0.131-5.11-0.288-7.754l4.048-0.039c-0.402,3.991-0.603,8.021-0.603,12.09
					c0,0.547,0.004,1.094,0.013,1.641l-3.55,0.029L299.3,20c0.113,2.904,0.218,5.603,0.314,8.096L296.116,28.271z"/>
				<path fill="#331842" d="M308.47,28.184c0.017-2.193,0.026-4.453,0.026-6.777c0-2.33-0.009-4.723-0.026-7.178
					c1.004-0.091,1.93-0.137,2.777-0.137c2.358,0,4.096,0.352,5.214,1.055c1.52,0.964,2.314,2.744,2.384,5.342v0.703
					c0,2.227-0.288,3.815-0.865,4.766c-0.637,1.049-1.803,1.745-3.498,2.09c-0.979,0.202-2.053,0.303-3.223,0.303
					C310.387,28.35,309.457,28.295,308.47,28.184z M311.719,17.021c-0.149,2.143-0.223,4.213-0.223,6.211
					c0,0.756,0.008,1.498,0.026,2.227c0.306,0.053,0.598,0.078,0.878,0.078c0.769,0,1.415-0.198,1.939-0.596
					c0.716-0.533,1.074-1.731,1.074-3.594v-0.039c-0.009-1.875-0.358-3.105-1.048-3.691c-0.533-0.442-1.166-0.664-1.899-0.664
					C312.23,16.953,311.981,16.977,311.719,17.021z"/>
				<path fill="#331842" d="M323.509,27.803l-3.262,0.225c0-4.778-0.105-9.264-0.314-13.457l3.733-0.234
					C323.57,18.757,323.518,23.246,323.509,27.803z"/>
				<path fill="#331842" d="M324.977,28.271c0.105-2.227,0.157-4.395,0.157-6.504c0-2.435-0.07-4.795-0.209-7.08l3.852-0.137
					l3.537,7.354c-0.035-2.525-0.131-5.11-0.288-7.754l4.048-0.039c-0.402,3.991-0.603,8.021-0.603,12.09
					c0,0.547,0.004,1.094,0.013,1.641l-3.55,0.029L328.16,20c0.113,2.904,0.218,5.603,0.314,8.096L324.977,28.271z"/>
				<path fill="#331842" d="M336.466,28.164c1.642-5.56,2.969-10.273,3.982-14.141l4.913-0.059c1.205,4.023,2.585,8.607,4.14,13.75
					l-3.354,0.508l-1.061-3.701h-4.074l-1.101,3.994L336.466,28.164z M344.981,21.777c-0.455-1.406-1.197-3.089-2.228-5.049
					c-0.794,1.647-1.467,3.354-2.017,5.117L344.981,21.777z"/>
				<path fill="#331842" d="M354.466,14.072l3.052,10.117l2.24-9.375l5.974,0.049c-0.104,2.116-0.157,4.252-0.157,6.406
					c0,2.402,0.065,4.834,0.196,7.295l-3.812,0.195c0-2.591-0.039-5.758-0.118-9.502l-2.135,8.584l-4.062,0.205l-2.62-9.258
					l-0.052,9.375l-3.196,0.166c0.061-2.142,0.091-4.268,0.091-6.377c0-2.63-0.048-5.228-0.144-7.793L354.466,14.072z"/>
				<path fill="#331842" d="M366.165,28.164c1.642-5.56,2.969-10.273,3.982-14.141l4.913-0.059c1.205,4.023,2.585,8.607,4.14,13.75
					l-3.354,0.508l-1.061-3.701h-4.074l-1.101,3.994L366.165,28.164z M374.681,21.777c-0.455-1.406-1.197-3.089-2.228-5.049
					c-0.794,1.647-1.467,3.354-2.017,5.117L374.681,21.777z"/>
				<path fill="#331842" d="M379.711,28.418c0.053-1.861,0.079-3.736,0.079-5.625c0-2.891-0.061-5.811-0.183-8.76
					c1.354-0.104,2.568-0.156,3.642-0.156c2.987,0,4.891,0.407,5.711,1.221c0.769,0.762,1.153,1.602,1.153,2.52
					c0,0.417-0.075,0.847-0.223,1.289c-0.506,1.433-1.572,2.341-3.196,2.725c1.135,0.117,1.996,0.573,2.581,1.367
					c0.559,0.769,0.839,2.702,0.839,5.801v0.42l-3.957,0.039c0.043-0.82,0.065-1.556,0.065-2.207c0-1.973-0.214-3.18-0.642-3.623
					c-0.489-0.494-1.07-0.742-1.742-0.742c-0.131,0-0.267,0.01-0.406,0.029c0.053,1.986,0.166,3.867,0.341,5.645L379.711,28.418z
					 M383.065,16.309l0.092,4.18c1.625-0.059,2.655-0.469,3.092-1.23c0.236-0.403,0.354-0.797,0.354-1.182
					c0-0.332-0.087-0.657-0.262-0.977c-0.314-0.553-1.096-0.83-2.345-0.83C383.707,16.27,383.397,16.283,383.065,16.309z"/>
				<path fill="#331842" d="M401.393,19.492l-2.908,0.01v-0.264c0-1.529-0.576-2.295-1.729-2.295c-1.231,0-1.847,1.413-1.847,4.238
					c0,3.184,0.646,4.775,1.939,4.775h0.013c1.292-0.006,1.939-0.787,1.939-2.344v-0.967h3.249v0.732
					c0,3.242-1.786,4.938-5.358,5.088c-0.104,0.007-0.209,0.01-0.314,0.01c-3.362,0-5.043-2.408-5.043-7.227
					c0-4.713,1.729-7.07,5.188-7.07c3.257,0,4.886,1.576,4.886,4.727C401.406,19.096,401.401,19.291,401.393,19.492z"/>
				<path fill="#331842" d="M402.061,28.164c1.642-5.56,2.969-10.273,3.982-14.141l4.913-0.059c1.205,4.023,2.585,8.607,4.14,13.75
					l-3.354,0.508l-1.061-3.701h-4.074l-1.101,3.994L402.061,28.164z M410.577,21.777c-0.455-1.406-1.197-3.089-2.228-5.049
					c-0.794,1.647-1.467,3.354-2.017,5.117L410.577,21.777z"/>
			</g>
		</g>
	</g>
</g>
</svg>
