<?xml version="1.0" encoding="utf-8"?>
<!-- Generator: Adobe Illustrator 16.0.0, SVG Export Plug-In . SVG Version: 6.00 Build 0)  -->
<!DOCTYPE svg PUBLIC "-//W3C//DTD SVG 1.1//EN" "http://www.w3.org/Graphics/SVG/1.1/DTD/svg11.dtd">
<svg version="1.1" id="Capa_1" xmlns="http://www.w3.org/2000/svg" xmlns:xlink="http://www.w3.org/1999/xlink" x="0px" y="0px"
	 width="187.453px" height="43.539px" viewBox="0 0 187.453 43.539" enable-background="new 0 0 187.453 43.539"
	 xml:space="preserve">
<g>
	<rect fill="#951B81" width="150.264" height="43.539"/>
	<g>
		<path fill="#FFFFFF" d="M25.495,30.373c-1.385-5.704-3.026-11.667-4.922-17.888l4.973-0.381l2.913,13.914
			c1.487-4.866,2.702-9.271,3.645-13.215l4.717,0.432c-2.384,7.677-4.161,13.343-5.33,16.999L25.495,30.373z"/>
		<path fill="#FFFFFF" d="M42.014,29.954l-4.24,0.292c0-6.212-0.136-12.044-0.409-17.494l4.854-0.305
			C42.094,18.194,42.026,24.029,42.014,29.954z M37.774,9.857c1.328-1.177,2.418-2.298,3.27-3.364l2.793,1.65
			c-1.203,0.88-2.543,1.959-4.019,3.237L37.774,9.857z"/>
		<path fill="#FFFFFF" d="M56.934,19.15l-3.781,0.013V18.82c0-1.989-0.75-2.983-2.248-2.983c-1.601,0-2.401,1.837-2.401,5.51
			c0,4.139,0.84,6.208,2.521,6.208h0.017c1.681-0.009,2.521-1.023,2.521-3.047v-1.257h4.224v0.952c0,4.215-2.322,6.42-6.965,6.613
			c-0.136,0.01-0.272,0.014-0.409,0.014c-4.371,0-6.557-3.133-6.557-9.395c0-6.128,2.248-9.191,6.744-9.191
			c4.234,0,6.353,2.048,6.353,6.145C56.951,18.634,56.945,18.888,56.934,19.15z"/>
		<path fill="#FFFFFF" d="M58.926,15.926v-3.339c1.669,0.034,3.321,0.051,4.956,0.051c2.543,0,5.035-0.038,7.477-0.114l0.153,3.555
			H67.22c0,6.018,0.085,10.791,0.255,14.319l-4.803,0.179c0.25-6.009,0.431-10.909,0.545-14.701L58.926,15.926z"/>
		<path fill="#FFFFFF" d="M77.796,29.954l-4.241,0.292c0-6.212-0.136-12.044-0.409-17.494L78,12.447
			C77.875,18.194,77.807,24.029,77.796,29.954z"/>
		<path fill="#FFFFFF" d="M85.562,12.104l3.969,13.152l2.912-12.188l7.766,0.063c-0.135,2.751-0.203,5.526-0.203,8.328
			c0,3.123,0.084,6.284,0.254,9.482l-4.955,0.254c0-3.367-0.053-7.485-0.153-12.352l-2.776,11.159l-5.279,0.268L83.69,18.234
			l-0.068,12.188l-4.155,0.217c0.079-2.785,0.119-5.549,0.119-8.291c0-3.418-0.062-6.795-0.188-10.131L85.562,12.104z"/>
		<path fill="#FFFFFF" d="M100.771,30.424c2.134-7.229,3.859-13.355,5.178-18.383l6.385-0.076c1.567,5.23,3.361,11.188,5.383,17.875
			l-4.359,0.66l-1.38-4.812h-5.297l-1.431,5.192L100.771,30.424z M111.841,22.121c-0.59-1.828-1.557-4.016-2.896-6.563
			c-1.032,2.142-1.907,4.358-2.622,6.652L111.841,22.121z"/>
		<path fill="#FFFFFF" d="M118.312,23.835l5.059-0.254c-0.068,0.524-0.103,0.999-0.103,1.422c0,1.921,0.642,2.882,1.924,2.882h0.067
			c1.557-0.033,2.334-0.65,2.334-1.854v-0.114c-0.057-1.278-1.527-2.53-4.411-3.758c-2.804-1.185-4.206-3.14-4.206-5.865
			c0-0.085,0.005-0.169,0.018-0.254c0.08-2.853,2.225-4.304,6.438-4.354h0.137c3.803,0,5.705,1.807,5.705,5.421
			c0,0.288-0.012,0.593-0.034,0.914l-4.444,0.19c0.045-0.381,0.067-0.732,0.067-1.054c0-1.515-0.493-2.271-1.481-2.271
			c-1.191,0-1.844,0.453-1.957,1.358c-0.012,0.127-0.018,0.254-0.018,0.381c0,0.753,0.301,1.456,0.902,2.107
			c0.691,0.753,1.882,1.443,3.568,2.069c1.686,0.626,2.863,1.485,3.533,2.577c0.478,0.787,0.715,1.625,0.715,2.514
			c0,0.34-0.033,0.687-0.102,1.041c-0.261,1.278-0.988,2.338-2.18,3.182c-1.192,0.842-2.793,1.301-4.803,1.377
			c-0.137,0.009-0.272,0.013-0.408,0.013c-1.828,0-3.355-0.499-4.582-1.498c-1.182-0.956-1.771-2.694-1.771-5.218
			C118.279,24.482,118.291,24.165,118.312,23.835z"/>
	</g>
</g>
</svg>
