<?xml version="1.0" encoding="utf-8"?>
<!-- Generator: Adobe Illustrator 16.0.0, SVG Export Plug-In . SVG Version: 6.00 Build 0)  -->
<!DOCTYPE svg PUBLIC "-//W3C//DTD SVG 1.1//EN" "http://www.w3.org/Graphics/SVG/1.1/DTD/svg11.dtd">
<svg version="1.1" id="Capa_1" xmlns="http://www.w3.org/2000/svg" xmlns:xlink="http://www.w3.org/1999/xlink" x="0px" y="0px"
	 width="455.216px" height="99.005px" viewBox="0 0 455.216 99.005" enable-background="new 0 0 455.216 99.005"
	 xml:space="preserve">
<g>
	<g>
		<g>
			<path fill="#331842" d="M164.509,35.67c0.021-2.534,0.03-5.144,0.03-7.828c0-2.691-0.01-5.455-0.03-8.29
				c1.16-0.105,2.229-0.158,3.208-0.158c2.724,0,4.731,0.406,6.022,1.219c1.755,1.112,2.673,3.169,2.754,6.169v0.812
				c0,2.571-0.333,4.406-0.999,5.504c-0.736,1.211-2.083,2.016-4.04,2.414c-1.13,0.233-2.371,0.35-3.722,0.35
				C166.723,35.861,165.649,35.798,164.509,35.67z M168.261,22.777c-0.171,2.475-0.257,4.865-0.257,7.174
				c0,0.872,0.01,1.729,0.03,2.571c0.353,0.061,0.69,0.091,1.014,0.091c0.888,0,1.634-0.229,2.239-0.688
				c0.827-0.616,1.241-2,1.241-4.15v-0.045c-0.01-2.166-0.414-3.587-1.21-4.264c-0.615-0.512-1.347-0.768-2.194-0.768
				C168.852,22.698,168.564,22.725,168.261,22.777z"/>
			<path fill="#331842" d="M183.483,24.188c3.319,0.136,4.978,1.38,4.978,3.733v8.008l-3.525,0.045l-0.121-1.071
				c-0.727,0.617-1.69,0.925-2.89,0.925c-0.514,0-1.069-0.06-1.665-0.18c-1.785-0.331-2.678-1.361-2.678-3.091
				c0-0.211,0.015-0.437,0.045-0.677c0.202-1.782,1.901-2.673,5.099-2.673c0.615,0,1.291,0.033,2.027,0.102V28
				c0-1.061-0.449-1.591-1.347-1.591h-0.061c-0.071-0.007-0.136-0.011-0.197-0.011c-0.979,0-1.468,0.594-1.468,1.782v0.169
				l-3.601-0.226c0-2.624,1.695-3.937,5.084-3.937H183.483z M184.754,33.098v-1.985c-0.434-0.067-0.827-0.101-1.18-0.101
				c-0.918,0-1.543,0.229-1.876,0.688c-0.202,0.278-0.302,0.538-0.302,0.778c0,0.301,0.161,0.567,0.484,0.801
				c0.252,0.181,0.58,0.271,0.983,0.271C183.377,33.549,184.008,33.398,184.754,33.098z"/>
			<path fill="#331842" d="M192.456,24.222l0.151,1.838c0.424-0.978,1.538-1.474,3.344-1.488h0.061c1.775,0,2.985,0.519,3.631,1.556
				c0.444,0.707,0.666,2.361,0.666,4.963c0,1.278-0.056,2.79-0.167,4.534h-3.662c0.131-2.323,0.197-4.124,0.197-5.402
				c0-0.639-0.015-1.15-0.045-1.534c-0.101-1.128-0.585-1.691-1.453-1.691s-1.412,0.301-1.634,0.902l0.151,8.177l-3.556,0.023
				c0-3.459-0.156-7.343-0.469-11.651L192.456,24.222z M190.065,23.003c0-2.256,1.009-3.384,3.026-3.384
				c1.008,0,1.791,0.282,2.345,0.846c0.464,0.467,0.893,0.7,1.286,0.7c0.081,0,0.156-0.008,0.227-0.023
				c0.454-0.112,0.681-0.62,0.681-1.522h2.27c0,2.256-1.009,3.384-3.026,3.384c-1.009,0-1.816-0.282-2.421-0.846
				c-0.504-0.474-0.938-0.711-1.301-0.711c-0.071,0-0.142,0.012-0.212,0.034c-0.404,0.112-0.605,0.62-0.605,1.522H190.065z"/>
			<path fill="#331842" d="M206.891,24.515c3.43,0,5.145,1.774,5.145,5.323c0,0.144-0.005,0.286-0.015,0.429
				c-0.141,3.843-1.967,5.783-5.477,5.82c-0.041,0.008-0.081,0.012-0.121,0.012c-3.339,0-5.008-1.816-5.008-5.448v-0.315
				C201.515,26.454,203.34,24.515,206.891,24.515z M206.392,27.086c-0.636,0.166-1.069,0.778-1.301,1.839
				c-0.142,0.632-0.212,1.267-0.212,1.906c0,0.429,0.03,0.861,0.091,1.297c0.161,1.083,0.681,1.643,1.559,1.681h0.106
				c0.817,0,1.376-0.402,1.679-1.207c0.252-0.669,0.378-1.462,0.378-2.38c0-0.226-0.005-0.455-0.015-0.688
				c-0.081-1.211-0.323-1.967-0.726-2.268c-0.252-0.181-0.555-0.271-0.908-0.271C206.841,26.996,206.624,27.026,206.392,27.086z"/>
			<path fill="#331842" d="M220.948,24.277l0.061,1.805c0.544-0.864,1.175-1.402,1.891-1.612c0.424-0.12,0.853-0.181,1.286-0.181
				c0.323,0,0.646,0.03,0.968,0.09c0.787,0.15,1.347,0.752,1.68,1.805c0.262-0.819,0.716-1.366,1.362-1.641s1.362-0.416,2.148-0.423
				h0.061c0.767,0,1.503,0.139,2.209,0.417c0.716,0.286,1.264,0.821,1.642,1.607c0.378,0.785,0.577,1.863,0.598,3.231v6.553
				l-3.269,0.057c0.131-2.474,0.197-4.579,0.197-6.316s-0.444-2.673-1.332-2.809c-0.131-0.015-0.257-0.022-0.378-0.022
				c-0.706,0-1.25,0.339-1.634,1.016c-0.061,0.782-0.091,1.695-0.091,2.74c0,1.421,0.055,3.079,0.167,4.975l-3.783,0.022
				c0.141-2.91,0.211-5.03,0.211-6.361v-0.136c-0.01-1.315-0.358-2.008-1.044-2.075h-0.197c-0.615,0-1.21,0.264-1.785,0.789
				l0.03,8.257l-3.571,0.102v-1.85c0-3.278-0.066-6.554-0.197-9.824L220.948,24.277z"/>
			<path fill="#331842" d="M241.617,24.188c3.319,0.136,4.978,1.38,4.978,3.733v8.008l-3.525,0.045l-0.121-1.071
				c-0.727,0.617-1.69,0.925-2.89,0.925c-0.514,0-1.069-0.06-1.665-0.18c-1.785-0.331-2.678-1.361-2.678-3.091
				c0-0.211,0.015-0.437,0.045-0.677c0.202-1.782,1.901-2.673,5.099-2.673c0.615,0,1.291,0.033,2.027,0.102V28
				c0-1.061-0.449-1.591-1.347-1.591h-0.061c-0.071-0.007-0.136-0.011-0.197-0.011c-0.979,0-1.468,0.594-1.468,1.782v0.169
				l-3.601-0.226c0-2.624,1.695-3.937,5.084-3.937H241.617z M242.888,33.098v-1.985c-0.434-0.067-0.827-0.101-1.18-0.101
				c-0.918,0-1.543,0.229-1.876,0.688c-0.202,0.278-0.302,0.538-0.302,0.778c0,0.301,0.161,0.567,0.484,0.801
				c0.252,0.181,0.58,0.271,0.983,0.271C241.511,33.549,242.141,33.398,242.888,33.098z"/>
			<path fill="#331842" d="M250.333,20.916l3.435-0.169v3.733l2.89-0.057l0.045,2.132l-2.936,0.102v5.132
				c0,1.196,0.681,1.794,2.042,1.794c0.282,0,0.59-0.026,0.923-0.079l-0.136,2.481c-0.484,0.045-0.943,0.067-1.377,0.067
				c-3.188,0-4.812-1.226-4.872-3.677V26.86l-2.482,0.113l-0.06-2.516l2.542,0.022L250.333,20.916z"/>
			<path fill="#331842" d="M262.876,24.515c3.5,0,5.25,1.733,5.25,5.199c0,0.422-0.025,0.873-0.076,1.354h-6.764
				c0,1.933,0.5,2.899,1.498,2.899h0.106c0.877-0.053,1.316-0.553,1.316-1.501c0-0.202-0.021-0.428-0.061-0.677l3.601-0.056
				c0,2.864-1.68,4.316-5.039,4.354c-0.041,0.008-0.076,0.012-0.106,0.012c-3.198,0-4.796-1.809-4.796-5.426v-0.338
				C257.908,26.454,259.597,24.515,262.876,24.515z M260.924,28.992h3.42v-0.271c0-1.368-0.52-2.053-1.559-2.053
				C261.666,26.669,261.045,27.443,260.924,28.992z"/>
			<path fill="#331842" d="M273.286,28.011l0.151,8.178l-3.707,0.022c0-3.459-0.156-7.343-0.469-11.651l2.784-0.226l0.151,1.839
				c0.424-0.902,1.412-1.418,2.966-1.546c0.232-0.015,0.454-0.022,0.666-0.022c1.221,0,2.149,0.298,2.784,0.892
				c0.736,0.707,1.109,1.831,1.12,3.372l-3.359,0.248c0.01-0.128,0.015-0.252,0.015-0.372c0-1.203-0.419-1.805-1.256-1.805h-0.061
				C274.103,26.978,273.508,27.334,273.286,28.011z"/>
			<path fill="#331842" d="M284.982,21.92c0,0.459-0.217,0.851-0.65,1.174c-0.434,0.323-0.958,0.484-1.574,0.484
				c-0.605,0-1.125-0.161-1.559-0.484s-0.65-0.715-0.65-1.174c0-0.451,0.217-0.838,0.65-1.161s0.953-0.485,1.559-0.485
				c0.615,0,1.14,0.162,1.574,0.485C284.765,21.082,284.982,21.469,284.982,21.92z M280.927,36.154
				c-0.07-4.398-0.106-8.199-0.106-11.403l3.813-0.169c-0.121,3.068-0.181,6.117-0.181,9.147c0,0.812,0.005,1.62,0.015,2.425
				H280.927z"/>
			<path fill="#331842" d="M291.67,24.188c3.319,0.136,4.978,1.38,4.978,3.733v8.008l-3.525,0.045l-0.121-1.071
				c-0.727,0.617-1.69,0.925-2.89,0.925c-0.514,0-1.069-0.06-1.665-0.18c-1.785-0.331-2.678-1.361-2.678-3.091
				c0-0.211,0.015-0.437,0.045-0.677c0.202-1.782,1.901-2.673,5.099-2.673c0.615,0,1.291,0.033,2.027,0.102V28
				c0-1.061-0.449-1.591-1.347-1.591h-0.061c-0.071-0.007-0.136-0.011-0.197-0.011c-0.979,0-1.468,0.594-1.468,1.782v0.169
				l-3.601-0.226c0-2.624,1.695-3.937,5.084-3.937H291.67z M292.941,33.098v-1.985c-0.434-0.067-0.827-0.101-1.18-0.101
				c-0.918,0-1.543,0.229-1.876,0.688c-0.202,0.278-0.302,0.538-0.302,0.778c0,0.301,0.161,0.567,0.484,0.801
				c0.252,0.181,0.58,0.271,0.983,0.271C291.564,33.549,292.194,33.398,292.941,33.098z"/>
			<path fill="#331842" d="M302.11,35.906l-3.768,0.26c0.04-2.489,0.061-4.884,0.061-7.185c0-3.233-0.041-6.283-0.121-9.147
				l3.707-0.046c-0.041,1.843-0.061,3.733-0.061,5.674C301.929,28.809,301.989,32.29,302.11,35.906z"/>
			<path fill="#3C3C3B" d="M34.356,52.183l1.43-0.125c0.067,0.573,0.225,1.043,0.473,1.41c0.247,0.367,0.631,0.664,1.152,0.891
				c0.521,0.227,1.106,0.34,1.758,0.34c0.578,0,1.088-0.086,1.531-0.258c0.442-0.172,0.772-0.407,0.988-0.707
				c0.216-0.3,0.324-0.626,0.324-0.98c0-0.359-0.104-0.673-0.312-0.941c-0.208-0.269-0.552-0.493-1.031-0.676
				c-0.308-0.12-0.987-0.306-2.039-0.559c-1.052-0.253-1.789-0.491-2.211-0.715c-0.547-0.286-0.955-0.642-1.223-1.066
				c-0.269-0.425-0.402-0.899-0.402-1.426c0-0.578,0.164-1.118,0.492-1.621s0.807-0.884,1.438-1.145
				c0.63-0.261,1.331-0.391,2.102-0.391c0.849,0,1.598,0.137,2.246,0.41s1.147,0.676,1.496,1.207
				c0.349,0.531,0.536,1.133,0.562,1.805l-1.453,0.109c-0.078-0.724-0.343-1.271-0.793-1.641c-0.451-0.37-1.116-0.555-1.996-0.555
				c-0.917,0-1.585,0.168-2.004,0.504c-0.419,0.336-0.629,0.741-0.629,1.215c0,0.411,0.148,0.75,0.445,1.016
				c0.292,0.266,1.053,0.538,2.285,0.816c1.231,0.278,2.077,0.522,2.535,0.73c0.667,0.308,1.159,0.696,1.477,1.168
				c0.317,0.472,0.477,1.015,0.477,1.629c0,0.609-0.175,1.184-0.523,1.723c-0.349,0.539-0.851,0.958-1.504,1.258
				c-0.654,0.3-1.39,0.449-2.207,0.449c-1.037,0-1.905-0.151-2.605-0.453c-0.701-0.302-1.25-0.757-1.648-1.363
				S34.377,52.948,34.356,52.183z"/>
			<path fill="#3C3C3B" d="M51.044,53.19l1.453,0.18c-0.229,0.849-0.654,1.508-1.273,1.977c-0.62,0.469-1.412,0.703-2.375,0.703
				c-1.214,0-2.176-0.374-2.887-1.121s-1.066-1.796-1.066-3.145c0-1.396,0.359-2.479,1.078-3.25s1.651-1.156,2.797-1.156
				c1.109,0,2.016,0.378,2.719,1.133s1.055,1.817,1.055,3.188c0,0.083-0.003,0.208-0.008,0.375h-6.188
				c0.052,0.911,0.31,1.609,0.773,2.094c0.463,0.484,1.042,0.727,1.734,0.727c0.516,0,0.956-0.136,1.32-0.406
				C50.541,54.217,50.83,53.784,51.044,53.19z M46.427,50.917h4.633c-0.062-0.698-0.24-1.222-0.531-1.57
				c-0.448-0.542-1.029-0.812-1.742-0.812c-0.646,0-1.189,0.216-1.629,0.648C46.717,49.615,46.474,50.193,46.427,50.917z"/>
			<path fill="#3C3C3B" d="M58.692,55.862v-8.297h1.266v1.258c0.323-0.589,0.621-0.977,0.895-1.164s0.574-0.281,0.902-0.281
				c0.474,0,0.956,0.151,1.445,0.453l-0.484,1.305c-0.344-0.203-0.688-0.305-1.031-0.305c-0.308,0-0.583,0.093-0.828,0.277
				c-0.245,0.185-0.419,0.441-0.523,0.77c-0.156,0.5-0.234,1.047-0.234,1.641v4.344H58.692z"/>
			<path fill="#3C3C3B" d="M69.716,53.19l1.453,0.18c-0.229,0.849-0.654,1.508-1.273,1.977c-0.62,0.469-1.412,0.703-2.375,0.703
				c-1.214,0-2.176-0.374-2.887-1.121s-1.066-1.796-1.066-3.145c0-1.396,0.359-2.479,1.078-3.25s1.651-1.156,2.797-1.156
				c1.109,0,2.016,0.378,2.719,1.133s1.055,1.817,1.055,3.188c0,0.083-0.003,0.208-0.008,0.375h-6.188
				c0.052,0.911,0.31,1.609,0.773,2.094c0.463,0.484,1.042,0.727,1.734,0.727c0.516,0,0.956-0.136,1.32-0.406
				C69.213,54.217,69.502,53.784,69.716,53.19z M65.099,50.917h4.633c-0.062-0.698-0.24-1.222-0.531-1.57
				c-0.448-0.542-1.029-0.812-1.742-0.812c-0.646,0-1.189,0.216-1.629,0.648C65.389,49.615,65.146,50.193,65.099,50.917z"/>
			<path fill="#3C3C3B" d="M73.271,55.862v-7.203h-1.242v-1.094h1.242v-0.883c0-0.558,0.049-0.972,0.148-1.242
				c0.135-0.364,0.374-0.66,0.715-0.887c0.341-0.227,0.819-0.34,1.434-0.34c0.396,0,0.833,0.047,1.312,0.141l-0.211,1.227
				c-0.292-0.052-0.568-0.078-0.828-0.078c-0.427,0-0.729,0.091-0.906,0.273c-0.177,0.183-0.266,0.523-0.266,1.023v0.766h1.617
				v1.094h-1.617v7.203H73.271z"/>
			<path fill="#3C3C3B" d="M77.388,46.026v-1.617h1.406v1.617H77.388z M77.388,55.862v-8.297h1.406v8.297H77.388z"/>
			<path fill="#3C3C3B" d="M86.614,53.19l1.453,0.18c-0.229,0.849-0.654,1.508-1.273,1.977c-0.62,0.469-1.412,0.703-2.375,0.703
				c-1.214,0-2.176-0.374-2.887-1.121s-1.066-1.796-1.066-3.145c0-1.396,0.359-2.479,1.078-3.25s1.651-1.156,2.797-1.156
				c1.109,0,2.016,0.378,2.719,1.133s1.055,1.817,1.055,3.188c0,0.083-0.003,0.208-0.008,0.375h-6.188
				c0.052,0.911,0.31,1.609,0.773,2.094c0.463,0.484,1.042,0.727,1.734,0.727c0.516,0,0.956-0.136,1.32-0.406
				C86.111,54.217,86.4,53.784,86.614,53.19z M81.997,50.917h4.633c-0.062-0.698-0.24-1.222-0.531-1.57
				c-0.448-0.542-1.029-0.812-1.742-0.812c-0.646,0-1.189,0.216-1.629,0.648C82.287,49.615,82.044,50.193,81.997,50.917z"/>
			<path fill="#3C3C3B" d="M89.817,55.862v-8.297h1.266v1.258c0.323-0.589,0.621-0.977,0.895-1.164s0.574-0.281,0.902-0.281
				c0.474,0,0.956,0.151,1.445,0.453l-0.484,1.305c-0.344-0.203-0.688-0.305-1.031-0.305c-0.308,0-0.583,0.093-0.828,0.277
				c-0.245,0.185-0.419,0.441-0.523,0.77c-0.156,0.5-0.234,1.047-0.234,1.641v4.344H89.817z"/>
			<path fill="#3C3C3B" d="M100.841,53.19l1.453,0.18c-0.229,0.849-0.654,1.508-1.273,1.977c-0.62,0.469-1.412,0.703-2.375,0.703
				c-1.214,0-2.176-0.374-2.887-1.121s-1.066-1.796-1.066-3.145c0-1.396,0.359-2.479,1.078-3.25s1.651-1.156,2.797-1.156
				c1.109,0,2.016,0.378,2.719,1.133s1.055,1.817,1.055,3.188c0,0.083-0.003,0.208-0.008,0.375h-6.188
				c0.052,0.911,0.31,1.609,0.773,2.094c0.463,0.484,1.042,0.727,1.734,0.727c0.516,0,0.956-0.136,1.32-0.406
				C100.338,54.217,100.627,53.784,100.841,53.19z M96.224,50.917h4.633c-0.062-0.698-0.24-1.222-0.531-1.57
				c-0.448-0.542-1.029-0.812-1.742-0.812c-0.646,0-1.189,0.216-1.629,0.648C96.514,49.615,96.271,50.193,96.224,50.917z"/>
			<path fill="#3C3C3B" d="M114.185,53.19l1.453,0.18c-0.229,0.849-0.654,1.508-1.273,1.977c-0.62,0.469-1.412,0.703-2.375,0.703
				c-1.214,0-2.176-0.374-2.887-1.121s-1.066-1.796-1.066-3.145c0-1.396,0.359-2.479,1.078-3.25s1.651-1.156,2.797-1.156
				c1.109,0,2.016,0.378,2.719,1.133s1.055,1.817,1.055,3.188c0,0.083-0.003,0.208-0.008,0.375h-6.188
				c0.052,0.911,0.31,1.609,0.773,2.094c0.463,0.484,1.042,0.727,1.734,0.727c0.516,0,0.956-0.136,1.32-0.406
				C113.682,54.217,113.971,53.784,114.185,53.19z M109.567,50.917h4.633c-0.062-0.698-0.24-1.222-0.531-1.57
				c-0.448-0.542-1.029-0.812-1.742-0.812c-0.646,0-1.189,0.216-1.629,0.648C109.857,49.615,109.614,50.193,109.567,50.917z"/>
			<path fill="#3C3C3B" d="M116.466,55.862l3.031-4.312l-2.805-3.984h1.758l1.273,1.945c0.239,0.37,0.432,0.68,0.578,0.93
				c0.229-0.344,0.44-0.648,0.633-0.914l1.398-1.961h1.68l-2.867,3.906l3.086,4.391h-1.727l-1.703-2.578l-0.453-0.695l-2.18,3.273
				H116.466z"/>
			<path fill="#3C3C3B" d="M130.817,52.823l1.383,0.18c-0.151,0.953-0.538,1.699-1.16,2.238c-0.623,0.539-1.387,0.809-2.293,0.809
				c-1.136,0-2.048-0.371-2.738-1.113c-0.69-0.742-1.035-1.806-1.035-3.191c0-0.896,0.148-1.68,0.445-2.352s0.749-1.176,1.355-1.512
				c0.606-0.336,1.267-0.504,1.98-0.504c0.901,0,1.638,0.228,2.211,0.684c0.573,0.456,0.94,1.103,1.102,1.941l-1.367,0.211
				c-0.13-0.558-0.361-0.977-0.691-1.258c-0.331-0.281-0.73-0.422-1.199-0.422c-0.708,0-1.284,0.254-1.727,0.762
				c-0.443,0.508-0.664,1.312-0.664,2.41c0,1.114,0.213,1.925,0.641,2.43c0.427,0.505,0.984,0.758,1.672,0.758
				c0.552,0,1.013-0.169,1.383-0.508C130.484,54.047,130.718,53.526,130.817,52.823z"/>
			<path fill="#3C3C3B" d="M133.372,55.862V44.409h1.406v11.453H133.372z"/>
			<path fill="#3C3C3B" d="M142.396,55.862v-1.219c-0.646,0.938-1.523,1.406-2.633,1.406c-0.49,0-0.947-0.094-1.371-0.281
				c-0.425-0.188-0.74-0.423-0.945-0.707c-0.206-0.284-0.351-0.632-0.434-1.043c-0.058-0.276-0.086-0.714-0.086-1.312v-5.141h1.406
				v4.602c0,0.734,0.028,1.229,0.086,1.484c0.088,0.37,0.276,0.66,0.562,0.871c0.286,0.211,0.641,0.316,1.062,0.316
				s0.817-0.108,1.188-0.324c0.37-0.216,0.631-0.511,0.785-0.883c0.153-0.372,0.23-0.913,0.23-1.621v-4.445h1.406v8.297H142.396z"/>
			<path fill="#3C3C3B" d="M145.294,53.386l1.391-0.219c0.078,0.558,0.295,0.984,0.652,1.281c0.356,0.297,0.855,0.445,1.496,0.445
				c0.646,0,1.125-0.132,1.438-0.395s0.469-0.571,0.469-0.926c0-0.317-0.138-0.567-0.414-0.75c-0.193-0.125-0.672-0.284-1.438-0.477
				c-1.031-0.261-1.746-0.485-2.145-0.676s-0.701-0.453-0.906-0.789c-0.206-0.336-0.309-0.707-0.309-1.113
				c0-0.37,0.084-0.712,0.254-1.027c0.169-0.315,0.399-0.577,0.691-0.785c0.219-0.161,0.517-0.298,0.895-0.41
				c0.377-0.112,0.782-0.168,1.215-0.168c0.651,0,1.223,0.094,1.715,0.281s0.855,0.441,1.09,0.762s0.396,0.749,0.484,1.285
				l-1.375,0.188c-0.062-0.427-0.244-0.761-0.543-1c-0.3-0.239-0.723-0.359-1.27-0.359c-0.646,0-1.107,0.106-1.383,0.32
				c-0.276,0.214-0.414,0.464-0.414,0.75c0,0.183,0.057,0.347,0.172,0.492c0.114,0.151,0.294,0.276,0.539,0.375
				c0.141,0.052,0.555,0.172,1.242,0.359c0.995,0.266,1.688,0.483,2.082,0.652c0.393,0.169,0.702,0.415,0.926,0.738
				c0.224,0.323,0.336,0.724,0.336,1.203c0,0.469-0.137,0.91-0.41,1.324s-0.668,0.734-1.184,0.961s-1.099,0.34-1.75,0.34
				c-1.078,0-1.9-0.224-2.465-0.672C145.811,54.93,145.45,54.266,145.294,53.386z"/>
			<path fill="#3C3C3B" d="M153.864,46.026v-1.617h1.406v1.617H153.864z M153.864,55.862v-8.297h1.406v8.297H153.864z"/>
			<path fill="#3C3C3B" d="M159.716,55.862l-3.156-8.297h1.484l1.781,4.969c0.192,0.536,0.37,1.094,0.531,1.672
				c0.125-0.438,0.299-0.964,0.523-1.578l1.844-5.062h1.445l-3.141,8.297H159.716z"/>
			<path fill="#3C3C3B" d="M170.825,54.839c-0.521,0.442-1.022,0.755-1.504,0.938c-0.482,0.183-0.999,0.273-1.551,0.273
				c-0.912,0-1.612-0.223-2.102-0.668c-0.49-0.445-0.734-1.015-0.734-1.707c0-0.406,0.092-0.777,0.277-1.113
				c0.185-0.336,0.427-0.605,0.727-0.809c0.299-0.203,0.637-0.356,1.012-0.461c0.276-0.073,0.692-0.144,1.25-0.211
				c1.135-0.136,1.971-0.297,2.508-0.484c0.005-0.192,0.008-0.315,0.008-0.367c0-0.573-0.133-0.977-0.398-1.211
				c-0.359-0.317-0.894-0.477-1.602-0.477c-0.662,0-1.15,0.116-1.465,0.348c-0.315,0.231-0.548,0.642-0.699,1.23l-1.375-0.188
				c0.125-0.589,0.331-1.063,0.617-1.426c0.286-0.362,0.7-0.641,1.242-0.836c0.542-0.195,1.169-0.293,1.883-0.293
				c0.708,0,1.284,0.083,1.727,0.25c0.442,0.167,0.768,0.376,0.977,0.629c0.208,0.253,0.354,0.571,0.438,0.957
				c0.047,0.239,0.07,0.672,0.07,1.297v1.875c0,1.308,0.03,2.134,0.09,2.48c0.06,0.347,0.178,0.679,0.355,0.996h-1.469
				C170.96,55.57,170.867,55.229,170.825,54.839z M170.708,51.698c-0.511,0.208-1.276,0.386-2.297,0.531
				c-0.578,0.083-0.987,0.177-1.227,0.281c-0.24,0.104-0.425,0.257-0.555,0.457c-0.13,0.2-0.195,0.423-0.195,0.668
				c0,0.375,0.142,0.688,0.426,0.938c0.284,0.25,0.699,0.375,1.246,0.375c0.542,0,1.023-0.118,1.445-0.355s0.731-0.562,0.93-0.973
				c0.151-0.317,0.227-0.786,0.227-1.406V51.698z"/>
			<path fill="#3C3C3B" d="M174.31,55.862v-8.297h1.258v1.164c0.26-0.406,0.606-0.733,1.039-0.98
				c0.432-0.247,0.924-0.371,1.477-0.371c0.614,0,1.118,0.128,1.512,0.383c0.393,0.255,0.67,0.612,0.832,1.07
				c0.656-0.969,1.51-1.453,2.562-1.453c0.823,0,1.456,0.228,1.898,0.684c0.442,0.456,0.664,1.157,0.664,2.105v5.695h-1.398v-5.227
				c0-0.562-0.046-0.968-0.137-1.215c-0.091-0.247-0.257-0.446-0.496-0.598c-0.24-0.151-0.521-0.227-0.844-0.227
				c-0.583,0-1.068,0.194-1.453,0.582c-0.386,0.388-0.578,1.009-0.578,1.863v4.82h-1.406v-5.391c0-0.625-0.115-1.094-0.344-1.406
				c-0.229-0.312-0.604-0.469-1.125-0.469c-0.396,0-0.762,0.104-1.098,0.312s-0.58,0.513-0.73,0.914
				c-0.151,0.401-0.227,0.979-0.227,1.734v4.305H174.31z"/>
			<path fill="#3C3C3B" d="M193.317,53.19l1.453,0.18c-0.229,0.849-0.654,1.508-1.273,1.977c-0.62,0.469-1.412,0.703-2.375,0.703
				c-1.214,0-2.176-0.374-2.887-1.121s-1.066-1.796-1.066-3.145c0-1.396,0.359-2.479,1.078-3.25s1.651-1.156,2.797-1.156
				c1.109,0,2.016,0.378,2.719,1.133s1.055,1.817,1.055,3.188c0,0.083-0.003,0.208-0.008,0.375h-6.188
				c0.052,0.911,0.31,1.609,0.773,2.094c0.463,0.484,1.042,0.727,1.734,0.727c0.516,0,0.956-0.136,1.32-0.406
				C192.814,54.217,193.104,53.784,193.317,53.19z M188.7,50.917h4.633c-0.062-0.698-0.24-1.222-0.531-1.57
				c-0.448-0.542-1.029-0.812-1.742-0.812c-0.646,0-1.189,0.216-1.629,0.648C188.99,49.615,188.747,50.193,188.7,50.917z"/>
			<path fill="#3C3C3B" d="M196.536,55.862v-8.297h1.266v1.18c0.609-0.911,1.489-1.367,2.641-1.367c0.5,0,0.959,0.09,1.379,0.27
				c0.419,0.18,0.733,0.415,0.941,0.707c0.208,0.292,0.354,0.638,0.438,1.039c0.052,0.261,0.078,0.716,0.078,1.367v5.102h-1.406
				v-5.047c0-0.573-0.055-1.001-0.164-1.285s-0.304-0.511-0.582-0.68c-0.279-0.169-0.605-0.254-0.98-0.254
				c-0.599,0-1.116,0.19-1.551,0.57c-0.435,0.38-0.652,1.102-0.652,2.164v4.531H196.536z"/>
			<path fill="#3C3C3B" d="M208.505,54.604l0.203,1.242c-0.396,0.083-0.75,0.125-1.062,0.125c-0.511,0-0.906-0.081-1.188-0.242
				s-0.479-0.374-0.594-0.637c-0.115-0.263-0.172-0.816-0.172-1.66v-4.773h-1.031v-1.094h1.031v-2.055l1.398-0.844v2.898h1.414
				v1.094h-1.414v4.852c0,0.401,0.024,0.659,0.074,0.773c0.049,0.114,0.13,0.206,0.242,0.273c0.112,0.067,0.272,0.102,0.48,0.102
				C208.044,54.659,208.25,54.641,208.505,54.604z"/>
			<path fill="#3C3C3B" d="M215.56,53.19l1.453,0.18c-0.229,0.849-0.654,1.508-1.273,1.977c-0.62,0.469-1.412,0.703-2.375,0.703
				c-1.214,0-2.176-0.374-2.887-1.121s-1.066-1.796-1.066-3.145c0-1.396,0.359-2.479,1.078-3.25s1.651-1.156,2.797-1.156
				c1.109,0,2.016,0.378,2.719,1.133s1.055,1.817,1.055,3.188c0,0.083-0.003,0.208-0.008,0.375h-6.188
				c0.052,0.911,0.31,1.609,0.773,2.094c0.463,0.484,1.042,0.727,1.734,0.727c0.516,0,0.956-0.136,1.32-0.406
				C215.057,54.217,215.346,53.784,215.56,53.19z M210.942,50.917h4.633c-0.062-0.698-0.24-1.222-0.531-1.57
				c-0.448-0.542-1.029-0.812-1.742-0.812c-0.646,0-1.189,0.216-1.629,0.648C211.232,49.615,210.989,50.193,210.942,50.917z"/>
			<path fill="#3C3C3B" d="M228.638,54.839c-0.521,0.442-1.022,0.755-1.504,0.938c-0.482,0.183-0.999,0.273-1.551,0.273
				c-0.912,0-1.612-0.223-2.102-0.668c-0.49-0.445-0.734-1.015-0.734-1.707c0-0.406,0.092-0.777,0.277-1.113
				c0.185-0.336,0.427-0.605,0.727-0.809c0.299-0.203,0.637-0.356,1.012-0.461c0.276-0.073,0.692-0.144,1.25-0.211
				c1.135-0.136,1.971-0.297,2.508-0.484c0.005-0.192,0.008-0.315,0.008-0.367c0-0.573-0.133-0.977-0.398-1.211
				c-0.359-0.317-0.894-0.477-1.602-0.477c-0.662,0-1.15,0.116-1.465,0.348c-0.315,0.231-0.548,0.642-0.699,1.23l-1.375-0.188
				c0.125-0.589,0.331-1.063,0.617-1.426c0.286-0.362,0.7-0.641,1.242-0.836c0.542-0.195,1.169-0.293,1.883-0.293
				c0.708,0,1.284,0.083,1.727,0.25c0.442,0.167,0.768,0.376,0.977,0.629c0.208,0.253,0.354,0.571,0.438,0.957
				c0.047,0.239,0.07,0.672,0.07,1.297v1.875c0,1.308,0.03,2.134,0.09,2.48c0.06,0.347,0.178,0.679,0.355,0.996h-1.469
				C228.773,55.57,228.679,55.229,228.638,54.839z M228.521,51.698c-0.511,0.208-1.276,0.386-2.297,0.531
				c-0.578,0.083-0.987,0.177-1.227,0.281c-0.24,0.104-0.425,0.257-0.555,0.457c-0.13,0.2-0.195,0.423-0.195,0.668
				c0,0.375,0.142,0.688,0.426,0.938c0.284,0.25,0.699,0.375,1.246,0.375c0.542,0,1.023-0.118,1.445-0.355s0.731-0.562,0.93-0.973
				c0.151-0.317,0.227-0.786,0.227-1.406V51.698z"/>
			<path fill="#3C3C3B" d="M232.091,55.862V44.409h1.406v11.453H232.091z"/>
			<path fill="#3C3C3B" d="M245.505,55.862v-1.047c-0.526,0.823-1.3,1.234-2.32,1.234c-0.662,0-1.27-0.183-1.824-0.547
				s-0.984-0.874-1.289-1.527s-0.457-1.405-0.457-2.254c0-0.828,0.138-1.579,0.414-2.254c0.276-0.675,0.69-1.191,1.242-1.551
				c0.552-0.359,1.169-0.539,1.852-0.539c0.5,0,0.945,0.105,1.336,0.316s0.708,0.485,0.953,0.824v-4.109h1.398v11.453H245.505z
				 M241.06,51.722c0,1.062,0.224,1.856,0.672,2.383c0.448,0.526,0.977,0.789,1.586,0.789c0.614,0,1.137-0.251,1.566-0.754
				s0.645-1.27,0.645-2.301c0-1.136-0.219-1.969-0.656-2.5s-0.977-0.797-1.617-0.797c-0.625,0-1.147,0.255-1.566,0.766
				C241.269,49.818,241.06,50.623,241.06,51.722z"/>
			<path fill="#3C3C3B" d="M254.7,53.19l1.453,0.18c-0.229,0.849-0.654,1.508-1.273,1.977c-0.62,0.469-1.412,0.703-2.375,0.703
				c-1.214,0-2.176-0.374-2.887-1.121s-1.066-1.796-1.066-3.145c0-1.396,0.359-2.479,1.078-3.25s1.651-1.156,2.797-1.156
				c1.109,0,2.016,0.378,2.719,1.133s1.055,1.817,1.055,3.188c0,0.083-0.003,0.208-0.008,0.375h-6.188
				c0.052,0.911,0.31,1.609,0.773,2.094c0.463,0.484,1.042,0.727,1.734,0.727c0.516,0,0.956-0.136,1.32-0.406
				C254.197,54.217,254.486,53.784,254.7,53.19z M250.083,50.917h4.633c-0.062-0.698-0.24-1.222-0.531-1.57
				c-0.448-0.542-1.029-0.812-1.742-0.812c-0.646,0-1.189,0.216-1.629,0.648C250.373,49.615,250.13,50.193,250.083,50.917z"/>
			<path fill="#3C3C3B" d="M260.989,54.604l0.203,1.242c-0.396,0.083-0.75,0.125-1.062,0.125c-0.511,0-0.906-0.081-1.188-0.242
				s-0.479-0.374-0.594-0.637c-0.115-0.263-0.172-0.816-0.172-1.66v-4.773h-1.031v-1.094h1.031v-2.055l1.398-0.844v2.898h1.414
				v1.094h-1.414v4.852c0,0.401,0.024,0.659,0.074,0.773c0.049,0.114,0.13,0.206,0.242,0.273c0.112,0.067,0.272,0.102,0.48,0.102
				C260.528,54.659,260.734,54.641,260.989,54.604z"/>
			<path fill="#3C3C3B" d="M262.349,55.862v-8.297h1.266v1.258c0.323-0.589,0.621-0.977,0.895-1.164s0.574-0.281,0.902-0.281
				c0.474,0,0.956,0.151,1.445,0.453l-0.484,1.305c-0.344-0.203-0.688-0.305-1.031-0.305c-0.308,0-0.583,0.093-0.828,0.277
				c-0.245,0.185-0.419,0.441-0.523,0.77c-0.156,0.5-0.234,1.047-0.234,1.641v4.344H262.349z"/>
			<path fill="#3C3C3B" d="M267.7,46.026v-1.617h1.406v1.617H267.7z M267.7,55.862v-8.297h1.406v8.297H267.7z"/>
			<path fill="#3C3C3B" d="M271.247,55.862v-8.297h1.258v1.164c0.26-0.406,0.606-0.733,1.039-0.98
				c0.432-0.247,0.924-0.371,1.477-0.371c0.614,0,1.118,0.128,1.512,0.383c0.393,0.255,0.67,0.612,0.832,1.07
				c0.656-0.969,1.51-1.453,2.562-1.453c0.823,0,1.456,0.228,1.898,0.684c0.442,0.456,0.664,1.157,0.664,2.105v5.695h-1.398v-5.227
				c0-0.562-0.046-0.968-0.137-1.215c-0.091-0.247-0.257-0.446-0.496-0.598c-0.24-0.151-0.521-0.227-0.844-0.227
				c-0.583,0-1.068,0.194-1.453,0.582c-0.386,0.388-0.578,1.009-0.578,1.863v4.82h-1.406v-5.391c0-0.625-0.115-1.094-0.344-1.406
				c-0.229-0.312-0.604-0.469-1.125-0.469c-0.396,0-0.762,0.104-1.098,0.312s-0.58,0.513-0.73,0.914
				c-0.151,0.401-0.227,0.979-0.227,1.734v4.305H271.247z"/>
			<path fill="#3C3C3B" d="M290.255,53.19l1.453,0.18c-0.229,0.849-0.654,1.508-1.273,1.977c-0.62,0.469-1.412,0.703-2.375,0.703
				c-1.214,0-2.176-0.374-2.887-1.121s-1.066-1.796-1.066-3.145c0-1.396,0.359-2.479,1.078-3.25s1.651-1.156,2.797-1.156
				c1.109,0,2.016,0.378,2.719,1.133s1.055,1.817,1.055,3.188c0,0.083-0.003,0.208-0.008,0.375h-6.188
				c0.052,0.911,0.31,1.609,0.773,2.094c0.463,0.484,1.042,0.727,1.734,0.727c0.516,0,0.956-0.136,1.32-0.406
				C289.752,54.217,290.041,53.784,290.255,53.19z M285.638,50.917h4.633c-0.062-0.698-0.24-1.222-0.531-1.57
				c-0.448-0.542-1.029-0.812-1.742-0.812c-0.646,0-1.189,0.216-1.629,0.648C285.928,49.615,285.685,50.193,285.638,50.917z"/>
			<path fill="#3C3C3B" d="M293.474,55.862v-8.297h1.266v1.18c0.609-0.911,1.489-1.367,2.641-1.367c0.5,0,0.959,0.09,1.379,0.27
				c0.419,0.18,0.733,0.415,0.941,0.707c0.208,0.292,0.354,0.638,0.438,1.039c0.052,0.261,0.078,0.716,0.078,1.367v5.102h-1.406
				v-5.047c0-0.573-0.055-1.001-0.164-1.285s-0.304-0.511-0.582-0.68c-0.279-0.169-0.605-0.254-0.98-0.254
				c-0.599,0-1.116,0.19-1.551,0.57c-0.435,0.38-0.652,1.102-0.652,2.164v4.531H293.474z"/>
			<path fill="#3C3C3B" d="M305.442,54.604l0.203,1.242c-0.396,0.083-0.75,0.125-1.062,0.125c-0.511,0-0.906-0.081-1.188-0.242
				s-0.479-0.374-0.594-0.637c-0.115-0.263-0.172-0.816-0.172-1.66v-4.773h-1.031v-1.094h1.031v-2.055l1.398-0.844v2.898h1.414
				v1.094h-1.414v4.852c0,0.401,0.024,0.659,0.074,0.773c0.049,0.114,0.13,0.206,0.242,0.273c0.112,0.067,0.272,0.102,0.48,0.102
				C304.981,54.659,305.187,54.641,305.442,54.604z"/>
			<path fill="#3C3C3B" d="M306.294,51.714c0-1.536,0.427-2.675,1.281-3.414c0.713-0.614,1.583-0.922,2.609-0.922
				c1.141,0,2.073,0.374,2.797,1.121c0.724,0.747,1.086,1.78,1.086,3.098c0,1.067-0.16,1.907-0.48,2.52s-0.787,1.087-1.398,1.426
				c-0.612,0.339-1.28,0.508-2.004,0.508c-1.162,0-2.101-0.372-2.816-1.117C306.652,54.188,306.294,53.115,306.294,51.714z
				 M307.739,51.714c0,1.062,0.231,1.858,0.695,2.387c0.463,0.528,1.047,0.793,1.75,0.793c0.698,0,1.278-0.266,1.742-0.797
				c0.463-0.531,0.695-1.341,0.695-2.43c0-1.026-0.233-1.804-0.699-2.332c-0.466-0.528-1.046-0.793-1.738-0.793
				c-0.703,0-1.287,0.263-1.75,0.789C307.971,49.857,307.739,50.651,307.739,51.714z"/>
			<path fill="#3C3C3B" d="M325.544,55.862v-1.047c-0.526,0.823-1.3,1.234-2.32,1.234c-0.662,0-1.27-0.183-1.824-0.547
				s-0.984-0.874-1.289-1.527s-0.457-1.405-0.457-2.254c0-0.828,0.138-1.579,0.414-2.254c0.276-0.675,0.69-1.191,1.242-1.551
				c0.552-0.359,1.169-0.539,1.852-0.539c0.5,0,0.945,0.105,1.336,0.316s0.708,0.485,0.953,0.824v-4.109h1.398v11.453H325.544z
				 M321.099,51.722c0,1.062,0.224,1.856,0.672,2.383c0.448,0.526,0.977,0.789,1.586,0.789c0.614,0,1.137-0.251,1.566-0.754
				s0.645-1.27,0.645-2.301c0-1.136-0.219-1.969-0.656-2.5s-0.977-0.797-1.617-0.797c-0.625,0-1.147,0.255-1.566,0.766
				C321.308,49.818,321.099,50.623,321.099,51.722z"/>
			<path fill="#3C3C3B" d="M334.739,53.19l1.453,0.18c-0.229,0.849-0.654,1.508-1.273,1.977c-0.62,0.469-1.412,0.703-2.375,0.703
				c-1.214,0-2.176-0.374-2.887-1.121s-1.066-1.796-1.066-3.145c0-1.396,0.359-2.479,1.078-3.25s1.651-1.156,2.797-1.156
				c1.109,0,2.016,0.378,2.719,1.133s1.055,1.817,1.055,3.188c0,0.083-0.003,0.208-0.008,0.375h-6.188
				c0.052,0.911,0.31,1.609,0.773,2.094c0.463,0.484,1.042,0.727,1.734,0.727c0.516,0,0.956-0.136,1.32-0.406
				C334.236,54.217,334.525,53.784,334.739,53.19z M330.122,50.917h4.633c-0.062-0.698-0.24-1.222-0.531-1.57
				c-0.448-0.542-1.029-0.812-1.742-0.812c-0.646,0-1.189,0.216-1.629,0.648C330.412,49.615,330.169,50.193,330.122,50.917z"/>
			<path fill="#3C3C3B" d="M337.927,55.862V44.409h1.406v11.453H337.927z"/>
			<path fill="#3C3C3B" d="M345.958,59.042V47.565h1.281v1.078c0.302-0.422,0.643-0.738,1.023-0.949
				c0.38-0.211,0.841-0.316,1.383-0.316c0.708,0,1.333,0.183,1.875,0.547c0.542,0.364,0.95,0.879,1.227,1.543
				c0.276,0.664,0.414,1.392,0.414,2.184c0,0.849-0.152,1.613-0.457,2.293s-0.748,1.2-1.328,1.562
				c-0.581,0.362-1.191,0.543-1.832,0.543c-0.469,0-0.89-0.099-1.262-0.297c-0.373-0.198-0.679-0.448-0.918-0.75v4.039H345.958z
				 M347.231,51.761c0,1.067,0.216,1.856,0.648,2.367c0.432,0.511,0.956,0.766,1.57,0.766c0.625,0,1.16-0.265,1.605-0.793
				s0.668-1.348,0.668-2.457c0-1.058-0.218-1.849-0.652-2.375c-0.435-0.526-0.955-0.789-1.559-0.789c-0.599,0-1.129,0.28-1.59,0.84
				S347.231,50.693,347.231,51.761z"/>
			<path fill="#3C3C3B" d="M360.271,54.839c-0.521,0.442-1.022,0.755-1.504,0.938c-0.482,0.183-0.999,0.273-1.551,0.273
				c-0.912,0-1.612-0.223-2.102-0.668c-0.49-0.445-0.734-1.015-0.734-1.707c0-0.406,0.092-0.777,0.277-1.113
				c0.185-0.336,0.427-0.605,0.727-0.809c0.299-0.203,0.637-0.356,1.012-0.461c0.276-0.073,0.692-0.144,1.25-0.211
				c1.135-0.136,1.971-0.297,2.508-0.484c0.005-0.192,0.008-0.315,0.008-0.367c0-0.573-0.133-0.977-0.398-1.211
				c-0.359-0.317-0.894-0.477-1.602-0.477c-0.662,0-1.15,0.116-1.465,0.348c-0.315,0.231-0.548,0.642-0.699,1.23l-1.375-0.188
				c0.125-0.589,0.331-1.063,0.617-1.426c0.286-0.362,0.7-0.641,1.242-0.836c0.542-0.195,1.169-0.293,1.883-0.293
				c0.708,0,1.284,0.083,1.727,0.25c0.442,0.167,0.768,0.376,0.977,0.629c0.208,0.253,0.354,0.571,0.438,0.957
				c0.047,0.239,0.07,0.672,0.07,1.297v1.875c0,1.308,0.03,2.134,0.09,2.48c0.06,0.347,0.178,0.679,0.355,0.996h-1.469
				C360.406,55.57,360.312,55.229,360.271,54.839z M360.153,51.698c-0.511,0.208-1.276,0.386-2.297,0.531
				c-0.578,0.083-0.987,0.177-1.227,0.281c-0.24,0.104-0.425,0.257-0.555,0.457c-0.13,0.2-0.195,0.423-0.195,0.668
				c0,0.375,0.142,0.688,0.426,0.938c0.284,0.25,0.699,0.375,1.246,0.375c0.542,0,1.023-0.118,1.445-0.355s0.731-0.562,0.93-0.973
				c0.151-0.317,0.227-0.786,0.227-1.406V51.698z"/>
			<path fill="#3C3C3B" d="M366.825,54.604l0.203,1.242c-0.396,0.083-0.75,0.125-1.062,0.125c-0.511,0-0.906-0.081-1.188-0.242
				s-0.479-0.374-0.594-0.637c-0.115-0.263-0.172-0.816-0.172-1.66v-4.773h-1.031v-1.094h1.031v-2.055l1.398-0.844v2.898h1.414
				v1.094h-1.414v4.852c0,0.401,0.024,0.659,0.074,0.773c0.049,0.114,0.13,0.206,0.242,0.273c0.112,0.067,0.272,0.102,0.48,0.102
				C366.364,54.659,366.57,54.641,366.825,54.604z"/>
			<path fill="#3C3C3B" d="M368.185,55.862v-8.297h1.266v1.258c0.323-0.589,0.621-0.977,0.895-1.164s0.574-0.281,0.902-0.281
				c0.474,0,0.956,0.151,1.445,0.453l-0.484,1.305c-0.344-0.203-0.688-0.305-1.031-0.305c-0.308,0-0.583,0.093-0.828,0.277
				c-0.245,0.185-0.419,0.441-0.523,0.77c-0.156,0.5-0.234,1.047-0.234,1.641v4.344H368.185z"/>
			<path fill="#3C3C3B" d="M373.536,46.026v-1.617h1.406v1.617H373.536z M373.536,55.862v-8.297h1.406v8.297H373.536z"/>
			<path fill="#3C3C3B" d="M377.083,55.862v-8.297h1.258v1.164c0.26-0.406,0.606-0.733,1.039-0.98
				c0.432-0.247,0.924-0.371,1.477-0.371c0.614,0,1.118,0.128,1.512,0.383c0.393,0.255,0.67,0.612,0.832,1.07
				c0.656-0.969,1.51-1.453,2.562-1.453c0.823,0,1.456,0.228,1.898,0.684c0.442,0.456,0.664,1.157,0.664,2.105v5.695h-1.398v-5.227
				c0-0.562-0.046-0.968-0.137-1.215c-0.091-0.247-0.257-0.446-0.496-0.598c-0.24-0.151-0.521-0.227-0.844-0.227
				c-0.583,0-1.068,0.194-1.453,0.582c-0.386,0.388-0.578,1.009-0.578,1.863v4.82h-1.406v-5.391c0-0.625-0.115-1.094-0.344-1.406
				c-0.229-0.312-0.604-0.469-1.125-0.469c-0.396,0-0.762,0.104-1.098,0.312s-0.58,0.513-0.73,0.914
				c-0.151,0.401-0.227,0.979-0.227,1.734v4.305H377.083z"/>
			<path fill="#3C3C3B" d="M389.888,51.714c0-1.536,0.427-2.675,1.281-3.414c0.713-0.614,1.583-0.922,2.609-0.922
				c1.141,0,2.073,0.374,2.797,1.121c0.724,0.747,1.086,1.78,1.086,3.098c0,1.067-0.16,1.907-0.48,2.52s-0.787,1.087-1.398,1.426
				c-0.612,0.339-1.28,0.508-2.004,0.508c-1.162,0-2.101-0.372-2.816-1.117C390.246,54.188,389.888,53.115,389.888,51.714z
				 M391.333,51.714c0,1.062,0.231,1.858,0.695,2.387c0.463,0.528,1.047,0.793,1.75,0.793c0.698,0,1.278-0.266,1.742-0.797
				c0.463-0.531,0.695-1.341,0.695-2.43c0-1.026-0.233-1.804-0.699-2.332c-0.466-0.528-1.046-0.793-1.738-0.793
				c-0.703,0-1.287,0.263-1.75,0.789C391.564,49.857,391.333,50.651,391.333,51.714z"/>
			<path fill="#3C3C3B" d="M399.31,55.862v-8.297h1.266v1.18c0.609-0.911,1.489-1.367,2.641-1.367c0.5,0,0.959,0.09,1.379,0.27
				c0.419,0.18,0.733,0.415,0.941,0.707c0.208,0.292,0.354,0.638,0.438,1.039c0.052,0.261,0.078,0.716,0.078,1.367v5.102h-1.406
				v-5.047c0-0.573-0.055-1.001-0.164-1.285s-0.304-0.511-0.582-0.68c-0.279-0.169-0.605-0.254-0.98-0.254
				c-0.599,0-1.116,0.19-1.551,0.57c-0.435,0.38-0.652,1.102-0.652,2.164v4.531H399.31z"/>
			<path fill="#3C3C3B" d="M408.216,46.026v-1.617h1.406v1.617H408.216z M408.216,55.862v-8.297h1.406v8.297H408.216z"/>
			<path fill="#3C3C3B" d="M411.239,51.714c0-1.536,0.427-2.675,1.281-3.414c0.713-0.614,1.583-0.922,2.609-0.922
				c1.141,0,2.073,0.374,2.797,1.121c0.724,0.747,1.086,1.78,1.086,3.098c0,1.067-0.16,1.907-0.48,2.52s-0.787,1.087-1.398,1.426
				c-0.612,0.339-1.28,0.508-2.004,0.508c-1.162,0-2.101-0.372-2.816-1.117C411.597,54.188,411.239,53.115,411.239,51.714z
				 M412.685,51.714c0,1.062,0.231,1.858,0.695,2.387c0.463,0.528,1.047,0.793,1.75,0.793c0.698,0,1.278-0.266,1.742-0.797
				c0.463-0.531,0.695-1.341,0.695-2.43c0-1.026-0.233-1.804-0.699-2.332c-0.466-0.528-1.046-0.793-1.738-0.793
				c-0.703,0-1.287,0.263-1.75,0.789C412.916,49.857,412.685,50.651,412.685,51.714z"/>
			<path fill="#3C3C3B" d="M424.583,51.714c0-1.536,0.427-2.675,1.281-3.414c0.713-0.614,1.583-0.922,2.609-0.922
				c1.141,0,2.073,0.374,2.797,1.121c0.724,0.747,1.086,1.78,1.086,3.098c0,1.067-0.16,1.907-0.48,2.52s-0.787,1.087-1.398,1.426
				c-0.612,0.339-1.28,0.508-2.004,0.508c-1.162,0-2.101-0.372-2.816-1.117C424.941,54.188,424.583,53.115,424.583,51.714z
				 M426.028,51.714c0,1.062,0.231,1.858,0.695,2.387c0.463,0.528,1.047,0.793,1.75,0.793c0.698,0,1.278-0.266,1.742-0.797
				c0.463-0.531,0.695-1.341,0.695-2.43c0-1.026-0.233-1.804-0.699-2.332c-0.466-0.528-1.046-0.793-1.738-0.793
				c-0.703,0-1.287,0.263-1.75,0.789C426.26,49.857,426.028,50.651,426.028,51.714z"/>
			<path fill="#3C3C3B" d="M136.142,74.039c-0.521,0.442-1.022,0.755-1.504,0.938c-0.482,0.183-0.999,0.273-1.551,0.273
				c-0.912,0-1.612-0.223-2.102-0.668c-0.49-0.445-0.734-1.015-0.734-1.707c0-0.406,0.092-0.777,0.277-1.113
				c0.185-0.336,0.427-0.605,0.727-0.809c0.299-0.203,0.637-0.356,1.012-0.461c0.276-0.073,0.692-0.144,1.25-0.211
				c1.135-0.136,1.971-0.297,2.508-0.484c0.005-0.192,0.008-0.315,0.008-0.367c0-0.573-0.133-0.977-0.398-1.211
				c-0.359-0.317-0.894-0.477-1.602-0.477c-0.662,0-1.15,0.116-1.465,0.348c-0.315,0.231-0.548,0.642-0.699,1.23l-1.375-0.188
				c0.125-0.589,0.331-1.063,0.617-1.426c0.286-0.362,0.7-0.641,1.242-0.836c0.542-0.195,1.169-0.293,1.883-0.293
				c0.708,0,1.284,0.083,1.727,0.25c0.442,0.167,0.768,0.376,0.977,0.629c0.208,0.253,0.354,0.571,0.438,0.957
				c0.047,0.239,0.07,0.672,0.07,1.297v1.875c0,1.308,0.03,2.134,0.09,2.48c0.06,0.347,0.178,0.679,0.355,0.996h-1.469
				C136.277,74.771,136.183,74.43,136.142,74.039z M136.024,70.898c-0.511,0.208-1.276,0.386-2.297,0.531
				c-0.578,0.083-0.987,0.177-1.227,0.281c-0.24,0.104-0.425,0.257-0.555,0.457c-0.13,0.2-0.195,0.423-0.195,0.668
				c0,0.375,0.142,0.688,0.426,0.938c0.284,0.25,0.699,0.375,1.246,0.375c0.542,0,1.023-0.118,1.445-0.355s0.731-0.562,0.93-0.973
				c0.151-0.317,0.227-0.786,0.227-1.406V70.898z"/>
			<path fill="#3C3C3B" d="M145.04,72.023l1.383,0.18c-0.151,0.953-0.538,1.699-1.16,2.238c-0.623,0.539-1.387,0.809-2.293,0.809
				c-1.136,0-2.048-0.371-2.738-1.113c-0.69-0.742-1.035-1.806-1.035-3.191c0-0.896,0.148-1.68,0.445-2.352s0.749-1.176,1.355-1.512
				c0.606-0.336,1.267-0.504,1.98-0.504c0.901,0,1.638,0.228,2.211,0.684c0.573,0.456,0.94,1.103,1.102,1.941l-1.367,0.211
				c-0.13-0.558-0.361-0.977-0.691-1.258c-0.331-0.281-0.73-0.422-1.199-0.422c-0.708,0-1.284,0.254-1.727,0.762
				c-0.443,0.508-0.664,1.312-0.664,2.41c0,1.114,0.213,1.925,0.641,2.43c0.427,0.505,0.984,0.758,1.672,0.758
				c0.552,0,1.013-0.169,1.383-0.508C144.707,73.247,144.941,72.727,145.04,72.023z"/>
			<path fill="#3C3C3B" d="M150.696,73.805l0.203,1.242c-0.396,0.083-0.75,0.125-1.062,0.125c-0.511,0-0.906-0.081-1.188-0.242
				s-0.479-0.374-0.594-0.637c-0.115-0.263-0.172-0.816-0.172-1.66v-4.773h-1.031v-1.094h1.031v-2.055l1.398-0.844v2.898h1.414
				v1.094h-1.414v4.852c0,0.401,0.024,0.659,0.074,0.773c0.049,0.114,0.13,0.206,0.242,0.273c0.112,0.067,0.272,0.102,0.48,0.102
				C150.235,73.859,150.441,73.841,150.696,73.805z"/>
			<path fill="#3C3C3B" d="M152.079,65.227v-1.617h1.406v1.617H152.079z M152.079,75.062v-8.297h1.406v8.297H152.079z"/>
			<path fill="#3C3C3B" d="M157.931,75.062l-3.156-8.297h1.484l1.781,4.969c0.192,0.536,0.37,1.094,0.531,1.672
				c0.125-0.438,0.299-0.964,0.523-1.578l1.844-5.062h1.445l-3.141,8.297H157.931z"/>
			<path fill="#3C3C3B" d="M163.103,70.914c0-1.536,0.427-2.675,1.281-3.414c0.713-0.614,1.583-0.922,2.609-0.922
				c1.141,0,2.073,0.374,2.797,1.121c0.724,0.747,1.086,1.78,1.086,3.098c0,1.067-0.16,1.907-0.48,2.52s-0.787,1.087-1.398,1.426
				c-0.612,0.339-1.28,0.508-2.004,0.508c-1.162,0-2.101-0.372-2.816-1.117C163.46,73.388,163.103,72.315,163.103,70.914z
				 M164.548,70.914c0,1.062,0.231,1.858,0.695,2.387c0.463,0.528,1.047,0.793,1.75,0.793c0.698,0,1.278-0.266,1.742-0.797
				c0.463-0.531,0.695-1.341,0.695-2.43c0-1.026-0.233-1.804-0.699-2.332c-0.466-0.528-1.046-0.793-1.738-0.793
				c-0.703,0-1.287,0.263-1.75,0.789C164.779,69.058,164.548,69.852,164.548,70.914z"/>
			<path fill="#3C3C3B" d="M171.962,72.586l1.391-0.219c0.078,0.558,0.295,0.984,0.652,1.281c0.356,0.297,0.855,0.445,1.496,0.445
				c0.646,0,1.125-0.132,1.438-0.395s0.469-0.571,0.469-0.926c0-0.317-0.138-0.567-0.414-0.75c-0.193-0.125-0.672-0.284-1.438-0.477
				c-1.031-0.261-1.746-0.485-2.145-0.676s-0.701-0.453-0.906-0.789c-0.206-0.336-0.309-0.707-0.309-1.113
				c0-0.37,0.084-0.712,0.254-1.027c0.169-0.315,0.399-0.577,0.691-0.785c0.219-0.161,0.517-0.298,0.895-0.41
				c0.377-0.112,0.782-0.168,1.215-0.168c0.651,0,1.223,0.094,1.715,0.281s0.855,0.441,1.09,0.762s0.396,0.749,0.484,1.285
				l-1.375,0.188c-0.062-0.427-0.244-0.761-0.543-1c-0.3-0.239-0.723-0.359-1.27-0.359c-0.646,0-1.107,0.106-1.383,0.32
				c-0.276,0.214-0.414,0.464-0.414,0.75c0,0.183,0.057,0.347,0.172,0.492c0.114,0.151,0.294,0.276,0.539,0.375
				c0.141,0.052,0.555,0.172,1.242,0.359c0.995,0.266,1.688,0.483,2.082,0.652c0.393,0.169,0.702,0.415,0.926,0.738
				c0.224,0.323,0.336,0.724,0.336,1.203c0,0.469-0.137,0.91-0.41,1.324s-0.668,0.734-1.184,0.961s-1.099,0.34-1.75,0.34
				c-1.078,0-1.9-0.224-2.465-0.672C172.479,74.13,172.118,73.466,171.962,72.586z"/>
			<path fill="#3C3C3B" d="M190.353,75.062v-1.047c-0.526,0.823-1.3,1.234-2.32,1.234c-0.662,0-1.27-0.183-1.824-0.547
				s-0.984-0.874-1.289-1.527s-0.457-1.405-0.457-2.254c0-0.828,0.138-1.579,0.414-2.254c0.276-0.675,0.69-1.191,1.242-1.551
				c0.552-0.359,1.169-0.539,1.852-0.539c0.5,0,0.945,0.105,1.336,0.316s0.708,0.485,0.953,0.824v-4.109h1.398v11.453H190.353z
				 M185.907,70.922c0,1.062,0.224,1.856,0.672,2.383c0.448,0.526,0.977,0.789,1.586,0.789c0.614,0,1.137-0.251,1.566-0.754
				s0.645-1.27,0.645-2.301c0-1.136-0.219-1.969-0.656-2.5s-0.977-0.797-1.617-0.797c-0.625,0-1.147,0.255-1.566,0.766
				C186.117,69.019,185.907,69.823,185.907,70.922z"/>
			<path fill="#3C3C3B" d="M199.548,72.391l1.453,0.18c-0.229,0.849-0.654,1.508-1.273,1.977c-0.62,0.469-1.412,0.703-2.375,0.703
				c-1.214,0-2.176-0.374-2.887-1.121s-1.066-1.796-1.066-3.145c0-1.396,0.359-2.479,1.078-3.25s1.651-1.156,2.797-1.156
				c1.109,0,2.016,0.378,2.719,1.133s1.055,1.817,1.055,3.188c0,0.083-0.003,0.208-0.008,0.375h-6.188
				c0.052,0.911,0.31,1.609,0.773,2.094c0.463,0.484,1.042,0.727,1.734,0.727c0.516,0,0.956-0.136,1.32-0.406
				C199.045,73.417,199.334,72.984,199.548,72.391z M194.931,70.117h4.633c-0.062-0.698-0.24-1.222-0.531-1.57
				c-0.448-0.542-1.029-0.812-1.742-0.812c-0.646,0-1.189,0.216-1.629,0.648C195.221,68.815,194.978,69.394,194.931,70.117z"/>
			<path fill="#3C3C3B" d="M207.181,75.062V63.609h1.406v11.453H207.181z"/>
			<path fill="#3C3C3B" d="M216.181,74.039c-0.521,0.442-1.022,0.755-1.504,0.938c-0.482,0.183-0.999,0.273-1.551,0.273
				c-0.912,0-1.612-0.223-2.102-0.668c-0.49-0.445-0.734-1.015-0.734-1.707c0-0.406,0.092-0.777,0.277-1.113
				c0.185-0.336,0.427-0.605,0.727-0.809c0.299-0.203,0.637-0.356,1.012-0.461c0.276-0.073,0.692-0.144,1.25-0.211
				c1.135-0.136,1.971-0.297,2.508-0.484c0.005-0.192,0.008-0.315,0.008-0.367c0-0.573-0.133-0.977-0.398-1.211
				c-0.359-0.317-0.894-0.477-1.602-0.477c-0.662,0-1.15,0.116-1.465,0.348c-0.315,0.231-0.548,0.642-0.699,1.23l-1.375-0.188
				c0.125-0.589,0.331-1.063,0.617-1.426c0.286-0.362,0.7-0.641,1.242-0.836c0.542-0.195,1.169-0.293,1.883-0.293
				c0.708,0,1.284,0.083,1.727,0.25c0.442,0.167,0.768,0.376,0.977,0.629c0.208,0.253,0.354,0.571,0.438,0.957
				c0.047,0.239,0.07,0.672,0.07,1.297v1.875c0,1.308,0.03,2.134,0.09,2.48c0.06,0.347,0.178,0.679,0.355,0.996h-1.469
				C216.316,74.771,216.222,74.43,216.181,74.039z M216.063,70.898c-0.511,0.208-1.276,0.386-2.297,0.531
				c-0.578,0.083-0.987,0.177-1.227,0.281c-0.24,0.104-0.425,0.257-0.555,0.457c-0.13,0.2-0.195,0.423-0.195,0.668
				c0,0.375,0.142,0.688,0.426,0.938c0.284,0.25,0.699,0.375,1.246,0.375c0.542,0,1.023-0.118,1.445-0.355s0.731-0.562,0.93-0.973
				c0.151-0.317,0.227-0.786,0.227-1.406V70.898z"/>
			<path fill="#3C3C3B" d="M224.11,78.242V66.766h1.281v1.078c0.302-0.422,0.643-0.738,1.023-0.949
				c0.38-0.211,0.841-0.316,1.383-0.316c0.708,0,1.333,0.183,1.875,0.547c0.542,0.364,0.95,0.879,1.227,1.543
				c0.276,0.664,0.414,1.392,0.414,2.184c0,0.849-0.152,1.613-0.457,2.293s-0.748,1.2-1.328,1.562
				c-0.581,0.362-1.191,0.543-1.832,0.543c-0.469,0-0.89-0.099-1.262-0.297c-0.373-0.198-0.679-0.448-0.918-0.75v4.039H224.11z
				 M225.384,70.961c0,1.067,0.216,1.856,0.648,2.367c0.432,0.511,0.956,0.766,1.57,0.766c0.625,0,1.16-0.265,1.605-0.793
				s0.668-1.348,0.668-2.457c0-1.058-0.218-1.849-0.652-2.375c-0.435-0.526-0.955-0.789-1.559-0.789c-0.599,0-1.129,0.28-1.59,0.84
				S225.384,69.894,225.384,70.961z"/>
			<path fill="#3C3C3B" d="M238.423,74.039c-0.521,0.442-1.022,0.755-1.504,0.938c-0.482,0.183-0.999,0.273-1.551,0.273
				c-0.912,0-1.612-0.223-2.102-0.668c-0.49-0.445-0.734-1.015-0.734-1.707c0-0.406,0.092-0.777,0.277-1.113
				c0.185-0.336,0.427-0.605,0.727-0.809c0.299-0.203,0.637-0.356,1.012-0.461c0.276-0.073,0.692-0.144,1.25-0.211
				c1.135-0.136,1.971-0.297,2.508-0.484c0.005-0.192,0.008-0.315,0.008-0.367c0-0.573-0.133-0.977-0.398-1.211
				c-0.359-0.317-0.894-0.477-1.602-0.477c-0.662,0-1.15,0.116-1.465,0.348c-0.315,0.231-0.548,0.642-0.699,1.23l-1.375-0.188
				c0.125-0.589,0.331-1.063,0.617-1.426c0.286-0.362,0.7-0.641,1.242-0.836c0.542-0.195,1.169-0.293,1.883-0.293
				c0.708,0,1.284,0.083,1.727,0.25c0.442,0.167,0.768,0.376,0.977,0.629c0.208,0.253,0.354,0.571,0.438,0.957
				c0.047,0.239,0.07,0.672,0.07,1.297v1.875c0,1.308,0.03,2.134,0.09,2.48c0.06,0.347,0.178,0.679,0.355,0.996h-1.469
				C238.558,74.771,238.464,74.43,238.423,74.039z M238.306,70.898c-0.511,0.208-1.276,0.386-2.297,0.531
				c-0.578,0.083-0.987,0.177-1.227,0.281c-0.24,0.104-0.425,0.257-0.555,0.457c-0.13,0.2-0.195,0.423-0.195,0.668
				c0,0.375,0.142,0.688,0.426,0.938c0.284,0.25,0.699,0.375,1.246,0.375c0.542,0,1.023-0.118,1.445-0.355s0.731-0.562,0.93-0.973
				c0.151-0.317,0.227-0.786,0.227-1.406V70.898z"/>
			<path fill="#3C3C3B" d="M241.892,75.062v-8.297h1.266v1.258c0.323-0.589,0.621-0.977,0.895-1.164s0.574-0.281,0.902-0.281
				c0.474,0,0.956,0.151,1.445,0.453l-0.484,1.305c-0.344-0.203-0.688-0.305-1.031-0.305c-0.308,0-0.583,0.093-0.828,0.277
				c-0.245,0.185-0.419,0.441-0.523,0.77c-0.156,0.5-0.234,1.047-0.234,1.641v4.344H241.892z"/>
			<path fill="#3C3C3B" d="M250.306,73.805l0.203,1.242c-0.396,0.083-0.75,0.125-1.062,0.125c-0.511,0-0.906-0.081-1.188-0.242
				s-0.479-0.374-0.594-0.637c-0.115-0.263-0.172-0.816-0.172-1.66v-4.773h-1.031v-1.094h1.031v-2.055l1.398-0.844v2.898h1.414
				v1.094h-1.414v4.852c0,0.401,0.024,0.659,0.074,0.773c0.049,0.114,0.13,0.206,0.242,0.273c0.112,0.067,0.272,0.102,0.48,0.102
				C249.845,73.859,250.05,73.841,250.306,73.805z"/>
			<path fill="#3C3C3B" d="M257.36,72.391l1.453,0.18c-0.229,0.849-0.654,1.508-1.273,1.977c-0.62,0.469-1.412,0.703-2.375,0.703
				c-1.214,0-2.176-0.374-2.887-1.121s-1.066-1.796-1.066-3.145c0-1.396,0.359-2.479,1.078-3.25s1.651-1.156,2.797-1.156
				c1.109,0,2.016,0.378,2.719,1.133s1.055,1.817,1.055,3.188c0,0.083-0.003,0.208-0.008,0.375h-6.188
				c0.052,0.911,0.31,1.609,0.773,2.094c0.463,0.484,1.042,0.727,1.734,0.727c0.516,0,0.956-0.136,1.32-0.406
				C256.857,73.417,257.146,72.984,257.36,72.391z M252.743,70.117h4.633c-0.062-0.698-0.24-1.222-0.531-1.57
				c-0.448-0.542-1.029-0.812-1.742-0.812c-0.646,0-1.189,0.216-1.629,0.648C253.033,68.815,252.79,69.394,252.743,70.117z"/>
			<path fill="#3C3C3B" d="M264.993,75.062V63.609h1.406v11.453H264.993z"/>
			<path fill="#3C3C3B" d="M274.259,72.391l1.453,0.18c-0.229,0.849-0.654,1.508-1.273,1.977c-0.62,0.469-1.412,0.703-2.375,0.703
				c-1.214,0-2.176-0.374-2.887-1.121s-1.066-1.796-1.066-3.145c0-1.396,0.359-2.479,1.078-3.25s1.651-1.156,2.797-1.156
				c1.109,0,2.016,0.378,2.719,1.133s1.055,1.817,1.055,3.188c0,0.083-0.003,0.208-0.008,0.375h-6.188
				c0.052,0.911,0.31,1.609,0.773,2.094c0.463,0.484,1.042,0.727,1.734,0.727c0.516,0,0.956-0.136,1.32-0.406
				C273.756,73.417,274.045,72.984,274.259,72.391z M269.642,70.117h4.633c-0.062-0.698-0.24-1.222-0.531-1.57
				c-0.448-0.542-1.029-0.812-1.742-0.812c-0.646,0-1.189,0.216-1.629,0.648C269.932,68.815,269.688,69.394,269.642,70.117z"/>
			<path fill="#3C3C3B" d="M276.915,72.586l1.391-0.219c0.078,0.558,0.295,0.984,0.652,1.281c0.356,0.297,0.855,0.445,1.496,0.445
				c0.646,0,1.125-0.132,1.438-0.395s0.469-0.571,0.469-0.926c0-0.317-0.138-0.567-0.414-0.75c-0.193-0.125-0.672-0.284-1.438-0.477
				c-1.031-0.261-1.746-0.485-2.145-0.676s-0.701-0.453-0.906-0.789c-0.206-0.336-0.309-0.707-0.309-1.113
				c0-0.37,0.084-0.712,0.254-1.027c0.169-0.315,0.399-0.577,0.691-0.785c0.219-0.161,0.517-0.298,0.895-0.41
				c0.377-0.112,0.782-0.168,1.215-0.168c0.651,0,1.223,0.094,1.715,0.281s0.855,0.441,1.09,0.762s0.396,0.749,0.484,1.285
				l-1.375,0.188c-0.062-0.427-0.244-0.761-0.543-1c-0.3-0.239-0.723-0.359-1.27-0.359c-0.646,0-1.107,0.106-1.383,0.32
				c-0.276,0.214-0.414,0.464-0.414,0.75c0,0.183,0.057,0.347,0.172,0.492c0.114,0.151,0.294,0.276,0.539,0.375
				c0.141,0.052,0.555,0.172,1.242,0.359c0.995,0.266,1.688,0.483,2.082,0.652c0.393,0.169,0.702,0.415,0.926,0.738
				c0.224,0.323,0.336,0.724,0.336,1.203c0,0.469-0.137,0.91-0.41,1.324s-0.668,0.734-1.184,0.961s-1.099,0.34-1.75,0.34
				c-1.078,0-1.9-0.224-2.465-0.672C277.432,74.13,277.071,73.466,276.915,72.586z"/>
			<path fill="#3C3C3B" d="M285.485,65.227v-1.617h1.406v1.617H285.485z M285.485,75.062v-8.297h1.406v8.297H285.485z"/>
			<path fill="#3C3C3B" d="M288.509,70.914c0-1.536,0.427-2.675,1.281-3.414c0.713-0.614,1.583-0.922,2.609-0.922
				c1.141,0,2.073,0.374,2.797,1.121c0.724,0.747,1.086,1.78,1.086,3.098c0,1.067-0.16,1.907-0.48,2.52s-0.787,1.087-1.398,1.426
				c-0.612,0.339-1.28,0.508-2.004,0.508c-1.162,0-2.101-0.372-2.816-1.117C288.867,73.388,288.509,72.315,288.509,70.914z
				 M289.954,70.914c0,1.062,0.231,1.858,0.695,2.387c0.463,0.528,1.047,0.793,1.75,0.793c0.698,0,1.278-0.266,1.742-0.797
				c0.463-0.531,0.695-1.341,0.695-2.43c0-1.026-0.233-1.804-0.699-2.332c-0.466-0.528-1.046-0.793-1.738-0.793
				c-0.703,0-1.287,0.263-1.75,0.789C290.186,69.058,289.954,69.852,289.954,70.914z"/>
			<path fill="#3C3C3B" d="M297.931,75.062v-8.297h1.266v1.18c0.609-0.911,1.489-1.367,2.641-1.367c0.5,0,0.959,0.09,1.379,0.27
				c0.419,0.18,0.733,0.415,0.941,0.707c0.208,0.292,0.354,0.638,0.438,1.039c0.052,0.261,0.078,0.716,0.078,1.367v5.102h-1.406
				v-5.047c0-0.573-0.055-1.001-0.164-1.285s-0.304-0.511-0.582-0.68c-0.279-0.169-0.605-0.254-0.98-0.254
				c-0.599,0-1.116,0.19-1.551,0.57c-0.435,0.38-0.652,1.102-0.652,2.164v4.531H297.931z"/>
			<path fill="#3C3C3B" d="M312.243,74.039c-0.521,0.442-1.022,0.755-1.504,0.938c-0.482,0.183-0.999,0.273-1.551,0.273
				c-0.912,0-1.612-0.223-2.102-0.668c-0.49-0.445-0.734-1.015-0.734-1.707c0-0.406,0.092-0.777,0.277-1.113
				c0.185-0.336,0.427-0.605,0.727-0.809c0.299-0.203,0.637-0.356,1.012-0.461c0.276-0.073,0.692-0.144,1.25-0.211
				c1.135-0.136,1.971-0.297,2.508-0.484c0.005-0.192,0.008-0.315,0.008-0.367c0-0.573-0.133-0.977-0.398-1.211
				c-0.359-0.317-0.894-0.477-1.602-0.477c-0.662,0-1.15,0.116-1.465,0.348c-0.315,0.231-0.548,0.642-0.699,1.23l-1.375-0.188
				c0.125-0.589,0.331-1.063,0.617-1.426c0.286-0.362,0.7-0.641,1.242-0.836c0.542-0.195,1.169-0.293,1.883-0.293
				c0.708,0,1.284,0.083,1.727,0.25c0.442,0.167,0.768,0.376,0.977,0.629c0.208,0.253,0.354,0.571,0.438,0.957
				c0.047,0.239,0.07,0.672,0.07,1.297v1.875c0,1.308,0.03,2.134,0.09,2.48c0.06,0.347,0.178,0.679,0.355,0.996h-1.469
				C312.378,74.771,312.285,74.43,312.243,74.039z M312.126,70.898c-0.511,0.208-1.276,0.386-2.297,0.531
				c-0.578,0.083-0.987,0.177-1.227,0.281c-0.24,0.104-0.425,0.257-0.555,0.457c-0.13,0.2-0.195,0.423-0.195,0.668
				c0,0.375,0.142,0.688,0.426,0.938c0.284,0.25,0.699,0.375,1.246,0.375c0.542,0,1.023-0.118,1.445-0.355s0.731-0.562,0.93-0.973
				c0.151-0.317,0.227-0.786,0.227-1.406V70.898z"/>
			<path fill="#3C3C3B" d="M321.11,75.062v-1.047c-0.526,0.823-1.3,1.234-2.32,1.234c-0.662,0-1.27-0.183-1.824-0.547
				s-0.984-0.874-1.289-1.527s-0.457-1.405-0.457-2.254c0-0.828,0.138-1.579,0.414-2.254c0.276-0.675,0.69-1.191,1.242-1.551
				c0.552-0.359,1.169-0.539,1.852-0.539c0.5,0,0.945,0.105,1.336,0.316s0.708,0.485,0.953,0.824v-4.109h1.398v11.453H321.11z
				 M316.665,70.922c0,1.062,0.224,1.856,0.672,2.383c0.448,0.526,0.977,0.789,1.586,0.789c0.614,0,1.137-0.251,1.566-0.754
				s0.645-1.27,0.645-2.301c0-1.136-0.219-1.969-0.656-2.5s-0.977-0.797-1.617-0.797c-0.625,0-1.147,0.255-1.566,0.766
				C316.875,69.019,316.665,69.823,316.665,70.922z"/>
			<path fill="#3C3C3B" d="M330.04,74.039c-0.521,0.442-1.022,0.755-1.504,0.938c-0.482,0.183-0.999,0.273-1.551,0.273
				c-0.912,0-1.612-0.223-2.102-0.668c-0.49-0.445-0.734-1.015-0.734-1.707c0-0.406,0.092-0.777,0.277-1.113
				c0.185-0.336,0.427-0.605,0.727-0.809c0.299-0.203,0.637-0.356,1.012-0.461c0.276-0.073,0.692-0.144,1.25-0.211
				c1.135-0.136,1.971-0.297,2.508-0.484c0.005-0.192,0.008-0.315,0.008-0.367c0-0.573-0.133-0.977-0.398-1.211
				c-0.359-0.317-0.894-0.477-1.602-0.477c-0.662,0-1.15,0.116-1.465,0.348c-0.315,0.231-0.548,0.642-0.699,1.23l-1.375-0.188
				c0.125-0.589,0.331-1.063,0.617-1.426c0.286-0.362,0.7-0.641,1.242-0.836c0.542-0.195,1.169-0.293,1.883-0.293
				c0.708,0,1.284,0.083,1.727,0.25c0.442,0.167,0.768,0.376,0.977,0.629c0.208,0.253,0.354,0.571,0.438,0.957
				c0.047,0.239,0.07,0.672,0.07,1.297v1.875c0,1.308,0.03,2.134,0.09,2.48c0.06,0.347,0.178,0.679,0.355,0.996h-1.469
				C330.175,74.771,330.082,74.43,330.04,74.039z M329.923,70.898c-0.511,0.208-1.276,0.386-2.297,0.531
				c-0.578,0.083-0.987,0.177-1.227,0.281c-0.24,0.104-0.425,0.257-0.555,0.457c-0.13,0.2-0.195,0.423-0.195,0.668
				c0,0.375,0.142,0.688,0.426,0.938c0.284,0.25,0.699,0.375,1.246,0.375c0.542,0,1.023-0.118,1.445-0.355s0.731-0.562,0.93-0.973
				c0.151-0.317,0.227-0.786,0.227-1.406V70.898z"/>
			<path fill="#3C3C3B" d="M333.923,75.062v-1.602h1.602v1.602H333.923z"/>
		</g>
	</g>
	<g>
		<g>
			<polyline fill="none" stroke="#951B81" stroke-miterlimit="10" points="454.716,98.005 454.716,98.505 454.216,98.505 			"/>
			
				<line fill="none" stroke="#951B81" stroke-miterlimit="10" stroke-dasharray="1.0005,1.0005" x1="453.215" y1="98.505" x2="1.5" y2="98.505"/>
			<polyline fill="none" stroke="#951B81" stroke-miterlimit="10" points="1,98.505 0.5,98.505 0.5,98.005 			"/>
			<line fill="none" stroke="#951B81" stroke-miterlimit="10" stroke-dasharray="1,1" x1="0.5" y1="97.005" x2="0.5" y2="1.5"/>
			<polyline fill="none" stroke="#951B81" stroke-miterlimit="10" points="0.5,1 0.5,0.5 1,0.5 			"/>
			
				<line fill="none" stroke="#951B81" stroke-miterlimit="10" stroke-dasharray="1.0005,1.0005" x1="2" y1="0.5" x2="453.716" y2="0.5"/>
			<polyline fill="none" stroke="#951B81" stroke-miterlimit="10" points="454.216,0.5 454.716,0.5 454.716,1 			"/>
			
				<line fill="none" stroke="#951B81" stroke-miterlimit="10" stroke-dasharray="1,1" x1="454.716" y1="2" x2="454.716" y2="97.505"/>
		</g>
	</g>
</g>
</svg>
