<?xml version="1.0" encoding="utf-8"?>
<!-- Generator: Adobe Illustrator 16.0.0, SVG Export Plug-In . SVG Version: 6.00 Build 0)  -->
<!DOCTYPE svg PUBLIC "-//W3C//DTD SVG 1.1//EN" "http://www.w3.org/Graphics/SVG/1.1/DTD/svg11.dtd">
<svg version="1.1" id="Capa_1" xmlns="http://www.w3.org/2000/svg" xmlns:xlink="http://www.w3.org/1999/xlink" x="0px" y="0px"
	 width="171.849px" height="32.052px" viewBox="0 0 171.849 32.052" enable-background="new 0 0 171.849 32.052"
	 xml:space="preserve">
<rect x="0.038" y="0.207" transform="matrix(1 -0.0024 0.0024 1 -0.0383 0.2069)" fill="#951B81" width="171.772" height="31.638"/>
<g>
	<path fill="#FFFFFF" d="M29.518,13.747c0,1.724-0.608,3.198-1.824,4.422c-1.21,1.219-2.672,1.828-4.385,1.828
		c-1.718,0-3.182-0.609-4.393-1.828c-1.21-1.219-1.816-2.692-1.816-4.422c0-1.724,0.605-3.195,1.816-4.414
		c1.216-1.224,2.68-1.836,4.393-1.836c1.708,0,3.169,0.612,4.385,1.836c0.611,0.615,1.067,1.287,1.37,2.016
		C29.367,12.078,29.518,12.877,29.518,13.747z M23.309,9.153c-0.642,0-1.228,0.112-1.758,0.336
		c-0.531,0.224-1.021,0.562-1.471,1.016c-0.45,0.453-0.785,0.945-1.005,1.477c-0.22,0.531-0.33,1.12-0.33,1.766
		c0,1.271,0.445,2.354,1.334,3.25c0.89,0.896,1.966,1.344,3.229,1.344c1.262,0,2.339-0.448,3.229-1.344
		c0.89-0.896,1.335-1.979,1.335-3.25c0-1.266-0.445-2.346-1.335-3.242C25.643,9.604,24.566,9.153,23.309,9.153z"/>
	<path fill="#FFFFFF" d="M35.561,12.216c0.771-0.646,1.679-0.969,2.724-0.969c1.19,0,2.214,0.427,3.074,1.281
		c0.424,0.422,0.742,0.892,0.955,1.41c0.212,0.519,0.318,1.08,0.318,1.684c0,1.219-0.424,2.25-1.272,3.094
		c-0.859,0.854-1.884,1.281-3.074,1.281c-1.2,0-2.225-0.427-3.073-1.281c-0.849-0.854-1.273-1.885-1.273-3.094V8.31
		c0-0.234,0.076-0.428,0.229-0.582c0.152-0.153,0.345-0.23,0.578-0.23c0.228,0,0.42,0.077,0.578,0.23
		c0.158,0.154,0.237,0.348,0.237,0.582V12.216z M38.285,18.364c0.377,0,0.732-0.073,1.063-0.219c0.331-0.146,0.62-0.344,0.865-0.594
		s0.44-0.54,0.582-0.871c0.142-0.331,0.213-0.684,0.213-1.059s-0.071-0.728-0.213-1.059c-0.142-0.331-0.336-0.621-0.582-0.871
		s-0.534-0.448-0.865-0.594c-0.332-0.146-0.686-0.219-1.063-0.219c-0.383,0-0.74,0.073-1.071,0.219
		c-0.332,0.146-0.619,0.343-0.862,0.59c-0.243,0.248-0.436,0.538-0.578,0.871c-0.142,0.333-0.213,0.688-0.213,1.062
		s0.071,0.729,0.213,1.062c0.142,0.333,0.335,0.624,0.578,0.871c0.243,0.248,0.53,0.444,0.862,0.59
		C37.545,18.292,37.902,18.364,38.285,18.364z"/>
	<path fill="#FFFFFF" d="M46.975,19.185V8.317c0-0.229,0.076-0.423,0.229-0.582c0.153-0.159,0.346-0.238,0.578-0.238
		c0.233,0,0.426,0.08,0.579,0.238c0.152,0.159,0.229,0.353,0.229,0.582v10.047h0.372c0.223,0,0.413,0.08,0.571,0.238
		c0.158,0.159,0.237,0.353,0.237,0.582c0,0.224-0.079,0.416-0.237,0.574c-0.158,0.159-0.348,0.238-0.571,0.238h-1.188
		c-0.222,0-0.411-0.079-0.566-0.238C47.052,19.6,46.975,19.409,46.975,19.185z"/>
	<path fill="#FFFFFF" d="M56.153,9.692c0,0.266-0.093,0.492-0.279,0.68c-0.187,0.188-0.412,0.281-0.675,0.281
		s-0.489-0.094-0.675-0.281s-0.279-0.414-0.279-0.68s0.093-0.492,0.279-0.68s0.412-0.281,0.675-0.281s0.489,0.094,0.675,0.281
		C56.06,9.2,56.153,9.427,56.153,9.692z M54.392,19.177v-7.109c0-0.229,0.079-0.423,0.237-0.582c0.158-0.159,0.348-0.238,0.57-0.238
		c0.222,0,0.413,0.08,0.57,0.238c0.158,0.159,0.239,0.353,0.245,0.582v7.109c-0.005,0.229-0.087,0.423-0.245,0.582
		c-0.158,0.159-0.348,0.238-0.57,0.238c-0.223,0-0.413-0.079-0.57-0.238C54.47,19.6,54.392,19.406,54.392,19.177z"/>
	<path fill="#FFFFFF" d="M67.932,19.036c-0.776,0.641-1.685,0.961-2.725,0.961c-1.2,0-2.225-0.427-3.073-1.281
		c-0.849-0.854-1.273-1.885-1.273-3.094c0-1.208,0.424-2.239,1.273-3.094c0.849-0.854,1.873-1.281,3.073-1.281
		c1.19,0,2.215,0.427,3.074,1.281c0.848,0.854,1.273,1.886,1.273,3.094v4.344c0,0.375-0.057,0.729-0.171,1.062
		c-0.114,0.333-0.271,0.639-0.474,0.918c-0.202,0.278-0.439,0.53-0.714,0.754c-0.274,0.224-0.57,0.413-0.889,0.566
		c-0.318,0.153-0.65,0.272-0.997,0.355c-0.347,0.083-0.693,0.125-1.04,0.125c-0.414,0-0.82-0.054-1.219-0.16
		c-0.398-0.107-0.776-0.265-1.133-0.473c-0.357-0.208-0.684-0.466-0.982-0.773c-0.297-0.308-0.55-0.651-0.756-1.031
		c-0.083-0.12-0.125-0.266-0.125-0.438c0-0.234,0.078-0.429,0.233-0.582c0.155-0.154,0.35-0.23,0.583-0.23
		c0.155,0,0.283,0.036,0.384,0.109c0.101,0.073,0.239,0.234,0.416,0.484c0.176,0.25,0.331,0.44,0.465,0.57
		c0.59,0.594,1.301,0.891,2.135,0.891c0.838,0,1.547-0.292,2.126-0.875c0.357-0.438,0.536-0.862,0.536-1.273V19.036z M65.208,12.88
		c-0.383,0-0.74,0.073-1.071,0.219c-0.332,0.146-0.619,0.343-0.862,0.59c-0.243,0.248-0.436,0.538-0.578,0.871
		c-0.142,0.333-0.213,0.688-0.213,1.062s0.071,0.729,0.213,1.062c0.143,0.333,0.335,0.624,0.578,0.871
		c0.243,0.248,0.53,0.444,0.862,0.59c0.331,0.146,0.688,0.219,1.071,0.219c0.378,0,0.732-0.073,1.063-0.219
		c0.331-0.146,0.62-0.344,0.865-0.594c0.246-0.25,0.44-0.54,0.582-0.871c0.143-0.331,0.214-0.684,0.214-1.059
		s-0.071-0.728-0.214-1.059c-0.142-0.331-0.336-0.621-0.582-0.871c-0.246-0.25-0.534-0.448-0.865-0.594
		C65.94,12.953,65.585,12.88,65.208,12.88z"/>
	<path fill="#FFFFFF" d="M81.045,19.185v-0.156c-0.388,0.312-0.81,0.552-1.265,0.719c-0.456,0.167-0.942,0.25-1.459,0.25
		c-1.201,0-2.225-0.427-3.074-1.281c-0.849-0.854-1.272-1.885-1.272-3.094c0-1.208,0.424-2.239,1.272-3.094
		c0.849-0.854,1.873-1.281,3.074-1.281c1.19,0,2.214,0.427,3.074,1.281c0.848,0.854,1.272,1.886,1.272,3.094v3.562
		c0,0.224-0.079,0.416-0.236,0.574c-0.158,0.159-0.349,0.238-0.571,0.238c-0.228,0-0.42-0.079-0.578-0.238
		C81.125,19.6,81.045,19.409,81.045,19.185z M78.321,12.88c-0.383,0-0.74,0.073-1.071,0.219c-0.332,0.146-0.619,0.343-0.862,0.59
		c-0.243,0.248-0.436,0.538-0.578,0.871c-0.142,0.333-0.213,0.688-0.213,1.062s0.071,0.729,0.213,1.062
		c0.142,0.333,0.335,0.624,0.578,0.871c0.243,0.248,0.53,0.444,0.862,0.59c0.331,0.146,0.688,0.219,1.071,0.219
		c0.377,0,0.732-0.073,1.063-0.219c0.331-0.146,0.62-0.344,0.866-0.594s0.44-0.54,0.582-0.871c0.142-0.331,0.213-0.684,0.213-1.059
		s-0.071-0.728-0.213-1.059c-0.142-0.331-0.336-0.621-0.582-0.871s-0.535-0.448-0.866-0.594
		C79.053,12.953,78.699,12.88,78.321,12.88z"/>
	<path fill="#FFFFFF" d="M93.701,17.521c0.233,0,0.425,0.077,0.578,0.23c0.153,0.154,0.229,0.348,0.229,0.582
		c0,0.229-0.085,0.43-0.256,0.602c-0.803,0.708-1.747,1.062-2.833,1.062c-1.201,0-2.225-0.427-3.074-1.281
		c-0.849-0.854-1.273-1.885-1.273-3.094c0-1.208,0.424-2.239,1.273-3.094c0.849-0.854,1.873-1.281,3.074-1.281
		c1.092,0,2.036,0.354,2.833,1.062c0.186,0.167,0.279,0.373,0.279,0.617c0,0.234-0.077,0.43-0.229,0.586
		c-0.152,0.156-0.345,0.234-0.578,0.234c-0.196,0-0.372-0.062-0.527-0.188c-0.264-0.224-0.541-0.393-0.831-0.508
		c-0.29-0.114-0.605-0.172-0.947-0.172c-0.378,0-0.732,0.072-1.063,0.215c-0.331,0.144-0.621,0.339-0.869,0.586
		c-0.249,0.248-0.444,0.538-0.586,0.871c-0.143,0.333-0.214,0.69-0.214,1.07c0,0.38,0.071,0.737,0.214,1.07
		c0.142,0.333,0.337,0.624,0.586,0.871c0.248,0.248,0.538,0.443,0.869,0.586c0.331,0.144,0.686,0.215,1.063,0.215
		c0.341,0,0.657-0.056,0.947-0.168c0.29-0.112,0.564-0.28,0.823-0.504C93.333,17.583,93.504,17.526,93.701,17.521z"/>
	<path fill="#FFFFFF" d="M101.157,9.692c0,0.266-0.093,0.492-0.279,0.68c-0.187,0.188-0.411,0.281-0.675,0.281
		s-0.489-0.094-0.675-0.281s-0.279-0.414-0.279-0.68s0.093-0.492,0.279-0.68s0.411-0.281,0.675-0.281s0.489,0.094,0.675,0.281
		C101.063,9.2,101.157,9.427,101.157,9.692z M99.395,19.177v-7.109c0-0.229,0.079-0.423,0.236-0.582
		c0.158-0.159,0.348-0.238,0.571-0.238c0.222,0,0.413,0.08,0.57,0.238c0.158,0.159,0.239,0.353,0.245,0.582v7.109
		c-0.005,0.229-0.087,0.423-0.245,0.582c-0.158,0.159-0.348,0.238-0.57,0.238c-0.223,0-0.413-0.079-0.571-0.238
		C99.474,19.6,99.395,19.406,99.395,19.177z"/>
	<path fill="#FFFFFF" d="M114.557,15.622c0,1.219-0.424,2.25-1.272,3.094c-0.859,0.854-1.884,1.281-3.074,1.281
		c-1.201,0-2.225-0.427-3.074-1.281c-0.849-0.854-1.272-1.885-1.272-3.094c0-1.208,0.424-2.239,1.272-3.094
		c0.849-0.854,1.873-1.281,3.074-1.281c1.19,0,2.214,0.427,3.074,1.281c0.424,0.427,0.741,0.898,0.95,1.414
		C114.445,14.458,114.552,15.018,114.557,15.622z M110.211,12.88c-0.383,0-0.74,0.073-1.071,0.219
		c-0.332,0.146-0.619,0.343-0.862,0.59c-0.243,0.248-0.436,0.538-0.578,0.871c-0.142,0.333-0.213,0.688-0.213,1.062
		s0.071,0.729,0.213,1.062c0.142,0.333,0.335,0.624,0.578,0.871c0.243,0.248,0.53,0.444,0.862,0.59
		c0.331,0.146,0.688,0.219,1.071,0.219c0.377,0,0.732-0.073,1.063-0.219c0.331-0.146,0.62-0.344,0.866-0.594s0.44-0.54,0.582-0.871
		c0.142-0.331,0.213-0.684,0.213-1.059s-0.071-0.728-0.213-1.059c-0.142-0.331-0.336-0.621-0.582-0.871s-0.535-0.448-0.866-0.594
		C110.943,12.953,110.588,12.88,110.211,12.88z"/>
	<path fill="#FFFFFF" d="M120.592,12.052c0.688-0.536,1.498-0.805,2.43-0.805c0.543,0,1.059,0.107,1.548,0.32
		c0.489,0.214,0.92,0.504,1.292,0.871s0.667,0.8,0.885,1.297c0.217,0.498,0.326,1.027,0.326,1.59v3.852
		c0,0.229-0.079,0.423-0.237,0.582c-0.158,0.159-0.348,0.238-0.57,0.238c-0.228,0-0.421-0.079-0.578-0.238
		c-0.158-0.159-0.237-0.353-0.237-0.582v-3.852c0-0.333-0.064-0.648-0.193-0.945c-0.13-0.297-0.305-0.556-0.524-0.777
		c-0.22-0.221-0.477-0.397-0.772-0.527c-0.295-0.13-0.608-0.195-0.939-0.195c-0.337,0-0.651,0.064-0.943,0.191
		c-0.292,0.128-0.55,0.304-0.772,0.527c-0.222,0.224-0.396,0.484-0.523,0.781s-0.19,0.612-0.19,0.945v3.852
		c0,0.229-0.079,0.423-0.236,0.582c-0.158,0.159-0.349,0.238-0.571,0.238c-0.228,0-0.42-0.079-0.578-0.238
		c-0.158-0.159-0.237-0.353-0.237-0.582v-7.109c0-0.224,0.079-0.417,0.237-0.578c0.158-0.161,0.351-0.242,0.578-0.242
		c0.222,0,0.413,0.081,0.571,0.242C120.513,11.651,120.592,11.838,120.592,12.052z"/>
	<path fill="#FFFFFF" d="M138.083,17.536c0.232,0,0.426,0.077,0.578,0.23c0.152,0.154,0.229,0.348,0.229,0.582
		c0,0.229-0.078,0.425-0.233,0.586c-0.802,0.708-1.749,1.062-2.841,1.062c-1.2,0-2.225-0.427-3.073-1.281
		c-0.849-0.854-1.273-1.885-1.273-3.094c0-1.208,0.424-2.239,1.273-3.094c0.849-0.854,1.873-1.281,3.073-1.281
		c1.19,0,2.215,0.427,3.074,1.281c0.424,0.422,0.743,0.892,0.955,1.41c0.212,0.519,0.318,1.08,0.318,1.684
		c0,0.234-0.079,0.429-0.237,0.582c-0.158,0.154-0.351,0.23-0.579,0.23h-6.146c0.088,0.287,0.217,0.548,0.388,0.785
		c0.171,0.237,0.371,0.44,0.602,0.609c0.23,0.169,0.484,0.301,0.761,0.395s0.565,0.141,0.865,0.141c0.342,0,0.655-0.052,0.939-0.156
		c0.284-0.104,0.548-0.26,0.792-0.469C137.703,17.609,137.881,17.542,138.083,17.536z M138.433,14.81
		c-0.088-0.286-0.218-0.548-0.392-0.785c-0.173-0.237-0.375-0.44-0.605-0.609c-0.23-0.169-0.483-0.301-0.76-0.395
		s-0.563-0.141-0.858-0.141s-0.582,0.047-0.861,0.141s-0.535,0.226-0.769,0.395c-0.232,0.169-0.435,0.373-0.605,0.609
		c-0.17,0.237-0.297,0.499-0.38,0.785H138.433z"/>
	<path fill="#FFFFFF" d="M146.167,15.833c-0.486-0.188-0.828-0.38-1.024-0.578h0.008c-0.394-0.401-0.59-0.872-0.59-1.414
		c0-0.396,0.104-0.754,0.314-1.074c0.209-0.32,0.482-0.592,0.818-0.816c0.337-0.224,0.716-0.397,1.138-0.52
		c0.421-0.122,0.844-0.184,1.269-0.184c1.293,0,2.403,0.523,3.33,1.57c0.109,0.136,0.163,0.3,0.163,0.492
		c0,0.234-0.077,0.429-0.229,0.582c-0.152,0.154-0.346,0.23-0.578,0.23c-0.166,0-0.307-0.047-0.423-0.141
		c-0.117-0.094-0.229-0.195-0.338-0.305c-0.527-0.531-1.169-0.797-1.925-0.797c-0.745,0-1.34,0.229-1.785,0.688
		c-0.083,0.083-0.124,0.198-0.124,0.344c0,0.146,0.067,0.245,0.202,0.297l3.632,1.203c0.507,0.198,0.849,0.391,1.024,0.578h-0.008
		c0.394,0.401,0.59,0.873,0.59,1.414c0,0.401-0.104,0.761-0.314,1.078c-0.209,0.318-0.482,0.59-0.818,0.816
		c-0.336,0.227-0.714,0.4-1.133,0.52c-0.419,0.12-0.841,0.18-1.265,0.18c-1.304,0-2.414-0.518-3.33-1.555
		c-0.114-0.151-0.17-0.32-0.17-0.508c0-0.234,0.076-0.428,0.229-0.582c0.153-0.153,0.346-0.23,0.578-0.23
		c0.171,0,0.315,0.051,0.435,0.152s0.228,0.199,0.326,0.293c0.528,0.531,1.172,0.797,1.933,0.797c0.74,0,1.335-0.234,1.785-0.703
		c0.078-0.088,0.116-0.195,0.116-0.32c0-0.146-0.069-0.247-0.209-0.305L146.167,15.833z"/>
</g>
</svg>
