<?xml version="1.0" encoding="utf-8"?>
<!-- Generator: Adobe Illustrator 16.0.0, SVG Export Plug-In . SVG Version: 6.00 Build 0)  -->
<!DOCTYPE svg PUBLIC "-//W3C//DTD SVG 1.1//EN" "http://www.w3.org/Graphics/SVG/1.1/DTD/svg11.dtd">
<svg version="1.1" id="Capa_1" xmlns="http://www.w3.org/2000/svg" xmlns:xlink="http://www.w3.org/1999/xlink" x="0px" y="0px"
	 width="552.233px" height="47.773px" viewBox="0 0 552.233 47.773" enable-background="new 0 0 552.233 47.773"
	 xml:space="preserve">
<g>
	<g>
		<g>
			<path fill="#3C3C3B" d="M291.288,40.727l1.43-0.125c0.067,0.573,0.225,1.043,0.473,1.41c0.247,0.367,0.631,0.664,1.152,0.891
				c0.521,0.227,1.106,0.34,1.758,0.34c0.578,0,1.088-0.086,1.531-0.258c0.442-0.172,0.772-0.407,0.988-0.707
				c0.216-0.3,0.324-0.626,0.324-0.98c0-0.359-0.104-0.673-0.312-0.941c-0.208-0.269-0.552-0.493-1.031-0.676
				c-0.308-0.12-0.987-0.306-2.039-0.559c-1.052-0.253-1.789-0.491-2.211-0.715c-0.547-0.286-0.955-0.642-1.223-1.066
				c-0.269-0.425-0.402-0.899-0.402-1.426c0-0.578,0.164-1.118,0.492-1.621s0.807-0.884,1.438-1.145
				c0.63-0.261,1.331-0.391,2.102-0.391c0.849,0,1.598,0.137,2.246,0.41s1.147,0.676,1.496,1.207
				c0.349,0.531,0.536,1.133,0.562,1.805l-1.453,0.109c-0.078-0.724-0.343-1.271-0.793-1.641c-0.451-0.37-1.116-0.555-1.996-0.555
				c-0.917,0-1.585,0.168-2.004,0.504c-0.419,0.336-0.629,0.741-0.629,1.215c0,0.411,0.148,0.75,0.445,1.016
				c0.292,0.266,1.053,0.538,2.285,0.816c1.231,0.278,2.077,0.522,2.535,0.73c0.667,0.308,1.159,0.696,1.477,1.168
				c0.317,0.472,0.477,1.015,0.477,1.629c0,0.609-0.175,1.184-0.523,1.723c-0.349,0.539-0.851,0.958-1.504,1.258
				c-0.654,0.3-1.39,0.449-2.207,0.449c-1.037,0-1.905-0.151-2.605-0.453c-0.701-0.302-1.25-0.757-1.648-1.363
				S291.308,41.492,291.288,40.727z"/>
			<path fill="#3C3C3B" d="M307.975,41.734l1.453,0.18c-0.229,0.849-0.654,1.508-1.273,1.977c-0.62,0.469-1.412,0.703-2.375,0.703
				c-1.214,0-2.176-0.374-2.887-1.121s-1.066-1.796-1.066-3.145c0-1.396,0.359-2.479,1.078-3.25s1.651-1.156,2.797-1.156
				c1.109,0,2.016,0.378,2.719,1.133s1.055,1.817,1.055,3.188c0,0.083-0.003,0.208-0.008,0.375h-6.188
				c0.052,0.911,0.31,1.609,0.773,2.094c0.463,0.484,1.042,0.727,1.734,0.727c0.516,0,0.956-0.136,1.32-0.406
				C307.472,42.761,307.761,42.328,307.975,41.734z M303.358,39.461h4.633c-0.062-0.698-0.24-1.222-0.531-1.57
				c-0.448-0.542-1.029-0.812-1.742-0.812c-0.646,0-1.189,0.216-1.629,0.648C303.648,38.159,303.405,38.737,303.358,39.461z"/>
			<path fill="#3C3C3B" d="M311.194,44.406v-8.297h1.266v1.18c0.609-0.911,1.489-1.367,2.641-1.367c0.5,0,0.959,0.09,1.379,0.27
				c0.419,0.18,0.733,0.415,0.941,0.707c0.208,0.292,0.354,0.638,0.438,1.039c0.052,0.261,0.078,0.716,0.078,1.367v5.102h-1.406
				v-5.047c0-0.573-0.055-1.001-0.164-1.285s-0.304-0.511-0.582-0.68c-0.279-0.169-0.605-0.254-0.98-0.254
				c-0.599,0-1.116,0.19-1.551,0.57c-0.435,0.38-0.652,1.102-0.652,2.164v4.531H311.194z"/>
			<path fill="#3C3C3B" d="M323.163,43.148l0.203,1.242c-0.396,0.083-0.75,0.125-1.062,0.125c-0.511,0-0.906-0.081-1.188-0.242
				s-0.479-0.374-0.594-0.637c-0.115-0.263-0.172-0.816-0.172-1.66v-4.773h-1.031v-1.094h1.031v-2.055l1.398-0.844v2.898h1.414
				v1.094h-1.414v4.852c0,0.401,0.024,0.659,0.074,0.773c0.049,0.114,0.13,0.206,0.242,0.273c0.112,0.067,0.272,0.102,0.48,0.102
				C322.702,43.203,322.907,43.185,323.163,43.148z"/>
			<path fill="#3C3C3B" d="M330.217,41.734l1.453,0.18c-0.229,0.849-0.654,1.508-1.273,1.977c-0.62,0.469-1.412,0.703-2.375,0.703
				c-1.214,0-2.176-0.374-2.887-1.121s-1.066-1.796-1.066-3.145c0-1.396,0.359-2.479,1.078-3.25s1.651-1.156,2.797-1.156
				c1.109,0,2.016,0.378,2.719,1.133s1.055,1.817,1.055,3.188c0,0.083-0.003,0.208-0.008,0.375h-6.188
				c0.052,0.911,0.31,1.609,0.773,2.094c0.463,0.484,1.042,0.727,1.734,0.727c0.516,0,0.956-0.136,1.32-0.406
				C329.714,42.761,330.003,42.328,330.217,41.734z M325.6,39.461h4.633c-0.062-0.698-0.24-1.222-0.531-1.57
				c-0.448-0.542-1.029-0.812-1.742-0.812c-0.646,0-1.189,0.216-1.629,0.648C325.89,38.159,325.647,38.737,325.6,39.461z"/>
			<path fill="#3C3C3B" d="M333.436,44.406v-8.297h1.266v1.18c0.609-0.911,1.489-1.367,2.641-1.367c0.5,0,0.959,0.09,1.379,0.27
				c0.419,0.18,0.733,0.415,0.941,0.707c0.208,0.292,0.354,0.638,0.438,1.039c0.052,0.261,0.078,0.716,0.078,1.367v5.102h-1.406
				v-5.047c0-0.573-0.055-1.001-0.164-1.285s-0.304-0.511-0.582-0.68c-0.279-0.169-0.605-0.254-0.98-0.254
				c-0.599,0-1.116,0.19-1.551,0.57c-0.435,0.38-0.652,1.102-0.652,2.164v4.531H333.436z"/>
			<path fill="#3C3C3B" d="M347.749,41.367l1.383,0.18c-0.151,0.953-0.538,1.699-1.16,2.238c-0.623,0.539-1.387,0.809-2.293,0.809
				c-1.136,0-2.048-0.371-2.738-1.113c-0.69-0.742-1.035-1.806-1.035-3.191c0-0.896,0.148-1.68,0.445-2.352s0.749-1.176,1.355-1.512
				c0.606-0.336,1.267-0.504,1.98-0.504c0.901,0,1.638,0.228,2.211,0.684c0.573,0.456,0.94,1.103,1.102,1.941l-1.367,0.211
				c-0.13-0.558-0.361-0.977-0.691-1.258c-0.331-0.281-0.73-0.422-1.199-0.422c-0.708,0-1.284,0.254-1.727,0.762
				c-0.443,0.508-0.664,1.312-0.664,2.41c0,1.114,0.213,1.925,0.641,2.43c0.427,0.505,0.984,0.758,1.672,0.758
				c0.552,0,1.013-0.169,1.383-0.508C347.415,42.591,347.649,42.07,347.749,41.367z"/>
			<path fill="#3C3C3B" d="M350.342,34.57v-1.617h1.406v1.617H350.342z M350.342,44.406v-8.297h1.406v8.297H350.342z"/>
			<path fill="#3C3C3B" d="M359.303,43.383c-0.521,0.442-1.022,0.755-1.504,0.938c-0.482,0.183-0.999,0.273-1.551,0.273
				c-0.912,0-1.612-0.223-2.102-0.668c-0.49-0.445-0.734-1.015-0.734-1.707c0-0.406,0.092-0.777,0.277-1.113
				c0.185-0.336,0.427-0.605,0.727-0.809c0.299-0.203,0.637-0.356,1.012-0.461c0.276-0.073,0.692-0.144,1.25-0.211
				c1.135-0.136,1.971-0.297,2.508-0.484c0.005-0.192,0.008-0.315,0.008-0.367c0-0.573-0.133-0.977-0.398-1.211
				c-0.359-0.317-0.894-0.477-1.602-0.477c-0.662,0-1.15,0.116-1.465,0.348c-0.315,0.231-0.548,0.642-0.699,1.23l-1.375-0.188
				c0.125-0.589,0.331-1.063,0.617-1.426c0.286-0.362,0.7-0.641,1.242-0.836c0.542-0.195,1.169-0.293,1.883-0.293
				c0.708,0,1.284,0.083,1.727,0.25c0.442,0.167,0.768,0.376,0.977,0.629c0.208,0.253,0.354,0.571,0.438,0.957
				c0.047,0.239,0.07,0.672,0.07,1.297v1.875c0,1.308,0.03,2.134,0.09,2.48c0.06,0.347,0.178,0.679,0.355,0.996h-1.469
				C359.438,44.114,359.345,43.773,359.303,43.383z M359.186,40.242c-0.511,0.208-1.276,0.386-2.297,0.531
				c-0.578,0.083-0.987,0.177-1.227,0.281c-0.24,0.104-0.425,0.257-0.555,0.457c-0.13,0.2-0.195,0.423-0.195,0.668
				c0,0.375,0.142,0.688,0.426,0.938c0.284,0.25,0.699,0.375,1.246,0.375c0.542,0,1.023-0.118,1.445-0.355s0.731-0.562,0.93-0.973
				c0.151-0.317,0.227-0.786,0.227-1.406V40.242z"/>
			<path fill="#3C3C3B" d="M362.225,41.93l1.391-0.219c0.078,0.558,0.295,0.984,0.652,1.281c0.356,0.297,0.855,0.445,1.496,0.445
				c0.646,0,1.125-0.132,1.438-0.395s0.469-0.571,0.469-0.926c0-0.317-0.138-0.567-0.414-0.75c-0.193-0.125-0.672-0.284-1.438-0.477
				c-1.031-0.261-1.746-0.485-2.145-0.676s-0.701-0.453-0.906-0.789c-0.206-0.336-0.309-0.707-0.309-1.113
				c0-0.37,0.084-0.712,0.254-1.027c0.169-0.315,0.399-0.577,0.691-0.785c0.219-0.161,0.517-0.298,0.895-0.41
				c0.377-0.112,0.782-0.168,1.215-0.168c0.651,0,1.223,0.094,1.715,0.281s0.855,0.441,1.09,0.762s0.396,0.749,0.484,1.285
				l-1.375,0.188c-0.062-0.427-0.244-0.761-0.543-1c-0.3-0.239-0.723-0.359-1.27-0.359c-0.646,0-1.107,0.106-1.383,0.32
				c-0.276,0.214-0.414,0.464-0.414,0.75c0,0.183,0.057,0.347,0.172,0.492c0.114,0.151,0.294,0.276,0.539,0.375
				c0.141,0.052,0.555,0.172,1.242,0.359c0.995,0.266,1.688,0.483,2.082,0.652c0.393,0.169,0.702,0.415,0.926,0.738
				c0.224,0.323,0.336,0.724,0.336,1.203c0,0.469-0.137,0.91-0.41,1.324s-0.668,0.734-1.184,0.961s-1.099,0.34-1.75,0.34
				c-1.078,0-1.9-0.224-2.465-0.672C362.742,43.474,362.381,42.81,362.225,41.93z"/>
			<path fill="#3C3C3B" d="M380.616,44.406v-1.047c-0.526,0.823-1.3,1.234-2.32,1.234c-0.662,0-1.27-0.183-1.824-0.547
				s-0.984-0.874-1.289-1.527s-0.457-1.405-0.457-2.254c0-0.828,0.138-1.579,0.414-2.254c0.276-0.675,0.69-1.191,1.242-1.551
				c0.552-0.359,1.169-0.539,1.852-0.539c0.5,0,0.945,0.105,1.336,0.316s0.708,0.485,0.953,0.824v-4.109h1.398v11.453H380.616z
				 M376.17,40.266c0,1.062,0.224,1.856,0.672,2.383c0.448,0.526,0.977,0.789,1.586,0.789c0.614,0,1.137-0.251,1.566-0.754
				s0.645-1.27,0.645-2.301c0-1.136-0.219-1.969-0.656-2.5s-0.977-0.797-1.617-0.797c-0.625,0-1.147,0.255-1.566,0.766
				C376.38,38.362,376.17,39.167,376.17,40.266z"/>
			<path fill="#3C3C3B" d="M389.811,41.734l1.453,0.18c-0.229,0.849-0.654,1.508-1.273,1.977c-0.62,0.469-1.412,0.703-2.375,0.703
				c-1.214,0-2.176-0.374-2.887-1.121s-1.066-1.796-1.066-3.145c0-1.396,0.359-2.479,1.078-3.25s1.651-1.156,2.797-1.156
				c1.109,0,2.016,0.378,2.719,1.133s1.055,1.817,1.055,3.188c0,0.083-0.003,0.208-0.008,0.375h-6.188
				c0.052,0.911,0.31,1.609,0.773,2.094c0.463,0.484,1.042,0.727,1.734,0.727c0.516,0,0.956-0.136,1.32-0.406
				C389.308,42.761,389.597,42.328,389.811,41.734z M385.194,39.461h4.633c-0.062-0.698-0.24-1.222-0.531-1.57
				c-0.448-0.542-1.029-0.812-1.742-0.812c-0.646,0-1.189,0.216-1.629,0.648C385.484,38.159,385.241,38.737,385.194,39.461z"/>
			<path fill="#3C3C3B" d="M396.881,41.156l1.367-0.188c0.036,0.875,0.2,1.474,0.492,1.797c0.292,0.323,0.695,0.484,1.211,0.484
				c0.38,0,0.708-0.087,0.984-0.262c0.276-0.175,0.466-0.411,0.57-0.711c0.104-0.3,0.156-0.777,0.156-1.434v-7.891h1.516v7.805
				c0,0.958-0.116,1.7-0.348,2.227c-0.232,0.526-0.599,0.927-1.102,1.203c-0.503,0.276-1.093,0.414-1.77,0.414
				c-1.005,0-1.775-0.289-2.309-0.867C397.117,43.156,396.86,42.297,396.881,41.156z"/>
			<path fill="#3C3C3B" d="M410.913,44.406v-1.219c-0.646,0.938-1.523,1.406-2.633,1.406c-0.49,0-0.947-0.094-1.371-0.281
				c-0.425-0.188-0.74-0.423-0.945-0.707c-0.206-0.284-0.351-0.632-0.434-1.043c-0.058-0.276-0.086-0.714-0.086-1.312v-5.141h1.406
				v4.602c0,0.734,0.028,1.229,0.086,1.484c0.088,0.37,0.276,0.66,0.562,0.871c0.286,0.211,0.641,0.316,1.062,0.316
				s0.817-0.108,1.188-0.324c0.37-0.216,0.631-0.511,0.785-0.883c0.153-0.372,0.23-0.913,0.23-1.621v-4.445h1.406v8.297H410.913z"/>
			<path fill="#3C3C3B" d="M413.811,41.93l1.391-0.219c0.078,0.558,0.295,0.984,0.652,1.281c0.356,0.297,0.855,0.445,1.496,0.445
				c0.646,0,1.125-0.132,1.438-0.395s0.469-0.571,0.469-0.926c0-0.317-0.138-0.567-0.414-0.75c-0.193-0.125-0.672-0.284-1.438-0.477
				c-1.031-0.261-1.746-0.485-2.145-0.676s-0.701-0.453-0.906-0.789c-0.206-0.336-0.309-0.707-0.309-1.113
				c0-0.37,0.084-0.712,0.254-1.027c0.169-0.315,0.399-0.577,0.691-0.785c0.219-0.161,0.517-0.298,0.895-0.41
				c0.377-0.112,0.782-0.168,1.215-0.168c0.651,0,1.223,0.094,1.715,0.281s0.855,0.441,1.09,0.762s0.396,0.749,0.484,1.285
				l-1.375,0.188c-0.062-0.427-0.244-0.761-0.543-1c-0.3-0.239-0.723-0.359-1.27-0.359c-0.646,0-1.107,0.106-1.383,0.32
				c-0.276,0.214-0.414,0.464-0.414,0.75c0,0.183,0.057,0.347,0.172,0.492c0.114,0.151,0.294,0.276,0.539,0.375
				c0.141,0.052,0.555,0.172,1.242,0.359c0.995,0.266,1.688,0.483,2.082,0.652c0.393,0.169,0.702,0.415,0.926,0.738
				c0.224,0.323,0.336,0.724,0.336,1.203c0,0.469-0.137,0.91-0.41,1.324s-0.668,0.734-1.184,0.961s-1.099,0.34-1.75,0.34
				c-1.078,0-1.9-0.224-2.465-0.672C414.328,43.474,413.967,42.81,413.811,41.93z"/>
			<path fill="#3C3C3B" d="M425.444,43.148l0.203,1.242c-0.396,0.083-0.75,0.125-1.062,0.125c-0.511,0-0.906-0.081-1.188-0.242
				s-0.479-0.374-0.594-0.637c-0.115-0.263-0.172-0.816-0.172-1.66v-4.773H421.6v-1.094h1.031v-2.055l1.398-0.844v2.898h1.414v1.094
				h-1.414v4.852c0,0.401,0.024,0.659,0.074,0.773c0.049,0.114,0.13,0.206,0.242,0.273c0.112,0.067,0.272,0.102,0.48,0.102
				C424.983,43.203,425.188,43.185,425.444,43.148z"/>
			<path fill="#3C3C3B" d="M426.827,34.57v-1.617h1.406v1.617H426.827z M426.827,44.406v-8.297h1.406v8.297H426.827z"/>
			<path fill="#3C3C3B" d="M435.788,41.367l1.383,0.18c-0.151,0.953-0.538,1.699-1.16,2.238c-0.623,0.539-1.387,0.809-2.293,0.809
				c-1.136,0-2.048-0.371-2.738-1.113c-0.69-0.742-1.035-1.806-1.035-3.191c0-0.896,0.148-1.68,0.445-2.352s0.749-1.176,1.355-1.512
				c0.606-0.336,1.267-0.504,1.98-0.504c0.901,0,1.638,0.228,2.211,0.684c0.573,0.456,0.94,1.103,1.102,1.941l-1.367,0.211
				c-0.13-0.558-0.361-0.977-0.691-1.258c-0.331-0.281-0.73-0.422-1.199-0.422c-0.708,0-1.284,0.254-1.727,0.762
				c-0.443,0.508-0.664,1.312-0.664,2.41c0,1.114,0.213,1.925,0.641,2.43c0.427,0.505,0.984,0.758,1.672,0.758
				c0.552,0,1.013-0.169,1.383-0.508C435.454,42.591,435.688,42.07,435.788,41.367z"/>
			<path fill="#3C3C3B" d="M438.381,34.57v-1.617h1.406v1.617H438.381z M438.381,44.406v-8.297h1.406v8.297H438.381z"/>
			<path fill="#3C3C3B" d="M447.342,43.383c-0.521,0.442-1.022,0.755-1.504,0.938c-0.482,0.183-0.999,0.273-1.551,0.273
				c-0.912,0-1.612-0.223-2.102-0.668c-0.49-0.445-0.734-1.015-0.734-1.707c0-0.406,0.092-0.777,0.277-1.113
				c0.185-0.336,0.427-0.605,0.727-0.809c0.299-0.203,0.637-0.356,1.012-0.461c0.276-0.073,0.692-0.144,1.25-0.211
				c1.135-0.136,1.971-0.297,2.508-0.484c0.005-0.192,0.008-0.315,0.008-0.367c0-0.573-0.133-0.977-0.398-1.211
				c-0.359-0.317-0.894-0.477-1.602-0.477c-0.662,0-1.15,0.116-1.465,0.348c-0.315,0.231-0.548,0.642-0.699,1.23l-1.375-0.188
				c0.125-0.589,0.331-1.063,0.617-1.426c0.286-0.362,0.7-0.641,1.242-0.836c0.542-0.195,1.169-0.293,1.883-0.293
				c0.708,0,1.284,0.083,1.727,0.25c0.442,0.167,0.768,0.376,0.977,0.629c0.208,0.253,0.354,0.571,0.438,0.957
				c0.047,0.239,0.07,0.672,0.07,1.297v1.875c0,1.308,0.03,2.134,0.09,2.48c0.06,0.347,0.178,0.679,0.355,0.996h-1.469
				C447.478,44.114,447.384,43.773,447.342,43.383z M447.225,40.242c-0.511,0.208-1.276,0.386-2.297,0.531
				c-0.578,0.083-0.987,0.177-1.227,0.281c-0.24,0.104-0.425,0.257-0.555,0.457c-0.13,0.2-0.195,0.423-0.195,0.668
				c0,0.375,0.142,0.688,0.426,0.938c0.284,0.25,0.699,0.375,1.246,0.375c0.542,0,1.023-0.118,1.445-0.355s0.731-0.562,0.93-0.973
				c0.151-0.317,0.227-0.786,0.227-1.406V40.242z"/>
			<path fill="#3C3C3B" d="M455.209,47.602l-0.156-1.32c0.307,0.083,0.575,0.125,0.805,0.125c0.312,0,0.562-0.052,0.75-0.156
				s0.341-0.25,0.461-0.438c0.088-0.141,0.231-0.489,0.43-1.047c0.026-0.078,0.067-0.192,0.125-0.344l-3.148-8.312h1.516
				l1.727,4.805c0.224,0.609,0.424,1.25,0.602,1.922c0.161-0.646,0.354-1.276,0.578-1.891l1.773-4.836h1.406l-3.156,8.438
				c-0.339,0.911-0.602,1.539-0.789,1.883c-0.25,0.464-0.537,0.804-0.859,1.02c-0.323,0.216-0.708,0.324-1.156,0.324
				C455.845,47.773,455.542,47.716,455.209,47.602z"/>
			<path fill="#3C3C3B" d="M467.897,44.406V32.953h4.32c0.76,0,1.341,0.036,1.742,0.109c0.562,0.094,1.034,0.272,1.414,0.535
				c0.38,0.263,0.686,0.632,0.918,1.105c0.231,0.474,0.348,0.995,0.348,1.562c0,0.974-0.31,1.798-0.93,2.473
				c-0.62,0.675-1.74,1.012-3.359,1.012h-2.938v4.656H467.897z M469.413,38.398h2.961c0.979,0,1.674-0.183,2.086-0.547
				c0.411-0.364,0.617-0.878,0.617-1.539c0-0.479-0.121-0.89-0.363-1.23s-0.562-0.566-0.957-0.676
				c-0.255-0.067-0.727-0.102-1.414-0.102h-2.93V38.398z"/>
			<path fill="#3C3C3B" d="M483.803,43.383c-0.521,0.442-1.022,0.755-1.504,0.938c-0.482,0.183-0.999,0.273-1.551,0.273
				c-0.912,0-1.612-0.223-2.102-0.668c-0.49-0.445-0.734-1.015-0.734-1.707c0-0.406,0.092-0.777,0.277-1.113
				c0.185-0.336,0.427-0.605,0.727-0.809c0.299-0.203,0.637-0.356,1.012-0.461c0.276-0.073,0.692-0.144,1.25-0.211
				c1.135-0.136,1.971-0.297,2.508-0.484c0.005-0.192,0.008-0.315,0.008-0.367c0-0.573-0.133-0.977-0.398-1.211
				c-0.359-0.317-0.894-0.477-1.602-0.477c-0.662,0-1.15,0.116-1.465,0.348c-0.315,0.231-0.548,0.642-0.699,1.23l-1.375-0.188
				c0.125-0.589,0.331-1.063,0.617-1.426c0.286-0.362,0.7-0.641,1.242-0.836c0.542-0.195,1.169-0.293,1.883-0.293
				c0.708,0,1.284,0.083,1.727,0.25c0.442,0.167,0.768,0.376,0.977,0.629c0.208,0.253,0.354,0.571,0.438,0.957
				c0.047,0.239,0.07,0.672,0.07,1.297v1.875c0,1.308,0.03,2.134,0.09,2.48c0.06,0.347,0.178,0.679,0.355,0.996h-1.469
				C483.938,44.114,483.845,43.773,483.803,43.383z M483.686,40.242c-0.511,0.208-1.276,0.386-2.297,0.531
				c-0.578,0.083-0.987,0.177-1.227,0.281c-0.24,0.104-0.425,0.257-0.555,0.457c-0.13,0.2-0.195,0.423-0.195,0.668
				c0,0.375,0.142,0.688,0.426,0.938c0.284,0.25,0.699,0.375,1.246,0.375c0.542,0,1.023-0.118,1.445-0.355s0.731-0.562,0.93-0.973
				c0.151-0.317,0.227-0.786,0.227-1.406V40.242z"/>
			<path fill="#3C3C3B" d="M486.545,44.406v-1.141l5.281-6.062c-0.599,0.031-1.128,0.047-1.586,0.047h-3.383v-1.141h6.781v0.93
				l-4.492,5.266l-0.867,0.961c0.63-0.047,1.221-0.07,1.773-0.07h3.836v1.211H486.545z"/>
			<path fill="#3C3C3B" d="M495.678,37.711v-1.602h1.602v1.602H495.678z M495.678,44.406v-1.602h1.602v1.602H495.678z"/>
			<path fill="#3C3C3B" d="M512.53,40.391l1.516,0.383c-0.318,1.245-0.89,2.194-1.715,2.848c-0.826,0.653-1.835,0.98-3.027,0.98
				c-1.234,0-2.238-0.251-3.012-0.754s-1.362-1.23-1.766-2.184c-0.404-0.953-0.605-1.977-0.605-3.07
				c0-1.192,0.228-2.233,0.684-3.121c0.456-0.888,1.104-1.562,1.945-2.023c0.841-0.461,1.767-0.691,2.777-0.691
				c1.146,0,2.109,0.292,2.891,0.875s1.325,1.403,1.633,2.461l-1.492,0.352c-0.266-0.833-0.651-1.44-1.156-1.82
				c-0.505-0.38-1.141-0.57-1.906-0.57c-0.88,0-1.616,0.211-2.207,0.633c-0.591,0.422-1.007,0.988-1.246,1.699
				c-0.24,0.711-0.359,1.444-0.359,2.199c0,0.974,0.142,1.824,0.426,2.551c0.284,0.727,0.725,1.27,1.324,1.629
				c0.599,0.359,1.247,0.539,1.945,0.539c0.849,0,1.567-0.245,2.156-0.734C511.923,42.081,512.321,41.354,512.53,40.391z"/>
			<path fill="#3C3C3B" d="M521.147,43.383c-0.521,0.442-1.022,0.755-1.504,0.938c-0.482,0.183-0.999,0.273-1.551,0.273
				c-0.912,0-1.612-0.223-2.102-0.668c-0.49-0.445-0.734-1.015-0.734-1.707c0-0.406,0.092-0.777,0.277-1.113
				c0.185-0.336,0.427-0.605,0.727-0.809c0.299-0.203,0.637-0.356,1.012-0.461c0.276-0.073,0.692-0.144,1.25-0.211
				c1.135-0.136,1.971-0.297,2.508-0.484c0.005-0.192,0.008-0.315,0.008-0.367c0-0.573-0.133-0.977-0.398-1.211
				c-0.359-0.317-0.894-0.477-1.602-0.477c-0.662,0-1.15,0.116-1.465,0.348c-0.315,0.231-0.548,0.642-0.699,1.23l-1.375-0.188
				c0.125-0.589,0.331-1.063,0.617-1.426c0.286-0.362,0.7-0.641,1.242-0.836c0.542-0.195,1.169-0.293,1.883-0.293
				c0.708,0,1.284,0.083,1.727,0.25c0.442,0.167,0.768,0.376,0.977,0.629c0.208,0.253,0.354,0.571,0.438,0.957
				c0.047,0.239,0.07,0.672,0.07,1.297v1.875c0,1.308,0.03,2.134,0.09,2.48c0.06,0.347,0.178,0.679,0.355,0.996h-1.469
				C521.282,44.114,521.188,43.773,521.147,43.383z M521.03,40.242c-0.511,0.208-1.276,0.386-2.297,0.531
				c-0.578,0.083-0.987,0.177-1.227,0.281c-0.24,0.104-0.425,0.257-0.555,0.457c-0.13,0.2-0.195,0.423-0.195,0.668
				c0,0.375,0.142,0.688,0.426,0.938c0.284,0.25,0.699,0.375,1.246,0.375c0.542,0,1.023-0.118,1.445-0.355s0.731-0.562,0.93-0.973
				c0.151-0.317,0.227-0.786,0.227-1.406V40.242z"/>
			<path fill="#3C3C3B" d="M524.6,44.406V32.953h1.406v11.453H524.6z"/>
			<path fill="#3C3C3B" d="M528.194,34.57v-1.617h1.406v1.617H528.194z M528.194,44.406v-8.297h1.406v8.297H528.194z"/>
			<path fill="#3C3C3B" d="M531.741,44.406v-8.297h1.258v1.164c0.26-0.406,0.606-0.733,1.039-0.98
				c0.432-0.247,0.924-0.371,1.477-0.371c0.614,0,1.118,0.128,1.512,0.383c0.393,0.255,0.67,0.612,0.832,1.07
				c0.656-0.969,1.51-1.453,2.562-1.453c0.823,0,1.456,0.228,1.898,0.684c0.442,0.456,0.664,1.157,0.664,2.105v5.695h-1.398V39.18
				c0-0.562-0.046-0.968-0.137-1.215c-0.091-0.247-0.257-0.446-0.496-0.598c-0.24-0.151-0.521-0.227-0.844-0.227
				c-0.583,0-1.068,0.194-1.453,0.582c-0.386,0.388-0.578,1.009-0.578,1.863v4.82h-1.406v-5.391c0-0.625-0.115-1.094-0.344-1.406
				c-0.229-0.312-0.604-0.469-1.125-0.469c-0.396,0-0.762,0.104-1.098,0.312s-0.58,0.513-0.73,0.914
				c-0.151,0.401-0.227,0.979-0.227,1.734v4.305H531.741z"/>
			<path fill="#3C3C3B" d="M550.483,43.383c-0.521,0.442-1.022,0.755-1.504,0.938c-0.482,0.183-0.999,0.273-1.551,0.273
				c-0.912,0-1.612-0.223-2.102-0.668c-0.49-0.445-0.734-1.015-0.734-1.707c0-0.406,0.092-0.777,0.277-1.113
				c0.185-0.336,0.427-0.605,0.727-0.809c0.299-0.203,0.637-0.356,1.012-0.461c0.276-0.073,0.692-0.144,1.25-0.211
				c1.135-0.136,1.971-0.297,2.508-0.484c0.005-0.192,0.008-0.315,0.008-0.367c0-0.573-0.133-0.977-0.398-1.211
				c-0.359-0.317-0.894-0.477-1.602-0.477c-0.662,0-1.15,0.116-1.465,0.348c-0.315,0.231-0.548,0.642-0.699,1.23l-1.375-0.188
				c0.125-0.589,0.331-1.063,0.617-1.426c0.286-0.362,0.7-0.641,1.242-0.836c0.542-0.195,1.169-0.293,1.883-0.293
				c0.708,0,1.284,0.083,1.727,0.25c0.442,0.167,0.768,0.376,0.977,0.629c0.208,0.253,0.354,0.571,0.438,0.957
				c0.047,0.239,0.07,0.672,0.07,1.297v1.875c0,1.308,0.03,2.134,0.09,2.48c0.06,0.347,0.178,0.679,0.355,0.996h-1.469
				C550.618,44.114,550.524,43.773,550.483,43.383z M550.366,40.242c-0.511,0.208-1.276,0.386-2.297,0.531
				c-0.578,0.083-0.987,0.177-1.227,0.281c-0.24,0.104-0.425,0.257-0.555,0.457c-0.13,0.2-0.195,0.423-0.195,0.668
				c0,0.375,0.142,0.688,0.426,0.938c0.284,0.25,0.699,0.375,1.246,0.375c0.542,0,1.023-0.118,1.445-0.355s0.731-0.562,0.93-0.973
				c0.151-0.317,0.227-0.786,0.227-1.406V40.242z"/>
		</g>
	</g>
	<path fill="#F39200" d="M1.28,27.942c-0.003,0.017-0.008,0.03-0.016,0.046l-0.121,0.24l-0.03,0.374l0.03,0.279l0.051,0.127
		l0.057,0.076l0.659,0.219c0.015,0.006,0.028,0.013,0.04,0.021l0.405,0.271l0.302,0.136l1.098-1.256l0.352-0.614l0.165-0.328
		l0.471-0.645l0.127-0.381c0.011-0.033,0.032-0.062,0.06-0.081l0.482-0.355l0.774-1.161l0.264-1.419l0.167-1.539
		c0.001-0.02,0.006-0.037,0.015-0.055l0.506-1.079c0.006-0.013,0.013-0.024,0.021-0.034l0.659-0.823l0.396-1.057
		c0.005-0.013,0.011-0.025,0.021-0.038l0.17-0.236l0.52-0.559c0.012-0.013,0.027-0.023,0.044-0.03l1.042-0.556l0.231-0.346
		l0.128-0.513c0.003-0.013,0.008-0.025,0.015-0.04l0.448-0.818l-0.111,0.065l-0.212,0.186c-0.017,0.016-0.036,0.025-0.057,0.033
		l-0.278,0.093l-0.113,0.085c-0.01,0.008-0.021,0.013-0.032,0.018l-0.304,0.136c-0.017,0.007-0.035,0.012-0.054,0.015l-0.335,0.03
		L9.062,16.58c-0.025,0.014-0.053,0.021-0.082,0.021c-0.007,0-0.015,0-0.021-0.002l0,0l0,0l-0.27-0.034
		c-0.03-0.002-0.058-0.014-0.081-0.032l-0.774-0.579l-0.8-0.097l-2.005,0.001L4.8,15.821c-0.019-0.002-0.038-0.009-0.054-0.018
		l-0.57-0.317H4.099L3.964,15.57l0.084,0.53l0.035,0.384c0.004,0.045-0.01,0.089-0.039,0.125l-0.168,0.2
		c-0.033,0.041-0.081,0.061-0.131,0.061h-0.64l-0.205,0.089c-0.029,0.012-0.061,0.017-0.093,0.012l-1.45-0.221l-0.747,1.045
		l0.027,0.238c0.005,0.041-0.004,0.08-0.027,0.112l-0.174,0.263v0.151c0,0.015-0.002,0.032-0.007,0.047l-0.162,0.55l0.033,1.664
		l0.156,0.376c0.03,0.071,0.006,0.156-0.057,0.201l-0.218,0.156l-0.1,0.124L0,21.973l0.235,0.098h0.373
		c0.021,0,0.042,0.006,0.062,0.014l1.012,0.403c0.041,0.016,0.073,0.046,0.091,0.086l0.505,1.08
		c0.032,0.063,0.018,0.143-0.033,0.191l-0.018,0.02v0.841l0.032,0.284c0.002,0.021,0.002,0.04-0.004,0.059l-0.033,0.137l-0.38,0.871
		l-0.281,0.46l-0.243,0.641l0.031,0.37c0.001,0.015,0,0.03-0.003,0.045L1.28,27.942z"/>
	<g>
		<g>
			<g enable-background="new    ">
				<path fill="#331842" d="M305.018,19.58c-0.445-0.502-0.926-1.032-1.441-1.592c-0.769,0.338-1.682,0.508-2.738,0.508
					c-3.939,0-5.908-2.436-5.908-7.305c0-4.519,2.1-6.777,6.301-6.777c3.677,0,5.515,2.347,5.515,7.041
					c0,2.22-0.441,3.916-1.323,5.088c0.506,0.501,1.004,0.979,1.493,1.436L305.018,19.58z M298.611,11.719
					c-0.009,0.169-0.013,0.332-0.013,0.488c0,2.454,0.769,3.682,2.306,3.682c0.218,0,0.424-0.026,0.616-0.078
					c-0.542-0.573-1.113-1.169-1.716-1.787l1.874-1.533c0.472,0.54,0.935,1.064,1.389,1.572c0.192-0.625,0.288-1.406,0.288-2.344
					c0-2.787-0.76-4.18-2.279-4.18C299.546,7.539,298.725,8.932,298.611,11.719z"/>
				<path fill="#331842" d="M318.38,4.482v9.658c0,2.975-1.825,4.463-5.476,4.463h-0.288c-3.057-0.261-4.638-1.508-4.743-3.74
					c0-4.46-0.061-7.976-0.183-10.547h3.485c-0.087,1.471-0.131,3.199-0.131,5.186c0,1.393,0.022,2.916,0.065,4.57
					c0.018,1.211,0.603,1.816,1.756,1.816c0,0.006,0.004,0.01,0.013,0.01c1.144,0,1.716-0.775,1.716-2.324l-0.065-9.004
					L318.38,4.482z"/>
				<path fill="#331842" d="M323.214,18.047l-3.262,0.225c0-4.779-0.105-9.265-0.314-13.457l3.733-0.234
					C323.275,9,323.223,13.489,323.214,18.047z"/>
				<path fill="#331842" d="M324.681,18.516c0.105-2.227,0.157-4.395,0.157-6.504c0-2.436-0.07-4.795-0.209-7.08l3.852-0.137
					l3.537,7.354c-0.035-2.526-0.131-5.111-0.288-7.754l4.048-0.039c-0.402,3.99-0.603,8.021-0.603,12.09
					c0,0.547,0.004,1.094,0.013,1.641l-3.55,0.029l-3.773-7.871c0.113,2.903,0.218,5.602,0.314,8.096L324.681,18.516z"/>
				<path fill="#331842" d="M337.035,18.428c0.017-2.194,0.026-4.453,0.026-6.777c0-2.331-0.009-4.724-0.026-7.178
					c1.004-0.092,1.93-0.137,2.777-0.137c2.358,0,4.096,0.352,5.214,1.055c1.52,0.963,2.314,2.744,2.384,5.342v0.703
					c0,2.227-0.288,3.814-0.865,4.766c-0.637,1.048-1.803,1.744-3.498,2.09c-0.979,0.201-2.053,0.303-3.223,0.303
					C338.952,18.594,338.022,18.538,337.035,18.428z M340.284,7.266c-0.149,2.142-0.223,4.212-0.223,6.211
					c0,0.755,0.008,1.497,0.026,2.227c0.306,0.052,0.598,0.078,0.878,0.078c0.769,0,1.415-0.199,1.939-0.596
					c0.716-0.534,1.074-1.732,1.074-3.594v-0.039c-0.009-1.875-0.358-3.105-1.048-3.691c-0.533-0.443-1.166-0.664-1.899-0.664
					C340.795,7.197,340.546,7.22,340.284,7.266z"/>
				<path fill="#331842" d="M352.074,18.047l-3.262,0.225c0-4.779-0.105-9.265-0.314-13.457l3.733-0.234
					C352.135,9,352.083,13.489,352.074,18.047z M348.812,2.588c1.022-0.905,1.86-1.768,2.515-2.588l2.148,1.27
					c-0.926,0.677-1.957,1.507-3.092,2.49L348.812,2.588z"/>
				<path fill="#331842" d="M359.502,4.404c3.677,0,5.515,2.344,5.515,7.031c0,4.693-1.969,7.041-5.908,7.041
					s-5.908-2.432-5.908-7.295C353.201,6.663,355.301,4.404,359.502,4.404z M356.882,11.699c-0.009,0.169-0.013,0.332-0.013,0.488
					c0,2.454,0.769,3.682,2.306,3.682c1.633,0,2.45-1.391,2.45-4.17c0-2.78-0.76-4.17-2.279-4.17
					C357.817,7.529,356.996,8.919,356.882,11.699z"/>
			</g>
		</g>
	</g>
</g>
</svg>
