<?xml version="1.0" encoding="utf-8"?>
<!-- Generator: Adobe Illustrator 16.0.0, SVG Export Plug-In . SVG Version: 6.00 Build 0)  -->
<!DOCTYPE svg PUBLIC "-//W3C//DTD SVG 1.1//EN" "http://www.w3.org/Graphics/SVG/1.1/DTD/svg11.dtd">
<svg version="1.1" id="Layer_1" xmlns="http://www.w3.org/2000/svg" xmlns:xlink="http://www.w3.org/1999/xlink" x="0px" y="0px"
	 width="55.737px" height="69.453px" viewBox="0 0 55.737 69.453" enable-background="new 0 0 55.737 69.453" xml:space="preserve">
<g>
	<path fill="#321640" d="M44.65,58.75c-1.862,0.848-3.676,1.749-5.551,2.496c-1.539,0.613-1.845,0.396-2.782-0.957
		c-2.049-2.952-4.871-4.559-8.49-4.645c-9.547-0.221-17.289-4.076-22.742-11.905C-3.875,30.876-0.35,14.595,10.62,6.066
		c12.81-9.96,30.604-7.405,39.973,5.827c7.014,9.908,6.412,21.756,0.873,30.558c-2.273,3.611-2.93,7.206-1.104,11.134
		c0.458,0.985-0.161,1.584-0.82,2.035C47.94,56.714,46.278,57.717,44.65,58.75z M38.827,47.954
		c10.936-5.945,14.977-19.627,9.037-30.594C41.961,6.463,28.159,2.368,17.249,8.278C6.303,14.208,2.235,28.035,8.209,38.996
		C14.155,49.907,27.858,53.914,38.827,47.954z"/>
	<path fill="#321640" d="M48.252,65.451c-1.6,0.865-3.198,1.734-4.797,2.601c-0.813,0.439-1.674,0.683-2.201-0.313
		c-0.489-0.928,0.142-1.523,0.91-1.941c3.229-1.761,6.463-3.516,9.699-5.262c0.771-0.417,1.61-0.618,2.123,0.298
		c0.549,0.985-0.126,1.575-0.938,2.015C51.451,63.717,49.852,64.584,48.252,65.451z"/>
	<path fill="#321640" d="M45.382,60.047c1.633-0.886,3.267-1.768,4.896-2.658c0.737-0.402,1.506-0.615,1.992,0.272
		c0.498,0.915-0.045,1.513-0.845,1.944c-3.266,1.769-6.53,3.537-9.793,5.313c-0.795,0.432-1.601,0.581-2.096-0.337
		c-0.521-0.967,0.182-1.47,0.945-1.882C42.121,61.82,43.75,60.932,45.382,60.047z"/>
	<path fill="#321640" d="M49.923,68.626c-0.533,0.29-1.045,0.754-1.604,0.815c-0.541,0.062-1.404-0.135-1.619-0.508
		c-0.207-0.363,0.047-1.342,0.418-1.617c0.998-0.737,2.127-1.351,3.289-1.789c0.438-0.164,1.393,0.13,1.598,0.498
		c0.205,0.375-0.074,1.23-0.42,1.637c-0.393,0.458-1.096,0.65-1.664,0.96C49.922,68.622,49.923,68.624,49.923,68.626z"/>
	<path fill="#321640" d="M27.719,9.957c-9.989,0.01-18.08,8.12-18.069,18.109c0,9.991,8.109,18.081,18.1,18.07
		c9.99,0,18.09-8.11,18.08-18.1C45.82,18.037,37.709,9.946,27.719,9.957z M28.429,15.776c1.57,0.021,2.91,1.41,2.87,2.96
		c-0.04,1.58-1.439,2.91-2.989,2.86c-1.53-0.06-2.811-1.39-2.82-2.92C25.48,17.117,26.86,15.757,28.429,15.776z M30.2,40.307
		c-1.89,0-3.79-0.029-5.69,0.01c-0.89,0.021-1.22-0.318-1.16-1.188c0.051-0.739,0.04-1.489,0-2.239
		c-0.029-0.74,0.271-1.08,1.011-1.011c0.84,0.08,1.13-0.29,1.12-1.12c-0.04-2.101-0.04-4.2,0-6.3c0.01-0.82-0.25-1.23-1.11-1.12
		c-0.84,0.109-1-0.36-1.021-1.09c-0.069-3.271-0.09-3.271,3.141-3.271c1.22,0,2.439,0.04,3.66-0.01c0.87-0.04,1.22,0.27,1.189,1.17
		c-0.04,1.79-0.01,3.59-0.01,5.38c0,0,0,0,0.01,0c0,1.771,0.021,3.53-0.02,5.29c-0.01,0.78,0.27,1.15,1.069,1.07
		c0.79-0.08,1.04,0.279,1.061,1.061C33.53,40.307,33.56,40.307,30.2,40.307z"/>
</g>
</svg>
