<?xml version="1.0" encoding="utf-8"?>
<!-- Generator: Adobe Illustrator 16.0.0, SVG Export Plug-In . SVG Version: 6.00 Build 0)  -->
<!DOCTYPE svg PUBLIC "-//W3C//DTD SVG 1.1//EN" "http://www.w3.org/Graphics/SVG/1.1/DTD/svg11.dtd">
<svg version="1.1" id="Layer_1" xmlns="http://www.w3.org/2000/svg" xmlns:xlink="http://www.w3.org/1999/xlink" x="0px" y="0px"
	 width="194.96px" height="74.048px" viewBox="0 0 194.96 74.048" enable-background="new 0 0 194.96 74.048" xml:space="preserve">
<g>
	<g>
		<g>
			<path fill="#F3DFBF" d="M194.954,56.801c-0.01-0.16-0.016-0.324-0.014-0.488c-0.004-0.076,0-0.16-0.012-0.232
				c-0.131-1.08-0.979-2.104-1.98-2.428c-0.688-0.608-1.533-1.104-2.605-1.438c-2.143-1.315-4.879-1.976-7.014-2.371
				c-1.697-0.314-8.357-0.589-11.234,0.795c-4.867-0.287-10.084,0.691-14.828,1.074c-5.973,0.479-12.658,0.463-18.395,2.606
				c-5.197-0.38-10.555,0.229-15.752,0.386c-5.592,0.174-11.184,0.279-16.779,0.354c-5.592,0.07-11.185,0.063-16.777,0.064
				c-4.759,0.002-9.885-0.598-14.674,0.03c-5.54-1.08-11.132-1.54-16.636-3.038c-6.438-1.756-12.544-4.572-18.626-7.357
				c-9.192-4.207-21.196-10.174-31.619-7.896c-0.079-0.438-0.379-0.788-0.941-0.713C1.118,36.918-1.726,44.594,1.1,49.93
				c4.738,8.955,16.478,11.642,25.328,13.573c25,5.464,50.67,0.005,75.889,0.486c24.428,0.47,48.166,9.828,72.691,5.483
				c6.969-1.233,18.568-3.908,19.951-12.49C194.956,56.922,194.959,56.86,194.954,56.801z"/>
			<path opacity="0.5" fill="#F2DBB9" enable-background="new    " d="M194.954,56.801c-0.01-0.16-0.016-0.324-0.014-0.488
				c-0.004-0.076,0-0.16-0.012-0.232c-0.131-1.08-0.979-2.104-1.98-2.428c-0.688-0.608-1.533-1.104-2.605-1.438
				c-2.143-1.315-4.879-1.976-7.014-2.371c-1.697-0.314-8.357-0.589-11.234,0.795c-4.867-0.287-10.084,0.691-14.828,1.074
				c-5.973,0.479-12.658,0.463-18.395,2.606c-5.197-0.38-10.555,0.229-15.752,0.386c-5.592,0.174-11.184,0.279-16.779,0.354
				c-5.592,0.07-11.185,0.063-16.777,0.064c-4.759,0.002-9.885-0.598-14.674,0.03c-5.54-1.08-11.132-1.54-16.636-3.038
				c-6.438-1.756-12.544-4.572-18.626-7.357c-9.192-4.207-21.196-10.174-31.619-7.896c-0.079-0.438-0.379-0.788-0.941-0.713
				C1.118,36.918-1.726,44.594,1.1,49.93c4.738,8.955,16.478,11.642,25.328,13.573c25,5.464,50.67,0.005,75.889,0.486
				c24.428,0.47,48.166,9.828,72.691,5.483c6.969-1.233,18.568-3.908,19.951-12.49C194.956,56.922,194.959,56.86,194.954,56.801z"/>
			<path opacity="0.5" fill="#F2DBB9" enable-background="new    " d="M194.954,56.801c-0.01-0.16-0.016-0.324-0.014-0.488
				c-0.004-0.076,0-0.16-0.012-0.232c-0.131-1.08-0.979-2.104-1.98-2.428c-0.688-0.608-1.533-1.104-2.605-1.438
				c-2.143-1.315-4.879-1.976-7.014-2.371c-1.697-0.314-8.357-0.589-11.234,0.795c-4.867-0.287-10.084,0.691-14.828,1.074
				c-5.973,0.479-12.658,0.463-18.395,2.606c-5.197-0.38-10.555,0.229-15.752,0.386c-5.592,0.174-11.184,0.279-16.779,0.354
				c-5.592,0.07-11.185,0.063-16.777,0.064c-4.759,0.002-9.885-0.598-14.674,0.03c-5.54-1.08-11.132-1.54-16.636-3.038
				c-6.438-1.756-12.544-4.572-18.626-7.357c-9.192-4.207-21.196-10.174-31.619-7.896c-0.079-0.438-0.379-0.788-0.941-0.713
				C1.118,36.918-1.726,44.594,1.1,49.93c4.738,8.955,16.478,11.642,25.328,13.573c25,5.464,50.67,0.005,75.889,0.486
				c24.428,0.47,48.166,9.828,72.691,5.483c6.969-1.233,18.568-3.908,19.951-12.49C194.956,56.922,194.959,56.86,194.954,56.801z"/>
			<path opacity="0.5" fill="#F2DBB9" enable-background="new    " d="M176.674,53.346c-2.291-2.713-5.271-2.522-8.588-2.375
				c-2.947,0.133-5.887,0.328-8.828,0.553c-0.672,0.07-1.338,0.137-1.994,0.188c-0.92,0.074-1.857,0.138-2.807,0.195
				c-1.652,0.14-3.307,0.282-4.957,0.426c-1.205,0.104-2.406,0.209-3.604,0.313c-2.42,0.338-4.793,0.839-7.027,1.672
				c-5.197-0.381-10.555,0.229-15.752,0.386c-1.004,0.032-2.012,0.052-3.018,0.078c-2.436,0.28-4.832,0.707-7.107,1.498
				c-1.844-0.151-3.67-0.28-5.439-0.443c-2.771-0.253-5.549-0.491-8.322-0.729c-3.226,0.01-6.449,0.014-9.671,0.016
				c-4.758,0.002-9.884-0.598-14.673,0.03c-5.54-1.08-11.132-1.54-16.636-3.038c-3.862-1.055-7.604-2.493-11.299-4.072
				c-0.051-0.018-0.103-0.035-0.154-0.052c-0.031-0.019-0.061-0.035-0.093-0.054c-2.376-1.022-4.731-2.103-7.08-3.18
				c-4.588-2.099-9.872-4.636-15.313-6.369c-5.025-1.196-13.422-1.416-12.03,5.916c1.377,7.282,8.92,12.864,15.02,16.223
				c5.258,2.894,12.392,4.99,18.687,4.238c1.115,0.537,2.271,0.897,3.453,1.162c17.592,0.26,35.343-2.274,52.875-1.938
				c7.361,0.141,14.656,1.091,21.934,2.229c1.736-0.358,3.484-0.675,5.264-0.889c3.434-0.414,6.744,0.102,10.121,0.337
				c7.818,2.983,16.178,2.466,24.189,0.015C167.223,64.641,181.606,59.188,176.674,53.346z"/>
		</g>
		<g>
			<path fill="#795240" d="M132.374,65.973c0,0,0.809,0.164,2.232,0.408c1.422,0.25,3.457,0.592,5.91,0.87
				c2.447,0.288,5.332,0.591,8.375,0.406c1.51-0.104,3.088-0.379,4.676-0.651c1.59-0.287,3.199-0.625,4.801-0.998
				c3.193-0.771,6.393-1.549,9.303-2.535c1.459-0.481,2.838-1.023,4.109-1.593c1.258-0.597,2.422-1.226,3.037-2.22
				c0.633-0.98,0.824-2.1,0.842-3.073c0.01-0.981-0.148-1.845-0.316-2.538c-0.355-1.393-0.717-2.145-0.717-2.145
				s0.107,0.178,0.279,0.525c0.17,0.349,0.414,0.865,0.639,1.56c0.225,0.692,0.455,1.558,0.521,2.588
				c0.072,1.021-0.072,2.253-0.74,3.399c-0.33,0.572-0.816,1.091-1.385,1.5c-0.561,0.414-1.172,0.773-1.814,1.104
				c-1.281,0.669-2.695,1.215-4.164,1.733c-2.947,1.016-6.137,1.947-9.383,2.629c-1.619,0.353-3.248,0.668-4.859,0.935
				c-1.615,0.263-3.203,0.502-4.787,0.546c-1.572,0.047-3.08-0.041-4.502-0.175c-1.418-0.147-2.756-0.312-3.98-0.521
				C135.549,66.895,132.374,65.973,132.374,65.973z"/>
		</g>
		<g>
			<path fill="#795240" d="M170.696,70.098c0,0,1.631-0.473,4.006-1.381c2.373-0.896,5.504-2.256,8.305-4.154
				c0.699-0.471,1.381-0.969,2.004-1.517c0.635-0.536,1.199-1.128,1.695-1.739c0.486-0.621,0.898-1.268,1.17-1.937
				c0.146-0.33,0.264-0.66,0.33-0.993c0.104-0.324,0.125-0.652,0.156-0.966c0.043-0.625,0-1.208-0.111-1.708
				c-0.063-0.514-0.277-0.919-0.375-1.275c-0.313-0.67-0.506-1.05-0.506-1.05s0.207,0.369,0.545,1.032
				c0.109,0.354,0.342,0.757,0.424,1.273c0.133,0.502,0.199,1.096,0.158,1.735c-0.029,0.32-0.047,0.657-0.148,0.991
				c-0.064,0.342-0.182,0.682-0.324,1.021c-0.27,0.687-0.684,1.353-1.168,1.988c-0.498,0.629-1.066,1.236-1.699,1.788
				c-0.625,0.562-1.311,1.075-2.01,1.56c-2.852,1.883-6.01,3.203-8.398,4.072C172.348,69.701,170.696,70.098,170.696,70.098z"/>
		</g>
		<polygon fill="#795240" points="176.592,51.905 180.219,54.426 177.594,56.615 		"/>
		<polygon fill="#795240" points="177.336,57.346 175.866,60.428 178.405,60.428 		"/>
		<polygon fill="#795240" points="174.565,61.736 170.696,64.639 174.565,64.639 		"/>
		<polygon fill="#795240" points="168.473,65.377 163.979,66.537 167.17,68.051 		"/>
		<polygon fill="#795240" points="162.819,67.171 157.889,67.717 161.223,70.098 		"/>
		<polygon fill="#795240" points="154.555,68.635 149.821,68.635 153.237,70.098 		"/>
		<polygon fill="#795240" points="189.68,55.374 189.68,57.346 191.381,56.358 		"/>
		<polygon fill="#795240" points="189.68,58.883 188.458,60.428 190.532,60.428 		"/>
		<polygon fill="#795240" points="187.903,61.736 186.307,63.639 187.903,63.639 		"/>
		<polygon fill="#795240" points="185.364,64.072 183.336,65.377 185.002,65.377 		"/>
		<polygon fill="#795240" points="182.391,65.958 180.653,67.171 182.391,67.171 		"/>
		<polygon fill="#795240" points="178.84,67.717 177.133,68.635 178.84,68.176 		"/>
	</g>
	<g>
		<path fill="#F3DFBF" d="M142.592,52.904c-0.855,0.196-1.709,0.399-2.563,0.604c1.918-12.736-1.701-26.481-8.197-37.816
			c-3.121-5.438-7.297-10.806-13.084-12.164c-5.539-1.301-10.781-1.193-16.094-2.129c-7.744-1.364-11.123,0.08-18.141-1.184
			C77.734-1.002,72.23,3.153,67.452,7.758c-10.202,9.832-19.96,23.131-22.977,37.279c-0.032,0.155-0.027,0.299-0.01,0.437
			c-0.274,0.194-0.28,0.672,0.123,0.965c7.644,5.535,17.177,8.552,25.13,11.849c7.975,3.298,15.837,5.373,23.917,6.077
			c16.361,1.426,34.097-2.913,49.373-8.635C144.633,55.117,144.282,52.516,142.592,52.904z"/>
		<path fill="#795240" d="M93.593,52.038c-9.362-0.173-18.854-2.191-27.988-4.202c-5.251-1.155-15.292-4.308-20.297-6.091
			c-2.768,5.01-0.289,1.23-0.833,3.293c-0.041,0.152-0.027,0.299-0.01,0.438c-0.274,0.193-0.28,0.672,0.123,0.965
			c7.644,5.535,17.177,8.551,25.13,11.848c3.203,1.323,6.388,2.439,9.574,3.361c1.766,0.021,3.523,0.015,5.264-0.025
			c8.864-0.197,17.714-1.191,26.541-1.975c8.32-0.74,17.064-0.809,25.133-3.147c2.615-0.758,4.957-1.999,6.986-3.593
			c-0.182-0.049-0.389-0.059-0.623-0.004c-0.855,0.195-1.828,4.221-2.68,4.427c0.754-5.017,0.77,1.343,0.623-8.263
			C126.104,53.62,108.827,52.323,93.593,52.038z"/>
		<path opacity="0.5" fill="#F2DBB9" enable-background="new    " d="M142.592,52.904c-0.855,0.196-1.709,0.399-2.563,0.604
			c1.918-12.736-1.701-26.481-8.197-37.816c-3.121-5.438-7.297-10.806-13.084-12.164c-5.539-1.301-10.701-2.196-16.094-2.129
			c-7.079,0.089-11.123,0.08-18.141-1.184C77.734-1.002,72.23,3.153,67.452,7.758c-10.202,9.832-19.96,23.131-22.977,37.279
			c-0.032,0.155-0.027,0.299-0.01,0.437c-0.274,0.194-0.28,0.672,0.123,0.965c7.644,5.535,17.177,8.552,25.13,11.849
			c7.975,3.298,15.837,5.373,23.917,6.077c16.361,1.426,34.097-2.913,49.373-8.635C144.633,55.117,144.282,52.516,142.592,52.904z"
			/>
		<path fill="#F3DFBF" d="M194.167,54.479c-4.426-3.926-9.564-5.922-14.967-6.598c-5.039-0.85-10.406-0.603-15.281-0.283
			c-8.021,0.522-15.988,1.984-23.928,3.213c-16.064,2.486-32.145,3.225-48.338,1.853c-15.954-1.354-31.675-4.994-46.849-10.257
			C32.479,38.133,17.379,31.51,4.386,36.704C4.007,37,3.597,37.344,3.172,37.628c-0.943,0.783-1.747,1.88-2.336,3.394
			c-0.355,0.914,0.921,1.27,1.396,0.617c3.984-5.48,10.63-1.734,15.172,0.436c3.863,1.847,7.659,3.855,11.426,5.916
			c7.08,3.865,14.042,7.967,21.142,11.802c14.215,7.673,29.119,13.452,45.235,14.188c17.216,0.789,32.542-5.426,47.81-12.961
			c15.896-7.846,33.324-14.166,50.121-5.142C193.956,56.319,194.938,55.166,194.167,54.479z"/>
		<path opacity="0.5" fill="#F2DBB9" enable-background="new    " d="M179.2,47.883c-5.039-0.851-10.406-0.604-15.281-0.285
			c-8.021,0.523-15.988,1.985-23.928,3.215c-16.064,2.486-32.145,3.224-48.338,1.852c-15.954-1.354-31.675-4.994-46.849-10.257
			c-11.79-4.09-26.123-10.319-38.717-6.306c9.319,0.453,17.559,2.475,26.067,6.656c8.333,4.096,16.007,9.432,24.198,13.797
			c15.52,8.271,34.101,12.43,51.667,11.223c1.139-0.079,1.912-1.824,0.645-2.387c-3.871-1.713-7.787-3.391-11.735-5.006
			c12.217,0.568,25.006-2.211,36.35-4.904c12.064-2.864,24.076-6.051,36.523-6.598c7.033-0.31,13.549,0.561,19.879,2.406
			C186.399,49.426,182.864,48.342,179.2,47.883z"/>
	</g>
	<g>
		<path fill="#795240" d="M140.124,44.225c0,0-1.445,0.127-3.982,0.259c-1.268,0.079-2.811,0.13-4.576,0.211
			c-1.77,0.042-3.764,0.136-5.941,0.142c-2.178,0.031-4.537,0.047-7.033,0.014c-2.496,0.006-5.125-0.092-7.846-0.156
			c-2.721-0.088-5.531-0.236-8.385-0.381c-2.852-0.221-5.752-0.357-8.643-0.652c-2.889-0.299-5.784-0.538-8.614-0.941
			c-2.837-0.361-5.629-0.711-8.311-1.186c-2.688-0.432-5.288-0.844-7.728-1.374c-2.442-0.515-4.772-0.901-6.877-1.468
			c-2.114-0.524-4.052-1.004-5.77-1.432c-1.704-0.476-3.173-0.947-4.392-1.307c-2.433-0.732-3.821-1.152-3.821-1.152
			s1.394,0.403,3.833,1.112c1.221,0.347,2.695,0.802,4.403,1.261c1.72,0.412,3.66,0.879,5.775,1.387
			c2.105,0.558,4.437,0.936,6.877,1.44c2.439,0.521,5.039,0.925,7.727,1.345c2.682,0.465,5.473,0.804,8.308,1.153
			c2.83,0.396,5.725,0.621,8.611,0.911c2.886,0.307,5.785,0.453,8.632,0.684c2.852,0.154,5.66,0.313,8.377,0.412
			c2.721,0.073,5.348,0.18,7.842,0.185c2.494,0.04,4.854,0.036,7.029,0.012c2.178-0.003,4.172-0.074,5.941-0.097
			c1.766-0.063,3.309-0.096,4.576-0.162C138.676,44.337,140.124,44.225,140.124,44.225z"/>
	</g>
	<g>
		<path fill="#795240" d="M138.647,32.32c0,0-1.318,0.212-3.643,0.479c-1.16,0.152-2.574,0.279-4.191,0.456
			c-1.623,0.136-3.451,0.328-5.453,0.444c-2,0.135-4.166,0.271-6.463,0.35c-2.293,0.122-4.717,0.146-7.223,0.193
			c-2.504,0.042-5.094-0.02-7.725-0.035c-2.629-0.119-5.305-0.154-7.97-0.346c-2.664-0.221-5.337-0.342-7.948-0.684
			c-2.615-0.295-5.192-0.554-7.663-0.983c-2.478-0.386-4.875-0.729-7.118-1.238c-1.125-0.231-2.219-0.456-3.278-0.674
			c-0.528-0.111-1.049-0.22-1.559-0.327c-0.504-0.133-0.999-0.264-1.484-0.391c-1.938-0.516-3.713-0.986-5.288-1.404
			c-1.558-0.473-2.895-0.958-4.006-1.32c-2.216-0.744-3.481-1.17-3.481-1.17s1.271,0.411,3.496,1.131
			c1.114,0.349,2.456,0.818,4.018,1.272c1.576,0.403,3.354,0.86,5.295,1.36c0.484,0.125,0.979,0.254,1.483,0.385
			c0.51,0.104,1.029,0.212,1.559,0.32c1.06,0.213,2.153,0.434,3.278,0.66c2.241,0.5,4.639,0.834,7.114,1.209
			c2.469,0.42,5.045,0.666,7.657,0.951c2.608,0.331,5.28,0.44,7.941,0.652c2.664,0.201,5.333,0.247,7.96,0.377
			c2.627,0.025,5.215,0.098,7.719,0.064c2.504-0.039,4.924-0.053,7.217-0.164c2.295-0.07,4.463-0.197,6.461-0.324
			c2-0.114,3.828-0.284,5.453-0.399c1.619-0.157,3.035-0.271,4.195-0.407C137.325,32.516,138.647,32.32,138.647,32.32z"/>
	</g>
	<g>
		<path fill="#795240" d="M135.85,22.75c0,0-4.756,0.35-11.906,0.432c-3.574,0.028-7.746,0.027-12.213-0.119
			c-2.234-0.038-4.539-0.185-6.885-0.279c-2.342-0.13-4.721-0.301-7.098-0.47c-2.372-0.242-4.75-0.426-7.078-0.714
			c-2.326-0.313-4.628-0.525-6.831-0.905c-2.203-0.373-4.352-0.627-6.354-1.061c-2.007-0.41-3.918-0.732-5.657-1.147
			c-1.737-0.426-3.329-0.815-4.739-1.161c-1.41-0.348-2.607-0.768-3.609-1.054c-1.996-0.604-3.137-0.95-3.137-0.95
			s1.146,0.331,3.147,0.91c1.006,0.272,2.207,0.678,3.621,1.007c1.413,0.332,3.006,0.707,4.745,1.116
			c1.738,0.407,3.65,0.721,5.656,1.122c2.003,0.424,4.151,0.668,6.354,1.031c2.203,0.37,4.504,0.571,6.828,0.874
			c2.328,0.278,4.704,0.449,7.075,0.683c2.375,0.18,4.75,0.36,7.09,0.501c2.342,0.104,4.645,0.262,6.877,0.31
			c4.463,0.165,8.633,0.186,12.207,0.172c3.572-0.028,6.551-0.078,8.633-0.157C134.661,22.824,135.85,22.75,135.85,22.75z"/>
	</g>
	<path fill="#795240" d="M100.09,45.381c1.486,0.235,0,6.014,0,6.014s-16.433-0.155-19.477-1.676
		c-3.046-1.523,1.086-6.526,1.086-6.526S96.4,44.799,100.09,45.381z"/>
	<path fill="#795240" d="M100.467,32.811c0,0,2.414,6.486-0.32,6.938c-2.73,0.454-18.63-0.021-20.154-2.068
		c-1.521-2.045-2.153-4.994,1.543-5.301C85.233,32.074,100.467,32.811,100.467,32.811z"/>
	<path fill="#795240" d="M103.915,24.491c0,0,1.688,5.713-1.26,7.493c-2.949,1.776-17.691,0.257-19.649-1.226
		c-1.958-1.486-0.437-8.118,1.521-7.63C86.485,23.619,100.012,23.129,103.915,24.491z"/>
	<path fill="#795240" d="M102.737,14.051c0,0,5.99,7.396,1.178,7.396c-4.816,0-19.387-0.74-19.17-2.221
		c0.219-1.478-3.479-6.701,1.463-7.528C91.146,10.867,100.719,13.396,102.737,14.051z"/>
	<path fill="#795240" d="M138.981,45.381v2.734c0,0-9.869,2.906-10.629,2.253c-0.764-0.649-0.863-4.987-0.863-4.987
		S137.54,44.311,138.981,45.381z"/>
	<path fill="#795240" d="M137.866,34.172l0.781,7.572c0,0-7.914,2.1-10.355,1.447c-2.445-0.65-1.773-8.039-0.805-8.043
		C128.458,35.145,137.866,34.172,137.866,34.172z"/>
	<path fill="#795240" d="M135.85,30.76c0,0-7.828,3.52-9.24,1.561c-1.412-1.958-3.152-7.612-1.197-7.612
		c1.957,0,8.809-1.632,9.354-0.869C135.309,24.598,137.454,30.1,135.85,30.76z"/>
	<path fill="#795240" d="M131.612,17.697c0,0,2.5,2.986,2.064,3.749c-0.436,0.759-8.818,1.305-9.137,0.434
		c-0.322-0.87,0-5.393,0-5.393S130.088,16.885,131.612,17.697z"/>
	<path fill="#795240" d="M48.446,36.137c0,0,3.462,0.672,5.708,1.616c2.246,0.945,1.667,5.691,0,5.565
		c-1.669-0.127-7.467-2.303-7.467-2.303S46.584,37.78,48.446,36.137z"/>
	<path fill="#795240" d="M53.153,27.034c0,0-4.565,5.621-3.34,7.139c1.223,1.518,7.745,1.965,7.745,1.965s4.643-3.973,2.176-6.216
		C57.27,27.678,53.153,27.034,53.153,27.034z"/>
	<path fill="#795240" d="M60.457,16.661c0,0-6.22,6.207-4.993,7.454c1.228,1.244,8.57,2.919,8.57,2.919s4.663-5.335,2.43-7.058
		C64.229,18.255,60.457,16.661,60.457,16.661z"/>
	<path fill="none" stroke="#795240" stroke-miterlimit="10" d="M12.13,40.366"/>
	<g>
		<g>
			<path fill="#795240" d="M14.683,40.018c0,0-0.444,0.679-0.782,2.012c-0.158,0.665-0.288,1.494-0.221,2.438
				c0.011,0.95,0.316,1.982,0.697,3.066c0.482,1.052,1.104,2.148,1.98,3.154c0.442,0.498,0.863,1.035,1.407,1.486
				c0.527,0.461,1.012,0.99,1.615,1.41c0.59,0.432,1.144,0.93,1.787,1.325c0.636,0.405,1.279,0.815,1.927,1.231
				c1.373,0.724,2.768,1.457,4.161,2.192c1.372,0.815,2.843,1.332,4.246,1.981c0.708,0.305,1.404,0.623,2.105,0.91
				c0.716,0.252,1.424,0.502,2.12,0.746c1.394,0.485,2.727,1.002,4.035,1.353c1.303,0.37,2.518,0.792,3.677,1.034
				c1.153,0.255,2.199,0.562,3.145,0.744c0.944,0.186,1.766,0.367,2.448,0.481c0.684,0.113,1.22,0.202,1.586,0.263
				c0.368,0.051,0.563,0.078,0.563,0.078s-0.792-0.021-2.177-0.146c-0.69-0.066-1.524-0.19-2.487-0.309
				c-0.963-0.113-2.03-0.345-3.203-0.563c-1.181-0.193-2.419-0.564-3.75-0.881c-1.339-0.299-2.71-0.746-4.122-1.234
				c-0.708-0.238-1.429-0.48-2.156-0.725c-0.717-0.281-1.433-0.598-2.161-0.898c-1.435-0.638-2.975-1.162-4.341-1.953
				c-1.397-0.764-2.793-1.525-4.168-2.275c-0.66-0.436-1.313-0.866-1.96-1.293c-0.653-0.414-1.224-0.938-1.824-1.394
				c-0.609-0.444-1.124-0.991-1.642-1.501c-0.54-0.49-0.962-1.074-1.401-1.613c-0.868-1.09-1.478-2.276-1.934-3.404
				c-0.369-1.162-0.605-2.271-0.544-3.262c0-0.987,0.194-1.832,0.403-2.498c0.215-0.67,0.471-1.158,0.659-1.479
				C14.561,40.174,14.683,40.018,14.683,40.018z"/>
		</g>
		<g>
			<path fill="#795240" d="M26.427,63.502c0,0-2.104-0.744-5.185-2.051c-3.063-1.338-7.151-3.169-10.906-5.615
				c-0.933-0.615-1.831-1.294-2.638-2.052c-0.79-0.754-1.547-1.63-1.804-2.683c-0.308-0.998-0.589-1.971-0.798-2.909
				c-0.243-0.931-0.387-1.827-0.563-2.646c-0.134-0.825-0.281-1.579-0.36-2.255c-0.092-0.674-0.167-1.262-0.217-1.747
				c-0.109-0.97-0.148-1.526-0.148-1.526s0.057,0.556,0.193,1.521c0.125,0.967,0.372,2.339,0.669,3.98
				c0.185,0.814,0.336,1.709,0.588,2.631c0.216,0.93,0.508,1.896,0.825,2.894c0.255,1.005,0.984,1.834,1.771,2.573
				c0.798,0.741,1.699,1.393,2.615,2.02c3.707,2.463,7.778,4.332,10.823,5.693C24.348,62.692,26.427,63.502,26.427,63.502z"/>
		</g>
		<polygon fill="#795240" points="12.13,40.366 11.454,42.087 10.585,40.727 		"/>
		<polygon fill="#795240" points="11.356,43.322 11.356,44.799 9.86,44.061 11.356,42.614 		"/>
		<polygon fill="#795240" points="11.356,45.658 11.738,47.469 10.293,46.563 		"/>
		<polygon fill="#795240" points="12.13,48.34 12.833,49.719 11.356,49.354 		"/>
		<polygon fill="#795240" points="13.484,50.586 14.572,51.905 12.833,52.327 		"/>
		<polygon fill="#795240" points="15.659,53.378 18.051,55.153 15.659,55.153 		"/>
		<polygon fill="#795240" points="18.922,56.168 21.53,57.909 19.284,57.909 		"/>
		<polygon fill="#795240" points="23.271,58.633 26.011,59.796 24.14,60.428 		"/>
		<polygon fill="#795240" points="27.639,60.709 30.59,62.121 28.489,62.121 		"/>
		<polygon fill="#795240" points="32.922,63.02 35.222,63.741 33.701,64.143 		"/>
		<polygon fill="#795240" points="3.264,41.225 3.48,43.322 2.611,42.614 		"/>
		<polygon fill="#795240" points="3.809,44.063 4.205,45.658 2.611,44.862 		"/>
		<polygon fill="#795240" points="4.205,46.563 4.785,48.631 3.046,47.905 		"/>
		<polygon fill="#795240" points="4.785,49.719 5.583,51.703 4.205,51.096 		"/>
		<polygon fill="#795240" points="6.087,52.734 7.54,54.266 6.087,54.426 		"/>
		<polygon fill="#795240" points="8.338,55.153 10.293,56.604 8.628,56.604 		"/>
		<polygon fill="#795240" points="11.356,57.038 14.136,58.633 12.095,58.633 		"/>
		<polygon fill="#795240" points="15.118,59.212 17.688,60.428 15.118,60.428 		"/>
		<polygon fill="#795240" points="19.428,61.026 20.879,61.66 19.428,61.832 		"/>
	</g>
	<g>
		<path fill="#795240" d="M191.969,52.734c0,0-0.697-0.315-2.064-0.734c-1.377-0.386-3.416-0.901-6.064-1.253
			c-2.645-0.334-5.883-0.625-9.602-0.552c-3.721-0.019-7.904,0.368-12.445,0.925c-4.521,0.686-9.406,1.563-14.482,2.878
			c-2.537,0.657-5.152,1.304-7.771,2.158c-1.314,0.403-2.645,0.813-3.988,1.226c-1.342,0.413-2.666,0.928-4.016,1.393
			c-2.693,0.955-5.438,1.934-8.225,2.877c-1.395,0.478-2.795,0.957-4.203,1.439c-1.408,0.479-2.875,0.807-4.32,1.219
			c-1.455,0.379-2.902,0.817-4.379,1.15c-1.486,0.29-2.977,0.58-4.469,0.871c-0.748,0.141-1.492,0.305-2.244,0.423l-2.273,0.263
			c-1.518,0.153-3.031,0.401-4.556,0.479c-6.102,0.4-12.26-0.046-18.122-1.4c-5.869-1.352-11.37-3.699-16.369-6.477
			c-2.52-1.354-4.934-2.813-7.451-3.913c-1.249-0.562-2.55-1.006-3.745-1.629c-1.215-0.592-2.354-1.278-3.484-1.945
			c-4.447-2.784-8.517-5.628-12.536-7.821c-4.003-2.209-7.848-3.934-11.393-5.062c-0.867-0.335-1.75-0.53-2.58-0.778
			c-0.84-0.223-1.635-0.494-2.424-0.65c-1.578-0.311-3.011-0.688-4.334-0.863c-1.321-0.188-2.501-0.354-3.527-0.497
			c-1.034-0.077-1.914-0.144-2.626-0.196c-1.428-0.103-2.188-0.156-2.188-0.156s0.762,0.053,2.188,0.15
			c0.713,0.053,1.593,0.115,2.627,0.189c1.026,0.143,2.208,0.306,3.53,0.488c1.324,0.174,2.76,0.547,4.339,0.854
			c0.79,0.154,1.586,0.424,2.426,0.645c0.833,0.246,1.715,0.439,2.585,0.772c3.549,1.121,7.401,2.837,11.415,5.038
			c4.028,2.186,8.109,5.021,12.559,7.79c1.129,0.663,2.271,1.346,3.478,1.93c1.193,0.619,2.483,1.056,3.746,1.618
			c2.533,1.1,4.951,2.555,7.473,3.898c5.001,2.762,10.488,5.086,16.339,6.418c5.844,1.336,11.98,1.763,18.06,1.351
			c1.522-0.071,3.03-0.315,4.543-0.464l2.268-0.257c0.75-0.115,1.494-0.278,2.24-0.416c1.49-0.286,2.979-0.572,4.463-0.857
			c1.473-0.327,2.916-0.763,4.369-1.137c1.441-0.408,2.904-0.729,4.314-1.205c1.408-0.479,2.813-0.956,4.205-1.431
			c2.791-0.937,5.529-1.902,8.23-2.854c1.354-0.462,2.68-0.974,4.023-1.383c1.346-0.409,2.676-0.814,3.994-1.216
			c2.623-0.851,5.242-1.489,7.783-2.14c5.082-1.304,9.973-2.17,14.5-2.845c4.545-0.545,8.732-0.921,12.455-0.894
			c3.719-0.064,6.959,0.234,9.605,0.576c2.648,0.357,4.688,0.879,6.063,1.269C191.274,52.417,191.969,52.734,191.969,52.734z"/>
	</g>
	<g>
		<path fill="#795240" d="M22.622,35.557c0,0,0.607,0.18,1.746,0.518c0.57,0.166,1.273,0.369,2.083,0.668
			c0.811,0.29,1.757,0.591,2.779,1.023c2.076,0.789,4.52,1.94,7.255,3.389c2.732,1.451,5.71,3.285,8.9,5.349
			c3.21,2.039,6.625,4.32,10.727,5.777c1.013,0.386,2.012,0.896,3.022,1.413c1.012,0.512,1.987,1.066,3,1.605
			c2.009,1.086,4.056,2.194,6.191,3.199c4.269,2,8.877,3.698,13.753,4.577c0.6,0.151,1.212,0.244,1.83,0.317l1.848,0.25l1.854,0.252
			c0.622,0.05,1.248,0.067,1.873,0.103c1.251,0.054,2.503,0.146,3.758,0.168l3.77-0.131l1.887-0.063l1.875-0.211
			c1.25-0.141,2.498-0.279,3.744-0.42c2.48-0.371,4.926-0.914,7.367-1.356c2.4-0.636,4.783-1.267,7.137-1.888
			c2.332-0.701,4.594-1.533,6.842-2.274c2.242-0.743,4.457-1.558,6.613-2.292c1.078-0.374,2.148-0.743,3.203-1.108
			c1.074-0.325,2.133-0.646,3.178-0.962c4.166-1.318,8.172-2.313,11.873-3.193c1.863-0.393,3.648-0.768,5.346-1.123
			c1.713-0.274,3.338-0.535,4.865-0.78c1.527-0.241,2.973-0.354,4.299-0.521c1.328-0.174,2.553-0.256,3.662-0.32
			c1.105-0.066,2.094-0.147,2.955-0.183c0.859-0.015,1.594-0.026,2.188-0.036c1.188-0.021,1.82-0.031,1.82-0.031
			s-0.633,0.027-1.82,0.074c-0.592,0.024-1.324,0.056-2.184,0.09c-0.859,0.056-1.842,0.16-2.947,0.254
			c-1.104,0.092-2.324,0.201-3.645,0.406c-1.32,0.197-2.756,0.347-4.273,0.625c-1.516,0.279-3.127,0.578-4.828,0.894
			c-1.686,0.382-3.459,0.782-5.309,1.2c-3.678,0.929-7.656,1.974-11.777,3.341c-1.035,0.327-2.082,0.659-3.145,0.997
			c-1.051,0.38-2.113,0.764-3.189,1.152c-2.158,0.78-4.332,1.566-6.592,2.334c-2.26,0.758-4.531,1.604-6.877,2.32
			c-2.369,0.637-4.762,1.311-7.186,1.936c-2.463,0.459-4.93,1.018-7.436,1.404c-1.262,0.146-2.525,0.295-3.789,0.442l-1.898,0.221
			l-1.912,0.072l-3.824,0.114c-1.273-0.028-2.546-0.127-3.815-0.188c-0.634-0.037-1.27-0.06-1.9-0.111l-1.884-0.265l-1.877-0.264
			c-0.626-0.077-1.249-0.175-1.857-0.331c-4.952-0.917-9.635-2.665-13.944-4.709c-2.155-1.031-4.221-2.143-6.215-3.268
			c-0.998-0.55-1.981-1.125-2.956-1.636c-0.971-0.515-1.93-1.022-2.95-1.428c-4.118-1.526-7.593-3.908-10.752-5.979
			c-3.171-2.094-6.085-3.99-8.77-5.504c-2.688-1.506-5.095-2.713-7.146-3.547c-1.01-0.457-1.944-0.779-2.747-1.089
			c-0.8-0.317-1.499-0.538-2.064-0.718C23.225,35.75,22.622,35.557,22.622,35.557z"/>
	</g>
	<g>
		<path fill="#795240" d="M131.176,51.619c0,0-0.314,0.146-0.904,0.42c-0.598,0.263-1.439,0.7-2.574,1.159
			c-1.121,0.464-2.482,1.025-4.043,1.671c-1.57,0.627-3.307,1.399-5.332,1.974c-2.002,0.604-4.156,1.396-6.5,1.944
			c-1.174,0.265-2.381,0.538-3.613,0.815c-1.234,0.281-2.494,0.58-3.807,0.717c-2.613,0.33-5.309,0.809-8.097,0.812
			c-2.775,0.207-5.605-0.016-8.437-0.137c-1.404-0.201-2.809-0.403-4.208-0.604c-0.703-0.076-1.388-0.252-2.074-0.41
			c-0.686-0.157-1.369-0.314-2.05-0.473c-1.375-0.261-2.673-0.771-3.977-1.181c-1.313-0.39-2.545-0.948-3.775-1.44
			c-2.456-0.998-4.713-2.205-6.809-3.382c-2.1-1.175-4.008-2.37-5.772-3.434c-0.889-0.485-1.73-1.035-2.555-1.411
			c-0.847-0.412-1.649-0.803-2.403-1.171c-0.763-0.343-1.471-0.755-2.109-1.147c-0.65-0.373-1.208-0.755-1.71-1.101
			c-1.021-0.668-1.77-1.265-2.293-1.65c-0.521-0.39-0.798-0.598-0.798-0.598s0.309,0.16,0.885,0.46
			c0.575,0.304,1.424,0.741,2.507,1.271c0.538,0.271,1.137,0.571,1.797,0.838c0.655,0.281,1.343,0.607,2.158,0.865
			c0.802,0.283,1.652,0.586,2.551,0.905c0.939,0.312,1.809,0.797,2.783,1.22c1.858,0.918,3.871,1.914,6,2.969
			c2.12,1.019,4.374,2.023,6.749,2.912c1.195,0.424,2.39,0.916,3.653,1.235c0.625,0.179,1.254,0.359,1.887,0.541
			c0.624,0.209,1.271,0.349,1.921,0.483c0.647,0.141,1.298,0.281,1.95,0.424s1.304,0.301,1.974,0.363
			c1.331,0.177,2.667,0.353,4.004,0.529c2.695,0.144,5.39,0.397,8.06,0.229c0.667-0.016,1.332-0.031,1.992-0.049
			c0.662,0.014,1.32-0.041,1.971-0.113c1.309-0.125,2.598-0.247,3.867-0.367c1.277-0.074,2.508-0.346,3.729-0.527
			c1.217-0.195,2.408-0.388,3.568-0.574c1.174-0.144,2.26-0.489,3.346-0.707c1.08-0.239,2.125-0.473,3.129-0.694
			c2.014-0.397,3.842-0.974,5.469-1.417c1.631-0.443,3.051-0.832,4.221-1.15C129.842,51.989,131.176,51.619,131.176,51.619z"/>
	</g>
</g>
</svg>
